{"bpm":120,"duration":521.8255813952635,"tracks":[{"instrumentFamily":"piano","notes":[{"name":"A3","midi":57,"time":"0.00","velocity":0.2283464566929134,"duration":"1.10"},{"name":"C#4","midi":61,"time":"0.74","velocity":0.23622047244094488,"duration":"1.48"},{"name":"A3","midi":57,"time":"1.13","velocity":0.2204724409448819,"duration":"0.73"},{"name":"E5","midi":76,"time":"1.47","velocity":0.10236220472440945,"duration":"0.06"},{"name":"A3","midi":57,"time":"1.88","velocity":0.2125984251968504,"duration":"0.72"},{"name":"C#4","midi":61,"time":"2.24","velocity":0.23622047244094488,"duration":"1.48"},{"name":"A3","midi":57,"time":"2.64","velocity":0.2125984251968504,"duration":"0.36"},{"name":"E5","midi":76,"time":"2.97","velocity":0.14960629921259844,"duration":"0.06"},{"name":"A3","midi":57,"time":"3.01","velocity":0.2204724409448819,"duration":"1.10"},{"name":"C#4","midi":61,"time":"3.73","velocity":0.2204724409448819,"duration":"1.50"},{"name":"C#7","midi":97,"time":"3.88","velocity":0.07874015748031496,"duration":"0.08"},{"name":"E5","midi":76,"time":"4.12","velocity":0.11023622047244094,"duration":"0.05"},{"name":"A3","midi":57,"time":"4.14","velocity":0.2204724409448819,"duration":"0.35"},{"name":"E5","midi":76,"time":"4.47","velocity":0.08661417322834646,"duration":"0.06"},{"name":"A3","midi":57,"time":"4.50","velocity":0.2125984251968504,"duration":"0.35"},{"name":"E5","midi":76,"time":"4.81","velocity":0.14960629921259844,"duration":"0.05"},{"name":"A3","midi":57,"time":"4.87","velocity":0.18110236220472442,"duration":"0.03"},{"name":"A3","midi":57,"time":"4.92","velocity":0.2204724409448819,"duration":"0.67"},{"name":"D4","midi":62,"time":"5.23","velocity":0.16535433070866143,"duration":"0.03"},{"name":"C#4","midi":61,"time":"5.27","velocity":0.23622047244094488,"duration":"1.05"},{"name":"A3","midi":57,"time":"5.62","velocity":0.1889763779527559,"duration":"0.15"},{"name":"E5","midi":76,"time":"5.76","velocity":0.08661417322834646,"duration":"0.05"},{"name":"G4","midi":67,"time":"5.79","velocity":0.18110236220472442,"duration":"0.03"},{"name":"G3","midi":55,"time":"5.83","velocity":0.15748031496062992,"duration":"0.05"},{"name":"F#4","midi":66,"time":"5.85","velocity":0.1968503937007874,"duration":"0.03"},{"name":"E4","midi":64,"time":"5.93","velocity":0.16535433070866143,"duration":"0.03"},{"name":"E4","midi":64,"time":"6.00","velocity":0.2204724409448819,"duration":"0.12"},{"name":"G#5","midi":80,"time":"6.02","velocity":0.07086614173228346,"duration":"0.03"},{"name":"E4","midi":64,"time":"6.13","velocity":0.12598425196850394,"duration":"0.06"},{"name":"E4","midi":64,"time":"6.37","velocity":0.2440944881889764,"duration":"0.73"},{"name":"C#4","midi":61,"time":"6.43","velocity":0.08661417322834646,"duration":"0.05"},{"name":"G#4","midi":68,"time":"6.53","velocity":0.07086614173228346,"duration":"0.07"},{"name":"G#4","midi":68,"time":"6.79","velocity":0.1968503937007874,"duration":"0.19"},{"name":"G#4","midi":68,"time":"7.03","velocity":0.14960629921259844,"duration":"0.44"},{"name":"E4","midi":64,"time":"7.12","velocity":0.2283464566929134,"duration":"0.35"},{"name":"E4","midi":64,"time":"7.50","velocity":0.2283464566929134,"duration":"0.36"},{"name":"G#5","midi":80,"time":"7.51","velocity":0.11811023622047244,"duration":"0.05"},{"name":"E4","midi":64,"time":"7.88","velocity":0.2125984251968504,"duration":"1.08"},{"name":"G#5","midi":80,"time":"7.90","velocity":0.11811023622047244,"duration":"0.05"},{"name":"G#4","midi":68,"time":"8.33","velocity":0.2125984251968504,"duration":"1.03"},{"name":"E4","midi":64,"time":"8.99","velocity":0.2204724409448819,"duration":"0.37"},{"name":"E5","midi":76,"time":"9.36","velocity":0.07874015748031496,"duration":"0.05"},{"name":"E4","midi":64,"time":"9.40","velocity":0.2283464566929134,"duration":"0.70"},{"name":"G#4","midi":68,"time":"9.81","velocity":0.2047244094488189,"duration":"1.06"},{"name":"E4","midi":64,"time":"10.12","velocity":0.23622047244094488,"duration":"0.37"},{"name":"E4","midi":64,"time":"10.52","velocity":0.1968503937007874,"duration":"0.34"},{"name":"E4","midi":64,"time":"10.90","velocity":0.2047244094488189,"duration":"0.27"},{"name":"G#5","midi":80,"time":"10.90","velocity":0.14960629921259844,"duration":"0.07"},{"name":"G#4","midi":68,"time":"11.31","velocity":0.2047244094488189,"duration":"0.99"},{"name":"E4","midi":64,"time":"11.62","velocity":0.2125984251968504,"duration":"0.23"},{"name":"D4","midi":62,"time":"11.93","velocity":0.14173228346456693,"duration":"0.03"},{"name":"D4","midi":62,"time":"12.00","velocity":0.2440944881889764,"duration":"0.36"},{"name":"F#5","midi":78,"time":"12.10","velocity":0.07086614173228346,"duration":"0.09"},{"name":"D4","midi":62,"time":"12.38","velocity":0.2283464566929134,"duration":"0.73"},{"name":"F#4","midi":66,"time":"12.51","velocity":0.07086614173228346,"duration":"0.05"},{"name":"F#4","midi":66,"time":"12.76","velocity":0.2204724409448819,"duration":"1.48"},{"name":"A#5","midi":82,"time":"12.79","velocity":0.07086614173228346,"duration":"0.03"},{"name":"D4","midi":62,"time":"13.13","velocity":0.2440944881889764,"duration":"0.38"},{"name":"D3","midi":50,"time":"13.43","velocity":0.07086614173228346,"duration":"0.06"},{"name":"D4","midi":62,"time":"13.52","velocity":0.25984251968503935,"duration":"2.60"},{"name":"F#4","midi":66,"time":"14.26","velocity":0.2125984251968504,"duration":"1.49"},{"name":"F#4","midi":66,"time":"15.77","velocity":0.2047244094488189,"duration":"1.47"},{"name":"D#4","midi":63,"time":"16.13","velocity":0.2283464566929134,"duration":"0.02"},{"name":"D4","midi":62,"time":"16.15","velocity":0.25984251968503935,"duration":"0.73"},{"name":"D3","midi":50,"time":"16.79","velocity":0.07086614173228346,"duration":"0.08"},{"name":"D4","midi":62,"time":"16.91","velocity":0.2204724409448819,"duration":"0.71"},{"name":"F#4","midi":66,"time":"17.24","velocity":0.2125984251968504,"duration":"0.47"},{"name":"D4","midi":62,"time":"17.63","velocity":0.25196850393700787,"duration":"0.09"},{"name":"G4","midi":67,"time":"17.71","velocity":0.18110236220472442,"duration":"0.06"},{"name":"D#4","midi":63,"time":"17.76","velocity":0.2283464566929134,"duration":"0.10"},{"name":"B3","midi":59,"time":"17.91","velocity":0.14173228346456693,"duration":"0.05"},{"name":"A3","midi":57,"time":"17.95","velocity":0.2440944881889764,"duration":"0.02"},{"name":"A3","midi":57,"time":"18.01","velocity":0.23622047244094488,"duration":"0.36"},{"name":"C#4","midi":61,"time":"18.02","velocity":0.1968503937007874,"duration":"0.36"},{"name":"A3","midi":57,"time":"18.40","velocity":0.2204724409448819,"duration":"0.72"},{"name":"C#4","midi":61,"time":"18.40","velocity":0.2204724409448819,"duration":"0.74"},{"name":"A3","midi":57,"time":"19.15","velocity":0.2125984251968504,"duration":"0.36"},{"name":"C#4","midi":61,"time":"19.16","velocity":0.2047244094488189,"duration":"0.41"},{"name":"A5","midi":81,"time":"19.20","velocity":0.09448818897637795,"duration":"0.07"},{"name":"A3","midi":57,"time":"19.53","velocity":0.2204724409448819,"duration":"0.05"},{"name":"A3","midi":57,"time":"19.59","velocity":0.2283464566929134,"duration":"1.05"},{"name":"C#4","midi":61,"time":"19.59","velocity":0.2204724409448819,"duration":"1.08"},{"name":"A3","midi":57,"time":"20.67","velocity":0.2204724409448819,"duration":"0.34"},{"name":"C#4","midi":61,"time":"20.69","velocity":0.2125984251968504,"duration":"0.33"},{"name":"C#4","midi":61,"time":"21.03","velocity":0.2125984251968504,"duration":"0.38"},{"name":"A3","midi":57,"time":"21.06","velocity":0.2204724409448819,"duration":"1.09"},{"name":"C#4","midi":61,"time":"21.44","velocity":0.2204724409448819,"duration":"0.71"},{"name":"A3","midi":57,"time":"22.16","velocity":0.2204724409448819,"duration":"0.36"},{"name":"C#4","midi":61,"time":"22.17","velocity":0.1968503937007874,"duration":"0.40"},{"name":"A5","midi":81,"time":"22.21","velocity":0.07086614173228346,"duration":"0.06"},{"name":"A3","midi":57,"time":"22.55","velocity":0.2283464566929134,"duration":"0.36"},{"name":"C#4","midi":61,"time":"22.58","velocity":0.2125984251968504,"duration":"0.29"},{"name":"C#7","midi":97,"time":"22.71","velocity":0.07086614173228346,"duration":"0.03"},{"name":"C#7","midi":97,"time":"22.86","velocity":0.08661417322834646,"duration":"0.07"},{"name":"C#4","midi":61,"time":"22.90","velocity":0.2125984251968504,"duration":"0.78"},{"name":"A3","midi":57,"time":"22.93","velocity":0.2125984251968504,"duration":"0.69"},{"name":"C#7","midi":97,"time":"22.95","velocity":0.11811023622047244,"duration":"0.06"},{"name":"C#7","midi":97,"time":"23.06","velocity":0.11023622047244094,"duration":"0.22"},{"name":"A3","midi":57,"time":"23.65","velocity":0.2204724409448819,"duration":"0.17"},{"name":"C#4","midi":61,"time":"23.69","velocity":0.1968503937007874,"duration":"0.12"},{"name":"C4","midi":60,"time":"23.80","velocity":0.14960629921259844,"duration":"0.06"},{"name":"G#3","midi":56,"time":"23.83","velocity":0.14173228346456693,"duration":"0.05"},{"name":"G4","midi":67,"time":"23.86","velocity":0.1889763779527559,"duration":"0.03"},{"name":"C#4","midi":61,"time":"23.90","velocity":0.11811023622047244,"duration":"0.03"},{"name":"G3","midi":55,"time":"23.91","velocity":0.16535433070866143,"duration":"0.03"},{"name":"A#3","midi":58,"time":"23.93","velocity":0.14173228346456693,"duration":"0.05"},{"name":"F#4","midi":66,"time":"23.93","velocity":0.18110236220472442,"duration":"0.03"},{"name":"E4","midi":64,"time":"24.03","velocity":0.2283464566929134,"duration":"0.35"},{"name":"G#4","midi":68,"time":"24.03","velocity":0.12598425196850394,"duration":"0.03"},{"name":"A#3","midi":58,"time":"24.05","velocity":0.10236220472440945,"duration":"0.03"},{"name":"G#4","midi":68,"time":"24.12","velocity":0.14173228346456693,"duration":"0.28"},{"name":"E4","midi":64,"time":"24.41","velocity":0.2283464566929134,"duration":"0.71"},{"name":"G#5","midi":80,"time":"24.44","velocity":0.07874015748031496,"duration":"0.07"},{"name":"G#4","midi":68,"time":"24.45","velocity":0.1968503937007874,"duration":"1.48"},{"name":"E4","midi":64,"time":"25.15","velocity":0.23622047244094488,"duration":"0.76"},{"name":"E4","midi":64,"time":"25.92","velocity":0.2047244094488189,"duration":"0.72"},{"name":"G#5","midi":80,"time":"25.93","velocity":0.11811023622047244,"duration":"0.05"},{"name":"G#4","midi":68,"time":"25.98","velocity":0.1889763779527559,"duration":"0.71"},{"name":"E4","midi":64,"time":"26.67","velocity":0.2125984251968504,"duration":"0.30"},{"name":"G#5","midi":80,"time":"26.70","velocity":0.08661417322834646,"duration":"0.03"},{"name":"G#4","midi":68,"time":"26.73","velocity":0.2125984251968504,"duration":"0.34"},{"name":"E4","midi":64,"time":"27.02","velocity":0.23622047244094488,"duration":"0.37"},{"name":"G#4","midi":68,"time":"27.12","velocity":0.2125984251968504,"duration":"0.30"},{"name":"E4","midi":64,"time":"27.41","velocity":0.2204724409448819,"duration":"0.43"},{"name":"G#4","midi":68,"time":"27.48","velocity":0.2204724409448819,"duration":"1.09"},{"name":"E4","midi":64,"time":"28.17","velocity":0.2125984251968504,"duration":"0.34"},{"name":"E4","midi":64,"time":"28.52","velocity":0.2283464566929134,"duration":"0.38"},{"name":"G#4","midi":68,"time":"28.62","velocity":0.2125984251968504,"duration":"1.03"},{"name":"E4","midi":64,"time":"28.93","velocity":0.18110236220472442,"duration":"0.27"},{"name":"E4","midi":64,"time":"29.67","velocity":0.2125984251968504,"duration":"0.21"},{"name":"G#4","midi":68,"time":"29.72","velocity":0.1968503937007874,"duration":"0.15"},{"name":"D#4","midi":63,"time":"29.88","velocity":0.09448818897637795,"duration":"0.03"},{"name":"G3","midi":55,"time":"29.93","velocity":0.10236220472440945,"duration":"0.03"},{"name":"D4","midi":62,"time":"30.02","velocity":0.2440944881889764,"duration":"0.38"},{"name":"F#4","midi":66,"time":"30.03","velocity":0.2204724409448819,"duration":"0.36"},{"name":"F#5","midi":78,"time":"30.40","velocity":0.11023622047244094,"duration":"0.37"},{"name":"F#4","midi":66,"time":"30.41","velocity":0.2125984251968504,"duration":"0.74"},{"name":"D4","midi":62,"time":"30.42","velocity":0.4015748031496063,"duration":"1.44"},{"name":"F#4","midi":66,"time":"31.16","velocity":0.2204724409448819,"duration":"0.72"},{"name":"D4","midi":62,"time":"31.88","velocity":0.15748031496062992,"duration":"0.07"},{"name":"F#4","midi":66,"time":"31.91","velocity":0.2125984251968504,"duration":"0.73"},{"name":"D4","midi":62,"time":"31.97","velocity":0.3228346456692913,"duration":"0.29"},{"name":"D3","midi":50,"time":"32.21","velocity":0.11023622047244094,"duration":"0.42"},{"name":"D4","midi":62,"time":"32.30","velocity":0.3779527559055118,"duration":"3.40"},{"name":"F#4","midi":66,"time":"32.66","velocity":0.2204724409448819,"duration":"0.72"},{"name":"F#4","midi":66,"time":"33.41","velocity":0.2047244094488189,"duration":"0.72"},{"name":"F#4","midi":66,"time":"34.15","velocity":0.2283464566929134,"duration":"0.37"},{"name":"F#4","midi":66,"time":"34.55","velocity":0.2204724409448819,"duration":"0.36"},{"name":"D3","midi":50,"time":"34.76","velocity":0.09448818897637795,"duration":"0.14"},{"name":"F#4","midi":66,"time":"34.92","velocity":0.23622047244094488,"duration":"0.91"},{"name":"D#4","midi":63,"time":"35.77","velocity":0.3464566929133858,"duration":"0.06"},{"name":"E4","midi":64,"time":"35.83","velocity":0.30708661417322836,"duration":"0.06"},{"name":"F4","midi":65,"time":"35.88","velocity":0.2677165354330709,"duration":"0.03"},{"name":"D#4","midi":63,"time":"35.93","velocity":0.2283464566929134,"duration":"0.02"},{"name":"F#4","midi":66,"time":"35.93","velocity":0.2204724409448819,"duration":"0.03"},{"name":"G4","midi":67,"time":"35.97","velocity":0.15748031496062992,"duration":"0.05"},{"name":"D#4","midi":63,"time":"35.98","velocity":0.13385826771653545,"duration":"0.05"},{"name":"G#4","midi":68,"time":"36.03","velocity":0.1889763779527559,"duration":"0.07"},{"name":"E4","midi":64,"time":"36.06","velocity":0.2440944881889764,"duration":"0.34"},{"name":"G#5","midi":80,"time":"36.13","velocity":0.09448818897637795,"duration":"0.05"},{"name":"G#4","midi":68,"time":"36.15","velocity":0.1889763779527559,"duration":"0.31"},{"name":"E4","midi":64,"time":"36.44","velocity":0.23622047244094488,"duration":"0.72"},{"name":"G#4","midi":68,"time":"36.50","velocity":0.36220472440944884,"duration":"1.17"},{"name":"E4","midi":64,"time":"37.19","velocity":0.23622047244094488,"duration":"0.33"},{"name":"C7","midi":96,"time":"37.52","velocity":0.10236220472440945,"duration":"0.07"},{"name":"E4","midi":64,"time":"37.56","velocity":0.23622047244094488,"duration":"0.34"},{"name":"G#4","midi":68,"time":"37.88","velocity":0.2283464566929134,"duration":"0.12"},{"name":"E4","midi":64,"time":"37.94","velocity":0.2125984251968504,"duration":"0.37"},{"name":"G#5","midi":80,"time":"38.02","velocity":0.07086614173228346,"duration":"0.03"},{"name":"G#4","midi":68,"time":"38.05","velocity":0.15748031496062992,"duration":"0.26"},{"name":"G#4","midi":68,"time":"38.31","velocity":0.3858267716535433,"duration":"1.44"},{"name":"E4","midi":64,"time":"38.69","velocity":0.2440944881889764,"duration":"0.35"},{"name":"E4","midi":64,"time":"39.06","velocity":0.2047244094488189,"duration":"0.35"},{"name":"E4","midi":64,"time":"39.44","velocity":0.2440944881889764,"duration":"0.37"},{"name":"G#4","midi":68,"time":"39.80","velocity":0.3779527559055118,"duration":"1.50"},{"name":"E4","midi":64,"time":"39.84","velocity":0.07086614173228346,"duration":"0.31"},{"name":"E4","midi":64,"time":"40.20","velocity":0.23622047244094488,"duration":"0.33"},{"name":"E4","midi":64,"time":"40.55","velocity":0.2283464566929134,"duration":"0.34"},{"name":"E4","midi":64,"time":"40.92","velocity":0.2283464566929134,"duration":"0.38"},{"name":"G#4","midi":68,"time":"41.31","velocity":0.3937007874015748,"duration":"1.10"},{"name":"E4","midi":64,"time":"41.70","velocity":0.2440944881889764,"duration":"0.14"},{"name":"F3","midi":53,"time":"41.85","velocity":0.12598425196850394,"duration":"0.05"},{"name":"F#3","midi":54,"time":"41.90","velocity":0.13385826771653545,"duration":"0.05"},{"name":"B3","midi":59,"time":"41.93","velocity":0.14960629921259844,"duration":"0.03"},{"name":"A#3","midi":58,"time":"41.97","velocity":0.14960629921259844,"duration":"0.03"},{"name":"C#4","midi":61,"time":"42.01","velocity":0.12598425196850394,"duration":"0.03"},{"name":"C#4","midi":61,"time":"42.06","velocity":0.2125984251968504,"duration":"0.36"},{"name":"A3","midi":57,"time":"42.12","velocity":0.23622047244094488,"duration":"0.31"},{"name":"C#4","midi":61,"time":"42.44","velocity":0.2283464566929134,"duration":"0.78"},{"name":"A3","midi":57,"time":"42.45","velocity":0.1968503937007874,"duration":"0.72"},{"name":"A4","midi":69,"time":"42.64","velocity":0.33070866141732286,"duration":"0.78"},{"name":"A3","midi":57,"time":"43.21","velocity":0.2047244094488189,"duration":"0.35"},{"name":"C#4","midi":61,"time":"43.23","velocity":0.2204724409448819,"duration":"0.33"},{"name":"C#4","midi":61,"time":"43.58","velocity":0.2204724409448819,"duration":"0.38"},{"name":"A3","midi":57,"time":"43.59","velocity":0.2283464566929134,"duration":"0.35"},{"name":"A3","midi":57,"time":"43.98","velocity":0.2125984251968504,"duration":"0.69"},{"name":"C#4","midi":61,"time":"43.99","velocity":0.23622047244094488,"duration":"0.70"},{"name":"A4","midi":69,"time":"44.30","velocity":0.3228346456692913,"duration":"0.78"},{"name":"C#4","midi":61,"time":"44.70","velocity":0.1968503937007874,"duration":"0.36"},{"name":"A3","midi":57,"time":"44.72","velocity":0.2125984251968504,"duration":"0.35"},{"name":"C#6","midi":85,"time":"45.05","velocity":0.4409448818897638,"duration":"0.12"},{"name":"F#5","midi":78,"time":"45.06","velocity":0.18110236220472442,"duration":"0.10"},{"name":"F#6","midi":90,"time":"45.06","velocity":0.2677165354330709,"duration":"0.10"},{"name":"A#6","midi":94,"time":"45.07","velocity":0.1732283464566929,"duration":"0.08"},{"name":"C#4","midi":61,"time":"45.08","velocity":0.2047244094488189,"duration":"0.35"},{"name":"A3","midi":57,"time":"45.09","velocity":0.1968503937007874,"duration":"0.03"},{"name":"F#4","midi":66,"time":"45.10","velocity":0.08661417322834646,"duration":"0.06"},{"name":"A3","midi":57,"time":"45.14","velocity":0.2047244094488189,"duration":"0.30"},{"name":"G5","midi":79,"time":"45.16","velocity":0.14960629921259844,"duration":"0.06"},{"name":"D6","midi":86,"time":"45.16","velocity":0.4015748031496063,"duration":"0.07"},{"name":"G6","midi":91,"time":"45.16","velocity":0.30708661417322836,"duration":"0.06"},{"name":"G#5","midi":80,"time":"45.22","velocity":0.3779527559055118,"duration":"0.86"},{"name":"D#6","midi":87,"time":"45.22","velocity":0.3937007874015748,"duration":"0.60"},{"name":"G#6","midi":92,"time":"45.22","velocity":0.44881889763779526,"duration":"0.50"},{"name":"F#7","midi":102,"time":"45.29","velocity":0.13385826771653545,"duration":"0.31"},{"name":"A4","midi":69,"time":"45.36","velocity":0.2125984251968504,"duration":"0.03"},{"name":"C#4","midi":61,"time":"45.44","velocity":0.2204724409448819,"duration":"0.76"},{"name":"G#4","midi":68,"time":"45.44","velocity":0.23622047244094488,"duration":"0.37"},{"name":"A3","midi":57,"time":"45.48","velocity":0.2125984251968504,"duration":"0.70"},{"name":"C7","midi":96,"time":"45.51","velocity":0.3543307086614173,"duration":"0.56"},{"name":"F#7","midi":102,"time":"45.80","velocity":0.14960629921259844,"duration":"0.27"},{"name":"A4","midi":69,"time":"45.81","velocity":0.3858267716535433,"duration":"0.24"},{"name":"G#4","midi":68,"time":"46.05","velocity":0.29133858267716534,"duration":"0.03"},{"name":"G4","midi":67,"time":"46.08","velocity":0.28346456692913385,"duration":"0.02"},{"name":"A4","midi":69,"time":"46.08","velocity":0.30708661417322836,"duration":"0.50"},{"name":"F4","midi":65,"time":"46.20","velocity":0.30708661417322836,"duration":"0.02"},{"name":"A3","midi":57,"time":"46.21","velocity":0.2204724409448819,"duration":"0.36"},{"name":"C#4","midi":61,"time":"46.21","velocity":0.1968503937007874,"duration":"0.09"},{"name":"E4","midi":64,"time":"46.22","velocity":0.4409448818897638,"duration":"0.51"},{"name":"F5","midi":77,"time":"46.22","velocity":0.2677165354330709,"duration":"0.02"},{"name":"B6","midi":95,"time":"46.22","velocity":0.11811023622047244,"duration":"0.06"},{"name":"B5","midi":83,"time":"46.23","velocity":0.33070866141732286,"duration":"0.47"},{"name":"G#6","midi":92,"time":"46.24","velocity":0.2204724409448819,"duration":"0.19"},{"name":"C#5","midi":73,"time":"46.34","velocity":0.12598425196850394,"duration":"0.27"},{"name":"A3","midi":57,"time":"46.58","velocity":0.2283464566929134,"duration":"0.37"},{"name":"C#4","midi":61,"time":"46.70","velocity":0.2125984251968504,"duration":"0.08"},{"name":"E4","midi":64,"time":"46.74","velocity":0.33858267716535434,"duration":"0.07"},{"name":"C#4","midi":61,"time":"46.79","velocity":0.2125984251968504,"duration":"0.15"},{"name":"C#4","midi":61,"time":"46.97","velocity":0.4015748031496063,"duration":"0.40"},{"name":"F7","midi":101,"time":"46.99","velocity":0.07874015748031496,"duration":"0.03"},{"name":"A3","midi":57,"time":"47.02","velocity":0.2047244094488189,"duration":"0.64"},{"name":"F7","midi":101,"time":"47.07","velocity":0.07874015748031496,"duration":"0.15"},{"name":"D#7","midi":99,"time":"47.08","velocity":0.07874015748031496,"duration":"0.08"},{"name":"C#7","midi":97,"time":"47.13","velocity":0.09448818897637795,"duration":"0.07"},{"name":"G#6","midi":92,"time":"47.22","velocity":0.07086614173228346,"duration":"0.03"},{"name":"F6","midi":89,"time":"47.27","velocity":0.12598425196850394,"duration":"0.09"},{"name":"G#5","midi":80,"time":"47.28","velocity":0.2047244094488189,"duration":"0.07"},{"name":"A4","midi":69,"time":"47.30","velocity":0.3228346456692913,"duration":"0.87"},{"name":"D5","midi":74,"time":"47.34","velocity":0.28346456692913385,"duration":"0.06"},{"name":"C#4","midi":61,"time":"47.37","velocity":0.29133858267716534,"duration":"0.13"},{"name":"D#5","midi":75,"time":"47.40","velocity":0.29133858267716534,"duration":"0.05"},{"name":"A#5","midi":82,"time":"47.40","velocity":0.3228346456692913,"duration":"0.03"},{"name":"B5","midi":83,"time":"47.43","velocity":0.3937007874015748,"duration":"0.40"},{"name":"E6","midi":88,"time":"47.43","velocity":0.2283464566929134,"duration":"0.40"},{"name":"E4","midi":64,"time":"47.44","velocity":0.36220472440944884,"duration":"0.40"},{"name":"C#4","midi":61,"time":"47.53","velocity":0.2440944881889764,"duration":"0.05"},{"name":"A3","midi":57,"time":"47.71","velocity":0.2047244094488189,"duration":"0.14"},{"name":"D#5","midi":75,"time":"47.83","velocity":0.2755905511811024,"duration":"0.02"},{"name":"A#5","midi":82,"time":"47.83","velocity":0.25984251968503935,"duration":"0.02"},{"name":"D#4","midi":63,"time":"47.84","velocity":0.3543307086614173,"duration":"0.02"},{"name":"C#5","midi":73,"time":"47.86","velocity":0.2992125984251969,"duration":"0.95"},{"name":"C#4","midi":61,"time":"47.87","velocity":0.3937007874015748,"duration":"0.97"},{"name":"G#5","midi":80,"time":"47.87","velocity":0.4015748031496063,"duration":"0.92"},{"name":"F6","midi":89,"time":"47.87","velocity":0.12598425196850394,"duration":"0.14"},{"name":"G3","midi":55,"time":"47.92","velocity":0.14173228346456693,"duration":"0.03"},{"name":"E4","midi":64,"time":"48.10","velocity":0.25196850393700787,"duration":"0.06"},{"name":"G#4","midi":68,"time":"48.17","velocity":0.2047244094488189,"duration":"0.08"},{"name":"F6","midi":89,"time":"48.17","velocity":0.18110236220472442,"duration":"0.31"},{"name":"E4","midi":64,"time":"48.21","velocity":0.16535433070866143,"duration":"0.05"},{"name":"G#4","midi":68,"time":"48.33","velocity":0.14173228346456693,"duration":"0.03"},{"name":"E3","midi":52,"time":"48.42","velocity":0.07874015748031496,"duration":"0.03"},{"name":"F#4","midi":66,"time":"48.44","velocity":0.31496062992125984,"duration":"0.03"},{"name":"G#4","midi":68,"time":"48.49","velocity":0.2125984251968504,"duration":"0.73"},{"name":"E4","midi":64,"time":"48.50","velocity":0.13385826771653545,"duration":"0.03"},{"name":"B6","midi":95,"time":"48.53","velocity":0.07874015748031496,"duration":"0.03"},{"name":"E4","midi":64,"time":"48.58","velocity":0.2440944881889764,"duration":"0.16"},{"name":"D6","midi":86,"time":"48.66","velocity":0.07874015748031496,"duration":"0.12"},{"name":"E4","midi":64,"time":"48.84","velocity":0.3858267716535433,"duration":"1.45"},{"name":"G#4","midi":68,"time":"49.26","velocity":0.2047244094488189,"duration":"0.31"},{"name":"G#4","midi":68,"time":"49.62","velocity":0.2204724409448819,"duration":"0.19"},{"name":"G#4","midi":68,"time":"49.84","velocity":0.1889763779527559,"duration":"0.13"},{"name":"G#4","midi":68,"time":"50.01","velocity":0.1968503937007874,"duration":"0.17"},{"name":"G#4","midi":68,"time":"50.24","velocity":0.15748031496062992,"duration":"0.19"},{"name":"E3","midi":52,"time":"50.30","velocity":0.08661417322834646,"duration":"0.07"},{"name":"E5","midi":76,"time":"50.30","velocity":0.1889763779527559,"duration":"0.84"},{"name":"E4","midi":64,"time":"50.31","velocity":0.4094488188976378,"duration":"4.13"},{"name":"G#4","midi":68,"time":"50.51","velocity":0.08661417322834646,"duration":"0.14"},{"name":"A4","midi":69,"time":"50.70","velocity":0.08661417322834646,"duration":"0.03"},{"name":"G#5","midi":80,"time":"50.72","velocity":0.07086614173228346,"duration":"0.03"},{"name":"G#4","midi":68,"time":"50.76","velocity":0.2047244094488189,"duration":"0.19"},{"name":"G#4","midi":68,"time":"50.99","velocity":0.11811023622047244,"duration":"0.08"},{"name":"F3","midi":53,"time":"51.06","velocity":0.18110236220472442,"duration":"0.03"},{"name":"F#3","midi":54,"time":"51.10","velocity":0.28346456692913385,"duration":"0.08"},{"name":"G#4","midi":68,"time":"51.12","velocity":0.23622047244094488,"duration":"0.19"},{"name":"G3","midi":55,"time":"51.19","velocity":0.28346456692913385,"duration":"0.03"},{"name":"G#4","midi":68,"time":"51.36","velocity":0.25984251968503935,"duration":"0.55"},{"name":"A3","midi":57,"time":"51.44","velocity":0.2755905511811024,"duration":"0.02"},{"name":"G#3","midi":56,"time":"51.47","velocity":0.2992125984251969,"duration":"0.76"},{"name":"D#5","midi":75,"time":"51.49","velocity":0.25984251968503935,"duration":"0.36"},{"name":"D#5","midi":75,"time":"51.86","velocity":0.23622047244094488,"duration":"0.02"},{"name":"D#5","midi":75,"time":"51.90","velocity":0.25196850393700787,"duration":"0.10"},{"name":"A4","midi":69,"time":"52.21","velocity":0.2047244094488189,"duration":"0.05"},{"name":"A3","midi":57,"time":"52.22","velocity":0.28346456692913385,"duration":"0.58"},{"name":"G#4","midi":68,"time":"52.28","velocity":0.25984251968503935,"duration":"0.13"},{"name":"G#4","midi":68,"time":"52.58","velocity":0.14960629921259844,"duration":"0.03"},{"name":"A5","midi":81,"time":"52.60","velocity":0.09448818897637795,"duration":"0.03"},{"name":"G#4","midi":68,"time":"52.69","velocity":0.23622047244094488,"duration":"0.97"},{"name":"E3","midi":52,"time":"52.88","velocity":0.07086614173228346,"duration":"0.06"},{"name":"B3","midi":59,"time":"53.24","velocity":0.25196850393700787,"duration":"0.03"},{"name":"A#3","midi":58,"time":"53.28","velocity":0.25984251968503935,"duration":"0.02"},{"name":"B3","midi":59,"time":"53.30","velocity":0.3228346456692913,"duration":"0.55"},{"name":"G#4","midi":68,"time":"53.76","velocity":0.1968503937007874,"duration":"0.14"},{"name":"G4","midi":67,"time":"53.90","velocity":0.14173228346456693,"duration":"0.03"},{"name":"D#3","midi":51,"time":"53.95","velocity":0.08661417322834646,"duration":"0.03"},{"name":"B3","midi":59,"time":"54.09","velocity":0.33070866141732286,"duration":"0.21"},{"name":"B5","midi":83,"time":"54.09","velocity":0.2204724409448819,"duration":"0.15"},{"name":"F#5","midi":78,"time":"54.10","velocity":0.11023622047244094,"duration":"0.05"},{"name":"F#5","midi":78,"time":"54.17","velocity":0.1732283464566929,"duration":"0.06"},{"name":"D4","midi":62,"time":"54.43","velocity":0.28346456692913385,"duration":"0.02"},{"name":"D#4","midi":63,"time":"54.45","velocity":0.31496062992125984,"duration":"0.03"},{"name":"C#5","midi":73,"time":"54.47","velocity":0.33070866141732286,"duration":"0.40"},{"name":"F#4","midi":66,"time":"54.48","velocity":0.2204724409448819,"duration":"0.72"},{"name":"G#5","midi":80,"time":"54.48","velocity":0.2992125984251969,"duration":"0.58"},{"name":"C#4","midi":61,"time":"54.49","velocity":0.36220472440944884,"duration":"0.05"},{"name":"C#4","midi":61,"time":"54.55","velocity":0.36220472440944884,"duration":"0.58"},{"name":"D3","midi":50,"time":"54.63","velocity":0.09448818897637795,"duration":"0.55"},{"name":"F6","midi":89,"time":"54.66","velocity":0.07874015748031496,"duration":"0.06"},{"name":"D5","midi":74,"time":"54.86","velocity":0.3228346456692913,"duration":"0.02"},{"name":"D5","midi":74,"time":"54.99","velocity":0.31496062992125984,"duration":"1.03"},{"name":"G#5","midi":80,"time":"55.07","velocity":0.09448818897637795,"duration":"0.06"},{"name":"D4","midi":62,"time":"55.15","velocity":0.3700787401574803,"duration":"0.80"},{"name":"A3","midi":57,"time":"55.17","velocity":0.33858267716535434,"duration":"0.71"},{"name":"G4","midi":67,"time":"55.20","velocity":0.11023622047244094,"duration":"0.03"},{"name":"F#4","midi":66,"time":"55.23","velocity":0.2204724409448819,"duration":"0.34"},{"name":"E5","midi":76,"time":"55.28","velocity":0.09448818897637795,"duration":"0.27"},{"name":"F#4","midi":66,"time":"55.59","velocity":0.2125984251968504,"duration":"0.35"},{"name":"A#3","midi":58,"time":"55.91","velocity":0.13385826771653545,"duration":"0.03"},{"name":"D4","midi":62,"time":"55.97","velocity":0.3543307086614173,"duration":"0.65"},{"name":"F#4","midi":66,"time":"55.97","velocity":0.2125984251968504,"duration":"0.73"},{"name":"C#5","midi":73,"time":"56.10","velocity":0.08661417322834646,"duration":"0.07"},{"name":"D4","midi":62,"time":"56.67","velocity":0.36220472440944884,"duration":"0.56"},{"name":"F#4","midi":66,"time":"56.71","velocity":0.2125984251968504,"duration":"0.36"},{"name":"F#4","midi":66,"time":"57.08","velocity":0.23622047244094488,"duration":"1.10"},{"name":"G3","midi":55,"time":"57.10","velocity":0.2283464566929134,"duration":"0.02"},{"name":"F#3","midi":54,"time":"57.13","velocity":0.2204724409448819,"duration":"0.06"},{"name":"A#5","midi":82,"time":"57.13","velocity":0.11811023622047244,"duration":"0.06"},{"name":"G3","midi":55,"time":"57.19","velocity":0.2755905511811024,"duration":"0.05"},{"name":"G#3","midi":56,"time":"57.23","velocity":0.2440944881889764,"duration":"0.09"},{"name":"D3","midi":50,"time":"57.29","velocity":0.08661417322834646,"duration":"0.16"},{"name":"D4","midi":62,"time":"57.33","velocity":0.33858267716535434,"duration":"0.50"},{"name":"G#3","midi":56,"time":"57.34","velocity":0.3228346456692913,"duration":"0.62"},{"name":"D#5","midi":75,"time":"57.40","velocity":0.07874015748031496,"duration":"0.06"},{"name":"D#5","midi":75,"time":"57.47","velocity":0.2283464566929134,"duration":"0.38"},{"name":"G#5","midi":80,"time":"57.47","velocity":0.10236220472440945,"duration":"0.30"},{"name":"C7","midi":96,"time":"57.63","velocity":0.07086614173228346,"duration":"0.20"},{"name":"D3","midi":50,"time":"57.76","velocity":0.07086614173228346,"duration":"0.06"},{"name":"D5","midi":74,"time":"57.84","velocity":0.28346456692913385,"duration":"1.16"},{"name":"D4","midi":62,"time":"57.85","velocity":0.4566929133858268,"duration":"1.51"},{"name":"D3","midi":50,"time":"57.90","velocity":0.08661417322834646,"duration":"0.29"},{"name":"A3","midi":57,"time":"57.95","velocity":0.30708661417322836,"duration":"0.05"},{"name":"G3","midi":55,"time":"58.19","velocity":0.2283464566929134,"duration":"0.02"},{"name":"F#3","midi":54,"time":"58.21","velocity":0.28346456692913385,"duration":"0.69"},{"name":"F#4","midi":66,"time":"58.21","velocity":0.2992125984251969,"duration":"1.50"},{"name":"F#3","midi":54,"time":"58.91","velocity":0.1889763779527559,"duration":"0.19"},{"name":"G#5","midi":80,"time":"59.35","velocity":0.3700787401574803,"duration":"0.55"},{"name":"D4","midi":62,"time":"59.40","velocity":0.4645669291338583,"duration":"0.03"},{"name":"C#4","midi":61,"time":"59.44","velocity":0.44881889763779526,"duration":"0.05"},{"name":"D4","midi":62,"time":"59.51","velocity":0.4409448818897638,"duration":"0.02"},{"name":"C#4","midi":61,"time":"59.53","velocity":0.4015748031496063,"duration":"0.05"},{"name":"C#4","midi":61,"time":"59.59","velocity":0.4015748031496063,"duration":"0.13"},{"name":"C#7","midi":97,"time":"59.63","velocity":0.11023622047244094,"duration":"0.16"},{"name":"D4","midi":62,"time":"59.72","velocity":0.3858267716535433,"duration":"0.03"},{"name":"F#4","midi":66,"time":"59.72","velocity":0.1889763779527559,"duration":"0.10"},{"name":"D4","midi":62,"time":"59.77","velocity":0.4566929133858268,"duration":"0.03"},{"name":"C#4","midi":61,"time":"59.80","velocity":0.4409448818897638,"duration":"0.28"},{"name":"G4","midi":67,"time":"59.83","velocity":0.2283464566929134,"duration":"0.03"},{"name":"D5","midi":74,"time":"59.83","velocity":0.25196850393700787,"duration":"0.07"},{"name":"F#4","midi":66,"time":"59.86","velocity":0.13385826771653545,"duration":"0.05"},{"name":"D#5","midi":75,"time":"59.90","velocity":0.14173228346456693,"duration":"0.05"},{"name":"F3","midi":53,"time":"59.92","velocity":0.15748031496062992,"duration":"0.03"},{"name":"G3","midi":55,"time":"59.97","velocity":0.1968503937007874,"duration":"0.03"},{"name":"F4","midi":65,"time":"59.99","velocity":0.29133858267716534,"duration":"0.03"},{"name":"F#4","midi":66,"time":"60.02","velocity":0.2283464566929134,"duration":"0.02"},{"name":"G#4","midi":68,"time":"60.07","velocity":0.1889763779527559,"duration":"0.05"},{"name":"A#3","midi":58,"time":"60.09","velocity":0.2204724409448819,"duration":"0.03"},{"name":"C#4","midi":61,"time":"60.10","velocity":0.2125984251968504,"duration":"0.35"},{"name":"A4","midi":69,"time":"60.12","velocity":0.13385826771653545,"duration":"0.12"},{"name":"A3","midi":57,"time":"60.13","velocity":0.2283464566929134,"duration":"0.35"},{"name":"D4","midi":62,"time":"60.45","velocity":0.11023622047244094,"duration":"0.03"},{"name":"A3","midi":57,"time":"60.50","velocity":0.23622047244094488,"duration":"1.09"},{"name":"C#4","midi":61,"time":"60.50","velocity":0.2204724409448819,"duration":"1.12"},{"name":"A4","midi":69,"time":"60.83","velocity":0.31496062992125984,"duration":"0.78"},{"name":"A3","midi":57,"time":"61.60","velocity":0.2283464566929134,"duration":"1.13"},{"name":"C#4","midi":61,"time":"61.64","velocity":0.2125984251968504,"duration":"0.33"},{"name":"D4","midi":62,"time":"61.97","velocity":0.14960629921259844,"duration":"0.03"},{"name":"C#4","midi":61,"time":"62.00","velocity":0.23622047244094488,"duration":"1.09"},{"name":"A4","midi":69,"time":"62.33","velocity":0.30708661417322836,"duration":"0.86"},{"name":"A3","midi":57,"time":"62.74","velocity":0.2283464566929134,"duration":"0.34"},{"name":"F#5","midi":78,"time":"63.07","velocity":0.1732283464566929,"duration":"0.07"},{"name":"C#6","midi":85,"time":"63.07","velocity":0.4409448818897638,"duration":"0.05"},{"name":"F#6","midi":90,"time":"63.07","velocity":0.1889763779527559,"duration":"0.06"},{"name":"A#6","midi":94,"time":"63.09","velocity":0.11023622047244094,"duration":"0.06"},{"name":"A3","midi":57,"time":"63.10","velocity":0.2204724409448819,"duration":"0.36"},{"name":"C#4","midi":61,"time":"63.12","velocity":0.1968503937007874,"duration":"0.35"},{"name":"D6","midi":86,"time":"63.12","velocity":0.4566929133858268,"duration":"0.13"},{"name":"G7","midi":103,"time":"63.12","velocity":0.13385826771653545,"duration":"0.06"},{"name":"G6","midi":91,"time":"63.13","velocity":0.28346456692913385,"duration":"0.12"},{"name":"G5","midi":79,"time":"63.17","velocity":0.09448818897637795,"duration":"0.07"},{"name":"G#5","midi":80,"time":"63.24","velocity":0.3464566929133858,"duration":"0.81"},{"name":"D#6","midi":87,"time":"63.24","velocity":0.3700787401574803,"duration":"0.42"},{"name":"G#6","midi":92,"time":"63.24","velocity":0.3779527559055118,"duration":"0.51"},{"name":"G#4","midi":68,"time":"63.29","velocity":0.18110236220472442,"duration":"0.16"},{"name":"F#7","midi":102,"time":"63.37","velocity":0.12598425196850394,"duration":"0.17"},{"name":"C7","midi":96,"time":"63.44","velocity":0.25196850393700787,"duration":"0.67"},{"name":"G#4","midi":68,"time":"63.47","velocity":0.18110236220472442,"duration":"0.37"},{"name":"A3","midi":57,"time":"63.49","velocity":0.2204724409448819,"duration":"0.73"},{"name":"C#4","midi":61,"time":"63.49","velocity":0.2283464566929134,"duration":"0.73"},{"name":"F#7","midi":102,"time":"63.67","velocity":0.09448818897637795,"duration":"0.44"},{"name":"A4","midi":69,"time":"63.83","velocity":0.36220472440944884,"duration":"0.80"},{"name":"E4","midi":64,"time":"64.22","velocity":0.41732283464566927,"duration":"0.55"},{"name":"A3","midi":57,"time":"64.24","velocity":0.2204724409448819,"duration":"0.42"},{"name":"C#4","midi":61,"time":"64.24","velocity":0.1968503937007874,"duration":"0.10"},{"name":"B5","midi":83,"time":"64.26","velocity":0.2440944881889764,"duration":"0.44"},{"name":"G#6","midi":92,"time":"64.27","velocity":0.18110236220472442,"duration":"0.10"},{"name":"C#4","midi":61,"time":"64.52","velocity":0.2204724409448819,"duration":"0.12"},{"name":"A3","midi":57,"time":"64.67","velocity":0.2283464566929134,"duration":"0.30"},{"name":"C#4","midi":61,"time":"64.69","velocity":0.2047244094488189,"duration":"0.26"},{"name":"C#4","midi":61,"time":"64.95","velocity":0.3937007874015748,"duration":"0.41"},{"name":"A4","midi":69,"time":"64.99","velocity":0.11023622047244094,"duration":"0.09"},{"name":"A3","midi":57,"time":"65.00","velocity":0.2283464566929134,"duration":"0.71"},{"name":"G#6","midi":92,"time":"65.24","velocity":0.12598425196850394,"duration":"0.05"},{"name":"G#5","midi":80,"time":"65.27","velocity":0.23622047244094488,"duration":"0.09"},{"name":"D4","midi":62,"time":"65.36","velocity":0.2440944881889764,"duration":"0.05"},{"name":"A4","midi":69,"time":"65.36","velocity":0.29133858267716534,"duration":"0.81"},{"name":"D#5","midi":75,"time":"65.41","velocity":0.1968503937007874,"duration":"0.07"},{"name":"A#5","midi":82,"time":"65.41","velocity":0.2755905511811024,"duration":"0.06"},{"name":"D#4","midi":63,"time":"65.42","velocity":0.2283464566929134,"duration":"0.03"},{"name":"C#4","midi":61,"time":"65.47","velocity":0.2204724409448819,"duration":"0.24"},{"name":"B5","midi":83,"time":"65.47","velocity":0.3543307086614173,"duration":"0.41"},{"name":"E4","midi":64,"time":"65.48","velocity":0.3228346456692913,"duration":"0.40"},{"name":"A3","midi":57,"time":"65.76","velocity":0.2125984251968504,"duration":"0.15"},{"name":"F7","midi":101,"time":"65.77","velocity":0.07874015748031496,"duration":"0.03"},{"name":"C#5","midi":73,"time":"65.86","velocity":0.23622047244094488,"duration":"0.09"},{"name":"D#4","midi":63,"time":"65.87","velocity":0.31496062992125984,"duration":"0.02"},{"name":"A#5","midi":82,"time":"65.87","velocity":0.2047244094488189,"duration":"0.03"},{"name":"D4","midi":62,"time":"65.90","velocity":0.33070866141732286,"duration":"0.02"},{"name":"E5","midi":76,"time":"65.91","velocity":0.09448818897637795,"duration":"0.03"},{"name":"G#5","midi":80,"time":"65.91","velocity":0.3858267716535433,"duration":"0.80"},{"name":"C#4","midi":61,"time":"65.92","velocity":0.4094488188976378,"duration":"0.94"},{"name":"E4","midi":64,"time":"66.08","velocity":0.11811023622047244,"duration":"0.03"},{"name":"E4","midi":64,"time":"66.13","velocity":0.2125984251968504,"duration":"0.10"},{"name":"G#4","midi":68,"time":"66.17","velocity":0.23622047244094488,"duration":"0.29"},{"name":"F6","midi":89,"time":"66.21","velocity":0.14173228346456693,"duration":"0.27"},{"name":"E4","midi":64,"time":"66.26","velocity":0.13385826771653545,"duration":"0.06"},{"name":"G#4","midi":68,"time":"66.49","velocity":0.1889763779527559,"duration":"0.74"},{"name":"B6","midi":95,"time":"66.49","velocity":0.10236220472440945,"duration":"0.10"},{"name":"F4","midi":65,"time":"66.50","velocity":0.3464566929133858,"duration":"0.02"},{"name":"F7","midi":101,"time":"66.51","velocity":0.07874015748031496,"duration":"0.03"},{"name":"E4","midi":64,"time":"66.52","velocity":0.3228346456692913,"duration":"0.12"},{"name":"E3","midi":52,"time":"66.57","velocity":0.08661417322834646,"duration":"0.28"},{"name":"E4","midi":64,"time":"66.84","velocity":0.4094488188976378,"duration":"1.49"},{"name":"G#3","midi":56,"time":"66.85","velocity":0.07086614173228346,"duration":"0.03"},{"name":"G#5","midi":80,"time":"67.24","velocity":0.11811023622047244,"duration":"0.08"},{"name":"G#4","midi":68,"time":"67.29","velocity":0.2204724409448819,"duration":"0.33"},{"name":"G#4","midi":68,"time":"67.66","velocity":0.2047244094488189,"duration":"0.28"},{"name":"G#5","midi":80,"time":"68.01","velocity":0.12598425196850394,"duration":"0.05"},{"name":"G#4","midi":68,"time":"68.05","velocity":0.2047244094488189,"duration":"0.26"},{"name":"G#4","midi":68,"time":"68.34","velocity":0.1889763779527559,"duration":"0.42"},{"name":"E4","midi":64,"time":"68.35","velocity":0.3700787401574803,"duration":"1.49"},{"name":"G#5","midi":80,"time":"68.76","velocity":0.10236220472440945,"duration":"0.07"},{"name":"G#4","midi":68,"time":"68.80","velocity":0.2755905511811024,"duration":"0.36"},{"name":"G3","midi":55,"time":"69.12","velocity":0.28346456692913385,"duration":"0.05"},{"name":"G#3","midi":56,"time":"69.16","velocity":0.28346456692913385,"duration":"0.03"},{"name":"G#3","midi":56,"time":"69.50","velocity":0.30708661417322836,"duration":"0.50"},{"name":"D#5","midi":75,"time":"69.50","velocity":0.2125984251968504,"duration":"0.42"},{"name":"E4","midi":64,"time":"69.85","velocity":0.41732283464566927,"duration":"2.63"},{"name":"A3","midi":57,"time":"70.22","velocity":0.3228346456692913,"duration":"0.48"},{"name":"G#3","midi":56,"time":"70.70","velocity":0.2283464566929134,"duration":"0.02"},{"name":"G#4","midi":68,"time":"70.71","velocity":0.23622047244094488,"duration":"0.05"},{"name":"A3","midi":57,"time":"70.72","velocity":0.2283464566929134,"duration":"0.05"},{"name":"G#4","midi":68,"time":"70.77","velocity":0.2047244094488189,"duration":"0.17"},{"name":"G#5","midi":80,"time":"71.03","velocity":0.07874015748031496,"duration":"0.06"},{"name":"G#4","midi":68,"time":"71.05","velocity":0.2204724409448819,"duration":"1.07"},{"name":"C4","midi":60,"time":"71.29","velocity":0.3228346456692913,"duration":"0.02"},{"name":"B3","midi":59,"time":"71.31","velocity":0.4015748031496063,"duration":"0.06"},{"name":"C5","midi":72,"time":"71.36","velocity":0.16535433070866143,"duration":"0.06"},{"name":"C4","midi":60,"time":"71.37","velocity":0.3779527559055118,"duration":"0.02"},{"name":"G5","midi":79,"time":"71.37","velocity":0.18110236220472442,"duration":"0.03"},{"name":"B3","midi":59,"time":"71.40","velocity":0.3543307086614173,"duration":"0.50"},{"name":"F#5","midi":78,"time":"71.41","velocity":0.2204724409448819,"duration":"0.30"},{"name":"F#5","midi":78,"time":"71.78","velocity":0.07874015748031496,"duration":"0.06"},{"name":"D3","midi":50,"time":"72.03","velocity":0.09448818897637795,"duration":"0.06"},{"name":"C4","midi":60,"time":"72.12","velocity":0.3464566929133858,"duration":"0.03"},{"name":"G5","midi":79,"time":"72.13","velocity":0.1968503937007874,"duration":"0.06"},{"name":"B3","midi":59,"time":"72.15","velocity":0.4094488188976378,"duration":"0.33"},{"name":"B5","midi":83,"time":"72.15","velocity":0.18110236220472442,"duration":"0.22"},{"name":"F#5","midi":78,"time":"72.19","velocity":0.2125984251968504,"duration":"0.20"},{"name":"C4","midi":60,"time":"72.48","velocity":0.3937007874015748,"duration":"0.02"},{"name":"F#4","midi":66,"time":"72.49","velocity":0.2125984251968504,"duration":"0.72"},{"name":"C#4","midi":61,"time":"72.50","velocity":0.48031496062992124,"duration":"0.03"},{"name":"G#5","midi":80,"time":"72.50","velocity":0.2755905511811024,"duration":"0.50"},{"name":"C#4","midi":61,"time":"72.55","velocity":0.4094488188976378,"duration":"0.34"},{"name":"D5","midi":74,"time":"72.85","velocity":0.25196850393700787,"duration":"1.17"},{"name":"C#4","midi":61,"time":"72.90","velocity":0.41732283464566927,"duration":"0.03"},{"name":"C#4","midi":61,"time":"72.94","velocity":0.4251968503937008,"duration":"0.08"},{"name":"D4","midi":62,"time":"73.02","velocity":0.33070866141732286,"duration":"0.50"},{"name":"F#4","midi":66,"time":"73.22","velocity":0.2204724409448819,"duration":"0.40"},{"name":"A3","midi":57,"time":"73.24","velocity":0.2755905511811024,"duration":"0.64"},{"name":"E5","midi":76,"time":"73.26","velocity":0.2125984251968504,"duration":"0.50"},{"name":"A5","midi":81,"time":"73.27","velocity":0.2440944881889764,"duration":"0.37"},{"name":"D4","midi":62,"time":"73.58","velocity":0.3779527559055118,"duration":"0.76"},{"name":"F7","midi":101,"time":"73.62","velocity":0.08661417322834646,"duration":"0.03"},{"name":"F#4","midi":66,"time":"73.63","velocity":0.2204724409448819,"duration":"1.08"},{"name":"A5","midi":81,"time":"73.69","velocity":0.16535433070866143,"duration":"0.08"},{"name":"C7","midi":96,"time":"73.78","velocity":0.10236220472440945,"duration":"0.21"},{"name":"A3","midi":57,"time":"73.90","velocity":0.09448818897637795,"duration":"0.03"},{"name":"C#5","midi":73,"time":"74.17","velocity":0.07086614173228346,"duration":"0.08"},{"name":"D3","midi":50,"time":"74.21","velocity":0.07874015748031496,"duration":"0.13"},{"name":"D#4","midi":63,"time":"74.34","velocity":0.2755905511811024,"duration":"0.02"},{"name":"D5","midi":74,"time":"74.35","velocity":0.25984251968503935,"duration":"0.78"},{"name":"D4","midi":62,"time":"74.36","velocity":0.4015748031496063,"duration":"3.06"},{"name":"D3","midi":50,"time":"74.37","velocity":0.09448818897637795,"duration":"0.34"},{"name":"F#4","midi":66,"time":"74.73","velocity":0.2755905511811024,"duration":"1.50"},{"name":"D3","midi":50,"time":"74.84","velocity":0.11023622047244094,"duration":"0.13"},{"name":"C7","midi":96,"time":"74.91","velocity":0.07874015748031496,"duration":"0.23"},{"name":"G3","midi":55,"time":"74.98","velocity":0.30708661417322836,"duration":"0.02"},{"name":"F#3","midi":54,"time":"75.00","velocity":0.30708661417322836,"duration":"0.06"},{"name":"F#3","midi":54,"time":"75.12","velocity":0.2283464566929134,"duration":"0.09"},{"name":"C#5","midi":73,"time":"75.12","velocity":0.2440944881889764,"duration":"0.05"},{"name":"G5","midi":79,"time":"75.19","velocity":0.10236220472440945,"duration":"0.06"},{"name":"G3","midi":55,"time":"75.21","velocity":0.2440944881889764,"duration":"0.03"},{"name":"G#3","midi":56,"time":"75.24","velocity":0.2677165354330709,"duration":"0.79"},{"name":"C#5","midi":73,"time":"75.24","velocity":0.10236220472440945,"duration":"0.13"},{"name":"G#5","midi":80,"time":"75.24","velocity":0.1732283464566929,"duration":"0.76"},{"name":"D#5","midi":75,"time":"75.26","velocity":0.2125984251968504,"duration":"0.62"},{"name":"C#5","midi":73,"time":"75.71","velocity":0.07086614173228346,"duration":"0.08"},{"name":"G3","midi":55,"time":"76.26","velocity":0.2204724409448819,"duration":"0.03"},{"name":"F#4","midi":66,"time":"76.27","velocity":0.2992125984251969,"duration":"2.00"},{"name":"F#3","midi":54,"time":"76.29","velocity":0.2440944881889764,"duration":"0.38"},{"name":"F#3","midi":54,"time":"76.69","velocity":0.10236220472440945,"duration":"0.05"},{"name":"F#3","midi":54,"time":"76.74","velocity":0.13385826771653545,"duration":"0.07"},{"name":"F#3","midi":54,"time":"76.83","velocity":0.11811023622047244,"duration":"0.06"},{"name":"C#5","midi":73,"time":"76.85","velocity":0.08661417322834646,"duration":"0.13"},{"name":"F#3","midi":54,"time":"76.93","velocity":0.11811023622047244,"duration":"0.03"},{"name":"F#3","midi":54,"time":"76.98","velocity":0.13385826771653545,"duration":"0.05"},{"name":"F#3","midi":54,"time":"77.03","velocity":0.13385826771653545,"duration":"0.05"},{"name":"D3","midi":50,"time":"77.15","velocity":0.14960629921259844,"duration":"0.58"},{"name":"G#5","midi":80,"time":"77.36","velocity":0.3543307086614173,"duration":"0.53"},{"name":"F6","midi":89,"time":"77.36","velocity":0.2047244094488189,"duration":"0.09"},{"name":"C#5","midi":73,"time":"77.40","velocity":0.33858267716535434,"duration":"0.03"},{"name":"C#4","midi":61,"time":"77.43","velocity":0.36220472440944884,"duration":"0.05"},{"name":"D5","midi":74,"time":"77.43","velocity":0.2755905511811024,"duration":"0.06"},{"name":"C#4","midi":61,"time":"77.49","velocity":0.3464566929133858,"duration":"0.05"},{"name":"D5","midi":74,"time":"77.51","velocity":0.25984251968503935,"duration":"0.03"},{"name":"C#4","midi":61,"time":"77.55","velocity":0.33070866141732286,"duration":"0.06"},{"name":"D5","midi":74,"time":"77.56","velocity":0.28346456692913385,"duration":"0.02"},{"name":"B6","midi":95,"time":"77.58","velocity":0.08661417322834646,"duration":"0.05"},{"name":"D5","midi":74,"time":"77.60","velocity":0.2992125984251969,"duration":"0.10"},{"name":"C#4","midi":61,"time":"77.62","velocity":0.33858267716535434,"duration":"0.06"},{"name":"C#4","midi":61,"time":"77.69","velocity":0.3543307086614173,"duration":"0.06"},{"name":"D5","midi":74,"time":"77.72","velocity":0.2992125984251969,"duration":"0.02"},{"name":"D4","midi":62,"time":"77.73","velocity":0.4251968503937008,"duration":"0.50"},{"name":"C#5","midi":73,"time":"77.74","velocity":0.33070866141732286,"duration":"0.13"},{"name":"C#7","midi":97,"time":"77.76","velocity":0.14173228346456693,"duration":"0.05"},{"name":"A3","midi":57,"time":"78.14","velocity":0.4566929133858268,"duration":"0.71"},{"name":"E5","midi":76,"time":"78.15","velocity":0.2755905511811024,"duration":"0.20"},{"name":"A6","midi":93,"time":"78.16","velocity":0.11023622047244094,"duration":"0.03"},{"name":"A5","midi":81,"time":"78.22","velocity":0.16535433070866143,"duration":"0.56"},{"name":"A2","midi":45,"time":"78.24","velocity":0.10236220472440945,"duration":"0.03"},{"name":"E4","midi":64,"time":"78.26","velocity":0.1732283464566929,"duration":"0.07"},{"name":"D5","midi":74,"time":"78.28","velocity":0.07874015748031496,"duration":"0.05"},{"name":"D4","midi":62,"time":"78.34","velocity":0.2125984251968504,"duration":"0.33"},{"name":"E5","midi":76,"time":"78.42","velocity":0.09448818897637795,"duration":"0.10"},{"name":"C#5","midi":73,"time":"78.55","velocity":0.07086614173228346,"duration":"0.05"},{"name":"E5","midi":76,"time":"78.60","velocity":0.2755905511811024,"duration":"0.35"},{"name":"E4","midi":64,"time":"78.71","velocity":0.23622047244094488,"duration":"0.26"},{"name":"A2","midi":45,"time":"78.72","velocity":0.10236220472440945,"duration":"0.07"},{"name":"C#5","midi":73,"time":"78.73","velocity":0.12598425196850394,"duration":"0.10"},{"name":"G5","midi":79,"time":"78.79","velocity":0.09448818897637795,"duration":"0.03"},{"name":"A2","midi":45,"time":"78.84","velocity":0.15748031496062992,"duration":"0.09"},{"name":"A5","midi":81,"time":"78.84","velocity":0.12598425196850394,"duration":"0.07"},{"name":"A3","midi":57,"time":"78.86","velocity":0.36220472440944884,"duration":"0.15"},{"name":"B4","midi":71,"time":"78.86","velocity":0.14173228346456693,"duration":"0.12"},{"name":"E7","midi":100,"time":"78.87","velocity":0.14960629921259844,"duration":"0.07"},{"name":"B6","midi":95,"time":"78.88","velocity":0.08661417322834646,"duration":"0.03"},{"name":"A2","midi":45,"time":"78.94","velocity":0.1732283464566929,"duration":"0.20"},{"name":"F#7","midi":102,"time":"78.95","velocity":0.07086614173228346,"duration":"0.03"},{"name":"D6","midi":86,"time":"78.97","velocity":0.07086614173228346,"duration":"0.05"},{"name":"E5","midi":76,"time":"78.98","velocity":0.1889763779527559,"duration":"0.24"},{"name":"A3","midi":57,"time":"79.02","velocity":0.3779527559055118,"duration":"0.21"},{"name":"E4","midi":64,"time":"79.05","velocity":0.07874015748031496,"duration":"0.05"},{"name":"B5","midi":83,"time":"79.05","velocity":0.30708661417322836,"duration":"0.65"},{"name":"G#5","midi":80,"time":"79.15","velocity":0.14960629921259844,"duration":"0.27"},{"name":"A3","midi":57,"time":"79.26","velocity":0.2755905511811024,"duration":"0.53"},{"name":"E5","midi":76,"time":"79.26","velocity":0.2755905511811024,"duration":"1.93"},{"name":"E7","midi":100,"time":"79.26","velocity":0.10236220472440945,"duration":"0.06"},{"name":"D6","midi":86,"time":"79.29","velocity":0.07874015748031496,"duration":"0.13"},{"name":"E4","midi":64,"time":"79.36","velocity":0.2204724409448819,"duration":"0.83"},{"name":"E3","midi":52,"time":"79.52","velocity":0.14173228346456693,"duration":"0.84"},{"name":"B4","midi":71,"time":"79.52","velocity":0.07874015748031496,"duration":"0.19"},{"name":"B5","midi":83,"time":"79.76","velocity":0.2125984251968504,"duration":"0.64"},{"name":"A3","midi":57,"time":"79.87","velocity":0.14960629921259844,"duration":"0.50"},{"name":"B4","midi":71,"time":"80.37","velocity":0.07874015748031496,"duration":"0.09"},{"name":"D6","midi":86,"time":"80.37","velocity":0.09448818897637795,"duration":"0.03"},{"name":"F7","midi":101,"time":"80.40","velocity":0.12598425196850394,"duration":"0.03"},{"name":"E7","midi":100,"time":"80.43","velocity":0.12598425196850394,"duration":"0.06"},{"name":"D6","midi":86,"time":"80.47","velocity":0.11023622047244094,"duration":"0.07"},{"name":"E4","midi":64,"time":"80.51","velocity":0.11023622047244094,"duration":"0.27"},{"name":"B5","midi":83,"time":"80.51","velocity":0.2992125984251969,"duration":"0.65"},{"name":"G#5","midi":80,"time":"80.62","velocity":0.08661417322834646,"duration":"0.21"},{"name":"E4","midi":64,"time":"80.87","velocity":0.28346456692913385,"duration":"0.37"},{"name":"A#3","midi":58,"time":"81.14","velocity":0.2677165354330709,"duration":"0.02"},{"name":"A4","midi":69,"time":"81.15","velocity":0.23622047244094488,"duration":"0.08"},{"name":"A3","midi":57,"time":"81.16","velocity":0.36220472440944884,"duration":"0.08"},{"name":"B5","midi":83,"time":"81.20","velocity":0.12598425196850394,"duration":"0.16"},{"name":"A2","midi":45,"time":"81.23","velocity":0.16535433070866143,"duration":"0.06"},{"name":"A4","midi":69,"time":"81.24","velocity":0.1889763779527559,"duration":"0.17"},{"name":"C#7","midi":97,"time":"81.24","velocity":0.09448818897637795,"duration":"0.10"},{"name":"A3","midi":57,"time":"81.26","velocity":0.47244094488188976,"duration":"0.78"},{"name":"E5","midi":76,"time":"81.38","velocity":0.2755905511811024,"duration":"0.53"},{"name":"B5","midi":83,"time":"81.43","velocity":0.18110236220472442,"duration":"0.14"},{"name":"A2","midi":45,"time":"81.44","velocity":0.29133858267716534,"duration":"1.27"},{"name":"E4","midi":64,"time":"81.49","velocity":0.1968503937007874,"duration":"0.17"},{"name":"C#5","midi":73,"time":"81.56","velocity":0.09448818897637795,"duration":"0.30"},{"name":"B5","midi":83,"time":"81.59","velocity":0.23622047244094488,"duration":"0.37"},{"name":"A5","midi":81,"time":"81.60","velocity":0.12598425196850394,"duration":"0.06"},{"name":"B4","midi":71,"time":"81.67","velocity":0.07874015748031496,"duration":"0.08"},{"name":"E4","midi":64,"time":"81.71","velocity":0.1968503937007874,"duration":"0.24"},{"name":"D#7","midi":99,"time":"81.88","velocity":0.07086614173228346,"duration":"0.09"},{"name":"F7","midi":101,"time":"81.88","velocity":0.1968503937007874,"duration":"0.07"},{"name":"A#6","midi":94,"time":"81.91","velocity":0.11023622047244094,"duration":"0.05"},{"name":"F#7","midi":102,"time":"81.92","velocity":0.07874015748031496,"duration":"0.07"},{"name":"E7","midi":100,"time":"81.95","velocity":0.16535433070866143,"duration":"0.03"},{"name":"E4","midi":64,"time":"81.97","velocity":0.14960629921259844,"duration":"0.15"},{"name":"G5","midi":79,"time":"81.97","velocity":0.09448818897637795,"duration":"0.03"},{"name":"E5","midi":76,"time":"82.00","velocity":0.30708661417322836,"duration":"0.35"},{"name":"G#5","midi":80,"time":"82.02","velocity":0.11023622047244094,"duration":"0.06"},{"name":"A5","midi":81,"time":"82.02","velocity":0.08661417322834646,"duration":"0.03"},{"name":"G#3","midi":56,"time":"82.03","velocity":0.28346456692913385,"duration":"0.02"},{"name":"B4","midi":71,"time":"82.03","velocity":0.07086614173228346,"duration":"0.05"},{"name":"B5","midi":83,"time":"82.03","velocity":0.28346456692913385,"duration":"0.60"},{"name":"A3","midi":57,"time":"82.06","velocity":0.3858267716535433,"duration":"0.17"},{"name":"A#3","midi":58,"time":"82.24","velocity":0.3464566929133858,"duration":"0.02"},{"name":"B4","midi":71,"time":"82.26","velocity":0.29133858267716534,"duration":"1.13"},{"name":"B3","midi":59,"time":"82.27","velocity":0.3464566929133858,"duration":"0.02"},{"name":"A#3","midi":58,"time":"82.29","velocity":0.4015748031496063,"duration":"0.02"},{"name":"D6","midi":86,"time":"82.29","velocity":0.09448818897637795,"duration":"0.23"},{"name":"B3","midi":59,"time":"82.31","velocity":0.33070866141732286,"duration":"0.02"},{"name":"A#3","midi":58,"time":"82.34","velocity":0.4094488188976378,"duration":"0.02"},{"name":"A#3","midi":58,"time":"82.38","velocity":0.3700787401574803,"duration":"0.03"},{"name":"B3","midi":59,"time":"82.41","velocity":0.3937007874015748,"duration":"0.42"},{"name":"E3","midi":52,"time":"82.42","velocity":0.14173228346456693,"duration":"0.29"},{"name":"E5","midi":76,"time":"82.50","velocity":0.08661417322834646,"duration":"0.05"},{"name":"E4","midi":64,"time":"82.53","velocity":0.2125984251968504,"duration":"0.67"},{"name":"A6","midi":93,"time":"82.58","velocity":0.08661417322834646,"duration":"0.05"},{"name":"E5","midi":76,"time":"82.65","velocity":0.23622047244094488,"duration":"0.92"},{"name":"A4","midi":69,"time":"82.72","velocity":0.07086614173228346,"duration":"0.03"},{"name":"E3","midi":52,"time":"82.76","velocity":0.14960629921259844,"duration":"0.65"},{"name":"B3","midi":59,"time":"82.94","velocity":0.14960629921259844,"duration":"0.10"},{"name":"A3","midi":57,"time":"83.07","velocity":0.14173228346456693,"duration":"0.07"},{"name":"B3","midi":59,"time":"83.17","velocity":0.14173228346456693,"duration":"0.03"},{"name":"D4","midi":62,"time":"83.22","velocity":0.4251968503937008,"duration":"0.02"},{"name":"C#4","midi":61,"time":"83.24","velocity":0.48031496062992124,"duration":"0.55"},{"name":"G#5","midi":80,"time":"83.43","velocity":0.30708661417322836,"duration":"0.78"},{"name":"E7","midi":100,"time":"83.43","velocity":0.11811023622047244,"duration":"0.03"},{"name":"B4","midi":71,"time":"83.45","velocity":0.1889763779527559,"duration":"0.17"},{"name":"F6","midi":89,"time":"83.47","velocity":0.11023622047244094,"duration":"0.27"},{"name":"E4","midi":64,"time":"83.59","velocity":0.2283464566929134,"duration":"0.02"},{"name":"E4","midi":64,"time":"83.66","velocity":0.2204724409448819,"duration":"0.05"},{"name":"E3","midi":52,"time":"83.69","velocity":0.12598425196850394,"duration":"0.08"},{"name":"B4","midi":71,"time":"83.69","velocity":0.18110236220472442,"duration":"0.07"},{"name":"E4","midi":64,"time":"83.72","velocity":0.2283464566929134,"duration":"0.02"},{"name":"E3","midi":52,"time":"83.78","velocity":0.08661417322834646,"duration":"0.17"},{"name":"C#4","midi":61,"time":"83.80","velocity":0.28346456692913385,"duration":"0.17"},{"name":"B4","midi":71,"time":"83.88","velocity":0.18110236220472442,"duration":"0.38"},{"name":"D6","midi":86,"time":"83.90","velocity":0.09448818897637795,"duration":"0.20"},{"name":"B5","midi":83,"time":"83.91","velocity":0.2677165354330709,"duration":"0.23"},{"name":"D4","midi":62,"time":"83.98","velocity":0.18110236220472442,"duration":"0.03"},{"name":"C#4","midi":61,"time":"84.01","velocity":0.33070866141732286,"duration":"0.22"},{"name":"E5","midi":76,"time":"84.10","velocity":0.11023622047244094,"duration":"0.06"},{"name":"B5","midi":83,"time":"84.15","velocity":0.2047244094488189,"duration":"0.20"},{"name":"A3","midi":57,"time":"84.19","velocity":0.2125984251968504,"duration":"0.03"},{"name":"D6","midi":86,"time":"84.20","velocity":0.2440944881889764,"duration":"0.12"},{"name":"G6","midi":91,"time":"84.20","velocity":0.2283464566929134,"duration":"0.12"},{"name":"G5","midi":79,"time":"84.21","velocity":0.2283464566929134,"duration":"0.09"},{"name":"C#3","midi":49,"time":"84.22","velocity":0.2047244094488189,"duration":"0.09"},{"name":"G#3","midi":56,"time":"84.22","velocity":0.2204724409448819,"duration":"0.07"},{"name":"F5","midi":77,"time":"84.22","velocity":0.10236220472440945,"duration":"0.03"},{"name":"G#5","midi":80,"time":"84.22","velocity":0.2440944881889764,"duration":"0.07"},{"name":"C2","midi":36,"time":"84.23","velocity":0.1968503937007874,"duration":"0.08"},{"name":"G4","midi":67,"time":"84.23","velocity":0.25196850393700787,"duration":"0.02"},{"name":"E4","midi":64,"time":"84.24","velocity":0.1889763779527559,"duration":"0.08"},{"name":"G#4","midi":68,"time":"84.26","velocity":0.36220472440944884,"duration":"0.22"},{"name":"F5","midi":77,"time":"84.27","velocity":0.2047244094488189,"duration":"0.08"},{"name":"C#4","midi":61,"time":"84.29","velocity":0.2440944881889764,"duration":"0.06"},{"name":"B4","midi":71,"time":"84.29","velocity":0.14173228346456693,"duration":"0.03"},{"name":"D#6","midi":87,"time":"84.31","velocity":0.33070866141732286,"duration":"3.03"},{"name":"G#6","midi":92,"time":"84.31","velocity":0.33858267716535434,"duration":"1.81"},{"name":"C#3","midi":49,"time":"84.33","velocity":0.2283464566929134,"duration":"0.02"},{"name":"E4","midi":64,"time":"84.34","velocity":0.2283464566929134,"duration":"0.05"},{"name":"C#3","midi":49,"time":"84.36","velocity":0.23622047244094488,"duration":"0.03"},{"name":"G#3","midi":56,"time":"84.36","velocity":0.18110236220472442,"duration":"0.07"},{"name":"D#5","midi":75,"time":"84.36","velocity":0.11023622047244094,"duration":"0.05"},{"name":"F5","midi":77,"time":"84.36","velocity":0.13385826771653545,"duration":"0.03"},{"name":"B5","midi":83,"time":"84.36","velocity":0.11023622047244094,"duration":"0.15"},{"name":"C#4","midi":61,"time":"84.37","velocity":0.33858267716535434,"duration":"0.13"},{"name":"C#3","midi":49,"time":"84.41","velocity":0.25984251968503935,"duration":"0.02"},{"name":"F5","midi":77,"time":"84.42","velocity":0.1889763779527559,"duration":"0.07"},{"name":"G#3","midi":56,"time":"84.44","velocity":0.1889763779527559,"duration":"0.10"},{"name":"C#3","midi":49,"time":"84.47","velocity":0.2440944881889764,"duration":"0.02"},{"name":"E4","midi":64,"time":"84.48","velocity":0.1732283464566929,"duration":"0.08"},{"name":"C#3","midi":49,"time":"84.50","velocity":0.18110236220472442,"duration":"0.03"},{"name":"F5","midi":77,"time":"84.51","velocity":0.29133858267716534,"duration":"0.17"},{"name":"G#4","midi":68,"time":"84.52","velocity":0.36220472440944884,"duration":"1.88"},{"name":"F#5","midi":78,"time":"84.53","velocity":0.08661417322834646,"duration":"0.03"},{"name":"C#4","midi":61,"time":"84.55","velocity":0.4094488188976378,"duration":"0.33"},{"name":"B4","midi":71,"time":"84.55","velocity":0.11811023622047244,"duration":"0.03"},{"name":"F7","midi":101,"time":"84.55","velocity":0.10236220472440945,"duration":"0.05"},{"name":"C#3","midi":49,"time":"84.56","velocity":0.16535433070866143,"duration":"0.06"},{"name":"A#6","midi":94,"time":"84.57","velocity":0.07874015748031496,"duration":"0.03"},{"name":"G#3","midi":56,"time":"84.60","velocity":0.07874015748031496,"duration":"0.03"},{"name":"D6","midi":86,"time":"84.60","velocity":0.11023622047244094,"duration":"0.07"},{"name":"G6","midi":91,"time":"84.62","velocity":0.08661417322834646,"duration":"0.07"},{"name":"C#3","midi":49,"time":"84.63","velocity":0.1732283464566929,"duration":"0.03"},{"name":"F4","midi":65,"time":"84.67","velocity":0.23622047244094488,"duration":"0.08"},{"name":"C#3","midi":49,"time":"84.69","velocity":0.2283464566929134,"duration":"0.02"},{"name":"G#3","midi":56,"time":"84.70","velocity":0.11811023622047244,"duration":"0.10"},{"name":"B4","midi":71,"time":"84.72","velocity":0.11023622047244094,"duration":"0.03"},{"name":"F5","midi":77,"time":"84.76","velocity":0.18110236220472442,"duration":"0.07"},{"name":"G#2","midi":44,"time":"84.77","velocity":0.2125984251968504,"duration":"0.08"},{"name":"F#5","midi":78,"time":"84.79","velocity":0.14173228346456693,"duration":"0.06"},{"name":"D#5","midi":75,"time":"84.84","velocity":0.09448818897637795,"duration":"0.03"},{"name":"C#4","midi":61,"time":"84.88","velocity":0.36220472440944884,"duration":"0.37"},{"name":"C#3","midi":49,"time":"84.94","velocity":0.1968503937007874,"duration":"0.03"},{"name":"G#3","midi":56,"time":"84.95","velocity":0.14960629921259844,"duration":"0.05"},{"name":"C#3","midi":49,"time":"85.00","velocity":0.25984251968503935,"duration":"0.02"},{"name":"C7","midi":96,"time":"85.00","velocity":0.14960629921259844,"duration":"0.17"},{"name":"F5","midi":77,"time":"85.01","velocity":0.11811023622047244,"duration":"0.10"},{"name":"C#3","midi":49,"time":"85.03","velocity":0.28346456692913385,"duration":"0.30"},{"name":"C7","midi":96,"time":"85.24","velocity":0.11023622047244094,"duration":"0.06"},{"name":"C#4","midi":61,"time":"85.27","velocity":0.33858267716535434,"duration":"0.47"},{"name":"A3","midi":57,"time":"85.34","velocity":0.13385826771653545,"duration":"0.06"},{"name":"A3","midi":57,"time":"85.42","velocity":0.12598425196850394,"duration":"0.05"},{"name":"C7","midi":96,"time":"85.48","velocity":0.10236220472440945,"duration":"0.05"},{"name":"A3","midi":57,"time":"85.50","velocity":0.14960629921259844,"duration":"0.06"},{"name":"A3","midi":57,"time":"85.58","velocity":0.09448818897637795,"duration":"0.03"},{"name":"C7","midi":96,"time":"85.62","velocity":0.12598425196850394,"duration":"0.06"},{"name":"C#3","midi":49,"time":"85.65","velocity":0.07874015748031496,"duration":"0.03"},{"name":"C#5","midi":73,"time":"85.74","velocity":0.11023622047244094,"duration":"0.28"},{"name":"C#4","midi":61,"time":"85.77","velocity":0.2204724409448819,"duration":"0.23"},{"name":"C7","midi":96,"time":"85.78","velocity":0.08661417322834646,"duration":"0.03"},{"name":"C7","midi":96,"time":"85.87","velocity":0.10236220472440945,"duration":"0.08"},{"name":"C#4","midi":61,"time":"86.02","velocity":0.25196850393700787,"duration":"0.17"},{"name":"B5","midi":83,"time":"86.02","velocity":0.12598425196850394,"duration":"0.10"},{"name":"G#6","midi":92,"time":"86.15","velocity":0.31496062992125984,"duration":"1.00"},{"name":"C7","midi":96,"time":"86.16","velocity":0.08661417322834646,"duration":"0.03"},{"name":"G#5","midi":80,"time":"86.41","velocity":0.3543307086614173,"duration":"0.48"},{"name":"C6","midi":84,"time":"86.42","velocity":0.14960629921259844,"duration":"0.22"},{"name":"G#4","midi":68,"time":"86.43","velocity":0.3543307086614173,"duration":"0.73"},{"name":"A3","midi":57,"time":"86.52","velocity":0.07874015748031496,"duration":"0.03"},{"name":"C#4","midi":61,"time":"86.53","velocity":0.2047244094488189,"duration":"0.59"},{"name":"C7","midi":96,"time":"86.55","velocity":0.15748031496062992,"duration":"0.08"},{"name":"C7","midi":96,"time":"86.72","velocity":0.08661417322834646,"duration":"0.03"},{"name":"C7","midi":96,"time":"87.10","velocity":0.07086614173228346,"duration":"0.03"},{"name":"C#4","midi":61,"time":"87.14","velocity":0.33858267716535434,"duration":"0.20"},{"name":"G#6","midi":92,"time":"87.17","velocity":0.3464566929133858,"duration":"0.52"},{"name":"G#4","midi":68,"time":"87.19","velocity":0.25196850393700787,"duration":"0.02"},{"name":"F5","midi":77,"time":"87.19","velocity":0.16535433070866143,"duration":"0.08"},{"name":"A3","midi":57,"time":"87.20","velocity":0.14173228346456693,"duration":"0.03"},{"name":"F4","midi":65,"time":"87.20","velocity":0.18110236220472442,"duration":"0.09"},{"name":"G#4","midi":68,"time":"87.22","velocity":0.3779527559055118,"duration":"1.06"},{"name":"C2","midi":36,"time":"87.23","velocity":0.2204724409448819,"duration":"0.07"},{"name":"B5","midi":83,"time":"87.27","velocity":0.11811023622047244,"duration":"0.03"},{"name":"D#5","midi":75,"time":"87.28","velocity":0.09448818897637795,"duration":"0.03"},{"name":"A3","midi":57,"time":"87.30","velocity":0.14960629921259844,"duration":"0.05"},{"name":"F6","midi":89,"time":"87.33","velocity":0.09448818897637795,"duration":"0.03"},{"name":"B5","midi":83,"time":"87.34","velocity":0.08661417322834646,"duration":"0.03"},{"name":"G#3","midi":56,"time":"87.35","velocity":0.16535433070866143,"duration":"0.06"},{"name":"C#5","midi":73,"time":"87.35","velocity":0.09448818897637795,"duration":"0.05"},{"name":"C#4","midi":61,"time":"87.37","velocity":0.29133858267716534,"duration":"0.15"},{"name":"D#5","midi":75,"time":"87.37","velocity":0.07086614173228346,"duration":"0.05"},{"name":"D#6","midi":87,"time":"87.37","velocity":0.23622047244094488,"duration":"0.09"},{"name":"F#5","midi":78,"time":"87.45","velocity":0.07086614173228346,"duration":"0.03"},{"name":"G#2","midi":44,"time":"87.47","velocity":0.12598425196850394,"duration":"0.05"},{"name":"D#6","midi":87,"time":"87.48","velocity":0.18110236220472442,"duration":"0.16"},{"name":"F5","midi":77,"time":"87.49","velocity":0.18110236220472442,"duration":"0.20"},{"name":"A6","midi":93,"time":"87.52","velocity":0.07874015748031496,"duration":"0.03"},{"name":"F#5","midi":78,"time":"87.53","velocity":0.15748031496062992,"duration":"0.09"},{"name":"C#4","midi":61,"time":"87.55","velocity":0.3543307086614173,"duration":"0.29"},{"name":"G#3","midi":56,"time":"87.62","velocity":0.14173228346456693,"duration":"0.13"},{"name":"B5","midi":83,"time":"87.65","velocity":0.11023622047244094,"duration":"0.10"},{"name":"F4","midi":65,"time":"87.70","velocity":0.07086614173228346,"duration":"0.13"},{"name":"C#3","midi":49,"time":"87.71","velocity":0.15748031496062992,"duration":"0.03"},{"name":"D#6","midi":87,"time":"87.72","velocity":0.11023622047244094,"duration":"0.03"},{"name":"F5","midi":77,"time":"87.76","velocity":0.1732283464566929,"duration":"0.35"},{"name":"D#6","midi":87,"time":"87.80","velocity":0.09448818897637795,"duration":"0.06"},{"name":"F#5","midi":78,"time":"87.81","velocity":0.18110236220472442,"duration":"0.09"},{"name":"C#3","midi":49,"time":"87.85","velocity":0.25984251968503935,"duration":"0.02"},{"name":"C#5","midi":73,"time":"87.85","velocity":0.13385826771653545,"duration":"0.03"},{"name":"C#3","midi":49,"time":"87.88","velocity":0.28346456692913385,"duration":"0.05"},{"name":"D#6","midi":87,"time":"87.90","velocity":0.14173228346456693,"duration":"0.03"},{"name":"F4","midi":65,"time":"87.92","velocity":0.14173228346456693,"duration":"0.08"},{"name":"G#3","midi":56,"time":"87.93","velocity":0.13385826771653545,"duration":"0.07"},{"name":"C7","midi":96,"time":"87.93","velocity":0.11023622047244094,"duration":"0.09"},{"name":"C#3","midi":49,"time":"87.94","velocity":0.30708661417322836,"duration":"0.14"},{"name":"D#6","midi":87,"time":"87.95","velocity":0.11023622047244094,"duration":"0.05"},{"name":"D#6","midi":87,"time":"88.07","velocity":0.14173228346456693,"duration":"0.06"},{"name":"C#3","midi":49,"time":"88.09","velocity":0.2755905511811024,"duration":"0.05"},{"name":"C#3","midi":49,"time":"88.15","velocity":0.23622047244094488,"duration":"0.12"},{"name":"G#3","midi":56,"time":"88.16","velocity":0.13385826771653545,"duration":"0.10"},{"name":"C#4","midi":61,"time":"88.22","velocity":0.25196850393700787,"duration":"0.42"},{"name":"D#7","midi":99,"time":"88.22","velocity":0.09448818897637795,"duration":"0.05"},{"name":"G#4","midi":68,"time":"88.30","velocity":0.23622047244094488,"duration":"0.23"},{"name":"C#3","midi":49,"time":"88.45","velocity":0.11023622047244094,"duration":"0.05"},{"name":"A#5","midi":82,"time":"88.52","velocity":0.33858267716535434,"duration":"0.03"},{"name":"A#4","midi":70,"time":"88.53","velocity":0.3858267716535433,"duration":"0.03"},{"name":"A5","midi":81,"time":"88.56","velocity":0.49606299212598426,"duration":"0.66"},{"name":"A4","midi":69,"time":"88.57","velocity":0.3700787401574803,"duration":"0.40"},{"name":"C#3","midi":49,"time":"88.64","velocity":0.1968503937007874,"duration":"0.22"},{"name":"B5","midi":83,"time":"88.65","velocity":0.10236220472440945,"duration":"0.08"},{"name":"C#4","midi":61,"time":"88.66","velocity":0.2755905511811024,"duration":"0.74"},{"name":"F7","midi":101,"time":"88.66","velocity":0.11023622047244094,"duration":"0.03"},{"name":"E6","midi":88,"time":"88.67","velocity":0.29133858267716534,"duration":"0.33"},{"name":"G7","midi":103,"time":"88.70","velocity":0.15748031496062992,"duration":"0.43"},{"name":"G#4","midi":68,"time":"88.95","velocity":0.29133858267716534,"duration":"0.08"},{"name":"A4","midi":69,"time":"89.03","velocity":0.2677165354330709,"duration":"0.02"},{"name":"C#7","midi":97,"time":"89.06","velocity":0.18110236220472442,"duration":"0.08"},{"name":"A4","midi":69,"time":"89.07","velocity":0.3700787401574803,"duration":"0.07"},{"name":"E6","midi":88,"time":"89.07","velocity":0.1968503937007874,"duration":"0.30"},{"name":"G#4","midi":68,"time":"89.14","velocity":0.33070866141732286,"duration":"0.26"},{"name":"G#5","midi":80,"time":"89.21","velocity":0.4251968503937008,"duration":"0.23"},{"name":"A6","midi":93,"time":"89.22","velocity":0.15748031496062992,"duration":"0.14"},{"name":"D#6","midi":87,"time":"89.26","velocity":0.2047244094488189,"duration":"0.26"},{"name":"A5","midi":81,"time":"89.30","velocity":0.33070866141732286,"duration":"0.16"},{"name":"C7","midi":96,"time":"89.43","velocity":0.11811023622047244,"duration":"0.12"},{"name":"G#3","midi":56,"time":"89.44","velocity":0.11023622047244094,"duration":"0.08"},{"name":"A4","midi":69,"time":"89.45","velocity":0.2047244094488189,"duration":"0.05"},{"name":"G#5","midi":80,"time":"89.45","velocity":0.31496062992125984,"duration":"0.09"},{"name":"C6","midi":84,"time":"89.49","velocity":0.07874015748031496,"duration":"0.08"},{"name":"G#4","midi":68,"time":"89.50","velocity":0.36220472440944884,"duration":"0.64"},{"name":"A5","midi":81,"time":"89.53","velocity":0.2677165354330709,"duration":"0.12"},{"name":"E6","midi":88,"time":"89.57","velocity":0.10236220472440945,"duration":"0.12"},{"name":"A#6","midi":94,"time":"89.62","velocity":0.11023622047244094,"duration":"0.07"},{"name":"A5","midi":81,"time":"89.66","velocity":0.25984251968503935,"duration":"0.17"},{"name":"D#4","midi":63,"time":"89.67","velocity":0.2755905511811024,"duration":"0.05"},{"name":"A#5","midi":82,"time":"89.69","velocity":0.12598425196850394,"duration":"0.03"},{"name":"E4","midi":64,"time":"89.72","velocity":0.3700787401574803,"duration":"0.50"},{"name":"B5","midi":83,"time":"89.72","velocity":0.08661417322834646,"duration":"0.05"},{"name":"D#7","midi":99,"time":"89.72","velocity":0.12598425196850394,"duration":"0.06"},{"name":"E7","midi":100,"time":"89.78","velocity":0.14960629921259844,"duration":"0.41"},{"name":"D7","midi":98,"time":"89.80","velocity":0.16535433070866143,"duration":"0.42"},{"name":"C6","midi":84,"time":"89.85","velocity":0.08661417322834646,"duration":"0.06"},{"name":"A5","midi":81,"time":"89.88","velocity":0.2125984251968504,"duration":"0.07"},{"name":"C7","midi":96,"time":"89.94","velocity":0.14173228346456693,"duration":"0.07"},{"name":"D#7","midi":99,"time":"89.95","velocity":0.23622047244094488,"duration":"0.36"},{"name":"F#7","midi":102,"time":"89.97","velocity":0.11811023622047244,"duration":"0.19"},{"name":"D#6","midi":87,"time":"90.00","velocity":0.09448818897637795,"duration":"0.05"},{"name":"A5","midi":81,"time":"90.02","velocity":0.2047244094488189,"duration":"0.20"},{"name":"C7","midi":96,"time":"90.05","velocity":0.12598425196850394,"duration":"0.09"},{"name":"G#3","midi":56,"time":"90.07","velocity":0.07086614173228346,"duration":"0.03"},{"name":"A3","midi":57,"time":"90.17","velocity":0.2755905511811024,"duration":"0.06"},{"name":"A4","midi":69,"time":"90.17","velocity":0.2755905511811024,"duration":"0.30"},{"name":"C#5","midi":73,"time":"90.19","velocity":0.13385826771653545,"duration":"0.05"},{"name":"E7","midi":100,"time":"90.20","velocity":0.23622047244094488,"duration":"0.72"},{"name":"C#4","midi":61,"time":"90.21","velocity":0.14173228346456693,"duration":"0.03"},{"name":"F#5","midi":78,"time":"90.21","velocity":0.12598425196850394,"duration":"0.06"},{"name":"E4","midi":64,"time":"90.23","velocity":0.3937007874015748,"duration":"0.10"},{"name":"F#2","midi":42,"time":"90.24","velocity":0.28346456692913385,"duration":"0.13"},{"name":"F#3","midi":54,"time":"90.24","velocity":0.2992125984251969,"duration":"0.02"},{"name":"A#6","midi":94,"time":"90.24","velocity":0.10236220472440945,"duration":"0.13"},{"name":"D7","midi":98,"time":"90.26","velocity":0.10236220472440945,"duration":"0.03"},{"name":"F#3","midi":54,"time":"90.28","velocity":0.3858267716535433,"duration":"0.28"},{"name":"C#4","midi":61,"time":"90.31","velocity":0.2440944881889764,"duration":"0.05"},{"name":"A#5","midi":82,"time":"90.35","velocity":0.08661417322834646,"duration":"0.05"},{"name":"C#4","midi":61,"time":"90.37","velocity":0.1732283464566929,"duration":"0.09"},{"name":"E4","midi":64,"time":"90.37","velocity":0.11023622047244094,"duration":"0.06"},{"name":"F#2","midi":42,"time":"90.38","velocity":0.1732283464566929,"duration":"0.06"},{"name":"G#5","midi":80,"time":"90.44","velocity":0.08661417322834646,"duration":"0.08"},{"name":"F#2","midi":42,"time":"90.45","velocity":0.23622047244094488,"duration":"0.56"},{"name":"E4","midi":64,"time":"90.45","velocity":0.23622047244094488,"duration":"0.03"},{"name":"C#4","midi":61,"time":"90.48","velocity":0.12598425196850394,"duration":"0.05"},{"name":"E4","midi":64,"time":"90.50","velocity":0.2440944881889764,"duration":"0.02"},{"name":"A4","midi":69,"time":"90.51","velocity":0.25196850393700787,"duration":"0.05"},{"name":"F#5","midi":78,"time":"90.51","velocity":0.07874015748031496,"duration":"0.03"},{"name":"C#5","midi":73,"time":"90.53","velocity":0.3228346456692913,"duration":"0.52"},{"name":"C#4","midi":61,"time":"90.55","velocity":0.33070866141732286,"duration":"0.38"},{"name":"E4","midi":64,"time":"90.56","velocity":0.25196850393700787,"duration":"0.02"},{"name":"F#3","midi":54,"time":"90.57","velocity":0.3779527559055118,"duration":"0.05"},{"name":"A4","midi":69,"time":"90.57","velocity":0.25196850393700787,"duration":"0.33"},{"name":"G#5","midi":80,"time":"90.58","velocity":0.33858267716535434,"duration":"0.77"},{"name":"F4","midi":65,"time":"90.62","velocity":0.2283464566929134,"duration":"0.02"},{"name":"E5","midi":76,"time":"90.62","velocity":0.2992125984251969,"duration":"0.40"},{"name":"F#3","midi":54,"time":"90.63","velocity":0.3779527559055118,"duration":"1.43"},{"name":"E4","midi":64,"time":"90.64","velocity":0.14173228346456693,"duration":"0.03"},{"name":"A#6","midi":94,"time":"90.74","velocity":0.09448818897637795,"duration":"0.03"},{"name":"B6","midi":95,"time":"90.78","velocity":0.09448818897637795,"duration":"0.22"},{"name":"F7","midi":101,"time":"90.85","velocity":0.12598425196850394,"duration":"0.17"},{"name":"E4","midi":64,"time":"90.86","velocity":0.2047244094488189,"duration":"0.03"},{"name":"F#7","midi":102,"time":"90.88","velocity":0.18110236220472442,"duration":"0.28"},{"name":"F#5","midi":78,"time":"90.93","velocity":0.2125984251968504,"duration":"0.16"},{"name":"C#4","midi":61,"time":"90.94","velocity":0.33858267716535434,"duration":"0.27"},{"name":"E4","midi":64,"time":"90.94","velocity":0.2440944881889764,"duration":"0.02"},{"name":"A#6","midi":94,"time":"90.95","velocity":0.11811023622047244,"duration":"0.03"},{"name":"E7","midi":100,"time":"90.98","velocity":0.07874015748031496,"duration":"0.08"},{"name":"F#2","midi":42,"time":"91.02","velocity":0.25984251968503935,"duration":"0.16"},{"name":"A#5","midi":82,"time":"91.02","velocity":0.13385826771653545,"duration":"0.13"},{"name":"A#4","midi":70,"time":"91.03","velocity":0.10236220472440945,"duration":"0.10"},{"name":"C#7","midi":97,"time":"91.09","velocity":0.07874015748031496,"duration":"0.03"},{"name":"E7","midi":100,"time":"91.15","velocity":0.12598425196850394,"duration":"0.57"},{"name":"C#7","midi":97,"time":"91.16","velocity":0.13385826771653545,"duration":"0.30"},{"name":"A#6","midi":94,"time":"91.17","velocity":0.12598425196850394,"duration":"0.03"},{"name":"D4","midi":62,"time":"91.21","velocity":0.28346456692913385,"duration":"0.02"},{"name":"C#4","midi":61,"time":"91.23","velocity":0.31496062992125984,"duration":"0.05"},{"name":"A#5","midi":82,"time":"91.26","velocity":0.12598425196850394,"duration":"0.14"},{"name":"C#4","midi":61,"time":"91.29","velocity":0.2125984251968504,"duration":"0.13"},{"name":"E4","midi":64,"time":"91.31","velocity":0.18110236220472442,"duration":"0.05"},{"name":"G#5","midi":80,"time":"91.37","velocity":0.14173228346456693,"duration":"0.03"},{"name":"E5","midi":76,"time":"91.38","velocity":0.11811023622047244,"duration":"0.28"},{"name":"G#5","midi":80,"time":"91.42","velocity":0.15748031496062992,"duration":"0.29"},{"name":"C#4","midi":61,"time":"91.47","velocity":0.14173228346456693,"duration":"0.14"},{"name":"F#2","midi":42,"time":"91.48","velocity":0.09448818897637795,"duration":"0.22"},{"name":"C#4","midi":61,"time":"91.64","velocity":0.11023622047244094,"duration":"0.03"},{"name":"C#5","midi":73,"time":"91.64","velocity":0.13385826771653545,"duration":"0.07"},{"name":"C#4","midi":61,"time":"91.69","velocity":0.1968503937007874,"duration":"0.13"},{"name":"G#5","midi":80,"time":"91.76","velocity":0.10236220472440945,"duration":"0.07"},{"name":"C#4","midi":61,"time":"91.85","velocity":0.13385826771653545,"duration":"0.13"},{"name":"G#5","midi":80,"time":"91.86","velocity":0.11811023622047244,"duration":"0.17"},{"name":"A4","midi":69,"time":"92.06","velocity":0.13385826771653545,"duration":"0.33"},{"name":"C#4","midi":61,"time":"92.07","velocity":0.11811023622047244,"duration":"0.12"},{"name":"F#3","midi":54,"time":"92.08","velocity":0.25984251968503935,"duration":"0.02"},{"name":"E5","midi":76,"time":"92.08","velocity":0.1889763779527559,"duration":"0.38"},{"name":"F#3","midi":54,"time":"92.12","velocity":0.2440944881889764,"duration":"0.19"},{"name":"E7","midi":100,"time":"92.16","velocity":0.11811023622047244,"duration":"0.28"},{"name":"C#4","midi":61,"time":"92.24","velocity":0.12598425196850394,"duration":"0.13"},{"name":"F#3","midi":54,"time":"92.31","velocity":0.1889763779527559,"duration":"0.07"},{"name":"F#4","midi":66,"time":"92.37","velocity":0.33070866141732286,"duration":"1.02"},{"name":"F7","midi":101,"time":"92.41","velocity":0.16535433070866143,"duration":"0.06"},{"name":"F#7","midi":102,"time":"92.42","velocity":0.12598425196850394,"duration":"0.16"},{"name":"A#5","midi":82,"time":"92.49","velocity":0.12598425196850394,"duration":"0.17"},{"name":"C#4","midi":61,"time":"92.50","velocity":0.10236220472440945,"duration":"0.06"},{"name":"F7","midi":101,"time":"92.50","velocity":0.11023622047244094,"duration":"0.06"},{"name":"C#5","midi":73,"time":"92.51","velocity":0.13385826771653545,"duration":"0.13"},{"name":"E6","midi":88,"time":"92.55","velocity":0.11023622047244094,"duration":"0.06"},{"name":"F7","midi":101,"time":"92.60","velocity":0.07086614173228346,"duration":"0.05"},{"name":"E6","midi":88,"time":"92.67","velocity":0.10236220472440945,"duration":"0.13"},{"name":"C#7","midi":97,"time":"92.69","velocity":0.11023622047244094,"duration":"0.19"},{"name":"A5","midi":81,"time":"92.78","velocity":0.2283464566929134,"duration":"0.06"},{"name":"C6","midi":84,"time":"92.78","velocity":0.12598425196850394,"duration":"0.05"},{"name":"D5","midi":74,"time":"92.79","velocity":0.15748031496062992,"duration":"0.03"},{"name":"C#4","midi":61,"time":"92.81","velocity":0.3464566929133858,"duration":"0.13"},{"name":"G#5","midi":80,"time":"92.84","velocity":0.23622047244094488,"duration":"0.10"},{"name":"C5","midi":72,"time":"92.92","velocity":0.16535433070866143,"duration":"0.03"},{"name":"F#7","midi":102,"time":"92.93","velocity":0.12598425196850394,"duration":"0.06"},{"name":"E7","midi":100,"time":"92.94","velocity":0.16535433070866143,"duration":"0.23"},{"name":"C#4","midi":61,"time":"92.95","velocity":0.2992125984251969,"duration":"0.05"},{"name":"E6","midi":88,"time":"93.02","velocity":0.07874015748031496,"duration":"0.06"},{"name":"F#3","midi":54,"time":"93.03","velocity":0.09448818897637795,"duration":"0.09"},{"name":"C#5","midi":73,"time":"93.12","velocity":0.12598425196850394,"duration":"0.05"},{"name":"D4","midi":62,"time":"93.15","velocity":0.3937007874015748,"duration":"0.07"},{"name":"F#3","midi":54,"time":"93.16","velocity":0.1732283464566929,"duration":"0.06"},{"name":"D#5","midi":75,"time":"93.16","velocity":0.3779527559055118,"duration":"0.03"},{"name":"A#5","midi":82,"time":"93.16","velocity":0.3464566929133858,"duration":"0.03"},{"name":"A4","midi":69,"time":"93.19","velocity":0.2283464566929134,"duration":"0.03"},{"name":"A6","midi":93,"time":"93.19","velocity":0.12598425196850394,"duration":"0.06"},{"name":"A5","midi":81,"time":"93.20","velocity":0.44881889763779526,"duration":"1.07"},{"name":"A3","midi":57,"time":"93.22","velocity":0.33858267716535434,"duration":"0.10"},{"name":"F#6","midi":90,"time":"93.26","velocity":0.25196850393700787,"duration":"0.71"},{"name":"C#2","midi":37,"time":"93.27","velocity":0.11811023622047244,"duration":"0.03"},{"name":"C#4","midi":61,"time":"93.27","velocity":0.2755905511811024,"duration":"0.02"},{"name":"C#4","midi":61,"time":"93.30","velocity":0.3228346456692913,"duration":"0.02"},{"name":"D4","midi":62,"time":"93.33","velocity":0.41732283464566927,"duration":"0.34"},{"name":"C5","midi":72,"time":"93.33","velocity":0.14173228346456693,"duration":"0.09"},{"name":"A3","midi":57,"time":"93.38","velocity":0.33070866141732286,"duration":"0.07"},{"name":"F#4","midi":66,"time":"93.41","velocity":0.14173228346456693,"duration":"0.03"},{"name":"F#5","midi":78,"time":"93.41","velocity":0.2047244094488189,"duration":"0.15"},{"name":"G#4","midi":68,"time":"93.43","velocity":0.16535433070866143,"duration":"0.05"},{"name":"D2","midi":38,"time":"93.45","velocity":0.10236220472440945,"duration":"0.03"},{"name":"F#4","midi":66,"time":"93.45","velocity":0.1968503937007874,"duration":"0.09"},{"name":"C5","midi":72,"time":"93.47","velocity":0.10236220472440945,"duration":"0.12"},{"name":"F#3","midi":54,"time":"93.48","velocity":0.30708661417322836,"duration":"0.03"},{"name":"A3","midi":57,"time":"93.50","velocity":0.30708661417322836,"duration":"0.12"},{"name":"F7","midi":101,"time":"93.53","velocity":0.09448818897637795,"duration":"0.08"},{"name":"F#4","midi":66,"time":"93.57","velocity":0.2283464566929134,"duration":"0.05"},{"name":"A3","midi":57,"time":"93.66","velocity":0.30708661417322836,"duration":"0.09"},{"name":"D4","midi":62,"time":"93.67","velocity":0.30708661417322836,"duration":"0.03"},{"name":"C5","midi":72,"time":"93.69","velocity":0.14960629921259844,"duration":"0.16"},{"name":"D5","midi":74,"time":"93.71","velocity":0.1889763779527559,"duration":"0.17"},{"name":"D4","midi":62,"time":"93.72","velocity":0.41732283464566927,"duration":"0.66"},{"name":"G3","midi":55,"time":"93.74","velocity":0.28346456692913385,"duration":"0.03"},{"name":"F#3","midi":54,"time":"93.80","velocity":0.28346456692913385,"duration":"0.12"},{"name":"F#5","midi":78,"time":"93.80","velocity":0.2125984251968504,"duration":"0.27"},{"name":"A4","midi":69,"time":"93.86","velocity":0.1889763779527559,"duration":"0.16"},{"name":"F#3","midi":54,"time":"93.93","velocity":0.2204724409448819,"duration":"0.03"},{"name":"A3","midi":57,"time":"93.95","velocity":0.25984251968503935,"duration":"0.12"},{"name":"F#3","midi":54,"time":"94.10","velocity":0.2283464566929134,"duration":"0.03"},{"name":"F#3","midi":54,"time":"94.19","velocity":0.2283464566929134,"duration":"0.05"},{"name":"F#6","midi":90,"time":"94.23","velocity":0.11811023622047244,"duration":"0.03"},{"name":"A5","midi":81,"time":"94.28","velocity":0.29133858267716534,"duration":"0.06"},{"name":"D#5","midi":75,"time":"94.35","velocity":0.23622047244094488,"duration":"0.05"},{"name":"A5","midi":81,"time":"94.35","velocity":0.33070866141732286,"duration":"0.20"},{"name":"A#6","midi":94,"time":"94.35","velocity":0.2047244094488189,"duration":"0.05"},{"name":"A#5","midi":82,"time":"94.36","velocity":0.33070866141732286,"duration":"0.03"},{"name":"F#3","midi":54,"time":"94.37","velocity":0.2047244094488189,"duration":"0.03"},{"name":"D5","midi":74,"time":"94.38","velocity":0.28346456692913385,"duration":"0.23"},{"name":"D#4","midi":63,"time":"94.40","velocity":0.3464566929133858,"duration":"0.02"},{"name":"E5","midi":76,"time":"94.40","velocity":0.2440944881889764,"duration":"0.63"},{"name":"B5","midi":83,"time":"94.40","velocity":0.4330708661417323,"duration":"1.33"},{"name":"G#6","midi":92,"time":"94.41","velocity":0.2755905511811024,"duration":"0.45"},{"name":"F#7","midi":102,"time":"94.41","velocity":0.1732283464566929,"duration":"0.52"},{"name":"F#3","midi":54,"time":"94.42","velocity":0.2204724409448819,"duration":"0.05"},{"name":"E4","midi":64,"time":"94.42","velocity":0.33858267716535434,"duration":"0.15"},{"name":"F#6","midi":90,"time":"94.44","velocity":0.10236220472440945,"duration":"0.09"},{"name":"F#3","midi":54,"time":"94.50","velocity":0.2125984251968504,"duration":"0.15"},{"name":"D4","midi":62,"time":"94.51","velocity":0.28346456692913385,"duration":"0.02"},{"name":"A5","midi":81,"time":"94.57","velocity":0.3228346456692913,"duration":"0.30"},{"name":"E4","midi":64,"time":"94.58","velocity":0.3464566929133858,"duration":"0.09"},{"name":"F#6","midi":90,"time":"94.58","velocity":0.10236220472440945,"duration":"0.05"},{"name":"D3","midi":50,"time":"94.65","velocity":0.07874015748031496,"duration":"0.03"},{"name":"F7","midi":101,"time":"94.65","velocity":0.11023622047244094,"duration":"0.03"},{"name":"D4","midi":62,"time":"94.66","velocity":0.3543307086614173,"duration":"0.02"},{"name":"E4","midi":64,"time":"94.69","velocity":0.4251968503937008,"duration":"0.38"},{"name":"F#3","midi":54,"time":"94.70","velocity":0.2204724409448819,"duration":"0.05"},{"name":"D5","midi":74,"time":"94.72","velocity":0.11023622047244094,"duration":"0.07"},{"name":"F#3","midi":54,"time":"94.76","velocity":0.2440944881889764,"duration":"0.07"},{"name":"D5","midi":74,"time":"94.83","velocity":0.13385826771653545,"duration":"0.09"},{"name":"F#3","midi":54,"time":"94.84","velocity":0.2440944881889764,"duration":"0.07"},{"name":"A#5","midi":82,"time":"94.84","velocity":0.2204724409448819,"duration":"0.22"},{"name":"G#6","midi":92,"time":"94.87","velocity":0.1732283464566929,"duration":"0.08"},{"name":"F#3","midi":54,"time":"94.92","velocity":0.2440944881889764,"duration":"0.07"},{"name":"A5","midi":81,"time":"94.97","velocity":0.2125984251968504,"duration":"0.15"},{"name":"G#6","midi":92,"time":"94.98","velocity":0.12598425196850394,"duration":"0.07"},{"name":"F#7","midi":102,"time":"94.99","velocity":0.10236220472440945,"duration":"0.07"},{"name":"F#3","midi":54,"time":"95.00","velocity":0.1889763779527559,"duration":"0.03"},{"name":"D5","midi":74,"time":"95.01","velocity":0.13385826771653545,"duration":"0.05"},{"name":"E5","midi":76,"time":"95.07","velocity":0.18110236220472442,"duration":"0.06"},{"name":"E4","midi":64,"time":"95.08","velocity":0.33858267716535434,"duration":"0.02"},{"name":"D3","midi":50,"time":"95.09","velocity":0.14960629921259844,"duration":"0.17"},{"name":"F7","midi":101,"time":"95.09","velocity":0.09448818897637795,"duration":"0.05"},{"name":"D5","midi":74,"time":"95.10","velocity":0.13385826771653545,"duration":"0.10"},{"name":"A#5","midi":82,"time":"95.10","velocity":0.18110236220472442,"duration":"0.29"},{"name":"F#4","midi":66,"time":"95.14","velocity":0.30708661417322836,"duration":"0.26"},{"name":"D4","midi":62,"time":"95.15","velocity":0.25984251968503935,"duration":"0.20"},{"name":"G#6","midi":92,"time":"95.16","velocity":0.11811023622047244,"duration":"0.03"},{"name":"E5","midi":76,"time":"95.24","velocity":0.11023622047244094,"duration":"0.06"},{"name":"D3","midi":50,"time":"95.28","velocity":0.13385826771653545,"duration":"0.05"},{"name":"G#6","midi":92,"time":"95.34","velocity":0.09448818897637795,"duration":"0.05"},{"name":"A5","midi":81,"time":"95.35","velocity":0.2125984251968504,"duration":"0.19"},{"name":"D3","midi":50,"time":"95.38","velocity":0.14960629921259844,"duration":"0.05"},{"name":"E5","midi":76,"time":"95.38","velocity":0.07874015748031496,"duration":"0.06"},{"name":"D4","midi":62,"time":"95.40","velocity":0.3779527559055118,"duration":"0.05"},{"name":"C#4","midi":61,"time":"95.44","velocity":0.4015748031496063,"duration":"0.21"},{"name":"F#4","midi":66,"time":"95.49","velocity":0.2204724409448819,"duration":"0.24"},{"name":"E7","midi":100,"time":"95.49","velocity":0.10236220472440945,"duration":"0.13"},{"name":"D5","midi":74,"time":"95.52","velocity":0.1889763779527559,"duration":"0.03"},{"name":"D3","midi":50,"time":"95.56","velocity":0.07874015748031496,"duration":"0.17"},{"name":"A5","midi":81,"time":"95.57","velocity":0.1732283464566929,"duration":"0.16"},{"name":"G#6","midi":92,"time":"95.62","velocity":0.09448818897637795,"duration":"0.03"},{"name":"C#4","midi":61,"time":"95.66","velocity":0.3700787401574803,"duration":"0.06"},{"name":"E5","midi":76,"time":"95.67","velocity":0.10236220472440945,"duration":"0.09"},{"name":"A4","midi":69,"time":"95.71","velocity":0.11811023622047244,"duration":"0.10"},{"name":"C#4","midi":61,"time":"95.73","velocity":0.4094488188976378,"duration":"0.47"},{"name":"B5","midi":83,"time":"95.74","velocity":0.2283464566929134,"duration":"0.35"},{"name":"F#4","midi":66,"time":"95.80","velocity":0.2047244094488189,"duration":"0.03"},{"name":"A5","midi":81,"time":"95.83","velocity":0.10236220472440945,"duration":"0.03"},{"name":"D3","midi":50,"time":"95.84","velocity":0.11023622047244094,"duration":"0.10"},{"name":"F#4","midi":66,"time":"95.85","velocity":0.1968503937007874,"duration":"0.28"},{"name":"G#5","midi":80,"time":"95.85","velocity":0.10236220472440945,"duration":"0.13"},{"name":"D3","midi":50,"time":"95.95","velocity":0.08661417322834646,"duration":"0.07"},{"name":"A#5","midi":82,"time":"95.97","velocity":0.16535433070866143,"duration":"0.21"},{"name":"D3","midi":50,"time":"96.06","velocity":0.11811023622047244,"duration":"0.06"},{"name":"A4","midi":69,"time":"96.06","velocity":0.2047244094488189,"duration":"0.13"},{"name":"F3","midi":53,"time":"96.12","velocity":0.11811023622047244,"duration":"0.03"},{"name":"E4","midi":64,"time":"96.13","velocity":0.18110236220472442,"duration":"0.03"},{"name":"F#4","midi":66,"time":"96.14","velocity":0.31496062992125984,"duration":"0.76"},{"name":"A3","midi":57,"time":"96.16","velocity":0.2992125984251969,"duration":"0.12"},{"name":"D4","midi":62,"time":"96.20","velocity":0.4330708661417323,"duration":"0.07"},{"name":"C#2","midi":37,"time":"96.23","velocity":0.11811023622047244,"duration":"0.03"},{"name":"A#5","midi":82,"time":"96.23","velocity":0.2204724409448819,"duration":"0.37"},{"name":"B5","midi":83,"time":"96.23","velocity":0.18110236220472442,"duration":"0.16"},{"name":"C#4","midi":61,"time":"96.27","velocity":0.3937007874015748,"duration":"0.02"},{"name":"D3","midi":50,"time":"96.29","velocity":0.2204724409448819,"duration":"0.19"},{"name":"A3","midi":57,"time":"96.29","velocity":0.2283464566929134,"duration":"0.02"},{"name":"C5","midi":72,"time":"96.31","velocity":0.11811023622047244,"duration":"0.09"},{"name":"D4","midi":62,"time":"96.33","velocity":0.3228346456692913,"duration":"0.29"},{"name":"A3","midi":57,"time":"96.35","velocity":0.30708661417322836,"duration":"0.21"},{"name":"E5","midi":76,"time":"96.40","velocity":0.07086614173228346,"duration":"0.05"},{"name":"B5","midi":83,"time":"96.43","velocity":0.14960629921259844,"duration":"0.05"},{"name":"D3","midi":50,"time":"96.49","velocity":0.23622047244094488,"duration":"0.07"},{"name":"C5","midi":72,"time":"96.49","velocity":0.09448818897637795,"duration":"0.06"},{"name":"A3","midi":57,"time":"96.58","velocity":0.33070866141732286,"duration":"0.21"},{"name":"D4","midi":62,"time":"96.63","velocity":0.3543307086614173,"duration":"0.38"},{"name":"C5","midi":72,"time":"96.64","velocity":0.14173228346456693,"duration":"0.10"},{"name":"B5","midi":83,"time":"96.70","velocity":0.12598425196850394,"duration":"0.09"},{"name":"A#5","midi":82,"time":"96.71","velocity":0.10236220472440945,"duration":"0.07"},{"name":"D3","midi":50,"time":"96.73","velocity":0.14173228346456693,"duration":"0.03"},{"name":"A5","midi":81,"time":"96.77","velocity":0.1732283464566929,"duration":"0.05"},{"name":"A#5","midi":82,"time":"96.79","velocity":0.12598425196850394,"duration":"0.10"},{"name":"F#3","midi":54,"time":"96.80","velocity":0.18110236220472442,"duration":"0.03"},{"name":"C5","midi":72,"time":"96.80","velocity":0.11811023622047244,"duration":"0.06"},{"name":"A4","midi":69,"time":"96.81","velocity":0.1732283464566929,"duration":"0.55"},{"name":"B5","midi":83,"time":"96.81","velocity":0.12598425196850394,"duration":"0.03"},{"name":"A3","midi":57,"time":"96.84","velocity":0.2283464566929134,"duration":"0.05"},{"name":"F#4","midi":66,"time":"96.91","velocity":0.16535433070866143,"duration":"0.35"},{"name":"F#3","midi":54,"time":"96.92","velocity":0.2283464566929134,"duration":"0.02"},{"name":"A3","midi":57,"time":"96.93","velocity":0.2125984251968504,"duration":"0.06"},{"name":"A5","midi":81,"time":"96.98","velocity":0.18110236220472442,"duration":"0.23"},{"name":"C5","midi":72,"time":"96.99","velocity":0.10236220472440945,"duration":"0.07"},{"name":"G3","midi":55,"time":"97.00","velocity":0.2440944881889764,"duration":"0.02"},{"name":"C#4","midi":61,"time":"97.01","velocity":0.15748031496062992,"duration":"0.03"},{"name":"E6","midi":88,"time":"97.01","velocity":0.12598425196850394,"duration":"0.15"},{"name":"D4","midi":62,"time":"97.05","velocity":0.2204724409448819,"duration":"0.16"},{"name":"F#3","midi":54,"time":"97.06","velocity":0.25196850393700787,"duration":"0.02"},{"name":"D5","midi":74,"time":"97.07","velocity":0.28346456692913385,"duration":"0.58"},{"name":"G3","midi":55,"time":"97.08","velocity":0.2440944881889764,"duration":"0.02"},{"name":"F#3","midi":54,"time":"97.10","velocity":0.2755905511811024,"duration":"0.12"},{"name":"F#3","midi":54,"time":"97.23","velocity":0.25984251968503935,"duration":"0.06"},{"name":"A3","midi":57,"time":"97.29","velocity":0.2047244094488189,"duration":"0.06"},{"name":"D4","midi":62,"time":"97.33","velocity":0.1732283464566929,"duration":"0.07"},{"name":"F#3","midi":54,"time":"97.37","velocity":0.1732283464566929,"duration":"0.06"},{"name":"C#4","midi":61,"time":"97.40","velocity":0.2047244094488189,"duration":"0.03"},{"name":"A4","midi":69,"time":"97.41","velocity":0.07874015748031496,"duration":"0.05"},{"name":"D4","midi":62,"time":"97.44","velocity":0.15748031496062992,"duration":"0.05"},{"name":"F#3","midi":54,"time":"97.47","velocity":0.1732283464566929,"duration":"0.03"},{"name":"F#3","midi":54,"time":"97.51","velocity":0.2125984251968504,"duration":"0.10"},{"name":"D4","midi":62,"time":"97.55","velocity":0.2283464566929134,"duration":"0.45"},{"name":"A4","midi":69,"time":"97.60","velocity":0.08661417322834646,"duration":"0.09"},{"name":"A#5","midi":82,"time":"97.62","velocity":0.15748031496062992,"duration":"0.09"},{"name":"F#3","midi":54,"time":"97.64","velocity":0.2125984251968504,"duration":"0.03"},{"name":"F#3","midi":54,"time":"97.69","velocity":0.2047244094488189,"duration":"0.07"},{"name":"F#4","midi":66,"time":"97.69","velocity":0.2047244094488189,"duration":"0.31"},{"name":"A#5","midi":82,"time":"97.76","velocity":0.16535433070866143,"duration":"0.30"},{"name":"C#5","midi":73,"time":"97.79","velocity":0.11023622047244094,"duration":"0.03"},{"name":"F#3","midi":54,"time":"97.80","velocity":0.1732283464566929,"duration":"0.03"},{"name":"F#3","midi":54,"time":"97.85","velocity":0.1968503937007874,"duration":"0.07"},{"name":"F#3","midi":54,"time":"97.95","velocity":0.2125984251968504,"duration":"0.05"},{"name":"D4","midi":62,"time":"98.01","velocity":0.2047244094488189,"duration":"0.45"},{"name":"F#4","midi":66,"time":"98.03","velocity":0.25984251968503935,"duration":"0.63"},{"name":"D3","midi":50,"time":"98.09","velocity":0.11023622047244094,"duration":"0.05"},{"name":"C7","midi":96,"time":"98.13","velocity":0.08661417322834646,"duration":"0.06"},{"name":"A#5","midi":82,"time":"98.16","velocity":0.14173228346456693,"duration":"0.24"},{"name":"D3","midi":50,"time":"98.19","velocity":0.14960629921259844,"duration":"0.03"},{"name":"F#3","midi":54,"time":"98.24","velocity":0.18110236220472442,"duration":"0.03"},{"name":"F#3","midi":54,"time":"98.35","velocity":0.2125984251968504,"duration":"0.17"},{"name":"D5","midi":74,"time":"98.44","velocity":0.2283464566929134,"duration":"0.37"},{"name":"A#5","midi":82,"time":"98.50","velocity":0.13385826771653545,"duration":"0.12"},{"name":"A5","midi":81,"time":"98.51","velocity":0.12598425196850394,"duration":"0.03"},{"name":"F#3","midi":54,"time":"98.53","velocity":0.2204724409448819,"duration":"0.23"},{"name":"A5","midi":81,"time":"98.60","velocity":0.13385826771653545,"duration":"0.19"},{"name":"D4","midi":62,"time":"98.76","velocity":0.11811023622047244,"duration":"0.06"},{"name":"F#3","midi":54,"time":"98.78","velocity":0.1968503937007874,"duration":"0.07"},{"name":"F#4","midi":66,"time":"98.79","velocity":0.2204724409448819,"duration":"0.41"},{"name":"A4","midi":69,"time":"98.85","velocity":0.11023622047244094,"duration":"0.06"},{"name":"F#3","midi":54,"time":"98.86","velocity":0.2047244094488189,"duration":"0.15"},{"name":"D5","midi":74,"time":"98.87","velocity":0.13385826771653545,"duration":"0.10"},{"name":"A4","midi":69,"time":"98.95","velocity":0.09448818897637795,"duration":"0.10"},{"name":"A5","midi":81,"time":"98.98","velocity":0.12598425196850394,"duration":"0.21"},{"name":"D5","midi":74,"time":"99.00","velocity":0.10236220472440945,"duration":"0.10"},{"name":"E7","midi":100,"time":"99.02","velocity":0.1732283464566929,"duration":"0.27"},{"name":"A4","midi":69,"time":"99.10","velocity":0.08661417322834646,"duration":"0.03"},{"name":"A4","midi":69,"time":"99.17","velocity":0.28346456692913385,"duration":"0.64"},{"name":"E4","midi":64,"time":"99.19","velocity":0.1889763779527559,"duration":"0.06"},{"name":"C#5","midi":73,"time":"99.19","velocity":0.14173228346456693,"duration":"0.03"},{"name":"A2","midi":45,"time":"99.20","velocity":0.2204724409448819,"duration":"0.03"},{"name":"A3","midi":57,"time":"99.20","velocity":0.3700787401574803,"duration":"0.13"},{"name":"C#4","midi":61,"time":"99.23","velocity":0.1968503937007874,"duration":"0.03"},{"name":"C#5","midi":73,"time":"99.24","velocity":0.2125984251968504,"duration":"0.09"},{"name":"A2","midi":45,"time":"99.28","velocity":0.2204724409448819,"duration":"0.05"},{"name":"E4","midi":64,"time":"99.28","velocity":0.25196850393700787,"duration":"0.16"},{"name":"F#5","midi":78,"time":"99.29","velocity":0.14960629921259844,"duration":"0.05"},{"name":"E5","midi":76,"time":"99.30","velocity":0.28346456692913385,"duration":"0.63"},{"name":"F#3","midi":54,"time":"99.31","velocity":0.29133858267716534,"duration":"0.03"},{"name":"E7","midi":100,"time":"99.33","velocity":0.08661417322834646,"duration":"0.03"},{"name":"A2","midi":45,"time":"99.35","velocity":0.1732283464566929,"duration":"0.07"},{"name":"A3","midi":57,"time":"99.35","velocity":0.41732283464566927,"duration":"0.27"},{"name":"A2","midi":45,"time":"99.44","velocity":0.1968503937007874,"duration":"0.34"},{"name":"F#4","midi":66,"time":"99.44","velocity":0.07086614173228346,"duration":"0.07"},{"name":"E4","midi":64,"time":"99.51","velocity":0.12598425196850394,"duration":"0.08"},{"name":"C#5","midi":73,"time":"99.53","velocity":0.2125984251968504,"duration":"0.22"},{"name":"E7","midi":100,"time":"99.60","velocity":0.11023622047244094,"duration":"0.07"},{"name":"A3","midi":57,"time":"99.63","velocity":0.4094488188976378,"duration":"0.57"},{"name":"G4","midi":67,"time":"99.64","velocity":0.14173228346456693,"duration":"0.07"},{"name":"A1","midi":33,"time":"99.70","velocity":0.10236220472440945,"duration":"0.12"},{"name":"E4","midi":64,"time":"99.93","velocity":0.11811023622047244,"duration":"0.03"},{"name":"B5","midi":83,"time":"99.93","velocity":0.30708661417322836,"duration":"1.17"},{"name":"C#5","midi":73,"time":"99.95","velocity":0.14173228346456693,"duration":"0.10"},{"name":"A1","midi":33,"time":"99.97","velocity":0.14173228346456693,"duration":"0.03"},{"name":"D6","midi":86,"time":"99.99","velocity":0.07874015748031496,"duration":"0.07"},{"name":"E5","midi":76,"time":"100.00","velocity":0.10236220472440945,"duration":"0.08"},{"name":"E7","midi":100,"time":"100.00","velocity":0.14960629921259844,"duration":"0.22"},{"name":"E4","midi":64,"time":"100.03","velocity":0.15748031496062992,"duration":"0.17"},{"name":"A2","midi":45,"time":"100.10","velocity":0.11023622047244094,"duration":"0.19"},{"name":"E5","midi":76,"time":"100.13","velocity":0.25196850393700787,"duration":"1.34"},{"name":"A3","midi":57,"time":"100.23","velocity":0.2204724409448819,"duration":"0.38"},{"name":"E7","midi":100,"time":"100.26","velocity":0.11811023622047244,"duration":"0.38"},{"name":"E4","midi":64,"time":"100.47","velocity":0.1968503937007874,"duration":"0.92"},{"name":"E3","midi":52,"time":"100.64","velocity":0.07086614173228346,"duration":"0.06"},{"name":"A3","midi":57,"time":"100.65","velocity":0.2047244094488189,"duration":"0.38"},{"name":"E3","midi":52,"time":"100.92","velocity":0.10236220472440945,"duration":"0.47"},{"name":"A3","midi":57,"time":"101.08","velocity":0.11023622047244094,"duration":"0.09"},{"name":"B5","midi":83,"time":"101.17","velocity":0.16535433070866143,"duration":"0.36"},{"name":"E4","midi":64,"time":"101.40","velocity":0.29133858267716534,"duration":"1.02"},{"name":"B4","midi":71,"time":"101.41","velocity":0.13385826771653545,"duration":"0.10"},{"name":"D6","midi":86,"time":"101.47","velocity":0.14960629921259844,"duration":"0.09"},{"name":"G#5","midi":80,"time":"101.48","velocity":0.08661417322834646,"duration":"0.05"},{"name":"E5","midi":76,"time":"101.49","velocity":0.3858267716535433,"duration":"1.22"},{"name":"B5","midi":83,"time":"101.59","velocity":0.28346456692913385,"duration":"0.86"},{"name":"G#5","midi":80,"time":"101.72","velocity":0.08661417322834646,"duration":"0.10"},{"name":"E7","midi":100,"time":"101.78","velocity":0.10236220472440945,"duration":"0.06"},{"name":"A3","midi":57,"time":"101.79","velocity":0.10236220472440945,"duration":"0.14"},{"name":"A3","midi":57,"time":"101.95","velocity":0.3700787401574803,"duration":"0.10"},{"name":"G#3","midi":56,"time":"102.06","velocity":0.3700787401574803,"duration":"0.05"},{"name":"E7","midi":100,"time":"102.08","velocity":0.09448818897637795,"duration":"0.13"},{"name":"A3","midi":57,"time":"102.10","velocity":0.3779527559055118,"duration":"0.03"},{"name":"G#3","midi":56,"time":"102.14","velocity":0.36220472440944884,"duration":"0.02"},{"name":"A4","midi":69,"time":"102.14","velocity":0.11811023622047244,"duration":"0.03"},{"name":"A3","midi":57,"time":"102.16","velocity":0.3464566929133858,"duration":"0.03"},{"name":"B4","midi":71,"time":"102.19","velocity":0.11023622047244094,"duration":"0.06"},{"name":"G#3","midi":56,"time":"102.20","velocity":0.25984251968503935,"duration":"0.02"},{"name":"A5","midi":81,"time":"102.20","velocity":0.1968503937007874,"duration":"0.21"},{"name":"A2","midi":45,"time":"102.21","velocity":0.2047244094488189,"duration":"0.03"},{"name":"A3","midi":57,"time":"102.22","velocity":0.4094488188976378,"duration":"0.20"},{"name":"A2","midi":45,"time":"102.27","velocity":0.2047244094488189,"duration":"0.08"},{"name":"G5","midi":79,"time":"102.29","velocity":0.14173228346456693,"duration":"0.06"},{"name":"A2","midi":45,"time":"102.38","velocity":0.25984251968503935,"duration":"0.43"},{"name":"G5","midi":79,"time":"102.40","velocity":0.13385826771653545,"duration":"0.05"},{"name":"C#6","midi":85,"time":"102.40","velocity":0.14173228346456693,"duration":"0.20"},{"name":"A5","midi":81,"time":"102.42","velocity":0.15748031496062992,"duration":"0.17"},{"name":"A4","midi":69,"time":"102.43","velocity":0.1968503937007874,"duration":"0.28"},{"name":"A3","midi":57,"time":"102.44","velocity":0.41732283464566927,"duration":"0.28"},{"name":"B5","midi":83,"time":"102.50","velocity":0.14173228346456693,"duration":"0.14"},{"name":"E4","midi":64,"time":"102.56","velocity":0.15748031496062992,"duration":"0.36"},{"name":"C#5","midi":73,"time":"102.56","velocity":0.11023622047244094,"duration":"0.08"},{"name":"B5","midi":83,"time":"102.70","velocity":0.25196850393700787,"duration":"1.24"},{"name":"G#3","midi":56,"time":"102.72","velocity":0.2283464566929134,"duration":"0.03"},{"name":"E5","midi":76,"time":"102.72","velocity":0.2204724409448819,"duration":"0.06"},{"name":"C#5","midi":73,"time":"102.74","velocity":0.16535433070866143,"duration":"0.10"},{"name":"A3","midi":57,"time":"102.76","velocity":0.4566929133858268,"duration":"0.31"},{"name":"A1","midi":33,"time":"102.78","velocity":0.09448818897637795,"duration":"0.03"},{"name":"E5","midi":76,"time":"102.80","velocity":0.33858267716535434,"duration":"0.36"},{"name":"A5","midi":81,"time":"102.80","velocity":0.14960629921259844,"duration":"0.10"},{"name":"A1","midi":33,"time":"102.83","velocity":0.07874015748031496,"duration":"0.05"},{"name":"A2","midi":45,"time":"102.83","velocity":0.07874015748031496,"duration":"0.09"},{"name":"A1","midi":33,"time":"102.88","velocity":0.13385826771653545,"duration":"0.07"},{"name":"B4","midi":71,"time":"102.91","velocity":0.14960629921259844,"duration":"0.14"},{"name":"A5","midi":81,"time":"102.93","velocity":0.16535433070866143,"duration":"0.10"},{"name":"E4","midi":64,"time":"102.95","velocity":0.14173228346456693,"duration":"0.14"},{"name":"A1","midi":33,"time":"103.01","velocity":0.16535433070866143,"duration":"0.03"},{"name":"A#1","midi":34,"time":"103.05","velocity":0.2047244094488189,"duration":"0.05"},{"name":"G#3","midi":56,"time":"103.07","velocity":0.28346456692913385,"duration":"0.03"},{"name":"A3","midi":57,"time":"103.10","velocity":0.3543307086614173,"duration":"0.14"},{"name":"A2","midi":45,"time":"103.12","velocity":0.07874015748031496,"duration":"0.09"},{"name":"A1","midi":33,"time":"103.13","velocity":0.07086614173228346,"duration":"0.03"},{"name":"E5","midi":76,"time":"103.19","velocity":0.1889763779527559,"duration":"0.13"},{"name":"D6","midi":86,"time":"103.19","velocity":0.09448818897637795,"duration":"0.17"},{"name":"E4","midi":64,"time":"103.24","velocity":0.25196850393700787,"duration":"0.91"},{"name":"A3","midi":57,"time":"103.27","velocity":0.25984251968503935,"duration":"0.05"},{"name":"C5","midi":72,"time":"103.30","velocity":0.25196850393700787,"duration":"0.02"},{"name":"F#5","midi":78,"time":"103.31","velocity":0.1889763779527559,"duration":"0.36"},{"name":"B4","midi":71,"time":"103.33","velocity":0.18110236220472442,"duration":"0.33"},{"name":"A#3","midi":58,"time":"103.38","velocity":0.3464566929133858,"duration":"0.02"},{"name":"B3","midi":59,"time":"103.41","velocity":0.33858267716535434,"duration":"0.02"},{"name":"B3","midi":59,"time":"103.44","velocity":0.29133858267716534,"duration":"0.02"},{"name":"A#3","midi":58,"time":"103.50","velocity":0.3543307086614173,"duration":"0.02"},{"name":"B3","midi":59,"time":"103.52","velocity":0.3464566929133858,"duration":"0.02"},{"name":"B3","midi":59,"time":"103.60","velocity":0.3779527559055118,"duration":"0.22"},{"name":"F#5","midi":78,"time":"103.74","velocity":0.07086614173228346,"duration":"0.06"},{"name":"B3","midi":59,"time":"103.84","velocity":0.16535433070866143,"duration":"0.13"},{"name":"E3","midi":52,"time":"103.87","velocity":0.07086614173228346,"duration":"0.14"},{"name":"B5","midi":83,"time":"104.03","velocity":0.1732283464566929,"duration":"0.16"},{"name":"B4","midi":71,"time":"104.06","velocity":0.11023622047244094,"duration":"0.03"},{"name":"A#3","midi":58,"time":"104.07","velocity":0.2283464566929134,"duration":"0.02"},{"name":"A4","midi":69,"time":"104.09","velocity":0.11811023622047244,"duration":"0.07"},{"name":"A#3","midi":58,"time":"104.10","velocity":0.2677165354330709,"duration":"0.02"},{"name":"B4","midi":71,"time":"104.13","velocity":0.09448818897637795,"duration":"0.08"},{"name":"A#3","midi":58,"time":"104.15","velocity":0.28346456692913385,"duration":"0.02"},{"name":"A3","midi":57,"time":"104.20","velocity":0.2440944881889764,"duration":"0.09"},{"name":"E5","midi":76,"time":"104.24","velocity":0.2125984251968504,"duration":"0.42"},{"name":"B5","midi":83,"time":"104.26","velocity":0.2125984251968504,"duration":"0.37"},{"name":"E4","midi":64,"time":"104.30","velocity":0.14173228346456693,"duration":"0.09"},{"name":"G#5","midi":80,"time":"104.41","velocity":0.2283464566929134,"duration":"0.05"},{"name":"E4","midi":64,"time":"104.42","velocity":0.1968503937007874,"duration":"0.24"},{"name":"F#5","midi":78,"time":"104.42","velocity":0.09448818897637795,"duration":"0.03"},{"name":"F#7","midi":102,"time":"104.43","velocity":0.08661417322834646,"duration":"0.03"},{"name":"B4","midi":71,"time":"104.45","velocity":0.16535433070866143,"duration":"0.09"},{"name":"C#5","midi":73,"time":"104.45","velocity":0.29133858267716534,"duration":"0.50"},{"name":"C#4","midi":61,"time":"104.47","velocity":0.4330708661417323,"duration":"0.47"},{"name":"G#5","midi":80,"time":"104.47","velocity":0.3543307086614173,"duration":"0.36"},{"name":"D6","midi":86,"time":"104.50","velocity":0.09448818897637795,"duration":"0.08"},{"name":"B4","midi":71,"time":"104.64","velocity":0.11023622047244094,"duration":"0.15"},{"name":"B5","midi":83,"time":"104.65","velocity":0.2992125984251969,"duration":"0.56"},{"name":"D6","midi":86,"time":"104.66","velocity":0.10236220472440945,"duration":"0.13"},{"name":"B4","midi":71,"time":"104.84","velocity":0.11023622047244094,"duration":"0.09"},{"name":"E5","midi":76,"time":"104.84","velocity":0.2047244094488189,"duration":"0.36"},{"name":"G#5","midi":80,"time":"104.85","velocity":0.23622047244094488,"duration":"0.29"},{"name":"E4","midi":64,"time":"104.87","velocity":0.25984251968503935,"duration":"0.36"},{"name":"E3","midi":52,"time":"104.94","velocity":0.09448818897637795,"duration":"0.05"},{"name":"C#4","midi":61,"time":"104.98","velocity":0.1968503937007874,"duration":"0.15"},{"name":"E3","midi":52,"time":"105.00","velocity":0.10236220472440945,"duration":"0.10"},{"name":"E7","midi":100,"time":"105.12","velocity":0.11811023622047244,"duration":"0.06"},{"name":"G#4","midi":68,"time":"105.16","velocity":0.30708661417322836,"duration":"0.06"},{"name":"F7","midi":101,"time":"105.16","velocity":0.12598425196850394,"duration":"0.08"},{"name":"A3","midi":57,"time":"105.20","velocity":0.2440944881889764,"duration":"0.05"},{"name":"C#4","midi":61,"time":"105.20","velocity":0.3543307086614173,"duration":"0.20"},{"name":"C3","midi":48,"time":"105.23","velocity":0.13385826771653545,"duration":"0.03"},{"name":"G5","midi":79,"time":"105.23","velocity":0.30708661417322836,"duration":"0.15"},{"name":"B5","midi":83,"time":"105.23","velocity":0.1968503937007874,"duration":"0.24"},{"name":"G#3","midi":56,"time":"105.24","velocity":0.25196850393700787,"duration":"0.09"},{"name":"G4","midi":67,"time":"105.24","velocity":0.4881889763779528,"duration":"0.07"},{"name":"C2","midi":36,"time":"105.26","velocity":0.2440944881889764,"duration":"0.06"},{"name":"C#6","midi":85,"time":"105.26","velocity":0.11023622047244094,"duration":"0.03"},{"name":"G4","midi":67,"time":"105.33","velocity":0.3937007874015748,"duration":"0.02"},{"name":"A3","midi":57,"time":"105.34","velocity":0.25196850393700787,"duration":"0.03"},{"name":"E4","midi":64,"time":"105.35","velocity":0.15748031496062992,"duration":"0.10"},{"name":"G#4","midi":68,"time":"105.35","velocity":0.3700787401574803,"duration":"0.02"},{"name":"C2","midi":36,"time":"105.36","velocity":0.18110236220472442,"duration":"0.03"},{"name":"G#3","midi":56,"time":"105.37","velocity":0.2204724409448819,"duration":"0.05"},{"name":"G4","midi":67,"time":"105.37","velocity":0.23622047244094488,"duration":"0.02"},{"name":"D3","midi":50,"time":"105.38","velocity":0.23622047244094488,"duration":"0.02"},{"name":"G#5","midi":80,"time":"105.38","velocity":0.47244094488188976,"duration":"3.55"},{"name":"G#4","midi":68,"time":"105.40","velocity":0.36220472440944884,"duration":"0.50"},{"name":"F5","midi":77,"time":"105.42","velocity":0.2125984251968504,"duration":"0.06"},{"name":"C#4","midi":61,"time":"105.43","velocity":0.2440944881889764,"duration":"0.13"},{"name":"F#5","midi":78,"time":"105.47","velocity":0.18110236220472442,"duration":"0.15"},{"name":"F5","midi":77,"time":"105.51","velocity":0.2125984251968504,"duration":"0.09"},{"name":"B5","midi":83,"time":"105.51","velocity":0.11811023622047244,"duration":"0.08"},{"name":"F7","midi":101,"time":"105.56","velocity":0.08661417322834646,"duration":"0.10"},{"name":"E4","midi":64,"time":"105.57","velocity":0.1732283464566929,"duration":"0.05"},{"name":"C#5","midi":73,"time":"105.57","velocity":0.14173228346456693,"duration":"0.03"},{"name":"A3","midi":57,"time":"105.59","velocity":0.1889763779527559,"duration":"0.03"},{"name":"C#4","midi":61,"time":"105.59","velocity":0.2755905511811024,"duration":"0.16"},{"name":"B5","midi":83,"time":"105.64","velocity":0.09448818897637795,"duration":"0.05"},{"name":"D#6","midi":87,"time":"105.65","velocity":0.07874015748031496,"duration":"0.05"},{"name":"C#3","midi":49,"time":"105.66","velocity":0.2283464566929134,"duration":"0.02"},{"name":"F4","midi":65,"time":"105.67","velocity":0.16535433070866143,"duration":"0.03"},{"name":"G5","midi":79,"time":"105.67","velocity":0.1968503937007874,"duration":"0.03"},{"name":"C3","midi":48,"time":"105.69","velocity":0.23622047244094488,"duration":"0.03"},{"name":"G#3","midi":56,"time":"105.71","velocity":0.13385826771653545,"duration":"0.10"},{"name":"C#3","midi":49,"time":"105.72","velocity":0.28346456692913385,"duration":"0.02"},{"name":"E5","midi":76,"time":"105.73","velocity":0.13385826771653545,"duration":"0.03"},{"name":"D3","midi":50,"time":"105.74","velocity":0.25196850393700787,"duration":"0.02"},{"name":"D3","midi":50,"time":"105.78","velocity":0.2440944881889764,"duration":"0.02"},{"name":"E4","midi":64,"time":"105.80","velocity":0.14173228346456693,"duration":"0.03"},{"name":"C#4","midi":61,"time":"105.83","velocity":0.3464566929133858,"duration":"0.27"},{"name":"C#3","midi":49,"time":"105.84","velocity":0.2677165354330709,"duration":"0.02"},{"name":"F#5","midi":78,"time":"105.87","velocity":0.12598425196850394,"duration":"0.03"},{"name":"F5","midi":77,"time":"105.91","velocity":0.14173228346456693,"duration":"0.03"},{"name":"G#4","midi":68,"time":"105.92","velocity":0.4645669291338583,"duration":"2.76"},{"name":"C#3","midi":49,"time":"105.93","velocity":0.28346456692913385,"duration":"0.05"},{"name":"D#6","midi":87,"time":"105.93","velocity":0.13385826771653545,"duration":"0.03"},{"name":"F7","midi":101,"time":"105.93","velocity":0.11811023622047244,"duration":"0.08"},{"name":"C#3","midi":49,"time":"105.99","velocity":0.2755905511811024,"duration":"0.20"},{"name":"C6","midi":84,"time":"105.99","velocity":0.12598425196850394,"duration":"0.08"},{"name":"G#3","midi":56,"time":"106.01","velocity":0.11811023622047244,"duration":"0.10"},{"name":"F5","midi":77,"time":"106.06","velocity":0.09448818897637795,"duration":"0.05"},{"name":"D#7","midi":99,"time":"106.13","velocity":0.08661417322834646,"duration":"0.12"},{"name":"C6","midi":84,"time":"106.15","velocity":0.10236220472440945,"duration":"0.08"},{"name":"C#3","midi":49,"time":"106.20","velocity":0.12598425196850394,"duration":"0.06"},{"name":"F#7","midi":102,"time":"106.21","velocity":0.08661417322834646,"duration":"0.10"},{"name":"C#4","midi":61,"time":"106.38","velocity":0.29133858267716534,"duration":"0.34"},{"name":"G5","midi":79,"time":"106.42","velocity":0.07086614173228346,"duration":"0.03"},{"name":"F#7","midi":102,"time":"106.51","velocity":0.08661417322834646,"duration":"0.13"},{"name":"C#3","midi":49,"time":"106.53","velocity":0.10236220472440945,"duration":"0.05"},{"name":"C#3","midi":49,"time":"106.60","velocity":0.09448818897637795,"duration":"0.09"},{"name":"F#7","midi":102,"time":"106.70","velocity":0.07086614173228346,"duration":"0.08"},{"name":"C#3","midi":49,"time":"106.71","velocity":0.07874015748031496,"duration":"0.03"},{"name":"C#4","midi":61,"time":"106.73","velocity":0.18110236220472442,"duration":"0.16"},{"name":"C#4","midi":61,"time":"106.95","velocity":0.09448818897637795,"duration":"0.05"},{"name":"C#4","midi":61,"time":"107.02","velocity":0.28346456692913385,"duration":"0.41"},{"name":"F7","midi":101,"time":"107.03","velocity":0.09448818897637795,"duration":"0.09"},{"name":"F7","midi":101,"time":"107.41","velocity":0.11023622047244094,"duration":"0.08"},{"name":"G#3","midi":56,"time":"107.50","velocity":0.07086614173228346,"duration":"0.06"},{"name":"D#7","midi":99,"time":"107.58","velocity":0.15748031496062992,"duration":"0.28"},{"name":"C#4","midi":61,"time":"107.77","velocity":0.12598425196850394,"duration":"0.09"},{"name":"D#7","midi":99,"time":"107.94","velocity":0.07874015748031496,"duration":"0.03"},{"name":"D#6","midi":87,"time":"107.97","velocity":0.07086614173228346,"duration":"0.07"},{"name":"C#4","midi":61,"time":"108.13","velocity":0.16535433070866143,"duration":"0.05"},{"name":"C#3","midi":49,"time":"108.19","velocity":0.16535433070866143,"duration":"0.03"},{"name":"A3","midi":57,"time":"108.19","velocity":0.2440944881889764,"duration":"0.05"},{"name":"F4","midi":65,"time":"108.20","velocity":0.14173228346456693,"duration":"0.05"},{"name":"C#4","midi":61,"time":"108.22","velocity":0.3464566929133858,"duration":"0.15"},{"name":"G#3","midi":56,"time":"108.23","velocity":0.1732283464566929,"duration":"0.06"},{"name":"C2","midi":36,"time":"108.24","velocity":0.2755905511811024,"duration":"0.06"},{"name":"B5","midi":83,"time":"108.24","velocity":0.14173228346456693,"duration":"0.13"},{"name":"C#3","midi":49,"time":"108.26","velocity":0.1968503937007874,"duration":"0.06"},{"name":"A3","midi":57,"time":"108.29","velocity":0.14960629921259844,"duration":"0.05"},{"name":"F#5","midi":78,"time":"108.29","velocity":0.12598425196850394,"duration":"0.03"},{"name":"F5","midi":77,"time":"108.30","velocity":0.09448818897637795,"duration":"0.03"},{"name":"C#3","midi":49,"time":"108.33","velocity":0.25984251968503935,"duration":"0.08"},{"name":"G#3","midi":56,"time":"108.34","velocity":0.16535433070866143,"duration":"0.05"},{"name":"F#5","midi":78,"time":"108.34","velocity":0.10236220472440945,"duration":"0.03"},{"name":"G5","midi":79,"time":"108.41","velocity":0.07874015748031496,"duration":"0.03"},{"name":"C#3","midi":49,"time":"108.43","velocity":0.1968503937007874,"duration":"0.03"},{"name":"G#3","midi":56,"time":"108.45","velocity":0.08661417322834646,"duration":"0.05"},{"name":"C#4","midi":61,"time":"108.49","velocity":0.18110236220472442,"duration":"0.06"},{"name":"F5","midi":77,"time":"108.51","velocity":0.25984251968503935,"duration":"0.10"},{"name":"B4","midi":71,"time":"108.53","velocity":0.11023622047244094,"duration":"0.06"},{"name":"F7","midi":101,"time":"108.56","velocity":0.14960629921259844,"duration":"0.13"},{"name":"C#2","midi":37,"time":"108.57","velocity":0.10236220472440945,"duration":"0.03"},{"name":"C#4","midi":61,"time":"108.58","velocity":0.2204724409448819,"duration":"0.05"},{"name":"C#6","midi":85,"time":"108.60","velocity":0.07086614173228346,"duration":"0.03"},{"name":"C#5","midi":73,"time":"108.63","velocity":0.2204724409448819,"duration":"0.21"},{"name":"C#4","midi":61,"time":"108.64","velocity":0.23622047244094488,"duration":"0.15"},{"name":"F4","midi":65,"time":"108.64","velocity":0.16535433070866143,"duration":"0.10"},{"name":"B5","midi":83,"time":"108.64","velocity":0.15748031496062992,"duration":"0.10"},{"name":"G#3","midi":56,"time":"108.70","velocity":0.12598425196850394,"duration":"0.08"},{"name":"G#2","midi":44,"time":"108.71","velocity":0.2125984251968504,"duration":"0.06"},{"name":"G#4","midi":68,"time":"108.73","velocity":0.3700787401574803,"duration":"0.43"},{"name":"F5","midi":77,"time":"108.76","velocity":0.13385826771653545,"duration":"0.07"},{"name":"F#5","midi":78,"time":"108.78","velocity":0.15748031496062992,"duration":"0.03"},{"name":"F#5","midi":78,"time":"108.83","velocity":0.14173228346456693,"duration":"0.05"},{"name":"C#4","midi":61,"time":"108.84","velocity":0.33858267716535434,"duration":"0.27"},{"name":"C#3","midi":49,"time":"108.85","velocity":0.2283464566929134,"duration":"0.03"},{"name":"B5","midi":83,"time":"108.87","velocity":0.07874015748031496,"duration":"0.06"},{"name":"C#3","midi":49,"time":"108.91","velocity":0.2755905511811024,"duration":"0.02"},{"name":"C#3","midi":49,"time":"108.94","velocity":0.29133858267716534,"duration":"0.05"},{"name":"C6","midi":84,"time":"108.97","velocity":0.08661417322834646,"duration":"0.03"},{"name":"G#3","midi":56,"time":"108.98","velocity":0.2047244094488189,"duration":"0.08"},{"name":"D#6","midi":87,"time":"108.99","velocity":0.12598425196850394,"duration":"0.03"},{"name":"C#3","midi":49,"time":"109.00","velocity":0.2992125984251969,"duration":"0.23"},{"name":"A#6","midi":94,"time":"109.02","velocity":0.07874015748031496,"duration":"0.05"},{"name":"C6","midi":84,"time":"109.03","velocity":0.11023622047244094,"duration":"0.06"},{"name":"D#6","midi":87,"time":"109.08","velocity":0.09448818897637795,"duration":"0.03"},{"name":"D#7","midi":99,"time":"109.09","velocity":0.2283464566929134,"duration":"0.36"},{"name":"G#4","midi":68,"time":"109.20","velocity":0.25196850393700787,"duration":"0.51"},{"name":"G#5","midi":80,"time":"109.30","velocity":0.25984251968503935,"duration":"0.08"},{"name":"G#5","midi":80,"time":"109.45","velocity":0.48031496062992124,"duration":"0.40"},{"name":"C#3","midi":49,"time":"109.47","velocity":0.14173228346456693,"duration":"0.19"},{"name":"D#7","midi":99,"time":"109.52","velocity":0.08661417322834646,"duration":"0.06"},{"name":"B5","midi":83,"time":"109.63","velocity":0.07086614173228346,"duration":"0.03"},{"name":"D#7","midi":99,"time":"109.65","velocity":0.11023622047244094,"duration":"0.09"},{"name":"F7","midi":101,"time":"109.69","velocity":0.14173228346456693,"duration":"0.13"},{"name":"C#4","midi":61,"time":"109.70","velocity":0.2992125984251969,"duration":"0.35"},{"name":"C7","midi":96,"time":"109.71","velocity":0.25984251968503935,"duration":"0.15"},{"name":"G#4","midi":68,"time":"109.72","velocity":0.33858267716535434,"duration":"0.14"},{"name":"D#6","midi":87,"time":"109.72","velocity":0.2125984251968504,"duration":"0.13"},{"name":"A5","midi":81,"time":"109.85","velocity":0.47244094488188976,"duration":"0.42"},{"name":"E6","midi":88,"time":"109.85","velocity":0.2677165354330709,"duration":"0.74"},{"name":"A4","midi":69,"time":"109.86","velocity":0.28346456692913385,"duration":"0.14"},{"name":"G7","midi":103,"time":"109.90","velocity":0.07874015748031496,"duration":"0.03"},{"name":"C#7","midi":97,"time":"109.99","velocity":0.09448818897637795,"duration":"0.06"},{"name":"A4","midi":69,"time":"110.01","velocity":0.3464566929133858,"duration":"0.26"},{"name":"G7","midi":103,"time":"110.01","velocity":0.11023622047244094,"duration":"0.22"},{"name":"G#5","midi":80,"time":"110.09","velocity":0.33070866141732286,"duration":"0.10"},{"name":"D#6","midi":87,"time":"110.14","velocity":0.08661417322834646,"duration":"0.07"},{"name":"C7","midi":96,"time":"110.14","velocity":0.09448818897637795,"duration":"0.05"},{"name":"C#4","midi":61,"time":"110.21","velocity":0.07086614173228346,"duration":"0.07"},{"name":"G#6","midi":92,"time":"110.24","velocity":0.2755905511811024,"duration":"0.35"},{"name":"G#5","midi":80,"time":"110.26","velocity":0.48031496062992124,"duration":"0.73"},{"name":"D#6","midi":87,"time":"110.26","velocity":0.25196850393700787,"duration":"0.35"},{"name":"G#4","midi":68,"time":"110.27","velocity":0.36220472440944884,"duration":"0.42"},{"name":"C7","midi":96,"time":"110.27","velocity":0.11023622047244094,"duration":"0.14"},{"name":"A5","midi":81,"time":"110.28","velocity":0.33070866141732286,"duration":"0.05"},{"name":"F#7","midi":102,"time":"110.31","velocity":0.09448818897637795,"duration":"0.12"},{"name":"A5","midi":81,"time":"110.36","velocity":0.2755905511811024,"duration":"0.02"},{"name":"A5","midi":81,"time":"110.47","velocity":0.28346456692913385,"duration":"0.02"},{"name":"C6","midi":84,"time":"110.49","velocity":0.07874015748031496,"duration":"0.03"},{"name":"A5","midi":81,"time":"110.50","velocity":0.3228346456692913,"duration":"0.12"},{"name":"G#3","midi":56,"time":"110.51","velocity":0.14173228346456693,"duration":"0.15"},{"name":"F#7","midi":102,"time":"110.52","velocity":0.11811023622047244,"duration":"0.07"},{"name":"C7","midi":96,"time":"110.59","velocity":0.13385826771653545,"duration":"0.13"},{"name":"C6","midi":84,"time":"110.63","velocity":0.07086614173228346,"duration":"0.09"},{"name":"G4","midi":67,"time":"110.67","velocity":0.23622047244094488,"duration":"0.02"},{"name":"G#4","midi":68,"time":"110.70","velocity":0.30708661417322836,"duration":"0.29"},{"name":"E4","midi":64,"time":"110.71","velocity":0.4566929133858268,"duration":"0.74"},{"name":"A5","midi":81,"time":"110.71","velocity":0.2440944881889764,"duration":"0.05"},{"name":"D#6","midi":87,"time":"110.71","velocity":0.14173228346456693,"duration":"0.19"},{"name":"F#7","midi":102,"time":"110.79","velocity":0.2125984251968504,"duration":"0.65"},{"name":"D7","midi":98,"time":"110.80","velocity":0.13385826771653545,"duration":"0.09"},{"name":"A5","midi":81,"time":"110.81","velocity":0.2755905511811024,"duration":"0.19"},{"name":"E7","midi":100,"time":"110.87","velocity":0.14173228346456693,"duration":"0.34"},{"name":"C#7","midi":97,"time":"110.90","velocity":0.12598425196850394,"duration":"0.12"},{"name":"G#5","midi":80,"time":"111.00","velocity":0.2283464566929134,"duration":"0.03"},{"name":"A5","midi":81,"time":"111.01","velocity":0.14173228346456693,"duration":"0.08"},{"name":"D7","midi":98,"time":"111.01","velocity":0.23622047244094488,"duration":"0.41"},{"name":"D#7","midi":99,"time":"111.03","velocity":0.16535433070866143,"duration":"0.09"},{"name":"G#4","midi":68,"time":"111.05","velocity":0.28346456692913385,"duration":"0.20"},{"name":"G#5","midi":80,"time":"111.07","velocity":0.3464566929133858,"duration":"0.21"},{"name":"D#7","midi":99,"time":"111.16","velocity":0.1732283464566929,"duration":"0.27"},{"name":"A5","midi":81,"time":"111.20","velocity":0.14173228346456693,"duration":"0.05"},{"name":"C#5","midi":73,"time":"111.23","velocity":0.14173228346456693,"duration":"0.03"},{"name":"E7","midi":100,"time":"111.23","velocity":0.2677165354330709,"duration":"0.35"},{"name":"F#5","midi":78,"time":"111.24","velocity":0.12598425196850394,"duration":"0.05"},{"name":"A6","midi":93,"time":"111.24","velocity":0.07874015748031496,"duration":"0.03"},{"name":"F#2","midi":42,"time":"111.26","velocity":0.29133858267716534,"duration":"0.21"},{"name":"E6","midi":88,"time":"111.26","velocity":0.10236220472440945,"duration":"0.03"},{"name":"F#3","midi":54,"time":"111.27","velocity":0.3228346456692913,"duration":"0.02"},{"name":"G#4","midi":68,"time":"111.28","velocity":0.14173228346456693,"duration":"0.03"},{"name":"A#6","midi":94,"time":"111.28","velocity":0.09448818897637795,"duration":"0.13"},{"name":"G#5","midi":80,"time":"111.29","velocity":0.29133858267716534,"duration":"0.08"},{"name":"C#5","midi":73,"time":"111.33","velocity":0.09448818897637795,"duration":"0.05"},{"name":"F#5","midi":78,"time":"111.34","velocity":0.09448818897637795,"duration":"0.06"},{"name":"A5","midi":81,"time":"111.34","velocity":0.25196850393700787,"duration":"0.07"},{"name":"F#3","midi":54,"time":"111.36","velocity":0.3700787401574803,"duration":"0.26"},{"name":"A#4","midi":70,"time":"111.37","velocity":0.09448818897637795,"duration":"0.08"},{"name":"G#5","midi":80,"time":"111.41","velocity":0.3937007874015748,"duration":"0.79"},{"name":"A5","midi":81,"time":"111.43","velocity":0.1968503937007874,"duration":"0.03"},{"name":"D#4","midi":63,"time":"111.45","velocity":0.3464566929133858,"duration":"0.02"},{"name":"F#2","midi":42,"time":"111.48","velocity":0.25196850393700787,"duration":"0.67"},{"name":"D4","midi":62,"time":"111.48","velocity":0.3700787401574803,"duration":"0.02"},{"name":"A5","midi":81,"time":"111.50","velocity":0.18110236220472442,"duration":"0.08"},{"name":"C4","midi":60,"time":"111.51","velocity":0.41732283464566927,"duration":"0.05"},{"name":"A#5","midi":82,"time":"111.51","velocity":0.11811023622047244,"duration":"0.03"},{"name":"D7","midi":98,"time":"111.55","velocity":0.08661417322834646,"duration":"0.07"},{"name":"C#4","midi":61,"time":"111.56","velocity":0.4251968503937008,"duration":"1.00"},{"name":"D#7","midi":99,"time":"111.59","velocity":0.11811023622047244,"duration":"0.12"},{"name":"A#5","midi":82,"time":"111.60","velocity":0.07086614173228346,"duration":"0.06"},{"name":"F#3","midi":54,"time":"111.63","velocity":0.36220472440944884,"duration":"0.43"},{"name":"E4","midi":64,"time":"111.63","velocity":0.2677165354330709,"duration":"0.02"},{"name":"A4","midi":69,"time":"111.64","velocity":0.13385826771653545,"duration":"0.09"},{"name":"E7","midi":100,"time":"111.69","velocity":0.2125984251968504,"duration":"0.27"},{"name":"E4","midi":64,"time":"111.73","velocity":0.30708661417322836,"duration":"0.10"},{"name":"F#5","midi":78,"time":"111.76","velocity":0.1889763779527559,"duration":"0.07"},{"name":"A#4","midi":70,"time":"111.83","velocity":0.14960629921259844,"duration":"0.05"},{"name":"D#7","midi":99,"time":"111.84","velocity":0.08661417322834646,"duration":"0.07"},{"name":"E4","midi":64,"time":"111.92","velocity":0.2755905511811024,"duration":"0.12"},{"name":"F6","midi":89,"time":"111.93","velocity":0.14960629921259844,"duration":"0.22"},{"name":"F#7","midi":102,"time":"111.93","velocity":0.14960629921259844,"duration":"0.19"},{"name":"F#5","midi":78,"time":"111.94","velocity":0.2047244094488189,"duration":"0.15"},{"name":"C7","midi":96,"time":"111.95","velocity":0.07086614173228346,"duration":"0.05"},{"name":"E7","midi":100,"time":"112.01","velocity":0.07086614173228346,"duration":"0.03"},{"name":"A#5","midi":82,"time":"112.03","velocity":0.1889763779527559,"duration":"0.16"},{"name":"F#3","midi":54,"time":"112.08","velocity":0.3858267716535433,"duration":"1.00"},{"name":"E7","midi":100,"time":"112.09","velocity":0.08661417322834646,"duration":"0.06"},{"name":"E4","midi":64,"time":"112.16","velocity":0.2992125984251969,"duration":"0.05"},{"name":"G#5","midi":80,"time":"112.22","velocity":0.2755905511811024,"duration":"0.29"},{"name":"A#6","midi":94,"time":"112.26","velocity":0.11023622047244094,"duration":"0.05"},{"name":"A#5","midi":82,"time":"112.27","velocity":0.11023622047244094,"duration":"0.07"},{"name":"C#6","midi":85,"time":"112.30","velocity":0.10236220472440945,"duration":"0.05"},{"name":"F#5","midi":78,"time":"112.35","velocity":0.12598425196850394,"duration":"0.10"},{"name":"F#2","midi":42,"time":"112.38","velocity":0.11811023622047244,"duration":"0.28"},{"name":"E5","midi":76,"time":"112.41","velocity":0.1968503937007874,"duration":"1.07"},{"name":"E4","midi":64,"time":"112.49","velocity":0.23622047244094488,"duration":"0.13"},{"name":"F#5","midi":78,"time":"112.55","velocity":0.23622047244094488,"duration":"1.83"},{"name":"G#5","midi":80,"time":"112.55","velocity":0.2440944881889764,"duration":"0.24"},{"name":"C4","midi":60,"time":"112.66","velocity":0.12598425196850394,"duration":"0.03"},{"name":"C#4","midi":61,"time":"112.70","velocity":0.2047244094488189,"duration":"0.19"},{"name":"A4","midi":69,"time":"112.74","velocity":0.09448818897637795,"duration":"0.08"},{"name":"E7","midi":100,"time":"112.77","velocity":0.10236220472440945,"duration":"0.26"},{"name":"G#5","midi":80,"time":"112.83","velocity":0.12598425196850394,"duration":"0.06"},{"name":"E4","midi":64,"time":"112.91","velocity":0.2204724409448819,"duration":"0.03"},{"name":"C#5","midi":73,"time":"112.91","velocity":0.07086614173228346,"duration":"0.05"},{"name":"G#5","midi":80,"time":"112.93","velocity":0.1968503937007874,"duration":"0.08"},{"name":"G#5","midi":80,"time":"113.06","velocity":0.07874015748031496,"duration":"0.10"},{"name":"C#4","midi":61,"time":"113.07","velocity":0.2204724409448819,"duration":"0.21"},{"name":"A3","midi":57,"time":"113.09","velocity":0.16535433070866143,"duration":"0.05"},{"name":"F#3","midi":54,"time":"113.20","velocity":0.2125984251968504,"duration":"0.16"},{"name":"E4","midi":64,"time":"113.24","velocity":0.18110236220472442,"duration":"0.14"},{"name":"G#5","midi":80,"time":"113.31","velocity":0.14173228346456693,"duration":"0.12"},{"name":"F#3","midi":54,"time":"113.37","velocity":0.2047244094488189,"duration":"0.08"},{"name":"F#7","midi":102,"time":"113.42","velocity":0.13385826771653545,"duration":"0.03"},{"name":"F#4","midi":66,"time":"113.43","velocity":0.3700787401574803,"duration":"1.14"},{"name":"F7","midi":101,"time":"113.45","velocity":0.08661417322834646,"duration":"0.03"},{"name":"C#4","midi":61,"time":"113.47","velocity":0.14960629921259844,"duration":"0.20"},{"name":"A#5","midi":82,"time":"113.53","velocity":0.08661417322834646,"duration":"0.05"},{"name":"F#3","midi":54,"time":"113.60","velocity":0.14960629921259844,"duration":"0.43"},{"name":"E7","midi":100,"time":"113.62","velocity":0.1732283464566929,"duration":"0.37"},{"name":"E6","midi":88,"time":"113.67","velocity":0.07086614173228346,"duration":"0.14"},{"name":"G#5","midi":80,"time":"113.71","velocity":0.09448818897637795,"duration":"0.06"},{"name":"A#5","midi":82,"time":"113.73","velocity":0.11023622047244094,"duration":"0.14"},{"name":"C#6","midi":85,"time":"113.74","velocity":0.07874015748031496,"duration":"0.06"},{"name":"C#4","midi":61,"time":"113.80","velocity":0.2440944881889764,"duration":"0.05"},{"name":"C#5","midi":73,"time":"113.80","velocity":0.33858267716535434,"duration":"0.14"},{"name":"G#5","midi":80,"time":"113.83","velocity":0.28346456692913385,"duration":"0.12"},{"name":"C4","midi":60,"time":"113.85","velocity":0.25196850393700787,"duration":"0.02"},{"name":"C#4","midi":61,"time":"113.87","velocity":0.3858267716535433,"duration":"0.07"},{"name":"C4","midi":60,"time":"113.94","velocity":0.36220472440944884,"duration":"0.06"},{"name":"A4","midi":69,"time":"114.19","velocity":0.25196850393700787,"duration":"0.10"},{"name":"A#5","midi":82,"time":"114.19","velocity":0.25984251968503935,"duration":"0.06"},{"name":"D4","midi":62,"time":"114.20","velocity":0.2992125984251969,"duration":"0.02"},{"name":"D5","midi":74,"time":"114.21","velocity":0.4094488188976378,"duration":"0.37"},{"name":"G#5","midi":80,"time":"114.21","velocity":0.1732283464566929,"duration":"0.08"},{"name":"F7","midi":101,"time":"114.21","velocity":0.14173228346456693,"duration":"0.03"},{"name":"A3","midi":57,"time":"114.22","velocity":0.3464566929133858,"duration":"0.12"},{"name":"D#4","midi":63,"time":"114.22","velocity":0.33070866141732286,"duration":"0.02"},{"name":"A5","midi":81,"time":"114.23","velocity":0.4094488188976378,"duration":"1.03"},{"name":"D4","midi":62,"time":"114.24","velocity":0.36220472440944884,"duration":"0.05"},{"name":"C2","midi":36,"time":"114.27","velocity":0.15748031496062992,"duration":"0.03"},{"name":"C5","midi":72,"time":"114.28","velocity":0.15748031496062992,"duration":"0.06"},{"name":"A#5","midi":82,"time":"114.28","velocity":0.16535433070866143,"duration":"0.07"},{"name":"D4","midi":62,"time":"114.30","velocity":0.3464566929133858,"duration":"0.03"},{"name":"F6","midi":89,"time":"114.33","velocity":0.2204724409448819,"duration":"0.05"},{"name":"D4","midi":62,"time":"114.35","velocity":0.2992125984251969,"duration":"0.02"},{"name":"C5","midi":72,"time":"114.35","velocity":0.1732283464566929,"duration":"0.12"},{"name":"A3","midi":57,"time":"114.37","velocity":0.3228346456692913,"duration":"0.21"},{"name":"F#6","midi":90,"time":"114.37","velocity":0.2755905511811024,"duration":"0.79"},{"name":"D4","midi":62,"time":"114.38","velocity":0.4330708661417323,"duration":"0.47"},{"name":"A#5","midi":82,"time":"114.40","velocity":0.16535433070866143,"duration":"0.05"},{"name":"D3","midi":50,"time":"114.52","velocity":0.13385826771653545,"duration":"0.06"},{"name":"A#5","midi":82,"time":"114.57","velocity":0.1732283464566929,"duration":"0.03"},{"name":"F#4","midi":66,"time":"114.58","velocity":0.33858267716535434,"duration":"0.86"},{"name":"F7","midi":101,"time":"114.58","velocity":0.12598425196850394,"duration":"0.06"},{"name":"A#5","midi":82,"time":"114.62","velocity":0.14173228346456693,"duration":"0.06"},{"name":"D3","midi":50,"time":"114.63","velocity":0.14960629921259844,"duration":"0.03"},{"name":"A3","midi":57,"time":"114.64","velocity":0.31496062992125984,"duration":"0.20"},{"name":"D3","midi":50,"time":"114.79","velocity":0.09448818897637795,"duration":"0.05"},{"name":"D4","midi":62,"time":"114.86","velocity":0.41732283464566927,"duration":"0.56"},{"name":"A3","midi":57,"time":"114.87","velocity":0.23622047244094488,"duration":"0.10"},{"name":"C5","midi":72,"time":"114.97","velocity":0.12598425196850394,"duration":"0.03"},{"name":"A3","midi":57,"time":"114.99","velocity":0.2283464566929134,"duration":"0.19"},{"name":"D3","midi":50,"time":"115.06","velocity":0.16535433070866143,"duration":"0.16"},{"name":"C#7","midi":97,"time":"115.08","velocity":0.07874015748031496,"duration":"0.03"},{"name":"E5","midi":76,"time":"115.10","velocity":0.16535433070866143,"duration":"0.22"},{"name":"F#6","midi":90,"time":"115.19","velocity":0.1968503937007874,"duration":"0.15"},{"name":"F#3","midi":54,"time":"115.21","velocity":0.1889763779527559,"duration":"0.05"},{"name":"F#3","midi":54,"time":"115.30","velocity":0.25196850393700787,"duration":"0.07"},{"name":"A5","midi":81,"time":"115.30","velocity":0.28346456692913385,"duration":"0.14"},{"name":"F#7","midi":102,"time":"115.34","velocity":0.08661417322834646,"duration":"0.03"},{"name":"A4","midi":69,"time":"115.36","velocity":0.09448818897637795,"duration":"0.06"},{"name":"D#5","midi":75,"time":"115.37","velocity":0.23622047244094488,"duration":"0.06"},{"name":"A#5","midi":82,"time":"115.37","velocity":0.33070866141732286,"duration":"0.05"},{"name":"G7","midi":103,"time":"115.37","velocity":0.11023622047244094,"duration":"0.03"},{"name":"G6","midi":91,"time":"115.38","velocity":0.14960629921259844,"duration":"0.05"},{"name":"F#3","midi":54,"time":"115.41","velocity":0.2204724409448819,"duration":"0.09"},{"name":"D5","midi":74,"time":"115.42","velocity":0.2204724409448819,"duration":"0.21"},{"name":"B5","midi":83,"time":"115.42","velocity":0.4409448818897638,"duration":"1.59"},{"name":"F#7","midi":102,"time":"115.42","velocity":0.14960629921259844,"duration":"0.69"},{"name":"E4","midi":64,"time":"115.43","velocity":0.3543307086614173,"duration":"0.05"},{"name":"F#6","midi":90,"time":"115.43","velocity":0.11023622047244094,"duration":"0.03"},{"name":"G#6","midi":92,"time":"115.44","velocity":0.2125984251968504,"duration":"0.40"},{"name":"A5","midi":81,"time":"115.45","velocity":0.2204724409448819,"duration":"0.27"},{"name":"A4","midi":69,"time":"115.48","velocity":0.07874015748031496,"duration":"0.03"},{"name":"E4","midi":64,"time":"115.49","velocity":0.4094488188976378,"duration":"0.23"},{"name":"F#3","midi":54,"time":"115.51","velocity":0.2125984251968504,"duration":"0.05"},{"name":"F#3","midi":54,"time":"115.57","velocity":0.2125984251968504,"duration":"0.03"},{"name":"D5","midi":74,"time":"115.69","velocity":0.16535433070866143,"duration":"0.10"},{"name":"F#4","midi":66,"time":"115.71","velocity":0.3543307086614173,"duration":"0.09"},{"name":"D3","midi":50,"time":"115.72","velocity":0.10236220472440945,"duration":"0.09"},{"name":"A#5","midi":82,"time":"115.72","velocity":0.15748031496062992,"duration":"0.06"},{"name":"E4","midi":64,"time":"115.73","velocity":0.3543307086614173,"duration":"0.03"},{"name":"A5","midi":81,"time":"115.76","velocity":0.1732283464566929,"duration":"0.07"},{"name":"E4","midi":64,"time":"115.78","velocity":0.4094488188976378,"duration":"0.44"},{"name":"A5","midi":81,"time":"115.87","velocity":0.11023622047244094,"duration":"0.09"},{"name":"G#6","midi":92,"time":"115.87","velocity":0.18110236220472442,"duration":"0.10"},{"name":"D5","midi":74,"time":"115.90","velocity":0.11811023622047244,"duration":"0.16"},{"name":"A#5","midi":82,"time":"116.01","velocity":0.11811023622047244,"duration":"0.06"},{"name":"G#6","midi":92,"time":"116.02","velocity":0.12598425196850394,"duration":"0.10"},{"name":"F#3","midi":54,"time":"116.07","velocity":0.2283464566929134,"duration":"0.07"},{"name":"A5","midi":81,"time":"116.14","velocity":0.14960629921259844,"duration":"0.05"},{"name":"F#3","midi":54,"time":"116.15","velocity":0.29133858267716534,"duration":"0.33"},{"name":"A#5","midi":82,"time":"116.19","velocity":0.18110236220472442,"duration":"0.26"},{"name":"D4","midi":62,"time":"116.21","velocity":0.2125984251968504,"duration":"0.08"},{"name":"D4","midi":62,"time":"116.30","velocity":0.2204724409448819,"duration":"0.05"},{"name":"E5","midi":76,"time":"116.30","velocity":0.13385826771653545,"duration":"0.21"},{"name":"E4","midi":64,"time":"116.41","velocity":0.2283464566929134,"duration":"0.02"},{"name":"E4","midi":64,"time":"116.44","velocity":0.28346456692913385,"duration":"0.12"},{"name":"A5","midi":81,"time":"116.44","velocity":0.12598425196850394,"duration":"0.06"},{"name":"A3","midi":57,"time":"116.48","velocity":0.2755905511811024,"duration":"0.05"},{"name":"A#5","midi":82,"time":"116.50","velocity":0.11023622047244094,"duration":"0.05"},{"name":"E6","midi":88,"time":"116.52","velocity":0.15748031496062992,"duration":"0.22"},{"name":"A3","midi":57,"time":"116.53","velocity":0.25984251968503935,"duration":"0.19"},{"name":"D4","midi":62,"time":"116.55","velocity":0.16535433070866143,"duration":"0.08"},{"name":"E4","midi":64,"time":"116.63","velocity":0.16535433070866143,"duration":"0.03"},{"name":"E5","midi":76,"time":"116.65","velocity":0.2047244094488189,"duration":"0.14"},{"name":"E4","midi":64,"time":"116.67","velocity":0.2283464566929134,"duration":"0.16"},{"name":"F#3","midi":54,"time":"116.70","velocity":0.2283464566929134,"duration":"0.02"},{"name":"A#5","midi":82,"time":"116.72","velocity":0.08661417322834646,"duration":"0.09"},{"name":"D5","midi":74,"time":"116.73","velocity":0.10236220472440945,"duration":"0.09"},{"name":"F#3","midi":54,"time":"116.74","velocity":0.28346456692913385,"duration":"0.02"},{"name":"E7","midi":100,"time":"116.78","velocity":0.07874015748031496,"duration":"0.06"},{"name":"A3","midi":57,"time":"116.79","velocity":0.30708661417322836,"duration":"0.10"},{"name":"F#4","midi":66,"time":"116.83","velocity":0.28346456692913385,"duration":"0.34"},{"name":"A#5","midi":82,"time":"116.86","velocity":0.14960629921259844,"duration":"0.34"},{"name":"F#3","midi":54,"time":"116.92","velocity":0.33858267716535434,"duration":"0.05"},{"name":"A4","midi":69,"time":"116.97","velocity":0.16535433070866143,"duration":"0.10"},{"name":"F#3","midi":54,"time":"116.98","velocity":0.33070866141732286,"duration":"0.03"},{"name":"F#3","midi":54,"time":"117.05","velocity":0.33070866141732286,"duration":"0.07"},{"name":"D4","midi":62,"time":"117.07","velocity":0.2047244094488189,"duration":"0.05"},{"name":"B5","midi":83,"time":"117.09","velocity":0.16535433070866143,"duration":"0.30"},{"name":"D5","midi":74,"time":"117.12","velocity":0.13385826771653545,"duration":"0.13"},{"name":"F#3","midi":54,"time":"117.13","velocity":0.33858267716535434,"duration":"0.07"},{"name":"A4","midi":69,"time":"117.17","velocity":0.29133858267716534,"duration":"0.10"},{"name":"D4","midi":62,"time":"117.19","velocity":0.31496062992125984,"duration":"0.06"},{"name":"F#5","midi":78,"time":"117.20","velocity":0.11811023622047244,"duration":"0.06"},{"name":"A3","midi":57,"time":"117.21","velocity":0.4015748031496063,"duration":"0.13"},{"name":"F#4","midi":66,"time":"117.23","velocity":0.2125984251968504,"duration":"0.07"},{"name":"E5","midi":76,"time":"117.23","velocity":0.09448818897637795,"duration":"0.05"},{"name":"C#2","midi":37,"time":"117.26","velocity":0.14960629921259844,"duration":"0.06"},{"name":"D4","midi":62,"time":"117.26","velocity":0.2677165354330709,"duration":"0.42"},{"name":"A#5","midi":82,"time":"117.26","velocity":0.12598425196850394,"duration":"0.07"},{"name":"D5","midi":74,"time":"117.27","velocity":0.3700787401574803,"duration":"0.19"},{"name":"F#4","midi":66,"time":"117.33","velocity":0.14173228346456693,"duration":"0.13"},{"name":"C5","midi":72,"time":"117.33","velocity":0.09448818897637795,"duration":"0.13"},{"name":"A#5","midi":82,"time":"117.34","velocity":0.11023622047244094,"duration":"0.12"},{"name":"F#3","midi":54,"time":"117.35","velocity":0.29133858267716534,"duration":"0.09"},{"name":"A3","midi":57,"time":"117.43","velocity":0.31496062992125984,"duration":"0.14"},{"name":"G#4","midi":68,"time":"117.44","velocity":0.12598425196850394,"duration":"0.03"},{"name":"F#5","midi":78,"time":"117.47","velocity":0.15748031496062992,"duration":"0.09"},{"name":"F#4","midi":66,"time":"117.49","velocity":0.1732283464566929,"duration":"0.08"},{"name":"B5","midi":83,"time":"117.51","velocity":0.16535433070866143,"duration":"0.16"},{"name":"E5","midi":76,"time":"117.52","velocity":0.11811023622047244,"duration":"0.08"},{"name":"A#5","midi":82,"time":"117.53","velocity":0.11023622047244094,"duration":"0.05"},{"name":"C5","midi":72,"time":"117.56","velocity":0.1732283464566929,"duration":"0.08"},{"name":"D5","midi":74,"time":"117.56","velocity":0.3464566929133858,"duration":"1.01"},{"name":"F3","midi":53,"time":"117.57","velocity":0.25196850393700787,"duration":"0.02"},{"name":"F#4","midi":66,"time":"117.59","velocity":0.3700787401574803,"duration":"0.56"},{"name":"F7","midi":101,"time":"117.59","velocity":0.11811023622047244,"duration":"0.09"},{"name":"C7","midi":96,"time":"117.60","velocity":0.11811023622047244,"duration":"0.10"},{"name":"A3","midi":57,"time":"117.62","velocity":0.2992125984251969,"duration":"0.58"},{"name":"C5","midi":72,"time":"117.70","velocity":0.11023622047244094,"duration":"0.05"},{"name":"A#5","midi":82,"time":"117.70","velocity":0.08661417322834646,"duration":"0.05"},{"name":"B5","midi":83,"time":"117.70","velocity":0.08661417322834646,"duration":"0.08"},{"name":"D4","midi":62,"time":"117.73","velocity":0.09448818897637795,"duration":"0.03"},{"name":"G#5","midi":80,"time":"117.73","velocity":0.08661417322834646,"duration":"0.03"},{"name":"D4","midi":62,"time":"117.79","velocity":0.16535433070866143,"duration":"0.05"},{"name":"A#5","midi":82,"time":"117.79","velocity":0.11811023622047244,"duration":"0.06"},{"name":"C5","midi":72,"time":"117.81","velocity":0.14173228346456693,"duration":"0.12"},{"name":"A#5","midi":82,"time":"117.87","velocity":0.10236220472440945,"duration":"0.09"},{"name":"B5","midi":83,"time":"117.88","velocity":0.09448818897637795,"duration":"0.03"},{"name":"D3","midi":50,"time":"117.98","velocity":0.2125984251968504,"duration":"0.23"},{"name":"E7","midi":100,"time":"118.02","velocity":0.07086614173228346,"duration":"0.07"},{"name":"D4","midi":62,"time":"118.07","velocity":0.28346456692913385,"duration":"0.33"},{"name":"E5","midi":76,"time":"118.15","velocity":0.11023622047244094,"duration":"0.14"},{"name":"F#4","midi":66,"time":"118.20","velocity":0.07086614173228346,"duration":"0.05"},{"name":"A3","midi":57,"time":"118.21","velocity":0.1968503937007874,"duration":"0.15"},{"name":"F#4","midi":66,"time":"118.38","velocity":0.25196850393700787,"duration":"0.33"},{"name":"A#5","midi":82,"time":"118.44","velocity":0.10236220472440945,"duration":"0.07"},{"name":"A5","midi":81,"time":"118.51","velocity":0.10236220472440945,"duration":"0.26"},{"name":"A3","midi":57,"time":"118.57","velocity":0.1732283464566929,"duration":"0.10"},{"name":"D3","midi":50,"time":"118.58","velocity":0.10236220472440945,"duration":"0.10"},{"name":"E7","midi":100,"time":"118.59","velocity":0.15748031496062992,"duration":"0.14"},{"name":"D5","midi":74,"time":"118.64","velocity":0.12598425196850394,"duration":"0.08"},{"name":"D4","midi":62,"time":"118.67","velocity":0.1889763779527559,"duration":"0.10"},{"name":"F#4","midi":66,"time":"118.72","velocity":0.28346456692913385,"duration":"0.38"},{"name":"A#5","midi":82,"time":"118.74","velocity":0.1889763779527559,"duration":"0.36"},{"name":"F#3","midi":54,"time":"118.76","velocity":0.15748031496062992,"duration":"0.03"},{"name":"F#3","midi":54,"time":"118.84","velocity":0.1732283464566929,"duration":"0.05"},{"name":"A4","midi":69,"time":"118.85","velocity":0.07086614173228346,"duration":"0.05"},{"name":"F#3","midi":54,"time":"118.92","velocity":0.14173228346456693,"duration":"0.03"},{"name":"D3","midi":50,"time":"118.94","velocity":0.12598425196850394,"duration":"0.03"},{"name":"F#3","midi":54,"time":"119.00","velocity":0.15748031496062992,"duration":"0.03"},{"name":"F3","midi":53,"time":"119.05","velocity":0.16535433070866143,"duration":"0.03"},{"name":"D4","midi":62,"time":"119.06","velocity":0.14173228346456693,"duration":"0.03"},{"name":"F#3","midi":54,"time":"119.12","velocity":0.1732283464566929,"duration":"0.09"},{"name":"F#4","midi":66,"time":"119.12","velocity":0.2440944881889764,"duration":"1.09"},{"name":"F#3","midi":54,"time":"119.22","velocity":0.14173228346456693,"duration":"0.05"},{"name":"A#5","midi":82,"time":"119.26","velocity":0.10236220472440945,"duration":"0.20"},{"name":"F#3","midi":54,"time":"119.28","velocity":0.13385826771653545,"duration":"0.05"},{"name":"F#3","midi":54,"time":"119.36","velocity":0.14173228346456693,"duration":"0.03"},{"name":"A4","midi":69,"time":"119.38","velocity":0.07086614173228346,"duration":"0.07"},{"name":"D4","midi":62,"time":"119.44","velocity":0.11023622047244094,"duration":"0.05"},{"name":"A5","midi":81,"time":"119.50","velocity":0.12598425196850394,"duration":"0.21"},{"name":"E6","midi":88,"time":"119.56","velocity":0.12598425196850394,"duration":"0.38"},{"name":"E5","midi":76,"time":"119.65","velocity":0.08661417322834646,"duration":"0.10"},{"name":"A4","midi":69,"time":"119.73","velocity":0.09448818897637795,"duration":"0.23"},{"name":"D3","midi":50,"time":"119.74","velocity":0.10236220472440945,"duration":"0.14"},{"name":"A3","midi":57,"time":"119.78","velocity":0.07086614173228346,"duration":"0.03"},{"name":"A5","midi":81,"time":"119.86","velocity":0.13385826771653545,"duration":"0.30"},{"name":"D3","midi":50,"time":"120.05","velocity":0.10236220472440945,"duration":"0.17"},{"name":"D5","midi":74,"time":"120.10","velocity":0.11023622047244094,"duration":"0.12"},{"name":"E5","midi":76,"time":"120.19","velocity":0.12598425196850394,"duration":"0.05"},{"name":"C#4","midi":61,"time":"120.20","velocity":0.2677165354330709,"duration":"0.34"},{"name":"E6","midi":88,"time":"120.20","velocity":0.2204724409448819,"duration":"0.13"},{"name":"A6","midi":93,"time":"120.20","velocity":0.23622047244094488,"duration":"0.15"},{"name":"C#7","midi":97,"time":"120.20","velocity":0.07874015748031496,"duration":"0.09"},{"name":"A3","midi":57,"time":"120.21","velocity":0.28346456692913385,"duration":"1.10"},{"name":"A5","midi":81,"time":"120.21","velocity":0.2992125984251969,"duration":"0.57"},{"name":"E5","midi":76,"time":"120.28","velocity":0.18110236220472442,"duration":"0.23"},{"name":"C#7","midi":97,"time":"120.33","velocity":0.15748031496062992,"duration":"0.16"},{"name":"E5","midi":76,"time":"120.55","velocity":0.14960629921259844,"duration":"0.05"},{"name":"C#4","midi":61,"time":"120.56","velocity":0.25984251968503935,"duration":"0.77"},{"name":"C#7","midi":97,"time":"120.56","velocity":0.07086614173228346,"duration":"0.03"},{"name":"E6","midi":88,"time":"120.64","velocity":0.13385826771653545,"duration":"0.05"},{"name":"C#7","midi":97,"time":"120.65","velocity":0.16535433070866143,"duration":"0.19"},{"name":"C#6","midi":85,"time":"120.77","velocity":0.15748031496062992,"duration":"0.07"},{"name":"E5","midi":76,"time":"120.78","velocity":0.14960629921259844,"duration":"0.26"},{"name":"A5","midi":81,"time":"120.80","velocity":0.2992125984251969,"duration":"0.47"},{"name":"C#6","midi":85,"time":"120.88","velocity":0.09448818897637795,"duration":"0.06"},{"name":"G#4","midi":68,"time":"120.94","velocity":0.2992125984251969,"duration":"0.02"},{"name":"E6","midi":88,"time":"120.94","velocity":0.18110236220472442,"duration":"0.09"},{"name":"A4","midi":69,"time":"120.97","velocity":0.33070866141732286,"duration":"1.13"},{"name":"E5","midi":76,"time":"121.07","velocity":0.07086614173228346,"duration":"0.07"},{"name":"E5","midi":76,"time":"121.19","velocity":0.13385826771653545,"duration":"0.17"},{"name":"E6","midi":88,"time":"121.31","velocity":0.2125984251968504,"duration":"0.10"},{"name":"A3","midi":57,"time":"121.34","velocity":0.2755905511811024,"duration":"0.36"},{"name":"C#4","midi":61,"time":"121.34","velocity":0.25196850393700787,"duration":"0.36"},{"name":"C#7","midi":97,"time":"121.41","velocity":0.1732283464566929,"duration":"0.27"},{"name":"E6","midi":88,"time":"121.45","velocity":0.11023622047244094,"duration":"0.05"},{"name":"E5","midi":76,"time":"121.47","velocity":0.14173228346456693,"duration":"0.38"},{"name":"A6","midi":93,"time":"121.63","velocity":0.2047244094488189,"duration":"0.17"},{"name":"C#6","midi":85,"time":"121.66","velocity":0.12598425196850394,"duration":"0.03"},{"name":"E6","midi":88,"time":"121.69","velocity":0.16535433070866143,"duration":"0.10"},{"name":"A#3","midi":58,"time":"121.70","velocity":0.23622047244094488,"duration":"0.02"},{"name":"A3","midi":57,"time":"121.72","velocity":0.2755905511811024,"duration":"0.35"},{"name":"C#6","midi":85,"time":"121.72","velocity":0.11811023622047244,"duration":"0.03"},{"name":"C#4","midi":61,"time":"121.73","velocity":0.25196850393700787,"duration":"0.31"},{"name":"C#7","midi":97,"time":"121.81","velocity":0.16535433070866143,"duration":"0.10"},{"name":"E5","midi":76,"time":"121.95","velocity":0.12598425196850394,"duration":"0.05"},{"name":"E5","midi":76,"time":"122.05","velocity":0.13385826771653545,"duration":"0.03"},{"name":"C#4","midi":61,"time":"122.07","velocity":0.2755905511811024,"duration":"0.76"},{"name":"E6","midi":88,"time":"122.08","velocity":0.11811023622047244,"duration":"0.06"},{"name":"A3","midi":57,"time":"122.09","velocity":0.25984251968503935,"duration":"0.73"},{"name":"C#7","midi":97,"time":"122.12","velocity":0.15748031496062992,"duration":"0.05"},{"name":"C#7","midi":97,"time":"122.21","velocity":0.07874015748031496,"duration":"0.03"},{"name":"A5","midi":81,"time":"122.26","velocity":0.25196850393700787,"duration":"0.23"},{"name":"E6","midi":88,"time":"122.26","velocity":0.08661417322834646,"duration":"0.03"},{"name":"A4","midi":69,"time":"122.40","velocity":0.3700787401574803,"duration":"0.81"},{"name":"E5","midi":76,"time":"122.48","velocity":0.11023622047244094,"duration":"0.03"},{"name":"E5","midi":76,"time":"122.65","velocity":0.08661417322834646,"duration":"0.03"},{"name":"E5","midi":76,"time":"122.78","velocity":0.15748031496062992,"duration":"0.08"},{"name":"G#5","midi":80,"time":"122.81","velocity":0.07874015748031496,"duration":"0.05"},{"name":"C#4","midi":61,"time":"122.84","velocity":0.2440944881889764,"duration":"0.38"},{"name":"C#7","midi":97,"time":"122.84","velocity":0.16535433070866143,"duration":"0.28"},{"name":"A3","midi":57,"time":"122.85","velocity":0.2755905511811024,"duration":"0.37"},{"name":"E6","midi":88,"time":"122.98","velocity":0.07086614173228346,"duration":"0.03"},{"name":"C#6","midi":85,"time":"123.03","velocity":0.29133858267716534,"duration":"0.16"},{"name":"E5","midi":76,"time":"123.05","velocity":0.1968503937007874,"duration":"0.31"},{"name":"F#5","midi":78,"time":"123.16","velocity":0.3937007874015748,"duration":"0.05"},{"name":"G#5","midi":80,"time":"123.16","velocity":0.2440944881889764,"duration":"0.03"},{"name":"A#6","midi":94,"time":"123.16","velocity":0.30708661417322836,"duration":"0.05"},{"name":"F#7","midi":102,"time":"123.16","velocity":0.2125984251968504,"duration":"0.03"},{"name":"G4","midi":67,"time":"123.20","velocity":0.2755905511811024,"duration":"0.06"},{"name":"D6","midi":86,"time":"123.20","velocity":0.33070866141732286,"duration":"0.07"},{"name":"G6","midi":91,"time":"123.20","velocity":0.25196850393700787,"duration":"0.07"},{"name":"G5","midi":79,"time":"123.21","velocity":0.3228346456692913,"duration":"0.06"},{"name":"B6","midi":95,"time":"123.21","velocity":0.33070866141732286,"duration":"0.07"},{"name":"A3","midi":57,"time":"123.23","velocity":0.2755905511811024,"duration":"1.09"},{"name":"C#4","midi":61,"time":"123.24","velocity":0.25196850393700787,"duration":"0.31"},{"name":"F7","midi":101,"time":"123.24","velocity":0.14173228346456693,"duration":"0.06"},{"name":"G#5","midi":80,"time":"123.27","velocity":0.48031496062992124,"duration":"0.76"},{"name":"D#6","midi":87,"time":"123.27","velocity":0.4251968503937008,"duration":"0.80"},{"name":"G#4","midi":68,"time":"123.28","velocity":0.29133858267716534,"duration":"0.19"},{"name":"C7","midi":96,"time":"123.28","velocity":0.3464566929133858,"duration":"0.77"},{"name":"C#7","midi":97,"time":"123.30","velocity":0.11811023622047244,"duration":"0.13"},{"name":"F#7","midi":102,"time":"123.34","velocity":0.2283464566929134,"duration":"0.69"},{"name":"E6","midi":88,"time":"123.36","velocity":0.08661417322834646,"duration":"0.03"},{"name":"B5","midi":83,"time":"123.38","velocity":0.07086614173228346,"duration":"0.03"},{"name":"E5","midi":76,"time":"123.42","velocity":0.2047244094488189,"duration":"0.21"},{"name":"A4","midi":69,"time":"123.50","velocity":0.2755905511811024,"duration":"0.09"},{"name":"C#4","midi":61,"time":"123.58","velocity":0.2677165354330709,"duration":"0.72"},{"name":"A6","midi":93,"time":"123.58","velocity":0.16535433070866143,"duration":"0.07"},{"name":"B6","midi":95,"time":"123.58","velocity":0.08661417322834646,"duration":"0.07"},{"name":"G#4","midi":68,"time":"123.59","velocity":0.2440944881889764,"duration":"0.17"},{"name":"C#7","midi":97,"time":"123.59","velocity":0.11811023622047244,"duration":"0.09"},{"name":"A6","midi":93,"time":"123.74","velocity":0.10236220472440945,"duration":"0.03"},{"name":"E5","midi":76,"time":"123.80","velocity":0.07086614173228346,"duration":"0.13"},{"name":"A4","midi":69,"time":"123.81","velocity":0.29133858267716534,"duration":"0.03"},{"name":"A4","midi":69,"time":"123.86","velocity":0.2755905511811024,"duration":"0.02"},{"name":"G#4","midi":68,"time":"123.87","velocity":0.33858267716535434,"duration":"0.08"},{"name":"A5","midi":81,"time":"123.90","velocity":0.11811023622047244,"duration":"0.03"},{"name":"A6","midi":93,"time":"123.94","velocity":0.2125984251968504,"duration":"0.14"},{"name":"A4","midi":69,"time":"123.95","velocity":0.3858267716535433,"duration":"2.31"},{"name":"E5","midi":76,"time":"123.95","velocity":0.1732283464566929,"duration":"0.24"},{"name":"C7","midi":96,"time":"124.10","velocity":0.08661417322834646,"duration":"0.03"},{"name":"D#6","midi":87,"time":"124.14","velocity":0.09448818897637795,"duration":"0.06"},{"name":"G#5","midi":80,"time":"124.15","velocity":0.2755905511811024,"duration":"0.23"},{"name":"D#6","midi":87,"time":"124.24","velocity":0.10236220472440945,"duration":"0.07"},{"name":"E5","midi":76,"time":"124.26","velocity":0.16535433070866143,"duration":"0.05"},{"name":"E4","midi":64,"time":"124.29","velocity":0.2755905511811024,"duration":"0.56"},{"name":"B5","midi":83,"time":"124.29","velocity":0.49606299212598426,"duration":"1.27"},{"name":"E6","midi":88,"time":"124.31","velocity":0.29133858267716534,"duration":"0.53"},{"name":"E5","midi":76,"time":"124.33","velocity":0.3700787401574803,"duration":"0.83"},{"name":"A6","midi":93,"time":"124.33","velocity":0.2440944881889764,"duration":"0.10"},{"name":"C#4","midi":61,"time":"124.34","velocity":0.2677165354330709,"duration":"0.38"},{"name":"A3","midi":57,"time":"124.35","velocity":0.2677165354330709,"duration":"0.35"},{"name":"F#7","midi":102,"time":"124.38","velocity":0.12598425196850394,"duration":"0.34"},{"name":"C#6","midi":85,"time":"124.49","velocity":0.09448818897637795,"duration":"0.03"},{"name":"G#5","midi":80,"time":"124.60","velocity":0.2283464566929134,"duration":"0.12"},{"name":"A3","midi":57,"time":"124.72","velocity":0.2755905511811024,"duration":"0.36"},{"name":"D7","midi":98,"time":"124.73","velocity":0.11023622047244094,"duration":"0.12"},{"name":"C#4","midi":61,"time":"124.76","velocity":0.25196850393700787,"duration":"0.35"},{"name":"C#7","midi":97,"time":"124.86","velocity":0.10236220472440945,"duration":"0.05"},{"name":"G#6","midi":92,"time":"124.88","velocity":0.10236220472440945,"duration":"0.07"},{"name":"G#5","midi":80,"time":"124.93","velocity":0.15748031496062992,"duration":"0.09"},{"name":"G#5","midi":80,"time":"125.03","velocity":0.13385826771653545,"duration":"0.07"},{"name":"C4","midi":60,"time":"125.10","velocity":0.30708661417322836,"duration":"0.03"},{"name":"C#5","midi":73,"time":"125.10","velocity":0.08661417322834646,"duration":"0.03"},{"name":"A3","midi":57,"time":"125.14","velocity":0.25196850393700787,"duration":"0.05"},{"name":"C#4","midi":61,"time":"125.14","velocity":0.48031496062992124,"duration":"0.38"},{"name":"C#7","midi":97,"time":"125.19","velocity":0.11811023622047244,"duration":"0.10"},{"name":"A3","midi":57,"time":"125.22","velocity":0.25984251968503935,"duration":"0.02"},{"name":"A3","midi":57,"time":"125.28","velocity":0.28346456692913385,"duration":"0.16"},{"name":"E5","midi":76,"time":"125.28","velocity":0.11023622047244094,"duration":"0.15"},{"name":"C#7","midi":97,"time":"125.37","velocity":0.12598425196850394,"duration":"0.06"},{"name":"G#5","midi":80,"time":"125.43","velocity":0.1968503937007874,"duration":"0.08"},{"name":"A3","midi":57,"time":"125.45","velocity":0.2755905511811024,"duration":"0.37"},{"name":"A6","midi":93,"time":"125.45","velocity":0.09448818897637795,"duration":"0.03"},{"name":"E5","midi":76,"time":"125.47","velocity":0.14960629921259844,"duration":"0.07"},{"name":"D5","midi":74,"time":"125.48","velocity":0.14960629921259844,"duration":"0.06"},{"name":"D4","midi":62,"time":"125.52","velocity":0.3779527559055118,"duration":"0.02"},{"name":"D#5","midi":75,"time":"125.53","velocity":0.2125984251968504,"duration":"0.05"},{"name":"A#5","midi":82,"time":"125.53","velocity":0.3228346456692913,"duration":"0.03"},{"name":"D#4","midi":63,"time":"125.55","velocity":0.3543307086614173,"duration":"0.02"},{"name":"C#4","midi":61,"time":"125.56","velocity":0.3464566929133858,"duration":"0.24"},{"name":"E4","midi":64,"time":"125.57","velocity":0.4251968503937008,"duration":"0.37"},{"name":"B5","midi":83,"time":"125.57","velocity":0.4094488188976378,"duration":"0.45"},{"name":"F#7","midi":102,"time":"125.58","velocity":0.11023622047244094,"duration":"0.28"},{"name":"G#6","midi":92,"time":"125.65","velocity":0.11811023622047244,"duration":"0.14"},{"name":"C#4","midi":61,"time":"125.81","velocity":0.31496062992125984,"duration":"0.02"},{"name":"A3","midi":57,"time":"125.85","velocity":0.25196850393700787,"duration":"0.14"},{"name":"C#4","midi":61,"time":"125.85","velocity":0.31496062992125984,"duration":"0.05"},{"name":"C#4","midi":61,"time":"125.93","velocity":0.28346456692913385,"duration":"0.05"},{"name":"E4","midi":64,"time":"125.97","velocity":0.15748031496062992,"duration":"0.07"},{"name":"G#3","midi":56,"time":"125.99","velocity":0.2047244094488189,"duration":"0.03"},{"name":"C4","midi":60,"time":"125.99","velocity":0.2047244094488189,"duration":"0.06"},{"name":"C#5","midi":73,"time":"126.02","velocity":0.11811023622047244,"duration":"0.05"},{"name":"B5","midi":83,"time":"126.05","velocity":0.2440944881889764,"duration":"0.21"},{"name":"C#4","midi":61,"time":"126.08","velocity":0.2125984251968504,"duration":"0.05"},{"name":"A#3","midi":58,"time":"126.12","velocity":0.18110236220472442,"duration":"0.08"},{"name":"C#4","midi":61,"time":"126.16","velocity":0.23622047244094488,"duration":"0.05"},{"name":"D4","midi":62,"time":"126.21","velocity":0.30708661417322836,"duration":"0.02"},{"name":"G#5","midi":80,"time":"126.21","velocity":0.25196850393700787,"duration":"0.03"},{"name":"E4","midi":64,"time":"126.22","velocity":0.2440944881889764,"duration":"0.06"},{"name":"C#5","midi":73,"time":"126.22","velocity":0.2125984251968504,"duration":"0.37"},{"name":"C#4","midi":61,"time":"126.23","velocity":0.41732283464566927,"duration":"0.53"},{"name":"E6","midi":88,"time":"126.23","velocity":0.14960629921259844,"duration":"0.12"},{"name":"G#5","midi":80,"time":"126.26","velocity":0.3937007874015748,"duration":"1.01"},{"name":"G#4","midi":68,"time":"126.27","velocity":0.2677165354330709,"duration":"0.13"},{"name":"B5","midi":83,"time":"126.29","velocity":0.14173228346456693,"duration":"0.05"},{"name":"E3","midi":52,"time":"126.33","velocity":0.07086614173228346,"duration":"0.10"},{"name":"E4","midi":64,"time":"126.35","velocity":0.07874015748031496,"duration":"0.03"},{"name":"B5","midi":83,"time":"126.35","velocity":0.2440944881889764,"duration":"0.12"},{"name":"D6","midi":86,"time":"126.37","velocity":0.09448818897637795,"duration":"0.07"},{"name":"A4","midi":69,"time":"126.40","velocity":0.2047244094488189,"duration":"0.12"},{"name":"E5","midi":76,"time":"126.40","velocity":0.14173228346456693,"duration":"0.20"},{"name":"B5","midi":83,"time":"126.49","velocity":0.16535433070866143,"duration":"0.07"},{"name":"G#4","midi":68,"time":"126.50","velocity":0.2677165354330709,"duration":"0.13"},{"name":"C#6","midi":85,"time":"126.59","velocity":0.11023622047244094,"duration":"0.03"},{"name":"E6","midi":88,"time":"126.59","velocity":0.12598425196850394,"duration":"0.03"},{"name":"E4","midi":64,"time":"126.60","velocity":0.33070866141732286,"duration":"0.08"},{"name":"G#3","midi":56,"time":"126.63","velocity":0.11023622047244094,"duration":"0.06"},{"name":"G#4","midi":68,"time":"126.67","velocity":0.2204724409448819,"duration":"0.67"},{"name":"E5","midi":76,"time":"126.69","velocity":0.07874015748031496,"duration":"0.05"},{"name":"C#6","midi":85,"time":"126.69","velocity":0.10236220472440945,"duration":"0.15"},{"name":"B5","midi":83,"time":"126.73","velocity":0.09448818897637795,"duration":"0.05"},{"name":"E4","midi":64,"time":"126.76","velocity":0.2440944881889764,"duration":"0.10"},{"name":"C#4","midi":61,"time":"126.79","velocity":0.2440944881889764,"duration":"0.14"},{"name":"D#6","midi":87,"time":"126.80","velocity":0.09448818897637795,"duration":"0.05"},{"name":"B5","midi":83,"time":"126.81","velocity":0.09448818897637795,"duration":"0.05"},{"name":"E4","midi":64,"time":"126.90","velocity":0.10236220472440945,"duration":"0.03"},{"name":"E5","midi":76,"time":"126.90","velocity":0.25984251968503935,"duration":"0.38"},{"name":"E3","midi":52,"time":"126.93","velocity":0.10236220472440945,"duration":"0.42"},{"name":"F4","midi":65,"time":"126.93","velocity":0.25984251968503935,"duration":"0.02"},{"name":"E4","midi":64,"time":"126.95","velocity":0.44881889763779526,"duration":"5.60"},{"name":"G#5","midi":80,"time":"127.31","velocity":0.3228346456692913,"duration":"1.48"},{"name":"G#3","midi":56,"time":"127.35","velocity":0.14173228346456693,"duration":"0.06"},{"name":"C#6","midi":85,"time":"127.35","velocity":0.07874015748031496,"duration":"0.06"},{"name":"G#4","midi":68,"time":"127.40","velocity":0.2677165354330709,"duration":"0.33"},{"name":"C#5","midi":73,"time":"127.42","velocity":0.12598425196850394,"duration":"0.06"},{"name":"D#6","midi":87,"time":"127.43","velocity":0.07874015748031496,"duration":"0.06"},{"name":"C#6","midi":85,"time":"127.51","velocity":0.08661417322834646,"duration":"0.07"},{"name":"G#3","midi":56,"time":"127.71","velocity":0.11023622047244094,"duration":"0.07"},{"name":"G#4","midi":68,"time":"127.76","velocity":0.2440944881889764,"duration":"1.10"},{"name":"E3","midi":52,"time":"127.90","velocity":0.11811023622047244,"duration":"0.16"},{"name":"B5","midi":83,"time":"127.93","velocity":0.11811023622047244,"duration":"0.05"},{"name":"G#3","midi":56,"time":"128.07","velocity":0.11023622047244094,"duration":"0.12"},{"name":"C#6","midi":85,"time":"128.10","velocity":0.09448818897637795,"duration":"0.05"},{"name":"D6","midi":86,"time":"128.21","velocity":0.09448818897637795,"duration":"0.08"},{"name":"D#6","midi":87,"time":"128.24","velocity":0.08661417322834646,"duration":"0.07"},{"name":"G#3","midi":56,"time":"128.35","velocity":0.07874015748031496,"duration":"0.07"},{"name":"C#6","midi":85,"time":"128.40","velocity":0.10236220472440945,"duration":"0.03"},{"name":"G#5","midi":80,"time":"128.81","velocity":0.3858267716535433,"duration":"0.66"},{"name":"C#5","midi":73,"time":"128.84","velocity":0.11811023622047244,"duration":"0.06"},{"name":"G#3","midi":56,"time":"128.85","velocity":0.11023622047244094,"duration":"0.07"},{"name":"G#4","midi":68,"time":"128.90","velocity":0.23622047244094488,"duration":"0.33"},{"name":"C#6","midi":85,"time":"128.92","velocity":0.09448818897637795,"duration":"0.06"},{"name":"D#6","midi":87,"time":"128.93","velocity":0.09448818897637795,"duration":"0.05"},{"name":"D6","midi":86,"time":"128.98","velocity":0.08661417322834646,"duration":"0.09"},{"name":"E3","midi":52,"time":"128.99","velocity":0.15748031496062992,"duration":"0.21"},{"name":"C#5","midi":73,"time":"129.14","velocity":0.08661417322834646,"duration":"0.05"},{"name":"G3","midi":55,"time":"129.22","velocity":0.29133858267716534,"duration":"0.08"},{"name":"G4","midi":67,"time":"129.24","velocity":0.2992125984251969,"duration":"0.02"},{"name":"G#4","midi":68,"time":"129.27","velocity":0.3700787401574803,"duration":"0.30"},{"name":"G#3","midi":56,"time":"129.30","velocity":0.2755905511811024,"duration":"0.02"},{"name":"G#3","midi":56,"time":"129.36","velocity":0.2677165354330709,"duration":"0.06"},{"name":"G#3","midi":56,"time":"129.47","velocity":0.11023622047244094,"duration":"0.06"},{"name":"G#6","midi":92,"time":"129.57","velocity":0.18110236220472442,"duration":"0.05"},{"name":"G#5","midi":80,"time":"129.58","velocity":0.30708661417322836,"duration":"0.15"},{"name":"E6","midi":88,"time":"129.59","velocity":0.14173228346456693,"duration":"0.07"},{"name":"G#3","midi":56,"time":"129.60","velocity":0.25196850393700787,"duration":"0.08"},{"name":"C#5","midi":73,"time":"129.60","velocity":0.07874015748031496,"duration":"0.05"},{"name":"D#5","midi":75,"time":"129.62","velocity":0.18110236220472442,"duration":"0.34"},{"name":"G#4","midi":68,"time":"129.65","velocity":0.3543307086614173,"duration":"0.67"},{"name":"G#3","midi":56,"time":"129.70","velocity":0.2755905511811024,"duration":"0.42"},{"name":"C#6","midi":85,"time":"129.71","velocity":0.10236220472440945,"duration":"0.05"},{"name":"D6","midi":86,"time":"129.72","velocity":0.11023622047244094,"duration":"0.12"},{"name":"C6","midi":84,"time":"129.80","velocity":0.11811023622047244,"duration":"0.05"},{"name":"C#6","midi":85,"time":"129.81","velocity":0.09448818897637795,"duration":"0.07"},{"name":"C6","midi":84,"time":"129.91","velocity":0.09448818897637795,"duration":"0.06"},{"name":"A3","midi":57,"time":"130.34","velocity":0.29133858267716534,"duration":"0.02"},{"name":"A#4","midi":70,"time":"130.34","velocity":0.2440944881889764,"duration":"0.05"},{"name":"A#3","midi":58,"time":"130.36","velocity":0.25196850393700787,"duration":"0.02"},{"name":"A3","midi":57,"time":"130.38","velocity":0.2992125984251969,"duration":"0.05"},{"name":"D#6","midi":87,"time":"130.38","velocity":0.09448818897637795,"duration":"0.08"},{"name":"G#4","midi":68,"time":"130.40","velocity":0.3228346456692913,"duration":"0.14"},{"name":"A3","midi":57,"time":"130.44","velocity":0.29133858267716534,"duration":"0.30"},{"name":"C#6","midi":85,"time":"130.44","velocity":0.08661417322834646,"duration":"0.13"},{"name":"D#6","midi":87,"time":"130.53","velocity":0.08661417322834646,"duration":"0.05"},{"name":"G#4","midi":68,"time":"130.55","velocity":0.2677165354330709,"duration":"0.06"},{"name":"C#5","midi":73,"time":"130.57","velocity":0.09448818897637795,"duration":"0.05"},{"name":"G#5","midi":80,"time":"130.59","velocity":0.31496062992125984,"duration":"0.43"},{"name":"C#6","midi":85,"time":"130.62","velocity":0.07086614173228346,"duration":"0.03"},{"name":"C#5","midi":73,"time":"130.65","velocity":0.09448818897637795,"duration":"0.03"},{"name":"G#4","midi":68,"time":"130.69","velocity":0.2047244094488189,"duration":"0.07"},{"name":"E6","midi":88,"time":"130.74","velocity":0.11023622047244094,"duration":"0.08"},{"name":"G#4","midi":68,"time":"130.80","velocity":0.2677165354330709,"duration":"0.24"},{"name":"B5","midi":83,"time":"130.83","velocity":0.09448818897637795,"duration":"0.03"},{"name":"B5","midi":83,"time":"130.88","velocity":0.07874015748031496,"duration":"0.03"},{"name":"E3","midi":52,"time":"130.90","velocity":0.09448818897637795,"duration":"0.20"},{"name":"G#4","midi":68,"time":"131.07","velocity":0.2755905511811024,"duration":"0.79"},{"name":"G#5","midi":80,"time":"131.08","velocity":0.3700787401574803,"duration":"0.40"},{"name":"G#3","midi":56,"time":"131.13","velocity":0.08661417322834646,"duration":"0.07"},{"name":"E6","midi":88,"time":"131.13","velocity":0.08661417322834646,"duration":"0.03"},{"name":"C#6","midi":85,"time":"131.14","velocity":0.07086614173228346,"duration":"0.13"},{"name":"E3","midi":52,"time":"131.19","velocity":0.10236220472440945,"duration":"0.20"},{"name":"D#6","midi":87,"time":"131.29","velocity":0.11023622047244094,"duration":"0.06"},{"name":"G#3","midi":56,"time":"131.37","velocity":0.10236220472440945,"duration":"0.06"},{"name":"C#6","midi":85,"time":"131.37","velocity":0.08661417322834646,"duration":"0.03"},{"name":"D#6","midi":87,"time":"131.37","velocity":0.11023622047244094,"duration":"0.03"},{"name":"C#5","midi":73,"time":"131.41","velocity":0.08661417322834646,"duration":"0.07"},{"name":"C#6","midi":85,"time":"131.44","velocity":0.12598425196850394,"duration":"0.06"},{"name":"D#6","midi":87,"time":"131.45","velocity":0.12598425196850394,"duration":"0.05"},{"name":"A6","midi":93,"time":"131.45","velocity":0.2125984251968504,"duration":"0.13"},{"name":"B4","midi":71,"time":"131.47","velocity":0.16535433070866143,"duration":"0.05"},{"name":"F#6","midi":90,"time":"131.47","velocity":0.11023622047244094,"duration":"0.05"},{"name":"E3","midi":52,"time":"131.48","velocity":0.07874015748031496,"duration":"0.09"},{"name":"B3","midi":59,"time":"131.48","velocity":0.23622047244094488,"duration":"0.02"},{"name":"F#5","midi":78,"time":"131.48","velocity":0.1889763779527559,"duration":"0.03"},{"name":"A5","midi":81,"time":"131.48","velocity":0.23622047244094488,"duration":"0.35"},{"name":"B5","midi":83,"time":"131.48","velocity":0.2677165354330709,"duration":"0.03"},{"name":"A#3","midi":58,"time":"131.50","velocity":0.33070866141732286,"duration":"0.05"},{"name":"F5","midi":77,"time":"131.51","velocity":0.2283464566929134,"duration":"0.06"},{"name":"A#5","midi":82,"time":"131.51","velocity":0.1968503937007874,"duration":"0.06"},{"name":"B3","midi":59,"time":"131.57","velocity":0.33070866141732286,"duration":"0.08"},{"name":"F#5","midi":78,"time":"131.57","velocity":0.18110236220472442,"duration":"0.08"},{"name":"B5","midi":83,"time":"131.57","velocity":0.2047244094488189,"duration":"0.09"},{"name":"C4","midi":60,"time":"131.65","velocity":0.3228346456692913,"duration":"0.07"},{"name":"G5","midi":79,"time":"131.65","velocity":0.16535433070866143,"duration":"0.06"},{"name":"B5","midi":83,"time":"131.69","velocity":0.10236220472440945,"duration":"0.03"},{"name":"B4","midi":71,"time":"131.70","velocity":0.14173228346456693,"duration":"0.21"},{"name":"F#5","midi":78,"time":"131.71","velocity":0.14173228346456693,"duration":"0.20"},{"name":"B3","midi":59,"time":"131.72","velocity":0.36220472440944884,"duration":"0.28"},{"name":"A6","midi":93,"time":"131.83","velocity":0.16535433070866143,"duration":"0.15"},{"name":"A5","midi":81,"time":"131.85","velocity":0.25196850393700787,"duration":"0.13"},{"name":"G#4","midi":68,"time":"131.90","velocity":0.2755905511811024,"duration":"0.16"},{"name":"C#5","midi":73,"time":"131.93","velocity":0.07874015748031496,"duration":"0.03"},{"name":"A5","midi":81,"time":"131.99","velocity":0.16535433070866143,"duration":"0.09"},{"name":"C#5","midi":73,"time":"132.00","velocity":0.10236220472440945,"duration":"0.05"},{"name":"D6","midi":86,"time":"132.01","velocity":0.12598425196850394,"duration":"0.08"},{"name":"D#6","midi":87,"time":"132.02","velocity":0.10236220472440945,"duration":"0.05"},{"name":"D#3","midi":51,"time":"132.06","velocity":0.13385826771653545,"duration":"0.03"},{"name":"G#4","midi":68,"time":"132.07","velocity":0.1732283464566929,"duration":"0.14"},{"name":"B3","midi":59,"time":"132.08","velocity":0.12598425196850394,"duration":"0.03"},{"name":"G3","midi":55,"time":"132.09","velocity":0.16535433070866143,"duration":"0.05"},{"name":"A5","midi":81,"time":"132.09","velocity":0.13385826771653545,"duration":"0.06"},{"name":"C#6","midi":85,"time":"132.13","velocity":0.11023622047244094,"duration":"0.03"},{"name":"D#6","midi":87,"time":"132.14","velocity":0.11023622047244094,"duration":"0.10"},{"name":"B3","midi":59,"time":"132.15","velocity":0.28346456692913385,"duration":"0.05"},{"name":"C#5","midi":73,"time":"132.16","velocity":0.09448818897637795,"duration":"0.03"},{"name":"A5","midi":81,"time":"132.16","velocity":0.11023622047244094,"duration":"0.07"},{"name":"C4","midi":60,"time":"132.20","velocity":0.3779527559055118,"duration":"0.02"},{"name":"F#5","midi":78,"time":"132.20","velocity":0.33858267716535434,"duration":"0.35"},{"name":"B3","midi":59,"time":"132.22","velocity":0.4251968503937008,"duration":"0.22"},{"name":"C#5","midi":73,"time":"132.33","velocity":0.07874015748031496,"duration":"0.22"},{"name":"D3","midi":50,"time":"132.40","velocity":0.08661417322834646,"duration":"0.20"},{"name":"A5","midi":81,"time":"132.48","velocity":0.08661417322834646,"duration":"0.05"},{"name":"D#4","midi":63,"time":"132.56","velocity":0.31496062992125984,"duration":"0.02"},{"name":"F#4","midi":66,"time":"132.59","velocity":0.25984251968503935,"duration":"0.73"},{"name":"D5","midi":74,"time":"132.59","velocity":0.30708661417322836,"duration":"0.05"},{"name":"A5","midi":81,"time":"132.59","velocity":0.2677165354330709,"duration":"0.12"},{"name":"D4","midi":62,"time":"132.60","velocity":0.2677165354330709,"duration":"0.02"},{"name":"D3","midi":50,"time":"132.62","velocity":0.11023622047244094,"duration":"0.05"},{"name":"E6","midi":88,"time":"132.62","velocity":0.13385826771653545,"duration":"0.03"},{"name":"C#4","midi":61,"time":"132.64","velocity":0.48031496062992124,"duration":"0.50"},{"name":"B6","midi":95,"time":"132.64","velocity":0.07086614173228346,"duration":"0.03"},{"name":"G#5","midi":80,"time":"132.66","velocity":0.18110236220472442,"duration":"0.09"},{"name":"D3","midi":50,"time":"132.69","velocity":0.10236220472440945,"duration":"0.10"},{"name":"E6","midi":88,"time":"132.69","velocity":0.13385826771653545,"duration":"0.03"},{"name":"F#6","midi":90,"time":"132.70","velocity":0.14173228346456693,"duration":"0.08"},{"name":"D6","midi":86,"time":"132.72","velocity":0.18110236220472442,"duration":"0.12"},{"name":"A5","midi":81,"time":"132.74","velocity":0.2283464566929134,"duration":"0.05"},{"name":"G#5","midi":80,"time":"132.79","velocity":0.1968503937007874,"duration":"0.05"},{"name":"D3","midi":50,"time":"132.84","velocity":0.15748031496062992,"duration":"0.35"},{"name":"A5","midi":81,"time":"132.84","velocity":0.2283464566929134,"duration":"0.15"},{"name":"D6","midi":86,"time":"132.86","velocity":0.1889763779527559,"duration":"0.08"},{"name":"D5","midi":74,"time":"132.94","velocity":0.30708661417322836,"duration":"0.99"},{"name":"F#5","midi":78,"time":"132.97","velocity":0.2992125984251969,"duration":"0.27"},{"name":"E6","midi":88,"time":"132.99","velocity":0.11023622047244094,"duration":"0.05"},{"name":"G#5","midi":80,"time":"133.01","velocity":0.09448818897637795,"duration":"0.06"},{"name":"C#4","midi":61,"time":"133.15","velocity":0.47244094488188976,"duration":"0.03"},{"name":"D3","midi":50,"time":"133.21","velocity":0.07086614173228346,"duration":"0.05"},{"name":"C4","midi":60,"time":"133.21","velocity":0.4330708661417323,"duration":"0.02"},{"name":"D4","midi":62,"time":"133.24","velocity":0.4330708661417323,"duration":"0.92"},{"name":"A3","midi":57,"time":"133.26","velocity":0.33070866141732286,"duration":"0.02"},{"name":"G#3","midi":56,"time":"133.28","velocity":0.28346456692913385,"duration":"0.02"},{"name":"G#3","midi":56,"time":"133.31","velocity":0.33858267716535434,"duration":"0.03"},{"name":"A5","midi":81,"time":"133.34","velocity":0.25984251968503935,"duration":"0.10"},{"name":"A3","midi":57,"time":"133.35","velocity":0.3464566929133858,"duration":"0.57"},{"name":"F#4","midi":66,"time":"133.35","velocity":0.25984251968503935,"duration":"0.36"},{"name":"E6","midi":88,"time":"133.35","velocity":0.16535433070866143,"duration":"0.15"},{"name":"D3","midi":50,"time":"133.66","velocity":0.07086614173228346,"duration":"0.03"},{"name":"F#6","midi":90,"time":"133.71","velocity":0.13385826771653545,"duration":"0.03"},{"name":"F#5","midi":78,"time":"133.72","velocity":0.28346456692913385,"duration":"1.07"},{"name":"E6","midi":88,"time":"133.72","velocity":0.14960629921259844,"duration":"0.08"},{"name":"F#4","midi":66,"time":"133.74","velocity":0.2992125984251969,"duration":"0.34"},{"name":"G4","midi":67,"time":"134.08","velocity":0.2283464566929134,"duration":"0.02"},{"name":"D3","midi":50,"time":"134.10","velocity":0.11811023622047244,"duration":"0.35"},{"name":"F#4","midi":66,"time":"134.10","velocity":0.25196850393700787,"duration":"0.76"},{"name":"A#5","midi":82,"time":"134.12","velocity":0.10236220472440945,"duration":"0.03"},{"name":"A6","midi":93,"time":"134.12","velocity":0.2283464566929134,"duration":"0.31"},{"name":"C#4","midi":61,"time":"134.19","velocity":0.23622047244094488,"duration":"0.16"},{"name":"E6","midi":88,"time":"134.20","velocity":0.08661417322834646,"duration":"0.03"},{"name":"D5","midi":74,"time":"134.24","velocity":0.18110236220472442,"duration":"0.05"},{"name":"A5","midi":81,"time":"134.24","velocity":0.2283464566929134,"duration":"0.17"},{"name":"D6","midi":86,"time":"134.29","velocity":0.1889763779527559,"duration":"0.22"},{"name":"D4","midi":62,"time":"134.35","velocity":0.2677165354330709,"duration":"0.12"},{"name":"D5","midi":74,"time":"134.36","velocity":0.30708661417322836,"duration":"1.13"},{"name":"A5","midi":81,"time":"134.44","velocity":0.16535433070866143,"duration":"0.05"},{"name":"A6","midi":93,"time":"134.44","velocity":0.16535433070866143,"duration":"0.12"},{"name":"C#4","midi":61,"time":"134.47","velocity":0.2283464566929134,"duration":"0.02"},{"name":"A#5","midi":82,"time":"134.48","velocity":0.07086614173228346,"duration":"0.05"},{"name":"E6","midi":88,"time":"134.48","velocity":0.12598425196850394,"duration":"0.06"},{"name":"C#4","midi":61,"time":"134.52","velocity":0.11811023622047244,"duration":"0.10"},{"name":"A5","midi":81,"time":"134.55","velocity":0.11811023622047244,"duration":"0.05"},{"name":"C#4","midi":61,"time":"134.65","velocity":0.1889763779527559,"duration":"0.05"},{"name":"D4","midi":62,"time":"134.72","velocity":0.4015748031496063,"duration":"0.49"},{"name":"F#5","midi":78,"time":"134.81","velocity":0.25196850393700787,"duration":"0.71"},{"name":"D3","midi":50,"time":"134.85","velocity":0.11811023622047244,"duration":"0.31"},{"name":"A#5","midi":82,"time":"134.86","velocity":0.07086614173228346,"duration":"0.05"},{"name":"A6","midi":93,"time":"134.86","velocity":0.2204724409448819,"duration":"0.41"},{"name":"F#4","midi":66,"time":"134.87","velocity":0.25984251968503935,"duration":"0.37"},{"name":"E6","midi":88,"time":"134.90","velocity":0.11023622047244094,"duration":"0.07"},{"name":"A5","midi":81,"time":"134.93","velocity":0.2204724409448819,"duration":"0.08"},{"name":"A5","midi":81,"time":"135.05","velocity":0.2204724409448819,"duration":"0.17"},{"name":"G#3","midi":56,"time":"135.22","velocity":0.2440944881889764,"duration":"0.02"},{"name":"D4","midi":62,"time":"135.23","velocity":0.4015748031496063,"duration":"0.74"},{"name":"G4","midi":67,"time":"135.23","velocity":0.3858267716535433,"duration":"0.12"},{"name":"E6","midi":88,"time":"135.23","velocity":0.07874015748031496,"duration":"0.09"},{"name":"G3","midi":55,"time":"135.24","velocity":0.33858267716535434,"duration":"0.09"},{"name":"A5","midi":81,"time":"135.26","velocity":0.18110236220472442,"duration":"0.09"},{"name":"G#4","midi":68,"time":"135.35","velocity":0.3779527559055118,"duration":"0.34"},{"name":"G#3","midi":56,"time":"135.36","velocity":0.33858267716535434,"duration":"0.55"},{"name":"D3","midi":50,"time":"135.37","velocity":0.11811023622047244,"duration":"0.03"},{"name":"D3","midi":50,"time":"135.42","velocity":0.12598425196850394,"duration":"0.07"},{"name":"D3","midi":50,"time":"135.50","velocity":0.13385826771653545,"duration":"0.09"},{"name":"F#4","midi":66,"time":"135.53","velocity":0.2283464566929134,"duration":"0.05"},{"name":"C#5","midi":73,"time":"135.55","velocity":0.14173228346456693,"duration":"0.06"},{"name":"F#5","midi":78,"time":"135.59","velocity":0.1732283464566929,"duration":"0.13"},{"name":"A5","midi":81,"time":"135.59","velocity":0.2125984251968504,"duration":"0.24"},{"name":"F#4","midi":66,"time":"135.60","velocity":0.16535433070866143,"duration":"0.03"},{"name":"A6","midi":93,"time":"135.60","velocity":0.2283464566929134,"duration":"0.41"},{"name":"E6","midi":88,"time":"135.62","velocity":0.14960629921259844,"duration":"0.07"},{"name":"F#4","midi":66,"time":"135.70","velocity":0.28346456692913385,"duration":"0.03"},{"name":"C#5","midi":73,"time":"135.72","velocity":0.07086614173228346,"duration":"0.03"},{"name":"D#5","midi":75,"time":"135.72","velocity":0.11811023622047244,"duration":"0.07"},{"name":"D6","midi":86,"time":"135.73","velocity":0.14960629921259844,"duration":"0.06"},{"name":"E6","midi":88,"time":"135.76","velocity":0.07086614173228346,"duration":"0.03"},{"name":"F#4","midi":66,"time":"135.81","velocity":0.25984251968503935,"duration":"0.28"},{"name":"A5","midi":81,"time":"135.85","velocity":0.23622047244094488,"duration":"0.07"},{"name":"A3","midi":57,"time":"135.93","velocity":0.33858267716535434,"duration":"0.05"},{"name":"F#6","midi":90,"time":"135.97","velocity":0.18110236220472442,"duration":"0.03"},{"name":"G#3","midi":56,"time":"135.98","velocity":0.3543307086614173,"duration":"0.15"},{"name":"D4","midi":62,"time":"135.99","velocity":0.3937007874015748,"duration":"0.71"},{"name":"E6","midi":88,"time":"135.99","velocity":0.10236220472440945,"duration":"0.03"},{"name":"F#6","midi":90,"time":"136.02","velocity":0.1889763779527559,"duration":"0.19"},{"name":"F#5","midi":78,"time":"136.09","velocity":0.16535433070866143,"duration":"0.20"},{"name":"F#4","midi":66,"time":"136.10","velocity":0.30708661417322836,"duration":"1.72"},{"name":"G#3","midi":56,"time":"136.14","velocity":0.25984251968503935,"duration":"0.05"},{"name":"A3","midi":57,"time":"136.19","velocity":0.23622047244094488,"duration":"0.02"},{"name":"F#5","midi":78,"time":"136.34","velocity":0.36220472440944884,"duration":"0.19"},{"name":"A5","midi":81,"time":"136.34","velocity":0.14173228346456693,"duration":"0.03"},{"name":"A6","midi":93,"time":"136.34","velocity":0.1968503937007874,"duration":"0.09"},{"name":"A#5","midi":82,"time":"136.36","velocity":0.30708661417322836,"duration":"0.02"},{"name":"C#6","midi":85,"time":"136.37","velocity":0.12598425196850394,"duration":"0.09"},{"name":"A5","midi":81,"time":"136.38","velocity":0.28346456692913385,"duration":"0.02"},{"name":"A#5","midi":82,"time":"136.40","velocity":0.25984251968503935,"duration":"0.02"},{"name":"A#5","midi":82,"time":"136.43","velocity":0.2440944881889764,"duration":"0.02"},{"name":"A5","midi":81,"time":"136.45","velocity":0.25984251968503935,"duration":"0.02"},{"name":"A6","midi":93,"time":"136.45","velocity":0.25984251968503935,"duration":"0.29"},{"name":"F3","midi":53,"time":"136.47","velocity":0.2283464566929134,"duration":"0.02"},{"name":"A#5","midi":82,"time":"136.48","velocity":0.2125984251968504,"duration":"0.08"},{"name":"F#3","midi":54,"time":"136.51","velocity":0.25984251968503935,"duration":"0.30"},{"name":"A5","midi":81,"time":"136.55","velocity":0.2204724409448819,"duration":"0.05"},{"name":"A#5","midi":82,"time":"136.58","velocity":0.14960629921259844,"duration":"0.06"},{"name":"A#5","midi":82,"time":"136.66","velocity":0.14173228346456693,"duration":"0.08"},{"name":"A5","midi":81,"time":"136.67","velocity":0.2755905511811024,"duration":"0.10"},{"name":"D4","midi":62,"time":"136.71","velocity":0.2677165354330709,"duration":"0.10"},{"name":"E6","midi":88,"time":"136.73","velocity":0.1732283464566929,"duration":"0.03"},{"name":"A#5","midi":82,"time":"136.83","velocity":0.14173228346456693,"duration":"0.22"},{"name":"D4","midi":62,"time":"136.84","velocity":0.15748031496062992,"duration":"0.03"},{"name":"F#3","midi":54,"time":"136.85","velocity":0.25984251968503935,"duration":"0.38"},{"name":"C#5","midi":73,"time":"136.86","velocity":0.2047244094488189,"duration":"0.19"},{"name":"D4","midi":62,"time":"136.98","velocity":0.3858267716535433,"duration":"0.49"},{"name":"A5","midi":81,"time":"137.08","velocity":0.2125984251968504,"duration":"0.07"},{"name":"A6","midi":93,"time":"137.12","velocity":0.2283464566929134,"duration":"0.10"},{"name":"E6","midi":88,"time":"137.13","velocity":0.15748031496062992,"duration":"0.10"},{"name":"C#5","midi":73,"time":"137.26","velocity":0.14173228346456693,"duration":"0.06"},{"name":"A5","midi":81,"time":"137.27","velocity":0.2125984251968504,"duration":"0.22"},{"name":"A6","midi":93,"time":"137.27","velocity":0.2283464566929134,"duration":"0.23"},{"name":"D6","midi":86,"time":"137.29","velocity":0.14960629921259844,"duration":"0.16"},{"name":"D3","midi":50,"time":"137.31","velocity":0.10236220472440945,"duration":"0.15"},{"name":"F#3","midi":54,"time":"137.42","velocity":0.12598425196850394,"duration":"0.06"},{"name":"C#4","midi":61,"time":"137.47","velocity":0.4566929133858268,"duration":"0.22"},{"name":"D5","midi":74,"time":"137.47","velocity":0.3779527559055118,"duration":"0.51"},{"name":"G#5","midi":80,"time":"137.47","velocity":0.33858267716535434,"duration":"0.50"},{"name":"D3","midi":50,"time":"137.48","velocity":0.12598425196850394,"duration":"0.35"},{"name":"E6","midi":88,"time":"137.51","velocity":0.08661417322834646,"duration":"0.12"},{"name":"F6","midi":89,"time":"137.58","velocity":0.11811023622047244,"duration":"0.27"},{"name":"C#6","midi":85,"time":"137.59","velocity":0.12598425196850394,"duration":"0.06"},{"name":"C#4","midi":61,"time":"137.70","velocity":0.47244094488188976,"duration":"0.05"},{"name":"C#4","midi":61,"time":"137.76","velocity":0.47244094488188976,"duration":"0.02"},{"name":"D4","midi":62,"time":"137.78","velocity":0.4645669291338583,"duration":"0.02"},{"name":"D4","midi":62,"time":"137.84","velocity":0.4881889763779528,"duration":"0.05"},{"name":"F#5","midi":78,"time":"137.84","velocity":0.23622047244094488,"duration":"0.16"},{"name":"F#4","midi":66,"time":"137.85","velocity":0.2677165354330709,"duration":"0.15"},{"name":"D3","midi":50,"time":"137.87","velocity":0.07874015748031496,"duration":"0.03"},{"name":"A#5","midi":82,"time":"137.87","velocity":0.11023622047244094,"duration":"0.06"},{"name":"C#4","midi":61,"time":"137.88","velocity":0.4330708661417323,"duration":"0.02"},{"name":"A6","midi":93,"time":"137.88","velocity":0.2283464566929134,"duration":"0.50"},{"name":"D4","midi":62,"time":"137.91","velocity":0.49606299212598426,"duration":"0.02"},{"name":"C#4","midi":61,"time":"137.93","velocity":0.4251968503937008,"duration":"0.05"},{"name":"A5","midi":81,"time":"137.95","velocity":0.1968503937007874,"duration":"0.06"},{"name":"D#5","midi":75,"time":"137.98","velocity":0.14173228346456693,"duration":"0.06"},{"name":"C#4","midi":61,"time":"137.99","velocity":0.4566929133858268,"duration":"0.16"},{"name":"G4","midi":67,"time":"138.02","velocity":0.25984251968503935,"duration":"0.05"},{"name":"E5","midi":76,"time":"138.03","velocity":0.09448818897637795,"duration":"0.05"},{"name":"D6","midi":86,"time":"138.03","velocity":0.13385826771653545,"duration":"0.09"},{"name":"E4","midi":64,"time":"138.05","velocity":0.3464566929133858,"duration":"0.06"},{"name":"G#5","midi":80,"time":"138.06","velocity":0.08661417322834646,"duration":"0.03"},{"name":"D5","midi":74,"time":"138.07","velocity":0.11811023622047244,"duration":"0.03"},{"name":"G3","midi":55,"time":"138.09","velocity":0.25984251968503935,"duration":"0.03"},{"name":"F4","midi":65,"time":"138.10","velocity":0.3228346456692913,"duration":"0.05"},{"name":"A5","midi":81,"time":"138.10","velocity":0.2204724409448819,"duration":"0.13"},{"name":"A3","midi":57,"time":"138.14","velocity":0.23622047244094488,"duration":"0.02"},{"name":"D4","midi":62,"time":"138.15","velocity":0.3779527559055118,"duration":"0.03"},{"name":"G#3","midi":56,"time":"138.16","velocity":0.2283464566929134,"duration":"0.03"},{"name":"D#4","midi":63,"time":"138.19","velocity":0.25196850393700787,"duration":"0.02"},{"name":"A4","midi":69,"time":"138.23","velocity":0.13385826771653545,"duration":"0.12"},{"name":"C#5","midi":73,"time":"138.23","velocity":0.30708661417322836,"duration":"0.67"},{"name":"E6","midi":88,"time":"138.23","velocity":0.14960629921259844,"duration":"0.06"},{"name":"A#3","midi":58,"time":"138.26","velocity":0.29133858267716534,"duration":"0.02"},{"name":"C#4","midi":61,"time":"138.26","velocity":0.33070866141732286,"duration":"0.34"},{"name":"E5","midi":76,"time":"138.28","velocity":0.18110236220472442,"duration":"0.26"},{"name":"A3","midi":57,"time":"138.31","velocity":0.28346456692913385,"duration":"0.28"},{"name":"D4","midi":62,"time":"138.59","velocity":0.25196850393700787,"duration":"0.03"},{"name":"A3","midi":57,"time":"138.60","velocity":0.2755905511811024,"duration":"0.73"},{"name":"F7","midi":101,"time":"138.60","velocity":0.11811023622047244,"duration":"0.05"},{"name":"A5","midi":81,"time":"138.62","velocity":0.2283464566929134,"duration":"0.20"},{"name":"C#4","midi":61,"time":"138.63","velocity":0.31496062992125984,"duration":"0.74"},{"name":"E6","midi":88,"time":"138.64","velocity":0.13385826771653545,"duration":"0.05"},{"name":"C#7","midi":97,"time":"138.66","velocity":0.12598425196850394,"duration":"0.03"},{"name":"A5","midi":81,"time":"138.84","velocity":0.30708661417322836,"duration":"0.86"},{"name":"A4","midi":69,"time":"138.92","velocity":0.33070866141732286,"duration":"0.50"},{"name":"E6","midi":88,"time":"139.01","velocity":0.07086614173228346,"duration":"0.03"},{"name":"E5","midi":76,"time":"139.26","velocity":0.08661417322834646,"duration":"0.03"},{"name":"A3","midi":57,"time":"139.36","velocity":0.2755905511811024,"duration":"0.36"},{"name":"C#6","midi":85,"time":"139.38","velocity":0.09448818897637795,"duration":"0.05"},{"name":"C#4","midi":61,"time":"139.40","velocity":0.29133858267716534,"duration":"0.33"},{"name":"C#6","midi":85,"time":"139.45","velocity":0.10236220472440945,"duration":"0.17"},{"name":"C4","midi":60,"time":"139.72","velocity":0.2125984251968504,"duration":"0.03"},{"name":"A5","midi":81,"time":"139.72","velocity":0.33070866141732286,"duration":"0.45"},{"name":"A3","midi":57,"time":"139.73","velocity":0.2755905511811024,"duration":"0.37"},{"name":"E5","midi":76,"time":"139.73","velocity":0.14173228346456693,"duration":"0.21"},{"name":"C#6","midi":85,"time":"139.73","velocity":0.11811023622047244,"duration":"0.03"},{"name":"C#4","midi":61,"time":"139.76","velocity":0.28346456692913385,"duration":"0.35"},{"name":"E5","midi":76,"time":"139.97","velocity":0.13385826771653545,"duration":"0.07"},{"name":"C#5","midi":73,"time":"140.10","velocity":0.10236220472440945,"duration":"0.03"},{"name":"A3","midi":57,"time":"140.12","velocity":0.2755905511811024,"duration":"1.51"},{"name":"C#4","midi":61,"time":"140.12","velocity":0.29133858267716534,"duration":"1.12"},{"name":"E6","midi":88,"time":"140.12","velocity":0.14960629921259844,"duration":"0.13"},{"name":"G#5","midi":80,"time":"140.15","velocity":0.12598425196850394,"duration":"0.03"},{"name":"A4","midi":69,"time":"140.20","velocity":0.31496062992125984,"duration":"1.09"},{"name":"E6","midi":88,"time":"140.28","velocity":0.11023622047244094,"duration":"0.03"},{"name":"E6","midi":88,"time":"140.50","velocity":0.15748031496062992,"duration":"0.12"},{"name":"E5","midi":76,"time":"140.64","velocity":0.13385826771653545,"duration":"0.07"},{"name":"E5","midi":76,"time":"140.80","velocity":0.08661417322834646,"duration":"0.09"},{"name":"F7","midi":101,"time":"140.86","velocity":0.10236220472440945,"duration":"0.06"},{"name":"C#6","midi":85,"time":"140.88","velocity":0.09448818897637795,"duration":"0.12"},{"name":"E6","midi":88,"time":"140.88","velocity":0.16535433070866143,"duration":"0.14"},{"name":"C#7","midi":97,"time":"140.93","velocity":0.09448818897637795,"duration":"0.05"},{"name":"G5","midi":79,"time":"141.19","velocity":0.3543307086614173,"duration":"0.02"},{"name":"A#6","midi":94,"time":"141.20","velocity":0.36220472440944884,"duration":"0.08"},{"name":"F#7","midi":102,"time":"141.20","velocity":0.1968503937007874,"duration":"0.06"},{"name":"F#5","midi":78,"time":"141.21","velocity":0.4330708661417323,"duration":"0.07"},{"name":"F#4","midi":66,"time":"141.22","velocity":0.25984251968503935,"duration":"0.05"},{"name":"C#6","midi":85,"time":"141.22","velocity":0.2755905511811024,"duration":"0.05"},{"name":"E6","midi":88,"time":"141.23","velocity":0.16535433070866143,"duration":"0.12"},{"name":"C#4","midi":61,"time":"141.26","velocity":0.2755905511811024,"duration":"0.33"},{"name":"G4","midi":67,"time":"141.27","velocity":0.2755905511811024,"duration":"0.06"},{"name":"D6","midi":86,"time":"141.27","velocity":0.3228346456692913,"duration":"0.06"},{"name":"G6","midi":91,"time":"141.27","velocity":0.2204724409448819,"duration":"0.06"},{"name":"B6","midi":95,"time":"141.28","velocity":0.1968503937007874,"duration":"0.06"},{"name":"C#7","midi":97,"time":"141.29","velocity":0.09448818897637795,"duration":"0.03"},{"name":"F7","midi":101,"time":"141.29","velocity":0.14960629921259844,"duration":"0.06"},{"name":"E5","midi":76,"time":"141.31","velocity":0.14960629921259844,"duration":"0.09"},{"name":"G#5","midi":80,"time":"141.31","velocity":0.4094488188976378,"duration":"0.40"},{"name":"D#7","midi":99,"time":"141.31","velocity":0.18110236220472442,"duration":"0.53"},{"name":"G#4","midi":68,"time":"141.33","velocity":0.30708661417322836,"duration":"0.28"},{"name":"D#6","midi":87,"time":"141.33","velocity":0.3700787401574803,"duration":"0.80"},{"name":"C7","midi":96,"time":"141.34","velocity":0.10236220472440945,"duration":"0.14"},{"name":"F#7","midi":102,"time":"141.35","velocity":0.3228346456692913,"duration":"0.73"},{"name":"F#5","midi":78,"time":"141.59","velocity":0.15748031496062992,"duration":"0.03"},{"name":"A#6","midi":94,"time":"141.59","velocity":0.12598425196850394,"duration":"0.05"},{"name":"C#4","midi":61,"time":"141.60","velocity":0.2677165354330709,"duration":"0.73"},{"name":"G#4","midi":68,"time":"141.62","velocity":0.2755905511811024,"duration":"0.02"},{"name":"A6","midi":93,"time":"141.62","velocity":0.2125984251968504,"duration":"0.15"},{"name":"C7","midi":96,"time":"141.62","velocity":0.13385826771653545,"duration":"0.41"},{"name":"F7","midi":101,"time":"141.63","velocity":0.07086614173228346,"duration":"0.03"},{"name":"A3","midi":57,"time":"141.64","velocity":0.2677165354330709,"duration":"1.09"},{"name":"A4","midi":69,"time":"141.64","velocity":0.3228346456692913,"duration":"0.02"},{"name":"G#4","midi":68,"time":"141.66","velocity":0.2992125984251969,"duration":"0.03"},{"name":"A4","midi":69,"time":"141.70","velocity":0.30708661417322836,"duration":"0.02"},{"name":"A5","midi":81,"time":"141.71","velocity":0.4015748031496063,"duration":"0.02"},{"name":"C#7","midi":97,"time":"141.71","velocity":0.1732283464566929,"duration":"0.28"},{"name":"G#4","midi":68,"time":"141.72","velocity":0.33070866141732286,"duration":"0.27"},{"name":"G#5","midi":80,"time":"141.72","velocity":0.4094488188976378,"duration":"0.34"},{"name":"A6","midi":93,"time":"141.98","velocity":0.23622047244094488,"duration":"0.13"},{"name":"A4","midi":69,"time":"141.99","velocity":0.3779527559055118,"duration":"0.59"},{"name":"E6","midi":88,"time":"142.00","velocity":0.13385826771653545,"duration":"0.05"},{"name":"E5","midi":76,"time":"142.06","velocity":0.15748031496062992,"duration":"0.07"},{"name":"D#6","midi":87,"time":"142.14","velocity":0.2283464566929134,"duration":"0.13"},{"name":"E5","midi":76,"time":"142.27","velocity":0.11811023622047244,"duration":"0.05"},{"name":"E4","midi":64,"time":"142.33","velocity":0.25196850393700787,"duration":"0.02"},{"name":"G#5","midi":80,"time":"142.33","velocity":0.11811023622047244,"duration":"0.05"},{"name":"F5","midi":77,"time":"142.34","velocity":0.30708661417322836,"duration":"0.05"},{"name":"C6","midi":84,"time":"142.35","velocity":0.31496062992125984,"duration":"0.03"},{"name":"A6","midi":93,"time":"142.35","velocity":0.25196850393700787,"duration":"0.19"},{"name":"E4","midi":64,"time":"142.36","velocity":0.4015748031496063,"duration":"0.59"},{"name":"C#7","midi":97,"time":"142.36","velocity":0.12598425196850394,"duration":"0.10"},{"name":"C#4","midi":61,"time":"142.37","velocity":0.25196850393700787,"duration":"0.12"},{"name":"C#6","midi":85,"time":"142.37","velocity":0.11023622047244094,"duration":"0.05"},{"name":"G#6","midi":92,"time":"142.37","velocity":0.2283464566929134,"duration":"0.19"},{"name":"B5","midi":83,"time":"142.38","velocity":0.4015748031496063,"duration":"0.83"},{"name":"E6","midi":88,"time":"142.38","velocity":0.31496062992125984,"duration":"0.56"},{"name":"C#4","midi":61,"time":"142.52","velocity":0.25984251968503935,"duration":"0.16"},{"name":"D#6","midi":87,"time":"142.58","velocity":0.08661417322834646,"duration":"0.08"},{"name":"G#6","midi":92,"time":"142.59","velocity":0.2204724409448819,"duration":"0.15"},{"name":"A4","midi":69,"time":"142.64","velocity":0.29133858267716534,"duration":"0.16"},{"name":"G#5","midi":80,"time":"142.69","velocity":0.13385826771653545,"duration":"0.03"},{"name":"C#6","midi":85,"time":"142.71","velocity":0.09448818897637795,"duration":"0.08"},{"name":"A#3","midi":58,"time":"142.73","velocity":0.2440944881889764,"duration":"0.02"},{"name":"C#4","midi":61,"time":"142.73","velocity":0.2440944881889764,"duration":"0.02"},{"name":"A3","midi":57,"time":"142.76","velocity":0.25984251968503935,"duration":"0.26"},{"name":"C#4","midi":61,"time":"142.83","velocity":0.25984251968503935,"duration":"0.12"},{"name":"G#6","midi":92,"time":"142.92","velocity":0.11023622047244094,"duration":"0.03"},{"name":"D#4","midi":63,"time":"142.95","velocity":0.3700787401574803,"duration":"0.03"},{"name":"C4","midi":60,"time":"143.01","velocity":0.4330708661417323,"duration":"0.08"},{"name":"E4","midi":64,"time":"143.01","velocity":0.2204724409448819,"duration":"0.09"},{"name":"C#5","midi":73,"time":"143.08","velocity":0.28346456692913385,"duration":"0.43"},{"name":"C#4","midi":61,"time":"143.09","velocity":0.48031496062992124,"duration":"0.45"},{"name":"G#5","midi":80,"time":"143.09","velocity":0.3937007874015748,"duration":"0.44"},{"name":"A5","midi":81,"time":"143.10","velocity":0.2677165354330709,"duration":"0.06"},{"name":"E6","midi":88,"time":"143.13","velocity":0.23622047244094488,"duration":"0.19"},{"name":"A3","midi":57,"time":"143.19","velocity":0.2677165354330709,"duration":"0.65"},{"name":"F6","midi":89,"time":"143.19","velocity":0.18110236220472442,"duration":"0.23"},{"name":"A5","midi":81,"time":"143.21","velocity":0.23622047244094488,"duration":"0.02"},{"name":"B5","midi":83,"time":"143.23","velocity":0.2204724409448819,"duration":"0.13"},{"name":"E6","midi":88,"time":"143.37","velocity":0.2125984251968504,"duration":"0.23"},{"name":"B5","midi":83,"time":"143.38","velocity":0.2755905511811024,"duration":"0.19"},{"name":"A5","midi":81,"time":"143.45","velocity":0.25984251968503935,"duration":"0.03"},{"name":"A4","midi":69,"time":"143.48","velocity":0.33070866141732286,"duration":"0.60"},{"name":"D5","midi":74,"time":"143.51","velocity":0.2125984251968504,"duration":"0.03"},{"name":"D#5","midi":75,"time":"143.55","velocity":0.2125984251968504,"duration":"0.03"},{"name":"A#5","midi":82,"time":"143.55","velocity":0.33858267716535434,"duration":"0.03"},{"name":"C#4","midi":61,"time":"143.57","velocity":0.3228346456692913,"duration":"0.24"},{"name":"D#4","midi":63,"time":"143.57","velocity":0.33858267716535434,"duration":"0.02"},{"name":"E5","midi":76,"time":"143.58","velocity":0.2677165354330709,"duration":"0.35"},{"name":"B5","midi":83,"time":"143.58","velocity":0.4645669291338583,"duration":"0.34"},{"name":"G#6","midi":92,"time":"143.58","velocity":0.2204724409448819,"duration":"0.24"},{"name":"E4","midi":64,"time":"143.59","velocity":0.3700787401574803,"duration":"0.34"},{"name":"G#5","midi":80,"time":"143.72","velocity":0.14173228346456693,"duration":"0.10"},{"name":"A3","midi":57,"time":"143.86","velocity":0.2677165354330709,"duration":"0.20"},{"name":"C#5","midi":73,"time":"143.87","velocity":0.2677165354330709,"duration":"0.30"},{"name":"C#4","midi":61,"time":"143.93","velocity":0.2047244094488189,"duration":"0.07"},{"name":"F4","midi":65,"time":"143.93","velocity":0.2677165354330709,"duration":"0.02"},{"name":"B5","midi":83,"time":"143.93","velocity":0.2755905511811024,"duration":"0.37"},{"name":"E5","midi":76,"time":"143.94","velocity":0.1732283464566929,"duration":"0.19"},{"name":"C4","midi":60,"time":"144.02","velocity":0.2283464566929134,"duration":"0.02"},{"name":"E4","midi":64,"time":"144.05","velocity":0.10236220472440945,"duration":"0.05"},{"name":"C#4","midi":61,"time":"144.07","velocity":0.2125984251968504,"duration":"0.08"},{"name":"G4","midi":67,"time":"144.08","velocity":0.28346456692913385,"duration":"0.03"},{"name":"A4","midi":69,"time":"144.10","velocity":0.2283464566929134,"duration":"0.12"},{"name":"A#3","midi":58,"time":"144.13","velocity":0.2204724409448819,"duration":"0.03"},{"name":"A#3","midi":58,"time":"144.17","velocity":0.23622047244094488,"duration":"0.05"},{"name":"C#5","midi":73,"time":"144.20","velocity":0.23622047244094488,"duration":"0.56"},{"name":"G#5","midi":80,"time":"144.22","velocity":0.33070866141732286,"duration":"0.43"},{"name":"A4","midi":69,"time":"144.23","velocity":0.2283464566929134,"duration":"0.09"},{"name":"E6","midi":88,"time":"144.23","velocity":0.2283464566929134,"duration":"0.20"},{"name":"C#4","midi":61,"time":"144.24","velocity":0.4330708661417323,"duration":"0.63"},{"name":"E4","midi":64,"time":"144.24","velocity":0.31496062992125984,"duration":"0.16"},{"name":"F6","midi":89,"time":"144.26","velocity":0.1732283464566929,"duration":"0.37"},{"name":"B4","midi":71,"time":"144.27","velocity":0.08661417322834646,"duration":"0.05"},{"name":"G#4","midi":68,"time":"144.33","velocity":0.25984251968503935,"duration":"0.07"},{"name":"E3","midi":52,"time":"144.35","velocity":0.10236220472440945,"duration":"0.23"},{"name":"A4","midi":69,"time":"144.40","velocity":0.25196850393700787,"duration":"0.02"},{"name":"B5","midi":83,"time":"144.40","velocity":0.2204724409448819,"duration":"0.22"},{"name":"E4","midi":64,"time":"144.42","velocity":0.23622047244094488,"duration":"0.05"},{"name":"A4","midi":69,"time":"144.43","velocity":0.25196850393700787,"duration":"0.02"},{"name":"A4","midi":69,"time":"144.47","velocity":0.2440944881889764,"duration":"0.07"},{"name":"E4","midi":64,"time":"144.48","velocity":0.1889763779527559,"duration":"0.03"},{"name":"G#4","midi":68,"time":"144.55","velocity":0.2440944881889764,"duration":"0.03"},{"name":"G4","midi":67,"time":"144.57","velocity":0.3464566929133858,"duration":"0.03"},{"name":"A4","midi":69,"time":"144.58","velocity":0.2047244094488189,"duration":"0.05"},{"name":"E6","midi":88,"time":"144.62","velocity":0.1968503937007874,"duration":"0.10"},{"name":"B5","midi":83,"time":"144.63","velocity":0.16535433070866143,"duration":"0.06"},{"name":"G#4","midi":68,"time":"144.64","velocity":0.28346456692913385,"duration":"0.22"},{"name":"F6","midi":89,"time":"144.64","velocity":0.12598425196850394,"duration":"0.05"},{"name":"G#3","midi":56,"time":"144.66","velocity":0.07874015748031496,"duration":"0.03"},{"name":"E5","midi":76,"time":"144.66","velocity":0.07086614173228346,"duration":"0.03"},{"name":"G#5","midi":80,"time":"144.67","velocity":0.3228346456692913,"duration":"0.51"},{"name":"D#6","midi":87,"time":"144.69","velocity":0.10236220472440945,"duration":"0.05"},{"name":"E3","midi":52,"time":"144.71","velocity":0.11811023622047244,"duration":"0.17"},{"name":"C#6","midi":85,"time":"144.78","velocity":0.08661417322834646,"duration":"0.03"},{"name":"E4","midi":64,"time":"144.79","velocity":0.25196850393700787,"duration":"0.02"},{"name":"B5","midi":83,"time":"144.81","velocity":0.13385826771653545,"duration":"0.07"},{"name":"D#6","midi":87,"time":"144.84","velocity":0.08661417322834646,"duration":"0.08"},{"name":"G#3","midi":56,"time":"144.87","velocity":0.11023622047244094,"duration":"0.03"},{"name":"D4","midi":62,"time":"144.87","velocity":0.3700787401574803,"duration":"0.02"},{"name":"C#4","midi":61,"time":"144.90","velocity":0.4015748031496063,"duration":"0.03"},{"name":"E3","midi":52,"time":"144.91","velocity":0.14960629921259844,"duration":"0.47"},{"name":"G#4","midi":68,"time":"144.91","velocity":0.1889763779527559,"duration":"0.49"},{"name":"E4","midi":64,"time":"144.93","velocity":0.28346456692913385,"duration":"0.05"},{"name":"E5","midi":76,"time":"144.98","velocity":0.25196850393700787,"duration":"1.17"},{"name":"E4","midi":64,"time":"144.99","velocity":0.4015748031496063,"duration":"0.78"},{"name":"B5","midi":83,"time":"144.99","velocity":0.07086614173228346,"duration":"0.06"},{"name":"C#4","midi":61,"time":"145.00","velocity":0.2283464566929134,"duration":"0.02"},{"name":"G#5","midi":80,"time":"145.22","velocity":0.3858267716535433,"duration":"1.80"},{"name":"C#4","midi":61,"time":"145.36","velocity":0.14960629921259844,"duration":"0.05"},{"name":"G#3","midi":56,"time":"145.41","velocity":0.10236220472440945,"duration":"0.07"},{"name":"C#5","midi":73,"time":"145.43","velocity":0.14173228346456693,"duration":"0.06"},{"name":"G#4","midi":68,"time":"145.44","velocity":0.28346456692913385,"duration":"0.24"},{"name":"D#6","midi":87,"time":"145.44","velocity":0.07086614173228346,"duration":"0.06"},{"name":"E3","midi":52,"time":"145.48","velocity":0.10236220472440945,"duration":"0.19"},{"name":"C#6","midi":85,"time":"145.50","velocity":0.11023622047244094,"duration":"0.07"},{"name":"D#6","midi":87,"time":"145.52","velocity":0.10236220472440945,"duration":"0.05"},{"name":"G#3","midi":56,"time":"145.65","velocity":0.08661417322834646,"duration":"0.03"},{"name":"D#6","midi":87,"time":"145.66","velocity":0.07874015748031496,"duration":"0.06"},{"name":"E3","midi":52,"time":"145.69","velocity":0.08661417322834646,"duration":"0.03"},{"name":"G#4","midi":68,"time":"145.73","velocity":0.1732283464566929,"duration":"0.03"},{"name":"C#4","midi":61,"time":"145.76","velocity":0.14960629921259844,"duration":"0.05"},{"name":"E4","midi":64,"time":"145.79","velocity":0.4094488188976378,"duration":"0.70"},{"name":"G#4","midi":68,"time":"145.80","velocity":0.25196850393700787,"duration":"0.62"},{"name":"D6","midi":86,"time":"145.80","velocity":0.07086614173228346,"duration":"0.03"},{"name":"B5","midi":83,"time":"145.81","velocity":0.07874015748031496,"duration":"0.03"},{"name":"E3","midi":52,"time":"145.84","velocity":0.12598425196850394,"duration":"0.33"},{"name":"D6","midi":86,"time":"145.94","velocity":0.07874015748031496,"duration":"0.12"},{"name":"C#4","midi":61,"time":"146.14","velocity":0.11023622047244094,"duration":"0.03"},{"name":"G#3","midi":56,"time":"146.15","velocity":0.07874015748031496,"duration":"0.16"},{"name":"D#6","midi":87,"time":"146.28","velocity":0.07874015748031496,"duration":"0.06"},{"name":"E3","midi":52,"time":"146.29","velocity":0.11811023622047244,"duration":"0.43"},{"name":"C#6","midi":85,"time":"146.30","velocity":0.07086614173228346,"duration":"0.03"},{"name":"D6","midi":86,"time":"146.31","velocity":0.07874015748031496,"duration":"0.08"},{"name":"C#6","midi":85,"time":"146.40","velocity":0.10236220472440945,"duration":"0.06"},{"name":"D#6","midi":87,"time":"146.42","velocity":0.10236220472440945,"duration":"0.06"},{"name":"G#4","midi":68,"time":"146.45","velocity":0.15748031496062992,"duration":"0.41"},{"name":"E5","midi":76,"time":"146.49","velocity":0.29133858267716534,"duration":"1.22"},{"name":"E4","midi":64,"time":"146.50","velocity":0.4330708661417323,"duration":"2.63"},{"name":"A4","midi":69,"time":"146.86","velocity":0.07086614173228346,"duration":"0.03"},{"name":"G#3","midi":56,"time":"146.87","velocity":0.07874015748031496,"duration":"0.03"},{"name":"G#4","midi":68,"time":"146.91","velocity":0.2047244094488189,"duration":"0.24"},{"name":"G#3","midi":56,"time":"146.92","velocity":0.10236220472440945,"duration":"0.06"},{"name":"C#6","midi":85,"time":"146.92","velocity":0.10236220472440945,"duration":"0.08"},{"name":"D#6","midi":87,"time":"146.95","velocity":0.09448818897637795,"duration":"0.06"},{"name":"E3","midi":52,"time":"147.00","velocity":0.09448818897637795,"duration":"0.19"},{"name":"G#5","midi":80,"time":"147.05","velocity":0.31496062992125984,"duration":"0.57"},{"name":"C#6","midi":85,"time":"147.12","velocity":0.07874015748031496,"duration":"0.03"},{"name":"D#6","midi":87,"time":"147.13","velocity":0.09448818897637795,"duration":"0.03"},{"name":"C#5","midi":73,"time":"147.15","velocity":0.08661417322834646,"duration":"0.05"},{"name":"F#6","midi":90,"time":"147.22","velocity":0.13385826771653545,"duration":"0.05"},{"name":"C6","midi":84,"time":"147.24","velocity":0.2125984251968504,"duration":"0.06"},{"name":"F3","midi":53,"time":"147.29","velocity":0.2440944881889764,"duration":"0.02"},{"name":"G#4","midi":68,"time":"147.29","velocity":0.30708661417322836,"duration":"0.35"},{"name":"G3","midi":55,"time":"147.33","velocity":0.2992125984251969,"duration":"0.02"},{"name":"B5","midi":83,"time":"147.34","velocity":0.10236220472440945,"duration":"0.05"},{"name":"G#3","midi":56,"time":"147.35","velocity":0.2755905511811024,"duration":"0.09"},{"name":"C6","midi":84,"time":"147.37","velocity":0.08661417322834646,"duration":"0.05"},{"name":"G#3","midi":56,"time":"147.49","velocity":0.13385826771653545,"duration":"0.06"},{"name":"E3","midi":52,"time":"147.57","velocity":0.09448818897637795,"duration":"0.03"},{"name":"A3","midi":57,"time":"147.63","velocity":0.33858267716535434,"duration":"0.03"},{"name":"G#6","midi":92,"time":"147.63","velocity":0.18110236220472442,"duration":"0.10"},{"name":"G#5","midi":80,"time":"147.64","velocity":0.3228346456692913,"duration":"0.34"},{"name":"G#3","midi":56,"time":"147.66","velocity":0.28346456692913385,"duration":"0.43"},{"name":"G#4","midi":68,"time":"147.66","velocity":0.31496062992125984,"duration":"0.23"},{"name":"D#5","midi":75,"time":"147.70","velocity":0.25196850393700787,"duration":"0.30"},{"name":"C#6","midi":85,"time":"147.72","velocity":0.09448818897637795,"duration":"0.15"},{"name":"D6","midi":86,"time":"147.80","velocity":0.12598425196850394,"duration":"0.14"},{"name":"G#5","midi":80,"time":"147.99","velocity":0.33858267716535434,"duration":"0.22"},{"name":"G#6","midi":92,"time":"148.34","velocity":0.1732283464566929,"duration":"0.09"},{"name":"G#5","midi":80,"time":"148.35","velocity":0.36220472440944884,"duration":"0.35"},{"name":"A3","midi":57,"time":"148.37","velocity":0.3464566929133858,"duration":"0.40"},{"name":"A#4","midi":70,"time":"148.37","velocity":0.2992125984251969,"duration":"0.02"},{"name":"D#6","midi":87,"time":"148.42","velocity":0.07874015748031496,"duration":"0.09"},{"name":"C#6","midi":85,"time":"148.45","velocity":0.08661417322834646,"duration":"0.10"},{"name":"G#4","midi":68,"time":"148.48","velocity":0.29133858267716534,"duration":"0.05"},{"name":"C#5","midi":73,"time":"148.52","velocity":0.07874015748031496,"duration":"0.09"},{"name":"D#6","midi":87,"time":"148.57","velocity":0.07086614173228346,"duration":"0.08"},{"name":"C#6","midi":85,"time":"148.63","velocity":0.07086614173228346,"duration":"0.03"},{"name":"C#6","midi":85,"time":"148.71","velocity":0.10236220472440945,"duration":"0.03"},{"name":"G#6","midi":92,"time":"148.72","velocity":0.15748031496062992,"duration":"0.19"},{"name":"G#5","midi":80,"time":"148.74","velocity":0.31496062992125984,"duration":"0.30"},{"name":"E6","midi":88,"time":"148.74","velocity":0.15748031496062992,"duration":"0.15"},{"name":"A3","midi":57,"time":"148.78","velocity":0.2755905511811024,"duration":"0.10"},{"name":"G#4","midi":68,"time":"148.78","velocity":0.23622047244094488,"duration":"0.31"},{"name":"E3","midi":52,"time":"148.84","velocity":0.11811023622047244,"duration":"0.26"},{"name":"D6","midi":86,"time":"148.93","velocity":0.07086614173228346,"duration":"0.06"},{"name":"G#3","midi":56,"time":"149.03","velocity":0.07874015748031496,"duration":"0.03"},{"name":"G#5","midi":80,"time":"149.07","velocity":0.3228346456692913,"duration":"0.31"},{"name":"G#4","midi":68,"time":"149.13","velocity":0.2440944881889764,"duration":"0.73"},{"name":"B4","midi":71,"time":"149.13","velocity":0.08661417322834646,"duration":"0.06"},{"name":"E4","midi":64,"time":"149.15","velocity":0.4094488188976378,"duration":"1.16"},{"name":"G#3","midi":56,"time":"149.16","velocity":0.09448818897637795,"duration":"0.03"},{"name":"E3","midi":52,"time":"149.22","velocity":0.11023622047244094,"duration":"0.19"},{"name":"G#3","midi":56,"time":"149.28","velocity":0.08661417322834646,"duration":"0.03"},{"name":"D#6","midi":87,"time":"149.31","velocity":0.10236220472440945,"duration":"0.03"},{"name":"C#6","midi":85,"time":"149.33","velocity":0.07874015748031496,"duration":"0.03"},{"name":"D#6","midi":87,"time":"149.37","velocity":0.11811023622047244,"duration":"0.05"},{"name":"G#3","midi":56,"time":"149.38","velocity":0.11811023622047244,"duration":"0.05"},{"name":"C#5","midi":73,"time":"149.41","velocity":0.11811023622047244,"duration":"0.08"},{"name":"E3","midi":52,"time":"149.43","velocity":0.07874015748031496,"duration":"0.05"},{"name":"D#6","midi":87,"time":"149.47","velocity":0.09448818897637795,"duration":"0.05"},{"name":"A6","midi":93,"time":"149.48","velocity":0.2047244094488189,"duration":"0.12"},{"name":"A5","midi":81,"time":"149.50","velocity":0.2440944881889764,"duration":"0.41"},{"name":"B4","midi":71,"time":"149.52","velocity":0.33858267716535434,"duration":"0.83"},{"name":"B3","midi":59,"time":"149.53","velocity":0.3700787401574803,"duration":"0.85"},{"name":"E3","midi":52,"time":"149.59","velocity":0.07874015748031496,"duration":"0.05"},{"name":"G#5","midi":80,"time":"149.87","velocity":0.29133858267716534,"duration":"0.33"},{"name":"G#4","midi":68,"time":"149.92","velocity":0.2440944881889764,"duration":"0.29"},{"name":"C#5","midi":73,"time":"149.93","velocity":0.09448818897637795,"duration":"0.05"},{"name":"E3","midi":52,"time":"149.97","velocity":0.11023622047244094,"duration":"0.08"},{"name":"A5","midi":81,"time":"149.97","velocity":0.14960629921259844,"duration":"0.09"},{"name":"C#5","midi":73,"time":"150.01","velocity":0.10236220472440945,"duration":"0.03"},{"name":"D#6","midi":87,"time":"150.02","velocity":0.11023622047244094,"duration":"0.05"},{"name":"D6","midi":86,"time":"150.03","velocity":0.10236220472440945,"duration":"0.03"},{"name":"D#3","midi":51,"time":"150.07","velocity":0.14173228346456693,"duration":"0.05"},{"name":"C#6","midi":85,"time":"150.14","velocity":0.09448818897637795,"duration":"0.03"},{"name":"D3","midi":50,"time":"150.20","velocity":0.14173228346456693,"duration":"0.05"},{"name":"D5","midi":74,"time":"150.22","velocity":0.2125984251968504,"duration":"0.13"},{"name":"G#5","midi":80,"time":"150.22","velocity":0.16535433070866143,"duration":"0.08"},{"name":"A#5","midi":82,"time":"150.22","velocity":0.07874015748031496,"duration":"0.03"},{"name":"D#6","midi":87,"time":"150.22","velocity":0.08661417322834646,"duration":"0.03"},{"name":"F#5","midi":78,"time":"150.23","velocity":0.11811023622047244,"duration":"0.05"},{"name":"F#6","midi":90,"time":"150.27","velocity":0.13385826771653545,"duration":"0.09"},{"name":"E4","midi":64,"time":"150.33","velocity":0.3543307086614173,"duration":"0.03"},{"name":"C#5","midi":73,"time":"150.35","velocity":0.07874015748031496,"duration":"0.06"},{"name":"E4","midi":64,"time":"150.37","velocity":0.3543307086614173,"duration":"0.21"},{"name":"F#5","midi":78,"time":"150.37","velocity":0.09448818897637795,"duration":"0.16"},{"name":"D3","midi":50,"time":"150.44","velocity":0.11023622047244094,"duration":"0.17"},{"name":"D5","midi":74,"time":"150.47","velocity":0.23622047244094488,"duration":"0.16"},{"name":"F#4","midi":66,"time":"150.57","velocity":0.25196850393700787,"duration":"0.05"},{"name":"D#4","midi":63,"time":"150.58","velocity":0.29133858267716534,"duration":"0.02"},{"name":"A5","midi":81,"time":"150.59","velocity":0.31496062992125984,"duration":"0.05"},{"name":"F#5","midi":78,"time":"150.60","velocity":0.28346456692913385,"duration":"0.64"},{"name":"D4","midi":62,"time":"150.63","velocity":0.4566929133858268,"duration":"0.05"},{"name":"F#4","midi":66,"time":"150.63","velocity":0.2440944881889764,"duration":"0.73"},{"name":"B4","midi":71,"time":"150.63","velocity":0.09448818897637795,"duration":"0.03"},{"name":"A#5","midi":82,"time":"150.63","velocity":0.07086614173228346,"duration":"0.05"},{"name":"G#5","midi":80,"time":"150.64","velocity":0.31496062992125984,"duration":"0.59"},{"name":"C#6","midi":85,"time":"150.65","velocity":0.2755905511811024,"duration":"0.49"},{"name":"E6","midi":88,"time":"150.66","velocity":0.11023622047244094,"duration":"0.08"},{"name":"C#4","midi":61,"time":"150.67","velocity":0.41732283464566927,"duration":"0.02"},{"name":"D5","midi":74,"time":"150.67","velocity":0.14173228346456693,"duration":"0.03"},{"name":"F6","midi":89,"time":"150.69","velocity":0.16535433070866143,"duration":"0.49"},{"name":"D4","midi":62,"time":"150.70","velocity":0.47244094488188976,"duration":"0.02"},{"name":"C#5","midi":73,"time":"150.71","velocity":0.1968503937007874,"duration":"0.14"},{"name":"C#4","midi":61,"time":"150.72","velocity":0.48031496062992124,"duration":"0.13"},{"name":"A5","midi":81,"time":"150.84","velocity":0.2204724409448819,"duration":"0.07"},{"name":"C#4","midi":61,"time":"150.86","velocity":0.47244094488188976,"duration":"0.10"},{"name":"D5","midi":74,"time":"150.87","velocity":0.14173228346456693,"duration":"0.06"},{"name":"A5","midi":81,"time":"150.92","velocity":0.2204724409448819,"duration":"0.07"},{"name":"D4","midi":62,"time":"150.97","velocity":0.4330708661417323,"duration":"0.02"},{"name":"C#4","midi":61,"time":"150.99","velocity":0.4881889763779528,"duration":"0.15"},{"name":"D5","midi":74,"time":"151.00","velocity":0.30708661417322836,"duration":"1.22"},{"name":"E6","midi":88,"time":"151.00","velocity":0.09448818897637795,"duration":"0.06"},{"name":"C#4","midi":61,"time":"151.15","velocity":0.5039370078740157,"duration":"0.08"},{"name":"D4","midi":62,"time":"151.23","velocity":0.4251968503937008,"duration":"0.83"},{"name":"A3","midi":57,"time":"151.27","velocity":0.36220472440944884,"duration":"0.02"},{"name":"G#3","midi":56,"time":"151.29","velocity":0.3779527559055118,"duration":"0.07"},{"name":"G#5","midi":80,"time":"151.33","velocity":0.10236220472440945,"duration":"0.15"},{"name":"A3","midi":57,"time":"151.36","velocity":0.3937007874015748,"duration":"0.80"},{"name":"F#4","midi":66,"time":"151.37","velocity":0.25984251968503935,"duration":"0.36"},{"name":"E5","midi":76,"time":"151.38","velocity":0.1732283464566929,"duration":"0.34"},{"name":"A#5","midi":82,"time":"151.38","velocity":0.11811023622047244,"duration":"0.06"},{"name":"D3","midi":50,"time":"151.40","velocity":0.07086614173228346,"duration":"0.03"},{"name":"C#6","midi":85,"time":"151.47","velocity":0.15748031496062992,"duration":"0.05"},{"name":"A5","midi":81,"time":"151.48","velocity":0.14960629921259844,"duration":"0.03"},{"name":"G#5","midi":80,"time":"151.50","velocity":0.12598425196850394,"duration":"0.03"},{"name":"A5","midi":81,"time":"151.53","velocity":0.23622047244094488,"duration":"0.06"},{"name":"D3","midi":50,"time":"151.55","velocity":0.09448818897637795,"duration":"0.05"},{"name":"C#6","midi":85,"time":"151.55","velocity":0.11023622047244094,"duration":"0.03"},{"name":"A5","midi":81,"time":"151.62","velocity":0.2047244094488189,"duration":"0.16"},{"name":"D3","midi":50,"time":"151.63","velocity":0.09448818897637795,"duration":"0.07"},{"name":"C#6","midi":85,"time":"151.64","velocity":0.11023622047244094,"duration":"0.06"},{"name":"D3","midi":50,"time":"151.71","velocity":0.07874015748031496,"duration":"0.07"},{"name":"E6","midi":88,"time":"151.73","velocity":0.09448818897637795,"duration":"0.05"},{"name":"F#4","midi":66,"time":"151.76","velocity":0.2992125984251969,"duration":"0.35"},{"name":"A#5","midi":82,"time":"151.78","velocity":0.07874015748031496,"duration":"0.03"},{"name":"A5","midi":81,"time":"151.81","velocity":0.07874015748031496,"duration":"0.03"},{"name":"C#6","midi":85,"time":"151.94","velocity":0.10236220472440945,"duration":"0.03"},{"name":"F#5","midi":78,"time":"152.12","velocity":0.18110236220472442,"duration":"0.08"},{"name":"F#4","midi":66,"time":"152.13","velocity":0.25196850393700787,"duration":"0.72"},{"name":"E6","midi":88,"time":"152.13","velocity":0.14960629921259844,"duration":"0.05"},{"name":"D3","midi":50,"time":"152.17","velocity":0.07874015748031496,"duration":"0.03"},{"name":"A3","midi":57,"time":"152.17","velocity":0.2440944881889764,"duration":"0.13"},{"name":"A5","midi":81,"time":"152.17","velocity":0.16535433070866143,"duration":"0.24"},{"name":"D4","midi":62,"time":"152.19","velocity":0.3937007874015748,"duration":"0.67"},{"name":"F#6","midi":90,"time":"152.21","velocity":0.11811023622047244,"duration":"0.12"},{"name":"C#5","midi":73,"time":"152.22","velocity":0.2440944881889764,"duration":"0.14"},{"name":"D3","midi":50,"time":"152.28","velocity":0.11811023622047244,"duration":"0.23"},{"name":"A5","midi":81,"time":"152.44","velocity":0.2125984251968504,"duration":"0.06"},{"name":"C#6","midi":85,"time":"152.45","velocity":0.08661417322834646,"duration":"0.06"},{"name":"F#5","midi":78,"time":"152.47","velocity":0.29133858267716534,"duration":"0.77"},{"name":"E6","midi":88,"time":"152.51","velocity":0.10236220472440945,"duration":"0.09"},{"name":"D3","midi":50,"time":"152.53","velocity":0.09448818897637795,"duration":"0.06"},{"name":"D3","midi":50,"time":"152.64","velocity":0.07086614173228346,"duration":"0.03"},{"name":"A5","midi":81,"time":"152.86","velocity":0.2283464566929134,"duration":"0.17"},{"name":"A#5","midi":82,"time":"152.87","velocity":0.11811023622047244,"duration":"0.06"},{"name":"D4","midi":62,"time":"152.88","velocity":0.41732283464566927,"duration":"0.36"},{"name":"F#4","midi":66,"time":"152.88","velocity":0.25196850393700787,"duration":"0.41"},{"name":"A4","midi":69,"time":"152.93","velocity":0.09448818897637795,"duration":"0.06"},{"name":"C#6","midi":85,"time":"153.01","velocity":0.07874015748031496,"duration":"0.03"},{"name":"A5","midi":81,"time":"153.07","velocity":0.18110236220472442,"duration":"0.22"},{"name":"C#6","midi":85,"time":"153.23","velocity":0.14960629921259844,"duration":"0.06"},{"name":"A#5","midi":82,"time":"153.27","velocity":0.09448818897637795,"duration":"0.03"},{"name":"E6","midi":88,"time":"153.27","velocity":0.07086614173228346,"duration":"0.05"},{"name":"G3","midi":55,"time":"153.28","velocity":0.31496062992125984,"duration":"0.05"},{"name":"D4","midi":62,"time":"153.29","velocity":0.4015748031496063,"duration":"1.10"},{"name":"F#4","midi":66,"time":"153.30","velocity":0.30708661417322836,"duration":"0.08"},{"name":"F#3","midi":54,"time":"153.33","velocity":0.2440944881889764,"duration":"0.03"},{"name":"F#6","midi":90,"time":"153.35","velocity":0.16535433070866143,"duration":"0.15"},{"name":"G3","midi":55,"time":"153.36","velocity":0.3228346456692913,"duration":"0.06"},{"name":"G#4","midi":68,"time":"153.41","velocity":0.2677165354330709,"duration":"0.07"},{"name":"G#3","midi":56,"time":"153.42","velocity":0.3228346456692913,"duration":"0.06"},{"name":"F#4","midi":66,"time":"153.43","velocity":0.25196850393700787,"duration":"0.16"},{"name":"D3","midi":50,"time":"153.45","velocity":0.09448818897637795,"duration":"0.15"},{"name":"A3","midi":57,"time":"153.48","velocity":0.33070866141732286,"duration":"0.08"},{"name":"G#3","midi":56,"time":"153.56","velocity":0.36220472440944884,"duration":"0.72"},{"name":"F#5","midi":78,"time":"153.60","velocity":0.30708661417322836,"duration":"0.67"},{"name":"F#4","midi":66,"time":"153.63","velocity":0.1889763779527559,"duration":"0.05"},{"name":"A5","midi":81,"time":"153.64","velocity":0.1889763779527559,"duration":"0.27"},{"name":"F#4","midi":66,"time":"153.69","velocity":0.2755905511811024,"duration":"0.03"},{"name":"F#4","midi":66,"time":"153.73","velocity":0.25984251968503935,"duration":"0.15"},{"name":"C#6","midi":85,"time":"153.84","velocity":0.07086614173228346,"duration":"0.06"},{"name":"F#4","midi":66,"time":"153.94","velocity":0.2755905511811024,"duration":"0.36"},{"name":"A5","midi":81,"time":"153.94","velocity":0.18110236220472442,"duration":"0.08"},{"name":"G#4","midi":68,"time":"154.30","velocity":0.10236220472440945,"duration":"0.05"},{"name":"E3","midi":52,"time":"154.35","velocity":0.2283464566929134,"duration":"0.02"},{"name":"F#4","midi":66,"time":"154.36","velocity":0.2440944881889764,"duration":"0.02"},{"name":"F3","midi":53,"time":"154.37","velocity":0.2992125984251969,"duration":"0.03"},{"name":"A5","midi":81,"time":"154.37","velocity":0.2283464566929134,"duration":"0.10"},{"name":"F#6","midi":90,"time":"154.38","velocity":0.10236220472440945,"duration":"0.03"},{"name":"C#5","midi":73,"time":"154.40","velocity":0.2283464566929134,"duration":"0.02"},{"name":"F#5","midi":78,"time":"154.40","velocity":0.3228346456692913,"duration":"0.95"},{"name":"E6","midi":88,"time":"154.40","velocity":0.1732283464566929,"duration":"0.03"},{"name":"F#3","midi":54,"time":"154.41","velocity":0.25984251968503935,"duration":"0.14"},{"name":"D4","midi":62,"time":"154.41","velocity":0.41732283464566927,"duration":"0.71"},{"name":"F#4","midi":66,"time":"154.43","velocity":0.30708661417322836,"duration":"0.31"},{"name":"C#6","midi":85,"time":"154.43","velocity":0.11023622047244094,"duration":"0.05"},{"name":"A4","midi":69,"time":"154.45","velocity":0.07874015748031496,"duration":"0.06"},{"name":"A#5","midi":82,"time":"154.51","velocity":0.18110236220472442,"duration":"0.03"},{"name":"A5","midi":81,"time":"154.53","velocity":0.23622047244094488,"duration":"0.08"},{"name":"A#5","midi":82,"time":"154.60","velocity":0.1732283464566929,"duration":"0.08"},{"name":"F#3","midi":54,"time":"154.62","velocity":0.2283464566929134,"duration":"0.28"},{"name":"A4","midi":69,"time":"154.62","velocity":0.10236220472440945,"duration":"0.03"},{"name":"A5","midi":81,"time":"154.63","velocity":0.18110236220472442,"duration":"0.03"},{"name":"A5","midi":81,"time":"154.67","velocity":0.1889763779527559,"duration":"0.10"},{"name":"C#6","midi":85,"time":"154.67","velocity":0.08661417322834646,"duration":"0.09"},{"name":"A#5","midi":82,"time":"154.71","velocity":0.1968503937007874,"duration":"0.14"},{"name":"F#4","midi":66,"time":"154.76","velocity":0.30708661417322836,"duration":"0.34"},{"name":"A5","midi":81,"time":"154.83","velocity":0.09448818897637795,"duration":"0.07"},{"name":"E6","midi":88,"time":"154.86","velocity":0.07874015748031496,"duration":"0.03"},{"name":"C#5","midi":73,"time":"154.88","velocity":0.1889763779527559,"duration":"0.08"},{"name":"A#5","midi":82,"time":"154.92","velocity":0.13385826771653545,"duration":"0.09"},{"name":"F#3","midi":54,"time":"154.93","velocity":0.12598425196850394,"duration":"0.03"},{"name":"D3","midi":50,"time":"155.01","velocity":0.12598425196850394,"duration":"0.08"},{"name":"F#3","midi":54,"time":"155.12","velocity":0.15748031496062992,"duration":"0.05"},{"name":"D4","midi":62,"time":"155.13","velocity":0.3937007874015748,"duration":"0.42"},{"name":"F#4","midi":66,"time":"155.14","velocity":0.28346456692913385,"duration":"1.14"},{"name":"A5","midi":81,"time":"155.15","velocity":0.2283464566929134,"duration":"0.20"},{"name":"F#3","midi":54,"time":"155.17","velocity":0.1968503937007874,"duration":"0.12"},{"name":"E6","midi":88,"time":"155.23","velocity":0.11811023622047244,"duration":"0.05"},{"name":"C#5","midi":73,"time":"155.27","velocity":0.1968503937007874,"duration":"0.05"},{"name":"A5","midi":81,"time":"155.37","velocity":0.23622047244094488,"duration":"0.14"},{"name":"A#5","midi":82,"time":"155.51","velocity":0.09448818897637795,"duration":"0.03"},{"name":"C#5","midi":73,"time":"155.52","velocity":0.3937007874015748,"duration":"0.06"},{"name":"E5","midi":76,"time":"155.52","velocity":0.2677165354330709,"duration":"0.73"},{"name":"G#5","midi":80,"time":"155.53","velocity":0.3543307086614173,"duration":"0.43"},{"name":"F6","midi":89,"time":"155.53","velocity":0.12598425196850394,"duration":"0.06"},{"name":"F#3","midi":54,"time":"155.55","velocity":0.08661417322834646,"duration":"0.14"},{"name":"C#4","midi":61,"time":"155.55","velocity":0.3543307086614173,"duration":"0.02"},{"name":"D5","midi":74,"time":"155.57","velocity":0.31496062992125984,"duration":"0.77"},{"name":"C#4","midi":61,"time":"155.58","velocity":0.3700787401574803,"duration":"0.03"},{"name":"C#6","midi":85,"time":"155.60","velocity":0.2204724409448819,"duration":"0.29"},{"name":"F#6","midi":90,"time":"155.60","velocity":0.11023622047244094,"duration":"0.10"},{"name":"C#4","midi":61,"time":"155.63","velocity":0.47244094488188976,"duration":"0.26"},{"name":"F6","midi":89,"time":"155.64","velocity":0.2440944881889764,"duration":"0.26"},{"name":"F#6","midi":90,"time":"155.79","velocity":0.07874015748031496,"duration":"0.06"},{"name":"C#4","midi":61,"time":"155.90","velocity":0.49606299212598426,"duration":"0.06"},{"name":"C#6","midi":85,"time":"155.94","velocity":0.11811023622047244,"duration":"0.05"},{"name":"A5","midi":81,"time":"155.95","velocity":0.2440944881889764,"duration":"0.30"},{"name":"A4","midi":69,"time":"155.98","velocity":0.08661417322834646,"duration":"0.03"},{"name":"G#5","midi":80,"time":"155.98","velocity":0.15748031496062992,"duration":"0.09"},{"name":"D4","midi":62,"time":"155.99","velocity":0.4881889763779528,"duration":"0.05"},{"name":"C#6","midi":85,"time":"156.03","velocity":0.13385826771653545,"duration":"0.03"},{"name":"C#4","midi":61,"time":"156.05","velocity":0.49606299212598426,"duration":"0.06"},{"name":"D3","midi":50,"time":"156.09","velocity":0.09448818897637795,"duration":"0.16"},{"name":"D4","midi":62,"time":"156.10","velocity":0.48031496062992124,"duration":"0.22"},{"name":"A3","midi":57,"time":"156.24","velocity":0.2125984251968504,"duration":"0.07"},{"name":"A4","midi":69,"time":"156.26","velocity":0.33070866141732286,"duration":"0.16"},{"name":"A2","midi":45,"time":"156.31","velocity":0.29133858267716534,"duration":"0.02"},{"name":"E4","midi":64,"time":"156.31","velocity":0.33070866141732286,"duration":"0.02"},{"name":"E6","midi":88,"time":"156.31","velocity":0.13385826771653545,"duration":"0.07"},{"name":"C#5","midi":73,"time":"156.33","velocity":0.23622047244094488,"duration":"0.08"},{"name":"G5","midi":79,"time":"156.33","velocity":0.15748031496062992,"duration":"0.03"},{"name":"A#3","midi":58,"time":"156.34","velocity":0.25196850393700787,"duration":"0.02"},{"name":"A2","midi":45,"time":"156.35","velocity":0.31496062992125984,"duration":"0.06"},{"name":"D4","midi":62,"time":"156.35","velocity":0.31496062992125984,"duration":"0.02"},{"name":"A3","midi":57,"time":"156.36","velocity":0.44881889763779526,"duration":"0.27"},{"name":"F4","midi":65,"time":"156.36","velocity":0.28346456692913385,"duration":"0.02"},{"name":"E4","midi":64,"time":"156.38","velocity":0.2755905511811024,"duration":"0.02"},{"name":"D4","midi":62,"time":"156.40","velocity":0.3228346456692913,"duration":"0.07"},{"name":"G#2","midi":44,"time":"156.41","velocity":0.28346456692913385,"duration":"0.03"},{"name":"A2","midi":45,"time":"156.44","velocity":0.3543307086614173,"duration":"0.52"},{"name":"E4","midi":64,"time":"156.45","velocity":0.25984251968503935,"duration":"0.07"},{"name":"G5","midi":79,"time":"156.49","velocity":0.23622047244094488,"duration":"0.05"},{"name":"A5","midi":81,"time":"156.50","velocity":0.1732283464566929,"duration":"0.17"},{"name":"E5","midi":76,"time":"156.53","velocity":0.18110236220472442,"duration":"0.05"},{"name":"B5","midi":83,"time":"156.55","velocity":0.11811023622047244,"duration":"0.05"},{"name":"E4","midi":64,"time":"156.56","velocity":0.2440944881889764,"duration":"0.12"},{"name":"G5","midi":79,"time":"156.56","velocity":0.11023622047244094,"duration":"0.12"},{"name":"G#4","midi":68,"time":"156.57","velocity":0.13385826771653545,"duration":"0.03"},{"name":"E6","midi":88,"time":"156.60","velocity":0.07086614173228346,"duration":"0.06"},{"name":"C#5","midi":73,"time":"156.62","velocity":0.2440944881889764,"duration":"0.10"},{"name":"A3","midi":57,"time":"156.64","velocity":0.47244094488188976,"duration":"1.12"},{"name":"E5","midi":76,"time":"156.67","velocity":0.28346456692913385,"duration":"3.29"},{"name":"F5","midi":77,"time":"156.71","velocity":0.07874015748031496,"duration":"0.03"},{"name":"E4","midi":64,"time":"156.73","velocity":0.23622047244094488,"duration":"0.30"},{"name":"G4","midi":67,"time":"156.73","velocity":0.15748031496062992,"duration":"0.03"},{"name":"A1","midi":33,"time":"156.84","velocity":0.18110236220472442,"duration":"0.06"},{"name":"C#5","midi":73,"time":"156.85","velocity":0.11811023622047244,"duration":"0.07"},{"name":"C#4","midi":61,"time":"156.90","velocity":0.15748031496062992,"duration":"0.03"},{"name":"A1","midi":33,"time":"156.91","velocity":0.1889763779527559,"duration":"0.03"},{"name":"A1","midi":33,"time":"156.95","velocity":0.14960629921259844,"duration":"0.07"},{"name":"G4","midi":67,"time":"156.98","velocity":0.14960629921259844,"duration":"0.03"},{"name":"B4","midi":71,"time":"156.98","velocity":0.1732283464566929,"duration":"0.14"},{"name":"B6","midi":95,"time":"156.99","velocity":0.07874015748031496,"duration":"0.05"},{"name":"E7","midi":100,"time":"156.99","velocity":0.14173228346456693,"duration":"0.07"},{"name":"G4","midi":67,"time":"157.02","velocity":0.11023622047244094,"duration":"0.07"},{"name":"A1","midi":33,"time":"157.03","velocity":0.1889763779527559,"duration":"0.05"},{"name":"D6","midi":86,"time":"157.06","velocity":0.07874015748031496,"duration":"0.06"},{"name":"E4","midi":64,"time":"157.10","velocity":0.12598425196850394,"duration":"0.08"},{"name":"B5","midi":83,"time":"157.14","velocity":0.33070866141732286,"duration":"0.67"},{"name":"A#1","midi":34,"time":"157.15","velocity":0.2047244094488189,"duration":"0.03"},{"name":"A2","midi":45,"time":"157.16","velocity":0.2047244094488189,"duration":"0.30"},{"name":"G4","midi":67,"time":"157.17","velocity":0.07086614173228346,"duration":"0.03"},{"name":"C#4","midi":61,"time":"157.26","velocity":0.11023622047244094,"duration":"0.06"},{"name":"G#5","midi":80,"time":"157.26","velocity":0.16535433070866143,"duration":"0.26"},{"name":"E7","midi":100,"time":"157.36","velocity":0.09448818897637795,"duration":"0.07"},{"name":"D6","midi":86,"time":"157.38","velocity":0.08661417322834646,"duration":"0.15"},{"name":"E4","midi":64,"time":"157.52","velocity":0.2283464566929134,"duration":"0.49"},{"name":"A1","midi":33,"time":"157.58","velocity":0.08661417322834646,"duration":"0.07"},{"name":"B4","midi":71,"time":"157.62","velocity":0.07874015748031496,"duration":"0.21"},{"name":"A#1","midi":34,"time":"157.65","velocity":0.08661417322834646,"duration":"0.05"},{"name":"G#5","midi":80,"time":"157.67","velocity":0.09448818897637795,"duration":"0.07"},{"name":"E3","midi":52,"time":"157.70","velocity":0.14960629921259844,"duration":"0.45"},{"name":"B5","midi":83,"time":"157.86","velocity":0.2204724409448819,"duration":"0.65"},{"name":"C#4","midi":61,"time":"157.92","velocity":0.07086614173228346,"duration":"0.03"},{"name":"A3","midi":57,"time":"157.94","velocity":0.2125984251968504,"duration":"0.55"},{"name":"E4","midi":64,"time":"158.07","velocity":0.14960629921259844,"duration":"0.22"},{"name":"E3","midi":52,"time":"158.21","velocity":0.14173228346456693,"duration":"0.26"},{"name":"D6","midi":86,"time":"158.48","velocity":0.10236220472440945,"duration":"0.03"},{"name":"B4","midi":71,"time":"158.49","velocity":0.08661417322834646,"duration":"0.09"},{"name":"F7","midi":101,"time":"158.50","velocity":0.13385826771653545,"duration":"0.03"},{"name":"E7","midi":100,"time":"158.53","velocity":0.13385826771653545,"duration":"0.06"},{"name":"D6","midi":86,"time":"158.57","velocity":0.11023622047244094,"duration":"0.08"},{"name":"B5","midi":83,"time":"158.62","velocity":0.2992125984251969,"duration":"0.66"},{"name":"E4","midi":64,"time":"158.63","velocity":0.11811023622047244,"duration":"0.26"},{"name":"G#5","midi":80,"time":"158.74","velocity":0.10236220472440945,"duration":"0.20"},{"name":"E4","midi":64,"time":"158.95","velocity":0.2283464566929134,"duration":"0.33"},{"name":"E3","midi":52,"time":"159.19","velocity":0.07086614173228346,"duration":"0.06"},{"name":"A4","midi":69,"time":"159.26","velocity":0.4094488188976378,"duration":"0.13"},{"name":"G2","midi":43,"time":"159.28","velocity":0.23622047244094488,"duration":"0.02"},{"name":"G#2","midi":44,"time":"159.30","velocity":0.2677165354330709,"duration":"0.02"},{"name":"F#5","midi":78,"time":"159.30","velocity":0.2204724409448819,"duration":"0.06"},{"name":"B5","midi":83,"time":"159.30","velocity":0.12598425196850394,"duration":"0.17"},{"name":"A3","midi":57,"time":"159.31","velocity":0.4015748031496063,"duration":"0.14"},{"name":"C#4","midi":61,"time":"159.31","velocity":0.2755905511811024,"duration":"0.03"},{"name":"E4","midi":64,"time":"159.33","velocity":0.33070866141732286,"duration":"0.20"},{"name":"A2","midi":45,"time":"159.36","velocity":0.30708661417322836,"duration":"0.08"},{"name":"G5","midi":79,"time":"159.36","velocity":0.2755905511811024,"duration":"0.15"},{"name":"C#7","midi":97,"time":"159.42","velocity":0.07086614173228346,"duration":"0.03"},{"name":"E3","midi":52,"time":"159.44","velocity":0.15748031496062992,"duration":"0.03"},{"name":"A2","midi":45,"time":"159.45","velocity":0.36220472440944884,"duration":"1.36"},{"name":"A4","midi":69,"time":"159.45","velocity":0.3228346456692913,"duration":"0.63"},{"name":"A3","midi":57,"time":"159.47","velocity":0.48031496062992124,"duration":"0.16"},{"name":"E4","midi":64,"time":"159.56","velocity":0.14960629921259844,"duration":"0.03"},{"name":"C#5","midi":73,"time":"159.56","velocity":0.18110236220472442,"duration":"0.45"},{"name":"B5","midi":83,"time":"159.57","velocity":0.1889763779527559,"duration":"0.08"},{"name":"G4","midi":67,"time":"159.58","velocity":0.2125984251968504,"duration":"0.17"},{"name":"C#4","midi":61,"time":"159.60","velocity":0.13385826771653545,"duration":"0.10"},{"name":"E4","midi":64,"time":"159.62","velocity":0.07874015748031496,"duration":"0.03"},{"name":"A3","midi":57,"time":"159.64","velocity":0.48031496062992124,"duration":"0.21"},{"name":"E4","midi":64,"time":"159.71","velocity":0.2204724409448819,"duration":"0.15"},{"name":"B5","midi":83,"time":"159.71","velocity":0.23622047244094488,"duration":"0.35"},{"name":"B4","midi":71,"time":"159.83","velocity":0.08661417322834646,"duration":"0.10"},{"name":"A3","midi":57,"time":"159.87","velocity":0.4881889763779528,"duration":"0.44"},{"name":"E4","midi":64,"time":"159.90","velocity":0.1732283464566929,"duration":"0.08"},{"name":"G5","midi":79,"time":"159.91","velocity":0.10236220472440945,"duration":"0.03"},{"name":"E4","midi":64,"time":"159.99","velocity":0.1732283464566929,"duration":"0.06"},{"name":"F7","midi":101,"time":"159.99","velocity":0.2047244094488189,"duration":"0.08"},{"name":"D#7","midi":99,"time":"160.00","velocity":0.08661417322834646,"duration":"0.10"},{"name":"A#6","midi":94,"time":"160.02","velocity":0.10236220472440945,"duration":"0.03"},{"name":"F#7","midi":102,"time":"160.03","velocity":0.11023622047244094,"duration":"0.06"},{"name":"E4","midi":64,"time":"160.07","velocity":0.2440944881889764,"duration":"0.17"},{"name":"C#5","midi":73,"time":"160.07","velocity":0.11811023622047244,"duration":"0.03"},{"name":"E7","midi":100,"time":"160.07","velocity":0.14960629921259844,"duration":"0.03"},{"name":"G5","midi":79,"time":"160.08","velocity":0.12598425196850394,"duration":"0.05"},{"name":"E5","midi":76,"time":"160.09","velocity":0.2992125984251969,"duration":"0.36"},{"name":"G5","midi":79,"time":"160.16","velocity":0.15748031496062992,"duration":"0.08"},{"name":"B5","midi":83,"time":"160.16","velocity":0.2677165354330709,"duration":"0.77"},{"name":"C#5","midi":73,"time":"160.26","velocity":0.09448818897637795,"duration":"0.07"},{"name":"G#5","midi":80,"time":"160.28","velocity":0.07086614173228346,"duration":"0.10"},{"name":"A3","midi":57,"time":"160.34","velocity":0.36220472440944884,"duration":"0.06"},{"name":"B4","midi":71,"time":"160.38","velocity":0.31496062992125984,"duration":"0.56"},{"name":"B3","midi":59,"time":"160.41","velocity":0.4330708661417323,"duration":"0.52"},{"name":"D6","midi":86,"time":"160.41","velocity":0.10236220472440945,"duration":"0.22"},{"name":"A4","midi":69,"time":"160.47","velocity":0.11811023622047244,"duration":"0.03"},{"name":"E3","midi":52,"time":"160.49","velocity":0.13385826771653545,"duration":"0.20"},{"name":"A4","midi":69,"time":"160.52","velocity":0.10236220472440945,"duration":"0.05"},{"name":"C#7","midi":97,"time":"160.60","velocity":0.09448818897637795,"duration":"0.06"},{"name":"E4","midi":64,"time":"160.65","velocity":0.2125984251968504,"duration":"0.85"},{"name":"A4","midi":69,"time":"160.67","velocity":0.10236220472440945,"duration":"0.05"},{"name":"E3","midi":52,"time":"160.70","velocity":0.13385826771653545,"duration":"0.08"},{"name":"E5","midi":76,"time":"160.77","velocity":0.2204724409448819,"duration":"0.92"},{"name":"E3","midi":52,"time":"160.83","velocity":0.15748031496062992,"duration":"0.69"},{"name":"B3","midi":59,"time":"160.95","velocity":0.2283464566929134,"duration":"0.17"},{"name":"A4","midi":69,"time":"161.06","velocity":0.09448818897637795,"duration":"0.05"},{"name":"A3","midi":57,"time":"161.16","velocity":0.2047244094488189,"duration":"0.07"},{"name":"B3","midi":59,"time":"161.33","velocity":0.18110236220472442,"duration":"0.17"},{"name":"G#5","midi":80,"time":"161.49","velocity":0.4881889763779528,"duration":"1.26"},{"name":"C#5","midi":73,"time":"161.50","velocity":0.3543307086614173,"duration":"0.93"},{"name":"F6","midi":89,"time":"161.50","velocity":0.25984251968503935,"duration":"0.64"},{"name":"C#4","midi":61,"time":"161.51","velocity":0.3858267716535433,"duration":"0.55"},{"name":"D#7","midi":99,"time":"161.51","velocity":0.07086614173228346,"duration":"0.09"},{"name":"F#7","midi":102,"time":"161.56","velocity":0.12598425196850394,"duration":"0.05"},{"name":"B4","midi":71,"time":"161.57","velocity":0.2283464566929134,"duration":"0.10"},{"name":"E3","midi":52,"time":"161.73","velocity":0.11811023622047244,"duration":"0.14"},{"name":"B4","midi":71,"time":"161.73","velocity":0.2047244094488189,"duration":"0.21"},{"name":"E4","midi":64,"time":"161.81","velocity":0.2283464566929134,"duration":"0.02"},{"name":"G7","midi":103,"time":"161.86","velocity":0.07086614173228346,"duration":"0.08"},{"name":"E3","midi":52,"time":"161.88","velocity":0.10236220472440945,"duration":"0.19"},{"name":"D6","midi":86,"time":"161.88","velocity":0.11023622047244094,"duration":"0.30"},{"name":"D#7","midi":99,"time":"161.91","velocity":0.07086614173228346,"duration":"0.03"},{"name":"B4","midi":71,"time":"161.98","velocity":0.2047244094488189,"duration":"0.23"},{"name":"B5","midi":83,"time":"162.00","velocity":0.25984251968503935,"duration":"0.30"},{"name":"C#4","midi":61,"time":"162.08","velocity":0.2047244094488189,"duration":"0.17"},{"name":"E4","midi":64,"time":"162.22","velocity":0.12598425196850394,"duration":"0.08"},{"name":"G#4","midi":68,"time":"162.26","velocity":0.3937007874015748,"duration":"0.06"},{"name":"C3","midi":48,"time":"162.28","velocity":0.2992125984251969,"duration":"0.05"},{"name":"F5","midi":77,"time":"162.28","velocity":0.2125984251968504,"duration":"0.06"},{"name":"G4","midi":67,"time":"162.31","velocity":0.47244094488188976,"duration":"0.14"},{"name":"C#3","midi":49,"time":"162.33","velocity":0.25196850393700787,"duration":"0.08"},{"name":"B5","midi":83,"time":"162.33","velocity":0.2440944881889764,"duration":"0.29"},{"name":"G7","midi":103,"time":"162.33","velocity":0.10236220472440945,"duration":"0.05"},{"name":"G#3","midi":56,"time":"162.34","velocity":0.2125984251968504,"duration":"0.05"},{"name":"C#4","midi":61,"time":"162.35","velocity":0.2677165354330709,"duration":"0.03"},{"name":"B4","midi":71,"time":"162.35","velocity":0.1732283464566929,"duration":"0.03"},{"name":"D7","midi":98,"time":"162.35","velocity":0.18110236220472442,"duration":"0.08"},{"name":"E5","midi":76,"time":"162.37","velocity":0.11811023622047244,"duration":"0.03"},{"name":"F7","midi":101,"time":"162.38","velocity":0.13385826771653545,"duration":"0.07"},{"name":"E4","midi":64,"time":"162.40","velocity":0.16535433070866143,"duration":"0.03"},{"name":"C#4","midi":61,"time":"162.41","velocity":0.2992125984251969,"duration":"0.13"},{"name":"F5","midi":77,"time":"162.41","velocity":0.09448818897637795,"duration":"0.07"},{"name":"C#3","midi":49,"time":"162.42","velocity":0.3228346456692913,"duration":"0.07"},{"name":"F6","midi":89,"time":"162.43","velocity":0.12598425196850394,"duration":"0.06"},{"name":"G#4","midi":68,"time":"162.45","velocity":0.5118110236220472,"duration":"3.63"},{"name":"F#7","midi":102,"time":"162.45","velocity":0.2047244094488189,"duration":"0.55"},{"name":"G#3","midi":56,"time":"162.47","velocity":0.15748031496062992,"duration":"0.07"},{"name":"F5","midi":77,"time":"162.50","velocity":0.2755905511811024,"duration":"0.21"},{"name":"D#6","midi":87,"time":"162.50","velocity":0.11811023622047244,"duration":"0.10"},{"name":"C#3","midi":49,"time":"162.52","velocity":0.31496062992125984,"duration":"0.02"},{"name":"E4","midi":64,"time":"162.52","velocity":0.1968503937007874,"duration":"0.13"},{"name":"B4","midi":71,"time":"162.53","velocity":0.1968503937007874,"duration":"0.06"},{"name":"D#7","midi":99,"time":"162.53","velocity":0.28346456692913385,"duration":"0.72"},{"name":"G#3","midi":56,"time":"162.55","velocity":0.2125984251968504,"duration":"0.13"},{"name":"C#3","midi":49,"time":"162.58","velocity":0.28346456692913385,"duration":"0.02"},{"name":"C#3","midi":49,"time":"162.62","velocity":0.25196850393700787,"duration":"0.12"},{"name":"C#4","midi":61,"time":"162.62","velocity":0.4566929133858268,"duration":"0.34"},{"name":"D#5","midi":75,"time":"162.62","velocity":0.11023622047244094,"duration":"0.07"},{"name":"B5","midi":83,"time":"162.64","velocity":0.11811023622047244,"duration":"0.03"},{"name":"C2","midi":36,"time":"162.66","velocity":0.2125984251968504,"duration":"0.03"},{"name":"F7","midi":101,"time":"162.66","velocity":0.09448818897637795,"duration":"0.05"},{"name":"G#3","midi":56,"time":"162.69","velocity":0.16535433070866143,"duration":"0.08"},{"name":"B5","midi":83,"time":"162.72","velocity":0.13385826771653545,"duration":"0.03"},{"name":"C#3","midi":49,"time":"162.74","velocity":0.2755905511811024,"duration":"0.03"},{"name":"E4","midi":64,"time":"162.74","velocity":0.2283464566929134,"duration":"0.02"},{"name":"G5","midi":79,"time":"162.78","velocity":0.14960629921259844,"duration":"0.03"},{"name":"F4","midi":65,"time":"162.79","velocity":0.2047244094488189,"duration":"0.05"},{"name":"C#3","midi":49,"time":"162.80","velocity":0.29133858267716534,"duration":"0.02"},{"name":"C7","midi":96,"time":"162.83","velocity":0.11023622047244094,"duration":"0.12"},{"name":"F5","midi":77,"time":"162.84","velocity":0.2125984251968504,"duration":"0.22"},{"name":"F4","midi":65,"time":"162.85","velocity":0.1968503937007874,"duration":"0.07"},{"name":"C#3","midi":49,"time":"162.86","velocity":0.2440944881889764,"duration":"0.02"},{"name":"G#3","midi":56,"time":"162.86","velocity":0.14960629921259844,"duration":"0.06"},{"name":"B5","midi":83,"time":"162.86","velocity":0.12598425196850394,"duration":"0.05"},{"name":"G5","midi":79,"time":"162.90","velocity":0.1889763779527559,"duration":"0.03"},{"name":"C#3","midi":49,"time":"162.92","velocity":0.25984251968503935,"duration":"0.03"},{"name":"F#5","midi":78,"time":"162.93","velocity":0.1889763779527559,"duration":"0.07"},{"name":"C#4","midi":61,"time":"162.97","velocity":0.36220472440944884,"duration":"0.78"},{"name":"G#2","midi":44,"time":"162.99","velocity":0.23622047244094488,"duration":"0.03"},{"name":"D#6","midi":87,"time":"162.99","velocity":0.15748031496062992,"duration":"0.12"},{"name":"C7","midi":96,"time":"163.00","velocity":0.2125984251968504,"duration":"0.16"},{"name":"F4","midi":65,"time":"163.01","velocity":0.2283464566929134,"duration":"0.13"},{"name":"F#5","midi":78,"time":"163.01","velocity":0.16535433070866143,"duration":"0.03"},{"name":"F#7","midi":102,"time":"163.01","velocity":0.16535433070866143,"duration":"0.19"},{"name":"B5","midi":83,"time":"163.03","velocity":0.11811023622047244,"duration":"0.03"},{"name":"C#3","midi":49,"time":"163.06","velocity":0.25196850393700787,"duration":"0.02"},{"name":"C#3","midi":49,"time":"163.12","velocity":0.2755905511811024,"duration":"0.02"},{"name":"F4","midi":65,"time":"163.15","velocity":0.11023622047244094,"duration":"0.06"},{"name":"C#3","midi":49,"time":"163.16","velocity":0.28346456692913385,"duration":"0.23"},{"name":"G5","midi":79,"time":"163.16","velocity":0.09448818897637795,"duration":"0.03"},{"name":"C7","midi":96,"time":"163.19","velocity":0.25984251968503935,"duration":"0.73"},{"name":"A3","midi":57,"time":"163.20","velocity":0.14960629921259844,"duration":"0.06"},{"name":"F#7","midi":102,"time":"163.22","velocity":0.14960629921259844,"duration":"0.19"},{"name":"F5","midi":77,"time":"163.23","velocity":0.09448818897637795,"duration":"0.05"},{"name":"D#6","midi":87,"time":"163.24","velocity":0.07874015748031496,"duration":"0.05"},{"name":"G#3","midi":56,"time":"163.26","velocity":0.16535433070866143,"duration":"0.09"},{"name":"D#7","midi":99,"time":"163.27","velocity":0.31496062992125984,"duration":"0.77"},{"name":"F5","midi":77,"time":"163.33","velocity":0.09448818897637795,"duration":"0.03"},{"name":"A3","midi":57,"time":"163.38","velocity":0.11023622047244094,"duration":"0.05"},{"name":"F#7","midi":102,"time":"163.45","velocity":0.11811023622047244,"duration":"0.03"},{"name":"A3","midi":57,"time":"163.47","velocity":0.10236220472440945,"duration":"0.03"},{"name":"A3","midi":57,"time":"163.52","velocity":0.12598425196850394,"duration":"0.06"},{"name":"F#7","midi":102,"time":"163.55","velocity":0.10236220472440945,"duration":"0.06"},{"name":"D#6","midi":87,"time":"163.58","velocity":0.08661417322834646,"duration":"0.16"},{"name":"A3","midi":57,"time":"163.60","velocity":0.14960629921259844,"duration":"0.06"},{"name":"A3","midi":57,"time":"163.69","velocity":0.14173228346456693,"duration":"0.05"},{"name":"C#3","midi":49,"time":"163.70","velocity":0.09448818897637795,"duration":"0.03"},{"name":"F#7","midi":102,"time":"163.70","velocity":0.11023622047244094,"duration":"0.03"},{"name":"C#4","midi":61,"time":"163.86","velocity":0.2125984251968504,"duration":"0.24"},{"name":"F#7","midi":102,"time":"163.87","velocity":0.11811023622047244,"duration":"0.14"},{"name":"C7","midi":96,"time":"163.99","velocity":0.18110236220472442,"duration":"0.08"},{"name":"F#7","midi":102,"time":"164.05","velocity":0.1732283464566929,"duration":"1.36"},{"name":"D#7","midi":99,"time":"164.07","velocity":0.31496062992125984,"duration":"1.86"},{"name":"D4","midi":62,"time":"164.10","velocity":0.11811023622047244,"duration":"0.03"},{"name":"C7","midi":96,"time":"164.10","velocity":0.23622047244094488,"duration":"0.28"},{"name":"C#4","midi":61,"time":"164.14","velocity":0.25984251968503935,"duration":"0.14"},{"name":"B5","midi":83,"time":"164.14","velocity":0.13385826771653545,"duration":"0.10"},{"name":"C#5","midi":73,"time":"164.31","velocity":0.07874015748031496,"duration":"0.15"},{"name":"C7","midi":96,"time":"164.42","velocity":0.1732283464566929,"duration":"0.40"},{"name":"A#1","midi":34,"time":"164.52","velocity":0.07874015748031496,"duration":"0.06"},{"name":"C6","midi":84,"time":"164.53","velocity":0.14960629921259844,"duration":"0.22"},{"name":"C#4","midi":61,"time":"164.58","velocity":0.18110236220472442,"duration":"0.66"},{"name":"D#6","midi":87,"time":"164.65","velocity":0.10236220472440945,"duration":"0.08"},{"name":"C7","midi":96,"time":"164.83","velocity":0.2204724409448819,"duration":"0.50"},{"name":"C#4","midi":61,"time":"165.26","velocity":0.23622047244094488,"duration":"0.07"},{"name":"A3","midi":57,"time":"165.29","velocity":0.23622047244094488,"duration":"0.05"},{"name":"C3","midi":48,"time":"165.30","velocity":0.29133858267716534,"duration":"0.03"},{"name":"D4","midi":62,"time":"165.33","velocity":0.1732283464566929,"duration":"0.03"},{"name":"C#3","midi":49,"time":"165.34","velocity":0.25984251968503935,"duration":"0.07"},{"name":"G#3","midi":56,"time":"165.34","velocity":0.2283464566929134,"duration":"0.07"},{"name":"C#5","midi":73,"time":"165.35","velocity":0.18110236220472442,"duration":"0.15"},{"name":"C2","midi":36,"time":"165.36","velocity":0.2677165354330709,"duration":"0.07"},{"name":"B5","midi":83,"time":"165.36","velocity":0.11811023622047244,"duration":"0.12"},{"name":"C7","midi":96,"time":"165.36","velocity":0.23622047244094488,"duration":"0.35"},{"name":"F5","midi":77,"time":"165.38","velocity":0.12598425196850394,"duration":"0.06"},{"name":"C#4","midi":61,"time":"165.40","velocity":0.3543307086614173,"duration":"0.37"},{"name":"C#3","midi":49,"time":"165.42","velocity":0.31496062992125984,"duration":"0.20"},{"name":"G#3","midi":56,"time":"165.43","velocity":0.2204724409448819,"duration":"0.15"},{"name":"F6","midi":89,"time":"165.44","velocity":0.12598425196850394,"duration":"0.05"},{"name":"F#7","midi":102,"time":"165.44","velocity":0.14173228346456693,"duration":"0.12"},{"name":"F5","midi":77,"time":"165.47","velocity":0.1732283464566929,"duration":"0.07"},{"name":"F#5","midi":78,"time":"165.50","velocity":0.15748031496062992,"duration":"0.03"},{"name":"D#6","midi":87,"time":"165.50","velocity":0.09448818897637795,"duration":"0.05"},{"name":"C2","midi":36,"time":"165.51","velocity":0.16535433070866143,"duration":"0.03"},{"name":"G#3","midi":56,"time":"165.59","velocity":0.11023622047244094,"duration":"0.06"},{"name":"F#7","midi":102,"time":"165.63","velocity":0.13385826771653545,"duration":"0.22"},{"name":"C#3","midi":49,"time":"165.64","velocity":0.29133858267716534,"duration":"0.02"},{"name":"F5","midi":77,"time":"165.64","velocity":0.2440944881889764,"duration":"0.09"},{"name":"F7","midi":101,"time":"165.67","velocity":0.09448818897637795,"duration":"0.03"},{"name":"B5","midi":83,"time":"165.69","velocity":0.13385826771653545,"duration":"0.15"},{"name":"C#3","midi":49,"time":"165.70","velocity":0.28346456692913385,"duration":"0.03"},{"name":"G#3","midi":56,"time":"165.70","velocity":0.14173228346456693,"duration":"0.07"},{"name":"C#3","midi":49,"time":"165.76","velocity":0.30708661417322836,"duration":"0.05"},{"name":"B4","midi":71,"time":"165.76","velocity":0.13385826771653545,"duration":"0.06"},{"name":"F5","midi":77,"time":"165.77","velocity":0.12598425196850394,"duration":"0.06"},{"name":"F4","midi":65,"time":"165.78","velocity":0.2125984251968504,"duration":"0.12"},{"name":"C7","midi":96,"time":"165.78","velocity":0.1732283464566929,"duration":"0.10"},{"name":"D#5","midi":75,"time":"165.80","velocity":0.11023622047244094,"duration":"0.05"},{"name":"F#5","midi":78,"time":"165.80","velocity":0.1732283464566929,"duration":"0.08"},{"name":"C#3","midi":49,"time":"165.81","velocity":0.2677165354330709,"duration":"0.05"},{"name":"G#3","midi":56,"time":"165.84","velocity":0.2047244094488189,"duration":"0.16"},{"name":"C#2","midi":37,"time":"165.87","velocity":0.2755905511811024,"duration":"0.02"},{"name":"C#3","midi":49,"time":"165.87","velocity":0.2755905511811024,"duration":"0.05"},{"name":"C#5","midi":73,"time":"165.87","velocity":0.28346456692913385,"duration":"0.07"},{"name":"B4","midi":71,"time":"165.88","velocity":0.11811023622047244,"duration":"0.06"},{"name":"B5","midi":83,"time":"165.90","velocity":0.11811023622047244,"duration":"0.05"},{"name":"C#2","midi":37,"time":"165.91","velocity":0.2283464566929134,"duration":"0.02"},{"name":"F#5","midi":78,"time":"165.91","velocity":0.14960629921259844,"duration":"0.12"},{"name":"C#3","midi":49,"time":"165.93","velocity":0.2283464566929134,"duration":"0.05"},{"name":"D5","midi":74,"time":"165.94","velocity":0.2283464566929134,"duration":"0.02"},{"name":"B4","midi":71,"time":"165.95","velocity":0.11811023622047244,"duration":"0.03"},{"name":"C#5","midi":73,"time":"165.95","velocity":0.23622047244094488,"duration":"0.17"},{"name":"C#4","midi":61,"time":"165.97","velocity":0.30708661417322836,"duration":"0.30"},{"name":"F4","midi":65,"time":"165.98","velocity":0.13385826771653545,"duration":"0.33"},{"name":"D#7","midi":99,"time":"165.98","velocity":0.18110236220472442,"duration":"0.17"},{"name":"C#2","midi":37,"time":"166.00","velocity":0.16535433070866143,"duration":"0.08"},{"name":"C7","midi":96,"time":"166.00","velocity":0.14173228346456693,"duration":"0.22"},{"name":"D#6","midi":87,"time":"166.02","velocity":0.08661417322834646,"duration":"0.05"},{"name":"G#3","midi":56,"time":"166.06","velocity":0.18110236220472442,"duration":"0.17"},{"name":"C#3","midi":49,"time":"166.08","velocity":0.25196850393700787,"duration":"0.02"},{"name":"G#4","midi":68,"time":"166.09","velocity":0.30708661417322836,"duration":"0.80"},{"name":"D#7","midi":99,"time":"166.17","velocity":0.09448818897637795,"duration":"0.09"},{"name":"D5","midi":74,"time":"166.19","velocity":0.11023622047244094,"duration":"0.03"},{"name":"F#5","midi":78,"time":"166.20","velocity":0.10236220472440945,"duration":"0.06"},{"name":"D#6","midi":87,"time":"166.21","velocity":0.07874015748031496,"duration":"0.03"},{"name":"C#3","midi":49,"time":"166.29","velocity":0.12598425196850394,"duration":"0.03"},{"name":"G#3","midi":56,"time":"166.33","velocity":0.07874015748031496,"duration":"0.07"},{"name":"D#7","midi":99,"time":"166.35","velocity":0.13385826771653545,"duration":"0.03"},{"name":"C#3","midi":49,"time":"166.36","velocity":0.14173228346456693,"duration":"0.26"},{"name":"C#4","midi":61,"time":"166.38","velocity":0.30708661417322836,"duration":"0.36"},{"name":"C2","midi":36,"time":"166.42","velocity":0.15748031496062992,"duration":"0.05"},{"name":"F5","midi":77,"time":"166.47","velocity":0.09448818897637795,"duration":"0.06"},{"name":"C#3","midi":49,"time":"166.66","velocity":0.11023622047244094,"duration":"0.07"},{"name":"F#5","midi":78,"time":"166.74","velocity":0.25196850393700787,"duration":"0.03"},{"name":"B5","midi":83,"time":"166.74","velocity":0.15748031496062992,"duration":"0.14"},{"name":"C6","midi":84,"time":"166.74","velocity":0.14173228346456693,"duration":"0.03"},{"name":"C#6","midi":85,"time":"166.74","velocity":0.3858267716535433,"duration":"0.05"},{"name":"F6","midi":89,"time":"166.74","velocity":0.07874015748031496,"duration":"0.05"},{"name":"F#6","midi":90,"time":"166.74","velocity":0.31496062992125984,"duration":"0.03"},{"name":"C#4","midi":61,"time":"166.76","velocity":0.28346456692913385,"duration":"0.77"},{"name":"F7","midi":101,"time":"166.77","velocity":0.12598425196850394,"duration":"0.03"},{"name":"G5","midi":79,"time":"166.78","velocity":0.25196850393700787,"duration":"0.03"},{"name":"D6","midi":86,"time":"166.78","velocity":0.3700787401574803,"duration":"0.05"},{"name":"G6","midi":91,"time":"166.78","velocity":0.30708661417322836,"duration":"0.05"},{"name":"C3","midi":48,"time":"166.80","velocity":0.08661417322834646,"duration":"0.05"},{"name":"D#6","midi":87,"time":"166.83","velocity":0.3228346456692913,"duration":"0.07"},{"name":"G#6","midi":92,"time":"166.83","velocity":0.3858267716535433,"duration":"0.07"},{"name":"F#7","midi":102,"time":"166.88","velocity":0.1889763779527559,"duration":"0.05"},{"name":"A5","midi":81,"time":"166.90","velocity":0.33858267716535434,"duration":"0.29"},{"name":"E6","midi":88,"time":"166.90","velocity":0.2755905511811024,"duration":"0.17"},{"name":"A6","midi":93,"time":"166.90","velocity":0.4251968503937008,"duration":"0.27"},{"name":"G#4","midi":68,"time":"166.92","velocity":0.30708661417322836,"duration":"0.02"},{"name":"C#7","midi":97,"time":"166.93","velocity":0.25196850393700787,"duration":"0.27"},{"name":"G7","midi":103,"time":"166.93","velocity":0.2677165354330709,"duration":"0.26"},{"name":"A4","midi":69,"time":"166.94","velocity":0.2992125984251969,"duration":"0.06"},{"name":"A4","midi":69,"time":"167.01","velocity":0.30708661417322836,"duration":"0.02"},{"name":"G#4","midi":68,"time":"167.02","velocity":0.2440944881889764,"duration":"0.02"},{"name":"A4","midi":69,"time":"167.05","velocity":0.3228346456692913,"duration":"0.05"},{"name":"G#4","midi":68,"time":"167.09","velocity":0.3228346456692913,"duration":"0.03"},{"name":"A4","midi":69,"time":"167.13","velocity":0.31496062992125984,"duration":"0.06"},{"name":"C#6","midi":85,"time":"167.14","velocity":0.2283464566929134,"duration":"0.02"},{"name":"G5","midi":79,"time":"167.15","velocity":0.11811023622047244,"duration":"0.05"},{"name":"G6","midi":91,"time":"167.15","velocity":0.15748031496062992,"duration":"0.06"},{"name":"D6","midi":86,"time":"167.16","velocity":0.2204724409448819,"duration":"0.05"},{"name":"G#4","midi":68,"time":"167.19","velocity":0.3779527559055118,"duration":"0.52"},{"name":"A6","midi":93,"time":"167.19","velocity":0.14173228346456693,"duration":"0.05"},{"name":"D#6","midi":87,"time":"167.21","velocity":0.18110236220472442,"duration":"0.07"},{"name":"G#6","midi":92,"time":"167.21","velocity":0.3464566929133858,"duration":"0.08"},{"name":"F#7","midi":102,"time":"167.26","velocity":0.1889763779527559,"duration":"0.41"},{"name":"C7","midi":96,"time":"167.27","velocity":0.2204724409448819,"duration":"0.38"},{"name":"G#5","midi":80,"time":"167.28","velocity":0.4015748031496063,"duration":"0.42"},{"name":"E6","midi":88,"time":"167.28","velocity":0.14960629921259844,"duration":"0.08"},{"name":"A6","midi":93,"time":"167.29","velocity":0.30708661417322836,"duration":"0.17"},{"name":"G#6","midi":92,"time":"167.30","velocity":0.44881889763779526,"duration":"0.40"},{"name":"D#6","midi":87,"time":"167.31","velocity":0.28346456692913385,"duration":"0.38"},{"name":"C#7","midi":97,"time":"167.37","velocity":0.11023622047244094,"duration":"0.10"},{"name":"G7","midi":103,"time":"167.37","velocity":0.07086614173228346,"duration":"0.12"},{"name":"G#3","midi":56,"time":"167.55","velocity":0.11023622047244094,"duration":"0.08"},{"name":"C6","midi":84,"time":"167.59","velocity":0.07874015748031496,"duration":"0.09"},{"name":"A6","midi":93,"time":"167.66","velocity":0.1732283464566929,"duration":"0.10"},{"name":"G5","midi":79,"time":"167.69","velocity":0.2204724409448819,"duration":"0.03"},{"name":"G4","midi":67,"time":"167.70","velocity":0.2755905511811024,"duration":"0.02"},{"name":"G#4","midi":68,"time":"167.72","velocity":0.3228346456692913,"duration":"0.57"},{"name":"G#6","midi":92,"time":"167.72","velocity":0.3779527559055118,"duration":"0.35"},{"name":"A#6","midi":94,"time":"167.72","velocity":0.11811023622047244,"duration":"0.03"},{"name":"E4","midi":64,"time":"167.76","velocity":0.2047244094488189,"duration":"0.03"},{"name":"A5","midi":81,"time":"167.77","velocity":0.11023622047244094,"duration":"0.07"},{"name":"D#6","midi":87,"time":"167.77","velocity":0.1889763779527559,"duration":"0.26"},{"name":"D#4","midi":63,"time":"167.79","velocity":0.29133858267716534,"duration":"0.05"},{"name":"C7","midi":96,"time":"167.80","velocity":0.10236220472440945,"duration":"0.03"},{"name":"E4","midi":64,"time":"167.84","velocity":0.3858267716535433,"duration":"0.28"},{"name":"B5","midi":83,"time":"167.86","velocity":0.14173228346456693,"duration":"0.20"},{"name":"D6","midi":86,"time":"167.91","velocity":0.08661417322834646,"duration":"0.03"},{"name":"C6","midi":84,"time":"167.97","velocity":0.08661417322834646,"duration":"0.05"},{"name":"A3","midi":57,"time":"168.03","velocity":0.07086614173228346,"duration":"0.05"},{"name":"C7","midi":96,"time":"168.06","velocity":0.13385826771653545,"duration":"0.06"},{"name":"G#5","midi":80,"time":"168.07","velocity":0.4566929133858268,"duration":"2.31"},{"name":"A6","midi":93,"time":"168.07","velocity":0.09448818897637795,"duration":"0.07"},{"name":"D#7","midi":99,"time":"168.07","velocity":0.2440944881889764,"duration":"0.38"},{"name":"D#6","midi":87,"time":"168.12","velocity":0.09448818897637795,"duration":"0.03"},{"name":"F#7","midi":102,"time":"168.13","velocity":0.11023622047244094,"duration":"0.03"},{"name":"C7","midi":96,"time":"168.15","velocity":0.11023622047244094,"duration":"0.05"},{"name":"D#6","midi":87,"time":"168.20","velocity":0.14173228346456693,"duration":"0.05"},{"name":"C7","midi":96,"time":"168.21","velocity":0.09448818897637795,"duration":"0.03"},{"name":"E4","midi":64,"time":"168.22","velocity":0.23622047244094488,"duration":"0.03"},{"name":"F#6","midi":90,"time":"168.22","velocity":0.07086614173228346,"duration":"0.05"},{"name":"C#4","midi":61,"time":"168.24","velocity":0.47244094488188976,"duration":"0.80"},{"name":"A#5","midi":82,"time":"168.28","velocity":0.14173228346456693,"duration":"0.06"},{"name":"F#3","midi":54,"time":"168.29","velocity":0.3779527559055118,"duration":"0.12"},{"name":"F#5","midi":78,"time":"168.29","velocity":0.14173228346456693,"duration":"0.07"},{"name":"E6","midi":88,"time":"168.29","velocity":0.13385826771653545,"duration":"0.03"},{"name":"A#4","midi":70,"time":"168.30","velocity":0.23622047244094488,"duration":"0.03"},{"name":"D#6","midi":87,"time":"168.30","velocity":0.14960629921259844,"duration":"0.05"},{"name":"E5","midi":76,"time":"168.31","velocity":0.23622047244094488,"duration":"0.12"},{"name":"A#6","midi":94,"time":"168.35","velocity":0.15748031496062992,"duration":"0.09"},{"name":"A#5","midi":82,"time":"168.36","velocity":0.14960629921259844,"duration":"0.14"},{"name":"D#6","midi":87,"time":"168.36","velocity":0.10236220472440945,"duration":"0.05"},{"name":"A#4","midi":70,"time":"168.37","velocity":0.1732283464566929,"duration":"0.03"},{"name":"F6","midi":89,"time":"168.37","velocity":0.2204724409448819,"duration":"0.40"},{"name":"E7","midi":100,"time":"168.37","velocity":0.2204724409448819,"duration":"0.28"},{"name":"F#2","midi":42,"time":"168.38","velocity":0.2125984251968504,"duration":"0.07"},{"name":"F#3","midi":54,"time":"168.42","velocity":0.4409448818897638,"duration":"0.30"},{"name":"E5","midi":76,"time":"168.44","velocity":0.2677165354330709,"duration":"0.55"},{"name":"G#4","midi":68,"time":"168.45","velocity":0.2204724409448819,"duration":"0.07"},{"name":"A#6","midi":94,"time":"168.52","velocity":0.07086614173228346,"duration":"0.08"},{"name":"F#2","midi":42,"time":"168.55","velocity":0.33070866141732286,"duration":"0.51"},{"name":"A#5","midi":82,"time":"168.57","velocity":0.13385826771653545,"duration":"0.06"},{"name":"D#7","midi":99,"time":"168.65","velocity":0.11023622047244094,"duration":"0.13"},{"name":"A#4","midi":70,"time":"168.69","velocity":0.2047244094488189,"duration":"0.06"},{"name":"F#3","midi":54,"time":"168.73","velocity":0.4094488188976378,"duration":"1.43"},{"name":"A#4","midi":70,"time":"168.76","velocity":0.16535433070866143,"duration":"0.06"},{"name":"E7","midi":100,"time":"168.77","velocity":0.2125984251968504,"duration":"0.27"},{"name":"F6","midi":89,"time":"168.81","velocity":0.10236220472440945,"duration":"0.12"},{"name":"A#5","midi":82,"time":"168.91","velocity":0.07086614173228346,"duration":"0.03"},{"name":"D#7","midi":99,"time":"168.92","velocity":0.07086614173228346,"duration":"0.07"},{"name":"F6","midi":89,"time":"168.95","velocity":0.11023622047244094,"duration":"0.08"},{"name":"F#5","midi":78,"time":"169.01","velocity":0.25984251968503935,"duration":"0.49"},{"name":"F#7","midi":102,"time":"169.01","velocity":0.15748031496062992,"duration":"0.19"},{"name":"A#5","midi":82,"time":"169.03","velocity":0.16535433070866143,"duration":"0.10"},{"name":"C#4","midi":61,"time":"169.06","velocity":0.36220472440944884,"duration":"0.69"},{"name":"E5","midi":76,"time":"169.08","velocity":0.14173228346456693,"duration":"0.03"},{"name":"E7","midi":100,"time":"169.08","velocity":0.08661417322834646,"duration":"0.07"},{"name":"F7","midi":101,"time":"169.08","velocity":0.14960629921259844,"duration":"0.09"},{"name":"F#2","midi":42,"time":"169.10","velocity":0.28346456692913385,"duration":"0.09"},{"name":"A#4","midi":70,"time":"169.12","velocity":0.15748031496062992,"duration":"0.20"},{"name":"C#7","midi":97,"time":"169.14","velocity":0.12598425196850394,"duration":"0.03"},{"name":"A#6","midi":94,"time":"169.15","velocity":0.07874015748031496,"duration":"0.05"},{"name":"C#6","midi":85,"time":"169.20","velocity":0.2204724409448819,"duration":"0.12"},{"name":"F7","midi":101,"time":"169.23","velocity":0.07874015748031496,"duration":"0.05"},{"name":"F#2","midi":42,"time":"169.35","velocity":0.11023622047244094,"duration":"0.08"},{"name":"F#2","midi":42,"time":"169.45","velocity":0.1889763779527559,"duration":"0.27"},{"name":"E5","midi":76,"time":"169.48","velocity":0.2047244094488189,"duration":"1.08"},{"name":"A4","midi":69,"time":"169.50","velocity":0.07086614173228346,"duration":"0.05"},{"name":"C#6","midi":85,"time":"169.60","velocity":0.08661417322834646,"duration":"0.07"},{"name":"F#2","midi":42,"time":"169.73","velocity":0.10236220472440945,"duration":"0.03"},{"name":"C#4","midi":61,"time":"169.78","velocity":0.2283464566929134,"duration":"0.34"},{"name":"A4","midi":69,"time":"169.83","velocity":0.08661417322834646,"duration":"0.08"},{"name":"E7","midi":100,"time":"169.85","velocity":0.11811023622047244,"duration":"0.26"},{"name":"F#3","midi":54,"time":"170.17","velocity":0.1732283464566929,"duration":"0.03"},{"name":"C#5","midi":73,"time":"170.17","velocity":0.07874015748031496,"duration":"0.03"},{"name":"C#4","midi":61,"time":"170.22","velocity":0.2283464566929134,"duration":"0.29"},{"name":"F#3","midi":54,"time":"170.28","velocity":0.2283464566929134,"duration":"0.16"},{"name":"G#5","midi":80,"time":"170.44","velocity":0.09448818897637795,"duration":"0.09"},{"name":"F#3","midi":54,"time":"170.45","velocity":0.2204724409448819,"duration":"0.05"},{"name":"F#7","midi":102,"time":"170.50","velocity":0.13385826771653545,"duration":"0.03"},{"name":"F#4","midi":66,"time":"170.51","velocity":0.3543307086614173,"duration":"0.74"},{"name":"F7","midi":101,"time":"170.53","velocity":0.09448818897637795,"duration":"0.03"},{"name":"C#5","midi":73,"time":"170.55","velocity":0.11811023622047244,"duration":"0.03"},{"name":"F#7","midi":102,"time":"170.56","velocity":0.07086614173228346,"duration":"0.03"},{"name":"C#4","midi":61,"time":"170.59","velocity":0.11811023622047244,"duration":"0.05"},{"name":"G#5","midi":80,"time":"170.60","velocity":0.11023622047244094,"duration":"0.15"},{"name":"A#5","midi":82,"time":"170.62","velocity":0.08661417322834646,"duration":"0.05"},{"name":"F7","midi":101,"time":"170.63","velocity":0.07086614173228346,"duration":"0.03"},{"name":"C#4","midi":61,"time":"170.65","velocity":0.41732283464566927,"duration":"0.26"},{"name":"F#3","midi":54,"time":"170.69","velocity":0.15748031496062992,"duration":"0.43"},{"name":"E7","midi":100,"time":"170.70","velocity":0.2283464566929134,"duration":"0.42"},{"name":"E6","midi":88,"time":"170.74","velocity":0.07874015748031496,"duration":"0.15"},{"name":"A#5","midi":82,"time":"170.81","velocity":0.09448818897637795,"duration":"0.14"},{"name":"C#6","midi":85,"time":"170.83","velocity":0.07086614173228346,"duration":"0.06"},{"name":"D5","midi":74,"time":"170.87","velocity":0.2283464566929134,"duration":"0.06"},{"name":"D7","midi":98,"time":"170.88","velocity":0.13385826771653545,"duration":"0.05"},{"name":"D4","midi":62,"time":"170.91","velocity":0.48031496062992124,"duration":"0.02"},{"name":"F7","midi":101,"time":"170.91","velocity":0.12598425196850394,"duration":"0.05"},{"name":"C#4","midi":61,"time":"170.93","velocity":0.5275590551181102,"duration":"0.14"},{"name":"G#5","midi":80,"time":"171.00","velocity":0.07086614173228346,"duration":"0.07"},{"name":"C#5","midi":73,"time":"171.07","velocity":0.08661417322834646,"duration":"0.05"},{"name":"C#4","midi":61,"time":"171.08","velocity":0.15748031496062992,"duration":"0.08"},{"name":"C#4","midi":61,"time":"171.20","velocity":0.14960629921259844,"duration":"0.06"},{"name":"E4","midi":64,"time":"171.26","velocity":0.36220472440944884,"duration":"0.02"},{"name":"A#5","midi":82,"time":"171.26","velocity":0.4015748031496063,"duration":"0.06"},{"name":"E7","midi":100,"time":"171.26","velocity":0.07874015748031496,"duration":"0.03"},{"name":"D#5","midi":75,"time":"171.27","velocity":0.4409448818897638,"duration":"0.05"},{"name":"G6","midi":91,"time":"171.27","velocity":0.2283464566929134,"duration":"0.03"},{"name":"F#4","midi":66,"time":"171.28","velocity":0.4015748031496063,"duration":"0.72"},{"name":"F7","midi":101,"time":"171.28","velocity":0.16535433070866143,"duration":"0.05"},{"name":"D4","midi":62,"time":"171.29","velocity":0.3937007874015748,"duration":"0.03"},{"name":"A4","midi":69,"time":"171.29","velocity":0.2677165354330709,"duration":"0.13"},{"name":"F#6","midi":90,"time":"171.30","velocity":0.25196850393700787,"duration":"0.06"},{"name":"A6","midi":93,"time":"171.30","velocity":0.2047244094488189,"duration":"0.60"},{"name":"D5","midi":74,"time":"171.31","velocity":0.4094488188976378,"duration":"1.13"},{"name":"A5","midi":81,"time":"171.31","velocity":0.5039370078740157,"duration":"1.14"},{"name":"A3","midi":57,"time":"171.33","velocity":0.4094488188976378,"duration":"0.62"},{"name":"C5","midi":72,"time":"171.34","velocity":0.12598425196850394,"duration":"0.09"},{"name":"A#5","midi":82,"time":"171.34","velocity":0.23622047244094488,"duration":"0.09"},{"name":"C#4","midi":61,"time":"171.36","velocity":0.4251968503937008,"duration":"0.05"},{"name":"F6","midi":89,"time":"171.36","velocity":0.29133858267716534,"duration":"0.03"},{"name":"F#6","midi":90,"time":"171.40","velocity":0.3464566929133858,"duration":"1.13"},{"name":"D4","midi":62,"time":"171.41","velocity":0.4015748031496063,"duration":"0.36"},{"name":"A2","midi":45,"time":"171.44","velocity":0.09448818897637795,"duration":"0.03"},{"name":"C5","midi":72,"time":"171.50","velocity":0.2440944881889764,"duration":"0.16"},{"name":"A2","midi":45,"time":"171.52","velocity":0.14960629921259844,"duration":"0.03"},{"name":"D3","midi":50,"time":"171.59","velocity":0.09448818897637795,"duration":"0.03"},{"name":"C7","midi":96,"time":"171.66","velocity":0.07874015748031496,"duration":"0.03"},{"name":"F7","midi":101,"time":"171.66","velocity":0.12598425196850394,"duration":"0.06"},{"name":"A2","midi":45,"time":"171.70","velocity":0.15748031496062992,"duration":"0.03"},{"name":"C5","midi":72,"time":"171.77","velocity":0.10236220472440945,"duration":"0.06"},{"name":"D4","midi":62,"time":"171.78","velocity":0.4409448818897638,"duration":"0.69"},{"name":"D3","midi":50,"time":"171.90","velocity":0.13385826771653545,"duration":"0.05"},{"name":"C5","midi":72,"time":"171.90","velocity":0.18110236220472442,"duration":"0.21"},{"name":"D2","midi":38,"time":"171.97","velocity":0.2125984251968504,"duration":"0.06"},{"name":"A#3","midi":58,"time":"171.97","velocity":0.11811023622047244,"duration":"0.03"},{"name":"A3","midi":57,"time":"172.00","velocity":0.2283464566929134,"duration":"0.15"},{"name":"F#4","midi":66,"time":"172.01","velocity":0.3228346456692913,"duration":"0.28"},{"name":"A4","midi":69,"time":"172.01","velocity":0.23622047244094488,"duration":"0.20"},{"name":"D3","midi":50,"time":"172.03","velocity":0.07874015748031496,"duration":"0.05"},{"name":"C#2","midi":37,"time":"172.05","velocity":0.2283464566929134,"duration":"0.05"},{"name":"C5","midi":72,"time":"172.15","velocity":0.13385826771653545,"duration":"0.15"},{"name":"F#3","midi":54,"time":"172.16","velocity":0.14173228346456693,"duration":"0.05"},{"name":"E5","midi":76,"time":"172.16","velocity":0.1732283464566929,"duration":"0.24"},{"name":"C#7","midi":97,"time":"172.16","velocity":0.11811023622047244,"duration":"0.03"},{"name":"A#5","midi":82,"time":"172.17","velocity":0.11811023622047244,"duration":"0.03"},{"name":"D2","midi":38,"time":"172.19","velocity":0.18110236220472442,"duration":"0.09"},{"name":"A3","midi":57,"time":"172.21","velocity":0.2283464566929134,"duration":"0.09"},{"name":"F#3","midi":54,"time":"172.29","velocity":0.2125984251968504,"duration":"0.09"},{"name":"A4","midi":69,"time":"172.34","velocity":0.08661417322834646,"duration":"0.16"},{"name":"F#4","midi":66,"time":"172.36","velocity":0.25196850393700787,"duration":"0.16"},{"name":"A3","midi":57,"time":"172.37","velocity":0.2047244094488189,"duration":"0.05"},{"name":"F#3","midi":54,"time":"172.43","velocity":0.2283464566929134,"duration":"0.28"},{"name":"A#5","midi":82,"time":"172.45","velocity":0.3543307086614173,"duration":"0.05"},{"name":"D#5","midi":75,"time":"172.48","velocity":0.25984251968503935,"duration":"0.03"},{"name":"G6","midi":91,"time":"172.48","velocity":0.1732283464566929,"duration":"0.03"},{"name":"D4","midi":62,"time":"172.49","velocity":0.3779527559055118,"duration":"0.02"},{"name":"A5","midi":81,"time":"172.49","velocity":0.2440944881889764,"duration":"0.14"},{"name":"B5","midi":83,"time":"172.50","velocity":0.47244094488188976,"duration":"1.76"},{"name":"E5","midi":76,"time":"172.51","velocity":0.2992125984251969,"duration":"0.72"},{"name":"G#6","midi":92,"time":"172.51","velocity":0.4015748031496063,"duration":"0.85"},{"name":"D2","midi":38,"time":"172.52","velocity":0.09448818897637795,"duration":"0.03"},{"name":"D4","midi":62,"time":"172.52","velocity":0.33858267716535434,"duration":"0.08"},{"name":"F#5","midi":78,"time":"172.53","velocity":0.07874015748031496,"duration":"0.03"},{"name":"A4","midi":69,"time":"172.55","velocity":0.08661417322834646,"duration":"0.06"},{"name":"F#6","midi":90,"time":"172.57","velocity":0.11811023622047244,"duration":"0.06"},{"name":"C#2","midi":37,"time":"172.60","velocity":0.11023622047244094,"duration":"0.03"},{"name":"E4","midi":64,"time":"172.65","velocity":0.36220472440944884,"duration":"0.02"},{"name":"F#6","midi":90,"time":"172.65","velocity":0.15748031496062992,"duration":"0.26"},{"name":"A5","midi":81,"time":"172.66","velocity":0.14960629921259844,"duration":"0.03"},{"name":"D5","midi":74,"time":"172.69","velocity":0.2992125984251969,"duration":"0.37"},{"name":"E4","midi":64,"time":"172.71","velocity":0.36220472440944884,"duration":"0.07"},{"name":"A5","midi":81,"time":"172.73","velocity":0.2125984251968504,"duration":"0.24"},{"name":"E4","midi":64,"time":"172.79","velocity":0.3858267716535433,"duration":"0.07"},{"name":"D3","midi":50,"time":"172.80","velocity":0.11811023622047244,"duration":"0.17"},{"name":"E4","midi":64,"time":"172.87","velocity":0.3700787401574803,"duration":"0.07"},{"name":"F#4","midi":66,"time":"172.92","velocity":0.31496062992125984,"duration":"0.05"},{"name":"E4","midi":64,"time":"172.98","velocity":0.3464566929133858,"duration":"0.05"},{"name":"F4","midi":65,"time":"173.02","velocity":0.3543307086614173,"duration":"0.03"},{"name":"F#6","midi":90,"time":"173.02","velocity":0.11023622047244094,"duration":"0.15"},{"name":"D4","midi":62,"time":"173.05","velocity":0.29133858267716534,"duration":"0.02"},{"name":"F#4","midi":66,"time":"173.06","velocity":0.30708661417322836,"duration":"0.02"},{"name":"D5","midi":74,"time":"173.08","velocity":0.2204724409448819,"duration":"0.14"},{"name":"E4","midi":64,"time":"173.09","velocity":0.3228346456692913,"duration":"0.05"},{"name":"A#5","midi":82,"time":"173.09","velocity":0.12598425196850394,"duration":"0.06"},{"name":"F#3","midi":54,"time":"173.15","velocity":0.23622047244094488,"duration":"0.07"},{"name":"E4","midi":64,"time":"173.15","velocity":0.4094488188976378,"duration":"0.13"},{"name":"A5","midi":81,"time":"173.19","velocity":0.16535433070866143,"duration":"0.03"},{"name":"A#5","midi":82,"time":"173.22","velocity":0.2204724409448819,"duration":"0.30"},{"name":"F#3","midi":54,"time":"173.23","velocity":0.30708661417322836,"duration":"0.50"},{"name":"E4","midi":64,"time":"173.29","velocity":0.2992125984251969,"duration":"0.03"},{"name":"E5","midi":76,"time":"173.34","velocity":0.11811023622047244,"duration":"0.20"},{"name":"D5","midi":74,"time":"173.35","velocity":0.09448818897637795,"duration":"0.08"},{"name":"F4","midi":65,"time":"173.37","velocity":0.25984251968503935,"duration":"0.02"},{"name":"G#6","midi":92,"time":"173.37","velocity":0.1732283464566929,"duration":"0.28"},{"name":"D4","midi":62,"time":"173.40","velocity":0.2204724409448819,"duration":"0.08"},{"name":"C#4","midi":61,"time":"173.50","velocity":0.4094488188976378,"duration":"0.09"},{"name":"A5","midi":81,"time":"173.52","velocity":0.13385826771653545,"duration":"0.06"},{"name":"A4","midi":69,"time":"173.58","velocity":0.09448818897637795,"duration":"0.15"},{"name":"E6","midi":88,"time":"173.59","velocity":0.14960629921259844,"duration":"0.23"},{"name":"C#4","midi":61,"time":"173.60","velocity":0.4409448818897638,"duration":"0.47"},{"name":"A5","midi":81,"time":"173.66","velocity":0.15748031496062992,"duration":"0.15"},{"name":"G#6","midi":92,"time":"173.70","velocity":0.11811023622047244,"duration":"0.03"},{"name":"G#5","midi":80,"time":"173.73","velocity":0.14960629921259844,"duration":"0.51"},{"name":"F#3","midi":54,"time":"173.74","velocity":0.2283464566929134,"duration":"0.07"},{"name":"E5","midi":76,"time":"173.76","velocity":0.1968503937007874,"duration":"0.10"},{"name":"A#5","midi":82,"time":"173.79","velocity":0.09448818897637795,"duration":"0.08"},{"name":"F#3","midi":54,"time":"173.83","velocity":0.25984251968503935,"duration":"0.07"},{"name":"E7","midi":100,"time":"173.84","velocity":0.08661417322834646,"duration":"0.09"},{"name":"A5","midi":81,"time":"173.87","velocity":0.07874015748031496,"duration":"0.05"},{"name":"F3","midi":53,"time":"173.90","velocity":0.2283464566929134,"duration":"0.02"},{"name":"F#4","midi":66,"time":"173.91","velocity":0.29133858267716534,"duration":"0.35"},{"name":"F#3","midi":54,"time":"173.94","velocity":0.31496062992125984,"duration":"0.37"},{"name":"A5","midi":81,"time":"173.95","velocity":0.12598425196850394,"duration":"0.05"},{"name":"E5","midi":76,"time":"173.97","velocity":0.12598425196850394,"duration":"0.07"},{"name":"A#5","midi":82,"time":"174.02","velocity":0.14960629921259844,"duration":"0.28"},{"name":"C#5","midi":73,"time":"174.08","velocity":0.2125984251968504,"duration":"0.10"},{"name":"D4","midi":62,"time":"174.09","velocity":0.29133858267716534,"duration":"0.02"},{"name":"C#4","midi":61,"time":"174.12","velocity":0.4330708661417323,"duration":"0.21"},{"name":"E5","midi":76,"time":"174.15","velocity":0.07086614173228346,"duration":"0.03"},{"name":"E4","midi":64,"time":"174.28","velocity":0.2204724409448819,"duration":"0.03"},{"name":"B5","midi":83,"time":"174.29","velocity":0.14173228346456693,"duration":"0.09"},{"name":"A5","midi":81,"time":"174.30","velocity":0.1732283464566929,"duration":"0.03"},{"name":"A3","midi":57,"time":"174.31","velocity":0.3779527559055118,"duration":"0.12"},{"name":"F#5","midi":78,"time":"174.33","velocity":0.14960629921259844,"duration":"0.12"},{"name":"A#5","midi":82,"time":"174.33","velocity":0.14960629921259844,"duration":"0.12"},{"name":"D6","midi":86,"time":"174.33","velocity":0.11811023622047244,"duration":"0.03"},{"name":"C#4","midi":61,"time":"174.34","velocity":0.3543307086614173,"duration":"0.02"},{"name":"G#5","midi":80,"time":"174.35","velocity":0.07086614173228346,"duration":"0.03"},{"name":"C#2","midi":37,"time":"174.36","velocity":0.1889763779527559,"duration":"0.06"},{"name":"D4","midi":62,"time":"174.36","velocity":0.2992125984251969,"duration":"0.02"},{"name":"F#4","midi":66,"time":"174.37","velocity":0.2440944881889764,"duration":"0.10"},{"name":"C5","midi":72,"time":"174.38","velocity":0.23622047244094488,"duration":"0.14"},{"name":"C#4","midi":61,"time":"174.41","velocity":0.3700787401574803,"duration":"0.05"},{"name":"D5","midi":74,"time":"174.41","velocity":0.3937007874015748,"duration":"0.13"},{"name":"B5","midi":83,"time":"174.42","velocity":0.16535433070866143,"duration":"0.13"},{"name":"A#5","midi":82,"time":"174.45","velocity":0.09448818897637795,"duration":"0.06"},{"name":"C#4","midi":61,"time":"174.47","velocity":0.3464566929133858,"duration":"0.06"},{"name":"A3","midi":57,"time":"174.48","velocity":0.33858267716535434,"duration":"0.20"},{"name":"F#4","midi":66,"time":"174.50","velocity":0.2440944881889764,"duration":"0.12"},{"name":"E5","midi":76,"time":"174.51","velocity":0.08661417322834646,"duration":"0.06"},{"name":"C#2","midi":37,"time":"174.52","velocity":0.2047244094488189,"duration":"0.05"},{"name":"D4","midi":62,"time":"174.52","velocity":0.41732283464566927,"duration":"0.33"},{"name":"C#5","midi":73,"time":"174.55","velocity":0.16535433070866143,"duration":"0.09"},{"name":"A#5","midi":82,"time":"174.58","velocity":0.11023622047244094,"duration":"0.08"},{"name":"C6","midi":84,"time":"174.58","velocity":0.11811023622047244,"duration":"0.03"},{"name":"C#2","midi":37,"time":"174.60","velocity":0.11811023622047244,"duration":"0.05"},{"name":"F#5","midi":78,"time":"174.60","velocity":0.2440944881889764,"duration":"0.12"},{"name":"F#4","midi":66,"time":"174.65","velocity":0.36220472440944884,"duration":"0.71"},{"name":"C5","midi":72,"time":"174.67","velocity":0.07086614173228346,"duration":"0.03"},{"name":"F7","midi":101,"time":"174.67","velocity":0.12598425196850394,"duration":"0.09"},{"name":"A2","midi":45,"time":"174.69","velocity":0.16535433070866143,"duration":"0.05"},{"name":"F#3","midi":54,"time":"174.69","velocity":0.16535433070866143,"duration":"0.03"},{"name":"B5","midi":83,"time":"174.69","velocity":0.09448818897637795,"duration":"0.10"},{"name":"C#5","midi":73,"time":"174.72","velocity":0.18110236220472442,"duration":"0.03"},{"name":"A3","midi":57,"time":"174.73","velocity":0.3779527559055118,"duration":"0.19"},{"name":"C7","midi":96,"time":"174.74","velocity":0.10236220472440945,"duration":"0.05"},{"name":"C#5","midi":73,"time":"174.79","velocity":0.16535433070866143,"duration":"0.03"},{"name":"C5","midi":72,"time":"174.83","velocity":0.1968503937007874,"duration":"0.08"},{"name":"A#5","midi":82,"time":"174.84","velocity":0.11811023622047244,"duration":"0.03"},{"name":"C#4","midi":61,"time":"174.85","velocity":0.3464566929133858,"duration":"0.06"},{"name":"A2","midi":45,"time":"174.86","velocity":0.14173228346456693,"duration":"0.03"},{"name":"A5","midi":81,"time":"174.86","velocity":0.18110236220472442,"duration":"0.09"},{"name":"B5","midi":83,"time":"174.87","velocity":0.11023622047244094,"duration":"0.05"},{"name":"F#3","midi":54,"time":"174.91","velocity":0.23622047244094488,"duration":"0.07"},{"name":"D4","midi":62,"time":"174.91","velocity":0.33858267716535434,"duration":"0.13"},{"name":"A#5","midi":82,"time":"174.91","velocity":0.11811023622047244,"duration":"0.10"},{"name":"C#5","midi":73,"time":"174.92","velocity":0.25196850393700787,"duration":"0.03"},{"name":"E5","midi":76,"time":"174.92","velocity":0.10236220472440945,"duration":"0.06"},{"name":"A4","midi":69,"time":"174.95","velocity":0.1968503937007874,"duration":"0.22"},{"name":"A3","midi":57,"time":"174.97","velocity":0.2755905511811024,"duration":"0.34"},{"name":"D3","midi":50,"time":"175.01","velocity":0.08661417322834646,"duration":"0.03"},{"name":"A5","midi":81,"time":"175.01","velocity":0.1968503937007874,"duration":"0.31"},{"name":"C#2","midi":37,"time":"175.03","velocity":0.07874015748031496,"duration":"0.03"},{"name":"D4","midi":62,"time":"175.05","velocity":0.1732283464566929,"duration":"0.05"},{"name":"B5","midi":83,"time":"175.06","velocity":0.09448818897637795,"duration":"0.09"},{"name":"E7","midi":100,"time":"175.14","velocity":0.07086614173228346,"duration":"0.06"},{"name":"C#4","midi":61,"time":"175.16","velocity":0.1889763779527559,"duration":"0.05"},{"name":"A2","midi":45,"time":"175.23","velocity":0.11023622047244094,"duration":"0.03"},{"name":"C#4","midi":61,"time":"175.23","velocity":0.25984251968503935,"duration":"0.03"},{"name":"C5","midi":72,"time":"175.23","velocity":0.07086614173228346,"duration":"0.05"},{"name":"D4","midi":62,"time":"175.27","velocity":0.15748031496062992,"duration":"0.03"},{"name":"E5","midi":76,"time":"175.27","velocity":0.11811023622047244,"duration":"0.06"},{"name":"C#4","midi":61,"time":"175.30","velocity":0.23622047244094488,"duration":"0.02"},{"name":"D4","midi":62,"time":"175.33","velocity":0.2677165354330709,"duration":"0.07"},{"name":"A3","midi":57,"time":"175.37","velocity":0.28346456692913385,"duration":"0.16"},{"name":"A5","midi":81,"time":"175.37","velocity":0.08661417322834646,"duration":"0.03"},{"name":"D2","midi":38,"time":"175.42","velocity":0.07086614173228346,"duration":"0.03"},{"name":"D4","midi":62,"time":"175.44","velocity":0.2047244094488189,"duration":"0.05"},{"name":"F#5","midi":78,"time":"175.44","velocity":0.14173228346456693,"duration":"0.14"},{"name":"A5","midi":81,"time":"175.48","velocity":0.11023622047244094,"duration":"0.05"},{"name":"F#4","midi":66,"time":"175.49","velocity":0.2755905511811024,"duration":"0.29"},{"name":"D4","midi":62,"time":"175.52","velocity":0.1889763779527559,"duration":"0.06"},{"name":"F#3","midi":54,"time":"175.53","velocity":0.11023622047244094,"duration":"0.07"},{"name":"A#5","midi":82,"time":"175.53","velocity":0.11023622047244094,"duration":"0.08"},{"name":"C#4","midi":61,"time":"175.58","velocity":0.23622047244094488,"duration":"0.02"},{"name":"A3","midi":57,"time":"175.62","velocity":0.15748031496062992,"duration":"0.15"},{"name":"A5","midi":81,"time":"175.62","velocity":0.09448818897637795,"duration":"0.21"},{"name":"C#4","midi":61,"time":"175.63","velocity":0.2283464566929134,"duration":"0.06"},{"name":"E7","midi":100,"time":"175.67","velocity":0.1732283464566929,"duration":"0.14"},{"name":"A4","midi":69,"time":"175.76","velocity":0.41732283464566927,"duration":"0.88"},{"name":"C#4","midi":61,"time":"175.77","velocity":0.2204724409448819,"duration":"0.03"},{"name":"D5","midi":74,"time":"175.77","velocity":0.11811023622047244,"duration":"0.06"},{"name":"D4","midi":62,"time":"175.80","velocity":0.2047244094488189,"duration":"0.08"},{"name":"F#4","midi":66,"time":"175.80","velocity":0.2992125984251969,"duration":"0.38"},{"name":"A#5","midi":82,"time":"175.83","velocity":0.1968503937007874,"duration":"0.38"},{"name":"D5","midi":74,"time":"175.90","velocity":0.10236220472440945,"duration":"0.05"},{"name":"F#3","midi":54,"time":"175.92","velocity":0.16535433070866143,"duration":"0.05"},{"name":"C#4","midi":61,"time":"175.93","velocity":0.10236220472440945,"duration":"0.05"},{"name":"D3","midi":50,"time":"176.00","velocity":0.13385826771653545,"duration":"0.03"},{"name":"F#3","midi":54,"time":"176.08","velocity":0.14960629921259844,"duration":"0.03"},{"name":"C#4","midi":61,"time":"176.14","velocity":0.2047244094488189,"duration":"0.06"},{"name":"F#3","midi":54,"time":"176.20","velocity":0.1732283464566929,"duration":"0.13"},{"name":"F#4","midi":66,"time":"176.20","velocity":0.2440944881889764,"duration":"0.37"},{"name":"A#5","midi":82,"time":"176.29","velocity":0.11023622047244094,"duration":"0.24"},{"name":"F#3","midi":54,"time":"176.36","velocity":0.14960629921259844,"duration":"0.03"},{"name":"F#3","midi":54,"time":"176.44","velocity":0.14960629921259844,"duration":"0.03"},{"name":"D4","midi":62,"time":"176.51","velocity":0.14173228346456693,"duration":"0.07"},{"name":"E6","midi":88,"time":"176.64","velocity":0.12598425196850394,"duration":"0.42"},{"name":"G#4","midi":68,"time":"176.66","velocity":0.4251968503937008,"duration":"0.22"},{"name":"D5","midi":74,"time":"176.69","velocity":0.07086614173228346,"duration":"0.22"},{"name":"A5","midi":81,"time":"176.69","velocity":0.13385826771653545,"duration":"0.10"},{"name":"E5","midi":76,"time":"176.72","velocity":0.10236220472440945,"duration":"0.12"},{"name":"D3","midi":50,"time":"176.83","velocity":0.11023622047244094,"duration":"0.14"},{"name":"A3","midi":57,"time":"176.86","velocity":0.07874015748031496,"duration":"0.03"},{"name":"A4","midi":69,"time":"176.87","velocity":0.36220472440944884,"duration":"0.02"},{"name":"G#4","midi":68,"time":"176.90","velocity":0.4645669291338583,"duration":"0.81"},{"name":"A3","midi":57,"time":"176.94","velocity":0.08661417322834646,"duration":"0.06"},{"name":"A5","midi":81,"time":"176.94","velocity":0.14173228346456693,"duration":"0.30"},{"name":"D5","midi":74,"time":"177.08","velocity":0.10236220472440945,"duration":"0.21"},{"name":"C4","midi":60,"time":"177.10","velocity":0.2440944881889764,"duration":"0.02"},{"name":"F#5","midi":78,"time":"177.12","velocity":0.2125984251968504,"duration":"0.06"},{"name":"D3","midi":50,"time":"177.13","velocity":0.11023622047244094,"duration":"0.15"},{"name":"B3","midi":59,"time":"177.13","velocity":0.4409448818897638,"duration":"0.12"},{"name":"C#4","midi":61,"time":"177.29","velocity":0.48031496062992124,"duration":"0.13"},{"name":"A6","midi":93,"time":"177.29","velocity":0.16535433070866143,"duration":"0.09"},{"name":"E5","midi":76,"time":"177.30","velocity":0.10236220472440945,"duration":"0.06"},{"name":"A3","midi":57,"time":"177.33","velocity":0.25984251968503935,"duration":"0.02"},{"name":"A5","midi":81,"time":"177.34","velocity":0.25196850393700787,"duration":"0.34"},{"name":"G5","midi":79,"time":"177.37","velocity":0.28346456692913385,"duration":"0.05"},{"name":"C5","midi":72,"time":"177.38","velocity":0.2755905511811024,"duration":"0.03"},{"name":"B4","midi":71,"time":"177.42","velocity":0.23622047244094488,"duration":"0.02"},{"name":"A#3","midi":58,"time":"177.43","velocity":0.3937007874015748,"duration":"0.02"},{"name":"C#4","midi":61,"time":"177.43","velocity":0.3543307086614173,"duration":"0.05"},{"name":"C#7","midi":97,"time":"177.43","velocity":0.15748031496062992,"duration":"0.24"},{"name":"E5","midi":76,"time":"177.44","velocity":0.11811023622047244,"duration":"0.14"},{"name":"A#3","midi":58,"time":"177.48","velocity":0.47244094488188976,"duration":"0.02"},{"name":"B4","midi":71,"time":"177.49","velocity":0.3700787401574803,"duration":"0.14"},{"name":"F#5","midi":78,"time":"177.49","velocity":0.15748031496062992,"duration":"0.07"},{"name":"B3","midi":59,"time":"177.50","velocity":0.44881889763779526,"duration":"0.02"},{"name":"A#3","midi":58,"time":"177.52","velocity":0.4409448818897638,"duration":"0.02"},{"name":"C#4","midi":61,"time":"177.55","velocity":0.48031496062992124,"duration":"0.20"},{"name":"E5","midi":76,"time":"177.65","velocity":0.13385826771653545,"duration":"0.05"},{"name":"A3","midi":57,"time":"177.66","velocity":0.2755905511811024,"duration":"0.03"},{"name":"A5","midi":81,"time":"177.69","velocity":0.25984251968503935,"duration":"0.26"},{"name":"B6","midi":95,"time":"177.69","velocity":0.09448818897637795,"duration":"0.03"},{"name":"A4","midi":69,"time":"177.71","velocity":0.14173228346456693,"duration":"0.03"},{"name":"E6","midi":88,"time":"177.72","velocity":0.09448818897637795,"duration":"0.03"},{"name":"C4","midi":60,"time":"177.74","velocity":0.4094488188976378,"duration":"0.02"},{"name":"G#5","midi":80,"time":"177.76","velocity":0.1889763779527559,"duration":"0.05"},{"name":"B3","midi":59,"time":"177.77","velocity":0.5511811023622047,"duration":"0.21"},{"name":"C#7","midi":97,"time":"177.77","velocity":0.1889763779527559,"duration":"0.14"},{"name":"E5","midi":76,"time":"177.83","velocity":0.12598425196850394,"duration":"0.14"},{"name":"G#4","midi":68,"time":"177.87","velocity":0.2047244094488189,"duration":"0.06"},{"name":"A4","midi":69,"time":"177.94","velocity":0.2677165354330709,"duration":"0.03"},{"name":"G#4","midi":68,"time":"177.97","velocity":0.1968503937007874,"duration":"0.05"},{"name":"C4","midi":60,"time":"177.98","velocity":0.5354330708661418,"duration":"0.03"},{"name":"A3","midi":57,"time":"178.01","velocity":0.2992125984251969,"duration":"0.02"},{"name":"C#4","midi":61,"time":"178.01","velocity":0.5590551181102362,"duration":"0.34"},{"name":"A4","midi":69,"time":"178.03","velocity":0.15748031496062992,"duration":"0.12"},{"name":"G#5","midi":80,"time":"178.03","velocity":0.3937007874015748,"duration":"0.23"},{"name":"F#5","midi":78,"time":"178.05","velocity":0.18110236220472442,"duration":"0.26"},{"name":"E6","midi":88,"time":"178.05","velocity":0.12598425196850394,"duration":"0.03"},{"name":"A3","midi":57,"time":"178.06","velocity":0.29133858267716534,"duration":"0.05"},{"name":"E5","midi":76,"time":"178.06","velocity":0.10236220472440945,"duration":"0.03"},{"name":"F6","midi":89,"time":"178.06","velocity":0.2204724409448819,"duration":"0.15"},{"name":"A5","midi":81,"time":"178.07","velocity":0.2283464566929134,"duration":"0.05"},{"name":"A3","midi":57,"time":"178.12","velocity":0.29133858267716534,"duration":"0.02"},{"name":"A3","midi":57,"time":"178.15","velocity":0.28346456692913385,"duration":"0.06"},{"name":"A4","midi":69,"time":"178.21","velocity":0.11811023622047244,"duration":"0.09"},{"name":"E5","midi":76,"time":"178.24","velocity":0.14960629921259844,"duration":"0.06"},{"name":"B4","midi":71,"time":"178.28","velocity":0.2125984251968504,"duration":"0.08"},{"name":"A5","midi":81,"time":"178.29","velocity":0.25984251968503935,"duration":"0.14"},{"name":"A3","midi":57,"time":"178.33","velocity":0.25984251968503935,"duration":"0.02"},{"name":"F#5","midi":78,"time":"178.35","velocity":0.09448818897637795,"duration":"0.03"},{"name":"C4","midi":60,"time":"178.36","velocity":0.3543307086614173,"duration":"0.02"},{"name":"A3","midi":57,"time":"178.40","velocity":0.2677165354330709,"duration":"0.10"},{"name":"C#4","midi":61,"time":"178.41","velocity":0.5590551181102362,"duration":"0.15"},{"name":"G#5","midi":80,"time":"178.42","velocity":0.3700787401574803,"duration":"0.14"},{"name":"C#6","midi":85,"time":"178.42","velocity":0.25196850393700787,"duration":"0.09"},{"name":"E6","midi":88,"time":"178.42","velocity":0.15748031496062992,"duration":"0.03"},{"name":"F#5","midi":78,"time":"178.44","velocity":0.11023622047244094,"duration":"0.07"},{"name":"A5","midi":81,"time":"178.45","velocity":0.2677165354330709,"duration":"0.27"},{"name":"F6","midi":89,"time":"178.47","velocity":0.14960629921259844,"duration":"0.03"},{"name":"E5","midi":76,"time":"178.50","velocity":0.10236220472440945,"duration":"0.09"},{"name":"C5","midi":72,"time":"178.51","velocity":0.2440944881889764,"duration":"0.02"},{"name":"E6","midi":88,"time":"178.51","velocity":0.13385826771653545,"duration":"0.07"},{"name":"B3","midi":59,"time":"178.53","velocity":0.4251968503937008,"duration":"0.02"},{"name":"C#7","midi":97,"time":"178.55","velocity":0.13385826771653545,"duration":"0.28"},{"name":"C4","midi":60,"time":"178.62","velocity":0.5196850393700787,"duration":"0.05"},{"name":"G#5","midi":80,"time":"178.63","velocity":0.12598425196850394,"duration":"0.06"},{"name":"A4","midi":69,"time":"178.64","velocity":0.1889763779527559,"duration":"0.23"},{"name":"C#4","midi":61,"time":"178.66","velocity":0.4881889763779528,"duration":"0.21"},{"name":"A3","midi":57,"time":"178.70","velocity":0.2677165354330709,"duration":"0.02"},{"name":"A3","midi":57,"time":"178.73","velocity":0.2440944881889764,"duration":"0.02"},{"name":"E5","midi":76,"time":"178.73","velocity":0.13385826771653545,"duration":"0.06"},{"name":"A5","midi":81,"time":"178.77","velocity":0.2992125984251969,"duration":"0.08"},{"name":"A3","midi":57,"time":"178.81","velocity":0.2283464566929134,"duration":"0.02"},{"name":"G#5","midi":80,"time":"178.81","velocity":0.31496062992125984,"duration":"0.12"},{"name":"B6","midi":95,"time":"178.83","velocity":0.08661417322834646,"duration":"0.03"},{"name":"E6","midi":88,"time":"178.84","velocity":0.11811023622047244,"duration":"0.03"},{"name":"A3","midi":57,"time":"178.85","velocity":0.23622047244094488,"duration":"0.03"},{"name":"C5","midi":72,"time":"178.87","velocity":0.4330708661417323,"duration":"0.05"},{"name":"A5","midi":81,"time":"178.88","velocity":0.2677165354330709,"duration":"0.40"},{"name":"C4","midi":60,"time":"178.90","velocity":0.5118110236220472,"duration":"0.01"},{"name":"C#4","midi":61,"time":"178.91","velocity":0.4881889763779528,"duration":"0.26"},{"name":"B4","midi":71,"time":"178.91","velocity":0.13385826771653545,"duration":"0.13"},{"name":"A4","midi":69,"time":"178.93","velocity":0.14960629921259844,"duration":"0.08"},{"name":"C#7","midi":97,"time":"178.93","velocity":0.16535433070866143,"duration":"0.24"},{"name":"A4","midi":69,"time":"179.02","velocity":0.13385826771653545,"duration":"0.19"},{"name":"F7","midi":101,"time":"179.03","velocity":0.2125984251968504,"duration":"0.12"},{"name":"A3","midi":57,"time":"179.07","velocity":0.25196850393700787,"duration":"0.02"},{"name":"E5","midi":76,"time":"179.08","velocity":0.14173228346456693,"duration":"0.12"},{"name":"F#7","midi":102,"time":"179.08","velocity":0.12598425196850394,"duration":"0.06"},{"name":"A3","midi":57,"time":"179.10","velocity":0.2677165354330709,"duration":"0.02"},{"name":"G#5","midi":80,"time":"179.15","velocity":0.3543307086614173,"duration":"0.13"},{"name":"A3","midi":57,"time":"179.17","velocity":0.2440944881889764,"duration":"0.05"},{"name":"C#4","midi":61,"time":"179.17","velocity":0.4330708661417323,"duration":"0.07"},{"name":"E6","midi":88,"time":"179.17","velocity":0.15748031496062992,"duration":"0.05"},{"name":"A3","midi":57,"time":"179.23","velocity":0.2440944881889764,"duration":"0.05"},{"name":"E6","midi":88,"time":"179.24","velocity":0.12598425196850394,"duration":"0.08"},{"name":"C#7","midi":97,"time":"179.26","velocity":0.16535433070866143,"duration":"0.13"},{"name":"C#4","midi":61,"time":"179.27","velocity":0.5590551181102362,"duration":"0.29"},{"name":"C5","midi":72,"time":"179.29","velocity":0.4015748031496063,"duration":"0.02"},{"name":"E5","midi":76,"time":"179.29","velocity":0.11811023622047244,"duration":"0.07"},{"name":"G#5","midi":80,"time":"179.29","velocity":0.31496062992125984,"duration":"0.14"},{"name":"A3","midi":57,"time":"179.34","velocity":0.25196850393700787,"duration":"0.02"},{"name":"B4","midi":71,"time":"179.35","velocity":0.09448818897637795,"duration":"0.03"},{"name":"A3","midi":57,"time":"179.38","velocity":0.28346456692913385,"duration":"0.52"},{"name":"B4","midi":71,"time":"179.43","velocity":0.13385826771653545,"duration":"0.03"},{"name":"A5","midi":81,"time":"179.50","velocity":0.15748031496062992,"duration":"0.06"},{"name":"E5","midi":76,"time":"179.53","velocity":0.1732283464566929,"duration":"0.06"},{"name":"F#5","midi":78,"time":"179.53","velocity":0.2047244094488189,"duration":"0.35"},{"name":"G#5","midi":80,"time":"179.53","velocity":0.3937007874015748,"duration":"0.34"},{"name":"F6","midi":89,"time":"179.53","velocity":0.2047244094488189,"duration":"0.06"},{"name":"A6","midi":93,"time":"179.53","velocity":0.15748031496062992,"duration":"0.15"},{"name":"C#4","midi":61,"time":"179.59","velocity":0.5669291338582677,"duration":"1.16"},{"name":"A5","midi":81,"time":"179.59","velocity":0.25196850393700787,"duration":"0.06"},{"name":"B6","midi":95,"time":"179.66","velocity":0.09448818897637795,"duration":"0.06"},{"name":"A5","midi":81,"time":"179.86","velocity":0.3228346456692913,"duration":"0.44"},{"name":"E5","midi":76,"time":"179.87","velocity":0.4015748031496063,"duration":"0.34"},{"name":"A4","midi":69,"time":"179.91","velocity":0.12598425196850394,"duration":"0.14"},{"name":"B5","midi":83,"time":"179.92","velocity":0.14960629921259844,"duration":"0.03"},{"name":"F6","midi":89,"time":"179.92","velocity":0.13385826771653545,"duration":"0.03"},{"name":"E4","midi":64,"time":"179.93","velocity":0.4409448818897638,"duration":"0.19"},{"name":"F#5","midi":78,"time":"179.93","velocity":0.08661417322834646,"duration":"0.06"},{"name":"A3","midi":57,"time":"179.94","velocity":0.2755905511811024,"duration":"0.33"},{"name":"G#6","midi":92,"time":"179.98","velocity":0.2125984251968504,"duration":"0.08"},{"name":"C#7","midi":97,"time":"180.03","velocity":0.13385826771653545,"duration":"0.30"},{"name":"G#5","midi":80,"time":"180.26","velocity":0.3779527559055118,"duration":"0.51"},{"name":"E5","midi":76,"time":"180.27","velocity":0.1889763779527559,"duration":"0.26"},{"name":"E6","midi":88,"time":"180.28","velocity":0.25196850393700787,"duration":"0.08"},{"name":"C#6","midi":85,"time":"180.29","velocity":0.3228346456692913,"duration":"0.44"},{"name":"F6","midi":89,"time":"180.30","velocity":0.25196850393700787,"duration":"0.38"},{"name":"A3","midi":57,"time":"180.31","velocity":0.28346456692913385,"duration":"0.35"},{"name":"A5","midi":81,"time":"180.36","velocity":0.25984251968503935,"duration":"0.03"},{"name":"B5","midi":83,"time":"180.40","velocity":0.11023622047244094,"duration":"0.03"},{"name":"A3","midi":57,"time":"180.69","velocity":0.2755905511811024,"duration":"0.73"},{"name":"E5","midi":76,"time":"180.69","velocity":0.15748031496062992,"duration":"0.23"},{"name":"E6","midi":88,"time":"180.69","velocity":0.16535433070866143,"duration":"0.05"},{"name":"A6","midi":93,"time":"180.69","velocity":0.09448818897637795,"duration":"0.12"},{"name":"A5","midi":81,"time":"180.70","velocity":0.1889763779527559,"duration":"0.03"},{"name":"A5","midi":81,"time":"180.76","velocity":0.25984251968503935,"duration":"0.12"},{"name":"C#4","midi":61,"time":"180.77","velocity":0.4881889763779528,"duration":"1.05"},{"name":"C#7","midi":97,"time":"180.78","velocity":0.14173228346456693,"duration":"0.08"},{"name":"G#5","midi":80,"time":"180.86","velocity":0.25196850393700787,"duration":"0.03"},{"name":"A5","midi":81,"time":"180.88","velocity":0.2755905511811024,"duration":"0.45"},{"name":"E5","midi":76,"time":"181.01","velocity":0.1889763779527559,"duration":"0.07"},{"name":"G#5","midi":80,"time":"181.05","velocity":0.16535433070866143,"duration":"0.03"},{"name":"F#5","midi":78,"time":"181.07","velocity":0.18110236220472442,"duration":"0.24"},{"name":"G#5","midi":80,"time":"181.09","velocity":0.12598425196850394,"duration":"0.07"},{"name":"E6","midi":88,"time":"181.10","velocity":0.11811023622047244,"duration":"0.07"},{"name":"E5","midi":76,"time":"181.14","velocity":0.08661417322834646,"duration":"0.08"},{"name":"G#5","midi":80,"time":"181.26","velocity":0.14173228346456693,"duration":"0.03"},{"name":"E5","midi":76,"time":"181.36","velocity":0.10236220472440945,"duration":"0.07"},{"name":"A5","midi":81,"time":"181.40","velocity":0.2204724409448819,"duration":"0.08"},{"name":"A4","midi":69,"time":"181.43","velocity":0.14960629921259844,"duration":"0.19"},{"name":"G#5","midi":80,"time":"181.43","velocity":0.13385826771653545,"duration":"0.09"},{"name":"E6","midi":88,"time":"181.43","velocity":0.16535433070866143,"duration":"0.06"},{"name":"A3","midi":57,"time":"181.44","velocity":0.29133858267716534,"duration":"0.42"},{"name":"C#7","midi":97,"time":"181.44","velocity":0.11811023622047244,"duration":"0.05"},{"name":"A5","midi":81,"time":"181.50","velocity":0.2440944881889764,"duration":"0.29"},{"name":"E5","midi":76,"time":"181.55","velocity":0.11811023622047244,"duration":"0.07"},{"name":"C#7","midi":97,"time":"181.57","velocity":0.12598425196850394,"duration":"0.33"},{"name":"G#5","midi":80,"time":"181.59","velocity":0.10236220472440945,"duration":"0.05"},{"name":"E5","midi":76,"time":"181.74","velocity":0.10236220472440945,"duration":"0.07"},{"name":"A4","midi":69,"time":"181.79","velocity":0.44881889763779526,"duration":"0.88"},{"name":"D5","midi":74,"time":"181.79","velocity":0.3858267716535433,"duration":"0.12"},{"name":"A6","midi":93,"time":"181.79","velocity":0.2204724409448819,"duration":"0.15"},{"name":"D4","midi":62,"time":"181.81","velocity":0.5511811023622047,"duration":"0.09"},{"name":"B5","midi":83,"time":"181.81","velocity":0.14173228346456693,"duration":"0.26"},{"name":"E6","midi":88,"time":"181.81","velocity":0.16535433070866143,"duration":"0.05"},{"name":"F#6","midi":90,"time":"181.83","velocity":0.2283464566929134,"duration":"0.08"},{"name":"E5","midi":76,"time":"181.84","velocity":0.14960629921259844,"duration":"0.12"},{"name":"C4","midi":60,"time":"181.92","velocity":0.48031496062992124,"duration":"0.02"},{"name":"C#4","midi":61,"time":"181.94","velocity":0.4645669291338583,"duration":"0.07"},{"name":"C#7","midi":97,"time":"181.95","velocity":0.12598425196850394,"duration":"0.06"},{"name":"A3","midi":57,"time":"181.97","velocity":0.28346456692913385,"duration":"0.03"},{"name":"G#5","midi":80,"time":"181.99","velocity":0.16535433070866143,"duration":"0.06"},{"name":"E5","midi":76,"time":"182.00","velocity":0.1732283464566929,"duration":"0.14"},{"name":"A3","midi":57,"time":"182.01","velocity":0.3700787401574803,"duration":"0.02"},{"name":"B4","midi":71,"time":"182.05","velocity":0.28346456692913385,"duration":"0.07"},{"name":"C4","midi":60,"time":"182.08","velocity":0.4645669291338583,"duration":"0.03"},{"name":"C5","midi":72,"time":"182.12","velocity":0.25196850393700787,"duration":"0.03"},{"name":"C4","midi":60,"time":"182.13","velocity":0.4645669291338583,"duration":"0.03"},{"name":"C#5","midi":73,"time":"182.15","velocity":0.4251968503937008,"duration":"0.12"},{"name":"C#4","midi":61,"time":"182.16","velocity":0.5118110236220472,"duration":"0.12"},{"name":"G#5","midi":80,"time":"182.16","velocity":0.4094488188976378,"duration":"0.13"},{"name":"E5","midi":76,"time":"182.17","velocity":0.11023622047244094,"duration":"0.36"},{"name":"A3","midi":57,"time":"182.21","velocity":0.2755905511811024,"duration":"0.08"},{"name":"A6","midi":93,"time":"182.21","velocity":0.08661417322834646,"duration":"0.13"},{"name":"B6","midi":95,"time":"182.21","velocity":0.11023622047244094,"duration":"0.06"},{"name":"F6","midi":89,"time":"182.22","velocity":0.07874015748031496,"duration":"0.05"},{"name":"B5","midi":83,"time":"182.24","velocity":0.14960629921259844,"duration":"0.27"},{"name":"C5","midi":72,"time":"182.27","velocity":0.23622047244094488,"duration":"0.07"},{"name":"C4","midi":60,"time":"182.28","velocity":0.48031496062992124,"duration":"0.06"},{"name":"C#7","midi":97,"time":"182.28","velocity":0.08661417322834646,"duration":"0.07"},{"name":"G5","midi":79,"time":"182.29","velocity":0.14960629921259844,"duration":"0.03"},{"name":"B3","midi":59,"time":"182.34","velocity":0.5118110236220472,"duration":"0.02"},{"name":"C#4","midi":61,"time":"182.37","velocity":0.3858267716535433,"duration":"0.14"},{"name":"A#3","midi":58,"time":"182.40","velocity":0.33070866141732286,"duration":"0.02"},{"name":"A3","midi":57,"time":"182.42","velocity":0.29133858267716534,"duration":"0.15"},{"name":"C#4","midi":61,"time":"182.52","velocity":0.5196850393700787,"duration":"0.10"},{"name":"F#5","midi":78,"time":"182.56","velocity":0.18110236220472442,"duration":"0.08"},{"name":"G#5","midi":80,"time":"182.56","velocity":0.4094488188976378,"duration":"0.09"},{"name":"E6","midi":88,"time":"182.57","velocity":0.14173228346456693,"duration":"0.13"},{"name":"A3","midi":57,"time":"182.58","velocity":0.2677165354330709,"duration":"0.02"},{"name":"B5","midi":83,"time":"182.59","velocity":0.14960629921259844,"duration":"0.31"},{"name":"A3","midi":57,"time":"182.64","velocity":0.2440944881889764,"duration":"0.07"},{"name":"C#4","midi":61,"time":"182.64","velocity":0.36220472440944884,"duration":"0.02"},{"name":"F#5","midi":78,"time":"182.65","velocity":0.14960629921259844,"duration":"0.09"},{"name":"G#6","midi":92,"time":"182.65","velocity":0.14960629921259844,"duration":"0.09"},{"name":"C4","midi":60,"time":"182.66","velocity":0.33070866141732286,"duration":"0.02"},{"name":"G#5","midi":80,"time":"182.66","velocity":0.3937007874015748,"duration":"0.08"},{"name":"G#4","midi":68,"time":"182.67","velocity":0.48031496062992124,"duration":"1.05"},{"name":"C#4","midi":61,"time":"182.69","velocity":0.48031496062992124,"duration":"0.20"},{"name":"A3","midi":57,"time":"182.72","velocity":0.25984251968503935,"duration":"0.02"},{"name":"E5","midi":76,"time":"182.74","velocity":0.09448818897637795,"duration":"0.07"},{"name":"A3","midi":57,"time":"182.77","velocity":0.25984251968503935,"duration":"0.14"},{"name":"F#5","midi":78,"time":"182.77","velocity":0.1889763779527559,"duration":"0.12"},{"name":"A5","midi":81,"time":"182.86","velocity":0.18110236220472442,"duration":"0.15"},{"name":"C#5","midi":73,"time":"182.88","velocity":0.12598425196850394,"duration":"0.05"},{"name":"D4","midi":62,"time":"182.92","velocity":0.4566929133858268,"duration":"0.05"},{"name":"A6","midi":93,"time":"182.92","velocity":0.2125984251968504,"duration":"0.15"},{"name":"E5","midi":76,"time":"182.93","velocity":0.11811023622047244,"duration":"0.05"},{"name":"A3","midi":57,"time":"182.94","velocity":0.2283464566929134,"duration":"0.05"},{"name":"B5","midi":83,"time":"182.94","velocity":0.1968503937007874,"duration":"0.20"},{"name":"E6","midi":88,"time":"182.95","velocity":0.1732283464566929,"duration":"0.14"},{"name":"C#4","midi":61,"time":"182.97","velocity":0.48031496062992124,"duration":"0.05"},{"name":"C#5","midi":73,"time":"183.02","velocity":0.2204724409448819,"duration":"0.05"},{"name":"B4","midi":71,"time":"183.03","velocity":0.3464566929133858,"duration":"0.15"},{"name":"C4","midi":60,"time":"183.05","velocity":0.4094488188976378,"duration":"0.02"},{"name":"E5","midi":76,"time":"183.08","velocity":0.12598425196850394,"duration":"0.05"},{"name":"F#5","midi":78,"time":"183.08","velocity":0.3464566929133858,"duration":"0.16"},{"name":"B3","midi":59,"time":"183.09","velocity":0.4094488188976378,"duration":"0.10"},{"name":"E4","midi":64,"time":"183.10","velocity":0.08661417322834646,"duration":"0.06"},{"name":"C#5","midi":73,"time":"183.10","velocity":0.1968503937007874,"duration":"0.09"},{"name":"A5","midi":81,"time":"183.10","velocity":0.15748031496062992,"duration":"0.17"},{"name":"E5","midi":76,"time":"183.14","velocity":0.14173228346456693,"duration":"0.06"},{"name":"A#3","midi":58,"time":"183.24","velocity":0.23622047244094488,"duration":"0.03"},{"name":"B3","midi":59,"time":"183.28","velocity":0.33070866141732286,"duration":"0.02"},{"name":"C#5","midi":73,"time":"183.29","velocity":0.3937007874015748,"duration":"0.14"},{"name":"C#4","midi":61,"time":"183.30","velocity":0.4330708661417323,"duration":"0.09"},{"name":"E5","midi":76,"time":"183.30","velocity":0.13385826771653545,"duration":"0.03"},{"name":"F7","midi":101,"time":"183.30","velocity":0.09448818897637795,"duration":"0.03"},{"name":"E4","midi":64,"time":"183.35","velocity":0.29133858267716534,"duration":"0.36"},{"name":"C4","midi":60,"time":"183.40","velocity":0.4881889763779528,"duration":"0.03"},{"name":"B4","midi":71,"time":"183.41","velocity":0.29133858267716534,"duration":"0.56"},{"name":"E3","midi":52,"time":"183.43","velocity":0.11811023622047244,"duration":"0.06"},{"name":"B3","midi":59,"time":"183.43","velocity":0.49606299212598426,"duration":"0.65"},{"name":"E3","midi":52,"time":"183.50","velocity":0.07086614173228346,"duration":"0.03"},{"name":"C#5","midi":73,"time":"183.51","velocity":0.14960629921259844,"duration":"0.07"},{"name":"F#5","midi":78,"time":"183.56","velocity":0.2677165354330709,"duration":"0.53"},{"name":"D#6","midi":87,"time":"183.63","velocity":0.2283464566929134,"duration":"0.26"},{"name":"E3","midi":52,"time":"183.65","velocity":0.13385826771653545,"duration":"0.03"},{"name":"C#5","midi":73,"time":"183.67","velocity":0.31496062992125984,"duration":"0.10"},{"name":"E6","midi":88,"time":"183.69","velocity":0.1732283464566929,"duration":"0.14"},{"name":"E5","midi":76,"time":"183.71","velocity":0.10236220472440945,"duration":"0.03"},{"name":"E4","midi":64,"time":"183.72","velocity":0.4566929133858268,"duration":"1.50"},{"name":"G#4","midi":68,"time":"183.76","velocity":0.2283464566929134,"duration":"0.30"},{"name":"E3","midi":52,"time":"183.77","velocity":0.11811023622047244,"duration":"0.15"},{"name":"G#5","midi":80,"time":"183.80","velocity":0.25984251968503935,"duration":"0.08"},{"name":"C#5","midi":73,"time":"183.84","velocity":0.15748031496062992,"duration":"0.06"},{"name":"D#5","midi":75,"time":"184.00","velocity":0.14960629921259844,"duration":"0.06"},{"name":"C#5","midi":73,"time":"184.03","velocity":0.2047244094488189,"duration":"0.10"},{"name":"G#5","midi":80,"time":"184.07","velocity":0.29133858267716534,"duration":"0.12"},{"name":"B3","midi":59,"time":"184.09","velocity":0.3464566929133858,"duration":"0.06"},{"name":"G#4","midi":68,"time":"184.12","velocity":0.11023622047244094,"duration":"0.09"},{"name":"C4","midi":60,"time":"184.15","velocity":0.3543307086614173,"duration":"0.02"},{"name":"B5","midi":83,"time":"184.15","velocity":0.07874015748031496,"duration":"0.06"},{"name":"G#3","midi":56,"time":"184.17","velocity":0.11023622047244094,"duration":"0.06"},{"name":"C#4","midi":61,"time":"184.17","velocity":0.2283464566929134,"duration":"0.02"},{"name":"F#5","midi":78,"time":"184.22","velocity":0.16535433070866143,"duration":"0.09"},{"name":"G#5","midi":80,"time":"184.22","velocity":0.2125984251968504,"duration":"0.10"},{"name":"G#4","midi":68,"time":"184.24","velocity":0.09448818897637795,"duration":"0.07"},{"name":"B3","midi":59,"time":"184.29","velocity":0.2283464566929134,"duration":"0.16"},{"name":"F#5","midi":78,"time":"184.34","velocity":0.13385826771653545,"duration":"0.27"},{"name":"G#5","midi":80,"time":"184.38","velocity":0.07874015748031496,"duration":"0.03"},{"name":"C#5","midi":73,"time":"184.40","velocity":0.2755905511811024,"duration":"0.14"},{"name":"G#6","midi":92,"time":"184.42","velocity":0.12598425196850394,"duration":"0.07"},{"name":"G#4","midi":68,"time":"184.43","velocity":0.25984251968503935,"duration":"0.44"},{"name":"E6","midi":88,"time":"184.43","velocity":0.12598425196850394,"duration":"0.06"},{"name":"B3","midi":59,"time":"184.47","velocity":0.2125984251968504,"duration":"0.06"},{"name":"E3","midi":52,"time":"184.51","velocity":0.09448818897637795,"duration":"0.07"},{"name":"G#3","midi":56,"time":"184.62","velocity":0.14173228346456693,"duration":"0.07"},{"name":"D6","midi":86,"time":"184.66","velocity":0.07086614173228346,"duration":"0.06"},{"name":"B3","midi":59,"time":"184.69","velocity":0.1968503937007874,"duration":"0.17"},{"name":"G#6","midi":92,"time":"184.77","velocity":0.10236220472440945,"duration":"0.03"},{"name":"E6","midi":88,"time":"184.79","velocity":0.1889763779527559,"duration":"0.10"},{"name":"C#5","midi":73,"time":"184.80","velocity":0.11811023622047244,"duration":"0.12"},{"name":"G#4","midi":68,"time":"184.90","velocity":0.25984251968503935,"duration":"0.31"},{"name":"G#3","midi":56,"time":"184.95","velocity":0.14960629921259844,"duration":"0.20"},{"name":"C#5","midi":73,"time":"185.06","velocity":0.10236220472440945,"duration":"0.05"},{"name":"B4","midi":71,"time":"185.17","velocity":0.07874015748031496,"duration":"0.08"},{"name":"G#4","midi":68,"time":"185.22","velocity":0.28346456692913385,"duration":"0.23"},{"name":"E4","midi":64,"time":"185.23","velocity":0.4251968503937008,"duration":"1.43"},{"name":"B4","midi":71,"time":"185.31","velocity":0.09448818897637795,"duration":"0.05"},{"name":"D6","midi":86,"time":"185.31","velocity":0.11023622047244094,"duration":"0.16"},{"name":"C#5","midi":73,"time":"185.33","velocity":0.08661417322834646,"duration":"0.05"},{"name":"G#3","midi":56,"time":"185.44","velocity":0.08661417322834646,"duration":"0.10"},{"name":"C#5","midi":73,"time":"185.48","velocity":0.09448818897637795,"duration":"0.03"},{"name":"G#4","midi":68,"time":"185.50","velocity":0.2440944881889764,"duration":"0.24"},{"name":"F#5","midi":78,"time":"185.56","velocity":0.14960629921259844,"duration":"0.17"},{"name":"G#5","midi":80,"time":"185.56","velocity":0.33070866141732286,"duration":"0.34"},{"name":"G#3","midi":56,"time":"185.59","velocity":0.07086614173228346,"duration":"0.06"},{"name":"C#5","midi":73,"time":"185.59","velocity":0.07874015748031496,"duration":"0.06"},{"name":"C#5","midi":73,"time":"185.72","velocity":0.14173228346456693,"duration":"0.19"},{"name":"F#5","midi":78,"time":"185.77","velocity":0.1889763779527559,"duration":"0.08"},{"name":"G#4","midi":68,"time":"185.78","velocity":0.16535433070866143,"duration":"0.13"},{"name":"E3","midi":52,"time":"185.91","velocity":0.07086614173228346,"duration":"0.03"},{"name":"G#4","midi":68,"time":"185.92","velocity":0.18110236220472442,"duration":"0.07"},{"name":"G#6","midi":92,"time":"185.93","velocity":0.14173228346456693,"duration":"0.03"},{"name":"G#5","midi":80,"time":"185.94","velocity":0.2677165354330709,"duration":"0.12"},{"name":"G#3","midi":56,"time":"185.95","velocity":0.1732283464566929,"duration":"0.07"},{"name":"E6","midi":88,"time":"185.95","velocity":0.1889763779527559,"duration":"0.05"},{"name":"B3","midi":59,"time":"186.01","velocity":0.4251968503937008,"duration":"1.80"},{"name":"G#4","midi":68,"time":"186.02","velocity":0.2677165354330709,"duration":"0.21"},{"name":"B5","midi":83,"time":"186.03","velocity":0.07086614173228346,"duration":"0.03"},{"name":"D#5","midi":75,"time":"186.12","velocity":0.09448818897637795,"duration":"0.05"},{"name":"G#5","midi":80,"time":"186.12","velocity":0.2677165354330709,"duration":"0.44"},{"name":"C#5","midi":73,"time":"186.24","velocity":0.07086614173228346,"duration":"0.05"},{"name":"G#4","midi":68,"time":"186.26","velocity":0.1968503937007874,"duration":"0.06"},{"name":"E6","midi":88,"time":"186.33","velocity":0.14960629921259844,"duration":"0.08"},{"name":"G#4","midi":68,"time":"186.37","velocity":0.2677165354330709,"duration":"0.19"},{"name":"C#5","midi":73,"time":"186.37","velocity":0.07086614173228346,"duration":"0.03"},{"name":"C#5","midi":73,"time":"186.44","velocity":0.09448818897637795,"duration":"0.05"},{"name":"D6","midi":86,"time":"186.49","velocity":0.09448818897637795,"duration":"0.09"},{"name":"E3","midi":52,"time":"186.59","velocity":0.11023622047244094,"duration":"0.12"},{"name":"G#4","midi":68,"time":"186.59","velocity":0.2047244094488189,"duration":"0.12"},{"name":"G#5","midi":80,"time":"186.67","velocity":0.3228346456692913,"duration":"0.16"},{"name":"E4","midi":64,"time":"186.69","velocity":0.31496062992125984,"duration":"0.21"},{"name":"E6","midi":88,"time":"186.72","velocity":0.16535433070866143,"duration":"0.12"},{"name":"G#4","midi":68,"time":"186.73","velocity":0.2677165354330709,"duration":"0.43"},{"name":"C#5","midi":73,"time":"186.86","velocity":0.13385826771653545,"duration":"0.16"},{"name":"E4","midi":64,"time":"186.95","velocity":0.2440944881889764,"duration":"0.45"},{"name":"G#5","midi":80,"time":"186.98","velocity":0.3228346456692913,"duration":"0.35"},{"name":"F#5","midi":78,"time":"187.06","velocity":0.1968503937007874,"duration":"0.19"},{"name":"E6","midi":88,"time":"187.07","velocity":0.15748031496062992,"duration":"0.09"},{"name":"G#4","midi":68,"time":"187.22","velocity":0.2047244094488189,"duration":"0.16"},{"name":"F#5","midi":78,"time":"187.28","velocity":0.1889763779527559,"duration":"0.08"},{"name":"G#6","midi":92,"time":"187.42","velocity":0.1968503937007874,"duration":"0.09"},{"name":"E4","midi":64,"time":"187.43","velocity":0.29133858267716534,"duration":"0.35"},{"name":"G#5","midi":80,"time":"187.44","velocity":0.4566929133858268,"duration":"0.51"},{"name":"E6","midi":88,"time":"187.45","velocity":0.12598425196850394,"duration":"0.15"},{"name":"G#4","midi":68,"time":"187.48","velocity":0.2755905511811024,"duration":"0.35"},{"name":"E3","midi":52,"time":"187.57","velocity":0.09448818897637795,"duration":"0.07"},{"name":"D#5","midi":75,"time":"187.63","velocity":0.10236220472440945,"duration":"0.08"},{"name":"E3","midi":52,"time":"187.76","velocity":0.10236220472440945,"duration":"0.03"},{"name":"A5","midi":81,"time":"187.79","velocity":0.23622047244094488,"duration":"0.02"},{"name":"D6","midi":86,"time":"187.79","velocity":0.2677165354330709,"duration":"0.03"},{"name":"E6","midi":88,"time":"187.81","velocity":0.11811023622047244,"duration":"0.06"},{"name":"F6","midi":89,"time":"187.81","velocity":0.2283464566929134,"duration":"0.10"},{"name":"B4","midi":71,"time":"187.83","velocity":0.07874015748031496,"duration":"0.06"},{"name":"C#5","midi":73,"time":"187.83","velocity":0.29133858267716534,"duration":"0.13"},{"name":"E4","midi":64,"time":"187.84","velocity":0.29133858267716534,"duration":"0.05"},{"name":"G#4","midi":68,"time":"187.84","velocity":0.30708661417322836,"duration":"0.21"},{"name":"C#4","midi":61,"time":"187.85","velocity":0.44881889763779526,"duration":"0.06"},{"name":"E3","midi":52,"time":"187.91","velocity":0.07086614173228346,"duration":"0.05"},{"name":"C4","midi":60,"time":"187.91","velocity":0.5354330708661418,"duration":"0.10"},{"name":"E4","midi":64,"time":"187.91","velocity":0.2755905511811024,"duration":"0.09"},{"name":"E3","midi":52,"time":"187.97","velocity":0.12598425196850394,"duration":"0.09"},{"name":"G#5","midi":80,"time":"187.97","velocity":0.3464566929133858,"duration":"0.48"},{"name":"D6","midi":86,"time":"187.97","velocity":0.09448818897637795,"duration":"0.10"},{"name":"F#5","midi":78,"time":"187.98","velocity":0.16535433070866143,"duration":"0.07"},{"name":"B3","midi":59,"time":"188.00","velocity":0.5118110236220472,"duration":"0.08"},{"name":"E4","midi":64,"time":"188.01","velocity":0.18110236220472442,"duration":"0.05"},{"name":"E3","midi":52,"time":"188.09","velocity":0.09448818897637795,"duration":"0.07"},{"name":"B3","midi":59,"time":"188.09","velocity":0.3779527559055118,"duration":"0.02"},{"name":"E5","midi":76,"time":"188.09","velocity":0.09448818897637795,"duration":"0.09"},{"name":"C#5","midi":73,"time":"188.10","velocity":0.08661417322834646,"duration":"0.08"},{"name":"G#4","midi":68,"time":"188.12","velocity":0.2755905511811024,"duration":"0.43"},{"name":"B3","midi":59,"time":"188.13","velocity":0.3779527559055118,"duration":"0.02"},{"name":"C#4","midi":61,"time":"188.15","velocity":0.36220472440944884,"duration":"0.05"},{"name":"D4","midi":62,"time":"188.20","velocity":0.3779527559055118,"duration":"0.02"},{"name":"E6","midi":88,"time":"188.20","velocity":0.08661417322834646,"duration":"0.13"},{"name":"B3","midi":59,"time":"188.21","velocity":0.36220472440944884,"duration":"0.02"},{"name":"E4","midi":64,"time":"188.21","velocity":0.30708661417322836,"duration":"0.05"},{"name":"C#5","midi":73,"time":"188.21","velocity":0.29133858267716534,"duration":"0.09"},{"name":"C#4","midi":61,"time":"188.23","velocity":0.5196850393700787,"duration":"0.07"},{"name":"E5","midi":76,"time":"188.26","velocity":0.07874015748031496,"duration":"0.09"},{"name":"E4","midi":64,"time":"188.29","velocity":0.2677165354330709,"duration":"0.10"},{"name":"C4","midi":60,"time":"188.30","velocity":0.5354330708661418,"duration":"0.03"},{"name":"D#5","midi":75,"time":"188.30","velocity":0.08661417322834646,"duration":"0.03"},{"name":"B3","midi":59,"time":"188.34","velocity":0.4251968503937008,"duration":"0.02"},{"name":"F#5","midi":78,"time":"188.34","velocity":0.25196850393700787,"duration":"0.06"},{"name":"C4","midi":60,"time":"188.36","velocity":0.48031496062992124,"duration":"0.02"},{"name":"B3","midi":59,"time":"188.38","velocity":0.3858267716535433,"duration":"0.02"},{"name":"C#4","midi":61,"time":"188.41","velocity":0.31496062992125984,"duration":"0.17"},{"name":"G#3","midi":56,"time":"188.51","velocity":0.16535433070866143,"duration":"0.09"},{"name":"F#7","midi":102,"time":"188.51","velocity":0.14960629921259844,"duration":"0.03"},{"name":"E5","midi":76,"time":"188.52","velocity":0.11811023622047244,"duration":"0.03"},{"name":"E4","midi":64,"time":"188.53","velocity":0.11023622047244094,"duration":"0.03"},{"name":"F#5","midi":78,"time":"188.55","velocity":0.1968503937007874,"duration":"0.13"},{"name":"G#5","midi":80,"time":"188.55","velocity":0.41732283464566927,"duration":"0.26"},{"name":"G#4","midi":68,"time":"188.56","velocity":0.4881889763779528,"duration":"0.85"},{"name":"C#5","midi":73,"time":"188.58","velocity":0.31496062992125984,"duration":"0.24"},{"name":"E5","midi":76,"time":"188.58","velocity":0.1968503937007874,"duration":"0.20"},{"name":"C#4","midi":61,"time":"188.59","velocity":0.48031496062992124,"duration":"0.22"},{"name":"E4","midi":64,"time":"188.59","velocity":0.2440944881889764,"duration":"0.05"},{"name":"F6","midi":89,"time":"188.60","velocity":0.12598425196850394,"duration":"0.07"},{"name":"F#5","midi":78,"time":"188.70","velocity":0.16535433070866143,"duration":"0.17"},{"name":"E4","midi":64,"time":"188.79","velocity":0.29133858267716534,"duration":"0.16"},{"name":"G#6","midi":92,"time":"188.92","velocity":0.2125984251968504,"duration":"0.13"},{"name":"C#4","midi":61,"time":"188.94","velocity":0.41732283464566927,"duration":"0.09"},{"name":"F#5","midi":78,"time":"188.94","velocity":0.11811023622047244,"duration":"0.05"},{"name":"E6","midi":88,"time":"188.94","velocity":0.13385826771653545,"duration":"0.03"},{"name":"E4","midi":64,"time":"188.97","velocity":0.28346456692913385,"duration":"0.05"},{"name":"G#3","midi":56,"time":"188.98","velocity":0.09448818897637795,"duration":"0.03"},{"name":"E4","midi":64,"time":"189.02","velocity":0.2283464566929134,"duration":"0.09"},{"name":"C5","midi":72,"time":"189.02","velocity":0.31496062992125984,"duration":"0.03"},{"name":"C4","midi":60,"time":"189.03","velocity":0.4330708661417323,"duration":"0.03"},{"name":"E3","midi":52,"time":"189.05","velocity":0.07874015748031496,"duration":"0.07"},{"name":"B4","midi":71,"time":"189.06","velocity":0.36220472440944884,"duration":"0.20"},{"name":"F#5","midi":78,"time":"189.06","velocity":0.2283464566929134,"duration":"0.20"},{"name":"B3","midi":59,"time":"189.07","velocity":0.4251968503937008,"duration":"0.20"},{"name":"D#5","midi":75,"time":"189.08","velocity":0.07086614173228346,"duration":"0.05"},{"name":"D#4","midi":63,"time":"189.12","velocity":0.2204724409448819,"duration":"0.06"},{"name":"D6","midi":86,"time":"189.12","velocity":0.08661417322834646,"duration":"0.03"},{"name":"C#5","midi":73,"time":"189.23","velocity":0.4409448818897638,"duration":"0.36"},{"name":"C4","midi":60,"time":"189.27","velocity":0.33858267716535434,"duration":"0.03"},{"name":"F#5","midi":78,"time":"189.29","velocity":0.23622047244094488,"duration":"0.34"},{"name":"C#4","midi":61,"time":"189.30","velocity":0.4330708661417323,"duration":"0.17"},{"name":"A#5","midi":82,"time":"189.31","velocity":0.13385826771653545,"duration":"0.05"},{"name":"E6","midi":88,"time":"189.31","velocity":0.13385826771653545,"duration":"0.03"},{"name":"D3","midi":50,"time":"189.35","velocity":0.11023622047244094,"duration":"0.03"},{"name":"A4","midi":69,"time":"189.41","velocity":0.44881889763779526,"duration":"0.06"},{"name":"F6","midi":89,"time":"189.42","velocity":0.1732283464566929,"duration":"0.08"},{"name":"F#4","midi":66,"time":"189.44","velocity":0.29133858267716534,"duration":"0.03"},{"name":"A4","midi":69,"time":"189.48","velocity":0.5275590551181102,"duration":"3.16"},{"name":"D3","midi":50,"time":"189.49","velocity":0.10236220472440945,"duration":"0.10"},{"name":"C#4","midi":61,"time":"189.49","velocity":0.41732283464566927,"duration":"0.09"},{"name":"B6","midi":95,"time":"189.52","velocity":0.10236220472440945,"duration":"0.05"},{"name":"F#4","midi":66,"time":"189.56","velocity":0.25196850393700787,"duration":"0.03"},{"name":"C5","midi":72,"time":"189.59","velocity":0.4094488188976378,"duration":"0.03"},{"name":"G5","midi":79,"time":"189.59","velocity":0.18110236220472442,"duration":"0.03"},{"name":"C4","midi":60,"time":"189.60","velocity":0.41732283464566927,"duration":"0.02"},{"name":"F#4","midi":66,"time":"189.60","velocity":0.2677165354330709,"duration":"0.07"},{"name":"B4","midi":71,"time":"189.63","velocity":0.25196850393700787,"duration":"0.02"},{"name":"D4","midi":62,"time":"189.64","velocity":0.3543307086614173,"duration":"0.13"},{"name":"A3","midi":57,"time":"189.65","velocity":0.3700787401574803,"duration":"0.43"},{"name":"G#5","midi":80,"time":"189.65","velocity":0.14173228346456693,"duration":"0.06"},{"name":"F#6","midi":90,"time":"189.67","velocity":0.14960629921259844,"duration":"0.03"},{"name":"F#5","midi":78,"time":"189.69","velocity":0.2125984251968504,"duration":"0.29"},{"name":"A#5","midi":82,"time":"189.69","velocity":0.10236220472440945,"duration":"0.08"},{"name":"F#4","midi":66,"time":"189.71","velocity":0.2125984251968504,"duration":"0.03"},{"name":"C#5","midi":73,"time":"189.72","velocity":0.25196850393700787,"duration":"0.26"},{"name":"G#5","midi":80,"time":"189.73","velocity":0.15748031496062992,"duration":"0.03"},{"name":"E5","midi":76,"time":"189.74","velocity":0.23622047244094488,"duration":"0.27"},{"name":"F#4","midi":66,"time":"189.76","velocity":0.2755905511811024,"duration":"0.87"},{"name":"D4","midi":62,"time":"189.78","velocity":0.2992125984251969,"duration":"0.40"},{"name":"G#5","midi":80,"time":"189.83","velocity":0.1732283464566929,"duration":"0.10"},{"name":"D3","midi":50,"time":"189.90","velocity":0.09448818897637795,"duration":"0.05"},{"name":"C5","midi":72,"time":"189.98","velocity":0.16535433070866143,"duration":"0.03"},{"name":"C#5","midi":73,"time":"190.00","velocity":0.18110236220472442,"duration":"0.07"},{"name":"C#6","midi":85,"time":"190.07","velocity":0.18110236220472442,"duration":"1.22"},{"name":"D3","midi":50,"time":"190.13","velocity":0.09448818897637795,"duration":"0.06"},{"name":"C#5","midi":73,"time":"190.13","velocity":0.2283464566929134,"duration":"0.03"},{"name":"G#5","midi":80,"time":"190.13","velocity":0.1732283464566929,"duration":"0.03"},{"name":"C5","midi":72,"time":"190.16","velocity":0.08661417322834646,"duration":"0.03"},{"name":"E5","midi":76,"time":"190.17","velocity":0.10236220472440945,"duration":"0.03"},{"name":"D4","midi":62,"time":"190.19","velocity":0.33858267716535434,"duration":"2.13"},{"name":"C#5","midi":73,"time":"190.19","velocity":0.2047244094488189,"duration":"0.15"},{"name":"G#5","midi":80,"time":"190.22","velocity":0.12598425196850394,"duration":"0.05"},{"name":"C5","midi":72,"time":"190.34","velocity":0.16535433070866143,"duration":"0.06"},{"name":"F#3","midi":54,"time":"190.36","velocity":0.15748031496062992,"duration":"0.03"},{"name":"A#5","midi":82,"time":"190.45","velocity":0.11811023622047244,"duration":"0.05"},{"name":"D#7","midi":99,"time":"190.45","velocity":0.09448818897637795,"duration":"0.03"},{"name":"E6","midi":88,"time":"190.47","velocity":0.09448818897637795,"duration":"0.03"},{"name":"C#5","midi":73,"time":"190.48","velocity":0.2204724409448819,"duration":"0.08"},{"name":"G#5","midi":80,"time":"190.56","velocity":0.10236220472440945,"duration":"0.03"},{"name":"D3","midi":50,"time":"190.57","velocity":0.11023622047244094,"duration":"0.26"},{"name":"F#4","midi":66,"time":"190.64","velocity":0.2047244094488189,"duration":"0.15"},{"name":"C#5","midi":73,"time":"190.66","velocity":0.2047244094488189,"duration":"0.06"},{"name":"A6","midi":93,"time":"190.66","velocity":0.11023622047244094,"duration":"0.03"},{"name":"F#5","midi":78,"time":"190.76","velocity":0.31496062992125984,"duration":"0.77"},{"name":"F#4","midi":66,"time":"190.81","velocity":0.28346456692913385,"duration":"0.79"},{"name":"E6","midi":88,"time":"190.83","velocity":0.11023622047244094,"duration":"0.05"},{"name":"C#5","midi":73,"time":"190.85","velocity":0.15748031496062992,"duration":"0.03"},{"name":"C#5","midi":73,"time":"190.93","velocity":0.2204724409448819,"duration":"0.15"},{"name":"F#3","midi":54,"time":"191.01","velocity":0.07874015748031496,"duration":"0.03"},{"name":"C#5","midi":73,"time":"191.10","velocity":0.11811023622047244,"duration":"0.08"},{"name":"D3","midi":50,"time":"191.21","velocity":0.11023622047244094,"duration":"0.33"},{"name":"A#5","midi":82,"time":"191.21","velocity":0.07086614173228346,"duration":"0.06"},{"name":"A6","midi":93,"time":"191.22","velocity":0.09448818897637795,"duration":"0.03"},{"name":"E6","midi":88,"time":"191.26","velocity":0.09448818897637795,"duration":"0.07"},{"name":"C#5","midi":73,"time":"191.31","velocity":0.1732283464566929,"duration":"0.19"},{"name":"C#6","midi":85,"time":"191.55","velocity":0.2047244094488189,"duration":"1.21"},{"name":"F#5","midi":78,"time":"191.56","velocity":0.29133858267716534,"duration":"0.34"},{"name":"E6","midi":88,"time":"191.58","velocity":0.07086614173228346,"duration":"0.10"},{"name":"D3","midi":50,"time":"191.60","velocity":0.08661417322834646,"duration":"0.03"},{"name":"C#5","midi":73,"time":"191.62","velocity":0.14960629921259844,"duration":"0.08"},{"name":"F#4","midi":66,"time":"191.63","velocity":0.29133858267716534,"duration":"0.71"},{"name":"F#3","midi":54,"time":"191.65","velocity":0.14173228346456693,"duration":"0.07"},{"name":"F#3","midi":54,"time":"191.73","velocity":0.11811023622047244,"duration":"0.03"},{"name":"F#3","midi":54,"time":"191.84","velocity":0.09448818897637795,"duration":"0.03"},{"name":"D3","midi":50,"time":"192.02","velocity":0.09448818897637795,"duration":"0.08"},{"name":"C#5","midi":73,"time":"192.06","velocity":0.12598425196850394,"duration":"0.16"},{"name":"D3","midi":50,"time":"192.23","velocity":0.08661417322834646,"duration":"0.06"},{"name":"A#5","midi":82,"time":"192.30","velocity":0.23622047244094488,"duration":"0.16"},{"name":"G3","midi":55,"time":"192.31","velocity":0.28346456692913385,"duration":"0.03"},{"name":"G5","midi":79,"time":"192.31","velocity":0.25984251968503935,"duration":"0.03"},{"name":"F#6","midi":90,"time":"192.31","velocity":0.15748031496062992,"duration":"0.03"},{"name":"F#5","midi":78,"time":"192.33","velocity":0.29133858267716534,"duration":"0.23"},{"name":"E6","midi":88,"time":"192.33","velocity":0.12598425196850394,"duration":"0.03"},{"name":"D4","midi":62,"time":"192.34","velocity":0.28346456692913385,"duration":"0.37"},{"name":"C#5","midi":73,"time":"192.34","velocity":0.2283464566929134,"duration":"0.09"},{"name":"F#3","midi":54,"time":"192.35","velocity":0.3543307086614173,"duration":"0.08"},{"name":"F#4","midi":66,"time":"192.35","velocity":0.49606299212598426,"duration":"1.63"},{"name":"E6","midi":88,"time":"192.38","velocity":0.1732283464566929,"duration":"0.03"},{"name":"G3","midi":55,"time":"192.43","velocity":0.36220472440944884,"duration":"0.05"},{"name":"B5","midi":83,"time":"192.45","velocity":0.13385826771653545,"duration":"0.06"},{"name":"G#3","midi":56,"time":"192.48","velocity":0.3228346456692913,"duration":"0.02"},{"name":"D#5","midi":75,"time":"192.50","velocity":0.14960629921259844,"duration":"0.42"},{"name":"A#5","midi":82,"time":"192.50","velocity":0.09448818897637795,"duration":"0.09"},{"name":"G#3","midi":56,"time":"192.51","velocity":0.3937007874015748,"duration":"0.83"},{"name":"G#5","midi":80,"time":"192.51","velocity":0.18110236220472442,"duration":"0.38"},{"name":"D6","midi":86,"time":"192.52","velocity":0.10236220472440945,"duration":"0.03"},{"name":"C6","midi":84,"time":"192.53","velocity":0.10236220472440945,"duration":"0.03"},{"name":"C#5","midi":73,"time":"192.55","velocity":0.13385826771653545,"duration":"0.15"},{"name":"D3","midi":50,"time":"192.59","velocity":0.11023622047244094,"duration":"0.03"},{"name":"C6","midi":84,"time":"192.65","velocity":0.07086614173228346,"duration":"0.13"},{"name":"A4","midi":69,"time":"192.69","velocity":0.25196850393700787,"duration":"0.06"},{"name":"F#6","midi":90,"time":"192.69","velocity":0.16535433070866143,"duration":"0.03"},{"name":"A#5","midi":82,"time":"192.70","velocity":0.11811023622047244,"duration":"0.03"},{"name":"D4","midi":62,"time":"192.72","velocity":0.30708661417322836,"duration":"0.72"},{"name":"E6","midi":88,"time":"192.72","velocity":0.11811023622047244,"duration":"0.05"},{"name":"A4","midi":69,"time":"192.76","velocity":0.2992125984251969,"duration":"0.12"},{"name":"C6","midi":84,"time":"192.84","velocity":0.09448818897637795,"duration":"0.09"},{"name":"E6","midi":88,"time":"192.84","velocity":0.11023622047244094,"duration":"0.03"},{"name":"A4","midi":69,"time":"192.91","velocity":0.25984251968503935,"duration":"0.02"},{"name":"C#5","midi":73,"time":"192.91","velocity":0.10236220472440945,"duration":"0.06"},{"name":"G#5","midi":80,"time":"192.92","velocity":0.1889763779527559,"duration":"0.42"},{"name":"D#5","midi":75,"time":"192.93","velocity":0.2047244094488189,"duration":"0.40"},{"name":"A4","midi":69,"time":"192.94","velocity":0.1968503937007874,"duration":"0.06"},{"name":"A5","midi":81,"time":"193.01","velocity":0.11023622047244094,"duration":"0.03"},{"name":"C6","midi":84,"time":"193.02","velocity":0.10236220472440945,"duration":"0.07"},{"name":"A#5","midi":82,"time":"193.06","velocity":0.08661417322834646,"duration":"0.05"},{"name":"A5","midi":81,"time":"193.07","velocity":0.07874015748031496,"duration":"0.05"},{"name":"F#6","midi":90,"time":"193.07","velocity":0.10236220472440945,"duration":"0.07"},{"name":"C#6","midi":85,"time":"193.10","velocity":0.08661417322834646,"duration":"0.08"},{"name":"A4","midi":69,"time":"193.13","velocity":0.25196850393700787,"duration":"0.03"},{"name":"A#5","midi":82,"time":"193.15","velocity":0.07874015748031496,"duration":"0.05"},{"name":"A4","midi":69,"time":"193.17","velocity":0.1968503937007874,"duration":"0.03"},{"name":"A4","midi":69,"time":"193.31","velocity":0.13385826771653545,"duration":"0.06"},{"name":"G3","midi":55,"time":"193.34","velocity":0.3779527559055118,"duration":"0.02"},{"name":"F#3","midi":54,"time":"193.36","velocity":0.36220472440944884,"duration":"0.03"},{"name":"F3","midi":53,"time":"193.40","velocity":0.33070866141732286,"duration":"0.03"},{"name":"F#3","midi":54,"time":"193.43","velocity":0.3779527559055118,"duration":"0.21"},{"name":"C#6","midi":85,"time":"193.44","velocity":0.15748031496062992,"duration":"0.07"},{"name":"D4","midi":62,"time":"193.45","velocity":0.30708661417322836,"duration":"0.36"},{"name":"C#5","midi":73,"time":"193.45","velocity":0.1889763779527559,"duration":"0.07"},{"name":"A4","midi":69,"time":"193.47","velocity":0.12598425196850394,"duration":"0.03"},{"name":"A#5","midi":82,"time":"193.47","velocity":0.1968503937007874,"duration":"0.12"},{"name":"A5","midi":81,"time":"193.50","velocity":0.16535433070866143,"duration":"0.03"},{"name":"D6","midi":86,"time":"193.53","velocity":0.09448818897637795,"duration":"0.03"},{"name":"C#5","midi":73,"time":"193.58","velocity":0.15748031496062992,"duration":"0.06"},{"name":"A6","midi":93,"time":"193.58","velocity":0.13385826771653545,"duration":"0.03"},{"name":"A#5","midi":82,"time":"193.59","velocity":0.18110236220472442,"duration":"0.03"},{"name":"A#5","midi":82,"time":"193.64","velocity":0.18110236220472442,"duration":"0.19"},{"name":"F#3","midi":54,"time":"193.67","velocity":0.25984251968503935,"duration":"0.02"},{"name":"C#5","midi":73,"time":"193.67","velocity":0.11811023622047244,"duration":"0.07"},{"name":"F#3","midi":54,"time":"193.71","velocity":0.2755905511811024,"duration":"0.07"},{"name":"C#6","midi":85,"time":"193.76","velocity":0.07874015748031496,"duration":"0.07"},{"name":"F#3","midi":54,"time":"193.79","velocity":0.2677165354330709,"duration":"0.07"},{"name":"D#4","midi":63,"time":"193.81","velocity":0.2440944881889764,"duration":"0.02"},{"name":"A5","midi":81,"time":"193.81","velocity":0.2047244094488189,"duration":"0.09"},{"name":"D4","midi":62,"time":"193.84","velocity":0.3858267716535433,"duration":"0.73"},{"name":"A4","midi":69,"time":"193.84","velocity":0.4645669291338583,"duration":"0.83"},{"name":"C#5","midi":73,"time":"193.84","velocity":0.11811023622047244,"duration":"0.03"},{"name":"F#3","midi":54,"time":"193.87","velocity":0.2755905511811024,"duration":"0.22"},{"name":"C#6","midi":85,"time":"193.87","velocity":0.09448818897637795,"duration":"0.10"},{"name":"A#5","midi":82,"time":"193.93","velocity":0.11811023622047244,"duration":"0.07"},{"name":"C#5","midi":73,"time":"194.01","velocity":0.11811023622047244,"duration":"0.07"},{"name":"A#5","midi":82,"time":"194.01","velocity":0.15748031496062992,"duration":"0.09"},{"name":"F#3","midi":54,"time":"194.10","velocity":0.2204724409448819,"duration":"0.03"},{"name":"C#5","midi":73,"time":"194.13","velocity":0.07874015748031496,"duration":"0.08"},{"name":"F#3","midi":54,"time":"194.15","velocity":0.25984251968503935,"duration":"0.21"},{"name":"F#4","midi":66,"time":"194.20","velocity":0.3543307086614173,"duration":"0.34"},{"name":"A#5","midi":82,"time":"194.20","velocity":0.13385826771653545,"duration":"0.14"},{"name":"E5","midi":76,"time":"194.31","velocity":0.10236220472440945,"duration":"0.05"},{"name":"C#5","midi":73,"time":"194.42","velocity":0.07874015748031496,"duration":"0.10"},{"name":"A#5","midi":82,"time":"194.47","velocity":0.09448818897637795,"duration":"0.08"},{"name":"C#5","midi":73,"time":"194.55","velocity":0.3464566929133858,"duration":"0.70"},{"name":"F#3","midi":54,"time":"194.56","velocity":0.11023622047244094,"duration":"0.03"},{"name":"F#4","midi":66,"time":"194.56","velocity":0.2204724409448819,"duration":"0.03"},{"name":"C#4","midi":61,"time":"194.57","velocity":0.4566929133858268,"duration":"0.24"},{"name":"A#5","midi":82,"time":"194.57","velocity":0.12598425196850394,"duration":"0.16"},{"name":"F#6","midi":90,"time":"194.57","velocity":0.11811023622047244,"duration":"0.15"},{"name":"G#5","midi":80,"time":"194.58","velocity":0.1968503937007874,"duration":"0.14"},{"name":"F#5","midi":78,"time":"194.59","velocity":0.2204724409448819,"duration":"0.33"},{"name":"F#3","midi":54,"time":"194.60","velocity":0.11811023622047244,"duration":"0.06"},{"name":"G#4","midi":68,"time":"194.66","velocity":0.41732283464566927,"duration":"0.26"},{"name":"A5","midi":81,"time":"194.70","velocity":0.07874015748031496,"duration":"0.10"},{"name":"F#3","midi":54,"time":"194.77","velocity":0.12598425196850394,"duration":"0.10"},{"name":"C#4","midi":61,"time":"194.83","velocity":0.48031496062992124,"duration":"0.37"},{"name":"F#3","midi":54,"time":"194.88","velocity":0.10236220472440945,"duration":"0.03"},{"name":"A5","midi":81,"time":"194.91","velocity":0.13385826771653545,"duration":"0.08"},{"name":"A4","midi":69,"time":"194.93","velocity":0.4094488188976378,"duration":"0.05"},{"name":"A#5","midi":82,"time":"194.94","velocity":0.11811023622047244,"duration":"0.07"},{"name":"D3","midi":50,"time":"194.98","velocity":0.08661417322834646,"duration":"0.05"},{"name":"G#4","midi":68,"time":"194.98","velocity":0.48031496062992124,"duration":"0.64"},{"name":"F#5","midi":78,"time":"194.99","velocity":0.2047244094488189,"duration":"0.23"},{"name":"A5","midi":81,"time":"195.07","velocity":0.12598425196850394,"duration":"0.12"},{"name":"G#3","midi":56,"time":"195.09","velocity":0.16535433070866143,"duration":"0.03"},{"name":"F3","midi":53,"time":"195.17","velocity":0.1889763779527559,"duration":"0.03"},{"name":"C4","midi":60,"time":"195.20","velocity":0.2992125984251969,"duration":"0.02"},{"name":"E5","midi":76,"time":"195.20","velocity":0.11811023622047244,"duration":"0.09"},{"name":"A5","midi":81,"time":"195.21","velocity":0.3779527559055118,"duration":"0.12"},{"name":"C#4","midi":61,"time":"195.26","velocity":0.2125984251968504,"duration":"0.03"},{"name":"D5","midi":74,"time":"195.28","velocity":0.44881889763779526,"duration":"0.05"},{"name":"D4","midi":62,"time":"195.29","velocity":0.36220472440944884,"duration":"0.02"},{"name":"A3","midi":57,"time":"195.30","velocity":0.2440944881889764,"duration":"0.02"},{"name":"C#4","midi":61,"time":"195.31","velocity":0.4330708661417323,"duration":"0.20"},{"name":"E6","midi":88,"time":"195.31","velocity":0.1968503937007874,"duration":"0.10"},{"name":"F6","midi":89,"time":"195.31","velocity":0.11023622047244094,"duration":"0.08"},{"name":"G#6","midi":92,"time":"195.31","velocity":0.1732283464566929,"duration":"0.10"},{"name":"E5","midi":76,"time":"195.33","velocity":0.15748031496062992,"duration":"0.12"},{"name":"F7","midi":101,"time":"195.33","velocity":0.14173228346456693,"duration":"0.06"},{"name":"A3","midi":57,"time":"195.35","velocity":0.29133858267716534,"duration":"0.08"},{"name":"B6","midi":95,"time":"195.36","velocity":0.13385826771653545,"duration":"0.05"},{"name":"A5","midi":81,"time":"195.37","velocity":0.2677165354330709,"duration":"0.23"},{"name":"A3","midi":57,"time":"195.44","velocity":0.2755905511811024,"duration":"0.06"},{"name":"C#6","midi":85,"time":"195.45","velocity":0.11811023622047244,"duration":"0.06"},{"name":"E4","midi":64,"time":"195.50","velocity":0.13385826771653545,"duration":"0.03"},{"name":"A#3","midi":58,"time":"195.51","velocity":0.47244094488188976,"duration":"0.03"},{"name":"B4","midi":71,"time":"195.53","velocity":0.14960629921259844,"duration":"0.05"},{"name":"C#5","midi":73,"time":"195.53","velocity":0.1732283464566929,"duration":"0.05"},{"name":"B3","midi":59,"time":"195.55","velocity":0.49606299212598426,"duration":"0.03"},{"name":"C#6","midi":85,"time":"195.55","velocity":0.1968503937007874,"duration":"0.24"},{"name":"C4","midi":60,"time":"195.58","velocity":0.5354330708661418,"duration":"0.06"},{"name":"G5","midi":79,"time":"195.62","velocity":0.11023622047244094,"duration":"0.03"},{"name":"C#4","midi":61,"time":"195.64","velocity":0.5826771653543307,"duration":"0.12"},{"name":"A3","midi":57,"time":"195.65","velocity":0.2755905511811024,"duration":"0.02"},{"name":"G#5","midi":80,"time":"195.65","velocity":0.1889763779527559,"duration":"0.06"},{"name":"E5","midi":76,"time":"195.66","velocity":0.16535433070866143,"duration":"0.23"},{"name":"G#4","midi":68,"time":"195.69","velocity":0.14960629921259844,"duration":"0.03"},{"name":"A5","midi":81,"time":"195.69","velocity":0.2755905511811024,"duration":"0.34"},{"name":"A3","midi":57,"time":"195.73","velocity":0.25984251968503935,"duration":"0.02"},{"name":"G#4","midi":68,"time":"195.74","velocity":0.2204724409448819,"duration":"0.24"},{"name":"G#5","midi":80,"time":"195.74","velocity":0.2440944881889764,"duration":"0.06"},{"name":"C4","midi":60,"time":"195.76","velocity":0.4645669291338583,"duration":"0.05"},{"name":"B3","midi":59,"time":"195.80","velocity":0.4566929133858268,"duration":"0.02"},{"name":"C4","midi":60,"time":"195.83","velocity":0.49606299212598426,"duration":"0.02"},{"name":"C#6","midi":85,"time":"195.85","velocity":0.10236220472440945,"duration":"0.16"},{"name":"C4","midi":60,"time":"195.86","velocity":0.47244094488188976,"duration":"0.02"},{"name":"F#5","midi":78,"time":"195.86","velocity":0.11811023622047244,"duration":"0.03"},{"name":"G6","midi":91,"time":"195.86","velocity":0.13385826771653545,"duration":"0.03"},{"name":"B4","midi":71,"time":"195.87","velocity":0.29133858267716534,"duration":"0.05"},{"name":"B3","midi":59,"time":"195.88","velocity":0.4251968503937008,"duration":"0.02"},{"name":"C#4","midi":61,"time":"195.92","velocity":0.4251968503937008,"duration":"0.20"},{"name":"E5","midi":76,"time":"195.95","velocity":0.07086614173228346,"duration":"0.03"},{"name":"A3","midi":57,"time":"195.98","velocity":0.30708661417322836,"duration":"0.19"},{"name":"G#5","midi":80,"time":"196.02","velocity":0.10236220472440945,"duration":"0.06"},{"name":"B4","midi":71,"time":"196.05","velocity":0.14960629921259844,"duration":"0.07"},{"name":"F#5","midi":78,"time":"196.06","velocity":0.1732283464566929,"duration":"0.20"},{"name":"A6","midi":93,"time":"196.07","velocity":0.13385826771653545,"duration":"0.12"},{"name":"A5","midi":81,"time":"196.08","velocity":0.2755905511811024,"duration":"0.34"},{"name":"D5","midi":74,"time":"196.10","velocity":0.3464566929133858,"duration":"0.05"},{"name":"E5","midi":76,"time":"196.10","velocity":0.11811023622047244,"duration":"0.06"},{"name":"F7","midi":101,"time":"196.13","velocity":0.09448818897637795,"duration":"0.05"},{"name":"C#4","midi":61,"time":"196.14","velocity":0.5748031496062992,"duration":"0.34"},{"name":"C#6","midi":85,"time":"196.14","velocity":0.07086614173228346,"duration":"0.05"},{"name":"A3","midi":57,"time":"196.17","velocity":0.29133858267716534,"duration":"0.06"},{"name":"G#5","midi":80,"time":"196.17","velocity":0.18110236220472442,"duration":"0.03"},{"name":"B4","midi":71,"time":"196.19","velocity":0.12598425196850394,"duration":"0.06"},{"name":"E5","midi":76,"time":"196.23","velocity":0.08661417322834646,"duration":"0.06"},{"name":"A3","midi":57,"time":"196.27","velocity":0.2755905511811024,"duration":"0.06"},{"name":"F#5","midi":78,"time":"196.27","velocity":0.15748031496062992,"duration":"0.08"},{"name":"A3","midi":57,"time":"196.36","velocity":0.29133858267716534,"duration":"0.08"},{"name":"G#4","midi":68,"time":"196.40","velocity":0.11023622047244094,"duration":"0.03"},{"name":"A6","midi":93,"time":"196.43","velocity":0.1889763779527559,"duration":"0.17"},{"name":"A5","midi":81,"time":"196.44","velocity":0.2992125984251969,"duration":"0.12"},{"name":"B4","midi":71,"time":"196.45","velocity":0.09448818897637795,"duration":"0.06"},{"name":"A3","midi":57,"time":"196.47","velocity":0.2440944881889764,"duration":"0.07"},{"name":"C#5","midi":73,"time":"196.48","velocity":0.18110236220472442,"duration":"0.05"},{"name":"E5","midi":76,"time":"196.48","velocity":0.07874015748031496,"duration":"0.03"},{"name":"C#4","midi":61,"time":"196.50","velocity":0.5039370078740157,"duration":"0.14"},{"name":"C#7","midi":97,"time":"196.50","velocity":0.11811023622047244,"duration":"0.05"},{"name":"C5","midi":72,"time":"196.52","velocity":0.2283464566929134,"duration":"0.02"},{"name":"B4","midi":71,"time":"196.55","velocity":0.33070866141732286,"duration":"0.20"},{"name":"E5","midi":76,"time":"196.58","velocity":0.15748031496062992,"duration":"0.10"},{"name":"G#5","midi":80,"time":"196.58","velocity":0.11023622047244094,"duration":"0.05"},{"name":"C#4","midi":61,"time":"196.65","velocity":0.4330708661417323,"duration":"0.02"},{"name":"C#4","midi":61,"time":"196.69","velocity":0.4409448818897638,"duration":"0.02"},{"name":"A5","midi":81,"time":"196.70","velocity":0.3543307086614173,"duration":"0.45"},{"name":"B3","midi":59,"time":"196.72","velocity":0.4094488188976378,"duration":"0.02"},{"name":"A4","midi":69,"time":"196.72","velocity":0.07874015748031496,"duration":"0.06"},{"name":"C5","midi":72,"time":"196.74","velocity":0.31496062992125984,"duration":"0.06"},{"name":"C#4","midi":61,"time":"196.76","velocity":0.4645669291338583,"duration":"0.02"},{"name":"C#4","midi":61,"time":"196.79","velocity":0.5118110236220472,"duration":"0.17"},{"name":"A3","midi":57,"time":"196.83","velocity":0.25984251968503935,"duration":"0.06"},{"name":"G#5","midi":80,"time":"196.85","velocity":0.3543307086614173,"duration":"0.06"},{"name":"F6","midi":89,"time":"196.85","velocity":0.09448818897637795,"duration":"0.03"},{"name":"E6","midi":88,"time":"196.87","velocity":0.16535433070866143,"duration":"0.05"},{"name":"G5","midi":79,"time":"196.91","velocity":0.30708661417322836,"duration":"0.06"},{"name":"C6","midi":84,"time":"196.91","velocity":0.18110236220472442,"duration":"0.05"},{"name":"C5","midi":72,"time":"196.92","velocity":0.3779527559055118,"duration":"0.03"},{"name":"B4","midi":71,"time":"196.95","velocity":0.41732283464566927,"duration":"0.06"},{"name":"C4","midi":60,"time":"196.98","velocity":0.47244094488188976,"duration":"0.02"},{"name":"E5","midi":76,"time":"196.98","velocity":0.10236220472440945,"duration":"0.05"},{"name":"G#5","midi":80,"time":"197.00","velocity":0.15748031496062992,"duration":"0.14"},{"name":"C4","midi":60,"time":"197.01","velocity":0.4015748031496063,"duration":"0.02"},{"name":"C#4","midi":61,"time":"197.06","velocity":0.4409448818897638,"duration":"0.19"},{"name":"A3","midi":57,"time":"197.08","velocity":0.2992125984251969,"duration":"0.66"},{"name":"A5","midi":81,"time":"197.19","velocity":0.33070866141732286,"duration":"0.08"},{"name":"E5","midi":76,"time":"197.20","velocity":0.10236220472440945,"duration":"0.03"},{"name":"D5","midi":74,"time":"197.21","velocity":0.3228346456692913,"duration":"0.02"},{"name":"G#6","midi":92,"time":"197.23","velocity":0.2047244094488189,"duration":"0.10"},{"name":"G#5","midi":80,"time":"197.24","velocity":0.3464566929133858,"duration":"0.47"},{"name":"E5","midi":76,"time":"197.26","velocity":0.18110236220472442,"duration":"0.30"},{"name":"C#4","midi":61,"time":"197.27","velocity":0.4094488188976378,"duration":"0.14"},{"name":"B4","midi":71,"time":"197.34","velocity":0.15748031496062992,"duration":"0.06"},{"name":"C#4","midi":61,"time":"197.42","velocity":0.4645669291338583,"duration":"0.31"},{"name":"A5","midi":81,"time":"197.50","velocity":0.11811023622047244,"duration":"0.05"},{"name":"F#5","midi":78,"time":"197.56","velocity":0.14960629921259844,"duration":"0.19"},{"name":"A6","midi":93,"time":"197.57","velocity":0.2125984251968504,"duration":"0.15"},{"name":"E5","midi":76,"time":"197.58","velocity":0.11811023622047244,"duration":"0.19"},{"name":"A5","midi":81,"time":"197.62","velocity":0.25984251968503935,"duration":"0.34"},{"name":"C#4","midi":61,"time":"197.74","velocity":0.5905511811023622,"duration":"0.84"},{"name":"A4","midi":69,"time":"197.74","velocity":0.08661417322834646,"duration":"0.17"},{"name":"F#5","midi":78,"time":"197.77","velocity":0.15748031496062992,"duration":"0.07"},{"name":"A3","midi":57,"time":"197.80","velocity":0.2992125984251969,"duration":"0.13"},{"name":"E5","midi":76,"time":"197.80","velocity":0.11811023622047244,"duration":"0.07"},{"name":"G#5","midi":80,"time":"197.90","velocity":0.07086614173228346,"duration":"0.03"},{"name":"A3","midi":57,"time":"197.94","velocity":0.28346456692913385,"duration":"0.06"},{"name":"E5","midi":76,"time":"197.94","velocity":0.18110236220472442,"duration":"0.12"},{"name":"F4","midi":65,"time":"197.95","velocity":0.4015748031496063,"duration":"0.03"},{"name":"F#5","midi":78,"time":"197.95","velocity":0.07086614173228346,"duration":"0.03"},{"name":"A5","midi":81,"time":"197.97","velocity":0.2047244094488189,"duration":"0.30"},{"name":"E4","midi":64,"time":"197.99","velocity":0.4015748031496063,"duration":"0.05"},{"name":"B6","midi":95,"time":"197.99","velocity":0.18110236220472442,"duration":"0.05"},{"name":"E7","midi":100,"time":"197.99","velocity":0.10236220472440945,"duration":"0.05"},{"name":"A3","midi":57,"time":"198.01","velocity":0.28346456692913385,"duration":"0.31"},{"name":"G#5","midi":80,"time":"198.02","velocity":0.1889763779527559,"duration":"0.08"},{"name":"G7","midi":103,"time":"198.02","velocity":0.10236220472440945,"duration":"0.07"},{"name":"F4","midi":65,"time":"198.06","velocity":0.3858267716535433,"duration":"0.02"},{"name":"E5","midi":76,"time":"198.07","velocity":0.12598425196850394,"duration":"0.05"},{"name":"E4","midi":64,"time":"198.08","velocity":0.3464566929133858,"duration":"0.03"},{"name":"B4","midi":71,"time":"198.08","velocity":0.07874015748031496,"duration":"0.07"},{"name":"E4","midi":64,"time":"198.13","velocity":0.1968503937007874,"duration":"0.05"},{"name":"G#5","midi":80,"time":"198.30","velocity":0.4645669291338583,"duration":"0.30"},{"name":"A6","midi":93,"time":"198.33","velocity":0.13385826771653545,"duration":"0.15"},{"name":"A3","midi":57,"time":"198.34","velocity":0.2283464566929134,"duration":"0.02"},{"name":"E6","midi":88,"time":"198.35","velocity":0.11023622047244094,"duration":"0.09"},{"name":"B4","midi":71,"time":"198.37","velocity":0.08661417322834646,"duration":"0.05"},{"name":"F6","midi":89,"time":"198.38","velocity":0.13385826771653545,"duration":"0.17"},{"name":"F4","midi":65,"time":"198.41","velocity":0.12598425196850394,"duration":"0.06"},{"name":"A3","midi":57,"time":"198.42","velocity":0.28346456692913385,"duration":"0.28"},{"name":"E5","midi":76,"time":"198.48","velocity":0.15748031496062992,"duration":"0.07"},{"name":"A5","midi":81,"time":"198.56","velocity":0.1732283464566929,"duration":"0.15"},{"name":"C#4","midi":61,"time":"198.60","velocity":0.5196850393700787,"duration":"1.21"},{"name":"G#5","midi":80,"time":"198.70","velocity":0.25984251968503935,"duration":"0.28"},{"name":"A4","midi":69,"time":"198.71","velocity":0.11811023622047244,"duration":"0.07"},{"name":"A6","midi":93,"time":"198.71","velocity":0.14960629921259844,"duration":"0.07"},{"name":"A3","midi":57,"time":"198.72","velocity":0.28346456692913385,"duration":"0.71"},{"name":"E6","midi":88,"time":"198.74","velocity":0.12598425196850394,"duration":"0.07"},{"name":"E4","midi":64,"time":"198.77","velocity":0.12598425196850394,"duration":"0.05"},{"name":"C#7","midi":97,"time":"198.77","velocity":0.09448818897637795,"duration":"0.05"},{"name":"A5","midi":81,"time":"198.80","velocity":0.2283464566929134,"duration":"0.20"},{"name":"E5","midi":76,"time":"198.84","velocity":0.10236220472440945,"duration":"0.05"},{"name":"E5","midi":76,"time":"198.93","velocity":0.11811023622047244,"duration":"0.08"},{"name":"A5","midi":81,"time":"199.01","velocity":0.1968503937007874,"duration":"0.08"},{"name":"E5","midi":76,"time":"199.07","velocity":0.09448818897637795,"duration":"0.05"},{"name":"F#5","midi":78,"time":"199.08","velocity":0.10236220472440945,"duration":"0.13"},{"name":"G#5","midi":80,"time":"199.08","velocity":0.1889763779527559,"duration":"0.03"},{"name":"A5","midi":81,"time":"199.10","velocity":0.2677165354330709,"duration":"0.17"},{"name":"E6","midi":88,"time":"199.10","velocity":0.10236220472440945,"duration":"0.03"},{"name":"G#5","midi":80,"time":"199.13","velocity":0.1732283464566929,"duration":"0.08"},{"name":"F4","midi":65,"time":"199.17","velocity":0.07086614173228346,"duration":"0.05"},{"name":"G#5","midi":80,"time":"199.22","velocity":0.2047244094488189,"duration":"0.13"},{"name":"F#6","midi":90,"time":"199.26","velocity":0.08661417322834646,"duration":"0.30"},{"name":"F#5","midi":78,"time":"199.29","velocity":0.16535433070866143,"duration":"0.08"},{"name":"A5","midi":81,"time":"199.33","velocity":0.2755905511811024,"duration":"0.45"},{"name":"E5","midi":76,"time":"199.38","velocity":0.11811023622047244,"duration":"0.06"},{"name":"A3","midi":57,"time":"199.47","velocity":0.2755905511811024,"duration":"0.33"},{"name":"E6","midi":88,"time":"199.48","velocity":0.12598425196850394,"duration":"0.03"},{"name":"G#5","midi":80,"time":"199.52","velocity":0.11023622047244094,"duration":"0.06"},{"name":"E4","midi":64,"time":"199.53","velocity":0.11811023622047244,"duration":"0.03"},{"name":"C#7","midi":97,"time":"199.59","velocity":0.11811023622047244,"duration":"0.09"},{"name":"G#5","midi":80,"time":"199.62","velocity":0.16535433070866143,"duration":"0.06"},{"name":"E5","midi":76,"time":"199.65","velocity":0.11811023622047244,"duration":"0.12"},{"name":"A4","midi":69,"time":"199.77","velocity":0.4566929133858268,"duration":"0.91"},{"name":"D5","midi":74,"time":"199.80","velocity":0.2677165354330709,"duration":"0.06"},{"name":"B6","midi":95,"time":"199.80","velocity":0.14173228346456693,"duration":"0.09"},{"name":"A3","midi":57,"time":"199.83","velocity":0.2755905511811024,"duration":"0.12"},{"name":"C#4","midi":61,"time":"199.84","velocity":0.5590551181102362,"duration":"0.12"},{"name":"G#6","midi":92,"time":"199.88","velocity":0.13385826771653545,"duration":"0.07"},{"name":"B5","midi":83,"time":"199.90","velocity":0.14173228346456693,"duration":"0.12"},{"name":"C#6","midi":85,"time":"199.90","velocity":0.15748031496062992,"duration":"0.06"},{"name":"G#5","midi":80,"time":"199.91","velocity":0.31496062992125984,"duration":"0.06"},{"name":"C5","midi":72,"time":"199.94","velocity":0.07086614173228346,"duration":"0.03"},{"name":"E5","midi":76,"time":"199.94","velocity":0.14960629921259844,"duration":"0.17"},{"name":"C4","midi":60,"time":"199.95","velocity":0.5118110236220472,"duration":"0.08"},{"name":"C#5","midi":73,"time":"199.97","velocity":0.14173228346456693,"duration":"0.03"},{"name":"G5","midi":79,"time":"199.99","velocity":0.2992125984251969,"duration":"0.19"},{"name":"G#5","midi":80,"time":"199.99","velocity":0.1732283464566929,"duration":"0.06"},{"name":"C4","midi":60,"time":"200.05","velocity":0.5039370078740157,"duration":"0.12"},{"name":"C#4","midi":61,"time":"200.16","velocity":0.5826771653543307,"duration":"0.14"},{"name":"E5","midi":76,"time":"200.16","velocity":0.08661417322834646,"duration":"0.05"},{"name":"G#5","midi":80,"time":"200.17","velocity":0.3464566929133858,"duration":"0.12"},{"name":"A3","midi":57,"time":"200.22","velocity":0.23622047244094488,"duration":"0.02"},{"name":"B5","midi":83,"time":"200.22","velocity":0.1732283464566929,"duration":"0.34"},{"name":"E5","midi":76,"time":"200.24","velocity":0.07086614173228346,"duration":"0.07"},{"name":"E6","midi":88,"time":"200.24","velocity":0.18110236220472442,"duration":"0.12"},{"name":"G#5","midi":80,"time":"200.30","velocity":0.25984251968503935,"duration":"0.03"},{"name":"B3","midi":59,"time":"200.31","velocity":0.3858267716535433,"duration":"0.03"},{"name":"A#3","midi":58,"time":"200.35","velocity":0.41732283464566927,"duration":"0.02"},{"name":"E5","midi":76,"time":"200.35","velocity":0.11023622047244094,"duration":"0.05"},{"name":"B4","midi":71,"time":"200.37","velocity":0.36220472440944884,"duration":"0.07"},{"name":"C4","midi":60,"time":"200.38","velocity":0.4409448818897638,"duration":"0.02"},{"name":"B3","midi":59,"time":"200.41","velocity":0.4330708661417323,"duration":"0.02"},{"name":"C4","midi":60,"time":"200.43","velocity":0.4330708661417323,"duration":"0.02"},{"name":"C#5","midi":73,"time":"200.44","velocity":0.15748031496062992,"duration":"0.05"},{"name":"C#4","midi":61,"time":"200.45","velocity":0.2283464566929134,"duration":"0.06"},{"name":"E5","midi":76,"time":"200.45","velocity":0.14960629921259844,"duration":"0.17"},{"name":"A3","midi":57,"time":"200.47","velocity":0.30708661417322836,"duration":"0.27"},{"name":"C4","midi":60,"time":"200.52","velocity":0.3543307086614173,"duration":"0.02"},{"name":"C#5","midi":73,"time":"200.52","velocity":0.4015748031496063,"duration":"0.24"},{"name":"C#4","midi":61,"time":"200.55","velocity":0.31496062992125984,"duration":"0.05"},{"name":"F#5","midi":78,"time":"200.58","velocity":0.1732283464566929,"duration":"0.19"},{"name":"A6","midi":93,"time":"200.58","velocity":0.2440944881889764,"duration":"0.20"},{"name":"B5","midi":83,"time":"200.59","velocity":0.2440944881889764,"duration":"0.73"},{"name":"E6","midi":88,"time":"200.59","velocity":0.2125984251968504,"duration":"0.15"},{"name":"C#4","midi":61,"time":"200.60","velocity":0.4330708661417323,"duration":"0.14"},{"name":"G#4","midi":68,"time":"200.67","velocity":0.49606299212598426,"duration":"0.99"},{"name":"C4","midi":60,"time":"200.76","velocity":0.33858267716535434,"duration":"0.02"},{"name":"F#6","midi":90,"time":"200.77","velocity":0.07874015748031496,"duration":"0.29"},{"name":"C#4","midi":61,"time":"200.78","velocity":0.30708661417322836,"duration":"0.02"},{"name":"F#5","midi":78,"time":"200.79","velocity":0.15748031496062992,"duration":"0.08"},{"name":"A3","midi":57,"time":"200.80","velocity":0.29133858267716534,"duration":"0.13"},{"name":"C#4","midi":61,"time":"200.81","velocity":0.3464566929133858,"duration":"0.14"},{"name":"A5","midi":81,"time":"200.91","velocity":0.09448818897637795,"duration":"0.06"},{"name":"A6","midi":93,"time":"200.95","velocity":0.1968503937007874,"duration":"0.16"},{"name":"A3","midi":57,"time":"200.97","velocity":0.28346456692913385,"duration":"0.02"},{"name":"C#4","midi":61,"time":"200.97","velocity":0.4645669291338583,"duration":"0.07"},{"name":"E6","midi":88,"time":"200.98","velocity":0.2047244094488189,"duration":"0.13"},{"name":"A3","midi":57,"time":"201.03","velocity":0.23622047244094488,"duration":"0.05"},{"name":"E5","midi":76,"time":"201.03","velocity":0.14960629921259844,"duration":"0.08"},{"name":"C#7","midi":97,"time":"201.03","velocity":0.10236220472440945,"duration":"0.19"},{"name":"C#4","midi":61,"time":"201.05","velocity":0.3464566929133858,"duration":"0.08"},{"name":"B3","midi":59,"time":"201.15","velocity":0.49606299212598426,"duration":"0.12"},{"name":"F#5","midi":78,"time":"201.16","velocity":0.15748031496062992,"duration":"0.05"},{"name":"A5","midi":81,"time":"201.19","velocity":0.07086614173228346,"duration":"0.03"},{"name":"C#5","midi":73,"time":"201.20","velocity":0.16535433070866143,"duration":"0.08"},{"name":"F#4","midi":66,"time":"201.21","velocity":0.2283464566929134,"duration":"0.02"},{"name":"E4","midi":64,"time":"201.23","velocity":0.2440944881889764,"duration":"0.08"},{"name":"C4","midi":60,"time":"201.27","velocity":0.5433070866141733,"duration":"0.05"},{"name":"C#5","midi":73,"time":"201.30","velocity":0.3228346456692913,"duration":"0.10"},{"name":"C#4","midi":61,"time":"201.31","velocity":0.5433070866141733,"duration":"0.08"},{"name":"F7","midi":101,"time":"201.33","velocity":0.10236220472440945,"duration":"0.03"},{"name":"B6","midi":95,"time":"201.34","velocity":0.1732283464566929,"duration":"0.05"},{"name":"E6","midi":88,"time":"201.35","velocity":0.09448818897637795,"duration":"0.16"},{"name":"B5","midi":83,"time":"201.36","velocity":0.10236220472440945,"duration":"0.26"},{"name":"E4","midi":64,"time":"201.38","velocity":0.4409448818897638,"duration":"3.33"},{"name":"C4","midi":60,"time":"201.40","velocity":0.4015748031496063,"duration":"0.02"},{"name":"E3","midi":52,"time":"201.43","velocity":0.09448818897637795,"duration":"0.06"},{"name":"C#4","midi":61,"time":"201.43","velocity":0.2755905511811024,"duration":"0.09"},{"name":"G#3","midi":56,"time":"201.48","velocity":0.14173228346456693,"duration":"0.05"},{"name":"B4","midi":71,"time":"201.52","velocity":0.2440944881889764,"duration":"0.12"},{"name":"C4","midi":60,"time":"201.56","velocity":0.4566929133858268,"duration":"0.02"},{"name":"B3","midi":59,"time":"201.58","velocity":0.4645669291338583,"duration":"0.15"},{"name":"F3","midi":53,"time":"201.67","velocity":0.07086614173228346,"duration":"0.05"},{"name":"G#5","midi":80,"time":"201.67","velocity":0.3543307086614173,"duration":"0.66"},{"name":"B5","midi":83,"time":"201.69","velocity":0.31496062992125984,"duration":"0.37"},{"name":"G#4","midi":68,"time":"201.71","velocity":0.1889763779527559,"duration":"0.06"},{"name":"C#5","midi":73,"time":"201.71","velocity":0.18110236220472442,"duration":"0.06"},{"name":"F#5","midi":78,"time":"201.71","velocity":0.25984251968503935,"duration":"0.47"},{"name":"B3","midi":59,"time":"201.74","velocity":0.4645669291338583,"duration":"0.42"},{"name":"C#5","midi":73,"time":"201.85","velocity":0.11023622047244094,"duration":"0.05"},{"name":"G#4","midi":68,"time":"201.86","velocity":0.33070866141732286,"duration":"0.60"},{"name":"D#6","midi":87,"time":"201.95","velocity":0.10236220472440945,"duration":"0.05"},{"name":"C#5","midi":73,"time":"202.01","velocity":0.12598425196850394,"duration":"0.06"},{"name":"E3","midi":52,"time":"202.03","velocity":0.11023622047244094,"duration":"0.12"},{"name":"C#5","midi":73,"time":"202.09","velocity":0.09448818897637795,"duration":"0.03"},{"name":"E6","midi":88,"time":"202.09","velocity":0.12598425196850394,"duration":"0.10"},{"name":"B5","midi":83,"time":"202.14","velocity":0.13385826771653545,"duration":"0.24"},{"name":"C#5","midi":73,"time":"202.15","velocity":0.11811023622047244,"duration":"0.09"},{"name":"C4","midi":60,"time":"202.16","velocity":0.2992125984251969,"duration":"0.03"},{"name":"G#3","midi":56,"time":"202.17","velocity":0.11811023622047244,"duration":"0.05"},{"name":"E3","midi":52,"time":"202.22","velocity":0.11811023622047244,"duration":"0.22"},{"name":"F#5","midi":78,"time":"202.23","velocity":0.1968503937007874,"duration":"0.16"},{"name":"C4","midi":60,"time":"202.31","velocity":0.2283464566929134,"duration":"0.02"},{"name":"B3","midi":59,"time":"202.34","velocity":0.2677165354330709,"duration":"0.13"},{"name":"C#5","midi":73,"time":"202.38","velocity":0.18110236220472442,"duration":"0.24"},{"name":"F#5","midi":78,"time":"202.42","velocity":0.13385826771653545,"duration":"0.09"},{"name":"F7","midi":101,"time":"202.47","velocity":0.10236220472440945,"duration":"0.03"},{"name":"E6","midi":88,"time":"202.48","velocity":0.13385826771653545,"duration":"0.14"},{"name":"G#4","midi":68,"time":"202.49","velocity":0.30708661417322836,"duration":"0.79"},{"name":"F#6","midi":90,"time":"202.51","velocity":0.07086614173228346,"duration":"0.22"},{"name":"B3","midi":59,"time":"202.53","velocity":0.14173228346456693,"duration":"0.05"},{"name":"F#5","midi":78,"time":"202.56","velocity":0.09448818897637795,"duration":"0.06"},{"name":"D6","midi":86,"time":"202.59","velocity":0.07874015748031496,"duration":"0.08"},{"name":"B3","midi":59,"time":"202.74","velocity":0.18110236220472442,"duration":"0.12"},{"name":"B5","midi":83,"time":"202.74","velocity":0.07086614173228346,"duration":"0.03"},{"name":"G#5","midi":80,"time":"202.83","velocity":0.33070866141732286,"duration":"0.37"},{"name":"C#5","midi":73,"time":"202.84","velocity":0.09448818897637795,"duration":"0.10"},{"name":"E6","midi":88,"time":"202.85","velocity":0.1889763779527559,"duration":"0.05"},{"name":"E6","midi":88,"time":"202.92","velocity":0.11811023622047244,"duration":"0.06"},{"name":"E3","midi":52,"time":"202.94","velocity":0.07086614173228346,"duration":"0.08"},{"name":"C#5","midi":73,"time":"203.10","velocity":0.10236220472440945,"duration":"0.03"},{"name":"B3","midi":59,"time":"203.15","velocity":0.11811023622047244,"duration":"0.06"},{"name":"E3","midi":52,"time":"203.20","velocity":0.11811023622047244,"duration":"0.03"},{"name":"G#6","midi":92,"time":"203.20","velocity":0.14960629921259844,"duration":"0.15"},{"name":"G#5","midi":80,"time":"203.22","velocity":0.33070866141732286,"duration":"0.24"},{"name":"E6","midi":88,"time":"203.23","velocity":0.07874015748031496,"duration":"0.09"},{"name":"G#3","midi":56,"time":"203.26","velocity":0.12598425196850394,"duration":"0.03"},{"name":"F7","midi":101,"time":"203.28","velocity":0.07874015748031496,"duration":"0.03"},{"name":"E3","midi":52,"time":"203.31","velocity":0.10236220472440945,"duration":"0.24"},{"name":"G#4","midi":68,"time":"203.33","velocity":0.29133858267716534,"duration":"0.65"},{"name":"B4","midi":71,"time":"203.36","velocity":0.07874015748031496,"duration":"0.10"},{"name":"B5","midi":83,"time":"203.37","velocity":0.08661417322834646,"duration":"0.05"},{"name":"D6","midi":86,"time":"203.40","velocity":0.07086614173228346,"duration":"0.07"},{"name":"C#5","midi":73,"time":"203.43","velocity":0.12598425196850394,"duration":"0.07"},{"name":"G#5","midi":80,"time":"203.52","velocity":0.2992125984251969,"duration":"0.48"},{"name":"F#5","midi":78,"time":"203.58","velocity":0.1889763779527559,"duration":"0.29"},{"name":"G#3","midi":56,"time":"203.60","velocity":0.13385826771653545,"duration":"0.20"},{"name":"C#5","midi":73,"time":"203.60","velocity":0.09448818897637795,"duration":"0.03"},{"name":"E6","midi":88,"time":"203.60","velocity":0.14173228346456693,"duration":"0.13"},{"name":"C#5","midi":73,"time":"203.67","velocity":0.14173228346456693,"duration":"0.17"},{"name":"B4","midi":71,"time":"203.84","velocity":0.08661417322834646,"duration":"0.05"},{"name":"B5","midi":83,"time":"203.94","velocity":0.09448818897637795,"duration":"0.03"},{"name":"G#3","midi":56,"time":"203.98","velocity":0.08661417322834646,"duration":"0.03"},{"name":"F#5","midi":78,"time":"203.98","velocity":0.08661417322834646,"duration":"0.05"},{"name":"G#4","midi":68,"time":"204.00","velocity":0.33070866141732286,"duration":"1.26"},{"name":"C#5","midi":73,"time":"204.00","velocity":0.13385826771653545,"duration":"0.13"},{"name":"B3","midi":59,"time":"204.02","velocity":0.5354330708661418,"duration":"1.77"},{"name":"B5","midi":83,"time":"204.13","velocity":0.10236220472440945,"duration":"0.07"},{"name":"E3","midi":52,"time":"204.29","velocity":0.10236220472440945,"duration":"0.03"},{"name":"C#5","midi":73,"time":"204.38","velocity":0.08661417322834646,"duration":"0.03"},{"name":"B5","midi":83,"time":"204.40","velocity":0.13385826771653545,"duration":"0.10"},{"name":"E6","midi":88,"time":"204.41","velocity":0.07086614173228346,"duration":"0.03"},{"name":"G#5","midi":80,"time":"204.66","velocity":0.4881889763779528,"duration":"1.47"},{"name":"E3","midi":52,"time":"204.67","velocity":0.07086614173228346,"duration":"0.05"},{"name":"C#5","midi":73,"time":"204.69","velocity":0.07086614173228346,"duration":"0.05"},{"name":"E4","midi":64,"time":"204.72","velocity":0.28346456692913385,"duration":"0.73"},{"name":"D6","midi":86,"time":"204.85","velocity":0.08661417322834646,"duration":"0.10"},{"name":"C#5","midi":73,"time":"204.93","velocity":0.11811023622047244,"duration":"0.07"},{"name":"E3","midi":52,"time":"204.99","velocity":0.08661417322834646,"duration":"0.13"},{"name":"C#5","midi":73,"time":"205.07","velocity":0.11811023622047244,"duration":"0.07"},{"name":"F#5","midi":78,"time":"205.08","velocity":0.2047244094488189,"duration":"0.29"},{"name":"E6","midi":88,"time":"205.09","velocity":0.16535433070866143,"duration":"0.13"},{"name":"E3","midi":52,"time":"205.13","velocity":0.07086614173228346,"duration":"0.05"},{"name":"E3","midi":52,"time":"205.21","velocity":0.12598425196850394,"duration":"0.08"},{"name":"G#4","midi":68,"time":"205.28","velocity":0.2677165354330709,"duration":"1.30"},{"name":"E3","midi":52,"time":"205.42","velocity":0.07874015748031496,"duration":"0.06"},{"name":"E4","midi":64,"time":"205.47","velocity":0.30708661417322836,"duration":"0.34"},{"name":"E6","midi":88,"time":"205.47","velocity":0.18110236220472442,"duration":"0.12"},{"name":"C#5","midi":73,"time":"205.48","velocity":0.09448818897637795,"duration":"0.03"},{"name":"F#5","midi":78,"time":"205.51","velocity":0.07086614173228346,"duration":"0.09"},{"name":"F7","midi":101,"time":"205.57","velocity":0.09448818897637795,"duration":"0.07"},{"name":"E3","midi":52,"time":"205.59","velocity":0.11023622047244094,"duration":"0.14"},{"name":"C#5","midi":73,"time":"205.63","velocity":0.08661417322834646,"duration":"0.05"},{"name":"D6","midi":86,"time":"205.69","velocity":0.07086614173228346,"duration":"0.05"},{"name":"C4","midi":60,"time":"205.79","velocity":0.44881889763779526,"duration":"0.02"},{"name":"C#4","midi":61,"time":"205.81","velocity":0.5669291338582677,"duration":"0.12"},{"name":"E6","midi":88,"time":"205.85","velocity":0.12598425196850394,"duration":"0.03"},{"name":"F6","midi":89,"time":"205.86","velocity":0.11023622047244094,"duration":"0.06"},{"name":"E5","midi":76,"time":"205.88","velocity":0.13385826771653545,"duration":"0.07"},{"name":"C4","midi":60,"time":"205.93","velocity":0.5354330708661418,"duration":"0.01"},{"name":"B3","midi":59,"time":"205.94","velocity":0.48031496062992124,"duration":"0.15"},{"name":"E4","midi":64,"time":"205.95","velocity":0.28346456692913385,"duration":"0.15"},{"name":"C#5","midi":73,"time":"205.97","velocity":0.11023622047244094,"duration":"0.07"},{"name":"D#5","midi":75,"time":"205.97","velocity":0.07874015748031496,"duration":"0.06"},{"name":"E3","midi":52,"time":"206.02","velocity":0.12598425196850394,"duration":"0.12"},{"name":"F#5","midi":78,"time":"206.03","velocity":0.25984251968503935,"duration":"0.07"},{"name":"B3","midi":59,"time":"206.10","velocity":0.4330708661417323,"duration":"0.02"},{"name":"G5","midi":79,"time":"206.10","velocity":0.2283464566929134,"duration":"0.05"},{"name":"C5","midi":72,"time":"206.12","velocity":0.4251968503937008,"duration":"0.05"},{"name":"C#4","midi":61,"time":"206.14","velocity":0.5118110236220472,"duration":"0.14"},{"name":"G#5","midi":80,"time":"206.14","velocity":0.3464566929133858,"duration":"0.37"},{"name":"E3","midi":52,"time":"206.16","velocity":0.13385826771653545,"duration":"0.09"},{"name":"B4","midi":71,"time":"206.20","velocity":0.11811023622047244,"duration":"0.03"},{"name":"E6","midi":88,"time":"206.23","velocity":0.11811023622047244,"duration":"0.07"},{"name":"E4","midi":64,"time":"206.26","velocity":0.30708661417322836,"duration":"0.21"},{"name":"C5","midi":72,"time":"206.27","velocity":0.25984251968503935,"duration":"0.07"},{"name":"C4","midi":60,"time":"206.28","velocity":0.4409448818897638,"duration":"0.07"},{"name":"D6","midi":86,"time":"206.33","velocity":0.07874015748031496,"duration":"0.15"},{"name":"B4","midi":71,"time":"206.34","velocity":0.2677165354330709,"duration":"0.16"},{"name":"C#5","midi":73,"time":"206.34","velocity":0.18110236220472442,"duration":"0.19"},{"name":"B3","midi":59,"time":"206.35","velocity":0.4094488188976378,"duration":"0.02"},{"name":"F7","midi":101,"time":"206.35","velocity":0.07086614173228346,"duration":"0.05"},{"name":"E3","midi":52,"time":"206.40","velocity":0.08661417322834646,"duration":"0.09"},{"name":"C#4","midi":61,"time":"206.42","velocity":0.3779527559055118,"duration":"0.19"},{"name":"F#5","midi":78,"time":"206.45","velocity":0.08661417322834646,"duration":"0.03"},{"name":"E4","midi":64,"time":"206.48","velocity":0.2283464566929134,"duration":"0.02"},{"name":"G#3","midi":56,"time":"206.50","velocity":0.16535433070866143,"duration":"0.13"},{"name":"E5","midi":76,"time":"206.50","velocity":0.09448818897637795,"duration":"0.05"},{"name":"B4","midi":71,"time":"206.52","velocity":0.14960629921259844,"duration":"0.05"},{"name":"E4","midi":64,"time":"206.57","velocity":0.2677165354330709,"duration":"0.03"},{"name":"C7","midi":96,"time":"206.57","velocity":0.11023622047244094,"duration":"0.29"},{"name":"F#5","midi":78,"time":"206.58","velocity":0.1889763779527559,"duration":"0.05"},{"name":"G#5","midi":80,"time":"206.58","velocity":0.4015748031496063,"duration":"0.35"},{"name":"D4","midi":62,"time":"206.60","velocity":0.3543307086614173,"duration":"0.02"},{"name":"G#4","midi":68,"time":"206.60","velocity":0.4566929133858268,"duration":"0.81"},{"name":"B4","midi":71,"time":"206.60","velocity":0.10236220472440945,"duration":"0.10"},{"name":"E6","midi":88,"time":"206.60","velocity":0.12598425196850394,"duration":"0.10"},{"name":"C#4","midi":61,"time":"206.63","velocity":0.5669291338582677,"duration":"0.26"},{"name":"E5","midi":76,"time":"206.74","velocity":0.10236220472440945,"duration":"0.09"},{"name":"F#7","midi":102,"time":"206.74","velocity":0.11023622047244094,"duration":"0.05"},{"name":"D#7","midi":99,"time":"206.78","velocity":0.10236220472440945,"duration":"0.07"},{"name":"B4","midi":71,"time":"206.79","velocity":0.1968503937007874,"duration":"0.07"},{"name":"F#5","midi":78,"time":"206.80","velocity":0.14960629921259844,"duration":"0.05"},{"name":"C4","midi":60,"time":"206.88","velocity":0.5196850393700787,"duration":"0.05"},{"name":"C#4","midi":61,"time":"206.93","velocity":0.33070866141732286,"duration":"0.02"},{"name":"E4","midi":64,"time":"206.94","velocity":0.2992125984251969,"duration":"0.03"},{"name":"C4","midi":60,"time":"206.95","velocity":0.33858267716535434,"duration":"0.02"},{"name":"G#6","midi":92,"time":"206.95","velocity":0.11023622047244094,"duration":"0.03"},{"name":"C#5","midi":73,"time":"206.97","velocity":0.3228346456692913,"duration":"0.10"},{"name":"C#4","midi":61,"time":"206.98","velocity":0.5118110236220472,"duration":"0.09"},{"name":"E4","midi":64,"time":"207.00","velocity":0.29133858267716534,"duration":"0.03"},{"name":"E3","midi":52,"time":"207.07","velocity":0.12598425196850394,"duration":"0.09"},{"name":"C4","midi":60,"time":"207.07","velocity":0.5196850393700787,"duration":"0.03"},{"name":"E4","midi":64,"time":"207.08","velocity":0.25196850393700787,"duration":"0.08"},{"name":"F#5","midi":78,"time":"207.09","velocity":0.2440944881889764,"duration":"0.05"},{"name":"B3","midi":59,"time":"207.10","velocity":0.3858267716535433,"duration":"0.03"},{"name":"C#5","midi":73,"time":"207.10","velocity":0.11023622047244094,"duration":"0.06"},{"name":"A#3","midi":58,"time":"207.14","velocity":0.3858267716535433,"duration":"0.02"},{"name":"D6","midi":86,"time":"207.14","velocity":0.14173228346456693,"duration":"0.06"},{"name":"C#4","midi":61,"time":"207.16","velocity":0.3464566929133858,"duration":"0.10"},{"name":"B4","midi":71,"time":"207.19","velocity":0.08661417322834646,"duration":"0.03"},{"name":"D#3","midi":51,"time":"207.20","velocity":0.16535433070866143,"duration":"0.05"},{"name":"G3","midi":55,"time":"207.28","velocity":0.09448818897637795,"duration":"0.03"},{"name":"F#5","midi":78,"time":"207.33","velocity":0.25984251968503935,"duration":"0.60"},{"name":"C#4","midi":61,"time":"207.35","velocity":0.49606299212598426,"duration":"0.07"},{"name":"C#6","midi":85,"time":"207.35","velocity":0.2755905511811024,"duration":"0.20"},{"name":"E6","midi":88,"time":"207.35","velocity":0.09448818897637795,"duration":"0.08"},{"name":"F6","midi":89,"time":"207.38","velocity":0.1732283464566929,"duration":"0.14"},{"name":"A4","midi":69,"time":"207.42","velocity":0.4094488188976378,"duration":"0.02"},{"name":"C#4","midi":61,"time":"207.43","velocity":0.49606299212598426,"duration":"0.13"},{"name":"A4","midi":69,"time":"207.45","velocity":0.5196850393700787,"duration":"3.10"},{"name":"F#4","midi":66,"time":"207.47","velocity":0.2677165354330709,"duration":"0.03"},{"name":"D3","midi":50,"time":"207.51","velocity":0.09448818897637795,"duration":"0.17"},{"name":"F#4","midi":66,"time":"207.51","velocity":0.2204724409448819,"duration":"0.14"},{"name":"D5","midi":74,"time":"207.52","velocity":0.11023622047244094,"duration":"0.06"},{"name":"C4","midi":60,"time":"207.56","velocity":0.4251968503937008,"duration":"0.02"},{"name":"D4","midi":62,"time":"207.59","velocity":0.33070866141732286,"duration":"0.09"},{"name":"C#5","midi":73,"time":"207.60","velocity":0.11811023622047244,"duration":"0.05"},{"name":"F#4","midi":66,"time":"207.66","velocity":0.1732283464566929,"duration":"0.03"},{"name":"A#3","midi":58,"time":"207.70","velocity":0.33070866141732286,"duration":"0.07"},{"name":"D4","midi":62,"time":"207.71","velocity":0.36220472440944884,"duration":"0.10"},{"name":"D3","midi":50,"time":"207.74","velocity":0.11811023622047244,"duration":"0.03"},{"name":"E5","midi":76,"time":"207.74","velocity":0.28346456692913385,"duration":"0.24"},{"name":"G#5","midi":80,"time":"207.74","velocity":0.14173228346456693,"duration":"0.06"},{"name":"A3","midi":57,"time":"207.77","velocity":0.3464566929133858,"duration":"0.29"},{"name":"F#4","midi":66,"time":"207.77","velocity":0.2677165354330709,"duration":"0.44"},{"name":"C#5","midi":73,"time":"207.83","velocity":0.14960629921259844,"duration":"0.28"},{"name":"D3","midi":50,"time":"207.85","velocity":0.11023622047244094,"duration":"0.07"},{"name":"C#4","midi":61,"time":"207.85","velocity":0.33858267716535434,"duration":"0.02"},{"name":"D4","midi":62,"time":"207.87","velocity":0.3228346456692913,"duration":"0.28"},{"name":"G#5","midi":80,"time":"207.91","velocity":0.13385826771653545,"duration":"0.08"},{"name":"D3","midi":50,"time":"207.99","velocity":0.11023622047244094,"duration":"0.05"},{"name":"D3","midi":50,"time":"208.07","velocity":0.09448818897637795,"duration":"0.03"},{"name":"C#6","midi":85,"time":"208.10","velocity":0.2125984251968504,"duration":"1.28"},{"name":"E6","midi":88,"time":"208.12","velocity":0.11811023622047244,"duration":"0.07"},{"name":"D3","midi":50,"time":"208.14","velocity":0.10236220472440945,"duration":"0.06"},{"name":"D4","midi":62,"time":"208.16","velocity":0.28346456692913385,"duration":"0.06"},{"name":"C#4","midi":61,"time":"208.22","velocity":0.31496062992125984,"duration":"0.03"},{"name":"F#4","midi":66,"time":"208.22","velocity":0.1889763779527559,"duration":"0.06"},{"name":"E5","midi":76,"time":"208.22","velocity":0.09448818897637795,"duration":"0.08"},{"name":"D4","midi":62,"time":"208.24","velocity":0.25984251968503935,"duration":"0.02"},{"name":"G#5","midi":80,"time":"208.24","velocity":0.07086614173228346,"duration":"0.03"},{"name":"D4","midi":62,"time":"208.28","velocity":0.33070866141732286,"duration":"0.93"},{"name":"F#4","midi":66,"time":"208.29","velocity":0.1732283464566929,"duration":"0.03"},{"name":"F#5","midi":78,"time":"208.30","velocity":0.2125984251968504,"duration":"0.50"},{"name":"F#3","midi":54,"time":"208.34","velocity":0.11023622047244094,"duration":"0.07"},{"name":"F#4","midi":66,"time":"208.35","velocity":0.1732283464566929,"duration":"0.09"},{"name":"F#3","midi":54,"time":"208.42","velocity":0.11023622047244094,"duration":"0.03"},{"name":"C#5","midi":73,"time":"208.43","velocity":0.14173228346456693,"duration":"0.05"},{"name":"F#4","midi":66,"time":"208.45","velocity":0.2755905511811024,"duration":"0.37"},{"name":"E6","midi":88,"time":"208.47","velocity":0.12598425196850394,"duration":"0.13"},{"name":"D3","midi":50,"time":"208.50","velocity":0.10236220472440945,"duration":"0.31"},{"name":"C#5","midi":73,"time":"208.60","velocity":0.13385826771653545,"duration":"0.15"},{"name":"F#5","midi":78,"time":"208.84","velocity":0.2204724409448819,"duration":"0.21"},{"name":"F#4","midi":66,"time":"208.85","velocity":0.1968503937007874,"duration":"0.03"},{"name":"D3","midi":50,"time":"208.87","velocity":0.11811023622047244,"duration":"0.03"},{"name":"F#4","midi":66,"time":"208.90","velocity":0.25984251968503935,"duration":"0.34"},{"name":"D3","midi":50,"time":"208.95","velocity":0.11023622047244094,"duration":"0.27"},{"name":"C#5","midi":73,"time":"208.95","velocity":0.16535433070866143,"duration":"0.27"},{"name":"F#5","midi":78,"time":"209.15","velocity":0.30708661417322836,"duration":"0.35"},{"name":"A#5","midi":82,"time":"209.15","velocity":0.07086614173228346,"duration":"0.03"},{"name":"D3","midi":50,"time":"209.23","velocity":0.14960629921259844,"duration":"0.50"},{"name":"D4","midi":62,"time":"209.23","velocity":0.31496062992125984,"duration":"0.71"},{"name":"C#5","midi":73,"time":"209.24","velocity":0.14173228346456693,"duration":"0.37"},{"name":"F#4","midi":66,"time":"209.27","velocity":0.2677165354330709,"duration":"0.45"},{"name":"F#5","midi":78,"time":"209.59","velocity":0.28346456692913385,"duration":"0.27"},{"name":"C#6","midi":85,"time":"209.59","velocity":0.1968503937007874,"duration":"1.45"},{"name":"C#5","midi":73,"time":"209.63","velocity":0.08661417322834646,"duration":"0.06"},{"name":"F#4","midi":66,"time":"209.73","velocity":0.2204724409448819,"duration":"0.10"},{"name":"D3","midi":50,"time":"209.78","velocity":0.10236220472440945,"duration":"0.03"},{"name":"F#3","midi":54,"time":"209.85","velocity":0.07874015748031496,"duration":"0.03"},{"name":"F#4","midi":66,"time":"209.85","velocity":0.2047244094488189,"duration":"0.07"},{"name":"C#5","midi":73,"time":"209.93","velocity":0.10236220472440945,"duration":"0.03"},{"name":"D#4","midi":63,"time":"209.94","velocity":0.25196850393700787,"duration":"0.02"},{"name":"F#4","midi":66,"time":"209.95","velocity":0.2677165354330709,"duration":"0.38"},{"name":"D6","midi":86,"time":"209.95","velocity":0.07874015748031496,"duration":"0.03"},{"name":"D4","midi":62,"time":"209.97","velocity":0.30708661417322836,"duration":"0.37"},{"name":"F#5","midi":78,"time":"209.97","velocity":0.28346456692913385,"duration":"0.29"},{"name":"C#5","midi":73,"time":"210.09","velocity":0.11811023622047244,"duration":"0.08"},{"name":"D3","midi":50,"time":"210.23","velocity":0.07874015748031496,"duration":"0.06"},{"name":"C#5","midi":73,"time":"210.24","velocity":0.11023622047244094,"duration":"0.08"},{"name":"F#5","midi":78,"time":"210.31","velocity":0.2992125984251969,"duration":"0.21"},{"name":"D5","midi":74,"time":"210.33","velocity":0.33070866141732286,"duration":"0.03"},{"name":"G3","midi":55,"time":"210.34","velocity":0.25984251968503935,"duration":"0.02"},{"name":"D4","midi":62,"time":"210.35","velocity":0.31496062992125984,"duration":"1.87"},{"name":"F#3","midi":54,"time":"210.36","velocity":0.31496062992125984,"duration":"0.05"},{"name":"F#4","midi":66,"time":"210.36","velocity":0.48031496062992124,"duration":"1.86"},{"name":"C#5","midi":73,"time":"210.36","velocity":0.33858267716535434,"duration":"0.05"},{"name":"F#3","midi":54,"time":"210.42","velocity":0.2677165354330709,"duration":"0.06"},{"name":"C#5","midi":73,"time":"210.43","velocity":0.2677165354330709,"duration":"0.05"},{"name":"G3","midi":55,"time":"210.48","velocity":0.3858267716535433,"duration":"0.06"},{"name":"G5","midi":79,"time":"210.49","velocity":0.10236220472440945,"duration":"0.03"},{"name":"G#5","midi":80,"time":"210.52","velocity":0.13385826771653545,"duration":"0.29"},{"name":"G#3","midi":56,"time":"210.53","velocity":0.3543307086614173,"duration":"0.03"},{"name":"D#5","midi":75,"time":"210.53","velocity":0.28346456692913385,"duration":"0.85"},{"name":"G#3","midi":56,"time":"210.58","velocity":0.33070866141732286,"duration":"0.02"},{"name":"A5","midi":81,"time":"210.59","velocity":0.14173228346456693,"duration":"0.03"},{"name":"G3","midi":55,"time":"210.60","velocity":0.3700787401574803,"duration":"0.03"},{"name":"G#3","midi":56,"time":"210.64","velocity":0.3543307086614173,"duration":"0.03"},{"name":"A4","midi":69,"time":"210.67","velocity":0.15748031496062992,"duration":"0.06"},{"name":"G#3","midi":56,"time":"210.69","velocity":0.3937007874015748,"duration":"0.70"},{"name":"C6","midi":84,"time":"210.73","velocity":0.08661417322834646,"duration":"0.14"},{"name":"D3","midi":50,"time":"210.76","velocity":0.14173228346456693,"duration":"0.09"},{"name":"A5","midi":81,"time":"210.80","velocity":0.11811023622047244,"duration":"0.03"},{"name":"A4","midi":69,"time":"210.81","velocity":0.2125984251968504,"duration":"0.10"},{"name":"C#5","midi":73,"time":"210.81","velocity":0.14960629921259844,"duration":"0.20"},{"name":"G#5","midi":80,"time":"210.83","velocity":0.15748031496062992,"duration":"0.12"},{"name":"C7","midi":96,"time":"210.88","velocity":0.09448818897637795,"duration":"0.12"},{"name":"A4","midi":69,"time":"210.93","velocity":0.25196850393700787,"duration":"0.09"},{"name":"G#5","midi":80,"time":"210.95","velocity":0.12598425196850394,"duration":"0.06"},{"name":"D3","midi":50,"time":"210.98","velocity":0.12598425196850394,"duration":"0.03"},{"name":"G#5","midi":80,"time":"211.02","velocity":0.13385826771653545,"duration":"0.22"},{"name":"C#5","midi":73,"time":"211.05","velocity":0.07086614173228346,"duration":"0.03"},{"name":"C#6","midi":85,"time":"211.08","velocity":0.2755905511811024,"duration":"1.48"},{"name":"C#5","midi":73,"time":"211.12","velocity":0.11811023622047244,"duration":"0.03"},{"name":"A4","midi":69,"time":"211.15","velocity":0.2755905511811024,"duration":"0.14"},{"name":"A4","midi":69,"time":"211.33","velocity":0.18110236220472442,"duration":"0.03"},{"name":"G3","midi":55,"time":"211.38","velocity":0.3858267716535433,"duration":"0.02"},{"name":"F#3","midi":54,"time":"211.41","velocity":0.3858267716535433,"duration":"0.05"},{"name":"A5","midi":81,"time":"211.43","velocity":0.11023622047244094,"duration":"0.08"},{"name":"D#5","midi":75,"time":"211.44","velocity":0.13385826771653545,"duration":"0.06"},{"name":"F3","midi":53,"time":"211.45","velocity":0.3700787401574803,"duration":"0.05"},{"name":"C#5","midi":73,"time":"211.45","velocity":0.16535433070866143,"duration":"0.05"},{"name":"F#3","midi":54,"time":"211.50","velocity":0.41732283464566927,"duration":"0.62"},{"name":"A4","midi":69,"time":"211.56","velocity":0.14960629921259844,"duration":"0.07"},{"name":"C#5","midi":73,"time":"211.58","velocity":0.11811023622047244,"duration":"0.05"},{"name":"A6","midi":93,"time":"211.60","velocity":0.07086614173228346,"duration":"0.05"},{"name":"C#5","midi":73,"time":"211.67","velocity":0.1732283464566929,"duration":"0.21"},{"name":"A4","midi":69,"time":"211.71","velocity":0.5275590551181102,"duration":"1.06"},{"name":"C#5","midi":73,"time":"211.98","velocity":0.1889763779527559,"duration":"0.33"},{"name":"F#3","midi":54,"time":"212.17","velocity":0.25984251968503935,"duration":"0.16"},{"name":"D#4","midi":63,"time":"212.22","velocity":0.25984251968503935,"duration":"0.02"},{"name":"F#5","midi":78,"time":"212.23","velocity":0.29133858267716534,"duration":"0.31"},{"name":"A#5","midi":82,"time":"212.23","velocity":0.08661417322834646,"duration":"0.07"},{"name":"D4","midi":62,"time":"212.24","velocity":0.47244094488188976,"duration":"0.41"},{"name":"E6","midi":88,"time":"212.26","velocity":0.09448818897637795,"duration":"0.03"},{"name":"F#3","midi":54,"time":"212.35","velocity":0.15748031496062992,"duration":"0.03"},{"name":"F#4","midi":66,"time":"212.38","velocity":0.2677165354330709,"duration":"0.20"},{"name":"C#5","midi":73,"time":"212.38","velocity":0.14173228346456693,"duration":"0.20"},{"name":"F#3","midi":54,"time":"212.45","velocity":0.14173228346456693,"duration":"0.06"},{"name":"D3","midi":50,"time":"212.51","velocity":0.14173228346456693,"duration":"0.22"},{"name":"C#6","midi":85,"time":"212.58","velocity":0.33858267716535434,"duration":"0.79"},{"name":"F#5","midi":78,"time":"212.59","velocity":0.2125984251968504,"duration":"0.26"},{"name":"F#4","midi":66,"time":"212.62","velocity":0.28346456692913385,"duration":"0.08"},{"name":"C#5","midi":73,"time":"212.64","velocity":0.2283464566929134,"duration":"0.02"},{"name":"C#4","midi":61,"time":"212.65","velocity":0.5275590551181102,"duration":"0.35"},{"name":"G#5","midi":80,"time":"212.65","velocity":0.29133858267716534,"duration":"0.28"},{"name":"D3","midi":50,"time":"212.77","velocity":0.13385826771653545,"duration":"0.09"},{"name":"A4","midi":69,"time":"212.78","velocity":0.5275590551181102,"duration":"0.01"},{"name":"G#4","midi":68,"time":"212.79","velocity":0.5669291338582677,"duration":"1.08"},{"name":"D#7","midi":99,"time":"212.81","velocity":0.11811023622047244,"duration":"0.09"},{"name":"A5","midi":81,"time":"212.92","velocity":0.15748031496062992,"duration":"0.08"},{"name":"F#5","midi":78,"time":"212.98","velocity":0.29133858267716534,"duration":"0.24"},{"name":"D3","midi":50,"time":"213.00","velocity":0.14173228346456693,"duration":"0.07"},{"name":"C#4","midi":61,"time":"213.01","velocity":0.49606299212598426,"duration":"0.03"},{"name":"D4","midi":62,"time":"213.05","velocity":0.5118110236220472,"duration":"0.07"},{"name":"A5","midi":81,"time":"213.07","velocity":0.11811023622047244,"duration":"0.06"},{"name":"C#4","midi":61,"time":"213.10","velocity":0.3700787401574803,"duration":"0.07"},{"name":"G#3","midi":56,"time":"213.15","velocity":0.11811023622047244,"duration":"0.03"},{"name":"D#4","midi":63,"time":"213.16","velocity":0.36220472440944884,"duration":"0.02"},{"name":"D4","midi":62,"time":"213.19","velocity":0.29133858267716534,"duration":"0.02"},{"name":"C#4","midi":61,"time":"213.20","velocity":0.25196850393700787,"duration":"0.07"},{"name":"A5","midi":81,"time":"213.20","velocity":0.16535433070866143,"duration":"0.09"},{"name":"F3","midi":53,"time":"213.21","velocity":0.1968503937007874,"duration":"0.03"},{"name":"G3","midi":55,"time":"213.26","velocity":0.2440944881889764,"duration":"0.02"},{"name":"C4","midi":60,"time":"213.27","velocity":0.30708661417322836,"duration":"0.02"},{"name":"C#4","midi":61,"time":"213.29","velocity":0.31496062992125984,"duration":"0.08"},{"name":"A3","midi":57,"time":"213.31","velocity":0.30708661417322836,"duration":"0.02"},{"name":"E5","midi":76,"time":"213.34","velocity":0.09448818897637795,"duration":"0.03"},{"name":"F#5","midi":78,"time":"213.35","velocity":0.36220472440944884,"duration":"1.87"},{"name":"A5","midi":81,"time":"213.35","velocity":0.25196850393700787,"duration":"0.17"},{"name":"A3","midi":57,"time":"213.36","velocity":0.33070866141732286,"duration":"0.37"},{"name":"C#5","midi":73,"time":"213.36","velocity":0.36220472440944884,"duration":"1.35"},{"name":"E6","midi":88,"time":"213.37","velocity":0.14173228346456693,"duration":"0.15"},{"name":"C#7","midi":97,"time":"213.38","velocity":0.09448818897637795,"duration":"0.13"},{"name":"C#4","midi":61,"time":"213.41","velocity":0.4645669291338583,"duration":"0.34"},{"name":"E5","midi":76,"time":"213.44","velocity":0.10236220472440945,"duration":"0.12"},{"name":"E5","midi":76,"time":"213.60","velocity":0.2125984251968504,"duration":"0.38"},{"name":"A5","midi":81,"time":"213.70","velocity":0.25984251968503935,"duration":"0.28"},{"name":"A#3","midi":58,"time":"213.73","velocity":0.30708661417322836,"duration":"0.02"},{"name":"C#7","midi":97,"time":"213.73","velocity":0.09448818897637795,"duration":"0.03"},{"name":"A3","midi":57,"time":"213.76","velocity":0.28346456692913385,"duration":"0.34"},{"name":"C#4","midi":61,"time":"213.76","velocity":0.23622047244094488,"duration":"0.13"},{"name":"G#5","midi":80,"time":"213.87","velocity":0.14173228346456693,"duration":"0.03"},{"name":"F7","midi":101,"time":"213.87","velocity":0.07874015748031496,"duration":"0.06"},{"name":"C#4","midi":61,"time":"213.91","velocity":0.5118110236220472,"duration":"4.34"},{"name":"G#5","midi":80,"time":"213.98","velocity":0.1968503937007874,"duration":"0.07"},{"name":"A5","midi":81,"time":"214.00","velocity":0.3228346456692913,"duration":"0.34"},{"name":"B4","midi":71,"time":"214.01","velocity":0.08661417322834646,"duration":"0.07"},{"name":"E5","midi":76,"time":"214.03","velocity":0.14173228346456693,"duration":"0.14"},{"name":"A3","midi":57,"time":"214.12","velocity":0.31496062992125984,"duration":"0.37"},{"name":"E6","midi":88,"time":"214.13","velocity":0.16535433070866143,"duration":"0.07"},{"name":"C#7","midi":97,"time":"214.13","velocity":0.10236220472440945,"duration":"0.05"},{"name":"G#5","midi":80,"time":"214.14","velocity":0.07086614173228346,"duration":"0.05"},{"name":"E5","midi":76,"time":"214.19","velocity":0.10236220472440945,"duration":"0.05"},{"name":"C#7","midi":97,"time":"214.20","velocity":0.10236220472440945,"duration":"0.12"},{"name":"G#4","midi":68,"time":"214.22","velocity":0.12598425196850394,"duration":"0.03"},{"name":"E5","midi":76,"time":"214.24","velocity":0.12598425196850394,"duration":"0.12"},{"name":"G#5","midi":80,"time":"214.27","velocity":0.2125984251968504,"duration":"0.03"},{"name":"A5","midi":81,"time":"214.37","velocity":0.3700787401574803,"duration":"0.36"},{"name":"E5","midi":76,"time":"214.45","velocity":0.2047244094488189,"duration":"0.15"},{"name":"E6","midi":88,"time":"214.50","velocity":0.2125984251968504,"duration":"0.15"},{"name":"C#7","midi":97,"time":"214.50","velocity":0.14173228346456693,"duration":"0.09"},{"name":"A3","midi":57,"time":"214.52","velocity":0.11811023622047244,"duration":"0.03"},{"name":"A3","midi":57,"time":"214.57","velocity":0.30708661417322836,"duration":"0.29"},{"name":"G#5","midi":80,"time":"214.59","velocity":0.2125984251968504,"duration":"0.03"},{"name":"C#7","midi":97,"time":"214.62","velocity":0.07874015748031496,"duration":"0.05"},{"name":"E5","midi":76,"time":"214.66","velocity":0.1968503937007874,"duration":"0.23"},{"name":"A6","midi":93,"time":"214.78","velocity":0.07874015748031496,"duration":"0.03"},{"name":"A5","midi":81,"time":"214.79","velocity":0.2755905511811024,"duration":"0.09"},{"name":"C#7","midi":97,"time":"214.85","velocity":0.15748031496062992,"duration":"0.05"},{"name":"G#3","midi":56,"time":"214.86","velocity":0.25984251968503935,"duration":"0.02"},{"name":"G#5","midi":80,"time":"214.86","velocity":0.2440944881889764,"duration":"0.05"},{"name":"A3","midi":57,"time":"214.88","velocity":0.3464566929133858,"duration":"0.35"},{"name":"E5","midi":76,"time":"214.92","velocity":0.2125984251968504,"duration":"0.21"},{"name":"G#5","midi":80,"time":"214.92","velocity":0.11023622047244094,"duration":"0.03"},{"name":"C#7","midi":97,"time":"214.92","velocity":0.14960629921259844,"duration":"0.03"},{"name":"C#7","midi":97,"time":"214.98","velocity":0.15748031496062992,"duration":"0.08"},{"name":"G#5","midi":80,"time":"215.02","velocity":0.14173228346456693,"duration":"0.06"},{"name":"C#7","midi":97,"time":"215.07","velocity":0.11023622047244094,"duration":"0.03"},{"name":"A5","midi":81,"time":"215.08","velocity":0.3228346456692913,"duration":"0.26"},{"name":"G#5","midi":80,"time":"215.15","velocity":0.18110236220472442,"duration":"0.07"},{"name":"E5","midi":76,"time":"215.16","velocity":0.2125984251968504,"duration":"0.47"},{"name":"F#5","midi":78,"time":"215.23","velocity":0.31496062992125984,"duration":"0.23"},{"name":"E6","midi":88,"time":"215.23","velocity":0.2204724409448819,"duration":"0.13"},{"name":"A4","midi":69,"time":"215.24","velocity":0.12598425196850394,"duration":"0.15"},{"name":"A3","midi":57,"time":"215.27","velocity":0.25196850393700787,"duration":"0.33"},{"name":"C#7","midi":97,"time":"215.29","velocity":0.13385826771653545,"duration":"0.22"},{"name":"G#5","midi":80,"time":"215.31","velocity":0.2677165354330709,"duration":"0.15"},{"name":"A2","midi":45,"time":"215.43","velocity":0.07086614173228346,"duration":"0.15"},{"name":"A5","midi":81,"time":"215.43","velocity":0.25196850393700787,"duration":"0.17"},{"name":"F#5","midi":78,"time":"215.48","velocity":0.36220472440944884,"duration":"0.93"},{"name":"G#5","midi":80,"time":"215.58","velocity":0.29133858267716534,"duration":"0.05"},{"name":"A6","midi":93,"time":"215.59","velocity":0.29133858267716534,"duration":"0.13"},{"name":"E6","midi":88,"time":"215.60","velocity":0.23622047244094488,"duration":"0.13"},{"name":"C#7","midi":97,"time":"215.62","velocity":0.13385826771653545,"duration":"0.10"},{"name":"A5","midi":81,"time":"215.63","velocity":0.3937007874015748,"duration":"1.37"},{"name":"A3","midi":57,"time":"215.64","velocity":0.2283464566929134,"duration":"0.02"},{"name":"A3","midi":57,"time":"215.67","velocity":0.2992125984251969,"duration":"0.31"},{"name":"E5","midi":76,"time":"215.67","velocity":0.18110236220472442,"duration":"0.24"},{"name":"C#7","midi":97,"time":"215.84","velocity":0.08661417322834646,"duration":"0.03"},{"name":"E6","midi":88,"time":"215.92","velocity":0.09448818897637795,"duration":"0.03"},{"name":"A2","midi":45,"time":"215.99","velocity":0.07874015748031496,"duration":"0.12"},{"name":"A4","midi":69,"time":"215.99","velocity":0.08661417322834646,"duration":"0.03"},{"name":"E5","midi":76,"time":"215.99","velocity":0.5275590551181102,"duration":"0.73"},{"name":"E7","midi":100,"time":"216.00","velocity":0.25984251968503935,"duration":"0.58"},{"name":"A3","midi":57,"time":"216.01","velocity":0.23622047244094488,"duration":"0.03"},{"name":"B6","midi":95,"time":"216.01","velocity":0.14960629921259844,"duration":"0.17"},{"name":"A3","midi":57,"time":"216.06","velocity":0.29133858267716534,"duration":"0.28"},{"name":"G#5","midi":80,"time":"216.07","velocity":0.09448818897637795,"duration":"0.05"},{"name":"G#5","midi":80,"time":"216.33","velocity":0.25984251968503935,"duration":"0.06"},{"name":"B4","midi":71,"time":"216.34","velocity":0.12598425196850394,"duration":"0.08"},{"name":"A3","midi":57,"time":"216.37","velocity":0.31496062992125984,"duration":"0.35"},{"name":"F#5","midi":78,"time":"216.43","velocity":0.13385826771653545,"duration":"0.10"},{"name":"C#7","midi":97,"time":"216.49","velocity":0.14960629921259844,"duration":"0.29"},{"name":"F#5","midi":78,"time":"216.56","velocity":0.10236220472440945,"duration":"0.07"},{"name":"B6","midi":95,"time":"216.65","velocity":0.1732283464566929,"duration":"0.28"},{"name":"F#5","midi":78,"time":"216.71","velocity":0.1732283464566929,"duration":"0.06"},{"name":"A4","midi":69,"time":"216.72","velocity":0.16535433070866143,"duration":"0.03"},{"name":"E6","midi":88,"time":"216.72","velocity":0.13385826771653545,"duration":"0.03"},{"name":"E5","midi":76,"time":"216.73","velocity":0.5433070866141733,"duration":"0.38"},{"name":"E7","midi":100,"time":"216.73","velocity":0.23622047244094488,"duration":"0.90"},{"name":"A3","midi":57,"time":"216.76","velocity":0.3464566929133858,"duration":"0.71"},{"name":"F#5","midi":78,"time":"216.81","velocity":0.07086614173228346,"duration":"0.03"},{"name":"C#7","midi":97,"time":"216.81","velocity":0.2047244094488189,"duration":"0.33"},{"name":"G#5","midi":80,"time":"216.91","velocity":0.09448818897637795,"duration":"0.05"},{"name":"G#5","midi":80,"time":"216.97","velocity":0.14173228346456693,"duration":"0.05"},{"name":"A5","midi":81,"time":"217.01","velocity":0.3464566929133858,"duration":"0.44"},{"name":"F7","midi":101,"time":"217.01","velocity":0.08661417322834646,"duration":"0.03"},{"name":"G#5","midi":80,"time":"217.08","velocity":0.14960629921259844,"duration":"0.07"},{"name":"F7","midi":101,"time":"217.08","velocity":0.08661417322834646,"duration":"0.07"},{"name":"B6","midi":95,"time":"217.09","velocity":0.18110236220472442,"duration":"0.22"},{"name":"D#5","midi":75,"time":"217.10","velocity":0.31496062992125984,"duration":"0.02"},{"name":"E5","midi":76,"time":"217.13","velocity":0.5433070866141733,"duration":"1.95"},{"name":"C#7","midi":97,"time":"217.16","velocity":0.11811023622047244,"duration":"0.09"},{"name":"B6","midi":95,"time":"217.34","velocity":0.07874015748031496,"duration":"0.07"},{"name":"G#5","midi":80,"time":"217.44","velocity":0.23622047244094488,"duration":"0.20"},{"name":"G#3","midi":56,"time":"217.47","velocity":0.25196850393700787,"duration":"0.02"},{"name":"A5","midi":81,"time":"217.47","velocity":0.29133858267716534,"duration":"0.10"},{"name":"G5","midi":79,"time":"217.48","velocity":0.11023622047244094,"duration":"0.03"},{"name":"A3","midi":57,"time":"217.49","velocity":0.25196850393700787,"duration":"0.09"},{"name":"C#7","midi":97,"time":"217.49","velocity":0.10236220472440945,"duration":"0.03"},{"name":"B6","midi":95,"time":"217.57","velocity":0.11023622047244094,"duration":"0.12"},{"name":"A3","midi":57,"time":"217.59","velocity":0.28346456692913385,"duration":"0.26"},{"name":"C#7","midi":97,"time":"217.60","velocity":0.08661417322834646,"duration":"0.09"},{"name":"A5","midi":81,"time":"217.63","velocity":0.29133858267716534,"duration":"0.29"},{"name":"F7","midi":101,"time":"217.63","velocity":0.07086614173228346,"duration":"0.12"},{"name":"A4","midi":69,"time":"217.78","velocity":0.5039370078740157,"duration":"0.93"},{"name":"C#7","midi":97,"time":"217.83","velocity":0.1889763779527559,"duration":"0.07"},{"name":"B5","midi":83,"time":"217.86","velocity":0.2204724409448819,"duration":"0.26"},{"name":"E7","midi":100,"time":"217.86","velocity":0.2125984251968504,"duration":"0.33"},{"name":"A3","midi":57,"time":"217.88","velocity":0.31496062992125984,"duration":"0.07"},{"name":"G#5","midi":80,"time":"217.92","velocity":0.15748031496062992,"duration":"0.14"},{"name":"A3","midi":57,"time":"217.97","velocity":0.31496062992125984,"duration":"0.26"},{"name":"C#7","midi":97,"time":"217.98","velocity":0.2047244094488189,"duration":"0.27"},{"name":"B2","midi":47,"time":"218.03","velocity":0.09448818897637795,"duration":"0.20"},{"name":"B5","midi":83,"time":"218.15","velocity":0.2440944881889764,"duration":"0.24"},{"name":"G#5","midi":80,"time":"218.17","velocity":0.2283464566929134,"duration":"0.16"},{"name":"G5","midi":79,"time":"218.21","velocity":0.25984251968503935,"duration":"0.02"},{"name":"E4","midi":64,"time":"218.22","velocity":0.2047244094488189,"duration":"0.05"},{"name":"F#6","midi":90,"time":"218.22","velocity":0.2755905511811024,"duration":"0.35"},{"name":"F#5","midi":78,"time":"218.23","velocity":0.3779527559055118,"duration":"0.73"},{"name":"A3","midi":57,"time":"218.24","velocity":0.25984251968503935,"duration":"0.05"},{"name":"C#4","midi":61,"time":"218.26","velocity":0.25196850393700787,"duration":"0.07"},{"name":"C#7","midi":97,"time":"218.27","velocity":0.14960629921259844,"duration":"0.06"},{"name":"A#3","midi":58,"time":"218.29","velocity":0.25984251968503935,"duration":"0.02"},{"name":"E4","midi":64,"time":"218.31","velocity":0.14960629921259844,"duration":"0.05"},{"name":"C#4","midi":61,"time":"218.34","velocity":0.28346456692913385,"duration":"0.27"},{"name":"A3","midi":57,"time":"218.35","velocity":0.23622047244094488,"duration":"0.02"},{"name":"A3","midi":57,"time":"218.38","velocity":0.2677165354330709,"duration":"0.21"},{"name":"C#7","midi":97,"time":"218.40","velocity":0.16535433070866143,"duration":"0.10"},{"name":"B5","midi":83,"time":"218.41","velocity":0.2677165354330709,"duration":"0.55"},{"name":"G#5","midi":80,"time":"218.45","velocity":0.12598425196850394,"duration":"0.05"},{"name":"C#7","midi":97,"time":"218.52","velocity":0.1889763779527559,"duration":"0.14"},{"name":"E4","midi":64,"time":"218.59","velocity":0.15748031496062992,"duration":"0.05"},{"name":"C4","midi":60,"time":"218.60","velocity":0.2755905511811024,"duration":"0.02"},{"name":"G#5","midi":80,"time":"218.60","velocity":0.1732283464566929,"duration":"0.03"},{"name":"A3","midi":57,"time":"218.62","velocity":0.2992125984251969,"duration":"0.34"},{"name":"C#4","midi":61,"time":"218.63","velocity":0.31496062992125984,"duration":"0.34"},{"name":"C#7","midi":97,"time":"218.69","velocity":0.09448818897637795,"duration":"0.05"},{"name":"G#4","midi":68,"time":"218.70","velocity":0.49606299212598426,"duration":"1.00"},{"name":"B2","midi":47,"time":"218.77","velocity":0.14960629921259844,"duration":"0.08"},{"name":"A5","midi":81,"time":"218.78","velocity":0.11811023622047244,"duration":"0.08"},{"name":"A5","midi":81,"time":"218.91","velocity":0.2677165354330709,"duration":"0.16"},{"name":"B2","midi":47,"time":"218.92","velocity":0.13385826771653545,"duration":"0.08"},{"name":"E4","midi":64,"time":"218.93","velocity":0.25196850393700787,"duration":"0.08"},{"name":"B4","midi":71,"time":"218.95","velocity":0.14173228346456693,"duration":"0.06"},{"name":"C#5","midi":73,"time":"218.97","velocity":0.25984251968503935,"duration":"0.38"},{"name":"G5","midi":79,"time":"218.97","velocity":0.25196850393700787,"duration":"0.02"},{"name":"B5","midi":83,"time":"218.97","velocity":0.25984251968503935,"duration":"0.36"},{"name":"A3","midi":57,"time":"218.98","velocity":0.29133858267716534,"duration":"0.10"},{"name":"F#6","midi":90,"time":"218.98","velocity":0.2283464566929134,"duration":"0.21"},{"name":"C#4","midi":61,"time":"219.00","velocity":0.2755905511811024,"duration":"0.17"},{"name":"B4","midi":71,"time":"219.02","velocity":0.09448818897637795,"duration":"0.05"},{"name":"F5","midi":77,"time":"219.05","velocity":0.11023622047244094,"duration":"0.03"},{"name":"F#5","midi":78,"time":"219.05","velocity":0.31496062992125984,"duration":"0.14"},{"name":"A5","midi":81,"time":"219.08","velocity":0.07086614173228346,"duration":"0.03"},{"name":"A3","midi":57,"time":"219.09","velocity":0.28346456692913385,"duration":"0.05"},{"name":"E5","midi":76,"time":"219.09","velocity":0.28346456692913385,"duration":"0.07"},{"name":"B4","midi":71,"time":"219.12","velocity":0.18110236220472442,"duration":"0.08"},{"name":"G#3","midi":56,"time":"219.14","velocity":0.2047244094488189,"duration":"0.03"},{"name":"E4","midi":64,"time":"219.14","velocity":0.14960629921259844,"duration":"0.06"},{"name":"F5","midi":77,"time":"219.15","velocity":0.30708661417322836,"duration":"0.03"},{"name":"E5","midi":76,"time":"219.19","velocity":0.28346456692913385,"duration":"0.08"},{"name":"A5","midi":81,"time":"219.19","velocity":0.14173228346456693,"duration":"0.06"},{"name":"G3","midi":55,"time":"219.20","velocity":0.2125984251968504,"duration":"0.08"},{"name":"C#4","midi":61,"time":"219.20","velocity":0.1889763779527559,"duration":"0.03"},{"name":"F#5","midi":78,"time":"219.20","velocity":0.28346456692913385,"duration":"0.03"},{"name":"C4","midi":60,"time":"219.23","velocity":0.2283464566929134,"duration":"0.02"},{"name":"F#4","midi":66,"time":"219.23","velocity":0.28346456692913385,"duration":"0.02"},{"name":"C#4","midi":61,"time":"219.26","velocity":0.2204724409448819,"duration":"0.03"},{"name":"F#5","midi":78,"time":"219.26","velocity":0.3228346456692913,"duration":"0.22"},{"name":"E4","midi":64,"time":"219.27","velocity":0.28346456692913385,"duration":"0.07"},{"name":"A#3","midi":58,"time":"219.29","velocity":0.2755905511811024,"duration":"0.03"},{"name":"E5","midi":76,"time":"219.29","velocity":0.30708661417322836,"duration":"0.07"},{"name":"F4","midi":65,"time":"219.34","velocity":0.2992125984251969,"duration":"0.02"},{"name":"A3","midi":57,"time":"219.36","velocity":0.14960629921259844,"duration":"0.03"},{"name":"E4","midi":64,"time":"219.36","velocity":0.36220472440944884,"duration":"0.77"},{"name":"C#5","midi":73,"time":"219.36","velocity":0.4015748031496063,"duration":"0.19"},{"name":"E6","midi":88,"time":"219.37","velocity":0.09448818897637795,"duration":"0.05"},{"name":"C#4","midi":61,"time":"219.42","velocity":0.1889763779527559,"duration":"0.12"},{"name":"F#5","midi":78,"time":"219.50","velocity":0.14173228346456693,"duration":"0.08"},{"name":"F7","midi":101,"time":"219.50","velocity":0.14960629921259844,"duration":"0.19"},{"name":"E3","midi":52,"time":"219.52","velocity":0.14960629921259844,"duration":"0.16"},{"name":"C#4","midi":61,"time":"219.55","velocity":0.1889763779527559,"duration":"0.10"},{"name":"C#5","midi":73,"time":"219.56","velocity":0.4409448818897638,"duration":"0.17"},{"name":"B5","midi":83,"time":"219.57","velocity":0.09448818897637795,"duration":"0.07"},{"name":"F#5","midi":78,"time":"219.60","velocity":0.2204724409448819,"duration":"0.12"},{"name":"E3","midi":52,"time":"219.70","velocity":0.12598425196850394,"duration":"0.05"},{"name":"G#4","midi":68,"time":"219.73","velocity":0.33858267716535434,"duration":"0.22"},{"name":"C#5","midi":73,"time":"219.74","velocity":0.5905511811023622,"duration":"0.50"},{"name":"G#3","midi":56,"time":"219.78","velocity":0.11811023622047244,"duration":"0.05"},{"name":"G#3","midi":56,"time":"219.84","velocity":0.14960629921259844,"duration":"0.05"},{"name":"F7","midi":101,"time":"219.84","velocity":0.16535433070866143,"duration":"0.34"},{"name":"E3","midi":52,"time":"219.87","velocity":0.08661417322834646,"duration":"0.03"},{"name":"F#5","midi":78,"time":"219.87","velocity":0.11023622047244094,"duration":"0.07"},{"name":"D6","midi":86,"time":"219.88","velocity":0.10236220472440945,"duration":"0.10"},{"name":"E3","midi":52,"time":"219.93","velocity":0.13385826771653545,"duration":"0.09"},{"name":"G#3","midi":56,"time":"219.93","velocity":0.13385826771653545,"duration":"0.03"},{"name":"G#4","midi":68,"time":"219.98","velocity":0.30708661417322836,"duration":"0.44"},{"name":"A3","midi":57,"time":"220.12","velocity":0.11811023622047244,"duration":"0.03"},{"name":"G#3","midi":56,"time":"220.15","velocity":0.08661417322834646,"duration":"0.03"},{"name":"C#4","midi":61,"time":"220.16","velocity":0.14960629921259844,"duration":"0.07"},{"name":"E4","midi":64,"time":"220.17","velocity":0.4881889763779528,"duration":"1.81"},{"name":"E3","midi":52,"time":"220.19","velocity":0.14960629921259844,"duration":"0.03"},{"name":"F7","midi":101,"time":"220.19","velocity":0.23622047244094488,"duration":"1.15"},{"name":"C#6","midi":85,"time":"220.24","velocity":0.11811023622047244,"duration":"0.09"},{"name":"C#5","midi":73,"time":"220.26","velocity":0.6535433070866141,"duration":"1.38"},{"name":"E3","midi":52,"time":"220.27","velocity":0.14173228346456693,"duration":"0.03"},{"name":"D6","midi":86,"time":"220.28","velocity":0.08661417322834646,"duration":"0.08"},{"name":"B5","midi":83,"time":"220.41","velocity":0.11811023622047244,"duration":"0.21"},{"name":"G#4","midi":68,"time":"220.45","velocity":0.2992125984251969,"duration":"0.08"},{"name":"G#5","midi":80,"time":"220.47","velocity":0.3779527559055118,"duration":"0.60"},{"name":"E6","midi":88,"time":"220.49","velocity":0.16535433070866143,"duration":"0.08"},{"name":"G#4","midi":68,"time":"220.57","velocity":0.29133858267716534,"duration":"0.67"},{"name":"B5","midi":83,"time":"220.69","velocity":0.10236220472440945,"duration":"0.03"},{"name":"G#3","midi":56,"time":"220.76","velocity":0.11023622047244094,"duration":"0.05"},{"name":"G#3","midi":56,"time":"220.90","velocity":0.16535433070866143,"duration":"0.12"},{"name":"E6","midi":88,"time":"220.94","velocity":0.09448818897637795,"duration":"0.03"},{"name":"E3","midi":52,"time":"221.00","velocity":0.16535433070866143,"duration":"0.06"},{"name":"G#5","midi":80,"time":"221.09","velocity":0.3858267716535433,"duration":"0.91"},{"name":"E3","midi":52,"time":"221.10","velocity":0.08661417322834646,"duration":"0.08"},{"name":"B4","midi":71,"time":"221.19","velocity":0.11023622047244094,"duration":"0.03"},{"name":"E6","midi":88,"time":"221.23","velocity":0.1732283464566929,"duration":"0.14"},{"name":"G#4","midi":68,"time":"221.26","velocity":0.2992125984251969,"duration":"0.41"},{"name":"B5","midi":83,"time":"221.31","velocity":0.07874015748031496,"duration":"0.06"},{"name":"D#5","midi":75,"time":"221.35","velocity":0.2125984251968504,"duration":"0.05"},{"name":"F7","midi":101,"time":"221.36","velocity":0.2125984251968504,"duration":"0.69"},{"name":"B5","midi":83,"time":"221.49","velocity":0.13385826771653545,"duration":"0.08"},{"name":"G#3","midi":56,"time":"221.52","velocity":0.15748031496062992,"duration":"0.09"},{"name":"E6","midi":88,"time":"221.62","velocity":0.2283464566929134,"duration":"0.16"},{"name":"C#5","midi":73,"time":"221.65","velocity":0.5354330708661418,"duration":"0.41"},{"name":"G#4","midi":68,"time":"221.67","velocity":0.30708661417322836,"duration":"0.26"},{"name":"C5","midi":72,"time":"221.73","velocity":0.2204724409448819,"duration":"0.03"},{"name":"D#5","midi":75,"time":"221.76","velocity":0.2047244094488189,"duration":"0.05"},{"name":"D6","midi":86,"time":"221.79","velocity":0.10236220472440945,"duration":"0.07"},{"name":"B4","midi":71,"time":"221.86","velocity":0.15748031496062992,"duration":"0.03"},{"name":"G#3","midi":56,"time":"221.87","velocity":0.12598425196850394,"duration":"0.09"},{"name":"C6","midi":84,"time":"221.92","velocity":0.2283464566929134,"duration":"0.05"},{"name":"B5","midi":83,"time":"221.97","velocity":0.14960629921259844,"duration":"0.03"},{"name":"C#3","midi":49,"time":"221.98","velocity":0.09448818897637795,"duration":"0.05"},{"name":"B4","midi":71,"time":"221.98","velocity":0.5118110236220472,"duration":"0.40"},{"name":"C6","midi":84,"time":"221.98","velocity":0.09448818897637795,"duration":"0.05"},{"name":"E5","midi":76,"time":"221.99","velocity":0.11023622047244094,"duration":"0.05"},{"name":"E4","midi":64,"time":"222.00","velocity":0.2047244094488189,"duration":"0.03"},{"name":"E6","midi":88,"time":"222.00","velocity":0.11811023622047244,"duration":"0.09"},{"name":"F#6","midi":90,"time":"222.00","velocity":0.14960629921259844,"duration":"0.13"},{"name":"G#5","midi":80,"time":"222.01","velocity":0.33070866141732286,"duration":"0.12"},{"name":"B6","midi":95,"time":"222.02","velocity":0.07086614173228346,"duration":"0.07"},{"name":"D#7","midi":99,"time":"222.03","velocity":0.09448818897637795,"duration":"0.20"},{"name":"C6","midi":84,"time":"222.05","velocity":0.14173228346456693,"duration":"0.05"},{"name":"B3","midi":59,"time":"222.06","velocity":0.2204724409448819,"duration":"0.03"},{"name":"G#4","midi":68,"time":"222.06","velocity":0.29133858267716534,"duration":"0.36"},{"name":"E5","midi":76,"time":"222.06","velocity":0.09448818897637795,"duration":"0.03"},{"name":"D#5","midi":75,"time":"222.08","velocity":0.16535433070866143,"duration":"0.03"},{"name":"B3","midi":59,"time":"222.10","velocity":0.2677165354330709,"duration":"0.02"},{"name":"E5","midi":76,"time":"222.10","velocity":0.12598425196850394,"duration":"0.05"},{"name":"B3","midi":59,"time":"222.14","velocity":0.44881889763779526,"duration":"1.79"},{"name":"D6","midi":86,"time":"222.14","velocity":0.13385826771653545,"duration":"0.10"},{"name":"E3","midi":52,"time":"222.16","velocity":0.12598425196850394,"duration":"0.07"},{"name":"E4","midi":64,"time":"222.16","velocity":0.12598425196850394,"duration":"0.06"},{"name":"C#5","midi":73,"time":"222.17","velocity":0.2755905511811024,"duration":"0.05"},{"name":"G#5","midi":80,"time":"222.17","velocity":0.4015748031496063,"duration":"0.73"},{"name":"C#5","midi":73,"time":"222.23","velocity":0.3937007874015748,"duration":"0.09"},{"name":"E4","midi":64,"time":"222.34","velocity":0.3464566929133858,"duration":"0.78"},{"name":"C#5","midi":73,"time":"222.35","velocity":0.33858267716535434,"duration":"0.16"},{"name":"E3","midi":52,"time":"222.36","velocity":0.11811023622047244,"duration":"0.03"},{"name":"B5","midi":83,"time":"222.37","velocity":0.11811023622047244,"duration":"0.13"},{"name":"E6","midi":88,"time":"222.37","velocity":0.2047244094488189,"duration":"0.14"},{"name":"F#6","midi":90,"time":"222.37","velocity":0.2125984251968504,"duration":"0.21"},{"name":"B4","midi":71,"time":"222.38","velocity":0.5669291338582677,"duration":"0.73"},{"name":"B6","midi":95,"time":"222.40","velocity":0.14173228346456693,"duration":"0.31"},{"name":"D#7","midi":99,"time":"222.40","velocity":0.11811023622047244,"duration":"0.22"},{"name":"G#4","midi":68,"time":"222.44","velocity":0.29133858267716534,"duration":"0.28"},{"name":"D#5","midi":75,"time":"222.49","velocity":0.14173228346456693,"duration":"0.03"},{"name":"E3","midi":52,"time":"222.56","velocity":0.11023622047244094,"duration":"0.07"},{"name":"C#5","midi":73,"time":"222.57","velocity":0.28346456692913385,"duration":"0.16"},{"name":"F#6","midi":90,"time":"222.65","velocity":0.07874015748031496,"duration":"0.07"},{"name":"D#7","midi":99,"time":"222.66","velocity":0.14173228346456693,"duration":"0.83"},{"name":"E3","midi":52,"time":"222.74","velocity":0.08661417322834646,"duration":"0.03"},{"name":"E6","midi":88,"time":"222.74","velocity":0.1732283464566929,"duration":"0.16"},{"name":"F#6","midi":90,"time":"222.74","velocity":0.1732283464566929,"duration":"0.15"},{"name":"G#4","midi":68,"time":"222.80","velocity":0.25984251968503935,"duration":"0.29"},{"name":"C#5","midi":73,"time":"222.84","velocity":0.2677165354330709,"duration":"0.05"},{"name":"C#5","midi":73,"time":"222.90","velocity":0.30708661417322836,"duration":"0.09"},{"name":"D#5","midi":75,"time":"222.91","velocity":0.11023622047244094,"duration":"0.05"},{"name":"F#6","midi":90,"time":"222.92","velocity":0.10236220472440945,"duration":"0.19"},{"name":"G#5","midi":80,"time":"222.95","velocity":0.3779527559055118,"duration":"0.43"},{"name":"C#5","midi":73,"time":"223.08","velocity":0.2992125984251969,"duration":"0.03"},{"name":"A#4","midi":70,"time":"223.10","velocity":0.4094488188976378,"duration":"0.02"},{"name":"E6","midi":88,"time":"223.10","velocity":0.1732283464566929,"duration":"0.13"},{"name":"F#6","midi":90,"time":"223.12","velocity":0.1889763779527559,"duration":"0.23"},{"name":"G#4","midi":68,"time":"223.13","velocity":0.23622047244094488,"duration":"0.03"},{"name":"B4","midi":71,"time":"223.13","velocity":0.5669291338582677,"duration":"1.87"},{"name":"E4","midi":64,"time":"223.14","velocity":0.3464566929133858,"duration":"0.35"},{"name":"C#7","midi":97,"time":"223.16","velocity":0.07874015748031496,"duration":"0.03"},{"name":"C#5","midi":73,"time":"223.17","velocity":0.23622047244094488,"duration":"0.05"},{"name":"G#4","midi":68,"time":"223.19","velocity":0.2992125984251969,"duration":"0.22"},{"name":"D#5","midi":75,"time":"223.21","velocity":0.08661417322834646,"duration":"0.03"},{"name":"C#5","midi":73,"time":"223.23","velocity":0.2677165354330709,"duration":"0.03"},{"name":"E3","midi":52,"time":"223.27","velocity":0.08661417322834646,"duration":"0.05"},{"name":"D6","midi":86,"time":"223.30","velocity":0.11811023622047244,"duration":"0.14"},{"name":"F#6","midi":90,"time":"223.38","velocity":0.10236220472440945,"duration":"0.09"},{"name":"G#5","midi":80,"time":"223.42","velocity":0.3779527559055118,"duration":"0.40"},{"name":"C#5","midi":73,"time":"223.43","velocity":0.33070866141732286,"duration":"0.06"},{"name":"D#4","midi":63,"time":"223.49","velocity":0.25196850393700787,"duration":"0.02"},{"name":"E6","midi":88,"time":"223.49","velocity":0.1968503937007874,"duration":"0.19"},{"name":"F#6","midi":90,"time":"223.49","velocity":0.15748031496062992,"duration":"0.31"},{"name":"F7","midi":101,"time":"223.49","velocity":0.08661417322834646,"duration":"0.03"},{"name":"B6","midi":95,"time":"223.50","velocity":0.14960629921259844,"duration":"0.27"},{"name":"E4","midi":64,"time":"223.51","velocity":0.3464566929133858,"duration":"0.35"},{"name":"G#4","midi":68,"time":"223.56","velocity":0.30708661417322836,"duration":"0.31"},{"name":"C#5","midi":73,"time":"223.59","velocity":0.2125984251968504,"duration":"0.03"},{"name":"E3","midi":52,"time":"223.64","velocity":0.14960629921259844,"duration":"0.13"},{"name":"C#5","midi":73,"time":"223.65","velocity":0.1889763779527559,"duration":"0.08"},{"name":"D6","midi":86,"time":"223.67","velocity":0.07086614173228346,"duration":"0.07"},{"name":"C#5","midi":73,"time":"223.74","velocity":0.2204724409448819,"duration":"0.09"},{"name":"E3","midi":52,"time":"223.78","velocity":0.14960629921259844,"duration":"0.05"},{"name":"G#6","midi":92,"time":"223.85","velocity":0.2047244094488189,"duration":"0.07"},{"name":"E4","midi":64,"time":"223.87","velocity":0.30708661417322836,"duration":"0.23"},{"name":"E6","midi":88,"time":"223.87","velocity":0.1732283464566929,"duration":"0.06"},{"name":"B6","midi":95,"time":"223.87","velocity":0.14960629921259844,"duration":"0.36"},{"name":"D#7","midi":99,"time":"223.87","velocity":0.08661417322834646,"duration":"0.26"},{"name":"F#6","midi":90,"time":"223.88","velocity":0.14173228346456693,"duration":"0.21"},{"name":"G#5","midi":80,"time":"223.91","velocity":0.3700787401574803,"duration":"0.71"},{"name":"G#4","midi":68,"time":"223.93","velocity":0.3228346456692913,"duration":"0.23"},{"name":"E6","midi":88,"time":"223.95","velocity":0.08661417322834646,"duration":"0.03"},{"name":"D#5","midi":75,"time":"223.98","velocity":0.1732283464566929,"duration":"0.05"},{"name":"D6","midi":86,"time":"223.98","velocity":0.07874015748031496,"duration":"0.06"},{"name":"E3","midi":52,"time":"223.99","velocity":0.16535433070866143,"duration":"0.06"},{"name":"C#4","midi":61,"time":"224.00","velocity":0.3700787401574803,"duration":"0.44"},{"name":"E3","midi":52,"time":"224.07","velocity":0.12598425196850394,"duration":"0.07"},{"name":"E3","midi":52,"time":"224.15","velocity":0.11023622047244094,"duration":"0.07"},{"name":"E4","midi":64,"time":"224.15","velocity":0.2440944881889764,"duration":"0.02"},{"name":"G#4","midi":68,"time":"224.19","velocity":0.2677165354330709,"duration":"0.10"},{"name":"F#6","midi":90,"time":"224.23","velocity":0.1968503937007874,"duration":"0.15"},{"name":"E4","midi":64,"time":"224.24","velocity":0.33070866141732286,"duration":"0.24"},{"name":"E6","midi":88,"time":"224.26","velocity":0.18110236220472442,"duration":"0.15"},{"name":"D#7","midi":99,"time":"224.30","velocity":0.11023622047244094,"duration":"0.29"},{"name":"G#3","midi":56,"time":"224.31","velocity":0.18110236220472442,"duration":"0.06"},{"name":"G#4","midi":68,"time":"224.33","velocity":0.2677165354330709,"duration":"0.26"},{"name":"G#3","midi":56,"time":"224.38","velocity":0.1732283464566929,"duration":"0.05"},{"name":"F#6","midi":90,"time":"224.41","velocity":0.09448818897637795,"duration":"0.03"},{"name":"D#5","midi":75,"time":"224.43","velocity":0.08661417322834646,"duration":"0.05"},{"name":"C#4","midi":61,"time":"224.45","velocity":0.3700787401574803,"duration":"0.49"},{"name":"E5","midi":76,"time":"224.50","velocity":0.08661417322834646,"duration":"0.05"},{"name":"G#3","midi":56,"time":"224.51","velocity":0.11811023622047244,"duration":"0.05"},{"name":"E5","midi":76,"time":"224.58","velocity":0.12598425196850394,"duration":"0.06"},{"name":"G#4","midi":68,"time":"224.59","velocity":0.48031496062992124,"duration":"0.41"},{"name":"F#6","midi":90,"time":"224.62","velocity":0.1732283464566929,"duration":"0.20"},{"name":"G#6","midi":92,"time":"224.62","velocity":0.14960629921259844,"duration":"0.03"},{"name":"D#5","midi":75,"time":"224.64","velocity":0.14173228346456693,"duration":"0.03"},{"name":"D#7","midi":99,"time":"224.64","velocity":0.10236220472440945,"duration":"0.26"},{"name":"E6","midi":88,"time":"224.65","velocity":0.18110236220472442,"duration":"0.17"},{"name":"G#3","midi":56,"time":"224.66","velocity":0.14173228346456693,"duration":"0.06"},{"name":"E4","midi":64,"time":"224.66","velocity":0.31496062992125984,"duration":"0.33"},{"name":"F7","midi":101,"time":"224.66","velocity":0.09448818897637795,"duration":"0.12"},{"name":"C7","midi":96,"time":"224.69","velocity":0.08661417322834646,"duration":"0.10"},{"name":"D#3","midi":51,"time":"224.72","velocity":0.16535433070866143,"duration":"0.03"},{"name":"D#5","midi":75,"time":"224.76","velocity":0.11811023622047244,"duration":"0.05"},{"name":"G#3","midi":56,"time":"224.90","velocity":0.10236220472440945,"duration":"0.06"},{"name":"D#5","midi":75,"time":"224.94","velocity":0.07086614173228346,"duration":"0.03"},{"name":"F#4","midi":66,"time":"224.99","velocity":0.5748031496062992,"duration":"0.22"},{"name":"C#5","midi":73,"time":"224.99","velocity":0.18110236220472442,"duration":"0.06"},{"name":"F#6","midi":90,"time":"225.00","velocity":0.1889763779527559,"duration":"0.34"},{"name":"E7","midi":100,"time":"225.00","velocity":0.12598425196850394,"duration":"0.34"},{"name":"B4","midi":71,"time":"225.01","velocity":0.3779527559055118,"duration":"0.37"},{"name":"E6","midi":88,"time":"225.01","velocity":0.16535433070866143,"duration":"0.13"},{"name":"C#5","midi":73,"time":"225.06","velocity":0.18110236220472442,"duration":"0.05"},{"name":"G#3","midi":56,"time":"225.12","velocity":0.10236220472440945,"duration":"0.03"},{"name":"G#4","midi":68,"time":"225.14","velocity":0.5275590551181102,"duration":"0.23"},{"name":"E3","midi":52,"time":"225.20","velocity":0.14960629921259844,"duration":"0.03"},{"name":"F#5","midi":78,"time":"225.21","velocity":0.15748031496062992,"duration":"0.06"},{"name":"F#4","midi":66,"time":"225.22","velocity":0.5275590551181102,"duration":"0.44"},{"name":"D#3","midi":51,"time":"225.23","velocity":0.1889763779527559,"duration":"0.05"},{"name":"C#5","midi":73,"time":"225.24","velocity":0.23622047244094488,"duration":"0.08"},{"name":"D4","midi":62,"time":"225.29","velocity":0.33070866141732286,"duration":"0.02"},{"name":"D5","midi":74,"time":"225.33","velocity":0.13385826771653545,"duration":"0.05"},{"name":"C#4","midi":61,"time":"225.34","velocity":0.25984251968503935,"duration":"0.03"},{"name":"C#5","midi":73,"time":"225.36","velocity":0.5275590551181102,"duration":"0.15"},{"name":"G#6","midi":92,"time":"225.37","velocity":0.25984251968503935,"duration":"0.21"},{"name":"F7","midi":101,"time":"225.37","velocity":0.15748031496062992,"duration":"0.37"},{"name":"D4","midi":62,"time":"225.40","velocity":0.3543307086614173,"duration":"0.36"},{"name":"G#4","midi":68,"time":"225.41","velocity":0.4330708661417323,"duration":"0.02"},{"name":"A5","midi":81,"time":"225.41","velocity":0.2125984251968504,"duration":"0.06"},{"name":"E6","midi":88,"time":"225.41","velocity":0.14173228346456693,"duration":"0.13"},{"name":"C#7","midi":97,"time":"225.41","velocity":0.07086614173228346,"duration":"0.03"},{"name":"D3","midi":50,"time":"225.42","velocity":0.11811023622047244,"duration":"0.03"},{"name":"A4","midi":69,"time":"225.43","velocity":0.5275590551181102,"duration":"2.97"},{"name":"D3","midi":50,"time":"225.47","velocity":0.07086614173228346,"duration":"0.03"},{"name":"B4","midi":71,"time":"225.47","velocity":0.2677165354330709,"duration":"0.03"},{"name":"C#5","midi":73,"time":"225.52","velocity":0.5354330708661418,"duration":"0.35"},{"name":"B4","midi":71,"time":"225.53","velocity":0.25196850393700787,"duration":"0.02"},{"name":"F#3","midi":54,"time":"225.60","velocity":0.11811023622047244,"duration":"0.05"},{"name":"F#3","midi":54,"time":"225.66","velocity":0.1732283464566929,"duration":"0.07"},{"name":"G#6","midi":92,"time":"225.66","velocity":0.36220472440944884,"duration":"1.60"},{"name":"F#4","midi":66,"time":"225.67","velocity":0.4251968503937008,"duration":"0.26"},{"name":"G#5","midi":80,"time":"225.69","velocity":0.09448818897637795,"duration":"0.03"},{"name":"E5","midi":76,"time":"225.74","velocity":0.10236220472440945,"duration":"0.06"},{"name":"G#5","midi":80,"time":"225.74","velocity":0.13385826771653545,"duration":"0.05"},{"name":"D#4","midi":63,"time":"225.76","velocity":0.2992125984251969,"duration":"0.02"},{"name":"D3","midi":50,"time":"225.77","velocity":0.1889763779527559,"duration":"0.13"},{"name":"F7","midi":101,"time":"225.77","velocity":0.11811023622047244,"duration":"0.03"},{"name":"D4","midi":62,"time":"225.78","velocity":0.31496062992125984,"duration":"0.34"},{"name":"A#5","midi":82,"time":"225.79","velocity":0.07874015748031496,"duration":"0.03"},{"name":"G#5","midi":80,"time":"225.85","velocity":0.18110236220472442,"duration":"0.13"},{"name":"F7","midi":101,"time":"225.86","velocity":0.1732283464566929,"duration":"0.29"},{"name":"C#5","midi":73,"time":"225.88","velocity":0.5905511811023622,"duration":"0.98"},{"name":"E5","midi":76,"time":"225.90","velocity":0.10236220472440945,"duration":"0.19"},{"name":"F#3","midi":54,"time":"225.91","velocity":0.14960629921259844,"duration":"0.03"},{"name":"C7","midi":96,"time":"225.92","velocity":0.08661417322834646,"duration":"0.12"},{"name":"F#3","midi":54,"time":"225.95","velocity":0.14960629921259844,"duration":"0.03"},{"name":"F#4","midi":66,"time":"225.95","velocity":0.25196850393700787,"duration":"0.05"},{"name":"F#3","midi":54,"time":"226.03","velocity":0.13385826771653545,"duration":"0.05"},{"name":"F#4","midi":66,"time":"226.03","velocity":0.3464566929133858,"duration":"0.45"},{"name":"F#6","midi":90,"time":"226.06","velocity":0.07874015748031496,"duration":"0.03"},{"name":"D3","midi":50,"time":"226.08","velocity":0.08661417322834646,"duration":"0.03"},{"name":"D4","midi":62,"time":"226.14","velocity":0.33858267716535434,"duration":"0.35"},{"name":"G#5","midi":80,"time":"226.15","velocity":0.2047244094488189,"duration":"0.08"},{"name":"E6","midi":88,"time":"226.15","velocity":0.13385826771653545,"duration":"0.03"},{"name":"A#5","midi":82,"time":"226.16","velocity":0.10236220472440945,"duration":"0.03"},{"name":"F7","midi":101,"time":"226.17","velocity":0.1889763779527559,"duration":"0.49"},{"name":"E6","midi":88,"time":"226.21","velocity":0.08661417322834646,"duration":"0.12"},{"name":"G3","midi":55,"time":"226.23","velocity":0.11811023622047244,"duration":"0.03"},{"name":"C7","midi":96,"time":"226.23","velocity":0.10236220472440945,"duration":"0.14"},{"name":"G#5","midi":80,"time":"226.24","velocity":0.18110236220472442,"duration":"0.06"},{"name":"A#5","midi":82,"time":"226.24","velocity":0.07874015748031496,"duration":"0.03"},{"name":"F#3","midi":54,"time":"226.29","velocity":0.16535433070866143,"duration":"0.06"},{"name":"E5","midi":76,"time":"226.30","velocity":0.11811023622047244,"duration":"0.08"},{"name":"A#5","midi":82,"time":"226.30","velocity":0.11811023622047244,"duration":"0.10"},{"name":"D3","midi":50,"time":"226.35","velocity":0.18110236220472442,"duration":"0.17"},{"name":"G#5","midi":80,"time":"226.45","velocity":0.2283464566929134,"duration":"0.09"},{"name":"D#4","midi":63,"time":"226.49","velocity":0.23622047244094488,"duration":"0.02"},{"name":"F#5","midi":78,"time":"226.49","velocity":0.33070866141732286,"duration":"0.62"},{"name":"E5","midi":76,"time":"226.50","velocity":0.12598425196850394,"duration":"0.05"},{"name":"D4","midi":62,"time":"226.51","velocity":0.3779527559055118,"duration":"1.85"},{"name":"F#4","midi":66,"time":"226.51","velocity":0.2992125984251969,"duration":"0.52"},{"name":"E6","midi":88,"time":"226.52","velocity":0.2047244094488189,"duration":"0.12"},{"name":"E5","midi":76,"time":"226.56","velocity":0.14173228346456693,"duration":"0.05"},{"name":"G#5","midi":80,"time":"226.64","velocity":0.11811023622047244,"duration":"0.06"},{"name":"C7","midi":96,"time":"226.67","velocity":0.10236220472440945,"duration":"0.14"},{"name":"E5","midi":76,"time":"226.70","velocity":0.10236220472440945,"duration":"0.03"},{"name":"D3","midi":50,"time":"226.71","velocity":0.14173228346456693,"duration":"0.19"},{"name":"D5","midi":74,"time":"226.86","velocity":0.4015748031496063,"duration":"0.02"},{"name":"C#5","midi":73,"time":"226.88","velocity":0.49606299212598426,"duration":"0.13"},{"name":"F7","midi":101,"time":"226.88","velocity":0.11023622047244094,"duration":"0.06"},{"name":"E6","midi":88,"time":"226.90","velocity":0.13385826771653545,"duration":"0.07"},{"name":"G#5","midi":80,"time":"226.91","velocity":0.11811023622047244,"duration":"0.06"},{"name":"E5","midi":76,"time":"226.97","velocity":0.07086614173228346,"duration":"0.09"},{"name":"C5","midi":72,"time":"227.01","velocity":0.23622047244094488,"duration":"0.02"},{"name":"C#5","midi":73,"time":"227.03","velocity":0.5118110236220472,"duration":"0.33"},{"name":"D3","midi":50,"time":"227.05","velocity":0.10236220472440945,"duration":"0.07"},{"name":"F#4","midi":66,"time":"227.05","velocity":0.2992125984251969,"duration":"0.19"},{"name":"A3","midi":57,"time":"227.06","velocity":0.11811023622047244,"duration":"0.03"},{"name":"C7","midi":96,"time":"227.07","velocity":0.07086614173228346,"duration":"0.07"},{"name":"F#3","midi":54,"time":"227.13","velocity":0.14960629921259844,"duration":"0.08"},{"name":"G#5","midi":80,"time":"227.20","velocity":0.1889763779527559,"duration":"0.14"},{"name":"F#4","midi":66,"time":"227.26","velocity":0.5669291338582677,"duration":"1.07"},{"name":"E6","midi":88,"time":"227.26","velocity":0.14173228346456693,"duration":"0.10"},{"name":"F#3","midi":54,"time":"227.28","velocity":0.14960629921259844,"duration":"0.09"},{"name":"G#6","midi":92,"time":"227.29","velocity":0.3464566929133858,"duration":"0.99"},{"name":"E5","midi":76,"time":"227.35","velocity":0.11811023622047244,"duration":"0.15"},{"name":"D3","midi":50,"time":"227.36","velocity":0.2047244094488189,"duration":"0.24"},{"name":"C7","midi":96,"time":"227.36","velocity":0.08661417322834646,"duration":"0.12"},{"name":"C#5","midi":73,"time":"227.37","velocity":0.6062992125984252,"duration":"1.17"},{"name":"A#5","midi":82,"time":"227.43","velocity":0.07086614173228346,"duration":"0.06"},{"name":"F7","midi":101,"time":"227.48","velocity":0.11811023622047244,"duration":"0.23"},{"name":"C#3","midi":49,"time":"227.60","velocity":0.10236220472440945,"duration":"0.03"},{"name":"D3","midi":50,"time":"227.64","velocity":0.1732283464566929,"duration":"0.03"},{"name":"E6","midi":88,"time":"227.70","velocity":0.14960629921259844,"duration":"0.09"},{"name":"D3","midi":50,"time":"227.72","velocity":0.2047244094488189,"duration":"0.28"},{"name":"F7","midi":101,"time":"227.77","velocity":0.16535433070866143,"duration":"0.47"},{"name":"C7","midi":96,"time":"227.78","velocity":0.07874015748031496,"duration":"0.03"},{"name":"G#5","midi":80,"time":"227.79","velocity":0.11023622047244094,"duration":"0.05"},{"name":"E5","midi":76,"time":"227.97","velocity":0.07874015748031496,"duration":"0.07"},{"name":"G#5","midi":80,"time":"227.98","velocity":0.15748031496062992,"duration":"0.06"},{"name":"E6","midi":88,"time":"228.00","velocity":0.10236220472440945,"duration":"0.12"},{"name":"D3","midi":50,"time":"228.02","velocity":0.12598425196850394,"duration":"0.05"},{"name":"A#5","midi":82,"time":"228.03","velocity":0.09448818897637795,"duration":"0.05"},{"name":"D3","midi":50,"time":"228.16","velocity":0.2125984251968504,"duration":"0.20"},{"name":"C7","midi":96,"time":"228.19","velocity":0.08661417322834646,"duration":"0.03"},{"name":"G3","midi":55,"time":"228.34","velocity":0.1732283464566929,"duration":"0.08"},{"name":"F#4","midi":66,"time":"228.34","velocity":0.5354330708661418,"duration":"0.47"},{"name":"E5","midi":76,"time":"228.34","velocity":0.4015748031496063,"duration":"3.22"},{"name":"G#6","midi":92,"time":"228.36","velocity":0.1968503937007874,"duration":"0.06"},{"name":"B4","midi":71,"time":"228.37","velocity":0.5354330708661418,"duration":"0.76"},{"name":"A4","midi":69,"time":"228.41","velocity":0.4251968503937008,"duration":"0.08"},{"name":"B6","midi":95,"time":"228.41","velocity":0.18110236220472442,"duration":"0.66"},{"name":"F7","midi":101,"time":"228.42","velocity":0.11811023622047244,"duration":"0.06"},{"name":"G#5","midi":80,"time":"228.43","velocity":0.13385826771653545,"duration":"0.19"},{"name":"G#3","midi":56,"time":"228.45","velocity":0.16535433070866143,"duration":"0.03"},{"name":"A4","midi":69,"time":"228.50","velocity":0.41732283464566927,"duration":"0.02"},{"name":"A4","midi":69,"time":"228.53","velocity":0.3858267716535433,"duration":"0.02"},{"name":"C#5","midi":73,"time":"228.56","velocity":0.3779527559055118,"duration":"0.26"},{"name":"E3","midi":52,"time":"228.65","velocity":0.1968503937007874,"duration":"0.10"},{"name":"G#4","midi":68,"time":"228.65","velocity":0.2992125984251969,"duration":"0.02"},{"name":"G#4","midi":68,"time":"228.70","velocity":0.3543307086614173,"duration":"0.09"},{"name":"F#6","midi":90,"time":"228.76","velocity":0.25196850393700787,"duration":"0.21"},{"name":"E4","midi":64,"time":"228.78","velocity":0.2992125984251969,"duration":"0.05"},{"name":"F#4","midi":66,"time":"228.83","velocity":0.6220472440944882,"duration":"4.02"},{"name":"G#5","midi":80,"time":"228.83","velocity":0.16535433070866143,"duration":"0.28"},{"name":"G#3","midi":56,"time":"228.85","velocity":0.07086614173228346,"duration":"0.03"},{"name":"G#4","midi":68,"time":"228.86","velocity":0.23622047244094488,"duration":"0.02"},{"name":"C#5","midi":73,"time":"228.87","velocity":0.25196850393700787,"duration":"0.07"},{"name":"D7","midi":98,"time":"228.87","velocity":0.07086614173228346,"duration":"0.03"},{"name":"E3","midi":52,"time":"228.92","velocity":0.13385826771653545,"duration":"0.03"},{"name":"G#4","midi":68,"time":"228.95","velocity":0.30708661417322836,"duration":"0.03"},{"name":"C#5","midi":73,"time":"228.95","velocity":0.2204724409448819,"duration":"0.15"},{"name":"F#6","midi":90,"time":"229.00","velocity":0.1889763779527559,"duration":"0.28"},{"name":"D#3","midi":51,"time":"229.10","velocity":0.14173228346456693,"duration":"0.03"},{"name":"G#6","midi":92,"time":"229.10","velocity":0.1889763779527559,"duration":"0.05"},{"name":"C#5","midi":73,"time":"229.12","velocity":0.3464566929133858,"duration":"0.05"},{"name":"G#5","midi":80,"time":"229.12","velocity":0.1968503937007874,"duration":"0.10"},{"name":"E4","midi":64,"time":"229.13","velocity":0.33070866141732286,"duration":"0.03"},{"name":"B5","midi":83,"time":"229.13","velocity":0.2047244094488189,"duration":"0.12"},{"name":"B4","midi":71,"time":"229.14","velocity":0.6062992125984252,"duration":"1.10"},{"name":"D#7","midi":99,"time":"229.19","velocity":0.12598425196850394,"duration":"0.29"},{"name":"D6","midi":86,"time":"229.22","velocity":0.07874015748031496,"duration":"0.05"},{"name":"F7","midi":101,"time":"229.24","velocity":0.08661417322834646,"duration":"0.05"},{"name":"G#5","midi":80,"time":"229.27","velocity":0.14960629921259844,"duration":"0.14"},{"name":"E3","midi":52,"time":"229.29","velocity":0.13385826771653545,"duration":"0.05"},{"name":"F#6","midi":90,"time":"229.34","velocity":0.25196850393700787,"duration":"0.80"},{"name":"C#5","midi":73,"time":"229.43","velocity":0.14960629921259844,"duration":"0.03"},{"name":"C7","midi":96,"time":"229.43","velocity":0.07874015748031496,"duration":"0.07"},{"name":"G#5","midi":80,"time":"229.44","velocity":0.1889763779527559,"duration":"0.13"},{"name":"G#6","midi":92,"time":"229.49","velocity":0.1968503937007874,"duration":"0.05"},{"name":"E3","midi":52,"time":"229.50","velocity":0.11811023622047244,"duration":"0.03"},{"name":"G#3","midi":56,"time":"229.51","velocity":0.1968503937007874,"duration":"0.07"},{"name":"G#6","midi":92,"time":"229.57","velocity":0.12598425196850394,"duration":"0.14"},{"name":"F3","midi":53,"time":"229.59","velocity":0.15748031496062992,"duration":"0.03"},{"name":"G#5","midi":80,"time":"229.62","velocity":0.11811023622047244,"duration":"0.05"},{"name":"E3","midi":52,"time":"229.65","velocity":0.14960629921259844,"duration":"0.06"},{"name":"B3","midi":59,"time":"229.67","velocity":0.2047244094488189,"duration":"0.24"},{"name":"F7","midi":101,"time":"229.67","velocity":0.08661417322834646,"duration":"0.21"},{"name":"G#5","midi":80,"time":"229.70","velocity":0.1889763779527559,"duration":"0.06"},{"name":"C#6","midi":85,"time":"229.71","velocity":0.08661417322834646,"duration":"0.07"},{"name":"D6","midi":86,"time":"229.78","velocity":0.08661417322834646,"duration":"0.03"},{"name":"D#7","midi":99,"time":"229.78","velocity":0.09448818897637795,"duration":"0.08"},{"name":"G#6","midi":92,"time":"229.86","velocity":0.2125984251968504,"duration":"0.07"},{"name":"A4","midi":69,"time":"229.88","velocity":0.2440944881889764,"duration":"0.02"},{"name":"G#5","midi":80,"time":"229.88","velocity":0.2047244094488189,"duration":"0.07"},{"name":"B6","midi":95,"time":"229.90","velocity":0.11023622047244094,"duration":"0.03"},{"name":"G#6","midi":92,"time":"229.95","velocity":0.07874015748031496,"duration":"0.05"},{"name":"D#7","midi":99,"time":"229.97","velocity":0.07086614173228346,"duration":"0.24"},{"name":"F7","midi":101,"time":"229.97","velocity":0.11811023622047244,"duration":"0.33"},{"name":"G#3","midi":56,"time":"229.98","velocity":0.14960629921259844,"duration":"0.03"},{"name":"D6","midi":86,"time":"230.01","velocity":0.08661417322834646,"duration":"0.03"},{"name":"G#3","midi":56,"time":"230.06","velocity":0.10236220472440945,"duration":"0.09"},{"name":"G#5","midi":80,"time":"230.06","velocity":0.2125984251968504,"duration":"0.07"},{"name":"G#5","midi":80,"time":"230.17","velocity":0.2047244094488189,"duration":"0.14"},{"name":"E3","midi":52,"time":"230.21","velocity":0.11023622047244094,"duration":"0.03"},{"name":"F#6","midi":90,"time":"230.23","velocity":0.23622047244094488,"duration":"0.17"},{"name":"D7","midi":98,"time":"230.24","velocity":0.08661417322834646,"duration":"0.03"},{"name":"E3","midi":52,"time":"230.26","velocity":0.12598425196850394,"duration":"0.07"},{"name":"B4","midi":71,"time":"230.26","velocity":0.5984251968503937,"duration":"0.76"},{"name":"D5","midi":74,"time":"230.29","velocity":0.08661417322834646,"duration":"0.05"},{"name":"G#5","midi":80,"time":"230.35","velocity":0.13385826771653545,"duration":"0.12"},{"name":"D6","midi":86,"time":"230.38","velocity":0.08661417322834646,"duration":"0.06"},{"name":"D#7","midi":99,"time":"230.45","velocity":0.11023622047244094,"duration":"0.16"},{"name":"G#5","midi":80,"time":"230.49","velocity":0.23622047244094488,"duration":"0.33"},{"name":"F#6","midi":90,"time":"230.49","velocity":0.09448818897637795,"duration":"0.09"},{"name":"E3","midi":52,"time":"230.58","velocity":0.18110236220472442,"duration":"0.08"},{"name":"F#6","midi":90,"time":"230.63","velocity":0.25984251968503935,"duration":"0.22"},{"name":"C#7","midi":97,"time":"230.66","velocity":0.08661417322834646,"duration":"0.03"},{"name":"D#7","midi":99,"time":"230.74","velocity":0.14173228346456693,"duration":"0.24"},{"name":"G#5","midi":80,"time":"230.84","velocity":0.1889763779527559,"duration":"0.12"},{"name":"F3","midi":53,"time":"230.85","velocity":0.14960629921259844,"duration":"0.03"},{"name":"G3","midi":55,"time":"230.93","velocity":0.11811023622047244,"duration":"0.03"},{"name":"E3","midi":52,"time":"230.97","velocity":0.1968503937007874,"duration":"0.06"},{"name":"G#3","midi":56,"time":"230.97","velocity":0.11023622047244094,"duration":"0.03"},{"name":"B3","midi":59,"time":"231.00","velocity":0.12598425196850394,"duration":"0.10"},{"name":"G#6","midi":92,"time":"231.00","velocity":0.1889763779527559,"duration":"0.20"},{"name":"F#6","midi":90,"time":"231.01","velocity":0.1889763779527559,"duration":"0.26"},{"name":"B4","midi":71,"time":"231.02","velocity":0.6141732283464567,"duration":"1.31"},{"name":"G#5","midi":80,"time":"231.02","velocity":0.2047244094488189,"duration":"0.06"},{"name":"B6","midi":95,"time":"231.02","velocity":0.13385826771653545,"duration":"0.22"},{"name":"C6","midi":84,"time":"231.06","velocity":0.09448818897637795,"duration":"0.03"},{"name":"D6","midi":86,"time":"231.09","velocity":0.10236220472440945,"duration":"0.12"},{"name":"D#7","midi":99,"time":"231.10","velocity":0.11023622047244094,"duration":"0.16"},{"name":"F7","midi":101,"time":"231.10","velocity":0.10236220472440945,"duration":"0.06"},{"name":"G#5","midi":80,"time":"231.12","velocity":0.14960629921259844,"duration":"0.10"},{"name":"E3","midi":52,"time":"231.13","velocity":0.1732283464566929,"duration":"0.15"},{"name":"B3","midi":59,"time":"231.27","velocity":0.08661417322834646,"duration":"0.03"},{"name":"G#5","midi":80,"time":"231.27","velocity":0.11811023622047244,"duration":"0.10"},{"name":"D#6","midi":87,"time":"231.33","velocity":0.09448818897637795,"duration":"0.03"},{"name":"D4","midi":62,"time":"231.37","velocity":0.33070866141732286,"duration":"0.30"},{"name":"A5","midi":81,"time":"231.37","velocity":0.2755905511811024,"duration":"0.97"},{"name":"F#6","midi":90,"time":"231.37","velocity":0.28346456692913385,"duration":"0.76"},{"name":"C#6","midi":85,"time":"231.38","velocity":0.08661417322834646,"duration":"0.07"},{"name":"D6","midi":86,"time":"231.38","velocity":0.13385826771653545,"duration":"0.05"},{"name":"D#7","midi":99,"time":"231.40","velocity":0.09448818897637795,"duration":"0.27"},{"name":"F7","midi":101,"time":"231.40","velocity":0.18110236220472442,"duration":"0.06"},{"name":"F#3","midi":54,"time":"231.44","velocity":0.1889763779527559,"duration":"0.03"},{"name":"D6","midi":86,"time":"231.47","velocity":0.1732283464566929,"duration":"0.26"},{"name":"F#3","midi":54,"time":"231.51","velocity":0.11811023622047244,"duration":"0.03"},{"name":"D3","midi":50,"time":"231.53","velocity":0.1732283464566929,"duration":"0.03"},{"name":"B3","midi":59,"time":"231.55","velocity":0.2440944881889764,"duration":"0.02"},{"name":"C7","midi":96,"time":"231.58","velocity":0.07874015748031496,"duration":"0.05"},{"name":"B3","midi":59,"time":"231.60","velocity":0.3858267716535433,"duration":"0.53"},{"name":"D3","midi":50,"time":"231.66","velocity":0.1732283464566929,"duration":"0.08"},{"name":"D4","midi":62,"time":"231.73","velocity":0.33858267716535434,"duration":"0.02"},{"name":"E7","midi":100,"time":"231.74","velocity":0.11811023622047244,"duration":"0.35"},{"name":"C#7","midi":97,"time":"231.77","velocity":0.07874015748031496,"duration":"0.08"},{"name":"F7","midi":101,"time":"231.77","velocity":0.11023622047244094,"duration":"0.05"},{"name":"D4","midi":62,"time":"231.78","velocity":0.3228346456692913,"duration":"0.03"},{"name":"E6","midi":88,"time":"231.78","velocity":0.11023622047244094,"duration":"0.06"},{"name":"D3","midi":50,"time":"231.79","velocity":0.15748031496062992,"duration":"0.07"},{"name":"D4","midi":62,"time":"231.83","velocity":0.29133858267716534,"duration":"0.05"},{"name":"C#6","midi":85,"time":"231.85","velocity":0.10236220472440945,"duration":"0.05"},{"name":"D4","midi":62,"time":"231.88","velocity":0.33070866141732286,"duration":"0.03"},{"name":"D3","midi":50,"time":"231.90","velocity":0.14173228346456693,"duration":"0.03"},{"name":"E5","midi":76,"time":"231.91","velocity":0.1889763779527559,"duration":"0.20"},{"name":"C#5","midi":73,"time":"231.93","velocity":0.25196850393700787,"duration":"0.15"},{"name":"D4","midi":62,"time":"231.95","velocity":0.31496062992125984,"duration":"0.09"},{"name":"D3","midi":50,"time":"231.98","velocity":0.15748031496062992,"duration":"0.08"},{"name":"D6","midi":86,"time":"232.03","velocity":0.15748031496062992,"duration":"0.10"},{"name":"D4","midi":62,"time":"232.06","velocity":0.25196850393700787,"duration":"0.03"},{"name":"D4","midi":62,"time":"232.14","velocity":0.33858267716535434,"duration":"0.08"},{"name":"C#6","midi":85,"time":"232.14","velocity":0.08661417322834646,"duration":"0.03"},{"name":"E6","midi":88,"time":"232.14","velocity":0.11811023622047244,"duration":"0.09"},{"name":"E7","midi":100,"time":"232.14","velocity":0.12598425196850394,"duration":"0.29"},{"name":"F7","midi":101,"time":"232.14","velocity":0.11023622047244094,"duration":"0.06"},{"name":"B3","midi":59,"time":"232.15","velocity":0.47244094488188976,"duration":"0.86"},{"name":"D3","midi":50,"time":"232.16","velocity":0.15748031496062992,"duration":"0.10"},{"name":"F#6","midi":90,"time":"232.17","velocity":0.2047244094488189,"duration":"0.30"},{"name":"E5","midi":76,"time":"232.21","velocity":0.08661417322834646,"duration":"0.05"},{"name":"D4","midi":62,"time":"232.26","velocity":0.33070866141732286,"duration":"0.07"},{"name":"D3","midi":50,"time":"232.31","velocity":0.18110236220472442,"duration":"0.19"},{"name":"A4","midi":69,"time":"232.34","velocity":0.08661417322834646,"duration":"0.03"},{"name":"C#5","midi":73,"time":"232.35","velocity":0.25984251968503935,"duration":"0.08"},{"name":"A5","midi":81,"time":"232.36","velocity":0.18110236220472442,"duration":"0.17"},{"name":"D4","midi":62,"time":"232.38","velocity":0.3779527559055118,"duration":"0.07"},{"name":"E5","midi":76,"time":"232.38","velocity":0.08661417322834646,"duration":"0.12"},{"name":"G5","midi":79,"time":"232.50","velocity":0.14960629921259844,"duration":"0.03"},{"name":"F#6","midi":90,"time":"232.50","velocity":0.15748031496062992,"duration":"0.03"},{"name":"D6","midi":86,"time":"232.51","velocity":0.07874015748031496,"duration":"0.03"},{"name":"D3","midi":50,"time":"232.52","velocity":0.1889763779527559,"duration":"0.13"},{"name":"D5","midi":74,"time":"232.52","velocity":0.2677165354330709,"duration":"0.05"},{"name":"E6","midi":88,"time":"232.52","velocity":0.11811023622047244,"duration":"0.08"},{"name":"D4","midi":62,"time":"232.53","velocity":0.33858267716535434,"duration":"0.05"},{"name":"E5","midi":76,"time":"232.53","velocity":0.09448818897637795,"duration":"0.14"},{"name":"F7","midi":101,"time":"232.53","velocity":0.13385826771653545,"duration":"0.05"},{"name":"A5","midi":81,"time":"232.56","velocity":0.18110236220472442,"duration":"0.16"},{"name":"A4","midi":69,"time":"232.57","velocity":0.12598425196850394,"duration":"0.06"},{"name":"D6","midi":86,"time":"232.57","velocity":0.1968503937007874,"duration":"0.14"},{"name":"D5","midi":74,"time":"232.60","velocity":0.1889763779527559,"duration":"0.05"},{"name":"D4","midi":62,"time":"232.64","velocity":0.30708661417322836,"duration":"0.05"},{"name":"F#6","midi":90,"time":"232.65","velocity":0.16535433070866143,"duration":"0.19"},{"name":"C7","midi":96,"time":"232.65","velocity":0.1732283464566929,"duration":"0.29"},{"name":"F#3","midi":54,"time":"232.72","velocity":0.14173228346456693,"duration":"0.05"},{"name":"D4","midi":62,"time":"232.72","velocity":0.2677165354330709,"duration":"0.05"},{"name":"C#5","midi":73,"time":"232.76","velocity":0.09448818897637795,"duration":"0.03"},{"name":"A6","midi":93,"time":"232.79","velocity":0.13385826771653545,"duration":"0.03"},{"name":"A5","midi":81,"time":"232.81","velocity":0.1889763779527559,"duration":"0.24"},{"name":"D6","midi":86,"time":"232.81","velocity":0.14960629921259844,"duration":"0.09"},{"name":"C#5","midi":73,"time":"232.85","velocity":0.4409448818897638,"duration":"1.44"},{"name":"D3","midi":50,"time":"232.86","velocity":0.1968503937007874,"duration":"0.30"},{"name":"F#4","midi":66,"time":"232.86","velocity":0.6062992125984252,"duration":"1.12"},{"name":"E7","midi":100,"time":"232.87","velocity":0.14173228346456693,"duration":"0.36"},{"name":"D4","midi":62,"time":"232.88","velocity":0.3464566929133858,"duration":"0.07"},{"name":"A4","midi":69,"time":"232.88","velocity":0.14173228346456693,"duration":"0.09"},{"name":"E6","midi":88,"time":"232.88","velocity":0.16535433070866143,"duration":"0.12"},{"name":"C#7","midi":97,"time":"232.88","velocity":0.11023622047244094,"duration":"0.07"},{"name":"F7","midi":101,"time":"232.90","velocity":0.13385826771653545,"duration":"0.05"},{"name":"D4","midi":62,"time":"232.97","velocity":0.3464566929133858,"duration":"0.06"},{"name":"B3","midi":59,"time":"233.03","velocity":0.2677165354330709,"duration":"0.02"},{"name":"C#4","midi":61,"time":"233.06","velocity":0.36220472440944884,"duration":"0.03"},{"name":"E5","midi":76,"time":"233.07","velocity":0.11023622047244094,"duration":"0.03"},{"name":"A5","midi":81,"time":"233.08","velocity":0.2204724409448819,"duration":"0.09"},{"name":"C4","midi":60,"time":"233.09","velocity":0.2283464566929134,"duration":"0.02"},{"name":"C#4","midi":61,"time":"233.12","velocity":0.4015748031496063,"duration":"0.05"},{"name":"A4","midi":69,"time":"233.13","velocity":0.14173228346456693,"duration":"0.05"},{"name":"D3","midi":50,"time":"233.17","velocity":0.18110236220472442,"duration":"0.10"},{"name":"C#4","midi":61,"time":"233.17","velocity":0.4409448818897638,"duration":"0.19"},{"name":"A5","midi":81,"time":"233.20","velocity":0.18110236220472442,"duration":"0.05"},{"name":"G#6","midi":92,"time":"233.24","velocity":0.08661417322834646,"duration":"0.05"},{"name":"D6","midi":86,"time":"233.26","velocity":0.07086614173228346,"duration":"0.03"},{"name":"C7","midi":96,"time":"233.26","velocity":0.09448818897637795,"duration":"0.03"},{"name":"A5","midi":81,"time":"233.27","velocity":0.2125984251968504,"duration":"0.40"},{"name":"E6","midi":88,"time":"233.27","velocity":0.11811023622047244,"duration":"0.06"},{"name":"F#6","midi":90,"time":"233.27","velocity":0.2125984251968504,"duration":"0.30"},{"name":"C#7","midi":97,"time":"233.29","velocity":0.10236220472440945,"duration":"0.03"},{"name":"F7","midi":101,"time":"233.29","velocity":0.11811023622047244,"duration":"0.03"},{"name":"C#4","midi":61,"time":"233.37","velocity":0.4094488188976378,"duration":"0.05"},{"name":"E6","midi":88,"time":"233.41","velocity":0.07874015748031496,"duration":"0.03"},{"name":"A4","midi":69,"time":"233.42","velocity":0.2204724409448819,"duration":"0.17"},{"name":"G#5","midi":80,"time":"233.42","velocity":0.14173228346456693,"duration":"0.05"},{"name":"F#3","midi":54,"time":"233.43","velocity":0.15748031496062992,"duration":"0.03"},{"name":"C#4","midi":61,"time":"233.43","velocity":0.3779527559055118,"duration":"0.03"},{"name":"D3","midi":50,"time":"233.45","velocity":0.1732283464566929,"duration":"0.19"},{"name":"G#5","midi":80,"time":"233.48","velocity":0.13385826771653545,"duration":"0.05"},{"name":"C#4","midi":61,"time":"233.49","velocity":0.44881889763779526,"duration":"0.20"},{"name":"G#5","midi":80,"time":"233.62","velocity":0.1889763779527559,"duration":"0.06"},{"name":"E6","midi":88,"time":"233.62","velocity":0.14173228346456693,"duration":"0.14"},{"name":"F7","midi":101,"time":"233.63","velocity":0.11023622047244094,"duration":"0.05"},{"name":"D3","midi":50,"time":"233.65","velocity":0.11811023622047244,"duration":"0.08"},{"name":"A#5","midi":82,"time":"233.65","velocity":0.11811023622047244,"duration":"0.03"},{"name":"C#4","midi":61,"time":"233.70","velocity":0.44881889763779526,"duration":"0.05"},{"name":"A5","midi":81,"time":"233.71","velocity":0.10236220472440945,"duration":"0.03"},{"name":"E5","midi":76,"time":"233.72","velocity":0.11023622047244094,"duration":"0.07"},{"name":"G#5","midi":80,"time":"233.73","velocity":0.14960629921259844,"duration":"0.07"},{"name":"C#4","midi":61,"time":"233.76","velocity":0.5039370078740157,"duration":"0.62"},{"name":"A5","midi":81,"time":"233.79","velocity":0.2204724409448819,"duration":"0.09"},{"name":"A4","midi":69,"time":"233.81","velocity":0.18110236220472442,"duration":"0.07"},{"name":"F#3","midi":54,"time":"233.83","velocity":0.1889763779527559,"duration":"0.08"},{"name":"A4","midi":69,"time":"233.90","velocity":0.12598425196850394,"duration":"0.05"},{"name":"G#5","midi":80,"time":"233.90","velocity":0.15748031496062992,"duration":"0.08"},{"name":"A5","midi":81,"time":"233.91","velocity":0.25984251968503935,"duration":"0.09"},{"name":"F#3","midi":54,"time":"233.92","velocity":0.14960629921259844,"duration":"0.07"},{"name":"F4","midi":65,"time":"233.98","velocity":0.3228346456692913,"duration":"0.02"},{"name":"D6","midi":86,"time":"234.00","velocity":0.07874015748031496,"duration":"0.03"},{"name":"C#7","midi":97,"time":"234.00","velocity":0.11023622047244094,"duration":"0.07"},{"name":"D3","midi":50,"time":"234.01","velocity":0.1968503937007874,"duration":"0.09"},{"name":"F#4","midi":66,"time":"234.01","velocity":0.6141732283464567,"duration":"1.01"},{"name":"G#5","midi":80,"time":"234.01","velocity":0.14960629921259844,"duration":"0.09"},{"name":"A#5","midi":82,"time":"234.01","velocity":0.09448818897637795,"duration":"0.05"},{"name":"E7","midi":100,"time":"234.01","velocity":0.13385826771653545,"duration":"0.36"},{"name":"F7","midi":101,"time":"234.01","velocity":0.14960629921259844,"duration":"0.06"},{"name":"E5","midi":76,"time":"234.02","velocity":0.10236220472440945,"duration":"0.05"},{"name":"F#6","midi":90,"time":"234.02","velocity":0.2755905511811024,"duration":"0.38"},{"name":"D3","midi":50,"time":"234.12","velocity":0.2283464566929134,"duration":"0.05"},{"name":"A5","midi":81,"time":"234.12","velocity":0.1968503937007874,"duration":"0.06"},{"name":"A4","midi":69,"time":"234.13","velocity":0.10236220472440945,"duration":"0.03"},{"name":"D3","midi":50,"time":"234.17","velocity":0.2047244094488189,"duration":"0.44"},{"name":"G#5","midi":80,"time":"234.20","velocity":0.14173228346456693,"duration":"0.08"},{"name":"A5","midi":81,"time":"234.23","velocity":0.15748031496062992,"duration":"0.14"},{"name":"A4","midi":69,"time":"234.28","velocity":0.18110236220472442,"duration":"0.07"},{"name":"G#5","midi":80,"time":"234.36","velocity":0.12598425196850394,"duration":"0.03"},{"name":"D4","midi":62,"time":"234.37","velocity":0.33858267716535434,"duration":"0.03"},{"name":"B4","midi":71,"time":"234.38","velocity":0.31496062992125984,"duration":"0.30"},{"name":"A5","midi":81,"time":"234.38","velocity":0.2283464566929134,"duration":"0.10"},{"name":"A#5","midi":82,"time":"234.40","velocity":0.13385826771653545,"duration":"0.03"},{"name":"F7","midi":101,"time":"234.40","velocity":0.12598425196850394,"duration":"0.03"},{"name":"E6","midi":88,"time":"234.41","velocity":0.14960629921259844,"duration":"0.09"},{"name":"D4","midi":62,"time":"234.42","velocity":0.4015748031496063,"duration":"0.10"},{"name":"A3","midi":57,"time":"234.49","velocity":0.41732283464566927,"duration":"1.77"},{"name":"C#5","midi":73,"time":"234.50","velocity":0.2204724409448819,"duration":"0.09"},{"name":"A5","midi":81,"time":"234.51","velocity":0.14173228346456693,"duration":"0.07"},{"name":"D4","midi":62,"time":"234.53","velocity":0.3779527559055118,"duration":"0.21"},{"name":"C7","midi":96,"time":"234.55","velocity":0.07086614173228346,"duration":"0.12"},{"name":"A5","midi":81,"time":"234.60","velocity":0.25196850393700787,"duration":"0.19"},{"name":"C#5","midi":73,"time":"234.71","velocity":0.15748031496062992,"duration":"0.05"},{"name":"C7","midi":96,"time":"234.73","velocity":0.07086614173228346,"duration":"0.05"},{"name":"D5","midi":74,"time":"234.74","velocity":0.16535433070866143,"duration":"0.06"},{"name":"D3","midi":50,"time":"234.76","velocity":0.14173228346456693,"duration":"0.07"},{"name":"D4","midi":62,"time":"234.77","velocity":0.3228346456692913,"duration":"0.35"},{"name":"A#6","midi":94,"time":"234.77","velocity":0.07874015748031496,"duration":"0.05"},{"name":"C#7","midi":97,"time":"234.77","velocity":0.10236220472440945,"duration":"0.05"},{"name":"A#5","midi":82,"time":"234.78","velocity":0.07874015748031496,"duration":"0.05"},{"name":"F7","midi":101,"time":"234.78","velocity":0.11023622047244094,"duration":"0.05"},{"name":"B4","midi":71,"time":"234.79","velocity":0.1968503937007874,"duration":"0.24"},{"name":"A5","midi":81,"time":"234.80","velocity":0.10236220472440945,"duration":"0.03"},{"name":"C#5","midi":73,"time":"234.81","velocity":0.12598425196850394,"duration":"0.06"},{"name":"E7","midi":100,"time":"234.81","velocity":0.12598425196850394,"duration":"0.29"},{"name":"C#5","midi":73,"time":"234.88","velocity":0.14960629921259844,"duration":"0.03"},{"name":"C7","midi":96,"time":"234.91","velocity":0.14173228346456693,"duration":"0.24"},{"name":"C#5","midi":73,"time":"235.00","velocity":0.2125984251968504,"duration":"0.13"},{"name":"F#4","midi":66,"time":"235.03","velocity":0.31496062992125984,"duration":"0.06"},{"name":"E5","midi":76,"time":"235.03","velocity":0.07874015748031496,"duration":"0.05"},{"name":"F#4","midi":66,"time":"235.10","velocity":0.6377952755905512,"duration":"0.78"},{"name":"D4","midi":62,"time":"235.13","velocity":0.3700787401574803,"duration":"0.36"},{"name":"E5","midi":76,"time":"235.13","velocity":0.10236220472440945,"duration":"0.03"},{"name":"F7","midi":101,"time":"235.14","velocity":0.11811023622047244,"duration":"0.06"},{"name":"B4","midi":71,"time":"235.15","velocity":0.25984251968503935,"duration":"0.28"},{"name":"A#5","midi":82,"time":"235.15","velocity":0.07874015748031496,"duration":"0.03"},{"name":"C#6","midi":85,"time":"235.16","velocity":0.07086614173228346,"duration":"0.03"},{"name":"E7","midi":100,"time":"235.20","velocity":0.11023622047244094,"duration":"0.29"},{"name":"A5","midi":81,"time":"235.21","velocity":0.1968503937007874,"duration":"0.24"},{"name":"C7","midi":96,"time":"235.23","velocity":0.12598425196850394,"duration":"0.31"},{"name":"C#5","midi":73,"time":"235.27","velocity":0.2125984251968504,"duration":"0.16"},{"name":"E5","midi":76,"time":"235.38","velocity":0.12598425196850394,"duration":"0.08"},{"name":"C#5","midi":73,"time":"235.44","velocity":0.15748031496062992,"duration":"0.05"},{"name":"D3","midi":50,"time":"235.48","velocity":0.09448818897637795,"duration":"0.03"},{"name":"A5","midi":81,"time":"235.51","velocity":0.16535433070866143,"duration":"0.08"},{"name":"F#6","midi":90,"time":"235.51","velocity":0.29133858267716534,"duration":"0.36"},{"name":"D4","midi":62,"time":"235.52","velocity":0.3543307086614173,"duration":"0.40"},{"name":"B4","midi":71,"time":"235.52","velocity":0.29133858267716534,"duration":"0.29"},{"name":"A#6","midi":94,"time":"235.52","velocity":0.07874015748031496,"duration":"0.05"},{"name":"F7","midi":101,"time":"235.53","velocity":0.12598425196850394,"duration":"0.05"},{"name":"A#5","midi":82,"time":"235.55","velocity":0.11023622047244094,"duration":"0.05"},{"name":"E6","midi":88,"time":"235.55","velocity":0.11023622047244094,"duration":"0.10"},{"name":"D3","midi":50,"time":"235.60","velocity":0.14960629921259844,"duration":"0.06"},{"name":"C#5","midi":73,"time":"235.60","velocity":0.2047244094488189,"duration":"0.13"},{"name":"E5","midi":76,"time":"235.66","velocity":0.07874015748031496,"duration":"0.03"},{"name":"C#5","midi":73,"time":"235.78","velocity":0.18110236220472442,"duration":"0.13"},{"name":"E7","midi":100,"time":"235.81","velocity":0.08661417322834646,"duration":"0.05"},{"name":"B4","midi":71,"time":"235.88","velocity":0.12598425196850394,"duration":"0.05"},{"name":"F#6","midi":90,"time":"235.88","velocity":0.25984251968503935,"duration":"0.74"},{"name":"F#4","midi":66,"time":"235.90","velocity":0.5905511811023622,"duration":"0.36"},{"name":"E6","midi":88,"time":"235.90","velocity":0.2047244094488189,"duration":"0.10"},{"name":"F7","midi":101,"time":"235.90","velocity":0.14960629921259844,"duration":"0.06"},{"name":"A4","midi":69,"time":"235.91","velocity":0.5354330708661418,"duration":"0.99"},{"name":"E5","midi":76,"time":"235.92","velocity":0.07874015748031496,"duration":"0.03"},{"name":"C#7","midi":97,"time":"235.92","velocity":0.10236220472440945,"duration":"0.03"},{"name":"D4","midi":62,"time":"235.93","velocity":0.33070866141732286,"duration":"0.33"},{"name":"B4","midi":71,"time":"235.94","velocity":0.13385826771653545,"duration":"0.08"},{"name":"C#5","midi":73,"time":"235.97","velocity":0.11811023622047244,"duration":"0.05"},{"name":"C#5","midi":73,"time":"236.03","velocity":0.25196850393700787,"duration":"0.16"},{"name":"E5","midi":76,"time":"236.12","velocity":0.07874015748031496,"duration":"0.03"},{"name":"D3","midi":50,"time":"236.15","velocity":0.1968503937007874,"duration":"0.03"},{"name":"C#5","midi":73,"time":"236.23","velocity":0.15748031496062992,"duration":"0.13"},{"name":"E5","midi":76,"time":"236.24","velocity":0.15748031496062992,"duration":"0.10"},{"name":"A3","midi":57,"time":"236.27","velocity":0.2125984251968504,"duration":"0.07"},{"name":"D4","midi":62,"time":"236.27","velocity":0.25984251968503935,"duration":"0.03"},{"name":"F#4","midi":66,"time":"236.27","velocity":0.6535433070866141,"duration":"1.92"},{"name":"F7","midi":101,"time":"236.30","velocity":0.10236220472440945,"duration":"0.03"},{"name":"D4","midi":62,"time":"236.31","velocity":0.3543307086614173,"duration":"0.30"},{"name":"B4","midi":71,"time":"236.33","velocity":0.12598425196850394,"duration":"0.06"},{"name":"B5","midi":83,"time":"236.40","velocity":0.09448818897637795,"duration":"0.03"},{"name":"C7","midi":96,"time":"236.40","velocity":0.12598425196850394,"duration":"0.31"},{"name":"C#5","midi":73,"time":"236.45","velocity":0.2440944881889764,"duration":"0.15"},{"name":"B5","midi":83,"time":"236.45","velocity":0.11023622047244094,"duration":"0.09"},{"name":"E5","midi":76,"time":"236.47","velocity":0.08661417322834646,"duration":"0.07"},{"name":"B5","midi":83,"time":"236.57","velocity":0.11023622047244094,"duration":"0.03"},{"name":"C#6","midi":85,"time":"236.62","velocity":0.14960629921259844,"duration":"0.51"},{"name":"F#6","midi":90,"time":"236.64","velocity":0.2992125984251969,"duration":"0.42"},{"name":"E7","midi":100,"time":"236.66","velocity":0.09448818897637795,"duration":"0.21"},{"name":"D4","midi":62,"time":"236.67","velocity":0.3700787401574803,"duration":"0.33"},{"name":"E6","midi":88,"time":"236.69","velocity":0.11023622047244094,"duration":"0.07"},{"name":"E5","midi":76,"time":"236.71","velocity":0.11811023622047244,"duration":"0.12"},{"name":"C#5","midi":73,"time":"236.74","velocity":0.2047244094488189,"duration":"0.17"},{"name":"D#3","midi":51,"time":"236.77","velocity":0.18110236220472442,"duration":"0.03"},{"name":"F#3","midi":54,"time":"236.85","velocity":0.13385826771653545,"duration":"0.03"},{"name":"G#5","midi":80,"time":"236.98","velocity":0.07086614173228346,"duration":"0.06"},{"name":"G#4","midi":68,"time":"236.99","velocity":0.3858267716535433,"duration":"0.02"},{"name":"C#5","midi":73,"time":"236.99","velocity":0.08661417322834646,"duration":"0.03"},{"name":"D#4","midi":63,"time":"237.01","velocity":0.3464566929133858,"duration":"0.02"},{"name":"B5","midi":83,"time":"237.01","velocity":0.08661417322834646,"duration":"0.03"},{"name":"E5","midi":76,"time":"237.02","velocity":0.14960629921259844,"duration":"0.03"},{"name":"D4","midi":62,"time":"237.03","velocity":0.3700787401574803,"duration":"0.05"},{"name":"E7","midi":100,"time":"237.03","velocity":0.14960629921259844,"duration":"0.29"},{"name":"B4","midi":71,"time":"237.05","velocity":0.11811023622047244,"duration":"0.07"},{"name":"C#5","midi":73,"time":"237.05","velocity":0.13385826771653545,"duration":"0.10"},{"name":"A5","midi":81,"time":"237.07","velocity":0.14173228346456693,"duration":"0.26"},{"name":"D#3","midi":51,"time":"237.08","velocity":0.14960629921259844,"duration":"0.03"},{"name":"E5","midi":76,"time":"237.10","velocity":0.16535433070866143,"duration":"0.12"},{"name":"D#4","midi":63,"time":"237.15","velocity":0.33858267716535434,"duration":"0.02"},{"name":"C#6","midi":85,"time":"237.16","velocity":0.10236220472440945,"duration":"0.17"},{"name":"G3","midi":55,"time":"237.19","velocity":0.25984251968503935,"duration":"0.02"},{"name":"B4","midi":71,"time":"237.19","velocity":0.16535433070866143,"duration":"0.05"},{"name":"G3","midi":55,"time":"237.22","velocity":0.2755905511811024,"duration":"0.06"},{"name":"B4","midi":71,"time":"237.26","velocity":0.07874015748031496,"duration":"0.03"},{"name":"C#5","midi":73,"time":"237.26","velocity":0.18110236220472442,"duration":"0.13"},{"name":"B3","midi":59,"time":"237.27","velocity":0.2440944881889764,"duration":"0.03"},{"name":"G#4","midi":68,"time":"237.31","velocity":0.5039370078740157,"duration":"0.08"},{"name":"E5","midi":76,"time":"237.31","velocity":0.2440944881889764,"duration":"0.53"},{"name":"A#3","midi":58,"time":"237.34","velocity":0.3464566929133858,"duration":"0.03"},{"name":"A5","midi":81,"time":"237.35","velocity":0.11023622047244094,"duration":"0.07"},{"name":"G5","midi":79,"time":"237.37","velocity":0.33070866141732286,"duration":"0.02"},{"name":"B5","midi":83,"time":"237.37","velocity":0.08661417322834646,"duration":"0.05"},{"name":"D5","midi":74,"time":"237.38","velocity":0.2204724409448819,"duration":"0.03"},{"name":"F#6","midi":90,"time":"237.38","velocity":0.28346456692913385,"duration":"0.37"},{"name":"C#4","midi":61,"time":"237.40","velocity":0.18110236220472442,"duration":"0.03"},{"name":"G#6","midi":92,"time":"237.40","velocity":0.11023622047244094,"duration":"0.03"},{"name":"A6","midi":93,"time":"237.40","velocity":0.25196850393700787,"duration":"0.20"},{"name":"C#7","midi":97,"time":"237.40","velocity":0.12598425196850394,"duration":"0.06"},{"name":"C#5","midi":73,"time":"237.41","velocity":0.4015748031496063,"duration":"0.84"},{"name":"A3","midi":57,"time":"237.42","velocity":0.29133858267716534,"duration":"0.37"},{"name":"G#4","midi":68,"time":"237.42","velocity":0.4251968503937008,"duration":"0.08"},{"name":"C#4","midi":61,"time":"237.44","velocity":0.4330708661417323,"duration":"0.72"},{"name":"F7","midi":101,"time":"237.44","velocity":0.09448818897637795,"duration":"0.03"},{"name":"A5","midi":81,"time":"237.55","velocity":0.25984251968503935,"duration":"0.20"},{"name":"C#7","midi":97,"time":"237.58","velocity":0.12598425196850394,"duration":"0.06"},{"name":"G#4","midi":68,"time":"237.73","velocity":0.2755905511811024,"duration":"0.02"},{"name":"A5","midi":81,"time":"237.78","velocity":0.3858267716535433,"duration":"1.38"},{"name":"A3","midi":57,"time":"237.80","velocity":0.2755905511811024,"duration":"0.34"},{"name":"E5","midi":76,"time":"237.90","velocity":0.2283464566929134,"duration":"0.10"},{"name":"E5","midi":76,"time":"238.02","velocity":0.15748031496062992,"duration":"0.13"},{"name":"G#5","midi":80,"time":"238.02","velocity":0.14173228346456693,"duration":"0.06"},{"name":"B4","midi":71,"time":"238.08","velocity":0.14960629921259844,"duration":"0.07"},{"name":"G#5","midi":80,"time":"238.12","velocity":0.25984251968503935,"duration":"0.03"},{"name":"E5","midi":76,"time":"238.16","velocity":0.11023622047244094,"duration":"0.05"},{"name":"A3","midi":57,"time":"238.17","velocity":0.31496062992125984,"duration":"0.70"},{"name":"C#4","midi":61,"time":"238.17","velocity":0.49606299212598426,"duration":"3.87"},{"name":"E6","midi":88,"time":"238.19","velocity":0.1889763779527559,"duration":"0.19"},{"name":"C#7","midi":97,"time":"238.19","velocity":0.14960629921259844,"duration":"0.08"},{"name":"E5","midi":76,"time":"238.28","velocity":0.14960629921259844,"duration":"0.13"},{"name":"C#6","midi":85,"time":"238.28","velocity":0.07874015748031496,"duration":"0.08"},{"name":"F7","midi":101,"time":"238.28","velocity":0.08661417322834646,"duration":"0.06"},{"name":"G#5","midi":80,"time":"238.30","velocity":0.1889763779527559,"duration":"0.05"},{"name":"F#4","midi":66,"time":"238.31","velocity":0.1732283464566929,"duration":"0.22"},{"name":"E5","midi":76,"time":"238.47","velocity":0.12598425196850394,"duration":"0.03"},{"name":"B4","midi":71,"time":"238.50","velocity":0.14173228346456693,"duration":"0.12"},{"name":"E5","midi":76,"time":"238.53","velocity":0.14960629921259844,"duration":"0.22"},{"name":"E6","midi":88,"time":"238.53","velocity":0.2125984251968504,"duration":"0.22"},{"name":"C#7","midi":97,"time":"238.53","velocity":0.14173228346456693,"duration":"0.12"},{"name":"G#5","midi":80,"time":"238.58","velocity":0.1968503937007874,"duration":"0.05"},{"name":"F7","midi":101,"time":"238.66","velocity":0.18110236220472442,"duration":"0.12"},{"name":"G#5","midi":80,"time":"238.78","velocity":0.15748031496062992,"duration":"0.06"},{"name":"E5","midi":76,"time":"238.85","velocity":0.2047244094488189,"duration":"0.09"},{"name":"C#7","midi":97,"time":"238.88","velocity":0.10236220472440945,"duration":"0.09"},{"name":"F7","midi":101,"time":"238.90","velocity":0.14173228346456693,"duration":"0.03"},{"name":"A3","midi":57,"time":"238.91","velocity":0.23622047244094488,"duration":"0.08"},{"name":"A4","midi":69,"time":"238.99","velocity":0.1968503937007874,"duration":"0.19"},{"name":"A3","midi":57,"time":"239.00","velocity":0.3228346456692913,"duration":"0.26"},{"name":"E5","midi":76,"time":"239.08","velocity":0.13385826771653545,"duration":"0.08"},{"name":"G#5","midi":80,"time":"239.20","velocity":0.2047244094488189,"duration":"0.08"},{"name":"A5","midi":81,"time":"239.21","velocity":0.13385826771653545,"duration":"0.06"},{"name":"E5","midi":76,"time":"239.23","velocity":0.14173228346456693,"duration":"0.05"},{"name":"A6","midi":93,"time":"239.27","velocity":0.23622047244094488,"duration":"0.14"},{"name":"C#7","midi":97,"time":"239.27","velocity":0.11811023622047244,"duration":"0.07"},{"name":"A5","midi":81,"time":"239.28","velocity":0.33858267716535434,"duration":"0.21"},{"name":"A3","midi":57,"time":"239.29","velocity":0.2755905511811024,"duration":"0.41"},{"name":"E6","midi":88,"time":"239.29","velocity":0.18110236220472442,"duration":"0.12"},{"name":"E5","midi":76,"time":"239.31","velocity":0.23622047244094488,"duration":"0.23"},{"name":"G#5","midi":80,"time":"239.48","velocity":0.13385826771653545,"duration":"0.03"},{"name":"A5","midi":81,"time":"239.50","velocity":0.3937007874015748,"duration":"0.49"},{"name":"E5","midi":76,"time":"239.63","velocity":0.18110236220472442,"duration":"0.05"},{"name":"C#7","midi":97,"time":"239.63","velocity":0.2204724409448819,"duration":"0.07"},{"name":"A4","midi":69,"time":"239.70","velocity":0.1732283464566929,"duration":"0.13"},{"name":"A3","midi":57,"time":"239.72","velocity":0.23622047244094488,"duration":"0.29"},{"name":"E5","midi":76,"time":"239.72","velocity":0.25196850393700787,"duration":"0.10"},{"name":"C#7","midi":97,"time":"239.72","velocity":0.15748031496062992,"duration":"0.03"},{"name":"C#7","midi":97,"time":"239.80","velocity":0.14173228346456693,"duration":"0.03"},{"name":"G#5","midi":80,"time":"239.83","velocity":0.2047244094488189,"duration":"0.05"},{"name":"E5","midi":76,"time":"239.86","velocity":0.16535433070866143,"duration":"0.05"},{"name":"C#7","midi":97,"time":"239.87","velocity":0.09448818897637795,"duration":"0.03"},{"name":"C#7","midi":97,"time":"239.94","velocity":0.16535433070866143,"duration":"0.12"},{"name":"G#5","midi":80,"time":"239.95","velocity":0.11811023622047244,"duration":"0.06"},{"name":"A5","midi":81,"time":"240.01","velocity":0.2992125984251969,"duration":"0.29"},{"name":"E5","midi":76,"time":"240.02","velocity":0.5669291338582677,"duration":"2.26"},{"name":"B4","midi":71,"time":"240.03","velocity":0.09448818897637795,"duration":"0.03"},{"name":"B6","midi":95,"time":"240.03","velocity":0.1968503937007874,"duration":"0.31"},{"name":"E7","midi":100,"time":"240.03","velocity":0.29133858267716534,"duration":"1.07"},{"name":"A3","midi":57,"time":"240.05","velocity":0.2992125984251969,"duration":"0.33"},{"name":"C#6","midi":85,"time":"240.08","velocity":0.11023622047244094,"duration":"0.15"},{"name":"G#5","midi":80,"time":"240.30","velocity":0.07874015748031496,"duration":"0.03"},{"name":"A5","midi":81,"time":"240.34","velocity":0.30708661417322836,"duration":"0.41"},{"name":"G#3","midi":56,"time":"240.37","velocity":0.2677165354330709,"duration":"0.03"},{"name":"A3","midi":57,"time":"240.41","velocity":0.3228346456692913,"duration":"0.36"},{"name":"B6","midi":95,"time":"240.41","velocity":0.2047244094488189,"duration":"0.21"},{"name":"B4","midi":71,"time":"240.43","velocity":0.10236220472440945,"duration":"0.06"},{"name":"C#6","midi":85,"time":"240.53","velocity":0.10236220472440945,"duration":"0.03"},{"name":"F7","midi":101,"time":"240.53","velocity":0.12598425196850394,"duration":"0.06"},{"name":"G#5","midi":80,"time":"240.66","velocity":0.1889763779527559,"duration":"0.03"},{"name":"G#5","midi":80,"time":"240.73","velocity":0.1732283464566929,"duration":"0.08"},{"name":"B6","midi":95,"time":"240.74","velocity":0.1968503937007874,"duration":"0.41"},{"name":"A6","midi":93,"time":"240.77","velocity":0.28346456692913385,"duration":"0.20"},{"name":"A3","midi":57,"time":"240.79","velocity":0.31496062992125984,"duration":"0.35"},{"name":"A5","midi":81,"time":"240.80","velocity":0.2992125984251969,"duration":"0.24"},{"name":"G#5","midi":80,"time":"240.93","velocity":0.25196850393700787,"duration":"0.24"},{"name":"A6","midi":93,"time":"241.08","velocity":0.29133858267716534,"duration":"0.23"},{"name":"E7","midi":100,"time":"241.15","velocity":0.23622047244094488,"duration":"0.73"},{"name":"A3","midi":57,"time":"241.16","velocity":0.2440944881889764,"duration":"0.05"},{"name":"A5","midi":81,"time":"241.16","velocity":0.36220472440944884,"duration":"0.70"},{"name":"F#5","midi":78,"time":"241.20","velocity":0.10236220472440945,"duration":"0.05"},{"name":"B6","midi":95,"time":"241.20","velocity":0.23622047244094488,"duration":"0.34"},{"name":"C#7","midi":97,"time":"241.20","velocity":0.14173228346456693,"duration":"0.03"},{"name":"A3","midi":57,"time":"241.22","velocity":0.31496062992125984,"duration":"0.30"},{"name":"F#5","midi":78,"time":"241.28","velocity":0.09448818897637795,"duration":"0.05"},{"name":"G#5","midi":80,"time":"241.28","velocity":0.16535433070866143,"duration":"0.03"},{"name":"C#6","midi":85,"time":"241.38","velocity":0.07086614173228346,"duration":"0.03"},{"name":"A3","midi":57,"time":"241.56","velocity":0.33858267716535434,"duration":"0.33"},{"name":"G#5","midi":80,"time":"241.57","velocity":0.13385826771653545,"duration":"0.05"},{"name":"B6","midi":95,"time":"241.59","velocity":0.33070866141732286,"duration":"0.78"},{"name":"G#5","midi":80,"time":"241.65","velocity":0.11811023622047244,"duration":"0.05"},{"name":"G#5","midi":80,"time":"241.74","velocity":0.13385826771653545,"duration":"0.03"},{"name":"A4","midi":69,"time":"241.88","velocity":0.47244094488188976,"duration":"0.76"},{"name":"B5","midi":83,"time":"241.88","velocity":0.28346456692913385,"duration":"0.35"},{"name":"A3","midi":57,"time":"241.91","velocity":0.30708661417322836,"duration":"0.36"},{"name":"G#5","midi":80,"time":"241.93","velocity":0.15748031496062992,"duration":"0.19"},{"name":"E4","midi":64,"time":"241.99","velocity":0.14173228346456693,"duration":"0.06"},{"name":"C#5","midi":73,"time":"242.06","velocity":0.12598425196850394,"duration":"0.08"},{"name":"C#4","midi":61,"time":"242.07","velocity":0.2755905511811024,"duration":"0.21"},{"name":"B4","midi":71,"time":"242.13","velocity":0.12598425196850394,"duration":"0.08"},{"name":"B2","midi":47,"time":"242.17","velocity":0.09448818897637795,"duration":"0.05"},{"name":"G#5","midi":80,"time":"242.17","velocity":0.10236220472440945,"duration":"0.05"},{"name":"E4","midi":64,"time":"242.21","velocity":0.2755905511811024,"duration":"0.29"},{"name":"G5","midi":79,"time":"242.26","velocity":0.31496062992125984,"duration":"0.02"},{"name":"B5","midi":83,"time":"242.26","velocity":0.2677165354330709,"duration":"0.35"},{"name":"F#5","midi":78,"time":"242.28","velocity":0.3700787401574803,"duration":"0.73"},{"name":"E6","midi":88,"time":"242.28","velocity":0.1889763779527559,"duration":"0.19"},{"name":"A3","midi":57,"time":"242.29","velocity":0.25196850393700787,"duration":"0.05"},{"name":"E5","midi":76,"time":"242.29","velocity":0.3779527559055118,"duration":"0.31"},{"name":"C#7","midi":97,"time":"242.29","velocity":0.12598425196850394,"duration":"0.06"},{"name":"G#5","midi":80,"time":"242.30","velocity":0.23622047244094488,"duration":"0.08"},{"name":"A3","midi":57,"time":"242.35","velocity":0.2755905511811024,"duration":"0.13"},{"name":"B2","midi":47,"time":"242.37","velocity":0.08661417322834646,"duration":"0.06"},{"name":"C#4","midi":61,"time":"242.37","velocity":0.16535433070866143,"duration":"0.03"},{"name":"C#7","midi":97,"time":"242.37","velocity":0.07086614173228346,"duration":"0.05"},{"name":"A3","midi":57,"time":"242.49","velocity":0.25196850393700787,"duration":"0.14"},{"name":"C#4","midi":61,"time":"242.52","velocity":0.2677165354330709,"duration":"0.13"},{"name":"G#5","midi":80,"time":"242.53","velocity":0.09448818897637795,"duration":"0.03"},{"name":"E4","midi":64,"time":"242.58","velocity":0.16535433070866143,"duration":"0.05"},{"name":"E5","midi":76,"time":"242.62","velocity":0.5511811023622047,"duration":"0.40"},{"name":"B4","midi":71,"time":"242.63","velocity":0.2047244094488189,"duration":"0.21"},{"name":"B5","midi":83,"time":"242.64","velocity":0.2677165354330709,"duration":"0.35"},{"name":"C#7","midi":97,"time":"242.64","velocity":0.11811023622047244,"duration":"0.03"},{"name":"G#4","midi":68,"time":"242.66","velocity":0.4409448818897638,"duration":"0.16"},{"name":"C#4","midi":61,"time":"242.67","velocity":0.28346456692913385,"duration":"0.20"},{"name":"A3","midi":57,"time":"242.69","velocity":0.23622047244094488,"duration":"0.02"},{"name":"A5","midi":81,"time":"242.70","velocity":0.2047244094488189,"duration":"0.26"},{"name":"A3","midi":57,"time":"242.72","velocity":0.25984251968503935,"duration":"0.10"},{"name":"A4","midi":69,"time":"242.83","velocity":0.4409448818897638,"duration":"0.02"},{"name":"A3","midi":57,"time":"242.84","velocity":0.25984251968503935,"duration":"0.02"},{"name":"E4","midi":64,"time":"242.84","velocity":0.2755905511811024,"duration":"0.28"},{"name":"G#4","midi":68,"time":"242.84","velocity":0.3543307086614173,"duration":"0.02"},{"name":"A4","midi":69,"time":"242.86","velocity":0.4330708661417323,"duration":"0.07"},{"name":"A3","midi":57,"time":"242.87","velocity":0.2992125984251969,"duration":"0.33"},{"name":"G#5","midi":80,"time":"242.87","velocity":0.13385826771653545,"duration":"0.06"},{"name":"C#4","midi":61,"time":"242.92","velocity":0.2204724409448819,"duration":"0.10"},{"name":"B4","midi":71,"time":"242.94","velocity":0.14960629921259844,"duration":"0.06"},{"name":"G#5","midi":80,"time":"242.94","velocity":0.1732283464566929,"duration":"0.06"},{"name":"G#4","midi":68,"time":"242.95","velocity":0.4881889763779528,"duration":"1.23"},{"name":"B2","midi":47,"time":"242.97","velocity":0.11811023622047244,"duration":"0.16"},{"name":"C#7","midi":97,"time":"242.99","velocity":0.1968503937007874,"duration":"0.15"},{"name":"A5","midi":81,"time":"243.01","velocity":0.1732283464566929,"duration":"0.07"},{"name":"B5","midi":83,"time":"243.01","velocity":0.2677165354330709,"duration":"0.40"},{"name":"F#6","midi":90,"time":"243.01","velocity":0.25196850393700787,"duration":"0.17"},{"name":"F#5","midi":78,"time":"243.02","velocity":0.3858267716535433,"duration":"0.15"},{"name":"B4","midi":71,"time":"243.06","velocity":0.11811023622047244,"duration":"0.07"},{"name":"C#4","midi":61,"time":"243.07","velocity":0.23622047244094488,"duration":"0.10"},{"name":"C#5","midi":73,"time":"243.07","velocity":0.5748031496062992,"duration":"0.83"},{"name":"A5","midi":81,"time":"243.10","velocity":0.15748031496062992,"duration":"0.15"},{"name":"B2","midi":47,"time":"243.14","velocity":0.11023622047244094,"duration":"0.07"},{"name":"B4","midi":71,"time":"243.15","velocity":0.07874015748031496,"duration":"0.03"},{"name":"F5","midi":77,"time":"243.16","velocity":0.31496062992125984,"duration":"0.06"},{"name":"G5","midi":79,"time":"243.16","velocity":0.2677165354330709,"duration":"0.03"},{"name":"E4","midi":64,"time":"243.17","velocity":0.2283464566929134,"duration":"0.12"},{"name":"C#7","midi":97,"time":"243.17","velocity":0.11811023622047244,"duration":"0.06"},{"name":"G#3","midi":56,"time":"243.20","velocity":0.23622047244094488,"duration":"0.02"},{"name":"C4","midi":60,"time":"243.20","velocity":0.1732283464566929,"duration":"0.06"},{"name":"E5","midi":76,"time":"243.21","velocity":0.3779527559055118,"duration":"0.06"},{"name":"F#5","midi":78,"time":"243.21","velocity":0.33070866141732286,"duration":"0.05"},{"name":"B4","midi":71,"time":"243.22","velocity":0.2204724409448819,"duration":"0.09"},{"name":"D#5","midi":75,"time":"243.26","velocity":0.2125984251968504,"duration":"0.03"},{"name":"F5","midi":77,"time":"243.26","velocity":0.25196850393700787,"duration":"0.02"},{"name":"G3","midi":55,"time":"243.27","velocity":0.1889763779527559,"duration":"0.03"},{"name":"F#5","midi":78,"time":"243.27","velocity":0.33858267716535434,"duration":"0.24"},{"name":"C#4","midi":61,"time":"243.28","velocity":0.16535433070866143,"duration":"0.05"},{"name":"F5","midi":77,"time":"243.29","velocity":0.25196850393700787,"duration":"0.02"},{"name":"A5","midi":81,"time":"243.31","velocity":0.15748031496062992,"duration":"0.06"},{"name":"C#7","midi":97,"time":"243.33","velocity":0.11023622047244094,"duration":"0.03"},{"name":"E4","midi":64,"time":"243.35","velocity":0.2047244094488189,"duration":"0.05"},{"name":"E6","midi":88,"time":"243.35","velocity":0.18110236220472442,"duration":"0.19"},{"name":"E5","midi":76,"time":"243.36","velocity":0.25196850393700787,"duration":"0.09"},{"name":"A5","midi":81,"time":"243.38","velocity":0.11023622047244094,"duration":"0.03"},{"name":"G#6","midi":92,"time":"243.38","velocity":0.25196850393700787,"duration":"0.42"},{"name":"F7","midi":101,"time":"243.42","velocity":0.23622047244094488,"duration":"1.59"},{"name":"E4","midi":64,"time":"243.43","velocity":0.33858267716535434,"duration":"0.59"},{"name":"B5","midi":83,"time":"243.43","velocity":0.15748031496062992,"duration":"0.27"},{"name":"F#5","midi":78,"time":"243.53","velocity":0.2440944881889764,"duration":"0.26"},{"name":"D6","midi":86,"time":"243.57","velocity":0.12598425196850394,"duration":"0.13"},{"name":"C#4","midi":61,"time":"243.60","velocity":0.23622047244094488,"duration":"0.22"},{"name":"E3","midi":52,"time":"243.70","velocity":0.11023622047244094,"duration":"0.03"},{"name":"B5","midi":83,"time":"243.79","velocity":0.07086614173228346,"duration":"0.05"},{"name":"G#3","midi":56,"time":"243.80","velocity":0.1968503937007874,"duration":"0.13"},{"name":"F5","midi":77,"time":"243.81","velocity":0.14173228346456693,"duration":"0.07"},{"name":"F#5","midi":78,"time":"243.90","velocity":0.1968503937007874,"duration":"0.20"},{"name":"C#4","midi":61,"time":"243.91","velocity":0.10236220472440945,"duration":"0.03"},{"name":"C#5","midi":73,"time":"243.92","velocity":0.6377952755905512,"duration":"2.17"},{"name":"E6","midi":88,"time":"243.92","velocity":0.08661417322834646,"duration":"0.05"},{"name":"E3","midi":52,"time":"243.94","velocity":0.14960629921259844,"duration":"0.03"},{"name":"G#3","midi":56,"time":"243.97","velocity":0.1968503937007874,"duration":"0.31"},{"name":"C#4","midi":61,"time":"243.99","velocity":0.1732283464566929,"duration":"0.12"},{"name":"E4","midi":64,"time":"244.03","velocity":0.48031496062992124,"duration":"2.47"},{"name":"E6","midi":88,"time":"244.15","velocity":0.2047244094488189,"duration":"0.15"},{"name":"B4","midi":71,"time":"244.16","velocity":0.2125984251968504,"duration":"0.07"},{"name":"G#4","midi":68,"time":"244.20","velocity":0.36220472440944884,"duration":"1.15"},{"name":"B4","midi":71,"time":"244.30","velocity":0.2047244094488189,"duration":"0.06"},{"name":"G#3","midi":56,"time":"244.48","velocity":0.14960629921259844,"duration":"0.05"},{"name":"C#4","midi":61,"time":"244.53","velocity":0.15748031496062992,"duration":"0.05"},{"name":"G#3","midi":56,"time":"244.59","velocity":0.11811023622047244,"duration":"0.03"},{"name":"B4","midi":71,"time":"244.59","velocity":0.2283464566929134,"duration":"0.05"},{"name":"G3","midi":55,"time":"244.63","velocity":0.13385826771653545,"duration":"0.03"},{"name":"G#3","midi":56,"time":"244.66","velocity":0.15748031496062992,"duration":"0.15"},{"name":"G#5","midi":80,"time":"244.79","velocity":0.4015748031496063,"duration":"0.45"},{"name":"E3","midi":52,"time":"244.84","velocity":0.16535433070866143,"duration":"0.07"},{"name":"E6","midi":88,"time":"244.91","velocity":0.18110236220472442,"duration":"0.12"},{"name":"D6","midi":86,"time":"244.99","velocity":0.11023622047244094,"duration":"0.06"},{"name":"F7","midi":101,"time":"245.02","velocity":0.1889763779527559,"duration":"1.00"},{"name":"G#3","midi":56,"time":"245.13","velocity":0.11023622047244094,"duration":"0.03"},{"name":"B5","midi":83,"time":"245.13","velocity":0.10236220472440945,"duration":"0.05"},{"name":"E3","midi":52,"time":"245.14","velocity":0.14173228346456693,"duration":"0.05"},{"name":"D7","midi":98,"time":"245.15","velocity":0.08661417322834646,"duration":"0.03"},{"name":"E3","midi":52,"time":"245.20","velocity":0.14960629921259844,"duration":"0.12"},{"name":"C7","midi":96,"time":"245.20","velocity":0.10236220472440945,"duration":"0.10"},{"name":"G#5","midi":80,"time":"245.27","velocity":0.4015748031496063,"duration":"1.05"},{"name":"E6","midi":88,"time":"245.29","velocity":0.1889763779527559,"duration":"0.15"},{"name":"G#4","midi":68,"time":"245.36","velocity":0.3464566929133858,"duration":"0.65"},{"name":"G#3","midi":56,"time":"245.40","velocity":0.07086614173228346,"duration":"0.05"},{"name":"G#3","midi":56,"time":"245.49","velocity":0.07874015748031496,"duration":"0.07"},{"name":"G#3","midi":56,"time":"245.66","velocity":0.12598425196850394,"duration":"0.14"},{"name":"C7","midi":96,"time":"245.87","velocity":0.12598425196850394,"duration":"0.33"},{"name":"B4","midi":71,"time":"246.00","velocity":0.5984251968503937,"duration":"3.05"},{"name":"F#6","midi":90,"time":"246.03","velocity":0.13385826771653545,"duration":"0.10"},{"name":"E6","midi":88,"time":"246.05","velocity":0.1968503937007874,"duration":"0.20"},{"name":"G#3","midi":56,"time":"246.07","velocity":0.14960629921259844,"duration":"0.05"},{"name":"G#4","midi":68,"time":"246.08","velocity":0.31496062992125984,"duration":"1.10"},{"name":"C#5","midi":73,"time":"246.10","velocity":0.4015748031496063,"duration":"0.08"},{"name":"G3","midi":55,"time":"246.12","velocity":0.16535433070866143,"duration":"0.03"},{"name":"B3","midi":59,"time":"246.16","velocity":0.4645669291338583,"duration":"1.83"},{"name":"D#5","midi":75,"time":"246.17","velocity":0.11811023622047244,"duration":"0.03"},{"name":"E3","midi":52,"time":"246.21","velocity":0.1889763779527559,"duration":"0.19"},{"name":"C#5","midi":73,"time":"246.21","velocity":0.4645669291338583,"duration":"0.28"},{"name":"F#6","midi":90,"time":"246.40","velocity":0.16535433070866143,"duration":"0.10"},{"name":"G#6","midi":92,"time":"246.40","velocity":0.2755905511811024,"duration":"0.14"},{"name":"G#5","midi":80,"time":"246.41","velocity":0.3700787401574803,"duration":"0.65"},{"name":"E6","midi":88,"time":"246.43","velocity":0.2047244094488189,"duration":"0.16"},{"name":"D#5","midi":75,"time":"246.45","velocity":0.13385826771653545,"duration":"0.05"},{"name":"E4","midi":64,"time":"246.51","velocity":0.25984251968503935,"duration":"0.22"},{"name":"F#6","midi":90,"time":"246.57","velocity":0.09448818897637795,"duration":"0.07"},{"name":"C#5","midi":73,"time":"246.62","velocity":0.33070866141732286,"duration":"0.14"},{"name":"F#6","midi":90,"time":"246.66","velocity":0.2204724409448819,"duration":"0.22"},{"name":"C7","midi":96,"time":"246.76","velocity":0.07874015748031496,"duration":"0.05"},{"name":"E4","midi":64,"time":"246.77","velocity":0.31496062992125984,"duration":"0.38"},{"name":"E6","midi":88,"time":"246.81","velocity":0.16535433070866143,"duration":"0.06"},{"name":"F#5","midi":78,"time":"246.87","velocity":0.07086614173228346,"duration":"0.08"},{"name":"C#6","midi":85,"time":"246.92","velocity":0.08661417322834646,"duration":"0.06"},{"name":"E3","midi":52,"time":"246.93","velocity":0.09448818897637795,"duration":"0.03"},{"name":"C#5","midi":73,"time":"246.97","velocity":0.1732283464566929,"duration":"0.07"},{"name":"G#5","midi":80,"time":"247.09","velocity":0.3464566929133858,"duration":"0.33"},{"name":"D#5","midi":75,"time":"247.13","velocity":0.15748031496062992,"duration":"0.03"},{"name":"C#6","midi":85,"time":"247.14","velocity":0.08661417322834646,"duration":"0.03"},{"name":"F#6","midi":90,"time":"247.15","velocity":0.23622047244094488,"duration":"0.49"},{"name":"E4","midi":64,"time":"247.16","velocity":0.31496062992125984,"duration":"0.34"},{"name":"C#5","midi":73,"time":"247.16","velocity":0.2204724409448819,"duration":"0.03"},{"name":"E6","midi":88,"time":"247.16","velocity":0.25196850393700787,"duration":"0.15"},{"name":"C7","midi":96,"time":"247.24","velocity":0.07874015748031496,"duration":"0.07"},{"name":"E3","midi":52,"time":"247.26","velocity":0.14173228346456693,"duration":"0.14"},{"name":"G#4","midi":68,"time":"247.26","velocity":0.3543307086614173,"duration":"1.01"},{"name":"C#5","midi":73,"time":"247.35","velocity":0.1889763779527559,"duration":"0.10"},{"name":"G#5","midi":80,"time":"247.44","velocity":0.36220472440944884,"duration":"0.22"},{"name":"C#5","midi":73,"time":"247.49","velocity":0.1889763779527559,"duration":"0.10"},{"name":"E4","midi":64,"time":"247.53","velocity":0.33858267716535434,"duration":"0.36"},{"name":"E6","midi":88,"time":"247.53","velocity":0.14173228346456693,"duration":"0.17"},{"name":"D#5","midi":75,"time":"247.66","velocity":0.1732283464566929,"duration":"0.15"},{"name":"C#5","midi":73,"time":"247.67","velocity":0.1968503937007874,"duration":"0.03"},{"name":"G#5","midi":80,"time":"247.69","velocity":0.4094488188976378,"duration":"0.52"},{"name":"F#6","midi":90,"time":"247.69","velocity":0.11811023622047244,"duration":"0.05"},{"name":"E3","midi":52,"time":"247.76","velocity":0.09448818897637795,"duration":"0.03"},{"name":"D#7","midi":99,"time":"247.80","velocity":0.07086614173228346,"duration":"0.03"},{"name":"C#5","midi":73,"time":"247.83","velocity":0.18110236220472442,"duration":"0.03"},{"name":"F#6","midi":90,"time":"247.83","velocity":0.2125984251968504,"duration":"0.20"},{"name":"F4","midi":65,"time":"247.90","velocity":0.2283464566929134,"duration":"0.02"},{"name":"D#5","midi":75,"time":"247.91","velocity":0.07086614173228346,"duration":"0.03"},{"name":"E6","midi":88,"time":"247.91","velocity":0.23622047244094488,"duration":"0.13"},{"name":"E4","midi":64,"time":"247.92","velocity":0.29133858267716534,"duration":"0.31"},{"name":"D6","midi":86,"time":"247.99","velocity":0.09448818897637795,"duration":"0.10"},{"name":"C#4","midi":61,"time":"248.02","velocity":0.3700787401574803,"duration":"0.45"},{"name":"D#5","midi":75,"time":"248.05","velocity":0.18110236220472442,"duration":"0.06"},{"name":"F#6","midi":90,"time":"248.08","velocity":0.09448818897637795,"duration":"0.03"},{"name":"D#5","midi":75,"time":"248.14","velocity":0.07874015748031496,"duration":"0.03"},{"name":"G#5","midi":80,"time":"248.23","velocity":0.3937007874015748,"duration":"1.22"},{"name":"E5","midi":76,"time":"248.26","velocity":0.16535433070866143,"duration":"0.10"},{"name":"C6","midi":84,"time":"248.27","velocity":0.11023622047244094,"duration":"0.06"},{"name":"F#6","midi":90,"time":"248.28","velocity":0.18110236220472442,"duration":"0.12"},{"name":"B6","midi":95,"time":"248.28","velocity":0.1732283464566929,"duration":"0.28"},{"name":"E4","midi":64,"time":"248.30","velocity":0.28346456692913385,"duration":"0.30"},{"name":"G#4","midi":68,"time":"248.30","velocity":0.2677165354330709,"duration":"0.05"},{"name":"E6","midi":88,"time":"248.30","velocity":0.16535433070866143,"duration":"0.05"},{"name":"G#3","midi":56,"time":"248.37","velocity":0.1968503937007874,"duration":"0.12"},{"name":"D6","midi":86,"time":"248.38","velocity":0.08661417322834646,"duration":"0.10"},{"name":"G#4","midi":68,"time":"248.40","velocity":0.3700787401574803,"duration":"0.65"},{"name":"D#5","midi":75,"time":"248.41","velocity":0.12598425196850394,"duration":"0.07"},{"name":"D#7","midi":99,"time":"248.41","velocity":0.13385826771653545,"duration":"0.24"},{"name":"F#6","midi":90,"time":"248.45","velocity":0.10236220472440945,"duration":"0.13"},{"name":"C#4","midi":61,"time":"248.49","velocity":0.25196850393700787,"duration":"0.06"},{"name":"G#3","midi":56,"time":"248.50","velocity":0.1732283464566929,"duration":"0.03"},{"name":"C#4","midi":61,"time":"248.56","velocity":0.30708661417322836,"duration":"0.49"},{"name":"C#5","midi":73,"time":"248.57","velocity":0.31496062992125984,"duration":"0.12"},{"name":"E5","midi":76,"time":"248.62","velocity":0.14173228346456693,"duration":"0.06"},{"name":"F#6","midi":90,"time":"248.65","velocity":0.16535433070866143,"duration":"0.12"},{"name":"E4","midi":64,"time":"248.67","velocity":0.30708661417322836,"duration":"0.26"},{"name":"E6","midi":88,"time":"248.67","velocity":0.2283464566929134,"duration":"0.16"},{"name":"D#7","midi":99,"time":"248.70","velocity":0.13385826771653545,"duration":"0.29"},{"name":"D#5","midi":75,"time":"248.78","velocity":0.10236220472440945,"duration":"0.05"},{"name":"C#6","midi":85,"time":"248.80","velocity":0.09448818897637795,"duration":"0.12"},{"name":"F#6","midi":90,"time":"248.83","velocity":0.10236220472440945,"duration":"0.15"},{"name":"F#4","midi":66,"time":"249.02","velocity":0.5748031496062992,"duration":"0.33"},{"name":"E7","midi":100,"time":"249.03","velocity":0.09448818897637795,"duration":"0.21"},{"name":"B4","midi":71,"time":"249.06","velocity":0.30708661417322836,"duration":"0.10"},{"name":"E6","midi":88,"time":"249.06","velocity":0.12598425196850394,"duration":"0.05"},{"name":"E5","midi":76,"time":"249.15","velocity":0.13385826771653545,"duration":"0.03"},{"name":"C#3","midi":49,"time":"249.19","velocity":0.11023622047244094,"duration":"0.05"},{"name":"B4","midi":71,"time":"249.19","velocity":0.3543307086614173,"duration":"0.22"},{"name":"C#5","midi":73,"time":"249.22","velocity":0.2125984251968504,"duration":"0.08"},{"name":"G#4","midi":68,"time":"249.23","velocity":0.5196850393700787,"duration":"0.17"},{"name":"E5","midi":76,"time":"249.26","velocity":0.09448818897637795,"duration":"0.06"},{"name":"D#3","midi":51,"time":"249.27","velocity":0.14960629921259844,"duration":"0.03"},{"name":"C#6","midi":85,"time":"249.31","velocity":0.10236220472440945,"duration":"0.05"},{"name":"D4","midi":62,"time":"249.33","velocity":0.25984251968503935,"duration":"0.02"},{"name":"C#5","midi":73,"time":"249.33","velocity":0.25196850393700787,"duration":"0.03"},{"name":"F#4","midi":66,"time":"249.36","velocity":0.5196850393700787,"duration":"0.49"},{"name":"C#5","midi":73,"time":"249.37","velocity":0.5433070866141733,"duration":"0.41"},{"name":"G3","midi":55,"time":"249.38","velocity":0.08661417322834646,"duration":"0.03"},{"name":"D4","midi":62,"time":"249.40","velocity":0.36220472440944884,"duration":"0.38"},{"name":"G5","midi":79,"time":"249.40","velocity":0.2440944881889764,"duration":"0.02"},{"name":"F#6","midi":90,"time":"249.41","velocity":0.25196850393700787,"duration":"0.28"},{"name":"G#3","midi":56,"time":"249.42","velocity":0.14173228346456693,"duration":"0.03"},{"name":"B4","midi":71,"time":"249.42","velocity":0.28346456692913385,"duration":"0.02"},{"name":"C#7","midi":97,"time":"249.42","velocity":0.11023622047244094,"duration":"0.03"},{"name":"A5","midi":81,"time":"249.43","velocity":0.2204724409448819,"duration":"0.26"},{"name":"E6","midi":88,"time":"249.43","velocity":0.14173228346456693,"duration":"0.12"},{"name":"G#4","midi":68,"time":"249.44","velocity":0.4251968503937008,"duration":"0.05"},{"name":"B4","midi":71,"time":"249.49","velocity":0.2755905511811024,"duration":"0.03"},{"name":"A4","midi":69,"time":"249.50","velocity":0.41732283464566927,"duration":"0.08"},{"name":"F#3","midi":54,"time":"249.52","velocity":0.14960629921259844,"duration":"0.05"},{"name":"G#5","midi":80,"time":"249.52","velocity":0.14173228346456693,"duration":"0.06"},{"name":"B4","midi":71,"time":"249.56","velocity":0.25196850393700787,"duration":"0.03"},{"name":"C7","midi":96,"time":"249.56","velocity":0.11023622047244094,"duration":"0.13"},{"name":"A4","midi":69,"time":"249.59","velocity":0.5354330708661418,"duration":"2.91"},{"name":"F#3","midi":54,"time":"249.60","velocity":0.11023622047244094,"duration":"0.05"},{"name":"G#5","midi":80,"time":"249.62","velocity":0.1968503937007874,"duration":"0.22"},{"name":"F7","midi":101,"time":"249.65","velocity":0.1968503937007874,"duration":"1.28"},{"name":"F3","midi":53,"time":"249.76","velocity":0.11023622047244094,"duration":"0.05"},{"name":"D5","midi":74,"time":"249.78","velocity":0.3937007874015748,"duration":"0.02"},{"name":"G#6","midi":92,"time":"249.78","velocity":0.33858267716535434,"duration":"2.31"},{"name":"D4","midi":62,"time":"249.79","velocity":0.3543307086614173,"duration":"0.37"},{"name":"A6","midi":93,"time":"249.79","velocity":0.07874015748031496,"duration":"0.12"},{"name":"F#3","midi":54,"time":"249.80","velocity":0.15748031496062992,"duration":"0.03"},{"name":"C#5","midi":73,"time":"249.80","velocity":0.49606299212598426,"duration":"0.44"},{"name":"E6","midi":88,"time":"249.80","velocity":0.16535433070866143,"duration":"0.22"},{"name":"D3","midi":50,"time":"249.87","velocity":0.23622047244094488,"duration":"0.27"},{"name":"G#5","midi":80,"time":"249.90","velocity":0.1732283464566929,"duration":"0.05"},{"name":"F#4","midi":66,"time":"249.94","velocity":0.3543307086614173,"duration":"0.30"},{"name":"C7","midi":96,"time":"249.94","velocity":0.12598425196850394,"duration":"0.22"},{"name":"E5","midi":76,"time":"249.95","velocity":0.11023622047244094,"duration":"0.03"},{"name":"E5","midi":76,"time":"250.00","velocity":0.15748031496062992,"duration":"0.10"},{"name":"D3","midi":50,"time":"250.15","velocity":0.1889763779527559,"duration":"0.05"},{"name":"D#4","midi":63,"time":"250.16","velocity":0.2677165354330709,"duration":"0.02"},{"name":"D4","midi":62,"time":"250.19","velocity":0.3228346456692913,"duration":"0.24"},{"name":"A#5","midi":82,"time":"250.20","velocity":0.10236220472440945,"duration":"0.03"},{"name":"G#5","midi":80,"time":"250.21","velocity":0.13385826771653545,"duration":"0.10"},{"name":"F#4","midi":66,"time":"250.26","velocity":0.30708661417322836,"duration":"0.15"},{"name":"C#5","midi":73,"time":"250.26","velocity":0.5275590551181102,"duration":"0.26"},{"name":"E5","midi":76,"time":"250.27","velocity":0.10236220472440945,"duration":"0.03"},{"name":"E5","midi":76,"time":"250.36","velocity":0.12598425196850394,"duration":"0.07"},{"name":"G#5","midi":80,"time":"250.37","velocity":0.18110236220472442,"duration":"0.10"},{"name":"F3","midi":53,"time":"250.42","velocity":0.12598425196850394,"duration":"0.03"},{"name":"D4","midi":62,"time":"250.44","velocity":0.33858267716535434,"duration":"0.12"},{"name":"F#3","midi":54,"time":"250.45","velocity":0.14173228346456693,"duration":"0.03"},{"name":"F#4","midi":66,"time":"250.45","velocity":0.25984251968503935,"duration":"0.07"},{"name":"D3","midi":50,"time":"250.51","velocity":0.15748031496062992,"duration":"0.05"},{"name":"D5","midi":74,"time":"250.51","velocity":0.3464566929133858,"duration":"0.02"},{"name":"C#5","midi":73,"time":"250.52","velocity":0.5984251968503937,"duration":"1.15"},{"name":"F#6","midi":90,"time":"250.52","velocity":0.2047244094488189,"duration":"0.29"},{"name":"F#4","midi":66,"time":"250.53","velocity":0.31496062992125984,"duration":"0.36"},{"name":"F#5","midi":78,"time":"250.55","velocity":0.33070866141732286,"duration":"0.60"},{"name":"D3","midi":50,"time":"250.57","velocity":0.2047244094488189,"duration":"0.09"},{"name":"D4","midi":62,"time":"250.57","velocity":0.3464566929133858,"duration":"0.36"},{"name":"E6","midi":88,"time":"250.57","velocity":0.14173228346456693,"duration":"0.10"},{"name":"G#5","midi":80,"time":"250.69","velocity":0.1889763779527559,"duration":"0.07"},{"name":"F#3","midi":54,"time":"250.83","velocity":0.11023622047244094,"duration":"0.03"},{"name":"G#5","midi":80,"time":"250.83","velocity":0.12598425196850394,"duration":"0.03"},{"name":"D3","midi":50,"time":"250.86","velocity":0.11811023622047244,"duration":"0.08"},{"name":"A3","midi":57,"time":"250.90","velocity":0.07086614173228346,"duration":"0.05"},{"name":"E6","midi":88,"time":"250.92","velocity":0.14960629921259844,"duration":"0.16"},{"name":"F#4","midi":66,"time":"250.93","velocity":0.29133858267716534,"duration":"0.38"},{"name":"D4","midi":62,"time":"250.94","velocity":0.36220472440944884,"duration":"0.73"},{"name":"D3","midi":50,"time":"250.95","velocity":0.1732283464566929,"duration":"0.10"},{"name":"G#5","midi":80,"time":"250.97","velocity":0.16535433070866143,"duration":"0.06"},{"name":"D6","midi":86,"time":"250.98","velocity":0.10236220472440945,"duration":"0.06"},{"name":"E5","midi":76,"time":"251.10","velocity":0.10236220472440945,"duration":"0.03"},{"name":"E6","midi":88,"time":"251.10","velocity":0.11023622047244094,"duration":"0.10"},{"name":"G#5","midi":80,"time":"251.17","velocity":0.13385826771653545,"duration":"0.03"},{"name":"F#5","midi":78,"time":"251.19","velocity":0.33858267716535434,"duration":"0.64"},{"name":"F#3","midi":54,"time":"251.21","velocity":0.1968503937007874,"duration":"0.03"},{"name":"G#5","midi":80,"time":"251.26","velocity":0.2204724409448819,"duration":"0.10"},{"name":"A6","midi":93,"time":"251.27","velocity":0.11023622047244094,"duration":"0.03"},{"name":"E6","midi":88,"time":"251.28","velocity":0.09448818897637795,"duration":"0.03"},{"name":"F7","midi":101,"time":"251.30","velocity":0.15748031496062992,"duration":"0.67"},{"name":"E6","midi":88,"time":"251.35","velocity":0.12598425196850394,"duration":"0.17"},{"name":"F#4","midi":66,"time":"251.37","velocity":0.3228346456692913,"duration":"0.64"},{"name":"G#5","midi":80,"time":"251.41","velocity":0.18110236220472442,"duration":"0.06"},{"name":"D6","midi":86,"time":"251.41","velocity":0.08661417322834646,"duration":"0.05"},{"name":"A3","midi":57,"time":"251.42","velocity":0.14173228346456693,"duration":"0.09"},{"name":"E5","midi":76,"time":"251.44","velocity":0.07874015748031496,"duration":"0.03"},{"name":"C7","midi":96,"time":"251.49","velocity":0.13385826771653545,"duration":"0.13"},{"name":"A3","midi":57,"time":"251.59","velocity":0.15748031496062992,"duration":"0.17"},{"name":"E5","midi":76,"time":"251.63","velocity":0.07086614173228346,"duration":"0.03"},{"name":"D#4","midi":63,"time":"251.67","velocity":0.33070866141732286,"duration":"0.02"},{"name":"C5","midi":72,"time":"251.67","velocity":0.29133858267716534,"duration":"0.02"},{"name":"E6","midi":88,"time":"251.69","velocity":0.1889763779527559,"duration":"0.12"},{"name":"D4","midi":62,"time":"251.70","velocity":0.36220472440944884,"duration":"0.33"},{"name":"C#5","midi":73,"time":"251.70","velocity":0.36220472440944884,"duration":"0.06"},{"name":"G#5","midi":80,"time":"251.72","velocity":0.11023622047244094,"duration":"0.08"},{"name":"E5","midi":76,"time":"251.76","velocity":0.16535433070866143,"duration":"0.03"},{"name":"C#5","midi":73,"time":"251.78","velocity":0.4251968503937008,"duration":"0.64"},{"name":"D3","midi":50,"time":"251.81","velocity":0.2204724409448819,"duration":"0.21"},{"name":"G#5","midi":80,"time":"251.86","velocity":0.11023622047244094,"duration":"0.03"},{"name":"G#5","midi":80,"time":"252.00","velocity":0.18110236220472442,"duration":"0.08"},{"name":"E6","midi":88,"time":"252.00","velocity":0.08661417322834646,"duration":"0.05"},{"name":"F#5","midi":78,"time":"252.02","velocity":0.3543307086614173,"duration":"0.31"},{"name":"F#4","midi":66,"time":"252.03","velocity":0.5826771653543307,"duration":"0.44"},{"name":"E5","midi":76,"time":"252.03","velocity":0.12598425196850394,"duration":"0.07"},{"name":"D4","midi":62,"time":"252.05","velocity":0.3543307086614173,"duration":"0.33"},{"name":"E6","midi":88,"time":"252.07","velocity":0.12598425196850394,"duration":"0.10"},{"name":"G#6","midi":92,"time":"252.12","velocity":0.13385826771653545,"duration":"0.16"},{"name":"G#3","midi":56,"time":"252.19","velocity":0.1732283464566929,"duration":"0.03"},{"name":"E7","midi":100,"time":"252.19","velocity":0.07086614173228346,"duration":"0.03"},{"name":"G3","midi":55,"time":"252.27","velocity":0.14173228346456693,"duration":"0.05"},{"name":"D3","midi":50,"time":"252.31","velocity":0.13385826771653545,"duration":"0.08"},{"name":"B3","midi":59,"time":"252.31","velocity":0.2677165354330709,"duration":"0.05"},{"name":"D4","midi":62,"time":"252.38","velocity":0.2440944881889764,"duration":"0.02"},{"name":"E5","midi":76,"time":"252.41","velocity":0.4094488188976378,"duration":"1.73"},{"name":"F7","midi":101,"time":"252.41","velocity":0.07874015748031496,"duration":"0.07"},{"name":"B3","midi":59,"time":"252.42","velocity":0.25984251968503935,"duration":"0.09"},{"name":"B4","midi":71,"time":"252.42","velocity":0.6377952755905512,"duration":"2.26"},{"name":"F#7","midi":102,"time":"252.42","velocity":0.11811023622047244,"duration":"0.20"},{"name":"C#5","midi":73,"time":"252.43","velocity":0.3228346456692913,"duration":"0.09"},{"name":"G#5","midi":80,"time":"252.43","velocity":0.18110236220472442,"duration":"0.13"},{"name":"G#6","midi":92,"time":"252.43","velocity":0.1889763779527559,"duration":"0.05"},{"name":"F#4","midi":66,"time":"252.49","velocity":0.31496062992125984,"duration":"0.02"},{"name":"C#7","midi":97,"time":"252.49","velocity":0.14960629921259844,"duration":"0.05"},{"name":"E4","midi":64,"time":"252.51","velocity":0.2992125984251969,"duration":"0.03"},{"name":"B3","midi":59,"time":"252.52","velocity":0.23622047244094488,"duration":"0.26"},{"name":"A4","midi":69,"time":"252.52","velocity":0.41732283464566927,"duration":"0.03"},{"name":"F#4","midi":66,"time":"252.53","velocity":0.4409448818897638,"duration":"0.17"},{"name":"C#5","midi":73,"time":"252.53","velocity":0.29133858267716534,"duration":"0.03"},{"name":"D#7","midi":99,"time":"252.53","velocity":0.09448818897637795,"duration":"0.07"},{"name":"C#7","midi":97,"time":"252.56","velocity":0.18110236220472442,"duration":"0.37"},{"name":"A4","midi":69,"time":"252.57","velocity":0.41732283464566927,"duration":"0.06"},{"name":"C#5","midi":73,"time":"252.58","velocity":0.2283464566929134,"duration":"0.02"},{"name":"F7","midi":101,"time":"252.58","velocity":0.08661417322834646,"duration":"0.12"},{"name":"G#5","midi":80,"time":"252.59","velocity":0.09448818897637795,"duration":"0.07"},{"name":"C#5","midi":73,"time":"252.62","velocity":0.1889763779527559,"duration":"0.07"},{"name":"A4","midi":69,"time":"252.64","velocity":0.3464566929133858,"duration":"0.02"},{"name":"A4","midi":69,"time":"252.67","velocity":0.2755905511811024,"duration":"0.03"},{"name":"C#5","midi":73,"time":"252.70","velocity":0.2125984251968504,"duration":"0.06"},{"name":"G4","midi":67,"time":"252.72","velocity":0.2440944881889764,"duration":"0.02"},{"name":"A4","midi":69,"time":"252.72","velocity":0.2440944881889764,"duration":"0.02"},{"name":"G#5","midi":80,"time":"252.72","velocity":0.07874015748031496,"duration":"0.03"},{"name":"F#4","midi":66,"time":"252.74","velocity":0.30708661417322836,"duration":"0.03"},{"name":"A4","midi":69,"time":"252.76","velocity":0.33858267716535434,"duration":"0.02"},{"name":"B3","midi":59,"time":"252.79","velocity":0.31496062992125984,"duration":"0.77"},{"name":"E4","midi":64,"time":"252.79","velocity":0.3464566929133858,"duration":"0.17"},{"name":"C#5","midi":73,"time":"252.81","velocity":0.25196850393700787,"duration":"0.02"},{"name":"G#5","midi":80,"time":"252.81","velocity":0.18110236220472442,"duration":"0.20"},{"name":"F#6","midi":90,"time":"252.81","velocity":0.2440944881889764,"duration":"0.23"},{"name":"F#5","midi":78,"time":"252.83","velocity":0.2204724409448819,"duration":"0.28"},{"name":"D#7","midi":99,"time":"252.93","velocity":0.11023622047244094,"duration":"0.03"},{"name":"A4","midi":69,"time":"252.94","velocity":0.2677165354330709,"duration":"0.02"},{"name":"C#7","midi":97,"time":"252.95","velocity":0.11023622047244094,"duration":"0.08"},{"name":"F#4","midi":66,"time":"252.97","velocity":0.5196850393700787,"duration":"2.83"},{"name":"B6","midi":95,"time":"252.97","velocity":0.1732283464566929,"duration":"0.17"},{"name":"G#5","midi":80,"time":"253.05","velocity":0.10236220472440945,"duration":"0.03"},{"name":"D#7","midi":99,"time":"253.05","velocity":0.11023622047244094,"duration":"0.03"},{"name":"E3","midi":52,"time":"253.07","velocity":0.15748031496062992,"duration":"0.03"},{"name":"C6","midi":84,"time":"253.13","velocity":0.11023622047244094,"duration":"0.03"},{"name":"C#7","midi":97,"time":"253.14","velocity":0.07086614173228346,"duration":"0.03"},{"name":"C#5","midi":73,"time":"253.15","velocity":0.30708661417322836,"duration":"0.03"},{"name":"F#6","midi":90,"time":"253.15","velocity":0.25196850393700787,"duration":"0.42"},{"name":"G#6","midi":92,"time":"253.17","velocity":0.14960629921259844,"duration":"0.06"},{"name":"G#5","midi":80,"time":"253.21","velocity":0.25196850393700787,"duration":"0.63"},{"name":"E3","midi":52,"time":"253.22","velocity":0.23622047244094488,"duration":"0.22"},{"name":"C#5","midi":73,"time":"253.23","velocity":0.08661417322834646,"duration":"0.03"},{"name":"C#7","midi":97,"time":"253.24","velocity":0.10236220472440945,"duration":"0.03"},{"name":"D6","midi":86,"time":"253.28","velocity":0.13385826771653545,"duration":"0.13"},{"name":"D#7","midi":99,"time":"253.30","velocity":0.1732283464566929,"duration":"0.15"},{"name":"E3","midi":52,"time":"253.45","velocity":0.1732283464566929,"duration":"0.03"},{"name":"E3","midi":52,"time":"253.50","velocity":0.14173228346456693,"duration":"0.05"},{"name":"E3","midi":52,"time":"253.58","velocity":0.18110236220472442,"duration":"0.03"},{"name":"B3","midi":59,"time":"253.58","velocity":0.2125984251968504,"duration":"0.10"},{"name":"F#6","midi":90,"time":"253.58","velocity":0.29133858267716534,"duration":"0.48"},{"name":"D6","midi":86,"time":"253.64","velocity":0.08661417322834646,"duration":"0.03"},{"name":"D6","midi":86,"time":"253.73","velocity":0.07086614173228346,"duration":"0.06"},{"name":"B3","midi":59,"time":"253.76","velocity":0.2125984251968504,"duration":"0.14"},{"name":"D#7","midi":99,"time":"253.76","velocity":0.09448818897637795,"duration":"0.03"},{"name":"C#5","midi":73,"time":"253.85","velocity":0.08661417322834646,"duration":"0.03"},{"name":"G#5","midi":80,"time":"253.87","velocity":0.16535433070866143,"duration":"0.10"},{"name":"G#3","midi":56,"time":"253.91","velocity":0.2204724409448819,"duration":"0.05"},{"name":"G#6","midi":92,"time":"253.91","velocity":0.1889763779527559,"duration":"0.06"},{"name":"F7","midi":101,"time":"253.92","velocity":0.07086614173228346,"duration":"0.07"},{"name":"B3","midi":59,"time":"253.97","velocity":0.28346456692913385,"duration":"0.70"},{"name":"G#5","midi":80,"time":"253.99","velocity":0.16535433070866143,"duration":"0.15"},{"name":"C#7","midi":97,"time":"253.99","velocity":0.14960629921259844,"duration":"0.15"},{"name":"C#5","midi":73,"time":"254.01","velocity":0.12598425196850394,"duration":"0.03"},{"name":"D#6","midi":87,"time":"254.01","velocity":0.11023622047244094,"duration":"0.05"},{"name":"D#7","midi":99,"time":"254.03","velocity":0.1732283464566929,"duration":"0.09"},{"name":"E3","midi":52,"time":"254.08","velocity":0.2204724409448819,"duration":"0.13"},{"name":"F#7","midi":102,"time":"254.08","velocity":0.1732283464566929,"duration":"0.90"},{"name":"D#5","midi":75,"time":"254.13","velocity":0.12598425196850394,"duration":"0.03"},{"name":"D6","midi":86,"time":"254.13","velocity":0.12598425196850394,"duration":"0.10"},{"name":"E5","midi":76,"time":"254.15","velocity":0.3700787401574803,"duration":"0.51"},{"name":"D#7","midi":99,"time":"254.16","velocity":0.13385826771653545,"duration":"0.05"},{"name":"G#5","midi":80,"time":"254.17","velocity":0.12598425196850394,"duration":"0.10"},{"name":"C#5","midi":73,"time":"254.23","velocity":0.14960629921259844,"duration":"0.05"},{"name":"E3","midi":52,"time":"254.24","velocity":0.2440944881889764,"duration":"0.03"},{"name":"F#6","midi":90,"time":"254.26","velocity":0.28346456692913385,"duration":"0.22"},{"name":"F3","midi":53,"time":"254.28","velocity":0.2677165354330709,"duration":"0.02"},{"name":"G#5","midi":80,"time":"254.31","velocity":0.14173228346456693,"duration":"0.06"},{"name":"D#7","midi":99,"time":"254.33","velocity":0.14960629921259844,"duration":"0.42"},{"name":"G#5","midi":80,"time":"254.38","velocity":0.18110236220472442,"duration":"0.08"},{"name":"C#6","midi":85,"time":"254.40","velocity":0.11811023622047244,"duration":"0.05"},{"name":"C#5","midi":73,"time":"254.41","velocity":0.2047244094488189,"duration":"0.05"},{"name":"F3","midi":53,"time":"254.42","velocity":0.25196850393700787,"duration":"0.02"},{"name":"E3","midi":52,"time":"254.44","velocity":0.25196850393700787,"duration":"0.23"},{"name":"G#5","midi":80,"time":"254.49","velocity":0.23622047244094488,"duration":"0.24"},{"name":"D6","midi":86,"time":"254.50","velocity":0.11023622047244094,"duration":"0.12"},{"name":"C#6","midi":85,"time":"254.63","velocity":0.14960629921259844,"duration":"0.07"},{"name":"D#6","midi":87,"time":"254.63","velocity":0.11023622047244094,"duration":"0.03"},{"name":"D#5","midi":75,"time":"254.65","velocity":0.1968503937007874,"duration":"0.03"},{"name":"F7","midi":101,"time":"254.67","velocity":0.08661417322834646,"duration":"0.05"},{"name":"E3","midi":52,"time":"254.69","velocity":0.2125984251968504,"duration":"0.03"},{"name":"B4","midi":71,"time":"254.69","velocity":0.6299212598425197,"duration":"1.58"},{"name":"E5","midi":76,"time":"254.70","velocity":0.41732283464566927,"duration":"1.27"},{"name":"B3","midi":59,"time":"254.71","velocity":0.31496062992125984,"duration":"0.58"},{"name":"G#5","midi":80,"time":"254.76","velocity":0.1732283464566929,"duration":"0.07"},{"name":"D#6","midi":87,"time":"254.76","velocity":0.07086614173228346,"duration":"0.03"},{"name":"C#7","midi":97,"time":"254.76","velocity":0.10236220472440945,"duration":"0.03"},{"name":"F#6","midi":90,"time":"254.77","velocity":0.2992125984251969,"duration":"0.67"},{"name":"D#7","midi":99,"time":"254.78","velocity":0.09448818897637795,"duration":"0.05"},{"name":"D#7","midi":99,"time":"254.84","velocity":0.16535433070866143,"duration":"0.10"},{"name":"C#5","midi":73,"time":"254.85","velocity":0.2440944881889764,"duration":"0.09"},{"name":"G#5","midi":80,"time":"254.86","velocity":0.2047244094488189,"duration":"0.09"},{"name":"D#7","midi":99,"time":"254.95","velocity":0.13385826771653545,"duration":"0.07"},{"name":"E3","midi":52,"time":"254.97","velocity":0.16535433070866143,"duration":"0.07"},{"name":"G#5","midi":80,"time":"254.97","velocity":0.25196850393700787,"duration":"0.26"},{"name":"D#6","midi":87,"time":"255.00","velocity":0.09448818897637795,"duration":"0.03"},{"name":"C#6","midi":85,"time":"255.02","velocity":0.10236220472440945,"duration":"0.03"},{"name":"C#5","midi":73,"time":"255.07","velocity":0.15748031496062992,"duration":"0.03"},{"name":"E3","midi":52,"time":"255.14","velocity":0.25196850393700787,"duration":"0.14"},{"name":"D6","midi":86,"time":"255.15","velocity":0.07874015748031496,"duration":"0.03"},{"name":"D6","midi":86,"time":"255.22","velocity":0.11023622047244094,"duration":"0.03"},{"name":"C#5","midi":73,"time":"255.23","velocity":0.2440944881889764,"duration":"0.07"},{"name":"G#5","midi":80,"time":"255.23","velocity":0.15748031496062992,"duration":"0.06"},{"name":"D#6","midi":87,"time":"255.26","velocity":0.10236220472440945,"duration":"0.03"},{"name":"A#3","midi":58,"time":"255.29","velocity":0.29133858267716534,"duration":"0.02"},{"name":"G#5","midi":80,"time":"255.33","velocity":0.2677165354330709,"duration":"0.08"},{"name":"A#3","midi":58,"time":"255.35","velocity":0.23622047244094488,"duration":"0.03"},{"name":"A#3","midi":58,"time":"255.40","velocity":0.2677165354330709,"duration":"0.02"},{"name":"D5","midi":74,"time":"255.41","velocity":0.25984251968503935,"duration":"0.05"},{"name":"A6","midi":93,"time":"255.42","velocity":0.12598425196850394,"duration":"0.03"},{"name":"D4","midi":62,"time":"255.43","velocity":0.33858267716535434,"duration":"0.10"},{"name":"F7","midi":101,"time":"255.43","velocity":0.10236220472440945,"duration":"0.05"},{"name":"D6","midi":86,"time":"255.45","velocity":0.2125984251968504,"duration":"0.44"},{"name":"F#6","midi":90,"time":"255.45","velocity":0.2992125984251969,"duration":"0.79"},{"name":"A#3","midi":58,"time":"255.47","velocity":0.14173228346456693,"duration":"0.03"},{"name":"A5","midi":81,"time":"255.47","velocity":0.3937007874015748,"duration":"0.34"},{"name":"G#5","midi":80,"time":"255.48","velocity":0.07874015748031496,"duration":"0.05"},{"name":"D#3","midi":51,"time":"255.51","velocity":0.1968503937007874,"duration":"0.03"},{"name":"D3","midi":50,"time":"255.55","velocity":0.29133858267716534,"duration":"0.26"},{"name":"C#5","midi":73,"time":"255.55","velocity":0.25196850393700787,"duration":"0.03"},{"name":"A4","midi":69,"time":"255.59","velocity":0.2677165354330709,"duration":"0.02"},{"name":"C#5","midi":73,"time":"255.59","velocity":0.18110236220472442,"duration":"0.05"},{"name":"D4","midi":62,"time":"255.60","velocity":0.4409448818897638,"duration":"0.48"},{"name":"B6","midi":95,"time":"255.62","velocity":0.07874015748031496,"duration":"0.07"},{"name":"C#5","midi":73,"time":"255.66","velocity":0.14173228346456693,"duration":"0.05"},{"name":"A4","midi":69,"time":"255.67","velocity":0.18110236220472442,"duration":"0.05"},{"name":"F#3","midi":54,"time":"255.72","velocity":0.23622047244094488,"duration":"0.02"},{"name":"A4","midi":69,"time":"255.73","velocity":0.23622047244094488,"duration":"0.02"},{"name":"C#5","midi":73,"time":"255.74","velocity":0.30708661417322836,"duration":"0.02"},{"name":"A4","midi":69,"time":"255.78","velocity":0.2992125984251969,"duration":"0.06"},{"name":"C#6","midi":85,"time":"255.78","velocity":0.23622047244094488,"duration":"0.51"},{"name":"G#5","midi":80,"time":"255.79","velocity":0.2283464566929134,"duration":"0.02"},{"name":"F#4","midi":66,"time":"255.80","velocity":0.6456692913385826,"duration":"1.49"},{"name":"C7","midi":96,"time":"255.80","velocity":0.12598425196850394,"duration":"0.07"},{"name":"E7","midi":100,"time":"255.80","velocity":0.1968503937007874,"duration":"0.36"},{"name":"F#3","midi":54,"time":"255.81","velocity":0.25196850393700787,"duration":"0.05"},{"name":"A5","midi":81,"time":"255.81","velocity":0.3937007874015748,"duration":"0.34"},{"name":"A4","midi":69,"time":"255.85","velocity":0.2204724409448819,"duration":"0.03"},{"name":"D3","midi":50,"time":"255.88","velocity":0.23622047244094488,"duration":"0.05"},{"name":"A3","midi":57,"time":"255.90","velocity":0.1732283464566929,"duration":"0.08"},{"name":"A4","midi":69,"time":"255.90","velocity":0.2677165354330709,"duration":"0.03"},{"name":"C7","midi":96,"time":"255.91","velocity":0.10236220472440945,"duration":"0.13"},{"name":"D3","midi":50,"time":"255.94","velocity":0.29133858267716534,"duration":"0.20"},{"name":"C#2","midi":37,"time":"255.97","velocity":0.08661417322834646,"duration":"0.03"},{"name":"A4","midi":69,"time":"255.98","velocity":0.15748031496062992,"duration":"0.05"},{"name":"A3","midi":57,"time":"256.00","velocity":0.08661417322834646,"duration":"0.03"},{"name":"E5","midi":76,"time":"256.01","velocity":0.25196850393700787,"duration":"0.30"},{"name":"A3","midi":57,"time":"256.07","velocity":0.14960629921259844,"duration":"0.03"},{"name":"D4","midi":62,"time":"256.10","velocity":0.3543307086614173,"duration":"0.12"},{"name":"C#5","midi":73,"time":"256.12","velocity":0.2992125984251969,"duration":"0.09"},{"name":"D3","midi":50,"time":"256.15","velocity":0.25984251968503935,"duration":"0.03"},{"name":"A5","midi":81,"time":"256.16","velocity":0.3937007874015748,"duration":"0.19"},{"name":"G5","midi":79,"time":"256.17","velocity":0.15748031496062992,"duration":"0.03"},{"name":"F#3","midi":54,"time":"256.19","velocity":0.2283464566929134,"duration":"0.02"},{"name":"A4","midi":69,"time":"256.19","velocity":0.25196850393700787,"duration":"0.12"},{"name":"D6","midi":86,"time":"256.19","velocity":0.2440944881889764,"duration":"0.16"},{"name":"D5","midi":74,"time":"256.20","velocity":0.3937007874015748,"duration":"0.09"},{"name":"F7","midi":101,"time":"256.22","velocity":0.07086614173228346,"duration":"0.03"},{"name":"F#3","midi":54,"time":"256.23","velocity":0.1968503937007874,"duration":"0.03"},{"name":"A3","midi":57,"time":"256.26","velocity":0.23622047244094488,"duration":"0.08"},{"name":"D4","midi":62,"time":"256.26","velocity":0.4566929133858268,"duration":"0.30"},{"name":"B4","midi":71,"time":"256.28","velocity":0.25196850393700787,"duration":"0.13"},{"name":"F#7","midi":102,"time":"256.29","velocity":0.07874015748031496,"duration":"0.03"},{"name":"F#6","midi":90,"time":"256.33","velocity":0.2992125984251969,"duration":"0.77"},{"name":"E5","midi":76,"time":"256.34","velocity":0.25196850393700787,"duration":"0.16"},{"name":"A5","midi":81,"time":"256.36","velocity":0.4094488188976378,"duration":"0.53"},{"name":"A4","midi":69,"time":"256.38","velocity":0.2440944881889764,"duration":"0.09"},{"name":"C#6","midi":85,"time":"256.38","velocity":0.2204724409448819,"duration":"0.20"},{"name":"D3","midi":50,"time":"256.40","velocity":0.2047244094488189,"duration":"0.05"},{"name":"D3","midi":50,"time":"256.45","velocity":0.2125984251968504,"duration":"0.10"},{"name":"B4","midi":71,"time":"256.49","velocity":0.11023622047244094,"duration":"0.06"},{"name":"C#5","midi":73,"time":"256.50","velocity":0.33858267716535434,"duration":"0.06"},{"name":"C7","midi":96,"time":"256.50","velocity":0.1732283464566929,"duration":"0.08"},{"name":"E6","midi":88,"time":"256.55","velocity":0.18110236220472442,"duration":"0.14"},{"name":"D5","midi":74,"time":"256.56","velocity":0.3858267716535433,"duration":"0.20"},{"name":"A4","midi":69,"time":"256.57","velocity":0.31496062992125984,"duration":"0.16"},{"name":"F7","midi":101,"time":"256.57","velocity":0.12598425196850394,"duration":"0.06"},{"name":"D#4","midi":63,"time":"256.60","velocity":0.2992125984251969,"duration":"0.02"},{"name":"D3","midi":50,"time":"256.62","velocity":0.14173228346456693,"duration":"0.03"},{"name":"C#6","midi":85,"time":"256.62","velocity":0.09448818897637795,"duration":"0.07"},{"name":"D4","midi":62,"time":"256.63","velocity":0.4330708661417323,"duration":"0.19"},{"name":"E5","midi":76,"time":"256.66","velocity":0.2204724409448819,"duration":"0.27"},{"name":"D3","midi":50,"time":"256.71","velocity":0.18110236220472442,"duration":"0.05"},{"name":"A4","midi":69,"time":"256.74","velocity":0.25984251968503935,"duration":"0.06"},{"name":"C#5","midi":73,"time":"256.74","velocity":0.1889763779527559,"duration":"0.05"},{"name":"E7","midi":100,"time":"256.77","velocity":0.08661417322834646,"duration":"0.05"},{"name":"D3","midi":50,"time":"256.80","velocity":0.25196850393700787,"duration":"0.14"},{"name":"A4","midi":69,"time":"256.81","velocity":0.1889763779527559,"duration":"0.06"},{"name":"D4","midi":62,"time":"256.83","velocity":0.3700787401574803,"duration":"0.23"},{"name":"A#3","midi":58,"time":"256.87","velocity":0.25984251968503935,"duration":"0.03"},{"name":"E7","midi":100,"time":"256.87","velocity":0.08661417322834646,"duration":"0.03"},{"name":"A5","midi":81,"time":"256.91","velocity":0.3937007874015748,"duration":"0.52"},{"name":"A4","midi":69,"time":"256.92","velocity":0.2755905511811024,"duration":"0.06"},{"name":"C#5","midi":73,"time":"256.92","velocity":0.4566929133858268,"duration":"0.85"},{"name":"G#6","midi":92,"time":"256.92","velocity":0.11023622047244094,"duration":"0.08"},{"name":"E6","midi":88,"time":"256.93","velocity":0.2047244094488189,"duration":"0.29"},{"name":"C#7","midi":97,"time":"256.93","velocity":0.14960629921259844,"duration":"0.23"},{"name":"F#3","midi":54,"time":"256.95","velocity":0.14173228346456693,"duration":"0.03"},{"name":"E5","midi":76,"time":"256.95","velocity":0.2204724409448819,"duration":"0.28"},{"name":"F#3","midi":54,"time":"257.00","velocity":0.18110236220472442,"duration":"0.05"},{"name":"D6","midi":86,"time":"257.02","velocity":0.15748031496062992,"duration":"0.07"},{"name":"D2","midi":38,"time":"257.05","velocity":0.09448818897637795,"duration":"0.07"},{"name":"D4","midi":62,"time":"257.07","velocity":0.31496062992125984,"duration":"0.08"},{"name":"A4","midi":69,"time":"257.10","velocity":0.18110236220472442,"duration":"0.07"},{"name":"D6","midi":86,"time":"257.13","velocity":0.12598425196850394,"duration":"0.03"},{"name":"F#3","midi":54,"time":"257.14","velocity":0.12598425196850394,"duration":"0.05"},{"name":"B5","midi":83,"time":"257.15","velocity":0.11811023622047244,"duration":"0.03"},{"name":"D2","midi":38,"time":"257.16","velocity":0.09448818897637795,"duration":"0.05"},{"name":"C#4","midi":61,"time":"257.17","velocity":0.4015748031496063,"duration":"0.07"},{"name":"D6","midi":86,"time":"257.19","velocity":0.10236220472440945,"duration":"0.07"},{"name":"D2","midi":38,"time":"257.22","velocity":0.12598425196850394,"duration":"0.26"},{"name":"F#3","midi":54,"time":"257.22","velocity":0.2440944881889764,"duration":"0.03"},{"name":"A4","midi":69,"time":"257.22","velocity":0.18110236220472442,"duration":"0.06"},{"name":"D4","midi":62,"time":"257.23","velocity":0.2992125984251969,"duration":"0.02"},{"name":"E5","midi":76,"time":"257.24","velocity":0.1968503937007874,"duration":"0.08"},{"name":"C#4","midi":61,"time":"257.26","velocity":0.4251968503937008,"duration":"0.05"},{"name":"D3","midi":50,"time":"257.27","velocity":0.25196850393700787,"duration":"0.03"},{"name":"F#3","midi":54,"time":"257.27","velocity":0.2440944881889764,"duration":"0.02"},{"name":"A4","midi":69,"time":"257.29","velocity":0.2677165354330709,"duration":"0.14"},{"name":"G#6","midi":92,"time":"257.29","velocity":0.14173228346456693,"duration":"0.06"},{"name":"F#4","midi":66,"time":"257.30","velocity":0.5748031496062992,"duration":"0.36"},{"name":"D3","midi":50,"time":"257.31","velocity":0.3543307086614173,"duration":"0.72"},{"name":"C#4","midi":61,"time":"257.31","velocity":0.49606299212598426,"duration":"0.08"},{"name":"E5","midi":76,"time":"257.35","velocity":0.25196850393700787,"duration":"0.56"},{"name":"G#5","midi":80,"time":"257.37","velocity":0.2992125984251969,"duration":"0.17"},{"name":"D4","midi":62,"time":"257.40","velocity":0.4566929133858268,"duration":"0.08"},{"name":"C6","midi":84,"time":"257.44","velocity":0.07086614173228346,"duration":"0.03"},{"name":"F7","midi":101,"time":"257.44","velocity":0.07874015748031496,"duration":"0.06"},{"name":"A3","midi":57,"time":"257.45","velocity":0.18110236220472442,"duration":"0.03"},{"name":"A5","midi":81,"time":"257.47","velocity":0.30708661417322836,"duration":"0.05"},{"name":"C#4","midi":61,"time":"257.49","velocity":0.4330708661417323,"duration":"0.05"},{"name":"A3","midi":57,"time":"257.50","velocity":0.13385826771653545,"duration":"0.05"},{"name":"D6","midi":86,"time":"257.51","velocity":0.11023622047244094,"duration":"0.06"},{"name":"A5","midi":81,"time":"257.52","velocity":0.28346456692913385,"duration":"0.10"},{"name":"C#4","midi":61,"time":"257.55","velocity":0.5196850393700787,"duration":"0.87"},{"name":"A4","midi":69,"time":"257.56","velocity":0.2677165354330709,"duration":"0.14"},{"name":"G#6","midi":92,"time":"257.57","velocity":0.11811023622047244,"duration":"0.07"},{"name":"A3","midi":57,"time":"257.62","velocity":0.1968503937007874,"duration":"0.06"},{"name":"G#5","midi":80,"time":"257.62","velocity":0.3464566929133858,"duration":"0.19"},{"name":"F#6","midi":90,"time":"257.63","velocity":0.31496062992125984,"duration":"0.22"},{"name":"A6","midi":93,"time":"257.63","velocity":0.1968503937007874,"duration":"0.34"},{"name":"A5","midi":81,"time":"257.65","velocity":0.3543307086614173,"duration":"0.19"},{"name":"F#4","midi":66,"time":"257.67","velocity":0.6614173228346457,"duration":"0.72"},{"name":"C6","midi":84,"time":"257.67","velocity":0.11023622047244094,"duration":"0.13"},{"name":"A4","midi":69,"time":"257.71","velocity":0.2755905511811024,"duration":"0.20"},{"name":"D5","midi":74,"time":"257.76","velocity":0.25196850393700787,"duration":"0.07"},{"name":"F7","midi":101,"time":"257.77","velocity":0.14173228346456693,"duration":"0.09"},{"name":"A3","midi":57,"time":"257.83","velocity":0.14960629921259844,"duration":"0.12"},{"name":"G#5","midi":80,"time":"257.83","velocity":0.2992125984251969,"duration":"0.03"},{"name":"B6","midi":95,"time":"257.86","velocity":0.09448818897637795,"duration":"0.07"},{"name":"G#5","midi":80,"time":"257.87","velocity":0.3228346456692913,"duration":"0.12"},{"name":"D2","midi":38,"time":"257.90","velocity":0.08661417322834646,"duration":"0.07"},{"name":"D5","midi":74,"time":"257.91","velocity":0.30708661417322836,"duration":"0.05"},{"name":"F6","midi":89,"time":"257.91","velocity":0.11811023622047244,"duration":"0.03"},{"name":"A4","midi":69,"time":"257.93","velocity":0.29133858267716534,"duration":"0.10"},{"name":"E5","midi":76,"time":"257.94","velocity":0.2125984251968504,"duration":"0.23"},{"name":"B6","midi":95,"time":"257.97","velocity":0.14173228346456693,"duration":"0.05"},{"name":"A5","midi":81,"time":"257.98","velocity":0.3543307086614173,"duration":"0.12"},{"name":"D5","midi":74,"time":"258.00","velocity":0.2440944881889764,"duration":"0.03"},{"name":"G#6","midi":92,"time":"258.02","velocity":0.11023622047244094,"duration":"0.06"},{"name":"A3","midi":57,"time":"258.03","velocity":0.23622047244094488,"duration":"0.08"},{"name":"E6","midi":88,"time":"258.03","velocity":0.2204724409448819,"duration":"0.23"},{"name":"F#6","midi":90,"time":"258.03","velocity":0.2992125984251969,"duration":"0.22"},{"name":"D3","midi":50,"time":"258.05","velocity":0.28346456692913385,"duration":"0.12"},{"name":"G#5","midi":80,"time":"258.05","velocity":0.3228346456692913,"duration":"0.10"},{"name":"D6","midi":86,"time":"258.06","velocity":0.18110236220472442,"duration":"0.40"},{"name":"F7","midi":101,"time":"258.06","velocity":0.11811023622047244,"duration":"0.03"},{"name":"A5","midi":81,"time":"258.13","velocity":0.30708661417322836,"duration":"0.08"},{"name":"F3","midi":53,"time":"258.17","velocity":0.1889763779527559,"duration":"0.03"},{"name":"G#5","midi":80,"time":"258.21","velocity":0.33858267716535434,"duration":"0.20"},{"name":"F3","midi":53,"time":"258.23","velocity":0.11023622047244094,"duration":"0.03"},{"name":"D5","midi":74,"time":"258.24","velocity":0.33070866141732286,"duration":"0.05"},{"name":"A5","midi":81,"time":"258.26","velocity":0.2677165354330709,"duration":"0.07"},{"name":"A4","midi":69,"time":"258.27","velocity":0.12598425196850394,"duration":"0.08"},{"name":"D3","midi":50,"time":"258.31","velocity":0.12598425196850394,"duration":"0.07"},{"name":"E5","midi":76,"time":"258.31","velocity":0.11023622047244094,"duration":"0.03"},{"name":"D5","midi":74,"time":"258.35","velocity":0.36220472440944884,"duration":"0.06"},{"name":"A4","midi":69,"time":"258.38","velocity":0.3700787401574803,"duration":"0.79"},{"name":"D3","midi":50,"time":"258.40","velocity":0.2677165354330709,"duration":"0.13"},{"name":"G4","midi":67,"time":"258.40","velocity":0.3700787401574803,"duration":"0.02"},{"name":"A5","midi":81,"time":"258.41","velocity":0.41732283464566927,"duration":"1.55"},{"name":"A#6","midi":94,"time":"258.41","velocity":0.13385826771653545,"duration":"0.05"},{"name":"F#4","midi":66,"time":"258.42","velocity":0.6377952755905512,"duration":"1.34"},{"name":"E6","midi":88,"time":"258.42","velocity":0.18110236220472442,"duration":"0.14"},{"name":"C#4","midi":61,"time":"258.43","velocity":0.4015748031496063,"duration":"0.06"},{"name":"G#5","midi":80,"time":"258.43","velocity":0.10236220472440945,"duration":"0.03"},{"name":"A3","midi":57,"time":"258.45","velocity":0.33070866141732286,"duration":"0.13"},{"name":"D5","midi":74,"time":"258.47","velocity":0.3464566929133858,"duration":"0.03"},{"name":"D#4","midi":63,"time":"258.49","velocity":0.3228346456692913,"duration":"0.02"},{"name":"C#6","midi":85,"time":"258.49","velocity":0.15748031496062992,"duration":"0.12"},{"name":"C#5","midi":73,"time":"258.50","velocity":0.36220472440944884,"duration":"0.09"},{"name":"D4","midi":62,"time":"258.51","velocity":0.4094488188976378,"duration":"0.19"},{"name":"D6","midi":86,"time":"258.52","velocity":0.1889763779527559,"duration":"0.06"},{"name":"D3","midi":50,"time":"258.53","velocity":0.3228346456692913,"duration":"0.26"},{"name":"E5","midi":76,"time":"258.55","velocity":0.13385826771653545,"duration":"0.16"},{"name":"C6","midi":84,"time":"258.56","velocity":0.09448818897637795,"duration":"0.03"},{"name":"A3","midi":57,"time":"258.59","velocity":0.30708661417322836,"duration":"0.02"},{"name":"A3","midi":57,"time":"258.63","velocity":0.29133858267716534,"duration":"0.02"},{"name":"A#3","midi":58,"time":"258.65","velocity":0.33070866141732286,"duration":"0.02"},{"name":"C#5","midi":73,"time":"258.69","velocity":0.25196850393700787,"duration":"0.03"},{"name":"B3","midi":59,"time":"258.71","velocity":0.33858267716535434,"duration":"0.20"},{"name":"D5","midi":74,"time":"258.71","velocity":0.2283464566929134,"duration":"0.02"},{"name":"D5","midi":74,"time":"258.74","velocity":0.30708661417322836,"duration":"0.14"},{"name":"E6","midi":88,"time":"258.74","velocity":0.2125984251968504,"duration":"0.21"},{"name":"E5","midi":76,"time":"258.78","velocity":0.18110236220472442,"duration":"0.15"},{"name":"C#6","midi":85,"time":"258.79","velocity":0.16535433070866143,"duration":"0.07"},{"name":"D3","midi":50,"time":"258.80","velocity":0.2047244094488189,"duration":"0.03"},{"name":"D3","midi":50,"time":"258.87","velocity":0.2677165354330709,"duration":"0.06"},{"name":"D4","midi":62,"time":"258.87","velocity":0.3937007874015748,"duration":"0.30"},{"name":"C#5","midi":73,"time":"258.87","velocity":0.2440944881889764,"duration":"0.03"},{"name":"C#5","midi":73,"time":"258.92","velocity":0.2440944881889764,"duration":"0.02"},{"name":"D3","midi":50,"time":"258.94","velocity":0.2755905511811024,"duration":"0.05"},{"name":"A3","midi":57,"time":"258.97","velocity":0.33070866141732286,"duration":"0.03"},{"name":"E5","midi":76,"time":"258.99","velocity":0.2677165354330709,"duration":"0.23"},{"name":"D3","midi":50,"time":"259.00","velocity":0.1968503937007874,"duration":"0.05"},{"name":"A3","midi":57,"time":"259.01","velocity":0.3228346456692913,"duration":"0.10"},{"name":"D2","midi":38,"time":"259.02","velocity":0.07874015748031496,"duration":"0.16"},{"name":"C#6","midi":85,"time":"259.02","velocity":0.16535433070866143,"duration":"0.06"},{"name":"C6","midi":84,"time":"259.03","velocity":0.11023622047244094,"duration":"0.08"},{"name":"D3","midi":50,"time":"259.12","velocity":0.15748031496062992,"duration":"0.06"},{"name":"C#6","midi":85,"time":"259.12","velocity":0.2125984251968504,"duration":"0.62"},{"name":"A3","midi":57,"time":"259.13","velocity":0.2283464566929134,"duration":"0.02"},{"name":"C#5","midi":73,"time":"259.15","velocity":0.11811023622047244,"duration":"0.05"},{"name":"D3","midi":50,"time":"259.19","velocity":0.09448818897637795,"duration":"0.03"},{"name":"D4","midi":62,"time":"259.20","velocity":0.4409448818897638,"duration":"0.17"},{"name":"A4","midi":69,"time":"259.20","velocity":0.33858267716535434,"duration":"0.28"},{"name":"B3","midi":59,"time":"259.22","velocity":0.30708661417322836,"duration":"0.02"},{"name":"E6","midi":88,"time":"259.26","velocity":0.14960629921259844,"duration":"0.06"},{"name":"B3","midi":59,"time":"259.28","velocity":0.47244094488188976,"duration":"0.72"},{"name":"E5","midi":76,"time":"259.29","velocity":0.25196850393700787,"duration":"0.30"},{"name":"F#3","midi":54,"time":"259.30","velocity":0.1968503937007874,"duration":"0.03"},{"name":"D3","midi":50,"time":"259.38","velocity":0.11811023622047244,"duration":"0.05"},{"name":"C#5","midi":73,"time":"259.40","velocity":0.1732283464566929,"duration":"0.05"},{"name":"D4","midi":62,"time":"259.41","velocity":0.30708661417322836,"duration":"0.05"},{"name":"C6","midi":84,"time":"259.42","velocity":0.10236220472440945,"duration":"0.09"},{"name":"A4","midi":69,"time":"259.53","velocity":0.3858267716535433,"duration":"0.38"},{"name":"C#5","midi":73,"time":"259.53","velocity":0.14960629921259844,"duration":"0.03"},{"name":"D3","midi":50,"time":"259.55","velocity":0.2125984251968504,"duration":"0.08"},{"name":"C6","midi":84,"time":"259.56","velocity":0.08661417322834646,"duration":"0.05"},{"name":"C#2","midi":37,"time":"259.59","velocity":0.08661417322834646,"duration":"0.03"},{"name":"D4","midi":62,"time":"259.59","velocity":0.3464566929133858,"duration":"0.03"},{"name":"C6","midi":84,"time":"259.62","velocity":0.12598425196850394,"duration":"0.05"},{"name":"D3","midi":50,"time":"259.65","velocity":0.23622047244094488,"duration":"0.06"},{"name":"E5","midi":76,"time":"259.65","velocity":0.2204724409448819,"duration":"0.07"},{"name":"F3","midi":53,"time":"259.71","velocity":0.2283464566929134,"duration":"0.03"},{"name":"D4","midi":62,"time":"259.71","velocity":0.3228346456692913,"duration":"0.02"},{"name":"E6","midi":88,"time":"259.72","velocity":0.11023622047244094,"duration":"0.20"},{"name":"C#5","midi":73,"time":"259.76","velocity":0.1732283464566929,"duration":"0.06"},{"name":"G4","midi":67,"time":"259.77","velocity":0.33070866141732286,"duration":"0.03"},{"name":"E5","midi":76,"time":"259.78","velocity":0.18110236220472442,"duration":"0.26"},{"name":"D4","midi":62,"time":"259.79","velocity":0.31496062992125984,"duration":"0.05"},{"name":"F#4","midi":66,"time":"259.80","velocity":0.5984251968503937,"duration":"0.44"},{"name":"D6","midi":86,"time":"259.81","velocity":0.11023622047244094,"duration":"0.06"},{"name":"C#6","midi":85,"time":"259.83","velocity":0.15748031496062992,"duration":"0.05"},{"name":"D5","midi":74,"time":"259.87","velocity":0.30708661417322836,"duration":"0.27"},{"name":"G3","midi":55,"time":"259.88","velocity":0.2283464566929134,"duration":"0.02"},{"name":"B5","midi":83,"time":"259.92","velocity":0.33858267716535434,"duration":"0.56"},{"name":"C#6","midi":85,"time":"259.92","velocity":0.23622047244094488,"duration":"0.16"},{"name":"D#4","midi":63,"time":"259.93","velocity":0.33858267716535434,"duration":"0.02"},{"name":"F#6","midi":90,"time":"259.93","velocity":0.44881889763779526,"duration":"1.55"},{"name":"D4","midi":62,"time":"259.95","velocity":0.33858267716535434,"duration":"0.02"},{"name":"A5","midi":81,"time":"259.97","velocity":0.2125984251968504,"duration":"0.07"},{"name":"D3","midi":50,"time":"259.98","velocity":0.25196850393700787,"duration":"0.16"},{"name":"B3","midi":59,"time":"260.01","velocity":0.3858267716535433,"duration":"0.05"},{"name":"G#5","midi":80,"time":"260.01","velocity":0.07874015748031496,"duration":"0.03"},{"name":"D4","midi":62,"time":"260.05","velocity":0.3464566929133858,"duration":"0.06"},{"name":"G#4","midi":68,"time":"260.05","velocity":0.3543307086614173,"duration":"0.02"},{"name":"E6","midi":88,"time":"260.06","velocity":0.18110236220472442,"duration":"0.08"},{"name":"A4","midi":69,"time":"260.07","velocity":0.25984251968503935,"duration":"0.03"},{"name":"B4","midi":71,"time":"260.09","velocity":0.36220472440944884,"duration":"0.16"},{"name":"G#4","midi":68,"time":"260.10","velocity":0.25984251968503935,"duration":"0.02"},{"name":"C#6","midi":85,"time":"260.10","velocity":0.1968503937007874,"duration":"0.17"},{"name":"A3","midi":57,"time":"260.13","velocity":0.2992125984251969,"duration":"0.26"},{"name":"E5","midi":76,"time":"260.13","velocity":0.2047244094488189,"duration":"0.08"},{"name":"C#2","midi":37,"time":"260.15","velocity":0.14173228346456693,"duration":"0.03"},{"name":"D3","midi":50,"time":"260.15","velocity":0.25984251968503935,"duration":"0.05"},{"name":"D4","midi":62,"time":"260.15","velocity":0.3700787401574803,"duration":"0.08"},{"name":"A4","midi":69,"time":"260.19","velocity":0.33070866141732286,"duration":"0.03"},{"name":"D3","midi":50,"time":"260.21","velocity":0.2992125984251969,"duration":"0.09"},{"name":"C#5","midi":73,"time":"260.21","velocity":0.25984251968503935,"duration":"0.08"},{"name":"E6","midi":88,"time":"260.21","velocity":0.07874015748031496,"duration":"0.05"},{"name":"G#5","midi":80,"time":"260.22","velocity":0.09448818897637795,"duration":"0.03"},{"name":"D2","midi":38,"time":"260.23","velocity":0.15748031496062992,"duration":"0.23"},{"name":"E5","midi":76,"time":"260.23","velocity":0.16535433070866143,"duration":"0.06"},{"name":"F4","midi":65,"time":"260.24","velocity":0.3464566929133858,"duration":"0.02"},{"name":"A5","midi":81,"time":"260.26","velocity":0.16535433070866143,"duration":"0.17"},{"name":"D4","midi":62,"time":"260.27","velocity":0.3937007874015748,"duration":"0.28"},{"name":"F#4","midi":66,"time":"260.27","velocity":0.6692913385826772,"duration":"1.21"},{"name":"B4","midi":71,"time":"260.27","velocity":0.3937007874015748,"duration":"0.38"},{"name":"D3","midi":50,"time":"260.31","velocity":0.28346456692913385,"duration":"0.05"},{"name":"E5","midi":76,"time":"260.31","velocity":0.16535433070866143,"duration":"0.15"},{"name":"C#6","midi":85,"time":"260.31","velocity":0.1889763779527559,"duration":"0.15"},{"name":"F7","midi":101,"time":"260.37","velocity":0.11023622047244094,"duration":"0.06"},{"name":"A4","midi":69,"time":"260.38","velocity":0.36220472440944884,"duration":"0.03"},{"name":"A3","midi":57,"time":"260.40","velocity":0.3464566929133858,"duration":"0.05"},{"name":"D3","midi":50,"time":"260.42","velocity":0.2677165354330709,"duration":"0.05"},{"name":"C#5","midi":73,"time":"260.44","velocity":0.30708661417322836,"duration":"0.05"},{"name":"A#3","midi":58,"time":"260.47","velocity":0.29133858267716534,"duration":"0.02"},{"name":"D3","midi":50,"time":"260.48","velocity":0.30708661417322836,"duration":"0.03"},{"name":"C#7","midi":97,"time":"260.48","velocity":0.11023622047244094,"duration":"0.05"},{"name":"E5","midi":76,"time":"260.49","velocity":0.2677165354330709,"duration":"0.35"},{"name":"A#3","midi":58,"time":"260.50","velocity":0.2755905511811024,"duration":"0.03"},{"name":"G5","midi":79,"time":"260.50","velocity":0.1732283464566929,"duration":"0.03"},{"name":"A5","midi":81,"time":"260.50","velocity":0.14173228346456693,"duration":"0.08"},{"name":"D3","midi":50,"time":"260.52","velocity":0.4251968503937008,"duration":"0.09"},{"name":"B3","midi":59,"time":"260.53","velocity":0.29133858267716534,"duration":"0.05"},{"name":"D2","midi":38,"time":"260.55","velocity":0.1732283464566929,"duration":"0.23"},{"name":"D#6","midi":87,"time":"260.55","velocity":0.11811023622047244,"duration":"0.03"},{"name":"C#6","midi":85,"time":"260.56","velocity":0.1968503937007874,"duration":"0.12"},{"name":"D4","midi":62,"time":"260.57","velocity":0.4409448818897638,"duration":"0.14"},{"name":"A4","midi":69,"time":"260.59","velocity":0.25196850393700787,"duration":"0.03"},{"name":"G#5","midi":80,"time":"260.59","velocity":0.11811023622047244,"duration":"0.05"},{"name":"C#5","midi":73,"time":"260.62","velocity":0.3543307086614173,"duration":"0.10"},{"name":"D3","midi":50,"time":"260.63","velocity":0.4330708661417323,"duration":"0.20"},{"name":"A4","midi":69,"time":"260.64","velocity":0.25984251968503935,"duration":"0.03"},{"name":"C6","midi":84,"time":"260.65","velocity":0.14960629921259844,"duration":"0.05"},{"name":"A#3","midi":58,"time":"260.67","velocity":0.3779527559055118,"duration":"0.02"},{"name":"A#5","midi":82,"time":"260.67","velocity":0.12598425196850394,"duration":"0.03"},{"name":"D6","midi":86,"time":"260.67","velocity":0.14960629921259844,"duration":"0.05"},{"name":"E6","midi":88,"time":"260.67","velocity":0.4094488188976378,"duration":"0.97"},{"name":"C#7","midi":97,"time":"260.67","velocity":0.16535433070866143,"duration":"0.13"},{"name":"G#5","midi":80,"time":"260.69","velocity":0.13385826771653545,"duration":"0.03"},{"name":"B3","midi":59,"time":"260.70","velocity":0.3700787401574803,"duration":"0.02"},{"name":"B4","midi":71,"time":"260.70","velocity":0.4251968503937008,"duration":"0.41"},{"name":"B5","midi":83,"time":"260.71","velocity":0.4330708661417323,"duration":"0.50"},{"name":"F7","midi":101,"time":"260.71","velocity":0.11023622047244094,"duration":"0.06"},{"name":"A#3","midi":58,"time":"260.72","velocity":0.3228346456692913,"duration":"0.02"},{"name":"D5","midi":74,"time":"260.72","velocity":0.3779527559055118,"duration":"0.07"},{"name":"G#5","midi":80,"time":"260.74","velocity":0.08661417322834646,"duration":"0.05"},{"name":"G6","midi":91,"time":"260.74","velocity":0.11023622047244094,"duration":"0.07"},{"name":"D4","midi":62,"time":"260.76","velocity":0.4409448818897638,"duration":"0.09"},{"name":"G#6","midi":92,"time":"260.78","velocity":0.12598425196850394,"duration":"0.09"},{"name":"D2","midi":38,"time":"260.79","velocity":0.10236220472440945,"duration":"0.05"},{"name":"A4","midi":69,"time":"260.80","velocity":0.3779527559055118,"duration":"0.02"},{"name":"D#7","midi":99,"time":"260.80","velocity":0.15748031496062992,"duration":"0.03"},{"name":"C#5","midi":73,"time":"260.81","velocity":0.2677165354330709,"duration":"0.02"},{"name":"D#6","midi":87,"time":"260.81","velocity":0.08661417322834646,"duration":"0.05"},{"name":"D5","midi":74,"time":"260.83","velocity":0.5118110236220472,"duration":"0.22"},{"name":"A5","midi":81,"time":"260.83","velocity":0.16535433070866143,"duration":"0.27"},{"name":"D3","midi":50,"time":"260.84","velocity":0.47244094488188976,"duration":"0.35"},{"name":"G#5","midi":80,"time":"260.85","velocity":0.14173228346456693,"duration":"0.07"},{"name":"E5","midi":76,"time":"260.86","velocity":0.29133858267716534,"duration":"0.07"},{"name":"C6","midi":84,"time":"260.86","velocity":0.2283464566929134,"duration":"0.06"},{"name":"D4","midi":62,"time":"260.88","velocity":0.47244094488188976,"duration":"0.27"},{"name":"C#6","midi":85,"time":"260.88","velocity":0.25984251968503935,"duration":"0.17"},{"name":"D#6","midi":87,"time":"260.88","velocity":0.1732283464566929,"duration":"0.03"},{"name":"A4","midi":69,"time":"260.93","velocity":0.3779527559055118,"duration":"0.09"},{"name":"A#6","midi":94,"time":"260.94","velocity":0.11811023622047244,"duration":"0.07"},{"name":"D#7","midi":99,"time":"260.94","velocity":0.09448818897637795,"duration":"0.05"},{"name":"B3","midi":59,"time":"260.97","velocity":0.3858267716535433,"duration":"0.02"},{"name":"E5","midi":76,"time":"260.98","velocity":0.08661417322834646,"duration":"0.03"},{"name":"D#6","midi":87,"time":"260.98","velocity":0.14960629921259844,"duration":"0.08"},{"name":"G#6","midi":92,"time":"260.98","velocity":0.1732283464566929,"duration":"0.09"},{"name":"G5","midi":79,"time":"260.99","velocity":0.14173228346456693,"duration":"0.03"},{"name":"C7","midi":96,"time":"261.00","velocity":0.11811023622047244,"duration":"0.05"},{"name":"D2","midi":38,"time":"261.01","velocity":0.13385826771653545,"duration":"0.06"},{"name":"E5","midi":76,"time":"261.02","velocity":0.47244094488188976,"duration":"0.73"},{"name":"A4","midi":69,"time":"261.05","velocity":0.44881889763779526,"duration":"0.20"},{"name":"C#5","midi":73,"time":"261.05","velocity":0.3779527559055118,"duration":"0.03"},{"name":"G6","midi":91,"time":"261.05","velocity":0.15748031496062992,"duration":"0.06"},{"name":"F7","midi":101,"time":"261.05","velocity":0.14173228346456693,"duration":"0.12"},{"name":"A#6","midi":94,"time":"261.06","velocity":0.09448818897637795,"duration":"0.05"},{"name":"C#7","midi":97,"time":"261.07","velocity":0.12598425196850394,"duration":"0.12"},{"name":"D5","midi":74,"time":"261.08","velocity":0.5511811023622047,"duration":"0.35"},{"name":"C#6","midi":85,"time":"261.08","velocity":0.3464566929133858,"duration":"0.29"},{"name":"G#6","midi":92,"time":"261.08","velocity":0.14173228346456693,"duration":"0.08"},{"name":"D#6","midi":87,"time":"261.09","velocity":0.13385826771653545,"duration":"0.05"},{"name":"C7","midi":96,"time":"261.09","velocity":0.14960629921259844,"duration":"0.05"},{"name":"B3","midi":59,"time":"261.12","velocity":0.33858267716535434,"duration":"0.02"},{"name":"C#2","midi":37,"time":"261.13","velocity":0.07874015748031496,"duration":"0.03"},{"name":"A6","midi":93,"time":"261.13","velocity":0.3543307086614173,"duration":"0.49"},{"name":"G6","midi":91,"time":"261.14","velocity":0.08661417322834646,"duration":"0.05"},{"name":"D#7","midi":99,"time":"261.15","velocity":0.08661417322834646,"duration":"0.03"},{"name":"G7","midi":103,"time":"261.15","velocity":0.10236220472440945,"duration":"0.08"},{"name":"D4","midi":62,"time":"261.16","velocity":0.5118110236220472,"duration":"0.17"},{"name":"G#5","midi":80,"time":"261.16","velocity":0.2047244094488189,"duration":"0.07"},{"name":"D#6","midi":87,"time":"261.17","velocity":0.15748031496062992,"duration":"0.03"},{"name":"C7","midi":96,"time":"261.17","velocity":0.18110236220472442,"duration":"0.10"},{"name":"F#3","midi":54,"time":"261.20","velocity":0.36220472440944884,"duration":"0.05"},{"name":"C#7","midi":97,"time":"261.20","velocity":0.4094488188976378,"duration":"0.56"},{"name":"B4","midi":71,"time":"261.21","velocity":0.47244094488188976,"duration":"0.20"},{"name":"G6","midi":91,"time":"261.21","velocity":0.10236220472440945,"duration":"0.03"},{"name":"D#7","midi":99,"time":"261.21","velocity":0.2125984251968504,"duration":"0.50"},{"name":"B5","midi":83,"time":"261.22","velocity":0.49606299212598426,"duration":"0.41"},{"name":"G5","midi":79,"time":"261.23","velocity":0.1968503937007874,"duration":"0.03"},{"name":"G#6","midi":92,"time":"261.23","velocity":0.4251968503937008,"duration":"1.02"},{"name":"A#6","midi":94,"time":"261.23","velocity":0.2440944881889764,"duration":"0.34"},{"name":"D#6","midi":87,"time":"261.24","velocity":0.18110236220472442,"duration":"0.05"},{"name":"F#3","midi":54,"time":"261.26","velocity":0.4645669291338583,"duration":"0.07"},{"name":"A4","midi":69,"time":"261.26","velocity":0.4645669291338583,"duration":"0.08"},{"name":"B3","midi":59,"time":"261.27","velocity":0.5039370078740157,"duration":"0.14"},{"name":"F6","midi":89,"time":"261.27","velocity":0.11811023622047244,"duration":"0.06"},{"name":"G7","midi":103,"time":"261.27","velocity":0.07086614173228346,"duration":"0.05"},{"name":"G5","midi":79,"time":"261.28","velocity":0.15748031496062992,"duration":"0.03"},{"name":"A#5","midi":82,"time":"261.29","velocity":0.2755905511811024,"duration":"0.02"},{"name":"D#6","midi":87,"time":"261.30","velocity":0.28346456692913385,"duration":"0.24"},{"name":"G6","midi":91,"time":"261.31","velocity":0.3858267716535433,"duration":"0.35"},{"name":"C7","midi":96,"time":"261.31","velocity":0.2677165354330709,"duration":"0.20"},{"name":"G5","midi":79,"time":"261.34","velocity":0.28346456692913385,"duration":"0.06"},{"name":"F6","midi":89,"time":"261.34","velocity":0.3700787401574803,"duration":"0.19"},{"name":"A2","midi":45,"time":"261.35","velocity":0.3858267716535433,"duration":"0.03"},{"name":"F3","midi":53,"time":"261.35","velocity":0.5826771653543307,"duration":"0.02"},{"name":"F#3","midi":54,"time":"261.37","velocity":0.5669291338582677,"duration":"0.01"},{"name":"G#2","midi":44,"time":"261.38","velocity":0.5354330708661418,"duration":"0.02"},{"name":"G3","midi":55,"time":"261.38","velocity":0.4881889763779528,"duration":"0.02"},{"name":"G#5","midi":80,"time":"261.38","velocity":0.2992125984251969,"duration":"0.10"},{"name":"C6","midi":84,"time":"261.38","velocity":0.2440944881889764,"duration":"0.03"},{"name":"C#6","midi":85,"time":"261.38","velocity":0.4645669291338583,"duration":"0.94"},{"name":"E4","midi":64,"time":"261.40","velocity":0.41732283464566927,"duration":"0.03"},{"name":"F7","midi":101,"time":"261.40","velocity":0.4094488188976378,"duration":"1.03"},{"name":"F#3","midi":54,"time":"261.41","velocity":0.5511811023622047,"duration":"0.01"},{"name":"A#3","midi":58,"time":"261.41","velocity":0.49606299212598426,"duration":"0.02"},{"name":"A4","midi":69,"time":"261.41","velocity":0.41732283464566927,"duration":"0.07"},{"name":"F#2","midi":42,"time":"261.42","velocity":0.6614173228346457,"duration":"0.02"},{"name":"F3","midi":53,"time":"261.42","velocity":0.6377952755905512,"duration":"0.02"},{"name":"C#5","midi":73,"time":"261.42","velocity":0.5511811023622047,"duration":"0.49"},{"name":"D4","midi":62,"time":"261.43","velocity":0.2283464566929134,"duration":"0.02"},{"name":"F2","midi":41,"time":"261.44","velocity":0.6850393700787402,"duration":"0.02"},{"name":"E3","midi":52,"time":"261.44","velocity":0.5118110236220472,"duration":"0.01"},{"name":"A3","midi":57,"time":"261.44","velocity":0.5669291338582677,"duration":"0.02"},{"name":"D6","midi":86,"time":"261.44","velocity":0.2755905511811024,"duration":"0.05"},{"name":"F#1","midi":30,"time":"261.48","velocity":0.5118110236220472,"duration":"0.01"},{"name":"G#2","midi":44,"time":"261.48","velocity":0.6141732283464567,"duration":"0.01"},{"name":"E3","midi":52,"time":"261.48","velocity":0.5039370078740157,"duration":"0.03"},{"name":"A2","midi":45,"time":"261.49","velocity":0.6535433070866141,"duration":"0.35"},{"name":"A4","midi":69,"time":"261.49","velocity":0.4409448818897638,"duration":"0.24"},{"name":"C#4","midi":61,"time":"261.50","velocity":0.3700787401574803,"duration":"0.06"},{"name":"G4","midi":67,"time":"261.50","velocity":0.31496062992125984,"duration":"0.02"},{"name":"G#5","midi":80,"time":"261.50","velocity":0.3858267716535433,"duration":"0.24"},{"name":"D#3","midi":51,"time":"261.51","velocity":0.5196850393700787,"duration":"0.01"},{"name":"E3","midi":52,"time":"261.52","velocity":0.4566929133858268,"duration":"0.02"},{"name":"C7","midi":96,"time":"261.55","velocity":0.08661417322834646,"duration":"0.07"},{"name":"E3","midi":52,"time":"261.56","velocity":0.48031496062992124,"duration":"0.09"},{"name":"C#4","midi":61,"time":"261.57","velocity":0.3937007874015748,"duration":"0.03"},{"name":"F#4","midi":66,"time":"261.57","velocity":0.14960629921259844,"duration":"0.03"},{"name":"G#1","midi":32,"time":"261.58","velocity":0.4251968503937008,"duration":"0.02"},{"name":"F6","midi":89,"time":"261.59","velocity":0.23622047244094488,"duration":"0.07"},{"name":"A#6","midi":94,"time":"261.59","velocity":0.14960629921259844,"duration":"0.15"},{"name":"G4","midi":67,"time":"261.60","velocity":0.25984251968503935,"duration":"0.06"},{"name":"B4","midi":71,"time":"261.60","velocity":0.2283464566929134,"duration":"0.02"},{"name":"D#6","midi":87,"time":"261.60","velocity":0.11811023622047244,"duration":"0.21"},{"name":"C#4","midi":61,"time":"261.62","velocity":0.41732283464566927,"duration":"0.03"},{"name":"D7","midi":98,"time":"261.62","velocity":0.1889763779527559,"duration":"0.15"},{"name":"C7","midi":96,"time":"261.64","velocity":0.15748031496062992,"duration":"0.15"},{"name":"B5","midi":83,"time":"261.65","velocity":0.2755905511811024,"duration":"0.24"},{"name":"F#6","midi":90,"time":"261.65","velocity":0.11811023622047244,"duration":"0.03"},{"name":"E7","midi":100,"time":"261.65","velocity":0.2047244094488189,"duration":"0.13"},{"name":"E3","midi":52,"time":"261.66","velocity":0.4330708661417323,"duration":"0.02"},{"name":"C#4","midi":61,"time":"261.67","velocity":0.44881889763779526,"duration":"0.08"},{"name":"F6","midi":89,"time":"261.69","velocity":0.11811023622047244,"duration":"0.07"},{"name":"G6","midi":91,"time":"261.69","velocity":0.1889763779527559,"duration":"0.13"},{"name":"E3","midi":52,"time":"261.70","velocity":0.4330708661417323,"duration":"0.08"},{"name":"B4","midi":71,"time":"261.70","velocity":0.2283464566929134,"duration":"0.09"},{"name":"F#5","midi":78,"time":"261.70","velocity":0.2047244094488189,"duration":"0.03"},{"name":"G7","midi":103,"time":"261.73","velocity":0.2992125984251969,"duration":"0.24"},{"name":"F#5","midi":78,"time":"261.74","velocity":0.1732283464566929,"duration":"0.03"},{"name":"G#1","midi":32,"time":"261.76","velocity":0.3543307086614173,"duration":"0.02"},{"name":"G#4","midi":68,"time":"261.76","velocity":0.18110236220472442,"duration":"0.03"},{"name":"E6","midi":88,"time":"261.76","velocity":0.08661417322834646,"duration":"0.05"},{"name":"C#4","midi":61,"time":"261.77","velocity":0.48031496062992124,"duration":"0.05"},{"name":"G5","midi":79,"time":"261.77","velocity":0.14173228346456693,"duration":"0.03"},{"name":"F#6","midi":90,"time":"261.77","velocity":0.2283464566929134,"duration":"0.12"},{"name":"D#7","midi":99,"time":"261.77","velocity":0.2047244094488189,"duration":"0.34"},{"name":"E5","midi":76,"time":"261.78","velocity":0.2204724409448819,"duration":"0.03"},{"name":"G#5","midi":80,"time":"261.78","velocity":0.33858267716535434,"duration":"0.03"},{"name":"E3","midi":52,"time":"261.79","velocity":0.3700787401574803,"duration":"0.02"},{"name":"F#5","midi":78,"time":"261.79","velocity":0.2440944881889764,"duration":"0.05"},{"name":"F6","midi":89,"time":"261.79","velocity":0.23622047244094488,"duration":"0.06"},{"name":"E7","midi":100,"time":"261.80","velocity":0.2125984251968504,"duration":"0.19"},{"name":"E6","midi":88,"time":"261.81","velocity":0.3858267716535433,"duration":"0.13"},{"name":"D7","midi":98,"time":"261.81","velocity":0.1968503937007874,"duration":"0.05"},{"name":"E3","midi":52,"time":"261.83","velocity":0.5354330708661418,"duration":"0.36"},{"name":"G6","midi":91,"time":"261.83","velocity":0.18110236220472442,"duration":"0.03"},{"name":"A#6","midi":94,"time":"261.83","velocity":0.14173228346456693,"duration":"0.03"},{"name":"G#5","midi":80,"time":"261.84","velocity":0.41732283464566927,"duration":"0.23"},{"name":"C7","midi":96,"time":"261.84","velocity":0.2047244094488189,"duration":"0.10"},{"name":"A#2","midi":46,"time":"261.85","velocity":0.5118110236220472,"duration":"0.01"},{"name":"C#4","midi":61,"time":"261.85","velocity":0.5905511811023622,"duration":"0.33"},{"name":"B4","midi":71,"time":"261.85","velocity":0.2677165354330709,"duration":"0.02"},{"name":"F#5","midi":78,"time":"261.85","velocity":0.1968503937007874,"duration":"0.03"},{"name":"A2","midi":45,"time":"261.86","velocity":0.5669291338582677,"duration":"0.30"},{"name":"D#6","midi":87,"time":"261.86","velocity":0.16535433070866143,"duration":"0.14"},{"name":"A#6","midi":94,"time":"261.87","velocity":0.15748031496062992,"duration":"0.05"},{"name":"D7","midi":98,"time":"261.87","velocity":0.14173228346456693,"duration":"0.16"},{"name":"E5","midi":76,"time":"261.88","velocity":0.4409448818897638,"duration":"0.33"},{"name":"F6","midi":89,"time":"261.88","velocity":0.30708661417322836,"duration":"0.19"},{"name":"G6","midi":91,"time":"261.88","velocity":0.25196850393700787,"duration":"0.06"},{"name":"B4","midi":71,"time":"261.90","velocity":0.2440944881889764,"duration":"0.06"},{"name":"F#4","midi":66,"time":"261.91","velocity":0.2204724409448819,"duration":"0.03"},{"name":"F#6","midi":90,"time":"261.91","velocity":0.18110236220472442,"duration":"0.07"},{"name":"G5","midi":79,"time":"261.92","velocity":0.2440944881889764,"duration":"0.09"},{"name":"B6","midi":95,"time":"261.92","velocity":0.1889763779527559,"duration":"0.09"},{"name":"D5","midi":74,"time":"261.93","velocity":0.2755905511811024,"duration":"0.02"},{"name":"B5","midi":83,"time":"261.93","velocity":0.25984251968503935,"duration":"0.10"},{"name":"C7","midi":96,"time":"261.95","velocity":0.16535433070866143,"duration":"0.15"},{"name":"A#6","midi":94,"time":"261.97","velocity":0.1889763779527559,"duration":"0.16"},{"name":"G7","midi":103,"time":"261.99","velocity":0.25984251968503935,"duration":"0.26"},{"name":"B6","midi":95,"time":"262.02","velocity":0.3228346456692913,"duration":"0.70"},{"name":"G4","midi":67,"time":"262.03","velocity":0.2204724409448819,"duration":"0.03"},{"name":"D7","midi":98,"time":"262.05","velocity":0.1968503937007874,"duration":"0.22"},{"name":"G6","midi":91,"time":"262.07","velocity":0.30708661417322836,"duration":"0.38"},{"name":"F#5","midi":78,"time":"262.08","velocity":0.16535433070866143,"duration":"0.03"},{"name":"B5","midi":83,"time":"262.09","velocity":0.4094488188976378,"duration":"0.10"},{"name":"F6","midi":89,"time":"262.09","velocity":0.33858267716535434,"duration":"0.43"},{"name":"G#5","midi":80,"time":"262.10","velocity":0.48031496062992124,"duration":"0.10"},{"name":"G4","midi":67,"time":"262.12","velocity":0.12598425196850394,"duration":"0.03"},{"name":"B4","midi":71,"time":"262.12","velocity":0.18110236220472442,"duration":"0.05"},{"name":"F#6","midi":90,"time":"262.15","velocity":0.25984251968503935,"duration":"0.16"},{"name":"C7","midi":96,"time":"262.15","velocity":0.1968503937007874,"duration":"0.09"},{"name":"A#2","midi":46,"time":"262.16","velocity":0.4881889763779528,"duration":"0.02"},{"name":"A#5","midi":82,"time":"262.16","velocity":0.3543307086614173,"duration":"0.05"},{"name":"D6","midi":86,"time":"262.16","velocity":0.3543307086614173,"duration":"0.05"},{"name":"D#7","midi":99,"time":"262.16","velocity":0.2440944881889764,"duration":"0.31"},{"name":"C4","midi":60,"time":"262.17","velocity":0.5511811023622047,"duration":"0.03"},{"name":"B4","midi":71,"time":"262.17","velocity":0.4881889763779528,"duration":"0.02"},{"name":"A2","midi":45,"time":"262.19","velocity":0.5039370078740157,"duration":"0.02"},{"name":"G#4","midi":68,"time":"262.19","velocity":0.5433070866141733,"duration":"0.01"},{"name":"D#3","midi":51,"time":"262.20","velocity":0.4881889763779528,"duration":"0.02"},{"name":"A4","midi":69,"time":"262.20","velocity":0.5433070866141733,"duration":"0.01"},{"name":"D#5","midi":75,"time":"262.20","velocity":0.3700787401574803,"duration":"0.02"},{"name":"C6","midi":84,"time":"262.20","velocity":0.36220472440944884,"duration":"0.02"},{"name":"C#4","midi":61,"time":"262.21","velocity":0.48031496062992124,"duration":"0.16"},{"name":"F4","midi":65,"time":"262.21","velocity":0.3464566929133858,"duration":"0.02"},{"name":"A#4","midi":70,"time":"262.21","velocity":0.4566929133858268,"duration":"0.03"},{"name":"E3","midi":52,"time":"262.22","velocity":0.5511811023622047,"duration":"0.31"},{"name":"A3","midi":57,"time":"262.22","velocity":0.4566929133858268,"duration":"0.02"},{"name":"E5","midi":76,"time":"262.22","velocity":0.3464566929133858,"duration":"0.05"},{"name":"G#5","midi":80,"time":"262.22","velocity":0.3464566929133858,"duration":"0.05"},{"name":"B5","midi":83,"time":"262.22","velocity":0.23622047244094488,"duration":"0.06"},{"name":"A2","midi":45,"time":"262.23","velocity":0.5354330708661418,"duration":"0.33"},{"name":"F#4","midi":66,"time":"262.23","velocity":0.33858267716535434,"duration":"0.07"},{"name":"A4","midi":69,"time":"262.24","velocity":0.5039370078740157,"duration":"1.05"},{"name":"D5","midi":74,"time":"262.24","velocity":0.25984251968503935,"duration":"0.02"},{"name":"F5","midi":77,"time":"262.26","velocity":0.25984251968503935,"duration":"0.05"},{"name":"D6","midi":86,"time":"262.26","velocity":0.2677165354330709,"duration":"0.09"},{"name":"C7","midi":96,"time":"262.26","velocity":0.1889763779527559,"duration":"0.27"},{"name":"D#5","midi":75,"time":"262.27","velocity":0.2992125984251969,"duration":"0.06"},{"name":"G#6","midi":92,"time":"262.27","velocity":0.4015748031496063,"duration":"0.45"},{"name":"G#5","midi":80,"time":"262.30","velocity":0.48031496062992124,"duration":"0.21"},{"name":"F#4","midi":66,"time":"262.31","velocity":0.25984251968503935,"duration":"0.03"},{"name":"F#6","midi":90,"time":"262.33","velocity":0.18110236220472442,"duration":"0.03"},{"name":"E5","midi":76,"time":"262.34","velocity":0.2047244094488189,"duration":"0.06"},{"name":"B5","midi":83,"time":"262.34","velocity":0.14173228346456693,"duration":"0.13"},{"name":"D5","midi":74,"time":"262.36","velocity":0.33070866141732286,"duration":"0.03"},{"name":"A#3","midi":58,"time":"262.37","velocity":0.5354330708661418,"duration":"0.01"},{"name":"E6","midi":88,"time":"262.37","velocity":0.2204724409448819,"duration":"0.14"},{"name":"C#4","midi":61,"time":"262.38","velocity":0.5590551181102362,"duration":"0.60"},{"name":"A#5","midi":82,"time":"262.38","velocity":0.1889763779527559,"duration":"0.05"},{"name":"F#7","midi":102,"time":"262.38","velocity":0.30708661417322836,"duration":"0.85"},{"name":"D7","midi":98,"time":"262.40","velocity":0.11023622047244094,"duration":"0.06"},{"name":"E5","midi":76,"time":"262.41","velocity":0.2047244094488189,"duration":"0.03"},{"name":"D6","midi":86,"time":"262.43","velocity":0.07874015748031496,"duration":"0.03"},{"name":"A#6","midi":94,"time":"262.43","velocity":0.10236220472440945,"duration":"0.06"},{"name":"A#5","midi":82,"time":"262.44","velocity":0.15748031496062992,"duration":"0.09"},{"name":"F#5","midi":78,"time":"262.47","velocity":0.08661417322834646,"duration":"0.05"},{"name":"G6","midi":91,"time":"262.47","velocity":0.2440944881889764,"duration":"0.26"},{"name":"G#5","midi":80,"time":"262.52","velocity":0.47244094488188976,"duration":"0.13"},{"name":"A#6","midi":94,"time":"262.52","velocity":0.2204724409448819,"duration":"0.12"},{"name":"E7","midi":100,"time":"262.53","velocity":0.09448818897637795,"duration":"0.09"},{"name":"E6","midi":88,"time":"262.55","velocity":0.28346456692913385,"duration":"0.19"},{"name":"C7","midi":96,"time":"262.55","velocity":0.15748031496062992,"duration":"0.07"},{"name":"D#7","midi":99,"time":"262.55","velocity":0.29133858267716534,"duration":"0.21"},{"name":"E5","midi":76,"time":"262.56","velocity":0.3700787401574803,"duration":"0.73"},{"name":"F6","midi":89,"time":"262.56","velocity":0.2204724409448819,"duration":"0.03"},{"name":"D#6","midi":87,"time":"262.58","velocity":0.15748031496062992,"duration":"0.03"},{"name":"A2","midi":45,"time":"262.59","velocity":0.5669291338582677,"duration":"0.33"},{"name":"E3","midi":52,"time":"262.59","velocity":0.4409448818897638,"duration":"0.29"},{"name":"G5","midi":79,"time":"262.59","velocity":0.18110236220472442,"duration":"0.07"},{"name":"F#6","midi":90,"time":"262.59","velocity":0.14173228346456693,"duration":"0.20"},{"name":"D7","midi":98,"time":"262.60","velocity":0.14960629921259844,"duration":"0.05"},{"name":"D#6","midi":87,"time":"262.63","velocity":0.14960629921259844,"duration":"0.21"},{"name":"G1","midi":31,"time":"262.65","velocity":0.3543307086614173,"duration":"0.03"},{"name":"A#6","midi":94,"time":"262.65","velocity":0.2125984251968504,"duration":"0.09"},{"name":"G7","midi":103,"time":"262.65","velocity":0.2440944881889764,"duration":"0.07"},{"name":"G#5","midi":80,"time":"262.66","velocity":0.44881889763779526,"duration":"0.14"},{"name":"F6","midi":89,"time":"262.67","velocity":0.1968503937007874,"duration":"0.15"},{"name":"A#5","midi":82,"time":"262.71","velocity":0.07874015748031496,"duration":"0.05"},{"name":"C6","midi":84,"time":"262.72","velocity":0.15748031496062992,"duration":"0.05"},{"name":"G6","midi":91,"time":"262.73","velocity":0.1968503937007874,"duration":"0.20"},{"name":"B4","midi":71,"time":"262.76","velocity":0.1889763779527559,"duration":"0.06"},{"name":"B6","midi":95,"time":"262.76","velocity":0.1889763779527559,"duration":"0.19"},{"name":"G7","midi":103,"time":"262.76","velocity":0.28346456692913385,"duration":"0.40"},{"name":"A#6","midi":94,"time":"262.77","velocity":0.1732283464566929,"duration":"0.19"},{"name":"G5","midi":79,"time":"262.78","velocity":0.16535433070866143,"duration":"0.05"},{"name":"G#6","midi":92,"time":"262.80","velocity":0.4094488188976378,"duration":"1.52"},{"name":"G#5","midi":80,"time":"262.81","velocity":0.31496062992125984,"duration":"0.10"},{"name":"B5","midi":83,"time":"262.81","velocity":0.08661417322834646,"duration":"0.05"},{"name":"F6","midi":89,"time":"262.85","velocity":0.23622047244094488,"duration":"0.08"},{"name":"C7","midi":96,"time":"262.86","velocity":0.13385826771653545,"duration":"0.15"},{"name":"D#7","midi":99,"time":"262.87","velocity":0.2283464566929134,"duration":"0.24"},{"name":"B5","midi":83,"time":"262.91","velocity":0.18110236220472442,"duration":"0.12"},{"name":"F#6","midi":90,"time":"262.91","velocity":0.2677165354330709,"duration":"0.09"},{"name":"C#2","midi":37,"time":"262.92","velocity":0.5826771653543307,"duration":"0.01"},{"name":"D3","midi":50,"time":"262.92","velocity":0.5511811023622047,"duration":"0.01"},{"name":"F#4","midi":66,"time":"262.92","velocity":0.36220472440944884,"duration":"0.02"},{"name":"D6","midi":86,"time":"262.92","velocity":0.16535433070866143,"duration":"0.03"},{"name":"E2","midi":40,"time":"262.93","velocity":0.6771653543307087,"duration":"0.01"},{"name":"C6","midi":84,"time":"262.93","velocity":0.2125984251968504,"duration":"0.05"},{"name":"F2","midi":41,"time":"262.94","velocity":0.6771653543307087,"duration":"0.01"},{"name":"F6","midi":89,"time":"262.94","velocity":0.2047244094488189,"duration":"0.03"},{"name":"G2","midi":43,"time":"262.95","velocity":0.6535433070866141,"duration":"0.01"},{"name":"G6","midi":91,"time":"262.95","velocity":0.23622047244094488,"duration":"0.24"},{"name":"G#2","midi":44,"time":"262.97","velocity":0.6141732283464567,"duration":"0.02"},{"name":"A3","midi":57,"time":"262.97","velocity":0.5118110236220472,"duration":"0.35"},{"name":"G#5","midi":80,"time":"262.97","velocity":0.4094488188976378,"duration":"0.57"},{"name":"A#6","midi":94,"time":"262.97","velocity":0.13385826771653545,"duration":"0.13"},{"name":"F1","midi":29,"time":"262.98","velocity":0.5590551181102362,"duration":"0.01"},{"name":"D6","midi":86,"time":"262.98","velocity":0.10236220472440945,"duration":"0.03"},{"name":"A1","midi":33,"time":"262.99","velocity":0.5196850393700787,"duration":"0.01"},{"name":"A2","midi":45,"time":"262.99","velocity":0.6614173228346457,"duration":"0.31"},{"name":"C#4","midi":61,"time":"263.00","velocity":0.4645669291338583,"duration":"0.29"},{"name":"F6","midi":89,"time":"263.01","velocity":0.1968503937007874,"duration":"0.30"},{"name":"C#5","midi":73,"time":"263.02","velocity":0.5511811023622047,"duration":"0.16"},{"name":"C7","midi":96,"time":"263.02","velocity":0.10236220472440945,"duration":"0.05"},{"name":"G5","midi":79,"time":"263.06","velocity":0.2125984251968504,"duration":"0.05"},{"name":"E3","midi":52,"time":"263.07","velocity":0.41732283464566927,"duration":"0.08"},{"name":"B6","midi":95,"time":"263.09","velocity":0.14173228346456693,"duration":"0.16"},{"name":"G4","midi":67,"time":"263.10","velocity":0.25196850393700787,"duration":"0.08"},{"name":"C7","midi":96,"time":"263.10","velocity":0.07086614173228346,"duration":"0.08"},{"name":"B5","midi":83,"time":"263.15","velocity":0.15748031496062992,"duration":"0.15"},{"name":"D6","midi":86,"time":"263.16","velocity":0.12598425196850394,"duration":"0.05"},{"name":"G7","midi":103,"time":"263.17","velocity":0.2755905511811024,"duration":"0.22"},{"name":"E3","midi":52,"time":"263.19","velocity":0.41732283464566927,"duration":"0.08"},{"name":"D#7","midi":99,"time":"263.19","velocity":0.11023622047244094,"duration":"0.05"},{"name":"G4","midi":67,"time":"263.20","velocity":0.15748031496062992,"duration":"0.06"},{"name":"C#5","midi":73,"time":"263.20","velocity":0.4881889763779528,"duration":"1.23"},{"name":"C7","midi":96,"time":"263.20","velocity":0.13385826771653545,"duration":"0.03"},{"name":"B4","midi":71,"time":"263.23","velocity":0.14173228346456693,"duration":"0.05"},{"name":"G1","midi":31,"time":"263.24","velocity":0.23622047244094488,"duration":"0.02"},{"name":"G6","midi":91,"time":"263.24","velocity":0.2047244094488189,"duration":"0.23"},{"name":"F#7","midi":102,"time":"263.26","velocity":0.2992125984251969,"duration":"1.03"},{"name":"F7","midi":101,"time":"263.27","velocity":0.33858267716535434,"duration":"0.71"},{"name":"F5","midi":77,"time":"263.28","velocity":0.2440944881889764,"duration":"0.03"},{"name":"A#5","midi":82,"time":"263.28","velocity":0.09448818897637795,"duration":"0.05"},{"name":"A6","midi":93,"time":"263.28","velocity":0.3228346456692913,"duration":"0.69"},{"name":"B6","midi":95,"time":"263.28","velocity":0.2677165354330709,"duration":"0.45"},{"name":"F#4","midi":66,"time":"263.29","velocity":0.3779527559055118,"duration":"0.05"},{"name":"A#6","midi":94,"time":"263.29","velocity":0.14173228346456693,"duration":"0.03"},{"name":"D7","midi":98,"time":"263.29","velocity":0.16535433070866143,"duration":"0.06"},{"name":"D#7","midi":99,"time":"263.29","velocity":0.14173228346456693,"duration":"0.19"},{"name":"F#2","midi":42,"time":"263.30","velocity":0.6850393700787402,"duration":"0.01"},{"name":"C7","midi":96,"time":"263.30","velocity":0.2125984251968504,"duration":"0.06"},{"name":"F2","midi":41,"time":"263.31","velocity":0.6141732283464567,"duration":"0.02"},{"name":"G#3","midi":56,"time":"263.31","velocity":0.4015748031496063,"duration":"0.02"},{"name":"E5","midi":76,"time":"263.31","velocity":0.4645669291338583,"duration":"0.42"},{"name":"B5","midi":83,"time":"263.31","velocity":0.1732283464566929,"duration":"0.05"},{"name":"C#4","midi":61,"time":"263.33","velocity":0.5905511811023622,"duration":"0.37"},{"name":"G#2","midi":44,"time":"263.34","velocity":0.5511811023622047,"duration":"0.01"},{"name":"A3","midi":57,"time":"263.34","velocity":0.5511811023622047,"duration":"0.33"},{"name":"E4","midi":64,"time":"263.34","velocity":0.23622047244094488,"duration":"0.02"},{"name":"F1","midi":29,"time":"263.35","velocity":0.5118110236220472,"duration":"0.01"},{"name":"A2","midi":45,"time":"263.35","velocity":0.5511811023622047,"duration":"0.01"},{"name":"A#5","midi":82,"time":"263.35","velocity":0.10236220472440945,"duration":"0.07"},{"name":"A#2","midi":46,"time":"263.36","velocity":0.5905511811023622,"duration":"0.01"},{"name":"D6","midi":86,"time":"263.36","velocity":0.10236220472440945,"duration":"0.03"},{"name":"A2","midi":45,"time":"263.37","velocity":0.5984251968503937,"duration":"0.33"},{"name":"D#6","midi":87,"time":"263.38","velocity":0.12598425196850394,"duration":"0.03"},{"name":"F6","midi":89,"time":"263.41","velocity":0.25984251968503935,"duration":"0.10"},{"name":"G7","midi":103,"time":"263.41","velocity":0.2755905511811024,"duration":"0.10"},{"name":"D1","midi":26,"time":"263.42","velocity":0.3937007874015748,"duration":"0.03"},{"name":"C7","midi":96,"time":"263.43","velocity":0.08661417322834646,"duration":"0.06"},{"name":"D#1","midi":27,"time":"263.45","velocity":0.3543307086614173,"duration":"0.02"},{"name":"A#6","midi":94,"time":"263.45","velocity":0.09448818897637795,"duration":"0.05"},{"name":"D#6","midi":87,"time":"263.48","velocity":0.16535433070866143,"duration":"0.12"},{"name":"A#6","midi":94,"time":"263.52","velocity":0.12598425196850394,"duration":"0.05"},{"name":"G6","midi":91,"time":"263.53","velocity":0.11023622047244094,"duration":"0.07"},{"name":"G#5","midi":80,"time":"263.55","velocity":0.16535433070866143,"duration":"0.07"},{"name":"C7","midi":96,"time":"263.56","velocity":0.13385826771653545,"duration":"0.07"},{"name":"G7","midi":103,"time":"263.56","velocity":0.16535433070866143,"duration":"0.05"},{"name":"G5","midi":79,"time":"263.57","velocity":0.18110236220472442,"duration":"0.07"},{"name":"F6","midi":89,"time":"263.57","velocity":0.1732283464566929,"duration":"0.06"},{"name":"E3","midi":52,"time":"263.60","velocity":0.3779527559055118,"duration":"0.02"},{"name":"G7","midi":103,"time":"263.63","velocity":0.2283464566929134,"duration":"0.09"},{"name":"G6","midi":91,"time":"263.64","velocity":0.33858267716535434,"duration":"0.26"},{"name":"A#6","midi":94,"time":"263.64","velocity":0.2125984251968504,"duration":"0.03"},{"name":"F#6","midi":90,"time":"263.65","velocity":0.2283464566929134,"duration":"0.06"},{"name":"F#5","midi":78,"time":"263.66","velocity":0.30708661417322836,"duration":"0.03"},{"name":"C6","midi":84,"time":"263.66","velocity":0.4251968503937008,"duration":"0.05"},{"name":"D#6","midi":87,"time":"263.66","velocity":0.29133858267716534,"duration":"0.03"},{"name":"D7","midi":98,"time":"263.66","velocity":0.1732283464566929,"duration":"0.09"},{"name":"E4","midi":64,"time":"263.67","velocity":0.5039370078740157,"duration":"0.03"},{"name":"A4","midi":69,"time":"263.67","velocity":0.5433070866141733,"duration":"0.38"},{"name":"A#5","midi":82,"time":"263.67","velocity":0.3464566929133858,"duration":"0.03"},{"name":"D6","midi":86,"time":"263.67","velocity":0.2677165354330709,"duration":"0.03"},{"name":"G3","midi":55,"time":"263.69","velocity":0.4409448818897638,"duration":"0.02"},{"name":"F6","midi":89,"time":"263.69","velocity":0.29133858267716534,"duration":"0.40"},{"name":"G#5","midi":80,"time":"263.70","velocity":0.49606299212598426,"duration":"0.35"},{"name":"E3","midi":52,"time":"263.71","velocity":0.4881889763779528,"duration":"0.05"},{"name":"B3","midi":59,"time":"263.71","velocity":0.3858267716535433,"duration":"0.02"},{"name":"F5","midi":77,"time":"263.71","velocity":0.2992125984251969,"duration":"0.05"},{"name":"B5","midi":83,"time":"263.71","velocity":0.2440944881889764,"duration":"0.05"},{"name":"D#6","midi":87,"time":"263.71","velocity":0.28346456692913385,"duration":"0.19"},{"name":"G#2","midi":44,"time":"263.72","velocity":0.5118110236220472,"duration":"0.01"},{"name":"F#4","midi":66,"time":"263.72","velocity":0.3543307086614173,"duration":"0.06"},{"name":"F#6","midi":90,"time":"263.72","velocity":0.2283464566929134,"duration":"0.03"},{"name":"A2","midi":45,"time":"263.73","velocity":0.5905511811023622,"duration":"0.33"},{"name":"E5","midi":76,"time":"263.76","velocity":0.31496062992125984,"duration":"0.02"},{"name":"C6","midi":84,"time":"263.76","velocity":0.1889763779527559,"duration":"0.03"},{"name":"D6","midi":86,"time":"263.76","velocity":0.14173228346456693,"duration":"0.05"},{"name":"F#6","midi":90,"time":"263.77","velocity":0.2440944881889764,"duration":"0.05"},{"name":"A#3","midi":58,"time":"263.78","velocity":0.48031496062992124,"duration":"0.02"},{"name":"B4","midi":71,"time":"263.78","velocity":0.23622047244094488,"duration":"0.02"},{"name":"F5","midi":77,"time":"263.78","velocity":0.3228346456692913,"duration":"0.05"},{"name":"B6","midi":95,"time":"263.78","velocity":0.1968503937007874,"duration":"0.16"},{"name":"E3","midi":52,"time":"263.79","velocity":0.4409448818897638,"duration":"0.05"},{"name":"F#5","midi":78,"time":"263.79","velocity":0.23622047244094488,"duration":"0.02"},{"name":"A#5","midi":82,"time":"263.79","velocity":0.2125984251968504,"duration":"0.05"},{"name":"B3","midi":59,"time":"263.80","velocity":0.4645669291338583,"duration":"0.02"},{"name":"A#3","midi":58,"time":"263.83","velocity":0.5039370078740157,"duration":"0.02"},{"name":"F#5","midi":78,"time":"263.87","velocity":0.1968503937007874,"duration":"0.17"},{"name":"F3","midi":53,"time":"263.88","velocity":0.3700787401574803,"duration":"0.02"},{"name":"A#3","midi":58,"time":"263.90","velocity":0.5039370078740157,"duration":"0.02"},{"name":"E6","midi":88,"time":"263.90","velocity":0.3228346456692913,"duration":"0.30"},{"name":"E3","midi":52,"time":"263.91","velocity":0.3700787401574803,"duration":"0.02"},{"name":"D#6","midi":87,"time":"263.91","velocity":0.11023622047244094,"duration":"0.03"},{"name":"G6","midi":91,"time":"263.91","velocity":0.11811023622047244,"duration":"0.03"},{"name":"B5","midi":83,"time":"263.92","velocity":0.09448818897637795,"duration":"0.03"},{"name":"A#3","midi":58,"time":"263.93","velocity":0.5039370078740157,"duration":"0.03"},{"name":"C7","midi":96,"time":"263.94","velocity":0.11811023622047244,"duration":"0.20"},{"name":"E3","midi":52,"time":"263.97","velocity":0.3543307086614173,"duration":"0.05"},{"name":"F#4","midi":66,"time":"263.99","velocity":0.12598425196850394,"duration":"0.03"},{"name":"B6","midi":95,"time":"263.99","velocity":0.2125984251968504,"duration":"0.31"},{"name":"A#3","midi":58,"time":"264.00","velocity":0.49606299212598426,"duration":"0.06"},{"name":"F7","midi":101,"time":"264.00","velocity":0.2992125984251969,"duration":"0.33"},{"name":"E5","midi":76,"time":"264.02","velocity":0.11811023622047244,"duration":"0.03"},{"name":"A#5","midi":82,"time":"264.02","velocity":0.12598425196850394,"duration":"0.03"},{"name":"G6","midi":91,"time":"264.02","velocity":0.2440944881889764,"duration":"0.13"},{"name":"C#4","midi":61,"time":"264.03","velocity":0.44881889763779526,"duration":"0.22"},{"name":"B5","midi":83,"time":"264.03","velocity":0.18110236220472442,"duration":"0.07"},{"name":"F5","midi":77,"time":"264.05","velocity":0.2283464566929134,"duration":"0.05"},{"name":"G5","midi":79,"time":"264.05","velocity":0.30708661417322836,"duration":"0.03"},{"name":"F#6","midi":90,"time":"264.05","velocity":0.2047244094488189,"duration":"0.13"},{"name":"D#7","midi":99,"time":"264.05","velocity":0.2677165354330709,"duration":"0.13"},{"name":"A#2","midi":46,"time":"264.06","velocity":0.5590551181102362,"duration":"0.01"},{"name":"E3","midi":52,"time":"264.06","velocity":0.49606299212598426,"duration":"0.34"},{"name":"G#5","midi":80,"time":"264.06","velocity":0.4330708661417323,"duration":"0.20"},{"name":"A2","midi":45,"time":"264.07","velocity":0.5984251968503937,"duration":"0.35"},{"name":"A4","midi":69,"time":"264.07","velocity":0.3543307086614173,"duration":"0.34"},{"name":"A#5","midi":82,"time":"264.07","velocity":0.07874015748031496,"duration":"0.05"},{"name":"G#1","midi":32,"time":"264.08","velocity":0.2204724409448819,"duration":"0.03"},{"name":"E5","midi":76,"time":"264.08","velocity":0.2755905511811024,"duration":"0.34"},{"name":"D#6","midi":87,"time":"264.08","velocity":0.18110236220472442,"duration":"0.06"},{"name":"A#3","midi":58,"time":"264.09","velocity":0.4409448818897638,"duration":"0.03"},{"name":"F6","midi":89,"time":"264.09","velocity":0.15748031496062992,"duration":"0.07"},{"name":"A#6","midi":94,"time":"264.10","velocity":0.11023622047244094,"duration":"0.08"},{"name":"G6","midi":91,"time":"264.16","velocity":0.14173228346456693,"duration":"0.05"},{"name":"C7","midi":96,"time":"264.16","velocity":0.07086614173228346,"duration":"0.03"},{"name":"G7","midi":103,"time":"264.16","velocity":0.2047244094488189,"duration":"0.03"},{"name":"G4","midi":67,"time":"264.19","velocity":0.16535433070866143,"duration":"0.19"},{"name":"B5","midi":83,"time":"264.20","velocity":0.12598425196850394,"duration":"0.14"},{"name":"F6","midi":89,"time":"264.20","velocity":0.1889763779527559,"duration":"0.19"},{"name":"F#6","midi":90,"time":"264.20","velocity":0.12598425196850394,"duration":"0.03"},{"name":"A5","midi":81,"time":"264.21","velocity":0.3937007874015748,"duration":"0.19"},{"name":"D#6","midi":87,"time":"264.21","velocity":0.08661417322834646,"duration":"0.05"},{"name":"G7","midi":103,"time":"264.22","velocity":0.18110236220472442,"duration":"0.07"},{"name":"D#7","midi":99,"time":"264.26","velocity":0.09448818897637795,"duration":"0.05"},{"name":"C#4","midi":61,"time":"264.27","velocity":0.5039370078740157,"duration":"0.19"},{"name":"G#5","midi":80,"time":"264.29","velocity":0.3543307086614173,"duration":"0.05"},{"name":"G6","midi":91,"time":"264.29","velocity":0.2755905511811024,"duration":"0.29"},{"name":"D#5","midi":75,"time":"264.31","velocity":0.12598425196850394,"duration":"0.03"},{"name":"A#6","midi":94,"time":"264.31","velocity":0.09448818897637795,"duration":"0.05"},{"name":"B6","midi":95,"time":"264.31","velocity":0.2283464566929134,"duration":"0.13"},{"name":"G#6","midi":92,"time":"264.35","velocity":0.3543307086614173,"duration":"0.37"},{"name":"F7","midi":101,"time":"264.35","velocity":0.3543307086614173,"duration":"1.45"},{"name":"F#7","midi":102,"time":"264.38","velocity":0.2283464566929134,"duration":"0.31"},{"name":"B4","midi":71,"time":"264.40","velocity":0.25196850393700787,"duration":"0.02"},{"name":"G#5","midi":80,"time":"264.40","velocity":0.47244094488188976,"duration":"0.48"},{"name":"F6","midi":89,"time":"264.40","velocity":0.14960629921259844,"duration":"0.05"},{"name":"F#4","midi":66,"time":"264.41","velocity":0.4094488188976378,"duration":"0.03"},{"name":"A6","midi":93,"time":"264.41","velocity":0.2440944881889764,"duration":"0.26"},{"name":"C7","midi":96,"time":"264.41","velocity":0.16535433070866143,"duration":"0.13"},{"name":"D7","midi":98,"time":"264.41","velocity":0.12598425196850394,"duration":"0.07"},{"name":"F#2","midi":42,"time":"264.42","velocity":0.6850393700787402,"duration":"0.01"},{"name":"A#4","midi":70,"time":"264.42","velocity":0.33070866141732286,"duration":"0.03"},{"name":"D6","midi":86,"time":"264.42","velocity":0.1732283464566929,"duration":"0.06"},{"name":"E7","midi":100,"time":"264.42","velocity":0.15748031496062992,"duration":"0.03"},{"name":"F2","midi":41,"time":"264.43","velocity":0.7086614173228346,"duration":"0.01"},{"name":"D5","midi":74,"time":"264.43","velocity":0.3228346456692913,"duration":"0.02"},{"name":"G5","midi":79,"time":"264.43","velocity":0.2992125984251969,"duration":"0.02"},{"name":"A5","midi":81,"time":"264.43","velocity":0.3937007874015748,"duration":"0.28"},{"name":"E6","midi":88,"time":"264.43","velocity":0.2204724409448819,"duration":"0.26"},{"name":"F#6","midi":90,"time":"264.43","velocity":0.2125984251968504,"duration":"0.13"},{"name":"F#2","midi":42,"time":"264.44","velocity":0.6299212598425197,"duration":"0.01"},{"name":"E3","midi":52,"time":"264.44","velocity":0.5511811023622047,"duration":"0.06"},{"name":"F4","midi":65,"time":"264.44","velocity":0.28346456692913385,"duration":"0.02"},{"name":"C#5","midi":73,"time":"264.44","velocity":0.5590551181102362,"duration":"0.71"},{"name":"E5","midi":76,"time":"264.44","velocity":0.3937007874015748,"duration":"0.35"},{"name":"B5","midi":83,"time":"264.44","velocity":0.1732283464566929,"duration":"0.06"},{"name":"D#7","midi":99,"time":"264.44","velocity":0.12598425196850394,"duration":"0.23"},{"name":"G1","midi":31,"time":"264.45","velocity":0.5590551181102362,"duration":"0.01"},{"name":"G2","midi":43,"time":"264.45","velocity":0.5984251968503937,"duration":"0.01"},{"name":"A4","midi":69,"time":"264.45","velocity":0.3937007874015748,"duration":"0.72"},{"name":"F6","midi":89,"time":"264.45","velocity":0.1968503937007874,"duration":"0.24"},{"name":"F#1","midi":30,"time":"264.47","velocity":0.6220472440944882,"duration":"0.01"},{"name":"G#2","midi":44,"time":"264.47","velocity":0.5590551181102362,"duration":"0.01"},{"name":"A3","midi":57,"time":"264.47","velocity":0.31496062992125984,"duration":"0.02"},{"name":"C#4","midi":61,"time":"264.47","velocity":0.29133858267716534,"duration":"0.05"},{"name":"A1","midi":33,"time":"264.48","velocity":0.5748031496062992,"duration":"0.01"},{"name":"A#2","midi":46,"time":"264.48","velocity":0.5590551181102362,"duration":"0.02"},{"name":"A2","midi":45,"time":"264.50","velocity":0.5984251968503937,"duration":"0.31"},{"name":"E3","midi":52,"time":"264.51","velocity":0.49606299212598426,"duration":"0.02"},{"name":"B6","midi":95,"time":"264.51","velocity":0.14173228346456693,"duration":"0.09"},{"name":"C#4","midi":61,"time":"264.52","velocity":0.2755905511811024,"duration":"0.03"},{"name":"G5","midi":79,"time":"264.53","velocity":0.1732283464566929,"duration":"0.05"},{"name":"E4","midi":64,"time":"264.55","velocity":0.2755905511811024,"duration":"0.09"},{"name":"B5","midi":83,"time":"264.56","velocity":0.1732283464566929,"duration":"0.09"},{"name":"A#6","midi":94,"time":"264.56","velocity":0.09448818897637795,"duration":"0.05"},{"name":"E3","midi":52,"time":"264.57","velocity":0.3937007874015748,"duration":"0.19"},{"name":"C#4","midi":61,"time":"264.59","velocity":0.41732283464566927,"duration":"0.21"},{"name":"C6","midi":84,"time":"264.59","velocity":0.13385826771653545,"duration":"0.05"},{"name":"F#6","midi":90,"time":"264.59","velocity":0.07086614173228346,"duration":"0.03"},{"name":"A#5","midi":82,"time":"264.63","velocity":0.13385826771653545,"duration":"0.05"},{"name":"G6","midi":91,"time":"264.63","velocity":0.28346456692913385,"duration":"0.27"},{"name":"G5","midi":79,"time":"264.69","velocity":0.1732283464566929,"duration":"0.07"},{"name":"F#6","midi":90,"time":"264.70","velocity":0.14173228346456693,"duration":"0.09"},{"name":"F6","midi":89,"time":"264.71","velocity":0.18110236220472442,"duration":"0.10"},{"name":"A6","midi":93,"time":"264.72","velocity":0.10236220472440945,"duration":"0.03"},{"name":"A#6","midi":94,"time":"264.72","velocity":0.11023622047244094,"duration":"0.03"},{"name":"B5","midi":83,"time":"264.74","velocity":0.11811023622047244,"duration":"0.07"},{"name":"F#7","midi":102,"time":"264.74","velocity":0.25984251968503935,"duration":"0.60"},{"name":"B6","midi":95,"time":"264.76","velocity":0.1889763779527559,"duration":"0.12"},{"name":"G5","midi":79,"time":"264.78","velocity":0.2677165354330709,"duration":"0.02"},{"name":"A6","midi":93,"time":"264.78","velocity":0.2440944881889764,"duration":"0.29"},{"name":"D#6","midi":87,"time":"264.79","velocity":0.15748031496062992,"duration":"0.06"},{"name":"G7","midi":103,"time":"264.79","velocity":0.29133858267716534,"duration":"0.08"},{"name":"A#3","midi":58,"time":"264.80","velocity":0.44881889763779526,"duration":"0.02"},{"name":"F4","midi":65,"time":"264.80","velocity":0.2992125984251969,"duration":"0.03"},{"name":"E5","midi":76,"time":"264.80","velocity":0.2283464566929134,"duration":"0.08"},{"name":"D#7","midi":99,"time":"264.80","velocity":0.2440944881889764,"duration":"0.15"},{"name":"C#4","midi":61,"time":"264.81","velocity":0.4645669291338583,"duration":"0.37"},{"name":"C6","midi":84,"time":"264.81","velocity":0.11023622047244094,"duration":"0.03"},{"name":"A2","midi":45,"time":"264.83","velocity":0.5748031496062992,"duration":"0.34"},{"name":"E3","midi":52,"time":"264.83","velocity":0.5118110236220472,"duration":"0.33"},{"name":"F#6","midi":90,"time":"264.83","velocity":0.2755905511811024,"duration":"0.05"},{"name":"C7","midi":96,"time":"264.84","velocity":0.1968503937007874,"duration":"0.10"},{"name":"D6","midi":86,"time":"264.85","velocity":0.11023622047244094,"duration":"0.07"},{"name":"F6","midi":89,"time":"264.86","velocity":0.2204724409448819,"duration":"0.07"},{"name":"B5","midi":83,"time":"264.88","velocity":0.14173228346456693,"duration":"0.08"},{"name":"F#6","midi":90,"time":"264.88","velocity":0.2204724409448819,"duration":"0.05"},{"name":"E5","midi":76,"time":"264.90","velocity":0.41732283464566927,"duration":"0.31"},{"name":"D#6","midi":87,"time":"264.90","velocity":0.14173228346456693,"duration":"0.05"},{"name":"G4","midi":67,"time":"264.91","velocity":0.10236220472440945,"duration":"0.06"},{"name":"G#5","midi":80,"time":"264.91","velocity":0.3543307086614173,"duration":"0.12"},{"name":"G6","midi":91,"time":"264.91","velocity":0.23622047244094488,"duration":"0.06"},{"name":"B6","midi":95,"time":"264.94","velocity":0.1968503937007874,"duration":"0.15"},{"name":"F#6","midi":90,"time":"264.98","velocity":0.07874015748031496,"duration":"0.09"},{"name":"G6","midi":91,"time":"264.99","velocity":0.11811023622047244,"duration":"0.06"},{"name":"F6","midi":89,"time":"265.00","velocity":0.14173228346456693,"duration":"0.13"},{"name":"A#5","midi":82,"time":"265.05","velocity":0.07874015748031496,"duration":"0.05"},{"name":"G4","midi":67,"time":"265.06","velocity":0.08661417322834646,"duration":"0.03"},{"name":"G6","midi":91,"time":"265.06","velocity":0.3228346456692913,"duration":"0.21"},{"name":"G#5","midi":80,"time":"265.07","velocity":0.3937007874015748,"duration":"0.12"},{"name":"B6","midi":95,"time":"265.10","velocity":0.25196850393700787,"duration":"0.22"},{"name":"F6","midi":89,"time":"265.15","velocity":0.13385826771653545,"duration":"0.03"},{"name":"A#2","midi":46,"time":"265.16","velocity":0.5275590551181102,"duration":"0.05"},{"name":"G#3","midi":56,"time":"265.16","velocity":0.4015748031496063,"duration":"0.02"},{"name":"C#5","midi":73,"time":"265.16","velocity":0.48031496062992124,"duration":"0.06"},{"name":"B5","midi":83,"time":"265.16","velocity":0.4330708661417323,"duration":"0.05"},{"name":"F4","midi":65,"time":"265.17","velocity":0.5433070866141733,"duration":"0.02"},{"name":"D6","midi":86,"time":"265.17","velocity":0.1889763779527559,"duration":"0.03"},{"name":"F#6","midi":90,"time":"265.17","velocity":0.36220472440944884,"duration":"0.07"},{"name":"A#6","midi":94,"time":"265.17","velocity":0.11023622047244094,"duration":"0.03"},{"name":"C7","midi":96,"time":"265.17","velocity":0.25984251968503935,"duration":"0.16"},{"name":"D#7","midi":99,"time":"265.17","velocity":0.2283464566929134,"duration":"0.20"},{"name":"E3","midi":52,"time":"265.19","velocity":0.5511811023622047,"duration":"0.33"},{"name":"C4","midi":60,"time":"265.19","velocity":0.48031496062992124,"duration":"0.05"},{"name":"G#4","midi":68,"time":"265.19","velocity":0.5511811023622047,"duration":"0.02"},{"name":"F#5","midi":78,"time":"265.19","velocity":0.29133858267716534,"duration":"0.05"},{"name":"A2","midi":45,"time":"265.21","velocity":0.5748031496062992,"duration":"0.69"},{"name":"G#3","midi":56,"time":"265.21","velocity":0.3937007874015748,"duration":"0.02"},{"name":"A4","midi":69,"time":"265.21","velocity":0.49606299212598426,"duration":"0.02"},{"name":"F5","midi":77,"time":"265.21","velocity":0.36220472440944884,"duration":"0.03"},{"name":"C6","midi":84,"time":"265.21","velocity":0.2283464566929134,"duration":"0.06"},{"name":"F4","midi":65,"time":"265.22","velocity":0.29133858267716534,"duration":"0.02"},{"name":"D6","midi":86,"time":"265.22","velocity":0.2755905511811024,"duration":"0.05"},{"name":"A#6","midi":94,"time":"265.22","velocity":0.14960629921259844,"duration":"0.13"},{"name":"C#5","midi":73,"time":"265.23","velocity":0.5590551181102362,"duration":"0.70"},{"name":"F#4","midi":66,"time":"265.24","velocity":0.3700787401574803,"duration":"0.03"},{"name":"A4","midi":69,"time":"265.24","velocity":0.4251968503937008,"duration":"0.03"},{"name":"E5","midi":76,"time":"265.26","velocity":0.2283464566929134,"duration":"0.02"},{"name":"B5","midi":83,"time":"265.26","velocity":0.1968503937007874,"duration":"0.05"},{"name":"G#4","midi":68,"time":"265.27","velocity":0.31496062992125984,"duration":"0.02"},{"name":"F5","midi":77,"time":"265.27","velocity":0.2204724409448819,"duration":"0.06"},{"name":"D#6","midi":87,"time":"265.27","velocity":0.2125984251968504,"duration":"0.10"},{"name":"G5","midi":79,"time":"265.28","velocity":0.2440944881889764,"duration":"0.05"},{"name":"C6","midi":84,"time":"265.28","velocity":0.23622047244094488,"duration":"0.03"},{"name":"A#3","midi":58,"time":"265.29","velocity":0.48031496062992124,"duration":"0.02"},{"name":"A4","midi":69,"time":"265.29","velocity":0.4094488188976378,"duration":"0.63"},{"name":"D#5","midi":75,"time":"265.29","velocity":0.23622047244094488,"duration":"0.07"},{"name":"F#4","midi":66,"time":"265.30","velocity":0.25984251968503935,"duration":"0.05"},{"name":"A#5","midi":82,"time":"265.30","velocity":0.15748031496062992,"duration":"0.10"},{"name":"B3","midi":59,"time":"265.31","velocity":0.4251968503937008,"duration":"0.02"},{"name":"B5","midi":83,"time":"265.31","velocity":0.18110236220472442,"duration":"0.05"},{"name":"D6","midi":86,"time":"265.31","velocity":0.07874015748031496,"duration":"0.03"},{"name":"E5","midi":76,"time":"265.33","velocity":0.23622047244094488,"duration":"0.03"},{"name":"A#3","midi":58,"time":"265.34","velocity":0.47244094488188976,"duration":"0.05"},{"name":"G7","midi":103,"time":"265.34","velocity":0.14173228346456693,"duration":"0.09"},{"name":"G6","midi":91,"time":"265.35","velocity":0.14960629921259844,"duration":"0.08"},{"name":"F#7","midi":102,"time":"265.36","velocity":0.14960629921259844,"duration":"0.12"},{"name":"A#3","midi":58,"time":"265.40","velocity":0.4881889763779528,"duration":"0.17"},{"name":"E5","midi":76,"time":"265.41","velocity":0.1968503937007874,"duration":"0.13"},{"name":"D#7","midi":99,"time":"265.41","velocity":0.10236220472440945,"duration":"0.03"},{"name":"B6","midi":95,"time":"265.43","velocity":0.11023622047244094,"duration":"0.03"},{"name":"G6","midi":91,"time":"265.44","velocity":0.12598425196850394,"duration":"0.10"},{"name":"C#4","midi":61,"time":"265.47","velocity":0.4330708661417323,"duration":"0.09"},{"name":"F#5","midi":78,"time":"265.48","velocity":0.11811023622047244,"duration":"0.03"},{"name":"B6","midi":95,"time":"265.49","velocity":0.10236220472440945,"duration":"0.03"},{"name":"F#7","midi":102,"time":"265.50","velocity":0.4015748031496063,"duration":"4.76"},{"name":"B5","midi":83,"time":"265.51","velocity":0.2283464566929134,"duration":"0.10"},{"name":"E6","midi":88,"time":"265.51","velocity":0.3228346456692913,"duration":"0.34"},{"name":"A#6","midi":94,"time":"265.51","velocity":0.16535433070866143,"duration":"0.17"},{"name":"G7","midi":103,"time":"265.52","velocity":0.25984251968503935,"duration":"0.31"},{"name":"E3","midi":52,"time":"265.55","velocity":0.5118110236220472,"duration":"0.35"},{"name":"F#6","midi":90,"time":"265.55","velocity":0.28346456692913385,"duration":"0.07"},{"name":"F4","midi":65,"time":"265.56","velocity":0.2755905511811024,"duration":"0.02"},{"name":"G5","midi":79,"time":"265.56","velocity":0.23622047244094488,"duration":"0.03"},{"name":"D6","midi":86,"time":"265.56","velocity":0.25984251968503935,"duration":"0.03"},{"name":"G6","midi":91,"time":"265.56","velocity":0.2755905511811024,"duration":"0.19"},{"name":"C7","midi":96,"time":"265.56","velocity":0.11023622047244094,"duration":"0.13"},{"name":"D#7","midi":99,"time":"265.56","velocity":0.2047244094488189,"duration":"0.17"},{"name":"D#6","midi":87,"time":"265.59","velocity":0.13385826771653545,"duration":"0.07"},{"name":"A#3","midi":58,"time":"265.60","velocity":0.41732283464566927,"duration":"0.02"},{"name":"A#5","midi":82,"time":"265.60","velocity":0.07874015748031496,"duration":"0.05"},{"name":"F#6","midi":90,"time":"265.64","velocity":0.10236220472440945,"duration":"0.05"},{"name":"C#4","midi":61,"time":"265.65","velocity":0.28346456692913385,"duration":"0.03"},{"name":"D7","midi":98,"time":"265.67","velocity":0.15748031496062992,"duration":"0.06"},{"name":"G4","midi":67,"time":"265.69","velocity":0.1889763779527559,"duration":"0.05"},{"name":"B5","midi":83,"time":"265.69","velocity":0.07874015748031496,"duration":"0.06"},{"name":"C#4","midi":61,"time":"265.70","velocity":0.2677165354330709,"duration":"0.03"},{"name":"A#6","midi":94,"time":"265.72","velocity":0.18110236220472442,"duration":"0.24"},{"name":"F#6","midi":90,"time":"265.73","velocity":0.12598425196850394,"duration":"0.06"},{"name":"C7","midi":96,"time":"265.74","velocity":0.11023622047244094,"duration":"0.10"},{"name":"G4","midi":67,"time":"265.76","velocity":0.18110236220472442,"duration":"0.10"},{"name":"F6","midi":89,"time":"265.77","velocity":0.18110236220472442,"duration":"0.06"},{"name":"G6","midi":91,"time":"265.77","velocity":0.11811023622047244,"duration":"0.12"},{"name":"C#4","midi":61,"time":"265.79","velocity":0.2677165354330709,"duration":"0.02"},{"name":"B4","midi":71,"time":"265.81","velocity":0.11023622047244094,"duration":"0.05"},{"name":"F#6","midi":90,"time":"265.83","velocity":0.16535433070866143,"duration":"0.08"},{"name":"B6","midi":95,"time":"265.83","velocity":0.15748031496062992,"duration":"0.15"},{"name":"C#4","midi":61,"time":"265.85","velocity":0.3228346456692913,"duration":"0.06"},{"name":"F#5","midi":78,"time":"265.85","velocity":0.16535433070866143,"duration":"0.07"},{"name":"G7","midi":103,"time":"265.85","velocity":0.2204724409448819,"duration":"0.12"},{"name":"F7","midi":101,"time":"265.86","velocity":0.07086614173228346,"duration":"0.05"},{"name":"C7","midi":96,"time":"265.88","velocity":0.1968503937007874,"duration":"0.36"},{"name":"F#4","midi":66,"time":"265.91","velocity":0.44881889763779526,"duration":"0.07"},{"name":"G6","midi":91,"time":"265.91","velocity":0.28346456692913385,"duration":"0.09"},{"name":"F2","midi":41,"time":"265.92","velocity":0.5118110236220472,"duration":"0.01"},{"name":"B2","midi":47,"time":"265.92","velocity":0.5511811023622047,"duration":"0.01"},{"name":"C#4","midi":61,"time":"265.92","velocity":0.3937007874015748,"duration":"0.02"},{"name":"A#4","midi":70,"time":"265.92","velocity":0.33070866141732286,"duration":"0.06"},{"name":"C6","midi":84,"time":"265.92","velocity":0.23622047244094488,"duration":"0.06"},{"name":"D#6","midi":87,"time":"265.92","velocity":0.14173228346456693,"duration":"0.06"},{"name":"F6","midi":89,"time":"265.92","velocity":0.23622047244094488,"duration":"0.05"},{"name":"F#6","midi":90,"time":"265.92","velocity":0.3858267716535433,"duration":"0.81"},{"name":"D#7","midi":99,"time":"265.92","velocity":0.14960629921259844,"duration":"0.14"},{"name":"E7","midi":100,"time":"265.92","velocity":0.15748031496062992,"duration":"0.06"},{"name":"F7","midi":101,"time":"265.92","velocity":0.33858267716535434,"duration":"0.30"},{"name":"C#2","midi":37,"time":"265.93","velocity":0.6220472440944882,"duration":"0.01"},{"name":"D3","midi":50,"time":"265.93","velocity":0.5905511811023622,"duration":"0.01"},{"name":"C5","midi":72,"time":"265.93","velocity":0.2677165354330709,"duration":"0.03"},{"name":"D5","midi":74,"time":"265.93","velocity":0.23622047244094488,"duration":"0.03"},{"name":"F5","midi":77,"time":"265.93","velocity":0.16535433070866143,"duration":"0.03"},{"name":"E6","midi":88,"time":"265.93","velocity":0.36220472440944884,"duration":"0.29"},{"name":"E2","midi":40,"time":"265.94","velocity":0.6456692913385826,"duration":"0.01"},{"name":"A6","midi":93,"time":"265.94","velocity":0.1968503937007874,"duration":"0.08"},{"name":"F#2","midi":42,"time":"265.95","velocity":0.5826771653543307,"duration":"0.01"},{"name":"F3","midi":53,"time":"265.95","velocity":0.48031496062992124,"duration":"0.02"},{"name":"C#5","midi":73,"time":"265.95","velocity":0.4251968503937008,"duration":"0.34"},{"name":"A5","midi":81,"time":"265.95","velocity":0.36220472440944884,"duration":"0.35"},{"name":"G1","midi":31,"time":"265.97","velocity":0.5748031496062992,"duration":"0.01"},{"name":"G2","midi":43,"time":"265.97","velocity":0.5826771653543307,"duration":"0.01"},{"name":"A3","midi":57,"time":"265.97","velocity":0.5433070866141733,"duration":"0.33"},{"name":"C#4","midi":61,"time":"265.97","velocity":0.2283464566929134,"duration":"0.02"},{"name":"E5","midi":76,"time":"265.97","velocity":0.31496062992125984,"duration":"0.33"},{"name":"G#6","midi":92,"time":"265.97","velocity":0.30708661417322836,"duration":"0.48"},{"name":"F#1","midi":30,"time":"265.98","velocity":0.6299212598425197,"duration":"0.02"},{"name":"G#2","midi":44,"time":"265.98","velocity":0.5826771653543307,"duration":"0.01"},{"name":"F4","midi":65,"time":"265.98","velocity":0.30708661417322836,"duration":"0.03"},{"name":"A#2","midi":46,"time":"265.99","velocity":0.5905511811023622,"duration":"0.02"},{"name":"G#5","midi":80,"time":"266.00","velocity":0.12598425196850394,"duration":"0.03"},{"name":"A#6","midi":94,"time":"266.00","velocity":0.12598425196850394,"duration":"0.03"},{"name":"A2","midi":45,"time":"266.01","velocity":0.5669291338582677,"duration":"0.28"},{"name":"A#5","midi":82,"time":"266.01","velocity":0.07874015748031496,"duration":"0.03"},{"name":"B5","midi":83,"time":"266.01","velocity":0.14173228346456693,"duration":"0.05"},{"name":"C6","midi":84,"time":"266.01","velocity":0.1968503937007874,"duration":"0.12"},{"name":"G6","midi":91,"time":"266.01","velocity":0.2047244094488189,"duration":"0.22"},{"name":"E4","midi":64,"time":"266.02","velocity":0.2047244094488189,"duration":"0.07"},{"name":"D#6","midi":87,"time":"266.03","velocity":0.07874015748031496,"duration":"0.07"},{"name":"G#5","midi":80,"time":"266.05","velocity":0.25196850393700787,"duration":"0.06"},{"name":"E3","midi":52,"time":"266.06","velocity":0.4566929133858268,"duration":"0.02"},{"name":"F6","midi":89,"time":"266.06","velocity":0.12598425196850394,"duration":"0.13"},{"name":"A#5","midi":82,"time":"266.07","velocity":0.13385826771653545,"duration":"0.07"},{"name":"C#4","midi":61,"time":"266.08","velocity":0.1968503937007874,"duration":"0.03"},{"name":"E3","midi":52,"time":"266.09","velocity":0.4330708661417323,"duration":"0.05"},{"name":"A#6","midi":94,"time":"266.09","velocity":0.14173228346456693,"duration":"0.16"},{"name":"B6","midi":95,"time":"266.10","velocity":0.10236220472440945,"duration":"0.10"},{"name":"G1","midi":31,"time":"266.12","velocity":0.3779527559055118,"duration":"0.03"},{"name":"G4","midi":67,"time":"266.13","velocity":0.2047244094488189,"duration":"0.03"},{"name":"D6","midi":86,"time":"266.13","velocity":0.12598425196850394,"duration":"0.03"},{"name":"D#6","midi":87,"time":"266.13","velocity":0.12598425196850394,"duration":"0.06"},{"name":"E3","midi":52,"time":"266.15","velocity":0.4094488188976378,"duration":"0.02"},{"name":"F#4","midi":66,"time":"266.16","velocity":0.36220472440944884,"duration":"0.13"},{"name":"A#5","midi":82,"time":"266.16","velocity":0.11811023622047244,"duration":"0.05"},{"name":"E3","midi":52,"time":"266.21","velocity":0.3858267716535433,"duration":"0.02"},{"name":"B4","midi":71,"time":"266.21","velocity":0.14960629921259844,"duration":"0.06"},{"name":"D#6","midi":87,"time":"266.21","velocity":0.09448818897637795,"duration":"0.05"},{"name":"F6","midi":89,"time":"266.22","velocity":0.12598425196850394,"duration":"0.07"},{"name":"C#4","midi":61,"time":"266.24","velocity":0.33070866141732286,"duration":"0.05"},{"name":"G7","midi":103,"time":"266.26","velocity":0.28346456692913385,"duration":"0.07"},{"name":"G6","midi":91,"time":"266.28","velocity":0.25984251968503935,"duration":"0.16"},{"name":"F7","midi":101,"time":"266.28","velocity":0.2283464566929134,"duration":"0.17"},{"name":"A#2","midi":46,"time":"266.29","velocity":0.6220472440944882,"duration":"0.01"},{"name":"F4","midi":65,"time":"266.29","velocity":0.3543307086614173,"duration":"0.03"},{"name":"G#4","midi":68,"time":"266.29","velocity":0.2755905511811024,"duration":"0.02"},{"name":"A#4","midi":70,"time":"266.29","velocity":0.29133858267716534,"duration":"0.05"},{"name":"C5","midi":72,"time":"266.29","velocity":0.2755905511811024,"duration":"0.03"},{"name":"D5","midi":74,"time":"266.29","velocity":0.23622047244094488,"duration":"0.05"},{"name":"G#5","midi":80,"time":"266.29","velocity":0.29133858267716534,"duration":"0.08"},{"name":"A#6","midi":94,"time":"266.29","velocity":0.14173228346456693,"duration":"0.03"},{"name":"B6","midi":95,"time":"266.29","velocity":0.14173228346456693,"duration":"0.09"},{"name":"C7","midi":96,"time":"266.29","velocity":0.18110236220472442,"duration":"0.13"},{"name":"D7","midi":98,"time":"266.29","velocity":0.18110236220472442,"duration":"0.05"},{"name":"D#7","midi":99,"time":"266.29","velocity":0.18110236220472442,"duration":"0.15"},{"name":"E7","midi":100,"time":"266.29","velocity":0.1968503937007874,"duration":"0.06"},{"name":"F2","midi":41,"time":"266.30","velocity":0.7007874015748031,"duration":"0.03"},{"name":"D#3","midi":51,"time":"266.30","velocity":0.5669291338582677,"duration":"0.01"},{"name":"E5","midi":76,"time":"266.30","velocity":0.3228346456692913,"duration":"0.37"},{"name":"E3","midi":52,"time":"266.31","velocity":0.5433070866141733,"duration":"0.02"},{"name":"D#6","midi":87,"time":"266.31","velocity":0.11023622047244094,"duration":"0.05"},{"name":"F6","midi":89,"time":"266.31","velocity":0.18110236220472442,"duration":"0.09"},{"name":"B1","midi":35,"time":"266.33","velocity":0.5118110236220472,"duration":"0.01"},{"name":"C#4","midi":61,"time":"266.33","velocity":0.44881889763779526,"duration":"0.35"},{"name":"B5","midi":83,"time":"266.33","velocity":0.11023622047244094,"duration":"0.03"},{"name":"F1","midi":29,"time":"266.34","velocity":0.6299212598425197,"duration":"0.03"},{"name":"G2","midi":43,"time":"266.34","velocity":0.5748031496062992,"duration":"0.01"},{"name":"A4","midi":69,"time":"266.34","velocity":0.25984251968503935,"duration":"0.03"},{"name":"A5","midi":81,"time":"266.34","velocity":0.3543307086614173,"duration":"0.23"},{"name":"A#6","midi":94,"time":"266.34","velocity":0.08661417322834646,"duration":"0.03"},{"name":"A2","midi":45,"time":"266.35","velocity":0.5275590551181102,"duration":"0.01"},{"name":"A#2","midi":46,"time":"266.36","velocity":0.5826771653543307,"duration":"0.01"},{"name":"F#4","midi":66,"time":"266.36","velocity":0.33858267716535434,"duration":"0.05"},{"name":"A2","midi":45,"time":"266.37","velocity":0.6220472440944882,"duration":"0.29"},{"name":"E3","midi":52,"time":"266.37","velocity":0.47244094488188976,"duration":"0.05"},{"name":"B4","midi":71,"time":"266.37","velocity":0.2283464566929134,"duration":"0.06"},{"name":"G#5","midi":80,"time":"266.38","velocity":0.2677165354330709,"duration":"0.14"},{"name":"A#4","midi":70,"time":"266.41","velocity":0.11811023622047244,"duration":"0.05"},{"name":"E3","midi":52,"time":"266.44","velocity":0.44881889763779526,"duration":"0.10"},{"name":"F#4","midi":66,"time":"266.44","velocity":0.33070866141732286,"duration":"0.07"},{"name":"B4","midi":71,"time":"266.44","velocity":0.13385826771653545,"duration":"0.05"},{"name":"F#5","midi":78,"time":"266.44","velocity":0.3858267716535433,"duration":"0.29"},{"name":"F6","midi":89,"time":"266.44","velocity":0.1968503937007874,"duration":"0.06"},{"name":"A#5","midi":82,"time":"266.45","velocity":0.12598425196850394,"duration":"0.03"},{"name":"B6","midi":95,"time":"266.49","velocity":0.11023622047244094,"duration":"0.06"},{"name":"D#6","midi":87,"time":"266.51","velocity":0.15748031496062992,"duration":"0.06"},{"name":"C7","midi":96,"time":"266.51","velocity":0.08661417322834646,"duration":"0.06"},{"name":"F#4","midi":66,"time":"266.52","velocity":0.2755905511811024,"duration":"0.06"},{"name":"A#6","midi":94,"time":"266.52","velocity":0.3464566929133858,"duration":"0.21"},{"name":"F6","midi":89,"time":"266.55","velocity":0.09448818897637795,"duration":"0.03"},{"name":"E3","midi":52,"time":"266.56","velocity":0.3858267716535433,"duration":"0.02"},{"name":"G#5","midi":80,"time":"266.56","velocity":0.36220472440944884,"duration":"0.15"},{"name":"B4","midi":71,"time":"266.57","velocity":0.18110236220472442,"duration":"0.09"},{"name":"B6","midi":95,"time":"266.57","velocity":0.09448818897637795,"duration":"0.03"},{"name":"E3","midi":52,"time":"266.59","velocity":0.3779527559055118,"duration":"0.05"},{"name":"A6","midi":93,"time":"266.59","velocity":0.12598425196850394,"duration":"0.07"},{"name":"F#4","midi":66,"time":"266.60","velocity":0.28346456692913385,"duration":"0.05"},{"name":"A5","midi":81,"time":"266.60","velocity":0.2440944881889764,"duration":"0.07"},{"name":"C7","midi":96,"time":"266.60","velocity":0.2047244094488189,"duration":"0.21"},{"name":"F6","midi":89,"time":"266.62","velocity":0.30708661417322836,"duration":"0.21"},{"name":"G6","midi":91,"time":"266.65","velocity":0.23622047244094488,"duration":"0.02"},{"name":"B6","midi":95,"time":"266.65","velocity":0.2440944881889764,"duration":"0.24"},{"name":"F#4","midi":66,"time":"266.66","velocity":0.5118110236220472,"duration":"0.01"},{"name":"B5","midi":83,"time":"266.66","velocity":0.41732283464566927,"duration":"0.09"},{"name":"D6","midi":86,"time":"266.66","velocity":0.4330708661417323,"duration":"0.06"},{"name":"D#7","midi":99,"time":"266.66","velocity":0.1889763779527559,"duration":"0.13"},{"name":"E7","midi":100,"time":"266.66","velocity":0.2125984251968504,"duration":"0.13"},{"name":"A#2","midi":46,"time":"266.67","velocity":0.47244094488188976,"duration":"0.02"},{"name":"C4","midi":60,"time":"266.67","velocity":0.5039370078740157,"duration":"0.03"},{"name":"E4","midi":64,"time":"266.67","velocity":0.5433070866141733,"duration":"0.03"},{"name":"G#4","midi":68,"time":"266.67","velocity":0.5748031496062992,"duration":"0.01"},{"name":"A#5","midi":82,"time":"266.67","velocity":0.3228346456692913,"duration":"0.06"},{"name":"E6","midi":88,"time":"266.67","velocity":0.3700787401574803,"duration":"0.19"},{"name":"A6","midi":93,"time":"266.67","velocity":0.3464566929133858,"duration":"0.23"},{"name":"A4","midi":69,"time":"266.69","velocity":0.5669291338582677,"duration":"0.03"},{"name":"A2","midi":45,"time":"266.70","velocity":0.5748031496062992,"duration":"0.35"},{"name":"E3","midi":52,"time":"266.70","velocity":0.5196850393700787,"duration":"0.19"},{"name":"C6","midi":84,"time":"266.70","velocity":0.2204724409448819,"duration":"0.03"},{"name":"G6","midi":91,"time":"266.71","velocity":0.23622047244094488,"duration":"0.13"},{"name":"F#4","midi":66,"time":"266.72","velocity":0.3779527559055118,"duration":"0.05"},{"name":"G#5","midi":80,"time":"266.72","velocity":0.4566929133858268,"duration":"0.33"},{"name":"D#6","midi":87,"time":"266.72","velocity":0.2125984251968504,"duration":"0.09"},{"name":"A4","midi":69,"time":"266.73","velocity":0.44881889763779526,"duration":"0.03"},{"name":"F5","midi":77,"time":"266.73","velocity":0.33858267716535434,"duration":"0.03"},{"name":"E5","midi":76,"time":"266.74","velocity":0.2755905511811024,"duration":"0.03"},{"name":"A#5","midi":82,"time":"266.74","velocity":0.25984251968503935,"duration":"0.03"},{"name":"F#6","midi":90,"time":"266.74","velocity":0.4094488188976378,"duration":"0.85"},{"name":"A#3","midi":58,"time":"266.76","velocity":0.3700787401574803,"duration":"0.03"},{"name":"G#4","midi":68,"time":"266.76","velocity":0.30708661417322836,"duration":"0.02"},{"name":"A#4","midi":70,"time":"266.77","velocity":0.41732283464566927,"duration":"0.02"},{"name":"C#5","midi":73,"time":"266.77","velocity":0.36220472440944884,"duration":"0.28"},{"name":"D#5","midi":75,"time":"266.77","velocity":0.25196850393700787,"duration":"0.03"},{"name":"F#5","midi":78,"time":"266.77","velocity":0.44881889763779526,"duration":"0.33"},{"name":"F5","midi":77,"time":"266.78","velocity":0.2440944881889764,"duration":"0.02"},{"name":"C6","midi":84,"time":"266.78","velocity":0.14173228346456693,"duration":"0.03"},{"name":"F4","midi":65,"time":"266.79","velocity":0.2755905511811024,"duration":"0.03"},{"name":"A4","midi":69,"time":"266.79","velocity":0.4330708661417323,"duration":"0.30"},{"name":"A#3","midi":58,"time":"266.80","velocity":0.4094488188976378,"duration":"0.02"},{"name":"A#5","midi":82,"time":"266.81","velocity":0.1968503937007874,"duration":"0.09"},{"name":"B3","midi":59,"time":"266.83","velocity":0.33858267716535434,"duration":"0.02"},{"name":"A#3","midi":58,"time":"266.85","velocity":0.3858267716535433,"duration":"0.03"},{"name":"E5","midi":76,"time":"266.85","velocity":0.2283464566929134,"duration":"0.21"},{"name":"C6","midi":84,"time":"266.85","velocity":0.08661417322834646,"duration":"0.05"},{"name":"F6","midi":89,"time":"266.85","velocity":0.16535433070866143,"duration":"0.05"},{"name":"C7","midi":96,"time":"266.85","velocity":0.15748031496062992,"duration":"0.10"},{"name":"F#4","midi":66,"time":"266.87","velocity":0.2992125984251969,"duration":"0.02"},{"name":"B5","midi":83,"time":"266.87","velocity":0.15748031496062992,"duration":"0.16"},{"name":"E3","midi":52,"time":"266.90","velocity":0.47244094488188976,"duration":"0.13"},{"name":"A#3","midi":58,"time":"266.90","velocity":0.4330708661417323,"duration":"0.05"},{"name":"A#6","midi":94,"time":"266.90","velocity":0.2440944881889764,"duration":"0.19"},{"name":"G5","midi":79,"time":"266.91","velocity":0.2204724409448819,"duration":"0.03"},{"name":"E7","midi":100,"time":"266.92","velocity":0.11023622047244094,"duration":"0.05"},{"name":"A#5","midi":82,"time":"266.94","velocity":0.14960629921259844,"duration":"0.03"},{"name":"F6","midi":89,"time":"266.94","velocity":0.2125984251968504,"duration":"0.12"},{"name":"G7","midi":103,"time":"266.94","velocity":0.2677165354330709,"duration":"0.27"},{"name":"F4","midi":65,"time":"266.97","velocity":0.2992125984251969,"duration":"0.02"},{"name":"F#4","midi":66,"time":"266.99","velocity":0.47244094488188976,"duration":"0.29"},{"name":"A#3","midi":58,"time":"267.02","velocity":0.4409448818897638,"duration":"0.03"},{"name":"C#6","midi":85,"time":"267.02","velocity":0.3858267716535433,"duration":"0.37"},{"name":"D#3","midi":51,"time":"267.03","velocity":0.5039370078740157,"duration":"0.03"},{"name":"D4","midi":62,"time":"267.03","velocity":0.3464566929133858,"duration":"0.03"},{"name":"C6","midi":84,"time":"267.03","velocity":0.18110236220472442,"duration":"0.03"},{"name":"G6","midi":91,"time":"267.03","velocity":0.25196850393700787,"duration":"0.24"},{"name":"A6","midi":93,"time":"267.03","velocity":0.16535433070866143,"duration":"0.03"},{"name":"F7","midi":101,"time":"267.03","velocity":0.2755905511811024,"duration":"0.17"},{"name":"G#2","midi":44,"time":"267.05","velocity":0.5590551181102362,"duration":"0.03"},{"name":"E6","midi":88,"time":"267.05","velocity":0.28346456692913385,"duration":"0.24"},{"name":"D7","midi":98,"time":"267.05","velocity":0.13385826771653545,"duration":"0.05"},{"name":"B5","midi":83,"time":"267.06","velocity":0.11023622047244094,"duration":"0.03"},{"name":"G#6","midi":92,"time":"267.06","velocity":0.2755905511811024,"duration":"0.14"},{"name":"E3","midi":52,"time":"267.07","velocity":0.5118110236220472,"duration":"0.22"},{"name":"A#5","midi":82,"time":"267.07","velocity":0.25984251968503935,"duration":"0.02"},{"name":"D#6","midi":87,"time":"267.07","velocity":0.11023622047244094,"duration":"0.03"},{"name":"D#7","midi":99,"time":"267.07","velocity":0.14960629921259844,"duration":"0.10"},{"name":"A2","midi":45,"time":"267.08","velocity":0.5826771653543307,"duration":"0.31"},{"name":"A#3","midi":58,"time":"267.08","velocity":0.3464566929133858,"duration":"0.03"},{"name":"D4","midi":62,"time":"267.08","velocity":0.28346456692913385,"duration":"0.02"},{"name":"C#5","midi":73,"time":"267.08","velocity":0.2992125984251969,"duration":"0.08"},{"name":"E5","midi":76,"time":"267.08","velocity":0.30708661417322836,"duration":"0.12"},{"name":"G#5","midi":80,"time":"267.08","velocity":0.36220472440944884,"duration":"0.17"},{"name":"A6","midi":93,"time":"267.08","velocity":0.25984251968503935,"duration":"0.02"},{"name":"B6","midi":95,"time":"267.08","velocity":0.14173228346456693,"duration":"0.05"},{"name":"F#5","midi":78,"time":"267.10","velocity":0.4881889763779528,"duration":"0.33"},{"name":"F6","midi":89,"time":"267.10","velocity":0.13385826771653545,"duration":"0.06"},{"name":"A#6","midi":94,"time":"267.10","velocity":0.12598425196850394,"duration":"0.05"},{"name":"A4","midi":69,"time":"267.12","velocity":0.2125984251968504,"duration":"0.06"},{"name":"A6","midi":93,"time":"267.12","velocity":0.25196850393700787,"duration":"0.10"},{"name":"D7","midi":98,"time":"267.12","velocity":0.11811023622047244,"duration":"0.10"},{"name":"A5","midi":81,"time":"267.13","velocity":0.2755905511811024,"duration":"0.05"},{"name":"B5","midi":83,"time":"267.13","velocity":0.16535433070866143,"duration":"0.09"},{"name":"C4","midi":60,"time":"267.16","velocity":0.36220472440944884,"duration":"0.02"},{"name":"D#7","midi":99,"time":"267.19","velocity":0.09448818897637795,"duration":"0.03"},{"name":"A#6","midi":94,"time":"267.20","velocity":0.13385826771653545,"duration":"0.06"},{"name":"E5","midi":76,"time":"267.21","velocity":0.28346456692913385,"duration":"0.02"},{"name":"D#6","midi":87,"time":"267.21","velocity":0.08661417322834646,"duration":"0.05"},{"name":"C#4","midi":61,"time":"267.22","velocity":0.3228346456692913,"duration":"0.05"},{"name":"A#5","midi":82,"time":"267.23","velocity":0.1889763779527559,"duration":"0.09"},{"name":"A6","midi":93,"time":"267.23","velocity":0.2047244094488189,"duration":"0.05"},{"name":"C7","midi":96,"time":"267.23","velocity":0.2440944881889764,"duration":"0.06"},{"name":"F6","midi":89,"time":"267.24","velocity":0.07086614173228346,"duration":"0.03"},{"name":"F7","midi":101,"time":"267.24","velocity":0.2440944881889764,"duration":"0.26"},{"name":"E5","midi":76,"time":"267.26","velocity":0.14173228346456693,"duration":"0.07"},{"name":"G#5","midi":80,"time":"267.27","velocity":0.36220472440944884,"duration":"0.03"},{"name":"D#7","midi":99,"time":"267.27","velocity":0.07086614173228346,"duration":"0.03"},{"name":"B5","midi":83,"time":"267.28","velocity":0.1732283464566929,"duration":"0.03"},{"name":"F#4","midi":66,"time":"267.29","velocity":0.44881889763779526,"duration":"0.10"},{"name":"E3","midi":52,"time":"267.30","velocity":0.47244094488188976,"duration":"0.06"},{"name":"F6","midi":89,"time":"267.30","velocity":0.10236220472440945,"duration":"0.06"},{"name":"A5","midi":81,"time":"267.31","velocity":0.18110236220472442,"duration":"0.03"},{"name":"E7","midi":100,"time":"267.31","velocity":0.11811023622047244,"duration":"0.07"},{"name":"A6","midi":93,"time":"267.34","velocity":0.2283464566929134,"duration":"0.29"},{"name":"E5","midi":76,"time":"267.35","velocity":0.15748031496062992,"duration":"0.06"},{"name":"C7","midi":96,"time":"267.37","velocity":0.11811023622047244,"duration":"0.08"},{"name":"D7","midi":98,"time":"267.37","velocity":0.25984251968503935,"duration":"0.13"},{"name":"F3","midi":53,"time":"267.38","velocity":0.5196850393700787,"duration":"0.03"},{"name":"G#6","midi":92,"time":"267.38","velocity":0.33070866141732286,"duration":"0.40"},{"name":"G4","midi":67,"time":"267.40","velocity":0.31496062992125984,"duration":"0.03"},{"name":"G#5","midi":80,"time":"267.40","velocity":0.16535433070866143,"duration":"0.05"},{"name":"F6","midi":89,"time":"267.40","velocity":0.2204724409448819,"duration":"0.06"},{"name":"D#2","midi":39,"time":"267.41","velocity":0.6535433070866141,"duration":"0.03"},{"name":"B4","midi":71,"time":"267.41","velocity":0.2440944881889764,"duration":"0.02"},{"name":"B5","midi":83,"time":"267.41","velocity":0.41732283464566927,"duration":"0.36"},{"name":"G6","midi":91,"time":"267.41","velocity":0.30708661417322836,"duration":"0.12"},{"name":"A4","midi":69,"time":"267.42","velocity":0.3464566929133858,"duration":"0.03"},{"name":"D6","midi":86,"time":"267.42","velocity":0.2677165354330709,"duration":"0.15"},{"name":"D#7","midi":99,"time":"267.42","velocity":0.13385826771653545,"duration":"0.07"},{"name":"E7","midi":100,"time":"267.42","velocity":0.1732283464566929,"duration":"0.06"},{"name":"F#4","midi":66,"time":"267.43","velocity":0.4251968503937008,"duration":"0.02"},{"name":"C5","midi":72,"time":"267.43","velocity":0.2992125984251969,"duration":"0.02"},{"name":"D5","midi":74,"time":"267.43","velocity":0.28346456692913385,"duration":"0.05"},{"name":"G5","midi":79,"time":"267.43","velocity":0.2204724409448819,"duration":"0.05"},{"name":"E6","midi":88,"time":"267.43","velocity":0.2755905511811024,"duration":"0.19"},{"name":"F2","midi":41,"time":"267.44","velocity":0.6929133858267716,"duration":"0.02"},{"name":"D3","midi":50,"time":"267.44","velocity":0.5511811023622047,"duration":"0.01"},{"name":"B4","midi":71,"time":"267.44","velocity":0.4566929133858268,"duration":"0.36"},{"name":"A#6","midi":94,"time":"267.44","velocity":0.1889763779527559,"duration":"0.07"},{"name":"D#3","midi":51,"time":"267.45","velocity":0.47244094488188976,"duration":"0.02"},{"name":"E4","midi":64,"time":"267.45","velocity":0.4330708661417323,"duration":"0.35"},{"name":"G#4","midi":68,"time":"267.45","velocity":0.33858267716535434,"duration":"0.10"},{"name":"F#2","midi":42,"time":"267.47","velocity":0.5905511811023622,"duration":"0.01"},{"name":"D#5","midi":75,"time":"267.47","velocity":0.2755905511811024,"duration":"0.06"},{"name":"C7","midi":96,"time":"267.47","velocity":0.11811023622047244,"duration":"0.03"},{"name":"F#1","midi":30,"time":"267.48","velocity":0.5511811023622047,"duration":"0.01"},{"name":"G#2","midi":44,"time":"267.48","velocity":0.5275590551181102,"duration":"0.01"},{"name":"F3","midi":53,"time":"267.48","velocity":0.5275590551181102,"duration":"0.02"},{"name":"F#5","midi":78,"time":"267.48","velocity":0.2677165354330709,"duration":"0.27"},{"name":"C2","midi":36,"time":"267.50","velocity":0.5118110236220472,"duration":"0.01"},{"name":"E3","midi":52,"time":"267.50","velocity":0.5826771653543307,"duration":"0.01"},{"name":"C#2","midi":37,"time":"267.51","velocity":0.5354330708661418,"duration":"0.02"},{"name":"D#3","midi":51,"time":"267.51","velocity":0.5826771653543307,"duration":"0.01"},{"name":"C#5","midi":73,"time":"267.51","velocity":0.1889763779527559,"duration":"0.05"},{"name":"E3","midi":52,"time":"267.52","velocity":0.6141732283464567,"duration":"0.28"},{"name":"C7","midi":96,"time":"267.52","velocity":0.07874015748031496,"duration":"0.03"},{"name":"D#5","midi":75,"time":"267.53","velocity":0.2440944881889764,"duration":"0.02"},{"name":"D5","midi":74,"time":"267.56","velocity":0.2125984251968504,"duration":"0.05"},{"name":"A5","midi":81,"time":"267.56","velocity":0.18110236220472442,"duration":"0.03"},{"name":"G#4","midi":68,"time":"267.57","velocity":0.3858267716535433,"duration":"0.29"},{"name":"G7","midi":103,"time":"267.58","velocity":0.10236220472440945,"duration":"0.06"},{"name":"C#7","midi":97,"time":"267.59","velocity":0.09448818897637795,"duration":"0.03"},{"name":"F#6","midi":90,"time":"267.60","velocity":0.33858267716535434,"duration":"0.33"},{"name":"E2","midi":40,"time":"267.62","velocity":0.4330708661417323,"duration":"0.06"},{"name":"B3","midi":59,"time":"267.62","velocity":0.2204724409448819,"duration":"0.03"},{"name":"D6","midi":86,"time":"267.62","velocity":0.31496062992125984,"duration":"0.37"},{"name":"C#5","midi":73,"time":"267.64","velocity":0.11023622047244094,"duration":"0.03"},{"name":"A6","midi":93,"time":"267.65","velocity":0.2047244094488189,"duration":"0.28"},{"name":"B3","midi":59,"time":"267.66","velocity":0.3228346456692913,"duration":"0.14"},{"name":"E2","midi":40,"time":"267.69","velocity":0.4566929133858268,"duration":"0.08"},{"name":"D5","midi":74,"time":"267.69","velocity":0.11023622047244094,"duration":"0.03"},{"name":"A5","midi":81,"time":"267.69","velocity":0.1968503937007874,"duration":"0.05"},{"name":"D#6","midi":87,"time":"267.70","velocity":0.15748031496062992,"duration":"0.03"},{"name":"C6","midi":84,"time":"267.73","velocity":0.1968503937007874,"duration":"0.05"},{"name":"D#7","midi":99,"time":"267.73","velocity":0.2047244094488189,"duration":"0.23"},{"name":"A5","midi":81,"time":"267.74","velocity":0.18110236220472442,"duration":"0.07"},{"name":"F#5","midi":78,"time":"267.77","velocity":0.3464566929133858,"duration":"0.40"},{"name":"C#7","midi":97,"time":"267.77","velocity":0.2047244094488189,"duration":"0.24"},{"name":"G7","midi":103,"time":"267.78","velocity":0.18110236220472442,"duration":"0.15"},{"name":"F2","midi":41,"time":"267.79","velocity":0.5748031496062992,"duration":"0.07"},{"name":"C6","midi":84,"time":"267.79","velocity":0.2204724409448819,"duration":"0.08"},{"name":"D#6","midi":87,"time":"267.79","velocity":0.11811023622047244,"duration":"0.03"},{"name":"F7","midi":101,"time":"267.79","velocity":0.2677165354330709,"duration":"0.19"},{"name":"G6","midi":91,"time":"267.80","velocity":0.1732283464566929,"duration":"0.17"},{"name":"G#6","midi":92,"time":"267.80","velocity":0.2755905511811024,"duration":"0.22"},{"name":"A#6","midi":94,"time":"267.80","velocity":0.1732283464566929,"duration":"0.10"},{"name":"E7","midi":100,"time":"267.80","velocity":0.18110236220472442,"duration":"0.07"},{"name":"B4","midi":71,"time":"267.81","velocity":0.3937007874015748,"duration":"0.12"},{"name":"A#5","midi":82,"time":"267.81","velocity":0.14173228346456693,"duration":"0.03"},{"name":"E4","midi":64,"time":"267.83","velocity":0.5039370078740157,"duration":"0.35"},{"name":"E6","midi":88,"time":"267.83","velocity":0.33070866141732286,"duration":"0.15"},{"name":"E3","midi":52,"time":"267.84","velocity":0.5433070866141733,"duration":"0.30"},{"name":"B3","midi":59,"time":"267.84","velocity":0.3858267716535433,"duration":"0.19"},{"name":"B5","midi":83,"time":"267.85","velocity":0.4409448818897638,"duration":"0.41"},{"name":"D#6","midi":87,"time":"267.85","velocity":0.18110236220472442,"duration":"0.06"},{"name":"C#5","midi":73,"time":"267.86","velocity":0.09448818897637795,"duration":"0.03"},{"name":"D#2","midi":39,"time":"267.87","velocity":0.5196850393700787,"duration":"0.01"},{"name":"A5","midi":81,"time":"267.87","velocity":0.1889763779527559,"duration":"0.14"},{"name":"E2","midi":40,"time":"267.88","velocity":0.5669291338582677,"duration":"0.28"},{"name":"G#4","midi":68,"time":"267.91","velocity":0.5590551181102362,"duration":"0.30"},{"name":"D#6","midi":87,"time":"267.92","velocity":0.2047244094488189,"duration":"0.14"},{"name":"D5","midi":74,"time":"267.93","velocity":0.12598425196850394,"duration":"0.06"},{"name":"B4","midi":71,"time":"267.94","velocity":0.5433070866141733,"duration":"0.24"},{"name":"A#6","midi":94,"time":"267.94","velocity":0.12598425196850394,"duration":"0.15"},{"name":"F#6","midi":90,"time":"267.95","velocity":0.4094488188976378,"duration":"1.63"},{"name":"D7","midi":98,"time":"268.00","velocity":0.11023622047244094,"duration":"0.03"},{"name":"D6","midi":86,"time":"268.01","velocity":0.1968503937007874,"duration":"0.07"},{"name":"A5","midi":81,"time":"268.02","velocity":0.14173228346456693,"duration":"0.05"},{"name":"A6","midi":93,"time":"268.05","velocity":0.28346456692913385,"duration":"0.23"},{"name":"D#6","midi":87,"time":"268.07","velocity":0.2125984251968504,"duration":"0.06"},{"name":"E6","midi":88,"time":"268.07","velocity":0.33070866141732286,"duration":"0.16"},{"name":"A5","midi":81,"time":"268.08","velocity":0.2204724409448819,"duration":"0.14"},{"name":"B3","midi":59,"time":"268.09","velocity":0.25984251968503935,"duration":"0.05"},{"name":"D6","midi":86,"time":"268.12","velocity":0.31496062992125984,"duration":"0.21"},{"name":"C4","midi":60,"time":"268.14","velocity":0.28346456692913385,"duration":"0.02"},{"name":"D#7","midi":99,"time":"268.14","velocity":0.2440944881889764,"duration":"0.33"},{"name":"F2","midi":41,"time":"268.16","velocity":0.5590551181102362,"duration":"0.01"},{"name":"F3","midi":53,"time":"268.17","velocity":0.5826771653543307,"duration":"0.02"},{"name":"A#4","midi":70,"time":"268.17","velocity":0.4094488188976378,"duration":"0.02"},{"name":"C#5","midi":73,"time":"268.17","velocity":0.4015748031496063,"duration":"0.03"},{"name":"F#5","midi":78,"time":"268.17","velocity":0.28346456692913385,"duration":"0.02"},{"name":"G#6","midi":92,"time":"268.17","velocity":0.33858267716535434,"duration":"0.15"},{"name":"A#6","midi":94,"time":"268.17","velocity":0.31496062992125984,"duration":"0.30"},{"name":"C7","midi":96,"time":"268.17","velocity":0.2992125984251969,"duration":"0.19"},{"name":"C#7","midi":97,"time":"268.17","velocity":0.28346456692913385,"duration":"0.10"},{"name":"E4","midi":64,"time":"268.19","velocity":0.5669291338582677,"duration":"0.03"},{"name":"D#6","midi":87,"time":"268.19","velocity":0.2755905511811024,"duration":"0.37"},{"name":"F7","midi":101,"time":"268.19","velocity":0.31496062992125984,"duration":"0.14"},{"name":"E2","midi":40,"time":"268.20","velocity":0.41732283464566927,"duration":"0.03"},{"name":"E3","midi":52,"time":"268.20","velocity":0.5511811023622047,"duration":"0.10"},{"name":"G5","midi":79,"time":"268.20","velocity":0.28346456692913385,"duration":"0.02"},{"name":"A#5","midi":82,"time":"268.20","velocity":0.30708661417322836,"duration":"0.03"},{"name":"A#3","midi":58,"time":"268.21","velocity":0.3543307086614173,"duration":"0.02"},{"name":"A4","midi":69,"time":"268.21","velocity":0.5826771653543307,"duration":"0.03"},{"name":"C5","midi":72,"time":"268.21","velocity":0.4251968503937008,"duration":"0.02"},{"name":"D#5","midi":75,"time":"268.21","velocity":0.4251968503937008,"duration":"0.06"},{"name":"F#5","midi":78,"time":"268.21","velocity":0.3228346456692913,"duration":"0.03"},{"name":"F4","midi":65,"time":"268.22","velocity":0.4566929133858268,"duration":"0.02"},{"name":"G#5","midi":80,"time":"268.22","velocity":0.4330708661417323,"duration":"0.34"},{"name":"F6","midi":89,"time":"268.22","velocity":0.15748031496062992,"duration":"0.08"},{"name":"B3","midi":59,"time":"268.23","velocity":0.3858267716535433,"duration":"0.03"},{"name":"E2","midi":40,"time":"268.24","velocity":0.5118110236220472,"duration":"0.28"},{"name":"F#4","midi":66,"time":"268.24","velocity":0.33070866141732286,"duration":"0.02"},{"name":"G#4","midi":68,"time":"268.24","velocity":0.3937007874015748,"duration":"0.08"},{"name":"B4","midi":71,"time":"268.24","velocity":0.4566929133858268,"duration":"0.38"},{"name":"E5","midi":76,"time":"268.24","velocity":0.3700787401574803,"duration":"0.07"},{"name":"A#5","midi":82,"time":"268.24","velocity":0.23622047244094488,"duration":"0.03"},{"name":"C6","midi":84,"time":"268.24","velocity":0.31496062992125984,"duration":"0.12"},{"name":"D5","midi":74,"time":"268.27","velocity":0.2755905511811024,"duration":"0.02"},{"name":"B3","midi":59,"time":"268.28","velocity":0.2440944881889764,"duration":"0.02"},{"name":"F#4","midi":66,"time":"268.28","velocity":0.3228346456692913,"duration":"0.06"},{"name":"B5","midi":83,"time":"268.28","velocity":0.47244094488188976,"duration":"0.51"},{"name":"C#7","midi":97,"time":"268.29","velocity":0.1889763779527559,"duration":"0.08"},{"name":"D#3","midi":51,"time":"268.30","velocity":0.5118110236220472,"duration":"0.01"},{"name":"F5","midi":77,"time":"268.30","velocity":0.23622047244094488,"duration":"0.03"},{"name":"E3","midi":52,"time":"268.31","velocity":0.5984251968503937,"duration":"0.58"},{"name":"D#5","midi":75,"time":"268.31","velocity":0.3464566929133858,"duration":"0.03"},{"name":"A6","midi":93,"time":"268.31","velocity":0.12598425196850394,"duration":"0.03"},{"name":"F#5","midi":78,"time":"268.34","velocity":0.25984251968503935,"duration":"0.05"},{"name":"B3","midi":59,"time":"268.35","velocity":0.4330708661417323,"duration":"0.03"},{"name":"G#4","midi":68,"time":"268.35","velocity":0.2204724409448819,"duration":"0.08"},{"name":"D6","midi":86,"time":"268.36","velocity":0.16535433070866143,"duration":"0.08"},{"name":"E7","midi":100,"time":"268.37","velocity":0.2047244094488189,"duration":"0.34"},{"name":"D5","midi":74,"time":"268.38","velocity":0.33858267716535434,"duration":"0.08"},{"name":"A6","midi":93,"time":"268.38","velocity":0.11023622047244094,"duration":"0.09"},{"name":"C7","midi":96,"time":"268.38","velocity":0.14173228346456693,"duration":"0.08"},{"name":"F7","midi":101,"time":"268.38","velocity":0.1889763779527559,"duration":"0.12"},{"name":"A5","midi":81,"time":"268.41","velocity":0.16535433070866143,"duration":"0.05"},{"name":"C6","midi":84,"time":"268.43","velocity":0.25196850393700787,"duration":"0.09"},{"name":"F#5","midi":78,"time":"268.44","velocity":0.2283464566929134,"duration":"0.07"},{"name":"B3","midi":59,"time":"268.47","velocity":0.4330708661417323,"duration":"0.02"},{"name":"A5","midi":81,"time":"268.47","velocity":0.16535433070866143,"duration":"0.03"},{"name":"G#4","midi":68,"time":"268.49","velocity":0.25196850393700787,"duration":"0.10"},{"name":"D6","midi":86,"time":"268.50","velocity":0.30708661417322836,"duration":"0.29"},{"name":"C4","midi":60,"time":"268.51","velocity":0.3464566929133858,"duration":"0.02"},{"name":"F4","midi":65,"time":"268.51","velocity":0.28346456692913385,"duration":"0.02"},{"name":"A6","midi":93,"time":"268.51","velocity":0.1968503937007874,"duration":"0.12"},{"name":"F2","midi":41,"time":"268.52","velocity":0.5590551181102362,"duration":"0.02"},{"name":"F#5","midi":78,"time":"268.53","velocity":0.29133858267716534,"duration":"0.22"},{"name":"C6","midi":84,"time":"268.53","velocity":0.18110236220472442,"duration":"0.06"},{"name":"A#6","midi":94,"time":"268.53","velocity":0.2125984251968504,"duration":"0.15"},{"name":"B3","midi":59,"time":"268.55","velocity":0.4251968503937008,"duration":"0.02"},{"name":"G6","midi":91,"time":"268.55","velocity":0.1732283464566929,"duration":"0.09"},{"name":"G7","midi":103,"time":"268.55","velocity":0.2204724409448819,"duration":"0.03"},{"name":"G#6","midi":92,"time":"268.56","velocity":0.2204724409448819,"duration":"0.23"},{"name":"E2","midi":40,"time":"268.57","velocity":0.5039370078740157,"duration":"0.34"},{"name":"F#4","midi":66,"time":"268.57","velocity":0.33858267716535434,"duration":"0.03"},{"name":"G#5","midi":80,"time":"268.57","velocity":0.3543307086614173,"duration":"0.62"},{"name":"A#5","midi":82,"time":"268.57","velocity":0.1889763779527559,"duration":"0.05"},{"name":"D#7","midi":99,"time":"268.57","velocity":0.11023622047244094,"duration":"0.06"},{"name":"B3","midi":59,"time":"268.58","velocity":0.4251968503937008,"duration":"0.36"},{"name":"C#7","midi":97,"time":"268.59","velocity":0.25196850393700787,"duration":"0.15"},{"name":"F7","midi":101,"time":"268.59","velocity":0.1968503937007874,"duration":"0.08"},{"name":"G#4","midi":68,"time":"268.60","velocity":0.28346456692913385,"duration":"0.33"},{"name":"C6","midi":84,"time":"268.60","velocity":0.14173228346456693,"duration":"0.03"},{"name":"D#6","midi":87,"time":"268.62","velocity":0.25984251968503935,"duration":"0.12"},{"name":"A#5","midi":82,"time":"268.64","velocity":0.12598425196850394,"duration":"0.05"},{"name":"D5","midi":74,"time":"268.65","velocity":0.15748031496062992,"duration":"0.06"},{"name":"D#5","midi":75,"time":"268.67","velocity":0.15748031496062992,"duration":"0.05"},{"name":"D5","midi":74,"time":"268.73","velocity":0.14960629921259844,"duration":"0.05"},{"name":"A5","midi":81,"time":"268.74","velocity":0.15748031496062992,"duration":"0.10"},{"name":"D#6","midi":87,"time":"268.74","velocity":0.1968503937007874,"duration":"0.22"},{"name":"F#5","midi":78,"time":"268.77","velocity":0.2677165354330709,"duration":"0.17"},{"name":"C#5","midi":73,"time":"268.78","velocity":0.11023622047244094,"duration":"0.05"},{"name":"D6","midi":86,"time":"268.80","velocity":0.2755905511811024,"duration":"0.43"},{"name":"G7","midi":103,"time":"268.80","velocity":0.1732283464566929,"duration":"0.20"},{"name":"D5","midi":74,"time":"268.84","velocity":0.08661417322834646,"duration":"0.03"},{"name":"A5","midi":81,"time":"268.88","velocity":0.13385826771653545,"duration":"0.05"},{"name":"F3","midi":53,"time":"268.90","velocity":0.4409448818897638,"duration":"0.02"},{"name":"F2","midi":41,"time":"268.91","velocity":0.5511811023622047,"duration":"0.02"},{"name":"G6","midi":91,"time":"268.92","velocity":0.25984251968503935,"duration":"0.08"},{"name":"A#6","midi":94,"time":"268.92","velocity":0.18110236220472442,"duration":"0.16"},{"name":"C#7","midi":97,"time":"268.92","velocity":0.14960629921259844,"duration":"0.07"},{"name":"F7","midi":101,"time":"268.92","velocity":0.28346456692913385,"duration":"0.15"},{"name":"G2","midi":43,"time":"268.93","velocity":0.6062992125984252,"duration":"0.01"},{"name":"D#3","midi":51,"time":"268.93","velocity":0.6141732283464567,"duration":"0.01"},{"name":"D5","midi":74,"time":"268.93","velocity":0.25196850393700787,"duration":"0.03"},{"name":"A#5","midi":82,"time":"268.93","velocity":0.1732283464566929,"duration":"0.06"},{"name":"A6","midi":93,"time":"268.93","velocity":0.18110236220472442,"duration":"0.07"},{"name":"E7","midi":100,"time":"268.93","velocity":0.15748031496062992,"duration":"0.08"},{"name":"F#2","midi":42,"time":"268.94","velocity":0.6456692913385826,"duration":"0.01"},{"name":"E3","midi":52,"time":"268.94","velocity":0.6141732283464567,"duration":"0.06"},{"name":"C6","midi":84,"time":"268.94","velocity":0.16535433070866143,"duration":"0.05"},{"name":"C7","midi":96,"time":"268.94","velocity":0.16535433070866143,"duration":"0.05"},{"name":"F2","midi":41,"time":"268.95","velocity":0.5826771653543307,"duration":"0.01"},{"name":"F4","midi":65,"time":"268.95","velocity":0.31496062992125984,"duration":"0.02"},{"name":"G#4","midi":68,"time":"268.95","velocity":0.2755905511811024,"duration":"0.02"},{"name":"B4","midi":71,"time":"268.95","velocity":0.44881889763779526,"duration":"0.17"},{"name":"F#5","midi":78,"time":"268.95","velocity":0.31496062992125984,"duration":"0.40"},{"name":"F#2","midi":42,"time":"268.97","velocity":0.5433070866141733,"duration":"0.01"},{"name":"E6","midi":88,"time":"268.97","velocity":0.3464566929133858,"duration":"0.35"},{"name":"B3","midi":59,"time":"268.98","velocity":0.3464566929133858,"duration":"0.08"},{"name":"G1","midi":31,"time":"268.99","velocity":0.5196850393700787,"duration":"0.01"},{"name":"G#4","midi":68,"time":"268.99","velocity":0.3228346456692913,"duration":"0.31"},{"name":"D#6","midi":87,"time":"268.99","velocity":0.18110236220472442,"duration":"0.07"},{"name":"B1","midi":35,"time":"269.00","velocity":0.5905511811023622,"duration":"0.01"},{"name":"D#3","midi":51,"time":"269.00","velocity":0.5590551181102362,"duration":"0.01"},{"name":"F6","midi":89,"time":"269.00","velocity":0.10236220472440945,"duration":"0.03"},{"name":"D#2","midi":39,"time":"269.01","velocity":0.5511811023622047,"duration":"0.01"},{"name":"E3","midi":52,"time":"269.01","velocity":0.5669291338582677,"duration":"0.02"},{"name":"A6","midi":93,"time":"269.01","velocity":0.12598425196850394,"duration":"0.05"},{"name":"E2","midi":40,"time":"269.02","velocity":0.4330708661417323,"duration":"0.02"},{"name":"D#3","midi":51,"time":"269.03","velocity":0.5826771653543307,"duration":"0.01"},{"name":"E3","midi":52,"time":"269.05","velocity":0.5905511811023622,"duration":"0.22"},{"name":"D5","midi":74,"time":"269.07","velocity":0.14960629921259844,"duration":"0.08"},{"name":"E2","midi":40,"time":"269.08","velocity":0.4409448818897638,"duration":"0.05"},{"name":"D#6","midi":87,"time":"269.08","velocity":0.2283464566929134,"duration":"0.03"},{"name":"G7","midi":103,"time":"269.08","velocity":0.13385826771653545,"duration":"0.07"},{"name":"B3","midi":59,"time":"269.12","velocity":0.2283464566929134,"duration":"0.05"},{"name":"A6","midi":93,"time":"269.13","velocity":0.14173228346456693,"duration":"0.12"},{"name":"B4","midi":71,"time":"269.14","velocity":0.44881889763779526,"duration":"0.41"},{"name":"D#6","midi":87,"time":"269.14","velocity":0.14173228346456693,"duration":"0.03"},{"name":"E2","midi":40,"time":"269.16","velocity":0.5511811023622047,"duration":"0.14"},{"name":"A5","midi":81,"time":"269.16","velocity":0.10236220472440945,"duration":"0.05"},{"name":"G7","midi":103,"time":"269.20","velocity":0.08661417322834646,"duration":"0.06"},{"name":"D#6","midi":87,"time":"269.21","velocity":0.16535433070866143,"duration":"0.13"},{"name":"G#6","midi":92,"time":"269.21","velocity":0.14960629921259844,"duration":"0.08"},{"name":"C#7","midi":97,"time":"269.21","velocity":0.13385826771653545,"duration":"0.03"},{"name":"A5","midi":81,"time":"269.23","velocity":0.2047244094488189,"duration":"0.05"},{"name":"G#5","midi":80,"time":"269.24","velocity":0.36220472440944884,"duration":"0.08"},{"name":"A6","midi":93,"time":"269.26","velocity":0.30708661417322836,"duration":"0.17"},{"name":"D#3","midi":51,"time":"269.27","velocity":0.41732283464566927,"duration":"0.02"},{"name":"D#7","midi":99,"time":"269.27","velocity":0.2125984251968504,"duration":"0.06"},{"name":"C7","midi":96,"time":"269.28","velocity":0.14173228346456693,"duration":"0.06"},{"name":"F7","midi":101,"time":"269.28","velocity":0.23622047244094488,"duration":"0.13"},{"name":"G7","midi":103,"time":"269.29","velocity":0.2440944881889764,"duration":"0.13"},{"name":"D2","midi":38,"time":"269.30","velocity":0.6535433070866141,"duration":"0.02"},{"name":"A2","midi":45,"time":"269.30","velocity":0.5275590551181102,"duration":"0.01"},{"name":"C#6","midi":85,"time":"269.30","velocity":0.12598425196850394,"duration":"0.03"},{"name":"G6","midi":91,"time":"269.30","velocity":0.18110236220472442,"duration":"0.05"},{"name":"D7","midi":98,"time":"269.30","velocity":0.25984251968503935,"duration":"0.19"},{"name":"F#4","midi":66,"time":"269.31","velocity":0.4645669291338583,"duration":"0.03"},{"name":"C#5","midi":73,"time":"269.31","velocity":0.2755905511811024,"duration":"0.02"},{"name":"D5","midi":74,"time":"269.31","velocity":0.25984251968503935,"duration":"0.05"},{"name":"C6","midi":84,"time":"269.31","velocity":0.1889763779527559,"duration":"0.06"},{"name":"A#6","midi":94,"time":"269.31","velocity":0.14173228346456693,"duration":"0.14"},{"name":"C#7","midi":97,"time":"269.31","velocity":0.16535433070866143,"duration":"0.23"},{"name":"E7","midi":100,"time":"269.31","velocity":0.13385826771653545,"duration":"0.08"},{"name":"E2","midi":40,"time":"269.33","velocity":0.6377952755905512,"duration":"0.02"},{"name":"B3","midi":59,"time":"269.33","velocity":0.4409448818897638,"duration":"0.22"},{"name":"A5","midi":81,"time":"269.33","velocity":0.1968503937007874,"duration":"0.03"},{"name":"D6","midi":86,"time":"269.33","velocity":0.36220472440944884,"duration":"0.43"},{"name":"F6","midi":89,"time":"269.33","velocity":0.1732283464566929,"duration":"0.03"},{"name":"G#6","midi":92,"time":"269.33","velocity":0.23622047244094488,"duration":"0.24"},{"name":"D#3","midi":51,"time":"269.34","velocity":0.5590551181102362,"duration":"0.01"},{"name":"E4","midi":64,"time":"269.34","velocity":0.4409448818897638,"duration":"0.34"},{"name":"G#5","midi":80,"time":"269.34","velocity":0.2992125984251969,"duration":"0.34"},{"name":"E6","midi":88,"time":"269.34","velocity":0.33070866141732286,"duration":"0.14"},{"name":"D#7","midi":99,"time":"269.34","velocity":0.11811023622047244,"duration":"0.17"},{"name":"E1","midi":28,"time":"269.35","velocity":0.5826771653543307,"duration":"0.01"},{"name":"E3","midi":52,"time":"269.35","velocity":0.48031496062992124,"duration":"0.03"},{"name":"G#4","midi":68,"time":"269.35","velocity":0.30708661417322836,"duration":"0.33"},{"name":"D#6","midi":87,"time":"269.35","velocity":0.11023622047244094,"duration":"0.23"},{"name":"F1","midi":29,"time":"269.36","velocity":0.6141732283464567,"duration":"0.01"},{"name":"C#5","midi":73,"time":"269.36","velocity":0.1732283464566929,"duration":"0.07"},{"name":"D#1","midi":27,"time":"269.37","velocity":0.5196850393700787,"duration":"0.01"},{"name":"F#5","midi":78,"time":"269.37","velocity":0.1889763779527559,"duration":"0.08"},{"name":"D#3","midi":51,"time":"269.38","velocity":0.5511811023622047,"duration":"0.02"},{"name":"A5","midi":81,"time":"269.38","velocity":0.14173228346456693,"duration":"0.03"},{"name":"E3","midi":52,"time":"269.41","velocity":0.6141732283464567,"duration":"0.27"},{"name":"C6","midi":84,"time":"269.41","velocity":0.10236220472440945,"duration":"0.07"},{"name":"F6","midi":89,"time":"269.41","velocity":0.11811023622047244,"duration":"0.06"},{"name":"G7","midi":103,"time":"269.43","velocity":0.11023622047244094,"duration":"0.12"},{"name":"E2","midi":40,"time":"269.44","velocity":0.47244094488188976,"duration":"0.02"},{"name":"G6","midi":91,"time":"269.45","velocity":0.10236220472440945,"duration":"0.03"},{"name":"D5","midi":74,"time":"269.47","velocity":0.1732283464566929,"duration":"0.06"},{"name":"F#5","midi":78,"time":"269.47","velocity":0.3543307086614173,"duration":"0.22"},{"name":"A5","midi":81,"time":"269.47","velocity":0.15748031496062992,"duration":"0.05"},{"name":"E2","midi":40,"time":"269.48","velocity":0.4015748031496063,"duration":"0.02"},{"name":"D#2","midi":39,"time":"269.52","velocity":0.4566929133858268,"duration":"0.02"},{"name":"A5","midi":81,"time":"269.53","velocity":0.09448818897637795,"duration":"0.03"},{"name":"E2","midi":40,"time":"269.55","velocity":0.5039370078740157,"duration":"0.10"},{"name":"B4","midi":71,"time":"269.56","velocity":0.44881889763779526,"duration":"0.13"},{"name":"D#7","midi":99,"time":"269.56","velocity":0.13385826771653545,"duration":"0.05"},{"name":"A#6","midi":94,"time":"269.58","velocity":0.30708661417322836,"duration":"0.33"},{"name":"B3","midi":59,"time":"269.59","velocity":0.23622047244094488,"duration":"0.05"},{"name":"A5","midi":81,"time":"269.59","velocity":0.09448818897637795,"duration":"0.03"},{"name":"F#6","midi":90,"time":"269.59","velocity":0.4330708661417323,"duration":"0.35"},{"name":"C4","midi":60,"time":"269.64","velocity":0.2755905511811024,"duration":"0.02"},{"name":"A6","midi":93,"time":"269.64","velocity":0.25984251968503935,"duration":"0.08"},{"name":"G7","midi":103,"time":"269.64","velocity":0.2125984251968504,"duration":"0.06"},{"name":"F2","midi":41,"time":"269.65","velocity":0.5669291338582677,"duration":"0.05"},{"name":"F6","midi":89,"time":"269.65","velocity":0.2283464566929134,"duration":"0.12"},{"name":"C#5","midi":73,"time":"269.66","velocity":0.4330708661417323,"duration":"0.05"},{"name":"A#5","midi":82,"time":"269.66","velocity":0.29133858267716534,"duration":"0.09"},{"name":"G#6","midi":92,"time":"269.66","velocity":0.31496062992125984,"duration":"0.64"},{"name":"C7","midi":96,"time":"269.66","velocity":0.2283464566929134,"duration":"0.27"},{"name":"F7","midi":101,"time":"269.66","velocity":0.33070866141732286,"duration":"0.16"},{"name":"F4","midi":65,"time":"269.67","velocity":0.5590551181102362,"duration":"0.01"},{"name":"G5","midi":79,"time":"269.67","velocity":0.3464566929133858,"duration":"0.06"},{"name":"D#7","midi":99,"time":"269.67","velocity":0.2125984251968504,"duration":"0.27"},{"name":"E7","midi":100,"time":"269.67","velocity":0.2125984251968504,"duration":"0.27"},{"name":"E3","midi":52,"time":"269.69","velocity":0.5669291338582677,"duration":"0.07"},{"name":"B3","midi":59,"time":"269.69","velocity":0.3937007874015748,"duration":"0.02"},{"name":"G#4","midi":68,"time":"269.69","velocity":0.5196850393700787,"duration":"0.01"},{"name":"C6","midi":84,"time":"269.69","velocity":0.3464566929133858,"duration":"0.22"},{"name":"E6","midi":88,"time":"269.69","velocity":0.3464566929133858,"duration":"0.16"},{"name":"F#4","midi":66,"time":"269.70","velocity":0.3858267716535433,"duration":"0.02"},{"name":"A4","midi":69,"time":"269.70","velocity":0.5590551181102362,"duration":"0.05"},{"name":"F5","midi":77,"time":"269.70","velocity":0.4015748031496063,"duration":"0.02"},{"name":"B5","midi":83,"time":"269.70","velocity":0.31496062992125984,"duration":"0.08"},{"name":"E2","midi":40,"time":"269.72","velocity":0.5039370078740157,"duration":"0.29"},{"name":"D#5","midi":75,"time":"269.72","velocity":0.30708661417322836,"duration":"0.03"},{"name":"F#4","midi":66,"time":"269.73","velocity":0.31496062992125984,"duration":"0.02"},{"name":"F5","midi":77,"time":"269.73","velocity":0.30708661417322836,"duration":"0.07"},{"name":"G#5","midi":80,"time":"269.73","velocity":0.3464566929133858,"duration":"0.16"},{"name":"C#6","midi":85,"time":"269.73","velocity":0.11023622047244094,"duration":"0.03"},{"name":"B3","midi":59,"time":"269.74","velocity":0.28346456692913385,"duration":"0.03"},{"name":"G#4","midi":68,"time":"269.74","velocity":0.31496062992125984,"duration":"0.02"},{"name":"E5","midi":76,"time":"269.74","velocity":0.28346456692913385,"duration":"0.02"},{"name":"B4","midi":71,"time":"269.76","velocity":0.31496062992125984,"duration":"0.03"},{"name":"C#5","midi":73,"time":"269.76","velocity":0.2047244094488189,"duration":"0.03"},{"name":"A6","midi":93,"time":"269.76","velocity":0.1732283464566929,"duration":"0.07"},{"name":"E3","midi":52,"time":"269.77","velocity":0.5511811023622047,"duration":"0.29"},{"name":"D#5","midi":75,"time":"269.77","velocity":0.25196850393700787,"duration":"0.03"},{"name":"A5","midi":81,"time":"269.77","velocity":0.18110236220472442,"duration":"0.03"},{"name":"C4","midi":60,"time":"269.78","velocity":0.2992125984251969,"duration":"0.02"},{"name":"G#4","midi":68,"time":"269.78","velocity":0.41732283464566927,"duration":"0.64"},{"name":"A#4","midi":70,"time":"269.79","velocity":0.3543307086614173,"duration":"0.02"},{"name":"F#5","midi":78,"time":"269.79","velocity":0.36220472440944884,"duration":"0.10"},{"name":"B5","midi":83,"time":"269.79","velocity":0.33070866141732286,"duration":"0.10"},{"name":"A#3","midi":58,"time":"269.80","velocity":0.33070866141732286,"duration":"0.02"},{"name":"D5","midi":74,"time":"269.80","velocity":0.29133858267716534,"duration":"0.08"},{"name":"E5","midi":76,"time":"269.80","velocity":0.30708661417322836,"duration":"0.19"},{"name":"B4","midi":71,"time":"269.81","velocity":0.5039370078740157,"duration":"0.66"},{"name":"G7","midi":103,"time":"269.81","velocity":0.07874015748031496,"duration":"0.03"},{"name":"B3","midi":59,"time":"269.83","velocity":0.41732283464566927,"duration":"0.05"},{"name":"F7","midi":101,"time":"269.85","velocity":0.18110236220472442,"duration":"0.15"},{"name":"A#3","midi":58,"time":"269.87","velocity":0.3937007874015748,"duration":"0.03"},{"name":"D5","midi":74,"time":"269.90","velocity":0.2440944881889764,"duration":"0.13"},{"name":"F#5","midi":78,"time":"269.91","velocity":0.2755905511811024,"duration":"0.29"},{"name":"A#3","midi":58,"time":"269.94","velocity":0.4094488188976378,"duration":"0.02"},{"name":"F#6","midi":90,"time":"269.95","velocity":0.4015748031496063,"duration":"0.74"},{"name":"G7","midi":103,"time":"269.95","velocity":0.2440944881889764,"duration":"0.28"},{"name":"A5","midi":81,"time":"269.97","velocity":0.13385826771653545,"duration":"0.03"},{"name":"B3","midi":59,"time":"269.99","velocity":0.4330708661417323,"duration":"0.09"},{"name":"A6","midi":93,"time":"269.99","velocity":0.14173228346456693,"duration":"0.13"},{"name":"C#7","midi":97,"time":"269.99","velocity":0.07874015748031496,"duration":"0.07"},{"name":"F2","midi":41,"time":"270.01","velocity":0.5590551181102362,"duration":"0.02"},{"name":"E2","midi":40,"time":"270.03","velocity":0.5354330708661418,"duration":"0.01"},{"name":"C7","midi":96,"time":"270.03","velocity":0.11023622047244094,"duration":"0.19"},{"name":"D#2","midi":39,"time":"270.05","velocity":0.49606299212598426,"duration":"0.03"},{"name":"G6","midi":91,"time":"270.05","velocity":0.1968503937007874,"duration":"0.13"},{"name":"A#6","midi":94,"time":"270.05","velocity":0.12598425196850394,"duration":"0.08"},{"name":"F7","midi":101,"time":"270.05","velocity":0.14960629921259844,"duration":"0.21"},{"name":"F3","midi":53,"time":"270.06","velocity":0.5669291338582677,"duration":"0.01"},{"name":"A5","midi":81,"time":"270.06","velocity":0.1732283464566929,"duration":"0.05"},{"name":"D7","midi":98,"time":"270.06","velocity":0.2204724409448819,"duration":"0.17"},{"name":"E3","midi":52,"time":"270.07","velocity":0.5826771653543307,"duration":"0.36"},{"name":"C#5","midi":73,"time":"270.07","velocity":0.11023622047244094,"duration":"0.05"},{"name":"E2","midi":40,"time":"270.08","velocity":0.5433070866141733,"duration":"0.33"},{"name":"A#3","midi":58,"time":"270.08","velocity":0.3464566929133858,"duration":"0.02"},{"name":"C#7","midi":97,"time":"270.08","velocity":0.2125984251968504,"duration":"0.10"},{"name":"D6","midi":86,"time":"270.09","velocity":0.2204724409448819,"duration":"0.27"},{"name":"D#6","midi":87,"time":"270.10","velocity":0.2125984251968504,"duration":"0.03"},{"name":"A#3","midi":58,"time":"270.12","velocity":0.3858267716535433,"duration":"0.06"},{"name":"D#5","midi":75,"time":"270.12","velocity":0.12598425196850394,"duration":"0.03"},{"name":"C6","midi":84,"time":"270.12","velocity":0.1889763779527559,"duration":"0.06"},{"name":"A6","midi":93,"time":"270.13","velocity":0.12598425196850394,"duration":"0.03"},{"name":"A#6","midi":94,"time":"270.15","velocity":0.11023622047244094,"duration":"0.05"},{"name":"D#6","midi":87,"time":"270.16","velocity":0.13385826771653545,"duration":"0.05"},{"name":"B3","midi":59,"time":"270.20","velocity":0.3937007874015748,"duration":"0.22"},{"name":"A6","midi":93,"time":"270.21","velocity":0.12598425196850394,"duration":"0.07"},{"name":"D5","midi":74,"time":"270.22","velocity":0.11023622047244094,"duration":"0.03"},{"name":"F#5","midi":78,"time":"270.23","velocity":0.14960629921259844,"duration":"0.03"},{"name":"F#5","midi":78,"time":"270.29","velocity":0.2677165354330709,"duration":"0.14"},{"name":"C6","midi":84,"time":"270.29","velocity":0.10236220472440945,"duration":"0.03"},{"name":"A6","midi":93,"time":"270.30","velocity":0.11811023622047244,"duration":"0.13"},{"name":"C#7","midi":97,"time":"270.34","velocity":0.07874015748031496,"duration":"0.05"},{"name":"G#6","midi":92,"time":"270.36","velocity":0.29133858267716534,"duration":"0.13"},{"name":"G7","midi":103,"time":"270.40","velocity":0.14173228346456693,"duration":"0.03"},{"name":"F2","midi":41,"time":"270.41","velocity":0.5748031496062992,"duration":"0.01"},{"name":"C#7","midi":97,"time":"270.41","velocity":0.14960629921259844,"duration":"0.12"},{"name":"E2","midi":40,"time":"270.42","velocity":0.5433070866141733,"duration":"0.01"},{"name":"A#3","midi":58,"time":"270.42","velocity":0.4094488188976378,"duration":"0.02"},{"name":"E6","midi":88,"time":"270.42","velocity":0.25196850393700787,"duration":"0.38"},{"name":"C7","midi":96,"time":"270.42","velocity":0.08661417322834646,"duration":"0.03"},{"name":"D2","midi":38,"time":"270.43","velocity":0.6614173228346457,"duration":"0.01"},{"name":"G5","midi":79,"time":"270.43","velocity":0.2755905511811024,"duration":"0.03"},{"name":"D#6","midi":87,"time":"270.43","velocity":0.1732283464566929,"duration":"0.03"},{"name":"F6","midi":89,"time":"270.43","velocity":0.15748031496062992,"duration":"0.03"},{"name":"A#6","midi":94,"time":"270.43","velocity":0.11023622047244094,"duration":"0.07"},{"name":"E2","midi":40,"time":"270.44","velocity":0.7244094488188977,"duration":"0.03"},{"name":"G#4","midi":68,"time":"270.44","velocity":0.3543307086614173,"duration":"0.14"},{"name":"D5","midi":74,"time":"270.44","velocity":0.25196850393700787,"duration":"0.03"},{"name":"A#5","midi":82,"time":"270.44","velocity":0.1732283464566929,"duration":"0.03"},{"name":"D7","midi":98,"time":"270.44","velocity":0.2125984251968504,"duration":"0.16"},{"name":"F7","midi":101,"time":"270.44","velocity":0.2283464566929134,"duration":"0.03"},{"name":"G7","midi":103,"time":"270.44","velocity":0.15748031496062992,"duration":"0.06"},{"name":"D#3","midi":51,"time":"270.45","velocity":0.5275590551181102,"duration":"0.01"},{"name":"B3","midi":59,"time":"270.45","velocity":0.4094488188976378,"duration":"0.12"},{"name":"F4","midi":65,"time":"270.45","velocity":0.3700787401574803,"duration":"0.03"},{"name":"A6","midi":93,"time":"270.45","velocity":0.2125984251968504,"duration":"0.05"},{"name":"D6","midi":86,"time":"270.47","velocity":0.30708661417322836,"duration":"0.14"},{"name":"D#2","midi":39,"time":"270.48","velocity":0.5433070866141733,"duration":"0.01"},{"name":"A5","midi":81,"time":"270.48","velocity":0.18110236220472442,"duration":"0.12"},{"name":"C#5","midi":73,"time":"270.49","velocity":0.14960629921259844,"duration":"0.05"},{"name":"D#5","midi":75,"time":"270.49","velocity":0.2283464566929134,"duration":"0.06"},{"name":"B2","midi":47,"time":"270.50","velocity":0.5275590551181102,"duration":"0.01"},{"name":"G#6","midi":92,"time":"270.50","velocity":0.2677165354330709,"duration":"0.14"},{"name":"D#3","midi":51,"time":"270.51","velocity":0.5905511811023622,"duration":"0.02"},{"name":"A#6","midi":94,"time":"270.51","velocity":0.14173228346456693,"duration":"0.12"},{"name":"C7","midi":96,"time":"270.51","velocity":0.16535433070866143,"duration":"0.07"},{"name":"F7","midi":101,"time":"270.51","velocity":0.10236220472440945,"duration":"0.03"},{"name":"C2","midi":36,"time":"270.52","velocity":0.4566929133858268,"duration":"0.02"},{"name":"F#5","midi":78,"time":"270.52","velocity":0.2125984251968504,"duration":"0.06"},{"name":"E3","midi":52,"time":"270.53","velocity":0.5511811023622047,"duration":"0.06"},{"name":"D5","midi":74,"time":"270.53","velocity":0.1889763779527559,"duration":"0.07"},{"name":"C#7","midi":97,"time":"270.53","velocity":0.1889763779527559,"duration":"0.05"},{"name":"F2","midi":41,"time":"270.55","velocity":0.3464566929133858,"duration":"0.02"},{"name":"G7","midi":103,"time":"270.55","velocity":0.08661417322834646,"duration":"0.09"},{"name":"E2","midi":40,"time":"270.58","velocity":0.4566929133858268,"duration":"0.06"},{"name":"B3","midi":59,"time":"270.58","velocity":0.3464566929133858,"duration":"0.13"},{"name":"F7","midi":101,"time":"270.58","velocity":0.14960629921259844,"duration":"0.10"},{"name":"D#3","midi":51,"time":"270.59","velocity":0.5511811023622047,"duration":"0.01"},{"name":"B4","midi":71,"time":"270.59","velocity":0.41732283464566927,"duration":"0.15"},{"name":"F#5","midi":78,"time":"270.59","velocity":0.2125984251968504,"duration":"0.05"},{"name":"E3","midi":52,"time":"270.60","velocity":0.5905511811023622,"duration":"0.55"},{"name":"G#5","midi":80,"time":"270.60","velocity":0.31496062992125984,"duration":"0.31"},{"name":"G#4","midi":68,"time":"270.63","velocity":0.25984251968503935,"duration":"0.22"},{"name":"A5","midi":81,"time":"270.63","velocity":0.12598425196850394,"duration":"0.08"},{"name":"D6","midi":86,"time":"270.63","velocity":0.2204724409448819,"duration":"0.09"},{"name":"A6","midi":93,"time":"270.63","velocity":0.14960629921259844,"duration":"0.07"},{"name":"D5","midi":74,"time":"270.64","velocity":0.14960629921259844,"duration":"0.06"},{"name":"E2","midi":40,"time":"270.65","velocity":0.4330708661417323,"duration":"0.02"},{"name":"F#5","midi":78,"time":"270.66","velocity":0.2992125984251969,"duration":"0.15"},{"name":"A#6","midi":94,"time":"270.66","velocity":0.07874015748031496,"duration":"0.05"},{"name":"C#7","midi":97,"time":"270.66","velocity":0.11023622047244094,"duration":"0.05"},{"name":"G6","midi":91,"time":"270.67","velocity":0.08661417322834646,"duration":"0.06"},{"name":"E2","midi":40,"time":"270.69","velocity":0.5354330708661418,"duration":"0.10"},{"name":"D#6","midi":87,"time":"270.70","velocity":0.15748031496062992,"duration":"0.05"},{"name":"A5","midi":81,"time":"270.72","velocity":0.15748031496062992,"duration":"0.03"},{"name":"A#4","midi":70,"time":"270.73","velocity":0.14173228346456693,"duration":"0.03"},{"name":"F#6","midi":90,"time":"270.73","velocity":0.3700787401574803,"duration":"0.92"},{"name":"B3","midi":59,"time":"270.77","velocity":0.3464566929133858,"duration":"0.03"},{"name":"B4","midi":71,"time":"270.77","velocity":0.41732283464566927,"duration":"0.07"},{"name":"G#6","midi":92,"time":"270.77","velocity":0.33858267716535434,"duration":"0.43"},{"name":"D6","midi":86,"time":"270.78","velocity":0.23622047244094488,"duration":"0.12"},{"name":"F2","midi":41,"time":"270.79","velocity":0.5511811023622047,"duration":"0.01"},{"name":"D#6","midi":87,"time":"270.79","velocity":0.16535433070866143,"duration":"0.07"},{"name":"D#7","midi":99,"time":"270.79","velocity":0.2440944881889764,"duration":"0.29"},{"name":"E2","midi":40,"time":"270.80","velocity":0.5118110236220472,"duration":"0.01"},{"name":"G5","midi":79,"time":"270.80","velocity":0.1889763779527559,"duration":"0.03"},{"name":"G6","midi":91,"time":"270.80","velocity":0.2125984251968504,"duration":"0.03"},{"name":"F7","midi":101,"time":"270.80","velocity":0.2283464566929134,"duration":"0.03"},{"name":"G7","midi":103,"time":"270.80","velocity":0.25196850393700787,"duration":"0.23"},{"name":"F6","midi":89,"time":"270.81","velocity":0.15748031496062992,"duration":"0.05"},{"name":"A6","midi":93,"time":"270.81","velocity":0.2204724409448819,"duration":"0.05"},{"name":"C7","midi":96,"time":"270.81","velocity":0.12598425196850394,"duration":"0.06"},{"name":"C#7","midi":97,"time":"270.81","velocity":0.25984251968503935,"duration":"0.27"},{"name":"E2","midi":40,"time":"270.83","velocity":0.44881889763779526,"duration":"0.03"},{"name":"B3","midi":59,"time":"270.84","velocity":0.28346456692913385,"duration":"0.09"},{"name":"F#5","midi":78,"time":"270.84","velocity":0.23622047244094488,"duration":"0.09"},{"name":"B4","midi":71,"time":"270.85","velocity":0.3779527559055118,"duration":"0.05"},{"name":"A#5","midi":82,"time":"270.85","velocity":0.16535433070866143,"duration":"0.05"},{"name":"G#4","midi":68,"time":"270.86","velocity":0.5669291338582677,"duration":"0.36"},{"name":"D#5","midi":75,"time":"270.86","velocity":0.16535433070866143,"duration":"0.03"},{"name":"F7","midi":101,"time":"270.86","velocity":0.07086614173228346,"duration":"0.03"},{"name":"E2","midi":40,"time":"270.87","velocity":0.4881889763779528,"duration":"0.28"},{"name":"A#6","midi":94,"time":"270.87","velocity":0.1732283464566929,"duration":"0.10"},{"name":"D5","midi":74,"time":"270.90","velocity":0.10236220472440945,"duration":"0.07"},{"name":"D#6","midi":87,"time":"270.90","velocity":0.2283464566929134,"duration":"0.16"},{"name":"B4","midi":71,"time":"270.91","velocity":0.33858267716535434,"duration":"0.15"},{"name":"C7","midi":96,"time":"270.92","velocity":0.07874015748031496,"duration":"0.03"},{"name":"F7","midi":101,"time":"270.93","velocity":0.12598425196850394,"duration":"0.06"},{"name":"B3","midi":59,"time":"270.94","velocity":0.2440944881889764,"duration":"0.09"},{"name":"A5","midi":81,"time":"270.94","velocity":0.18110236220472442,"duration":"0.05"},{"name":"F#5","midi":78,"time":"270.97","velocity":0.16535433070866143,"duration":"0.06"},{"name":"D6","midi":86,"time":"270.98","velocity":0.12598425196850394,"duration":"0.05"},{"name":"A#6","midi":94,"time":"270.99","velocity":0.11811023622047244,"duration":"0.03"},{"name":"F6","midi":89,"time":"271.01","velocity":0.11811023622047244,"duration":"0.03"},{"name":"F#5","midi":78,"time":"271.03","velocity":0.2677165354330709,"duration":"0.15"},{"name":"D6","midi":86,"time":"271.05","velocity":0.1732283464566929,"duration":"0.13"},{"name":"G6","midi":91,"time":"271.05","velocity":0.09448818897637795,"duration":"0.06"},{"name":"A#6","midi":94,"time":"271.05","velocity":0.09448818897637795,"duration":"0.07"},{"name":"G7","midi":103,"time":"271.06","velocity":0.12598425196850394,"duration":"0.08"},{"name":"B4","midi":71,"time":"271.07","velocity":0.4566929133858268,"duration":"0.14"},{"name":"B3","midi":59,"time":"271.08","velocity":0.2677165354330709,"duration":"0.06"},{"name":"D#6","midi":87,"time":"271.08","velocity":0.10236220472440945,"duration":"0.03"},{"name":"A5","midi":81,"time":"271.09","velocity":0.18110236220472442,"duration":"0.03"},{"name":"D#5","midi":75,"time":"271.12","velocity":0.13385826771653545,"duration":"0.06"},{"name":"D#7","midi":99,"time":"271.13","velocity":0.18110236220472442,"duration":"0.16"},{"name":"C4","midi":60,"time":"271.14","velocity":0.2992125984251969,"duration":"0.02"},{"name":"A#6","midi":94,"time":"271.14","velocity":0.2677165354330709,"duration":"0.13"},{"name":"F2","midi":41,"time":"271.15","velocity":0.5354330708661418,"duration":"0.02"},{"name":"F3","midi":53,"time":"271.15","velocity":0.6141732283464567,"duration":"0.05"},{"name":"D#6","midi":87,"time":"271.15","velocity":0.31496062992125984,"duration":"0.07"},{"name":"A6","midi":93,"time":"271.15","velocity":0.33070866141732286,"duration":"0.13"},{"name":"B3","midi":59,"time":"271.16","velocity":0.4881889763779528,"duration":"0.06"},{"name":"G7","midi":103,"time":"271.16","velocity":0.2677165354330709,"duration":"0.10"},{"name":"C#6","midi":85,"time":"271.17","velocity":0.25984251968503935,"duration":"0.06"},{"name":"C7","midi":96,"time":"271.17","velocity":0.31496062992125984,"duration":"0.35"},{"name":"D7","midi":98,"time":"271.17","velocity":0.3543307086614173,"duration":"0.27"},{"name":"F7","midi":101,"time":"271.17","velocity":0.3779527559055118,"duration":"0.28"},{"name":"A5","midi":81,"time":"271.19","velocity":0.30708661417322836,"duration":"0.03"},{"name":"C6","midi":84,"time":"271.19","velocity":0.47244094488188976,"duration":"0.05"},{"name":"G6","midi":91,"time":"271.19","velocity":0.2677165354330709,"duration":"0.07"},{"name":"E7","midi":100,"time":"271.19","velocity":0.2125984251968504,"duration":"0.40"},{"name":"E3","midi":52,"time":"271.20","velocity":0.5826771653543307,"duration":"0.36"},{"name":"E6","midi":88,"time":"271.20","velocity":0.31496062992125984,"duration":"0.07"},{"name":"E2","midi":40,"time":"271.21","velocity":0.5275590551181102,"duration":"0.34"},{"name":"B5","midi":83,"time":"271.21","velocity":0.3858267716535433,"duration":"0.40"},{"name":"D6","midi":86,"time":"271.21","velocity":0.2677165354330709,"duration":"0.09"},{"name":"C4","midi":60,"time":"271.22","velocity":0.3937007874015748,"duration":"0.02"},{"name":"A4","midi":69,"time":"271.22","velocity":0.5354330708661418,"duration":"0.01"},{"name":"D#5","midi":75,"time":"271.22","velocity":0.3543307086614173,"duration":"0.03"},{"name":"F#5","midi":78,"time":"271.22","velocity":0.3228346456692913,"duration":"0.03"},{"name":"F4","midi":65,"time":"271.23","velocity":0.36220472440944884,"duration":"0.02"},{"name":"A#4","midi":70,"time":"271.23","velocity":0.36220472440944884,"duration":"0.05"},{"name":"A5","midi":81,"time":"271.23","velocity":0.25196850393700787,"duration":"0.02"},{"name":"G#4","midi":68,"time":"271.24","velocity":0.4251968503937008,"duration":"0.24"},{"name":"C6","midi":84,"time":"271.24","velocity":0.36220472440944884,"duration":"0.13"},{"name":"C#7","midi":97,"time":"271.24","velocity":0.15748031496062992,"duration":"0.06"},{"name":"F#4","midi":66,"time":"271.26","velocity":0.36220472440944884,"duration":"0.02"},{"name":"E5","midi":76,"time":"271.26","velocity":0.3464566929133858,"duration":"0.02"},{"name":"D#5","midi":75,"time":"271.27","velocity":0.2283464566929134,"duration":"0.02"},{"name":"B3","midi":59,"time":"271.28","velocity":0.3700787401574803,"duration":"0.02"},{"name":"G6","midi":91,"time":"271.29","velocity":0.2047244094488189,"duration":"0.12"},{"name":"B4","midi":71,"time":"271.31","velocity":0.3543307086614173,"duration":"0.05"},{"name":"F#5","midi":78,"time":"271.31","velocity":0.30708661417322836,"duration":"0.15"},{"name":"A#6","midi":94,"time":"271.31","velocity":0.14960629921259844,"duration":"0.07"},{"name":"D5","midi":74,"time":"271.33","velocity":0.28346456692913385,"duration":"0.06"},{"name":"B3","midi":59,"time":"271.34","velocity":0.4645669291338583,"duration":"0.02"},{"name":"D#6","midi":87,"time":"271.34","velocity":0.29133858267716534,"duration":"0.57"},{"name":"A6","midi":93,"time":"271.34","velocity":0.08661417322834646,"duration":"0.03"},{"name":"A5","midi":81,"time":"271.35","velocity":0.2283464566929134,"duration":"0.05"},{"name":"F6","midi":89,"time":"271.36","velocity":0.16535433070866143,"duration":"0.10"},{"name":"B4","midi":71,"time":"271.37","velocity":0.4566929133858268,"duration":"0.26"},{"name":"C6","midi":84,"time":"271.38","velocity":0.13385826771653545,"duration":"0.03"},{"name":"D#5","midi":75,"time":"271.40","velocity":0.28346456692913385,"duration":"0.12"},{"name":"A#5","midi":82,"time":"271.40","velocity":0.14960629921259844,"duration":"0.03"},{"name":"D6","midi":86,"time":"271.40","velocity":0.11023622047244094,"duration":"0.05"},{"name":"A#6","midi":94,"time":"271.41","velocity":0.2204724409448819,"duration":"0.12"},{"name":"D5","midi":74,"time":"271.42","velocity":0.25196850393700787,"duration":"0.07"},{"name":"A#3","midi":58,"time":"271.43","velocity":0.44881889763779526,"duration":"0.06"},{"name":"E6","midi":88,"time":"271.44","velocity":0.3228346456692913,"duration":"0.47"},{"name":"D7","midi":98,"time":"271.45","velocity":0.11811023622047244,"duration":"0.05"},{"name":"A5","midi":81,"time":"271.47","velocity":0.1732283464566929,"duration":"0.05"},{"name":"C6","midi":84,"time":"271.47","velocity":0.2125984251968504,"duration":"0.03"},{"name":"G#4","midi":68,"time":"271.50","velocity":0.2283464566929134,"duration":"0.08"},{"name":"D6","midi":86,"time":"271.50","velocity":0.14960629921259844,"duration":"0.03"},{"name":"A6","midi":93,"time":"271.50","velocity":0.1732283464566929,"duration":"0.15"},{"name":"F7","midi":101,"time":"271.50","velocity":0.09448818897637795,"duration":"0.03"},{"name":"D#5","midi":75,"time":"271.52","velocity":0.16535433070866143,"duration":"0.03"},{"name":"A#3","midi":58,"time":"271.53","velocity":0.4251968503937008,"duration":"0.02"},{"name":"F#5","midi":78,"time":"271.53","velocity":0.23622047244094488,"duration":"0.06"},{"name":"F2","midi":41,"time":"271.55","velocity":0.5590551181102362,"duration":"0.02"},{"name":"A5","midi":81,"time":"271.55","velocity":0.18110236220472442,"duration":"0.10"},{"name":"C7","midi":96,"time":"271.55","velocity":0.1732283464566929,"duration":"0.07"},{"name":"D6","midi":86,"time":"271.56","velocity":0.25196850393700787,"duration":"0.27"},{"name":"F3","midi":53,"time":"271.57","velocity":0.5118110236220472,"duration":"0.01"},{"name":"F6","midi":89,"time":"271.57","velocity":0.16535433070866143,"duration":"0.05"},{"name":"G7","midi":103,"time":"271.57","velocity":0.2204724409448819,"duration":"0.07"},{"name":"D2","midi":38,"time":"271.58","velocity":0.41732283464566927,"duration":"0.02"},{"name":"E3","midi":52,"time":"271.58","velocity":0.6141732283464567,"duration":"0.34"},{"name":"B3","midi":59,"time":"271.58","velocity":0.4330708661417323,"duration":"0.05"},{"name":"G6","midi":91,"time":"271.58","velocity":0.11811023622047244,"duration":"0.07"},{"name":"D5","midi":74,"time":"271.59","velocity":0.2283464566929134,"duration":"0.02"},{"name":"G#6","midi":92,"time":"271.59","velocity":0.1889763779527559,"duration":"0.17"},{"name":"A#6","midi":94,"time":"271.59","velocity":0.1732283464566929,"duration":"0.06"},{"name":"E2","midi":40,"time":"271.60","velocity":0.49606299212598426,"duration":"0.31"},{"name":"F#5","midi":78,"time":"271.60","velocity":0.3543307086614173,"duration":"0.13"},{"name":"G#5","midi":80,"time":"271.60","velocity":0.4094488188976378,"duration":"0.52"},{"name":"F7","midi":101,"time":"271.60","velocity":0.2047244094488189,"duration":"0.07"},{"name":"G#4","midi":68,"time":"271.62","velocity":0.3543307086614173,"duration":"0.33"},{"name":"D5","midi":74,"time":"271.63","velocity":0.11811023622047244,"duration":"0.09"},{"name":"A#3","midi":58,"time":"271.64","velocity":0.3779527559055118,"duration":"0.02"},{"name":"B4","midi":71,"time":"271.64","velocity":0.5118110236220472,"duration":"0.30"},{"name":"C#7","midi":97,"time":"271.64","velocity":0.10236220472440945,"duration":"0.05"},{"name":"A6","midi":93,"time":"271.66","velocity":0.2047244094488189,"duration":"0.17"},{"name":"A#3","midi":58,"time":"271.67","velocity":0.4015748031496063,"duration":"0.02"},{"name":"G7","midi":103,"time":"271.67","velocity":0.09448818897637795,"duration":"0.03"},{"name":"G6","midi":91,"time":"271.69","velocity":0.14173228346456693,"duration":"0.12"},{"name":"B3","midi":59,"time":"271.70","velocity":0.29133858267716534,"duration":"0.06"},{"name":"F#6","midi":90,"time":"271.71","velocity":0.3543307086614173,"duration":"0.40"},{"name":"A5","midi":81,"time":"271.72","velocity":0.14173228346456693,"duration":"0.09"},{"name":"C#7","midi":97,"time":"271.74","velocity":0.07086614173228346,"duration":"0.03"},{"name":"F#5","midi":78,"time":"271.76","velocity":0.2755905511811024,"duration":"0.17"},{"name":"F6","midi":89,"time":"271.79","velocity":0.08661417322834646,"duration":"0.03"},{"name":"C6","midi":84,"time":"271.80","velocity":0.1889763779527559,"duration":"0.03"},{"name":"A5","midi":81,"time":"271.84","velocity":0.12598425196850394,"duration":"0.03"},{"name":"G7","midi":103,"time":"271.84","velocity":0.08661417322834646,"duration":"0.03"},{"name":"D5","midi":74,"time":"271.85","velocity":0.08661417322834646,"duration":"0.03"},{"name":"A6","midi":93,"time":"271.86","velocity":0.2125984251968504,"duration":"0.13"},{"name":"D6","midi":86,"time":"271.88","velocity":0.1732283464566929,"duration":"0.05"},{"name":"F2","midi":41,"time":"271.92","velocity":0.5433070866141733,"duration":"0.01"},{"name":"C6","midi":84,"time":"271.92","velocity":0.25984251968503935,"duration":"0.06"},{"name":"D#2","midi":39,"time":"271.93","velocity":0.5433070866141733,"duration":"0.01"},{"name":"B2","midi":47,"time":"271.93","velocity":0.5669291338582677,"duration":"0.02"},{"name":"C5","midi":72,"time":"271.93","velocity":0.2755905511811024,"duration":"0.03"},{"name":"G5","midi":79,"time":"271.93","velocity":0.2283464566929134,"duration":"0.03"},{"name":"C#7","midi":97,"time":"271.93","velocity":0.2677165354330709,"duration":"0.36"},{"name":"D7","midi":98,"time":"271.93","velocity":0.14960629921259844,"duration":"0.03"},{"name":"F7","midi":101,"time":"271.93","velocity":0.2992125984251969,"duration":"0.28"},{"name":"G7","midi":103,"time":"271.93","velocity":0.2204724409448819,"duration":"0.08"},{"name":"D2","midi":38,"time":"271.94","velocity":0.6377952755905512,"duration":"0.01"},{"name":"F#4","midi":66,"time":"271.94","velocity":0.41732283464566927,"duration":"0.02"},{"name":"A#4","midi":70,"time":"271.94","velocity":0.30708661417322836,"duration":"0.02"},{"name":"E2","midi":40,"time":"271.95","velocity":0.6692913385826772,"duration":"0.01"},{"name":"D#3","midi":51,"time":"271.95","velocity":0.5826771653543307,"duration":"0.01"},{"name":"D5","midi":74,"time":"271.95","velocity":0.2677165354330709,"duration":"0.02"},{"name":"A#6","midi":94,"time":"271.95","velocity":0.1732283464566929,"duration":"0.09"},{"name":"F2","midi":41,"time":"271.97","velocity":0.5905511811023622,"duration":"0.02"},{"name":"E3","midi":52,"time":"271.97","velocity":0.5511811023622047,"duration":"0.05"},{"name":"B3","midi":59,"time":"271.97","velocity":0.41732283464566927,"duration":"0.05"},{"name":"B4","midi":71,"time":"271.97","velocity":0.4251968503937008,"duration":"0.06"},{"name":"G#4","midi":68,"time":"271.98","velocity":0.3543307086614173,"duration":"0.34"},{"name":"F1","midi":29,"time":"271.99","velocity":0.5826771653543307,"duration":"0.01"},{"name":"D#6","midi":87,"time":"271.99","velocity":0.2047244094488189,"duration":"0.22"},{"name":"F6","midi":89,"time":"271.99","velocity":0.14960629921259844,"duration":"0.05"},{"name":"F#1","midi":30,"time":"272.00","velocity":0.5748031496062992,"duration":"0.01"},{"name":"B1","midi":35,"time":"272.01","velocity":0.5275590551181102,"duration":"0.01"},{"name":"D#3","midi":51,"time":"272.01","velocity":0.6062992125984252,"duration":"0.01"},{"name":"C6","midi":84,"time":"272.01","velocity":0.1889763779527559,"duration":"0.03"},{"name":"E2","midi":40,"time":"272.02","velocity":0.5433070866141733,"duration":"0.01"},{"name":"E3","midi":52,"time":"272.02","velocity":0.5748031496062992,"duration":"0.06"},{"name":"C#5","midi":73,"time":"272.02","velocity":0.25984251968503935,"duration":"0.05"},{"name":"D2","midi":38,"time":"272.03","velocity":0.47244094488188976,"duration":"0.02"},{"name":"B4","midi":71,"time":"272.03","velocity":0.31496062992125984,"duration":"0.23"},{"name":"F#5","midi":78,"time":"272.03","velocity":0.2125984251968504,"duration":"0.14"},{"name":"A#5","midi":82,"time":"272.03","velocity":0.10236220472440945,"duration":"0.05"},{"name":"A6","midi":93,"time":"272.03","velocity":0.11023622047244094,"duration":"0.05"},{"name":"C7","midi":96,"time":"272.03","velocity":0.2125984251968504,"duration":"0.06"},{"name":"C#6","midi":85,"time":"272.05","velocity":0.3543307086614173,"duration":"0.40"},{"name":"E2","midi":40,"time":"272.06","velocity":0.4645669291338583,"duration":"0.02"},{"name":"D6","midi":86,"time":"272.06","velocity":0.25984251968503935,"duration":"0.14"},{"name":"G6","midi":91,"time":"272.06","velocity":0.13385826771653545,"duration":"0.14"},{"name":"B3","midi":59,"time":"272.07","velocity":0.28346456692913385,"duration":"0.02"},{"name":"C#4","midi":61,"time":"272.07","velocity":0.2440944881889764,"duration":"0.02"},{"name":"D#3","midi":51,"time":"272.08","velocity":0.5669291338582677,"duration":"0.01"},{"name":"E4","midi":64,"time":"272.08","velocity":0.3937007874015748,"duration":"0.23"},{"name":"C#5","midi":73,"time":"272.08","velocity":0.2755905511811024,"duration":"0.03"},{"name":"A#6","midi":94,"time":"272.08","velocity":0.09448818897637795,"duration":"0.06"},{"name":"E2","midi":40,"time":"272.09","velocity":0.49606299212598426,"duration":"0.02"},{"name":"E3","midi":52,"time":"272.09","velocity":0.5511811023622047,"duration":"0.12"},{"name":"B3","midi":59,"time":"272.10","velocity":0.2677165354330709,"duration":"0.07"},{"name":"A5","midi":81,"time":"272.10","velocity":0.11811023622047244,"duration":"0.06"},{"name":"F6","midi":89,"time":"272.10","velocity":0.12598425196850394,"duration":"0.07"},{"name":"G7","midi":103,"time":"272.10","velocity":0.1968503937007874,"duration":"0.12"},{"name":"E2","midi":40,"time":"272.13","velocity":0.5196850393700787,"duration":"0.06"},{"name":"C#5","midi":73,"time":"272.13","velocity":0.3543307086614173,"duration":"0.15"},{"name":"F#6","midi":90,"time":"272.13","velocity":0.2125984251968504,"duration":"0.07"},{"name":"G#5","midi":80,"time":"272.14","velocity":0.3779527559055118,"duration":"0.29"},{"name":"B3","midi":59,"time":"272.19","velocity":0.25984251968503935,"duration":"0.06"},{"name":"A5","midi":81,"time":"272.19","velocity":0.11811023622047244,"duration":"0.03"},{"name":"E2","midi":40,"time":"272.20","velocity":0.5748031496062992,"duration":"0.08"},{"name":"F6","midi":89,"time":"272.20","velocity":0.11811023622047244,"duration":"0.03"},{"name":"F#5","midi":78,"time":"272.22","velocity":0.11811023622047244,"duration":"0.06"},{"name":"D#6","midi":87,"time":"272.23","velocity":0.07874015748031496,"duration":"0.07"},{"name":"C4","midi":60,"time":"272.26","velocity":0.3228346456692913,"duration":"0.02"},{"name":"F2","midi":41,"time":"272.28","velocity":0.6062992125984252,"duration":"0.02"},{"name":"B3","midi":59,"time":"272.28","velocity":0.2204724409448819,"duration":"0.03"},{"name":"F6","midi":89,"time":"272.28","velocity":0.15748031496062992,"duration":"0.03"},{"name":"F#6","midi":90,"time":"272.28","velocity":0.13385826771653545,"duration":"0.06"},{"name":"C7","midi":96,"time":"272.28","velocity":0.14173228346456693,"duration":"0.07"},{"name":"G7","midi":103,"time":"272.28","velocity":0.2440944881889764,"duration":"0.10"},{"name":"C#5","midi":73,"time":"272.29","velocity":0.2283464566929134,"duration":"0.02"},{"name":"F#7","midi":102,"time":"272.29","velocity":0.2047244094488189,"duration":"0.14"},{"name":"F#2","midi":42,"time":"272.30","velocity":0.6850393700787402,"duration":"0.02"},{"name":"A4","midi":69,"time":"272.30","velocity":0.3543307086614173,"duration":"0.03"},{"name":"C5","midi":72,"time":"272.30","velocity":0.2992125984251969,"duration":"0.03"},{"name":"F5","midi":77,"time":"272.30","velocity":0.25984251968503935,"duration":"0.03"},{"name":"D7","midi":98,"time":"272.30","velocity":0.1968503937007874,"duration":"0.21"},{"name":"D#7","midi":99,"time":"272.30","velocity":0.15748031496062992,"duration":"0.03"},{"name":"F7","midi":101,"time":"272.30","velocity":0.2047244094488189,"duration":"0.35"},{"name":"D#3","midi":51,"time":"272.31","velocity":0.5433070866141733,"duration":"0.02"},{"name":"D5","midi":74,"time":"272.31","velocity":0.15748031496062992,"duration":"0.03"},{"name":"D#6","midi":87,"time":"272.31","velocity":0.11023622047244094,"duration":"0.05"},{"name":"F2","midi":41,"time":"272.33","velocity":0.6771653543307087,"duration":"0.02"},{"name":"F#4","midi":66,"time":"272.33","velocity":0.2677165354330709,"duration":"0.02"},{"name":"F#5","midi":78,"time":"272.33","velocity":0.29133858267716534,"duration":"0.03"},{"name":"G6","midi":91,"time":"272.33","velocity":0.1732283464566929,"duration":"0.07"},{"name":"A6","midi":93,"time":"272.33","velocity":0.14960629921259844,"duration":"0.06"},{"name":"A#6","midi":94,"time":"272.33","velocity":0.2125984251968504,"duration":"0.19"},{"name":"G3","midi":55,"time":"272.34","velocity":0.5511811023622047,"duration":"0.01"},{"name":"C4","midi":60,"time":"272.34","velocity":0.33858267716535434,"duration":"0.02"},{"name":"G#4","midi":68,"time":"272.34","velocity":0.2755905511811024,"duration":"0.02"},{"name":"C#5","midi":73,"time":"272.34","velocity":0.2283464566929134,"duration":"0.03"},{"name":"A#5","midi":82,"time":"272.34","velocity":0.07086614173228346,"duration":"0.05"},{"name":"F6","midi":89,"time":"272.34","velocity":0.2047244094488189,"duration":"0.07"},{"name":"F#1","midi":30,"time":"272.35","velocity":0.5511811023622047,"duration":"0.01"},{"name":"F4","midi":65,"time":"272.35","velocity":0.4015748031496063,"duration":"0.02"},{"name":"D#7","midi":99,"time":"272.35","velocity":0.13385826771653545,"duration":"0.08"},{"name":"E1","midi":28,"time":"272.36","velocity":0.6141732283464567,"duration":"0.02"},{"name":"G#2","midi":44,"time":"272.36","velocity":0.5905511811023622,"duration":"0.01"},{"name":"C5","midi":72,"time":"272.36","velocity":0.23622047244094488,"duration":"0.02"},{"name":"E5","midi":76,"time":"272.36","velocity":0.3464566929133858,"duration":"0.33"},{"name":"F#2","midi":42,"time":"272.37","velocity":0.6141732283464567,"duration":"0.01"},{"name":"E4","midi":64,"time":"272.37","velocity":0.33070866141732286,"duration":"0.05"},{"name":"D1","midi":26,"time":"272.38","velocity":0.5196850393700787,"duration":"0.01"},{"name":"E2","midi":40,"time":"272.38","velocity":0.5275590551181102,"duration":"0.01"},{"name":"F#3","midi":54,"time":"272.38","velocity":0.47244094488188976,"duration":"0.02"},{"name":"G#4","midi":68,"time":"272.38","velocity":0.18110236220472442,"duration":"0.03"},{"name":"B4","midi":71,"time":"272.38","velocity":0.2204724409448819,"duration":"0.08"},{"name":"D6","midi":86,"time":"272.38","velocity":0.2992125984251969,"duration":"0.30"},{"name":"F#6","midi":90,"time":"272.38","velocity":0.09448818897637795,"duration":"0.08"},{"name":"E1","midi":28,"time":"272.40","velocity":0.5118110236220472,"duration":"0.01"},{"name":"F3","midi":53,"time":"272.41","velocity":0.5275590551181102,"duration":"0.01"},{"name":"A#5","midi":82,"time":"272.41","velocity":0.10236220472440945,"duration":"0.03"},{"name":"C7","midi":96,"time":"272.41","velocity":0.09448818897637795,"duration":"0.06"},{"name":"F#2","midi":42,"time":"272.42","velocity":0.5669291338582677,"duration":"0.27"},{"name":"E4","midi":64,"time":"272.43","velocity":0.2204724409448819,"duration":"0.03"},{"name":"C#5","midi":73,"time":"272.43","velocity":0.23622047244094488,"duration":"0.05"},{"name":"G#4","midi":68,"time":"272.44","velocity":0.2047244094488189,"duration":"0.23"},{"name":"G#5","midi":80,"time":"272.44","velocity":0.5039370078740157,"duration":"0.33"},{"name":"F#7","midi":102,"time":"272.47","velocity":0.10236220472440945,"duration":"0.08"},{"name":"F3","midi":53,"time":"272.48","velocity":0.5196850393700787,"duration":"0.01"},{"name":"E4","midi":64,"time":"272.48","velocity":0.5511811023622047,"duration":"0.21"},{"name":"B4","midi":71,"time":"272.48","velocity":0.2283464566929134,"duration":"0.21"},{"name":"C#6","midi":85,"time":"272.48","velocity":0.2440944881889764,"duration":"0.08"},{"name":"F6","midi":89,"time":"272.48","velocity":0.08661417322834646,"duration":"0.03"},{"name":"C#4","midi":61,"time":"272.49","velocity":0.2125984251968504,"duration":"0.06"},{"name":"C#5","midi":73,"time":"272.49","velocity":0.3543307086614173,"duration":"0.19"},{"name":"F6","midi":89,"time":"272.52","velocity":0.2440944881889764,"duration":"0.26"},{"name":"G6","midi":91,"time":"272.52","velocity":0.07874015748031496,"duration":"0.03"},{"name":"C#4","midi":61,"time":"272.56","velocity":0.2283464566929134,"duration":"0.05"},{"name":"F3","midi":53,"time":"272.58","velocity":0.5354330708661418,"duration":"0.01"},{"name":"G7","midi":103,"time":"272.58","velocity":0.18110236220472442,"duration":"0.28"},{"name":"C#4","midi":61,"time":"272.62","velocity":0.2992125984251969,"duration":"0.06"},{"name":"F#6","midi":90,"time":"272.62","velocity":0.07874015748031496,"duration":"0.03"},{"name":"F3","midi":53,"time":"272.63","velocity":0.5511811023622047,"duration":"0.02"},{"name":"F#7","midi":102,"time":"272.65","velocity":0.2677165354330709,"duration":"0.52"},{"name":"C6","midi":84,"time":"272.66","velocity":0.3937007874015748,"duration":"0.08"},{"name":"G3","midi":55,"time":"272.67","velocity":0.48031496062992124,"duration":"0.03"},{"name":"D5","midi":74,"time":"272.67","velocity":0.3543307086614173,"duration":"0.02"},{"name":"D#6","midi":87,"time":"272.67","velocity":0.30708661417322836,"duration":"0.03"},{"name":"F#6","midi":90,"time":"272.67","velocity":0.29133858267716534,"duration":"0.08"},{"name":"G6","midi":91,"time":"272.67","velocity":0.28346456692913385,"duration":"0.07"},{"name":"A6","midi":93,"time":"272.67","velocity":0.2992125984251969,"duration":"0.08"},{"name":"F7","midi":101,"time":"272.67","velocity":0.3543307086614173,"duration":"0.29"},{"name":"G2","midi":43,"time":"272.69","velocity":0.5118110236220472,"duration":"0.02"},{"name":"C4","midi":60,"time":"272.69","velocity":0.4881889763779528,"duration":"0.03"},{"name":"F4","midi":65,"time":"272.69","velocity":0.5826771653543307,"duration":"0.01"},{"name":"G#4","midi":68,"time":"272.69","velocity":0.5511811023622047,"duration":"0.02"},{"name":"A#5","midi":82,"time":"272.69","velocity":0.30708661417322836,"duration":"0.07"},{"name":"A#6","midi":94,"time":"272.69","velocity":0.30708661417322836,"duration":"0.05"},{"name":"B6","midi":95,"time":"272.69","velocity":0.2125984251968504,"duration":"0.31"},{"name":"D7","midi":98,"time":"272.69","velocity":0.31496062992125984,"duration":"0.28"},{"name":"E4","midi":64,"time":"272.70","velocity":0.49606299212598426,"duration":"0.02"},{"name":"F#2","midi":42,"time":"272.71","velocity":0.5590551181102362,"duration":"0.33"},{"name":"A4","midi":69,"time":"272.71","velocity":0.5196850393700787,"duration":"0.02"},{"name":"C#6","midi":85,"time":"272.71","velocity":0.3228346456692913,"duration":"0.88"},{"name":"D6","midi":86,"time":"272.71","velocity":0.30708661417322836,"duration":"0.09"},{"name":"F3","midi":53,"time":"272.72","velocity":0.5118110236220472,"duration":"0.02"},{"name":"C#4","midi":61,"time":"272.72","velocity":0.3779527559055118,"duration":"0.06"},{"name":"A#4","midi":70,"time":"272.72","velocity":0.3228346456692913,"duration":"0.02"},{"name":"D#5","midi":75,"time":"272.72","velocity":0.2283464566929134,"duration":"0.02"},{"name":"G5","midi":79,"time":"272.72","velocity":0.28346456692913385,"duration":"0.03"},{"name":"G#4","midi":68,"time":"272.73","velocity":0.33070866141732286,"duration":"0.02"},{"name":"B5","midi":83,"time":"272.73","velocity":0.3464566929133858,"duration":"0.33"},{"name":"A5","midi":81,"time":"272.74","velocity":0.23622047244094488,"duration":"0.07"},{"name":"D#5","midi":75,"time":"272.76","velocity":0.2283464566929134,"duration":"0.03"},{"name":"D#6","midi":87,"time":"272.76","velocity":0.2440944881889764,"duration":"0.14"},{"name":"G6","midi":91,"time":"272.76","velocity":0.2047244094488189,"duration":"0.06"},{"name":"C#5","midi":73,"time":"272.77","velocity":0.4645669291338583,"duration":"0.47"},{"name":"F#6","midi":90,"time":"272.77","velocity":0.09448818897637795,"duration":"0.05"},{"name":"A#3","midi":58,"time":"272.78","velocity":0.33858267716535434,"duration":"0.02"},{"name":"G#4","midi":68,"time":"272.78","velocity":0.3858267716535433,"duration":"0.28"},{"name":"A#4","midi":70,"time":"272.78","velocity":0.3543307086614173,"duration":"0.03"},{"name":"E5","midi":76,"time":"272.78","velocity":0.25984251968503935,"duration":"0.03"},{"name":"C6","midi":84,"time":"272.79","velocity":0.2677165354330709,"duration":"0.02"},{"name":"C#4","midi":61,"time":"272.80","velocity":0.29133858267716534,"duration":"0.08"},{"name":"D#5","midi":75,"time":"272.80","velocity":0.33070866141732286,"duration":"0.02"},{"name":"G#5","midi":80,"time":"272.80","velocity":0.4566929133858268,"duration":"0.72"},{"name":"F6","midi":89,"time":"272.80","velocity":0.2047244094488189,"duration":"0.06"},{"name":"E4","midi":64,"time":"272.83","velocity":0.4409448818897638,"duration":"0.24"},{"name":"A#5","midi":82,"time":"272.83","velocity":0.15748031496062992,"duration":"0.08"},{"name":"C6","midi":84,"time":"272.84","velocity":0.23622047244094488,"duration":"0.07"},{"name":"B4","midi":71,"time":"272.85","velocity":0.2125984251968504,"duration":"0.07"},{"name":"D6","midi":86,"time":"272.85","velocity":0.23622047244094488,"duration":"0.07"},{"name":"F#6","midi":90,"time":"272.87","velocity":0.1968503937007874,"duration":"0.17"},{"name":"G6","midi":91,"time":"272.87","velocity":0.11023622047244094,"duration":"0.08"},{"name":"F3","midi":53,"time":"272.90","velocity":0.5039370078740157,"duration":"0.02"},{"name":"C#4","midi":61,"time":"272.90","velocity":0.3464566929133858,"duration":"0.03"},{"name":"G3","midi":55,"time":"272.93","velocity":0.5275590551181102,"duration":"0.01"},{"name":"B4","midi":71,"time":"272.93","velocity":0.2283464566929134,"duration":"0.08"},{"name":"C6","midi":84,"time":"272.93","velocity":0.13385826771653545,"duration":"0.03"},{"name":"F6","midi":89,"time":"272.93","velocity":0.10236220472440945,"duration":"0.06"},{"name":"F3","midi":53,"time":"272.94","velocity":0.5433070866141733,"duration":"0.02"},{"name":"C#4","midi":61,"time":"272.94","velocity":0.41732283464566927,"duration":"0.21"},{"name":"D#5","midi":75,"time":"272.94","velocity":0.2125984251968504,"duration":"0.07"},{"name":"F5","midi":77,"time":"272.95","velocity":0.15748031496062992,"duration":"0.05"},{"name":"F3","midi":53,"time":"272.99","velocity":0.5590551181102362,"duration":"0.02"},{"name":"D7","midi":98,"time":"272.99","velocity":0.23622047244094488,"duration":"0.33"},{"name":"F7","midi":101,"time":"272.99","velocity":0.23622047244094488,"duration":"0.12"},{"name":"B4","midi":71,"time":"273.02","velocity":0.18110236220472442,"duration":"0.03"},{"name":"A#5","midi":82,"time":"273.02","velocity":0.14960629921259844,"duration":"0.07"},{"name":"G2","midi":43,"time":"273.03","velocity":0.5669291338582677,"duration":"0.01"},{"name":"F6","midi":89,"time":"273.03","velocity":0.2204724409448819,"duration":"0.08"},{"name":"G#2","midi":44,"time":"273.05","velocity":0.5984251968503937,"duration":"0.02"},{"name":"C6","midi":84,"time":"273.06","velocity":0.10236220472440945,"duration":"0.03"},{"name":"D6","midi":86,"time":"273.06","velocity":0.2440944881889764,"duration":"0.14"},{"name":"G6","midi":91,"time":"273.06","velocity":0.1732283464566929,"duration":"0.05"},{"name":"G7","midi":103,"time":"273.06","velocity":0.2440944881889764,"duration":"0.05"},{"name":"A2","midi":45,"time":"273.07","velocity":0.49606299212598426,"duration":"0.02"},{"name":"F#6","midi":90,"time":"273.07","velocity":0.10236220472440945,"duration":"0.07"},{"name":"D#7","midi":99,"time":"273.07","velocity":0.25984251968503935,"duration":"0.17"},{"name":"F#3","midi":54,"time":"273.08","velocity":0.5511811023622047,"duration":"0.09"},{"name":"F4","midi":65,"time":"273.08","velocity":0.33070866141732286,"duration":"0.02"},{"name":"B5","midi":83,"time":"273.08","velocity":0.33070866141732286,"duration":"0.07"},{"name":"F#2","midi":42,"time":"273.09","velocity":0.5748031496062992,"duration":"0.21"},{"name":"G#4","midi":68,"time":"273.09","velocity":0.36220472440944884,"duration":"0.20"},{"name":"B4","midi":71,"time":"273.10","velocity":0.1968503937007874,"duration":"0.03"},{"name":"D#5","midi":75,"time":"273.10","velocity":0.2755905511811024,"duration":"0.03"},{"name":"C6","midi":84,"time":"273.12","velocity":0.2125984251968504,"duration":"0.08"},{"name":"E4","midi":64,"time":"273.13","velocity":0.4094488188976378,"duration":"0.12"},{"name":"F7","midi":101,"time":"273.14","velocity":0.23622047244094488,"duration":"0.42"},{"name":"G7","midi":103,"time":"273.14","velocity":0.07874015748031496,"duration":"0.06"},{"name":"F3","midi":53,"time":"273.17","velocity":0.5196850393700787,"duration":"0.01"},{"name":"C#4","midi":61,"time":"273.20","velocity":0.36220472440944884,"duration":"0.13"},{"name":"F6","midi":89,"time":"273.20","velocity":0.13385826771653545,"duration":"0.16"},{"name":"B6","midi":95,"time":"273.21","velocity":0.15748031496062992,"duration":"0.29"},{"name":"D6","midi":86,"time":"273.22","velocity":0.14173228346456693,"duration":"0.03"},{"name":"A6","midi":93,"time":"273.22","velocity":0.14173228346456693,"duration":"0.07"},{"name":"D#5","midi":75,"time":"273.24","velocity":0.2283464566929134,"duration":"0.02"},{"name":"E6","midi":88,"time":"273.24","velocity":0.2125984251968504,"duration":"0.50"},{"name":"F#7","midi":102,"time":"273.24","velocity":0.33070866141732286,"duration":"1.29"},{"name":"A#4","midi":70,"time":"273.26","velocity":0.13385826771653545,"duration":"0.05"},{"name":"C#5","midi":73,"time":"273.26","velocity":0.5196850393700787,"duration":"0.85"},{"name":"A5","midi":81,"time":"273.27","velocity":0.2755905511811024,"duration":"0.05"},{"name":"B5","midi":83,"time":"273.27","velocity":0.16535433070866143,"duration":"0.08"},{"name":"D#7","midi":99,"time":"273.27","velocity":0.1889763779527559,"duration":"0.07"},{"name":"D#5","midi":75,"time":"273.28","velocity":0.28346456692913385,"duration":"0.02"},{"name":"G4","midi":67,"time":"273.29","velocity":0.33070866141732286,"duration":"0.02"},{"name":"F2","midi":41,"time":"273.30","velocity":0.5511811023622047,"duration":"0.03"},{"name":"F#5","midi":78,"time":"273.30","velocity":0.31496062992125984,"duration":"0.14"},{"name":"A#5","midi":82,"time":"273.30","velocity":0.23622047244094488,"duration":"0.09"},{"name":"E3","midi":52,"time":"273.31","velocity":0.44881889763779526,"duration":"0.05"},{"name":"F#4","midi":66,"time":"273.31","velocity":0.3543307086614173,"duration":"0.12"},{"name":"A4","midi":69,"time":"273.31","velocity":0.4094488188976378,"duration":"0.35"},{"name":"G7","midi":103,"time":"273.31","velocity":0.14173228346456693,"duration":"0.03"},{"name":"D#4","midi":63,"time":"273.33","velocity":0.28346456692913385,"duration":"0.02"},{"name":"E2","midi":40,"time":"273.34","velocity":0.5275590551181102,"duration":"0.03"},{"name":"A#3","midi":58,"time":"273.34","velocity":0.33070866141732286,"duration":"0.05"},{"name":"C6","midi":84,"time":"273.34","velocity":0.10236220472440945,"duration":"0.06"},{"name":"D6","midi":86,"time":"273.34","velocity":0.07086614173228346,"duration":"0.03"},{"name":"C#4","midi":61,"time":"273.35","velocity":0.30708661417322836,"duration":"0.02"},{"name":"D#3","midi":51,"time":"273.36","velocity":0.44881889763779526,"duration":"0.03"},{"name":"D#2","midi":39,"time":"273.37","velocity":0.5354330708661418,"duration":"0.06"},{"name":"D#7","midi":99,"time":"273.37","velocity":0.2047244094488189,"duration":"0.12"},{"name":"G7","midi":103,"time":"273.37","velocity":0.2677165354330709,"duration":"0.23"},{"name":"A3","midi":57,"time":"273.38","velocity":0.3858267716535433,"duration":"0.05"},{"name":"B5","midi":83,"time":"273.38","velocity":0.11023622047244094,"duration":"0.07"},{"name":"C#4","midi":61,"time":"273.40","velocity":0.3779527559055118,"duration":"0.02"},{"name":"F6","midi":89,"time":"273.40","velocity":0.11023622047244094,"duration":"0.08"},{"name":"C#3","midi":49,"time":"273.41","velocity":0.4094488188976378,"duration":"0.02"},{"name":"A#5","midi":82,"time":"273.41","velocity":0.1732283464566929,"duration":"0.06"},{"name":"F#6","midi":90,"time":"273.41","velocity":0.4015748031496063,"duration":"1.48"},{"name":"A6","midi":93,"time":"273.41","velocity":0.1732283464566929,"duration":"0.08"},{"name":"D6","midi":86,"time":"273.42","velocity":0.25984251968503935,"duration":"0.15"},{"name":"F#2","midi":42,"time":"273.43","velocity":0.6850393700787402,"duration":"0.02"},{"name":"G6","midi":91,"time":"273.43","velocity":0.2283464566929134,"duration":"0.12"},{"name":"C7","midi":96,"time":"273.43","velocity":0.18110236220472442,"duration":"0.23"},{"name":"F#4","midi":66,"time":"273.44","velocity":0.4330708661417323,"duration":"0.40"},{"name":"E5","midi":76,"time":"273.44","velocity":0.1889763779527559,"duration":"0.03"},{"name":"F2","midi":41,"time":"273.45","velocity":0.6771653543307087,"duration":"0.02"},{"name":"B4","midi":71,"time":"273.45","velocity":0.3228346456692913,"duration":"0.06"},{"name":"F#3","midi":54,"time":"273.47","velocity":0.5433070866141733,"duration":"0.35"},{"name":"D4","midi":62,"time":"273.47","velocity":0.48031496062992124,"duration":"0.35"},{"name":"C6","midi":84,"time":"273.47","velocity":0.30708661417322836,"duration":"0.17"},{"name":"E2","midi":40,"time":"273.48","velocity":0.5905511811023622,"duration":"0.01"},{"name":"F5","midi":77,"time":"273.48","velocity":0.13385826771653545,"duration":"0.05"},{"name":"F#1","midi":30,"time":"273.49","velocity":0.6299212598425197,"duration":"0.01"},{"name":"C3","midi":48,"time":"273.49","velocity":0.5433070866141733,"duration":"0.02"},{"name":"A#1","midi":34,"time":"273.50","velocity":0.5433070866141733,"duration":"0.01"},{"name":"A6","midi":93,"time":"273.50","velocity":0.2204724409448819,"duration":"0.38"},{"name":"B6","midi":95,"time":"273.51","velocity":0.29133858267716534,"duration":"0.86"},{"name":"D#7","midi":99,"time":"273.51","velocity":0.09448818897637795,"duration":"0.06"},{"name":"A#2","midi":46,"time":"273.52","velocity":0.5511811023622047,"duration":"0.01"},{"name":"B4","midi":71,"time":"273.52","velocity":0.4015748031496063,"duration":"0.07"},{"name":"B2","midi":47,"time":"273.53","velocity":0.5826771653543307,"duration":"0.01"},{"name":"G#5","midi":80,"time":"273.53","velocity":0.1732283464566929,"duration":"0.06"},{"name":"C3","midi":48,"time":"273.55","velocity":0.5275590551181102,"duration":"0.01"},{"name":"B2","midi":47,"time":"273.56","velocity":0.5826771653543307,"duration":"0.23"},{"name":"A#5","midi":82,"time":"273.57","velocity":0.2440944881889764,"duration":"0.13"},{"name":"G#1","midi":32,"time":"273.58","velocity":0.4015748031496063,"duration":"0.02"},{"name":"F7","midi":101,"time":"273.59","velocity":0.12598425196850394,"duration":"0.12"},{"name":"B4","midi":71,"time":"273.60","velocity":0.5039370078740157,"duration":"0.35"},{"name":"G#5","midi":80,"time":"273.62","velocity":0.2047244094488189,"duration":"0.07"},{"name":"D6","midi":86,"time":"273.62","velocity":0.2204724409448819,"duration":"0.19"},{"name":"E5","midi":76,"time":"273.66","velocity":0.07874015748031496,"duration":"0.03"},{"name":"C6","midi":84,"time":"273.67","velocity":0.1968503937007874,"duration":"0.03"},{"name":"A5","midi":81,"time":"273.70","velocity":0.2677165354330709,"duration":"0.13"},{"name":"G6","midi":91,"time":"273.71","velocity":0.10236220472440945,"duration":"0.05"},{"name":"C#7","midi":97,"time":"273.71","velocity":0.15748031496062992,"duration":"0.09"},{"name":"C#2","midi":37,"time":"273.72","velocity":0.23622047244094488,"duration":"0.02"},{"name":"G#6","midi":92,"time":"273.72","velocity":0.18110236220472442,"duration":"0.06"},{"name":"D#7","midi":99,"time":"273.73","velocity":0.10236220472440945,"duration":"0.05"},{"name":"F7","midi":101,"time":"273.77","velocity":0.25196850393700787,"duration":"0.21"},{"name":"D#6","midi":87,"time":"273.78","velocity":0.1732283464566929,"duration":"0.06"},{"name":"C3","midi":48,"time":"273.79","velocity":0.5196850393700787,"duration":"0.02"},{"name":"F6","midi":89,"time":"273.80","velocity":0.1889763779527559,"duration":"0.06"},{"name":"G7","midi":103,"time":"273.80","velocity":0.25984251968503935,"duration":"0.13"},{"name":"A#2","midi":46,"time":"273.81","velocity":0.5826771653543307,"duration":"0.03"},{"name":"F3","midi":53,"time":"273.81","velocity":0.4330708661417323,"duration":"0.02"},{"name":"D#5","midi":75,"time":"273.81","velocity":0.2283464566929134,"duration":"0.03"},{"name":"E6","midi":88,"time":"273.81","velocity":0.23622047244094488,"duration":"0.24"},{"name":"G6","midi":91,"time":"273.81","velocity":0.14173228346456693,"duration":"0.15"},{"name":"G#6","midi":92,"time":"273.81","velocity":0.2047244094488189,"duration":"0.13"},{"name":"C6","midi":84,"time":"273.83","velocity":0.2755905511811024,"duration":"0.08"},{"name":"D6","midi":86,"time":"273.83","velocity":0.3700787401574803,"duration":"0.40"},{"name":"D#7","midi":99,"time":"273.83","velocity":0.30708661417322836,"duration":"0.08"},{"name":"F#3","midi":54,"time":"273.84","velocity":0.49606299212598426,"duration":"0.34"},{"name":"B3","midi":59,"time":"273.84","velocity":0.2755905511811024,"duration":"0.05"},{"name":"A4","midi":69,"time":"273.84","velocity":0.2992125984251969,"duration":"0.03"},{"name":"B2","midi":47,"time":"273.85","velocity":0.5905511811023622,"duration":"0.33"},{"name":"D#6","midi":87,"time":"273.85","velocity":0.09448818897637795,"duration":"0.03"},{"name":"A#1","midi":34,"time":"273.86","velocity":0.3464566929133858,"duration":"0.02"},{"name":"G#5","midi":80,"time":"273.87","velocity":0.11811023622047244,"duration":"0.05"},{"name":"D4","midi":62,"time":"273.88","velocity":0.2755905511811024,"duration":"0.07"},{"name":"B1","midi":35,"time":"273.90","velocity":0.30708661417322836,"duration":"0.03"},{"name":"A4","midi":69,"time":"273.90","velocity":0.3937007874015748,"duration":"0.28"},{"name":"G#5","midi":80,"time":"273.93","velocity":0.18110236220472442,"duration":"0.07"},{"name":"D#7","midi":99,"time":"273.93","velocity":0.07086614173228346,"duration":"0.03"},{"name":"C6","midi":84,"time":"273.95","velocity":0.33070866141732286,"duration":"0.12"},{"name":"D4","midi":62,"time":"273.97","velocity":0.31496062992125984,"duration":"0.07"},{"name":"B4","midi":71,"time":"273.97","velocity":0.3779527559055118,"duration":"0.17"},{"name":"A#1","midi":34,"time":"273.98","velocity":0.31496062992125984,"duration":"0.02"},{"name":"F6","midi":89,"time":"273.99","velocity":0.10236220472440945,"duration":"0.03"},{"name":"G#5","midi":80,"time":"274.01","velocity":0.13385826771653545,"duration":"0.03"},{"name":"A#6","midi":94,"time":"274.01","velocity":0.11811023622047244,"duration":"0.06"},{"name":"D#7","midi":99,"time":"274.01","velocity":0.11811023622047244,"duration":"0.07"},{"name":"B1","midi":35,"time":"274.02","velocity":0.2992125984251969,"duration":"0.02"},{"name":"G7","midi":103,"time":"274.02","velocity":0.11811023622047244,"duration":"0.08"},{"name":"B5","midi":83,"time":"274.03","velocity":0.3937007874015748,"duration":"0.16"},{"name":"F6","midi":89,"time":"274.05","velocity":0.13385826771653545,"duration":"0.05"},{"name":"D4","midi":62,"time":"274.07","velocity":0.3228346456692913,"duration":"0.05"},{"name":"B1","midi":35,"time":"274.08","velocity":0.25984251968503935,"duration":"0.02"},{"name":"C6","midi":84,"time":"274.08","velocity":0.28346456692913385,"duration":"0.05"},{"name":"E6","midi":88,"time":"274.08","velocity":0.09448818897637795,"duration":"0.07"},{"name":"C#5","midi":73,"time":"274.12","velocity":0.4094488188976378,"duration":"0.13"},{"name":"D4","midi":62,"time":"274.13","velocity":0.3464566929133858,"duration":"0.05"},{"name":"B1","midi":35,"time":"274.14","velocity":0.25984251968503935,"duration":"0.02"},{"name":"C6","midi":84,"time":"274.14","velocity":0.2283464566929134,"duration":"0.05"},{"name":"G#6","midi":92,"time":"274.14","velocity":0.31496062992125984,"duration":"0.38"},{"name":"G7","midi":103,"time":"274.14","velocity":0.2204724409448819,"duration":"0.17"},{"name":"C3","midi":48,"time":"274.17","velocity":0.5354330708661418,"duration":"0.05"},{"name":"A#5","midi":82,"time":"274.17","velocity":0.3543307086614173,"duration":"0.03"},{"name":"E6","midi":88,"time":"274.17","velocity":0.33070866141732286,"duration":"0.14"},{"name":"F6","midi":89,"time":"274.17","velocity":0.2755905511811024,"duration":"0.02"},{"name":"C#7","midi":97,"time":"274.17","velocity":0.2677165354330709,"duration":"0.30"},{"name":"G#4","midi":68,"time":"274.19","velocity":0.5905511811023622,"duration":"0.02"},{"name":"E5","midi":76,"time":"274.19","velocity":0.5039370078740157,"duration":"0.03"},{"name":"C7","midi":96,"time":"274.19","velocity":0.29133858267716534,"duration":"0.13"},{"name":"D#7","midi":99,"time":"274.19","velocity":0.2440944881889764,"duration":"0.23"},{"name":"G3","midi":55,"time":"274.20","velocity":0.5590551181102362,"duration":"0.02"},{"name":"E4","midi":64,"time":"274.20","velocity":0.4566929133858268,"duration":"0.02"},{"name":"A5","midi":81,"time":"274.20","velocity":0.3543307086614173,"duration":"0.17"},{"name":"G6","midi":91,"time":"274.20","velocity":0.2440944881889764,"duration":"0.03"},{"name":"F#4","midi":66,"time":"274.21","velocity":0.4330708661417323,"duration":"0.07"},{"name":"A4","midi":69,"time":"274.21","velocity":0.5826771653543307,"duration":"0.03"},{"name":"B5","midi":83,"time":"274.21","velocity":0.3700787401574803,"duration":"0.10"},{"name":"F6","midi":89,"time":"274.21","velocity":0.2283464566929134,"duration":"0.09"},{"name":"B2","midi":47,"time":"274.22","velocity":0.5905511811023622,"duration":"0.33"},{"name":"F#3","midi":54,"time":"274.22","velocity":0.4881889763779528,"duration":"0.29"},{"name":"D#5","midi":75,"time":"274.22","velocity":0.2440944881889764,"duration":"0.02"},{"name":"F5","midi":77,"time":"274.22","velocity":0.3228346456692913,"duration":"0.02"},{"name":"D#4","midi":63,"time":"274.23","velocity":0.33858267716535434,"duration":"0.02"},{"name":"F#5","midi":78,"time":"274.23","velocity":0.4330708661417323,"duration":"1.44"},{"name":"D6","midi":86,"time":"274.23","velocity":0.2992125984251969,"duration":"0.08"},{"name":"A#1","midi":34,"time":"274.24","velocity":0.33070866141732286,"duration":"0.02"},{"name":"G#4","midi":68,"time":"274.24","velocity":0.4094488188976378,"duration":"0.06"},{"name":"A#4","midi":70,"time":"274.24","velocity":0.4251968503937008,"duration":"0.02"},{"name":"D5","midi":74,"time":"274.24","velocity":0.31496062992125984,"duration":"0.02"},{"name":"E5","midi":76,"time":"274.24","velocity":0.2440944881889764,"duration":"0.03"},{"name":"C6","midi":84,"time":"274.26","velocity":0.23622047244094488,"duration":"0.05"},{"name":"B4","midi":71,"time":"274.27","velocity":0.4566929133858268,"duration":"0.09"},{"name":"C#5","midi":73,"time":"274.27","velocity":0.29133858267716534,"duration":"0.02"},{"name":"D5","midi":74,"time":"274.29","velocity":0.3543307086614173,"duration":"0.03"},{"name":"E5","midi":76,"time":"274.29","velocity":0.25196850393700787,"duration":"0.02"},{"name":"A#5","midi":82,"time":"274.29","velocity":0.2440944881889764,"duration":"0.03"},{"name":"D4","midi":62,"time":"274.30","velocity":0.3858267716535433,"duration":"0.28"},{"name":"F5","midi":77,"time":"274.30","velocity":0.25196850393700787,"duration":"0.02"},{"name":"G#5","midi":80,"time":"274.30","velocity":0.1968503937007874,"duration":"0.05"},{"name":"D#6","midi":87,"time":"274.31","velocity":0.2283464566929134,"duration":"0.02"},{"name":"C2","midi":36,"time":"274.33","velocity":0.2755905511811024,"duration":"0.02"},{"name":"C#5","midi":73,"time":"274.33","velocity":0.3858267716535433,"duration":"0.07"},{"name":"C6","midi":84,"time":"274.33","velocity":0.2125984251968504,"duration":"0.03"},{"name":"E6","midi":88,"time":"274.33","velocity":0.2204724409448819,"duration":"0.63"},{"name":"D#6","midi":87,"time":"274.35","velocity":0.1968503937007874,"duration":"0.07"},{"name":"C7","midi":96,"time":"274.35","velocity":0.2125984251968504,"duration":"0.23"},{"name":"G7","midi":103,"time":"274.35","velocity":0.1732283464566929,"duration":"0.09"},{"name":"A#1","midi":34,"time":"274.36","velocity":0.25196850393700787,"duration":"0.02"},{"name":"G#5","midi":80,"time":"274.36","velocity":0.2283464566929134,"duration":"0.07"},{"name":"A#3","midi":58,"time":"274.37","velocity":0.41732283464566927,"duration":"0.07"},{"name":"B4","midi":71,"time":"274.37","velocity":0.4645669291338583,"duration":"0.28"},{"name":"E5","midi":76,"time":"274.38","velocity":0.28346456692913385,"duration":"0.02"},{"name":"D6","midi":86,"time":"274.38","velocity":0.25196850393700787,"duration":"0.17"},{"name":"A#5","midi":82,"time":"274.40","velocity":0.2440944881889764,"duration":"0.05"},{"name":"E5","midi":76,"time":"274.42","velocity":0.2047244094488189,"duration":"0.03"},{"name":"C#5","midi":73,"time":"274.43","velocity":0.3700787401574803,"duration":"0.03"},{"name":"A5","midi":81,"time":"274.43","velocity":0.2755905511811024,"duration":"0.03"},{"name":"G#5","midi":80,"time":"274.44","velocity":0.16535433070866143,"duration":"0.06"},{"name":"A#3","midi":58,"time":"274.45","velocity":0.4094488188976378,"duration":"0.05"},{"name":"A#5","midi":82,"time":"274.45","velocity":0.3779527559055118,"duration":"0.37"},{"name":"D#7","midi":99,"time":"274.45","velocity":0.15748031496062992,"duration":"0.07"},{"name":"D5","midi":74,"time":"274.48","velocity":0.4409448818897638,"duration":"0.56"},{"name":"A5","midi":81,"time":"274.48","velocity":0.2283464566929134,"duration":"0.03"},{"name":"B1","midi":35,"time":"274.49","velocity":0.28346456692913385,"duration":"0.05"},{"name":"F7","midi":101,"time":"274.50","velocity":0.10236220472440945,"duration":"0.03"},{"name":"A6","midi":93,"time":"274.51","velocity":0.25984251968503935,"duration":"0.81"},{"name":"A#3","midi":58,"time":"274.53","velocity":0.4330708661417323,"duration":"0.05"},{"name":"D#6","midi":87,"time":"274.53","velocity":0.2125984251968504,"duration":"0.10"},{"name":"C3","midi":48,"time":"274.55","velocity":0.5511811023622047,"duration":"0.01"},{"name":"A4","midi":69,"time":"274.56","velocity":0.25984251968503935,"duration":"0.02"},{"name":"A5","midi":81,"time":"274.56","velocity":0.31496062992125984,"duration":"0.03"},{"name":"G#6","midi":92,"time":"274.56","velocity":0.2283464566929134,"duration":"0.31"},{"name":"F7","midi":101,"time":"274.56","velocity":0.14960629921259844,"duration":"0.07"},{"name":"F6","midi":89,"time":"274.57","velocity":0.18110236220472442,"duration":"0.03"},{"name":"G7","midi":103,"time":"274.57","velocity":0.14960629921259844,"duration":"0.05"},{"name":"B2","midi":47,"time":"274.58","velocity":0.5826771653543307,"duration":"0.34"},{"name":"F#3","midi":54,"time":"274.58","velocity":0.4566929133858268,"duration":"0.34"},{"name":"G6","midi":91,"time":"274.58","velocity":0.11811023622047244,"duration":"0.08"},{"name":"D#7","midi":99,"time":"274.58","velocity":0.23622047244094488,"duration":"0.07"},{"name":"D4","midi":62,"time":"274.59","velocity":0.4251968503937008,"duration":"0.21"},{"name":"C6","midi":84,"time":"274.59","velocity":0.3543307086614173,"duration":"0.29"},{"name":"G#5","midi":80,"time":"274.62","velocity":0.08661417322834646,"duration":"0.03"},{"name":"B1","midi":35,"time":"274.63","velocity":0.33858267716535434,"duration":"0.05"},{"name":"A4","midi":69,"time":"274.63","velocity":0.41732283464566927,"duration":"0.26"},{"name":"G7","midi":103,"time":"274.64","velocity":0.15748031496062992,"duration":"0.14"},{"name":"B5","midi":83,"time":"274.65","velocity":0.3464566929133858,"duration":"0.02"},{"name":"F7","midi":101,"time":"274.65","velocity":0.18110236220472442,"duration":"0.12"},{"name":"D#7","midi":99,"time":"274.67","velocity":0.11023622047244094,"duration":"0.03"},{"name":"G#5","midi":80,"time":"274.69","velocity":0.13385826771653545,"duration":"0.10"},{"name":"A#1","midi":34,"time":"274.70","velocity":0.2992125984251969,"duration":"0.02"},{"name":"F6","midi":89,"time":"274.70","velocity":0.11811023622047244,"duration":"0.06"},{"name":"B1","midi":35,"time":"274.72","velocity":0.33070866141732286,"duration":"0.14"},{"name":"B5","midi":83,"time":"274.72","velocity":0.33858267716535434,"duration":"0.06"},{"name":"C#7","midi":97,"time":"274.73","velocity":0.09448818897637795,"duration":"0.05"},{"name":"D#7","midi":99,"time":"274.74","velocity":0.1889763779527559,"duration":"0.40"},{"name":"G6","midi":91,"time":"274.77","velocity":0.11023622047244094,"duration":"0.09"},{"name":"D#4","midi":63,"time":"274.80","velocity":0.30708661417322836,"duration":"0.03"},{"name":"C#6","midi":85,"time":"274.80","velocity":0.08661417322834646,"duration":"0.05"},{"name":"G7","midi":103,"time":"274.80","velocity":0.12598425196850394,"duration":"0.05"},{"name":"B5","midi":83,"time":"274.81","velocity":0.2755905511811024,"duration":"0.03"},{"name":"A#1","midi":34,"time":"274.86","velocity":0.29133858267716534,"duration":"0.02"},{"name":"B5","midi":83,"time":"274.86","velocity":0.33858267716535434,"duration":"0.14"},{"name":"D4","midi":62,"time":"274.88","velocity":0.3779527559055118,"duration":"0.03"},{"name":"B1","midi":35,"time":"274.90","velocity":0.33070866141732286,"duration":"0.03"},{"name":"G#6","midi":92,"time":"274.90","velocity":0.18110236220472442,"duration":"0.05"},{"name":"C6","midi":84,"time":"274.91","velocity":0.3543307086614173,"duration":"0.38"},{"name":"C3","midi":48,"time":"274.92","velocity":0.6141732283464567,"duration":"0.03"},{"name":"G6","midi":91,"time":"274.93","velocity":0.2047244094488189,"duration":"0.12"},{"name":"C#7","midi":97,"time":"274.93","velocity":0.1732283464566929,"duration":"0.19"},{"name":"F7","midi":101,"time":"274.93","velocity":0.2755905511811024,"duration":"0.26"},{"name":"C#6","midi":85,"time":"274.94","velocity":0.18110236220472442,"duration":"0.05"},{"name":"F6","midi":89,"time":"274.94","velocity":0.13385826771653545,"duration":"0.05"},{"name":"F2","midi":41,"time":"274.95","velocity":0.6456692913385826,"duration":"0.02"},{"name":"A5","midi":81,"time":"274.95","velocity":0.2204724409448819,"duration":"0.03"},{"name":"G#6","midi":92,"time":"274.95","velocity":0.23622047244094488,"duration":"0.12"},{"name":"D4","midi":62,"time":"274.97","velocity":0.48031496062992124,"duration":"0.38"},{"name":"B4","midi":71,"time":"274.97","velocity":0.44881889763779526,"duration":"0.13"},{"name":"F3","midi":53,"time":"274.98","velocity":0.4409448818897638,"duration":"0.02"},{"name":"F5","midi":77,"time":"274.98","velocity":0.14960629921259844,"duration":"0.03"},{"name":"E6","midi":88,"time":"274.98","velocity":0.1732283464566929,"duration":"0.20"},{"name":"E1","midi":28,"time":"274.99","velocity":0.5669291338582677,"duration":"0.01"},{"name":"A#1","midi":34,"time":"275.00","velocity":0.5590551181102362,"duration":"0.01"},{"name":"F#3","midi":54,"time":"275.00","velocity":0.4645669291338583,"duration":"0.03"},{"name":"A5","midi":81,"time":"275.00","velocity":0.25196850393700787,"duration":"0.31"},{"name":"C#2","midi":37,"time":"275.01","velocity":0.5196850393700787,"duration":"0.02"},{"name":"B3","midi":59,"time":"275.01","velocity":0.3779527559055118,"duration":"0.03"},{"name":"A#2","midi":46,"time":"275.02","velocity":0.5354330708661418,"duration":"0.02"},{"name":"A4","midi":69,"time":"275.02","velocity":0.3937007874015748,"duration":"0.17"},{"name":"C#5","midi":73,"time":"275.02","velocity":0.31496062992125984,"duration":"0.29"},{"name":"D#6","midi":87,"time":"275.02","velocity":0.11811023622047244,"duration":"0.06"},{"name":"B1","midi":35,"time":"275.03","velocity":0.4094488188976378,"duration":"0.02"},{"name":"C3","midi":48,"time":"275.05","velocity":0.5511811023622047,"duration":"0.01"},{"name":"F#3","midi":54,"time":"275.05","velocity":0.44881889763779526,"duration":"0.02"},{"name":"B2","midi":47,"time":"275.06","velocity":0.5826771653543307,"duration":"0.05"},{"name":"F#3","midi":54,"time":"275.08","velocity":0.44881889763779526,"duration":"0.06"},{"name":"G7","midi":103,"time":"275.08","velocity":0.2204724409448819,"duration":"0.08"},{"name":"F6","midi":89,"time":"275.09","velocity":0.12598425196850394,"duration":"0.03"},{"name":"G#6","midi":92,"time":"275.09","velocity":0.11811023622047244,"duration":"0.14"},{"name":"F1","midi":29,"time":"275.10","velocity":0.36220472440944884,"duration":"0.02"},{"name":"A#2","midi":46,"time":"275.10","velocity":0.5275590551181102,"duration":"0.01"},{"name":"G#5","midi":80,"time":"275.10","velocity":0.10236220472440945,"duration":"0.03"},{"name":"B2","midi":47,"time":"275.12","velocity":0.5826771653543307,"duration":"0.19"},{"name":"D#6","midi":87,"time":"275.13","velocity":0.16535433070866143,"duration":"0.07"},{"name":"A#1","midi":34,"time":"275.14","velocity":0.41732283464566927,"duration":"0.02"},{"name":"C#7","midi":97,"time":"275.14","velocity":0.11023622047244094,"duration":"0.13"},{"name":"F#3","midi":54,"time":"275.15","velocity":0.4330708661417323,"duration":"0.15"},{"name":"B4","midi":71,"time":"275.15","velocity":0.47244094488188976,"duration":"0.29"},{"name":"F6","midi":89,"time":"275.17","velocity":0.2204724409448819,"duration":"0.15"},{"name":"G7","midi":103,"time":"275.19","velocity":0.2204724409448819,"duration":"0.27"},{"name":"E6","midi":88,"time":"275.20","velocity":0.13385826771653545,"duration":"0.12"},{"name":"A#6","midi":94,"time":"275.22","velocity":0.13385826771653545,"duration":"0.06"},{"name":"D#6","midi":87,"time":"275.26","velocity":0.16535433070866143,"duration":"0.05"},{"name":"D#7","midi":99,"time":"275.27","velocity":0.1968503937007874,"duration":"0.16"},{"name":"D6","midi":86,"time":"275.28","velocity":0.1889763779527559,"duration":"0.03"},{"name":"C#7","midi":97,"time":"275.29","velocity":0.15748031496062992,"duration":"0.05"},{"name":"G#2","midi":44,"time":"275.30","velocity":0.5196850393700787,"duration":"0.01"},{"name":"C7","midi":96,"time":"275.30","velocity":0.14960629921259844,"duration":"0.03"},{"name":"E7","midi":100,"time":"275.30","velocity":0.18110236220472442,"duration":"0.15"},{"name":"F7","midi":101,"time":"275.30","velocity":0.23622047244094488,"duration":"0.15"},{"name":"F2","midi":41,"time":"275.31","velocity":0.7007874015748031,"duration":"0.02"},{"name":"A4","midi":69,"time":"275.31","velocity":0.30708661417322836,"duration":"0.03"},{"name":"E5","midi":76,"time":"275.31","velocity":0.2283464566929134,"duration":"0.03"},{"name":"G#5","midi":80,"time":"275.31","velocity":0.2440944881889764,"duration":"0.06"},{"name":"D#6","midi":87,"time":"275.31","velocity":0.2204724409448819,"duration":"0.05"},{"name":"A#6","midi":94,"time":"275.31","velocity":0.10236220472440945,"duration":"0.03"},{"name":"C6","midi":84,"time":"275.33","velocity":0.30708661417322836,"duration":"0.03"},{"name":"D7","midi":98,"time":"275.33","velocity":0.10236220472440945,"duration":"0.06"},{"name":"E2","midi":40,"time":"275.34","velocity":0.5984251968503937,"duration":"0.01"},{"name":"C#3","midi":49,"time":"275.34","velocity":0.5905511811023622,"duration":"0.01"},{"name":"F#3","midi":54,"time":"275.34","velocity":0.5275590551181102,"duration":"0.01"},{"name":"C4","midi":60,"time":"275.34","velocity":0.31496062992125984,"duration":"0.02"},{"name":"A#5","midi":82,"time":"275.34","velocity":0.1889763779527559,"duration":"0.03"},{"name":"D6","midi":86,"time":"275.34","velocity":0.33858267716535434,"duration":"0.38"},{"name":"A6","midi":93,"time":"275.34","velocity":0.25984251968503935,"duration":"0.24"},{"name":"D#2","midi":39,"time":"275.35","velocity":0.5275590551181102,"duration":"0.01"},{"name":"C3","midi":48,"time":"275.35","velocity":0.6062992125984252,"duration":"0.01"},{"name":"G4","midi":67,"time":"275.35","velocity":0.31496062992125984,"duration":"0.02"},{"name":"G#6","midi":92,"time":"275.35","velocity":0.2440944881889764,"duration":"0.08"},{"name":"D1","midi":26,"time":"275.36","velocity":0.5433070866141733,"duration":"0.01"},{"name":"B2","midi":47,"time":"275.36","velocity":0.6377952755905512,"duration":"0.03"},{"name":"E4","midi":64,"time":"275.36","velocity":0.25984251968503935,"duration":"0.02"},{"name":"A4","midi":69,"time":"275.36","velocity":0.36220472440944884,"duration":"0.16"},{"name":"F#1","midi":30,"time":"275.37","velocity":0.5669291338582677,"duration":"0.01"},{"name":"F#4","midi":66,"time":"275.37","velocity":0.30708661417322836,"duration":"0.30"},{"name":"C6","midi":84,"time":"275.37","velocity":0.2677165354330709,"duration":"0.08"},{"name":"C#7","midi":97,"time":"275.37","velocity":0.18110236220472442,"duration":"0.12"},{"name":"B1","midi":35,"time":"275.38","velocity":0.5275590551181102,"duration":"0.01"},{"name":"D#4","midi":63,"time":"275.38","velocity":0.28346456692913385,"duration":"0.05"},{"name":"F6","midi":89,"time":"275.38","velocity":0.08661417322834646,"duration":"0.05"},{"name":"A#2","midi":46,"time":"275.40","velocity":0.5826771653543307,"duration":"0.02"},{"name":"C#5","midi":73,"time":"275.41","velocity":0.18110236220472442,"duration":"0.05"},{"name":"B2","midi":47,"time":"275.42","velocity":0.6062992125984252,"duration":"0.20"},{"name":"D4","midi":62,"time":"275.43","velocity":0.3700787401574803,"duration":"0.24"},{"name":"D#6","midi":87,"time":"275.44","velocity":0.15748031496062992,"duration":"0.03"},{"name":"F#3","midi":54,"time":"275.45","velocity":0.4251968503937008,"duration":"0.05"},{"name":"B5","midi":83,"time":"275.45","velocity":0.4330708661417323,"duration":"0.30"},{"name":"C6","midi":84,"time":"275.47","velocity":0.2440944881889764,"duration":"0.07"},{"name":"G7","midi":103,"time":"275.48","velocity":0.12598425196850394,"duration":"0.05"},{"name":"B4","midi":71,"time":"275.50","velocity":0.3779527559055118,"duration":"0.10"},{"name":"E1","midi":28,"time":"275.51","velocity":0.30708661417322836,"duration":"0.02"},{"name":"F#3","midi":54,"time":"275.51","velocity":0.4251968503937008,"duration":"0.03"},{"name":"F6","midi":89,"time":"275.51","velocity":0.11811023622047244,"duration":"0.05"},{"name":"A4","midi":69,"time":"275.53","velocity":0.2204724409448819,"duration":"0.05"},{"name":"G#6","midi":92,"time":"275.53","velocity":0.07874015748031496,"duration":"0.03"},{"name":"E6","midi":88,"time":"275.55","velocity":0.3779527559055118,"duration":"0.29"},{"name":"G7","midi":103,"time":"275.55","velocity":0.12598425196850394,"duration":"0.08"},{"name":"F#3","midi":54,"time":"275.56","velocity":0.41732283464566927,"duration":"0.02"},{"name":"C6","midi":84,"time":"275.57","velocity":0.23622047244094488,"duration":"0.03"},{"name":"F#3","midi":54,"time":"275.59","velocity":0.4409448818897638,"duration":"0.03"},{"name":"A4","midi":69,"time":"275.59","velocity":0.28346456692913385,"duration":"0.08"},{"name":"G#6","midi":92,"time":"275.59","velocity":0.11023622047244094,"duration":"0.05"},{"name":"A#2","midi":46,"time":"275.62","velocity":0.5590551181102362,"duration":"0.01"},{"name":"D#7","midi":99,"time":"275.62","velocity":0.29133858267716534,"duration":"0.87"},{"name":"B2","midi":47,"time":"275.63","velocity":0.6062992125984252,"duration":"0.05"},{"name":"C7","midi":96,"time":"275.65","velocity":0.30708661417322836,"duration":"0.87"},{"name":"C6","midi":84,"time":"275.66","velocity":0.25984251968503935,"duration":"0.02"},{"name":"C4","midi":60,"time":"275.67","velocity":0.5118110236220472,"duration":"0.05"},{"name":"A#4","midi":70,"time":"275.67","velocity":0.5354330708661418,"duration":"0.03"},{"name":"G5","midi":79,"time":"275.67","velocity":0.3464566929133858,"duration":"0.03"},{"name":"G#5","midi":80,"time":"275.67","velocity":0.3464566929133858,"duration":"0.12"},{"name":"C#6","midi":85,"time":"275.67","velocity":0.28346456692913385,"duration":"0.38"},{"name":"A#6","midi":94,"time":"275.67","velocity":0.28346456692913385,"duration":"0.33"},{"name":"F7","midi":101,"time":"275.67","velocity":0.29133858267716534,"duration":"0.33"},{"name":"E4","midi":64,"time":"275.69","velocity":0.5275590551181102,"duration":"0.02"},{"name":"A4","midi":69,"time":"275.69","velocity":0.5118110236220472,"duration":"0.01"},{"name":"C#5","midi":73,"time":"275.69","velocity":0.29133858267716534,"duration":"0.02"},{"name":"F#4","midi":66,"time":"275.70","velocity":0.47244094488188976,"duration":"0.03"},{"name":"G#4","midi":68,"time":"275.70","velocity":0.5590551181102362,"duration":"0.01"},{"name":"C6","midi":84,"time":"275.70","velocity":0.3700787401574803,"duration":"0.03"},{"name":"G7","midi":103,"time":"275.70","velocity":0.15748031496062992,"duration":"0.06"},{"name":"B2","midi":47,"time":"275.71","velocity":0.5275590551181102,"duration":"0.02"},{"name":"A4","midi":69,"time":"275.71","velocity":0.5511811023622047,"duration":"0.01"},{"name":"A#5","midi":82,"time":"275.71","velocity":0.36220472440944884,"duration":"0.26"},{"name":"D#6","midi":87,"time":"275.71","velocity":0.25196850393700787,"duration":"0.05"},{"name":"B4","midi":71,"time":"275.72","velocity":0.4330708661417323,"duration":"0.05"},{"name":"C#5","midi":73,"time":"275.72","velocity":0.33858267716535434,"duration":"0.05"},{"name":"C3","midi":48,"time":"275.73","velocity":0.5354330708661418,"duration":"0.01"},{"name":"G#4","midi":68,"time":"275.73","velocity":0.4409448818897638,"duration":"0.09"},{"name":"D#5","midi":75,"time":"275.73","velocity":0.3779527559055118,"duration":"0.03"},{"name":"D6","midi":86,"time":"275.73","velocity":0.1732283464566929,"duration":"0.03"},{"name":"F6","midi":89,"time":"275.73","velocity":0.1889763779527559,"duration":"0.06"},{"name":"F#3","midi":54,"time":"275.74","velocity":0.3937007874015748,"duration":"0.05"},{"name":"A#3","midi":58,"time":"275.74","velocity":0.3464566929133858,"duration":"0.02"},{"name":"D4","midi":62,"time":"275.74","velocity":0.3858267716535433,"duration":"0.08"},{"name":"A#2","midi":46,"time":"275.76","velocity":0.5433070866141733,"duration":"0.01"},{"name":"C6","midi":84,"time":"275.76","velocity":0.2283464566929134,"duration":"0.05"},{"name":"G6","midi":91,"time":"275.76","velocity":0.12598425196850394,"duration":"0.09"},{"name":"B2","midi":47,"time":"275.77","velocity":0.5905511811023622,"duration":"0.29"},{"name":"D#6","midi":87,"time":"275.77","velocity":0.31496062992125984,"duration":"0.20"},{"name":"C#5","midi":73,"time":"275.78","velocity":0.41732283464566927,"duration":"0.13"},{"name":"A5","midi":81,"time":"275.78","velocity":0.33858267716535434,"duration":"0.03"},{"name":"D#5","midi":75,"time":"275.79","velocity":0.31496062992125984,"duration":"0.03"},{"name":"A#1","midi":34,"time":"275.80","velocity":0.2755905511811024,"duration":"0.02"},{"name":"A#3","midi":58,"time":"275.80","velocity":0.4330708661417323,"duration":"0.03"},{"name":"F#4","midi":66,"time":"275.80","velocity":0.30708661417322836,"duration":"0.03"},{"name":"A4","midi":69,"time":"275.81","velocity":0.3228346456692913,"duration":"0.03"},{"name":"F6","midi":89,"time":"275.81","velocity":0.16535433070866143,"duration":"0.08"},{"name":"G7","midi":103,"time":"275.81","velocity":0.15748031496062992,"duration":"0.20"},{"name":"F#3","midi":54,"time":"275.83","velocity":0.3937007874015748,"duration":"0.02"},{"name":"A5","midi":81,"time":"275.83","velocity":0.36220472440944884,"duration":"0.03"},{"name":"C6","midi":84,"time":"275.83","velocity":0.2677165354330709,"duration":"0.23"},{"name":"D4","midi":62,"time":"275.84","velocity":0.41732283464566927,"duration":"0.63"},{"name":"G#5","midi":80,"time":"275.84","velocity":0.33070866141732286,"duration":"0.07"},{"name":"D6","midi":86,"time":"275.84","velocity":0.2125984251968504,"duration":"0.17"},{"name":"B1","midi":35,"time":"275.85","velocity":0.31496062992125984,"duration":"0.05"},{"name":"F#4","midi":66,"time":"275.85","velocity":0.23622047244094488,"duration":"0.03"},{"name":"A4","midi":69,"time":"275.86","velocity":0.3700787401574803,"duration":"0.06"},{"name":"F#3","midi":54,"time":"275.87","velocity":0.4015748031496063,"duration":"0.02"},{"name":"A#3","midi":58,"time":"275.87","velocity":0.4645669291338583,"duration":"0.05"},{"name":"G#4","midi":68,"time":"275.87","velocity":0.31496062992125984,"duration":"0.02"},{"name":"A6","midi":93,"time":"275.88","velocity":0.13385826771653545,"duration":"0.13"},{"name":"C2","midi":36,"time":"275.90","velocity":0.2992125984251969,"duration":"0.02"},{"name":"F#3","midi":54,"time":"275.91","velocity":0.4251968503937008,"duration":"0.02"},{"name":"B4","midi":71,"time":"275.91","velocity":0.2440944881889764,"duration":"0.07"},{"name":"D5","midi":74,"time":"275.91","velocity":0.44881889763779526,"duration":"0.02"},{"name":"A#1","midi":34,"time":"275.92","velocity":0.25984251968503935,"duration":"0.02"},{"name":"E6","midi":88,"time":"275.92","velocity":0.11023622047244094,"duration":"0.15"},{"name":"A4","midi":69,"time":"275.93","velocity":0.3779527559055118,"duration":"0.06"},{"name":"C#5","midi":73,"time":"275.93","velocity":0.3700787401574803,"duration":"0.02"},{"name":"G#5","midi":80,"time":"275.93","velocity":0.4881889763779528,"duration":"1.31"},{"name":"C2","midi":36,"time":"275.94","velocity":0.23622047244094488,"duration":"0.02"},{"name":"A#3","midi":58,"time":"275.94","velocity":0.3464566929133858,"duration":"0.02"},{"name":"F#3","midi":54,"time":"275.95","velocity":0.47244094488188976,"duration":"0.09"},{"name":"A#1","midi":34,"time":"275.97","velocity":0.2677165354330709,"duration":"0.02"},{"name":"C#5","midi":73,"time":"275.97","velocity":0.3700787401574803,"duration":"0.12"},{"name":"A#3","midi":58,"time":"275.98","velocity":0.4330708661417323,"duration":"0.07"},{"name":"G#4","midi":68,"time":"275.98","velocity":0.4015748031496063,"duration":"0.05"},{"name":"A#5","midi":82,"time":"275.98","velocity":0.3700787401574803,"duration":"0.21"},{"name":"D#6","midi":87,"time":"275.98","velocity":0.3228346456692913,"duration":"0.48"},{"name":"D#5","midi":75,"time":"276.00","velocity":0.28346456692913385,"duration":"0.07"},{"name":"F6","midi":89,"time":"276.00","velocity":0.12598425196850394,"duration":"0.03"},{"name":"G6","midi":91,"time":"276.01","velocity":0.07086614173228346,"duration":"0.03"},{"name":"F7","midi":101,"time":"276.02","velocity":0.1968503937007874,"duration":"0.28"},{"name":"G7","midi":103,"time":"276.03","velocity":0.11023622047244094,"duration":"0.05"},{"name":"D6","midi":86,"time":"276.05","velocity":0.14173228346456693,"duration":"0.05"},{"name":"A6","midi":93,"time":"276.05","velocity":0.1968503937007874,"duration":"0.09"},{"name":"B4","midi":71,"time":"276.06","velocity":0.23622047244094488,"duration":"0.02"},{"name":"C#7","midi":97,"time":"276.06","velocity":0.2125984251968504,"duration":"0.13"},{"name":"C3","midi":48,"time":"276.07","velocity":0.5118110236220472,"duration":"0.01"},{"name":"G3","midi":55,"time":"276.07","velocity":0.44881889763779526,"duration":"0.02"},{"name":"B2","midi":47,"time":"276.08","velocity":0.5826771653543307,"duration":"0.05"},{"name":"D#5","midi":75,"time":"276.08","velocity":0.2755905511811024,"duration":"0.03"},{"name":"C6","midi":84,"time":"276.08","velocity":0.31496062992125984,"duration":"0.36"},{"name":"G#4","midi":68,"time":"276.09","velocity":0.4015748031496063,"duration":"0.07"},{"name":"F6","midi":89,"time":"276.09","velocity":0.13385826771653545,"duration":"0.07"},{"name":"A#3","midi":58,"time":"276.10","velocity":0.4015748031496063,"duration":"0.02"},{"name":"G7","midi":103,"time":"276.10","velocity":0.1889763779527559,"duration":"0.17"},{"name":"F#3","midi":54,"time":"276.12","velocity":0.4645669291338583,"duration":"0.03"},{"name":"C#5","midi":73,"time":"276.12","velocity":0.33858267716535434,"duration":"0.16"},{"name":"E7","midi":100,"time":"276.12","velocity":0.10236220472440945,"duration":"0.03"},{"name":"A#2","midi":46,"time":"276.13","velocity":0.5511811023622047,"duration":"0.01"},{"name":"E6","midi":88,"time":"276.13","velocity":0.2125984251968504,"duration":"0.17"},{"name":"B2","midi":47,"time":"276.14","velocity":0.5905511811023622,"duration":"0.07"},{"name":"F#4","midi":66,"time":"276.15","velocity":0.25196850393700787,"duration":"0.16"},{"name":"A6","midi":93,"time":"276.15","velocity":0.1732283464566929,"duration":"0.16"},{"name":"F#3","midi":54,"time":"276.16","velocity":0.4409448818897638,"duration":"0.05"},{"name":"A#1","midi":34,"time":"276.17","velocity":0.23622047244094488,"duration":"0.02"},{"name":"A4","midi":69,"time":"276.17","velocity":0.3700787401574803,"duration":"0.17"},{"name":"A#3","midi":58,"time":"276.19","velocity":0.3464566929133858,"duration":"0.05"},{"name":"A#2","midi":46,"time":"276.21","velocity":0.5433070866141733,"duration":"0.01"},{"name":"A#6","midi":94,"time":"276.21","velocity":0.12598425196850394,"duration":"0.05"},{"name":"B1","midi":35,"time":"276.22","velocity":0.2992125984251969,"duration":"0.02"},{"name":"B2","midi":47,"time":"276.22","velocity":0.5905511811023622,"duration":"0.03"},{"name":"D6","midi":86,"time":"276.22","velocity":0.2047244094488189,"duration":"0.08"},{"name":"F#3","midi":54,"time":"276.24","velocity":0.4645669291338583,"duration":"0.05"},{"name":"A#5","midi":82,"time":"276.24","velocity":0.2204724409448819,"duration":"0.23"},{"name":"A#2","midi":46,"time":"276.26","velocity":0.5669291338582677,"duration":"0.01"},{"name":"B2","midi":47,"time":"276.27","velocity":0.5905511811023622,"duration":"0.02"},{"name":"A#3","midi":58,"time":"276.28","velocity":0.33070866141732286,"duration":"0.02"},{"name":"A#2","midi":46,"time":"276.29","velocity":0.5354330708661418,"duration":"0.01"},{"name":"C#5","midi":73,"time":"276.29","velocity":0.2677165354330709,"duration":"0.02"},{"name":"B2","midi":47,"time":"276.30","velocity":0.5905511811023622,"duration":"0.07"},{"name":"F#3","midi":54,"time":"276.30","velocity":0.4645669291338583,"duration":"0.05"},{"name":"E6","midi":88,"time":"276.31","velocity":0.16535433070866143,"duration":"0.33"},{"name":"F7","midi":101,"time":"276.31","velocity":0.07874015748031496,"duration":"0.03"},{"name":"C#5","midi":73,"time":"276.33","velocity":0.28346456692913385,"duration":"0.09"},{"name":"A6","midi":93,"time":"276.33","velocity":0.07874015748031496,"duration":"0.08"},{"name":"F#3","midi":54,"time":"276.36","velocity":0.4645669291338583,"duration":"0.02"},{"name":"A4","midi":69,"time":"276.36","velocity":0.3700787401574803,"duration":"0.05"},{"name":"D#5","midi":75,"time":"276.36","velocity":0.3228346456692913,"duration":"0.10"},{"name":"G7","midi":103,"time":"276.36","velocity":0.14173228346456693,"duration":"0.07"},{"name":"A#2","midi":46,"time":"276.37","velocity":0.5511811023622047,"duration":"0.01"},{"name":"B2","midi":47,"time":"276.38","velocity":0.5905511811023622,"duration":"0.05"},{"name":"F#4","midi":66,"time":"276.40","velocity":0.15748031496062992,"duration":"0.03"},{"name":"G3","midi":55,"time":"276.42","velocity":0.3858267716535433,"duration":"0.03"},{"name":"A4","midi":69,"time":"276.42","velocity":0.33858267716535434,"duration":"0.02"},{"name":"F7","midi":101,"time":"276.42","velocity":0.25984251968503935,"duration":"0.21"},{"name":"F#7","midi":102,"time":"276.42","velocity":0.1889763779527559,"duration":"0.09"},{"name":"C3","midi":48,"time":"276.43","velocity":0.5826771653543307,"duration":"0.02"},{"name":"A6","midi":93,"time":"276.43","velocity":0.2677165354330709,"duration":"0.03"},{"name":"D2","midi":38,"time":"276.44","velocity":0.5118110236220472,"duration":"0.01"},{"name":"G#4","midi":68,"time":"276.44","velocity":0.41732283464566927,"duration":"0.02"},{"name":"B6","midi":95,"time":"276.44","velocity":0.14173228346456693,"duration":"0.05"},{"name":"D7","midi":98,"time":"276.44","velocity":0.15748031496062992,"duration":"0.05"},{"name":"G7","midi":103,"time":"276.44","velocity":0.14173228346456693,"duration":"0.08"},{"name":"A2","midi":45,"time":"276.45","velocity":0.6692913385826772,"duration":"0.01"},{"name":"F#4","midi":66,"time":"276.45","velocity":0.3700787401574803,"duration":"0.02"},{"name":"B5","midi":83,"time":"276.45","velocity":0.13385826771653545,"duration":"0.05"},{"name":"F2","midi":41,"time":"276.47","velocity":0.6614173228346457,"duration":"0.01"},{"name":"B2","midi":47,"time":"276.47","velocity":0.5826771653543307,"duration":"0.01"},{"name":"A4","midi":69,"time":"276.47","velocity":0.3700787401574803,"duration":"0.05"},{"name":"C5","midi":72,"time":"276.47","velocity":0.1732283464566929,"duration":"0.03"},{"name":"C#7","midi":97,"time":"276.47","velocity":0.1889763779527559,"duration":"0.17"},{"name":"E2","midi":40,"time":"276.48","velocity":0.5905511811023622,"duration":"0.01"},{"name":"C4","midi":60,"time":"276.48","velocity":0.2677165354330709,"duration":"0.02"},{"name":"C6","midi":84,"time":"276.48","velocity":0.3543307086614173,"duration":"0.74"},{"name":"G#2","midi":44,"time":"276.49","velocity":0.5118110236220472,"duration":"0.01"},{"name":"G4","midi":67,"time":"276.49","velocity":0.3543307086614173,"duration":"0.02"},{"name":"F#6","midi":90,"time":"276.49","velocity":0.11023622047244094,"duration":"0.06"},{"name":"D#1","midi":27,"time":"276.50","velocity":0.5196850393700787,"duration":"0.01"},{"name":"B2","midi":47,"time":"276.50","velocity":0.4566929133858268,"duration":"0.02"},{"name":"F#5","midi":78,"time":"276.50","velocity":0.33858267716535434,"duration":"0.30"},{"name":"A#5","midi":82,"time":"276.50","velocity":0.09448818897637795,"duration":"0.03"},{"name":"F#1","midi":30,"time":"276.51","velocity":0.5354330708661418,"duration":"0.01"},{"name":"G#4","midi":68,"time":"276.51","velocity":0.3858267716535433,"duration":"0.06"},{"name":"D#6","midi":87,"time":"276.51","velocity":0.28346456692913385,"duration":"0.10"},{"name":"D#7","midi":99,"time":"276.51","velocity":0.28346456692913385,"duration":"1.17"},{"name":"A5","midi":81,"time":"276.52","velocity":0.13385826771653545,"duration":"0.05"},{"name":"C3","midi":48,"time":"276.53","velocity":0.5905511811023622,"duration":"0.02"},{"name":"F#4","midi":66,"time":"276.53","velocity":0.41732283464566927,"duration":"0.13"},{"name":"G7","midi":103,"time":"276.53","velocity":0.13385826771653545,"duration":"0.05"},{"name":"D4","midi":62,"time":"276.55","velocity":0.2755905511811024,"duration":"0.05"},{"name":"F#7","midi":102,"time":"276.55","velocity":0.1732283464566929,"duration":"0.21"},{"name":"B2","midi":47,"time":"276.56","velocity":0.5748031496062992,"duration":"0.24"},{"name":"C#5","midi":73,"time":"276.56","velocity":0.2440944881889764,"duration":"0.13"},{"name":"F#3","midi":54,"time":"276.57","velocity":0.4251968503937008,"duration":"0.07"},{"name":"D#5","midi":75,"time":"276.58","velocity":0.1889763779527559,"duration":"0.07"},{"name":"B6","midi":95,"time":"276.58","velocity":0.11023622047244094,"duration":"0.06"},{"name":"A4","midi":69,"time":"276.60","velocity":0.2992125984251969,"duration":"0.02"},{"name":"D4","midi":62,"time":"276.62","velocity":0.2440944881889764,"duration":"0.03"},{"name":"D6","midi":86,"time":"276.62","velocity":0.10236220472440945,"duration":"0.07"},{"name":"D#6","midi":87,"time":"276.63","velocity":0.28346456692913385,"duration":"0.22"},{"name":"A#1","midi":34,"time":"276.64","velocity":0.4409448818897638,"duration":"0.02"},{"name":"F#3","midi":54,"time":"276.65","velocity":0.41732283464566927,"duration":"0.03"},{"name":"G#4","midi":68,"time":"276.65","velocity":0.4566929133858268,"duration":"0.22"},{"name":"G7","midi":103,"time":"276.66","velocity":0.09448818897637795,"duration":"0.05"},{"name":"D4","midi":62,"time":"276.69","velocity":0.30708661417322836,"duration":"0.05"},{"name":"D5","midi":74,"time":"276.69","velocity":0.3464566929133858,"duration":"0.13"},{"name":"C2","midi":36,"time":"276.70","velocity":0.3228346456692913,"duration":"0.02"},{"name":"F#3","midi":54,"time":"276.70","velocity":0.3937007874015748,"duration":"0.02"},{"name":"G6","midi":91,"time":"276.70","velocity":0.07086614173228346,"duration":"0.05"},{"name":"F#4","midi":66,"time":"276.72","velocity":0.3937007874015748,"duration":"0.08"},{"name":"C#6","midi":85,"time":"276.72","velocity":0.10236220472440945,"duration":"0.14"},{"name":"E6","midi":88,"time":"276.72","velocity":0.14960629921259844,"duration":"0.08"},{"name":"F#3","midi":54,"time":"276.73","velocity":0.4094488188976378,"duration":"0.05"},{"name":"B1","midi":35,"time":"276.76","velocity":0.3779527559055118,"duration":"0.02"},{"name":"D4","midi":62,"time":"276.77","velocity":0.3543307086614173,"duration":"0.06"},{"name":"A#1","midi":34,"time":"276.78","velocity":0.33858267716535434,"duration":"0.02"},{"name":"F#7","midi":102,"time":"276.78","velocity":0.2992125984251969,"duration":"0.91"},{"name":"A1","midi":33,"time":"276.80","velocity":0.33858267716535434,"duration":"0.02"},{"name":"C3","midi":48,"time":"276.80","velocity":0.5433070866141733,"duration":"0.01"},{"name":"F7","midi":101,"time":"276.80","velocity":0.30708661417322836,"duration":"0.16"},{"name":"B2","midi":47,"time":"276.81","velocity":0.5984251968503937,"duration":"0.36"},{"name":"F#4","midi":66,"time":"276.81","velocity":0.33858267716535434,"duration":"0.02"},{"name":"D#5","midi":75,"time":"276.81","velocity":0.3543307086614173,"duration":"0.13"},{"name":"F#5","midi":78,"time":"276.81","velocity":0.3779527559055118,"duration":"0.53"},{"name":"A#5","midi":82,"time":"276.81","velocity":0.2047244094488189,"duration":"0.08"},{"name":"G7","midi":103,"time":"276.81","velocity":0.2440944881889764,"duration":"0.12"},{"name":"D#4","midi":63,"time":"276.83","velocity":0.36220472440944884,"duration":"0.02"},{"name":"G6","midi":91,"time":"276.83","velocity":0.1732283464566929,"duration":"0.12"},{"name":"A6","midi":93,"time":"276.83","velocity":0.23622047244094488,"duration":"0.10"},{"name":"F6","midi":89,"time":"276.84","velocity":0.14173228346456693,"duration":"0.05"},{"name":"D7","midi":98,"time":"276.84","velocity":0.12598425196850394,"duration":"0.05"},{"name":"D4","midi":62,"time":"276.85","velocity":0.4409448818897638,"duration":"0.35"},{"name":"D6","midi":86,"time":"276.85","velocity":0.2677165354330709,"duration":"0.07"},{"name":"C#7","midi":97,"time":"276.85","velocity":0.2047244094488189,"duration":"0.13"},{"name":"A4","midi":69,"time":"276.86","velocity":0.4566929133858268,"duration":"0.28"},{"name":"E6","midi":88,"time":"276.86","velocity":0.14173228346456693,"duration":"0.03"},{"name":"C#5","midi":73,"time":"276.87","velocity":0.25984251968503935,"duration":"0.10"},{"name":"G3","midi":55,"time":"276.88","velocity":0.3543307086614173,"duration":"0.02"},{"name":"C#6","midi":85,"time":"276.90","velocity":0.29133858267716534,"duration":"0.64"},{"name":"F#4","midi":66,"time":"276.91","velocity":0.25984251968503935,"duration":"0.02"},{"name":"E6","midi":88,"time":"276.91","velocity":0.18110236220472442,"duration":"0.15"},{"name":"F#3","midi":54,"time":"276.93","velocity":0.33858267716535434,"duration":"0.02"},{"name":"D6","midi":86,"time":"276.93","velocity":0.09448818897637795,"duration":"0.05"},{"name":"A#5","midi":82,"time":"276.97","velocity":0.10236220472440945,"duration":"0.07"},{"name":"A#6","midi":94,"time":"276.98","velocity":0.10236220472440945,"duration":"0.05"},{"name":"F#4","midi":66,"time":"277.00","velocity":0.2677165354330709,"duration":"0.07"},{"name":"G7","midi":103,"time":"277.00","velocity":0.11023622047244094,"duration":"0.05"},{"name":"F#3","midi":54,"time":"277.02","velocity":0.36220472440944884,"duration":"0.02"},{"name":"F#3","midi":54,"time":"277.07","velocity":0.3700787401574803,"duration":"0.02"},{"name":"G7","midi":103,"time":"277.08","velocity":0.09448818897637795,"duration":"0.03"},{"name":"F#3","midi":54,"time":"277.10","velocity":0.3700787401574803,"duration":"0.02"},{"name":"D#6","midi":87,"time":"277.10","velocity":0.31496062992125984,"duration":"0.10"},{"name":"A6","midi":93,"time":"277.12","velocity":0.29133858267716534,"duration":"0.34"},{"name":"A#6","midi":94,"time":"277.13","velocity":0.11811023622047244,"duration":"0.07"},{"name":"G#4","midi":68,"time":"277.14","velocity":0.44881889763779526,"duration":"0.08"},{"name":"C#5","midi":73,"time":"277.15","velocity":0.25196850393700787,"duration":"0.02"},{"name":"E6","midi":88,"time":"277.15","velocity":0.28346456692913385,"duration":"0.28"},{"name":"G3","midi":55,"time":"277.16","velocity":0.3700787401574803,"duration":"0.02"},{"name":"F#4","midi":66,"time":"277.17","velocity":0.44881889763779526,"duration":"0.03"},{"name":"G7","midi":103,"time":"277.17","velocity":0.12598425196850394,"duration":"0.03"},{"name":"F#3","midi":54,"time":"277.19","velocity":0.5275590551181102,"duration":"0.09"},{"name":"B4","midi":71,"time":"277.19","velocity":0.47244094488188976,"duration":"0.03"},{"name":"A5","midi":81,"time":"277.19","velocity":0.33858267716535434,"duration":"0.07"},{"name":"F6","midi":89,"time":"277.19","velocity":0.2125984251968504,"duration":"0.07"},{"name":"G6","midi":91,"time":"277.19","velocity":0.23622047244094488,"duration":"0.19"},{"name":"C#5","midi":73,"time":"277.20","velocity":0.44881889763779526,"duration":"0.02"},{"name":"E5","midi":76,"time":"277.20","velocity":0.4645669291338583,"duration":"0.03"},{"name":"D7","midi":98,"time":"277.20","velocity":0.28346456692913385,"duration":"0.37"},{"name":"F7","midi":101,"time":"277.20","velocity":0.25196850393700787,"duration":"0.14"},{"name":"B2","midi":47,"time":"277.21","velocity":0.5826771653543307,"duration":"0.35"},{"name":"C4","midi":60,"time":"277.21","velocity":0.5118110236220472,"duration":"0.05"},{"name":"E4","midi":64,"time":"277.21","velocity":0.49606299212598426,"duration":"0.03"},{"name":"A#5","midi":82,"time":"277.21","velocity":0.33070866141732286,"duration":"0.02"},{"name":"D6","midi":86,"time":"277.21","velocity":0.33858267716535434,"duration":"0.02"},{"name":"A#6","midi":94,"time":"277.21","velocity":0.33070866141732286,"duration":"0.41"},{"name":"A4","midi":69,"time":"277.22","velocity":0.5354330708661418,"duration":"0.06"},{"name":"D#5","midi":75,"time":"277.23","velocity":0.4251968503937008,"duration":"0.07"},{"name":"D6","midi":86,"time":"277.24","velocity":0.25984251968503935,"duration":"0.09"},{"name":"F#4","midi":66,"time":"277.26","velocity":0.5275590551181102,"duration":"0.30"},{"name":"C#5","midi":73,"time":"277.26","velocity":0.2677165354330709,"duration":"0.03"},{"name":"A#5","midi":82,"time":"277.26","velocity":0.3543307086614173,"duration":"0.27"},{"name":"G#6","midi":92,"time":"277.26","velocity":0.36220472440944884,"duration":"1.49"},{"name":"D4","midi":62,"time":"277.27","velocity":0.3543307086614173,"duration":"0.09"},{"name":"G#5","midi":80,"time":"277.27","velocity":0.4566929133858268,"duration":"0.29"},{"name":"B5","midi":83,"time":"277.27","velocity":0.2283464566929134,"duration":"0.02"},{"name":"A5","midi":81,"time":"277.28","velocity":0.2755905511811024,"duration":"0.02"},{"name":"F#3","midi":54,"time":"277.29","velocity":0.48031496062992124,"duration":"0.09"},{"name":"C6","midi":84,"time":"277.29","velocity":0.31496062992125984,"duration":"0.64"},{"name":"B1","midi":35,"time":"277.30","velocity":0.29133858267716534,"duration":"0.09"},{"name":"A#4","midi":70,"time":"277.30","velocity":0.33858267716535434,"duration":"0.03"},{"name":"D5","midi":74,"time":"277.30","velocity":0.36220472440944884,"duration":"0.10"},{"name":"A5","midi":81,"time":"277.31","velocity":0.2755905511811024,"duration":"0.03"},{"name":"D#6","midi":87,"time":"277.31","velocity":0.3700787401574803,"duration":"0.69"},{"name":"F5","midi":77,"time":"277.34","velocity":0.23622047244094488,"duration":"0.02"},{"name":"A4","midi":69,"time":"277.35","velocity":0.28346456692913385,"duration":"0.02"},{"name":"A#3","midi":58,"time":"277.36","velocity":0.4330708661417323,"duration":"0.03"},{"name":"D4","midi":62,"time":"277.37","velocity":0.3228346456692913,"duration":"0.16"},{"name":"F7","midi":101,"time":"277.37","velocity":0.11811023622047244,"duration":"0.13"},{"name":"G7","midi":103,"time":"277.37","velocity":0.13385826771653545,"duration":"0.09"},{"name":"F#3","midi":54,"time":"277.40","velocity":0.4015748031496063,"duration":"0.02"},{"name":"A4","midi":69,"time":"277.40","velocity":0.30708661417322836,"duration":"0.05"},{"name":"C#5","midi":73,"time":"277.40","velocity":0.33070866141732286,"duration":"0.07"},{"name":"F5","midi":77,"time":"277.40","velocity":0.23622047244094488,"duration":"0.02"},{"name":"A#3","midi":58,"time":"277.42","velocity":0.4330708661417323,"duration":"0.02"},{"name":"F#3","midi":54,"time":"277.43","velocity":0.3858267716535433,"duration":"0.02"},{"name":"D6","midi":86,"time":"277.43","velocity":0.1889763779527559,"duration":"0.03"},{"name":"E5","midi":76,"time":"277.44","velocity":0.15748031496062992,"duration":"0.03"},{"name":"A5","midi":81,"time":"277.44","velocity":0.2440944881889764,"duration":"0.06"},{"name":"A#3","midi":58,"time":"277.47","velocity":0.47244094488188976,"duration":"0.08"},{"name":"D5","midi":74,"time":"277.47","velocity":0.36220472440944884,"duration":"0.03"},{"name":"B6","midi":95,"time":"277.48","velocity":0.07086614173228346,"duration":"0.03"},{"name":"G7","midi":103,"time":"277.49","velocity":0.1968503937007874,"duration":"0.27"},{"name":"C#5","midi":73,"time":"277.50","velocity":0.33070866141732286,"duration":"0.15"},{"name":"E6","midi":88,"time":"277.50","velocity":0.2283464566929134,"duration":"0.31"},{"name":"A#1","midi":34,"time":"277.51","velocity":0.25984251968503935,"duration":"0.02"},{"name":"G#4","midi":68,"time":"277.51","velocity":0.4094488188976378,"duration":"0.02"},{"name":"A5","midi":81,"time":"277.51","velocity":0.33858267716535434,"duration":"0.08"},{"name":"G#4","midi":68,"time":"277.55","velocity":0.44881889763779526,"duration":"0.09"},{"name":"D#5","midi":75,"time":"277.55","velocity":0.3228346456692913,"duration":"0.10"},{"name":"C3","midi":48,"time":"277.56","velocity":0.5196850393700787,"duration":"0.02"},{"name":"F7","midi":101,"time":"277.57","velocity":0.28346456692913385,"duration":"0.15"},{"name":"C#3","midi":49,"time":"277.58","velocity":0.49606299212598426,"duration":"0.02"},{"name":"A#5","midi":82,"time":"277.58","velocity":0.25196850393700787,"duration":"0.05"},{"name":"B5","midi":83,"time":"277.58","velocity":0.13385826771653545,"duration":"0.06"},{"name":"B6","midi":95,"time":"277.59","velocity":0.14960629921259844,"duration":"0.06"},{"name":"B2","midi":47,"time":"277.60","velocity":0.5748031496062992,"duration":"0.34"},{"name":"F#3","midi":54,"time":"277.60","velocity":0.4881889763779528,"duration":"0.07"},{"name":"D4","midi":62,"time":"277.60","velocity":0.5196850393700787,"duration":"0.35"},{"name":"A6","midi":93,"time":"277.60","velocity":0.1889763779527559,"duration":"0.05"},{"name":"A4","midi":69,"time":"277.63","velocity":0.3543307086614173,"duration":"0.10"},{"name":"A#6","midi":94,"time":"277.64","velocity":0.14173228346456693,"duration":"0.06"},{"name":"A#1","midi":34,"time":"277.66","velocity":0.25196850393700787,"duration":"0.02"},{"name":"C#5","midi":73,"time":"277.66","velocity":0.16535433070866143,"duration":"0.03"},{"name":"D#5","midi":75,"time":"277.66","velocity":0.31496062992125984,"duration":"0.06"},{"name":"D6","midi":86,"time":"277.67","velocity":0.2440944881889764,"duration":"0.05"},{"name":"F#3","midi":54,"time":"277.69","velocity":0.44881889763779526,"duration":"0.08"},{"name":"A#3","midi":58,"time":"277.69","velocity":0.4015748031496063,"duration":"0.02"},{"name":"A#5","midi":82,"time":"277.69","velocity":0.30708661417322836,"duration":"0.16"},{"name":"C#5","midi":73,"time":"277.71","velocity":0.2283464566929134,"duration":"0.12"},{"name":"G#4","midi":68,"time":"277.73","velocity":0.4645669291338583,"duration":"0.13"},{"name":"D6","midi":86,"time":"277.76","velocity":0.2440944881889764,"duration":"0.08"},{"name":"A6","midi":93,"time":"277.77","velocity":0.10236220472440945,"duration":"0.07"},{"name":"F#3","midi":54,"time":"277.78","velocity":0.4409448818897638,"duration":"0.02"},{"name":"G7","midi":103,"time":"277.79","velocity":0.12598425196850394,"duration":"0.03"},{"name":"B1","midi":35,"time":"277.81","velocity":0.2440944881889764,"duration":"0.07"},{"name":"F#3","midi":54,"time":"277.81","velocity":0.44881889763779526,"duration":"0.12"},{"name":"A5","midi":81,"time":"277.84","velocity":0.3228346456692913,"duration":"0.09"},{"name":"C#6","midi":85,"time":"277.84","velocity":0.14173228346456693,"duration":"0.08"},{"name":"E6","midi":88,"time":"277.84","velocity":0.14960629921259844,"duration":"0.08"},{"name":"A4","midi":69,"time":"277.87","velocity":0.3779527559055118,"duration":"0.08"},{"name":"A#5","midi":82,"time":"277.88","velocity":0.2440944881889764,"duration":"0.09"},{"name":"F6","midi":89,"time":"277.91","velocity":0.07874015748031496,"duration":"0.03"},{"name":"D#5","midi":75,"time":"277.93","velocity":0.3228346456692913,"duration":"0.10"},{"name":"F#7","midi":102,"time":"277.93","velocity":0.25196850393700787,"duration":"0.59"},{"name":"F#4","midi":66,"time":"277.94","velocity":0.44881889763779526,"duration":"0.05"},{"name":"G6","midi":91,"time":"277.94","velocity":0.23622047244094488,"duration":"0.05"},{"name":"F7","midi":101,"time":"277.94","velocity":0.2677165354330709,"duration":"0.14"},{"name":"D2","midi":38,"time":"277.95","velocity":0.6062992125984252,"duration":"0.01"},{"name":"F3","midi":53,"time":"277.95","velocity":0.5196850393700787,"duration":"0.02"},{"name":"C#4","midi":61,"time":"277.95","velocity":0.3228346456692913,"duration":"0.02"},{"name":"G5","midi":79,"time":"277.95","velocity":0.23622047244094488,"duration":"0.03"},{"name":"F2","midi":41,"time":"277.97","velocity":0.6771653543307087,"duration":"0.01"},{"name":"C5","midi":72,"time":"277.97","velocity":0.25196850393700787,"duration":"0.02"},{"name":"A5","midi":81,"time":"277.97","velocity":0.23622047244094488,"duration":"0.08"},{"name":"C6","midi":84,"time":"277.97","velocity":0.29133858267716534,"duration":"0.41"},{"name":"F#6","midi":90,"time":"277.97","velocity":0.2440944881889764,"duration":"0.06"},{"name":"C#7","midi":97,"time":"277.97","velocity":0.2125984251968504,"duration":"0.16"},{"name":"F#2","midi":42,"time":"277.98","velocity":0.6141732283464567,"duration":"0.02"},{"name":"D#1","midi":27,"time":"277.99","velocity":0.5433070866141733,"duration":"0.01"},{"name":"G3","midi":55,"time":"277.99","velocity":0.4645669291338583,"duration":"0.02"},{"name":"D4","midi":62,"time":"277.99","velocity":0.25196850393700787,"duration":"0.03"},{"name":"F4","midi":65,"time":"277.99","velocity":0.2755905511811024,"duration":"0.02"},{"name":"A4","midi":69,"time":"277.99","velocity":0.4330708661417323,"duration":"0.30"},{"name":"F#5","midi":78,"time":"277.99","velocity":0.2283464566929134,"duration":"0.10"},{"name":"G#5","midi":80,"time":"277.99","velocity":0.4566929133858268,"duration":"0.43"},{"name":"C#6","midi":85,"time":"277.99","velocity":0.12598425196850394,"duration":"0.19"},{"name":"E6","midi":88,"time":"277.99","velocity":0.2204724409448819,"duration":"0.21"},{"name":"E1","midi":28,"time":"278.00","velocity":0.5984251968503937,"duration":"0.01"},{"name":"G#2","midi":44,"time":"278.00","velocity":0.5826771653543307,"duration":"0.01"},{"name":"A#6","midi":94,"time":"278.00","velocity":0.13385826771653545,"duration":"0.07"},{"name":"F#1","midi":30,"time":"278.01","velocity":0.5669291338582677,"duration":"0.01"},{"name":"A#2","midi":46,"time":"278.01","velocity":0.5984251968503937,"duration":"0.01"},{"name":"D#6","midi":87,"time":"278.01","velocity":0.3858267716535433,"duration":"0.30"},{"name":"G6","midi":91,"time":"278.01","velocity":0.11811023622047244,"duration":"0.05"},{"name":"B6","midi":95,"time":"278.01","velocity":0.15748031496062992,"duration":"0.05"},{"name":"B1","midi":35,"time":"278.02","velocity":0.5748031496062992,"duration":"0.02"},{"name":"B2","midi":47,"time":"278.02","velocity":0.6062992125984252,"duration":"0.02"},{"name":"D5","midi":74,"time":"278.03","velocity":0.30708661417322836,"duration":"0.07"},{"name":"A#1","midi":34,"time":"278.05","velocity":0.41732283464566927,"duration":"0.02"},{"name":"D4","midi":62,"time":"278.05","velocity":0.4409448818897638,"duration":"0.27"},{"name":"B2","midi":47,"time":"278.06","velocity":0.5196850393700787,"duration":"0.02"},{"name":"A#2","midi":46,"time":"278.08","velocity":0.5511811023622047,"duration":"0.01"},{"name":"F6","midi":89,"time":"278.08","velocity":0.12598425196850394,"duration":"0.05"},{"name":"B2","midi":47,"time":"278.09","velocity":0.5905511811023622,"duration":"0.02"},{"name":"D#5","midi":75,"time":"278.10","velocity":0.30708661417322836,"duration":"0.02"},{"name":"F#6","midi":90,"time":"278.10","velocity":0.15748031496062992,"duration":"0.12"},{"name":"G7","midi":103,"time":"278.10","velocity":0.2047244094488189,"duration":"0.05"},{"name":"A#2","midi":46,"time":"278.12","velocity":0.5118110236220472,"duration":"0.01"},{"name":"F#3","midi":54,"time":"278.12","velocity":0.4645669291338583,"duration":"0.13"},{"name":"B2","midi":47,"time":"278.13","velocity":0.5905511811023622,"duration":"0.16"},{"name":"F#5","midi":78,"time":"278.13","velocity":0.25196850393700787,"duration":"0.20"},{"name":"C#7","midi":97,"time":"278.15","velocity":0.14173228346456693,"duration":"0.07"},{"name":"A#1","midi":34,"time":"278.19","velocity":0.3858267716535433,"duration":"0.02"},{"name":"G6","midi":91,"time":"278.19","velocity":0.11811023622047244,"duration":"0.06"},{"name":"A#5","midi":82,"time":"278.21","velocity":0.13385826771653545,"duration":"0.06"},{"name":"F6","midi":89,"time":"278.24","velocity":0.12598425196850394,"duration":"0.05"},{"name":"D#5","midi":75,"time":"278.27","velocity":0.31496062992125984,"duration":"0.05"},{"name":"B1","midi":35,"time":"278.29","velocity":0.36220472440944884,"duration":"0.02"},{"name":"C3","midi":48,"time":"278.29","velocity":0.5984251968503937,"duration":"0.02"},{"name":"F#4","midi":66,"time":"278.29","velocity":0.3464566929133858,"duration":"0.02"},{"name":"A#6","midi":94,"time":"278.29","velocity":0.18110236220472442,"duration":"0.05"},{"name":"G#4","midi":68,"time":"278.30","velocity":0.3464566929133858,"duration":"0.02"},{"name":"C#5","midi":73,"time":"278.30","velocity":0.2755905511811024,"duration":"0.02"},{"name":"E6","midi":88,"time":"278.30","velocity":0.2755905511811024,"duration":"0.21"},{"name":"F7","midi":101,"time":"278.30","velocity":0.15748031496062992,"duration":"0.17"},{"name":"G7","midi":103,"time":"278.30","velocity":0.18110236220472442,"duration":"0.16"},{"name":"A1","midi":33,"time":"278.31","velocity":0.5433070866141733,"duration":"0.01"},{"name":"B2","midi":47,"time":"278.31","velocity":0.5433070866141733,"duration":"0.01"},{"name":"F4","midi":65,"time":"278.31","velocity":0.4409448818897638,"duration":"0.02"},{"name":"B5","midi":83,"time":"278.31","velocity":0.1732283464566929,"duration":"0.07"},{"name":"C#7","midi":97,"time":"278.31","velocity":0.29133858267716534,"duration":"0.17"},{"name":"E2","midi":40,"time":"278.33","velocity":0.6299212598425197,"duration":"0.02"},{"name":"A4","midi":69,"time":"278.33","velocity":0.36220472440944884,"duration":"0.02"},{"name":"C5","midi":72,"time":"278.33","velocity":0.2283464566929134,"duration":"0.02"},{"name":"D#6","midi":87,"time":"278.33","velocity":0.3858267716535433,"duration":"0.23"},{"name":"G6","midi":91,"time":"278.33","velocity":0.1889763779527559,"duration":"0.06"},{"name":"C#4","midi":61,"time":"278.34","velocity":0.3858267716535433,"duration":"0.02"},{"name":"D#5","midi":75,"time":"278.34","velocity":0.2755905511811024,"duration":"0.02"},{"name":"G#4","midi":68,"time":"278.35","velocity":0.47244094488188976,"duration":"0.13"},{"name":"B4","midi":71,"time":"278.35","velocity":0.2125984251968504,"duration":"0.03"},{"name":"D5","midi":74,"time":"278.35","velocity":0.3228346456692913,"duration":"0.13"},{"name":"A#5","midi":82,"time":"278.35","velocity":0.16535433070866143,"duration":"0.03"},{"name":"G2","midi":43,"time":"278.36","velocity":0.5196850393700787,"duration":"0.01"},{"name":"D4","midi":62,"time":"278.36","velocity":0.31496062992125984,"duration":"0.33"},{"name":"C3","midi":48,"time":"278.37","velocity":0.6299212598425197,"duration":"0.02"},{"name":"G#3","midi":56,"time":"278.37","velocity":0.47244094488188976,"duration":"0.31"},{"name":"F#6","midi":90,"time":"278.37","velocity":0.31496062992125984,"duration":"0.43"},{"name":"A5","midi":81,"time":"278.38","velocity":0.3228346456692913,"duration":"0.20"},{"name":"C6","midi":84,"time":"278.38","velocity":0.31496062992125984,"duration":"0.37"},{"name":"C#6","midi":85,"time":"278.38","velocity":0.12598425196850394,"duration":"0.05"},{"name":"D#2","midi":39,"time":"278.40","velocity":0.5196850393700787,"duration":"0.01"},{"name":"C#3","midi":49,"time":"278.40","velocity":0.5826771653543307,"duration":"0.30"},{"name":"F#5","midi":78,"time":"278.43","velocity":0.3543307086614173,"duration":"0.26"},{"name":"G6","midi":91,"time":"278.44","velocity":0.11023622047244094,"duration":"0.03"},{"name":"F#4","midi":66,"time":"278.45","velocity":0.3700787401574803,"duration":"0.06"},{"name":"F1","midi":29,"time":"278.47","velocity":0.3543307086614173,"duration":"0.03"},{"name":"C#5","midi":73,"time":"278.47","velocity":0.2283464566929134,"duration":"0.07"},{"name":"A4","midi":69,"time":"278.49","velocity":0.4566929133858268,"duration":"0.02"},{"name":"F#4","midi":66,"time":"278.52","velocity":0.3779527559055118,"duration":"0.03"},{"name":"A4","midi":69,"time":"278.52","velocity":0.44881889763779526,"duration":"0.16"},{"name":"G7","midi":103,"time":"278.52","velocity":0.12598425196850394,"duration":"0.05"},{"name":"D5","midi":74,"time":"278.53","velocity":0.33858267716535434,"duration":"0.15"},{"name":"G#5","midi":80,"time":"278.53","velocity":0.44881889763779526,"duration":"0.16"},{"name":"C#7","midi":97,"time":"278.55","velocity":0.12598425196850394,"duration":"0.05"},{"name":"C#6","midi":85,"time":"278.56","velocity":0.11023622047244094,"duration":"0.12"},{"name":"B6","midi":95,"time":"278.56","velocity":0.08661417322834646,"duration":"0.07"},{"name":"C2","midi":36,"time":"278.57","velocity":0.28346456692913385,"duration":"0.02"},{"name":"F#4","midi":66,"time":"278.57","velocity":0.3700787401574803,"duration":"0.12"},{"name":"D#6","midi":87,"time":"278.57","velocity":0.3543307086614173,"duration":"0.13"},{"name":"E6","midi":88,"time":"278.59","velocity":0.30708661417322836,"duration":"0.19"},{"name":"F7","midi":101,"time":"278.59","velocity":0.07086614173228346,"duration":"0.03"},{"name":"A#6","midi":94,"time":"278.60","velocity":0.11023622047244094,"duration":"0.05"},{"name":"B1","midi":35,"time":"278.63","velocity":0.31496062992125984,"duration":"0.02"},{"name":"G#4","midi":68,"time":"278.67","velocity":0.5748031496062992,"duration":"0.03"},{"name":"A#6","midi":94,"time":"278.67","velocity":0.2992125984251969,"duration":"0.21"},{"name":"B6","midi":95,"time":"278.67","velocity":0.25196850393700787,"duration":"0.06"},{"name":"C4","midi":60,"time":"278.69","velocity":0.4566929133858268,"duration":"0.06"},{"name":"F4","midi":65,"time":"278.69","velocity":0.5118110236220472,"duration":"0.01"},{"name":"C#5","midi":73,"time":"278.69","velocity":0.36220472440944884,"duration":"0.02"},{"name":"D#5","midi":75,"time":"278.69","velocity":0.4566929133858268,"duration":"0.02"},{"name":"A#5","midi":82,"time":"278.69","velocity":0.3543307086614173,"duration":"0.02"},{"name":"A6","midi":93,"time":"278.69","velocity":0.2992125984251969,"duration":"0.09"},{"name":"F7","midi":101,"time":"278.69","velocity":0.23622047244094488,"duration":"0.08"},{"name":"G7","midi":103,"time":"278.69","velocity":0.1889763779527559,"duration":"0.16"},{"name":"E4","midi":64,"time":"278.70","velocity":0.5039370078740157,"duration":"0.02"},{"name":"A5","midi":81,"time":"278.70","velocity":0.3937007874015748,"duration":"0.14"},{"name":"G6","midi":91,"time":"278.70","velocity":0.2204724409448819,"duration":"0.07"},{"name":"A4","midi":69,"time":"278.71","velocity":0.5433070866141733,"duration":"0.02"},{"name":"D5","midi":74,"time":"278.71","velocity":0.36220472440944884,"duration":"0.03"},{"name":"F#5","midi":78,"time":"278.71","velocity":0.2992125984251969,"duration":"0.03"},{"name":"D#6","midi":87,"time":"278.71","velocity":0.4015748031496063,"duration":"0.93"},{"name":"C#3","midi":49,"time":"278.72","velocity":0.5748031496062992,"duration":"0.34"},{"name":"F5","midi":77,"time":"278.72","velocity":0.2992125984251969,"duration":"0.07"},{"name":"C2","midi":36,"time":"278.73","velocity":0.2755905511811024,"duration":"0.05"},{"name":"F#4","midi":66,"time":"278.73","velocity":0.4566929133858268,"duration":"0.05"},{"name":"A#4","midi":70,"time":"278.73","velocity":0.3228346456692913,"duration":"0.02"},{"name":"G#5","midi":80,"time":"278.73","velocity":0.2992125984251969,"duration":"0.03"},{"name":"D7","midi":98,"time":"278.73","velocity":0.2204724409448819,"duration":"0.30"},{"name":"G#4","midi":68,"time":"278.74","velocity":0.4409448818897638,"duration":"0.03"},{"name":"D6","midi":86,"time":"278.74","velocity":0.29133858267716534,"duration":"0.06"},{"name":"D#5","midi":75,"time":"278.76","velocity":0.2755905511811024,"duration":"0.02"},{"name":"C#6","midi":85,"time":"278.76","velocity":0.30708661417322836,"duration":"0.35"},{"name":"G#6","midi":92,"time":"278.76","velocity":0.33858267716535434,"duration":"1.05"},{"name":"G#3","midi":56,"time":"278.77","velocity":0.3937007874015748,"duration":"0.02"},{"name":"C6","midi":84,"time":"278.77","velocity":0.15748031496062992,"duration":"0.05"},{"name":"C#2","midi":37,"time":"278.78","velocity":0.23622047244094488,"duration":"0.05"},{"name":"G4","midi":67,"time":"278.78","velocity":0.44881889763779526,"duration":"0.02"},{"name":"D5","midi":74,"time":"278.78","velocity":0.3543307086614173,"duration":"0.08"},{"name":"G#5","midi":80,"time":"278.78","velocity":0.4251968503937008,"duration":"0.78"},{"name":"F7","midi":101,"time":"278.78","velocity":0.2677165354330709,"duration":"0.15"},{"name":"F#4","midi":66,"time":"278.79","velocity":0.4645669291338583,"duration":"0.07"},{"name":"E6","midi":88,"time":"278.79","velocity":0.1889763779527559,"duration":"0.06"},{"name":"A4","midi":69,"time":"278.80","velocity":0.3937007874015748,"duration":"0.02"},{"name":"A#5","midi":82,"time":"278.80","velocity":0.3464566929133858,"duration":"0.16"},{"name":"B6","midi":95,"time":"278.80","velocity":0.12598425196850394,"duration":"0.07"},{"name":"F#7","midi":102,"time":"278.80","velocity":0.2440944881889764,"duration":"1.24"},{"name":"B5","midi":83,"time":"278.81","velocity":0.07086614173228346,"duration":"0.03"},{"name":"A#4","midi":70,"time":"278.83","velocity":0.3543307086614173,"duration":"0.02"},{"name":"G#4","midi":68,"time":"278.84","velocity":0.47244094488188976,"duration":"0.08"},{"name":"C#5","midi":73,"time":"278.85","velocity":0.33070866141732286,"duration":"0.05"},{"name":"C#2","midi":37,"time":"278.86","velocity":0.25196850393700787,"duration":"0.02"},{"name":"D#5","midi":75,"time":"278.86","velocity":0.30708661417322836,"duration":"0.02"},{"name":"E6","midi":88,"time":"278.86","velocity":0.2047244094488189,"duration":"0.03"},{"name":"A#3","midi":58,"time":"278.87","velocity":0.4330708661417323,"duration":"0.02"},{"name":"D5","midi":74,"time":"278.88","velocity":0.29133858267716534,"duration":"0.03"},{"name":"F#4","midi":66,"time":"278.90","velocity":0.48031496062992124,"duration":"0.15"},{"name":"C#5","midi":73,"time":"278.91","velocity":0.36220472440944884,"duration":"0.02"},{"name":"C6","midi":84,"time":"278.91","velocity":0.16535433070866143,"duration":"0.05"},{"name":"F6","midi":89,"time":"278.92","velocity":0.11023622047244094,"duration":"0.03"},{"name":"C#2","midi":37,"time":"278.93","velocity":0.2283464566929134,"duration":"0.02"},{"name":"E6","midi":88,"time":"278.93","velocity":0.15748031496062992,"duration":"0.05"},{"name":"C#5","midi":73,"time":"278.94","velocity":0.3543307086614173,"duration":"0.23"},{"name":"C2","midi":36,"time":"278.95","velocity":0.2440944881889764,"duration":"0.02"},{"name":"A5","midi":81,"time":"278.95","velocity":0.29133858267716534,"duration":"0.08"},{"name":"A4","midi":69,"time":"278.97","velocity":0.3228346456692913,"duration":"0.02"},{"name":"C#2","midi":37,"time":"278.98","velocity":0.25196850393700787,"duration":"0.07"},{"name":"A#3","midi":58,"time":"278.98","velocity":0.41732283464566927,"duration":"0.06"},{"name":"D#5","midi":75,"time":"278.98","velocity":0.31496062992125984,"duration":"0.19"},{"name":"D4","midi":62,"time":"279.01","velocity":0.31496062992125984,"duration":"0.07"},{"name":"G#4","midi":68,"time":"279.03","velocity":0.5118110236220472,"duration":"0.14"},{"name":"A#3","midi":58,"time":"279.05","velocity":0.4251968503937008,"duration":"0.03"},{"name":"A#5","midi":82,"time":"279.05","velocity":0.23622047244094488,"duration":"0.07"},{"name":"D3","midi":50,"time":"279.06","velocity":0.49606299212598426,"duration":"0.02"},{"name":"E6","midi":88,"time":"279.06","velocity":0.2204724409448819,"duration":"0.03"},{"name":"F#3","midi":54,"time":"279.07","velocity":0.4330708661417323,"duration":"0.02"},{"name":"G7","midi":103,"time":"279.07","velocity":0.2677165354330709,"duration":"0.10"},{"name":"E2","midi":40,"time":"279.08","velocity":0.47244094488188976,"duration":"0.02"},{"name":"B5","midi":83,"time":"279.08","velocity":0.1732283464566929,"duration":"0.10"},{"name":"D6","midi":86,"time":"279.08","velocity":0.2440944881889764,"duration":"0.07"},{"name":"A3","midi":57,"time":"279.09","velocity":0.4645669291338583,"duration":"0.02"},{"name":"G6","midi":91,"time":"279.09","velocity":0.23622047244094488,"duration":"0.06"},{"name":"F7","midi":101,"time":"279.09","velocity":0.14960629921259844,"duration":"0.05"},{"name":"C3","midi":48,"time":"279.10","velocity":0.5511811023622047,"duration":"0.01"},{"name":"A5","midi":81,"time":"279.10","velocity":0.18110236220472442,"duration":"0.09"},{"name":"C#3","midi":49,"time":"279.12","velocity":0.5748031496062992,"duration":"0.34"},{"name":"D#4","midi":63,"time":"279.12","velocity":0.30708661417322836,"duration":"0.02"},{"name":"E6","midi":88,"time":"279.13","velocity":0.12598425196850394,"duration":"0.10"},{"name":"D4","midi":62,"time":"279.14","velocity":0.3543307086614173,"duration":"0.02"},{"name":"C6","midi":84,"time":"279.14","velocity":0.1732283464566929,"duration":"0.07"},{"name":"F6","midi":89,"time":"279.14","velocity":0.11023622047244094,"duration":"0.08"},{"name":"G#3","midi":56,"time":"279.15","velocity":0.44881889763779526,"duration":"0.07"},{"name":"D7","midi":98,"time":"279.15","velocity":0.1732283464566929,"duration":"0.06"},{"name":"D#4","midi":63,"time":"279.16","velocity":0.41732283464566927,"duration":"0.07"},{"name":"A4","midi":69,"time":"279.16","velocity":0.2440944881889764,"duration":"0.02"},{"name":"F#5","midi":78,"time":"279.17","velocity":0.14960629921259844,"duration":"0.03"},{"name":"A6","midi":93,"time":"279.17","velocity":0.18110236220472442,"duration":"0.03"},{"name":"C7","midi":96,"time":"279.17","velocity":0.2047244094488189,"duration":"0.30"},{"name":"E7","midi":100,"time":"279.17","velocity":0.14173228346456693,"duration":"0.08"},{"name":"F7","midi":101,"time":"279.17","velocity":0.2755905511811024,"duration":"0.20"},{"name":"C2","midi":36,"time":"279.19","velocity":0.25196850393700787,"duration":"0.02"},{"name":"C#6","midi":85,"time":"279.19","velocity":0.14960629921259844,"duration":"0.05"},{"name":"C#5","midi":73,"time":"279.20","velocity":0.2047244094488189,"duration":"0.09"},{"name":"C#2","midi":37,"time":"279.21","velocity":0.33070866141732286,"duration":"0.16"},{"name":"F#6","midi":90,"time":"279.21","velocity":0.12598425196850394,"duration":"0.24"},{"name":"F4","midi":65,"time":"279.22","velocity":0.2677165354330709,"duration":"0.03"},{"name":"C#7","midi":97,"time":"279.22","velocity":0.2755905511811024,"duration":"0.88"},{"name":"G#3","midi":56,"time":"279.23","velocity":0.5118110236220472,"duration":"0.14"},{"name":"G7","midi":103,"time":"279.23","velocity":0.07874015748031496,"duration":"0.03"},{"name":"G5","midi":79,"time":"279.24","velocity":0.29133858267716534,"duration":"0.07"},{"name":"D7","midi":98,"time":"279.24","velocity":0.10236220472440945,"duration":"0.03"},{"name":"B4","midi":71,"time":"279.26","velocity":0.2125984251968504,"duration":"0.03"},{"name":"C6","midi":84,"time":"279.27","velocity":0.2125984251968504,"duration":"0.06"},{"name":"C#6","midi":85,"time":"279.27","velocity":0.44881889763779526,"duration":"1.34"},{"name":"D6","midi":86,"time":"279.27","velocity":0.07086614173228346,"duration":"0.03"},{"name":"A6","midi":93,"time":"279.27","velocity":0.14173228346456693,"duration":"0.07"},{"name":"E6","midi":88,"time":"279.28","velocity":0.10236220472440945,"duration":"0.12"},{"name":"A#6","midi":94,"time":"279.28","velocity":0.14173228346456693,"duration":"0.06"},{"name":"G7","midi":103,"time":"279.28","velocity":0.2204724409448819,"duration":"0.07"},{"name":"C5","midi":72,"time":"279.29","velocity":0.2283464566929134,"duration":"0.03"},{"name":"E7","midi":100,"time":"279.29","velocity":0.11023622047244094,"duration":"0.03"},{"name":"F6","midi":89,"time":"279.30","velocity":0.1889763779527559,"duration":"0.07"},{"name":"E5","midi":76,"time":"279.31","velocity":0.25984251968503935,"duration":"0.06"},{"name":"A4","midi":69,"time":"279.33","velocity":0.4330708661417323,"duration":"0.05"},{"name":"F#5","midi":78,"time":"279.34","velocity":0.10236220472440945,"duration":"0.03"},{"name":"D#5","midi":75,"time":"279.36","velocity":0.28346456692913385,"duration":"0.09"},{"name":"C2","midi":36,"time":"279.37","velocity":0.33070866141732286,"duration":"0.02"},{"name":"G7","midi":103,"time":"279.37","velocity":0.1968503937007874,"duration":"0.08"},{"name":"G#3","midi":56,"time":"279.38","velocity":0.5354330708661418,"duration":"0.03"},{"name":"C#2","midi":37,"time":"279.40","velocity":0.3228346456692913,"duration":"0.02"},{"name":"A#6","midi":94,"time":"279.40","velocity":0.14173228346456693,"duration":"0.09"},{"name":"A3","midi":57,"time":"279.42","velocity":0.5039370078740157,"duration":"0.35"},{"name":"F#5","midi":78,"time":"279.42","velocity":0.28346456692913385,"duration":"0.06"},{"name":"F6","midi":89,"time":"279.42","velocity":0.2047244094488189,"duration":"0.06"},{"name":"A6","midi":93,"time":"279.43","velocity":0.1732283464566929,"duration":"0.08"},{"name":"C#2","midi":37,"time":"279.44","velocity":0.6377952755905512,"duration":"0.02"},{"name":"D4","midi":62,"time":"279.44","velocity":0.3700787401574803,"duration":"0.03"},{"name":"B6","midi":95,"time":"279.44","velocity":0.16535433070866143,"duration":"0.08"},{"name":"D7","midi":98,"time":"279.44","velocity":0.10236220472440945,"duration":"0.03"},{"name":"E7","midi":100,"time":"279.44","velocity":0.15748031496062992,"duration":"0.06"},{"name":"C3","midi":48,"time":"279.45","velocity":0.6456692913385826,"duration":"0.02"},{"name":"F#4","midi":66,"time":"279.45","velocity":0.4015748031496063,"duration":"0.03"},{"name":"E2","midi":40,"time":"279.47","velocity":0.6771653543307087,"duration":"0.01"},{"name":"E5","midi":76,"time":"279.47","velocity":0.33858267716535434,"duration":"0.73"},{"name":"G7","midi":103,"time":"279.47","velocity":0.14960629921259844,"duration":"0.05"},{"name":"D#1","midi":27,"time":"279.48","velocity":0.5433070866141733,"duration":"0.03"},{"name":"F2","midi":41,"time":"279.48","velocity":0.5984251968503937,"duration":"0.02"},{"name":"C#3","midi":49,"time":"279.48","velocity":0.6062992125984252,"duration":"0.01"},{"name":"F#6","midi":90,"time":"279.48","velocity":0.11811023622047244,"duration":"0.14"},{"name":"D3","midi":50,"time":"279.49","velocity":0.5984251968503937,"duration":"0.01"},{"name":"C#4","midi":61,"time":"279.49","velocity":0.48031496062992124,"duration":"0.34"},{"name":"B4","midi":71,"time":"279.49","velocity":0.23622047244094488,"duration":"0.03"},{"name":"F6","midi":89,"time":"279.49","velocity":0.1732283464566929,"duration":"0.09"},{"name":"C#3","midi":49,"time":"279.50","velocity":0.5433070866141733,"duration":"0.01"},{"name":"A#1","midi":34,"time":"279.51","velocity":0.5511811023622047,"duration":"0.01"},{"name":"D3","midi":50,"time":"279.51","velocity":0.5826771653543307,"duration":"0.31"},{"name":"G4","midi":67,"time":"279.51","velocity":0.2047244094488189,"duration":"0.03"},{"name":"G5","midi":79,"time":"279.51","velocity":0.2204724409448819,"duration":"0.05"},{"name":"C2","midi":36,"time":"279.52","velocity":0.5354330708661418,"duration":"0.01"},{"name":"A#5","midi":82,"time":"279.52","velocity":0.10236220472440945,"duration":"0.03"},{"name":"A1","midi":33,"time":"279.53","velocity":0.4409448818897638,"duration":"0.02"},{"name":"F#4","midi":66,"time":"279.55","velocity":0.3700787401574803,"duration":"0.41"},{"name":"F1","midi":29,"time":"279.57","velocity":0.3464566929133858,"duration":"0.02"},{"name":"B5","midi":83,"time":"279.59","velocity":0.11023622047244094,"duration":"0.03"},{"name":"B4","midi":71,"time":"279.62","velocity":0.1889763779527559,"duration":"0.16"},{"name":"G#5","midi":80,"time":"279.62","velocity":0.2283464566929134,"duration":"0.03"},{"name":"A#5","midi":82,"time":"279.63","velocity":0.1732283464566929,"duration":"0.08"},{"name":"G7","midi":103,"time":"279.63","velocity":0.16535433070866143,"duration":"0.12"},{"name":"G5","midi":79,"time":"279.65","velocity":0.2047244094488189,"duration":"0.07"},{"name":"G#5","midi":80,"time":"279.67","velocity":0.23622047244094488,"duration":"0.03"},{"name":"F#6","midi":90,"time":"279.69","velocity":0.2283464566929134,"duration":"0.10"},{"name":"C2","midi":36,"time":"279.70","velocity":0.3228346456692913,"duration":"0.02"},{"name":"D#6","midi":87,"time":"279.71","velocity":0.1732283464566929,"duration":"0.06"},{"name":"G#5","midi":80,"time":"279.74","velocity":0.2204724409448819,"duration":"0.03"},{"name":"A3","midi":57,"time":"279.79","velocity":0.33070866141732286,"duration":"0.02"},{"name":"A4","midi":69,"time":"279.79","velocity":0.5748031496062992,"duration":"0.47"},{"name":"G#5","midi":80,"time":"279.79","velocity":0.12598425196850394,"duration":"0.03"},{"name":"D#2","midi":39,"time":"279.81","velocity":0.41732283464566927,"duration":"0.02"},{"name":"F#5","midi":78,"time":"279.81","velocity":0.3779527559055118,"duration":"0.20"},{"name":"G#6","midi":92,"time":"279.81","velocity":0.28346456692913385,"duration":"0.14"},{"name":"G7","midi":103,"time":"279.81","velocity":0.2440944881889764,"duration":"0.15"},{"name":"C4","midi":60,"time":"279.83","velocity":0.4094488188976378,"duration":"0.02"},{"name":"A#6","midi":94,"time":"279.83","velocity":0.07874015748031496,"duration":"0.03"},{"name":"D#3","midi":51,"time":"279.84","velocity":0.5669291338582677,"duration":"0.01"},{"name":"A#5","midi":82,"time":"279.84","velocity":0.14960629921259844,"duration":"0.03"},{"name":"D6","midi":86,"time":"279.84","velocity":0.2440944881889764,"duration":"0.05"},{"name":"B6","midi":95,"time":"279.84","velocity":0.07874015748031496,"duration":"0.03"},{"name":"C7","midi":96,"time":"279.84","velocity":0.14960629921259844,"duration":"0.06"},{"name":"F7","midi":101,"time":"279.84","velocity":0.25984251968503935,"duration":"0.26"},{"name":"D3","midi":50,"time":"279.85","velocity":0.6062992125984252,"duration":"0.34"},{"name":"A3","midi":57,"time":"279.85","velocity":0.4881889763779528,"duration":"0.20"},{"name":"C#4","midi":61,"time":"279.85","velocity":0.36220472440944884,"duration":"0.03"},{"name":"D#7","midi":99,"time":"279.85","velocity":0.13385826771653545,"duration":"0.07"},{"name":"G6","midi":91,"time":"279.86","velocity":0.1889763779527559,"duration":"0.06"},{"name":"F6","midi":89,"time":"279.87","velocity":0.1732283464566929,"duration":"0.03"},{"name":"C#2","midi":37,"time":"279.88","velocity":0.2755905511811024,"duration":"0.03"},{"name":"A#6","midi":94,"time":"279.88","velocity":0.2047244094488189,"duration":"0.06"},{"name":"D#6","midi":87,"time":"279.90","velocity":0.09448818897637795,"duration":"0.05"},{"name":"C#4","midi":61,"time":"279.91","velocity":0.18110236220472442,"duration":"0.06"},{"name":"D2","midi":38,"time":"279.92","velocity":0.31496062992125984,"duration":"0.06"},{"name":"G#5","midi":80,"time":"279.92","velocity":0.25196850393700787,"duration":"0.07"},{"name":"F6","midi":89,"time":"279.92","velocity":0.10236220472440945,"duration":"0.03"},{"name":"G6","midi":91,"time":"279.93","velocity":0.12598425196850394,"duration":"0.08"},{"name":"C7","midi":96,"time":"279.94","velocity":0.07086614173228346,"duration":"0.03"},{"name":"A#5","midi":82,"time":"279.95","velocity":0.13385826771653545,"duration":"0.05"},{"name":"D#7","midi":99,"time":"279.95","velocity":0.11811023622047244,"duration":"0.05"},{"name":"F#4","midi":66,"time":"279.97","velocity":0.25984251968503935,"duration":"0.02"},{"name":"C#2","midi":37,"time":"279.98","velocity":0.3543307086614173,"duration":"0.03"},{"name":"A#6","midi":94,"time":"279.98","velocity":0.14173228346456693,"duration":"0.08"},{"name":"F#4","midi":66,"time":"280.00","velocity":0.33070866141732286,"duration":"0.10"},{"name":"G#5","midi":80,"time":"280.00","velocity":0.25196850393700787,"duration":"0.03"},{"name":"D2","midi":38,"time":"280.01","velocity":0.30708661417322836,"duration":"0.05"},{"name":"A#5","midi":82,"time":"280.01","velocity":0.14173228346456693,"duration":"0.09"},{"name":"F#6","midi":90,"time":"280.01","velocity":0.3228346456692913,"duration":"1.24"},{"name":"C#4","midi":61,"time":"280.03","velocity":0.25984251968503935,"duration":"0.08"},{"name":"G7","midi":103,"time":"280.03","velocity":0.15748031496062992,"duration":"0.10"},{"name":"G#5","midi":80,"time":"280.05","velocity":0.2204724409448819,"duration":"0.03"},{"name":"F#5","midi":78,"time":"280.06","velocity":0.4094488188976378,"duration":"0.19"},{"name":"C7","midi":96,"time":"280.06","velocity":0.1889763779527559,"duration":"0.28"},{"name":"F#7","midi":102,"time":"280.06","velocity":0.33070866141732286,"duration":"1.23"},{"name":"A3","midi":57,"time":"280.08","velocity":0.5354330708661418,"duration":"0.12"},{"name":"A#6","midi":94,"time":"280.09","velocity":0.2047244094488189,"duration":"0.22"},{"name":"C#2","midi":37,"time":"280.10","velocity":0.31496062992125984,"duration":"0.02"},{"name":"F#4","midi":66,"time":"280.12","velocity":0.29133858267716534,"duration":"0.08"},{"name":"D2","midi":38,"time":"280.13","velocity":0.30708661417322836,"duration":"0.03"},{"name":"C#4","midi":61,"time":"280.13","velocity":0.25984251968503935,"duration":"0.05"},{"name":"A#5","midi":82,"time":"280.15","velocity":0.13385826771653545,"duration":"0.03"},{"name":"C#2","midi":37,"time":"280.16","velocity":0.3464566929133858,"duration":"0.02"},{"name":"G#5","midi":80,"time":"280.16","velocity":0.11811023622047244,"duration":"0.03"},{"name":"G7","midi":103,"time":"280.17","velocity":0.2204724409448819,"duration":"0.23"},{"name":"A#2","midi":46,"time":"280.19","velocity":0.4251968503937008,"duration":"0.02"},{"name":"D#3","midi":51,"time":"280.19","velocity":0.48031496062992124,"duration":"0.02"},{"name":"D#4","midi":63,"time":"280.19","velocity":0.5275590551181102,"duration":"0.03"},{"name":"C#5","midi":73,"time":"280.20","velocity":0.4566929133858268,"duration":"0.05"},{"name":"F6","midi":89,"time":"280.20","velocity":0.25196850393700787,"duration":"0.21"},{"name":"G#6","midi":92,"time":"280.20","velocity":0.33070866141732286,"duration":"0.21"},{"name":"A6","midi":93,"time":"280.20","velocity":0.3700787401574803,"duration":"0.13"},{"name":"B6","midi":95,"time":"280.20","velocity":0.2047244094488189,"duration":"0.22"},{"name":"D7","midi":98,"time":"280.20","velocity":0.18110236220472442,"duration":"0.05"},{"name":"D#7","midi":99,"time":"280.20","velocity":0.2125984251968504,"duration":"0.10"},{"name":"F5","midi":77,"time":"280.21","velocity":0.4409448818897638,"duration":"0.07"},{"name":"A#5","midi":82,"time":"280.21","velocity":0.29133858267716534,"duration":"0.02"},{"name":"E7","midi":100,"time":"280.21","velocity":0.30708661417322836,"duration":"0.13"},{"name":"E2","midi":40,"time":"280.22","velocity":0.4094488188976378,"duration":"0.02"},{"name":"D#3","midi":51,"time":"280.22","velocity":0.5669291338582677,"duration":"0.01"},{"name":"C4","midi":60,"time":"280.22","velocity":0.48031496062992124,"duration":"0.03"},{"name":"F#4","midi":66,"time":"280.22","velocity":0.49606299212598426,"duration":"0.20"},{"name":"G#5","midi":80,"time":"280.22","velocity":0.3464566929133858,"duration":"0.03"},{"name":"D6","midi":86,"time":"280.22","velocity":0.2283464566929134,"duration":"0.07"},{"name":"D3","midi":50,"time":"280.23","velocity":0.5826771653543307,"duration":"0.34"},{"name":"B5","midi":83,"time":"280.23","velocity":0.2440944881889764,"duration":"0.03"},{"name":"C6","midi":84,"time":"280.23","velocity":0.2992125984251969,"duration":"0.02"},{"name":"E6","midi":88,"time":"280.23","velocity":0.2125984251968504,"duration":"0.06"},{"name":"A#4","midi":70,"time":"280.24","velocity":0.3779527559055118,"duration":"0.02"},{"name":"A3","midi":57,"time":"280.26","velocity":0.3464566929133858,"duration":"0.02"},{"name":"C#5","midi":73,"time":"280.26","velocity":0.30708661417322836,"duration":"0.08"},{"name":"D#6","midi":87,"time":"280.26","velocity":0.2047244094488189,"duration":"0.09"},{"name":"G6","midi":91,"time":"280.26","velocity":0.11811023622047244,"duration":"0.05"},{"name":"E5","midi":76,"time":"280.27","velocity":0.25984251968503935,"duration":"0.03"},{"name":"G#5","midi":80,"time":"280.27","velocity":0.47244094488188976,"duration":"0.37"},{"name":"C6","midi":84,"time":"280.27","velocity":0.2047244094488189,"duration":"0.03"},{"name":"B5","midi":83,"time":"280.28","velocity":0.18110236220472442,"duration":"0.05"},{"name":"A#4","midi":70,"time":"280.29","velocity":0.33070866141732286,"duration":"0.05"},{"name":"F5","midi":77,"time":"280.29","velocity":0.2440944881889764,"duration":"0.02"},{"name":"E6","midi":88,"time":"280.30","velocity":0.12598425196850394,"duration":"0.03"},{"name":"A#3","midi":58,"time":"280.31","velocity":0.30708661417322836,"duration":"0.03"},{"name":"E5","midi":76,"time":"280.31","velocity":0.30708661417322836,"duration":"0.08"},{"name":"B4","midi":71,"time":"280.33","velocity":0.25196850393700787,"duration":"0.03"},{"name":"C#2","midi":37,"time":"280.34","velocity":0.12598425196850394,"duration":"0.03"},{"name":"A3","midi":57,"time":"280.37","velocity":0.4881889763779528,"duration":"0.20"},{"name":"C#4","midi":61,"time":"280.37","velocity":0.2047244094488189,"duration":"0.06"},{"name":"C#5","midi":73,"time":"280.37","velocity":0.3543307086614173,"duration":"0.40"},{"name":"C#2","midi":37,"time":"280.38","velocity":0.15748031496062992,"duration":"0.03"},{"name":"D#5","midi":75,"time":"280.38","velocity":0.25196850393700787,"duration":"0.05"},{"name":"A#5","midi":82,"time":"280.38","velocity":0.2047244094488189,"duration":"0.07"},{"name":"E7","midi":100,"time":"280.38","velocity":0.09448818897637795,"duration":"0.07"},{"name":"G6","midi":91,"time":"280.40","velocity":0.09448818897637795,"duration":"0.08"},{"name":"D2","midi":38,"time":"280.42","velocity":0.15748031496062992,"duration":"0.05"},{"name":"E6","midi":88,"time":"280.42","velocity":0.2992125984251969,"duration":"0.69"},{"name":"E4","midi":64,"time":"280.43","velocity":0.2283464566929134,"duration":"0.02"},{"name":"F6","midi":89,"time":"280.43","velocity":0.13385826771653545,"duration":"0.07"},{"name":"C#4","midi":61,"time":"280.44","velocity":0.31496062992125984,"duration":"0.06"},{"name":"D#5","midi":75,"time":"280.45","velocity":0.18110236220472442,"duration":"0.03"},{"name":"B5","midi":83,"time":"280.45","velocity":0.08661417322834646,"duration":"0.06"},{"name":"A#5","midi":82,"time":"280.48","velocity":0.14960629921259844,"duration":"0.05"},{"name":"E5","midi":76,"time":"280.49","velocity":0.2283464566929134,"duration":"0.13"},{"name":"F4","midi":65,"time":"280.50","velocity":0.23622047244094488,"duration":"0.02"},{"name":"C#4","midi":61,"time":"280.51","velocity":0.3228346456692913,"duration":"0.06"},{"name":"F#4","midi":66,"time":"280.52","velocity":0.4881889763779528,"duration":"0.73"},{"name":"F6","midi":89,"time":"280.52","velocity":0.13385826771653545,"duration":"0.07"},{"name":"A#6","midi":94,"time":"280.56","velocity":0.1968503937007874,"duration":"0.37"},{"name":"D#3","midi":51,"time":"280.57","velocity":0.5669291338582677,"duration":"0.03"},{"name":"A#3","midi":58,"time":"280.57","velocity":0.3858267716535433,"duration":"0.03"},{"name":"G6","midi":91,"time":"280.57","velocity":0.13385826771653545,"duration":"0.08"},{"name":"G7","midi":103,"time":"280.57","velocity":0.1889763779527559,"duration":"0.16"},{"name":"F2","midi":41,"time":"280.58","velocity":0.5196850393700787,"duration":"0.01"},{"name":"A6","midi":93,"time":"280.59","velocity":0.13385826771653545,"duration":"0.12"},{"name":"D3","midi":50,"time":"280.60","velocity":0.6141732283464567,"duration":"0.34"},{"name":"A3","midi":57,"time":"280.60","velocity":0.4566929133858268,"duration":"0.19"},{"name":"D7","midi":98,"time":"280.60","velocity":0.11811023622047244,"duration":"0.03"},{"name":"F7","midi":101,"time":"280.60","velocity":0.2677165354330709,"duration":"0.23"},{"name":"C#6","midi":85,"time":"280.62","velocity":0.3779527559055118,"duration":"0.36"},{"name":"C7","midi":96,"time":"280.62","velocity":0.09448818897637795,"duration":"0.03"},{"name":"A#5","midi":82,"time":"280.63","velocity":0.1968503937007874,"duration":"0.09"},{"name":"B6","midi":95,"time":"280.63","velocity":0.09448818897637795,"duration":"0.03"},{"name":"D#7","midi":99,"time":"280.63","velocity":0.11023622047244094,"duration":"0.19"},{"name":"E5","midi":76,"time":"280.64","velocity":0.2440944881889764,"duration":"0.30"},{"name":"C#4","midi":61,"time":"280.65","velocity":0.3937007874015748,"duration":"0.30"},{"name":"G#5","midi":80,"time":"280.65","velocity":0.13385826771653545,"duration":"0.06"},{"name":"D#6","midi":87,"time":"280.66","velocity":0.07874015748031496,"duration":"0.06"},{"name":"B6","midi":95,"time":"280.67","velocity":0.18110236220472442,"duration":"0.09"},{"name":"C#2","midi":37,"time":"280.73","velocity":0.1889763779527559,"duration":"0.05"},{"name":"G7","midi":103,"time":"280.76","velocity":0.07874015748031496,"duration":"0.05"},{"name":"A#5","midi":82,"time":"280.77","velocity":0.18110236220472442,"duration":"0.09"},{"name":"G6","midi":91,"time":"280.77","velocity":0.11811023622047244,"duration":"0.03"},{"name":"C7","midi":96,"time":"280.79","velocity":0.07874015748031496,"duration":"0.03"},{"name":"C#2","midi":37,"time":"280.81","velocity":0.2125984251968504,"duration":"0.03"},{"name":"G7","midi":103,"time":"280.84","velocity":0.08661417322834646,"duration":"0.03"},{"name":"G#6","midi":92,"time":"280.86","velocity":0.07874015748031496,"duration":"0.03"},{"name":"G#5","midi":80,"time":"280.88","velocity":0.13385826771653545,"duration":"0.05"},{"name":"A3","midi":57,"time":"280.90","velocity":0.36220472440944884,"duration":"0.02"},{"name":"A3","midi":57,"time":"280.93","velocity":0.31496062992125984,"duration":"0.02"},{"name":"G7","midi":103,"time":"280.93","velocity":0.2125984251968504,"duration":"0.09"},{"name":"G#6","midi":92,"time":"280.94","velocity":0.2204724409448819,"duration":"0.22"},{"name":"C#2","midi":37,"time":"280.95","velocity":0.5118110236220472,"duration":"0.01"},{"name":"A#3","midi":58,"time":"280.95","velocity":0.3700787401574803,"duration":"0.02"},{"name":"E5","midi":76,"time":"280.95","velocity":0.4251968503937008,"duration":"0.78"},{"name":"A#5","midi":82,"time":"280.95","velocity":0.23622047244094488,"duration":"0.23"},{"name":"D6","midi":86,"time":"280.95","velocity":0.1732283464566929,"duration":"0.05"},{"name":"G6","midi":91,"time":"280.95","velocity":0.2125984251968504,"duration":"0.05"},{"name":"B6","midi":95,"time":"280.95","velocity":0.1732283464566929,"duration":"0.13"},{"name":"D7","midi":98,"time":"280.95","velocity":0.1732283464566929,"duration":"0.06"},{"name":"F7","midi":101,"time":"280.95","velocity":0.25196850393700787,"duration":"0.19"},{"name":"B1","midi":35,"time":"280.97","velocity":0.5511811023622047,"duration":"0.01"},{"name":"A2","midi":45,"time":"280.97","velocity":0.5669291338582677,"duration":"0.01"},{"name":"D3","midi":50,"time":"280.97","velocity":0.5826771653543307,"duration":"0.01"},{"name":"D#6","midi":87,"time":"280.97","velocity":0.1968503937007874,"duration":"0.03"},{"name":"D#7","midi":99,"time":"280.97","velocity":0.2283464566929134,"duration":"0.16"},{"name":"F2","midi":41,"time":"280.98","velocity":0.6220472440944882,"duration":"0.03"},{"name":"D#3","midi":51,"time":"280.98","velocity":0.5826771653543307,"duration":"0.01"},{"name":"D5","midi":74,"time":"280.98","velocity":0.18110236220472442,"duration":"0.03"},{"name":"C7","midi":96,"time":"280.98","velocity":0.11811023622047244,"duration":"0.03"},{"name":"D3","midi":50,"time":"280.99","velocity":0.5275590551181102,"duration":"0.01"},{"name":"C#3","midi":49,"time":"281.00","velocity":0.5590551181102362,"duration":"0.01"},{"name":"A5","midi":81,"time":"281.00","velocity":0.2677165354330709,"duration":"0.23"},{"name":"C#6","midi":85,"time":"281.00","velocity":0.4094488188976378,"duration":"0.73"},{"name":"F6","midi":89,"time":"281.00","velocity":0.16535433070866143,"duration":"0.06"},{"name":"D3","midi":50,"time":"281.01","velocity":0.5826771653543307,"duration":"0.02"},{"name":"C#4","midi":61,"time":"281.01","velocity":0.3779527559055118,"duration":"0.29"},{"name":"B4","midi":71,"time":"281.01","velocity":0.2755905511811024,"duration":"0.02"},{"name":"G6","midi":91,"time":"281.01","velocity":0.1732283464566929,"duration":"0.03"},{"name":"A3","midi":57,"time":"281.02","velocity":0.3858267716535433,"duration":"0.07"},{"name":"C#3","midi":49,"time":"281.03","velocity":0.6062992125984252,"duration":"0.01"},{"name":"C5","midi":72,"time":"281.03","velocity":0.2283464566929134,"duration":"0.02"},{"name":"D5","midi":74,"time":"281.03","velocity":0.2047244094488189,"duration":"0.03"},{"name":"G#5","midi":80,"time":"281.03","velocity":0.23622047244094488,"duration":"0.09"},{"name":"D3","midi":50,"time":"281.05","velocity":0.5984251968503937,"duration":"0.28"},{"name":"G7","midi":103,"time":"281.05","velocity":0.1968503937007874,"duration":"0.33"},{"name":"G6","midi":91,"time":"281.06","velocity":0.16535433070866143,"duration":"0.03"},{"name":"C7","midi":96,"time":"281.06","velocity":0.11023622047244094,"duration":"0.12"},{"name":"C#2","midi":37,"time":"281.07","velocity":0.44881889763779526,"duration":"0.03"},{"name":"D2","midi":38,"time":"281.10","velocity":0.3543307086614173,"duration":"0.02"},{"name":"B1","midi":35,"time":"281.14","velocity":0.44881889763779526,"duration":"0.02"},{"name":"G#5","midi":80,"time":"281.14","velocity":0.2204724409448819,"duration":"0.19"},{"name":"D2","midi":38,"time":"281.16","velocity":0.4015748031496063,"duration":"0.02"},{"name":"A3","midi":57,"time":"281.16","velocity":0.4645669291338583,"duration":"0.21"},{"name":"F6","midi":89,"time":"281.16","velocity":0.1968503937007874,"duration":"0.20"},{"name":"G6","midi":91,"time":"281.16","velocity":0.1732283464566929,"duration":"0.14"},{"name":"D#6","midi":87,"time":"281.17","velocity":0.08661417322834646,"duration":"0.05"},{"name":"B6","midi":95,"time":"281.17","velocity":0.11811023622047244,"duration":"0.14"},{"name":"A#5","midi":82,"time":"281.20","velocity":0.18110236220472442,"duration":"0.06"},{"name":"A#6","midi":94,"time":"281.21","velocity":0.23622047244094488,"duration":"0.19"},{"name":"C7","midi":96,"time":"281.21","velocity":0.13385826771653545,"duration":"0.08"},{"name":"D#7","midi":99,"time":"281.22","velocity":0.2204724409448819,"duration":"0.07"},{"name":"C#2","midi":37,"time":"281.23","velocity":0.4094488188976378,"duration":"0.02"},{"name":"D2","midi":38,"time":"281.26","velocity":0.4015748031496063,"duration":"0.02"},{"name":"A5","midi":81,"time":"281.26","velocity":0.33858267716535434,"duration":"0.45"},{"name":"B4","midi":71,"time":"281.27","velocity":0.14960629921259844,"duration":"0.03"},{"name":"C#2","midi":37,"time":"281.28","velocity":0.44881889763779526,"duration":"0.02"},{"name":"F#4","midi":66,"time":"281.29","velocity":0.36220472440944884,"duration":"0.03"},{"name":"G#6","midi":92,"time":"281.29","velocity":0.2755905511811024,"duration":"0.21"},{"name":"D2","midi":38,"time":"281.30","velocity":0.49606299212598426,"duration":"0.02"},{"name":"F#7","midi":102,"time":"281.30","velocity":0.30708661417322836,"duration":"0.50"},{"name":"F7","midi":101,"time":"281.31","velocity":0.3464566929133858,"duration":"0.24"},{"name":"C2","midi":36,"time":"281.33","velocity":0.5748031496062992,"duration":"0.01"},{"name":"D4","midi":62,"time":"281.33","velocity":0.3464566929133858,"duration":"0.02"},{"name":"G6","midi":91,"time":"281.33","velocity":0.1732283464566929,"duration":"0.03"},{"name":"C7","midi":96,"time":"281.33","velocity":0.2125984251968504,"duration":"0.15"},{"name":"D7","midi":98,"time":"281.33","velocity":0.1889763779527559,"duration":"0.05"},{"name":"C#2","midi":37,"time":"281.34","velocity":0.6062992125984252,"duration":"0.01"},{"name":"G4","midi":67,"time":"281.34","velocity":0.3543307086614173,"duration":"0.03"},{"name":"D#5","midi":75,"time":"281.34","velocity":0.2125984251968504,"duration":"0.05"},{"name":"G5","midi":79,"time":"281.34","velocity":0.3700787401574803,"duration":"0.02"},{"name":"G#5","midi":80,"time":"281.34","velocity":0.25984251968503935,"duration":"0.03"},{"name":"C6","midi":84,"time":"281.34","velocity":0.2440944881889764,"duration":"0.02"},{"name":"E2","midi":40,"time":"281.35","velocity":0.6456692913385826,"duration":"0.02"},{"name":"D3","midi":50,"time":"281.35","velocity":0.6141732283464567,"duration":"0.03"},{"name":"C#4","midi":61,"time":"281.35","velocity":0.2755905511811024,"duration":"0.02"},{"name":"A#4","midi":70,"time":"281.35","velocity":0.3228346456692913,"duration":"0.03"},{"name":"F#5","midi":78,"time":"281.35","velocity":0.4251968503937008,"duration":"0.56"},{"name":"F#4","midi":66,"time":"281.36","velocity":0.4251968503937008,"duration":"0.28"},{"name":"D#7","midi":99,"time":"281.36","velocity":0.2204724409448819,"duration":"0.12"},{"name":"G5","midi":79,"time":"281.37","velocity":0.2283464566929134,"duration":"0.02"},{"name":"C6","midi":84,"time":"281.37","velocity":0.10236220472440945,"duration":"0.03"},{"name":"C#2","midi":37,"time":"281.38","velocity":0.5511811023622047,"duration":"0.01"},{"name":"E3","midi":52,"time":"281.38","velocity":0.5275590551181102,"duration":"0.01"},{"name":"A3","midi":57,"time":"281.38","velocity":0.5039370078740157,"duration":"0.27"},{"name":"A4","midi":69,"time":"281.38","velocity":0.5511811023622047,"duration":"0.36"},{"name":"A#5","midi":82,"time":"281.38","velocity":0.2125984251968504,"duration":"0.05"},{"name":"C2","midi":36,"time":"281.40","velocity":0.5118110236220472,"duration":"0.02"},{"name":"D3","midi":50,"time":"281.40","velocity":0.5984251968503937,"duration":"0.30"},{"name":"C#4","midi":61,"time":"281.40","velocity":0.3937007874015748,"duration":"0.30"},{"name":"G6","midi":91,"time":"281.40","velocity":0.13385826771653545,"duration":"0.03"},{"name":"A#5","midi":82,"time":"281.44","velocity":0.12598425196850394,"duration":"0.06"},{"name":"A#6","midi":94,"time":"281.47","velocity":0.15748031496062992,"duration":"0.23"},{"name":"G7","midi":103,"time":"281.48","velocity":0.07874015748031496,"duration":"0.06"},{"name":"B6","midi":95,"time":"281.50","velocity":0.08661417322834646,"duration":"0.09"},{"name":"D#6","midi":87,"time":"281.51","velocity":0.08661417322834646,"duration":"0.05"},{"name":"A#1","midi":34,"time":"281.52","velocity":0.41732283464566927,"duration":"0.02"},{"name":"G6","midi":91,"time":"281.52","velocity":0.12598425196850394,"duration":"0.08"},{"name":"F6","midi":89,"time":"281.53","velocity":0.08661417322834646,"duration":"0.05"},{"name":"G#6","midi":92,"time":"281.55","velocity":0.15748031496062992,"duration":"0.08"},{"name":"G7","midi":103,"time":"281.58","velocity":0.12598425196850394,"duration":"0.07"},{"name":"A#5","midi":82,"time":"281.59","velocity":0.14173228346456693,"duration":"0.05"},{"name":"F7","midi":101,"time":"281.60","velocity":0.29133858267716534,"duration":"0.33"},{"name":"C#2","midi":37,"time":"281.62","velocity":0.2677165354330709,"duration":"0.02"},{"name":"C7","midi":96,"time":"281.62","velocity":0.09448818897637795,"duration":"0.03"},{"name":"C#2","midi":37,"time":"281.65","velocity":0.3543307086614173,"duration":"0.02"},{"name":"G#5","midi":80,"time":"281.67","velocity":0.14960629921259844,"duration":"0.03"},{"name":"B4","midi":71,"time":"281.69","velocity":0.5196850393700787,"duration":"0.03"},{"name":"F6","midi":89,"time":"281.69","velocity":0.23622047244094488,"duration":"0.03"},{"name":"A6","midi":93,"time":"281.69","velocity":0.33858267716535434,"duration":"0.65"},{"name":"C7","midi":96,"time":"281.69","velocity":0.2992125984251969,"duration":"0.27"},{"name":"D4","midi":62,"time":"281.70","velocity":0.5275590551181102,"duration":"0.01"},{"name":"D#6","midi":87,"time":"281.70","velocity":0.25984251968503935,"duration":"0.02"},{"name":"G#6","midi":92,"time":"281.70","velocity":0.36220472440944884,"duration":"0.19"},{"name":"G7","midi":103,"time":"281.70","velocity":0.2125984251968504,"duration":"0.38"},{"name":"E2","midi":40,"time":"281.71","velocity":0.48031496062992124,"duration":"0.05"},{"name":"A3","midi":57,"time":"281.71","velocity":0.47244094488188976,"duration":"0.02"},{"name":"E4","midi":64,"time":"281.71","velocity":0.5118110236220472,"duration":"0.01"},{"name":"F#4","midi":66,"time":"281.71","velocity":0.4409448818897638,"duration":"0.02"},{"name":"C#5","midi":73,"time":"281.71","velocity":0.3858267716535433,"duration":"0.02"},{"name":"C6","midi":84,"time":"281.71","velocity":0.36220472440944884,"duration":"0.05"},{"name":"D6","midi":86,"time":"281.71","velocity":0.25196850393700787,"duration":"0.09"},{"name":"A#6","midi":94,"time":"281.71","velocity":0.30708661417322836,"duration":"0.16"},{"name":"G#5","midi":80,"time":"281.72","velocity":0.2440944881889764,"duration":"0.02"},{"name":"D3","midi":50,"time":"281.73","velocity":0.5433070866141733,"duration":"0.34"},{"name":"F4","midi":65,"time":"281.73","velocity":0.4251968503937008,"duration":"0.02"},{"name":"G6","midi":91,"time":"281.73","velocity":0.18110236220472442,"duration":"0.14"},{"name":"A#4","midi":70,"time":"281.74","velocity":0.3858267716535433,"duration":"0.02"},{"name":"D#5","midi":75,"time":"281.74","velocity":0.23622047244094488,"duration":"0.03"},{"name":"D#2","midi":39,"time":"281.76","velocity":0.28346456692913385,"duration":"0.05"},{"name":"F#4","midi":66,"time":"281.76","velocity":0.3779527559055118,"duration":"0.05"},{"name":"G#4","midi":68,"time":"281.76","velocity":0.4330708661417323,"duration":"0.02"},{"name":"D5","midi":74,"time":"281.77","velocity":0.2204724409448819,"duration":"0.03"},{"name":"C6","midi":84,"time":"281.77","velocity":0.2125984251968504,"duration":"0.08"},{"name":"C#6","midi":85,"time":"281.77","velocity":0.2440944881889764,"duration":"0.15"},{"name":"A4","midi":69,"time":"281.78","velocity":0.4881889763779528,"duration":"0.58"},{"name":"C5","midi":72,"time":"281.78","velocity":0.2677165354330709,"duration":"0.05"},{"name":"E5","midi":76,"time":"281.78","velocity":0.33070866141732286,"duration":"0.02"},{"name":"B5","midi":83,"time":"281.78","velocity":0.16535433070866143,"duration":"0.03"},{"name":"A3","midi":57,"time":"281.79","velocity":0.3464566929133858,"duration":"0.03"},{"name":"C#2","midi":37,"time":"281.80","velocity":0.28346456692913385,"duration":"0.02"},{"name":"D#5","midi":75,"time":"281.80","velocity":0.3228346456692913,"duration":"0.02"},{"name":"G#5","midi":80,"time":"281.80","velocity":0.36220472440944884,"duration":"0.02"},{"name":"F#4","midi":66,"time":"281.81","velocity":0.2677165354330709,"duration":"0.02"},{"name":"A#3","midi":58,"time":"281.83","velocity":0.2755905511811024,"duration":"0.02"},{"name":"C#5","midi":73,"time":"281.83","velocity":0.2440944881889764,"duration":"0.12"},{"name":"B5","midi":83,"time":"281.83","velocity":0.13385826771653545,"duration":"0.07"},{"name":"G4","midi":67,"time":"281.84","velocity":0.2677165354330709,"duration":"0.02"},{"name":"E6","midi":88,"time":"281.84","velocity":0.15748031496062992,"duration":"0.05"},{"name":"C#2","midi":37,"time":"281.85","velocity":0.31496062992125984,"duration":"0.02"},{"name":"A#3","midi":58,"time":"281.86","velocity":0.4015748031496063,"duration":"0.03"},{"name":"E5","midi":76,"time":"281.86","velocity":0.25984251968503935,"duration":"0.10"},{"name":"D2","midi":38,"time":"281.87","velocity":0.33858267716535434,"duration":"0.10"},{"name":"A#5","midi":82,"time":"281.88","velocity":0.1889763779527559,"duration":"0.15"},{"name":"D6","midi":86,"time":"281.88","velocity":0.13385826771653545,"duration":"0.07"},{"name":"D#6","midi":87,"time":"281.88","velocity":0.2125984251968504,"duration":"0.07"},{"name":"E6","midi":88,"time":"281.90","velocity":0.25984251968503935,"duration":"0.44"},{"name":"A3","midi":57,"time":"281.91","velocity":0.49606299212598426,"duration":"0.15"},{"name":"G#5","midi":80,"time":"281.91","velocity":0.3937007874015748,"duration":"0.08"},{"name":"C#4","midi":61,"time":"281.92","velocity":0.2677165354330709,"duration":"0.05"},{"name":"G6","midi":91,"time":"281.92","velocity":0.15748031496062992,"duration":"0.10"},{"name":"B6","midi":95,"time":"281.92","velocity":0.10236220472440945,"duration":"0.06"},{"name":"C#6","midi":85,"time":"281.93","velocity":0.36220472440944884,"duration":"0.43"},{"name":"E5","midi":76,"time":"281.98","velocity":0.1968503937007874,"duration":"0.13"},{"name":"A5","midi":81,"time":"281.98","velocity":0.5433070866141733,"duration":"1.35"},{"name":"D2","midi":38,"time":"281.99","velocity":0.2677165354330709,"duration":"0.03"},{"name":"C#4","midi":61,"time":"281.99","velocity":0.3543307086614173,"duration":"0.05"},{"name":"F#5","midi":78,"time":"281.99","velocity":0.15748031496062992,"duration":"0.05"},{"name":"G#5","midi":80,"time":"282.02","velocity":0.33858267716535434,"duration":"0.05"},{"name":"D2","midi":38,"time":"282.03","velocity":0.33070866141732286,"duration":"0.02"},{"name":"F#4","midi":66,"time":"282.05","velocity":0.1889763779527559,"duration":"0.03"},{"name":"F#7","midi":102,"time":"282.05","velocity":0.2204724409448819,"duration":"0.23"},{"name":"C#2","midi":37,"time":"282.06","velocity":0.49606299212598426,"duration":"0.02"},{"name":"A#3","midi":58,"time":"282.06","velocity":0.4251968503937008,"duration":"0.03"},{"name":"G5","midi":79,"time":"282.06","velocity":0.28346456692913385,"duration":"0.16"},{"name":"F#6","midi":90,"time":"282.06","velocity":0.10236220472440945,"duration":"0.05"},{"name":"D#3","midi":51,"time":"282.07","velocity":0.5433070866141733,"duration":"0.03"},{"name":"A#6","midi":94,"time":"282.07","velocity":0.10236220472440945,"duration":"0.05"},{"name":"F2","midi":41,"time":"282.08","velocity":0.5590551181102362,"duration":"0.01"},{"name":"C#5","midi":73,"time":"282.08","velocity":0.29133858267716534,"duration":"0.03"},{"name":"C7","midi":96,"time":"282.08","velocity":0.07874015748031496,"duration":"0.05"},{"name":"D7","midi":98,"time":"282.08","velocity":0.14960629921259844,"duration":"0.03"},{"name":"F7","midi":101,"time":"282.08","velocity":0.3779527559055118,"duration":"0.20"},{"name":"E2","midi":40,"time":"282.09","velocity":0.4881889763779528,"duration":"0.02"},{"name":"A3","midi":57,"time":"282.09","velocity":0.5275590551181102,"duration":"0.20"},{"name":"F#4","midi":66,"time":"282.09","velocity":0.2283464566929134,"duration":"0.06"},{"name":"F5","midi":77,"time":"282.09","velocity":0.23622047244094488,"duration":"0.02"},{"name":"D3","midi":50,"time":"282.10","velocity":0.6141732283464567,"duration":"0.34"},{"name":"C#4","midi":61,"time":"282.10","velocity":0.25196850393700787,"duration":"0.03"},{"name":"D#7","midi":99,"time":"282.10","velocity":0.2677165354330709,"duration":"0.15"},{"name":"E5","midi":76,"time":"282.12","velocity":0.44881889763779526,"duration":"1.12"},{"name":"A#5","midi":82,"time":"282.13","velocity":0.10236220472440945,"duration":"0.08"},{"name":"C#5","midi":73,"time":"282.14","velocity":0.28346456692913385,"duration":"0.33"},{"name":"C#4","midi":61,"time":"282.17","velocity":0.25196850393700787,"duration":"0.03"},{"name":"B6","midi":95,"time":"282.20","velocity":0.14173228346456693,"duration":"0.07"},{"name":"C#4","midi":61,"time":"282.22","velocity":0.3228346456692913,"duration":"0.21"},{"name":"B5","midi":83,"time":"282.22","velocity":0.09448818897637795,"duration":"0.06"},{"name":"F#5","midi":78,"time":"282.24","velocity":0.1889763779527559,"duration":"0.09"},{"name":"G5","midi":79,"time":"282.26","velocity":0.15748031496062992,"duration":"0.15"},{"name":"C#2","midi":37,"time":"282.27","velocity":0.18110236220472442,"duration":"0.03"},{"name":"F#4","midi":66,"time":"282.28","velocity":0.15748031496062992,"duration":"0.05"},{"name":"A#5","midi":82,"time":"282.28","velocity":0.11811023622047244,"duration":"0.09"},{"name":"G6","midi":91,"time":"282.28","velocity":0.16535433070866143,"duration":"0.13"},{"name":"F6","midi":89,"time":"282.29","velocity":0.11023622047244094,"duration":"0.03"},{"name":"D2","midi":38,"time":"282.30","velocity":0.2440944881889764,"duration":"0.10"},{"name":"G#6","midi":92,"time":"282.30","velocity":0.07086614173228346,"duration":"0.05"},{"name":"C7","midi":96,"time":"282.33","velocity":0.10236220472440945,"duration":"0.03"},{"name":"F#4","midi":66,"time":"282.34","velocity":0.16535433070866143,"duration":"0.05"},{"name":"A3","midi":57,"time":"282.36","velocity":0.4094488188976378,"duration":"0.12"},{"name":"C#7","midi":97,"time":"282.36","velocity":0.08661417322834646,"duration":"0.08"},{"name":"E7","midi":100,"time":"282.36","velocity":0.31496062992125984,"duration":"1.06"},{"name":"G#6","midi":92,"time":"282.37","velocity":0.13385826771653545,"duration":"0.03"},{"name":"F#4","midi":66,"time":"282.40","velocity":0.4094488188976378,"duration":"0.12"},{"name":"C#6","midi":85,"time":"282.40","velocity":0.29133858267716534,"duration":"0.31"},{"name":"C#2","midi":37,"time":"282.41","velocity":0.31496062992125984,"duration":"0.03"},{"name":"G#5","midi":80,"time":"282.42","velocity":0.18110236220472442,"duration":"0.03"},{"name":"G6","midi":91,"time":"282.42","velocity":0.2125984251968504,"duration":"0.08"},{"name":"C7","midi":96,"time":"282.43","velocity":0.18110236220472442,"duration":"0.08"},{"name":"G7","midi":103,"time":"282.43","velocity":0.2283464566929134,"duration":"0.12"},{"name":"B5","midi":83,"time":"282.44","velocity":0.15748031496062992,"duration":"0.07"},{"name":"G#6","midi":92,"time":"282.44","velocity":0.23622047244094488,"duration":"0.13"},{"name":"F7","midi":101,"time":"282.44","velocity":0.18110236220472442,"duration":"0.03"},{"name":"A2","midi":45,"time":"282.45","velocity":0.6220472440944882,"duration":"0.01"},{"name":"C5","midi":72,"time":"282.45","velocity":0.25196850393700787,"duration":"0.02"},{"name":"D6","midi":86,"time":"282.45","velocity":0.2047244094488189,"duration":"0.08"},{"name":"F#6","midi":90,"time":"282.45","velocity":0.1968503937007874,"duration":"0.03"},{"name":"C#7","midi":97,"time":"282.45","velocity":0.31496062992125984,"duration":"0.24"},{"name":"D#7","midi":99,"time":"282.45","velocity":0.18110236220472442,"duration":"0.10"},{"name":"F#2","midi":42,"time":"282.47","velocity":0.6299212598425197,"duration":"0.01"},{"name":"C3","midi":48,"time":"282.47","velocity":0.5984251968503937,"duration":"0.02"},{"name":"A#4","midi":70,"time":"282.47","velocity":0.29133858267716534,"duration":"0.03"},{"name":"D5","midi":74,"time":"282.47","velocity":0.23622047244094488,"duration":"0.05"},{"name":"F2","midi":41,"time":"282.48","velocity":0.5669291338582677,"duration":"0.02"},{"name":"D3","midi":50,"time":"282.49","velocity":0.6220472440944882,"duration":"0.01"},{"name":"A3","midi":57,"time":"282.49","velocity":0.49606299212598426,"duration":"0.35"},{"name":"B4","midi":71,"time":"282.49","velocity":0.2047244094488189,"duration":"0.03"},{"name":"A#6","midi":94,"time":"282.49","velocity":0.09448818897637795,"duration":"0.07"},{"name":"F7","midi":101,"time":"282.49","velocity":0.2047244094488189,"duration":"0.13"},{"name":"E1","midi":28,"time":"282.50","velocity":0.5511811023622047,"duration":"0.01"},{"name":"C#3","midi":49,"time":"282.50","velocity":0.5984251968503937,"duration":"0.01"},{"name":"F#1","midi":30,"time":"282.51","velocity":0.5826771653543307,"duration":"0.01"},{"name":"D3","midi":50,"time":"282.51","velocity":0.6062992125984252,"duration":"0.33"},{"name":"C#5","midi":73,"time":"282.51","velocity":0.3228346456692913,"duration":"0.21"},{"name":"G6","midi":91,"time":"282.51","velocity":0.09448818897637795,"duration":"0.06"},{"name":"C#4","midi":61,"time":"282.55","velocity":0.48031496062992124,"duration":"0.30"},{"name":"G5","midi":79,"time":"282.55","velocity":0.13385826771653545,"duration":"0.12"},{"name":"B6","midi":95,"time":"282.55","velocity":0.07086614173228346,"duration":"0.03"},{"name":"F6","midi":89,"time":"282.56","velocity":0.11811023622047244,"duration":"0.03"},{"name":"F#5","midi":78,"time":"282.57","velocity":0.07874015748031496,"duration":"0.03"},{"name":"G7","midi":103,"time":"282.59","velocity":0.15748031496062992,"duration":"0.06"},{"name":"D#2","midi":39,"time":"282.60","velocity":0.3464566929133858,"duration":"0.02"},{"name":"A#5","midi":82,"time":"282.60","velocity":0.14173228346456693,"duration":"0.10"},{"name":"C7","midi":96,"time":"282.60","velocity":0.11023622047244094,"duration":"0.12"},{"name":"F#7","midi":102,"time":"282.62","velocity":0.12598425196850394,"duration":"0.03"},{"name":"F#4","midi":66,"time":"282.63","velocity":0.11023622047244094,"duration":"0.03"},{"name":"G#6","midi":92,"time":"282.63","velocity":0.10236220472440945,"duration":"0.03"},{"name":"G#5","midi":80,"time":"282.64","velocity":0.2677165354330709,"duration":"0.03"},{"name":"A#1","midi":34,"time":"282.66","velocity":0.3700787401574803,"duration":"0.02"},{"name":"F6","midi":89,"time":"282.66","velocity":0.15748031496062992,"duration":"0.09"},{"name":"G6","midi":91,"time":"282.66","velocity":0.09448818897637795,"duration":"0.03"},{"name":"G#1","midi":32,"time":"282.69","velocity":0.2677165354330709,"duration":"0.02"},{"name":"F#4","midi":66,"time":"282.73","velocity":0.18110236220472442,"duration":"0.08"},{"name":"C#7","midi":97,"time":"282.73","velocity":0.1889763779527559,"duration":"0.10"},{"name":"D#2","midi":39,"time":"282.74","velocity":0.25196850393700787,"duration":"0.02"},{"name":"C#6","midi":85,"time":"282.74","velocity":0.33858267716535434,"duration":"0.47"},{"name":"C2","midi":36,"time":"282.77","velocity":0.30708661417322836,"duration":"0.02"},{"name":"G7","midi":103,"time":"282.77","velocity":0.1889763779527559,"duration":"0.29"},{"name":"A4","midi":69,"time":"282.79","velocity":0.5196850393700787,"duration":"0.42"},{"name":"G#5","midi":80,"time":"282.81","velocity":0.2755905511811024,"duration":"0.02"},{"name":"G6","midi":91,"time":"282.81","velocity":0.07874015748031496,"duration":"0.03"},{"name":"B5","midi":83,"time":"282.83","velocity":0.1968503937007874,"duration":"0.05"},{"name":"C7","midi":96,"time":"282.83","velocity":0.07086614173228346,"duration":"0.03"},{"name":"F#7","midi":102,"time":"282.83","velocity":0.2440944881889764,"duration":"0.19"},{"name":"F6","midi":89,"time":"282.84","velocity":0.1889763779527559,"duration":"0.09"},{"name":"G#6","midi":92,"time":"282.84","velocity":0.2125984251968504,"duration":"0.26"},{"name":"F7","midi":101,"time":"282.84","velocity":0.31496062992125984,"duration":"0.19"},{"name":"E2","midi":40,"time":"282.85","velocity":0.5118110236220472,"duration":"0.02"},{"name":"A#6","midi":94,"time":"282.85","velocity":0.2283464566929134,"duration":"0.02"},{"name":"D#7","midi":99,"time":"282.85","velocity":0.2440944881889764,"duration":"0.12"},{"name":"A3","midi":57,"time":"282.86","velocity":0.4330708661417323,"duration":"0.34"},{"name":"F4","midi":65,"time":"282.86","velocity":0.2283464566929134,"duration":"0.02"},{"name":"C6","midi":84,"time":"282.86","velocity":0.11023622047244094,"duration":"0.03"},{"name":"D3","midi":50,"time":"282.87","velocity":0.5748031496062992,"duration":"0.34"},{"name":"C#5","midi":73,"time":"282.87","velocity":0.3779527559055118,"duration":"0.38"},{"name":"G#5","midi":80,"time":"282.87","velocity":0.2283464566929134,"duration":"0.02"},{"name":"B6","midi":95,"time":"282.87","velocity":0.14960629921259844,"duration":"0.15"},{"name":"C#4","midi":61,"time":"282.88","velocity":0.4409448818897638,"duration":"0.31"},{"name":"D2","midi":38,"time":"282.90","velocity":0.3228346456692913,"duration":"0.02"},{"name":"F#5","midi":78,"time":"282.91","velocity":0.10236220472440945,"duration":"0.03"},{"name":"D#2","midi":39,"time":"282.92","velocity":0.30708661417322836,"duration":"0.02"},{"name":"A#5","midi":82,"time":"282.92","velocity":0.08661417322834646,"duration":"0.03"},{"name":"D#6","midi":87,"time":"282.92","velocity":0.10236220472440945,"duration":"0.08"},{"name":"G6","midi":91,"time":"282.93","velocity":0.1732283464566929,"duration":"0.03"},{"name":"A#6","midi":94,"time":"282.93","velocity":0.14960629921259844,"duration":"0.08"},{"name":"F6","midi":89,"time":"282.95","velocity":0.1732283464566929,"duration":"0.08"},{"name":"D2","midi":38,"time":"282.97","velocity":0.31496062992125984,"duration":"0.02"},{"name":"C#2","midi":37,"time":"282.99","velocity":0.33858267716535434,"duration":"0.02"},{"name":"G5","midi":79,"time":"283.01","velocity":0.13385826771653545,"duration":"0.03"},{"name":"D6","midi":86,"time":"283.01","velocity":0.10236220472440945,"duration":"0.03"},{"name":"A#5","midi":82,"time":"283.02","velocity":0.09448818897637795,"duration":"0.05"},{"name":"D#6","midi":87,"time":"283.02","velocity":0.14960629921259844,"duration":"0.13"},{"name":"C#2","midi":37,"time":"283.03","velocity":0.3228346456692913,"duration":"0.02"},{"name":"D#2","midi":39,"time":"283.06","velocity":0.31496062992125984,"duration":"0.02"},{"name":"D2","midi":38,"time":"283.08","velocity":0.30708661417322836,"duration":"0.05"},{"name":"A#5","midi":82,"time":"283.09","velocity":0.11811023622047244,"duration":"0.10"},{"name":"F#4","midi":66,"time":"283.13","velocity":0.16535433070866143,"duration":"0.03"},{"name":"G6","midi":91,"time":"283.13","velocity":0.11023622047244094,"duration":"0.05"},{"name":"D2","midi":38,"time":"283.14","velocity":0.3779527559055118,"duration":"0.06"},{"name":"G7","midi":103,"time":"283.14","velocity":0.2283464566929134,"duration":"0.19"},{"name":"E4","midi":64,"time":"283.19","velocity":0.5196850393700787,"duration":"0.06"},{"name":"G4","midi":67,"time":"283.19","velocity":0.4645669291338583,"duration":"0.02"},{"name":"B5","midi":83,"time":"283.20","velocity":0.36220472440944884,"duration":"0.03"},{"name":"D#6","midi":87,"time":"283.20","velocity":0.3228346456692913,"duration":"0.03"},{"name":"F#6","midi":90,"time":"283.20","velocity":0.3543307086614173,"duration":"0.12"},{"name":"G#6","midi":92,"time":"283.20","velocity":0.31496062992125984,"duration":"0.05"},{"name":"A#6","midi":94,"time":"283.20","velocity":0.3228346456692913,"duration":"0.03"},{"name":"D7","midi":98,"time":"283.20","velocity":0.16535433070866143,"duration":"0.10"},{"name":"F7","midi":101,"time":"283.20","velocity":0.30708661417322836,"duration":"0.17"},{"name":"E3","midi":52,"time":"283.21","velocity":0.44881889763779526,"duration":"0.02"},{"name":"A3","midi":57,"time":"283.21","velocity":0.48031496062992124,"duration":"0.02"},{"name":"G#4","midi":68,"time":"283.21","velocity":0.5905511811023622,"duration":"0.01"},{"name":"A#5","midi":82,"time":"283.21","velocity":0.31496062992125984,"duration":"0.03"},{"name":"D6","midi":86,"time":"283.21","velocity":0.29133858267716534,"duration":"0.05"},{"name":"C7","midi":96,"time":"283.21","velocity":0.1889763779527559,"duration":"0.07"},{"name":"E2","midi":40,"time":"283.22","velocity":0.5118110236220472,"duration":"0.03"},{"name":"A4","midi":69,"time":"283.22","velocity":0.6220472440944882,"duration":"0.06"},{"name":"D3","midi":50,"time":"283.23","velocity":0.6141732283464567,"duration":"0.72"},{"name":"C4","midi":60,"time":"283.23","velocity":0.4330708661417323,"duration":"0.02"},{"name":"F5","midi":77,"time":"283.23","velocity":0.3228346456692913,"duration":"0.03"},{"name":"F#5","midi":78,"time":"283.23","velocity":0.2755905511811024,"duration":"0.02"},{"name":"B5","midi":83,"time":"283.24","velocity":0.2440944881889764,"duration":"0.06"},{"name":"E4","midi":64,"time":"283.26","velocity":0.25196850393700787,"duration":"0.02"},{"name":"C6","midi":84,"time":"283.26","velocity":0.2047244094488189,"duration":"0.08"},{"name":"D#6","midi":87,"time":"283.26","velocity":0.18110236220472442,"duration":"0.03"},{"name":"G#6","midi":92,"time":"283.26","velocity":0.33858267716535434,"duration":"0.14"},{"name":"C#4","midi":61,"time":"283.27","velocity":0.30708661417322836,"duration":"0.05"},{"name":"C5","midi":72,"time":"283.27","velocity":0.28346456692913385,"duration":"0.02"},{"name":"A#6","midi":94,"time":"283.27","velocity":0.12598425196850394,"duration":"0.05"},{"name":"D#2","midi":39,"time":"283.28","velocity":0.28346456692913385,"duration":"0.02"},{"name":"G#4","midi":68,"time":"283.28","velocity":0.4409448818897638,"duration":"0.02"},{"name":"C#5","midi":73,"time":"283.28","velocity":0.33070866141732286,"duration":"0.17"},{"name":"D#5","midi":75,"time":"283.28","velocity":0.29133858267716534,"duration":"0.02"},{"name":"A#3","midi":58,"time":"283.29","velocity":0.3779527559055118,"duration":"0.02"},{"name":"F5","midi":77,"time":"283.29","velocity":0.28346456692913385,"duration":"0.03"},{"name":"A4","midi":69,"time":"283.30","velocity":0.5275590551181102,"duration":"0.30"},{"name":"E5","midi":76,"time":"283.30","velocity":0.3858267716535433,"duration":"0.02"},{"name":"D6","midi":86,"time":"283.30","velocity":0.1889763779527559,"duration":"0.10"},{"name":"F#4","midi":66,"time":"283.31","velocity":0.2755905511811024,"duration":"0.10"},{"name":"G#5","midi":80,"time":"283.31","velocity":0.4015748031496063,"duration":"0.06"},{"name":"B4","midi":71,"time":"283.33","velocity":0.2677165354330709,"duration":"0.02"},{"name":"D#5","midi":75,"time":"283.33","velocity":0.33070866141732286,"duration":"0.03"},{"name":"F6","midi":89,"time":"283.33","velocity":0.23622047244094488,"duration":"0.13"},{"name":"F#6","midi":90,"time":"283.33","velocity":0.14173228346456693,"duration":"0.05"},{"name":"A#3","midi":58,"time":"283.34","velocity":0.4409448818897638,"duration":"0.02"},{"name":"G7","midi":103,"time":"283.34","velocity":0.1968503937007874,"duration":"0.03"},{"name":"D#6","midi":87,"time":"283.36","velocity":0.13385826771653545,"duration":"0.15"},{"name":"D2","midi":38,"time":"283.37","velocity":0.31496062992125984,"duration":"0.06"},{"name":"C#4","midi":61,"time":"283.37","velocity":0.3700787401574803,"duration":"0.03"},{"name":"E5","midi":76,"time":"283.37","velocity":0.23622047244094488,"duration":"0.02"},{"name":"A3","midi":57,"time":"283.38","velocity":0.47244094488188976,"duration":"0.05"},{"name":"C6","midi":84,"time":"283.38","velocity":0.10236220472440945,"duration":"0.05"},{"name":"C#6","midi":85,"time":"283.38","velocity":0.33070866141732286,"duration":"0.22"},{"name":"G6","midi":91,"time":"283.38","velocity":0.12598425196850394,"duration":"0.07"},{"name":"A#6","midi":94,"time":"283.38","velocity":0.12598425196850394,"duration":"0.06"},{"name":"D#5","midi":75,"time":"283.40","velocity":0.2440944881889764,"duration":"0.02"},{"name":"E5","midi":76,"time":"283.41","velocity":0.3858267716535433,"duration":"0.92"},{"name":"G7","midi":103,"time":"283.41","velocity":0.16535433070866143,"duration":"0.07"},{"name":"C#4","midi":61,"time":"283.42","velocity":0.4015748031496063,"duration":"0.09"},{"name":"C#2","midi":37,"time":"283.43","velocity":0.3228346456692913,"duration":"0.02"},{"name":"G#6","midi":92,"time":"283.43","velocity":0.2283464566929134,"duration":"0.09"},{"name":"A3","midi":57,"time":"283.44","velocity":0.48031496062992124,"duration":"0.05"},{"name":"D5","midi":74,"time":"283.45","velocity":0.2992125984251969,"duration":"0.05"},{"name":"G#5","midi":80,"time":"283.45","velocity":0.3937007874015748,"duration":"0.03"},{"name":"A#5","midi":82,"time":"283.45","velocity":0.14173228346456693,"duration":"0.08"},{"name":"F#4","midi":66,"time":"283.49","velocity":0.2283464566929134,"duration":"0.05"},{"name":"D2","midi":38,"time":"283.50","velocity":0.31496062992125984,"duration":"0.08"},{"name":"G6","midi":91,"time":"283.50","velocity":0.10236220472440945,"duration":"0.08"},{"name":"A#3","midi":58,"time":"283.51","velocity":0.4409448818897638,"duration":"0.02"},{"name":"F#7","midi":102,"time":"283.51","velocity":0.07086614173228346,"duration":"0.03"},{"name":"C#4","midi":61,"time":"283.52","velocity":0.3858267716535433,"duration":"0.05"},{"name":"G#5","midi":80,"time":"283.55","velocity":0.3464566929133858,"duration":"0.06"},{"name":"B5","midi":83,"time":"283.57","velocity":0.14173228346456693,"duration":"0.03"},{"name":"F#7","midi":102,"time":"283.57","velocity":0.1889763779527559,"duration":"0.13"},{"name":"A#3","midi":58,"time":"283.58","velocity":0.3228346456692913,"duration":"0.02"},{"name":"A#6","midi":94,"time":"283.58","velocity":0.15748031496062992,"duration":"0.05"},{"name":"G7","midi":103,"time":"283.58","velocity":0.1732283464566929,"duration":"0.26"},{"name":"E2","midi":40,"time":"283.59","velocity":0.5511811023622047,"duration":"0.02"},{"name":"D6","midi":86,"time":"283.59","velocity":0.30708661417322836,"duration":"0.02"},{"name":"F#6","midi":90,"time":"283.59","velocity":0.08661417322834646,"duration":"0.03"},{"name":"G#4","midi":68,"time":"283.60","velocity":0.2440944881889764,"duration":"0.02"},{"name":"A#4","midi":70,"time":"283.60","velocity":0.3228346456692913,"duration":"0.02"},{"name":"C7","midi":96,"time":"283.60","velocity":0.12598425196850394,"duration":"0.07"},{"name":"D#7","midi":99,"time":"283.60","velocity":0.16535433070866143,"duration":"0.07"},{"name":"F7","midi":101,"time":"283.60","velocity":0.30708661417322836,"duration":"0.14"},{"name":"A3","midi":57,"time":"283.62","velocity":0.47244094488188976,"duration":"0.24"},{"name":"C#6","midi":85,"time":"283.62","velocity":0.3228346456692913,"duration":"0.34"},{"name":"F6","midi":89,"time":"283.62","velocity":0.1889763779527559,"duration":"0.05"},{"name":"G6","midi":91,"time":"283.62","velocity":0.15748031496062992,"duration":"0.03"},{"name":"A4","midi":69,"time":"283.63","velocity":0.5039370078740157,"duration":"0.48"},{"name":"D#2","midi":39,"time":"283.64","velocity":0.25196850393700787,"duration":"0.02"},{"name":"C#5","midi":73,"time":"283.64","velocity":0.2677165354330709,"duration":"0.33"},{"name":"A#6","midi":94,"time":"283.64","velocity":0.15748031496062992,"duration":"0.05"},{"name":"G6","midi":91,"time":"283.66","velocity":0.1732283464566929,"duration":"0.14"},{"name":"C#4","midi":61,"time":"283.71","velocity":0.44881889763779526,"duration":"0.26"},{"name":"F6","midi":89,"time":"283.74","velocity":0.11023622047244094,"duration":"0.05"},{"name":"G#6","midi":92,"time":"283.76","velocity":0.15748031496062992,"duration":"0.03"},{"name":"G#5","midi":80,"time":"283.77","velocity":0.3228346456692913,"duration":"0.02"},{"name":"F#4","midi":66,"time":"283.79","velocity":0.14173228346456693,"duration":"0.03"},{"name":"B5","midi":83,"time":"283.79","velocity":0.10236220472440945,"duration":"0.03"},{"name":"D2","midi":38,"time":"283.81","velocity":0.25196850393700787,"duration":"0.06"},{"name":"G#5","midi":80,"time":"283.83","velocity":0.33858267716535434,"duration":"0.06"},{"name":"G7","midi":103,"time":"283.86","velocity":0.10236220472440945,"duration":"0.03"},{"name":"D2","midi":38,"time":"283.88","velocity":0.2677165354330709,"duration":"0.05"},{"name":"G5","midi":79,"time":"283.88","velocity":0.1889763779527559,"duration":"0.07"},{"name":"D#6","midi":87,"time":"283.90","velocity":0.07874015748031496,"duration":"0.05"},{"name":"A3","midi":57,"time":"283.91","velocity":0.3543307086614173,"duration":"0.03"},{"name":"D#2","midi":39,"time":"283.93","velocity":0.31496062992125984,"duration":"0.02"},{"name":"F6","midi":89,"time":"283.93","velocity":0.12598425196850394,"duration":"0.06"},{"name":"F#6","midi":90,"time":"283.93","velocity":0.3779527559055118,"duration":"1.78"},{"name":"B6","midi":95,"time":"283.94","velocity":0.25984251968503935,"duration":"0.71"},{"name":"C#2","midi":37,"time":"283.95","velocity":0.5354330708661418,"duration":"0.01"},{"name":"G#3","midi":56,"time":"283.95","velocity":0.49606299212598426,"duration":"0.03"},{"name":"B5","midi":83,"time":"283.95","velocity":0.23622047244094488,"duration":"0.03"},{"name":"C7","midi":96,"time":"283.95","velocity":0.12598425196850394,"duration":"0.05"},{"name":"C#7","midi":97,"time":"283.95","velocity":0.25196850393700787,"duration":"0.24"},{"name":"D7","midi":98,"time":"283.95","velocity":0.18110236220472442,"duration":"0.06"},{"name":"D#7","midi":99,"time":"283.95","velocity":0.1889763779527559,"duration":"0.08"},{"name":"F7","midi":101,"time":"283.95","velocity":0.2440944881889764,"duration":"0.09"},{"name":"G7","midi":103,"time":"283.95","velocity":0.1968503937007874,"duration":"0.13"},{"name":"F2","midi":41,"time":"283.97","velocity":0.6929133858267716,"duration":"0.03"},{"name":"F#4","midi":66,"time":"283.97","velocity":0.3858267716535433,"duration":"0.02"},{"name":"D5","midi":74,"time":"283.97","velocity":0.2755905511811024,"duration":"0.09"},{"name":"G5","midi":79,"time":"283.97","velocity":0.2440944881889764,"duration":"0.02"},{"name":"G#5","midi":80,"time":"283.97","velocity":0.2992125984251969,"duration":"0.03"},{"name":"C6","midi":84,"time":"283.97","velocity":0.14960629921259844,"duration":"0.07"},{"name":"C#6","midi":85,"time":"283.97","velocity":0.3228346456692913,"duration":"0.74"},{"name":"C#4","midi":61,"time":"283.98","velocity":0.4566929133858268,"duration":"0.29"},{"name":"D3","midi":50,"time":"283.99","velocity":0.6299212598425197,"duration":"0.33"},{"name":"A3","midi":57,"time":"283.99","velocity":0.4566929133858268,"duration":"0.15"},{"name":"G#5","midi":80,"time":"284.01","velocity":0.23622047244094488,"duration":"0.05"},{"name":"G6","midi":91,"time":"284.01","velocity":0.10236220472440945,"duration":"0.17"},{"name":"A#6","midi":94,"time":"284.01","velocity":0.14173228346456693,"duration":"0.09"},{"name":"B4","midi":71,"time":"284.02","velocity":0.4015748031496063,"duration":"0.24"},{"name":"F#5","midi":78,"time":"284.02","velocity":0.2283464566929134,"duration":"0.14"},{"name":"C7","midi":96,"time":"284.02","velocity":0.1732283464566929,"duration":"0.06"},{"name":"C2","midi":36,"time":"284.07","velocity":0.3779527559055118,"duration":"0.02"},{"name":"D5","midi":74,"time":"284.07","velocity":0.15748031496062992,"duration":"0.08"},{"name":"G#5","midi":80,"time":"284.07","velocity":0.1968503937007874,"duration":"0.05"},{"name":"D#6","midi":87,"time":"284.07","velocity":0.11811023622047244,"duration":"0.16"},{"name":"F7","midi":101,"time":"284.07","velocity":0.16535433070866143,"duration":"0.10"},{"name":"D2","midi":38,"time":"284.09","velocity":0.2440944881889764,"duration":"0.02"},{"name":"C#1","midi":25,"time":"284.10","velocity":0.31496062992125984,"duration":"0.02"},{"name":"F6","midi":89,"time":"284.12","velocity":0.11023622047244094,"duration":"0.03"},{"name":"D#7","midi":99,"time":"284.12","velocity":0.11811023622047244,"duration":"0.05"},{"name":"G5","midi":79,"time":"284.13","velocity":0.14173228346456693,"duration":"0.05"},{"name":"A4","midi":69,"time":"284.14","velocity":0.33858267716535434,"duration":"0.06"},{"name":"E4","midi":64,"time":"284.15","velocity":0.14173228346456693,"duration":"0.03"},{"name":"G7","midi":103,"time":"284.15","velocity":0.14173228346456693,"duration":"0.15"},{"name":"F#5","midi":78,"time":"284.19","velocity":0.23622047244094488,"duration":"0.12"},{"name":"A3","midi":57,"time":"284.20","velocity":0.4645669291338583,"duration":"0.13"},{"name":"F#4","midi":66,"time":"284.20","velocity":0.14173228346456693,"duration":"0.08"},{"name":"D6","midi":86,"time":"284.21","velocity":0.11023622047244094,"duration":"0.08"},{"name":"C2","midi":36,"time":"284.22","velocity":0.33858267716535434,"duration":"0.02"},{"name":"G#6","midi":92,"time":"284.23","velocity":0.2677165354330709,"duration":"0.26"},{"name":"D#2","midi":39,"time":"284.24","velocity":0.3228346456692913,"duration":"0.02"},{"name":"D#6","midi":87,"time":"284.26","velocity":0.1732283464566929,"duration":"0.10"},{"name":"C#4","midi":61,"time":"284.28","velocity":0.44881889763779526,"duration":"0.07"},{"name":"G6","midi":91,"time":"284.29","velocity":0.16535433070866143,"duration":"0.07"},{"name":"D#2","midi":39,"time":"284.30","velocity":0.41732283464566927,"duration":"0.02"},{"name":"D#3","midi":51,"time":"284.31","velocity":0.5275590551181102,"duration":"0.02"},{"name":"B4","midi":71,"time":"284.33","velocity":0.3543307086614173,"duration":"0.03"},{"name":"F5","midi":77,"time":"284.33","velocity":0.2440944881889764,"duration":"0.05"},{"name":"C2","midi":36,"time":"284.34","velocity":0.5748031496062992,"duration":"0.02"},{"name":"F4","midi":65,"time":"284.34","velocity":0.4015748031496063,"duration":"0.02"},{"name":"G5","midi":79,"time":"284.34","velocity":0.14173228346456693,"duration":"0.07"},{"name":"G#5","midi":80,"time":"284.34","velocity":0.2204724409448819,"duration":"0.06"},{"name":"C6","midi":84,"time":"284.34","velocity":0.15748031496062992,"duration":"0.03"},{"name":"D7","midi":98,"time":"284.34","velocity":0.1732283464566929,"duration":"0.06"},{"name":"E7","midi":100,"time":"284.34","velocity":0.14173228346456693,"duration":"0.07"},{"name":"F7","midi":101,"time":"284.34","velocity":0.2992125984251969,"duration":"0.15"},{"name":"D#3","midi":51,"time":"284.35","velocity":0.6299212598425197,"duration":"0.05"},{"name":"D4","midi":62,"time":"284.35","velocity":0.4015748031496063,"duration":"0.02"},{"name":"C#5","midi":73,"time":"284.35","velocity":0.2755905511811024,"duration":"0.02"},{"name":"E2","midi":40,"time":"284.36","velocity":0.5748031496062992,"duration":"0.01"},{"name":"F#4","midi":66,"time":"284.36","velocity":0.28346456692913385,"duration":"0.02"},{"name":"F2","midi":41,"time":"284.37","velocity":0.5433070866141733,"duration":"0.01"},{"name":"E5","midi":76,"time":"284.37","velocity":0.2677165354330709,"duration":"0.06"},{"name":"D#7","midi":99,"time":"284.37","velocity":0.11811023622047244,"duration":"0.06"},{"name":"E1","midi":28,"time":"284.38","velocity":0.6220472440944882,"duration":"0.01"},{"name":"B4","midi":71,"time":"284.38","velocity":0.3700787401574803,"duration":"0.08"},{"name":"F#1","midi":30,"time":"284.40","velocity":0.6456692913385826,"duration":"0.01"},{"name":"E3","midi":52,"time":"284.40","velocity":0.5590551181102362,"duration":"0.03"},{"name":"A3","midi":57,"time":"284.40","velocity":0.36220472440944884,"duration":"0.02"},{"name":"D#1","midi":27,"time":"284.41","velocity":0.5511811023622047,"duration":"0.01"},{"name":"C#5","midi":73,"time":"284.41","velocity":0.4330708661417323,"duration":"0.33"},{"name":"C1","midi":24,"time":"284.42","velocity":0.5354330708661418,"duration":"0.01"},{"name":"G5","midi":79,"time":"284.42","velocity":0.16535433070866143,"duration":"0.06"},{"name":"G#5","midi":80,"time":"284.42","velocity":0.2204724409448819,"duration":"0.03"},{"name":"D#3","midi":51,"time":"284.43","velocity":0.5748031496062992,"duration":"0.01"},{"name":"E4","midi":64,"time":"284.43","velocity":0.23622047244094488,"duration":"0.06"},{"name":"F6","midi":89,"time":"284.43","velocity":0.11811023622047244,"duration":"0.07"},{"name":"E3","midi":52,"time":"284.44","velocity":0.5511811023622047,"duration":"0.29"},{"name":"D#6","midi":87,"time":"284.44","velocity":0.14960629921259844,"duration":"0.12"},{"name":"A3","midi":57,"time":"284.45","velocity":0.3228346456692913,"duration":"0.02"},{"name":"E5","midi":76,"time":"284.45","velocity":0.4566929133858268,"duration":"0.29"},{"name":"G7","midi":103,"time":"284.45","velocity":0.11811023622047244,"duration":"0.05"},{"name":"F#5","midi":78,"time":"284.47","velocity":0.3228346456692913,"duration":"0.15"},{"name":"E2","midi":40,"time":"284.48","velocity":0.4330708661417323,"duration":"0.02"},{"name":"B4","midi":71,"time":"284.48","velocity":0.41732283464566927,"duration":"0.23"},{"name":"D#7","midi":99,"time":"284.48","velocity":0.15748031496062992,"duration":"0.05"},{"name":"C#4","midi":61,"time":"284.49","velocity":0.2992125984251969,"duration":"0.02"},{"name":"G#5","midi":80,"time":"284.49","velocity":0.1968503937007874,"duration":"0.03"},{"name":"E2","midi":40,"time":"284.51","velocity":0.41732283464566927,"duration":"0.02"},{"name":"C#4","midi":61,"time":"284.52","velocity":0.4015748031496063,"duration":"0.19"},{"name":"A3","midi":57,"time":"284.53","velocity":0.3700787401574803,"duration":"0.02"},{"name":"E2","midi":40,"time":"284.55","velocity":0.44881889763779526,"duration":"0.06"},{"name":"F6","midi":89,"time":"284.55","velocity":0.12598425196850394,"duration":"0.10"},{"name":"D#7","midi":99,"time":"284.56","velocity":0.11811023622047244,"duration":"0.06"},{"name":"A3","midi":57,"time":"284.60","velocity":0.3464566929133858,"duration":"0.02"},{"name":"G#5","midi":80,"time":"284.60","velocity":0.2677165354330709,"duration":"0.10"},{"name":"E2","midi":40,"time":"284.62","velocity":0.4881889763779528,"duration":"0.09"},{"name":"F#5","midi":78,"time":"284.64","velocity":0.2440944881889764,"duration":"0.07"},{"name":"G7","midi":103,"time":"284.66","velocity":0.2047244094488189,"duration":"0.26"},{"name":"A5","midi":81,"time":"284.67","velocity":0.2755905511811024,"duration":"0.06"},{"name":"B6","midi":95,"time":"284.67","velocity":0.2992125984251969,"duration":"1.03"},{"name":"D#7","midi":99,"time":"284.67","velocity":0.23622047244094488,"duration":"0.36"},{"name":"A#3","midi":58,"time":"284.69","velocity":0.3779527559055118,"duration":"0.02"},{"name":"A4","midi":69,"time":"284.69","velocity":0.36220472440944884,"duration":"0.02"},{"name":"D#6","midi":87,"time":"284.69","velocity":0.29133858267716534,"duration":"0.08"},{"name":"C7","midi":96,"time":"284.70","velocity":0.2047244094488189,"duration":"0.13"},{"name":"C#7","midi":97,"time":"284.70","velocity":0.33858267716535434,"duration":"0.26"},{"name":"F7","midi":101,"time":"284.70","velocity":0.2204724409448819,"duration":"0.24"},{"name":"F2","midi":41,"time":"284.71","velocity":0.5196850393700787,"duration":"0.03"},{"name":"C4","midi":60,"time":"284.71","velocity":0.5118110236220472,"duration":"0.01"},{"name":"G#4","midi":68,"time":"284.71","velocity":0.5354330708661418,"duration":"0.02"},{"name":"D6","midi":86,"time":"284.71","velocity":0.2677165354330709,"duration":"0.03"},{"name":"G#6","midi":92,"time":"284.71","velocity":0.2677165354330709,"duration":"0.14"},{"name":"C#4","midi":61,"time":"284.72","velocity":0.5196850393700787,"duration":"0.01"},{"name":"B5","midi":83,"time":"284.72","velocity":0.4015748031496063,"duration":"0.02"},{"name":"G6","midi":91,"time":"284.72","velocity":0.28346456692913385,"duration":"0.06"},{"name":"A#6","midi":94,"time":"284.72","velocity":0.23622047244094488,"duration":"0.12"},{"name":"F3","midi":53,"time":"284.73","velocity":0.5433070866141733,"duration":"0.02"},{"name":"A4","midi":69,"time":"284.73","velocity":0.5669291338582677,"duration":"0.01"},{"name":"A#5","midi":82,"time":"284.73","velocity":0.2440944881889764,"duration":"0.03"},{"name":"C#6","midi":85,"time":"284.73","velocity":0.2992125984251969,"duration":"0.08"},{"name":"C5","midi":72,"time":"284.74","velocity":0.30708661417322836,"duration":"0.02"},{"name":"D#5","midi":75,"time":"284.74","velocity":0.3228346456692913,"duration":"0.03"},{"name":"F#5","midi":78,"time":"284.74","velocity":0.3228346456692913,"duration":"0.02"},{"name":"A5","midi":81,"time":"284.74","velocity":0.41732283464566927,"duration":"0.10"},{"name":"E3","midi":52,"time":"284.76","velocity":0.5748031496062992,"duration":"0.67"},{"name":"G#5","midi":80,"time":"284.76","velocity":0.28346456692913385,"duration":"0.03"},{"name":"B5","midi":83,"time":"284.76","velocity":0.3937007874015748,"duration":"0.65"},{"name":"D6","midi":86,"time":"284.76","velocity":0.23622047244094488,"duration":"0.08"},{"name":"E2","midi":40,"time":"284.77","velocity":0.4330708661417323,"duration":"0.30"},{"name":"C#4","midi":61,"time":"284.77","velocity":0.25196850393700787,"duration":"0.03"},{"name":"B4","midi":71,"time":"284.77","velocity":0.4251968503937008,"duration":"0.07"},{"name":"G5","midi":79,"time":"284.77","velocity":0.23622047244094488,"duration":"0.07"},{"name":"A4","midi":69,"time":"284.78","velocity":0.4330708661417323,"duration":"0.03"},{"name":"D4","midi":62,"time":"284.80","velocity":0.30708661417322836,"duration":"0.02"},{"name":"F#4","midi":66,"time":"284.80","velocity":0.31496062992125984,"duration":"0.06"},{"name":"D#5","midi":75,"time":"284.81","velocity":0.31496062992125984,"duration":"0.03"},{"name":"G#5","midi":80,"time":"284.81","velocity":0.4409448818897638,"duration":"0.29"},{"name":"B3","midi":59,"time":"284.84","velocity":0.28346456692913385,"duration":"0.02"},{"name":"C#4","midi":61,"time":"284.84","velocity":0.4566929133858268,"duration":"0.27"},{"name":"C#6","midi":85,"time":"284.84","velocity":0.3858267716535433,"duration":"0.38"},{"name":"B4","midi":71,"time":"284.85","velocity":0.3464566929133858,"duration":"0.14"},{"name":"E5","midi":76,"time":"284.85","velocity":0.31496062992125984,"duration":"0.02"},{"name":"A#3","midi":58,"time":"284.86","velocity":0.29133858267716534,"duration":"0.02"},{"name":"A4","midi":69,"time":"284.86","velocity":0.29133858267716534,"duration":"0.03"},{"name":"G6","midi":91,"time":"284.86","velocity":0.08661417322834646,"duration":"0.03"},{"name":"D#6","midi":87,"time":"284.87","velocity":0.14960629921259844,"duration":"0.21"},{"name":"E6","midi":88,"time":"284.90","velocity":0.2047244094488189,"duration":"0.12"},{"name":"F6","midi":89,"time":"284.91","velocity":0.12598425196850394,"duration":"0.03"},{"name":"E5","midi":76,"time":"284.92","velocity":0.1732283464566929,"duration":"0.07"},{"name":"G5","midi":79,"time":"284.92","velocity":0.16535433070866143,"duration":"0.06"},{"name":"A4","midi":69,"time":"284.93","velocity":0.3779527559055118,"duration":"0.12"},{"name":"F#5","midi":78,"time":"284.97","velocity":0.2047244094488189,"duration":"0.19"},{"name":"F6","midi":89,"time":"284.97","velocity":0.23622047244094488,"duration":"0.08"},{"name":"B4","midi":71,"time":"285.00","velocity":0.3937007874015748,"duration":"0.13"},{"name":"F2","midi":41,"time":"285.07","velocity":0.5590551181102362,"duration":"0.03"},{"name":"D#7","midi":99,"time":"285.07","velocity":0.2204724409448819,"duration":"0.50"},{"name":"G7","midi":103,"time":"285.07","velocity":0.2047244094488189,"duration":"0.12"},{"name":"E5","midi":76,"time":"285.08","velocity":0.3464566929133858,"duration":"0.47"},{"name":"A#5","midi":82,"time":"285.09","velocity":0.1732283464566929,"duration":"0.06"},{"name":"F7","midi":101,"time":"285.09","velocity":0.31496062992125984,"duration":"0.21"},{"name":"E2","midi":40,"time":"285.10","velocity":0.49606299212598426,"duration":"0.35"},{"name":"D4","midi":62,"time":"285.10","velocity":0.3543307086614173,"duration":"0.02"},{"name":"A5","midi":81,"time":"285.10","velocity":0.2755905511811024,"duration":"0.03"},{"name":"D7","midi":98,"time":"285.10","velocity":0.12598425196850394,"duration":"0.03"},{"name":"D#6","midi":87,"time":"285.12","velocity":0.10236220472440945,"duration":"0.09"},{"name":"F6","midi":89,"time":"285.12","velocity":0.1968503937007874,"duration":"0.07"},{"name":"C7","midi":96,"time":"285.12","velocity":0.09448818897637795,"duration":"0.07"},{"name":"C#5","midi":73,"time":"285.13","velocity":0.36220472440944884,"duration":"0.15"},{"name":"B4","midi":71,"time":"285.14","velocity":0.3464566929133858,"duration":"0.03"},{"name":"G#5","midi":80,"time":"285.14","velocity":0.3228346456692913,"duration":"0.14"},{"name":"A4","midi":69,"time":"285.15","velocity":0.48031496062992124,"duration":"0.58"},{"name":"F#5","midi":78,"time":"285.16","velocity":0.2677165354330709,"duration":"0.31"},{"name":"A#3","midi":58,"time":"285.19","velocity":0.3937007874015748,"duration":"0.02"},{"name":"B4","midi":71,"time":"285.21","velocity":0.25984251968503935,"duration":"0.02"},{"name":"A#3","midi":58,"time":"285.22","velocity":0.36220472440944884,"duration":"0.02"},{"name":"C#6","midi":85,"time":"285.23","velocity":0.4566929133858268,"duration":"1.44"},{"name":"A3","midi":57,"time":"285.24","velocity":0.3228346456692913,"duration":"0.02"},{"name":"G7","midi":103,"time":"285.24","velocity":0.18110236220472442,"duration":"0.13"},{"name":"D#6","midi":87,"time":"285.27","velocity":0.16535433070866143,"duration":"0.05"},{"name":"G6","midi":91,"time":"285.27","velocity":0.10236220472440945,"duration":"0.07"},{"name":"C7","midi":96,"time":"285.28","velocity":0.13385826771653545,"duration":"0.09"},{"name":"C#4","midi":61,"time":"285.29","velocity":0.5118110236220472,"duration":"0.58"},{"name":"B4","midi":71,"time":"285.29","velocity":0.4330708661417323,"duration":"0.20"},{"name":"G#6","midi":92,"time":"285.30","velocity":0.31496062992125984,"duration":"1.14"},{"name":"F6","midi":89,"time":"285.33","velocity":0.13385826771653545,"duration":"0.06"},{"name":"F7","midi":101,"time":"285.33","velocity":0.3858267716535433,"duration":"1.24"},{"name":"G#5","midi":80,"time":"285.35","velocity":0.4566929133858268,"duration":"0.13"},{"name":"C6","midi":84,"time":"285.36","velocity":0.07086614173228346,"duration":"0.03"},{"name":"A#5","midi":82,"time":"285.38","velocity":0.18110236220472442,"duration":"0.03"},{"name":"A6","midi":93,"time":"285.38","velocity":0.23622047244094488,"duration":"0.13"},{"name":"D#6","midi":87,"time":"285.42","velocity":0.08661417322834646,"duration":"0.05"},{"name":"F6","midi":89,"time":"285.42","velocity":0.1732283464566929,"duration":"0.14"},{"name":"G7","midi":103,"time":"285.42","velocity":0.28346456692913385,"duration":"0.21"},{"name":"F3","midi":53,"time":"285.43","velocity":0.47244094488188976,"duration":"0.02"},{"name":"E7","midi":100,"time":"285.44","velocity":0.1889763779527559,"duration":"0.06"},{"name":"C2","midi":36,"time":"285.45","velocity":0.5118110236220472,"duration":"0.01"},{"name":"G3","midi":55,"time":"285.45","velocity":0.47244094488188976,"duration":"0.02"},{"name":"D6","midi":86,"time":"285.45","velocity":0.16535433070866143,"duration":"0.07"},{"name":"G6","midi":91,"time":"285.45","velocity":0.2992125984251969,"duration":"0.09"},{"name":"C7","midi":96,"time":"285.45","velocity":0.11023622047244094,"duration":"0.06"},{"name":"D7","midi":98,"time":"285.45","velocity":0.1732283464566929,"duration":"0.05"},{"name":"B1","midi":35,"time":"285.47","velocity":0.5905511811023622,"duration":"0.01"},{"name":"F#4","midi":66,"time":"285.47","velocity":0.33858267716535434,"duration":"0.03"},{"name":"F2","midi":41,"time":"285.48","velocity":0.6535433070866141,"duration":"0.02"},{"name":"A#3","midi":58,"time":"285.48","velocity":0.3543307086614173,"duration":"0.02"},{"name":"D5","midi":74,"time":"285.48","velocity":0.25196850393700787,"duration":"0.02"},{"name":"E3","midi":52,"time":"285.49","velocity":0.5354330708661418,"duration":"0.03"},{"name":"F1","midi":29,"time":"285.50","velocity":0.5511811023622047,"duration":"0.01"},{"name":"G2","midi":43,"time":"285.50","velocity":0.5905511811023622,"duration":"0.01"},{"name":"E1","midi":28,"time":"285.51","velocity":0.5984251968503937,"duration":"0.01"},{"name":"G#2","midi":44,"time":"285.51","velocity":0.6220472440944882,"duration":"0.01"},{"name":"A3","midi":57,"time":"285.51","velocity":0.4015748031496063,"duration":"0.05"},{"name":"G#5","midi":80,"time":"285.51","velocity":0.2992125984251969,"duration":"0.05"},{"name":"A1","midi":33,"time":"285.52","velocity":0.5748031496062992,"duration":"0.01"},{"name":"A2","midi":45,"time":"285.52","velocity":0.5905511811023622,"duration":"0.01"},{"name":"G5","midi":79,"time":"285.52","velocity":0.14173228346456693,"duration":"0.05"},{"name":"D#6","midi":87,"time":"285.52","velocity":0.13385826771653545,"duration":"0.05"},{"name":"C#2","midi":37,"time":"285.53","velocity":0.5511811023622047,"duration":"0.01"},{"name":"A#2","midi":46,"time":"285.53","velocity":0.5984251968503937,"duration":"0.01"},{"name":"A2","midi":45,"time":"285.55","velocity":0.5826771653543307,"duration":"0.01"},{"name":"G#2","midi":44,"time":"285.56","velocity":0.5118110236220472,"duration":"0.01"},{"name":"A#5","midi":82,"time":"285.56","velocity":0.13385826771653545,"duration":"0.06"},{"name":"E6","midi":88,"time":"285.56","velocity":0.13385826771653545,"duration":"0.14"},{"name":"G6","midi":91,"time":"285.56","velocity":0.14960629921259844,"duration":"0.06"},{"name":"A#2","midi":46,"time":"285.57","velocity":0.5354330708661418,"duration":"0.01"},{"name":"E3","midi":52,"time":"285.57","velocity":0.3937007874015748,"duration":"0.03"},{"name":"A3","midi":57,"time":"285.57","velocity":0.48031496062992124,"duration":"0.27"},{"name":"G4","midi":67,"time":"285.57","velocity":0.29133858267716534,"duration":"0.02"},{"name":"E5","midi":76,"time":"285.57","velocity":0.28346456692913385,"duration":"0.27"},{"name":"G#5","midi":80,"time":"285.57","velocity":0.3228346456692913,"duration":"0.34"},{"name":"B5","midi":83,"time":"285.57","velocity":0.25984251968503935,"duration":"0.16"},{"name":"F6","midi":89,"time":"285.57","velocity":0.11811023622047244,"duration":"0.03"},{"name":"A2","midi":45,"time":"285.58","velocity":0.5669291338582677,"duration":"0.06"},{"name":"B4","midi":71,"time":"285.59","velocity":0.25196850393700787,"duration":"0.02"},{"name":"D#7","midi":99,"time":"285.59","velocity":0.14960629921259844,"duration":"0.03"},{"name":"G4","midi":67,"time":"285.60","velocity":0.2755905511811024,"duration":"0.06"},{"name":"F#5","midi":78,"time":"285.60","velocity":0.13385826771653545,"duration":"0.06"},{"name":"B4","midi":71,"time":"285.63","velocity":0.2125984251968504,"duration":"0.08"},{"name":"F6","midi":89,"time":"285.63","velocity":0.1968503937007874,"duration":"0.14"},{"name":"G6","midi":91,"time":"285.63","velocity":0.1732283464566929,"duration":"0.03"},{"name":"A#2","midi":46,"time":"285.64","velocity":0.5354330708661418,"duration":"0.01"},{"name":"E3","midi":52,"time":"285.64","velocity":0.41732283464566927,"duration":"0.05"},{"name":"A2","midi":45,"time":"285.65","velocity":0.5669291338582677,"duration":"0.22"},{"name":"A6","midi":93,"time":"285.65","velocity":0.14960629921259844,"duration":"0.03"},{"name":"G7","midi":103,"time":"285.65","velocity":0.2125984251968504,"duration":"0.08"},{"name":"A#6","midi":94,"time":"285.69","velocity":0.12598425196850394,"duration":"0.12"},{"name":"E3","midi":52,"time":"285.70","velocity":0.4251968503937008,"duration":"0.12"},{"name":"G4","midi":67,"time":"285.70","velocity":0.2440944881889764,"duration":"0.08"},{"name":"D#6","midi":87,"time":"285.71","velocity":0.11811023622047244,"duration":"0.08"},{"name":"E7","midi":100,"time":"285.72","velocity":0.14173228346456693,"duration":"0.06"},{"name":"G#1","midi":32,"time":"285.73","velocity":0.30708661417322836,"duration":"0.02"},{"name":"A#5","midi":82,"time":"285.73","velocity":0.09448818897637795,"duration":"0.05"},{"name":"B6","midi":95,"time":"285.73","velocity":0.18110236220472442,"duration":"0.14"},{"name":"G6","midi":91,"time":"285.74","velocity":0.10236220472440945,"duration":"0.05"},{"name":"B5","midi":83,"time":"285.76","velocity":0.23622047244094488,"duration":"0.08"},{"name":"A6","midi":93,"time":"285.76","velocity":0.11811023622047244,"duration":"0.07"},{"name":"G7","midi":103,"time":"285.77","velocity":0.16535433070866143,"duration":"0.07"},{"name":"F#6","midi":90,"time":"285.78","velocity":0.2677165354330709,"duration":"0.24"},{"name":"E6","midi":88,"time":"285.81","velocity":0.33070866141732286,"duration":"0.30"},{"name":"C7","midi":96,"time":"285.81","velocity":0.09448818897637795,"duration":"0.07"},{"name":"F#5","midi":78,"time":"285.83","velocity":0.2283464566929134,"duration":"0.03"},{"name":"F6","midi":89,"time":"285.83","velocity":0.2283464566929134,"duration":"0.06"},{"name":"A#6","midi":94,"time":"285.83","velocity":0.13385826771653545,"duration":"0.07"},{"name":"A#3","midi":58,"time":"285.84","velocity":0.3779527559055118,"duration":"0.02"},{"name":"A6","midi":93,"time":"285.84","velocity":0.1732283464566929,"duration":"0.08"},{"name":"F#1","midi":30,"time":"285.85","velocity":0.2440944881889764,"duration":"0.03"},{"name":"E5","midi":76,"time":"285.85","velocity":0.5196850393700787,"duration":"0.40"},{"name":"B5","midi":83,"time":"285.85","velocity":0.13385826771653545,"duration":"0.03"},{"name":"D#3","midi":51,"time":"285.86","velocity":0.5196850393700787,"duration":"0.03"},{"name":"A#5","midi":82,"time":"285.86","velocity":0.15748031496062992,"duration":"0.03"},{"name":"G7","midi":103,"time":"285.86","velocity":0.25196850393700787,"duration":"0.05"},{"name":"C4","midi":60,"time":"285.87","velocity":0.36220472440944884,"duration":"0.02"},{"name":"A4","midi":69,"time":"285.87","velocity":0.3228346456692913,"duration":"0.34"},{"name":"A5","midi":81,"time":"285.88","velocity":0.3543307086614173,"duration":"0.42"},{"name":"G6","midi":91,"time":"285.88","velocity":0.16535433070866143,"duration":"0.20"},{"name":"B6","midi":95,"time":"285.88","velocity":0.1889763779527559,"duration":"0.13"},{"name":"E3","midi":52,"time":"285.90","velocity":0.5196850393700787,"duration":"0.33"},{"name":"C#4","midi":61,"time":"285.90","velocity":0.4251968503937008,"duration":"0.31"},{"name":"G5","midi":79,"time":"285.90","velocity":0.13385826771653545,"duration":"0.05"},{"name":"B5","midi":83,"time":"285.90","velocity":0.15748031496062992,"duration":"0.06"},{"name":"D#7","midi":99,"time":"285.90","velocity":0.11811023622047244,"duration":"0.05"},{"name":"A2","midi":45,"time":"285.91","velocity":0.5511811023622047,"duration":"0.34"},{"name":"B4","midi":71,"time":"285.91","velocity":0.15748031496062992,"duration":"0.03"},{"name":"C7","midi":96,"time":"285.91","velocity":0.15748031496062992,"duration":"0.03"},{"name":"A#5","midi":82,"time":"285.92","velocity":0.14173228346456693,"duration":"0.05"},{"name":"D#6","midi":87,"time":"285.92","velocity":0.14173228346456693,"duration":"0.07"},{"name":"G7","midi":103,"time":"285.93","velocity":0.25196850393700787,"duration":"0.05"},{"name":"G#1","midi":32,"time":"285.94","velocity":0.25196850393700787,"duration":"0.03"},{"name":"G#5","midi":80,"time":"285.94","velocity":0.33070866141732286,"duration":"0.14"},{"name":"F6","midi":89,"time":"285.94","velocity":0.29133858267716534,"duration":"0.05"},{"name":"B4","midi":71,"time":"285.97","velocity":0.1968503937007874,"duration":"0.17"},{"name":"B5","midi":83,"time":"285.97","velocity":0.1968503937007874,"duration":"0.12"},{"name":"C7","midi":96,"time":"285.97","velocity":0.1889763779527559,"duration":"0.17"},{"name":"G7","midi":103,"time":"285.99","velocity":0.1732283464566929,"duration":"0.03"},{"name":"A#5","midi":82,"time":"286.01","velocity":0.09448818897637795,"duration":"0.03"},{"name":"F6","midi":89,"time":"286.03","velocity":0.1889763779527559,"duration":"0.05"},{"name":"B6","midi":95,"time":"286.05","velocity":0.2992125984251969,"duration":"0.57"},{"name":"F#6","midi":90,"time":"286.07","velocity":0.1732283464566929,"duration":"0.07"},{"name":"G7","midi":103,"time":"286.09","velocity":0.2440944881889764,"duration":"0.49"},{"name":"G#5","midi":80,"time":"286.14","velocity":0.41732283464566927,"duration":"0.10"},{"name":"B5","midi":83,"time":"286.14","velocity":0.1732283464566929,"duration":"0.06"},{"name":"F6","midi":89,"time":"286.16","velocity":0.3543307086614173,"duration":"0.13"},{"name":"G6","midi":91,"time":"286.16","velocity":0.25984251968503935,"duration":"0.06"},{"name":"A#5","midi":82,"time":"286.19","velocity":0.29133858267716534,"duration":"0.07"},{"name":"G#4","midi":68,"time":"286.21","velocity":0.5039370078740157,"duration":"0.02"},{"name":"G5","midi":79,"time":"286.21","velocity":0.30708661417322836,"duration":"0.07"},{"name":"B5","midi":83,"time":"286.21","velocity":0.4015748031496063,"duration":"0.07"},{"name":"D6","midi":86,"time":"286.21","velocity":0.36220472440944884,"duration":"0.09"},{"name":"C7","midi":96,"time":"286.21","velocity":0.2440944881889764,"duration":"0.10"},{"name":"D#4","midi":63,"time":"286.22","velocity":0.4645669291338583,"duration":"0.02"},{"name":"C#5","midi":73,"time":"286.22","velocity":0.3937007874015748,"duration":"0.02"},{"name":"F#6","midi":90,"time":"286.22","velocity":0.3464566929133858,"duration":"0.19"},{"name":"D#7","midi":99,"time":"286.22","velocity":0.16535433070866143,"duration":"0.26"},{"name":"A4","midi":69,"time":"286.23","velocity":0.5354330708661418,"duration":"0.60"},{"name":"G#2","midi":44,"time":"286.24","velocity":0.4409448818897638,"duration":"0.02"},{"name":"F3","midi":53,"time":"286.24","velocity":0.5275590551181102,"duration":"0.01"},{"name":"A#3","midi":58,"time":"286.24","velocity":0.4645669291338583,"duration":"0.02"},{"name":"C5","midi":72,"time":"286.24","velocity":0.33858267716535434,"duration":"0.03"},{"name":"D#5","midi":75,"time":"286.24","velocity":0.4251968503937008,"duration":"0.02"},{"name":"F#5","midi":78,"time":"286.24","velocity":0.2992125984251969,"duration":"0.02"},{"name":"E3","midi":52,"time":"286.26","velocity":0.5433070866141733,"duration":"0.34"},{"name":"A2","midi":45,"time":"286.27","velocity":0.5196850393700787,"duration":"0.34"},{"name":"B3","midi":59,"time":"286.28","velocity":0.4409448818897638,"duration":"0.02"},{"name":"C#5","midi":73,"time":"286.28","velocity":0.3937007874015748,"duration":"0.09"},{"name":"D#5","midi":75,"time":"286.28","velocity":0.30708661417322836,"duration":"0.02"},{"name":"G#5","midi":80,"time":"286.28","velocity":0.5196850393700787,"duration":"0.72"},{"name":"C6","midi":84,"time":"286.28","velocity":0.08661417322834646,"duration":"0.05"},{"name":"E6","midi":88,"time":"286.28","velocity":0.1732283464566929,"duration":"0.10"},{"name":"C#4","midi":61,"time":"286.30","velocity":0.4094488188976378,"duration":"0.03"},{"name":"E5","midi":76,"time":"286.30","velocity":0.3228346456692913,"duration":"0.02"},{"name":"F6","midi":89,"time":"286.30","velocity":0.1968503937007874,"duration":"0.27"},{"name":"A#5","midi":82,"time":"286.31","velocity":0.1889763779527559,"duration":"0.06"},{"name":"D#5","midi":75,"time":"286.33","velocity":0.31496062992125984,"duration":"0.02"},{"name":"F5","midi":77,"time":"286.33","velocity":0.2204724409448819,"duration":"0.03"},{"name":"C7","midi":96,"time":"286.34","velocity":0.16535433070866143,"duration":"0.07"},{"name":"C#4","midi":61,"time":"286.35","velocity":0.41732283464566927,"duration":"0.02"},{"name":"F#4","midi":66,"time":"286.36","velocity":0.2283464566929134,"duration":"0.03"},{"name":"G6","midi":91,"time":"286.36","velocity":0.12598425196850394,"duration":"0.03"},{"name":"D5","midi":74,"time":"286.37","velocity":0.2440944881889764,"duration":"0.02"},{"name":"A#3","midi":58,"time":"286.38","velocity":0.4645669291338583,"duration":"0.02"},{"name":"C#4","midi":61,"time":"286.38","velocity":0.3543307086614173,"duration":"0.03"},{"name":"A#5","midi":82,"time":"286.38","velocity":0.2283464566929134,"duration":"0.02"},{"name":"C7","midi":96,"time":"286.43","velocity":0.13385826771653545,"duration":"0.10"},{"name":"A#3","midi":58,"time":"286.44","velocity":0.4881889763779528,"duration":"0.02"},{"name":"C5","midi":72,"time":"286.44","velocity":0.14173228346456693,"duration":"0.03"},{"name":"E6","midi":88,"time":"286.44","velocity":0.11811023622047244,"duration":"0.09"},{"name":"F#6","midi":90,"time":"286.44","velocity":0.15748031496062992,"duration":"0.06"},{"name":"C#4","midi":61,"time":"286.45","velocity":0.47244094488188976,"duration":"0.19"},{"name":"G6","midi":91,"time":"286.45","velocity":0.08661417322834646,"duration":"0.06"},{"name":"C#5","midi":73,"time":"286.47","velocity":0.48031496062992124,"duration":"0.42"},{"name":"A#6","midi":94,"time":"286.47","velocity":0.1732283464566929,"duration":"0.26"},{"name":"E5","midi":76,"time":"286.48","velocity":0.23622047244094488,"duration":"0.12"},{"name":"A#5","midi":82,"time":"286.48","velocity":0.13385826771653545,"duration":"0.10"},{"name":"F#7","midi":102,"time":"286.48","velocity":0.25984251968503935,"duration":"0.43"},{"name":"A#3","midi":58,"time":"286.51","velocity":0.5039370078740157,"duration":"0.02"},{"name":"F#5","midi":78,"time":"286.52","velocity":0.11023622047244094,"duration":"0.05"},{"name":"C7","midi":96,"time":"286.55","velocity":0.16535433070866143,"duration":"0.07"},{"name":"G5","midi":79,"time":"286.58","velocity":0.1889763779527559,"duration":"0.09"},{"name":"A#5","midi":82,"time":"286.59","velocity":0.25984251968503935,"duration":"0.10"},{"name":"F7","midi":101,"time":"286.59","velocity":0.29133858267716534,"duration":"1.81"},{"name":"F#3","midi":54,"time":"286.60","velocity":0.47244094488188976,"duration":"0.02"},{"name":"D#6","midi":87,"time":"286.60","velocity":0.11811023622047244,"duration":"0.03"},{"name":"D7","midi":98,"time":"286.60","velocity":0.10236220472440945,"duration":"0.07"},{"name":"D#7","midi":99,"time":"286.60","velocity":0.1732283464566929,"duration":"0.10"},{"name":"A2","midi":45,"time":"286.62","velocity":0.5511811023622047,"duration":"0.35"},{"name":"G6","midi":91,"time":"286.62","velocity":0.2204724409448819,"duration":"0.21"},{"name":"G7","midi":103,"time":"286.62","velocity":0.2677165354330709,"duration":"0.17"},{"name":"E3","midi":52,"time":"286.63","velocity":0.5354330708661418,"duration":"0.34"},{"name":"E6","midi":88,"time":"286.63","velocity":0.29133858267716534,"duration":"0.23"},{"name":"F#6","midi":90,"time":"286.63","velocity":0.29133858267716534,"duration":"0.08"},{"name":"C7","midi":96,"time":"286.63","velocity":0.11811023622047244,"duration":"0.12"},{"name":"E5","midi":76,"time":"286.64","velocity":0.30708661417322836,"duration":"0.33"},{"name":"C#4","midi":61,"time":"286.65","velocity":0.41732283464566927,"duration":"0.21"},{"name":"B6","midi":95,"time":"286.65","velocity":0.14173228346456693,"duration":"0.16"},{"name":"F6","midi":89,"time":"286.67","velocity":0.2283464566929134,"duration":"0.05"},{"name":"F#5","midi":78,"time":"286.70","velocity":0.07874015748031496,"duration":"0.03"},{"name":"B4","midi":71,"time":"286.71","velocity":0.18110236220472442,"duration":"0.08"},{"name":"A#5","midi":82,"time":"286.73","velocity":0.14960629921259844,"duration":"0.03"},{"name":"F6","midi":89,"time":"286.73","velocity":0.15748031496062992,"duration":"0.06"},{"name":"D#7","midi":99,"time":"286.73","velocity":0.12598425196850394,"duration":"0.05"},{"name":"D7","midi":98,"time":"286.77","velocity":0.10236220472440945,"duration":"0.05"},{"name":"A#5","midi":82,"time":"286.78","velocity":0.1968503937007874,"duration":"0.05"},{"name":"C7","midi":96,"time":"286.80","velocity":0.13385826771653545,"duration":"0.06"},{"name":"B6","midi":95,"time":"286.83","velocity":0.1889763779527559,"duration":"0.34"},{"name":"G5","midi":79,"time":"286.84","velocity":0.16535433070866143,"duration":"0.03"},{"name":"A#5","midi":82,"time":"286.84","velocity":0.14960629921259844,"duration":"0.08"},{"name":"D#6","midi":87,"time":"286.84","velocity":0.08661417322834646,"duration":"0.03"},{"name":"F#6","midi":90,"time":"286.85","velocity":0.10236220472440945,"duration":"0.03"},{"name":"F6","midi":89,"time":"286.86","velocity":0.1889763779527559,"duration":"0.08"},{"name":"C#4","midi":61,"time":"286.88","velocity":0.47244094488188976,"duration":"0.09"},{"name":"G6","midi":91,"time":"286.88","velocity":0.2047244094488189,"duration":"0.26"},{"name":"C#5","midi":73,"time":"286.90","velocity":0.5354330708661418,"duration":"0.38"},{"name":"F#7","midi":102,"time":"286.92","velocity":0.23622047244094488,"duration":"0.17"},{"name":"A#5","midi":82,"time":"286.93","velocity":0.1889763779527559,"duration":"0.14"},{"name":"F#6","midi":90,"time":"286.93","velocity":0.11023622047244094,"duration":"0.03"},{"name":"C7","midi":96,"time":"286.93","velocity":0.12598425196850394,"duration":"0.08"},{"name":"F#4","midi":66,"time":"286.95","velocity":0.33858267716535434,"duration":"0.03"},{"name":"C#2","midi":37,"time":"286.97","velocity":0.5511811023622047,"duration":"0.01"},{"name":"A#2","midi":46,"time":"286.97","velocity":0.5826771653543307,"duration":"0.01"},{"name":"A3","midi":57,"time":"286.97","velocity":0.4409448818897638,"duration":"0.02"},{"name":"C6","midi":84,"time":"286.97","velocity":0.2047244094488189,"duration":"0.03"},{"name":"D#6","midi":87,"time":"286.97","velocity":0.14960629921259844,"duration":"0.05"},{"name":"F6","midi":89,"time":"286.97","velocity":0.16535433070866143,"duration":"0.03"},{"name":"D7","midi":98,"time":"286.97","velocity":0.16535433070866143,"duration":"0.09"},{"name":"D#7","midi":99,"time":"286.97","velocity":0.2677165354330709,"duration":"0.20"},{"name":"F2","midi":41,"time":"286.98","velocity":0.6535433070866141,"duration":"0.02"},{"name":"E5","midi":76,"time":"286.98","velocity":0.4094488188976378,"duration":"0.74"},{"name":"G5","midi":79,"time":"286.98","velocity":0.2677165354330709,"duration":"0.02"},{"name":"B2","midi":47,"time":"286.99","velocity":0.5275590551181102,"duration":"0.01"},{"name":"F4","midi":65,"time":"286.99","velocity":0.2204724409448819,"duration":"0.05"},{"name":"E2","midi":40,"time":"287.00","velocity":0.6220472440944882,"duration":"0.01"},{"name":"G#2","midi":44,"time":"287.01","velocity":0.6299212598425197,"duration":"0.01"},{"name":"F3","midi":53,"time":"287.01","velocity":0.4566929133858268,"duration":"0.03"},{"name":"D4","midi":62,"time":"287.01","velocity":0.28346456692913385,"duration":"0.02"},{"name":"G1","midi":31,"time":"287.02","velocity":0.5196850393700787,"duration":"0.01"},{"name":"A2","midi":45,"time":"287.02","velocity":0.6062992125984252,"duration":"0.01"},{"name":"G4","midi":67,"time":"287.02","velocity":0.23622047244094488,"duration":"0.03"},{"name":"G#5","midi":80,"time":"287.02","velocity":0.36220472440944884,"duration":"0.10"},{"name":"A#2","midi":46,"time":"287.03","velocity":0.5669291338582677,"duration":"0.01"},{"name":"C#4","midi":61,"time":"287.03","velocity":0.3858267716535433,"duration":"0.30"},{"name":"A2","midi":45,"time":"287.05","velocity":0.5433070866141733,"duration":"0.01"},{"name":"D3","midi":50,"time":"287.05","velocity":0.5275590551181102,"duration":"0.01"},{"name":"G#2","midi":44,"time":"287.06","velocity":0.5826771653543307,"duration":"0.01"},{"name":"A3","midi":57,"time":"287.06","velocity":0.29133858267716534,"duration":"0.02"},{"name":"F6","midi":89,"time":"287.06","velocity":0.25984251968503935,"duration":"0.12"},{"name":"G#6","midi":92,"time":"287.06","velocity":0.3937007874015748,"duration":"1.65"},{"name":"A#1","midi":34,"time":"287.07","velocity":0.3858267716535433,"duration":"0.02"},{"name":"A2","midi":45,"time":"287.07","velocity":0.5984251968503937,"duration":"0.27"},{"name":"A#6","midi":94,"time":"287.07","velocity":0.11811023622047244,"duration":"0.03"},{"name":"E4","midi":64,"time":"287.08","velocity":0.1968503937007874,"duration":"0.05"},{"name":"F#5","midi":78,"time":"287.08","velocity":0.07086614173228346,"duration":"0.03"},{"name":"B5","midi":83,"time":"287.08","velocity":0.1889763779527559,"duration":"0.08"},{"name":"G5","midi":79,"time":"287.10","velocity":0.1968503937007874,"duration":"0.10"},{"name":"F#7","midi":102,"time":"287.12","velocity":0.16535433070866143,"duration":"0.06"},{"name":"E3","midi":52,"time":"287.13","velocity":0.3779527559055118,"duration":"0.02"},{"name":"G1","midi":31,"time":"287.14","velocity":0.3779527559055118,"duration":"0.02"},{"name":"E3","midi":52,"time":"287.16","velocity":0.3700787401574803,"duration":"0.02"},{"name":"G#5","midi":80,"time":"287.16","velocity":0.2677165354330709,"duration":"0.07"},{"name":"G1","midi":31,"time":"287.17","velocity":0.33858267716535434,"duration":"0.03"},{"name":"A#5","midi":82,"time":"287.17","velocity":0.14960629921259844,"duration":"0.06"},{"name":"F#6","midi":90,"time":"287.17","velocity":0.09448818897637795,"duration":"0.05"},{"name":"G7","midi":103,"time":"287.17","velocity":0.25196850393700787,"duration":"0.35"},{"name":"E3","midi":52,"time":"287.20","velocity":0.3937007874015748,"duration":"0.12"},{"name":"F#7","midi":102,"time":"287.21","velocity":0.2755905511811024,"duration":"0.65"},{"name":"B6","midi":95,"time":"287.22","velocity":0.2047244094488189,"duration":"0.19"},{"name":"F#5","midi":78,"time":"287.23","velocity":0.11811023622047244,"duration":"0.03"},{"name":"G5","midi":79,"time":"287.23","velocity":0.09448818897637795,"duration":"0.03"},{"name":"B4","midi":71,"time":"287.24","velocity":0.14960629921259844,"duration":"0.07"},{"name":"F6","midi":89,"time":"287.24","velocity":0.1968503937007874,"duration":"0.13"},{"name":"G#5","midi":80,"time":"287.26","velocity":0.3700787401574803,"duration":"0.22"},{"name":"A#5","midi":82,"time":"287.27","velocity":0.07086614173228346,"duration":"0.05"},{"name":"A#6","midi":94,"time":"287.27","velocity":0.1889763779527559,"duration":"0.23"},{"name":"C#5","midi":73,"time":"287.29","velocity":0.47244094488188976,"duration":"0.44"},{"name":"F#4","midi":66,"time":"287.33","velocity":0.3858267716535433,"duration":"0.05"},{"name":"C2","midi":36,"time":"287.34","velocity":0.5984251968503937,"duration":"0.01"},{"name":"B5","midi":83,"time":"287.34","velocity":0.2204724409448819,"duration":"0.09"},{"name":"F#6","midi":90,"time":"287.34","velocity":0.1732283464566929,"duration":"0.16"},{"name":"G6","midi":91,"time":"287.34","velocity":0.2047244094488189,"duration":"0.09"},{"name":"A6","midi":93,"time":"287.34","velocity":0.1732283464566929,"duration":"0.03"},{"name":"C7","midi":96,"time":"287.34","velocity":0.11023622047244094,"duration":"0.10"},{"name":"D7","midi":98,"time":"287.34","velocity":0.09448818897637795,"duration":"0.03"},{"name":"D#7","midi":99,"time":"287.34","velocity":0.18110236220472442,"duration":"0.17"},{"name":"E2","midi":40,"time":"287.35","velocity":0.6614173228346457,"duration":"0.05"},{"name":"B2","midi":47,"time":"287.36","velocity":0.5905511811023622,"duration":"0.01"},{"name":"C#4","midi":61,"time":"287.36","velocity":0.30708661417322836,"duration":"0.02"},{"name":"G#2","midi":44,"time":"287.38","velocity":0.5511811023622047,"duration":"0.01"},{"name":"D4","midi":62,"time":"287.38","velocity":0.36220472440944884,"duration":"0.02"},{"name":"F6","midi":89,"time":"287.38","velocity":0.1968503937007874,"duration":"0.12"},{"name":"C2","midi":36,"time":"287.40","velocity":0.5275590551181102,"duration":"0.02"},{"name":"A2","midi":45,"time":"287.40","velocity":0.5905511811023622,"duration":"0.31"},{"name":"C#4","midi":61,"time":"287.41","velocity":0.5039370078740157,"duration":"0.30"},{"name":"A#5","midi":82,"time":"287.41","velocity":0.16535433070866143,"duration":"0.06"},{"name":"D#3","midi":51,"time":"287.42","velocity":0.5118110236220472,"duration":"0.01"},{"name":"E3","midi":52,"time":"287.43","velocity":0.4330708661417323,"duration":"0.05"},{"name":"D6","midi":86,"time":"287.43","velocity":0.14960629921259844,"duration":"0.03"},{"name":"G6","midi":91,"time":"287.48","velocity":0.14173228346456693,"duration":"0.09"},{"name":"E1","midi":28,"time":"287.49","velocity":0.3779527559055118,"duration":"0.02"},{"name":"E3","midi":52,"time":"287.49","velocity":0.44881889763779526,"duration":"0.22"},{"name":"G#5","midi":80,"time":"287.51","velocity":0.4094488188976378,"duration":"0.16"},{"name":"B5","midi":83,"time":"287.51","velocity":0.13385826771653545,"duration":"0.20"},{"name":"C6","midi":84,"time":"287.53","velocity":0.07086614173228346,"duration":"0.03"},{"name":"F1","midi":29,"time":"287.55","velocity":0.28346456692913385,"duration":"0.02"},{"name":"A#5","midi":82,"time":"287.55","velocity":0.14960629921259844,"duration":"0.05"},{"name":"F6","midi":89,"time":"287.55","velocity":0.10236220472440945,"duration":"0.03"},{"name":"C7","midi":96,"time":"287.55","velocity":0.09448818897637795,"duration":"0.09"},{"name":"G7","midi":103,"time":"287.56","velocity":0.2204724409448819,"duration":"0.09"},{"name":"B4","midi":71,"time":"287.58","velocity":0.09448818897637795,"duration":"0.03"},{"name":"A#6","midi":94,"time":"287.59","velocity":0.11811023622047244,"duration":"0.12"},{"name":"A#5","midi":82,"time":"287.60","velocity":0.09448818897637795,"duration":"0.07"},{"name":"D#6","midi":87,"time":"287.62","velocity":0.07086614173228346,"duration":"0.03"},{"name":"G#1","midi":32,"time":"287.63","velocity":0.25196850393700787,"duration":"0.02"},{"name":"F#6","midi":90,"time":"287.65","velocity":0.10236220472440945,"duration":"0.05"},{"name":"G#5","midi":80,"time":"287.69","velocity":0.4015748031496063,"duration":"0.09"},{"name":"G7","midi":103,"time":"287.69","velocity":0.23622047244094488,"duration":"0.08"},{"name":"F4","midi":65,"time":"287.71","velocity":0.5511811023622047,"duration":"0.02"},{"name":"A#5","midi":82,"time":"287.71","velocity":0.31496062992125984,"duration":"0.05"},{"name":"D6","midi":86,"time":"287.71","velocity":0.2755905511811024,"duration":"0.03"},{"name":"D#6","midi":87,"time":"287.71","velocity":0.2125984251968504,"duration":"0.05"},{"name":"F#6","midi":90,"time":"287.71","velocity":0.33070866141732286,"duration":"0.27"},{"name":"B6","midi":95,"time":"287.71","velocity":0.25984251968503935,"duration":"0.42"},{"name":"C7","midi":96,"time":"287.71","velocity":0.2677165354330709,"duration":"0.03"},{"name":"F2","midi":41,"time":"287.72","velocity":0.4409448818897638,"duration":"0.02"},{"name":"G#4","midi":68,"time":"287.72","velocity":0.5196850393700787,"duration":"0.01"},{"name":"G6","midi":91,"time":"287.72","velocity":0.2047244094488189,"duration":"0.05"},{"name":"E4","midi":64,"time":"287.73","velocity":0.41732283464566927,"duration":"0.02"},{"name":"A4","midi":69,"time":"287.73","velocity":0.5354330708661418,"duration":"0.01"},{"name":"D#5","midi":75,"time":"287.73","velocity":0.33070866141732286,"duration":"0.03"},{"name":"F#5","midi":78,"time":"287.73","velocity":0.3228346456692913,"duration":"0.03"},{"name":"C6","midi":84,"time":"287.73","velocity":0.2677165354330709,"duration":"0.06"},{"name":"C#6","midi":85,"time":"287.73","velocity":0.4330708661417323,"duration":"2.26"},{"name":"E2","midi":40,"time":"287.74","velocity":0.47244094488188976,"duration":"0.02"},{"name":"C#4","midi":61,"time":"287.74","velocity":0.4409448818897638,"duration":"0.23"},{"name":"A#4","midi":70,"time":"287.74","velocity":0.5039370078740157,"duration":"0.05"},{"name":"C5","midi":72,"time":"287.74","velocity":0.3858267716535433,"duration":"0.02"},{"name":"C#5","midi":73,"time":"287.76","velocity":0.5748031496062992,"duration":"0.88"},{"name":"D6","midi":86,"time":"287.76","velocity":0.1889763779527559,"duration":"0.09"},{"name":"G#2","midi":44,"time":"287.77","velocity":0.5511811023622047,"duration":"0.01"},{"name":"E3","midi":52,"time":"287.77","velocity":0.4251968503937008,"duration":"0.03"},{"name":"E5","midi":76,"time":"287.77","velocity":0.3937007874015748,"duration":"0.05"},{"name":"A2","midi":45,"time":"287.78","velocity":0.5748031496062992,"duration":"0.33"},{"name":"F#4","midi":66,"time":"287.78","velocity":0.29133858267716534,"duration":"0.02"},{"name":"G#4","midi":68,"time":"287.78","velocity":0.4330708661417323,"duration":"0.02"},{"name":"G6","midi":91,"time":"287.78","velocity":0.12598425196850394,"duration":"0.09"},{"name":"B5","midi":83,"time":"287.79","velocity":0.14960629921259844,"duration":"0.07"},{"name":"A4","midi":69,"time":"287.80","velocity":0.4881889763779528,"duration":"0.66"},{"name":"D#6","midi":87,"time":"287.80","velocity":0.2283464566929134,"duration":"0.03"},{"name":"E4","midi":64,"time":"287.81","velocity":0.25984251968503935,"duration":"0.02"},{"name":"G#5","midi":80,"time":"287.81","velocity":0.3543307086614173,"duration":"0.06"},{"name":"F6","midi":89,"time":"287.81","velocity":0.2047244094488189,"duration":"0.22"},{"name":"E5","midi":76,"time":"287.83","velocity":0.3937007874015748,"duration":"0.07"},{"name":"F#4","midi":66,"time":"287.84","velocity":0.23622047244094488,"duration":"0.03"},{"name":"D#7","midi":99,"time":"287.84","velocity":0.11023622047244094,"duration":"0.14"},{"name":"E3","midi":52,"time":"287.86","velocity":0.3858267716535433,"duration":"0.05"},{"name":"A#6","midi":94,"time":"287.87","velocity":0.12598425196850394,"duration":"0.08"},{"name":"A#3","midi":58,"time":"287.88","velocity":0.3937007874015748,"duration":"0.02"},{"name":"G5","midi":79,"time":"287.88","velocity":0.2125984251968504,"duration":"0.05"},{"name":"G#5","midi":80,"time":"287.88","velocity":0.2440944881889764,"duration":"0.03"},{"name":"A#5","midi":82,"time":"287.90","velocity":0.14960629921259844,"duration":"0.03"},{"name":"G7","midi":103,"time":"287.90","velocity":0.1732283464566929,"duration":"0.05"},{"name":"F#4","midi":66,"time":"287.91","velocity":0.1732283464566929,"duration":"0.03"},{"name":"D#5","midi":75,"time":"287.91","velocity":0.18110236220472442,"duration":"0.03"},{"name":"F5","midi":77,"time":"287.91","velocity":0.13385826771653545,"duration":"0.03"},{"name":"B5","midi":83,"time":"287.92","velocity":0.18110236220472442,"duration":"0.05"},{"name":"E3","midi":52,"time":"287.93","velocity":0.4015748031496063,"duration":"0.05"},{"name":"G#5","midi":80,"time":"287.93","velocity":0.44881889763779526,"duration":"0.23"},{"name":"G7","midi":103,"time":"287.97","velocity":0.15748031496062992,"duration":"0.07"},{"name":"F#6","midi":90,"time":"287.99","velocity":0.12598425196850394,"duration":"0.03"},{"name":"A6","midi":93,"time":"287.99","velocity":0.12598425196850394,"duration":"0.06"},{"name":"E3","midi":52,"time":"288.00","velocity":0.3700787401574803,"duration":"0.02"},{"name":"A#3","midi":58,"time":"288.00","velocity":0.4094488188976378,"duration":"0.02"},{"name":"E5","midi":76,"time":"288.01","velocity":0.14960629921259844,"duration":"0.10"},{"name":"E4","midi":64,"time":"288.02","velocity":0.11811023622047244,"duration":"0.05"},{"name":"E3","midi":52,"time":"288.03","velocity":0.33070866141732286,"duration":"0.03"},{"name":"F3","midi":53,"time":"288.08","velocity":0.3858267716535433,"duration":"0.02"},{"name":"A#3","midi":58,"time":"288.08","velocity":0.30708661417322836,"duration":"0.02"},{"name":"F6","midi":89,"time":"288.08","velocity":0.14173228346456693,"duration":"0.08"},{"name":"C#4","midi":61,"time":"288.09","velocity":0.41732283464566927,"duration":"0.05"},{"name":"F#4","midi":66,"time":"288.09","velocity":0.16535433070866143,"duration":"0.03"},{"name":"C6","midi":84,"time":"288.09","velocity":0.07874015748031496,"duration":"0.05"},{"name":"A#6","midi":94,"time":"288.09","velocity":0.1732283464566929,"duration":"0.09"},{"name":"B4","midi":71,"time":"288.10","velocity":0.2440944881889764,"duration":"0.02"},{"name":"G6","midi":91,"time":"288.10","velocity":0.28346456692913385,"duration":"0.16"},{"name":"A2","midi":45,"time":"288.12","velocity":0.6377952755905512,"duration":"0.36"},{"name":"C7","midi":96,"time":"288.12","velocity":0.14960629921259844,"duration":"0.10"},{"name":"D#7","midi":99,"time":"288.12","velocity":0.2204724409448819,"duration":"0.09"},{"name":"E3","midi":52,"time":"288.13","velocity":0.4015748031496063,"duration":"0.19"},{"name":"E5","midi":76,"time":"288.13","velocity":0.18110236220472442,"duration":"0.05"},{"name":"F#6","midi":90,"time":"288.13","velocity":0.2047244094488189,"duration":"0.06"},{"name":"C4","midi":60,"time":"288.14","velocity":0.25196850393700787,"duration":"0.02"},{"name":"G5","midi":79,"time":"288.14","velocity":0.1968503937007874,"duration":"0.17"},{"name":"C#4","midi":61,"time":"288.16","velocity":0.4330708661417323,"duration":"0.28"},{"name":"A#5","midi":82,"time":"288.16","velocity":0.16535433070866143,"duration":"0.06"},{"name":"D#6","midi":87,"time":"288.17","velocity":0.08661417322834646,"duration":"0.07"},{"name":"E6","midi":88,"time":"288.19","velocity":0.16535433070866143,"duration":"0.07"},{"name":"E5","midi":76,"time":"288.21","velocity":0.2440944881889764,"duration":"0.17"},{"name":"B5","midi":83,"time":"288.23","velocity":0.10236220472440945,"duration":"0.09"},{"name":"A#6","midi":94,"time":"288.23","velocity":0.08661417322834646,"duration":"0.03"},{"name":"F#7","midi":102,"time":"288.26","velocity":0.2283464566929134,"duration":"0.56"},{"name":"F6","midi":89,"time":"288.27","velocity":0.12598425196850394,"duration":"0.03"},{"name":"D#6","midi":87,"time":"288.28","velocity":0.12598425196850394,"duration":"0.05"},{"name":"G#5","midi":80,"time":"288.29","velocity":0.33070866141732286,"duration":"0.17"},{"name":"C7","midi":96,"time":"288.29","velocity":0.14960629921259844,"duration":"0.21"},{"name":"G6","midi":91,"time":"288.33","velocity":0.11023622047244094,"duration":"0.06"},{"name":"A#6","midi":94,"time":"288.35","velocity":0.11023622047244094,"duration":"0.06"},{"name":"B6","midi":95,"time":"288.35","velocity":0.11023622047244094,"duration":"0.10"},{"name":"E3","midi":52,"time":"288.36","velocity":0.3228346456692913,"duration":"0.02"},{"name":"F6","midi":89,"time":"288.36","velocity":0.18110236220472442,"duration":"0.05"},{"name":"F#6","midi":90,"time":"288.37","velocity":0.07874015748031496,"duration":"0.05"},{"name":"D#6","midi":87,"time":"288.38","velocity":0.07874015748031496,"duration":"0.03"},{"name":"B4","midi":71,"time":"288.41","velocity":0.11811023622047244,"duration":"0.03"},{"name":"B5","midi":83,"time":"288.42","velocity":0.11811023622047244,"duration":"0.05"},{"name":"F7","midi":101,"time":"288.43","velocity":0.29133858267716534,"duration":"0.33"},{"name":"G6","midi":91,"time":"288.45","velocity":0.2204724409448819,"duration":"0.30"},{"name":"A#3","midi":58,"time":"288.47","velocity":0.3779527559055118,"duration":"0.02"},{"name":"F#4","midi":66,"time":"288.47","velocity":0.3858267716535433,"duration":"0.02"},{"name":"E5","midi":76,"time":"288.47","velocity":0.31496062992125984,"duration":"0.26"},{"name":"G5","midi":79,"time":"288.47","velocity":0.25196850393700787,"duration":"0.05"},{"name":"C6","midi":84,"time":"288.47","velocity":0.16535433070866143,"duration":"0.05"},{"name":"D6","midi":86,"time":"288.47","velocity":0.2047244094488189,"duration":"0.07"},{"name":"A#6","midi":94,"time":"288.47","velocity":0.14960629921259844,"duration":"0.14"},{"name":"B6","midi":95,"time":"288.47","velocity":0.13385826771653545,"duration":"0.07"},{"name":"D#7","midi":99,"time":"288.47","velocity":0.25196850393700787,"duration":"0.17"},{"name":"E7","midi":100,"time":"288.47","velocity":0.14960629921259844,"duration":"0.05"},{"name":"F2","midi":41,"time":"288.48","velocity":0.6771653543307087,"duration":"0.01"},{"name":"A4","midi":69,"time":"288.48","velocity":0.36220472440944884,"duration":"0.38"},{"name":"E2","midi":40,"time":"288.49","velocity":0.6220472440944882,"duration":"0.01"},{"name":"B5","midi":83,"time":"288.49","velocity":0.11811023622047244,"duration":"0.05"},{"name":"D#2","midi":39,"time":"288.50","velocity":0.5984251968503937,"duration":"0.01"},{"name":"G#5","midi":80,"time":"288.50","velocity":0.3858267716535433,"duration":"0.19"},{"name":"E2","midi":40,"time":"288.51","velocity":0.5511811023622047,"duration":"0.01"},{"name":"C#4","midi":61,"time":"288.51","velocity":0.5275590551181102,"duration":"0.52"},{"name":"F#6","midi":90,"time":"288.51","velocity":0.1732283464566929,"duration":"0.07"},{"name":"C2","midi":36,"time":"288.52","velocity":0.5354330708661418,"duration":"0.01"},{"name":"F3","midi":53,"time":"288.52","velocity":0.5354330708661418,"duration":"0.02"},{"name":"A3","midi":57,"time":"288.52","velocity":0.4409448818897638,"duration":"0.06"},{"name":"B1","midi":35,"time":"288.53","velocity":0.5433070866141733,"duration":"0.01"},{"name":"D#3","midi":51,"time":"288.55","velocity":0.5748031496062992,"duration":"0.02"},{"name":"B6","midi":95,"time":"288.55","velocity":0.12598425196850394,"duration":"0.07"},{"name":"E3","midi":52,"time":"288.57","velocity":0.5196850393700787,"duration":"0.28"},{"name":"A2","midi":45,"time":"288.59","velocity":0.5354330708661418,"duration":"0.26"},{"name":"F#5","midi":78,"time":"288.59","velocity":0.12598425196850394,"duration":"0.05"},{"name":"F#6","midi":90,"time":"288.60","velocity":0.16535433070866143,"duration":"0.06"},{"name":"F5","midi":77,"time":"288.64","velocity":0.14960629921259844,"duration":"0.06"},{"name":"B5","midi":83,"time":"288.64","velocity":0.11023622047244094,"duration":"0.06"},{"name":"A#5","midi":82,"time":"288.66","velocity":0.14960629921259844,"duration":"0.05"},{"name":"F6","midi":89,"time":"288.66","velocity":0.15748031496062992,"duration":"0.08"},{"name":"B6","midi":95,"time":"288.67","velocity":0.11023622047244094,"duration":"0.03"},{"name":"G1","midi":31,"time":"288.69","velocity":0.3779527559055118,"duration":"0.02"},{"name":"G#5","midi":80,"time":"288.70","velocity":0.4094488188976378,"duration":"0.22"},{"name":"C7","midi":96,"time":"288.72","velocity":0.08661417322834646,"duration":"0.05"},{"name":"F#6","midi":90,"time":"288.73","velocity":0.08661417322834646,"duration":"0.10"},{"name":"B6","midi":95,"time":"288.73","velocity":0.1889763779527559,"duration":"0.20"},{"name":"G#1","midi":32,"time":"288.74","velocity":0.31496062992125984,"duration":"0.03"},{"name":"A#5","midi":82,"time":"288.74","velocity":0.14173228346456693,"duration":"0.08"},{"name":"E5","midi":76,"time":"288.76","velocity":0.2992125984251969,"duration":"0.37"},{"name":"F6","midi":89,"time":"288.76","velocity":0.14173228346456693,"duration":"0.03"},{"name":"G7","midi":103,"time":"288.79","velocity":0.25196850393700787,"duration":"0.23"},{"name":"F6","midi":89,"time":"288.80","velocity":0.11811023622047244,"duration":"0.08"},{"name":"F7","midi":101,"time":"288.80","velocity":0.33070866141732286,"duration":"0.59"},{"name":"F#7","midi":102,"time":"288.83","velocity":0.2047244094488189,"duration":"0.15"},{"name":"D#6","midi":87,"time":"288.85","velocity":0.12598425196850394,"duration":"0.05"},{"name":"E2","midi":40,"time":"288.86","velocity":0.3858267716535433,"duration":"0.02"},{"name":"A#2","midi":46,"time":"288.86","velocity":0.4881889763779528,"duration":"0.03"},{"name":"F#5","midi":78,"time":"288.86","velocity":0.12598425196850394,"duration":"0.05"},{"name":"G6","midi":91,"time":"288.86","velocity":0.2440944881889764,"duration":"0.02"},{"name":"D#7","midi":99,"time":"288.86","velocity":0.2047244094488189,"duration":"0.20"},{"name":"E3","midi":52,"time":"288.87","velocity":0.44881889763779526,"duration":"0.19"},{"name":"A4","midi":69,"time":"288.87","velocity":0.36220472440944884,"duration":"0.34"},{"name":"B5","midi":83,"time":"288.87","velocity":0.10236220472440945,"duration":"0.21"},{"name":"E6","midi":88,"time":"288.87","velocity":0.3228346456692913,"duration":"0.21"},{"name":"A3","midi":57,"time":"288.88","velocity":0.33070866141732286,"duration":"0.02"},{"name":"F#6","midi":90,"time":"288.88","velocity":0.2440944881889764,"duration":"0.06"},{"name":"A#6","midi":94,"time":"288.88","velocity":0.07086614173228346,"duration":"0.03"},{"name":"A2","midi":45,"time":"288.90","velocity":0.5748031496062992,"duration":"0.34"},{"name":"G6","midi":91,"time":"288.90","velocity":0.14173228346456693,"duration":"0.08"},{"name":"C7","midi":96,"time":"288.90","velocity":0.10236220472440945,"duration":"0.06"},{"name":"A5","midi":81,"time":"288.91","velocity":0.3779527559055118,"duration":"0.22"},{"name":"G#5","midi":80,"time":"288.93","velocity":0.36220472440944884,"duration":"0.12"},{"name":"A#6","midi":94,"time":"288.93","velocity":0.10236220472440945,"duration":"0.08"},{"name":"B6","midi":95,"time":"288.97","velocity":0.14173228346456693,"duration":"0.05"},{"name":"B4","midi":71,"time":"288.98","velocity":0.16535433070866143,"duration":"0.08"},{"name":"A#5","midi":82,"time":"288.98","velocity":0.07874015748031496,"duration":"0.05"},{"name":"F#7","midi":102,"time":"289.00","velocity":0.23622047244094488,"duration":"0.93"},{"name":"G7","midi":103,"time":"289.05","velocity":0.16535433070866143,"duration":"0.15"},{"name":"C#4","midi":61,"time":"289.06","velocity":0.4094488188976378,"duration":"0.14"},{"name":"G#5","midi":80,"time":"289.06","velocity":0.25984251968503935,"duration":"0.03"},{"name":"F6","midi":89,"time":"289.06","velocity":0.12598425196850394,"duration":"0.06"},{"name":"E3","midi":52,"time":"289.07","velocity":0.28346456692913385,"duration":"0.02"},{"name":"A#5","midi":82,"time":"289.07","velocity":0.07086614173228346,"duration":"0.09"},{"name":"G4","midi":67,"time":"289.09","velocity":0.11023622047244094,"duration":"0.10"},{"name":"G#5","midi":80,"time":"289.10","velocity":0.3700787401574803,"duration":"0.10"},{"name":"G6","midi":91,"time":"289.12","velocity":0.09448818897637795,"duration":"0.03"},{"name":"B6","midi":95,"time":"289.13","velocity":0.2283464566929134,"duration":"0.33"},{"name":"A6","midi":93,"time":"289.15","velocity":0.11023622047244094,"duration":"0.03"},{"name":"A#6","midi":94,"time":"289.15","velocity":0.28346456692913385,"duration":"0.15"},{"name":"A#5","midi":82,"time":"289.20","velocity":0.30708661417322836,"duration":"0.03"},{"name":"G6","midi":91,"time":"289.20","velocity":0.2677165354330709,"duration":"0.13"},{"name":"C7","midi":96,"time":"289.20","velocity":0.25196850393700787,"duration":"0.19"},{"name":"G#4","midi":68,"time":"289.21","velocity":0.5590551181102362,"duration":"0.02"},{"name":"E5","midi":76,"time":"289.21","velocity":0.3937007874015748,"duration":"0.07"},{"name":"G5","midi":79,"time":"289.21","velocity":0.3228346456692913,"duration":"0.03"},{"name":"A5","midi":81,"time":"289.21","velocity":0.3937007874015748,"duration":"0.05"},{"name":"C6","midi":84,"time":"289.21","velocity":0.2755905511811024,"duration":"0.03"},{"name":"D6","midi":86,"time":"289.21","velocity":0.29133858267716534,"duration":"0.10"},{"name":"F#6","midi":90,"time":"289.21","velocity":0.2440944881889764,"duration":"0.08"},{"name":"D#7","midi":99,"time":"289.21","velocity":0.1968503937007874,"duration":"0.15"},{"name":"E7","midi":100,"time":"289.21","velocity":0.2047244094488189,"duration":"0.09"},{"name":"E4","midi":64,"time":"289.22","velocity":0.49606299212598426,"duration":"0.02"},{"name":"A#4","midi":70,"time":"289.22","velocity":0.5354330708661418,"duration":"0.06"},{"name":"A#2","midi":46,"time":"289.23","velocity":0.41732283464566927,"duration":"0.02"},{"name":"A3","midi":57,"time":"289.23","velocity":0.5275590551181102,"duration":"0.02"},{"name":"C#4","midi":61,"time":"289.23","velocity":0.4881889763779528,"duration":"0.02"},{"name":"E3","midi":52,"time":"289.24","velocity":0.49606299212598426,"duration":"0.06"},{"name":"F4","midi":65,"time":"289.24","velocity":0.3543307086614173,"duration":"0.03"},{"name":"F#5","midi":78,"time":"289.24","velocity":0.2204724409448819,"duration":"0.03"},{"name":"B5","midi":83,"time":"289.24","velocity":0.30708661417322836,"duration":"0.10"},{"name":"A2","midi":45,"time":"289.26","velocity":0.5511811023622047,"duration":"0.34"},{"name":"C4","midi":60,"time":"289.26","velocity":0.4330708661417323,"duration":"0.02"},{"name":"C#5","midi":73,"time":"289.26","velocity":0.5669291338582677,"duration":"0.66"},{"name":"F1","midi":29,"time":"289.27","velocity":0.2283464566929134,"duration":"0.02"},{"name":"A4","midi":69,"time":"289.27","velocity":0.4881889763779528,"duration":"1.07"},{"name":"F#4","midi":66,"time":"289.28","velocity":0.36220472440944884,"duration":"0.08"},{"name":"F5","midi":77,"time":"289.28","velocity":0.2755905511811024,"duration":"0.03"},{"name":"A6","midi":93,"time":"289.29","velocity":0.16535433070866143,"duration":"0.05"},{"name":"E5","midi":76,"time":"289.30","velocity":0.23622047244094488,"duration":"0.02"},{"name":"F#6","midi":90,"time":"289.30","velocity":0.18110236220472442,"duration":"0.09"},{"name":"E3","midi":52,"time":"289.31","velocity":0.5196850393700787,"duration":"0.28"},{"name":"D#5","midi":75,"time":"289.31","velocity":0.28346456692913385,"duration":"0.07"},{"name":"F6","midi":89,"time":"289.31","velocity":0.14960629921259844,"duration":"0.07"},{"name":"A#3","midi":58,"time":"289.33","velocity":0.3937007874015748,"duration":"0.02"},{"name":"C#4","midi":61,"time":"289.34","velocity":0.3543307086614173,"duration":"0.03"},{"name":"C6","midi":84,"time":"289.35","velocity":0.13385826771653545,"duration":"0.03"},{"name":"A6","midi":93,"time":"289.35","velocity":0.14960629921259844,"duration":"0.05"},{"name":"G5","midi":79,"time":"289.36","velocity":0.18110236220472442,"duration":"0.03"},{"name":"A#3","midi":58,"time":"289.37","velocity":0.47244094488188976,"duration":"0.09"},{"name":"E5","midi":76,"time":"289.38","velocity":0.2047244094488189,"duration":"0.08"},{"name":"G7","midi":103,"time":"289.38","velocity":0.1732283464566929,"duration":"0.06"},{"name":"F#5","midi":78,"time":"289.40","velocity":0.1889763779527559,"duration":"0.05"},{"name":"B5","midi":83,"time":"289.40","velocity":0.1968503937007874,"duration":"0.09"},{"name":"A#5","midi":82,"time":"289.41","velocity":0.1732283464566929,"duration":"0.08"},{"name":"F6","midi":89,"time":"289.41","velocity":0.2125984251968504,"duration":"0.12"},{"name":"G6","midi":91,"time":"289.41","velocity":0.15748031496062992,"duration":"0.09"},{"name":"F7","midi":101,"time":"289.41","velocity":0.3700787401574803,"duration":"0.43"},{"name":"D#6","midi":87,"time":"289.42","velocity":0.14173228346456693,"duration":"0.10"},{"name":"C7","midi":96,"time":"289.42","velocity":0.09448818897637795,"duration":"0.08"},{"name":"A6","midi":93,"time":"289.43","velocity":0.11811023622047244,"duration":"0.08"},{"name":"C#4","midi":61,"time":"289.45","velocity":0.47244094488188976,"duration":"0.19"},{"name":"A1","midi":33,"time":"289.47","velocity":0.25196850393700787,"duration":"0.02"},{"name":"G7","midi":103,"time":"289.47","velocity":0.2204724409448819,"duration":"0.10"},{"name":"D#5","midi":75,"time":"289.48","velocity":0.16535433070866143,"duration":"0.03"},{"name":"A#3","midi":58,"time":"289.49","velocity":0.44881889763779526,"duration":"0.03"},{"name":"A#5","midi":82,"time":"289.50","velocity":0.18110236220472442,"duration":"0.19"},{"name":"G6","midi":91,"time":"289.51","velocity":0.10236220472440945,"duration":"0.05"},{"name":"B6","midi":95,"time":"289.51","velocity":0.18110236220472442,"duration":"0.08"},{"name":"F#6","midi":90,"time":"289.52","velocity":0.11811023622047244,"duration":"0.07"},{"name":"F6","midi":89,"time":"289.53","velocity":0.2755905511811024,"duration":"0.09"},{"name":"A6","midi":93,"time":"289.53","velocity":0.25196850393700787,"duration":"0.16"},{"name":"C7","midi":96,"time":"289.53","velocity":0.07874015748031496,"duration":"0.03"},{"name":"E5","midi":76,"time":"289.56","velocity":0.14173228346456693,"duration":"0.06"},{"name":"G#2","midi":44,"time":"289.59","velocity":0.4881889763779528,"duration":"0.02"},{"name":"F3","midi":53,"time":"289.59","velocity":0.4645669291338583,"duration":"0.03"},{"name":"G5","midi":79,"time":"289.59","velocity":0.1732283464566929,"duration":"0.05"},{"name":"C7","midi":96,"time":"289.59","velocity":0.14173228346456693,"duration":"0.07"},{"name":"B5","midi":83,"time":"289.60","velocity":0.08661417322834646,"duration":"0.03"},{"name":"G6","midi":91,"time":"289.60","velocity":0.18110236220472442,"duration":"0.22"},{"name":"G7","midi":103,"time":"289.60","velocity":0.2283464566929134,"duration":"0.22"},{"name":"A3","midi":57,"time":"289.62","velocity":0.4645669291338583,"duration":"0.35"},{"name":"G#5","midi":80,"time":"289.62","velocity":0.44881889763779526,"duration":"0.20"},{"name":"E6","midi":88,"time":"289.62","velocity":0.30708661417322836,"duration":"0.07"},{"name":"B6","midi":95,"time":"289.62","velocity":0.15748031496062992,"duration":"0.13"},{"name":"D#7","midi":99,"time":"289.62","velocity":0.1732283464566929,"duration":"0.13"},{"name":"G2","midi":43,"time":"289.63","velocity":0.5590551181102362,"duration":"0.01"},{"name":"E3","midi":52,"time":"289.63","velocity":0.48031496062992124,"duration":"0.33"},{"name":"E5","midi":76,"time":"289.63","velocity":0.3543307086614173,"duration":"0.34"},{"name":"F#6","midi":90,"time":"289.63","velocity":0.18110236220472442,"duration":"0.12"},{"name":"A2","midi":45,"time":"289.64","velocity":0.5984251968503937,"duration":"0.33"},{"name":"C#4","midi":61,"time":"289.69","velocity":0.30708661417322836,"duration":"0.08"},{"name":"F6","midi":89,"time":"289.69","velocity":0.18110236220472442,"duration":"0.03"},{"name":"D#6","midi":87,"time":"289.70","velocity":0.12598425196850394,"duration":"0.07"},{"name":"A#6","midi":94,"time":"289.70","velocity":0.10236220472440945,"duration":"0.06"},{"name":"A#5","midi":82,"time":"289.74","velocity":0.07086614173228346,"duration":"0.03"},{"name":"F6","midi":89,"time":"289.74","velocity":0.23622047244094488,"duration":"0.13"},{"name":"B6","midi":95,"time":"289.77","velocity":0.08661417322834646,"duration":"0.06"},{"name":"B4","midi":71,"time":"289.78","velocity":0.08661417322834646,"duration":"0.03"},{"name":"C#4","midi":61,"time":"289.80","velocity":0.4251968503937008,"duration":"0.20"},{"name":"A#5","midi":82,"time":"289.80","velocity":0.07086614173228346,"duration":"0.03"},{"name":"F#6","midi":90,"time":"289.80","velocity":0.07874015748031496,"duration":"0.03"},{"name":"G#5","midi":80,"time":"289.83","velocity":0.3779527559055118,"duration":"0.17"},{"name":"B6","midi":95,"time":"289.85","velocity":0.15748031496062992,"duration":"0.19"},{"name":"G7","midi":103,"time":"289.85","velocity":0.07086614173228346,"duration":"0.03"},{"name":"A#5","midi":82,"time":"289.87","velocity":0.10236220472440945,"duration":"0.08"},{"name":"G7","midi":103,"time":"289.90","velocity":0.07086614173228346,"duration":"0.03"},{"name":"D#6","midi":87,"time":"289.91","velocity":0.08661417322834646,"duration":"0.03"},{"name":"B5","midi":83,"time":"289.92","velocity":0.13385826771653545,"duration":"0.17"},{"name":"F6","midi":89,"time":"289.93","velocity":0.15748031496062992,"duration":"0.08"},{"name":"F#6","midi":90,"time":"289.94","velocity":0.2992125984251969,"duration":"0.20"},{"name":"A#6","midi":94,"time":"289.94","velocity":0.1889763779527559,"duration":"0.12"},{"name":"F3","midi":53,"time":"289.95","velocity":0.4330708661417323,"duration":"0.02"},{"name":"F#4","midi":66,"time":"289.95","velocity":0.41732283464566927,"duration":"0.05"},{"name":"C7","midi":96,"time":"289.95","velocity":0.12598425196850394,"duration":"0.03"},{"name":"G7","midi":103,"time":"289.95","velocity":0.2992125984251969,"duration":"0.29"},{"name":"A#2","midi":46,"time":"289.97","velocity":0.5748031496062992,"duration":"0.01"},{"name":"G5","midi":79,"time":"289.97","velocity":0.2440944881889764,"duration":"0.07"},{"name":"D#6","midi":87,"time":"289.97","velocity":0.18110236220472442,"duration":"0.05"},{"name":"D7","midi":98,"time":"289.97","velocity":0.15748031496062992,"duration":"0.05"},{"name":"F7","midi":101,"time":"289.97","velocity":0.29133858267716534,"duration":"0.12"},{"name":"F2","midi":41,"time":"289.98","velocity":0.6929133858267716,"duration":"0.03"},{"name":"D6","midi":86,"time":"289.98","velocity":0.2283464566929134,"duration":"0.03"},{"name":"C6","midi":84,"time":"289.99","velocity":0.1889763779527559,"duration":"0.05"},{"name":"E6","midi":88,"time":"290.00","velocity":0.2755905511811024,"duration":"0.35"},{"name":"G#2","midi":44,"time":"290.01","velocity":0.6299212598425197,"duration":"0.01"},{"name":"C#4","midi":61,"time":"290.01","velocity":0.4881889763779528,"duration":"0.33"},{"name":"C#6","midi":85,"time":"290.01","velocity":0.3700787401574803,"duration":"0.59"},{"name":"G#6","midi":92,"time":"290.01","velocity":0.2047244094488189,"duration":"0.17"},{"name":"F#1","midi":30,"time":"290.02","velocity":0.5669291338582677,"duration":"0.02"},{"name":"A2","midi":45,"time":"290.02","velocity":0.6299212598425197,"duration":"0.03"},{"name":"G4","midi":67,"time":"290.02","velocity":0.2992125984251969,"duration":"0.02"},{"name":"F#5","midi":78,"time":"290.03","velocity":0.16535433070866143,"duration":"0.03"},{"name":"G6","midi":91,"time":"290.03","velocity":0.14960629921259844,"duration":"0.07"},{"name":"F#4","midi":66,"time":"290.05","velocity":0.2677165354330709,"duration":"0.07"},{"name":"A#5","midi":82,"time":"290.05","velocity":0.14173228346456693,"duration":"0.03"},{"name":"G#2","midi":44,"time":"290.06","velocity":0.5984251968503937,"duration":"0.02"},{"name":"A3","midi":57,"time":"290.06","velocity":0.4330708661417323,"duration":"0.28"},{"name":"A2","midi":45,"time":"290.08","velocity":0.5984251968503937,"duration":"0.26"},{"name":"F#5","midi":78,"time":"290.08","velocity":0.2992125984251969,"duration":"0.10"},{"name":"E5","midi":76,"time":"290.09","velocity":0.4409448818897638,"duration":"0.65"},{"name":"G#5","midi":80,"time":"290.09","velocity":0.2677165354330709,"duration":"0.07"},{"name":"F7","midi":101,"time":"290.09","velocity":0.11023622047244094,"duration":"0.07"},{"name":"G4","midi":67,"time":"290.12","velocity":0.23622047244094488,"duration":"0.02"},{"name":"E3","midi":52,"time":"290.16","velocity":0.2992125984251969,"duration":"0.02"},{"name":"G1","midi":31,"time":"290.17","velocity":0.31496062992125984,"duration":"0.03"},{"name":"F#4","midi":66,"time":"290.17","velocity":0.2440944881889764,"duration":"0.05"},{"name":"D6","midi":86,"time":"290.19","velocity":0.12598425196850394,"duration":"0.05"},{"name":"E3","midi":52,"time":"290.20","velocity":0.30708661417322836,"duration":"0.02"},{"name":"B4","midi":71,"time":"290.20","velocity":0.1732283464566929,"duration":"0.15"},{"name":"F#5","midi":78,"time":"290.20","velocity":0.29133858267716534,"duration":"0.05"},{"name":"F#6","midi":90,"time":"290.20","velocity":0.4015748031496063,"duration":"1.92"},{"name":"G6","midi":91,"time":"290.20","velocity":0.15748031496062992,"duration":"0.06"},{"name":"E3","midi":52,"time":"290.23","velocity":0.33858267716535434,"duration":"0.05"},{"name":"G5","midi":79,"time":"290.23","velocity":0.23622047244094488,"duration":"0.02"},{"name":"F6","midi":89,"time":"290.23","velocity":0.11023622047244094,"duration":"0.03"},{"name":"G4","midi":67,"time":"290.24","velocity":0.2440944881889764,"duration":"0.02"},{"name":"G#5","midi":80,"time":"290.26","velocity":0.13385826771653545,"duration":"0.09"},{"name":"F#4","midi":66,"time":"290.27","velocity":0.4566929133858268,"duration":"0.14"},{"name":"G#1","midi":32,"time":"290.30","velocity":0.2677165354330709,"duration":"0.02"},{"name":"A#2","midi":46,"time":"290.34","velocity":0.5118110236220472,"duration":"0.01"},{"name":"A#5","midi":82,"time":"290.34","velocity":0.2125984251968504,"duration":"0.05"},{"name":"F6","midi":89,"time":"290.34","velocity":0.16535433070866143,"duration":"0.03"},{"name":"G#6","midi":92,"time":"290.34","velocity":0.25196850393700787,"duration":"0.28"},{"name":"B6","midi":95,"time":"290.34","velocity":0.2440944881889764,"duration":"0.03"},{"name":"C7","midi":96,"time":"290.34","velocity":0.15748031496062992,"duration":"0.08"},{"name":"D#7","midi":99,"time":"290.34","velocity":0.1889763779527559,"duration":"0.16"},{"name":"F7","midi":101,"time":"290.34","velocity":0.1968503937007874,"duration":"0.23"},{"name":"D#2","midi":39,"time":"290.35","velocity":0.5826771653543307,"duration":"0.01"},{"name":"G6","midi":91,"time":"290.35","velocity":0.2677165354330709,"duration":"0.19"},{"name":"D7","midi":98,"time":"290.35","velocity":0.1732283464566929,"duration":"0.06"},{"name":"E2","midi":40,"time":"290.36","velocity":0.6850393700787402,"duration":"0.01"},{"name":"B5","midi":83,"time":"290.36","velocity":0.1889763779527559,"duration":"0.07"},{"name":"F2","midi":41,"time":"290.37","velocity":0.6456692913385826,"duration":"0.01"},{"name":"C#4","midi":61,"time":"290.37","velocity":0.25196850393700787,"duration":"0.02"},{"name":"C#5","midi":73,"time":"290.37","velocity":0.41732283464566927,"duration":"0.36"},{"name":"G5","midi":79,"time":"290.37","velocity":0.13385826771653545,"duration":"0.03"},{"name":"G2","midi":43,"time":"290.38","velocity":0.5118110236220472,"duration":"0.01"},{"name":"B4","midi":71,"time":"290.38","velocity":0.1968503937007874,"duration":"0.03"},{"name":"A5","midi":81,"time":"290.38","velocity":0.3858267716535433,"duration":"0.38"},{"name":"F6","midi":89,"time":"290.38","velocity":0.2204724409448819,"duration":"0.07"},{"name":"E1","midi":28,"time":"290.40","velocity":0.5590551181102362,"duration":"0.01"},{"name":"D3","midi":50,"time":"290.40","velocity":0.5511811023622047,"duration":"0.01"},{"name":"F1","midi":29,"time":"290.41","velocity":0.5433070866141733,"duration":"0.01"},{"name":"D#3","midi":51,"time":"290.41","velocity":0.5433070866141733,"duration":"0.01"},{"name":"G#5","midi":80,"time":"290.41","velocity":0.41732283464566927,"duration":"0.70"},{"name":"F#4","midi":66,"time":"290.42","velocity":0.1968503937007874,"duration":"0.05"},{"name":"A2","midi":45,"time":"290.43","velocity":0.5590551181102362,"duration":"0.28"},{"name":"A#6","midi":94,"time":"290.43","velocity":0.13385826771653545,"duration":"0.15"},{"name":"A#1","midi":34,"time":"290.44","velocity":0.4645669291338583,"duration":"0.02"},{"name":"D#3","midi":51,"time":"290.44","velocity":0.5039370078740157,"duration":"0.02"},{"name":"C#4","midi":61,"time":"290.45","velocity":0.2992125984251969,"duration":"0.15"},{"name":"C7","midi":96,"time":"290.45","velocity":0.09448818897637795,"duration":"0.16"},{"name":"E3","midi":52,"time":"290.47","velocity":0.5118110236220472,"duration":"0.22"},{"name":"B4","midi":71,"time":"290.47","velocity":0.2047244094488189,"duration":"0.10"},{"name":"C6","midi":84,"time":"290.47","velocity":0.08661417322834646,"duration":"0.03"},{"name":"F#1","midi":30,"time":"290.49","velocity":0.44881889763779526,"duration":"0.02"},{"name":"F#4","midi":66,"time":"290.50","velocity":0.36220472440944884,"duration":"0.14"},{"name":"F#5","midi":78,"time":"290.50","velocity":0.4251968503937008,"duration":"0.98"},{"name":"F6","midi":89,"time":"290.51","velocity":0.11811023622047244,"duration":"0.10"},{"name":"G6","midi":91,"time":"290.56","velocity":0.11811023622047244,"duration":"0.09"},{"name":"G7","midi":103,"time":"290.56","velocity":0.14960629921259844,"duration":"0.03"},{"name":"B0","midi":23,"time":"290.58","velocity":0.10236220472440945,"duration":"0.03"},{"name":"D#6","midi":87,"time":"290.62","velocity":0.2677165354330709,"duration":"0.13"},{"name":"A#6","midi":94,"time":"290.62","velocity":0.13385826771653545,"duration":"0.03"},{"name":"A#5","midi":82,"time":"290.64","velocity":0.11023622047244094,"duration":"0.05"},{"name":"G7","midi":103,"time":"290.64","velocity":0.2047244094488189,"duration":"0.27"},{"name":"F#4","midi":66,"time":"290.65","velocity":0.33070866141732286,"duration":"0.06"},{"name":"B6","midi":95,"time":"290.66","velocity":0.2677165354330709,"duration":"0.29"},{"name":"A#6","midi":94,"time":"290.67","velocity":0.2125984251968504,"duration":"0.20"},{"name":"C#4","midi":61,"time":"290.69","velocity":0.5354330708661418,"duration":"0.44"},{"name":"G#2","midi":44,"time":"290.71","velocity":0.5275590551181102,"duration":"0.01"},{"name":"F6","midi":89,"time":"290.71","velocity":0.29133858267716534,"duration":"0.13"},{"name":"C#7","midi":97,"time":"290.71","velocity":0.36220472440944884,"duration":"0.85"},{"name":"F7","midi":101,"time":"290.71","velocity":0.33070866141732286,"duration":"0.16"},{"name":"G#4","midi":68,"time":"290.72","velocity":0.5196850393700787,"duration":"0.01"},{"name":"A#4","midi":70,"time":"290.72","velocity":0.5354330708661418,"duration":"0.05"},{"name":"C7","midi":96,"time":"290.72","velocity":0.2283464566929134,"duration":"0.16"},{"name":"D7","midi":98,"time":"290.72","velocity":0.2047244094488189,"duration":"0.12"},{"name":"G#3","midi":56,"time":"290.73","velocity":0.5196850393700787,"duration":"0.05"},{"name":"D#5","midi":75,"time":"290.73","velocity":0.3700787401574803,"duration":"0.02"},{"name":"C#6","midi":85,"time":"290.73","velocity":0.3228346456692913,"duration":"0.02"},{"name":"D#7","midi":99,"time":"290.73","velocity":0.28346456692913385,"duration":"0.13"},{"name":"B5","midi":83,"time":"290.74","velocity":0.2204724409448819,"duration":"0.06"},{"name":"D6","midi":86,"time":"290.74","velocity":0.23622047244094488,"duration":"0.02"},{"name":"F4","midi":65,"time":"290.76","velocity":0.4330708661417323,"duration":"0.02"},{"name":"G#2","midi":44,"time":"290.77","velocity":0.5433070866141733,"duration":"0.01"},{"name":"B4","midi":71,"time":"290.77","velocity":0.2755905511811024,"duration":"0.02"},{"name":"C#6","midi":85,"time":"290.77","velocity":0.3937007874015748,"duration":"0.60"},{"name":"D#6","midi":87,"time":"290.77","velocity":0.2204724409448819,"duration":"0.03"},{"name":"A2","midi":45,"time":"290.78","velocity":0.5748031496062992,"duration":"0.31"},{"name":"E3","midi":52,"time":"290.78","velocity":0.44881889763779526,"duration":"0.06"},{"name":"F#4","midi":66,"time":"290.78","velocity":0.3937007874015748,"duration":"0.12"},{"name":"E5","midi":76,"time":"290.79","velocity":0.33070866141732286,"duration":"0.31"},{"name":"G6","midi":91,"time":"290.79","velocity":0.18110236220472442,"duration":"0.07"},{"name":"D6","midi":86,"time":"290.83","velocity":0.10236220472440945,"duration":"0.03"},{"name":"A#5","midi":82,"time":"290.84","velocity":0.09448818897637795,"duration":"0.03"},{"name":"C6","midi":84,"time":"290.85","velocity":0.11811023622047244,"duration":"0.03"},{"name":"F6","midi":89,"time":"290.85","velocity":0.1732283464566929,"duration":"0.07"},{"name":"A6","midi":93,"time":"290.86","velocity":0.11023622047244094,"duration":"0.06"},{"name":"E3","midi":52,"time":"290.88","velocity":0.41732283464566927,"duration":"0.05"},{"name":"B5","midi":83,"time":"290.91","velocity":0.08661417322834646,"duration":"0.06"},{"name":"C6","midi":84,"time":"290.91","velocity":0.15748031496062992,"duration":"0.07"},{"name":"G6","midi":91,"time":"290.91","velocity":0.15748031496062992,"duration":"0.05"},{"name":"A#6","midi":94,"time":"290.91","velocity":0.12598425196850394,"duration":"0.03"},{"name":"F#4","midi":66,"time":"290.92","velocity":0.4330708661417323,"duration":"0.38"},{"name":"G7","midi":103,"time":"290.93","velocity":0.1968503937007874,"duration":"0.13"},{"name":"E3","midi":52,"time":"290.95","velocity":0.4330708661417323,"duration":"0.05"},{"name":"E7","midi":100,"time":"290.97","velocity":0.13385826771653545,"duration":"0.16"},{"name":"E3","midi":52,"time":"291.01","velocity":0.4094488188976378,"duration":"0.07"},{"name":"F6","midi":89,"time":"291.02","velocity":0.15748031496062992,"duration":"0.06"},{"name":"B6","midi":95,"time":"291.03","velocity":0.07874015748031496,"duration":"0.06"},{"name":"A#6","midi":94,"time":"291.06","velocity":0.14173228346456693,"duration":"0.14"},{"name":"G7","midi":103,"time":"291.08","velocity":0.2125984251968504,"duration":"0.08"},{"name":"A6","midi":93,"time":"291.09","velocity":0.18110236220472442,"duration":"0.07"},{"name":"F7","midi":101,"time":"291.09","velocity":0.2204724409448819,"duration":"0.17"},{"name":"G6","midi":91,"time":"291.10","velocity":0.2440944881889764,"duration":"0.09"},{"name":"B6","midi":95,"time":"291.10","velocity":0.09448818897637795,"duration":"0.06"},{"name":"D#7","midi":99,"time":"291.10","velocity":0.13385826771653545,"duration":"0.05"},{"name":"G2","midi":43,"time":"291.12","velocity":0.5039370078740157,"duration":"0.02"},{"name":"E3","midi":52,"time":"291.12","velocity":0.5433070866141733,"duration":"0.23"},{"name":"D7","midi":98,"time":"291.12","velocity":0.08661417322834646,"duration":"0.05"},{"name":"E5","midi":76,"time":"291.13","velocity":0.2755905511811024,"duration":"0.03"},{"name":"G#2","midi":44,"time":"291.14","velocity":0.5118110236220472,"duration":"0.02"},{"name":"C#4","midi":61,"time":"291.14","velocity":0.3228346456692913,"duration":"0.08"},{"name":"G#5","midi":80,"time":"291.14","velocity":0.25196850393700787,"duration":"0.07"},{"name":"G#1","midi":32,"time":"291.16","velocity":0.25984251968503935,"duration":"0.03"},{"name":"A2","midi":45,"time":"291.16","velocity":0.5590551181102362,"duration":"0.29"},{"name":"D#5","midi":75,"time":"291.16","velocity":0.2440944881889764,"duration":"0.05"},{"name":"C7","midi":96,"time":"291.17","velocity":0.2047244094488189,"duration":"0.09"},{"name":"G7","midi":103,"time":"291.17","velocity":0.2440944881889764,"duration":"0.15"},{"name":"A6","midi":93,"time":"291.19","velocity":0.14173228346456693,"duration":"0.09"},{"name":"D#7","midi":99,"time":"291.19","velocity":0.25196850393700787,"duration":"0.07"},{"name":"E6","midi":88,"time":"291.21","velocity":0.07874015748031496,"duration":"0.03"},{"name":"G6","midi":91,"time":"291.24","velocity":0.14960629921259844,"duration":"0.08"},{"name":"E5","midi":76,"time":"291.26","velocity":0.10236220472440945,"duration":"0.03"},{"name":"G#5","midi":80,"time":"291.26","velocity":0.1732283464566929,"duration":"0.05"},{"name":"D#6","midi":87,"time":"291.26","velocity":0.11023622047244094,"duration":"0.05"},{"name":"E6","midi":88,"time":"291.26","velocity":0.12598425196850394,"duration":"0.06"},{"name":"F6","midi":89,"time":"291.26","velocity":0.11811023622047244,"duration":"0.03"},{"name":"A#6","midi":94,"time":"291.26","velocity":0.15748031496062992,"duration":"0.09"},{"name":"B6","midi":95,"time":"291.26","velocity":0.11811023622047244,"duration":"0.17"},{"name":"D7","midi":98,"time":"291.26","velocity":0.11023622047244094,"duration":"0.03"},{"name":"B4","midi":71,"time":"291.28","velocity":0.28346456692913385,"duration":"0.19"},{"name":"A5","midi":81,"time":"291.29","velocity":0.18110236220472442,"duration":"0.03"},{"name":"C6","midi":84,"time":"291.29","velocity":0.2047244094488189,"duration":"0.05"},{"name":"C7","midi":96,"time":"291.29","velocity":0.2047244094488189,"duration":"0.14"},{"name":"F7","midi":101,"time":"291.30","velocity":0.14960629921259844,"duration":"0.08"},{"name":"F6","midi":89,"time":"291.31","velocity":0.12598425196850394,"duration":"0.05"},{"name":"D7","midi":98,"time":"291.31","velocity":0.1968503937007874,"duration":"0.07"},{"name":"D#5","midi":75,"time":"291.33","velocity":0.09448818897637795,"duration":"0.06"},{"name":"D#7","midi":99,"time":"291.33","velocity":0.16535433070866143,"duration":"0.07"},{"name":"G#4","midi":68,"time":"291.34","velocity":0.25196850393700787,"duration":"0.05"},{"name":"G7","midi":103,"time":"291.34","velocity":0.2125984251968504,"duration":"0.22"},{"name":"G#6","midi":92,"time":"291.35","velocity":0.14173228346456693,"duration":"0.05"},{"name":"E3","midi":52,"time":"291.36","velocity":0.4881889763779528,"duration":"0.09"},{"name":"C#4","midi":61,"time":"291.36","velocity":0.2283464566929134,"duration":"0.07"},{"name":"A#6","midi":94,"time":"291.36","velocity":0.07086614173228346,"duration":"0.08"},{"name":"F#4","midi":66,"time":"291.37","velocity":0.3937007874015748,"duration":"0.07"},{"name":"E7","midi":100,"time":"291.37","velocity":0.12598425196850394,"duration":"0.03"},{"name":"G#1","midi":32,"time":"291.40","velocity":0.25984251968503935,"duration":"0.02"},{"name":"D6","midi":86,"time":"291.41","velocity":0.2283464566929134,"duration":"0.20"},{"name":"C#6","midi":85,"time":"291.42","velocity":0.09448818897637795,"duration":"0.03"},{"name":"D7","midi":98,"time":"291.42","velocity":0.25984251968503935,"duration":"0.16"},{"name":"G#6","midi":92,"time":"291.43","velocity":0.29133858267716534,"duration":"0.21"},{"name":"E7","midi":100,"time":"291.43","velocity":0.11023622047244094,"duration":"0.05"},{"name":"D2","midi":38,"time":"291.45","velocity":0.5354330708661418,"duration":"0.01"},{"name":"A#2","midi":46,"time":"291.45","velocity":0.5118110236220472,"duration":"0.01"},{"name":"F3","midi":53,"time":"291.45","velocity":0.5275590551181102,"duration":"0.01"},{"name":"A4","midi":69,"time":"291.45","velocity":0.3464566929133858,"duration":"0.03"},{"name":"B5","midi":83,"time":"291.45","velocity":0.4566929133858268,"duration":"0.64"},{"name":"C7","midi":96,"time":"291.45","velocity":0.2204724409448819,"duration":"0.14"},{"name":"D#7","midi":99,"time":"291.45","velocity":0.11811023622047244,"duration":"0.03"},{"name":"F7","midi":101,"time":"291.45","velocity":0.1968503937007874,"duration":"0.03"},{"name":"D#2","midi":39,"time":"291.47","velocity":0.6456692913385826,"duration":"0.01"},{"name":"A#3","midi":58,"time":"291.47","velocity":0.3858267716535433,"duration":"0.02"},{"name":"F4","midi":65,"time":"291.47","velocity":0.4094488188976378,"duration":"0.03"},{"name":"D5","midi":74,"time":"291.47","velocity":0.2283464566929134,"duration":"0.08"},{"name":"A#6","midi":94,"time":"291.47","velocity":0.16535433070866143,"duration":"0.03"},{"name":"F2","midi":41,"time":"291.48","velocity":0.6614173228346457,"duration":"0.02"},{"name":"B4","midi":71,"time":"291.48","velocity":0.47244094488188976,"duration":"0.33"},{"name":"G5","midi":79,"time":"291.48","velocity":0.2440944881889764,"duration":"0.05"},{"name":"C6","midi":84,"time":"291.48","velocity":0.2125984251968504,"duration":"0.03"},{"name":"E6","midi":88,"time":"291.49","velocity":0.25984251968503935,"duration":"0.08"},{"name":"E3","midi":52,"time":"291.50","velocity":0.5905511811023622,"duration":"0.05"},{"name":"F#5","midi":78,"time":"291.50","velocity":0.2283464566929134,"duration":"0.12"},{"name":"F7","midi":101,"time":"291.50","velocity":0.14960629921259844,"duration":"0.05"},{"name":"C2","midi":36,"time":"291.51","velocity":0.5905511811023622,"duration":"0.01"},{"name":"A2","midi":45,"time":"291.51","velocity":0.5118110236220472,"duration":"0.01"},{"name":"B3","midi":59,"time":"291.51","velocity":0.3464566929133858,"duration":"0.03"},{"name":"G#4","midi":68,"time":"291.51","velocity":0.4015748031496063,"duration":"0.36"},{"name":"A#6","midi":94,"time":"291.51","velocity":0.18110236220472442,"duration":"0.13"},{"name":"B1","midi":35,"time":"291.52","velocity":0.5590551181102362,"duration":"0.01"},{"name":"D#6","midi":87,"time":"291.52","velocity":0.18110236220472442,"duration":"0.23"},{"name":"D#3","midi":51,"time":"291.55","velocity":0.5748031496062992,"duration":"0.01"},{"name":"A6","midi":93,"time":"291.55","velocity":0.2204724409448819,"duration":"0.36"},{"name":"E3","midi":52,"time":"291.56","velocity":0.5275590551181102,"duration":"0.05"},{"name":"B3","midi":59,"time":"291.56","velocity":0.3858267716535433,"duration":"0.28"},{"name":"E2","midi":40,"time":"291.59","velocity":0.4330708661417323,"duration":"0.02"},{"name":"D#3","midi":51,"time":"291.60","velocity":0.5511811023622047,"duration":"0.01"},{"name":"E3","midi":52,"time":"291.62","velocity":0.5905511811023622,"duration":"0.59"},{"name":"D#5","midi":75,"time":"291.62","velocity":0.16535433070866143,"duration":"0.06"},{"name":"A5","midi":81,"time":"291.62","velocity":0.2125984251968504,"duration":"0.03"},{"name":"E2","midi":40,"time":"291.63","velocity":0.41732283464566927,"duration":"0.02"},{"name":"F#5","midi":78,"time":"291.65","velocity":0.25196850393700787,"duration":"0.13"},{"name":"E6","midi":88,"time":"291.65","velocity":0.16535433070866143,"duration":"0.09"},{"name":"E2","midi":40,"time":"291.66","velocity":0.4566929133858268,"duration":"0.06"},{"name":"D6","midi":86,"time":"291.66","velocity":0.11023622047244094,"duration":"0.07"},{"name":"A5","midi":81,"time":"291.67","velocity":0.2125984251968504,"duration":"0.03"},{"name":"C#7","midi":97,"time":"291.67","velocity":0.11023622047244094,"duration":"0.13"},{"name":"D5","midi":74,"time":"291.69","velocity":0.13385826771653545,"duration":"0.06"},{"name":"D#5","midi":75,"time":"291.69","velocity":0.1889763779527559,"duration":"0.05"},{"name":"G7","midi":103,"time":"291.69","velocity":0.15748031496062992,"duration":"0.12"},{"name":"A5","midi":81,"time":"291.72","velocity":0.12598425196850394,"duration":"0.03"},{"name":"C6","midi":84,"time":"291.72","velocity":0.1732283464566929,"duration":"0.05"},{"name":"E2","midi":40,"time":"291.73","velocity":0.5433070866141733,"duration":"0.13"},{"name":"A#6","midi":94,"time":"291.74","velocity":0.11811023622047244,"duration":"0.05"},{"name":"F#5","midi":78,"time":"291.79","velocity":0.2125984251968504,"duration":"0.07"},{"name":"D#5","midi":75,"time":"291.80","velocity":0.13385826771653545,"duration":"0.05"},{"name":"A5","midi":81,"time":"291.81","velocity":0.2125984251968504,"duration":"0.06"},{"name":"D#6","midi":87,"time":"291.81","velocity":0.1968503937007874,"duration":"0.06"},{"name":"F4","midi":65,"time":"291.83","velocity":0.2992125984251969,"duration":"0.02"},{"name":"F7","midi":101,"time":"291.83","velocity":0.1732283464566929,"duration":"0.17"},{"name":"G#6","midi":92,"time":"291.84","velocity":0.23622047244094488,"duration":"0.14"},{"name":"C7","midi":96,"time":"291.84","velocity":0.07874015748031496,"duration":"0.06"},{"name":"A#3","midi":58,"time":"291.85","velocity":0.3464566929133858,"duration":"0.02"},{"name":"G6","midi":91,"time":"291.85","velocity":0.14173228346456693,"duration":"0.06"},{"name":"D7","midi":98,"time":"291.85","velocity":0.25984251968503935,"duration":"0.15"},{"name":"F2","midi":41,"time":"291.86","velocity":0.5354330708661418,"duration":"0.01"},{"name":"G5","midi":79,"time":"291.86","velocity":0.2755905511811024,"duration":"0.03"},{"name":"A#6","midi":94,"time":"291.86","velocity":0.2125984251968504,"duration":"0.08"},{"name":"G7","midi":103,"time":"291.86","velocity":0.2047244094488189,"duration":"0.08"},{"name":"B3","midi":59,"time":"291.87","velocity":0.29133858267716534,"duration":"0.06"},{"name":"G4","midi":67,"time":"291.87","velocity":0.2283464566929134,"duration":"0.02"},{"name":"E5","midi":76,"time":"291.87","velocity":0.15748031496062992,"duration":"0.13"},{"name":"C#7","midi":97,"time":"291.87","velocity":0.14960629921259844,"duration":"0.09"},{"name":"G#5","midi":80,"time":"291.88","velocity":0.31496062992125984,"duration":"0.34"},{"name":"E2","midi":40,"time":"291.90","velocity":0.5196850393700787,"duration":"0.33"},{"name":"F4","midi":65,"time":"291.90","velocity":0.29133858267716534,"duration":"0.02"},{"name":"G#4","midi":68,"time":"291.90","velocity":0.5039370078740157,"duration":"0.34"},{"name":"F#5","midi":78,"time":"291.90","velocity":0.3464566929133858,"duration":"0.35"},{"name":"A5","midi":81,"time":"291.90","velocity":0.1889763779527559,"duration":"0.03"},{"name":"D6","midi":86,"time":"291.91","velocity":0.2283464566929134,"duration":"0.33"},{"name":"D5","midi":74,"time":"291.92","velocity":0.18110236220472442,"duration":"0.03"},{"name":"F#4","midi":66,"time":"291.93","velocity":0.09448818897637795,"duration":"0.03"},{"name":"D#7","midi":99,"time":"291.93","velocity":0.09448818897637795,"duration":"0.06"},{"name":"B3","midi":59,"time":"291.94","velocity":0.31496062992125984,"duration":"0.17"},{"name":"C7","midi":96,"time":"291.94","velocity":0.10236220472440945,"duration":"0.13"},{"name":"A6","midi":93,"time":"291.95","velocity":0.14960629921259844,"duration":"0.20"},{"name":"B4","midi":71,"time":"291.97","velocity":0.5039370078740157,"duration":"0.28"},{"name":"A#6","midi":94,"time":"291.97","velocity":0.09448818897637795,"duration":"0.06"},{"name":"D5","midi":74,"time":"291.99","velocity":0.1732283464566929,"duration":"0.10"},{"name":"A5","midi":81,"time":"291.99","velocity":0.14960629921259844,"duration":"0.03"},{"name":"C#7","midi":97,"time":"291.99","velocity":0.12598425196850394,"duration":"0.03"},{"name":"A5","midi":81,"time":"292.06","velocity":0.2047244094488189,"duration":"0.13"},{"name":"E6","midi":88,"time":"292.07","velocity":0.14960629921259844,"duration":"0.09"},{"name":"F6","midi":89,"time":"292.07","velocity":0.07874015748031496,"duration":"0.05"},{"name":"G7","midi":103,"time":"292.07","velocity":0.09448818897637795,"duration":"0.03"},{"name":"F#6","midi":90,"time":"292.13","velocity":0.41732283464566927,"duration":"0.86"},{"name":"G7","midi":103,"time":"292.16","velocity":0.11023622047244094,"duration":"0.03"},{"name":"E6","midi":88,"time":"292.19","velocity":0.2755905511811024,"duration":"0.45"},{"name":"A5","midi":81,"time":"292.20","velocity":0.28346456692913385,"duration":"0.03"},{"name":"F3","midi":53,"time":"292.21","velocity":0.5196850393700787,"duration":"0.02"},{"name":"D#6","midi":87,"time":"292.21","velocity":0.25984251968503935,"duration":"0.03"},{"name":"F6","midi":89,"time":"292.21","velocity":0.23622047244094488,"duration":"0.02"},{"name":"A#6","midi":94,"time":"292.21","velocity":0.33858267716535434,"duration":"0.28"},{"name":"C7","midi":96,"time":"292.21","velocity":0.28346456692913385,"duration":"0.23"},{"name":"C#7","midi":97,"time":"292.21","velocity":0.1732283464566929,"duration":"0.06"},{"name":"F7","midi":101,"time":"292.21","velocity":0.25196850393700787,"duration":"0.20"},{"name":"G7","midi":103,"time":"292.21","velocity":0.18110236220472442,"duration":"0.20"},{"name":"F2","midi":41,"time":"292.22","velocity":0.5590551181102362,"duration":"0.02"},{"name":"C#4","midi":61,"time":"292.22","velocity":0.5590551181102362,"duration":"0.01"},{"name":"C6","midi":84,"time":"292.22","velocity":0.4251968503937008,"duration":"0.42"},{"name":"D7","midi":98,"time":"292.22","velocity":0.30708661417322836,"duration":"0.55"},{"name":"E3","midi":52,"time":"292.23","velocity":0.5669291338582677,"duration":"0.10"},{"name":"C4","midi":60,"time":"292.23","velocity":0.4881889763779528,"duration":"0.02"},{"name":"F#4","midi":66,"time":"292.23","velocity":0.4409448818897638,"duration":"0.02"},{"name":"A4","midi":69,"time":"292.23","velocity":0.5669291338582677,"duration":"0.02"},{"name":"G5","midi":79,"time":"292.23","velocity":0.25196850393700787,"duration":"0.02"},{"name":"G#5","midi":80,"time":"292.23","velocity":0.41732283464566927,"duration":"0.31"},{"name":"F#2","midi":42,"time":"292.24","velocity":0.48031496062992124,"duration":"0.03"},{"name":"D6","midi":86,"time":"292.24","velocity":0.2125984251968504,"duration":"0.10"},{"name":"G6","midi":91,"time":"292.24","velocity":0.2755905511811024,"duration":"0.05"},{"name":"A6","midi":93,"time":"292.24","velocity":0.1968503937007874,"duration":"0.03"},{"name":"B3","midi":59,"time":"292.26","velocity":0.4409448818897638,"duration":"0.02"},{"name":"F4","midi":65,"time":"292.26","velocity":0.4251968503937008,"duration":"0.02"},{"name":"A#4","midi":70,"time":"292.26","velocity":0.4409448818897638,"duration":"0.03"},{"name":"C#5","midi":73,"time":"292.27","velocity":0.2283464566929134,"duration":"0.02"},{"name":"G#4","midi":68,"time":"292.28","velocity":0.4409448818897638,"duration":"0.35"},{"name":"F#5","midi":78,"time":"292.28","velocity":0.3543307086614173,"duration":"0.38"},{"name":"D#6","midi":87,"time":"292.28","velocity":0.2992125984251969,"duration":"0.14"},{"name":"E2","midi":40,"time":"292.29","velocity":0.49606299212598426,"duration":"0.30"},{"name":"B3","midi":59,"time":"292.29","velocity":0.4566929133858268,"duration":"0.10"},{"name":"A6","midi":93,"time":"292.29","velocity":0.2125984251968504,"duration":"0.09"},{"name":"C#7","midi":97,"time":"292.31","velocity":0.14173228346456693,"duration":"0.09"},{"name":"G6","midi":91,"time":"292.33","velocity":0.15748031496062992,"duration":"0.03"},{"name":"D#3","midi":51,"time":"292.34","velocity":0.5118110236220472,"duration":"0.01"},{"name":"E3","midi":52,"time":"292.35","velocity":0.5433070866141733,"duration":"0.26"},{"name":"D#5","midi":75,"time":"292.35","velocity":0.2677165354330709,"duration":"0.02"},{"name":"D5","midi":74,"time":"292.37","velocity":0.16535433070866143,"duration":"0.03"},{"name":"A6","midi":93,"time":"292.40","velocity":0.07086614173228346,"duration":"0.03"},{"name":"D6","midi":86,"time":"292.42","velocity":0.14173228346456693,"duration":"0.07"},{"name":"A5","midi":81,"time":"292.43","velocity":0.2204724409448819,"duration":"0.05"},{"name":"D#6","midi":87,"time":"292.43","velocity":0.2047244094488189,"duration":"0.09"},{"name":"F7","midi":101,"time":"292.44","velocity":0.10236220472440945,"duration":"0.06"},{"name":"A#3","midi":58,"time":"292.47","velocity":0.41732283464566927,"duration":"0.02"},{"name":"A3","midi":57,"time":"292.50","velocity":0.3937007874015748,"duration":"0.02"},{"name":"B4","midi":71,"time":"292.51","velocity":0.4409448818897638,"duration":"0.50"},{"name":"F6","midi":89,"time":"292.51","velocity":0.16535433070866143,"duration":"0.06"},{"name":"G7","midi":103,"time":"292.53","velocity":0.09448818897637795,"duration":"0.05"},{"name":"D#6","midi":87,"time":"292.55","velocity":0.2047244094488189,"duration":"0.06"},{"name":"A#3","midi":58,"time":"292.56","velocity":0.3858267716535433,"duration":"0.03"},{"name":"A6","midi":93,"time":"292.56","velocity":0.2204724409448819,"duration":"0.21"},{"name":"F2","midi":41,"time":"292.59","velocity":0.5669291338582677,"duration":"0.07"},{"name":"A#6","midi":94,"time":"292.59","velocity":0.1732283464566929,"duration":"0.13"},{"name":"G7","midi":103,"time":"292.60","velocity":0.1889763779527559,"duration":"0.07"},{"name":"D6","midi":86,"time":"292.62","velocity":0.2677165354330709,"duration":"0.67"},{"name":"G6","midi":91,"time":"292.62","velocity":0.10236220472440945,"duration":"0.03"},{"name":"C#7","midi":97,"time":"292.62","velocity":0.14960629921259844,"duration":"0.14"},{"name":"D#7","midi":99,"time":"292.62","velocity":0.14173228346456693,"duration":"0.13"},{"name":"F7","midi":101,"time":"292.62","velocity":0.2125984251968504,"duration":"0.12"},{"name":"E3","midi":52,"time":"292.63","velocity":0.5669291338582677,"duration":"0.35"},{"name":"A#3","midi":58,"time":"292.63","velocity":0.4094488188976378,"duration":"0.05"},{"name":"A5","midi":81,"time":"292.63","velocity":0.2125984251968504,"duration":"0.03"},{"name":"G#4","midi":68,"time":"292.64","velocity":0.33858267716535434,"duration":"0.35"},{"name":"E7","midi":100,"time":"292.64","velocity":0.08661417322834646,"duration":"0.03"},{"name":"E2","midi":40,"time":"292.66","velocity":0.5039370078740157,"duration":"0.30"},{"name":"C7","midi":96,"time":"292.66","velocity":0.14173228346456693,"duration":"0.06"},{"name":"F#5","midi":78,"time":"292.67","velocity":0.23622047244094488,"duration":"0.15"},{"name":"A#3","midi":58,"time":"292.71","velocity":0.3858267716535433,"duration":"0.07"},{"name":"D5","midi":74,"time":"292.73","velocity":0.1732283464566929,"duration":"0.08"},{"name":"A#6","midi":94,"time":"292.76","velocity":0.08661417322834646,"duration":"0.03"},{"name":"D#7","midi":99,"time":"292.76","velocity":0.14173228346456693,"duration":"0.09"},{"name":"G7","midi":103,"time":"292.76","velocity":0.11023622047244094,"duration":"0.20"},{"name":"D#6","midi":87,"time":"292.78","velocity":0.07874015748031496,"duration":"0.05"},{"name":"B3","midi":59,"time":"292.80","velocity":0.36220472440944884,"duration":"0.09"},{"name":"A5","midi":81,"time":"292.80","velocity":0.2204724409448819,"duration":"0.05"},{"name":"G6","midi":91,"time":"292.84","velocity":0.08661417322834646,"duration":"0.05"},{"name":"D#6","midi":87,"time":"292.85","velocity":0.2283464566929134,"duration":"0.07"},{"name":"D5","midi":74,"time":"292.86","velocity":0.07874015748031496,"duration":"0.05"},{"name":"F#5","midi":78,"time":"292.87","velocity":0.29133858267716534,"duration":"0.13"},{"name":"A5","midi":81,"time":"292.88","velocity":0.10236220472440945,"duration":"0.03"},{"name":"A#3","midi":58,"time":"292.90","velocity":0.2677165354330709,"duration":"0.03"},{"name":"C4","midi":60,"time":"292.94","velocity":0.2677165354330709,"duration":"0.02"},{"name":"A6","midi":93,"time":"292.95","velocity":0.1889763779527559,"duration":"0.10"},{"name":"F2","midi":41,"time":"292.97","velocity":0.5511811023622047,"duration":"0.01"},{"name":"B3","midi":59,"time":"292.97","velocity":0.4251968503937008,"duration":"0.17"},{"name":"D5","midi":74,"time":"292.97","velocity":0.2677165354330709,"duration":"0.09"},{"name":"G2","midi":43,"time":"292.98","velocity":0.6456692913385826,"duration":"0.01"},{"name":"G6","midi":91,"time":"292.98","velocity":0.2204724409448819,"duration":"0.07"},{"name":"A#6","midi":94,"time":"292.98","velocity":0.14173228346456693,"duration":"0.20"},{"name":"F7","midi":101,"time":"292.98","velocity":0.1889763779527559,"duration":"0.27"},{"name":"F#2","midi":42,"time":"292.99","velocity":0.6614173228346457,"duration":"0.03"},{"name":"D3","midi":50,"time":"292.99","velocity":0.5669291338582677,"duration":"0.01"},{"name":"F#4","midi":66,"time":"292.99","velocity":0.33858267716535434,"duration":"0.02"},{"name":"G#5","midi":80,"time":"292.99","velocity":0.2755905511811024,"duration":"0.16"},{"name":"D#6","midi":87,"time":"292.99","velocity":0.18110236220472442,"duration":"0.10"},{"name":"C7","midi":96,"time":"292.99","velocity":0.1732283464566929,"duration":"0.09"},{"name":"E3","midi":52,"time":"293.00","velocity":0.5984251968503937,"duration":"0.06"},{"name":"C6","midi":84,"time":"293.00","velocity":0.25984251968503935,"duration":"0.05"},{"name":"F#6","midi":90,"time":"293.00","velocity":0.4015748031496063,"duration":"0.73"},{"name":"C#7","midi":97,"time":"293.00","velocity":0.14173228346456693,"duration":"0.09"},{"name":"F#1","midi":30,"time":"293.02","velocity":0.5984251968503937,"duration":"0.02"},{"name":"G2","midi":43,"time":"293.02","velocity":0.5354330708661418,"duration":"0.01"},{"name":"G#4","midi":68,"time":"293.02","velocity":0.3543307086614173,"duration":"0.03"},{"name":"B4","midi":71,"time":"293.02","velocity":0.4330708661417323,"duration":"0.03"},{"name":"F#5","midi":78,"time":"293.03","velocity":0.3228346456692913,"duration":"0.35"},{"name":"A#1","midi":34,"time":"293.05","velocity":0.5354330708661418,"duration":"0.01"},{"name":"D#2","midi":39,"time":"293.06","velocity":0.5354330708661418,"duration":"0.01"},{"name":"D#3","midi":51,"time":"293.06","velocity":0.5669291338582677,"duration":"0.01"},{"name":"A#4","midi":70,"time":"293.06","velocity":0.2283464566929134,"duration":"0.02"},{"name":"E3","midi":52,"time":"293.07","velocity":0.5826771653543307,"duration":"0.29"},{"name":"B4","midi":71,"time":"293.08","velocity":0.44881889763779526,"duration":"0.16"},{"name":"D5","midi":74,"time":"293.08","velocity":0.11811023622047244,"duration":"0.03"},{"name":"G7","midi":103,"time":"293.08","velocity":0.11811023622047244,"duration":"0.03"},{"name":"E2","midi":40,"time":"293.09","velocity":0.4330708661417323,"duration":"0.02"},{"name":"A#5","midi":82,"time":"293.09","velocity":0.08661417322834646,"duration":"0.05"},{"name":"E2","midi":40,"time":"293.13","velocity":0.47244094488188976,"duration":"0.09"},{"name":"D#6","midi":87,"time":"293.13","velocity":0.14173228346456693,"duration":"0.08"},{"name":"C7","midi":96,"time":"293.13","velocity":0.10236220472440945,"duration":"0.07"},{"name":"D5","midi":74,"time":"293.14","velocity":0.13385826771653545,"duration":"0.07"},{"name":"B3","midi":59,"time":"293.15","velocity":0.25984251968503935,"duration":"0.03"},{"name":"G7","midi":103,"time":"293.15","velocity":0.12598425196850394,"duration":"0.10"},{"name":"G#5","midi":80,"time":"293.16","velocity":0.3228346456692913,"duration":"0.37"},{"name":"G#4","midi":68,"time":"293.17","velocity":0.10236220472440945,"duration":"0.09"},{"name":"A5","midi":81,"time":"293.17","velocity":0.2204724409448819,"duration":"0.12"},{"name":"B3","midi":59,"time":"293.20","velocity":0.13385826771653545,"duration":"0.03"},{"name":"G6","midi":91,"time":"293.20","velocity":0.11811023622047244,"duration":"0.06"},{"name":"C6","midi":84,"time":"293.21","velocity":0.09448818897637795,"duration":"0.03"},{"name":"D5","midi":74,"time":"293.22","velocity":0.12598425196850394,"duration":"0.05"},{"name":"E2","midi":40,"time":"293.23","velocity":0.5196850393700787,"duration":"0.12"},{"name":"D#7","midi":99,"time":"293.23","velocity":0.14173228346456693,"duration":"0.05"},{"name":"B5","midi":83,"time":"293.24","velocity":0.47244094488188976,"duration":"0.76"},{"name":"B4","midi":71,"time":"293.26","velocity":0.4251968503937008,"duration":"0.06"},{"name":"C#7","midi":97,"time":"293.27","velocity":0.08661417322834646,"duration":"0.05"},{"name":"D6","midi":86,"time":"293.31","velocity":0.14960629921259844,"duration":"0.05"},{"name":"D#7","midi":99,"time":"293.31","velocity":0.11811023622047244,"duration":"0.05"},{"name":"B4","midi":71,"time":"293.33","velocity":0.3937007874015748,"duration":"0.05"},{"name":"E7","midi":100,"time":"293.34","velocity":0.1968503937007874,"duration":"0.05"},{"name":"G7","midi":103,"time":"293.34","velocity":0.2047244094488189,"duration":"0.12"},{"name":"F#2","midi":42,"time":"293.35","velocity":0.5275590551181102,"duration":"0.01"},{"name":"A5","midi":81,"time":"293.35","velocity":0.23622047244094488,"duration":"0.12"},{"name":"C6","midi":84,"time":"293.35","velocity":0.2047244094488189,"duration":"0.09"},{"name":"C#6","midi":85,"time":"293.35","velocity":0.28346456692913385,"duration":"0.05"},{"name":"D7","midi":98,"time":"293.35","velocity":0.1889763779527559,"duration":"0.06"},{"name":"F7","midi":101,"time":"293.35","velocity":0.2204724409448819,"duration":"0.14"},{"name":"G#2","midi":44,"time":"293.36","velocity":0.5905511811023622,"duration":"0.01"},{"name":"D#6","midi":87,"time":"293.36","velocity":0.15748031496062992,"duration":"0.03"},{"name":"E6","midi":88,"time":"293.36","velocity":0.2047244094488189,"duration":"0.19"},{"name":"F#2","midi":42,"time":"293.37","velocity":0.6141732283464567,"duration":"0.03"},{"name":"D#3","midi":51,"time":"293.37","velocity":0.6141732283464567,"duration":"0.03"},{"name":"C4","midi":60,"time":"293.37","velocity":0.41732283464566927,"duration":"0.02"},{"name":"F#4","midi":66,"time":"293.37","velocity":0.4094488188976378,"duration":"0.02"},{"name":"A4","midi":69,"time":"293.37","velocity":0.28346456692913385,"duration":"0.02"},{"name":"D5","midi":74,"time":"293.37","velocity":0.25196850393700787,"duration":"0.03"},{"name":"G6","midi":91,"time":"293.38","velocity":0.2677165354330709,"duration":"0.02"},{"name":"F#1","midi":30,"time":"293.40","velocity":0.5354330708661418,"duration":"0.01"},{"name":"E4","midi":64,"time":"293.40","velocity":0.3700787401574803,"duration":"0.33"},{"name":"D6","midi":86,"time":"293.40","velocity":0.30708661417322836,"duration":"0.10"},{"name":"F1","midi":29,"time":"293.41","velocity":0.5748031496062992,"duration":"0.02"},{"name":"B4","midi":71,"time":"293.41","velocity":0.4330708661417323,"duration":"0.33"},{"name":"F#5","midi":78,"time":"293.41","velocity":0.1732283464566929,"duration":"0.06"},{"name":"D#3","midi":51,"time":"293.42","velocity":0.5826771653543307,"duration":"0.03"},{"name":"B3","midi":59,"time":"293.42","velocity":0.3779527559055118,"duration":"0.21"},{"name":"G#4","midi":68,"time":"293.42","velocity":0.5433070866141733,"duration":"0.34"},{"name":"C#5","midi":73,"time":"293.42","velocity":0.1732283464566929,"duration":"0.05"},{"name":"C#7","midi":97,"time":"293.42","velocity":0.14173228346456693,"duration":"0.12"},{"name":"D#7","midi":99,"time":"293.42","velocity":0.07874015748031496,"duration":"0.03"},{"name":"E2","midi":40,"time":"293.44","velocity":0.5196850393700787,"duration":"0.01"},{"name":"E3","midi":52,"time":"293.45","velocity":0.5826771653543307,"duration":"0.29"},{"name":"D#6","midi":87,"time":"293.47","velocity":0.2992125984251969,"duration":"0.50"},{"name":"E2","midi":40,"time":"293.48","velocity":0.4566929133858268,"duration":"0.02"},{"name":"D5","midi":74,"time":"293.48","velocity":0.11811023622047244,"duration":"0.05"},{"name":"G7","midi":103,"time":"293.48","velocity":0.07874015748031496,"duration":"0.05"},{"name":"A5","midi":81,"time":"293.49","velocity":0.16535433070866143,"duration":"0.03"},{"name":"E2","midi":40,"time":"293.51","velocity":0.44881889763779526,"duration":"0.05"},{"name":"F#5","midi":78,"time":"293.52","velocity":0.2755905511811024,"duration":"0.19"},{"name":"A5","midi":81,"time":"293.53","velocity":0.2047244094488189,"duration":"0.10"},{"name":"D5","midi":74,"time":"293.58","velocity":0.13385826771653545,"duration":"0.03"},{"name":"D6","midi":86,"time":"293.58","velocity":0.18110236220472442,"duration":"0.12"},{"name":"G6","midi":91,"time":"293.58","velocity":0.08661417322834646,"duration":"0.08"},{"name":"E2","midi":40,"time":"293.59","velocity":0.5039370078740157,"duration":"0.15"},{"name":"C#7","midi":97,"time":"293.62","velocity":0.11023622047244094,"duration":"0.05"},{"name":"F6","midi":89,"time":"293.63","velocity":0.10236220472440945,"duration":"0.03"},{"name":"B3","midi":59,"time":"293.64","velocity":0.4645669291338583,"duration":"0.10"},{"name":"A#5","midi":82,"time":"293.64","velocity":0.11023622047244094,"duration":"0.03"},{"name":"A5","midi":81,"time":"293.67","velocity":0.13385826771653545,"duration":"0.03"},{"name":"E6","midi":88,"time":"293.67","velocity":0.13385826771653545,"duration":"0.06"},{"name":"D5","midi":74,"time":"293.69","velocity":0.07874015748031496,"duration":"0.03"},{"name":"E5","midi":76,"time":"293.69","velocity":0.5118110236220472,"duration":"0.20"},{"name":"A6","midi":93,"time":"293.71","velocity":0.28346456692913385,"duration":"0.10"},{"name":"C#5","midi":73,"time":"293.72","velocity":0.3937007874015748,"duration":"0.05"},{"name":"G5","midi":79,"time":"293.72","velocity":0.25984251968503935,"duration":"0.05"},{"name":"A#5","midi":82,"time":"293.72","velocity":0.25196850393700787,"duration":"0.08"},{"name":"A#6","midi":94,"time":"293.72","velocity":0.25984251968503935,"duration":"0.14"},{"name":"C7","midi":96,"time":"293.73","velocity":0.2283464566929134,"duration":"0.20"},{"name":"F7","midi":101,"time":"293.73","velocity":0.2992125984251969,"duration":"0.16"},{"name":"F3","midi":53,"time":"293.74","velocity":0.5275590551181102,"duration":"0.01"},{"name":"C4","midi":60,"time":"293.74","velocity":0.4645669291338583,"duration":"0.03"},{"name":"E4","midi":64,"time":"293.74","velocity":0.47244094488188976,"duration":"0.02"},{"name":"D6","midi":86,"time":"293.74","velocity":0.31496062992125984,"duration":"0.05"},{"name":"F#6","midi":90,"time":"293.74","velocity":0.4015748031496063,"duration":"1.49"},{"name":"G6","midi":91,"time":"293.74","velocity":0.28346456692913385,"duration":"0.02"},{"name":"F#3","midi":54,"time":"293.76","velocity":0.5826771653543307,"duration":"0.01"},{"name":"A4","midi":69,"time":"293.76","velocity":0.5433070866141733,"duration":"0.05"},{"name":"F3","midi":53,"time":"293.77","velocity":0.5748031496062992,"duration":"0.01"},{"name":"B4","midi":71,"time":"293.77","velocity":0.4330708661417323,"duration":"0.06"},{"name":"D#5","midi":75,"time":"293.77","velocity":0.2440944881889764,"duration":"0.02"},{"name":"F#5","midi":78,"time":"293.77","velocity":0.3700787401574803,"duration":"0.26"},{"name":"F6","midi":89,"time":"293.77","velocity":0.15748031496062992,"duration":"0.07"},{"name":"E7","midi":100,"time":"293.77","velocity":0.16535433070866143,"duration":"0.09"},{"name":"G7","midi":103,"time":"293.77","velocity":0.15748031496062992,"duration":"0.06"},{"name":"E3","midi":52,"time":"293.78","velocity":0.5826771653543307,"duration":"0.33"},{"name":"C6","midi":84,"time":"293.78","velocity":0.2755905511811024,"duration":"0.08"},{"name":"E2","midi":40,"time":"293.79","velocity":0.5039370078740157,"duration":"0.30"},{"name":"G#4","midi":68,"time":"293.80","velocity":0.36220472440944884,"duration":"0.31"},{"name":"A5","midi":81,"time":"293.80","velocity":0.2283464566929134,"duration":"0.03"},{"name":"D6","midi":86,"time":"293.80","velocity":0.2047244094488189,"duration":"0.17"},{"name":"C5","midi":72,"time":"293.81","velocity":0.28346456692913385,"duration":"0.02"},{"name":"B4","midi":71,"time":"293.84","velocity":0.4251968503937008,"duration":"0.17"},{"name":"C#5","midi":73,"time":"293.84","velocity":0.23622047244094488,"duration":"0.03"},{"name":"A#5","midi":82,"time":"293.84","velocity":0.14960629921259844,"duration":"0.06"},{"name":"G7","midi":103,"time":"293.84","velocity":0.12598425196850394,"duration":"0.03"},{"name":"D5","midi":74,"time":"293.87","velocity":0.2755905511811024,"duration":"0.10"},{"name":"D#5","midi":75,"time":"293.88","velocity":0.25196850393700787,"duration":"0.02"},{"name":"F6","midi":89,"time":"293.88","velocity":0.07086614173228346,"duration":"0.03"},{"name":"A6","midi":93,"time":"293.88","velocity":0.07874015748031496,"duration":"0.06"},{"name":"E7","midi":100,"time":"293.90","velocity":0.12598425196850394,"duration":"0.03"},{"name":"F5","midi":77,"time":"293.91","velocity":0.2283464566929134,"duration":"0.02"},{"name":"E6","midi":88,"time":"293.91","velocity":0.1968503937007874,"duration":"0.24"},{"name":"E5","midi":76,"time":"293.93","velocity":0.2992125984251969,"duration":"0.43"},{"name":"A5","midi":81,"time":"293.93","velocity":0.2283464566929134,"duration":"0.09"},{"name":"F7","midi":101,"time":"293.93","velocity":0.12598425196850394,"duration":"0.09"},{"name":"G6","midi":91,"time":"293.94","velocity":0.12598425196850394,"duration":"0.06"},{"name":"A#6","midi":94,"time":"293.94","velocity":0.15748031496062992,"duration":"0.12"},{"name":"C6","midi":84,"time":"293.95","velocity":0.2992125984251969,"duration":"0.19"},{"name":"D5","midi":74,"time":"294.00","velocity":0.23622047244094488,"duration":"0.10"},{"name":"A#4","midi":70,"time":"294.01","velocity":0.2677165354330709,"duration":"0.02"},{"name":"B5","midi":83,"time":"294.01","velocity":0.4409448818897638,"duration":"0.42"},{"name":"B4","midi":71,"time":"294.03","velocity":0.48031496062992124,"duration":"0.44"},{"name":"F#5","midi":78,"time":"294.05","velocity":0.2677165354330709,"duration":"0.19"},{"name":"D#7","midi":99,"time":"294.07","velocity":0.14960629921259844,"duration":"0.12"},{"name":"G#3","midi":56,"time":"294.08","velocity":0.36220472440944884,"duration":"0.02"},{"name":"F2","midi":41,"time":"294.09","velocity":0.5511811023622047,"duration":"0.02"},{"name":"D#6","midi":87,"time":"294.10","velocity":0.16535433070866143,"duration":"0.09"},{"name":"F6","midi":89,"time":"294.10","velocity":0.11811023622047244,"duration":"0.03"},{"name":"F7","midi":101,"time":"294.10","velocity":0.1889763779527559,"duration":"0.10"},{"name":"E2","midi":40,"time":"294.12","velocity":0.5039370078740157,"duration":"0.35"},{"name":"D#3","midi":51,"time":"294.12","velocity":0.5275590551181102,"duration":"0.01"},{"name":"B3","midi":59,"time":"294.12","velocity":0.30708661417322836,"duration":"0.03"},{"name":"C#7","midi":97,"time":"294.12","velocity":0.1889763779527559,"duration":"0.10"},{"name":"G7","midi":103,"time":"294.12","velocity":0.14960629921259844,"duration":"0.10"},{"name":"E3","midi":52,"time":"294.13","velocity":0.5826771653543307,"duration":"0.34"},{"name":"D5","midi":74,"time":"294.13","velocity":0.14960629921259844,"duration":"0.06"},{"name":"A#6","midi":94,"time":"294.13","velocity":0.1732283464566929,"duration":"0.05"},{"name":"D7","midi":98,"time":"294.13","velocity":0.15748031496062992,"duration":"0.15"},{"name":"D6","midi":86,"time":"294.14","velocity":0.2755905511811024,"duration":"0.35"},{"name":"G#4","midi":68,"time":"294.15","velocity":0.2755905511811024,"duration":"0.33"},{"name":"C7","midi":96,"time":"294.15","velocity":0.08661417322834646,"duration":"0.12"},{"name":"A6","midi":93,"time":"294.16","velocity":0.2047244094488189,"duration":"0.27"},{"name":"B3","midi":59,"time":"294.20","velocity":0.2755905511811024,"duration":"0.02"},{"name":"B3","midi":59,"time":"294.23","velocity":0.1968503937007874,"duration":"0.03"},{"name":"C6","midi":84,"time":"294.24","velocity":0.1732283464566929,"duration":"0.06"},{"name":"F#5","midi":78,"time":"294.26","velocity":0.16535433070866143,"duration":"0.03"},{"name":"D#7","midi":99,"time":"294.26","velocity":0.08661417322834646,"duration":"0.05"},{"name":"A5","midi":81,"time":"294.27","velocity":0.13385826771653545,"duration":"0.03"},{"name":"G7","midi":103,"time":"294.27","velocity":0.09448818897637795,"duration":"0.05"},{"name":"D5","midi":74,"time":"294.30","velocity":0.09448818897637795,"duration":"0.03"},{"name":"D#6","midi":87,"time":"294.30","velocity":0.2047244094488189,"duration":"0.21"},{"name":"F6","midi":89,"time":"294.30","velocity":0.09448818897637795,"duration":"0.05"},{"name":"F#5","midi":78,"time":"294.31","velocity":0.23622047244094488,"duration":"0.14"},{"name":"B3","midi":59,"time":"294.34","velocity":0.1889763779527559,"duration":"0.03"},{"name":"D5","midi":74,"time":"294.35","velocity":0.12598425196850394,"duration":"0.03"},{"name":"G7","midi":103,"time":"294.36","velocity":0.11023622047244094,"duration":"0.05"},{"name":"B3","midi":59,"time":"294.38","velocity":0.2125984251968504,"duration":"0.07"},{"name":"D#5","midi":75,"time":"294.38","velocity":0.11023622047244094,"duration":"0.05"},{"name":"E6","midi":88,"time":"294.40","velocity":0.08661417322834646,"duration":"0.03"},{"name":"A5","midi":81,"time":"294.43","velocity":0.2125984251968504,"duration":"0.12"},{"name":"A6","midi":93,"time":"294.44","velocity":0.2283464566929134,"duration":"0.31"},{"name":"F2","midi":41,"time":"294.47","velocity":0.5354330708661418,"duration":"0.01"},{"name":"F#3","midi":54,"time":"294.47","velocity":0.44881889763779526,"duration":"0.02"},{"name":"C7","midi":96,"time":"294.47","velocity":0.16535433070866143,"duration":"0.07"},{"name":"E7","midi":100,"time":"294.47","velocity":0.13385826771653545,"duration":"0.03"},{"name":"G#2","midi":44,"time":"294.48","velocity":0.6535433070866141,"duration":"0.01"},{"name":"A4","midi":69,"time":"294.48","velocity":0.3543307086614173,"duration":"0.03"},{"name":"C5","midi":72,"time":"294.48","velocity":0.28346456692913385,"duration":"0.05"},{"name":"F#5","midi":78,"time":"294.48","velocity":0.25984251968503935,"duration":"0.06"},{"name":"A#6","midi":94,"time":"294.48","velocity":0.16535433070866143,"duration":"0.05"},{"name":"C#7","midi":97,"time":"294.48","velocity":0.11811023622047244,"duration":"0.09"},{"name":"F7","midi":101,"time":"294.48","velocity":0.2047244094488189,"duration":"0.20"},{"name":"F#2","midi":42,"time":"294.49","velocity":0.6535433070866141,"duration":"0.01"},{"name":"F3","midi":53,"time":"294.49","velocity":0.5984251968503937,"duration":"0.02"},{"name":"F#4","midi":66,"time":"294.49","velocity":0.4251968503937008,"duration":"0.03"},{"name":"F2","midi":41,"time":"294.50","velocity":0.5669291338582677,"duration":"0.01"},{"name":"C4","midi":60,"time":"294.50","velocity":0.25984251968503935,"duration":"0.05"},{"name":"G#5","midi":80,"time":"294.50","velocity":0.2677165354330709,"duration":"0.09"},{"name":"E3","midi":52,"time":"294.51","velocity":0.6299212598425197,"duration":"0.06"},{"name":"D6","midi":86,"time":"294.51","velocity":0.16535433070866143,"duration":"0.12"},{"name":"E6","midi":88,"time":"294.51","velocity":0.14173228346456693,"duration":"0.06"},{"name":"G7","midi":103,"time":"294.51","velocity":0.16535433070866143,"duration":"0.12"},{"name":"B4","midi":71,"time":"294.52","velocity":0.33858267716535434,"duration":"0.09"},{"name":"F5","midi":77,"time":"294.52","velocity":0.13385826771653545,"duration":"0.03"},{"name":"G#4","midi":68,"time":"294.53","velocity":0.25196850393700787,"duration":"0.03"},{"name":"D5","midi":74,"time":"294.53","velocity":0.2047244094488189,"duration":"0.03"},{"name":"D#2","midi":39,"time":"294.56","velocity":0.5275590551181102,"duration":"0.01"},{"name":"F#5","midi":78,"time":"294.56","velocity":0.13385826771653545,"duration":"0.05"},{"name":"A5","midi":81,"time":"294.56","velocity":0.14960629921259844,"duration":"0.05"},{"name":"C7","midi":96,"time":"294.56","velocity":0.11811023622047244,"duration":"0.03"},{"name":"F2","midi":41,"time":"294.57","velocity":0.4566929133858268,"duration":"0.02"},{"name":"D#3","midi":51,"time":"294.57","velocity":0.5984251968503937,"duration":"0.02"},{"name":"E3","midi":52,"time":"294.59","velocity":0.5511811023622047,"duration":"0.26"},{"name":"G#4","midi":68,"time":"294.59","velocity":0.3464566929133858,"duration":"0.29"},{"name":"D#2","midi":39,"time":"294.60","velocity":0.4566929133858268,"duration":"0.02"},{"name":"G#5","midi":80,"time":"294.60","velocity":0.41732283464566927,"duration":"1.77"},{"name":"A#4","midi":70,"time":"294.62","velocity":0.3228346456692913,"duration":"0.02"},{"name":"D5","midi":74,"time":"294.62","velocity":0.14173228346456693,"duration":"0.06"},{"name":"E2","midi":40,"time":"294.63","velocity":0.4645669291338583,"duration":"0.05"},{"name":"F#5","midi":78,"time":"294.63","velocity":0.1732283464566929,"duration":"0.05"},{"name":"B4","midi":71,"time":"294.64","velocity":0.4645669291338583,"duration":"0.29"},{"name":"D#6","midi":87,"time":"294.64","velocity":0.14960629921259844,"duration":"0.06"},{"name":"A5","midi":81,"time":"294.66","velocity":0.12598425196850394,"duration":"0.06"},{"name":"B3","midi":59,"time":"294.67","velocity":0.3228346456692913,"duration":"0.17"},{"name":"D#5","midi":75,"time":"294.67","velocity":0.14173228346456693,"duration":"0.12"},{"name":"E2","midi":40,"time":"294.69","velocity":0.4566929133858268,"duration":"0.07"},{"name":"F7","midi":101,"time":"294.69","velocity":0.09448818897637795,"duration":"0.05"},{"name":"G7","midi":103,"time":"294.69","velocity":0.11811023622047244,"duration":"0.07"},{"name":"F#5","midi":78,"time":"294.70","velocity":0.2755905511811024,"duration":"0.07"},{"name":"D5","midi":74,"time":"294.72","velocity":0.14173228346456693,"duration":"0.06"},{"name":"D6","midi":86,"time":"294.74","velocity":0.18110236220472442,"duration":"0.12"},{"name":"E2","midi":40,"time":"294.77","velocity":0.4881889763779528,"duration":"0.08"},{"name":"F#5","midi":78,"time":"294.78","velocity":0.1889763779527559,"duration":"0.07"},{"name":"D#7","midi":99,"time":"294.81","velocity":0.13385826771653545,"duration":"0.05"},{"name":"A5","midi":81,"time":"294.83","velocity":0.18110236220472442,"duration":"0.09"},{"name":"F2","midi":41,"time":"294.85","velocity":0.5275590551181102,"duration":"0.02"},{"name":"F7","midi":101,"time":"294.85","velocity":0.15748031496062992,"duration":"0.12"},{"name":"F3","midi":53,"time":"294.86","velocity":0.5275590551181102,"duration":"0.02"},{"name":"C6","midi":84,"time":"294.86","velocity":0.11023622047244094,"duration":"0.03"},{"name":"D#6","midi":87,"time":"294.86","velocity":0.2283464566929134,"duration":"0.06"},{"name":"E2","midi":40,"time":"294.87","velocity":0.5039370078740157,"duration":"0.35"},{"name":"D6","midi":86,"time":"294.87","velocity":0.12598425196850394,"duration":"0.06"},{"name":"E6","midi":88,"time":"294.87","velocity":0.2755905511811024,"duration":"0.19"},{"name":"A#6","midi":94,"time":"294.87","velocity":0.14960629921259844,"duration":"0.08"},{"name":"C#7","midi":97,"time":"294.87","velocity":0.1968503937007874,"duration":"0.07"},{"name":"D7","midi":98,"time":"294.87","velocity":0.2125984251968504,"duration":"0.05"},{"name":"E3","midi":52,"time":"294.88","velocity":0.5905511811023622,"duration":"0.33"},{"name":"C4","midi":60,"time":"294.88","velocity":0.33858267716535434,"duration":"0.03"},{"name":"F4","midi":65,"time":"294.88","velocity":0.2677165354330709,"duration":"0.02"},{"name":"G4","midi":67,"time":"294.88","velocity":0.2677165354330709,"duration":"0.02"},{"name":"G7","midi":103,"time":"294.88","velocity":0.13385826771653545,"duration":"0.09"},{"name":"D#5","midi":75,"time":"294.90","velocity":0.18110236220472442,"duration":"0.13"},{"name":"F#5","midi":78,"time":"294.90","velocity":0.2677165354330709,"duration":"0.09"},{"name":"C7","midi":96,"time":"294.90","velocity":0.11023622047244094,"duration":"0.07"},{"name":"D5","midi":74,"time":"294.91","velocity":0.18110236220472442,"duration":"0.12"},{"name":"G#4","midi":68,"time":"294.92","velocity":0.5905511811023622,"duration":"0.35"},{"name":"F6","midi":89,"time":"294.92","velocity":0.08661417322834646,"duration":"0.03"},{"name":"B3","midi":59,"time":"294.93","velocity":0.28346456692913385,"duration":"0.07"},{"name":"B4","midi":71,"time":"294.94","velocity":0.4251968503937008,"duration":"0.29"},{"name":"D7","midi":98,"time":"294.94","velocity":0.14960629921259844,"duration":"0.07"},{"name":"C#7","midi":97,"time":"294.97","velocity":0.1732283464566929,"duration":"0.08"},{"name":"A6","midi":93,"time":"294.98","velocity":0.11811023622047244,"duration":"0.06"},{"name":"F7","midi":101,"time":"294.98","velocity":0.10236220472440945,"duration":"0.07"},{"name":"A5","midi":81,"time":"294.99","velocity":0.14960629921259844,"duration":"0.05"},{"name":"D#7","midi":99,"time":"294.99","velocity":0.14173228346456693,"duration":"0.12"},{"name":"F#5","midi":78,"time":"295.01","velocity":0.2755905511811024,"duration":"0.19"},{"name":"C7","midi":96,"time":"295.02","velocity":0.11811023622047244,"duration":"0.03"},{"name":"D6","midi":86,"time":"295.03","velocity":0.2677165354330709,"duration":"0.34"},{"name":"D5","midi":74,"time":"295.05","velocity":0.11811023622047244,"duration":"0.07"},{"name":"G7","midi":103,"time":"295.06","velocity":0.12598425196850394,"duration":"0.09"},{"name":"F6","midi":89,"time":"295.07","velocity":0.13385826771653545,"duration":"0.12"},{"name":"G6","midi":91,"time":"295.07","velocity":0.14960629921259844,"duration":"0.08"},{"name":"A5","midi":81,"time":"295.08","velocity":0.1968503937007874,"duration":"0.05"},{"name":"D#6","midi":87,"time":"295.08","velocity":0.10236220472440945,"duration":"0.09"},{"name":"A5","midi":81,"time":"295.14","velocity":0.13385826771653545,"duration":"0.05"},{"name":"A6","midi":93,"time":"295.20","velocity":0.2283464566929134,"duration":"0.10"},{"name":"F2","midi":41,"time":"295.22","velocity":0.5275590551181102,"duration":"0.01"},{"name":"F#5","midi":78,"time":"295.22","velocity":0.2755905511811024,"duration":"0.03"},{"name":"C6","midi":84,"time":"295.22","velocity":0.4015748031496063,"duration":"0.47"},{"name":"C#6","midi":85,"time":"295.22","velocity":0.2283464566929134,"duration":"0.10"},{"name":"F6","midi":89,"time":"295.22","velocity":0.29133858267716534,"duration":"0.02"},{"name":"G6","midi":91,"time":"295.22","velocity":0.2204724409448819,"duration":"0.09"},{"name":"C#7","midi":97,"time":"295.22","velocity":0.23622047244094488,"duration":"0.12"},{"name":"D7","midi":98,"time":"295.22","velocity":0.28346456692913385,"duration":"0.47"},{"name":"D#7","midi":99,"time":"295.22","velocity":0.2047244094488189,"duration":"0.19"},{"name":"G#2","midi":44,"time":"295.23","velocity":0.5118110236220472,"duration":"0.01"},{"name":"F4","midi":65,"time":"295.23","velocity":0.5590551181102362,"duration":"0.01"},{"name":"A#4","midi":70,"time":"295.23","velocity":0.5196850393700787,"duration":"0.02"},{"name":"C#5","midi":73,"time":"295.23","velocity":0.3700787401574803,"duration":"0.02"},{"name":"F3","midi":53,"time":"295.24","velocity":0.5984251968503937,"duration":"0.02"},{"name":"C4","midi":60,"time":"295.24","velocity":0.4566929133858268,"duration":"0.03"},{"name":"E4","midi":64,"time":"295.24","velocity":0.5039370078740157,"duration":"0.02"},{"name":"A4","midi":69,"time":"295.26","velocity":0.5118110236220472,"duration":"0.01"},{"name":"D#5","midi":75,"time":"295.26","velocity":0.41732283464566927,"duration":"0.02"},{"name":"F5","midi":77,"time":"295.26","velocity":0.36220472440944884,"duration":"0.02"},{"name":"E2","midi":40,"time":"295.27","velocity":0.5196850393700787,"duration":"0.34"},{"name":"F#4","midi":66,"time":"295.27","velocity":0.4251968503937008,"duration":"0.05"},{"name":"D5","midi":74,"time":"295.27","velocity":0.28346456692913385,"duration":"0.05"},{"name":"F#6","midi":90,"time":"295.27","velocity":0.3700787401574803,"duration":"0.72"},{"name":"G#4","midi":68,"time":"295.28","velocity":0.4094488188976378,"duration":"0.70"},{"name":"B4","midi":71,"time":"295.28","velocity":0.28346456692913385,"duration":"0.02"},{"name":"E5","midi":76,"time":"295.28","velocity":0.2755905511811024,"duration":"0.06"},{"name":"A5","midi":81,"time":"295.28","velocity":0.1732283464566929,"duration":"0.05"},{"name":"G5","midi":79,"time":"295.29","velocity":0.2047244094488189,"duration":"0.03"},{"name":"D#6","midi":87,"time":"295.29","velocity":0.25196850393700787,"duration":"0.24"},{"name":"C5","midi":72,"time":"295.30","velocity":0.3464566929133858,"duration":"0.03"},{"name":"D#3","midi":51,"time":"295.31","velocity":0.5275590551181102,"duration":"0.01"},{"name":"A6","midi":93,"time":"295.31","velocity":0.2125984251968504,"duration":"0.05"},{"name":"E3","midi":52,"time":"295.33","velocity":0.5748031496062992,"duration":"0.20"},{"name":"G6","midi":91,"time":"295.33","velocity":0.12598425196850394,"duration":"0.05"},{"name":"B4","midi":71,"time":"295.34","velocity":0.4881889763779528,"duration":"0.23"},{"name":"F5","midi":77,"time":"295.34","velocity":0.23622047244094488,"duration":"0.02"},{"name":"F#5","midi":78,"time":"295.35","velocity":0.31496062992125984,"duration":"0.20"},{"name":"A#3","midi":58,"time":"295.36","velocity":0.4881889763779528,"duration":"0.05"},{"name":"D5","midi":74,"time":"295.38","velocity":0.25984251968503935,"duration":"0.08"},{"name":"A6","midi":93,"time":"295.38","velocity":0.11023622047244094,"duration":"0.03"},{"name":"F7","midi":101,"time":"295.40","velocity":0.11023622047244094,"duration":"0.09"},{"name":"E6","midi":88,"time":"295.43","velocity":0.15748031496062992,"duration":"0.05"},{"name":"D#5","midi":75,"time":"295.44","velocity":0.1732283464566929,"duration":"0.07"},{"name":"A#3","midi":58,"time":"295.47","velocity":0.4409448818897638,"duration":"0.03"},{"name":"F6","midi":89,"time":"295.49","velocity":0.11023622047244094,"duration":"0.05"},{"name":"G6","midi":91,"time":"295.50","velocity":0.11023622047244094,"duration":"0.05"},{"name":"A#6","midi":94,"time":"295.50","velocity":0.12598425196850394,"duration":"0.06"},{"name":"A#3","midi":58,"time":"295.51","velocity":0.36220472440944884,"duration":"0.02"},{"name":"F5","midi":77,"time":"295.52","velocity":0.15748031496062992,"duration":"0.05"},{"name":"A5","midi":81,"time":"295.53","velocity":0.1889763779527559,"duration":"0.05"},{"name":"D#5","midi":75,"time":"295.55","velocity":0.15748031496062992,"duration":"0.08"},{"name":"D#6","midi":87,"time":"295.56","velocity":0.2204724409448819,"duration":"0.16"},{"name":"F#5","midi":78,"time":"295.57","velocity":0.36220472440944884,"duration":"0.43"},{"name":"D6","midi":86,"time":"295.57","velocity":0.33858267716535434,"duration":"0.33"},{"name":"B4","midi":71,"time":"295.58","velocity":0.4881889763779528,"duration":"0.43"},{"name":"F7","midi":101,"time":"295.58","velocity":0.15748031496062992,"duration":"0.20"},{"name":"G7","midi":103,"time":"295.58","velocity":0.2283464566929134,"duration":"0.09"},{"name":"A5","midi":81,"time":"295.59","velocity":0.1732283464566929,"duration":"0.06"},{"name":"F2","midi":41,"time":"295.60","velocity":0.5748031496062992,"duration":"0.03"},{"name":"F6","midi":89,"time":"295.60","velocity":0.11811023622047244,"duration":"0.08"},{"name":"G6","midi":91,"time":"295.62","velocity":0.1732283464566929,"duration":"0.03"},{"name":"E3","midi":52,"time":"295.63","velocity":0.5826771653543307,"duration":"0.33"},{"name":"C4","midi":60,"time":"295.63","velocity":0.3464566929133858,"duration":"0.02"},{"name":"A#6","midi":94,"time":"295.63","velocity":0.14173228346456693,"duration":"0.07"},{"name":"C#7","midi":97,"time":"295.64","velocity":0.1732283464566929,"duration":"0.10"},{"name":"E2","midi":40,"time":"295.66","velocity":0.4015748031496063,"duration":"0.02"},{"name":"A#3","midi":58,"time":"295.66","velocity":0.3937007874015748,"duration":"0.03"},{"name":"D#2","midi":39,"time":"295.69","velocity":0.4330708661417323,"duration":"0.02"},{"name":"D#5","midi":75,"time":"295.69","velocity":0.1732283464566929,"duration":"0.06"},{"name":"E2","midi":40,"time":"295.71","velocity":0.5039370078740157,"duration":"0.26"},{"name":"A#3","midi":58,"time":"295.72","velocity":0.3543307086614173,"duration":"0.02"},{"name":"D5","midi":74,"time":"295.72","velocity":0.1732283464566929,"duration":"0.03"},{"name":"A5","midi":81,"time":"295.72","velocity":0.15748031496062992,"duration":"0.06"},{"name":"A#6","midi":94,"time":"295.72","velocity":0.11023622047244094,"duration":"0.03"},{"name":"A6","midi":93,"time":"295.73","velocity":0.15748031496062992,"duration":"0.06"},{"name":"D#6","midi":87,"time":"295.74","velocity":0.2283464566929134,"duration":"0.19"},{"name":"C7","midi":96,"time":"295.76","velocity":0.10236220472440945,"duration":"0.05"},{"name":"B3","midi":59,"time":"295.77","velocity":0.2677165354330709,"duration":"0.03"},{"name":"C6","midi":84,"time":"295.77","velocity":0.11023622047244094,"duration":"0.06"},{"name":"G7","midi":103,"time":"295.77","velocity":0.14173228346456693,"duration":"0.08"},{"name":"F6","midi":89,"time":"295.79","velocity":0.07086614173228346,"duration":"0.07"},{"name":"A#3","midi":58,"time":"295.80","velocity":0.3228346456692913,"duration":"0.02"},{"name":"D5","midi":74,"time":"295.80","velocity":0.16535433070866143,"duration":"0.05"},{"name":"A5","midi":81,"time":"295.80","velocity":0.15748031496062992,"duration":"0.05"},{"name":"A#3","midi":58,"time":"295.87","velocity":0.2440944881889764,"duration":"0.03"},{"name":"A5","midi":81,"time":"295.87","velocity":0.14960629921259844,"duration":"0.03"},{"name":"D5","midi":74,"time":"295.88","velocity":0.12598425196850394,"duration":"0.05"},{"name":"A6","midi":93,"time":"295.88","velocity":0.16535433070866143,"duration":"0.13"},{"name":"A#3","midi":58,"time":"295.94","velocity":0.2440944881889764,"duration":"0.02"},{"name":"F3","midi":53,"time":"295.95","velocity":0.5118110236220472,"duration":"0.01"},{"name":"F2","midi":41,"time":"295.97","velocity":0.5669291338582677,"duration":"0.01"},{"name":"A#5","midi":82,"time":"295.97","velocity":0.18110236220472442,"duration":"0.03"},{"name":"G6","midi":91,"time":"295.97","velocity":0.1889763779527559,"duration":"0.14"},{"name":"D#7","midi":99,"time":"295.97","velocity":0.13385826771653545,"duration":"0.09"},{"name":"A2","midi":45,"time":"295.98","velocity":0.6692913385826772,"duration":"0.01"},{"name":"C7","midi":96,"time":"295.98","velocity":0.15748031496062992,"duration":"0.08"},{"name":"C#7","midi":97,"time":"295.98","velocity":0.16535433070866143,"duration":"0.14"},{"name":"F7","midi":101,"time":"295.98","velocity":0.2047244094488189,"duration":"0.36"},{"name":"G7","midi":103,"time":"295.98","velocity":0.2125984251968504,"duration":"0.05"},{"name":"F#2","midi":42,"time":"295.99","velocity":0.6535433070866141,"duration":"0.01"},{"name":"C#3","midi":49,"time":"295.99","velocity":0.5354330708661418,"duration":"0.01"},{"name":"F4","midi":65,"time":"295.99","velocity":0.4251968503937008,"duration":"0.02"},{"name":"D5","midi":74,"time":"295.99","velocity":0.23622047244094488,"duration":"0.06"},{"name":"C6","midi":84,"time":"295.99","velocity":0.2440944881889764,"duration":"0.02"},{"name":"D6","midi":86,"time":"295.99","velocity":0.2755905511811024,"duration":"0.22"},{"name":"F2","midi":41,"time":"296.00","velocity":0.5275590551181102,"duration":"0.01"},{"name":"C4","midi":60,"time":"296.00","velocity":0.33070866141732286,"duration":"0.03"},{"name":"A#4","midi":70,"time":"296.00","velocity":0.28346456692913385,"duration":"0.05"},{"name":"G5","midi":79,"time":"296.00","velocity":0.2677165354330709,"duration":"0.02"},{"name":"F#6","midi":90,"time":"296.00","velocity":0.2125984251968504,"duration":"0.07"},{"name":"G#1","midi":32,"time":"296.01","velocity":0.6062992125984252,"duration":"0.01"},{"name":"E4","midi":64,"time":"296.01","velocity":0.4645669291338583,"duration":"0.35"},{"name":"G#4","midi":68,"time":"296.01","velocity":0.41732283464566927,"duration":"0.36"},{"name":"G1","midi":31,"time":"296.02","velocity":0.6535433070866141,"duration":"0.02"},{"name":"A6","midi":93,"time":"296.02","velocity":0.15748031496062992,"duration":"0.06"},{"name":"E3","midi":52,"time":"296.03","velocity":0.5826771653543307,"duration":"0.02"},{"name":"B3","midi":59,"time":"296.03","velocity":0.2440944881889764,"duration":"0.02"},{"name":"F#5","midi":78,"time":"296.03","velocity":0.18110236220472442,"duration":"0.07"},{"name":"C#6","midi":85,"time":"296.03","velocity":0.16535433070866143,"duration":"0.05"},{"name":"B4","midi":71,"time":"296.05","velocity":0.30708661417322836,"duration":"0.12"},{"name":"D#6","midi":87,"time":"296.05","velocity":0.2125984251968504,"duration":"0.17"},{"name":"A#6","midi":94,"time":"296.05","velocity":0.10236220472440945,"duration":"0.06"},{"name":"D#3","midi":51,"time":"296.06","velocity":0.5669291338582677,"duration":"0.02"},{"name":"C#5","midi":73,"time":"296.06","velocity":0.2677165354330709,"duration":"0.02"},{"name":"B3","midi":59,"time":"296.07","velocity":0.2283464566929134,"duration":"0.03"},{"name":"E3","midi":52,"time":"296.08","velocity":0.48031496062992124,"duration":"0.03"},{"name":"D#5","midi":75,"time":"296.08","velocity":0.14960629921259844,"duration":"0.03"},{"name":"C#5","midi":73,"time":"296.09","velocity":0.31496062992125984,"duration":"0.12"},{"name":"D#3","midi":51,"time":"296.12","velocity":0.5196850393700787,"duration":"0.02"},{"name":"F#6","midi":90,"time":"296.12","velocity":0.13385826771653545,"duration":"0.10"},{"name":"C7","midi":96,"time":"296.12","velocity":0.10236220472440945,"duration":"0.03"},{"name":"D#2","midi":39,"time":"296.13","velocity":0.44881889763779526,"duration":"0.02"},{"name":"F#5","midi":78,"time":"296.13","velocity":0.1732283464566929,"duration":"0.05"},{"name":"E3","midi":52,"time":"296.14","velocity":0.5433070866141733,"duration":"0.17"},{"name":"A5","midi":81,"time":"296.15","velocity":0.16535433070866143,"duration":"0.08"},{"name":"F6","midi":89,"time":"296.15","velocity":0.15748031496062992,"duration":"0.08"},{"name":"D#5","midi":75,"time":"296.16","velocity":0.16535433070866143,"duration":"0.06"},{"name":"C7","midi":96,"time":"296.16","velocity":0.08661417322834646,"duration":"0.05"},{"name":"E2","midi":40,"time":"296.17","velocity":0.5118110236220472,"duration":"0.08"},{"name":"B4","midi":71,"time":"296.17","velocity":0.2204724409448819,"duration":"0.07"},{"name":"E6","midi":88,"time":"296.17","velocity":0.1968503937007874,"duration":"0.07"},{"name":"G7","midi":103,"time":"296.19","velocity":0.09448818897637795,"duration":"0.03"},{"name":"C#5","midi":73,"time":"296.23","velocity":0.31496062992125984,"duration":"0.14"},{"name":"D#6","midi":87,"time":"296.23","velocity":0.1889763779527559,"duration":"0.13"},{"name":"E2","midi":40,"time":"296.27","velocity":0.5511811023622047,"duration":"0.05"},{"name":"B4","midi":71,"time":"296.27","velocity":0.13385826771653545,"duration":"0.07"},{"name":"F#6","midi":90,"time":"296.29","velocity":0.14173228346456693,"duration":"0.19"},{"name":"F2","midi":41,"time":"296.31","velocity":0.5669291338582677,"duration":"0.03"},{"name":"C4","midi":60,"time":"296.31","velocity":0.3543307086614173,"duration":"0.02"},{"name":"C#7","midi":97,"time":"296.34","velocity":0.2677165354330709,"duration":"0.62"},{"name":"C3","midi":48,"time":"296.35","velocity":0.5275590551181102,"duration":"0.01"},{"name":"F3","midi":53,"time":"296.35","velocity":0.5748031496062992,"duration":"0.03"},{"name":"F5","midi":77,"time":"296.35","velocity":0.23622047244094488,"duration":"0.02"},{"name":"A#5","midi":82,"time":"296.35","velocity":0.2047244094488189,"duration":"0.07"},{"name":"D6","midi":86,"time":"296.35","velocity":0.2204724409448819,"duration":"0.26"},{"name":"E7","midi":100,"time":"296.35","velocity":0.16535433070866143,"duration":"0.05"},{"name":"F7","midi":101,"time":"296.35","velocity":0.1968503937007874,"duration":"0.30"},{"name":"G#2","midi":44,"time":"296.36","velocity":0.6220472440944882,"duration":"0.01"},{"name":"D5","midi":74,"time":"296.36","velocity":0.2125984251968504,"duration":"0.05"},{"name":"F2","midi":41,"time":"296.37","velocity":0.5826771653543307,"duration":"0.01"},{"name":"E4","midi":64,"time":"296.37","velocity":0.4094488188976378,"duration":"0.16"},{"name":"C5","midi":72,"time":"296.37","velocity":0.2755905511811024,"duration":"0.03"},{"name":"F#5","midi":78,"time":"296.37","velocity":0.1968503937007874,"duration":"0.03"},{"name":"E6","midi":88,"time":"296.37","velocity":0.2992125984251969,"duration":"0.45"},{"name":"F#3","midi":54,"time":"296.38","velocity":0.5354330708661418,"duration":"0.01"},{"name":"G#5","midi":80,"time":"296.38","velocity":0.4330708661417323,"duration":"0.22"},{"name":"B5","midi":83,"time":"296.38","velocity":0.3779527559055118,"duration":"0.36"},{"name":"G7","midi":103,"time":"296.38","velocity":0.16535433070866143,"duration":"0.08"},{"name":"G2","midi":43,"time":"296.40","velocity":0.5275590551181102,"duration":"0.02"},{"name":"F3","midi":53,"time":"296.40","velocity":0.5039370078740157,"duration":"0.02"},{"name":"G#4","midi":68,"time":"296.40","velocity":0.33858267716535434,"duration":"0.33"},{"name":"B4","midi":71,"time":"296.41","velocity":0.2992125984251969,"duration":"0.07"},{"name":"D#5","midi":75,"time":"296.41","velocity":0.1732283464566929,"duration":"0.06"},{"name":"F#3","midi":54,"time":"296.42","velocity":0.4881889763779528,"duration":"0.09"},{"name":"A#6","midi":94,"time":"296.42","velocity":0.16535433070866143,"duration":"0.03"},{"name":"C#5","midi":73,"time":"296.43","velocity":0.3937007874015748,"duration":"0.12"},{"name":"C7","midi":96,"time":"296.43","velocity":0.13385826771653545,"duration":"0.07"},{"name":"A#5","midi":82,"time":"296.44","velocity":0.14173228346456693,"duration":"0.06"},{"name":"D#7","midi":99,"time":"296.44","velocity":0.10236220472440945,"duration":"0.05"},{"name":"F#2","midi":42,"time":"296.45","velocity":0.5433070866141733,"duration":"0.06"},{"name":"C#4","midi":61,"time":"296.47","velocity":0.3228346456692913,"duration":"0.22"},{"name":"G6","midi":91,"time":"296.47","velocity":0.13385826771653545,"duration":"0.06"},{"name":"F2","midi":41,"time":"296.51","velocity":0.5275590551181102,"duration":"0.01"},{"name":"F#2","midi":42,"time":"296.52","velocity":0.5590551181102362,"duration":"0.21"},{"name":"B4","midi":71,"time":"296.56","velocity":0.2755905511811024,"duration":"0.16"},{"name":"C#5","midi":73,"time":"296.56","velocity":0.3779527559055118,"duration":"0.19"},{"name":"F6","midi":89,"time":"296.58","velocity":0.14173228346456693,"duration":"0.13"},{"name":"D#6","midi":87,"time":"296.62","velocity":0.08661417322834646,"duration":"0.06"},{"name":"D6","midi":86,"time":"296.63","velocity":0.15748031496062992,"duration":"0.06"},{"name":"F3","midi":53,"time":"296.66","velocity":0.5039370078740157,"duration":"0.02"},{"name":"E4","midi":64,"time":"296.66","velocity":0.14960629921259844,"duration":"0.05"},{"name":"D#5","midi":75,"time":"296.70","velocity":0.4330708661417323,"duration":"0.10"},{"name":"D6","midi":86,"time":"296.70","velocity":0.31496062992125984,"duration":"0.16"},{"name":"F7","midi":101,"time":"296.70","velocity":0.2204724409448819,"duration":"0.15"},{"name":"D4","midi":62,"time":"296.71","velocity":0.5118110236220472,"duration":"0.02"},{"name":"A#4","midi":70,"time":"296.72","velocity":0.5275590551181102,"duration":"0.02"},{"name":"F5","midi":77,"time":"296.72","velocity":0.33858267716535434,"duration":"0.02"},{"name":"G#5","midi":80,"time":"296.72","velocity":0.4566929133858268,"duration":"0.16"},{"name":"F#6","midi":90,"time":"296.72","velocity":0.30708661417322836,"duration":"0.12"},{"name":"G6","midi":91,"time":"296.72","velocity":0.2755905511811024,"duration":"0.03"},{"name":"A6","midi":93,"time":"296.72","velocity":0.2440944881889764,"duration":"0.03"},{"name":"C7","midi":96,"time":"296.72","velocity":0.2204724409448819,"duration":"0.14"},{"name":"G2","midi":43,"time":"296.73","velocity":0.5196850393700787,"duration":"0.01"},{"name":"D#3","midi":51,"time":"296.73","velocity":0.3779527559055118,"duration":"0.02"},{"name":"C#4","midi":61,"time":"296.73","velocity":0.5354330708661418,"duration":"0.03"},{"name":"F#4","midi":66,"time":"296.73","velocity":0.4251968503937008,"duration":"0.02"},{"name":"A4","midi":69,"time":"296.73","velocity":0.5669291338582677,"duration":"0.05"},{"name":"A#6","midi":94,"time":"296.73","velocity":0.1889763779527559,"duration":"0.23"},{"name":"D#7","midi":99,"time":"296.73","velocity":0.25196850393700787,"duration":"0.17"},{"name":"G3","midi":55,"time":"296.74","velocity":0.5039370078740157,"duration":"0.03"},{"name":"A#5","midi":82,"time":"296.74","velocity":0.23622047244094488,"duration":"0.02"},{"name":"C6","midi":84,"time":"296.74","velocity":0.25196850393700787,"duration":"0.02"},{"name":"C#6","midi":85,"time":"296.74","velocity":0.14173228346456693,"duration":"0.05"},{"name":"F4","midi":65,"time":"296.76","velocity":0.4330708661417323,"duration":"0.03"},{"name":"G5","midi":79,"time":"296.76","velocity":0.25196850393700787,"duration":"0.06"},{"name":"F#2","midi":42,"time":"296.77","velocity":0.5433070866141733,"duration":"0.31"},{"name":"B4","midi":71,"time":"296.77","velocity":0.30708661417322836,"duration":"0.03"},{"name":"A6","midi":93,"time":"296.77","velocity":0.1732283464566929,"duration":"0.10"},{"name":"G#4","midi":68,"time":"296.78","velocity":0.4015748031496063,"duration":"0.42"},{"name":"A#5","midi":82,"time":"296.78","velocity":0.14960629921259844,"duration":"0.06"},{"name":"C6","midi":84,"time":"296.78","velocity":0.33070866141732286,"duration":"0.12"},{"name":"F5","midi":77,"time":"296.79","velocity":0.25196850393700787,"duration":"0.05"},{"name":"E4","midi":64,"time":"296.80","velocity":0.44881889763779526,"duration":"0.33"},{"name":"B4","midi":71,"time":"296.83","velocity":0.3228346456692913,"duration":"0.15"},{"name":"D#5","midi":75,"time":"296.83","velocity":0.33858267716535434,"duration":"0.02"},{"name":"E7","midi":100,"time":"296.84","velocity":0.07086614173228346,"duration":"0.03"},{"name":"A#5","midi":82,"time":"296.85","velocity":0.2125984251968504,"duration":"0.03"},{"name":"G6","midi":91,"time":"296.86","velocity":0.18110236220472442,"duration":"0.13"},{"name":"A#3","midi":58,"time":"296.87","velocity":0.3937007874015748,"duration":"0.02"},{"name":"F#6","midi":90,"time":"296.87","velocity":0.2125984251968504,"duration":"0.34"},{"name":"F7","midi":101,"time":"296.87","velocity":0.2440944881889764,"duration":"0.36"},{"name":"F3","midi":53,"time":"296.88","velocity":0.5039370078740157,"duration":"0.02"},{"name":"C#4","midi":61,"time":"296.88","velocity":0.3858267716535433,"duration":"0.17"},{"name":"A5","midi":81,"time":"296.88","velocity":0.23622047244094488,"duration":"0.02"},{"name":"B5","midi":83,"time":"296.88","velocity":0.3464566929133858,"duration":"0.10"},{"name":"G#5","midi":80,"time":"296.90","velocity":0.4251968503937008,"duration":"0.34"},{"name":"C6","midi":84,"time":"296.91","velocity":0.2440944881889764,"duration":"0.05"},{"name":"D6","midi":86,"time":"296.91","velocity":0.2755905511811024,"duration":"0.13"},{"name":"D#5","midi":75,"time":"296.92","velocity":0.2125984251968504,"duration":"0.06"},{"name":"F3","midi":53,"time":"296.93","velocity":0.5433070866141733,"duration":"0.02"},{"name":"E6","midi":88,"time":"296.95","velocity":0.18110236220472442,"duration":"0.07"},{"name":"F3","midi":53,"time":"296.99","velocity":0.5433070866141733,"duration":"0.03"},{"name":"C6","midi":84,"time":"296.99","velocity":0.2204724409448819,"duration":"0.06"},{"name":"F6","midi":89,"time":"296.99","velocity":0.14960629921259844,"duration":"0.15"},{"name":"B4","midi":71,"time":"297.01","velocity":0.2755905511811024,"duration":"0.07"},{"name":"B6","midi":95,"time":"297.01","velocity":0.18110236220472442,"duration":"0.12"},{"name":"E6","midi":88,"time":"297.03","velocity":0.10236220472440945,"duration":"0.07"},{"name":"F3","midi":53,"time":"297.05","velocity":0.5354330708661418,"duration":"0.02"},{"name":"C6","midi":84,"time":"297.06","velocity":0.2992125984251969,"duration":"0.09"},{"name":"C#4","midi":61,"time":"297.07","velocity":0.30708661417322836,"duration":"0.02"},{"name":"G2","midi":43,"time":"297.08","velocity":0.5511811023622047,"duration":"0.01"},{"name":"D6","midi":86,"time":"297.08","velocity":0.15748031496062992,"duration":"0.07"},{"name":"G#2","midi":44,"time":"297.09","velocity":0.5511811023622047,"duration":"0.02"},{"name":"F5","midi":77,"time":"297.09","velocity":0.16535433070866143,"duration":"0.03"},{"name":"G5","midi":79,"time":"297.09","velocity":0.18110236220472442,"duration":"0.03"},{"name":"G6","midi":91,"time":"297.09","velocity":0.1968503937007874,"duration":"0.07"},{"name":"F#7","midi":102,"time":"297.09","velocity":0.2677165354330709,"duration":"0.22"},{"name":"A#6","midi":94,"time":"297.10","velocity":0.16535433070866143,"duration":"0.05"},{"name":"G2","midi":43,"time":"297.12","velocity":0.5433070866141733,"duration":"0.01"},{"name":"D#5","midi":75,"time":"297.12","velocity":0.25984251968503935,"duration":"0.06"},{"name":"A6","midi":93,"time":"297.12","velocity":0.1732283464566929,"duration":"0.09"},{"name":"D#7","midi":99,"time":"297.12","velocity":0.1968503937007874,"duration":"0.42"},{"name":"E7","midi":100,"time":"297.12","velocity":0.23622047244094488,"duration":"0.22"},{"name":"F#2","midi":42,"time":"297.13","velocity":0.5590551181102362,"duration":"0.21"},{"name":"C#4","midi":61,"time":"297.13","velocity":0.33070866141732286,"duration":"0.03"},{"name":"F#5","midi":78,"time":"297.13","velocity":0.2047244094488189,"duration":"0.03"},{"name":"B5","midi":83,"time":"297.13","velocity":0.2755905511811024,"duration":"0.05"},{"name":"E4","midi":64,"time":"297.14","velocity":0.4015748031496063,"duration":"0.08"},{"name":"E6","midi":88,"time":"297.14","velocity":0.25196850393700787,"duration":"0.03"},{"name":"C6","midi":84,"time":"297.16","velocity":0.2440944881889764,"duration":"0.02"},{"name":"B6","midi":95,"time":"297.17","velocity":0.12598425196850394,"duration":"0.07"},{"name":"B5","midi":83,"time":"297.19","velocity":0.29133858267716534,"duration":"0.06"},{"name":"G7","midi":103,"time":"297.19","velocity":0.08661417322834646,"duration":"0.03"},{"name":"C7","midi":96,"time":"297.20","velocity":0.14960629921259844,"duration":"0.09"},{"name":"G#4","midi":68,"time":"297.21","velocity":0.30708661417322836,"duration":"0.03"},{"name":"F#5","midi":78,"time":"297.21","velocity":0.25984251968503935,"duration":"0.16"},{"name":"D#5","midi":75,"time":"297.22","velocity":0.25984251968503935,"duration":"0.02"},{"name":"D4","midi":62,"time":"297.24","velocity":0.31496062992125984,"duration":"0.02"},{"name":"G#5","midi":80,"time":"297.24","velocity":0.3464566929133858,"duration":"0.36"},{"name":"A#5","midi":82,"time":"297.24","velocity":0.14960629921259844,"duration":"0.06"},{"name":"E6","midi":88,"time":"297.24","velocity":0.07086614173228346,"duration":"0.03"},{"name":"A#6","midi":94,"time":"297.24","velocity":0.15748031496062992,"duration":"0.06"},{"name":"F7","midi":101,"time":"297.26","velocity":0.2125984251968504,"duration":"0.48"},{"name":"D#4","midi":63,"time":"297.27","velocity":0.28346456692913385,"duration":"0.05"},{"name":"G7","midi":103,"time":"297.28","velocity":0.11023622047244094,"duration":"0.05"},{"name":"A5","midi":81,"time":"297.30","velocity":0.1968503937007874,"duration":"0.03"},{"name":"F6","midi":89,"time":"297.30","velocity":0.11811023622047244,"duration":"0.09"},{"name":"C7","midi":96,"time":"297.30","velocity":0.18110236220472442,"duration":"0.42"},{"name":"D7","midi":98,"time":"297.30","velocity":0.1968503937007874,"duration":"0.27"},{"name":"C#4","midi":61,"time":"297.31","velocity":0.3464566929133858,"duration":"0.09"},{"name":"D6","midi":86,"time":"297.31","velocity":0.18110236220472442,"duration":"0.07"},{"name":"A#6","midi":94,"time":"297.31","velocity":0.10236220472440945,"duration":"0.03"},{"name":"F3","midi":53,"time":"297.33","velocity":0.3858267716535433,"duration":"0.02"},{"name":"B6","midi":95,"time":"297.33","velocity":0.1732283464566929,"duration":"0.21"},{"name":"F#7","midi":102,"time":"297.33","velocity":0.29133858267716534,"duration":"1.95"},{"name":"F2","midi":41,"time":"297.34","velocity":0.5590551181102362,"duration":"0.05"},{"name":"B5","midi":83,"time":"297.34","velocity":0.11023622047244094,"duration":"0.03"},{"name":"E3","midi":52,"time":"297.35","velocity":0.4251968503937008,"duration":"0.03"},{"name":"E6","midi":88,"time":"297.35","velocity":0.13385826771653545,"duration":"0.09"},{"name":"A#5","midi":82,"time":"297.36","velocity":0.2283464566929134,"duration":"0.15"},{"name":"A#3","midi":58,"time":"297.37","velocity":0.3228346456692913,"duration":"0.05"},{"name":"E2","midi":40,"time":"297.38","velocity":0.5354330708661418,"duration":"0.05"},{"name":"A4","midi":69,"time":"297.38","velocity":0.14960629921259844,"duration":"0.03"},{"name":"C#4","midi":61,"time":"297.42","velocity":0.2755905511811024,"duration":"0.05"},{"name":"D6","midi":86,"time":"297.42","velocity":0.11811023622047244,"duration":"0.05"},{"name":"C3","midi":48,"time":"297.43","velocity":0.47244094488188976,"duration":"0.02"},{"name":"G3","midi":55,"time":"297.43","velocity":0.47244094488188976,"duration":"0.02"},{"name":"A4","midi":69,"time":"297.43","velocity":0.36220472440944884,"duration":"0.06"},{"name":"F6","midi":89,"time":"297.44","velocity":0.18110236220472442,"duration":"0.05"},{"name":"G7","midi":103,"time":"297.44","velocity":0.2047244094488189,"duration":"0.14"},{"name":"A2","midi":45,"time":"297.45","velocity":0.5275590551181102,"duration":"0.01"},{"name":"F#3","midi":54,"time":"297.45","velocity":0.3937007874015748,"duration":"0.02"},{"name":"D4","midi":62,"time":"297.45","velocity":0.25196850393700787,"duration":"0.02"},{"name":"D#6","midi":87,"time":"297.45","velocity":0.13385826771653545,"duration":"0.05"},{"name":"F2","midi":41,"time":"297.47","velocity":0.5354330708661418,"duration":"0.01"},{"name":"B2","midi":47,"time":"297.47","velocity":0.5433070866141733,"duration":"0.02"},{"name":"E5","midi":76,"time":"297.47","velocity":0.23622047244094488,"duration":"0.06"},{"name":"B5","midi":83,"time":"297.47","velocity":0.2440944881889764,"duration":"0.06"},{"name":"A6","midi":93,"time":"297.47","velocity":0.30708661417322836,"duration":"0.48"},{"name":"D#2","midi":39,"time":"297.48","velocity":0.6299212598425197,"duration":"0.01"},{"name":"C6","midi":84,"time":"297.48","velocity":0.29133858267716534,"duration":"0.07"},{"name":"G6","midi":91,"time":"297.48","velocity":0.15748031496062992,"duration":"0.06"},{"name":"E2","midi":40,"time":"297.49","velocity":0.6692913385826772,"duration":"0.01"},{"name":"C3","midi":48,"time":"297.49","velocity":0.5590551181102362,"duration":"0.01"},{"name":"A#4","midi":70,"time":"297.49","velocity":0.3228346456692913,"duration":"0.02"},{"name":"D5","midi":74,"time":"297.49","velocity":0.2677165354330709,"duration":"0.02"},{"name":"F2","midi":41,"time":"297.50","velocity":0.6299212598425197,"duration":"0.01"},{"name":"F#2","midi":42,"time":"297.51","velocity":0.5984251968503937,"duration":"0.01"},{"name":"B4","midi":71,"time":"297.51","velocity":0.3464566929133858,"duration":"0.15"},{"name":"C#5","midi":73,"time":"297.51","velocity":0.2755905511811024,"duration":"0.06"},{"name":"F#6","midi":90,"time":"297.51","velocity":0.2992125984251969,"duration":"0.37"},{"name":"A#6","midi":94,"time":"297.51","velocity":0.07874015748031496,"duration":"0.03"},{"name":"G1","midi":31,"time":"297.52","velocity":0.6299212598425197,"duration":"0.02"},{"name":"D4","midi":62,"time":"297.52","velocity":0.33070866141732286,"duration":"0.22"},{"name":"A#5","midi":82,"time":"297.52","velocity":0.2125984251968504,"duration":"0.05"},{"name":"B2","midi":47,"time":"297.53","velocity":0.5275590551181102,"duration":"0.01"},{"name":"A4","midi":69,"time":"297.53","velocity":0.23622047244094488,"duration":"0.05"},{"name":"C2","midi":36,"time":"297.55","velocity":0.5118110236220472,"duration":"0.01"},{"name":"C3","midi":48,"time":"297.55","velocity":0.5511811023622047,"duration":"0.01"},{"name":"B5","midi":83,"time":"297.55","velocity":0.3700787401574803,"duration":"0.17"},{"name":"G6","midi":91,"time":"297.55","velocity":0.11023622047244094,"duration":"0.10"},{"name":"B2","midi":47,"time":"297.56","velocity":0.5196850393700787,"duration":"0.01"},{"name":"A5","midi":81,"time":"297.56","velocity":0.3937007874015748,"duration":"0.67"},{"name":"D#7","midi":99,"time":"297.56","velocity":0.14173228346456693,"duration":"0.06"},{"name":"E5","midi":76,"time":"297.57","velocity":0.07086614173228346,"duration":"0.07"},{"name":"B2","midi":47,"time":"297.58","velocity":0.5669291338582677,"duration":"0.28"},{"name":"F#3","midi":54,"time":"297.58","velocity":0.4645669291338583,"duration":"0.24"},{"name":"G1","midi":31,"time":"297.59","velocity":0.4409448818897638,"duration":"0.02"},{"name":"C6","midi":84,"time":"297.59","velocity":0.30708661417322836,"duration":"0.10"},{"name":"G7","midi":103,"time":"297.59","velocity":0.16535433070866143,"duration":"0.06"},{"name":"C#5","midi":73,"time":"297.60","velocity":0.33070866141732286,"duration":"0.08"},{"name":"B1","midi":35,"time":"297.62","velocity":0.2992125984251969,"duration":"0.02"},{"name":"G#5","midi":80,"time":"297.65","velocity":0.1889763779527559,"duration":"0.05"},{"name":"F6","midi":89,"time":"297.66","velocity":0.11023622047244094,"duration":"0.08"},{"name":"F1","midi":29,"time":"297.67","velocity":0.33070866141732286,"duration":"0.02"},{"name":"B4","midi":71,"time":"297.67","velocity":0.4409448818897638,"duration":"0.48"},{"name":"D6","midi":86,"time":"297.67","velocity":0.1968503937007874,"duration":"0.16"},{"name":"D#6","midi":87,"time":"297.69","velocity":0.12598425196850394,"duration":"0.03"},{"name":"G7","midi":103,"time":"297.69","velocity":0.1732283464566929,"duration":"0.15"},{"name":"C#6","midi":85,"time":"297.70","velocity":0.14173228346456693,"duration":"0.06"},{"name":"G6","midi":91,"time":"297.70","velocity":0.07874015748031496,"duration":"0.03"},{"name":"A#1","midi":34,"time":"297.71","velocity":0.3700787401574803,"duration":"0.02"},{"name":"C6","midi":84,"time":"297.71","velocity":0.28346456692913385,"duration":"0.03"},{"name":"G#5","midi":80,"time":"297.72","velocity":0.18110236220472442,"duration":"0.03"},{"name":"C7","midi":96,"time":"297.74","velocity":0.12598425196850394,"duration":"0.05"},{"name":"A4","midi":69,"time":"297.76","velocity":0.23622047244094488,"duration":"0.13"},{"name":"C#6","midi":85,"time":"297.77","velocity":0.14960629921259844,"duration":"0.09"},{"name":"A#6","midi":94,"time":"297.77","velocity":0.10236220472440945,"duration":"0.05"},{"name":"D#4","midi":63,"time":"297.78","velocity":0.2440944881889764,"duration":"0.05"},{"name":"G#6","midi":92,"time":"297.78","velocity":0.25984251968503935,"duration":"0.31"},{"name":"A#1","midi":34,"time":"297.81","velocity":0.33858267716535434,"duration":"0.02"},{"name":"C#5","midi":73,"time":"297.81","velocity":0.28346456692913385,"duration":"0.05"},{"name":"C6","midi":84,"time":"297.83","velocity":0.25984251968503935,"duration":"0.02"},{"name":"D#7","midi":99,"time":"297.83","velocity":0.2125984251968504,"duration":"0.21"},{"name":"F#3","midi":54,"time":"297.84","velocity":0.41732283464566927,"duration":"0.02"},{"name":"D#6","midi":87,"time":"297.84","velocity":0.15748031496062992,"duration":"0.05"},{"name":"E6","midi":88,"time":"297.85","velocity":0.16535433070866143,"duration":"0.14"},{"name":"F7","midi":101,"time":"297.85","velocity":0.2125984251968504,"duration":"0.19"},{"name":"D5","midi":74,"time":"297.86","velocity":0.29133858267716534,"duration":"0.08"},{"name":"C#7","midi":97,"time":"297.86","velocity":0.2204724409448819,"duration":"0.13"},{"name":"G7","midi":103,"time":"297.86","velocity":0.2283464566929134,"duration":"0.12"},{"name":"F2","midi":41,"time":"297.87","velocity":0.48031496062992124,"duration":"0.02"},{"name":"F#3","midi":54,"time":"297.87","velocity":0.5196850393700787,"duration":"0.36"},{"name":"E5","midi":76,"time":"297.87","velocity":0.2440944881889764,"duration":"0.03"},{"name":"D6","midi":86,"time":"297.87","velocity":0.33858267716535434,"duration":"0.42"},{"name":"G6","midi":91,"time":"297.87","velocity":0.15748031496062992,"duration":"0.05"},{"name":"A#6","midi":94,"time":"297.87","velocity":0.15748031496062992,"duration":"0.08"},{"name":"C7","midi":96,"time":"297.87","velocity":0.16535433070866143,"duration":"0.19"},{"name":"D4","midi":62,"time":"297.88","velocity":0.5275590551181102,"duration":"0.34"},{"name":"C3","midi":48,"time":"297.90","velocity":0.4566929133858268,"duration":"0.02"},{"name":"G#5","midi":80,"time":"297.90","velocity":0.13385826771653545,"duration":"0.03"},{"name":"A4","midi":69,"time":"297.92","velocity":0.2204724409448819,"duration":"0.09"},{"name":"C#5","midi":73,"time":"297.93","velocity":0.2992125984251969,"duration":"0.06"},{"name":"C6","midi":84,"time":"297.93","velocity":0.2992125984251969,"duration":"0.13"},{"name":"F6","midi":89,"time":"297.93","velocity":0.07086614173228346,"duration":"0.06"},{"name":"B2","midi":47,"time":"297.94","velocity":0.5433070866141733,"duration":"0.28"},{"name":"G6","midi":91,"time":"297.94","velocity":0.10236220472440945,"duration":"0.03"},{"name":"B1","midi":35,"time":"297.95","velocity":0.28346456692913385,"duration":"0.05"},{"name":"G#5","midi":80,"time":"297.95","velocity":0.12598425196850394,"duration":"0.05"},{"name":"E6","midi":88,"time":"298.00","velocity":0.11811023622047244,"duration":"0.07"},{"name":"C#7","midi":97,"time":"298.00","velocity":0.16535433070866143,"duration":"0.09"},{"name":"F6","midi":89,"time":"298.02","velocity":0.1889763779527559,"duration":"0.08"},{"name":"B1","midi":35,"time":"298.03","velocity":0.2992125984251969,"duration":"0.05"},{"name":"G6","midi":91,"time":"298.03","velocity":0.16535433070866143,"duration":"0.07"},{"name":"A#6","midi":94,"time":"298.03","velocity":0.16535433070866143,"duration":"0.10"},{"name":"A4","midi":69,"time":"298.05","velocity":0.2677165354330709,"duration":"0.02"},{"name":"C#6","midi":85,"time":"298.05","velocity":0.2283464566929134,"duration":"0.57"},{"name":"D#6","midi":87,"time":"298.06","velocity":0.11023622047244094,"duration":"0.08"},{"name":"G7","midi":103,"time":"298.07","velocity":0.25196850393700787,"duration":"0.37"},{"name":"A#1","midi":34,"time":"298.08","velocity":0.2992125984251969,"duration":"0.02"},{"name":"C#5","midi":73,"time":"298.08","velocity":0.4409448818897638,"duration":"0.17"},{"name":"E6","midi":88,"time":"298.09","velocity":0.11023622047244094,"duration":"0.05"},{"name":"C7","midi":96,"time":"298.09","velocity":0.12598425196850394,"duration":"0.12"},{"name":"C2","midi":36,"time":"298.12","velocity":0.2755905511811024,"duration":"0.02"},{"name":"B1","midi":35,"time":"298.14","velocity":0.29133858267716534,"duration":"0.02"},{"name":"A4","midi":69,"time":"298.14","velocity":0.3779527559055118,"duration":"0.09"},{"name":"D#6","midi":87,"time":"298.15","velocity":0.13385826771653545,"duration":"0.06"},{"name":"E6","midi":88,"time":"298.15","velocity":0.10236220472440945,"duration":"0.03"},{"name":"C2","midi":36,"time":"298.16","velocity":0.25984251968503935,"duration":"0.02"},{"name":"G#6","midi":92,"time":"298.16","velocity":0.14173228346456693,"duration":"0.07"},{"name":"C6","midi":84,"time":"298.17","velocity":0.31496062992125984,"duration":"0.07"},{"name":"B1","midi":35,"time":"298.19","velocity":0.28346456692913385,"duration":"0.03"},{"name":"A#5","midi":82,"time":"298.19","velocity":0.13385826771653545,"duration":"0.03"},{"name":"E6","midi":88,"time":"298.20","velocity":0.2677165354330709,"duration":"0.33"},{"name":"D#7","midi":99,"time":"298.21","velocity":0.23622047244094488,"duration":"0.48"},{"name":"A#2","midi":46,"time":"298.22","velocity":0.5118110236220472,"duration":"0.01"},{"name":"F4","midi":65,"time":"298.22","velocity":0.5905511811023622,"duration":"0.02"},{"name":"E5","midi":76,"time":"298.22","velocity":0.4566929133858268,"duration":"0.03"},{"name":"F6","midi":89,"time":"298.22","velocity":0.2283464566929134,"duration":"0.09"},{"name":"G6","midi":91,"time":"298.22","velocity":0.33070866141732286,"duration":"0.05"},{"name":"A#6","midi":94,"time":"298.22","velocity":0.2125984251968504,"duration":"0.06"},{"name":"C#7","midi":97,"time":"298.22","velocity":0.2755905511811024,"duration":"0.35"},{"name":"C4","midi":60,"time":"298.23","velocity":0.47244094488188976,"duration":"0.03"},{"name":"A#5","midi":82,"time":"298.23","velocity":0.28346456692913385,"duration":"0.02"},{"name":"E4","midi":64,"time":"298.24","velocity":0.5196850393700787,"duration":"0.02"},{"name":"G#4","midi":68,"time":"298.24","velocity":0.5275590551181102,"duration":"0.01"},{"name":"A#4","midi":70,"time":"298.24","velocity":0.5433070866141733,"duration":"0.02"},{"name":"D#5","midi":75,"time":"298.24","velocity":0.3700787401574803,"duration":"0.05"},{"name":"F#5","midi":78,"time":"298.24","velocity":0.4015748031496063,"duration":"0.37"},{"name":"B5","midi":83,"time":"298.24","velocity":0.29133858267716534,"duration":"0.09"},{"name":"G#6","midi":92,"time":"298.24","velocity":0.25196850393700787,"duration":"0.40"},{"name":"B6","midi":95,"time":"298.24","velocity":0.2992125984251969,"duration":"0.98"},{"name":"A5","midi":81,"time":"298.26","velocity":0.2677165354330709,"duration":"0.02"},{"name":"B2","midi":47,"time":"298.27","velocity":0.5590551181102362,"duration":"0.34"},{"name":"F#4","midi":66,"time":"298.27","velocity":0.44881889763779526,"duration":"0.02"},{"name":"B4","midi":71,"time":"298.27","velocity":0.44881889763779526,"duration":"0.05"},{"name":"A#5","midi":82,"time":"298.27","velocity":0.3779527559055118,"duration":"0.40"},{"name":"D5","midi":74,"time":"298.28","velocity":0.25196850393700787,"duration":"0.02"},{"name":"F#3","midi":54,"time":"298.29","velocity":0.4881889763779528,"duration":"0.31"},{"name":"A#3","midi":58,"time":"298.29","velocity":0.3937007874015748,"duration":"0.02"},{"name":"D4","midi":62,"time":"298.29","velocity":0.41732283464566927,"duration":"0.35"},{"name":"D6","midi":86,"time":"298.30","velocity":0.33070866141732286,"duration":"0.41"},{"name":"C#5","midi":73,"time":"298.33","velocity":0.33070866141732286,"duration":"0.05"},{"name":"D#5","midi":75,"time":"298.34","velocity":0.23622047244094488,"duration":"0.02"},{"name":"A#3","midi":58,"time":"298.35","velocity":0.44881889763779526,"duration":"0.07"},{"name":"B5","midi":83,"time":"298.35","velocity":0.3858267716535433,"duration":"0.29"},{"name":"B4","midi":71,"time":"298.36","velocity":0.25196850393700787,"duration":"0.02"},{"name":"G#5","midi":80,"time":"298.36","velocity":0.23622047244094488,"duration":"0.08"},{"name":"C7","midi":96,"time":"298.36","velocity":0.28346456692913385,"duration":"0.41"},{"name":"G6","midi":91,"time":"298.37","velocity":0.14960629921259844,"duration":"0.15"},{"name":"B4","midi":71,"time":"298.40","velocity":0.5196850393700787,"duration":"0.37"},{"name":"E5","midi":76,"time":"298.40","velocity":0.14960629921259844,"duration":"0.03"},{"name":"F6","midi":89,"time":"298.41","velocity":0.12598425196850394,"duration":"0.03"},{"name":"D#6","midi":87,"time":"298.42","velocity":0.13385826771653545,"duration":"0.06"},{"name":"A#1","midi":34,"time":"298.44","velocity":0.29133858267716534,"duration":"0.02"},{"name":"A#3","midi":58,"time":"298.45","velocity":0.41732283464566927,"duration":"0.07"},{"name":"A5","midi":81,"time":"298.45","velocity":0.29133858267716534,"duration":"0.08"},{"name":"G#5","midi":80,"time":"298.47","velocity":0.14173228346456693,"duration":"0.03"},{"name":"F6","midi":89,"time":"298.47","velocity":0.2283464566929134,"duration":"0.08"},{"name":"C6","midi":84,"time":"298.49","velocity":0.18110236220472442,"duration":"0.03"},{"name":"A#3","midi":58,"time":"298.53","velocity":0.4330708661417323,"duration":"0.06"},{"name":"B1","midi":35,"time":"298.55","velocity":0.33858267716535434,"duration":"0.02"},{"name":"A5","midi":81,"time":"298.55","velocity":0.1968503937007874,"duration":"0.05"},{"name":"E6","midi":88,"time":"298.55","velocity":0.2125984251968504,"duration":"0.06"},{"name":"G6","midi":91,"time":"298.55","velocity":0.07086614173228346,"duration":"0.05"},{"name":"F7","midi":101,"time":"298.55","velocity":0.25984251968503935,"duration":"0.19"},{"name":"G7","midi":103,"time":"298.55","velocity":0.2755905511811024,"duration":"0.22"},{"name":"B1","midi":35,"time":"298.59","velocity":0.33858267716535434,"duration":"0.02"},{"name":"F6","midi":89,"time":"298.59","velocity":0.16535433070866143,"duration":"0.06"},{"name":"C3","midi":48,"time":"298.60","velocity":0.5118110236220472,"duration":"0.01"},{"name":"A#3","midi":58,"time":"298.60","velocity":0.47244094488188976,"duration":"0.02"},{"name":"C6","midi":84,"time":"298.62","velocity":0.36220472440944884,"duration":"0.41"},{"name":"E6","midi":88,"time":"298.62","velocity":0.2047244094488189,"duration":"0.33"},{"name":"G2","midi":43,"time":"298.63","velocity":0.5590551181102362,"duration":"0.02"},{"name":"C#7","midi":97,"time":"298.64","velocity":0.15748031496062992,"duration":"0.05"},{"name":"B2","midi":47,"time":"298.65","velocity":0.5905511811023622,"duration":"0.06"},{"name":"F#3","midi":54,"time":"298.65","velocity":0.49606299212598426,"duration":"0.27"},{"name":"D4","midi":62,"time":"298.65","velocity":0.4566929133858268,"duration":"0.71"},{"name":"A5","midi":81,"time":"298.65","velocity":0.13385826771653545,"duration":"0.05"},{"name":"D#6","midi":87,"time":"298.65","velocity":0.15748031496062992,"duration":"0.03"},{"name":"F#6","midi":90,"time":"298.65","velocity":0.3858267716535433,"duration":"1.09"},{"name":"A#3","midi":58,"time":"298.66","velocity":0.3858267716535433,"duration":"0.05"},{"name":"A#5","midi":82,"time":"298.67","velocity":0.2755905511811024,"duration":"0.03"},{"name":"C2","midi":36,"time":"298.69","velocity":0.28346456692913385,"duration":"0.02"},{"name":"A4","midi":69,"time":"298.69","velocity":0.3543307086614173,"duration":"0.06"},{"name":"F6","midi":89,"time":"298.69","velocity":0.14960629921259844,"duration":"0.05"},{"name":"G#6","midi":92,"time":"298.69","velocity":0.11023622047244094,"duration":"0.05"},{"name":"A#2","midi":46,"time":"298.71","velocity":0.5590551181102362,"duration":"0.01"},{"name":"B2","midi":47,"time":"298.72","velocity":0.5826771653543307,"duration":"0.12"},{"name":"C#6","midi":85,"time":"298.73","velocity":0.11023622047244094,"duration":"0.15"},{"name":"A#5","midi":82,"time":"298.74","velocity":0.2440944881889764,"duration":"0.14"},{"name":"E5","midi":76,"time":"298.76","velocity":0.07086614173228346,"duration":"0.03"},{"name":"G#6","midi":92,"time":"298.76","velocity":0.13385826771653545,"duration":"0.13"},{"name":"A4","midi":69,"time":"298.77","velocity":0.3700787401574803,"duration":"0.15"},{"name":"D#6","midi":87,"time":"298.79","velocity":0.1889763779527559,"duration":"0.19"},{"name":"B4","midi":71,"time":"298.80","velocity":0.4409448818897638,"duration":"0.19"},{"name":"B1","midi":35,"time":"298.83","velocity":0.2677165354330709,"duration":"0.05"},{"name":"A#2","midi":46,"time":"298.84","velocity":0.5511811023622047,"duration":"0.01"},{"name":"B2","midi":47,"time":"298.85","velocity":0.5826771653543307,"duration":"0.07"},{"name":"A#2","midi":46,"time":"298.92","velocity":0.5511811023622047,"duration":"0.01"},{"name":"G#5","midi":80,"time":"298.92","velocity":0.07086614173228346,"duration":"0.05"},{"name":"B2","midi":47,"time":"298.93","velocity":0.6141732283464567,"duration":"0.06"},{"name":"F#3","midi":54,"time":"298.93","velocity":0.47244094488188976,"duration":"0.05"},{"name":"A4","midi":69,"time":"298.95","velocity":0.33070866141732286,"duration":"0.06"},{"name":"G#3","midi":56,"time":"298.98","velocity":0.4015748031496063,"duration":"0.02"},{"name":"E5","midi":76,"time":"298.98","velocity":0.25196850393700787,"duration":"0.06"},{"name":"G#5","midi":80,"time":"298.98","velocity":0.2677165354330709,"duration":"0.07"},{"name":"A#5","midi":82,"time":"298.98","velocity":0.2283464566929134,"duration":"0.05"},{"name":"D7","midi":98,"time":"298.98","velocity":0.13385826771653545,"duration":"0.08"},{"name":"E7","midi":100,"time":"298.98","velocity":0.1732283464566929,"duration":"0.05"},{"name":"F7","midi":101,"time":"298.98","velocity":0.2283464566929134,"duration":"0.17"},{"name":"G7","midi":103,"time":"298.98","velocity":0.2204724409448819,"duration":"0.09"},{"name":"F2","midi":41,"time":"298.99","velocity":0.6850393700787402,"duration":"0.03"},{"name":"C#6","midi":85,"time":"298.99","velocity":0.11023622047244094,"duration":"0.08"},{"name":"B4","midi":71,"time":"299.00","velocity":0.4330708661417323,"duration":"0.15"},{"name":"C3","midi":48,"time":"299.01","velocity":0.5826771653543307,"duration":"0.02"},{"name":"F3","midi":53,"time":"299.02","velocity":0.5196850393700787,"duration":"0.01"},{"name":"A5","midi":81,"time":"299.02","velocity":0.30708661417322836,"duration":"0.33"},{"name":"F#1","midi":30,"time":"299.03","velocity":0.5354330708661418,"duration":"0.01"},{"name":"A#2","midi":46,"time":"299.03","velocity":0.5905511811023622,"duration":"0.01"},{"name":"C#7","midi":97,"time":"299.03","velocity":0.13385826771653545,"duration":"0.05"},{"name":"B2","midi":47,"time":"299.05","velocity":0.6535433070866141,"duration":"0.02"},{"name":"F#4","midi":66,"time":"299.05","velocity":0.3937007874015748,"duration":"0.31"},{"name":"D#7","midi":99,"time":"299.05","velocity":0.23622047244094488,"duration":"0.40"},{"name":"C6","midi":84,"time":"299.06","velocity":0.30708661417322836,"duration":"0.19"},{"name":"A#2","midi":46,"time":"299.07","velocity":0.5196850393700787,"duration":"0.02"},{"name":"A4","midi":69,"time":"299.08","velocity":0.2440944881889764,"duration":"0.05"},{"name":"G6","midi":91,"time":"299.08","velocity":0.07874015748031496,"duration":"0.03"},{"name":"B2","midi":47,"time":"299.09","velocity":0.5826771653543307,"duration":"0.02"},{"name":"F#3","midi":54,"time":"299.09","velocity":0.4409448818897638,"duration":"0.03"},{"name":"C#6","midi":85,"time":"299.09","velocity":0.30708661417322836,"duration":"0.86"},{"name":"A#2","midi":46,"time":"299.12","velocity":0.5590551181102362,"duration":"0.01"},{"name":"C#5","midi":73,"time":"299.12","velocity":0.3228346456692913,"duration":"0.12"},{"name":"B2","midi":47,"time":"299.13","velocity":0.6062992125984252,"duration":"0.15"},{"name":"F#3","midi":54,"time":"299.14","velocity":0.3937007874015748,"duration":"0.09"},{"name":"G7","midi":103,"time":"299.14","velocity":0.11023622047244094,"duration":"0.05"},{"name":"A4","midi":69,"time":"299.15","velocity":0.29133858267716534,"duration":"0.03"},{"name":"B4","midi":71,"time":"299.16","velocity":0.5118110236220472,"duration":"0.21"},{"name":"G1","midi":31,"time":"299.20","velocity":0.33858267716535434,"duration":"0.02"},{"name":"D#6","midi":87,"time":"299.22","velocity":0.1968503937007874,"duration":"0.17"},{"name":"F#3","midi":54,"time":"299.24","velocity":0.3937007874015748,"duration":"0.05"},{"name":"A4","midi":69,"time":"299.27","velocity":0.31496062992125984,"duration":"0.06"},{"name":"C6","midi":84,"time":"299.27","velocity":0.2755905511811024,"duration":"0.07"},{"name":"B1","midi":35,"time":"299.28","velocity":0.31496062992125984,"duration":"0.02"},{"name":"A#2","midi":46,"time":"299.28","velocity":0.5590551181102362,"duration":"0.01"},{"name":"B2","midi":47,"time":"299.29","velocity":0.5984251968503937,"duration":"0.07"},{"name":"G7","midi":103,"time":"299.29","velocity":0.07874015748031496,"duration":"0.03"},{"name":"F#3","midi":54,"time":"299.33","velocity":0.3779527559055118,"duration":"0.02"},{"name":"C2","midi":36,"time":"299.34","velocity":0.3937007874015748,"duration":"0.02"},{"name":"A4","midi":69,"time":"299.34","velocity":0.30708661417322836,"duration":"0.02"},{"name":"A#5","midi":82,"time":"299.34","velocity":0.2440944881889764,"duration":"0.03"},{"name":"E7","midi":100,"time":"299.35","velocity":0.14960629921259844,"duration":"0.03"},{"name":"F7","midi":101,"time":"299.35","velocity":0.23622047244094488,"duration":"0.21"},{"name":"G7","midi":103,"time":"299.35","velocity":0.1968503937007874,"duration":"0.10"},{"name":"D#2","midi":39,"time":"299.36","velocity":0.5905511811023622,"duration":"0.01"},{"name":"E5","midi":76,"time":"299.36","velocity":0.12598425196850394,"duration":"0.05"},{"name":"A5","midi":81,"time":"299.36","velocity":0.2047244094488189,"duration":"0.05"},{"name":"G#6","midi":92,"time":"299.36","velocity":0.1968503937007874,"duration":"0.19"},{"name":"D7","midi":98,"time":"299.36","velocity":0.13385826771653545,"duration":"0.06"},{"name":"F2","midi":41,"time":"299.37","velocity":0.6614173228346457,"duration":"0.03"},{"name":"D3","midi":50,"time":"299.37","velocity":0.5275590551181102,"duration":"0.02"},{"name":"F#4","midi":66,"time":"299.37","velocity":0.41732283464566927,"duration":"0.03"},{"name":"A#4","midi":70,"time":"299.37","velocity":0.4015748031496063,"duration":"0.02"},{"name":"E6","midi":88,"time":"299.37","velocity":0.3228346456692913,"duration":"0.60"},{"name":"G3","midi":55,"time":"299.38","velocity":0.5118110236220472,"duration":"0.03"},{"name":"B3","midi":59,"time":"299.38","velocity":0.3858267716535433,"duration":"0.06"},{"name":"B4","midi":71,"time":"299.38","velocity":0.4094488188976378,"duration":"0.28"},{"name":"C6","midi":84,"time":"299.38","velocity":0.31496062992125984,"duration":"0.07"},{"name":"C3","midi":48,"time":"299.40","velocity":0.5433070866141733,"duration":"0.01"},{"name":"C#5","midi":73,"time":"299.40","velocity":0.2677165354330709,"duration":"0.09"},{"name":"A2","midi":45,"time":"299.41","velocity":0.6062992125984252,"duration":"0.01"},{"name":"D4","midi":62,"time":"299.41","velocity":0.41732283464566927,"duration":"0.22"},{"name":"F#5","midi":78,"time":"299.41","velocity":0.3543307086614173,"duration":"0.34"},{"name":"A#2","midi":46,"time":"299.42","velocity":0.5984251968503937,"duration":"0.01"},{"name":"B2","midi":47,"time":"299.43","velocity":0.6377952755905512,"duration":"0.06"},{"name":"F#3","midi":54,"time":"299.43","velocity":0.41732283464566927,"duration":"0.02"},{"name":"A5","midi":81,"time":"299.43","velocity":0.11811023622047244,"duration":"0.10"},{"name":"D6","midi":86,"time":"299.43","velocity":0.13385826771653545,"duration":"0.05"},{"name":"A#6","midi":94,"time":"299.43","velocity":0.08661417322834646,"duration":"0.05"},{"name":"A4","midi":69,"time":"299.45","velocity":0.2677165354330709,"duration":"0.06"},{"name":"C6","midi":84,"time":"299.47","velocity":0.2992125984251969,"duration":"0.09"},{"name":"D#6","midi":87,"time":"299.47","velocity":0.1889763779527559,"duration":"0.09"},{"name":"G7","midi":103,"time":"299.48","velocity":0.07086614173228346,"duration":"0.06"},{"name":"A#2","midi":46,"time":"299.49","velocity":0.5590551181102362,"duration":"0.02"},{"name":"B3","midi":59,"time":"299.49","velocity":0.33070866141732286,"duration":"0.02"},{"name":"F#3","midi":54,"time":"299.50","velocity":0.3937007874015748,"duration":"0.14"},{"name":"B2","midi":47,"time":"299.51","velocity":0.5826771653543307,"duration":"0.21"},{"name":"A#6","midi":94,"time":"299.51","velocity":0.12598425196850394,"duration":"0.03"},{"name":"A#5","midi":82,"time":"299.53","velocity":0.16535433070866143,"duration":"0.03"},{"name":"A5","midi":81,"time":"299.55","velocity":0.2992125984251969,"duration":"0.19"},{"name":"B5","midi":83,"time":"299.55","velocity":0.4251968503937008,"duration":"0.06"},{"name":"A#1","midi":34,"time":"299.56","velocity":0.3858267716535433,"duration":"0.02"},{"name":"A4","midi":69,"time":"299.56","velocity":0.31496062992125984,"duration":"0.16"},{"name":"D#7","midi":99,"time":"299.56","velocity":0.07874015748031496,"duration":"0.05"},{"name":"G#5","midi":80,"time":"299.58","velocity":0.07874015748031496,"duration":"0.05"},{"name":"C6","midi":84,"time":"299.59","velocity":0.30708661417322836,"duration":"0.14"},{"name":"F6","midi":89,"time":"299.59","velocity":0.07874015748031496,"duration":"0.05"},{"name":"G#6","midi":92,"time":"299.59","velocity":0.11023622047244094,"duration":"0.05"},{"name":"G7","midi":103,"time":"299.59","velocity":0.10236220472440945,"duration":"0.03"},{"name":"D#7","midi":99,"time":"299.62","velocity":0.09448818897637795,"duration":"0.03"},{"name":"D4","midi":62,"time":"299.64","velocity":0.44881889763779526,"duration":"0.10"},{"name":"A#1","midi":34,"time":"299.65","velocity":0.2992125984251969,"duration":"0.02"},{"name":"F#3","midi":54,"time":"299.66","velocity":0.4094488188976378,"duration":"0.06"},{"name":"C#5","midi":73,"time":"299.66","velocity":0.2677165354330709,"duration":"0.07"},{"name":"D#6","midi":87,"time":"299.67","velocity":0.15748031496062992,"duration":"0.07"},{"name":"B5","midi":83,"time":"299.70","velocity":0.4330708661417323,"duration":"0.05"},{"name":"F#4","midi":66,"time":"299.71","velocity":0.4881889763779528,"duration":"0.03"},{"name":"C3","midi":48,"time":"299.72","velocity":0.5433070866141733,"duration":"0.05"},{"name":"D#5","midi":75,"time":"299.72","velocity":0.36220472440944884,"duration":"0.05"},{"name":"G#5","midi":80,"time":"299.72","velocity":0.41732283464566927,"duration":"0.36"},{"name":"D7","midi":98,"time":"299.72","velocity":0.2204724409448819,"duration":"0.49"},{"name":"G#4","midi":68,"time":"299.73","velocity":0.5590551181102362,"duration":"0.03"},{"name":"F5","midi":77,"time":"299.73","velocity":0.3779527559055118,"duration":"0.03"},{"name":"A#5","midi":82,"time":"299.73","velocity":0.3543307086614173,"duration":"0.07"},{"name":"D6","midi":86,"time":"299.73","velocity":0.3228346456692913,"duration":"0.02"},{"name":"G6","midi":91,"time":"299.73","velocity":0.2677165354330709,"duration":"0.06"},{"name":"C#7","midi":97,"time":"299.73","velocity":0.31496062992125984,"duration":"0.21"},{"name":"G7","midi":103,"time":"299.73","velocity":0.2677165354330709,"duration":"0.13"},{"name":"G3","midi":55,"time":"299.74","velocity":0.5039370078740157,"duration":"0.05"},{"name":"E4","midi":64,"time":"299.74","velocity":0.5275590551181102,"duration":"0.03"},{"name":"A#4","midi":70,"time":"299.74","velocity":0.5039370078740157,"duration":"0.05"},{"name":"C6","midi":84,"time":"299.74","velocity":0.48031496062992124,"duration":"0.36"},{"name":"D#7","midi":99,"time":"299.74","velocity":0.31496062992125984,"duration":"2.22"},{"name":"D5","midi":74,"time":"299.76","velocity":0.3779527559055118,"duration":"0.03"},{"name":"F7","midi":101,"time":"299.76","velocity":0.3464566929133858,"duration":"0.19"},{"name":"B2","midi":47,"time":"299.77","velocity":0.5826771653543307,"duration":"0.33"},{"name":"A4","midi":69,"time":"299.77","velocity":0.41732283464566927,"duration":"0.02"},{"name":"G1","midi":31,"time":"299.78","velocity":0.2755905511811024,"duration":"0.02"},{"name":"F4","midi":65,"time":"299.78","velocity":0.4094488188976378,"duration":"0.02"},{"name":"F#5","midi":78,"time":"299.78","velocity":0.2283464566929134,"duration":"0.02"},{"name":"F#6","midi":90,"time":"299.78","velocity":0.28346456692913385,"duration":"0.23"},{"name":"B4","midi":71,"time":"299.79","velocity":0.3700787401574803,"duration":"0.02"},{"name":"F#3","midi":54,"time":"299.80","velocity":0.4566929133858268,"duration":"0.03"},{"name":"D4","midi":62,"time":"299.80","velocity":0.33858267716535434,"duration":"0.07"},{"name":"F#4","midi":66,"time":"299.80","velocity":0.4881889763779528,"duration":"0.15"},{"name":"D#5","midi":75,"time":"299.80","velocity":0.25196850393700787,"duration":"0.03"},{"name":"F5","midi":77,"time":"299.80","velocity":0.1889763779527559,"duration":"0.05"},{"name":"A5","midi":81,"time":"299.80","velocity":0.2283464566929134,"duration":"0.02"},{"name":"A#4","midi":70,"time":"299.81","velocity":0.33858267716535434,"duration":"0.06"},{"name":"C5","midi":72,"time":"299.81","velocity":0.3228346456692913,"duration":"0.03"},{"name":"G6","midi":91,"time":"299.81","velocity":0.14960629921259844,"duration":"0.05"},{"name":"D6","midi":86,"time":"299.83","velocity":0.25196850393700787,"duration":"0.24"},{"name":"A#3","midi":58,"time":"299.84","velocity":0.4330708661417323,"duration":"0.27"},{"name":"F#3","midi":54,"time":"299.85","velocity":0.4409448818897638,"duration":"0.03"},{"name":"B4","midi":71,"time":"299.87","velocity":0.2204724409448819,"duration":"0.05"},{"name":"D4","midi":62,"time":"299.88","velocity":0.3700787401574803,"duration":"0.22"},{"name":"D#6","midi":87,"time":"299.91","velocity":0.2677165354330709,"duration":"0.27"},{"name":"A4","midi":69,"time":"299.92","velocity":0.3779527559055118,"duration":"0.02"},{"name":"C#5","midi":73,"time":"299.92","velocity":0.2677165354330709,"duration":"0.02"},{"name":"G7","midi":103,"time":"299.93","velocity":0.10236220472440945,"duration":"0.08"},{"name":"G#4","midi":68,"time":"299.94","velocity":0.3937007874015748,"duration":"0.06"},{"name":"D5","midi":74,"time":"299.94","velocity":0.3937007874015748,"duration":"0.06"},{"name":"B1","midi":35,"time":"299.97","velocity":0.2283464566929134,"duration":"0.02"},{"name":"F#3","midi":54,"time":"299.97","velocity":0.3543307086614173,"duration":"0.02"},{"name":"F#4","midi":66,"time":"299.97","velocity":0.36220472440944884,"duration":"0.12"},{"name":"F7","midi":101,"time":"299.97","velocity":0.15748031496062992,"duration":"0.15"},{"name":"C#7","midi":97,"time":"299.98","velocity":0.2125984251968504,"duration":"0.06"},{"name":"C#5","midi":73,"time":"299.99","velocity":0.33858267716535434,"duration":"0.02"},{"name":"E6","midi":88,"time":"299.99","velocity":0.12598425196850394,"duration":"0.09"},{"name":"D5","midi":74,"time":"300.01","velocity":0.3779527559055118,"duration":"0.13"},{"name":"C#6","midi":85,"time":"300.01","velocity":0.10236220472440945,"duration":"0.09"},{"name":"A4","midi":69,"time":"300.02","velocity":0.3464566929133858,"duration":"0.02"},{"name":"A#5","midi":82,"time":"300.03","velocity":0.28346456692913385,"duration":"0.13"},{"name":"B5","midi":83,"time":"300.03","velocity":0.16535433070866143,"duration":"0.03"},{"name":"F#7","midi":102,"time":"300.03","velocity":0.2677165354330709,"duration":"0.56"},{"name":"A#1","midi":34,"time":"300.05","velocity":0.25196850393700787,"duration":"0.02"},{"name":"B4","midi":71,"time":"300.05","velocity":0.28346456692913385,"duration":"0.02"},{"name":"A5","midi":81,"time":"300.05","velocity":0.2047244094488189,"duration":"0.06"},{"name":"G#4","midi":68,"time":"300.06","velocity":0.4094488188976378,"duration":"0.08"},{"name":"G5","midi":79,"time":"300.08","velocity":0.2204724409448819,"duration":"0.03"},{"name":"C3","midi":48,"time":"300.09","velocity":0.5039370078740157,"duration":"0.03"},{"name":"G#5","midi":80,"time":"300.10","velocity":0.44881889763779526,"duration":"0.41"},{"name":"B5","midi":83,"time":"300.10","velocity":0.25196850393700787,"duration":"0.02"},{"name":"E6","midi":88,"time":"300.10","velocity":0.10236220472440945,"duration":"0.03"},{"name":"C7","midi":96,"time":"300.10","velocity":0.2125984251968504,"duration":"0.66"},{"name":"G7","midi":103,"time":"300.10","velocity":0.2283464566929134,"duration":"0.09"},{"name":"A#3","midi":58,"time":"300.12","velocity":0.36220472440944884,"duration":"0.02"},{"name":"D4","midi":62,"time":"300.12","velocity":0.25196850393700787,"duration":"0.02"},{"name":"A6","midi":93,"time":"300.12","velocity":0.23622047244094488,"duration":"0.19"},{"name":"B2","midi":47,"time":"300.13","velocity":0.5748031496062992,"duration":"0.34"},{"name":"F#3","midi":54,"time":"300.13","velocity":0.4251968503937008,"duration":"0.02"},{"name":"C6","midi":84,"time":"300.13","velocity":0.3700787401574803,"duration":"0.93"},{"name":"C#6","midi":85,"time":"300.13","velocity":0.10236220472440945,"duration":"0.06"},{"name":"F7","midi":101,"time":"300.13","velocity":0.2755905511811024,"duration":"0.33"},{"name":"A4","midi":69,"time":"300.14","velocity":0.4251968503937008,"duration":"0.19"},{"name":"D#5","midi":75,"time":"300.14","velocity":0.1732283464566929,"duration":"0.03"},{"name":"D6","midi":86,"time":"300.14","velocity":0.2755905511811024,"duration":"0.06"},{"name":"B6","midi":95,"time":"300.14","velocity":0.15748031496062992,"duration":"0.08"},{"name":"D4","midi":62,"time":"300.15","velocity":0.2440944881889764,"duration":"0.02"},{"name":"C#5","midi":73,"time":"300.15","velocity":0.2992125984251969,"duration":"0.13"},{"name":"G6","midi":91,"time":"300.15","velocity":0.07086614173228346,"duration":"0.03"},{"name":"C#7","midi":97,"time":"300.15","velocity":0.2125984251968504,"duration":"0.09"},{"name":"A#1","midi":34,"time":"300.17","velocity":0.29133858267716534,"duration":"0.02"},{"name":"E6","midi":88,"time":"300.17","velocity":0.14960629921259844,"duration":"0.05"},{"name":"A#3","midi":58,"time":"300.19","velocity":0.3543307086614173,"duration":"0.03"},{"name":"D#6","midi":87,"time":"300.19","velocity":0.3543307086614173,"duration":"0.40"},{"name":"F#4","midi":66,"time":"300.20","velocity":0.3779527559055118,"duration":"0.29"},{"name":"F#3","midi":54,"time":"300.21","velocity":0.4015748031496063,"duration":"0.02"},{"name":"D4","midi":62,"time":"300.21","velocity":0.3543307086614173,"duration":"0.27"},{"name":"A#5","midi":82,"time":"300.21","velocity":0.28346456692913385,"duration":"0.12"},{"name":"D6","midi":86,"time":"300.21","velocity":0.2047244094488189,"duration":"0.05"},{"name":"A#3","midi":58,"time":"300.24","velocity":0.3543307086614173,"duration":"0.02"},{"name":"E6","midi":88,"time":"300.24","velocity":0.2047244094488189,"duration":"0.12"},{"name":"G7","midi":103,"time":"300.24","velocity":0.23622047244094488,"duration":"0.28"},{"name":"F#3","midi":54,"time":"300.26","velocity":0.41732283464566927,"duration":"0.03"},{"name":"C#7","midi":97,"time":"300.27","velocity":0.12598425196850394,"duration":"0.06"},{"name":"B1","midi":35,"time":"300.28","velocity":0.33070866141732286,"duration":"0.06"},{"name":"B6","midi":95,"time":"300.29","velocity":0.07086614173228346,"duration":"0.05"},{"name":"F#3","midi":54,"time":"300.30","velocity":0.3779527559055118,"duration":"0.02"},{"name":"G#4","midi":68,"time":"300.31","velocity":0.33858267716535434,"duration":"0.02"},{"name":"A#6","midi":94,"time":"300.33","velocity":0.13385826771653545,"duration":"0.03"},{"name":"A#1","midi":34,"time":"300.34","velocity":0.2992125984251969,"duration":"0.02"},{"name":"A4","midi":69,"time":"300.34","velocity":0.3228346456692913,"duration":"0.02"},{"name":"F#3","midi":54,"time":"300.35","velocity":0.3700787401574803,"duration":"0.02"},{"name":"C#5","midi":73,"time":"300.35","velocity":0.23622047244094488,"duration":"0.13"},{"name":"D#5","midi":75,"time":"300.35","velocity":0.3464566929133858,"duration":"0.19"},{"name":"A#5","midi":82,"time":"300.36","velocity":0.28346456692913385,"duration":"0.14"},{"name":"A4","midi":69,"time":"300.37","velocity":0.33070866141732286,"duration":"0.02"},{"name":"E6","midi":88,"time":"300.37","velocity":0.18110236220472442,"duration":"0.13"},{"name":"G#4","midi":68,"time":"300.38","velocity":0.4251968503937008,"duration":"0.07"},{"name":"F#3","midi":54,"time":"300.40","velocity":0.3543307086614173,"duration":"0.03"},{"name":"A#3","midi":58,"time":"300.40","velocity":0.33070866141732286,"duration":"0.02"},{"name":"B6","midi":95,"time":"300.41","velocity":0.07086614173228346,"duration":"0.03"},{"name":"A#1","midi":34,"time":"300.43","velocity":0.29133858267716534,"duration":"0.02"},{"name":"C#7","midi":97,"time":"300.43","velocity":0.11023622047244094,"duration":"0.10"},{"name":"G3","midi":55,"time":"300.45","velocity":0.3464566929133858,"duration":"0.02"},{"name":"A4","midi":69,"time":"300.45","velocity":0.2992125984251969,"duration":"0.02"},{"name":"D6","midi":86,"time":"300.45","velocity":0.1889763779527559,"duration":"0.05"},{"name":"F2","midi":41,"time":"300.48","velocity":0.6771653543307087,"duration":"0.02"},{"name":"C#4","midi":61,"time":"300.48","velocity":0.3779527559055118,"duration":"0.02"},{"name":"G#4","midi":68,"time":"300.48","velocity":0.44881889763779526,"duration":"0.52"},{"name":"F5","midi":77,"time":"300.48","velocity":0.23622047244094488,"duration":"0.02"},{"name":"G6","midi":91,"time":"300.48","velocity":0.11023622047244094,"duration":"0.08"},{"name":"A6","midi":93,"time":"300.48","velocity":0.2283464566929134,"duration":"0.08"},{"name":"B6","midi":95,"time":"300.48","velocity":0.09448818897637795,"duration":"0.03"},{"name":"F7","midi":101,"time":"300.48","velocity":0.1968503937007874,"duration":"0.07"},{"name":"F4","midi":65,"time":"300.49","velocity":0.3700787401574803,"duration":"0.02"},{"name":"E2","midi":40,"time":"300.50","velocity":0.6850393700787402,"duration":"0.01"},{"name":"C3","midi":48,"time":"300.50","velocity":0.5433070866141733,"duration":"0.01"},{"name":"F2","midi":41,"time":"300.51","velocity":0.6220472440944882,"duration":"0.01"},{"name":"D4","midi":62,"time":"300.51","velocity":0.4094488188976378,"duration":"0.17"},{"name":"F#5","midi":78,"time":"300.51","velocity":0.30708661417322836,"duration":"0.15"},{"name":"D6","midi":86,"time":"300.51","velocity":0.29133858267716534,"duration":"0.14"},{"name":"E2","midi":40,"time":"300.52","velocity":0.5590551181102362,"duration":"0.01"},{"name":"B3","midi":59,"time":"300.52","velocity":0.25196850393700787,"duration":"0.02"},{"name":"G#5","midi":80,"time":"300.52","velocity":0.4645669291338583,"duration":"1.29"},{"name":"A#6","midi":94,"time":"300.52","velocity":0.10236220472440945,"duration":"0.06"},{"name":"C#2","midi":37,"time":"300.53","velocity":0.5354330708661418,"duration":"0.01"},{"name":"F#3","midi":54,"time":"300.53","velocity":0.5039370078740157,"duration":"0.05"},{"name":"A5","midi":81,"time":"300.53","velocity":0.2283464566929134,"duration":"0.06"},{"name":"A#1","midi":34,"time":"300.55","velocity":0.5354330708661418,"duration":"0.01"},{"name":"C3","midi":48,"time":"300.55","velocity":0.5354330708661418,"duration":"0.02"},{"name":"B1","midi":35,"time":"300.56","velocity":0.5196850393700787,"duration":"0.01"},{"name":"F6","midi":89,"time":"300.57","velocity":0.14960629921259844,"duration":"0.08"},{"name":"B2","midi":47,"time":"300.58","velocity":0.5196850393700787,"duration":"0.01"},{"name":"F3","midi":53,"time":"300.58","velocity":0.5196850393700787,"duration":"0.01"},{"name":"F#3","midi":54,"time":"300.59","velocity":0.5118110236220472,"duration":"0.14"},{"name":"D#6","midi":87,"time":"300.59","velocity":0.2992125984251969,"duration":"0.10"},{"name":"B2","midi":47,"time":"300.60","velocity":0.49606299212598426,"duration":"0.05"},{"name":"C#5","midi":73,"time":"300.60","velocity":0.14960629921259844,"duration":"0.07"},{"name":"D#5","midi":75,"time":"300.60","velocity":0.13385826771653545,"duration":"0.05"},{"name":"F#7","midi":102,"time":"300.60","velocity":0.23622047244094488,"duration":"0.38"},{"name":"B1","midi":35,"time":"300.62","velocity":0.4330708661417323,"duration":"0.05"},{"name":"A#6","midi":94,"time":"300.63","velocity":0.11023622047244094,"duration":"0.17"},{"name":"A5","midi":81,"time":"300.64","velocity":0.28346456692913385,"duration":"0.22"},{"name":"C#7","midi":97,"time":"300.64","velocity":0.07874015748031496,"duration":"0.05"},{"name":"G7","midi":103,"time":"300.64","velocity":0.1889763779527559,"duration":"0.15"},{"name":"G6","midi":91,"time":"300.65","velocity":0.11811023622047244,"duration":"0.03"},{"name":"G#1","midi":32,"time":"300.66","velocity":0.36220472440944884,"duration":"0.02"},{"name":"B2","midi":47,"time":"300.66","velocity":0.5511811023622047,"duration":"0.10"},{"name":"B6","midi":95,"time":"300.66","velocity":0.14173228346456693,"duration":"0.08"},{"name":"E6","midi":88,"time":"300.67","velocity":0.10236220472440945,"duration":"0.06"},{"name":"F#5","midi":78,"time":"300.69","velocity":0.28346456692913385,"duration":"0.19"},{"name":"F7","midi":101,"time":"300.69","velocity":0.13385826771653545,"duration":"0.03"},{"name":"D4","midi":62,"time":"300.70","velocity":0.23622047244094488,"duration":"0.05"},{"name":"D#6","midi":87,"time":"300.71","velocity":0.2440944881889764,"duration":"0.06"},{"name":"G6","midi":91,"time":"300.72","velocity":0.12598425196850394,"duration":"0.08"},{"name":"B1","midi":35,"time":"300.73","velocity":0.4251968503937008,"duration":"0.02"},{"name":"F6","midi":89,"time":"300.73","velocity":0.09448818897637795,"duration":"0.03"},{"name":"F#3","midi":54,"time":"300.74","velocity":0.48031496062992124,"duration":"0.03"},{"name":"E6","midi":88,"time":"300.74","velocity":0.11811023622047244,"duration":"0.03"},{"name":"A#1","midi":34,"time":"300.76","velocity":0.33858267716535434,"duration":"0.05"},{"name":"D4","midi":62,"time":"300.76","velocity":0.2677165354330709,"duration":"0.07"},{"name":"A#2","midi":46,"time":"300.77","velocity":0.5118110236220472,"duration":"0.01"},{"name":"B2","midi":47,"time":"300.78","velocity":0.5354330708661418,"duration":"0.02"},{"name":"F#3","midi":54,"time":"300.79","velocity":0.44881889763779526,"duration":"0.03"},{"name":"C2","midi":36,"time":"300.80","velocity":0.3228346456692913,"duration":"0.02"},{"name":"B3","midi":59,"time":"300.80","velocity":0.2992125984251969,"duration":"0.03"},{"name":"D#6","midi":87,"time":"300.80","velocity":0.3700787401574803,"duration":"0.44"},{"name":"E6","midi":88,"time":"300.80","velocity":0.10236220472440945,"duration":"0.05"},{"name":"B2","midi":47,"time":"300.81","velocity":0.5511811023622047,"duration":"0.02"},{"name":"C#5","midi":73,"time":"300.81","velocity":0.2440944881889764,"duration":"0.02"},{"name":"D#5","midi":75,"time":"300.83","velocity":0.25196850393700787,"duration":"0.03"},{"name":"A#2","midi":46,"time":"300.84","velocity":0.5196850393700787,"duration":"0.01"},{"name":"C4","midi":60,"time":"300.84","velocity":0.25984251968503935,"duration":"0.02"},{"name":"F6","midi":89,"time":"300.84","velocity":0.13385826771653545,"duration":"0.12"},{"name":"G7","midi":103,"time":"300.84","velocity":0.2047244094488189,"duration":"0.24"},{"name":"D5","midi":74,"time":"300.85","velocity":0.29133858267716534,"duration":"0.06"},{"name":"D7","midi":98,"time":"300.85","velocity":0.08661417322834646,"duration":"0.06"},{"name":"E5","midi":76,"time":"300.86","velocity":0.12598425196850394,"duration":"0.06"},{"name":"E6","midi":88,"time":"300.86","velocity":0.15748031496062992,"duration":"0.06"},{"name":"F7","midi":101,"time":"300.86","velocity":0.14960629921259844,"duration":"0.20"},{"name":"A2","midi":45,"time":"300.87","velocity":0.5275590551181102,"duration":"0.01"},{"name":"G3","midi":55,"time":"300.87","velocity":0.48031496062992124,"duration":"0.02"},{"name":"G5","midi":79,"time":"300.87","velocity":0.2440944881889764,"duration":"0.05"},{"name":"A#2","midi":46,"time":"300.88","velocity":0.5354330708661418,"duration":"0.01"},{"name":"D4","midi":62,"time":"300.88","velocity":0.4409448818897638,"duration":"0.35"},{"name":"C#6","midi":85,"time":"300.88","velocity":0.15748031496062992,"duration":"0.07"},{"name":"C#7","midi":97,"time":"300.88","velocity":0.18110236220472442,"duration":"0.09"},{"name":"B2","midi":47,"time":"300.90","velocity":0.6062992125984252,"duration":"0.05"},{"name":"F#3","midi":54,"time":"300.90","velocity":0.4645669291338583,"duration":"0.03"},{"name":"F#6","midi":90,"time":"300.90","velocity":0.1732283464566929,"duration":"0.12"},{"name":"A#6","midi":94,"time":"300.90","velocity":0.1889763779527559,"duration":"0.13"},{"name":"B6","midi":95,"time":"300.90","velocity":0.11023622047244094,"duration":"0.05"},{"name":"C#5","midi":73,"time":"300.91","velocity":0.25196850393700787,"duration":"0.08"},{"name":"A5","midi":81,"time":"300.91","velocity":0.2992125984251969,"duration":"0.29"},{"name":"D6","midi":86,"time":"300.91","velocity":0.2677165354330709,"duration":"0.13"},{"name":"F#5","midi":78,"time":"300.92","velocity":0.3779527559055118,"duration":"0.40"},{"name":"A#2","midi":46,"time":"300.94","velocity":0.5669291338582677,"duration":"0.01"},{"name":"F#3","midi":54,"time":"300.94","velocity":0.3700787401574803,"duration":"0.02"},{"name":"E6","midi":88,"time":"300.94","velocity":0.1732283464566929,"duration":"0.21"},{"name":"B1","midi":35,"time":"300.95","velocity":0.3700787401574803,"duration":"0.08"},{"name":"B2","midi":47,"time":"300.95","velocity":0.5826771653543307,"duration":"0.02"},{"name":"A#5","midi":82,"time":"300.97","velocity":0.2283464566929134,"duration":"0.08"},{"name":"A#2","midi":46,"time":"300.98","velocity":0.5354330708661418,"duration":"0.01"},{"name":"A4","midi":69,"time":"300.98","velocity":0.3779527559055118,"duration":"0.05"},{"name":"B2","midi":47,"time":"300.99","velocity":0.5826771653543307,"duration":"0.03"},{"name":"C#6","midi":85,"time":"300.99","velocity":0.11811023622047244,"duration":"0.17"},{"name":"F6","midi":89,"time":"301.01","velocity":0.07874015748031496,"duration":"0.03"},{"name":"A#2","midi":46,"time":"301.02","velocity":0.5433070866141733,"duration":"0.01"},{"name":"F#7","midi":102,"time":"301.02","velocity":0.13385826771653545,"duration":"0.10"},{"name":"A#1","midi":34,"time":"301.03","velocity":0.28346456692913385,"duration":"0.02"},{"name":"B2","midi":47,"time":"301.03","velocity":0.5748031496062992,"duration":"0.02"},{"name":"A4","midi":69,"time":"301.03","velocity":0.3858267716535433,"duration":"0.08"},{"name":"G#4","midi":68,"time":"301.05","velocity":0.2677165354330709,"duration":"0.02"},{"name":"B5","midi":83,"time":"301.05","velocity":0.1889763779527559,"duration":"0.06"},{"name":"A#2","midi":46,"time":"301.06","velocity":0.5196850393700787,"duration":"0.01"},{"name":"B2","midi":47,"time":"301.07","velocity":0.5748031496062992,"duration":"0.03"},{"name":"C6","midi":84,"time":"301.07","velocity":0.33070866141732286,"duration":"0.22"},{"name":"F#4","midi":66,"time":"301.08","velocity":0.2755905511811024,"duration":"0.05"},{"name":"C#5","midi":73,"time":"301.08","velocity":0.2125984251968504,"duration":"0.05"},{"name":"B1","midi":35,"time":"301.09","velocity":0.3228346456692913,"duration":"0.07"},{"name":"A#2","midi":46,"time":"301.10","velocity":0.5590551181102362,"duration":"0.01"},{"name":"F#3","midi":54,"time":"301.10","velocity":0.3779527559055118,"duration":"0.02"},{"name":"B2","midi":47,"time":"301.12","velocity":0.5826771653543307,"duration":"0.02"},{"name":"G#4","midi":68,"time":"301.12","velocity":0.5748031496062992,"duration":"0.14"},{"name":"A#2","midi":46,"time":"301.14","velocity":0.5354330708661418,"duration":"0.01"},{"name":"F#7","midi":102,"time":"301.14","velocity":0.2125984251968504,"duration":"0.33"},{"name":"B2","midi":47,"time":"301.15","velocity":0.5905511811023622,"duration":"0.03"},{"name":"F6","midi":89,"time":"301.15","velocity":0.11811023622047244,"duration":"0.07"},{"name":"A#1","midi":34,"time":"301.16","velocity":0.2755905511811024,"duration":"0.02"},{"name":"E6","midi":88,"time":"301.16","velocity":0.15748031496062992,"duration":"0.05"},{"name":"F#3","midi":54,"time":"301.17","velocity":0.4094488188976378,"duration":"0.05"},{"name":"B1","midi":35,"time":"301.19","velocity":0.33070866141732286,"duration":"0.03"},{"name":"A#2","midi":46,"time":"301.19","velocity":0.5590551181102362,"duration":"0.01"},{"name":"B2","midi":47,"time":"301.20","velocity":0.5905511811023622,"duration":"0.05"},{"name":"A5","midi":81,"time":"301.21","velocity":0.1889763779527559,"duration":"0.03"},{"name":"C#4","midi":61,"time":"301.22","velocity":0.49606299212598426,"duration":"0.02"},{"name":"B4","midi":71,"time":"301.22","velocity":0.5275590551181102,"duration":"0.03"},{"name":"B6","midi":95,"time":"301.22","velocity":0.23622047244094488,"duration":"0.17"},{"name":"E4","midi":64,"time":"301.23","velocity":0.5196850393700787,"duration":"0.03"},{"name":"G6","midi":91,"time":"301.23","velocity":0.2047244094488189,"duration":"0.03"},{"name":"A6","midi":93,"time":"301.23","velocity":0.1889763779527559,"duration":"0.03"},{"name":"A#6","midi":94,"time":"301.23","velocity":0.2283464566929134,"duration":"0.06"},{"name":"C#7","midi":97,"time":"301.23","velocity":0.2125984251968504,"duration":"0.22"},{"name":"F7","midi":101,"time":"301.23","velocity":0.2204724409448819,"duration":"0.17"},{"name":"F#3","midi":54,"time":"301.26","velocity":0.5511811023622047,"duration":"0.01"},{"name":"A4","midi":69,"time":"301.26","velocity":0.5590551181102362,"duration":"0.01"},{"name":"D#5","midi":75,"time":"301.26","velocity":0.4645669291338583,"duration":"0.02"},{"name":"A#5","midi":82,"time":"301.26","velocity":0.4330708661417323,"duration":"0.38"},{"name":"C#6","midi":85,"time":"301.26","velocity":0.1732283464566929,"duration":"0.03"},{"name":"G3","midi":55,"time":"301.27","velocity":0.5511811023622047,"duration":"0.02"},{"name":"A#4","midi":70,"time":"301.27","velocity":0.4566929133858268,"duration":"0.02"},{"name":"E5","midi":76,"time":"301.27","velocity":0.30708661417322836,"duration":"0.06"},{"name":"F6","midi":89,"time":"301.27","velocity":0.2283464566929134,"duration":"0.08"},{"name":"B2","midi":47,"time":"301.28","velocity":0.5118110236220472,"duration":"0.01"},{"name":"C#4","midi":61,"time":"301.28","velocity":0.33070866141732286,"duration":"0.02"},{"name":"B5","midi":83,"time":"301.28","velocity":0.2677165354330709,"duration":"0.08"},{"name":"D6","midi":86,"time":"301.28","velocity":0.1968503937007874,"duration":"0.03"},{"name":"A6","midi":93,"time":"301.28","velocity":0.23622047244094488,"duration":"0.15"},{"name":"G7","midi":103,"time":"301.28","velocity":0.18110236220472442,"duration":"0.07"},{"name":"A#2","midi":46,"time":"301.29","velocity":0.5118110236220472,"duration":"0.01"},{"name":"F#3","midi":54,"time":"301.29","velocity":0.4881889763779528,"duration":"0.06"},{"name":"G#4","midi":68,"time":"301.29","velocity":0.47244094488188976,"duration":"0.08"},{"name":"B2","midi":47,"time":"301.30","velocity":0.5669291338582677,"duration":"0.29"},{"name":"D4","midi":62,"time":"301.30","velocity":0.31496062992125984,"duration":"0.08"},{"name":"C5","midi":72,"time":"301.30","velocity":0.2992125984251969,"duration":"0.03"},{"name":"D5","midi":74,"time":"301.30","velocity":0.3858267716535433,"duration":"0.33"},{"name":"C#6","midi":85,"time":"301.30","velocity":0.23622047244094488,"duration":"0.33"},{"name":"F#5","midi":78,"time":"301.33","velocity":0.33070866141732286,"duration":"0.31"},{"name":"A#4","midi":70,"time":"301.34","velocity":0.31496062992125984,"duration":"0.02"},{"name":"E5","midi":76,"time":"301.34","velocity":0.1732283464566929,"duration":"0.03"},{"name":"F#3","midi":54,"time":"301.36","velocity":0.5196850393700787,"duration":"0.03"},{"name":"C6","midi":84,"time":"301.37","velocity":0.2204724409448819,"duration":"0.17"},{"name":"B1","midi":35,"time":"301.38","velocity":0.25196850393700787,"duration":"0.03"},{"name":"G#4","midi":68,"time":"301.38","velocity":0.3858267716535433,"duration":"0.07"},{"name":"A#4","midi":70,"time":"301.38","velocity":0.29133858267716534,"duration":"0.03"},{"name":"D4","midi":62,"time":"301.40","velocity":0.2992125984251969,"duration":"0.06"},{"name":"F#4","midi":66,"time":"301.41","velocity":0.31496062992125984,"duration":"0.02"},{"name":"F#3","midi":54,"time":"301.42","velocity":0.49606299212598426,"duration":"0.17"},{"name":"A#1","midi":34,"time":"301.44","velocity":0.2283464566929134,"duration":"0.02"},{"name":"A#3","midi":58,"time":"301.45","velocity":0.4094488188976378,"duration":"0.03"},{"name":"E6","midi":88,"time":"301.47","velocity":0.23622047244094488,"duration":"0.24"},{"name":"F7","midi":101,"time":"301.47","velocity":0.12598425196850394,"duration":"0.08"},{"name":"D4","midi":62,"time":"301.48","velocity":0.2204724409448819,"duration":"0.05"},{"name":"F#7","midi":102,"time":"301.48","velocity":0.14960629921259844,"duration":"0.05"},{"name":"G#4","midi":68,"time":"301.49","velocity":0.36220472440944884,"duration":"0.02"},{"name":"A4","midi":69,"time":"301.51","velocity":0.36220472440944884,"duration":"0.02"},{"name":"D#6","midi":87,"time":"301.51","velocity":0.2755905511811024,"duration":"0.16"},{"name":"G#4","midi":68,"time":"301.53","velocity":0.33070866141732286,"duration":"0.02"},{"name":"C#7","midi":97,"time":"301.55","velocity":0.25196850393700787,"duration":"0.19"},{"name":"D4","midi":62,"time":"301.56","velocity":0.1889763779527559,"duration":"0.03"},{"name":"A#1","midi":34,"time":"301.57","velocity":0.31496062992125984,"duration":"0.02"},{"name":"C6","midi":84,"time":"301.58","velocity":0.1889763779527559,"duration":"0.05"},{"name":"C3","midi":48,"time":"301.59","velocity":0.5511811023622047,"duration":"0.03"},{"name":"G4","midi":67,"time":"301.59","velocity":0.3700787401574803,"duration":"0.02"},{"name":"A4","midi":69,"time":"301.59","velocity":0.29133858267716534,"duration":"0.03"},{"name":"A6","midi":93,"time":"301.59","velocity":0.11811023622047244,"duration":"0.07"},{"name":"G#3","midi":56,"time":"301.60","velocity":0.4330708661417323,"duration":"0.02"},{"name":"G7","midi":103,"time":"301.60","velocity":0.1889763779527559,"duration":"0.08"},{"name":"F#4","midi":66,"time":"301.62","velocity":0.2677165354330709,"duration":"0.02"},{"name":"G6","midi":91,"time":"301.62","velocity":0.12598425196850394,"duration":"0.03"},{"name":"F7","midi":101,"time":"301.62","velocity":0.1732283464566929,"duration":"0.12"},{"name":"F#7","midi":102,"time":"301.62","velocity":0.2283464566929134,"duration":"0.21"},{"name":"B2","midi":47,"time":"301.63","velocity":0.6062992125984252,"duration":"0.34"},{"name":"E4","midi":64,"time":"301.63","velocity":0.2755905511811024,"duration":"0.02"},{"name":"D7","midi":98,"time":"301.63","velocity":0.18110236220472442,"duration":"0.07"},{"name":"F#3","midi":54,"time":"301.64","velocity":0.44881889763779526,"duration":"0.09"},{"name":"A4","midi":69,"time":"301.64","velocity":0.4251968503937008,"duration":"0.08"},{"name":"D5","midi":74,"time":"301.64","velocity":0.25984251968503935,"duration":"0.03"},{"name":"C6","midi":84,"time":"301.64","velocity":0.3228346456692913,"duration":"0.35"},{"name":"D4","midi":62,"time":"301.65","velocity":0.4566929133858268,"duration":"0.33"},{"name":"C#6","midi":85,"time":"301.66","velocity":0.1968503937007874,"duration":"0.36"},{"name":"C#5","midi":73,"time":"301.67","velocity":0.3228346456692913,"duration":"0.13"},{"name":"B1","midi":35,"time":"301.69","velocity":0.28346456692913385,"duration":"0.07"},{"name":"D6","midi":86,"time":"301.69","velocity":0.2992125984251969,"duration":"0.08"},{"name":"D#6","midi":87,"time":"301.69","velocity":0.2755905511811024,"duration":"0.37"},{"name":"D#5","midi":75,"time":"301.71","velocity":0.18110236220472442,"duration":"0.03"},{"name":"A#5","midi":82,"time":"301.71","velocity":0.25984251968503935,"duration":"0.03"},{"name":"E6","midi":88,"time":"301.72","velocity":0.14173228346456693,"duration":"0.09"},{"name":"F6","midi":89,"time":"301.72","velocity":0.10236220472440945,"duration":"0.03"},{"name":"F#3","midi":54,"time":"301.74","velocity":0.4330708661417323,"duration":"0.03"},{"name":"F#4","midi":66,"time":"301.74","velocity":0.4330708661417323,"duration":"0.26"},{"name":"A4","midi":69,"time":"301.76","velocity":0.3700787401574803,"duration":"0.02"},{"name":"F7","midi":101,"time":"301.76","velocity":0.11023622047244094,"duration":"0.06"},{"name":"G#4","midi":68,"time":"301.78","velocity":0.3937007874015748,"duration":"0.02"},{"name":"D6","midi":86,"time":"301.78","velocity":0.14960629921259844,"duration":"0.03"},{"name":"G#4","midi":68,"time":"301.81","velocity":0.36220472440944884,"duration":"0.03"},{"name":"G7","midi":103,"time":"301.81","velocity":0.2047244094488189,"duration":"0.36"},{"name":"G#5","midi":80,"time":"301.83","velocity":0.4645669291338583,"duration":"0.16"},{"name":"E6","midi":88,"time":"301.83","velocity":0.13385826771653545,"duration":"0.10"},{"name":"F#3","midi":54,"time":"301.84","velocity":0.3937007874015748,"duration":"0.03"},{"name":"A#6","midi":94,"time":"301.85","velocity":0.16535433070866143,"duration":"0.05"},{"name":"F#7","midi":102,"time":"301.85","velocity":0.1889763779527559,"duration":"0.29"},{"name":"G#4","midi":68,"time":"301.86","velocity":0.30708661417322836,"duration":"0.02"},{"name":"A#5","midi":82,"time":"301.87","velocity":0.25196850393700787,"duration":"0.07"},{"name":"A4","midi":69,"time":"301.88","velocity":0.25984251968503935,"duration":"0.09"},{"name":"C#5","midi":73,"time":"301.94","velocity":0.3228346456692913,"duration":"0.06"},{"name":"A5","midi":81,"time":"301.95","velocity":0.31496062992125984,"duration":"0.08"},{"name":"C3","midi":48,"time":"301.97","velocity":0.5984251968503937,"duration":"0.02"},{"name":"D#5","midi":75,"time":"301.97","velocity":0.2992125984251969,"duration":"0.03"},{"name":"E6","midi":88,"time":"301.97","velocity":0.12598425196850394,"duration":"0.12"},{"name":"G#2","midi":44,"time":"301.98","velocity":0.5511811023622047,"duration":"0.01"},{"name":"G5","midi":79,"time":"301.98","velocity":0.33070866141732286,"duration":"0.03"},{"name":"B5","midi":83,"time":"301.98","velocity":0.18110236220472442,"duration":"0.08"},{"name":"D7","midi":98,"time":"301.98","velocity":0.10236220472440945,"duration":"0.07"},{"name":"D#7","midi":99,"time":"301.98","velocity":0.28346456692913385,"duration":"1.19"},{"name":"F7","midi":101,"time":"301.98","velocity":0.1732283464566929,"duration":"0.19"},{"name":"A2","midi":45,"time":"301.99","velocity":0.6692913385826772,"duration":"0.01"},{"name":"G#3","midi":56,"time":"301.99","velocity":0.4251968503937008,"duration":"0.03"},{"name":"A4","midi":69,"time":"301.99","velocity":0.3779527559055118,"duration":"0.19"},{"name":"F6","midi":89,"time":"301.99","velocity":0.09448818897637795,"duration":"0.06"},{"name":"G#6","midi":92,"time":"301.99","velocity":0.3543307086614173,"duration":"1.02"},{"name":"F2","midi":41,"time":"302.00","velocity":0.6535433070866141,"duration":"0.02"},{"name":"C3","midi":48,"time":"302.00","velocity":0.5905511811023622,"duration":"0.01"},{"name":"F4","midi":65,"time":"302.00","velocity":0.31496062992125984,"duration":"0.03"},{"name":"D5","midi":74,"time":"302.00","velocity":0.25984251968503935,"duration":"0.03"},{"name":"G#5","midi":80,"time":"302.00","velocity":0.5039370078740157,"duration":"0.16"},{"name":"C6","midi":84,"time":"302.00","velocity":0.18110236220472442,"duration":"0.03"},{"name":"A#6","midi":94,"time":"302.00","velocity":0.1889763779527559,"duration":"0.09"},{"name":"F#5","midi":78,"time":"302.01","velocity":0.33858267716535434,"duration":"0.35"},{"name":"A2","midi":45,"time":"302.02","velocity":0.5905511811023622,"duration":"0.01"},{"name":"D4","midi":62,"time":"302.02","velocity":0.41732283464566927,"duration":"0.35"},{"name":"A#5","midi":82,"time":"302.02","velocity":0.1732283464566929,"duration":"0.05"},{"name":"D1","midi":26,"time":"302.03","velocity":0.5354330708661418,"duration":"0.01"},{"name":"B2","midi":47,"time":"302.03","velocity":0.5196850393700787,"duration":"0.03"},{"name":"F#3","midi":54,"time":"302.03","velocity":0.4251968503937008,"duration":"0.02"},{"name":"C#5","midi":73,"time":"302.03","velocity":0.3228346456692913,"duration":"0.20"},{"name":"A1","midi":33,"time":"302.05","velocity":0.5511811023622047,"duration":"0.01"},{"name":"C6","midi":84,"time":"302.05","velocity":0.25196850393700787,"duration":"0.15"},{"name":"D6","midi":86,"time":"302.05","velocity":0.2047244094488189,"duration":"0.20"},{"name":"B1","midi":35,"time":"302.06","velocity":0.5354330708661418,"duration":"0.03"},{"name":"G6","midi":91,"time":"302.06","velocity":0.08661417322834646,"duration":"0.06"},{"name":"C3","midi":48,"time":"302.07","velocity":0.5826771653543307,"duration":"0.01"},{"name":"B2","midi":47,"time":"302.08","velocity":0.5826771653543307,"duration":"0.21"},{"name":"D#6","midi":87,"time":"302.08","velocity":0.33070866141732286,"duration":"0.29"},{"name":"F#3","midi":54,"time":"302.09","velocity":0.3779527559055118,"duration":"0.02"},{"name":"B6","midi":95,"time":"302.09","velocity":0.15748031496062992,"duration":"0.09"},{"name":"D#5","midi":75,"time":"302.10","velocity":0.1889763779527559,"duration":"0.08"},{"name":"E6","midi":88,"time":"302.12","velocity":0.1889763779527559,"duration":"0.06"},{"name":"A#6","midi":94,"time":"302.13","velocity":0.07086614173228346,"duration":"0.08"},{"name":"A#1","midi":34,"time":"302.14","velocity":0.4251968503937008,"duration":"0.02"},{"name":"F#3","midi":54,"time":"302.15","velocity":0.36220472440944884,"duration":"0.06"},{"name":"A#5","midi":82,"time":"302.15","velocity":0.25984251968503935,"duration":"0.03"},{"name":"F#7","midi":102,"time":"302.15","velocity":0.14173228346456693,"duration":"0.06"},{"name":"G1","midi":31,"time":"302.17","velocity":0.33858267716535434,"duration":"0.02"},{"name":"G#4","midi":68,"time":"302.17","velocity":0.3858267716535433,"duration":"0.03"},{"name":"B5","midi":83,"time":"302.19","velocity":0.15748031496062992,"duration":"0.03"},{"name":"F#4","midi":66,"time":"302.20","velocity":0.4015748031496063,"duration":"0.15"},{"name":"G7","midi":103,"time":"302.20","velocity":0.14960629921259844,"duration":"0.06"},{"name":"C6","midi":84,"time":"302.21","velocity":0.31496062992125984,"duration":"0.51"},{"name":"F#3","midi":54,"time":"302.22","velocity":0.3937007874015748,"duration":"0.05"},{"name":"F#7","midi":102,"time":"302.22","velocity":0.14173228346456693,"duration":"0.09"},{"name":"E6","midi":88,"time":"302.23","velocity":0.07874015748031496,"duration":"0.07"},{"name":"C#6","midi":85,"time":"302.27","velocity":0.1968503937007874,"duration":"0.13"},{"name":"C#7","midi":97,"time":"302.28","velocity":0.25196850393700787,"duration":"0.27"},{"name":"C3","midi":48,"time":"302.29","velocity":0.6220472440944882,"duration":"0.05"},{"name":"G#3","midi":56,"time":"302.29","velocity":0.2992125984251969,"duration":"0.02"},{"name":"G#4","midi":68,"time":"302.29","velocity":0.3779527559055118,"duration":"0.08"},{"name":"A#1","midi":34,"time":"302.31","velocity":0.2677165354330709,"duration":"0.02"},{"name":"F#3","midi":54,"time":"302.31","velocity":0.3779527559055118,"duration":"0.02"},{"name":"C#3","midi":49,"time":"302.34","velocity":0.5275590551181102,"duration":"0.01"},{"name":"D#5","midi":75,"time":"302.34","velocity":0.3543307086614173,"duration":"0.05"},{"name":"F#2","midi":42,"time":"302.35","velocity":0.6141732283464567,"duration":"0.01"},{"name":"G6","midi":91,"time":"302.35","velocity":0.12598425196850394,"duration":"0.05"},{"name":"A#6","midi":94,"time":"302.35","velocity":0.1889763779527559,"duration":"0.05"},{"name":"D7","midi":98,"time":"302.35","velocity":0.11811023622047244,"duration":"0.06"},{"name":"F7","midi":101,"time":"302.35","velocity":0.14960629921259844,"duration":"0.09"},{"name":"F#7","midi":102,"time":"302.35","velocity":0.2755905511811024,"duration":"1.06"},{"name":"G7","midi":103,"time":"302.35","velocity":0.14960629921259844,"duration":"0.20"},{"name":"F2","midi":41,"time":"302.36","velocity":0.6850393700787402,"duration":"0.01"},{"name":"A3","midi":57,"time":"302.36","velocity":0.47244094488188976,"duration":"0.02"},{"name":"F4","midi":65,"time":"302.36","velocity":0.2440944881889764,"duration":"0.02"},{"name":"C5","midi":72,"time":"302.36","velocity":0.25984251968503935,"duration":"0.02"},{"name":"G5","midi":79,"time":"302.36","velocity":0.25984251968503935,"duration":"0.06"},{"name":"E2","midi":40,"time":"302.37","velocity":0.6535433070866141,"duration":"0.01"},{"name":"E6","midi":88,"time":"302.37","velocity":0.2283464566929134,"duration":"0.13"},{"name":"F2","midi":41,"time":"302.38","velocity":0.5669291338582677,"duration":"0.01"},{"name":"G#3","midi":56,"time":"302.38","velocity":0.4094488188976378,"duration":"0.07"},{"name":"D4","midi":62,"time":"302.38","velocity":0.4881889763779528,"duration":"0.37"},{"name":"B4","midi":71,"time":"302.38","velocity":0.23622047244094488,"duration":"0.05"},{"name":"D#1","midi":27,"time":"302.40","velocity":0.5275590551181102,"duration":"0.01"},{"name":"C#3","midi":49,"time":"302.40","velocity":0.6062992125984252,"duration":"0.02"},{"name":"G#4","midi":68,"time":"302.40","velocity":0.48031496062992124,"duration":"0.14"},{"name":"F#6","midi":90,"time":"302.40","velocity":0.14173228346456693,"duration":"0.06"},{"name":"F#1","midi":30,"time":"302.41","velocity":0.5354330708661418,"duration":"0.01"},{"name":"A#6","midi":94,"time":"302.41","velocity":0.15748031496062992,"duration":"0.06"},{"name":"C3","midi":48,"time":"302.42","velocity":0.6299212598425197,"duration":"0.01"},{"name":"F#5","midi":78,"time":"302.42","velocity":0.2440944881889764,"duration":"0.31"},{"name":"C#6","midi":85,"time":"302.42","velocity":0.1889763779527559,"duration":"0.31"},{"name":"D#2","midi":39,"time":"302.43","velocity":0.5196850393700787,"duration":"0.01"},{"name":"C#3","midi":49,"time":"302.43","velocity":0.5669291338582677,"duration":"0.01"},{"name":"D3","midi":50,"time":"302.44","velocity":0.5511811023622047,"duration":"0.01"},{"name":"C#5","midi":73,"time":"302.44","velocity":0.28346456692913385,"duration":"0.06"},{"name":"A#5","midi":82,"time":"302.44","velocity":0.23622047244094488,"duration":"0.03"},{"name":"D#6","midi":87,"time":"302.44","velocity":0.3779527559055118,"duration":"1.15"},{"name":"C#3","midi":49,"time":"302.45","velocity":0.5590551181102362,"duration":"0.24"},{"name":"G#3","midi":56,"time":"302.47","velocity":0.3228346456692913,"duration":"0.03"},{"name":"A#6","midi":94,"time":"302.49","velocity":0.11023622047244094,"duration":"0.03"},{"name":"F7","midi":101,"time":"302.49","velocity":0.14173228346456693,"duration":"0.08"},{"name":"A#5","midi":82,"time":"302.51","velocity":0.23622047244094488,"duration":"0.07"},{"name":"F#4","midi":66,"time":"302.52","velocity":0.4015748031496063,"duration":"0.10"},{"name":"E6","midi":88,"time":"302.53","velocity":0.2440944881889764,"duration":"0.05"},{"name":"G#3","midi":56,"time":"302.56","velocity":0.3700787401574803,"duration":"0.03"},{"name":"A4","midi":69,"time":"302.56","velocity":0.4094488188976378,"duration":"0.06"},{"name":"C2","midi":36,"time":"302.60","velocity":0.31496062992125984,"duration":"0.05"},{"name":"G#3","midi":56,"time":"302.60","velocity":0.3543307086614173,"duration":"0.02"},{"name":"E6","midi":88,"time":"302.60","velocity":0.16535433070866143,"duration":"0.03"},{"name":"G3","midi":55,"time":"302.63","velocity":0.4251968503937008,"duration":"0.02"},{"name":"A4","midi":69,"time":"302.63","velocity":0.4566929133858268,"duration":"0.02"},{"name":"C#5","midi":73,"time":"302.63","velocity":0.2677165354330709,"duration":"0.09"},{"name":"D#5","midi":75,"time":"302.63","velocity":0.33858267716535434,"duration":"0.12"},{"name":"G#4","midi":68,"time":"302.64","velocity":0.41732283464566927,"duration":"0.02"},{"name":"F7","midi":101,"time":"302.64","velocity":0.09448818897637795,"duration":"0.03"},{"name":"G#3","midi":56,"time":"302.65","velocity":0.4015748031496063,"duration":"0.02"},{"name":"F#4","midi":66,"time":"302.66","velocity":0.41732283464566927,"duration":"0.07"},{"name":"E6","midi":88,"time":"302.66","velocity":0.2755905511811024,"duration":"0.48"},{"name":"G3","midi":55,"time":"302.67","velocity":0.4645669291338583,"duration":"0.02"},{"name":"G#4","midi":68,"time":"302.67","velocity":0.47244094488188976,"duration":"0.03"},{"name":"A#6","midi":94,"time":"302.69","velocity":0.11023622047244094,"duration":"0.03"},{"name":"D3","midi":50,"time":"302.70","velocity":0.5118110236220472,"duration":"0.01"},{"name":"A6","midi":93,"time":"302.70","velocity":0.18110236220472442,"duration":"0.05"},{"name":"B6","midi":95,"time":"302.70","velocity":0.2283464566929134,"duration":"0.05"},{"name":"G7","midi":103,"time":"302.70","velocity":0.2125984251968504,"duration":"0.10"},{"name":"C#3","midi":49,"time":"302.71","velocity":0.5511811023622047,"duration":"0.02"},{"name":"A4","midi":69,"time":"302.71","velocity":0.4566929133858268,"duration":"0.02"},{"name":"F6","midi":89,"time":"302.71","velocity":0.14960629921259844,"duration":"0.03"},{"name":"G6","midi":91,"time":"302.71","velocity":0.2440944881889764,"duration":"0.08"},{"name":"G#4","midi":68,"time":"302.72","velocity":0.5669291338582677,"duration":"0.03"},{"name":"F5","midi":77,"time":"302.72","velocity":0.3937007874015748,"duration":"0.02"},{"name":"B5","midi":83,"time":"302.72","velocity":0.36220472440944884,"duration":"0.02"},{"name":"D6","midi":86,"time":"302.72","velocity":0.1889763779527559,"duration":"0.08"},{"name":"C#7","midi":97,"time":"302.72","velocity":0.30708661417322836,"duration":"0.52"},{"name":"D3","midi":50,"time":"302.73","velocity":0.5984251968503937,"duration":"0.01"},{"name":"G#3","midi":56,"time":"302.73","velocity":0.5511811023622047,"duration":"0.03"},{"name":"A#6","midi":94,"time":"302.73","velocity":0.25196850393700787,"duration":"0.30"},{"name":"D7","midi":98,"time":"302.73","velocity":0.25196850393700787,"duration":"0.05"},{"name":"C#3","midi":49,"time":"302.74","velocity":0.5905511811023622,"duration":"0.35"},{"name":"A#4","midi":70,"time":"302.74","velocity":0.5039370078740157,"duration":"0.06"},{"name":"C#5","midi":73,"time":"302.74","velocity":0.44881889763779526,"duration":"0.02"},{"name":"E5","midi":76,"time":"302.74","velocity":0.49606299212598426,"duration":"0.03"},{"name":"C6","midi":84,"time":"302.74","velocity":0.41732283464566927,"duration":"0.05"},{"name":"F#6","midi":90,"time":"302.74","velocity":0.25196850393700787,"duration":"0.06"},{"name":"F7","midi":101,"time":"302.74","velocity":0.1968503937007874,"duration":"0.31"},{"name":"B1","midi":35,"time":"302.76","velocity":0.2440944881889764,"duration":"0.02"},{"name":"A6","midi":93,"time":"302.76","velocity":0.18110236220472442,"duration":"0.22"},{"name":"B6","midi":95,"time":"302.76","velocity":0.15748031496062992,"duration":"0.09"},{"name":"F#4","midi":66,"time":"302.77","velocity":0.44881889763779526,"duration":"0.03"},{"name":"C5","midi":72,"time":"302.77","velocity":0.31496062992125984,"duration":"0.02"},{"name":"D#5","midi":75,"time":"302.77","velocity":0.36220472440944884,"duration":"0.02"},{"name":"B5","midi":83,"time":"302.77","velocity":0.2204724409448819,"duration":"0.06"},{"name":"F6","midi":89,"time":"302.77","velocity":0.16535433070866143,"duration":"0.07"},{"name":"G#3","midi":56,"time":"302.78","velocity":0.4645669291338583,"duration":"0.06"},{"name":"B4","midi":71,"time":"302.79","velocity":0.2992125984251969,"duration":"0.02"},{"name":"D5","midi":74,"time":"302.79","velocity":0.4881889763779528,"duration":"0.15"},{"name":"C#2","midi":37,"time":"302.80","velocity":0.1968503937007874,"duration":"0.05"},{"name":"D4","midi":62,"time":"302.80","velocity":0.2992125984251969,"duration":"0.03"},{"name":"G6","midi":91,"time":"302.80","velocity":0.14173228346456693,"duration":"0.08"},{"name":"D7","midi":98,"time":"302.80","velocity":0.15748031496062992,"duration":"0.23"},{"name":"F#4","midi":66,"time":"302.81","velocity":0.4645669291338583,"duration":"0.27"},{"name":"C5","midi":72,"time":"302.81","velocity":0.3464566929133858,"duration":"0.02"},{"name":"F5","midi":77,"time":"302.81","velocity":0.25196850393700787,"duration":"0.02"},{"name":"A4","midi":69,"time":"302.83","velocity":0.3543307086614173,"duration":"0.02"},{"name":"G7","midi":103,"time":"302.83","velocity":0.14960629921259844,"duration":"0.05"},{"name":"E5","midi":76,"time":"302.84","velocity":0.2283464566929134,"duration":"0.03"},{"name":"F#6","midi":90,"time":"302.84","velocity":0.2283464566929134,"duration":"0.07"},{"name":"A5","midi":81,"time":"302.85","velocity":0.2755905511811024,"duration":"0.09"},{"name":"C7","midi":96,"time":"302.85","velocity":0.2677165354330709,"duration":"0.36"},{"name":"C#2","midi":37,"time":"302.86","velocity":0.2204724409448819,"duration":"0.07"},{"name":"F5","midi":77,"time":"302.86","velocity":0.2204724409448819,"duration":"0.03"},{"name":"A#3","midi":58,"time":"302.87","velocity":0.44881889763779526,"duration":"0.02"},{"name":"G#4","midi":68,"time":"302.88","velocity":0.4015748031496063,"duration":"0.03"},{"name":"G7","midi":103,"time":"302.90","velocity":0.16535433070866143,"duration":"0.07"},{"name":"D4","midi":62,"time":"302.92","velocity":0.3700787401574803,"duration":"0.21"},{"name":"C#5","midi":73,"time":"302.94","velocity":0.4330708661417323,"duration":"0.14"},{"name":"C6","midi":84,"time":"302.94","velocity":0.16535433070866143,"duration":"0.06"},{"name":"A#5","midi":82,"time":"302.95","velocity":0.2283464566929134,"duration":"0.03"},{"name":"G#4","midi":68,"time":"302.97","velocity":0.41732283464566927,"duration":"0.02"},{"name":"G#3","midi":56,"time":"302.99","velocity":0.4330708661417323,"duration":"0.02"},{"name":"B5","midi":83,"time":"302.99","velocity":0.12598425196850394,"duration":"0.03"},{"name":"G#4","midi":68,"time":"303.00","velocity":0.49606299212598426,"duration":"0.16"},{"name":"D#5","midi":75,"time":"303.00","velocity":0.2992125984251969,"duration":"0.05"},{"name":"C6","midi":84,"time":"303.01","velocity":0.2283464566929134,"duration":"0.06"},{"name":"A5","midi":81,"time":"303.02","velocity":0.28346456692913385,"duration":"0.08"},{"name":"A3","midi":57,"time":"303.05","velocity":0.4645669291338583,"duration":"0.02"},{"name":"C2","midi":36,"time":"303.06","velocity":0.25196850393700787,"duration":"0.02"},{"name":"D6","midi":86,"time":"303.06","velocity":0.2047244094488189,"duration":"0.13"},{"name":"A#6","midi":94,"time":"303.06","velocity":0.13385826771653545,"duration":"0.08"},{"name":"G#3","midi":56,"time":"303.07","velocity":0.4015748031496063,"duration":"0.02"},{"name":"D7","midi":98,"time":"303.07","velocity":0.2125984251968504,"duration":"0.21"},{"name":"D5","midi":74,"time":"303.08","velocity":0.4015748031496063,"duration":"0.03"},{"name":"C6","midi":84,"time":"303.08","velocity":0.2125984251968504,"duration":"0.07"},{"name":"A3","midi":57,"time":"303.09","velocity":0.3937007874015748,"duration":"0.02"},{"name":"A#5","midi":82,"time":"303.09","velocity":0.2125984251968504,"duration":"0.05"},{"name":"F7","midi":101,"time":"303.09","velocity":0.18110236220472442,"duration":"0.30"},{"name":"G7","midi":103,"time":"303.10","velocity":0.23622047244094488,"duration":"0.08"},{"name":"C#5","midi":73,"time":"303.12","velocity":0.28346456692913385,"duration":"0.02"},{"name":"D#5","midi":75,"time":"303.12","velocity":0.23622047244094488,"duration":"0.02"},{"name":"C3","midi":48,"time":"303.13","velocity":0.5748031496062992,"duration":"0.01"},{"name":"A3","midi":57,"time":"303.13","velocity":0.4645669291338583,"duration":"0.02"},{"name":"D#4","midi":63,"time":"303.13","velocity":0.3779527559055118,"duration":"0.03"},{"name":"A5","midi":81,"time":"303.13","velocity":0.2755905511811024,"duration":"0.05"},{"name":"B5","midi":83,"time":"303.13","velocity":0.2047244094488189,"duration":"0.15"},{"name":"F6","midi":89,"time":"303.13","velocity":0.11023622047244094,"duration":"0.03"},{"name":"C#3","midi":49,"time":"303.14","velocity":0.5826771653543307,"duration":"0.31"},{"name":"D5","midi":74,"time":"303.14","velocity":0.2992125984251969,"duration":"0.05"},{"name":"G5","midi":79,"time":"303.14","velocity":0.23622047244094488,"duration":"0.05"},{"name":"G#3","midi":56,"time":"303.15","velocity":0.3937007874015748,"duration":"0.02"},{"name":"D4","midi":62,"time":"303.16","velocity":0.2283464566929134,"duration":"0.02"},{"name":"G4","midi":67,"time":"303.16","velocity":0.4409448818897638,"duration":"0.03"},{"name":"C6","midi":84,"time":"303.16","velocity":0.11023622047244094,"duration":"0.03"},{"name":"C#2","midi":37,"time":"303.17","velocity":0.2755905511811024,"duration":"0.12"},{"name":"A#3","midi":58,"time":"303.19","velocity":0.31496062992125984,"duration":"0.02"},{"name":"D#4","midi":63,"time":"303.19","velocity":0.2677165354330709,"duration":"0.05"},{"name":"C#5","midi":73,"time":"303.19","velocity":0.15748031496062992,"duration":"0.07"},{"name":"D#5","midi":75,"time":"303.19","velocity":0.28346456692913385,"duration":"0.16"},{"name":"A5","midi":81,"time":"303.19","velocity":0.2204724409448819,"duration":"0.03"},{"name":"G6","midi":91,"time":"303.19","velocity":0.15748031496062992,"duration":"0.06"},{"name":"G#4","midi":68,"time":"303.20","velocity":0.4094488188976378,"duration":"0.12"},{"name":"A3","midi":57,"time":"303.21","velocity":0.4094488188976378,"duration":"0.02"},{"name":"E6","midi":88,"time":"303.23","velocity":0.11811023622047244,"duration":"0.13"},{"name":"C7","midi":96,"time":"303.24","velocity":0.1968503937007874,"duration":"0.27"},{"name":"A#4","midi":70,"time":"303.27","velocity":0.2440944881889764,"duration":"0.02"},{"name":"C#7","midi":97,"time":"303.27","velocity":0.10236220472440945,"duration":"0.03"},{"name":"C6","midi":84,"time":"303.28","velocity":0.10236220472440945,"duration":"0.03"},{"name":"F#6","midi":90,"time":"303.28","velocity":0.15748031496062992,"duration":"0.24"},{"name":"C2","midi":36,"time":"303.29","velocity":0.2677165354330709,"duration":"0.02"},{"name":"G#3","midi":56,"time":"303.30","velocity":0.36220472440944884,"duration":"0.03"},{"name":"C5","midi":72,"time":"303.30","velocity":0.1968503937007874,"duration":"0.05"},{"name":"D6","midi":86,"time":"303.30","velocity":0.13385826771653545,"duration":"0.03"},{"name":"C#2","midi":37,"time":"303.31","velocity":0.23622047244094488,"duration":"0.03"},{"name":"G#4","midi":68,"time":"303.33","velocity":0.3937007874015748,"duration":"0.05"},{"name":"C#5","midi":73,"time":"303.34","velocity":0.2677165354330709,"duration":"0.15"},{"name":"C#6","midi":85,"time":"303.34","velocity":0.33858267716535434,"duration":"0.17"},{"name":"F6","midi":89,"time":"303.34","velocity":0.2125984251968504,"duration":"0.17"},{"name":"A#6","midi":94,"time":"303.34","velocity":0.08661417322834646,"duration":"0.05"},{"name":"C4","midi":60,"time":"303.35","velocity":0.3858267716535433,"duration":"0.02"},{"name":"G7","midi":103,"time":"303.35","velocity":0.12598425196850394,"duration":"0.05"},{"name":"C#2","midi":37,"time":"303.36","velocity":0.2204724409448819,"duration":"0.05"},{"name":"D#5","midi":75,"time":"303.36","velocity":0.29133858267716534,"duration":"0.13"},{"name":"B6","midi":95,"time":"303.36","velocity":0.11023622047244094,"duration":"0.06"},{"name":"E7","midi":100,"time":"303.36","velocity":0.14960629921259844,"duration":"0.03"},{"name":"G#3","midi":56,"time":"303.37","velocity":0.3543307086614173,"duration":"0.03"},{"name":"A4","midi":69,"time":"303.37","velocity":0.4015748031496063,"duration":"0.02"},{"name":"G#5","midi":80,"time":"303.37","velocity":0.5039370078740157,"duration":"0.22"},{"name":"E6","midi":88,"time":"303.38","velocity":0.16535433070866143,"duration":"0.07"},{"name":"F#5","midi":78,"time":"303.40","velocity":0.09448818897637795,"duration":"0.03"},{"name":"C2","midi":36,"time":"303.41","velocity":0.25196850393700787,"duration":"0.02"},{"name":"G#3","midi":56,"time":"303.42","velocity":0.30708661417322836,"duration":"0.06"},{"name":"G#4","midi":68,"time":"303.42","velocity":0.33070866141732286,"duration":"0.03"},{"name":"A6","midi":93,"time":"303.42","velocity":0.14960629921259844,"duration":"0.03"},{"name":"C#2","midi":37,"time":"303.43","velocity":0.2755905511811024,"duration":"0.02"},{"name":"D3","midi":50,"time":"303.45","velocity":0.5433070866141733,"duration":"0.02"},{"name":"A4","midi":69,"time":"303.45","velocity":0.3700787401574803,"duration":"0.09"},{"name":"E5","midi":76,"time":"303.45","velocity":0.2677165354330709,"duration":"0.35"},{"name":"F#7","midi":102,"time":"303.45","velocity":0.2125984251968504,"duration":"0.12"},{"name":"G7","midi":103,"time":"303.45","velocity":0.1968503937007874,"duration":"0.12"},{"name":"A6","midi":93,"time":"303.47","velocity":0.1889763779527559,"duration":"0.16"},{"name":"G6","midi":91,"time":"303.48","velocity":0.1732283464566929,"duration":"0.07"},{"name":"A#6","midi":94,"time":"303.48","velocity":0.1889763779527559,"duration":"0.14"},{"name":"D7","midi":98,"time":"303.48","velocity":0.13385826771653545,"duration":"0.03"},{"name":"E2","midi":40,"time":"303.49","velocity":0.6850393700787402,"duration":"0.02"},{"name":"D3","midi":50,"time":"303.49","velocity":0.5433070866141733,"duration":"0.01"},{"name":"F#4","midi":66,"time":"303.49","velocity":0.36220472440944884,"duration":"0.02"},{"name":"D5","midi":74,"time":"303.49","velocity":0.2992125984251969,"duration":"0.05"},{"name":"B5","midi":83,"time":"303.49","velocity":0.12598425196850394,"duration":"0.03"},{"name":"E7","midi":100,"time":"303.49","velocity":0.12598425196850394,"duration":"0.03"},{"name":"D#3","midi":51,"time":"303.50","velocity":0.5748031496062992,"duration":"0.02"},{"name":"E6","midi":88,"time":"303.50","velocity":0.33858267716535434,"duration":"0.29"},{"name":"F2","midi":41,"time":"303.51","velocity":0.6141732283464567,"duration":"0.01"},{"name":"F4","midi":65,"time":"303.51","velocity":0.31496062992125984,"duration":"0.02"},{"name":"F#2","midi":42,"time":"303.52","velocity":0.5590551181102362,"duration":"0.01"},{"name":"C#6","midi":85,"time":"303.52","velocity":0.3464566929133858,"duration":"0.22"},{"name":"F6","midi":89,"time":"303.52","velocity":0.13385826771653545,"duration":"0.03"},{"name":"C7","midi":96,"time":"303.52","velocity":0.11023622047244094,"duration":"0.05"},{"name":"G1","midi":31,"time":"303.53","velocity":0.6062992125984252,"duration":"0.02"},{"name":"G4","midi":67,"time":"303.53","velocity":0.3543307086614173,"duration":"0.02"},{"name":"B4","midi":71,"time":"303.53","velocity":0.2440944881889764,"duration":"0.02"},{"name":"C#5","midi":73,"time":"303.53","velocity":0.3779527559055118,"duration":"0.70"},{"name":"D3","midi":50,"time":"303.55","velocity":0.5433070866141733,"duration":"0.01"},{"name":"A3","midi":57,"time":"303.55","velocity":0.3700787401574803,"duration":"0.02"},{"name":"A5","midi":81,"time":"303.55","velocity":0.31496062992125984,"duration":"0.17"},{"name":"F#6","midi":90,"time":"303.55","velocity":0.2677165354330709,"duration":"0.37"},{"name":"C3","midi":48,"time":"303.56","velocity":0.5433070866141733,"duration":"0.01"},{"name":"F#4","midi":66,"time":"303.56","velocity":0.3543307086614173,"duration":"0.10"},{"name":"A4","midi":69,"time":"303.56","velocity":0.4094488188976378,"duration":"0.34"},{"name":"D3","midi":50,"time":"303.57","velocity":0.5905511811023622,"duration":"0.27"},{"name":"A#5","midi":82,"time":"303.57","velocity":0.16535433070866143,"duration":"0.05"},{"name":"A3","midi":57,"time":"303.58","velocity":0.4251968503937008,"duration":"0.03"},{"name":"F#7","midi":102,"time":"303.58","velocity":0.2755905511811024,"duration":"2.07"},{"name":"C#4","midi":61,"time":"303.59","velocity":0.4330708661417323,"duration":"0.31"},{"name":"G#5","midi":80,"time":"303.60","velocity":0.2755905511811024,"duration":"0.21"},{"name":"F6","midi":89,"time":"303.60","velocity":0.1732283464566929,"duration":"0.12"},{"name":"G5","midi":79,"time":"303.62","velocity":0.2283464566929134,"duration":"0.02"},{"name":"B5","midi":83,"time":"303.62","velocity":0.12598425196850394,"duration":"0.05"},{"name":"A3","midi":57,"time":"303.63","velocity":0.4251968503937008,"duration":"0.21"},{"name":"C7","midi":96,"time":"303.63","velocity":0.10236220472440945,"duration":"0.19"},{"name":"A#5","midi":82,"time":"303.64","velocity":0.1968503937007874,"duration":"0.08"},{"name":"D#6","midi":87,"time":"303.65","velocity":0.16535433070866143,"duration":"0.08"},{"name":"C2","midi":36,"time":"303.72","velocity":0.4094488188976378,"duration":"0.02"},{"name":"G6","midi":91,"time":"303.72","velocity":0.09448818897637795,"duration":"0.06"},{"name":"C#7","midi":97,"time":"303.72","velocity":0.3779527559055118,"duration":"1.65"},{"name":"F#4","midi":66,"time":"303.73","velocity":0.25984251968503935,"duration":"0.09"},{"name":"A#5","midi":82,"time":"303.73","velocity":0.23622047244094488,"duration":"0.16"},{"name":"D#6","midi":87,"time":"303.74","velocity":0.18110236220472442,"duration":"0.12"},{"name":"A6","midi":93,"time":"303.74","velocity":0.12598425196850394,"duration":"0.06"},{"name":"G7","midi":103,"time":"303.74","velocity":0.12598425196850394,"duration":"0.07"},{"name":"F6","midi":89,"time":"303.78","velocity":0.10236220472440945,"duration":"0.06"},{"name":"B1","midi":35,"time":"303.81","velocity":0.31496062992125984,"duration":"0.02"},{"name":"G#5","midi":80,"time":"303.83","velocity":0.14960629921259844,"duration":"0.03"},{"name":"E6","midi":88,"time":"303.83","velocity":0.2992125984251969,"duration":"0.28"},{"name":"D#3","midi":51,"time":"303.84","velocity":0.4094488188976378,"duration":"0.02"},{"name":"F#4","midi":66,"time":"303.84","velocity":0.3779527559055118,"duration":"0.28"},{"name":"B5","midi":83,"time":"303.85","velocity":0.11023622047244094,"duration":"0.06"},{"name":"E2","midi":40,"time":"303.86","velocity":0.5511811023622047,"duration":"0.03"},{"name":"A6","midi":93,"time":"303.86","velocity":0.2755905511811024,"duration":"0.12"},{"name":"G7","midi":103,"time":"303.86","velocity":0.18110236220472442,"duration":"0.03"},{"name":"C3","midi":48,"time":"303.87","velocity":0.5196850393700787,"duration":"0.01"},{"name":"A#3","midi":58,"time":"303.87","velocity":0.3543307086614173,"duration":"0.02"},{"name":"G#5","midi":80,"time":"303.87","velocity":0.2283464566929134,"duration":"0.03"},{"name":"F7","midi":101,"time":"303.87","velocity":0.2677165354330709,"duration":"0.09"},{"name":"D3","midi":50,"time":"303.88","velocity":0.6141732283464567,"duration":"0.36"},{"name":"D#7","midi":99,"time":"303.88","velocity":0.2440944881889764,"duration":"0.16"},{"name":"D2","midi":38,"time":"303.90","velocity":0.2755905511811024,"duration":"0.03"},{"name":"A3","midi":57,"time":"303.90","velocity":0.3779527559055118,"duration":"0.08"},{"name":"E5","midi":76,"time":"303.90","velocity":0.29133858267716534,"duration":"0.33"},{"name":"A5","midi":81,"time":"303.90","velocity":0.30708661417322836,"duration":"0.37"},{"name":"A#5","midi":82,"time":"303.91","velocity":0.1889763779527559,"duration":"0.09"},{"name":"C#4","midi":61,"time":"303.92","velocity":0.2755905511811024,"duration":"0.05"},{"name":"B6","midi":95,"time":"303.92","velocity":0.11023622047244094,"duration":"0.12"},{"name":"G#6","midi":92,"time":"303.94","velocity":0.2440944881889764,"duration":"0.08"},{"name":"G7","midi":103,"time":"303.94","velocity":0.2204724409448819,"duration":"0.15"},{"name":"G6","midi":91,"time":"303.95","velocity":0.07086614173228346,"duration":"0.03"},{"name":"C#2","midi":37,"time":"303.97","velocity":0.2283464566929134,"duration":"0.03"},{"name":"G#5","midi":80,"time":"303.97","velocity":0.2283464566929134,"duration":"0.24"},{"name":"D#6","midi":87,"time":"303.97","velocity":0.14173228346456693,"duration":"0.13"},{"name":"F6","midi":89,"time":"303.97","velocity":0.14173228346456693,"duration":"0.05"},{"name":"F7","midi":101,"time":"303.98","velocity":0.16535433070866143,"duration":"0.14"},{"name":"A3","midi":57,"time":"303.99","velocity":0.49606299212598426,"duration":"0.23"},{"name":"D#2","midi":39,"time":"304.00","velocity":0.15748031496062992,"duration":"0.03"},{"name":"G6","midi":91,"time":"304.00","velocity":0.14173228346456693,"duration":"0.07"},{"name":"A#5","midi":82,"time":"304.01","velocity":0.15748031496062992,"duration":"0.06"},{"name":"D2","midi":38,"time":"304.06","velocity":0.2125984251968504,"duration":"0.03"},{"name":"A#5","midi":82,"time":"304.08","velocity":0.09448818897637795,"duration":"0.08"},{"name":"F6","midi":89,"time":"304.09","velocity":0.07874015748031496,"duration":"0.03"},{"name":"D2","midi":38,"time":"304.13","velocity":0.2125984251968504,"duration":"0.06"},{"name":"F#5","midi":78,"time":"304.13","velocity":0.4094488188976378,"duration":"0.64"},{"name":"G6","midi":91,"time":"304.13","velocity":0.11811023622047244,"duration":"0.07"},{"name":"C#4","midi":61,"time":"304.14","velocity":0.1732283464566929,"duration":"0.05"},{"name":"F#4","midi":66,"time":"304.14","velocity":0.2047244094488189,"duration":"0.03"},{"name":"C#2","midi":37,"time":"304.19","velocity":0.25984251968503935,"duration":"0.02"},{"name":"F#4","midi":66,"time":"304.19","velocity":0.4330708661417323,"duration":"0.05"},{"name":"A#5","midi":82,"time":"304.19","velocity":0.12598425196850394,"duration":"0.03"},{"name":"F6","midi":89,"time":"304.19","velocity":0.09448818897637795,"duration":"0.03"},{"name":"G7","midi":103,"time":"304.19","velocity":0.15748031496062992,"duration":"0.08"},{"name":"C#4","midi":61,"time":"304.22","velocity":0.5669291338582677,"duration":"0.02"},{"name":"C6","midi":84,"time":"304.22","velocity":0.36220472440944884,"duration":"0.05"},{"name":"D6","midi":86,"time":"304.22","velocity":0.2992125984251969,"duration":"0.08"},{"name":"A#6","midi":94,"time":"304.22","velocity":0.25196850393700787,"duration":"0.12"},{"name":"B6","midi":95,"time":"304.22","velocity":0.2283464566929134,"duration":"0.22"},{"name":"D#7","midi":99,"time":"304.22","velocity":0.23622047244094488,"duration":"0.17"},{"name":"B4","midi":71,"time":"304.23","velocity":0.5433070866141733,"duration":"0.02"},{"name":"E5","midi":76,"time":"304.23","velocity":0.44881889763779526,"duration":"0.06"},{"name":"G#6","midi":92,"time":"304.23","velocity":0.30708661417322836,"duration":"0.47"},{"name":"F7","midi":101,"time":"304.23","velocity":0.36220472440944884,"duration":"0.20"},{"name":"C4","midi":60,"time":"304.24","velocity":0.4881889763779528,"duration":"0.03"},{"name":"E4","midi":64,"time":"304.24","velocity":0.3937007874015748,"duration":"0.02"},{"name":"A4","midi":69,"time":"304.24","velocity":0.5196850393700787,"duration":"0.01"},{"name":"C#6","midi":85,"time":"304.24","velocity":0.4015748031496063,"duration":"1.24"},{"name":"C#3","midi":49,"time":"304.26","velocity":0.5196850393700787,"duration":"0.01"},{"name":"A#4","midi":70,"time":"304.26","velocity":0.5354330708661418,"duration":"0.05"},{"name":"D#5","midi":75,"time":"304.26","velocity":0.3543307086614173,"duration":"0.06"},{"name":"G#5","midi":80,"time":"304.26","velocity":0.4094488188976378,"duration":"0.37"},{"name":"F6","midi":89,"time":"304.26","velocity":0.2440944881889764,"duration":"0.05"},{"name":"G6","midi":91,"time":"304.26","velocity":0.1732283464566929,"duration":"0.10"},{"name":"E2","midi":40,"time":"304.27","velocity":0.4015748031496063,"duration":"0.02"},{"name":"D3","midi":50,"time":"304.27","velocity":0.5669291338582677,"duration":"0.31"},{"name":"F4","midi":65,"time":"304.27","velocity":0.41732283464566927,"duration":"0.02"},{"name":"A6","midi":93,"time":"304.27","velocity":0.1732283464566929,"duration":"0.05"},{"name":"C#5","midi":73,"time":"304.28","velocity":0.4094488188976378,"duration":"0.12"},{"name":"A5","midi":81,"time":"304.28","velocity":0.3464566929133858,"duration":"0.03"},{"name":"G7","midi":103,"time":"304.28","velocity":0.2047244094488189,"duration":"0.05"},{"name":"D#2","midi":39,"time":"304.29","velocity":0.23622047244094488,"duration":"0.03"},{"name":"A#3","midi":58,"time":"304.29","velocity":0.3464566929133858,"duration":"0.02"},{"name":"C#4","midi":61,"time":"304.29","velocity":0.29133858267716534,"duration":"0.05"},{"name":"F#4","midi":66,"time":"304.29","velocity":0.4251968503937008,"duration":"0.09"},{"name":"A4","midi":69,"time":"304.29","velocity":0.41732283464566927,"duration":"0.03"},{"name":"E5","midi":76,"time":"304.30","velocity":0.2283464566929134,"duration":"0.03"},{"name":"A#4","midi":70,"time":"304.33","velocity":0.3858267716535433,"duration":"0.03"},{"name":"D#5","midi":75,"time":"304.33","velocity":0.2755905511811024,"duration":"0.08"},{"name":"F6","midi":89,"time":"304.33","velocity":0.25196850393700787,"duration":"0.29"},{"name":"D2","midi":38,"time":"304.35","velocity":0.25984251968503935,"duration":"0.02"},{"name":"C7","midi":96,"time":"304.35","velocity":0.11023622047244094,"duration":"0.07"},{"name":"A4","midi":69,"time":"304.36","velocity":0.44881889763779526,"duration":"0.28"},{"name":"D7","midi":98,"time":"304.36","velocity":0.09448818897637795,"duration":"0.07"},{"name":"C#2","midi":37,"time":"304.37","velocity":0.2992125984251969,"duration":"0.02"},{"name":"A#3","midi":58,"time":"304.37","velocity":0.47244094488188976,"duration":"0.02"},{"name":"C#4","midi":61,"time":"304.37","velocity":0.4645669291338583,"duration":"0.24"},{"name":"D2","midi":38,"time":"304.40","velocity":0.30708661417322836,"duration":"0.02"},{"name":"F#4","midi":66,"time":"304.40","velocity":0.48031496062992124,"duration":"0.59"},{"name":"C5","midi":72,"time":"304.40","velocity":0.16535433070866143,"duration":"0.03"},{"name":"D5","midi":74,"time":"304.40","velocity":0.23622047244094488,"duration":"0.05"},{"name":"B5","midi":83,"time":"304.41","velocity":0.15748031496062992,"duration":"0.06"},{"name":"D2","midi":38,"time":"304.43","velocity":0.3543307086614173,"duration":"0.15"},{"name":"A3","midi":57,"time":"304.43","velocity":0.4330708661417323,"duration":"0.02"},{"name":"E5","midi":76,"time":"304.45","velocity":0.28346456692913385,"duration":"0.52"},{"name":"A#5","midi":82,"time":"304.45","velocity":0.1732283464566929,"duration":"0.05"},{"name":"B5","midi":83,"time":"304.48","velocity":0.14960629921259844,"duration":"0.05"},{"name":"A3","midi":57,"time":"304.50","velocity":0.49606299212598426,"duration":"0.10"},{"name":"A#5","midi":82,"time":"304.51","velocity":0.18110236220472442,"duration":"0.03"},{"name":"D7","midi":98,"time":"304.51","velocity":0.11811023622047244,"duration":"0.03"},{"name":"G6","midi":91,"time":"304.53","velocity":0.10236220472440945,"duration":"0.03"},{"name":"G7","midi":103,"time":"304.56","velocity":0.1968503937007874,"duration":"0.09"},{"name":"A#5","midi":82,"time":"304.57","velocity":0.1889763779527559,"duration":"0.15"},{"name":"D#2","midi":39,"time":"304.58","velocity":0.5669291338582677,"duration":"0.03"},{"name":"A6","midi":93,"time":"304.59","velocity":0.11811023622047244,"duration":"0.05"},{"name":"A#3","midi":58,"time":"304.60","velocity":0.47244094488188976,"duration":"0.03"},{"name":"E2","midi":40,"time":"304.62","velocity":0.5748031496062992,"duration":"0.02"},{"name":"D6","midi":86,"time":"304.62","velocity":0.1889763779527559,"duration":"0.03"},{"name":"B6","midi":95,"time":"304.62","velocity":0.08661417322834646,"duration":"0.03"},{"name":"D3","midi":50,"time":"304.63","velocity":0.5590551181102362,"duration":"0.34"},{"name":"C#4","midi":61,"time":"304.63","velocity":0.41732283464566927,"duration":"0.35"},{"name":"G5","midi":79,"time":"304.63","velocity":0.28346456692913385,"duration":"0.02"},{"name":"F7","midi":101,"time":"304.63","velocity":0.3858267716535433,"duration":"0.16"},{"name":"D#2","midi":39,"time":"304.64","velocity":0.4330708661417323,"duration":"0.03"},{"name":"A#4","midi":70,"time":"304.64","velocity":0.2283464566929134,"duration":"0.02"},{"name":"D#7","midi":99,"time":"304.64","velocity":0.1968503937007874,"duration":"0.08"},{"name":"G#3","midi":56,"time":"304.65","velocity":0.3464566929133858,"duration":"0.02"},{"name":"G#5","midi":80,"time":"304.65","velocity":0.2204724409448819,"duration":"0.05"},{"name":"A4","midi":69,"time":"304.66","velocity":0.4330708661417323,"duration":"0.35"},{"name":"G7","midi":103,"time":"304.66","velocity":0.15748031496062992,"duration":"0.14"},{"name":"D2","midi":38,"time":"304.67","velocity":0.3464566929133858,"duration":"0.05"},{"name":"A3","midi":57,"time":"304.67","velocity":0.4881889763779528,"duration":"0.28"},{"name":"F6","midi":89,"time":"304.67","velocity":0.1968503937007874,"duration":"0.14"},{"name":"B6","midi":95,"time":"304.69","velocity":0.16535433070866143,"duration":"0.09"},{"name":"G6","midi":91,"time":"304.70","velocity":0.23622047244094488,"duration":"0.02"},{"name":"D#6","midi":87,"time":"304.71","velocity":0.14173228346456693,"duration":"0.03"},{"name":"A#6","midi":94,"time":"304.71","velocity":0.2204724409448819,"duration":"0.14"},{"name":"G#6","midi":92,"time":"304.72","velocity":0.1968503937007874,"duration":"0.06"},{"name":"C7","midi":96,"time":"304.72","velocity":0.08661417322834646,"duration":"0.03"},{"name":"D2","midi":38,"time":"304.73","velocity":0.33070866141732286,"duration":"0.02"},{"name":"D6","midi":86,"time":"304.76","velocity":0.1889763779527559,"duration":"0.06"},{"name":"D2","midi":38,"time":"304.77","velocity":0.3543307086614173,"duration":"0.03"},{"name":"B5","midi":83,"time":"304.77","velocity":0.11023622047244094,"duration":"0.05"},{"name":"C6","midi":84,"time":"304.78","velocity":0.10236220472440945,"duration":"0.06"},{"name":"G#6","midi":92,"time":"304.79","velocity":0.2047244094488189,"duration":"0.14"},{"name":"C7","midi":96,"time":"304.81","velocity":0.11023622047244094,"duration":"0.03"},{"name":"F6","midi":89,"time":"304.83","velocity":0.1968503937007874,"duration":"0.07"},{"name":"D2","midi":38,"time":"304.84","velocity":0.31496062992125984,"duration":"0.08"},{"name":"D6","midi":86,"time":"304.84","velocity":0.14173228346456693,"duration":"0.07"},{"name":"G6","midi":91,"time":"304.84","velocity":0.1889763779527559,"duration":"0.20"},{"name":"B6","midi":95,"time":"304.84","velocity":0.07874015748031496,"duration":"0.10"},{"name":"G7","midi":103,"time":"304.85","velocity":0.25196850393700787,"duration":"0.31"},{"name":"A#6","midi":94,"time":"304.88","velocity":0.16535433070866143,"duration":"0.10"},{"name":"A#5","midi":82,"time":"304.90","velocity":0.12598425196850394,"duration":"0.05"},{"name":"F7","midi":101,"time":"304.90","velocity":0.07874015748031496,"duration":"0.05"},{"name":"C#2","midi":37,"time":"304.92","velocity":0.3543307086614173,"duration":"0.03"},{"name":"D#3","midi":51,"time":"304.97","velocity":0.5118110236220472,"duration":"0.02"},{"name":"E4","midi":64,"time":"304.97","velocity":0.3937007874015748,"duration":"0.03"},{"name":"D7","midi":98,"time":"304.97","velocity":0.13385826771653545,"duration":"0.05"},{"name":"G#5","midi":80,"time":"304.98","velocity":0.29133858267716534,"duration":"0.02"},{"name":"B5","midi":83,"time":"304.98","velocity":0.18110236220472442,"duration":"0.05"},{"name":"D6","midi":86,"time":"304.98","velocity":0.13385826771653545,"duration":"0.03"},{"name":"F7","midi":101,"time":"304.98","velocity":0.2283464566929134,"duration":"0.24"},{"name":"A2","midi":45,"time":"304.99","velocity":0.5511811023622047,"duration":"0.01"},{"name":"E3","midi":52,"time":"304.99","velocity":0.5511811023622047,"duration":"0.01"},{"name":"C#4","midi":61,"time":"304.99","velocity":0.4330708661417323,"duration":"0.02"},{"name":"D5","midi":74,"time":"304.99","velocity":0.2677165354330709,"duration":"0.03"},{"name":"D#6","midi":87,"time":"304.99","velocity":0.2204724409448819,"duration":"0.05"},{"name":"G2","midi":43,"time":"305.00","velocity":0.5826771653543307,"duration":"0.01"},{"name":"D#3","midi":51,"time":"305.00","velocity":0.5984251968503937,"duration":"0.01"},{"name":"A3","midi":57,"time":"305.00","velocity":0.4881889763779528,"duration":"0.02"},{"name":"F#4","midi":66,"time":"305.00","velocity":0.4645669291338583,"duration":"0.36"},{"name":"F#2","midi":42,"time":"305.01","velocity":0.5669291338582677,"duration":"0.02"},{"name":"D3","midi":50,"time":"305.01","velocity":0.5590551181102362,"duration":"0.01"},{"name":"A#4","midi":70,"time":"305.01","velocity":0.25984251968503935,"duration":"0.02"},{"name":"G#5","midi":80,"time":"305.01","velocity":0.2125984251968504,"duration":"0.03"},{"name":"C#3","midi":49,"time":"305.02","velocity":0.5748031496062992,"duration":"0.01"},{"name":"B4","midi":71,"time":"305.02","velocity":0.1968503937007874,"duration":"0.03"},{"name":"C#5","midi":73,"time":"305.02","velocity":0.31496062992125984,"duration":"0.15"},{"name":"F1","midi":29,"time":"305.03","velocity":0.5354330708661418,"duration":"0.01"},{"name":"D3","midi":50,"time":"305.03","velocity":0.6220472440944882,"duration":"0.31"},{"name":"A4","midi":69,"time":"305.03","velocity":0.3543307086614173,"duration":"0.33"},{"name":"F#1","midi":30,"time":"305.05","velocity":0.5354330708661418,"duration":"0.01"},{"name":"A3","midi":57,"time":"305.05","velocity":0.48031496062992124,"duration":"0.27"},{"name":"A#6","midi":94,"time":"305.05","velocity":0.16535433070866143,"duration":"0.07"},{"name":"C#4","midi":61,"time":"305.09","velocity":0.2677165354330709,"duration":"0.21"},{"name":"G#5","midi":80,"time":"305.09","velocity":0.2755905511811024,"duration":"0.08"},{"name":"D#6","midi":87,"time":"305.13","velocity":0.16535433070866143,"duration":"0.10"},{"name":"A#5","midi":82,"time":"305.14","velocity":0.2125984251968504,"duration":"0.17"},{"name":"C7","midi":96,"time":"305.14","velocity":0.11811023622047244,"duration":"0.07"},{"name":"D5","midi":74,"time":"305.16","velocity":0.15748031496062992,"duration":"0.03"},{"name":"C6","midi":84,"time":"305.17","velocity":0.11811023622047244,"duration":"0.03"},{"name":"G6","midi":91,"time":"305.17","velocity":0.11811023622047244,"duration":"0.05"},{"name":"B1","midi":35,"time":"305.20","velocity":0.3858267716535433,"duration":"0.02"},{"name":"B4","midi":71,"time":"305.22","velocity":0.11023622047244094,"duration":"0.10"},{"name":"D#5","midi":75,"time":"305.24","velocity":0.10236220472440945,"duration":"0.07"},{"name":"B1","midi":35,"time":"305.26","velocity":0.29133858267716534,"duration":"0.02"},{"name":"G7","midi":103,"time":"305.26","velocity":0.07086614173228346,"duration":"0.06"},{"name":"G#5","midi":80,"time":"305.27","velocity":0.2283464566929134,"duration":"0.10"},{"name":"A3","midi":57,"time":"305.33","velocity":0.4566929133858268,"duration":"0.05"},{"name":"A2","midi":45,"time":"305.35","velocity":0.5196850393700787,"duration":"0.02"},{"name":"B5","midi":83,"time":"305.35","velocity":0.2047244094488189,"duration":"0.07"},{"name":"A#6","midi":94,"time":"305.35","velocity":0.14960629921259844,"duration":"0.16"},{"name":"F7","midi":101,"time":"305.35","velocity":0.23622047244094488,"duration":"0.30"},{"name":"C2","midi":36,"time":"305.36","velocity":0.6141732283464567,"duration":"0.02"},{"name":"G#3","midi":56,"time":"305.36","velocity":0.48031496062992124,"duration":"0.02"},{"name":"A#4","midi":70,"time":"305.36","velocity":0.33858267716535434,"duration":"0.05"},{"name":"D5","midi":74,"time":"305.36","velocity":0.29133858267716534,"duration":"0.07"},{"name":"F6","midi":89,"time":"305.36","velocity":0.14173228346456693,"duration":"0.05"},{"name":"B6","midi":95,"time":"305.36","velocity":0.2204724409448819,"duration":"0.03"},{"name":"D#7","midi":99,"time":"305.36","velocity":0.1889763779527559,"duration":"0.12"},{"name":"G7","midi":103,"time":"305.36","velocity":0.2755905511811024,"duration":"0.09"},{"name":"F4","midi":65,"time":"305.37","velocity":0.4251968503937008,"duration":"0.02"},{"name":"C5","midi":72,"time":"305.37","velocity":0.2440944881889764,"duration":"0.02"},{"name":"D#6","midi":87,"time":"305.37","velocity":0.1889763779527559,"duration":"0.05"},{"name":"C7","midi":96,"time":"305.37","velocity":0.18110236220472442,"duration":"0.06"},{"name":"E7","midi":100,"time":"305.37","velocity":0.12598425196850394,"duration":"0.03"},{"name":"E2","midi":40,"time":"305.38","velocity":0.6377952755905512,"duration":"0.01"},{"name":"D#3","midi":51,"time":"305.38","velocity":0.5511811023622047,"duration":"0.01"},{"name":"D4","midi":62,"time":"305.38","velocity":0.30708661417322836,"duration":"0.02"},{"name":"G#5","midi":80,"time":"305.38","velocity":0.2440944881889764,"duration":"0.02"},{"name":"F2","midi":41,"time":"305.40","velocity":0.5590551181102362,"duration":"0.01"},{"name":"D3","midi":50,"time":"305.40","velocity":0.5905511811023622,"duration":"0.02"},{"name":"G6","midi":91,"time":"305.40","velocity":0.09448818897637795,"duration":"0.06"},{"name":"A4","midi":69,"time":"305.41","velocity":0.41732283464566927,"duration":"0.34"},{"name":"F#5","midi":78,"time":"305.41","velocity":0.3700787401574803,"duration":"0.34"},{"name":"G#6","midi":92,"time":"305.41","velocity":0.14960629921259844,"duration":"0.06"},{"name":"F1","midi":29,"time":"305.42","velocity":0.5511811023622047,"duration":"0.01"},{"name":"D#3","midi":51,"time":"305.42","velocity":0.5433070866141733,"duration":"0.01"},{"name":"A3","midi":57,"time":"305.42","velocity":0.3700787401574803,"duration":"0.13"},{"name":"F#4","midi":66,"time":"305.42","velocity":0.44881889763779526,"duration":"0.33"},{"name":"C#5","midi":73,"time":"305.42","velocity":0.2204724409448819,"duration":"0.05"},{"name":"C3","midi":48,"time":"305.43","velocity":0.5748031496062992,"duration":"0.01"},{"name":"C#4","midi":61,"time":"305.43","velocity":0.3543307086614173,"duration":"0.24"},{"name":"D3","midi":50,"time":"305.44","velocity":0.5905511811023622,"duration":"0.28"},{"name":"B4","midi":71,"time":"305.45","velocity":0.1732283464566929,"duration":"0.07"},{"name":"C7","midi":96,"time":"305.45","velocity":0.12598425196850394,"duration":"0.07"},{"name":"D5","midi":74,"time":"305.47","velocity":0.14960629921259844,"duration":"0.06"},{"name":"G6","midi":91,"time":"305.47","velocity":0.09448818897637795,"duration":"0.12"},{"name":"D2","midi":38,"time":"305.49","velocity":0.33070866141732286,"duration":"0.02"},{"name":"F6","midi":89,"time":"305.49","velocity":0.12598425196850394,"duration":"0.07"},{"name":"A#5","midi":82,"time":"305.50","velocity":0.14173228346456693,"duration":"0.03"},{"name":"C#6","midi":85,"time":"305.51","velocity":0.3937007874015748,"duration":"0.90"},{"name":"G7","midi":103,"time":"305.58","velocity":0.2440944881889764,"duration":"0.47"},{"name":"A3","midi":57,"time":"305.59","velocity":0.4566929133858268,"duration":"0.12"},{"name":"A#6","midi":94,"time":"305.59","velocity":0.18110236220472442,"duration":"0.08"},{"name":"D#6","midi":87,"time":"305.62","velocity":0.08661417322834646,"duration":"0.03"},{"name":"D5","midi":74,"time":"305.64","velocity":0.11811023622047244,"duration":"0.03"},{"name":"C7","midi":96,"time":"305.64","velocity":0.13385826771653545,"duration":"0.05"},{"name":"C#5","midi":73,"time":"305.67","velocity":0.4566929133858268,"duration":"0.10"},{"name":"C2","midi":36,"time":"305.69","velocity":0.33070866141732286,"duration":"0.02"},{"name":"C#4","midi":61,"time":"305.69","velocity":0.3543307086614173,"duration":"0.05"},{"name":"G6","midi":91,"time":"305.69","velocity":0.2125984251968504,"duration":"0.09"},{"name":"B6","midi":95,"time":"305.69","velocity":0.07874015748031496,"duration":"0.03"},{"name":"G#6","midi":92,"time":"305.70","velocity":0.2992125984251969,"duration":"0.55"},{"name":"A#6","midi":94,"time":"305.71","velocity":0.25196850393700787,"duration":"0.06"},{"name":"D#3","midi":51,"time":"305.72","velocity":0.5275590551181102,"duration":"0.05"},{"name":"E7","midi":100,"time":"305.72","velocity":0.29133858267716534,"duration":"0.24"},{"name":"A#3","midi":58,"time":"305.73","velocity":0.5039370078740157,"duration":"0.02"},{"name":"E4","midi":64,"time":"305.73","velocity":0.5590551181102362,"duration":"0.05"},{"name":"G5","midi":79,"time":"305.73","velocity":0.30708661417322836,"duration":"0.02"},{"name":"D6","midi":86,"time":"305.73","velocity":0.16535433070866143,"duration":"0.05"},{"name":"F6","midi":89,"time":"305.73","velocity":0.29133858267716534,"duration":"0.24"},{"name":"C7","midi":96,"time":"305.73","velocity":0.1968503937007874,"duration":"0.23"},{"name":"D7","midi":98,"time":"305.73","velocity":0.2047244094488189,"duration":"0.12"},{"name":"D#7","midi":99,"time":"305.73","velocity":0.1889763779527559,"duration":"0.14"},{"name":"E2","midi":40,"time":"305.74","velocity":0.5196850393700787,"duration":"0.02"},{"name":"G#4","midi":68,"time":"305.74","velocity":0.5354330708661418,"duration":"0.02"},{"name":"C6","midi":84,"time":"305.74","velocity":0.2440944881889764,"duration":"0.02"},{"name":"B6","midi":95,"time":"305.74","velocity":0.1968503937007874,"duration":"0.14"},{"name":"F5","midi":77,"time":"305.76","velocity":0.4566929133858268,"duration":"0.02"},{"name":"F#5","midi":78,"time":"305.76","velocity":0.31496062992125984,"duration":"0.07"},{"name":"D3","midi":50,"time":"305.77","velocity":0.5590551181102362,"duration":"0.33"},{"name":"G#3","midi":56,"time":"305.77","velocity":0.41732283464566927,"duration":"0.02"},{"name":"C#4","midi":61,"time":"305.77","velocity":0.41732283464566927,"duration":"0.03"},{"name":"C5","midi":72,"time":"305.77","velocity":0.3700787401574803,"duration":"0.02"},{"name":"A5","midi":81,"time":"305.77","velocity":0.31496062992125984,"duration":"0.05"},{"name":"D#6","midi":87,"time":"305.77","velocity":0.1889763779527559,"duration":"0.05"},{"name":"F4","midi":65,"time":"305.78","velocity":0.4015748031496063,"duration":"0.02"},{"name":"A#4","midi":70,"time":"305.78","velocity":0.3464566929133858,"duration":"0.02"},{"name":"E6","midi":88,"time":"305.78","velocity":0.3779527559055118,"duration":"1.62"},{"name":"A3","midi":57,"time":"305.79","velocity":0.5669291338582677,"duration":"0.31"},{"name":"G6","midi":91,"time":"305.79","velocity":0.1889763779527559,"duration":"0.23"},{"name":"D2","midi":38,"time":"305.80","velocity":0.2677165354330709,"duration":"0.02"},{"name":"F#4","midi":66,"time":"305.80","velocity":0.3464566929133858,"duration":"0.09"},{"name":"F5","midi":77,"time":"305.80","velocity":0.25196850393700787,"duration":"0.03"},{"name":"A#6","midi":94,"time":"305.80","velocity":0.1889763779527559,"duration":"0.10"},{"name":"C#4","midi":61,"time":"305.81","velocity":0.36220472440944884,"duration":"0.10"},{"name":"C5","midi":72,"time":"305.81","velocity":0.31496062992125984,"duration":"0.03"},{"name":"D#5","midi":75,"time":"305.83","velocity":0.33858267716535434,"duration":"0.06"},{"name":"C#2","midi":37,"time":"305.84","velocity":0.23622047244094488,"duration":"0.02"},{"name":"A#4","midi":70,"time":"305.84","velocity":0.3543307086614173,"duration":"0.03"},{"name":"D5","midi":74,"time":"305.88","velocity":0.2440944881889764,"duration":"0.05"},{"name":"E5","midi":76,"time":"305.88","velocity":0.23622047244094488,"duration":"0.02"},{"name":"A#5","midi":82,"time":"305.88","velocity":0.10236220472440945,"duration":"0.06"},{"name":"B5","midi":83,"time":"305.88","velocity":0.10236220472440945,"duration":"0.03"},{"name":"D2","midi":38,"time":"305.90","velocity":0.28346456692913385,"duration":"0.02"},{"name":"F5","midi":77,"time":"305.90","velocity":0.12598425196850394,"duration":"0.06"},{"name":"F#7","midi":102,"time":"305.90","velocity":0.15748031496062992,"duration":"0.05"},{"name":"C#2","midi":37,"time":"305.92","velocity":0.30708661417322836,"duration":"0.02"},{"name":"C#4","midi":61,"time":"305.93","velocity":0.3543307086614173,"duration":"0.13"},{"name":"D2","midi":38,"time":"305.94","velocity":0.2992125984251969,"duration":"0.02"},{"name":"D#7","midi":99,"time":"305.94","velocity":0.07874015748031496,"duration":"0.07"},{"name":"D5","midi":74,"time":"305.95","velocity":0.28346456692913385,"duration":"0.02"},{"name":"E5","midi":76,"time":"305.95","velocity":0.25984251968503935,"duration":"0.14"},{"name":"G5","midi":79,"time":"305.95","velocity":0.2204724409448819,"duration":"0.03"},{"name":"E4","midi":64,"time":"305.97","velocity":0.14960629921259844,"duration":"0.03"},{"name":"D2","midi":38,"time":"305.98","velocity":0.33070866141732286,"duration":"0.09"},{"name":"A5","midi":81,"time":"305.98","velocity":0.5118110236220472,"duration":"0.74"},{"name":"C6","midi":84,"time":"305.98","velocity":0.07086614173228346,"duration":"0.03"},{"name":"F#6","midi":90,"time":"305.98","velocity":0.11023622047244094,"duration":"0.07"},{"name":"F#5","midi":78,"time":"305.99","velocity":0.2204724409448819,"duration":"0.07"},{"name":"D#6","midi":87,"time":"305.99","velocity":0.12598425196850394,"duration":"0.09"},{"name":"B5","midi":83,"time":"306.00","velocity":0.12598425196850394,"duration":"0.06"},{"name":"F6","midi":89,"time":"306.00","velocity":0.18110236220472442,"duration":"0.12"},{"name":"F#7","midi":102,"time":"306.00","velocity":0.11811023622047244,"duration":"0.07"},{"name":"G#5","midi":80,"time":"306.02","velocity":0.2755905511811024,"duration":"0.02"},{"name":"F#4","midi":66,"time":"306.03","velocity":0.23622047244094488,"duration":"0.03"},{"name":"G6","midi":91,"time":"306.03","velocity":0.2204724409448819,"duration":"0.49"},{"name":"A#6","midi":94,"time":"306.03","velocity":0.09448818897637795,"duration":"0.05"},{"name":"G7","midi":103,"time":"306.06","velocity":0.2283464566929134,"duration":"0.14"},{"name":"C#2","midi":37,"time":"306.07","velocity":0.4094488188976378,"duration":"0.02"},{"name":"F4","midi":65,"time":"306.07","velocity":0.23622047244094488,"duration":"0.02"},{"name":"E2","midi":40,"time":"306.09","velocity":0.5433070866141733,"duration":"0.03"},{"name":"D#3","midi":51,"time":"306.09","velocity":0.48031496062992124,"duration":"0.02"},{"name":"F#4","midi":66,"time":"306.09","velocity":0.2204724409448819,"duration":"0.03"},{"name":"G5","midi":79,"time":"306.09","velocity":0.2440944881889764,"duration":"0.13"},{"name":"A4","midi":69,"time":"306.10","velocity":0.5826771653543307,"duration":"1.15"},{"name":"F#7","midi":102,"time":"306.10","velocity":0.16535433070866143,"duration":"0.16"},{"name":"C3","midi":48,"time":"306.12","velocity":0.5275590551181102,"duration":"0.01"},{"name":"E5","midi":76,"time":"306.12","velocity":0.3779527559055118,"duration":"0.42"},{"name":"A#6","midi":94,"time":"306.12","velocity":0.16535433070866143,"duration":"0.07"},{"name":"C7","midi":96,"time":"306.12","velocity":0.13385826771653545,"duration":"0.08"},{"name":"D#7","midi":99,"time":"306.12","velocity":0.14960629921259844,"duration":"0.06"},{"name":"D3","midi":50,"time":"306.13","velocity":0.6062992125984252,"duration":"0.36"},{"name":"F#6","midi":90,"time":"306.13","velocity":0.12598425196850394,"duration":"0.03"},{"name":"A3","midi":57,"time":"306.14","velocity":0.4645669291338583,"duration":"0.08"},{"name":"F#4","midi":66,"time":"306.14","velocity":0.25984251968503935,"duration":"0.03"},{"name":"D5","midi":74,"time":"306.14","velocity":0.2283464566929134,"duration":"0.02"},{"name":"C#5","midi":73,"time":"306.15","velocity":0.3779527559055118,"duration":"0.35"},{"name":"A#5","midi":82,"time":"306.15","velocity":0.2283464566929134,"duration":"0.05"},{"name":"F6","midi":89,"time":"306.15","velocity":0.1732283464566929,"duration":"0.13"},{"name":"F7","midi":101,"time":"306.15","velocity":0.1889763779527559,"duration":"0.22"},{"name":"C#4","midi":61,"time":"306.16","velocity":0.3543307086614173,"duration":"0.06"},{"name":"F#6","midi":90,"time":"306.17","velocity":0.12598425196850394,"duration":"0.09"},{"name":"F#4","midi":66,"time":"306.19","velocity":0.2440944881889764,"duration":"0.02"},{"name":"A#5","midi":82,"time":"306.22","velocity":0.13385826771653545,"duration":"0.03"},{"name":"A3","midi":57,"time":"306.23","velocity":0.4645669291338583,"duration":"0.23"},{"name":"C#4","midi":61,"time":"306.23","velocity":0.3464566929133858,"duration":"0.12"},{"name":"C#2","midi":37,"time":"306.24","velocity":0.1889763779527559,"duration":"0.03"},{"name":"D#6","midi":87,"time":"306.24","velocity":0.10236220472440945,"duration":"0.12"},{"name":"G5","midi":79,"time":"306.26","velocity":0.2047244094488189,"duration":"0.05"},{"name":"A#5","midi":82,"time":"306.27","velocity":0.1889763779527559,"duration":"0.10"},{"name":"B6","midi":95,"time":"306.27","velocity":0.12598425196850394,"duration":"0.05"},{"name":"G7","midi":103,"time":"306.27","velocity":0.25196850393700787,"duration":"0.31"},{"name":"G#6","midi":92,"time":"306.28","velocity":0.2125984251968504,"duration":"0.13"},{"name":"F#5","midi":78,"time":"306.29","velocity":0.14173228346456693,"duration":"0.05"},{"name":"F6","midi":89,"time":"306.29","velocity":0.14960629921259844,"duration":"0.20"},{"name":"F#7","midi":102,"time":"306.29","velocity":0.2047244094488189,"duration":"0.30"},{"name":"D2","midi":38,"time":"306.30","velocity":0.25984251968503935,"duration":"0.05"},{"name":"F#4","midi":66,"time":"306.30","velocity":0.12598425196850394,"duration":"0.05"},{"name":"G5","midi":79,"time":"306.33","velocity":0.16535433070866143,"duration":"0.09"},{"name":"F#6","midi":90,"time":"306.34","velocity":0.10236220472440945,"duration":"0.12"},{"name":"C#2","midi":37,"time":"306.35","velocity":0.28346456692913385,"duration":"0.03"},{"name":"C#4","midi":61,"time":"306.36","velocity":0.4251968503937008,"duration":"0.14"},{"name":"C6","midi":84,"time":"306.36","velocity":0.07874015748031496,"duration":"0.05"},{"name":"D2","midi":38,"time":"306.38","velocity":0.3228346456692913,"duration":"0.09"},{"name":"F#4","midi":66,"time":"306.38","velocity":0.1889763779527559,"duration":"0.06"},{"name":"B4","midi":71,"time":"306.38","velocity":0.10236220472440945,"duration":"0.05"},{"name":"G#6","midi":92,"time":"306.43","velocity":0.2047244094488189,"duration":"0.35"},{"name":"F#4","midi":66,"time":"306.45","velocity":0.4251968503937008,"duration":"0.07"},{"name":"D#6","midi":87,"time":"306.47","velocity":0.1889763779527559,"duration":"0.08"},{"name":"G5","midi":79,"time":"306.48","velocity":0.25984251968503935,"duration":"0.05"},{"name":"E2","midi":40,"time":"306.49","velocity":0.6299212598425197,"duration":"0.01"},{"name":"B6","midi":95,"time":"306.49","velocity":0.14960629921259844,"duration":"0.06"},{"name":"F7","midi":101,"time":"306.49","velocity":0.3228346456692913,"duration":"0.27"},{"name":"F2","midi":41,"time":"306.50","velocity":0.7086614173228346,"duration":"0.05"},{"name":"D4","midi":62,"time":"306.50","velocity":0.3700787401574803,"duration":"0.05"},{"name":"C6","midi":84,"time":"306.50","velocity":0.14960629921259844,"duration":"0.03"},{"name":"A#6","midi":94,"time":"306.50","velocity":0.15748031496062992,"duration":"0.07"},{"name":"C#7","midi":97,"time":"306.50","velocity":0.2755905511811024,"duration":"0.19"},{"name":"E3","midi":52,"time":"306.51","velocity":0.5354330708661418,"duration":"0.01"},{"name":"C#6","midi":85,"time":"306.51","velocity":0.31496062992125984,"duration":"0.65"},{"name":"F4","midi":65,"time":"306.52","velocity":0.2047244094488189,"duration":"0.07"},{"name":"C#3","midi":49,"time":"306.53","velocity":0.5196850393700787,"duration":"0.01"},{"name":"C#5","midi":73,"time":"306.53","velocity":0.31496062992125984,"duration":"0.33"},{"name":"F#5","midi":78,"time":"306.53","velocity":0.10236220472440945,"duration":"0.05"},{"name":"A#5","midi":82,"time":"306.53","velocity":0.14173228346456693,"duration":"0.08"},{"name":"F6","midi":89,"time":"306.53","velocity":0.12598425196850394,"duration":"0.06"},{"name":"F#1","midi":30,"time":"306.55","velocity":0.5905511811023622,"duration":"0.01"},{"name":"D3","midi":50,"time":"306.55","velocity":0.6062992125984252,"duration":"0.33"},{"name":"C#4","midi":61,"time":"306.55","velocity":0.4015748031496063,"duration":"0.31"},{"name":"B4","midi":71,"time":"306.55","velocity":0.25984251968503935,"duration":"0.03"},{"name":"E5","midi":76,"time":"306.55","velocity":0.29133858267716534,"duration":"0.33"},{"name":"G6","midi":91,"time":"306.55","velocity":0.08661417322834646,"duration":"0.06"},{"name":"A#1","midi":34,"time":"306.56","velocity":0.5748031496062992,"duration":"0.01"},{"name":"G5","midi":79,"time":"306.58","velocity":0.11811023622047244,"duration":"0.05"},{"name":"B5","midi":83,"time":"306.59","velocity":0.09448818897637795,"duration":"0.05"},{"name":"F#7","midi":102,"time":"306.60","velocity":0.14173228346456693,"duration":"0.21"},{"name":"G7","midi":103,"time":"306.60","velocity":0.11811023622047244,"duration":"0.07"},{"name":"F6","midi":89,"time":"306.63","velocity":0.13385826771653545,"duration":"0.10"},{"name":"B6","midi":95,"time":"306.64","velocity":0.11811023622047244,"duration":"0.05"},{"name":"C2","midi":36,"time":"306.65","velocity":0.3858267716535433,"duration":"0.02"},{"name":"A#6","midi":94,"time":"306.65","velocity":0.07874015748031496,"duration":"0.07"},{"name":"A#5","midi":82,"time":"306.66","velocity":0.1968503937007874,"duration":"0.05"},{"name":"G6","midi":91,"time":"306.66","velocity":0.14173228346456693,"duration":"0.20"},{"name":"C7","midi":96,"time":"306.69","velocity":0.07086614173228346,"duration":"0.05"},{"name":"F#6","midi":90,"time":"306.70","velocity":0.13385826771653545,"duration":"0.12"},{"name":"G7","midi":103,"time":"306.70","velocity":0.15748031496062992,"duration":"0.14"},{"name":"A3","midi":57,"time":"306.71","velocity":0.29133858267716534,"duration":"0.03"},{"name":"B4","midi":71,"time":"306.72","velocity":0.08661417322834646,"duration":"0.06"},{"name":"C#2","midi":37,"time":"306.73","velocity":0.4015748031496063,"duration":"0.02"},{"name":"A#5","midi":82,"time":"306.73","velocity":0.15748031496062992,"duration":"0.05"},{"name":"A3","midi":57,"time":"306.76","velocity":0.3464566929133858,"duration":"0.10"},{"name":"G5","midi":79,"time":"306.79","velocity":0.15748031496062992,"duration":"0.07"},{"name":"D#2","midi":39,"time":"306.85","velocity":0.3700787401574803,"duration":"0.02"},{"name":"F#5","midi":78,"time":"306.85","velocity":0.12598425196850394,"duration":"0.03"},{"name":"B5","midi":83,"time":"306.85","velocity":0.1889763779527559,"duration":"0.06"},{"name":"G#6","midi":92,"time":"306.85","velocity":0.16535433070866143,"duration":"0.06"},{"name":"A#6","midi":94,"time":"306.85","velocity":0.12598425196850394,"duration":"0.06"},{"name":"G7","midi":103,"time":"306.85","velocity":0.2992125984251969,"duration":"0.24"},{"name":"A#3","midi":58,"time":"306.86","velocity":0.28346456692913385,"duration":"0.02"},{"name":"G#5","midi":80,"time":"306.86","velocity":0.2283464566929134,"duration":"0.05"},{"name":"C7","midi":96,"time":"306.86","velocity":0.1968503937007874,"duration":"0.08"},{"name":"F#7","midi":102,"time":"306.86","velocity":0.2992125984251969,"duration":"0.33"},{"name":"G5","midi":79,"time":"306.87","velocity":0.16535433070866143,"duration":"0.03"},{"name":"F7","midi":101,"time":"306.87","velocity":0.25984251968503935,"duration":"0.24"},{"name":"E2","midi":40,"time":"306.88","velocity":0.5354330708661418,"duration":"0.02"},{"name":"C4","midi":60,"time":"306.88","velocity":0.31496062992125984,"duration":"0.03"},{"name":"F6","midi":89,"time":"306.88","velocity":0.13385826771653545,"duration":"0.06"},{"name":"D7","midi":98,"time":"306.88","velocity":0.08661417322834646,"duration":"0.06"},{"name":"D#3","midi":51,"time":"306.90","velocity":0.5354330708661418,"duration":"0.01"},{"name":"E5","midi":76,"time":"306.90","velocity":0.30708661417322836,"duration":"0.34"},{"name":"D3","midi":50,"time":"306.91","velocity":0.5748031496062992,"duration":"0.35"},{"name":"C#5","midi":73,"time":"306.91","velocity":0.47244094488188976,"duration":"0.37"},{"name":"A#5","midi":82,"time":"306.91","velocity":0.2204724409448819,"duration":"0.34"},{"name":"D#7","midi":99,"time":"306.91","velocity":0.1889763779527559,"duration":"0.12"},{"name":"E2","midi":40,"time":"306.92","velocity":0.3858267716535433,"duration":"0.02"},{"name":"C#4","midi":61,"time":"306.92","velocity":0.44881889763779526,"duration":"0.31"},{"name":"D#6","midi":87,"time":"306.92","velocity":0.14960629921259844,"duration":"0.08"},{"name":"G#6","midi":92,"time":"306.92","velocity":0.2125984251968504,"duration":"0.14"},{"name":"B6","midi":95,"time":"306.92","velocity":0.11811023622047244,"duration":"0.05"},{"name":"D2","midi":38,"time":"306.94","velocity":0.3543307086614173,"duration":"0.05"},{"name":"A3","midi":57,"time":"306.95","velocity":0.29133858267716534,"duration":"0.03"},{"name":"C6","midi":84,"time":"306.95","velocity":0.09448818897637795,"duration":"0.05"},{"name":"G5","midi":79,"time":"306.97","velocity":0.18110236220472442,"duration":"0.08"},{"name":"F#6","midi":90,"time":"306.97","velocity":0.07086614173228346,"duration":"0.03"},{"name":"D2","midi":38,"time":"307.00","velocity":0.3464566929133858,"duration":"0.06"},{"name":"A3","midi":57,"time":"307.00","velocity":0.5275590551181102,"duration":"0.24"},{"name":"C6","midi":84,"time":"307.01","velocity":0.12598425196850394,"duration":"0.05"},{"name":"D6","midi":86,"time":"307.03","velocity":0.15748031496062992,"duration":"0.07"},{"name":"F6","midi":89,"time":"307.03","velocity":0.15748031496062992,"duration":"0.16"},{"name":"D2","midi":38,"time":"307.07","velocity":0.36220472440944884,"duration":"0.12"},{"name":"G5","midi":79,"time":"307.09","velocity":0.1732283464566929,"duration":"0.15"},{"name":"G6","midi":91,"time":"307.09","velocity":0.2440944881889764,"duration":"0.44"},{"name":"D6","midi":86,"time":"307.13","velocity":0.30708661417322836,"duration":"0.24"},{"name":"F#4","midi":66,"time":"307.14","velocity":0.16535433070866143,"duration":"0.08"},{"name":"G#5","midi":80,"time":"307.15","velocity":0.1889763779527559,"duration":"0.03"},{"name":"D2","midi":38,"time":"307.20","velocity":0.3700787401574803,"duration":"0.05"},{"name":"B6","midi":95,"time":"307.20","velocity":0.18110236220472442,"duration":"0.20"},{"name":"E4","midi":64,"time":"307.23","velocity":0.49606299212598426,"duration":"0.02"},{"name":"A#6","midi":94,"time":"307.23","velocity":0.29133858267716534,"duration":"0.09"},{"name":"C7","midi":96,"time":"307.23","velocity":0.2047244094488189,"duration":"0.09"},{"name":"F#7","midi":102,"time":"307.23","velocity":0.25196850393700787,"duration":"0.19"},{"name":"C#2","midi":37,"time":"307.24","velocity":0.3700787401574803,"duration":"0.02"},{"name":"A#3","midi":58,"time":"307.24","velocity":0.5511811023622047,"duration":"0.01"},{"name":"B4","midi":71,"time":"307.24","velocity":0.5039370078740157,"duration":"0.02"},{"name":"F#5","midi":78,"time":"307.24","velocity":0.3464566929133858,"duration":"0.02"},{"name":"C6","midi":84,"time":"307.24","velocity":0.3228346456692913,"duration":"0.07"},{"name":"D4","midi":62,"time":"307.26","velocity":0.47244094488188976,"duration":"0.02"},{"name":"F#4","midi":66,"time":"307.26","velocity":0.4330708661417323,"duration":"0.03"},{"name":"G#4","midi":68,"time":"307.26","velocity":0.5354330708661418,"duration":"0.02"},{"name":"D#6","midi":87,"time":"307.26","velocity":0.2283464566929134,"duration":"0.05"},{"name":"D#7","midi":99,"time":"307.26","velocity":0.23622047244094488,"duration":"0.13"},{"name":"F7","midi":101,"time":"307.26","velocity":0.2047244094488189,"duration":"0.20"},{"name":"E3","midi":52,"time":"307.27","velocity":0.5433070866141733,"duration":"0.02"},{"name":"D#5","midi":75,"time":"307.27","velocity":0.4330708661417323,"duration":"0.02"},{"name":"G5","midi":79,"time":"307.27","velocity":0.31496062992125984,"duration":"0.05"},{"name":"B5","midi":83,"time":"307.27","velocity":0.2992125984251969,"duration":"0.05"},{"name":"F6","midi":89,"time":"307.27","velocity":0.2677165354330709,"duration":"0.02"},{"name":"D#2","midi":39,"time":"307.28","velocity":0.4409448818897638,"duration":"0.02"},{"name":"C4","midi":60,"time":"307.28","velocity":0.4015748031496063,"duration":"0.02"},{"name":"A#4","midi":70,"time":"307.28","velocity":0.5039370078740157,"duration":"0.03"},{"name":"D3","midi":50,"time":"307.29","velocity":0.6141732283464567,"duration":"0.33"},{"name":"F4","midi":65,"time":"307.29","velocity":0.3700787401574803,"duration":"0.02"},{"name":"E5","midi":76,"time":"307.29","velocity":0.25984251968503935,"duration":"0.02"},{"name":"F#6","midi":90,"time":"307.29","velocity":0.2125984251968504,"duration":"0.10"},{"name":"G#6","midi":92,"time":"307.30","velocity":0.2283464566929134,"duration":"0.19"},{"name":"A#3","midi":58,"time":"307.31","velocity":0.4251968503937008,"duration":"0.03"},{"name":"F#4","midi":66,"time":"307.31","velocity":0.3700787401574803,"duration":"0.02"},{"name":"A4","midi":69,"time":"307.31","velocity":0.4881889763779528,"duration":"0.35"},{"name":"D#5","midi":75,"time":"307.31","velocity":0.2755905511811024,"duration":"0.09"},{"name":"C5","midi":72,"time":"307.33","velocity":0.28346456692913385,"duration":"0.02"},{"name":"B5","midi":83,"time":"307.33","velocity":0.12598425196850394,"duration":"0.06"},{"name":"F#5","midi":78,"time":"307.34","velocity":0.2283464566929134,"duration":"0.03"},{"name":"G#5","midi":80,"time":"307.34","velocity":0.4409448818897638,"duration":"0.23"},{"name":"C7","midi":96,"time":"307.34","velocity":0.14173228346456693,"duration":"0.06"},{"name":"C#4","midi":61,"time":"307.35","velocity":0.3937007874015748,"duration":"0.06"},{"name":"F#4","midi":66,"time":"307.35","velocity":0.31496062992125984,"duration":"0.06"},{"name":"A#6","midi":94,"time":"307.35","velocity":0.13385826771653545,"duration":"0.13"},{"name":"B4","midi":71,"time":"307.36","velocity":0.33858267716535434,"duration":"0.03"},{"name":"F6","midi":89,"time":"307.36","velocity":0.1889763779527559,"duration":"0.15"},{"name":"F5","midi":77,"time":"307.37","velocity":0.2440944881889764,"duration":"0.02"},{"name":"A3","midi":57,"time":"307.38","velocity":0.48031496062992124,"duration":"0.02"},{"name":"C6","midi":84,"time":"307.40","velocity":0.14960629921259844,"duration":"0.06"},{"name":"E5","midi":76,"time":"307.41","velocity":0.2992125984251969,"duration":"0.24"},{"name":"E6","midi":88,"time":"307.41","velocity":0.3464566929133858,"duration":"0.78"},{"name":"A#3","midi":58,"time":"307.42","velocity":0.5118110236220472,"duration":"0.02"},{"name":"C#4","midi":61,"time":"307.42","velocity":0.44881889763779526,"duration":"0.20"},{"name":"C#2","midi":37,"time":"307.43","velocity":0.2440944881889764,"duration":"0.02"},{"name":"F#7","midi":102,"time":"307.43","velocity":0.08661417322834646,"duration":"0.15"},{"name":"A3","midi":57,"time":"307.44","velocity":0.4881889763779528,"duration":"0.03"},{"name":"D2","midi":38,"time":"307.45","velocity":0.2204724409448819,"duration":"0.06"},{"name":"D6","midi":86,"time":"307.47","velocity":0.10236220472440945,"duration":"0.03"},{"name":"A#5","midi":82,"time":"307.48","velocity":0.14173228346456693,"duration":"0.12"},{"name":"A3","midi":57,"time":"307.49","velocity":0.49606299212598426,"duration":"0.06"},{"name":"F#4","midi":66,"time":"307.52","velocity":0.18110236220472442,"duration":"0.03"},{"name":"C7","midi":96,"time":"307.52","velocity":0.07874015748031496,"duration":"0.06"},{"name":"G#3","midi":56,"time":"307.55","velocity":0.4409448818897638,"duration":"0.02"},{"name":"F6","midi":89,"time":"307.56","velocity":0.1968503937007874,"duration":"0.14"},{"name":"A3","midi":57,"time":"307.57","velocity":0.5196850393700787,"duration":"0.05"},{"name":"A5","midi":81,"time":"307.57","velocity":0.4881889763779528,"duration":"0.31"},{"name":"G6","midi":91,"time":"307.57","velocity":0.23622047244094488,"duration":"0.53"},{"name":"G7","midi":103,"time":"307.58","velocity":0.23622047244094488,"duration":"0.26"},{"name":"F#4","midi":66,"time":"307.62","velocity":0.16535433070866143,"duration":"0.05"},{"name":"F#7","midi":102,"time":"307.62","velocity":0.30708661417322836,"duration":"2.73"},{"name":"C#4","midi":61,"time":"307.63","velocity":0.30708661417322836,"duration":"0.05"},{"name":"A#6","midi":94,"time":"307.63","velocity":0.14173228346456693,"duration":"0.06"},{"name":"E2","midi":40,"time":"307.64","velocity":0.5118110236220472,"duration":"0.05"},{"name":"C7","midi":96,"time":"307.64","velocity":0.07086614173228346,"duration":"0.03"},{"name":"D#7","midi":99,"time":"307.64","velocity":0.14173228346456693,"duration":"0.15"},{"name":"D3","midi":50,"time":"307.65","velocity":0.5905511811023622,"duration":"0.34"},{"name":"G#6","midi":92,"time":"307.65","velocity":0.25196850393700787,"duration":"0.13"},{"name":"D7","midi":98,"time":"307.65","velocity":0.13385826771653545,"duration":"0.06"},{"name":"A#3","midi":58,"time":"307.66","velocity":0.2677165354330709,"duration":"0.02"},{"name":"E5","midi":76,"time":"307.66","velocity":0.3858267716535433,"duration":"0.37"},{"name":"A4","midi":69,"time":"307.67","velocity":0.4566929133858268,"duration":"0.33"},{"name":"B6","midi":95,"time":"307.67","velocity":0.07086614173228346,"duration":"0.06"},{"name":"A3","midi":57,"time":"307.69","velocity":0.30708661417322836,"duration":"0.05"},{"name":"C#4","midi":61,"time":"307.69","velocity":0.4094488188976378,"duration":"0.30"},{"name":"D#6","midi":87,"time":"307.69","velocity":0.18110236220472442,"duration":"0.05"},{"name":"G5","midi":79,"time":"307.70","velocity":0.25984251968503935,"duration":"0.07"},{"name":"D2","midi":38,"time":"307.71","velocity":0.25984251968503935,"duration":"0.03"},{"name":"B5","midi":83,"time":"307.73","velocity":0.09448818897637795,"duration":"0.06"},{"name":"C#2","midi":37,"time":"307.76","velocity":0.3228346456692913,"duration":"0.02"},{"name":"A3","midi":57,"time":"307.76","velocity":0.4645669291338583,"duration":"0.21"},{"name":"D2","midi":38,"time":"307.78","velocity":0.3228346456692913,"duration":"0.19"},{"name":"A#6","midi":94,"time":"307.78","velocity":0.11023622047244094,"duration":"0.07"},{"name":"G5","midi":79,"time":"307.84","velocity":0.13385826771653545,"duration":"0.03"},{"name":"A#5","midi":82,"time":"307.84","velocity":0.10236220472440945,"duration":"0.05"},{"name":"G#5","midi":80,"time":"307.88","velocity":0.2047244094488189,"duration":"0.03"},{"name":"F6","midi":89,"time":"307.88","velocity":0.10236220472440945,"duration":"0.05"},{"name":"G5","midi":79,"time":"307.90","velocity":0.1732283464566929,"duration":"0.03"},{"name":"C7","midi":96,"time":"307.91","velocity":0.11023622047244094,"duration":"0.05"},{"name":"F4","midi":65,"time":"307.95","velocity":0.33070866141732286,"duration":"0.05"},{"name":"F#6","midi":90,"time":"307.95","velocity":0.3228346456692913,"duration":"0.85"},{"name":"B6","midi":95,"time":"307.95","velocity":0.13385826771653545,"duration":"0.07"},{"name":"G#6","midi":92,"time":"307.98","velocity":0.2283464566929134,"duration":"0.23"},{"name":"F7","midi":101,"time":"307.98","velocity":0.2677165354330709,"duration":"0.20"},{"name":"E2","midi":40,"time":"307.99","velocity":0.6929133858267716,"duration":"0.02"},{"name":"D5","midi":74,"time":"307.99","velocity":0.2755905511811024,"duration":"0.05"},{"name":"G5","midi":79,"time":"307.99","velocity":0.25984251968503935,"duration":"0.05"},{"name":"C#6","midi":85,"time":"307.99","velocity":0.28346456692913385,"duration":"0.41"},{"name":"F#4","midi":66,"time":"308.00","velocity":0.4330708661417323,"duration":"0.05"},{"name":"A#4","midi":70,"time":"308.00","velocity":0.3464566929133858,"duration":"0.03"},{"name":"A5","midi":81,"time":"308.00","velocity":0.3228346456692913,"duration":"0.08"},{"name":"D#6","midi":87,"time":"308.00","velocity":0.2440944881889764,"duration":"0.05"},{"name":"C7","midi":96,"time":"308.00","velocity":0.14960629921259844,"duration":"0.05"},{"name":"F2","midi":41,"time":"308.01","velocity":0.6850393700787402,"duration":"0.02"},{"name":"A#6","midi":94,"time":"308.01","velocity":0.09448818897637795,"duration":"0.03"},{"name":"D3","midi":50,"time":"308.02","velocity":0.5275590551181102,"duration":"0.01"},{"name":"C4","midi":60,"time":"308.02","velocity":0.3228346456692913,"duration":"0.02"},{"name":"C#5","midi":73,"time":"308.02","velocity":0.33858267716535434,"duration":"0.37"},{"name":"E1","midi":28,"time":"308.03","velocity":0.5826771653543307,"duration":"0.02"},{"name":"C#3","midi":49,"time":"308.03","velocity":0.5984251968503937,"duration":"0.03"},{"name":"G3","midi":55,"time":"308.03","velocity":0.4566929133858268,"duration":"0.02"},{"name":"A4","midi":69,"time":"308.03","velocity":0.4015748031496063,"duration":"0.41"},{"name":"F6","midi":89,"time":"308.03","velocity":0.2047244094488189,"duration":"0.30"},{"name":"E5","midi":76,"time":"308.05","velocity":0.18110236220472442,"duration":"0.12"},{"name":"B6","midi":95,"time":"308.05","velocity":0.13385826771653545,"duration":"0.06"},{"name":"G#1","midi":32,"time":"308.06","velocity":0.5590551181102362,"duration":"0.01"},{"name":"G#3","midi":56,"time":"308.06","velocity":0.49606299212598426,"duration":"0.02"},{"name":"G#5","midi":80,"time":"308.06","velocity":0.18110236220472442,"duration":"0.06"},{"name":"B1","midi":35,"time":"308.07","velocity":0.5433070866141733,"duration":"0.01"},{"name":"C3","midi":48,"time":"308.07","velocity":0.6377952755905512,"duration":"0.01"},{"name":"F4","midi":65,"time":"308.07","velocity":0.16535433070866143,"duration":"0.05"},{"name":"F#5","midi":78,"time":"308.07","velocity":0.1968503937007874,"duration":"0.14"},{"name":"B5","midi":83,"time":"308.07","velocity":0.3858267716535433,"duration":"0.79"},{"name":"C#3","midi":49,"time":"308.08","velocity":0.5984251968503937,"duration":"0.28"},{"name":"A3","midi":57,"time":"308.08","velocity":0.5039370078740157,"duration":"0.02"},{"name":"G#3","midi":56,"time":"308.10","velocity":0.5354330708661418,"duration":"0.06"},{"name":"B4","midi":71,"time":"308.12","velocity":0.2047244094488189,"duration":"0.05"},{"name":"F4","midi":65,"time":"308.14","velocity":0.15748031496062992,"duration":"0.03"},{"name":"D#6","midi":87,"time":"308.15","velocity":0.16535433070866143,"duration":"0.03"},{"name":"A3","midi":57,"time":"308.16","velocity":0.5275590551181102,"duration":"0.02"},{"name":"G#3","midi":56,"time":"308.17","velocity":0.4251968503937008,"duration":"0.02"},{"name":"B4","midi":71,"time":"308.17","velocity":0.4015748031496063,"duration":"0.20"},{"name":"G#5","midi":80,"time":"308.19","velocity":0.2283464566929134,"duration":"0.02"},{"name":"D#7","midi":99,"time":"308.19","velocity":0.11023622047244094,"duration":"0.06"},{"name":"G#3","midi":56,"time":"308.21","velocity":0.5669291338582677,"duration":"0.07"},{"name":"E5","midi":76,"time":"308.21","velocity":0.2677165354330709,"duration":"0.29"},{"name":"B1","midi":35,"time":"308.23","velocity":0.3228346456692913,"duration":"0.02"},{"name":"F#5","midi":78,"time":"308.23","velocity":0.2440944881889764,"duration":"0.12"},{"name":"F4","midi":65,"time":"308.26","velocity":0.23622047244094488,"duration":"0.03"},{"name":"G#3","midi":56,"time":"308.29","velocity":0.5669291338582677,"duration":"0.06"},{"name":"C#7","midi":97,"time":"308.29","velocity":0.3228346456692913,"duration":"0.33"},{"name":"F4","midi":65,"time":"308.31","velocity":0.15748031496062992,"duration":"0.06"},{"name":"G5","midi":79,"time":"308.31","velocity":0.13385826771653545,"duration":"0.05"},{"name":"B1","midi":35,"time":"308.34","velocity":0.3464566929133858,"duration":"0.02"},{"name":"D3","midi":50,"time":"308.36","velocity":0.5984251968503937,"duration":"0.02"},{"name":"F#4","midi":66,"time":"308.36","velocity":0.3543307086614173,"duration":"0.03"},{"name":"D#6","midi":87,"time":"308.36","velocity":0.25196850393700787,"duration":"0.06"},{"name":"G5","midi":79,"time":"308.37","velocity":0.29133858267716534,"duration":"0.03"},{"name":"C6","midi":84,"time":"308.37","velocity":0.14173228346456693,"duration":"0.03"},{"name":"E6","midi":88,"time":"308.37","velocity":0.29133858267716534,"duration":"0.19"},{"name":"G#6","midi":92,"time":"308.37","velocity":0.18110236220472442,"duration":"0.17"},{"name":"D7","midi":98,"time":"308.37","velocity":0.14960629921259844,"duration":"0.06"},{"name":"F7","midi":101,"time":"308.37","velocity":0.2677165354330709,"duration":"0.23"},{"name":"G7","midi":103,"time":"308.37","velocity":0.15748031496062992,"duration":"0.06"},{"name":"F2","midi":41,"time":"308.38","velocity":0.6850393700787402,"duration":"0.01"},{"name":"B4","midi":71,"time":"308.38","velocity":0.33858267716535434,"duration":"0.08"},{"name":"E2","midi":40,"time":"308.40","velocity":0.6692913385826772,"duration":"0.01"},{"name":"A3","midi":57,"time":"308.40","velocity":0.3543307086614173,"duration":"0.02"},{"name":"D5","midi":74,"time":"308.40","velocity":0.2204724409448819,"duration":"0.05"},{"name":"F2","midi":41,"time":"308.41","velocity":0.6141732283464567,"duration":"0.01"},{"name":"F#5","midi":78,"time":"308.41","velocity":0.1968503937007874,"duration":"0.06"},{"name":"C#6","midi":85,"time":"308.41","velocity":0.30708661417322836,"duration":"0.36"},{"name":"D#2","midi":39,"time":"308.42","velocity":0.5826771653543307,"duration":"0.01"},{"name":"C#3","midi":49,"time":"308.42","velocity":0.5354330708661418,"duration":"0.01"},{"name":"G1","midi":31,"time":"308.43","velocity":0.5669291338582677,"duration":"0.01"},{"name":"D3","midi":50,"time":"308.43","velocity":0.5748031496062992,"duration":"0.30"},{"name":"C#4","midi":61,"time":"308.43","velocity":0.31496062992125984,"duration":"0.05"},{"name":"G6","midi":91,"time":"308.44","velocity":0.11023622047244094,"duration":"0.03"},{"name":"G7","midi":103,"time":"308.44","velocity":0.11811023622047244,"duration":"0.08"},{"name":"A3","midi":57,"time":"308.45","velocity":0.41732283464566927,"duration":"0.03"},{"name":"F#4","midi":66,"time":"308.45","velocity":0.11811023622047244,"duration":"0.03"},{"name":"G5","midi":79,"time":"308.45","velocity":0.13385826771653545,"duration":"0.05"},{"name":"A#6","midi":94,"time":"308.45","velocity":0.14173228346456693,"duration":"0.06"},{"name":"D#6","midi":87,"time":"308.47","velocity":0.11023622047244094,"duration":"0.05"},{"name":"D#7","midi":99,"time":"308.47","velocity":0.11023622047244094,"duration":"0.03"},{"name":"F#5","midi":78,"time":"308.48","velocity":0.30708661417322836,"duration":"0.29"},{"name":"A3","midi":57,"time":"308.50","velocity":0.36220472440944884,"duration":"0.06"},{"name":"C#4","midi":61,"time":"308.50","velocity":0.3779527559055118,"duration":"0.06"},{"name":"B4","midi":71,"time":"308.50","velocity":0.33858267716535434,"duration":"0.06"},{"name":"E2","midi":40,"time":"308.52","velocity":0.3543307086614173,"duration":"0.02"},{"name":"F#4","midi":66,"time":"308.52","velocity":0.14173228346456693,"duration":"0.09"},{"name":"D1","midi":26,"time":"308.53","velocity":0.36220472440944884,"duration":"0.02"},{"name":"E5","midi":76,"time":"308.53","velocity":0.48031496062992124,"duration":"0.23"},{"name":"B1","midi":35,"time":"308.56","velocity":0.3858267716535433,"duration":"0.02"},{"name":"A4","midi":69,"time":"308.56","velocity":0.1732283464566929,"duration":"0.05"},{"name":"D#6","midi":87,"time":"308.56","velocity":0.10236220472440945,"duration":"0.03"},{"name":"A3","midi":57,"time":"308.57","velocity":0.3700787401574803,"duration":"0.02"},{"name":"B4","midi":71,"time":"308.57","velocity":0.33070866141732286,"duration":"0.05"},{"name":"G6","midi":91,"time":"308.57","velocity":0.11023622047244094,"duration":"0.07"},{"name":"F6","midi":89,"time":"308.58","velocity":0.12598425196850394,"duration":"0.05"},{"name":"G#6","midi":92,"time":"308.58","velocity":0.14173228346456693,"duration":"0.06"},{"name":"A4","midi":69,"time":"308.62","velocity":0.2204724409448819,"duration":"0.08"},{"name":"D6","midi":86,"time":"308.62","velocity":0.09448818897637795,"duration":"0.05"},{"name":"C#4","midi":61,"time":"308.63","velocity":0.3228346456692913,"duration":"0.02"},{"name":"D2","midi":38,"time":"308.64","velocity":0.33070866141732286,"duration":"0.02"},{"name":"D#6","midi":87,"time":"308.64","velocity":0.18110236220472442,"duration":"0.07"},{"name":"G7","midi":103,"time":"308.64","velocity":0.14173228346456693,"duration":"0.09"},{"name":"C#4","midi":61,"time":"308.66","velocity":0.2677165354330709,"duration":"0.02"},{"name":"B4","midi":71,"time":"308.66","velocity":0.4015748031496063,"duration":"0.08"},{"name":"A3","midi":57,"time":"308.67","velocity":0.2992125984251969,"duration":"0.02"},{"name":"A#6","midi":94,"time":"308.67","velocity":0.2755905511811024,"duration":"0.13"},{"name":"C#2","midi":37,"time":"308.70","velocity":0.3937007874015748,"duration":"0.02"},{"name":"F#4","midi":66,"time":"308.70","velocity":0.25984251968503935,"duration":"0.05"},{"name":"C#4","midi":61,"time":"308.71","velocity":0.31496062992125984,"duration":"0.03"},{"name":"G#5","midi":80,"time":"308.73","velocity":0.29133858267716534,"duration":"0.03"},{"name":"F7","midi":101,"time":"308.73","velocity":0.2204724409448819,"duration":"0.16"},{"name":"F2","midi":41,"time":"308.74","velocity":0.5511811023622047,"duration":"0.02"},{"name":"G#3","midi":56,"time":"308.74","velocity":0.4881889763779528,"duration":"0.02"},{"name":"G#4","midi":68,"time":"308.74","velocity":0.5669291338582677,"duration":"0.02"},{"name":"D6","midi":86,"time":"308.74","velocity":0.2755905511811024,"duration":"0.14"},{"name":"G6","midi":91,"time":"308.74","velocity":0.25196850393700787,"duration":"0.03"},{"name":"G#6","midi":92,"time":"308.74","velocity":0.31496062992125984,"duration":"0.15"},{"name":"C7","midi":96,"time":"308.74","velocity":0.23622047244094488,"duration":"0.02"},{"name":"C#7","midi":97,"time":"308.74","velocity":0.3700787401574803,"duration":"3.40"},{"name":"D#7","midi":99,"time":"308.74","velocity":0.2755905511811024,"duration":"0.20"},{"name":"E7","midi":100,"time":"308.74","velocity":0.1889763779527559,"duration":"0.23"},{"name":"C4","midi":60,"time":"308.76","velocity":0.49606299212598426,"duration":"0.02"},{"name":"E4","midi":64,"time":"308.76","velocity":0.4881889763779528,"duration":"0.02"},{"name":"G5","midi":79,"time":"308.76","velocity":0.2755905511811024,"duration":"0.05"},{"name":"A#5","midi":82,"time":"308.76","velocity":0.3228346456692913,"duration":"0.03"},{"name":"G7","midi":103,"time":"308.76","velocity":0.2677165354330709,"duration":"0.08"},{"name":"G3","midi":55,"time":"308.77","velocity":0.5590551181102362,"duration":"0.01"},{"name":"A4","midi":69,"time":"308.77","velocity":0.5354330708661418,"duration":"0.01"},{"name":"D#5","midi":75,"time":"308.77","velocity":0.41732283464566927,"duration":"0.03"},{"name":"C6","midi":84,"time":"308.77","velocity":0.2677165354330709,"duration":"0.02"},{"name":"F3","midi":53,"time":"308.78","velocity":0.5433070866141733,"duration":"0.01"},{"name":"F#5","midi":78,"time":"308.78","velocity":0.23622047244094488,"duration":"0.02"},{"name":"A5","midi":81,"time":"308.78","velocity":0.25984251968503935,"duration":"0.03"},{"name":"E6","midi":88,"time":"308.78","velocity":0.2440944881889764,"duration":"0.16"},{"name":"E2","midi":40,"time":"308.79","velocity":0.4015748031496063,"duration":"0.02"},{"name":"E3","midi":52,"time":"308.79","velocity":0.5511811023622047,"duration":"0.05"},{"name":"D4","midi":62,"time":"308.79","velocity":0.33858267716535434,"duration":"0.02"},{"name":"A4","midi":69,"time":"308.79","velocity":0.4409448818897638,"duration":"0.13"},{"name":"B4","midi":71,"time":"308.79","velocity":0.4566929133858268,"duration":"0.05"},{"name":"C#5","midi":73,"time":"308.80","velocity":0.3228346456692913,"duration":"0.05"},{"name":"E5","midi":76,"time":"308.80","velocity":0.29133858267716534,"duration":"0.02"},{"name":"G#5","midi":80,"time":"308.80","velocity":0.3779527559055118,"duration":"0.58"},{"name":"C#6","midi":85,"time":"308.80","velocity":0.4015748031496063,"duration":"0.45"},{"name":"F6","midi":89,"time":"308.80","velocity":0.1968503937007874,"duration":"0.05"},{"name":"C#4","midi":61,"time":"308.81","velocity":0.49606299212598426,"duration":"0.31"},{"name":"F#4","midi":66,"time":"308.81","velocity":0.3464566929133858,"duration":"0.03"},{"name":"F#6","midi":90,"time":"308.81","velocity":0.3700787401574803,"duration":"0.79"},{"name":"E2","midi":40,"time":"308.83","velocity":0.4409448818897638,"duration":"0.29"},{"name":"D#5","midi":75,"time":"308.83","velocity":0.31496062992125984,"duration":"0.02"},{"name":"A#6","midi":94,"time":"308.83","velocity":0.12598425196850394,"duration":"0.12"},{"name":"E3","midi":52,"time":"308.85","velocity":0.5669291338582677,"duration":"0.27"},{"name":"B4","midi":71,"time":"308.86","velocity":0.4881889763779528,"duration":"0.51"},{"name":"A#5","midi":82,"time":"308.86","velocity":0.2440944881889764,"duration":"0.02"},{"name":"F5","midi":77,"time":"308.87","velocity":0.2677165354330709,"duration":"0.03"},{"name":"E5","midi":76,"time":"308.90","velocity":0.2755905511811024,"duration":"0.12"},{"name":"D#6","midi":87,"time":"308.90","velocity":0.16535433070866143,"duration":"0.12"},{"name":"F#5","midi":78,"time":"308.91","velocity":0.25196850393700787,"duration":"0.10"},{"name":"G6","midi":91,"time":"308.91","velocity":0.11811023622047244,"duration":"0.12"},{"name":"F7","midi":101,"time":"308.91","velocity":0.13385826771653545,"duration":"0.06"},{"name":"A3","midi":57,"time":"308.93","velocity":0.4094488188976378,"duration":"0.02"},{"name":"F4","midi":65,"time":"308.93","velocity":0.2125984251968504,"duration":"0.03"},{"name":"A4","midi":69,"time":"308.93","velocity":0.4409448818897638,"duration":"0.08"},{"name":"A3","midi":57,"time":"308.97","velocity":0.3779527559055118,"duration":"0.02"},{"name":"F6","midi":89,"time":"308.97","velocity":0.1732283464566929,"duration":"0.10"},{"name":"D#5","midi":75,"time":"309.01","velocity":0.2204724409448819,"duration":"0.05"},{"name":"F5","midi":77,"time":"309.01","velocity":0.13385826771653545,"duration":"0.03"},{"name":"A4","midi":69,"time":"309.02","velocity":0.3779527559055118,"duration":"0.08"},{"name":"F#5","midi":78,"time":"309.03","velocity":0.28346456692913385,"duration":"0.13"},{"name":"E5","midi":76,"time":"309.07","velocity":0.1732283464566929,"duration":"0.06"},{"name":"A5","midi":81,"time":"309.10","velocity":0.2440944881889764,"duration":"0.03"},{"name":"E6","midi":88,"time":"309.10","velocity":0.2440944881889764,"duration":"0.37"},{"name":"F6","midi":89,"time":"309.10","velocity":0.2204724409448819,"duration":"0.34"},{"name":"D#5","midi":75,"time":"309.12","velocity":0.11023622047244094,"duration":"0.03"},{"name":"C7","midi":96,"time":"309.12","velocity":0.14960629921259844,"duration":"0.10"},{"name":"G#2","midi":44,"time":"309.13","velocity":0.5039370078740157,"duration":"0.02"},{"name":"A#3","midi":58,"time":"309.13","velocity":0.4094488188976378,"duration":"0.02"},{"name":"G#4","midi":68,"time":"309.13","velocity":0.25984251968503935,"duration":"0.02"},{"name":"G7","midi":103,"time":"309.13","velocity":0.1968503937007874,"duration":"0.06"},{"name":"A6","midi":93,"time":"309.14","velocity":0.30708661417322836,"duration":"0.08"},{"name":"E3","midi":52,"time":"309.15","velocity":0.5669291338582677,"duration":"0.21"},{"name":"G4","midi":67,"time":"309.15","velocity":0.2125984251968504,"duration":"0.03"},{"name":"E5","midi":76,"time":"309.15","velocity":0.3858267716535433,"duration":"0.58"},{"name":"D#7","midi":99,"time":"309.15","velocity":0.2755905511811024,"duration":"0.60"},{"name":"E2","midi":40,"time":"309.16","velocity":0.5354330708661418,"duration":"0.20"},{"name":"C#4","midi":61,"time":"309.16","velocity":0.4409448818897638,"duration":"0.06"},{"name":"A5","midi":81,"time":"309.16","velocity":0.28346456692913385,"duration":"0.05"},{"name":"D#6","midi":87,"time":"309.17","velocity":0.16535433070866143,"duration":"0.15"},{"name":"D7","midi":98,"time":"309.17","velocity":0.16535433070866143,"duration":"0.12"},{"name":"A4","midi":69,"time":"309.21","velocity":0.33070866141732286,"duration":"0.07"},{"name":"G7","midi":103,"time":"309.21","velocity":0.14960629921259844,"duration":"0.06"},{"name":"G6","midi":91,"time":"309.22","velocity":0.08661417322834646,"duration":"0.13"},{"name":"F#5","midi":78,"time":"309.23","velocity":0.2992125984251969,"duration":"0.10"},{"name":"D6","midi":86,"time":"309.23","velocity":0.1889763779527559,"duration":"0.05"},{"name":"C#4","midi":61,"time":"309.26","velocity":0.3937007874015748,"duration":"0.02"},{"name":"G4","midi":67,"time":"309.27","velocity":0.11811023622047244,"duration":"0.03"},{"name":"C#4","midi":61,"time":"309.29","velocity":0.3464566929133858,"duration":"0.02"},{"name":"D7","midi":98,"time":"309.30","velocity":0.1732283464566929,"duration":"0.10"},{"name":"A6","midi":93,"time":"309.31","velocity":0.2677165354330709,"duration":"0.28"},{"name":"A#6","midi":94,"time":"309.33","velocity":0.2125984251968504,"duration":"0.40"},{"name":"D5","midi":74,"time":"309.34","velocity":0.2677165354330709,"duration":"0.03"},{"name":"C#4","midi":61,"time":"309.35","velocity":0.3700787401574803,"duration":"0.08"},{"name":"A4","midi":69,"time":"309.35","velocity":0.3543307086614173,"duration":"0.03"},{"name":"D#6","midi":87,"time":"309.35","velocity":0.29133858267716534,"duration":"0.19"},{"name":"G#6","midi":92,"time":"309.35","velocity":0.3779527559055118,"duration":"2.45"},{"name":"G7","midi":103,"time":"309.35","velocity":0.18110236220472442,"duration":"0.09"},{"name":"F2","midi":41,"time":"309.36","velocity":0.5984251968503937,"duration":"0.05"},{"name":"F#5","midi":78,"time":"309.36","velocity":0.25196850393700787,"duration":"0.13"},{"name":"D6","midi":86,"time":"309.37","velocity":0.2047244094488189,"duration":"0.07"},{"name":"B4","midi":71,"time":"309.38","velocity":0.4566929133858268,"duration":"0.05"},{"name":"A4","midi":69,"time":"309.40","velocity":0.36220472440944884,"duration":"0.13"},{"name":"G#5","midi":80,"time":"309.40","velocity":0.3858267716535433,"duration":"0.13"},{"name":"C7","midi":96,"time":"309.40","velocity":0.07086614173228346,"duration":"0.05"},{"name":"F#2","midi":42,"time":"309.41","velocity":0.5984251968503937,"duration":"0.03"},{"name":"E4","midi":64,"time":"309.41","velocity":0.2755905511811024,"duration":"0.05"},{"name":"G3","midi":55,"time":"309.43","velocity":0.36220472440944884,"duration":"0.07"},{"name":"G2","midi":43,"time":"309.44","velocity":0.6062992125984252,"duration":"0.02"},{"name":"B4","midi":71,"time":"309.45","velocity":0.3858267716535433,"duration":"0.03"},{"name":"G#2","midi":44,"time":"309.47","velocity":0.6062992125984252,"duration":"0.02"},{"name":"C#4","midi":61,"time":"309.47","velocity":0.2677165354330709,"duration":"0.05"},{"name":"A2","midi":45,"time":"309.49","velocity":0.5433070866141733,"duration":"0.01"},{"name":"C#5","midi":73,"time":"309.49","velocity":0.3858267716535433,"duration":"0.15"},{"name":"C7","midi":96,"time":"309.49","velocity":0.11023622047244094,"duration":"0.03"},{"name":"G7","midi":103,"time":"309.49","velocity":0.1968503937007874,"duration":"0.06"},{"name":"D2","midi":38,"time":"309.50","velocity":0.6062992125984252,"duration":"0.01"},{"name":"B2","midi":47,"time":"309.50","velocity":0.5826771653543307,"duration":"0.01"},{"name":"F#4","midi":66,"time":"309.50","velocity":0.3858267716535433,"duration":"0.02"},{"name":"G6","midi":91,"time":"309.50","velocity":0.15748031496062992,"duration":"0.07"},{"name":"D7","midi":98,"time":"309.50","velocity":0.2755905511811024,"duration":"0.30"},{"name":"E2","midi":40,"time":"309.51","velocity":0.6929133858267716,"duration":"0.01"},{"name":"A#4","midi":70,"time":"309.51","velocity":0.3228346456692913,"duration":"0.02"},{"name":"F2","midi":41,"time":"309.52","velocity":0.6850393700787402,"duration":"0.01"},{"name":"F#5","midi":78,"time":"309.52","velocity":0.2440944881889764,"duration":"0.03"},{"name":"F6","midi":89,"time":"309.52","velocity":0.14173228346456693,"duration":"0.19"},{"name":"G2","midi":43,"time":"309.53","velocity":0.6377952755905512,"duration":"0.01"},{"name":"A4","midi":69,"time":"309.53","velocity":0.4015748031496063,"duration":"0.38"},{"name":"B4","midi":71,"time":"309.53","velocity":0.4015748031496063,"duration":"0.08"},{"name":"G#5","midi":80,"time":"309.53","velocity":0.25196850393700787,"duration":"0.06"},{"name":"C2","midi":36,"time":"309.55","velocity":0.5669291338582677,"duration":"0.01"},{"name":"G#2","midi":44,"time":"309.55","velocity":0.6141732283464567,"duration":"0.01"},{"name":"F5","midi":77,"time":"309.55","velocity":0.2283464566929134,"duration":"0.02"},{"name":"D6","midi":86,"time":"309.55","velocity":0.25984251968503935,"duration":"0.08"},{"name":"F#1","midi":30,"time":"309.56","velocity":0.5196850393700787,"duration":"0.01"},{"name":"A2","midi":45,"time":"309.56","velocity":0.6220472440944882,"duration":"0.03"},{"name":"C#4","midi":61,"time":"309.56","velocity":0.3464566929133858,"duration":"0.31"},{"name":"F#5","midi":78,"time":"309.57","velocity":0.23622047244094488,"duration":"0.12"},{"name":"C#6","midi":85,"time":"309.57","velocity":0.4094488188976378,"duration":"0.26"},{"name":"G#2","midi":44,"time":"309.59","velocity":0.5984251968503937,"duration":"0.01"},{"name":"A2","midi":45,"time":"309.60","velocity":0.5984251968503937,"duration":"0.27"},{"name":"G7","midi":103,"time":"309.62","velocity":0.14173228346456693,"duration":"0.06"},{"name":"B4","midi":71,"time":"309.63","velocity":0.2677165354330709,"duration":"0.14"},{"name":"D5","midi":74,"time":"309.63","velocity":0.23622047244094488,"duration":"0.02"},{"name":"E4","midi":64,"time":"309.64","velocity":0.23622047244094488,"duration":"0.02"},{"name":"C#5","midi":73,"time":"309.65","velocity":0.3858267716535433,"duration":"0.30"},{"name":"G#5","midi":80,"time":"309.65","velocity":0.4251968503937008,"duration":"0.21"},{"name":"F#1","midi":30,"time":"309.66","velocity":0.31496062992125984,"duration":"0.02"},{"name":"B5","midi":83,"time":"309.69","velocity":0.3464566929133858,"duration":"0.23"},{"name":"C7","midi":96,"time":"309.69","velocity":0.14960629921259844,"duration":"0.03"},{"name":"G#1","midi":32,"time":"309.71","velocity":0.31496062992125984,"duration":"0.02"},{"name":"F#6","midi":90,"time":"309.72","velocity":0.1968503937007874,"duration":"0.09"},{"name":"D6","midi":86,"time":"309.73","velocity":0.25196850393700787,"duration":"0.05"},{"name":"G6","midi":91,"time":"309.73","velocity":0.11811023622047244,"duration":"0.05"},{"name":"E5","midi":76,"time":"309.74","velocity":0.3700787401574803,"duration":"0.50"},{"name":"A6","midi":93,"time":"309.74","velocity":0.15748031496062992,"duration":"0.09"},{"name":"E4","midi":64,"time":"309.76","velocity":0.2677165354330709,"duration":"0.12"},{"name":"F6","midi":89,"time":"309.76","velocity":0.09448818897637795,"duration":"0.07"},{"name":"C5","midi":72,"time":"309.79","velocity":0.2283464566929134,"duration":"0.02"},{"name":"B4","midi":71,"time":"309.80","velocity":0.2992125984251969,"duration":"0.12"},{"name":"A#6","midi":94,"time":"309.80","velocity":0.07086614173228346,"duration":"0.05"},{"name":"D6","midi":86,"time":"309.81","velocity":0.29133858267716534,"duration":"0.06"},{"name":"G1","midi":31,"time":"309.85","velocity":0.2283464566929134,"duration":"0.02"},{"name":"F6","midi":89,"time":"309.85","velocity":0.2125984251968504,"duration":"0.19"},{"name":"A#3","midi":58,"time":"309.86","velocity":0.3228346456692913,"duration":"0.02"},{"name":"C#6","midi":85,"time":"309.86","velocity":0.3858267716535433,"duration":"0.21"},{"name":"A#6","midi":94,"time":"309.86","velocity":0.13385826771653545,"duration":"0.10"},{"name":"A#2","midi":46,"time":"309.87","velocity":0.5275590551181102,"duration":"0.02"},{"name":"E7","midi":100,"time":"309.87","velocity":0.25984251968503935,"duration":"0.77"},{"name":"A3","midi":57,"time":"309.88","velocity":0.4094488188976378,"duration":"0.05"},{"name":"G6","midi":91,"time":"309.88","velocity":0.15748031496062992,"duration":"0.10"},{"name":"C7","midi":96,"time":"309.88","velocity":0.07874015748031496,"duration":"0.06"},{"name":"D#7","midi":99,"time":"309.88","velocity":0.15748031496062992,"duration":"0.22"},{"name":"G7","midi":103,"time":"309.88","velocity":0.2283464566929134,"duration":"0.08"},{"name":"C#4","midi":61,"time":"309.90","velocity":0.47244094488188976,"duration":"0.35"},{"name":"G#2","midi":44,"time":"309.91","velocity":0.5905511811023622,"duration":"0.01"},{"name":"F#5","midi":78,"time":"309.91","velocity":0.2047244094488189,"duration":"0.10"},{"name":"F#6","midi":90,"time":"309.91","velocity":0.2047244094488189,"duration":"0.16"},{"name":"A2","midi":45,"time":"309.92","velocity":0.6220472440944882,"duration":"0.35"},{"name":"G4","midi":67,"time":"309.92","velocity":0.23622047244094488,"duration":"0.02"},{"name":"G#3","midi":56,"time":"309.93","velocity":0.2755905511811024,"duration":"0.02"},{"name":"B4","midi":71,"time":"309.93","velocity":0.31496062992125984,"duration":"0.19"},{"name":"G#5","midi":80,"time":"309.93","velocity":0.4015748031496063,"duration":"0.20"},{"name":"A6","midi":93,"time":"309.97","velocity":0.13385826771653545,"duration":"0.05"},{"name":"D6","midi":86,"time":"309.98","velocity":0.18110236220472442,"duration":"0.03"},{"name":"A#6","midi":94,"time":"309.99","velocity":0.14173228346456693,"duration":"0.07"},{"name":"G7","midi":103,"time":"310.00","velocity":0.09448818897637795,"duration":"0.03"},{"name":"B6","midi":95,"time":"310.03","velocity":0.13385826771653545,"duration":"0.10"},{"name":"E4","midi":64,"time":"310.06","velocity":0.2677165354330709,"duration":"0.05"},{"name":"C6","midi":84,"time":"310.06","velocity":0.10236220472440945,"duration":"0.05"},{"name":"F#6","midi":90,"time":"310.10","velocity":0.2204724409448819,"duration":"0.21"},{"name":"G#5","midi":80,"time":"310.14","velocity":0.4015748031496063,"duration":"0.41"},{"name":"D#7","midi":99,"time":"310.15","velocity":0.09448818897637795,"duration":"0.06"},{"name":"D#6","midi":87,"time":"310.19","velocity":0.11023622047244094,"duration":"0.03"},{"name":"B4","midi":71,"time":"310.20","velocity":0.3700787401574803,"duration":"0.07"},{"name":"F6","midi":89,"time":"310.20","velocity":0.15748031496062992,"duration":"0.03"},{"name":"F7","midi":101,"time":"310.22","velocity":0.2204724409448819,"duration":"0.34"},{"name":"G4","midi":67,"time":"310.23","velocity":0.4409448818897638,"duration":"0.02"},{"name":"D5","midi":74,"time":"310.23","velocity":0.36220472440944884,"duration":"0.02"},{"name":"B6","midi":95,"time":"310.23","velocity":0.16535433070866143,"duration":"0.05"},{"name":"A#3","midi":58,"time":"310.24","velocity":0.47244094488188976,"duration":"0.02"},{"name":"A#5","midi":82,"time":"310.24","velocity":0.36220472440944884,"duration":"0.05"},{"name":"A6","midi":93,"time":"310.24","velocity":0.25984251968503935,"duration":"0.15"},{"name":"C7","midi":96,"time":"310.24","velocity":0.2440944881889764,"duration":"0.14"},{"name":"D7","midi":98,"time":"310.24","velocity":0.2047244094488189,"duration":"0.38"},{"name":"D#7","midi":99,"time":"310.24","velocity":0.2047244094488189,"duration":"0.20"},{"name":"E4","midi":64,"time":"310.26","velocity":0.5039370078740157,"duration":"0.02"},{"name":"G#4","midi":68,"time":"310.26","velocity":0.5511811023622047,"duration":"0.02"},{"name":"C#5","midi":73,"time":"310.26","velocity":0.4645669291338583,"duration":"0.22"},{"name":"G5","midi":79,"time":"310.26","velocity":0.2992125984251969,"duration":"0.02"},{"name":"D6","midi":86,"time":"310.26","velocity":0.36220472440944884,"duration":"0.08"},{"name":"F6","midi":89,"time":"310.26","velocity":0.28346456692913385,"duration":"0.05"},{"name":"A5","midi":81,"time":"310.27","velocity":0.33070866141732286,"duration":"0.08"},{"name":"F3","midi":53,"time":"310.28","velocity":0.33858267716535434,"duration":"0.02"},{"name":"C#4","midi":61,"time":"310.28","velocity":0.48031496062992124,"duration":"0.03"},{"name":"A4","midi":69,"time":"310.28","velocity":0.5275590551181102,"duration":"0.03"},{"name":"F5","midi":77,"time":"310.28","velocity":0.3543307086614173,"duration":"0.02"},{"name":"F#5","midi":78,"time":"310.28","velocity":0.2204724409448819,"duration":"0.13"},{"name":"G7","midi":103,"time":"310.28","velocity":0.14173228346456693,"duration":"0.03"},{"name":"A2","midi":45,"time":"310.29","velocity":0.5984251968503937,"duration":"0.31"},{"name":"F#4","midi":66,"time":"310.29","velocity":0.3779527559055118,"duration":"0.03"},{"name":"G6","midi":91,"time":"310.29","velocity":0.1732283464566929,"duration":"0.07"},{"name":"E5","midi":76,"time":"310.30","velocity":0.33858267716535434,"duration":"0.05"},{"name":"D#6","midi":87,"time":"310.30","velocity":0.1968503937007874,"duration":"0.12"},{"name":"G#4","midi":68,"time":"310.31","velocity":0.33070866141732286,"duration":"0.07"},{"name":"B4","midi":71,"time":"310.31","velocity":0.3937007874015748,"duration":"0.02"},{"name":"C6","midi":84,"time":"310.33","velocity":0.2283464566929134,"duration":"0.02"},{"name":"A#3","midi":58,"time":"310.34","velocity":0.4645669291338583,"duration":"0.02"},{"name":"D#5","midi":75,"time":"310.34","velocity":0.29133858267716534,"duration":"0.02"},{"name":"F6","midi":89,"time":"310.34","velocity":0.12598425196850394,"duration":"0.07"},{"name":"E4","midi":64,"time":"310.35","velocity":0.29133858267716534,"duration":"0.02"},{"name":"A#6","midi":94,"time":"310.35","velocity":0.16535433070866143,"duration":"0.06"},{"name":"B4","midi":71,"time":"310.36","velocity":0.33070866141732286,"duration":"0.03"},{"name":"A5","midi":81,"time":"310.36","velocity":0.33858267716535434,"duration":"0.10"},{"name":"F#7","midi":102,"time":"310.36","velocity":0.18110236220472442,"duration":"0.14"},{"name":"C#4","midi":61,"time":"310.37","velocity":0.4094488188976378,"duration":"0.03"},{"name":"F4","midi":65,"time":"310.37","velocity":0.29133858267716534,"duration":"0.02"},{"name":"G7","midi":103,"time":"310.37","velocity":0.11023622047244094,"duration":"0.08"},{"name":"E4","midi":64,"time":"310.38","velocity":0.2283464566929134,"duration":"0.02"},{"name":"E5","midi":76,"time":"310.38","velocity":0.3937007874015748,"duration":"0.85"},{"name":"A#3","midi":58,"time":"310.40","velocity":0.4645669291338583,"duration":"0.05"},{"name":"F#4","midi":66,"time":"310.41","velocity":0.23622047244094488,"duration":"0.02"},{"name":"F#6","midi":90,"time":"310.41","velocity":0.11023622047244094,"duration":"0.06"},{"name":"G6","midi":91,"time":"310.41","velocity":0.16535433070866143,"duration":"0.08"},{"name":"C#4","midi":61,"time":"310.42","velocity":0.4330708661417323,"duration":"0.22"},{"name":"D6","midi":86,"time":"310.43","velocity":0.2047244094488189,"duration":"0.08"},{"name":"A4","midi":69,"time":"310.44","velocity":0.29133858267716534,"duration":"0.05"},{"name":"F#5","midi":78,"time":"310.44","velocity":0.23622047244094488,"duration":"0.08"},{"name":"F6","midi":89,"time":"310.44","velocity":0.1732283464566929,"duration":"0.06"},{"name":"A#3","midi":58,"time":"310.45","velocity":0.47244094488188976,"duration":"0.03"},{"name":"A#6","midi":94,"time":"310.45","velocity":0.11811023622047244,"duration":"0.03"},{"name":"B4","midi":71,"time":"310.47","velocity":0.2755905511811024,"duration":"0.14"},{"name":"D#7","midi":99,"time":"310.47","velocity":0.11811023622047244,"duration":"0.08"},{"name":"C#5","midi":73,"time":"310.49","velocity":0.48031496062992124,"duration":"0.26"},{"name":"A#3","midi":58,"time":"310.51","velocity":0.4566929133858268,"duration":"0.22"},{"name":"F6","midi":89,"time":"310.52","velocity":0.11811023622047244,"duration":"0.07"},{"name":"A#6","midi":94,"time":"310.52","velocity":0.09448818897637795,"duration":"0.10"},{"name":"F#5","midi":78,"time":"310.53","velocity":0.28346456692913385,"duration":"0.15"},{"name":"A5","midi":81,"time":"310.53","velocity":0.2125984251968504,"duration":"0.03"},{"name":"F#7","midi":102,"time":"310.53","velocity":0.14173228346456693,"duration":"0.07"},{"name":"E4","midi":64,"time":"310.55","velocity":0.44881889763779526,"duration":"0.28"},{"name":"G#5","midi":80,"time":"310.56","velocity":0.4566929133858268,"duration":"0.45"},{"name":"D#7","midi":99,"time":"310.57","velocity":0.11811023622047244,"duration":"0.07"},{"name":"D6","midi":86,"time":"310.58","velocity":0.1968503937007874,"duration":"0.03"},{"name":"A6","midi":93,"time":"310.59","velocity":0.13385826771653545,"duration":"0.03"},{"name":"A#2","midi":46,"time":"310.60","velocity":0.5433070866141733,"duration":"0.01"},{"name":"F7","midi":101,"time":"310.60","velocity":0.2677165354330709,"duration":"0.65"},{"name":"B4","midi":71,"time":"310.62","velocity":0.33858267716535434,"duration":"0.20"},{"name":"F#7","midi":102,"time":"310.63","velocity":0.2047244094488189,"duration":"0.05"},{"name":"G2","midi":43,"time":"310.64","velocity":0.5826771653543307,"duration":"0.01"},{"name":"G#2","midi":44,"time":"310.65","velocity":0.6299212598425197,"duration":"0.01"},{"name":"A5","midi":81,"time":"310.65","velocity":0.2440944881889764,"duration":"0.02"},{"name":"D6","midi":86,"time":"310.65","velocity":0.09448818897637795,"duration":"0.05"},{"name":"D7","midi":98,"time":"310.65","velocity":0.28346456692913385,"duration":"0.22"},{"name":"A2","midi":45,"time":"310.66","velocity":0.6220472440944882,"duration":"0.31"},{"name":"A4","midi":69,"time":"310.66","velocity":0.31496062992125984,"duration":"0.19"},{"name":"F6","midi":89,"time":"310.66","velocity":0.07874015748031496,"duration":"0.06"},{"name":"A#6","midi":94,"time":"310.66","velocity":0.23622047244094488,"duration":"0.30"},{"name":"D#7","midi":99,"time":"310.66","velocity":0.14173228346456693,"duration":"0.14"},{"name":"G6","midi":91,"time":"310.67","velocity":0.09448818897637795,"duration":"0.03"},{"name":"A6","midi":93,"time":"310.71","velocity":0.07874015748031496,"duration":"0.03"},{"name":"D6","midi":86,"time":"310.72","velocity":0.14173228346456693,"duration":"0.03"},{"name":"C#4","midi":61,"time":"310.73","velocity":0.4566929133858268,"duration":"0.26"},{"name":"C#5","midi":73,"time":"310.76","velocity":0.5590551181102362,"duration":"0.72"},{"name":"F6","midi":89,"time":"310.79","velocity":0.16535433070866143,"duration":"0.07"},{"name":"A6","midi":93,"time":"310.79","velocity":0.16535433070866143,"duration":"0.09"},{"name":"G6","midi":91,"time":"310.81","velocity":0.11023622047244094,"duration":"0.08"},{"name":"F#7","midi":102,"time":"310.81","velocity":0.11811023622047244,"duration":"0.05"},{"name":"B4","midi":71,"time":"310.83","velocity":0.31496062992125984,"duration":"0.05"},{"name":"F#6","midi":90,"time":"310.83","velocity":0.2204724409448819,"duration":"0.21"},{"name":"D#7","midi":99,"time":"310.83","velocity":0.23622047244094488,"duration":"0.48"},{"name":"E4","midi":64,"time":"310.85","velocity":0.2283464566929134,"duration":"0.05"},{"name":"F#5","midi":78,"time":"310.87","velocity":0.08661417322834646,"duration":"0.03"},{"name":"B4","midi":71,"time":"310.88","velocity":0.2677165354330709,"duration":"0.03"},{"name":"G7","midi":103,"time":"310.88","velocity":0.14173228346456693,"duration":"0.05"},{"name":"D6","midi":86,"time":"310.90","velocity":0.29133858267716534,"duration":"0.07"},{"name":"F6","midi":89,"time":"310.90","velocity":0.16535433070866143,"duration":"0.08"},{"name":"B4","midi":71,"time":"310.93","velocity":0.23622047244094488,"duration":"0.02"},{"name":"A5","midi":81,"time":"310.95","velocity":0.3228346456692913,"duration":"0.05"},{"name":"G6","midi":91,"time":"310.97","velocity":0.12598425196850394,"duration":"0.06"},{"name":"A#2","midi":46,"time":"310.98","velocity":0.5433070866141733,"duration":"0.01"},{"name":"A3","midi":57,"time":"310.99","velocity":0.4409448818897638,"duration":"0.03"},{"name":"C4","midi":60,"time":"310.99","velocity":0.36220472440944884,"duration":"0.02"},{"name":"A#6","midi":94,"time":"310.99","velocity":0.23622047244094488,"duration":"0.17"},{"name":"D#2","midi":39,"time":"311.00","velocity":0.5826771653543307,"duration":"0.01"},{"name":"C#3","midi":49,"time":"311.00","velocity":0.5275590551181102,"duration":"0.01"},{"name":"F#4","midi":66,"time":"311.00","velocity":0.3779527559055118,"duration":"0.03"},{"name":"C7","midi":96,"time":"311.00","velocity":0.16535433070866143,"duration":"0.12"},{"name":"D7","midi":98,"time":"311.00","velocity":0.28346456692913385,"duration":"0.23"},{"name":"E2","midi":40,"time":"311.01","velocity":0.6220472440944882,"duration":"0.01"},{"name":"A5","midi":81,"time":"311.01","velocity":0.25984251968503935,"duration":"0.06"},{"name":"D#2","midi":39,"time":"311.02","velocity":0.5905511811023622,"duration":"0.01"},{"name":"G#3","midi":56,"time":"311.02","velocity":0.4566929133858268,"duration":"0.02"},{"name":"G#5","midi":80,"time":"311.02","velocity":0.4566929133858268,"duration":"0.91"},{"name":"F6","midi":89,"time":"311.02","velocity":0.16535433070866143,"duration":"0.06"},{"name":"A2","midi":45,"time":"311.03","velocity":0.6535433070866141,"duration":"0.06"},{"name":"C#4","midi":61,"time":"311.03","velocity":0.33858267716535434,"duration":"0.03"},{"name":"D6","midi":86,"time":"311.03","velocity":0.14173228346456693,"duration":"0.03"},{"name":"A4","midi":69,"time":"311.06","velocity":0.2283464566929134,"duration":"0.03"},{"name":"B5","midi":83,"time":"311.06","velocity":0.1732283464566929,"duration":"0.09"},{"name":"E4","midi":64,"time":"311.08","velocity":0.4251968503937008,"duration":"0.29"},{"name":"G5","midi":79,"time":"311.08","velocity":0.15748031496062992,"duration":"0.03"},{"name":"A5","midi":81,"time":"311.08","velocity":0.3228346456692913,"duration":"0.12"},{"name":"D6","midi":86,"time":"311.08","velocity":0.2204724409448819,"duration":"0.09"},{"name":"G1","midi":31,"time":"311.09","velocity":0.3543307086614173,"duration":"0.02"},{"name":"G#2","midi":44,"time":"311.09","velocity":0.6141732283464567,"duration":"0.01"},{"name":"A3","midi":57,"time":"311.09","velocity":0.3228346456692913,"duration":"0.06"},{"name":"F6","midi":89,"time":"311.09","velocity":0.23622047244094488,"duration":"0.15"},{"name":"F#6","midi":90,"time":"311.09","velocity":0.11811023622047244,"duration":"0.03"},{"name":"A2","midi":45,"time":"311.10","velocity":0.6141732283464567,"duration":"0.26"},{"name":"A4","midi":69,"time":"311.12","velocity":0.3543307086614173,"duration":"0.36"},{"name":"F#1","midi":30,"time":"311.15","velocity":0.28346456692913385,"duration":"0.02"},{"name":"F#6","midi":90,"time":"311.15","velocity":0.14173228346456693,"duration":"0.05"},{"name":"C#4","midi":61,"time":"311.16","velocity":0.4409448818897638,"duration":"0.26"},{"name":"B6","midi":95,"time":"311.17","velocity":0.18110236220472442,"duration":"0.14"},{"name":"B4","midi":71,"time":"311.20","velocity":0.3228346456692913,"duration":"0.19"},{"name":"A#6","midi":94,"time":"311.20","velocity":0.14960629921259844,"duration":"0.06"},{"name":"A5","midi":81,"time":"311.22","velocity":0.36220472440944884,"duration":"0.16"},{"name":"D6","midi":86,"time":"311.26","velocity":0.12598425196850394,"duration":"0.05"},{"name":"F#6","midi":90,"time":"311.26","velocity":0.14960629921259844,"duration":"0.05"},{"name":"A#6","midi":94,"time":"311.28","velocity":0.1732283464566929,"duration":"0.06"},{"name":"F7","midi":101,"time":"311.28","velocity":0.2755905511811024,"duration":"1.16"},{"name":"E3","midi":52,"time":"311.31","velocity":0.2440944881889764,"duration":"0.02"},{"name":"F#5","midi":78,"time":"311.34","velocity":0.12598425196850394,"duration":"0.05"},{"name":"D6","midi":86,"time":"311.34","velocity":0.12598425196850394,"duration":"0.03"},{"name":"F6","midi":89,"time":"311.34","velocity":0.16535433070866143,"duration":"0.15"},{"name":"D#7","midi":99,"time":"311.36","velocity":0.1732283464566929,"duration":"0.06"},{"name":"D#6","midi":87,"time":"311.37","velocity":0.1732283464566929,"duration":"0.06"},{"name":"A#6","midi":94,"time":"311.37","velocity":0.18110236220472442,"duration":"0.05"},{"name":"G7","midi":103,"time":"311.37","velocity":0.2047244094488189,"duration":"0.08"},{"name":"F2","midi":41,"time":"311.38","velocity":0.6377952755905512,"duration":"0.02"},{"name":"F#4","midi":66,"time":"311.38","velocity":0.3858267716535433,"duration":"0.02"},{"name":"D6","midi":86,"time":"311.38","velocity":0.1889763779527559,"duration":"0.03"},{"name":"G6","midi":91,"time":"311.38","velocity":0.13385826771653545,"duration":"0.06"},{"name":"C7","midi":96,"time":"311.38","velocity":0.12598425196850394,"duration":"0.03"},{"name":"E5","midi":76,"time":"311.40","velocity":0.3228346456692913,"duration":"0.30"},{"name":"A2","midi":45,"time":"311.41","velocity":0.5511811023622047,"duration":"0.01"},{"name":"F#1","midi":30,"time":"311.42","velocity":0.5748031496062992,"duration":"0.01"},{"name":"A#2","midi":46,"time":"311.42","velocity":0.6062992125984252,"duration":"0.01"},{"name":"F1","midi":29,"time":"311.43","velocity":0.6141732283464567,"duration":"0.02"},{"name":"A2","midi":45,"time":"311.43","velocity":0.6220472440944882,"duration":"0.05"},{"name":"C#4","midi":61,"time":"311.43","velocity":0.36220472440944884,"duration":"0.07"},{"name":"F4","midi":65,"time":"311.43","velocity":0.25984251968503935,"duration":"0.03"},{"name":"D#7","midi":99,"time":"311.43","velocity":0.15748031496062992,"duration":"0.07"},{"name":"B5","midi":83,"time":"311.44","velocity":0.11023622047244094,"duration":"0.03"},{"name":"F#7","midi":102,"time":"311.44","velocity":0.2204724409448819,"duration":"0.09"},{"name":"F#5","midi":78,"time":"311.45","velocity":0.1732283464566929,"duration":"0.13"},{"name":"F#6","midi":90,"time":"311.45","velocity":0.2125984251968504,"duration":"0.47"},{"name":"D2","midi":38,"time":"311.47","velocity":0.5118110236220472,"duration":"0.01"},{"name":"E4","midi":64,"time":"311.47","velocity":0.2992125984251969,"duration":"0.28"},{"name":"G#2","midi":44,"time":"311.48","velocity":0.5984251968503937,"duration":"0.01"},{"name":"A2","midi":45,"time":"311.49","velocity":0.6062992125984252,"duration":"0.27"},{"name":"C#5","midi":73,"time":"311.49","velocity":0.5511811023622047,"duration":"0.55"},{"name":"B6","midi":95,"time":"311.49","velocity":0.14173228346456693,"duration":"0.15"},{"name":"C#4","midi":61,"time":"311.51","velocity":0.47244094488188976,"duration":"0.26"},{"name":"A#6","midi":94,"time":"311.51","velocity":0.10236220472440945,"duration":"0.10"},{"name":"B5","midi":83,"time":"311.52","velocity":0.25984251968503935,"duration":"0.22"},{"name":"A6","midi":93,"time":"311.52","velocity":0.11811023622047244,"duration":"0.06"},{"name":"F#1","midi":30,"time":"311.58","velocity":0.4094488188976378,"duration":"0.03"},{"name":"B4","midi":71,"time":"311.62","velocity":0.11023622047244094,"duration":"0.06"},{"name":"F#5","midi":78,"time":"311.62","velocity":0.10236220472440945,"duration":"0.06"},{"name":"D7","midi":98,"time":"311.63","velocity":0.08661417322834646,"duration":"0.03"},{"name":"E3","midi":52,"time":"311.69","velocity":0.2440944881889764,"duration":"0.05"},{"name":"E6","midi":88,"time":"311.70","velocity":0.12598425196850394,"duration":"0.03"},{"name":"G4","midi":67,"time":"311.72","velocity":0.49606299212598426,"duration":"0.05"},{"name":"F6","midi":89,"time":"311.73","velocity":0.29133858267716534,"duration":"0.05"},{"name":"G1","midi":31,"time":"311.74","velocity":0.3228346456692913,"duration":"0.03"},{"name":"E5","midi":76,"time":"311.74","velocity":0.47244094488188976,"duration":"0.15"},{"name":"B6","midi":95,"time":"311.74","velocity":0.23622047244094488,"duration":"0.17"},{"name":"C7","midi":96,"time":"311.74","velocity":0.29133858267716534,"duration":"0.08"},{"name":"F#7","midi":102,"time":"311.74","velocity":0.2755905511811024,"duration":"0.19"},{"name":"F#3","midi":54,"time":"311.76","velocity":0.4645669291338583,"duration":"0.03"},{"name":"F4","midi":65,"time":"311.76","velocity":0.5118110236220472,"duration":"0.02"},{"name":"B5","midi":83,"time":"311.76","velocity":0.3858267716535433,"duration":"0.94"},{"name":"D6","midi":86,"time":"311.76","velocity":0.2677165354330709,"duration":"0.06"},{"name":"A6","midi":93,"time":"311.76","velocity":0.2283464566929134,"duration":"0.10"},{"name":"A#6","midi":94,"time":"311.76","velocity":0.1889763779527559,"duration":"0.17"},{"name":"D7","midi":98,"time":"311.76","velocity":0.28346456692913385,"duration":"1.24"},{"name":"D#7","midi":99,"time":"311.76","velocity":0.2047244094488189,"duration":"0.17"},{"name":"C4","midi":60,"time":"311.77","velocity":0.4881889763779528,"duration":"0.02"},{"name":"G#4","midi":68,"time":"311.77","velocity":0.5354330708661418,"duration":"0.01"},{"name":"A#4","midi":70,"time":"311.77","velocity":0.5118110236220472,"duration":"0.02"},{"name":"D#5","midi":75,"time":"311.77","velocity":0.36220472440944884,"duration":"0.03"},{"name":"A5","midi":81,"time":"311.77","velocity":0.25196850393700787,"duration":"0.02"},{"name":"C6","midi":84,"time":"311.77","velocity":0.25984251968503935,"duration":"0.05"},{"name":"G6","midi":91,"time":"311.77","velocity":0.29133858267716534,"duration":"0.10"},{"name":"E7","midi":100,"time":"311.77","velocity":0.1889763779527559,"duration":"0.21"},{"name":"A2","midi":45,"time":"311.78","velocity":0.5984251968503937,"duration":"0.34"},{"name":"F4","midi":65,"time":"311.79","velocity":0.41732283464566927,"duration":"0.02"},{"name":"A4","midi":69,"time":"311.79","velocity":0.4645669291338583,"duration":"0.05"},{"name":"G5","midi":79,"time":"311.80","velocity":0.2755905511811024,"duration":"0.05"},{"name":"A#5","midi":82,"time":"311.80","velocity":0.23622047244094488,"duration":"0.05"},{"name":"E4","midi":64,"time":"311.81","velocity":0.3543307086614173,"duration":"0.02"},{"name":"B4","midi":71,"time":"311.81","velocity":0.4330708661417323,"duration":"0.05"},{"name":"C#4","midi":61,"time":"311.83","velocity":0.4094488188976378,"duration":"0.07"},{"name":"F#4","midi":66,"time":"311.83","velocity":0.4094488188976378,"duration":"0.06"},{"name":"D6","midi":86,"time":"311.83","velocity":0.2204724409448819,"duration":"0.13"},{"name":"F6","midi":89,"time":"311.83","velocity":0.15748031496062992,"duration":"0.06"},{"name":"C7","midi":96,"time":"311.84","velocity":0.16535433070866143,"duration":"0.10"},{"name":"E4","midi":64,"time":"311.85","velocity":0.4409448818897638,"duration":"0.59"},{"name":"A#4","midi":70,"time":"311.85","velocity":0.4094488188976378,"duration":"0.02"},{"name":"F#3","midi":54,"time":"311.87","velocity":0.28346456692913385,"duration":"0.02"},{"name":"B4","midi":71,"time":"311.87","velocity":0.3700787401574803,"duration":"0.09"},{"name":"A4","midi":69,"time":"311.90","velocity":0.3543307086614173,"duration":"0.05"},{"name":"A#3","midi":58,"time":"311.91","velocity":0.4645669291338583,"duration":"0.03"},{"name":"G5","midi":79,"time":"311.92","velocity":0.15748031496062992,"duration":"0.06"},{"name":"C#4","midi":61,"time":"311.93","velocity":0.3858267716535433,"duration":"0.03"},{"name":"F5","midi":77,"time":"311.93","velocity":0.1968503937007874,"duration":"0.03"},{"name":"F#6","midi":90,"time":"311.93","velocity":0.07874015748031496,"duration":"0.07"},{"name":"G#5","midi":80,"time":"311.94","velocity":0.4409448818897638,"duration":"0.30"},{"name":"D#6","midi":87,"time":"311.94","velocity":0.09448818897637795,"duration":"0.06"},{"name":"F#7","midi":102,"time":"311.94","velocity":0.2047244094488189,"duration":"0.51"},{"name":"A4","midi":69,"time":"311.95","velocity":0.3779527559055118,"duration":"0.37"},{"name":"E5","midi":76,"time":"311.95","velocity":0.4566929133858268,"duration":"1.31"},{"name":"D#7","midi":99,"time":"311.95","velocity":0.2125984251968504,"duration":"0.56"},{"name":"D6","midi":86,"time":"311.97","velocity":0.11023622047244094,"duration":"0.03"},{"name":"A#6","midi":94,"time":"311.97","velocity":0.1732283464566929,"duration":"0.10"},{"name":"B4","midi":71,"time":"311.98","velocity":0.29133858267716534,"duration":"0.12"},{"name":"C#4","midi":61,"time":"312.00","velocity":0.4566929133858268,"duration":"0.15"},{"name":"G#3","midi":56,"time":"312.01","velocity":0.4015748031496063,"duration":"0.02"},{"name":"F5","midi":77,"time":"312.01","velocity":0.10236220472440945,"duration":"0.03"},{"name":"C7","midi":96,"time":"312.02","velocity":0.09448818897637795,"duration":"0.03"},{"name":"C#5","midi":73,"time":"312.06","velocity":0.4881889763779528,"duration":"0.21"},{"name":"F#6","midi":90,"time":"312.08","velocity":0.10236220472440945,"duration":"0.07"},{"name":"G#3","midi":56,"time":"312.09","velocity":0.33070866141732286,"duration":"0.02"},{"name":"D6","midi":86,"time":"312.09","velocity":0.12598425196850394,"duration":"0.05"},{"name":"B4","midi":71,"time":"312.10","velocity":0.25984251968503935,"duration":"0.03"},{"name":"A3","midi":57,"time":"312.12","velocity":0.41732283464566927,"duration":"0.05"},{"name":"G7","midi":103,"time":"312.12","velocity":0.2125984251968504,"duration":"0.05"},{"name":"F#5","midi":78,"time":"312.13","velocity":0.16535433070866143,"duration":"0.03"},{"name":"G#2","midi":44,"time":"312.14","velocity":0.5118110236220472,"duration":"0.01"},{"name":"A#6","midi":94,"time":"312.14","velocity":0.10236220472440945,"duration":"0.05"},{"name":"A2","midi":45,"time":"312.15","velocity":0.6220472440944882,"duration":"0.33"},{"name":"A6","midi":93,"time":"312.15","velocity":0.11811023622047244,"duration":"0.14"},{"name":"C#4","midi":61,"time":"312.16","velocity":0.3464566929133858,"duration":"0.13"},{"name":"D6","midi":86,"time":"312.16","velocity":0.1968503937007874,"duration":"0.10"},{"name":"F#6","midi":90,"time":"312.17","velocity":0.15748031496062992,"duration":"0.06"},{"name":"B4","midi":71,"time":"312.20","velocity":0.31496062992125984,"duration":"0.14"},{"name":"G7","midi":103,"time":"312.20","velocity":0.08661417322834646,"duration":"0.03"},{"name":"G#5","midi":80,"time":"312.27","velocity":0.28346456692913385,"duration":"0.13"},{"name":"F#6","midi":90,"time":"312.27","velocity":0.07086614173228346,"duration":"0.03"},{"name":"C#5","midi":73,"time":"312.28","velocity":0.4881889763779528,"duration":"0.99"},{"name":"G5","midi":79,"time":"312.29","velocity":0.15748031496062992,"duration":"0.05"},{"name":"F6","midi":89,"time":"312.29","velocity":0.07086614173228346,"duration":"0.03"},{"name":"C7","midi":96,"time":"312.30","velocity":0.1889763779527559,"duration":"0.03"},{"name":"A#3","midi":58,"time":"312.31","velocity":0.28346456692913385,"duration":"0.02"},{"name":"E7","midi":100,"time":"312.31","velocity":0.30708661417322836,"duration":"0.42"},{"name":"D6","midi":86,"time":"312.33","velocity":0.25196850393700787,"duration":"0.03"},{"name":"A6","midi":93,"time":"312.33","velocity":0.1968503937007874,"duration":"0.22"},{"name":"A#6","midi":94,"time":"312.33","velocity":0.16535433070866143,"duration":"0.07"},{"name":"C#4","midi":61,"time":"312.34","velocity":0.4094488188976378,"duration":"0.17"},{"name":"A4","midi":69,"time":"312.34","velocity":0.1889763779527559,"duration":"0.03"},{"name":"A5","midi":81,"time":"312.34","velocity":0.33858267716535434,"duration":"0.22"},{"name":"B4","midi":71,"time":"312.35","velocity":0.33070866141732286,"duration":"0.16"},{"name":"D6","midi":86,"time":"312.37","velocity":0.3228346456692913,"duration":"0.15"},{"name":"A4","midi":69,"time":"312.38","velocity":0.25196850393700787,"duration":"0.12"},{"name":"G6","midi":91,"time":"312.40","velocity":0.11811023622047244,"duration":"0.06"},{"name":"G#5","midi":80,"time":"312.41","velocity":0.3779527559055118,"duration":"0.09"},{"name":"F#5","midi":78,"time":"312.42","velocity":0.07086614173228346,"duration":"0.03"},{"name":"A#6","midi":94,"time":"312.43","velocity":0.07874015748031496,"duration":"0.03"},{"name":"F#4","midi":66,"time":"312.45","velocity":0.1968503937007874,"duration":"0.05"},{"name":"F7","midi":101,"time":"312.45","velocity":0.28346456692913385,"duration":"0.08"},{"name":"F6","midi":89,"time":"312.47","velocity":0.11023622047244094,"duration":"0.03"},{"name":"G7","midi":103,"time":"312.48","velocity":0.2755905511811024,"duration":"0.09"},{"name":"A3","midi":57,"time":"312.49","velocity":0.4330708661417323,"duration":"0.05"},{"name":"D#3","midi":51,"time":"312.50","velocity":0.5196850393700787,"duration":"0.01"},{"name":"E4","midi":64,"time":"312.50","velocity":0.3937007874015748,"duration":"0.02"},{"name":"F#5","midi":78,"time":"312.50","velocity":0.29133858267716534,"duration":"0.03"},{"name":"G6","midi":91,"time":"312.50","velocity":0.12598425196850394,"duration":"0.03"},{"name":"C7","midi":96,"time":"312.50","velocity":0.12598425196850394,"duration":"0.05"},{"name":"F#7","midi":102,"time":"312.50","velocity":0.1889763779527559,"duration":"0.09"},{"name":"A#2","midi":46,"time":"312.51","velocity":0.6299212598425197,"duration":"0.01"},{"name":"A#6","midi":94,"time":"312.51","velocity":0.14960629921259844,"duration":"0.12"},{"name":"F2","midi":41,"time":"312.52","velocity":0.7086614173228346,"duration":"0.01"},{"name":"F4","midi":65,"time":"312.52","velocity":0.36220472440944884,"duration":"0.02"},{"name":"D#7","midi":99,"time":"312.52","velocity":0.1889763779527559,"duration":"0.36"},{"name":"G2","midi":43,"time":"312.53","velocity":0.6614173228346457,"duration":"0.01"},{"name":"G5","midi":79,"time":"312.53","velocity":0.2047244094488189,"duration":"0.06"},{"name":"F#6","midi":90,"time":"312.53","velocity":0.16535433070866143,"duration":"0.09"},{"name":"F2","midi":41,"time":"312.55","velocity":0.5354330708661418,"duration":"0.01"},{"name":"A2","midi":45,"time":"312.55","velocity":0.5590551181102362,"duration":"0.01"},{"name":"C4","midi":60,"time":"312.55","velocity":0.3228346456692913,"duration":"0.02"},{"name":"G#5","midi":80,"time":"312.55","velocity":0.31496062992125984,"duration":"0.09"},{"name":"F6","midi":89,"time":"312.55","velocity":0.1889763779527559,"duration":"0.19"},{"name":"C2","midi":36,"time":"312.56","velocity":0.5590551181102362,"duration":"0.01"},{"name":"B4","midi":71,"time":"312.56","velocity":0.2755905511811024,"duration":"0.02"},{"name":"F7","midi":101,"time":"312.56","velocity":0.2283464566929134,"duration":"0.45"},{"name":"A#1","midi":34,"time":"312.57","velocity":0.5118110236220472,"duration":"0.01"},{"name":"G#2","midi":44,"time":"312.57","velocity":0.5354330708661418,"duration":"0.01"},{"name":"D6","midi":86,"time":"312.57","velocity":0.07874015748031496,"duration":"0.06"},{"name":"A2","midi":45,"time":"312.58","velocity":0.6062992125984252,"duration":"0.28"},{"name":"A#3","midi":58,"time":"312.58","velocity":0.25196850393700787,"duration":"0.02"},{"name":"A4","midi":69,"time":"312.58","velocity":0.30708661417322836,"duration":"0.67"},{"name":"F#4","midi":66,"time":"312.59","velocity":0.23622047244094488,"duration":"0.19"},{"name":"B4","midi":71,"time":"312.59","velocity":0.2283464566929134,"duration":"0.02"},{"name":"C#4","midi":61,"time":"312.60","velocity":0.4094488188976378,"duration":"0.28"},{"name":"G5","midi":79,"time":"312.62","velocity":0.2440944881889764,"duration":"0.05"},{"name":"G#3","midi":56,"time":"312.63","velocity":0.23622047244094488,"duration":"0.02"},{"name":"B4","midi":71,"time":"312.63","velocity":0.11023622047244094,"duration":"0.05"},{"name":"F#7","midi":102,"time":"312.63","velocity":0.11811023622047244,"duration":"0.03"},{"name":"G#5","midi":80,"time":"312.65","velocity":0.4566929133858268,"duration":"0.62"},{"name":"D6","midi":86,"time":"312.65","velocity":0.1732283464566929,"duration":"0.05"},{"name":"A#6","midi":94,"time":"312.65","velocity":0.14173228346456693,"duration":"0.10"},{"name":"G#3","midi":56,"time":"312.67","velocity":0.2755905511811024,"duration":"0.02"},{"name":"B4","midi":71,"time":"312.69","velocity":0.15748031496062992,"duration":"0.03"},{"name":"G#1","midi":32,"time":"312.72","velocity":0.33858267716535434,"duration":"0.02"},{"name":"B5","midi":83,"time":"312.72","velocity":0.3228346456692913,"duration":"0.31"},{"name":"B4","midi":71,"time":"312.73","velocity":0.23622047244094488,"duration":"0.12"},{"name":"F#7","midi":102,"time":"312.76","velocity":0.2047244094488189,"duration":"0.22"},{"name":"A6","midi":93,"time":"312.77","velocity":0.10236220472440945,"duration":"0.05"},{"name":"E4","midi":64,"time":"312.78","velocity":0.2992125984251969,"duration":"0.10"},{"name":"F6","midi":89,"time":"312.79","velocity":0.1732283464566929,"duration":"0.20"},{"name":"A#6","midi":94,"time":"312.79","velocity":0.12598425196850394,"duration":"0.05"},{"name":"D6","midi":86,"time":"312.84","velocity":0.1732283464566929,"duration":"0.06"},{"name":"A6","midi":93,"time":"312.84","velocity":0.10236220472440945,"duration":"0.03"},{"name":"A#2","midi":46,"time":"312.86","velocity":0.5354330708661418,"duration":"0.01"},{"name":"G5","midi":79,"time":"312.86","velocity":0.18110236220472442,"duration":"0.03"},{"name":"D#6","midi":87,"time":"312.86","velocity":0.08661417322834646,"duration":"0.05"},{"name":"G#2","midi":44,"time":"312.88","velocity":0.5669291338582677,"duration":"0.02"},{"name":"F#4","midi":66,"time":"312.88","velocity":0.3700787401574803,"duration":"0.14"},{"name":"A6","midi":93,"time":"312.88","velocity":0.12598425196850394,"duration":"0.03"},{"name":"E7","midi":100,"time":"312.90","velocity":0.2204724409448819,"duration":"0.33"},{"name":"A2","midi":45,"time":"312.91","velocity":0.6220472440944882,"duration":"0.33"},{"name":"A#6","midi":94,"time":"312.91","velocity":0.11023622047244094,"duration":"0.03"},{"name":"D#7","midi":99,"time":"312.91","velocity":0.11023622047244094,"duration":"0.03"},{"name":"E4","midi":64,"time":"312.92","velocity":0.2204724409448819,"duration":"0.05"},{"name":"G7","midi":103,"time":"312.92","velocity":0.09448818897637795,"duration":"0.05"},{"name":"B4","midi":71,"time":"312.93","velocity":0.1968503937007874,"duration":"0.05"},{"name":"C7","midi":96,"time":"312.93","velocity":0.09448818897637795,"duration":"0.05"},{"name":"C#4","midi":61,"time":"312.95","velocity":0.4251968503937008,"duration":"0.30"},{"name":"D6","midi":86,"time":"312.97","velocity":0.1732283464566929,"duration":"0.03"},{"name":"A6","midi":93,"time":"312.97","velocity":0.12598425196850394,"duration":"0.09"},{"name":"F#6","midi":90,"time":"313.01","velocity":0.13385826771653545,"duration":"0.09"},{"name":"F7","midi":101,"time":"313.02","velocity":0.1889763779527559,"duration":"0.10"},{"name":"F#4","midi":66,"time":"313.03","velocity":0.2755905511811024,"duration":"0.03"},{"name":"D6","midi":86,"time":"313.03","velocity":0.12598425196850394,"duration":"0.03"},{"name":"G5","midi":79,"time":"313.05","velocity":0.11811023622047244,"duration":"0.03"},{"name":"F6","midi":89,"time":"313.06","velocity":0.14960629921259844,"duration":"0.13"},{"name":"D#7","midi":99,"time":"313.06","velocity":0.11023622047244094,"duration":"0.07"},{"name":"F#4","midi":66,"time":"313.08","velocity":0.29133858267716534,"duration":"0.16"},{"name":"A6","midi":93,"time":"313.08","velocity":0.07086614173228346,"duration":"0.03"},{"name":"F#7","midi":102,"time":"313.08","velocity":0.1732283464566929,"duration":"0.09"},{"name":"G5","midi":79,"time":"313.09","velocity":0.13385826771653545,"duration":"0.03"},{"name":"B5","midi":83,"time":"313.10","velocity":0.16535433070866143,"duration":"0.08"},{"name":"B6","midi":95,"time":"313.10","velocity":0.2755905511811024,"duration":"0.24"},{"name":"D#7","midi":99,"time":"313.15","velocity":0.12598425196850394,"duration":"0.10"},{"name":"B4","midi":71,"time":"313.16","velocity":0.23622047244094488,"duration":"0.09"},{"name":"F7","midi":101,"time":"313.16","velocity":0.2677165354330709,"duration":"0.22"},{"name":"D6","midi":86,"time":"313.20","velocity":0.1889763779527559,"duration":"0.03"},{"name":"B5","midi":83,"time":"313.22","velocity":0.3700787401574803,"duration":"0.06"},{"name":"B2","midi":47,"time":"313.23","velocity":0.5354330708661418,"duration":"0.02"},{"name":"F4","midi":65,"time":"313.24","velocity":0.4881889763779528,"duration":"0.03"},{"name":"F6","midi":89,"time":"313.24","velocity":0.2677165354330709,"duration":"0.33"},{"name":"A#6","midi":94,"time":"313.24","velocity":0.29133858267716534,"duration":"0.05"},{"name":"C7","midi":96,"time":"313.24","velocity":0.25196850393700787,"duration":"0.12"},{"name":"E7","midi":100,"time":"313.24","velocity":0.2283464566929134,"duration":"0.29"},{"name":"F#7","midi":102,"time":"313.24","velocity":0.2755905511811024,"duration":"0.17"},{"name":"C4","midi":60,"time":"313.26","velocity":0.49606299212598426,"duration":"0.02"},{"name":"G#4","midi":68,"time":"313.26","velocity":0.5433070866141733,"duration":"0.02"},{"name":"A#4","midi":70,"time":"313.26","velocity":0.4645669291338583,"duration":"0.02"},{"name":"D#6","midi":87,"time":"313.26","velocity":0.25196850393700787,"duration":"0.10"},{"name":"F#6","midi":90,"time":"313.26","velocity":0.2283464566929134,"duration":"0.03"},{"name":"G6","midi":91,"time":"313.26","velocity":0.2755905511811024,"duration":"0.10"},{"name":"D7","midi":98,"time":"313.26","velocity":0.28346456692913385,"duration":"0.92"},{"name":"A2","midi":45,"time":"313.27","velocity":0.5984251968503937,"duration":"0.34"},{"name":"D#5","midi":75,"time":"313.27","velocity":0.3937007874015748,"duration":"0.02"},{"name":"E6","midi":88,"time":"313.27","velocity":0.31496062992125984,"duration":"0.20"},{"name":"G3","midi":55,"time":"313.28","velocity":0.48031496062992124,"duration":"0.02"},{"name":"A4","midi":69,"time":"313.28","velocity":0.5196850393700787,"duration":"0.06"},{"name":"G#5","midi":80,"time":"313.28","velocity":0.41732283464566927,"duration":"0.26"},{"name":"A#5","midi":82,"time":"313.28","velocity":0.28346456692913385,"duration":"0.06"},{"name":"C4","midi":60,"time":"313.29","velocity":0.44881889763779526,"duration":"0.02"},{"name":"F4","midi":65,"time":"313.29","velocity":0.3700787401574803,"duration":"0.03"},{"name":"C#5","midi":73,"time":"313.29","velocity":0.5196850393700787,"duration":"0.71"},{"name":"D#5","midi":75,"time":"313.30","velocity":0.2755905511811024,"duration":"0.05"},{"name":"G5","midi":79,"time":"313.30","velocity":0.2047244094488189,"duration":"0.05"},{"name":"B5","midi":83,"time":"313.30","velocity":0.30708661417322836,"duration":"0.19"},{"name":"C#4","midi":61,"time":"313.33","velocity":0.2440944881889764,"duration":"0.03"},{"name":"F#4","midi":66,"time":"313.33","velocity":0.3779527559055118,"duration":"0.03"},{"name":"F#3","midi":54,"time":"313.34","velocity":0.29133858267716534,"duration":"0.02"},{"name":"G#4","midi":68,"time":"313.34","velocity":0.33070866141732286,"duration":"0.05"},{"name":"F#6","midi":90,"time":"313.34","velocity":0.25984251968503935,"duration":"0.17"},{"name":"E5","midi":76,"time":"313.35","velocity":0.33070866141732286,"duration":"0.09"},{"name":"A#3","midi":58,"time":"313.36","velocity":0.3937007874015748,"duration":"0.05"},{"name":"D6","midi":86,"time":"313.36","velocity":0.29133858267716534,"duration":"0.15"},{"name":"E4","midi":64,"time":"313.37","velocity":0.28346456692913385,"duration":"0.02"},{"name":"B4","midi":71,"time":"313.37","velocity":0.33070866141732286,"duration":"0.21"},{"name":"D#6","midi":87,"time":"313.37","velocity":0.07086614173228346,"duration":"0.03"},{"name":"A4","midi":69,"time":"313.38","velocity":0.3543307086614173,"duration":"0.07"},{"name":"C6","midi":84,"time":"313.38","velocity":0.1732283464566929,"duration":"0.03"},{"name":"C#4","midi":61,"time":"313.40","velocity":0.4094488188976378,"duration":"0.03"},{"name":"E4","midi":64,"time":"313.43","velocity":0.33070866141732286,"duration":"0.09"},{"name":"C#4","midi":61,"time":"313.44","velocity":0.4251968503937008,"duration":"0.21"},{"name":"F5","midi":77,"time":"313.44","velocity":0.2047244094488189,"duration":"0.05"},{"name":"F3","midi":53,"time":"313.47","velocity":0.29133858267716534,"duration":"0.06"},{"name":"A#3","midi":58,"time":"313.47","velocity":0.3937007874015748,"duration":"0.03"},{"name":"C6","midi":84,"time":"313.48","velocity":0.18110236220472442,"duration":"0.03"},{"name":"A4","midi":69,"time":"313.50","velocity":0.25196850393700787,"duration":"0.03"},{"name":"A#6","midi":94,"time":"313.50","velocity":0.12598425196850394,"duration":"0.06"},{"name":"B6","midi":95,"time":"313.51","velocity":0.25984251968503935,"duration":"0.14"},{"name":"F#6","midi":90,"time":"313.52","velocity":0.13385826771653545,"duration":"0.08"},{"name":"A#3","midi":58,"time":"313.53","velocity":0.4094488188976378,"duration":"0.03"},{"name":"B5","midi":83,"time":"313.53","velocity":0.4015748031496063,"duration":"1.22"},{"name":"C6","midi":84,"time":"313.53","velocity":0.09448818897637795,"duration":"0.05"},{"name":"E4","midi":64,"time":"313.55","velocity":0.3700787401574803,"duration":"0.07"},{"name":"G#5","midi":80,"time":"313.55","velocity":0.44881889763779526,"duration":"0.44"},{"name":"F7","midi":101,"time":"313.55","velocity":0.2677165354330709,"duration":"0.60"},{"name":"A4","midi":69,"time":"313.56","velocity":0.2440944881889764,"duration":"0.06"},{"name":"D6","midi":86,"time":"313.56","velocity":0.28346456692913385,"duration":"0.05"},{"name":"F#7","midi":102,"time":"313.58","velocity":0.2283464566929134,"duration":"0.23"},{"name":"B4","midi":71,"time":"313.59","velocity":0.2755905511811024,"duration":"0.02"},{"name":"F#5","midi":78,"time":"313.59","velocity":0.16535433070866143,"duration":"0.05"},{"name":"B2","midi":47,"time":"313.60","velocity":0.5354330708661418,"duration":"0.01"},{"name":"D6","midi":86,"time":"313.62","velocity":0.2440944881889764,"duration":"0.02"},{"name":"A#6","midi":94,"time":"313.62","velocity":0.14173228346456693,"duration":"0.07"},{"name":"D#7","midi":99,"time":"313.63","velocity":0.1732283464566929,"duration":"0.43"},{"name":"A2","midi":45,"time":"313.64","velocity":0.6220472440944882,"duration":"0.34"},{"name":"F#4","midi":66,"time":"313.64","velocity":0.28346456692913385,"duration":"0.08"},{"name":"A4","midi":69,"time":"313.64","velocity":0.29133858267716534,"duration":"0.02"},{"name":"A6","midi":93,"time":"313.64","velocity":0.23622047244094488,"duration":"0.20"},{"name":"C#7","midi":97,"time":"313.64","velocity":0.3543307086614173,"duration":"2.67"},{"name":"G7","midi":103,"time":"313.64","velocity":0.14173228346456693,"duration":"0.05"},{"name":"C#4","midi":61,"time":"313.66","velocity":0.47244094488188976,"duration":"0.34"},{"name":"F6","midi":89,"time":"313.67","velocity":0.2047244094488189,"duration":"0.37"},{"name":"G6","midi":91,"time":"313.67","velocity":0.14173228346456693,"duration":"0.10"},{"name":"F#6","midi":90,"time":"313.70","velocity":0.09448818897637795,"duration":"0.03"},{"name":"A#6","midi":94,"time":"313.70","velocity":0.16535433070866143,"duration":"0.08"},{"name":"D6","midi":86,"time":"313.73","velocity":0.28346456692913385,"duration":"0.05"},{"name":"E4","midi":64,"time":"313.78","velocity":0.29133858267716534,"duration":"0.03"},{"name":"F#6","midi":90,"time":"313.78","velocity":0.10236220472440945,"duration":"0.03"},{"name":"D6","midi":86,"time":"313.79","velocity":0.2677165354330709,"duration":"0.06"},{"name":"A#6","midi":94,"time":"313.80","velocity":0.25984251968503935,"duration":"0.45"},{"name":"C7","midi":96,"time":"313.80","velocity":0.10236220472440945,"duration":"0.03"},{"name":"G6","midi":91,"time":"313.83","velocity":0.1889763779527559,"duration":"0.06"},{"name":"E7","midi":100,"time":"313.83","velocity":0.23622047244094488,"duration":"0.09"},{"name":"E4","midi":64,"time":"313.84","velocity":0.4330708661417323,"duration":"0.19"},{"name":"B4","midi":71,"time":"313.85","velocity":0.23622047244094488,"duration":"0.07"},{"name":"F#6","midi":90,"time":"313.85","velocity":0.15748031496062992,"duration":"0.07"},{"name":"F#7","midi":102,"time":"313.85","velocity":0.1889763779527559,"duration":"0.10"},{"name":"F#5","midi":78,"time":"313.86","velocity":0.25196850393700787,"duration":"0.17"},{"name":"D6","midi":86,"time":"313.88","velocity":0.3228346456692913,"duration":"0.13"},{"name":"G6","midi":91,"time":"313.92","velocity":0.11811023622047244,"duration":"0.07"},{"name":"A6","midi":93,"time":"313.94","velocity":0.1732283464566929,"duration":"0.09"},{"name":"B4","midi":71,"time":"313.95","velocity":0.3779527559055118,"duration":"0.07"},{"name":"E7","midi":100,"time":"313.95","velocity":0.14960629921259844,"duration":"0.41"},{"name":"A3","midi":57,"time":"313.98","velocity":0.3937007874015748,"duration":"0.02"},{"name":"F#7","midi":102,"time":"313.99","velocity":0.3700787401574803,"duration":"3.77"},{"name":"C2","midi":36,"time":"314.00","velocity":0.5354330708661418,"duration":"0.01"},{"name":"A#3","midi":58,"time":"314.00","velocity":0.3228346456692913,"duration":"0.02"},{"name":"D5","midi":74,"time":"314.00","velocity":0.3543307086614173,"duration":"0.03"},{"name":"G#5","midi":80,"time":"314.00","velocity":0.31496062992125984,"duration":"0.05"},{"name":"D#6","midi":87,"time":"314.00","velocity":0.2440944881889764,"duration":"0.05"},{"name":"G6","midi":91,"time":"314.00","velocity":0.18110236220472442,"duration":"0.10"},{"name":"D#2","midi":39,"time":"314.01","velocity":0.6299212598425197,"duration":"0.01"},{"name":"F3","midi":53,"time":"314.01","velocity":0.5196850393700787,"duration":"0.03"},{"name":"F#4","midi":66,"time":"314.01","velocity":0.48031496062992124,"duration":"0.08"},{"name":"F#6","midi":90,"time":"314.01","velocity":0.3700787401574803,"duration":"0.29"},{"name":"F2","midi":41,"time":"314.02","velocity":0.6692913385826772,"duration":"0.01"},{"name":"D2","midi":38,"time":"314.03","velocity":0.5511811023622047,"duration":"0.02"},{"name":"G2","midi":43,"time":"314.03","velocity":0.6456692913385826,"duration":"0.01"},{"name":"C5","midi":72,"time":"314.03","velocity":0.16535433070866143,"duration":"0.03"},{"name":"C#5","midi":73,"time":"314.03","velocity":0.30708661417322836,"duration":"0.05"},{"name":"D6","midi":86,"time":"314.03","velocity":0.18110236220472442,"duration":"0.05"},{"name":"G#2","midi":44,"time":"314.05","velocity":0.6141732283464567,"duration":"0.01"},{"name":"A5","midi":81,"time":"314.05","velocity":0.31496062992125984,"duration":"0.31"},{"name":"C7","midi":96,"time":"314.05","velocity":0.08661417322834646,"duration":"0.06"},{"name":"G1","midi":31,"time":"314.06","velocity":0.5826771653543307,"duration":"0.01"},{"name":"A2","midi":45,"time":"314.06","velocity":0.6377952755905512,"duration":"0.29"},{"name":"C#4","midi":61,"time":"314.06","velocity":0.44881889763779526,"duration":"0.34"},{"name":"E4","midi":64,"time":"314.08","velocity":0.28346456692913385,"duration":"0.03"},{"name":"G#5","midi":80,"time":"314.08","velocity":0.2283464566929134,"duration":"0.14"},{"name":"F6","midi":89,"time":"314.08","velocity":0.10236220472440945,"duration":"0.06"},{"name":"F#4","midi":66,"time":"314.10","velocity":0.23622047244094488,"duration":"0.02"},{"name":"F#4","midi":66,"time":"314.14","velocity":0.48031496062992124,"duration":"0.50"},{"name":"D#7","midi":99,"time":"314.14","velocity":0.07086614173228346,"duration":"0.07"},{"name":"A#4","midi":70,"time":"314.15","velocity":0.13385826771653545,"duration":"0.03"},{"name":"G1","midi":31,"time":"314.16","velocity":0.33858267716535434,"duration":"0.02"},{"name":"D6","midi":86,"time":"314.17","velocity":0.1732283464566929,"duration":"0.07"},{"name":"F7","midi":101,"time":"314.17","velocity":0.14173228346456693,"duration":"0.05"},{"name":"G#1","midi":32,"time":"314.19","velocity":0.3937007874015748,"duration":"0.05"},{"name":"E5","midi":76,"time":"314.23","velocity":0.3464566929133858,"duration":"0.15"},{"name":"G#5","midi":80,"time":"314.23","velocity":0.3228346456692913,"duration":"0.22"},{"name":"B4","midi":71,"time":"314.24","velocity":0.2125984251968504,"duration":"0.14"},{"name":"D6","midi":86,"time":"314.31","velocity":0.12598425196850394,"duration":"0.05"},{"name":"F#6","midi":90,"time":"314.33","velocity":0.3779527559055118,"duration":"0.43"},{"name":"A#2","midi":46,"time":"314.35","velocity":0.5511811023622047,"duration":"0.01"},{"name":"C6","midi":84,"time":"314.35","velocity":0.11023622047244094,"duration":"0.03"},{"name":"A3","midi":57,"time":"314.36","velocity":0.48031496062992124,"duration":"0.05"},{"name":"G7","midi":103,"time":"314.36","velocity":0.25984251968503935,"duration":"0.09"},{"name":"D6","midi":86,"time":"314.37","velocity":0.13385826771653545,"duration":"0.05"},{"name":"C7","midi":96,"time":"314.37","velocity":0.14960629921259844,"duration":"0.06"},{"name":"F7","midi":101,"time":"314.37","velocity":0.2125984251968504,"duration":"0.09"},{"name":"A2","midi":45,"time":"314.38","velocity":0.5984251968503937,"duration":"0.01"},{"name":"A#4","midi":70,"time":"314.38","velocity":0.23622047244094488,"duration":"0.02"},{"name":"A6","midi":93,"time":"314.38","velocity":0.2283464566929134,"duration":"0.17"},{"name":"A#6","midi":94,"time":"314.38","velocity":0.1732283464566929,"duration":"0.10"},{"name":"D7","midi":98,"time":"314.38","velocity":0.1968503937007874,"duration":"0.15"},{"name":"D2","midi":38,"time":"314.40","velocity":0.5905511811023622,"duration":"0.01"},{"name":"B2","midi":47,"time":"314.40","velocity":0.5511811023622047,"duration":"0.01"},{"name":"D4","midi":62,"time":"314.40","velocity":0.33070866141732286,"duration":"0.03"},{"name":"A5","midi":81,"time":"314.40","velocity":0.2992125984251969,"duration":"0.38"},{"name":"C6","midi":84,"time":"314.40","velocity":0.1889763779527559,"duration":"0.03"},{"name":"E2","midi":40,"time":"314.41","velocity":0.5511811023622047,"duration":"0.01"},{"name":"F6","midi":89,"time":"314.41","velocity":0.12598425196850394,"duration":"0.07"},{"name":"G1","midi":31,"time":"314.42","velocity":0.5511811023622047,"duration":"0.01"},{"name":"G#2","midi":44,"time":"314.42","velocity":0.6456692913385826,"duration":"0.02"},{"name":"E5","midi":76,"time":"314.42","velocity":0.48031496062992124,"duration":"0.38"},{"name":"F#1","midi":30,"time":"314.43","velocity":0.5984251968503937,"duration":"0.01"},{"name":"C#4","midi":61,"time":"314.43","velocity":0.28346456692913385,"duration":"0.02"},{"name":"G6","midi":91,"time":"314.43","velocity":0.14173228346456693,"duration":"0.03"},{"name":"F1","midi":29,"time":"314.44","velocity":0.5354330708661418,"duration":"0.01"},{"name":"A2","midi":45,"time":"314.44","velocity":0.6299212598425197,"duration":"0.01"},{"name":"E4","midi":64,"time":"314.44","velocity":0.30708661417322836,"duration":"0.02"},{"name":"D6","midi":86,"time":"314.44","velocity":0.2283464566929134,"duration":"0.15"},{"name":"A#2","midi":46,"time":"314.45","velocity":0.5905511811023622,"duration":"0.01"},{"name":"D#7","midi":99,"time":"314.45","velocity":0.07874015748031496,"duration":"0.05"},{"name":"A2","midi":45,"time":"314.47","velocity":0.5984251968503937,"duration":"0.01"},{"name":"C#4","midi":61,"time":"314.47","velocity":0.5826771653543307,"duration":"0.31"},{"name":"B4","midi":71,"time":"314.47","velocity":0.2677165354330709,"duration":"0.16"},{"name":"G#2","midi":44,"time":"314.48","velocity":0.6141732283464567,"duration":"0.01"},{"name":"A3","midi":57,"time":"314.48","velocity":0.36220472440944884,"duration":"0.26"},{"name":"G5","midi":79,"time":"314.48","velocity":0.2047244094488189,"duration":"0.03"},{"name":"A2","midi":45,"time":"314.49","velocity":0.6062992125984252,"duration":"0.28"},{"name":"A#6","midi":94,"time":"314.50","velocity":0.18110236220472442,"duration":"0.08"},{"name":"A4","midi":69,"time":"314.53","velocity":0.5511811023622047,"duration":"0.27"},{"name":"G#5","midi":80,"time":"314.57","velocity":0.12598425196850394,"duration":"0.08"},{"name":"F#1","midi":30,"time":"314.58","velocity":0.3700787401574803,"duration":"0.02"},{"name":"F#4","midi":66,"time":"314.67","velocity":0.36220472440944884,"duration":"0.07"},{"name":"D#7","midi":99,"time":"314.67","velocity":0.2677165354330709,"duration":"1.24"},{"name":"G7","midi":103,"time":"314.69","velocity":0.10236220472440945,"duration":"0.03"},{"name":"B4","midi":71,"time":"314.71","velocity":0.13385826771653545,"duration":"0.03"},{"name":"A#6","midi":94,"time":"314.71","velocity":0.30708661417322836,"duration":"0.15"},{"name":"E7","midi":100,"time":"314.71","velocity":0.2125984251968504,"duration":"0.41"},{"name":"C6","midi":84,"time":"314.74","velocity":0.33070866141732286,"duration":"0.02"},{"name":"F7","midi":101,"time":"314.74","velocity":0.1968503937007874,"duration":"0.17"},{"name":"G7","midi":103,"time":"314.74","velocity":0.29133858267716534,"duration":"0.14"},{"name":"G3","midi":55,"time":"314.76","velocity":0.47244094488188976,"duration":"0.05"},{"name":"G#5","midi":80,"time":"314.76","velocity":0.36220472440944884,"duration":"0.07"},{"name":"D6","midi":86,"time":"314.76","velocity":0.23622047244094488,"duration":"0.08"},{"name":"F6","midi":89,"time":"314.76","velocity":0.2677165354330709,"duration":"0.07"},{"name":"G6","midi":91,"time":"314.76","velocity":0.2283464566929134,"duration":"0.02"},{"name":"D7","midi":98,"time":"314.76","velocity":0.28346456692913385,"duration":"0.23"},{"name":"A#5","midi":82,"time":"314.77","velocity":0.23622047244094488,"duration":"0.02"},{"name":"B5","midi":83,"time":"314.77","velocity":0.4330708661417323,"duration":"0.77"},{"name":"A2","midi":45,"time":"314.78","velocity":0.6062992125984252,"duration":"0.33"},{"name":"C4","midi":60,"time":"314.78","velocity":0.5118110236220472,"duration":"0.02"},{"name":"D5","midi":74,"time":"314.78","velocity":0.31496062992125984,"duration":"0.02"},{"name":"G6","midi":91,"time":"314.79","velocity":0.16535433070866143,"duration":"0.05"},{"name":"C#4","midi":61,"time":"314.80","velocity":0.4015748031496063,"duration":"0.07"},{"name":"F#4","midi":66,"time":"314.80","velocity":0.3464566929133858,"duration":"0.02"},{"name":"F5","midi":77,"time":"314.80","velocity":0.3858267716535433,"duration":"0.03"},{"name":"E4","midi":64,"time":"314.83","velocity":0.3858267716535433,"duration":"0.26"},{"name":"G#4","midi":68,"time":"314.83","velocity":0.36220472440944884,"duration":"0.03"},{"name":"E5","midi":76,"time":"314.83","velocity":0.3937007874015748,"duration":"0.50"},{"name":"A5","midi":81,"time":"314.83","velocity":0.18110236220472442,"duration":"0.03"},{"name":"G#6","midi":92,"time":"314.83","velocity":0.33070866141732286,"duration":"0.64"},{"name":"C5","midi":72,"time":"314.84","velocity":0.29133858267716534,"duration":"0.03"},{"name":"F#5","midi":78,"time":"314.84","velocity":0.33858267716535434,"duration":"0.34"},{"name":"G#5","midi":80,"time":"314.85","velocity":0.3779527559055118,"duration":"0.28"},{"name":"A#3","midi":58,"time":"314.86","velocity":0.41732283464566927,"duration":"0.03"},{"name":"C#5","midi":73,"time":"314.87","velocity":0.2677165354330709,"duration":"0.03"},{"name":"D#5","midi":75,"time":"314.88","velocity":0.25984251968503935,"duration":"0.02"},{"name":"A4","midi":69,"time":"314.90","velocity":0.3700787401574803,"duration":"0.14"},{"name":"C7","midi":96,"time":"314.90","velocity":0.13385826771653545,"duration":"0.05"},{"name":"C#4","midi":61,"time":"314.91","velocity":0.41732283464566927,"duration":"0.17"},{"name":"B4","midi":71,"time":"314.91","velocity":0.2992125984251969,"duration":"0.19"},{"name":"D6","midi":86,"time":"314.91","velocity":0.2440944881889764,"duration":"0.05"},{"name":"G7","midi":103,"time":"314.91","velocity":0.11811023622047244,"duration":"0.17"},{"name":"A#6","midi":94,"time":"314.94","velocity":0.09448818897637795,"duration":"0.12"},{"name":"D6","midi":86,"time":"314.97","velocity":0.36220472440944884,"duration":"0.22"},{"name":"C7","midi":96,"time":"315.00","velocity":0.14173228346456693,"duration":"0.06"},{"name":"F7","midi":101,"time":"315.01","velocity":0.07086614173228346,"duration":"0.03"},{"name":"G#3","midi":56,"time":"315.03","velocity":0.36220472440944884,"duration":"0.02"},{"name":"A5","midi":81,"time":"315.03","velocity":0.2283464566929134,"duration":"0.02"},{"name":"F#4","midi":66,"time":"315.06","velocity":0.47244094488188976,"duration":"0.23"},{"name":"G#4","midi":68,"time":"315.06","velocity":0.2677165354330709,"duration":"0.03"},{"name":"A5","midi":81,"time":"315.07","velocity":0.1968503937007874,"duration":"0.09"},{"name":"A#3","midi":58,"time":"315.08","velocity":0.41732283464566927,"duration":"0.07"},{"name":"A#6","midi":94,"time":"315.08","velocity":0.2125984251968504,"duration":"0.28"},{"name":"A#2","midi":46,"time":"315.10","velocity":0.48031496062992124,"duration":"0.02"},{"name":"B4","midi":71,"time":"315.12","velocity":0.3937007874015748,"duration":"0.41"},{"name":"C#6","midi":85,"time":"315.12","velocity":0.3228346456692913,"duration":"0.09"},{"name":"G7","midi":103,"time":"315.12","velocity":0.2047244094488189,"duration":"0.03"},{"name":"A#2","midi":46,"time":"315.14","velocity":0.5669291338582677,"duration":"0.01"},{"name":"G6","midi":91,"time":"315.14","velocity":0.18110236220472442,"duration":"0.05"},{"name":"A2","midi":45,"time":"315.15","velocity":0.6220472440944882,"duration":"0.16"},{"name":"G#5","midi":80,"time":"315.15","velocity":0.25984251968503935,"duration":"0.31"},{"name":"C#5","midi":73,"time":"315.17","velocity":0.28346456692913385,"duration":"0.12"},{"name":"G#4","midi":68,"time":"315.19","velocity":0.29133858267716534,"duration":"0.02"},{"name":"A5","midi":81,"time":"315.19","velocity":0.14173228346456693,"duration":"0.07"},{"name":"D6","midi":86,"time":"315.21","velocity":0.3464566929133858,"duration":"0.10"},{"name":"A6","midi":93,"time":"315.23","velocity":0.2125984251968504,"duration":"0.34"},{"name":"G#3","midi":56,"time":"315.27","velocity":0.2440944881889764,"duration":"0.02"},{"name":"A4","midi":69,"time":"315.27","velocity":0.23622047244094488,"duration":"0.07"},{"name":"G7","midi":103,"time":"315.27","velocity":0.07874015748031496,"duration":"0.03"},{"name":"F#4","midi":66,"time":"315.30","velocity":0.4015748031496063,"duration":"0.06"},{"name":"G6","midi":91,"time":"315.30","velocity":0.18110236220472442,"duration":"0.03"},{"name":"G#2","midi":44,"time":"315.31","velocity":0.5669291338582677,"duration":"0.03"},{"name":"E4","midi":64,"time":"315.33","velocity":0.31496062992125984,"duration":"0.06"},{"name":"C#5","midi":73,"time":"315.33","velocity":0.30708661417322836,"duration":"0.17"},{"name":"D6","midi":86,"time":"315.33","velocity":0.33070866141732286,"duration":"0.06"},{"name":"E5","midi":76,"time":"315.34","velocity":0.31496062992125984,"duration":"0.08"},{"name":"A5","midi":81,"time":"315.34","velocity":0.14173228346456693,"duration":"0.05"},{"name":"F7","midi":101,"time":"315.34","velocity":0.09448818897637795,"duration":"0.03"},{"name":"G2","midi":43,"time":"315.35","velocity":0.5354330708661418,"duration":"0.03"},{"name":"C#4","midi":61,"time":"315.35","velocity":0.33858267716535434,"duration":"0.10"},{"name":"C7","midi":96,"time":"315.36","velocity":0.11811023622047244,"duration":"0.12"},{"name":"F#3","midi":54,"time":"315.37","velocity":0.4251968503937008,"duration":"0.03"},{"name":"F#4","midi":66,"time":"315.37","velocity":0.4251968503937008,"duration":"0.09"},{"name":"F#2","midi":42,"time":"315.38","velocity":0.5275590551181102,"duration":"0.02"},{"name":"C#6","midi":85,"time":"315.38","velocity":0.3464566929133858,"duration":"0.08"},{"name":"G6","midi":91,"time":"315.38","velocity":0.2283464566929134,"duration":"0.02"},{"name":"A#6","midi":94,"time":"315.38","velocity":0.1968503937007874,"duration":"0.24"},{"name":"A5","midi":81,"time":"315.40","velocity":0.1968503937007874,"duration":"0.07"},{"name":"F2","midi":41,"time":"315.41","velocity":0.5275590551181102,"duration":"0.03"},{"name":"E3","midi":52,"time":"315.42","velocity":0.49606299212598426,"duration":"0.06"},{"name":"D6","midi":86,"time":"315.42","velocity":0.36220472440944884,"duration":"0.09"},{"name":"G#4","midi":68,"time":"315.43","velocity":0.16535433070866143,"duration":"0.03"},{"name":"F7","midi":101,"time":"315.43","velocity":0.2204724409448819,"duration":"0.34"},{"name":"E2","midi":40,"time":"315.44","velocity":0.5354330708661418,"duration":"0.03"},{"name":"E5","midi":76,"time":"315.45","velocity":0.2440944881889764,"duration":"0.09"},{"name":"G7","midi":103,"time":"315.45","velocity":0.14960629921259844,"duration":"0.07"},{"name":"F6","midi":89,"time":"315.47","velocity":0.14960629921259844,"duration":"0.07"},{"name":"B3","midi":59,"time":"315.48","velocity":0.29133858267716534,"duration":"0.02"},{"name":"G#4","midi":68,"time":"315.48","velocity":0.23622047244094488,"duration":"0.03"},{"name":"C3","midi":48,"time":"315.49","velocity":0.5590551181102362,"duration":"0.02"},{"name":"G#6","midi":92,"time":"315.49","velocity":0.2677165354330709,"duration":"0.30"},{"name":"D5","midi":74,"time":"315.50","velocity":0.25196850393700787,"duration":"0.05"},{"name":"D#6","midi":87,"time":"315.50","velocity":0.2283464566929134,"duration":"0.03"},{"name":"G6","midi":91,"time":"315.50","velocity":0.2047244094488189,"duration":"0.03"},{"name":"E2","midi":40,"time":"315.51","velocity":0.6377952755905512,"duration":"0.01"},{"name":"G3","midi":55,"time":"315.51","velocity":0.49606299212598426,"duration":"0.02"},{"name":"F#5","midi":78,"time":"315.51","velocity":0.41732283464566927,"duration":"0.23"},{"name":"C#6","midi":85,"time":"315.51","velocity":0.4015748031496063,"duration":"0.77"},{"name":"C7","midi":96,"time":"315.51","velocity":0.12598425196850394,"duration":"0.09"},{"name":"F2","midi":41,"time":"315.52","velocity":0.6692913385826772,"duration":"0.02"},{"name":"F#4","midi":66,"time":"315.52","velocity":0.4409448818897638,"duration":"0.24"},{"name":"A#4","midi":70,"time":"315.52","velocity":0.36220472440944884,"duration":"0.02"},{"name":"D3","midi":50,"time":"315.53","velocity":0.5826771653543307,"duration":"0.02"},{"name":"C#5","midi":73,"time":"315.53","velocity":0.31496062992125984,"duration":"0.37"},{"name":"A5","midi":81,"time":"315.53","velocity":0.25984251968503935,"duration":"0.07"},{"name":"C6","midi":84,"time":"315.53","velocity":0.1732283464566929,"duration":"0.09"},{"name":"F#2","midi":42,"time":"315.55","velocity":0.5275590551181102,"duration":"0.01"},{"name":"E6","midi":88,"time":"315.55","velocity":0.28346456692913385,"duration":"0.98"},{"name":"F1","midi":29,"time":"315.56","velocity":0.5118110236220472,"duration":"0.01"},{"name":"A4","midi":69,"time":"315.56","velocity":0.4094488188976378,"duration":"0.34"},{"name":"B4","midi":71,"time":"315.56","velocity":0.25984251968503935,"duration":"0.02"},{"name":"E5","midi":76,"time":"315.56","velocity":0.1732283464566929,"duration":"0.12"},{"name":"G7","midi":103,"time":"315.56","velocity":0.14960629921259844,"duration":"0.23"},{"name":"A1","midi":33,"time":"315.57","velocity":0.5118110236220472,"duration":"0.01"},{"name":"A3","midi":57,"time":"315.57","velocity":0.49606299212598426,"duration":"0.31"},{"name":"F6","midi":89,"time":"315.57","velocity":0.07086614173228346,"duration":"0.03"},{"name":"E7","midi":100,"time":"315.57","velocity":0.29133858267716534,"duration":"1.05"},{"name":"D4","midi":62,"time":"315.58","velocity":0.2677165354330709,"duration":"0.10"},{"name":"D6","midi":86,"time":"315.58","velocity":0.12598425196850394,"duration":"0.05"},{"name":"A#5","midi":82,"time":"315.59","velocity":0.31496062992125984,"duration":"0.35"},{"name":"D3","midi":50,"time":"315.60","velocity":0.5590551181102362,"duration":"0.31"},{"name":"A6","midi":93,"time":"315.62","velocity":0.1889763779527559,"duration":"0.10"},{"name":"D6","midi":86,"time":"315.66","velocity":0.2283464566929134,"duration":"0.09"},{"name":"B1","midi":35,"time":"315.67","velocity":0.3464566929133858,"duration":"0.02"},{"name":"G6","midi":91,"time":"315.67","velocity":0.18110236220472442,"duration":"0.08"},{"name":"C6","midi":84,"time":"315.69","velocity":0.2440944881889764,"duration":"0.14"},{"name":"B4","midi":71,"time":"315.70","velocity":0.25196850393700787,"duration":"0.10"},{"name":"E5","midi":76,"time":"315.70","velocity":0.2992125984251969,"duration":"0.21"},{"name":"F#5","midi":78,"time":"315.76","velocity":0.4409448818897638,"duration":"0.13"},{"name":"D7","midi":98,"time":"315.76","velocity":0.11023622047244094,"duration":"0.06"},{"name":"E4","midi":64,"time":"315.77","velocity":0.4015748031496063,"duration":"0.23"},{"name":"D6","midi":86,"time":"315.77","velocity":0.2283464566929134,"duration":"0.21"},{"name":"G#5","midi":80,"time":"315.78","velocity":0.14173228346456693,"duration":"0.03"},{"name":"B6","midi":95,"time":"315.80","velocity":0.10236220472440945,"duration":"0.17"},{"name":"F7","midi":101,"time":"315.80","velocity":0.10236220472440945,"duration":"0.03"},{"name":"F#4","midi":66,"time":"315.81","velocity":0.41732283464566927,"duration":"0.30"},{"name":"G#6","midi":92,"time":"315.81","velocity":0.1968503937007874,"duration":"0.03"},{"name":"B4","midi":71,"time":"315.84","velocity":0.23622047244094488,"duration":"0.02"},{"name":"F6","midi":89,"time":"315.85","velocity":0.14173228346456693,"duration":"0.05"},{"name":"G#5","midi":80,"time":"315.86","velocity":0.1732283464566929,"duration":"0.05"},{"name":"B5","midi":83,"time":"315.86","velocity":0.14173228346456693,"duration":"0.05"},{"name":"F5","midi":77,"time":"315.88","velocity":0.28346456692913385,"duration":"0.03"},{"name":"G#6","midi":92,"time":"315.88","velocity":0.2440944881889764,"duration":"0.23"},{"name":"B4","midi":71,"time":"315.90","velocity":0.2992125984251969,"duration":"0.02"},{"name":"C7","midi":96,"time":"315.90","velocity":0.16535433070866143,"duration":"0.26"},{"name":"F7","midi":101,"time":"315.90","velocity":0.31496062992125984,"duration":"0.21"},{"name":"G7","midi":103,"time":"315.90","velocity":0.2204724409448819,"duration":"0.28"},{"name":"A5","midi":81,"time":"315.91","velocity":0.3858267716535433,"duration":"0.19"},{"name":"C6","midi":84,"time":"315.91","velocity":0.14960629921259844,"duration":"0.03"},{"name":"C3","midi":48,"time":"315.92","velocity":0.5748031496062992,"duration":"0.01"},{"name":"A#4","midi":70,"time":"315.92","velocity":0.29133858267716534,"duration":"0.03"},{"name":"E5","midi":76,"time":"315.92","velocity":0.4409448818897638,"duration":"0.41"},{"name":"F#5","midi":78,"time":"315.92","velocity":0.4566929133858268,"duration":"0.36"},{"name":"C#3","midi":49,"time":"315.93","velocity":0.5984251968503937,"duration":"0.01"},{"name":"A3","midi":57,"time":"315.93","velocity":0.48031496062992124,"duration":"0.35"},{"name":"G#5","midi":80,"time":"315.93","velocity":0.23622047244094488,"duration":"0.07"},{"name":"G6","midi":91,"time":"315.93","velocity":0.14173228346456693,"duration":"0.09"},{"name":"D#7","midi":99,"time":"315.93","velocity":0.25984251968503935,"duration":"0.08"},{"name":"C#2","midi":37,"time":"315.94","velocity":0.33070866141732286,"duration":"0.05"},{"name":"D3","midi":50,"time":"315.94","velocity":0.6062992125984252,"duration":"0.34"},{"name":"C#5","midi":73,"time":"315.94","velocity":0.47244094488188976,"duration":"0.37"},{"name":"F6","midi":89,"time":"315.97","velocity":0.11811023622047244,"duration":"0.03"},{"name":"C6","midi":84,"time":"315.98","velocity":0.2283464566929134,"duration":"0.10"},{"name":"D#2","midi":39,"time":"315.99","velocity":0.2992125984251969,"duration":"0.02"},{"name":"B6","midi":95,"time":"315.99","velocity":0.09448818897637795,"duration":"0.03"},{"name":"B4","midi":71,"time":"316.00","velocity":0.2204724409448819,"duration":"0.19"},{"name":"C#2","midi":37,"time":"316.01","velocity":0.2440944881889764,"duration":"0.02"},{"name":"A#5","midi":82,"time":"316.02","velocity":0.2440944881889764,"duration":"0.02"},{"name":"D#7","midi":99,"time":"316.03","velocity":0.14960629921259844,"duration":"0.05"},{"name":"G#5","midi":80,"time":"316.05","velocity":0.25984251968503935,"duration":"0.13"},{"name":"C#2","midi":37,"time":"316.06","velocity":0.31496062992125984,"duration":"0.02"},{"name":"D#6","midi":87,"time":"316.06","velocity":0.07874015748031496,"duration":"0.05"},{"name":"A#5","midi":82,"time":"316.07","velocity":0.3937007874015748,"duration":"0.51"},{"name":"D7","midi":98,"time":"316.07","velocity":0.07874015748031496,"duration":"0.08"},{"name":"D2","midi":38,"time":"316.08","velocity":0.2992125984251969,"duration":"0.07"},{"name":"D6","midi":86,"time":"316.09","velocity":0.1732283464566929,"duration":"0.03"},{"name":"A6","midi":93,"time":"316.13","velocity":0.12598425196850394,"duration":"0.06"},{"name":"F#4","midi":66,"time":"316.14","velocity":0.28346456692913385,"duration":"0.10"},{"name":"A4","midi":69,"time":"316.14","velocity":0.5748031496062992,"duration":"0.17"},{"name":"D2","midi":38,"time":"316.16","velocity":0.29133858267716534,"duration":"0.03"},{"name":"C6","midi":84,"time":"316.16","velocity":0.08661417322834646,"duration":"0.06"},{"name":"B6","midi":95,"time":"316.16","velocity":0.15748031496062992,"duration":"0.10"},{"name":"D6","midi":86,"time":"316.19","velocity":0.08661417322834646,"duration":"0.05"},{"name":"G7","midi":103,"time":"316.19","velocity":0.25984251968503935,"duration":"0.16"},{"name":"G#6","midi":92,"time":"316.20","velocity":0.33858267716535434,"duration":"0.63"},{"name":"D2","midi":38,"time":"316.21","velocity":0.33070866141732286,"duration":"0.07"},{"name":"G#5","midi":80,"time":"316.21","velocity":0.28346456692913385,"duration":"0.07"},{"name":"G6","midi":91,"time":"316.22","velocity":0.28346456692913385,"duration":"0.27"},{"name":"B4","midi":71,"time":"316.24","velocity":0.47244094488188976,"duration":"0.05"},{"name":"D5","midi":74,"time":"316.24","velocity":0.3858267716535433,"duration":"0.03"},{"name":"C7","midi":96,"time":"316.26","velocity":0.2125984251968504,"duration":"0.05"},{"name":"G5","midi":79,"time":"316.27","velocity":0.3779527559055118,"duration":"0.07"},{"name":"C6","midi":84,"time":"316.27","velocity":0.29133858267716534,"duration":"0.05"},{"name":"A6","midi":93,"time":"316.27","velocity":0.23622047244094488,"duration":"0.23"},{"name":"D#7","midi":99,"time":"316.27","velocity":0.2677165354330709,"duration":"0.92"},{"name":"F7","midi":101,"time":"316.27","velocity":0.1889763779527559,"duration":"0.13"},{"name":"G#3","midi":56,"time":"316.28","velocity":0.4881889763779528,"duration":"0.03"},{"name":"C#4","midi":61,"time":"316.28","velocity":0.5275590551181102,"duration":"0.03"},{"name":"D#5","midi":75,"time":"316.28","velocity":0.3543307086614173,"duration":"0.06"},{"name":"F6","midi":89,"time":"316.28","velocity":0.2047244094488189,"duration":"0.08"},{"name":"B6","midi":95,"time":"316.28","velocity":0.31496062992125984,"duration":"0.35"},{"name":"E2","midi":40,"time":"316.29","velocity":0.48031496062992124,"duration":"0.02"},{"name":"B5","midi":83,"time":"316.29","velocity":0.29133858267716534,"duration":"0.09"},{"name":"F#6","midi":90,"time":"316.29","velocity":0.36220472440944884,"duration":"1.95"},{"name":"F#4","midi":66,"time":"316.30","velocity":0.4330708661417323,"duration":"0.03"},{"name":"C5","midi":72,"time":"316.30","velocity":0.33858267716535434,"duration":"0.02"},{"name":"G#5","midi":80,"time":"316.30","velocity":0.2283464566929134,"duration":"0.03"},{"name":"D3","midi":50,"time":"316.31","velocity":0.5826771653543307,"duration":"0.33"},{"name":"F5","midi":77,"time":"316.31","velocity":0.23622047244094488,"duration":"0.02"},{"name":"G#4","midi":68,"time":"316.33","velocity":0.3858267716535433,"duration":"0.06"},{"name":"B4","midi":71,"time":"316.33","velocity":0.36220472440944884,"duration":"0.06"},{"name":"C#5","midi":73,"time":"316.33","velocity":0.36220472440944884,"duration":"0.13"},{"name":"C7","midi":96,"time":"316.33","velocity":0.18110236220472442,"duration":"0.14"},{"name":"C#7","midi":97,"time":"316.33","velocity":0.3937007874015748,"duration":"5.01"},{"name":"E5","midi":76,"time":"316.34","velocity":0.4015748031496063,"duration":"0.78"},{"name":"F#5","midi":78,"time":"316.34","velocity":0.28346456692913385,"duration":"0.03"},{"name":"D#6","midi":87,"time":"316.34","velocity":0.1732283464566929,"duration":"0.03"},{"name":"A3","midi":57,"time":"316.35","velocity":0.4409448818897638,"duration":"0.03"},{"name":"D2","midi":38,"time":"316.38","velocity":0.23622047244094488,"duration":"0.07"},{"name":"E4","midi":64,"time":"316.38","velocity":0.3700787401574803,"duration":"0.02"},{"name":"A3","midi":57,"time":"316.40","velocity":0.47244094488188976,"duration":"0.06"},{"name":"D#6","midi":87,"time":"316.40","velocity":0.09448818897637795,"duration":"0.06"},{"name":"F#4","midi":66,"time":"316.41","velocity":0.36220472440944884,"duration":"0.03"},{"name":"F#5","midi":78,"time":"316.41","velocity":0.4330708661417323,"duration":"0.22"},{"name":"G#5","midi":80,"time":"316.41","velocity":0.31496062992125984,"duration":"0.35"},{"name":"B4","midi":71,"time":"316.43","velocity":0.33070866141732286,"duration":"0.02"},{"name":"F7","midi":101,"time":"316.43","velocity":0.07874015748031496,"duration":"0.06"},{"name":"E4","midi":64,"time":"316.44","velocity":0.47244094488188976,"duration":"0.22"},{"name":"D6","midi":86,"time":"316.44","velocity":0.2755905511811024,"duration":"0.12"},{"name":"F6","midi":89,"time":"316.45","velocity":0.13385826771653545,"duration":"0.03"},{"name":"D2","midi":38,"time":"316.47","velocity":0.2283464566929134,"duration":"0.08"},{"name":"A3","midi":57,"time":"316.47","velocity":0.48031496062992124,"duration":"0.02"},{"name":"B4","midi":71,"time":"316.47","velocity":0.28346456692913385,"duration":"0.10"},{"name":"D5","midi":74,"time":"316.47","velocity":0.2440944881889764,"duration":"0.03"},{"name":"B5","midi":83,"time":"316.48","velocity":0.3700787401574803,"duration":"0.59"},{"name":"C7","midi":96,"time":"316.48","velocity":0.10236220472440945,"duration":"0.16"},{"name":"C#5","midi":73,"time":"316.49","velocity":0.2992125984251969,"duration":"0.14"},{"name":"A3","midi":57,"time":"316.50","velocity":0.5039370078740157,"duration":"0.14"},{"name":"F6","midi":89,"time":"316.51","velocity":0.08661417322834646,"duration":"0.03"},{"name":"G7","midi":103,"time":"316.51","velocity":0.16535433070866143,"duration":"0.09"},{"name":"D2","midi":38,"time":"316.56","velocity":0.25984251968503935,"duration":"0.06"},{"name":"D6","midi":86,"time":"316.57","velocity":0.29133858267716534,"duration":"0.17"},{"name":"B4","midi":71,"time":"316.58","velocity":0.2440944881889764,"duration":"0.03"},{"name":"F#4","midi":66,"time":"316.59","velocity":0.4330708661417323,"duration":"0.05"},{"name":"F6","midi":89,"time":"316.62","velocity":0.2204724409448819,"duration":"0.08"},{"name":"D2","midi":38,"time":"316.63","velocity":0.4094488188976378,"duration":"0.02"},{"name":"A#5","midi":82,"time":"316.63","velocity":0.25196850393700787,"duration":"0.03"},{"name":"E7","midi":100,"time":"316.63","velocity":0.2755905511811024,"duration":"0.34"},{"name":"A#3","midi":58,"time":"316.64","velocity":0.4645669291338583,"duration":"0.06"},{"name":"C#5","midi":73,"time":"316.64","velocity":0.2204724409448819,"duration":"0.05"},{"name":"F#5","midi":78,"time":"316.64","velocity":0.41732283464566927,"duration":"0.48"},{"name":"F#4","midi":66,"time":"316.65","velocity":0.44881889763779526,"duration":"0.09"},{"name":"A6","midi":93,"time":"316.65","velocity":0.23622047244094488,"duration":"0.49"},{"name":"C7","midi":96,"time":"316.65","velocity":0.11811023622047244,"duration":"0.05"},{"name":"F7","midi":101,"time":"316.65","velocity":0.23622047244094488,"duration":"0.55"},{"name":"D#2","midi":39,"time":"316.66","velocity":0.5118110236220472,"duration":"0.01"},{"name":"B4","midi":71,"time":"316.66","velocity":0.23622047244094488,"duration":"0.03"},{"name":"G6","midi":91,"time":"316.66","velocity":0.25984251968503935,"duration":"0.16"},{"name":"E2","midi":40,"time":"316.67","velocity":0.5118110236220472,"duration":"0.02"},{"name":"D#3","midi":51,"time":"316.67","velocity":0.5275590551181102,"duration":"0.01"},{"name":"D5","midi":74,"time":"316.67","velocity":0.2283464566929134,"duration":"0.02"},{"name":"D3","midi":50,"time":"316.69","velocity":0.5748031496062992,"duration":"0.07"},{"name":"A4","midi":69,"time":"316.69","velocity":0.1889763779527559,"duration":"0.03"},{"name":"D#2","midi":39,"time":"316.70","velocity":0.3464566929133858,"duration":"0.02"},{"name":"A3","midi":57,"time":"316.70","velocity":0.44881889763779526,"duration":"0.02"},{"name":"C#5","midi":73,"time":"316.70","velocity":0.2992125984251969,"duration":"0.12"},{"name":"A#5","midi":82,"time":"316.70","velocity":0.28346456692913385,"duration":"0.05"},{"name":"B4","midi":71,"time":"316.71","velocity":0.33070866141732286,"duration":"0.15"},{"name":"D2","midi":38,"time":"316.72","velocity":0.3779527559055118,"duration":"0.28"},{"name":"A5","midi":81,"time":"316.72","velocity":0.33858267716535434,"duration":"0.13"},{"name":"A3","midi":57,"time":"316.73","velocity":0.47244094488188976,"duration":"0.07"},{"name":"C7","midi":96,"time":"316.73","velocity":0.11023622047244094,"duration":"0.07"},{"name":"C#3","midi":49,"time":"316.76","velocity":0.5433070866141733,"duration":"0.01"},{"name":"E4","midi":64,"time":"316.76","velocity":0.36220472440944884,"duration":"0.07"},{"name":"F#4","midi":66,"time":"316.76","velocity":0.3464566929133858,"duration":"0.05"},{"name":"D3","midi":50,"time":"316.77","velocity":0.5669291338582677,"duration":"0.24"},{"name":"A#5","midi":82,"time":"316.77","velocity":0.28346456692913385,"duration":"0.05"},{"name":"G#5","midi":80,"time":"316.79","velocity":0.3464566929133858,"duration":"0.57"},{"name":"D6","midi":86,"time":"316.80","velocity":0.2755905511811024,"duration":"0.13"},{"name":"A3","midi":57,"time":"316.81","velocity":0.49606299212598426,"duration":"0.21"},{"name":"F#4","midi":66,"time":"316.83","velocity":0.30708661417322836,"duration":"0.07"},{"name":"C7","midi":96,"time":"316.83","velocity":0.18110236220472442,"duration":"0.10"},{"name":"A#5","midi":82,"time":"316.84","velocity":0.3464566929133858,"duration":"0.14"},{"name":"C#5","midi":73,"time":"316.86","velocity":0.25196850393700787,"duration":"0.05"},{"name":"C#6","midi":85,"time":"316.86","velocity":0.3700787401574803,"duration":"0.09"},{"name":"G7","midi":103,"time":"316.86","velocity":0.15748031496062992,"duration":"0.13"},{"name":"B4","midi":71,"time":"316.87","velocity":0.33070866141732286,"duration":"0.15"},{"name":"G6","midi":91,"time":"316.87","velocity":0.1968503937007874,"duration":"0.05"},{"name":"E4","midi":64,"time":"316.90","velocity":0.49606299212598426,"duration":"0.13"},{"name":"C#5","midi":73,"time":"316.92","velocity":0.14960629921259844,"duration":"0.03"},{"name":"D#6","midi":87,"time":"316.92","velocity":0.12598425196850394,"duration":"0.06"},{"name":"A5","midi":81,"time":"316.94","velocity":0.25984251968503935,"duration":"0.07"},{"name":"D6","midi":86,"time":"316.94","velocity":0.28346456692913385,"duration":"0.07"},{"name":"G6","midi":91,"time":"316.95","velocity":0.14960629921259844,"duration":"0.03"},{"name":"F6","midi":89,"time":"316.97","velocity":0.14960629921259844,"duration":"0.13"},{"name":"C#5","midi":73,"time":"316.98","velocity":0.2047244094488189,"duration":"0.03"},{"name":"F#4","midi":66,"time":"316.99","velocity":0.5118110236220472,"duration":"0.06"},{"name":"A#5","midi":82,"time":"316.99","velocity":0.2440944881889764,"duration":"0.05"},{"name":"C#6","midi":85,"time":"316.99","velocity":0.2283464566929134,"duration":"0.03"},{"name":"A2","midi":45,"time":"317.01","velocity":0.5511811023622047,"duration":"0.01"},{"name":"D5","midi":74,"time":"317.01","velocity":0.28346456692913385,"duration":"0.12"},{"name":"C7","midi":96,"time":"317.01","velocity":0.08661417322834646,"duration":"0.03"},{"name":"E7","midi":100,"time":"317.01","velocity":0.2283464566929134,"duration":"0.38"},{"name":"F#2","midi":42,"time":"317.02","velocity":0.6771653543307087,"duration":"0.02"},{"name":"A#3","midi":58,"time":"317.02","velocity":0.41732283464566927,"duration":"0.03"},{"name":"A5","midi":81,"time":"317.02","velocity":0.25196850393700787,"duration":"0.02"},{"name":"F3","midi":53,"time":"317.03","velocity":0.4881889763779528,"duration":"0.02"},{"name":"C#6","midi":85,"time":"317.03","velocity":0.41732283464566927,"duration":"0.77"},{"name":"F2","midi":41,"time":"317.05","velocity":0.6377952755905512,"duration":"0.01"},{"name":"B4","midi":71,"time":"317.05","velocity":0.3228346456692913,"duration":"0.06"},{"name":"G7","midi":103,"time":"317.05","velocity":0.18110236220472442,"duration":"0.14"},{"name":"E2","midi":40,"time":"317.06","velocity":0.5826771653543307,"duration":"0.01"},{"name":"D#3","midi":51,"time":"317.06","velocity":0.5118110236220472,"duration":"0.01"},{"name":"A3","midi":57,"time":"317.06","velocity":0.4015748031496063,"duration":"0.03"},{"name":"G#4","midi":68,"time":"317.06","velocity":0.3779527559055118,"duration":"0.02"},{"name":"A#5","midi":82,"time":"317.06","velocity":0.3464566929133858,"duration":"0.36"},{"name":"F#1","midi":30,"time":"317.07","velocity":0.6062992125984252,"duration":"0.01"},{"name":"C3","midi":48,"time":"317.07","velocity":0.5669291338582677,"duration":"0.01"},{"name":"A4","midi":69,"time":"317.09","velocity":0.23622047244094488,"duration":"0.20"},{"name":"D3","midi":50,"time":"317.10","velocity":0.5275590551181102,"duration":"0.03"},{"name":"F6","midi":89,"time":"317.10","velocity":0.13385826771653545,"duration":"0.05"},{"name":"G6","midi":91,"time":"317.10","velocity":0.2047244094488189,"duration":"0.19"},{"name":"B4","midi":71,"time":"317.12","velocity":0.25984251968503935,"duration":"0.28"},{"name":"C#5","midi":73,"time":"317.12","velocity":0.2755905511811024,"duration":"0.13"},{"name":"E5","midi":76,"time":"317.13","velocity":0.11811023622047244,"duration":"0.06"},{"name":"F#5","midi":78,"time":"317.13","velocity":0.4881889763779528,"duration":"0.27"},{"name":"C#3","midi":49,"time":"317.14","velocity":0.5118110236220472,"duration":"0.01"},{"name":"E2","midi":40,"time":"317.15","velocity":0.31496062992125984,"duration":"0.02"},{"name":"D3","midi":50,"time":"317.15","velocity":0.5511811023622047,"duration":"0.24"},{"name":"F#4","midi":66,"time":"317.15","velocity":0.3228346456692913,"duration":"0.02"},{"name":"A6","midi":93,"time":"317.15","velocity":0.15748031496062992,"duration":"0.03"},{"name":"A3","midi":57,"time":"317.17","velocity":0.4094488188976378,"duration":"0.22"},{"name":"F#4","midi":66,"time":"317.19","velocity":0.5039370078740157,"duration":"0.17"},{"name":"E5","midi":76,"time":"317.21","velocity":0.33858267716535434,"duration":"0.23"},{"name":"C7","midi":96,"time":"317.21","velocity":0.14960629921259844,"duration":"0.13"},{"name":"D#7","midi":99,"time":"317.21","velocity":0.07874015748031496,"duration":"0.06"},{"name":"G7","midi":103,"time":"317.23","velocity":0.2204724409448819,"duration":"0.26"},{"name":"C#5","midi":73,"time":"317.29","velocity":0.15748031496062992,"duration":"0.03"},{"name":"A6","midi":93,"time":"317.29","velocity":0.11023622047244094,"duration":"0.07"},{"name":"F6","midi":89,"time":"317.31","velocity":0.16535433070866143,"duration":"0.10"},{"name":"B5","midi":83,"time":"317.33","velocity":0.36220472440944884,"duration":"0.47"},{"name":"C#5","midi":73,"time":"317.34","velocity":0.25984251968503935,"duration":"0.06"},{"name":"G6","midi":91,"time":"317.34","velocity":0.14960629921259844,"duration":"0.09"},{"name":"D2","midi":38,"time":"317.35","velocity":0.3700787401574803,"duration":"0.02"},{"name":"F4","midi":65,"time":"317.36","velocity":0.4251968503937008,"duration":"0.05"},{"name":"C7","midi":96,"time":"317.38","velocity":0.16535433070866143,"duration":"0.14"},{"name":"D7","midi":98,"time":"317.38","velocity":0.29133858267716534,"duration":"0.91"},{"name":"F7","midi":101,"time":"317.38","velocity":0.2755905511811024,"duration":"0.13"},{"name":"D#2","midi":39,"time":"317.40","velocity":0.6141732283464567,"duration":"0.01"},{"name":"G5","midi":79,"time":"317.40","velocity":0.31496062992125984,"duration":"0.02"},{"name":"D#7","midi":99,"time":"317.40","velocity":0.14173228346456693,"duration":"0.08"},{"name":"E2","midi":40,"time":"317.41","velocity":0.7086614173228346,"duration":"0.01"},{"name":"D3","midi":50,"time":"317.41","velocity":0.5039370078740157,"duration":"0.02"},{"name":"D5","midi":74,"time":"317.41","velocity":0.2677165354330709,"duration":"0.03"},{"name":"F#5","midi":78,"time":"317.41","velocity":0.3937007874015748,"duration":"0.23"},{"name":"D#6","midi":87,"time":"317.41","velocity":0.11811023622047244,"duration":"0.03"},{"name":"E7","midi":100,"time":"317.41","velocity":0.2755905511811024,"duration":"0.65"},{"name":"F2","midi":41,"time":"317.42","velocity":0.6929133858267716,"duration":"0.02"},{"name":"G3","midi":55,"time":"317.42","velocity":0.4094488188976378,"duration":"0.02"},{"name":"F4","midi":65,"time":"317.42","velocity":0.4015748031496063,"duration":"0.02"},{"name":"C#3","midi":49,"time":"317.43","velocity":0.5748031496062992,"duration":"0.01"},{"name":"A#5","midi":82,"time":"317.43","velocity":0.2677165354330709,"duration":"0.13"},{"name":"D#1","midi":27,"time":"317.44","velocity":0.5826771653543307,"duration":"0.01"},{"name":"D3","midi":50,"time":"317.44","velocity":0.6220472440944882,"duration":"0.33"},{"name":"F#4","midi":66,"time":"317.44","velocity":0.4015748031496063,"duration":"0.02"},{"name":"C#5","midi":73,"time":"317.44","velocity":0.36220472440944884,"duration":"0.33"},{"name":"F#1","midi":30,"time":"317.45","velocity":0.5354330708661418,"duration":"0.01"},{"name":"G6","midi":91,"time":"317.47","velocity":0.11023622047244094,"duration":"0.03"},{"name":"C#2","midi":37,"time":"317.48","velocity":0.5275590551181102,"duration":"0.01"},{"name":"A3","midi":57,"time":"317.48","velocity":0.3779527559055118,"duration":"0.06"},{"name":"E5","midi":76,"time":"317.48","velocity":0.49606299212598426,"duration":"0.33"},{"name":"G#5","midi":80,"time":"317.49","velocity":0.4015748031496063,"duration":"0.33"},{"name":"D#7","midi":99,"time":"317.49","velocity":0.11811023622047244,"duration":"0.08"},{"name":"F#4","midi":66,"time":"317.50","velocity":0.47244094488188976,"duration":"0.14"},{"name":"B4","midi":71,"time":"317.51","velocity":0.28346456692913385,"duration":"0.10"},{"name":"G7","midi":103,"time":"317.51","velocity":0.10236220472440945,"duration":"0.05"},{"name":"A5","midi":81,"time":"317.53","velocity":0.2677165354330709,"duration":"0.15"},{"name":"F6","midi":89,"time":"317.53","velocity":0.11811023622047244,"duration":"0.03"},{"name":"E1","midi":28,"time":"317.55","velocity":0.3779527559055118,"duration":"0.02"},{"name":"A3","midi":57,"time":"317.55","velocity":0.47244094488188976,"duration":"0.21"},{"name":"F7","midi":101,"time":"317.55","velocity":0.12598425196850394,"duration":"0.14"},{"name":"A#5","midi":82,"time":"317.57","velocity":0.3464566929133858,"duration":"0.24"},{"name":"D6","midi":86,"time":"317.58","velocity":0.15748031496062992,"duration":"0.05"},{"name":"G7","midi":103,"time":"317.58","velocity":0.07874015748031496,"duration":"0.03"},{"name":"C7","midi":96,"time":"317.60","velocity":0.07874015748031496,"duration":"0.03"},{"name":"D2","midi":38,"time":"317.62","velocity":0.3228346456692913,"duration":"0.02"},{"name":"C#2","midi":37,"time":"317.64","velocity":0.3464566929133858,"duration":"0.02"},{"name":"B4","midi":71,"time":"317.65","velocity":0.4566929133858268,"duration":"0.15"},{"name":"F#5","midi":78,"time":"317.65","velocity":0.4566929133858268,"duration":"0.13"},{"name":"D6","midi":86,"time":"317.65","velocity":0.15748031496062992,"duration":"0.05"},{"name":"G6","midi":91,"time":"317.65","velocity":0.10236220472440945,"duration":"0.05"},{"name":"G7","midi":103,"time":"317.65","velocity":0.2125984251968504,"duration":"0.35"},{"name":"C7","midi":96,"time":"317.66","velocity":0.09448818897637795,"duration":"0.06"},{"name":"F#4","midi":66,"time":"317.69","velocity":0.31496062992125984,"duration":"0.08"},{"name":"D6","midi":86,"time":"317.72","velocity":0.25984251968503935,"duration":"0.08"},{"name":"D2","midi":38,"time":"317.73","velocity":0.3700787401574803,"duration":"0.03"},{"name":"F7","midi":101,"time":"317.73","velocity":0.18110236220472442,"duration":"0.29"},{"name":"C7","midi":96,"time":"317.76","velocity":0.23622047244094488,"duration":"0.16"},{"name":"D#7","midi":99,"time":"317.76","velocity":0.2992125984251969,"duration":"0.86"},{"name":"F#3","midi":54,"time":"317.77","velocity":0.48031496062992124,"duration":"0.02"},{"name":"D#2","midi":39,"time":"317.78","velocity":0.4015748031496063,"duration":"0.02"},{"name":"C4","midi":60,"time":"317.78","velocity":0.5118110236220472,"duration":"0.02"},{"name":"G#4","midi":68,"time":"317.78","velocity":0.5354330708661418,"duration":"0.02"},{"name":"C#5","midi":73,"time":"317.78","velocity":0.4645669291338583,"duration":"0.09"},{"name":"A5","midi":81,"time":"317.78","velocity":0.3779527559055118,"duration":"0.26"},{"name":"F6","midi":89,"time":"317.78","velocity":0.2440944881889764,"duration":"0.02"},{"name":"G6","midi":91,"time":"317.78","velocity":0.23622047244094488,"duration":"0.05"},{"name":"D#3","midi":51,"time":"317.79","velocity":0.5590551181102362,"duration":"0.01"},{"name":"E4","midi":64,"time":"317.79","velocity":0.4251968503937008,"duration":"0.02"},{"name":"C6","midi":84,"time":"317.79","velocity":0.31496062992125984,"duration":"0.06"},{"name":"B6","midi":95,"time":"317.79","velocity":0.1889763779527559,"duration":"0.08"},{"name":"D3","midi":50,"time":"317.80","velocity":0.5669291338582677,"duration":"0.17"},{"name":"D#2","midi":39,"time":"317.81","velocity":0.25196850393700787,"duration":"0.02"},{"name":"F#4","midi":66,"time":"317.81","velocity":0.49606299212598426,"duration":"0.10"},{"name":"A#4","midi":70,"time":"317.81","velocity":0.33858267716535434,"duration":"0.02"},{"name":"E5","midi":76,"time":"317.81","velocity":0.3858267716535433,"duration":"0.24"},{"name":"G#6","midi":92,"time":"317.81","velocity":0.2283464566929134,"duration":"0.10"},{"name":"G#4","midi":68,"time":"317.84","velocity":0.3858267716535433,"duration":"0.02"},{"name":"B5","midi":83,"time":"317.84","velocity":0.25196850393700787,"duration":"0.03"},{"name":"G6","midi":91,"time":"317.85","velocity":0.18110236220472442,"duration":"0.09"},{"name":"D5","midi":74,"time":"317.86","velocity":0.2992125984251969,"duration":"0.07"},{"name":"G5","midi":79,"time":"317.86","velocity":0.2677165354330709,"duration":"0.07"},{"name":"A#5","midi":82,"time":"317.86","velocity":0.29133858267716534,"duration":"0.03"},{"name":"C6","midi":84,"time":"317.86","velocity":0.2755905511811024,"duration":"0.16"},{"name":"D#6","midi":87,"time":"317.86","velocity":0.09448818897637795,"duration":"0.03"},{"name":"D2","midi":38,"time":"317.87","velocity":0.2440944881889764,"duration":"0.03"},{"name":"A4","midi":69,"time":"317.88","velocity":0.31496062992125984,"duration":"0.02"},{"name":"E4","midi":64,"time":"317.90","velocity":0.4094488188976378,"duration":"0.07"},{"name":"B4","midi":71,"time":"317.90","velocity":0.25196850393700787,"duration":"0.02"},{"name":"D6","midi":86,"time":"317.90","velocity":0.3228346456692913,"duration":"0.09"},{"name":"A3","midi":57,"time":"317.91","velocity":0.44881889763779526,"duration":"0.02"},{"name":"C#6","midi":85,"time":"317.91","velocity":0.3543307086614173,"duration":"0.35"},{"name":"D#6","midi":87,"time":"317.91","velocity":0.1968503937007874,"duration":"0.08"},{"name":"D2","midi":38,"time":"317.92","velocity":0.25196850393700787,"duration":"0.06"},{"name":"B6","midi":95,"time":"317.92","velocity":0.2204724409448819,"duration":"0.27"},{"name":"B4","midi":71,"time":"317.93","velocity":0.31496062992125984,"duration":"0.13"},{"name":"C#5","midi":73,"time":"317.93","velocity":0.4094488188976378,"duration":"0.24"},{"name":"G#6","midi":92,"time":"317.94","velocity":0.2755905511811024,"duration":"0.43"},{"name":"A3","midi":57,"time":"317.97","velocity":0.47244094488188976,"duration":"0.02"},{"name":"C#2","midi":37,"time":"317.98","velocity":0.2677165354330709,"duration":"0.02"},{"name":"E4","midi":64,"time":"317.98","velocity":0.3937007874015748,"duration":"0.03"},{"name":"D3","midi":50,"time":"317.99","velocity":0.5669291338582677,"duration":"0.14"},{"name":"A4","midi":69,"time":"317.99","velocity":0.2992125984251969,"duration":"0.05"},{"name":"D2","midi":38,"time":"318.00","velocity":0.2755905511811024,"duration":"0.06"},{"name":"F#4","midi":66,"time":"318.00","velocity":0.4881889763779528,"duration":"0.16"},{"name":"D6","midi":86,"time":"318.00","velocity":0.2125984251968504,"duration":"0.03"},{"name":"G7","midi":103,"time":"318.01","velocity":0.2047244094488189,"duration":"0.43"},{"name":"A3","midi":57,"time":"318.02","velocity":0.49606299212598426,"duration":"0.07"},{"name":"G#5","midi":80,"time":"318.03","velocity":0.1968503937007874,"duration":"0.06"},{"name":"A5","midi":81,"time":"318.05","velocity":0.28346456692913385,"duration":"0.12"},{"name":"A#5","midi":82,"time":"318.05","velocity":0.13385826771653545,"duration":"0.05"},{"name":"C6","midi":84,"time":"318.06","velocity":0.1968503937007874,"duration":"0.13"},{"name":"D2","midi":38,"time":"318.07","velocity":0.29133858267716534,"duration":"0.03"},{"name":"B4","midi":71,"time":"318.07","velocity":0.25196850393700787,"duration":"0.05"},{"name":"E5","midi":76,"time":"318.09","velocity":0.3464566929133858,"duration":"0.23"},{"name":"F7","midi":101,"time":"318.09","velocity":0.1968503937007874,"duration":"0.14"},{"name":"D2","midi":38,"time":"318.12","velocity":0.3937007874015748,"duration":"0.02"},{"name":"A#3","midi":58,"time":"318.12","velocity":0.48031496062992124,"duration":"0.02"},{"name":"D#3","midi":51,"time":"318.13","velocity":0.4409448818897638,"duration":"0.03"},{"name":"C7","midi":96,"time":"318.14","velocity":0.2125984251968504,"duration":"0.15"},{"name":"D#2","midi":39,"time":"318.15","velocity":0.5039370078740157,"duration":"0.02"},{"name":"A#3","midi":58,"time":"318.15","velocity":0.4409448818897638,"duration":"0.02"},{"name":"D4","midi":62,"time":"318.15","velocity":0.3464566929133858,"duration":"0.02"},{"name":"D3","midi":50,"time":"318.16","velocity":0.5826771653543307,"duration":"0.35"},{"name":"E4","midi":64,"time":"318.16","velocity":0.33858267716535434,"duration":"0.02"},{"name":"G#5","midi":80,"time":"318.16","velocity":0.28346456692913385,"duration":"0.37"},{"name":"B5","midi":83,"time":"318.16","velocity":0.3464566929133858,"duration":"0.17"},{"name":"A3","midi":57,"time":"318.17","velocity":0.41732283464566927,"duration":"0.02"},{"name":"A#5","midi":82,"time":"318.17","velocity":0.16535433070866143,"duration":"0.03"},{"name":"D6","midi":86,"time":"318.17","velocity":0.2992125984251969,"duration":"0.02"},{"name":"D#2","midi":39,"time":"318.19","velocity":0.2992125984251969,"duration":"0.02"},{"name":"F#4","midi":66,"time":"318.19","velocity":0.41732283464566927,"duration":"0.19"},{"name":"B4","midi":71,"time":"318.19","velocity":0.11811023622047244,"duration":"0.03"},{"name":"G6","midi":91,"time":"318.19","velocity":0.14960629921259844,"duration":"0.08"},{"name":"A4","midi":69,"time":"318.20","velocity":0.2204724409448819,"duration":"0.06"},{"name":"A5","midi":81,"time":"318.20","velocity":0.2204724409448819,"duration":"0.14"},{"name":"A6","midi":93,"time":"318.20","velocity":0.2440944881889764,"duration":"0.08"},{"name":"D2","midi":38,"time":"318.21","velocity":0.28346456692913385,"duration":"0.03"},{"name":"A3","midi":57,"time":"318.21","velocity":0.47244094488188976,"duration":"0.28"},{"name":"A#5","midi":82,"time":"318.22","velocity":0.1968503937007874,"duration":"0.05"},{"name":"D6","midi":86,"time":"318.24","velocity":0.3543307086614173,"duration":"0.02"},{"name":"D2","midi":38,"time":"318.26","velocity":0.2755905511811024,"duration":"0.03"},{"name":"B4","midi":71,"time":"318.26","velocity":0.25984251968503935,"duration":"0.09"},{"name":"F7","midi":101,"time":"318.26","velocity":0.18110236220472442,"duration":"0.03"},{"name":"C#6","midi":85,"time":"318.27","velocity":0.3700787401574803,"duration":"0.17"},{"name":"D#6","midi":87,"time":"318.27","velocity":0.13385826771653545,"duration":"0.06"},{"name":"C#5","midi":73,"time":"318.28","velocity":0.3543307086614173,"duration":"0.28"},{"name":"D2","midi":38,"time":"318.30","velocity":0.3937007874015748,"duration":"0.21"},{"name":"C7","midi":96,"time":"318.30","velocity":0.2047244094488189,"duration":"0.09"},{"name":"D7","midi":98,"time":"318.30","velocity":0.2283464566929134,"duration":"0.43"},{"name":"D6","midi":86,"time":"318.31","velocity":0.25984251968503935,"duration":"0.05"},{"name":"G6","midi":91,"time":"318.33","velocity":0.1889763779527559,"duration":"0.05"},{"name":"A#5","midi":82,"time":"318.34","velocity":0.2440944881889764,"duration":"0.02"},{"name":"C6","midi":84,"time":"318.34","velocity":0.2283464566929134,"duration":"0.02"},{"name":"B5","midi":83,"time":"318.35","velocity":0.2440944881889764,"duration":"0.07"},{"name":"F7","midi":101,"time":"318.35","velocity":0.13385826771653545,"duration":"0.05"},{"name":"A6","midi":93,"time":"318.36","velocity":0.1732283464566929,"duration":"0.10"},{"name":"B4","midi":71,"time":"318.37","velocity":0.2992125984251969,"duration":"0.17"},{"name":"E5","midi":76,"time":"318.37","velocity":0.25196850393700787,"duration":"0.16"},{"name":"A5","midi":81,"time":"318.37","velocity":0.07874015748031496,"duration":"0.03"},{"name":"D6","midi":86,"time":"318.37","velocity":0.3464566929133858,"duration":"0.15"},{"name":"E4","midi":64,"time":"318.38","velocity":0.41732283464566927,"duration":"0.10"},{"name":"D#6","midi":87,"time":"318.38","velocity":0.13385826771653545,"duration":"0.08"},{"name":"A#5","midi":82,"time":"318.41","velocity":0.3228346456692913,"duration":"0.09"},{"name":"F6","midi":89,"time":"318.41","velocity":0.09448818897637795,"duration":"0.03"},{"name":"G6","midi":91,"time":"318.42","velocity":0.09448818897637795,"duration":"0.03"},{"name":"C7","midi":96,"time":"318.43","velocity":0.13385826771653545,"duration":"0.05"},{"name":"F7","midi":101,"time":"318.43","velocity":0.23622047244094488,"duration":"0.20"},{"name":"C6","midi":84,"time":"318.44","velocity":0.10236220472440945,"duration":"0.07"},{"name":"B6","midi":95,"time":"318.47","velocity":0.2677165354330709,"duration":"0.27"},{"name":"F#4","midi":66,"time":"318.48","velocity":0.5275590551181102,"duration":"0.67"},{"name":"A#3","midi":58,"time":"318.49","velocity":0.3700787401574803,"duration":"0.02"},{"name":"A5","midi":81,"time":"318.49","velocity":0.2992125984251969,"duration":"0.06"},{"name":"G2","midi":43,"time":"318.52","velocity":0.6535433070866141,"duration":"0.02"},{"name":"D#6","midi":87,"time":"318.52","velocity":0.18110236220472442,"duration":"0.05"},{"name":"G#6","midi":92,"time":"318.52","velocity":0.33070866141732286,"duration":"0.58"},{"name":"C#4","midi":61,"time":"318.53","velocity":0.3700787401574803,"duration":"0.02"},{"name":"G5","midi":79,"time":"318.53","velocity":0.28346456692913385,"duration":"0.02"},{"name":"D6","midi":86,"time":"318.53","velocity":0.25984251968503935,"duration":"0.16"},{"name":"F2","midi":41,"time":"318.55","velocity":0.6456692913385826,"duration":"0.01"},{"name":"D#3","midi":51,"time":"318.55","velocity":0.6141732283464567,"duration":"0.02"},{"name":"D5","midi":74,"time":"318.55","velocity":0.2992125984251969,"duration":"0.05"},{"name":"C7","midi":96,"time":"318.55","velocity":0.11023622047244094,"duration":"0.06"},{"name":"F#2","midi":42,"time":"318.56","velocity":0.5511811023622047,"duration":"0.01"},{"name":"C5","midi":72,"time":"318.56","velocity":0.25984251968503935,"duration":"0.02"},{"name":"A5","midi":81,"time":"318.56","velocity":0.2440944881889764,"duration":"0.10"},{"name":"B5","midi":83,"time":"318.56","velocity":0.36220472440944884,"duration":"0.38"},{"name":"B1","midi":35,"time":"318.57","velocity":0.5826771653543307,"duration":"0.01"},{"name":"D3","midi":50,"time":"318.57","velocity":0.5433070866141733,"duration":"0.01"},{"name":"A4","midi":69,"time":"318.57","velocity":0.31496062992125984,"duration":"0.21"},{"name":"E5","midi":76,"time":"318.57","velocity":0.33070866141732286,"duration":"0.69"},{"name":"G7","midi":103,"time":"318.57","velocity":0.12598425196850394,"duration":"0.05"},{"name":"F#1","midi":30,"time":"318.58","velocity":0.6456692913385826,"duration":"0.02"},{"name":"C#3","midi":49,"time":"318.58","velocity":0.5669291338582677,"duration":"0.02"},{"name":"B4","midi":71,"time":"318.58","velocity":0.28346456692913385,"duration":"0.10"},{"name":"G#5","midi":80,"time":"318.59","velocity":0.30708661417322836,"duration":"0.33"},{"name":"F#7","midi":102,"time":"318.59","velocity":0.33070866141732286,"duration":"3.15"},{"name":"D3","midi":50,"time":"318.60","velocity":0.5826771653543307,"duration":"0.29"},{"name":"A#5","midi":82,"time":"318.60","velocity":0.14173228346456693,"duration":"0.03"},{"name":"A3","midi":57,"time":"318.62","velocity":0.33070866141732286,"duration":"0.02"},{"name":"C#6","midi":85,"time":"318.62","velocity":0.4251968503937008,"duration":"0.73"},{"name":"D#7","midi":99,"time":"318.63","velocity":0.1732283464566929,"duration":"0.35"},{"name":"A#5","midi":82,"time":"318.65","velocity":0.2047244094488189,"duration":"0.06"},{"name":"G7","midi":103,"time":"318.65","velocity":0.12598425196850394,"duration":"0.12"},{"name":"A3","midi":57,"time":"318.69","velocity":0.3700787401574803,"duration":"0.05"},{"name":"B4","midi":71,"time":"318.70","velocity":0.31496062992125984,"duration":"0.23"},{"name":"C#5","midi":73,"time":"318.70","velocity":0.28346456692913385,"duration":"0.15"},{"name":"F1","midi":29,"time":"318.71","velocity":0.31496062992125984,"duration":"0.02"},{"name":"A#5","midi":82,"time":"318.72","velocity":0.3228346456692913,"duration":"0.35"},{"name":"C7","midi":96,"time":"318.72","velocity":0.14960629921259844,"duration":"0.07"},{"name":"A3","midi":57,"time":"318.74","velocity":0.3779527559055118,"duration":"0.05"},{"name":"F6","midi":89,"time":"318.74","velocity":0.09448818897637795,"duration":"0.03"},{"name":"D6","midi":86,"time":"318.77","velocity":0.2283464566929134,"duration":"0.27"},{"name":"G7","midi":103,"time":"318.79","velocity":0.12598425196850394,"duration":"0.05"},{"name":"A3","midi":57,"time":"318.80","velocity":0.3858267716535433,"duration":"0.10"},{"name":"C7","midi":96,"time":"318.85","velocity":0.07874015748031496,"duration":"0.03"},{"name":"G6","midi":91,"time":"318.88","velocity":0.07874015748031496,"duration":"0.05"},{"name":"G7","midi":103,"time":"318.90","velocity":0.23622047244094488,"duration":"0.08"},{"name":"E2","midi":40,"time":"318.91","velocity":0.5511811023622047,"duration":"0.03"},{"name":"C#5","midi":73,"time":"318.92","velocity":0.31496062992125984,"duration":"0.29"},{"name":"C7","midi":96,"time":"318.92","velocity":0.15748031496062992,"duration":"0.06"},{"name":"F7","midi":101,"time":"318.92","velocity":0.2125984251968504,"duration":"0.23"},{"name":"D3","midi":50,"time":"318.93","velocity":0.5905511811023622,"duration":"0.36"},{"name":"A3","midi":57,"time":"318.93","velocity":0.48031496062992124,"duration":"0.33"},{"name":"C6","midi":84,"time":"318.93","velocity":0.14173228346456693,"duration":"0.06"},{"name":"G#5","midi":80,"time":"318.94","velocity":0.25196850393700787,"duration":"0.20"},{"name":"F6","midi":89,"time":"318.94","velocity":0.16535433070866143,"duration":"0.03"},{"name":"E2","midi":40,"time":"318.95","velocity":0.25196850393700787,"duration":"0.02"},{"name":"G6","midi":91,"time":"318.98","velocity":0.14173228346456693,"duration":"0.03"},{"name":"A6","midi":93,"time":"318.99","velocity":0.14960629921259844,"duration":"0.05"},{"name":"D#2","midi":39,"time":"319.00","velocity":0.29133858267716534,"duration":"0.02"},{"name":"B4","midi":71,"time":"319.00","velocity":0.28346456692913385,"duration":"0.16"},{"name":"D2","midi":38,"time":"319.02","velocity":0.36220472440944884,"duration":"0.21"},{"name":"D#6","midi":87,"time":"319.03","velocity":0.10236220472440945,"duration":"0.07"},{"name":"G7","midi":103,"time":"319.03","velocity":0.16535433070866143,"duration":"0.05"},{"name":"D6","midi":86,"time":"319.05","velocity":0.2283464566929134,"duration":"0.08"},{"name":"A#6","midi":94,"time":"319.08","velocity":0.18110236220472442,"duration":"0.08"},{"name":"C7","midi":96,"time":"319.09","velocity":0.11023622047244094,"duration":"0.05"},{"name":"G6","midi":91,"time":"319.10","velocity":0.07874015748031496,"duration":"0.03"},{"name":"G7","midi":103,"time":"319.10","velocity":0.16535433070866143,"duration":"0.10"},{"name":"A5","midi":81,"time":"319.13","velocity":0.2047244094488189,"duration":"0.12"},{"name":"D7","midi":98,"time":"319.14","velocity":0.09448818897637795,"duration":"0.09"},{"name":"E4","midi":64,"time":"319.16","velocity":0.33858267716535434,"duration":"0.02"},{"name":"D#6","midi":87,"time":"319.16","velocity":0.07874015748031496,"duration":"0.03"},{"name":"F6","midi":89,"time":"319.16","velocity":0.12598425196850394,"duration":"0.05"},{"name":"F#4","midi":66,"time":"319.20","velocity":0.5669291338582677,"duration":"0.10"},{"name":"D5","midi":74,"time":"319.20","velocity":0.2125984251968504,"duration":"0.05"},{"name":"A#5","midi":82,"time":"319.20","velocity":0.31496062992125984,"duration":"0.10"},{"name":"B4","midi":71,"time":"319.21","velocity":0.36220472440944884,"duration":"0.08"},{"name":"B6","midi":95,"time":"319.22","velocity":0.2677165354330709,"duration":"0.34"},{"name":"C#2","midi":37,"time":"319.23","velocity":0.33858267716535434,"duration":"0.02"},{"name":"F6","midi":89,"time":"319.24","velocity":0.25984251968503935,"duration":"0.06"},{"name":"E7","midi":100,"time":"319.24","velocity":0.25984251968503935,"duration":"0.57"},{"name":"D#7","midi":99,"time":"319.26","velocity":0.2755905511811024,"duration":"0.26"},{"name":"G7","midi":103,"time":"319.26","velocity":0.1889763779527559,"duration":"0.08"},{"name":"G#5","midi":80,"time":"319.27","velocity":0.28346456692913385,"duration":"0.02"},{"name":"D6","midi":86,"time":"319.27","velocity":0.25984251968503935,"duration":"0.07"},{"name":"G6","midi":91,"time":"319.27","velocity":0.3464566929133858,"duration":"0.05"},{"name":"A6","midi":93,"time":"319.27","velocity":0.2204724409448819,"duration":"0.03"},{"name":"C7","midi":96,"time":"319.27","velocity":0.2440944881889764,"duration":"0.16"},{"name":"G3","midi":55,"time":"319.28","velocity":0.4409448818897638,"duration":"0.03"},{"name":"E5","midi":76,"time":"319.28","velocity":0.4645669291338583,"duration":"0.02"},{"name":"C6","midi":84,"time":"319.28","velocity":0.3464566929133858,"duration":"0.02"},{"name":"D7","midi":98,"time":"319.28","velocity":0.28346456692913385,"duration":"0.36"},{"name":"G#4","midi":68,"time":"319.29","velocity":0.5590551181102362,"duration":"0.02"},{"name":"D#5","midi":75,"time":"319.29","velocity":0.3858267716535433,"duration":"0.06"},{"name":"A5","midi":81,"time":"319.29","velocity":0.31496062992125984,"duration":"0.10"},{"name":"D3","midi":50,"time":"319.30","velocity":0.5905511811023622,"duration":"0.35"},{"name":"C#4","midi":61,"time":"319.30","velocity":0.48031496062992124,"duration":"0.02"},{"name":"A4","midi":69,"time":"319.30","velocity":0.5433070866141733,"duration":"0.15"},{"name":"C5","midi":72,"time":"319.30","velocity":0.4409448818897638,"duration":"0.03"},{"name":"B5","midi":83,"time":"319.30","velocity":0.30708661417322836,"duration":"0.05"},{"name":"E6","midi":88,"time":"319.30","velocity":0.36220472440944884,"duration":"0.76"},{"name":"G#6","midi":92,"time":"319.30","velocity":0.2755905511811024,"duration":"0.57"},{"name":"G#3","midi":56,"time":"319.31","velocity":0.3858267716535433,"duration":"0.02"},{"name":"E5","midi":76,"time":"319.31","velocity":0.33858267716535434,"duration":"0.02"},{"name":"D#2","midi":39,"time":"319.33","velocity":0.2992125984251969,"duration":"0.03"},{"name":"F4","midi":65,"time":"319.33","velocity":0.4094488188976378,"duration":"0.02"},{"name":"B4","midi":71,"time":"319.33","velocity":0.3464566929133858,"duration":"0.09"},{"name":"A#3","midi":58,"time":"319.34","velocity":0.4015748031496063,"duration":"0.03"},{"name":"F#5","midi":78,"time":"319.34","velocity":0.33070866141732286,"duration":"0.03"},{"name":"A#5","midi":82,"time":"319.34","velocity":0.25196850393700787,"duration":"0.03"},{"name":"F6","midi":89,"time":"319.34","velocity":0.2204724409448819,"duration":"0.10"},{"name":"F#4","midi":66,"time":"319.35","velocity":0.3700787401574803,"duration":"0.02"},{"name":"E5","midi":76,"time":"319.35","velocity":0.3543307086614173,"duration":"0.35"},{"name":"C6","midi":84,"time":"319.35","velocity":0.2992125984251969,"duration":"0.03"},{"name":"D6","midi":86,"time":"319.35","velocity":0.3228346456692913,"duration":"0.07"},{"name":"C#6","midi":85,"time":"319.36","velocity":0.4015748031496063,"duration":"0.10"},{"name":"F4","midi":65,"time":"319.37","velocity":0.4330708661417323,"duration":"0.02"},{"name":"G6","midi":91,"time":"319.37","velocity":0.1732283464566929,"duration":"0.16"},{"name":"D2","midi":38,"time":"319.38","velocity":0.4645669291338583,"duration":"0.28"},{"name":"G#5","midi":80,"time":"319.38","velocity":0.2047244094488189,"duration":"0.07"},{"name":"A#5","midi":82,"time":"319.38","velocity":0.28346456692913385,"duration":"0.06"},{"name":"A3","midi":57,"time":"319.40","velocity":0.41732283464566927,"duration":"0.05"},{"name":"F#4","midi":66,"time":"319.40","velocity":0.4409448818897638,"duration":"0.06"},{"name":"C#5","midi":73,"time":"319.40","velocity":0.2283464566929134,"duration":"0.07"},{"name":"C6","midi":84,"time":"319.40","velocity":0.25984251968503935,"duration":"0.13"},{"name":"B5","midi":83,"time":"319.44","velocity":0.33070866141732286,"duration":"0.31"},{"name":"D6","midi":86,"time":"319.45","velocity":0.30708661417322836,"duration":"0.10"},{"name":"A3","midi":57,"time":"319.47","velocity":0.4566929133858268,"duration":"0.07"},{"name":"F#4","midi":66,"time":"319.47","velocity":0.3858267716535433,"duration":"0.02"},{"name":"D#6","midi":87,"time":"319.47","velocity":0.13385826771653545,"duration":"0.07"},{"name":"F6","midi":89,"time":"319.47","velocity":0.14960629921259844,"duration":"0.15"},{"name":"C#5","midi":73,"time":"319.48","velocity":0.2440944881889764,"duration":"0.02"},{"name":"F#5","midi":78,"time":"319.50","velocity":0.49606299212598426,"duration":"0.55"},{"name":"B4","midi":71,"time":"319.52","velocity":0.1889763779527559,"duration":"0.06"},{"name":"C#6","midi":85,"time":"319.52","velocity":0.33070866141732286,"duration":"0.07"},{"name":"C#5","midi":73,"time":"319.53","velocity":0.3228346456692913,"duration":"0.22"},{"name":"A3","midi":57,"time":"319.55","velocity":0.4645669291338583,"duration":"0.07"},{"name":"G6","midi":91,"time":"319.56","velocity":0.18110236220472442,"duration":"0.05"},{"name":"D6","midi":86,"time":"319.57","velocity":0.33070866141732286,"duration":"0.10"},{"name":"A#5","midi":82,"time":"319.58","velocity":0.2283464566929134,"duration":"0.08"},{"name":"F#4","midi":66,"time":"319.59","velocity":0.5354330708661418,"duration":"0.12"},{"name":"B4","midi":71,"time":"319.59","velocity":0.33070866141732286,"duration":"0.05"},{"name":"G#5","midi":80,"time":"319.59","velocity":0.30708661417322836,"duration":"0.12"},{"name":"A4","midi":69,"time":"319.62","velocity":0.33858267716535434,"duration":"0.40"},{"name":"G7","midi":103,"time":"319.62","velocity":0.16535433070866143,"duration":"0.14"},{"name":"F7","midi":101,"time":"319.64","velocity":0.1732283464566929,"duration":"0.14"},{"name":"D#3","midi":51,"time":"319.65","velocity":0.5196850393700787,"duration":"0.01"},{"name":"A#3","midi":58,"time":"319.65","velocity":0.41732283464566927,"duration":"0.03"},{"name":"B4","midi":71,"time":"319.65","velocity":0.31496062992125984,"duration":"0.07"},{"name":"C7","midi":96,"time":"319.65","velocity":0.2047244094488189,"duration":"0.10"},{"name":"E2","midi":40,"time":"319.66","velocity":0.5354330708661418,"duration":"0.03"},{"name":"C#6","midi":85,"time":"319.66","velocity":0.3543307086614173,"duration":"0.10"},{"name":"F3","midi":53,"time":"319.67","velocity":0.5196850393700787,"duration":"0.01"},{"name":"D#7","midi":99,"time":"319.67","velocity":0.2125984251968504,"duration":"0.23"},{"name":"D3","midi":50,"time":"319.69","velocity":0.6062992125984252,"duration":"0.34"},{"name":"A3","midi":57,"time":"319.69","velocity":0.47244094488188976,"duration":"0.06"},{"name":"F6","midi":89,"time":"319.69","velocity":0.1732283464566929,"duration":"0.10"},{"name":"D6","midi":86,"time":"319.70","velocity":0.30708661417322836,"duration":"0.05"},{"name":"A#6","midi":94,"time":"319.70","velocity":0.2125984251968504,"duration":"0.34"},{"name":"C#2","midi":37,"time":"319.71","velocity":0.25984251968503935,"duration":"0.03"},{"name":"A#5","midi":82,"time":"319.71","velocity":0.2204724409448819,"duration":"0.03"},{"name":"E4","midi":64,"time":"319.72","velocity":0.31496062992125984,"duration":"0.06"},{"name":"E5","midi":76,"time":"319.73","velocity":0.41732283464566927,"duration":"1.05"},{"name":"B4","midi":71,"time":"319.74","velocity":0.31496062992125984,"duration":"0.27"},{"name":"G#5","midi":80,"time":"319.74","velocity":0.11023622047244094,"duration":"0.06"},{"name":"C6","midi":84,"time":"319.74","velocity":0.14960629921259844,"duration":"0.03"},{"name":"A3","midi":57,"time":"319.76","velocity":0.4409448818897638,"duration":"0.05"},{"name":"D6","midi":86,"time":"319.76","velocity":0.23622047244094488,"duration":"0.06"},{"name":"F#4","midi":66,"time":"319.77","velocity":0.5669291338582677,"duration":"0.63"},{"name":"C#5","midi":73,"time":"319.77","velocity":0.2440944881889764,"duration":"0.06"},{"name":"B5","midi":83,"time":"319.78","velocity":0.36220472440944884,"duration":"0.27"},{"name":"C#6","midi":85,"time":"319.78","velocity":0.3543307086614173,"duration":"0.22"},{"name":"D2","midi":38,"time":"319.81","velocity":0.25984251968503935,"duration":"0.02"},{"name":"A3","midi":57,"time":"319.81","velocity":0.4251968503937008,"duration":"0.05"},{"name":"G#5","midi":80,"time":"319.81","velocity":0.2204724409448819,"duration":"0.03"},{"name":"F6","midi":89,"time":"319.84","velocity":0.12598425196850394,"duration":"0.06"},{"name":"C7","midi":96,"time":"319.84","velocity":0.14173228346456693,"duration":"0.10"},{"name":"G7","midi":103,"time":"319.84","velocity":0.15748031496062992,"duration":"0.09"},{"name":"D2","midi":38,"time":"319.85","velocity":0.2677165354330709,"duration":"0.05"},{"name":"D7","midi":98,"time":"319.85","velocity":0.2283464566929134,"duration":"0.30"},{"name":"E4","midi":64,"time":"319.86","velocity":0.3464566929133858,"duration":"0.02"},{"name":"G#5","midi":80,"time":"319.86","velocity":0.25196850393700787,"duration":"0.15"},{"name":"A3","midi":57,"time":"319.88","velocity":0.4645669291338583,"duration":"0.10"},{"name":"G#6","midi":92,"time":"319.88","velocity":0.28346456692913385,"duration":"0.30"},{"name":"C#5","midi":73,"time":"319.90","velocity":0.28346456692913385,"duration":"0.12"},{"name":"F7","midi":101,"time":"319.90","velocity":0.14960629921259844,"duration":"0.09"},{"name":"D2","midi":38,"time":"319.91","velocity":0.25984251968503935,"duration":"0.02"},{"name":"D#7","midi":99,"time":"319.92","velocity":0.2047244094488189,"duration":"0.30"},{"name":"E4","midi":64,"time":"319.93","velocity":0.3700787401574803,"duration":"0.03"},{"name":"D2","midi":38,"time":"319.94","velocity":0.2992125984251969,"duration":"0.05"},{"name":"G6","midi":91,"time":"319.94","velocity":0.18110236220472442,"duration":"0.07"},{"name":"A#5","midi":82,"time":"319.97","velocity":0.25984251968503935,"duration":"0.07"},{"name":"D6","midi":86,"time":"319.97","velocity":0.3228346456692913,"duration":"0.07"},{"name":"G7","midi":103,"time":"319.97","velocity":0.1968503937007874,"duration":"0.06"},{"name":"D#6","midi":87,"time":"319.99","velocity":0.2047244094488189,"duration":"0.06"},{"name":"C2","midi":36,"time":"320.00","velocity":0.5984251968503937,"duration":"0.02"},{"name":"F7","midi":101,"time":"320.00","velocity":0.1968503937007874,"duration":"0.20"},{"name":"D5","midi":74,"time":"320.01","velocity":0.2992125984251969,"duration":"0.07"},{"name":"E2","midi":40,"time":"320.02","velocity":0.6692913385826772,"duration":"0.01"},{"name":"F3","midi":53,"time":"320.02","velocity":0.5590551181102362,"duration":"0.01"},{"name":"A4","midi":69,"time":"320.02","velocity":0.3228346456692913,"duration":"0.03"},{"name":"C7","midi":96,"time":"320.02","velocity":0.14173228346456693,"duration":"0.03"},{"name":"F2","midi":41,"time":"320.03","velocity":0.6377952755905512,"duration":"0.02"},{"name":"D#3","midi":51,"time":"320.03","velocity":0.5826771653543307,"duration":"0.01"},{"name":"C#6","midi":85,"time":"320.03","velocity":0.2440944881889764,"duration":"0.02"},{"name":"A#5","midi":82,"time":"320.05","velocity":0.23622047244094488,"duration":"0.03"},{"name":"C6","midi":84,"time":"320.05","velocity":0.2677165354330709,"duration":"0.09"},{"name":"C5","midi":72,"time":"320.06","velocity":0.2440944881889764,"duration":"0.03"},{"name":"B5","midi":83,"time":"320.06","velocity":0.4251968503937008,"duration":"0.57"},{"name":"F6","midi":89,"time":"320.06","velocity":0.09448818897637795,"duration":"0.05"},{"name":"A6","midi":93,"time":"320.06","velocity":0.16535433070866143,"duration":"0.29"},{"name":"G7","midi":103,"time":"320.06","velocity":0.1968503937007874,"duration":"0.10"},{"name":"B1","midi":35,"time":"320.07","velocity":0.5433070866141733,"duration":"0.01"},{"name":"D3","midi":50,"time":"320.07","velocity":0.5590551181102362,"duration":"0.01"},{"name":"A4","midi":69,"time":"320.07","velocity":0.31496062992125984,"duration":"0.22"},{"name":"G#5","midi":80,"time":"320.07","velocity":0.2125984251968504,"duration":"0.07"},{"name":"C2","midi":36,"time":"320.08","velocity":0.5118110236220472,"duration":"0.01"},{"name":"C#3","midi":49,"time":"320.08","velocity":0.5984251968503937,"duration":"0.01"},{"name":"D3","midi":50,"time":"320.09","velocity":0.5905511811023622,"duration":"0.29"},{"name":"A3","midi":57,"time":"320.09","velocity":0.3543307086614173,"duration":"0.03"},{"name":"B4","midi":71,"time":"320.09","velocity":0.3543307086614173,"duration":"0.13"},{"name":"A#1","midi":34,"time":"320.12","velocity":0.31496062992125984,"duration":"0.02"},{"name":"C#5","midi":73,"time":"320.12","velocity":0.18110236220472442,"duration":"0.03"},{"name":"A#5","midi":82,"time":"320.12","velocity":0.2992125984251969,"duration":"0.12"},{"name":"A3","midi":57,"time":"320.14","velocity":0.4409448818897638,"duration":"0.24"},{"name":"C#6","midi":85,"time":"320.14","velocity":0.23622047244094488,"duration":"0.08"},{"name":"D#6","midi":87,"time":"320.14","velocity":0.12598425196850394,"duration":"0.17"},{"name":"B1","midi":35,"time":"320.16","velocity":0.29133858267716534,"duration":"0.02"},{"name":"G#5","midi":80,"time":"320.16","velocity":0.2755905511811024,"duration":"0.05"},{"name":"D5","midi":74,"time":"320.19","velocity":0.31496062992125984,"duration":"0.30"},{"name":"G7","midi":103,"time":"320.19","velocity":0.1732283464566929,"duration":"0.12"},{"name":"C5","midi":72,"time":"320.22","velocity":0.2125984251968504,"duration":"0.03"},{"name":"A#5","midi":82,"time":"320.24","velocity":0.25196850393700787,"duration":"0.02"},{"name":"D#7","midi":99,"time":"320.24","velocity":0.12598425196850394,"duration":"0.05"},{"name":"B4","midi":71,"time":"320.26","velocity":0.4566929133858268,"duration":"0.33"},{"name":"C6","midi":84,"time":"320.26","velocity":0.25984251968503935,"duration":"0.06"},{"name":"E2","midi":40,"time":"320.28","velocity":0.2755905511811024,"duration":"0.02"},{"name":"G#5","midi":80,"time":"320.28","velocity":0.1889763779527559,"duration":"0.12"},{"name":"A#5","midi":82,"time":"320.33","velocity":0.23622047244094488,"duration":"0.02"},{"name":"C#6","midi":85,"time":"320.33","velocity":0.23622047244094488,"duration":"0.12"},{"name":"D#7","midi":99,"time":"320.33","velocity":0.12598425196850394,"duration":"0.09"},{"name":"C2","midi":36,"time":"320.34","velocity":0.33070866141732286,"duration":"0.03"},{"name":"A5","midi":81,"time":"320.34","velocity":0.2992125984251969,"duration":"0.09"},{"name":"D#6","midi":87,"time":"320.34","velocity":0.2283464566929134,"duration":"0.14"},{"name":"E7","midi":100,"time":"320.34","velocity":0.30708661417322836,"duration":"3.72"},{"name":"A#5","midi":82,"time":"320.36","velocity":0.2440944881889764,"duration":"0.02"},{"name":"G#6","midi":92,"time":"320.37","velocity":0.2283464566929134,"duration":"0.07"},{"name":"D#2","midi":39,"time":"320.38","velocity":0.6377952755905512,"duration":"0.02"},{"name":"A#3","midi":58,"time":"320.38","velocity":0.2677165354330709,"duration":"0.02"},{"name":"F6","midi":89,"time":"320.38","velocity":0.08661417322834646,"duration":"0.05"},{"name":"G6","midi":91,"time":"320.38","velocity":0.1732283464566929,"duration":"0.10"},{"name":"F7","midi":101,"time":"320.38","velocity":0.2440944881889764,"duration":"0.21"},{"name":"E3","midi":52,"time":"320.40","velocity":0.5826771653543307,"duration":"0.01"},{"name":"F4","midi":65,"time":"320.40","velocity":0.44881889763779526,"duration":"0.03"},{"name":"D7","midi":98,"time":"320.40","velocity":0.1968503937007874,"duration":"0.09"},{"name":"G7","midi":103,"time":"320.40","velocity":0.1889763779527559,"duration":"0.19"},{"name":"E2","midi":40,"time":"320.41","velocity":0.6535433070866141,"duration":"0.01"},{"name":"D#3","midi":51,"time":"320.41","velocity":0.6141732283464567,"duration":"0.01"},{"name":"D4","midi":62,"time":"320.41","velocity":0.33858267716535434,"duration":"0.02"},{"name":"G#4","midi":68,"time":"320.41","velocity":0.25984251968503935,"duration":"0.03"},{"name":"D2","midi":38,"time":"320.42","velocity":0.5748031496062992,"duration":"0.01"},{"name":"E3","midi":52,"time":"320.42","velocity":0.5826771653543307,"duration":"0.01"},{"name":"C6","midi":84,"time":"320.42","velocity":0.23622047244094488,"duration":"0.05"},{"name":"G1","midi":31,"time":"320.43","velocity":0.5905511811023622,"duration":"0.01"},{"name":"F3","midi":53,"time":"320.43","velocity":0.5118110236220472,"duration":"0.01"},{"name":"A4","midi":69,"time":"320.43","velocity":0.3543307086614173,"duration":"0.07"},{"name":"A#5","midi":82,"time":"320.43","velocity":0.2125984251968504,"duration":"0.03"},{"name":"F1","midi":29,"time":"320.44","velocity":0.6299212598425197,"duration":"0.02"},{"name":"E3","midi":52,"time":"320.44","velocity":0.48031496062992124,"duration":"0.02"},{"name":"A#3","midi":58,"time":"320.44","velocity":0.30708661417322836,"duration":"0.03"},{"name":"D#3","midi":51,"time":"320.47","velocity":0.5511811023622047,"duration":"0.02"},{"name":"C#6","midi":85,"time":"320.47","velocity":0.1732283464566929,"duration":"0.17"},{"name":"F6","midi":89,"time":"320.47","velocity":0.07086614173228346,"duration":"0.03"},{"name":"D4","midi":62,"time":"320.48","velocity":0.3779527559055118,"duration":"0.02"},{"name":"F#2","midi":42,"time":"320.49","velocity":0.4566929133858268,"duration":"0.02"},{"name":"E3","midi":52,"time":"320.49","velocity":0.5039370078740157,"duration":"0.05"},{"name":"C#5","midi":73,"time":"320.49","velocity":0.28346456692913385,"duration":"0.03"},{"name":"G#6","midi":92,"time":"320.49","velocity":0.2125984251968504,"duration":"0.20"},{"name":"B3","midi":59,"time":"320.50","velocity":0.29133858267716534,"duration":"0.03"},{"name":"D7","midi":98,"time":"320.50","velocity":0.25984251968503935,"duration":"1.19"},{"name":"D6","midi":86,"time":"320.51","velocity":0.29133858267716534,"duration":"0.48"},{"name":"A4","midi":69,"time":"320.52","velocity":0.30708661417322836,"duration":"0.05"},{"name":"G#5","midi":80,"time":"320.52","velocity":0.15748031496062992,"duration":"0.07"},{"name":"F6","midi":89,"time":"320.52","velocity":0.10236220472440945,"duration":"0.05"},{"name":"D#3","midi":51,"time":"320.53","velocity":0.5039370078740157,"duration":"0.02"},{"name":"C#5","midi":73,"time":"320.53","velocity":0.2125984251968504,"duration":"0.05"},{"name":"D#2","midi":39,"time":"320.55","velocity":0.4330708661417323,"duration":"0.02"},{"name":"B3","midi":59,"time":"320.55","velocity":0.30708661417322836,"duration":"0.10"},{"name":"E3","midi":52,"time":"320.56","velocity":0.5275590551181102,"duration":"0.02"},{"name":"D#7","midi":99,"time":"320.57","velocity":0.2440944881889764,"duration":"0.34"},{"name":"D#3","midi":51,"time":"320.58","velocity":0.5275590551181102,"duration":"0.02"},{"name":"A4","midi":69,"time":"320.58","velocity":0.2440944881889764,"duration":"0.08"},{"name":"D4","midi":62,"time":"320.59","velocity":0.30708661417322836,"duration":"0.03"},{"name":"B4","midi":71,"time":"320.59","velocity":0.3543307086614173,"duration":"0.05"},{"name":"D#6","midi":87,"time":"320.59","velocity":0.18110236220472442,"duration":"0.05"},{"name":"G6","midi":91,"time":"320.59","velocity":0.13385826771653545,"duration":"0.06"},{"name":"E2","midi":40,"time":"320.60","velocity":0.47244094488188976,"duration":"0.08"},{"name":"E3","midi":52,"time":"320.60","velocity":0.5511811023622047,"duration":"0.13"},{"name":"C7","midi":96,"time":"320.60","velocity":0.2047244094488189,"duration":"0.31"},{"name":"A#6","midi":94,"time":"320.63","velocity":0.11811023622047244,"duration":"0.03"},{"name":"D4","midi":62,"time":"320.64","velocity":0.28346456692913385,"duration":"0.10"},{"name":"G#5","midi":80,"time":"320.64","velocity":0.14173228346456693,"duration":"0.03"},{"name":"B5","midi":83,"time":"320.64","velocity":0.49606299212598426,"duration":"0.17"},{"name":"B4","midi":71,"time":"320.65","velocity":0.5354330708661418,"duration":"0.14"},{"name":"D#6","midi":87,"time":"320.65","velocity":0.11023622047244094,"duration":"0.03"},{"name":"G7","midi":103,"time":"320.67","velocity":0.11023622047244094,"duration":"0.05"},{"name":"E2","midi":40,"time":"320.70","velocity":0.5039370078740157,"duration":"0.06"},{"name":"G#6","midi":92,"time":"320.72","velocity":0.3228346456692913,"duration":"1.14"},{"name":"A4","midi":69,"time":"320.73","velocity":0.4566929133858268,"duration":"0.05"},{"name":"C6","midi":84,"time":"320.74","velocity":0.23622047244094488,"duration":"0.03"},{"name":"F2","midi":41,"time":"320.76","velocity":0.5275590551181102,"duration":"0.01"},{"name":"D#4","midi":63,"time":"320.76","velocity":0.5039370078740157,"duration":"0.02"},{"name":"C#5","midi":73,"time":"320.76","velocity":0.4015748031496063,"duration":"0.03"},{"name":"G7","midi":103,"time":"320.76","velocity":0.23622047244094488,"duration":"0.14"},{"name":"F#2","midi":42,"time":"320.77","velocity":0.5433070866141733,"duration":"0.01"},{"name":"G#5","midi":80,"time":"320.77","velocity":0.3779527559055118,"duration":"0.06"},{"name":"F7","midi":101,"time":"320.77","velocity":0.2440944881889764,"duration":"0.27"},{"name":"D4","midi":62,"time":"320.78","velocity":0.5196850393700787,"duration":"0.02"},{"name":"G#4","midi":68,"time":"320.78","velocity":0.5275590551181102,"duration":"0.01"},{"name":"D#5","midi":75,"time":"320.78","velocity":0.36220472440944884,"duration":"0.05"},{"name":"A#6","midi":94,"time":"320.78","velocity":0.2125984251968504,"duration":"0.09"},{"name":"F3","midi":53,"time":"320.79","velocity":0.5669291338582677,"duration":"0.02"},{"name":"F#4","midi":66,"time":"320.79","velocity":0.4251968503937008,"duration":"0.02"},{"name":"A4","midi":69,"time":"320.79","velocity":0.5590551181102362,"duration":"0.01"},{"name":"A#5","midi":82,"time":"320.79","velocity":0.28346456692913385,"duration":"0.03"},{"name":"C6","midi":84,"time":"320.79","velocity":0.2992125984251969,"duration":"0.05"},{"name":"F6","midi":89,"time":"320.79","velocity":0.2755905511811024,"duration":"0.03"},{"name":"G6","midi":91,"time":"320.79","velocity":0.28346456692913385,"duration":"0.08"},{"name":"D5","midi":74,"time":"320.80","velocity":0.28346456692913385,"duration":"0.09"},{"name":"E2","midi":40,"time":"320.81","velocity":0.4645669291338583,"duration":"0.30"},{"name":"E3","midi":52,"time":"320.81","velocity":0.5354330708661418,"duration":"0.05"},{"name":"F4","midi":65,"time":"320.81","velocity":0.41732283464566927,"duration":"0.02"},{"name":"B4","midi":71,"time":"320.81","velocity":0.3779527559055118,"duration":"0.02"},{"name":"G5","midi":79,"time":"320.81","velocity":0.2440944881889764,"duration":"0.02"},{"name":"C#6","midi":85,"time":"320.81","velocity":0.1889763779527559,"duration":"0.06"},{"name":"A6","midi":93,"time":"320.81","velocity":0.23622047244094488,"duration":"0.26"},{"name":"A5","midi":81,"time":"320.83","velocity":0.2992125984251969,"duration":"0.02"},{"name":"B5","midi":83,"time":"320.83","velocity":0.48031496062992124,"duration":"0.98"},{"name":"D#6","midi":87,"time":"320.83","velocity":0.16535433070866143,"duration":"0.03"},{"name":"F#4","midi":66,"time":"320.84","velocity":0.3464566929133858,"duration":"0.02"},{"name":"A#5","midi":82,"time":"320.84","velocity":0.2440944881889764,"duration":"0.07"},{"name":"F6","midi":89,"time":"320.84","velocity":0.14173228346456693,"duration":"0.05"},{"name":"A3","midi":57,"time":"320.85","velocity":0.25196850393700787,"duration":"0.02"},{"name":"B4","midi":71,"time":"320.85","velocity":0.48031496062992124,"duration":"0.53"},{"name":"G#5","midi":80,"time":"320.85","velocity":0.2992125984251969,"duration":"0.13"},{"name":"C6","midi":84,"time":"320.85","velocity":0.11811023622047244,"duration":"0.03"},{"name":"A4","midi":69,"time":"320.86","velocity":0.3858267716535433,"duration":"0.02"},{"name":"E5","midi":76,"time":"320.86","velocity":0.4251968503937008,"duration":"0.72"},{"name":"E3","midi":52,"time":"320.87","velocity":0.5905511811023622,"duration":"0.26"},{"name":"A#3","midi":58,"time":"320.88","velocity":0.41732283464566927,"duration":"0.05"},{"name":"F5","midi":77,"time":"320.88","velocity":0.2755905511811024,"duration":"0.02"},{"name":"C6","midi":84,"time":"320.90","velocity":0.2283464566929134,"duration":"0.03"},{"name":"D4","midi":62,"time":"320.91","velocity":0.36220472440944884,"duration":"0.07"},{"name":"F#5","midi":78,"time":"320.91","velocity":0.4251968503937008,"duration":"0.20"},{"name":"D#7","midi":99,"time":"320.92","velocity":0.2125984251968504,"duration":"0.66"},{"name":"A5","midi":81,"time":"320.93","velocity":0.29133858267716534,"duration":"0.20"},{"name":"F6","midi":89,"time":"320.93","velocity":0.18110236220472442,"duration":"0.08"},{"name":"G7","midi":103,"time":"320.93","velocity":0.11811023622047244,"duration":"0.03"},{"name":"A#3","midi":58,"time":"320.97","velocity":0.4330708661417323,"duration":"0.10"},{"name":"C#6","midi":85,"time":"320.97","velocity":0.2204724409448819,"duration":"0.08"},{"name":"D#6","midi":87,"time":"320.97","velocity":0.14173228346456693,"duration":"0.15"},{"name":"A4","midi":69,"time":"320.98","velocity":0.25196850393700787,"duration":"0.02"},{"name":"C#5","midi":73,"time":"320.99","velocity":0.3228346456692913,"duration":"0.02"},{"name":"C7","midi":96,"time":"321.00","velocity":0.13385826771653545,"duration":"0.06"},{"name":"A4","midi":69,"time":"321.01","velocity":0.3228346456692913,"duration":"0.05"},{"name":"D5","midi":74,"time":"321.01","velocity":0.33070866141732286,"duration":"0.06"},{"name":"F#4","midi":66,"time":"321.02","velocity":0.2755905511811024,"duration":"0.03"},{"name":"G#5","midi":80,"time":"321.02","velocity":0.15748031496062992,"duration":"0.05"},{"name":"A#5","midi":82,"time":"321.02","velocity":0.2125984251968504,"duration":"0.05"},{"name":"D4","midi":62,"time":"321.06","velocity":0.3228346456692913,"duration":"0.05"},{"name":"C#5","midi":73,"time":"321.07","velocity":0.2283464566929134,"duration":"0.02"},{"name":"A4","midi":69,"time":"321.08","velocity":0.25196850393700787,"duration":"0.06"},{"name":"A6","midi":93,"time":"321.09","velocity":0.31496062992125984,"duration":"1.13"},{"name":"A#3","midi":58,"time":"321.10","velocity":0.41732283464566927,"duration":"0.02"},{"name":"C#6","midi":85,"time":"321.10","velocity":0.14173228346456693,"duration":"0.06"},{"name":"A#6","midi":94,"time":"321.10","velocity":0.15748031496062992,"duration":"0.03"},{"name":"G7","midi":103,"time":"321.10","velocity":0.25984251968503935,"duration":"0.09"},{"name":"C#5","midi":73,"time":"321.12","velocity":0.13385826771653545,"duration":"0.05"},{"name":"C7","midi":96,"time":"321.12","velocity":0.07086614173228346,"duration":"0.03"},{"name":"A3","midi":57,"time":"321.13","velocity":0.4566929133858268,"duration":"0.02"},{"name":"F#5","midi":78,"time":"321.13","velocity":0.25196850393700787,"duration":"0.05"},{"name":"G6","midi":91,"time":"321.13","velocity":0.16535433070866143,"duration":"0.06"},{"name":"F7","midi":101,"time":"321.13","velocity":0.11811023622047244,"duration":"0.10"},{"name":"G#4","midi":68,"time":"321.14","velocity":0.2283464566929134,"duration":"0.05"},{"name":"E3","midi":52,"time":"321.15","velocity":0.5905511811023622,"duration":"0.24"},{"name":"A#3","midi":58,"time":"321.15","velocity":0.4094488188976378,"duration":"0.02"},{"name":"G#5","midi":80,"time":"321.15","velocity":0.28346456692913385,"duration":"0.38"},{"name":"A#6","midi":94,"time":"321.15","velocity":0.13385826771653545,"duration":"0.05"},{"name":"G5","midi":79,"time":"321.16","velocity":0.2992125984251969,"duration":"0.09"},{"name":"A5","midi":81,"time":"321.16","velocity":0.2440944881889764,"duration":"0.14"},{"name":"D#6","midi":87,"time":"321.16","velocity":0.2440944881889764,"duration":"0.07"},{"name":"F2","midi":41,"time":"321.17","velocity":0.4409448818897638,"duration":"0.02"},{"name":"C#6","midi":85,"time":"321.17","velocity":0.1732283464566929,"duration":"0.05"},{"name":"C7","midi":96,"time":"321.17","velocity":0.14173228346456693,"duration":"0.03"},{"name":"F4","midi":65,"time":"321.19","velocity":0.3543307086614173,"duration":"0.02"},{"name":"F6","midi":89,"time":"321.19","velocity":0.13385826771653545,"duration":"0.15"},{"name":"E2","midi":40,"time":"321.20","velocity":0.44881889763779526,"duration":"0.24"},{"name":"C#4","midi":61,"time":"321.20","velocity":0.28346456692913385,"duration":"0.02"},{"name":"D6","midi":86,"time":"321.20","velocity":0.30708661417322836,"duration":"0.09"},{"name":"A4","midi":69,"time":"321.21","velocity":0.29133858267716534,"duration":"0.02"},{"name":"A#6","midi":94,"time":"321.21","velocity":0.23622047244094488,"duration":"0.12"},{"name":"G7","midi":103,"time":"321.21","velocity":0.1732283464566929,"duration":"0.03"},{"name":"C#5","midi":73,"time":"321.22","velocity":0.25196850393700787,"duration":"0.03"},{"name":"A#3","midi":58,"time":"321.23","velocity":0.33858267716535434,"duration":"0.03"},{"name":"A4","midi":69,"time":"321.24","velocity":0.29133858267716534,"duration":"0.03"},{"name":"F#5","midi":78,"time":"321.24","velocity":0.1732283464566929,"duration":"0.05"},{"name":"C#4","midi":61,"time":"321.26","velocity":0.3858267716535433,"duration":"0.09"},{"name":"D5","midi":74,"time":"321.27","velocity":0.13385826771653545,"duration":"0.03"},{"name":"D#6","midi":87,"time":"321.27","velocity":0.15748031496062992,"duration":"0.09"},{"name":"G5","midi":79,"time":"321.28","velocity":0.1968503937007874,"duration":"0.05"},{"name":"C#6","midi":85,"time":"321.28","velocity":0.18110236220472442,"duration":"0.07"},{"name":"G7","midi":103,"time":"321.28","velocity":0.07874015748031496,"duration":"0.03"},{"name":"A4","midi":69,"time":"321.31","velocity":0.28346456692913385,"duration":"0.02"},{"name":"F7","midi":101,"time":"321.31","velocity":0.15748031496062992,"duration":"0.09"},{"name":"C7","midi":96,"time":"321.33","velocity":0.13385826771653545,"duration":"0.03"},{"name":"G#4","midi":68,"time":"321.34","velocity":0.3228346456692913,"duration":"0.03"},{"name":"F#5","midi":78,"time":"321.34","velocity":0.2755905511811024,"duration":"0.14"},{"name":"A#6","midi":94,"time":"321.34","velocity":0.2992125984251969,"duration":"0.10"},{"name":"D6","midi":86,"time":"321.35","velocity":0.3937007874015748,"duration":"0.28"},{"name":"C#7","midi":97,"time":"321.35","velocity":0.2204724409448819,"duration":"0.19"},{"name":"A4","midi":69,"time":"321.37","velocity":0.36220472440944884,"duration":"0.07"},{"name":"C7","midi":96,"time":"321.37","velocity":0.07874015748031496,"duration":"0.08"},{"name":"G7","midi":103,"time":"321.37","velocity":0.14173228346456693,"duration":"0.08"},{"name":"A#3","midi":58,"time":"321.38","velocity":0.2047244094488189,"duration":"0.03"},{"name":"C#4","midi":61,"time":"321.38","velocity":0.28346456692913385,"duration":"0.03"},{"name":"F6","midi":89,"time":"321.38","velocity":0.2204724409448819,"duration":"0.20"},{"name":"G6","midi":91,"time":"321.38","velocity":0.10236220472440945,"duration":"0.03"},{"name":"D#3","midi":51,"time":"321.40","velocity":0.5118110236220472,"duration":"0.05"},{"name":"B4","midi":71,"time":"321.40","velocity":0.3228346456692913,"duration":"0.06"},{"name":"A#5","midi":82,"time":"321.41","velocity":0.23622047244094488,"duration":"0.02"},{"name":"D#6","midi":87,"time":"321.42","velocity":0.25196850393700787,"duration":"0.05"},{"name":"C#4","midi":61,"time":"321.43","velocity":0.31496062992125984,"duration":"0.05"},{"name":"D#2","midi":39,"time":"321.44","velocity":0.4645669291338583,"duration":"0.02"},{"name":"G#3","midi":56,"time":"321.44","velocity":0.3543307086614173,"duration":"0.05"},{"name":"A5","midi":81,"time":"321.44","velocity":0.18110236220472442,"duration":"0.05"},{"name":"C#3","midi":49,"time":"321.45","velocity":0.4015748031496063,"duration":"0.02"},{"name":"A4","midi":69,"time":"321.45","velocity":0.3858267716535433,"duration":"0.03"},{"name":"A#6","midi":94,"time":"321.45","velocity":0.2283464566929134,"duration":"0.06"},{"name":"D2","midi":38,"time":"321.47","velocity":0.5196850393700787,"duration":"0.05"},{"name":"B4","midi":71,"time":"321.47","velocity":0.3464566929133858,"duration":"0.05"},{"name":"A3","midi":57,"time":"321.49","velocity":0.36220472440944884,"duration":"0.02"},{"name":"F4","midi":65,"time":"321.49","velocity":0.25196850393700787,"duration":"0.02"},{"name":"A4","midi":69,"time":"321.50","velocity":0.3858267716535433,"duration":"0.02"},{"name":"G7","midi":103,"time":"321.50","velocity":0.2047244094488189,"duration":"0.16"},{"name":"E2","midi":40,"time":"321.51","velocity":0.5196850393700787,"duration":"0.01"},{"name":"F#3","midi":54,"time":"321.51","velocity":0.5590551181102362,"duration":"0.03"},{"name":"C5","midi":72,"time":"321.51","velocity":0.2204724409448819,"duration":"0.03"},{"name":"G6","midi":91,"time":"321.51","velocity":0.2204724409448819,"duration":"0.20"},{"name":"F7","midi":101,"time":"321.51","velocity":0.2440944881889764,"duration":"0.16"},{"name":"A#4","midi":70,"time":"321.52","velocity":0.3228346456692913,"duration":"0.03"},{"name":"F#5","midi":78,"time":"321.52","velocity":0.3779527559055118,"duration":"0.81"},{"name":"C7","midi":96,"time":"321.52","velocity":0.12598425196850394,"duration":"0.05"},{"name":"C#2","midi":37,"time":"321.53","velocity":0.6220472440944882,"duration":"0.01"},{"name":"D#6","midi":87,"time":"321.53","velocity":0.28346456692913385,"duration":"0.10"},{"name":"A#6","midi":94,"time":"321.53","velocity":0.2125984251968504,"duration":"0.21"},{"name":"E2","midi":40,"time":"321.55","velocity":0.6456692913385826,"duration":"0.01"},{"name":"F3","midi":53,"time":"321.55","velocity":0.5118110236220472,"duration":"0.02"},{"name":"F#4","midi":66,"time":"321.55","velocity":0.3937007874015748,"duration":"0.02"},{"name":"D5","midi":74,"time":"321.55","velocity":0.2677165354330709,"duration":"0.09"},{"name":"C#6","midi":85,"time":"321.55","velocity":0.23622047244094488,"duration":"0.06"},{"name":"F2","midi":41,"time":"321.56","velocity":0.5748031496062992,"duration":"0.01"},{"name":"A4","midi":69,"time":"321.56","velocity":0.3858267716535433,"duration":"0.21"},{"name":"B4","midi":71,"time":"321.56","velocity":0.31496062992125984,"duration":"0.13"},{"name":"A5","midi":81,"time":"321.56","velocity":0.3937007874015748,"duration":"0.12"},{"name":"F#3","midi":54,"time":"321.57","velocity":0.41732283464566927,"duration":"0.05"},{"name":"F4","midi":65,"time":"321.57","velocity":0.23622047244094488,"duration":"0.02"},{"name":"B1","midi":35,"time":"321.58","velocity":0.5511811023622047,"duration":"0.01"},{"name":"A2","midi":45,"time":"321.58","velocity":0.5433070866141733,"duration":"0.01"},{"name":"G#5","midi":80,"time":"321.58","velocity":0.2283464566929134,"duration":"0.07"},{"name":"A#1","midi":34,"time":"321.59","velocity":0.5748031496062992,"duration":"0.01"},{"name":"B2","midi":47,"time":"321.59","velocity":0.5984251968503937,"duration":"0.03"},{"name":"E5","midi":76,"time":"321.59","velocity":0.2677165354330709,"duration":"0.09"},{"name":"C#2","midi":37,"time":"321.60","velocity":0.5433070866141733,"duration":"0.02"},{"name":"C7","midi":96,"time":"321.60","velocity":0.11811023622047244,"duration":"0.09"},{"name":"D4","midi":62,"time":"321.62","velocity":0.23622047244094488,"duration":"0.02"},{"name":"B3","midi":59,"time":"321.63","velocity":0.2992125984251969,"duration":"0.06"},{"name":"B2","midi":47,"time":"321.64","velocity":0.5669291338582677,"duration":"0.24"},{"name":"D6","midi":86,"time":"321.64","velocity":0.2440944881889764,"duration":"0.03"},{"name":"C2","midi":36,"time":"321.65","velocity":0.3543307086614173,"duration":"0.02"},{"name":"F#3","midi":54,"time":"321.65","velocity":0.4094488188976378,"duration":"0.02"},{"name":"C#6","midi":85,"time":"321.65","velocity":0.25984251968503935,"duration":"0.06"},{"name":"C#7","midi":97,"time":"321.65","velocity":0.3228346456692913,"duration":"2.42"},{"name":"D5","midi":74,"time":"321.66","velocity":0.23622047244094488,"duration":"0.10"},{"name":"G#5","midi":80,"time":"321.66","velocity":0.2677165354330709,"duration":"0.05"},{"name":"F#3","midi":54,"time":"321.69","velocity":0.44881889763779526,"duration":"0.13"},{"name":"A5","midi":81,"time":"321.69","velocity":0.4645669291338583,"duration":"0.28"},{"name":"B1","midi":35,"time":"321.70","velocity":0.4330708661417323,"duration":"0.02"},{"name":"D6","midi":86,"time":"321.71","velocity":0.25984251968503935,"duration":"0.05"},{"name":"G6","midi":91,"time":"321.73","velocity":0.11023622047244094,"duration":"0.07"},{"name":"E5","midi":76,"time":"321.74","velocity":0.3464566929133858,"duration":"0.19"},{"name":"C#6","midi":85,"time":"321.74","velocity":0.28346456692913385,"duration":"0.05"},{"name":"G5","midi":79,"time":"321.76","velocity":0.1968503937007874,"duration":"0.06"},{"name":"C7","midi":96,"time":"321.76","velocity":0.10236220472440945,"duration":"0.12"},{"name":"E4","midi":64,"time":"321.77","velocity":0.4251968503937008,"duration":"0.19"},{"name":"D#5","midi":75,"time":"321.77","velocity":0.23622047244094488,"duration":"0.02"},{"name":"A4","midi":69,"time":"321.78","velocity":0.4645669291338583,"duration":"0.40"},{"name":"B4","midi":71,"time":"321.78","velocity":0.2125984251968504,"duration":"0.09"},{"name":"D6","midi":86,"time":"321.78","velocity":0.23622047244094488,"duration":"0.14"},{"name":"A#6","midi":94,"time":"321.78","velocity":0.12598425196850394,"duration":"0.05"},{"name":"D5","midi":74,"time":"321.79","velocity":0.18110236220472442,"duration":"0.12"},{"name":"C6","midi":84,"time":"321.80","velocity":0.2677165354330709,"duration":"0.19"},{"name":"F#3","midi":54,"time":"321.83","velocity":0.44881889763779526,"duration":"0.36"},{"name":"C#6","midi":85,"time":"321.84","velocity":0.29133858267716534,"duration":"0.27"},{"name":"G7","midi":103,"time":"321.84","velocity":0.13385826771653545,"duration":"0.03"},{"name":"G6","midi":91,"time":"321.86","velocity":0.14173228346456693,"duration":"0.05"},{"name":"A#6","midi":94,"time":"321.86","velocity":0.1732283464566929,"duration":"0.08"},{"name":"G#6","midi":92,"time":"321.87","velocity":0.2755905511811024,"duration":"0.19"},{"name":"F#7","midi":102,"time":"321.87","velocity":0.33070866141732286,"duration":"2.97"},{"name":"C3","midi":48,"time":"321.88","velocity":0.5511811023622047,"duration":"0.03"},{"name":"G5","midi":79,"time":"321.90","velocity":0.2755905511811024,"duration":"0.02"},{"name":"B5","midi":83,"time":"321.90","velocity":0.2755905511811024,"duration":"0.06"},{"name":"F7","midi":101,"time":"321.91","velocity":0.12598425196850394,"duration":"0.07"},{"name":"B2","midi":47,"time":"321.92","velocity":0.5826771653543307,"duration":"0.37"},{"name":"D#6","midi":87,"time":"321.92","velocity":0.1732283464566929,"duration":"0.19"},{"name":"B4","midi":71,"time":"321.93","velocity":0.31496062992125984,"duration":"0.08"},{"name":"D6","midi":86,"time":"321.93","velocity":0.18110236220472442,"duration":"0.28"},{"name":"D#5","midi":75,"time":"321.94","velocity":0.2125984251968504,"duration":"0.03"},{"name":"G7","midi":103,"time":"321.94","velocity":0.2204724409448819,"duration":"0.24"},{"name":"F6","midi":89,"time":"321.95","velocity":0.11811023622047244,"duration":"0.03"},{"name":"A#6","midi":94,"time":"321.95","velocity":0.14960629921259844,"duration":"0.06"},{"name":"D4","midi":62,"time":"321.97","velocity":0.25984251968503935,"duration":"0.13"},{"name":"E5","midi":76,"time":"321.97","velocity":0.4015748031496063,"duration":"0.31"},{"name":"G6","midi":91,"time":"321.97","velocity":0.2283464566929134,"duration":"0.06"},{"name":"B1","midi":35,"time":"321.98","velocity":0.3543307086614173,"duration":"0.03"},{"name":"A5","midi":81,"time":"321.98","velocity":0.5196850393700787,"duration":"2.00"},{"name":"C6","midi":84,"time":"322.00","velocity":0.2440944881889764,"duration":"0.05"},{"name":"F6","midi":89,"time":"322.00","velocity":0.11811023622047244,"duration":"0.03"},{"name":"G#5","midi":80,"time":"322.01","velocity":0.2047244094488189,"duration":"0.03"},{"name":"F7","midi":101,"time":"322.01","velocity":0.12598425196850394,"duration":"0.03"},{"name":"A#6","midi":94,"time":"322.02","velocity":0.14173228346456693,"duration":"0.08"},{"name":"B5","midi":83,"time":"322.03","velocity":0.18110236220472442,"duration":"0.03"},{"name":"B4","midi":71,"time":"322.05","velocity":0.23622047244094488,"duration":"0.07"},{"name":"G5","midi":79,"time":"322.05","velocity":0.2283464566929134,"duration":"0.03"},{"name":"C6","midi":84,"time":"322.06","velocity":0.2204724409448819,"duration":"0.21"},{"name":"F7","midi":101,"time":"322.06","velocity":0.09448818897637795,"duration":"0.08"},{"name":"C2","midi":36,"time":"322.07","velocity":0.2755905511811024,"duration":"0.02"},{"name":"G5","midi":79,"time":"322.10","velocity":0.25196850393700787,"duration":"0.05"},{"name":"E4","midi":64,"time":"322.12","velocity":0.3779527559055118,"duration":"0.16"},{"name":"G#6","midi":92,"time":"322.12","velocity":0.12598425196850394,"duration":"0.03"},{"name":"C2","midi":36,"time":"322.13","velocity":0.33858267716535434,"duration":"0.02"},{"name":"B4","midi":71,"time":"322.13","velocity":0.5275590551181102,"duration":"0.17"},{"name":"C#6","midi":85,"time":"322.13","velocity":0.12598425196850394,"duration":"0.06"},{"name":"A#1","midi":34,"time":"322.15","velocity":0.33070866141732286,"duration":"0.02"},{"name":"C2","midi":36,"time":"322.17","velocity":0.30708661417322836,"duration":"0.02"},{"name":"A#6","midi":94,"time":"322.17","velocity":0.11811023622047244,"duration":"0.07"},{"name":"D#7","midi":99,"time":"322.17","velocity":0.11023622047244094,"duration":"0.09"},{"name":"A#1","midi":34,"time":"322.20","velocity":0.2677165354330709,"duration":"0.02"},{"name":"F#3","midi":54,"time":"322.20","velocity":0.4251968503937008,"duration":"0.07"},{"name":"D5","midi":74,"time":"322.20","velocity":0.1889763779527559,"duration":"0.07"},{"name":"F6","midi":89,"time":"322.20","velocity":0.28346456692913385,"duration":"0.20"},{"name":"C#6","midi":85,"time":"322.21","velocity":0.13385826771653545,"duration":"0.05"},{"name":"G7","midi":103,"time":"322.21","velocity":0.2125984251968504,"duration":"0.16"},{"name":"B1","midi":35,"time":"322.22","velocity":0.2992125984251969,"duration":"0.03"},{"name":"A4","midi":69,"time":"322.23","velocity":0.4409448818897638,"duration":"0.05"},{"name":"G3","midi":55,"time":"322.27","velocity":0.49606299212598426,"duration":"0.05"},{"name":"C#5","midi":73,"time":"322.27","velocity":0.47244094488188976,"duration":"0.03"},{"name":"G#5","midi":80,"time":"322.27","velocity":0.29133858267716534,"duration":"0.05"},{"name":"D#6","midi":87,"time":"322.27","velocity":0.33858267716535434,"duration":"0.07"},{"name":"G6","midi":91,"time":"322.27","velocity":0.23622047244094488,"duration":"0.20"},{"name":"C7","midi":96,"time":"322.27","velocity":0.29133858267716534,"duration":"0.35"},{"name":"D7","midi":98,"time":"322.27","velocity":0.25984251968503935,"duration":"0.20"},{"name":"D#4","midi":63,"time":"322.28","velocity":0.4881889763779528,"duration":"0.02"},{"name":"G#4","midi":68,"time":"322.28","velocity":0.5354330708661418,"duration":"0.02"},{"name":"C6","midi":84,"time":"322.28","velocity":0.28346456692913385,"duration":"0.07"},{"name":"E5","midi":76,"time":"322.29","velocity":0.4409448818897638,"duration":"0.03"},{"name":"A#5","midi":82,"time":"322.29","velocity":0.2677165354330709,"duration":"0.07"},{"name":"A2","midi":45,"time":"322.30","velocity":0.5039370078740157,"duration":"0.02"},{"name":"F#4","midi":66,"time":"322.30","velocity":0.4409448818897638,"duration":"0.02"},{"name":"A4","midi":69,"time":"322.30","velocity":0.5275590551181102,"duration":"0.05"},{"name":"C5","midi":72,"time":"322.30","velocity":0.4330708661417323,"duration":"0.03"},{"name":"G#6","midi":92,"time":"322.30","velocity":0.33070866141732286,"duration":"1.01"},{"name":"B5","midi":83,"time":"322.31","velocity":0.3543307086614173,"duration":"0.06"},{"name":"B2","midi":47,"time":"322.33","velocity":0.5826771653543307,"duration":"0.34"},{"name":"B4","midi":71,"time":"322.33","velocity":0.3858267716535433,"duration":"0.03"},{"name":"F5","midi":77,"time":"322.33","velocity":0.3464566929133858,"duration":"0.03"},{"name":"C#6","midi":85,"time":"322.33","velocity":0.15748031496062992,"duration":"0.03"},{"name":"D4","midi":62,"time":"322.34","velocity":0.3543307086614173,"duration":"0.07"},{"name":"G#5","midi":80,"time":"322.34","velocity":0.2125984251968504,"duration":"0.08"},{"name":"E6","midi":88,"time":"322.34","velocity":0.3700787401574803,"duration":"0.44"},{"name":"G#4","midi":68,"time":"322.35","velocity":0.3779527559055118,"duration":"0.05"},{"name":"F#5","midi":78,"time":"322.35","velocity":0.2992125984251969,"duration":"0.22"},{"name":"C5","midi":72,"time":"322.36","velocity":0.3464566929133858,"duration":"0.02"},{"name":"E5","midi":76,"time":"322.36","velocity":0.3700787401574803,"duration":"0.36"},{"name":"A#3","midi":58,"time":"322.37","velocity":0.3858267716535433,"duration":"0.02"},{"name":"F#4","midi":66,"time":"322.38","velocity":0.28346456692913385,"duration":"0.02"},{"name":"F#3","midi":54,"time":"322.40","velocity":0.4645669291338583,"duration":"0.02"},{"name":"C5","midi":72,"time":"322.40","velocity":0.2440944881889764,"duration":"0.02"},{"name":"A#5","midi":82,"time":"322.40","velocity":0.23622047244094488,"duration":"0.03"},{"name":"D#6","midi":87,"time":"322.40","velocity":0.12598425196850394,"duration":"0.03"},{"name":"A4","midi":69,"time":"322.41","velocity":0.5039370078740157,"duration":"0.69"},{"name":"C#6","midi":85,"time":"322.41","velocity":0.1889763779527559,"duration":"0.07"},{"name":"D4","midi":62,"time":"322.42","velocity":0.31496062992125984,"duration":"0.07"},{"name":"B5","midi":83,"time":"322.42","velocity":0.4015748031496063,"duration":"0.62"},{"name":"D#7","midi":99,"time":"322.42","velocity":0.1732283464566929,"duration":"0.09"},{"name":"A#3","midi":58,"time":"322.43","velocity":0.4251968503937008,"duration":"0.02"},{"name":"B4","midi":71,"time":"322.43","velocity":0.33858267716535434,"duration":"0.06"},{"name":"B1","midi":35,"time":"322.45","velocity":0.28346456692913385,"duration":"0.02"},{"name":"D#6","midi":87,"time":"322.45","velocity":0.12598425196850394,"duration":"0.03"},{"name":"F6","midi":89,"time":"322.45","velocity":0.10236220472440945,"duration":"0.07"},{"name":"A#3","midi":58,"time":"322.47","velocity":0.3464566929133858,"duration":"0.02"},{"name":"G#5","midi":80,"time":"322.47","velocity":0.25984251968503935,"duration":"0.05"},{"name":"C2","midi":36,"time":"322.49","velocity":0.2677165354330709,"duration":"0.02"},{"name":"E4","midi":64,"time":"322.49","velocity":0.33070866141732286,"duration":"0.03"},{"name":"A#3","midi":58,"time":"322.50","velocity":0.4645669291338583,"duration":"0.02"},{"name":"D5","midi":74,"time":"322.50","velocity":0.14173228346456693,"duration":"0.06"},{"name":"B4","midi":71,"time":"322.51","velocity":0.2440944881889764,"duration":"0.02"},{"name":"C6","midi":84,"time":"322.51","velocity":0.1889763779527559,"duration":"0.06"},{"name":"C#6","midi":85,"time":"322.51","velocity":0.16535433070866143,"duration":"0.07"},{"name":"G6","midi":91,"time":"322.51","velocity":0.12598425196850394,"duration":"0.13"},{"name":"G7","midi":103,"time":"322.51","velocity":0.13385826771653545,"duration":"0.06"},{"name":"F#3","midi":54,"time":"322.52","velocity":0.4409448818897638,"duration":"0.10"},{"name":"D4","midi":62,"time":"322.52","velocity":0.33070866141732286,"duration":"0.08"},{"name":"A#6","midi":94,"time":"322.52","velocity":0.14960629921259844,"duration":"0.10"},{"name":"D#7","midi":99,"time":"322.52","velocity":0.16535433070866143,"duration":"0.13"},{"name":"A#3","midi":58,"time":"322.55","velocity":0.4015748031496063,"duration":"0.03"},{"name":"D6","midi":86,"time":"322.56","velocity":0.23622047244094488,"duration":"0.16"},{"name":"B4","midi":71,"time":"322.58","velocity":0.1968503937007874,"duration":"0.05"},{"name":"F#5","midi":78,"time":"322.58","velocity":0.25984251968503935,"duration":"0.26"},{"name":"G#5","midi":80,"time":"322.59","velocity":0.30708661417322836,"duration":"0.02"},{"name":"G7","midi":103,"time":"322.59","velocity":0.1732283464566929,"duration":"0.10"},{"name":"A#3","midi":58,"time":"322.60","velocity":0.41732283464566927,"duration":"0.03"},{"name":"E4","midi":64,"time":"322.60","velocity":0.30708661417322836,"duration":"0.03"},{"name":"D5","midi":74,"time":"322.60","velocity":0.14173228346456693,"duration":"0.03"},{"name":"C#6","midi":85,"time":"322.60","velocity":0.1968503937007874,"duration":"0.06"},{"name":"C2","midi":36,"time":"322.63","velocity":0.31496062992125984,"duration":"0.02"},{"name":"D4","midi":62,"time":"322.63","velocity":0.29133858267716534,"duration":"0.02"},{"name":"F#3","midi":54,"time":"322.64","velocity":0.3858267716535433,"duration":"0.02"},{"name":"F#6","midi":90,"time":"322.64","velocity":0.2755905511811024,"duration":"0.38"},{"name":"E4","midi":64,"time":"322.65","velocity":0.29133858267716534,"duration":"0.02"},{"name":"D5","midi":74,"time":"322.65","velocity":0.18110236220472442,"duration":"0.06"},{"name":"C7","midi":96,"time":"322.66","velocity":0.12598425196850394,"duration":"0.12"},{"name":"D4","midi":62,"time":"322.67","velocity":0.4251968503937008,"duration":"0.19"},{"name":"D#7","midi":99,"time":"322.67","velocity":0.13385826771653545,"duration":"0.12"},{"name":"F7","midi":101,"time":"322.67","velocity":0.25196850393700787,"duration":"0.06"},{"name":"G#2","midi":44,"time":"322.69","velocity":0.5354330708661418,"duration":"0.01"},{"name":"G#5","midi":80,"time":"322.69","velocity":0.23622047244094488,"duration":"0.02"},{"name":"C6","midi":84,"time":"322.69","velocity":0.1732283464566929,"duration":"0.03"},{"name":"B2","midi":47,"time":"322.70","velocity":0.5905511811023622,"duration":"0.31"},{"name":"F#3","midi":54,"time":"322.70","velocity":0.4409448818897638,"duration":"0.19"},{"name":"C#6","midi":85,"time":"322.70","velocity":0.2125984251968504,"duration":"0.03"},{"name":"F6","midi":89,"time":"322.70","velocity":0.18110236220472442,"duration":"0.05"},{"name":"A#3","midi":58,"time":"322.71","velocity":0.3700787401574803,"duration":"0.03"},{"name":"G6","midi":91,"time":"322.71","velocity":0.10236220472440945,"duration":"0.05"},{"name":"A#6","midi":94,"time":"322.71","velocity":0.1732283464566929,"duration":"0.14"},{"name":"B1","midi":35,"time":"322.72","velocity":0.3543307086614173,"duration":"0.02"},{"name":"B4","midi":71,"time":"322.72","velocity":0.25984251968503935,"duration":"0.05"},{"name":"G7","midi":103,"time":"322.72","velocity":0.1968503937007874,"duration":"0.36"},{"name":"D6","midi":86,"time":"322.73","velocity":0.3228346456692913,"duration":"0.33"},{"name":"E5","midi":76,"time":"322.74","velocity":0.31496062992125984,"duration":"0.28"},{"name":"D#6","midi":87,"time":"322.74","velocity":0.07874015748031496,"duration":"0.05"},{"name":"G#5","midi":80,"time":"322.76","velocity":0.25984251968503935,"duration":"0.09"},{"name":"F7","midi":101,"time":"322.76","velocity":0.10236220472440945,"duration":"0.08"},{"name":"A#3","midi":58,"time":"322.77","velocity":0.23622047244094488,"duration":"0.02"},{"name":"B4","midi":71,"time":"322.78","velocity":0.25984251968503935,"duration":"0.07"},{"name":"A#1","midi":34,"time":"322.79","velocity":0.31496062992125984,"duration":"0.02"},{"name":"A#3","midi":58,"time":"322.80","velocity":0.3464566929133858,"duration":"0.03"},{"name":"E6","midi":88,"time":"322.80","velocity":0.3858267716535433,"duration":"0.23"},{"name":"C7","midi":96,"time":"322.83","velocity":0.12598425196850394,"duration":"0.10"},{"name":"D#7","midi":99,"time":"322.83","velocity":0.33070866141732286,"duration":"0.27"},{"name":"A#1","midi":34,"time":"322.84","velocity":0.3228346456692913,"duration":"0.02"},{"name":"E4","midi":64,"time":"322.84","velocity":0.44881889763779526,"duration":"0.20"},{"name":"C2","midi":36,"time":"322.86","velocity":0.31496062992125984,"duration":"0.02"},{"name":"B4","midi":71,"time":"322.87","velocity":0.33858267716535434,"duration":"0.14"},{"name":"F#5","midi":78,"time":"322.87","velocity":0.2440944881889764,"duration":"0.16"},{"name":"F7","midi":101,"time":"322.88","velocity":0.14960629921259844,"duration":"0.05"},{"name":"B1","midi":35,"time":"322.90","velocity":0.33070866141732286,"duration":"0.07"},{"name":"G6","midi":91,"time":"322.92","velocity":0.2125984251968504,"duration":"0.13"},{"name":"G#5","midi":80,"time":"322.95","velocity":0.1732283464566929,"duration":"0.03"},{"name":"D#6","midi":87,"time":"322.97","velocity":0.08661417322834646,"duration":"0.03"},{"name":"B1","midi":35,"time":"322.98","velocity":0.31496062992125984,"duration":"0.02"},{"name":"C7","midi":96,"time":"322.98","velocity":0.14173228346456693,"duration":"0.19"},{"name":"F#3","midi":54,"time":"323.00","velocity":0.4645669291338583,"duration":"0.02"},{"name":"G5","midi":79,"time":"323.00","velocity":0.2755905511811024,"duration":"0.06"},{"name":"C3","midi":48,"time":"323.01","velocity":0.6456692913385826,"duration":"0.02"},{"name":"F#4","midi":66,"time":"323.02","velocity":0.3937007874015748,"duration":"0.02"},{"name":"C5","midi":72,"time":"323.02","velocity":0.2440944881889764,"duration":"0.02"},{"name":"D5","midi":74,"time":"323.02","velocity":0.2440944881889764,"duration":"0.05"},{"name":"D#6","midi":87,"time":"323.02","velocity":0.2047244094488189,"duration":"0.06"},{"name":"F6","midi":89,"time":"323.02","velocity":0.11811023622047244,"duration":"0.06"},{"name":"A#6","midi":94,"time":"323.02","velocity":0.1968503937007874,"duration":"0.33"},{"name":"F2","midi":41,"time":"323.03","velocity":0.6771653543307087,"duration":"0.02"},{"name":"F7","midi":101,"time":"323.03","velocity":0.12598425196850394,"duration":"0.05"},{"name":"C#4","midi":61,"time":"323.05","velocity":0.3543307086614173,"duration":"0.02"},{"name":"B4","midi":71,"time":"323.05","velocity":0.31496062992125984,"duration":"0.05"},{"name":"G#5","midi":80,"time":"323.05","velocity":0.33070866141732286,"duration":"0.03"},{"name":"E6","midi":88,"time":"323.05","velocity":0.2992125984251969,"duration":"0.28"},{"name":"A1","midi":33,"time":"323.06","velocity":0.5118110236220472,"duration":"0.01"},{"name":"F#2","midi":42,"time":"323.06","velocity":0.5275590551181102,"duration":"0.01"},{"name":"E4","midi":64,"time":"323.06","velocity":0.33070866141732286,"duration":"0.02"},{"name":"F#5","midi":78,"time":"323.06","velocity":0.23622047244094488,"duration":"0.07"},{"name":"C#6","midi":85,"time":"323.06","velocity":0.2440944881889764,"duration":"0.36"},{"name":"F#1","midi":30,"time":"323.07","velocity":0.6062992125984252,"duration":"0.01"},{"name":"G#2","midi":44,"time":"323.07","velocity":0.5354330708661418,"duration":"0.01"},{"name":"D4","midi":62,"time":"323.07","velocity":0.28346456692913385,"duration":"0.02"},{"name":"G1","midi":31,"time":"323.08","velocity":0.6141732283464567,"duration":"0.01"},{"name":"A#2","midi":46,"time":"323.08","velocity":0.5275590551181102,"duration":"0.01"},{"name":"G6","midi":91,"time":"323.08","velocity":0.14173228346456693,"duration":"0.12"},{"name":"A#1","midi":34,"time":"323.09","velocity":0.5511811023622047,"duration":"0.01"},{"name":"B2","midi":47,"time":"323.09","velocity":0.5826771653543307,"duration":"0.01"},{"name":"C3","midi":48,"time":"323.10","velocity":0.5984251968503937,"duration":"0.02"},{"name":"F#3","midi":54,"time":"323.10","velocity":0.41732283464566927,"duration":"0.05"},{"name":"B4","midi":71,"time":"323.10","velocity":0.2440944881889764,"duration":"0.05"},{"name":"D#7","midi":99,"time":"323.10","velocity":0.2204724409448819,"duration":"0.30"},{"name":"F7","midi":101,"time":"323.10","velocity":0.16535433070866143,"duration":"0.17"},{"name":"G7","midi":103,"time":"323.10","velocity":0.16535433070866143,"duration":"0.16"},{"name":"A#1","midi":34,"time":"323.12","velocity":0.41732283464566927,"duration":"0.02"},{"name":"D5","midi":74,"time":"323.12","velocity":0.1968503937007874,"duration":"0.03"},{"name":"B2","midi":47,"time":"323.13","velocity":0.5511811023622047,"duration":"0.01"},{"name":"D4","midi":62,"time":"323.13","velocity":0.3464566929133858,"duration":"0.22"},{"name":"A4","midi":69,"time":"323.13","velocity":0.5511811023622047,"duration":"0.24"},{"name":"A#2","midi":46,"time":"323.14","velocity":0.5433070866141733,"duration":"0.01"},{"name":"B2","midi":47,"time":"323.15","velocity":0.5748031496062992,"duration":"0.26"},{"name":"G5","midi":79,"time":"323.15","velocity":0.2283464566929134,"duration":"0.05"},{"name":"D6","midi":86,"time":"323.15","velocity":0.14173228346456693,"duration":"0.03"},{"name":"F#6","midi":90,"time":"323.15","velocity":0.2047244094488189,"duration":"0.12"},{"name":"B4","midi":71,"time":"323.16","velocity":0.3464566929133858,"duration":"0.13"},{"name":"B1","midi":35,"time":"323.17","velocity":0.33858267716535434,"duration":"0.02"},{"name":"F#3","midi":54,"time":"323.19","velocity":0.4566929133858268,"duration":"0.14"},{"name":"G#5","midi":80,"time":"323.19","velocity":0.23622047244094488,"duration":"0.03"},{"name":"D7","midi":98,"time":"323.19","velocity":0.2125984251968504,"duration":"0.05"},{"name":"D#5","midi":75,"time":"323.20","velocity":0.15748031496062992,"duration":"0.03"},{"name":"E5","midi":76,"time":"323.21","velocity":0.2125984251968504,"duration":"0.07"},{"name":"G6","midi":91,"time":"323.22","velocity":0.13385826771653545,"duration":"0.05"},{"name":"F#1","midi":30,"time":"323.23","velocity":0.30708661417322836,"duration":"0.02"},{"name":"A#1","midi":34,"time":"323.27","velocity":0.3779527559055118,"duration":"0.03"},{"name":"E5","midi":76,"time":"323.29","velocity":0.2125984251968504,"duration":"0.06"},{"name":"D6","midi":86,"time":"323.29","velocity":0.11811023622047244,"duration":"0.03"},{"name":"B1","midi":35,"time":"323.30","velocity":0.33858267716535434,"duration":"0.03"},{"name":"B4","midi":71,"time":"323.30","velocity":0.31496062992125984,"duration":"0.05"},{"name":"G6","midi":91,"time":"323.30","velocity":0.13385826771653545,"duration":"0.06"},{"name":"G7","midi":103,"time":"323.31","velocity":0.15748031496062992,"duration":"0.12"},{"name":"D#6","midi":87,"time":"323.33","velocity":0.07086614173228346,"duration":"0.03"},{"name":"E6","midi":88,"time":"323.34","velocity":0.3543307086614173,"duration":"0.69"},{"name":"F#3","midi":54,"time":"323.35","velocity":0.3779527559055118,"duration":"0.02"},{"name":"D#5","midi":75,"time":"323.35","velocity":0.11023622047244094,"duration":"0.03"},{"name":"E5","midi":76,"time":"323.37","velocity":0.33858267716535434,"duration":"0.08"},{"name":"A4","midi":69,"time":"323.38","velocity":0.4645669291338583,"duration":"0.28"},{"name":"D6","midi":86,"time":"323.40","velocity":0.3464566929133858,"duration":"0.48"},{"name":"G#6","midi":92,"time":"323.40","velocity":0.33858267716535434,"duration":"0.24"},{"name":"F7","midi":101,"time":"323.40","velocity":0.23622047244094488,"duration":"0.47"},{"name":"A2","midi":45,"time":"323.41","velocity":0.5826771653543307,"duration":"0.01"},{"name":"C#4","midi":61,"time":"323.41","velocity":0.28346456692913385,"duration":"0.05"},{"name":"G5","midi":79,"time":"323.41","velocity":0.2440944881889764,"duration":"0.05"},{"name":"C6","midi":84,"time":"323.41","velocity":0.2755905511811024,"duration":"0.06"},{"name":"F2","midi":41,"time":"323.42","velocity":0.6456692913385826,"duration":"0.01"},{"name":"F4","midi":65,"time":"323.42","velocity":0.4015748031496063,"duration":"0.06"},{"name":"D5","midi":74,"time":"323.42","velocity":0.25196850393700787,"duration":"0.03"},{"name":"A#6","midi":94,"time":"323.42","velocity":0.18110236220472442,"duration":"0.07"},{"name":"D#7","midi":99,"time":"323.42","velocity":0.33070866141732286,"duration":"4.29"},{"name":"E2","midi":40,"time":"323.43","velocity":0.6299212598425197,"duration":"0.01"},{"name":"G3","midi":55,"time":"323.43","velocity":0.4566929133858268,"duration":"0.05"},{"name":"F#2","midi":42,"time":"323.44","velocity":0.5748031496062992,"duration":"0.01"},{"name":"F#5","midi":78,"time":"323.44","velocity":0.29133858267716534,"duration":"0.34"},{"name":"G7","midi":103,"time":"323.44","velocity":0.25984251968503935,"duration":"0.22"},{"name":"F1","midi":29,"time":"323.45","velocity":0.5590551181102362,"duration":"0.03"},{"name":"G#2","midi":44,"time":"323.45","velocity":0.6062992125984252,"duration":"0.01"},{"name":"A#2","midi":46,"time":"323.47","velocity":0.5669291338582677,"duration":"0.01"},{"name":"B4","midi":71,"time":"323.47","velocity":0.23622047244094488,"duration":"0.02"},{"name":"E5","midi":76,"time":"323.47","velocity":0.5118110236220472,"duration":"0.64"},{"name":"B5","midi":83,"time":"323.47","velocity":0.33858267716535434,"duration":"0.15"},{"name":"C#6","midi":85,"time":"323.47","velocity":0.1732283464566929,"duration":"0.05"},{"name":"B2","midi":47,"time":"323.48","velocity":0.6062992125984252,"duration":"0.02"},{"name":"F#3","midi":54,"time":"323.48","velocity":0.44881889763779526,"duration":"0.05"},{"name":"D#1","midi":27,"time":"323.49","velocity":0.3937007874015748,"duration":"0.02"},{"name":"C3","midi":48,"time":"323.50","velocity":0.5433070866141733,"duration":"0.01"},{"name":"B3","midi":59,"time":"323.50","velocity":0.2283464566929134,"duration":"0.02"},{"name":"B2","midi":47,"time":"323.51","velocity":0.5354330708661418,"duration":"0.03"},{"name":"G#5","midi":80,"time":"323.51","velocity":0.28346456692913385,"duration":"0.10"},{"name":"A#6","midi":94,"time":"323.51","velocity":0.3937007874015748,"duration":"1.06"},{"name":"F#3","midi":54,"time":"323.53","velocity":0.4566929133858268,"duration":"0.24"},{"name":"E4","midi":64,"time":"323.53","velocity":0.25196850393700787,"duration":"0.03"},{"name":"D5","midi":74,"time":"323.53","velocity":0.3858267716535433,"duration":"0.26"},{"name":"A#2","midi":46,"time":"323.55","velocity":0.5196850393700787,"duration":"0.01"},{"name":"G6","midi":91,"time":"323.55","velocity":0.23622047244094488,"duration":"0.12"},{"name":"B2","midi":47,"time":"323.56","velocity":0.5511811023622047,"duration":"0.22"},{"name":"A1","midi":33,"time":"323.59","velocity":0.3543307086614173,"duration":"0.02"},{"name":"E4","midi":64,"time":"323.59","velocity":0.5196850393700787,"duration":"0.20"},{"name":"C6","midi":84,"time":"323.60","velocity":0.4251968503937008,"duration":"0.27"},{"name":"B6","midi":95,"time":"323.63","velocity":0.08661417322834646,"duration":"0.05"},{"name":"G#6","midi":92,"time":"323.65","velocity":0.2440944881889764,"duration":"0.14"},{"name":"A4","midi":69,"time":"323.67","velocity":0.4881889763779528,"duration":"0.14"},{"name":"G6","midi":91,"time":"323.69","velocity":0.2677165354330709,"duration":"0.16"},{"name":"A1","midi":33,"time":"323.70","velocity":0.2992125984251969,"duration":"0.02"},{"name":"C#6","midi":85,"time":"323.72","velocity":0.16535433070866143,"duration":"0.03"},{"name":"D#6","midi":87,"time":"323.72","velocity":0.12598425196850394,"duration":"0.06"},{"name":"G#5","midi":80,"time":"323.77","velocity":0.4330708661417323,"duration":"0.05"},{"name":"A#5","midi":82,"time":"323.78","velocity":0.31496062992125984,"duration":"0.02"},{"name":"F#6","midi":90,"time":"323.78","velocity":0.25196850393700787,"duration":"0.08"},{"name":"C4","midi":60,"time":"323.79","velocity":0.4881889763779528,"duration":"0.05"},{"name":"F#5","midi":78,"time":"323.79","velocity":0.3543307086614173,"duration":"0.03"},{"name":"C#6","midi":85,"time":"323.79","velocity":0.2677165354330709,"duration":"0.02"},{"name":"F6","midi":89,"time":"323.79","velocity":0.29133858267716534,"duration":"0.06"},{"name":"B6","midi":95,"time":"323.79","velocity":0.2440944881889764,"duration":"0.13"},{"name":"D3","midi":50,"time":"323.80","velocity":0.4094488188976378,"duration":"0.02"},{"name":"G3","midi":55,"time":"323.80","velocity":0.47244094488188976,"duration":"0.03"},{"name":"F#4","midi":66,"time":"323.80","velocity":0.4251968503937008,"duration":"0.03"},{"name":"D5","midi":74,"time":"323.80","velocity":0.33858267716535434,"duration":"0.02"},{"name":"A#4","midi":70,"time":"323.81","velocity":0.3543307086614173,"duration":"0.02"},{"name":"F5","midi":77,"time":"323.81","velocity":0.3464566929133858,"duration":"0.03"},{"name":"D#6","midi":87,"time":"323.81","velocity":0.2755905511811024,"duration":"0.34"},{"name":"C#5","midi":73,"time":"323.83","velocity":0.33858267716535434,"duration":"0.03"},{"name":"B2","midi":47,"time":"323.84","velocity":0.5748031496062992,"duration":"0.31"},{"name":"F#3","midi":54,"time":"323.84","velocity":0.47244094488188976,"duration":"0.08"},{"name":"A4","midi":69,"time":"323.84","velocity":0.3543307086614173,"duration":"0.02"},{"name":"G5","midi":79,"time":"323.85","velocity":0.1732283464566929,"duration":"0.03"},{"name":"D5","midi":74,"time":"323.86","velocity":0.25984251968503935,"duration":"0.03"},{"name":"G#5","midi":80,"time":"323.86","velocity":0.2755905511811024,"duration":"0.06"},{"name":"F6","midi":89,"time":"323.86","velocity":0.2283464566929134,"duration":"0.03"},{"name":"C#6","midi":85,"time":"323.87","velocity":0.28346456692913385,"duration":"0.07"},{"name":"E4","midi":64,"time":"323.88","velocity":0.4251968503937008,"duration":"0.08"},{"name":"A4","midi":69,"time":"323.88","velocity":0.41732283464566927,"duration":"0.02"},{"name":"F#5","midi":78,"time":"323.88","velocity":0.36220472440944884,"duration":"0.38"},{"name":"D6","midi":86,"time":"323.88","velocity":0.3228346456692913,"duration":"0.21"},{"name":"A#3","midi":58,"time":"323.90","velocity":0.5039370078740157,"duration":"0.05"},{"name":"G#4","midi":68,"time":"323.90","velocity":0.5196850393700787,"duration":"0.07"},{"name":"B4","midi":71,"time":"323.90","velocity":0.30708661417322836,"duration":"0.03"},{"name":"C7","midi":96,"time":"323.90","velocity":0.2125984251968504,"duration":"0.55"},{"name":"D#5","midi":75,"time":"323.91","velocity":0.25196850393700787,"duration":"0.02"},{"name":"A#1","midi":34,"time":"323.92","velocity":0.3543307086614173,"duration":"0.02"},{"name":"G5","midi":79,"time":"323.92","velocity":0.2755905511811024,"duration":"0.02"},{"name":"C6","midi":84,"time":"323.92","velocity":0.25196850393700787,"duration":"0.07"},{"name":"G7","midi":103,"time":"323.92","velocity":0.18110236220472442,"duration":"0.03"},{"name":"F#3","midi":54,"time":"323.93","velocity":0.44881889763779526,"duration":"0.12"},{"name":"B4","midi":71,"time":"323.94","velocity":0.25984251968503935,"duration":"0.02"},{"name":"A4","midi":69,"time":"323.95","velocity":0.41732283464566927,"duration":"0.02"},{"name":"B5","midi":83,"time":"323.95","velocity":0.3779527559055118,"duration":"0.28"},{"name":"F6","midi":89,"time":"323.95","velocity":0.07874015748031496,"duration":"0.03"},{"name":"F4","midi":65,"time":"323.97","velocity":0.3779527559055118,"duration":"0.02"},{"name":"C5","midi":72,"time":"323.97","velocity":0.25984251968503935,"duration":"0.02"},{"name":"C2","midi":36,"time":"323.98","velocity":0.3464566929133858,"duration":"0.02"},{"name":"G#4","midi":68,"time":"323.98","velocity":0.4330708661417323,"duration":"0.05"},{"name":"E4","midi":64,"time":"323.99","velocity":0.33858267716535434,"duration":"0.05"},{"name":"A5","midi":81,"time":"323.99","velocity":0.3779527559055118,"duration":"0.10"},{"name":"G7","midi":103,"time":"323.99","velocity":0.18110236220472442,"duration":"0.29"},{"name":"A#3","midi":58,"time":"324.00","velocity":0.4409448818897638,"duration":"0.09"},{"name":"C5","midi":72,"time":"324.00","velocity":0.18110236220472442,"duration":"0.03"},{"name":"C2","midi":36,"time":"324.02","velocity":0.3228346456692913,"duration":"0.02"},{"name":"A4","midi":69,"time":"324.02","velocity":0.4015748031496063,"duration":"0.02"},{"name":"C#5","midi":73,"time":"324.02","velocity":0.13385826771653545,"duration":"0.03"},{"name":"F6","midi":89,"time":"324.02","velocity":0.11811023622047244,"duration":"0.06"},{"name":"B4","midi":71,"time":"324.03","velocity":0.2992125984251969,"duration":"0.19"},{"name":"F#4","midi":66,"time":"324.05","velocity":0.2677165354330709,"duration":"0.03"},{"name":"A4","midi":69,"time":"324.06","velocity":0.41732283464566927,"duration":"0.02"},{"name":"G#4","midi":68,"time":"324.07","velocity":0.5039370078740157,"duration":"0.10"},{"name":"E7","midi":100,"time":"324.07","velocity":0.2755905511811024,"duration":"1.65"},{"name":"C#6","midi":85,"time":"324.08","velocity":0.1889763779527559,"duration":"0.05"},{"name":"C#7","midi":97,"time":"324.08","velocity":0.33070866141732286,"duration":"1.66"},{"name":"A#1","midi":34,"time":"324.09","velocity":0.25984251968503935,"duration":"0.02"},{"name":"F#3","midi":54,"time":"324.09","velocity":0.4094488188976378,"duration":"0.07"},{"name":"D#5","midi":75,"time":"324.10","velocity":0.25196850393700787,"duration":"0.08"},{"name":"A5","midi":81,"time":"324.10","velocity":0.25984251968503935,"duration":"0.03"},{"name":"D6","midi":86,"time":"324.10","velocity":0.3228346456692913,"duration":"0.22"},{"name":"C2","midi":36,"time":"324.12","velocity":0.28346456692913385,"duration":"0.02"},{"name":"G6","midi":91,"time":"324.13","velocity":0.12598425196850394,"duration":"0.06"},{"name":"A#3","midi":58,"time":"324.14","velocity":0.41732283464566927,"duration":"0.06"},{"name":"C3","midi":48,"time":"324.15","velocity":0.5590551181102362,"duration":"0.05"},{"name":"E4","midi":64,"time":"324.15","velocity":0.3464566929133858,"duration":"0.03"},{"name":"F7","midi":101,"time":"324.15","velocity":0.1968503937007874,"duration":"0.10"},{"name":"A4","midi":69,"time":"324.16","velocity":0.48031496062992124,"duration":"0.19"},{"name":"C#6","midi":85,"time":"324.17","velocity":0.2125984251968504,"duration":"0.05"},{"name":"D#6","midi":87,"time":"324.17","velocity":0.4094488188976378,"duration":"0.51"},{"name":"F6","midi":89,"time":"324.17","velocity":0.11023622047244094,"duration":"0.05"},{"name":"A6","midi":93,"time":"324.17","velocity":0.18110236220472442,"duration":"0.09"},{"name":"E5","midi":76,"time":"324.19","velocity":0.41732283464566927,"duration":"0.19"},{"name":"A2","midi":45,"time":"324.20","velocity":0.5118110236220472,"duration":"0.01"},{"name":"D#4","midi":63,"time":"324.20","velocity":0.28346456692913385,"duration":"0.02"},{"name":"G#5","midi":80,"time":"324.20","velocity":0.5433070866141733,"duration":"2.58"},{"name":"B2","midi":47,"time":"324.21","velocity":0.5669291338582677,"duration":"0.31"},{"name":"C6","midi":84,"time":"324.21","velocity":0.33858267716535434,"duration":"0.05"},{"name":"E4","midi":64,"time":"324.22","velocity":0.3464566929133858,"duration":"0.12"},{"name":"C#5","midi":73,"time":"324.22","velocity":0.09448818897637795,"duration":"0.05"},{"name":"A#1","midi":34,"time":"324.23","velocity":0.2677165354330709,"duration":"0.02"},{"name":"D#5","midi":75,"time":"324.23","velocity":0.2125984251968504,"duration":"0.05"},{"name":"F#3","midi":54,"time":"324.24","velocity":0.48031496062992124,"duration":"0.03"},{"name":"B5","midi":83,"time":"324.24","velocity":0.5118110236220472,"duration":"0.14"},{"name":"F#6","midi":90,"time":"324.27","velocity":0.2992125984251969,"duration":"0.14"},{"name":"F7","midi":101,"time":"324.28","velocity":0.28346456692913385,"duration":"0.20"},{"name":"A#1","midi":34,"time":"324.29","velocity":0.3543307086614173,"duration":"0.02"},{"name":"F#3","midi":54,"time":"324.29","velocity":0.44881889763779526,"duration":"0.02"},{"name":"B4","midi":71,"time":"324.30","velocity":0.3228346456692913,"duration":"0.22"},{"name":"F#5","midi":78,"time":"324.30","velocity":0.2992125984251969,"duration":"0.21"},{"name":"G7","midi":103,"time":"324.31","velocity":0.10236220472440945,"duration":"0.08"},{"name":"A#1","midi":34,"time":"324.33","velocity":0.3543307086614173,"duration":"0.02"},{"name":"D4","midi":62,"time":"324.33","velocity":0.3937007874015748,"duration":"0.07"},{"name":"F#3","midi":54,"time":"324.34","velocity":0.4566929133858268,"duration":"0.06"},{"name":"G#4","midi":68,"time":"324.34","velocity":0.4566929133858268,"duration":"0.06"},{"name":"D6","midi":86,"time":"324.34","velocity":0.23622047244094488,"duration":"0.09"},{"name":"C2","midi":36,"time":"324.35","velocity":0.3464566929133858,"duration":"0.02"},{"name":"C6","midi":84,"time":"324.35","velocity":0.25984251968503935,"duration":"0.05"},{"name":"F6","midi":89,"time":"324.35","velocity":0.10236220472440945,"duration":"0.07"},{"name":"D#5","midi":75,"time":"324.36","velocity":0.25196850393700787,"duration":"0.07"},{"name":"A#1","midi":34,"time":"324.37","velocity":0.33858267716535434,"duration":"0.02"},{"name":"E4","midi":64,"time":"324.38","velocity":0.4015748031496063,"duration":"0.09"},{"name":"A4","midi":69,"time":"324.38","velocity":0.3937007874015748,"duration":"0.09"},{"name":"B5","midi":83,"time":"324.40","velocity":0.4251968503937008,"duration":"0.28"},{"name":"F#3","midi":54,"time":"324.41","velocity":0.4409448818897638,"duration":"0.06"},{"name":"A#5","midi":82,"time":"324.41","velocity":0.13385826771653545,"duration":"0.06"},{"name":"C#6","midi":85,"time":"324.41","velocity":0.25984251968503935,"duration":"0.03"},{"name":"A#1","midi":34,"time":"324.42","velocity":0.3228346456692913,"duration":"0.02"},{"name":"G7","midi":103,"time":"324.42","velocity":0.07086614173228346,"duration":"0.07"},{"name":"B1","midi":35,"time":"324.44","velocity":0.2992125984251969,"duration":"0.02"},{"name":"D6","midi":86,"time":"324.44","velocity":0.25984251968503935,"duration":"0.19"},{"name":"F6","midi":89,"time":"324.44","velocity":0.14960629921259844,"duration":"0.13"},{"name":"G#4","midi":68,"time":"324.47","velocity":0.4251968503937008,"duration":"0.06"},{"name":"C7","midi":96,"time":"324.48","velocity":0.1889763779527559,"duration":"0.05"},{"name":"E4","midi":64,"time":"324.49","velocity":0.3464566929133858,"duration":"0.03"},{"name":"F7","midi":101,"time":"324.49","velocity":0.29133858267716534,"duration":"0.37"},{"name":"A1","midi":33,"time":"324.50","velocity":0.4566929133858268,"duration":"0.02"},{"name":"G5","midi":79,"time":"324.50","velocity":0.3700787401574803,"duration":"0.03"},{"name":"F#6","midi":90,"time":"324.51","velocity":0.23622047244094488,"duration":"0.07"},{"name":"F2","midi":41,"time":"324.52","velocity":0.6535433070866141,"duration":"0.03"},{"name":"F#4","midi":66,"time":"324.52","velocity":0.4330708661417323,"duration":"0.03"},{"name":"D5","midi":74,"time":"324.52","velocity":0.31496062992125984,"duration":"0.02"},{"name":"D#5","midi":75,"time":"324.52","velocity":0.3543307086614173,"duration":"0.09"},{"name":"B4","midi":71,"time":"324.53","velocity":0.2755905511811024,"duration":"0.06"},{"name":"C6","midi":84,"time":"324.53","velocity":0.12598425196850394,"duration":"0.03"},{"name":"A6","midi":93,"time":"324.53","velocity":0.13385826771653545,"duration":"0.12"},{"name":"C7","midi":96,"time":"324.53","velocity":0.18110236220472442,"duration":"0.06"},{"name":"C4","midi":60,"time":"324.55","velocity":0.36220472440944884,"duration":"0.02"},{"name":"G#4","midi":68,"time":"324.55","velocity":0.44881889763779526,"duration":"0.48"},{"name":"C#5","midi":73,"time":"324.55","velocity":0.2755905511811024,"duration":"0.29"},{"name":"A5","midi":81,"time":"324.55","velocity":0.25196850393700787,"duration":"0.02"},{"name":"C3","midi":48,"time":"324.56","velocity":0.6299212598425197,"duration":"0.05"},{"name":"G3","midi":55,"time":"324.57","velocity":0.3937007874015748,"duration":"0.02"},{"name":"F4","midi":65,"time":"324.57","velocity":0.2755905511811024,"duration":"0.02"},{"name":"C#2","midi":37,"time":"324.58","velocity":0.5354330708661418,"duration":"0.01"},{"name":"C2","midi":36,"time":"324.59","velocity":0.5196850393700787,"duration":"0.01"},{"name":"G#3","midi":56,"time":"324.59","velocity":0.4015748031496063,"duration":"0.06"},{"name":"E4","midi":64,"time":"324.59","velocity":0.25984251968503935,"duration":"0.03"},{"name":"A#6","midi":94,"time":"324.59","velocity":0.25196850393700787,"duration":"0.48"},{"name":"C#3","midi":49,"time":"324.60","velocity":0.5826771653543307,"duration":"0.03"},{"name":"B4","midi":71,"time":"324.60","velocity":0.2283464566929134,"duration":"0.02"},{"name":"C7","midi":96,"time":"324.62","velocity":0.2283464566929134,"duration":"0.08"},{"name":"C#2","midi":37,"time":"324.63","velocity":0.33070866141732286,"duration":"0.03"},{"name":"D#5","midi":75,"time":"324.63","velocity":0.30708661417322836,"duration":"0.15"},{"name":"E4","midi":64,"time":"324.64","velocity":0.4409448818897638,"duration":"0.63"},{"name":"B4","midi":71,"time":"324.64","velocity":0.5275590551181102,"duration":"0.66"},{"name":"C#3","midi":49,"time":"324.65","velocity":0.5669291338582677,"duration":"0.23"},{"name":"G#3","midi":56,"time":"324.67","velocity":0.4330708661417323,"duration":"0.24"},{"name":"B6","midi":95,"time":"324.67","velocity":0.14960629921259844,"duration":"0.10"},{"name":"D7","midi":98,"time":"324.67","velocity":0.1889763779527559,"duration":"0.06"},{"name":"D#6","midi":87,"time":"324.70","velocity":0.3779527559055118,"duration":"2.09"},{"name":"C7","midi":96,"time":"324.73","velocity":0.15748031496062992,"duration":"0.07"},{"name":"D7","midi":98,"time":"324.74","velocity":0.16535433070866143,"duration":"0.08"},{"name":"C2","midi":36,"time":"324.77","velocity":0.2440944881889764,"duration":"0.02"},{"name":"A5","midi":81,"time":"324.79","velocity":0.14173228346456693,"duration":"0.03"},{"name":"B1","midi":35,"time":"324.83","velocity":0.28346456692913385,"duration":"0.02"},{"name":"D#5","midi":75,"time":"324.83","velocity":0.3464566929133858,"duration":"0.14"},{"name":"C7","midi":96,"time":"324.84","velocity":0.28346456692913385,"duration":"0.15"},{"name":"C#5","midi":73,"time":"324.85","velocity":0.11023622047244094,"duration":"0.05"},{"name":"F#7","midi":102,"time":"324.86","velocity":0.31496062992125984,"duration":"1.42"},{"name":"D3","midi":50,"time":"324.88","velocity":0.5511811023622047,"duration":"0.01"},{"name":"A5","midi":81,"time":"324.88","velocity":0.25984251968503935,"duration":"0.05"},{"name":"F7","midi":101,"time":"324.88","velocity":0.28346456692913385,"duration":"0.12"},{"name":"C#5","midi":73,"time":"324.91","velocity":0.23622047244094488,"duration":"0.07"},{"name":"D6","midi":86,"time":"324.91","velocity":0.11023622047244094,"duration":"0.05"},{"name":"D7","midi":98,"time":"324.91","velocity":0.2125984251968504,"duration":"0.34"},{"name":"C3","midi":48,"time":"324.93","velocity":0.5590551181102362,"duration":"0.01"},{"name":"F#5","midi":78,"time":"324.93","velocity":0.2992125984251969,"duration":"0.03"},{"name":"E6","midi":88,"time":"324.93","velocity":0.2204724409448819,"duration":"0.17"},{"name":"C#3","midi":49,"time":"324.94","velocity":0.5826771653543307,"duration":"0.31"},{"name":"G#3","midi":56,"time":"324.94","velocity":0.3937007874015748,"duration":"0.15"},{"name":"C#6","midi":85,"time":"324.94","velocity":0.3464566929133858,"duration":"0.36"},{"name":"G6","midi":91,"time":"324.94","velocity":0.07874015748031496,"duration":"0.03"},{"name":"G7","midi":103,"time":"324.94","velocity":0.14960629921259844,"duration":"0.03"},{"name":"F5","midi":77,"time":"324.95","velocity":0.29133858267716534,"duration":"0.13"},{"name":"D2","midi":38,"time":"324.98","velocity":0.23622047244094488,"duration":"0.02"},{"name":"C#2","midi":37,"time":"325.00","velocity":0.28346456692913385,"duration":"0.07"},{"name":"C7","midi":96,"time":"325.00","velocity":0.2125984251968504,"duration":"0.14"},{"name":"D#5","midi":75,"time":"325.01","velocity":0.2204724409448819,"duration":"0.05"},{"name":"A4","midi":69,"time":"325.03","velocity":0.30708661417322836,"duration":"0.03"},{"name":"F#6","midi":90,"time":"325.03","velocity":0.23622047244094488,"duration":"0.07"},{"name":"C2","midi":36,"time":"325.07","velocity":0.25196850393700787,"duration":"0.05"},{"name":"G#4","midi":68,"time":"325.07","velocity":0.5511811023622047,"duration":"0.69"},{"name":"F#5","midi":78,"time":"325.07","velocity":0.1968503937007874,"duration":"0.08"},{"name":"G7","midi":103,"time":"325.07","velocity":0.13385826771653545,"duration":"0.07"},{"name":"A#6","midi":94,"time":"325.08","velocity":0.12598425196850394,"duration":"0.12"},{"name":"G#3","midi":56,"time":"325.10","velocity":0.2992125984251969,"duration":"0.05"},{"name":"C#2","midi":37,"time":"325.12","velocity":0.2125984251968504,"duration":"0.03"},{"name":"C#5","midi":73,"time":"325.13","velocity":0.3937007874015748,"duration":"0.16"},{"name":"F#6","midi":90,"time":"325.13","velocity":0.31496062992125984,"duration":"0.27"},{"name":"F5","midi":77,"time":"325.15","velocity":0.2283464566929134,"duration":"0.07"},{"name":"A5","midi":81,"time":"325.15","velocity":0.14960629921259844,"duration":"0.03"},{"name":"C7","midi":96,"time":"325.15","velocity":0.2992125984251969,"duration":"0.30"},{"name":"D#5","midi":75,"time":"325.16","velocity":0.25984251968503935,"duration":"0.05"},{"name":"G#3","midi":56,"time":"325.17","velocity":0.29133858267716534,"duration":"0.06"},{"name":"F7","midi":101,"time":"325.19","velocity":0.09448818897637795,"duration":"0.06"},{"name":"F#5","midi":78,"time":"325.22","velocity":0.1732283464566929,"duration":"0.05"},{"name":"D6","midi":86,"time":"325.22","velocity":0.23622047244094488,"duration":"0.14"},{"name":"C#2","midi":37,"time":"325.24","velocity":0.28346456692913385,"duration":"0.02"},{"name":"D#4","midi":63,"time":"325.26","velocity":0.5433070866141733,"duration":"0.02"},{"name":"F6","midi":89,"time":"325.26","velocity":0.25984251968503935,"duration":"0.09"},{"name":"A#6","midi":94,"time":"325.26","velocity":0.2755905511811024,"duration":"0.33"},{"name":"D7","midi":98,"time":"325.26","velocity":0.33070866141732286,"duration":"0.64"},{"name":"A#5","midi":82,"time":"325.27","velocity":0.23622047244094488,"duration":"0.03"},{"name":"G6","midi":91,"time":"325.27","velocity":0.2677165354330709,"duration":"0.16"},{"name":"F7","midi":101,"time":"325.27","velocity":0.2755905511811024,"duration":"0.12"},{"name":"D4","midi":62,"time":"325.28","velocity":0.5433070866141733,"duration":"0.02"},{"name":"E5","midi":76,"time":"325.28","velocity":0.4645669291338583,"duration":"0.03"},{"name":"F#5","midi":78,"time":"325.28","velocity":0.2440944881889764,"duration":"0.02"},{"name":"C6","midi":84,"time":"325.28","velocity":0.2204724409448819,"duration":"0.05"},{"name":"A6","midi":93,"time":"325.28","velocity":0.2440944881889764,"duration":"0.22"},{"name":"C#3","midi":49,"time":"325.29","velocity":0.5669291338582677,"duration":"0.34"},{"name":"G#3","midi":56,"time":"325.30","velocity":0.41732283464566927,"duration":"0.02"},{"name":"F4","midi":65,"time":"325.30","velocity":0.4566929133858268,"duration":"0.03"},{"name":"A#4","midi":70,"time":"325.30","velocity":0.4015748031496063,"duration":"0.02"},{"name":"C#5","midi":73,"time":"325.30","velocity":0.2992125984251969,"duration":"0.05"},{"name":"D#5","midi":75,"time":"325.30","velocity":0.3858267716535433,"duration":"0.02"},{"name":"F#5","midi":78,"time":"325.31","velocity":0.2440944881889764,"duration":"0.03"},{"name":"C#6","midi":85,"time":"325.31","velocity":0.33070866141732286,"duration":"0.15"},{"name":"E6","midi":88,"time":"325.31","velocity":0.28346456692913385,"duration":"0.21"},{"name":"A3","midi":57,"time":"325.33","velocity":0.4094488188976378,"duration":"0.02"},{"name":"C5","midi":72,"time":"325.34","velocity":0.31496062992125984,"duration":"0.02"},{"name":"D#5","midi":75,"time":"325.34","velocity":0.29133858267716534,"duration":"0.02"},{"name":"A#3","midi":58,"time":"325.35","velocity":0.3937007874015748,"duration":"0.02"},{"name":"C2","midi":36,"time":"325.36","velocity":0.2283464566929134,"duration":"0.02"},{"name":"E4","midi":64,"time":"325.36","velocity":0.33070866141732286,"duration":"0.07"},{"name":"B4","midi":71,"time":"325.36","velocity":0.3464566929133858,"duration":"0.03"},{"name":"E5","midi":76,"time":"325.36","velocity":0.3937007874015748,"duration":"0.35"},{"name":"A5","midi":81,"time":"325.36","velocity":0.2440944881889764,"duration":"0.03"},{"name":"B3","midi":59,"time":"325.37","velocity":0.4015748031496063,"duration":"0.02"},{"name":"D5","midi":74,"time":"325.37","velocity":0.16535433070866143,"duration":"0.03"},{"name":"F#5","midi":78,"time":"325.37","velocity":0.2440944881889764,"duration":"0.02"},{"name":"A#3","midi":58,"time":"325.40","velocity":0.4094488188976378,"duration":"0.05"},{"name":"A#5","midi":82,"time":"325.40","velocity":0.23622047244094488,"duration":"0.02"},{"name":"D6","midi":86,"time":"325.40","velocity":0.30708661417322836,"duration":"0.16"},{"name":"F7","midi":101,"time":"325.40","velocity":0.18110236220472442,"duration":"0.10"},{"name":"B4","midi":71,"time":"325.41","velocity":0.36220472440944884,"duration":"0.13"},{"name":"E4","midi":64,"time":"325.44","velocity":0.3858267716535433,"duration":"0.22"},{"name":"F#6","midi":90,"time":"325.47","velocity":0.2440944881889764,"duration":"0.50"},{"name":"A#3","midi":58,"time":"325.48","velocity":0.4330708661417323,"duration":"0.03"},{"name":"F#5","midi":78,"time":"325.48","velocity":0.11023622047244094,"duration":"0.03"},{"name":"C7","midi":96,"time":"325.48","velocity":0.1968503937007874,"duration":"0.09"},{"name":"G7","midi":103,"time":"325.48","velocity":0.09448818897637795,"duration":"0.06"},{"name":"A5","midi":81,"time":"325.50","velocity":0.1968503937007874,"duration":"0.03"},{"name":"A3","midi":57,"time":"325.51","velocity":0.41732283464566927,"duration":"0.02"},{"name":"F7","midi":101,"time":"325.51","velocity":0.12598425196850394,"duration":"0.09"},{"name":"G#3","midi":56,"time":"325.53","velocity":0.41732283464566927,"duration":"0.03"},{"name":"C#5","midi":73,"time":"325.53","velocity":0.16535433070866143,"duration":"0.13"},{"name":"B4","midi":71,"time":"325.55","velocity":0.31496062992125984,"duration":"0.44"},{"name":"A5","midi":81,"time":"325.55","velocity":0.23622047244094488,"duration":"0.09"},{"name":"C#6","midi":85,"time":"325.56","velocity":0.2283464566929134,"duration":"0.08"},{"name":"G7","midi":103,"time":"325.57","velocity":0.11811023622047244,"duration":"0.07"},{"name":"G#3","midi":56,"time":"325.58","velocity":0.4566929133858268,"duration":"0.02"},{"name":"F#5","midi":78,"time":"325.58","velocity":0.2440944881889764,"duration":"0.02"},{"name":"C2","midi":36,"time":"325.59","velocity":0.1889763779527559,"duration":"0.03"},{"name":"D6","midi":86,"time":"325.59","velocity":0.3858267716535433,"duration":"0.35"},{"name":"C7","midi":96,"time":"325.60","velocity":0.2047244094488189,"duration":"0.26"},{"name":"D3","midi":50,"time":"325.63","velocity":0.5433070866141733,"duration":"0.03"},{"name":"F#5","midi":78,"time":"325.64","velocity":0.13385826771653545,"duration":"0.03"},{"name":"G6","midi":91,"time":"325.64","velocity":0.16535433070866143,"duration":"0.07"},{"name":"F4","midi":65,"time":"325.65","velocity":0.33070866141732286,"duration":"0.02"},{"name":"F7","midi":101,"time":"325.65","velocity":0.2125984251968504,"duration":"0.08"},{"name":"D#2","midi":39,"time":"325.66","velocity":0.3779527559055118,"duration":"0.02"},{"name":"G#3","midi":56,"time":"325.66","velocity":0.5039370078740157,"duration":"0.35"},{"name":"C#4","midi":61,"time":"325.66","velocity":0.23622047244094488,"duration":"0.03"},{"name":"C#3","midi":49,"time":"325.67","velocity":0.5748031496062992,"duration":"0.34"},{"name":"A6","midi":93,"time":"325.67","velocity":0.2440944881889764,"duration":"0.35"},{"name":"A#6","midi":94,"time":"325.67","velocity":0.14173228346456693,"duration":"0.07"},{"name":"E4","midi":64,"time":"325.69","velocity":0.4330708661417323,"duration":"0.19"},{"name":"F5","midi":77,"time":"325.70","velocity":0.2440944881889764,"duration":"0.03"},{"name":"C#2","midi":37,"time":"325.71","velocity":0.28346456692913385,"duration":"0.02"},{"name":"A5","midi":81,"time":"325.74","velocity":0.09448818897637795,"duration":"0.03"},{"name":"C6","midi":84,"time":"325.74","velocity":0.2047244094488189,"duration":"0.03"},{"name":"C2","midi":36,"time":"325.76","velocity":0.2755905511811024,"duration":"0.02"},{"name":"F#5","midi":78,"time":"325.76","velocity":0.1968503937007874,"duration":"0.03"},{"name":"A#6","midi":94,"time":"325.77","velocity":0.2047244094488189,"duration":"0.09"},{"name":"C#7","midi":97,"time":"325.77","velocity":0.29133858267716534,"duration":"0.50"},{"name":"C2","midi":36,"time":"325.80","velocity":0.25196850393700787,"duration":"0.02"},{"name":"F7","midi":101,"time":"325.81","velocity":0.12598425196850394,"duration":"0.06"},{"name":"G7","midi":103,"time":"325.81","velocity":0.08661417322834646,"duration":"0.03"},{"name":"E6","midi":88,"time":"325.84","velocity":0.14960629921259844,"duration":"0.07"},{"name":"C#5","midi":73,"time":"325.85","velocity":0.2204724409448819,"duration":"0.17"},{"name":"A4","midi":69,"time":"325.86","velocity":0.30708661417322836,"duration":"0.02"},{"name":"G7","midi":103,"time":"325.86","velocity":0.14173228346456693,"duration":"0.09"},{"name":"F6","midi":89,"time":"325.87","velocity":0.11023622047244094,"duration":"0.03"},{"name":"E4","midi":64,"time":"325.88","velocity":0.4566929133858268,"duration":"0.16"},{"name":"A#6","midi":94,"time":"325.88","velocity":0.14960629921259844,"duration":"0.23"},{"name":"C7","midi":96,"time":"325.88","velocity":0.1732283464566929,"duration":"0.03"},{"name":"C#2","midi":37,"time":"325.90","velocity":0.2992125984251969,"duration":"0.10"},{"name":"G6","midi":91,"time":"325.91","velocity":0.08661417322834646,"duration":"0.03"},{"name":"F5","midi":77,"time":"325.94","velocity":0.25984251968503935,"duration":"0.05"},{"name":"D#5","midi":75,"time":"325.95","velocity":0.3228346456692913,"duration":"0.12"},{"name":"C7","midi":96,"time":"325.98","velocity":0.2204724409448819,"duration":"0.47"},{"name":"F7","midi":101,"time":"325.99","velocity":0.16535433070866143,"duration":"0.03"},{"name":"G6","midi":91,"time":"326.00","velocity":0.11023622047244094,"duration":"0.09"},{"name":"C3","midi":48,"time":"326.01","velocity":0.5433070866141733,"duration":"0.02"},{"name":"A3","midi":57,"time":"326.01","velocity":0.3858267716535433,"duration":"0.02"},{"name":"D6","midi":86,"time":"326.01","velocity":0.28346456692913385,"duration":"0.09"},{"name":"F#6","midi":90,"time":"326.01","velocity":0.11811023622047244,"duration":"0.03"},{"name":"G7","midi":103,"time":"326.01","velocity":0.18110236220472442,"duration":"0.06"},{"name":"G#2","midi":44,"time":"326.02","velocity":0.5275590551181102,"duration":"0.01"},{"name":"C#6","midi":85,"time":"326.02","velocity":0.25196850393700787,"duration":"0.19"},{"name":"F#2","midi":42,"time":"326.03","velocity":0.6771653543307087,"duration":"0.01"},{"name":"E6","midi":88,"time":"326.03","velocity":0.1968503937007874,"duration":"0.09"},{"name":"F2","midi":41,"time":"326.05","velocity":0.6614173228346457,"duration":"0.01"},{"name":"F#4","midi":66,"time":"326.05","velocity":0.36220472440944884,"duration":"0.02"},{"name":"A4","midi":69,"time":"326.05","velocity":0.33070866141732286,"duration":"0.02"},{"name":"D5","midi":74,"time":"326.05","velocity":0.30708661417322836,"duration":"0.02"},{"name":"F6","midi":89,"time":"326.05","velocity":0.10236220472440945,"duration":"0.05"},{"name":"F7","midi":101,"time":"326.05","velocity":0.1968503937007874,"duration":"0.14"},{"name":"E1","midi":28,"time":"326.06","velocity":0.5826771653543307,"duration":"0.03"},{"name":"C#4","midi":61,"time":"326.06","velocity":0.3779527559055118,"duration":"0.06"},{"name":"G5","midi":79,"time":"326.06","velocity":0.23622047244094488,"duration":"0.02"},{"name":"A6","midi":93,"time":"326.06","velocity":0.16535433070866143,"duration":"0.13"},{"name":"E5","midi":76,"time":"326.07","velocity":0.3464566929133858,"duration":"0.13"},{"name":"F#5","midi":78,"time":"326.07","velocity":0.1732283464566929,"duration":"0.06"},{"name":"F#6","midi":90,"time":"326.07","velocity":0.1732283464566929,"duration":"0.07"},{"name":"E4","midi":64,"time":"326.08","velocity":0.31496062992125984,"duration":"0.14"},{"name":"B4","midi":71,"time":"326.08","velocity":0.33070866141732286,"duration":"0.34"},{"name":"F1","midi":29,"time":"326.09","velocity":0.5669291338582677,"duration":"0.01"},{"name":"C#3","midi":49,"time":"326.09","velocity":0.5826771653543307,"duration":"0.01"},{"name":"C3","midi":48,"time":"326.10","velocity":0.6141732283464567,"duration":"0.01"},{"name":"G6","midi":91,"time":"326.10","velocity":0.12598425196850394,"duration":"0.03"},{"name":"D7","midi":98,"time":"326.10","velocity":0.18110236220472442,"duration":"0.17"},{"name":"C#3","midi":49,"time":"326.12","velocity":0.5905511811023622,"duration":"0.06"},{"name":"G7","midi":103,"time":"326.12","velocity":0.14960629921259844,"duration":"0.14"},{"name":"G#4","midi":68,"time":"326.13","velocity":0.5118110236220472,"duration":"0.22"},{"name":"C2","midi":36,"time":"326.14","velocity":0.47244094488188976,"duration":"0.05"},{"name":"G#3","midi":56,"time":"326.14","velocity":0.4094488188976378,"duration":"0.03"},{"name":"A#6","midi":94,"time":"326.14","velocity":0.09448818897637795,"duration":"0.03"},{"name":"F6","midi":89,"time":"326.15","velocity":0.10236220472440945,"duration":"0.06"},{"name":"F#6","midi":90,"time":"326.16","velocity":0.1889763779527559,"duration":"0.08"},{"name":"C3","midi":48,"time":"326.17","velocity":0.5354330708661418,"duration":"0.01"},{"name":"C#3","midi":49,"time":"326.19","velocity":0.5511811023622047,"duration":"0.21"},{"name":"G#3","midi":56,"time":"326.19","velocity":0.4566929133858268,"duration":"0.22"},{"name":"D#5","midi":75,"time":"326.19","velocity":0.2992125984251969,"duration":"0.05"},{"name":"D6","midi":86,"time":"326.19","velocity":0.25984251968503935,"duration":"0.10"},{"name":"G6","midi":91,"time":"326.19","velocity":0.11811023622047244,"duration":"0.07"},{"name":"E6","midi":88,"time":"326.20","velocity":0.14960629921259844,"duration":"0.07"},{"name":"E5","midi":76,"time":"326.23","velocity":0.28346456692913385,"duration":"0.13"},{"name":"F6","midi":89,"time":"326.23","velocity":0.18110236220472442,"duration":"0.07"},{"name":"A#6","midi":94,"time":"326.23","velocity":0.13385826771653545,"duration":"0.08"},{"name":"A#1","midi":34,"time":"326.26","velocity":0.4015748031496063,"duration":"0.02"},{"name":"F#5","midi":78,"time":"326.26","velocity":0.1968503937007874,"duration":"0.07"},{"name":"G6","midi":91,"time":"326.27","velocity":0.09448818897637795,"duration":"0.08"},{"name":"G7","midi":103,"time":"326.27","velocity":0.14960629921259844,"duration":"0.13"},{"name":"F#6","midi":90,"time":"326.28","velocity":0.1968503937007874,"duration":"0.07"},{"name":"C#7","midi":97,"time":"326.28","velocity":0.30708661417322836,"duration":"0.19"},{"name":"A5","midi":81,"time":"326.29","velocity":0.1889763779527559,"duration":"0.03"},{"name":"C6","midi":84,"time":"326.29","velocity":0.09448818897637795,"duration":"0.03"},{"name":"F#7","midi":102,"time":"326.29","velocity":0.2755905511811024,"duration":"1.73"},{"name":"D6","midi":86,"time":"326.30","velocity":0.2125984251968504,"duration":"0.03"},{"name":"C2","midi":36,"time":"326.33","velocity":0.3543307086614173,"duration":"0.03"},{"name":"A6","midi":93,"time":"326.33","velocity":0.10236220472440945,"duration":"0.03"},{"name":"E4","midi":64,"time":"326.34","velocity":0.23622047244094488,"duration":"0.02"},{"name":"D#5","midi":75,"time":"326.35","velocity":0.33858267716535434,"duration":"0.08"},{"name":"D6","midi":86,"time":"326.35","velocity":0.2125984251968504,"duration":"0.06"},{"name":"C#2","midi":37,"time":"326.37","velocity":0.31496062992125984,"duration":"0.02"},{"name":"A#6","midi":94,"time":"326.37","velocity":0.2125984251968504,"duration":"0.21"},{"name":"F7","midi":101,"time":"326.38","velocity":0.2125984251968504,"duration":"0.08"},{"name":"D3","midi":50,"time":"326.40","velocity":0.49606299212598426,"duration":"0.02"},{"name":"F#4","midi":66,"time":"326.40","velocity":0.28346456692913385,"duration":"0.02"},{"name":"A4","midi":69,"time":"326.40","velocity":0.3700787401574803,"duration":"0.06"},{"name":"C#6","midi":85,"time":"326.40","velocity":0.33070866141732286,"duration":"0.16"},{"name":"F2","midi":41,"time":"326.41","velocity":0.5511811023622047,"duration":"0.01"},{"name":"F#6","midi":90,"time":"326.41","velocity":0.2755905511811024,"duration":"0.41"},{"name":"D7","midi":98,"time":"326.41","velocity":0.1889763779527559,"duration":"0.28"},{"name":"E7","midi":100,"time":"326.41","velocity":0.1889763779527559,"duration":"0.34"},{"name":"F#2","midi":42,"time":"326.42","velocity":0.6299212598425197,"duration":"0.01"},{"name":"C5","midi":72,"time":"326.42","velocity":0.23622047244094488,"duration":"0.02"},{"name":"E5","midi":76,"time":"326.42","velocity":0.2677165354330709,"duration":"0.03"},{"name":"A6","midi":93,"time":"326.42","velocity":0.15748031496062992,"duration":"0.06"},{"name":"B6","midi":95,"time":"326.42","velocity":0.1968503937007874,"duration":"0.05"},{"name":"G7","midi":103,"time":"326.42","velocity":0.1889763779527559,"duration":"0.19"},{"name":"F2","midi":41,"time":"326.43","velocity":0.6377952755905512,"duration":"0.02"},{"name":"D3","midi":50,"time":"326.43","velocity":0.5590551181102362,"duration":"0.01"},{"name":"G#3","midi":56,"time":"326.43","velocity":0.5039370078740157,"duration":"0.35"},{"name":"D5","midi":74,"time":"326.43","velocity":0.2677165354330709,"duration":"0.02"},{"name":"B5","midi":83,"time":"326.43","velocity":0.3779527559055118,"duration":"1.06"},{"name":"B4","midi":71,"time":"326.44","velocity":0.49606299212598426,"duration":"0.36"},{"name":"F#2","midi":42,"time":"326.45","velocity":0.5118110236220472,"duration":"0.01"},{"name":"D#5","midi":75,"time":"326.45","velocity":0.2204724409448819,"duration":"0.09"},{"name":"F5","midi":77,"time":"326.45","velocity":0.2283464566929134,"duration":"0.02"},{"name":"C7","midi":96,"time":"326.45","velocity":0.16535433070866143,"duration":"0.28"},{"name":"E1","midi":28,"time":"326.47","velocity":0.5511811023622047,"duration":"0.01"},{"name":"G#2","midi":44,"time":"326.47","velocity":0.5433070866141733,"duration":"0.01"},{"name":"F4","midi":65,"time":"326.47","velocity":0.33858267716535434,"duration":"0.02"},{"name":"F#5","midi":78,"time":"326.47","velocity":0.09448818897637795,"duration":"0.03"},{"name":"F1","midi":29,"time":"326.48","velocity":0.5590551181102362,"duration":"0.01"},{"name":"B2","midi":47,"time":"326.48","velocity":0.5511811023622047,"duration":"0.01"},{"name":"E4","midi":64,"time":"326.48","velocity":0.4881889763779528,"duration":"0.31"},{"name":"C#3","midi":49,"time":"326.49","velocity":0.5511811023622047,"duration":"0.33"},{"name":"F7","midi":101,"time":"326.49","velocity":0.15748031496062992,"duration":"0.03"},{"name":"F5","midi":77,"time":"326.50","velocity":0.10236220472440945,"duration":"0.03"},{"name":"B1","midi":35,"time":"326.51","velocity":0.47244094488188976,"duration":"0.02"},{"name":"A5","midi":81,"time":"326.51","velocity":0.11811023622047244,"duration":"0.05"},{"name":"A6","midi":93,"time":"326.52","velocity":0.14960629921259844,"duration":"0.07"},{"name":"D#1","midi":27,"time":"326.55","velocity":0.3543307086614173,"duration":"0.02"},{"name":"D6","midi":86,"time":"326.55","velocity":0.31496062992125984,"duration":"0.16"},{"name":"G#4","midi":68,"time":"326.59","velocity":0.5590551181102362,"duration":"0.48"},{"name":"G6","midi":91,"time":"326.59","velocity":0.10236220472440945,"duration":"0.03"},{"name":"C#5","midi":73,"time":"326.60","velocity":0.33070866141732286,"duration":"0.20"},{"name":"A6","midi":93,"time":"326.60","velocity":0.16535433070866143,"duration":"0.06"},{"name":"A#6","midi":94,"time":"326.60","velocity":0.12598425196850394,"duration":"0.10"},{"name":"F#5","midi":78,"time":"326.63","velocity":0.14173228346456693,"duration":"0.05"},{"name":"B1","midi":35,"time":"326.64","velocity":0.33858267716535434,"duration":"0.02"},{"name":"D#5","midi":75,"time":"326.64","velocity":0.3858267716535433,"duration":"0.14"},{"name":"F7","midi":101,"time":"326.64","velocity":0.11811023622047244,"duration":"0.08"},{"name":"C#2","midi":37,"time":"326.67","velocity":0.3228346456692913,"duration":"0.03"},{"name":"F6","midi":89,"time":"326.69","velocity":0.08661417322834646,"duration":"0.07"},{"name":"F5","midi":77,"time":"326.70","velocity":0.31496062992125984,"duration":"0.08"},{"name":"C2","midi":36,"time":"326.71","velocity":0.3228346456692913,"duration":"0.02"},{"name":"D7","midi":98,"time":"326.71","velocity":0.14173228346456693,"duration":"0.06"},{"name":"G7","midi":103,"time":"326.71","velocity":0.1889763779527559,"duration":"0.17"},{"name":"E6","midi":88,"time":"326.72","velocity":0.30708661417322836,"duration":"0.14"},{"name":"A#6","midi":94,"time":"326.73","velocity":0.2440944881889764,"duration":"0.27"},{"name":"C7","midi":96,"time":"326.76","velocity":0.2283464566929134,"duration":"0.30"},{"name":"D6","midi":86,"time":"326.77","velocity":0.15748031496062992,"duration":"0.05"},{"name":"G6","midi":91,"time":"326.77","velocity":0.25984251968503935,"duration":"0.13"},{"name":"C#7","midi":97,"time":"326.77","velocity":0.25196850393700787,"duration":"0.34"},{"name":"G5","midi":79,"time":"326.78","velocity":0.3464566929133858,"duration":"0.02"},{"name":"A5","midi":81,"time":"326.78","velocity":0.2992125984251969,"duration":"0.03"},{"name":"C6","midi":84,"time":"326.78","velocity":0.2440944881889764,"duration":"0.02"},{"name":"D7","midi":98,"time":"326.78","velocity":0.25984251968503935,"duration":"0.40"},{"name":"F7","midi":101,"time":"326.78","velocity":0.2440944881889764,"duration":"0.20"},{"name":"G#1","midi":32,"time":"326.79","velocity":0.3228346456692913,"duration":"0.02"},{"name":"D#5","midi":75,"time":"326.79","velocity":0.3700787401574803,"duration":"0.08"},{"name":"F5","midi":77,"time":"326.79","velocity":0.4015748031496063,"duration":"0.07"},{"name":"E4","midi":64,"time":"326.80","velocity":0.3937007874015748,"duration":"0.02"},{"name":"A#4","midi":70,"time":"326.80","velocity":0.5039370078740157,"duration":"0.02"},{"name":"D#2","midi":39,"time":"326.81","velocity":0.44881889763779526,"duration":"0.02"},{"name":"F#4","midi":66,"time":"326.81","velocity":0.41732283464566927,"duration":"0.02"},{"name":"C5","midi":72,"time":"326.81","velocity":0.2755905511811024,"duration":"0.08"},{"name":"C#5","midi":73,"time":"326.81","velocity":0.25196850393700787,"duration":"0.03"},{"name":"C#3","midi":49,"time":"326.83","velocity":0.5354330708661418,"duration":"0.01"},{"name":"D6","midi":86,"time":"326.83","velocity":0.23622047244094488,"duration":"0.02"},{"name":"D3","midi":50,"time":"326.84","velocity":0.5590551181102362,"duration":"0.01"},{"name":"C#4","midi":61,"time":"326.84","velocity":0.36220472440944884,"duration":"0.03"},{"name":"A#5","midi":82,"time":"326.84","velocity":0.23622047244094488,"duration":"0.02"},{"name":"C#6","midi":85,"time":"326.84","velocity":0.2992125984251969,"duration":"0.15"},{"name":"C#3","midi":49,"time":"326.85","velocity":0.5433070866141733,"duration":"0.30"},{"name":"D#6","midi":87,"time":"326.85","velocity":0.4330708661417323,"duration":"0.77"},{"name":"G3","midi":55,"time":"326.86","velocity":0.4015748031496063,"duration":"0.02"},{"name":"E4","midi":64,"time":"326.86","velocity":0.4251968503937008,"duration":"0.17"},{"name":"A5","midi":81,"time":"326.86","velocity":0.12598425196850394,"duration":"0.03"},{"name":"A6","midi":93,"time":"326.87","velocity":0.14960629921259844,"duration":"0.21"},{"name":"C2","midi":36,"time":"326.88","velocity":0.2677165354330709,"duration":"0.03"},{"name":"C#5","midi":73,"time":"326.90","velocity":0.31496062992125984,"duration":"0.15"},{"name":"D6","midi":86,"time":"326.90","velocity":0.25196850393700787,"duration":"0.05"},{"name":"G3","midi":55,"time":"326.91","velocity":0.3779527559055118,"duration":"0.02"},{"name":"A#3","midi":58,"time":"326.91","velocity":0.3700787401574803,"duration":"0.02"},{"name":"A3","midi":57,"time":"326.93","velocity":0.41732283464566927,"duration":"0.02"},{"name":"G6","midi":91,"time":"326.93","velocity":0.12598425196850394,"duration":"0.08"},{"name":"G7","midi":103,"time":"326.93","velocity":0.14173228346456693,"duration":"0.13"},{"name":"C2","midi":36,"time":"326.94","velocity":0.2283464566929134,"duration":"0.02"},{"name":"B4","midi":71,"time":"326.95","velocity":0.33070866141732286,"duration":"0.22"},{"name":"F#5","midi":78,"time":"326.95","velocity":0.2283464566929134,"duration":"0.02"},{"name":"D6","midi":86,"time":"326.97","velocity":0.3228346456692913,"duration":"0.52"},{"name":"C6","midi":84,"time":"326.98","velocity":0.1732283464566929,"duration":"0.05"},{"name":"C2","midi":36,"time":"326.99","velocity":0.25196850393700787,"duration":"0.02"},{"name":"G#3","midi":56,"time":"326.99","velocity":0.3858267716535433,"duration":"0.02"},{"name":"F#6","midi":90,"time":"326.99","velocity":0.2125984251968504,"duration":"0.35"},{"name":"F#5","midi":78,"time":"327.00","velocity":0.11811023622047244,"duration":"0.03"},{"name":"F7","midi":101,"time":"327.00","velocity":0.08661417322834646,"duration":"0.07"},{"name":"A5","midi":81,"time":"327.01","velocity":0.16535433070866143,"duration":"0.05"},{"name":"G3","midi":55,"time":"327.03","velocity":0.3700787401574803,"duration":"0.02"},{"name":"E4","midi":64,"time":"327.05","velocity":0.3937007874015748,"duration":"0.13"},{"name":"C#5","midi":73,"time":"327.06","velocity":0.18110236220472442,"duration":"0.06"},{"name":"F#5","midi":78,"time":"327.06","velocity":0.2204724409448819,"duration":"0.10"},{"name":"A5","midi":81,"time":"327.07","velocity":0.14960629921259844,"duration":"0.08"},{"name":"A#6","midi":94,"time":"327.08","velocity":0.1968503937007874,"duration":"0.12"},{"name":"C7","midi":96,"time":"327.08","velocity":0.14960629921259844,"duration":"0.06"},{"name":"G#4","midi":68,"time":"327.09","velocity":0.5354330708661418,"duration":"0.29"},{"name":"G#3","midi":56,"time":"327.12","velocity":0.4330708661417323,"duration":"0.02"},{"name":"G6","midi":91,"time":"327.13","velocity":0.14173228346456693,"duration":"0.05"},{"name":"C#7","midi":97,"time":"327.13","velocity":0.3858267716535433,"duration":"0.65"},{"name":"G7","midi":103,"time":"327.13","velocity":0.1732283464566929,"duration":"0.23"},{"name":"A6","midi":93,"time":"327.14","velocity":0.14960629921259844,"duration":"0.09"},{"name":"D3","midi":50,"time":"327.15","velocity":0.5433070866141733,"duration":"0.05"},{"name":"C7","midi":96,"time":"327.15","velocity":0.2204724409448819,"duration":"0.15"},{"name":"E2","midi":40,"time":"327.16","velocity":0.5433070866141733,"duration":"0.03"},{"name":"C#5","midi":73,"time":"327.16","velocity":0.18110236220472442,"duration":"0.06"},{"name":"C6","midi":84,"time":"327.16","velocity":0.2677165354330709,"duration":"0.03"},{"name":"F6","midi":89,"time":"327.16","velocity":0.07874015748031496,"duration":"0.08"},{"name":"D#4","midi":63,"time":"327.17","velocity":0.29133858267716534,"duration":"0.02"},{"name":"A#4","midi":70,"time":"327.17","velocity":0.2992125984251969,"duration":"0.02"},{"name":"F7","midi":101,"time":"327.17","velocity":0.2047244094488189,"duration":"0.09"},{"name":"G#3","midi":56,"time":"327.19","velocity":0.5118110236220472,"duration":"0.33"},{"name":"C#3","midi":49,"time":"327.20","velocity":0.5354330708661418,"duration":"0.29"},{"name":"E4","midi":64,"time":"327.20","velocity":0.2677165354330709,"duration":"0.02"},{"name":"G5","midi":79,"time":"327.20","velocity":0.23622047244094488,"duration":"0.05"},{"name":"A1","midi":33,"time":"327.21","velocity":0.2440944881889764,"duration":"0.02"},{"name":"B4","midi":71,"time":"327.22","velocity":0.2992125984251969,"duration":"0.02"},{"name":"A#6","midi":94,"time":"327.22","velocity":0.2047244094488189,"duration":"0.03"},{"name":"A6","midi":93,"time":"327.26","velocity":0.14173228346456693,"duration":"0.07"},{"name":"G5","midi":79,"time":"327.27","velocity":0.25984251968503935,"duration":"0.07"},{"name":"E4","midi":64,"time":"327.28","velocity":0.4094488188976378,"duration":"0.20"},{"name":"A#6","midi":94,"time":"327.30","velocity":0.2047244094488189,"duration":"0.14"},{"name":"C2","midi":36,"time":"327.31","velocity":0.3228346456692913,"duration":"0.02"},{"name":"B4","midi":71,"time":"327.33","velocity":0.2992125984251969,"duration":"0.05"},{"name":"D#5","midi":75,"time":"327.33","velocity":0.25196850393700787,"duration":"0.07"},{"name":"C#2","midi":37,"time":"327.34","velocity":0.29133858267716534,"duration":"0.02"},{"name":"A6","midi":93,"time":"327.34","velocity":0.15748031496062992,"duration":"0.14"},{"name":"G5","midi":79,"time":"327.35","velocity":0.25196850393700787,"duration":"0.05"},{"name":"F#6","midi":90,"time":"327.35","velocity":0.16535433070866143,"duration":"0.14"},{"name":"C#2","midi":37,"time":"327.37","velocity":0.3228346456692913,"duration":"0.08"},{"name":"B4","midi":71,"time":"327.38","velocity":0.2440944881889764,"duration":"0.02"},{"name":"C7","midi":96,"time":"327.38","velocity":0.2283464566929134,"duration":"0.38"},{"name":"A4","midi":69,"time":"327.40","velocity":0.44881889763779526,"duration":"0.13"},{"name":"F#5","midi":78,"time":"327.40","velocity":0.1889763779527559,"duration":"0.06"},{"name":"F7","midi":101,"time":"327.42","velocity":0.11811023622047244,"duration":"0.06"},{"name":"F5","midi":77,"time":"327.43","velocity":0.13385826771653545,"duration":"0.06"},{"name":"D#5","midi":75,"time":"327.44","velocity":0.1889763779527559,"duration":"0.05"},{"name":"C2","midi":36,"time":"327.45","velocity":0.29133858267716534,"duration":"0.02"},{"name":"C6","midi":84,"time":"327.47","velocity":0.1889763779527559,"duration":"0.20"},{"name":"C2","midi":36,"time":"327.49","velocity":0.3858267716535433,"duration":"0.02"},{"name":"D3","midi":50,"time":"327.49","velocity":0.5433070866141733,"duration":"0.03"},{"name":"E5","midi":76,"time":"327.49","velocity":0.30708661417322836,"duration":"0.08"},{"name":"E4","midi":64,"time":"327.50","velocity":0.3464566929133858,"duration":"0.03"},{"name":"F7","midi":101,"time":"327.50","velocity":0.2283464566929134,"duration":"0.09"},{"name":"G7","midi":103,"time":"327.50","velocity":0.1889763779527559,"duration":"0.06"},{"name":"E2","midi":40,"time":"327.51","velocity":0.5118110236220472,"duration":"0.01"},{"name":"G6","midi":91,"time":"327.51","velocity":0.16535433070866143,"duration":"0.06"},{"name":"D2","midi":38,"time":"327.52","velocity":0.6062992125984252,"duration":"0.01"},{"name":"G#4","midi":68,"time":"327.52","velocity":0.4566929133858268,"duration":"0.02"},{"name":"C#5","midi":73,"time":"327.52","velocity":0.2992125984251969,"duration":"0.09"},{"name":"C#6","midi":85,"time":"327.52","velocity":0.3700787401574803,"duration":"0.23"},{"name":"D6","midi":86,"time":"327.52","velocity":0.1889763779527559,"duration":"0.05"},{"name":"D#2","midi":39,"time":"327.53","velocity":0.6850393700787402,"duration":"0.01"},{"name":"F#4","midi":66,"time":"327.53","velocity":0.4409448818897638,"duration":"0.03"},{"name":"G5","midi":79,"time":"327.53","velocity":0.25984251968503935,"duration":"0.02"},{"name":"E2","midi":40,"time":"327.55","velocity":0.6771653543307087,"duration":"0.01"},{"name":"F2","midi":41,"time":"327.56","velocity":0.5905511811023622,"duration":"0.01"},{"name":"F1","midi":29,"time":"327.57","velocity":0.5511811023622047,"duration":"0.01"},{"name":"G2","midi":43,"time":"327.57","velocity":0.5196850393700787,"duration":"0.01"},{"name":"D4","midi":62,"time":"327.57","velocity":0.5905511811023622,"duration":"0.72"},{"name":"A4","midi":69,"time":"327.57","velocity":0.5511811023622047,"duration":"0.34"},{"name":"F#6","midi":90,"time":"327.57","velocity":0.33858267716535434,"duration":"0.38"},{"name":"E1","midi":28,"time":"327.58","velocity":0.6141732283464567,"duration":"0.01"},{"name":"A3","midi":57,"time":"327.58","velocity":0.48031496062992124,"duration":"0.26"},{"name":"F#4","midi":66,"time":"327.58","velocity":0.33858267716535434,"duration":"0.22"},{"name":"A#6","midi":94,"time":"327.58","velocity":0.1732283464566929,"duration":"0.40"},{"name":"F1","midi":29,"time":"327.59","velocity":0.5669291338582677,"duration":"0.01"},{"name":"E5","midi":76,"time":"327.59","velocity":0.2440944881889764,"duration":"0.08"},{"name":"F6","midi":89,"time":"327.59","velocity":0.07874015748031496,"duration":"0.05"},{"name":"G6","midi":91,"time":"327.59","velocity":0.23622047244094488,"duration":"0.15"},{"name":"D3","midi":50,"time":"327.62","velocity":0.5196850393700787,"duration":"0.02"},{"name":"G#1","midi":32,"time":"327.63","velocity":0.3858267716535433,"duration":"0.02"},{"name":"C#5","midi":73,"time":"327.63","velocity":0.2440944881889764,"duration":"0.08"},{"name":"G7","midi":103,"time":"327.63","velocity":0.2677165354330709,"duration":"0.45"},{"name":"D#6","midi":87,"time":"327.64","velocity":0.18110236220472442,"duration":"0.28"},{"name":"D3","midi":50,"time":"327.65","velocity":0.5433070866141733,"duration":"0.24"},{"name":"B5","midi":83,"time":"327.67","velocity":0.09448818897637795,"duration":"0.06"},{"name":"C6","midi":84,"time":"327.69","velocity":0.1732283464566929,"duration":"0.12"},{"name":"B1","midi":35,"time":"327.71","velocity":0.3228346456692913,"duration":"0.02"},{"name":"G#5","midi":80,"time":"327.73","velocity":0.2125984251968504,"duration":"0.06"},{"name":"A#5","midi":82,"time":"327.74","velocity":0.1968503937007874,"duration":"0.07"},{"name":"E5","midi":76,"time":"327.76","velocity":0.14960629921259844,"duration":"0.09"},{"name":"G6","midi":91,"time":"327.76","velocity":0.2125984251968504,"duration":"0.05"},{"name":"F#5","midi":78,"time":"327.77","velocity":0.5275590551181102,"duration":"0.83"},{"name":"C#6","midi":85,"time":"327.77","velocity":0.3700787401574803,"duration":"1.05"},{"name":"C#7","midi":97,"time":"327.79","velocity":0.4645669291338583,"duration":"4.06"},{"name":"F#4","midi":66,"time":"327.81","velocity":0.1732283464566929,"duration":"0.05"},{"name":"G6","midi":91,"time":"327.81","velocity":0.2125984251968504,"duration":"0.06"},{"name":"C#5","midi":73,"time":"327.83","velocity":0.28346456692913385,"duration":"0.10"},{"name":"C6","midi":84,"time":"327.84","velocity":0.18110236220472442,"duration":"0.08"},{"name":"C#2","midi":37,"time":"327.85","velocity":0.4330708661417323,"duration":"0.02"},{"name":"A3","midi":57,"time":"327.85","velocity":0.3858267716535433,"duration":"0.03"},{"name":"B6","midi":95,"time":"327.86","velocity":0.1732283464566929,"duration":"0.22"},{"name":"D2","midi":38,"time":"327.87","velocity":0.36220472440944884,"duration":"0.02"},{"name":"F#4","midi":66,"time":"327.87","velocity":0.47244094488188976,"duration":"0.41"},{"name":"G#5","midi":80,"time":"327.87","velocity":0.28346456692913385,"duration":"0.07"},{"name":"D#7","midi":99,"time":"327.87","velocity":0.2283464566929134,"duration":"0.22"},{"name":"G#4","midi":68,"time":"327.90","velocity":0.3228346456692913,"duration":"0.02"},{"name":"D2","midi":38,"time":"327.91","velocity":0.5196850393700787,"duration":"0.01"},{"name":"D#3","midi":51,"time":"327.91","velocity":0.4881889763779528,"duration":"0.02"},{"name":"A3","midi":57,"time":"327.91","velocity":0.4094488188976378,"duration":"0.12"},{"name":"G6","midi":91,"time":"327.91","velocity":0.13385826771653545,"duration":"0.08"},{"name":"E2","midi":40,"time":"327.92","velocity":0.5433070866141733,"duration":"0.05"},{"name":"A#4","midi":70,"time":"327.92","velocity":0.2677165354330709,"duration":"0.02"},{"name":"E5","midi":76,"time":"327.92","velocity":0.2047244094488189,"duration":"0.10"},{"name":"D6","midi":86,"time":"327.92","velocity":0.2125984251968504,"duration":"0.27"},{"name":"F6","midi":89,"time":"327.92","velocity":0.16535433070866143,"duration":"0.07"},{"name":"D3","midi":50,"time":"327.93","velocity":0.6220472440944882,"duration":"0.36"},{"name":"C6","midi":84,"time":"327.93","velocity":0.2992125984251969,"duration":"0.15"},{"name":"D#6","midi":87,"time":"327.93","velocity":0.23622047244094488,"duration":"0.03"},{"name":"A4","midi":69,"time":"327.94","velocity":0.5905511811023622,"duration":"0.37"},{"name":"C#5","midi":73,"time":"327.95","velocity":0.1732283464566929,"duration":"0.07"},{"name":"F7","midi":101,"time":"327.95","velocity":0.1889763779527559,"duration":"0.12"},{"name":"D#6","midi":87,"time":"327.98","velocity":0.2283464566929134,"duration":"0.22"},{"name":"D2","midi":38,"time":"327.99","velocity":0.2677165354330709,"duration":"0.02"},{"name":"G#5","midi":80,"time":"327.99","velocity":0.2283464566929134,"duration":"0.09"},{"name":"E6","midi":88,"time":"328.01","velocity":0.25196850393700787,"duration":"0.07"},{"name":"D#2","midi":39,"time":"328.02","velocity":0.2440944881889764,"duration":"0.02"},{"name":"A3","midi":57,"time":"328.03","velocity":0.4409448818897638,"duration":"0.23"},{"name":"C#5","midi":73,"time":"328.06","velocity":0.2283464566929134,"duration":"0.05"},{"name":"A#6","midi":94,"time":"328.06","velocity":0.31496062992125984,"duration":"0.27"},{"name":"E5","midi":76,"time":"328.07","velocity":0.11023622047244094,"duration":"0.07"},{"name":"C#2","midi":37,"time":"328.09","velocity":0.25984251968503935,"duration":"0.02"},{"name":"C6","midi":84,"time":"328.10","velocity":0.1732283464566929,"duration":"0.20"},{"name":"E6","midi":88,"time":"328.10","velocity":0.29133858267716534,"duration":"0.26"},{"name":"B6","midi":95,"time":"328.10","velocity":0.11811023622047244,"duration":"0.06"},{"name":"D#2","midi":39,"time":"328.12","velocity":0.23622047244094488,"duration":"0.02"},{"name":"G#5","midi":80,"time":"328.12","velocity":0.2677165354330709,"duration":"0.05"},{"name":"G6","midi":91,"time":"328.14","velocity":0.13385826771653545,"duration":"0.05"},{"name":"E5","midi":76,"time":"328.16","velocity":0.16535433070866143,"duration":"0.07"},{"name":"D2","midi":38,"time":"328.20","velocity":0.2755905511811024,"duration":"0.07"},{"name":"C#5","midi":73,"time":"328.21","velocity":0.29133858267716534,"duration":"0.09"},{"name":"D#6","midi":87,"time":"328.21","velocity":0.09448818897637795,"duration":"0.05"},{"name":"A6","midi":93,"time":"328.21","velocity":0.3228346456692913,"duration":"1.30"},{"name":"G#6","midi":92,"time":"328.24","velocity":0.2283464566929134,"duration":"0.05"},{"name":"E7","midi":100,"time":"328.26","velocity":0.31496062992125984,"duration":"1.17"},{"name":"G5","midi":79,"time":"328.27","velocity":0.3464566929133858,"duration":"0.03"},{"name":"F6","midi":89,"time":"328.27","velocity":0.2755905511811024,"duration":"0.05"},{"name":"C7","midi":96,"time":"328.27","velocity":0.2440944881889764,"duration":"0.10"},{"name":"F#3","midi":54,"time":"328.28","velocity":0.44881889763779526,"duration":"0.02"},{"name":"F5","midi":77,"time":"328.28","velocity":0.3937007874015748,"duration":"0.03"},{"name":"B5","midi":83,"time":"328.28","velocity":0.28346456692913385,"duration":"0.02"},{"name":"D6","midi":86,"time":"328.28","velocity":0.2440944881889764,"duration":"0.24"},{"name":"C#4","midi":61,"time":"328.29","velocity":0.5826771653543307,"duration":"0.01"},{"name":"D#5","midi":75,"time":"328.29","velocity":0.36220472440944884,"duration":"0.05"},{"name":"A#5","midi":82,"time":"328.29","velocity":0.30708661417322836,"duration":"0.02"},{"name":"D#7","midi":99,"time":"328.29","velocity":0.25196850393700787,"duration":"0.24"},{"name":"D3","midi":50,"time":"328.30","velocity":0.5748031496062992,"duration":"0.34"},{"name":"G#6","midi":92,"time":"328.30","velocity":0.23622047244094488,"duration":"0.40"},{"name":"F4","midi":65,"time":"328.31","velocity":0.3937007874015748,"duration":"0.03"},{"name":"A#4","midi":70,"time":"328.31","velocity":0.4094488188976378,"duration":"0.02"},{"name":"E5","midi":76,"time":"328.31","velocity":0.33858267716535434,"duration":"0.09"},{"name":"G#5","midi":80,"time":"328.31","velocity":0.2992125984251969,"duration":"0.03"},{"name":"C#5","midi":73,"time":"328.33","velocity":0.33858267716535434,"duration":"0.07"},{"name":"G6","midi":91,"time":"328.33","velocity":0.1968503937007874,"duration":"0.10"},{"name":"A3","midi":57,"time":"328.34","velocity":0.47244094488188976,"duration":"0.02"},{"name":"A4","midi":69,"time":"328.34","velocity":0.4881889763779528,"duration":"0.44"},{"name":"F#4","midi":66,"time":"328.35","velocity":0.4409448818897638,"duration":"0.07"},{"name":"G#5","midi":80,"time":"328.36","velocity":0.2283464566929134,"duration":"0.03"},{"name":"A#5","midi":82,"time":"328.36","velocity":0.2440944881889764,"duration":"0.02"},{"name":"C6","midi":84,"time":"328.36","velocity":0.2204724409448819,"duration":"0.16"},{"name":"A3","midi":57,"time":"328.38","velocity":0.41732283464566927,"duration":"0.07"},{"name":"D#6","midi":87,"time":"328.38","velocity":0.15748031496062992,"duration":"0.15"},{"name":"C5","midi":72,"time":"328.40","velocity":0.23622047244094488,"duration":"0.02"},{"name":"F4","midi":65,"time":"328.42","velocity":0.2283464566929134,"duration":"0.02"},{"name":"B5","midi":83,"time":"328.43","velocity":0.2440944881889764,"duration":"0.08"},{"name":"F#4","midi":66,"time":"328.44","velocity":0.47244094488188976,"duration":"0.58"},{"name":"E5","midi":76,"time":"328.44","velocity":0.3464566929133858,"duration":"0.14"},{"name":"G7","midi":103,"time":"328.45","velocity":0.12598425196850394,"duration":"0.08"},{"name":"A3","midi":57,"time":"328.47","velocity":0.4409448818897638,"duration":"0.03"},{"name":"C#4","midi":61,"time":"328.47","velocity":0.23622047244094488,"duration":"0.02"},{"name":"G6","midi":91,"time":"328.47","velocity":0.14173228346456693,"duration":"0.06"},{"name":"C#2","midi":37,"time":"328.48","velocity":0.2677165354330709,"duration":"0.02"},{"name":"C#2","midi":37,"time":"328.51","velocity":0.30708661417322836,"duration":"0.02"},{"name":"G#3","midi":56,"time":"328.52","velocity":0.4015748031496063,"duration":"0.03"},{"name":"C#4","midi":61,"time":"328.52","velocity":0.2992125984251969,"duration":"0.03"},{"name":"C7","midi":96,"time":"328.52","velocity":0.09448818897637795,"duration":"0.08"},{"name":"B5","midi":83,"time":"328.53","velocity":0.28346456692913385,"duration":"0.12"},{"name":"G6","midi":91,"time":"328.53","velocity":0.10236220472440945,"duration":"0.06"},{"name":"C6","midi":84,"time":"328.55","velocity":0.2677165354330709,"duration":"0.12"},{"name":"C#2","midi":37,"time":"328.56","velocity":0.33070866141732286,"duration":"0.02"},{"name":"A3","midi":57,"time":"328.56","velocity":0.44881889763779526,"duration":"0.05"},{"name":"F6","midi":89,"time":"328.56","velocity":0.1889763779527559,"duration":"0.17"},{"name":"D#7","midi":99,"time":"328.56","velocity":0.25984251968503935,"duration":"0.88"},{"name":"B4","midi":71,"time":"328.57","velocity":0.25984251968503935,"duration":"0.02"},{"name":"D#6","midi":87,"time":"328.57","velocity":0.15748031496062992,"duration":"0.03"},{"name":"G7","midi":103,"time":"328.57","velocity":0.15748031496062992,"duration":"0.03"},{"name":"D2","midi":38,"time":"328.58","velocity":0.29133858267716534,"duration":"0.02"},{"name":"F5","midi":77,"time":"328.58","velocity":0.29133858267716534,"duration":"0.03"},{"name":"E5","midi":76,"time":"328.63","velocity":0.2677165354330709,"duration":"0.06"},{"name":"G7","midi":103,"time":"328.63","velocity":0.2047244094488189,"duration":"0.10"},{"name":"D#3","midi":51,"time":"328.64","velocity":0.4645669291338583,"duration":"0.02"},{"name":"D4","midi":62,"time":"328.64","velocity":0.36220472440944884,"duration":"0.03"},{"name":"A#5","midi":82,"time":"328.64","velocity":0.2047244094488189,"duration":"0.06"},{"name":"D#6","midi":87,"time":"328.64","velocity":0.14960629921259844,"duration":"0.07"},{"name":"D#2","midi":39,"time":"328.65","velocity":0.5354330708661418,"duration":"0.01"},{"name":"A#3","midi":58,"time":"328.65","velocity":0.4251968503937008,"duration":"0.03"},{"name":"E2","midi":40,"time":"328.66","velocity":0.5433070866141733,"duration":"0.01"},{"name":"B5","midi":83,"time":"328.66","velocity":0.2440944881889764,"duration":"0.07"},{"name":"D3","midi":50,"time":"328.67","velocity":0.6299212598425197,"duration":"0.36"},{"name":"C#5","midi":73,"time":"328.67","velocity":0.3464566929133858,"duration":"0.20"},{"name":"G#5","midi":80,"time":"328.67","velocity":0.1968503937007874,"duration":"0.05"},{"name":"C7","midi":96,"time":"328.67","velocity":0.11811023622047244,"duration":"0.06"},{"name":"D7","midi":98,"time":"328.67","velocity":0.09448818897637795,"duration":"0.03"},{"name":"F7","midi":101,"time":"328.67","velocity":0.2204724409448819,"duration":"0.30"},{"name":"A3","midi":57,"time":"328.69","velocity":0.44881889763779526,"duration":"0.15"},{"name":"G6","midi":91,"time":"328.71","velocity":0.2440944881889764,"duration":"0.40"},{"name":"G#6","midi":92,"time":"328.71","velocity":0.2204724409448819,"duration":"0.41"},{"name":"C#2","midi":37,"time":"328.72","velocity":0.2440944881889764,"duration":"0.02"},{"name":"A#6","midi":94,"time":"328.73","velocity":0.23622047244094488,"duration":"0.28"},{"name":"F#5","midi":78,"time":"328.76","velocity":0.48031496062992124,"duration":"1.07"},{"name":"F6","midi":89,"time":"328.76","velocity":0.14173228346456693,"duration":"0.03"},{"name":"C7","midi":96,"time":"328.76","velocity":0.15748031496062992,"duration":"0.28"},{"name":"C#4","midi":61,"time":"328.77","velocity":0.25196850393700787,"duration":"0.02"},{"name":"A4","midi":69,"time":"328.81","velocity":0.44881889763779526,"duration":"0.48"},{"name":"D#6","midi":87,"time":"328.83","velocity":0.10236220472440945,"duration":"0.07"},{"name":"F6","midi":89,"time":"328.83","velocity":0.10236220472440945,"duration":"0.03"},{"name":"C#6","midi":85,"time":"328.84","velocity":0.4409448818897638,"duration":"1.35"},{"name":"E6","midi":88,"time":"328.84","velocity":0.33858267716535434,"duration":"0.69"},{"name":"A3","midi":57,"time":"328.86","velocity":0.3700787401574803,"duration":"0.07"},{"name":"D5","midi":74,"time":"328.86","velocity":0.1732283464566929,"duration":"0.08"},{"name":"E5","midi":76,"time":"328.86","velocity":0.30708661417322836,"duration":"0.16"},{"name":"B5","midi":83,"time":"328.86","velocity":0.2125984251968504,"duration":"0.21"},{"name":"C6","midi":84,"time":"328.87","velocity":0.12598425196850394,"duration":"0.06"},{"name":"C#5","midi":73,"time":"328.93","velocity":0.28346456692913385,"duration":"0.09"},{"name":"C6","midi":84,"time":"328.94","velocity":0.14173228346456693,"duration":"0.06"},{"name":"D#6","midi":87,"time":"328.94","velocity":0.13385826771653545,"duration":"0.05"},{"name":"G#5","midi":80,"time":"328.95","velocity":0.28346456692913385,"duration":"0.08"},{"name":"D7","midi":98,"time":"328.95","velocity":0.2283464566929134,"duration":"0.02"},{"name":"C#2","midi":37,"time":"328.98","velocity":0.23622047244094488,"duration":"0.02"},{"name":"A3","midi":57,"time":"328.98","velocity":0.30708661417322836,"duration":"0.03"},{"name":"F7","midi":101,"time":"329.00","velocity":0.2440944881889764,"duration":"0.22"},{"name":"D5","midi":74,"time":"329.01","velocity":0.28346456692913385,"duration":"0.06"},{"name":"F5","midi":77,"time":"329.02","velocity":0.33070866141732286,"duration":"0.03"},{"name":"D#6","midi":87,"time":"329.02","velocity":0.2204724409448819,"duration":"0.43"},{"name":"E2","midi":40,"time":"329.03","velocity":0.5984251968503937,"duration":"0.01"},{"name":"D#3","midi":51,"time":"329.03","velocity":0.5826771653543307,"duration":"0.01"},{"name":"F#4","midi":66,"time":"329.03","velocity":0.49606299212598426,"duration":"0.34"},{"name":"A#6","midi":94,"time":"329.03","velocity":0.15748031496062992,"duration":"0.09"},{"name":"D7","midi":98,"time":"329.03","velocity":0.12598425196850394,"duration":"0.03"},{"name":"F2","midi":41,"time":"329.05","velocity":0.6062992125984252,"duration":"0.01"},{"name":"E3","midi":52,"time":"329.05","velocity":0.5118110236220472,"duration":"0.01"},{"name":"A#3","midi":58,"time":"329.05","velocity":0.4015748031496063,"duration":"0.02"},{"name":"C#5","midi":73,"time":"329.05","velocity":0.2677165354330709,"duration":"0.12"},{"name":"C7","midi":96,"time":"329.05","velocity":0.1968503937007874,"duration":"0.08"},{"name":"F#2","midi":42,"time":"329.06","velocity":0.5118110236220472,"duration":"0.02"},{"name":"E5","midi":76,"time":"329.06","velocity":0.23622047244094488,"duration":"0.02"},{"name":"D1","midi":26,"time":"329.07","velocity":0.5118110236220472,"duration":"0.02"},{"name":"D4","midi":62,"time":"329.07","velocity":0.2440944881889764,"duration":"0.02"},{"name":"C6","midi":84,"time":"329.07","velocity":0.07874015748031496,"duration":"0.03"},{"name":"D3","midi":50,"time":"329.08","velocity":0.5354330708661418,"duration":"0.01"},{"name":"A3","midi":57,"time":"329.08","velocity":0.36220472440944884,"duration":"0.02"},{"name":"C3","midi":48,"time":"329.09","velocity":0.5984251968503937,"duration":"0.01"},{"name":"D3","midi":50,"time":"329.10","velocity":0.6062992125984252,"duration":"0.29"},{"name":"A3","midi":57,"time":"329.12","velocity":0.3858267716535433,"duration":"0.26"},{"name":"B1","midi":35,"time":"329.13","velocity":0.3858267716535433,"duration":"0.02"},{"name":"G#5","midi":80,"time":"329.14","velocity":0.1889763779527559,"duration":"0.06"},{"name":"A#6","midi":94,"time":"329.14","velocity":0.18110236220472442,"duration":"0.05"},{"name":"G6","midi":91,"time":"329.15","velocity":0.16535433070866143,"duration":"0.08"},{"name":"E5","midi":76,"time":"329.16","velocity":0.2677165354330709,"duration":"0.15"},{"name":"C6","midi":84,"time":"329.16","velocity":0.2047244094488189,"duration":"0.09"},{"name":"B1","midi":35,"time":"329.20","velocity":0.3937007874015748,"duration":"0.02"},{"name":"A#6","midi":94,"time":"329.20","velocity":0.10236220472440945,"duration":"0.05"},{"name":"C#5","midi":73,"time":"329.21","velocity":0.28346456692913385,"duration":"0.29"},{"name":"G#5","midi":80,"time":"329.21","velocity":0.2440944881889764,"duration":"0.05"},{"name":"F7","midi":101,"time":"329.23","velocity":0.11023622047244094,"duration":"0.10"},{"name":"A#5","midi":82,"time":"329.26","velocity":0.09448818897637795,"duration":"0.03"},{"name":"G#6","midi":92,"time":"329.28","velocity":0.2283464566929134,"duration":"0.21"},{"name":"C2","midi":36,"time":"329.29","velocity":0.33070866141732286,"duration":"0.03"},{"name":"G#4","midi":68,"time":"329.29","velocity":0.28346456692913385,"duration":"0.02"},{"name":"B6","midi":95,"time":"329.29","velocity":0.1889763779527559,"duration":"0.16"},{"name":"C6","midi":84,"time":"329.30","velocity":0.11811023622047244,"duration":"0.05"},{"name":"A#5","midi":82,"time":"329.31","velocity":0.14960629921259844,"duration":"0.05"},{"name":"A#6","midi":94,"time":"329.33","velocity":0.1732283464566929,"duration":"0.15"},{"name":"C2","midi":36,"time":"329.34","velocity":0.3464566929133858,"duration":"0.02"},{"name":"A4","midi":69,"time":"329.34","velocity":0.4409448818897638,"duration":"0.36"},{"name":"B5","midi":83,"time":"329.36","velocity":0.14960629921259844,"duration":"0.06"},{"name":"C6","midi":84,"time":"329.36","velocity":0.2204724409448819,"duration":"0.41"},{"name":"D6","midi":86,"time":"329.37","velocity":0.13385826771653545,"duration":"0.05"},{"name":"G6","midi":91,"time":"329.38","velocity":0.15748031496062992,"duration":"0.07"},{"name":"D#3","midi":51,"time":"329.40","velocity":0.48031496062992124,"duration":"0.02"},{"name":"E5","midi":76,"time":"329.40","velocity":0.30708661417322836,"duration":"0.08"},{"name":"G7","midi":103,"time":"329.41","velocity":0.2204724409448819,"duration":"0.08"},{"name":"C#2","midi":37,"time":"329.42","velocity":0.6377952755905512,"duration":"0.01"},{"name":"D3","midi":50,"time":"329.42","velocity":0.5984251968503937,"duration":"0.36"},{"name":"F#4","midi":66,"time":"329.42","velocity":0.47244094488188976,"duration":"0.17"},{"name":"D7","midi":98,"time":"329.42","velocity":0.15748031496062992,"duration":"0.07"},{"name":"E2","midi":40,"time":"329.43","velocity":0.6850393700787402,"duration":"0.01"},{"name":"A#5","midi":82,"time":"329.43","velocity":0.23622047244094488,"duration":"0.03"},{"name":"F2","midi":41,"time":"329.44","velocity":0.6377952755905512,"duration":"0.02"},{"name":"G#5","midi":80,"time":"329.44","velocity":0.28346456692913385,"duration":"0.09"},{"name":"F6","midi":89,"time":"329.44","velocity":0.14960629921259844,"duration":"0.12"},{"name":"D#1","midi":27,"time":"329.47","velocity":0.5196850393700787,"duration":"0.01"},{"name":"D#6","midi":87,"time":"329.47","velocity":0.14960629921259844,"duration":"0.05"},{"name":"F1","midi":29,"time":"329.48","velocity":0.5354330708661418,"duration":"0.01"},{"name":"B6","midi":95,"time":"329.48","velocity":0.07874015748031496,"duration":"0.03"},{"name":"F7","midi":101,"time":"329.48","velocity":0.1889763779527559,"duration":"0.10"},{"name":"A3","midi":57,"time":"329.49","velocity":0.36220472440944884,"duration":"0.05"},{"name":"D6","midi":86,"time":"329.50","velocity":0.33070866141732286,"duration":"0.36"},{"name":"G6","midi":91,"time":"329.51","velocity":0.10236220472440945,"duration":"0.03"},{"name":"A#6","midi":94,"time":"329.51","velocity":0.12598425196850394,"duration":"0.03"},{"name":"G7","midi":103,"time":"329.53","velocity":0.16535433070866143,"duration":"0.14"},{"name":"E6","midi":88,"time":"329.55","velocity":0.29133858267716534,"duration":"0.22"},{"name":"A3","midi":57,"time":"329.57","velocity":0.44881889763779526,"duration":"0.20"},{"name":"E5","midi":76,"time":"329.57","velocity":0.1889763779527559,"duration":"0.03"},{"name":"D#7","midi":99,"time":"329.57","velocity":0.13385826771653545,"duration":"0.05"},{"name":"C#5","midi":73,"time":"329.58","velocity":0.2755905511811024,"duration":"0.16"},{"name":"B5","midi":83,"time":"329.58","velocity":0.2677165354330709,"duration":"0.21"},{"name":"D#6","midi":87,"time":"329.58","velocity":0.14960629921259844,"duration":"0.12"},{"name":"G6","midi":91,"time":"329.58","velocity":0.15748031496062992,"duration":"0.13"},{"name":"G#6","midi":92,"time":"329.58","velocity":0.15748031496062992,"duration":"0.03"},{"name":"A#6","midi":94,"time":"329.58","velocity":0.12598425196850394,"duration":"0.09"},{"name":"C2","midi":36,"time":"329.59","velocity":0.33070866141732286,"duration":"0.02"},{"name":"F#4","midi":66,"time":"329.60","velocity":0.4251968503937008,"duration":"0.09"},{"name":"G#5","midi":80,"time":"329.63","velocity":0.1889763779527559,"duration":"0.03"},{"name":"F6","midi":89,"time":"329.64","velocity":0.09448818897637795,"duration":"0.05"},{"name":"G#6","midi":92,"time":"329.65","velocity":0.3464566929133858,"duration":"0.33"},{"name":"E7","midi":100,"time":"329.65","velocity":0.30708661417322836,"duration":"1.00"},{"name":"G#5","midi":80,"time":"329.67","velocity":0.15748031496062992,"duration":"0.06"},{"name":"G#4","midi":68,"time":"329.69","velocity":0.30708661417322836,"duration":"0.02"},{"name":"A#6","midi":94,"time":"329.69","velocity":0.14960629921259844,"duration":"0.06"},{"name":"G7","midi":103,"time":"329.70","velocity":0.23622047244094488,"duration":"0.27"},{"name":"A4","midi":69,"time":"329.71","velocity":0.5748031496062992,"duration":"0.37"},{"name":"G#4","midi":68,"time":"329.72","velocity":0.2992125984251969,"duration":"0.02"},{"name":"D#6","midi":87,"time":"329.72","velocity":0.18110236220472442,"duration":"0.08"},{"name":"G6","midi":91,"time":"329.72","velocity":0.30708661417322836,"duration":"0.42"},{"name":"F#4","midi":66,"time":"329.74","velocity":0.4645669291338583,"duration":"0.10"},{"name":"C#5","midi":73,"time":"329.76","velocity":0.44881889763779526,"duration":"0.06"},{"name":"D#2","midi":39,"time":"329.77","velocity":0.4330708661417323,"duration":"0.02"},{"name":"F6","midi":89,"time":"329.77","velocity":0.2440944881889764,"duration":"0.03"},{"name":"A#6","midi":94,"time":"329.77","velocity":0.28346456692913385,"duration":"0.14"},{"name":"E3","midi":52,"time":"329.78","velocity":0.48031496062992124,"duration":"0.02"},{"name":"D2","midi":38,"time":"329.79","velocity":0.5196850393700787,"duration":"0.01"},{"name":"G#3","midi":56,"time":"329.79","velocity":0.5196850393700787,"duration":"0.03"},{"name":"A#5","midi":82,"time":"329.79","velocity":0.2992125984251969,"duration":"0.10"},{"name":"C6","midi":84,"time":"329.79","velocity":0.33070866141732286,"duration":"0.30"},{"name":"E6","midi":88,"time":"329.79","velocity":0.3543307086614173,"duration":"0.24"},{"name":"D#7","midi":99,"time":"329.79","velocity":0.1968503937007874,"duration":"0.17"},{"name":"E2","midi":40,"time":"329.80","velocity":0.5433070866141733,"duration":"0.01"},{"name":"C#4","midi":61,"time":"329.80","velocity":0.5354330708661418,"duration":"0.01"},{"name":"D#5","midi":75,"time":"329.80","velocity":0.4015748031496063,"duration":"0.05"},{"name":"A6","midi":93,"time":"329.80","velocity":0.36220472440944884,"duration":"2.63"},{"name":"D#3","midi":51,"time":"329.81","velocity":0.5511811023622047,"duration":"0.01"},{"name":"E5","midi":76,"time":"329.81","velocity":0.4015748031496063,"duration":"0.09"},{"name":"D3","midi":50,"time":"329.83","velocity":0.5905511811023622,"duration":"0.34"},{"name":"F6","midi":89,"time":"329.83","velocity":0.14960629921259844,"duration":"0.03"},{"name":"B4","midi":71,"time":"329.84","velocity":0.33858267716535434,"duration":"0.03"},{"name":"G#5","midi":80,"time":"329.84","velocity":0.31496062992125984,"duration":"0.03"},{"name":"A#3","midi":58,"time":"329.85","velocity":0.2755905511811024,"duration":"0.02"},{"name":"F#4","midi":66,"time":"329.86","velocity":0.36220472440944884,"duration":"0.09"},{"name":"A3","midi":57,"time":"329.88","velocity":0.3937007874015748,"duration":"0.02"},{"name":"G5","midi":79,"time":"329.90","velocity":0.2440944881889764,"duration":"0.07"},{"name":"D#5","midi":75,"time":"329.92","velocity":0.25984251968503935,"duration":"0.05"},{"name":"F5","midi":77,"time":"329.92","velocity":0.2283464566929134,"duration":"0.03"},{"name":"F7","midi":101,"time":"329.93","velocity":0.14960629921259844,"duration":"0.13"},{"name":"A#6","midi":94,"time":"329.94","velocity":0.11811023622047244,"duration":"0.05"},{"name":"E5","midi":76,"time":"329.95","velocity":0.2755905511811024,"duration":"0.15"},{"name":"F#5","midi":78,"time":"329.95","velocity":0.3228346456692913,"duration":"0.07"},{"name":"D6","midi":86,"time":"329.95","velocity":0.11023622047244094,"duration":"0.07"},{"name":"B6","midi":95,"time":"329.95","velocity":0.1732283464566929,"duration":"0.09"},{"name":"A3","midi":57,"time":"329.97","velocity":0.36220472440944884,"duration":"0.02"},{"name":"C5","midi":72,"time":"329.97","velocity":0.1968503937007874,"duration":"0.03"},{"name":"G#5","midi":80,"time":"329.98","velocity":0.29133858267716534,"duration":"0.06"},{"name":"G#3","midi":56,"time":"330.00","velocity":0.31496062992125984,"duration":"0.02"},{"name":"F#7","midi":102,"time":"330.00","velocity":0.10236220472440945,"duration":"0.06"},{"name":"A3","midi":57,"time":"330.02","velocity":0.41732283464566927,"duration":"0.02"},{"name":"F#4","midi":66,"time":"330.03","velocity":0.2440944881889764,"duration":"0.02"},{"name":"F#5","midi":78,"time":"330.03","velocity":0.33858267716535434,"duration":"0.51"},{"name":"A#3","midi":58,"time":"330.05","velocity":0.41732283464566927,"duration":"0.02"},{"name":"C#5","midi":73,"time":"330.05","velocity":0.23622047244094488,"duration":"0.02"},{"name":"E6","midi":88,"time":"330.05","velocity":0.4094488188976378,"duration":"1.29"},{"name":"A3","midi":57,"time":"330.07","velocity":0.33858267716535434,"duration":"0.02"},{"name":"D2","midi":38,"time":"330.08","velocity":0.18110236220472442,"duration":"0.06"},{"name":"C#5","midi":73,"time":"330.08","velocity":0.28346456692913385,"duration":"0.02"},{"name":"B6","midi":95,"time":"330.08","velocity":0.10236220472440945,"duration":"0.06"},{"name":"A4","midi":69,"time":"330.09","velocity":0.4645669291338583,"duration":"0.28"},{"name":"A#3","midi":58,"time":"330.12","velocity":0.3858267716535433,"duration":"0.07"},{"name":"F#4","midi":66,"time":"330.12","velocity":0.18110236220472442,"duration":"0.03"},{"name":"G#5","midi":80,"time":"330.12","velocity":0.28346456692913385,"duration":"0.02"},{"name":"D#6","midi":87,"time":"330.12","velocity":0.16535433070866143,"duration":"0.12"},{"name":"D#3","midi":51,"time":"330.16","velocity":0.5118110236220472,"duration":"0.02"},{"name":"E5","midi":76,"time":"330.16","velocity":0.3464566929133858,"duration":"0.09"},{"name":"G#5","midi":80,"time":"330.16","velocity":0.29133858267716534,"duration":"0.02"},{"name":"G6","midi":91,"time":"330.16","velocity":0.28346456692913385,"duration":"0.42"},{"name":"B6","midi":95,"time":"330.16","velocity":0.11811023622047244,"duration":"0.03"},{"name":"F#7","midi":102,"time":"330.17","velocity":0.18110236220472442,"duration":"0.33"},{"name":"G#6","midi":92,"time":"330.19","velocity":0.2283464566929134,"duration":"0.13"},{"name":"C7","midi":96,"time":"330.19","velocity":0.15748031496062992,"duration":"0.06"},{"name":"D3","midi":50,"time":"330.20","velocity":0.5984251968503937,"duration":"0.34"},{"name":"C#6","midi":85,"time":"330.20","velocity":0.1968503937007874,"duration":"0.08"},{"name":"D#7","midi":99,"time":"330.20","velocity":0.2677165354330709,"duration":"0.84"},{"name":"B5","midi":83,"time":"330.21","velocity":0.2047244094488189,"duration":"0.16"},{"name":"D7","midi":98,"time":"330.21","velocity":0.07874015748031496,"duration":"0.05"},{"name":"A3","midi":57,"time":"330.22","velocity":0.33858267716535434,"duration":"0.07"},{"name":"G#5","midi":80,"time":"330.22","velocity":0.23622047244094488,"duration":"0.02"},{"name":"F6","midi":89,"time":"330.22","velocity":0.12598425196850394,"duration":"0.03"},{"name":"F7","midi":101,"time":"330.22","velocity":0.2283464566929134,"duration":"0.28"},{"name":"C#2","midi":37,"time":"330.24","velocity":0.2677165354330709,"duration":"0.02"},{"name":"C6","midi":84,"time":"330.24","velocity":0.14960629921259844,"duration":"0.13"},{"name":"C#5","midi":73,"time":"330.28","velocity":0.16535433070866143,"duration":"0.09"},{"name":"E5","midi":76,"time":"330.28","velocity":0.33070866141732286,"duration":"0.26"},{"name":"F#4","midi":66,"time":"330.30","velocity":0.2755905511811024,"duration":"0.07"},{"name":"G5","midi":79,"time":"330.30","velocity":0.2047244094488189,"duration":"0.08"},{"name":"C#6","midi":85,"time":"330.30","velocity":0.3228346456692913,"duration":"0.34"},{"name":"A3","midi":57,"time":"330.31","velocity":0.3228346456692913,"duration":"0.13"},{"name":"D#6","midi":87,"time":"330.31","velocity":0.11811023622047244,"duration":"0.03"},{"name":"D2","midi":38,"time":"330.34","velocity":0.1968503937007874,"duration":"0.07"},{"name":"D6","midi":86,"time":"330.36","velocity":0.10236220472440945,"duration":"0.08"},{"name":"D7","midi":98,"time":"330.36","velocity":0.14173228346456693,"duration":"0.10"},{"name":"A4","midi":69,"time":"330.38","velocity":0.5354330708661418,"duration":"0.38"},{"name":"C7","midi":96,"time":"330.42","velocity":0.11811023622047244,"duration":"0.12"},{"name":"D2","midi":38,"time":"330.43","velocity":0.16535433070866143,"duration":"0.03"},{"name":"G5","midi":79,"time":"330.43","velocity":0.14960629921259844,"duration":"0.03"},{"name":"G#6","midi":92,"time":"330.43","velocity":0.18110236220472442,"duration":"0.12"},{"name":"C6","midi":84,"time":"330.44","velocity":0.28346456692913385,"duration":"0.71"},{"name":"D#6","midi":87,"time":"330.44","velocity":0.14960629921259844,"duration":"0.05"},{"name":"A3","midi":57,"time":"330.45","velocity":0.2992125984251969,"duration":"0.07"},{"name":"F6","midi":89,"time":"330.45","velocity":0.07086614173228346,"duration":"0.03"},{"name":"B5","midi":83,"time":"330.47","velocity":0.14173228346456693,"duration":"0.07"},{"name":"C#5","midi":73,"time":"330.48","velocity":0.2125984251968504,"duration":"0.07"},{"name":"D6","midi":86,"time":"330.48","velocity":0.2283464566929134,"duration":"0.13"},{"name":"D2","midi":38,"time":"330.49","velocity":0.23622047244094488,"duration":"0.03"},{"name":"D#6","midi":87,"time":"330.52","velocity":0.1968503937007874,"duration":"0.08"},{"name":"F7","midi":101,"time":"330.52","velocity":0.2204724409448819,"duration":"0.27"},{"name":"F#7","midi":102,"time":"330.52","velocity":0.2125984251968504,"duration":"0.28"},{"name":"D#3","midi":51,"time":"330.53","velocity":0.5748031496062992,"duration":"0.02"},{"name":"C5","midi":72,"time":"330.53","velocity":0.29133858267716534,"duration":"0.03"},{"name":"G5","midi":79,"time":"330.53","velocity":0.2992125984251969,"duration":"0.07"},{"name":"F2","midi":41,"time":"330.55","velocity":0.6141732283464567,"duration":"0.02"},{"name":"F#4","midi":66,"time":"330.55","velocity":0.4094488188976378,"duration":"0.05"},{"name":"D5","midi":74,"time":"330.55","velocity":0.28346456692913385,"duration":"0.08"},{"name":"G#6","midi":92,"time":"330.56","velocity":0.2204724409448819,"duration":"0.31"},{"name":"C4","midi":60,"time":"330.57","velocity":0.33858267716535434,"duration":"0.02"},{"name":"E5","midi":76,"time":"330.57","velocity":0.30708661417322836,"duration":"0.20"},{"name":"F#1","midi":30,"time":"330.58","velocity":0.6141732283464567,"duration":"0.02"},{"name":"F6","midi":89,"time":"330.58","velocity":0.11023622047244094,"duration":"0.03"},{"name":"D3","midi":50,"time":"330.59","velocity":0.5984251968503937,"duration":"0.31"},{"name":"A#1","midi":34,"time":"330.60","velocity":0.5748031496062992,"duration":"0.01"},{"name":"D#2","midi":39,"time":"330.62","velocity":0.5196850393700787,"duration":"0.01"},{"name":"B6","midi":95,"time":"330.62","velocity":0.18110236220472442,"duration":"0.08"},{"name":"A3","midi":57,"time":"330.63","velocity":0.4015748031496063,"duration":"0.30"},{"name":"B4","midi":71,"time":"330.65","velocity":0.11811023622047244,"duration":"0.03"},{"name":"C#6","midi":85,"time":"330.66","velocity":0.2992125984251969,"duration":"0.10"},{"name":"B5","midi":83,"time":"330.67","velocity":0.1968503937007874,"duration":"0.09"},{"name":"G5","midi":79,"time":"330.71","velocity":0.10236220472440945,"duration":"0.05"},{"name":"D#6","midi":87,"time":"330.71","velocity":0.07086614173228346,"duration":"0.03"},{"name":"F#4","midi":66,"time":"330.72","velocity":0.14173228346456693,"duration":"0.03"},{"name":"C#4","midi":61,"time":"330.73","velocity":0.28346456692913385,"duration":"0.02"},{"name":"A#6","midi":94,"time":"330.76","velocity":0.11811023622047244,"duration":"0.03"},{"name":"C#4","midi":61,"time":"330.78","velocity":0.2440944881889764,"duration":"0.08"},{"name":"A4","midi":69,"time":"330.78","velocity":0.4645669291338583,"duration":"0.19"},{"name":"G5","midi":79,"time":"330.78","velocity":0.11023622047244094,"duration":"0.03"},{"name":"E5","midi":76,"time":"330.79","velocity":0.3464566929133858,"duration":"0.26"},{"name":"B5","midi":83,"time":"330.79","velocity":0.1968503937007874,"duration":"0.03"},{"name":"C#6","midi":85,"time":"330.79","velocity":0.18110236220472442,"duration":"0.09"},{"name":"F6","midi":89,"time":"330.81","velocity":0.12598425196850394,"duration":"0.06"},{"name":"G5","midi":79,"time":"330.84","velocity":0.13385826771653545,"duration":"0.08"},{"name":"B5","midi":83,"time":"330.84","velocity":0.13385826771653545,"duration":"0.05"},{"name":"F#4","midi":66,"time":"330.86","velocity":0.14173228346456693,"duration":"0.06"},{"name":"C#4","midi":61,"time":"330.87","velocity":0.31496062992125984,"duration":"0.03"},{"name":"F7","midi":101,"time":"330.90","velocity":0.23622047244094488,"duration":"0.21"},{"name":"F#7","midi":102,"time":"330.90","velocity":0.16535433070866143,"duration":"0.13"},{"name":"D#2","midi":39,"time":"330.91","velocity":0.49606299212598426,"duration":"0.02"},{"name":"D#3","midi":51,"time":"330.91","velocity":0.5196850393700787,"duration":"0.02"},{"name":"D4","midi":62,"time":"330.91","velocity":0.2755905511811024,"duration":"0.02"},{"name":"C#6","midi":85,"time":"330.91","velocity":0.1968503937007874,"duration":"0.14"},{"name":"G#6","midi":92,"time":"330.92","velocity":0.2047244094488189,"duration":"0.14"},{"name":"D7","midi":98,"time":"330.92","velocity":0.18110236220472442,"duration":"0.12"},{"name":"E2","midi":40,"time":"330.93","velocity":0.5669291338582677,"duration":"0.03"},{"name":"A#3","midi":58,"time":"330.93","velocity":0.25196850393700787,"duration":"0.02"},{"name":"G5","midi":79,"time":"330.93","velocity":0.2755905511811024,"duration":"0.02"},{"name":"B5","midi":83,"time":"330.93","velocity":0.14960629921259844,"duration":"0.09"},{"name":"A#6","midi":94,"time":"330.93","velocity":0.1732283464566929,"duration":"0.08"},{"name":"C#3","midi":49,"time":"330.94","velocity":0.5354330708661418,"duration":"0.01"},{"name":"D4","midi":62,"time":"330.94","velocity":0.41732283464566927,"duration":"0.23"},{"name":"D6","midi":86,"time":"330.94","velocity":0.2047244094488189,"duration":"0.24"},{"name":"D3","midi":50,"time":"330.95","velocity":0.5826771653543307,"duration":"0.35"},{"name":"A3","midi":57,"time":"330.95","velocity":0.2440944881889764,"duration":"0.05"},{"name":"F#5","midi":78,"time":"330.95","velocity":0.33858267716535434,"duration":"0.31"},{"name":"G#5","midi":80,"time":"330.95","velocity":0.23622047244094488,"duration":"0.03"},{"name":"D#2","midi":39,"time":"330.97","velocity":0.30708661417322836,"duration":"0.03"},{"name":"A4","midi":69,"time":"330.98","velocity":0.5984251968503937,"duration":"0.52"},{"name":"G6","midi":91,"time":"331.00","velocity":0.2047244094488189,"duration":"0.07"},{"name":"D2","midi":38,"time":"331.02","velocity":0.25196850393700787,"duration":"0.02"},{"name":"C#2","midi":37,"time":"331.05","velocity":0.2440944881889764,"duration":"0.02"},{"name":"B5","midi":83,"time":"331.05","velocity":0.10236220472440945,"duration":"0.03"},{"name":"F6","midi":89,"time":"331.05","velocity":0.10236220472440945,"duration":"0.07"},{"name":"E5","midi":76,"time":"331.07","velocity":0.29133858267716534,"duration":"0.10"},{"name":"C#6","midi":85,"time":"331.07","velocity":0.2677165354330709,"duration":"0.37"},{"name":"F#7","midi":102,"time":"331.07","velocity":0.11023622047244094,"duration":"0.03"},{"name":"C#2","midi":37,"time":"331.08","velocity":0.29133858267716534,"duration":"0.02"},{"name":"A3","midi":57,"time":"331.09","velocity":0.33858267716535434,"duration":"0.19"},{"name":"G6","midi":91,"time":"331.09","velocity":0.11023622047244094,"duration":"0.10"},{"name":"D2","midi":38,"time":"331.10","velocity":0.2992125984251969,"duration":"0.03"},{"name":"A#6","midi":94,"time":"331.14","velocity":0.12598425196850394,"duration":"0.05"},{"name":"B5","midi":83,"time":"331.15","velocity":0.11811023622047244,"duration":"0.03"},{"name":"G#6","midi":92,"time":"331.15","velocity":0.14960629921259844,"duration":"0.06"},{"name":"F#7","midi":102,"time":"331.16","velocity":0.08661417322834646,"duration":"0.03"},{"name":"D2","midi":38,"time":"331.17","velocity":0.25196850393700787,"duration":"0.02"},{"name":"C#4","midi":61,"time":"331.17","velocity":0.30708661417322836,"duration":"0.05"},{"name":"E5","midi":76,"time":"331.19","velocity":0.4881889763779528,"duration":"0.16"},{"name":"F#4","midi":66,"time":"331.21","velocity":0.09448818897637795,"duration":"0.05"},{"name":"B5","midi":83,"time":"331.21","velocity":0.1889763779527559,"duration":"0.03"},{"name":"A#6","midi":94,"time":"331.21","velocity":0.07874015748031496,"duration":"0.03"},{"name":"G#6","midi":92,"time":"331.22","velocity":0.09448818897637795,"duration":"0.03"},{"name":"D2","midi":38,"time":"331.23","velocity":0.28346456692913385,"duration":"0.02"},{"name":"D#6","midi":87,"time":"331.23","velocity":0.08661417322834646,"duration":"0.03"},{"name":"C#4","midi":61,"time":"331.24","velocity":0.30708661417322836,"duration":"0.02"},{"name":"G5","midi":79,"time":"331.24","velocity":0.2204724409448819,"duration":"0.05"},{"name":"B6","midi":95,"time":"331.24","velocity":0.23622047244094488,"duration":"0.40"},{"name":"G6","midi":91,"time":"331.26","velocity":0.2677165354330709,"duration":"0.12"},{"name":"D#6","midi":87,"time":"331.28","velocity":0.2283464566929134,"duration":"0.02"},{"name":"F#6","midi":90,"time":"331.28","velocity":0.2677165354330709,"duration":"0.03"},{"name":"A#6","midi":94,"time":"331.28","velocity":0.2440944881889764,"duration":"0.08"},{"name":"D7","midi":98,"time":"331.28","velocity":0.23622047244094488,"duration":"0.16"},{"name":"F7","midi":101,"time":"331.28","velocity":0.2755905511811024,"duration":"0.14"},{"name":"F3","midi":53,"time":"331.29","velocity":0.5039370078740157,"duration":"0.03"},{"name":"E4","midi":64,"time":"331.29","velocity":0.5354330708661418,"duration":"0.03"},{"name":"A#5","midi":82,"time":"331.29","velocity":0.2440944881889764,"duration":"0.02"},{"name":"G#6","midi":92,"time":"331.29","velocity":0.2677165354330709,"duration":"0.12"},{"name":"C4","midi":60,"time":"331.30","velocity":0.3464566929133858,"duration":"0.03"},{"name":"D#5","midi":75,"time":"331.30","velocity":0.36220472440944884,"duration":"0.02"},{"name":"F#5","midi":78,"time":"331.30","velocity":0.25984251968503935,"duration":"0.05"},{"name":"B5","midi":83,"time":"331.30","velocity":0.2677165354330709,"duration":"0.06"},{"name":"D6","midi":86,"time":"331.30","velocity":0.2283464566929134,"duration":"0.02"},{"name":"C5","midi":72,"time":"331.31","velocity":0.3543307086614173,"duration":"0.02"},{"name":"F6","midi":89,"time":"331.31","velocity":0.23622047244094488,"duration":"0.07"},{"name":"D#7","midi":99,"time":"331.31","velocity":0.25196850393700787,"duration":"0.28"},{"name":"D#3","midi":51,"time":"331.33","velocity":0.5590551181102362,"duration":"0.01"},{"name":"F4","midi":65,"time":"331.33","velocity":0.3937007874015748,"duration":"0.02"},{"name":"C#2","midi":37,"time":"331.34","velocity":0.2755905511811024,"duration":"0.02"},{"name":"D3","midi":50,"time":"331.34","velocity":0.5905511811023622,"duration":"0.34"},{"name":"D6","midi":86,"time":"331.34","velocity":0.2755905511811024,"duration":"0.06"},{"name":"D#6","midi":87,"time":"331.34","velocity":0.2283464566929134,"duration":"0.05"},{"name":"A3","midi":57,"time":"331.35","velocity":0.31496062992125984,"duration":"0.02"},{"name":"F#4","midi":66,"time":"331.35","velocity":0.4251968503937008,"duration":"0.07"},{"name":"C5","midi":72,"time":"331.35","velocity":0.29133858267716534,"duration":"0.03"},{"name":"F5","midi":77,"time":"331.35","velocity":0.25984251968503935,"duration":"0.03"},{"name":"E6","midi":88,"time":"331.35","velocity":0.3464566929133858,"duration":"1.15"},{"name":"D#5","midi":75,"time":"331.36","velocity":0.2283464566929134,"duration":"0.02"},{"name":"A#3","midi":58,"time":"331.37","velocity":0.31496062992125984,"duration":"0.02"},{"name":"C#5","midi":73,"time":"331.37","velocity":0.1968503937007874,"duration":"0.05"},{"name":"G5","midi":79,"time":"331.37","velocity":0.1732283464566929,"duration":"0.03"},{"name":"A#6","midi":94,"time":"331.37","velocity":0.11023622047244094,"duration":"0.06"},{"name":"E5","midi":76,"time":"331.38","velocity":0.36220472440944884,"duration":"0.22"},{"name":"G6","midi":91,"time":"331.38","velocity":0.25984251968503935,"duration":"0.66"},{"name":"A#5","midi":82,"time":"331.40","velocity":0.07086614173228346,"duration":"0.03"},{"name":"A#3","midi":58,"time":"331.41","velocity":0.33858267716535434,"duration":"0.03"},{"name":"C#5","midi":73,"time":"331.43","velocity":0.16535433070866143,"duration":"0.06"},{"name":"F#5","midi":78,"time":"331.43","velocity":0.2283464566929134,"duration":"0.10"},{"name":"G#6","midi":92,"time":"331.43","velocity":0.1732283464566929,"duration":"0.13"},{"name":"A#5","midi":82,"time":"331.45","velocity":0.11023622047244094,"duration":"0.08"},{"name":"C#6","midi":85,"time":"331.45","velocity":0.2440944881889764,"duration":"0.10"},{"name":"D6","midi":86,"time":"331.45","velocity":0.12598425196850394,"duration":"0.07"},{"name":"G#5","midi":80,"time":"331.47","velocity":0.2440944881889764,"duration":"0.02"},{"name":"C6","midi":84,"time":"331.47","velocity":0.2677165354330709,"duration":"0.27"},{"name":"F#4","midi":66,"time":"331.48","velocity":0.2047244094488189,"duration":"0.08"},{"name":"A#3","midi":58,"time":"331.49","velocity":0.4251968503937008,"duration":"0.03"},{"name":"D#6","midi":87,"time":"331.50","velocity":0.16535433070866143,"duration":"0.15"},{"name":"A4","midi":69,"time":"331.51","velocity":0.5039370078740157,"duration":"0.33"},{"name":"C#5","midi":73,"time":"331.51","velocity":0.25196850393700787,"duration":"0.20"},{"name":"A3","midi":57,"time":"331.52","velocity":0.3464566929133858,"duration":"0.02"},{"name":"F#6","midi":90,"time":"331.55","velocity":0.09448818897637795,"duration":"0.03"},{"name":"A3","midi":57,"time":"331.56","velocity":0.41732283464566927,"duration":"0.35"},{"name":"F#4","midi":66,"time":"331.57","velocity":0.14960629921259844,"duration":"0.03"},{"name":"F#5","midi":78,"time":"331.57","velocity":0.2047244094488189,"duration":"0.07"},{"name":"F6","midi":89,"time":"331.57","velocity":0.08661417322834646,"duration":"0.03"},{"name":"F#7","midi":102,"time":"331.57","velocity":0.16535433070866143,"duration":"0.22"},{"name":"G#6","midi":92,"time":"331.58","velocity":0.12598425196850394,"duration":"0.03"},{"name":"C#6","midi":85,"time":"331.59","velocity":0.2677165354330709,"duration":"0.27"},{"name":"A#5","midi":82,"time":"331.60","velocity":0.11811023622047244,"duration":"0.05"},{"name":"D6","midi":86,"time":"331.60","velocity":0.12598425196850394,"duration":"0.03"},{"name":"E5","midi":76,"time":"331.62","velocity":0.30708661417322836,"duration":"0.07"},{"name":"D#7","midi":99,"time":"331.62","velocity":0.2283464566929134,"duration":"0.99"},{"name":"G#5","midi":80,"time":"331.63","velocity":0.25984251968503935,"duration":"0.02"},{"name":"F6","midi":89,"time":"331.65","velocity":0.10236220472440945,"duration":"0.09"},{"name":"B6","midi":95,"time":"331.65","velocity":0.2047244094488189,"duration":"0.22"},{"name":"F#5","midi":78,"time":"331.66","velocity":0.29133858267716534,"duration":"0.77"},{"name":"D6","midi":86,"time":"331.66","velocity":0.14960629921259844,"duration":"0.06"},{"name":"G#6","midi":92,"time":"331.66","velocity":0.23622047244094488,"duration":"0.10"},{"name":"F4","midi":65,"time":"331.67","velocity":0.2440944881889764,"duration":"0.02"},{"name":"F7","midi":101,"time":"331.67","velocity":0.25984251968503935,"duration":"0.56"},{"name":"E2","midi":40,"time":"331.69","velocity":0.4881889763779528,"duration":"0.05"},{"name":"A#6","midi":94,"time":"331.69","velocity":0.14960629921259844,"duration":"0.05"},{"name":"C#3","midi":49,"time":"331.70","velocity":0.5275590551181102,"duration":"0.01"},{"name":"G#5","midi":80,"time":"331.70","velocity":0.14960629921259844,"duration":"0.03"},{"name":"D3","midi":50,"time":"331.71","velocity":0.5984251968503937,"duration":"0.33"},{"name":"E5","midi":76,"time":"331.71","velocity":0.3937007874015748,"duration":"0.30"},{"name":"C#2","midi":37,"time":"331.73","velocity":0.2440944881889764,"duration":"0.02"},{"name":"B5","midi":83,"time":"331.73","velocity":0.1889763779527559,"duration":"0.21"},{"name":"C6","midi":84,"time":"331.74","velocity":0.16535433070866143,"duration":"0.08"},{"name":"F6","midi":89,"time":"331.83","velocity":0.09448818897637795,"duration":"0.10"},{"name":"G#6","midi":92,"time":"331.83","velocity":0.1968503937007874,"duration":"0.16"},{"name":"D7","midi":98,"time":"331.83","velocity":0.14960629921259844,"duration":"0.05"},{"name":"F#7","midi":102,"time":"331.83","velocity":0.15748031496062992,"duration":"0.16"},{"name":"C#5","midi":73,"time":"331.84","velocity":0.12598425196850394,"duration":"0.03"},{"name":"G5","midi":79,"time":"331.84","velocity":0.08661417322834646,"duration":"0.03"},{"name":"A4","midi":69,"time":"331.85","velocity":0.5433070866141733,"duration":"0.84"},{"name":"C6","midi":84,"time":"331.85","velocity":0.11023622047244094,"duration":"0.03"},{"name":"D#6","midi":87,"time":"331.86","velocity":0.08661417322834646,"duration":"0.03"},{"name":"C#7","midi":97,"time":"331.86","velocity":0.4094488188976378,"duration":"5.34"},{"name":"C#6","midi":85,"time":"331.88","velocity":0.31496062992125984,"duration":"0.17"},{"name":"D6","midi":86,"time":"331.90","velocity":0.14960629921259844,"duration":"0.09"},{"name":"B6","midi":95,"time":"331.90","velocity":0.2125984251968504,"duration":"0.43"},{"name":"G#3","midi":56,"time":"331.91","velocity":0.18110236220472442,"duration":"0.03"},{"name":"C7","midi":96,"time":"331.93","velocity":0.07086614173228346,"duration":"0.09"},{"name":"A3","midi":57,"time":"331.94","velocity":0.2992125984251969,"duration":"0.09"},{"name":"G5","midi":79,"time":"331.94","velocity":0.14173228346456693,"duration":"0.03"},{"name":"C6","midi":84,"time":"331.95","velocity":0.23622047244094488,"duration":"0.13"},{"name":"D2","midi":38,"time":"331.97","velocity":0.16535433070866143,"duration":"0.03"},{"name":"D#6","midi":87,"time":"331.97","velocity":0.12598425196850394,"duration":"0.05"},{"name":"F6","midi":89,"time":"331.97","velocity":0.09448818897637795,"duration":"0.03"},{"name":"A#5","midi":82,"time":"331.98","velocity":0.07874015748031496,"duration":"0.03"},{"name":"F#6","midi":90,"time":"332.00","velocity":0.3228346456692913,"duration":"0.55"},{"name":"F1","midi":29,"time":"332.01","velocity":0.33858267716535434,"duration":"0.02"},{"name":"F#7","midi":102,"time":"332.01","velocity":0.33070866141732286,"duration":"2.23"},{"name":"F4","midi":65,"time":"332.02","velocity":0.2992125984251969,"duration":"0.02"},{"name":"D#6","midi":87,"time":"332.02","velocity":0.18110236220472442,"duration":"0.05"},{"name":"B1","midi":35,"time":"332.03","velocity":0.5669291338582677,"duration":"0.01"},{"name":"D#3","midi":51,"time":"332.03","velocity":0.5669291338582677,"duration":"0.01"},{"name":"A#5","midi":82,"time":"332.03","velocity":0.2677165354330709,"duration":"0.02"},{"name":"F6","midi":89,"time":"332.03","velocity":0.18110236220472442,"duration":"0.06"},{"name":"D7","midi":98,"time":"332.03","velocity":0.1732283464566929,"duration":"0.06"},{"name":"F2","midi":41,"time":"332.05","velocity":0.6850393700787402,"duration":"0.03"},{"name":"F#4","midi":66,"time":"332.05","velocity":0.3779527559055118,"duration":"0.02"},{"name":"D6","midi":86,"time":"332.05","velocity":0.29133858267716534,"duration":"0.28"},{"name":"G#6","midi":92,"time":"332.05","velocity":0.16535433070866143,"duration":"0.20"},{"name":"G7","midi":103,"time":"332.05","velocity":0.10236220472440945,"duration":"0.05"},{"name":"B5","midi":83,"time":"332.06","velocity":0.33070866141732286,"duration":"0.17"},{"name":"D3","midi":50,"time":"332.07","velocity":0.5984251968503937,"duration":"0.27"},{"name":"B4","midi":71,"time":"332.07","velocity":0.33070866141732286,"duration":"0.09"},{"name":"C#6","midi":85,"time":"332.07","velocity":0.14173228346456693,"duration":"0.03"},{"name":"G6","midi":91,"time":"332.07","velocity":0.10236220472440945,"duration":"0.05"},{"name":"E1","midi":28,"time":"332.08","velocity":0.5118110236220472,"duration":"0.01"},{"name":"A3","midi":57,"time":"332.08","velocity":0.4094488188976378,"duration":"0.23"},{"name":"E5","midi":76,"time":"332.08","velocity":0.33070866141732286,"duration":"0.38"},{"name":"F#1","midi":30,"time":"332.09","velocity":0.5826771653543307,"duration":"0.01"},{"name":"F4","midi":65,"time":"332.09","velocity":0.23622047244094488,"duration":"0.02"},{"name":"C7","midi":96,"time":"332.09","velocity":0.08661417322834646,"duration":"0.05"},{"name":"B1","midi":35,"time":"332.10","velocity":0.5590551181102362,"duration":"0.01"},{"name":"C#5","midi":73,"time":"332.10","velocity":0.2047244094488189,"duration":"0.03"},{"name":"G7","midi":103,"time":"332.12","velocity":0.2204724409448819,"duration":"0.41"},{"name":"C#6","midi":85,"time":"332.14","velocity":0.07086614173228346,"duration":"0.03"},{"name":"D#6","midi":87,"time":"332.14","velocity":0.12598425196850394,"duration":"0.03"},{"name":"F6","midi":89,"time":"332.14","velocity":0.14173228346456693,"duration":"0.05"},{"name":"F#1","midi":30,"time":"332.19","velocity":0.29133858267716534,"duration":"0.02"},{"name":"C#5","midi":73,"time":"332.19","velocity":0.31496062992125984,"duration":"0.24"},{"name":"B4","midi":71,"time":"332.20","velocity":0.25984251968503935,"duration":"0.02"},{"name":"C6","midi":84,"time":"332.20","velocity":0.2047244094488189,"duration":"0.09"},{"name":"A#1","midi":34,"time":"332.24","velocity":0.28346456692913385,"duration":"0.02"},{"name":"B5","midi":83,"time":"332.26","velocity":0.3937007874015748,"duration":"0.40"},{"name":"F#4","midi":66,"time":"332.28","velocity":0.08661417322834646,"duration":"0.03"},{"name":"B4","midi":71,"time":"332.28","velocity":0.28346456692913385,"duration":"0.03"},{"name":"G6","midi":91,"time":"332.28","velocity":0.14960629921259844,"duration":"0.07"},{"name":"C7","midi":96,"time":"332.29","velocity":0.07874015748031496,"duration":"0.05"},{"name":"C2","midi":36,"time":"332.30","velocity":0.2677165354330709,"duration":"0.02"},{"name":"D#3","midi":51,"time":"332.34","velocity":0.5196850393700787,"duration":"0.07"},{"name":"B4","midi":71,"time":"332.34","velocity":0.25196850393700787,"duration":"0.02"},{"name":"G#5","midi":80,"time":"332.34","velocity":0.2283464566929134,"duration":"0.09"},{"name":"C#2","midi":37,"time":"332.35","velocity":0.41732283464566927,"duration":"0.02"},{"name":"D6","midi":86,"time":"332.35","velocity":0.15748031496062992,"duration":"0.08"},{"name":"B3","midi":59,"time":"332.36","velocity":0.36220472440944884,"duration":"0.06"},{"name":"C7","midi":96,"time":"332.40","velocity":0.11023622047244094,"duration":"0.14"},{"name":"F7","midi":101,"time":"332.40","velocity":0.2047244094488189,"duration":"0.09"},{"name":"E2","midi":40,"time":"332.41","velocity":0.5354330708661418,"duration":"0.01"},{"name":"G#6","midi":92,"time":"332.41","velocity":0.31496062992125984,"duration":"0.13"},{"name":"D2","midi":38,"time":"332.42","velocity":0.5196850393700787,"duration":"0.01"},{"name":"D5","midi":74,"time":"332.42","velocity":0.28346456692913385,"duration":"0.06"},{"name":"D#6","midi":87,"time":"332.42","velocity":0.2440944881889764,"duration":"0.13"},{"name":"F6","midi":89,"time":"332.42","velocity":0.11811023622047244,"duration":"0.05"},{"name":"G6","midi":91,"time":"332.42","velocity":0.1968503937007874,"duration":"0.05"},{"name":"D7","midi":98,"time":"332.42","velocity":0.1732283464566929,"duration":"0.03"},{"name":"C#2","midi":37,"time":"332.43","velocity":0.5984251968503937,"duration":"0.01"},{"name":"A2","midi":45,"time":"332.43","velocity":0.5511811023622047,"duration":"0.01"},{"name":"D3","midi":50,"time":"332.43","velocity":0.5669291338582677,"duration":"0.01"},{"name":"G5","midi":79,"time":"332.43","velocity":0.2283464566929134,"duration":"0.02"},{"name":"E2","midi":40,"time":"332.44","velocity":0.6141732283464567,"duration":"0.01"},{"name":"D#3","midi":51,"time":"332.44","velocity":0.5905511811023622,"duration":"0.03"},{"name":"F#4","midi":66,"time":"332.44","velocity":0.3937007874015748,"duration":"0.02"},{"name":"B4","midi":71,"time":"332.44","velocity":0.29133858267716534,"duration":"0.09"},{"name":"F#5","midi":78,"time":"332.44","velocity":0.4094488188976378,"duration":"0.36"},{"name":"G#5","midi":80,"time":"332.44","velocity":0.2204724409448819,"duration":"0.03"},{"name":"F2","midi":41,"time":"332.45","velocity":0.5354330708661418,"duration":"0.01"},{"name":"D4","midi":62,"time":"332.45","velocity":0.4330708661417323,"duration":"0.35"},{"name":"F1","midi":29,"time":"332.48","velocity":0.5984251968503937,"duration":"0.01"},{"name":"E3","midi":52,"time":"332.48","velocity":0.5748031496062992,"duration":"0.03"},{"name":"B3","midi":59,"time":"332.48","velocity":0.29133858267716534,"duration":"0.05"},{"name":"C#5","midi":73,"time":"332.48","velocity":0.2204724409448819,"duration":"0.03"},{"name":"F#1","midi":30,"time":"332.49","velocity":0.5984251968503937,"duration":"0.01"},{"name":"D#3","midi":51,"time":"332.51","velocity":0.5826771653543307,"duration":"0.01"},{"name":"D6","midi":86,"time":"332.51","velocity":0.09448818897637795,"duration":"0.03"},{"name":"E6","midi":88,"time":"332.51","velocity":0.2283464566929134,"duration":"0.16"},{"name":"E3","midi":52,"time":"332.52","velocity":0.5275590551181102,"duration":"0.03"},{"name":"A#3","midi":58,"time":"332.52","velocity":0.3228346456692913,"duration":"0.02"},{"name":"F6","midi":89,"time":"332.52","velocity":0.13385826771653545,"duration":"0.07"},{"name":"E5","midi":76,"time":"332.53","velocity":0.15748031496062992,"duration":"0.03"},{"name":"B4","midi":71,"time":"332.55","velocity":0.3464566929133858,"duration":"0.09"},{"name":"D#3","midi":51,"time":"332.56","velocity":0.5354330708661418,"duration":"0.01"},{"name":"A#3","midi":58,"time":"332.56","velocity":0.30708661417322836,"duration":"0.02"},{"name":"G#6","midi":92,"time":"332.56","velocity":0.1732283464566929,"duration":"0.07"},{"name":"E3","midi":52,"time":"332.57","velocity":0.5511811023622047,"duration":"0.06"},{"name":"C#5","midi":73,"time":"332.57","velocity":0.2283464566929134,"duration":"0.06"},{"name":"D#6","midi":87,"time":"332.57","velocity":0.18110236220472442,"duration":"0.16"},{"name":"G#5","midi":80,"time":"332.59","velocity":0.18110236220472442,"duration":"0.09"},{"name":"E2","midi":40,"time":"332.60","velocity":0.29133858267716534,"duration":"0.02"},{"name":"C6","midi":84,"time":"332.60","velocity":0.16535433070866143,"duration":"0.06"},{"name":"G6","midi":91,"time":"332.60","velocity":0.14960629921259844,"duration":"0.06"},{"name":"D#3","midi":51,"time":"332.63","velocity":0.5669291338582677,"duration":"0.01"},{"name":"D6","midi":86,"time":"332.63","velocity":0.09448818897637795,"duration":"0.08"},{"name":"E3","midi":52,"time":"332.64","velocity":0.5748031496062992,"duration":"0.12"},{"name":"A#3","midi":58,"time":"332.64","velocity":0.2677165354330709,"duration":"0.02"},{"name":"C#5","midi":73,"time":"332.64","velocity":0.29133858267716534,"duration":"0.16"},{"name":"D#7","midi":99,"time":"332.64","velocity":0.2047244094488189,"duration":"0.10"},{"name":"B4","midi":71,"time":"332.65","velocity":0.4409448818897638,"duration":"0.16"},{"name":"E2","midi":40,"time":"332.66","velocity":0.4094488188976378,"duration":"0.02"},{"name":"G#6","midi":92,"time":"332.66","velocity":0.2125984251968504,"duration":"0.31"},{"name":"E2","midi":40,"time":"332.70","velocity":0.3937007874015748,"duration":"0.05"},{"name":"E6","midi":88,"time":"332.70","velocity":0.1968503937007874,"duration":"0.07"},{"name":"G#5","midi":80,"time":"332.71","velocity":0.15748031496062992,"duration":"0.03"},{"name":"G6","midi":91,"time":"332.71","velocity":0.07874015748031496,"duration":"0.03"},{"name":"A4","midi":69,"time":"332.72","velocity":0.31496062992125984,"duration":"0.07"},{"name":"D6","midi":86,"time":"332.72","velocity":0.3228346456692913,"duration":"0.12"},{"name":"D#2","midi":39,"time":"332.74","velocity":0.4251968503937008,"duration":"0.02"},{"name":"E5","midi":76,"time":"332.74","velocity":0.11811023622047244,"duration":"0.05"},{"name":"D#3","midi":51,"time":"332.76","velocity":0.5590551181102362,"duration":"0.01"},{"name":"C6","midi":84,"time":"332.76","velocity":0.13385826771653545,"duration":"0.03"},{"name":"E2","midi":40,"time":"332.77","velocity":0.41732283464566927,"duration":"0.02"},{"name":"E3","midi":52,"time":"332.77","velocity":0.5118110236220472,"duration":"0.02"},{"name":"G4","midi":67,"time":"332.78","velocity":0.4645669291338583,"duration":"0.02"},{"name":"E6","midi":88,"time":"332.78","velocity":0.14960629921259844,"duration":"0.03"},{"name":"D#7","midi":99,"time":"332.78","velocity":0.2755905511811024,"duration":"1.02"},{"name":"F5","midi":77,"time":"332.79","velocity":0.30708661417322836,"duration":"0.05"},{"name":"A#6","midi":94,"time":"332.79","velocity":0.2755905511811024,"duration":"0.06"},{"name":"E7","midi":100,"time":"332.79","velocity":0.2204724409448819,"duration":"0.19"},{"name":"F7","midi":101,"time":"332.79","velocity":0.2755905511811024,"duration":"0.16"},{"name":"F#2","midi":42,"time":"332.80","velocity":0.4645669291338583,"duration":"0.02"},{"name":"C4","midi":60,"time":"332.80","velocity":0.5354330708661418,"duration":"0.03"},{"name":"E4","midi":64,"time":"332.80","velocity":0.5275590551181102,"duration":"0.03"},{"name":"G#4","midi":68,"time":"332.80","velocity":0.5669291338582677,"duration":"0.02"},{"name":"G5","midi":79,"time":"332.80","velocity":0.31496062992125984,"duration":"0.02"},{"name":"A#5","midi":82,"time":"332.80","velocity":0.2440944881889764,"duration":"0.02"},{"name":"C7","midi":96,"time":"332.80","velocity":0.14173228346456693,"duration":"0.16"},{"name":"D#5","midi":75,"time":"332.81","velocity":0.3858267716535433,"duration":"0.02"},{"name":"C6","midi":84,"time":"332.81","velocity":0.3228346456692913,"duration":"0.05"},{"name":"G7","midi":103,"time":"332.81","velocity":0.28346456692913385,"duration":"0.28"},{"name":"G3","midi":55,"time":"332.83","velocity":0.5196850393700787,"duration":"0.01"},{"name":"A4","midi":69,"time":"332.83","velocity":0.44881889763779526,"duration":"0.02"},{"name":"F#5","midi":78,"time":"332.83","velocity":0.36220472440944884,"duration":"0.28"},{"name":"E2","midi":40,"time":"332.84","velocity":0.4094488188976378,"duration":"0.33"},{"name":"F3","midi":53,"time":"332.84","velocity":0.5511811023622047,"duration":"0.01"},{"name":"A#4","midi":70,"time":"332.84","velocity":0.3937007874015748,"duration":"0.02"},{"name":"E5","midi":76,"time":"332.84","velocity":0.3228346456692913,"duration":"0.14"},{"name":"E3","midi":52,"time":"332.85","velocity":0.5433070866141733,"duration":"0.06"},{"name":"C#5","midi":73,"time":"332.85","velocity":0.25984251968503935,"duration":"0.02"},{"name":"C#6","midi":85,"time":"332.85","velocity":0.31496062992125984,"duration":"0.20"},{"name":"F#4","midi":66,"time":"332.86","velocity":0.3779527559055118,"duration":"0.03"},{"name":"A4","midi":69,"time":"332.86","velocity":0.5118110236220472,"duration":"0.35"},{"name":"D6","midi":86,"time":"332.86","velocity":0.1968503937007874,"duration":"0.10"},{"name":"G6","midi":91,"time":"332.86","velocity":0.11811023622047244,"duration":"0.05"},{"name":"D5","midi":74,"time":"332.87","velocity":0.2440944881889764,"duration":"0.02"},{"name":"G#5","midi":80,"time":"332.87","velocity":0.28346456692913385,"duration":"0.02"},{"name":"D#6","midi":87,"time":"332.88","velocity":0.2125984251968504,"duration":"0.35"},{"name":"F6","midi":89,"time":"332.88","velocity":0.1968503937007874,"duration":"0.29"},{"name":"A#3","midi":58,"time":"332.90","velocity":0.33858267716535434,"duration":"0.05"},{"name":"D#3","midi":51,"time":"332.91","velocity":0.5433070866141733,"duration":"0.01"},{"name":"F#4","midi":66,"time":"332.91","velocity":0.31496062992125984,"duration":"0.02"},{"name":"B4","midi":71,"time":"332.91","velocity":0.4409448818897638,"duration":"0.02"},{"name":"E3","midi":52,"time":"332.92","velocity":0.5669291338582677,"duration":"0.27"},{"name":"D4","midi":62,"time":"332.92","velocity":0.33070866141732286,"duration":"0.09"},{"name":"G#5","midi":80,"time":"332.92","velocity":0.2755905511811024,"duration":"0.02"},{"name":"G6","midi":91,"time":"332.92","velocity":0.2204724409448819,"duration":"0.16"},{"name":"B4","midi":71,"time":"332.94","velocity":0.49606299212598426,"duration":"0.15"},{"name":"A#3","midi":58,"time":"332.95","velocity":0.4251968503937008,"duration":"0.07"},{"name":"F5","midi":77,"time":"332.98","velocity":0.29133858267716534,"duration":"0.02"},{"name":"E5","midi":76,"time":"333.00","velocity":0.33858267716535434,"duration":"0.10"},{"name":"G#5","midi":80,"time":"333.00","velocity":0.2992125984251969,"duration":"0.05"},{"name":"A#6","midi":94,"time":"333.00","velocity":0.1889763779527559,"duration":"0.09"},{"name":"E7","midi":100,"time":"333.00","velocity":0.2755905511811024,"duration":"0.63"},{"name":"A#3","midi":58,"time":"333.05","velocity":0.36220472440944884,"duration":"0.03"},{"name":"C#6","midi":85,"time":"333.06","velocity":0.14173228346456693,"duration":"0.03"},{"name":"G#5","midi":80,"time":"333.08","velocity":0.30708661417322836,"duration":"0.02"},{"name":"G6","midi":91,"time":"333.09","velocity":0.1889763779527559,"duration":"0.06"},{"name":"C7","midi":96,"time":"333.09","velocity":0.13385826771653545,"duration":"0.06"},{"name":"A#3","midi":58,"time":"333.10","velocity":0.3779527559055118,"duration":"0.03"},{"name":"F5","midi":77,"time":"333.10","velocity":0.31496062992125984,"duration":"0.09"},{"name":"C#6","midi":85,"time":"333.10","velocity":0.25984251968503935,"duration":"0.12"},{"name":"B4","midi":71,"time":"333.12","velocity":0.49606299212598426,"duration":"0.44"},{"name":"F#5","midi":78,"time":"333.12","velocity":0.18110236220472442,"duration":"0.05"},{"name":"G7","midi":103,"time":"333.14","velocity":0.23622047244094488,"duration":"0.21"},{"name":"F2","midi":41,"time":"333.16","velocity":0.7086614173228346,"duration":"0.06"},{"name":"B3","midi":59,"time":"333.16","velocity":0.3700787401574803,"duration":"0.02"},{"name":"G#5","midi":80,"time":"333.16","velocity":0.2755905511811024,"duration":"0.26"},{"name":"G6","midi":91,"time":"333.16","velocity":0.15748031496062992,"duration":"0.06"},{"name":"C7","midi":96,"time":"333.16","velocity":0.1732283464566929,"duration":"0.08"},{"name":"D7","midi":98,"time":"333.16","velocity":0.23622047244094488,"duration":"0.03"},{"name":"F7","midi":101,"time":"333.16","velocity":0.2047244094488189,"duration":"0.10"},{"name":"F#4","midi":66,"time":"333.17","velocity":0.3779527559055118,"duration":"0.02"},{"name":"D5","midi":74,"time":"333.17","velocity":0.23622047244094488,"duration":"0.05"},{"name":"G5","midi":79,"time":"333.17","velocity":0.2047244094488189,"duration":"0.05"},{"name":"G#6","midi":92,"time":"333.17","velocity":0.29133858267716534,"duration":"0.05"},{"name":"F#3","midi":54,"time":"333.20","velocity":0.5275590551181102,"duration":"0.01"},{"name":"C#4","midi":61,"time":"333.20","velocity":0.3858267716535433,"duration":"0.10"},{"name":"E5","midi":76,"time":"333.20","velocity":0.3543307086614173,"duration":"0.36"},{"name":"F#6","midi":90,"time":"333.20","velocity":0.3464566929133858,"duration":"0.59"},{"name":"E4","midi":64,"time":"333.21","velocity":0.3779527559055118,"duration":"0.38"},{"name":"A6","midi":93,"time":"333.21","velocity":0.14960629921259844,"duration":"0.09"},{"name":"E3","midi":52,"time":"333.22","velocity":0.5511811023622047,"duration":"0.03"},{"name":"D6","midi":86,"time":"333.22","velocity":0.14960629921259844,"duration":"0.08"},{"name":"A#6","midi":94,"time":"333.23","velocity":0.14960629921259844,"duration":"0.03"},{"name":"B1","midi":35,"time":"333.24","velocity":0.5433070866141733,"duration":"0.01"},{"name":"A4","midi":69,"time":"333.24","velocity":0.36220472440944884,"duration":"0.05"},{"name":"C2","midi":36,"time":"333.26","velocity":0.5118110236220472,"duration":"0.01"},{"name":"D#3","midi":51,"time":"333.26","velocity":0.5511811023622047,"duration":"0.01"},{"name":"E3","midi":52,"time":"333.27","velocity":0.5590551181102362,"duration":"0.26"},{"name":"C#6","midi":85,"time":"333.27","velocity":0.2125984251968504,"duration":"0.08"},{"name":"G5","midi":79,"time":"333.28","velocity":0.16535433070866143,"duration":"0.06"},{"name":"G#4","midi":68,"time":"333.29","velocity":0.30708661417322836,"duration":"0.07"},{"name":"C#5","midi":73,"time":"333.30","velocity":0.1968503937007874,"duration":"0.03"},{"name":"F6","midi":89,"time":"333.30","velocity":0.14960629921259844,"duration":"0.06"},{"name":"A6","midi":93,"time":"333.31","velocity":0.25196850393700787,"duration":"0.41"},{"name":"E2","midi":40,"time":"333.33","velocity":0.4015748031496063,"duration":"0.02"},{"name":"C#4","midi":61,"time":"333.34","velocity":0.30708661417322836,"duration":"0.02"},{"name":"F#5","midi":78,"time":"333.34","velocity":0.1968503937007874,"duration":"0.03"},{"name":"D#6","midi":87,"time":"333.34","velocity":0.09448818897637795,"duration":"0.03"},{"name":"C6","midi":84,"time":"333.35","velocity":0.11023622047244094,"duration":"0.03"},{"name":"E2","midi":40,"time":"333.36","velocity":0.4094488188976378,"duration":"0.02"},{"name":"C#5","midi":73,"time":"333.36","velocity":0.2677165354330709,"duration":"0.05"},{"name":"G6","midi":91,"time":"333.36","velocity":0.16535433070866143,"duration":"0.08"},{"name":"G#6","midi":92,"time":"333.36","velocity":0.2992125984251969,"duration":"0.44"},{"name":"F7","midi":101,"time":"333.36","velocity":0.14173228346456693,"duration":"0.07"},{"name":"C#4","midi":61,"time":"333.37","velocity":0.33070866141732286,"duration":"0.02"},{"name":"G#4","midi":68,"time":"333.37","velocity":0.3464566929133858,"duration":"0.07"},{"name":"D7","midi":98,"time":"333.37","velocity":0.2125984251968504,"duration":"0.23"},{"name":"F#5","midi":78,"time":"333.38","velocity":0.2047244094488189,"duration":"0.07"},{"name":"A5","midi":81,"time":"333.38","velocity":0.2283464566929134,"duration":"0.06"},{"name":"D6","midi":86,"time":"333.38","velocity":0.2283464566929134,"duration":"0.08"},{"name":"E2","midi":40,"time":"333.40","velocity":0.4094488188976378,"duration":"0.02"},{"name":"D#6","midi":87,"time":"333.40","velocity":0.1889763779527559,"duration":"0.16"},{"name":"B3","midi":59,"time":"333.41","velocity":0.3858267716535433,"duration":"0.08"},{"name":"F6","midi":89,"time":"333.41","velocity":0.11811023622047244,"duration":"0.06"},{"name":"E2","midi":40,"time":"333.43","velocity":0.4094488188976378,"duration":"0.07"},{"name":"A4","midi":69,"time":"333.44","velocity":0.33858267716535434,"duration":"0.08"},{"name":"G5","midi":79,"time":"333.45","velocity":0.28346456692913385,"duration":"0.03"},{"name":"C7","midi":96,"time":"333.47","velocity":0.09448818897637795,"duration":"0.03"},{"name":"G#5","midi":80,"time":"333.48","velocity":0.23622047244094488,"duration":"0.07"},{"name":"F#5","midi":78,"time":"333.49","velocity":0.2755905511811024,"duration":"0.09"},{"name":"D6","midi":86,"time":"333.49","velocity":0.2047244094488189,"duration":"0.09"},{"name":"F2","midi":41,"time":"333.50","velocity":0.3937007874015748,"duration":"0.02"},{"name":"B3","midi":59,"time":"333.50","velocity":0.41732283464566927,"duration":"0.05"},{"name":"F3","midi":53,"time":"333.52","velocity":0.5354330708661418,"duration":"0.03"},{"name":"F6","midi":89,"time":"333.52","velocity":0.2125984251968504,"duration":"0.07"},{"name":"F7","midi":101,"time":"333.52","velocity":0.31496062992125984,"duration":"2.95"},{"name":"G7","midi":103,"time":"333.52","velocity":0.28346456692913385,"duration":"0.15"},{"name":"A4","midi":69,"time":"333.53","velocity":0.4645669291338583,"duration":"0.07"},{"name":"C#5","midi":73,"time":"333.55","velocity":0.33858267716535434,"duration":"0.02"},{"name":"G6","midi":91,"time":"333.55","velocity":0.2283464566929134,"duration":"0.07"},{"name":"A#6","midi":94,"time":"333.55","velocity":0.15748031496062992,"duration":"0.07"},{"name":"G2","midi":43,"time":"333.56","velocity":0.5984251968503937,"duration":"0.01"},{"name":"E3","midi":52,"time":"333.56","velocity":0.5826771653543307,"duration":"0.01"},{"name":"C#6","midi":85,"time":"333.56","velocity":0.4409448818897638,"duration":"3.38"},{"name":"C7","midi":96,"time":"333.56","velocity":0.14960629921259844,"duration":"0.06"},{"name":"G#2","midi":44,"time":"333.57","velocity":0.6299212598425197,"duration":"0.02"},{"name":"A3","midi":57,"time":"333.57","velocity":0.5118110236220472,"duration":"0.01"},{"name":"F#4","midi":66,"time":"333.57","velocity":0.36220472440944884,"duration":"0.02"},{"name":"D5","midi":74,"time":"333.57","velocity":0.3228346456692913,"duration":"0.02"},{"name":"G5","midi":79,"time":"333.57","velocity":0.2992125984251969,"duration":"0.03"},{"name":"C6","midi":84,"time":"333.57","velocity":0.28346456692913385,"duration":"0.05"},{"name":"D#6","midi":87,"time":"333.57","velocity":0.14173228346456693,"duration":"0.03"},{"name":"A#4","midi":70,"time":"333.58","velocity":0.3228346456692913,"duration":"0.03"},{"name":"A#1","midi":34,"time":"333.59","velocity":0.5354330708661418,"duration":"0.01"},{"name":"A#2","midi":46,"time":"333.59","velocity":0.5590551181102362,"duration":"0.01"},{"name":"A3","midi":57,"time":"333.59","velocity":0.49606299212598426,"duration":"0.34"},{"name":"C#5","midi":73,"time":"333.59","velocity":0.5196850393700787,"duration":"0.28"},{"name":"G#5","midi":80,"time":"333.59","velocity":0.33858267716535434,"duration":"0.12"},{"name":"B5","midi":83,"time":"333.59","velocity":0.25196850393700787,"duration":"0.19"},{"name":"G1","midi":31,"time":"333.60","velocity":0.5511811023622047,"duration":"0.02"},{"name":"C3","midi":48,"time":"333.60","velocity":0.5433070866141733,"duration":"0.01"},{"name":"E4","midi":64,"time":"333.60","velocity":0.29133858267716534,"duration":"0.02"},{"name":"B4","midi":71,"time":"333.60","velocity":0.3464566929133858,"duration":"0.12"},{"name":"A5","midi":81,"time":"333.60","velocity":0.2992125984251969,"duration":"0.16"},{"name":"A2","midi":45,"time":"333.62","velocity":0.5905511811023622,"duration":"0.01"},{"name":"C#4","midi":61,"time":"333.62","velocity":0.3700787401574803,"duration":"0.26"},{"name":"A4","midi":69,"time":"333.62","velocity":0.5196850393700787,"duration":"0.71"},{"name":"B1","midi":35,"time":"333.63","velocity":0.5748031496062992,"duration":"0.01"},{"name":"G5","midi":79,"time":"333.63","velocity":0.2047244094488189,"duration":"0.05"},{"name":"C#2","midi":37,"time":"333.64","velocity":0.5669291338582677,"duration":"0.01"},{"name":"A#6","midi":94,"time":"333.64","velocity":0.1732283464566929,"duration":"0.06"},{"name":"G#2","midi":44,"time":"333.65","velocity":0.5669291338582677,"duration":"0.01"},{"name":"D#6","midi":87,"time":"333.65","velocity":0.11023622047244094,"duration":"0.03"},{"name":"A2","midi":45,"time":"333.66","velocity":0.5590551181102362,"duration":"0.09"},{"name":"E3","midi":52,"time":"333.67","velocity":0.4881889763779528,"duration":"0.02"},{"name":"F#5","midi":78,"time":"333.67","velocity":0.14960629921259844,"duration":"0.03"},{"name":"F6","midi":89,"time":"333.67","velocity":0.14173228346456693,"duration":"0.05"},{"name":"E7","midi":100,"time":"333.69","velocity":0.14960629921259844,"duration":"0.03"},{"name":"G7","midi":103,"time":"333.69","velocity":0.1968503937007874,"duration":"0.09"},{"name":"E4","midi":64,"time":"333.70","velocity":0.16535433070866143,"duration":"0.03"},{"name":"G6","midi":91,"time":"333.70","velocity":0.11811023622047244,"duration":"0.05"},{"name":"E3","midi":52,"time":"333.71","velocity":0.4409448818897638,"duration":"0.06"},{"name":"A#6","midi":94,"time":"333.72","velocity":0.09448818897637795,"duration":"0.09"},{"name":"G5","midi":79,"time":"333.74","velocity":0.12598425196850394,"duration":"0.03"},{"name":"C7","midi":96,"time":"333.74","velocity":0.12598425196850394,"duration":"0.19"},{"name":"G#2","midi":44,"time":"333.76","velocity":0.5590551181102362,"duration":"0.01"},{"name":"A#5","midi":82,"time":"333.76","velocity":0.2283464566929134,"duration":"0.10"},{"name":"A2","midi":45,"time":"333.77","velocity":0.5590551181102362,"duration":"0.01"},{"name":"G#5","midi":80,"time":"333.77","velocity":0.4330708661417323,"duration":"0.10"},{"name":"F6","midi":89,"time":"333.77","velocity":0.11811023622047244,"duration":"0.05"},{"name":"A#2","midi":46,"time":"333.78","velocity":0.5354330708661418,"duration":"0.01"},{"name":"E3","midi":52,"time":"333.78","velocity":0.4094488188976378,"duration":"0.02"},{"name":"A6","midi":93,"time":"333.78","velocity":0.15748031496062992,"duration":"0.08"},{"name":"A2","midi":45,"time":"333.79","velocity":0.5590551181102362,"duration":"0.15"},{"name":"G7","midi":103,"time":"333.79","velocity":0.12598425196850394,"duration":"0.06"},{"name":"B5","midi":83,"time":"333.80","velocity":0.23622047244094488,"duration":"0.19"},{"name":"E3","midi":52,"time":"333.81","velocity":0.3779527559055118,"duration":"0.02"},{"name":"G6","midi":91,"time":"333.84","velocity":0.11023622047244094,"duration":"0.05"},{"name":"E3","midi":52,"time":"333.85","velocity":0.4094488188976378,"duration":"0.10"},{"name":"G4","midi":67,"time":"333.85","velocity":0.2677165354330709,"duration":"0.02"},{"name":"A#6","midi":94,"time":"333.86","velocity":0.07874015748031496,"duration":"0.06"},{"name":"G7","midi":103,"time":"333.86","velocity":0.11811023622047244,"duration":"0.05"},{"name":"G5","midi":79,"time":"333.87","velocity":0.1732283464566929,"duration":"0.05"},{"name":"F6","midi":89,"time":"333.87","velocity":0.31496062992125984,"duration":"0.20"},{"name":"C#5","midi":73,"time":"333.88","velocity":0.4094488188976378,"duration":"0.16"},{"name":"F#6","midi":90,"time":"333.88","velocity":0.09448818897637795,"duration":"0.03"},{"name":"G#6","midi":92,"time":"333.88","velocity":0.31496062992125984,"duration":"0.42"},{"name":"C#4","midi":61,"time":"333.90","velocity":0.4094488188976378,"duration":"0.19"},{"name":"D#7","midi":99,"time":"333.91","velocity":0.2677165354330709,"duration":"0.16"},{"name":"G4","midi":67,"time":"333.92","velocity":0.23622047244094488,"duration":"0.03"},{"name":"G#5","midi":80,"time":"333.92","velocity":0.4409448818897638,"duration":"0.41"},{"name":"G6","midi":91,"time":"333.92","velocity":0.2283464566929134,"duration":"0.06"},{"name":"E7","midi":100,"time":"333.92","velocity":0.2440944881889764,"duration":"0.09"},{"name":"F#6","midi":90,"time":"333.93","velocity":0.12598425196850394,"duration":"0.03"},{"name":"A#6","midi":94,"time":"333.93","velocity":0.18110236220472442,"duration":"0.09"},{"name":"A#2","midi":46,"time":"333.94","velocity":0.5354330708661418,"duration":"0.02"},{"name":"A2","midi":45,"time":"333.97","velocity":0.5748031496062992,"duration":"0.35"},{"name":"E4","midi":64,"time":"333.97","velocity":0.2204724409448819,"duration":"0.05"},{"name":"A#5","midi":82,"time":"333.97","velocity":0.2125984251968504,"duration":"0.03"},{"name":"E3","midi":52,"time":"333.98","velocity":0.4566929133858268,"duration":"0.31"},{"name":"G5","midi":79,"time":"333.98","velocity":0.1968503937007874,"duration":"0.03"},{"name":"E6","midi":88,"time":"333.99","velocity":0.28346456692913385,"duration":"0.03"},{"name":"C7","midi":96,"time":"333.99","velocity":0.1889763779527559,"duration":"0.08"},{"name":"G7","midi":103,"time":"333.99","velocity":0.23622047244094488,"duration":"0.83"},{"name":"F#5","midi":78,"time":"334.01","velocity":0.11811023622047244,"duration":"0.03"},{"name":"A#5","midi":82,"time":"334.02","velocity":0.12598425196850394,"duration":"0.03"},{"name":"E5","midi":76,"time":"334.03","velocity":0.4015748031496063,"duration":"0.29"},{"name":"F#6","midi":90,"time":"334.03","velocity":0.14173228346456693,"duration":"0.16"},{"name":"G6","midi":91,"time":"334.03","velocity":0.28346456692913385,"duration":"0.42"},{"name":"B6","midi":95,"time":"334.03","velocity":0.11811023622047244,"duration":"0.08"},{"name":"B5","midi":83,"time":"334.07","velocity":0.28346456692913385,"duration":"0.35"},{"name":"C#5","midi":73,"time":"334.08","velocity":0.5118110236220472,"duration":"0.24"},{"name":"A#6","midi":94,"time":"334.08","velocity":0.16535433070866143,"duration":"0.08"},{"name":"D#7","midi":99,"time":"334.10","velocity":0.14960629921259844,"duration":"0.09"},{"name":"D#6","midi":87,"time":"334.12","velocity":0.12598425196850394,"duration":"0.16"},{"name":"F6","midi":89,"time":"334.13","velocity":0.2283464566929134,"duration":"0.03"},{"name":"A#5","midi":82,"time":"334.14","velocity":0.14960629921259844,"duration":"0.03"},{"name":"C7","midi":96,"time":"334.16","velocity":0.1889763779527559,"duration":"0.10"},{"name":"A#5","midi":82,"time":"334.19","velocity":0.12598425196850394,"duration":"0.12"},{"name":"A#6","midi":94,"time":"334.19","velocity":0.1968503937007874,"duration":"0.06"},{"name":"B6","midi":95,"time":"334.21","velocity":0.28346456692913385,"duration":"0.13"},{"name":"F6","midi":89,"time":"334.22","velocity":0.2677165354330709,"duration":"0.09"},{"name":"F#6","midi":90,"time":"334.23","velocity":0.29133858267716534,"duration":"0.33"},{"name":"A6","midi":93,"time":"334.23","velocity":0.2992125984251969,"duration":"0.14"},{"name":"A#6","midi":94,"time":"334.27","velocity":0.2047244094488189,"duration":"0.23"},{"name":"D6","midi":86,"time":"334.28","velocity":0.3779527559055118,"duration":"0.07"},{"name":"C7","midi":96,"time":"334.29","velocity":0.2125984251968504,"duration":"0.09"},{"name":"D4","midi":62,"time":"334.30","velocity":0.5196850393700787,"duration":"0.02"},{"name":"G#2","midi":44,"time":"334.31","velocity":0.44881889763779526,"duration":"0.02"},{"name":"B4","midi":71,"time":"334.31","velocity":0.5196850393700787,"duration":"0.02"},{"name":"C6","midi":84,"time":"334.31","velocity":0.2677165354330709,"duration":"0.05"},{"name":"D#7","midi":99,"time":"334.31","velocity":0.2125984251968504,"duration":"0.09"},{"name":"F#4","midi":66,"time":"334.33","velocity":0.3779527559055118,"duration":"0.02"},{"name":"D#5","midi":75,"time":"334.33","velocity":0.4251968503937008,"duration":"0.03"},{"name":"F6","midi":89,"time":"334.33","velocity":0.23622047244094488,"duration":"0.08"},{"name":"C#4","midi":61,"time":"334.34","velocity":0.41732283464566927,"duration":"0.02"},{"name":"A#4","midi":70,"time":"334.34","velocity":0.5118110236220472,"duration":"0.03"},{"name":"G#5","midi":80,"time":"334.34","velocity":0.30708661417322836,"duration":"0.05"},{"name":"G#6","midi":92,"time":"334.34","velocity":0.33858267716535434,"duration":"0.33"},{"name":"E3","midi":52,"time":"334.35","velocity":0.49606299212598426,"duration":"0.10"},{"name":"A5","midi":81,"time":"334.35","velocity":0.36220472440944884,"duration":"0.06"},{"name":"A2","midi":45,"time":"334.36","velocity":0.5748031496062992,"duration":"0.35"},{"name":"F#4","midi":66,"time":"334.36","velocity":0.4251968503937008,"duration":"0.09"},{"name":"C5","midi":72,"time":"334.36","velocity":0.2677165354330709,"duration":"0.02"},{"name":"E5","midi":76,"time":"334.36","velocity":0.3228346456692913,"duration":"0.30"},{"name":"D6","midi":86,"time":"334.36","velocity":0.2125984251968504,"duration":"0.06"},{"name":"A4","midi":69,"time":"334.37","velocity":0.47244094488188976,"duration":"0.69"},{"name":"C#5","midi":73,"time":"334.38","velocity":0.5511811023622047,"duration":"1.02"},{"name":"G#5","midi":80,"time":"334.40","velocity":0.4645669291338583,"duration":"0.06"},{"name":"C7","midi":96,"time":"334.41","velocity":0.07086614173228346,"duration":"0.05"},{"name":"C#4","midi":61,"time":"334.42","velocity":0.5196850393700787,"duration":"0.29"},{"name":"B5","midi":83,"time":"334.43","velocity":0.15748031496062992,"duration":"0.16"},{"name":"F6","midi":89,"time":"334.45","velocity":0.25196850393700787,"duration":"0.08"},{"name":"D#7","midi":99,"time":"334.45","velocity":0.11023622047244094,"duration":"0.16"},{"name":"E3","midi":52,"time":"334.47","velocity":0.47244094488188976,"duration":"0.05"},{"name":"G#5","midi":80,"time":"334.47","velocity":0.4251968503937008,"duration":"0.17"},{"name":"A#5","midi":82,"time":"334.48","velocity":0.14173228346456693,"duration":"0.17"},{"name":"C7","midi":96,"time":"334.48","velocity":0.11811023622047244,"duration":"0.13"},{"name":"G6","midi":91,"time":"334.49","velocity":0.1732283464566929,"duration":"0.08"},{"name":"E3","midi":52,"time":"334.53","velocity":0.4251968503937008,"duration":"0.16"},{"name":"F6","midi":89,"time":"334.56","velocity":0.1732283464566929,"duration":"0.08"},{"name":"G5","midi":79,"time":"334.57","velocity":0.2440944881889764,"duration":"0.09"},{"name":"F#7","midi":102,"time":"334.62","velocity":0.14173228346456693,"duration":"0.05"},{"name":"B6","midi":95,"time":"334.63","velocity":0.10236220472440945,"duration":"0.03"},{"name":"G#5","midi":80,"time":"334.65","velocity":0.44881889763779526,"duration":"0.90"},{"name":"B5","midi":83,"time":"334.65","velocity":0.11811023622047244,"duration":"0.03"},{"name":"F6","midi":89,"time":"334.65","velocity":0.14960629921259844,"duration":"0.06"},{"name":"F#6","midi":90,"time":"334.66","velocity":0.2047244094488189,"duration":"0.14"},{"name":"A#6","midi":94,"time":"334.66","velocity":0.10236220472440945,"duration":"0.03"},{"name":"D#7","midi":99,"time":"334.66","velocity":0.29133858267716534,"duration":"0.76"},{"name":"E6","midi":88,"time":"334.67","velocity":0.3700787401574803,"duration":"0.17"},{"name":"B6","midi":95,"time":"334.67","velocity":0.1968503937007874,"duration":"0.28"},{"name":"F#7","midi":102,"time":"334.69","velocity":0.3228346456692913,"duration":"2.00"},{"name":"D7","midi":98,"time":"334.70","velocity":0.11811023622047244,"duration":"0.05"},{"name":"A#2","midi":46,"time":"334.71","velocity":0.4881889763779528,"duration":"0.02"},{"name":"F3","midi":53,"time":"334.71","velocity":0.4409448818897638,"duration":"0.02"},{"name":"B5","midi":83,"time":"334.71","velocity":0.12598425196850394,"duration":"0.05"},{"name":"D#6","midi":87,"time":"334.71","velocity":0.08661417322834646,"duration":"0.05"},{"name":"G6","midi":91,"time":"334.71","velocity":0.1889763779527559,"duration":"0.13"},{"name":"C7","midi":96,"time":"334.71","velocity":0.14173228346456693,"duration":"0.06"},{"name":"A3","midi":57,"time":"334.72","velocity":0.5118110236220472,"duration":"0.36"},{"name":"C#4","midi":61,"time":"334.72","velocity":0.4409448818897638,"duration":"0.33"},{"name":"E5","midi":76,"time":"334.72","velocity":0.3464566929133858,"duration":"0.26"},{"name":"A2","midi":45,"time":"334.73","velocity":0.5511811023622047,"duration":"0.31"},{"name":"E3","midi":52,"time":"334.73","velocity":0.4645669291338583,"duration":"0.31"},{"name":"F6","midi":89,"time":"334.73","velocity":0.2755905511811024,"duration":"0.05"},{"name":"A#6","midi":94,"time":"334.73","velocity":0.18110236220472442,"duration":"0.13"},{"name":"A#5","midi":82,"time":"334.74","velocity":0.1732283464566929,"duration":"0.06"},{"name":"B5","midi":83,"time":"334.78","velocity":0.18110236220472442,"duration":"0.05"},{"name":"D#6","midi":87,"time":"334.78","velocity":0.09448818897637795,"duration":"0.03"},{"name":"G1","midi":31,"time":"334.79","velocity":0.36220472440944884,"duration":"0.02"},{"name":"F6","midi":89,"time":"334.79","velocity":0.16535433070866143,"duration":"0.03"},{"name":"C7","midi":96,"time":"334.79","velocity":0.1732283464566929,"duration":"0.08"},{"name":"D7","midi":98,"time":"334.80","velocity":0.11023622047244094,"duration":"0.03"},{"name":"F#6","midi":90,"time":"334.81","velocity":0.1968503937007874,"duration":"0.10"},{"name":"A#5","midi":82,"time":"334.84","velocity":0.12598425196850394,"duration":"0.03"},{"name":"G7","midi":103,"time":"334.84","velocity":0.25196850393700787,"duration":"0.31"},{"name":"F6","midi":89,"time":"334.85","velocity":0.16535433070866143,"duration":"0.08"},{"name":"D#6","midi":87,"time":"334.86","velocity":0.1732283464566929,"duration":"0.07"},{"name":"G6","midi":91,"time":"334.86","velocity":0.1732283464566929,"duration":"0.05"},{"name":"C6","midi":84,"time":"334.87","velocity":0.12598425196850394,"duration":"0.06"},{"name":"A#5","midi":82,"time":"334.88","velocity":0.16535433070866143,"duration":"0.08"},{"name":"B5","midi":83,"time":"334.88","velocity":0.2283464566929134,"duration":"0.19"},{"name":"C7","midi":96,"time":"334.90","velocity":0.1889763779527559,"duration":"0.05"},{"name":"G5","midi":79,"time":"334.92","velocity":0.29133858267716534,"duration":"0.05"},{"name":"A#6","midi":94,"time":"334.92","velocity":0.18110236220472442,"duration":"0.13"},{"name":"C7","midi":96,"time":"334.95","velocity":0.16535433070866143,"duration":"0.14"},{"name":"G5","midi":79,"time":"334.98","velocity":0.2204724409448819,"duration":"0.05"},{"name":"A#5","midi":82,"time":"334.98","velocity":0.15748031496062992,"duration":"0.07"},{"name":"F#6","midi":90,"time":"334.98","velocity":0.12598425196850394,"duration":"0.03"},{"name":"F6","midi":89,"time":"335.00","velocity":0.25196850393700787,"duration":"0.21"},{"name":"G4","midi":67,"time":"335.01","velocity":0.25196850393700787,"duration":"0.02"},{"name":"E5","midi":76,"time":"335.01","velocity":0.1889763779527559,"duration":"0.05"},{"name":"G5","midi":79,"time":"335.03","velocity":0.2755905511811024,"duration":"0.05"},{"name":"F#6","midi":90,"time":"335.03","velocity":0.23622047244094488,"duration":"0.19"},{"name":"A#2","midi":46,"time":"335.05","velocity":0.6062992125984252,"duration":"0.01"},{"name":"F#4","midi":66,"time":"335.05","velocity":0.23622047244094488,"duration":"0.05"},{"name":"E6","midi":88,"time":"335.05","velocity":0.2125984251968504,"duration":"0.05"},{"name":"D7","midi":98,"time":"335.05","velocity":0.18110236220472442,"duration":"0.03"},{"name":"A2","midi":45,"time":"335.06","velocity":0.6771653543307087,"duration":"0.01"},{"name":"A#5","midi":82,"time":"335.06","velocity":0.18110236220472442,"duration":"0.05"},{"name":"C6","midi":84,"time":"335.06","velocity":0.18110236220472442,"duration":"0.05"},{"name":"G#2","midi":44,"time":"335.07","velocity":0.6456692913385826,"duration":"0.01"},{"name":"A5","midi":81,"time":"335.07","velocity":0.25196850393700787,"duration":"0.07"},{"name":"A#2","midi":46,"time":"335.08","velocity":0.5748031496062992,"duration":"0.01"},{"name":"C4","midi":60,"time":"335.08","velocity":0.3464566929133858,"duration":"0.02"},{"name":"F5","midi":77,"time":"335.08","velocity":0.2283464566929134,"duration":"0.02"},{"name":"F#5","midi":78,"time":"335.08","velocity":0.2440944881889764,"duration":"0.03"},{"name":"F1","midi":29,"time":"335.09","velocity":0.5826771653543307,"duration":"0.02"},{"name":"C3","midi":48,"time":"335.09","velocity":0.5354330708661418,"duration":"0.01"},{"name":"E3","midi":52,"time":"335.09","velocity":0.5354330708661418,"duration":"0.05"},{"name":"A4","midi":69,"time":"335.09","velocity":0.33858267716535434,"duration":"0.17"},{"name":"A2","midi":45,"time":"335.10","velocity":0.5826771653543307,"duration":"0.01"},{"name":"E6","midi":88,"time":"335.10","velocity":0.30708661417322836,"duration":"0.23"},{"name":"B6","midi":95,"time":"335.10","velocity":0.18110236220472442,"duration":"0.17"},{"name":"G#2","midi":44,"time":"335.12","velocity":0.5511811023622047,"duration":"0.01"},{"name":"A2","midi":45,"time":"335.13","velocity":0.5748031496062992,"duration":"0.29"},{"name":"C#4","midi":61,"time":"335.13","velocity":0.41732283464566927,"duration":"0.30"},{"name":"B5","midi":83,"time":"335.13","velocity":0.14173228346456693,"duration":"0.03"},{"name":"D#3","midi":51,"time":"335.14","velocity":0.5118110236220472,"duration":"0.01"},{"name":"A#6","midi":94,"time":"335.14","velocity":0.16535433070866143,"duration":"0.07"},{"name":"E4","midi":64,"time":"335.15","velocity":0.14960629921259844,"duration":"0.07"},{"name":"C6","midi":84,"time":"335.15","velocity":0.14960629921259844,"duration":"0.06"},{"name":"D#6","midi":87,"time":"335.15","velocity":0.08661417322834646,"duration":"0.05"},{"name":"G4","midi":67,"time":"335.16","velocity":0.1889763779527559,"duration":"0.03"},{"name":"E5","midi":76,"time":"335.16","velocity":0.25196850393700787,"duration":"0.28"},{"name":"A#5","midi":82,"time":"335.16","velocity":0.08661417322834646,"duration":"0.05"},{"name":"G5","midi":79,"time":"335.17","velocity":0.23622047244094488,"duration":"0.10"},{"name":"E3","midi":52,"time":"335.20","velocity":0.5039370078740157,"duration":"0.21"},{"name":"C7","midi":96,"time":"335.22","velocity":0.08661417322834646,"duration":"0.09"},{"name":"F6","midi":89,"time":"335.23","velocity":0.15748031496062992,"duration":"0.06"},{"name":"G1","midi":31,"time":"335.24","velocity":0.3858267716535433,"duration":"0.02"},{"name":"B5","midi":83,"time":"335.26","velocity":0.13385826771653545,"duration":"0.06"},{"name":"D#6","midi":87,"time":"335.26","velocity":0.10236220472440945,"duration":"0.03"},{"name":"A#4","midi":70,"time":"335.29","velocity":0.1968503937007874,"duration":"0.03"},{"name":"F6","midi":89,"time":"335.30","velocity":0.15748031496062992,"duration":"0.13"},{"name":"G6","midi":91,"time":"335.30","velocity":0.11811023622047244,"duration":"0.03"},{"name":"A4","midi":69,"time":"335.31","velocity":0.48031496062992124,"duration":"0.48"},{"name":"A#6","midi":94,"time":"335.31","velocity":0.11023622047244094,"duration":"0.03"},{"name":"B6","midi":95,"time":"335.33","velocity":0.16535433070866143,"duration":"0.13"},{"name":"A#5","midi":82,"time":"335.34","velocity":0.14960629921259844,"duration":"0.03"},{"name":"G6","midi":91,"time":"335.35","velocity":0.2047244094488189,"duration":"0.12"},{"name":"G5","midi":79,"time":"335.36","velocity":0.25196850393700787,"duration":"0.08"},{"name":"A#6","midi":94,"time":"335.36","velocity":0.1968503937007874,"duration":"0.10"},{"name":"B5","midi":83,"time":"335.37","velocity":0.11811023622047244,"duration":"0.06"},{"name":"C7","midi":96,"time":"335.38","velocity":0.1889763779527559,"duration":"0.17"},{"name":"A#5","midi":82,"time":"335.40","velocity":0.18110236220472442,"duration":"0.03"},{"name":"E7","midi":100,"time":"335.41","velocity":0.18110236220472442,"duration":"0.06"},{"name":"B1","midi":35,"time":"335.42","velocity":0.5196850393700787,"duration":"0.01"},{"name":"A#2","midi":46,"time":"335.42","velocity":0.6062992125984252,"duration":"0.01"},{"name":"F#4","midi":66,"time":"335.42","velocity":0.4094488188976378,"duration":"0.02"},{"name":"D5","midi":74,"time":"335.42","velocity":0.25196850393700787,"duration":"0.03"},{"name":"D#6","midi":87,"time":"335.42","velocity":0.16535433070866143,"duration":"0.06"},{"name":"E6","midi":88,"time":"335.42","velocity":0.30708661417322836,"duration":"0.16"},{"name":"F#6","midi":90,"time":"335.42","velocity":0.14173228346456693,"duration":"0.03"},{"name":"D7","midi":98,"time":"335.42","velocity":0.1889763779527559,"duration":"0.03"},{"name":"A2","midi":45,"time":"335.43","velocity":0.6535433070866141,"duration":"0.01"},{"name":"E3","midi":52,"time":"335.43","velocity":0.5433070866141733,"duration":"0.01"},{"name":"D#7","midi":99,"time":"335.43","velocity":0.2125984251968504,"duration":"0.17"},{"name":"G#2","midi":44,"time":"335.44","velocity":0.6377952755905512,"duration":"0.02"},{"name":"F3","midi":53,"time":"335.44","velocity":0.48031496062992124,"duration":"0.02"},{"name":"F6","midi":89,"time":"335.44","velocity":0.2047244094488189,"duration":"0.06"},{"name":"C#4","midi":61,"time":"335.45","velocity":0.30708661417322836,"duration":"0.05"},{"name":"C#5","midi":73,"time":"335.45","velocity":0.5039370078740157,"duration":"0.29"},{"name":"E5","midi":76,"time":"335.45","velocity":0.5039370078740157,"duration":"0.38"},{"name":"F1","midi":29,"time":"335.47","velocity":0.5748031496062992,"duration":"0.02"},{"name":"F#3","midi":54,"time":"335.47","velocity":0.47244094488188976,"duration":"0.02"},{"name":"G5","midi":79,"time":"335.47","velocity":0.1968503937007874,"duration":"0.03"},{"name":"B5","midi":83,"time":"335.47","velocity":0.08661417322834646,"duration":"0.08"},{"name":"B6","midi":95,"time":"335.47","velocity":0.1968503937007874,"duration":"0.07"},{"name":"A#1","midi":34,"time":"335.49","velocity":0.5590551181102362,"duration":"0.01"},{"name":"E3","midi":52,"time":"335.49","velocity":0.5275590551181102,"duration":"0.01"},{"name":"A3","midi":57,"time":"335.49","velocity":0.3700787401574803,"duration":"0.05"},{"name":"F#6","midi":90,"time":"335.49","velocity":0.2204724409448819,"duration":"0.15"},{"name":"G6","midi":91,"time":"335.49","velocity":0.23622047244094488,"duration":"0.07"},{"name":"G#2","midi":44,"time":"335.50","velocity":0.5433070866141733,"duration":"0.03"},{"name":"D#3","midi":51,"time":"335.50","velocity":0.5275590551181102,"duration":"0.01"},{"name":"E4","midi":64,"time":"335.50","velocity":0.2440944881889764,"duration":"0.06"},{"name":"E3","midi":52,"time":"335.51","velocity":0.5196850393700787,"duration":"0.05"},{"name":"G5","midi":79,"time":"335.51","velocity":0.1732283464566929,"duration":"0.05"},{"name":"D#6","midi":87,"time":"335.52","velocity":0.11023622047244094,"duration":"0.05"},{"name":"A#1","midi":34,"time":"335.53","velocity":0.33070866141732286,"duration":"0.02"},{"name":"C#4","midi":61,"time":"335.53","velocity":0.25984251968503935,"duration":"0.07"},{"name":"A3","midi":57,"time":"335.55","velocity":0.33858267716535434,"duration":"0.02"},{"name":"B6","midi":95,"time":"335.55","velocity":0.2125984251968504,"duration":"0.36"},{"name":"A2","midi":45,"time":"335.56","velocity":0.5196850393700787,"duration":"0.26"},{"name":"D#3","midi":51,"time":"335.56","velocity":0.5196850393700787,"duration":"0.01"},{"name":"G#5","midi":80,"time":"335.56","velocity":0.47244094488188976,"duration":"0.23"},{"name":"E3","midi":52,"time":"335.57","velocity":0.5118110236220472,"duration":"0.22"},{"name":"A#6","midi":94,"time":"335.57","velocity":0.13385826771653545,"duration":"0.05"},{"name":"G7","midi":103,"time":"335.59","velocity":0.25196850393700787,"duration":"0.29"},{"name":"B5","midi":83,"time":"335.60","velocity":0.13385826771653545,"duration":"0.03"},{"name":"F6","midi":89,"time":"335.60","velocity":0.16535433070866143,"duration":"0.05"},{"name":"G#1","midi":32,"time":"335.62","velocity":0.33070866141732286,"duration":"0.02"},{"name":"G6","midi":91,"time":"335.62","velocity":0.16535433070866143,"duration":"0.12"},{"name":"A#6","midi":94,"time":"335.63","velocity":0.13385826771653545,"duration":"0.03"},{"name":"C#4","midi":61,"time":"335.64","velocity":0.5669291338582677,"duration":"0.17"},{"name":"C7","midi":96,"time":"335.64","velocity":0.11811023622047244,"duration":"0.05"},{"name":"G4","midi":67,"time":"335.65","velocity":0.2283464566929134,"duration":"0.02"},{"name":"F#6","midi":90,"time":"335.65","velocity":0.1732283464566929,"duration":"0.03"},{"name":"D#7","midi":99,"time":"335.65","velocity":0.08661417322834646,"duration":"0.05"},{"name":"F6","midi":89,"time":"335.67","velocity":0.13385826771653545,"duration":"0.03"},{"name":"A#5","midi":82,"time":"335.70","velocity":0.11023622047244094,"duration":"0.08"},{"name":"F#6","midi":90,"time":"335.70","velocity":0.28346456692913385,"duration":"0.23"},{"name":"B5","midi":83,"time":"335.71","velocity":0.2204724409448819,"duration":"0.09"},{"name":"C7","midi":96,"time":"335.71","velocity":0.12598425196850394,"duration":"0.06"},{"name":"G5","midi":79,"time":"335.72","velocity":0.09448818897637795,"duration":"0.03"},{"name":"F6","midi":89,"time":"335.72","velocity":0.11811023622047244,"duration":"0.06"},{"name":"A6","midi":93,"time":"335.72","velocity":0.28346456692913385,"duration":"0.21"},{"name":"A#6","midi":94,"time":"335.73","velocity":0.2047244094488189,"duration":"0.16"},{"name":"F4","midi":65,"time":"335.78","velocity":0.5118110236220472,"duration":"0.02"},{"name":"C7","midi":96,"time":"335.78","velocity":0.29133858267716534,"duration":"0.13"},{"name":"B4","midi":71,"time":"335.79","velocity":0.4566929133858268,"duration":"0.02"},{"name":"D5","midi":74,"time":"335.79","velocity":0.31496062992125984,"duration":"0.02"},{"name":"G5","midi":79,"time":"335.79","velocity":0.36220472440944884,"duration":"0.02"},{"name":"C6","midi":84,"time":"335.79","velocity":0.2047244094488189,"duration":"0.07"},{"name":"F6","midi":89,"time":"335.79","velocity":0.23622047244094488,"duration":"0.03"},{"name":"D7","midi":98,"time":"335.79","velocity":0.16535433070866143,"duration":"0.10"},{"name":"E7","midi":100,"time":"335.79","velocity":0.2047244094488189,"duration":"0.15"},{"name":"G#5","midi":80,"time":"335.80","velocity":0.5118110236220472,"duration":"0.70"},{"name":"A4","midi":69,"time":"335.81","velocity":0.4645669291338583,"duration":"0.02"},{"name":"F5","midi":77,"time":"335.81","velocity":0.33070866141732286,"duration":"0.08"},{"name":"D#7","midi":99,"time":"335.83","velocity":0.2283464566929134,"duration":"0.09"},{"name":"B4","midi":71,"time":"335.84","velocity":0.33858267716535434,"duration":"0.02"},{"name":"A#5","midi":82,"time":"335.84","velocity":0.1889763779527559,"duration":"0.06"},{"name":"D#6","midi":87,"time":"335.84","velocity":0.14960629921259844,"duration":"0.03"},{"name":"E1","midi":28,"time":"335.85","velocity":0.23622047244094488,"duration":"0.02"},{"name":"A2","midi":45,"time":"335.85","velocity":0.5511811023622047,"duration":"0.35"},{"name":"E3","midi":52,"time":"335.85","velocity":0.4409448818897638,"duration":"0.02"},{"name":"C#4","midi":61,"time":"335.85","velocity":0.30708661417322836,"duration":"0.02"},{"name":"F#4","midi":66,"time":"335.85","velocity":0.3937007874015748,"duration":"0.10"},{"name":"E5","midi":76,"time":"335.85","velocity":0.28346456692913385,"duration":"0.14"},{"name":"A4","midi":69,"time":"335.86","velocity":0.4881889763779528,"duration":"0.69"},{"name":"G6","midi":91,"time":"335.86","velocity":0.2047244094488189,"duration":"0.06"},{"name":"E3","midi":52,"time":"335.88","velocity":0.47244094488188976,"duration":"0.29"},{"name":"C#4","midi":61,"time":"335.88","velocity":0.4409448818897638,"duration":"0.29"},{"name":"B5","midi":83,"time":"335.90","velocity":0.1889763779527559,"duration":"0.07"},{"name":"D6","midi":86,"time":"335.90","velocity":0.14173228346456693,"duration":"0.06"},{"name":"A#6","midi":94,"time":"335.91","velocity":0.16535433070866143,"duration":"0.05"},{"name":"D#5","midi":75,"time":"335.92","velocity":0.1732283464566929,"duration":"0.03"},{"name":"G7","midi":103,"time":"335.92","velocity":0.2047244094488189,"duration":"0.24"},{"name":"B6","midi":95,"time":"335.93","velocity":0.2125984251968504,"duration":"0.22"},{"name":"G6","midi":91,"time":"335.94","velocity":0.12598425196850394,"duration":"0.03"},{"name":"D#6","midi":87,"time":"335.95","velocity":0.11811023622047244,"duration":"0.05"},{"name":"D7","midi":98,"time":"335.95","velocity":0.12598425196850394,"duration":"0.05"},{"name":"F#6","midi":90,"time":"335.97","velocity":0.14960629921259844,"duration":"0.09"},{"name":"A#5","midi":82,"time":"335.98","velocity":0.14960629921259844,"duration":"0.03"},{"name":"B5","midi":83,"time":"335.98","velocity":0.1889763779527559,"duration":"0.22"},{"name":"A6","midi":93,"time":"335.98","velocity":0.1889763779527559,"duration":"0.14"},{"name":"F5","midi":77,"time":"335.99","velocity":0.14173228346456693,"duration":"0.03"},{"name":"G6","midi":91,"time":"335.99","velocity":0.2047244094488189,"duration":"0.05"},{"name":"E5","midi":76,"time":"336.00","velocity":0.23622047244094488,"duration":"0.06"},{"name":"G5","midi":79,"time":"336.01","velocity":0.2125984251968504,"duration":"0.05"},{"name":"D#7","midi":99,"time":"336.01","velocity":0.07874015748031496,"duration":"0.06"},{"name":"C7","midi":96,"time":"336.03","velocity":0.12598425196850394,"duration":"0.12"},{"name":"A#5","midi":82,"time":"336.06","velocity":0.15748031496062992,"duration":"0.12"},{"name":"G6","midi":91,"time":"336.07","velocity":0.09448818897637795,"duration":"0.03"},{"name":"E5","midi":76,"time":"336.08","velocity":0.11811023622047244,"duration":"0.05"},{"name":"G5","midi":79,"time":"336.09","velocity":0.31496062992125984,"duration":"0.09"},{"name":"F6","midi":89,"time":"336.09","velocity":0.1889763779527559,"duration":"0.07"},{"name":"F#6","midi":90,"time":"336.09","velocity":0.11023622047244094,"duration":"0.03"},{"name":"A#6","midi":94,"time":"336.09","velocity":0.2047244094488189,"duration":"0.26"},{"name":"F#6","midi":90,"time":"336.15","velocity":0.2755905511811024,"duration":"0.27"},{"name":"D#7","midi":99,"time":"336.15","velocity":0.2440944881889764,"duration":"0.28"},{"name":"E7","midi":100,"time":"336.16","velocity":0.14173228346456693,"duration":"0.08"},{"name":"D4","midi":62,"time":"336.17","velocity":0.2755905511811024,"duration":"0.03"},{"name":"F5","midi":77,"time":"336.17","velocity":0.2125984251968504,"duration":"0.03"},{"name":"D#6","midi":87,"time":"336.17","velocity":0.08661417322834646,"duration":"0.03"},{"name":"F4","midi":65,"time":"336.19","velocity":0.25196850393700787,"duration":"0.05"},{"name":"C5","midi":72,"time":"336.19","velocity":0.25984251968503935,"duration":"0.02"},{"name":"E6","midi":88,"time":"336.19","velocity":0.31496062992125984,"duration":"0.09"},{"name":"G7","midi":103,"time":"336.19","velocity":0.2677165354330709,"duration":"0.16"},{"name":"C#5","midi":73,"time":"336.20","velocity":0.5354330708661418,"duration":"0.49"},{"name":"C7","midi":96,"time":"336.20","velocity":0.18110236220472442,"duration":"0.20"},{"name":"A3","midi":57,"time":"336.21","velocity":0.47244094488188976,"duration":"0.33"},{"name":"E5","midi":76,"time":"336.21","velocity":0.30708661417322836,"duration":"0.35"},{"name":"G6","midi":91,"time":"336.21","velocity":0.2283464566929134,"duration":"0.06"},{"name":"E3","midi":52,"time":"336.22","velocity":0.47244094488188976,"duration":"0.31"},{"name":"A2","midi":45,"time":"336.23","velocity":0.6062992125984252,"duration":"0.34"},{"name":"B5","midi":83,"time":"336.26","velocity":0.2125984251968504,"duration":"0.15"},{"name":"D#6","midi":87,"time":"336.27","velocity":0.1732283464566929,"duration":"0.05"},{"name":"D7","midi":98,"time":"336.27","velocity":0.10236220472440945,"duration":"0.07"},{"name":"F#4","midi":66,"time":"336.28","velocity":0.2283464566929134,"duration":"0.02"},{"name":"G6","midi":91,"time":"336.28","velocity":0.1732283464566929,"duration":"0.05"},{"name":"G1","midi":31,"time":"336.30","velocity":0.23622047244094488,"duration":"0.02"},{"name":"C#4","midi":61,"time":"336.30","velocity":0.3228346456692913,"duration":"0.07"},{"name":"A#5","midi":82,"time":"336.34","velocity":0.09448818897637795,"duration":"0.03"},{"name":"G6","midi":91,"time":"336.34","velocity":0.14960629921259844,"duration":"0.20"},{"name":"F6","midi":89,"time":"336.35","velocity":0.1968503937007874,"duration":"0.10"},{"name":"B6","midi":95,"time":"336.35","velocity":0.23622047244094488,"duration":"0.45"},{"name":"D7","midi":98,"time":"336.35","velocity":0.10236220472440945,"duration":"0.05"},{"name":"A#6","midi":94,"time":"336.36","velocity":0.13385826771653545,"duration":"0.05"},{"name":"G7","midi":103,"time":"336.36","velocity":0.25984251968503935,"duration":"0.53"},{"name":"G5","midi":79,"time":"336.38","velocity":0.09448818897637795,"duration":"0.07"},{"name":"C#4","midi":61,"time":"336.41","velocity":0.4015748031496063,"duration":"0.14"},{"name":"D7","midi":98,"time":"336.41","velocity":0.09448818897637795,"duration":"0.05"},{"name":"A#6","midi":94,"time":"336.42","velocity":0.12598425196850394,"duration":"0.06"},{"name":"B5","midi":83,"time":"336.43","velocity":0.09448818897637795,"duration":"0.07"},{"name":"A#5","midi":82,"time":"336.44","velocity":0.11811023622047244,"duration":"0.05"},{"name":"D#7","midi":99,"time":"336.45","velocity":0.2440944881889764,"duration":"0.37"},{"name":"G5","midi":79,"time":"336.49","velocity":0.31496062992125984,"duration":"0.09"},{"name":"F#6","midi":90,"time":"336.49","velocity":0.14173228346456693,"duration":"0.05"},{"name":"A#6","midi":94,"time":"336.49","velocity":0.11023622047244094,"duration":"0.05"},{"name":"F7","midi":101,"time":"336.49","velocity":0.2283464566929134,"duration":"0.26"},{"name":"F3","midi":53,"time":"336.53","velocity":0.4881889763779528,"duration":"0.02"},{"name":"F6","midi":89,"time":"336.53","velocity":0.23622047244094488,"duration":"0.30"},{"name":"D7","midi":98,"time":"336.53","velocity":0.15748031496062992,"duration":"0.05"},{"name":"C2","midi":36,"time":"336.55","velocity":0.5118110236220472,"duration":"0.01"},{"name":"C4","midi":60,"time":"336.55","velocity":0.44881889763779526,"duration":"0.02"},{"name":"A#4","midi":70,"time":"336.55","velocity":0.4330708661417323,"duration":"0.02"},{"name":"F5","midi":77,"time":"336.55","velocity":0.2677165354330709,"duration":"0.03"},{"name":"C6","midi":84,"time":"336.55","velocity":0.1732283464566929,"duration":"0.05"},{"name":"D6","midi":86,"time":"336.55","velocity":0.2047244094488189,"duration":"0.03"},{"name":"D#6","midi":87,"time":"336.55","velocity":0.16535433070866143,"duration":"0.03"},{"name":"F#6","midi":90,"time":"336.55","velocity":0.2283464566929134,"duration":"0.10"},{"name":"D#5","midi":75,"time":"336.56","velocity":0.29133858267716534,"duration":"0.02"},{"name":"G#5","midi":80,"time":"336.56","velocity":0.3779527559055118,"duration":"0.10"},{"name":"E6","midi":88,"time":"336.56","velocity":0.2755905511811024,"duration":"0.13"},{"name":"A#6","midi":94,"time":"336.56","velocity":0.10236220472440945,"duration":"0.05"},{"name":"A#2","midi":46,"time":"336.57","velocity":0.5905511811023622,"duration":"0.01"},{"name":"G#3","midi":56,"time":"336.57","velocity":0.44881889763779526,"duration":"0.02"},{"name":"C#4","midi":61,"time":"336.57","velocity":0.49606299212598426,"duration":"0.63"},{"name":"A4","midi":69,"time":"336.57","velocity":0.4330708661417323,"duration":"0.35"},{"name":"B0","midi":23,"time":"336.58","velocity":0.5354330708661418,"duration":"0.01"},{"name":"B2","midi":47,"time":"336.58","velocity":0.6299212598425197,"duration":"0.01"},{"name":"G6","midi":91,"time":"336.58","velocity":0.1732283464566929,"duration":"0.22"},{"name":"F1","midi":29,"time":"336.59","velocity":0.6141732283464567,"duration":"0.02"},{"name":"A#2","midi":46,"time":"336.59","velocity":0.5984251968503937,"duration":"0.01"},{"name":"B5","midi":83,"time":"336.59","velocity":0.2283464566929134,"duration":"0.07"},{"name":"A2","midi":45,"time":"336.60","velocity":0.5905511811023622,"duration":"0.35"},{"name":"B1","midi":35,"time":"336.62","velocity":0.5275590551181102,"duration":"0.01"},{"name":"A#6","midi":94,"time":"336.64","velocity":0.09448818897637795,"duration":"0.05"},{"name":"G5","midi":79,"time":"336.66","velocity":0.2125984251968504,"duration":"0.07"},{"name":"D5","midi":74,"time":"336.67","velocity":0.25984251968503935,"duration":"0.02"},{"name":"F3","midi":53,"time":"336.69","velocity":0.3779527559055118,"duration":"0.02"},{"name":"E5","midi":76,"time":"336.69","velocity":0.3543307086614173,"duration":"0.23"},{"name":"G#5","midi":80,"time":"336.69","velocity":0.47244094488188976,"duration":"0.45"},{"name":"C#5","midi":73,"time":"336.70","velocity":0.5196850393700787,"duration":"0.34"},{"name":"F#7","midi":102,"time":"336.71","velocity":0.25984251968503935,"duration":"0.56"},{"name":"E3","midi":52,"time":"336.72","velocity":0.3543307086614173,"duration":"0.05"},{"name":"B5","midi":83,"time":"336.73","velocity":0.18110236220472442,"duration":"0.08"},{"name":"C7","midi":96,"time":"336.73","velocity":0.11811023622047244,"duration":"0.08"},{"name":"G1","midi":31,"time":"336.74","velocity":0.3858267716535433,"duration":"0.02"},{"name":"F#6","midi":90,"time":"336.74","velocity":0.12598425196850394,"duration":"0.03"},{"name":"B4","midi":71,"time":"336.76","velocity":0.16535433070866143,"duration":"0.05"},{"name":"F7","midi":101,"time":"336.76","velocity":0.30708661417322836,"duration":"1.10"},{"name":"D#6","midi":87,"time":"336.77","velocity":0.13385826771653545,"duration":"0.06"},{"name":"E3","midi":52,"time":"336.78","velocity":0.29133858267716534,"duration":"0.02"},{"name":"A6","midi":93,"time":"336.78","velocity":0.07086614173228346,"duration":"0.05"},{"name":"A#5","midi":82,"time":"336.79","velocity":0.11023622047244094,"duration":"0.08"},{"name":"B6","midi":95,"time":"336.81","velocity":0.2125984251968504,"duration":"0.42"},{"name":"G5","midi":79,"time":"336.83","velocity":0.09448818897637795,"duration":"0.05"},{"name":"E6","midi":88,"time":"336.84","velocity":0.3700787401574803,"duration":"0.16"},{"name":"G6","midi":91,"time":"336.84","velocity":0.11811023622047244,"duration":"0.06"},{"name":"E3","midi":52,"time":"336.85","velocity":0.3700787401574803,"duration":"0.05"},{"name":"F6","midi":89,"time":"336.86","velocity":0.1732283464566929,"duration":"0.03"},{"name":"A#6","midi":94,"time":"336.88","velocity":0.12598425196850394,"duration":"0.12"},{"name":"A#5","midi":82,"time":"336.90","velocity":0.14173228346456693,"duration":"0.05"},{"name":"A#4","midi":70,"time":"336.91","velocity":0.2440944881889764,"duration":"0.03"},{"name":"D#7","midi":99,"time":"336.91","velocity":0.2047244094488189,"duration":"0.64"},{"name":"G7","midi":103,"time":"336.91","velocity":0.2755905511811024,"duration":"0.15"},{"name":"F5","midi":77,"time":"336.92","velocity":0.2677165354330709,"duration":"0.03"},{"name":"B5","midi":83,"time":"336.92","velocity":0.14960629921259844,"duration":"0.03"},{"name":"D#6","midi":87,"time":"336.92","velocity":0.11811023622047244,"duration":"0.05"},{"name":"G6","midi":91,"time":"336.92","velocity":0.2755905511811024,"duration":"0.10"},{"name":"D7","midi":98,"time":"336.92","velocity":0.14173228346456693,"duration":"0.05"},{"name":"D6","midi":86,"time":"336.93","velocity":0.2440944881889764,"duration":"0.02"},{"name":"C7","midi":96,"time":"336.93","velocity":0.16535433070866143,"duration":"0.14"},{"name":"G#4","midi":68,"time":"336.94","velocity":0.31496062992125984,"duration":"0.02"},{"name":"A5","midi":81,"time":"336.94","velocity":0.33070866141732286,"duration":"0.26"},{"name":"E3","midi":52,"time":"336.95","velocity":0.5354330708661418,"duration":"0.35"},{"name":"A4","midi":69,"time":"336.95","velocity":0.4015748031496063,"duration":"0.35"},{"name":"E5","midi":76,"time":"336.95","velocity":0.3228346456692913,"duration":"0.36"},{"name":"C6","midi":84,"time":"336.95","velocity":0.14960629921259844,"duration":"0.03"},{"name":"F#6","midi":90,"time":"336.97","velocity":0.25196850393700787,"duration":"0.07"},{"name":"G#2","midi":44,"time":"336.98","velocity":0.5354330708661418,"duration":"0.01"},{"name":"B5","midi":83,"time":"336.98","velocity":0.08661417322834646,"duration":"0.06"},{"name":"A2","midi":45,"time":"336.99","velocity":0.5511811023622047,"duration":"0.30"},{"name":"D#6","midi":87,"time":"336.99","velocity":0.08661417322834646,"duration":"0.07"},{"name":"F6","midi":89,"time":"336.99","velocity":0.30708661417322836,"duration":"0.08"},{"name":"G6","midi":91,"time":"337.03","velocity":0.13385826771653545,"duration":"0.03"},{"name":"A#6","midi":94,"time":"337.03","velocity":0.18110236220472442,"duration":"0.12"},{"name":"F#6","midi":90,"time":"337.06","velocity":0.15748031496062992,"duration":"0.05"},{"name":"G4","midi":67,"time":"337.07","velocity":0.25196850393700787,"duration":"0.06"},{"name":"G7","midi":103,"time":"337.07","velocity":0.08661417322834646,"duration":"0.03"},{"name":"C7","midi":96,"time":"337.08","velocity":0.13385826771653545,"duration":"0.14"},{"name":"B4","midi":71,"time":"337.09","velocity":0.18110236220472442,"duration":"0.05"},{"name":"C6","midi":84,"time":"337.12","velocity":0.14960629921259844,"duration":"0.05"},{"name":"F6","midi":89,"time":"337.12","velocity":0.2125984251968504,"duration":"0.10"},{"name":"B5","midi":83,"time":"337.13","velocity":0.25196850393700787,"duration":"0.07"},{"name":"A#5","midi":82,"time":"337.16","velocity":0.15748031496062992,"duration":"0.08"},{"name":"G#5","midi":80,"time":"337.17","velocity":0.4566929133858268,"duration":"0.92"},{"name":"G7","midi":103,"time":"337.17","velocity":0.2677165354330709,"duration":"0.78"},{"name":"B5","midi":83,"time":"337.21","velocity":0.1889763779527559,"duration":"0.10"},{"name":"A#6","midi":94,"time":"337.21","velocity":0.2283464566929134,"duration":"0.12"},{"name":"A6","midi":93,"time":"337.22","velocity":0.25984251968503935,"duration":"0.41"},{"name":"C#5","midi":73,"time":"337.23","velocity":0.5748031496062992,"duration":"1.20"},{"name":"C7","midi":96,"time":"337.23","velocity":0.11023622047244094,"duration":"0.03"},{"name":"C#4","midi":61,"time":"337.24","velocity":0.4015748031496063,"duration":"0.06"},{"name":"B6","midi":95,"time":"337.24","velocity":0.2283464566929134,"duration":"0.17"},{"name":"G#1","midi":32,"time":"337.27","velocity":0.23622047244094488,"duration":"0.02"},{"name":"F6","midi":89,"time":"337.27","velocity":0.25984251968503935,"duration":"0.05"},{"name":"F#6","midi":90,"time":"337.27","velocity":0.07874015748031496,"duration":"0.03"},{"name":"G6","midi":91,"time":"337.27","velocity":0.2440944881889764,"duration":"0.20"},{"name":"F#7","midi":102,"time":"337.29","velocity":0.16535433070866143,"duration":"0.24"},{"name":"B2","midi":47,"time":"337.30","velocity":0.5196850393700787,"duration":"0.01"},{"name":"G#4","midi":68,"time":"337.30","velocity":0.5354330708661418,"duration":"0.02"},{"name":"G5","midi":79,"time":"337.30","velocity":0.2992125984251969,"duration":"0.03"},{"name":"A#5","midi":82,"time":"337.30","velocity":0.2204724409448819,"duration":"0.05"},{"name":"C6","midi":84,"time":"337.30","velocity":0.31496062992125984,"duration":"0.02"},{"name":"E6","midi":88,"time":"337.30","velocity":0.33070866141732286,"duration":"0.07"},{"name":"D7","midi":98,"time":"337.30","velocity":0.23622047244094488,"duration":"0.03"},{"name":"G#3","midi":56,"time":"337.31","velocity":0.47244094488188976,"duration":"0.02"},{"name":"A#4","midi":70,"time":"337.31","velocity":0.5039370078740157,"duration":"0.03"},{"name":"D#5","midi":75,"time":"337.31","velocity":0.4330708661417323,"duration":"0.02"},{"name":"F#6","midi":90,"time":"337.31","velocity":0.28346456692913385,"duration":"0.28"},{"name":"G2","midi":43,"time":"337.33","velocity":0.4251968503937008,"duration":"0.02"},{"name":"C#4","midi":61,"time":"337.33","velocity":0.5275590551181102,"duration":"0.06"},{"name":"A5","midi":81,"time":"337.33","velocity":0.2283464566929134,"duration":"0.03"},{"name":"B5","midi":83,"time":"337.33","velocity":0.2204724409448819,"duration":"0.05"},{"name":"F6","midi":89,"time":"337.33","velocity":0.29133858267716534,"duration":"0.22"},{"name":"E3","midi":52,"time":"337.34","velocity":0.5354330708661418,"duration":"0.16"},{"name":"F5","midi":77,"time":"337.34","velocity":0.25984251968503935,"duration":"0.06"},{"name":"D6","midi":86,"time":"337.34","velocity":0.2125984251968504,"duration":"0.06"},{"name":"G#3","midi":56,"time":"337.35","velocity":0.3700787401574803,"duration":"0.02"},{"name":"A4","midi":69,"time":"337.35","velocity":0.31496062992125984,"duration":"0.02"},{"name":"B4","midi":71,"time":"337.35","velocity":0.3464566929133858,"duration":"0.02"},{"name":"G5","midi":79,"time":"337.35","velocity":0.28346456692913385,"duration":"0.03"},{"name":"A2","midi":45,"time":"337.36","velocity":0.5669291338582677,"duration":"0.33"},{"name":"F#4","midi":66,"time":"337.36","velocity":0.3937007874015748,"duration":"0.05"},{"name":"A#5","midi":82,"time":"337.36","velocity":0.25984251968503935,"duration":"0.06"},{"name":"A#3","midi":58,"time":"337.37","velocity":0.3858267716535433,"duration":"0.03"},{"name":"A5","midi":81,"time":"337.37","velocity":0.2125984251968504,"duration":"0.06"},{"name":"D#6","midi":87,"time":"337.37","velocity":0.14173228346456693,"duration":"0.03"},{"name":"A4","midi":69,"time":"337.38","velocity":0.4330708661417323,"duration":"0.09"},{"name":"E5","midi":76,"time":"337.38","velocity":0.2204724409448819,"duration":"0.05"},{"name":"B5","midi":83,"time":"337.38","velocity":0.2204724409448819,"duration":"0.26"},{"name":"E6","midi":88,"time":"337.41","velocity":0.2677165354330709,"duration":"0.06"},{"name":"F#4","midi":66,"time":"337.42","velocity":0.25196850393700787,"duration":"0.02"},{"name":"C#4","midi":61,"time":"337.43","velocity":0.2283464566929134,"duration":"0.02"},{"name":"F5","midi":77,"time":"337.43","velocity":0.2204724409448819,"duration":"0.03"},{"name":"A#5","midi":82,"time":"337.43","velocity":0.10236220472440945,"duration":"0.06"},{"name":"C6","midi":84,"time":"337.43","velocity":0.15748031496062992,"duration":"0.05"},{"name":"A#3","midi":58,"time":"337.45","velocity":0.3700787401574803,"duration":"0.06"},{"name":"G5","midi":79,"time":"337.45","velocity":0.28346456692913385,"duration":"0.05"},{"name":"G#4","midi":68,"time":"337.48","velocity":0.30708661417322836,"duration":"0.02"},{"name":"D#6","midi":87,"time":"337.48","velocity":0.11811023622047244,"duration":"0.03"},{"name":"E6","midi":88,"time":"337.48","velocity":0.25984251968503935,"duration":"0.16"},{"name":"C7","midi":96,"time":"337.48","velocity":0.1732283464566929,"duration":"0.20"},{"name":"A4","midi":69,"time":"337.49","velocity":0.4330708661417323,"duration":"0.56"},{"name":"A#5","midi":82,"time":"337.50","velocity":0.1732283464566929,"duration":"0.03"},{"name":"D6","midi":86,"time":"337.50","velocity":0.11023622047244094,"duration":"0.03"},{"name":"E3","midi":52,"time":"337.51","velocity":0.4566929133858268,"duration":"0.06"},{"name":"C#4","midi":61,"time":"337.52","velocity":0.4015748031496063,"duration":"0.17"},{"name":"A#5","midi":82,"time":"337.55","velocity":0.12598425196850394,"duration":"0.03"},{"name":"F#7","midi":102,"time":"337.55","velocity":0.3937007874015748,"duration":"7.00"},{"name":"E5","midi":76,"time":"337.57","velocity":0.2755905511811024,"duration":"0.49"},{"name":"D#7","midi":99,"time":"337.58","velocity":0.13385826771653545,"duration":"0.05"},{"name":"E3","midi":52,"time":"337.59","velocity":0.4094488188976378,"duration":"0.08"},{"name":"A#5","midi":82,"time":"337.59","velocity":0.15748031496062992,"duration":"0.07"},{"name":"A#6","midi":94,"time":"337.59","velocity":0.16535433070866143,"duration":"0.07"},{"name":"B4","midi":71,"time":"337.62","velocity":0.25196850393700787,"duration":"0.05"},{"name":"G5","midi":79,"time":"337.62","velocity":0.16535433070866143,"duration":"0.05"},{"name":"F#6","midi":90,"time":"337.63","velocity":0.11811023622047244,"duration":"0.06"},{"name":"A6","midi":93,"time":"337.64","velocity":0.13385826771653545,"duration":"0.05"},{"name":"F6","midi":89,"time":"337.65","velocity":0.25196850393700787,"duration":"0.10"},{"name":"D#7","midi":99,"time":"337.67","velocity":0.2125984251968504,"duration":"0.57"},{"name":"F#4","midi":66,"time":"337.69","velocity":0.25984251968503935,"duration":"0.02"},{"name":"D6","midi":86,"time":"337.69","velocity":0.2047244094488189,"duration":"0.06"},{"name":"G6","midi":91,"time":"337.69","velocity":0.25196850393700787,"duration":"0.26"},{"name":"A6","midi":93,"time":"337.70","velocity":0.25984251968503935,"duration":"0.16"},{"name":"B6","midi":95,"time":"337.70","velocity":0.18110236220472442,"duration":"0.24"},{"name":"E3","midi":52,"time":"337.71","velocity":0.5118110236220472,"duration":"0.14"},{"name":"A3","midi":57,"time":"337.71","velocity":0.5196850393700787,"duration":"0.34"},{"name":"F#6","midi":90,"time":"337.71","velocity":0.28346456692913385,"duration":"0.20"},{"name":"C7","midi":96,"time":"337.71","velocity":0.14173228346456693,"duration":"0.07"},{"name":"C#4","midi":61,"time":"337.72","velocity":0.41732283464566927,"duration":"0.35"},{"name":"A2","midi":45,"time":"337.73","velocity":0.5590551181102362,"duration":"0.31"},{"name":"B5","midi":83,"time":"337.73","velocity":0.14960629921259844,"duration":"0.10"},{"name":"A#6","midi":94,"time":"337.77","velocity":0.16535433070866143,"duration":"0.03"},{"name":"G1","midi":31,"time":"337.80","velocity":0.25984251968503935,"duration":"0.02"},{"name":"A#6","midi":94,"time":"337.81","velocity":0.18110236220472442,"duration":"0.05"},{"name":"C6","midi":84,"time":"337.84","velocity":0.10236220472440945,"duration":"0.03"},{"name":"F6","midi":89,"time":"337.84","velocity":0.2047244094488189,"duration":"0.13"},{"name":"C7","midi":96,"time":"337.84","velocity":0.13385826771653545,"duration":"0.03"},{"name":"A#5","midi":82,"time":"337.88","velocity":0.16535433070866143,"duration":"0.05"},{"name":"F7","midi":101,"time":"337.91","velocity":0.23622047244094488,"duration":"0.36"},{"name":"A#5","midi":82,"time":"337.94","velocity":0.15748031496062992,"duration":"0.07"},{"name":"E3","midi":52,"time":"337.95","velocity":0.3464566929133858,"duration":"0.02"},{"name":"F#6","midi":90,"time":"337.95","velocity":0.4015748031496063,"duration":"0.49"},{"name":"B6","midi":95,"time":"337.95","velocity":0.1732283464566929,"duration":"0.28"},{"name":"C7","midi":96,"time":"337.95","velocity":0.11023622047244094,"duration":"0.07"},{"name":"G4","midi":67,"time":"337.97","velocity":0.1732283464566929,"duration":"0.05"},{"name":"A#6","midi":94,"time":"337.97","velocity":0.16535433070866143,"duration":"0.07"},{"name":"E3","midi":52,"time":"337.99","velocity":0.36220472440944884,"duration":"0.05"},{"name":"G6","midi":91,"time":"337.99","velocity":0.1889763779527559,"duration":"0.21"},{"name":"C7","midi":96,"time":"338.03","velocity":0.14173228346456693,"duration":"0.07"},{"name":"D7","midi":98,"time":"338.03","velocity":0.18110236220472442,"duration":"0.07"},{"name":"A#2","midi":46,"time":"338.05","velocity":0.5905511811023622,"duration":"0.01"},{"name":"G5","midi":79,"time":"338.05","velocity":0.25984251968503935,"duration":"0.02"},{"name":"B5","midi":83,"time":"338.05","velocity":0.1732283464566929,"duration":"0.05"},{"name":"F6","midi":89,"time":"338.05","velocity":0.29133858267716534,"duration":"0.06"},{"name":"A#6","midi":94,"time":"338.05","velocity":0.14960629921259844,"duration":"0.12"},{"name":"A2","midi":45,"time":"338.06","velocity":0.6771653543307087,"duration":"0.01"},{"name":"E4","midi":64,"time":"338.06","velocity":0.33858267716535434,"duration":"0.03"},{"name":"A4","midi":69,"time":"338.06","velocity":0.4645669291338583,"duration":"0.40"},{"name":"D6","midi":86,"time":"338.06","velocity":0.09448818897637795,"duration":"0.03"},{"name":"G#2","midi":44,"time":"338.07","velocity":0.5984251968503937,"duration":"0.01"},{"name":"F#5","midi":78,"time":"338.07","velocity":0.29133858267716534,"duration":"0.24"},{"name":"F#4","midi":66,"time":"338.08","velocity":0.30708661417322836,"duration":"0.07"},{"name":"G1","midi":31,"time":"338.09","velocity":0.5826771653543307,"duration":"0.01"},{"name":"C#4","midi":61,"time":"338.09","velocity":0.41732283464566927,"duration":"0.34"},{"name":"A#5","midi":82,"time":"338.09","velocity":0.13385826771653545,"duration":"0.05"},{"name":"E6","midi":88,"time":"338.09","velocity":0.33070866141732286,"duration":"0.05"},{"name":"F#1","midi":30,"time":"338.10","velocity":0.5905511811023622,"duration":"0.01"},{"name":"A2","midi":45,"time":"338.10","velocity":0.5748031496062992,"duration":"0.31"},{"name":"F3","midi":53,"time":"338.10","velocity":0.49606299212598426,"duration":"0.02"},{"name":"E5","midi":76,"time":"338.14","velocity":0.30708661417322836,"duration":"0.29"},{"name":"F6","midi":89,"time":"338.14","velocity":0.1732283464566929,"duration":"0.08"},{"name":"B1","midi":35,"time":"338.15","velocity":0.4566929133858268,"duration":"0.02"},{"name":"E4","midi":64,"time":"338.19","velocity":0.25196850393700787,"duration":"0.02"},{"name":"G#5","midi":80,"time":"338.19","velocity":0.3543307086614173,"duration":"0.26"},{"name":"E3","midi":52,"time":"338.20","velocity":0.47244094488188976,"duration":"0.07"},{"name":"G7","midi":103,"time":"338.21","velocity":0.1889763779527559,"duration":"0.03"},{"name":"B5","midi":83,"time":"338.22","velocity":0.15748031496062992,"duration":"0.12"},{"name":"G#1","midi":32,"time":"338.23","velocity":0.3937007874015748,"duration":"0.02"},{"name":"F#4","midi":66,"time":"338.24","velocity":0.31496062992125984,"duration":"0.06"},{"name":"F6","midi":89,"time":"338.24","velocity":0.2047244094488189,"duration":"0.08"},{"name":"G6","midi":91,"time":"338.24","velocity":0.11023622047244094,"duration":"0.06"},{"name":"A#6","midi":94,"time":"338.26","velocity":0.14960629921259844,"duration":"0.05"},{"name":"G7","midi":103,"time":"338.26","velocity":0.15748031496062992,"duration":"0.07"},{"name":"A#5","midi":82,"time":"338.29","velocity":0.12598425196850394,"duration":"0.03"},{"name":"E3","midi":52,"time":"338.31","velocity":0.4094488188976378,"duration":"0.06"},{"name":"F#4","midi":66,"time":"338.31","velocity":0.23622047244094488,"duration":"0.02"},{"name":"G6","midi":91,"time":"338.31","velocity":0.11811023622047244,"duration":"0.06"},{"name":"E3","midi":52,"time":"338.38","velocity":0.4566929133858268,"duration":"0.03"},{"name":"F6","midi":89,"time":"338.38","velocity":0.09448818897637795,"duration":"0.03"},{"name":"B6","midi":95,"time":"338.38","velocity":0.1732283464566929,"duration":"0.20"},{"name":"A#2","midi":46,"time":"338.42","velocity":0.5669291338582677,"duration":"0.01"},{"name":"F#5","midi":78,"time":"338.42","velocity":0.2677165354330709,"duration":"0.05"},{"name":"G6","midi":91,"time":"338.42","velocity":0.1889763779527559,"duration":"0.03"},{"name":"F7","midi":101,"time":"338.42","velocity":0.33070866141732286,"duration":"0.22"},{"name":"G7","midi":103,"time":"338.42","velocity":0.2440944881889764,"duration":"0.55"},{"name":"B2","midi":47,"time":"338.43","velocity":0.6299212598425197,"duration":"0.01"},{"name":"F#4","midi":66,"time":"338.43","velocity":0.3937007874015748,"duration":"0.03"},{"name":"D5","midi":74,"time":"338.43","velocity":0.30708661417322836,"duration":"0.05"},{"name":"G5","midi":79,"time":"338.43","velocity":0.31496062992125984,"duration":"0.03"},{"name":"A#6","midi":94,"time":"338.43","velocity":0.14173228346456693,"duration":"0.06"},{"name":"D7","midi":98,"time":"338.43","velocity":0.1732283464566929,"duration":"0.07"},{"name":"D#7","midi":99,"time":"338.43","velocity":0.2125984251968504,"duration":"0.20"},{"name":"F2","midi":41,"time":"338.44","velocity":0.6614173228346457,"duration":"0.01"},{"name":"E5","midi":76,"time":"338.44","velocity":0.2204724409448819,"duration":"0.03"},{"name":"F6","midi":89,"time":"338.44","velocity":0.2283464566929134,"duration":"0.10"},{"name":"G#2","midi":44,"time":"338.45","velocity":0.6062992125984252,"duration":"0.01"},{"name":"A#4","midi":70,"time":"338.45","velocity":0.3464566929133858,"duration":"0.02"},{"name":"E6","midi":88,"time":"338.45","velocity":0.3228346456692913,"duration":"0.14"},{"name":"F#6","midi":90,"time":"338.45","velocity":0.4409448818897638,"duration":"3.12"},{"name":"D#1","midi":27,"time":"338.47","velocity":0.5275590551181102,"duration":"0.01"},{"name":"E3","midi":52,"time":"338.47","velocity":0.5669291338582677,"duration":"0.05"},{"name":"A#3","midi":58,"time":"338.47","velocity":0.3700787401574803,"duration":"0.02"},{"name":"G6","midi":91,"time":"338.47","velocity":0.2755905511811024,"duration":"0.07"},{"name":"F1","midi":29,"time":"338.48","velocity":0.6062992125984252,"duration":"0.01"},{"name":"C#4","midi":61,"time":"338.48","velocity":0.5196850393700787,"duration":"0.34"},{"name":"F#4","midi":66,"time":"338.48","velocity":0.33070866141732286,"duration":"0.12"},{"name":"A4","midi":69,"time":"338.48","velocity":0.47244094488188976,"duration":"0.33"},{"name":"B4","midi":71,"time":"338.48","velocity":0.25196850393700787,"duration":"0.02"},{"name":"G1","midi":31,"time":"338.49","velocity":0.5826771653543307,"duration":"0.01"},{"name":"G#2","midi":44,"time":"338.49","velocity":0.5433070866141733,"duration":"0.02"},{"name":"A3","midi":57,"time":"338.49","velocity":0.4566929133858268,"duration":"0.22"},{"name":"E5","midi":76,"time":"338.49","velocity":0.4409448818897638,"duration":"0.34"},{"name":"G#5","midi":80,"time":"338.49","velocity":0.2992125984251969,"duration":"0.05"},{"name":"A#1","midi":34,"time":"338.50","velocity":0.5669291338582677,"duration":"0.02"},{"name":"F#5","midi":78,"time":"338.50","velocity":0.4094488188976378,"duration":"0.30"},{"name":"D6","midi":86,"time":"338.50","velocity":0.10236220472440945,"duration":"0.05"},{"name":"B2","midi":47,"time":"338.51","velocity":0.5354330708661418,"duration":"0.01"},{"name":"A#5","midi":82,"time":"338.51","velocity":0.12598425196850394,"duration":"0.03"},{"name":"A#6","midi":94,"time":"338.51","velocity":0.13385826771653545,"duration":"0.03"},{"name":"E3","midi":52,"time":"338.52","velocity":0.5354330708661418,"duration":"0.17"},{"name":"A2","midi":45,"time":"338.53","velocity":0.5669291338582677,"duration":"0.26"},{"name":"C7","midi":96,"time":"338.53","velocity":0.16535433070866143,"duration":"0.06"},{"name":"B5","midi":83,"time":"338.55","velocity":0.11023622047244094,"duration":"0.06"},{"name":"G6","midi":91,"time":"338.56","velocity":0.16535433070866143,"duration":"0.09"},{"name":"F1","midi":29,"time":"338.57","velocity":0.2755905511811024,"duration":"0.02"},{"name":"G#5","midi":80,"time":"338.57","velocity":0.33858267716535434,"duration":"0.16"},{"name":"D#6","midi":87,"time":"338.58","velocity":0.11811023622047244,"duration":"0.06"},{"name":"A#6","midi":94,"time":"338.58","velocity":0.14173228346456693,"duration":"0.07"},{"name":"F6","midi":89,"time":"338.59","velocity":0.14960629921259844,"duration":"0.03"},{"name":"F#4","midi":66,"time":"338.60","velocity":0.5118110236220472,"duration":"0.20"},{"name":"B6","midi":95,"time":"338.60","velocity":0.14173228346456693,"duration":"0.08"},{"name":"F#1","midi":30,"time":"338.62","velocity":0.3464566929133858,"duration":"0.03"},{"name":"B4","midi":71,"time":"338.63","velocity":0.15748031496062992,"duration":"0.07"},{"name":"G1","midi":31,"time":"338.65","velocity":0.33858267716535434,"duration":"0.02"},{"name":"A#5","midi":82,"time":"338.66","velocity":0.2755905511811024,"duration":"0.19"},{"name":"F6","midi":89,"time":"338.66","velocity":0.10236220472440945,"duration":"0.05"},{"name":"C7","midi":96,"time":"338.66","velocity":0.13385826771653545,"duration":"0.03"},{"name":"F7","midi":101,"time":"338.67","velocity":0.1732283464566929,"duration":"0.07"},{"name":"D#7","midi":99,"time":"338.70","velocity":0.10236220472440945,"duration":"0.09"},{"name":"E3","midi":52,"time":"338.71","velocity":0.4566929133858268,"duration":"0.08"},{"name":"B4","midi":71,"time":"338.72","velocity":0.11023622047244094,"duration":"0.06"},{"name":"F6","midi":89,"time":"338.73","velocity":0.12598425196850394,"duration":"0.03"},{"name":"G6","midi":91,"time":"338.74","velocity":0.25984251968503935,"duration":"0.06"},{"name":"G#6","midi":92,"time":"338.74","velocity":0.3700787401574803,"duration":"0.24"},{"name":"G#3","midi":56,"time":"338.78","velocity":0.5039370078740157,"duration":"0.05"},{"name":"F6","midi":89,"time":"338.78","velocity":0.3464566929133858,"duration":"0.05"},{"name":"G5","midi":79,"time":"338.79","velocity":0.2755905511811024,"duration":"0.02"},{"name":"D6","midi":86,"time":"338.79","velocity":0.2440944881889764,"duration":"0.05"},{"name":"A6","midi":93,"time":"338.79","velocity":0.2677165354330709,"duration":"0.36"},{"name":"B6","midi":95,"time":"338.79","velocity":0.14960629921259844,"duration":"0.16"},{"name":"C7","midi":96,"time":"338.79","velocity":0.2440944881889764,"duration":"0.13"},{"name":"E7","midi":100,"time":"338.79","velocity":0.2283464566929134,"duration":"0.22"},{"name":"E2","midi":40,"time":"338.80","velocity":0.4015748031496063,"duration":"0.02"},{"name":"G#4","midi":68,"time":"338.80","velocity":0.5669291338582677,"duration":"0.02"},{"name":"A#4","midi":70,"time":"338.80","velocity":0.5354330708661418,"duration":"0.05"},{"name":"A5","midi":81,"time":"338.80","velocity":0.29133858267716534,"duration":"0.02"},{"name":"C6","midi":84,"time":"338.80","velocity":0.28346456692913385,"duration":"0.07"},{"name":"D#3","midi":51,"time":"338.81","velocity":0.4409448818897638,"duration":"0.02"},{"name":"C4","midi":60,"time":"338.81","velocity":0.5354330708661418,"duration":"0.03"},{"name":"F#4","midi":66,"time":"338.81","velocity":0.4330708661417323,"duration":"0.02"},{"name":"G#5","midi":80,"time":"338.83","velocity":0.41732283464566927,"duration":"0.17"},{"name":"G6","midi":91,"time":"338.83","velocity":0.25984251968503935,"duration":"0.24"},{"name":"D#7","midi":99,"time":"338.83","velocity":0.2992125984251969,"duration":"0.20"},{"name":"E3","midi":52,"time":"338.84","velocity":0.4645669291338583,"duration":"0.05"},{"name":"F4","midi":65,"time":"338.84","velocity":0.4251968503937008,"duration":"0.03"},{"name":"A5","midi":81,"time":"338.84","velocity":0.31496062992125984,"duration":"0.05"},{"name":"A2","midi":45,"time":"338.85","velocity":0.5748031496062992,"duration":"0.33"},{"name":"C#4","midi":61,"time":"338.85","velocity":0.30708661417322836,"duration":"0.10"},{"name":"F#5","midi":78,"time":"338.85","velocity":0.4645669291338583,"duration":"0.52"},{"name":"B5","midi":83,"time":"338.85","velocity":0.14960629921259844,"duration":"0.05"},{"name":"D6","midi":86,"time":"338.85","velocity":0.18110236220472442,"duration":"0.05"},{"name":"C5","midi":72,"time":"338.86","velocity":0.33070866141732286,"duration":"0.05"},{"name":"E5","midi":76,"time":"338.86","velocity":0.25196850393700787,"duration":"0.07"},{"name":"A4","midi":69,"time":"338.87","velocity":0.3779527559055118,"duration":"0.05"},{"name":"A#5","midi":82,"time":"338.87","velocity":0.1889763779527559,"duration":"0.06"},{"name":"F6","midi":89,"time":"338.87","velocity":0.25984251968503935,"duration":"0.08"},{"name":"E4","midi":64,"time":"338.88","velocity":0.28346456692913385,"duration":"0.02"},{"name":"E3","midi":52,"time":"338.90","velocity":0.3937007874015748,"duration":"0.06"},{"name":"C#6","midi":85,"time":"338.90","velocity":0.3779527559055118,"duration":"0.28"},{"name":"F#4","midi":66,"time":"338.91","velocity":0.3543307086614173,"duration":"0.02"},{"name":"C#5","midi":73,"time":"338.91","velocity":0.4094488188976378,"duration":"0.29"},{"name":"D6","midi":86,"time":"338.91","velocity":0.12598425196850394,"duration":"0.03"},{"name":"G#1","midi":32,"time":"338.92","velocity":0.2283464566929134,"duration":"0.02"},{"name":"G#4","midi":68,"time":"338.92","velocity":0.28346456692913385,"duration":"0.03"},{"name":"A5","midi":81,"time":"338.94","velocity":0.4330708661417323,"duration":"0.15"},{"name":"E3","midi":52,"time":"338.97","velocity":0.3779527559055118,"duration":"0.03"},{"name":"C#4","midi":61,"time":"338.97","velocity":0.41732283464566927,"duration":"0.26"},{"name":"F6","midi":89,"time":"338.97","velocity":0.1968503937007874,"duration":"0.05"},{"name":"B4","midi":71,"time":"338.98","velocity":0.1968503937007874,"duration":"0.05"},{"name":"A#6","midi":94,"time":"338.98","velocity":0.13385826771653545,"duration":"0.03"},{"name":"G#6","midi":92,"time":"339.00","velocity":0.2204724409448819,"duration":"0.09"},{"name":"C7","midi":96,"time":"339.00","velocity":0.1968503937007874,"duration":"0.17"},{"name":"E3","midi":52,"time":"339.02","velocity":0.2992125984251969,"duration":"0.05"},{"name":"B6","midi":95,"time":"339.02","velocity":0.14960629921259844,"duration":"0.08"},{"name":"G#5","midi":80,"time":"339.03","velocity":0.4094488188976378,"duration":"0.16"},{"name":"F#4","midi":66,"time":"339.05","velocity":0.49606299212598426,"duration":"0.17"},{"name":"A#6","midi":94,"time":"339.06","velocity":0.1968503937007874,"duration":"0.12"},{"name":"C6","midi":84,"time":"339.07","velocity":0.13385826771653545,"duration":"0.07"},{"name":"G7","midi":103,"time":"339.07","velocity":0.23622047244094488,"duration":"0.07"},{"name":"E3","midi":52,"time":"339.08","velocity":0.33070866141732286,"duration":"0.06"},{"name":"F7","midi":101,"time":"339.08","velocity":0.2047244094488189,"duration":"0.40"},{"name":"D#7","midi":99,"time":"339.09","velocity":0.11023622047244094,"duration":"0.05"},{"name":"A4","midi":69,"time":"339.10","velocity":0.2992125984251969,"duration":"0.08"},{"name":"B5","midi":83,"time":"339.13","velocity":0.15748031496062992,"duration":"0.07"},{"name":"F6","midi":89,"time":"339.13","velocity":0.12598425196850394,"duration":"0.03"},{"name":"G6","midi":91,"time":"339.14","velocity":0.3464566929133858,"duration":"0.23"},{"name":"B2","midi":47,"time":"339.17","velocity":0.3858267716535433,"duration":"0.02"},{"name":"F3","midi":53,"time":"339.17","velocity":0.4566929133858268,"duration":"0.02"},{"name":"C6","midi":84,"time":"339.17","velocity":0.2204724409448819,"duration":"0.05"},{"name":"F6","midi":89,"time":"339.17","velocity":0.2204724409448819,"duration":"0.06"},{"name":"B6","midi":95,"time":"339.17","velocity":0.1732283464566929,"duration":"0.21"},{"name":"D#7","midi":99,"time":"339.17","velocity":0.25984251968503935,"duration":"0.27"},{"name":"D#6","midi":87,"time":"339.19","velocity":0.2047244094488189,"duration":"0.06"},{"name":"A#6","midi":94,"time":"339.19","velocity":0.2047244094488189,"duration":"0.29"},{"name":"D7","midi":98,"time":"339.19","velocity":0.10236220472440945,"duration":"0.03"},{"name":"G#2","midi":44,"time":"339.20","velocity":0.4566929133858268,"duration":"0.06"},{"name":"E3","midi":52,"time":"339.20","velocity":0.5196850393700787,"duration":"0.16"},{"name":"A4","midi":69,"time":"339.20","velocity":0.3228346456692913,"duration":"0.02"},{"name":"C5","midi":72,"time":"339.20","velocity":0.2283464566929134,"duration":"0.02"},{"name":"G#6","midi":92,"time":"339.21","velocity":0.2992125984251969,"duration":"0.48"},{"name":"A3","midi":57,"time":"339.22","velocity":0.47244094488188976,"duration":"0.06"},{"name":"C#5","midi":73,"time":"339.22","velocity":0.33070866141732286,"duration":"0.08"},{"name":"E5","midi":76,"time":"339.22","velocity":0.23622047244094488,"duration":"0.02"},{"name":"A5","midi":81,"time":"339.22","velocity":0.28346456692913385,"duration":"0.06"},{"name":"B5","midi":83,"time":"339.22","velocity":0.07874015748031496,"duration":"0.03"},{"name":"G#5","midi":80,"time":"339.23","velocity":0.2047244094488189,"duration":"0.03"},{"name":"C6","midi":84,"time":"339.23","velocity":0.25196850393700787,"duration":"0.06"},{"name":"F#4","midi":66,"time":"339.24","velocity":0.4409448818897638,"duration":"0.15"},{"name":"G#4","midi":68,"time":"339.24","velocity":0.2755905511811024,"duration":"0.02"},{"name":"D#5","midi":75,"time":"339.24","velocity":0.15748031496062992,"duration":"0.05"},{"name":"A#5","midi":82,"time":"339.26","velocity":0.14173228346456693,"duration":"0.03"},{"name":"D6","midi":86,"time":"339.27","velocity":0.11023622047244094,"duration":"0.06"},{"name":"F6","midi":89,"time":"339.28","velocity":0.16535433070866143,"duration":"0.17"},{"name":"D5","midi":74,"time":"339.29","velocity":0.23622047244094488,"duration":"0.05"},{"name":"B5","midi":83,"time":"339.29","velocity":0.2283464566929134,"duration":"0.08"},{"name":"D7","midi":98,"time":"339.29","velocity":0.18110236220472442,"duration":"0.16"},{"name":"C#6","midi":85,"time":"339.30","velocity":0.18110236220472442,"duration":"0.07"},{"name":"C#4","midi":61,"time":"339.31","velocity":0.2440944881889764,"duration":"0.06"},{"name":"G#4","midi":68,"time":"339.31","velocity":0.31496062992125984,"duration":"0.02"},{"name":"A#5","midi":82,"time":"339.31","velocity":0.14173228346456693,"duration":"0.05"},{"name":"A3","midi":57,"time":"339.33","velocity":0.5039370078740157,"duration":"0.19"},{"name":"B4","midi":71,"time":"339.34","velocity":0.23622047244094488,"duration":"0.02"},{"name":"A2","midi":45,"time":"339.35","velocity":0.5118110236220472,"duration":"0.03"},{"name":"G#5","midi":80,"time":"339.35","velocity":0.2440944881889764,"duration":"0.06"},{"name":"A#4","midi":70,"time":"339.36","velocity":0.2755905511811024,"duration":"0.02"},{"name":"F5","midi":77,"time":"339.36","velocity":0.3228346456692913,"duration":"0.03"},{"name":"E3","midi":52,"time":"339.37","velocity":0.4645669291338583,"duration":"0.03"},{"name":"C5","midi":72,"time":"339.37","velocity":0.2125984251968504,"duration":"0.03"},{"name":"D#6","midi":87,"time":"339.37","velocity":0.13385826771653545,"duration":"0.06"},{"name":"G#2","midi":44,"time":"339.38","velocity":0.4645669291338583,"duration":"0.02"},{"name":"D#5","midi":75,"time":"339.38","velocity":0.2204724409448819,"duration":"0.03"},{"name":"B5","midi":83,"time":"339.38","velocity":0.1732283464566929,"duration":"0.05"},{"name":"C#6","midi":85,"time":"339.38","velocity":0.14960629921259844,"duration":"0.06"},{"name":"E5","midi":76,"time":"339.40","velocity":0.2440944881889764,"duration":"0.08"},{"name":"G5","midi":79,"time":"339.40","velocity":0.18110236220472442,"duration":"0.06"},{"name":"E4","midi":64,"time":"339.41","velocity":0.36220472440944884,"duration":"0.03"},{"name":"F#4","midi":66,"time":"339.41","velocity":0.4251968503937008,"duration":"0.10"},{"name":"A#4","midi":70,"time":"339.41","velocity":0.2755905511811024,"duration":"0.09"},{"name":"F#5","midi":78,"time":"339.41","velocity":0.4409448818897638,"duration":"0.22"},{"name":"A2","midi":45,"time":"339.42","velocity":0.49606299212598426,"duration":"0.03"},{"name":"A5","midi":81,"time":"339.42","velocity":0.08661417322834646,"duration":"0.03"},{"name":"G#4","midi":68,"time":"339.43","velocity":0.2283464566929134,"duration":"0.02"},{"name":"A6","midi":93,"time":"339.43","velocity":0.2125984251968504,"duration":"0.41"},{"name":"E3","midi":52,"time":"339.44","velocity":0.4566929133858268,"duration":"0.02"},{"name":"C#4","midi":61,"time":"339.44","velocity":0.2677165354330709,"duration":"0.06"},{"name":"B5","midi":83,"time":"339.44","velocity":0.08661417322834646,"duration":"0.03"},{"name":"D6","midi":86,"time":"339.44","velocity":0.11023622047244094,"duration":"0.05"},{"name":"E7","midi":100,"time":"339.44","velocity":0.10236220472440945,"duration":"0.14"},{"name":"G#2","midi":44,"time":"339.45","velocity":0.4881889763779528,"duration":"0.02"},{"name":"G#5","midi":80,"time":"339.45","velocity":0.1968503937007874,"duration":"0.08"},{"name":"D#7","midi":99,"time":"339.45","velocity":0.11023622047244094,"duration":"0.07"},{"name":"G#4","midi":68,"time":"339.47","velocity":0.3543307086614173,"duration":"0.08"},{"name":"G6","midi":91,"time":"339.47","velocity":0.12598425196850394,"duration":"0.03"},{"name":"C#6","midi":85,"time":"339.48","velocity":0.31496062992125984,"duration":"0.14"},{"name":"A#2","midi":46,"time":"339.49","velocity":0.5275590551181102,"duration":"0.01"},{"name":"A#6","midi":94,"time":"339.49","velocity":0.23622047244094488,"duration":"0.13"},{"name":"A2","midi":45,"time":"339.50","velocity":0.5669291338582677,"duration":"0.06"},{"name":"C#5","midi":73,"time":"339.50","velocity":0.11023622047244094,"duration":"0.03"},{"name":"F7","midi":101,"time":"339.50","velocity":0.2204724409448819,"duration":"0.14"},{"name":"A#3","midi":58,"time":"339.51","velocity":0.3858267716535433,"duration":"0.02"},{"name":"B6","midi":95,"time":"339.51","velocity":0.2677165354330709,"duration":"0.40"},{"name":"D7","midi":98,"time":"339.51","velocity":0.23622047244094488,"duration":"0.20"},{"name":"C6","midi":84,"time":"339.52","velocity":0.25196850393700787,"duration":"0.06"},{"name":"E6","midi":88,"time":"339.52","velocity":0.2204724409448819,"duration":"0.06"},{"name":"B1","midi":35,"time":"339.55","velocity":0.5196850393700787,"duration":"0.01"},{"name":"E5","midi":76,"time":"339.55","velocity":0.25196850393700787,"duration":"0.07"},{"name":"G#2","midi":44,"time":"339.56","velocity":0.6535433070866141,"duration":"0.03"},{"name":"F3","midi":53,"time":"339.56","velocity":0.5984251968503937,"duration":"0.02"},{"name":"F#4","midi":66,"time":"339.56","velocity":0.30708661417322836,"duration":"0.02"},{"name":"A#4","midi":70,"time":"339.56","velocity":0.36220472440944884,"duration":"0.02"},{"name":"C#5","midi":73,"time":"339.56","velocity":0.29133858267716534,"duration":"0.02"},{"name":"D#6","midi":87,"time":"339.56","velocity":0.18110236220472442,"duration":"0.14"},{"name":"G#5","midi":80,"time":"339.57","velocity":0.3700787401574803,"duration":"0.35"},{"name":"B5","midi":83,"time":"339.57","velocity":0.33070866141732286,"duration":"0.15"},{"name":"D6","midi":86,"time":"339.57","velocity":0.30708661417322836,"duration":"0.36"},{"name":"E3","midi":52,"time":"339.58","velocity":0.5905511811023622,"duration":"0.07"},{"name":"B4","midi":71,"time":"339.58","velocity":0.3700787401574803,"duration":"0.20"},{"name":"D5","midi":74,"time":"339.58","velocity":0.29133858267716534,"duration":"0.02"},{"name":"F#1","midi":30,"time":"339.59","velocity":0.5669291338582677,"duration":"0.01"},{"name":"F1","midi":29,"time":"339.60","velocity":0.5984251968503937,"duration":"0.01"},{"name":"G#4","midi":68,"time":"339.60","velocity":0.2755905511811024,"duration":"0.08"},{"name":"E6","midi":88,"time":"339.60","velocity":0.25196850393700787,"duration":"0.17"},{"name":"F#1","midi":30,"time":"339.62","velocity":0.5433070866141733,"duration":"0.01"},{"name":"D#5","midi":75,"time":"339.62","velocity":0.14960629921259844,"duration":"0.05"},{"name":"C2","midi":36,"time":"339.63","velocity":0.5590551181102362,"duration":"0.01"},{"name":"B3","midi":59,"time":"339.63","velocity":0.2755905511811024,"duration":"0.03"},{"name":"C#2","midi":37,"time":"339.64","velocity":0.5275590551181102,"duration":"0.01"},{"name":"D#3","midi":51,"time":"339.65","velocity":0.5826771653543307,"duration":"0.01"},{"name":"D5","midi":74,"time":"339.65","velocity":0.16535433070866143,"duration":"0.05"},{"name":"F#5","midi":78,"time":"339.65","velocity":0.23622047244094488,"duration":"0.08"},{"name":"C6","midi":84,"time":"339.65","velocity":0.11811023622047244,"duration":"0.03"},{"name":"E3","midi":52,"time":"339.66","velocity":0.5905511811023622,"duration":"0.28"},{"name":"C7","midi":96,"time":"339.66","velocity":0.14173228346456693,"duration":"0.03"},{"name":"E2","midi":40,"time":"339.70","velocity":0.3858267716535433,"duration":"0.02"},{"name":"G#4","midi":68,"time":"339.70","velocity":0.31496062992125984,"duration":"0.14"},{"name":"D#5","midi":75,"time":"339.70","velocity":0.2440944881889764,"duration":"0.03"},{"name":"C6","midi":84,"time":"339.70","velocity":0.2283464566929134,"duration":"0.06"},{"name":"F6","midi":89,"time":"339.72","velocity":0.12598425196850394,"duration":"0.09"},{"name":"G6","midi":91,"time":"339.72","velocity":0.09448818897637795,"duration":"0.03"},{"name":"A#6","midi":94,"time":"339.72","velocity":0.11811023622047244,"duration":"0.05"},{"name":"E2","midi":40,"time":"339.73","velocity":0.3858267716535433,"duration":"0.03"},{"name":"B5","midi":83,"time":"339.73","velocity":0.5118110236220472,"duration":"1.49"},{"name":"C#7","midi":97,"time":"339.73","velocity":0.11023622047244094,"duration":"0.15"},{"name":"D#7","midi":99,"time":"339.74","velocity":0.12598425196850394,"duration":"0.12"},{"name":"F#5","midi":78,"time":"339.76","velocity":0.15748031496062992,"duration":"0.06"},{"name":"B4","midi":71,"time":"339.79","velocity":0.25984251968503935,"duration":"0.03"},{"name":"E2","midi":40,"time":"339.80","velocity":0.3464566929133858,"duration":"0.02"},{"name":"A5","midi":81,"time":"339.81","velocity":0.10236220472440945,"duration":"0.03"},{"name":"D#6","midi":87,"time":"339.81","velocity":0.18110236220472442,"duration":"0.13"},{"name":"F#5","midi":78,"time":"339.83","velocity":0.2677165354330709,"duration":"0.06"},{"name":"C6","midi":84,"time":"339.83","velocity":0.1889763779527559,"duration":"0.03"},{"name":"E2","midi":40,"time":"339.84","velocity":0.4330708661417323,"duration":"0.10"},{"name":"F#4","midi":66,"time":"339.84","velocity":0.33858267716535434,"duration":"0.05"},{"name":"B4","midi":71,"time":"339.84","velocity":0.2992125984251969,"duration":"0.06"},{"name":"G#4","midi":68,"time":"339.85","velocity":0.2677165354330709,"duration":"0.02"},{"name":"A5","midi":81,"time":"339.86","velocity":0.1968503937007874,"duration":"0.03"},{"name":"A6","midi":93,"time":"339.86","velocity":0.1968503937007874,"duration":"0.10"},{"name":"C7","midi":96,"time":"339.87","velocity":0.07086614173228346,"duration":"0.03"},{"name":"D#7","midi":99,"time":"339.87","velocity":0.1889763779527559,"duration":"0.44"},{"name":"F#5","midi":78,"time":"339.90","velocity":0.1968503937007874,"duration":"0.03"},{"name":"G#4","midi":68,"time":"339.91","velocity":0.3464566929133858,"duration":"0.40"},{"name":"C#5","midi":73,"time":"339.91","velocity":0.2125984251968504,"duration":"0.03"},{"name":"A#4","midi":70,"time":"339.92","velocity":0.2440944881889764,"duration":"0.02"},{"name":"D#5","midi":75,"time":"339.92","velocity":0.31496062992125984,"duration":"0.20"},{"name":"G#5","midi":80,"time":"339.93","velocity":0.3543307086614173,"duration":"0.17"},{"name":"A#6","midi":94,"time":"339.93","velocity":0.25984251968503935,"duration":"0.10"},{"name":"G7","midi":103,"time":"339.93","velocity":0.1732283464566929,"duration":"0.07"},{"name":"F2","midi":41,"time":"339.94","velocity":0.5590551181102362,"duration":"0.06"},{"name":"B4","midi":71,"time":"339.94","velocity":0.5196850393700787,"duration":"0.23"},{"name":"F#5","midi":78,"time":"339.94","velocity":0.3858267716535433,"duration":"0.41"},{"name":"D6","midi":86,"time":"339.94","velocity":0.1889763779527559,"duration":"0.14"},{"name":"C7","midi":96,"time":"339.94","velocity":0.15748031496062992,"duration":"0.07"},{"name":"C#7","midi":97,"time":"339.94","velocity":0.2440944881889764,"duration":"0.34"},{"name":"F7","midi":101,"time":"339.94","velocity":0.2440944881889764,"duration":"0.15"},{"name":"G6","midi":91,"time":"339.95","velocity":0.1732283464566929,"duration":"0.14"},{"name":"E3","midi":52,"time":"339.97","velocity":0.5748031496062992,"duration":"0.34"},{"name":"C4","midi":60,"time":"339.97","velocity":0.3228346456692913,"duration":"0.02"},{"name":"F6","midi":89,"time":"339.97","velocity":0.1732283464566929,"duration":"0.05"},{"name":"B3","midi":59,"time":"339.99","velocity":0.33070866141732286,"duration":"0.30"},{"name":"E2","midi":40,"time":"340.00","velocity":0.49606299212598426,"duration":"0.30"},{"name":"A5","midi":81,"time":"340.00","velocity":0.11023622047244094,"duration":"0.03"},{"name":"A6","midi":93,"time":"340.00","velocity":0.14173228346456693,"duration":"0.05"},{"name":"C6","midi":84,"time":"340.01","velocity":0.10236220472440945,"duration":"0.03"},{"name":"A#6","midi":94,"time":"340.06","velocity":0.15748031496062992,"duration":"0.08"},{"name":"C7","midi":96,"time":"340.06","velocity":0.15748031496062992,"duration":"0.08"},{"name":"A6","midi":93,"time":"340.08","velocity":0.1968503937007874,"duration":"0.16"},{"name":"D6","midi":86,"time":"340.09","velocity":0.14960629921259844,"duration":"0.03"},{"name":"F6","midi":89,"time":"340.10","velocity":0.09448818897637795,"duration":"0.05"},{"name":"G6","midi":91,"time":"340.12","velocity":0.13385826771653545,"duration":"0.10"},{"name":"G#5","midi":80,"time":"340.14","velocity":0.3700787401574803,"duration":"0.17"},{"name":"D6","midi":86,"time":"340.14","velocity":0.1968503937007874,"duration":"0.14"},{"name":"G7","midi":103,"time":"340.14","velocity":0.15748031496062992,"duration":"0.13"},{"name":"E6","midi":88,"time":"340.17","velocity":0.16535433070866143,"duration":"0.12"},{"name":"B4","midi":71,"time":"340.19","velocity":0.5669291338582677,"duration":"0.28"},{"name":"A5","midi":81,"time":"340.19","velocity":0.2047244094488189,"duration":"0.06"},{"name":"A#6","midi":94,"time":"340.19","velocity":0.12598425196850394,"duration":"0.07"},{"name":"D5","midi":74,"time":"340.20","velocity":0.14960629921259844,"duration":"0.06"},{"name":"D#6","midi":87,"time":"340.26","velocity":0.2283464566929134,"duration":"0.06"},{"name":"G6","midi":91,"time":"340.26","velocity":0.2992125984251969,"duration":"0.08"},{"name":"A6","midi":93,"time":"340.26","velocity":0.2677165354330709,"duration":"0.14"},{"name":"A5","midi":81,"time":"340.27","velocity":0.16535433070866143,"duration":"0.03"},{"name":"A#6","midi":94,"time":"340.27","velocity":0.2440944881889764,"duration":"0.22"},{"name":"D#4","midi":63,"time":"340.29","velocity":0.5196850393700787,"duration":"0.02"},{"name":"D7","midi":98,"time":"340.29","velocity":0.25196850393700787,"duration":"0.34"},{"name":"D#3","midi":51,"time":"340.30","velocity":0.5511811023622047,"duration":"0.01"},{"name":"C#5","midi":73,"time":"340.30","velocity":0.4645669291338583,"duration":"0.02"},{"name":"E6","midi":88,"time":"340.30","velocity":0.2677165354330709,"duration":"0.06"},{"name":"C7","midi":96,"time":"340.30","velocity":0.2677165354330709,"duration":"0.19"},{"name":"C#7","midi":97,"time":"340.30","velocity":0.1889763779527559,"duration":"0.06"},{"name":"F7","midi":101,"time":"340.30","velocity":0.28346456692913385,"duration":"0.31"},{"name":"E3","midi":52,"time":"340.31","velocity":0.5511811023622047,"duration":"0.01"},{"name":"E5","midi":76,"time":"340.31","velocity":0.5118110236220472,"duration":"0.03"},{"name":"A5","midi":81,"time":"340.31","velocity":0.2204724409448819,"duration":"0.03"},{"name":"A#5","midi":82,"time":"340.31","velocity":0.2755905511811024,"duration":"0.03"},{"name":"D6","midi":86,"time":"340.31","velocity":0.29133858267716534,"duration":"0.10"},{"name":"D#7","midi":99,"time":"340.33","velocity":0.14173228346456693,"duration":"0.19"},{"name":"F2","midi":41,"time":"340.34","velocity":0.49606299212598426,"duration":"0.02"},{"name":"D3","midi":50,"time":"340.34","velocity":0.5196850393700787,"duration":"0.01"},{"name":"C4","midi":60,"time":"340.34","velocity":0.48031496062992124,"duration":"0.03"},{"name":"D#6","midi":87,"time":"340.34","velocity":0.25984251968503935,"duration":"0.28"},{"name":"E3","midi":52,"time":"340.35","velocity":0.5669291338582677,"duration":"0.17"},{"name":"D#5","midi":75,"time":"340.35","velocity":0.2755905511811024,"duration":"0.02"},{"name":"F5","midi":77,"time":"340.35","velocity":0.25196850393700787,"duration":"0.02"},{"name":"G#5","midi":80,"time":"340.35","velocity":0.3937007874015748,"duration":"0.64"},{"name":"G6","midi":91,"time":"340.35","velocity":0.2283464566929134,"duration":"0.03"},{"name":"A3","midi":57,"time":"340.36","velocity":0.3937007874015748,"duration":"0.02"},{"name":"F#4","midi":66,"time":"340.36","velocity":0.4094488188976378,"duration":"0.10"},{"name":"C#5","midi":73,"time":"340.36","velocity":0.25984251968503935,"duration":"0.02"},{"name":"E5","midi":76,"time":"340.37","velocity":0.29133858267716534,"duration":"0.02"},{"name":"C6","midi":84,"time":"340.37","velocity":0.3779527559055118,"duration":"0.08"},{"name":"E2","midi":40,"time":"340.38","velocity":0.5433070866141733,"duration":"0.33"},{"name":"A#3","midi":58,"time":"340.38","velocity":0.36220472440944884,"duration":"0.03"},{"name":"D#5","midi":75,"time":"340.38","velocity":0.33858267716535434,"duration":"0.09"},{"name":"E6","midi":88,"time":"340.38","velocity":0.33070866141732286,"duration":"0.41"},{"name":"C#7","midi":97,"time":"340.38","velocity":0.16535433070866143,"duration":"0.14"},{"name":"A#5","midi":82,"time":"340.41","velocity":0.1732283464566929,"duration":"0.03"},{"name":"G7","midi":103,"time":"340.41","velocity":0.14960629921259844,"duration":"0.07"},{"name":"B3","midi":59,"time":"340.42","velocity":0.3937007874015748,"duration":"0.03"},{"name":"G6","midi":91,"time":"340.42","velocity":0.14960629921259844,"duration":"0.05"},{"name":"A4","midi":69,"time":"340.44","velocity":0.25984251968503935,"duration":"0.02"},{"name":"A#3","midi":58,"time":"340.45","velocity":0.4330708661417323,"duration":"0.03"},{"name":"B4","midi":71,"time":"340.48","velocity":0.5590551181102362,"duration":"0.47"},{"name":"A#5","midi":82,"time":"340.48","velocity":0.2283464566929134,"duration":"0.02"},{"name":"A6","midi":93,"time":"340.48","velocity":0.2125984251968504,"duration":"0.10"},{"name":"E5","midi":76,"time":"340.49","velocity":0.29133858267716534,"duration":"0.05"},{"name":"D6","midi":86,"time":"340.49","velocity":0.1889763779527559,"duration":"0.05"},{"name":"A#3","midi":58,"time":"340.50","velocity":0.4094488188976378,"duration":"0.03"},{"name":"C#5","midi":73,"time":"340.51","velocity":0.2283464566929134,"duration":"0.06"},{"name":"C7","midi":96,"time":"340.51","velocity":0.10236220472440945,"duration":"0.05"},{"name":"G#4","midi":68,"time":"340.52","velocity":0.23622047244094488,"duration":"0.02"},{"name":"D#5","midi":75,"time":"340.52","velocity":0.2440944881889764,"duration":"0.05"},{"name":"F6","midi":89,"time":"340.52","velocity":0.15748031496062992,"duration":"0.07"},{"name":"C6","midi":84,"time":"340.53","velocity":0.33070866141732286,"duration":"0.08"},{"name":"G6","midi":91,"time":"340.55","velocity":0.12598425196850394,"duration":"0.07"},{"name":"A#6","midi":94,"time":"340.55","velocity":0.14960629921259844,"duration":"0.05"},{"name":"G#4","midi":68,"time":"340.56","velocity":0.29133858267716534,"duration":"0.16"},{"name":"F#5","midi":78,"time":"340.56","velocity":0.2283464566929134,"duration":"0.03"},{"name":"C#7","midi":97,"time":"340.56","velocity":0.10236220472440945,"duration":"0.03"},{"name":"D#3","midi":51,"time":"340.57","velocity":0.4409448818897638,"duration":"0.02"},{"name":"D5","midi":74,"time":"340.57","velocity":0.2283464566929134,"duration":"0.08"},{"name":"G7","midi":103,"time":"340.58","velocity":0.14960629921259844,"duration":"0.09"},{"name":"A#3","midi":58,"time":"340.60","velocity":0.41732283464566927,"duration":"0.02"},{"name":"F#5","midi":78,"time":"340.62","velocity":0.2283464566929134,"duration":"0.17"},{"name":"B3","midi":59,"time":"340.64","velocity":0.3700787401574803,"duration":"0.05"},{"name":"A6","midi":93,"time":"340.64","velocity":0.2125984251968504,"duration":"0.17"},{"name":"C7","midi":96,"time":"340.64","velocity":0.16535433070866143,"duration":"0.36"},{"name":"F7","midi":101,"time":"340.64","velocity":0.2204724409448819,"duration":"0.19"},{"name":"D#6","midi":87,"time":"340.65","velocity":0.18110236220472442,"duration":"0.06"},{"name":"G6","midi":91,"time":"340.66","velocity":0.07874015748031496,"duration":"0.03"},{"name":"D#7","midi":99,"time":"340.66","velocity":0.2047244094488189,"duration":"0.16"},{"name":"C4","midi":60,"time":"340.70","velocity":0.3543307086614173,"duration":"0.03"},{"name":"A#6","midi":94,"time":"340.70","velocity":0.14173228346456693,"duration":"0.23"},{"name":"F2","midi":41,"time":"340.71","velocity":0.5511811023622047,"duration":"0.05"},{"name":"E3","midi":52,"time":"340.72","velocity":0.5669291338582677,"duration":"0.34"},{"name":"E4","midi":64,"time":"340.72","velocity":0.5669291338582677,"duration":"0.72"},{"name":"C6","midi":84,"time":"340.72","velocity":0.2440944881889764,"duration":"0.02"},{"name":"G6","midi":91,"time":"340.72","velocity":0.18110236220472442,"duration":"0.12"},{"name":"C#7","midi":97,"time":"340.72","velocity":0.2125984251968504,"duration":"0.14"},{"name":"G7","midi":103,"time":"340.72","velocity":0.25984251968503935,"duration":"0.08"},{"name":"B3","midi":59,"time":"340.73","velocity":0.33858267716535434,"duration":"0.03"},{"name":"G#4","midi":68,"time":"340.74","velocity":0.25196850393700787,"duration":"0.03"},{"name":"E2","midi":40,"time":"340.76","velocity":0.4566929133858268,"duration":"0.03"},{"name":"D5","midi":74,"time":"340.76","velocity":0.16535433070866143,"duration":"0.03"},{"name":"A5","midi":81,"time":"340.76","velocity":0.1732283464566929,"duration":"0.05"},{"name":"B3","midi":59,"time":"340.78","velocity":0.3543307086614173,"duration":"0.27"},{"name":"D#5","midi":75,"time":"340.78","velocity":0.14960629921259844,"duration":"0.05"},{"name":"D6","midi":86,"time":"340.78","velocity":0.25196850393700787,"duration":"0.10"},{"name":"D#6","midi":87,"time":"340.78","velocity":0.2047244094488189,"duration":"0.15"},{"name":"G#4","midi":68,"time":"340.79","velocity":0.15748031496062992,"duration":"0.03"},{"name":"F6","midi":89,"time":"340.79","velocity":0.1732283464566929,"duration":"0.09"},{"name":"E2","midi":40,"time":"340.80","velocity":0.4566929133858268,"duration":"0.02"},{"name":"F#5","midi":78,"time":"340.80","velocity":0.2440944881889764,"duration":"0.13"},{"name":"A#5","midi":82,"time":"340.83","velocity":0.13385826771653545,"duration":"0.03"},{"name":"E2","midi":40,"time":"340.84","velocity":0.4645669291338583,"duration":"0.02"},{"name":"C#5","midi":73,"time":"340.84","velocity":0.11811023622047244,"duration":"0.03"},{"name":"E7","midi":100,"time":"340.84","velocity":0.14960629921259844,"duration":"0.07"},{"name":"G7","midi":103,"time":"340.84","velocity":0.16535433070866143,"duration":"0.08"},{"name":"G#4","midi":68,"time":"340.85","velocity":0.15748031496062992,"duration":"0.03"},{"name":"A5","midi":81,"time":"340.86","velocity":0.14173228346456693,"duration":"0.03"},{"name":"G6","midi":91,"time":"340.86","velocity":0.16535433070866143,"duration":"0.03"},{"name":"A6","midi":93,"time":"340.86","velocity":0.16535433070866143,"duration":"0.12"},{"name":"E2","midi":40,"time":"340.87","velocity":0.4645669291338583,"duration":"0.19"},{"name":"E6","midi":88,"time":"340.91","velocity":0.23622047244094488,"duration":"0.16"},{"name":"F6","midi":89,"time":"340.91","velocity":0.09448818897637795,"duration":"0.03"},{"name":"C#7","midi":97,"time":"340.91","velocity":0.16535433070866143,"duration":"0.14"},{"name":"F7","midi":101,"time":"340.91","velocity":0.10236220472440945,"duration":"0.08"},{"name":"G#4","midi":68,"time":"340.92","velocity":0.30708661417322836,"duration":"0.15"},{"name":"A5","midi":81,"time":"340.92","velocity":0.1968503937007874,"duration":"0.03"},{"name":"D6","midi":86,"time":"340.93","velocity":0.16535433070866143,"duration":"0.14"},{"name":"G7","midi":103,"time":"340.93","velocity":0.15748031496062992,"duration":"0.09"},{"name":"B4","midi":71,"time":"340.95","velocity":0.3779527559055118,"duration":"0.03"},{"name":"D#6","midi":87,"time":"340.95","velocity":0.25984251968503935,"duration":"0.05"},{"name":"F6","midi":89,"time":"340.95","velocity":0.10236220472440945,"duration":"0.06"},{"name":"G6","midi":91,"time":"340.95","velocity":0.11023622047244094,"duration":"0.07"},{"name":"F#5","midi":78,"time":"340.98","velocity":0.2755905511811024,"duration":"0.09"},{"name":"A5","midi":81,"time":"340.98","velocity":0.2204724409448819,"duration":"0.07"},{"name":"A#4","midi":70,"time":"340.99","velocity":0.25984251968503935,"duration":"0.02"},{"name":"B4","midi":71,"time":"341.01","velocity":0.4330708661417323,"duration":"0.07"},{"name":"D#7","midi":99,"time":"341.03","velocity":0.14960629921259844,"duration":"0.20"},{"name":"G7","midi":103,"time":"341.05","velocity":0.13385826771653545,"duration":"0.08"},{"name":"D#2","midi":39,"time":"341.06","velocity":0.6535433070866141,"duration":"0.02"},{"name":"B3","midi":59,"time":"341.06","velocity":0.3779527559055118,"duration":"0.02"},{"name":"F7","midi":101,"time":"341.06","velocity":0.2125984251968504,"duration":"0.12"},{"name":"G3","midi":55,"time":"341.07","velocity":0.5354330708661418,"duration":"0.02"},{"name":"D5","midi":74,"time":"341.07","velocity":0.29133858267716534,"duration":"0.02"},{"name":"G5","midi":79,"time":"341.07","velocity":0.2992125984251969,"duration":"0.03"},{"name":"A5","midi":81,"time":"341.07","velocity":0.25984251968503935,"duration":"0.02"},{"name":"C#7","midi":97,"time":"341.07","velocity":0.2047244094488189,"duration":"0.33"},{"name":"D7","midi":98,"time":"341.07","velocity":0.16535433070866143,"duration":"0.10"},{"name":"E7","midi":100,"time":"341.07","velocity":0.10236220472440945,"duration":"0.09"},{"name":"F2","midi":41,"time":"341.08","velocity":0.6771653543307087,"duration":"0.02"},{"name":"C5","midi":72,"time":"341.08","velocity":0.3464566929133858,"duration":"0.02"},{"name":"A#6","midi":94,"time":"341.08","velocity":0.1889763779527559,"duration":"0.12"},{"name":"C7","midi":96,"time":"341.08","velocity":0.11811023622047244,"duration":"0.05"},{"name":"G#2","midi":44,"time":"341.09","velocity":0.5826771653543307,"duration":"0.01"},{"name":"G#5","midi":80,"time":"341.09","velocity":0.4566929133858268,"duration":"0.23"},{"name":"A6","midi":93,"time":"341.09","velocity":0.1889763779527559,"duration":"0.03"},{"name":"F1","midi":29,"time":"341.10","velocity":0.6141732283464567,"duration":"0.01"},{"name":"E3","midi":52,"time":"341.10","velocity":0.6062992125984252,"duration":"0.35"},{"name":"G#4","midi":68,"time":"341.10","velocity":0.3543307086614173,"duration":"0.31"},{"name":"B4","midi":71,"time":"341.10","velocity":0.47244094488188976,"duration":"0.13"},{"name":"F#5","midi":78,"time":"341.10","velocity":0.31496062992125984,"duration":"0.34"},{"name":"D#6","midi":87,"time":"341.10","velocity":0.14173228346456693,"duration":"0.03"},{"name":"E1","midi":28,"time":"341.12","velocity":0.6220472440944882,"duration":"0.02"},{"name":"B3","midi":59,"time":"341.14","velocity":0.36220472440944884,"duration":"0.30"},{"name":"A5","midi":81,"time":"341.15","velocity":0.16535433070866143,"duration":"0.05"},{"name":"G7","midi":103,"time":"341.15","velocity":0.08661417322834646,"duration":"0.06"},{"name":"D#6","midi":87,"time":"341.16","velocity":0.25196850393700787,"duration":"0.21"},{"name":"D#2","midi":39,"time":"341.19","velocity":0.4409448818897638,"duration":"0.03"},{"name":"D7","midi":98,"time":"341.19","velocity":0.12598425196850394,"duration":"0.13"},{"name":"D6","midi":86,"time":"341.20","velocity":0.15748031496062992,"duration":"0.09"},{"name":"D#5","midi":75,"time":"341.21","velocity":0.1968503937007874,"duration":"0.07"},{"name":"G6","midi":91,"time":"341.21","velocity":0.07086614173228346,"duration":"0.06"},{"name":"A#6","midi":94,"time":"341.21","velocity":0.1732283464566929,"duration":"0.07"},{"name":"B5","midi":83,"time":"341.23","velocity":0.47244094488188976,"duration":"0.59"},{"name":"C7","midi":96,"time":"341.23","velocity":0.12598425196850394,"duration":"0.03"},{"name":"E2","midi":40,"time":"341.24","velocity":0.41732283464566927,"duration":"0.03"},{"name":"B4","midi":71,"time":"341.24","velocity":0.4409448818897638,"duration":"0.09"},{"name":"C#5","midi":73,"time":"341.24","velocity":0.11811023622047244,"duration":"0.03"},{"name":"A#5","midi":82,"time":"341.24","velocity":0.12598425196850394,"duration":"0.05"},{"name":"A6","midi":93,"time":"341.24","velocity":0.1732283464566929,"duration":"0.23"},{"name":"A5","midi":81,"time":"341.29","velocity":0.14173228346456693,"duration":"0.15"},{"name":"F6","midi":89,"time":"341.29","velocity":0.10236220472440945,"duration":"0.05"},{"name":"D#2","midi":39,"time":"341.30","velocity":0.4330708661417323,"duration":"0.02"},{"name":"D6","midi":86,"time":"341.30","velocity":0.18110236220472442,"duration":"0.14"},{"name":"E2","midi":40,"time":"341.35","velocity":0.5118110236220472,"duration":"0.09"},{"name":"B4","midi":71,"time":"341.35","velocity":0.48031496062992124,"duration":"0.13"},{"name":"F7","midi":101,"time":"341.35","velocity":0.09448818897637795,"duration":"0.03"},{"name":"E7","midi":100,"time":"341.38","velocity":0.15748031496062992,"duration":"0.08"},{"name":"D#6","midi":87,"time":"341.41","velocity":0.1732283464566929,"duration":"0.28"},{"name":"C7","midi":96,"time":"341.42","velocity":0.12598425196850394,"duration":"0.06"},{"name":"G7","midi":103,"time":"341.42","velocity":0.14173228346456693,"duration":"0.19"},{"name":"G5","midi":79,"time":"341.43","velocity":0.29133858267716534,"duration":"0.05"},{"name":"G#6","midi":92,"time":"341.43","velocity":0.2440944881889764,"duration":"0.28"},{"name":"F7","midi":101,"time":"341.43","velocity":0.2204724409448819,"duration":"0.07"},{"name":"F2","midi":41,"time":"341.44","velocity":0.7007874015748031,"duration":"0.02"},{"name":"C4","midi":60,"time":"341.44","velocity":0.33858267716535434,"duration":"0.02"},{"name":"D5","midi":74,"time":"341.44","velocity":0.2677165354330709,"duration":"0.07"},{"name":"C#7","midi":97,"time":"341.44","velocity":0.2677165354330709,"duration":"0.19"},{"name":"D7","midi":98,"time":"341.44","velocity":0.23622047244094488,"duration":"0.27"},{"name":"E4","midi":64,"time":"341.45","velocity":0.3858267716535433,"duration":"0.02"},{"name":"F#5","midi":78,"time":"341.45","velocity":0.33858267716535434,"duration":"0.38"},{"name":"D#7","midi":99,"time":"341.45","velocity":0.2047244094488189,"duration":"0.10"},{"name":"F#2","midi":42,"time":"341.47","velocity":0.6141732283464567,"duration":"0.03"},{"name":"F3","midi":53,"time":"341.48","velocity":0.5590551181102362,"duration":"0.01"},{"name":"C4","midi":60,"time":"341.48","velocity":0.29133858267716534,"duration":"0.02"},{"name":"C#5","midi":73,"time":"341.48","velocity":0.2440944881889764,"duration":"0.02"},{"name":"G#5","midi":80,"time":"341.48","velocity":0.3464566929133858,"duration":"0.63"},{"name":"D#1","midi":27,"time":"341.49","velocity":0.5118110236220472,"duration":"0.01"},{"name":"E3","midi":52,"time":"341.49","velocity":0.5196850393700787,"duration":"0.03"},{"name":"G#4","midi":68,"time":"341.49","velocity":0.3464566929133858,"duration":"0.33"},{"name":"B4","midi":71,"time":"341.49","velocity":0.30708661417322836,"duration":"0.02"},{"name":"G#1","midi":32,"time":"341.50","velocity":0.5511811023622047,"duration":"0.01"},{"name":"A6","midi":93,"time":"341.50","velocity":0.07086614173228346,"duration":"0.05"},{"name":"D#2","midi":39,"time":"341.51","velocity":0.5590551181102362,"duration":"0.01"},{"name":"B2","midi":47,"time":"341.51","velocity":0.5118110236220472,"duration":"0.01"},{"name":"E5","midi":76,"time":"341.51","velocity":0.5039370078740157,"duration":"0.33"},{"name":"E2","midi":40,"time":"341.52","velocity":0.5669291338582677,"duration":"0.03"},{"name":"B4","midi":71,"time":"341.52","velocity":0.49606299212598426,"duration":"0.29"},{"name":"D#3","midi":51,"time":"341.53","velocity":0.5433070866141733,"duration":"0.03"},{"name":"E2","midi":40,"time":"341.57","velocity":0.5039370078740157,"duration":"0.21"},{"name":"E3","midi":52,"time":"341.57","velocity":0.5354330708661418,"duration":"0.03"},{"name":"C7","midi":96,"time":"341.57","velocity":0.09448818897637795,"duration":"0.05"},{"name":"F#6","midi":90,"time":"341.58","velocity":0.4251968503937008,"duration":"2.64"},{"name":"B3","midi":59,"time":"341.59","velocity":0.2283464566929134,"duration":"0.03"},{"name":"D#3","midi":51,"time":"341.60","velocity":0.5275590551181102,"duration":"0.01"},{"name":"E3","midi":52,"time":"341.62","velocity":0.5748031496062992,"duration":"0.21"},{"name":"B3","midi":59,"time":"341.64","velocity":0.2047244094488189,"duration":"0.03"},{"name":"D5","midi":74,"time":"341.64","velocity":0.14960629921259844,"duration":"0.03"},{"name":"F6","midi":89,"time":"341.65","velocity":0.07874015748031496,"duration":"0.07"},{"name":"A#6","midi":94,"time":"341.65","velocity":0.10236220472440945,"duration":"0.03"},{"name":"C#7","midi":97,"time":"341.66","velocity":0.14960629921259844,"duration":"0.03"},{"name":"A6","midi":93,"time":"341.67","velocity":0.12598425196850394,"duration":"0.03"},{"name":"B3","midi":59,"time":"341.71","velocity":0.49606299212598426,"duration":"0.12"},{"name":"D#6","midi":87,"time":"341.71","velocity":0.3464566929133858,"duration":"0.28"},{"name":"G7","midi":103,"time":"341.71","velocity":0.11023622047244094,"duration":"0.05"},{"name":"D6","midi":86,"time":"341.72","velocity":0.2283464566929134,"duration":"0.09"},{"name":"C#7","midi":97,"time":"341.77","velocity":0.2283464566929134,"duration":"0.24"},{"name":"E2","midi":40,"time":"341.79","velocity":0.5039370078740157,"duration":"0.02"},{"name":"G7","midi":103,"time":"341.79","velocity":0.1732283464566929,"duration":"0.06"},{"name":"F7","midi":101,"time":"341.80","velocity":0.23622047244094488,"duration":"0.33"},{"name":"F2","midi":41,"time":"341.81","velocity":0.5196850393700787,"duration":"0.06"},{"name":"F4","midi":65,"time":"341.81","velocity":0.5433070866141733,"duration":"0.01"},{"name":"A4","midi":69,"time":"341.81","velocity":0.5039370078740157,"duration":"0.03"},{"name":"C#5","midi":73,"time":"341.81","velocity":0.3543307086614173,"duration":"0.02"},{"name":"A#6","midi":94,"time":"341.81","velocity":0.2755905511811024,"duration":"0.23"},{"name":"C7","midi":96,"time":"341.81","velocity":0.25196850393700787,"duration":"0.10"},{"name":"D7","midi":98,"time":"341.81","velocity":0.2755905511811024,"duration":"0.20"},{"name":"E4","midi":64,"time":"341.83","velocity":0.5275590551181102,"duration":"0.05"},{"name":"A#5","midi":82,"time":"341.83","velocity":0.30708661417322836,"duration":"0.05"},{"name":"C6","midi":84,"time":"341.83","velocity":0.36220472440944884,"duration":"0.05"},{"name":"F6","midi":89,"time":"341.83","velocity":0.2204724409448819,"duration":"0.08"},{"name":"A6","midi":93,"time":"341.83","velocity":0.2755905511811024,"duration":"0.10"},{"name":"D#5","midi":75,"time":"341.84","velocity":0.49606299212598426,"duration":"0.03"},{"name":"B5","midi":83,"time":"341.84","velocity":0.4566929133858268,"duration":"0.42"},{"name":"G6","midi":91,"time":"341.84","velocity":0.2125984251968504,"duration":"0.07"},{"name":"F#5","midi":78,"time":"341.85","velocity":0.1968503937007874,"duration":"0.05"},{"name":"E3","midi":52,"time":"341.86","velocity":0.4881889763779528,"duration":"0.05"},{"name":"B3","midi":59,"time":"341.86","velocity":0.4251968503937008,"duration":"0.03"},{"name":"B4","midi":71,"time":"341.86","velocity":0.5433070866141733,"duration":"0.67"},{"name":"E2","midi":40,"time":"341.87","velocity":0.5118110236220472,"duration":"0.31"},{"name":"G#4","midi":68,"time":"341.87","velocity":0.3464566929133858,"duration":"0.06"},{"name":"D6","midi":86,"time":"341.87","velocity":0.1889763779527559,"duration":"0.15"},{"name":"C#5","midi":73,"time":"341.88","velocity":0.23622047244094488,"duration":"0.02"},{"name":"C6","midi":84,"time":"341.88","velocity":0.30708661417322836,"duration":"0.02"},{"name":"B3","midi":59,"time":"341.91","velocity":0.33858267716535434,"duration":"0.03"},{"name":"F#5","midi":78,"time":"341.91","velocity":0.33070866141732286,"duration":"0.10"},{"name":"E3","midi":52,"time":"341.92","velocity":0.5433070866141733,"duration":"0.27"},{"name":"A#5","midi":82,"time":"341.92","velocity":0.1732283464566929,"duration":"0.03"},{"name":"C6","midi":84,"time":"341.92","velocity":0.30708661417322836,"duration":"0.03"},{"name":"F6","midi":89,"time":"341.93","velocity":0.18110236220472442,"duration":"0.03"},{"name":"G#4","midi":68,"time":"341.94","velocity":0.2677165354330709,"duration":"0.02"},{"name":"G6","midi":91,"time":"341.94","velocity":0.14960629921259844,"duration":"0.12"},{"name":"A6","midi":93,"time":"341.95","velocity":0.15748031496062992,"duration":"0.05"},{"name":"C6","midi":84,"time":"341.97","velocity":0.15748031496062992,"duration":"0.03"},{"name":"A#3","midi":58,"time":"341.98","velocity":0.4015748031496063,"duration":"0.05"},{"name":"A4","midi":69,"time":"341.99","velocity":0.2992125984251969,"duration":"0.02"},{"name":"D#6","midi":87,"time":"342.01","velocity":0.23622047244094488,"duration":"0.21"},{"name":"A6","midi":93,"time":"342.01","velocity":0.2204724409448819,"duration":"0.03"},{"name":"F#5","midi":78,"time":"342.02","velocity":0.31496062992125984,"duration":"0.29"},{"name":"D7","midi":98,"time":"342.02","velocity":0.1889763779527559,"duration":"0.06"},{"name":"G#4","midi":68,"time":"342.03","velocity":0.3937007874015748,"duration":"0.51"},{"name":"F6","midi":89,"time":"342.03","velocity":0.13385826771653545,"duration":"0.06"},{"name":"C#7","midi":97,"time":"342.03","velocity":0.11023622047244094,"duration":"0.15"},{"name":"D6","midi":86,"time":"342.06","velocity":0.14173228346456693,"duration":"0.09"},{"name":"B3","midi":59,"time":"342.07","velocity":0.3937007874015748,"duration":"0.03"},{"name":"A5","midi":81,"time":"342.07","velocity":0.1968503937007874,"duration":"0.05"},{"name":"C6","midi":84,"time":"342.07","velocity":0.1889763779527559,"duration":"0.03"},{"name":"A#6","midi":94,"time":"342.09","velocity":0.15748031496062992,"duration":"0.03"},{"name":"B3","midi":59,"time":"342.15","velocity":0.3937007874015748,"duration":"0.02"},{"name":"F6","midi":89,"time":"342.15","velocity":0.10236220472440945,"duration":"0.05"},{"name":"A#3","midi":58,"time":"342.17","velocity":0.2992125984251969,"duration":"0.03"},{"name":"D6","midi":86,"time":"342.17","velocity":0.2440944881889764,"duration":"0.10"},{"name":"C7","midi":96,"time":"342.17","velocity":0.08661417322834646,"duration":"0.03"},{"name":"G7","midi":103,"time":"342.17","velocity":0.1732283464566929,"duration":"0.21"},{"name":"F2","midi":41,"time":"342.19","velocity":0.5354330708661418,"duration":"0.01"},{"name":"C6","midi":84,"time":"342.19","velocity":0.25984251968503935,"duration":"0.03"},{"name":"F#2","midi":42,"time":"342.20","velocity":0.5354330708661418,"duration":"0.01"},{"name":"A5","midi":81,"time":"342.20","velocity":0.2047244094488189,"duration":"0.05"},{"name":"A#6","midi":94,"time":"342.20","velocity":0.14960629921259844,"duration":"0.15"},{"name":"C#7","midi":97,"time":"342.20","velocity":0.15748031496062992,"duration":"0.08"},{"name":"F7","midi":101,"time":"342.20","velocity":0.2125984251968504,"duration":"0.15"},{"name":"D#3","midi":51,"time":"342.21","velocity":0.5275590551181102,"duration":"0.01"},{"name":"F4","midi":65,"time":"342.21","velocity":0.47244094488188976,"duration":"0.02"},{"name":"C#5","midi":73,"time":"342.21","velocity":0.1968503937007874,"duration":"0.03"},{"name":"F6","midi":89,"time":"342.21","velocity":0.15748031496062992,"duration":"0.03"},{"name":"E3","midi":52,"time":"342.22","velocity":0.5905511811023622,"duration":"0.34"},{"name":"A#3","midi":58,"time":"342.22","velocity":0.29133858267716534,"duration":"0.03"},{"name":"G6","midi":91,"time":"342.22","velocity":0.12598425196850394,"duration":"0.03"},{"name":"F2","midi":41,"time":"342.23","velocity":0.44881889763779526,"duration":"0.02"},{"name":"D5","midi":74,"time":"342.24","velocity":0.2125984251968504,"duration":"0.07"},{"name":"D#7","midi":99,"time":"342.24","velocity":0.1889763779527559,"duration":"0.19"},{"name":"E2","midi":40,"time":"342.26","velocity":0.5905511811023622,"duration":"0.30"},{"name":"B3","midi":59,"time":"342.26","velocity":0.28346456692913385,"duration":"0.02"},{"name":"C6","midi":84,"time":"342.26","velocity":0.3464566929133858,"duration":"0.02"},{"name":"A#5","midi":82,"time":"342.27","velocity":0.14960629921259844,"duration":"0.03"},{"name":"D#6","midi":87,"time":"342.27","velocity":0.2204724409448819,"duration":"0.05"},{"name":"A#3","midi":58,"time":"342.28","velocity":0.23622047244094488,"duration":"0.02"},{"name":"C6","midi":84,"time":"342.29","velocity":0.1732283464566929,"duration":"0.03"},{"name":"A6","midi":93,"time":"342.30","velocity":0.1889763779527559,"duration":"0.07"},{"name":"F#5","midi":78,"time":"342.34","velocity":0.2283464566929134,"duration":"0.06"},{"name":"D6","midi":86,"time":"342.34","velocity":0.2125984251968504,"duration":"0.08"},{"name":"D#6","midi":87,"time":"342.34","velocity":0.15748031496062992,"duration":"0.13"},{"name":"C#7","midi":97,"time":"342.36","velocity":0.07874015748031496,"duration":"0.03"},{"name":"D5","midi":74,"time":"342.37","velocity":0.2283464566929134,"duration":"0.03"},{"name":"B3","midi":59,"time":"342.38","velocity":0.33858267716535434,"duration":"0.15"},{"name":"D#5","midi":75,"time":"342.40","velocity":0.2047244094488189,"duration":"0.03"},{"name":"A6","midi":93,"time":"342.40","velocity":0.1732283464566929,"duration":"0.06"},{"name":"F#5","midi":78,"time":"342.41","velocity":0.2755905511811024,"duration":"0.06"},{"name":"G6","midi":91,"time":"342.44","velocity":0.12598425196850394,"duration":"0.03"},{"name":"F6","midi":89,"time":"342.45","velocity":0.16535433070866143,"duration":"0.16"},{"name":"A#6","midi":94,"time":"342.45","velocity":0.07086614173228346,"duration":"0.05"},{"name":"D#7","midi":99,"time":"342.45","velocity":0.16535433070866143,"duration":"0.14"},{"name":"F#5","midi":78,"time":"342.48","velocity":0.10236220472440945,"duration":"0.03"},{"name":"D#6","midi":87,"time":"342.48","velocity":0.1889763779527559,"duration":"0.19"},{"name":"A6","midi":93,"time":"342.48","velocity":0.1732283464566929,"duration":"0.09"},{"name":"D6","midi":86,"time":"342.50","velocity":0.2440944881889764,"duration":"0.08"},{"name":"A5","midi":81,"time":"342.52","velocity":0.23622047244094488,"duration":"0.08"},{"name":"G7","midi":103,"time":"342.52","velocity":0.2047244094488189,"duration":"0.10"},{"name":"A#3","midi":58,"time":"342.53","velocity":0.29133858267716534,"duration":"0.03"},{"name":"A4","midi":69,"time":"342.55","velocity":0.36220472440944884,"duration":"0.02"},{"name":"B4","midi":71,"time":"342.55","velocity":0.3543307086614173,"duration":"0.06"},{"name":"D5","midi":74,"time":"342.55","velocity":0.25196850393700787,"duration":"0.05"},{"name":"C6","midi":84,"time":"342.55","velocity":0.12598425196850394,"duration":"0.03"},{"name":"C7","midi":96,"time":"342.55","velocity":0.2047244094488189,"duration":"0.16"},{"name":"E7","midi":100,"time":"342.55","velocity":0.2047244094488189,"duration":"0.05"},{"name":"F2","midi":41,"time":"342.56","velocity":0.7007874015748031,"duration":"0.02"},{"name":"F#4","midi":66,"time":"342.56","velocity":0.4015748031496063,"duration":"0.02"},{"name":"G5","midi":79,"time":"342.56","velocity":0.33858267716535434,"duration":"0.05"},{"name":"A#6","midi":94,"time":"342.56","velocity":0.2047244094488189,"duration":"0.09"},{"name":"E3","midi":52,"time":"342.57","velocity":0.5275590551181102,"duration":"0.03"},{"name":"C4","midi":60,"time":"342.57","velocity":0.3937007874015748,"duration":"0.02"},{"name":"C#6","midi":85,"time":"342.57","velocity":0.12598425196850394,"duration":"0.03"},{"name":"F7","midi":101,"time":"342.57","velocity":0.1889763779527559,"duration":"0.05"},{"name":"F#2","midi":42,"time":"342.58","velocity":0.5511811023622047,"duration":"0.02"},{"name":"C#7","midi":97,"time":"342.58","velocity":0.2992125984251969,"duration":"0.17"},{"name":"B3","midi":59,"time":"342.59","velocity":0.3937007874015748,"duration":"0.09"},{"name":"D6","midi":86,"time":"342.59","velocity":0.2755905511811024,"duration":"0.36"},{"name":"G#4","midi":68,"time":"342.60","velocity":0.3700787401574803,"duration":"0.35"},{"name":"F#5","midi":78,"time":"342.60","velocity":0.25196850393700787,"duration":"0.15"},{"name":"F#1","midi":30,"time":"342.62","velocity":0.5196850393700787,"duration":"0.01"},{"name":"E3","midi":52,"time":"342.62","velocity":0.5826771653543307,"duration":"0.31"},{"name":"D#5","midi":75,"time":"342.62","velocity":0.14173228346456693,"duration":"0.08"},{"name":"C2","midi":36,"time":"342.63","velocity":0.5669291338582677,"duration":"0.01"},{"name":"F6","midi":89,"time":"342.63","velocity":0.12598425196850394,"duration":"0.06"},{"name":"E2","midi":40,"time":"342.65","velocity":0.4566929133858268,"duration":"0.03"},{"name":"E6","midi":88,"time":"342.66","velocity":0.1732283464566929,"duration":"0.10"},{"name":"D#2","midi":39,"time":"342.69","velocity":0.44881889763779526,"duration":"0.02"},{"name":"B4","midi":71,"time":"342.69","velocity":0.5118110236220472,"duration":"0.63"},{"name":"D#7","midi":99,"time":"342.69","velocity":0.15748031496062992,"duration":"0.15"},{"name":"D#6","midi":87,"time":"342.70","velocity":0.25196850393700787,"duration":"0.05"},{"name":"A#6","midi":94,"time":"342.71","velocity":0.11023622047244094,"duration":"0.09"},{"name":"E2","midi":40,"time":"342.73","velocity":0.47244094488188976,"duration":"0.05"},{"name":"D#6","midi":87,"time":"342.76","velocity":0.2283464566929134,"duration":"0.06"},{"name":"C7","midi":96,"time":"342.76","velocity":0.07086614173228346,"duration":"0.05"},{"name":"B3","midi":59,"time":"342.77","velocity":0.33070866141732286,"duration":"0.02"},{"name":"D#2","midi":39,"time":"342.78","velocity":0.4566929133858268,"duration":"0.03"},{"name":"C#7","midi":97,"time":"342.78","velocity":0.16535433070866143,"duration":"0.08"},{"name":"F#5","midi":78,"time":"342.79","velocity":0.33858267716535434,"duration":"0.50"},{"name":"B3","midi":59,"time":"342.80","velocity":0.3700787401574803,"duration":"0.12"},{"name":"D#5","midi":75,"time":"342.80","velocity":0.2204724409448819,"duration":"0.03"},{"name":"E2","midi":40,"time":"342.81","velocity":0.47244094488188976,"duration":"0.08"},{"name":"C6","midi":84,"time":"342.81","velocity":0.2677165354330709,"duration":"0.08"},{"name":"A#6","midi":94,"time":"342.81","velocity":0.13385826771653545,"duration":"0.07"},{"name":"F6","midi":89,"time":"342.83","velocity":0.11811023622047244,"duration":"0.03"},{"name":"D#6","midi":87,"time":"342.84","velocity":0.16535433070866143,"duration":"0.06"},{"name":"C#7","midi":97,"time":"342.88","velocity":0.2992125984251969,"duration":"0.33"},{"name":"D#7","midi":99,"time":"342.88","velocity":0.16535433070866143,"duration":"0.17"},{"name":"E2","midi":40,"time":"342.91","velocity":0.4881889763779528,"duration":"0.02"},{"name":"D#5","midi":75,"time":"342.91","velocity":0.2677165354330709,"duration":"0.09"},{"name":"C4","midi":60,"time":"342.92","velocity":0.30708661417322836,"duration":"0.02"},{"name":"F4","midi":65,"time":"342.92","velocity":0.31496062992125984,"duration":"0.05"},{"name":"F2","midi":41,"time":"342.93","velocity":0.5275590551181102,"duration":"0.01"},{"name":"F#3","midi":54,"time":"342.93","velocity":0.3543307086614173,"duration":"0.02"},{"name":"A5","midi":81,"time":"342.93","velocity":0.2047244094488189,"duration":"0.03"},{"name":"E7","midi":100,"time":"342.93","velocity":0.15748031496062992,"duration":"0.13"},{"name":"F7","midi":101,"time":"342.93","velocity":0.25984251968503935,"duration":"0.16"},{"name":"G7","midi":103,"time":"342.93","velocity":0.2440944881889764,"duration":"0.06"},{"name":"G2","midi":43,"time":"342.94","velocity":0.5511811023622047,"duration":"0.01"},{"name":"B3","midi":59,"time":"342.94","velocity":0.29133858267716534,"duration":"0.02"},{"name":"C6","midi":84,"time":"342.94","velocity":0.2440944881889764,"duration":"0.06"},{"name":"C#6","midi":85,"time":"342.94","velocity":0.16535433070866143,"duration":"0.03"},{"name":"G6","midi":91,"time":"342.94","velocity":0.1968503937007874,"duration":"0.12"},{"name":"G#2","midi":44,"time":"342.95","velocity":0.5669291338582677,"duration":"0.01"},{"name":"D7","midi":98,"time":"342.95","velocity":0.25984251968503935,"duration":"0.16"},{"name":"G2","midi":43,"time":"342.97","velocity":0.5196850393700787,"duration":"0.01"},{"name":"E3","midi":52,"time":"342.97","velocity":0.5669291338582677,"duration":"0.35"},{"name":"A#6","midi":94,"time":"342.97","velocity":0.1889763779527559,"duration":"0.13"},{"name":"F2","midi":41,"time":"342.98","velocity":0.5039370078740157,"duration":"0.02"},{"name":"B3","midi":59,"time":"342.98","velocity":0.3700787401574803,"duration":"0.31"},{"name":"E5","midi":76,"time":"342.98","velocity":0.23622047244094488,"duration":"0.05"},{"name":"D6","midi":86,"time":"342.98","velocity":0.2440944881889764,"duration":"0.24"},{"name":"E2","midi":40,"time":"343.00","velocity":0.49606299212598426,"duration":"0.30"},{"name":"G#4","midi":68,"time":"343.00","velocity":0.29133858267716534,"duration":"0.29"},{"name":"A5","midi":81,"time":"343.00","velocity":0.11023622047244094,"duration":"0.03"},{"name":"C7","midi":96,"time":"343.00","velocity":0.07874015748031496,"duration":"0.08"},{"name":"D#5","midi":75,"time":"343.01","velocity":0.10236220472440945,"duration":"0.03"},{"name":"C6","midi":84,"time":"343.01","velocity":0.08661417322834646,"duration":"0.03"},{"name":"D#6","midi":87,"time":"343.03","velocity":0.23622047244094488,"duration":"0.17"},{"name":"D5","midi":74,"time":"343.05","velocity":0.1968503937007874,"duration":"0.07"},{"name":"A6","midi":93,"time":"343.05","velocity":0.2677165354330709,"duration":"0.33"},{"name":"E5","midi":76,"time":"343.06","velocity":0.3543307086614173,"duration":"0.23"},{"name":"C6","midi":84,"time":"343.09","velocity":0.1732283464566929,"duration":"0.03"},{"name":"A5","midi":81,"time":"343.10","velocity":0.12598425196850394,"duration":"0.03"},{"name":"G6","midi":91,"time":"343.12","velocity":0.14960629921259844,"duration":"0.07"},{"name":"A#6","midi":94,"time":"343.13","velocity":0.14960629921259844,"duration":"0.05"},{"name":"C#5","midi":73,"time":"343.20","velocity":0.09448818897637795,"duration":"0.03"},{"name":"C7","midi":96,"time":"343.21","velocity":0.14173228346456693,"duration":"0.05"},{"name":"E7","midi":100,"time":"343.21","velocity":0.09448818897637795,"duration":"0.03"},{"name":"G7","midi":103,"time":"343.21","velocity":0.11811023622047244,"duration":"0.05"},{"name":"C6","midi":84,"time":"343.22","velocity":0.14173228346456693,"duration":"0.06"},{"name":"D#6","midi":87,"time":"343.22","velocity":0.18110236220472442,"duration":"0.08"},{"name":"D6","midi":86,"time":"343.23","velocity":0.28346456692913385,"duration":"0.13"},{"name":"D#5","midi":75,"time":"343.26","velocity":0.44881889763779526,"duration":"0.08"},{"name":"A5","midi":81,"time":"343.26","velocity":0.2047244094488189,"duration":"0.03"},{"name":"D#7","midi":99,"time":"343.26","velocity":0.2125984251968504,"duration":"0.36"},{"name":"C#5","midi":73,"time":"343.28","velocity":0.4094488188976378,"duration":"0.05"},{"name":"F6","midi":89,"time":"343.29","velocity":0.25196850393700787,"duration":"0.07"},{"name":"C7","midi":96,"time":"343.29","velocity":0.25984251968503935,"duration":"0.35"},{"name":"C#7","midi":97,"time":"343.29","velocity":0.2125984251968504,"duration":"0.15"},{"name":"F7","midi":101,"time":"343.29","velocity":0.3228346456692913,"duration":"0.31"},{"name":"F2","midi":41,"time":"343.30","velocity":0.5118110236220472,"duration":"0.01"},{"name":"G4","midi":67,"time":"343.30","velocity":0.5275590551181102,"duration":"0.01"},{"name":"G6","midi":91,"time":"343.30","velocity":0.3464566929133858,"duration":"0.09"},{"name":"A#4","midi":70,"time":"343.31","velocity":0.47244094488188976,"duration":"0.03"},{"name":"G5","midi":79,"time":"343.31","velocity":0.3464566929133858,"duration":"0.02"},{"name":"E5","midi":76,"time":"343.33","velocity":0.3937007874015748,"duration":"0.09"},{"name":"G#5","midi":80,"time":"343.33","velocity":0.33858267716535434,"duration":"0.42"},{"name":"E7","midi":100,"time":"343.33","velocity":0.09448818897637795,"duration":"0.03"},{"name":"D#3","midi":51,"time":"343.34","velocity":0.5118110236220472,"duration":"0.01"},{"name":"E2","midi":40,"time":"343.35","velocity":0.5118110236220472,"duration":"0.33"},{"name":"E3","midi":52,"time":"343.35","velocity":0.5511811023622047,"duration":"0.31"},{"name":"G#4","midi":68,"time":"343.35","velocity":0.3464566929133858,"duration":"0.07"},{"name":"B4","midi":71,"time":"343.35","velocity":0.4409448818897638,"duration":"0.03"},{"name":"C#5","midi":73,"time":"343.35","velocity":0.2992125984251969,"duration":"0.02"},{"name":"F#4","midi":66,"time":"343.36","velocity":0.2992125984251969,"duration":"0.02"},{"name":"A6","midi":93,"time":"343.38","velocity":0.08661417322834646,"duration":"0.05"},{"name":"B4","midi":71,"time":"343.40","velocity":0.5590551181102362,"duration":"0.67"},{"name":"F6","midi":89,"time":"343.40","velocity":0.16535433070866143,"duration":"0.03"},{"name":"A4","midi":69,"time":"343.41","velocity":0.36220472440944884,"duration":"0.02"},{"name":"D#5","midi":75,"time":"343.41","velocity":0.2755905511811024,"duration":"0.05"},{"name":"B3","midi":59,"time":"343.42","velocity":0.4409448818897638,"duration":"0.05"},{"name":"F#5","midi":78,"time":"343.42","velocity":0.3464566929133858,"duration":"0.17"},{"name":"G#4","midi":68,"time":"343.43","velocity":0.3543307086614173,"duration":"0.12"},{"name":"C6","midi":84,"time":"343.43","velocity":0.33070866141732286,"duration":"0.09"},{"name":"D6","midi":86,"time":"343.43","velocity":0.11811023622047244,"duration":"0.03"},{"name":"C#5","midi":73,"time":"343.44","velocity":0.2440944881889764,"duration":"0.03"},{"name":"A6","midi":93,"time":"343.44","velocity":0.1968503937007874,"duration":"0.10"},{"name":"C#7","midi":97,"time":"343.45","velocity":0.08661417322834646,"duration":"0.07"},{"name":"A#3","midi":58,"time":"343.47","velocity":0.47244094488188976,"duration":"0.02"},{"name":"D5","midi":74,"time":"343.48","velocity":0.25196850393700787,"duration":"0.06"},{"name":"A5","midi":81,"time":"343.48","velocity":0.2204724409448819,"duration":"0.06"},{"name":"A#6","midi":94,"time":"343.49","velocity":0.13385826771653545,"duration":"0.10"},{"name":"G#3","midi":56,"time":"343.51","velocity":0.3858267716535433,"duration":"0.02"},{"name":"G7","midi":103,"time":"343.53","velocity":0.11811023622047244,"duration":"0.06"},{"name":"G#4","midi":68,"time":"343.56","velocity":0.3858267716535433,"duration":"0.14"},{"name":"F6","midi":89,"time":"343.56","velocity":0.11811023622047244,"duration":"0.03"},{"name":"C6","midi":84,"time":"343.57","velocity":0.29133858267716534,"duration":"0.02"},{"name":"D7","midi":98,"time":"343.57","velocity":0.11811023622047244,"duration":"0.03"},{"name":"A#3","midi":58,"time":"343.58","velocity":0.4566929133858268,"duration":"0.03"},{"name":"D6","midi":86,"time":"343.58","velocity":0.10236220472440945,"duration":"0.03"},{"name":"D#6","midi":87,"time":"343.60","velocity":0.2283464566929134,"duration":"0.49"},{"name":"A6","midi":93,"time":"343.60","velocity":0.2125984251968504,"duration":"0.31"},{"name":"F7","midi":101,"time":"343.62","velocity":0.2440944881889764,"duration":"0.17"},{"name":"F#5","midi":78,"time":"343.63","velocity":0.1889763779527559,"duration":"0.06"},{"name":"C6","midi":84,"time":"343.63","velocity":0.2440944881889764,"duration":"0.08"},{"name":"B3","midi":59,"time":"343.64","velocity":0.33858267716535434,"duration":"0.02"},{"name":"D7","midi":98,"time":"343.64","velocity":0.1889763779527559,"duration":"0.33"},{"name":"A#3","midi":58,"time":"343.66","velocity":0.3937007874015748,"duration":"0.03"},{"name":"F6","midi":89,"time":"343.66","velocity":0.11023622047244094,"duration":"0.03"},{"name":"G7","midi":103,"time":"343.66","velocity":0.2047244094488189,"duration":"0.10"},{"name":"F2","midi":41,"time":"343.67","velocity":0.5511811023622047,"duration":"0.02"},{"name":"A#6","midi":94,"time":"343.67","velocity":0.2283464566929134,"duration":"0.09"},{"name":"A#5","midi":82,"time":"343.69","velocity":0.1732283464566929,"duration":"0.03"},{"name":"G6","midi":91,"time":"343.69","velocity":0.11023622047244094,"duration":"0.06"},{"name":"E2","midi":40,"time":"343.70","velocity":0.5196850393700787,"duration":"0.03"},{"name":"F#5","midi":78,"time":"343.70","velocity":0.3858267716535433,"duration":"0.19"},{"name":"F3","midi":53,"time":"343.71","velocity":0.5433070866141733,"duration":"0.01"},{"name":"G#4","midi":68,"time":"343.71","velocity":0.33070866141732286,"duration":"0.34"},{"name":"C#7","midi":97,"time":"343.71","velocity":0.25984251968503935,"duration":"0.17"},{"name":"E3","midi":52,"time":"343.72","velocity":0.5354330708661418,"duration":"0.07"},{"name":"B3","midi":59,"time":"343.72","velocity":0.4330708661417323,"duration":"0.19"},{"name":"F6","midi":89,"time":"343.72","velocity":0.1889763779527559,"duration":"0.03"},{"name":"C#5","midi":73,"time":"343.73","velocity":0.2283464566929134,"duration":"0.03"},{"name":"D6","midi":86,"time":"343.73","velocity":0.1732283464566929,"duration":"0.21"},{"name":"E2","midi":40,"time":"343.74","velocity":0.47244094488188976,"duration":"0.14"},{"name":"A5","midi":81,"time":"343.74","velocity":0.14960629921259844,"duration":"0.08"},{"name":"C7","midi":96,"time":"343.76","velocity":0.12598425196850394,"duration":"0.08"},{"name":"F6","midi":89,"time":"343.79","velocity":0.11811023622047244,"duration":"0.03"},{"name":"E3","midi":52,"time":"343.80","velocity":0.6141732283464567,"duration":"0.24"},{"name":"G7","midi":103,"time":"343.83","velocity":0.15748031496062992,"duration":"0.06"},{"name":"A#6","midi":94,"time":"343.84","velocity":0.09448818897637795,"duration":"0.05"},{"name":"A5","midi":81,"time":"343.85","velocity":0.1732283464566929,"duration":"0.03"},{"name":"C7","midi":96,"time":"343.85","velocity":0.09448818897637795,"duration":"0.05"},{"name":"D#5","midi":75,"time":"343.86","velocity":0.2204724409448819,"duration":"0.10"},{"name":"F6","midi":89,"time":"343.86","velocity":0.18110236220472442,"duration":"0.19"},{"name":"G6","midi":91,"time":"343.88","velocity":0.12598425196850394,"duration":"0.07"},{"name":"E2","midi":40,"time":"343.90","velocity":0.4881889763779528,"duration":"0.16"},{"name":"F#5","midi":78,"time":"343.90","velocity":0.31496062992125984,"duration":"0.15"},{"name":"A#3","midi":58,"time":"343.91","velocity":0.25984251968503935,"duration":"0.02"},{"name":"A#6","midi":94,"time":"343.91","velocity":0.07086614173228346,"duration":"0.05"},{"name":"A5","midi":81,"time":"343.92","velocity":0.1968503937007874,"duration":"0.03"},{"name":"C#7","midi":97,"time":"343.92","velocity":0.12598425196850394,"duration":"0.06"},{"name":"B3","midi":59,"time":"343.93","velocity":0.1968503937007874,"duration":"0.05"},{"name":"G#6","midi":92,"time":"343.94","velocity":0.29133858267716534,"duration":"0.34"},{"name":"G#5","midi":80,"time":"343.97","velocity":0.33858267716535434,"duration":"0.26"},{"name":"B3","midi":59,"time":"343.99","velocity":0.30708661417322836,"duration":"0.05"},{"name":"A6","midi":93,"time":"343.99","velocity":0.2204724409448819,"duration":"0.27"},{"name":"D7","midi":98,"time":"344.00","velocity":0.2204724409448819,"duration":"0.23"},{"name":"D5","midi":74,"time":"344.03","velocity":0.2755905511811024,"duration":"0.07"},{"name":"G7","midi":103,"time":"344.03","velocity":0.2204724409448819,"duration":"0.06"},{"name":"F3","midi":53,"time":"344.05","velocity":0.5511811023622047,"duration":"0.02"},{"name":"A4","midi":69,"time":"344.05","velocity":0.36220472440944884,"duration":"0.03"},{"name":"G5","midi":79,"time":"344.05","velocity":0.2283464566929134,"duration":"0.02"},{"name":"F7","midi":101,"time":"344.05","velocity":0.1732283464566929,"duration":"0.20"},{"name":"C#2","midi":37,"time":"344.06","velocity":0.5984251968503937,"duration":"0.01"},{"name":"A#2","midi":46,"time":"344.06","velocity":0.5826771653543307,"duration":"0.01"},{"name":"A#6","midi":94,"time":"344.06","velocity":0.2047244094488189,"duration":"0.30"},{"name":"C#7","midi":97,"time":"344.06","velocity":0.1968503937007874,"duration":"0.16"},{"name":"F2","midi":41,"time":"344.07","velocity":0.6535433070866141,"duration":"0.01"},{"name":"B5","midi":83,"time":"344.07","velocity":0.3937007874015748,"duration":"0.79"},{"name":"C#6","midi":85,"time":"344.07","velocity":0.3228346456692913,"duration":"0.38"},{"name":"F6","midi":89,"time":"344.07","velocity":0.08661417322834646,"duration":"0.03"},{"name":"C7","midi":96,"time":"344.07","velocity":0.09448818897637795,"duration":"0.03"},{"name":"F#2","midi":42,"time":"344.08","velocity":0.5748031496062992,"duration":"0.01"},{"name":"D3","midi":50,"time":"344.08","velocity":0.5433070866141733,"duration":"0.01"},{"name":"C4","midi":60,"time":"344.08","velocity":0.3858267716535433,"duration":"0.02"},{"name":"B4","midi":71,"time":"344.08","velocity":0.4015748031496063,"duration":"0.05"},{"name":"D#5","midi":75,"time":"344.08","velocity":0.2677165354330709,"duration":"0.10"},{"name":"D#3","midi":51,"time":"344.09","velocity":0.6141732283464567,"duration":"0.01"},{"name":"E4","midi":64,"time":"344.09","velocity":0.41732283464566927,"duration":"0.36"},{"name":"E6","midi":88,"time":"344.09","velocity":0.2677165354330709,"duration":"0.14"},{"name":"E1","midi":28,"time":"344.10","velocity":0.5984251968503937,"duration":"0.01"},{"name":"E3","midi":52,"time":"344.10","velocity":0.5748031496062992,"duration":"0.05"},{"name":"B3","midi":59,"time":"344.10","velocity":0.3543307086614173,"duration":"0.05"},{"name":"C#5","midi":73,"time":"344.10","velocity":0.4330708661417323,"duration":"0.21"},{"name":"A5","midi":81,"time":"344.10","velocity":0.14960629921259844,"duration":"0.03"},{"name":"F1","midi":29,"time":"344.12","velocity":0.5905511811023622,"duration":"0.01"},{"name":"G#4","midi":68,"time":"344.12","velocity":0.33070866141732286,"duration":"0.31"},{"name":"A#4","midi":70,"time":"344.13","velocity":0.23622047244094488,"duration":"0.02"},{"name":"D#2","midi":39,"time":"344.15","velocity":0.49606299212598426,"duration":"0.02"},{"name":"D#3","midi":51,"time":"344.15","velocity":0.5590551181102362,"duration":"0.01"},{"name":"F#5","midi":78,"time":"344.15","velocity":0.23622047244094488,"duration":"0.12"},{"name":"F6","midi":89,"time":"344.15","velocity":0.1968503937007874,"duration":"0.07"},{"name":"E3","midi":52,"time":"344.16","velocity":0.5275590551181102,"duration":"0.17"},{"name":"B3","midi":59,"time":"344.16","velocity":0.3464566929133858,"duration":"0.03"},{"name":"D6","midi":86,"time":"344.16","velocity":0.25984251968503935,"duration":"0.08"},{"name":"E2","midi":40,"time":"344.17","velocity":0.5196850393700787,"duration":"0.09"},{"name":"B4","midi":71,"time":"344.17","velocity":0.3858267716535433,"duration":"0.27"},{"name":"A#5","midi":82,"time":"344.17","velocity":0.07874015748031496,"duration":"0.03"},{"name":"A#3","midi":58,"time":"344.20","velocity":0.31496062992125984,"duration":"0.02"},{"name":"G5","midi":79,"time":"344.21","velocity":0.16535433070866143,"duration":"0.03"},{"name":"D#5","midi":75,"time":"344.23","velocity":0.18110236220472442,"duration":"0.09"},{"name":"G#5","midi":80,"time":"344.23","velocity":0.3700787401574803,"duration":"0.22"},{"name":"F6","midi":89,"time":"344.24","velocity":0.1968503937007874,"duration":"0.14"},{"name":"B3","midi":59,"time":"344.26","velocity":0.3543307086614173,"duration":"0.07"},{"name":"C7","midi":96,"time":"344.26","velocity":0.08661417322834646,"duration":"0.07"},{"name":"D#7","midi":99,"time":"344.26","velocity":0.09448818897637795,"duration":"0.08"},{"name":"F#6","midi":90,"time":"344.27","velocity":0.13385826771653545,"duration":"0.06"},{"name":"E2","midi":40,"time":"344.28","velocity":0.5826771653543307,"duration":"0.14"},{"name":"D6","midi":86,"time":"344.28","velocity":0.25196850393700787,"duration":"0.17"},{"name":"A6","midi":93,"time":"344.28","velocity":0.11023622047244094,"duration":"0.05"},{"name":"F#5","midi":78,"time":"344.30","velocity":0.14173228346456693,"duration":"0.05"},{"name":"G7","midi":103,"time":"344.30","velocity":0.08661417322834646,"duration":"0.05"},{"name":"A#3","midi":58,"time":"344.33","velocity":0.33858267716535434,"duration":"0.02"},{"name":"C#5","midi":73,"time":"344.33","velocity":0.36220472440944884,"duration":"0.09"},{"name":"F7","midi":101,"time":"344.33","velocity":0.2204724409448819,"duration":"0.38"},{"name":"D#5","midi":75,"time":"344.34","velocity":0.28346456692913385,"duration":"0.10"},{"name":"C7","midi":96,"time":"344.35","velocity":0.07086614173228346,"duration":"0.05"},{"name":"F#5","midi":78,"time":"344.36","velocity":0.07874015748031496,"duration":"0.03"},{"name":"A#5","midi":82,"time":"344.36","velocity":0.11023622047244094,"duration":"0.06"},{"name":"B3","midi":59,"time":"344.37","velocity":0.28346456692913385,"duration":"0.06"},{"name":"F#6","midi":90,"time":"344.37","velocity":0.18110236220472442,"duration":"0.20"},{"name":"A6","midi":93,"time":"344.41","velocity":0.13385826771653545,"duration":"0.08"},{"name":"F2","midi":41,"time":"344.42","velocity":0.5984251968503937,"duration":"0.01"},{"name":"E2","midi":40,"time":"344.43","velocity":0.5905511811023622,"duration":"0.01"},{"name":"B2","midi":47,"time":"344.43","velocity":0.5590551181102362,"duration":"0.01"},{"name":"A4","midi":69,"time":"344.43","velocity":0.36220472440944884,"duration":"0.03"},{"name":"C#5","midi":73,"time":"344.43","velocity":0.44881889763779526,"duration":"0.30"},{"name":"G5","midi":79,"time":"344.43","velocity":0.3779527559055118,"duration":"0.05"},{"name":"A#6","midi":94,"time":"344.43","velocity":0.13385826771653545,"duration":"0.08"},{"name":"G7","midi":103,"time":"344.43","velocity":0.2125984251968504,"duration":"0.08"},{"name":"C#2","midi":37,"time":"344.44","velocity":0.6220472440944882,"duration":"0.01"},{"name":"E3","midi":52,"time":"344.44","velocity":0.5826771653543307,"duration":"0.01"},{"name":"C4","midi":60,"time":"344.44","velocity":0.2677165354330709,"duration":"0.02"},{"name":"D5","midi":74,"time":"344.44","velocity":0.2992125984251969,"duration":"0.02"},{"name":"F6","midi":89,"time":"344.44","velocity":0.2440944881889764,"duration":"0.05"},{"name":"E7","midi":100,"time":"344.44","velocity":0.1968503937007874,"duration":"0.03"},{"name":"E2","midi":40,"time":"344.45","velocity":0.6062992125984252,"duration":"0.01"},{"name":"F3","midi":53,"time":"344.45","velocity":0.6062992125984252,"duration":"0.02"},{"name":"C#4","midi":61,"time":"344.47","velocity":0.30708661417322836,"duration":"0.02"},{"name":"E4","midi":64,"time":"344.47","velocity":0.4409448818897638,"duration":"0.33"},{"name":"G#5","midi":80,"time":"344.47","velocity":0.4881889763779528,"duration":"0.35"},{"name":"D6","midi":86,"time":"344.47","velocity":0.25196850393700787,"duration":"0.08"},{"name":"F1","midi":29,"time":"344.48","velocity":0.6141732283464567,"duration":"0.03"},{"name":"F#3","midi":54,"time":"344.48","velocity":0.5039370078740157,"duration":"0.02"},{"name":"G4","midi":67,"time":"344.49","velocity":0.2283464566929134,"duration":"0.03"},{"name":"D#5","midi":75,"time":"344.49","velocity":0.2283464566929134,"duration":"0.06"},{"name":"F3","midi":53,"time":"344.50","velocity":0.5275590551181102,"duration":"0.02"},{"name":"C#4","midi":61,"time":"344.50","velocity":0.29133858267716534,"duration":"0.05"},{"name":"A#4","midi":70,"time":"344.50","velocity":0.2755905511811024,"duration":"0.03"},{"name":"F2","midi":41,"time":"344.51","velocity":0.5984251968503937,"duration":"0.01"},{"name":"F#2","midi":42,"time":"344.52","velocity":0.5669291338582677,"duration":"0.02"},{"name":"G7","midi":103,"time":"344.52","velocity":0.12598425196850394,"duration":"0.13"},{"name":"F#5","midi":78,"time":"344.53","velocity":0.11023622047244094,"duration":"0.03"},{"name":"A#6","midi":94,"time":"344.53","velocity":0.14173228346456693,"duration":"0.07"},{"name":"C7","midi":96,"time":"344.53","velocity":0.07874015748031496,"duration":"0.03"},{"name":"F2","midi":41,"time":"344.55","velocity":0.5511811023622047,"duration":"0.02"},{"name":"G#4","midi":68,"time":"344.55","velocity":0.5196850393700787,"duration":"0.29"},{"name":"D#7","midi":99,"time":"344.55","velocity":0.1889763779527559,"duration":"0.05"},{"name":"B4","midi":71,"time":"344.56","velocity":0.1732283464566929,"duration":"0.03"},{"name":"D#5","midi":75,"time":"344.56","velocity":0.15748031496062992,"duration":"0.06"},{"name":"D6","midi":86,"time":"344.56","velocity":0.31496062992125984,"duration":"0.16"},{"name":"F#2","midi":42,"time":"344.57","velocity":0.5511811023622047,"duration":"0.24"},{"name":"F#5","midi":78,"time":"344.59","velocity":0.11023622047244094,"duration":"0.09"},{"name":"F6","midi":89,"time":"344.59","velocity":0.18110236220472442,"duration":"0.12"},{"name":"B4","midi":71,"time":"344.60","velocity":0.36220472440944884,"duration":"0.22"},{"name":"F#7","midi":102,"time":"344.60","velocity":0.08661417322834646,"duration":"0.06"},{"name":"F3","midi":53,"time":"344.62","velocity":0.5354330708661418,"duration":"0.02"},{"name":"C#4","midi":61,"time":"344.63","velocity":0.25984251968503935,"duration":"0.02"},{"name":"A6","midi":93,"time":"344.63","velocity":0.11023622047244094,"duration":"0.03"},{"name":"D#7","midi":99,"time":"344.63","velocity":0.09448818897637795,"duration":"0.05"},{"name":"A#5","midi":82,"time":"344.64","velocity":0.11811023622047244,"duration":"0.08"},{"name":"G6","midi":91,"time":"344.66","velocity":0.10236220472440945,"duration":"0.06"},{"name":"F3","midi":53,"time":"344.67","velocity":0.5590551181102362,"duration":"0.03"},{"name":"C#4","midi":61,"time":"344.70","velocity":0.33858267716535434,"duration":"0.10"},{"name":"F#7","midi":102,"time":"344.70","velocity":0.1732283464566929,"duration":"0.26"},{"name":"F3","midi":53,"time":"344.73","velocity":0.5748031496062992,"duration":"0.02"},{"name":"D6","midi":86,"time":"344.73","velocity":0.2992125984251969,"duration":"0.03"},{"name":"C#5","midi":73,"time":"344.74","velocity":0.5118110236220472,"duration":"0.20"},{"name":"F#6","midi":90,"time":"344.74","velocity":0.25984251968503935,"duration":"0.12"},{"name":"D#7","midi":99,"time":"344.74","velocity":0.1889763779527559,"duration":"0.22"},{"name":"E3","midi":52,"time":"344.76","velocity":0.3779527559055118,"duration":"0.02"},{"name":"F6","midi":89,"time":"344.76","velocity":0.1732283464566929,"duration":"0.05"},{"name":"F3","midi":53,"time":"344.78","velocity":0.5118110236220472,"duration":"0.02"},{"name":"A#6","midi":94,"time":"344.78","velocity":0.09448818897637795,"duration":"0.03"},{"name":"F7","midi":101,"time":"344.78","velocity":0.33070866141732286,"duration":"0.94"},{"name":"G#3","midi":56,"time":"344.80","velocity":0.44881889763779526,"duration":"0.02"},{"name":"E5","midi":76,"time":"344.80","velocity":0.44881889763779526,"duration":"0.02"},{"name":"G6","midi":91,"time":"344.80","velocity":0.2125984251968504,"duration":"0.10"},{"name":"A6","midi":93,"time":"344.80","velocity":0.2755905511811024,"duration":"0.05"},{"name":"C7","midi":96,"time":"344.80","velocity":0.28346456692913385,"duration":"0.16"},{"name":"G2","midi":43,"time":"344.81","velocity":0.5433070866141733,"duration":"0.01"},{"name":"B3","midi":59,"time":"344.81","velocity":0.4330708661417323,"duration":"0.02"},{"name":"E4","midi":64,"time":"344.81","velocity":0.4881889763779528,"duration":"0.02"},{"name":"D6","midi":86,"time":"344.81","velocity":0.2125984251968504,"duration":"0.19"},{"name":"F6","midi":89,"time":"344.81","velocity":0.16535433070866143,"duration":"0.03"},{"name":"D7","midi":98,"time":"344.81","velocity":0.3464566929133858,"duration":"0.35"},{"name":"E7","midi":100,"time":"344.81","velocity":0.15748031496062992,"duration":"0.10"},{"name":"G7","midi":103,"time":"344.81","velocity":0.25196850393700787,"duration":"0.13"},{"name":"G#2","midi":44,"time":"344.83","velocity":0.5118110236220472,"duration":"0.01"},{"name":"G3","midi":55,"time":"344.83","velocity":0.4881889763779528,"duration":"0.03"},{"name":"F#4","midi":66,"time":"344.83","velocity":0.3779527559055118,"duration":"0.02"},{"name":"F5","midi":77,"time":"344.83","velocity":0.4566929133858268,"duration":"0.02"},{"name":"G#5","midi":80,"time":"344.83","velocity":0.5354330708661418,"duration":"0.79"},{"name":"A#5","midi":82,"time":"344.83","velocity":0.28346456692913385,"duration":"0.14"},{"name":"E6","midi":88,"time":"344.83","velocity":0.2283464566929134,"duration":"0.05"},{"name":"D#4","midi":63,"time":"344.84","velocity":0.3543307086614173,"duration":"0.02"},{"name":"A4","midi":69,"time":"344.84","velocity":0.5118110236220472,"duration":"0.03"},{"name":"C6","midi":84,"time":"344.84","velocity":0.30708661417322836,"duration":"0.15"},{"name":"F#2","midi":42,"time":"344.85","velocity":0.5511811023622047,"duration":"0.31"},{"name":"C#4","midi":61,"time":"344.85","velocity":0.4094488188976378,"duration":"0.05"},{"name":"F4","midi":65,"time":"344.85","velocity":0.4330708661417323,"duration":"0.03"},{"name":"E5","midi":76,"time":"344.85","velocity":0.3543307086614173,"duration":"0.38"},{"name":"B4","midi":71,"time":"344.86","velocity":0.3543307086614173,"duration":"0.03"},{"name":"G#4","midi":68,"time":"344.87","velocity":0.4409448818897638,"duration":"0.38"},{"name":"F6","midi":89,"time":"344.87","velocity":0.25196850393700787,"duration":"0.13"},{"name":"A6","midi":93,"time":"344.87","velocity":0.2125984251968504,"duration":"0.08"},{"name":"A#3","midi":58,"time":"344.88","velocity":0.3858267716535433,"duration":"0.02"},{"name":"F#6","midi":90,"time":"344.88","velocity":0.16535433070866143,"duration":"0.08"},{"name":"C#4","midi":61,"time":"344.91","velocity":0.3543307086614173,"duration":"0.07"},{"name":"E4","midi":64,"time":"344.91","velocity":0.36220472440944884,"duration":"0.07"},{"name":"F5","midi":77,"time":"344.94","velocity":0.3228346456692913,"duration":"0.06"},{"name":"C#5","midi":73,"time":"344.95","velocity":0.4251968503937008,"duration":"0.38"},{"name":"A6","midi":93,"time":"344.97","velocity":0.10236220472440945,"duration":"0.05"},{"name":"F#7","midi":102,"time":"344.97","velocity":0.1889763779527559,"duration":"0.08"},{"name":"A#3","midi":58,"time":"344.98","velocity":0.3700787401574803,"duration":"0.03"},{"name":"E4","midi":64,"time":"344.99","velocity":0.2440944881889764,"duration":"0.02"},{"name":"A#5","midi":82,"time":"344.99","velocity":0.1732283464566929,"duration":"0.08"},{"name":"F#6","midi":90,"time":"345.00","velocity":0.2047244094488189,"duration":"0.35"},{"name":"C#4","midi":61,"time":"345.01","velocity":0.33858267716535434,"duration":"0.05"},{"name":"F3","midi":53,"time":"345.02","velocity":0.5196850393700787,"duration":"0.01"},{"name":"B4","midi":71,"time":"345.02","velocity":0.2047244094488189,"duration":"0.05"},{"name":"B5","midi":83,"time":"345.03","velocity":0.2755905511811024,"duration":"0.07"},{"name":"C6","midi":84,"time":"345.03","velocity":0.30708661417322836,"duration":"0.12"},{"name":"D6","midi":86,"time":"345.03","velocity":0.14173228346456693,"duration":"0.06"},{"name":"E4","midi":64,"time":"345.05","velocity":0.3858267716535433,"duration":"0.15"},{"name":"F6","midi":89,"time":"345.06","velocity":0.2440944881889764,"duration":"0.10"},{"name":"A6","midi":93,"time":"345.07","velocity":0.09448818897637795,"duration":"0.06"},{"name":"A#3","midi":58,"time":"345.09","velocity":0.2755905511811024,"duration":"0.02"},{"name":"C#4","midi":61,"time":"345.09","velocity":0.4251968503937008,"duration":"0.21"},{"name":"A#5","midi":82,"time":"345.13","velocity":0.08661417322834646,"duration":"0.03"},{"name":"B5","midi":83,"time":"345.14","velocity":0.33070866141732286,"duration":"0.27"},{"name":"G2","midi":43,"time":"345.16","velocity":0.5669291338582677,"duration":"0.01"},{"name":"G#2","midi":44,"time":"345.17","velocity":0.5748031496062992,"duration":"0.01"},{"name":"C6","midi":84,"time":"345.17","velocity":0.2125984251968504,"duration":"0.03"},{"name":"G7","midi":103,"time":"345.17","velocity":0.23622047244094488,"duration":"0.06"},{"name":"A3","midi":57,"time":"345.19","velocity":0.4881889763779528,"duration":"0.02"},{"name":"A#4","midi":70,"time":"345.19","velocity":0.31496062992125984,"duration":"0.03"},{"name":"G6","midi":91,"time":"345.19","velocity":0.15748031496062992,"duration":"0.13"},{"name":"A6","midi":93,"time":"345.19","velocity":0.11811023622047244,"duration":"0.03"},{"name":"D7","midi":98,"time":"345.19","velocity":0.2047244094488189,"duration":"0.24"},{"name":"F6","midi":89,"time":"345.20","velocity":0.2204724409448819,"duration":"0.09"},{"name":"G3","midi":55,"time":"345.21","velocity":0.5196850393700787,"duration":"0.01"},{"name":"E4","midi":64,"time":"345.21","velocity":0.4094488188976378,"duration":"0.06"},{"name":"C7","midi":96,"time":"345.21","velocity":0.18110236220472442,"duration":"0.05"},{"name":"F2","midi":41,"time":"345.22","velocity":0.5275590551181102,"duration":"0.01"},{"name":"F#3","midi":54,"time":"345.22","velocity":0.5118110236220472,"duration":"0.10"},{"name":"F#2","midi":42,"time":"345.23","velocity":0.5669291338582677,"duration":"0.21"},{"name":"A#4","midi":70,"time":"345.23","velocity":0.25196850393700787,"duration":"0.02"},{"name":"D#5","midi":75,"time":"345.23","velocity":0.25196850393700787,"duration":"0.03"},{"name":"D#7","midi":99,"time":"345.23","velocity":0.33070866141732286,"duration":"0.28"},{"name":"C6","midi":84,"time":"345.24","velocity":0.33070866141732286,"duration":"0.05"},{"name":"A6","midi":93,"time":"345.26","velocity":0.1968503937007874,"duration":"0.06"},{"name":"E5","midi":76,"time":"345.29","velocity":0.18110236220472442,"duration":"0.03"},{"name":"C7","midi":96,"time":"345.29","velocity":0.1889763779527559,"duration":"0.16"},{"name":"D#4","midi":63,"time":"345.31","velocity":0.30708661417322836,"duration":"0.03"},{"name":"G4","midi":67,"time":"345.31","velocity":0.2283464566929134,"duration":"0.03"},{"name":"E5","midi":76,"time":"345.34","velocity":0.14173228346456693,"duration":"0.03"},{"name":"F6","midi":89,"time":"345.34","velocity":0.14173228346456693,"duration":"0.08"},{"name":"G#4","midi":68,"time":"345.35","velocity":0.31496062992125984,"duration":"0.03"},{"name":"F#7","midi":102,"time":"345.35","velocity":0.3779527559055118,"duration":"3.66"},{"name":"C#5","midi":73,"time":"345.36","velocity":0.5511811023622047,"duration":"0.33"},{"name":"A5","midi":81,"time":"345.36","velocity":0.33070866141732286,"duration":"0.08"},{"name":"D6","midi":86,"time":"345.36","velocity":0.11811023622047244,"duration":"0.12"},{"name":"C#4","midi":61,"time":"345.37","velocity":0.33070866141732286,"duration":"0.08"},{"name":"G4","midi":67,"time":"345.38","velocity":0.3858267716535433,"duration":"0.02"},{"name":"F#6","midi":90,"time":"345.38","velocity":0.16535433070866143,"duration":"0.05"},{"name":"F#4","midi":66,"time":"345.41","velocity":0.4409448818897638,"duration":"0.17"},{"name":"C6","midi":84,"time":"345.41","velocity":0.11023622047244094,"duration":"0.03"},{"name":"B6","midi":95,"time":"345.41","velocity":0.18110236220472442,"duration":"0.21"},{"name":"E6","midi":88,"time":"345.42","velocity":0.2047244094488189,"duration":"0.07"},{"name":"A#5","midi":82,"time":"345.43","velocity":0.2755905511811024,"duration":"0.03"},{"name":"F2","midi":41,"time":"345.44","velocity":0.5511811023622047,"duration":"0.03"},{"name":"F#6","midi":90,"time":"345.44","velocity":0.1968503937007874,"duration":"0.05"},{"name":"D4","midi":62,"time":"345.45","velocity":0.2755905511811024,"duration":"0.02"},{"name":"A5","midi":81,"time":"345.45","velocity":0.2992125984251969,"duration":"0.09"},{"name":"C6","midi":84,"time":"345.45","velocity":0.2440944881889764,"duration":"0.10"},{"name":"F6","midi":89,"time":"345.45","velocity":0.2440944881889764,"duration":"0.06"},{"name":"A4","midi":69,"time":"345.47","velocity":0.36220472440944884,"duration":"0.12"},{"name":"E2","midi":40,"time":"345.48","velocity":0.5433070866141733,"duration":"0.05"},{"name":"C#4","midi":61,"time":"345.49","velocity":0.3464566929133858,"duration":"0.03"},{"name":"D7","midi":98,"time":"345.49","velocity":0.1889763779527559,"duration":"0.21"},{"name":"D#3","midi":51,"time":"345.50","velocity":0.3543307086614173,"duration":"0.02"},{"name":"A3","midi":57,"time":"345.51","velocity":0.3464566929133858,"duration":"0.03"},{"name":"A#6","midi":94,"time":"345.51","velocity":0.2047244094488189,"duration":"0.09"},{"name":"D#2","midi":39,"time":"345.52","velocity":0.5354330708661418,"duration":"0.02"},{"name":"E6","midi":88,"time":"345.52","velocity":0.31496062992125984,"duration":"0.72"},{"name":"D#7","midi":99,"time":"345.53","velocity":0.2204724409448819,"duration":"0.06"},{"name":"A#5","midi":82,"time":"345.55","velocity":0.3228346456692913,"duration":"0.07"},{"name":"D#2","midi":39,"time":"345.56","velocity":0.5905511811023622,"duration":"0.01"},{"name":"B2","midi":47,"time":"345.56","velocity":0.5590551181102362,"duration":"0.01"},{"name":"B4","midi":71,"time":"345.56","velocity":0.2992125984251969,"duration":"0.03"},{"name":"A6","midi":93,"time":"345.56","velocity":0.2755905511811024,"duration":"0.34"},{"name":"G7","midi":103,"time":"345.56","velocity":0.1889763779527559,"duration":"0.12"},{"name":"G#2","midi":44,"time":"345.57","velocity":0.6456692913385826,"duration":"0.02"},{"name":"C4","midi":60,"time":"345.57","velocity":0.4251968503937008,"duration":"0.02"},{"name":"E5","midi":76,"time":"345.57","velocity":0.3228346456692913,"duration":"0.05"},{"name":"D6","midi":86,"time":"345.57","velocity":0.25196850393700787,"duration":"0.03"},{"name":"C6","midi":84,"time":"345.58","velocity":0.2677165354330709,"duration":"0.10"},{"name":"A2","midi":45,"time":"345.59","velocity":0.5669291338582677,"duration":"0.01"},{"name":"G3","midi":55,"time":"345.59","velocity":0.5118110236220472,"duration":"0.01"},{"name":"C#4","midi":61,"time":"345.59","velocity":0.4015748031496063,"duration":"0.02"},{"name":"B2","midi":47,"time":"345.60","velocity":0.5354330708661418,"duration":"0.01"},{"name":"F3","midi":53,"time":"345.60","velocity":0.5196850393700787,"duration":"0.01"},{"name":"F#4","midi":66,"time":"345.60","velocity":0.3464566929133858,"duration":"0.23"},{"name":"A4","midi":69,"time":"345.60","velocity":0.3779527559055118,"duration":"0.17"},{"name":"D#6","midi":87,"time":"345.60","velocity":0.16535433070866143,"duration":"0.06"},{"name":"A#2","midi":46,"time":"345.62","velocity":0.5354330708661418,"duration":"0.01"},{"name":"F#3","midi":54,"time":"345.62","velocity":0.5354330708661418,"duration":"0.09"},{"name":"D4","midi":62,"time":"345.62","velocity":0.4251968503937008,"duration":"0.34"},{"name":"B5","midi":83,"time":"345.62","velocity":0.2283464566929134,"duration":"0.05"},{"name":"B2","midi":47,"time":"345.63","velocity":0.6062992125984252,"duration":"0.01"},{"name":"B4","midi":71,"time":"345.63","velocity":0.48031496062992124,"duration":"0.30"},{"name":"G#5","midi":80,"time":"345.63","velocity":0.2677165354330709,"duration":"0.08"},{"name":"D6","midi":86,"time":"345.63","velocity":0.3228346456692913,"duration":"0.22"},{"name":"C3","midi":48,"time":"345.64","velocity":0.5669291338582677,"duration":"0.01"},{"name":"D#5","midi":75,"time":"345.65","velocity":0.12598425196850394,"duration":"0.03"},{"name":"B2","midi":47,"time":"345.67","velocity":0.5118110236220472,"duration":"0.02"},{"name":"A#2","midi":46,"time":"345.70","velocity":0.5196850393700787,"duration":"0.01"},{"name":"F6","midi":89,"time":"345.70","velocity":0.16535433070866143,"duration":"0.05"},{"name":"A#6","midi":94,"time":"345.70","velocity":0.14173228346456693,"duration":"0.12"},{"name":"D#7","midi":99,"time":"345.70","velocity":0.14173228346456693,"duration":"0.13"},{"name":"B2","midi":47,"time":"345.71","velocity":0.5669291338582677,"duration":"0.24"},{"name":"F#3","midi":54,"time":"345.72","velocity":0.47244094488188976,"duration":"0.23"},{"name":"C6","midi":84,"time":"345.72","velocity":0.25196850393700787,"duration":"0.07"},{"name":"G#5","midi":80,"time":"345.73","velocity":0.13385826771653545,"duration":"0.06"},{"name":"G7","midi":103,"time":"345.73","velocity":0.12598425196850394,"duration":"0.05"},{"name":"C#5","midi":73,"time":"345.74","velocity":0.2677165354330709,"duration":"0.02"},{"name":"F5","midi":77,"time":"345.76","velocity":0.1889763779527559,"duration":"0.03"},{"name":"F7","midi":101,"time":"345.77","velocity":0.11023622047244094,"duration":"0.07"},{"name":"C#5","midi":73,"time":"345.80","velocity":0.3464566929133858,"duration":"0.05"},{"name":"G#5","midi":80,"time":"345.80","velocity":0.18110236220472442,"duration":"0.13"},{"name":"G7","midi":103,"time":"345.80","velocity":0.1968503937007874,"duration":"0.09"},{"name":"B1","midi":35,"time":"345.81","velocity":0.31496062992125984,"duration":"0.02"},{"name":"A#6","midi":94,"time":"345.83","velocity":0.1889763779527559,"duration":"0.26"},{"name":"D#6","midi":87,"time":"345.85","velocity":0.12598425196850394,"duration":"0.05"},{"name":"G6","midi":91,"time":"345.85","velocity":0.09448818897637795,"duration":"0.06"},{"name":"C#5","midi":73,"time":"345.86","velocity":0.33858267716535434,"duration":"0.03"},{"name":"C6","midi":84,"time":"345.88","velocity":0.3228346456692913,"duration":"0.03"},{"name":"D6","midi":86,"time":"345.90","velocity":0.33858267716535434,"duration":"0.47"},{"name":"A4","midi":69,"time":"345.91","velocity":0.2204724409448819,"duration":"0.06"},{"name":"C#5","midi":73,"time":"345.91","velocity":0.4015748031496063,"duration":"0.09"},{"name":"G7","midi":103,"time":"345.91","velocity":0.25196850393700787,"duration":"0.19"},{"name":"C#7","midi":97,"time":"345.93","velocity":0.29133858267716534,"duration":"0.71"},{"name":"D#7","midi":99,"time":"345.93","velocity":0.2125984251968504,"duration":"0.31"},{"name":"G#5","midi":80,"time":"345.94","velocity":0.2204724409448819,"duration":"0.03"},{"name":"D#6","midi":87,"time":"345.94","velocity":0.13385826771653545,"duration":"0.03"},{"name":"F7","midi":101,"time":"345.94","velocity":0.2992125984251969,"duration":"0.29"},{"name":"C3","midi":48,"time":"345.95","velocity":0.5039370078740157,"duration":"0.02"},{"name":"E5","midi":76,"time":"345.95","velocity":0.2283464566929134,"duration":"0.02"},{"name":"D4","midi":62,"time":"345.97","velocity":0.4566929133858268,"duration":"0.29"},{"name":"G4","midi":67,"time":"345.97","velocity":0.2283464566929134,"duration":"0.03"},{"name":"B4","midi":71,"time":"345.97","velocity":0.28346456692913385,"duration":"0.05"},{"name":"C6","midi":84,"time":"345.98","velocity":0.2677165354330709,"duration":"0.05"},{"name":"G6","midi":91,"time":"345.98","velocity":0.18110236220472442,"duration":"0.13"},{"name":"G#6","midi":92,"time":"345.98","velocity":0.2204724409448819,"duration":"0.09"},{"name":"C7","midi":96,"time":"345.98","velocity":0.33070866141732286,"duration":"0.55"},{"name":"A4","midi":69,"time":"345.99","velocity":0.4251968503937008,"duration":"0.16"},{"name":"B2","midi":47,"time":"346.00","velocity":0.5118110236220472,"duration":"0.07"},{"name":"F#3","midi":54,"time":"346.00","velocity":0.5118110236220472,"duration":"0.30"},{"name":"G#5","midi":80,"time":"346.02","velocity":0.2204724409448819,"duration":"0.09"},{"name":"B4","midi":71,"time":"346.03","velocity":0.4330708661417323,"duration":"0.07"},{"name":"C6","midi":84,"time":"346.06","velocity":0.25984251968503935,"duration":"0.05"},{"name":"B2","midi":47,"time":"346.08","velocity":0.5118110236220472,"duration":"0.02"},{"name":"C#6","midi":85,"time":"346.08","velocity":0.2204724409448819,"duration":"0.16"},{"name":"G#6","midi":92,"time":"346.09","velocity":0.3779527559055118,"duration":"0.58"},{"name":"G7","midi":103,"time":"346.10","velocity":0.2283464566929134,"duration":"0.16"},{"name":"B2","midi":47,"time":"346.12","velocity":0.5275590551181102,"duration":"0.07"},{"name":"B4","midi":71,"time":"346.13","velocity":0.47244094488188976,"duration":"0.15"},{"name":"C#5","midi":73,"time":"346.13","velocity":0.2204724409448819,"duration":"0.03"},{"name":"C6","midi":84,"time":"346.13","velocity":0.3228346456692913,"duration":"0.05"},{"name":"A4","midi":69,"time":"346.16","velocity":0.31496062992125984,"duration":"0.05"},{"name":"B1","midi":35,"time":"346.17","velocity":0.30708661417322836,"duration":"0.08"},{"name":"G6","midi":91,"time":"346.17","velocity":0.14960629921259844,"duration":"0.03"},{"name":"A#2","midi":46,"time":"346.19","velocity":0.5118110236220472,"duration":"0.01"},{"name":"B2","midi":47,"time":"346.20","velocity":0.5511811023622047,"duration":"0.02"},{"name":"F6","midi":89,"time":"346.20","velocity":0.1889763779527559,"duration":"0.07"},{"name":"A#6","midi":94,"time":"346.20","velocity":0.13385826771653545,"duration":"0.06"},{"name":"B3","midi":59,"time":"346.22","velocity":0.36220472440944884,"duration":"0.08"},{"name":"G6","midi":91,"time":"346.22","velocity":0.16535433070866143,"duration":"0.06"},{"name":"B2","midi":47,"time":"346.23","velocity":0.5433070866141733,"duration":"0.03"},{"name":"A#5","midi":82,"time":"346.24","velocity":0.2204724409448819,"duration":"0.06"},{"name":"A#2","midi":46,"time":"346.27","velocity":0.5196850393700787,"duration":"0.01"},{"name":"D4","midi":62,"time":"346.27","velocity":0.4015748031496063,"duration":"0.06"},{"name":"A4","midi":69,"time":"346.27","velocity":0.31496062992125984,"duration":"0.06"},{"name":"C3","midi":48,"time":"346.28","velocity":0.5669291338582677,"duration":"0.01"},{"name":"F6","midi":89,"time":"346.28","velocity":0.2755905511811024,"duration":"0.34"},{"name":"B4","midi":71,"time":"346.29","velocity":0.49606299212598426,"duration":"0.06"},{"name":"A5","midi":81,"time":"346.29","velocity":0.4015748031496063,"duration":"0.23"},{"name":"C#6","midi":85,"time":"346.29","velocity":0.12598425196850394,"duration":"0.05"},{"name":"G6","midi":91,"time":"346.29","velocity":0.11811023622047244,"duration":"0.03"},{"name":"D#7","midi":99,"time":"346.29","velocity":0.2283464566929134,"duration":"0.56"},{"name":"G7","midi":103,"time":"346.29","velocity":0.25196850393700787,"duration":"0.16"},{"name":"F#3","midi":54,"time":"346.31","velocity":0.4881889763779528,"duration":"0.02"},{"name":"A#6","midi":94,"time":"346.31","velocity":0.2992125984251969,"duration":"0.09"},{"name":"C4","midi":60,"time":"346.33","velocity":0.49606299212598426,"duration":"0.02"},{"name":"D#4","midi":63,"time":"346.33","velocity":0.5039370078740157,"duration":"0.03"},{"name":"E5","midi":76,"time":"346.33","velocity":0.44881889763779526,"duration":"0.05"},{"name":"C6","midi":84,"time":"346.33","velocity":0.30708661417322836,"duration":"0.05"},{"name":"E7","midi":100,"time":"346.33","velocity":0.25196850393700787,"duration":"0.27"},{"name":"A4","midi":69,"time":"346.34","velocity":0.49606299212598426,"duration":"0.05"},{"name":"G6","midi":91,"time":"346.34","velocity":0.15748031496062992,"duration":"0.05"},{"name":"C#6","midi":85,"time":"346.35","velocity":0.1732283464566929,"duration":"0.08"},{"name":"C#4","midi":61,"time":"346.36","velocity":0.3700787401574803,"duration":"0.03"},{"name":"G#5","midi":80,"time":"346.36","velocity":0.2125984251968504,"duration":"0.05"},{"name":"D#6","midi":87,"time":"346.36","velocity":0.16535433070866143,"duration":"0.03"},{"name":"B2","midi":47,"time":"346.37","velocity":0.5590551181102362,"duration":"0.06"},{"name":"F4","midi":65,"time":"346.37","velocity":0.3937007874015748,"duration":"0.03"},{"name":"A#4","midi":70,"time":"346.37","velocity":0.3700787401574803,"duration":"0.02"},{"name":"D6","midi":86,"time":"346.37","velocity":0.2992125984251969,"duration":"0.09"},{"name":"E6","midi":88,"time":"346.37","velocity":0.2755905511811024,"duration":"0.31"},{"name":"F#3","midi":54,"time":"346.38","velocity":0.49606299212598426,"duration":"0.22"},{"name":"B4","midi":71,"time":"346.40","velocity":0.4251968503937008,"duration":"0.07"},{"name":"A#5","midi":82,"time":"346.40","velocity":0.3464566929133858,"duration":"0.05"},{"name":"E5","midi":76,"time":"346.41","velocity":0.2677165354330709,"duration":"0.05"},{"name":"D#6","midi":87,"time":"346.41","velocity":0.15748031496062992,"duration":"0.05"},{"name":"G6","midi":91,"time":"346.41","velocity":0.07874015748031496,"duration":"0.03"},{"name":"G#4","midi":68,"time":"346.42","velocity":0.3700787401574803,"duration":"0.02"},{"name":"C#5","midi":73,"time":"346.42","velocity":0.41732283464566927,"duration":"0.13"},{"name":"B2","midi":47,"time":"346.44","velocity":0.5511811023622047,"duration":"0.03"},{"name":"A#3","midi":58,"time":"346.44","velocity":0.3858267716535433,"duration":"0.03"},{"name":"A#5","midi":82,"time":"346.45","velocity":0.4015748031496063,"duration":"0.13"},{"name":"G6","midi":91,"time":"346.45","velocity":0.12598425196850394,"duration":"0.05"},{"name":"A4","midi":69,"time":"346.47","velocity":0.28346456692913385,"duration":"0.02"},{"name":"D#6","midi":87,"time":"346.47","velocity":0.1889763779527559,"duration":"0.03"},{"name":"G7","midi":103,"time":"346.47","velocity":0.15748031496062992,"duration":"0.05"},{"name":"A#2","midi":46,"time":"346.48","velocity":0.5275590551181102,"duration":"0.01"},{"name":"E5","midi":76,"time":"346.48","velocity":0.1889763779527559,"duration":"0.05"},{"name":"B2","midi":47,"time":"346.49","velocity":0.5511811023622047,"duration":"0.02"},{"name":"D4","midi":62,"time":"346.49","velocity":0.3543307086614173,"duration":"0.03"},{"name":"G#5","midi":80,"time":"346.50","velocity":0.23622047244094488,"duration":"0.02"},{"name":"B5","midi":83,"time":"346.50","velocity":0.4094488188976378,"duration":"0.10"},{"name":"D6","midi":86,"time":"346.50","velocity":0.33070866141732286,"duration":"0.47"},{"name":"B2","midi":47,"time":"346.52","velocity":0.5433070866141733,"duration":"0.03"},{"name":"G#4","midi":68,"time":"346.52","velocity":0.29133858267716534,"duration":"0.02"},{"name":"B4","midi":71,"time":"346.52","velocity":0.5196850393700787,"duration":"0.29"},{"name":"A#1","midi":34,"time":"346.53","velocity":0.30708661417322836,"duration":"0.02"},{"name":"A#3","midi":58,"time":"346.53","velocity":0.3779527559055118,"duration":"0.02"},{"name":"D4","midi":62,"time":"346.53","velocity":0.3700787401574803,"duration":"0.05"},{"name":"D#6","midi":87,"time":"346.53","velocity":0.2204724409448819,"duration":"0.05"},{"name":"C7","midi":96,"time":"346.53","velocity":0.1968503937007874,"duration":"0.07"},{"name":"G7","midi":103,"time":"346.53","velocity":0.11023622047244094,"duration":"0.03"},{"name":"D5","midi":74,"time":"346.55","velocity":0.3700787401574803,"duration":"0.51"},{"name":"E5","midi":76,"time":"346.55","velocity":0.14960629921259844,"duration":"0.03"},{"name":"B1","midi":35,"time":"346.56","velocity":0.33858267716535434,"duration":"0.05"},{"name":"A#2","midi":46,"time":"346.56","velocity":0.5196850393700787,"duration":"0.01"},{"name":"A5","midi":81,"time":"346.56","velocity":0.3543307086614173,"duration":"0.06"},{"name":"G6","midi":91,"time":"346.56","velocity":0.1732283464566929,"duration":"0.08"},{"name":"B2","midi":47,"time":"346.57","velocity":0.5511811023622047,"duration":"0.02"},{"name":"A#3","midi":58,"time":"346.58","velocity":0.4251968503937008,"duration":"0.02"},{"name":"A#5","midi":82,"time":"346.59","velocity":0.3543307086614173,"duration":"0.20"},{"name":"A#1","midi":34,"time":"346.60","velocity":0.28346456692913385,"duration":"0.02"},{"name":"B2","midi":47,"time":"346.60","velocity":0.5669291338582677,"duration":"0.03"},{"name":"D4","midi":62,"time":"346.62","velocity":0.3700787401574803,"duration":"0.05"},{"name":"C#6","midi":85,"time":"346.62","velocity":0.25984251968503935,"duration":"0.16"},{"name":"B1","midi":35,"time":"346.64","velocity":0.33070866141732286,"duration":"0.03"},{"name":"A#2","midi":46,"time":"346.64","velocity":0.5354330708661418,"duration":"0.01"},{"name":"B3","midi":59,"time":"346.64","velocity":0.4251968503937008,"duration":"0.06"},{"name":"A6","midi":93,"time":"346.64","velocity":0.25984251968503935,"duration":"0.19"},{"name":"C7","midi":96,"time":"346.64","velocity":0.1968503937007874,"duration":"0.40"},{"name":"B2","midi":47,"time":"346.65","velocity":0.5748031496062992,"duration":"0.05"},{"name":"F#3","midi":54,"time":"346.65","velocity":0.48031496062992124,"duration":"0.05"},{"name":"D4","midi":62,"time":"346.67","velocity":0.3858267716535433,"duration":"0.03"},{"name":"B1","midi":35,"time":"346.69","velocity":0.36220472440944884,"duration":"0.02"},{"name":"F6","midi":89,"time":"346.70","velocity":0.2204724409448819,"duration":"0.03"},{"name":"G7","midi":103,"time":"346.70","velocity":0.2283464566929134,"duration":"0.06"},{"name":"C#3","midi":49,"time":"346.71","velocity":0.5039370078740157,"duration":"0.03"},{"name":"D#4","midi":63,"time":"346.71","velocity":0.3543307086614173,"duration":"0.03"},{"name":"G#6","midi":92,"time":"346.71","velocity":0.2047244094488189,"duration":"0.10"},{"name":"E6","midi":88,"time":"346.72","velocity":0.1889763779527559,"duration":"0.09"},{"name":"G6","midi":91,"time":"346.72","velocity":0.08661417322834646,"duration":"0.03"},{"name":"A4","midi":69,"time":"346.73","velocity":0.47244094488188976,"duration":"0.03"},{"name":"B2","midi":47,"time":"346.74","velocity":0.5748031496062992,"duration":"0.21"},{"name":"F#3","midi":54,"time":"346.74","velocity":0.4645669291338583,"duration":"0.20"},{"name":"D4","midi":62,"time":"346.74","velocity":0.4330708661417323,"duration":"0.17"},{"name":"F6","midi":89,"time":"346.74","velocity":0.2204724409448819,"duration":"0.08"},{"name":"F#5","midi":78,"time":"346.76","velocity":0.41732283464566927,"duration":"0.35"},{"name":"E5","midi":76,"time":"346.77","velocity":0.11811023622047244,"duration":"0.05"},{"name":"A4","midi":69,"time":"346.80","velocity":0.4330708661417323,"duration":"0.08"},{"name":"G#5","midi":80,"time":"346.80","velocity":0.07086614173228346,"duration":"0.07"},{"name":"A#5","midi":82,"time":"346.80","velocity":0.33070866141732286,"duration":"0.09"},{"name":"C6","midi":84,"time":"346.80","velocity":0.25984251968503935,"duration":"0.03"},{"name":"C#7","midi":97,"time":"346.81","velocity":0.16535433070866143,"duration":"0.16"},{"name":"G7","midi":103,"time":"346.81","velocity":0.13385826771653545,"duration":"0.05"},{"name":"G#1","midi":32,"time":"346.83","velocity":0.29133858267716534,"duration":"0.02"},{"name":"E6","midi":88,"time":"346.83","velocity":0.14173228346456693,"duration":"0.03"},{"name":"G#6","midi":92,"time":"346.83","velocity":0.12598425196850394,"duration":"0.05"},{"name":"A6","midi":93,"time":"346.84","velocity":0.2440944881889764,"duration":"0.62"},{"name":"B4","midi":71,"time":"346.86","velocity":0.47244094488188976,"duration":"0.16"},{"name":"A1","midi":33,"time":"346.87","velocity":0.25984251968503935,"duration":"0.02"},{"name":"C#6","midi":85,"time":"346.87","velocity":0.11811023622047244,"duration":"0.12"},{"name":"D#7","midi":99,"time":"346.87","velocity":0.12598425196850394,"duration":"0.03"},{"name":"A5","midi":81,"time":"346.88","velocity":0.3700787401574803,"duration":"0.22"},{"name":"C6","midi":84,"time":"346.88","velocity":0.30708661417322836,"duration":"0.09"},{"name":"E6","midi":88,"time":"346.88","velocity":0.2755905511811024,"duration":"0.27"},{"name":"G6","midi":91,"time":"346.90","velocity":0.15748031496062992,"duration":"0.06"},{"name":"D4","midi":62,"time":"346.93","velocity":0.25984251968503935,"duration":"0.03"},{"name":"G#6","midi":92,"time":"346.93","velocity":0.16535433070866143,"duration":"0.13"},{"name":"D#6","midi":87,"time":"346.94","velocity":0.2047244094488189,"duration":"0.05"},{"name":"D#7","midi":99,"time":"346.94","velocity":0.2047244094488189,"duration":"0.23"},{"name":"B1","midi":35,"time":"346.95","velocity":0.23622047244094488,"duration":"0.03"},{"name":"A#2","midi":46,"time":"346.95","velocity":0.5354330708661418,"duration":"0.01"},{"name":"B2","midi":47,"time":"346.97","velocity":0.5984251968503937,"duration":"0.10"},{"name":"F#3","midi":54,"time":"346.97","velocity":0.4094488188976378,"duration":"0.06"},{"name":"A4","midi":69,"time":"346.97","velocity":0.3543307086614173,"duration":"0.02"},{"name":"D4","midi":62,"time":"346.99","velocity":0.1889763779527559,"duration":"0.06"},{"name":"G#5","midi":80,"time":"346.99","velocity":0.1968503937007874,"duration":"0.07"},{"name":"A4","midi":69,"time":"347.00","velocity":0.33070866141732286,"duration":"0.05"},{"name":"C6","midi":84,"time":"347.00","velocity":0.2204724409448819,"duration":"0.03"},{"name":"C#7","midi":97,"time":"347.00","velocity":0.25196850393700787,"duration":"0.14"},{"name":"C#6","midi":85,"time":"347.01","velocity":0.11811023622047244,"duration":"0.05"},{"name":"B4","midi":71,"time":"347.05","velocity":0.49606299212598426,"duration":"0.06"},{"name":"G6","midi":91,"time":"347.05","velocity":0.1889763779527559,"duration":"0.05"},{"name":"F3","midi":53,"time":"347.06","velocity":0.4566929133858268,"duration":"0.02"},{"name":"C#5","midi":73,"time":"347.06","velocity":0.3543307086614173,"duration":"0.02"},{"name":"E5","midi":76,"time":"347.06","velocity":0.29133858267716534,"duration":"0.05"},{"name":"G5","midi":79,"time":"347.06","velocity":0.2755905511811024,"duration":"0.02"},{"name":"C7","midi":96,"time":"347.06","velocity":0.15748031496062992,"duration":"0.06"},{"name":"A2","midi":45,"time":"347.07","velocity":0.6456692913385826,"duration":"0.01"},{"name":"D4","midi":62,"time":"347.07","velocity":0.44881889763779526,"duration":"0.37"},{"name":"G#6","midi":92,"time":"347.07","velocity":0.1968503937007874,"duration":"0.12"},{"name":"F7","midi":101,"time":"347.07","velocity":0.25984251968503935,"duration":"0.28"},{"name":"F#2","midi":42,"time":"347.08","velocity":0.6535433070866141,"duration":"0.01"},{"name":"D#6","midi":87,"time":"347.08","velocity":0.2755905511811024,"duration":"0.03"},{"name":"G2","midi":43,"time":"347.09","velocity":0.5905511811023622,"duration":"0.01"},{"name":"G5","midi":79,"time":"347.09","velocity":0.14960629921259844,"duration":"0.03"},{"name":"G#5","midi":80,"time":"347.09","velocity":0.14960629921259844,"duration":"0.03"},{"name":"A#5","midi":82,"time":"347.09","velocity":0.14960629921259844,"duration":"0.05"},{"name":"C6","midi":84,"time":"347.09","velocity":0.23622047244094488,"duration":"0.14"},{"name":"F#1","midi":30,"time":"347.10","velocity":0.5433070866141733,"duration":"0.01"},{"name":"D3","midi":50,"time":"347.10","velocity":0.5590551181102362,"duration":"0.01"},{"name":"F#4","midi":66,"time":"347.10","velocity":0.3937007874015748,"duration":"0.34"},{"name":"F1","midi":29,"time":"347.12","velocity":0.6062992125984252,"duration":"0.01"},{"name":"C#3","midi":49,"time":"347.12","velocity":0.5590551181102362,"duration":"0.01"},{"name":"A4","midi":69,"time":"347.12","velocity":0.36220472440944884,"duration":"0.05"},{"name":"B5","midi":83,"time":"347.12","velocity":0.28346456692913385,"duration":"0.05"},{"name":"D6","midi":86,"time":"347.12","velocity":0.29133858267716534,"duration":"0.37"},{"name":"G#1","midi":32,"time":"347.13","velocity":0.5826771653543307,"duration":"0.01"},{"name":"B2","midi":47,"time":"347.13","velocity":0.5826771653543307,"duration":"0.15"},{"name":"C#5","midi":73,"time":"347.13","velocity":0.2992125984251969,"duration":"0.19"},{"name":"F6","midi":89,"time":"347.13","velocity":0.16535433070866143,"duration":"0.05"},{"name":"B1","midi":35,"time":"347.14","velocity":0.5511811023622047,"duration":"0.02"},{"name":"F#3","midi":54,"time":"347.14","velocity":0.4645669291338583,"duration":"0.15"},{"name":"B4","midi":71,"time":"347.15","velocity":0.41732283464566927,"duration":"0.06"},{"name":"C#7","midi":97,"time":"347.15","velocity":0.2204724409448819,"duration":"0.24"},{"name":"E6","midi":88,"time":"347.16","velocity":0.2677165354330709,"duration":"0.59"},{"name":"A#6","midi":94,"time":"347.16","velocity":0.08661417322834646,"duration":"0.03"},{"name":"A4","midi":69,"time":"347.17","velocity":0.4251968503937008,"duration":"0.19"},{"name":"G#6","midi":92,"time":"347.20","velocity":0.16535433070866143,"duration":"0.16"},{"name":"D#7","midi":99,"time":"347.22","velocity":0.1968503937007874,"duration":"0.31"},{"name":"G#5","midi":80,"time":"347.26","velocity":0.12598425196850394,"duration":"0.03"},{"name":"C6","midi":84,"time":"347.27","velocity":0.2440944881889764,"duration":"0.05"},{"name":"A#2","midi":46,"time":"347.28","velocity":0.5354330708661418,"duration":"0.01"},{"name":"A#5","midi":82,"time":"347.28","velocity":0.23622047244094488,"duration":"0.14"},{"name":"A#1","midi":34,"time":"347.29","velocity":0.3858267716535433,"duration":"0.02"},{"name":"B2","midi":47,"time":"347.29","velocity":0.5984251968503937,"duration":"0.17"},{"name":"B5","midi":83,"time":"347.29","velocity":0.44881889763779526,"duration":"0.62"},{"name":"G7","midi":103,"time":"347.29","velocity":0.15748031496062992,"duration":"0.03"},{"name":"F#3","midi":54,"time":"347.30","velocity":0.4330708661417323,"duration":"0.07"},{"name":"B4","midi":71,"time":"347.30","velocity":0.5196850393700787,"duration":"0.23"},{"name":"G#5","midi":80,"time":"347.30","velocity":0.13385826771653545,"duration":"0.10"},{"name":"F6","midi":89,"time":"347.30","velocity":0.11811023622047244,"duration":"0.05"},{"name":"B1","midi":35,"time":"347.31","velocity":0.28346456692913385,"duration":"0.02"},{"name":"G7","midi":103,"time":"347.36","velocity":0.2204724409448819,"duration":"0.22"},{"name":"C7","midi":96,"time":"347.37","velocity":0.14173228346456693,"duration":"0.08"},{"name":"F#3","midi":54,"time":"347.38","velocity":0.48031496062992124,"duration":"0.07"},{"name":"C#6","midi":85,"time":"347.38","velocity":0.11023622047244094,"duration":"0.06"},{"name":"G6","midi":91,"time":"347.38","velocity":0.15748031496062992,"duration":"0.03"},{"name":"A5","midi":81,"time":"347.41","velocity":0.25196850393700787,"duration":"0.03"},{"name":"F6","midi":89,"time":"347.41","velocity":0.1732283464566929,"duration":"0.07"},{"name":"F7","midi":101,"time":"347.41","velocity":0.28346456692913385,"duration":"0.33"},{"name":"G#6","midi":92,"time":"347.42","velocity":0.2283464566929134,"duration":"0.36"},{"name":"C#7","midi":97,"time":"347.42","velocity":0.25196850393700787,"duration":"0.63"},{"name":"G4","midi":67,"time":"347.44","velocity":0.33070866141732286,"duration":"0.02"},{"name":"A#5","midi":82,"time":"347.44","velocity":0.25196850393700787,"duration":"0.05"},{"name":"G6","midi":91,"time":"347.44","velocity":0.13385826771653545,"duration":"0.03"},{"name":"D4","midi":62,"time":"347.45","velocity":0.3464566929133858,"duration":"0.03"},{"name":"E5","midi":76,"time":"347.45","velocity":0.2204724409448819,"duration":"0.05"},{"name":"G5","midi":79,"time":"347.45","velocity":0.3543307086614173,"duration":"0.02"},{"name":"D#6","midi":87,"time":"347.45","velocity":0.16535433070866143,"duration":"0.05"},{"name":"F2","midi":41,"time":"347.47","velocity":0.6220472440944882,"duration":"0.02"},{"name":"F#4","midi":66,"time":"347.47","velocity":0.33070866141732286,"duration":"0.02"},{"name":"C#5","midi":73,"time":"347.47","velocity":0.30708661417322836,"duration":"0.19"},{"name":"A6","midi":93,"time":"347.47","velocity":0.18110236220472442,"duration":"0.09"},{"name":"D#2","midi":39,"time":"347.48","velocity":0.5275590551181102,"duration":"0.01"},{"name":"F#5","midi":78,"time":"347.48","velocity":0.3779527559055118,"duration":"0.29"},{"name":"C7","midi":96,"time":"347.48","velocity":0.25196850393700787,"duration":"0.17"},{"name":"F1","midi":29,"time":"347.49","velocity":0.5354330708661418,"duration":"0.01"},{"name":"A5","midi":81,"time":"347.49","velocity":0.16535433070866143,"duration":"0.07"},{"name":"D1","midi":26,"time":"347.50","velocity":0.5433070866141733,"duration":"0.01"},{"name":"A2","midi":45,"time":"347.50","velocity":0.5905511811023622,"duration":"0.01"},{"name":"D4","midi":62,"time":"347.50","velocity":0.5275590551181102,"duration":"0.34"},{"name":"F#4","midi":66,"time":"347.50","velocity":0.16535433070866143,"duration":"0.03"},{"name":"F5","midi":77,"time":"347.50","velocity":0.13385826771653545,"duration":"0.03"},{"name":"D6","midi":86,"time":"347.50","velocity":0.1889763779527559,"duration":"0.13"},{"name":"A#1","midi":34,"time":"347.51","velocity":0.5354330708661418,"duration":"0.01"},{"name":"A#2","midi":46,"time":"347.51","velocity":0.6062992125984252,"duration":"0.01"},{"name":"F#3","midi":54,"time":"347.51","velocity":0.4645669291338583,"duration":"0.03"},{"name":"A4","midi":69,"time":"347.51","velocity":0.4330708661417323,"duration":"0.23"},{"name":"B2","midi":47,"time":"347.52","velocity":0.6535433070866141,"duration":"0.01"},{"name":"C6","midi":84,"time":"347.52","velocity":0.2677165354330709,"duration":"0.05"},{"name":"C3","midi":48,"time":"347.53","velocity":0.5905511811023622,"duration":"0.01"},{"name":"C#6","midi":85,"time":"347.53","velocity":0.3700787401574803,"duration":"0.45"},{"name":"E1","midi":28,"time":"347.55","velocity":0.31496062992125984,"duration":"0.02"},{"name":"F3","midi":53,"time":"347.55","velocity":0.5118110236220472,"duration":"0.01"},{"name":"B4","midi":71,"time":"347.55","velocity":0.36220472440944884,"duration":"0.02"},{"name":"D#7","midi":99,"time":"347.55","velocity":0.09448818897637795,"duration":"0.03"},{"name":"A#2","midi":46,"time":"347.56","velocity":0.5590551181102362,"duration":"0.01"},{"name":"B3","midi":59,"time":"347.56","velocity":0.29133858267716534,"duration":"0.02"},{"name":"A#5","midi":82,"time":"347.56","velocity":0.18110236220472442,"duration":"0.05"},{"name":"C3","midi":48,"time":"347.57","velocity":0.5748031496062992,"duration":"0.01"},{"name":"B2","midi":47,"time":"347.58","velocity":0.5354330708661418,"duration":"0.01"},{"name":"F#3","midi":54,"time":"347.58","velocity":0.4645669291338583,"duration":"0.05"},{"name":"F#4","midi":66,"time":"347.58","velocity":0.48031496062992124,"duration":"0.34"},{"name":"B4","midi":71,"time":"347.58","velocity":0.28346456692913385,"duration":"0.02"},{"name":"A#2","midi":46,"time":"347.59","velocity":0.5826771653543307,"duration":"0.01"},{"name":"B3","midi":59,"time":"347.59","velocity":0.28346456692913385,"duration":"0.02"},{"name":"E1","midi":28,"time":"347.60","velocity":0.36220472440944884,"duration":"0.02"},{"name":"B2","midi":47,"time":"347.60","velocity":0.5905511811023622,"duration":"0.02"},{"name":"A#6","midi":94,"time":"347.60","velocity":0.09448818897637795,"duration":"0.05"},{"name":"F6","midi":89,"time":"347.62","velocity":0.15748031496062992,"duration":"0.12"},{"name":"C6","midi":84,"time":"347.63","velocity":0.36220472440944884,"duration":"0.07"},{"name":"D#6","midi":87,"time":"347.63","velocity":0.15748031496062992,"duration":"0.05"},{"name":"G#1","midi":32,"time":"347.64","velocity":0.3700787401574803,"duration":"0.02"},{"name":"B2","midi":47,"time":"347.64","velocity":0.5826771653543307,"duration":"0.03"},{"name":"B4","midi":71,"time":"347.65","velocity":0.41732283464566927,"duration":"0.06"},{"name":"G7","midi":103,"time":"347.65","velocity":0.07874015748031496,"duration":"0.03"},{"name":"A#2","midi":46,"time":"347.67","velocity":0.5590551181102362,"duration":"0.01"},{"name":"B2","midi":47,"time":"347.69","velocity":0.5748031496062992,"duration":"0.02"},{"name":"F#3","midi":54,"time":"347.69","velocity":0.4330708661417323,"duration":"0.02"},{"name":"D#7","midi":99,"time":"347.70","velocity":0.31496062992125984,"duration":"1.48"},{"name":"A#2","midi":46,"time":"347.71","velocity":0.5511811023622047,"duration":"0.01"},{"name":"B3","midi":59,"time":"347.71","velocity":0.29133858267716534,"duration":"0.03"},{"name":"D#6","midi":87,"time":"347.71","velocity":0.14173228346456693,"duration":"0.03"},{"name":"G7","midi":103,"time":"347.71","velocity":0.14960629921259844,"duration":"0.08"},{"name":"B2","midi":47,"time":"347.72","velocity":0.5905511811023622,"duration":"0.07"},{"name":"B4","midi":71,"time":"347.72","velocity":0.4645669291338583,"duration":"0.10"},{"name":"A#1","midi":34,"time":"347.74","velocity":0.2992125984251969,"duration":"0.02"},{"name":"A4","midi":69,"time":"347.76","velocity":0.5039370078740157,"duration":"0.14"},{"name":"A6","midi":93,"time":"347.76","velocity":0.3464566929133858,"duration":"0.14"},{"name":"F#3","midi":54,"time":"347.78","velocity":0.3937007874015748,"duration":"0.03"},{"name":"A#2","midi":46,"time":"347.79","velocity":0.5275590551181102,"duration":"0.01"},{"name":"E6","midi":88,"time":"347.79","velocity":0.2677165354330709,"duration":"0.07"},{"name":"B2","midi":47,"time":"347.80","velocity":0.5826771653543307,"duration":"0.03"},{"name":"C#5","midi":73,"time":"347.80","velocity":0.41732283464566927,"duration":"0.09"},{"name":"G#6","midi":92,"time":"347.81","velocity":0.33070866141732286,"duration":"0.22"},{"name":"E5","midi":76,"time":"347.83","velocity":0.49606299212598426,"duration":"0.03"},{"name":"G#5","midi":80,"time":"347.83","velocity":0.33070866141732286,"duration":"0.09"},{"name":"F6","midi":89,"time":"347.83","velocity":0.2283464566929134,"duration":"0.06"},{"name":"C7","midi":96,"time":"347.83","velocity":0.28346456692913385,"duration":"0.17"},{"name":"D7","midi":98,"time":"347.83","velocity":0.25196850393700787,"duration":"0.26"},{"name":"F7","midi":101,"time":"347.83","velocity":0.25196850393700787,"duration":"0.16"},{"name":"G7","midi":103,"time":"347.83","velocity":0.2125984251968504,"duration":"0.24"},{"name":"F#2","midi":42,"time":"347.84","velocity":0.44881889763779526,"duration":"0.02"},{"name":"C4","midi":60,"time":"347.84","velocity":0.4566929133858268,"duration":"0.02"},{"name":"E4","midi":64,"time":"347.84","velocity":0.49606299212598426,"duration":"0.02"},{"name":"A#5","midi":82,"time":"347.84","velocity":0.30708661417322836,"duration":"0.07"},{"name":"D6","midi":86,"time":"347.84","velocity":0.3779527559055118,"duration":"0.05"},{"name":"G6","midi":91,"time":"347.84","velocity":0.2440944881889764,"duration":"0.09"},{"name":"G3","midi":55,"time":"347.86","velocity":0.4409448818897638,"duration":"0.02"},{"name":"D#6","midi":87,"time":"347.86","velocity":0.3464566929133858,"duration":"0.53"},{"name":"B2","midi":47,"time":"347.87","velocity":0.5748031496062992,"duration":"0.23"},{"name":"B4","midi":71,"time":"347.87","velocity":0.33070866141732286,"duration":"0.03"},{"name":"E6","midi":88,"time":"347.87","velocity":0.2677165354330709,"duration":"0.10"},{"name":"F#3","midi":54,"time":"347.88","velocity":0.4566929133858268,"duration":"0.05"},{"name":"D5","midi":74,"time":"347.90","velocity":0.44881889763779526,"duration":"0.02"},{"name":"C6","midi":84,"time":"347.90","velocity":0.29133858267716534,"duration":"0.05"},{"name":"C#5","midi":73,"time":"347.91","velocity":0.3937007874015748,"duration":"0.02"},{"name":"A5","midi":81,"time":"347.91","velocity":0.3779527559055118,"duration":"0.12"},{"name":"D6","midi":86,"time":"347.92","velocity":0.3228346456692913,"duration":"0.50"},{"name":"F6","midi":89,"time":"347.92","velocity":0.1968503937007874,"duration":"0.12"},{"name":"B6","midi":95,"time":"347.92","velocity":0.14173228346456693,"duration":"0.06"},{"name":"F#4","midi":66,"time":"347.93","velocity":0.4094488188976378,"duration":"0.06"},{"name":"A4","midi":69,"time":"347.93","velocity":0.3228346456692913,"duration":"0.02"},{"name":"D5","midi":74,"time":"347.93","velocity":0.4094488188976378,"duration":"0.03"},{"name":"F#3","midi":54,"time":"347.94","velocity":0.47244094488188976,"duration":"0.08"},{"name":"D4","midi":62,"time":"347.94","velocity":0.2204724409448819,"duration":"0.07"},{"name":"B5","midi":83,"time":"347.94","velocity":0.25984251968503935,"duration":"0.16"},{"name":"G6","midi":91,"time":"347.94","velocity":0.11023622047244094,"duration":"0.05"},{"name":"G#5","midi":80,"time":"347.95","velocity":0.44881889763779526,"duration":"0.30"},{"name":"G#4","midi":68,"time":"347.97","velocity":0.48031496062992124,"duration":"0.08"},{"name":"C#5","midi":73,"time":"347.97","velocity":0.36220472440944884,"duration":"0.02"},{"name":"B1","midi":35,"time":"347.98","velocity":0.25196850393700787,"duration":"0.02"},{"name":"A#3","midi":58,"time":"347.99","velocity":0.5039370078740157,"duration":"0.03"},{"name":"D5","midi":74,"time":"347.99","velocity":0.31496062992125984,"duration":"0.14"},{"name":"C#6","midi":85,"time":"348.00","velocity":0.18110236220472442,"duration":"0.05"},{"name":"A#6","midi":94,"time":"348.01","velocity":0.2047244094488189,"duration":"0.09"},{"name":"C7","midi":96,"time":"348.01","velocity":0.2992125984251969,"duration":"0.12"},{"name":"F#4","midi":66,"time":"348.02","velocity":0.4645669291338583,"duration":"0.19"},{"name":"F#3","midi":54,"time":"348.03","velocity":0.5118110236220472,"duration":"0.05"},{"name":"D4","midi":62,"time":"348.05","velocity":0.33070866141732286,"duration":"0.05"},{"name":"D#5","midi":75,"time":"348.05","velocity":0.2283464566929134,"duration":"0.02"},{"name":"C#6","midi":85,"time":"348.06","velocity":0.23622047244094488,"duration":"0.23"},{"name":"E6","midi":88,"time":"348.06","velocity":0.16535433070866143,"duration":"0.07"},{"name":"G3","midi":55,"time":"348.08","velocity":0.4881889763779528,"duration":"0.03"},{"name":"A#4","midi":70,"time":"348.08","velocity":0.2440944881889764,"duration":"0.02"},{"name":"A5","midi":81,"time":"348.08","velocity":0.29133858267716534,"duration":"0.02"},{"name":"G7","midi":103,"time":"348.09","velocity":0.28346456692913385,"duration":"0.21"},{"name":"A#1","midi":34,"time":"348.10","velocity":0.2440944881889764,"duration":"0.02"},{"name":"A#2","midi":46,"time":"348.10","velocity":0.5354330708661418,"duration":"0.01"},{"name":"D4","midi":62,"time":"348.10","velocity":0.33070866141732286,"duration":"0.08"},{"name":"D#5","midi":75,"time":"348.10","velocity":0.2992125984251969,"duration":"0.05"},{"name":"A#5","midi":82,"time":"348.10","velocity":0.1732283464566929,"duration":"0.06"},{"name":"G6","midi":91,"time":"348.10","velocity":0.13385826771653545,"duration":"0.12"},{"name":"B2","midi":47,"time":"348.12","velocity":0.5669291338582677,"duration":"0.09"},{"name":"A#6","midi":94,"time":"348.12","velocity":0.2047244094488189,"duration":"0.17"},{"name":"C#7","midi":97,"time":"348.12","velocity":0.2440944881889764,"duration":"0.20"},{"name":"F#3","midi":54,"time":"348.13","velocity":0.49606299212598426,"duration":"0.05"},{"name":"A4","midi":69,"time":"348.13","velocity":0.33070866141732286,"duration":"0.03"},{"name":"C6","midi":84,"time":"348.13","velocity":0.1889763779527559,"duration":"0.06"},{"name":"F5","midi":77,"time":"348.14","velocity":0.12598425196850394,"duration":"0.03"},{"name":"E6","midi":88,"time":"348.14","velocity":0.23622047244094488,"duration":"0.08"},{"name":"A#1","midi":34,"time":"348.15","velocity":0.30708661417322836,"duration":"0.05"},{"name":"A6","midi":93,"time":"348.15","velocity":0.15748031496062992,"duration":"0.05"},{"name":"B4","midi":71,"time":"348.16","velocity":0.28346456692913385,"duration":"0.06"},{"name":"C7","midi":96,"time":"348.17","velocity":0.28346456692913385,"duration":"0.34"},{"name":"F7","midi":101,"time":"348.17","velocity":0.25196850393700787,"duration":"0.30"},{"name":"D#5","midi":75,"time":"348.19","velocity":0.1732283464566929,"duration":"0.03"},{"name":"A#5","midi":82,"time":"348.19","velocity":0.33858267716535434,"duration":"0.05"},{"name":"D#4","midi":63,"time":"348.20","velocity":0.29133858267716534,"duration":"0.02"},{"name":"E5","midi":76,"time":"348.20","velocity":0.18110236220472442,"duration":"0.03"},{"name":"C6","midi":84,"time":"348.20","velocity":0.31496062992125984,"duration":"0.37"},{"name":"F#2","midi":42,"time":"348.21","velocity":0.48031496062992124,"duration":"0.02"},{"name":"G3","midi":55,"time":"348.22","velocity":0.4409448818897638,"duration":"0.02"},{"name":"D4","midi":62,"time":"348.22","velocity":0.49606299212598426,"duration":"0.38"},{"name":"A4","midi":69,"time":"348.22","velocity":0.3228346456692913,"duration":"0.03"},{"name":"F6","midi":89,"time":"348.22","velocity":0.23622047244094488,"duration":"0.07"},{"name":"A6","midi":93,"time":"348.22","velocity":0.25196850393700787,"duration":"0.12"},{"name":"F2","midi":41,"time":"348.23","velocity":0.5118110236220472,"duration":"0.01"},{"name":"A5","midi":81,"time":"348.23","velocity":0.3228346456692913,"duration":"0.08"},{"name":"C3","midi":48,"time":"348.24","velocity":0.5905511811023622,"duration":"0.01"},{"name":"F#3","midi":54,"time":"348.24","velocity":0.4645669291338583,"duration":"0.06"},{"name":"G#4","midi":68,"time":"348.24","velocity":0.3543307086614173,"duration":"0.06"},{"name":"B2","midi":47,"time":"348.26","velocity":0.5826771653543307,"duration":"0.06"},{"name":"B6","midi":95,"time":"348.26","velocity":0.11811023622047244,"duration":"0.13"},{"name":"G#5","midi":80,"time":"348.27","velocity":0.5118110236220472,"duration":"0.24"},{"name":"E7","midi":100,"time":"348.27","velocity":0.13385826771653545,"duration":"0.07"},{"name":"E6","midi":88,"time":"348.28","velocity":0.28346456692913385,"duration":"0.22"},{"name":"A#4","midi":70,"time":"348.29","velocity":0.2283464566929134,"duration":"0.03"},{"name":"G6","midi":91,"time":"348.29","velocity":0.09448818897637795,"duration":"0.12"},{"name":"A#2","midi":46,"time":"348.31","velocity":0.5511811023622047,"duration":"0.01"},{"name":"F#3","midi":54,"time":"348.31","velocity":0.44881889763779526,"duration":"0.05"},{"name":"G#4","midi":68,"time":"348.31","velocity":0.33858267716535434,"duration":"0.02"},{"name":"G7","midi":103,"time":"348.31","velocity":0.11023622047244094,"duration":"0.03"},{"name":"B2","midi":47,"time":"348.33","velocity":0.5905511811023622,"duration":"0.02"},{"name":"C5","midi":72,"time":"348.33","velocity":0.1889763779527559,"duration":"0.03"},{"name":"C#7","midi":97,"time":"348.33","velocity":0.23622047244094488,"duration":"0.07"},{"name":"A#2","midi":46,"time":"348.35","velocity":0.5275590551181102,"duration":"0.01"},{"name":"G#4","midi":68,"time":"348.35","velocity":0.41732283464566927,"duration":"0.06"},{"name":"B2","midi":47,"time":"348.36","velocity":0.5905511811023622,"duration":"0.07"},{"name":"A5","midi":81,"time":"348.36","velocity":0.31496062992125984,"duration":"0.10"},{"name":"C#6","midi":85,"time":"348.36","velocity":0.14960629921259844,"duration":"0.06"},{"name":"F#3","midi":54,"time":"348.37","velocity":0.4566929133858268,"duration":"0.02"},{"name":"A4","midi":69,"time":"348.40","velocity":0.4645669291338583,"duration":"0.12"},{"name":"D#6","midi":87,"time":"348.41","velocity":0.2283464566929134,"duration":"0.07"},{"name":"F#4","midi":66,"time":"348.42","velocity":0.3543307086614173,"duration":"0.08"},{"name":"G6","midi":91,"time":"348.42","velocity":0.12598425196850394,"duration":"0.07"},{"name":"A#2","midi":46,"time":"348.43","velocity":0.5275590551181102,"duration":"0.01"},{"name":"B2","midi":47,"time":"348.44","velocity":0.5905511811023622,"duration":"0.01"},{"name":"D#5","midi":75,"time":"348.44","velocity":0.3858267716535433,"duration":"0.21"},{"name":"C3","midi":48,"time":"348.45","velocity":0.5826771653543307,"duration":"0.01"},{"name":"A#5","midi":82,"time":"348.45","velocity":0.1968503937007874,"duration":"0.03"},{"name":"B2","midi":47,"time":"348.47","velocity":0.5196850393700787,"duration":"0.01"},{"name":"C#7","midi":97,"time":"348.47","velocity":0.13385826771653545,"duration":"0.05"},{"name":"A#2","midi":46,"time":"348.48","velocity":0.5748031496062992,"duration":"0.01"},{"name":"C#5","midi":73,"time":"348.48","velocity":0.30708661417322836,"duration":"0.16"},{"name":"B2","midi":47,"time":"348.49","velocity":0.5905511811023622,"duration":"0.02"},{"name":"G#4","midi":68,"time":"348.50","velocity":0.4645669291338583,"duration":"0.02"},{"name":"A#2","midi":46,"time":"348.51","velocity":0.5433070866141733,"duration":"0.01"},{"name":"F#4","midi":66,"time":"348.51","velocity":0.3700787401574803,"duration":"0.08"},{"name":"D6","midi":86,"time":"348.51","velocity":0.2755905511811024,"duration":"0.06"},{"name":"E6","midi":88,"time":"348.51","velocity":0.14960629921259844,"duration":"0.08"},{"name":"B2","midi":47,"time":"348.52","velocity":0.5826771653543307,"duration":"0.06"},{"name":"A4","midi":69,"time":"348.52","velocity":0.5039370078740157,"duration":"0.07"},{"name":"G#5","midi":80,"time":"348.52","velocity":0.5039370078740157,"duration":"0.10"},{"name":"C#7","midi":97,"time":"348.53","velocity":0.29133858267716534,"duration":"1.07"},{"name":"A#5","midi":82,"time":"348.55","velocity":0.18110236220472442,"duration":"0.06"},{"name":"G3","midi":55,"time":"348.56","velocity":0.4566929133858268,"duration":"0.02"},{"name":"D7","midi":98,"time":"348.57","velocity":0.1889763779527559,"duration":"0.07"},{"name":"F7","midi":101,"time":"348.57","velocity":0.1732283464566929,"duration":"0.14"},{"name":"G7","midi":103,"time":"348.57","velocity":0.1889763779527559,"duration":"0.24"},{"name":"E2","midi":40,"time":"348.58","velocity":0.6614173228346457,"duration":"0.01"},{"name":"B5","midi":83,"time":"348.58","velocity":0.11811023622047244,"duration":"0.03"},{"name":"B6","midi":95,"time":"348.58","velocity":0.14960629921259844,"duration":"0.03"},{"name":"F2","midi":41,"time":"348.59","velocity":0.6692913385826772,"duration":"0.01"},{"name":"G#4","midi":68,"time":"348.59","velocity":0.41732283464566927,"duration":"0.03"},{"name":"C6","midi":84,"time":"348.59","velocity":0.3228346456692913,"duration":"0.22"},{"name":"F#2","midi":42,"time":"348.60","velocity":0.5826771653543307,"duration":"0.01"},{"name":"D6","midi":86,"time":"348.60","velocity":0.2992125984251969,"duration":"0.15"},{"name":"A6","midi":93,"time":"348.60","velocity":0.1968503937007874,"duration":"0.08"},{"name":"C1","midi":24,"time":"348.62","velocity":0.5118110236220472,"duration":"0.02"},{"name":"B2","midi":47,"time":"348.62","velocity":0.5433070866141733,"duration":"0.05"},{"name":"D4","midi":62,"time":"348.62","velocity":0.49606299212598426,"duration":"0.70"},{"name":"F#4","midi":66,"time":"348.62","velocity":0.3858267716535433,"duration":"0.17"},{"name":"E6","midi":88,"time":"348.62","velocity":0.18110236220472442,"duration":"0.06"},{"name":"G3","midi":55,"time":"348.63","velocity":0.49606299212598426,"duration":"0.02"},{"name":"A4","midi":69,"time":"348.63","velocity":0.4015748031496063,"duration":"0.14"},{"name":"A#5","midi":82,"time":"348.63","velocity":0.1889763779527559,"duration":"0.05"},{"name":"G6","midi":91,"time":"348.63","velocity":0.12598425196850394,"duration":"0.03"},{"name":"F#1","midi":30,"time":"348.64","velocity":0.5354330708661418,"duration":"0.01"},{"name":"G#5","midi":80,"time":"348.64","velocity":0.33858267716535434,"duration":"0.12"},{"name":"F6","midi":89,"time":"348.64","velocity":0.2204724409448819,"duration":"0.08"},{"name":"A#2","midi":46,"time":"348.66","velocity":0.5118110236220472,"duration":"0.02"},{"name":"F#3","midi":54,"time":"348.67","velocity":0.48031496062992124,"duration":"0.07"},{"name":"B2","midi":47,"time":"348.69","velocity":0.5748031496062992,"duration":"0.24"},{"name":"A#5","midi":82,"time":"348.69","velocity":0.25984251968503935,"duration":"0.12"},{"name":"A6","midi":93,"time":"348.70","velocity":0.16535433070866143,"duration":"0.12"},{"name":"C#5","midi":73,"time":"348.71","velocity":0.33858267716535434,"duration":"0.12"},{"name":"E6","midi":88,"time":"348.71","velocity":0.2125984251968504,"duration":"0.28"},{"name":"F7","midi":101,"time":"348.73","velocity":0.12598425196850394,"duration":"0.06"},{"name":"D#5","midi":75,"time":"348.76","velocity":0.33858267716535434,"duration":"0.10"},{"name":"G#4","midi":68,"time":"348.78","velocity":0.47244094488188976,"duration":"0.10"},{"name":"G#1","midi":32,"time":"348.79","velocity":0.33858267716535434,"duration":"0.02"},{"name":"B5","midi":83,"time":"348.80","velocity":0.18110236220472442,"duration":"0.08"},{"name":"F6","midi":89,"time":"348.80","velocity":0.11811023622047244,"duration":"0.03"},{"name":"A#5","midi":82,"time":"348.83","velocity":0.1889763779527559,"duration":"0.06"},{"name":"C6","midi":84,"time":"348.83","velocity":0.25984251968503935,"duration":"0.12"},{"name":"F7","midi":101,"time":"348.83","velocity":0.15748031496062992,"duration":"0.05"},{"name":"F#3","midi":54,"time":"348.84","velocity":0.4566929133858268,"duration":"0.03"},{"name":"C#5","midi":73,"time":"348.84","velocity":0.31496062992125984,"duration":"0.05"},{"name":"G6","midi":91,"time":"348.85","velocity":0.08661417322834646,"duration":"0.03"},{"name":"F#4","midi":66,"time":"348.87","velocity":0.3700787401574803,"duration":"0.07"},{"name":"A1","midi":33,"time":"348.88","velocity":0.2992125984251969,"duration":"0.02"},{"name":"F3","midi":53,"time":"348.88","velocity":0.47244094488188976,"duration":"0.02"},{"name":"A4","midi":69,"time":"348.88","velocity":0.3779527559055118,"duration":"0.08"},{"name":"A#6","midi":94,"time":"348.88","velocity":0.08661417322834646,"duration":"0.03"},{"name":"C#5","midi":73,"time":"348.90","velocity":0.2755905511811024,"duration":"0.05"},{"name":"B5","midi":83,"time":"348.90","velocity":0.14173228346456693,"duration":"0.03"},{"name":"F6","midi":89,"time":"348.90","velocity":0.10236220472440945,"duration":"0.03"},{"name":"G3","midi":55,"time":"348.92","velocity":0.4566929133858268,"duration":"0.02"},{"name":"D#5","midi":75,"time":"348.92","velocity":0.2992125984251969,"duration":"0.10"},{"name":"G7","midi":103,"time":"348.92","velocity":0.2125984251968504,"duration":"0.15"},{"name":"A#2","midi":46,"time":"348.93","velocity":0.5511811023622047,"duration":"0.01"},{"name":"C3","midi":48,"time":"348.94","velocity":0.5905511811023622,"duration":"0.02"},{"name":"G#4","midi":68,"time":"348.94","velocity":0.48031496062992124,"duration":"0.08"},{"name":"A#6","midi":94,"time":"348.94","velocity":0.11023622047244094,"duration":"0.08"},{"name":"F7","midi":101,"time":"348.94","velocity":0.1968503937007874,"duration":"0.14"},{"name":"F#5","midi":78,"time":"348.95","velocity":0.3937007874015748,"duration":"0.38"},{"name":"A#5","midi":82,"time":"348.95","velocity":0.2283464566929134,"duration":"0.02"},{"name":"C6","midi":84,"time":"348.95","velocity":0.3543307086614173,"duration":"0.41"},{"name":"D6","midi":86,"time":"348.95","velocity":0.2047244094488189,"duration":"0.05"},{"name":"G3","midi":55,"time":"348.97","velocity":0.49606299212598426,"duration":"0.03"},{"name":"B5","midi":83,"time":"348.97","velocity":0.2440944881889764,"duration":"0.03"},{"name":"F6","midi":89,"time":"348.97","velocity":0.2125984251968504,"duration":"0.05"},{"name":"C3","midi":48,"time":"348.98","velocity":0.5118110236220472,"duration":"0.02"},{"name":"A6","midi":93,"time":"348.98","velocity":0.2125984251968504,"duration":"0.19"},{"name":"F#3","midi":54,"time":"349.00","velocity":0.48031496062992124,"duration":"0.10"},{"name":"E6","midi":88,"time":"349.00","velocity":0.28346456692913385,"duration":"0.22"},{"name":"B6","midi":95,"time":"349.01","velocity":0.10236220472440945,"duration":"0.03"},{"name":"B2","midi":47,"time":"349.02","velocity":0.5748031496062992,"duration":"0.23"},{"name":"A4","midi":69,"time":"349.02","velocity":0.4566929133858268,"duration":"0.06"},{"name":"F#7","midi":102,"time":"349.02","velocity":0.2125984251968504,"duration":"0.21"},{"name":"A#6","midi":94,"time":"349.03","velocity":0.14173228346456693,"duration":"0.06"},{"name":"G6","midi":91,"time":"349.05","velocity":0.07086614173228346,"duration":"0.03"},{"name":"G#4","midi":68,"time":"349.09","velocity":0.48031496062992124,"duration":"0.10"},{"name":"A5","midi":81,"time":"349.09","velocity":0.1889763779527559,"duration":"0.03"},{"name":"G7","midi":103,"time":"349.10","velocity":0.1889763779527559,"duration":"0.13"},{"name":"F#3","midi":54,"time":"349.12","velocity":0.47244094488188976,"duration":"0.03"},{"name":"B6","midi":95,"time":"349.13","velocity":0.12598425196850394,"duration":"0.03"},{"name":"A#1","midi":34,"time":"349.14","velocity":0.2992125984251969,"duration":"0.02"},{"name":"C2","midi":36,"time":"349.16","velocity":0.28346456692913385,"duration":"0.02"},{"name":"F#3","midi":54,"time":"349.16","velocity":0.48031496062992124,"duration":"0.02"},{"name":"A5","midi":81,"time":"349.17","velocity":0.14960629921259844,"duration":"0.07"},{"name":"D#6","midi":87,"time":"349.19","velocity":0.1889763779527559,"duration":"0.03"},{"name":"D#7","midi":99,"time":"349.19","velocity":0.30708661417322836,"duration":"1.91"},{"name":"F#3","midi":54,"time":"349.21","velocity":0.48031496062992124,"duration":"0.02"},{"name":"G#4","midi":68,"time":"349.21","velocity":0.5354330708661418,"duration":"0.09"},{"name":"D6","midi":86,"time":"349.21","velocity":0.31496062992125984,"duration":"0.13"},{"name":"F7","midi":101,"time":"349.22","velocity":0.2755905511811024,"duration":"0.28"},{"name":"B1","midi":35,"time":"349.23","velocity":0.30708661417322836,"duration":"0.02"},{"name":"G6","midi":91,"time":"349.23","velocity":0.07874015748031496,"duration":"0.07"},{"name":"E6","midi":88,"time":"349.24","velocity":0.2677165354330709,"duration":"0.21"},{"name":"G7","midi":103,"time":"349.24","velocity":0.14173228346456693,"duration":"0.07"},{"name":"A#2","midi":46,"time":"349.26","velocity":0.5354330708661418,"duration":"0.01"},{"name":"F#3","midi":54,"time":"349.26","velocity":0.47244094488188976,"duration":"0.02"},{"name":"A5","midi":81,"time":"349.26","velocity":0.25984251968503935,"duration":"0.06"},{"name":"B1","midi":35,"time":"349.27","velocity":0.3228346456692913,"duration":"0.03"},{"name":"B2","midi":47,"time":"349.27","velocity":0.5669291338582677,"duration":"0.05"},{"name":"D#6","midi":87,"time":"349.28","velocity":0.3543307086614173,"duration":"0.35"},{"name":"A#6","midi":94,"time":"349.28","velocity":0.28346456692913385,"duration":"0.10"},{"name":"F#7","midi":102,"time":"349.28","velocity":0.23622047244094488,"duration":"0.16"},{"name":"B6","midi":95,"time":"349.29","velocity":0.15748031496062992,"duration":"0.05"},{"name":"A#1","midi":34,"time":"349.30","velocity":0.2992125984251969,"duration":"0.02"},{"name":"A4","midi":69,"time":"349.30","velocity":0.4094488188976378,"duration":"0.02"},{"name":"A6","midi":93,"time":"349.30","velocity":0.2677165354330709,"duration":"0.12"},{"name":"C3","midi":48,"time":"349.31","velocity":0.5748031496062992,"duration":"0.02"},{"name":"C#5","midi":73,"time":"349.31","velocity":0.47244094488188976,"duration":"0.05"},{"name":"E4","midi":64,"time":"349.33","velocity":0.5118110236220472,"duration":"0.01"},{"name":"B4","midi":71,"time":"349.33","velocity":0.49606299212598426,"duration":"0.02"},{"name":"G7","midi":103,"time":"349.33","velocity":0.1889763779527559,"duration":"0.09"},{"name":"D#4","midi":63,"time":"349.34","velocity":0.4566929133858268,"duration":"0.02"},{"name":"A4","midi":69,"time":"349.34","velocity":0.5118110236220472,"duration":"0.01"},{"name":"G5","midi":79,"time":"349.34","velocity":0.3464566929133858,"duration":"0.06"},{"name":"A#5","midi":82,"time":"349.34","velocity":0.3858267716535433,"duration":"0.37"},{"name":"F6","midi":89,"time":"349.34","velocity":0.2755905511811024,"duration":"0.02"},{"name":"F#3","midi":54,"time":"349.35","velocity":0.44881889763779526,"duration":"0.07"},{"name":"G#4","midi":68,"time":"349.35","velocity":0.41732283464566927,"duration":"0.05"},{"name":"A#4","midi":70,"time":"349.35","velocity":0.5118110236220472,"duration":"0.02"},{"name":"D#5","midi":75,"time":"349.35","velocity":0.4881889763779528,"duration":"0.07"},{"name":"F#4","midi":66,"time":"349.36","velocity":0.4645669291338583,"duration":"0.06"},{"name":"A5","midi":81,"time":"349.36","velocity":0.2677165354330709,"duration":"0.03"},{"name":"B6","midi":95,"time":"349.36","velocity":0.16535433070866143,"duration":"0.07"},{"name":"B2","midi":47,"time":"349.37","velocity":0.5826771653543307,"duration":"0.33"},{"name":"B4","midi":71,"time":"349.37","velocity":0.4094488188976378,"duration":"0.02"},{"name":"C#5","midi":73,"time":"349.37","velocity":0.41732283464566927,"duration":"0.55"},{"name":"D6","midi":86,"time":"349.37","velocity":0.23622047244094488,"duration":"0.05"},{"name":"F5","midi":77,"time":"349.38","velocity":0.2125984251968504,"duration":"0.03"},{"name":"G#5","midi":80,"time":"349.38","velocity":0.4881889763779528,"duration":"0.60"},{"name":"C6","midi":84,"time":"349.40","velocity":0.2125984251968504,"duration":"0.05"},{"name":"G#4","midi":68,"time":"349.41","velocity":0.48031496062992124,"duration":"0.07"},{"name":"C5","midi":72,"time":"349.41","velocity":0.3228346456692913,"duration":"0.02"},{"name":"A5","midi":81,"time":"349.41","velocity":0.3228346456692913,"duration":"0.08"},{"name":"E5","midi":76,"time":"349.42","velocity":0.2204724409448819,"duration":"0.05"},{"name":"B5","midi":83,"time":"349.42","velocity":0.15748031496062992,"duration":"0.12"},{"name":"F#5","midi":78,"time":"349.44","velocity":0.36220472440944884,"duration":"0.30"},{"name":"F6","midi":89,"time":"349.44","velocity":0.1889763779527559,"duration":"0.08"},{"name":"F#4","midi":66,"time":"349.45","velocity":0.3858267716535433,"duration":"0.09"},{"name":"D6","midi":86,"time":"349.45","velocity":0.2204724409448819,"duration":"0.07"},{"name":"A#3","midi":58,"time":"349.47","velocity":0.44881889763779526,"duration":"0.05"},{"name":"E6","midi":88,"time":"349.47","velocity":0.14173228346456693,"duration":"0.03"},{"name":"D4","midi":62,"time":"349.48","velocity":0.25196850393700787,"duration":"0.02"},{"name":"A4","midi":69,"time":"349.48","velocity":0.29133858267716534,"duration":"0.02"},{"name":"D#5","midi":75,"time":"349.48","velocity":0.2755905511811024,"duration":"0.02"},{"name":"C6","midi":84,"time":"349.49","velocity":0.1732283464566929,"duration":"0.09"},{"name":"G3","midi":55,"time":"349.50","velocity":0.44881889763779526,"duration":"0.02"},{"name":"D4","midi":62,"time":"349.51","velocity":0.2440944881889764,"duration":"0.02"},{"name":"A4","midi":69,"time":"349.51","velocity":0.36220472440944884,"duration":"0.03"},{"name":"E6","midi":88,"time":"349.51","velocity":0.1968503937007874,"duration":"0.07"},{"name":"G3","midi":55,"time":"349.55","velocity":0.48031496062992124,"duration":"0.02"},{"name":"D4","midi":62,"time":"349.55","velocity":0.2440944881889764,"duration":"0.06"},{"name":"G#4","midi":68,"time":"349.55","velocity":0.44881889763779526,"duration":"0.07"},{"name":"B5","midi":83,"time":"349.55","velocity":0.12598425196850394,"duration":"0.03"},{"name":"D#5","midi":75,"time":"349.57","velocity":0.2755905511811024,"duration":"0.02"},{"name":"G7","midi":103,"time":"349.58","velocity":0.1889763779527559,"duration":"0.06"},{"name":"C6","midi":84,"time":"349.59","velocity":0.14960629921259844,"duration":"0.07"},{"name":"D6","midi":86,"time":"349.59","velocity":0.3228346456692913,"duration":"0.47"},{"name":"E6","midi":88,"time":"349.60","velocity":0.1889763779527559,"duration":"0.06"},{"name":"B1","midi":35,"time":"349.62","velocity":0.2677165354330709,"duration":"0.05"},{"name":"D4","midi":62,"time":"349.63","velocity":0.30708661417322836,"duration":"0.06"},{"name":"F#4","midi":66,"time":"349.63","velocity":0.31496062992125984,"duration":"0.02"},{"name":"G#4","midi":68,"time":"349.64","velocity":0.41732283464566927,"duration":"0.07"},{"name":"D#5","midi":75,"time":"349.64","velocity":0.2440944881889764,"duration":"0.02"},{"name":"D#6","midi":87,"time":"349.64","velocity":0.28346456692913385,"duration":"0.07"},{"name":"A6","midi":93,"time":"349.66","velocity":0.1732283464566929,"duration":"0.03"},{"name":"G3","midi":55,"time":"349.67","velocity":0.44881889763779526,"duration":"0.02"},{"name":"D#5","midi":75,"time":"349.67","velocity":0.33070866141732286,"duration":"0.05"},{"name":"C6","midi":84,"time":"349.69","velocity":0.31496062992125984,"duration":"0.38"},{"name":"F6","midi":89,"time":"349.69","velocity":0.14173228346456693,"duration":"0.06"},{"name":"E7","midi":100,"time":"349.69","velocity":0.15748031496062992,"duration":"0.17"},{"name":"F7","midi":101,"time":"349.69","velocity":0.16535433070866143,"duration":"0.29"},{"name":"C3","midi":48,"time":"349.70","velocity":0.4409448818897638,"duration":"0.03"},{"name":"D4","midi":62,"time":"349.70","velocity":0.3858267716535433,"duration":"0.27"},{"name":"A5","midi":81,"time":"349.70","velocity":0.2677165354330709,"duration":"0.07"},{"name":"E6","midi":88,"time":"349.71","velocity":0.2677165354330709,"duration":"0.07"},{"name":"G6","midi":91,"time":"349.71","velocity":0.13385826771653545,"duration":"0.03"},{"name":"G#4","midi":68,"time":"349.72","velocity":0.4094488188976378,"duration":"0.05"},{"name":"B2","midi":47,"time":"349.73","velocity":0.5748031496062992,"duration":"0.35"},{"name":"D#6","midi":87,"time":"349.73","velocity":0.3779527559055118,"duration":"0.29"},{"name":"B6","midi":95,"time":"349.73","velocity":0.10236220472440945,"duration":"0.05"},{"name":"F#3","midi":54,"time":"349.74","velocity":0.47244094488188976,"duration":"0.06"},{"name":"A4","midi":69,"time":"349.77","velocity":0.4330708661417323,"duration":"0.16"},{"name":"D#5","midi":75,"time":"349.77","velocity":0.25196850393700787,"duration":"0.07"},{"name":"G6","midi":91,"time":"349.77","velocity":0.11811023622047244,"duration":"0.07"},{"name":"F#5","midi":78,"time":"349.78","velocity":0.09448818897637795,"duration":"0.03"},{"name":"F6","midi":89,"time":"349.78","velocity":0.2125984251968504,"duration":"0.14"},{"name":"A#5","midi":82,"time":"349.79","velocity":0.2992125984251969,"duration":"0.05"},{"name":"G7","midi":103,"time":"349.80","velocity":0.2440944881889764,"duration":"0.10"},{"name":"F#3","midi":54,"time":"349.81","velocity":0.44881889763779526,"duration":"0.03"},{"name":"F#5","midi":78,"time":"349.83","velocity":0.28346456692913385,"duration":"0.24"},{"name":"F#4","midi":66,"time":"349.85","velocity":0.30708661417322836,"duration":"0.08"},{"name":"B6","midi":95,"time":"349.85","velocity":0.08661417322834646,"duration":"0.06"},{"name":"F#3","midi":54,"time":"349.86","velocity":0.4330708661417323,"duration":"0.06"},{"name":"A#3","midi":58,"time":"349.87","velocity":0.36220472440944884,"duration":"0.02"},{"name":"D#5","midi":75,"time":"349.88","velocity":0.28346456692913385,"duration":"0.03"},{"name":"E6","midi":88,"time":"349.90","velocity":0.14960629921259844,"duration":"0.05"},{"name":"A#6","midi":94,"time":"349.90","velocity":0.14173228346456693,"duration":"0.09"},{"name":"B1","midi":35,"time":"349.92","velocity":0.23622047244094488,"duration":"0.02"},{"name":"G#4","midi":68,"time":"349.92","velocity":0.4645669291338583,"duration":"0.16"},{"name":"A#1","midi":34,"time":"349.94","velocity":0.23622047244094488,"duration":"0.02"},{"name":"G7","midi":103,"time":"349.94","velocity":0.11811023622047244,"duration":"0.13"},{"name":"E6","midi":88,"time":"349.95","velocity":0.15748031496062992,"duration":"0.14"},{"name":"G6","midi":91,"time":"349.95","velocity":0.10236220472440945,"duration":"0.03"},{"name":"B1","midi":35,"time":"349.97","velocity":0.23622047244094488,"duration":"0.02"},{"name":"F#3","midi":54,"time":"349.97","velocity":0.4330708661417323,"duration":"0.06"},{"name":"D#4","midi":63,"time":"349.97","velocity":0.2677165354330709,"duration":"0.03"},{"name":"F6","midi":89,"time":"349.99","velocity":0.09448818897637795,"duration":"0.06"},{"name":"C#7","midi":97,"time":"349.99","velocity":0.25196850393700787,"duration":"0.24"},{"name":"G#5","midi":80,"time":"350.00","velocity":0.48031496062992124,"duration":"0.85"},{"name":"A#6","midi":94,"time":"350.01","velocity":0.11023622047244094,"duration":"0.05"},{"name":"D4","midi":62,"time":"350.02","velocity":0.3228346456692913,"duration":"0.02"},{"name":"B6","midi":95,"time":"350.02","velocity":0.11023622047244094,"duration":"0.08"},{"name":"F#3","midi":54,"time":"350.03","velocity":0.44881889763779526,"duration":"0.02"},{"name":"C5","midi":72,"time":"350.03","velocity":0.15748031496062992,"duration":"0.05"},{"name":"D#5","midi":75,"time":"350.03","velocity":0.3700787401574803,"duration":"0.23"},{"name":"F#7","midi":102,"time":"350.03","velocity":0.33070866141732286,"duration":"0.30"},{"name":"A#5","midi":82,"time":"350.05","velocity":0.25984251968503935,"duration":"0.08"},{"name":"F7","midi":101,"time":"350.05","velocity":0.2755905511811024,"duration":"0.19"},{"name":"F6","midi":89,"time":"350.06","velocity":0.15748031496062992,"duration":"0.03"},{"name":"F#3","midi":54,"time":"350.07","velocity":0.4881889763779528,"duration":"0.02"},{"name":"C#4","midi":61,"time":"350.07","velocity":0.3228346456692913,"duration":"0.02"},{"name":"D5","midi":74,"time":"350.07","velocity":0.2677165354330709,"duration":"0.02"},{"name":"D7","midi":98,"time":"350.07","velocity":0.2047244094488189,"duration":"0.06"},{"name":"F2","midi":41,"time":"350.08","velocity":0.6220472440944882,"duration":"0.01"},{"name":"G4","midi":67,"time":"350.08","velocity":0.3700787401574803,"duration":"0.02"},{"name":"C6","midi":84,"time":"350.08","velocity":0.2755905511811024,"duration":"0.17"},{"name":"G2","midi":43,"time":"350.09","velocity":0.5748031496062992,"duration":"0.01"},{"name":"D4","midi":62,"time":"350.09","velocity":0.25984251968503935,"duration":"0.03"},{"name":"F#5","midi":78,"time":"350.09","velocity":0.36220472440944884,"duration":"0.37"},{"name":"A6","midi":93,"time":"350.09","velocity":0.14960629921259844,"duration":"0.08"},{"name":"G7","midi":103,"time":"350.09","velocity":0.2204724409448819,"duration":"0.14"},{"name":"B2","midi":47,"time":"350.10","velocity":0.6062992125984252,"duration":"0.02"},{"name":"C5","midi":72,"time":"350.10","velocity":0.2677165354330709,"duration":"0.02"},{"name":"E7","midi":100,"time":"350.10","velocity":0.08661417322834646,"duration":"0.05"},{"name":"F#1","midi":30,"time":"350.12","velocity":0.5984251968503937,"duration":"0.02"},{"name":"G#4","midi":68,"time":"350.12","velocity":0.5039370078740157,"duration":"0.23"},{"name":"A#2","midi":46,"time":"350.13","velocity":0.5748031496062992,"duration":"0.01"},{"name":"F#4","midi":66,"time":"350.13","velocity":0.33858267716535434,"duration":"0.03"},{"name":"B4","midi":71,"time":"350.13","velocity":0.28346456692913385,"duration":"0.02"},{"name":"A5","midi":81,"time":"350.13","velocity":0.2204724409448819,"duration":"0.06"},{"name":"D6","midi":86,"time":"350.13","velocity":0.3228346456692913,"duration":"0.34"},{"name":"G1","midi":31,"time":"350.14","velocity":0.5118110236220472,"duration":"0.01"},{"name":"B2","midi":47,"time":"350.14","velocity":0.6220472440944882,"duration":"0.05"},{"name":"A4","midi":69,"time":"350.15","velocity":0.3228346456692913,"duration":"0.02"},{"name":"C5","midi":72,"time":"350.15","velocity":0.2047244094488189,"duration":"0.03"},{"name":"F6","midi":89,"time":"350.15","velocity":0.2204724409448819,"duration":"0.05"},{"name":"D4","midi":62,"time":"350.17","velocity":0.18110236220472442,"duration":"0.10"},{"name":"A#6","midi":94,"time":"350.17","velocity":0.12598425196850394,"duration":"0.05"},{"name":"B6","midi":95,"time":"350.17","velocity":0.10236220472440945,"duration":"0.06"},{"name":"B1","midi":35,"time":"350.19","velocity":0.4645669291338583,"duration":"0.05"},{"name":"C3","midi":48,"time":"350.19","velocity":0.5433070866141733,"duration":"0.01"},{"name":"F#4","midi":66,"time":"350.19","velocity":0.33858267716535434,"duration":"0.09"},{"name":"G6","midi":91,"time":"350.19","velocity":0.11023622047244094,"duration":"0.03"},{"name":"A6","midi":93,"time":"350.19","velocity":0.13385826771653545,"duration":"0.05"},{"name":"B2","midi":47,"time":"350.20","velocity":0.5275590551181102,"duration":"0.01"},{"name":"F#3","midi":54,"time":"350.20","velocity":0.3779527559055118,"duration":"0.05"},{"name":"C#5","midi":73,"time":"350.20","velocity":0.36220472440944884,"duration":"0.26"},{"name":"A5","midi":81,"time":"350.20","velocity":0.25984251968503935,"duration":"0.10"},{"name":"E6","midi":88,"time":"350.20","velocity":0.13385826771653545,"duration":"0.05"},{"name":"A#2","midi":46,"time":"350.21","velocity":0.5748031496062992,"duration":"0.01"},{"name":"F6","midi":89,"time":"350.21","velocity":0.08661417322834646,"duration":"0.06"},{"name":"B2","midi":47,"time":"350.22","velocity":0.5826771653543307,"duration":"0.02"},{"name":"D#6","midi":87,"time":"350.22","velocity":0.3779527559055118,"duration":"0.56"},{"name":"G1","midi":31,"time":"350.23","velocity":0.4094488188976378,"duration":"0.02"},{"name":"A#6","midi":94,"time":"350.23","velocity":0.11811023622047244,"duration":"0.06"},{"name":"A#2","midi":46,"time":"350.24","velocity":0.5275590551181102,"duration":"0.01"},{"name":"B2","midi":47,"time":"350.26","velocity":0.5984251968503937,"duration":"0.16"},{"name":"E6","midi":88,"time":"350.26","velocity":0.14173228346456693,"duration":"0.03"},{"name":"C6","midi":84,"time":"350.28","velocity":0.3700787401574803,"duration":"0.70"},{"name":"D4","midi":62,"time":"350.29","velocity":0.33858267716535434,"duration":"0.15"},{"name":"E6","midi":88,"time":"350.31","velocity":0.1968503937007874,"duration":"0.16"},{"name":"F#4","midi":66,"time":"350.34","velocity":0.41732283464566927,"duration":"0.13"},{"name":"A5","midi":81,"time":"350.34","velocity":0.23622047244094488,"duration":"0.06"},{"name":"F6","midi":89,"time":"350.34","velocity":0.09448818897637795,"duration":"0.06"},{"name":"A4","midi":69,"time":"350.35","velocity":0.4330708661417323,"duration":"0.06"},{"name":"F#3","midi":54,"time":"350.36","velocity":0.36220472440944884,"duration":"0.02"},{"name":"F#7","midi":102,"time":"350.36","velocity":0.28346456692913385,"duration":"0.31"},{"name":"G7","midi":103,"time":"350.37","velocity":0.13385826771653545,"duration":"0.05"},{"name":"D#5","midi":75,"time":"350.38","velocity":0.3464566929133858,"duration":"0.08"},{"name":"C2","midi":36,"time":"350.42","velocity":0.41732283464566927,"duration":"0.02"},{"name":"C3","midi":48,"time":"350.42","velocity":0.5984251968503937,"duration":"0.02"},{"name":"A4","midi":69,"time":"350.42","velocity":0.4330708661417323,"duration":"0.08"},{"name":"A6","midi":93,"time":"350.43","velocity":0.18110236220472442,"duration":"0.03"},{"name":"C#3","midi":49,"time":"350.44","velocity":0.5196850393700787,"duration":"0.01"},{"name":"G6","midi":91,"time":"350.44","velocity":0.14173228346456693,"duration":"0.09"},{"name":"B6","midi":95,"time":"350.44","velocity":0.14960629921259844,"duration":"0.06"},{"name":"C#7","midi":97,"time":"350.44","velocity":0.2677165354330709,"duration":"0.65"},{"name":"F7","midi":101,"time":"350.44","velocity":0.2283464566929134,"duration":"0.12"},{"name":"F2","midi":41,"time":"350.45","velocity":0.6220472440944882,"duration":"0.05"},{"name":"A3","midi":57,"time":"350.45","velocity":0.4015748031496063,"duration":"0.03"},{"name":"A#5","midi":82,"time":"350.45","velocity":0.23622047244094488,"duration":"0.03"},{"name":"C#6","midi":85,"time":"350.45","velocity":0.2204724409448819,"duration":"0.31"},{"name":"G4","midi":67,"time":"350.47","velocity":0.2992125984251969,"duration":"0.02"},{"name":"D3","midi":50,"time":"350.48","velocity":0.5039370078740157,"duration":"0.02"},{"name":"D1","midi":26,"time":"350.49","velocity":0.5118110236220472,"duration":"0.01"},{"name":"F4","midi":65,"time":"350.49","velocity":0.2677165354330709,"duration":"0.02"},{"name":"F#5","midi":78,"time":"350.49","velocity":0.36220472440944884,"duration":"0.34"},{"name":"A6","midi":93,"time":"350.49","velocity":0.11023622047244094,"duration":"0.06"},{"name":"E1","midi":28,"time":"350.50","velocity":0.5905511811023622,"duration":"0.01"},{"name":"C3","midi":48,"time":"350.50","velocity":0.6220472440944882,"duration":"0.03"},{"name":"G#3","midi":56,"time":"350.50","velocity":0.3779527559055118,"duration":"0.03"},{"name":"B4","midi":71,"time":"350.50","velocity":0.2992125984251969,"duration":"0.02"},{"name":"F1","midi":29,"time":"350.51","velocity":0.5354330708661418,"duration":"0.01"},{"name":"C#5","midi":73,"time":"350.51","velocity":0.33858267716535434,"duration":"0.13"},{"name":"E6","midi":88,"time":"350.51","velocity":0.23622047244094488,"duration":"0.17"},{"name":"F#4","midi":66,"time":"350.52","velocity":0.2677165354330709,"duration":"0.02"},{"name":"A#4","midi":70,"time":"350.52","velocity":0.25984251968503935,"duration":"0.02"},{"name":"C#3","midi":49,"time":"350.53","velocity":0.6141732283464567,"duration":"0.27"},{"name":"G#4","midi":68,"time":"350.53","velocity":0.33070866141732286,"duration":"0.03"},{"name":"G#3","midi":56,"time":"350.56","velocity":0.4251968503937008,"duration":"0.26"},{"name":"A4","midi":69,"time":"350.57","velocity":0.4645669291338583,"duration":"0.10"},{"name":"G6","midi":91,"time":"350.57","velocity":0.11023622047244094,"duration":"0.03"},{"name":"F7","midi":101,"time":"350.57","velocity":0.1968503937007874,"duration":"0.17"},{"name":"D6","midi":86,"time":"350.58","velocity":0.14960629921259844,"duration":"0.10"},{"name":"B6","midi":95,"time":"350.58","velocity":0.11023622047244094,"duration":"0.03"},{"name":"F#4","midi":66,"time":"350.60","velocity":0.2677165354330709,"duration":"0.02"},{"name":"A6","midi":93,"time":"350.64","velocity":0.14173228346456693,"duration":"0.09"},{"name":"C#5","midi":73,"time":"350.67","velocity":0.2125984251968504,"duration":"0.07"},{"name":"D#5","midi":75,"time":"350.67","velocity":0.3228346456692913,"duration":"0.15"},{"name":"A4","midi":69,"time":"350.69","velocity":0.4881889763779528,"duration":"0.14"},{"name":"D6","midi":86,"time":"350.70","velocity":0.1732283464566929,"duration":"0.06"},{"name":"E6","midi":88,"time":"350.70","velocity":0.2204724409448819,"duration":"0.31"},{"name":"F#7","midi":102,"time":"350.70","velocity":0.16535433070866143,"duration":"0.09"},{"name":"G7","midi":103,"time":"350.71","velocity":0.09448818897637795,"duration":"0.03"},{"name":"C2","midi":36,"time":"350.76","velocity":0.3543307086614173,"duration":"0.02"},{"name":"D6","midi":86,"time":"350.77","velocity":0.2440944881889764,"duration":"0.07"},{"name":"D#6","midi":87,"time":"350.79","velocity":0.33070866141732286,"duration":"0.31"},{"name":"A#6","midi":94,"time":"350.80","velocity":0.30708661417322836,"duration":"0.41"},{"name":"F#7","midi":102,"time":"350.80","velocity":0.2755905511811024,"duration":"3.17"},{"name":"G7","midi":103,"time":"350.80","velocity":0.2204724409448819,"duration":"0.19"},{"name":"D3","midi":50,"time":"350.81","velocity":0.4566929133858268,"duration":"0.02"},{"name":"F#4","midi":66,"time":"350.81","velocity":0.5275590551181102,"duration":"0.02"},{"name":"G#4","midi":68,"time":"350.81","velocity":0.47244094488188976,"duration":"0.03"},{"name":"B6","midi":95,"time":"350.81","velocity":0.25984251968503935,"duration":"0.02"},{"name":"A#4","midi":70,"time":"350.83","velocity":0.5118110236220472,"duration":"0.05"},{"name":"C#5","midi":73,"time":"350.83","velocity":0.41732283464566927,"duration":"0.02"},{"name":"F5","midi":77,"time":"350.83","velocity":0.30708661417322836,"duration":"0.02"},{"name":"G3","midi":55,"time":"350.84","velocity":0.5275590551181102,"duration":"0.01"},{"name":"E4","midi":64,"time":"350.84","velocity":0.5275590551181102,"duration":"0.02"},{"name":"D#5","midi":75,"time":"350.84","velocity":0.3700787401574803,"duration":"0.02"},{"name":"F#5","midi":78,"time":"350.84","velocity":0.25984251968503935,"duration":"0.05"},{"name":"G6","midi":91,"time":"350.84","velocity":0.2125984251968504,"duration":"0.03"},{"name":"A6","midi":93,"time":"350.84","velocity":0.2677165354330709,"duration":"0.15"},{"name":"C#3","midi":49,"time":"350.85","velocity":0.5748031496062992,"duration":"0.34"},{"name":"G#3","midi":56,"time":"350.85","velocity":0.5354330708661418,"duration":"0.05"},{"name":"D5","midi":74,"time":"350.85","velocity":0.30708661417322836,"duration":"0.06"},{"name":"C#6","midi":85,"time":"350.85","velocity":0.2677165354330709,"duration":"0.20"},{"name":"B6","midi":95,"time":"350.85","velocity":0.14173228346456693,"duration":"0.05"},{"name":"F#4","midi":66,"time":"350.86","velocity":0.4566929133858268,"duration":"0.06"},{"name":"F5","midi":77,"time":"350.86","velocity":0.2677165354330709,"duration":"0.05"},{"name":"G#5","midi":80,"time":"350.86","velocity":0.4645669291338583,"duration":"0.23"},{"name":"D7","midi":98,"time":"350.86","velocity":0.28346456692913385,"duration":"0.60"},{"name":"B4","midi":71,"time":"350.87","velocity":0.3858267716535433,"duration":"0.02"},{"name":"D#5","midi":75,"time":"350.88","velocity":0.2283464566929134,"duration":"0.03"},{"name":"C2","midi":36,"time":"350.90","velocity":0.2755905511811024,"duration":"0.02"},{"name":"G6","midi":91,"time":"350.90","velocity":0.14960629921259844,"duration":"0.13"},{"name":"B5","midi":83,"time":"350.91","velocity":0.14960629921259844,"duration":"0.03"},{"name":"A5","midi":81,"time":"350.92","velocity":0.28346456692913385,"duration":"0.02"},{"name":"D6","midi":86,"time":"350.92","velocity":0.2283464566929134,"duration":"0.03"},{"name":"B6","midi":95,"time":"350.92","velocity":0.16535433070866143,"duration":"0.09"},{"name":"G#3","midi":56,"time":"350.93","velocity":0.3700787401574803,"duration":"0.03"},{"name":"A#4","midi":70,"time":"350.93","velocity":0.2283464566929134,"duration":"0.02"},{"name":"C#5","midi":73,"time":"350.93","velocity":0.33858267716535434,"duration":"0.02"},{"name":"C#2","midi":37,"time":"350.94","velocity":0.23622047244094488,"duration":"0.05"},{"name":"F#4","midi":66,"time":"350.94","velocity":0.41732283464566927,"duration":"0.09"},{"name":"D5","midi":74,"time":"350.95","velocity":0.3464566929133858,"duration":"0.02"},{"name":"B4","midi":71,"time":"350.97","velocity":0.2047244094488189,"duration":"0.03"},{"name":"C#5","midi":73,"time":"350.97","velocity":0.33858267716535434,"duration":"0.02"},{"name":"A5","midi":81,"time":"350.97","velocity":0.2755905511811024,"duration":"0.02"},{"name":"F6","midi":89,"time":"350.97","velocity":0.1732283464566929,"duration":"0.07"},{"name":"D5","midi":74,"time":"350.99","velocity":0.36220472440944884,"duration":"0.07"},{"name":"E5","midi":76,"time":"350.99","velocity":0.2125984251968504,"duration":"0.03"},{"name":"A#5","midi":82,"time":"350.99","velocity":0.3937007874015748,"duration":"0.14"},{"name":"C6","midi":84,"time":"350.99","velocity":0.28346456692913385,"duration":"0.16"},{"name":"C#2","midi":37,"time":"351.00","velocity":0.2125984251968504,"duration":"0.03"},{"name":"G#4","midi":68,"time":"351.02","velocity":0.4015748031496063,"duration":"0.02"},{"name":"E6","midi":88,"time":"351.02","velocity":0.2204724409448819,"duration":"0.03"},{"name":"C2","midi":36,"time":"351.03","velocity":0.23622047244094488,"duration":"0.02"},{"name":"G#3","midi":56,"time":"351.03","velocity":0.4645669291338583,"duration":"0.05"},{"name":"F#4","midi":66,"time":"351.05","velocity":0.36220472440944884,"duration":"0.02"},{"name":"A5","midi":81,"time":"351.05","velocity":0.3700787401574803,"duration":"0.12"},{"name":"D#5","midi":75,"time":"351.06","velocity":0.3779527559055118,"duration":"0.10"},{"name":"D4","midi":62,"time":"351.07","velocity":0.33070866141732286,"duration":"0.13"},{"name":"F#5","midi":78,"time":"351.07","velocity":0.18110236220472442,"duration":"0.03"},{"name":"C#6","midi":85,"time":"351.08","velocity":0.28346456692913385,"duration":"0.12"},{"name":"C#2","midi":37,"time":"351.09","velocity":0.2283464566929134,"duration":"0.05"},{"name":"G#3","midi":56,"time":"351.09","velocity":0.4881889763779528,"duration":"0.03"},{"name":"F#4","midi":66,"time":"351.10","velocity":0.33858267716535434,"duration":"0.05"},{"name":"G#5","midi":80,"time":"351.10","velocity":0.4094488188976378,"duration":"0.31"},{"name":"E6","midi":88,"time":"351.10","velocity":0.2440944881889764,"duration":"0.12"},{"name":"D#7","midi":99,"time":"351.10","velocity":0.28346456692913385,"duration":"0.66"},{"name":"A4","midi":69,"time":"351.13","velocity":0.3464566929133858,"duration":"0.03"},{"name":"G#3","midi":56,"time":"351.14","velocity":0.44881889763779526,"duration":"0.05"},{"name":"G#4","midi":68,"time":"351.15","velocity":0.5039370078740157,"duration":"0.23"},{"name":"A#5","midi":82,"time":"351.15","velocity":0.2677165354330709,"duration":"0.06"},{"name":"C#7","midi":97,"time":"351.15","velocity":0.33070866141732286,"duration":"0.28"},{"name":"F7","midi":101,"time":"351.16","velocity":0.1968503937007874,"duration":"0.24"},{"name":"C6","midi":84,"time":"351.17","velocity":0.25984251968503935,"duration":"0.07"},{"name":"D3","midi":50,"time":"351.19","velocity":0.5196850393700787,"duration":"0.05"},{"name":"C#5","midi":73,"time":"351.19","velocity":0.2755905511811024,"duration":"0.03"},{"name":"D6","midi":86,"time":"351.19","velocity":0.18110236220472442,"duration":"0.05"},{"name":"A6","midi":93,"time":"351.19","velocity":0.1968503937007874,"duration":"0.22"},{"name":"G7","midi":103,"time":"351.19","velocity":0.2204724409448819,"duration":"0.17"},{"name":"G3","midi":55,"time":"351.20","velocity":0.4645669291338583,"duration":"0.02"},{"name":"C#4","midi":61,"time":"351.20","velocity":0.3464566929133858,"duration":"0.02"},{"name":"B5","midi":83,"time":"351.20","velocity":0.2204724409448819,"duration":"0.03"},{"name":"D#6","midi":87,"time":"351.20","velocity":0.3700787401574803,"duration":"0.44"},{"name":"F6","midi":89,"time":"351.20","velocity":0.2755905511811024,"duration":"0.08"},{"name":"G#3","midi":56,"time":"351.22","velocity":0.5275590551181102,"duration":"0.36"},{"name":"B4","midi":71,"time":"351.22","velocity":0.25984251968503935,"duration":"0.07"},{"name":"A5","midi":81,"time":"351.22","velocity":0.23622047244094488,"duration":"0.03"},{"name":"G6","midi":91,"time":"351.22","velocity":0.08661417322834646,"duration":"0.09"},{"name":"C#3","midi":49,"time":"351.23","velocity":0.5748031496062992,"duration":"0.31"},{"name":"C#5","midi":73,"time":"351.23","velocity":0.25196850393700787,"duration":"0.06"},{"name":"D#5","midi":75,"time":"351.23","velocity":0.36220472440944884,"duration":"0.19"},{"name":"A#6","midi":94,"time":"351.23","velocity":0.14960629921259844,"duration":"0.13"},{"name":"C2","midi":36,"time":"351.24","velocity":0.3700787401574803,"duration":"0.02"},{"name":"D#4","midi":63,"time":"351.26","velocity":0.30708661417322836,"duration":"0.02"},{"name":"F5","midi":77,"time":"351.26","velocity":0.1968503937007874,"duration":"0.03"},{"name":"G5","midi":79,"time":"351.26","velocity":0.25984251968503935,"duration":"0.02"},{"name":"C6","midi":84,"time":"351.26","velocity":0.2440944881889764,"duration":"0.02"},{"name":"E6","midi":88,"time":"351.28","velocity":0.09448818897637795,"duration":"0.03"},{"name":"C5","midi":72,"time":"351.29","velocity":0.1968503937007874,"duration":"0.05"},{"name":"A#5","midi":82,"time":"351.29","velocity":0.14173228346456693,"duration":"0.03"},{"name":"F6","midi":89,"time":"351.29","velocity":0.2125984251968504,"duration":"0.12"},{"name":"B1","midi":35,"time":"351.30","velocity":0.3543307086614173,"duration":"0.02"},{"name":"D6","midi":86,"time":"351.30","velocity":0.1732283464566929,"duration":"0.05"},{"name":"G5","midi":79,"time":"351.31","velocity":0.31496062992125984,"duration":"0.03"},{"name":"F#5","midi":78,"time":"351.34","velocity":0.25196850393700787,"duration":"0.07"},{"name":"C2","midi":36,"time":"351.35","velocity":0.29133858267716534,"duration":"0.05"},{"name":"A5","midi":81,"time":"351.37","velocity":0.2283464566929134,"duration":"0.07"},{"name":"G4","midi":67,"time":"351.38","velocity":0.4330708661417323,"duration":"0.02"},{"name":"C6","midi":84,"time":"351.38","velocity":0.2755905511811024,"duration":"0.10"},{"name":"G7","midi":103,"time":"351.38","velocity":0.13385826771653545,"duration":"0.05"},{"name":"C4","midi":60,"time":"351.40","velocity":0.2992125984251969,"duration":"0.02"},{"name":"E6","midi":88,"time":"351.40","velocity":0.2125984251968504,"duration":"0.17"},{"name":"G6","midi":91,"time":"351.40","velocity":0.15748031496062992,"duration":"0.03"},{"name":"F4","midi":65,"time":"351.41","velocity":0.2283464566929134,"duration":"0.03"},{"name":"A4","midi":69,"time":"351.41","velocity":0.3543307086614173,"duration":"0.05"},{"name":"C2","midi":36,"time":"351.42","velocity":0.29133858267716534,"duration":"0.02"},{"name":"G5","midi":79,"time":"351.42","velocity":0.30708661417322836,"duration":"0.02"},{"name":"B5","midi":83,"time":"351.42","velocity":0.16535433070866143,"duration":"0.12"},{"name":"A#6","midi":94,"time":"351.42","velocity":0.14960629921259844,"duration":"0.10"},{"name":"F7","midi":101,"time":"351.42","velocity":0.28346456692913385,"duration":"0.36"},{"name":"C5","midi":72,"time":"351.43","velocity":0.2047244094488189,"duration":"0.03"},{"name":"D#5","midi":75,"time":"351.43","velocity":0.1889763779527559,"duration":"0.05"},{"name":"A6","midi":93,"time":"351.43","velocity":0.2677165354330709,"duration":"0.15"},{"name":"F#5","midi":78,"time":"351.44","velocity":0.18110236220472442,"duration":"0.05"},{"name":"G#5","midi":80,"time":"351.44","velocity":0.3937007874015748,"duration":"0.14"},{"name":"G6","midi":91,"time":"351.44","velocity":0.15748031496062992,"duration":"0.05"},{"name":"C#7","midi":97,"time":"351.44","velocity":0.3700787401574803,"duration":"2.21"},{"name":"G7","midi":103,"time":"351.44","velocity":0.18110236220472442,"duration":"0.07"},{"name":"F4","midi":65,"time":"351.45","velocity":0.1968503937007874,"duration":"0.03"},{"name":"C#6","midi":85,"time":"351.45","velocity":0.3937007874015748,"duration":"1.74"},{"name":"F#6","midi":90,"time":"351.47","velocity":0.31496062992125984,"duration":"2.43"},{"name":"C2","midi":36,"time":"351.48","velocity":0.2755905511811024,"duration":"0.03"},{"name":"F6","midi":89,"time":"351.48","velocity":0.2204724409448819,"duration":"0.08"},{"name":"D#5","midi":75,"time":"351.49","velocity":0.28346456692913385,"duration":"0.09"},{"name":"F#5","midi":78,"time":"351.50","velocity":0.29133858267716534,"duration":"0.16"},{"name":"A5","midi":81,"time":"351.50","velocity":0.2283464566929134,"duration":"0.02"},{"name":"A5","midi":81,"time":"351.53","velocity":0.3228346456692913,"duration":"0.08"},{"name":"G6","midi":91,"time":"351.53","velocity":0.14960629921259844,"duration":"0.10"},{"name":"C#2","midi":37,"time":"351.55","velocity":0.33858267716535434,"duration":"0.02"},{"name":"D3","midi":50,"time":"351.55","velocity":0.5118110236220472,"duration":"0.01"},{"name":"B6","midi":95,"time":"351.55","velocity":0.14173228346456693,"duration":"0.09"},{"name":"G7","midi":103,"time":"351.55","velocity":0.1968503937007874,"duration":"0.06"},{"name":"F#4","midi":66,"time":"351.56","velocity":0.30708661417322836,"duration":"0.08"},{"name":"A#6","midi":94,"time":"351.56","velocity":0.12598425196850394,"duration":"0.03"},{"name":"B1","midi":35,"time":"351.57","velocity":0.5590551181102362,"duration":"0.01"},{"name":"F2","midi":41,"time":"351.57","velocity":0.6771653543307087,"duration":"0.02"},{"name":"C4","midi":60,"time":"351.57","velocity":0.28346456692913385,"duration":"0.02"},{"name":"A#4","midi":70,"time":"351.57","velocity":0.33858267716535434,"duration":"0.03"},{"name":"D6","midi":86,"time":"351.57","velocity":0.16535433070866143,"duration":"0.03"},{"name":"D7","midi":98,"time":"351.57","velocity":0.1968503937007874,"duration":"0.07"},{"name":"D5","midi":74,"time":"351.58","velocity":0.3464566929133858,"duration":"0.02"},{"name":"G#2","midi":44,"time":"351.59","velocity":0.6141732283464567,"duration":"0.01"},{"name":"C6","midi":84,"time":"351.59","velocity":0.23622047244094488,"duration":"0.03"},{"name":"E6","midi":88,"time":"351.59","velocity":0.3464566929133858,"duration":"0.28"},{"name":"C#2","midi":37,"time":"351.60","velocity":0.5433070866141733,"duration":"0.01"},{"name":"A4","midi":69,"time":"351.60","velocity":0.44881889763779526,"duration":"0.35"},{"name":"C#5","midi":73,"time":"351.60","velocity":0.41732283464566927,"duration":"0.50"},{"name":"G#5","midi":80,"time":"351.60","velocity":0.31496062992125984,"duration":"0.28"},{"name":"B5","midi":83,"time":"351.60","velocity":0.11811023622047244,"duration":"0.07"},{"name":"G1","midi":31,"time":"351.62","velocity":0.6141732283464567,"duration":"0.01"},{"name":"D3","midi":50,"time":"351.62","velocity":0.5984251968503937,"duration":"0.33"},{"name":"A3","midi":57,"time":"351.62","velocity":0.3779527559055118,"duration":"0.03"},{"name":"E5","midi":76,"time":"351.62","velocity":0.3779527559055118,"duration":"0.34"},{"name":"D6","midi":86,"time":"351.62","velocity":0.10236220472440945,"duration":"0.08"},{"name":"G7","midi":103,"time":"351.62","velocity":0.15748031496062992,"duration":"0.06"},{"name":"F#1","midi":30,"time":"351.63","velocity":0.6141732283464567,"duration":"0.01"},{"name":"C#4","midi":61,"time":"351.63","velocity":0.36220472440944884,"duration":"0.17"},{"name":"A#1","midi":34,"time":"351.64","velocity":0.5826771653543307,"duration":"0.01"},{"name":"A#6","midi":94,"time":"351.64","velocity":0.09448818897637795,"duration":"0.05"},{"name":"C#2","midi":37,"time":"351.65","velocity":0.5511811023622047,"duration":"0.01"},{"name":"F#4","midi":66,"time":"351.65","velocity":0.4566929133858268,"duration":"0.16"},{"name":"D#6","midi":87,"time":"351.65","velocity":0.11023622047244094,"duration":"0.06"},{"name":"G6","midi":91,"time":"351.65","velocity":0.10236220472440945,"duration":"0.05"},{"name":"A3","midi":57,"time":"351.67","velocity":0.23622047244094488,"duration":"0.02"},{"name":"F6","midi":89,"time":"351.67","velocity":0.11811023622047244,"duration":"0.03"},{"name":"A#1","midi":34,"time":"351.69","velocity":0.4645669291338583,"duration":"0.02"},{"name":"B5","midi":83,"time":"351.70","velocity":0.09448818897637795,"duration":"0.06"},{"name":"A#6","midi":94,"time":"351.71","velocity":0.11811023622047244,"duration":"0.08"},{"name":"B1","midi":35,"time":"351.73","velocity":0.33858267716535434,"duration":"0.02"},{"name":"D#6","midi":87,"time":"351.73","velocity":0.16535433070866143,"duration":"0.36"},{"name":"C7","midi":96,"time":"351.73","velocity":0.14960629921259844,"duration":"0.03"},{"name":"G5","midi":79,"time":"351.74","velocity":0.14173228346456693,"duration":"0.03"},{"name":"D#2","midi":39,"time":"351.76","velocity":0.33858267716535434,"duration":"0.02"},{"name":"B5","midi":83,"time":"351.77","velocity":0.09448818897637795,"duration":"0.05"},{"name":"F7","midi":101,"time":"351.79","velocity":0.07086614173228346,"duration":"0.05"},{"name":"C#4","midi":61,"time":"351.81","velocity":0.3700787401574803,"duration":"0.14"},{"name":"B4","midi":71,"time":"351.81","velocity":0.2440944881889764,"duration":"0.09"},{"name":"F6","midi":89,"time":"351.84","velocity":0.16535433070866143,"duration":"0.09"},{"name":"F#4","midi":66,"time":"351.85","velocity":0.4251968503937008,"duration":"0.48"},{"name":"A#5","midi":82,"time":"351.85","velocity":0.2047244094488189,"duration":"0.03"},{"name":"A3","midi":57,"time":"351.86","velocity":0.4330708661417323,"duration":"0.08"},{"name":"G7","midi":103,"time":"351.86","velocity":0.11023622047244094,"duration":"0.03"},{"name":"A#6","midi":94,"time":"351.87","velocity":0.2204724409448819,"duration":"0.16"},{"name":"C7","midi":96,"time":"351.90","velocity":0.09448818897637795,"duration":"0.05"},{"name":"D2","midi":38,"time":"351.91","velocity":0.3779527559055118,"duration":"0.02"},{"name":"G#5","midi":80,"time":"351.91","velocity":0.36220472440944884,"duration":"0.08"},{"name":"B4","midi":71,"time":"351.92","velocity":0.15748031496062992,"duration":"0.03"},{"name":"C#2","midi":37,"time":"351.93","velocity":0.5039370078740157,"duration":"0.02"},{"name":"G7","midi":103,"time":"351.93","velocity":0.1968503937007874,"duration":"0.24"},{"name":"A#3","midi":58,"time":"351.94","velocity":0.41732283464566927,"duration":"0.02"},{"name":"D#2","midi":39,"time":"351.95","velocity":0.5748031496062992,"duration":"0.02"},{"name":"D4","midi":62,"time":"351.95","velocity":0.31496062992125984,"duration":"0.02"},{"name":"D#7","midi":99,"time":"351.95","velocity":0.18110236220472442,"duration":"0.19"},{"name":"F7","midi":101,"time":"351.95","velocity":0.36220472440944884,"duration":"0.28"},{"name":"B3","midi":59,"time":"351.97","velocity":0.28346456692913385,"duration":"0.02"},{"name":"D7","midi":98,"time":"351.97","velocity":0.2047244094488189,"duration":"0.05"},{"name":"E2","midi":40,"time":"351.98","velocity":0.5196850393700787,"duration":"0.02"},{"name":"D3","midi":50,"time":"351.98","velocity":0.5905511811023622,"duration":"0.35"},{"name":"C#4","midi":61,"time":"351.99","velocity":0.2992125984251969,"duration":"0.12"},{"name":"A4","midi":69,"time":"351.99","velocity":0.5433070866141733,"duration":"0.57"},{"name":"E5","midi":76,"time":"352.00","velocity":0.4881889763779528,"duration":"0.37"},{"name":"F6","midi":89,"time":"352.00","velocity":0.2047244094488189,"duration":"0.03"},{"name":"A3","midi":57,"time":"352.01","velocity":0.5511811023622047,"duration":"0.31"},{"name":"G5","midi":79,"time":"352.01","velocity":0.18110236220472442,"duration":"0.03"},{"name":"A#5","midi":82,"time":"352.02","velocity":0.1889763779527559,"duration":"0.03"},{"name":"B6","midi":95,"time":"352.02","velocity":0.14173228346456693,"duration":"0.08"},{"name":"C7","midi":96,"time":"352.02","velocity":0.13385826771653545,"duration":"0.07"},{"name":"B5","midi":83,"time":"352.06","velocity":0.14173228346456693,"duration":"0.07"},{"name":"F6","midi":89,"time":"352.07","velocity":0.11023622047244094,"duration":"0.08"},{"name":"G#5","midi":80,"time":"352.08","velocity":0.2283464566929134,"duration":"0.07"},{"name":"G5","midi":79,"time":"352.10","velocity":0.25196850393700787,"duration":"0.06"},{"name":"D#6","midi":87,"time":"352.10","velocity":0.10236220472440945,"duration":"0.03"},{"name":"C#4","midi":61,"time":"352.12","velocity":0.30708661417322836,"duration":"0.09"},{"name":"A#6","midi":94,"time":"352.12","velocity":0.14173228346456693,"duration":"0.12"},{"name":"C7","midi":96,"time":"352.13","velocity":0.10236220472440945,"duration":"0.09"},{"name":"C2","midi":36,"time":"352.14","velocity":0.29133858267716534,"duration":"0.02"},{"name":"D5","midi":74,"time":"352.14","velocity":0.12598425196850394,"duration":"0.05"},{"name":"B5","midi":83,"time":"352.14","velocity":0.08661417322834646,"duration":"0.03"},{"name":"C5","midi":72,"time":"352.15","velocity":0.15748031496062992,"duration":"0.05"},{"name":"A#5","midi":82,"time":"352.15","velocity":0.12598425196850394,"duration":"0.05"},{"name":"F6","midi":89,"time":"352.16","velocity":0.12598425196850394,"duration":"0.09"},{"name":"D#7","midi":99,"time":"352.17","velocity":0.07086614173228346,"duration":"0.03"},{"name":"C#5","midi":73,"time":"352.19","velocity":0.4330708661417323,"duration":"0.16"},{"name":"D6","midi":86,"time":"352.19","velocity":0.11023622047244094,"duration":"0.05"},{"name":"G6","midi":91,"time":"352.19","velocity":0.08661417322834646,"duration":"0.12"},{"name":"G7","midi":103,"time":"352.20","velocity":0.09448818897637795,"duration":"0.06"},{"name":"D2","midi":38,"time":"352.22","velocity":0.23622047244094488,"duration":"0.05"},{"name":"C#4","midi":61,"time":"352.24","velocity":0.2283464566929134,"duration":"0.02"},{"name":"A#6","midi":94,"time":"352.24","velocity":0.14960629921259844,"duration":"0.10"},{"name":"C#2","midi":37,"time":"352.27","velocity":0.2283464566929134,"duration":"0.02"},{"name":"C#4","midi":61,"time":"352.28","velocity":0.23622047244094488,"duration":"0.02"},{"name":"C7","midi":96,"time":"352.28","velocity":0.2204724409448819,"duration":"0.23"},{"name":"D#7","midi":99,"time":"352.28","velocity":0.2204724409448819,"duration":"0.16"},{"name":"G#5","midi":80,"time":"352.29","velocity":0.2204724409448819,"duration":"0.05"},{"name":"F6","midi":89,"time":"352.30","velocity":0.28346456692913385,"duration":"0.14"},{"name":"E7","midi":100,"time":"352.30","velocity":0.2440944881889764,"duration":"0.30"},{"name":"F7","midi":101,"time":"352.30","velocity":0.30708661417322836,"duration":"0.26"},{"name":"G7","midi":103,"time":"352.30","velocity":0.2440944881889764,"duration":"0.17"},{"name":"G#6","midi":92,"time":"352.31","velocity":0.28346456692913385,"duration":"0.27"},{"name":"G3","midi":55,"time":"352.33","velocity":0.5118110236220472,"duration":"0.05"},{"name":"G4","midi":67,"time":"352.33","velocity":0.5118110236220472,"duration":"0.02"},{"name":"C6","midi":84,"time":"352.33","velocity":0.3464566929133858,"duration":"0.03"},{"name":"D#6","midi":87,"time":"352.33","velocity":0.2283464566929134,"duration":"0.02"},{"name":"B6","midi":95,"time":"352.33","velocity":0.2755905511811024,"duration":"0.10"},{"name":"D4","midi":62,"time":"352.34","velocity":0.5354330708661418,"duration":"0.01"},{"name":"G6","midi":91,"time":"352.34","velocity":0.23622047244094488,"duration":"0.07"},{"name":"D7","midi":98,"time":"352.34","velocity":0.16535433070866143,"duration":"0.08"},{"name":"E2","midi":40,"time":"352.35","velocity":0.44881889763779526,"duration":"0.02"},{"name":"D3","midi":50,"time":"352.35","velocity":0.5511811023622047,"duration":"0.26"},{"name":"F#4","midi":66,"time":"352.35","velocity":0.44881889763779526,"duration":"0.02"},{"name":"D6","midi":86,"time":"352.35","velocity":0.2283464566929134,"duration":"0.08"},{"name":"G#3","midi":56,"time":"352.37","velocity":0.4251968503937008,"duration":"0.02"},{"name":"F4","midi":65,"time":"352.37","velocity":0.4094488188976378,"duration":"0.02"},{"name":"B4","midi":71,"time":"352.37","velocity":0.3543307086614173,"duration":"0.03"},{"name":"C6","midi":84,"time":"352.37","velocity":0.1889763779527559,"duration":"0.07"},{"name":"A#6","midi":94,"time":"352.38","velocity":0.14960629921259844,"duration":"0.06"},{"name":"F#4","midi":66,"time":"352.40","velocity":0.3937007874015748,"duration":"0.07"},{"name":"E5","midi":76,"time":"352.40","velocity":0.2440944881889764,"duration":"0.06"},{"name":"D#6","midi":87,"time":"352.40","velocity":0.14960629921259844,"duration":"0.06"},{"name":"A#3","midi":58,"time":"352.41","velocity":0.2992125984251969,"duration":"0.02"},{"name":"C5","midi":72,"time":"352.41","velocity":0.33858267716535434,"duration":"0.02"},{"name":"C#4","midi":61,"time":"352.42","velocity":0.3858267716535433,"duration":"0.29"},{"name":"E6","midi":88,"time":"352.42","velocity":0.25984251968503935,"duration":"0.22"},{"name":"A#5","midi":82,"time":"352.43","velocity":0.1889763779527559,"duration":"0.03"},{"name":"G6","midi":91,"time":"352.43","velocity":0.10236220472440945,"duration":"0.05"},{"name":"D#5","midi":75,"time":"352.45","velocity":0.2125984251968504,"duration":"0.05"},{"name":"G#5","midi":80,"time":"352.45","velocity":0.48031496062992124,"duration":"0.14"},{"name":"F6","midi":89,"time":"352.45","velocity":0.11811023622047244,"duration":"0.09"},{"name":"B6","midi":95,"time":"352.45","velocity":0.18110236220472442,"duration":"0.10"},{"name":"D7","midi":98,"time":"352.45","velocity":0.10236220472440945,"duration":"0.07"},{"name":"A3","midi":57,"time":"352.47","velocity":0.5590551181102362,"duration":"0.23"},{"name":"B5","midi":83,"time":"352.47","velocity":0.1889763779527559,"duration":"0.05"},{"name":"F#4","midi":66,"time":"352.48","velocity":0.5354330708661418,"duration":"0.76"},{"name":"F5","midi":77,"time":"352.48","velocity":0.33858267716535434,"duration":"0.02"},{"name":"A#6","midi":94,"time":"352.48","velocity":0.09448818897637795,"duration":"0.03"},{"name":"D#7","midi":99,"time":"352.48","velocity":0.11811023622047244,"duration":"0.03"},{"name":"B4","midi":71,"time":"352.49","velocity":0.3228346456692913,"duration":"0.02"},{"name":"A#5","midi":82,"time":"352.50","velocity":0.2047244094488189,"duration":"0.06"},{"name":"A6","midi":93,"time":"352.50","velocity":0.09448818897637795,"duration":"0.03"},{"name":"G7","midi":103,"time":"352.50","velocity":0.23622047244094488,"duration":"0.48"},{"name":"G6","midi":91,"time":"352.51","velocity":0.2204724409448819,"duration":"0.12"},{"name":"D2","midi":38,"time":"352.52","velocity":0.28346456692913385,"duration":"0.03"},{"name":"E5","midi":76,"time":"352.52","velocity":0.31496062992125984,"duration":"0.33"},{"name":"D#7","midi":99,"time":"352.52","velocity":0.14960629921259844,"duration":"0.03"},{"name":"D#6","midi":87,"time":"352.55","velocity":0.09448818897637795,"duration":"0.05"},{"name":"C7","midi":96,"time":"352.55","velocity":0.14960629921259844,"duration":"0.16"},{"name":"D2","midi":38,"time":"352.57","velocity":0.25984251968503935,"duration":"0.05"},{"name":"A#5","midi":82,"time":"352.57","velocity":0.2677165354330709,"duration":"0.03"},{"name":"F7","midi":101,"time":"352.57","velocity":0.11811023622047244,"duration":"0.03"},{"name":"A5","midi":81,"time":"352.58","velocity":0.3543307086614173,"duration":"0.07"},{"name":"F6","midi":89,"time":"352.58","velocity":0.15748031496062992,"duration":"0.08"},{"name":"C#3","midi":49,"time":"352.60","velocity":0.5196850393700787,"duration":"0.01"},{"name":"G5","midi":79,"time":"352.60","velocity":0.25196850393700787,"duration":"0.02"},{"name":"D#6","midi":87,"time":"352.60","velocity":0.09448818897637795,"duration":"0.05"},{"name":"B6","midi":95,"time":"352.60","velocity":0.07874015748031496,"duration":"0.05"},{"name":"D3","midi":50,"time":"352.62","velocity":0.5590551181102362,"duration":"0.08"},{"name":"G#5","midi":80,"time":"352.62","velocity":0.41732283464566927,"duration":"0.15"},{"name":"A#5","midi":82,"time":"352.62","velocity":0.16535433070866143,"duration":"0.10"},{"name":"D#7","midi":99,"time":"352.63","velocity":0.13385826771653545,"duration":"0.05"},{"name":"C5","midi":72,"time":"352.64","velocity":0.18110236220472442,"duration":"0.03"},{"name":"G5","midi":79,"time":"352.64","velocity":0.13385826771653545,"duration":"0.05"},{"name":"A5","midi":81,"time":"352.66","velocity":0.3228346456692913,"duration":"0.03"},{"name":"C#5","midi":73,"time":"352.67","velocity":0.41732283464566927,"duration":"0.72"},{"name":"F6","midi":89,"time":"352.69","velocity":0.1889763779527559,"duration":"0.07"},{"name":"B5","midi":83,"time":"352.70","velocity":0.2283464566929134,"duration":"0.10"},{"name":"A#6","midi":94,"time":"352.70","velocity":0.1968503937007874,"duration":"0.08"},{"name":"E7","midi":100,"time":"352.70","velocity":0.11023622047244094,"duration":"0.05"},{"name":"B2","midi":47,"time":"352.71","velocity":0.5275590551181102,"duration":"0.01"},{"name":"A#3","midi":58,"time":"352.71","velocity":0.4409448818897638,"duration":"0.02"},{"name":"F7","midi":101,"time":"352.71","velocity":0.3543307086614173,"duration":"0.22"},{"name":"D3","midi":50,"time":"352.72","velocity":0.6220472440944882,"duration":"0.34"},{"name":"G6","midi":91,"time":"352.72","velocity":0.08661417322834646,"duration":"0.03"},{"name":"D7","midi":98,"time":"352.72","velocity":0.11811023622047244,"duration":"0.03"},{"name":"D#7","midi":99,"time":"352.72","velocity":0.2440944881889764,"duration":"0.22"},{"name":"A3","midi":57,"time":"352.73","velocity":0.4566929133858268,"duration":"0.21"},{"name":"G6","midi":91,"time":"352.77","velocity":0.12598425196850394,"duration":"0.06"},{"name":"A#6","midi":94,"time":"352.79","velocity":0.18110236220472442,"duration":"0.10"},{"name":"C7","midi":96,"time":"352.79","velocity":0.08661417322834646,"duration":"0.03"},{"name":"G#5","midi":80,"time":"352.80","velocity":0.31496062992125984,"duration":"0.24"},{"name":"C#4","midi":61,"time":"352.83","velocity":0.2677165354330709,"duration":"0.09"},{"name":"B5","midi":83,"time":"352.83","velocity":0.13385826771653545,"duration":"0.05"},{"name":"E5","midi":76,"time":"352.86","velocity":0.25984251968503935,"duration":"0.21"},{"name":"F6","midi":89,"time":"352.91","velocity":0.07874015748031496,"duration":"0.05"},{"name":"A#6","midi":94,"time":"352.91","velocity":0.2440944881889764,"duration":"0.67"},{"name":"C7","midi":96,"time":"352.91","velocity":0.11023622047244094,"duration":"0.03"},{"name":"B5","midi":83,"time":"352.93","velocity":0.1968503937007874,"duration":"0.08"},{"name":"D2","midi":38,"time":"352.94","velocity":0.1732283464566929,"duration":"0.03"},{"name":"D#7","midi":99,"time":"352.97","velocity":0.11023622047244094,"duration":"0.05"},{"name":"F7","midi":101,"time":"352.97","velocity":0.11811023622047244,"duration":"0.03"},{"name":"F6","midi":89,"time":"353.00","velocity":0.11023622047244094,"duration":"0.05"},{"name":"D#2","midi":39,"time":"353.05","velocity":0.2677165354330709,"duration":"0.02"},{"name":"D#3","midi":51,"time":"353.06","velocity":0.5196850393700787,"duration":"0.02"},{"name":"C6","midi":84,"time":"353.06","velocity":0.12598425196850394,"duration":"0.03"},{"name":"E3","midi":52,"time":"353.08","velocity":0.5433070866141733,"duration":"0.01"},{"name":"E5","midi":76,"time":"353.08","velocity":0.3858267716535433,"duration":"0.38"},{"name":"F6","midi":89,"time":"353.08","velocity":0.16535433070866143,"duration":"0.03"},{"name":"D7","midi":98,"time":"353.08","velocity":0.1889763779527559,"duration":"0.06"},{"name":"D#7","midi":99,"time":"353.08","velocity":0.15748031496062992,"duration":"0.14"},{"name":"F7","midi":101,"time":"353.08","velocity":0.2992125984251969,"duration":"0.16"},{"name":"F2","midi":41,"time":"353.09","velocity":0.5905511811023622,"duration":"0.01"},{"name":"D#3","midi":51,"time":"353.09","velocity":0.5511811023622047,"duration":"0.01"},{"name":"B4","midi":71,"time":"353.09","velocity":0.25984251968503935,"duration":"0.02"},{"name":"D5","midi":74,"time":"353.09","velocity":0.31496062992125984,"duration":"0.02"},{"name":"G#5","midi":80,"time":"353.09","velocity":0.2204724409448819,"duration":"0.03"},{"name":"B6","midi":95,"time":"353.09","velocity":0.1732283464566929,"duration":"0.15"},{"name":"G#2","midi":44,"time":"353.10","velocity":0.5984251968503937,"duration":"0.01"},{"name":"D3","midi":50,"time":"353.10","velocity":0.5905511811023622,"duration":"0.16"},{"name":"A5","midi":81,"time":"353.10","velocity":0.12598425196850394,"duration":"0.03"},{"name":"G7","midi":103,"time":"353.10","velocity":0.1889763779527559,"duration":"0.07"},{"name":"F#2","midi":42,"time":"353.12","velocity":0.5118110236220472,"duration":"0.01"},{"name":"C5","midi":72,"time":"353.12","velocity":0.2283464566929134,"duration":"0.02"},{"name":"A6","midi":93,"time":"353.12","velocity":0.1889763779527559,"duration":"0.13"},{"name":"C7","midi":96,"time":"353.12","velocity":0.14960629921259844,"duration":"0.22"},{"name":"E1","midi":28,"time":"353.13","velocity":0.5826771653543307,"duration":"0.01"},{"name":"A3","midi":57,"time":"353.13","velocity":0.49606299212598426,"duration":"0.28"},{"name":"A#5","midi":82,"time":"353.13","velocity":0.18110236220472442,"duration":"0.08"},{"name":"F6","midi":89,"time":"353.13","velocity":0.1732283464566929,"duration":"0.07"},{"name":"F#1","midi":30,"time":"353.14","velocity":0.5905511811023622,"duration":"0.01"},{"name":"G#5","midi":80,"time":"353.14","velocity":0.2440944881889764,"duration":"0.10"},{"name":"A5","midi":81,"time":"353.15","velocity":0.33070866141732286,"duration":"0.26"},{"name":"A#1","midi":34,"time":"353.16","velocity":0.4409448818897638,"duration":"0.02"},{"name":"C#4","midi":61,"time":"353.17","velocity":0.33070866141732286,"duration":"0.26"},{"name":"B4","midi":71,"time":"353.17","velocity":0.1968503937007874,"duration":"0.05"},{"name":"D#6","midi":87,"time":"353.17","velocity":0.2047244094488189,"duration":"0.16"},{"name":"G6","midi":91,"time":"353.20","velocity":0.18110236220472442,"duration":"0.06"},{"name":"C#2","midi":37,"time":"353.22","velocity":0.3858267716535433,"duration":"0.02"},{"name":"A#5","midi":82,"time":"353.22","velocity":0.14173228346456693,"duration":"0.05"},{"name":"D6","midi":86,"time":"353.22","velocity":0.11023622047244094,"duration":"0.03"},{"name":"B4","midi":71,"time":"353.23","velocity":0.2047244094488189,"duration":"0.03"},{"name":"F6","midi":89,"time":"353.23","velocity":0.18110236220472442,"duration":"0.17"},{"name":"F#4","midi":66,"time":"353.24","velocity":0.48031496062992124,"duration":"0.19"},{"name":"C6","midi":84,"time":"353.26","velocity":0.14960629921259844,"duration":"0.06"},{"name":"C#3","midi":49,"time":"353.27","velocity":0.5354330708661418,"duration":"0.01"},{"name":"B5","midi":83,"time":"353.27","velocity":0.13385826771653545,"duration":"0.03"},{"name":"D3","midi":50,"time":"353.28","velocity":0.5590551181102362,"duration":"0.17"},{"name":"G6","midi":91,"time":"353.28","velocity":0.18110236220472442,"duration":"0.07"},{"name":"A#5","midi":82,"time":"353.29","velocity":0.23622047244094488,"duration":"0.15"},{"name":"C2","midi":36,"time":"353.30","velocity":0.4409448818897638,"duration":"0.02"},{"name":"B6","midi":95,"time":"353.30","velocity":0.11023622047244094,"duration":"0.07"},{"name":"B4","midi":71,"time":"353.31","velocity":0.2047244094488189,"duration":"0.07"},{"name":"D6","midi":86,"time":"353.33","velocity":0.11811023622047244,"duration":"0.07"},{"name":"D#7","midi":99,"time":"353.34","velocity":0.09448818897637795,"duration":"0.06"},{"name":"G#5","midi":80,"time":"353.36","velocity":0.13385826771653545,"duration":"0.03"},{"name":"D#2","midi":39,"time":"353.37","velocity":0.3464566929133858,"duration":"0.02"},{"name":"G6","midi":91,"time":"353.37","velocity":0.14173228346456693,"duration":"0.06"},{"name":"C2","midi":36,"time":"353.40","velocity":0.4015748031496063,"duration":"0.02"},{"name":"C7","midi":96,"time":"353.41","velocity":0.14173228346456693,"duration":"0.10"},{"name":"F7","midi":101,"time":"353.43","velocity":0.33858267716535434,"duration":"0.13"},{"name":"G7","midi":103,"time":"353.43","velocity":0.2204724409448819,"duration":"0.15"},{"name":"G6","midi":91,"time":"353.44","velocity":0.2283464566929134,"duration":"0.05"},{"name":"G#6","midi":92,"time":"353.44","velocity":0.1968503937007874,"duration":"0.07"},{"name":"D7","midi":98,"time":"353.44","velocity":0.14173228346456693,"duration":"0.05"},{"name":"D#7","midi":99,"time":"353.44","velocity":0.2047244094488189,"duration":"0.60"},{"name":"C#2","midi":37,"time":"353.45","velocity":0.5511811023622047,"duration":"0.01"},{"name":"G#3","midi":56,"time":"353.45","velocity":0.44881889763779526,"duration":"0.02"},{"name":"D4","midi":62,"time":"353.45","velocity":0.29133858267716534,"duration":"0.02"},{"name":"G5","midi":79,"time":"353.45","velocity":0.33070866141732286,"duration":"0.03"},{"name":"F6","midi":89,"time":"353.45","velocity":0.2125984251968504,"duration":"0.10"},{"name":"C2","midi":36,"time":"353.47","velocity":0.5905511811023622,"duration":"0.01"},{"name":"G#5","midi":80,"time":"353.47","velocity":0.31496062992125984,"duration":"0.40"},{"name":"A6","midi":93,"time":"353.47","velocity":0.14960629921259844,"duration":"0.12"},{"name":"D#2","midi":39,"time":"353.48","velocity":0.5826771653543307,"duration":"0.01"},{"name":"D3","midi":50,"time":"353.48","velocity":0.6220472440944882,"duration":"0.36"},{"name":"A3","midi":57,"time":"353.48","velocity":0.49606299212598426,"duration":"0.03"},{"name":"E5","midi":76,"time":"353.48","velocity":0.29133858267716534,"duration":"0.22"},{"name":"F#2","midi":42,"time":"353.49","velocity":0.5354330708661418,"duration":"0.01"},{"name":"C#5","midi":73,"time":"353.49","velocity":0.3543307086614173,"duration":"0.10"},{"name":"F2","midi":41,"time":"353.50","velocity":0.5433070866141733,"duration":"0.01"},{"name":"F#4","midi":66,"time":"353.50","velocity":0.49606299212598426,"duration":"0.14"},{"name":"G1","midi":31,"time":"353.51","velocity":0.5590551181102362,"duration":"0.02"},{"name":"B4","midi":71,"time":"353.51","velocity":0.2283464566929134,"duration":"0.02"},{"name":"A3","midi":57,"time":"353.52","velocity":0.2992125984251969,"duration":"0.02"},{"name":"C#4","midi":61,"time":"353.52","velocity":0.47244094488188976,"duration":"0.33"},{"name":"C6","midi":84,"time":"353.52","velocity":0.09448818897637795,"duration":"0.03"},{"name":"G6","midi":91,"time":"353.52","velocity":0.13385826771653545,"duration":"0.03"},{"name":"B6","midi":95,"time":"353.53","velocity":0.13385826771653545,"duration":"0.05"},{"name":"B5","midi":83,"time":"353.56","velocity":0.16535433070866143,"duration":"0.10"},{"name":"G6","midi":91,"time":"353.57","velocity":0.1732283464566929,"duration":"0.05"},{"name":"D#2","midi":39,"time":"353.59","velocity":0.2992125984251969,"duration":"0.02"},{"name":"A#6","midi":94,"time":"353.59","velocity":0.1732283464566929,"duration":"0.13"},{"name":"C7","midi":96,"time":"353.59","velocity":0.11023622047244094,"duration":"0.12"},{"name":"C6","midi":84,"time":"353.60","velocity":0.13385826771653545,"duration":"0.07"},{"name":"F6","midi":89,"time":"353.60","velocity":0.1732283464566929,"duration":"0.12"},{"name":"A3","midi":57,"time":"353.65","velocity":0.47244094488188976,"duration":"0.16"},{"name":"F#4","midi":66,"time":"353.65","velocity":0.4881889763779528,"duration":"0.14"},{"name":"B1","midi":35,"time":"353.67","velocity":0.3858267716535433,"duration":"0.02"},{"name":"B5","midi":83,"time":"353.67","velocity":0.10236220472440945,"duration":"0.07"},{"name":"G6","midi":91,"time":"353.67","velocity":0.11023622047244094,"duration":"0.07"},{"name":"A#5","midi":82,"time":"353.69","velocity":0.23622047244094488,"duration":"0.08"},{"name":"D#6","midi":87,"time":"353.70","velocity":0.07874015748031496,"duration":"0.07"},{"name":"D#2","midi":39,"time":"353.71","velocity":0.28346456692913385,"duration":"0.02"},{"name":"D7","midi":98,"time":"353.71","velocity":0.11023622047244094,"duration":"0.03"},{"name":"B6","midi":95,"time":"353.72","velocity":0.2204724409448819,"duration":"0.17"},{"name":"C#2","midi":37,"time":"353.73","velocity":0.3700787401574803,"duration":"0.02"},{"name":"E5","midi":76,"time":"353.74","velocity":0.07086614173228346,"duration":"0.05"},{"name":"E6","midi":88,"time":"353.77","velocity":0.15748031496062992,"duration":"0.07"},{"name":"C#2","midi":37,"time":"353.78","velocity":0.4015748031496063,"duration":"0.02"},{"name":"E7","midi":100,"time":"353.78","velocity":0.28346456692913385,"duration":"1.26"},{"name":"G7","midi":103,"time":"353.78","velocity":0.2283464566929134,"duration":"0.07"},{"name":"G4","midi":67,"time":"353.79","velocity":0.1968503937007874,"duration":"0.03"},{"name":"A6","midi":93,"time":"353.79","velocity":0.15748031496062992,"duration":"0.05"},{"name":"A#6","midi":94,"time":"353.79","velocity":0.2755905511811024,"duration":"0.24"},{"name":"B5","midi":83,"time":"353.81","velocity":0.25196850393700787,"duration":"0.15"},{"name":"F4","midi":65,"time":"353.83","velocity":0.5039370078740157,"duration":"0.02"},{"name":"D6","midi":86,"time":"353.83","velocity":0.2992125984251969,"duration":"0.06"},{"name":"F6","midi":89,"time":"353.83","velocity":0.2992125984251969,"duration":"0.21"},{"name":"C7","midi":96,"time":"353.83","velocity":0.2677165354330709,"duration":"0.06"},{"name":"F7","midi":101,"time":"353.83","velocity":0.2992125984251969,"duration":"0.30"},{"name":"E5","midi":76,"time":"353.84","velocity":0.5118110236220472,"duration":"0.03"},{"name":"A5","midi":81,"time":"353.84","velocity":0.4094488188976378,"duration":"0.13"},{"name":"G6","midi":91,"time":"353.84","velocity":0.2992125984251969,"duration":"0.44"},{"name":"E2","midi":40,"time":"353.85","velocity":0.4566929133858268,"duration":"0.05"},{"name":"E4","midi":64,"time":"353.85","velocity":0.5118110236220472,"duration":"0.02"},{"name":"G4","midi":67,"time":"353.85","velocity":0.5196850393700787,"duration":"0.01"},{"name":"D3","midi":50,"time":"353.86","velocity":0.5826771653543307,"duration":"0.36"},{"name":"A3","midi":57,"time":"353.86","velocity":0.47244094488188976,"duration":"0.02"},{"name":"A4","midi":69,"time":"353.86","velocity":0.49606299212598426,"duration":"0.08"},{"name":"F#5","midi":78,"time":"353.86","velocity":0.3700787401574803,"duration":"0.03"},{"name":"A#5","midi":82,"time":"353.86","velocity":0.2755905511811024,"duration":"0.02"},{"name":"D#5","midi":75,"time":"353.87","velocity":0.44881889763779526,"duration":"0.03"},{"name":"E6","midi":88,"time":"353.87","velocity":0.2755905511811024,"duration":"0.34"},{"name":"G#3","midi":56,"time":"353.88","velocity":0.31496062992125984,"duration":"0.02"},{"name":"F4","midi":65,"time":"353.88","velocity":0.30708661417322836,"duration":"0.02"},{"name":"B4","midi":71,"time":"353.88","velocity":0.4015748031496063,"duration":"0.03"},{"name":"D#2","midi":39,"time":"353.90","velocity":0.2755905511811024,"duration":"0.02"},{"name":"C#5","midi":73,"time":"353.90","velocity":0.33070866141732286,"duration":"0.02"},{"name":"F5","midi":77,"time":"353.90","velocity":0.33070866141732286,"duration":"0.05"},{"name":"A#5","midi":82,"time":"353.90","velocity":0.15748031496062992,"duration":"0.03"},{"name":"A#3","midi":58,"time":"353.91","velocity":0.47244094488188976,"duration":"0.02"},{"name":"F#4","midi":66,"time":"353.91","velocity":0.28346456692913385,"duration":"0.02"},{"name":"F#6","midi":90,"time":"353.91","velocity":0.1889763779527559,"duration":"0.08"},{"name":"D2","midi":38,"time":"353.92","velocity":0.23622047244094488,"duration":"0.02"},{"name":"C5","midi":72,"time":"353.92","velocity":0.3228346456692913,"duration":"0.02"},{"name":"E5","midi":76,"time":"353.92","velocity":0.36220472440944884,"duration":"0.37"},{"name":"G#5","midi":80,"time":"353.92","velocity":0.33070866141732286,"duration":"0.03"},{"name":"A3","midi":57,"time":"353.93","velocity":0.3858267716535433,"duration":"0.02"},{"name":"C7","midi":96,"time":"353.93","velocity":0.08661417322834646,"duration":"0.06"},{"name":"C#2","midi":37,"time":"353.94","velocity":0.25196850393700787,"duration":"0.02"},{"name":"C4","midi":60,"time":"353.94","velocity":0.29133858267716534,"duration":"0.02"},{"name":"A#4","midi":70,"time":"353.95","velocity":0.28346456692913385,"duration":"0.02"},{"name":"D6","midi":86,"time":"353.95","velocity":0.14960629921259844,"duration":"0.07"},{"name":"A#3","midi":58,"time":"353.97","velocity":0.3700787401574803,"duration":"0.02"},{"name":"F#4","midi":66,"time":"353.97","velocity":0.3464566929133858,"duration":"0.03"},{"name":"G#4","midi":68,"time":"353.97","velocity":0.33858267716535434,"duration":"0.02"},{"name":"C#5","midi":73,"time":"353.97","velocity":0.3700787401574803,"duration":"0.29"},{"name":"G#5","midi":80,"time":"353.97","velocity":0.47244094488188976,"duration":"0.14"},{"name":"C6","midi":84,"time":"353.97","velocity":0.2204724409448819,"duration":"0.10"},{"name":"C#2","midi":37,"time":"353.99","velocity":0.2677165354330709,"duration":"0.02"},{"name":"D#6","midi":87,"time":"353.99","velocity":0.1889763779527559,"duration":"0.15"},{"name":"F#7","midi":102,"time":"353.99","velocity":0.13385826771653545,"duration":"0.15"},{"name":"A#3","midi":58,"time":"354.00","velocity":0.48031496062992124,"duration":"0.03"},{"name":"G#4","midi":68,"time":"354.00","velocity":0.2440944881889764,"duration":"0.02"},{"name":"A5","midi":81,"time":"354.00","velocity":0.44881889763779526,"duration":"0.06"},{"name":"A#5","midi":82,"time":"354.00","velocity":0.1889763779527559,"duration":"0.13"},{"name":"C#2","midi":37,"time":"354.03","velocity":0.33070866141732286,"duration":"0.02"},{"name":"A4","midi":69,"time":"354.05","velocity":0.29133858267716534,"duration":"0.05"},{"name":"D2","midi":38,"time":"354.06","velocity":0.3228346456692913,"duration":"0.02"},{"name":"E4","midi":64,"time":"354.06","velocity":0.2440944881889764,"duration":"0.05"},{"name":"F#6","midi":90,"time":"354.06","velocity":0.16535433070866143,"duration":"0.13"},{"name":"A#3","midi":58,"time":"354.07","velocity":0.3858267716535433,"duration":"0.06"},{"name":"A5","midi":81,"time":"354.07","velocity":0.5196850393700787,"duration":"0.17"},{"name":"F6","midi":89,"time":"354.07","velocity":0.18110236220472442,"duration":"0.06"},{"name":"C7","midi":96,"time":"354.07","velocity":0.12598425196850394,"duration":"0.05"},{"name":"D2","midi":38,"time":"354.09","velocity":0.36220472440944884,"duration":"0.02"},{"name":"C#4","midi":61,"time":"354.10","velocity":0.36220472440944884,"duration":"0.12"},{"name":"F#5","midi":78,"time":"354.10","velocity":0.12598425196850394,"duration":"0.03"},{"name":"E4","midi":64,"time":"354.12","velocity":0.25196850393700787,"duration":"0.05"},{"name":"A4","midi":69,"time":"354.12","velocity":0.4015748031496063,"duration":"0.12"},{"name":"D2","midi":38,"time":"354.13","velocity":0.36220472440944884,"duration":"0.05"},{"name":"A3","midi":57,"time":"354.13","velocity":0.4566929133858268,"duration":"0.06"},{"name":"B5","midi":83,"time":"354.14","velocity":0.2204724409448819,"duration":"0.09"},{"name":"D6","midi":86,"time":"354.14","velocity":0.08661417322834646,"duration":"0.03"},{"name":"G#6","midi":92,"time":"354.15","velocity":0.11023622047244094,"duration":"0.03"},{"name":"G5","midi":79,"time":"354.17","velocity":0.2283464566929134,"duration":"0.02"},{"name":"F#4","midi":66,"time":"354.19","velocity":0.2677165354330709,"duration":"0.14"},{"name":"F6","midi":89,"time":"354.19","velocity":0.2677165354330709,"duration":"0.07"},{"name":"D7","midi":98,"time":"354.20","velocity":0.11023622047244094,"duration":"0.08"},{"name":"F7","midi":101,"time":"354.20","velocity":0.3700787401574803,"duration":"0.29"},{"name":"A2","midi":45,"time":"354.21","velocity":0.5118110236220472,"duration":"0.01"},{"name":"G#3","midi":56,"time":"354.21","velocity":0.3779527559055118,"duration":"0.02"},{"name":"D#6","midi":87,"time":"354.21","velocity":0.16535433070866143,"duration":"0.05"},{"name":"F#7","midi":102,"time":"354.21","velocity":0.2047244094488189,"duration":"0.19"},{"name":"C3","midi":48,"time":"354.22","velocity":0.5590551181102362,"duration":"0.01"},{"name":"D#7","midi":99,"time":"354.22","velocity":0.1732283464566929,"duration":"0.21"},{"name":"D3","midi":50,"time":"354.23","velocity":0.6141732283464567,"duration":"0.36"},{"name":"A3","midi":57,"time":"354.23","velocity":0.4015748031496063,"duration":"0.05"},{"name":"G#5","midi":80,"time":"354.23","velocity":0.2283464566929134,"duration":"0.03"},{"name":"B5","midi":83,"time":"354.24","velocity":0.1732283464566929,"duration":"0.08"},{"name":"A4","midi":69,"time":"354.26","velocity":0.4015748031496063,"duration":"0.07"},{"name":"A5","midi":81,"time":"354.26","velocity":0.5039370078740157,"duration":"0.12"},{"name":"E6","midi":88,"time":"354.26","velocity":0.3858267716535433,"duration":"0.53"},{"name":"C#5","midi":73,"time":"354.27","velocity":0.29133858267716534,"duration":"0.20"},{"name":"G5","midi":79,"time":"354.27","velocity":0.2125984251968504,"duration":"0.05"},{"name":"A#5","midi":82,"time":"354.28","velocity":0.10236220472440945,"duration":"0.06"},{"name":"F6","midi":89,"time":"354.28","velocity":0.2047244094488189,"duration":"0.03"},{"name":"A3","midi":57,"time":"354.29","velocity":0.47244094488188976,"duration":"0.22"},{"name":"E5","midi":76,"time":"354.30","velocity":0.48031496062992124,"duration":"0.64"},{"name":"G7","midi":103,"time":"354.31","velocity":0.29133858267716534,"duration":"0.38"},{"name":"E4","midi":64,"time":"354.33","velocity":0.1732283464566929,"duration":"0.10"},{"name":"G5","midi":79,"time":"354.34","velocity":0.1889763779527559,"duration":"0.05"},{"name":"G6","midi":91,"time":"354.34","velocity":0.1968503937007874,"duration":"0.29"},{"name":"F#5","midi":78,"time":"354.35","velocity":0.12598425196850394,"duration":"0.06"},{"name":"G#5","midi":80,"time":"354.36","velocity":0.33858267716535434,"duration":"0.03"},{"name":"G4","midi":67,"time":"354.38","velocity":0.2047244094488189,"duration":"0.03"},{"name":"A5","midi":81,"time":"354.38","velocity":0.49606299212598426,"duration":"0.16"},{"name":"B5","midi":83,"time":"354.38","velocity":0.12598425196850394,"duration":"0.03"},{"name":"F6","midi":89,"time":"354.38","velocity":0.09448818897637795,"duration":"0.03"},{"name":"B6","midi":95,"time":"354.42","velocity":0.14173228346456693,"duration":"0.09"},{"name":"C#4","midi":61,"time":"354.43","velocity":0.2204724409448819,"duration":"0.06"},{"name":"F6","midi":89,"time":"354.43","velocity":0.10236220472440945,"duration":"0.05"},{"name":"G#6","midi":92,"time":"354.43","velocity":0.08661417322834646,"duration":"0.05"},{"name":"G5","midi":79,"time":"354.44","velocity":0.1968503937007874,"duration":"0.07"},{"name":"C#2","midi":37,"time":"354.45","velocity":0.16535433070866143,"duration":"0.03"},{"name":"A#4","midi":70,"time":"354.45","velocity":0.2755905511811024,"duration":"0.02"},{"name":"D#7","midi":99,"time":"354.45","velocity":0.1732283464566929,"duration":"0.28"},{"name":"C#4","midi":61,"time":"354.50","velocity":0.2283464566929134,"duration":"0.06"},{"name":"F#5","midi":78,"time":"354.50","velocity":0.16535433070866143,"duration":"0.03"},{"name":"A#5","midi":82,"time":"354.50","velocity":0.09448818897637795,"duration":"0.05"},{"name":"C#2","midi":37,"time":"354.51","velocity":0.2677165354330709,"duration":"0.05"},{"name":"C#5","midi":73,"time":"354.51","velocity":0.25196850393700787,"duration":"0.09"},{"name":"B5","midi":83,"time":"354.51","velocity":0.08661417322834646,"duration":"0.06"},{"name":"G#5","midi":80,"time":"354.53","velocity":0.25196850393700787,"duration":"0.03"},{"name":"F#5","midi":78,"time":"354.56","velocity":0.18110236220472442,"duration":"0.05"},{"name":"A5","midi":81,"time":"354.56","velocity":0.5275590551181102,"duration":"0.78"},{"name":"F6","midi":89,"time":"354.56","velocity":0.14960629921259844,"duration":"0.07"},{"name":"A#6","midi":94,"time":"354.56","velocity":0.14173228346456693,"duration":"0.08"},{"name":"F#7","midi":102,"time":"354.56","velocity":0.1889763779527559,"duration":"0.22"},{"name":"D6","midi":86,"time":"354.57","velocity":0.16535433070866143,"duration":"0.12"},{"name":"C#2","midi":37,"time":"354.58","velocity":0.5196850393700787,"duration":"0.01"},{"name":"C#4","midi":61,"time":"354.58","velocity":0.3464566929133858,"duration":"0.03"},{"name":"G5","midi":79,"time":"354.58","velocity":0.30708661417322836,"duration":"0.09"},{"name":"G#6","midi":92,"time":"354.58","velocity":0.2992125984251969,"duration":"0.17"},{"name":"D7","midi":98,"time":"354.58","velocity":0.2125984251968504,"duration":"0.10"},{"name":"F7","midi":101,"time":"354.58","velocity":0.2440944881889764,"duration":"0.29"},{"name":"C2","midi":36,"time":"354.59","velocity":0.6141732283464567,"duration":"0.01"},{"name":"F#4","midi":66,"time":"354.59","velocity":0.2992125984251969,"duration":"0.02"},{"name":"A#4","midi":70,"time":"354.59","velocity":0.2992125984251969,"duration":"0.02"},{"name":"C6","midi":84,"time":"354.59","velocity":0.1968503937007874,"duration":"0.03"},{"name":"B6","midi":95,"time":"354.59","velocity":0.14960629921259844,"duration":"0.16"},{"name":"E2","midi":40,"time":"354.60","velocity":0.6377952755905512,"duration":"0.01"},{"name":"F3","midi":53,"time":"354.60","velocity":0.5433070866141733,"duration":"0.02"},{"name":"A4","midi":69,"time":"354.60","velocity":0.5748031496062992,"duration":"0.40"},{"name":"D5","midi":74,"time":"354.60","velocity":0.2992125984251969,"duration":"0.05"},{"name":"F#6","midi":90,"time":"354.60","velocity":0.1968503937007874,"duration":"0.03"},{"name":"G#2","midi":44,"time":"354.62","velocity":0.5511811023622047,"duration":"0.01"},{"name":"B5","midi":83,"time":"354.62","velocity":0.14173228346456693,"duration":"0.06"},{"name":"C#6","midi":85,"time":"354.62","velocity":0.3543307086614173,"duration":"1.49"},{"name":"F1","midi":29,"time":"354.64","velocity":0.5511811023622047,"duration":"0.01"},{"name":"D3","midi":50,"time":"354.64","velocity":0.5984251968503937,"duration":"0.33"},{"name":"A3","midi":57,"time":"354.64","velocity":0.3700787401574803,"duration":"0.02"},{"name":"B4","midi":71,"time":"354.64","velocity":0.2440944881889764,"duration":"0.03"},{"name":"C#5","midi":73,"time":"354.64","velocity":0.4015748031496063,"duration":"0.33"},{"name":"F6","midi":89,"time":"354.64","velocity":0.1968503937007874,"duration":"0.12"},{"name":"F#1","midi":30,"time":"354.65","velocity":0.5590551181102362,"duration":"0.01"},{"name":"A1","midi":33,"time":"354.66","velocity":0.5354330708661418,"duration":"0.01"},{"name":"C#4","midi":61,"time":"354.66","velocity":0.3700787401574803,"duration":"0.29"},{"name":"C6","midi":84,"time":"354.66","velocity":0.14173228346456693,"duration":"0.06"},{"name":"F#6","midi":90,"time":"354.66","velocity":0.11811023622047244,"duration":"0.10"},{"name":"A3","midi":57,"time":"354.69","velocity":0.4330708661417323,"duration":"0.29"},{"name":"F#4","midi":66,"time":"354.69","velocity":0.18110236220472442,"duration":"0.07"},{"name":"G5","midi":79,"time":"354.70","velocity":0.2755905511811024,"duration":"0.19"},{"name":"A#6","midi":94,"time":"354.70","velocity":0.08661417322834646,"duration":"0.05"},{"name":"D#6","midi":87,"time":"354.71","velocity":0.08661417322834646,"duration":"0.05"},{"name":"D7","midi":98,"time":"354.72","velocity":0.07874015748031496,"duration":"0.05"},{"name":"F#1","midi":30,"time":"354.76","velocity":0.33858267716535434,"duration":"0.03"},{"name":"D6","midi":86,"time":"354.77","velocity":0.14173228346456693,"duration":"0.05"},{"name":"C7","midi":96,"time":"354.77","velocity":0.14173228346456693,"duration":"0.14"},{"name":"D#7","midi":99,"time":"354.77","velocity":0.15748031496062992,"duration":"0.08"},{"name":"G#6","midi":92,"time":"354.78","velocity":0.07874015748031496,"duration":"0.03"},{"name":"F#5","midi":78,"time":"354.79","velocity":0.14173228346456693,"duration":"0.05"},{"name":"F6","midi":89,"time":"354.79","velocity":0.16535433070866143,"duration":"0.06"},{"name":"B6","midi":95,"time":"354.79","velocity":0.09448818897637795,"duration":"0.08"},{"name":"G7","midi":103,"time":"354.81","velocity":0.11811023622047244,"duration":"0.03"},{"name":"E4","midi":64,"time":"354.83","velocity":0.13385826771653545,"duration":"0.03"},{"name":"B5","midi":83,"time":"354.83","velocity":0.18110236220472442,"duration":"0.16"},{"name":"G#6","midi":92,"time":"354.83","velocity":0.15748031496062992,"duration":"0.12"},{"name":"G7","midi":103,"time":"354.87","velocity":0.25196850393700787,"duration":"0.21"},{"name":"F#5","midi":78,"time":"354.91","velocity":0.13385826771653545,"duration":"0.06"},{"name":"F7","midi":101,"time":"354.94","velocity":0.29133858267716534,"duration":"0.19"},{"name":"F5","midi":77,"time":"354.95","velocity":0.2204724409448819,"duration":"0.03"},{"name":"C7","midi":96,"time":"354.95","velocity":0.12598425196850394,"duration":"0.08"},{"name":"D7","midi":98,"time":"354.95","velocity":0.1889763779527559,"duration":"0.09"},{"name":"F#7","midi":102,"time":"354.95","velocity":0.28346456692913385,"duration":"0.15"},{"name":"E4","midi":64,"time":"354.97","velocity":0.16535433070866143,"duration":"0.05"},{"name":"E5","midi":76,"time":"354.97","velocity":0.30708661417322836,"duration":"0.12"},{"name":"G5","midi":79,"time":"354.97","velocity":0.2677165354330709,"duration":"0.02"},{"name":"A#5","midi":82,"time":"354.97","velocity":0.2125984251968504,"duration":"0.03"},{"name":"G#6","midi":92,"time":"354.97","velocity":0.2047244094488189,"duration":"0.12"},{"name":"D#7","midi":99,"time":"354.97","velocity":0.18110236220472442,"duration":"0.23"},{"name":"E2","midi":40,"time":"354.98","velocity":0.5433070866141733,"duration":"0.05"},{"name":"G#5","midi":80,"time":"354.98","velocity":0.29133858267716534,"duration":"0.03"},{"name":"D3","midi":50,"time":"354.99","velocity":0.6062992125984252,"duration":"0.36"},{"name":"C#5","midi":73,"time":"354.99","velocity":0.3858267716535433,"duration":"0.35"},{"name":"B6","midi":95,"time":"354.99","velocity":0.11023622047244094,"duration":"0.12"},{"name":"A3","midi":57,"time":"355.00","velocity":0.33858267716535434,"duration":"0.02"},{"name":"B5","midi":83,"time":"355.00","velocity":0.2125984251968504,"duration":"0.14"},{"name":"A4","midi":69,"time":"355.01","velocity":0.5433070866141733,"duration":"0.47"},{"name":"G5","midi":79,"time":"355.01","velocity":0.2755905511811024,"duration":"0.09"},{"name":"A3","midi":57,"time":"355.05","velocity":0.5275590551181102,"duration":"0.30"},{"name":"E4","midi":64,"time":"355.06","velocity":0.2125984251968504,"duration":"0.09"},{"name":"C#4","midi":61,"time":"355.07","velocity":0.15748031496062992,"duration":"0.03"},{"name":"E5","midi":76,"time":"355.09","velocity":0.5196850393700787,"duration":"0.30"},{"name":"F6","midi":89,"time":"355.10","velocity":0.1732283464566929,"duration":"0.06"},{"name":"B6","midi":95,"time":"355.14","velocity":0.13385826771653545,"duration":"0.10"},{"name":"C2","midi":36,"time":"355.15","velocity":0.23622047244094488,"duration":"0.02"},{"name":"C6","midi":84,"time":"355.15","velocity":0.13385826771653545,"duration":"0.05"},{"name":"F#6","midi":90,"time":"355.15","velocity":0.11811023622047244,"duration":"0.14"},{"name":"A#6","midi":94,"time":"355.15","velocity":0.13385826771653545,"duration":"0.05"},{"name":"C7","midi":96,"time":"355.15","velocity":0.2283464566929134,"duration":"0.27"},{"name":"F#5","midi":78,"time":"355.16","velocity":0.11023622047244094,"duration":"0.03"},{"name":"F7","midi":101,"time":"355.16","velocity":0.10236220472440945,"duration":"0.06"},{"name":"G6","midi":91,"time":"355.17","velocity":0.1968503937007874,"duration":"0.14"},{"name":"F#7","midi":102,"time":"355.17","velocity":0.13385826771653545,"duration":"0.10"},{"name":"G5","midi":79,"time":"355.21","velocity":0.16535433070866143,"duration":"0.07"},{"name":"A#5","midi":82,"time":"355.22","velocity":0.11023622047244094,"duration":"0.07"},{"name":"C#2","midi":37,"time":"355.26","velocity":0.2677165354330709,"duration":"0.03"},{"name":"C#4","midi":61,"time":"355.26","velocity":0.2125984251968504,"duration":"0.03"},{"name":"G#6","midi":92,"time":"355.27","velocity":0.11023622047244094,"duration":"0.03"},{"name":"F7","midi":101,"time":"355.28","velocity":0.2992125984251969,"duration":"0.34"},{"name":"G7","midi":103,"time":"355.28","velocity":0.2440944881889764,"duration":"0.12"},{"name":"D2","midi":38,"time":"355.29","velocity":0.2283464566929134,"duration":"0.02"},{"name":"C#4","midi":61,"time":"355.30","velocity":0.2755905511811024,"duration":"0.02"},{"name":"G#5","midi":80,"time":"355.30","velocity":0.31496062992125984,"duration":"0.09"},{"name":"F#7","midi":102,"time":"355.30","velocity":0.2755905511811024,"duration":"0.26"},{"name":"F4","midi":65,"time":"355.31","velocity":0.5275590551181102,"duration":"0.05"},{"name":"G#6","midi":92,"time":"355.31","velocity":0.33858267716535434,"duration":"0.14"},{"name":"A#5","midi":82,"time":"355.33","velocity":0.33858267716535434,"duration":"0.06"},{"name":"B5","midi":83,"time":"355.33","velocity":0.29133858267716534,"duration":"0.03"},{"name":"D7","midi":98,"time":"355.33","velocity":0.23622047244094488,"duration":"0.10"},{"name":"F6","midi":89,"time":"355.34","velocity":0.1732283464566929,"duration":"0.08"},{"name":"F#6","midi":90,"time":"355.34","velocity":0.2047244094488189,"duration":"0.20"},{"name":"G6","midi":91,"time":"355.34","velocity":0.2204724409448819,"duration":"0.14"},{"name":"D#7","midi":99,"time":"355.34","velocity":0.14960629921259844,"duration":"0.28"},{"name":"D#2","midi":39,"time":"355.35","velocity":0.4881889763779528,"duration":"0.02"},{"name":"C4","midi":60,"time":"355.35","velocity":0.44881889763779526,"duration":"0.02"},{"name":"C#5","midi":73,"time":"355.35","velocity":0.4566929133858268,"duration":"0.02"},{"name":"F#5","midi":78,"time":"355.35","velocity":0.31496062992125984,"duration":"0.03"},{"name":"C6","midi":84,"time":"355.35","velocity":0.25196850393700787,"duration":"0.02"},{"name":"D3","midi":50,"time":"355.36","velocity":0.5511811023622047,"duration":"0.35"},{"name":"D5","midi":74,"time":"355.36","velocity":0.3543307086614173,"duration":"0.02"},{"name":"D#6","midi":87,"time":"355.36","velocity":0.12598425196850394,"duration":"0.03"},{"name":"C#4","midi":61,"time":"355.37","velocity":0.3779527559055118,"duration":"0.02"},{"name":"F4","midi":65,"time":"355.37","velocity":0.3858267716535433,"duration":"0.03"},{"name":"B4","midi":71,"time":"355.37","velocity":0.31496062992125984,"duration":"0.02"},{"name":"D#2","midi":39,"time":"355.38","velocity":0.4015748031496063,"duration":"0.03"},{"name":"D5","midi":74,"time":"355.40","velocity":0.2755905511811024,"duration":"0.03"},{"name":"G5","midi":79,"time":"355.40","velocity":0.1968503937007874,"duration":"0.03"},{"name":"C6","midi":84,"time":"355.40","velocity":0.25984251968503935,"duration":"0.05"},{"name":"A#3","midi":58,"time":"355.41","velocity":0.4566929133858268,"duration":"0.02"},{"name":"F#4","midi":66,"time":"355.41","velocity":0.3858267716535433,"duration":"0.03"},{"name":"E5","midi":76,"time":"355.41","velocity":0.3543307086614173,"duration":"0.27"},{"name":"C#5","midi":73,"time":"355.43","velocity":0.3464566929133858,"duration":"0.29"},{"name":"C#4","midi":61,"time":"355.44","velocity":0.2755905511811024,"duration":"0.05"},{"name":"A#5","midi":82,"time":"355.44","velocity":0.2047244094488189,"duration":"0.10"},{"name":"A3","midi":57,"time":"355.45","velocity":0.5196850393700787,"duration":"0.08"},{"name":"G#5","midi":80,"time":"355.45","velocity":0.44881889763779526,"duration":"0.09"},{"name":"C6","midi":84,"time":"355.45","velocity":0.13385826771653545,"duration":"0.03"},{"name":"F6","midi":89,"time":"355.45","velocity":0.2677165354330709,"duration":"0.23"},{"name":"F#4","midi":66,"time":"355.47","velocity":0.25984251968503935,"duration":"0.02"},{"name":"B5","midi":83,"time":"355.47","velocity":0.13385826771653545,"duration":"0.05"},{"name":"E6","midi":88,"time":"355.47","velocity":0.3937007874015748,"duration":"0.52"},{"name":"G5","midi":79,"time":"355.48","velocity":0.1889763779527559,"duration":"0.06"},{"name":"D2","midi":38,"time":"355.49","velocity":0.2283464566929134,"duration":"0.02"},{"name":"C#2","midi":37,"time":"355.51","velocity":0.25196850393700787,"duration":"0.02"},{"name":"G4","midi":67,"time":"355.52","velocity":0.28346456692913385,"duration":"0.02"},{"name":"G7","midi":103,"time":"355.52","velocity":0.18110236220472442,"duration":"0.16"},{"name":"D2","midi":38,"time":"355.53","velocity":0.30708661417322836,"duration":"0.08"},{"name":"B6","midi":95,"time":"355.53","velocity":0.14960629921259844,"duration":"0.03"},{"name":"C7","midi":96,"time":"355.53","velocity":0.2283464566929134,"duration":"0.29"},{"name":"A3","midi":57,"time":"355.55","velocity":0.5354330708661418,"duration":"0.15"},{"name":"A4","midi":69,"time":"355.55","velocity":0.5590551181102362,"duration":"0.56"},{"name":"G5","midi":79,"time":"355.55","velocity":0.2440944881889764,"duration":"0.10"},{"name":"F#6","midi":90,"time":"355.55","velocity":0.1732283464566929,"duration":"0.15"},{"name":"F4","midi":65,"time":"355.56","velocity":0.18110236220472442,"duration":"0.03"},{"name":"A#5","midi":82,"time":"355.56","velocity":0.2047244094488189,"duration":"0.07"},{"name":"C#4","midi":61,"time":"355.57","velocity":0.33858267716535434,"duration":"0.06"},{"name":"D6","midi":86,"time":"355.57","velocity":0.14960629921259844,"duration":"0.05"},{"name":"G#5","midi":80,"time":"355.58","velocity":0.4330708661417323,"duration":"0.14"},{"name":"B6","midi":95,"time":"355.58","velocity":0.14960629921259844,"duration":"0.17"},{"name":"C6","midi":84,"time":"355.59","velocity":0.14173228346456693,"duration":"0.03"},{"name":"C#2","midi":37,"time":"355.62","velocity":0.31496062992125984,"duration":"0.02"},{"name":"F#5","midi":78,"time":"355.62","velocity":0.11023622047244094,"duration":"0.05"},{"name":"B5","midi":83,"time":"355.62","velocity":0.16535433070866143,"duration":"0.03"},{"name":"D#6","midi":87,"time":"355.62","velocity":0.15748031496062992,"duration":"0.03"},{"name":"D2","midi":38,"time":"355.64","velocity":0.29133858267716534,"duration":"0.02"},{"name":"A#5","midi":82,"time":"355.64","velocity":0.2125984251968504,"duration":"0.06"},{"name":"C#4","midi":61,"time":"355.65","velocity":0.33070866141732286,"duration":"0.05"},{"name":"F7","midi":101,"time":"355.65","velocity":0.3779527559055118,"duration":"0.29"},{"name":"C#2","midi":37,"time":"355.69","velocity":0.3543307086614173,"duration":"0.02"},{"name":"E5","midi":76,"time":"355.69","velocity":0.2047244094488189,"duration":"0.05"},{"name":"A6","midi":93,"time":"355.69","velocity":0.3464566929133858,"duration":"0.10"},{"name":"A#3","midi":58,"time":"355.70","velocity":0.3858267716535433,"duration":"0.02"},{"name":"G5","midi":79,"time":"355.70","velocity":0.1732283464566929,"duration":"0.03"},{"name":"D#2","midi":39,"time":"355.71","velocity":0.4409448818897638,"duration":"0.02"},{"name":"D5","midi":74,"time":"355.71","velocity":0.2047244094488189,"duration":"0.03"},{"name":"F6","midi":89,"time":"355.71","velocity":0.11811023622047244,"duration":"0.03"},{"name":"F#6","midi":90,"time":"355.71","velocity":0.2125984251968504,"duration":"0.06"},{"name":"G7","midi":103,"time":"355.71","velocity":0.2204724409448819,"duration":"0.20"},{"name":"G#6","midi":92,"time":"355.72","velocity":0.25196850393700787,"duration":"0.13"},{"name":"A#6","midi":94,"time":"355.72","velocity":0.14960629921259844,"duration":"0.09"},{"name":"D#7","midi":99,"time":"355.72","velocity":0.23622047244094488,"duration":"0.10"},{"name":"C#2","midi":37,"time":"355.73","velocity":0.5275590551181102,"duration":"0.01"},{"name":"F#5","midi":78,"time":"355.73","velocity":0.25984251968503935,"duration":"0.03"},{"name":"B5","midi":83,"time":"355.73","velocity":0.13385826771653545,"duration":"0.15"},{"name":"D#6","midi":87,"time":"355.73","velocity":0.11811023622047244,"duration":"0.03"},{"name":"E2","midi":40,"time":"355.74","velocity":0.5511811023622047,"duration":"0.02"},{"name":"C#5","midi":73,"time":"355.74","velocity":0.36220472440944884,"duration":"0.24"},{"name":"E5","midi":76,"time":"355.74","velocity":0.3779527559055118,"duration":"0.35"},{"name":"G6","midi":91,"time":"355.74","velocity":0.2204724409448819,"duration":"0.31"},{"name":"D7","midi":98,"time":"355.74","velocity":0.12598425196850394,"duration":"0.10"},{"name":"D#3","midi":51,"time":"355.76","velocity":0.5511811023622047,"duration":"0.01"},{"name":"A#3","midi":58,"time":"355.76","velocity":0.2992125984251969,"duration":"0.03"},{"name":"C#4","midi":61,"time":"355.76","velocity":0.3543307086614173,"duration":"0.33"},{"name":"D3","midi":50,"time":"355.77","velocity":0.5748031496062992,"duration":"0.30"},{"name":"B6","midi":95,"time":"355.77","velocity":0.15748031496062992,"duration":"0.17"},{"name":"F6","midi":89,"time":"355.78","velocity":0.2047244094488189,"duration":"0.05"},{"name":"A3","midi":57,"time":"355.81","velocity":0.5196850393700787,"duration":"0.28"},{"name":"G#5","midi":80,"time":"355.84","velocity":0.31496062992125984,"duration":"0.06"},{"name":"A5","midi":81,"time":"355.85","velocity":0.5669291338582677,"duration":"0.49"},{"name":"F#7","midi":102,"time":"355.85","velocity":0.13385826771653545,"duration":"0.05"},{"name":"D6","midi":86,"time":"355.88","velocity":0.1732283464566929,"duration":"0.09"},{"name":"A#6","midi":94,"time":"355.88","velocity":0.13385826771653545,"duration":"0.09"},{"name":"C6","midi":84,"time":"355.90","velocity":0.11023622047244094,"duration":"0.06"},{"name":"D#7","midi":99,"time":"355.90","velocity":0.11023622047244094,"duration":"0.05"},{"name":"D2","midi":38,"time":"355.91","velocity":0.28346456692913385,"duration":"0.02"},{"name":"F#7","midi":102,"time":"355.91","velocity":0.33858267716535434,"duration":"1.73"},{"name":"D#6","midi":87,"time":"355.92","velocity":0.07086614173228346,"duration":"0.03"},{"name":"C#2","midi":37,"time":"355.93","velocity":0.31496062992125984,"duration":"0.02"},{"name":"A#5","midi":82,"time":"355.93","velocity":0.10236220472440945,"duration":"0.07"},{"name":"G#6","midi":92,"time":"355.93","velocity":0.14173228346456693,"duration":"0.08"},{"name":"G7","midi":103,"time":"355.94","velocity":0.25984251968503935,"duration":"0.10"},{"name":"D2","midi":38,"time":"355.95","velocity":0.33070866141732286,"duration":"0.03"},{"name":"G#5","midi":80,"time":"355.95","velocity":0.25196850393700787,"duration":"0.02"},{"name":"F7","midi":101,"time":"355.98","velocity":0.07086614173228346,"duration":"0.06"},{"name":"D2","midi":38,"time":"356.00","velocity":0.33070866141732286,"duration":"0.05"},{"name":"G5","midi":79,"time":"356.00","velocity":0.16535433070866143,"duration":"0.03"},{"name":"B6","midi":95,"time":"356.01","velocity":0.11023622047244094,"duration":"0.05"},{"name":"F#6","midi":90,"time":"356.02","velocity":0.11811023622047244,"duration":"0.03"},{"name":"C#2","midi":37,"time":"356.05","velocity":0.33070866141732286,"duration":"0.02"},{"name":"G5","midi":79,"time":"356.06","velocity":0.29133858267716534,"duration":"0.06"},{"name":"D7","midi":98,"time":"356.06","velocity":0.15748031496062992,"duration":"0.08"},{"name":"C#3","midi":49,"time":"356.07","velocity":0.5511811023622047,"duration":"0.01"},{"name":"F#4","midi":66,"time":"356.07","velocity":0.4251968503937008,"duration":"0.03"},{"name":"B5","midi":83,"time":"356.07","velocity":0.36220472440944884,"duration":"0.21"},{"name":"D#6","midi":87,"time":"356.07","velocity":0.1968503937007874,"duration":"0.07"},{"name":"F#6","midi":90,"time":"356.07","velocity":0.29133858267716534,"duration":"0.31"},{"name":"G#6","midi":92,"time":"356.07","velocity":0.2992125984251969,"duration":"0.15"},{"name":"F7","midi":101,"time":"356.07","velocity":0.3700787401574803,"duration":"0.17"},{"name":"G7","midi":103,"time":"356.07","velocity":0.16535433070866143,"duration":"0.09"},{"name":"A2","midi":45,"time":"356.08","velocity":0.6220472440944882,"duration":"0.01"},{"name":"F2","midi":41,"time":"356.09","velocity":0.6850393700787402,"duration":"0.01"},{"name":"F6","midi":89,"time":"356.09","velocity":0.08661417322834646,"duration":"0.03"},{"name":"C7","midi":96,"time":"356.09","velocity":0.14173228346456693,"duration":"0.06"},{"name":"F#2","midi":42,"time":"356.10","velocity":0.6377952755905512,"duration":"0.01"},{"name":"E3","midi":52,"time":"356.10","velocity":0.5196850393700787,"duration":"0.02"},{"name":"F4","midi":65,"time":"356.10","velocity":0.2677165354330709,"duration":"0.06"},{"name":"D5","midi":74,"time":"356.10","velocity":0.2755905511811024,"duration":"0.02"},{"name":"E5","midi":76,"time":"356.10","velocity":0.36220472440944884,"duration":"0.71"},{"name":"C6","midi":84,"time":"356.10","velocity":0.14173228346456693,"duration":"0.03"},{"name":"A#6","midi":94,"time":"356.10","velocity":0.1968503937007874,"duration":"0.06"},{"name":"E2","midi":40,"time":"356.12","velocity":0.5118110236220472,"duration":"0.01"},{"name":"C3","midi":48,"time":"356.12","velocity":0.6062992125984252,"duration":"0.03"},{"name":"C#4","midi":61,"time":"356.12","velocity":0.33070866141732286,"duration":"0.02"},{"name":"A4","midi":69,"time":"356.12","velocity":0.3937007874015748,"duration":"0.24"},{"name":"F#5","midi":78,"time":"356.12","velocity":0.25196850393700787,"duration":"0.16"},{"name":"C#6","midi":85,"time":"356.12","velocity":0.3464566929133858,"duration":"0.21"},{"name":"G6","midi":91,"time":"356.12","velocity":0.18110236220472442,"duration":"0.05"},{"name":"E1","midi":28,"time":"356.13","velocity":0.5826771653543307,"duration":"0.01"},{"name":"G#3","midi":56,"time":"356.13","velocity":0.44881889763779526,"duration":"0.06"},{"name":"B4","midi":71,"time":"356.13","velocity":0.4330708661417323,"duration":"0.33"},{"name":"A1","midi":33,"time":"356.14","velocity":0.5511811023622047,"duration":"0.01"},{"name":"G#5","midi":80,"time":"356.14","velocity":0.25196850393700787,"duration":"0.07"},{"name":"C#3","midi":49,"time":"356.15","velocity":0.6141732283464567,"duration":"0.07"},{"name":"B0","midi":23,"time":"356.17","velocity":0.31496062992125984,"duration":"0.02"},{"name":"C#2","midi":37,"time":"356.19","velocity":0.33070866141732286,"duration":"0.02"},{"name":"C#5","midi":73,"time":"356.19","velocity":0.3543307086614173,"duration":"0.28"},{"name":"C7","midi":96,"time":"356.19","velocity":0.07874015748031496,"duration":"0.03"},{"name":"F6","midi":89,"time":"356.20","velocity":0.14960629921259844,"duration":"0.06"},{"name":"G#3","midi":56,"time":"356.21","velocity":0.4330708661417323,"duration":"0.09"},{"name":"D#6","midi":87,"time":"356.21","velocity":0.12598425196850394,"duration":"0.05"},{"name":"D#7","midi":99,"time":"356.21","velocity":0.14960629921259844,"duration":"0.12"},{"name":"G7","midi":103,"time":"356.21","velocity":0.14960629921259844,"duration":"0.08"},{"name":"E1","midi":28,"time":"356.22","velocity":0.30708661417322836,"duration":"0.02"},{"name":"C3","midi":48,"time":"356.22","velocity":0.5275590551181102,"duration":"0.01"},{"name":"E4","midi":64,"time":"356.22","velocity":0.2204724409448819,"duration":"0.03"},{"name":"C#3","midi":49,"time":"356.23","velocity":0.5275590551181102,"duration":"0.06"},{"name":"G#6","midi":92,"time":"356.23","velocity":0.13385826771653545,"duration":"0.23"},{"name":"G1","midi":31,"time":"356.26","velocity":0.3464566929133858,"duration":"0.03"},{"name":"F4","midi":65,"time":"356.26","velocity":0.1889763779527559,"duration":"0.03"},{"name":"G#5","midi":80,"time":"356.27","velocity":0.25984251968503935,"duration":"0.15"},{"name":"C6","midi":84,"time":"356.28","velocity":0.2440944881889764,"duration":"0.03"},{"name":"G6","midi":91,"time":"356.28","velocity":0.11023622047244094,"duration":"0.12"},{"name":"D3","midi":50,"time":"356.29","velocity":0.5984251968503937,"duration":"0.15"},{"name":"B5","midi":83,"time":"356.29","velocity":0.4645669291338583,"duration":"0.97"},{"name":"A3","midi":57,"time":"356.30","velocity":0.4330708661417323,"duration":"0.17"},{"name":"F#5","midi":78,"time":"356.30","velocity":0.2125984251968504,"duration":"0.13"},{"name":"F6","midi":89,"time":"356.30","velocity":0.09448818897637795,"duration":"0.03"},{"name":"C7","midi":96,"time":"356.31","velocity":0.10236220472440945,"duration":"0.05"},{"name":"D#6","midi":87,"time":"356.33","velocity":0.16535433070866143,"duration":"0.08"},{"name":"D#2","midi":39,"time":"356.34","velocity":0.33858267716535434,"duration":"0.02"},{"name":"C2","midi":36,"time":"356.36","velocity":0.3543307086614173,"duration":"0.02"},{"name":"D#7","midi":99,"time":"356.36","velocity":0.16535433070866143,"duration":"0.08"},{"name":"F6","midi":89,"time":"356.38","velocity":0.16535433070866143,"duration":"0.20"},{"name":"F#6","midi":90,"time":"356.40","velocity":0.4251968503937008,"duration":"1.35"},{"name":"C#2","midi":37,"time":"356.41","velocity":0.3858267716535433,"duration":"0.02"},{"name":"G5","midi":79,"time":"356.41","velocity":0.2204724409448819,"duration":"0.05"},{"name":"C#3","midi":49,"time":"356.44","velocity":0.6299212598425197,"duration":"0.02"},{"name":"A#6","midi":94,"time":"356.44","velocity":0.2047244094488189,"duration":"0.20"},{"name":"A#4","midi":70,"time":"356.45","velocity":0.2677165354330709,"duration":"0.02"},{"name":"G6","midi":91,"time":"356.45","velocity":0.16535433070866143,"duration":"0.05"},{"name":"D#7","midi":99,"time":"356.45","velocity":0.13385826771653545,"duration":"0.08"},{"name":"F7","midi":101,"time":"356.45","velocity":0.33070866141732286,"duration":"0.23"},{"name":"G#2","midi":44,"time":"356.47","velocity":0.6456692913385826,"duration":"0.01"},{"name":"F#4","midi":66,"time":"356.47","velocity":0.31496062992125984,"duration":"0.02"},{"name":"B4","midi":71,"time":"356.47","velocity":0.4015748031496063,"duration":"0.15"},{"name":"G7","midi":103,"time":"356.47","velocity":0.2440944881889764,"duration":"0.15"},{"name":"G2","midi":43,"time":"356.48","velocity":0.5669291338582677,"duration":"0.01"},{"name":"G5","midi":79,"time":"356.48","velocity":0.16535433070866143,"duration":"0.03"},{"name":"G#6","midi":92,"time":"356.48","velocity":0.18110236220472442,"duration":"0.07"},{"name":"A1","midi":33,"time":"356.49","velocity":0.5275590551181102,"duration":"0.01"},{"name":"B2","midi":47,"time":"356.49","velocity":0.5196850393700787,"duration":"0.01"},{"name":"D4","midi":62,"time":"356.49","velocity":0.3464566929133858,"duration":"0.02"},{"name":"A4","midi":69,"time":"356.49","velocity":0.4409448818897638,"duration":"0.22"},{"name":"F1","midi":29,"time":"356.50","velocity":0.5984251968503937,"duration":"0.01"},{"name":"C3","midi":48,"time":"356.50","velocity":0.5511811023622047,"duration":"0.01"},{"name":"G4","midi":67,"time":"356.50","velocity":0.23622047244094488,"duration":"0.02"},{"name":"E1","midi":28,"time":"356.51","velocity":0.5905511811023622,"duration":"0.01"},{"name":"C#3","midi":49,"time":"356.51","velocity":0.5354330708661418,"duration":"0.01"},{"name":"A3","midi":57,"time":"356.51","velocity":0.44881889763779526,"duration":"0.12"},{"name":"C#5","midi":73,"time":"356.51","velocity":0.29133858267716534,"duration":"0.03"},{"name":"D7","midi":98,"time":"356.51","velocity":0.07874015748031496,"duration":"0.05"},{"name":"D3","midi":50,"time":"356.52","velocity":0.5748031496062992,"duration":"0.34"},{"name":"G5","midi":79,"time":"356.52","velocity":0.2283464566929134,"duration":"0.02"},{"name":"C#5","midi":73,"time":"356.56","velocity":0.25196850393700787,"duration":"0.02"},{"name":"D#7","midi":99,"time":"356.56","velocity":0.11811023622047244,"duration":"0.05"},{"name":"G#5","midi":80,"time":"356.57","velocity":0.3464566929133858,"duration":"0.13"},{"name":"F#4","midi":66,"time":"356.58","velocity":0.15748031496062992,"duration":"0.05"},{"name":"F#5","midi":78,"time":"356.58","velocity":0.4015748031496063,"duration":"0.29"},{"name":"A6","midi":93,"time":"356.58","velocity":0.2125984251968504,"duration":"0.24"},{"name":"C7","midi":96,"time":"356.58","velocity":0.11023622047244094,"duration":"0.07"},{"name":"C#4","midi":61,"time":"356.59","velocity":0.3464566929133858,"duration":"0.05"},{"name":"C6","midi":84,"time":"356.59","velocity":0.1889763779527559,"duration":"0.08"},{"name":"B4","midi":71,"time":"356.63","velocity":0.49606299212598426,"duration":"0.21"},{"name":"D#6","midi":87,"time":"356.63","velocity":0.2125984251968504,"duration":"0.12"},{"name":"F6","midi":89,"time":"356.63","velocity":0.2125984251968504,"duration":"0.16"},{"name":"D#7","midi":99,"time":"356.63","velocity":0.28346456692913385,"duration":"0.49"},{"name":"A3","midi":57,"time":"356.64","velocity":0.4330708661417323,"duration":"0.19"},{"name":"C#4","midi":61,"time":"356.65","velocity":0.4094488188976378,"duration":"0.17"},{"name":"G6","midi":91,"time":"356.66","velocity":0.09448818897637795,"duration":"0.06"},{"name":"C7","midi":96,"time":"356.67","velocity":0.10236220472440945,"duration":"0.05"},{"name":"G#5","midi":80,"time":"356.73","velocity":0.3700787401574803,"duration":"0.09"},{"name":"C2","midi":36,"time":"356.74","velocity":0.30708661417322836,"duration":"0.02"},{"name":"D6","midi":86,"time":"356.74","velocity":0.09448818897637795,"duration":"0.06"},{"name":"G6","midi":91,"time":"356.74","velocity":0.07874015748031496,"duration":"0.06"},{"name":"D#6","midi":87,"time":"356.78","velocity":0.13385826771653545,"duration":"0.03"},{"name":"D#2","midi":39,"time":"356.81","velocity":0.25196850393700787,"duration":"0.02"},{"name":"G#4","midi":68,"time":"356.81","velocity":0.5275590551181102,"duration":"0.03"},{"name":"D5","midi":74,"time":"356.81","velocity":0.3937007874015748,"duration":"0.02"},{"name":"C6","midi":84,"time":"356.81","velocity":0.3700787401574803,"duration":"0.08"},{"name":"F7","midi":101,"time":"356.81","velocity":0.3779527559055118,"duration":"0.45"},{"name":"D#6","midi":87,"time":"356.83","velocity":0.2204724409448819,"duration":"0.10"},{"name":"G6","midi":91,"time":"356.83","velocity":0.2440944881889764,"duration":"0.09"},{"name":"A#6","midi":94,"time":"356.83","velocity":0.30708661417322836,"duration":"0.12"},{"name":"C#2","midi":37,"time":"356.84","velocity":0.3543307086614173,"duration":"0.02"},{"name":"A3","midi":57,"time":"356.84","velocity":0.4409448818897638,"duration":"0.02"},{"name":"C#4","midi":61,"time":"356.84","velocity":0.5354330708661418,"duration":"0.02"},{"name":"A#4","midi":70,"time":"356.84","velocity":0.5118110236220472,"duration":"0.05"},{"name":"E5","midi":76,"time":"356.84","velocity":0.5118110236220472,"duration":"0.03"},{"name":"G7","midi":103,"time":"356.84","velocity":0.2677165354330709,"duration":"0.08"},{"name":"G#5","midi":80,"time":"356.85","velocity":0.2677165354330709,"duration":"0.03"},{"name":"F4","midi":65,"time":"356.86","velocity":0.4251968503937008,"duration":"0.05"},{"name":"D#5","midi":75,"time":"356.86","velocity":0.3543307086614173,"duration":"0.05"},{"name":"G5","midi":79,"time":"356.86","velocity":0.2283464566929134,"duration":"0.03"},{"name":"C#6","midi":85,"time":"356.86","velocity":0.41732283464566927,"duration":"0.44"},{"name":"F2","midi":41,"time":"356.87","velocity":0.4881889763779528,"duration":"0.06"},{"name":"A4","midi":69,"time":"356.87","velocity":0.4330708661417323,"duration":"0.05"},{"name":"B3","midi":59,"time":"356.88","velocity":0.3937007874015748,"duration":"0.05"},{"name":"B4","midi":71,"time":"356.88","velocity":0.4330708661417323,"duration":"0.09"},{"name":"E3","midi":52,"time":"356.90","velocity":0.5433070866141733,"duration":"0.31"},{"name":"F#5","midi":78,"time":"356.90","velocity":0.29133858267716534,"duration":"0.02"},{"name":"D6","midi":86,"time":"356.90","velocity":0.1968503937007874,"duration":"0.07"},{"name":"F#4","midi":66,"time":"356.91","velocity":0.3464566929133858,"duration":"0.07"},{"name":"D5","midi":74,"time":"356.91","velocity":0.30708661417322836,"duration":"0.02"},{"name":"E5","midi":76,"time":"356.91","velocity":0.3779527559055118,"duration":"0.27"},{"name":"G#5","midi":80,"time":"356.92","velocity":0.4330708661417323,"duration":"0.16"},{"name":"E2","midi":40,"time":"356.93","velocity":0.47244094488188976,"duration":"0.28"},{"name":"A4","midi":69,"time":"356.93","velocity":0.4015748031496063,"duration":"0.09"},{"name":"C#5","midi":73,"time":"356.93","velocity":0.3858267716535433,"duration":"0.28"},{"name":"F#5","midi":78,"time":"356.93","velocity":0.3543307086614173,"duration":"0.15"},{"name":"C#4","midi":61,"time":"356.94","velocity":0.3858267716535433,"duration":"0.06"},{"name":"G6","midi":91,"time":"356.94","velocity":0.10236220472440945,"duration":"0.03"},{"name":"D#6","midi":87,"time":"356.95","velocity":0.13385826771653545,"duration":"0.03"},{"name":"F6","midi":89,"time":"356.97","velocity":0.15748031496062992,"duration":"0.06"},{"name":"E7","midi":100,"time":"356.98","velocity":0.11023622047244094,"duration":"0.03"},{"name":"G7","midi":103,"time":"356.98","velocity":0.15748031496062992,"duration":"0.08"},{"name":"A#3","midi":58,"time":"356.99","velocity":0.4015748031496063,"duration":"0.06"},{"name":"G6","midi":91,"time":"356.99","velocity":0.13385826771653545,"duration":"0.03"},{"name":"A6","midi":93,"time":"356.99","velocity":0.18110236220472442,"duration":"0.03"},{"name":"B4","midi":71,"time":"357.00","velocity":0.28346456692913385,"duration":"0.02"},{"name":"C#4","midi":61,"time":"357.01","velocity":0.47244094488188976,"duration":"0.20"},{"name":"D#6","midi":87,"time":"357.02","velocity":0.14173228346456693,"duration":"0.19"},{"name":"G6","midi":91,"time":"357.03","velocity":0.16535433070866143,"duration":"0.13"},{"name":"B4","midi":71,"time":"357.05","velocity":0.5196850393700787,"duration":"0.28"},{"name":"A6","midi":93,"time":"357.05","velocity":0.23622047244094488,"duration":"0.22"},{"name":"F6","midi":89,"time":"357.06","velocity":0.2125984251968504,"duration":"0.24"},{"name":"A4","midi":69,"time":"357.07","velocity":0.3858267716535433,"duration":"0.07"},{"name":"A#6","midi":94,"time":"357.07","velocity":0.11023622047244094,"duration":"0.03"},{"name":"G5","midi":79,"time":"357.08","velocity":0.1732283464566929,"duration":"0.08"},{"name":"G#5","midi":80,"time":"357.12","velocity":0.4094488188976378,"duration":"0.14"},{"name":"D7","midi":98,"time":"357.12","velocity":0.11023622047244094,"duration":"0.06"},{"name":"D#7","midi":99,"time":"357.13","velocity":0.2677165354330709,"duration":"1.02"},{"name":"C7","midi":96,"time":"357.16","velocity":0.11023622047244094,"duration":"0.13"},{"name":"E6","midi":88,"time":"357.17","velocity":0.11023622047244094,"duration":"0.03"},{"name":"F#5","midi":78,"time":"357.19","velocity":0.33070866141732286,"duration":"0.16"},{"name":"G#4","midi":68,"time":"357.20","velocity":0.3464566929133858,"duration":"0.02"},{"name":"G2","midi":43,"time":"357.21","velocity":0.5196850393700787,"duration":"0.01"},{"name":"D4","midi":62,"time":"357.21","velocity":0.4409448818897638,"duration":"0.06"},{"name":"E5","midi":76,"time":"357.21","velocity":0.1889763779527559,"duration":"0.10"},{"name":"A#6","midi":94,"time":"357.21","velocity":0.23622047244094488,"duration":"0.40"},{"name":"D7","midi":98,"time":"357.21","velocity":0.2204724409448819,"duration":"0.31"},{"name":"F2","midi":41,"time":"357.22","velocity":0.6299212598425197,"duration":"0.02"},{"name":"A#3","midi":58,"time":"357.22","velocity":0.4094488188976378,"duration":"0.02"},{"name":"F#4","midi":66,"time":"357.22","velocity":0.4015748031496063,"duration":"0.03"},{"name":"A5","midi":81,"time":"357.22","velocity":0.2677165354330709,"duration":"0.02"},{"name":"C6","midi":84,"time":"357.22","velocity":0.2283464566929134,"duration":"0.05"},{"name":"D6","midi":86,"time":"357.22","velocity":0.2283464566929134,"duration":"0.03"},{"name":"E6","midi":88,"time":"357.22","velocity":0.3464566929133858,"duration":"0.93"},{"name":"C#1","midi":25,"time":"357.24","velocity":0.5669291338582677,"duration":"0.01"},{"name":"D3","midi":50,"time":"357.24","velocity":0.5354330708661418,"duration":"0.01"},{"name":"G6","midi":91,"time":"357.24","velocity":0.11811023622047244,"duration":"0.05"},{"name":"G7","midi":103,"time":"357.24","velocity":0.14173228346456693,"duration":"0.05"},{"name":"E1","midi":28,"time":"357.26","velocity":0.6062992125984252,"duration":"0.02"},{"name":"E3","midi":52,"time":"357.26","velocity":0.49606299212598426,"duration":"0.03"},{"name":"A4","midi":69,"time":"357.27","velocity":0.25196850393700787,"duration":"0.02"},{"name":"G#5","midi":80,"time":"357.27","velocity":0.33858267716535434,"duration":"0.14"},{"name":"C2","midi":36,"time":"357.28","velocity":0.5275590551181102,"duration":"0.01"},{"name":"A#3","midi":58,"time":"357.28","velocity":0.3464566929133858,"duration":"0.02"},{"name":"C#5","midi":73,"time":"357.28","velocity":0.3858267716535433,"duration":"0.16"},{"name":"D#3","midi":51,"time":"357.29","velocity":0.5511811023622047,"duration":"0.02"},{"name":"A5","midi":81,"time":"357.29","velocity":0.3464566929133858,"duration":"0.27"},{"name":"D6","midi":86,"time":"357.29","velocity":0.2440944881889764,"duration":"0.09"},{"name":"F2","midi":41,"time":"357.30","velocity":0.48031496062992124,"duration":"0.02"},{"name":"G6","midi":91,"time":"357.30","velocity":0.08661417322834646,"duration":"0.06"},{"name":"C7","midi":96,"time":"357.30","velocity":0.16535433070866143,"duration":"0.16"},{"name":"C#4","midi":61,"time":"357.31","velocity":0.33858267716535434,"duration":"0.13"},{"name":"F7","midi":101,"time":"357.31","velocity":0.2992125984251969,"duration":"1.06"},{"name":"A4","midi":69,"time":"357.33","velocity":0.33858267716535434,"duration":"0.07"},{"name":"F6","midi":89,"time":"357.33","velocity":0.14960629921259844,"duration":"0.05"},{"name":"E3","midi":52,"time":"357.34","velocity":0.5196850393700787,"duration":"0.14"},{"name":"B4","midi":71,"time":"357.36","velocity":0.4881889763779528,"duration":"0.16"},{"name":"F#5","midi":78,"time":"357.36","velocity":0.3779527559055118,"duration":"0.16"},{"name":"E2","midi":40,"time":"357.38","velocity":0.47244094488188976,"duration":"0.02"},{"name":"D#6","midi":87,"time":"357.38","velocity":0.18110236220472442,"duration":"0.15"},{"name":"G6","midi":91,"time":"357.40","velocity":0.2047244094488189,"duration":"0.12"},{"name":"G#6","midi":92,"time":"357.41","velocity":0.30708661417322836,"duration":"0.12"},{"name":"E2","midi":40,"time":"357.42","velocity":0.5590551181102362,"duration":"0.08"},{"name":"G#5","midi":80,"time":"357.42","velocity":0.33858267716535434,"duration":"0.08"},{"name":"A4","midi":69,"time":"357.43","velocity":0.2992125984251969,"duration":"0.02"},{"name":"D6","midi":86,"time":"357.43","velocity":0.1732283464566929,"duration":"0.03"},{"name":"F6","midi":89,"time":"357.44","velocity":0.18110236220472442,"duration":"0.03"},{"name":"C#5","midi":73,"time":"357.45","velocity":0.2755905511811024,"duration":"0.05"},{"name":"A4","midi":69,"time":"357.47","velocity":0.25984251968503935,"duration":"0.05"},{"name":"F3","midi":53,"time":"357.48","velocity":0.4881889763779528,"duration":"0.06"},{"name":"F2","midi":41,"time":"357.50","velocity":0.5905511811023622,"duration":"0.02"},{"name":"A#3","midi":58,"time":"357.50","velocity":0.3779527559055118,"duration":"0.02"},{"name":"C#4","midi":61,"time":"357.51","velocity":0.33070866141732286,"duration":"0.02"},{"name":"C#5","midi":73,"time":"357.51","velocity":0.3543307086614173,"duration":"0.09"},{"name":"G#5","midi":80,"time":"357.51","velocity":0.4015748031496063,"duration":"0.12"},{"name":"F#2","midi":42,"time":"357.52","velocity":0.5905511811023622,"duration":"0.03"},{"name":"G6","midi":91,"time":"357.52","velocity":0.2677165354330709,"duration":"0.05"},{"name":"G3","midi":55,"time":"357.53","velocity":0.3779527559055118,"duration":"0.02"},{"name":"B4","midi":71,"time":"357.53","velocity":0.3464566929133858,"duration":"0.05"},{"name":"F#5","midi":78,"time":"357.53","velocity":0.33070866141732286,"duration":"0.07"},{"name":"D6","midi":86,"time":"357.53","velocity":0.29133858267716534,"duration":"0.26"},{"name":"C7","midi":96,"time":"357.53","velocity":0.14173228346456693,"duration":"0.19"},{"name":"F6","midi":89,"time":"357.55","velocity":0.16535433070866143,"duration":"0.06"},{"name":"G2","midi":43,"time":"357.56","velocity":0.5905511811023622,"duration":"0.02"},{"name":"G4","midi":67,"time":"357.56","velocity":0.2283464566929134,"duration":"0.02"},{"name":"A4","midi":69,"time":"357.57","velocity":0.3937007874015748,"duration":"0.02"},{"name":"G7","midi":103,"time":"357.57","velocity":0.14960629921259844,"duration":"0.14"},{"name":"A#2","midi":46,"time":"357.58","velocity":0.6062992125984252,"duration":"0.01"},{"name":"D#6","midi":87,"time":"357.58","velocity":0.2125984251968504,"duration":"0.03"},{"name":"G6","midi":91,"time":"357.58","velocity":0.12598425196850394,"duration":"0.03"},{"name":"A2","midi":45,"time":"357.59","velocity":0.6614173228346457,"duration":"0.01"},{"name":"G3","midi":55,"time":"357.59","velocity":0.4881889763779528,"duration":"0.02"},{"name":"A#4","midi":70,"time":"357.59","velocity":0.4251968503937008,"duration":"0.02"},{"name":"A5","midi":81,"time":"357.59","velocity":0.4015748031496063,"duration":"0.12"},{"name":"G#2","midi":44,"time":"357.60","velocity":0.6535433070866141,"duration":"0.03"},{"name":"C#5","midi":73,"time":"357.62","velocity":0.36220472440944884,"duration":"0.15"},{"name":"E5","midi":76,"time":"357.62","velocity":0.5354330708661418,"duration":"0.77"},{"name":"A#6","midi":94,"time":"357.62","velocity":0.23622047244094488,"duration":"0.56"},{"name":"E1","midi":28,"time":"357.63","velocity":0.5118110236220472,"duration":"0.01"},{"name":"A3","midi":57,"time":"357.63","velocity":0.3779527559055118,"duration":"0.02"},{"name":"B4","midi":71,"time":"357.63","velocity":0.33070866141732286,"duration":"0.08"},{"name":"F#5","midi":78,"time":"357.63","velocity":0.2283464566929134,"duration":"0.03"},{"name":"A2","midi":45,"time":"357.64","velocity":0.6062992125984252,"duration":"0.34"},{"name":"C#4","midi":61,"time":"357.64","velocity":0.29133858267716534,"duration":"0.05"},{"name":"F#4","midi":66,"time":"357.64","velocity":0.2677165354330709,"duration":"0.05"},{"name":"G#5","midi":80,"time":"357.64","velocity":0.4881889763779528,"duration":"0.56"},{"name":"F6","midi":89,"time":"357.64","velocity":0.2283464566929134,"duration":"0.12"},{"name":"A#3","midi":58,"time":"357.65","velocity":0.29133858267716534,"duration":"0.02"},{"name":"G#4","midi":68,"time":"357.65","velocity":0.2283464566929134,"duration":"0.02"},{"name":"G5","midi":79,"time":"357.65","velocity":0.23622047244094488,"duration":"0.02"},{"name":"C#6","midi":85,"time":"357.66","velocity":0.4566929133858268,"duration":"0.74"},{"name":"G4","midi":67,"time":"357.69","velocity":0.2677165354330709,"duration":"0.03"},{"name":"C#4","midi":61,"time":"357.70","velocity":0.1732283464566929,"duration":"0.05"},{"name":"F#5","midi":78,"time":"357.70","velocity":0.2755905511811024,"duration":"0.44"},{"name":"F#4","midi":66,"time":"357.72","velocity":0.2283464566929134,"duration":"0.02"},{"name":"A5","midi":81,"time":"357.72","velocity":0.2677165354330709,"duration":"0.06"},{"name":"B5","midi":83,"time":"357.72","velocity":0.2440944881889764,"duration":"0.09"},{"name":"C7","midi":96,"time":"357.74","velocity":0.11023622047244094,"duration":"0.07"},{"name":"C#4","midi":61,"time":"357.76","velocity":0.25196850393700787,"duration":"0.02"},{"name":"D5","midi":74,"time":"357.76","velocity":0.11811023622047244,"duration":"0.03"},{"name":"G#1","midi":32,"time":"357.77","velocity":0.25196850393700787,"duration":"0.02"},{"name":"E4","midi":64,"time":"357.77","velocity":0.29133858267716534,"duration":"0.03"},{"name":"C#5","midi":73,"time":"357.78","velocity":0.5039370078740157,"duration":"0.44"},{"name":"F6","midi":89,"time":"357.78","velocity":0.18110236220472442,"duration":"0.03"},{"name":"A5","midi":81,"time":"357.79","velocity":0.3937007874015748,"duration":"0.21"},{"name":"F#4","midi":66,"time":"357.80","velocity":0.33070866141732286,"duration":"0.02"},{"name":"F4","midi":65,"time":"357.83","velocity":0.2992125984251969,"duration":"0.02"},{"name":"A4","midi":69,"time":"357.83","velocity":0.4094488188976378,"duration":"0.16"},{"name":"B5","midi":83,"time":"357.83","velocity":0.3543307086614173,"duration":"0.52"},{"name":"G6","midi":91,"time":"357.83","velocity":0.15748031496062992,"duration":"0.23"},{"name":"C7","midi":96,"time":"357.83","velocity":0.15748031496062992,"duration":"0.15"},{"name":"E4","midi":64,"time":"357.84","velocity":0.3937007874015748,"duration":"0.31"},{"name":"B4","midi":71,"time":"357.84","velocity":0.2047244094488189,"duration":"0.10"},{"name":"C#4","midi":61,"time":"357.86","velocity":0.3858267716535433,"duration":"0.13"},{"name":"F6","midi":89,"time":"357.87","velocity":0.2125984251968504,"duration":"0.15"},{"name":"D7","midi":98,"time":"357.88","velocity":0.1889763779527559,"duration":"0.09"},{"name":"G#3","midi":56,"time":"357.93","velocity":0.2440944881889764,"duration":"0.02"},{"name":"D6","midi":86,"time":"357.94","velocity":0.11023622047244094,"duration":"0.03"},{"name":"A#2","midi":46,"time":"357.98","velocity":0.5905511811023622,"duration":"0.03"},{"name":"C6","midi":84,"time":"357.98","velocity":0.1968503937007874,"duration":"0.05"},{"name":"A3","midi":57,"time":"358.00","velocity":0.3700787401574803,"duration":"0.34"},{"name":"C#4","midi":61,"time":"358.00","velocity":0.1732283464566929,"duration":"0.03"},{"name":"D7","midi":98,"time":"358.00","velocity":0.13385826771653545,"duration":"0.08"},{"name":"A2","midi":45,"time":"358.01","velocity":0.6062992125984252,"duration":"0.34"},{"name":"G4","midi":67,"time":"358.05","velocity":0.25984251968503935,"duration":"0.03"},{"name":"B4","midi":71,"time":"358.05","velocity":0.1968503937007874,"duration":"0.05"},{"name":"F6","midi":89,"time":"358.05","velocity":0.25984251968503935,"duration":"0.16"},{"name":"C#4","midi":61,"time":"358.07","velocity":0.4015748031496063,"duration":"0.27"},{"name":"G7","midi":103,"time":"358.09","velocity":0.08661417322834646,"duration":"0.03"},{"name":"A5","midi":81,"time":"358.12","velocity":0.3779527559055118,"duration":"0.15"},{"name":"D7","midi":98,"time":"358.15","velocity":0.12598425196850394,"duration":"0.07"},{"name":"F#5","midi":78,"time":"358.16","velocity":0.23622047244094488,"duration":"0.02"},{"name":"D6","midi":86,"time":"358.16","velocity":0.11811023622047244,"duration":"0.05"},{"name":"D#7","midi":99,"time":"358.16","velocity":0.25196850393700787,"duration":"1.43"},{"name":"E4","midi":64,"time":"358.20","velocity":0.3464566929133858,"duration":"0.14"},{"name":"F#5","midi":78,"time":"358.20","velocity":0.2204724409448819,"duration":"0.03"},{"name":"F6","midi":89,"time":"358.22","velocity":0.2125984251968504,"duration":"0.16"},{"name":"C#5","midi":73,"time":"358.23","velocity":0.44881889763779526,"duration":"0.16"},{"name":"D6","midi":86,"time":"358.23","velocity":0.08661417322834646,"duration":"0.09"},{"name":"D7","midi":98,"time":"358.23","velocity":0.08661417322834646,"duration":"0.03"},{"name":"F#5","midi":78,"time":"358.24","velocity":0.1968503937007874,"duration":"0.03"},{"name":"F#7","midi":102,"time":"358.24","velocity":0.28346456692913385,"duration":"0.24"},{"name":"G#5","midi":80,"time":"358.26","velocity":0.49606299212598426,"duration":"0.81"},{"name":"A#6","midi":94,"time":"358.28","velocity":0.28346456692913385,"duration":"0.30"},{"name":"E7","midi":100,"time":"358.29","velocity":0.1889763779527559,"duration":"0.15"},{"name":"F#5","midi":78,"time":"358.30","velocity":0.41732283464566927,"duration":"0.44"},{"name":"A6","midi":93,"time":"358.33","velocity":0.28346456692913385,"duration":"0.09"},{"name":"C4","midi":60,"time":"358.34","velocity":0.47244094488188976,"duration":"0.06"},{"name":"F#4","midi":66,"time":"358.34","velocity":0.44881889763779526,"duration":"0.06"},{"name":"C7","midi":96,"time":"358.34","velocity":0.3228346456692913,"duration":"0.09"},{"name":"G7","midi":103,"time":"358.34","velocity":0.1968503937007874,"duration":"0.20"},{"name":"D6","midi":86,"time":"358.35","velocity":0.28346456692913385,"duration":"0.02"},{"name":"F3","midi":53,"time":"358.36","velocity":0.4330708661417323,"duration":"0.02"},{"name":"A#5","midi":82,"time":"358.36","velocity":0.25984251968503935,"duration":"0.03"},{"name":"G6","midi":91,"time":"358.36","velocity":0.30708661417322836,"duration":"0.09"},{"name":"A4","midi":69,"time":"358.37","velocity":0.5275590551181102,"duration":"0.09"},{"name":"B5","midi":83,"time":"358.37","velocity":0.3700787401574803,"duration":"0.53"},{"name":"D#6","midi":87,"time":"358.37","velocity":0.23622047244094488,"duration":"0.05"},{"name":"G#2","midi":44,"time":"358.38","velocity":0.5669291338582677,"duration":"0.01"},{"name":"D6","midi":86,"time":"358.38","velocity":0.2755905511811024,"duration":"0.08"},{"name":"A2","midi":45,"time":"358.40","velocity":0.6141732283464567,"duration":"0.70"},{"name":"E5","midi":76,"time":"358.40","velocity":0.3700787401574803,"duration":"0.35"},{"name":"F6","midi":89,"time":"358.40","velocity":0.2440944881889764,"duration":"0.12"},{"name":"F7","midi":101,"time":"358.40","velocity":0.25196850393700787,"duration":"0.86"},{"name":"F#4","midi":66,"time":"358.41","velocity":0.3858267716535433,"duration":"0.05"},{"name":"C#5","midi":73,"time":"358.41","velocity":0.5905511811023622,"duration":"0.77"},{"name":"C#4","midi":61,"time":"358.43","velocity":0.4645669291338583,"duration":"0.34"},{"name":"G#4","midi":68,"time":"358.45","velocity":0.30708661417322836,"duration":"0.03"},{"name":"E4","midi":64,"time":"358.47","velocity":0.33070866141732286,"duration":"0.02"},{"name":"B4","midi":71,"time":"358.48","velocity":0.2992125984251969,"duration":"0.02"},{"name":"D6","midi":86,"time":"358.48","velocity":0.23622047244094488,"duration":"0.03"},{"name":"C7","midi":96,"time":"358.48","velocity":0.1732283464566929,"duration":"0.10"},{"name":"F4","midi":65,"time":"358.49","velocity":0.2755905511811024,"duration":"0.03"},{"name":"A#5","midi":82,"time":"358.49","velocity":0.10236220472440945,"duration":"0.03"},{"name":"F#7","midi":102,"time":"358.50","velocity":0.2992125984251969,"duration":"0.55"},{"name":"A#3","midi":58,"time":"358.51","velocity":0.3937007874015748,"duration":"0.02"},{"name":"B4","midi":71,"time":"358.51","velocity":0.2755905511811024,"duration":"0.05"},{"name":"A6","midi":93,"time":"358.52","velocity":0.2440944881889764,"duration":"0.19"},{"name":"F6","midi":89,"time":"358.53","velocity":0.2125984251968504,"duration":"0.14"},{"name":"F3","midi":53,"time":"358.55","velocity":0.3464566929133858,"duration":"0.02"},{"name":"E4","midi":64,"time":"358.56","velocity":0.3858267716535433,"duration":"0.05"},{"name":"E3","midi":52,"time":"358.57","velocity":0.31496062992125984,"duration":"0.02"},{"name":"B4","midi":71,"time":"358.57","velocity":0.23622047244094488,"duration":"0.03"},{"name":"G#4","midi":68,"time":"358.58","velocity":0.3228346456692913,"duration":"0.15"},{"name":"D6","midi":86,"time":"358.59","velocity":0.18110236220472442,"duration":"0.03"},{"name":"A#6","midi":94,"time":"358.59","velocity":0.25984251968503935,"duration":"0.19"},{"name":"E4","midi":64,"time":"358.62","velocity":0.4015748031496063,"duration":"0.29"},{"name":"G6","midi":91,"time":"358.62","velocity":0.14960629921259844,"duration":"0.03"},{"name":"C7","midi":96,"time":"358.62","velocity":0.1732283464566929,"duration":"0.21"},{"name":"A5","midi":81,"time":"358.65","velocity":0.3543307086614173,"duration":"0.08"},{"name":"D6","midi":86,"time":"358.66","velocity":0.12598425196850394,"duration":"0.03"},{"name":"G6","midi":91,"time":"358.67","velocity":0.15748031496062992,"duration":"0.07"},{"name":"B4","midi":71,"time":"358.70","velocity":0.25984251968503935,"duration":"0.03"},{"name":"F6","midi":89,"time":"358.70","velocity":0.2677165354330709,"duration":"0.17"},{"name":"E7","midi":100,"time":"358.71","velocity":0.2047244094488189,"duration":"0.09"},{"name":"G#3","midi":56,"time":"358.72","velocity":0.3858267716535433,"duration":"0.03"},{"name":"G4","midi":67,"time":"358.72","velocity":0.2992125984251969,"duration":"0.03"},{"name":"D6","midi":86,"time":"358.72","velocity":0.23622047244094488,"duration":"0.21"},{"name":"G7","midi":103,"time":"358.72","velocity":0.1968503937007874,"duration":"0.06"},{"name":"A4","midi":69,"time":"358.74","velocity":0.4251968503937008,"duration":"0.40"},{"name":"D#6","midi":87,"time":"358.76","velocity":0.09448818897637795,"duration":"0.03"},{"name":"B4","midi":71,"time":"358.77","velocity":0.30708661417322836,"duration":"0.07"},{"name":"F#5","midi":78,"time":"358.77","velocity":0.1732283464566929,"duration":"0.06"},{"name":"A#6","midi":94,"time":"358.79","velocity":0.1889763779527559,"duration":"0.10"},{"name":"G7","midi":103,"time":"358.79","velocity":0.10236220472440945,"duration":"0.05"},{"name":"E7","midi":100,"time":"358.81","velocity":0.2204724409448819,"duration":"0.15"},{"name":"G1","midi":31,"time":"358.83","velocity":0.29133858267716534,"duration":"0.02"},{"name":"F#6","midi":90,"time":"358.84","velocity":0.2047244094488189,"duration":"0.12"},{"name":"C7","midi":96,"time":"358.84","velocity":0.15748031496062992,"duration":"0.07"},{"name":"G4","midi":67,"time":"358.85","velocity":0.2204724409448819,"duration":"0.03"},{"name":"B4","midi":71,"time":"358.85","velocity":0.30708661417322836,"duration":"0.02"},{"name":"G6","midi":91,"time":"358.86","velocity":0.08661417322834646,"duration":"0.03"},{"name":"C#7","midi":97,"time":"358.86","velocity":0.36220472440944884,"duration":"1.07"},{"name":"G7","midi":103,"time":"358.86","velocity":0.10236220472440945,"duration":"0.03"},{"name":"C6","midi":84,"time":"358.88","velocity":0.14173228346456693,"duration":"0.05"},{"name":"A6","midi":93,"time":"358.88","velocity":0.29133858267716534,"duration":"0.23"},{"name":"C#4","midi":61,"time":"358.90","velocity":0.25196850393700787,"duration":"0.03"},{"name":"F6","midi":89,"time":"358.91","velocity":0.2204724409448819,"duration":"0.12"},{"name":"A#6","midi":94,"time":"358.91","velocity":0.1732283464566929,"duration":"0.16"},{"name":"G5","midi":79,"time":"358.92","velocity":0.2677165354330709,"duration":"0.03"},{"name":"B5","midi":83,"time":"358.92","velocity":0.1889763779527559,"duration":"0.05"},{"name":"E4","midi":64,"time":"358.93","velocity":0.3700787401574803,"duration":"0.05"},{"name":"A#5","midi":82,"time":"358.94","velocity":0.07086614173228346,"duration":"0.03"},{"name":"C#4","midi":61,"time":"358.97","velocity":0.4881889763779528,"duration":"0.15"},{"name":"F#5","midi":78,"time":"358.97","velocity":0.2677165354330709,"duration":"0.14"},{"name":"B5","midi":83,"time":"358.98","velocity":0.3858267716535433,"duration":"0.51"},{"name":"E4","midi":64,"time":"358.99","velocity":0.36220472440944884,"duration":"0.05"},{"name":"E4","midi":64,"time":"359.05","velocity":0.3464566929133858,"duration":"0.02"},{"name":"F6","midi":89,"time":"359.05","velocity":0.10236220472440945,"duration":"0.03"},{"name":"C7","midi":96,"time":"359.05","velocity":0.1732283464566929,"duration":"0.08"},{"name":"A#6","midi":94,"time":"359.08","velocity":0.1889763779527559,"duration":"0.13"},{"name":"A#2","midi":46,"time":"359.09","velocity":0.6850393700787402,"duration":"0.01"},{"name":"F#4","midi":66,"time":"359.09","velocity":0.4015748031496063,"duration":"0.05"},{"name":"G#5","midi":80,"time":"359.09","velocity":0.23622047244094488,"duration":"0.03"},{"name":"G7","midi":103,"time":"359.09","velocity":0.1968503937007874,"duration":"0.21"},{"name":"A2","midi":45,"time":"359.10","velocity":0.6929133858267716,"duration":"0.01"},{"name":"F3","midi":53,"time":"359.10","velocity":0.5196850393700787,"duration":"0.02"},{"name":"F6","midi":89,"time":"359.10","velocity":0.15748031496062992,"duration":"0.05"},{"name":"F#7","midi":102,"time":"359.10","velocity":0.2125984251968504,"duration":"0.07"},{"name":"F#2","midi":42,"time":"359.12","velocity":0.5905511811023622,"duration":"0.02"},{"name":"F#6","midi":90,"time":"359.12","velocity":0.2677165354330709,"duration":"0.93"},{"name":"E3","midi":52,"time":"359.13","velocity":0.5275590551181102,"duration":"0.03"},{"name":"C#4","midi":61,"time":"359.13","velocity":0.47244094488188976,"duration":"0.36"},{"name":"D7","midi":98,"time":"359.13","velocity":0.11023622047244094,"duration":"0.07"},{"name":"D#1","midi":27,"time":"359.14","velocity":0.5275590551181102,"duration":"0.01"},{"name":"G2","midi":43,"time":"359.14","velocity":0.5196850393700787,"duration":"0.01"},{"name":"F#1","midi":30,"time":"359.15","velocity":0.5354330708661418,"duration":"0.01"},{"name":"A#2","midi":46,"time":"359.15","velocity":0.5826771653543307,"duration":"0.01"},{"name":"A4","midi":69,"time":"359.15","velocity":0.2283464566929134,"duration":"0.02"},{"name":"E5","midi":76,"time":"359.15","velocity":0.23622047244094488,"duration":"0.30"},{"name":"G#5","midi":80,"time":"359.15","velocity":0.3543307086614173,"duration":"0.10"},{"name":"A2","midi":45,"time":"359.16","velocity":0.6220472440944882,"duration":"0.31"},{"name":"D6","midi":86,"time":"359.16","velocity":0.1889763779527559,"duration":"0.03"},{"name":"F6","midi":89,"time":"359.16","velocity":0.1968503937007874,"duration":"0.16"},{"name":"E4","midi":64,"time":"359.17","velocity":0.2283464566929134,"duration":"0.03"},{"name":"C7","midi":96,"time":"359.17","velocity":0.16535433070866143,"duration":"0.10"},{"name":"G#4","midi":68,"time":"359.19","velocity":0.1889763779527559,"duration":"0.03"},{"name":"C#5","midi":73,"time":"359.19","velocity":0.5984251968503937,"duration":"1.17"},{"name":"C6","midi":84,"time":"359.21","velocity":0.1889763779527559,"duration":"0.07"},{"name":"A5","midi":81,"time":"359.22","velocity":0.3858267716535433,"duration":"0.19"},{"name":"A#6","midi":94,"time":"359.22","velocity":0.2204724409448819,"duration":"0.12"},{"name":"F#5","midi":78,"time":"359.24","velocity":0.2283464566929134,"duration":"0.10"},{"name":"D7","midi":98,"time":"359.24","velocity":0.2204724409448819,"duration":"0.27"},{"name":"E6","midi":88,"time":"359.26","velocity":0.31496062992125984,"duration":"0.24"},{"name":"F#1","midi":30,"time":"359.27","velocity":0.30708661417322836,"duration":"0.02"},{"name":"F7","midi":101,"time":"359.27","velocity":0.25196850393700787,"duration":"1.21"},{"name":"E4","midi":64,"time":"359.29","velocity":0.3464566929133858,"duration":"0.14"},{"name":"D6","midi":86,"time":"359.29","velocity":0.18110236220472442,"duration":"0.05"},{"name":"G6","midi":91,"time":"359.29","velocity":0.13385826771653545,"duration":"0.08"},{"name":"C7","midi":96,"time":"359.30","velocity":0.15748031496062992,"duration":"0.28"},{"name":"G1","midi":31,"time":"359.31","velocity":0.33858267716535434,"duration":"0.02"},{"name":"G7","midi":103,"time":"359.33","velocity":0.1889763779527559,"duration":"0.12"},{"name":"G#5","midi":80,"time":"359.34","velocity":0.44881889763779526,"duration":"0.45"},{"name":"F5","midi":77,"time":"359.35","velocity":0.10236220472440945,"duration":"0.05"},{"name":"A#6","midi":94,"time":"359.36","velocity":0.1732283464566929,"duration":"0.15"},{"name":"G#1","midi":32,"time":"359.37","velocity":0.23622047244094488,"duration":"0.05"},{"name":"G6","midi":91,"time":"359.38","velocity":0.14173228346456693,"duration":"0.08"},{"name":"F#5","midi":78,"time":"359.41","velocity":0.1968503937007874,"duration":"0.07"},{"name":"F6","midi":89,"time":"359.42","velocity":0.16535433070866143,"duration":"0.09"},{"name":"A6","midi":93,"time":"359.44","velocity":0.2047244094488189,"duration":"0.09"},{"name":"F#4","midi":66,"time":"359.45","velocity":0.3858267716535433,"duration":"0.09"},{"name":"D6","midi":86,"time":"359.45","velocity":0.12598425196850394,"duration":"0.03"},{"name":"E5","midi":76,"time":"359.47","velocity":0.3464566929133858,"duration":"0.37"},{"name":"G7","midi":103,"time":"359.47","velocity":0.16535433070866143,"duration":"0.06"},{"name":"G#2","midi":44,"time":"359.48","velocity":0.6614173228346457,"duration":"0.01"},{"name":"G5","midi":79,"time":"359.48","velocity":0.29133858267716534,"duration":"0.03"},{"name":"F2","midi":41,"time":"359.49","velocity":0.6614173228346457,"duration":"0.01"},{"name":"F#2","midi":42,"time":"359.50","velocity":0.5905511811023622,"duration":"0.01"},{"name":"D3","midi":50,"time":"359.50","velocity":0.5118110236220472,"duration":"0.01"},{"name":"C#4","midi":61,"time":"359.50","velocity":0.41732283464566927,"duration":"0.30"},{"name":"G#2","midi":44,"time":"359.51","velocity":0.5905511811023622,"duration":"0.02"},{"name":"F1","midi":29,"time":"359.52","velocity":0.5748031496062992,"duration":"0.01"},{"name":"F6","midi":89,"time":"359.52","velocity":0.16535433070866143,"duration":"0.19"},{"name":"A#6","midi":94,"time":"359.52","velocity":0.31496062992125984,"duration":"0.86"},{"name":"D7","midi":98,"time":"359.52","velocity":0.31496062992125984,"duration":"1.38"},{"name":"A1","midi":33,"time":"359.53","velocity":0.5433070866141733,"duration":"0.01"},{"name":"A2","midi":45,"time":"359.53","velocity":0.6299212598425197,"duration":"0.31"},{"name":"A#4","midi":70,"time":"359.55","velocity":0.25196850393700787,"duration":"0.02"},{"name":"A6","midi":93,"time":"359.56","velocity":0.11811023622047244,"duration":"0.08"},{"name":"G4","midi":67,"time":"359.57","velocity":0.2283464566929134,"duration":"0.02"},{"name":"A4","midi":69,"time":"359.57","velocity":0.47244094488188976,"duration":"0.29"},{"name":"F#4","midi":66,"time":"359.59","velocity":0.28346456692913385,"duration":"0.07"},{"name":"C7","midi":96,"time":"359.59","velocity":0.11023622047244094,"duration":"0.06"},{"name":"D#7","midi":99,"time":"359.62","velocity":0.15748031496062992,"duration":"0.20"},{"name":"G1","midi":31,"time":"359.65","velocity":0.31496062992125984,"duration":"0.06"},{"name":"B5","midi":83,"time":"359.65","velocity":0.2992125984251969,"duration":"0.23"},{"name":"E7","midi":100,"time":"359.65","velocity":0.28346456692913385,"duration":"0.86"},{"name":"F#4","midi":66,"time":"359.67","velocity":0.25196850393700787,"duration":"0.03"},{"name":"E4","midi":64,"time":"359.70","velocity":0.25196850393700787,"duration":"0.08"},{"name":"F6","midi":89,"time":"359.72","velocity":0.14960629921259844,"duration":"0.05"},{"name":"F#4","midi":66,"time":"359.74","velocity":0.2283464566929134,"duration":"0.06"},{"name":"G6","midi":91,"time":"359.77","velocity":0.15748031496062992,"duration":"0.03"},{"name":"B4","midi":71,"time":"359.79","velocity":0.23622047244094488,"duration":"0.06"},{"name":"F6","midi":89,"time":"359.79","velocity":0.25984251968503935,"duration":"0.33"},{"name":"G#5","midi":80,"time":"359.80","velocity":0.4330708661417323,"duration":"0.19"},{"name":"D#6","midi":87,"time":"359.81","velocity":0.31496062992125984,"duration":"0.06"},{"name":"F#4","midi":66,"time":"359.83","velocity":0.4330708661417323,"duration":"0.02"},{"name":"C7","midi":96,"time":"359.83","velocity":0.1732283464566929,"duration":"0.34"},{"name":"C#4","midi":61,"time":"359.84","velocity":0.5354330708661418,"duration":"0.02"},{"name":"F5","midi":77,"time":"359.84","velocity":0.2283464566929134,"duration":"0.02"},{"name":"G6","midi":91,"time":"359.84","velocity":0.2047244094488189,"duration":"0.07"},{"name":"G#3","midi":56,"time":"359.85","velocity":0.49606299212598426,"duration":"0.05"},{"name":"D#5","midi":75,"time":"359.85","velocity":0.3937007874015748,"duration":"0.02"},{"name":"A6","midi":93,"time":"359.85","velocity":0.31496062992125984,"duration":"0.17"},{"name":"C4","midi":60,"time":"359.86","velocity":0.4566929133858268,"duration":"0.02"},{"name":"F#4","midi":66,"time":"359.86","velocity":0.4409448818897638,"duration":"0.02"},{"name":"A#4","midi":70,"time":"359.86","velocity":0.4566929133858268,"duration":"0.03"},{"name":"A5","midi":81,"time":"359.86","velocity":0.29133858267716534,"duration":"0.06"},{"name":"C6","midi":84,"time":"359.86","velocity":0.23622047244094488,"duration":"0.03"},{"name":"A2","midi":45,"time":"359.87","velocity":0.5905511811023622,"duration":"0.34"},{"name":"G5","midi":79,"time":"359.87","velocity":0.2992125984251969,"duration":"0.03"},{"name":"C#4","midi":61,"time":"359.88","velocity":0.3228346456692913,"duration":"0.02"},{"name":"F4","midi":65,"time":"359.88","velocity":0.33858267716535434,"duration":"0.02"},{"name":"D6","midi":86,"time":"359.88","velocity":0.2204724409448819,"duration":"0.03"},{"name":"A4","midi":69,"time":"359.90","velocity":0.4094488188976378,"duration":"0.05"},{"name":"E5","midi":76,"time":"359.90","velocity":0.41732283464566927,"duration":"1.38"},{"name":"B5","midi":83,"time":"359.90","velocity":0.4330708661417323,"duration":"0.67"},{"name":"A#3","midi":58,"time":"359.91","velocity":0.47244094488188976,"duration":"0.02"},{"name":"F#5","midi":78,"time":"359.92","velocity":0.1968503937007874,"duration":"0.05"},{"name":"G6","midi":91,"time":"359.92","velocity":0.09448818897637795,"duration":"0.03"},{"name":"G7","midi":103,"time":"359.92","velocity":0.13385826771653545,"duration":"0.03"},{"name":"B4","midi":71,"time":"359.94","velocity":0.3228346456692913,"duration":"0.02"},{"name":"D6","midi":86,"time":"359.95","velocity":0.2755905511811024,"duration":"0.05"},{"name":"G7","midi":103,"time":"359.98","velocity":0.10236220472440945,"duration":"0.07"},{"name":"F#5","midi":78,"time":"359.99","velocity":0.18110236220472442,"duration":"0.12"},{"name":"G#5","midi":80,"time":"360.00","velocity":0.41732283464566927,"duration":"0.63"},{"name":"D#6","midi":87,"time":"360.00","velocity":0.07086614173228346,"duration":"0.06"},{"name":"D6","midi":86,"time":"360.01","velocity":0.25984251968503935,"duration":"0.10"},{"name":"F4","midi":65,"time":"360.02","velocity":0.29133858267716534,"duration":"0.02"},{"name":"G6","midi":91,"time":"360.02","velocity":0.14173228346456693,"duration":"0.05"},{"name":"C#4","midi":61,"time":"360.03","velocity":0.3228346456692913,"duration":"0.02"},{"name":"B4","midi":71,"time":"360.03","velocity":0.2755905511811024,"duration":"0.06"},{"name":"E4","midi":64,"time":"360.05","velocity":0.3937007874015748,"duration":"0.36"},{"name":"C#4","midi":61,"time":"360.07","velocity":0.29133858267716534,"duration":"0.02"},{"name":"F#6","midi":90,"time":"360.07","velocity":0.2204724409448819,"duration":"0.30"},{"name":"F6","midi":89,"time":"360.13","velocity":0.18110236220472442,"duration":"0.09"},{"name":"C#4","midi":61,"time":"360.15","velocity":0.33070866141732286,"duration":"0.06"},{"name":"A6","midi":93,"time":"360.15","velocity":0.2047244094488189,"duration":"0.13"},{"name":"F#5","midi":78,"time":"360.16","velocity":0.2125984251968504,"duration":"0.09"},{"name":"D#7","midi":99,"time":"360.16","velocity":0.2677165354330709,"duration":"0.58"},{"name":"G7","midi":103,"time":"360.17","velocity":0.1889763779527559,"duration":"0.20"},{"name":"C7","midi":96,"time":"360.19","velocity":0.11811023622047244,"duration":"0.03"},{"name":"A3","midi":57,"time":"360.21","velocity":0.4094488188976378,"duration":"0.02"},{"name":"D#6","midi":87,"time":"360.21","velocity":0.13385826771653545,"duration":"0.07"},{"name":"A#3","midi":58,"time":"360.23","velocity":0.41732283464566927,"duration":"0.02"},{"name":"G6","midi":91,"time":"360.23","velocity":0.18110236220472442,"duration":"0.06"},{"name":"G#2","midi":44,"time":"360.24","velocity":0.5905511811023622,"duration":"0.01"},{"name":"A2","midi":45,"time":"360.26","velocity":0.6062992125984252,"duration":"0.33"},{"name":"C#4","midi":61,"time":"360.26","velocity":0.2677165354330709,"duration":"0.02"},{"name":"C7","midi":96,"time":"360.26","velocity":0.14960629921259844,"duration":"0.05"},{"name":"F#5","midi":78,"time":"360.29","velocity":0.1889763779527559,"duration":"0.06"},{"name":"G4","midi":67,"time":"360.30","velocity":0.1732283464566929,"duration":"0.03"},{"name":"G#1","midi":32,"time":"360.33","velocity":0.28346456692913385,"duration":"0.03"},{"name":"F6","midi":89,"time":"360.33","velocity":0.1732283464566929,"duration":"0.13"},{"name":"C#4","midi":61,"time":"360.36","velocity":0.33070866141732286,"duration":"0.07"},{"name":"F#5","midi":78,"time":"360.36","velocity":0.13385826771653545,"duration":"0.03"},{"name":"C#5","midi":73,"time":"360.37","velocity":0.5433070866141733,"duration":"0.29"},{"name":"F#6","midi":90,"time":"360.38","velocity":0.13385826771653545,"duration":"0.07"},{"name":"D6","midi":86,"time":"360.40","velocity":0.15748031496062992,"duration":"0.03"},{"name":"A#6","midi":94,"time":"360.40","velocity":0.25984251968503935,"duration":"0.15"},{"name":"F#4","midi":66,"time":"360.41","velocity":0.25984251968503935,"duration":"0.02"},{"name":"B4","midi":71,"time":"360.41","velocity":0.2755905511811024,"duration":"0.07"},{"name":"C6","midi":84,"time":"360.41","velocity":0.1968503937007874,"duration":"0.03"},{"name":"G7","midi":103,"time":"360.41","velocity":0.1889763779527559,"duration":"0.10"},{"name":"E4","midi":64,"time":"360.44","velocity":0.30708661417322836,"duration":"0.10"},{"name":"D6","midi":86,"time":"360.44","velocity":0.28346456692913385,"duration":"0.05"},{"name":"G6","midi":91,"time":"360.44","velocity":0.1732283464566929,"duration":"0.03"},{"name":"C#4","midi":61,"time":"360.47","velocity":0.3464566929133858,"duration":"0.12"},{"name":"F#5","midi":78,"time":"360.48","velocity":0.2677165354330709,"duration":"0.14"},{"name":"C7","midi":96,"time":"360.48","velocity":0.13385826771653545,"duration":"0.12"},{"name":"F#7","midi":102,"time":"360.48","velocity":0.1732283464566929,"duration":"0.08"},{"name":"B4","midi":71,"time":"360.49","velocity":0.2125984251968504,"duration":"0.07"},{"name":"D6","midi":86,"time":"360.50","velocity":0.33070866141732286,"duration":"0.10"},{"name":"A6","midi":93,"time":"360.52","velocity":0.2204724409448819,"duration":"0.14"},{"name":"G6","midi":91,"time":"360.53","velocity":0.15748031496062992,"duration":"0.06"},{"name":"F7","midi":101,"time":"360.53","velocity":0.15748031496062992,"duration":"0.12"},{"name":"F#4","midi":66,"time":"360.55","velocity":0.23622047244094488,"duration":"0.02"},{"name":"F6","midi":89,"time":"360.56","velocity":0.28346456692913385,"duration":"0.17"},{"name":"G4","midi":67,"time":"360.57","velocity":0.25984251968503935,"duration":"0.02"},{"name":"B4","midi":71,"time":"360.57","velocity":0.30708661417322836,"duration":"0.06"},{"name":"A#6","midi":94,"time":"360.57","velocity":0.16535433070866143,"duration":"0.13"},{"name":"F#2","midi":42,"time":"360.58","velocity":0.5118110236220472,"duration":"0.01"},{"name":"A#2","midi":46,"time":"360.58","velocity":0.5669291338582677,"duration":"0.01"},{"name":"G7","midi":103,"time":"360.58","velocity":0.15748031496062992,"duration":"0.19"},{"name":"D#2","midi":39,"time":"360.59","velocity":0.6141732283464567,"duration":"0.01"},{"name":"B2","midi":47,"time":"360.59","velocity":0.6062992125984252,"duration":"0.01"},{"name":"F4","midi":65,"time":"360.59","velocity":0.23622047244094488,"duration":"0.02"},{"name":"G#4","midi":68,"time":"360.59","velocity":0.3228346456692913,"duration":"0.02"},{"name":"C6","midi":84,"time":"360.59","velocity":0.23622047244094488,"duration":"0.03"},{"name":"G#2","midi":44,"time":"360.60","velocity":0.6377952755905512,"duration":"0.02"},{"name":"A5","midi":81,"time":"360.60","velocity":0.28346456692913385,"duration":"0.05"},{"name":"C#4","midi":61,"time":"360.62","velocity":0.4330708661417323,"duration":"0.71"},{"name":"G4","midi":67,"time":"360.62","velocity":0.30708661417322836,"duration":"0.02"},{"name":"B5","midi":83,"time":"360.62","velocity":0.33858267716535434,"duration":"0.72"},{"name":"D6","midi":86,"time":"360.62","velocity":0.23622047244094488,"duration":"0.05"},{"name":"G1","midi":31,"time":"360.63","velocity":0.5196850393700787,"duration":"0.02"},{"name":"B2","midi":47,"time":"360.63","velocity":0.5511811023622047,"duration":"0.01"},{"name":"A#4","midi":70,"time":"360.63","velocity":0.25196850393700787,"duration":"0.02"},{"name":"A#2","midi":46,"time":"360.64","velocity":0.5748031496062992,"duration":"0.01"},{"name":"A3","midi":57,"time":"360.64","velocity":0.2677165354330709,"duration":"0.07"},{"name":"G#5","midi":80,"time":"360.64","velocity":0.3858267716535433,"duration":"0.10"},{"name":"A2","midi":45,"time":"360.65","velocity":0.6220472440944882,"duration":"0.34"},{"name":"A4","midi":69,"time":"360.65","velocity":0.29133858267716534,"duration":"0.21"},{"name":"C5","midi":72,"time":"360.65","velocity":0.2755905511811024,"duration":"0.02"},{"name":"B1","midi":35,"time":"360.66","velocity":0.5354330708661418,"duration":"0.01"},{"name":"E4","midi":64,"time":"360.66","velocity":0.3858267716535433,"duration":"0.34"},{"name":"A5","midi":81,"time":"360.66","velocity":0.30708661417322836,"duration":"0.07"},{"name":"G6","midi":91,"time":"360.66","velocity":0.14173228346456693,"duration":"0.03"},{"name":"D6","midi":86,"time":"360.67","velocity":0.2440944881889764,"duration":"0.06"},{"name":"C#6","midi":85,"time":"360.70","velocity":0.41732283464566927,"duration":"0.92"},{"name":"B4","midi":71,"time":"360.71","velocity":0.16535433070866143,"duration":"0.05"},{"name":"G6","midi":91,"time":"360.71","velocity":0.15748031496062992,"duration":"0.24"},{"name":"A#6","midi":94,"time":"360.73","velocity":0.14960629921259844,"duration":"0.03"},{"name":"G5","midi":79,"time":"360.74","velocity":0.1889763779527559,"duration":"0.03"},{"name":"C#5","midi":73,"time":"360.76","velocity":0.5590551181102362,"duration":"1.09"},{"name":"G#5","midi":80,"time":"360.76","velocity":0.4881889763779528,"duration":"0.27"},{"name":"A#5","midi":82,"time":"360.77","velocity":0.2283464566929134,"duration":"0.06"},{"name":"D#7","midi":99,"time":"360.77","velocity":0.2677165354330709,"duration":"0.31"},{"name":"G1","midi":31,"time":"360.78","velocity":0.3700787401574803,"duration":"0.06"},{"name":"F#5","midi":78,"time":"360.78","velocity":0.2283464566929134,"duration":"0.05"},{"name":"F6","midi":89,"time":"360.78","velocity":0.15748031496062992,"duration":"0.06"},{"name":"F#4","midi":66,"time":"360.79","velocity":0.2677165354330709,"duration":"0.02"},{"name":"C7","midi":96,"time":"360.79","velocity":0.2047244094488189,"duration":"0.12"},{"name":"B4","midi":71,"time":"360.80","velocity":0.2125984251968504,"duration":"0.03"},{"name":"C6","midi":84,"time":"360.81","velocity":0.13385826771653545,"duration":"0.03"},{"name":"F#5","midi":78,"time":"360.84","velocity":0.2047244094488189,"duration":"0.03"},{"name":"A6","midi":93,"time":"360.84","velocity":0.2204724409448819,"duration":"0.09"},{"name":"A#6","midi":94,"time":"360.85","velocity":0.15748031496062992,"duration":"0.09"},{"name":"F6","midi":89,"time":"360.88","velocity":0.2125984251968504,"duration":"0.13"},{"name":"F#6","midi":90,"time":"360.88","velocity":0.1732283464566929,"duration":"0.03"},{"name":"F#5","midi":78,"time":"360.90","velocity":0.15748031496062992,"duration":"0.07"},{"name":"F#7","midi":102,"time":"360.90","velocity":0.29133858267716534,"duration":"0.70"},{"name":"B4","midi":71,"time":"360.91","velocity":0.12598425196850394,"duration":"0.06"},{"name":"C7","midi":96,"time":"360.93","velocity":0.1968503937007874,"duration":"0.07"},{"name":"D7","midi":98,"time":"360.94","velocity":0.14960629921259844,"duration":"0.09"},{"name":"A5","midi":81,"time":"360.95","velocity":0.36220472440944884,"duration":"0.12"},{"name":"A#6","midi":94,"time":"360.95","velocity":0.2125984251968504,"duration":"0.05"},{"name":"G7","midi":103,"time":"360.95","velocity":0.1732283464566929,"duration":"0.09"},{"name":"F#5","midi":78,"time":"360.98","velocity":0.2204724409448819,"duration":"0.07"},{"name":"D6","midi":86,"time":"360.98","velocity":0.2204724409448819,"duration":"0.16"},{"name":"F5","midi":77,"time":"360.99","velocity":0.2283464566929134,"duration":"0.02"},{"name":"F#6","midi":90,"time":"360.99","velocity":0.25984251968503935,"duration":"0.33"},{"name":"G3","midi":55,"time":"361.00","velocity":0.33070866141732286,"duration":"0.02"},{"name":"A4","midi":69,"time":"361.00","velocity":0.4330708661417323,"duration":"0.34"},{"name":"A#2","midi":46,"time":"361.01","velocity":0.5748031496062992,"duration":"0.01"},{"name":"A2","midi":45,"time":"361.02","velocity":0.6220472440944882,"duration":"0.34"},{"name":"F#4","midi":66,"time":"361.02","velocity":0.33858267716535434,"duration":"0.30"},{"name":"A#6","midi":94,"time":"361.02","velocity":0.13385826771653545,"duration":"0.06"},{"name":"G6","midi":91,"time":"361.03","velocity":0.2047244094488189,"duration":"0.07"},{"name":"C7","midi":96,"time":"361.03","velocity":0.15748031496062992,"duration":"0.08"},{"name":"F6","midi":89,"time":"361.05","velocity":0.28346456692913385,"duration":"0.14"},{"name":"G#5","midi":80,"time":"361.06","velocity":0.4645669291338583,"duration":"0.12"},{"name":"D#7","midi":99,"time":"361.09","velocity":0.16535433070866143,"duration":"0.03"},{"name":"G7","midi":103,"time":"361.10","velocity":0.13385826771653545,"duration":"0.03"},{"name":"D#7","midi":99,"time":"361.14","velocity":0.2125984251968504,"duration":"0.20"},{"name":"C7","midi":96,"time":"361.15","velocity":0.08661417322834646,"duration":"0.09"},{"name":"G6","midi":91,"time":"361.16","velocity":0.11023622047244094,"duration":"0.05"},{"name":"G#5","midi":80,"time":"361.19","velocity":0.4251968503937008,"duration":"0.16"},{"name":"D6","midi":86,"time":"361.20","velocity":0.1732283464566929,"duration":"0.03"},{"name":"F6","midi":89,"time":"361.21","velocity":0.1968503937007874,"duration":"0.14"},{"name":"A#6","midi":94,"time":"361.26","velocity":0.2755905511811024,"duration":"0.77"},{"name":"D7","midi":98,"time":"361.26","velocity":0.25984251968503935,"duration":"0.27"},{"name":"G6","midi":91,"time":"361.28","velocity":0.30708661417322836,"duration":"0.10"},{"name":"C#7","midi":97,"time":"361.28","velocity":0.4330708661417323,"duration":"5.16"},{"name":"D6","midi":86,"time":"361.29","velocity":0.1968503937007874,"duration":"0.03"},{"name":"C7","midi":96,"time":"361.29","velocity":0.25984251968503935,"duration":"0.17"},{"name":"F7","midi":101,"time":"361.29","velocity":0.25984251968503935,"duration":"0.14"},{"name":"D#6","midi":87,"time":"361.30","velocity":0.2047244094488189,"duration":"0.09"},{"name":"C6","midi":84,"time":"361.31","velocity":0.3228346456692913,"duration":"0.05"},{"name":"F#6","midi":90,"time":"361.33","velocity":0.29133858267716534,"duration":"0.52"},{"name":"A6","midi":93,"time":"361.33","velocity":0.2440944881889764,"duration":"0.13"},{"name":"E4","midi":64,"time":"361.34","velocity":0.49606299212598426,"duration":"0.03"},{"name":"G#4","midi":68,"time":"361.34","velocity":0.5354330708661418,"duration":"0.02"},{"name":"A#4","midi":70,"time":"361.34","velocity":0.48031496062992124,"duration":"0.05"},{"name":"D#5","midi":75,"time":"361.34","velocity":0.4330708661417323,"duration":"0.02"},{"name":"F5","midi":77,"time":"361.34","velocity":0.41732283464566927,"duration":"0.08"},{"name":"G5","midi":79,"time":"361.34","velocity":0.2992125984251969,"duration":"0.03"},{"name":"D6","midi":86,"time":"361.34","velocity":0.2125984251968504,"duration":"0.03"},{"name":"E6","midi":88,"time":"361.34","velocity":0.28346456692913385,"duration":"0.34"},{"name":"A5","midi":81,"time":"361.35","velocity":0.28346456692913385,"duration":"0.07"},{"name":"B5","midi":83,"time":"361.35","velocity":0.23622047244094488,"duration":"0.02"},{"name":"D#7","midi":99,"time":"361.35","velocity":0.28346456692913385,"duration":"1.03"},{"name":"C#4","midi":61,"time":"361.36","velocity":0.5118110236220472,"duration":"0.57"},{"name":"G#2","midi":44,"time":"361.37","velocity":0.5196850393700787,"duration":"0.01"},{"name":"F4","midi":65,"time":"361.37","velocity":0.4409448818897638,"duration":"0.02"},{"name":"A4","midi":69,"time":"361.37","velocity":0.3779527559055118,"duration":"0.03"},{"name":"G#5","midi":80,"time":"361.37","velocity":0.4645669291338583,"duration":"0.24"},{"name":"A2","midi":45,"time":"361.38","velocity":0.5984251968503937,"duration":"0.33"},{"name":"B4","midi":71,"time":"361.38","velocity":0.33858267716535434,"duration":"0.03"},{"name":"D6","midi":86,"time":"361.38","velocity":0.2677165354330709,"duration":"0.08"},{"name":"F#4","midi":66,"time":"361.40","velocity":0.3937007874015748,"duration":"0.02"},{"name":"G#4","midi":68,"time":"361.41","velocity":0.33070866141732286,"duration":"0.02"},{"name":"E5","midi":76,"time":"361.41","velocity":0.31496062992125984,"duration":"0.13"},{"name":"F3","midi":53,"time":"361.42","velocity":0.25196850393700787,"duration":"0.02"},{"name":"G7","midi":103,"time":"361.42","velocity":0.16535433070866143,"duration":"0.19"},{"name":"A#4","midi":70,"time":"361.44","velocity":0.2755905511811024,"duration":"0.02"},{"name":"G#4","midi":68,"time":"361.45","velocity":0.2992125984251969,"duration":"0.02"},{"name":"D#6","midi":87,"time":"361.45","velocity":0.10236220472440945,"duration":"0.07"},{"name":"G6","midi":91,"time":"361.45","velocity":0.13385826771653545,"duration":"0.05"},{"name":"A5","midi":81,"time":"361.47","velocity":0.3779527559055118,"duration":"0.29"},{"name":"F6","midi":89,"time":"361.47","velocity":0.2283464566929134,"duration":"0.17"},{"name":"F7","midi":101,"time":"361.47","velocity":0.2440944881889764,"duration":"0.23"},{"name":"E4","midi":64,"time":"361.48","velocity":0.33070866141732286,"duration":"0.02"},{"name":"B4","midi":71,"time":"361.48","velocity":0.23622047244094488,"duration":"0.05"},{"name":"A#5","midi":82,"time":"361.51","velocity":0.11023622047244094,"duration":"0.03"},{"name":"E4","midi":64,"time":"361.52","velocity":0.3779527559055118,"duration":"0.03"},{"name":"G6","midi":91,"time":"361.52","velocity":0.13385826771653545,"duration":"0.03"},{"name":"D#6","midi":87,"time":"361.53","velocity":0.07874015748031496,"duration":"0.06"},{"name":"D7","midi":98,"time":"361.53","velocity":0.2283464566929134,"duration":"0.19"},{"name":"F#5","midi":78,"time":"361.55","velocity":0.2047244094488189,"duration":"0.06"},{"name":"B5","midi":83,"time":"361.55","velocity":0.1968503937007874,"duration":"0.14"},{"name":"C6","midi":84,"time":"361.56","velocity":0.09448818897637795,"duration":"0.03"},{"name":"B4","midi":71,"time":"361.60","velocity":0.2283464566929134,"duration":"0.06"},{"name":"D6","midi":86,"time":"361.60","velocity":0.2440944881889764,"duration":"0.07"},{"name":"E4","midi":64,"time":"361.62","velocity":0.33070866141732286,"duration":"0.02"},{"name":"C7","midi":96,"time":"361.62","velocity":0.14173228346456693,"duration":"0.05"},{"name":"G7","midi":103,"time":"361.62","velocity":0.09448818897637795,"duration":"0.03"},{"name":"F#5","midi":78,"time":"361.64","velocity":0.28346456692913385,"duration":"0.34"},{"name":"G#5","midi":80,"time":"361.64","velocity":0.2992125984251969,"duration":"0.07"},{"name":"F6","midi":89,"time":"361.65","velocity":0.13385826771653545,"duration":"0.06"},{"name":"G6","midi":91,"time":"361.65","velocity":0.12598425196850394,"duration":"0.10"},{"name":"B4","midi":71,"time":"361.67","velocity":0.30708661417322836,"duration":"0.07"},{"name":"B5","midi":83,"time":"361.71","velocity":0.3700787401574803,"duration":"0.78"},{"name":"F7","midi":101,"time":"361.71","velocity":0.25196850393700787,"duration":"0.48"},{"name":"G#5","midi":80,"time":"361.72","velocity":0.4566929133858268,"duration":"0.21"},{"name":"C7","midi":96,"time":"361.72","velocity":0.07874015748031496,"duration":"0.06"},{"name":"F6","midi":89,"time":"361.73","velocity":0.2755905511811024,"duration":"0.19"},{"name":"D7","midi":98,"time":"361.73","velocity":0.1968503937007874,"duration":"0.09"},{"name":"G2","midi":43,"time":"361.74","velocity":0.5590551181102362,"duration":"0.01"},{"name":"F4","midi":65,"time":"361.74","velocity":0.29133858267716534,"duration":"0.02"},{"name":"G#2","midi":44,"time":"361.76","velocity":0.6062992125984252,"duration":"0.01"},{"name":"A3","midi":57,"time":"361.76","velocity":0.3464566929133858,"duration":"0.03"},{"name":"B4","midi":71,"time":"361.76","velocity":0.3779527559055118,"duration":"0.05"},{"name":"A2","midi":45,"time":"361.77","velocity":0.5984251968503937,"duration":"0.33"},{"name":"E4","midi":64,"time":"361.77","velocity":0.33070866141732286,"duration":"0.10"},{"name":"A5","midi":81,"time":"361.77","velocity":0.2125984251968504,"duration":"0.03"},{"name":"D6","midi":86,"time":"361.77","velocity":0.2440944881889764,"duration":"0.07"},{"name":"A4","midi":69,"time":"361.78","velocity":0.4015748031496063,"duration":"0.24"},{"name":"A#5","midi":82,"time":"361.80","velocity":0.08661417322834646,"duration":"0.03"},{"name":"B4","midi":71,"time":"361.81","velocity":0.2677165354330709,"duration":"0.05"},{"name":"C7","midi":96,"time":"361.83","velocity":0.11811023622047244,"duration":"0.07"},{"name":"G7","midi":103,"time":"361.84","velocity":0.13385826771653545,"duration":"0.13"},{"name":"D7","midi":98,"time":"361.85","velocity":0.14173228346456693,"duration":"0.05"},{"name":"A6","midi":93,"time":"361.87","velocity":0.2992125984251969,"duration":"0.63"},{"name":"B4","midi":71,"time":"361.88","velocity":0.25984251968503935,"duration":"0.05"},{"name":"E5","midi":76,"time":"361.90","velocity":0.2677165354330709,"duration":"0.21"},{"name":"F4","midi":65,"time":"361.91","velocity":0.3464566929133858,"duration":"0.02"},{"name":"G6","midi":91,"time":"361.91","velocity":0.18110236220472442,"duration":"0.10"},{"name":"C7","midi":96,"time":"361.91","velocity":0.2283464566929134,"duration":"0.08"},{"name":"D7","midi":98,"time":"361.91","velocity":0.2204724409448819,"duration":"0.28"},{"name":"E4","midi":64,"time":"361.93","velocity":0.4251968503937008,"duration":"0.17"},{"name":"F#7","midi":102,"time":"361.93","velocity":0.36220472440944884,"duration":"8.24"},{"name":"G#5","midi":80,"time":"361.94","velocity":0.4645669291338583,"duration":"0.08"},{"name":"F6","midi":89,"time":"361.94","velocity":0.23622047244094488,"duration":"0.19"},{"name":"C#4","midi":61,"time":"361.95","velocity":0.47244094488188976,"duration":"0.16"},{"name":"D6","midi":86,"time":"361.97","velocity":0.28346456692913385,"duration":"0.08"},{"name":"F#6","midi":90,"time":"361.98","velocity":0.14173228346456693,"duration":"0.06"},{"name":"F#5","midi":78,"time":"361.99","velocity":0.3543307086614173,"duration":"0.40"},{"name":"C7","midi":96,"time":"362.01","velocity":0.12598425196850394,"duration":"0.17"},{"name":"G6","midi":91,"time":"362.02","velocity":0.2047244094488189,"duration":"0.08"},{"name":"A4","midi":69,"time":"362.03","velocity":0.2992125984251969,"duration":"0.08"},{"name":"G#5","midi":80,"time":"362.08","velocity":0.4330708661417323,"duration":"0.05"},{"name":"A#6","midi":94,"time":"362.08","velocity":0.1732283464566929,"duration":"0.24"},{"name":"B4","midi":71,"time":"362.09","velocity":0.25196850393700787,"duration":"0.03"},{"name":"D#2","midi":39,"time":"362.10","velocity":0.5984251968503937,"duration":"0.01"},{"name":"D3","midi":50,"time":"362.10","velocity":0.5354330708661418,"duration":"0.01"},{"name":"G4","midi":67,"time":"362.10","velocity":0.3937007874015748,"duration":"0.02"},{"name":"A5","midi":81,"time":"362.10","velocity":0.33070866141732286,"duration":"0.20"},{"name":"F#6","midi":90,"time":"362.10","velocity":0.4251968503937008,"duration":"1.74"},{"name":"E2","midi":40,"time":"362.12","velocity":0.5984251968503937,"duration":"0.02"},{"name":"E5","midi":76,"time":"362.12","velocity":0.3228346456692913,"duration":"0.20"},{"name":"D6","midi":86,"time":"362.12","velocity":0.2047244094488189,"duration":"0.05"},{"name":"G6","midi":91,"time":"362.12","velocity":0.07086614173228346,"duration":"0.03"},{"name":"F#2","midi":42,"time":"362.13","velocity":0.5669291338582677,"duration":"0.01"},{"name":"F#4","midi":66,"time":"362.13","velocity":0.3937007874015748,"duration":"0.13"},{"name":"A4","midi":69,"time":"362.13","velocity":0.47244094488188976,"duration":"0.59"},{"name":"G7","midi":103,"time":"362.13","velocity":0.11023622047244094,"duration":"0.06"},{"name":"F#1","midi":30,"time":"362.14","velocity":0.5748031496062992,"duration":"0.01"},{"name":"G#2","midi":44,"time":"362.14","velocity":0.6062992125984252,"duration":"0.01"},{"name":"A3","midi":57,"time":"362.14","velocity":0.4251968503937008,"duration":"0.10"},{"name":"F1","midi":29,"time":"362.15","velocity":0.5984251968503937,"duration":"0.02"},{"name":"A2","midi":45,"time":"362.15","velocity":0.6220472440944882,"duration":"0.31"},{"name":"D5","midi":74,"time":"362.16","velocity":0.14960629921259844,"duration":"0.03"},{"name":"G#5","midi":80,"time":"362.16","velocity":0.2755905511811024,"duration":"0.05"},{"name":"C#4","midi":61,"time":"362.19","velocity":0.1732283464566929,"duration":"0.03"},{"name":"B4","midi":71,"time":"362.20","velocity":0.18110236220472442,"duration":"0.03"},{"name":"C#5","midi":73,"time":"362.20","velocity":0.4094488188976378,"duration":"0.20"},{"name":"C6","midi":84,"time":"362.21","velocity":0.07874015748031496,"duration":"0.03"},{"name":"F7","midi":101,"time":"362.21","velocity":0.14173228346456693,"duration":"0.12"},{"name":"C#4","midi":61,"time":"362.23","velocity":0.28346456692913385,"duration":"0.22"},{"name":"E7","midi":100,"time":"362.24","velocity":0.29133858267716534,"duration":"1.79"},{"name":"G1","midi":31,"time":"362.26","velocity":0.33070866141732286,"duration":"0.07"},{"name":"G7","midi":103,"time":"362.26","velocity":0.08661417322834646,"duration":"0.05"},{"name":"F#4","midi":66,"time":"362.27","velocity":0.3700787401574803,"duration":"0.13"},{"name":"G6","midi":91,"time":"362.27","velocity":0.16535433070866143,"duration":"0.12"},{"name":"D6","midi":86,"time":"362.28","velocity":0.1889763779527559,"duration":"0.05"},{"name":"G#5","midi":80,"time":"362.29","velocity":0.3543307086614173,"duration":"0.17"},{"name":"C#6","midi":85,"time":"362.31","velocity":0.4251968503937008,"duration":"0.36"},{"name":"D7","midi":98,"time":"362.33","velocity":0.16535433070866143,"duration":"0.07"},{"name":"D6","midi":86,"time":"362.34","velocity":0.23622047244094488,"duration":"0.03"},{"name":"A#6","midi":94,"time":"362.34","velocity":0.13385826771653545,"duration":"0.07"},{"name":"E5","midi":76,"time":"362.35","velocity":0.1732283464566929,"duration":"0.09"},{"name":"E3","midi":52,"time":"362.38","velocity":0.23622047244094488,"duration":"0.02"},{"name":"F7","midi":101,"time":"362.38","velocity":0.2283464566929134,"duration":"0.26"},{"name":"F#5","midi":78,"time":"362.40","velocity":0.30708661417322836,"duration":"0.08"},{"name":"C6","midi":84,"time":"362.40","velocity":0.14173228346456693,"duration":"0.05"},{"name":"G6","midi":91,"time":"362.40","velocity":0.10236220472440945,"duration":"0.05"},{"name":"D#7","midi":99,"time":"362.40","velocity":0.2677165354330709,"duration":"0.98"},{"name":"C7","midi":96,"time":"362.41","velocity":0.18110236220472442,"duration":"0.09"},{"name":"E3","midi":52,"time":"362.42","velocity":0.25196850393700787,"duration":"0.02"},{"name":"F#4","midi":66,"time":"362.42","velocity":0.3937007874015748,"duration":"0.06"},{"name":"A#6","midi":94,"time":"362.43","velocity":0.13385826771653545,"duration":"0.03"},{"name":"D7","midi":98,"time":"362.45","velocity":0.29133858267716534,"duration":"0.86"},{"name":"A#2","midi":46,"time":"362.47","velocity":0.5669291338582677,"duration":"0.01"},{"name":"E5","midi":76,"time":"362.47","velocity":0.4251968503937008,"duration":"0.41"},{"name":"D6","midi":86,"time":"362.47","velocity":0.14960629921259844,"duration":"0.03"},{"name":"D#6","midi":87,"time":"362.47","velocity":0.13385826771653545,"duration":"0.06"},{"name":"F6","midi":89,"time":"362.47","velocity":0.1968503937007874,"duration":"0.08"},{"name":"B2","midi":47,"time":"362.48","velocity":0.6377952755905512,"duration":"0.01"},{"name":"A#6","midi":94,"time":"362.48","velocity":0.2283464566929134,"duration":"0.21"},{"name":"A2","midi":45,"time":"362.49","velocity":0.6692913385826772,"duration":"0.02"},{"name":"F3","midi":53,"time":"362.49","velocity":0.4251968503937008,"duration":"0.02"},{"name":"C#4","midi":61,"time":"362.49","velocity":0.33858267716535434,"duration":"0.07"},{"name":"F#4","midi":66,"time":"362.49","velocity":0.28346456692913385,"duration":"0.02"},{"name":"B4","midi":71,"time":"362.49","velocity":0.2283464566929134,"duration":"0.02"},{"name":"F#5","midi":78,"time":"362.49","velocity":0.28346456692913385,"duration":"0.05"},{"name":"G#5","midi":80,"time":"362.50","velocity":0.23622047244094488,"duration":"0.03"},{"name":"B5","midi":83,"time":"362.50","velocity":0.3858267716535433,"duration":"0.79"},{"name":"D#1","midi":27,"time":"362.51","velocity":0.5118110236220472,"duration":"0.02"},{"name":"A#2","midi":46,"time":"362.51","velocity":0.5984251968503937,"duration":"0.02"},{"name":"C5","midi":72,"time":"362.51","velocity":0.2283464566929134,"duration":"0.03"},{"name":"D6","midi":86,"time":"362.52","velocity":0.2283464566929134,"duration":"0.02"},{"name":"C7","midi":96,"time":"362.52","velocity":0.14960629921259844,"duration":"0.03"},{"name":"F1","midi":29,"time":"362.53","velocity":0.5118110236220472,"duration":"0.01"},{"name":"A2","midi":45,"time":"362.53","velocity":0.6062992125984252,"duration":"0.30"},{"name":"E4","midi":64,"time":"362.53","velocity":0.3779527559055118,"duration":"0.17"},{"name":"G7","midi":103,"time":"362.53","velocity":0.11811023622047244,"duration":"0.12"},{"name":"F#5","midi":78,"time":"362.55","velocity":0.47244094488188976,"duration":"0.81"},{"name":"G#5","midi":80,"time":"362.55","velocity":0.4015748031496063,"duration":"0.43"},{"name":"F6","midi":89,"time":"362.56","velocity":0.16535433070866143,"duration":"0.15"},{"name":"D6","midi":86,"time":"362.57","velocity":0.16535433070866143,"duration":"0.03"},{"name":"C#5","midi":73,"time":"362.58","velocity":0.23622047244094488,"duration":"0.05"},{"name":"C7","midi":96,"time":"362.58","velocity":0.14173228346456693,"duration":"0.07"},{"name":"C#4","midi":61,"time":"362.59","velocity":0.3858267716535433,"duration":"0.24"},{"name":"G4","midi":67,"time":"362.60","velocity":0.2755905511811024,"duration":"0.05"},{"name":"D#6","midi":87,"time":"362.60","velocity":0.10236220472440945,"duration":"0.03"},{"name":"D6","midi":86,"time":"362.62","velocity":0.2047244094488189,"duration":"0.13"},{"name":"F#1","midi":30,"time":"362.63","velocity":0.3700787401574803,"duration":"0.02"},{"name":"D5","midi":74,"time":"362.63","velocity":0.12598425196850394,"duration":"0.03"},{"name":"G1","midi":31,"time":"362.67","velocity":0.33070866141732286,"duration":"0.03"},{"name":"F#4","midi":66,"time":"362.67","velocity":0.5118110236220472,"duration":"0.17"},{"name":"G6","midi":91,"time":"362.67","velocity":0.16535433070866143,"duration":"0.05"},{"name":"B4","midi":71,"time":"362.69","velocity":0.1968503937007874,"duration":"0.05"},{"name":"C#6","midi":85,"time":"362.69","velocity":0.25984251968503935,"duration":"0.08"},{"name":"A#6","midi":94,"time":"362.71","velocity":0.14960629921259844,"duration":"0.10"},{"name":"A#4","midi":70,"time":"362.72","velocity":0.2125984251968504,"duration":"0.03"},{"name":"C7","midi":96,"time":"362.73","velocity":0.2440944881889764,"duration":"0.23"},{"name":"B4","midi":71,"time":"362.76","velocity":0.5118110236220472,"duration":"0.12"},{"name":"D6","midi":86,"time":"362.76","velocity":0.2440944881889764,"duration":"0.19"},{"name":"F7","midi":101,"time":"362.76","velocity":0.12598425196850394,"duration":"0.06"},{"name":"C6","midi":84,"time":"362.80","velocity":0.15748031496062992,"duration":"0.05"},{"name":"D#6","midi":87,"time":"362.81","velocity":0.1889763779527559,"duration":"0.06"},{"name":"G#4","midi":68,"time":"362.83","velocity":0.5669291338582677,"duration":"0.03"},{"name":"C#6","midi":85,"time":"362.83","velocity":0.28346456692913385,"duration":"0.24"},{"name":"F6","midi":89,"time":"362.83","velocity":0.2677165354330709,"duration":"0.12"},{"name":"F#1","midi":30,"time":"362.84","velocity":0.28346456692913385,"duration":"0.02"},{"name":"C4","midi":60,"time":"362.84","velocity":0.5354330708661418,"duration":"0.05"},{"name":"A#5","midi":82,"time":"362.84","velocity":0.30708661417322836,"duration":"0.06"},{"name":"G6","midi":91,"time":"362.84","velocity":0.31496062992125984,"duration":"0.06"},{"name":"E4","midi":64,"time":"362.85","velocity":0.47244094488188976,"duration":"0.02"},{"name":"A2","midi":45,"time":"362.86","velocity":0.5905511811023622,"duration":"0.35"},{"name":"G5","midi":79,"time":"362.86","velocity":0.3700787401574803,"duration":"0.03"},{"name":"C6","midi":84,"time":"362.86","velocity":0.23622047244094488,"duration":"0.03"},{"name":"G#3","midi":56,"time":"362.87","velocity":0.4409448818897638,"duration":"0.03"},{"name":"A#4","midi":70,"time":"362.87","velocity":0.5118110236220472,"duration":"0.01"},{"name":"D#5","midi":75,"time":"362.87","velocity":0.36220472440944884,"duration":"0.02"},{"name":"C#4","midi":61,"time":"362.88","velocity":0.3464566929133858,"duration":"0.03"},{"name":"F4","midi":65,"time":"362.88","velocity":0.4251968503937008,"duration":"0.03"},{"name":"E5","midi":76,"time":"362.90","velocity":0.2992125984251969,"duration":"0.21"},{"name":"A5","midi":81,"time":"362.91","velocity":0.36220472440944884,"duration":"0.38"},{"name":"A#3","midi":58,"time":"362.92","velocity":0.4409448818897638,"duration":"0.02"},{"name":"F#4","midi":66,"time":"362.92","velocity":0.41732283464566927,"duration":"0.02"},{"name":"C5","midi":72,"time":"362.92","velocity":0.3543307086614173,"duration":"0.03"},{"name":"C#4","midi":61,"time":"362.93","velocity":0.31496062992125984,"duration":"0.05"},{"name":"G#4","midi":68,"time":"362.93","velocity":0.3779527559055118,"duration":"0.05"},{"name":"D#6","midi":87,"time":"362.93","velocity":0.11811023622047244,"duration":"0.03"},{"name":"G6","midi":91,"time":"362.93","velocity":0.09448818897637795,"duration":"0.05"},{"name":"E4","midi":64,"time":"362.95","velocity":0.33070866141732286,"duration":"0.08"},{"name":"B4","midi":71,"time":"362.97","velocity":0.3228346456692913,"duration":"0.08"},{"name":"D6","midi":86,"time":"362.97","velocity":0.1732283464566929,"duration":"0.07"},{"name":"G7","midi":103,"time":"362.97","velocity":0.14173228346456693,"duration":"0.13"},{"name":"C4","midi":60,"time":"362.98","velocity":0.33858267716535434,"duration":"0.02"},{"name":"A4","midi":69,"time":"362.98","velocity":0.2992125984251969,"duration":"0.05"},{"name":"C7","midi":96,"time":"362.98","velocity":0.15748031496062992,"duration":"0.06"},{"name":"G#5","midi":80,"time":"362.99","velocity":0.33070866141732286,"duration":"0.13"},{"name":"A#3","midi":58,"time":"363.00","velocity":0.47244094488188976,"duration":"0.02"},{"name":"F#4","midi":66,"time":"363.02","velocity":0.5354330708661418,"duration":"0.55"},{"name":"F6","midi":89,"time":"363.02","velocity":0.09448818897637795,"duration":"0.06"},{"name":"C7","midi":96,"time":"363.05","velocity":0.1732283464566929,"duration":"0.08"},{"name":"F7","midi":101,"time":"363.05","velocity":0.2125984251968504,"duration":"0.49"},{"name":"B4","midi":71,"time":"363.06","velocity":0.23622047244094488,"duration":"0.03"},{"name":"C#5","midi":73,"time":"363.06","velocity":0.25984251968503935,"duration":"0.14"},{"name":"C#6","midi":85,"time":"363.08","velocity":0.28346456692913385,"duration":"0.24"},{"name":"D6","midi":86,"time":"363.10","velocity":0.2047244094488189,"duration":"0.07"},{"name":"G7","midi":103,"time":"363.10","velocity":0.1732283464566929,"duration":"0.15"},{"name":"A4","midi":69,"time":"363.13","velocity":0.25984251968503935,"duration":"0.03"},{"name":"E5","midi":76,"time":"363.13","velocity":0.2440944881889764,"duration":"0.12"},{"name":"G#5","midi":80,"time":"363.13","velocity":0.25196850393700787,"duration":"0.02"},{"name":"D#6","midi":87,"time":"363.13","velocity":0.11023622047244094,"duration":"0.03"},{"name":"A#3","midi":58,"time":"363.15","velocity":0.29133858267716534,"duration":"0.02"},{"name":"B4","midi":71,"time":"363.16","velocity":0.25984251968503935,"duration":"0.07"},{"name":"G#5","midi":80,"time":"363.16","velocity":0.2992125984251969,"duration":"0.06"},{"name":"C7","midi":96,"time":"363.17","velocity":0.11023622047244094,"duration":"0.05"},{"name":"A4","midi":69,"time":"363.19","velocity":0.31496062992125984,"duration":"0.06"},{"name":"A#2","midi":46,"time":"363.21","velocity":0.41732283464566927,"duration":"0.02"},{"name":"A3","midi":57,"time":"363.21","velocity":0.4251968503937008,"duration":"0.02"},{"name":"D#6","midi":87,"time":"363.22","velocity":0.1889763779527559,"duration":"0.03"},{"name":"F6","midi":89,"time":"363.22","velocity":0.3228346456692913,"duration":"0.20"},{"name":"B2","midi":47,"time":"363.23","velocity":0.5354330708661418,"duration":"0.02"},{"name":"C4","midi":60,"time":"363.23","velocity":0.3543307086614173,"duration":"0.02"},{"name":"G#5","midi":80,"time":"363.23","velocity":0.29133858267716534,"duration":"0.13"},{"name":"A#6","midi":94,"time":"363.24","velocity":0.2125984251968504,"duration":"0.29"},{"name":"A#2","midi":46,"time":"363.26","velocity":0.5984251968503937,"duration":"0.01"},{"name":"A3","midi":57,"time":"363.26","velocity":0.4094488188976378,"duration":"0.19"},{"name":"C#4","midi":61,"time":"363.26","velocity":0.23622047244094488,"duration":"0.05"},{"name":"C#5","midi":73,"time":"363.26","velocity":0.23622047244094488,"duration":"0.12"},{"name":"C7","midi":96,"time":"363.26","velocity":0.16535433070866143,"duration":"0.10"},{"name":"A2","midi":45,"time":"363.27","velocity":0.5984251968503937,"duration":"0.17"},{"name":"E5","midi":76,"time":"363.27","velocity":0.2440944881889764,"duration":"0.13"},{"name":"B5","midi":83,"time":"363.30","velocity":0.36220472440944884,"duration":"0.53"},{"name":"D6","midi":86,"time":"363.31","velocity":0.23622047244094488,"duration":"0.10"},{"name":"D7","midi":98,"time":"363.33","velocity":0.2440944881889764,"duration":"0.44"},{"name":"G7","midi":103,"time":"363.34","velocity":0.1732283464566929,"duration":"0.08"},{"name":"G5","midi":79,"time":"363.36","velocity":0.33858267716535434,"duration":"0.02"},{"name":"G#5","midi":80,"time":"363.37","velocity":0.33070866141732286,"duration":"0.30"},{"name":"A6","midi":93,"time":"363.37","velocity":0.16535433070866143,"duration":"0.20"},{"name":"D#7","midi":99,"time":"363.38","velocity":0.2755905511811024,"duration":"0.36"},{"name":"C#6","midi":85,"time":"363.40","velocity":0.1968503937007874,"duration":"0.03"},{"name":"E5","midi":76,"time":"363.41","velocity":0.4094488188976378,"duration":"0.21"},{"name":"G6","midi":91,"time":"363.41","velocity":0.25196850393700787,"duration":"0.12"},{"name":"B4","midi":71,"time":"363.42","velocity":0.2677165354330709,"duration":"0.07"},{"name":"C7","midi":96,"time":"363.42","velocity":0.15748031496062992,"duration":"0.08"},{"name":"A5","midi":81,"time":"363.43","velocity":0.2677165354330709,"duration":"0.06"},{"name":"D6","midi":86,"time":"363.43","velocity":0.28346456692913385,"duration":"0.06"},{"name":"G#2","midi":44,"time":"363.44","velocity":0.5669291338582677,"duration":"0.03"},{"name":"A4","midi":69,"time":"363.44","velocity":0.3464566929133858,"duration":"0.15"},{"name":"C#5","midi":73,"time":"363.45","velocity":0.16535433070866143,"duration":"0.03"},{"name":"D#6","midi":87,"time":"363.45","velocity":0.18110236220472442,"duration":"0.12"},{"name":"G2","midi":43,"time":"363.48","velocity":0.5196850393700787,"duration":"0.02"},{"name":"C#4","midi":61,"time":"363.48","velocity":0.1968503937007874,"duration":"0.05"},{"name":"C#6","midi":85,"time":"363.48","velocity":0.30708661417322836,"duration":"0.07"},{"name":"F#2","midi":42,"time":"363.50","velocity":0.5275590551181102,"duration":"0.02"},{"name":"B4","midi":71,"time":"363.50","velocity":0.11811023622047244,"duration":"0.03"},{"name":"D6","midi":86,"time":"363.51","velocity":0.2677165354330709,"duration":"0.08"},{"name":"F2","midi":41,"time":"363.52","velocity":0.5275590551181102,"duration":"0.03"},{"name":"C#5","midi":73,"time":"363.52","velocity":0.2047244094488189,"duration":"0.08"},{"name":"E3","midi":52,"time":"363.53","velocity":0.4409448818897638,"duration":"0.02"},{"name":"B4","midi":71,"time":"363.55","velocity":0.18110236220472442,"duration":"0.03"},{"name":"G6","midi":91,"time":"363.55","velocity":0.2440944881889764,"duration":"0.12"},{"name":"C7","midi":96,"time":"363.55","velocity":0.2440944881889764,"duration":"0.59"},{"name":"F7","midi":101,"time":"363.56","velocity":0.2204724409448819,"duration":"0.28"},{"name":"C#6","midi":85,"time":"363.57","velocity":0.2992125984251969,"duration":"0.06"},{"name":"C5","midi":72,"time":"363.58","velocity":0.25196850393700787,"duration":"0.05"},{"name":"A6","midi":93,"time":"363.58","velocity":0.1968503937007874,"duration":"0.16"},{"name":"A#6","midi":94,"time":"363.58","velocity":0.2677165354330709,"duration":"0.53"},{"name":"A#1","midi":34,"time":"363.59","velocity":0.5354330708661418,"duration":"0.01"},{"name":"G2","midi":43,"time":"363.59","velocity":0.5748031496062992,"duration":"0.01"},{"name":"D#6","midi":87,"time":"363.59","velocity":0.14173228346456693,"duration":"0.05"},{"name":"A2","midi":45,"time":"363.60","velocity":0.6535433070866141,"duration":"0.01"},{"name":"A4","midi":69,"time":"363.60","velocity":0.28346456692913385,"duration":"0.02"},{"name":"D5","midi":74,"time":"363.60","velocity":0.2204724409448819,"duration":"0.09"},{"name":"A5","midi":81,"time":"363.60","velocity":0.3779527559055118,"duration":"0.30"},{"name":"D6","midi":86,"time":"363.60","velocity":0.2204724409448819,"duration":"0.08"},{"name":"F#2","midi":42,"time":"363.62","velocity":0.5669291338582677,"duration":"0.02"},{"name":"C#3","midi":49,"time":"363.62","velocity":0.5826771653543307,"duration":"0.01"},{"name":"E1","midi":28,"time":"363.63","velocity":0.5433070866141733,"duration":"0.02"},{"name":"D3","midi":50,"time":"363.63","velocity":0.5984251968503937,"duration":"0.35"},{"name":"E4","midi":64,"time":"363.63","velocity":0.41732283464566927,"duration":"0.19"},{"name":"A#4","midi":70,"time":"363.63","velocity":0.28346456692913385,"duration":"0.02"},{"name":"A3","midi":57,"time":"363.64","velocity":0.4094488188976378,"duration":"0.07"},{"name":"B4","midi":71,"time":"363.64","velocity":0.2047244094488189,"duration":"0.06"},{"name":"F1","midi":29,"time":"363.65","velocity":0.5433070866141733,"duration":"0.01"},{"name":"F#4","midi":66,"time":"363.65","velocity":0.4015748031496063,"duration":"0.02"},{"name":"A#5","midi":82,"time":"363.65","velocity":0.2677165354330709,"duration":"0.03"},{"name":"G7","midi":103,"time":"363.65","velocity":0.2440944881889764,"duration":"0.20"},{"name":"C#6","midi":85,"time":"363.67","velocity":0.41732283464566927,"duration":"0.73"},{"name":"B1","midi":35,"time":"363.69","velocity":0.49606299212598426,"duration":"0.03"},{"name":"C#5","midi":73,"time":"363.70","velocity":0.2283464566929134,"duration":"0.06"},{"name":"G#5","midi":80,"time":"363.70","velocity":0.2125984251968504,"duration":"0.10"},{"name":"B4","midi":71,"time":"363.71","velocity":0.2755905511811024,"duration":"0.30"},{"name":"D6","midi":86,"time":"363.73","velocity":0.18110236220472442,"duration":"0.15"},{"name":"G6","midi":91,"time":"363.73","velocity":0.13385826771653545,"duration":"0.05"},{"name":"D5","midi":74,"time":"363.74","velocity":0.28346456692913385,"duration":"0.02"},{"name":"D#6","midi":87,"time":"363.74","velocity":0.12598425196850394,"duration":"0.09"},{"name":"A3","midi":57,"time":"363.76","velocity":0.4409448818897638,"duration":"0.21"},{"name":"D#7","midi":99,"time":"363.76","velocity":0.18110236220472442,"duration":"0.08"},{"name":"C#5","midi":73,"time":"363.77","velocity":0.2755905511811024,"duration":"0.06"},{"name":"D7","midi":98,"time":"363.78","velocity":0.25196850393700787,"duration":"0.33"},{"name":"C2","midi":36,"time":"363.80","velocity":0.3464566929133858,"duration":"0.02"},{"name":"F#4","midi":66,"time":"363.83","velocity":0.4094488188976378,"duration":"0.14"},{"name":"G#5","midi":80,"time":"363.83","velocity":0.23622047244094488,"duration":"0.03"},{"name":"C6","midi":84,"time":"363.83","velocity":0.25984251968503935,"duration":"0.03"},{"name":"C#5","midi":73,"time":"363.85","velocity":0.33070866141732286,"duration":"0.22"},{"name":"B5","midi":83,"time":"363.85","velocity":0.2992125984251969,"duration":"0.22"},{"name":"C2","midi":36,"time":"363.86","velocity":0.2440944881889764,"duration":"0.02"},{"name":"G#5","midi":80,"time":"363.87","velocity":0.2440944881889764,"duration":"0.12"},{"name":"A#5","midi":82,"time":"363.87","velocity":0.29133858267716534,"duration":"0.13"},{"name":"D#7","midi":99,"time":"363.87","velocity":0.18110236220472442,"duration":"0.09"},{"name":"G7","midi":103,"time":"363.87","velocity":0.09448818897637795,"duration":"0.07"},{"name":"E4","midi":64,"time":"363.93","velocity":0.4330708661417323,"duration":"0.07"},{"name":"D6","midi":86,"time":"363.93","velocity":0.16535433070866143,"duration":"0.06"},{"name":"A5","midi":81,"time":"363.94","velocity":0.3543307086614173,"duration":"0.08"},{"name":"F7","midi":101,"time":"363.95","velocity":0.1732283464566929,"duration":"0.24"},{"name":"A#3","midi":58,"time":"363.97","velocity":0.3543307086614173,"duration":"0.03"},{"name":"F6","midi":89,"time":"363.97","velocity":0.1732283464566929,"duration":"0.05"},{"name":"D#3","midi":51,"time":"363.98","velocity":0.44881889763779526,"duration":"0.02"},{"name":"F#4","midi":66,"time":"363.98","velocity":0.5196850393700787,"duration":"0.20"},{"name":"D4","midi":62,"time":"363.99","velocity":0.4094488188976378,"duration":"0.19"},{"name":"D#5","midi":75,"time":"363.99","velocity":0.1889763779527559,"duration":"0.03"},{"name":"E2","midi":40,"time":"364.00","velocity":0.5118110236220472,"duration":"0.05"},{"name":"A3","midi":57,"time":"364.00","velocity":0.4094488188976378,"duration":"0.35"},{"name":"D6","midi":86,"time":"364.00","velocity":0.2440944881889764,"duration":"0.27"},{"name":"D#7","midi":99,"time":"364.00","velocity":0.1889763779527559,"duration":"0.12"},{"name":"G7","midi":103,"time":"364.00","velocity":0.2755905511811024,"duration":"0.03"},{"name":"D3","midi":50,"time":"364.01","velocity":0.5748031496062992,"duration":"0.34"},{"name":"A#5","midi":82,"time":"364.01","velocity":0.3543307086614173,"duration":"0.09"},{"name":"G#5","midi":80,"time":"364.02","velocity":0.2283464566929134,"duration":"0.03"},{"name":"F6","midi":89,"time":"364.02","velocity":0.1889763779527559,"duration":"0.15"},{"name":"G6","midi":91,"time":"364.02","velocity":0.11023622047244094,"duration":"0.03"},{"name":"E5","midi":76,"time":"364.03","velocity":0.23622047244094488,"duration":"0.19"},{"name":"E7","midi":100,"time":"364.05","velocity":0.2677165354330709,"duration":"0.77"},{"name":"C#2","midi":37,"time":"364.06","velocity":0.2755905511811024,"duration":"0.02"},{"name":"G#5","midi":80,"time":"364.08","velocity":0.18110236220472442,"duration":"0.03"},{"name":"A5","midi":81,"time":"364.09","velocity":0.3228346456692913,"duration":"0.06"},{"name":"C6","midi":84,"time":"364.09","velocity":0.14960629921259844,"duration":"0.03"},{"name":"D2","midi":38,"time":"364.10","velocity":0.2677165354330709,"duration":"0.02"},{"name":"B5","midi":83,"time":"364.12","velocity":0.1889763779527559,"duration":"0.08"},{"name":"E6","midi":88,"time":"364.12","velocity":0.23622047244094488,"duration":"0.15"},{"name":"D7","midi":98,"time":"364.13","velocity":0.2677165354330709,"duration":"0.56"},{"name":"D#7","midi":99,"time":"364.13","velocity":0.1889763779527559,"duration":"0.10"},{"name":"C5","midi":72,"time":"364.14","velocity":0.1732283464566929,"duration":"0.03"},{"name":"G#5","midi":80,"time":"364.14","velocity":0.2440944881889764,"duration":"0.05"},{"name":"A#5","midi":82,"time":"364.14","velocity":0.18110236220472442,"duration":"0.09"},{"name":"A#6","midi":94,"time":"364.14","velocity":0.31496062992125984,"duration":"0.20"},{"name":"G6","midi":91,"time":"364.15","velocity":0.1968503937007874,"duration":"0.05"},{"name":"C#5","midi":73,"time":"364.16","velocity":0.4251968503937008,"duration":"0.22"},{"name":"A6","midi":93,"time":"364.16","velocity":0.11023622047244094,"duration":"0.07"},{"name":"E4","midi":64,"time":"364.17","velocity":0.4015748031496063,"duration":"0.10"},{"name":"B4","midi":71,"time":"364.17","velocity":0.1732283464566929,"duration":"0.03"},{"name":"C7","midi":96,"time":"364.17","velocity":0.2125984251968504,"duration":"0.09"},{"name":"D2","midi":38,"time":"364.20","velocity":0.31496062992125984,"duration":"0.02"},{"name":"A5","midi":81,"time":"364.20","velocity":0.30708661417322836,"duration":"0.22"},{"name":"C6","midi":84,"time":"364.20","velocity":0.18110236220472442,"duration":"0.08"},{"name":"F6","midi":89,"time":"364.20","velocity":0.12598425196850394,"duration":"0.05"},{"name":"G7","midi":103,"time":"364.21","velocity":0.2283464566929134,"duration":"0.24"},{"name":"D2","midi":38,"time":"364.23","velocity":0.2677165354330709,"duration":"0.02"},{"name":"F7","midi":101,"time":"364.23","velocity":0.1889763779527559,"duration":"0.28"},{"name":"D2","midi":38,"time":"364.27","velocity":0.3228346456692913,"duration":"0.06"},{"name":"D#6","midi":87,"time":"364.28","velocity":0.2677165354330709,"duration":"0.15"},{"name":"E6","midi":88,"time":"364.28","velocity":0.2992125984251969,"duration":"0.66"},{"name":"E4","midi":64,"time":"364.29","velocity":0.5354330708661418,"duration":"0.10"},{"name":"B4","midi":71,"time":"364.30","velocity":0.2125984251968504,"duration":"0.05"},{"name":"C7","midi":96,"time":"364.30","velocity":0.2204724409448819,"duration":"0.16"},{"name":"F#4","midi":66,"time":"364.31","velocity":0.30708661417322836,"duration":"0.05"},{"name":"F#5","midi":78,"time":"364.31","velocity":0.49606299212598426,"duration":"0.08"},{"name":"C#2","midi":37,"time":"364.33","velocity":0.3464566929133858,"duration":"0.02"},{"name":"G#5","midi":80,"time":"364.33","velocity":0.1968503937007874,"duration":"0.03"},{"name":"D#5","midi":75,"time":"364.34","velocity":0.25196850393700787,"duration":"0.02"},{"name":"G6","midi":91,"time":"364.34","velocity":0.33070866141732286,"duration":"0.31"},{"name":"B6","midi":95,"time":"364.34","velocity":0.2755905511811024,"duration":"0.29"},{"name":"D#3","midi":51,"time":"364.35","velocity":0.5118110236220472,"duration":"0.01"},{"name":"A#5","midi":82,"time":"364.35","velocity":0.2440944881889764,"duration":"0.06"},{"name":"C6","midi":84,"time":"364.35","velocity":0.25196850393700787,"duration":"0.05"},{"name":"D6","midi":86,"time":"364.35","velocity":0.2755905511811024,"duration":"0.05"},{"name":"A#6","midi":94,"time":"364.35","velocity":0.2440944881889764,"duration":"0.44"},{"name":"E3","midi":52,"time":"364.36","velocity":0.5511811023622047,"duration":"0.01"},{"name":"B4","midi":71,"time":"364.36","velocity":0.4566929133858268,"duration":"0.02"},{"name":"E2","midi":40,"time":"364.37","velocity":0.48031496062992124,"duration":"0.03"},{"name":"G#4","midi":68,"time":"364.37","velocity":0.4409448818897638,"duration":"0.02"},{"name":"D4","midi":62,"time":"364.38","velocity":0.3543307086614173,"duration":"0.02"},{"name":"A#4","midi":70,"time":"364.38","velocity":0.4409448818897638,"duration":"0.02"},{"name":"C5","midi":72,"time":"364.38","velocity":0.3937007874015748,"duration":"0.02"},{"name":"D#5","midi":75,"time":"364.38","velocity":0.4409448818897638,"duration":"0.03"},{"name":"D#3","midi":51,"time":"364.40","velocity":0.5590551181102362,"duration":"0.02"},{"name":"F#4","midi":66,"time":"364.40","velocity":0.5511811023622047,"duration":"0.77"},{"name":"A4","midi":69,"time":"364.40","velocity":0.3779527559055118,"duration":"0.03"},{"name":"C#5","midi":73,"time":"364.40","velocity":0.3937007874015748,"duration":"0.14"},{"name":"G5","midi":79,"time":"364.40","velocity":0.25196850393700787,"duration":"0.08"},{"name":"A3","midi":57,"time":"364.41","velocity":0.4645669291338583,"duration":"0.05"},{"name":"G#5","midi":80,"time":"364.41","velocity":0.2047244094488189,"duration":"0.03"},{"name":"B5","midi":83,"time":"364.41","velocity":0.25196850393700787,"duration":"0.02"},{"name":"D6","midi":86,"time":"364.41","velocity":0.29133858267716534,"duration":"0.12"},{"name":"E2","midi":40,"time":"364.42","velocity":0.30708661417322836,"duration":"0.02"},{"name":"D3","midi":50,"time":"364.42","velocity":0.5590551181102362,"duration":"0.31"},{"name":"E5","midi":76,"time":"364.42","velocity":0.28346456692913385,"duration":"0.09"},{"name":"A#5","midi":82,"time":"364.43","velocity":0.30708661417322836,"duration":"0.09"},{"name":"B5","midi":83,"time":"364.44","velocity":0.29133858267716534,"duration":"0.08"},{"name":"B4","midi":71,"time":"364.45","velocity":0.31496062992125984,"duration":"0.23"},{"name":"F6","midi":89,"time":"364.45","velocity":0.15748031496062992,"duration":"0.10"},{"name":"A3","midi":57,"time":"364.47","velocity":0.5039370078740157,"duration":"0.06"},{"name":"A5","midi":81,"time":"364.47","velocity":0.33070866141732286,"duration":"0.10"},{"name":"G5","midi":79,"time":"364.50","velocity":0.2440944881889764,"duration":"0.02"},{"name":"C7","midi":96,"time":"364.50","velocity":0.15748031496062992,"duration":"0.08"},{"name":"C6","midi":84,"time":"364.51","velocity":0.2283464566929134,"duration":"0.10"},{"name":"D#6","midi":87,"time":"364.51","velocity":0.1889763779527559,"duration":"0.13"},{"name":"D2","midi":38,"time":"364.53","velocity":0.2992125984251969,"duration":"0.13"},{"name":"A3","midi":57,"time":"364.53","velocity":0.4645669291338583,"duration":"0.02"},{"name":"E5","midi":76,"time":"364.53","velocity":0.30708661417322836,"duration":"0.31"},{"name":"A#5","midi":82,"time":"364.53","velocity":0.3937007874015748,"duration":"0.19"},{"name":"F7","midi":101,"time":"364.56","velocity":0.16535433070866143,"duration":"0.06"},{"name":"A3","midi":57,"time":"364.57","velocity":0.4251968503937008,"duration":"0.05"},{"name":"D5","midi":74,"time":"364.57","velocity":0.2440944881889764,"duration":"0.08"},{"name":"D6","midi":86,"time":"364.57","velocity":0.25196850393700787,"duration":"0.08"},{"name":"A5","midi":81,"time":"364.58","velocity":0.2677165354330709,"duration":"0.02"},{"name":"G#5","midi":80,"time":"364.60","velocity":0.16535433070866143,"duration":"0.07"},{"name":"A5","midi":81,"time":"364.62","velocity":0.3228346456692913,"duration":"0.08"},{"name":"A3","midi":57,"time":"364.63","velocity":0.5039370078740157,"duration":"0.10"},{"name":"C#6","midi":85,"time":"364.63","velocity":0.3779527559055118,"duration":"0.09"},{"name":"F6","midi":89,"time":"364.63","velocity":0.2283464566929134,"duration":"0.13"},{"name":"C#5","midi":73,"time":"364.65","velocity":0.33858267716535434,"duration":"0.44"},{"name":"E4","midi":64,"time":"364.67","velocity":0.3937007874015748,"duration":"0.02"},{"name":"D2","midi":38,"time":"364.70","velocity":0.3858267716535433,"duration":"0.03"},{"name":"G#5","midi":80,"time":"364.70","velocity":0.2047244094488189,"duration":"0.05"},{"name":"G6","midi":91,"time":"364.70","velocity":0.14173228346456693,"duration":"0.10"},{"name":"G7","midi":103,"time":"364.70","velocity":0.16535433070866143,"duration":"0.05"},{"name":"D6","midi":86,"time":"364.71","velocity":0.1968503937007874,"duration":"0.07"},{"name":"D#3","midi":51,"time":"364.73","velocity":0.4881889763779528,"duration":"0.02"},{"name":"A#3","midi":58,"time":"364.73","velocity":0.4015748031496063,"duration":"0.02"},{"name":"D7","midi":98,"time":"364.73","velocity":0.2283464566929134,"duration":"0.29"},{"name":"D#2","midi":39,"time":"364.74","velocity":0.5354330708661418,"duration":"0.01"},{"name":"E2","midi":40,"time":"364.76","velocity":0.5590551181102362,"duration":"0.06"},{"name":"C#3","midi":49,"time":"364.76","velocity":0.5275590551181102,"duration":"0.02"},{"name":"C6","midi":84,"time":"364.77","velocity":0.2047244094488189,"duration":"0.03"},{"name":"D3","midi":50,"time":"364.78","velocity":0.5905511811023622,"duration":"0.31"},{"name":"A#5","midi":82,"time":"364.78","velocity":0.1968503937007874,"duration":"0.06"},{"name":"A3","midi":57,"time":"364.79","velocity":0.4566929133858268,"duration":"0.30"},{"name":"D6","midi":86,"time":"364.79","velocity":0.2047244094488189,"duration":"0.09"},{"name":"B5","midi":83,"time":"364.80","velocity":0.23622047244094488,"duration":"0.08"},{"name":"F6","midi":89,"time":"364.80","velocity":0.2125984251968504,"duration":"0.08"},{"name":"G#6","midi":92,"time":"364.80","velocity":0.33070866141732286,"duration":"0.42"},{"name":"A#6","midi":94,"time":"364.80","velocity":0.2440944881889764,"duration":"0.30"},{"name":"D2","midi":38,"time":"364.81","velocity":0.28346456692913385,"duration":"0.03"},{"name":"G6","midi":91,"time":"364.81","velocity":0.14173228346456693,"duration":"0.07"},{"name":"G#5","midi":80,"time":"364.83","velocity":0.1732283464566929,"duration":"0.06"},{"name":"C6","midi":84,"time":"364.84","velocity":0.2677165354330709,"duration":"0.14"},{"name":"D2","midi":38,"time":"364.86","velocity":0.3543307086614173,"duration":"0.10"},{"name":"A#5","midi":82,"time":"364.87","velocity":0.31496062992125984,"duration":"0.06"},{"name":"E5","midi":76,"time":"364.90","velocity":0.36220472440944884,"duration":"0.80"},{"name":"G#5","midi":80,"time":"364.90","velocity":0.1968503937007874,"duration":"0.06"},{"name":"D6","midi":86,"time":"364.90","velocity":0.2047244094488189,"duration":"0.05"},{"name":"F7","midi":101,"time":"364.91","velocity":0.1889763779527559,"duration":"0.06"},{"name":"D#6","midi":87,"time":"364.92","velocity":0.11023622047244094,"duration":"0.06"},{"name":"G6","midi":91,"time":"364.92","velocity":0.25196850393700787,"duration":"0.13"},{"name":"D#7","midi":99,"time":"364.93","velocity":0.25984251968503935,"duration":"0.10"},{"name":"A#5","midi":82,"time":"364.94","velocity":0.2440944881889764,"duration":"0.06"},{"name":"B6","midi":95,"time":"364.95","velocity":0.07874015748031496,"duration":"0.03"},{"name":"G#5","midi":80,"time":"364.97","velocity":0.18110236220472442,"duration":"0.06"},{"name":"B5","midi":83,"time":"364.97","velocity":0.2125984251968504,"duration":"0.15"},{"name":"A6","midi":93,"time":"364.97","velocity":0.1889763779527559,"duration":"0.16"},{"name":"B4","midi":71,"time":"364.98","velocity":0.2992125984251969,"duration":"0.14"},{"name":"F7","midi":101,"time":"364.98","velocity":0.25196850393700787,"duration":"0.65"},{"name":"D6","midi":86,"time":"364.99","velocity":0.31496062992125984,"duration":"0.09"},{"name":"D2","midi":38,"time":"365.01","velocity":0.31496062992125984,"duration":"0.02"},{"name":"A#5","midi":82,"time":"365.01","velocity":0.2992125984251969,"duration":"0.06"},{"name":"F6","midi":89,"time":"365.03","velocity":0.11811023622047244,"duration":"0.03"},{"name":"D2","midi":38,"time":"365.05","velocity":0.3464566929133858,"duration":"0.05"},{"name":"D#7","midi":99,"time":"365.05","velocity":0.23622047244094488,"duration":"0.36"},{"name":"A5","midi":81,"time":"365.06","velocity":0.36220472440944884,"duration":"0.07"},{"name":"G#5","midi":80,"time":"365.07","velocity":0.2440944881889764,"duration":"0.08"},{"name":"B6","midi":95,"time":"365.08","velocity":0.25196850393700787,"duration":"0.12"},{"name":"D#3","midi":51,"time":"365.09","velocity":0.5354330708661418,"duration":"0.01"},{"name":"D#6","midi":87,"time":"365.09","velocity":0.1732283464566929,"duration":"0.03"},{"name":"E2","midi":40,"time":"365.10","velocity":0.6299212598425197,"duration":"0.01"},{"name":"F2","midi":41,"time":"365.12","velocity":0.6220472440944882,"duration":"0.01"},{"name":"A#3","midi":58,"time":"365.12","velocity":0.41732283464566927,"duration":"0.02"},{"name":"C#5","midi":73,"time":"365.12","velocity":0.2755905511811024,"duration":"0.07"},{"name":"C6","midi":84,"time":"365.12","velocity":0.29133858267716534,"duration":"0.06"},{"name":"A#6","midi":94,"time":"365.12","velocity":0.25984251968503935,"duration":"0.26"},{"name":"D#2","midi":39,"time":"365.13","velocity":0.5196850393700787,"duration":"0.01"},{"name":"D#3","midi":51,"time":"365.13","velocity":0.5433070866141733,"duration":"0.01"},{"name":"G5","midi":79,"time":"365.13","velocity":0.2755905511811024,"duration":"0.03"},{"name":"F1","midi":29,"time":"365.14","velocity":0.5905511811023622,"duration":"0.01"},{"name":"D3","midi":50,"time":"365.14","velocity":0.6141732283464567,"duration":"0.34"},{"name":"B4","midi":71,"time":"365.14","velocity":0.3464566929133858,"duration":"0.03"},{"name":"A5","midi":81,"time":"365.14","velocity":0.3543307086614173,"duration":"0.17"},{"name":"E1","midi":28,"time":"365.15","velocity":0.6062992125984252,"duration":"0.01"},{"name":"A3","midi":57,"time":"365.15","velocity":0.44881889763779526,"duration":"0.31"},{"name":"A#5","midi":82,"time":"365.15","velocity":0.1968503937007874,"duration":"0.03"},{"name":"G#1","midi":32,"time":"365.16","velocity":0.5511811023622047,"duration":"0.01"},{"name":"G4","midi":67,"time":"365.16","velocity":0.23622047244094488,"duration":"0.02"},{"name":"G#5","midi":80,"time":"365.16","velocity":0.23622047244094488,"duration":"0.02"},{"name":"C2","midi":36,"time":"365.17","velocity":0.5275590551181102,"duration":"0.01"},{"name":"B5","midi":83,"time":"365.17","velocity":0.33858267716535434,"duration":"0.19"},{"name":"C6","midi":84,"time":"365.19","velocity":0.2283464566929134,"duration":"0.02"},{"name":"D6","midi":86,"time":"365.20","velocity":0.25984251968503935,"duration":"0.08"},{"name":"F6","midi":89,"time":"365.20","velocity":0.13385826771653545,"duration":"0.03"},{"name":"B4","midi":71,"time":"365.21","velocity":0.2125984251968504,"duration":"0.05"},{"name":"C#5","midi":73,"time":"365.21","velocity":0.2755905511811024,"duration":"0.20"},{"name":"G6","midi":91,"time":"365.21","velocity":0.2047244094488189,"duration":"0.14"},{"name":"F#4","midi":66,"time":"365.22","velocity":0.5511811023622047,"duration":"0.27"},{"name":"G#5","midi":80,"time":"365.22","velocity":0.2283464566929134,"duration":"0.07"},{"name":"C6","midi":84,"time":"365.23","velocity":0.1889763779527559,"duration":"0.03"},{"name":"C#6","midi":85,"time":"365.27","velocity":0.3543307086614173,"duration":"0.22"},{"name":"F6","midi":89,"time":"365.27","velocity":0.14173228346456693,"duration":"0.03"},{"name":"B4","midi":71,"time":"365.28","velocity":0.30708661417322836,"duration":"0.19"},{"name":"D#6","midi":87,"time":"365.29","velocity":0.14173228346456693,"duration":"0.08"},{"name":"G#5","midi":80,"time":"365.30","velocity":0.15748031496062992,"duration":"0.06"},{"name":"A#5","midi":82,"time":"365.30","velocity":0.2440944881889764,"duration":"0.09"},{"name":"D6","midi":86,"time":"365.31","velocity":0.11023622047244094,"duration":"0.03"},{"name":"F6","midi":89,"time":"365.31","velocity":0.10236220472440945,"duration":"0.03"},{"name":"A6","midi":93,"time":"365.33","velocity":0.2755905511811024,"duration":"0.31"},{"name":"A5","midi":81,"time":"365.36","velocity":0.4015748031496063,"duration":"0.15"},{"name":"C6","midi":84,"time":"365.36","velocity":0.25984251968503935,"duration":"0.33"},{"name":"F6","midi":89,"time":"365.36","velocity":0.13385826771653545,"duration":"0.05"},{"name":"G#6","midi":92,"time":"365.38","velocity":0.2204724409448819,"duration":"0.06"},{"name":"G#5","midi":80,"time":"365.40","velocity":0.2047244094488189,"duration":"0.03"},{"name":"D#6","midi":87,"time":"365.40","velocity":0.11023622047244094,"duration":"0.05"},{"name":"D2","midi":38,"time":"365.41","velocity":0.2992125984251969,"duration":"0.02"},{"name":"A#6","midi":94,"time":"365.42","velocity":0.2440944881889764,"duration":"0.09"},{"name":"D#7","midi":99,"time":"365.42","velocity":0.2204724409448819,"duration":"0.07"},{"name":"C#2","midi":37,"time":"365.43","velocity":0.3543307086614173,"duration":"0.02"},{"name":"G7","midi":103,"time":"365.44","velocity":0.15748031496062992,"duration":"0.09"},{"name":"D2","midi":38,"time":"365.45","velocity":0.3464566929133858,"duration":"0.02"},{"name":"D#6","midi":87,"time":"365.45","velocity":0.14960629921259844,"duration":"0.03"},{"name":"G#6","midi":92,"time":"365.45","velocity":0.2047244094488189,"duration":"0.08"},{"name":"C5","midi":72,"time":"365.47","velocity":0.25196850393700787,"duration":"0.05"},{"name":"G#2","midi":44,"time":"365.48","velocity":0.6062992125984252,"duration":"0.02"},{"name":"D#3","midi":51,"time":"365.48","velocity":0.5984251968503937,"duration":"0.01"},{"name":"G5","midi":79,"time":"365.48","velocity":0.25196850393700787,"duration":"0.02"},{"name":"F3","midi":53,"time":"365.49","velocity":0.5275590551181102,"duration":"0.01"},{"name":"G4","midi":67,"time":"365.49","velocity":0.3858267716535433,"duration":"0.02"},{"name":"D6","midi":86,"time":"365.49","velocity":0.2283464566929134,"duration":"0.09"},{"name":"G2","midi":43,"time":"365.50","velocity":0.5669291338582677,"duration":"0.01"},{"name":"F6","midi":89,"time":"365.50","velocity":0.2047244094488189,"duration":"0.05"},{"name":"F#2","midi":42,"time":"365.51","velocity":0.5748031496062992,"duration":"0.01"},{"name":"D#3","midi":51,"time":"365.51","velocity":0.5275590551181102,"duration":"0.02"},{"name":"F#4","midi":66,"time":"365.51","velocity":0.49606299212598426,"duration":"0.15"},{"name":"F#1","midi":30,"time":"365.52","velocity":0.5354330708661418,"duration":"0.01"},{"name":"F2","midi":41,"time":"365.52","velocity":0.5118110236220472,"duration":"0.01"},{"name":"D4","midi":62,"time":"365.52","velocity":0.3228346456692913,"duration":"0.02"},{"name":"A#4","midi":70,"time":"365.52","velocity":0.23622047244094488,"duration":"0.03"},{"name":"A#5","midi":82,"time":"365.52","velocity":0.23622047244094488,"duration":"0.03"},{"name":"C#6","midi":85,"time":"365.52","velocity":0.13385826771653545,"duration":"0.03"},{"name":"A#6","midi":94,"time":"365.52","velocity":0.2755905511811024,"duration":"0.73"},{"name":"F1","midi":29,"time":"365.53","velocity":0.5511811023622047,"duration":"0.01"},{"name":"D3","midi":50,"time":"365.53","velocity":0.5590551181102362,"duration":"0.31"},{"name":"A3","midi":57,"time":"365.53","velocity":0.4409448818897638,"duration":"0.30"},{"name":"C#5","midi":73,"time":"365.53","velocity":0.30708661417322836,"duration":"0.15"},{"name":"G6","midi":91,"time":"365.53","velocity":0.18110236220472442,"duration":"0.10"},{"name":"D#7","midi":99,"time":"365.53","velocity":0.1732283464566929,"duration":"0.22"},{"name":"C2","midi":36,"time":"365.55","velocity":0.5354330708661418,"duration":"0.01"},{"name":"A5","midi":81,"time":"365.55","velocity":0.4015748031496063,"duration":"0.23"},{"name":"G#6","midi":92,"time":"365.55","velocity":0.2440944881889764,"duration":"0.06"},{"name":"B5","midi":83,"time":"365.56","velocity":0.2677165354330709,"duration":"0.06"},{"name":"C#6","midi":85,"time":"365.57","velocity":0.3779527559055118,"duration":"0.29"},{"name":"D#6","midi":87,"time":"365.58","velocity":0.15748031496062992,"duration":"0.09"},{"name":"E2","midi":40,"time":"365.59","velocity":0.3228346456692913,"duration":"0.02"},{"name":"D6","midi":86,"time":"365.59","velocity":0.33070866141732286,"duration":"0.38"},{"name":"F6","midi":89,"time":"365.60","velocity":0.2440944881889764,"duration":"0.08"},{"name":"G#5","midi":80,"time":"365.62","velocity":0.1968503937007874,"duration":"0.08"},{"name":"G#6","midi":92,"time":"365.62","velocity":0.23622047244094488,"duration":"0.06"},{"name":"F#5","midi":78,"time":"365.66","velocity":0.4566929133858268,"duration":"0.21"},{"name":"G6","midi":91,"time":"365.66","velocity":0.14173228346456693,"duration":"0.03"},{"name":"E7","midi":100,"time":"365.66","velocity":0.2440944881889764,"duration":"0.78"},{"name":"C2","midi":36,"time":"365.67","velocity":0.4409448818897638,"duration":"0.02"},{"name":"D5","midi":74,"time":"365.67","velocity":0.29133858267716534,"duration":"0.03"},{"name":"G7","midi":103,"time":"365.67","velocity":0.2047244094488189,"duration":"0.12"},{"name":"G#6","midi":92,"time":"365.69","velocity":0.28346456692913385,"duration":"1.53"},{"name":"D#2","midi":39,"time":"365.70","velocity":0.3779527559055118,"duration":"0.02"},{"name":"F#4","midi":66,"time":"365.70","velocity":0.5905511811023622,"duration":"0.20"},{"name":"C#5","midi":73,"time":"365.70","velocity":0.31496062992125984,"duration":"0.13"},{"name":"A#5","midi":82,"time":"365.70","velocity":0.25196850393700787,"duration":"0.05"},{"name":"G6","midi":91,"time":"365.71","velocity":0.16535433070866143,"duration":"0.06"},{"name":"B6","midi":95,"time":"365.72","velocity":0.14173228346456693,"duration":"0.08"},{"name":"D#2","midi":39,"time":"365.74","velocity":0.2992125984251969,"duration":"0.02"},{"name":"E5","midi":76,"time":"365.74","velocity":0.3858267716535433,"duration":"0.13"},{"name":"G#5","midi":80,"time":"365.74","velocity":0.16535433070866143,"duration":"0.05"},{"name":"C6","midi":84,"time":"365.74","velocity":0.29133858267716534,"duration":"0.10"},{"name":"F6","midi":89,"time":"365.74","velocity":0.14173228346456693,"duration":"0.03"},{"name":"D#6","midi":87,"time":"365.77","velocity":0.18110236220472442,"duration":"0.06"},{"name":"A#5","midi":82,"time":"365.78","velocity":0.2440944881889764,"duration":"0.05"},{"name":"G6","midi":91,"time":"365.78","velocity":0.1968503937007874,"duration":"0.05"},{"name":"A5","midi":81,"time":"365.81","velocity":0.30708661417322836,"duration":"0.07"},{"name":"F7","midi":101,"time":"365.81","velocity":0.25984251968503935,"duration":"0.28"},{"name":"B6","midi":95,"time":"365.83","velocity":0.23622047244094488,"duration":"0.74"},{"name":"G5","midi":79,"time":"365.84","velocity":0.3464566929133858,"duration":"0.06"},{"name":"D#7","midi":99,"time":"365.84","velocity":0.25196850393700787,"duration":"0.38"},{"name":"C4","midi":60,"time":"365.85","velocity":0.48031496062992124,"duration":"0.02"},{"name":"B5","midi":83,"time":"365.85","velocity":0.36220472440944884,"duration":"0.45"},{"name":"G3","midi":55,"time":"365.86","velocity":0.47244094488188976,"duration":"0.02"},{"name":"A#4","midi":70,"time":"365.86","velocity":0.4566929133858268,"duration":"0.02"},{"name":"C#5","midi":73,"time":"365.86","velocity":0.31496062992125984,"duration":"0.05"},{"name":"D#5","midi":75,"time":"365.86","velocity":0.31496062992125984,"duration":"0.03"},{"name":"C#4","midi":61,"time":"365.87","velocity":0.4645669291338583,"duration":"0.02"},{"name":"F5","midi":77,"time":"365.87","velocity":0.3228346456692913,"duration":"0.02"},{"name":"D3","midi":50,"time":"365.88","velocity":0.5826771653543307,"duration":"0.34"},{"name":"G#5","midi":80,"time":"365.88","velocity":0.3228346456692913,"duration":"0.03"},{"name":"G#4","midi":68,"time":"365.90","velocity":0.31496062992125984,"duration":"0.02"},{"name":"D5","midi":74,"time":"365.90","velocity":0.28346456692913385,"duration":"0.02"},{"name":"F#5","midi":78,"time":"365.90","velocity":0.49606299212598426,"duration":"0.36"},{"name":"C#6","midi":85,"time":"365.90","velocity":0.41732283464566927,"duration":"0.20"},{"name":"B3","midi":59,"time":"365.91","velocity":0.4094488188976378,"duration":"0.02"},{"name":"A4","midi":69,"time":"365.92","velocity":0.3937007874015748,"duration":"0.06"},{"name":"C#5","midi":73,"time":"365.92","velocity":0.3779527559055118,"duration":"0.29"},{"name":"G6","midi":91,"time":"365.92","velocity":0.09448818897637795,"duration":"0.03"},{"name":"F4","midi":65,"time":"365.93","velocity":0.25196850393700787,"duration":"0.02"},{"name":"E5","midi":76,"time":"365.93","velocity":0.25984251968503935,"duration":"0.06"},{"name":"G#5","midi":80,"time":"365.93","velocity":0.2677165354330709,"duration":"0.07"},{"name":"C#2","midi":37,"time":"365.94","velocity":0.13385826771653545,"duration":"0.03"},{"name":"F#4","midi":66,"time":"365.95","velocity":0.4094488188976378,"duration":"0.07"},{"name":"F6","midi":89,"time":"365.95","velocity":0.25196850393700787,"duration":"0.10"},{"name":"A3","midi":57,"time":"365.98","velocity":0.3779527559055118,"duration":"0.02"},{"name":"A#3","midi":58,"time":"366.00","velocity":0.49606299212598426,"duration":"0.03"},{"name":"A4","midi":69,"time":"366.00","velocity":0.3543307086614173,"duration":"0.03"},{"name":"E5","midi":76,"time":"366.00","velocity":0.31496062992125984,"duration":"0.56"},{"name":"B4","midi":71,"time":"366.01","velocity":0.25984251968503935,"duration":"0.02"},{"name":"D#6","midi":87,"time":"366.01","velocity":0.14173228346456693,"duration":"0.08"},{"name":"G6","midi":91,"time":"366.01","velocity":0.2125984251968504,"duration":"0.24"},{"name":"F4","midi":65,"time":"366.02","velocity":0.3779527559055118,"duration":"0.02"},{"name":"A3","midi":57,"time":"366.03","velocity":0.4330708661417323,"duration":"0.02"},{"name":"F#4","midi":66,"time":"366.05","velocity":0.5118110236220472,"duration":"0.23"},{"name":"G#5","midi":80,"time":"366.05","velocity":0.2677165354330709,"duration":"0.37"},{"name":"C#2","midi":37,"time":"366.06","velocity":0.18110236220472442,"duration":"0.05"},{"name":"A#5","midi":82,"time":"366.07","velocity":0.33858267716535434,"duration":"0.21"},{"name":"F6","midi":89,"time":"366.07","velocity":0.08661417322834646,"duration":"0.03"},{"name":"A#3","midi":58,"time":"366.08","velocity":0.3543307086614173,"duration":"0.02"},{"name":"D6","midi":86,"time":"366.08","velocity":0.1889763779527559,"duration":"0.06"},{"name":"F7","midi":101,"time":"366.10","velocity":0.07086614173228346,"duration":"0.09"},{"name":"D#6","midi":87,"time":"366.12","velocity":0.12598425196850394,"duration":"0.03"},{"name":"C7","midi":96,"time":"366.12","velocity":0.11811023622047244,"duration":"0.07"},{"name":"A3","midi":57,"time":"366.13","velocity":0.48031496062992124,"duration":"0.09"},{"name":"A6","midi":93,"time":"366.14","velocity":0.16535433070866143,"duration":"0.06"},{"name":"C#2","midi":37,"time":"366.20","velocity":0.25984251968503935,"duration":"0.03"},{"name":"D7","midi":98,"time":"366.20","velocity":0.2283464566929134,"duration":"0.38"},{"name":"B4","midi":71,"time":"366.21","velocity":0.2992125984251969,"duration":"0.10"},{"name":"D#3","midi":51,"time":"366.22","velocity":0.44881889763779526,"duration":"0.03"},{"name":"C#5","midi":73,"time":"366.22","velocity":0.2677165354330709,"duration":"0.05"},{"name":"A6","midi":93,"time":"366.22","velocity":0.2440944881889764,"duration":"0.08"},{"name":"C7","midi":96,"time":"366.22","velocity":0.15748031496062992,"duration":"0.12"},{"name":"D6","midi":86,"time":"366.23","velocity":0.25984251968503935,"duration":"0.09"},{"name":"D#7","midi":99,"time":"366.23","velocity":0.28346456692913385,"duration":"0.67"},{"name":"E2","midi":40,"time":"366.24","velocity":0.5275590551181102,"duration":"0.03"},{"name":"C6","midi":84,"time":"366.24","velocity":0.12598425196850394,"duration":"0.03"},{"name":"F6","midi":89,"time":"366.24","velocity":0.1889763779527559,"duration":"0.09"},{"name":"D3","midi":50,"time":"366.26","velocity":0.5590551181102362,"duration":"0.34"},{"name":"D5","midi":74,"time":"366.26","velocity":0.2283464566929134,"duration":"0.03"},{"name":"A3","midi":57,"time":"366.27","velocity":0.4094488188976378,"duration":"0.33"},{"name":"E4","midi":64,"time":"366.27","velocity":0.44881889763779526,"duration":"0.08"},{"name":"F#5","midi":78,"time":"366.27","velocity":0.5275590551181102,"duration":"0.83"},{"name":"F2","midi":41,"time":"366.28","velocity":0.3779527559055118,"duration":"0.02"},{"name":"C#5","midi":73,"time":"366.28","velocity":0.23622047244094488,"duration":"0.02"},{"name":"A5","midi":81,"time":"366.28","velocity":0.31496062992125984,"duration":"0.26"},{"name":"A#5","midi":82,"time":"366.29","velocity":0.18110236220472442,"duration":"0.05"},{"name":"G7","midi":103,"time":"366.29","velocity":0.15748031496062992,"duration":"0.12"},{"name":"C#5","midi":73,"time":"366.31","velocity":0.2992125984251969,"duration":"0.09"},{"name":"C6","midi":84,"time":"366.31","velocity":0.2440944881889764,"duration":"0.06"},{"name":"F#4","midi":66,"time":"366.34","velocity":0.5118110236220472,"duration":"0.27"},{"name":"D6","midi":86,"time":"366.34","velocity":0.31496062992125984,"duration":"0.03"},{"name":"D2","midi":38,"time":"366.36","velocity":0.31496062992125984,"duration":"0.03"},{"name":"B5","midi":83,"time":"366.36","velocity":0.3228346456692913,"duration":"0.20"},{"name":"C#6","midi":85,"time":"366.36","velocity":0.3937007874015748,"duration":"0.13"},{"name":"F6","midi":89,"time":"366.36","velocity":0.14173228346456693,"duration":"0.03"},{"name":"D6","midi":86,"time":"366.40","velocity":0.14960629921259844,"duration":"0.03"},{"name":"F7","midi":101,"time":"366.40","velocity":0.25196850393700787,"duration":"0.37"},{"name":"D2","midi":38,"time":"366.41","velocity":0.29133858267716534,"duration":"0.03"},{"name":"D5","midi":74,"time":"366.41","velocity":0.2283464566929134,"duration":"0.02"},{"name":"A#5","midi":82,"time":"366.41","velocity":0.25196850393700787,"duration":"0.03"},{"name":"C7","midi":96,"time":"366.42","velocity":0.2283464566929134,"duration":"0.37"},{"name":"G7","midi":103,"time":"366.42","velocity":0.16535433070866143,"duration":"0.07"},{"name":"C#5","midi":73,"time":"366.43","velocity":0.41732283464566927,"duration":"0.19"},{"name":"F6","midi":89,"time":"366.43","velocity":0.18110236220472442,"duration":"0.03"},{"name":"G#5","midi":80,"time":"366.44","velocity":0.10236220472440945,"duration":"0.03"},{"name":"D6","midi":86,"time":"366.44","velocity":0.31496062992125984,"duration":"0.12"},{"name":"G6","midi":91,"time":"366.45","velocity":0.2283464566929134,"duration":"0.06"},{"name":"C#2","midi":37,"time":"366.47","velocity":0.33858267716535434,"duration":"0.02"},{"name":"D2","midi":38,"time":"366.49","velocity":0.4015748031496063,"duration":"0.10"},{"name":"B4","midi":71,"time":"366.49","velocity":0.29133858267716534,"duration":"0.13"},{"name":"F6","midi":89,"time":"366.49","velocity":0.11811023622047244,"duration":"0.03"},{"name":"A#5","midi":82,"time":"366.50","velocity":0.36220472440944884,"duration":"0.13"},{"name":"F6","midi":89,"time":"366.53","velocity":0.15748031496062992,"duration":"0.09"},{"name":"C6","midi":84,"time":"366.56","velocity":0.25196850393700787,"duration":"0.09"},{"name":"G#5","midi":80,"time":"366.57","velocity":0.1968503937007874,"duration":"0.03"},{"name":"G6","midi":91,"time":"366.57","velocity":0.1732283464566929,"duration":"0.07"},{"name":"E5","midi":76,"time":"366.58","velocity":0.4330708661417323,"duration":"0.80"},{"name":"A6","midi":93,"time":"366.58","velocity":0.13385826771653545,"duration":"0.05"},{"name":"B6","midi":95,"time":"366.58","velocity":0.11811023622047244,"duration":"0.09"},{"name":"D7","midi":98,"time":"366.59","velocity":0.2677165354330709,"duration":"0.45"},{"name":"C2","midi":36,"time":"366.60","velocity":0.5433070866141733,"duration":"0.01"},{"name":"C3","midi":48,"time":"366.60","velocity":0.5669291338582677,"duration":"0.01"},{"name":"C#4","midi":61,"time":"366.60","velocity":0.30708661417322836,"duration":"0.02"},{"name":"F4","midi":65,"time":"366.60","velocity":0.4015748031496063,"duration":"0.02"},{"name":"A5","midi":81,"time":"366.60","velocity":0.25196850393700787,"duration":"0.06"},{"name":"A2","midi":45,"time":"366.62","velocity":0.6456692913385826,"duration":"0.01"},{"name":"D5","midi":74,"time":"366.62","velocity":0.30708661417322836,"duration":"0.02"},{"name":"G5","midi":79,"time":"366.62","velocity":0.2047244094488189,"duration":"0.03"},{"name":"B5","midi":83,"time":"366.62","velocity":0.31496062992125984,"duration":"0.31"},{"name":"D#6","midi":87,"time":"366.62","velocity":0.15748031496062992,"duration":"0.06"},{"name":"G7","midi":103,"time":"366.62","velocity":0.1968503937007874,"duration":"0.08"},{"name":"F#2","midi":42,"time":"366.63","velocity":0.6220472440944882,"duration":"0.02"},{"name":"B2","midi":47,"time":"366.63","velocity":0.5275590551181102,"duration":"0.01"},{"name":"E4","midi":64,"time":"366.63","velocity":0.33070866141732286,"duration":"0.05"},{"name":"G4","midi":67,"time":"366.63","velocity":0.2755905511811024,"duration":"0.02"},{"name":"A#4","midi":70,"time":"366.63","velocity":0.3464566929133858,"duration":"0.07"},{"name":"D3","midi":50,"time":"366.64","velocity":0.5905511811023622,"duration":"0.03"},{"name":"A3","midi":57,"time":"366.64","velocity":0.4015748031496063,"duration":"0.05"},{"name":"C#5","midi":73,"time":"366.64","velocity":0.23622047244094488,"duration":"0.07"},{"name":"D6","midi":86,"time":"366.64","velocity":0.25984251968503935,"duration":"0.03"},{"name":"F1","midi":29,"time":"366.65","velocity":0.6299212598425197,"duration":"0.02"},{"name":"A#5","midi":82,"time":"366.65","velocity":0.4015748031496063,"duration":"0.20"},{"name":"A6","midi":93,"time":"366.66","velocity":0.25196850393700787,"duration":"0.36"},{"name":"A1","midi":33,"time":"366.67","velocity":0.5748031496062992,"duration":"0.01"},{"name":"F#4","midi":66,"time":"366.67","velocity":0.5275590551181102,"duration":"0.64"},{"name":"B1","midi":35,"time":"366.69","velocity":0.5196850393700787,"duration":"0.01"},{"name":"D3","midi":50,"time":"366.69","velocity":0.5433070866141733,"duration":"0.30"},{"name":"A4","midi":69,"time":"366.69","velocity":0.33070866141732286,"duration":"0.15"},{"name":"G#5","midi":80,"time":"366.69","velocity":0.28346456692913385,"duration":"0.15"},{"name":"F6","midi":89,"time":"366.69","velocity":0.14173228346456693,"duration":"0.03"},{"name":"A#1","midi":34,"time":"366.70","velocity":0.4330708661417323,"duration":"0.02"},{"name":"A3","midi":57,"time":"366.70","velocity":0.5039370078740157,"duration":"0.29"},{"name":"D5","midi":74,"time":"366.70","velocity":0.2755905511811024,"duration":"0.03"},{"name":"G6","midi":91,"time":"366.70","velocity":0.14173228346456693,"duration":"0.06"},{"name":"D6","midi":86,"time":"366.71","velocity":0.30708661417322836,"duration":"0.16"},{"name":"B4","midi":71,"time":"366.72","velocity":0.1889763779527559,"duration":"0.03"},{"name":"C#5","midi":73,"time":"366.72","velocity":0.36220472440944884,"duration":"0.10"},{"name":"D#6","midi":87,"time":"366.72","velocity":0.1968503937007874,"duration":"0.17"},{"name":"C6","midi":84,"time":"366.76","velocity":0.2440944881889764,"duration":"0.06"},{"name":"G7","midi":103,"time":"366.76","velocity":0.2755905511811024,"duration":"0.29"},{"name":"F7","midi":101,"time":"366.78","velocity":0.1968503937007874,"duration":"0.06"},{"name":"B4","midi":71,"time":"366.79","velocity":0.3228346456692913,"duration":"0.14"},{"name":"G6","midi":91,"time":"366.79","velocity":0.2125984251968504,"duration":"0.03"},{"name":"F6","midi":89,"time":"366.81","velocity":0.2677165354330709,"duration":"0.20"},{"name":"C7","midi":96,"time":"366.81","velocity":0.1889763779527559,"duration":"0.35"},{"name":"C6","midi":84,"time":"366.83","velocity":0.2204724409448819,"duration":"0.05"},{"name":"C#6","midi":85,"time":"366.83","velocity":0.2992125984251969,"duration":"0.09"},{"name":"G6","midi":91,"time":"366.84","velocity":0.23622047244094488,"duration":"0.15"},{"name":"C#5","midi":73,"time":"366.85","velocity":0.4094488188976378,"duration":"0.26"},{"name":"G#5","midi":80,"time":"366.86","velocity":0.2047244094488189,"duration":"0.05"},{"name":"D6","midi":86,"time":"366.88","velocity":0.1968503937007874,"duration":"0.15"},{"name":"C2","midi":36,"time":"366.90","velocity":0.2992125984251969,"duration":"0.02"},{"name":"D#6","midi":87,"time":"366.91","velocity":0.18110236220472442,"duration":"0.07"},{"name":"G#5","midi":80,"time":"366.92","velocity":0.16535433070866143,"duration":"0.03"},{"name":"C6","midi":84,"time":"366.92","velocity":0.23622047244094488,"duration":"0.05"},{"name":"D#7","midi":99,"time":"366.93","velocity":0.23622047244094488,"duration":"0.20"},{"name":"C#2","midi":37,"time":"366.94","velocity":0.33858267716535434,"duration":"0.05"},{"name":"B5","midi":83,"time":"366.95","velocity":0.2047244094488189,"duration":"0.03"},{"name":"A#5","midi":82,"time":"366.97","velocity":0.2755905511811024,"duration":"0.09"},{"name":"D#3","midi":51,"time":"366.99","velocity":0.5039370078740157,"duration":"0.02"},{"name":"C6","midi":84,"time":"366.99","velocity":0.1968503937007874,"duration":"0.05"},{"name":"C#6","midi":85,"time":"366.99","velocity":0.44881889763779526,"duration":"0.42"},{"name":"D#2","midi":39,"time":"367.00","velocity":0.5433070866141733,"duration":"0.02"},{"name":"G6","midi":91,"time":"367.01","velocity":0.11811023622047244,"duration":"0.03"},{"name":"D#3","midi":51,"time":"367.02","velocity":0.5275590551181102,"duration":"0.01"},{"name":"A#4","midi":70,"time":"367.02","velocity":0.28346456692913385,"duration":"0.08"},{"name":"G#5","midi":80,"time":"367.02","velocity":0.18110236220472442,"duration":"0.08"},{"name":"B5","midi":83,"time":"367.02","velocity":0.2283464566929134,"duration":"0.06"},{"name":"D3","midi":50,"time":"367.03","velocity":0.5826771653543307,"duration":"0.34"},{"name":"A3","midi":57,"time":"367.03","velocity":0.4409448818897638,"duration":"0.31"},{"name":"A6","midi":93,"time":"367.03","velocity":0.2125984251968504,"duration":"0.15"},{"name":"A5","midi":81,"time":"367.05","velocity":0.25196850393700787,"duration":"0.06"},{"name":"D6","midi":86,"time":"367.05","velocity":0.15748031496062992,"duration":"0.06"},{"name":"D2","midi":38,"time":"367.06","velocity":0.25984251968503935,"duration":"0.03"},{"name":"C6","midi":84,"time":"367.06","velocity":0.25196850393700787,"duration":"0.10"},{"name":"G6","midi":91,"time":"367.07","velocity":0.11811023622047244,"duration":"0.06"},{"name":"A#5","midi":82,"time":"367.08","velocity":0.4015748031496063,"duration":"0.33"},{"name":"E7","midi":100,"time":"367.08","velocity":0.29133858267716534,"duration":"1.08"},{"name":"B5","midi":83,"time":"367.10","velocity":0.1968503937007874,"duration":"0.03"},{"name":"D7","midi":98,"time":"367.10","velocity":0.13385826771653545,"duration":"0.07"},{"name":"F6","midi":89,"time":"367.12","velocity":0.14960629921259844,"duration":"0.03"},{"name":"D#2","midi":39,"time":"367.13","velocity":0.2440944881889764,"duration":"0.02"},{"name":"D#6","midi":87,"time":"367.13","velocity":0.14960629921259844,"duration":"0.12"},{"name":"C#5","midi":73,"time":"367.14","velocity":0.2992125984251969,"duration":"0.21"},{"name":"G#5","midi":80,"time":"367.14","velocity":0.1732283464566929,"duration":"0.07"},{"name":"B5","midi":83,"time":"367.15","velocity":0.2047244094488189,"duration":"0.05"},{"name":"G6","midi":91,"time":"367.15","velocity":0.12598425196850394,"duration":"0.06"},{"name":"D#7","midi":99,"time":"367.15","velocity":0.1968503937007874,"duration":"0.08"},{"name":"D6","midi":86,"time":"367.16","velocity":0.10236220472440945,"duration":"0.05"},{"name":"D2","midi":38,"time":"367.17","velocity":0.23622047244094488,"duration":"0.03"},{"name":"G7","midi":103,"time":"367.17","velocity":0.15748031496062992,"duration":"0.10"},{"name":"C7","midi":96,"time":"367.20","velocity":0.12598425196850394,"duration":"0.06"},{"name":"F7","midi":101,"time":"367.20","velocity":0.2440944881889764,"duration":"0.22"},{"name":"C#2","midi":37,"time":"367.21","velocity":0.29133858267716534,"duration":"0.02"},{"name":"C6","midi":84,"time":"367.21","velocity":0.18110236220472442,"duration":"0.15"},{"name":"A6","midi":93,"time":"367.21","velocity":0.15748031496062992,"duration":"0.05"},{"name":"D2","midi":38,"time":"367.23","velocity":0.25984251968503935,"duration":"0.05"},{"name":"G#6","midi":92,"time":"367.23","velocity":0.2125984251968504,"duration":"0.16"},{"name":"D7","midi":98,"time":"367.23","velocity":0.14960629921259844,"duration":"0.10"},{"name":"F6","midi":89,"time":"367.24","velocity":0.18110236220472442,"duration":"0.07"},{"name":"D#7","midi":99,"time":"367.26","velocity":0.2204724409448819,"duration":"0.41"},{"name":"B4","midi":71,"time":"367.27","velocity":0.2283464566929134,"duration":"0.02"},{"name":"C#2","midi":37,"time":"367.30","velocity":0.31496062992125984,"duration":"0.02"},{"name":"A6","midi":93,"time":"367.30","velocity":0.28346456692913385,"duration":"0.20"},{"name":"C7","midi":96,"time":"367.31","velocity":0.2047244094488189,"duration":"0.07"},{"name":"F#4","midi":66,"time":"367.33","velocity":0.2992125984251969,"duration":"0.02"},{"name":"B4","midi":71,"time":"367.33","velocity":0.4409448818897638,"duration":"0.06"},{"name":"G7","midi":103,"time":"367.34","velocity":0.2047244094488189,"duration":"0.08"},{"name":"D5","midi":74,"time":"367.35","velocity":0.3858267716535433,"duration":"0.02"},{"name":"G#5","midi":80,"time":"367.35","velocity":0.31496062992125984,"duration":"0.17"},{"name":"F6","midi":89,"time":"367.35","velocity":0.2125984251968504,"duration":"0.07"},{"name":"B6","midi":95,"time":"367.35","velocity":0.2755905511811024,"duration":"0.34"},{"name":"G3","midi":55,"time":"367.36","velocity":0.4330708661417323,"duration":"0.03"},{"name":"E4","midi":64,"time":"367.36","velocity":0.5275590551181102,"duration":"0.02"},{"name":"G6","midi":91,"time":"367.36","velocity":0.25196850393700787,"duration":"0.13"},{"name":"A5","midi":81,"time":"367.37","velocity":0.2755905511811024,"duration":"0.03"},{"name":"D#6","midi":87,"time":"367.37","velocity":0.2204724409448819,"duration":"0.03"},{"name":"F#4","midi":66,"time":"367.38","velocity":0.3858267716535433,"duration":"0.02"},{"name":"A#4","midi":70,"time":"367.38","velocity":0.4566929133858268,"duration":"0.02"},{"name":"D#5","midi":75,"time":"367.38","velocity":0.41732283464566927,"duration":"0.05"},{"name":"C6","midi":84,"time":"367.40","velocity":0.2125984251968504,"duration":"0.09"},{"name":"E6","midi":88,"time":"367.40","velocity":0.2755905511811024,"duration":"0.38"},{"name":"E2","midi":40,"time":"367.41","velocity":0.48031496062992124,"duration":"0.05"},{"name":"D3","midi":50,"time":"367.41","velocity":0.5826771653543307,"duration":"0.22"},{"name":"B4","midi":71,"time":"367.41","velocity":0.3543307086614173,"duration":"0.02"},{"name":"F#4","midi":66,"time":"367.42","velocity":0.4251968503937008,"duration":"0.22"},{"name":"C#5","midi":73,"time":"367.42","velocity":0.3779527559055118,"duration":"0.33"},{"name":"A#5","midi":82,"time":"367.42","velocity":0.2283464566929134,"duration":"0.10"},{"name":"B3","midi":59,"time":"367.43","velocity":0.3779527559055118,"duration":"0.02"},{"name":"A4","midi":69,"time":"367.43","velocity":0.3543307086614173,"duration":"0.13"},{"name":"E5","midi":76,"time":"367.43","velocity":0.29133858267716534,"duration":"0.02"},{"name":"D#5","midi":75,"time":"367.44","velocity":0.33858267716535434,"duration":"0.03"},{"name":"F6","midi":89,"time":"367.44","velocity":0.1968503937007874,"duration":"0.12"},{"name":"F7","midi":101,"time":"367.44","velocity":0.2047244094488189,"duration":"0.34"},{"name":"D#2","midi":39,"time":"367.45","velocity":0.2755905511811024,"duration":"0.03"},{"name":"B5","midi":83,"time":"367.45","velocity":0.29133858267716534,"duration":"0.12"},{"name":"A3","midi":57,"time":"367.47","velocity":0.4330708661417323,"duration":"0.03"},{"name":"B4","midi":71,"time":"367.47","velocity":0.31496062992125984,"duration":"0.02"},{"name":"E5","midi":76,"time":"367.47","velocity":0.33070866141732286,"duration":"0.28"},{"name":"A#6","midi":94,"time":"367.48","velocity":0.30708661417322836,"duration":"1.09"},{"name":"G7","midi":103,"time":"367.49","velocity":0.09448818897637795,"duration":"0.05"},{"name":"A#3","midi":58,"time":"367.50","velocity":0.44881889763779526,"duration":"0.03"},{"name":"C6","midi":84,"time":"367.52","velocity":0.31496062992125984,"duration":"0.26"},{"name":"G#5","midi":80,"time":"367.53","velocity":0.2125984251968504,"duration":"0.07"},{"name":"A#3","midi":58,"time":"367.55","velocity":0.4015748031496063,"duration":"0.03"},{"name":"G6","midi":91,"time":"367.55","velocity":0.11811023622047244,"duration":"0.05"},{"name":"B4","midi":71,"time":"367.57","velocity":0.31496062992125984,"duration":"0.16"},{"name":"D2","midi":38,"time":"367.58","velocity":0.2992125984251969,"duration":"0.09"},{"name":"A3","midi":57,"time":"367.60","velocity":0.47244094488188976,"duration":"0.16"},{"name":"G7","midi":103,"time":"367.62","velocity":0.18110236220472442,"duration":"0.16"},{"name":"D3","midi":50,"time":"367.64","velocity":0.5511811023622047,"duration":"0.10"},{"name":"E4","midi":64,"time":"367.64","velocity":0.3858267716535433,"duration":"0.08"},{"name":"A#5","midi":82,"time":"367.65","velocity":0.3700787401574803,"duration":"0.20"},{"name":"G6","midi":91,"time":"367.66","velocity":0.11811023622047244,"duration":"0.05"},{"name":"G#5","midi":80,"time":"367.67","velocity":0.1968503937007874,"duration":"0.10"},{"name":"D#7","midi":99,"time":"367.67","velocity":0.29133858267716534,"duration":"0.19"},{"name":"D2","midi":38,"time":"367.69","velocity":0.4330708661417323,"duration":"0.07"},{"name":"F#4","midi":66,"time":"367.71","velocity":0.4566929133858268,"duration":"0.05"},{"name":"C#6","midi":85,"time":"367.71","velocity":0.4094488188976378,"duration":"0.23"},{"name":"B6","midi":95,"time":"367.71","velocity":0.13385826771653545,"duration":"0.05"},{"name":"F6","midi":89,"time":"367.73","velocity":0.2283464566929134,"duration":"0.09"},{"name":"C5","midi":72,"time":"367.74","velocity":0.29133858267716534,"duration":"0.02"},{"name":"E2","midi":40,"time":"367.76","velocity":0.5433070866141733,"duration":"0.01"},{"name":"E5","midi":76,"time":"367.76","velocity":0.28346456692913385,"duration":"0.34"},{"name":"D6","midi":86,"time":"367.76","velocity":0.1732283464566929,"duration":"0.07"},{"name":"F2","midi":41,"time":"367.77","velocity":0.5196850393700787,"duration":"0.01"},{"name":"E4","midi":64,"time":"367.77","velocity":0.4330708661417323,"duration":"0.05"},{"name":"B4","midi":71,"time":"367.77","velocity":0.3228346456692913,"duration":"0.10"},{"name":"C#5","midi":73,"time":"367.77","velocity":0.25984251968503935,"duration":"0.05"},{"name":"G6","midi":91,"time":"367.77","velocity":0.13385826771653545,"duration":"0.06"},{"name":"E2","midi":40,"time":"367.78","velocity":0.4330708661417323,"duration":"0.02"},{"name":"D3","midi":50,"time":"367.78","velocity":0.5984251968503937,"duration":"0.30"},{"name":"A3","midi":57,"time":"367.78","velocity":0.36220472440944884,"duration":"0.02"},{"name":"B6","midi":95,"time":"367.78","velocity":0.29133858267716534,"duration":"0.35"},{"name":"F#4","midi":66,"time":"367.79","velocity":0.4015748031496063,"duration":"0.02"},{"name":"G#5","midi":80,"time":"367.79","velocity":0.2204724409448819,"duration":"0.06"},{"name":"G7","midi":103,"time":"367.79","velocity":0.1732283464566929,"duration":"0.19"},{"name":"E6","midi":88,"time":"367.80","velocity":0.28346456692913385,"duration":"0.42"},{"name":"D5","midi":74,"time":"367.81","velocity":0.2204724409448819,"duration":"0.05"},{"name":"C6","midi":84,"time":"367.84","velocity":0.2204724409448819,"duration":"0.03"},{"name":"F#4","midi":66,"time":"367.85","velocity":0.4251968503937008,"duration":"0.19"},{"name":"C#5","midi":73,"time":"367.85","velocity":0.23622047244094488,"duration":"0.02"},{"name":"D#6","midi":87,"time":"367.85","velocity":0.12598425196850394,"duration":"0.03"},{"name":"D7","midi":98,"time":"367.85","velocity":0.1732283464566929,"duration":"0.03"},{"name":"A4","midi":69,"time":"367.86","velocity":0.2677165354330709,"duration":"0.09"},{"name":"C#5","midi":73,"time":"367.88","velocity":0.28346456692913385,"duration":"0.05"},{"name":"C6","midi":84,"time":"367.88","velocity":0.16535433070866143,"duration":"0.03"},{"name":"D#7","midi":99,"time":"367.88","velocity":0.13385826771653545,"duration":"0.03"},{"name":"A3","midi":57,"time":"367.90","velocity":0.4251968503937008,"duration":"0.12"},{"name":"D6","midi":86,"time":"367.90","velocity":0.2755905511811024,"duration":"0.08"},{"name":"B4","midi":71,"time":"367.91","velocity":0.25984251968503935,"duration":"0.09"},{"name":"F6","midi":89,"time":"367.91","velocity":0.2125984251968504,"duration":"0.06"},{"name":"A#5","midi":82,"time":"367.92","velocity":0.2992125984251969,"duration":"0.26"},{"name":"C7","midi":96,"time":"367.92","velocity":0.23622047244094488,"duration":"0.42"},{"name":"C#2","midi":37,"time":"367.94","velocity":0.23622047244094488,"duration":"0.03"},{"name":"C#5","midi":73,"time":"367.94","velocity":0.23622047244094488,"duration":"0.02"},{"name":"G6","midi":91,"time":"367.95","velocity":0.14960629921259844,"duration":"0.03"},{"name":"D#7","midi":99,"time":"367.95","velocity":0.2440944881889764,"duration":"0.09"},{"name":"D#6","midi":87,"time":"367.97","velocity":0.2047244094488189,"duration":"0.15"},{"name":"C#6","midi":85,"time":"367.98","velocity":0.3937007874015748,"duration":"0.14"},{"name":"C#2","midi":37,"time":"368.00","velocity":0.2440944881889764,"duration":"0.02"},{"name":"A5","midi":81,"time":"368.00","velocity":0.2204724409448819,"duration":"0.06"},{"name":"G7","midi":103,"time":"368.00","velocity":0.15748031496062992,"duration":"0.06"},{"name":"A4","midi":69,"time":"368.01","velocity":0.25196850393700787,"duration":"0.08"},{"name":"B4","midi":71,"time":"368.01","velocity":0.3937007874015748,"duration":"0.13"},{"name":"G#5","midi":80,"time":"368.02","velocity":0.1889763779527559,"duration":"0.05"},{"name":"B5","midi":83,"time":"368.02","velocity":0.4409448818897638,"duration":"0.43"},{"name":"A3","midi":57,"time":"368.03","velocity":0.44881889763779526,"duration":"0.07"},{"name":"E4","midi":64,"time":"368.03","velocity":0.3464566929133858,"duration":"0.02"},{"name":"C#5","midi":73,"time":"368.03","velocity":0.3858267716535433,"duration":"0.07"},{"name":"A6","midi":93,"time":"368.03","velocity":0.2283464566929134,"duration":"0.06"},{"name":"F#4","midi":66,"time":"368.05","velocity":0.4409448818897638,"duration":"0.05"},{"name":"G6","midi":91,"time":"368.05","velocity":0.2283464566929134,"duration":"0.10"},{"name":"E4","midi":64,"time":"368.07","velocity":0.3858267716535433,"duration":"0.06"},{"name":"D#7","midi":99,"time":"368.07","velocity":0.2283464566929134,"duration":"0.38"},{"name":"E2","midi":40,"time":"368.08","velocity":0.5826771653543307,"duration":"0.02"},{"name":"D6","midi":86,"time":"368.08","velocity":0.2440944881889764,"duration":"0.16"},{"name":"G#5","midi":80,"time":"368.09","velocity":0.2677165354330709,"duration":"0.20"},{"name":"F7","midi":101,"time":"368.09","velocity":0.16535433070866143,"duration":"0.13"},{"name":"F2","midi":41,"time":"368.10","velocity":0.6377952755905512,"duration":"0.01"},{"name":"G3","midi":55,"time":"368.10","velocity":0.4094488188976378,"duration":"0.02"},{"name":"F#4","midi":66,"time":"368.10","velocity":0.3779527559055118,"duration":"0.02"},{"name":"A4","midi":69,"time":"368.10","velocity":0.3858267716535433,"duration":"0.03"},{"name":"D#5","midi":75,"time":"368.10","velocity":0.2677165354330709,"duration":"0.05"},{"name":"C#2","midi":37,"time":"368.12","velocity":0.5511811023622047,"duration":"0.01"},{"name":"G#2","midi":44,"time":"368.12","velocity":0.5590551181102362,"duration":"0.01"},{"name":"C#5","midi":73,"time":"368.12","velocity":0.25196850393700787,"duration":"0.07"},{"name":"A#1","midi":34,"time":"368.13","velocity":0.5590551181102362,"duration":"0.01"},{"name":"C#4","midi":61,"time":"368.13","velocity":0.3543307086614173,"duration":"0.02"},{"name":"E5","midi":76,"time":"368.13","velocity":0.31496062992125984,"duration":"0.34"},{"name":"A6","midi":93,"time":"368.13","velocity":0.2204724409448819,"duration":"0.20"},{"name":"F#1","midi":30,"time":"368.14","velocity":0.5511811023622047,"duration":"0.01"},{"name":"D#3","midi":51,"time":"368.14","velocity":0.5590551181102362,"duration":"0.02"},{"name":"A3","midi":57,"time":"368.14","velocity":0.44881889763779526,"duration":"0.09"},{"name":"A5","midi":81,"time":"368.14","velocity":0.13385826771653545,"duration":"0.05"},{"name":"D4","midi":62,"time":"368.15","velocity":0.3858267716535433,"duration":"0.07"},{"name":"F4","midi":65,"time":"368.15","velocity":0.33070866141732286,"duration":"0.02"},{"name":"F#5","midi":78,"time":"368.15","velocity":0.3937007874015748,"duration":"0.33"},{"name":"D3","midi":50,"time":"368.16","velocity":0.5433070866141733,"duration":"0.01"},{"name":"F6","midi":89,"time":"368.16","velocity":0.1889763779527559,"duration":"0.14"},{"name":"G7","midi":103,"time":"368.16","velocity":0.18110236220472442,"duration":"0.16"},{"name":"C#3","midi":49,"time":"368.17","velocity":0.5590551181102362,"duration":"0.01"},{"name":"F#4","midi":66,"time":"368.17","velocity":0.2677165354330709,"duration":"0.02"},{"name":"C5","midi":72,"time":"368.17","velocity":0.2440944881889764,"duration":"0.02"},{"name":"D3","midi":50,"time":"368.19","velocity":0.5826771653543307,"duration":"0.09"},{"name":"B4","midi":71,"time":"368.20","velocity":0.28346456692913385,"duration":"0.02"},{"name":"E7","midi":100,"time":"368.20","velocity":0.33070866141732286,"duration":"5.00"},{"name":"G1","midi":31,"time":"368.21","velocity":0.2755905511811024,"duration":"0.02"},{"name":"C#5","midi":73,"time":"368.21","velocity":0.2992125984251969,"duration":"0.21"},{"name":"A#5","midi":82,"time":"368.21","velocity":0.2047244094488189,"duration":"0.05"},{"name":"E4","midi":64,"time":"368.22","velocity":0.3779527559055118,"duration":"0.10"},{"name":"A5","midi":81,"time":"368.22","velocity":0.33858267716535434,"duration":"0.17"},{"name":"A3","midi":57,"time":"368.24","velocity":0.4330708661417323,"duration":"0.20"},{"name":"B4","midi":71,"time":"368.24","velocity":0.4409448818897638,"duration":"0.28"},{"name":"D#6","midi":87,"time":"368.26","velocity":0.2047244094488189,"duration":"0.14"},{"name":"G6","midi":91,"time":"368.27","velocity":0.16535433070866143,"duration":"0.07"},{"name":"G4","midi":67,"time":"368.28","velocity":0.1732283464566929,"duration":"0.03"},{"name":"D6","midi":86,"time":"368.28","velocity":0.15748031496062992,"duration":"0.03"},{"name":"D3","midi":50,"time":"368.29","velocity":0.5196850393700787,"duration":"0.05"},{"name":"D6","midi":86,"time":"368.33","velocity":0.2677165354330709,"duration":"0.03"},{"name":"G4","midi":67,"time":"368.34","velocity":0.29133858267716534,"duration":"0.03"},{"name":"F6","midi":89,"time":"368.34","velocity":0.15748031496062992,"duration":"0.07"},{"name":"D3","midi":50,"time":"368.35","velocity":0.5433070866141733,"duration":"0.15"},{"name":"G#5","midi":80,"time":"368.35","velocity":0.16535433070866143,"duration":"0.12"},{"name":"C#6","midi":85,"time":"368.35","velocity":0.36220472440944884,"duration":"0.23"},{"name":"E2","midi":40,"time":"368.36","velocity":0.31496062992125984,"duration":"0.02"},{"name":"G7","midi":103,"time":"368.36","velocity":0.13385826771653545,"duration":"0.16"},{"name":"A#5","midi":82,"time":"368.37","velocity":0.2755905511811024,"duration":"0.10"},{"name":"C2","midi":36,"time":"368.38","velocity":0.3228346456692913,"duration":"0.02"},{"name":"E4","midi":64,"time":"368.38","velocity":0.30708661417322836,"duration":"0.02"},{"name":"C7","midi":96,"time":"368.38","velocity":0.14960629921259844,"duration":"0.05"},{"name":"D7","midi":98,"time":"368.38","velocity":0.10236220472440945,"duration":"0.03"},{"name":"G6","midi":91,"time":"368.40","velocity":0.11023622047244094,"duration":"0.03"},{"name":"D#6","midi":87,"time":"368.41","velocity":0.14173228346456693,"duration":"0.05"},{"name":"F7","midi":101,"time":"368.42","velocity":0.2204724409448819,"duration":"0.29"},{"name":"C#2","midi":37,"time":"368.43","velocity":0.3700787401574803,"duration":"0.03"},{"name":"F#4","midi":66,"time":"368.43","velocity":0.5669291338582677,"duration":"0.44"},{"name":"C#5","midi":73,"time":"368.43","velocity":0.25196850393700787,"duration":"0.05"},{"name":"G#6","midi":92,"time":"368.43","velocity":0.31496062992125984,"duration":"0.45"},{"name":"D7","midi":98,"time":"368.44","velocity":0.2125984251968504,"duration":"0.06"},{"name":"B3","midi":59,"time":"368.45","velocity":0.2992125984251969,"duration":"0.02"},{"name":"C6","midi":84,"time":"368.45","velocity":0.28346456692913385,"duration":"0.02"},{"name":"G6","midi":91,"time":"368.45","velocity":0.2125984251968504,"duration":"0.10"},{"name":"D2","midi":38,"time":"368.47","velocity":0.6220472440944882,"duration":"0.02"},{"name":"B5","midi":83,"time":"368.47","velocity":0.4881889763779528,"duration":"0.21"},{"name":"D#6","midi":87,"time":"368.47","velocity":0.2047244094488189,"duration":"0.05"},{"name":"D#7","midi":99,"time":"368.47","velocity":0.2283464566929134,"duration":"0.13"},{"name":"E2","midi":40,"time":"368.49","velocity":0.6771653543307087,"duration":"0.01"},{"name":"D#4","midi":63,"time":"368.49","velocity":0.2283464566929134,"duration":"0.02"},{"name":"A4","midi":69,"time":"368.49","velocity":0.33858267716535434,"duration":"0.03"},{"name":"E5","midi":76,"time":"368.49","velocity":0.23622047244094488,"duration":"0.03"},{"name":"G5","midi":79,"time":"368.49","velocity":0.2440944881889764,"duration":"0.02"},{"name":"F2","midi":41,"time":"368.50","velocity":0.5905511811023622,"duration":"0.02"},{"name":"E6","midi":88,"time":"368.51","velocity":0.2992125984251969,"duration":"0.20"},{"name":"D7","midi":98,"time":"368.51","velocity":0.2440944881889764,"duration":"0.37"},{"name":"F1","midi":29,"time":"368.52","velocity":0.5826771653543307,"duration":"0.01"},{"name":"E3","midi":52,"time":"368.52","velocity":0.5354330708661418,"duration":"0.03"},{"name":"A#4","midi":70,"time":"368.52","velocity":0.2755905511811024,"duration":"0.02"},{"name":"F6","midi":89,"time":"368.52","velocity":0.08661417322834646,"duration":"0.05"},{"name":"F#1","midi":30,"time":"368.53","velocity":0.5905511811023622,"duration":"0.01"},{"name":"D4","midi":62,"time":"368.53","velocity":0.3464566929133858,"duration":"0.17"},{"name":"B1","midi":35,"time":"368.55","velocity":0.5511811023622047,"duration":"0.01"},{"name":"B4","midi":71,"time":"368.55","velocity":0.33070866141732286,"duration":"0.07"},{"name":"D#2","midi":39,"time":"368.56","velocity":0.5118110236220472,"duration":"0.01"},{"name":"D#3","midi":51,"time":"368.56","velocity":0.5275590551181102,"duration":"0.02"},{"name":"A4","midi":69,"time":"368.57","velocity":0.31496062992125984,"duration":"0.24"},{"name":"C#5","midi":73,"time":"368.57","velocity":0.2440944881889764,"duration":"0.03"},{"name":"G#5","midi":80,"time":"368.57","velocity":0.2125984251968504,"duration":"0.08"},{"name":"D6","midi":86,"time":"368.57","velocity":0.25196850393700787,"duration":"0.08"},{"name":"E3","midi":52,"time":"368.58","velocity":0.5354330708661418,"duration":"0.13"},{"name":"C6","midi":84,"time":"368.58","velocity":0.2283464566929134,"duration":"0.03"},{"name":"G6","midi":91,"time":"368.58","velocity":0.14960629921259844,"duration":"0.05"},{"name":"A#6","midi":94,"time":"368.58","velocity":0.1968503937007874,"duration":"0.35"},{"name":"E5","midi":76,"time":"368.59","velocity":0.08661417322834646,"duration":"0.03"},{"name":"F6","midi":89,"time":"368.60","velocity":0.12598425196850394,"duration":"0.06"},{"name":"C#6","midi":85,"time":"368.62","velocity":0.30708661417322836,"duration":"0.29"},{"name":"G7","midi":103,"time":"368.62","velocity":0.1732283464566929,"duration":"0.12"},{"name":"B4","midi":71,"time":"368.63","velocity":0.5039370078740157,"duration":"0.23"},{"name":"E5","midi":76,"time":"368.64","velocity":0.4566929133858268,"duration":"0.24"},{"name":"D#6","midi":87,"time":"368.64","velocity":0.2204724409448819,"duration":"0.09"},{"name":"D#7","midi":99,"time":"368.64","velocity":0.29133858267716534,"duration":"1.37"},{"name":"D#2","midi":39,"time":"368.65","velocity":0.4566929133858268,"duration":"0.02"},{"name":"G6","midi":91,"time":"368.66","velocity":0.1889763779527559,"duration":"0.03"},{"name":"E2","midi":40,"time":"368.67","velocity":0.4566929133858268,"duration":"0.05"},{"name":"G#5","midi":80,"time":"368.67","velocity":0.1968503937007874,"duration":"0.13"},{"name":"A#5","midi":82,"time":"368.69","velocity":0.2204724409448819,"duration":"0.03"},{"name":"F6","midi":89,"time":"368.69","velocity":0.2992125984251969,"duration":"0.29"},{"name":"D#3","midi":51,"time":"368.71","velocity":0.5275590551181102,"duration":"0.01"},{"name":"A6","midi":93,"time":"368.71","velocity":0.2125984251968504,"duration":"0.10"},{"name":"E3","midi":52,"time":"368.72","velocity":0.5433070866141733,"duration":"0.13"},{"name":"A5","midi":81,"time":"368.72","velocity":0.3464566929133858,"duration":"0.15"},{"name":"E2","midi":40,"time":"368.73","velocity":0.4330708661417323,"duration":"0.08"},{"name":"C#5","midi":73,"time":"368.77","velocity":0.2677165354330709,"duration":"0.03"},{"name":"D6","midi":86,"time":"368.77","velocity":0.23622047244094488,"duration":"0.03"},{"name":"D#6","midi":87,"time":"368.78","velocity":0.2125984251968504,"duration":"0.08"},{"name":"G6","midi":91,"time":"368.79","velocity":0.14173228346456693,"duration":"0.07"},{"name":"D5","midi":74,"time":"368.80","velocity":0.30708661417322836,"duration":"0.02"},{"name":"C7","midi":96,"time":"368.81","velocity":0.2125984251968504,"duration":"0.21"},{"name":"G7","midi":103,"time":"368.81","velocity":0.2204724409448819,"duration":"0.29"},{"name":"E2","midi":40,"time":"368.83","velocity":0.4330708661417323,"duration":"0.05"},{"name":"C#5","midi":73,"time":"368.83","velocity":0.28346456692913385,"duration":"0.02"},{"name":"B3","midi":59,"time":"368.84","velocity":0.48031496062992124,"duration":"0.03"},{"name":"C6","midi":84,"time":"368.84","velocity":0.2992125984251969,"duration":"0.05"},{"name":"F3","midi":53,"time":"368.85","velocity":0.5275590551181102,"duration":"0.03"},{"name":"E4","midi":64,"time":"368.85","velocity":0.5669291338582677,"duration":"0.03"},{"name":"G#5","midi":80,"time":"368.85","velocity":0.2283464566929134,"duration":"0.05"},{"name":"D6","midi":86,"time":"368.86","velocity":0.28346456692913385,"duration":"0.14"},{"name":"G5","midi":79,"time":"368.87","velocity":0.36220472440944884,"duration":"0.03"},{"name":"C#4","midi":61,"time":"368.88","velocity":0.4015748031496063,"duration":"0.03"},{"name":"F#4","midi":66,"time":"368.88","velocity":0.4566929133858268,"duration":"0.03"},{"name":"B4","midi":71,"time":"368.88","velocity":0.5118110236220472,"duration":"0.59"},{"name":"D#5","midi":75,"time":"368.88","velocity":0.33858267716535434,"duration":"0.05"},{"name":"E6","midi":88,"time":"368.88","velocity":0.30708661417322836,"duration":"0.19"},{"name":"D#2","midi":39,"time":"368.90","velocity":0.4015748031496063,"duration":"0.02"},{"name":"E3","midi":52,"time":"368.90","velocity":0.5669291338582677,"duration":"0.33"},{"name":"A5","midi":81,"time":"368.90","velocity":0.28346456692913385,"duration":"0.05"},{"name":"C6","midi":84,"time":"368.90","velocity":0.12598425196850394,"duration":"0.05"},{"name":"G#6","midi":92,"time":"368.90","velocity":0.31496062992125984,"duration":"0.62"},{"name":"A#3","midi":58,"time":"368.91","velocity":0.47244094488188976,"duration":"0.06"},{"name":"E2","midi":40,"time":"368.92","velocity":0.3700787401574803,"duration":"0.20"},{"name":"G#4","midi":68,"time":"368.92","velocity":0.33070866141732286,"duration":"0.06"},{"name":"G6","midi":91,"time":"368.93","velocity":0.2283464566929134,"duration":"0.21"},{"name":"D5","midi":74,"time":"368.94","velocity":0.31496062992125984,"duration":"0.05"},{"name":"A#5","midi":82,"time":"368.94","velocity":0.30708661417322836,"duration":"0.09"},{"name":"C#6","midi":85,"time":"368.97","velocity":0.2755905511811024,"duration":"0.06"},{"name":"A#3","midi":58,"time":"368.98","velocity":0.44881889763779526,"duration":"0.06"},{"name":"C#5","midi":73,"time":"368.98","velocity":0.25196850393700787,"duration":"0.02"},{"name":"A4","midi":69,"time":"368.99","velocity":0.2283464566929134,"duration":"0.02"},{"name":"B5","midi":83,"time":"368.99","velocity":0.5196850393700787,"duration":"0.67"},{"name":"D5","midi":74,"time":"369.00","velocity":0.29133858267716534,"duration":"0.06"},{"name":"A5","midi":81,"time":"369.00","velocity":0.33858267716535434,"duration":"0.22"},{"name":"D#6","midi":87,"time":"369.00","velocity":0.23622047244094488,"duration":"0.09"},{"name":"G#5","midi":80,"time":"369.01","velocity":0.2283464566929134,"duration":"0.02"},{"name":"D6","midi":86,"time":"369.01","velocity":0.29133858267716534,"duration":"0.14"},{"name":"G5","midi":79,"time":"369.03","velocity":0.11811023622047244,"duration":"0.03"},{"name":"C7","midi":96,"time":"369.03","velocity":0.2283464566929134,"duration":"0.49"},{"name":"C#5","midi":73,"time":"369.05","velocity":0.30708661417322836,"duration":"0.10"},{"name":"F6","midi":89,"time":"369.05","velocity":0.14173228346456693,"duration":"0.05"},{"name":"F#4","midi":66,"time":"369.06","velocity":0.3700787401574803,"duration":"0.12"},{"name":"B3","midi":59,"time":"369.07","velocity":0.36220472440944884,"duration":"0.02"},{"name":"A4","midi":69,"time":"369.07","velocity":0.30708661417322836,"duration":"0.05"},{"name":"D4","midi":62,"time":"369.08","velocity":0.3543307086614173,"duration":"0.08"},{"name":"E6","midi":88,"time":"369.08","velocity":0.31496062992125984,"duration":"0.92"},{"name":"A6","midi":93,"time":"369.08","velocity":0.4330708661417323,"duration":"3.22"},{"name":"A#3","midi":58,"time":"369.09","velocity":0.4251968503937008,"duration":"0.02"},{"name":"D#6","midi":87,"time":"369.12","velocity":0.15748031496062992,"duration":"0.05"},{"name":"E2","midi":40,"time":"369.13","velocity":0.3700787401574803,"duration":"0.09"},{"name":"A4","midi":69,"time":"369.13","velocity":0.33070866141732286,"duration":"0.10"},{"name":"F#5","midi":78,"time":"369.13","velocity":0.4251968503937008,"duration":"0.37"},{"name":"A#5","midi":82,"time":"369.14","velocity":0.23622047244094488,"duration":"0.02"},{"name":"F6","midi":89,"time":"369.14","velocity":0.11023622047244094,"duration":"0.05"},{"name":"B3","midi":59,"time":"369.15","velocity":0.3228346456692913,"duration":"0.02"},{"name":"G#5","midi":80,"time":"369.15","velocity":0.2283464566929134,"duration":"0.05"},{"name":"C#6","midi":85,"time":"369.15","velocity":0.2677165354330709,"duration":"0.08"},{"name":"G6","midi":91,"time":"369.15","velocity":0.23622047244094488,"duration":"0.22"},{"name":"C#5","midi":73,"time":"369.16","velocity":0.23622047244094488,"duration":"0.02"},{"name":"E5","midi":76,"time":"369.16","velocity":0.31496062992125984,"duration":"0.40"},{"name":"D7","midi":98,"time":"369.16","velocity":0.28346456692913385,"duration":"0.71"},{"name":"A#3","midi":58,"time":"369.17","velocity":0.4015748031496063,"duration":"0.02"},{"name":"D#6","midi":87,"time":"369.17","velocity":0.09448818897637795,"duration":"0.06"},{"name":"F#4","midi":66,"time":"369.19","velocity":0.2992125984251969,"duration":"0.06"},{"name":"A#5","midi":82,"time":"369.19","velocity":0.23622047244094488,"duration":"0.05"},{"name":"B3","midi":59,"time":"369.20","velocity":0.30708661417322836,"duration":"0.02"},{"name":"C#5","midi":73,"time":"369.20","velocity":0.1968503937007874,"duration":"0.08"},{"name":"D6","midi":86,"time":"369.20","velocity":0.25196850393700787,"duration":"0.05"},{"name":"G#5","midi":80,"time":"369.21","velocity":0.23622047244094488,"duration":"0.05"},{"name":"F3","midi":53,"time":"369.22","velocity":0.4094488188976378,"duration":"0.02"},{"name":"C#7","midi":97,"time":"369.22","velocity":0.3779527559055118,"duration":"3.58"},{"name":"F7","midi":101,"time":"369.23","velocity":0.2047244094488189,"duration":"0.29"},{"name":"F2","midi":41,"time":"369.24","velocity":0.48031496062992124,"duration":"0.05"},{"name":"A4","midi":69,"time":"369.24","velocity":0.3464566929133858,"duration":"0.02"},{"name":"C#6","midi":85,"time":"369.24","velocity":0.29133858267716534,"duration":"0.20"},{"name":"F3","midi":53,"time":"369.26","velocity":0.5354330708661418,"duration":"0.01"},{"name":"D6","midi":86,"time":"369.26","velocity":0.2440944881889764,"duration":"0.07"},{"name":"E3","midi":52,"time":"369.27","velocity":0.5748031496062992,"duration":"0.21"},{"name":"G#4","midi":68,"time":"369.27","velocity":0.28346456692913385,"duration":"0.02"},{"name":"G#5","midi":80,"time":"369.27","velocity":0.33858267716535434,"duration":"0.24"},{"name":"D#6","midi":87,"time":"369.27","velocity":0.14960629921259844,"duration":"0.08"},{"name":"B3","midi":59,"time":"369.29","velocity":0.33858267716535434,"duration":"0.03"},{"name":"D#2","midi":39,"time":"369.30","velocity":0.3543307086614173,"duration":"0.02"},{"name":"C#5","midi":73,"time":"369.30","velocity":0.23622047244094488,"duration":"0.03"},{"name":"E2","midi":40,"time":"369.33","velocity":0.3858267716535433,"duration":"0.06"},{"name":"G4","midi":67,"time":"369.33","velocity":0.2755905511811024,"duration":"0.03"},{"name":"A4","midi":69,"time":"369.34","velocity":0.29133858267716534,"duration":"0.06"},{"name":"A#5","midi":82,"time":"369.34","velocity":0.2125984251968504,"duration":"0.03"},{"name":"C#5","midi":73,"time":"369.35","velocity":0.2125984251968504,"duration":"0.03"},{"name":"B3","midi":59,"time":"369.36","velocity":0.3543307086614173,"duration":"0.05"},{"name":"D#6","midi":87,"time":"369.36","velocity":0.1889763779527559,"duration":"0.09"},{"name":"F6","midi":89,"time":"369.38","velocity":0.18110236220472442,"duration":"0.08"},{"name":"E2","midi":40,"time":"369.40","velocity":0.4094488188976378,"duration":"0.10"},{"name":"C#5","midi":73,"time":"369.41","velocity":0.2440944881889764,"duration":"0.03"},{"name":"A5","midi":81,"time":"369.41","velocity":0.2677165354330709,"duration":"0.02"},{"name":"B3","midi":59,"time":"369.42","velocity":0.3858267716535433,"duration":"0.07"},{"name":"G7","midi":103,"time":"369.42","velocity":0.14960629921259844,"duration":"0.19"},{"name":"D6","midi":86,"time":"369.43","velocity":0.28346456692913385,"duration":"0.09"},{"name":"G6","midi":91,"time":"369.43","velocity":0.16535433070866143,"duration":"0.03"},{"name":"F#4","midi":66,"time":"369.44","velocity":0.2204724409448819,"duration":"0.05"},{"name":"A5","midi":81,"time":"369.44","velocity":0.31496062992125984,"duration":"0.16"},{"name":"D#3","midi":51,"time":"369.48","velocity":0.5511811023622047,"duration":"0.06"},{"name":"E4","midi":64,"time":"369.48","velocity":0.3464566929133858,"duration":"0.13"},{"name":"A4","midi":69,"time":"369.48","velocity":0.3543307086614173,"duration":"0.13"},{"name":"G6","midi":91,"time":"369.48","velocity":0.2755905511811024,"duration":"0.05"},{"name":"A3","midi":57,"time":"369.49","velocity":0.25196850393700787,"duration":"0.02"},{"name":"B4","midi":71,"time":"369.49","velocity":0.47244094488188976,"duration":"0.12"},{"name":"C#5","midi":73,"time":"369.49","velocity":0.2283464566929134,"duration":"0.02"},{"name":"G5","midi":79,"time":"369.50","velocity":0.25196850393700787,"duration":"0.05"},{"name":"D#6","midi":87,"time":"369.50","velocity":0.16535433070866143,"duration":"0.15"},{"name":"F6","midi":89,"time":"369.50","velocity":0.1968503937007874,"duration":"0.03"},{"name":"F#6","midi":90,"time":"369.50","velocity":0.3464566929133858,"duration":"0.21"},{"name":"C#6","midi":85,"time":"369.51","velocity":0.36220472440944884,"duration":"0.42"},{"name":"D#2","midi":39,"time":"369.52","velocity":0.4409448818897638,"duration":"0.02"},{"name":"G#6","midi":92,"time":"369.52","velocity":0.3228346456692913,"duration":"0.33"},{"name":"D3","midi":50,"time":"369.53","velocity":0.47244094488188976,"duration":"0.03"},{"name":"G#5","midi":80,"time":"369.53","velocity":0.3700787401574803,"duration":"0.09"},{"name":"D2","midi":38,"time":"369.55","velocity":0.48031496062992124,"duration":"0.02"},{"name":"F5","midi":77,"time":"369.55","velocity":0.11811023622047244,"duration":"0.03"},{"name":"F#5","midi":78,"time":"369.55","velocity":0.36220472440944884,"duration":"0.21"},{"name":"F7","midi":101,"time":"369.55","velocity":0.31496062992125984,"duration":"1.29"},{"name":"C#4","midi":61,"time":"369.56","velocity":0.2677165354330709,"duration":"0.02"},{"name":"F6","midi":89,"time":"369.56","velocity":0.14960629921259844,"duration":"0.06"},{"name":"G6","midi":91,"time":"369.56","velocity":0.1732283464566929,"duration":"0.03"},{"name":"C7","midi":96,"time":"369.57","velocity":0.14960629921259844,"duration":"0.03"},{"name":"C3","midi":48,"time":"369.58","velocity":0.5118110236220472,"duration":"0.02"},{"name":"D6","midi":86,"time":"369.58","velocity":0.2125984251968504,"duration":"0.05"},{"name":"A#3","midi":58,"time":"369.59","velocity":0.4094488188976378,"duration":"0.02"},{"name":"D#5","midi":75,"time":"369.59","velocity":0.3228346456692913,"duration":"0.08"},{"name":"D#2","midi":39,"time":"369.60","velocity":0.5984251968503937,"duration":"0.01"},{"name":"D3","midi":50,"time":"369.60","velocity":0.5669291338582677,"duration":"0.01"},{"name":"G6","midi":91,"time":"369.60","velocity":0.2047244094488189,"duration":"0.03"},{"name":"F2","midi":41,"time":"369.62","velocity":0.6535433070866141,"duration":"0.01"},{"name":"F#4","midi":66,"time":"369.62","velocity":0.3779527559055118,"duration":"0.02"},{"name":"C7","midi":96,"time":"369.62","velocity":0.16535433070866143,"duration":"0.06"},{"name":"F#2","midi":42,"time":"369.63","velocity":0.5275590551181102,"duration":"0.01"},{"name":"F#3","midi":54,"time":"369.63","velocity":0.5590551181102362,"duration":"0.01"},{"name":"C4","midi":60,"time":"369.63","velocity":0.3228346456692913,"duration":"0.02"},{"name":"A4","midi":69,"time":"369.63","velocity":0.2440944881889764,"duration":"0.02"},{"name":"A5","midi":81,"time":"369.63","velocity":0.5590551181102362,"duration":"1.34"},{"name":"F2","midi":41,"time":"369.64","velocity":0.5196850393700787,"duration":"0.01"},{"name":"F3","midi":53,"time":"369.64","velocity":0.5275590551181102,"duration":"0.01"},{"name":"G#4","midi":68,"time":"369.64","velocity":0.33858267716535434,"duration":"0.02"},{"name":"D6","midi":86,"time":"369.64","velocity":0.3464566929133858,"duration":"0.13"},{"name":"G1","midi":31,"time":"369.65","velocity":0.5433070866141733,"duration":"0.01"},{"name":"E4","midi":64,"time":"369.65","velocity":0.36220472440944884,"duration":"0.13"},{"name":"C6","midi":84,"time":"369.65","velocity":0.2047244094488189,"duration":"0.03"},{"name":"G7","midi":103,"time":"369.65","velocity":0.1889763779527559,"duration":"0.03"},{"name":"F#1","midi":30,"time":"369.66","velocity":0.4881889763779528,"duration":"0.02"},{"name":"A4","midi":69,"time":"369.66","velocity":0.3700787401574803,"duration":"0.19"},{"name":"B5","midi":83,"time":"369.67","velocity":0.29133858267716534,"duration":"0.06"},{"name":"A#3","midi":58,"time":"369.69","velocity":0.3464566929133858,"duration":"0.02"},{"name":"D#6","midi":87,"time":"369.69","velocity":0.2283464566929134,"duration":"0.12"},{"name":"G6","midi":91,"time":"369.69","velocity":0.18110236220472442,"duration":"0.12"},{"name":"A#6","midi":94,"time":"369.69","velocity":0.23622047244094488,"duration":"0.19"},{"name":"B2","midi":47,"time":"369.70","velocity":0.5354330708661418,"duration":"0.15"},{"name":"F#3","midi":54,"time":"369.70","velocity":0.4015748031496063,"duration":"0.02"},{"name":"C6","midi":84,"time":"369.70","velocity":0.30708661417322836,"duration":"0.10"},{"name":"F#3","midi":54,"time":"369.73","velocity":0.44881889763779526,"duration":"0.10"},{"name":"G#5","midi":80,"time":"369.73","velocity":0.2204724409448819,"duration":"0.03"},{"name":"B6","midi":95,"time":"369.74","velocity":0.11023622047244094,"duration":"0.03"},{"name":"F#5","midi":78,"time":"369.78","velocity":0.41732283464566927,"duration":"0.26"},{"name":"G#5","midi":80,"time":"369.78","velocity":0.25984251968503935,"duration":"0.03"},{"name":"D6","midi":86,"time":"369.78","velocity":0.2204724409448819,"duration":"0.05"},{"name":"D4","midi":62,"time":"369.79","velocity":0.3228346456692913,"duration":"0.02"},{"name":"B5","midi":83,"time":"369.79","velocity":0.2992125984251969,"duration":"0.03"},{"name":"F6","midi":89,"time":"369.80","velocity":0.09448818897637795,"duration":"0.09"},{"name":"A1","midi":33,"time":"369.81","velocity":0.3937007874015748,"duration":"0.02"},{"name":"C6","midi":84,"time":"369.81","velocity":0.25984251968503935,"duration":"0.03"},{"name":"E4","midi":64,"time":"369.83","velocity":0.33858267716535434,"duration":"0.03"},{"name":"D#6","midi":87,"time":"369.83","velocity":0.13385826771653545,"duration":"0.03"},{"name":"D5","midi":74,"time":"369.84","velocity":0.18110236220472442,"duration":"0.05"},{"name":"B5","midi":83,"time":"369.84","velocity":0.29133858267716534,"duration":"0.05"},{"name":"G6","midi":91,"time":"369.84","velocity":0.16535433070866143,"duration":"0.03"},{"name":"A#2","midi":46,"time":"369.85","velocity":0.5275590551181102,"duration":"0.01"},{"name":"F#3","midi":54,"time":"369.85","velocity":0.41732283464566927,"duration":"0.02"},{"name":"B2","midi":47,"time":"369.86","velocity":0.5590551181102362,"duration":"0.14"},{"name":"A4","midi":69,"time":"369.86","velocity":0.4330708661417323,"duration":"0.30"},{"name":"D6","midi":86,"time":"369.86","velocity":0.2125984251968504,"duration":"0.03"},{"name":"G#6","midi":92,"time":"369.86","velocity":0.2440944881889764,"duration":"0.16"},{"name":"G7","midi":103,"time":"369.87","velocity":0.23622047244094488,"duration":"0.23"},{"name":"F#3","midi":54,"time":"369.88","velocity":0.4094488188976378,"duration":"0.12"},{"name":"C6","midi":84,"time":"369.88","velocity":0.29133858267716534,"duration":"0.08"},{"name":"G#1","midi":32,"time":"369.90","velocity":0.28346456692913385,"duration":"0.02"},{"name":"A#6","midi":94,"time":"369.90","velocity":0.23622047244094488,"duration":"0.49"},{"name":"D7","midi":98,"time":"369.90","velocity":0.15748031496062992,"duration":"0.09"},{"name":"C2","midi":36,"time":"369.92","velocity":0.3228346456692913,"duration":"0.02"},{"name":"G#5","midi":80,"time":"369.92","velocity":0.1968503937007874,"duration":"0.05"},{"name":"D6","midi":86,"time":"369.92","velocity":0.2677165354330709,"duration":"0.09"},{"name":"D4","midi":62,"time":"369.93","velocity":0.25984251968503935,"duration":"0.02"},{"name":"D#5","midi":75,"time":"369.93","velocity":0.25196850393700787,"duration":"0.06"},{"name":"B5","midi":83,"time":"369.95","velocity":0.1968503937007874,"duration":"0.06"},{"name":"F6","midi":89,"time":"369.95","velocity":0.15748031496062992,"duration":"0.06"},{"name":"C2","midi":36,"time":"369.97","velocity":0.28346456692913385,"duration":"0.02"},{"name":"D4","midi":62,"time":"369.97","velocity":0.25196850393700787,"duration":"0.03"},{"name":"C#6","midi":85,"time":"369.97","velocity":0.2992125984251969,"duration":"0.29"},{"name":"E5","midi":76,"time":"369.98","velocity":0.2755905511811024,"duration":"0.02"},{"name":"C7","midi":96,"time":"369.98","velocity":0.2047244094488189,"duration":"0.14"},{"name":"G6","midi":91,"time":"369.99","velocity":0.1889763779527559,"duration":"0.05"},{"name":"G1","midi":31,"time":"370.00","velocity":0.3543307086614173,"duration":"0.02"},{"name":"D#5","midi":75,"time":"370.00","velocity":0.33858267716535434,"duration":"0.15"},{"name":"C6","midi":84,"time":"370.01","velocity":0.30708661417322836,"duration":"0.07"},{"name":"E6","midi":88,"time":"370.01","velocity":0.2755905511811024,"duration":"0.26"},{"name":"D7","midi":98,"time":"370.01","velocity":0.2755905511811024,"duration":"0.13"},{"name":"A2","midi":45,"time":"370.02","velocity":0.5433070866141733,"duration":"0.02"},{"name":"C4","midi":60,"time":"370.02","velocity":0.41732283464566927,"duration":"0.02"},{"name":"F6","midi":89,"time":"370.02","velocity":0.23622047244094488,"duration":"0.15"},{"name":"D#7","midi":99,"time":"370.02","velocity":0.1968503937007874,"duration":"0.15"},{"name":"F#4","midi":66,"time":"370.03","velocity":0.3228346456692913,"duration":"0.03"},{"name":"F#6","midi":90,"time":"370.03","velocity":0.2755905511811024,"duration":"0.38"},{"name":"G#6","midi":92,"time":"370.03","velocity":0.2677165354330709,"duration":"0.22"},{"name":"B2","midi":47,"time":"370.05","velocity":0.5669291338582677,"duration":"0.33"},{"name":"F#5","midi":78,"time":"370.05","velocity":0.3543307086614173,"duration":"0.21"},{"name":"E4","midi":64,"time":"370.06","velocity":0.3779527559055118,"duration":"0.14"},{"name":"B5","midi":83,"time":"370.06","velocity":0.29133858267716534,"duration":"0.07"},{"name":"F#3","midi":54,"time":"370.07","velocity":0.3937007874015748,"duration":"0.05"},{"name":"G6","midi":91,"time":"370.09","velocity":0.1968503937007874,"duration":"0.12"},{"name":"C6","midi":84,"time":"370.12","velocity":0.2440944881889764,"duration":"0.24"},{"name":"F#3","midi":54,"time":"370.13","velocity":0.4015748031496063,"duration":"0.03"},{"name":"C5","midi":72,"time":"370.14","velocity":0.1889763779527559,"duration":"0.05"},{"name":"G5","midi":79,"time":"370.14","velocity":0.1732283464566929,"duration":"0.05"},{"name":"F#3","midi":54,"time":"370.17","velocity":0.3700787401574803,"duration":"0.02"},{"name":"B5","midi":83,"time":"370.17","velocity":0.13385826771653545,"duration":"0.03"},{"name":"A4","midi":69,"time":"370.19","velocity":0.3858267716535433,"duration":"0.14"},{"name":"D#7","midi":99,"time":"370.20","velocity":0.2047244094488189,"duration":"0.08"},{"name":"F#7","midi":102,"time":"370.20","velocity":0.33858267716535434,"duration":"2.35"},{"name":"F#3","midi":54,"time":"370.21","velocity":0.4015748031496063,"duration":"0.02"},{"name":"E4","midi":64,"time":"370.21","velocity":0.33070866141732286,"duration":"0.02"},{"name":"D#6","midi":87,"time":"370.21","velocity":0.14173228346456693,"duration":"0.17"},{"name":"G6","midi":91,"time":"370.23","velocity":0.2440944881889764,"duration":"0.16"},{"name":"B6","midi":95,"time":"370.23","velocity":0.08661417322834646,"duration":"0.03"},{"name":"B1","midi":35,"time":"370.24","velocity":0.30708661417322836,"duration":"0.09"},{"name":"F#3","midi":54,"time":"370.24","velocity":0.3937007874015748,"duration":"0.07"},{"name":"D4","midi":62,"time":"370.24","velocity":0.3464566929133858,"duration":"0.02"},{"name":"D6","midi":86,"time":"370.24","velocity":0.16535433070866143,"duration":"0.06"},{"name":"D7","midi":98,"time":"370.24","velocity":0.16535433070866143,"duration":"0.09"},{"name":"F#5","midi":78,"time":"370.27","velocity":0.3779527559055118,"duration":"0.44"},{"name":"C#6","midi":85,"time":"370.27","velocity":0.30708661417322836,"duration":"0.12"},{"name":"B6","midi":95,"time":"370.29","velocity":0.15748031496062992,"duration":"0.03"},{"name":"D#7","midi":99,"time":"370.29","velocity":0.2283464566929134,"duration":"0.38"},{"name":"D4","midi":62,"time":"370.30","velocity":0.3543307086614173,"duration":"0.06"},{"name":"F#4","midi":66,"time":"370.31","velocity":0.2992125984251969,"duration":"0.06"},{"name":"G#6","midi":92,"time":"370.31","velocity":0.2047244094488189,"duration":"0.15"},{"name":"F#3","midi":54,"time":"370.33","velocity":0.3700787401574803,"duration":"0.03"},{"name":"C5","midi":72,"time":"370.33","velocity":0.13385826771653545,"duration":"0.05"},{"name":"C#4","midi":61,"time":"370.35","velocity":0.36220472440944884,"duration":"0.02"},{"name":"A4","midi":69,"time":"370.35","velocity":0.47244094488188976,"duration":"0.03"},{"name":"G5","midi":79,"time":"370.36","velocity":0.2677165354330709,"duration":"0.03"},{"name":"B6","midi":95,"time":"370.36","velocity":0.30708661417322836,"duration":"0.73"},{"name":"C3","midi":48,"time":"370.37","velocity":0.48031496062992124,"duration":"0.02"},{"name":"G#3","midi":56,"time":"370.37","velocity":0.49606299212598426,"duration":"0.02"},{"name":"C4","midi":60,"time":"370.37","velocity":0.5275590551181102,"duration":"0.05"},{"name":"D#5","midi":75,"time":"370.37","velocity":0.4409448818897638,"duration":"0.05"},{"name":"D6","midi":86,"time":"370.37","velocity":0.2440944881889764,"duration":"0.08"},{"name":"F6","midi":89,"time":"370.37","velocity":0.25984251968503935,"duration":"0.06"},{"name":"F4","midi":65,"time":"370.38","velocity":0.4645669291338583,"duration":"0.02"},{"name":"G#4","midi":68,"time":"370.38","velocity":0.5590551181102362,"duration":"0.01"},{"name":"A#5","midi":82,"time":"370.38","velocity":0.29133858267716534,"duration":"0.02"},{"name":"C6","midi":84,"time":"370.38","velocity":0.2677165354330709,"duration":"0.06"},{"name":"A#2","midi":46,"time":"370.40","velocity":0.47244094488188976,"duration":"0.02"},{"name":"G3","midi":55,"time":"370.40","velocity":0.5511811023622047,"duration":"0.02"},{"name":"B5","midi":83,"time":"370.41","velocity":0.4251968503937008,"duration":"0.36"},{"name":"B2","midi":47,"time":"370.42","velocity":0.5669291338582677,"duration":"0.36"},{"name":"C#4","midi":61,"time":"370.42","velocity":0.3543307086614173,"duration":"0.02"},{"name":"F4","midi":65,"time":"370.42","velocity":0.4645669291338583,"duration":"0.02"},{"name":"A4","midi":69,"time":"370.42","velocity":0.4645669291338583,"duration":"0.14"},{"name":"B4","midi":71,"time":"370.42","velocity":0.4330708661417323,"duration":"0.03"},{"name":"D5","midi":74,"time":"370.42","velocity":0.25984251968503935,"duration":"0.14"},{"name":"E5","midi":76,"time":"370.42","velocity":0.4330708661417323,"duration":"0.22"},{"name":"G#5","midi":80,"time":"370.42","velocity":0.2992125984251969,"duration":"0.02"},{"name":"A#6","midi":94,"time":"370.42","velocity":0.14960629921259844,"duration":"0.03"},{"name":"E4","midi":64,"time":"370.43","velocity":0.3937007874015748,"duration":"0.02"},{"name":"C#6","midi":85,"time":"370.44","velocity":0.2283464566929134,"duration":"0.03"},{"name":"D#6","midi":87,"time":"370.44","velocity":0.13385826771653545,"duration":"0.06"},{"name":"G6","midi":91,"time":"370.44","velocity":0.2047244094488189,"duration":"0.08"},{"name":"A#3","midi":58,"time":"370.45","velocity":0.3464566929133858,"duration":"0.03"},{"name":"C5","midi":72,"time":"370.45","velocity":0.2992125984251969,"duration":"0.06"},{"name":"F#3","midi":54,"time":"370.47","velocity":0.4645669291338583,"duration":"0.06"},{"name":"E4","midi":64,"time":"370.47","velocity":0.33858267716535434,"duration":"0.03"},{"name":"A#6","midi":94,"time":"370.47","velocity":0.16535433070866143,"duration":"0.14"},{"name":"G#5","midi":80,"time":"370.48","velocity":0.2677165354330709,"duration":"0.03"},{"name":"G7","midi":103,"time":"370.48","velocity":0.23622047244094488,"duration":"0.30"},{"name":"F6","midi":89,"time":"370.49","velocity":0.2283464566929134,"duration":"0.05"},{"name":"E4","midi":64,"time":"370.51","velocity":0.3228346456692913,"duration":"0.13"},{"name":"D#6","midi":87,"time":"370.51","velocity":0.13385826771653545,"duration":"0.03"},{"name":"C#6","midi":85,"time":"370.52","velocity":0.2440944881889764,"duration":"0.06"},{"name":"C7","midi":96,"time":"370.52","velocity":0.1732283464566929,"duration":"0.08"},{"name":"G6","midi":91,"time":"370.53","velocity":0.1732283464566929,"duration":"0.05"},{"name":"G#6","midi":92,"time":"370.53","velocity":0.14960629921259844,"duration":"0.06"},{"name":"F#3","midi":54,"time":"370.55","velocity":0.4409448818897638,"duration":"0.06"},{"name":"B4","midi":71,"time":"370.55","velocity":0.2047244094488189,"duration":"0.05"},{"name":"D6","midi":86,"time":"370.55","velocity":0.28346456692913385,"duration":"0.28"},{"name":"F6","midi":89,"time":"370.55","velocity":0.16535433070866143,"duration":"0.05"},{"name":"A4","midi":69,"time":"370.57","velocity":0.4409448818897638,"duration":"0.26"},{"name":"G#5","midi":80,"time":"370.58","velocity":0.28346456692913385,"duration":"0.07"},{"name":"B1","midi":35,"time":"370.59","velocity":0.25984251968503935,"duration":"0.02"},{"name":"C#6","midi":85,"time":"370.60","velocity":0.2204724409448819,"duration":"0.19"},{"name":"G6","midi":91,"time":"370.60","velocity":0.16535433070866143,"duration":"0.13"},{"name":"C2","midi":36,"time":"370.62","velocity":0.30708661417322836,"duration":"0.02"},{"name":"A#6","midi":94,"time":"370.62","velocity":0.2283464566929134,"duration":"0.12"},{"name":"C7","midi":96,"time":"370.63","velocity":0.2047244094488189,"duration":"0.13"},{"name":"F#3","midi":54,"time":"370.64","velocity":0.3858267716535433,"duration":"0.02"},{"name":"D#5","midi":75,"time":"370.64","velocity":0.2283464566929134,"duration":"0.02"},{"name":"F6","midi":89,"time":"370.64","velocity":0.14173228346456693,"duration":"0.07"},{"name":"E5","midi":76,"time":"370.65","velocity":0.2283464566929134,"duration":"0.02"},{"name":"A#3","midi":58,"time":"370.66","velocity":0.4251968503937008,"duration":"0.02"},{"name":"G#5","midi":80,"time":"370.66","velocity":0.2755905511811024,"duration":"0.06"},{"name":"C2","midi":36,"time":"370.67","velocity":0.28346456692913385,"duration":"0.02"},{"name":"D4","midi":62,"time":"370.67","velocity":0.2755905511811024,"duration":"0.02"},{"name":"F#4","midi":66,"time":"370.67","velocity":0.23622047244094488,"duration":"0.03"},{"name":"E5","midi":76,"time":"370.70","velocity":0.33858267716535434,"duration":"0.09"},{"name":"D#7","midi":99,"time":"370.70","velocity":0.25984251968503935,"duration":"0.49"},{"name":"F#3","midi":54,"time":"370.71","velocity":0.36220472440944884,"duration":"0.02"},{"name":"G5","midi":79,"time":"370.71","velocity":0.2125984251968504,"duration":"0.06"},{"name":"E4","midi":64,"time":"370.72","velocity":0.33070866141732286,"duration":"0.06"},{"name":"F#5","midi":78,"time":"370.72","velocity":0.3228346456692913,"duration":"0.21"},{"name":"A#1","midi":34,"time":"370.74","velocity":0.29133858267716534,"duration":"0.02"},{"name":"F#3","midi":54,"time":"370.74","velocity":0.4409448818897638,"duration":"0.02"},{"name":"D5","midi":74,"time":"370.76","velocity":0.2204724409448819,"duration":"0.05"},{"name":"A#6","midi":94,"time":"370.76","velocity":0.1968503937007874,"duration":"0.14"},{"name":"G#5","midi":80,"time":"370.77","velocity":0.2204724409448819,"duration":"0.08"},{"name":"C6","midi":84,"time":"370.77","velocity":0.2755905511811024,"duration":"0.03"},{"name":"F6","midi":89,"time":"370.77","velocity":0.29133858267716534,"duration":"0.22"},{"name":"A#3","midi":58,"time":"370.78","velocity":0.3543307086614173,"duration":"0.02"},{"name":"F#4","midi":66,"time":"370.78","velocity":0.2755905511811024,"duration":"0.03"},{"name":"G6","midi":91,"time":"370.78","velocity":0.25984251968503935,"duration":"0.21"},{"name":"D3","midi":50,"time":"370.79","velocity":0.5196850393700787,"duration":"0.01"},{"name":"E6","midi":88,"time":"370.79","velocity":0.2755905511811024,"duration":"0.23"},{"name":"C3","midi":48,"time":"370.80","velocity":0.5669291338582677,"duration":"0.01"},{"name":"B4","midi":71,"time":"370.80","velocity":0.3779527559055118,"duration":"0.13"},{"name":"D#5","midi":75,"time":"370.80","velocity":0.23622047244094488,"duration":"0.03"},{"name":"B5","midi":83,"time":"370.80","velocity":0.4094488188976378,"duration":"0.42"},{"name":"C#6","midi":85,"time":"370.80","velocity":0.1732283464566929,"duration":"0.05"},{"name":"G7","midi":103,"time":"370.80","velocity":0.25984251968503935,"duration":"0.10"},{"name":"B2","midi":47,"time":"370.81","velocity":0.5905511811023622,"duration":"0.30"},{"name":"F#3","midi":54,"time":"370.81","velocity":0.3858267716535433,"duration":"0.05"},{"name":"G1","midi":31,"time":"370.83","velocity":0.29133858267716534,"duration":"0.02"},{"name":"E5","midi":76,"time":"370.83","velocity":0.2283464566929134,"duration":"0.02"},{"name":"A4","midi":69,"time":"370.84","velocity":0.4409448818897638,"duration":"0.26"},{"name":"D6","midi":86,"time":"370.84","velocity":0.2992125984251969,"duration":"0.12"},{"name":"A#3","midi":58,"time":"370.85","velocity":0.33070866141732286,"duration":"0.02"},{"name":"F#4","midi":66,"time":"370.86","velocity":0.1968503937007874,"duration":"0.05"},{"name":"E5","midi":76,"time":"370.87","velocity":0.36220472440944884,"duration":"0.63"},{"name":"E4","midi":64,"time":"370.88","velocity":0.1732283464566929,"duration":"0.05"},{"name":"D#5","midi":75,"time":"370.88","velocity":0.2283464566929134,"duration":"0.05"},{"name":"F#3","midi":54,"time":"370.91","velocity":0.3228346456692913,"duration":"0.05"},{"name":"A#6","midi":94,"time":"370.91","velocity":0.2283464566929134,"duration":"0.17"},{"name":"C#6","midi":85,"time":"370.92","velocity":0.2992125984251969,"duration":"0.05"},{"name":"C7","midi":96,"time":"370.92","velocity":0.1732283464566929,"duration":"0.07"},{"name":"C5","midi":72,"time":"370.93","velocity":0.2677165354330709,"duration":"0.03"},{"name":"G#5","midi":80,"time":"370.94","velocity":0.23622047244094488,"duration":"0.05"},{"name":"F#6","midi":90,"time":"370.94","velocity":0.23622047244094488,"duration":"0.22"},{"name":"G5","midi":79,"time":"370.95","velocity":0.16535433070866143,"duration":"0.03"},{"name":"D#6","midi":87,"time":"370.95","velocity":0.12598425196850394,"duration":"0.08"},{"name":"F#3","midi":54,"time":"370.97","velocity":0.3228346456692913,"duration":"0.02"},{"name":"E4","midi":64,"time":"370.97","velocity":0.28346456692913385,"duration":"0.03"},{"name":"D6","midi":86,"time":"370.97","velocity":0.1968503937007874,"duration":"0.03"},{"name":"A5","midi":81,"time":"370.98","velocity":0.48031496062992124,"duration":"1.10"},{"name":"F7","midi":101,"time":"370.99","velocity":0.1968503937007874,"duration":"0.28"},{"name":"G7","midi":103,"time":"370.99","velocity":0.1732283464566929,"duration":"0.26"},{"name":"C#6","midi":85,"time":"371.00","velocity":0.25196850393700787,"duration":"0.08"},{"name":"D4","midi":62,"time":"371.01","velocity":0.2992125984251969,"duration":"0.02"},{"name":"D6","midi":86,"time":"371.01","velocity":0.25984251968503935,"duration":"0.09"},{"name":"G6","midi":91,"time":"371.01","velocity":0.25196850393700787,"duration":"0.12"},{"name":"F#5","midi":78,"time":"371.02","velocity":0.30708661417322836,"duration":"0.29"},{"name":"G#5","midi":80,"time":"371.02","velocity":0.25196850393700787,"duration":"0.08"},{"name":"C7","midi":96,"time":"371.02","velocity":0.2204724409448819,"duration":"0.14"},{"name":"B4","midi":71,"time":"371.03","velocity":0.2992125984251969,"duration":"0.09"},{"name":"E6","midi":88,"time":"371.03","velocity":0.3858267716535433,"duration":"0.85"},{"name":"D4","midi":62,"time":"371.05","velocity":0.2440944881889764,"duration":"0.03"},{"name":"F#4","midi":66,"time":"371.05","velocity":0.4566929133858268,"duration":"0.13"},{"name":"C#6","midi":85,"time":"371.09","velocity":0.13385826771653545,"duration":"0.05"},{"name":"G2","midi":43,"time":"371.12","velocity":0.5669291338582677,"duration":"0.01"},{"name":"C3","midi":48,"time":"371.12","velocity":0.5354330708661418,"duration":"0.01"},{"name":"C#4","midi":61,"time":"371.12","velocity":0.2755905511811024,"duration":"0.02"},{"name":"A#4","midi":70,"time":"371.12","velocity":0.4330708661417323,"duration":"0.02"},{"name":"D6","midi":86,"time":"371.12","velocity":0.1968503937007874,"duration":"0.08"},{"name":"D#6","midi":87,"time":"371.12","velocity":0.18110236220472442,"duration":"0.08"},{"name":"F2","midi":41,"time":"371.13","velocity":0.6535433070866141,"duration":"0.01"},{"name":"C6","midi":84,"time":"371.13","velocity":0.2204724409448819,"duration":"0.03"},{"name":"F6","midi":89,"time":"371.13","velocity":0.12598425196850394,"duration":"0.06"},{"name":"A#6","midi":94,"time":"371.13","velocity":0.25196850393700787,"duration":"0.69"},{"name":"G2","midi":43,"time":"371.14","velocity":0.6141732283464567,"duration":"0.01"},{"name":"A4","midi":69,"time":"371.14","velocity":0.5118110236220472,"duration":"0.72"},{"name":"B4","midi":71,"time":"371.14","velocity":0.25984251968503935,"duration":"0.05"},{"name":"F#2","midi":42,"time":"371.15","velocity":0.5118110236220472,"duration":"0.01"},{"name":"D#4","midi":63,"time":"371.15","velocity":0.23622047244094488,"duration":"0.02"},{"name":"C#6","midi":85,"time":"371.15","velocity":0.31496062992125984,"duration":"0.67"},{"name":"F1","midi":29,"time":"371.16","velocity":0.5905511811023622,"duration":"0.01"},{"name":"G6","midi":91,"time":"371.16","velocity":0.25984251968503935,"duration":"0.22"},{"name":"F#1","midi":30,"time":"371.17","velocity":0.6141732283464567,"duration":"0.01"},{"name":"G3","midi":55,"time":"371.17","velocity":0.36220472440944884,"duration":"0.02"},{"name":"F4","midi":65,"time":"371.17","velocity":0.2440944881889764,"duration":"0.02"},{"name":"G#5","midi":80,"time":"371.17","velocity":0.30708661417322836,"duration":"0.20"},{"name":"B1","midi":35,"time":"371.19","velocity":0.5511811023622047,"duration":"0.01"},{"name":"C5","midi":72,"time":"371.19","velocity":0.2125984251968504,"duration":"0.03"},{"name":"D#7","midi":99,"time":"371.20","velocity":0.13385826771653545,"duration":"0.05"},{"name":"A#2","midi":46,"time":"371.21","velocity":0.5275590551181102,"duration":"0.02"},{"name":"E4","midi":64,"time":"371.21","velocity":0.25196850393700787,"duration":"0.07"},{"name":"C6","midi":84,"time":"371.22","velocity":0.15748031496062992,"duration":"0.05"},{"name":"D#6","midi":87,"time":"371.22","velocity":0.1732283464566929,"duration":"0.07"},{"name":"C7","midi":96,"time":"371.22","velocity":0.1732283464566929,"duration":"0.20"},{"name":"C3","midi":48,"time":"371.23","velocity":0.5354330708661418,"duration":"0.01"},{"name":"B5","midi":83,"time":"371.23","velocity":0.41732283464566927,"duration":"1.03"},{"name":"D6","midi":86,"time":"371.23","velocity":0.15748031496062992,"duration":"0.10"},{"name":"B2","midi":47,"time":"371.24","velocity":0.5590551181102362,"duration":"0.05"},{"name":"F#3","midi":54,"time":"371.24","velocity":0.4251968503937008,"duration":"0.09"},{"name":"F6","midi":89,"time":"371.24","velocity":0.09448818897637795,"duration":"0.03"},{"name":"B1","midi":35,"time":"371.26","velocity":0.3543307086614173,"duration":"0.02"},{"name":"G#1","midi":32,"time":"371.28","velocity":0.3700787401574803,"duration":"0.02"},{"name":"C#5","midi":73,"time":"371.28","velocity":0.11023622047244094,"duration":"0.03"},{"name":"A#2","midi":46,"time":"371.29","velocity":0.5118110236220472,"duration":"0.01"},{"name":"E4","midi":64,"time":"371.29","velocity":0.3937007874015748,"duration":"0.20"},{"name":"B2","midi":47,"time":"371.30","velocity":0.5826771653543307,"duration":"0.19"},{"name":"A#3","midi":58,"time":"371.30","velocity":0.25196850393700787,"duration":"0.02"},{"name":"B4","midi":71,"time":"371.33","velocity":0.29133858267716534,"duration":"0.05"},{"name":"F7","midi":101,"time":"371.33","velocity":0.08661417322834646,"duration":"0.10"},{"name":"A#1","midi":34,"time":"371.34","velocity":0.4015748031496063,"duration":"0.03"},{"name":"F#5","midi":78,"time":"371.34","velocity":0.25984251968503935,"duration":"0.14"},{"name":"D#6","midi":87,"time":"371.34","velocity":0.10236220472440945,"duration":"0.09"},{"name":"F#3","midi":54,"time":"371.35","velocity":0.4645669291338583,"duration":"0.05"},{"name":"C#5","midi":73,"time":"371.35","velocity":0.1968503937007874,"duration":"0.05"},{"name":"D#7","midi":99,"time":"371.36","velocity":0.2755905511811024,"duration":"0.17"},{"name":"F6","midi":89,"time":"371.37","velocity":0.13385826771653545,"duration":"0.05"},{"name":"G#6","midi":92,"time":"371.37","velocity":0.11023622047244094,"duration":"0.07"},{"name":"A#1","midi":34,"time":"371.38","velocity":0.3543307086614173,"duration":"0.02"},{"name":"F#3","midi":54,"time":"371.41","velocity":0.4251968503937008,"duration":"0.06"},{"name":"G#5","midi":80,"time":"371.41","velocity":0.2677165354330709,"duration":"0.08"},{"name":"B1","midi":35,"time":"371.42","velocity":0.25984251968503935,"duration":"0.02"},{"name":"A#1","midi":34,"time":"371.45","velocity":0.3464566929133858,"duration":"0.02"},{"name":"G#6","midi":92,"time":"371.45","velocity":0.2677165354330709,"duration":"0.41"},{"name":"C7","midi":96,"time":"371.47","velocity":0.2125984251968504,"duration":"0.33"},{"name":"F#4","midi":66,"time":"371.48","velocity":0.4094488188976378,"duration":"0.02"},{"name":"C5","midi":72,"time":"371.48","velocity":0.33070866141732286,"duration":"0.05"},{"name":"G5","midi":79,"time":"371.48","velocity":0.25984251968503935,"duration":"0.02"},{"name":"D#6","midi":87,"time":"371.48","velocity":0.14173228346456693,"duration":"0.03"},{"name":"F7","midi":101,"time":"371.48","velocity":0.23622047244094488,"duration":"0.29"},{"name":"F#2","midi":42,"time":"371.49","velocity":0.5984251968503937,"duration":"0.01"},{"name":"D4","midi":62,"time":"371.49","velocity":0.4015748031496063,"duration":"0.03"},{"name":"D7","midi":98,"time":"371.49","velocity":0.25984251968503935,"duration":"0.90"},{"name":"F2","midi":41,"time":"371.50","velocity":0.6220472440944882,"duration":"0.01"},{"name":"A#3","midi":58,"time":"371.50","velocity":0.36220472440944884,"duration":"0.02"},{"name":"F4","midi":65,"time":"371.50","velocity":0.3464566929133858,"duration":"0.03"},{"name":"D#5","midi":75,"time":"371.50","velocity":0.29133858267716534,"duration":"0.02"},{"name":"F#5","midi":78,"time":"371.50","velocity":0.33858267716535434,"duration":"0.28"},{"name":"F6","midi":89,"time":"371.50","velocity":0.1968503937007874,"duration":"0.10"},{"name":"C3","midi":48,"time":"371.51","velocity":0.5354330708661418,"duration":"0.02"},{"name":"F#3","midi":54,"time":"371.51","velocity":0.3779527559055118,"duration":"0.02"},{"name":"E5","midi":76,"time":"371.51","velocity":0.3464566929133858,"duration":"0.36"},{"name":"B4","midi":71,"time":"371.52","velocity":0.3464566929133858,"duration":"0.08"},{"name":"G#2","midi":44,"time":"371.53","velocity":0.5039370078740157,"duration":"0.02"},{"name":"E4","midi":64,"time":"371.53","velocity":0.4330708661417323,"duration":"0.33"},{"name":"D5","midi":74,"time":"371.53","velocity":0.31496062992125984,"duration":"0.34"},{"name":"G5","midi":79,"time":"371.53","velocity":0.23622047244094488,"duration":"0.02"},{"name":"D#6","midi":87,"time":"371.53","velocity":0.09448818897637795,"duration":"0.03"},{"name":"D#7","midi":99,"time":"371.55","velocity":0.23622047244094488,"duration":"0.29"},{"name":"B2","midi":47,"time":"371.56","velocity":0.5511811023622047,"duration":"0.01"},{"name":"F#3","midi":54,"time":"371.56","velocity":0.4330708661417323,"duration":"0.03"},{"name":"G#5","midi":80,"time":"371.56","velocity":0.2440944881889764,"duration":"0.02"},{"name":"A#2","midi":46,"time":"371.57","velocity":0.5118110236220472,"duration":"0.02"},{"name":"B2","midi":47,"time":"371.59","velocity":0.4881889763779528,"duration":"0.02"},{"name":"D#6","midi":87,"time":"371.59","velocity":0.08661417322834646,"duration":"0.05"},{"name":"A#5","midi":82,"time":"371.60","velocity":0.15748031496062992,"duration":"0.03"},{"name":"A#2","midi":46,"time":"371.62","velocity":0.5196850393700787,"duration":"0.01"},{"name":"F#3","midi":54,"time":"371.62","velocity":0.4409448818897638,"duration":"0.17"},{"name":"B4","midi":71,"time":"371.62","velocity":0.33070866141732286,"duration":"0.08"},{"name":"F6","midi":89,"time":"371.62","velocity":0.15748031496062992,"duration":"0.03"},{"name":"B2","midi":47,"time":"371.63","velocity":0.5590551181102362,"duration":"0.23"},{"name":"G6","midi":91,"time":"371.63","velocity":0.2677165354330709,"duration":"0.12"},{"name":"D#6","midi":87,"time":"371.67","velocity":0.14173228346456693,"duration":"0.08"},{"name":"G#5","midi":80,"time":"371.70","velocity":0.18110236220472442,"duration":"0.05"},{"name":"B1","midi":35,"time":"371.73","velocity":0.3543307086614173,"duration":"0.02"},{"name":"B4","midi":71,"time":"371.74","velocity":0.2440944881889764,"duration":"0.02"},{"name":"G7","midi":103,"time":"371.77","velocity":0.14960629921259844,"duration":"0.06"},{"name":"G5","midi":79,"time":"371.78","velocity":0.1889763779527559,"duration":"0.05"},{"name":"F#5","midi":78,"time":"371.79","velocity":0.2755905511811024,"duration":"0.08"},{"name":"F7","midi":101,"time":"371.79","velocity":0.2677165354330709,"duration":"0.35"},{"name":"F#3","midi":54,"time":"371.80","velocity":0.4094488188976378,"duration":"0.03"},{"name":"G6","midi":91,"time":"371.80","velocity":0.2440944881889764,"duration":"0.10"},{"name":"C7","midi":96,"time":"371.80","velocity":0.25984251968503935,"duration":"0.28"},{"name":"D6","midi":86,"time":"371.83","velocity":0.33070866141732286,"duration":"0.15"},{"name":"A#6","midi":94,"time":"371.83","velocity":0.25984251968503935,"duration":"0.15"},{"name":"F3","midi":53,"time":"371.84","velocity":0.4251968503937008,"duration":"0.02"},{"name":"D#6","midi":87,"time":"371.84","velocity":0.2677165354330709,"duration":"0.03"},{"name":"D#7","midi":99,"time":"371.85","velocity":0.3464566929133858,"duration":"2.24"},{"name":"G#4","midi":68,"time":"371.86","velocity":0.5196850393700787,"duration":"0.02"},{"name":"A#4","midi":70,"time":"371.86","velocity":0.48031496062992124,"duration":"0.07"},{"name":"C#5","midi":73,"time":"371.86","velocity":0.3779527559055118,"duration":"0.05"},{"name":"G#5","midi":80,"time":"371.86","velocity":0.5354330708661418,"duration":"3.28"},{"name":"F6","midi":89,"time":"371.86","velocity":0.25984251968503935,"duration":"0.16"},{"name":"D4","midi":62,"time":"371.87","velocity":0.5275590551181102,"duration":"0.01"},{"name":"D#5","midi":75,"time":"371.87","velocity":0.4015748031496063,"duration":"0.07"},{"name":"F5","midi":77,"time":"371.87","velocity":0.3464566929133858,"duration":"0.02"},{"name":"F#4","midi":66,"time":"371.88","velocity":0.44881889763779526,"duration":"0.02"},{"name":"B2","midi":47,"time":"371.90","velocity":0.5275590551181102,"duration":"0.35"},{"name":"C5","midi":72,"time":"371.90","velocity":0.28346456692913385,"duration":"0.08"},{"name":"E6","midi":88,"time":"371.90","velocity":0.33070866141732286,"duration":"0.60"},{"name":"F#3","midi":54,"time":"371.92","velocity":0.47244094488188976,"duration":"0.09"},{"name":"A#3","midi":58,"time":"371.92","velocity":0.4251968503937008,"duration":"0.03"},{"name":"D5","midi":74,"time":"371.92","velocity":0.28346456692913385,"duration":"0.06"},{"name":"G6","midi":91,"time":"371.92","velocity":0.14960629921259844,"duration":"0.05"},{"name":"G#4","midi":68,"time":"371.93","velocity":0.4409448818897638,"duration":"0.21"},{"name":"E4","midi":64,"time":"371.94","velocity":0.4015748031496063,"duration":"0.09"},{"name":"C#6","midi":85,"time":"371.95","velocity":0.28346456692913385,"duration":"0.06"},{"name":"A#3","midi":58,"time":"371.97","velocity":0.3543307086614173,"duration":"0.02"},{"name":"D#6","midi":87,"time":"371.97","velocity":0.2992125984251969,"duration":"0.08"},{"name":"A#1","midi":34,"time":"371.98","velocity":0.2992125984251969,"duration":"0.02"},{"name":"B4","midi":71,"time":"371.98","velocity":0.33070866141732286,"duration":"0.08"},{"name":"G6","midi":91,"time":"371.98","velocity":0.14960629921259844,"duration":"0.06"},{"name":"D#5","midi":75,"time":"371.99","velocity":0.28346456692913385,"duration":"0.06"},{"name":"D6","midi":86,"time":"371.99","velocity":0.25196850393700787,"duration":"0.20"},{"name":"A#3","midi":58,"time":"372.01","velocity":0.47244094488188976,"duration":"0.05"},{"name":"A#6","midi":94,"time":"372.01","velocity":0.23622047244094488,"duration":"0.15"},{"name":"A#1","midi":34,"time":"372.02","velocity":0.2992125984251969,"duration":"0.02"},{"name":"F#3","midi":54,"time":"372.02","velocity":0.4330708661417323,"duration":"0.03"},{"name":"D5","midi":74,"time":"372.02","velocity":0.25196850393700787,"duration":"0.03"},{"name":"E5","midi":76,"time":"372.03","velocity":0.2755905511811024,"duration":"0.07"},{"name":"F6","midi":89,"time":"372.03","velocity":0.11811023622047244,"duration":"0.06"},{"name":"B1","midi":35,"time":"372.05","velocity":0.3700787401574803,"duration":"0.09"},{"name":"E4","midi":64,"time":"372.05","velocity":0.3464566929133858,"duration":"0.03"},{"name":"C#6","midi":85,"time":"372.05","velocity":0.33070866141732286,"duration":"0.21"},{"name":"G6","midi":91,"time":"372.05","velocity":0.2047244094488189,"duration":"0.09"},{"name":"D#6","midi":87,"time":"372.06","velocity":0.3700787401574803,"duration":"0.76"},{"name":"D4","midi":62,"time":"372.09","velocity":0.29133858267716534,"duration":"0.05"},{"name":"B4","midi":71,"time":"372.09","velocity":0.14173228346456693,"duration":"0.03"},{"name":"D#5","midi":75,"time":"372.09","velocity":0.30708661417322836,"duration":"0.10"},{"name":"C7","midi":96,"time":"372.09","velocity":0.30708661417322836,"duration":"0.66"},{"name":"G7","midi":103,"time":"372.09","velocity":0.2047244094488189,"duration":"0.07"},{"name":"A#3","midi":58,"time":"372.12","velocity":0.47244094488188976,"duration":"0.05"},{"name":"F#3","midi":54,"time":"372.13","velocity":0.3543307086614173,"duration":"0.02"},{"name":"D4","midi":62,"time":"372.15","velocity":0.33858267716535434,"duration":"0.10"},{"name":"G#4","midi":68,"time":"372.15","velocity":0.2677165354330709,"duration":"0.02"},{"name":"A4","midi":69,"time":"372.16","velocity":0.3937007874015748,"duration":"0.02"},{"name":"G6","midi":91,"time":"372.16","velocity":0.25196850393700787,"duration":"0.12"},{"name":"B1","midi":35,"time":"372.17","velocity":0.31496062992125984,"duration":"0.03"},{"name":"F#3","midi":54,"time":"372.17","velocity":0.4094488188976378,"duration":"0.02"},{"name":"G#4","midi":68,"time":"372.19","velocity":0.4094488188976378,"duration":"0.03"},{"name":"E5","midi":76,"time":"372.19","velocity":0.2677165354330709,"duration":"0.07"},{"name":"A#6","midi":94,"time":"372.20","velocity":0.2047244094488189,"duration":"0.20"},{"name":"D6","midi":86,"time":"372.21","velocity":0.2755905511811024,"duration":"0.15"},{"name":"A4","midi":69,"time":"372.22","velocity":0.44881889763779526,"duration":"0.07"},{"name":"F6","midi":89,"time":"372.22","velocity":0.2283464566929134,"duration":"0.05"},{"name":"C#5","midi":73,"time":"372.24","velocity":0.2204724409448819,"duration":"0.03"},{"name":"F3","midi":53,"time":"372.26","velocity":0.29133858267716534,"duration":"0.02"},{"name":"C4","midi":60,"time":"372.26","velocity":0.3228346456692913,"duration":"0.02"},{"name":"D#5","midi":75,"time":"372.26","velocity":0.3700787401574803,"duration":"0.12"},{"name":"A2","midi":45,"time":"372.27","velocity":0.5196850393700787,"duration":"0.01"},{"name":"F#4","midi":66,"time":"372.27","velocity":0.3228346456692913,"duration":"0.09"},{"name":"C6","midi":84,"time":"372.27","velocity":0.3858267716535433,"duration":"0.06"},{"name":"B2","midi":47,"time":"372.28","velocity":0.5748031496062992,"duration":"0.30"},{"name":"F#3","midi":54,"time":"372.28","velocity":0.4566929133858268,"duration":"0.08"},{"name":"B5","midi":83,"time":"372.28","velocity":0.41732283464566927,"duration":"0.28"},{"name":"C#6","midi":85,"time":"372.28","velocity":0.25984251968503935,"duration":"0.09"},{"name":"B4","midi":71,"time":"372.29","velocity":0.3228346456692913,"duration":"0.03"},{"name":"G#1","midi":32,"time":"372.30","velocity":0.33858267716535434,"duration":"0.02"},{"name":"F6","midi":89,"time":"372.30","velocity":0.1889763779527559,"duration":"0.05"},{"name":"D4","midi":62,"time":"372.31","velocity":0.2755905511811024,"duration":"0.02"},{"name":"C2","midi":36,"time":"372.33","velocity":0.2992125984251969,"duration":"0.02"},{"name":"C5","midi":72,"time":"372.33","velocity":0.25196850393700787,"duration":"0.05"},{"name":"A5","midi":81,"time":"372.34","velocity":0.2992125984251969,"duration":"0.06"},{"name":"G6","midi":91,"time":"372.34","velocity":0.14960629921259844,"duration":"0.06"},{"name":"A#3","midi":58,"time":"372.35","velocity":0.3543307086614173,"duration":"0.02"},{"name":"E4","midi":64,"time":"372.35","velocity":0.3543307086614173,"duration":"0.03"},{"name":"A4","midi":69,"time":"372.35","velocity":0.36220472440944884,"duration":"0.08"},{"name":"F7","midi":101,"time":"372.36","velocity":0.23622047244094488,"duration":"0.42"},{"name":"B1","midi":35,"time":"372.37","velocity":0.29133858267716534,"duration":"0.02"},{"name":"F#3","midi":54,"time":"372.37","velocity":0.4330708661417323,"duration":"0.12"},{"name":"C#6","midi":85,"time":"372.38","velocity":0.2677165354330709,"duration":"0.07"},{"name":"C5","midi":72,"time":"372.40","velocity":0.28346456692913385,"duration":"0.02"},{"name":"D5","midi":74,"time":"372.40","velocity":0.33070866141732286,"duration":"0.05"},{"name":"A#6","midi":94,"time":"372.41","velocity":0.14960629921259844,"duration":"0.09"},{"name":"G7","midi":103,"time":"372.41","velocity":0.1732283464566929,"duration":"0.12"},{"name":"C5","midi":72,"time":"372.43","velocity":0.2283464566929134,"duration":"0.09"},{"name":"D#5","midi":75,"time":"372.43","velocity":0.3937007874015748,"duration":"0.10"},{"name":"G6","midi":91,"time":"372.43","velocity":0.2755905511811024,"duration":"0.14"},{"name":"A6","midi":93,"time":"372.43","velocity":0.2283464566929134,"duration":"0.10"},{"name":"E4","midi":64,"time":"372.44","velocity":0.2677165354330709,"duration":"0.03"},{"name":"G#4","midi":68,"time":"372.44","velocity":0.3779527559055118,"duration":"0.02"},{"name":"C#6","midi":85,"time":"372.47","velocity":0.28346456692913385,"duration":"0.08"},{"name":"D6","midi":86,"time":"372.48","velocity":0.2440944881889764,"duration":"0.05"},{"name":"A#1","midi":34,"time":"372.49","velocity":0.30708661417322836,"duration":"0.02"},{"name":"E4","midi":64,"time":"372.49","velocity":0.2992125984251969,"duration":"0.03"},{"name":"A4","midi":69,"time":"372.49","velocity":0.3464566929133858,"duration":"0.05"},{"name":"F#5","midi":78,"time":"372.50","velocity":0.2440944881889764,"duration":"0.05"},{"name":"B1","midi":35,"time":"372.51","velocity":0.30708661417322836,"duration":"0.02"},{"name":"F#3","midi":54,"time":"372.52","velocity":0.41732283464566927,"duration":"0.05"},{"name":"G#4","midi":68,"time":"372.52","velocity":0.4094488188976378,"duration":"0.02"},{"name":"C#5","midi":73,"time":"372.52","velocity":0.14173228346456693,"duration":"0.03"},{"name":"E5","midi":76,"time":"372.52","velocity":0.3228346456692913,"duration":"0.12"},{"name":"A#1","midi":34,"time":"372.53","velocity":0.2440944881889764,"duration":"0.02"},{"name":"E4","midi":64,"time":"372.53","velocity":0.3937007874015748,"duration":"0.08"},{"name":"D6","midi":86,"time":"372.53","velocity":0.2755905511811024,"duration":"0.10"},{"name":"A#6","midi":94,"time":"372.53","velocity":0.2047244094488189,"duration":"0.12"},{"name":"A6","midi":93,"time":"372.55","velocity":0.2440944881889764,"duration":"0.08"},{"name":"G#4","midi":68,"time":"372.56","velocity":0.4409448818897638,"duration":"0.14"},{"name":"F#5","midi":78,"time":"372.56","velocity":0.3228346456692913,"duration":"0.10"},{"name":"A5","midi":81,"time":"372.57","velocity":0.28346456692913385,"duration":"0.05"},{"name":"B5","midi":83,"time":"372.57","velocity":0.3700787401574803,"duration":"0.38"},{"name":"C3","midi":48,"time":"372.58","velocity":0.5826771653543307,"duration":"0.01"},{"name":"C#6","midi":85,"time":"372.58","velocity":0.2283464566929134,"duration":"0.05"},{"name":"G7","midi":103,"time":"372.58","velocity":0.1968503937007874,"duration":"0.05"},{"name":"C#3","midi":49,"time":"372.59","velocity":0.5118110236220472,"duration":"0.01"},{"name":"D2","midi":38,"time":"372.60","velocity":0.5118110236220472,"duration":"0.01"},{"name":"D4","midi":62,"time":"372.60","velocity":0.33070866141732286,"duration":"0.02"},{"name":"C5","midi":72,"time":"372.60","velocity":0.2440944881889764,"duration":"0.02"},{"name":"D#5","midi":75,"time":"372.60","velocity":0.2755905511811024,"duration":"0.05"},{"name":"G6","midi":91,"time":"372.60","velocity":0.16535433070866143,"duration":"0.03"},{"name":"E2","midi":40,"time":"372.62","velocity":0.6299212598425197,"duration":"0.01"},{"name":"F#4","midi":66,"time":"372.62","velocity":0.3779527559055118,"duration":"0.03"},{"name":"A#5","midi":82,"time":"372.62","velocity":0.2204724409448819,"duration":"0.07"},{"name":"F6","midi":89,"time":"372.62","velocity":0.14173228346456693,"duration":"0.08"},{"name":"G#2","midi":44,"time":"372.63","velocity":0.5905511811023622,"duration":"0.01"},{"name":"B4","midi":71,"time":"372.63","velocity":0.3464566929133858,"duration":"0.02"},{"name":"C3","midi":48,"time":"372.64","velocity":0.5118110236220472,"duration":"0.01"},{"name":"C#6","midi":85,"time":"372.64","velocity":0.2677165354330709,"duration":"0.05"},{"name":"A6","midi":93,"time":"372.64","velocity":0.2125984251968504,"duration":"0.08"},{"name":"F1","midi":29,"time":"372.65","velocity":0.47244094488188976,"duration":"0.02"},{"name":"C#3","midi":49,"time":"372.65","velocity":0.5196850393700787,"duration":"0.01"},{"name":"D7","midi":98,"time":"372.65","velocity":0.25984251968503935,"duration":"0.29"},{"name":"D3","midi":50,"time":"372.66","velocity":0.5590551181102362,"duration":"0.01"},{"name":"G6","midi":91,"time":"372.66","velocity":0.14960629921259844,"duration":"0.03"},{"name":"C2","midi":36,"time":"372.67","velocity":0.5039370078740157,"duration":"0.02"},{"name":"C#3","midi":49,"time":"372.67","velocity":0.5826771653543307,"duration":"0.01"},{"name":"A3","midi":57,"time":"372.67","velocity":0.30708661417322836,"duration":"0.02"},{"name":"F#5","midi":78,"time":"372.67","velocity":0.2204724409448819,"duration":"0.06"},{"name":"D6","midi":86,"time":"372.67","velocity":0.33070866141732286,"duration":"0.19"},{"name":"A#6","midi":94,"time":"372.67","velocity":0.25196850393700787,"duration":"0.33"},{"name":"C3","midi":48,"time":"372.69","velocity":0.5905511811023622,"duration":"0.01"},{"name":"C#3","midi":49,"time":"372.70","velocity":0.5748031496062992,"duration":"0.27"},{"name":"E4","midi":64,"time":"372.70","velocity":0.2283464566929134,"duration":"0.02"},{"name":"A4","midi":69,"time":"372.70","velocity":0.2283464566929134,"duration":"0.03"},{"name":"B4","midi":71,"time":"372.70","velocity":0.3779527559055118,"duration":"0.34"},{"name":"F#7","midi":102,"time":"372.70","velocity":0.2992125984251969,"duration":"1.34"},{"name":"E5","midi":76,"time":"372.71","velocity":0.3464566929133858,"duration":"0.19"},{"name":"E4","midi":64,"time":"372.73","velocity":0.3858267716535433,"duration":"0.28"},{"name":"G#4","midi":68,"time":"372.73","velocity":0.49606299212598426,"duration":"0.59"},{"name":"G#3","midi":56,"time":"372.74","velocity":0.2992125984251969,"duration":"0.02"},{"name":"C#5","midi":73,"time":"372.74","velocity":0.2125984251968504,"duration":"0.10"},{"name":"F#5","midi":78,"time":"372.74","velocity":0.2204724409448819,"duration":"0.13"},{"name":"G#1","midi":32,"time":"372.76","velocity":0.3464566929133858,"duration":"0.02"},{"name":"A6","midi":93,"time":"372.78","velocity":0.1732283464566929,"duration":"0.16"},{"name":"C#6","midi":85,"time":"372.79","velocity":0.31496062992125984,"duration":"0.27"},{"name":"G#3","midi":56,"time":"372.80","velocity":0.3937007874015748,"duration":"0.14"},{"name":"C7","midi":96,"time":"372.81","velocity":0.2440944881889764,"duration":"0.35"},{"name":"F7","midi":101,"time":"372.81","velocity":0.18110236220472442,"duration":"0.13"},{"name":"G6","midi":91,"time":"372.83","velocity":0.2125984251968504,"duration":"0.09"},{"name":"D#6","midi":87,"time":"372.84","velocity":0.33858267716535434,"duration":"0.51"},{"name":"A5","midi":81,"time":"372.85","velocity":0.1889763779527559,"duration":"0.03"},{"name":"D#5","midi":75,"time":"372.88","velocity":0.3543307086614173,"duration":"0.07"},{"name":"F#5","midi":78,"time":"372.90","velocity":0.12598425196850394,"duration":"0.06"},{"name":"C#5","midi":73,"time":"372.91","velocity":0.28346456692913385,"duration":"0.20"},{"name":"A5","midi":81,"time":"372.92","velocity":0.1889763779527559,"duration":"0.03"},{"name":"F#6","midi":90,"time":"372.92","velocity":0.2283464566929134,"duration":"0.09"},{"name":"C2","midi":36,"time":"372.93","velocity":0.31496062992125984,"duration":"0.02"},{"name":"C6","midi":84,"time":"372.95","velocity":0.2047244094488189,"duration":"0.08"},{"name":"D3","midi":50,"time":"372.97","velocity":0.5511811023622047,"duration":"0.03"},{"name":"F#5","midi":78,"time":"372.97","velocity":0.16535433070866143,"duration":"0.03"},{"name":"B6","midi":95,"time":"372.97","velocity":0.14960629921259844,"duration":"0.07"},{"name":"D7","midi":98,"time":"372.97","velocity":0.2204724409448819,"duration":"0.10"},{"name":"G7","midi":103,"time":"372.97","velocity":0.2047244094488189,"duration":"0.13"},{"name":"A6","midi":93,"time":"372.98","velocity":0.11023622047244094,"duration":"0.05"},{"name":"F6","midi":89,"time":"372.99","velocity":0.16535433070866143,"duration":"0.06"},{"name":"G6","midi":91,"time":"372.99","velocity":0.1889763779527559,"duration":"0.05"},{"name":"E2","midi":40,"time":"373.00","velocity":0.4330708661417323,"duration":"0.02"},{"name":"C#3","midi":49,"time":"373.00","velocity":0.5590551181102362,"duration":"0.35"},{"name":"D6","midi":86,"time":"373.00","velocity":0.2047244094488189,"duration":"0.08"},{"name":"F7","midi":101,"time":"373.00","velocity":0.23622047244094488,"duration":"0.26"},{"name":"G#3","midi":56,"time":"373.01","velocity":0.3858267716535433,"duration":"0.07"},{"name":"F#5","midi":78,"time":"373.01","velocity":0.2992125984251969,"duration":"0.08"},{"name":"A#6","midi":94,"time":"373.01","velocity":0.28346456692913385,"duration":"0.48"},{"name":"D4","midi":62,"time":"373.02","velocity":0.31496062992125984,"duration":"0.02"},{"name":"D#5","midi":75,"time":"373.03","velocity":0.2755905511811024,"duration":"0.12"},{"name":"A6","midi":93,"time":"373.03","velocity":0.12598425196850394,"duration":"0.03"},{"name":"F5","midi":77,"time":"373.05","velocity":0.3228346456692913,"duration":"0.14"},{"name":"E4","midi":64,"time":"373.06","velocity":0.49606299212598426,"duration":"0.35"},{"name":"B4","midi":71,"time":"373.06","velocity":0.3228346456692913,"duration":"0.10"},{"name":"C6","midi":84,"time":"373.06","velocity":0.16535433070866143,"duration":"0.03"},{"name":"C#2","midi":37,"time":"373.09","velocity":0.2440944881889764,"duration":"0.02"},{"name":"G3","midi":55,"time":"373.09","velocity":0.2992125984251969,"duration":"0.02"},{"name":"E6","midi":88,"time":"373.09","velocity":0.2204724409448819,"duration":"0.14"},{"name":"F#5","midi":78,"time":"373.10","velocity":0.29133858267716534,"duration":"0.10"},{"name":"G#3","midi":56,"time":"373.12","velocity":0.33070866141732286,"duration":"0.03"},{"name":"D7","midi":98,"time":"373.12","velocity":0.18110236220472442,"duration":"0.40"},{"name":"C#2","midi":37,"time":"373.13","velocity":0.28346456692913385,"duration":"0.07"},{"name":"G7","midi":103,"time":"373.13","velocity":0.10236220472440945,"duration":"0.03"},{"name":"C7","midi":96,"time":"373.17","velocity":0.2677165354330709,"duration":"0.45"},{"name":"G#3","midi":56,"time":"373.19","velocity":0.3228346456692913,"duration":"0.05"},{"name":"B4","midi":71,"time":"373.19","velocity":0.2755905511811024,"duration":"0.12"},{"name":"D6","midi":86,"time":"373.19","velocity":0.16535433070866143,"duration":"0.06"},{"name":"F5","midi":77,"time":"373.20","velocity":0.30708661417322836,"duration":"0.03"},{"name":"B5","midi":83,"time":"373.21","velocity":0.36220472440944884,"duration":"0.26"},{"name":"C#6","midi":85,"time":"373.23","velocity":0.28346456692913385,"duration":"0.15"},{"name":"E7","midi":100,"time":"373.23","velocity":0.10236220472440945,"duration":"0.03"},{"name":"C#2","midi":37,"time":"373.24","velocity":0.1889763779527559,"duration":"0.05"},{"name":"G#3","midi":56,"time":"373.24","velocity":0.33858267716535434,"duration":"0.10"},{"name":"G6","midi":91,"time":"373.26","velocity":0.07086614173228346,"duration":"0.05"},{"name":"A6","midi":93,"time":"373.26","velocity":0.09448818897637795,"duration":"0.05"},{"name":"F#5","midi":78,"time":"373.27","velocity":0.25984251968503935,"duration":"0.09"},{"name":"D6","midi":86,"time":"373.27","velocity":0.14173228346456693,"duration":"0.05"},{"name":"F7","midi":101,"time":"373.28","velocity":0.12598425196850394,"duration":"0.05"},{"name":"D#5","midi":75,"time":"373.29","velocity":0.33070866141732286,"duration":"0.07"},{"name":"F5","midi":77,"time":"373.29","velocity":0.2204724409448819,"duration":"0.05"},{"name":"E7","midi":100,"time":"373.29","velocity":0.23622047244094488,"duration":"0.79"},{"name":"E6","midi":88,"time":"373.30","velocity":0.18110236220472442,"duration":"0.06"},{"name":"D2","midi":38,"time":"373.33","velocity":0.29133858267716534,"duration":"0.02"},{"name":"B4","midi":71,"time":"373.33","velocity":0.25196850393700787,"duration":"0.03"},{"name":"G7","midi":103,"time":"373.33","velocity":0.2283464566929134,"duration":"0.17"},{"name":"F7","midi":101,"time":"373.34","velocity":0.23622047244094488,"duration":"0.16"},{"name":"F6","midi":89,"time":"373.35","velocity":0.2204724409448819,"duration":"0.08"},{"name":"G6","midi":91,"time":"373.35","velocity":0.28346456692913385,"duration":"0.08"},{"name":"G4","midi":67,"time":"373.36","velocity":0.4409448818897638,"duration":"0.03"},{"name":"A4","midi":69,"time":"373.36","velocity":0.47244094488188976,"duration":"0.05"},{"name":"C#5","midi":73,"time":"373.36","velocity":0.44881889763779526,"duration":"0.03"},{"name":"E5","midi":76,"time":"373.36","velocity":0.5039370078740157,"duration":"0.03"},{"name":"A#5","midi":82,"time":"373.36","velocity":0.23622047244094488,"duration":"0.06"},{"name":"D#6","midi":87,"time":"373.36","velocity":0.3543307086614173,"duration":"0.26"},{"name":"G#3","midi":56,"time":"373.37","velocity":0.5511811023622047,"duration":"0.10"},{"name":"C#4","midi":61,"time":"373.37","velocity":0.5118110236220472,"duration":"0.01"},{"name":"C3","midi":48,"time":"373.38","velocity":0.5511811023622047,"duration":"0.01"},{"name":"C5","midi":72,"time":"373.38","velocity":0.36220472440944884,"duration":"0.02"},{"name":"D6","midi":86,"time":"373.38","velocity":0.30708661417322836,"duration":"0.13"},{"name":"A6","midi":93,"time":"373.38","velocity":0.23622047244094488,"duration":"0.19"},{"name":"C#3","midi":49,"time":"373.40","velocity":0.5669291338582677,"duration":"0.33"},{"name":"D#5","midi":75,"time":"373.40","velocity":0.4094488188976378,"duration":"0.05"},{"name":"B4","midi":71,"time":"373.41","velocity":0.4094488188976378,"duration":"0.03"},{"name":"F5","midi":77,"time":"373.41","velocity":0.29133858267716534,"duration":"0.02"},{"name":"C#6","midi":85,"time":"373.41","velocity":0.16535433070866143,"duration":"0.07"},{"name":"C2","midi":36,"time":"373.42","velocity":0.2440944881889764,"duration":"0.02"},{"name":"E4","midi":64,"time":"373.42","velocity":0.4409448818897638,"duration":"0.38"},{"name":"C#5","midi":73,"time":"373.42","velocity":0.2283464566929134,"duration":"0.02"},{"name":"A#5","midi":82,"time":"373.43","velocity":0.2125984251968504,"duration":"0.03"},{"name":"C5","midi":72,"time":"373.44","velocity":0.2677165354330709,"duration":"0.02"},{"name":"F5","midi":77,"time":"373.44","velocity":0.28346456692913385,"duration":"0.02"},{"name":"G6","midi":91,"time":"373.44","velocity":0.15748031496062992,"duration":"0.03"},{"name":"A4","midi":69,"time":"373.45","velocity":0.2992125984251969,"duration":"0.02"},{"name":"C#5","midi":73,"time":"373.45","velocity":0.2283464566929134,"duration":"0.03"},{"name":"C6","midi":84,"time":"373.47","velocity":0.11811023622047244,"duration":"0.03"},{"name":"G#4","midi":68,"time":"373.48","velocity":0.49606299212598426,"duration":"0.24"},{"name":"F6","midi":89,"time":"373.48","velocity":0.08661417322834646,"duration":"0.06"},{"name":"B4","midi":71,"time":"373.49","velocity":0.3464566929133858,"duration":"0.29"},{"name":"F5","midi":77,"time":"373.49","velocity":0.28346456692913385,"duration":"0.10"},{"name":"C#6","midi":85,"time":"373.49","velocity":0.25984251968503935,"duration":"0.08"},{"name":"G6","midi":91,"time":"373.49","velocity":0.1732283464566929,"duration":"0.05"},{"name":"C#5","midi":73,"time":"373.50","velocity":0.33858267716535434,"duration":"0.19"},{"name":"D#5","midi":75,"time":"373.50","velocity":0.25984251968503935,"duration":"0.03"},{"name":"B5","midi":83,"time":"373.50","velocity":0.3937007874015748,"duration":"0.44"},{"name":"A#6","midi":94,"time":"373.50","velocity":0.16535433070866143,"duration":"0.12"},{"name":"F7","midi":101,"time":"373.51","velocity":0.15748031496062992,"duration":"0.06"},{"name":"E6","midi":88,"time":"373.53","velocity":0.2283464566929134,"duration":"0.07"},{"name":"D7","midi":98,"time":"373.53","velocity":0.25196850393700787,"duration":"0.49"},{"name":"C2","midi":36,"time":"373.55","velocity":0.1889763779527559,"duration":"0.03"},{"name":"A5","midi":81,"time":"373.56","velocity":0.25196850393700787,"duration":"0.03"},{"name":"G6","midi":91,"time":"373.56","velocity":0.14960629921259844,"duration":"0.10"},{"name":"G#3","midi":56,"time":"373.57","velocity":0.4015748031496063,"duration":"0.02"},{"name":"D#5","midi":75,"time":"373.57","velocity":0.36220472440944884,"duration":"0.08"},{"name":"D6","midi":86,"time":"373.57","velocity":0.1732283464566929,"duration":"0.05"},{"name":"F7","midi":101,"time":"373.59","velocity":0.1732283464566929,"duration":"0.06"},{"name":"A#3","midi":58,"time":"373.60","velocity":0.3700787401574803,"duration":"0.03"},{"name":"F#5","midi":78,"time":"373.60","velocity":0.2125984251968504,"duration":"0.09"},{"name":"E6","midi":88,"time":"373.62","velocity":0.3464566929133858,"duration":"0.27"},{"name":"D6","midi":86,"time":"373.63","velocity":0.08661417322834646,"duration":"0.03"},{"name":"A#6","midi":94,"time":"373.64","velocity":0.1968503937007874,"duration":"0.13"},{"name":"C7","midi":96,"time":"373.64","velocity":0.23622047244094488,"duration":"0.26"},{"name":"G#3","midi":56,"time":"373.65","velocity":0.31496062992125984,"duration":"0.06"},{"name":"F#6","midi":90,"time":"373.66","velocity":0.25984251968503935,"duration":"0.52"},{"name":"C#5","midi":73,"time":"373.71","velocity":0.2677165354330709,"duration":"0.09"},{"name":"F5","midi":77,"time":"373.71","velocity":0.25196850393700787,"duration":"0.03"},{"name":"A5","midi":81,"time":"373.71","velocity":0.2283464566929134,"duration":"0.02"},{"name":"D6","midi":86,"time":"373.71","velocity":0.11023622047244094,"duration":"0.03"},{"name":"G6","midi":91,"time":"373.71","velocity":0.2440944881889764,"duration":"0.07"},{"name":"A6","midi":93,"time":"373.71","velocity":0.2440944881889764,"duration":"0.24"},{"name":"D3","midi":50,"time":"373.72","velocity":0.4881889763779528,"duration":"0.03"},{"name":"G#4","midi":68,"time":"373.73","velocity":0.4330708661417323,"duration":"0.08"},{"name":"F7","midi":101,"time":"373.74","velocity":0.11811023622047244,"duration":"0.08"},{"name":"B2","midi":47,"time":"373.76","velocity":0.5118110236220472,"duration":"0.01"},{"name":"F5","midi":77,"time":"373.76","velocity":0.2755905511811024,"duration":"0.02"},{"name":"C3","midi":48,"time":"373.77","velocity":0.5511811023622047,"duration":"0.01"},{"name":"G#3","midi":56,"time":"373.77","velocity":0.4251968503937008,"duration":"0.30"},{"name":"F#5","midi":78,"time":"373.77","velocity":0.2283464566929134,"duration":"0.09"},{"name":"D6","midi":86,"time":"373.77","velocity":0.2283464566929134,"duration":"0.12"},{"name":"C#3","midi":49,"time":"373.78","velocity":0.5433070866141733,"duration":"0.33"},{"name":"D2","midi":38,"time":"373.80","velocity":0.28346456692913385,"duration":"0.02"},{"name":"C#6","midi":85,"time":"373.80","velocity":0.1889763779527559,"duration":"0.03"},{"name":"G4","midi":67,"time":"373.81","velocity":0.3228346456692913,"duration":"0.03"},{"name":"A#6","midi":94,"time":"373.81","velocity":0.13385826771653545,"duration":"0.03"},{"name":"C2","midi":36,"time":"373.83","velocity":0.3228346456692913,"duration":"0.02"},{"name":"A4","midi":69,"time":"373.83","velocity":0.33858267716535434,"duration":"0.07"},{"name":"C#2","midi":37,"time":"373.85","velocity":0.2992125984251969,"duration":"0.03"},{"name":"F5","midi":77,"time":"373.85","velocity":0.2125984251968504,"duration":"0.03"},{"name":"G6","midi":91,"time":"373.85","velocity":0.09448818897637795,"duration":"0.05"},{"name":"G7","midi":103,"time":"373.85","velocity":0.14960629921259844,"duration":"0.10"},{"name":"C5","midi":72,"time":"373.86","velocity":0.2283464566929134,"duration":"0.05"},{"name":"C#5","midi":73,"time":"373.87","velocity":0.23622047244094488,"duration":"0.06"},{"name":"C2","midi":36,"time":"373.88","velocity":0.2440944881889764,"duration":"0.02"},{"name":"E5","midi":76,"time":"373.88","velocity":0.2283464566929134,"duration":"0.03"},{"name":"C#6","midi":85,"time":"373.88","velocity":0.2755905511811024,"duration":"0.23"},{"name":"A#6","midi":94,"time":"373.88","velocity":0.1889763779527559,"duration":"0.36"},{"name":"F7","midi":101,"time":"373.88","velocity":0.10236220472440945,"duration":"0.06"},{"name":"E6","midi":88,"time":"373.90","velocity":0.3937007874015748,"duration":"1.30"},{"name":"A4","midi":69,"time":"373.91","velocity":0.3858267716535433,"duration":"0.03"},{"name":"C7","midi":96,"time":"373.91","velocity":0.25984251968503935,"duration":"0.10"},{"name":"B4","midi":71,"time":"373.92","velocity":0.14173228346456693,"duration":"0.03"},{"name":"D#5","midi":75,"time":"373.92","velocity":0.2755905511811024,"duration":"0.06"},{"name":"F5","midi":77,"time":"373.92","velocity":0.2204724409448819,"duration":"0.08"},{"name":"G6","midi":91,"time":"373.92","velocity":0.2283464566929134,"duration":"0.24"},{"name":"G#4","midi":68,"time":"373.93","velocity":0.47244094488188976,"duration":"0.17"},{"name":"D6","midi":86,"time":"373.93","velocity":0.12598425196850394,"duration":"0.03"},{"name":"E4","midi":64,"time":"373.95","velocity":0.2992125984251969,"duration":"0.03"},{"name":"B5","midi":83,"time":"373.95","velocity":0.2677165354330709,"duration":"0.03"},{"name":"F7","midi":101,"time":"373.95","velocity":0.2047244094488189,"duration":"0.07"},{"name":"B4","midi":71,"time":"373.97","velocity":0.2677165354330709,"duration":"0.14"},{"name":"C#2","midi":37,"time":"374.00","velocity":0.1968503937007874,"duration":"0.05"},{"name":"A6","midi":93,"time":"374.00","velocity":0.2204724409448819,"duration":"0.09"},{"name":"B5","midi":83,"time":"374.01","velocity":0.3700787401574803,"duration":"0.31"},{"name":"D6","midi":86,"time":"374.01","velocity":0.2047244094488189,"duration":"0.08"},{"name":"E5","midi":76,"time":"374.02","velocity":0.25196850393700787,"duration":"0.02"},{"name":"D#5","midi":75,"time":"374.03","velocity":0.33858267716535434,"duration":"0.09"},{"name":"F#5","midi":78,"time":"374.03","velocity":0.2204724409448819,"duration":"0.05"},{"name":"F7","midi":101,"time":"374.03","velocity":0.2440944881889764,"duration":"0.28"},{"name":"C7","midi":96,"time":"374.05","velocity":0.25984251968503935,"duration":"0.06"},{"name":"D7","midi":98,"time":"374.05","velocity":0.2047244094488189,"duration":"0.20"},{"name":"F5","midi":77,"time":"374.06","velocity":0.23622047244094488,"duration":"0.03"},{"name":"A5","midi":81,"time":"374.06","velocity":0.1889763779527559,"duration":"0.05"},{"name":"A3","midi":57,"time":"374.08","velocity":0.2677165354330709,"duration":"0.02"},{"name":"G#2","midi":44,"time":"374.10","velocity":0.5669291338582677,"duration":"0.01"},{"name":"C5","midi":72,"time":"374.10","velocity":0.2755905511811024,"duration":"0.05"},{"name":"A6","midi":93,"time":"374.10","velocity":0.16535433070866143,"duration":"0.07"},{"name":"D#7","midi":99,"time":"374.10","velocity":0.3464566929133858,"duration":"2.08"},{"name":"F2","midi":41,"time":"374.12","velocity":0.6535433070866141,"duration":"0.02"},{"name":"G#4","midi":68,"time":"374.12","velocity":0.3543307086614173,"duration":"0.03"},{"name":"A#4","midi":70,"time":"374.12","velocity":0.25196850393700787,"duration":"0.02"},{"name":"C#3","midi":49,"time":"374.13","velocity":0.5905511811023622,"duration":"0.34"},{"name":"F#5","midi":78,"time":"374.13","velocity":0.3779527559055118,"duration":"0.55"},{"name":"F4","midi":65,"time":"374.14","velocity":0.1889763779527559,"duration":"0.03"},{"name":"D5","midi":74,"time":"374.14","velocity":0.23622047244094488,"duration":"0.02"},{"name":"D6","midi":86,"time":"374.14","velocity":0.2677165354330709,"duration":"0.06"},{"name":"D#6","midi":87,"time":"374.14","velocity":0.3700787401574803,"duration":"0.36"},{"name":"C7","midi":96,"time":"374.14","velocity":0.2440944881889764,"duration":"0.30"},{"name":"F#1","midi":30,"time":"374.15","velocity":0.5748031496062992,"duration":"0.01"},{"name":"G#3","midi":56,"time":"374.15","velocity":0.4330708661417323,"duration":"0.31"},{"name":"G4","midi":67,"time":"374.15","velocity":0.28346456692913385,"duration":"0.02"},{"name":"B4","midi":71,"time":"374.15","velocity":0.3464566929133858,"duration":"0.16"},{"name":"D#5","midi":75,"time":"374.15","velocity":0.2204724409448819,"duration":"0.08"},{"name":"F1","midi":29,"time":"374.16","velocity":0.5669291338582677,"duration":"0.01"},{"name":"C#5","midi":73,"time":"374.16","velocity":0.1889763779527559,"duration":"0.08"},{"name":"F6","midi":89,"time":"374.16","velocity":0.16535433070866143,"duration":"0.03"},{"name":"G#4","midi":68,"time":"374.17","velocity":0.5118110236220472,"duration":"0.31"},{"name":"G6","midi":91,"time":"374.17","velocity":0.15748031496062992,"duration":"0.06"},{"name":"C#6","midi":85,"time":"374.19","velocity":0.33858267716535434,"duration":"0.14"},{"name":"A5","midi":81,"time":"374.20","velocity":0.15748031496062992,"duration":"0.03"},{"name":"E5","midi":76,"time":"374.22","velocity":0.28346456692913385,"duration":"0.16"},{"name":"C6","midi":84,"time":"374.22","velocity":0.2283464566929134,"duration":"0.08"},{"name":"B1","midi":35,"time":"374.24","velocity":0.33858267716535434,"duration":"0.02"},{"name":"G6","midi":91,"time":"374.24","velocity":0.14960629921259844,"duration":"0.03"},{"name":"D7","midi":98,"time":"374.26","velocity":0.2677165354330709,"duration":"1.29"},{"name":"A#6","midi":94,"time":"374.28","velocity":0.18110236220472442,"duration":"0.09"},{"name":"A6","midi":93,"time":"374.30","velocity":0.12598425196850394,"duration":"0.14"},{"name":"C6","midi":84,"time":"374.31","velocity":0.14173228346456693,"duration":"0.03"},{"name":"F#7","midi":102,"time":"374.31","velocity":0.2755905511811024,"duration":"2.14"},{"name":"F7","midi":101,"time":"374.34","velocity":0.10236220472440945,"duration":"0.06"},{"name":"B5","midi":83,"time":"374.35","velocity":0.29133858267716534,"duration":"0.09"},{"name":"C#6","midi":85,"time":"374.35","velocity":0.1732283464566929,"duration":"0.07"},{"name":"F#4","midi":66,"time":"374.36","velocity":0.31496062992125984,"duration":"0.05"},{"name":"E4","midi":64,"time":"374.37","velocity":0.18110236220472442,"duration":"0.03"},{"name":"C#5","midi":73,"time":"374.37","velocity":0.2677165354330709,"duration":"0.10"},{"name":"D#5","midi":75,"time":"374.37","velocity":0.31496062992125984,"duration":"0.12"},{"name":"A#6","midi":94,"time":"374.38","velocity":0.14960629921259844,"duration":"0.16"},{"name":"F6","midi":89,"time":"374.40","velocity":0.12598425196850394,"duration":"0.09"},{"name":"D6","midi":86,"time":"374.41","velocity":0.13385826771653545,"duration":"0.03"},{"name":"F5","midi":77,"time":"374.42","velocity":0.29133858267716534,"duration":"0.07"},{"name":"E4","midi":64,"time":"374.43","velocity":0.4015748031496063,"duration":"0.12"},{"name":"C#6","midi":85,"time":"374.43","velocity":0.2755905511811024,"duration":"0.08"},{"name":"F7","midi":101,"time":"374.43","velocity":0.23622047244094488,"duration":"0.08"},{"name":"B5","midi":83,"time":"374.45","velocity":0.4566929133858268,"duration":"0.49"},{"name":"C7","midi":96,"time":"374.45","velocity":0.2755905511811024,"duration":"0.35"},{"name":"D3","midi":50,"time":"374.47","velocity":0.5433070866141733,"duration":"0.03"},{"name":"G7","midi":103,"time":"374.47","velocity":0.2047244094488189,"duration":"0.13"},{"name":"C6","midi":84,"time":"374.48","velocity":0.2283464566929134,"duration":"0.06"},{"name":"D6","midi":86,"time":"374.48","velocity":0.29133858267716534,"duration":"0.38"},{"name":"A6","midi":93,"time":"374.48","velocity":0.2125984251968504,"duration":"0.47"},{"name":"F2","midi":41,"time":"374.49","velocity":0.5905511811023622,"duration":"0.02"},{"name":"B4","midi":71,"time":"374.49","velocity":0.33858267716535434,"duration":"0.03"},{"name":"C#5","midi":73,"time":"374.50","velocity":0.25196850393700787,"duration":"0.15"},{"name":"G6","midi":91,"time":"374.50","velocity":0.1732283464566929,"duration":"0.03"},{"name":"B1","midi":35,"time":"374.51","velocity":0.5118110236220472,"duration":"0.01"},{"name":"A4","midi":69,"time":"374.51","velocity":0.3937007874015748,"duration":"0.10"},{"name":"G1","midi":31,"time":"374.52","velocity":0.5748031496062992,"duration":"0.01"},{"name":"G#3","midi":56,"time":"374.52","velocity":0.4330708661417323,"duration":"0.09"},{"name":"D#6","midi":87,"time":"374.52","velocity":0.33858267716535434,"duration":"0.36"},{"name":"F7","midi":101,"time":"374.52","velocity":0.2440944881889764,"duration":"0.12"},{"name":"F#1","midi":30,"time":"374.53","velocity":0.5748031496062992,"duration":"0.01"},{"name":"D3","midi":50,"time":"374.53","velocity":0.5196850393700787,"duration":"0.02"},{"name":"C#4","midi":61,"time":"374.55","velocity":0.2440944881889764,"duration":"0.21"},{"name":"F#4","midi":66,"time":"374.55","velocity":0.25196850393700787,"duration":"0.02"},{"name":"D#5","midi":75,"time":"374.55","velocity":0.29133858267716534,"duration":"0.21"},{"name":"C3","midi":48,"time":"374.56","velocity":0.5826771653543307,"duration":"0.02"},{"name":"A#6","midi":94,"time":"374.56","velocity":0.2755905511811024,"duration":"1.03"},{"name":"F4","midi":65,"time":"374.57","velocity":0.2755905511811024,"duration":"0.03"},{"name":"C#3","midi":49,"time":"374.58","velocity":0.5196850393700787,"duration":"0.01"},{"name":"B4","midi":71,"time":"374.58","velocity":0.25984251968503935,"duration":"0.06"},{"name":"G6","midi":91,"time":"374.58","velocity":0.10236220472440945,"duration":"0.05"},{"name":"C3","midi":48,"time":"374.59","velocity":0.5511811023622047,"duration":"0.02"},{"name":"E4","midi":64,"time":"374.60","velocity":0.2283464566929134,"duration":"0.03"},{"name":"G#4","midi":68,"time":"374.60","velocity":0.4330708661417323,"duration":"0.09"},{"name":"C#3","midi":49,"time":"374.62","velocity":0.5590551181102362,"duration":"0.24"},{"name":"F6","midi":89,"time":"374.62","velocity":0.11023622047244094,"duration":"0.05"},{"name":"G7","midi":103,"time":"374.62","velocity":0.13385826771653545,"duration":"0.10"},{"name":"C2","midi":36,"time":"374.63","velocity":0.31496062992125984,"duration":"0.02"},{"name":"G#3","midi":56,"time":"374.64","velocity":0.3700787401574803,"duration":"0.06"},{"name":"G6","midi":91,"time":"374.64","velocity":0.10236220472440945,"duration":"0.09"},{"name":"E4","midi":64,"time":"374.65","velocity":0.25196850393700787,"duration":"0.09"},{"name":"C5","midi":72,"time":"374.65","velocity":0.2283464566929134,"duration":"0.02"},{"name":"C#6","midi":85,"time":"374.65","velocity":0.14173228346456693,"duration":"0.05"},{"name":"C#5","midi":73,"time":"374.66","velocity":0.28346456692913385,"duration":"0.20"},{"name":"A5","midi":81,"time":"374.66","velocity":0.16535433070866143,"duration":"0.03"},{"name":"F#5","midi":78,"time":"374.69","velocity":0.23622047244094488,"duration":"0.20"},{"name":"F7","midi":101,"time":"374.69","velocity":0.15748031496062992,"duration":"0.03"},{"name":"B1","midi":35,"time":"374.70","velocity":0.3858267716535433,"duration":"0.02"},{"name":"F5","midi":77,"time":"374.70","velocity":0.1889763779527559,"duration":"0.03"},{"name":"C6","midi":84,"time":"374.70","velocity":0.11023622047244094,"duration":"0.03"},{"name":"A4","midi":69,"time":"374.71","velocity":0.3700787401574803,"duration":"0.02"},{"name":"G#3","midi":56,"time":"374.72","velocity":0.36220472440944884,"duration":"0.12"},{"name":"G#4","midi":68,"time":"374.73","velocity":0.5511811023622047,"duration":"0.15"},{"name":"B4","midi":71,"time":"374.73","velocity":0.2283464566929134,"duration":"0.05"},{"name":"G7","midi":103,"time":"374.73","velocity":0.12598425196850394,"duration":"0.03"},{"name":"B1","midi":35,"time":"374.74","velocity":0.28346456692913385,"duration":"0.02"},{"name":"E5","midi":76,"time":"374.74","velocity":0.1968503937007874,"duration":"0.03"},{"name":"E4","midi":64,"time":"374.76","velocity":0.2677165354330709,"duration":"0.03"},{"name":"D#5","midi":75,"time":"374.77","velocity":0.1968503937007874,"duration":"0.08"},{"name":"F7","midi":101,"time":"374.78","velocity":0.2755905511811024,"duration":"0.23"},{"name":"E4","midi":64,"time":"374.80","velocity":0.3228346456692913,"duration":"0.05"},{"name":"C7","midi":96,"time":"374.81","velocity":0.28346456692913385,"duration":"0.10"},{"name":"G7","midi":103,"time":"374.83","velocity":0.2047244094488189,"duration":"0.27"},{"name":"E5","midi":76,"time":"374.85","velocity":0.3700787401574803,"duration":"0.03"},{"name":"A5","midi":81,"time":"374.85","velocity":0.2440944881889764,"duration":"0.03"},{"name":"G6","midi":91,"time":"374.85","velocity":0.2440944881889764,"duration":"0.06"},{"name":"C#4","midi":61,"time":"374.86","velocity":0.5196850393700787,"duration":"0.01"},{"name":"F6","midi":89,"time":"374.86","velocity":0.2992125984251969,"duration":"0.05"},{"name":"D4","midi":62,"time":"374.87","velocity":0.48031496062992124,"duration":"0.02"},{"name":"C#5","midi":73,"time":"374.87","velocity":0.36220472440944884,"duration":"0.08"},{"name":"C6","midi":84,"time":"374.87","velocity":0.3228346456692913,"duration":"0.05"},{"name":"D6","midi":86,"time":"374.87","velocity":0.30708661417322836,"duration":"0.08"},{"name":"A4","midi":69,"time":"374.88","velocity":0.5433070866141733,"duration":"0.01"},{"name":"D#5","midi":75,"time":"374.88","velocity":0.3779527559055118,"duration":"0.02"},{"name":"F#6","midi":90,"time":"374.88","velocity":0.2992125984251969,"duration":"0.63"},{"name":"C#3","midi":49,"time":"374.90","velocity":0.5511811023622047,"duration":"0.33"},{"name":"G#3","midi":56,"time":"374.90","velocity":0.5196850393700787,"duration":"0.16"},{"name":"F4","midi":65,"time":"374.91","velocity":0.4566929133858268,"duration":"0.02"},{"name":"B4","midi":71,"time":"374.91","velocity":0.4251968503937008,"duration":"0.16"},{"name":"F#5","midi":78,"time":"374.91","velocity":0.25984251968503935,"duration":"0.02"},{"name":"E5","midi":76,"time":"374.92","velocity":0.3464566929133858,"duration":"0.13"},{"name":"A#5","midi":82,"time":"374.92","velocity":0.2204724409448819,"duration":"0.06"},{"name":"G6","midi":91,"time":"374.92","velocity":0.2047244094488189,"duration":"0.05"},{"name":"E4","midi":64,"time":"374.93","velocity":0.3858267716535433,"duration":"0.14"},{"name":"F6","midi":89,"time":"374.93","velocity":0.07874015748031496,"duration":"0.03"},{"name":"F#5","midi":78,"time":"374.94","velocity":0.2755905511811024,"duration":"0.05"},{"name":"C7","midi":96,"time":"374.94","velocity":0.2992125984251969,"duration":"0.47"},{"name":"D6","midi":86,"time":"374.97","velocity":0.31496062992125984,"duration":"0.14"},{"name":"G6","midi":91,"time":"374.98","velocity":0.2125984251968504,"duration":"0.09"},{"name":"A6","midi":93,"time":"374.99","velocity":0.18110236220472442,"duration":"0.09"},{"name":"F#5","midi":78,"time":"375.00","velocity":0.1889763779527559,"duration":"0.05"},{"name":"F6","midi":89,"time":"375.00","velocity":0.11811023622047244,"duration":"0.08"},{"name":"C#6","midi":85,"time":"375.01","velocity":0.31496062992125984,"duration":"0.29"},{"name":"A5","midi":81,"time":"375.02","velocity":0.2440944881889764,"duration":"0.07"},{"name":"F7","midi":101,"time":"375.02","velocity":0.1968503937007874,"duration":"0.13"},{"name":"C#5","midi":73,"time":"375.03","velocity":0.29133858267716534,"duration":"0.21"},{"name":"D#5","midi":75,"time":"375.03","velocity":0.3228346456692913,"duration":"0.14"},{"name":"G#3","midi":56,"time":"375.07","velocity":0.3779527559055118,"duration":"0.03"},{"name":"C6","midi":84,"time":"375.07","velocity":0.2125984251968504,"duration":"0.05"},{"name":"B4","midi":71,"time":"375.08","velocity":0.2440944881889764,"duration":"0.03"},{"name":"F#5","midi":78,"time":"375.08","velocity":0.15748031496062992,"duration":"0.07"},{"name":"G6","midi":91,"time":"375.10","velocity":0.1889763779527559,"duration":"0.03"},{"name":"C2","midi":36,"time":"375.12","velocity":0.23622047244094488,"duration":"0.02"},{"name":"A5","midi":81,"time":"375.12","velocity":0.1968503937007874,"duration":"0.08"},{"name":"D6","midi":86,"time":"375.12","velocity":0.2992125984251969,"duration":"0.10"},{"name":"B6","midi":95,"time":"375.12","velocity":0.25196850393700787,"duration":"0.37"},{"name":"G7","midi":103,"time":"375.13","velocity":0.2677165354330709,"duration":"0.28"},{"name":"G#3","midi":56,"time":"375.14","velocity":0.4251968503937008,"duration":"0.03"},{"name":"E4","midi":64,"time":"375.14","velocity":0.2992125984251969,"duration":"0.06"},{"name":"B5","midi":83,"time":"375.14","velocity":0.15748031496062992,"duration":"0.05"},{"name":"B4","midi":71,"time":"375.16","velocity":0.11811023622047244,"duration":"0.03"},{"name":"E5","midi":76,"time":"375.16","velocity":0.3779527559055118,"duration":"0.12"},{"name":"G#5","midi":80,"time":"375.16","velocity":0.5196850393700787,"duration":"0.47"},{"name":"F7","midi":101,"time":"375.16","velocity":0.1968503937007874,"duration":"0.15"},{"name":"C#2","midi":37,"time":"375.17","velocity":0.2125984251968504,"duration":"0.03"},{"name":"G#3","midi":56,"time":"375.19","velocity":0.4330708661417323,"duration":"0.02"},{"name":"F#5","midi":78,"time":"375.19","velocity":0.2440944881889764,"duration":"0.07"},{"name":"B5","midi":83,"time":"375.20","velocity":0.3937007874015748,"duration":"0.40"},{"name":"A3","midi":57,"time":"375.21","velocity":0.4251968503937008,"duration":"0.02"},{"name":"E4","midi":64,"time":"375.21","velocity":0.4094488188976378,"duration":"0.36"},{"name":"G6","midi":91,"time":"375.21","velocity":0.1889763779527559,"duration":"0.15"},{"name":"A6","midi":93,"time":"375.21","velocity":0.11023622047244094,"duration":"0.03"},{"name":"E2","midi":40,"time":"375.23","velocity":0.5196850393700787,"duration":"0.02"},{"name":"D#3","midi":51,"time":"375.23","velocity":0.41732283464566927,"duration":"0.02"},{"name":"A5","midi":81,"time":"375.23","velocity":0.33858267716535434,"duration":"0.12"},{"name":"F6","midi":89,"time":"375.24","velocity":0.16535433070866143,"duration":"0.03"},{"name":"C#3","midi":49,"time":"375.26","velocity":0.5669291338582677,"duration":"0.34"},{"name":"G#3","midi":56,"time":"375.26","velocity":0.4015748031496063,"duration":"0.14"},{"name":"A4","midi":69,"time":"375.26","velocity":0.3543307086614173,"duration":"0.03"},{"name":"C6","midi":84,"time":"375.26","velocity":0.2125984251968504,"duration":"0.06"},{"name":"D2","midi":38,"time":"375.27","velocity":0.3228346456692913,"duration":"0.02"},{"name":"C#5","midi":73,"time":"375.27","velocity":0.28346456692913385,"duration":"0.07"},{"name":"D#5","midi":75,"time":"375.27","velocity":0.23622047244094488,"duration":"0.06"},{"name":"G4","midi":67,"time":"375.28","velocity":0.4251968503937008,"duration":"0.03"},{"name":"F#5","midi":78,"time":"375.28","velocity":0.29133858267716534,"duration":"0.05"},{"name":"D6","midi":86,"time":"375.28","velocity":0.25984251968503935,"duration":"0.06"},{"name":"B4","midi":71,"time":"375.30","velocity":0.3543307086614173,"duration":"0.05"},{"name":"F5","midi":77,"time":"375.31","velocity":0.14960629921259844,"duration":"0.03"},{"name":"A4","midi":69,"time":"375.33","velocity":0.3700787401574803,"duration":"0.02"},{"name":"G5","midi":79,"time":"375.33","velocity":0.33858267716535434,"duration":"0.05"},{"name":"F7","midi":101,"time":"375.34","velocity":0.15748031496062992,"duration":"0.10"},{"name":"G#4","midi":68,"time":"375.35","velocity":0.47244094488188976,"duration":"0.09"},{"name":"D6","midi":86,"time":"375.35","velocity":0.2283464566929134,"duration":"0.07"},{"name":"C#7","midi":97,"time":"375.35","velocity":0.4566929133858268,"duration":"20.81"},{"name":"C#2","midi":37,"time":"375.36","velocity":0.2440944881889764,"duration":"0.03"},{"name":"C#5","midi":73,"time":"375.36","velocity":0.2283464566929134,"duration":"0.03"},{"name":"B4","midi":71,"time":"375.37","velocity":0.3464566929133858,"duration":"0.16"},{"name":"G5","midi":79,"time":"375.38","velocity":0.30708661417322836,"duration":"0.08"},{"name":"C2","midi":36,"time":"375.40","velocity":0.25984251968503935,"duration":"0.02"},{"name":"G#3","midi":56,"time":"375.41","velocity":0.3779527559055118,"duration":"0.16"},{"name":"C#5","midi":73,"time":"375.43","velocity":0.2440944881889764,"duration":"0.03"},{"name":"C7","midi":96,"time":"375.43","velocity":0.28346456692913385,"duration":"0.84"},{"name":"G4","midi":67,"time":"375.44","velocity":0.25984251968503935,"duration":"0.02"},{"name":"A4","midi":69,"time":"375.45","velocity":0.3464566929133858,"duration":"0.05"},{"name":"F#5","midi":78,"time":"375.45","velocity":0.2125984251968504,"duration":"0.06"},{"name":"D6","midi":86,"time":"375.45","velocity":0.25196850393700787,"duration":"0.09"},{"name":"A6","midi":93,"time":"375.45","velocity":0.14173228346456693,"duration":"0.06"},{"name":"C#2","midi":37,"time":"375.47","velocity":0.25196850393700787,"duration":"0.02"},{"name":"F7","midi":101,"time":"375.47","velocity":0.1732283464566929,"duration":"0.40"},{"name":"C#5","midi":73,"time":"375.48","velocity":0.25196850393700787,"duration":"0.07"},{"name":"C2","midi":36,"time":"375.49","velocity":0.29133858267716534,"duration":"0.02"},{"name":"G#4","midi":68,"time":"375.50","velocity":0.4645669291338583,"duration":"0.15"},{"name":"G6","midi":91,"time":"375.50","velocity":0.2047244094488189,"duration":"0.06"},{"name":"G5","midi":79,"time":"375.52","velocity":0.2283464566929134,"duration":"0.03"},{"name":"A6","midi":93,"time":"375.52","velocity":0.1889763779527559,"duration":"0.08"},{"name":"C#2","midi":37,"time":"375.53","velocity":0.2992125984251969,"duration":"0.02"},{"name":"G7","midi":103,"time":"375.53","velocity":0.2283464566929134,"duration":"0.40"},{"name":"C5","midi":72,"time":"375.55","velocity":0.2755905511811024,"duration":"0.03"},{"name":"F#6","midi":90,"time":"375.55","velocity":0.15748031496062992,"duration":"0.03"},{"name":"D#5","midi":75,"time":"375.56","velocity":0.25196850393700787,"duration":"0.02"},{"name":"D6","midi":86,"time":"375.57","velocity":0.08661417322834646,"duration":"0.03"},{"name":"F6","midi":89,"time":"375.57","velocity":0.2204724409448819,"duration":"0.08"},{"name":"D7","midi":98,"time":"375.57","velocity":0.1732283464566929,"duration":"0.09"},{"name":"C2","midi":36,"time":"375.58","velocity":0.36220472440944884,"duration":"0.02"},{"name":"C#5","midi":73,"time":"375.58","velocity":0.2047244094488189,"duration":"0.05"},{"name":"F#5","midi":78,"time":"375.58","velocity":0.4881889763779528,"duration":"0.48"},{"name":"A5","midi":81,"time":"375.58","velocity":0.4015748031496063,"duration":"0.90"},{"name":"G6","midi":91,"time":"375.58","velocity":0.2283464566929134,"duration":"0.06"},{"name":"B1","midi":35,"time":"375.60","velocity":0.5275590551181102,"duration":"0.01"},{"name":"C#3","midi":49,"time":"375.60","velocity":0.5196850393700787,"duration":"0.01"},{"name":"D4","midi":62,"time":"375.60","velocity":0.2755905511811024,"duration":"0.03"},{"name":"E5","midi":76,"time":"375.60","velocity":0.2992125984251969,"duration":"0.09"},{"name":"B5","midi":83,"time":"375.60","velocity":0.25196850393700787,"duration":"0.05"},{"name":"A#6","midi":94,"time":"375.60","velocity":0.2125984251968504,"duration":"0.31"},{"name":"A2","midi":45,"time":"375.62","velocity":0.6456692913385826,"duration":"0.01"},{"name":"D5","midi":74,"time":"375.62","velocity":0.31496062992125984,"duration":"0.05"},{"name":"C#6","midi":85,"time":"375.62","velocity":0.4094488188976378,"duration":"0.81"},{"name":"G#2","midi":44,"time":"375.63","velocity":0.6062992125984252,"duration":"0.01"},{"name":"D0","midi":14,"time":"375.64","velocity":0.5196850393700787,"duration":"0.01"},{"name":"G5","midi":79,"time":"375.64","velocity":0.2755905511811024,"duration":"0.03"},{"name":"F1","midi":29,"time":"375.65","velocity":0.6220472440944882,"duration":"0.02"},{"name":"A#4","midi":70,"time":"375.65","velocity":0.30708661417322836,"duration":"0.02"},{"name":"A3","midi":57,"time":"375.66","velocity":0.3937007874015748,"duration":"0.02"},{"name":"F6","midi":89,"time":"375.66","velocity":0.16535433070866143,"duration":"0.05"},{"name":"A1","midi":33,"time":"375.67","velocity":0.5433070866141733,"duration":"0.01"},{"name":"A4","midi":69,"time":"375.67","velocity":0.4015748031496063,"duration":"0.10"},{"name":"C5","midi":72,"time":"375.67","velocity":0.25196850393700787,"duration":"0.02"},{"name":"G#5","midi":80,"time":"375.67","velocity":0.29133858267716534,"duration":"0.06"},{"name":"C2","midi":36,"time":"375.69","velocity":0.4409448818897638,"duration":"0.02"},{"name":"D3","midi":50,"time":"375.69","velocity":0.5669291338582677,"duration":"0.28"},{"name":"A3","midi":57,"time":"375.70","velocity":0.47244094488188976,"duration":"0.29"},{"name":"C#5","midi":73,"time":"375.70","velocity":0.33858267716535434,"duration":"0.41"},{"name":"D7","midi":98,"time":"375.71","velocity":0.15748031496062992,"duration":"0.17"},{"name":"G6","midi":91,"time":"375.72","velocity":0.2755905511811024,"duration":"0.19"},{"name":"F#4","midi":66,"time":"375.74","velocity":0.4251968503937008,"duration":"0.16"},{"name":"G5","midi":79,"time":"375.74","velocity":0.13385826771653545,"duration":"0.03"},{"name":"D#6","midi":87,"time":"375.74","velocity":0.2204724409448819,"duration":"0.16"},{"name":"G#5","midi":80,"time":"375.78","velocity":0.30708661417322836,"duration":"0.05"},{"name":"B5","midi":83,"time":"375.78","velocity":0.12598425196850394,"duration":"0.03"},{"name":"G#4","midi":68,"time":"375.79","velocity":0.33070866141732286,"duration":"0.02"},{"name":"E5","midi":76,"time":"375.79","velocity":0.14173228346456693,"duration":"0.05"},{"name":"D6","midi":86,"time":"375.79","velocity":0.15748031496062992,"duration":"0.15"},{"name":"G1","midi":31,"time":"375.80","velocity":0.36220472440944884,"duration":"0.02"},{"name":"C6","midi":84,"time":"375.80","velocity":0.1732283464566929,"duration":"0.09"},{"name":"A#5","midi":82,"time":"375.81","velocity":0.14173228346456693,"duration":"0.03"},{"name":"G#6","midi":92,"time":"375.84","velocity":0.2755905511811024,"duration":"0.47"},{"name":"G#5","midi":80,"time":"375.85","velocity":0.13385826771653545,"duration":"0.05"},{"name":"E5","midi":76,"time":"375.86","velocity":0.1968503937007874,"duration":"0.03"},{"name":"A#5","midi":82,"time":"375.87","velocity":0.15748031496062992,"duration":"0.08"},{"name":"F6","midi":89,"time":"375.91","velocity":0.10236220472440945,"duration":"0.03"},{"name":"B6","midi":95,"time":"375.91","velocity":0.1968503937007874,"duration":"0.34"},{"name":"F#4","midi":66,"time":"375.92","velocity":0.4645669291338583,"duration":"0.27"},{"name":"C6","midi":84,"time":"375.93","velocity":0.2125984251968504,"duration":"0.08"},{"name":"D#6","midi":87,"time":"375.94","velocity":0.1968503937007874,"duration":"0.05"},{"name":"G6","midi":91,"time":"375.94","velocity":0.14960629921259844,"duration":"0.12"},{"name":"A#6","midi":94,"time":"375.94","velocity":0.16535433070866143,"duration":"0.17"},{"name":"F7","midi":101,"time":"375.94","velocity":0.23622047244094488,"duration":"0.20"},{"name":"C#4","midi":61,"time":"375.97","velocity":0.23622047244094488,"duration":"0.02"},{"name":"D7","midi":98,"time":"375.97","velocity":0.11811023622047244,"duration":"0.05"},{"name":"E2","midi":40,"time":"375.99","velocity":0.5275590551181102,"duration":"0.03"},{"name":"D6","midi":86,"time":"375.99","velocity":0.25196850393700787,"duration":"0.16"},{"name":"G7","midi":103,"time":"375.99","velocity":0.1889763779527559,"duration":"0.03"},{"name":"D3","midi":50,"time":"376.00","velocity":0.5826771653543307,"duration":"0.37"},{"name":"D#4","midi":63,"time":"376.00","velocity":0.2755905511811024,"duration":"0.02"},{"name":"B5","midi":83,"time":"376.00","velocity":0.14173228346456693,"duration":"0.03"},{"name":"E5","midi":76,"time":"376.01","velocity":0.2283464566929134,"duration":"0.05"},{"name":"D#6","midi":87,"time":"376.01","velocity":0.2047244094488189,"duration":"0.09"},{"name":"E6","midi":88,"time":"376.01","velocity":0.30708661417322836,"duration":"0.06"},{"name":"A4","midi":69,"time":"376.02","velocity":0.3937007874015748,"duration":"0.34"},{"name":"C6","midi":84,"time":"376.02","velocity":0.25984251968503935,"duration":"0.05"},{"name":"F6","midi":89,"time":"376.02","velocity":0.2125984251968504,"duration":"0.06"},{"name":"A3","midi":57,"time":"376.03","velocity":0.25984251968503935,"duration":"0.02"},{"name":"G7","midi":103,"time":"376.03","velocity":0.15748031496062992,"duration":"0.03"},{"name":"B5","midi":83,"time":"376.05","velocity":0.2283464566929134,"duration":"0.07"},{"name":"F#5","midi":78,"time":"376.07","velocity":0.5275590551181102,"duration":"0.29"},{"name":"A3","midi":57,"time":"376.09","velocity":0.3937007874015748,"duration":"0.24"},{"name":"C5","midi":72,"time":"376.09","velocity":0.23622047244094488,"duration":"0.05"},{"name":"C6","midi":84,"time":"376.09","velocity":0.3228346456692913,"duration":"0.21"},{"name":"E6","midi":88,"time":"376.09","velocity":0.1889763779527559,"duration":"0.05"},{"name":"F6","midi":89,"time":"376.09","velocity":0.11811023622047244,"duration":"0.06"},{"name":"G6","midi":91,"time":"376.12","velocity":0.10236220472440945,"duration":"0.03"},{"name":"A#6","midi":94,"time":"376.13","velocity":0.1889763779527559,"duration":"0.06"},{"name":"C2","midi":36,"time":"376.14","velocity":0.25984251968503935,"duration":"0.02"},{"name":"B5","midi":83,"time":"376.14","velocity":0.25984251968503935,"duration":"0.05"},{"name":"D#6","midi":87,"time":"376.14","velocity":0.09448818897637795,"duration":"0.03"},{"name":"E5","midi":76,"time":"376.15","velocity":0.1889763779527559,"duration":"0.06"},{"name":"E6","midi":88,"time":"376.15","velocity":0.2440944881889764,"duration":"0.37"},{"name":"C#2","midi":37,"time":"376.19","velocity":0.23622047244094488,"duration":"0.02"},{"name":"G#5","midi":80,"time":"376.19","velocity":0.18110236220472442,"duration":"0.05"},{"name":"F7","midi":101,"time":"376.19","velocity":0.14173228346456693,"duration":"0.13"},{"name":"G7","midi":103,"time":"376.19","velocity":0.11811023622047244,"duration":"0.06"},{"name":"F#4","midi":66,"time":"376.20","velocity":0.4251968503937008,"duration":"0.08"},{"name":"D#7","midi":99,"time":"376.20","velocity":0.1732283464566929,"duration":"0.03"},{"name":"D2","midi":38,"time":"376.21","velocity":0.3228346456692913,"duration":"0.02"},{"name":"C#5","midi":73,"time":"376.21","velocity":0.3700787401574803,"duration":"0.15"},{"name":"D#6","midi":87,"time":"376.21","velocity":0.15748031496062992,"duration":"0.16"},{"name":"A#6","midi":94,"time":"376.21","velocity":0.30708661417322836,"duration":"0.45"},{"name":"F6","midi":89,"time":"376.22","velocity":0.1889763779527559,"duration":"0.05"},{"name":"D2","midi":38,"time":"376.24","velocity":0.31496062992125984,"duration":"0.09"},{"name":"G#5","midi":80,"time":"376.24","velocity":0.2283464566929134,"duration":"0.07"},{"name":"E5","midi":76,"time":"376.26","velocity":0.5196850393700787,"duration":"0.13"},{"name":"B6","midi":95,"time":"376.26","velocity":0.2204724409448819,"duration":"0.24"},{"name":"D#7","midi":99,"time":"376.27","velocity":0.31496062992125984,"duration":"1.59"},{"name":"G7","midi":103,"time":"376.27","velocity":0.11811023622047244,"duration":"0.03"},{"name":"D6","midi":86,"time":"376.28","velocity":0.18110236220472442,"duration":"0.08"},{"name":"F6","midi":89,"time":"376.29","velocity":0.15748031496062992,"duration":"0.05"},{"name":"B5","midi":83,"time":"376.31","velocity":0.14173228346456693,"duration":"0.03"},{"name":"G#6","midi":92,"time":"376.31","velocity":0.16535433070866143,"duration":"0.05"},{"name":"D7","midi":98,"time":"376.31","velocity":0.25984251968503935,"duration":"0.19"},{"name":"F#4","midi":66,"time":"376.33","velocity":0.2283464566929134,"duration":"0.02"},{"name":"C6","midi":84,"time":"376.33","velocity":0.1732283464566929,"duration":"0.03"},{"name":"C#2","midi":37,"time":"376.34","velocity":0.33070866141732286,"duration":"0.02"},{"name":"F7","midi":101,"time":"376.34","velocity":0.2755905511811024,"duration":"1.10"},{"name":"G4","midi":67,"time":"376.35","velocity":0.41732283464566927,"duration":"0.02"},{"name":"G6","midi":91,"time":"376.35","velocity":0.2677165354330709,"duration":"0.10"},{"name":"F4","midi":65,"time":"376.36","velocity":0.48031496062992124,"duration":"0.02"},{"name":"B4","midi":71,"time":"376.36","velocity":0.3543307086614173,"duration":"0.02"},{"name":"E3","midi":52,"time":"376.37","velocity":0.5275590551181102,"duration":"0.01"},{"name":"C4","midi":60,"time":"376.37","velocity":0.4251968503937008,"duration":"0.05"},{"name":"G#4","midi":68,"time":"376.37","velocity":0.5118110236220472,"duration":"0.03"},{"name":"C#5","midi":73,"time":"376.37","velocity":0.4094488188976378,"duration":"0.02"},{"name":"F#5","midi":78,"time":"376.37","velocity":0.41732283464566927,"duration":"0.06"},{"name":"F6","midi":89,"time":"376.37","velocity":0.2204724409448819,"duration":"0.12"},{"name":"E2","midi":40,"time":"376.38","velocity":0.4566929133858268,"duration":"0.02"},{"name":"D#3","midi":51,"time":"376.38","velocity":0.5433070866141733,"duration":"0.01"},{"name":"A#4","midi":70,"time":"376.38","velocity":0.4094488188976378,"duration":"0.03"},{"name":"D#6","midi":87,"time":"376.38","velocity":0.2047244094488189,"duration":"0.06"},{"name":"D3","midi":50,"time":"376.40","velocity":0.5905511811023622,"duration":"0.35"},{"name":"F#4","midi":66,"time":"376.40","velocity":0.5039370078740157,"duration":"0.16"},{"name":"E5","midi":76,"time":"376.40","velocity":0.29133858267716534,"duration":"0.03"},{"name":"C6","midi":84,"time":"376.40","velocity":0.33070866141732286,"duration":"0.35"},{"name":"B5","midi":83,"time":"376.41","velocity":0.28346456692913385,"duration":"0.02"},{"name":"A#3","midi":58,"time":"376.42","velocity":0.4251968503937008,"duration":"0.03"},{"name":"A4","midi":69,"time":"376.42","velocity":0.4881889763779528,"duration":"0.03"},{"name":"C#5","midi":73,"time":"376.42","velocity":0.41732283464566927,"duration":"0.33"},{"name":"F5","midi":77,"time":"376.42","velocity":0.36220472440944884,"duration":"0.02"},{"name":"D6","midi":86,"time":"376.42","velocity":0.2755905511811024,"duration":"0.22"},{"name":"E5","midi":76,"time":"376.44","velocity":0.3464566929133858,"duration":"0.15"},{"name":"F#5","midi":78,"time":"376.44","velocity":0.5118110236220472,"duration":"0.33"},{"name":"B5","midi":83,"time":"376.44","velocity":0.1889763779527559,"duration":"0.15"},{"name":"G#4","midi":68,"time":"376.45","velocity":0.4094488188976378,"duration":"0.03"},{"name":"G6","midi":91,"time":"376.47","velocity":0.14960629921259844,"duration":"0.03"},{"name":"A3","midi":57,"time":"376.48","velocity":0.4015748031496063,"duration":"0.02"},{"name":"B4","midi":71,"time":"376.48","velocity":0.25984251968503935,"duration":"0.02"},{"name":"A5","midi":81,"time":"376.49","velocity":0.3543307086614173,"duration":"0.20"},{"name":"A#3","midi":58,"time":"376.50","velocity":0.3937007874015748,"duration":"0.02"},{"name":"D#6","midi":87,"time":"376.51","velocity":0.25196850393700787,"duration":"0.26"},{"name":"F6","midi":89,"time":"376.51","velocity":0.2677165354330709,"duration":"0.09"},{"name":"G6","midi":91,"time":"376.52","velocity":0.2677165354330709,"duration":"0.05"},{"name":"A#3","midi":58,"time":"376.53","velocity":0.4409448818897638,"duration":"0.02"},{"name":"G#4","midi":68,"time":"376.55","velocity":0.3937007874015748,"duration":"0.06"},{"name":"A3","midi":57,"time":"376.56","velocity":0.4645669291338583,"duration":"0.06"},{"name":"G6","midi":91,"time":"376.58","velocity":0.28346456692913385,"duration":"0.12"},{"name":"A#5","midi":82,"time":"376.59","velocity":0.2283464566929134,"duration":"0.03"},{"name":"G5","midi":79,"time":"376.60","velocity":0.2283464566929134,"duration":"0.02"},{"name":"F#4","midi":66,"time":"376.63","velocity":0.25984251968503935,"duration":"0.05"},{"name":"F5","midi":77,"time":"376.64","velocity":0.3228346456692913,"duration":"0.07"},{"name":"A3","midi":57,"time":"376.65","velocity":0.47244094488188976,"duration":"0.07"},{"name":"G#5","midi":80,"time":"376.66","velocity":0.2440944881889764,"duration":"0.12"},{"name":"F4","midi":65,"time":"376.67","velocity":0.31496062992125984,"duration":"0.03"},{"name":"D2","midi":38,"time":"376.70","velocity":0.31496062992125984,"duration":"0.05"},{"name":"C#4","midi":61,"time":"376.70","velocity":0.4015748031496063,"duration":"0.02"},{"name":"A#6","midi":94,"time":"376.70","velocity":0.25984251968503935,"duration":"0.48"},{"name":"F#4","midi":66,"time":"376.71","velocity":0.4645669291338583,"duration":"0.29"},{"name":"G6","midi":91,"time":"376.71","velocity":0.2283464566929134,"duration":"0.14"},{"name":"A#3","midi":58,"time":"376.72","velocity":0.3937007874015748,"duration":"0.03"},{"name":"B5","midi":83,"time":"376.73","velocity":0.1889763779527559,"duration":"0.03"},{"name":"B6","midi":95,"time":"376.73","velocity":0.25196850393700787,"duration":"0.29"},{"name":"D7","midi":98,"time":"376.73","velocity":0.2204724409448819,"duration":"0.71"},{"name":"E5","midi":76,"time":"376.74","velocity":0.3228346456692913,"duration":"0.02"},{"name":"E2","midi":40,"time":"376.76","velocity":0.5275590551181102,"duration":"0.05"},{"name":"C#4","midi":61,"time":"376.76","velocity":0.3858267716535433,"duration":"0.02"},{"name":"G#4","midi":68,"time":"376.76","velocity":0.47244094488188976,"duration":"0.02"},{"name":"C#3","midi":49,"time":"376.77","velocity":0.5433070866141733,"duration":"0.01"},{"name":"F5","midi":77,"time":"376.77","velocity":0.3543307086614173,"duration":"0.02"},{"name":"C6","midi":84,"time":"376.77","velocity":0.2440944881889764,"duration":"0.13"},{"name":"D3","midi":50,"time":"376.78","velocity":0.5826771653543307,"duration":"0.33"},{"name":"A3","midi":57,"time":"376.78","velocity":0.36220472440944884,"duration":"0.03"},{"name":"C#5","midi":73,"time":"376.78","velocity":0.31496062992125984,"duration":"0.16"},{"name":"E5","midi":76,"time":"376.78","velocity":0.25196850393700787,"duration":"0.02"},{"name":"B5","midi":83,"time":"376.78","velocity":0.2677165354330709,"duration":"0.14"},{"name":"E6","midi":88,"time":"376.78","velocity":0.36220472440944884,"duration":"0.41"},{"name":"F#5","midi":78,"time":"376.79","velocity":0.4881889763779528,"duration":"0.33"},{"name":"D#6","midi":87,"time":"376.79","velocity":0.1889763779527559,"duration":"0.06"},{"name":"A4","midi":69,"time":"376.80","velocity":0.48031496062992124,"duration":"0.14"},{"name":"G#6","midi":92,"time":"376.80","velocity":0.2047244094488189,"duration":"0.07"},{"name":"A#3","midi":58,"time":"376.81","velocity":0.2677165354330709,"duration":"0.05"},{"name":"C#4","midi":61,"time":"376.83","velocity":0.29133858267716534,"duration":"0.02"},{"name":"E5","midi":76,"time":"376.83","velocity":0.2125984251968504,"duration":"0.05"},{"name":"D6","midi":86,"time":"376.85","velocity":0.23622047244094488,"duration":"0.10"},{"name":"F6","midi":89,"time":"376.85","velocity":0.11811023622047244,"duration":"0.05"},{"name":"G6","midi":91,"time":"376.86","velocity":0.33858267716535434,"duration":"0.34"},{"name":"A3","midi":57,"time":"376.88","velocity":0.4330708661417323,"duration":"0.20"},{"name":"E5","midi":76,"time":"376.88","velocity":0.3464566929133858,"duration":"0.28"},{"name":"D#6","midi":87,"time":"376.90","velocity":0.2125984251968504,"duration":"0.09"},{"name":"G#6","midi":92,"time":"376.90","velocity":0.2125984251968504,"duration":"0.05"},{"name":"C6","midi":84,"time":"376.91","velocity":0.29133858267716534,"duration":"0.20"},{"name":"D2","midi":38,"time":"376.92","velocity":0.2755905511811024,"duration":"0.02"},{"name":"D5","midi":74,"time":"376.93","velocity":0.31496062992125984,"duration":"0.02"},{"name":"C#2","midi":37,"time":"376.94","velocity":0.2992125984251969,"duration":"0.02"},{"name":"C#4","midi":61,"time":"376.94","velocity":0.31496062992125984,"duration":"0.06"},{"name":"C#5","midi":73,"time":"376.95","velocity":0.3228346456692913,"duration":"0.05"},{"name":"A#5","midi":82,"time":"376.95","velocity":0.1968503937007874,"duration":"0.03"},{"name":"G#6","midi":92,"time":"376.95","velocity":0.1732283464566929,"duration":"0.09"},{"name":"D2","midi":38,"time":"376.97","velocity":0.2677165354330709,"duration":"0.02"},{"name":"G#5","midi":80,"time":"376.97","velocity":0.23622047244094488,"duration":"0.02"},{"name":"D6","midi":86,"time":"376.98","velocity":0.1968503937007874,"duration":"0.07"},{"name":"F6","midi":89,"time":"376.98","velocity":0.12598425196850394,"duration":"0.03"},{"name":"D5","midi":74,"time":"376.99","velocity":0.33070866141732286,"duration":"0.02"},{"name":"G#5","midi":80,"time":"377.00","velocity":0.3228346456692913,"duration":"0.12"},{"name":"C#5","midi":73,"time":"377.01","velocity":0.31496062992125984,"duration":"0.06"},{"name":"D#6","midi":87,"time":"377.01","velocity":0.25984251968503935,"duration":"0.13"},{"name":"F#4","midi":66,"time":"377.03","velocity":0.48031496062992124,"duration":"0.27"},{"name":"D5","midi":74,"time":"377.05","velocity":0.2283464566929134,"duration":"0.07"},{"name":"B5","midi":83,"time":"377.06","velocity":0.2047244094488189,"duration":"0.09"},{"name":"A5","midi":81,"time":"377.08","velocity":0.4094488188976378,"duration":"0.30"},{"name":"F6","midi":89,"time":"377.09","velocity":0.1968503937007874,"duration":"0.19"},{"name":"B6","midi":95,"time":"377.09","velocity":0.25984251968503935,"duration":"0.26"},{"name":"D#3","midi":51,"time":"377.10","velocity":0.5433070866141733,"duration":"0.01"},{"name":"A4","midi":69,"time":"377.10","velocity":0.3700787401574803,"duration":"0.03"},{"name":"C5","midi":72,"time":"377.10","velocity":0.29133858267716534,"duration":"0.06"},{"name":"G5","midi":79,"time":"377.10","velocity":0.29133858267716534,"duration":"0.02"},{"name":"A2","midi":45,"time":"377.12","velocity":0.5984251968503937,"duration":"0.01"},{"name":"E3","midi":52,"time":"377.12","velocity":0.5118110236220472,"duration":"0.03"},{"name":"D6","midi":86,"time":"377.12","velocity":0.23622047244094488,"duration":"0.03"},{"name":"G#2","midi":44,"time":"377.13","velocity":0.5433070866141733,"duration":"0.02"},{"name":"A#3","midi":58,"time":"377.13","velocity":0.4251968503937008,"duration":"0.02"},{"name":"D4","midi":62,"time":"377.13","velocity":0.4094488188976378,"duration":"0.36"},{"name":"D#1","midi":27,"time":"377.14","velocity":0.5275590551181102,"duration":"0.01"},{"name":"G#5","midi":80,"time":"377.14","velocity":0.18110236220472442,"duration":"0.05"},{"name":"C#6","midi":85,"time":"377.14","velocity":0.4566929133858268,"duration":"0.87"},{"name":"G#6","midi":92,"time":"377.14","velocity":0.29133858267716534,"duration":"0.38"},{"name":"F1","midi":29,"time":"377.15","velocity":0.5984251968503937,"duration":"0.02"},{"name":"D#3","midi":51,"time":"377.15","velocity":0.5590551181102362,"duration":"0.01"},{"name":"A3","midi":57,"time":"377.15","velocity":0.3937007874015748,"duration":"0.03"},{"name":"C#3","midi":49,"time":"377.16","velocity":0.5275590551181102,"duration":"0.01"},{"name":"B4","midi":71,"time":"377.16","velocity":0.25984251968503935,"duration":"0.02"},{"name":"D#6","midi":87,"time":"377.16","velocity":0.18110236220472442,"duration":"0.06"},{"name":"C7","midi":96,"time":"377.16","velocity":0.2125984251968504,"duration":"0.29"},{"name":"G#1","midi":32,"time":"377.17","velocity":0.5275590551181102,"duration":"0.01"},{"name":"D3","midi":50,"time":"377.17","velocity":0.5196850393700787,"duration":"0.06"},{"name":"A4","midi":69,"time":"377.17","velocity":0.4330708661417323,"duration":"0.34"},{"name":"C5","midi":72,"time":"377.19","velocity":0.2047244094488189,"duration":"0.03"},{"name":"E7","midi":100,"time":"377.19","velocity":0.2204724409448819,"duration":"0.23"},{"name":"A3","midi":57,"time":"377.20","velocity":0.29133858267716534,"duration":"0.02"},{"name":"E5","midi":76,"time":"377.20","velocity":0.2677165354330709,"duration":"0.12"},{"name":"A#6","midi":94,"time":"377.20","velocity":0.11811023622047244,"duration":"0.03"},{"name":"E6","midi":88,"time":"377.21","velocity":0.31496062992125984,"duration":"0.21"},{"name":"C#5","midi":73,"time":"377.22","velocity":0.3937007874015748,"duration":"0.30"},{"name":"C6","midi":84,"time":"377.22","velocity":0.18110236220472442,"duration":"0.10"},{"name":"D3","midi":50,"time":"377.24","velocity":0.5669291338582677,"duration":"0.23"},{"name":"A3","midi":57,"time":"377.24","velocity":0.4330708661417323,"duration":"0.23"},{"name":"D6","midi":86,"time":"377.24","velocity":0.1968503937007874,"duration":"0.13"},{"name":"D#6","midi":87,"time":"377.26","velocity":0.07874015748031496,"duration":"0.03"},{"name":"A#6","midi":94,"time":"377.26","velocity":0.1732283464566929,"duration":"0.10"},{"name":"G6","midi":91,"time":"377.30","velocity":0.10236220472440945,"duration":"0.03"},{"name":"A#5","midi":82,"time":"377.31","velocity":0.1732283464566929,"duration":"0.03"},{"name":"D#6","midi":87,"time":"377.33","velocity":0.18110236220472442,"duration":"0.16"},{"name":"A#1","midi":34,"time":"377.34","velocity":0.30708661417322836,"duration":"0.02"},{"name":"C6","midi":84,"time":"377.34","velocity":0.2047244094488189,"duration":"0.07"},{"name":"F5","midi":77,"time":"377.36","velocity":0.33070866141732286,"duration":"0.03"},{"name":"B6","midi":95,"time":"377.36","velocity":0.11811023622047244,"duration":"0.07"},{"name":"F#4","midi":66,"time":"377.37","velocity":0.4566929133858268,"duration":"0.14"},{"name":"G#5","midi":80,"time":"377.37","velocity":0.2283464566929134,"duration":"0.02"},{"name":"B5","midi":83,"time":"377.37","velocity":0.23622047244094488,"duration":"0.20"},{"name":"G7","midi":103,"time":"377.37","velocity":0.15748031496062992,"duration":"0.08"},{"name":"E5","midi":76,"time":"377.40","velocity":0.2992125984251969,"duration":"0.02"},{"name":"F#5","midi":78,"time":"377.40","velocity":0.47244094488188976,"duration":"0.12"},{"name":"F6","midi":89,"time":"377.40","velocity":0.07874015748031496,"duration":"0.03"},{"name":"G6","midi":91,"time":"377.40","velocity":0.16535433070866143,"duration":"0.03"},{"name":"C6","midi":84,"time":"377.42","velocity":0.14960629921259844,"duration":"0.07"},{"name":"G#5","midi":80,"time":"377.43","velocity":0.15748031496062992,"duration":"0.03"},{"name":"E6","midi":88,"time":"377.43","velocity":0.1968503937007874,"duration":"0.07"},{"name":"E5","midi":76,"time":"377.44","velocity":0.25196850393700787,"duration":"0.02"},{"name":"G6","midi":91,"time":"377.44","velocity":0.23622047244094488,"duration":"0.05"},{"name":"E7","midi":100,"time":"377.44","velocity":0.2047244094488189,"duration":"0.16"},{"name":"A#6","midi":94,"time":"377.45","velocity":0.25984251968503935,"duration":"0.07"},{"name":"F5","midi":77,"time":"377.47","velocity":0.2677165354330709,"duration":"0.02"},{"name":"D6","midi":86,"time":"377.47","velocity":0.23622047244094488,"duration":"0.08"},{"name":"C#3","midi":49,"time":"377.48","velocity":0.5354330708661418,"duration":"0.01"},{"name":"G#3","midi":56,"time":"377.48","velocity":0.4094488188976378,"duration":"0.02"},{"name":"A#5","midi":82,"time":"377.48","velocity":0.2283464566929134,"duration":"0.05"},{"name":"C7","midi":96,"time":"377.48","velocity":0.2677165354330709,"duration":"0.30"},{"name":"F7","midi":101,"time":"377.48","velocity":0.2283464566929134,"duration":"0.15"},{"name":"E2","midi":40,"time":"377.49","velocity":0.6220472440944882,"duration":"0.01"},{"name":"F2","midi":41,"time":"377.50","velocity":0.6377952755905512,"duration":"0.01"},{"name":"B4","midi":71,"time":"377.50","velocity":0.28346456692913385,"duration":"0.02"},{"name":"F5","midi":77,"time":"377.50","velocity":0.2440944881889764,"duration":"0.03"},{"name":"G#5","midi":80,"time":"377.50","velocity":0.2677165354330709,"duration":"0.02"},{"name":"D#6","midi":87,"time":"377.50","velocity":0.18110236220472442,"duration":"0.06"},{"name":"A6","midi":93,"time":"377.50","velocity":0.25196850393700787,"duration":"0.14"},{"name":"D#2","midi":39,"time":"377.51","velocity":0.5275590551181102,"duration":"0.01"},{"name":"G1","midi":31,"time":"377.52","velocity":0.5590551181102362,"duration":"0.01"},{"name":"D3","midi":50,"time":"377.52","velocity":0.6062992125984252,"duration":"0.33"},{"name":"F#4","midi":66,"time":"377.52","velocity":0.4645669291338583,"duration":"0.34"},{"name":"A4","midi":69,"time":"377.52","velocity":0.33858267716535434,"duration":"0.05"},{"name":"C5","midi":72,"time":"377.52","velocity":0.2125984251968504,"duration":"0.03"},{"name":"D5","midi":74,"time":"377.52","velocity":0.1889763779527559,"duration":"0.06"},{"name":"E5","midi":76,"time":"377.52","velocity":0.15748031496062992,"duration":"0.07"},{"name":"A5","midi":81,"time":"377.52","velocity":0.3700787401574803,"duration":"0.36"},{"name":"C6","midi":84,"time":"377.52","velocity":0.2283464566929134,"duration":"0.05"},{"name":"E6","midi":88,"time":"377.52","velocity":0.23622047244094488,"duration":"0.10"},{"name":"E1","midi":28,"time":"377.53","velocity":0.5433070866141733,"duration":"0.01"},{"name":"A3","midi":57,"time":"377.53","velocity":0.33858267716535434,"duration":"0.03"},{"name":"G#6","midi":92,"time":"377.53","velocity":0.16535433070866143,"duration":"0.08"},{"name":"A#6","midi":94,"time":"377.53","velocity":0.15748031496062992,"duration":"0.22"},{"name":"D#1","midi":27,"time":"377.55","velocity":0.5196850393700787,"duration":"0.01"},{"name":"B4","midi":71,"time":"377.56","velocity":0.25984251968503935,"duration":"0.02"},{"name":"G#5","midi":80,"time":"377.57","velocity":0.14960629921259844,"duration":"0.03"},{"name":"A#5","midi":82,"time":"377.57","velocity":0.09448818897637795,"duration":"0.07"},{"name":"G6","midi":91,"time":"377.57","velocity":0.13385826771653545,"duration":"0.07"},{"name":"B1","midi":35,"time":"377.58","velocity":0.4094488188976378,"duration":"0.02"},{"name":"C#5","midi":73,"time":"377.58","velocity":0.29133858267716534,"duration":"0.10"},{"name":"A3","midi":57,"time":"377.59","velocity":0.33858267716535434,"duration":"0.02"},{"name":"C6","midi":84,"time":"377.59","velocity":0.25196850393700787,"duration":"0.12"},{"name":"D6","midi":86,"time":"377.59","velocity":0.1732283464566929,"duration":"0.13"},{"name":"F6","midi":89,"time":"377.62","velocity":0.15748031496062992,"duration":"0.05"},{"name":"A3","midi":57,"time":"377.63","velocity":0.4330708661417323,"duration":"0.22"},{"name":"E5","midi":76,"time":"377.63","velocity":0.2283464566929134,"duration":"0.13"},{"name":"G#6","midi":92,"time":"377.63","velocity":0.2125984251968504,"duration":"0.23"},{"name":"F7","midi":101,"time":"377.64","velocity":0.18110236220472442,"duration":"0.09"},{"name":"G7","midi":103,"time":"377.64","velocity":0.13385826771653545,"duration":"0.17"},{"name":"C5","midi":72,"time":"377.66","velocity":0.2125984251968504,"duration":"0.03"},{"name":"E6","midi":88,"time":"377.66","velocity":0.3937007874015748,"duration":"0.98"},{"name":"G#5","midi":80,"time":"377.69","velocity":0.14960629921259844,"duration":"0.03"},{"name":"C#5","midi":73,"time":"377.70","velocity":0.3228346456692913,"duration":"0.03"},{"name":"D#6","midi":87,"time":"377.71","velocity":0.14960629921259844,"duration":"0.05"},{"name":"F6","midi":89,"time":"377.71","velocity":0.15748031496062992,"duration":"0.03"},{"name":"B5","midi":83,"time":"377.73","velocity":0.16535433070866143,"duration":"0.05"},{"name":"B4","midi":71,"time":"377.74","velocity":0.2047244094488189,"duration":"0.03"},{"name":"C6","midi":84,"time":"377.74","velocity":0.10236220472440945,"duration":"0.03"},{"name":"E5","midi":76,"time":"377.78","velocity":0.2755905511811024,"duration":"0.09"},{"name":"B6","midi":95,"time":"377.78","velocity":0.13385826771653545,"duration":"0.03"},{"name":"C#5","midi":73,"time":"377.79","velocity":0.3937007874015748,"duration":"0.09"},{"name":"D#6","midi":87,"time":"377.79","velocity":0.28346456692913385,"duration":"0.12"},{"name":"C2","midi":36,"time":"377.80","velocity":0.2755905511811024,"duration":"0.02"},{"name":"C6","midi":84,"time":"377.80","velocity":0.33070866141732286,"duration":"0.13"},{"name":"G6","midi":91,"time":"377.80","velocity":0.28346456692913385,"duration":"0.23"},{"name":"A#6","midi":94,"time":"377.83","velocity":0.2204724409448819,"duration":"0.17"},{"name":"B6","midi":95,"time":"377.83","velocity":0.29133858267716534,"duration":"0.29"},{"name":"F7","midi":101,"time":"377.83","velocity":0.2440944881889764,"duration":"0.13"},{"name":"A6","midi":93,"time":"377.84","velocity":0.44881889763779526,"duration":"2.72"},{"name":"D#3","midi":51,"time":"377.85","velocity":0.5354330708661418,"duration":"0.01"},{"name":"F6","midi":89,"time":"377.85","velocity":0.25984251968503935,"duration":"0.13"},{"name":"D7","midi":98,"time":"377.85","velocity":0.28346456692913385,"duration":"0.08"},{"name":"C#4","midi":61,"time":"377.86","velocity":0.5039370078740157,"duration":"0.02"},{"name":"A#4","midi":70,"time":"377.86","velocity":0.49606299212598426,"duration":"0.05"},{"name":"G#5","midi":80,"time":"377.86","velocity":0.4094488188976378,"duration":"0.05"},{"name":"F#4","midi":66,"time":"377.87","velocity":0.4566929133858268,"duration":"0.06"},{"name":"D#5","midi":75,"time":"377.87","velocity":0.4251968503937008,"duration":"0.03"},{"name":"B5","midi":83,"time":"377.87","velocity":0.29133858267716534,"duration":"0.10"},{"name":"C#3","midi":49,"time":"377.88","velocity":0.5118110236220472,"duration":"0.01"},{"name":"D3","midi":50,"time":"377.90","velocity":0.5748031496062992,"duration":"0.35"},{"name":"A3","midi":57,"time":"377.90","velocity":0.48031496062992124,"duration":"0.12"},{"name":"A5","midi":81,"time":"377.90","velocity":0.4645669291338583,"duration":"0.26"},{"name":"D6","midi":86,"time":"377.90","velocity":0.25196850393700787,"duration":"0.14"},{"name":"D#2","midi":39,"time":"377.91","velocity":0.2283464566929134,"duration":"0.02"},{"name":"G#4","midi":68,"time":"377.91","velocity":0.4094488188976378,"duration":"0.12"},{"name":"B4","midi":71,"time":"377.91","velocity":0.3228346456692913,"duration":"0.02"},{"name":"E5","midi":76,"time":"377.91","velocity":0.3228346456692913,"duration":"0.08"},{"name":"G5","midi":79,"time":"377.91","velocity":0.28346456692913385,"duration":"0.06"},{"name":"C5","midi":72,"time":"377.92","velocity":0.33070866141732286,"duration":"0.06"},{"name":"C#5","midi":73,"time":"377.97","velocity":0.29133858267716534,"duration":"0.03"},{"name":"D#6","midi":87,"time":"377.97","velocity":0.2204724409448819,"duration":"0.16"},{"name":"F7","midi":101,"time":"377.97","velocity":0.3464566929133858,"duration":"0.85"},{"name":"C#2","midi":37,"time":"377.99","velocity":0.14960629921259844,"duration":"0.05"},{"name":"D5","midi":74,"time":"378.00","velocity":0.2992125984251969,"duration":"0.06"},{"name":"E5","midi":76,"time":"378.00","velocity":0.3779527559055118,"duration":"0.64"},{"name":"A#3","midi":58,"time":"378.01","velocity":0.33070866141732286,"duration":"0.06"},{"name":"C#5","midi":73,"time":"378.01","velocity":0.1732283464566929,"duration":"0.03"},{"name":"G5","midi":79,"time":"378.01","velocity":0.2440944881889764,"duration":"0.02"},{"name":"A4","midi":69,"time":"378.02","velocity":0.4409448818897638,"duration":"0.15"},{"name":"C#6","midi":85,"time":"378.02","velocity":0.33070866141732286,"duration":"0.21"},{"name":"F6","midi":89,"time":"378.02","velocity":0.10236220472440945,"duration":"0.03"},{"name":"F#4","midi":66,"time":"378.03","velocity":0.25196850393700787,"duration":"0.09"},{"name":"G#5","midi":80,"time":"378.03","velocity":0.25984251968503935,"duration":"0.02"},{"name":"C#2","midi":37,"time":"378.05","velocity":0.2283464566929134,"duration":"0.03"},{"name":"F#5","midi":78,"time":"378.06","velocity":0.28346456692913385,"duration":"0.17"},{"name":"A#6","midi":94,"time":"378.06","velocity":0.1889763779527559,"duration":"0.07"},{"name":"A3","midi":57,"time":"378.07","velocity":0.3228346456692913,"duration":"0.05"},{"name":"G#5","midi":80,"time":"378.07","velocity":0.33070866141732286,"duration":"0.03"},{"name":"C#2","midi":37,"time":"378.09","velocity":0.23622047244094488,"duration":"0.02"},{"name":"G6","midi":91,"time":"378.09","velocity":0.30708661417322836,"duration":"0.48"},{"name":"C#5","midi":73,"time":"378.12","velocity":0.30708661417322836,"duration":"0.16"},{"name":"G#5","midi":80,"time":"378.12","velocity":0.31496062992125984,"duration":"0.07"},{"name":"C#4","midi":61,"time":"378.13","velocity":0.3228346456692913,"duration":"0.03"},{"name":"B5","midi":83,"time":"378.13","velocity":0.2125984251968504,"duration":"0.09"},{"name":"D6","midi":86,"time":"378.13","velocity":0.11811023622047244,"duration":"0.03"},{"name":"F6","midi":89,"time":"378.13","velocity":0.10236220472440945,"duration":"0.03"},{"name":"D7","midi":98,"time":"378.13","velocity":0.14173228346456693,"duration":"0.07"},{"name":"D2","midi":38,"time":"378.14","velocity":0.2677165354330709,"duration":"0.03"},{"name":"A#6","midi":94,"time":"378.14","velocity":0.12598425196850394,"duration":"0.03"},{"name":"A3","midi":57,"time":"378.15","velocity":0.44881889763779526,"duration":"0.07"},{"name":"F#4","midi":66,"time":"378.15","velocity":0.2440944881889764,"duration":"0.10"},{"name":"A5","midi":81,"time":"378.16","velocity":0.5196850393700787,"duration":"0.22"},{"name":"C6","midi":84,"time":"378.16","velocity":0.2047244094488189,"duration":"0.15"},{"name":"D#6","midi":87,"time":"378.17","velocity":0.18110236220472442,"duration":"0.09"},{"name":"C#2","midi":37,"time":"378.20","velocity":0.2440944881889764,"duration":"0.02"},{"name":"A#6","midi":94,"time":"378.20","velocity":0.2047244094488189,"duration":"0.09"},{"name":"A#3","midi":58,"time":"378.22","velocity":0.36220472440944884,"duration":"0.03"},{"name":"F6","midi":89,"time":"378.23","velocity":0.2047244094488189,"duration":"0.06"},{"name":"F#5","midi":78,"time":"378.24","velocity":0.2440944881889764,"duration":"0.12"},{"name":"D6","midi":86,"time":"378.24","velocity":0.12598425196850394,"duration":"0.06"},{"name":"D7","midi":98,"time":"378.24","velocity":0.2755905511811024,"duration":"0.05"},{"name":"D#2","midi":39,"time":"378.26","velocity":0.48031496062992124,"duration":"0.02"},{"name":"D3","midi":50,"time":"378.26","velocity":0.5826771653543307,"duration":"0.34"},{"name":"A3","midi":57,"time":"378.26","velocity":0.4251968503937008,"duration":"0.08"},{"name":"G#6","midi":92,"time":"378.26","velocity":0.2047244094488189,"duration":"0.08"},{"name":"B6","midi":95,"time":"378.26","velocity":0.2440944881889764,"duration":"0.05"},{"name":"B4","midi":71,"time":"378.27","velocity":0.2677165354330709,"duration":"0.02"},{"name":"G#5","midi":80,"time":"378.28","velocity":0.29133858267716534,"duration":"0.02"},{"name":"D#6","midi":87,"time":"378.28","velocity":0.18110236220472442,"duration":"0.21"},{"name":"G4","midi":67,"time":"378.29","velocity":0.3779527559055118,"duration":"0.02"},{"name":"C#5","midi":73,"time":"378.29","velocity":0.3228346456692913,"duration":"0.07"},{"name":"C#4","midi":61,"time":"378.30","velocity":0.2047244094488189,"duration":"0.05"},{"name":"A#6","midi":94,"time":"378.30","velocity":0.1732283464566929,"duration":"0.13"},{"name":"D2","midi":38,"time":"378.31","velocity":0.2677165354330709,"duration":"0.02"},{"name":"G#5","midi":80,"time":"378.31","velocity":0.2677165354330709,"duration":"0.09"},{"name":"B5","midi":83,"time":"378.31","velocity":0.2204724409448819,"duration":"0.10"},{"name":"D7","midi":98,"time":"378.31","velocity":0.18110236220472442,"duration":"0.03"},{"name":"G4","midi":67,"time":"378.33","velocity":0.3228346456692913,"duration":"0.02"},{"name":"B4","midi":71,"time":"378.34","velocity":0.2992125984251969,"duration":"0.08"},{"name":"A3","midi":57,"time":"378.35","velocity":0.48031496062992124,"duration":"0.24"},{"name":"F#4","midi":66,"time":"378.35","velocity":0.30708661417322836,"duration":"0.07"},{"name":"C#2","midi":37,"time":"378.36","velocity":0.2283464566929134,"duration":"0.02"},{"name":"G5","midi":79,"time":"378.36","velocity":0.16535433070866143,"duration":"0.03"},{"name":"C6","midi":84,"time":"378.36","velocity":0.2125984251968504,"duration":"0.09"},{"name":"C#6","midi":85,"time":"378.37","velocity":0.31496062992125984,"duration":"0.24"},{"name":"F6","midi":89,"time":"378.38","velocity":0.13385826771653545,"duration":"0.08"},{"name":"D7","midi":98,"time":"378.38","velocity":0.16535433070866143,"duration":"0.07"},{"name":"A5","midi":81,"time":"378.40","velocity":0.5354330708661418,"duration":"0.65"},{"name":"G5","midi":79,"time":"378.41","velocity":0.2204724409448819,"duration":"0.03"},{"name":"C5","midi":72,"time":"378.42","velocity":0.25196850393700787,"duration":"0.03"},{"name":"B5","midi":83,"time":"378.43","velocity":0.25984251968503935,"duration":"0.22"},{"name":"C#4","midi":61,"time":"378.44","velocity":0.2440944881889764,"duration":"0.02"},{"name":"G#6","midi":92,"time":"378.44","velocity":0.2204724409448819,"duration":"0.05"},{"name":"A#6","midi":94,"time":"378.44","velocity":0.1889763779527559,"duration":"0.22"},{"name":"C7","midi":96,"time":"378.44","velocity":0.2125984251968504,"duration":"0.34"},{"name":"G#4","midi":68,"time":"378.45","velocity":0.33858267716535434,"duration":"0.02"},{"name":"F#4","midi":66,"time":"378.48","velocity":0.1732283464566929,"duration":"0.05"},{"name":"C#5","midi":73,"time":"378.48","velocity":0.2755905511811024,"duration":"0.14"},{"name":"C6","midi":84,"time":"378.48","velocity":0.28346456692913385,"duration":"0.20"},{"name":"C#4","midi":61,"time":"378.50","velocity":0.2047244094488189,"duration":"0.03"},{"name":"G#6","midi":92,"time":"378.50","velocity":0.14173228346456693,"duration":"0.03"},{"name":"D6","midi":86,"time":"378.53","velocity":0.12598425196850394,"duration":"0.05"},{"name":"D#6","midi":87,"time":"378.53","velocity":0.11811023622047244,"duration":"0.05"},{"name":"C#2","midi":37,"time":"378.55","velocity":0.2755905511811024,"duration":"0.05"},{"name":"C#4","midi":61,"time":"378.55","velocity":0.1889763779527559,"duration":"0.03"},{"name":"F#5","midi":78,"time":"378.55","velocity":0.30708661417322836,"duration":"0.09"},{"name":"G#5","midi":80,"time":"378.56","velocity":0.33858267716535434,"duration":"0.02"},{"name":"D#7","midi":99,"time":"378.57","velocity":0.14960629921259844,"duration":"0.10"},{"name":"F4","midi":65,"time":"378.59","velocity":0.28346456692913385,"duration":"0.02"},{"name":"G#5","midi":80,"time":"378.59","velocity":0.2440944881889764,"duration":"0.02"},{"name":"D#6","midi":87,"time":"378.59","velocity":0.1732283464566929,"duration":"0.06"},{"name":"G6","midi":91,"time":"378.59","velocity":0.2755905511811024,"duration":"0.31"},{"name":"A2","midi":45,"time":"378.60","velocity":0.5826771653543307,"duration":"0.01"},{"name":"G3","midi":55,"time":"378.60","velocity":0.4330708661417323,"duration":"0.02"},{"name":"D7","midi":98,"time":"378.60","velocity":0.1968503937007874,"duration":"0.08"},{"name":"F#2","midi":42,"time":"378.62","velocity":0.6141732283464567,"duration":"0.01"},{"name":"F#4","midi":66,"time":"378.62","velocity":0.3464566929133858,"duration":"0.02"},{"name":"D6","midi":86,"time":"378.62","velocity":0.07874015748031496,"duration":"0.03"},{"name":"F6","midi":89,"time":"378.62","velocity":0.14173228346456693,"duration":"0.03"},{"name":"G#2","midi":44,"time":"378.63","velocity":0.5275590551181102,"duration":"0.01"},{"name":"C#3","midi":49,"time":"378.63","velocity":0.5433070866141733,"duration":"0.01"},{"name":"A#3","midi":58,"time":"378.63","velocity":0.41732283464566927,"duration":"0.02"},{"name":"A4","midi":69,"time":"378.63","velocity":0.5984251968503937,"duration":"0.81"},{"name":"D5","midi":74,"time":"378.63","velocity":0.30708661417322836,"duration":"0.02"},{"name":"C#6","midi":85,"time":"378.63","velocity":0.3543307086614173,"duration":"1.13"},{"name":"D3","midi":50,"time":"378.64","velocity":0.6220472440944882,"duration":"0.36"},{"name":"F5","midi":77,"time":"378.64","velocity":0.28346456692913385,"duration":"0.03"},{"name":"F1","midi":29,"time":"378.65","velocity":0.5275590551181102,"duration":"0.02"},{"name":"A3","midi":57,"time":"378.65","velocity":0.3543307086614173,"duration":"0.03"},{"name":"E4","midi":64,"time":"378.65","velocity":0.18110236220472442,"duration":"0.03"},{"name":"F#5","midi":78,"time":"378.65","velocity":0.14173228346456693,"duration":"0.05"},{"name":"E6","midi":88,"time":"378.65","velocity":0.3779527559055118,"duration":"0.72"},{"name":"D6","midi":86,"time":"378.66","velocity":0.14960629921259844,"duration":"0.05"},{"name":"E5","midi":76,"time":"378.67","velocity":0.29133858267716534,"duration":"0.13"},{"name":"B5","midi":83,"time":"378.67","velocity":0.14960629921259844,"duration":"0.08"},{"name":"G#6","midi":92,"time":"378.67","velocity":0.13385826771653545,"duration":"0.08"},{"name":"C5","midi":72,"time":"378.69","velocity":0.18110236220472442,"duration":"0.07"},{"name":"A#6","midi":94,"time":"378.69","velocity":0.10236220472440945,"duration":"0.06"},{"name":"A3","midi":57,"time":"378.70","velocity":0.2755905511811024,"duration":"0.03"},{"name":"D#7","midi":99,"time":"378.70","velocity":0.25196850393700787,"duration":"0.64"},{"name":"F#5","midi":78,"time":"378.72","velocity":0.33070866141732286,"duration":"0.17"},{"name":"C6","midi":84,"time":"378.72","velocity":0.23622047244094488,"duration":"0.17"},{"name":"D6","midi":86,"time":"378.73","velocity":0.1968503937007874,"duration":"0.09"},{"name":"C2","midi":36,"time":"378.74","velocity":0.29133858267716534,"duration":"0.02"},{"name":"A3","midi":57,"time":"378.74","velocity":0.4251968503937008,"duration":"0.27"},{"name":"F6","midi":89,"time":"378.74","velocity":0.16535433070866143,"duration":"0.13"},{"name":"D7","midi":98,"time":"378.76","velocity":0.2047244094488189,"duration":"0.14"},{"name":"F#1","midi":30,"time":"378.77","velocity":0.2992125984251969,"duration":"0.02"},{"name":"C#5","midi":73,"time":"378.78","velocity":0.2440944881889764,"duration":"0.03"},{"name":"D#6","midi":87,"time":"378.78","velocity":0.11023622047244094,"duration":"0.05"},{"name":"G#1","midi":32,"time":"378.79","velocity":0.33070866141732286,"duration":"0.02"},{"name":"G#6","midi":92,"time":"378.79","velocity":0.18110236220472442,"duration":"0.20"},{"name":"A#6","midi":94,"time":"378.79","velocity":0.13385826771653545,"duration":"0.03"},{"name":"A#5","midi":82,"time":"378.80","velocity":0.14173228346456693,"duration":"0.03"},{"name":"G1","midi":31,"time":"378.81","velocity":0.31496062992125984,"duration":"0.02"},{"name":"D5","midi":74,"time":"378.81","velocity":0.1889763779527559,"duration":"0.03"},{"name":"E5","midi":76,"time":"378.81","velocity":0.4330708661417323,"duration":"0.16"},{"name":"G5","midi":79,"time":"378.81","velocity":0.10236220472440945,"duration":"0.03"},{"name":"C5","midi":72,"time":"378.83","velocity":0.2047244094488189,"duration":"0.06"},{"name":"A#1","midi":34,"time":"378.84","velocity":0.31496062992125984,"duration":"0.02"},{"name":"B5","midi":83,"time":"378.84","velocity":0.25984251968503935,"duration":"0.15"},{"name":"A#6","midi":94,"time":"378.84","velocity":0.11811023622047244,"duration":"0.14"},{"name":"F7","midi":101,"time":"378.84","velocity":0.1732283464566929,"duration":"0.03"},{"name":"D6","midi":86,"time":"378.85","velocity":0.14173228346456693,"duration":"0.06"},{"name":"C#5","midi":73,"time":"378.87","velocity":0.29133858267716534,"duration":"0.17"},{"name":"G5","midi":79,"time":"378.88","velocity":0.2125984251968504,"duration":"0.06"},{"name":"D#6","midi":87,"time":"378.90","velocity":0.2125984251968504,"duration":"0.08"},{"name":"F7","midi":101,"time":"378.90","velocity":0.11811023622047244,"duration":"0.05"},{"name":"C#4","midi":61,"time":"378.91","velocity":0.2440944881889764,"duration":"0.02"},{"name":"G6","midi":91,"time":"378.92","velocity":0.2283464566929134,"duration":"0.16"},{"name":"C2","midi":36,"time":"378.93","velocity":0.2755905511811024,"duration":"0.02"},{"name":"C6","midi":84,"time":"378.93","velocity":0.33070866141732286,"duration":"0.30"},{"name":"D6","midi":86,"time":"378.95","velocity":0.1732283464566929,"duration":"0.06"},{"name":"F5","midi":77,"time":"378.97","velocity":0.2283464566929134,"duration":"0.03"},{"name":"G5","midi":79,"time":"378.97","velocity":0.1968503937007874,"duration":"0.03"},{"name":"B1","midi":35,"time":"378.99","velocity":0.4566929133858268,"duration":"0.02"},{"name":"E5","midi":76,"time":"378.99","velocity":0.2677165354330709,"duration":"0.05"},{"name":"A#5","midi":82,"time":"378.99","velocity":0.2125984251968504,"duration":"0.05"},{"name":"D7","midi":98,"time":"378.99","velocity":0.2440944881889764,"duration":"0.15"},{"name":"F7","midi":101,"time":"378.99","velocity":0.30708661417322836,"duration":"0.49"},{"name":"D#3","midi":51,"time":"379.00","velocity":0.5354330708661418,"duration":"0.03"},{"name":"F#5","midi":78,"time":"379.00","velocity":0.31496062992125984,"duration":"0.36"},{"name":"G#6","midi":92,"time":"379.00","velocity":0.1968503937007874,"duration":"0.08"},{"name":"D#2","midi":39,"time":"379.01","velocity":0.5118110236220472,"duration":"0.01"},{"name":"B6","midi":95,"time":"379.01","velocity":0.11023622047244094,"duration":"0.05"},{"name":"E2","midi":40,"time":"379.02","velocity":0.49606299212598426,"duration":"0.02"},{"name":"A3","midi":57,"time":"379.02","velocity":0.33070866141732286,"duration":"0.07"},{"name":"F#4","midi":66,"time":"379.02","velocity":0.23622047244094488,"duration":"0.02"},{"name":"D3","midi":50,"time":"379.03","velocity":0.5669291338582677,"duration":"0.36"},{"name":"B4","midi":71,"time":"379.03","velocity":0.2440944881889764,"duration":"0.03"},{"name":"F6","midi":89,"time":"379.03","velocity":0.18110236220472442,"duration":"0.07"},{"name":"D#6","midi":87,"time":"379.05","velocity":0.2047244094488189,"duration":"0.19"},{"name":"F#4","midi":66,"time":"379.06","velocity":0.1968503937007874,"duration":"0.03"},{"name":"D6","midi":86,"time":"379.06","velocity":0.2204724409448819,"duration":"0.06"},{"name":"C5","midi":72,"time":"379.07","velocity":0.18110236220472442,"duration":"0.05"},{"name":"E5","midi":76,"time":"379.08","velocity":0.28346456692913385,"duration":"0.26"},{"name":"A3","midi":57,"time":"379.10","velocity":0.5275590551181102,"duration":"0.30"},{"name":"G#6","midi":92,"time":"379.10","velocity":0.2204724409448819,"duration":"0.16"},{"name":"G6","midi":91,"time":"379.12","velocity":0.23622047244094488,"duration":"0.06"},{"name":"D2","midi":38,"time":"379.13","velocity":0.2440944881889764,"duration":"0.03"},{"name":"C#5","midi":73,"time":"379.13","velocity":0.29133858267716534,"duration":"0.10"},{"name":"F#4","midi":66,"time":"379.14","velocity":0.28346456692913385,"duration":"0.12"},{"name":"C#2","midi":37,"time":"379.16","velocity":0.25984251968503935,"duration":"0.02"},{"name":"D6","midi":86,"time":"379.16","velocity":0.18110236220472442,"duration":"0.05"},{"name":"D7","midi":98,"time":"379.16","velocity":0.1968503937007874,"duration":"0.06"},{"name":"G7","midi":103,"time":"379.17","velocity":0.2047244094488189,"duration":"0.52"},{"name":"C#2","midi":37,"time":"379.20","velocity":0.30708661417322836,"duration":"0.02"},{"name":"A#6","midi":94,"time":"379.21","velocity":0.14173228346456693,"duration":"0.03"},{"name":"D2","midi":38,"time":"379.22","velocity":0.2677165354330709,"duration":"0.03"},{"name":"D6","midi":86,"time":"379.22","velocity":0.15748031496062992,"duration":"0.06"},{"name":"B6","midi":95,"time":"379.23","velocity":0.18110236220472442,"duration":"0.07"},{"name":"C#5","midi":73,"time":"379.24","velocity":0.2677165354330709,"duration":"0.07"},{"name":"C6","midi":84,"time":"379.26","velocity":0.2677165354330709,"duration":"0.10"},{"name":"G6","midi":91,"time":"379.26","velocity":0.2047244094488189,"duration":"0.19"},{"name":"A#5","midi":82,"time":"379.27","velocity":0.13385826771653545,"duration":"0.05"},{"name":"A#6","midi":94,"time":"379.27","velocity":0.2677165354330709,"duration":"0.20"},{"name":"D2","midi":38,"time":"379.28","velocity":0.3543307086614173,"duration":"0.08"},{"name":"C5","midi":72,"time":"379.29","velocity":0.1968503937007874,"duration":"0.05"},{"name":"G#5","midi":80,"time":"379.29","velocity":0.2047244094488189,"duration":"0.03"},{"name":"D6","midi":86,"time":"379.29","velocity":0.11811023622047244,"duration":"0.03"},{"name":"D#6","midi":87,"time":"379.29","velocity":0.14960629921259844,"duration":"0.07"},{"name":"G#6","midi":92,"time":"379.29","velocity":0.2440944881889764,"duration":"0.14"},{"name":"F#4","midi":66,"time":"379.30","velocity":0.25984251968503935,"duration":"0.06"},{"name":"C#5","midi":73,"time":"379.33","velocity":0.4409448818897638,"duration":"0.08"},{"name":"F6","midi":89,"time":"379.33","velocity":0.23622047244094488,"duration":"0.09"},{"name":"D7","midi":98,"time":"379.33","velocity":0.2283464566929134,"duration":"0.16"},{"name":"C7","midi":96,"time":"379.34","velocity":0.29133858267716534,"duration":"0.08"},{"name":"F5","midi":77,"time":"379.35","velocity":0.3779527559055118,"duration":"0.02"},{"name":"G#5","midi":80,"time":"379.35","velocity":0.2992125984251969,"duration":"0.06"},{"name":"D6","midi":86,"time":"379.35","velocity":0.3228346456692913,"duration":"0.14"},{"name":"C#2","midi":37,"time":"379.36","velocity":0.3858267716535433,"duration":"0.02"},{"name":"C#4","midi":61,"time":"379.36","velocity":0.44881889763779526,"duration":"0.02"},{"name":"B5","midi":83,"time":"379.36","velocity":0.30708661417322836,"duration":"0.02"},{"name":"D#7","midi":99,"time":"379.36","velocity":0.2440944881889764,"duration":"0.24"},{"name":"F#7","midi":102,"time":"379.36","velocity":0.2125984251968504,"duration":"0.16"},{"name":"E5","midi":76,"time":"379.37","velocity":0.48031496062992124,"duration":"0.02"},{"name":"F#5","midi":78,"time":"379.37","velocity":0.25196850393700787,"duration":"0.03"},{"name":"A#5","midi":82,"time":"379.37","velocity":0.3228346456692913,"duration":"0.02"},{"name":"D#2","midi":39,"time":"379.38","velocity":0.4330708661417323,"duration":"0.02"},{"name":"F#4","midi":66,"time":"379.38","velocity":0.3858267716535433,"duration":"0.05"},{"name":"C6","midi":84,"time":"379.38","velocity":0.2755905511811024,"duration":"0.03"},{"name":"D#6","midi":87,"time":"379.38","velocity":0.14960629921259844,"duration":"0.03"},{"name":"B6","midi":95,"time":"379.38","velocity":0.28346456692913385,"duration":"0.20"},{"name":"D#5","midi":75,"time":"379.40","velocity":0.3464566929133858,"duration":"0.02"},{"name":"F5","midi":77,"time":"379.40","velocity":0.2992125984251969,"duration":"0.07"},{"name":"E2","midi":40,"time":"379.41","velocity":0.41732283464566927,"duration":"0.02"},{"name":"D3","midi":50,"time":"379.41","velocity":0.5590551181102362,"duration":"0.33"},{"name":"A#5","midi":82,"time":"379.41","velocity":0.25196850393700787,"duration":"0.03"},{"name":"E6","midi":88,"time":"379.41","velocity":0.3858267716535433,"duration":"0.91"},{"name":"C4","midi":60,"time":"379.42","velocity":0.4094488188976378,"duration":"0.02"},{"name":"C7","midi":96,"time":"379.43","velocity":0.2204724409448819,"duration":"0.28"},{"name":"D2","midi":38,"time":"379.44","velocity":0.2283464566929134,"duration":"0.05"},{"name":"A3","midi":57,"time":"379.44","velocity":0.5354330708661418,"duration":"0.12"},{"name":"G#4","midi":68,"time":"379.44","velocity":0.3858267716535433,"duration":"0.05"},{"name":"C5","midi":72,"time":"379.44","velocity":0.2440944881889764,"duration":"0.03"},{"name":"D5","midi":74,"time":"379.44","velocity":0.28346456692913385,"duration":"0.08"},{"name":"B5","midi":83,"time":"379.44","velocity":0.25196850393700787,"duration":"0.06"},{"name":"F#6","midi":90,"time":"379.44","velocity":0.2047244094488189,"duration":"0.06"},{"name":"G#6","midi":92,"time":"379.44","velocity":0.2204724409448819,"duration":"0.09"},{"name":"G6","midi":91,"time":"379.45","velocity":0.2283464566929134,"duration":"0.42"},{"name":"F#5","midi":78,"time":"379.47","velocity":0.1889763779527559,"duration":"0.03"},{"name":"F6","midi":89,"time":"379.47","velocity":0.16535433070866143,"duration":"0.05"},{"name":"E5","midi":76,"time":"379.48","velocity":0.2992125984251969,"duration":"0.02"},{"name":"C6","midi":84,"time":"379.49","velocity":0.2755905511811024,"duration":"0.17"},{"name":"A#6","midi":94,"time":"379.49","velocity":0.11811023622047244,"duration":"0.03"},{"name":"F5","midi":77,"time":"379.50","velocity":0.30708661417322836,"duration":"0.02"},{"name":"D#6","midi":87,"time":"379.50","velocity":0.11811023622047244,"duration":"0.06"},{"name":"D7","midi":98,"time":"379.50","velocity":0.1732283464566929,"duration":"0.20"},{"name":"F7","midi":101,"time":"379.50","velocity":0.2283464566929134,"duration":"0.70"},{"name":"E5","midi":76,"time":"379.51","velocity":0.2992125984251969,"duration":"0.17"},{"name":"F#5","midi":78,"time":"379.51","velocity":0.25984251968503935,"duration":"0.14"},{"name":"D2","midi":38,"time":"379.52","velocity":0.2283464566929134,"duration":"0.05"},{"name":"C#5","midi":73,"time":"379.52","velocity":0.3464566929133858,"duration":"0.15"},{"name":"D6","midi":86,"time":"379.53","velocity":0.18110236220472442,"duration":"0.03"},{"name":"F#7","midi":102,"time":"379.53","velocity":0.18110236220472442,"duration":"0.24"},{"name":"F6","midi":89,"time":"379.55","velocity":0.14960629921259844,"duration":"0.06"},{"name":"G#6","midi":92,"time":"379.55","velocity":0.23622047244094488,"duration":"0.08"},{"name":"A3","midi":57,"time":"379.57","velocity":0.48031496062992124,"duration":"0.08"},{"name":"B5","midi":83,"time":"379.57","velocity":0.25984251968503935,"duration":"0.19"},{"name":"A#6","midi":94,"time":"379.57","velocity":0.12598425196850394,"duration":"0.08"},{"name":"D2","midi":38,"time":"379.58","velocity":0.23622047244094488,"duration":"0.03"},{"name":"D6","midi":86,"time":"379.59","velocity":0.1968503937007874,"duration":"0.03"},{"name":"F#4","midi":66,"time":"379.60","velocity":0.2047244094488189,"duration":"0.06"},{"name":"D#7","midi":99,"time":"379.62","velocity":0.30708661417322836,"duration":"1.42"},{"name":"D2","midi":38,"time":"379.64","velocity":0.23622047244094488,"duration":"0.07"},{"name":"F6","midi":89,"time":"379.65","velocity":0.2755905511811024,"duration":"0.20"},{"name":"G#6","midi":92,"time":"379.65","velocity":0.2204724409448819,"duration":"0.23"},{"name":"A4","midi":69,"time":"379.66","velocity":0.4251968503937008,"duration":"0.09"},{"name":"F#5","midi":78,"time":"379.66","velocity":0.33070866141732286,"duration":"0.30"},{"name":"A3","midi":57,"time":"379.67","velocity":0.47244094488188976,"duration":"0.03"},{"name":"A#6","midi":94,"time":"379.67","velocity":0.1968503937007874,"duration":"0.12"},{"name":"C#5","midi":73,"time":"379.69","velocity":0.2677165354330709,"duration":"0.06"},{"name":"C#2","midi":37,"time":"379.71","velocity":0.3228346456692913,"duration":"0.02"},{"name":"A5","midi":81,"time":"379.71","velocity":0.4881889763779528,"duration":"0.33"},{"name":"D#6","midi":87,"time":"379.71","velocity":0.10236220472440945,"duration":"0.03"},{"name":"G7","midi":103,"time":"379.71","velocity":0.2440944881889764,"duration":"0.45"},{"name":"A3","midi":57,"time":"379.72","velocity":0.44881889763779526,"duration":"0.02"},{"name":"C7","midi":96,"time":"379.72","velocity":0.13385826771653545,"duration":"0.09"},{"name":"D#2","midi":39,"time":"379.73","velocity":0.49606299212598426,"duration":"0.02"},{"name":"A#3","midi":58,"time":"379.74","velocity":0.3228346456692913,"duration":"0.02"},{"name":"E5","midi":76,"time":"379.74","velocity":0.3543307086614173,"duration":"0.14"},{"name":"C6","midi":84,"time":"379.74","velocity":0.1968503937007874,"duration":"0.03"},{"name":"E2","midi":40,"time":"379.76","velocity":0.5433070866141733,"duration":"0.05"},{"name":"D3","midi":50,"time":"379.76","velocity":0.5354330708661418,"duration":"0.33"},{"name":"D7","midi":98,"time":"379.76","velocity":0.2283464566929134,"duration":"0.09"},{"name":"A#4","midi":70,"time":"379.77","velocity":0.4094488188976378,"duration":"0.02"},{"name":"C#6","midi":85,"time":"379.77","velocity":0.2125984251968504,"duration":"0.07"},{"name":"A3","midi":57,"time":"379.78","velocity":0.4094488188976378,"duration":"0.08"},{"name":"A4","midi":69,"time":"379.78","velocity":0.5196850393700787,"duration":"0.41"},{"name":"C#5","midi":73,"time":"379.79","velocity":0.2125984251968504,"duration":"0.06"},{"name":"A#5","midi":82,"time":"379.79","velocity":0.16535433070866143,"duration":"0.03"},{"name":"C6","midi":84,"time":"379.79","velocity":0.1732283464566929,"duration":"0.16"},{"name":"D6","midi":86,"time":"379.79","velocity":0.1968503937007874,"duration":"0.13"},{"name":"A#6","midi":94,"time":"379.80","velocity":0.2047244094488189,"duration":"0.09"},{"name":"B5","midi":83,"time":"379.83","velocity":0.14960629921259844,"duration":"0.08"},{"name":"D2","midi":38,"time":"379.84","velocity":0.1732283464566929,"duration":"0.03"},{"name":"D#6","midi":87,"time":"379.84","velocity":0.18110236220472442,"duration":"0.14"},{"name":"F#4","midi":66,"time":"379.85","velocity":0.23622047244094488,"duration":"0.03"},{"name":"C7","midi":96,"time":"379.85","velocity":0.2204724409448819,"duration":"0.33"},{"name":"C#2","midi":37,"time":"379.87","velocity":0.2440944881889764,"duration":"0.03"},{"name":"A3","midi":57,"time":"379.88","velocity":0.3858267716535433,"duration":"0.20"},{"name":"C#6","midi":85,"time":"379.88","velocity":0.28346456692913385,"duration":"0.23"},{"name":"C#4","midi":61,"time":"379.90","velocity":0.1889763779527559,"duration":"0.03"},{"name":"C#5","midi":73,"time":"379.90","velocity":0.2125984251968504,"duration":"0.03"},{"name":"G6","midi":91,"time":"379.90","velocity":0.23622047244094488,"duration":"0.26"},{"name":"G#6","midi":92,"time":"379.90","velocity":0.2283464566929134,"duration":"0.22"},{"name":"F#7","midi":102,"time":"379.90","velocity":0.2755905511811024,"duration":"0.97"},{"name":"E5","midi":76,"time":"379.91","velocity":0.36220472440944884,"duration":"0.23"},{"name":"C5","midi":72,"time":"379.93","velocity":0.2125984251968504,"duration":"0.03"},{"name":"D5","midi":74,"time":"379.93","velocity":0.29133858267716534,"duration":"0.12"},{"name":"A#5","midi":82,"time":"379.97","velocity":0.2440944881889764,"duration":"0.08"},{"name":"D2","midi":38,"time":"379.98","velocity":0.2755905511811024,"duration":"0.03"},{"name":"F#5","midi":78,"time":"379.98","velocity":0.33070866141732286,"duration":"0.30"},{"name":"C6","midi":84,"time":"379.99","velocity":0.1732283464566929,"duration":"0.03"},{"name":"D#6","midi":87,"time":"380.00","velocity":0.11023622047244094,"duration":"0.06"},{"name":"C#2","midi":37,"time":"380.01","velocity":0.33070866141732286,"duration":"0.03"},{"name":"C#4","midi":61,"time":"380.02","velocity":0.2677165354330709,"duration":"0.03"},{"name":"F#4","midi":66,"time":"380.03","velocity":0.2440944881889764,"duration":"0.03"},{"name":"G#5","midi":80,"time":"380.03","velocity":0.2440944881889764,"duration":"0.02"},{"name":"D2","midi":38,"time":"380.05","velocity":0.36220472440944884,"duration":"0.06"},{"name":"B5","midi":83,"time":"380.06","velocity":0.41732283464566927,"duration":"0.60"},{"name":"D#6","midi":87,"time":"380.08","velocity":0.16535433070866143,"duration":"0.08"},{"name":"A#3","midi":58,"time":"380.09","velocity":0.3543307086614173,"duration":"0.03"},{"name":"C6","midi":84,"time":"380.09","velocity":0.2677165354330709,"duration":"0.05"},{"name":"F6","midi":89,"time":"380.09","velocity":0.2047244094488189,"duration":"0.16"},{"name":"A#6","midi":94,"time":"380.09","velocity":0.2283464566929134,"duration":"0.07"},{"name":"D#3","midi":51,"time":"380.10","velocity":0.5275590551181102,"duration":"0.02"},{"name":"F#1","midi":30,"time":"380.12","velocity":0.5118110236220472,"duration":"0.01"},{"name":"F#2","midi":42,"time":"380.12","velocity":0.5354330708661418,"duration":"0.01"},{"name":"C#5","midi":73,"time":"380.12","velocity":0.30708661417322836,"duration":"0.06"},{"name":"F#6","midi":90,"time":"380.12","velocity":0.4409448818897638,"duration":"0.77"},{"name":"G#2","midi":44,"time":"380.13","velocity":0.6692913385826772,"duration":"0.01"},{"name":"G#6","midi":92,"time":"380.13","velocity":0.2047244094488189,"duration":"0.17"},{"name":"C3","midi":48,"time":"380.14","velocity":0.6220472440944882,"duration":"0.01"},{"name":"D4","midi":62,"time":"380.14","velocity":0.33070866141732286,"duration":"0.02"},{"name":"F4","midi":65,"time":"380.14","velocity":0.18110236220472442,"duration":"0.03"},{"name":"C#3","midi":49,"time":"380.15","velocity":0.5669291338582677,"duration":"0.10"},{"name":"E5","midi":76,"time":"380.15","velocity":0.1732283464566929,"duration":"0.03"},{"name":"C6","midi":84,"time":"380.15","velocity":0.15748031496062992,"duration":"0.05"},{"name":"G#3","midi":56,"time":"380.16","velocity":0.41732283464566927,"duration":"0.02"},{"name":"F1","midi":29,"time":"380.17","velocity":0.5433070866141733,"duration":"0.01"},{"name":"F#4","midi":66,"time":"380.17","velocity":0.1968503937007874,"duration":"0.09"},{"name":"D5","midi":74,"time":"380.17","velocity":0.2047244094488189,"duration":"0.05"},{"name":"G6","midi":91,"time":"380.17","velocity":0.2204724409448819,"duration":"0.22"},{"name":"D4","midi":62,"time":"380.19","velocity":0.3464566929133858,"duration":"0.02"},{"name":"D#6","midi":87,"time":"380.19","velocity":0.1889763779527559,"duration":"0.24"},{"name":"C7","midi":96,"time":"380.19","velocity":0.2283464566929134,"duration":"0.12"},{"name":"A#1","midi":34,"time":"380.20","velocity":0.4881889763779528,"duration":"0.02"},{"name":"A4","midi":69,"time":"380.20","velocity":0.4015748031496063,"duration":"0.08"},{"name":"B4","midi":71,"time":"380.20","velocity":0.5118110236220472,"duration":"0.12"},{"name":"G#3","midi":56,"time":"380.21","velocity":0.3779527559055118,"duration":"0.10"},{"name":"E5","midi":76,"time":"380.21","velocity":0.3464566929133858,"duration":"0.17"},{"name":"A#6","midi":94,"time":"380.21","velocity":0.1732283464566929,"duration":"0.09"},{"name":"D4","midi":62,"time":"380.22","velocity":0.4566929133858268,"duration":"0.27"},{"name":"D7","midi":98,"time":"380.23","velocity":0.2047244094488189,"duration":"0.07"},{"name":"C3","midi":48,"time":"380.26","velocity":0.5433070866141733,"duration":"0.01"},{"name":"F7","midi":101,"time":"380.26","velocity":0.18110236220472442,"duration":"0.36"},{"name":"C#3","midi":49,"time":"380.27","velocity":0.5118110236220472,"duration":"0.06"},{"name":"G5","midi":79,"time":"380.28","velocity":0.13385826771653545,"duration":"0.03"},{"name":"A4","midi":69,"time":"380.29","velocity":0.44881889763779526,"duration":"0.05"},{"name":"F#5","midi":78,"time":"380.30","velocity":0.23622047244094488,"duration":"0.05"},{"name":"G#6","midi":92,"time":"380.31","velocity":0.1889763779527559,"duration":"0.23"},{"name":"D3","midi":50,"time":"380.33","velocity":0.5275590551181102,"duration":"0.16"},{"name":"A3","midi":57,"time":"380.33","velocity":0.36220472440944884,"duration":"0.03"},{"name":"G#5","midi":80,"time":"380.33","velocity":0.31496062992125984,"duration":"0.16"},{"name":"C#6","midi":85,"time":"380.33","velocity":0.2992125984251969,"duration":"0.22"},{"name":"C7","midi":96,"time":"380.33","velocity":0.2125984251968504,"duration":"0.35"},{"name":"A4","midi":69,"time":"380.35","velocity":0.4566929133858268,"duration":"0.12"},{"name":"B4","midi":71,"time":"380.35","velocity":0.5511811023622047,"duration":"0.06"},{"name":"A3","midi":57,"time":"380.37","velocity":0.30708661417322836,"duration":"0.06"},{"name":"F6","midi":89,"time":"380.37","velocity":0.11023622047244094,"duration":"0.06"},{"name":"A#6","midi":94,"time":"380.37","velocity":0.28346456692913385,"duration":"0.60"},{"name":"F#5","midi":78,"time":"380.38","velocity":0.3858267716535433,"duration":"0.10"},{"name":"C6","midi":84,"time":"380.40","velocity":0.2125984251968504,"duration":"0.03"},{"name":"G6","midi":91,"time":"380.41","velocity":0.18110236220472442,"duration":"0.10"},{"name":"B4","midi":71,"time":"380.42","velocity":0.2992125984251969,"duration":"0.02"},{"name":"C#5","midi":73,"time":"380.42","velocity":0.28346456692913385,"duration":"0.06"},{"name":"E5","midi":76,"time":"380.42","velocity":0.33858267716535434,"duration":"0.06"},{"name":"D6","midi":86,"time":"380.42","velocity":0.13385826771653545,"duration":"0.06"},{"name":"C#2","midi":37,"time":"380.44","velocity":0.41732283464566927,"duration":"0.03"},{"name":"C6","midi":84,"time":"380.44","velocity":0.23622047244094488,"duration":"0.07"},{"name":"B4","midi":71,"time":"380.45","velocity":0.5905511811023622,"duration":"0.34"},{"name":"F5","midi":77,"time":"380.48","velocity":0.31496062992125984,"duration":"0.10"},{"name":"A5","midi":81,"time":"380.48","velocity":0.3779527559055118,"duration":"0.40"},{"name":"D#6","midi":87,"time":"380.48","velocity":0.2204724409448819,"duration":"0.09"},{"name":"C#2","midi":37,"time":"380.49","velocity":0.5748031496062992,"duration":"0.01"},{"name":"F#4","midi":66,"time":"380.49","velocity":0.3858267716535433,"duration":"0.08"},{"name":"G5","midi":79,"time":"380.49","velocity":0.2440944881889764,"duration":"0.03"},{"name":"D6","midi":86,"time":"380.49","velocity":0.15748031496062992,"duration":"0.05"},{"name":"D7","midi":98,"time":"380.49","velocity":0.1968503937007874,"duration":"0.13"},{"name":"E2","midi":40,"time":"380.50","velocity":0.6614173228346457,"duration":"0.02"},{"name":"D3","midi":50,"time":"380.50","velocity":0.5196850393700787,"duration":"0.01"},{"name":"D5","midi":74,"time":"380.50","velocity":0.28346456692913385,"duration":"0.05"},{"name":"F#5","midi":78,"time":"380.51","velocity":0.48031496062992124,"duration":"0.43"},{"name":"F#1","midi":30,"time":"380.52","velocity":0.5118110236220472,"duration":"0.01"},{"name":"F2","midi":41,"time":"380.52","velocity":0.5275590551181102,"duration":"0.01"},{"name":"A3","midi":57,"time":"380.52","velocity":0.4330708661417323,"duration":"0.14"},{"name":"C#4","midi":61,"time":"380.52","velocity":0.3700787401574803,"duration":"0.07"},{"name":"C6","midi":84,"time":"380.52","velocity":0.23622047244094488,"duration":"0.02"},{"name":"G6","midi":91,"time":"380.52","velocity":0.12598425196850394,"duration":"0.07"},{"name":"E1","midi":28,"time":"380.53","velocity":0.5590551181102362,"duration":"0.01"},{"name":"D3","midi":50,"time":"380.53","velocity":0.5590551181102362,"duration":"0.35"},{"name":"F#1","midi":30,"time":"380.55","velocity":0.5669291338582677,"duration":"0.01"},{"name":"G5","midi":79,"time":"380.56","velocity":0.15748031496062992,"duration":"0.03"},{"name":"D6","midi":86,"time":"380.56","velocity":0.1889763779527559,"duration":"0.13"},{"name":"G#6","midi":92,"time":"380.56","velocity":0.2204724409448819,"duration":"0.09"},{"name":"D#6","midi":87,"time":"380.59","velocity":0.25984251968503935,"duration":"0.13"},{"name":"E5","midi":76,"time":"380.60","velocity":0.18110236220472442,"duration":"0.08"},{"name":"C#6","midi":85,"time":"380.60","velocity":0.2677165354330709,"duration":"0.27"},{"name":"G6","midi":91,"time":"380.60","velocity":0.16535433070866143,"duration":"0.03"},{"name":"G#5","midi":80,"time":"380.63","velocity":0.18110236220472442,"duration":"0.05"},{"name":"F7","midi":101,"time":"380.64","velocity":0.18110236220472442,"duration":"0.09"},{"name":"B1","midi":35,"time":"380.65","velocity":0.3937007874015748,"duration":"0.02"},{"name":"C6","midi":84,"time":"380.65","velocity":0.25984251968503935,"duration":"0.06"},{"name":"G7","midi":103,"time":"380.65","velocity":0.16535433070866143,"duration":"0.05"},{"name":"A#3","midi":58,"time":"380.66","velocity":0.44881889763779526,"duration":"0.02"},{"name":"G#6","midi":92,"time":"380.66","velocity":0.1889763779527559,"duration":"0.05"},{"name":"A4","midi":69,"time":"380.67","velocity":0.4094488188976378,"duration":"0.03"},{"name":"D2","midi":38,"time":"380.69","velocity":0.33070866141732286,"duration":"0.02"},{"name":"G6","midi":91,"time":"380.69","velocity":0.2440944881889764,"duration":"0.05"},{"name":"C7","midi":96,"time":"380.69","velocity":0.25984251968503935,"duration":"0.30"},{"name":"D7","midi":98,"time":"380.69","velocity":0.16535433070866143,"duration":"0.10"},{"name":"A#3","midi":58,"time":"380.70","velocity":0.4251968503937008,"duration":"0.02"},{"name":"C#5","midi":73,"time":"380.71","velocity":0.29133858267716534,"duration":"0.05"},{"name":"E5","midi":76,"time":"380.71","velocity":0.44881889763779526,"duration":"0.19"},{"name":"B3","midi":59,"time":"380.72","velocity":0.4251968503937008,"duration":"0.02"},{"name":"G#6","midi":92,"time":"380.72","velocity":0.2440944881889764,"duration":"0.40"},{"name":"F#4","midi":66,"time":"380.73","velocity":0.2440944881889764,"duration":"0.10"},{"name":"C#2","midi":37,"time":"380.74","velocity":0.33858267716535434,"duration":"0.02"},{"name":"D6","midi":86,"time":"380.74","velocity":0.14960629921259844,"duration":"0.05"},{"name":"G6","midi":91,"time":"380.74","velocity":0.16535433070866143,"duration":"0.03"},{"name":"G#5","midi":80,"time":"380.76","velocity":0.15748031496062992,"duration":"0.05"},{"name":"D#6","midi":87,"time":"380.76","velocity":0.2755905511811024,"duration":"0.12"},{"name":"F7","midi":101,"time":"380.77","velocity":0.2125984251968504,"duration":"0.21"},{"name":"A3","midi":57,"time":"380.78","velocity":0.2992125984251969,"duration":"0.07"},{"name":"B4","midi":71,"time":"380.80","velocity":0.4881889763779528,"duration":"0.08"},{"name":"G#4","midi":68,"time":"380.83","velocity":0.25984251968503935,"duration":"0.03"},{"name":"G#5","midi":80,"time":"380.85","velocity":0.36220472440944884,"duration":"0.07"},{"name":"F6","midi":89,"time":"380.85","velocity":0.2677165354330709,"duration":"0.08"},{"name":"G6","midi":91,"time":"380.85","velocity":0.25196850393700787,"duration":"0.31"},{"name":"G7","midi":103,"time":"380.85","velocity":0.2992125984251969,"duration":"0.22"},{"name":"G3","midi":55,"time":"380.86","velocity":0.47244094488188976,"duration":"0.02"},{"name":"D#4","midi":63,"time":"380.86","velocity":0.5118110236220472,"duration":"0.01"},{"name":"D7","midi":98,"time":"380.86","velocity":0.2125984251968504,"duration":"0.03"},{"name":"C4","midi":60,"time":"380.87","velocity":0.4566929133858268,"duration":"0.05"},{"name":"F4","midi":65,"time":"380.87","velocity":0.48031496062992124,"duration":"0.02"},{"name":"D#5","midi":75,"time":"380.87","velocity":0.3700787401574803,"duration":"0.02"},{"name":"A#5","midi":82,"time":"380.87","velocity":0.28346456692913385,"duration":"0.02"},{"name":"C6","midi":84,"time":"380.87","velocity":0.30708661417322836,"duration":"0.02"},{"name":"D6","midi":86,"time":"380.87","velocity":0.2992125984251969,"duration":"0.02"},{"name":"A#4","midi":70,"time":"380.88","velocity":0.5590551181102362,"duration":"0.01"},{"name":"A5","midi":81,"time":"380.88","velocity":0.44881889763779526,"duration":"0.38"},{"name":"C#6","midi":85,"time":"380.88","velocity":0.28346456692913385,"duration":"0.31"},{"name":"A4","midi":69,"time":"380.90","velocity":0.4251968503937008,"duration":"0.03"},{"name":"B4","midi":71,"time":"380.90","velocity":0.5590551181102362,"duration":"0.06"},{"name":"E3","midi":52,"time":"380.91","velocity":0.5590551181102362,"duration":"0.37"},{"name":"C#5","midi":73,"time":"380.91","velocity":0.25196850393700787,"duration":"0.02"},{"name":"E5","midi":76,"time":"380.91","velocity":0.2992125984251969,"duration":"0.02"},{"name":"E2","midi":40,"time":"380.92","velocity":0.4015748031496063,"duration":"0.05"},{"name":"F#4","midi":66,"time":"380.92","velocity":0.3779527559055118,"duration":"0.03"},{"name":"D7","midi":98,"time":"380.92","velocity":0.13385826771653545,"duration":"0.09"},{"name":"D4","midi":62,"time":"380.93","velocity":0.2992125984251969,"duration":"0.05"},{"name":"D#5","midi":75,"time":"380.93","velocity":0.2047244094488189,"duration":"0.03"},{"name":"G#5","midi":80,"time":"380.93","velocity":0.2204724409448819,"duration":"0.03"},{"name":"D6","midi":86,"time":"380.94","velocity":0.16535433070866143,"duration":"0.09"},{"name":"E5","midi":76,"time":"380.95","velocity":0.33070866141732286,"duration":"0.09"},{"name":"A#3","midi":58,"time":"380.97","velocity":0.3858267716535433,"duration":"0.02"},{"name":"F#4","midi":66,"time":"380.97","velocity":0.25984251968503935,"duration":"0.03"},{"name":"B4","midi":71,"time":"380.97","velocity":0.5669291338582677,"duration":"0.06"},{"name":"F#5","midi":78,"time":"380.97","velocity":0.4330708661417323,"duration":"0.20"},{"name":"E2","midi":40,"time":"380.98","velocity":0.4251968503937008,"duration":"0.28"},{"name":"G#4","midi":68,"time":"380.98","velocity":0.33070866141732286,"duration":"0.02"},{"name":"D#6","midi":87,"time":"380.98","velocity":0.18110236220472442,"duration":"0.03"},{"name":"B3","midi":59,"time":"380.99","velocity":0.33858267716535434,"duration":"0.02"},{"name":"F6","midi":89,"time":"380.99","velocity":0.16535433070866143,"duration":"0.09"},{"name":"F7","midi":101,"time":"380.99","velocity":0.2047244094488189,"duration":"0.42"},{"name":"C7","midi":96,"time":"381.02","velocity":0.15748031496062992,"duration":"0.19"},{"name":"D7","midi":98,"time":"381.02","velocity":0.2047244094488189,"duration":"0.03"},{"name":"B4","midi":71,"time":"381.03","velocity":0.48031496062992124,"duration":"0.06"},{"name":"C#5","midi":73,"time":"381.03","velocity":0.33070866141732286,"duration":"0.02"},{"name":"A#6","midi":94,"time":"381.03","velocity":0.2047244094488189,"duration":"0.36"},{"name":"A#3","midi":58,"time":"381.05","velocity":0.4566929133858268,"duration":"0.05"},{"name":"D4","midi":62,"time":"381.05","velocity":0.33858267716535434,"duration":"0.07"},{"name":"D#5","midi":75,"time":"381.05","velocity":0.16535433070866143,"duration":"0.05"},{"name":"D#7","midi":99,"time":"381.05","velocity":0.3700787401574803,"duration":"0.78"},{"name":"C#5","midi":73,"time":"381.07","velocity":0.3779527559055118,"duration":"0.09"},{"name":"D#6","midi":87,"time":"381.08","velocity":0.25196850393700787,"duration":"0.16"},{"name":"D7","midi":98,"time":"381.08","velocity":0.15748031496062992,"duration":"0.08"},{"name":"E5","midi":76,"time":"381.09","velocity":0.23622047244094488,"duration":"0.15"},{"name":"B4","midi":71,"time":"381.10","velocity":0.5669291338582677,"duration":"0.14"},{"name":"G#5","midi":80,"time":"381.10","velocity":0.2283464566929134,"duration":"0.09"},{"name":"F6","midi":89,"time":"381.10","velocity":0.1732283464566929,"duration":"0.14"},{"name":"B3","midi":59,"time":"381.13","velocity":0.4015748031496063,"duration":"0.10"},{"name":"D4","midi":62,"time":"381.13","velocity":0.2440944881889764,"duration":"0.02"},{"name":"A4","midi":69,"time":"381.13","velocity":0.3779527559055118,"duration":"0.02"},{"name":"G5","midi":79,"time":"381.14","velocity":0.11811023622047244,"duration":"0.03"},{"name":"A4","midi":69,"time":"381.16","velocity":0.3464566929133858,"duration":"0.03"},{"name":"G7","midi":103,"time":"381.16","velocity":0.18110236220472442,"duration":"0.06"},{"name":"C#5","midi":73,"time":"381.17","velocity":0.3779527559055118,"duration":"0.05"},{"name":"F#5","midi":78,"time":"381.17","velocity":0.31496062992125984,"duration":"0.10"},{"name":"G5","midi":79,"time":"381.19","velocity":0.2677165354330709,"duration":"0.12"},{"name":"C7","midi":96,"time":"381.22","velocity":0.14173228346456693,"duration":"0.09"},{"name":"A#3","midi":58,"time":"381.23","velocity":0.3858267716535433,"duration":"0.02"},{"name":"C#5","midi":73,"time":"381.23","velocity":0.33858267716535434,"duration":"0.02"},{"name":"D6","midi":86,"time":"381.24","velocity":0.25196850393700787,"duration":"0.31"},{"name":"A4","midi":69,"time":"381.26","velocity":0.3543307086614173,"duration":"0.02"},{"name":"B4","midi":71,"time":"381.26","velocity":0.5984251968503937,"duration":"0.08"},{"name":"D5","midi":74,"time":"381.26","velocity":0.23622047244094488,"duration":"0.02"},{"name":"G7","midi":103,"time":"381.26","velocity":0.2047244094488189,"duration":"0.08"},{"name":"D#6","midi":87,"time":"381.27","velocity":0.15748031496062992,"duration":"0.05"},{"name":"F3","midi":53,"time":"381.28","velocity":0.5590551181102362,"duration":"0.02"},{"name":"E4","midi":64,"time":"381.28","velocity":0.4015748031496063,"duration":"0.19"},{"name":"C#5","midi":73,"time":"381.28","velocity":0.2283464566929134,"duration":"0.05"},{"name":"B3","midi":59,"time":"381.29","velocity":0.3700787401574803,"duration":"0.05"},{"name":"G#5","midi":80,"time":"381.29","velocity":0.2283464566929134,"duration":"0.05"},{"name":"E3","midi":52,"time":"381.30","velocity":0.5669291338582677,"duration":"0.22"},{"name":"F#5","midi":78,"time":"381.30","velocity":0.2755905511811024,"duration":"0.06"},{"name":"F6","midi":89,"time":"381.30","velocity":0.2125984251968504,"duration":"0.06"},{"name":"D#2","midi":39,"time":"381.31","velocity":0.36220472440944884,"duration":"0.02"},{"name":"A5","midi":81,"time":"381.31","velocity":0.1968503937007874,"duration":"0.07"},{"name":"E2","midi":40,"time":"381.34","velocity":0.49606299212598426,"duration":"0.19"},{"name":"C#5","midi":73,"time":"381.34","velocity":0.31496062992125984,"duration":"0.03"},{"name":"D#6","midi":87,"time":"381.34","velocity":0.2440944881889764,"duration":"0.28"},{"name":"B4","midi":71,"time":"381.35","velocity":0.3937007874015748,"duration":"0.05"},{"name":"G5","midi":79,"time":"381.35","velocity":0.18110236220472442,"duration":"0.05"},{"name":"G#5","midi":80,"time":"381.35","velocity":0.3700787401574803,"duration":"0.42"},{"name":"C7","midi":96,"time":"381.35","velocity":0.14960629921259844,"duration":"0.14"},{"name":"B3","midi":59,"time":"381.38","velocity":0.36220472440944884,"duration":"0.03"},{"name":"F#5","midi":78,"time":"381.38","velocity":0.28346456692913385,"duration":"0.09"},{"name":"C#5","midi":73,"time":"381.40","velocity":0.33070866141732286,"duration":"0.07"},{"name":"G7","midi":103,"time":"381.40","velocity":0.10236220472440945,"duration":"0.03"},{"name":"B4","midi":71,"time":"381.41","velocity":0.5984251968503937,"duration":"0.08"},{"name":"C#4","midi":61,"time":"381.43","velocity":0.2677165354330709,"duration":"0.03"},{"name":"F6","midi":89,"time":"381.43","velocity":0.11811023622047244,"duration":"0.10"},{"name":"F7","midi":101,"time":"381.43","velocity":0.1968503937007874,"duration":"0.16"},{"name":"A#6","midi":94,"time":"381.45","velocity":0.28346456692913385,"duration":"0.76"},{"name":"F5","midi":77,"time":"381.47","velocity":0.31496062992125984,"duration":"0.10"},{"name":"C#4","midi":61,"time":"381.48","velocity":0.23622047244094488,"duration":"0.02"},{"name":"A5","midi":81,"time":"381.48","velocity":0.2440944881889764,"duration":"0.07"},{"name":"B4","midi":71,"time":"381.50","velocity":0.5669291338582677,"duration":"0.15"},{"name":"F#5","midi":78,"time":"381.50","velocity":0.25984251968503935,"duration":"0.02"},{"name":"C#4","midi":61,"time":"381.51","velocity":0.28346456692913385,"duration":"0.02"},{"name":"E6","midi":88,"time":"381.51","velocity":0.2677165354330709,"duration":"0.20"},{"name":"C7","midi":96,"time":"381.51","velocity":0.1889763779527559,"duration":"0.07"},{"name":"F2","midi":41,"time":"381.52","velocity":0.5669291338582677,"duration":"0.06"},{"name":"C#5","midi":73,"time":"381.52","velocity":0.29133858267716534,"duration":"0.07"},{"name":"C#6","midi":85,"time":"381.52","velocity":0.48031496062992124,"duration":"1.03"},{"name":"F#5","midi":78,"time":"381.53","velocity":0.25984251968503935,"duration":"0.02"},{"name":"C#4","midi":61,"time":"381.55","velocity":0.31496062992125984,"duration":"0.02"},{"name":"G5","midi":79,"time":"381.56","velocity":0.1732283464566929,"duration":"0.03"},{"name":"E5","midi":76,"time":"381.57","velocity":0.14960629921259844,"duration":"0.05"},{"name":"G7","midi":103,"time":"381.57","velocity":0.12598425196850394,"duration":"0.08"},{"name":"F#2","midi":42,"time":"381.58","velocity":0.5669291338582677,"duration":"0.01"},{"name":"C#4","midi":61,"time":"381.58","velocity":0.33070866141732286,"duration":"0.05"},{"name":"F#5","midi":78,"time":"381.58","velocity":0.3464566929133858,"duration":"0.48"},{"name":"D6","midi":86,"time":"381.58","velocity":0.2440944881889764,"duration":"0.02"},{"name":"G2","midi":43,"time":"381.59","velocity":0.5669291338582677,"duration":"0.01"},{"name":"A3","midi":57,"time":"381.59","velocity":0.3464566929133858,"duration":"0.03"},{"name":"G6","midi":91,"time":"381.59","velocity":0.23622047244094488,"duration":"0.03"},{"name":"C7","midi":96,"time":"381.59","velocity":0.15748031496062992,"duration":"0.22"},{"name":"G#2","midi":44,"time":"381.60","velocity":0.5511811023622047,"duration":"0.01"},{"name":"E4","midi":64,"time":"381.60","velocity":0.25196850393700787,"duration":"0.02"},{"name":"F7","midi":101,"time":"381.60","velocity":0.2677165354330709,"duration":"1.24"},{"name":"G2","midi":43,"time":"381.62","velocity":0.6456692913385826,"duration":"0.02"},{"name":"D6","midi":86,"time":"381.62","velocity":0.2047244094488189,"duration":"0.03"},{"name":"C6","midi":84,"time":"381.63","velocity":0.31496062992125984,"duration":"0.05"},{"name":"G#2","midi":44,"time":"381.64","velocity":0.6614173228346457,"duration":"0.02"},{"name":"G3","midi":55,"time":"381.64","velocity":0.47244094488188976,"duration":"0.02"},{"name":"F4","midi":65,"time":"381.64","velocity":0.2677165354330709,"duration":"0.03"},{"name":"G#4","midi":68,"time":"381.64","velocity":0.3858267716535433,"duration":"0.02"},{"name":"C#4","midi":61,"time":"381.65","velocity":0.3779527559055118,"duration":"0.02"},{"name":"E5","midi":76,"time":"381.65","velocity":0.3858267716535433,"duration":"0.66"},{"name":"A5","midi":81,"time":"381.65","velocity":0.2283464566929134,"duration":"0.06"},{"name":"A2","midi":45,"time":"381.66","velocity":0.5669291338582677,"duration":"0.02"},{"name":"G4","midi":67,"time":"381.66","velocity":0.2992125984251969,"duration":"0.03"},{"name":"B4","midi":71,"time":"381.66","velocity":0.48031496062992124,"duration":"0.06"},{"name":"D6","midi":86,"time":"381.66","velocity":0.23622047244094488,"duration":"0.03"},{"name":"F1","midi":29,"time":"381.67","velocity":0.5433070866141733,"duration":"0.02"},{"name":"G#2","midi":44,"time":"381.69","velocity":0.5118110236220472,"duration":"0.02"},{"name":"G3","midi":55,"time":"381.69","velocity":0.25984251968503935,"duration":"0.02"},{"name":"C#4","midi":61,"time":"381.69","velocity":0.4251968503937008,"duration":"0.34"},{"name":"G7","midi":103,"time":"381.69","velocity":0.15748031496062992,"duration":"0.03"},{"name":"E4","midi":64,"time":"381.70","velocity":0.3228346456692913,"duration":"0.14"},{"name":"A4","midi":69,"time":"381.70","velocity":0.29133858267716534,"duration":"0.02"},{"name":"A2","midi":45,"time":"381.71","velocity":0.5196850393700787,"duration":"0.01"},{"name":"F6","midi":89,"time":"381.71","velocity":0.18110236220472442,"duration":"0.06"},{"name":"G6","midi":91,"time":"381.71","velocity":0.2204724409448819,"duration":"0.08"},{"name":"A#2","midi":46,"time":"381.72","velocity":0.5354330708661418,"duration":"0.01"},{"name":"C5","midi":72,"time":"381.72","velocity":0.48031496062992124,"duration":"0.03"},{"name":"A2","midi":45,"time":"381.73","velocity":0.5511811023622047,"duration":"0.01"},{"name":"A5","midi":81,"time":"381.73","velocity":0.3543307086614173,"duration":"0.10"},{"name":"D6","midi":86,"time":"381.73","velocity":0.25984251968503935,"duration":"0.09"},{"name":"G#2","midi":44,"time":"381.74","velocity":0.5669291338582677,"duration":"0.01"},{"name":"A2","midi":45,"time":"381.76","velocity":0.5748031496062992,"duration":"0.27"},{"name":"C#5","midi":73,"time":"381.76","velocity":0.5275590551181102,"duration":"0.09"},{"name":"G#5","midi":80,"time":"381.78","velocity":0.41732283464566927,"duration":"0.33"},{"name":"B4","midi":71,"time":"381.79","velocity":0.3937007874015748,"duration":"0.03"},{"name":"G6","midi":91,"time":"381.80","velocity":0.1889763779527559,"duration":"0.17"},{"name":"F6","midi":89,"time":"381.81","velocity":0.16535433070866143,"duration":"0.06"},{"name":"B5","midi":83,"time":"381.83","velocity":0.33858267716535434,"duration":"0.24"},{"name":"C7","midi":96,"time":"381.83","velocity":0.1732283464566929,"duration":"0.14"},{"name":"D#7","midi":99,"time":"381.84","velocity":0.15748031496062992,"duration":"0.12"},{"name":"C5","midi":72,"time":"381.85","velocity":0.48031496062992124,"duration":"0.02"},{"name":"A5","midi":81,"time":"381.85","velocity":0.4094488188976378,"duration":"0.21"},{"name":"E4","midi":64,"time":"381.86","velocity":0.23622047244094488,"duration":"0.03"},{"name":"C#5","midi":73,"time":"381.87","velocity":0.5590551181102362,"duration":"0.15"},{"name":"F6","midi":89,"time":"381.88","velocity":0.14960629921259844,"duration":"0.07"},{"name":"E4","midi":64,"time":"381.92","velocity":0.23622047244094488,"duration":"0.05"},{"name":"D6","midi":86,"time":"381.93","velocity":0.3228346456692913,"duration":"0.09"},{"name":"F#7","midi":102,"time":"381.93","velocity":0.25984251968503935,"duration":"0.37"},{"name":"B4","midi":71,"time":"381.94","velocity":0.31496062992125984,"duration":"0.06"},{"name":"D#7","midi":99,"time":"381.97","velocity":0.2440944881889764,"duration":"0.15"},{"name":"E4","midi":64,"time":"381.98","velocity":0.3858267716535433,"duration":"0.27"},{"name":"F6","midi":89,"time":"381.98","velocity":0.25984251968503935,"duration":"0.17"},{"name":"A4","midi":69,"time":"381.99","velocity":0.23622047244094488,"duration":"0.03"},{"name":"G6","midi":91,"time":"382.00","velocity":0.2440944881889764,"duration":"0.07"},{"name":"G4","midi":67,"time":"382.01","velocity":0.33070866141732286,"duration":"0.02"},{"name":"C5","midi":72,"time":"382.01","velocity":0.44881889763779526,"duration":"0.02"},{"name":"A3","midi":57,"time":"382.03","velocity":0.47244094488188976,"duration":"0.33"},{"name":"C#5","midi":73,"time":"382.03","velocity":0.5354330708661418,"duration":"0.07"},{"name":"C7","midi":96,"time":"382.03","velocity":0.16535433070866143,"duration":"0.29"},{"name":"A2","midi":45,"time":"382.05","velocity":0.5826771653543307,"duration":"0.35"},{"name":"F#4","midi":66,"time":"382.05","velocity":0.3543307086614173,"duration":"0.03"},{"name":"D#6","midi":87,"time":"382.05","velocity":0.10236220472440945,"duration":"0.03"},{"name":"C#4","midi":61,"time":"382.06","velocity":0.2755905511811024,"duration":"0.05"},{"name":"A#5","midi":82,"time":"382.06","velocity":0.1732283464566929,"duration":"0.03"},{"name":"A6","midi":93,"time":"382.07","velocity":0.1889763779527559,"duration":"0.05"},{"name":"A5","midi":81,"time":"382.08","velocity":0.4015748031496063,"duration":"0.31"},{"name":"B4","midi":71,"time":"382.09","velocity":0.2992125984251969,"duration":"0.05"},{"name":"D5","midi":74,"time":"382.10","velocity":0.33070866141732286,"duration":"0.02"},{"name":"G6","midi":91,"time":"382.10","velocity":0.1968503937007874,"duration":"0.05"},{"name":"D7","midi":98,"time":"382.10","velocity":0.11811023622047244,"duration":"0.03"},{"name":"C#4","midi":61,"time":"382.12","velocity":0.44881889763779526,"duration":"0.26"},{"name":"G#5","midi":80,"time":"382.12","velocity":0.3464566929133858,"duration":"0.15"},{"name":"D#7","midi":99,"time":"382.13","velocity":0.29133858267716534,"duration":"1.36"},{"name":"D#6","midi":87,"time":"382.15","velocity":0.10236220472440945,"duration":"0.03"},{"name":"G7","midi":103,"time":"382.15","velocity":0.14960629921259844,"duration":"0.05"},{"name":"F6","midi":89,"time":"382.16","velocity":0.1968503937007874,"duration":"0.06"},{"name":"C#5","midi":73,"time":"382.17","velocity":0.5433070866141733,"duration":"0.15"},{"name":"F#5","midi":78,"time":"382.17","velocity":0.1968503937007874,"duration":"0.21"},{"name":"D6","midi":86,"time":"382.17","velocity":0.1732283464566929,"duration":"0.06"},{"name":"G6","midi":91,"time":"382.17","velocity":0.15748031496062992,"duration":"0.05"},{"name":"F#6","midi":90,"time":"382.21","velocity":0.25984251968503935,"duration":"0.35"},{"name":"A#6","midi":94,"time":"382.23","velocity":0.33070866141732286,"duration":"0.24"},{"name":"D7","midi":98,"time":"382.24","velocity":0.11023622047244094,"duration":"0.07"},{"name":"G6","midi":91,"time":"382.26","velocity":0.10236220472440945,"duration":"0.03"},{"name":"F#4","midi":66,"time":"382.27","velocity":0.33858267716535434,"duration":"0.10"},{"name":"F6","midi":89,"time":"382.27","velocity":0.10236220472440945,"duration":"0.03"},{"name":"B6","midi":95,"time":"382.27","velocity":0.33070866141732286,"duration":"0.31"},{"name":"G#5","midi":80,"time":"382.28","velocity":0.48031496062992124,"duration":"0.20"},{"name":"F6","midi":89,"time":"382.33","velocity":0.2125984251968504,"duration":"0.05"},{"name":"F#7","midi":102,"time":"382.33","velocity":0.2755905511811024,"duration":"0.20"},{"name":"C#5","midi":73,"time":"382.34","velocity":0.5039370078740157,"duration":"0.13"},{"name":"C7","midi":96,"time":"382.34","velocity":0.2677165354330709,"duration":"0.43"},{"name":"E5","midi":76,"time":"382.35","velocity":0.4881889763779528,"duration":"0.22"},{"name":"E4","midi":64,"time":"382.36","velocity":0.5039370078740157,"duration":"0.02"},{"name":"B4","midi":71,"time":"382.36","velocity":0.2755905511811024,"duration":"0.02"},{"name":"C4","midi":60,"time":"382.37","velocity":0.4881889763779528,"duration":"0.02"},{"name":"C6","midi":84,"time":"382.37","velocity":0.3228346456692913,"duration":"0.05"},{"name":"G6","midi":91,"time":"382.37","velocity":0.25984251968503935,"duration":"0.21"},{"name":"D7","midi":98,"time":"382.37","velocity":0.25984251968503935,"duration":"0.28"},{"name":"F#3","midi":54,"time":"382.38","velocity":0.33070866141732286,"duration":"0.03"},{"name":"F4","midi":65,"time":"382.38","velocity":0.5118110236220472,"duration":"0.01"},{"name":"G4","midi":67,"time":"382.38","velocity":0.5196850393700787,"duration":"0.01"},{"name":"A#5","midi":82,"time":"382.38","velocity":0.2440944881889764,"duration":"0.02"},{"name":"D6","midi":86,"time":"382.38","velocity":0.2283464566929134,"duration":"0.09"},{"name":"B3","midi":59,"time":"382.40","velocity":0.4015748031496063,"duration":"0.02"},{"name":"E4","midi":64,"time":"382.40","velocity":0.3937007874015748,"duration":"0.02"},{"name":"F#5","midi":78,"time":"382.40","velocity":0.3228346456692913,"duration":"0.38"},{"name":"A#2","midi":46,"time":"382.41","velocity":0.5196850393700787,"duration":"0.01"},{"name":"B5","midi":83,"time":"382.41","velocity":0.4094488188976378,"duration":"0.58"},{"name":"A2","midi":45,"time":"382.42","velocity":0.5826771653543307,"duration":"0.36"},{"name":"F4","midi":65,"time":"382.42","velocity":0.3779527559055118,"duration":"0.02"},{"name":"F6","midi":89,"time":"382.42","velocity":0.1732283464566929,"duration":"0.03"},{"name":"E7","midi":100,"time":"382.42","velocity":0.25196850393700787,"duration":"0.55"},{"name":"C#4","midi":61,"time":"382.43","velocity":0.5118110236220472,"duration":"1.08"},{"name":"G#4","midi":68,"time":"382.43","velocity":0.31496062992125984,"duration":"0.09"},{"name":"F#4","midi":66,"time":"382.44","velocity":0.3779527559055118,"duration":"0.03"},{"name":"A5","midi":81,"time":"382.45","velocity":0.4015748031496063,"duration":"0.16"},{"name":"B4","midi":71,"time":"382.48","velocity":0.2677165354330709,"duration":"0.02"},{"name":"C#5","midi":73,"time":"382.48","velocity":0.5826771653543307,"duration":"0.09"},{"name":"G#5","midi":80,"time":"382.49","velocity":0.4251968503937008,"duration":"0.10"},{"name":"A#6","midi":94,"time":"382.50","velocity":0.2125984251968504,"duration":"0.22"},{"name":"F6","midi":89,"time":"382.51","velocity":0.2047244094488189,"duration":"0.21"},{"name":"A#3","midi":58,"time":"382.52","velocity":0.3700787401574803,"duration":"0.03"},{"name":"E4","midi":64,"time":"382.52","velocity":0.2047244094488189,"duration":"0.03"},{"name":"A4","midi":69,"time":"382.52","velocity":0.2440944881889764,"duration":"0.05"},{"name":"D6","midi":86,"time":"382.53","velocity":0.31496062992125984,"duration":"0.06"},{"name":"G#4","midi":68,"time":"382.57","velocity":0.25984251968503935,"duration":"0.05"},{"name":"C#6","midi":85,"time":"382.57","velocity":0.3464566929133858,"duration":"0.10"},{"name":"C#5","midi":73,"time":"382.58","velocity":0.5984251968503937,"duration":"0.51"},{"name":"E5","midi":76,"time":"382.58","velocity":0.5275590551181102,"duration":"1.33"},{"name":"G#5","midi":80,"time":"382.60","velocity":0.49606299212598426,"duration":"0.13"},{"name":"F#4","midi":66,"time":"382.62","velocity":0.11811023622047244,"duration":"0.03"},{"name":"D6","midi":86,"time":"382.64","velocity":0.33858267716535434,"duration":"0.09"},{"name":"D#6","midi":87,"time":"382.64","velocity":0.15748031496062992,"duration":"0.03"},{"name":"A6","midi":93,"time":"382.64","velocity":0.1889763779527559,"duration":"0.08"},{"name":"B4","midi":71,"time":"382.65","velocity":0.2992125984251969,"duration":"0.09"},{"name":"A5","midi":81,"time":"382.67","velocity":0.28346456692913385,"duration":"0.03"},{"name":"E4","midi":64,"time":"382.70","velocity":0.3700787401574803,"duration":"0.05"},{"name":"A5","midi":81,"time":"382.72","velocity":0.2047244094488189,"duration":"0.03"},{"name":"G5","midi":79,"time":"382.73","velocity":0.23622047244094488,"duration":"0.02"},{"name":"A#5","midi":82,"time":"382.74","velocity":0.12598425196850394,"duration":"0.03"},{"name":"D6","midi":86,"time":"382.74","velocity":0.18110236220472442,"duration":"0.03"},{"name":"A6","midi":93,"time":"382.74","velocity":0.2125984251968504,"duration":"0.05"},{"name":"G#5","midi":80,"time":"382.76","velocity":0.3779527559055118,"duration":"0.10"},{"name":"F6","midi":89,"time":"382.76","velocity":0.2047244094488189,"duration":"0.14"},{"name":"A#2","midi":46,"time":"382.78","velocity":0.49606299212598426,"duration":"0.02"},{"name":"A#6","midi":94,"time":"382.79","velocity":0.23622047244094488,"duration":"0.12"},{"name":"A2","midi":45,"time":"382.80","velocity":0.6692913385826772,"duration":"0.34"},{"name":"G4","midi":67,"time":"382.80","velocity":0.2992125984251969,"duration":"0.02"},{"name":"C7","midi":96,"time":"382.81","velocity":0.07874015748031496,"duration":"0.05"},{"name":"B4","midi":71,"time":"382.83","velocity":0.28346456692913385,"duration":"0.06"},{"name":"F#4","midi":66,"time":"382.85","velocity":0.25196850393700787,"duration":"0.02"},{"name":"F7","midi":101,"time":"382.86","velocity":0.2440944881889764,"duration":"0.90"},{"name":"E4","midi":64,"time":"382.87","velocity":0.30708661417322836,"duration":"0.08"},{"name":"G#5","midi":80,"time":"382.88","velocity":0.47244094488188976,"duration":"0.28"},{"name":"A6","midi":93,"time":"382.90","velocity":0.16535433070866143,"duration":"0.03"},{"name":"C7","midi":96,"time":"382.90","velocity":0.1889763779527559,"duration":"0.03"},{"name":"B4","midi":71,"time":"382.91","velocity":0.2677165354330709,"duration":"0.02"},{"name":"D6","midi":86,"time":"382.92","velocity":0.2440944881889764,"duration":"0.03"},{"name":"A#6","midi":94,"time":"382.92","velocity":0.2677165354330709,"duration":"0.41"},{"name":"G6","midi":91,"time":"382.93","velocity":0.29133858267716534,"duration":"0.12"},{"name":"F#5","midi":78,"time":"382.95","velocity":0.15748031496062992,"duration":"0.06"},{"name":"C7","midi":96,"time":"382.95","velocity":0.11023622047244094,"duration":"0.06"},{"name":"F6","midi":89,"time":"382.97","velocity":0.2204724409448819,"duration":"0.06"},{"name":"G4","midi":67,"time":"383.00","velocity":0.30708661417322836,"duration":"0.03"},{"name":"B5","midi":83,"time":"383.00","velocity":0.2125984251968504,"duration":"0.13"},{"name":"B6","midi":95,"time":"383.01","velocity":0.2755905511811024,"duration":"0.14"},{"name":"F#4","midi":66,"time":"383.03","velocity":0.28346456692913385,"duration":"0.09"},{"name":"C7","midi":96,"time":"383.03","velocity":0.16535433070866143,"duration":"0.17"},{"name":"B4","midi":71,"time":"383.05","velocity":0.2755905511811024,"duration":"0.02"},{"name":"F6","midi":89,"time":"383.05","velocity":0.2440944881889764,"duration":"0.14"},{"name":"G6","midi":91,"time":"383.07","velocity":0.16535433070866143,"duration":"0.07"},{"name":"D7","midi":98,"time":"383.09","velocity":0.11811023622047244,"duration":"0.12"},{"name":"C6","midi":84,"time":"383.13","velocity":0.1732283464566929,"duration":"0.06"},{"name":"G#2","midi":44,"time":"383.14","velocity":0.6771653543307087,"duration":"0.02"},{"name":"F3","midi":53,"time":"383.14","velocity":0.4645669291338583,"duration":"0.02"},{"name":"F#4","midi":66,"time":"383.14","velocity":0.3543307086614173,"duration":"0.08"},{"name":"G5","midi":79,"time":"383.15","velocity":0.2992125984251969,"duration":"0.03"},{"name":"D#3","midi":51,"time":"383.16","velocity":0.5275590551181102,"duration":"0.01"},{"name":"A3","midi":57,"time":"383.16","velocity":0.41732283464566927,"duration":"0.34"},{"name":"F#6","midi":90,"time":"383.16","velocity":0.2047244094488189,"duration":"0.17"},{"name":"B6","midi":95,"time":"383.16","velocity":0.07874015748031496,"duration":"0.03"},{"name":"D#1","midi":27,"time":"383.17","velocity":0.5196850393700787,"duration":"0.01"},{"name":"C3","midi":48,"time":"383.17","velocity":0.5590551181102362,"duration":"0.01"},{"name":"G#5","midi":80,"time":"383.17","velocity":0.3779527559055118,"duration":"0.21"},{"name":"E1","midi":28,"time":"383.19","velocity":0.5196850393700787,"duration":"0.01"},{"name":"A2","midi":45,"time":"383.19","velocity":0.6141732283464567,"duration":"0.01"},{"name":"A#2","midi":46,"time":"383.20","velocity":0.5748031496062992,"duration":"0.01"},{"name":"B5","midi":83,"time":"383.20","velocity":0.1889763779527559,"duration":"0.05"},{"name":"D6","midi":86,"time":"383.20","velocity":0.2047244094488189,"duration":"0.05"},{"name":"A2","midi":45,"time":"383.21","velocity":0.5669291338582677,"duration":"0.01"},{"name":"E4","midi":64,"time":"383.21","velocity":0.28346456692913385,"duration":"0.02"},{"name":"F6","midi":89,"time":"383.21","velocity":0.2204724409448819,"duration":"0.12"},{"name":"G#2","midi":44,"time":"383.22","velocity":0.5905511811023622,"duration":"0.01"},{"name":"A6","midi":93,"time":"383.22","velocity":0.2440944881889764,"duration":"0.31"},{"name":"B6","midi":95,"time":"383.22","velocity":0.1889763779527559,"duration":"0.08"},{"name":"A2","midi":45,"time":"383.23","velocity":0.5905511811023622,"duration":"0.27"},{"name":"G4","midi":67,"time":"383.24","velocity":0.2677165354330709,"duration":"0.02"},{"name":"C#5","midi":73,"time":"383.24","velocity":0.5826771653543307,"duration":"0.64"},{"name":"C7","midi":96,"time":"383.24","velocity":0.12598425196850394,"duration":"0.09"},{"name":"D6","midi":86,"time":"383.26","velocity":0.2283464566929134,"duration":"0.06"},{"name":"F#4","midi":66,"time":"383.27","velocity":0.23622047244094488,"duration":"0.03"},{"name":"G7","midi":103,"time":"383.28","velocity":0.11811023622047244,"duration":"0.03"},{"name":"E4","midi":64,"time":"383.29","velocity":0.2440944881889764,"duration":"0.02"},{"name":"G1","midi":31,"time":"383.30","velocity":0.3228346456692913,"duration":"0.06"},{"name":"B5","midi":83,"time":"383.30","velocity":0.2755905511811024,"duration":"0.10"},{"name":"B6","midi":95,"time":"383.31","velocity":0.33858267716535434,"duration":"0.59"},{"name":"G4","midi":67,"time":"383.34","velocity":0.25196850393700787,"duration":"0.02"},{"name":"D6","midi":86,"time":"383.34","velocity":0.11023622047244094,"duration":"0.05"},{"name":"G7","midi":103,"time":"383.34","velocity":0.11811023622047244,"duration":"0.06"},{"name":"F6","midi":89,"time":"383.35","velocity":0.18110236220472442,"duration":"0.03"},{"name":"A#6","midi":94,"time":"383.35","velocity":0.14960629921259844,"duration":"0.05"},{"name":"D#6","midi":87,"time":"383.37","velocity":0.09448818897637795,"duration":"0.07"},{"name":"G6","midi":91,"time":"383.37","velocity":0.14173228346456693,"duration":"0.10"},{"name":"F#4","midi":66,"time":"383.40","velocity":0.2283464566929134,"duration":"0.03"},{"name":"G#5","midi":80,"time":"383.40","velocity":0.25984251968503935,"duration":"0.03"},{"name":"C6","midi":84,"time":"383.40","velocity":0.18110236220472442,"duration":"0.08"},{"name":"C7","midi":96,"time":"383.40","velocity":0.18110236220472442,"duration":"0.13"},{"name":"F6","midi":89,"time":"383.41","velocity":0.1732283464566929,"duration":"0.20"},{"name":"A#6","midi":94,"time":"383.42","velocity":0.2125984251968504,"duration":"0.24"},{"name":"D7","midi":98,"time":"383.42","velocity":0.1889763779527559,"duration":"0.13"},{"name":"B5","midi":83,"time":"383.45","velocity":0.15748031496062992,"duration":"0.09"},{"name":"F#4","midi":66,"time":"383.48","velocity":0.29133858267716534,"duration":"0.03"},{"name":"G#5","midi":80,"time":"383.48","velocity":0.5039370078740157,"duration":"0.19"},{"name":"G#2","midi":44,"time":"383.50","velocity":0.6692913385826772,"duration":"0.03"},{"name":"A#3","midi":58,"time":"383.50","velocity":0.3543307086614173,"duration":"0.02"},{"name":"D#7","midi":99,"time":"383.50","velocity":0.25984251968503935,"duration":"0.63"},{"name":"F4","midi":65,"time":"383.51","velocity":0.3700787401574803,"duration":"0.05"},{"name":"D#1","midi":27,"time":"383.52","velocity":0.48031496062992124,"duration":"0.02"},{"name":"F#5","midi":78,"time":"383.52","velocity":0.2992125984251969,"duration":"0.37"},{"name":"G6","midi":91,"time":"383.52","velocity":0.2283464566929134,"duration":"0.15"},{"name":"G2","midi":43,"time":"383.53","velocity":0.3779527559055118,"duration":"0.02"},{"name":"C#4","midi":61,"time":"383.53","velocity":0.25984251968503935,"duration":"0.02"},{"name":"C7","midi":96,"time":"383.53","velocity":0.10236220472440945,"duration":"0.06"},{"name":"F1","midi":29,"time":"383.55","velocity":0.5196850393700787,"duration":"0.01"},{"name":"C4","midi":60,"time":"383.55","velocity":0.29133858267716534,"duration":"0.03"},{"name":"A5","midi":81,"time":"383.55","velocity":0.2755905511811024,"duration":"0.05"},{"name":"E1","midi":28,"time":"383.56","velocity":0.5275590551181102,"duration":"0.01"},{"name":"F#4","midi":66,"time":"383.56","velocity":0.3700787401574803,"duration":"0.19"},{"name":"C6","midi":84,"time":"383.56","velocity":0.14173228346456693,"duration":"0.08"},{"name":"A2","midi":45,"time":"383.57","velocity":0.5826771653543307,"duration":"0.33"},{"name":"A#4","midi":70,"time":"383.57","velocity":0.30708661417322836,"duration":"0.02"},{"name":"D7","midi":98,"time":"383.57","velocity":0.1732283464566929,"duration":"0.12"},{"name":"C#4","midi":61,"time":"383.58","velocity":0.3228346456692913,"duration":"0.12"},{"name":"A4","midi":69,"time":"383.58","velocity":0.15748031496062992,"duration":"0.03"},{"name":"B4","midi":71,"time":"383.62","velocity":0.25984251968503935,"duration":"0.06"},{"name":"F6","midi":89,"time":"383.64","velocity":0.1968503937007874,"duration":"0.16"},{"name":"E4","midi":64,"time":"383.65","velocity":0.3543307086614173,"duration":"0.07"},{"name":"A5","midi":81,"time":"383.65","velocity":0.4015748031496063,"duration":"0.06"},{"name":"C7","midi":96,"time":"383.66","velocity":0.15748031496062992,"duration":"0.15"},{"name":"F1","midi":29,"time":"383.67","velocity":0.25984251968503935,"duration":"0.02"},{"name":"A#6","midi":94,"time":"383.67","velocity":0.1968503937007874,"duration":"0.10"},{"name":"G#5","midi":80,"time":"383.70","velocity":0.4566929133858268,"duration":"0.26"},{"name":"C6","midi":84,"time":"383.70","velocity":0.25196850393700787,"duration":"0.22"},{"name":"G6","midi":91,"time":"383.70","velocity":0.1968503937007874,"duration":"0.08"},{"name":"F#1","midi":30,"time":"383.72","velocity":0.31496062992125984,"duration":"0.02"},{"name":"D6","midi":86,"time":"383.72","velocity":0.1968503937007874,"duration":"0.03"},{"name":"A5","midi":81,"time":"383.74","velocity":0.3700787401574803,"duration":"0.09"},{"name":"F#4","midi":66,"time":"383.76","velocity":0.3779527559055118,"duration":"0.13"},{"name":"D7","midi":98,"time":"383.76","velocity":0.2755905511811024,"duration":"0.27"},{"name":"C#4","midi":61,"time":"383.79","velocity":0.25196850393700787,"duration":"0.03"},{"name":"F7","midi":101,"time":"383.80","velocity":0.25984251968503935,"duration":"0.60"},{"name":"A#6","midi":94,"time":"383.83","velocity":0.2204724409448819,"duration":"0.12"},{"name":"E4","midi":64,"time":"383.85","velocity":0.5118110236220472,"duration":"0.07"},{"name":"A5","midi":81,"time":"383.85","velocity":0.2992125984251969,"duration":"0.03"},{"name":"F6","midi":89,"time":"383.85","velocity":0.18110236220472442,"duration":"0.06"},{"name":"G7","midi":103,"time":"383.85","velocity":0.15748031496062992,"duration":"0.05"},{"name":"A#3","midi":58,"time":"383.88","velocity":0.4645669291338583,"duration":"0.02"},{"name":"G#4","midi":68,"time":"383.88","velocity":0.4881889763779528,"duration":"0.02"},{"name":"B4","midi":71,"time":"383.88","velocity":0.44881889763779526,"duration":"0.02"},{"name":"D6","midi":86,"time":"383.88","velocity":0.25196850393700787,"duration":"0.05"},{"name":"F#4","midi":66,"time":"383.90","velocity":0.47244094488188976,"duration":"0.03"},{"name":"C#5","midi":73,"time":"383.90","velocity":0.4015748031496063,"duration":"0.03"},{"name":"A#5","midi":82,"time":"383.90","velocity":0.31496062992125984,"duration":"0.03"},{"name":"A6","midi":93,"time":"383.90","velocity":0.2677165354330709,"duration":"0.15"},{"name":"C4","midi":60,"time":"383.91","velocity":0.3858267716535433,"duration":"0.02"},{"name":"A4","midi":69,"time":"383.91","velocity":0.5039370078740157,"duration":"0.03"},{"name":"D#5","midi":75,"time":"383.91","velocity":0.4251968503937008,"duration":"0.02"},{"name":"G6","midi":91,"time":"383.91","velocity":0.2440944881889764,"duration":"0.14"},{"name":"A2","midi":45,"time":"383.92","velocity":0.5748031496062992,"duration":"0.34"},{"name":"E5","midi":76,"time":"383.92","velocity":0.33070866141732286,"duration":"0.03"},{"name":"B6","midi":95,"time":"383.92","velocity":0.28346456692913385,"duration":"0.72"},{"name":"C#4","midi":61,"time":"383.93","velocity":0.3779527559055118,"duration":"0.07"},{"name":"F4","midi":65,"time":"383.93","velocity":0.33070866141732286,"duration":"0.02"},{"name":"B5","midi":83,"time":"383.93","velocity":0.4251968503937008,"duration":"0.40"},{"name":"G#4","midi":68,"time":"383.94","velocity":0.33070866141732286,"duration":"0.07"},{"name":"C#5","midi":73,"time":"383.94","velocity":0.5826771653543307,"duration":"0.07"},{"name":"F#5","midi":78,"time":"383.94","velocity":0.25196850393700787,"duration":"0.03"},{"name":"E4","midi":64,"time":"383.95","velocity":0.3858267716535433,"duration":"0.16"},{"name":"F5","midi":77,"time":"383.95","velocity":0.2204724409448819,"duration":"0.03"},{"name":"G#3","midi":56,"time":"383.97","velocity":0.3228346456692913,"duration":"0.02"},{"name":"G#5","midi":80,"time":"383.97","velocity":0.3937007874015748,"duration":"0.08"},{"name":"F6","midi":89,"time":"383.97","velocity":0.2440944881889764,"duration":"0.12"},{"name":"A#6","midi":94,"time":"383.97","velocity":0.15748031496062992,"duration":"0.05"},{"name":"E5","midi":76,"time":"383.98","velocity":0.44881889763779526,"duration":"1.43"},{"name":"C5","midi":72,"time":"384.00","velocity":0.49606299212598426,"duration":"0.02"},{"name":"F#5","midi":78,"time":"384.00","velocity":0.1889763779527559,"duration":"0.09"},{"name":"C#4","midi":61,"time":"384.01","velocity":0.29133858267716534,"duration":"0.02"},{"name":"C#5","midi":73,"time":"384.02","velocity":0.5984251968503937,"duration":"0.09"},{"name":"F#6","midi":90,"time":"384.02","velocity":0.29133858267716534,"duration":"0.08"},{"name":"A#6","midi":94,"time":"384.02","velocity":0.2204724409448819,"duration":"0.38"},{"name":"C7","midi":96,"time":"384.03","velocity":0.1968503937007874,"duration":"0.27"},{"name":"E7","midi":100,"time":"384.03","velocity":0.2125984251968504,"duration":"0.81"},{"name":"G#5","midi":80,"time":"384.06","velocity":0.36220472440944884,"duration":"0.14"},{"name":"G7","midi":103,"time":"384.06","velocity":0.12598425196850394,"duration":"0.03"},{"name":"D6","midi":86,"time":"384.07","velocity":0.25196850393700787,"duration":"0.02"},{"name":"G6","midi":91,"time":"384.08","velocity":0.14173228346456693,"duration":"0.03"},{"name":"G5","midi":79,"time":"384.09","velocity":0.1889763779527559,"duration":"0.05"},{"name":"F6","midi":89,"time":"384.09","velocity":0.1732283464566929,"duration":"0.12"},{"name":"C#4","midi":61,"time":"384.10","velocity":0.2677165354330709,"duration":"0.05"},{"name":"F3","midi":53,"time":"384.12","velocity":0.2755905511811024,"duration":"0.02"},{"name":"B4","midi":71,"time":"384.12","velocity":0.23622047244094488,"duration":"0.05"},{"name":"D#5","midi":75,"time":"384.12","velocity":0.18110236220472442,"duration":"0.03"},{"name":"F#6","midi":90,"time":"384.12","velocity":0.29133858267716534,"duration":"0.42"},{"name":"E4","midi":64,"time":"384.13","velocity":0.2992125984251969,"duration":"0.13"},{"name":"D7","midi":98,"time":"384.13","velocity":0.3464566929133858,"duration":"0.50"},{"name":"G7","midi":103,"time":"384.13","velocity":0.08661417322834646,"duration":"0.03"},{"name":"A#3","midi":58,"time":"384.14","velocity":0.31496062992125984,"duration":"0.05"},{"name":"C#5","midi":73,"time":"384.14","velocity":0.6062992125984252,"duration":"0.49"},{"name":"F#5","midi":78,"time":"384.14","velocity":0.2047244094488189,"duration":"0.06"},{"name":"G6","midi":91,"time":"384.14","velocity":0.2125984251968504,"duration":"0.06"},{"name":"D#7","midi":99,"time":"384.14","velocity":0.28346456692913385,"duration":"1.47"},{"name":"C#4","midi":61,"time":"384.16","velocity":0.2755905511811024,"duration":"0.08"},{"name":"D6","midi":86,"time":"384.16","velocity":0.2440944881889764,"duration":"0.08"},{"name":"A6","midi":93,"time":"384.17","velocity":0.1968503937007874,"duration":"0.10"},{"name":"A5","midi":81,"time":"384.19","velocity":0.36220472440944884,"duration":"0.13"},{"name":"G5","midi":79,"time":"384.20","velocity":0.2125984251968504,"duration":"0.03"},{"name":"A#3","midi":58,"time":"384.24","velocity":0.3228346456692913,"duration":"0.05"},{"name":"E4","midi":64,"time":"384.27","velocity":0.3228346456692913,"duration":"0.03"},{"name":"F6","midi":89,"time":"384.27","velocity":0.2125984251968504,"duration":"0.38"},{"name":"G7","midi":103,"time":"384.27","velocity":0.11023622047244094,"duration":"0.08"},{"name":"F#5","midi":78,"time":"384.28","velocity":0.1889763779527559,"duration":"0.06"},{"name":"G#5","midi":80,"time":"384.28","velocity":0.4409448818897638,"duration":"0.23"},{"name":"D6","midi":86,"time":"384.28","velocity":0.2283464566929134,"duration":"0.02"},{"name":"G6","midi":91,"time":"384.28","velocity":0.2204724409448819,"duration":"0.14"},{"name":"G#2","midi":44,"time":"384.29","velocity":0.5669291338582677,"duration":"0.01"},{"name":"A3","midi":57,"time":"384.29","velocity":0.33858267716535434,"duration":"0.09"},{"name":"A2","midi":45,"time":"384.30","velocity":0.5905511811023622,"duration":"0.33"},{"name":"C#4","midi":61,"time":"384.31","velocity":0.3858267716535433,"duration":"0.23"},{"name":"E4","midi":64,"time":"384.31","velocity":0.29133858267716534,"duration":"0.08"},{"name":"A5","midi":81,"time":"384.35","velocity":0.3700787401574803,"duration":"0.31"},{"name":"F#5","midi":78,"time":"384.36","velocity":0.10236220472440945,"duration":"0.03"},{"name":"D6","midi":86,"time":"384.37","velocity":0.2755905511811024,"duration":"0.02"},{"name":"F#4","midi":66,"time":"384.38","velocity":0.28346456692913385,"duration":"0.05"},{"name":"B5","midi":83,"time":"384.38","velocity":0.2440944881889764,"duration":"0.05"},{"name":"E4","midi":64,"time":"384.41","velocity":0.30708661417322836,"duration":"0.02"},{"name":"D6","midi":86,"time":"384.41","velocity":0.2125984251968504,"duration":"0.03"},{"name":"C7","midi":96,"time":"384.41","velocity":0.14173228346456693,"duration":"0.09"},{"name":"C6","midi":84,"time":"384.43","velocity":0.2283464566929134,"duration":"0.02"},{"name":"B5","midi":83,"time":"384.44","velocity":0.29133858267716534,"duration":"0.20"},{"name":"A#6","midi":94,"time":"384.44","velocity":0.1968503937007874,"duration":"0.08"},{"name":"G6","midi":91,"time":"384.47","velocity":0.1968503937007874,"duration":"0.05"},{"name":"E4","midi":64,"time":"384.48","velocity":0.30708661417322836,"duration":"0.13"},{"name":"A#4","midi":70,"time":"384.48","velocity":0.2677165354330709,"duration":"0.02"},{"name":"D6","midi":86,"time":"384.48","velocity":0.2755905511811024,"duration":"0.08"},{"name":"A4","midi":69,"time":"384.49","velocity":0.30708661417322836,"duration":"0.15"},{"name":"G#3","midi":56,"time":"384.50","velocity":0.28346456692913385,"duration":"0.02"},{"name":"C7","midi":96,"time":"384.51","velocity":0.12598425196850394,"duration":"0.16"},{"name":"G#5","midi":80,"time":"384.52","velocity":0.2992125984251969,"duration":"0.02"},{"name":"G6","midi":91,"time":"384.52","velocity":0.23622047244094488,"duration":"0.10"},{"name":"A#6","midi":94,"time":"384.53","velocity":0.2047244094488189,"duration":"0.06"},{"name":"C#4","midi":61,"time":"384.56","velocity":0.36220472440944884,"duration":"0.27"},{"name":"G#5","midi":80,"time":"384.56","velocity":0.31496062992125984,"duration":"0.07"},{"name":"F#6","midi":90,"time":"384.58","velocity":0.30708661417322836,"duration":"0.49"},{"name":"D6","midi":86,"time":"384.59","velocity":0.2992125984251969,"duration":"0.06"},{"name":"A#6","midi":94,"time":"384.60","velocity":0.18110236220472442,"duration":"0.10"},{"name":"G#2","midi":44,"time":"384.63","velocity":0.5748031496062992,"duration":"0.01"},{"name":"D#3","midi":51,"time":"384.63","velocity":0.4330708661417323,"duration":"0.03"},{"name":"F#5","midi":78,"time":"384.63","velocity":0.28346456692913385,"duration":"0.16"},{"name":"C#6","midi":85,"time":"384.63","velocity":0.4251968503937008,"duration":"0.27"},{"name":"F#2","midi":42,"time":"384.64","velocity":0.6377952755905512,"duration":"0.01"},{"name":"F4","midi":65,"time":"384.64","velocity":0.3858267716535433,"duration":"0.02"},{"name":"C#5","midi":73,"time":"384.64","velocity":0.5511811023622047,"duration":"0.23"},{"name":"G7","midi":103,"time":"384.64","velocity":0.10236220472440945,"duration":"0.06"},{"name":"F2","midi":41,"time":"384.65","velocity":0.5669291338582677,"duration":"0.01"},{"name":"A4","midi":69,"time":"384.65","velocity":0.3779527559055118,"duration":"0.03"},{"name":"G#5","midi":80,"time":"384.65","velocity":0.3858267716535433,"duration":"0.15"},{"name":"B5","midi":83,"time":"384.65","velocity":0.33070866141732286,"duration":"0.38"},{"name":"D7","midi":98,"time":"384.65","velocity":0.1889763779527559,"duration":"0.26"},{"name":"E2","midi":40,"time":"384.66","velocity":0.5196850393700787,"duration":"0.01"},{"name":"B2","midi":47,"time":"384.66","velocity":0.5748031496062992,"duration":"0.01"},{"name":"E4","midi":64,"time":"384.66","velocity":0.30708661417322836,"duration":"0.03"},{"name":"D6","midi":86,"time":"384.66","velocity":0.25984251968503935,"duration":"0.06"},{"name":"F6","midi":89,"time":"384.66","velocity":0.2283464566929134,"duration":"0.33"},{"name":"D#1","midi":27,"time":"384.67","velocity":0.5275590551181102,"duration":"0.01"},{"name":"A2","midi":45,"time":"384.67","velocity":0.6141732283464567,"duration":"0.35"},{"name":"B4","midi":71,"time":"384.67","velocity":0.3228346456692913,"duration":"0.03"},{"name":"F1","midi":29,"time":"384.69","velocity":0.5905511811023622,"duration":"0.01"},{"name":"G6","midi":91,"time":"384.70","velocity":0.13385826771653545,"duration":"0.06"},{"name":"E4","midi":64,"time":"384.71","velocity":0.4330708661417323,"duration":"0.29"},{"name":"A6","midi":93,"time":"384.73","velocity":0.23622047244094488,"duration":"0.12"},{"name":"A#6","midi":94,"time":"384.77","velocity":0.25984251968503935,"duration":"0.44"},{"name":"A5","midi":81,"time":"384.79","velocity":0.29133858267716534,"duration":"0.07"},{"name":"G#1","midi":32,"time":"384.80","velocity":0.29133858267716534,"duration":"0.02"},{"name":"F#5","midi":78,"time":"384.80","velocity":0.23622047244094488,"duration":"0.02"},{"name":"C7","midi":96,"time":"384.80","velocity":0.16535433070866143,"duration":"0.07"},{"name":"F#1","midi":30,"time":"384.83","velocity":0.30708661417322836,"duration":"0.02"},{"name":"G#5","midi":80,"time":"384.83","velocity":0.4251968503937008,"duration":"0.12"},{"name":"C#4","midi":61,"time":"384.84","velocity":0.25984251968503935,"duration":"0.02"},{"name":"F#5","midi":78,"time":"384.84","velocity":0.1968503937007874,"duration":"0.08"},{"name":"B4","midi":71,"time":"384.85","velocity":0.2440944881889764,"duration":"0.02"},{"name":"D6","midi":86,"time":"384.86","velocity":0.2283464566929134,"duration":"0.12"},{"name":"C#4","midi":61,"time":"384.87","velocity":0.47244094488188976,"duration":"0.51"},{"name":"A6","midi":93,"time":"384.87","velocity":0.07874015748031496,"duration":"0.05"},{"name":"C#5","midi":73,"time":"384.88","velocity":0.5984251968503937,"duration":"0.23"},{"name":"G6","midi":91,"time":"384.90","velocity":0.14960629921259844,"duration":"0.03"},{"name":"F7","midi":101,"time":"384.91","velocity":0.23622047244094488,"duration":"0.30"},{"name":"C7","midi":96,"time":"384.94","velocity":0.14173228346456693,"duration":"0.07"},{"name":"F#5","midi":78,"time":"384.95","velocity":0.15748031496062992,"duration":"0.06"},{"name":"G#5","midi":80,"time":"384.95","velocity":0.48031496062992124,"duration":"0.36"},{"name":"E7","midi":100,"time":"384.98","velocity":0.2125984251968504,"duration":"0.21"},{"name":"A6","midi":93,"time":"384.99","velocity":0.14960629921259844,"duration":"0.20"},{"name":"A5","midi":81,"time":"385.00","velocity":0.3464566929133858,"duration":"0.05"},{"name":"G7","midi":103,"time":"385.00","velocity":0.1732283464566929,"duration":"0.03"},{"name":"F6","midi":89,"time":"385.01","velocity":0.2440944881889764,"duration":"0.15"},{"name":"A#2","midi":46,"time":"385.02","velocity":0.5275590551181102,"duration":"0.03"},{"name":"C7","midi":96,"time":"385.02","velocity":0.13385826771653545,"duration":"0.08"},{"name":"A#4","midi":70,"time":"385.03","velocity":0.33858267716535434,"duration":"0.03"},{"name":"F#5","midi":78,"time":"385.03","velocity":0.3464566929133858,"duration":"0.41"},{"name":"C6","midi":84,"time":"385.03","velocity":0.25196850393700787,"duration":"0.13"},{"name":"G6","midi":91,"time":"385.03","velocity":0.07086614173228346,"duration":"0.03"},{"name":"A3","midi":57,"time":"385.05","velocity":0.29133858267716534,"duration":"0.13"},{"name":"A2","midi":45,"time":"385.06","velocity":0.5748031496062992,"duration":"0.36"},{"name":"G7","midi":103,"time":"385.06","velocity":0.12598425196850394,"duration":"0.06"},{"name":"A4","midi":69,"time":"385.07","velocity":0.4330708661417323,"duration":"0.31"},{"name":"D6","midi":86,"time":"385.07","velocity":0.1889763779527559,"duration":"0.03"},{"name":"B6","midi":95,"time":"385.09","velocity":0.16535433070866143,"duration":"0.06"},{"name":"G4","midi":67,"time":"385.12","velocity":0.2440944881889764,"duration":"0.02"},{"name":"C#5","midi":73,"time":"385.13","velocity":0.5039370078740157,"duration":"0.05"},{"name":"G6","midi":91,"time":"385.15","velocity":0.10236220472440945,"duration":"0.06"},{"name":"B5","midi":83,"time":"385.16","velocity":0.2283464566929134,"duration":"0.16"},{"name":"C#5","midi":73,"time":"385.19","velocity":0.5748031496062992,"duration":"0.05"},{"name":"C6","midi":84,"time":"385.20","velocity":0.2047244094488189,"duration":"0.03"},{"name":"D7","midi":98,"time":"385.20","velocity":0.13385826771653545,"duration":"0.06"},{"name":"F6","midi":89,"time":"385.21","velocity":0.15748031496062992,"duration":"0.16"},{"name":"F7","midi":101,"time":"385.22","velocity":0.18110236220472442,"duration":"0.09"},{"name":"C#5","midi":73,"time":"385.24","velocity":0.6299212598425197,"duration":"0.09"},{"name":"C6","midi":84,"time":"385.27","velocity":0.1889763779527559,"duration":"0.09"},{"name":"C7","midi":96,"time":"385.29","velocity":0.2440944881889764,"duration":"0.24"},{"name":"G7","midi":103,"time":"385.30","velocity":0.07874015748031496,"duration":"0.03"},{"name":"D7","midi":98,"time":"385.31","velocity":0.2440944881889764,"duration":"0.37"},{"name":"G#5","midi":80,"time":"385.34","velocity":0.47244094488188976,"duration":"0.80"},{"name":"A#5","midi":82,"time":"385.34","velocity":0.2125984251968504,"duration":"0.05"},{"name":"B6","midi":95,"time":"385.34","velocity":0.13385826771653545,"duration":"0.03"},{"name":"E7","midi":100,"time":"385.34","velocity":0.2283464566929134,"duration":"0.74"},{"name":"C#5","midi":73,"time":"385.35","velocity":0.5039370078740157,"duration":"0.06"},{"name":"B5","midi":83,"time":"385.36","velocity":0.3464566929133858,"duration":"0.05"},{"name":"D#6","midi":87,"time":"385.37","velocity":0.2047244094488189,"duration":"0.15"},{"name":"A#6","midi":94,"time":"385.37","velocity":0.29133858267716534,"duration":"0.35"},{"name":"F7","midi":101,"time":"385.37","velocity":0.2283464566929134,"duration":"0.56"},{"name":"C4","midi":60,"time":"385.38","velocity":0.48031496062992124,"duration":"0.03"},{"name":"G#4","midi":68,"time":"385.38","velocity":0.5196850393700787,"duration":"0.06"},{"name":"A5","midi":81,"time":"385.38","velocity":0.29133858267716534,"duration":"0.02"},{"name":"F6","midi":89,"time":"385.38","velocity":0.2204724409448819,"duration":"0.10"},{"name":"E4","midi":64,"time":"385.40","velocity":0.44881889763779526,"duration":"0.03"},{"name":"A#4","midi":70,"time":"385.40","velocity":0.4330708661417323,"duration":"0.02"},{"name":"C6","midi":84,"time":"385.40","velocity":0.30708661417322836,"duration":"0.03"},{"name":"G6","midi":91,"time":"385.40","velocity":0.2440944881889764,"duration":"0.24"},{"name":"G#3","midi":56,"time":"385.41","velocity":0.4015748031496063,"duration":"0.02"},{"name":"F5","midi":77,"time":"385.41","velocity":0.2755905511811024,"duration":"0.02"},{"name":"D6","midi":86,"time":"385.41","velocity":0.2283464566929134,"duration":"0.08"},{"name":"F4","midi":65,"time":"385.42","velocity":0.3464566929133858,"duration":"0.02"},{"name":"B5","midi":83,"time":"385.42","velocity":0.3543307086614173,"duration":"0.44"},{"name":"C#5","midi":73,"time":"385.43","velocity":0.6377952755905512,"duration":"0.28"},{"name":"G#2","midi":44,"time":"385.44","velocity":0.5826771653543307,"duration":"0.02"},{"name":"F5","midi":77,"time":"385.44","velocity":0.2755905511811024,"duration":"0.02"},{"name":"A5","midi":81,"time":"385.44","velocity":0.3543307086614173,"duration":"0.03"},{"name":"E6","midi":88,"time":"385.44","velocity":0.2204724409448819,"duration":"0.10"},{"name":"A#3","midi":58,"time":"385.45","velocity":0.4094488188976378,"duration":"0.02"},{"name":"F#4","midi":66,"time":"385.45","velocity":0.31496062992125984,"duration":"0.06"},{"name":"D#5","midi":75,"time":"385.45","velocity":0.28346456692913385,"duration":"0.02"},{"name":"A2","midi":45,"time":"385.47","velocity":0.5748031496062992,"duration":"0.30"},{"name":"F#6","midi":90,"time":"385.47","velocity":0.28346456692913385,"duration":"0.45"},{"name":"B4","midi":71,"time":"385.48","velocity":0.2677165354330709,"duration":"0.05"},{"name":"E5","midi":76,"time":"385.48","velocity":0.25196850393700787,"duration":"0.03"},{"name":"D#5","midi":75,"time":"385.49","velocity":0.1889763779527559,"duration":"0.03"},{"name":"E4","midi":64,"time":"385.50","velocity":0.3858267716535433,"duration":"0.20"},{"name":"F6","midi":89,"time":"385.51","velocity":0.1889763779527559,"duration":"0.15"},{"name":"F#4","midi":66,"time":"385.52","velocity":0.23622047244094488,"duration":"0.03"},{"name":"D6","midi":86,"time":"385.53","velocity":0.31496062992125984,"duration":"0.10"},{"name":"C#4","midi":61,"time":"385.56","velocity":0.25984251968503935,"duration":"0.03"},{"name":"C7","midi":96,"time":"385.56","velocity":0.18110236220472442,"duration":"0.21"},{"name":"B4","midi":71,"time":"385.57","velocity":0.31496062992125984,"duration":"0.07"},{"name":"A#3","midi":58,"time":"385.60","velocity":0.31496062992125984,"duration":"0.02"},{"name":"D#7","midi":99,"time":"385.62","velocity":0.2283464566929134,"duration":"0.12"},{"name":"A6","midi":93,"time":"385.63","velocity":0.15748031496062992,"duration":"0.03"},{"name":"C#4","midi":61,"time":"385.69","velocity":0.23622047244094488,"duration":"0.06"},{"name":"G6","midi":91,"time":"385.69","velocity":0.18110236220472442,"duration":"0.10"},{"name":"F#4","midi":66,"time":"385.70","velocity":0.2283464566929134,"duration":"0.03"},{"name":"C5","midi":72,"time":"385.70","velocity":0.5039370078740157,"duration":"0.02"},{"name":"D7","midi":98,"time":"385.70","velocity":0.2677165354330709,"duration":"0.40"},{"name":"A#3","midi":58,"time":"385.71","velocity":0.28346456692913385,"duration":"0.03"},{"name":"C#5","midi":73,"time":"385.72","velocity":0.6220472440944882,"duration":"0.17"},{"name":"D#6","midi":87,"time":"385.72","velocity":0.11023622047244094,"duration":"0.03"},{"name":"B4","midi":71,"time":"385.73","velocity":0.36220472440944884,"duration":"0.05"},{"name":"A#6","midi":94,"time":"385.73","velocity":0.18110236220472442,"duration":"0.08"},{"name":"E4","midi":64,"time":"385.74","velocity":0.2992125984251969,"duration":"0.03"},{"name":"D#7","midi":99,"time":"385.74","velocity":0.23622047244094488,"duration":"0.83"},{"name":"B2","midi":47,"time":"385.77","velocity":0.4566929133858268,"duration":"0.02"},{"name":"C#4","midi":61,"time":"385.78","velocity":0.36220472440944884,"duration":"0.03"},{"name":"F#4","midi":66,"time":"385.78","velocity":0.25196850393700787,"duration":"0.03"},{"name":"A3","midi":57,"time":"385.79","velocity":0.33070866141732286,"duration":"0.02"},{"name":"A#4","midi":70,"time":"385.79","velocity":0.2992125984251969,"duration":"0.03"},{"name":"F6","midi":89,"time":"385.79","velocity":0.18110236220472442,"duration":"0.07"},{"name":"G2","midi":43,"time":"385.80","velocity":0.5511811023622047,"duration":"0.01"},{"name":"E4","midi":64,"time":"385.80","velocity":0.33070866141732286,"duration":"0.33"},{"name":"G#2","midi":44,"time":"385.81","velocity":0.5905511811023622,"duration":"0.01"},{"name":"G4","midi":67,"time":"385.81","velocity":0.1968503937007874,"duration":"0.06"},{"name":"A4","midi":69,"time":"385.81","velocity":0.2125984251968504,"duration":"0.03"},{"name":"A2","midi":45,"time":"385.83","velocity":0.5826771653543307,"duration":"0.30"},{"name":"C#4","midi":61,"time":"385.83","velocity":0.1968503937007874,"duration":"0.06"},{"name":"A#4","midi":70,"time":"385.86","velocity":0.2047244094488189,"duration":"0.07"},{"name":"A#6","midi":94,"time":"385.86","velocity":0.13385826771653545,"duration":"0.09"},{"name":"C7","midi":96,"time":"385.86","velocity":0.15748031496062992,"duration":"0.03"},{"name":"B5","midi":83,"time":"385.87","velocity":0.2755905511811024,"duration":"0.28"},{"name":"C#5","midi":73,"time":"385.91","velocity":0.6141732283464567,"duration":"0.12"},{"name":"D6","midi":86,"time":"385.91","velocity":0.28346456692913385,"duration":"0.02"},{"name":"F6","midi":89,"time":"385.91","velocity":0.13385826771653545,"duration":"0.09"},{"name":"G6","midi":91,"time":"385.91","velocity":0.15748031496062992,"duration":"0.06"},{"name":"F#6","midi":90,"time":"385.93","velocity":0.4015748031496063,"duration":"1.37"},{"name":"C7","midi":96,"time":"385.93","velocity":0.12598425196850394,"duration":"0.06"},{"name":"F7","midi":101,"time":"385.94","velocity":0.1732283464566929,"duration":"0.09"},{"name":"E5","midi":76,"time":"385.95","velocity":0.3464566929133858,"duration":"0.24"},{"name":"D#6","midi":87,"time":"385.95","velocity":0.09448818897637795,"duration":"0.05"},{"name":"A#6","midi":94,"time":"385.97","velocity":0.1968503937007874,"duration":"0.16"},{"name":"C#4","midi":61,"time":"385.99","velocity":0.3858267716535433,"duration":"0.16"},{"name":"F#5","midi":78,"time":"386.00","velocity":0.2755905511811024,"duration":"0.21"},{"name":"A6","midi":93,"time":"386.00","velocity":0.2125984251968504,"duration":"0.24"},{"name":"C5","midi":72,"time":"386.01","velocity":0.4409448818897638,"duration":"0.02"},{"name":"F6","midi":89,"time":"386.01","velocity":0.2283464566929134,"duration":"0.08"},{"name":"C#5","midi":73,"time":"386.03","velocity":0.5984251968503937,"duration":"0.08"},{"name":"G6","midi":91,"time":"386.03","velocity":0.1968503937007874,"duration":"0.10"},{"name":"C7","midi":96,"time":"386.03","velocity":0.1732283464566929,"duration":"0.17"},{"name":"D6","midi":86,"time":"386.06","velocity":0.12598425196850394,"duration":"0.06"},{"name":"G7","midi":103,"time":"386.10","velocity":0.23622047244094488,"duration":"0.10"},{"name":"F#4","midi":66,"time":"386.12","velocity":0.41732283464566927,"duration":"0.03"},{"name":"D7","midi":98,"time":"386.12","velocity":0.25196850393700787,"duration":"0.44"},{"name":"F2","midi":41,"time":"386.13","velocity":0.5511811023622047,"duration":"0.01"},{"name":"B2","midi":47,"time":"386.13","velocity":0.5905511811023622,"duration":"0.01"},{"name":"C#5","midi":73,"time":"386.13","velocity":0.5275590551181102,"duration":"0.22"},{"name":"A#5","midi":82,"time":"386.13","velocity":0.2204724409448819,"duration":"0.06"},{"name":"D#6","midi":87,"time":"386.13","velocity":0.14960629921259844,"duration":"0.03"},{"name":"F6","midi":89,"time":"386.13","velocity":0.16535433070866143,"duration":"0.07"},{"name":"E2","midi":40,"time":"386.14","velocity":0.6377952755905512,"duration":"0.01"},{"name":"C6","midi":84,"time":"386.14","velocity":0.2440944881889764,"duration":"0.06"},{"name":"F#2","midi":42,"time":"386.15","velocity":0.5905511811023622,"duration":"0.01"},{"name":"A#6","midi":94,"time":"386.15","velocity":0.3228346456692913,"duration":"0.87"},{"name":"G2","midi":43,"time":"386.16","velocity":0.5275590551181102,"duration":"0.01"},{"name":"G#5","midi":80,"time":"386.16","velocity":0.28346456692913385,"duration":"0.10"},{"name":"B5","midi":83,"time":"386.16","velocity":0.29133858267716534,"duration":"0.12"},{"name":"D6","midi":86,"time":"386.16","velocity":0.13385826771653545,"duration":"0.03"},{"name":"E1","midi":28,"time":"386.17","velocity":0.5984251968503937,"duration":"0.01"},{"name":"G#2","midi":44,"time":"386.17","velocity":0.5511811023622047,"duration":"0.01"},{"name":"A3","midi":57,"time":"386.17","velocity":0.3543307086614173,"duration":"0.07"},{"name":"C#4","midi":61,"time":"386.17","velocity":0.4015748031496063,"duration":"0.33"},{"name":"F1","midi":29,"time":"386.19","velocity":0.6062992125984252,"duration":"0.01"},{"name":"A2","midi":45,"time":"386.19","velocity":0.6141732283464567,"duration":"0.31"},{"name":"E4","midi":64,"time":"386.19","velocity":0.36220472440944884,"duration":"0.07"},{"name":"G4","midi":67,"time":"386.19","velocity":0.28346456692913385,"duration":"0.02"},{"name":"G6","midi":91,"time":"386.21","velocity":0.2125984251968504,"duration":"0.05"},{"name":"E6","midi":88,"time":"386.22","velocity":0.30708661417322836,"duration":"0.58"},{"name":"C7","midi":96,"time":"386.22","velocity":0.16535433070866143,"duration":"0.03"},{"name":"E5","midi":76,"time":"386.23","velocity":0.5118110236220472,"duration":"0.03"},{"name":"D6","midi":86,"time":"386.23","velocity":0.2283464566929134,"duration":"0.02"},{"name":"F#4","midi":66,"time":"386.24","velocity":0.4409448818897638,"duration":"0.29"},{"name":"F5","midi":77,"time":"386.26","velocity":0.5275590551181102,"duration":"0.12"},{"name":"G7","midi":103,"time":"386.26","velocity":0.07086614173228346,"duration":"0.03"},{"name":"D6","midi":86,"time":"386.27","velocity":0.14960629921259844,"duration":"0.09"},{"name":"G6","midi":91,"time":"386.27","velocity":0.2047244094488189,"duration":"0.06"},{"name":"F7","midi":101,"time":"386.27","velocity":0.2125984251968504,"duration":"0.31"},{"name":"G#5","midi":80,"time":"386.28","velocity":0.31496062992125984,"duration":"0.12"},{"name":"C7","midi":96,"time":"386.28","velocity":0.15748031496062992,"duration":"0.10"},{"name":"D#6","midi":87,"time":"386.30","velocity":0.11023622047244094,"duration":"0.03"},{"name":"G1","midi":31,"time":"386.31","velocity":0.2992125984251969,"duration":"0.02"},{"name":"F#1","midi":30,"time":"386.34","velocity":0.3228346456692913,"duration":"0.02"},{"name":"G7","midi":103,"time":"386.35","velocity":0.13385826771653545,"duration":"0.05"},{"name":"B4","midi":71,"time":"386.36","velocity":0.2283464566929134,"duration":"0.02"},{"name":"E5","midi":76,"time":"386.36","velocity":0.3779527559055118,"duration":"0.12"},{"name":"B5","midi":83,"time":"386.36","velocity":0.23622047244094488,"duration":"0.09"},{"name":"F#5","midi":78,"time":"386.37","velocity":0.5433070866141733,"duration":"0.10"},{"name":"G6","midi":91,"time":"386.37","velocity":0.1732283464566929,"duration":"0.05"},{"name":"B4","midi":71,"time":"386.40","velocity":0.1732283464566929,"duration":"0.06"},{"name":"C7","midi":96,"time":"386.40","velocity":0.1732283464566929,"duration":"0.22"},{"name":"G#5","midi":80,"time":"386.42","velocity":0.3779527559055118,"duration":"0.22"},{"name":"D6","midi":86,"time":"386.43","velocity":0.25984251968503935,"duration":"0.09"},{"name":"F5","midi":77,"time":"386.48","velocity":0.4881889763779528,"duration":"0.02"},{"name":"B5","midi":83,"time":"386.48","velocity":0.08661417322834646,"duration":"0.03"},{"name":"E5","midi":76,"time":"386.49","velocity":0.3543307086614173,"duration":"0.21"},{"name":"G#2","midi":44,"time":"386.50","velocity":0.5905511811023622,"duration":"0.01"},{"name":"F#5","midi":78,"time":"386.50","velocity":0.5511811023622047,"duration":"0.47"},{"name":"F2","midi":41,"time":"386.51","velocity":0.6456692913385826,"duration":"0.03"},{"name":"C#4","midi":61,"time":"386.51","velocity":0.2992125984251969,"duration":"0.02"},{"name":"A4","midi":69,"time":"386.51","velocity":0.30708661417322836,"duration":"0.03"},{"name":"B5","midi":83,"time":"386.52","velocity":0.15748031496062992,"duration":"0.03"},{"name":"G6","midi":91,"time":"386.52","velocity":0.14960629921259844,"duration":"0.17"},{"name":"G#4","midi":68,"time":"386.53","velocity":0.3858267716535433,"duration":"0.02"},{"name":"G7","midi":103,"time":"386.53","velocity":0.16535433070866143,"duration":"0.09"},{"name":"F1","midi":29,"time":"386.55","velocity":0.5275590551181102,"duration":"0.01"},{"name":"C3","midi":48,"time":"386.55","velocity":0.5354330708661418,"duration":"0.01"},{"name":"D4","midi":62,"time":"386.55","velocity":0.25984251968503935,"duration":"0.03"},{"name":"F#4","midi":66,"time":"386.55","velocity":0.3700787401574803,"duration":"0.07"},{"name":"C#5","midi":73,"time":"386.55","velocity":0.3543307086614173,"duration":"0.31"},{"name":"F#1","midi":30,"time":"386.56","velocity":0.5590551181102362,"duration":"0.01"},{"name":"A2","midi":45,"time":"386.56","velocity":0.6062992125984252,"duration":"0.03"},{"name":"A4","midi":69,"time":"386.56","velocity":0.44881889763779526,"duration":"0.33"},{"name":"A#1","midi":34,"time":"386.57","velocity":0.5275590551181102,"duration":"0.01"},{"name":"D7","midi":98,"time":"386.57","velocity":0.14173228346456693,"duration":"0.12"},{"name":"C#4","midi":61,"time":"386.58","velocity":0.5433070866141733,"duration":"0.30"},{"name":"E4","midi":64,"time":"386.58","velocity":0.2677165354330709,"duration":"0.03"},{"name":"G#2","midi":44,"time":"386.59","velocity":0.5669291338582677,"duration":"0.01"},{"name":"A2","midi":45,"time":"386.60","velocity":0.5905511811023622,"duration":"0.30"},{"name":"D#7","midi":99,"time":"386.60","velocity":0.16535433070866143,"duration":"0.09"},{"name":"B5","midi":83,"time":"386.63","velocity":0.33070866141732286,"duration":"0.37"},{"name":"F7","midi":101,"time":"386.64","velocity":0.13385826771653545,"duration":"0.06"},{"name":"E4","midi":64,"time":"386.65","velocity":0.41732283464566927,"duration":"0.22"},{"name":"F#4","midi":66,"time":"386.65","velocity":0.36220472440944884,"duration":"0.06"},{"name":"G#5","midi":80,"time":"386.65","velocity":0.18110236220472442,"duration":"0.06"},{"name":"C6","midi":84,"time":"386.69","velocity":0.09448818897637795,"duration":"0.03"},{"name":"D7","midi":98,"time":"386.70","velocity":0.2440944881889764,"duration":"0.26"},{"name":"C7","midi":96,"time":"386.71","velocity":0.2204724409448819,"duration":"0.29"},{"name":"E5","midi":76,"time":"386.72","velocity":0.4881889763779528,"duration":"0.19"},{"name":"D#7","midi":99,"time":"386.72","velocity":0.10236220472440945,"duration":"0.08"},{"name":"F7","midi":101,"time":"386.72","velocity":0.2047244094488189,"duration":"0.43"},{"name":"D6","midi":86,"time":"386.74","velocity":0.14960629921259844,"duration":"0.05"},{"name":"G6","midi":91,"time":"386.74","velocity":0.1889763779527559,"duration":"0.03"},{"name":"G6","midi":91,"time":"386.79","velocity":0.16535433070866143,"duration":"0.05"},{"name":"B4","midi":71,"time":"386.83","velocity":0.4881889763779528,"duration":"0.07"},{"name":"D#7","midi":99,"time":"386.87","velocity":0.2204724409448819,"duration":"0.06"},{"name":"F#1","midi":30,"time":"386.88","velocity":0.2755905511811024,"duration":"0.02"},{"name":"F4","midi":65,"time":"386.88","velocity":0.4566929133858268,"duration":"0.02"},{"name":"D6","midi":86,"time":"386.88","velocity":0.3464566929133858,"duration":"0.07"},{"name":"G6","midi":91,"time":"386.88","velocity":0.2125984251968504,"duration":"0.06"},{"name":"A4","midi":69,"time":"386.90","velocity":0.48031496062992124,"duration":"0.37"},{"name":"C5","midi":72,"time":"386.90","velocity":0.48031496062992124,"duration":"0.02"},{"name":"F6","midi":89,"time":"386.90","velocity":0.2204724409448819,"duration":"0.15"},{"name":"G#2","midi":44,"time":"386.91","velocity":0.5196850393700787,"duration":"0.01"},{"name":"D#5","midi":75,"time":"386.91","velocity":0.3700787401574803,"duration":"0.03"},{"name":"A2","midi":45,"time":"386.92","velocity":0.5748031496062992,"duration":"0.33"},{"name":"A#3","midi":58,"time":"386.92","velocity":0.30708661417322836,"duration":"0.03"},{"name":"F#4","midi":66,"time":"386.92","velocity":0.4409448818897638,"duration":"0.02"},{"name":"B4","midi":71,"time":"386.92","velocity":0.36220472440944884,"duration":"0.02"},{"name":"G#5","midi":80,"time":"386.92","velocity":0.4015748031496063,"duration":"0.42"},{"name":"C#5","midi":73,"time":"386.93","velocity":0.3779527559055118,"duration":"0.05"},{"name":"E5","midi":76,"time":"386.94","velocity":0.3858267716535433,"duration":"0.13"},{"name":"E4","midi":64,"time":"386.95","velocity":0.30708661417322836,"duration":"0.03"},{"name":"D#6","midi":87,"time":"386.95","velocity":0.1732283464566929,"duration":"0.05"},{"name":"D#7","midi":99,"time":"386.95","velocity":0.29133858267716534,"duration":"0.77"},{"name":"D7","midi":98,"time":"386.97","velocity":0.2440944881889764,"duration":"0.50"},{"name":"F#5","midi":78,"time":"386.98","velocity":0.49606299212598426,"duration":"0.03"},{"name":"C#5","midi":73,"time":"386.99","velocity":0.2047244094488189,"duration":"0.03"},{"name":"C#4","midi":61,"time":"387.00","velocity":0.2677165354330709,"duration":"0.05"},{"name":"B5","midi":83,"time":"387.01","velocity":0.1732283464566929,"duration":"0.03"},{"name":"G6","midi":91,"time":"387.01","velocity":0.23622047244094488,"duration":"0.13"},{"name":"G#3","midi":56,"time":"387.02","velocity":0.2992125984251969,"duration":"0.02"},{"name":"F#4","midi":66,"time":"387.02","velocity":0.2755905511811024,"duration":"0.02"},{"name":"F#5","midi":78,"time":"387.02","velocity":0.5748031496062992,"duration":"0.07"},{"name":"D6","midi":86,"time":"387.02","velocity":0.15748031496062992,"duration":"0.05"},{"name":"C6","midi":84,"time":"387.03","velocity":0.14173228346456693,"duration":"0.03"},{"name":"A#6","midi":94,"time":"387.03","velocity":0.30708661417322836,"duration":"0.35"},{"name":"C7","midi":96,"time":"387.03","velocity":0.18110236220472442,"duration":"0.09"},{"name":"G4","midi":67,"time":"387.05","velocity":0.28346456692913385,"duration":"0.02"},{"name":"C#4","midi":61,"time":"387.06","velocity":0.3228346456692913,"duration":"0.20"},{"name":"C#6","midi":85,"time":"387.06","velocity":0.3858267716535433,"duration":"0.73"},{"name":"F4","midi":65,"time":"387.07","velocity":0.23622047244094488,"duration":"0.02"},{"name":"B5","midi":83,"time":"387.07","velocity":0.4015748031496063,"duration":"0.20"},{"name":"F#4","midi":66,"time":"387.09","velocity":0.3937007874015748,"duration":"0.07"},{"name":"F5","midi":77,"time":"387.09","velocity":0.5275590551181102,"duration":"0.01"},{"name":"D6","midi":86,"time":"387.09","velocity":0.18110236220472442,"duration":"0.05"},{"name":"F#5","midi":78,"time":"387.10","velocity":0.6062992125984252,"duration":"1.30"},{"name":"F3","midi":53,"time":"387.12","velocity":0.2440944881889764,"duration":"0.03"},{"name":"E5","midi":76,"time":"387.12","velocity":0.2283464566929134,"duration":"0.12"},{"name":"E4","midi":64,"time":"387.15","velocity":0.31496062992125984,"duration":"0.03"},{"name":"C5","midi":72,"time":"387.16","velocity":0.23622047244094488,"duration":"0.06"},{"name":"F#4","midi":66,"time":"387.17","velocity":0.48031496062992124,"duration":"0.29"},{"name":"E3","midi":52,"time":"387.19","velocity":0.2204724409448819,"duration":"0.05"},{"name":"C7","midi":96,"time":"387.19","velocity":0.1732283464566929,"duration":"0.14"},{"name":"B4","midi":71,"time":"387.20","velocity":0.41732283464566927,"duration":"0.22"},{"name":"A#3","midi":58,"time":"387.21","velocity":0.2992125984251969,"duration":"0.02"},{"name":"A6","midi":93,"time":"387.22","velocity":0.2440944881889764,"duration":"0.31"},{"name":"F7","midi":101,"time":"387.23","velocity":0.15748031496062992,"duration":"0.05"},{"name":"G6","midi":91,"time":"387.26","velocity":0.15748031496062992,"duration":"0.03"},{"name":"C6","midi":84,"time":"387.27","velocity":0.2283464566929134,"duration":"0.02"},{"name":"D#6","midi":87,"time":"387.27","velocity":0.1968503937007874,"duration":"0.05"},{"name":"A2","midi":45,"time":"387.28","velocity":0.6062992125984252,"duration":"0.17"},{"name":"G#4","midi":68,"time":"387.30","velocity":0.3464566929133858,"duration":"0.03"},{"name":"E5","midi":76,"time":"387.30","velocity":0.3228346456692913,"duration":"0.12"},{"name":"F6","midi":89,"time":"387.30","velocity":0.12598425196850394,"duration":"0.07"},{"name":"G6","midi":91,"time":"387.30","velocity":0.2283464566929134,"duration":"0.03"},{"name":"F7","midi":101,"time":"387.30","velocity":0.2125984251968504,"duration":"0.10"},{"name":"A5","midi":81,"time":"387.33","velocity":0.30708661417322836,"duration":"0.21"},{"name":"A#5","midi":82,"time":"387.34","velocity":0.14173228346456693,"duration":"0.05"},{"name":"C6","midi":84,"time":"387.34","velocity":0.14960629921259844,"duration":"0.05"},{"name":"D6","midi":86,"time":"387.34","velocity":0.2677165354330709,"duration":"0.03"},{"name":"C7","midi":96,"time":"387.34","velocity":0.23622047244094488,"duration":"0.30"},{"name":"G7","midi":103,"time":"387.34","velocity":0.14173228346456693,"duration":"0.24"},{"name":"C#4","midi":61,"time":"387.35","velocity":0.2440944881889764,"duration":"0.08"},{"name":"G#5","midi":80,"time":"387.35","velocity":0.3464566929133858,"duration":"0.08"},{"name":"D#6","midi":87,"time":"387.37","velocity":0.1732283464566929,"duration":"0.10"},{"name":"G#4","midi":68,"time":"387.41","velocity":0.41732283464566927,"duration":"0.06"},{"name":"C5","midi":72,"time":"387.42","velocity":0.33070866141732286,"duration":"0.05"},{"name":"A#6","midi":94,"time":"387.42","velocity":0.2992125984251969,"duration":"0.52"},{"name":"E5","midi":76,"time":"387.43","velocity":0.29133858267716534,"duration":"0.12"},{"name":"F6","midi":89,"time":"387.43","velocity":0.14960629921259844,"duration":"0.05"},{"name":"G#2","midi":44,"time":"387.45","velocity":0.5433070866141733,"duration":"0.05"},{"name":"E4","midi":64,"time":"387.47","velocity":0.3228346456692913,"duration":"0.08"},{"name":"A4","midi":69,"time":"387.47","velocity":0.3858267716535433,"duration":"0.02"},{"name":"C#5","midi":73,"time":"387.48","velocity":0.1732283464566929,"duration":"0.03"},{"name":"D7","midi":98,"time":"387.48","velocity":0.2283464566929134,"duration":"0.65"},{"name":"G3","midi":55,"time":"387.49","velocity":0.30708661417322836,"duration":"0.02"},{"name":"G#5","midi":80,"time":"387.49","velocity":0.23622047244094488,"duration":"0.09"},{"name":"G2","midi":43,"time":"387.50","velocity":0.5118110236220472,"duration":"0.01"},{"name":"C#4","midi":61,"time":"387.50","velocity":0.15748031496062992,"duration":"0.03"},{"name":"A4","midi":69,"time":"387.50","velocity":0.4409448818897638,"duration":"0.07"},{"name":"D#6","midi":87,"time":"387.50","velocity":0.14960629921259844,"duration":"0.06"},{"name":"F7","midi":101,"time":"387.50","velocity":0.1889763779527559,"duration":"0.27"},{"name":"F#2","midi":42,"time":"387.51","velocity":0.5354330708661418,"duration":"0.03"},{"name":"C5","midi":72,"time":"387.51","velocity":0.29133858267716534,"duration":"0.02"},{"name":"G6","midi":91,"time":"387.51","velocity":0.11023622047244094,"duration":"0.05"},{"name":"F3","midi":53,"time":"387.52","velocity":0.3228346456692913,"duration":"0.05"},{"name":"B4","midi":71,"time":"387.53","velocity":0.2755905511811024,"duration":"0.09"},{"name":"D6","midi":86,"time":"387.53","velocity":0.13385826771653545,"duration":"0.03"},{"name":"F2","midi":41,"time":"387.55","velocity":0.5275590551181102,"duration":"0.02"},{"name":"F#4","midi":66,"time":"387.55","velocity":0.4409448818897638,"duration":"0.08"},{"name":"C#5","midi":73,"time":"387.56","velocity":0.25984251968503935,"duration":"0.08"},{"name":"E5","midi":76,"time":"387.56","velocity":0.29133858267716534,"duration":"0.09"},{"name":"D#6","midi":87,"time":"387.57","velocity":0.11811023622047244,"duration":"0.05"},{"name":"D#2","midi":39,"time":"387.58","velocity":0.4566929133858268,"duration":"0.03"},{"name":"A4","midi":69,"time":"387.58","velocity":0.3858267716535433,"duration":"0.02"},{"name":"E4","midi":64,"time":"387.62","velocity":0.3543307086614173,"duration":"0.02"},{"name":"D#2","midi":39,"time":"387.63","velocity":0.5826771653543307,"duration":"0.01"},{"name":"D3","midi":50,"time":"387.63","velocity":0.5984251968503937,"duration":"0.01"},{"name":"G7","midi":103,"time":"387.63","velocity":0.11811023622047244,"duration":"0.03"},{"name":"E2","midi":40,"time":"387.64","velocity":0.6535433070866141,"duration":"0.01"},{"name":"F#4","midi":66,"time":"387.64","velocity":0.5433070866141733,"duration":"0.26"},{"name":"D5","midi":74,"time":"387.64","velocity":0.2992125984251969,"duration":"0.05"},{"name":"G6","midi":91,"time":"387.64","velocity":0.2440944881889764,"duration":"0.05"},{"name":"F2","midi":41,"time":"387.65","velocity":0.5826771653543307,"duration":"0.01"},{"name":"D3","midi":50,"time":"387.65","velocity":0.5984251968503937,"duration":"0.27"},{"name":"C5","midi":72,"time":"387.65","velocity":0.2440944881889764,"duration":"0.02"},{"name":"A#5","midi":82,"time":"387.66","velocity":0.28346456692913385,"duration":"0.13"},{"name":"C7","midi":96,"time":"387.66","velocity":0.15748031496062992,"duration":"0.12"},{"name":"A4","midi":69,"time":"387.67","velocity":0.1968503937007874,"duration":"0.05"},{"name":"E5","midi":76,"time":"387.67","velocity":0.23622047244094488,"duration":"0.02"},{"name":"F#1","midi":30,"time":"387.69","velocity":0.5275590551181102,"duration":"0.01"},{"name":"A3","midi":57,"time":"387.69","velocity":0.4251968503937008,"duration":"0.02"},{"name":"C#5","midi":73,"time":"387.69","velocity":0.25984251968503935,"duration":"0.02"},{"name":"C6","midi":84,"time":"387.69","velocity":0.2283464566929134,"duration":"0.12"},{"name":"B6","midi":95,"time":"387.69","velocity":0.1889763779527559,"duration":"0.10"},{"name":"G#5","midi":80,"time":"387.71","velocity":0.23622047244094488,"duration":"0.05"},{"name":"A3","midi":57,"time":"387.72","velocity":0.4409448818897638,"duration":"0.28"},{"name":"B4","midi":71,"time":"387.72","velocity":0.2440944881889764,"duration":"0.02"},{"name":"D5","midi":74,"time":"387.72","velocity":0.4409448818897638,"duration":"0.02"},{"name":"D#7","midi":99,"time":"387.73","velocity":0.18110236220472442,"duration":"0.06"},{"name":"E2","midi":40,"time":"387.74","velocity":0.2677165354330709,"duration":"0.02"},{"name":"E5","midi":76,"time":"387.74","velocity":0.3543307086614173,"duration":"0.31"},{"name":"C5","midi":72,"time":"387.76","velocity":0.4566929133858268,"duration":"0.02"},{"name":"A5","midi":81,"time":"387.76","velocity":0.36220472440944884,"duration":"0.10"},{"name":"G6","midi":91,"time":"387.76","velocity":0.1968503937007874,"duration":"0.09"},{"name":"D6","midi":86,"time":"387.77","velocity":0.2677165354330709,"duration":"0.03"},{"name":"B4","midi":71,"time":"387.78","velocity":0.44881889763779526,"duration":"0.02"},{"name":"G#5","midi":80,"time":"387.78","velocity":0.18110236220472442,"duration":"0.03"},{"name":"F7","midi":101,"time":"387.79","velocity":0.16535433070866143,"duration":"0.05"},{"name":"A#4","midi":70,"time":"387.80","velocity":0.4094488188976378,"duration":"0.02"},{"name":"B5","midi":83,"time":"387.80","velocity":0.28346456692913385,"duration":"0.22"},{"name":"C#6","midi":85,"time":"387.80","velocity":0.33070866141732286,"duration":"0.10"},{"name":"C7","midi":96,"time":"387.80","velocity":0.2283464566929134,"duration":"0.05"},{"name":"D6","midi":86,"time":"387.81","velocity":0.23622047244094488,"duration":"0.02"},{"name":"D#7","midi":99,"time":"387.81","velocity":0.13385826771653545,"duration":"0.08"},{"name":"C#5","midi":73,"time":"387.83","velocity":0.2283464566929134,"duration":"0.06"},{"name":"G#4","midi":68,"time":"387.84","velocity":0.4566929133858268,"duration":"0.02"},{"name":"D#6","midi":87,"time":"387.84","velocity":0.2047244094488189,"duration":"0.03"},{"name":"A#5","midi":82,"time":"387.85","velocity":0.4330708661417323,"duration":"0.50"},{"name":"C7","midi":96,"time":"387.86","velocity":0.2204724409448819,"duration":"0.08"},{"name":"F7","midi":101,"time":"387.86","velocity":0.13385826771653545,"duration":"0.31"},{"name":"D#2","midi":39,"time":"387.90","velocity":0.2677165354330709,"duration":"0.02"},{"name":"G4","midi":67,"time":"387.90","velocity":0.5511811023622047,"duration":"0.02"},{"name":"G#5","midi":80,"time":"387.90","velocity":0.11811023622047244,"duration":"0.03"},{"name":"F6","midi":89,"time":"387.90","velocity":0.10236220472440945,"duration":"0.07"},{"name":"F#4","midi":66,"time":"387.91","velocity":0.4566929133858268,"duration":"0.02"},{"name":"B4","midi":71,"time":"387.91","velocity":0.23622047244094488,"duration":"0.13"},{"name":"D#6","midi":87,"time":"387.91","velocity":0.08661417322834646,"duration":"0.06"},{"name":"G7","midi":103,"time":"387.91","velocity":0.1968503937007874,"duration":"0.06"},{"name":"C#6","midi":85,"time":"387.92","velocity":0.4094488188976378,"duration":"0.48"},{"name":"D2","midi":38,"time":"387.93","velocity":0.2755905511811024,"duration":"0.02"},{"name":"D3","midi":50,"time":"387.93","velocity":0.5354330708661418,"duration":"0.07"},{"name":"G4","midi":67,"time":"387.93","velocity":0.5196850393700787,"duration":"0.07"},{"name":"C7","midi":96,"time":"387.95","velocity":0.25196850393700787,"duration":"0.24"},{"name":"G6","midi":91,"time":"387.97","velocity":0.13385826771653545,"duration":"0.07"},{"name":"A6","midi":93,"time":"387.97","velocity":0.1889763779527559,"duration":"0.10"},{"name":"D#7","midi":99,"time":"387.97","velocity":0.14173228346456693,"duration":"0.03"},{"name":"C#5","midi":73,"time":"387.99","velocity":0.3779527559055118,"duration":"0.12"},{"name":"C6","midi":84,"time":"387.99","velocity":0.2047244094488189,"duration":"0.12"},{"name":"F#4","midi":66,"time":"388.00","velocity":0.4881889763779528,"duration":"0.09"},{"name":"G7","midi":103,"time":"388.00","velocity":0.1889763779527559,"duration":"0.07"},{"name":"A5","midi":81,"time":"388.01","velocity":0.23622047244094488,"duration":"0.02"},{"name":"C3","midi":48,"time":"388.02","velocity":0.5354330708661418,"duration":"0.01"},{"name":"F6","midi":89,"time":"388.02","velocity":0.13385826771653545,"duration":"0.05"},{"name":"C#3","midi":49,"time":"388.03","velocity":0.5748031496062992,"duration":"0.01"},{"name":"A#4","midi":70,"time":"388.03","velocity":0.31496062992125984,"duration":"0.02"},{"name":"D3","midi":50,"time":"388.05","velocity":0.5905511811023622,"duration":"0.34"},{"name":"D#7","midi":99,"time":"388.05","velocity":0.1889763779527559,"duration":"0.07"},{"name":"D#6","midi":87,"time":"388.06","velocity":0.08661417322834646,"duration":"0.03"},{"name":"G6","midi":91,"time":"388.06","velocity":0.2204724409448819,"duration":"0.10"},{"name":"A4","midi":69,"time":"388.07","velocity":0.23622047244094488,"duration":"0.02"},{"name":"B5","midi":83,"time":"388.07","velocity":0.23622047244094488,"duration":"0.07"},{"name":"D2","midi":38,"time":"388.08","velocity":0.2283464566929134,"duration":"0.02"},{"name":"D#5","midi":75,"time":"388.08","velocity":0.2283464566929134,"duration":"0.02"},{"name":"G#5","midi":80,"time":"388.08","velocity":0.2677165354330709,"duration":"0.19"},{"name":"A6","midi":93,"time":"388.08","velocity":0.2204724409448819,"duration":"0.21"},{"name":"D5","midi":74,"time":"388.09","velocity":0.2677165354330709,"duration":"0.02"},{"name":"E5","midi":76,"time":"388.09","velocity":0.25196850393700787,"duration":"0.08"},{"name":"F#4","midi":66,"time":"388.10","velocity":0.5511811023622047,"duration":"0.07"},{"name":"A4","midi":69,"time":"388.10","velocity":0.30708661417322836,"duration":"0.02"},{"name":"D6","midi":86,"time":"388.12","velocity":0.2283464566929134,"duration":"0.09"},{"name":"C5","midi":72,"time":"388.13","velocity":0.3228346456692913,"duration":"0.03"},{"name":"D#7","midi":99,"time":"388.13","velocity":0.18110236220472442,"duration":"0.13"},{"name":"B5","midi":83,"time":"388.15","velocity":0.30708661417322836,"duration":"0.07"},{"name":"A3","midi":57,"time":"388.16","velocity":0.33858267716535434,"duration":"0.02"},{"name":"C#5","midi":73,"time":"388.16","velocity":0.2047244094488189,"duration":"0.03"},{"name":"G7","midi":103,"time":"388.16","velocity":0.14960629921259844,"duration":"0.06"},{"name":"A#4","midi":70,"time":"388.17","velocity":0.3228346456692913,"duration":"0.03"},{"name":"F#4","midi":66,"time":"388.19","velocity":0.5511811023622047,"duration":"0.21"},{"name":"F6","midi":89,"time":"388.19","velocity":0.08661417322834646,"duration":"0.05"},{"name":"A3","midi":57,"time":"388.20","velocity":0.4094488188976378,"duration":"0.17"},{"name":"D5","midi":74,"time":"388.20","velocity":0.25196850393700787,"duration":"0.02"},{"name":"G6","midi":91,"time":"388.20","velocity":0.1732283464566929,"duration":"0.14"},{"name":"C6","midi":84,"time":"388.21","velocity":0.29133858267716534,"duration":"0.10"},{"name":"F7","midi":101,"time":"388.21","velocity":0.14960629921259844,"duration":"0.08"},{"name":"C#5","midi":73,"time":"388.22","velocity":0.33858267716535434,"duration":"0.16"},{"name":"D7","midi":98,"time":"388.23","velocity":0.2283464566929134,"duration":"0.23"},{"name":"E5","midi":76,"time":"388.24","velocity":0.41732283464566927,"duration":"0.17"},{"name":"A5","midi":81,"time":"388.26","velocity":0.3228346456692913,"duration":"0.14"},{"name":"F6","midi":89,"time":"388.27","velocity":0.12598425196850394,"duration":"0.05"},{"name":"D6","midi":86,"time":"388.28","velocity":0.1889763779527559,"duration":"0.05"},{"name":"D#6","midi":87,"time":"388.28","velocity":0.13385826771653545,"duration":"0.03"},{"name":"D#7","midi":99,"time":"388.29","velocity":0.30708661417322836,"duration":"1.08"},{"name":"B5","midi":83,"time":"388.30","velocity":0.2283464566929134,"duration":"0.05"},{"name":"G#5","midi":80,"time":"388.34","velocity":0.10236220472440945,"duration":"0.05"},{"name":"C7","midi":96,"time":"388.34","velocity":0.2204724409448819,"duration":"0.13"},{"name":"C6","midi":84,"time":"388.35","velocity":0.3543307086614173,"duration":"0.07"},{"name":"G6","midi":91,"time":"388.35","velocity":0.13385826771653545,"duration":"0.03"},{"name":"B5","midi":83,"time":"388.36","velocity":0.2204724409448819,"duration":"0.03"},{"name":"G#3","midi":56,"time":"388.37","velocity":0.3700787401574803,"duration":"0.02"},{"name":"F7","midi":101,"time":"388.37","velocity":0.2125984251968504,"duration":"0.91"},{"name":"D2","midi":38,"time":"388.38","velocity":0.3937007874015748,"duration":"0.02"},{"name":"B4","midi":71,"time":"388.38","velocity":0.4251968503937008,"duration":"0.03"},{"name":"D#6","midi":87,"time":"388.38","velocity":0.3464566929133858,"duration":"0.03"},{"name":"G7","midi":103,"time":"388.38","velocity":0.13385826771653545,"duration":"0.05"},{"name":"C4","midi":60,"time":"388.40","velocity":0.5196850393700787,"duration":"0.05"},{"name":"G4","midi":67,"time":"388.40","velocity":0.5275590551181102,"duration":"0.01"},{"name":"C#5","midi":73,"time":"388.40","velocity":0.4409448818897638,"duration":"0.08"},{"name":"G#5","midi":80,"time":"388.40","velocity":0.33858267716535434,"duration":"0.05"},{"name":"G6","midi":91,"time":"388.40","velocity":0.33070866141732286,"duration":"0.07"},{"name":"E2","midi":40,"time":"388.41","velocity":0.4645669291338583,"duration":"0.02"},{"name":"F4","midi":65,"time":"388.41","velocity":0.41732283464566927,"duration":"0.02"},{"name":"A6","midi":93,"time":"388.41","velocity":0.25984251968503935,"duration":"0.42"},{"name":"D#3","midi":51,"time":"388.42","velocity":0.5354330708661418,"duration":"0.01"},{"name":"A4","midi":69,"time":"388.42","velocity":0.41732283464566927,"duration":"0.06"},{"name":"D6","midi":86,"time":"388.42","velocity":0.30708661417322836,"duration":"0.15"},{"name":"D3","midi":50,"time":"388.43","velocity":0.5905511811023622,"duration":"0.70"},{"name":"F#4","midi":66,"time":"388.43","velocity":0.5196850393700787,"duration":"0.12"},{"name":"C#4","midi":61,"time":"388.44","velocity":0.2440944881889764,"duration":"0.02"},{"name":"B4","midi":71,"time":"388.44","velocity":0.25196850393700787,"duration":"0.02"},{"name":"A#5","midi":82,"time":"388.44","velocity":0.4015748031496063,"duration":"0.27"},{"name":"F5","midi":77,"time":"388.45","velocity":0.29133858267716534,"duration":"0.02"},{"name":"C5","midi":72,"time":"388.48","velocity":0.29133858267716534,"duration":"0.02"},{"name":"C#5","midi":73,"time":"388.49","velocity":0.3937007874015748,"duration":"0.23"},{"name":"E5","midi":76,"time":"388.49","velocity":0.2677165354330709,"duration":"0.06"},{"name":"G#5","midi":80,"time":"388.49","velocity":0.29133858267716534,"duration":"0.05"},{"name":"C7","midi":96,"time":"388.49","velocity":0.2047244094488189,"duration":"0.05"},{"name":"G7","midi":103,"time":"388.49","velocity":0.11811023622047244,"duration":"0.06"},{"name":"A4","midi":69,"time":"388.50","velocity":0.3858267716535433,"duration":"0.12"},{"name":"G6","midi":91,"time":"388.50","velocity":0.1732283464566929,"duration":"0.05"},{"name":"B4","midi":71,"time":"388.51","velocity":0.2283464566929134,"duration":"0.02"},{"name":"C7","midi":96,"time":"388.55","velocity":0.2677165354330709,"duration":"0.73"},{"name":"F#4","midi":66,"time":"388.56","velocity":0.5118110236220472,"duration":"0.08"},{"name":"E5","midi":76,"time":"388.57","velocity":0.33858267716535434,"duration":"0.38"},{"name":"G#5","midi":80,"time":"388.58","velocity":0.33070866141732286,"duration":"0.23"},{"name":"G6","midi":91,"time":"388.58","velocity":0.2283464566929134,"duration":"0.10"},{"name":"A3","midi":57,"time":"388.59","velocity":0.3858267716535433,"duration":"0.03"},{"name":"D6","midi":86,"time":"388.62","velocity":0.2440944881889764,"duration":"0.09"},{"name":"B5","midi":83,"time":"388.63","velocity":0.30708661417322836,"duration":"0.06"},{"name":"A3","midi":57,"time":"388.64","velocity":0.5039370078740157,"duration":"0.10"},{"name":"A5","midi":81,"time":"388.64","velocity":0.29133858267716534,"duration":"0.09"},{"name":"F#4","midi":66,"time":"388.65","velocity":0.4330708661417323,"duration":"0.05"},{"name":"B4","midi":71,"time":"388.66","velocity":0.31496062992125984,"duration":"0.02"},{"name":"D#6","midi":87,"time":"388.66","velocity":0.13385826771653545,"duration":"0.06"},{"name":"F6","midi":89,"time":"388.66","velocity":0.14960629921259844,"duration":"0.13"},{"name":"C6","midi":84,"time":"388.67","velocity":0.31496062992125984,"duration":"0.08"},{"name":"B5","midi":83,"time":"388.70","velocity":0.29133858267716534,"duration":"0.09"},{"name":"F#4","midi":66,"time":"388.71","velocity":0.5511811023622047,"duration":"0.08"},{"name":"C#2","midi":37,"time":"388.72","velocity":0.2677165354330709,"duration":"0.03"},{"name":"A#5","midi":82,"time":"388.72","velocity":0.25196850393700787,"duration":"0.07"},{"name":"D6","midi":86,"time":"388.72","velocity":0.3228346456692913,"duration":"0.15"},{"name":"C#5","midi":73,"time":"388.74","velocity":0.41732283464566927,"duration":"0.19"},{"name":"G7","midi":103,"time":"388.76","velocity":0.2125984251968504,"duration":"0.07"},{"name":"G5","midi":79,"time":"388.77","velocity":0.2283464566929134,"duration":"0.02"},{"name":"E2","midi":40,"time":"388.78","velocity":0.5354330708661418,"duration":"0.01"},{"name":"F4","midi":65,"time":"388.78","velocity":0.4881889763779528,"duration":"0.02"},{"name":"D#2","midi":39,"time":"388.79","velocity":0.5039370078740157,"duration":"0.02"},{"name":"C6","midi":84,"time":"388.79","velocity":0.2440944881889764,"duration":"0.13"},{"name":"G6","midi":91,"time":"388.79","velocity":0.14960629921259844,"duration":"0.10"},{"name":"B6","midi":95,"time":"388.79","velocity":0.2677165354330709,"duration":"0.76"},{"name":"A#3","midi":58,"time":"388.80","velocity":0.3543307086614173,"duration":"0.02"},{"name":"F#4","midi":66,"time":"388.80","velocity":0.6141732283464567,"duration":"0.36"},{"name":"A#5","midi":82,"time":"388.80","velocity":0.14173228346456693,"duration":"0.03"},{"name":"G#5","midi":80,"time":"388.84","velocity":0.33070866141732286,"duration":"0.16"},{"name":"F6","midi":89,"time":"388.84","velocity":0.11811023622047244,"duration":"0.06"},{"name":"A3","midi":57,"time":"388.85","velocity":0.4251968503937008,"duration":"0.28"},{"name":"A#5","midi":82,"time":"388.85","velocity":0.3464566929133858,"duration":"0.17"},{"name":"G7","midi":103,"time":"388.86","velocity":0.1889763779527559,"duration":"0.12"},{"name":"D6","midi":86,"time":"388.88","velocity":0.30708661417322836,"duration":"0.03"},{"name":"B5","midi":83,"time":"388.90","velocity":0.2283464566929134,"duration":"0.03"},{"name":"A6","midi":93,"time":"388.92","velocity":0.25196850393700787,"duration":"0.43"},{"name":"C6","midi":84,"time":"388.93","velocity":0.2204724409448819,"duration":"0.03"},{"name":"D6","midi":86,"time":"388.93","velocity":0.3228346456692913,"duration":"0.31"},{"name":"F5","midi":77,"time":"388.95","velocity":0.23622047244094488,"duration":"0.02"},{"name":"B5","midi":83,"time":"388.95","velocity":0.28346456692913385,"duration":"0.07"},{"name":"E5","midi":76,"time":"388.97","velocity":0.36220472440944884,"duration":"0.23"},{"name":"C#5","midi":73,"time":"388.98","velocity":0.2992125984251969,"duration":"0.10"},{"name":"C6","midi":84,"time":"389.01","velocity":0.23622047244094488,"duration":"0.03"},{"name":"G7","midi":103,"time":"389.01","velocity":0.07086614173228346,"duration":"0.05"},{"name":"G#5","midi":80,"time":"389.02","velocity":0.23622047244094488,"duration":"0.06"},{"name":"A#5","midi":82,"time":"389.03","velocity":0.2992125984251969,"duration":"0.02"},{"name":"B5","midi":83,"time":"389.03","velocity":0.2755905511811024,"duration":"0.09"},{"name":"D#2","midi":39,"time":"389.05","velocity":0.1968503937007874,"duration":"0.03"},{"name":"F5","midi":77,"time":"389.07","velocity":0.2204724409448819,"duration":"0.03"},{"name":"A#5","midi":82,"time":"389.07","velocity":0.2755905511811024,"duration":"0.08"},{"name":"G6","midi":91,"time":"389.07","velocity":0.2440944881889764,"duration":"0.22"},{"name":"G#5","midi":80,"time":"389.09","velocity":0.25196850393700787,"duration":"0.07"},{"name":"C5","midi":72,"time":"389.10","velocity":0.2440944881889764,"duration":"0.02"},{"name":"A#4","midi":70,"time":"389.12","velocity":0.29133858267716534,"duration":"0.02"},{"name":"A2","midi":45,"time":"389.13","velocity":0.6220472440944882,"duration":"0.01"},{"name":"C6","midi":84,"time":"389.13","velocity":0.25984251968503935,"duration":"0.03"},{"name":"F2","midi":41,"time":"389.14","velocity":0.6456692913385826,"duration":"0.01"},{"name":"C4","midi":60,"time":"389.14","velocity":0.33858267716535434,"duration":"0.02"},{"name":"B4","midi":71,"time":"389.14","velocity":0.2677165354330709,"duration":"0.06"},{"name":"D5","midi":74,"time":"389.14","velocity":0.28346456692913385,"duration":"0.02"},{"name":"A5","midi":81,"time":"389.14","velocity":0.28346456692913385,"duration":"0.09"},{"name":"G#6","midi":92,"time":"389.14","velocity":0.30708661417322836,"duration":"0.30"},{"name":"C#5","midi":73,"time":"389.15","velocity":0.2204724409448819,"duration":"0.06"},{"name":"E4","midi":64,"time":"389.16","velocity":0.3779527559055118,"duration":"0.02"},{"name":"G4","midi":67,"time":"389.16","velocity":0.3779527559055118,"duration":"0.02"},{"name":"A#5","midi":82,"time":"389.16","velocity":0.23622047244094488,"duration":"0.03"},{"name":"E1","midi":28,"time":"389.17","velocity":0.5275590551181102,"duration":"0.01"},{"name":"D#3","midi":51,"time":"389.17","velocity":0.5511811023622047,"duration":"0.01"},{"name":"A3","midi":57,"time":"389.17","velocity":0.2283464566929134,"duration":"0.03"},{"name":"A4","midi":69,"time":"389.17","velocity":0.29133858267716534,"duration":"0.09"},{"name":"C6","midi":84,"time":"389.17","velocity":0.18110236220472442,"duration":"0.05"},{"name":"F6","midi":89,"time":"389.17","velocity":0.14173228346456693,"duration":"0.05"},{"name":"D3","midi":50,"time":"389.19","velocity":0.5748031496062992,"duration":"0.30"},{"name":"F#4","midi":66,"time":"389.19","velocity":0.5118110236220472,"duration":"0.07"},{"name":"C5","midi":72,"time":"389.21","velocity":0.23622047244094488,"duration":"0.02"},{"name":"D5","midi":74,"time":"389.21","velocity":0.2125984251968504,"duration":"0.03"},{"name":"A#5","midi":82,"time":"389.21","velocity":0.4015748031496063,"duration":"0.42"},{"name":"B5","midi":83,"time":"389.21","velocity":0.3543307086614173,"duration":"0.35"},{"name":"A3","midi":57,"time":"389.22","velocity":0.25984251968503935,"duration":"0.02"},{"name":"G#5","midi":80,"time":"389.23","velocity":0.18110236220472442,"duration":"0.07"},{"name":"G#3","midi":56,"time":"389.24","velocity":0.28346456692913385,"duration":"0.02"},{"name":"C5","midi":72,"time":"389.24","velocity":0.2283464566929134,"duration":"0.02"},{"name":"E5","midi":76,"time":"389.24","velocity":0.30708661417322836,"duration":"0.27"},{"name":"A3","midi":57,"time":"389.27","velocity":0.30708661417322836,"duration":"0.07"},{"name":"F#4","midi":66,"time":"389.27","velocity":0.5433070866141733,"duration":"0.07"},{"name":"B4","midi":71,"time":"389.27","velocity":0.2125984251968504,"duration":"0.05"},{"name":"F6","midi":89,"time":"389.28","velocity":0.08661417322834646,"duration":"0.05"},{"name":"F7","midi":101,"time":"389.29","velocity":0.1732283464566929,"duration":"0.15"},{"name":"C7","midi":96,"time":"389.30","velocity":0.2125984251968504,"duration":"0.95"},{"name":"G7","midi":103,"time":"389.30","velocity":0.11811023622047244,"duration":"0.03"},{"name":"B4","midi":71,"time":"389.33","velocity":0.2755905511811024,"duration":"0.05"},{"name":"A3","midi":57,"time":"389.35","velocity":0.4094488188976378,"duration":"0.13"},{"name":"F#4","midi":66,"time":"389.35","velocity":0.5511811023622047,"duration":"0.21"},{"name":"G#5","midi":80,"time":"389.35","velocity":0.2283464566929134,"duration":"0.05"},{"name":"F6","midi":89,"time":"389.35","velocity":0.11811023622047244,"duration":"0.05"},{"name":"G7","midi":103,"time":"389.35","velocity":0.15748031496062992,"duration":"0.20"},{"name":"C#5","midi":73,"time":"389.36","velocity":0.29133858267716534,"duration":"0.03"},{"name":"D#6","midi":87,"time":"389.36","velocity":0.13385826771653545,"duration":"0.05"},{"name":"G6","midi":91,"time":"389.36","velocity":0.11811023622047244,"duration":"0.03"},{"name":"A6","midi":93,"time":"389.37","velocity":0.13385826771653545,"duration":"0.05"},{"name":"B4","midi":71,"time":"389.38","velocity":0.2677165354330709,"duration":"0.03"},{"name":"D6","midi":86,"time":"389.40","velocity":0.2677165354330709,"duration":"0.05"},{"name":"C#5","midi":73,"time":"389.42","velocity":0.25196850393700787,"duration":"0.02"},{"name":"G6","midi":91,"time":"389.42","velocity":0.2283464566929134,"duration":"0.12"},{"name":"B4","midi":71,"time":"389.43","velocity":0.2755905511811024,"duration":"0.05"},{"name":"A5","midi":81,"time":"389.43","velocity":0.3700787401574803,"duration":"0.09"},{"name":"D#7","midi":99,"time":"389.43","velocity":0.1732283464566929,"duration":"0.07"},{"name":"C6","midi":84,"time":"389.44","velocity":0.2992125984251969,"duration":"0.03"},{"name":"D#6","midi":87,"time":"389.44","velocity":0.14960629921259844,"duration":"0.05"},{"name":"G#6","midi":92,"time":"389.45","velocity":0.2755905511811024,"duration":"0.87"},{"name":"C#2","midi":37,"time":"389.47","velocity":0.30708661417322836,"duration":"0.02"},{"name":"B4","midi":71,"time":"389.49","velocity":0.33858267716535434,"duration":"0.06"},{"name":"F7","midi":101,"time":"389.49","velocity":0.2125984251968504,"duration":"0.58"},{"name":"E2","midi":40,"time":"389.51","velocity":0.5433070866141733,"duration":"0.01"},{"name":"F2","midi":41,"time":"389.52","velocity":0.5984251968503937,"duration":"0.01"},{"name":"A4","midi":69,"time":"389.52","velocity":0.29133858267716534,"duration":"0.06"},{"name":"G5","midi":79,"time":"389.52","velocity":0.33858267716535434,"duration":"0.02"},{"name":"E6","midi":88,"time":"389.52","velocity":0.25196850393700787,"duration":"0.27"},{"name":"G2","midi":43,"time":"389.53","velocity":0.5511811023622047,"duration":"0.01"},{"name":"E5","midi":76,"time":"389.53","velocity":0.33858267716535434,"duration":"0.22"},{"name":"G#5","midi":80,"time":"389.53","velocity":0.28346456692913385,"duration":"0.03"},{"name":"C6","midi":84,"time":"389.53","velocity":0.25984251968503935,"duration":"0.12"},{"name":"G#1","midi":32,"time":"389.55","velocity":0.5590551181102362,"duration":"0.01"},{"name":"D3","midi":50,"time":"389.55","velocity":0.5196850393700787,"duration":"0.01"},{"name":"C#5","midi":73,"time":"389.55","velocity":0.25984251968503935,"duration":"0.12"},{"name":"F6","midi":89,"time":"389.55","velocity":0.16535433070866143,"duration":"0.05"},{"name":"A6","midi":93,"time":"389.55","velocity":0.1968503937007874,"duration":"0.26"},{"name":"F#1","midi":30,"time":"389.56","velocity":0.5590551181102362,"duration":"0.02"},{"name":"C#3","midi":49,"time":"389.56","velocity":0.5354330708661418,"duration":"0.01"},{"name":"F4","midi":65,"time":"389.56","velocity":0.36220472440944884,"duration":"0.02"},{"name":"D6","midi":86,"time":"389.56","velocity":0.2755905511811024,"duration":"0.15"},{"name":"D#7","midi":99,"time":"389.56","velocity":0.1968503937007874,"duration":"0.27"},{"name":"D3","midi":50,"time":"389.57","velocity":0.5511811023622047,"duration":"0.30"},{"name":"G7","midi":103,"time":"389.57","velocity":0.08661417322834646,"duration":"0.03"},{"name":"F#4","midi":66,"time":"389.58","velocity":0.4330708661417323,"duration":"0.02"},{"name":"G6","midi":91,"time":"389.59","velocity":0.16535433070866143,"duration":"0.03"},{"name":"F4","midi":65,"time":"389.60","velocity":0.3858267716535433,"duration":"0.02"},{"name":"G#5","midi":80,"time":"389.60","velocity":0.1968503937007874,"duration":"0.14"},{"name":"A4","midi":69,"time":"389.62","velocity":0.25984251968503935,"duration":"0.08"},{"name":"A5","midi":81,"time":"389.62","velocity":0.4094488188976378,"duration":"0.14"},{"name":"B5","midi":83,"time":"389.62","velocity":0.25984251968503935,"duration":"0.28"},{"name":"F#4","midi":66,"time":"389.63","velocity":0.5039370078740157,"duration":"0.08"},{"name":"G7","midi":103,"time":"389.63","velocity":0.14173228346456693,"duration":"0.03"},{"name":"A#5","midi":82,"time":"389.64","velocity":0.2047244094488189,"duration":"0.03"},{"name":"C#6","midi":85,"time":"389.64","velocity":0.3937007874015748,"duration":"0.15"},{"name":"A3","midi":57,"time":"389.65","velocity":0.4566929133858268,"duration":"0.20"},{"name":"C2","midi":36,"time":"389.66","velocity":0.41732283464566927,"duration":"0.02"},{"name":"C5","midi":72,"time":"389.66","velocity":0.25984251968503935,"duration":"0.06"},{"name":"D5","midi":74,"time":"389.66","velocity":0.23622047244094488,"duration":"0.06"},{"name":"G6","midi":91,"time":"389.70","velocity":0.1732283464566929,"duration":"0.10"},{"name":"C2","midi":36,"time":"389.71","velocity":0.3700787401574803,"duration":"0.02"},{"name":"F4","midi":65,"time":"389.71","velocity":0.47244094488188976,"duration":"0.02"},{"name":"C#5","midi":73,"time":"389.72","velocity":0.23622047244094488,"duration":"0.02"},{"name":"F#4","midi":66,"time":"389.73","velocity":0.5118110236220472,"duration":"0.05"},{"name":"D5","midi":74,"time":"389.73","velocity":0.33070866141732286,"duration":"0.07"},{"name":"A#5","midi":82,"time":"389.74","velocity":0.29133858267716534,"duration":"0.08"},{"name":"A#6","midi":94,"time":"389.74","velocity":0.3464566929133858,"duration":"0.59"},{"name":"B4","midi":71,"time":"389.77","velocity":0.13385826771653545,"duration":"0.03"},{"name":"E5","midi":76,"time":"389.78","velocity":0.14173228346456693,"duration":"0.07"},{"name":"C6","midi":84,"time":"389.78","velocity":0.14173228346456693,"duration":"0.03"},{"name":"F#4","midi":66,"time":"389.79","velocity":0.5511811023622047,"duration":"0.12"},{"name":"G#5","midi":80,"time":"389.79","velocity":0.14960629921259844,"duration":"0.03"},{"name":"A5","midi":81,"time":"389.79","velocity":0.3779527559055118,"duration":"0.13"},{"name":"E7","midi":100,"time":"389.79","velocity":0.12598425196850394,"duration":"0.06"},{"name":"C2","midi":36,"time":"389.80","velocity":0.3464566929133858,"duration":"0.02"},{"name":"C#5","midi":73,"time":"389.80","velocity":0.3228346456692913,"duration":"0.07"},{"name":"C#6","midi":85,"time":"389.81","velocity":0.41732283464566927,"duration":"0.37"},{"name":"E6","midi":88,"time":"389.81","velocity":0.1889763779527559,"duration":"0.06"},{"name":"G6","midi":91,"time":"389.81","velocity":0.14960629921259844,"duration":"0.05"},{"name":"C#2","midi":37,"time":"389.85","velocity":0.3700787401574803,"duration":"0.02"},{"name":"D#7","midi":99,"time":"389.85","velocity":0.28346456692913385,"duration":"0.31"},{"name":"C#4","midi":61,"time":"389.86","velocity":0.25984251968503935,"duration":"0.02"},{"name":"D5","midi":74,"time":"389.86","velocity":0.3228346456692913,"duration":"0.03"},{"name":"E5","midi":76,"time":"389.86","velocity":0.47244094488188976,"duration":"0.07"},{"name":"G#5","midi":80,"time":"389.86","velocity":0.2755905511811024,"duration":"0.07"},{"name":"C6","midi":84,"time":"389.86","velocity":0.3228346456692913,"duration":"0.09"},{"name":"B6","midi":95,"time":"389.86","velocity":0.2755905511811024,"duration":"0.66"},{"name":"E7","midi":100,"time":"389.86","velocity":0.25984251968503935,"duration":"0.35"},{"name":"G7","midi":103,"time":"389.86","velocity":0.1732283464566929,"duration":"0.03"},{"name":"D#2","midi":39,"time":"389.87","velocity":0.4330708661417323,"duration":"0.02"},{"name":"B4","midi":71,"time":"389.87","velocity":0.3700787401574803,"duration":"0.02"},{"name":"F6","midi":89,"time":"389.87","velocity":0.2440944881889764,"duration":"0.09"},{"name":"D4","midi":62,"time":"389.88","velocity":0.4881889763779528,"duration":"0.02"},{"name":"C#5","midi":73,"time":"389.88","velocity":0.3937007874015748,"duration":"0.03"},{"name":"D6","midi":86,"time":"389.88","velocity":0.33858267716535434,"duration":"0.07"},{"name":"G6","midi":91,"time":"389.88","velocity":0.1732283464566929,"duration":"0.09"},{"name":"E2","midi":40,"time":"389.90","velocity":0.4330708661417323,"duration":"0.02"},{"name":"G#4","midi":68,"time":"389.90","velocity":0.5275590551181102,"duration":"0.02"},{"name":"D3","midi":50,"time":"389.91","velocity":0.5669291338582677,"duration":"0.73"},{"name":"F4","midi":65,"time":"389.91","velocity":0.5039370078740157,"duration":"0.02"},{"name":"B5","midi":83,"time":"389.91","velocity":0.33070866141732286,"duration":"0.33"},{"name":"D#6","midi":87,"time":"389.91","velocity":0.18110236220472442,"duration":"0.05"},{"name":"G7","midi":103,"time":"389.91","velocity":0.1732283464566929,"duration":"0.12"},{"name":"A4","midi":69,"time":"389.92","velocity":0.4645669291338583,"duration":"0.02"},{"name":"D#5","midi":75,"time":"389.92","velocity":0.4094488188976378,"duration":"0.02"},{"name":"A#5","midi":82,"time":"389.92","velocity":0.2204724409448819,"duration":"0.03"},{"name":"C#4","midi":61,"time":"389.93","velocity":0.3937007874015748,"duration":"0.02"},{"name":"G4","midi":67,"time":"389.93","velocity":0.36220472440944884,"duration":"0.03"},{"name":"A3","midi":57,"time":"389.95","velocity":0.41732283464566927,"duration":"0.02"},{"name":"C#5","midi":73,"time":"389.95","velocity":0.30708661417322836,"duration":"0.08"},{"name":"F#4","midi":66,"time":"389.97","velocity":0.4251968503937008,"duration":"0.03"},{"name":"D6","midi":86,"time":"389.97","velocity":0.2283464566929134,"duration":"0.09"},{"name":"G#3","midi":56,"time":"389.98","velocity":0.3464566929133858,"duration":"0.02"},{"name":"E5","midi":76,"time":"389.98","velocity":0.2440944881889764,"duration":"0.06"},{"name":"G#5","midi":80,"time":"389.98","velocity":0.2677165354330709,"duration":"0.03"},{"name":"A3","midi":57,"time":"390.00","velocity":0.4251968503937008,"duration":"0.07"},{"name":"F4","midi":65,"time":"390.00","velocity":0.41732283464566927,"duration":"0.02"},{"name":"A#4","midi":70,"time":"390.00","velocity":0.28346456692913385,"duration":"0.02"},{"name":"F#4","midi":66,"time":"390.02","velocity":0.5826771653543307,"duration":"0.08"},{"name":"G#5","midi":80,"time":"390.02","velocity":0.14960629921259844,"duration":"0.06"},{"name":"A#5","midi":82,"time":"390.05","velocity":0.4094488188976378,"duration":"0.21"},{"name":"A#4","midi":70,"time":"390.06","velocity":0.25196850393700787,"duration":"0.05"},{"name":"F6","midi":89,"time":"390.07","velocity":0.10236220472440945,"duration":"0.07"},{"name":"G7","midi":103,"time":"390.07","velocity":0.11023622047244094,"duration":"0.07"},{"name":"A3","midi":57,"time":"390.08","velocity":0.4645669291338583,"duration":"0.16"},{"name":"C#5","midi":73,"time":"390.08","velocity":0.4566929133858268,"duration":"0.23"},{"name":"C6","midi":84,"time":"390.09","velocity":0.25196850393700787,"duration":"0.06"},{"name":"F7","midi":101,"time":"390.09","velocity":0.18110236220472442,"duration":"0.05"},{"name":"B4","midi":71,"time":"390.10","velocity":0.2755905511811024,"duration":"0.05"},{"name":"E5","midi":76,"time":"390.10","velocity":0.2047244094488189,"duration":"0.16"},{"name":"A6","midi":93,"time":"390.10","velocity":0.2204724409448819,"duration":"0.10"},{"name":"F#4","midi":66,"time":"390.12","velocity":0.5039370078740157,"duration":"0.05"},{"name":"G#5","midi":80,"time":"390.14","velocity":0.25196850393700787,"duration":"0.07"},{"name":"F7","midi":101,"time":"390.15","velocity":0.16535433070866143,"duration":"0.10"},{"name":"B4","midi":71,"time":"390.16","velocity":0.30708661417322836,"duration":"0.03"},{"name":"F#5","midi":78,"time":"390.16","velocity":0.4881889763779528,"duration":"0.43"},{"name":"A5","midi":81,"time":"390.16","velocity":0.36220472440944884,"duration":"0.13"},{"name":"D6","midi":86,"time":"390.16","velocity":0.11811023622047244,"duration":"0.03"},{"name":"F#4","midi":66,"time":"390.17","velocity":0.5196850393700787,"duration":"0.08"},{"name":"G6","midi":91,"time":"390.17","velocity":0.2204724409448819,"duration":"0.07"},{"name":"D#6","midi":87,"time":"390.19","velocity":0.10236220472440945,"duration":"0.05"},{"name":"D#7","midi":99,"time":"390.21","velocity":0.2125984251968504,"duration":"0.14"},{"name":"C#2","midi":37,"time":"390.23","velocity":0.2677165354330709,"duration":"0.02"},{"name":"C6","midi":84,"time":"390.23","velocity":0.2125984251968504,"duration":"0.05"},{"name":"E7","midi":100,"time":"390.23","velocity":0.2677165354330709,"duration":"0.64"},{"name":"G#5","midi":80,"time":"390.24","velocity":0.11811023622047244,"duration":"0.03"},{"name":"G4","midi":67,"time":"390.26","velocity":0.4094488188976378,"duration":"0.02"},{"name":"D6","midi":86,"time":"390.26","velocity":0.13385826771653545,"duration":"0.03"},{"name":"C7","midi":96,"time":"390.27","velocity":0.25196850393700787,"duration":"0.42"},{"name":"E2","midi":40,"time":"390.28","velocity":0.5354330708661418,"duration":"0.02"},{"name":"F#4","midi":66,"time":"390.28","velocity":0.3937007874015748,"duration":"0.02"},{"name":"E5","midi":76,"time":"390.28","velocity":0.36220472440944884,"duration":"0.48"},{"name":"B5","midi":83,"time":"390.28","velocity":0.29133858267716534,"duration":"0.19"},{"name":"G7","midi":103,"time":"390.28","velocity":0.2755905511811024,"duration":"0.06"},{"name":"A#5","midi":82,"time":"390.29","velocity":0.2755905511811024,"duration":"0.07"},{"name":"A6","midi":93,"time":"390.29","velocity":0.25196850393700787,"duration":"0.16"},{"name":"F7","midi":101,"time":"390.29","velocity":0.2440944881889764,"duration":"0.64"},{"name":"A4","midi":69,"time":"390.30","velocity":0.2755905511811024,"duration":"0.02"},{"name":"G6","midi":91,"time":"390.30","velocity":0.13385826771653545,"duration":"0.06"},{"name":"F6","midi":89,"time":"390.31","velocity":0.1968503937007874,"duration":"0.12"},{"name":"A3","midi":57,"time":"390.33","velocity":0.30708661417322836,"duration":"0.07"},{"name":"G#5","midi":80,"time":"390.33","velocity":0.2047244094488189,"duration":"0.12"},{"name":"D#6","midi":87,"time":"390.33","velocity":0.12598425196850394,"duration":"0.05"},{"name":"F#4","midi":66,"time":"390.34","velocity":0.5039370078740157,"duration":"0.06"},{"name":"C#2","midi":37,"time":"390.35","velocity":0.25196850393700787,"duration":"0.02"},{"name":"A5","midi":81,"time":"390.35","velocity":0.25984251968503935,"duration":"0.14"},{"name":"G#6","midi":92,"time":"390.35","velocity":0.33858267716535434,"duration":"0.52"},{"name":"D#7","midi":99,"time":"390.36","velocity":0.29133858267716534,"duration":"0.37"},{"name":"A#6","midi":94,"time":"390.40","velocity":0.29133858267716534,"duration":"0.41"},{"name":"A3","midi":57,"time":"390.41","velocity":0.33070866141732286,"duration":"0.09"},{"name":"F#4","midi":66,"time":"390.41","velocity":0.5275590551181102,"duration":"0.22"},{"name":"B4","midi":71,"time":"390.41","velocity":0.2204724409448819,"duration":"0.03"},{"name":"C#2","midi":37,"time":"390.42","velocity":0.2677165354330709,"duration":"0.02"},{"name":"D6","midi":86,"time":"390.43","velocity":0.2440944881889764,"duration":"0.02"},{"name":"D2","midi":38,"time":"390.44","velocity":0.2992125984251969,"duration":"0.02"},{"name":"G7","midi":103,"time":"390.44","velocity":0.11811023622047244,"duration":"0.10"},{"name":"B4","midi":71,"time":"390.45","velocity":0.2755905511811024,"duration":"0.09"},{"name":"C6","midi":84,"time":"390.45","velocity":0.2047244094488189,"duration":"0.06"},{"name":"A#5","midi":82,"time":"390.47","velocity":0.4015748031496063,"duration":"0.53"},{"name":"D#6","midi":87,"time":"390.47","velocity":0.14173228346456693,"duration":"0.06"},{"name":"D2","midi":38,"time":"390.48","velocity":0.30708661417322836,"duration":"0.10"},{"name":"C#5","midi":73,"time":"390.48","velocity":0.3779527559055118,"duration":"0.22"},{"name":"D6","midi":86,"time":"390.49","velocity":0.36220472440944884,"duration":"0.14"},{"name":"G#5","midi":80,"time":"390.50","velocity":0.1732283464566929,"duration":"0.06"},{"name":"B5","midi":83,"time":"390.50","velocity":0.3937007874015748,"duration":"0.56"},{"name":"A3","midi":57,"time":"390.51","velocity":0.3858267716535433,"duration":"0.12"},{"name":"C#6","midi":85,"time":"390.52","velocity":0.3858267716535433,"duration":"0.29"},{"name":"G6","midi":91,"time":"390.55","velocity":0.11811023622047244,"duration":"0.03"},{"name":"B4","midi":71,"time":"390.56","velocity":0.29133858267716534,"duration":"0.07"},{"name":"A5","midi":81,"time":"390.56","velocity":0.23622047244094488,"duration":"0.02"},{"name":"C6","midi":84,"time":"390.56","velocity":0.1889763779527559,"duration":"0.03"},{"name":"G#5","midi":80,"time":"390.58","velocity":0.2992125984251969,"duration":"0.09"},{"name":"A4","midi":69,"time":"390.59","velocity":0.4015748031496063,"duration":"0.14"},{"name":"G7","midi":103,"time":"390.60","velocity":0.2440944881889764,"duration":"0.47"},{"name":"F4","midi":65,"time":"390.63","velocity":0.4094488188976378,"duration":"0.02"},{"name":"G6","midi":91,"time":"390.63","velocity":0.2440944881889764,"duration":"0.09"},{"name":"C3","midi":48,"time":"390.64","velocity":0.5590551181102362,"duration":"0.01"},{"name":"C#4","midi":61,"time":"390.64","velocity":0.28346456692913385,"duration":"0.02"},{"name":"D5","midi":74,"time":"390.64","velocity":0.2440944881889764,"duration":"0.02"},{"name":"G5","midi":79,"time":"390.64","velocity":0.29133858267716534,"duration":"0.06"},{"name":"D#6","midi":87,"time":"390.64","velocity":0.2204724409448819,"duration":"0.05"},{"name":"F2","midi":41,"time":"390.65","velocity":0.6062992125984252,"duration":"0.01"},{"name":"G#3","midi":56,"time":"390.65","velocity":0.3543307086614173,"duration":"0.02"},{"name":"F#4","midi":66,"time":"390.65","velocity":0.44881889763779526,"duration":"0.05"},{"name":"F#6","midi":90,"time":"390.65","velocity":0.36220472440944884,"duration":"0.43"},{"name":"G2","midi":43,"time":"390.66","velocity":0.5275590551181102,"duration":"0.01"},{"name":"F#5","midi":78,"time":"390.66","velocity":0.44881889763779526,"duration":"0.36"},{"name":"D3","midi":50,"time":"390.67","velocity":0.5748031496062992,"duration":"0.35"},{"name":"G4","midi":67,"time":"390.69","velocity":0.3779527559055118,"duration":"0.02"},{"name":"D5","midi":74,"time":"390.69","velocity":0.25984251968503935,"duration":"0.05"},{"name":"D#1","midi":27,"time":"390.70","velocity":0.5275590551181102,"duration":"0.01"},{"name":"C7","midi":96,"time":"390.70","velocity":0.29133858267716534,"duration":"0.63"},{"name":"C2","midi":36,"time":"390.71","velocity":0.5354330708661418,"duration":"0.01"},{"name":"F#4","midi":66,"time":"390.71","velocity":0.5905511811023622,"duration":"0.10"},{"name":"B4","midi":71,"time":"390.72","velocity":0.33070866141732286,"duration":"0.07"},{"name":"G#5","midi":80,"time":"390.72","velocity":0.2283464566929134,"duration":"0.12"},{"name":"D6","midi":86,"time":"390.73","velocity":0.23622047244094488,"duration":"0.09"},{"name":"A4","midi":69,"time":"390.74","velocity":0.36220472440944884,"duration":"0.30"},{"name":"G6","midi":91,"time":"390.74","velocity":0.1732283464566929,"duration":"0.06"},{"name":"D#7","midi":99,"time":"390.74","velocity":0.2125984251968504,"duration":"0.63"},{"name":"E2","midi":40,"time":"390.76","velocity":0.30708661417322836,"duration":"0.05"},{"name":"A3","midi":57,"time":"390.77","velocity":0.2992125984251969,"duration":"0.05"},{"name":"C2","midi":36,"time":"390.80","velocity":0.3779527559055118,"duration":"0.02"},{"name":"C#5","midi":73,"time":"390.80","velocity":0.33858267716535434,"duration":"0.06"},{"name":"E5","midi":76,"time":"390.80","velocity":0.13385826771653545,"duration":"0.06"},{"name":"A3","midi":57,"time":"390.83","velocity":0.4015748031496063,"duration":"0.19"},{"name":"F#4","midi":66,"time":"390.83","velocity":0.5669291338582677,"duration":"0.14"},{"name":"C#6","midi":85,"time":"390.83","velocity":0.4409448818897638,"duration":"1.33"},{"name":"E4","midi":64,"time":"390.85","velocity":0.4015748031496063,"duration":"0.02"},{"name":"G6","midi":91,"time":"390.85","velocity":0.1889763779527559,"duration":"0.03"},{"name":"D5","midi":74,"time":"390.86","velocity":0.25984251968503935,"duration":"0.12"},{"name":"C5","midi":72,"time":"390.87","velocity":0.29133858267716534,"duration":"0.05"},{"name":"C#2","midi":37,"time":"390.88","velocity":0.3937007874015748,"duration":"0.05"},{"name":"D#6","midi":87,"time":"390.88","velocity":0.18110236220472442,"duration":"0.07"},{"name":"G#6","midi":92,"time":"390.88","velocity":0.25984251968503935,"duration":"0.38"},{"name":"G#5","midi":80,"time":"390.91","velocity":0.2755905511811024,"duration":"0.10"},{"name":"F6","midi":89,"time":"390.95","velocity":0.14173228346456693,"duration":"0.06"},{"name":"D#2","midi":39,"time":"390.97","velocity":0.33070866141732286,"duration":"0.02"},{"name":"B4","midi":71,"time":"390.97","velocity":0.2440944881889764,"duration":"0.05"},{"name":"F7","midi":101,"time":"390.97","velocity":0.1889763779527559,"duration":"0.28"},{"name":"F#4","midi":66,"time":"390.98","velocity":0.36220472440944884,"duration":"0.03"},{"name":"C#5","midi":73,"time":"390.99","velocity":0.31496062992125984,"duration":"0.07"},{"name":"E5","midi":76,"time":"390.99","velocity":0.3779527559055118,"duration":"0.42"},{"name":"E4","midi":64,"time":"391.00","velocity":0.3464566929133858,"duration":"0.03"},{"name":"D6","midi":86,"time":"391.00","velocity":0.23622047244094488,"duration":"0.03"},{"name":"A#3","midi":58,"time":"391.01","velocity":0.28346456692913385,"duration":"0.02"},{"name":"D7","midi":98,"time":"391.01","velocity":0.2440944881889764,"duration":"0.14"},{"name":"D#3","midi":51,"time":"391.02","velocity":0.48031496062992124,"duration":"0.02"},{"name":"F#4","midi":66,"time":"391.02","velocity":0.49606299212598426,"duration":"0.09"},{"name":"G5","midi":79,"time":"391.02","velocity":0.2677165354330709,"duration":"0.02"},{"name":"D#6","midi":87,"time":"391.02","velocity":0.2440944881889764,"duration":"0.05"},{"name":"F2","midi":41,"time":"391.03","velocity":0.5354330708661418,"duration":"0.01"},{"name":"A3","midi":57,"time":"391.03","velocity":0.48031496062992124,"duration":"0.35"},{"name":"A#5","midi":82,"time":"391.03","velocity":0.25984251968503935,"duration":"0.03"},{"name":"F6","midi":89,"time":"391.03","velocity":0.16535433070866143,"duration":"0.06"},{"name":"E2","midi":40,"time":"391.05","velocity":0.44881889763779526,"duration":"0.02"},{"name":"D3","midi":50,"time":"391.05","velocity":0.5748031496062992,"duration":"0.34"},{"name":"F#5","midi":78,"time":"391.05","velocity":0.5118110236220472,"duration":"0.24"},{"name":"G#5","midi":80,"time":"391.05","velocity":0.25196850393700787,"duration":"0.03"},{"name":"D6","midi":86,"time":"391.05","velocity":0.2440944881889764,"duration":"0.06"},{"name":"A6","midi":93,"time":"391.05","velocity":0.2204724409448819,"duration":"0.14"},{"name":"C6","midi":84,"time":"391.06","velocity":0.3700787401574803,"duration":"0.35"},{"name":"G6","midi":91,"time":"391.07","velocity":0.23622047244094488,"duration":"0.06"},{"name":"B6","midi":95,"time":"391.07","velocity":0.2125984251968504,"duration":"0.09"},{"name":"B5","midi":83,"time":"391.08","velocity":0.25984251968503935,"duration":"0.03"},{"name":"A#6","midi":94,"time":"391.09","velocity":0.14960629921259844,"duration":"0.08"},{"name":"B4","midi":71,"time":"391.12","velocity":0.2125984251968504,"duration":"0.06"},{"name":"F#4","midi":66,"time":"391.13","velocity":0.4881889763779528,"duration":"0.05"},{"name":"C#5","midi":73,"time":"391.13","velocity":0.4094488188976378,"duration":"0.21"},{"name":"G7","midi":103,"time":"391.13","velocity":0.2047244094488189,"duration":"0.47"},{"name":"D2","midi":38,"time":"391.14","velocity":0.2283464566929134,"duration":"0.02"},{"name":"G#5","midi":80,"time":"391.14","velocity":0.2440944881889764,"duration":"0.14"},{"name":"A#5","midi":82,"time":"391.14","velocity":0.3464566929133858,"duration":"0.20"},{"name":"D#6","midi":87,"time":"391.14","velocity":0.13385826771653545,"duration":"0.10"},{"name":"E4","midi":64,"time":"391.17","velocity":0.3700787401574803,"duration":"0.03"},{"name":"F#4","midi":66,"time":"391.19","velocity":0.5433070866141733,"duration":"0.21"},{"name":"B6","midi":95,"time":"391.19","velocity":0.1889763779527559,"duration":"0.09"},{"name":"B4","midi":71,"time":"391.22","velocity":0.14173228346456693,"duration":"0.03"},{"name":"D7","midi":98,"time":"391.22","velocity":0.25196850393700787,"duration":"0.79"},{"name":"C#2","midi":37,"time":"391.23","velocity":0.25984251968503935,"duration":"0.02"},{"name":"D2","midi":38,"time":"391.26","velocity":0.2755905511811024,"duration":"0.05"},{"name":"A6","midi":93,"time":"391.27","velocity":0.11023622047244094,"duration":"0.05"},{"name":"A5","midi":81,"time":"391.28","velocity":0.30708661417322836,"duration":"0.03"},{"name":"F6","midi":89,"time":"391.28","velocity":0.16535433070866143,"duration":"0.05"},{"name":"G#5","midi":80,"time":"391.29","velocity":0.2283464566929134,"duration":"0.09"},{"name":"D#6","midi":87,"time":"391.29","velocity":0.08661417322834646,"duration":"0.05"},{"name":"G#6","midi":92,"time":"391.29","velocity":0.30708661417322836,"duration":"0.31"},{"name":"D2","midi":38,"time":"391.31","velocity":0.29133858267716534,"duration":"0.05"},{"name":"B6","midi":95,"time":"391.31","velocity":0.2440944881889764,"duration":"0.34"},{"name":"A5","midi":81,"time":"391.33","velocity":0.3543307086614173,"duration":"0.08"},{"name":"D5","midi":74,"time":"391.34","velocity":0.28346456692913385,"duration":"0.03"},{"name":"A4","midi":69,"time":"391.35","velocity":0.49606299212598426,"duration":"0.10"},{"name":"A#5","midi":82,"time":"391.35","velocity":0.31496062992125984,"duration":"0.08"},{"name":"F7","midi":101,"time":"391.35","velocity":0.23622047244094488,"duration":"0.29"},{"name":"C#2","midi":37,"time":"391.36","velocity":0.2992125984251969,"duration":"0.02"},{"name":"C#5","midi":73,"time":"391.37","velocity":0.29133858267716534,"duration":"0.03"},{"name":"D6","midi":86,"time":"391.37","velocity":0.2992125984251969,"duration":"0.07"},{"name":"G6","midi":91,"time":"391.38","velocity":0.23622047244094488,"duration":"0.03"},{"name":"D#7","midi":99,"time":"391.38","velocity":0.2755905511811024,"duration":"0.17"},{"name":"E2","midi":40,"time":"391.40","velocity":0.4409448818897638,"duration":"0.02"},{"name":"F3","midi":53,"time":"391.40","velocity":0.48031496062992124,"duration":"0.02"},{"name":"F4","midi":65,"time":"391.40","velocity":0.5669291338582677,"duration":"0.01"},{"name":"G5","midi":79,"time":"391.40","velocity":0.23622047244094488,"duration":"0.02"},{"name":"G#5","midi":80,"time":"391.40","velocity":0.3228346456692913,"duration":"0.17"},{"name":"F6","midi":89,"time":"391.40","velocity":0.2755905511811024,"duration":"0.09"},{"name":"D4","midi":62,"time":"391.41","velocity":0.2755905511811024,"duration":"0.02"},{"name":"F#4","midi":66,"time":"391.41","velocity":0.6141732283464567,"duration":"0.77"},{"name":"D#5","midi":75,"time":"391.41","velocity":0.4251968503937008,"duration":"0.03"},{"name":"B5","midi":83,"time":"391.41","velocity":0.2125984251968504,"duration":"0.05"},{"name":"D3","midi":50,"time":"391.42","velocity":0.5748031496062992,"duration":"0.34"},{"name":"C5","midi":72,"time":"391.42","velocity":0.3228346456692913,"duration":"0.08"},{"name":"C#2","midi":37,"time":"391.43","velocity":0.2755905511811024,"duration":"0.02"},{"name":"B4","midi":71,"time":"391.43","velocity":0.28346456692913385,"duration":"0.02"},{"name":"A#3","midi":58,"time":"391.44","velocity":0.4094488188976378,"duration":"0.02"},{"name":"E5","midi":76,"time":"391.44","velocity":0.3464566929133858,"duration":"1.02"},{"name":"A#5","midi":82,"time":"391.44","velocity":0.2283464566929134,"duration":"0.02"},{"name":"A5","midi":81,"time":"391.47","velocity":0.2125984251968504,"duration":"0.08"},{"name":"B5","midi":83,"time":"391.47","velocity":0.31496062992125984,"duration":"0.06"},{"name":"D5","midi":74,"time":"391.48","velocity":0.31496062992125984,"duration":"0.03"},{"name":"G6","midi":91,"time":"391.48","velocity":0.12598425196850394,"duration":"0.06"},{"name":"A3","midi":57,"time":"391.49","velocity":0.3700787401574803,"duration":"0.03"},{"name":"E4","midi":64,"time":"391.49","velocity":0.33858267716535434,"duration":"0.02"},{"name":"A#4","midi":70,"time":"391.50","velocity":0.28346456692913385,"duration":"0.02"},{"name":"C6","midi":84,"time":"391.50","velocity":0.25196850393700787,"duration":"0.13"},{"name":"D5","midi":74,"time":"391.52","velocity":0.18110236220472442,"duration":"0.03"},{"name":"A#5","midi":82,"time":"391.52","velocity":0.2755905511811024,"duration":"0.15"},{"name":"C5","midi":72,"time":"391.53","velocity":0.28346456692913385,"duration":"0.03"},{"name":"F6","midi":89,"time":"391.53","velocity":0.10236220472440945,"duration":"0.08"},{"name":"B5","midi":83,"time":"391.55","velocity":0.2047244094488189,"duration":"0.03"},{"name":"G6","midi":91,"time":"391.55","velocity":0.15748031496062992,"duration":"0.03"},{"name":"A4","midi":69,"time":"391.56","velocity":0.25196850393700787,"duration":"0.05"},{"name":"A5","midi":81,"time":"391.56","velocity":0.2677165354330709,"duration":"0.09"},{"name":"C#2","midi":37,"time":"391.57","velocity":0.18110236220472442,"duration":"0.03"},{"name":"A#3","midi":58,"time":"391.57","velocity":0.44881889763779526,"duration":"0.02"},{"name":"C#5","midi":73,"time":"391.57","velocity":0.3464566929133858,"duration":"0.17"},{"name":"G#5","midi":80,"time":"391.58","velocity":0.3464566929133858,"duration":"0.21"},{"name":"D#7","midi":99,"time":"391.58","velocity":0.25196850393700787,"duration":"0.59"},{"name":"B4","midi":71,"time":"391.59","velocity":0.3464566929133858,"duration":"0.20"},{"name":"D6","midi":86,"time":"391.59","velocity":0.15748031496062992,"duration":"0.09"},{"name":"G7","midi":103,"time":"391.60","velocity":0.10236220472440945,"duration":"0.03"},{"name":"A3","midi":57,"time":"391.63","velocity":0.2677165354330709,"duration":"0.02"},{"name":"C7","midi":96,"time":"391.63","velocity":0.2204724409448819,"duration":"0.16"},{"name":"F7","midi":101,"time":"391.65","velocity":0.12598425196850394,"duration":"0.10"},{"name":"A3","midi":57,"time":"391.66","velocity":0.4566929133858268,"duration":"0.08"},{"name":"A5","midi":81,"time":"391.66","velocity":0.30708661417322836,"duration":"0.06"},{"name":"F6","midi":89,"time":"391.66","velocity":0.10236220472440945,"duration":"0.07"},{"name":"C6","midi":84,"time":"391.70","velocity":0.1968503937007874,"duration":"0.06"},{"name":"D6","midi":86,"time":"391.70","velocity":0.10236220472440945,"duration":"0.06"},{"name":"A#5","midi":82,"time":"391.71","velocity":0.2677165354330709,"duration":"0.06"},{"name":"G7","midi":103,"time":"391.73","velocity":0.2047244094488189,"duration":"0.34"},{"name":"A#3","midi":58,"time":"391.74","velocity":0.3858267716535433,"duration":"0.03"},{"name":"E3","midi":52,"time":"391.76","velocity":0.3858267716535433,"duration":"0.02"},{"name":"D#6","midi":87,"time":"391.76","velocity":0.14173228346456693,"duration":"0.07"},{"name":"D6","midi":86,"time":"391.77","velocity":0.25196850393700787,"duration":"0.10"},{"name":"G6","midi":91,"time":"391.77","velocity":0.1968503937007874,"duration":"0.10"},{"name":"A3","midi":57,"time":"391.78","velocity":0.3779527559055118,"duration":"0.08"},{"name":"C#5","midi":73,"time":"391.78","velocity":0.2283464566929134,"duration":"0.05"},{"name":"C6","midi":84,"time":"391.78","velocity":0.2125984251968504,"duration":"0.03"},{"name":"F7","midi":101,"time":"391.78","velocity":0.11811023622047244,"duration":"0.15"},{"name":"D3","midi":50,"time":"391.79","velocity":0.5748031496062992,"duration":"0.06"},{"name":"A#5","midi":82,"time":"391.80","velocity":0.2677165354330709,"duration":"0.02"},{"name":"B5","midi":83,"time":"391.80","velocity":0.36220472440944884,"duration":"0.28"},{"name":"G#6","midi":92,"time":"391.80","velocity":0.31496062992125984,"duration":"0.94"},{"name":"C7","midi":96,"time":"391.80","velocity":0.2204724409448819,"duration":"0.37"},{"name":"D5","midi":74,"time":"391.81","velocity":0.3464566929133858,"duration":"0.06"},{"name":"F6","midi":89,"time":"391.83","velocity":0.11023622047244094,"duration":"0.03"},{"name":"G#5","midi":80,"time":"391.84","velocity":0.23622047244094488,"duration":"0.22"},{"name":"A#5","midi":82,"time":"391.84","velocity":0.3700787401574803,"duration":"0.14"},{"name":"D3","midi":50,"time":"391.86","velocity":0.5275590551181102,"duration":"0.09"},{"name":"C#5","midi":73,"time":"391.86","velocity":0.23622047244094488,"duration":"0.02"},{"name":"A3","midi":57,"time":"391.87","velocity":0.33070866141732286,"duration":"0.02"},{"name":"D5","midi":74,"time":"391.88","velocity":0.2440944881889764,"duration":"0.03"},{"name":"G6","midi":91,"time":"391.90","velocity":0.1732283464566929,"duration":"0.03"},{"name":"D6","midi":86,"time":"391.91","velocity":0.25984251968503935,"duration":"0.05"},{"name":"D#6","midi":87,"time":"391.91","velocity":0.15748031496062992,"duration":"0.06"},{"name":"C#5","midi":73,"time":"391.92","velocity":0.3228346456692913,"duration":"0.06"},{"name":"F6","midi":89,"time":"391.93","velocity":0.16535433070866143,"duration":"0.13"},{"name":"C#2","midi":37,"time":"391.94","velocity":0.25984251968503935,"duration":"0.02"},{"name":"G6","midi":91,"time":"391.94","velocity":0.25984251968503935,"duration":"0.08"},{"name":"F7","midi":101,"time":"391.95","velocity":0.2047244094488189,"duration":"0.09"},{"name":"D2","midi":38,"time":"391.97","velocity":0.28346456692913385,"duration":"0.13"},{"name":"D3","midi":50,"time":"391.97","velocity":0.49606299212598426,"duration":"0.03"},{"name":"D6","midi":86,"time":"391.97","velocity":0.29133858267716534,"duration":"0.05"},{"name":"D5","midi":74,"time":"391.98","velocity":0.31496062992125984,"duration":"0.12"},{"name":"A#5","midi":82,"time":"391.99","velocity":0.3464566929133858,"duration":"0.10"},{"name":"D4","midi":62,"time":"392.00","velocity":0.2047244094488189,"duration":"0.03"},{"name":"D#6","midi":87,"time":"392.00","velocity":0.13385826771653545,"duration":"0.03"},{"name":"D3","midi":50,"time":"392.01","velocity":0.5590551181102362,"duration":"0.12"},{"name":"A3","midi":57,"time":"392.01","velocity":0.2992125984251969,"duration":"0.05"},{"name":"C5","midi":72,"time":"392.01","velocity":0.2283464566929134,"duration":"0.05"},{"name":"G6","midi":91,"time":"392.03","velocity":0.16535433070866143,"duration":"0.05"},{"name":"D7","midi":98,"time":"392.03","velocity":0.2440944881889764,"duration":"0.21"},{"name":"D6","midi":86,"time":"392.05","velocity":0.3779527559055118,"duration":"0.23"},{"name":"D#6","midi":87,"time":"392.05","velocity":0.15748031496062992,"duration":"0.05"},{"name":"F7","midi":101,"time":"392.06","velocity":0.25984251968503935,"duration":"0.33"},{"name":"G#5","midi":80,"time":"392.07","velocity":0.25196850393700787,"duration":"0.07"},{"name":"C#5","midi":73,"time":"392.08","velocity":0.2992125984251969,"duration":"0.08"},{"name":"C6","midi":84,"time":"392.08","velocity":0.18110236220472442,"duration":"0.06"},{"name":"A#3","midi":58,"time":"392.10","velocity":0.33070866141732286,"duration":"0.05"},{"name":"B4","midi":71,"time":"392.10","velocity":0.25196850393700787,"duration":"0.03"},{"name":"G6","midi":91,"time":"392.10","velocity":0.18110236220472442,"duration":"0.07"},{"name":"G7","midi":103,"time":"392.10","velocity":0.23622047244094488,"duration":"0.08"},{"name":"D#2","midi":39,"time":"392.12","velocity":0.47244094488188976,"duration":"0.02"},{"name":"D#6","midi":87,"time":"392.12","velocity":0.15748031496062992,"duration":"0.08"},{"name":"B5","midi":83,"time":"392.13","velocity":0.30708661417322836,"duration":"0.09"},{"name":"F6","midi":89,"time":"392.13","velocity":0.15748031496062992,"duration":"0.06"},{"name":"F#2","midi":42,"time":"392.14","velocity":0.5826771653543307,"duration":"0.01"},{"name":"C#4","midi":61,"time":"392.14","velocity":0.2992125984251969,"duration":"0.05"},{"name":"G#2","midi":44,"time":"392.15","velocity":0.6377952755905512,"duration":"0.02"},{"name":"B4","midi":71,"time":"392.15","velocity":0.44881889763779526,"duration":"0.09"},{"name":"D#5","midi":75,"time":"392.15","velocity":0.25984251968503935,"duration":"0.02"},{"name":"G#5","midi":80,"time":"392.15","velocity":0.29133858267716534,"duration":"0.12"},{"name":"G4","midi":67,"time":"392.17","velocity":0.41732283464566927,"duration":"0.02"},{"name":"A4","midi":69,"time":"392.17","velocity":0.4251968503937008,"duration":"0.02"},{"name":"D5","midi":74,"time":"392.17","velocity":0.31496062992125984,"duration":"0.09"},{"name":"C6","midi":84,"time":"392.17","velocity":0.2677165354330709,"duration":"0.06"},{"name":"F#1","midi":30,"time":"392.19","velocity":0.5354330708661418,"duration":"0.01"},{"name":"A3","midi":57,"time":"392.19","velocity":0.3700787401574803,"duration":"0.02"},{"name":"D4","midi":62,"time":"392.19","velocity":0.2677165354330709,"duration":"0.03"},{"name":"D#7","midi":99,"time":"392.19","velocity":0.2204724409448819,"duration":"0.24"},{"name":"F1","midi":29,"time":"392.20","velocity":0.5433070866141733,"duration":"0.01"},{"name":"D3","midi":50,"time":"392.20","velocity":0.5590551181102362,"duration":"0.20"},{"name":"F#4","midi":66,"time":"392.20","velocity":0.3700787401574803,"duration":"0.21"},{"name":"C#6","midi":85,"time":"392.20","velocity":0.2125984251968504,"duration":"0.05"},{"name":"F6","midi":89,"time":"392.20","velocity":0.2204724409448819,"duration":"0.19"},{"name":"A5","midi":81,"time":"392.21","velocity":0.2283464566929134,"duration":"0.02"},{"name":"G7","midi":103,"time":"392.21","velocity":0.11023622047244094,"duration":"0.03"},{"name":"B1","midi":35,"time":"392.23","velocity":0.44881889763779526,"duration":"0.02"},{"name":"A3","midi":57,"time":"392.23","velocity":0.44881889763779526,"duration":"0.26"},{"name":"A#4","midi":70,"time":"392.23","velocity":0.5275590551181102,"duration":"0.13"},{"name":"C#5","midi":73,"time":"392.26","velocity":0.2755905511811024,"duration":"0.08"},{"name":"A#6","midi":94,"time":"392.27","velocity":0.30708661417322836,"duration":"0.28"},{"name":"C#6","midi":85,"time":"392.28","velocity":0.28346456692913385,"duration":"0.15"},{"name":"G6","midi":91,"time":"392.28","velocity":0.12598425196850394,"duration":"0.03"},{"name":"G#5","midi":80,"time":"392.29","velocity":0.28346456692913385,"duration":"0.10"},{"name":"G7","midi":103,"time":"392.29","velocity":0.1889763779527559,"duration":"0.06"},{"name":"D6","midi":86,"time":"392.30","velocity":0.25196850393700787,"duration":"0.03"},{"name":"D#6","midi":87,"time":"392.31","velocity":0.1968503937007874,"duration":"0.05"},{"name":"A5","midi":81,"time":"392.34","velocity":0.36220472440944884,"duration":"0.17"},{"name":"C#5","midi":73,"time":"392.35","velocity":0.25196850393700787,"duration":"0.05"},{"name":"D6","midi":86,"time":"392.35","velocity":0.31496062992125984,"duration":"0.06"},{"name":"G6","midi":91,"time":"392.35","velocity":0.2047244094488189,"duration":"0.13"},{"name":"C2","midi":36,"time":"392.40","velocity":0.30708661417322836,"duration":"0.02"},{"name":"C#3","midi":49,"time":"392.40","velocity":0.5118110236220472,"duration":"0.01"},{"name":"C5","midi":72,"time":"392.40","velocity":0.31496062992125984,"duration":"0.02"},{"name":"D3","midi":50,"time":"392.41","velocity":0.5354330708661418,"duration":"0.09"},{"name":"G#5","midi":80,"time":"392.41","velocity":0.12598425196850394,"duration":"0.06"},{"name":"D#6","midi":87,"time":"392.41","velocity":0.1968503937007874,"duration":"0.12"},{"name":"F7","midi":101,"time":"392.41","velocity":0.1968503937007874,"duration":"0.34"},{"name":"B4","midi":71,"time":"392.42","velocity":0.47244094488188976,"duration":"0.06"},{"name":"C6","midi":84,"time":"392.42","velocity":0.1889763779527559,"duration":"0.03"},{"name":"F#4","midi":66,"time":"392.43","velocity":0.3858267716535433,"duration":"0.09"},{"name":"C#5","midi":73,"time":"392.43","velocity":0.2283464566929134,"duration":"0.02"},{"name":"D6","midi":86,"time":"392.43","velocity":0.25196850393700787,"duration":"0.05"},{"name":"F6","midi":89,"time":"392.44","velocity":0.12598425196850394,"duration":"0.03"},{"name":"D#7","midi":99,"time":"392.45","velocity":0.29133858267716534,"duration":"1.41"},{"name":"C6","midi":84,"time":"392.47","velocity":0.2677165354330709,"duration":"0.05"},{"name":"C#6","midi":85,"time":"392.47","velocity":0.25984251968503935,"duration":"0.03"},{"name":"A#4","midi":70,"time":"392.48","velocity":0.47244094488188976,"duration":"0.02"},{"name":"D2","midi":38,"time":"392.49","velocity":0.4094488188976378,"duration":"0.02"},{"name":"D6","midi":86,"time":"392.49","velocity":0.2992125984251969,"duration":"0.26"},{"name":"F6","midi":89,"time":"392.49","velocity":0.1889763779527559,"duration":"0.05"},{"name":"G7","midi":103,"time":"392.49","velocity":0.15748031496062992,"duration":"0.06"},{"name":"B4","midi":71,"time":"392.50","velocity":0.49606299212598426,"duration":"0.08"},{"name":"A#5","midi":82,"time":"392.50","velocity":0.31496062992125984,"duration":"0.05"},{"name":"E2","midi":40,"time":"392.51","velocity":0.6299212598425197,"duration":"0.01"},{"name":"C4","midi":60,"time":"392.51","velocity":0.3779527559055118,"duration":"0.05"},{"name":"F2","midi":41,"time":"392.52","velocity":0.7007874015748031,"duration":"0.01"},{"name":"E5","midi":76,"time":"392.52","velocity":0.48031496062992124,"duration":"0.41"},{"name":"G2","midi":43,"time":"392.53","velocity":0.6062992125984252,"duration":"0.01"},{"name":"D3","midi":50,"time":"392.53","velocity":0.5118110236220472,"duration":"0.01"},{"name":"A4","midi":69,"time":"392.53","velocity":0.33070866141732286,"duration":"0.06"},{"name":"G#5","midi":80,"time":"392.53","velocity":0.29133858267716534,"duration":"0.16"},{"name":"G6","midi":91,"time":"392.53","velocity":0.2204724409448819,"duration":"0.03"},{"name":"G#2","midi":44,"time":"392.55","velocity":0.5354330708661418,"duration":"0.01"},{"name":"F1","midi":29,"time":"392.56","velocity":0.6062992125984252,"duration":"0.02"},{"name":"A#6","midi":94,"time":"392.56","velocity":0.29133858267716534,"duration":"0.34"},{"name":"F3","midi":53,"time":"392.57","velocity":0.49606299212598426,"duration":"0.02"},{"name":"D5","midi":74,"time":"392.57","velocity":0.25196850393700787,"duration":"0.08"},{"name":"C#6","midi":85,"time":"392.57","velocity":0.2047244094488189,"duration":"0.03"},{"name":"D#6","midi":87,"time":"392.57","velocity":0.13385826771653545,"duration":"0.03"},{"name":"B1","midi":35,"time":"392.58","velocity":0.5433070866141733,"duration":"0.01"},{"name":"E4","midi":64,"time":"392.58","velocity":0.2755905511811024,"duration":"0.09"},{"name":"D1","midi":26,"time":"392.59","velocity":0.31496062992125984,"duration":"0.02"},{"name":"D#3","midi":51,"time":"392.59","velocity":0.49606299212598426,"duration":"0.02"},{"name":"B3","midi":59,"time":"392.59","velocity":0.2992125984251969,"duration":"0.07"},{"name":"G6","midi":91,"time":"392.59","velocity":0.11811023622047244,"duration":"0.09"},{"name":"F#2","midi":42,"time":"392.60","velocity":0.4094488188976378,"duration":"0.02"},{"name":"A4","midi":69,"time":"392.60","velocity":0.28346456692913385,"duration":"0.02"},{"name":"B4","midi":71,"time":"392.60","velocity":0.5826771653543307,"duration":"0.31"},{"name":"E3","midi":52,"time":"392.62","velocity":0.5118110236220472,"duration":"0.02"},{"name":"A6","midi":93,"time":"392.62","velocity":0.25984251968503935,"duration":"0.03"},{"name":"C#6","midi":85,"time":"392.63","velocity":0.2677165354330709,"duration":"0.16"},{"name":"E3","midi":52,"time":"392.65","velocity":0.5433070866141733,"duration":"0.26"},{"name":"F#4","midi":66,"time":"392.65","velocity":0.2283464566929134,"duration":"0.05"},{"name":"C#5","midi":73,"time":"392.65","velocity":0.2440944881889764,"duration":"0.03"},{"name":"A5","midi":81,"time":"392.65","velocity":0.41732283464566927,"duration":"0.19"},{"name":"A#5","midi":82,"time":"392.65","velocity":0.18110236220472442,"duration":"0.03"},{"name":"D#6","midi":87,"time":"392.66","velocity":0.10236220472440945,"duration":"0.03"},{"name":"B3","midi":59,"time":"392.67","velocity":0.23622047244094488,"duration":"0.03"},{"name":"D4","midi":62,"time":"392.67","velocity":0.33070866141732286,"duration":"0.15"},{"name":"C7","midi":96,"time":"392.67","velocity":0.1889763779527559,"duration":"0.13"},{"name":"E2","midi":40,"time":"392.69","velocity":0.4330708661417323,"duration":"0.03"},{"name":"A4","midi":69,"time":"392.69","velocity":0.4015748031496063,"duration":"0.03"},{"name":"F6","midi":89,"time":"392.69","velocity":0.11811023622047244,"duration":"0.03"},{"name":"G#5","midi":80,"time":"392.71","velocity":0.2992125984251969,"duration":"0.19"},{"name":"A4","midi":69,"time":"392.73","velocity":0.33070866141732286,"duration":"0.02"},{"name":"D#6","midi":87,"time":"392.73","velocity":0.1968503937007874,"duration":"0.05"},{"name":"G6","midi":91,"time":"392.74","velocity":0.18110236220472442,"duration":"0.06"},{"name":"E2","midi":40,"time":"392.76","velocity":0.4330708661417323,"duration":"0.08"},{"name":"F7","midi":101,"time":"392.77","velocity":0.11811023622047244,"duration":"0.06"},{"name":"D6","midi":86,"time":"392.78","velocity":0.2283464566929134,"duration":"0.07"},{"name":"A4","midi":69,"time":"392.79","velocity":0.4881889763779528,"duration":"0.13"},{"name":"C#5","midi":73,"time":"392.80","velocity":0.25196850393700787,"duration":"0.02"},{"name":"D#6","midi":87,"time":"392.81","velocity":0.2125984251968504,"duration":"0.09"},{"name":"D5","midi":74,"time":"392.83","velocity":0.28346456692913385,"duration":"0.06"},{"name":"A#5","midi":82,"time":"392.83","velocity":0.2677165354330709,"duration":"0.06"},{"name":"C7","midi":96,"time":"392.83","velocity":0.2440944881889764,"duration":"0.23"},{"name":"E2","midi":40,"time":"392.85","velocity":0.4409448818897638,"duration":"0.03"},{"name":"C#6","midi":85,"time":"392.85","velocity":0.29133858267716534,"duration":"0.26"},{"name":"G7","midi":103,"time":"392.85","velocity":0.2755905511811024,"duration":"0.13"},{"name":"G6","midi":91,"time":"392.87","velocity":0.23622047244094488,"duration":"0.09"},{"name":"C#5","midi":73,"time":"392.88","velocity":0.4015748031496063,"duration":"0.06"},{"name":"F7","midi":101,"time":"392.88","velocity":0.2283464566929134,"duration":"0.28"},{"name":"C#4","midi":61,"time":"392.90","velocity":0.5118110236220472,"duration":"0.01"},{"name":"A#5","midi":82,"time":"392.90","velocity":0.33070866141732286,"duration":"0.14"},{"name":"C6","midi":84,"time":"392.90","velocity":0.33858267716535434,"duration":"0.03"},{"name":"D6","midi":86,"time":"392.91","velocity":0.29133858267716534,"duration":"0.02"},{"name":"G2","midi":43,"time":"392.92","velocity":0.3700787401574803,"duration":"0.02"},{"name":"F3","midi":53,"time":"392.92","velocity":0.5275590551181102,"duration":"0.01"},{"name":"A#4","midi":70,"time":"392.92","velocity":0.5275590551181102,"duration":"0.02"},{"name":"D#5","midi":75,"time":"392.92","velocity":0.3858267716535433,"duration":"0.02"},{"name":"E3","midi":52,"time":"392.93","velocity":0.5590551181102362,"duration":"0.06"},{"name":"D#4","midi":63,"time":"392.93","velocity":0.3228346456692913,"duration":"0.02"},{"name":"F#4","midi":66,"time":"392.93","velocity":0.41732283464566927,"duration":"0.02"},{"name":"G#5","midi":80,"time":"392.93","velocity":0.25984251968503935,"duration":"0.03"},{"name":"B5","midi":83,"time":"392.93","velocity":0.3228346456692913,"duration":"0.03"},{"name":"F2","midi":41,"time":"392.94","velocity":0.3779527559055118,"duration":"0.02"},{"name":"G#4","midi":68,"time":"392.94","velocity":0.2992125984251969,"duration":"0.12"},{"name":"B4","midi":71,"time":"392.94","velocity":0.5669291338582677,"duration":"0.14"},{"name":"D5","midi":74,"time":"392.94","velocity":0.2677165354330709,"duration":"0.06"},{"name":"A#3","midi":58,"time":"392.95","velocity":0.4251968503937008,"duration":"0.02"},{"name":"D4","midi":62,"time":"392.97","velocity":0.3228346456692913,"duration":"0.03"},{"name":"F#4","midi":66,"time":"392.97","velocity":0.29133858267716534,"duration":"0.02"},{"name":"E5","midi":76,"time":"392.97","velocity":0.33858267716535434,"duration":"0.29"},{"name":"G5","midi":79,"time":"392.97","velocity":0.2125984251968504,"duration":"0.03"},{"name":"B3","midi":59,"time":"392.98","velocity":0.4094488188976378,"duration":"0.02"},{"name":"E2","midi":40,"time":"392.99","velocity":0.3937007874015748,"duration":"0.03"},{"name":"F4","midi":65,"time":"392.99","velocity":0.25984251968503935,"duration":"0.02"},{"name":"C#5","midi":73,"time":"392.99","velocity":0.2755905511811024,"duration":"0.03"},{"name":"F6","midi":89,"time":"392.99","velocity":0.14173228346456693,"duration":"0.07"},{"name":"E3","midi":52,"time":"393.00","velocity":0.5275590551181102,"duration":"0.26"},{"name":"G6","midi":91,"time":"393.01","velocity":0.13385826771653545,"duration":"0.05"},{"name":"G#6","midi":92,"time":"393.01","velocity":0.29133858267716534,"duration":"0.60"},{"name":"A5","midi":81,"time":"393.02","velocity":0.2992125984251969,"duration":"0.27"},{"name":"D#6","midi":87,"time":"393.02","velocity":0.1968503937007874,"duration":"0.06"},{"name":"E2","midi":40,"time":"393.03","velocity":0.41732283464566927,"duration":"0.07"},{"name":"A#3","midi":58,"time":"393.03","velocity":0.44881889763779526,"duration":"0.06"},{"name":"C#5","midi":73,"time":"393.06","velocity":0.3228346456692913,"duration":"0.07"},{"name":"G7","midi":103,"time":"393.06","velocity":0.08661417322834646,"duration":"0.03"},{"name":"G#4","midi":68,"time":"393.07","velocity":0.2992125984251969,"duration":"0.02"},{"name":"G6","midi":91,"time":"393.07","velocity":0.14960629921259844,"duration":"0.06"},{"name":"C7","midi":96,"time":"393.07","velocity":0.13385826771653545,"duration":"0.09"},{"name":"D4","midi":62,"time":"393.09","velocity":0.33070866141732286,"duration":"0.05"},{"name":"B4","midi":71,"time":"393.09","velocity":0.5748031496062992,"duration":"0.20"},{"name":"G#5","midi":80,"time":"393.09","velocity":0.23622047244094488,"duration":"0.07"},{"name":"D#2","midi":39,"time":"393.10","velocity":0.41732283464566927,"duration":"0.02"},{"name":"F#4","midi":66,"time":"393.10","velocity":0.33070866141732286,"duration":"0.05"},{"name":"A#3","midi":58,"time":"393.12","velocity":0.3464566929133858,"duration":"0.02"},{"name":"E2","midi":40,"time":"393.13","velocity":0.4330708661417323,"duration":"0.14"},{"name":"D#6","midi":87,"time":"393.14","velocity":0.2204724409448819,"duration":"0.03"},{"name":"A#6","midi":94,"time":"393.14","velocity":0.2755905511811024,"duration":"0.50"},{"name":"A#3","midi":58,"time":"393.16","velocity":0.3543307086614173,"duration":"0.02"},{"name":"D6","midi":86,"time":"393.16","velocity":0.33858267716535434,"duration":"0.17"},{"name":"F6","midi":89,"time":"393.16","velocity":0.11811023622047244,"duration":"0.03"},{"name":"G#5","midi":80,"time":"393.17","velocity":0.08661417322834646,"duration":"0.03"},{"name":"A#5","midi":82,"time":"393.17","velocity":0.2204724409448819,"duration":"0.08"},{"name":"D#6","midi":87,"time":"393.19","velocity":0.16535433070866143,"duration":"0.13"},{"name":"G6","midi":91,"time":"393.19","velocity":0.14960629921259844,"duration":"0.05"},{"name":"A3","midi":57,"time":"393.20","velocity":0.33070866141732286,"duration":"0.02"},{"name":"F7","midi":101,"time":"393.20","velocity":0.2440944881889764,"duration":"0.35"},{"name":"G7","midi":103,"time":"393.20","velocity":0.2283464566929134,"duration":"0.43"},{"name":"A#3","midi":58,"time":"393.22","velocity":0.33858267716535434,"duration":"0.03"},{"name":"G#5","midi":80,"time":"393.24","velocity":0.2283464566929134,"duration":"0.08"},{"name":"F6","midi":89,"time":"393.24","velocity":0.15748031496062992,"duration":"0.07"},{"name":"G6","midi":91,"time":"393.24","velocity":0.33858267716535434,"duration":"0.16"},{"name":"C7","midi":96,"time":"393.24","velocity":0.25984251968503935,"duration":"0.58"},{"name":"F3","midi":53,"time":"393.26","velocity":0.4094488188976378,"duration":"0.03"},{"name":"F#2","midi":42,"time":"393.27","velocity":0.5118110236220472,"duration":"0.03"},{"name":"A4","midi":69,"time":"393.27","velocity":0.2755905511811024,"duration":"0.02"},{"name":"F5","midi":77,"time":"393.27","velocity":0.23622047244094488,"duration":"0.02"},{"name":"C#6","midi":85,"time":"393.27","velocity":0.3464566929133858,"duration":"0.22"},{"name":"C#5","midi":73,"time":"393.28","velocity":0.30708661417322836,"duration":"0.03"},{"name":"F#5","midi":78,"time":"393.28","velocity":0.3543307086614173,"duration":"0.10"},{"name":"C6","midi":84,"time":"393.28","velocity":0.28346456692913385,"duration":"0.05"},{"name":"E3","midi":52,"time":"393.29","velocity":0.44881889763779526,"duration":"0.05"},{"name":"G#2","midi":44,"time":"393.30","velocity":0.5354330708661418,"duration":"0.01"},{"name":"A4","midi":69,"time":"393.30","velocity":0.33070866141732286,"duration":"0.05"},{"name":"E6","midi":88,"time":"393.30","velocity":0.30708661417322836,"duration":"0.13"},{"name":"A6","midi":93,"time":"393.30","velocity":0.2992125984251969,"duration":"0.33"},{"name":"A2","midi":45,"time":"393.31","velocity":0.5354330708661418,"duration":"0.13"},{"name":"B4","midi":71,"time":"393.31","velocity":0.5433070866141733,"duration":"0.08"},{"name":"D#6","midi":87,"time":"393.34","velocity":0.18110236220472442,"duration":"0.16"},{"name":"E3","midi":52,"time":"393.35","velocity":0.41732283464566927,"duration":"0.24"},{"name":"G#5","midi":80,"time":"393.35","velocity":0.2755905511811024,"duration":"0.08"},{"name":"D6","midi":86,"time":"393.35","velocity":0.25196850393700787,"duration":"0.03"},{"name":"F6","midi":89,"time":"393.35","velocity":0.2204724409448819,"duration":"0.03"},{"name":"F5","midi":77,"time":"393.37","velocity":0.2283464566929134,"duration":"0.03"},{"name":"A5","midi":81,"time":"393.38","velocity":0.28346456692913385,"duration":"0.14"},{"name":"A#4","midi":70,"time":"393.40","velocity":0.4094488188976378,"duration":"0.02"},{"name":"F#5","midi":78,"time":"393.40","velocity":0.3700787401574803,"duration":"0.16"},{"name":"G#1","midi":32,"time":"393.41","velocity":0.33858267716535434,"duration":"0.02"},{"name":"D6","midi":86,"time":"393.41","velocity":0.1889763779527559,"duration":"0.05"},{"name":"B4","midi":71,"time":"393.42","velocity":0.5039370078740157,"duration":"0.07"},{"name":"F6","midi":89,"time":"393.42","velocity":0.15748031496062992,"duration":"0.07"},{"name":"F#4","midi":66,"time":"393.43","velocity":0.3937007874015748,"duration":"0.05"},{"name":"G#2","midi":44,"time":"393.44","velocity":0.5118110236220472,"duration":"0.01"},{"name":"G6","midi":91,"time":"393.44","velocity":0.12598425196850394,"duration":"0.03"},{"name":"A2","midi":45,"time":"393.45","velocity":0.5433070866141733,"duration":"0.17"},{"name":"G#5","midi":80,"time":"393.47","velocity":0.29133858267716534,"duration":"0.15"},{"name":"B5","midi":83,"time":"393.47","velocity":0.5354330708661418,"duration":"0.29"},{"name":"D6","midi":86,"time":"393.47","velocity":0.25196850393700787,"duration":"0.05"},{"name":"E4","midi":64,"time":"393.48","velocity":0.4409448818897638,"duration":"0.20"},{"name":"E7","midi":100,"time":"393.49","velocity":0.33858267716535434,"duration":"1.21"},{"name":"B4","midi":71,"time":"393.50","velocity":0.5748031496062992,"duration":"0.20"},{"name":"C#6","midi":85,"time":"393.50","velocity":0.14173228346456693,"duration":"0.07"},{"name":"G6","midi":91,"time":"393.50","velocity":0.1732283464566929,"duration":"0.06"},{"name":"G#4","midi":68,"time":"393.51","velocity":0.3464566929133858,"duration":"0.03"},{"name":"D#6","midi":87,"time":"393.51","velocity":0.12598425196850394,"duration":"0.03"},{"name":"F6","midi":89,"time":"393.52","velocity":0.2047244094488189,"duration":"0.15"},{"name":"C#5","midi":73,"time":"393.55","velocity":0.2440944881889764,"duration":"0.03"},{"name":"D6","midi":86,"time":"393.55","velocity":0.2677165354330709,"duration":"0.07"},{"name":"A#3","midi":58,"time":"393.56","velocity":0.4251968503937008,"duration":"0.02"},{"name":"G5","midi":79,"time":"393.56","velocity":0.2755905511811024,"duration":"0.02"},{"name":"D#6","midi":87,"time":"393.57","velocity":0.10236220472440945,"duration":"0.08"},{"name":"F#5","midi":78,"time":"393.58","velocity":0.2992125984251969,"duration":"0.07"},{"name":"C#6","midi":85,"time":"393.58","velocity":0.2440944881889764,"duration":"0.06"},{"name":"A#3","midi":58,"time":"393.59","velocity":0.41732283464566927,"duration":"0.03"},{"name":"A4","midi":69,"time":"393.59","velocity":0.3779527559055118,"duration":"0.07"},{"name":"C#5","midi":73,"time":"393.59","velocity":0.25196850393700787,"duration":"0.02"},{"name":"A5","midi":81,"time":"393.59","velocity":0.5590551181102362,"duration":"1.69"},{"name":"G6","midi":91,"time":"393.59","velocity":0.28346456692913385,"duration":"0.08"},{"name":"F7","midi":101,"time":"393.60","velocity":0.2992125984251969,"duration":"1.29"},{"name":"D6","midi":86,"time":"393.63","velocity":0.25984251968503935,"duration":"0.05"},{"name":"G#6","midi":92,"time":"393.63","velocity":0.29133858267716534,"duration":"0.48"},{"name":"F2","midi":41,"time":"393.65","velocity":0.6771653543307087,"duration":"0.02"},{"name":"G5","midi":79,"time":"393.65","velocity":0.2677165354330709,"duration":"0.02"},{"name":"G#5","midi":80,"time":"393.65","velocity":0.1889763779527559,"duration":"0.03"},{"name":"F#6","midi":90,"time":"393.65","velocity":0.28346456692913385,"duration":"0.16"},{"name":"A#6","midi":94,"time":"393.65","velocity":0.2047244094488189,"duration":"0.30"},{"name":"C4","midi":60,"time":"393.66","velocity":0.33858267716535434,"duration":"0.02"},{"name":"D5","midi":74,"time":"393.66","velocity":0.29133858267716534,"duration":"0.03"},{"name":"F#1","midi":30,"time":"393.67","velocity":0.4330708661417323,"duration":"0.02"},{"name":"G#2","midi":44,"time":"393.67","velocity":0.6220472440944882,"duration":"0.01"},{"name":"F4","midi":65,"time":"393.67","velocity":0.3779527559055118,"duration":"0.02"},{"name":"F#5","midi":78,"time":"393.67","velocity":0.4015748031496063,"duration":"0.76"},{"name":"C#6","midi":85,"time":"393.67","velocity":0.3700787401574803,"duration":"0.34"},{"name":"D#6","midi":87,"time":"393.67","velocity":0.2204724409448819,"duration":"0.34"},{"name":"B2","midi":47,"time":"393.69","velocity":0.5984251968503937,"duration":"0.01"},{"name":"A4","midi":69,"time":"393.69","velocity":0.48031496062992124,"duration":"0.02"},{"name":"G5","midi":79,"time":"393.69","velocity":0.25984251968503935,"duration":"0.03"},{"name":"D#1","midi":27,"time":"393.70","velocity":0.47244094488188976,"duration":"0.02"},{"name":"C3","midi":48,"time":"393.70","velocity":0.5669291338582677,"duration":"0.01"},{"name":"G4","midi":67,"time":"393.70","velocity":0.30708661417322836,"duration":"0.02"},{"name":"B2","midi":47,"time":"393.71","velocity":0.5826771653543307,"duration":"0.05"},{"name":"F#3","midi":54,"time":"393.71","velocity":0.48031496062992124,"duration":"0.09"},{"name":"A#4","midi":70,"time":"393.71","velocity":0.48031496062992124,"duration":"0.12"},{"name":"D4","midi":62,"time":"393.73","velocity":0.30708661417322836,"duration":"0.09"},{"name":"C6","midi":84,"time":"393.74","velocity":0.2283464566929134,"duration":"0.10"},{"name":"D6","midi":86,"time":"393.74","velocity":0.14960629921259844,"duration":"0.05"},{"name":"B2","midi":47,"time":"393.77","velocity":0.5511811023622047,"duration":"0.02"},{"name":"A#3","midi":58,"time":"393.77","velocity":0.33070866141732286,"duration":"0.02"},{"name":"B5","midi":83,"time":"393.78","velocity":0.23622047244094488,"duration":"0.03"},{"name":"A#2","midi":46,"time":"393.79","velocity":0.5196850393700787,"duration":"0.01"},{"name":"D#5","midi":75,"time":"393.79","velocity":0.3228346456692913,"duration":"0.06"},{"name":"B2","midi":47,"time":"393.80","velocity":0.5433070866141733,"duration":"0.22"},{"name":"A#1","midi":34,"time":"393.83","velocity":0.4251968503937008,"duration":"0.05"},{"name":"A4","midi":69,"time":"393.83","velocity":0.5669291338582677,"duration":"0.34"},{"name":"D6","midi":86,"time":"393.83","velocity":0.15748031496062992,"duration":"0.05"},{"name":"F#3","midi":54,"time":"393.84","velocity":0.4251968503937008,"duration":"0.17"},{"name":"E5","midi":76,"time":"393.84","velocity":0.3464566929133858,"duration":"0.21"},{"name":"B5","midi":83,"time":"393.84","velocity":0.2677165354330709,"duration":"0.14"},{"name":"E4","midi":64,"time":"393.85","velocity":0.30708661417322836,"duration":"0.02"},{"name":"B4","midi":71,"time":"393.85","velocity":0.33070866141732286,"duration":"0.07"},{"name":"G6","midi":91,"time":"393.86","velocity":0.13385826771653545,"duration":"0.05"},{"name":"C7","midi":96,"time":"393.86","velocity":0.15748031496062992,"duration":"0.08"},{"name":"F6","midi":89,"time":"393.87","velocity":0.10236220472440945,"duration":"0.03"},{"name":"E4","midi":64,"time":"393.88","velocity":0.29133858267716534,"duration":"0.05"},{"name":"G#5","midi":80,"time":"393.90","velocity":0.2125984251968504,"duration":"0.06"},{"name":"B1","midi":35,"time":"393.91","velocity":0.3779527559055118,"duration":"0.03"},{"name":"D6","midi":86,"time":"393.91","velocity":0.1889763779527559,"duration":"0.05"},{"name":"G6","midi":91,"time":"393.92","velocity":0.16535433070866143,"duration":"0.16"},{"name":"E6","midi":88,"time":"393.93","velocity":0.36220472440944884,"duration":"0.36"},{"name":"A#1","midi":34,"time":"393.94","velocity":0.3543307086614173,"duration":"0.02"},{"name":"D4","midi":62,"time":"393.94","velocity":0.2677165354330709,"duration":"0.06"},{"name":"C7","midi":96,"time":"393.95","velocity":0.2755905511811024,"duration":"0.13"},{"name":"C6","midi":84,"time":"393.97","velocity":0.2440944881889764,"duration":"0.06"},{"name":"A#6","midi":94,"time":"393.97","velocity":0.2440944881889764,"duration":"0.44"},{"name":"C2","midi":36,"time":"393.98","velocity":0.30708661417322836,"duration":"0.03"},{"name":"B4","midi":71,"time":"393.99","velocity":0.3228346456692913,"duration":"0.07"},{"name":"G#5","midi":80,"time":"393.99","velocity":0.2283464566929134,"duration":"0.05"},{"name":"D6","midi":86,"time":"394.00","velocity":0.25196850393700787,"duration":"0.09"},{"name":"B1","midi":35,"time":"394.01","velocity":0.3700787401574803,"duration":"0.02"},{"name":"B5","midi":83,"time":"394.01","velocity":0.3464566929133858,"duration":"0.42"},{"name":"B2","midi":47,"time":"394.03","velocity":0.5433070866141733,"duration":"0.35"},{"name":"C6","midi":84,"time":"394.03","velocity":0.2125984251968504,"duration":"0.03"},{"name":"F#3","midi":54,"time":"394.05","velocity":0.41732283464566927,"duration":"0.02"},{"name":"F#4","midi":66,"time":"394.05","velocity":0.4251968503937008,"duration":"0.24"},{"name":"D#5","midi":75,"time":"394.05","velocity":0.28346456692913385,"duration":"0.02"},{"name":"G#5","midi":80,"time":"394.05","velocity":0.2125984251968504,"duration":"0.03"},{"name":"E5","midi":76,"time":"394.06","velocity":0.47244094488188976,"duration":"0.37"},{"name":"D#4","midi":63,"time":"394.07","velocity":0.2677165354330709,"duration":"0.02"},{"name":"C#6","midi":85,"time":"394.07","velocity":0.3228346456692913,"duration":"0.34"},{"name":"F#3","midi":54,"time":"394.08","velocity":0.4330708661417323,"duration":"0.03"},{"name":"A#1","midi":34,"time":"394.09","velocity":0.3464566929133858,"duration":"0.02"},{"name":"F6","midi":89,"time":"394.09","velocity":0.15748031496062992,"duration":"0.03"},{"name":"C7","midi":96,"time":"394.09","velocity":0.2677165354330709,"duration":"0.57"},{"name":"C6","midi":84,"time":"394.10","velocity":0.29133858267716534,"duration":"0.02"},{"name":"G6","midi":91,"time":"394.10","velocity":0.08661417322834646,"duration":"0.03"},{"name":"C2","midi":36,"time":"394.12","velocity":0.4015748031496063,"duration":"0.02"},{"name":"G#6","midi":92,"time":"394.12","velocity":0.14960629921259844,"duration":"0.03"},{"name":"F#3","midi":54,"time":"394.13","velocity":0.4330708661417323,"duration":"0.06"},{"name":"D7","midi":98,"time":"394.13","velocity":0.1732283464566929,"duration":"0.13"},{"name":"D4","midi":62,"time":"394.14","velocity":0.2755905511811024,"duration":"0.03"},{"name":"G7","midi":103,"time":"394.15","velocity":0.1732283464566929,"duration":"0.29"},{"name":"D#6","midi":87,"time":"394.16","velocity":0.1732283464566929,"duration":"0.07"},{"name":"G6","midi":91,"time":"394.16","velocity":0.1732283464566929,"duration":"0.05"},{"name":"A4","midi":69,"time":"394.17","velocity":0.4881889763779528,"duration":"0.07"},{"name":"G#6","midi":92,"time":"394.17","velocity":0.14960629921259844,"duration":"0.08"},{"name":"F#3","midi":54,"time":"394.20","velocity":0.4251968503937008,"duration":"0.09"},{"name":"G5","midi":79,"time":"394.20","velocity":0.25196850393700787,"duration":"0.05"},{"name":"E4","midi":64,"time":"394.21","velocity":0.3543307086614173,"duration":"0.03"},{"name":"C#5","midi":73,"time":"394.21","velocity":0.14173228346456693,"duration":"0.05"},{"name":"D6","midi":86,"time":"394.21","velocity":0.2047244094488189,"duration":"0.08"},{"name":"A#1","midi":34,"time":"394.22","velocity":0.3228346456692913,"duration":"0.02"},{"name":"D#7","midi":99,"time":"394.22","velocity":0.2677165354330709,"duration":"0.15"},{"name":"B1","midi":35,"time":"394.24","velocity":0.30708661417322836,"duration":"0.02"},{"name":"A#4","midi":70,"time":"394.24","velocity":0.3858267716535433,"duration":"0.02"},{"name":"E4","midi":64,"time":"394.26","velocity":0.3228346456692913,"duration":"0.02"},{"name":"C6","midi":84,"time":"394.26","velocity":0.2125984251968504,"duration":"0.05"},{"name":"D#6","midi":87,"time":"394.26","velocity":0.1889763779527559,"duration":"0.15"},{"name":"A4","midi":69,"time":"394.27","velocity":0.4566929133858268,"duration":"0.06"},{"name":"B1","midi":35,"time":"394.28","velocity":0.3464566929133858,"duration":"0.02"},{"name":"D#4","midi":63,"time":"394.28","velocity":0.2440944881889764,"duration":"0.02"},{"name":"C5","midi":72,"time":"394.28","velocity":0.14960629921259844,"duration":"0.05"},{"name":"G#6","midi":92,"time":"394.28","velocity":0.25984251968503935,"duration":"0.13"},{"name":"F#3","midi":54,"time":"394.30","velocity":0.4094488188976378,"duration":"0.06"},{"name":"E4","midi":64,"time":"394.30","velocity":0.29133858267716534,"duration":"0.05"},{"name":"G#5","midi":80,"time":"394.30","velocity":0.1889763779527559,"duration":"0.05"},{"name":"G6","midi":91,"time":"394.31","velocity":0.2755905511811024,"duration":"0.19"},{"name":"D4","midi":62,"time":"394.34","velocity":0.3228346456692913,"duration":"0.02"},{"name":"A4","midi":69,"time":"394.34","velocity":0.5354330708661418,"duration":"0.07"},{"name":"D6","midi":86,"time":"394.34","velocity":0.3543307086614173,"duration":"0.21"},{"name":"F#4","midi":66,"time":"394.36","velocity":0.23622047244094488,"duration":"0.02"},{"name":"F#3","midi":54,"time":"394.37","velocity":0.3858267716535433,"duration":"0.02"},{"name":"D4","midi":62,"time":"394.37","velocity":0.4251968503937008,"duration":"0.05"},{"name":"F6","midi":89,"time":"394.37","velocity":0.2125984251968504,"duration":"0.07"},{"name":"D#7","midi":99,"time":"394.38","velocity":0.1889763779527559,"duration":"0.16"},{"name":"C6","midi":84,"time":"394.40","velocity":0.3228346456692913,"duration":"0.08"},{"name":"A#4","midi":70,"time":"394.41","velocity":0.4251968503937008,"duration":"0.02"},{"name":"C#5","midi":73,"time":"394.41","velocity":0.4094488188976378,"duration":"0.05"},{"name":"B2","midi":47,"time":"394.42","velocity":0.5433070866141733,"duration":"0.35"},{"name":"G5","midi":79,"time":"394.42","velocity":0.30708661417322836,"duration":"0.05"},{"name":"A#6","midi":94,"time":"394.42","velocity":0.2047244094488189,"duration":"0.09"},{"name":"G3","midi":55,"time":"394.43","velocity":0.4330708661417323,"duration":"0.02"},{"name":"C4","midi":60,"time":"394.43","velocity":0.41732283464566927,"duration":"0.03"},{"name":"A4","midi":69,"time":"394.43","velocity":0.5039370078740157,"duration":"0.02"},{"name":"F5","midi":77,"time":"394.43","velocity":0.3464566929133858,"duration":"0.06"},{"name":"F4","midi":65,"time":"394.44","velocity":0.4409448818897638,"duration":"0.03"},{"name":"D5","midi":74,"time":"394.44","velocity":0.2440944881889764,"duration":"0.02"},{"name":"B5","midi":83,"time":"394.44","velocity":0.3228346456692913,"duration":"0.16"},{"name":"G#6","midi":92,"time":"394.44","velocity":0.33070866141732286,"duration":"0.98"},{"name":"A#4","midi":70,"time":"394.45","velocity":0.2992125984251969,"duration":"0.02"},{"name":"C#6","midi":85,"time":"394.45","velocity":0.23622047244094488,"duration":"0.03"},{"name":"E4","midi":64,"time":"394.47","velocity":0.36220472440944884,"duration":"0.02"},{"name":"B4","midi":71,"time":"394.47","velocity":0.31496062992125984,"duration":"0.05"},{"name":"F#5","midi":78,"time":"394.47","velocity":0.28346456692913385,"duration":"0.05"},{"name":"F#3","midi":54,"time":"394.48","velocity":0.33070866141732286,"duration":"0.02"},{"name":"A#3","midi":58,"time":"394.48","velocity":0.33858267716535434,"duration":"0.03"},{"name":"A4","midi":69,"time":"394.48","velocity":0.4881889763779528,"duration":"0.08"},{"name":"F4","midi":65,"time":"394.49","velocity":0.3779527559055118,"duration":"0.02"},{"name":"E5","midi":76,"time":"394.49","velocity":0.36220472440944884,"duration":"0.21"},{"name":"F3","midi":53,"time":"394.50","velocity":0.3779527559055118,"duration":"0.02"},{"name":"F#4","midi":66,"time":"394.50","velocity":0.33858267716535434,"duration":"0.03"},{"name":"E4","midi":64,"time":"394.51","velocity":0.3700787401574803,"duration":"0.21"},{"name":"A3","midi":57,"time":"394.52","velocity":0.4330708661417323,"duration":"0.05"},{"name":"F#5","midi":78,"time":"394.52","velocity":0.36220472440944884,"duration":"0.21"},{"name":"G6","midi":91,"time":"394.52","velocity":0.1732283464566929,"duration":"0.03"},{"name":"A#6","midi":94,"time":"394.52","velocity":0.15748031496062992,"duration":"0.13"},{"name":"C#6","midi":85,"time":"394.55","velocity":0.28346456692913385,"duration":"0.10"},{"name":"A#4","midi":70,"time":"394.56","velocity":0.41732283464566927,"duration":"0.02"},{"name":"C5","midi":72,"time":"394.56","velocity":0.2125984251968504,"duration":"0.06"},{"name":"D5","midi":74,"time":"394.56","velocity":0.16535433070866143,"duration":"0.05"},{"name":"D#7","midi":99,"time":"394.56","velocity":0.28346456692913385,"duration":"0.52"},{"name":"C6","midi":84,"time":"394.57","velocity":0.2992125984251969,"duration":"0.14"},{"name":"A4","midi":69,"time":"394.58","velocity":0.4409448818897638,"duration":"0.03"},{"name":"D6","midi":86,"time":"394.58","velocity":0.2677165354330709,"duration":"0.05"},{"name":"A3","midi":57,"time":"394.59","velocity":0.41732283464566927,"duration":"0.06"},{"name":"G6","midi":91,"time":"394.60","velocity":0.12598425196850394,"duration":"0.05"},{"name":"G#4","midi":68,"time":"394.62","velocity":0.3779527559055118,"duration":"0.02"},{"name":"D#6","midi":87,"time":"394.63","velocity":0.14960629921259844,"duration":"0.07"},{"name":"F6","midi":89,"time":"394.63","velocity":0.14173228346456693,"duration":"0.05"},{"name":"A4","midi":69,"time":"394.64","velocity":0.5354330708661418,"duration":"0.27"},{"name":"D6","midi":86,"time":"394.64","velocity":0.2755905511811024,"duration":"0.07"},{"name":"A#3","midi":58,"time":"394.65","velocity":0.4330708661417323,"duration":"0.02"},{"name":"D5","midi":74,"time":"394.65","velocity":0.18110236220472442,"duration":"0.06"},{"name":"C#6","midi":85,"time":"394.66","velocity":0.28346456692913385,"duration":"0.09"},{"name":"G6","midi":91,"time":"394.66","velocity":0.25196850393700787,"duration":"0.21"},{"name":"C5","midi":72,"time":"394.70","velocity":0.25196850393700787,"duration":"0.07"},{"name":"B5","midi":83,"time":"394.70","velocity":0.4330708661417323,"duration":"0.47"},{"name":"F#7","midi":102,"time":"394.70","velocity":0.2677165354330709,"duration":"0.49"},{"name":"E5","midi":76,"time":"394.71","velocity":0.3858267716535433,"duration":"0.24"},{"name":"G5","midi":79,"time":"394.71","velocity":0.1968503937007874,"duration":"0.05"},{"name":"D#6","midi":87,"time":"394.71","velocity":0.12598425196850394,"duration":"0.03"},{"name":"A#6","midi":94,"time":"394.71","velocity":0.25196850393700787,"duration":"0.27"},{"name":"F#3","midi":54,"time":"394.72","velocity":0.25196850393700787,"duration":"0.02"},{"name":"D6","midi":86,"time":"394.72","velocity":0.2283464566929134,"duration":"0.24"},{"name":"D4","midi":62,"time":"394.73","velocity":0.33070866141732286,"duration":"0.06"},{"name":"F#5","midi":78,"time":"394.74","velocity":0.4094488188976378,"duration":"0.24"},{"name":"F#4","midi":66,"time":"394.76","velocity":0.28346456692913385,"duration":"0.06"},{"name":"F6","midi":89,"time":"394.76","velocity":0.2204724409448819,"duration":"0.10"},{"name":"C#6","midi":85,"time":"394.77","velocity":0.2992125984251969,"duration":"0.12"},{"name":"A3","midi":57,"time":"394.78","velocity":0.4330708661417323,"duration":"0.02"},{"name":"C#5","midi":73,"time":"394.78","velocity":0.2125984251968504,"duration":"0.03"},{"name":"D4","midi":62,"time":"394.80","velocity":0.31496062992125984,"duration":"0.03"},{"name":"B2","midi":47,"time":"394.81","velocity":0.4881889763779528,"duration":"0.31"},{"name":"F#3","midi":54,"time":"394.81","velocity":0.4566929133858268,"duration":"0.31"},{"name":"C5","midi":72,"time":"394.81","velocity":0.2992125984251969,"duration":"0.03"},{"name":"D#4","midi":63,"time":"394.84","velocity":0.2677165354330709,"duration":"0.02"},{"name":"G#5","midi":80,"time":"394.84","velocity":0.2440944881889764,"duration":"0.06"},{"name":"D#6","midi":87,"time":"394.84","velocity":0.18110236220472442,"duration":"0.03"},{"name":"E4","midi":64,"time":"394.85","velocity":0.36220472440944884,"duration":"0.13"},{"name":"C#5","midi":73,"time":"394.85","velocity":0.25196850393700787,"duration":"0.03"},{"name":"C5","midi":72,"time":"394.87","velocity":0.18110236220472442,"duration":"0.07"},{"name":"G6","midi":91,"time":"394.88","velocity":0.2283464566929134,"duration":"0.03"},{"name":"C#6","midi":85,"time":"394.90","velocity":0.3228346456692913,"duration":"0.20"},{"name":"G#4","midi":68,"time":"394.91","velocity":0.36220472440944884,"duration":"0.02"},{"name":"F7","midi":101,"time":"394.91","velocity":0.1968503937007874,"duration":"0.51"},{"name":"A#1","midi":34,"time":"394.92","velocity":0.30708661417322836,"duration":"0.02"},{"name":"A4","midi":69,"time":"394.93","velocity":0.5748031496062992,"duration":"0.24"},{"name":"D#5","midi":75,"time":"394.93","velocity":0.2125984251968504,"duration":"0.03"},{"name":"G6","midi":91,"time":"394.93","velocity":0.2283464566929134,"duration":"0.28"},{"name":"D#6","midi":87,"time":"394.97","velocity":0.10236220472440945,"duration":"0.06"},{"name":"D4","midi":62,"time":"394.98","velocity":0.2755905511811024,"duration":"0.02"},{"name":"E5","midi":76,"time":"394.98","velocity":0.2992125984251969,"duration":"0.35"},{"name":"G5","midi":79,"time":"394.98","velocity":0.2283464566929134,"duration":"0.02"},{"name":"F#5","midi":78,"time":"395.00","velocity":0.23622047244094488,"duration":"0.02"},{"name":"A#6","midi":94,"time":"395.00","velocity":0.2125984251968504,"duration":"0.08"},{"name":"C7","midi":96,"time":"395.00","velocity":0.2047244094488189,"duration":"0.17"},{"name":"B1","midi":35,"time":"395.02","velocity":0.2992125984251969,"duration":"0.05"},{"name":"G#5","midi":80,"time":"395.02","velocity":0.16535433070866143,"duration":"0.03"},{"name":"D4","midi":62,"time":"395.03","velocity":0.30708661417322836,"duration":"0.05"},{"name":"E6","midi":88,"time":"395.03","velocity":0.3858267716535433,"duration":"1.02"},{"name":"D#6","midi":87,"time":"395.05","velocity":0.16535433070866143,"duration":"0.05"},{"name":"D6","midi":86,"time":"395.06","velocity":0.2992125984251969,"duration":"0.14"},{"name":"C2","midi":36,"time":"395.07","velocity":0.29133858267716534,"duration":"0.02"},{"name":"F#5","midi":78,"time":"395.07","velocity":0.23622047244094488,"duration":"0.08"},{"name":"G#5","midi":80,"time":"395.08","velocity":0.2992125984251969,"duration":"0.03"},{"name":"B4","midi":71,"time":"395.09","velocity":0.28346456692913385,"duration":"0.03"},{"name":"D5","midi":74,"time":"395.09","velocity":0.30708661417322836,"duration":"0.08"},{"name":"F6","midi":89,"time":"395.09","velocity":0.14960629921259844,"duration":"0.05"},{"name":"D#7","midi":99,"time":"395.09","velocity":0.25196850393700787,"duration":"0.79"},{"name":"G7","midi":103,"time":"395.09","velocity":0.2755905511811024,"duration":"0.55"},{"name":"E4","midi":64,"time":"395.10","velocity":0.33858267716535434,"duration":"0.02"},{"name":"D#6","midi":87,"time":"395.12","velocity":0.1889763779527559,"duration":"0.13"},{"name":"A2","midi":45,"time":"395.13","velocity":0.5590551181102362,"duration":"0.01"},{"name":"D#3","midi":51,"time":"395.13","velocity":0.44881889763779526,"duration":"0.02"},{"name":"G#5","midi":80,"time":"395.13","velocity":0.2992125984251969,"duration":"0.03"},{"name":"C#6","midi":85,"time":"395.13","velocity":0.3543307086614173,"duration":"0.03"},{"name":"F2","midi":41,"time":"395.14","velocity":0.6535433070866141,"duration":"0.01"},{"name":"D4","midi":62,"time":"395.14","velocity":0.4015748031496063,"duration":"0.05"},{"name":"A#6","midi":94,"time":"395.14","velocity":0.1889763779527559,"duration":"0.15"},{"name":"G2","midi":43,"time":"395.15","velocity":0.5905511811023622,"duration":"0.01"},{"name":"B3","midi":59,"time":"395.15","velocity":0.30708661417322836,"duration":"0.02"},{"name":"G5","midi":79,"time":"395.15","velocity":0.2755905511811024,"duration":"0.02"},{"name":"C6","midi":84,"time":"395.15","velocity":0.33070866141732286,"duration":"0.03"},{"name":"B1","midi":35,"time":"395.16","velocity":0.5196850393700787,"duration":"0.01"},{"name":"C3","midi":48,"time":"395.16","velocity":0.5118110236220472,"duration":"0.01"},{"name":"F#5","midi":78,"time":"395.16","velocity":0.25196850393700787,"duration":"0.03"},{"name":"F#1","midi":30,"time":"395.17","velocity":0.5826771653543307,"duration":"0.01"},{"name":"C#3","midi":49,"time":"395.17","velocity":0.5433070866141733,"duration":"0.01"},{"name":"G4","midi":67,"time":"395.17","velocity":0.25196850393700787,"duration":"0.02"},{"name":"F1","midi":29,"time":"395.19","velocity":0.5905511811023622,"duration":"0.01"},{"name":"B4","midi":71,"time":"395.19","velocity":0.4094488188976378,"duration":"0.03"},{"name":"C#6","midi":85,"time":"395.19","velocity":0.3779527559055118,"duration":"0.22"},{"name":"C7","midi":96,"time":"395.19","velocity":0.2047244094488189,"duration":"0.05"},{"name":"B1","midi":35,"time":"395.20","velocity":0.5433070866141733,"duration":"0.01"},{"name":"D5","midi":74,"time":"395.20","velocity":0.2992125984251969,"duration":"0.16"},{"name":"A#3","midi":58,"time":"395.21","velocity":0.4094488188976378,"duration":"0.02"},{"name":"A4","midi":69,"time":"395.21","velocity":0.4015748031496063,"duration":"0.03"},{"name":"F#1","midi":30,"time":"395.22","velocity":0.44881889763779526,"duration":"0.02"},{"name":"C3","midi":48,"time":"395.22","velocity":0.5196850393700787,"duration":"0.01"},{"name":"D4","midi":62,"time":"395.22","velocity":0.41732283464566927,"duration":"0.29"},{"name":"C6","midi":84,"time":"395.22","velocity":0.3543307086614173,"duration":"0.20"},{"name":"G6","midi":91,"time":"395.22","velocity":0.2125984251968504,"duration":"0.24"},{"name":"B4","midi":71,"time":"395.23","velocity":0.2755905511811024,"duration":"0.05"},{"name":"F#5","midi":78,"time":"395.23","velocity":0.4645669291338583,"duration":"0.99"},{"name":"A#2","midi":46,"time":"395.24","velocity":0.5196850393700787,"duration":"0.01"},{"name":"A1","midi":33,"time":"395.26","velocity":0.33070866141732286,"duration":"0.02"},{"name":"B2","midi":47,"time":"395.26","velocity":0.5433070866141733,"duration":"0.02"},{"name":"A4","midi":69,"time":"395.26","velocity":0.5511811023622047,"duration":"0.29"},{"name":"D#6","midi":87,"time":"395.28","velocity":0.1968503937007874,"duration":"0.12"},{"name":"B2","midi":47,"time":"395.29","velocity":0.5590551181102362,"duration":"0.22"},{"name":"F#4","midi":66,"time":"395.30","velocity":0.2204724409448819,"duration":"0.05"},{"name":"F#3","midi":54,"time":"395.31","velocity":0.31496062992125984,"duration":"0.02"},{"name":"A#6","midi":94,"time":"395.31","velocity":0.2125984251968504,"duration":"0.34"},{"name":"A#3","midi":58,"time":"395.33","velocity":0.3228346456692913,"duration":"0.02"},{"name":"E5","midi":76,"time":"395.34","velocity":0.2755905511811024,"duration":"0.07"},{"name":"F#3","midi":54,"time":"395.35","velocity":0.33858267716535434,"duration":"0.02"},{"name":"D#5","midi":75,"time":"395.35","velocity":0.23622047244094488,"duration":"0.03"},{"name":"B4","midi":71,"time":"395.37","velocity":0.36220472440944884,"duration":"0.09"},{"name":"D6","midi":86,"time":"395.37","velocity":0.25196850393700787,"duration":"0.07"},{"name":"F#3","midi":54,"time":"395.38","velocity":0.36220472440944884,"duration":"0.03"},{"name":"G#5","midi":80,"time":"395.38","velocity":0.2283464566929134,"duration":"0.05"},{"name":"F6","midi":89,"time":"395.40","velocity":0.14173228346456693,"duration":"0.06"},{"name":"B6","midi":95,"time":"395.40","velocity":0.2992125984251969,"duration":"0.58"},{"name":"A#3","midi":58,"time":"395.41","velocity":0.33070866141732286,"duration":"0.02"},{"name":"A1","midi":33,"time":"395.42","velocity":0.3228346456692913,"duration":"0.02"},{"name":"E5","midi":76,"time":"395.42","velocity":0.33070866141732286,"duration":"0.08"},{"name":"C#6","midi":85,"time":"395.42","velocity":0.3464566929133858,"duration":"0.12"},{"name":"F#3","midi":54,"time":"395.43","velocity":0.3543307086614173,"duration":"0.05"},{"name":"G#6","midi":92,"time":"395.45","velocity":0.2755905511811024,"duration":"0.43"},{"name":"C2","midi":36,"time":"395.48","velocity":0.33070866141732286,"duration":"0.02"},{"name":"A#1","midi":34,"time":"395.50","velocity":0.5354330708661418,"duration":"0.02"},{"name":"G3","midi":55,"time":"395.50","velocity":0.25196850393700787,"duration":"0.02"},{"name":"F4","midi":65,"time":"395.50","velocity":0.3937007874015748,"duration":"0.05"},{"name":"F6","midi":89,"time":"395.50","velocity":0.11811023622047244,"duration":"0.07"},{"name":"C3","midi":48,"time":"395.51","velocity":0.5905511811023622,"duration":"0.01"},{"name":"E5","midi":76,"time":"395.51","velocity":0.4330708661417323,"duration":"0.41"},{"name":"G5","midi":79,"time":"395.51","velocity":0.2283464566929134,"duration":"0.06"},{"name":"C6","midi":84,"time":"395.51","velocity":0.2440944881889764,"duration":"0.05"},{"name":"D#6","midi":87,"time":"395.51","velocity":0.1889763779527559,"duration":"0.03"},{"name":"E2","midi":40,"time":"395.52","velocity":0.6141732283464567,"duration":"0.01"},{"name":"C#3","midi":49,"time":"395.52","velocity":0.5275590551181102,"duration":"0.01"},{"name":"F7","midi":101,"time":"395.52","velocity":0.1732283464566929,"duration":"0.07"},{"name":"F2","midi":41,"time":"395.53","velocity":0.5433070866141733,"duration":"0.02"},{"name":"C4","midi":60,"time":"395.53","velocity":0.41732283464566927,"duration":"0.02"},{"name":"C7","midi":96,"time":"395.53","velocity":0.2755905511811024,"duration":"0.31"},{"name":"D7","midi":98,"time":"395.53","velocity":0.29133858267716534,"duration":"0.53"},{"name":"D#4","midi":63,"time":"395.55","velocity":0.33858267716535434,"duration":"0.02"},{"name":"F#4","midi":66,"time":"395.55","velocity":0.3543307086614173,"duration":"0.31"},{"name":"B1","midi":35,"time":"395.56","velocity":0.5511811023622047,"duration":"0.01"},{"name":"G#2","midi":44,"time":"395.56","velocity":0.5748031496062992,"duration":"0.01"},{"name":"A4","midi":69,"time":"395.56","velocity":0.5354330708661418,"duration":"0.10"},{"name":"C5","midi":72,"time":"395.56","velocity":0.3228346456692913,"duration":"0.02"},{"name":"B5","midi":83,"time":"395.56","velocity":0.3700787401574803,"duration":"0.10"},{"name":"C#6","midi":85,"time":"395.56","velocity":0.25984251968503935,"duration":"0.13"},{"name":"F#7","midi":102,"time":"395.56","velocity":0.33070866141732286,"duration":"4.53"},{"name":"A#2","midi":46,"time":"395.57","velocity":0.5433070866141733,"duration":"0.01"},{"name":"D4","midi":62,"time":"395.57","velocity":0.25984251968503935,"duration":"0.05"},{"name":"B2","midi":47,"time":"395.58","velocity":0.5905511811023622,"duration":"0.07"},{"name":"F#3","midi":54,"time":"395.58","velocity":0.3937007874015748,"duration":"0.03"},{"name":"C2","midi":36,"time":"395.59","velocity":0.47244094488188976,"duration":"0.03"},{"name":"D6","midi":86,"time":"395.59","velocity":0.2755905511811024,"duration":"0.13"},{"name":"G6","midi":91,"time":"395.59","velocity":0.30708661417322836,"duration":"0.44"},{"name":"G#5","midi":80,"time":"395.62","velocity":0.15748031496062992,"duration":"0.03"},{"name":"F7","midi":101,"time":"395.62","velocity":0.11811023622047244,"duration":"0.13"},{"name":"B1","midi":35,"time":"395.63","velocity":0.3543307086614173,"duration":"0.02"},{"name":"D5","midi":74,"time":"395.63","velocity":0.1889763779527559,"duration":"0.05"},{"name":"D#6","midi":87,"time":"395.63","velocity":0.11811023622047244,"duration":"0.07"},{"name":"E4","midi":64,"time":"395.64","velocity":0.2677165354330709,"duration":"0.02"},{"name":"C6","midi":84,"time":"395.64","velocity":0.30708661417322836,"duration":"0.03"},{"name":"B4","midi":71,"time":"395.65","velocity":0.33070866141732286,"duration":"0.13"},{"name":"B2","midi":47,"time":"395.66","velocity":0.5275590551181102,"duration":"0.23"},{"name":"A#6","midi":94,"time":"395.66","velocity":0.3543307086614173,"duration":"0.48"},{"name":"G1","midi":31,"time":"395.67","velocity":0.33858267716535434,"duration":"0.03"},{"name":"A4","midi":69,"time":"395.67","velocity":0.49606299212598426,"duration":"0.13"},{"name":"B5","midi":83,"time":"395.67","velocity":0.4015748031496063,"duration":"0.22"},{"name":"F#3","midi":54,"time":"395.69","velocity":0.3937007874015748,"duration":"0.02"},{"name":"E4","midi":64,"time":"395.70","velocity":0.2992125984251969,"duration":"0.02"},{"name":"C#6","midi":85,"time":"395.70","velocity":0.2992125984251969,"duration":"0.07"},{"name":"F#3","midi":54,"time":"395.72","velocity":0.4251968503937008,"duration":"0.19"},{"name":"A5","midi":81,"time":"395.72","velocity":0.5669291338582677,"duration":"0.30"},{"name":"A1","midi":33,"time":"395.73","velocity":0.4015748031496063,"duration":"0.02"},{"name":"E4","midi":64,"time":"395.73","velocity":0.3543307086614173,"duration":"0.03"},{"name":"G#5","midi":80,"time":"395.73","velocity":0.2283464566929134,"duration":"0.02"},{"name":"D6","midi":86,"time":"395.73","velocity":0.2440944881889764,"duration":"0.09"},{"name":"F7","midi":101,"time":"395.77","velocity":0.2283464566929134,"duration":"0.30"},{"name":"C#6","midi":85,"time":"395.78","velocity":0.2992125984251969,"duration":"0.07"},{"name":"E4","midi":64,"time":"395.79","velocity":0.31496062992125984,"duration":"0.02"},{"name":"B4","midi":71,"time":"395.79","velocity":0.31496062992125984,"duration":"0.03"},{"name":"C2","midi":36,"time":"395.80","velocity":0.33070866141732286,"duration":"0.02"},{"name":"A4","midi":69,"time":"395.81","velocity":0.23622047244094488,"duration":"0.02"},{"name":"A#1","midi":34,"time":"395.83","velocity":0.3543307086614173,"duration":"0.02"},{"name":"D4","midi":62,"time":"395.83","velocity":0.36220472440944884,"duration":"0.02"},{"name":"F6","midi":89,"time":"395.83","velocity":0.09448818897637795,"duration":"0.05"},{"name":"G#4","midi":68,"time":"395.84","velocity":0.4330708661417323,"duration":"0.02"},{"name":"D6","midi":86,"time":"395.84","velocity":0.31496062992125984,"duration":"0.08"},{"name":"B1","midi":35,"time":"395.85","velocity":0.33858267716535434,"duration":"0.03"},{"name":"D5","midi":74,"time":"395.85","velocity":0.11811023622047244,"duration":"0.05"},{"name":"D4","midi":62,"time":"395.86","velocity":0.3858267716535433,"duration":"0.03"},{"name":"A4","midi":69,"time":"395.86","velocity":0.5590551181102362,"duration":"0.23"},{"name":"C#6","midi":85,"time":"395.86","velocity":0.2204724409448819,"duration":"0.03"},{"name":"F#4","midi":66,"time":"395.87","velocity":0.4645669291338583,"duration":"0.02"},{"name":"C#5","midi":73,"time":"395.88","velocity":0.3700787401574803,"duration":"0.03"},{"name":"D#6","midi":87,"time":"395.88","velocity":0.3779527559055118,"duration":"0.84"},{"name":"F6","midi":89,"time":"395.88","velocity":0.25984251968503935,"duration":"0.08"},{"name":"C7","midi":96,"time":"395.88","velocity":0.2677165354330709,"duration":"0.99"},{"name":"C4","midi":60,"time":"395.90","velocity":0.44881889763779526,"duration":"0.05"},{"name":"G4","midi":67,"time":"395.90","velocity":0.5433070866141733,"duration":"0.01"},{"name":"C6","midi":84,"time":"395.90","velocity":0.3543307086614173,"duration":"0.07"},{"name":"G#6","midi":92,"time":"395.90","velocity":0.33858267716535434,"duration":"0.56"},{"name":"F#4","midi":66,"time":"395.91","velocity":0.4409448818897638,"duration":"0.02"},{"name":"D#5","midi":75,"time":"395.91","velocity":0.4015748031496063,"duration":"0.06"},{"name":"G#3","midi":56,"time":"395.92","velocity":0.4015748031496063,"duration":"0.02"},{"name":"D#4","midi":63,"time":"395.92","velocity":0.3858267716535433,"duration":"0.02"},{"name":"B2","midi":47,"time":"395.93","velocity":0.5039370078740157,"duration":"0.03"},{"name":"E4","midi":64,"time":"395.94","velocity":0.3700787401574803,"duration":"0.02"},{"name":"E5","midi":76,"time":"395.94","velocity":0.3700787401574803,"duration":"0.07"},{"name":"A#3","midi":58,"time":"395.95","velocity":0.3700787401574803,"duration":"0.03"},{"name":"F#4","midi":66,"time":"395.95","velocity":0.4015748031496063,"duration":"0.05"},{"name":"C5","midi":72,"time":"395.95","velocity":0.28346456692913385,"duration":"0.05"},{"name":"D4","midi":62,"time":"395.97","velocity":0.2677165354330709,"duration":"0.02"},{"name":"B5","midi":83,"time":"395.97","velocity":0.3543307086614173,"duration":"0.15"},{"name":"D6","midi":86,"time":"395.97","velocity":0.25196850393700787,"duration":"0.05"},{"name":"B2","midi":47,"time":"395.98","velocity":0.5354330708661418,"duration":"0.29"},{"name":"G#5","midi":80,"time":"395.98","velocity":0.47244094488188976,"duration":"0.17"},{"name":"F#3","midi":54,"time":"395.99","velocity":0.44881889763779526,"duration":"0.12"},{"name":"A#3","midi":58,"time":"396.00","velocity":0.36220472440944884,"duration":"0.02"},{"name":"D#5","midi":75,"time":"396.00","velocity":0.33070866141732286,"duration":"0.05"},{"name":"D4","midi":62,"time":"396.02","velocity":0.31496062992125984,"duration":"0.03"},{"name":"D6","midi":86,"time":"396.03","velocity":0.2677165354330709,"duration":"0.03"},{"name":"B4","midi":71,"time":"396.05","velocity":0.25196850393700787,"duration":"0.05"},{"name":"E5","midi":76,"time":"396.05","velocity":0.4015748031496063,"duration":"0.26"},{"name":"F6","midi":89,"time":"396.05","velocity":0.2204724409448819,"duration":"0.10"},{"name":"G6","midi":91,"time":"396.05","velocity":0.07874015748031496,"duration":"0.05"},{"name":"A6","midi":93,"time":"396.05","velocity":0.2283464566929134,"duration":"0.21"},{"name":"A#3","midi":58,"time":"396.06","velocity":0.4566929133858268,"duration":"0.03"},{"name":"E4","midi":64,"time":"396.06","velocity":0.2440944881889764,"duration":"0.03"},{"name":"C#5","midi":73,"time":"396.08","velocity":0.25984251968503935,"duration":"0.02"},{"name":"D6","midi":86,"time":"396.08","velocity":0.2755905511811024,"duration":"0.13"},{"name":"G#4","midi":68,"time":"396.09","velocity":0.5118110236220472,"duration":"0.02"},{"name":"C6","midi":84,"time":"396.09","velocity":0.25984251968503935,"duration":"0.05"},{"name":"G3","midi":55,"time":"396.10","velocity":0.4251968503937008,"duration":"0.02"},{"name":"A4","midi":69,"time":"396.12","velocity":0.5196850393700787,"duration":"0.03"},{"name":"B4","midi":71,"time":"396.12","velocity":0.25196850393700787,"duration":"0.02"},{"name":"F#3","midi":54,"time":"396.13","velocity":0.3464566929133858,"duration":"0.02"},{"name":"B5","midi":83,"time":"396.13","velocity":0.41732283464566927,"duration":"0.48"},{"name":"G6","midi":91,"time":"396.13","velocity":0.2047244094488189,"duration":"0.12"},{"name":"B1","midi":35,"time":"396.14","velocity":0.23622047244094488,"duration":"0.02"},{"name":"G3","midi":55,"time":"396.15","velocity":0.3700787401574803,"duration":"0.02"},{"name":"D4","midi":62,"time":"396.15","velocity":0.29133858267716534,"duration":"0.06"},{"name":"C#6","midi":85,"time":"396.16","velocity":0.25196850393700787,"duration":"0.06"},{"name":"F#3","midi":54,"time":"396.17","velocity":0.4094488188976378,"duration":"0.02"},{"name":"F6","midi":89,"time":"396.17","velocity":0.11811023622047244,"duration":"0.03"},{"name":"A#6","midi":94,"time":"396.17","velocity":0.2992125984251969,"duration":"1.20"},{"name":"G#4","midi":68,"time":"396.19","velocity":0.5275590551181102,"duration":"0.09"},{"name":"C#7","midi":97,"time":"396.19","velocity":0.30708661417322836,"duration":"0.47"},{"name":"C2","midi":36,"time":"396.22","velocity":0.29133858267716534,"duration":"0.02"},{"name":"D4","midi":62,"time":"396.22","velocity":0.33858267716535434,"duration":"0.06"},{"name":"D6","midi":86,"time":"396.22","velocity":0.28346456692913385,"duration":"0.06"},{"name":"C#6","midi":85,"time":"396.23","velocity":0.3228346456692913,"duration":"0.22"},{"name":"F6","midi":89,"time":"396.23","velocity":0.2440944881889764,"duration":"0.08"},{"name":"B1","midi":35,"time":"396.24","velocity":0.3228346456692913,"duration":"0.02"},{"name":"F#5","midi":78,"time":"396.24","velocity":0.33858267716535434,"duration":"0.20"},{"name":"B4","midi":71,"time":"396.26","velocity":0.2125984251968504,"duration":"0.03"},{"name":"G6","midi":91,"time":"396.26","velocity":0.2283464566929134,"duration":"0.10"},{"name":"F7","midi":101,"time":"396.26","velocity":0.2677165354330709,"duration":"0.14"},{"name":"C3","midi":48,"time":"396.27","velocity":0.48031496062992124,"duration":"0.02"},{"name":"A5","midi":81,"time":"396.27","velocity":0.33858267716535434,"duration":"0.03"},{"name":"A4","midi":69,"time":"396.28","velocity":0.5196850393700787,"duration":"0.03"},{"name":"B2","midi":47,"time":"396.29","velocity":0.5669291338582677,"duration":"0.31"},{"name":"F#3","midi":54,"time":"396.29","velocity":0.5039370078740157,"duration":"0.07"},{"name":"G#4","midi":68,"time":"396.29","velocity":0.5039370078740157,"duration":"0.20"},{"name":"D#5","midi":75,"time":"396.29","velocity":0.33858267716535434,"duration":"0.06"},{"name":"D6","midi":86,"time":"396.29","velocity":0.1968503937007874,"duration":"0.03"},{"name":"D7","midi":98,"time":"396.30","velocity":0.28346456692913385,"duration":"0.45"},{"name":"E4","midi":64,"time":"396.31","velocity":0.2755905511811024,"duration":"0.02"},{"name":"B4","midi":71,"time":"396.31","velocity":0.2677165354330709,"duration":"0.02"},{"name":"A6","midi":93,"time":"396.31","velocity":0.2047244094488189,"duration":"0.47"},{"name":"A#5","midi":82,"time":"396.33","velocity":0.13385826771653545,"duration":"0.03"},{"name":"F6","midi":89,"time":"396.34","velocity":0.15748031496062992,"duration":"0.03"},{"name":"B1","midi":35,"time":"396.35","velocity":0.2755905511811024,"duration":"0.02"},{"name":"B4","midi":71,"time":"396.35","velocity":0.33858267716535434,"duration":"0.10"},{"name":"E6","midi":88,"time":"396.35","velocity":0.1889763779527559,"duration":"0.06"},{"name":"C#5","midi":73,"time":"396.37","velocity":0.2283464566929134,"duration":"0.03"},{"name":"G6","midi":91,"time":"396.37","velocity":0.1732283464566929,"duration":"0.10"},{"name":"E4","midi":64,"time":"396.38","velocity":0.25196850393700787,"duration":"0.05"},{"name":"E5","midi":76,"time":"396.38","velocity":0.3543307086614173,"duration":"0.15"},{"name":"A5","midi":81,"time":"396.40","velocity":0.25984251968503935,"duration":"0.02"},{"name":"A#1","midi":34,"time":"396.41","velocity":0.2755905511811024,"duration":"0.02"},{"name":"D5","midi":74,"time":"396.41","velocity":0.2125984251968504,"duration":"0.03"},{"name":"F7","midi":101,"time":"396.41","velocity":0.18110236220472442,"duration":"0.10"},{"name":"F#3","midi":54,"time":"396.42","velocity":0.4330708661417323,"duration":"0.10"},{"name":"D6","midi":86,"time":"396.42","velocity":0.2440944881889764,"duration":"0.03"},{"name":"G7","midi":103,"time":"396.42","velocity":0.1889763779527559,"duration":"0.19"},{"name":"B1","midi":35,"time":"396.43","velocity":0.30708661417322836,"duration":"0.02"},{"name":"F4","midi":65,"time":"396.43","velocity":0.2677165354330709,"duration":"0.03"},{"name":"C5","midi":72,"time":"396.45","velocity":0.2440944881889764,"duration":"0.03"},{"name":"F6","midi":89,"time":"396.45","velocity":0.2047244094488189,"duration":"0.05"},{"name":"E4","midi":64,"time":"396.47","velocity":0.3858267716535433,"duration":"0.08"},{"name":"D5","midi":74,"time":"396.47","velocity":0.13385826771653545,"duration":"0.05"},{"name":"A5","midi":81,"time":"396.47","velocity":0.2677165354330709,"duration":"0.06"},{"name":"C#6","midi":85,"time":"396.47","velocity":0.31496062992125984,"duration":"0.35"},{"name":"G#6","midi":92,"time":"396.47","velocity":0.33070866141732286,"duration":"0.05"},{"name":"G5","midi":79,"time":"396.48","velocity":0.23622047244094488,"duration":"0.02"},{"name":"B1","midi":35,"time":"396.49","velocity":0.2677165354330709,"duration":"0.08"},{"name":"B4","midi":71,"time":"396.49","velocity":0.4015748031496063,"duration":"0.17"},{"name":"G#5","midi":80,"time":"396.49","velocity":0.5433070866141733,"duration":"0.56"},{"name":"G#4","midi":68,"time":"396.50","velocity":0.5118110236220472,"duration":"0.15"},{"name":"G6","midi":91,"time":"396.50","velocity":0.11811023622047244,"duration":"0.06"},{"name":"G3","midi":55,"time":"396.52","velocity":0.4094488188976378,"duration":"0.02"},{"name":"D#5","midi":75,"time":"396.52","velocity":0.36220472440944884,"duration":"0.09"},{"name":"D6","midi":86,"time":"396.52","velocity":0.23622047244094488,"duration":"0.07"},{"name":"F7","midi":101,"time":"396.52","velocity":0.2204724409448819,"duration":"0.16"},{"name":"D4","midi":62,"time":"396.55","velocity":0.31496062992125984,"duration":"0.02"},{"name":"A5","midi":81,"time":"396.56","velocity":0.1732283464566929,"duration":"0.03"},{"name":"F#5","midi":78,"time":"396.57","velocity":0.2992125984251969,"duration":"0.08"},{"name":"E5","midi":76,"time":"396.58","velocity":0.2992125984251969,"duration":"0.13"},{"name":"C6","midi":84,"time":"396.59","velocity":0.1889763779527559,"duration":"0.03"},{"name":"G6","midi":91,"time":"396.59","velocity":0.2283464566929134,"duration":"0.13"},{"name":"C3","midi":48,"time":"396.60","velocity":0.5905511811023622,"duration":"0.02"},{"name":"G#3","midi":56,"time":"396.63","velocity":0.5039370078740157,"duration":"0.03"},{"name":"E4","midi":64,"time":"396.64","velocity":0.3937007874015748,"duration":"0.03"},{"name":"F2","midi":41,"time":"396.65","velocity":0.5984251968503937,"duration":"0.01"},{"name":"A4","midi":69,"time":"396.65","velocity":0.44881889763779526,"duration":"0.02"},{"name":"B6","midi":95,"time":"396.65","velocity":0.2283464566929134,"duration":"0.05"},{"name":"G#2","midi":44,"time":"396.66","velocity":0.6220472440944882,"duration":"0.02"},{"name":"D5","midi":74,"time":"396.66","velocity":0.30708661417322836,"duration":"0.03"},{"name":"G#4","midi":68,"time":"396.67","velocity":0.41732283464566927,"duration":"0.02"},{"name":"B5","midi":83,"time":"396.67","velocity":0.33858267716535434,"duration":"0.20"},{"name":"F#1","midi":30,"time":"396.69","velocity":0.5354330708661418,"duration":"0.01"},{"name":"B4","midi":71,"time":"396.69","velocity":0.33858267716535434,"duration":"0.12"},{"name":"F1","midi":29,"time":"396.70","velocity":0.5826771653543307,"duration":"0.01"},{"name":"A4","midi":69,"time":"396.70","velocity":0.4251968503937008,"duration":"0.02"},{"name":"C#5","midi":73,"time":"396.70","velocity":0.15748031496062992,"duration":"0.05"},{"name":"A#5","midi":82,"time":"396.70","velocity":0.1889763779527559,"duration":"0.05"},{"name":"G#1","midi":32,"time":"396.71","velocity":0.5669291338582677,"duration":"0.01"},{"name":"C3","midi":48,"time":"396.71","velocity":0.6062992125984252,"duration":"0.03"},{"name":"G#3","midi":56,"time":"396.71","velocity":0.3937007874015748,"duration":"0.05"},{"name":"E4","midi":64,"time":"396.71","velocity":0.2283464566929134,"duration":"0.02"},{"name":"F6","midi":89,"time":"396.71","velocity":0.13385826771653545,"duration":"0.03"},{"name":"B1","midi":35,"time":"396.72","velocity":0.5590551181102362,"duration":"0.01"},{"name":"G#4","midi":68,"time":"396.72","velocity":0.5118110236220472,"duration":"0.08"},{"name":"F7","midi":101,"time":"396.72","velocity":0.18110236220472442,"duration":"0.17"},{"name":"C#4","midi":61,"time":"396.73","velocity":0.2755905511811024,"duration":"0.10"},{"name":"E5","midi":76,"time":"396.73","velocity":0.3700787401574803,"duration":"0.20"},{"name":"D#6","midi":87,"time":"396.73","velocity":0.3700787401574803,"duration":"0.17"},{"name":"C#3","midi":49,"time":"396.74","velocity":0.5433070866141733,"duration":"0.23"},{"name":"E4","midi":64,"time":"396.74","velocity":0.3700787401574803,"duration":"0.65"},{"name":"D6","midi":86,"time":"396.77","velocity":0.2283464566929134,"duration":"0.07"},{"name":"D7","midi":98,"time":"396.77","velocity":0.23622047244094488,"duration":"0.53"},{"name":"B1","midi":35,"time":"396.78","velocity":0.33858267716535434,"duration":"0.05"},{"name":"F6","midi":89,"time":"396.78","velocity":0.10236220472440945,"duration":"0.03"},{"name":"G#3","midi":56,"time":"396.79","velocity":0.3937007874015748,"duration":"0.09"},{"name":"C5","midi":72,"time":"396.80","velocity":0.2677165354330709,"duration":"0.06"},{"name":"A6","midi":93,"time":"396.80","velocity":0.16535433070866143,"duration":"0.03"},{"name":"G7","midi":103,"time":"396.80","velocity":0.12598425196850394,"duration":"0.03"},{"name":"G#4","midi":68,"time":"396.81","velocity":0.5905511811023622,"duration":"0.20"},{"name":"C#6","midi":85,"time":"396.83","velocity":0.33070866141732286,"duration":"0.19"},{"name":"F#5","midi":78,"time":"396.84","velocity":0.16535433070866143,"duration":"0.05"},{"name":"G6","midi":91,"time":"396.84","velocity":0.16535433070866143,"duration":"0.06"},{"name":"C#5","midi":73,"time":"396.85","velocity":0.2125984251968504,"duration":"0.07"},{"name":"A#1","midi":34,"time":"396.86","velocity":0.3228346456692913,"duration":"0.02"},{"name":"B4","midi":71,"time":"396.86","velocity":0.2992125984251969,"duration":"0.17"},{"name":"C6","midi":84,"time":"396.87","velocity":0.13385826771653545,"duration":"0.05"},{"name":"D6","midi":86,"time":"396.87","velocity":0.2283464566929134,"duration":"0.08"},{"name":"F#6","midi":90,"time":"396.88","velocity":0.25196850393700787,"duration":"0.13"},{"name":"G#3","midi":56,"time":"396.90","velocity":0.3858267716535433,"duration":"0.08"},{"name":"G6","midi":91,"time":"396.91","velocity":0.18110236220472442,"duration":"0.07"},{"name":"D#6","midi":87,"time":"396.92","velocity":0.3700787401574803,"duration":"0.41"},{"name":"A6","midi":93,"time":"396.92","velocity":0.11811023622047244,"duration":"0.06"},{"name":"F5","midi":77,"time":"396.93","velocity":0.2992125984251969,"duration":"0.09"},{"name":"C7","midi":96,"time":"396.93","velocity":0.30708661417322836,"duration":"0.67"},{"name":"D#5","midi":75,"time":"396.94","velocity":0.3228346456692913,"duration":"0.13"},{"name":"D3","midi":50,"time":"396.98","velocity":0.5511811023622047,"duration":"0.03"},{"name":"A3","midi":57,"time":"396.98","velocity":0.33070866141732286,"duration":"0.02"},{"name":"C#4","midi":61,"time":"396.99","velocity":0.2283464566929134,"duration":"0.02"},{"name":"G6","midi":91,"time":"396.99","velocity":0.15748031496062992,"duration":"0.20"},{"name":"F7","midi":101,"time":"396.99","velocity":0.2204724409448819,"duration":"0.08"},{"name":"D6","midi":86,"time":"397.00","velocity":0.28346456692913385,"duration":"0.03"},{"name":"A6","midi":93,"time":"397.00","velocity":0.1732283464566929,"duration":"0.06"},{"name":"C#3","midi":49,"time":"397.01","velocity":0.5748031496062992,"duration":"0.35"},{"name":"A4","midi":69,"time":"397.01","velocity":0.4094488188976378,"duration":"0.02"},{"name":"F#5","midi":78,"time":"397.01","velocity":0.3779527559055118,"duration":"0.42"},{"name":"C#6","midi":85,"time":"397.02","velocity":0.29133858267716534,"duration":"0.17"},{"name":"C#7","midi":97,"time":"397.02","velocity":0.33858267716535434,"duration":"1.45"},{"name":"G#4","midi":68,"time":"397.03","velocity":0.5669291338582677,"duration":"0.07"},{"name":"A#4","midi":70,"time":"397.03","velocity":0.23622047244094488,"duration":"0.02"},{"name":"C5","midi":72,"time":"397.03","velocity":0.2047244094488189,"duration":"0.03"},{"name":"G7","midi":103,"time":"397.03","velocity":0.16535433070866143,"duration":"0.06"},{"name":"G#3","midi":56,"time":"397.05","velocity":0.4645669291338583,"duration":"0.35"},{"name":"C6","midi":84,"time":"397.07","velocity":0.1889763779527559,"duration":"0.05"},{"name":"A6","midi":93,"time":"397.07","velocity":0.15748031496062992,"duration":"0.09"},{"name":"B5","midi":83,"time":"397.09","velocity":0.3700787401574803,"duration":"1.44"},{"name":"G#4","midi":68,"time":"397.12","velocity":0.5354330708661418,"duration":"0.15"},{"name":"D#5","midi":75,"time":"397.12","velocity":0.2440944881889764,"duration":"0.05"},{"name":"F5","midi":77,"time":"397.13","velocity":0.2440944881889764,"duration":"0.05"},{"name":"D6","midi":86,"time":"397.13","velocity":0.18110236220472442,"duration":"0.09"},{"name":"F7","midi":101,"time":"397.15","velocity":0.2047244094488189,"duration":"0.19"},{"name":"B4","midi":71,"time":"397.17","velocity":0.4645669291338583,"duration":"0.26"},{"name":"A5","midi":81,"time":"397.17","velocity":0.2047244094488189,"duration":"0.05"},{"name":"C#6","midi":85,"time":"397.21","velocity":0.1889763779527559,"duration":"0.03"},{"name":"D6","midi":86,"time":"397.23","velocity":0.1889763779527559,"duration":"0.05"},{"name":"G7","midi":103,"time":"397.23","velocity":0.15748031496062992,"duration":"0.08"},{"name":"G4","midi":67,"time":"397.26","velocity":0.44881889763779526,"duration":"0.02"},{"name":"C#6","midi":85,"time":"397.27","velocity":0.3464566929133858,"duration":"0.15"},{"name":"G6","midi":91,"time":"397.28","velocity":0.09448818897637795,"duration":"0.03"},{"name":"D7","midi":98,"time":"397.31","velocity":0.15748031496062992,"duration":"0.06"},{"name":"G#4","midi":68,"time":"397.34","velocity":0.5748031496062992,"duration":"0.08"},{"name":"A5","midi":81,"time":"397.34","velocity":0.2677165354330709,"duration":"0.02"},{"name":"D#6","midi":87,"time":"397.34","velocity":0.33070866141732286,"duration":"0.15"},{"name":"D3","midi":50,"time":"397.36","velocity":0.5118110236220472,"duration":"0.01"},{"name":"G7","midi":103,"time":"397.36","velocity":0.25984251968503935,"duration":"0.09"},{"name":"F7","midi":101,"time":"397.37","velocity":0.2125984251968504,"duration":"0.20"},{"name":"C#5","midi":73,"time":"397.38","velocity":0.4094488188976378,"duration":"0.05"},{"name":"G6","midi":91,"time":"397.38","velocity":0.2125984251968504,"duration":"0.09"},{"name":"D7","midi":98,"time":"397.38","velocity":0.3228346456692913,"duration":"0.78"},{"name":"A3","midi":57,"time":"397.40","velocity":0.4566929133858268,"duration":"0.03"},{"name":"E5","midi":76,"time":"397.40","velocity":0.4881889763779528,"duration":"0.05"},{"name":"A#6","midi":94,"time":"397.40","velocity":0.29133858267716534,"duration":"0.24"},{"name":"F6","midi":89,"time":"397.41","velocity":0.2440944881889764,"duration":"0.14"},{"name":"A6","midi":93,"time":"397.41","velocity":0.25196850393700787,"duration":"0.10"},{"name":"A4","midi":69,"time":"397.42","velocity":0.5590551181102362,"duration":"0.03"},{"name":"D#5","midi":75,"time":"397.42","velocity":0.3464566929133858,"duration":"0.03"},{"name":"G5","midi":79,"time":"397.42","velocity":0.2755905511811024,"duration":"0.02"},{"name":"C6","midi":84,"time":"397.42","velocity":0.3543307086614173,"duration":"0.02"},{"name":"C#3","midi":49,"time":"397.43","velocity":0.5354330708661418,"duration":"0.34"},{"name":"G#3","midi":56,"time":"397.43","velocity":0.4251968503937008,"duration":"0.03"},{"name":"C4","midi":60,"time":"397.43","velocity":0.4566929133858268,"duration":"0.03"},{"name":"G#4","midi":68,"time":"397.44","velocity":0.5039370078740157,"duration":"0.05"},{"name":"F5","midi":77,"time":"397.44","velocity":0.3228346456692913,"duration":"0.02"},{"name":"A#5","midi":82,"time":"397.44","velocity":0.2440944881889764,"duration":"0.02"},{"name":"D6","midi":86,"time":"397.44","velocity":0.3228346456692913,"duration":"0.24"},{"name":"F4","midi":65,"time":"397.45","velocity":0.4409448818897638,"duration":"0.02"},{"name":"B4","midi":71,"time":"397.45","velocity":0.2440944881889764,"duration":"0.02"},{"name":"E5","midi":76,"time":"397.45","velocity":0.3937007874015748,"duration":"0.03"},{"name":"C#5","midi":73,"time":"397.47","velocity":0.30708661417322836,"duration":"0.16"},{"name":"D#5","midi":75,"time":"397.47","velocity":0.3937007874015748,"duration":"0.05"},{"name":"F#6","midi":90,"time":"397.47","velocity":0.2992125984251969,"duration":"0.31"},{"name":"A#3","midi":58,"time":"397.48","velocity":0.3543307086614173,"duration":"0.02"},{"name":"F5","midi":77,"time":"397.48","velocity":0.29133858267716534,"duration":"0.03"},{"name":"G4","midi":67,"time":"397.49","velocity":0.4094488188976378,"duration":"0.02"},{"name":"G7","midi":103,"time":"397.49","velocity":0.08661417322834646,"duration":"0.03"},{"name":"C#2","midi":37,"time":"397.50","velocity":0.2440944881889764,"duration":"0.06"},{"name":"E4","midi":64,"time":"397.50","velocity":0.4645669291338583,"duration":"0.80"},{"name":"D#6","midi":87,"time":"397.50","velocity":0.4251968503937008,"duration":"1.10"},{"name":"A#3","midi":58,"time":"397.51","velocity":0.31496062992125984,"duration":"0.02"},{"name":"G#4","midi":68,"time":"397.51","velocity":0.5039370078740157,"duration":"0.10"},{"name":"A6","midi":93,"time":"397.52","velocity":0.16535433070866143,"duration":"0.07"},{"name":"A3","midi":57,"time":"397.53","velocity":0.3937007874015748,"duration":"0.02"},{"name":"G7","midi":103,"time":"397.55","velocity":0.12598425196850394,"duration":"0.03"},{"name":"F5","midi":77,"time":"397.56","velocity":0.2125984251968504,"duration":"0.03"},{"name":"C6","midi":84,"time":"397.57","velocity":0.25984251968503935,"duration":"0.03"},{"name":"C2","midi":36,"time":"397.58","velocity":0.25196850393700787,"duration":"0.02"},{"name":"A3","midi":57,"time":"397.58","velocity":0.3543307086614173,"duration":"0.02"},{"name":"F#5","midi":78,"time":"397.58","velocity":0.1732283464566929,"duration":"0.05"},{"name":"C5","midi":72,"time":"397.59","velocity":0.2440944881889764,"duration":"0.05"},{"name":"A6","midi":93,"time":"397.60","velocity":0.1732283464566929,"duration":"0.07"},{"name":"A4","midi":69,"time":"397.62","velocity":0.4645669291338583,"duration":"0.03"},{"name":"G7","midi":103,"time":"397.62","velocity":0.1732283464566929,"duration":"0.12"},{"name":"C2","midi":36,"time":"397.63","velocity":0.25984251968503935,"duration":"0.03"},{"name":"A3","midi":57,"time":"397.63","velocity":0.36220472440944884,"duration":"0.03"},{"name":"G6","midi":91,"time":"397.63","velocity":0.16535433070866143,"duration":"0.03"},{"name":"C7","midi":96,"time":"397.63","velocity":0.30708661417322836,"duration":"1.28"},{"name":"C6","midi":84,"time":"397.64","velocity":0.1732283464566929,"duration":"0.03"},{"name":"G#4","midi":68,"time":"397.65","velocity":0.5433070866141733,"duration":"0.05"},{"name":"D#5","midi":75,"time":"397.65","velocity":0.29133858267716534,"duration":"0.05"},{"name":"A#6","midi":94,"time":"397.65","velocity":0.23622047244094488,"duration":"0.24"},{"name":"F7","midi":101,"time":"397.65","velocity":0.15748031496062992,"duration":"0.26"},{"name":"C#6","midi":85,"time":"397.67","velocity":0.31496062992125984,"duration":"0.30"},{"name":"F6","midi":89,"time":"397.67","velocity":0.09448818897637795,"duration":"0.03"},{"name":"A3","midi":57,"time":"397.69","velocity":0.4015748031496063,"duration":"0.03"},{"name":"A6","midi":93,"time":"397.69","velocity":0.08661417322834646,"duration":"0.08"},{"name":"G4","midi":67,"time":"397.70","velocity":0.3779527559055118,"duration":"0.02"},{"name":"C#2","midi":37,"time":"397.72","velocity":0.25984251968503935,"duration":"0.02"},{"name":"G#4","midi":68,"time":"397.72","velocity":0.6141732283464567,"duration":"0.08"},{"name":"C2","midi":36,"time":"397.74","velocity":0.36220472440944884,"duration":"0.02"},{"name":"F6","midi":89,"time":"397.74","velocity":0.2047244094488189,"duration":"0.09"},{"name":"C5","midi":72,"time":"397.76","velocity":0.2283464566929134,"duration":"0.02"},{"name":"G7","midi":103,"time":"397.76","velocity":0.2204724409448819,"duration":"0.07"},{"name":"F#5","midi":78,"time":"397.77","velocity":0.25984251968503935,"duration":"0.12"},{"name":"G6","midi":91,"time":"397.77","velocity":0.2125984251968504,"duration":"0.06"},{"name":"C3","midi":48,"time":"397.78","velocity":0.5118110236220472,"duration":"0.01"},{"name":"D#5","midi":75,"time":"397.78","velocity":0.2992125984251969,"duration":"0.05"},{"name":"A6","midi":93,"time":"397.78","velocity":0.25196850393700787,"duration":"0.48"},{"name":"C#3","midi":49,"time":"397.79","velocity":0.5354330708661418,"duration":"0.34"},{"name":"G#3","midi":56,"time":"397.79","velocity":0.4645669291338583,"duration":"0.09"},{"name":"F#6","midi":90,"time":"397.79","velocity":0.31496062992125984,"duration":"1.12"},{"name":"B4","midi":71,"time":"397.80","velocity":0.3858267716535433,"duration":"0.19"},{"name":"D6","midi":86,"time":"397.80","velocity":0.36220472440944884,"duration":"0.33"},{"name":"G#4","midi":68,"time":"397.81","velocity":0.5669291338582677,"duration":"0.14"},{"name":"G6","midi":91,"time":"397.84","velocity":0.2125984251968504,"duration":"0.05"},{"name":"D#5","midi":75,"time":"397.85","velocity":0.25196850393700787,"duration":"0.07"},{"name":"F5","midi":77,"time":"397.87","velocity":0.28346456692913385,"duration":"0.10"},{"name":"G#3","midi":56,"time":"397.90","velocity":0.44881889763779526,"duration":"0.24"},{"name":"F#5","midi":78,"time":"397.90","velocity":0.25196850393700787,"duration":"0.12"},{"name":"A5","midi":81,"time":"397.90","velocity":0.2204724409448819,"duration":"0.09"},{"name":"G6","midi":91,"time":"397.90","velocity":0.23622047244094488,"duration":"0.17"},{"name":"A#6","midi":94,"time":"397.91","velocity":0.2283464566929134,"duration":"0.26"},{"name":"F7","midi":101,"time":"397.92","velocity":0.1732283464566929,"duration":"0.09"},{"name":"C6","midi":84,"time":"397.99","velocity":0.1889763779527559,"duration":"0.03"},{"name":"C#6","midi":85,"time":"397.99","velocity":0.30708661417322836,"duration":"0.27"},{"name":"B4","midi":71,"time":"398.00","velocity":0.29133858267716534,"duration":"0.16"},{"name":"A5","midi":81,"time":"398.00","velocity":0.16535433070866143,"duration":"0.03"},{"name":"G#4","midi":68,"time":"398.02","velocity":0.5511811023622047,"duration":"0.52"},{"name":"F#5","midi":78,"time":"398.03","velocity":0.15748031496062992,"duration":"0.06"},{"name":"F7","midi":101,"time":"398.05","velocity":0.2204724409448819,"duration":"0.23"},{"name":"C#2","midi":37,"time":"398.06","velocity":0.23622047244094488,"duration":"0.02"},{"name":"C6","midi":84,"time":"398.07","velocity":0.14173228346456693,"duration":"0.05"},{"name":"D#5","midi":75,"time":"398.09","velocity":0.3464566929133858,"duration":"0.07"},{"name":"G7","midi":103,"time":"398.10","velocity":0.2125984251968504,"duration":"0.26"},{"name":"F#5","midi":78,"time":"398.12","velocity":0.33070866141732286,"duration":"0.05"},{"name":"G6","midi":91,"time":"398.12","velocity":0.11811023622047244,"duration":"0.06"},{"name":"D3","midi":50,"time":"398.13","velocity":0.41732283464566927,"duration":"0.02"},{"name":"C#4","midi":61,"time":"398.14","velocity":0.3937007874015748,"duration":"0.02"},{"name":"E2","midi":40,"time":"398.15","velocity":0.5748031496062992,"duration":"0.01"},{"name":"F2","midi":41,"time":"398.16","velocity":0.6299212598425197,"duration":"0.01"},{"name":"D#3","midi":51,"time":"398.16","velocity":0.5433070866141733,"duration":"0.01"},{"name":"D5","midi":74,"time":"398.16","velocity":0.31496062992125984,"duration":"0.03"},{"name":"C3","midi":48,"time":"398.17","velocity":0.5748031496062992,"duration":"0.02"},{"name":"B4","midi":71,"time":"398.17","velocity":0.29133858267716534,"duration":"0.05"},{"name":"G5","midi":79,"time":"398.17","velocity":0.2204724409448819,"duration":"0.05"},{"name":"A#6","midi":94,"time":"398.17","velocity":0.1889763779527559,"duration":"0.19"},{"name":"D7","midi":98,"time":"398.17","velocity":0.2283464566929134,"duration":"0.47"},{"name":"G1","midi":31,"time":"398.19","velocity":0.5433070866141733,"duration":"0.01"},{"name":"F#1","midi":30,"time":"398.20","velocity":0.5905511811023622,"duration":"0.02"},{"name":"D3","midi":50,"time":"398.20","velocity":0.49606299212598426,"duration":"0.02"},{"name":"C#4","midi":61,"time":"398.21","velocity":0.2677165354330709,"duration":"0.03"},{"name":"D6","midi":86,"time":"398.21","velocity":0.23622047244094488,"duration":"0.10"},{"name":"C#3","midi":49,"time":"398.22","velocity":0.5433070866141733,"duration":"0.01"},{"name":"C3","midi":48,"time":"398.23","velocity":0.5354330708661418,"duration":"0.01"},{"name":"G6","midi":91,"time":"398.23","velocity":0.2047244094488189,"duration":"0.06"},{"name":"G#3","midi":56,"time":"398.24","velocity":0.30708661417322836,"duration":"0.02"},{"name":"B4","midi":71,"time":"398.24","velocity":0.2755905511811024,"duration":"0.08"},{"name":"A5","midi":81,"time":"398.24","velocity":0.23622047244094488,"duration":"0.05"},{"name":"C3","midi":48,"time":"398.26","velocity":0.5039370078740157,"duration":"0.02"},{"name":"C#4","midi":61,"time":"398.26","velocity":0.2677165354330709,"duration":"0.05"},{"name":"C#6","midi":85,"time":"398.27","velocity":0.3700787401574803,"duration":"0.23"},{"name":"F6","midi":89,"time":"398.27","velocity":0.14173228346456693,"duration":"0.05"},{"name":"C#3","midi":49,"time":"398.28","velocity":0.5433070866141733,"duration":"0.23"},{"name":"D#5","midi":75,"time":"398.30","velocity":0.2992125984251969,"duration":"0.02"},{"name":"F#5","midi":78,"time":"398.30","velocity":0.23622047244094488,"duration":"0.05"},{"name":"F7","midi":101,"time":"398.30","velocity":0.14960629921259844,"duration":"0.07"},{"name":"G#3","midi":56,"time":"398.31","velocity":0.3464566929133858,"duration":"0.02"},{"name":"E4","midi":64,"time":"398.31","velocity":0.3228346456692913,"duration":"0.19"},{"name":"C5","midi":72,"time":"398.31","velocity":0.1732283464566929,"duration":"0.03"},{"name":"E5","midi":76,"time":"398.33","velocity":0.33070866141732286,"duration":"0.09"},{"name":"G6","midi":91,"time":"398.33","velocity":0.1968503937007874,"duration":"0.13"},{"name":"C#5","midi":73,"time":"398.34","velocity":0.2755905511811024,"duration":"0.08"},{"name":"F6","midi":89,"time":"398.34","velocity":0.10236220472440945,"duration":"0.07"},{"name":"B4","midi":71,"time":"398.35","velocity":0.1889763779527559,"duration":"0.03"},{"name":"F#5","midi":78,"time":"398.36","velocity":0.2204724409448819,"duration":"0.03"},{"name":"G#3","midi":56,"time":"398.38","velocity":0.3858267716535433,"duration":"0.06"},{"name":"D6","midi":86,"time":"398.38","velocity":0.2047244094488189,"duration":"0.03"},{"name":"A6","midi":93,"time":"398.38","velocity":0.11811023622047244,"duration":"0.03"},{"name":"F7","midi":101,"time":"398.40","velocity":0.1968503937007874,"duration":"0.27"},{"name":"C5","midi":72,"time":"398.41","velocity":0.28346456692913385,"duration":"0.02"},{"name":"F5","midi":77,"time":"398.42","velocity":0.30708661417322836,"duration":"0.02"},{"name":"E5","midi":76,"time":"398.43","velocity":0.36220472440944884,"duration":"0.10"},{"name":"A#6","midi":94,"time":"398.43","velocity":0.33070866141732286,"duration":"0.66"},{"name":"G7","midi":103,"time":"398.43","velocity":0.2204724409448819,"duration":"0.27"},{"name":"F6","midi":89,"time":"398.44","velocity":0.11023622047244094,"duration":"0.05"},{"name":"B1","midi":35,"time":"398.45","velocity":0.3543307086614173,"duration":"0.05"},{"name":"G#3","midi":56,"time":"398.45","velocity":0.3700787401574803,"duration":"0.06"},{"name":"B4","midi":71,"time":"398.45","velocity":0.3228346456692913,"duration":"0.30"},{"name":"D6","midi":86,"time":"398.45","velocity":0.33070866141732286,"duration":"0.20"},{"name":"A6","midi":93,"time":"398.45","velocity":0.12598425196850394,"duration":"0.03"},{"name":"G6","midi":91,"time":"398.49","velocity":0.2047244094488189,"duration":"0.06"},{"name":"C#7","midi":97,"time":"398.49","velocity":0.41732283464566927,"duration":"11.34"},{"name":"C#2","midi":37,"time":"398.52","velocity":0.5354330708661418,"duration":"0.01"},{"name":"E4","midi":64,"time":"398.52","velocity":0.3464566929133858,"duration":"0.02"},{"name":"D#5","midi":75,"time":"398.52","velocity":0.2755905511811024,"duration":"0.03"},{"name":"E2","midi":40,"time":"398.53","velocity":0.6456692913385826,"duration":"0.01"},{"name":"F5","midi":77,"time":"398.53","velocity":0.2440944881889764,"duration":"0.02"},{"name":"A#5","midi":82,"time":"398.53","velocity":0.14960629921259844,"duration":"0.03"},{"name":"C6","midi":84,"time":"398.53","velocity":0.2755905511811024,"duration":"0.02"},{"name":"C#6","midi":85,"time":"398.53","velocity":0.2992125984251969,"duration":"0.06"},{"name":"A6","midi":93,"time":"398.53","velocity":0.1968503937007874,"duration":"0.06"},{"name":"F2","midi":41,"time":"398.55","velocity":0.5748031496062992,"duration":"0.01"},{"name":"C#5","midi":73,"time":"398.55","velocity":0.29133858267716534,"duration":"0.05"},{"name":"B5","midi":83,"time":"398.55","velocity":0.3937007874015748,"duration":"0.43"},{"name":"G#4","midi":68,"time":"398.56","velocity":0.6062992125984252,"duration":"0.38"},{"name":"A5","midi":81,"time":"398.56","velocity":0.1732283464566929,"duration":"0.06"},{"name":"G#3","midi":56,"time":"398.57","velocity":0.3937007874015748,"duration":"0.29"},{"name":"G6","midi":91,"time":"398.57","velocity":0.13385826771653545,"duration":"0.07"},{"name":"C3","midi":48,"time":"398.58","velocity":0.5669291338582677,"duration":"0.02"},{"name":"E4","midi":64,"time":"398.58","velocity":0.3228346456692913,"duration":"0.07"},{"name":"B1","midi":35,"time":"398.59","velocity":0.5275590551181102,"duration":"0.01"},{"name":"C#3","midi":49,"time":"398.60","velocity":0.5196850393700787,"duration":"0.27"},{"name":"F#5","midi":78,"time":"398.60","velocity":0.2283464566929134,"duration":"0.16"},{"name":"C#6","midi":85,"time":"398.60","velocity":0.25984251968503935,"duration":"0.08"},{"name":"D#5","midi":75,"time":"398.62","velocity":0.28346456692913385,"duration":"0.06"},{"name":"D#6","midi":87,"time":"398.62","velocity":0.36220472440944884,"duration":"0.29"},{"name":"C2","midi":36,"time":"398.64","velocity":0.36220472440944884,"duration":"0.02"},{"name":"C6","midi":84,"time":"398.65","velocity":0.11023622047244094,"duration":"0.05"},{"name":"G6","midi":91,"time":"398.65","velocity":0.14173228346456693,"duration":"0.05"},{"name":"D7","midi":98,"time":"398.65","velocity":0.2283464566929134,"duration":"0.06"},{"name":"E5","midi":76,"time":"398.66","velocity":0.33858267716535434,"duration":"0.16"},{"name":"F7","midi":101,"time":"398.69","velocity":0.2047244094488189,"duration":"0.07"},{"name":"C#6","midi":85,"time":"398.70","velocity":0.33070866141732286,"duration":"0.07"},{"name":"E4","midi":64,"time":"398.71","velocity":0.2440944881889764,"duration":"0.02"},{"name":"G6","midi":91,"time":"398.72","velocity":0.12598425196850394,"duration":"0.08"},{"name":"A6","midi":93,"time":"398.72","velocity":0.14960629921259844,"duration":"0.03"},{"name":"D7","midi":98,"time":"398.72","velocity":0.25196850393700787,"duration":"0.08"},{"name":"G7","midi":103,"time":"398.72","velocity":0.16535433070866143,"duration":"0.10"},{"name":"F6","midi":89,"time":"398.76","velocity":0.11811023622047244,"duration":"0.05"},{"name":"D6","midi":86,"time":"398.77","velocity":0.23622047244094488,"duration":"0.07"},{"name":"C#2","midi":37,"time":"398.78","velocity":0.30708661417322836,"duration":"0.03"},{"name":"A6","midi":93,"time":"398.78","velocity":0.1732283464566929,"duration":"0.09"},{"name":"F7","midi":101,"time":"398.78","velocity":0.1732283464566929,"duration":"0.07"},{"name":"C#6","midi":85,"time":"398.79","velocity":0.29133858267716534,"duration":"0.14"},{"name":"B4","midi":71,"time":"398.81","velocity":0.1968503937007874,"duration":"0.05"},{"name":"D#5","midi":75,"time":"398.81","velocity":0.29133858267716534,"duration":"0.03"},{"name":"F5","midi":77,"time":"398.83","velocity":0.28346456692913385,"duration":"0.02"},{"name":"A5","midi":81,"time":"398.83","velocity":0.23622047244094488,"duration":"0.03"},{"name":"E5","midi":76,"time":"398.85","velocity":0.3858267716535433,"duration":"0.08"},{"name":"D6","midi":86,"time":"398.85","velocity":0.2283464566929134,"duration":"0.05"},{"name":"D7","midi":98,"time":"398.86","velocity":0.25196850393700787,"duration":"0.41"},{"name":"D3","midi":50,"time":"398.87","velocity":0.5275590551181102,"duration":"0.02"},{"name":"C6","midi":84,"time":"398.87","velocity":0.14173228346456693,"duration":"0.03"},{"name":"G6","midi":91,"time":"398.87","velocity":0.2755905511811024,"duration":"0.06"},{"name":"E4","midi":64,"time":"398.88","velocity":0.33858267716535434,"duration":"0.02"},{"name":"C5","midi":72,"time":"398.88","velocity":0.25984251968503935,"duration":"0.02"},{"name":"A6","midi":93,"time":"398.88","velocity":0.25196850393700787,"duration":"0.23"},{"name":"C4","midi":60,"time":"398.90","velocity":0.47244094488188976,"duration":"0.02"},{"name":"C#5","midi":73,"time":"398.90","velocity":0.33858267716535434,"duration":"0.03"},{"name":"F7","midi":101,"time":"398.90","velocity":0.2204724409448819,"duration":"0.19"},{"name":"F#5","midi":78,"time":"398.91","velocity":0.3543307086614173,"duration":"0.09"},{"name":"A5","midi":81,"time":"398.91","velocity":0.36220472440944884,"duration":"0.03"},{"name":"D6","midi":86,"time":"398.91","velocity":0.30708661417322836,"duration":"0.09"},{"name":"F6","midi":89,"time":"398.91","velocity":0.23622047244094488,"duration":"0.06"},{"name":"G#3","midi":56,"time":"398.92","velocity":0.3858267716535433,"duration":"0.05"},{"name":"D4","midi":62,"time":"398.92","velocity":0.44881889763779526,"duration":"0.03"},{"name":"D#5","midi":75,"time":"398.92","velocity":0.3543307086614173,"duration":"0.03"},{"name":"C7","midi":96,"time":"398.92","velocity":0.2204724409448819,"duration":"0.24"},{"name":"D#2","midi":39,"time":"398.93","velocity":0.36220472440944884,"duration":"0.02"},{"name":"C#3","midi":49,"time":"398.93","velocity":0.5275590551181102,"duration":"0.30"},{"name":"A4","midi":69,"time":"398.93","velocity":0.5118110236220472,"duration":"0.01"},{"name":"E5","midi":76,"time":"398.94","velocity":0.3228346456692913,"duration":"0.02"},{"name":"A#5","midi":82,"time":"398.94","velocity":0.18110236220472442,"duration":"0.05"},{"name":"G#4","midi":68,"time":"398.95","velocity":0.5433070866141733,"duration":"0.16"},{"name":"B4","midi":71,"time":"398.95","velocity":0.2677165354330709,"duration":"0.02"},{"name":"D#6","midi":87,"time":"398.95","velocity":0.4094488188976378,"duration":"0.20"},{"name":"G6","midi":91,"time":"398.95","velocity":0.2125984251968504,"duration":"0.08"},{"name":"G3","midi":55,"time":"398.97","velocity":0.3543307086614173,"duration":"0.02"},{"name":"E4","midi":64,"time":"398.97","velocity":0.30708661417322836,"duration":"0.03"},{"name":"D#5","midi":75,"time":"398.97","velocity":0.31496062992125984,"duration":"0.06"},{"name":"C#2","midi":37,"time":"398.99","velocity":0.33858267716535434,"duration":"0.07"},{"name":"A3","midi":57,"time":"398.99","velocity":0.4251968503937008,"duration":"0.02"},{"name":"B4","midi":71,"time":"398.99","velocity":0.33858267716535434,"duration":"0.38"},{"name":"F5","midi":77,"time":"398.99","velocity":0.25196850393700787,"duration":"0.07"},{"name":"C#6","midi":85,"time":"398.99","velocity":0.15748031496062992,"duration":"0.05"},{"name":"F#6","midi":90,"time":"398.99","velocity":0.3858267716535433,"duration":"0.71"},{"name":"F4","midi":65,"time":"399.00","velocity":0.1889763779527559,"duration":"0.03"},{"name":"A#5","midi":82,"time":"399.00","velocity":0.13385826771653545,"duration":"0.05"},{"name":"A5","midi":81,"time":"399.02","velocity":0.2047244094488189,"duration":"0.07"},{"name":"D6","midi":86,"time":"399.02","velocity":0.3464566929133858,"duration":"0.17"},{"name":"G#3","midi":56,"time":"399.03","velocity":0.4251968503937008,"duration":"0.02"},{"name":"D#5","midi":75,"time":"399.03","velocity":0.2440944881889764,"duration":"0.07"},{"name":"C6","midi":84,"time":"399.03","velocity":0.2204724409448819,"duration":"0.06"},{"name":"G5","midi":79,"time":"399.05","velocity":0.2755905511811024,"duration":"0.02"},{"name":"G7","midi":103,"time":"399.05","velocity":0.2283464566929134,"duration":"0.13"},{"name":"G3","midi":55,"time":"399.06","velocity":0.4094488188976378,"duration":"0.02"},{"name":"F#5","midi":78,"time":"399.06","velocity":0.1732283464566929,"duration":"0.03"},{"name":"C#2","midi":37,"time":"399.07","velocity":0.33070866141732286,"duration":"0.02"},{"name":"E4","midi":64,"time":"399.07","velocity":0.2755905511811024,"duration":"0.09"},{"name":"G#5","midi":80,"time":"399.07","velocity":0.5905511811023622,"duration":"0.43"},{"name":"A3","midi":57,"time":"399.08","velocity":0.4251968503937008,"duration":"0.02"},{"name":"F6","midi":89,"time":"399.09","velocity":0.2047244094488189,"duration":"0.07"},{"name":"G6","midi":91,"time":"399.09","velocity":0.23622047244094488,"duration":"0.12"},{"name":"C#2","midi":37,"time":"399.10","velocity":0.2992125984251969,"duration":"0.02"},{"name":"F5","midi":77,"time":"399.10","velocity":0.2125984251968504,"duration":"0.05"},{"name":"A5","midi":81,"time":"399.10","velocity":0.23622047244094488,"duration":"0.03"},{"name":"A#5","midi":82,"time":"399.10","velocity":0.2125984251968504,"duration":"0.05"},{"name":"G4","midi":67,"time":"399.12","velocity":0.3543307086614173,"duration":"0.02"},{"name":"C#5","midi":73,"time":"399.12","velocity":0.2283464566929134,"duration":"0.08"},{"name":"D#5","midi":75,"time":"399.12","velocity":0.2440944881889764,"duration":"0.02"},{"name":"A#6","midi":94,"time":"399.12","velocity":0.2677165354330709,"duration":"0.22"},{"name":"C2","midi":36,"time":"399.13","velocity":0.31496062992125984,"duration":"0.02"},{"name":"G#3","midi":56,"time":"399.13","velocity":0.49606299212598426,"duration":"0.05"},{"name":"F#4","midi":66,"time":"399.14","velocity":0.28346456692913385,"duration":"0.02"},{"name":"G#4","midi":68,"time":"399.14","velocity":0.5826771653543307,"duration":"0.28"},{"name":"E5","midi":76,"time":"399.14","velocity":0.3228346456692913,"duration":"0.05"},{"name":"C6","midi":84,"time":"399.14","velocity":0.11023622047244094,"duration":"0.05"},{"name":"E6","midi":88,"time":"399.14","velocity":0.33070866141732286,"duration":"0.16"},{"name":"C#2","midi":37,"time":"399.15","velocity":0.31496062992125984,"duration":"0.05"},{"name":"D#5","midi":75,"time":"399.15","velocity":0.3700787401574803,"duration":"0.07"},{"name":"D#6","midi":87,"time":"399.16","velocity":0.3779527559055118,"duration":"0.30"},{"name":"C7","midi":96,"time":"399.17","velocity":0.2204724409448819,"duration":"0.13"},{"name":"G#3","midi":56,"time":"399.19","velocity":0.44881889763779526,"duration":"0.07"},{"name":"C#6","midi":85,"time":"399.19","velocity":0.25984251968503935,"duration":"0.13"},{"name":"E5","midi":76,"time":"399.20","velocity":0.3779527559055118,"duration":"0.29"},{"name":"C#2","midi":37,"time":"399.21","velocity":0.31496062992125984,"duration":"0.02"},{"name":"D6","midi":86,"time":"399.21","velocity":0.2125984251968504,"duration":"0.08"},{"name":"C#3","midi":49,"time":"399.24","velocity":0.4251968503937008,"duration":"0.02"},{"name":"G6","midi":91,"time":"399.24","velocity":0.2283464566929134,"duration":"0.13"},{"name":"F4","midi":65,"time":"399.27","velocity":0.2992125984251969,"duration":"0.05"},{"name":"A5","midi":81,"time":"399.27","velocity":0.2992125984251969,"duration":"0.02"},{"name":"A3","midi":57,"time":"399.28","velocity":0.4094488188976378,"duration":"0.03"},{"name":"D2","midi":38,"time":"399.29","velocity":0.3700787401574803,"duration":"0.02"},{"name":"C3","midi":48,"time":"399.29","velocity":0.5118110236220472,"duration":"0.01"},{"name":"C#3","midi":49,"time":"399.30","velocity":0.5275590551181102,"duration":"0.33"},{"name":"C#5","midi":73,"time":"399.30","velocity":0.2440944881889764,"duration":"0.06"},{"name":"C6","midi":84,"time":"399.30","velocity":0.1732283464566929,"duration":"0.06"},{"name":"G#3","midi":56,"time":"399.31","velocity":0.41732283464566927,"duration":"0.05"},{"name":"E4","midi":64,"time":"399.31","velocity":0.41732283464566927,"duration":"0.33"},{"name":"D#5","midi":75,"time":"399.31","velocity":0.2440944881889764,"duration":"0.02"},{"name":"C#2","midi":37,"time":"399.33","velocity":0.28346456692913385,"duration":"0.02"},{"name":"C#6","midi":85,"time":"399.33","velocity":0.2440944881889764,"duration":"0.06"},{"name":"C7","midi":96,"time":"399.33","velocity":0.2992125984251969,"duration":"0.84"},{"name":"A5","midi":81,"time":"399.35","velocity":0.25196850393700787,"duration":"0.02"},{"name":"A3","midi":57,"time":"399.36","velocity":0.3858267716535433,"duration":"0.02"},{"name":"C2","midi":36,"time":"399.37","velocity":0.23622047244094488,"duration":"0.02"},{"name":"C#5","midi":73,"time":"399.38","velocity":0.2283464566929134,"duration":"0.06"},{"name":"A5","midi":81,"time":"399.38","velocity":0.2440944881889764,"duration":"0.02"},{"name":"D6","midi":86,"time":"399.38","velocity":0.33858267716535434,"duration":"0.33"},{"name":"G6","midi":91,"time":"399.38","velocity":0.13385826771653545,"duration":"0.09"},{"name":"A#6","midi":94,"time":"399.38","velocity":0.13385826771653545,"duration":"0.08"},{"name":"B4","midi":71,"time":"399.40","velocity":0.2283464566929134,"duration":"0.03"},{"name":"F7","midi":101,"time":"399.40","velocity":0.15748031496062992,"duration":"0.09"},{"name":"G#3","midi":56,"time":"399.41","velocity":0.4094488188976378,"duration":"0.14"},{"name":"C#2","midi":37,"time":"399.42","velocity":0.25984251968503935,"duration":"0.08"},{"name":"A4","midi":69,"time":"399.42","velocity":0.33858267716535434,"duration":"0.03"},{"name":"B6","midi":95,"time":"399.42","velocity":0.25984251968503935,"duration":"0.73"},{"name":"B5","midi":83,"time":"399.43","velocity":0.33070866141732286,"duration":"0.23"},{"name":"A#4","midi":70,"time":"399.44","velocity":0.15748031496062992,"duration":"0.05"},{"name":"F#5","midi":78,"time":"399.44","velocity":0.2440944881889764,"duration":"0.02"},{"name":"G#4","midi":68,"time":"399.45","velocity":0.5039370078740157,"duration":"0.20"},{"name":"A5","midi":81,"time":"399.47","velocity":0.3543307086614173,"duration":"0.10"},{"name":"F6","midi":89,"time":"399.47","velocity":0.14173228346456693,"duration":"0.05"},{"name":"C#5","midi":73,"time":"399.48","velocity":0.23622047244094488,"duration":"0.17"},{"name":"D#6","midi":87,"time":"399.48","velocity":0.25984251968503935,"duration":"0.21"},{"name":"G7","midi":103,"time":"399.48","velocity":0.2992125984251969,"duration":"0.43"},{"name":"C2","midi":36,"time":"399.50","velocity":0.2677165354330709,"duration":"0.02"},{"name":"B4","midi":71,"time":"399.50","velocity":0.33070866141732286,"duration":"0.13"},{"name":"G5","midi":79,"time":"399.50","velocity":0.23622047244094488,"duration":"0.02"},{"name":"C#6","midi":85,"time":"399.50","velocity":0.2677165354330709,"duration":"0.06"},{"name":"A#6","midi":94,"time":"399.50","velocity":0.2440944881889764,"duration":"0.05"},{"name":"F7","midi":101,"time":"399.50","velocity":0.25196850393700787,"duration":"0.05"},{"name":"D#5","midi":75,"time":"399.51","velocity":0.2125984251968504,"duration":"0.07"},{"name":"C#2","midi":37,"time":"399.52","velocity":0.2755905511811024,"duration":"0.02"},{"name":"C2","midi":36,"time":"399.55","velocity":0.2992125984251969,"duration":"0.02"},{"name":"G#3","midi":56,"time":"399.56","velocity":0.4330708661417323,"duration":"0.08"},{"name":"F7","midi":101,"time":"399.56","velocity":0.2125984251968504,"duration":"0.27"},{"name":"C#2","midi":37,"time":"399.57","velocity":0.29133858267716534,"duration":"0.03"},{"name":"C6","midi":84,"time":"399.57","velocity":0.07874015748031496,"duration":"0.03"},{"name":"G5","midi":79,"time":"399.58","velocity":0.2755905511811024,"duration":"0.03"},{"name":"A#6","midi":94,"time":"399.58","velocity":0.23622047244094488,"duration":"0.13"},{"name":"D#5","midi":75,"time":"399.60","velocity":0.31496062992125984,"duration":"0.09"},{"name":"F5","midi":77,"time":"399.60","velocity":0.2440944881889764,"duration":"0.06"},{"name":"A5","midi":81,"time":"399.60","velocity":0.33858267716535434,"duration":"0.05"},{"name":"F6","midi":89,"time":"399.62","velocity":0.29133858267716534,"duration":"0.26"},{"name":"F#5","midi":78,"time":"399.63","velocity":0.36220472440944884,"duration":"0.03"},{"name":"E7","midi":100,"time":"399.64","velocity":0.1732283464566929,"duration":"0.12"},{"name":"A1","midi":33,"time":"399.65","velocity":0.5196850393700787,"duration":"0.01"},{"name":"F2","midi":41,"time":"399.66","velocity":0.6377952755905512,"duration":"0.03"},{"name":"D#3","midi":51,"time":"399.66","velocity":0.5748031496062992,"duration":"0.02"},{"name":"A3","midi":57,"time":"399.66","velocity":0.4566929133858268,"duration":"0.05"},{"name":"F#4","midi":66,"time":"399.66","velocity":0.4251968503937008,"duration":"0.03"},{"name":"D5","midi":74,"time":"399.66","velocity":0.2755905511811024,"duration":"0.02"},{"name":"C6","midi":84,"time":"399.66","velocity":0.1732283464566929,"duration":"0.03"},{"name":"G#4","midi":68,"time":"399.67","velocity":0.4645669291338583,"duration":"0.02"},{"name":"E5","midi":76,"time":"399.67","velocity":0.2440944881889764,"duration":"0.06"},{"name":"E6","midi":88,"time":"399.67","velocity":0.2992125984251969,"duration":"0.52"},{"name":"D3","midi":50,"time":"399.69","velocity":0.5905511811023622,"duration":"0.33"},{"name":"C#5","midi":73,"time":"399.69","velocity":0.2125984251968504,"duration":"0.03"},{"name":"A5","midi":81,"time":"399.69","velocity":0.4094488188976378,"duration":"0.24"},{"name":"B5","midi":83,"time":"399.69","velocity":0.1889763779527559,"duration":"0.10"},{"name":"G4","midi":67,"time":"399.70","velocity":0.5433070866141733,"duration":"0.13"},{"name":"F#5","midi":78,"time":"399.70","velocity":0.4251968503937008,"duration":"0.37"},{"name":"C#6","midi":85,"time":"399.70","velocity":0.3779527559055118,"duration":"0.24"},{"name":"D#6","midi":87,"time":"399.70","velocity":0.14173228346456693,"duration":"0.06"},{"name":"F1","midi":29,"time":"399.71","velocity":0.5354330708661418,"duration":"0.01"},{"name":"D5","midi":74,"time":"399.72","velocity":0.2992125984251969,"duration":"0.05"},{"name":"A4","midi":69,"time":"399.73","velocity":0.25196850393700787,"duration":"0.03"},{"name":"D7","midi":98,"time":"399.73","velocity":0.16535433070866143,"duration":"0.12"},{"name":"A3","midi":57,"time":"399.74","velocity":0.33858267716535434,"duration":"0.02"},{"name":"C6","midi":84,"time":"399.74","velocity":0.2992125984251969,"duration":"0.08"},{"name":"C#5","midi":73,"time":"399.76","velocity":0.3464566929133858,"duration":"0.24"},{"name":"E5","midi":76,"time":"399.76","velocity":0.2204724409448819,"duration":"0.08"},{"name":"C#2","midi":37,"time":"399.77","velocity":0.3700787401574803,"duration":"0.03"},{"name":"A#6","midi":94,"time":"399.77","velocity":0.15748031496062992,"duration":"0.16"},{"name":"G#6","midi":92,"time":"399.78","velocity":0.23622047244094488,"duration":"0.14"},{"name":"D6","midi":86,"time":"399.79","velocity":0.25984251968503935,"duration":"0.07"},{"name":"G#5","midi":80,"time":"399.80","velocity":0.28346456692913385,"duration":"0.02"},{"name":"D#6","midi":87,"time":"399.80","velocity":0.2283464566929134,"duration":"0.21"},{"name":"G6","midi":91,"time":"399.80","velocity":0.2677165354330709,"duration":"0.08"},{"name":"A4","midi":69,"time":"399.81","velocity":0.44881889763779526,"duration":"0.27"},{"name":"A3","midi":57,"time":"399.83","velocity":0.3700787401574803,"duration":"0.12"},{"name":"F#4","midi":66,"time":"399.83","velocity":0.5669291338582677,"duration":"0.27"},{"name":"E5","midi":76,"time":"399.86","velocity":0.2440944881889764,"duration":"0.17"},{"name":"A#5","midi":82,"time":"399.87","velocity":0.16535433070866143,"duration":"0.03"},{"name":"D7","midi":98,"time":"399.87","velocity":0.1732283464566929,"duration":"0.10"},{"name":"F7","midi":101,"time":"399.87","velocity":0.2047244094488189,"duration":"0.07"},{"name":"D6","midi":86,"time":"399.88","velocity":0.1732283464566929,"duration":"0.09"},{"name":"F6","midi":89,"time":"399.88","velocity":0.1889763779527559,"duration":"0.15"},{"name":"G#5","midi":80,"time":"399.90","velocity":0.2755905511811024,"duration":"0.09"},{"name":"G6","midi":91,"time":"399.90","velocity":0.2047244094488189,"duration":"0.05"},{"name":"C6","midi":84,"time":"399.91","velocity":0.2440944881889764,"duration":"0.14"},{"name":"C#2","midi":37,"time":"399.92","velocity":0.33070866141732286,"duration":"0.02"},{"name":"A#5","midi":82,"time":"399.92","velocity":0.1732283464566929,"duration":"0.06"},{"name":"G#6","midi":92,"time":"399.93","velocity":0.29133858267716534,"duration":"0.63"},{"name":"D#2","midi":39,"time":"399.94","velocity":0.33858267716535434,"duration":"0.02"},{"name":"F7","midi":101,"time":"399.95","velocity":0.2283464566929134,"duration":"0.27"},{"name":"C2","midi":36,"time":"399.97","velocity":0.3858267716535433,"duration":"0.02"},{"name":"C#6","midi":85,"time":"399.97","velocity":0.36220472440944884,"duration":"0.47"},{"name":"A#6","midi":94,"time":"399.99","velocity":0.2440944881889764,"duration":"0.17"},{"name":"D#2","midi":39,"time":"400.00","velocity":0.4645669291338583,"duration":"0.02"},{"name":"A#3","midi":58,"time":"400.00","velocity":0.31496062992125984,"duration":"0.06"},{"name":"D5","midi":74,"time":"400.00","velocity":0.25984251968503935,"duration":"0.02"},{"name":"G#5","midi":80,"time":"400.00","velocity":0.2677165354330709,"duration":"0.03"},{"name":"G7","midi":103,"time":"400.00","velocity":0.1732283464566929,"duration":"0.13"},{"name":"D#3","midi":51,"time":"400.01","velocity":0.5196850393700787,"duration":"0.05"},{"name":"C#5","midi":73,"time":"400.02","velocity":0.3858267716535433,"duration":"0.30"},{"name":"D6","midi":86,"time":"400.02","velocity":0.2125984251968504,"duration":"0.13"},{"name":"E2","midi":40,"time":"400.05","velocity":0.49606299212598426,"duration":"0.02"},{"name":"B5","midi":83,"time":"400.05","velocity":0.2283464566929134,"duration":"0.08"},{"name":"F6","midi":89,"time":"400.05","velocity":0.1732283464566929,"duration":"0.03"},{"name":"D3","midi":50,"time":"400.06","velocity":0.5433070866141733,"duration":"0.33"},{"name":"A3","midi":57,"time":"400.06","velocity":0.33858267716535434,"duration":"0.03"},{"name":"E5","midi":76,"time":"400.06","velocity":0.2047244094488189,"duration":"0.03"},{"name":"G5","midi":79,"time":"400.06","velocity":0.2283464566929134,"duration":"0.05"},{"name":"C6","midi":84,"time":"400.06","velocity":0.25196850393700787,"duration":"0.05"},{"name":"D#2","midi":39,"time":"400.07","velocity":0.36220472440944884,"duration":"0.02"},{"name":"G#5","midi":80,"time":"400.07","velocity":0.30708661417322836,"duration":"0.15"},{"name":"D#6","midi":87,"time":"400.07","velocity":0.12598425196850394,"duration":"0.06"},{"name":"G4","midi":67,"time":"400.09","velocity":0.49606299212598426,"duration":"0.03"},{"name":"A5","midi":81,"time":"400.09","velocity":0.4330708661417323,"duration":"0.43"},{"name":"A3","midi":57,"time":"400.10","velocity":0.4645669291338583,"duration":"0.28"},{"name":"F#5","midi":78,"time":"400.10","velocity":0.4094488188976378,"duration":"0.17"},{"name":"D2","midi":38,"time":"400.12","velocity":0.36220472440944884,"duration":"0.06"},{"name":"A#5","midi":82,"time":"400.12","velocity":0.2283464566929134,"duration":"0.05"},{"name":"D#7","midi":99,"time":"400.12","velocity":0.2992125984251969,"duration":"1.19"},{"name":"F#7","midi":102,"time":"400.12","velocity":0.2992125984251969,"duration":"2.47"},{"name":"F#4","midi":66,"time":"400.13","velocity":0.44881889763779526,"duration":"0.05"},{"name":"C6","midi":84,"time":"400.13","velocity":0.30708661417322836,"duration":"0.28"},{"name":"B4","midi":71,"time":"400.14","velocity":0.1732283464566929,"duration":"0.05"},{"name":"G7","midi":103,"time":"400.14","velocity":0.14173228346456693,"duration":"0.03"},{"name":"F6","midi":89,"time":"400.15","velocity":0.13385826771653545,"duration":"0.05"},{"name":"D6","midi":86,"time":"400.16","velocity":0.2677165354330709,"duration":"0.13"},{"name":"C#2","midi":37,"time":"400.17","velocity":0.36220472440944884,"duration":"0.02"},{"name":"A#6","midi":94,"time":"400.17","velocity":0.2440944881889764,"duration":"0.16"},{"name":"F#4","midi":66,"time":"400.19","velocity":0.5511811023622047,"duration":"0.15"},{"name":"A4","midi":69,"time":"400.19","velocity":0.5275590551181102,"duration":"0.22"},{"name":"B6","midi":95,"time":"400.19","velocity":0.1968503937007874,"duration":"0.21"},{"name":"D2","midi":38,"time":"400.20","velocity":0.2992125984251969,"duration":"0.10"},{"name":"D#6","midi":87,"time":"400.20","velocity":0.1889763779527559,"duration":"0.14"},{"name":"E6","midi":88,"time":"400.23","velocity":0.3700787401574803,"duration":"0.71"},{"name":"F6","midi":89,"time":"400.23","velocity":0.07874015748031496,"duration":"0.03"},{"name":"F7","midi":101,"time":"400.23","velocity":0.11811023622047244,"duration":"0.14"},{"name":"G#5","midi":80,"time":"400.24","velocity":0.25984251968503935,"duration":"0.02"},{"name":"G6","midi":91,"time":"400.24","velocity":0.1732283464566929,"duration":"0.06"},{"name":"E5","midi":76,"time":"400.29","velocity":0.4094488188976378,"duration":"0.21"},{"name":"C#2","midi":37,"time":"400.30","velocity":0.31496062992125984,"duration":"0.02"},{"name":"G#5","midi":80,"time":"400.30","velocity":0.3464566929133858,"duration":"0.14"},{"name":"F6","midi":89,"time":"400.31","velocity":0.25984251968503935,"duration":"0.14"},{"name":"D2","midi":38,"time":"400.33","velocity":0.4094488188976378,"duration":"0.08"},{"name":"F4","midi":65,"time":"400.34","velocity":0.3464566929133858,"duration":"0.03"},{"name":"C#5","midi":73,"time":"400.34","velocity":0.33070866141732286,"duration":"0.06"},{"name":"D6","midi":86,"time":"400.34","velocity":0.3543307086614173,"duration":"0.12"},{"name":"A#6","midi":94,"time":"400.35","velocity":0.3543307086614173,"duration":"0.10"},{"name":"G6","midi":91,"time":"400.36","velocity":0.1889763779527559,"duration":"0.03"},{"name":"G7","midi":103,"time":"400.37","velocity":0.25984251968503935,"duration":"0.17"},{"name":"C4","midi":60,"time":"400.38","velocity":0.4330708661417323,"duration":"0.03"},{"name":"D#4","midi":63,"time":"400.38","velocity":0.4566929133858268,"duration":"0.05"},{"name":"B4","midi":71,"time":"400.38","velocity":0.47244094488188976,"duration":"0.02"},{"name":"F#4","midi":66,"time":"400.41","velocity":0.5118110236220472,"duration":"0.08"},{"name":"A#4","midi":70,"time":"400.41","velocity":0.5275590551181102,"duration":"0.05"},{"name":"G6","midi":91,"time":"400.41","velocity":0.1889763779527559,"duration":"0.09"},{"name":"D3","midi":50,"time":"400.42","velocity":0.5748031496062992,"duration":"0.34"},{"name":"D#2","midi":39,"time":"400.43","velocity":0.41732283464566927,"duration":"0.02"},{"name":"A3","midi":57,"time":"400.43","velocity":0.4094488188976378,"duration":"0.12"},{"name":"B4","midi":71,"time":"400.44","velocity":0.2677165354330709,"duration":"0.02"},{"name":"C#5","midi":73,"time":"400.44","velocity":0.36220472440944884,"duration":"0.07"},{"name":"C#6","midi":85,"time":"400.44","velocity":0.4251968503937008,"duration":"0.50"},{"name":"E2","midi":40,"time":"400.45","velocity":0.28346456692913385,"duration":"0.02"},{"name":"F5","midi":77,"time":"400.45","velocity":0.29133858267716534,"duration":"0.02"},{"name":"A4","midi":69,"time":"400.47","velocity":0.4330708661417323,"duration":"0.30"},{"name":"C5","midi":72,"time":"400.47","velocity":0.2755905511811024,"duration":"0.02"},{"name":"A#6","midi":94,"time":"400.47","velocity":0.2125984251968504,"duration":"0.03"},{"name":"B5","midi":83,"time":"400.48","velocity":0.25984251968503935,"duration":"0.10"},{"name":"F4","midi":65,"time":"400.49","velocity":0.3228346456692913,"duration":"0.02"},{"name":"G#4","midi":68,"time":"400.49","velocity":0.31496062992125984,"duration":"0.02"},{"name":"D#6","midi":87,"time":"400.50","velocity":0.1968503937007874,"duration":"0.23"},{"name":"F6","midi":89,"time":"400.50","velocity":0.15748031496062992,"duration":"0.03"},{"name":"E5","midi":76,"time":"400.51","velocity":0.18110236220472442,"duration":"0.07"},{"name":"G#5","midi":80,"time":"400.51","velocity":0.28346456692913385,"duration":"0.06"},{"name":"A#6","midi":94,"time":"400.51","velocity":0.25196850393700787,"duration":"0.10"},{"name":"D#2","midi":39,"time":"400.52","velocity":0.2283464566929134,"duration":"0.02"},{"name":"F#4","midi":66,"time":"400.52","velocity":0.5984251968503937,"duration":"0.60"},{"name":"C#5","midi":73,"time":"400.52","velocity":0.3543307086614173,"duration":"0.19"},{"name":"D6","midi":86,"time":"400.52","velocity":0.1968503937007874,"duration":"0.16"},{"name":"A6","midi":93,"time":"400.53","velocity":0.31496062992125984,"duration":"0.30"},{"name":"F6","midi":89,"time":"400.55","velocity":0.18110236220472442,"duration":"0.03"},{"name":"A3","midi":57,"time":"400.56","velocity":0.4015748031496063,"duration":"0.06"},{"name":"D2","midi":38,"time":"400.57","velocity":0.23622047244094488,"duration":"0.02"},{"name":"G7","midi":103,"time":"400.57","velocity":0.2204724409448819,"duration":"0.09"},{"name":"A#5","midi":82,"time":"400.58","velocity":0.07874015748031496,"duration":"0.03"},{"name":"G#6","midi":92,"time":"400.58","velocity":0.25984251968503935,"duration":"0.31"},{"name":"C6","midi":84,"time":"400.59","velocity":0.14173228346456693,"duration":"0.07"},{"name":"F6","midi":89,"time":"400.59","velocity":0.1889763779527559,"duration":"0.05"},{"name":"D2","midi":38,"time":"400.60","velocity":0.2440944881889764,"duration":"0.02"},{"name":"B5","midi":83,"time":"400.62","velocity":0.2204724409448819,"duration":"0.03"},{"name":"G6","midi":91,"time":"400.62","velocity":0.1732283464566929,"duration":"0.03"},{"name":"A3","midi":57,"time":"400.64","velocity":0.3858267716535433,"duration":"0.09"},{"name":"E5","midi":76,"time":"400.64","velocity":0.28346456692913385,"duration":"0.27"},{"name":"C#2","midi":37,"time":"400.65","velocity":0.14960629921259844,"duration":"0.03"},{"name":"A#5","midi":82,"time":"400.65","velocity":0.18110236220472442,"duration":"0.03"},{"name":"A#6","midi":94,"time":"400.65","velocity":0.1889763779527559,"duration":"0.09"},{"name":"G7","midi":103,"time":"400.69","velocity":0.14173228346456693,"duration":"0.08"},{"name":"C#2","midi":37,"time":"400.71","velocity":0.3700787401574803,"duration":"0.03"},{"name":"A#3","midi":58,"time":"400.73","velocity":0.3543307086614173,"duration":"0.03"},{"name":"C#5","midi":73,"time":"400.73","velocity":0.30708661417322836,"duration":"0.06"},{"name":"G6","midi":91,"time":"400.73","velocity":0.14173228346456693,"duration":"0.05"},{"name":"B5","midi":83,"time":"400.74","velocity":0.2755905511811024,"duration":"0.40"},{"name":"D2","midi":38,"time":"400.76","velocity":0.4566929133858268,"duration":"0.02"},{"name":"D6","midi":86,"time":"400.76","velocity":0.14173228346456693,"duration":"0.06"},{"name":"A#6","midi":94,"time":"400.76","velocity":0.2204724409448819,"duration":"0.23"},{"name":"C7","midi":96,"time":"400.76","velocity":0.1968503937007874,"duration":"0.08"},{"name":"D7","midi":98,"time":"400.76","velocity":0.1968503937007874,"duration":"0.06"},{"name":"C3","midi":48,"time":"400.77","velocity":0.5196850393700787,"duration":"0.01"},{"name":"A3","midi":57,"time":"400.77","velocity":0.4645669291338583,"duration":"0.43"},{"name":"G#5","midi":80,"time":"400.77","velocity":0.25984251968503935,"duration":"0.02"},{"name":"F7","midi":101,"time":"400.77","velocity":0.16535433070866143,"duration":"0.14"},{"name":"D3","midi":50,"time":"400.78","velocity":0.6062992125984252,"duration":"0.42"},{"name":"G7","midi":103,"time":"400.78","velocity":0.23622047244094488,"duration":"0.41"},{"name":"A4","midi":69,"time":"400.79","velocity":0.48031496062992124,"duration":"1.05"},{"name":"B4","midi":71,"time":"400.79","velocity":0.3543307086614173,"duration":"0.03"},{"name":"C6","midi":84,"time":"400.79","velocity":0.29133858267716534,"duration":"0.20"},{"name":"G6","midi":91,"time":"400.79","velocity":0.1732283464566929,"duration":"0.03"},{"name":"D#6","midi":87,"time":"400.80","velocity":0.14960629921259844,"duration":"0.07"},{"name":"C#5","midi":73,"time":"400.81","velocity":0.33858267716535434,"duration":"0.03"},{"name":"D7","midi":98,"time":"400.83","velocity":0.2283464566929134,"duration":"0.06"},{"name":"G#5","midi":80,"time":"400.84","velocity":0.2677165354330709,"duration":"0.08"},{"name":"G6","midi":91,"time":"400.84","velocity":0.2047244094488189,"duration":"0.03"},{"name":"D5","midi":74,"time":"400.85","velocity":0.36220472440944884,"duration":"0.03"},{"name":"D2","midi":38,"time":"400.86","velocity":0.25196850393700787,"duration":"0.06"},{"name":"C#5","midi":73,"time":"400.87","velocity":0.3858267716535433,"duration":"0.33"},{"name":"D#6","midi":87,"time":"400.88","velocity":0.18110236220472442,"duration":"0.16"},{"name":"F6","midi":89,"time":"400.88","velocity":0.12598425196850394,"duration":"0.05"},{"name":"G6","midi":91,"time":"400.90","velocity":0.2047244094488189,"duration":"0.10"},{"name":"D#4","midi":63,"time":"400.91","velocity":0.11811023622047244,"duration":"0.03"},{"name":"D7","midi":98,"time":"400.91","velocity":0.1732283464566929,"duration":"0.13"},{"name":"C#2","midi":37,"time":"400.92","velocity":0.23622047244094488,"duration":"0.02"},{"name":"F7","midi":101,"time":"400.92","velocity":0.2440944881889764,"duration":"0.34"},{"name":"D6","midi":86,"time":"400.94","velocity":0.12598425196850394,"duration":"0.03"},{"name":"F6","midi":89,"time":"400.94","velocity":0.14173228346456693,"duration":"0.03"},{"name":"C#6","midi":85,"time":"400.95","velocity":0.4330708661417323,"duration":"0.74"},{"name":"D2","midi":38,"time":"400.97","velocity":0.1889763779527559,"duration":"0.08"},{"name":"E5","midi":76,"time":"400.97","velocity":0.33070866141732286,"duration":"0.15"},{"name":"G#6","midi":92,"time":"400.99","velocity":0.25984251968503935,"duration":"0.07"},{"name":"C6","midi":84,"time":"401.00","velocity":0.14173228346456693,"duration":"0.05"},{"name":"A#6","midi":94,"time":"401.00","velocity":0.16535433070866143,"duration":"0.09"},{"name":"C#4","midi":61,"time":"401.01","velocity":0.13385826771653545,"duration":"0.03"},{"name":"G#5","midi":80,"time":"401.01","velocity":0.2440944881889764,"duration":"0.02"},{"name":"G6","midi":91,"time":"401.01","velocity":0.2440944881889764,"duration":"0.09"},{"name":"C#2","midi":37,"time":"401.05","velocity":0.1889763779527559,"duration":"0.03"},{"name":"G#5","midi":80,"time":"401.06","velocity":0.2677165354330709,"duration":"0.12"},{"name":"D6","midi":86,"time":"401.06","velocity":0.2283464566929134,"duration":"0.23"},{"name":"D#6","midi":87,"time":"401.06","velocity":0.11811023622047244,"duration":"0.07"},{"name":"C7","midi":96,"time":"401.08","velocity":0.1968503937007874,"duration":"0.27"},{"name":"E5","midi":76,"time":"401.13","velocity":0.28346456692913385,"duration":"0.24"},{"name":"A#6","midi":94,"time":"401.13","velocity":0.2755905511811024,"duration":"0.35"},{"name":"E2","midi":40,"time":"401.14","velocity":0.5039370078740157,"duration":"0.03"},{"name":"F#4","midi":66,"time":"401.14","velocity":0.3464566929133858,"duration":"0.02"},{"name":"C6","midi":84,"time":"401.14","velocity":0.2283464566929134,"duration":"0.05"},{"name":"G6","midi":91,"time":"401.15","velocity":0.11811023622047244,"duration":"0.03"},{"name":"D#6","midi":87,"time":"401.16","velocity":0.25196850393700787,"duration":"0.21"},{"name":"F2","midi":41,"time":"401.17","velocity":0.6141732283464567,"duration":"0.02"},{"name":"F#4","midi":66,"time":"401.17","velocity":0.5669291338582677,"duration":"0.08"},{"name":"B5","midi":83,"time":"401.17","velocity":0.2283464566929134,"duration":"0.17"},{"name":"F6","midi":89,"time":"401.17","velocity":0.11811023622047244,"duration":"0.03"},{"name":"C#3","midi":49,"time":"401.20","velocity":0.5511811023622047,"duration":"0.01"},{"name":"G6","midi":91,"time":"401.20","velocity":0.1968503937007874,"duration":"0.17"},{"name":"G1","midi":31,"time":"401.21","velocity":0.5590551181102362,"duration":"0.01"},{"name":"D3","midi":50,"time":"401.21","velocity":0.5669291338582677,"duration":"0.05"},{"name":"A3","midi":57,"time":"401.21","velocity":0.4409448818897638,"duration":"0.30"},{"name":"B4","midi":71,"time":"401.21","velocity":0.2440944881889764,"duration":"0.02"},{"name":"C#5","midi":73,"time":"401.21","velocity":0.3700787401574803,"duration":"0.07"},{"name":"F#1","midi":30,"time":"401.22","velocity":0.5826771653543307,"duration":"0.01"},{"name":"G#5","midi":80,"time":"401.22","velocity":0.2047244094488189,"duration":"0.03"},{"name":"C6","midi":84,"time":"401.22","velocity":0.29133858267716534,"duration":"0.16"},{"name":"A1","midi":33,"time":"401.23","velocity":0.5196850393700787,"duration":"0.01"},{"name":"G#6","midi":92,"time":"401.23","velocity":0.2283464566929134,"duration":"0.17"},{"name":"C#3","midi":49,"time":"401.26","velocity":0.5748031496062992,"duration":"0.01"},{"name":"F4","midi":65,"time":"401.26","velocity":0.4015748031496063,"duration":"0.02"},{"name":"D3","midi":50,"time":"401.27","velocity":0.5748031496062992,"duration":"0.27"},{"name":"F#4","midi":66,"time":"401.28","velocity":0.4330708661417323,"duration":"0.03"},{"name":"C#5","midi":73,"time":"401.29","velocity":0.23622047244094488,"duration":"0.05"},{"name":"F7","midi":101,"time":"401.29","velocity":0.10236220472440945,"duration":"0.05"},{"name":"F4","midi":65,"time":"401.31","velocity":0.4015748031496063,"duration":"0.02"},{"name":"F6","midi":89,"time":"401.31","velocity":0.15748031496062992,"duration":"0.03"},{"name":"F#4","midi":66,"time":"401.34","velocity":0.5748031496062992,"duration":"0.59"},{"name":"C5","midi":72,"time":"401.34","velocity":0.23622047244094488,"duration":"0.02"},{"name":"G#5","midi":80,"time":"401.34","velocity":0.2283464566929134,"duration":"0.02"},{"name":"D7","midi":98,"time":"401.35","velocity":0.14960629921259844,"duration":"0.06"},{"name":"F7","midi":101,"time":"401.35","velocity":0.29133858267716534,"duration":"1.40"},{"name":"B5","midi":83,"time":"401.37","velocity":0.29133858267716534,"duration":"0.17"},{"name":"C#5","midi":73,"time":"401.38","velocity":0.4094488188976378,"duration":"0.29"},{"name":"G7","midi":103,"time":"401.38","velocity":0.11811023622047244,"duration":"0.10"},{"name":"D#6","midi":87,"time":"401.41","velocity":0.14173228346456693,"duration":"0.12"},{"name":"D6","midi":86,"time":"401.42","velocity":0.13385826771653545,"duration":"0.03"},{"name":"G#5","midi":80,"time":"401.43","velocity":0.23622047244094488,"duration":"0.07"},{"name":"E6","midi":88,"time":"401.43","velocity":0.4409448818897638,"duration":"2.59"},{"name":"C6","midi":84,"time":"401.44","velocity":0.23622047244094488,"duration":"0.10"},{"name":"G6","midi":91,"time":"401.44","velocity":0.2440944881889764,"duration":"0.20"},{"name":"D7","midi":98,"time":"401.44","velocity":0.2204724409448819,"duration":"0.27"},{"name":"D2","midi":38,"time":"401.45","velocity":0.33858267716535434,"duration":"0.02"},{"name":"E5","midi":76,"time":"401.47","velocity":0.33070866141732286,"duration":"0.08"},{"name":"C2","midi":36,"time":"401.48","velocity":0.36220472440944884,"duration":"0.02"},{"name":"D#7","midi":99,"time":"401.48","velocity":0.29133858267716534,"duration":"0.47"},{"name":"A#6","midi":94,"time":"401.49","velocity":0.2283464566929134,"duration":"0.10"},{"name":"D#2","midi":39,"time":"401.51","velocity":0.31496062992125984,"duration":"0.02"},{"name":"G#6","midi":92,"time":"401.51","velocity":0.25984251968503935,"duration":"0.24"},{"name":"F2","midi":41,"time":"401.53","velocity":0.5748031496062992,"duration":"0.02"},{"name":"D#3","midi":51,"time":"401.53","velocity":0.5748031496062992,"duration":"0.01"},{"name":"F#3","midi":54,"time":"401.53","velocity":0.44881889763779526,"duration":"0.02"},{"name":"A#4","midi":70,"time":"401.53","velocity":0.2992125984251969,"duration":"0.02"},{"name":"A#5","midi":82,"time":"401.53","velocity":0.31496062992125984,"duration":"0.02"},{"name":"D6","midi":86,"time":"401.53","velocity":0.25196850393700787,"duration":"0.10"},{"name":"D3","midi":50,"time":"401.55","velocity":0.5354330708661418,"duration":"0.01"},{"name":"G5","midi":79,"time":"401.55","velocity":0.2992125984251969,"duration":"0.03"},{"name":"F6","midi":89,"time":"401.55","velocity":0.14173228346456693,"duration":"0.03"},{"name":"G2","midi":43,"time":"401.56","velocity":0.5196850393700787,"duration":"0.02"},{"name":"C6","midi":84,"time":"401.56","velocity":0.25196850393700787,"duration":"0.08"},{"name":"D3","midi":50,"time":"401.57","velocity":0.5826771653543307,"duration":"0.35"},{"name":"A3","midi":57,"time":"401.57","velocity":0.41732283464566927,"duration":"0.35"},{"name":"E5","midi":76,"time":"401.57","velocity":0.25196850393700787,"duration":"0.02"},{"name":"B5","midi":83,"time":"401.57","velocity":0.1968503937007874,"duration":"0.03"},{"name":"B6","midi":95,"time":"401.59","velocity":0.2440944881889764,"duration":"0.16"},{"name":"A#5","midi":82,"time":"401.60","velocity":0.18110236220472442,"duration":"0.05"},{"name":"D#6","midi":87,"time":"401.62","velocity":0.15748031496062992,"duration":"0.03"},{"name":"G#5","midi":80,"time":"401.64","velocity":0.2677165354330709,"duration":"0.05"},{"name":"C#2","midi":37,"time":"401.65","velocity":0.30708661417322836,"duration":"0.02"},{"name":"F5","midi":77,"time":"401.65","velocity":0.2283464566929134,"duration":"0.02"},{"name":"G7","midi":103,"time":"401.65","velocity":0.2125984251968504,"duration":"0.23"},{"name":"G6","midi":91,"time":"401.66","velocity":0.2047244094488189,"duration":"0.05"},{"name":"B5","midi":83,"time":"401.67","velocity":0.28346456692913385,"duration":"0.15"},{"name":"C6","midi":84,"time":"401.67","velocity":0.2204724409448819,"duration":"0.10"},{"name":"F5","midi":77,"time":"401.69","velocity":0.2440944881889764,"duration":"0.05"},{"name":"G#5","midi":80,"time":"401.70","velocity":0.2283464566929134,"duration":"0.08"},{"name":"C#6","midi":85,"time":"401.72","velocity":0.3779527559055118,"duration":"0.20"},{"name":"G1","midi":31,"time":"401.73","velocity":0.30708661417322836,"duration":"0.02"},{"name":"D#6","midi":87,"time":"401.73","velocity":0.13385826771653545,"duration":"0.07"},{"name":"C5","midi":72,"time":"401.74","velocity":0.11811023622047244,"duration":"0.03"},{"name":"E5","midi":76,"time":"401.74","velocity":0.14960629921259844,"duration":"0.05"},{"name":"G6","midi":91,"time":"401.74","velocity":0.1732283464566929,"duration":"0.10"},{"name":"F6","midi":89,"time":"401.77","velocity":0.12598425196850394,"duration":"0.12"},{"name":"C#5","midi":73,"time":"401.78","velocity":0.30708661417322836,"duration":"0.07"},{"name":"G#6","midi":92,"time":"401.78","velocity":0.25984251968503935,"duration":"0.29"},{"name":"C#2","midi":37,"time":"401.79","velocity":0.2755905511811024,"duration":"0.02"},{"name":"F5","midi":77,"time":"401.80","velocity":0.2677165354330709,"duration":"0.02"},{"name":"C6","midi":84,"time":"401.81","velocity":0.3858267716535433,"duration":"0.14"},{"name":"D#6","midi":87,"time":"401.84","velocity":0.1968503937007874,"duration":"0.09"},{"name":"C2","midi":36,"time":"401.85","velocity":0.36220472440944884,"duration":"0.02"},{"name":"F5","midi":77,"time":"401.85","velocity":0.3858267716535433,"duration":"0.08"},{"name":"A#5","midi":82,"time":"401.86","velocity":0.1968503937007874,"duration":"0.03"},{"name":"G6","midi":91,"time":"401.87","velocity":0.3543307086614173,"duration":"0.47"},{"name":"D7","midi":98,"time":"401.87","velocity":0.2047244094488189,"duration":"0.06"},{"name":"G#5","midi":80,"time":"401.88","velocity":0.3543307086614173,"duration":"0.08"},{"name":"C#2","midi":37,"time":"401.90","velocity":0.3700787401574803,"duration":"0.03"},{"name":"B4","midi":71,"time":"401.90","velocity":0.4094488188976378,"duration":"0.03"},{"name":"C#5","midi":73,"time":"401.90","velocity":0.3937007874015748,"duration":"0.05"},{"name":"A#6","midi":94,"time":"401.91","velocity":0.1968503937007874,"duration":"0.14"},{"name":"B6","midi":95,"time":"401.91","velocity":0.25196850393700787,"duration":"0.23"},{"name":"G#4","midi":68,"time":"401.92","velocity":0.5354330708661418,"duration":"0.02"},{"name":"D6","midi":86,"time":"401.92","velocity":0.2755905511811024,"duration":"0.16"},{"name":"E2","midi":40,"time":"401.93","velocity":0.4251968503937008,"duration":"0.02"},{"name":"G3","midi":55,"time":"401.93","velocity":0.47244094488188976,"duration":"0.02"},{"name":"C4","midi":60,"time":"401.93","velocity":0.49606299212598426,"duration":"0.02"},{"name":"E5","midi":76,"time":"401.93","velocity":0.3858267716535433,"duration":"0.02"},{"name":"F#5","midi":78,"time":"401.93","velocity":0.3543307086614173,"duration":"0.03"},{"name":"G4","midi":67,"time":"401.94","velocity":0.49606299212598426,"duration":"0.03"},{"name":"A#4","midi":70,"time":"401.94","velocity":0.4409448818897638,"duration":"0.02"},{"name":"D#5","midi":75,"time":"401.94","velocity":0.33858267716535434,"duration":"0.03"},{"name":"A5","midi":81,"time":"401.94","velocity":0.5433070866141733,"duration":"0.20"},{"name":"B5","midi":83,"time":"401.94","velocity":0.2125984251968504,"duration":"0.03"},{"name":"D3","midi":50,"time":"401.95","velocity":0.5669291338582677,"duration":"0.71"},{"name":"A4","midi":69,"time":"401.95","velocity":0.44881889763779526,"duration":"0.02"},{"name":"C#6","midi":85,"time":"401.95","velocity":0.3700787401574803,"duration":"0.30"},{"name":"A3","midi":57,"time":"401.97","velocity":0.3543307086614173,"duration":"0.02"},{"name":"C5","midi":72,"time":"401.97","velocity":0.2440944881889764,"duration":"0.03"},{"name":"E5","midi":76,"time":"401.97","velocity":0.3543307086614173,"duration":"0.40"},{"name":"D#7","midi":99,"time":"401.97","velocity":0.23622047244094488,"duration":"0.14"},{"name":"G#4","midi":68,"time":"401.98","velocity":0.4566929133858268,"duration":"0.02"},{"name":"F#5","midi":78,"time":"401.98","velocity":0.29133858267716534,"duration":"0.12"},{"name":"F6","midi":89,"time":"401.98","velocity":0.14173228346456693,"duration":"0.06"},{"name":"C#2","midi":37,"time":"401.99","velocity":0.25196850393700787,"duration":"0.02"},{"name":"C#4","midi":61,"time":"401.99","velocity":0.29133858267716534,"duration":"0.02"},{"name":"B5","midi":83,"time":"401.99","velocity":0.1968503937007874,"duration":"0.05"},{"name":"A3","midi":57,"time":"402.00","velocity":0.33858267716535434,"duration":"0.02"},{"name":"G4","midi":67,"time":"402.00","velocity":0.4094488188976378,"duration":"0.03"},{"name":"A#4","midi":70,"time":"402.00","velocity":0.3700787401574803,"duration":"0.02"},{"name":"C#5","midi":73,"time":"402.00","velocity":0.3228346456692913,"duration":"0.31"},{"name":"C#4","midi":61,"time":"402.02","velocity":0.3464566929133858,"duration":"0.02"},{"name":"A4","midi":69,"time":"402.02","velocity":0.4566929133858268,"duration":"0.03"},{"name":"C6","midi":84,"time":"402.03","velocity":0.2283464566929134,"duration":"0.05"},{"name":"F#4","midi":66,"time":"402.05","velocity":0.33858267716535434,"duration":"0.08"},{"name":"A3","midi":57,"time":"402.06","velocity":0.4251968503937008,"duration":"0.10"},{"name":"G#4","midi":68,"time":"402.06","velocity":0.4015748031496063,"duration":"0.02"},{"name":"A#6","midi":94,"time":"402.06","velocity":0.1968503937007874,"duration":"0.27"},{"name":"D#6","midi":87,"time":"402.07","velocity":0.16535433070866143,"duration":"0.09"},{"name":"D7","midi":98,"time":"402.07","velocity":0.2992125984251969,"duration":"0.08"},{"name":"A4","midi":69,"time":"402.08","velocity":0.49606299212598426,"duration":"0.12"},{"name":"B5","midi":83,"time":"402.08","velocity":0.25984251968503935,"duration":"0.12"},{"name":"G#5","midi":80,"time":"402.10","velocity":0.3937007874015748,"duration":"0.19"},{"name":"F6","midi":89,"time":"402.10","velocity":0.08661417322834646,"duration":"0.03"},{"name":"D#7","midi":99,"time":"402.12","velocity":0.31496062992125984,"duration":"0.55"},{"name":"C6","midi":84,"time":"402.13","velocity":0.2047244094488189,"duration":"0.05"},{"name":"C#4","midi":61,"time":"402.15","velocity":0.3543307086614173,"duration":"0.02"},{"name":"G#3","midi":56,"time":"402.16","velocity":0.3228346456692913,"duration":"0.02"},{"name":"D6","midi":86,"time":"402.16","velocity":0.1732283464566929,"duration":"0.13"},{"name":"D2","midi":38,"time":"402.17","velocity":0.1732283464566929,"duration":"0.05"},{"name":"A3","midi":57,"time":"402.19","velocity":0.41732283464566927,"duration":"0.07"},{"name":"F#4","midi":66,"time":"402.19","velocity":0.2992125984251969,"duration":"0.06"},{"name":"A5","midi":81,"time":"402.19","velocity":0.5196850393700787,"duration":"0.70"},{"name":"C6","midi":84,"time":"402.20","velocity":0.11811023622047244,"duration":"0.09"},{"name":"A4","midi":69,"time":"402.21","velocity":0.5196850393700787,"duration":"0.12"},{"name":"B5","midi":83,"time":"402.21","velocity":0.25196850393700787,"duration":"0.02"},{"name":"C7","midi":96,"time":"402.21","velocity":0.18110236220472442,"duration":"0.14"},{"name":"D#6","midi":87,"time":"402.22","velocity":0.16535433070866143,"duration":"0.05"},{"name":"A#5","midi":82,"time":"402.23","velocity":0.2047244094488189,"duration":"0.03"},{"name":"F#6","midi":90,"time":"402.24","velocity":0.2755905511811024,"duration":"0.21"},{"name":"C#4","midi":61,"time":"402.26","velocity":0.28346456692913385,"duration":"0.07"},{"name":"C#6","midi":85,"time":"402.27","velocity":0.3543307086614173,"duration":"0.16"},{"name":"A#3","midi":58,"time":"402.28","velocity":0.3464566929133858,"duration":"0.02"},{"name":"F#4","midi":66,"time":"402.28","velocity":0.31496062992125984,"duration":"0.02"},{"name":"F6","midi":89,"time":"402.28","velocity":0.2283464566929134,"duration":"0.03"},{"name":"G#6","midi":92,"time":"402.29","velocity":0.18110236220472442,"duration":"0.10"},{"name":"F2","midi":41,"time":"402.30","velocity":0.5196850393700787,"duration":"0.01"},{"name":"A3","midi":57,"time":"402.30","velocity":0.4015748031496063,"duration":"0.12"},{"name":"B5","midi":83,"time":"402.30","velocity":0.16535433070866143,"duration":"0.03"},{"name":"E2","midi":40,"time":"402.31","velocity":0.4881889763779528,"duration":"0.05"},{"name":"B4","midi":71,"time":"402.31","velocity":0.2283464566929134,"duration":"0.02"},{"name":"D5","midi":74,"time":"402.31","velocity":0.2992125984251969,"duration":"0.05"},{"name":"F#5","midi":78,"time":"402.33","velocity":0.3937007874015748,"duration":"0.14"},{"name":"D#6","midi":87,"time":"402.33","velocity":0.16535433070866143,"duration":"0.05"},{"name":"C#4","midi":61,"time":"402.34","velocity":0.2992125984251969,"duration":"0.03"},{"name":"A4","midi":69,"time":"402.34","velocity":0.5433070866141733,"duration":"0.07"},{"name":"C6","midi":84,"time":"402.34","velocity":0.2992125984251969,"duration":"0.17"},{"name":"A#6","midi":94,"time":"402.34","velocity":0.1732283464566929,"duration":"0.07"},{"name":"B6","midi":95,"time":"402.34","velocity":0.25984251968503935,"duration":"0.51"},{"name":"G6","midi":91,"time":"402.35","velocity":0.1732283464566929,"duration":"0.06"},{"name":"C#5","midi":73,"time":"402.36","velocity":0.30708661417322836,"duration":"0.03"},{"name":"G#5","midi":80,"time":"402.36","velocity":0.2283464566929134,"duration":"0.05"},{"name":"E5","midi":76,"time":"402.37","velocity":0.25984251968503935,"duration":"0.03"},{"name":"F#4","midi":66,"time":"402.40","velocity":0.29133858267716534,"duration":"0.05"},{"name":"B5","midi":83,"time":"402.41","velocity":0.1732283464566929,"duration":"0.05"},{"name":"G#6","midi":92,"time":"402.41","velocity":0.23622047244094488,"duration":"0.10"},{"name":"A4","midi":69,"time":"402.42","velocity":0.4881889763779528,"duration":"0.03"},{"name":"C#5","midi":73,"time":"402.42","velocity":0.33858267716535434,"duration":"0.42"},{"name":"F6","midi":89,"time":"402.42","velocity":0.2204724409448819,"duration":"0.06"},{"name":"A#6","midi":94,"time":"402.42","velocity":0.2283464566929134,"duration":"0.26"},{"name":"A3","midi":57,"time":"402.43","velocity":0.4645669291338583,"duration":"0.23"},{"name":"G6","midi":91,"time":"402.43","velocity":0.2992125984251969,"duration":"0.27"},{"name":"E5","midi":76,"time":"402.44","velocity":0.29133858267716534,"duration":"0.05"},{"name":"D2","midi":38,"time":"402.45","velocity":0.3464566929133858,"duration":"0.03"},{"name":"G#4","midi":68,"time":"402.45","velocity":0.36220472440944884,"duration":"0.02"},{"name":"D7","midi":98,"time":"402.47","velocity":0.1889763779527559,"duration":"0.09"},{"name":"A4","midi":69,"time":"402.48","velocity":0.5433070866141733,"duration":"0.31"},{"name":"F#5","midi":78,"time":"402.48","velocity":0.2755905511811024,"duration":"0.12"},{"name":"D2","midi":38,"time":"402.50","velocity":0.3228346456692913,"duration":"0.05"},{"name":"E5","midi":76,"time":"402.50","velocity":0.41732283464566927,"duration":"0.28"},{"name":"B5","midi":83,"time":"402.50","velocity":0.2755905511811024,"duration":"0.15"},{"name":"D6","midi":86,"time":"402.50","velocity":0.23622047244094488,"duration":"0.09"},{"name":"G#5","midi":80,"time":"402.51","velocity":0.29133858267716534,"duration":"0.02"},{"name":"C6","midi":84,"time":"402.52","velocity":0.2204724409448819,"duration":"0.06"},{"name":"F#4","midi":66,"time":"402.53","velocity":0.14960629921259844,"duration":"0.03"},{"name":"D#6","midi":87,"time":"402.56","velocity":0.16535433070866143,"duration":"0.03"},{"name":"G#6","midi":92,"time":"402.58","velocity":0.16535433070866143,"duration":"0.03"},{"name":"F6","midi":89,"time":"402.59","velocity":0.14173228346456693,"duration":"0.05"},{"name":"C6","midi":84,"time":"402.60","velocity":0.2440944881889764,"duration":"0.07"},{"name":"C#2","midi":37,"time":"402.62","velocity":0.3228346456692913,"duration":"0.02"},{"name":"F#5","midi":78,"time":"402.62","velocity":0.1889763779527559,"duration":"0.03"},{"name":"C#4","midi":61,"time":"402.63","velocity":0.2992125984251969,"duration":"0.03"},{"name":"F#4","midi":66,"time":"402.63","velocity":0.2440944881889764,"duration":"0.03"},{"name":"G#6","midi":92,"time":"402.64","velocity":0.18110236220472442,"duration":"0.06"},{"name":"F#6","midi":90,"time":"402.65","velocity":0.2047244094488189,"duration":"0.07"},{"name":"F#7","midi":102,"time":"402.65","velocity":0.25984251968503935,"duration":"0.71"},{"name":"C#3","midi":49,"time":"402.66","velocity":0.6141732283464567,"duration":"0.01"},{"name":"F4","midi":65,"time":"402.66","velocity":0.23622047244094488,"duration":"0.02"},{"name":"B5","midi":83,"time":"402.66","velocity":0.2440944881889764,"duration":"0.06"},{"name":"F6","midi":89,"time":"402.66","velocity":0.18110236220472442,"duration":"0.09"},{"name":"D7","midi":98,"time":"402.66","velocity":0.2125984251968504,"duration":"0.07"},{"name":"F2","midi":41,"time":"402.67","velocity":0.6771653543307087,"duration":"0.03"},{"name":"D3","midi":50,"time":"402.67","velocity":0.5354330708661418,"duration":"0.01"},{"name":"F#5","midi":78,"time":"402.67","velocity":0.31496062992125984,"duration":"0.14"},{"name":"G#5","midi":80,"time":"402.67","velocity":0.2125984251968504,"duration":"0.03"},{"name":"D#7","midi":99,"time":"402.67","velocity":0.28346456692913385,"duration":"0.88"},{"name":"A#3","midi":58,"time":"402.69","velocity":0.29133858267716534,"duration":"0.07"},{"name":"A#6","midi":94,"time":"402.69","velocity":0.18110236220472442,"duration":"0.15"},{"name":"D#1","midi":27,"time":"402.70","velocity":0.5118110236220472,"duration":"0.02"},{"name":"D3","midi":50,"time":"402.70","velocity":0.5905511811023622,"duration":"0.37"},{"name":"G#6","midi":92,"time":"402.71","velocity":0.2125984251968504,"duration":"0.05"},{"name":"F1","midi":29,"time":"402.72","velocity":0.5354330708661418,"duration":"0.01"},{"name":"C6","midi":84,"time":"402.72","velocity":0.2125984251968504,"duration":"0.13"},{"name":"A#1","midi":34,"time":"402.73","velocity":0.5275590551181102,"duration":"0.01"},{"name":"D6","midi":86,"time":"402.73","velocity":0.2677165354330709,"duration":"0.12"},{"name":"G6","midi":91,"time":"402.73","velocity":0.2440944881889764,"duration":"0.14"},{"name":"D#6","midi":87,"time":"402.74","velocity":0.18110236220472442,"duration":"0.05"},{"name":"A#1","midi":34,"time":"402.76","velocity":0.3937007874015748,"duration":"0.02"},{"name":"F7","midi":101,"time":"402.76","velocity":0.1889763779527559,"duration":"0.55"},{"name":"F#4","midi":66,"time":"402.77","velocity":0.2125984251968504,"duration":"0.03"},{"name":"B5","midi":83,"time":"402.77","velocity":0.29133858267716534,"duration":"0.36"},{"name":"G#4","midi":68,"time":"402.79","velocity":0.4330708661417323,"duration":"0.02"},{"name":"E5","midi":76,"time":"402.79","velocity":0.33858267716535434,"duration":"0.07"},{"name":"G#3","midi":56,"time":"402.80","velocity":0.2677165354330709,"duration":"0.03"},{"name":"F6","midi":89,"time":"402.80","velocity":0.13385826771653545,"duration":"0.06"},{"name":"A4","midi":69,"time":"402.81","velocity":0.48031496062992124,"duration":"0.06"},{"name":"G#6","midi":92,"time":"402.81","velocity":0.1968503937007874,"duration":"0.08"},{"name":"A3","midi":57,"time":"402.84","velocity":0.4094488188976378,"duration":"0.23"},{"name":"F#4","midi":66,"time":"402.84","velocity":0.2283464566929134,"duration":"0.03"},{"name":"C#5","midi":73,"time":"402.85","velocity":0.30708661417322836,"duration":"0.07"},{"name":"F5","midi":77,"time":"402.85","velocity":0.2992125984251969,"duration":"0.06"},{"name":"G#5","midi":80,"time":"402.86","velocity":0.3228346456692913,"duration":"0.08"},{"name":"C6","midi":84,"time":"402.87","velocity":0.15748031496062992,"duration":"0.07"},{"name":"D6","midi":86,"time":"402.87","velocity":0.15748031496062992,"duration":"0.05"},{"name":"A4","midi":69,"time":"402.88","velocity":0.47244094488188976,"duration":"0.08"},{"name":"G6","midi":91,"time":"402.88","velocity":0.29133858267716534,"duration":"0.37"},{"name":"E5","midi":76,"time":"402.90","velocity":0.4015748031496063,"duration":"0.10"},{"name":"F#6","midi":90,"time":"402.90","velocity":0.1889763779527559,"duration":"0.10"},{"name":"C7","midi":96,"time":"402.90","velocity":0.1732283464566929,"duration":"0.10"},{"name":"A5","midi":81,"time":"402.92","velocity":0.5669291338582677,"duration":"1.49"},{"name":"F#5","midi":78,"time":"402.93","velocity":0.25984251968503935,"duration":"0.05"},{"name":"C6","midi":84,"time":"402.95","velocity":0.2283464566929134,"duration":"0.08"},{"name":"D7","midi":98,"time":"402.95","velocity":0.07086614173228346,"duration":"0.06"},{"name":"B1","midi":35,"time":"402.97","velocity":0.2677165354330709,"duration":"0.03"},{"name":"C#5","midi":73,"time":"402.97","velocity":0.2677165354330709,"duration":"0.02"},{"name":"G#6","midi":92,"time":"402.97","velocity":0.12598425196850394,"duration":"0.06"},{"name":"A4","midi":69,"time":"402.98","velocity":0.4330708661417323,"duration":"0.06"},{"name":"F#4","midi":66,"time":"402.99","velocity":0.2677165354330709,"duration":"0.09"},{"name":"F5","midi":77,"time":"403.00","velocity":0.2992125984251969,"duration":"0.06"},{"name":"C#5","midi":73,"time":"403.01","velocity":0.28346456692913385,"duration":"0.16"},{"name":"G#5","midi":80,"time":"403.01","velocity":0.25984251968503935,"duration":"0.02"},{"name":"D#6","midi":87,"time":"403.02","velocity":0.15748031496062992,"duration":"0.03"},{"name":"A#6","midi":94,"time":"403.02","velocity":0.1732283464566929,"duration":"0.13"},{"name":"G5","midi":79,"time":"403.03","velocity":0.28346456692913385,"duration":"0.03"},{"name":"F#6","midi":90,"time":"403.03","velocity":0.2283464566929134,"duration":"0.06"},{"name":"G#6","midi":92,"time":"403.03","velocity":0.13385826771653545,"duration":"0.05"},{"name":"A4","midi":69,"time":"403.05","velocity":0.4881889763779528,"duration":"0.07"},{"name":"B4","midi":71,"time":"403.05","velocity":0.3228346456692913,"duration":"0.02"},{"name":"E5","midi":76,"time":"403.06","velocity":0.29133858267716534,"duration":"0.02"},{"name":"F#5","midi":78,"time":"403.06","velocity":0.3228346456692913,"duration":"0.16"},{"name":"D6","midi":86,"time":"403.06","velocity":0.2283464566929134,"duration":"0.06"},{"name":"C#2","midi":37,"time":"403.08","velocity":0.31496062992125984,"duration":"0.02"},{"name":"D3","midi":50,"time":"403.08","velocity":0.5669291338582677,"duration":"0.28"},{"name":"A3","midi":57,"time":"403.08","velocity":0.4251968503937008,"duration":"0.31"},{"name":"F6","midi":89,"time":"403.08","velocity":0.2047244094488189,"duration":"0.03"},{"name":"F#4","midi":66,"time":"403.09","velocity":0.2283464566929134,"duration":"0.05"},{"name":"G#6","midi":92,"time":"403.09","velocity":0.1968503937007874,"duration":"0.14"},{"name":"C7","midi":96,"time":"403.09","velocity":0.1889763779527559,"duration":"0.17"},{"name":"G#4","midi":68,"time":"403.12","velocity":0.41732283464566927,"duration":"0.02"},{"name":"E5","midi":76,"time":"403.12","velocity":0.3464566929133858,"duration":"0.12"},{"name":"D#6","midi":87,"time":"403.12","velocity":0.16535433070866143,"duration":"0.07"},{"name":"D2","midi":38,"time":"403.14","velocity":0.2283464566929134,"duration":"0.03"},{"name":"A4","midi":69,"time":"403.14","velocity":0.4251968503937008,"duration":"0.02"},{"name":"B5","midi":83,"time":"403.14","velocity":0.1889763779527559,"duration":"0.03"},{"name":"D6","midi":86,"time":"403.14","velocity":0.16535433070866143,"duration":"0.09"},{"name":"F6","midi":89,"time":"403.14","velocity":0.14960629921259844,"duration":"0.03"},{"name":"A#4","midi":70,"time":"403.16","velocity":0.4015748031496063,"duration":"0.03"},{"name":"C#2","midi":37,"time":"403.17","velocity":0.2440944881889764,"duration":"0.05"},{"name":"C6","midi":84,"time":"403.17","velocity":0.23622047244094488,"duration":"0.10"},{"name":"A4","midi":69,"time":"403.20","velocity":0.4251968503937008,"duration":"0.03"},{"name":"C5","midi":72,"time":"403.20","velocity":0.25196850393700787,"duration":"0.08"},{"name":"D#6","midi":87,"time":"403.20","velocity":0.13385826771653545,"duration":"0.07"},{"name":"F5","midi":77,"time":"403.22","velocity":0.2677165354330709,"duration":"0.07"},{"name":"F#6","midi":90,"time":"403.22","velocity":0.1732283464566929,"duration":"0.12"},{"name":"G#4","midi":68,"time":"403.23","velocity":0.47244094488188976,"duration":"0.02"},{"name":"B5","midi":83,"time":"403.23","velocity":0.2047244094488189,"duration":"0.15"},{"name":"C#2","midi":37,"time":"403.24","velocity":0.1889763779527559,"duration":"0.05"},{"name":"D6","midi":86,"time":"403.24","velocity":0.1732283464566929,"duration":"0.10"},{"name":"A4","midi":69,"time":"403.26","velocity":0.5590551181102362,"duration":"0.12"},{"name":"G#6","midi":92,"time":"403.26","velocity":0.1889763779527559,"duration":"0.14"},{"name":"C#5","midi":73,"time":"403.27","velocity":0.4015748031496063,"duration":"0.16"},{"name":"F#5","midi":78,"time":"403.27","velocity":0.3937007874015748,"duration":"0.15"},{"name":"G#5","midi":80,"time":"403.28","velocity":0.29133858267716534,"duration":"0.02"},{"name":"G6","midi":91,"time":"403.28","velocity":0.25196850393700787,"duration":"0.35"},{"name":"C7","midi":96,"time":"403.28","velocity":0.15748031496062992,"duration":"0.03"},{"name":"A#6","midi":94,"time":"403.29","velocity":0.10236220472440945,"duration":"0.03"},{"name":"B6","midi":95,"time":"403.30","velocity":0.25196850393700787,"duration":"0.15"},{"name":"C#2","midi":37,"time":"403.31","velocity":0.2992125984251969,"duration":"0.06"},{"name":"E5","midi":76,"time":"403.31","velocity":0.28346456692913385,"duration":"0.06"},{"name":"D#6","midi":87,"time":"403.34","velocity":0.1732283464566929,"duration":"0.07"},{"name":"C6","midi":84,"time":"403.35","velocity":0.10236220472440945,"duration":"0.03"},{"name":"D#3","midi":51,"time":"403.36","velocity":0.5354330708661418,"duration":"0.10"},{"name":"F6","midi":89,"time":"403.36","velocity":0.14960629921259844,"duration":"0.06"},{"name":"C7","midi":96,"time":"403.36","velocity":0.2047244094488189,"duration":"0.21"},{"name":"D#2","midi":39,"time":"403.37","velocity":0.33070866141732286,"duration":"0.02"},{"name":"D7","midi":98,"time":"403.37","velocity":0.2755905511811024,"duration":"0.31"},{"name":"G4","midi":67,"time":"403.38","velocity":0.4881889763779528,"duration":"0.02"},{"name":"A4","midi":69,"time":"403.38","velocity":0.6220472440944882,"duration":"0.15"},{"name":"D2","midi":38,"time":"403.40","velocity":0.4251968503937008,"duration":"0.02"},{"name":"D6","midi":86,"time":"403.40","velocity":0.3228346456692913,"duration":"0.02"},{"name":"A#6","midi":94,"time":"403.40","velocity":0.2440944881889764,"duration":"0.09"},{"name":"F#7","midi":102,"time":"403.40","velocity":0.2283464566929134,"duration":"0.51"},{"name":"G7","midi":103,"time":"403.40","velocity":0.25196850393700787,"duration":"0.16"},{"name":"G3","midi":55,"time":"403.41","velocity":0.4251968503937008,"duration":"0.03"},{"name":"E4","midi":64,"time":"403.41","velocity":0.4881889763779528,"duration":"0.02"},{"name":"G5","midi":79,"time":"403.41","velocity":0.3228346456692913,"duration":"0.03"},{"name":"C6","midi":84,"time":"403.41","velocity":0.31496062992125984,"duration":"0.03"},{"name":"G#6","midi":92,"time":"403.41","velocity":0.2677165354330709,"duration":"0.10"},{"name":"F7","midi":101,"time":"403.41","velocity":0.29133858267716534,"duration":"0.73"},{"name":"C#4","midi":61,"time":"403.42","velocity":0.48031496062992124,"duration":"0.03"},{"name":"D#5","midi":75,"time":"403.42","velocity":0.3858267716535433,"duration":"0.02"},{"name":"B5","midi":83,"time":"403.42","velocity":0.2755905511811024,"duration":"0.14"},{"name":"F#5","midi":78,"time":"403.43","velocity":0.33858267716535434,"duration":"0.36"},{"name":"A3","midi":57,"time":"403.44","velocity":0.4409448818897638,"duration":"0.03"},{"name":"F4","midi":65,"time":"403.44","velocity":0.3543307086614173,"duration":"0.03"},{"name":"E5","midi":76,"time":"403.44","velocity":0.31496062992125984,"duration":"0.09"},{"name":"C#6","midi":85,"time":"403.44","velocity":0.3464566929133858,"duration":"0.22"},{"name":"C5","midi":72,"time":"403.45","velocity":0.29133858267716534,"duration":"0.09"},{"name":"E3","midi":52,"time":"403.47","velocity":0.5275590551181102,"duration":"0.05"},{"name":"D6","midi":86,"time":"403.47","velocity":0.2204724409448819,"duration":"0.08"},{"name":"E2","midi":40,"time":"403.48","velocity":0.47244094488188976,"duration":"0.30"},{"name":"F#4","midi":66,"time":"403.48","velocity":0.33858267716535434,"duration":"0.03"},{"name":"F6","midi":89,"time":"403.48","velocity":0.2125984251968504,"duration":"0.07"},{"name":"A3","midi":57,"time":"403.50","velocity":0.33070866141732286,"duration":"0.02"},{"name":"D#4","midi":63,"time":"403.50","velocity":0.25984251968503935,"duration":"0.02"},{"name":"D#3","midi":51,"time":"403.51","velocity":0.5196850393700787,"duration":"0.01"},{"name":"D5","midi":74,"time":"403.51","velocity":0.25196850393700787,"duration":"0.05"},{"name":"E3","midi":52,"time":"403.52","velocity":0.5275590551181102,"duration":"0.12"},{"name":"F#4","midi":66,"time":"403.52","velocity":0.25196850393700787,"duration":"0.05"},{"name":"G#6","midi":92,"time":"403.52","velocity":0.2677165354330709,"duration":"0.08"},{"name":"A3","midi":57,"time":"403.53","velocity":0.4094488188976378,"duration":"0.06"},{"name":"G#4","midi":68,"time":"403.53","velocity":0.4409448818897638,"duration":"0.02"},{"name":"D#6","midi":87,"time":"403.53","velocity":0.2204724409448819,"duration":"0.07"},{"name":"D4","midi":62,"time":"403.55","velocity":0.2677165354330709,"duration":"0.14"},{"name":"A#6","midi":94,"time":"403.55","velocity":0.13385826771653545,"duration":"0.05"},{"name":"A4","midi":69,"time":"403.56","velocity":0.6220472440944882,"duration":"0.27"},{"name":"C#5","midi":73,"time":"403.56","velocity":0.25196850393700787,"duration":"0.03"},{"name":"E5","midi":76,"time":"403.56","velocity":0.33070866141732286,"duration":"0.27"},{"name":"G#5","midi":80,"time":"403.57","velocity":0.2283464566929134,"duration":"0.02"},{"name":"B5","midi":83,"time":"403.57","velocity":0.2283464566929134,"duration":"0.41"},{"name":"D#7","midi":99,"time":"403.57","velocity":0.2204724409448819,"duration":"0.20"},{"name":"C7","midi":96,"time":"403.58","velocity":0.2283464566929134,"duration":"0.09"},{"name":"D6","midi":86,"time":"403.59","velocity":0.1889763779527559,"duration":"0.21"},{"name":"F#4","midi":66,"time":"403.60","velocity":0.2204724409448819,"duration":"0.03"},{"name":"C#5","midi":73,"time":"403.60","velocity":0.15748031496062992,"duration":"0.05"},{"name":"F6","midi":89,"time":"403.60","velocity":0.09448818897637795,"duration":"0.05"},{"name":"A#6","midi":94,"time":"403.60","velocity":0.2125984251968504,"duration":"0.62"},{"name":"C6","midi":84,"time":"403.62","velocity":0.15748031496062992,"duration":"0.06"},{"name":"A#3","midi":58,"time":"403.63","velocity":0.31496062992125984,"duration":"0.03"},{"name":"D#6","midi":87,"time":"403.63","velocity":0.2283464566929134,"duration":"0.38"},{"name":"G#6","midi":92,"time":"403.63","velocity":0.11811023622047244,"duration":"0.03"},{"name":"D#3","midi":51,"time":"403.64","velocity":0.5118110236220472,"duration":"0.01"},{"name":"G6","midi":91,"time":"403.64","velocity":0.2677165354330709,"duration":"0.08"},{"name":"E3","midi":52,"time":"403.65","velocity":0.5118110236220472,"duration":"0.06"},{"name":"C#5","midi":73,"time":"403.66","velocity":0.28346456692913385,"duration":"0.12"},{"name":"G#5","midi":80,"time":"403.67","velocity":0.29133858267716534,"duration":"0.03"},{"name":"C#6","midi":85,"time":"403.67","velocity":0.3700787401574803,"duration":"0.72"},{"name":"F6","midi":89,"time":"403.67","velocity":0.07874015748031496,"duration":"0.03"},{"name":"A3","midi":57,"time":"403.69","velocity":0.33070866141732286,"duration":"0.03"},{"name":"C7","midi":96,"time":"403.69","velocity":0.2204724409448819,"duration":"0.03"},{"name":"D4","midi":62,"time":"403.70","velocity":0.28346456692913385,"duration":"0.03"},{"name":"E3","midi":52,"time":"403.72","velocity":0.4881889763779528,"duration":"0.07"},{"name":"D4","midi":62,"time":"403.74","velocity":0.3228346456692913,"duration":"0.05"},{"name":"G5","midi":79,"time":"403.74","velocity":0.2125984251968504,"duration":"0.05"},{"name":"C6","midi":84,"time":"403.74","velocity":0.1968503937007874,"duration":"0.10"},{"name":"G6","midi":91,"time":"403.74","velocity":0.29133858267716534,"duration":"0.43"},{"name":"F2","midi":41,"time":"403.78","velocity":0.5118110236220472,"duration":"0.01"},{"name":"G#6","midi":92,"time":"403.78","velocity":0.14960629921259844,"duration":"0.06"},{"name":"D#7","midi":99,"time":"403.78","velocity":0.4015748031496063,"duration":"1.66"},{"name":"D#3","midi":51,"time":"403.79","velocity":0.49606299212598426,"duration":"0.02"},{"name":"C4","midi":60,"time":"403.79","velocity":0.2755905511811024,"duration":"0.02"},{"name":"G#5","midi":80,"time":"403.79","velocity":0.2992125984251969,"duration":"0.02"},{"name":"D#2","midi":39,"time":"403.80","velocity":0.4015748031496063,"duration":"0.05"},{"name":"F4","midi":65,"time":"403.80","velocity":0.2677165354330709,"duration":"0.02"},{"name":"A#4","midi":70,"time":"403.80","velocity":0.2992125984251969,"duration":"0.03"},{"name":"D7","midi":98,"time":"403.80","velocity":0.16535433070866143,"duration":"0.06"},{"name":"E3","midi":52,"time":"403.81","velocity":0.5275590551181102,"duration":"0.10"},{"name":"A#3","midi":58,"time":"403.81","velocity":0.29133858267716534,"duration":"0.02"},{"name":"C#5","midi":73,"time":"403.81","velocity":0.30708661417322836,"duration":"0.21"},{"name":"G5","midi":79,"time":"403.81","velocity":0.14960629921259844,"duration":"0.03"},{"name":"F6","midi":89,"time":"403.81","velocity":0.2047244094488189,"duration":"0.05"},{"name":"G#4","midi":68,"time":"403.83","velocity":0.3543307086614173,"duration":"0.02"},{"name":"F#5","midi":78,"time":"403.83","velocity":0.14960629921259844,"duration":"0.06"},{"name":"E5","midi":76,"time":"403.84","velocity":0.41732283464566927,"duration":"0.52"},{"name":"E2","midi":40,"time":"403.85","velocity":0.4094488188976378,"duration":"0.07"},{"name":"A4","midi":69,"time":"403.85","velocity":0.5748031496062992,"duration":"0.26"},{"name":"A#3","midi":58,"time":"403.86","velocity":0.25984251968503935,"duration":"0.02"},{"name":"C6","midi":84,"time":"403.87","velocity":0.13385826771653545,"duration":"0.03"},{"name":"G#6","midi":92,"time":"403.87","velocity":0.2204724409448819,"duration":"0.10"},{"name":"D7","midi":98,"time":"403.87","velocity":0.2204724409448819,"duration":"0.09"},{"name":"D4","midi":62,"time":"403.88","velocity":0.2440944881889764,"duration":"0.05"},{"name":"A#3","midi":58,"time":"403.91","velocity":0.28346456692913385,"duration":"0.03"},{"name":"D#3","midi":51,"time":"403.92","velocity":0.5196850393700787,"duration":"0.01"},{"name":"F#5","midi":78,"time":"403.92","velocity":0.15748031496062992,"duration":"0.05"},{"name":"E2","midi":40,"time":"403.93","velocity":0.4251968503937008,"duration":"0.06"},{"name":"E3","midi":52,"time":"403.93","velocity":0.5118110236220472,"duration":"0.06"},{"name":"F#4","midi":66,"time":"403.93","velocity":0.15748031496062992,"duration":"0.03"},{"name":"F5","midi":77,"time":"403.93","velocity":0.14173228346456693,"duration":"0.03"},{"name":"C6","midi":84,"time":"403.94","velocity":0.15748031496062992,"duration":"0.05"},{"name":"A#3","midi":58,"time":"403.95","velocity":0.30708661417322836,"duration":"0.02"},{"name":"G5","midi":79,"time":"403.97","velocity":0.12598425196850394,"duration":"0.05"},{"name":"B3","midi":59,"time":"403.98","velocity":0.25196850393700787,"duration":"0.05"},{"name":"D#3","midi":51,"time":"403.99","velocity":0.5196850393700787,"duration":"0.01"},{"name":"E2","midi":40,"time":"404.00","velocity":0.4645669291338583,"duration":"0.14"},{"name":"E3","midi":52,"time":"404.00","velocity":0.5196850393700787,"duration":"0.12"},{"name":"F#5","midi":78,"time":"404.00","velocity":0.33070866141732286,"duration":"0.10"},{"name":"B5","midi":83,"time":"404.00","velocity":0.2677165354330709,"duration":"0.15"},{"name":"D6","midi":86,"time":"404.00","velocity":0.1732283464566929,"duration":"0.07"},{"name":"A#3","midi":58,"time":"404.02","velocity":0.30708661417322836,"duration":"0.02"},{"name":"D5","midi":74,"time":"404.02","velocity":0.29133858267716534,"duration":"0.02"},{"name":"F6","midi":89,"time":"404.02","velocity":0.2204724409448819,"duration":"0.07"},{"name":"D4","midi":62,"time":"404.03","velocity":0.2125984251968504,"duration":"0.03"},{"name":"C#5","midi":73,"time":"404.03","velocity":0.23622047244094488,"duration":"0.07"},{"name":"C7","midi":96,"time":"404.05","velocity":0.16535433070866143,"duration":"0.06"},{"name":"B6","midi":95,"time":"404.07","velocity":0.31496062992125984,"duration":"0.48"},{"name":"D#6","midi":87,"time":"404.08","velocity":0.08661417322834646,"duration":"0.03"},{"name":"G#6","midi":92,"time":"404.08","velocity":0.2204724409448819,"duration":"0.05"},{"name":"C6","midi":84,"time":"404.09","velocity":0.2283464566929134,"duration":"0.12"},{"name":"D6","midi":86,"time":"404.09","velocity":0.16535433070866143,"duration":"0.07"},{"name":"D7","midi":98,"time":"404.09","velocity":0.2204724409448819,"duration":"0.17"},{"name":"G#4","midi":68,"time":"404.10","velocity":0.3937007874015748,"duration":"0.02"},{"name":"D5","midi":74,"time":"404.10","velocity":0.1968503937007874,"duration":"0.03"},{"name":"F6","midi":89,"time":"404.10","velocity":0.2047244094488189,"duration":"0.03"},{"name":"F#4","midi":66,"time":"404.12","velocity":0.4015748031496063,"duration":"0.07"},{"name":"F#6","midi":90,"time":"404.12","velocity":0.4015748031496063,"duration":"1.17"},{"name":"E3","midi":52,"time":"404.13","velocity":0.4645669291338583,"duration":"0.03"},{"name":"A4","midi":69,"time":"404.13","velocity":0.41732283464566927,"duration":"0.03"},{"name":"C#5","midi":73,"time":"404.13","velocity":0.2677165354330709,"duration":"0.05"},{"name":"E2","midi":40,"time":"404.15","velocity":0.5275590551181102,"duration":"0.01"},{"name":"G5","midi":79,"time":"404.15","velocity":0.18110236220472442,"duration":"0.03"},{"name":"G#6","midi":92,"time":"404.15","velocity":0.1968503937007874,"duration":"0.09"},{"name":"D#2","midi":39,"time":"404.16","velocity":0.5826771653543307,"duration":"0.01"},{"name":"F7","midi":101,"time":"404.16","velocity":0.2047244094488189,"duration":"0.47"},{"name":"E2","midi":40,"time":"404.17","velocity":0.6141732283464567,"duration":"0.01"},{"name":"A4","midi":69,"time":"404.17","velocity":0.5196850393700787,"duration":"0.05"},{"name":"D5","midi":74,"time":"404.17","velocity":0.2755905511811024,"duration":"0.03"},{"name":"G#2","midi":44,"time":"404.19","velocity":0.5826771653543307,"duration":"0.01"},{"name":"C4","midi":60,"time":"404.19","velocity":0.23622047244094488,"duration":"0.02"},{"name":"G6","midi":91,"time":"404.19","velocity":0.2125984251968504,"duration":"0.12"},{"name":"G2","midi":43,"time":"404.20","velocity":0.5669291338582677,"duration":"0.01"},{"name":"F3","midi":53,"time":"404.20","velocity":0.5275590551181102,"duration":"0.03"},{"name":"C#5","midi":73,"time":"404.20","velocity":0.2677165354330709,"duration":"0.15"},{"name":"G#1","midi":32,"time":"404.21","velocity":0.5433070866141733,"duration":"0.01"},{"name":"B5","midi":83,"time":"404.21","velocity":0.3228346456692913,"duration":"0.07"},{"name":"F6","midi":89,"time":"404.21","velocity":0.2125984251968504,"duration":"0.03"},{"name":"G1","midi":31,"time":"404.22","velocity":0.5354330708661418,"duration":"0.01"},{"name":"A#4","midi":70,"time":"404.22","velocity":0.44881889763779526,"duration":"0.02"},{"name":"C6","midi":84,"time":"404.22","velocity":0.25196850393700787,"duration":"0.02"},{"name":"F#3","midi":54,"time":"404.23","velocity":0.4645669291338583,"duration":"0.03"},{"name":"D#6","midi":87,"time":"404.23","velocity":0.10236220472440945,"duration":"0.03"},{"name":"D4","midi":62,"time":"404.24","velocity":0.30708661417322836,"duration":"0.09"},{"name":"B4","midi":71,"time":"404.24","velocity":0.5118110236220472,"duration":"0.03"},{"name":"F#5","midi":78,"time":"404.24","velocity":0.2204724409448819,"duration":"0.10"},{"name":"F2","midi":41,"time":"404.26","velocity":0.49606299212598426,"duration":"0.02"},{"name":"F6","midi":89,"time":"404.26","velocity":0.2283464566929134,"duration":"0.03"},{"name":"A#6","midi":94,"time":"404.26","velocity":0.2204724409448819,"duration":"0.08"},{"name":"A#5","midi":82,"time":"404.27","velocity":0.28346456692913385,"duration":"0.03"},{"name":"G#6","midi":92,"time":"404.27","velocity":0.11023622047244094,"duration":"0.09"},{"name":"A#3","midi":58,"time":"404.28","velocity":0.33858267716535434,"duration":"0.02"},{"name":"A#4","midi":70,"time":"404.28","velocity":0.5196850393700787,"duration":"0.02"},{"name":"G#5","midi":80,"time":"404.28","velocity":0.36220472440944884,"duration":"0.26"},{"name":"C6","midi":84,"time":"404.28","velocity":0.2283464566929134,"duration":"0.02"},{"name":"F#2","midi":42,"time":"404.29","velocity":0.5118110236220472,"duration":"0.01"},{"name":"B5","midi":83,"time":"404.29","velocity":0.4566929133858268,"duration":"0.20"},{"name":"F#3","midi":54,"time":"404.30","velocity":0.4251968503937008,"duration":"0.05"},{"name":"F#2","midi":42,"time":"404.31","velocity":0.5354330708661418,"duration":"0.09"},{"name":"G#4","midi":68,"time":"404.31","velocity":0.33858267716535434,"duration":"0.09"},{"name":"A#4","midi":70,"time":"404.31","velocity":0.47244094488188976,"duration":"0.03"},{"name":"G6","midi":91,"time":"404.31","velocity":0.23622047244094488,"duration":"0.05"},{"name":"D#6","midi":87,"time":"404.33","velocity":0.1968503937007874,"duration":"0.12"},{"name":"F6","midi":89,"time":"404.33","velocity":0.1732283464566929,"duration":"0.05"},{"name":"D4","midi":62,"time":"404.35","velocity":0.2125984251968504,"duration":"0.06"},{"name":"B4","midi":71,"time":"404.35","velocity":0.5669291338582677,"duration":"0.14"},{"name":"D6","midi":86,"time":"404.35","velocity":0.14960629921259844,"duration":"0.12"},{"name":"A#6","midi":94,"time":"404.35","velocity":0.1889763779527559,"duration":"0.10"},{"name":"D#5","midi":75,"time":"404.36","velocity":0.1889763779527559,"duration":"0.03"},{"name":"F#5","midi":78,"time":"404.36","velocity":0.3937007874015748,"duration":"0.58"},{"name":"D5","midi":74,"time":"404.40","velocity":0.29133858267716534,"duration":"0.23"},{"name":"D7","midi":98,"time":"404.40","velocity":0.1889763779527559,"duration":"0.07"},{"name":"F2","midi":41,"time":"404.41","velocity":0.5118110236220472,"duration":"0.01"},{"name":"F5","midi":77,"time":"404.41","velocity":0.2047244094488189,"duration":"0.03"},{"name":"F#2","midi":42,"time":"404.42","velocity":0.6850393700787402,"duration":"0.14"},{"name":"E7","midi":100,"time":"404.42","velocity":0.2125984251968504,"duration":"0.41"},{"name":"G7","midi":103,"time":"404.42","velocity":0.14960629921259844,"duration":"0.07"},{"name":"A6","midi":93,"time":"404.43","velocity":0.3228346456692913,"duration":"0.21"},{"name":"E5","midi":76,"time":"404.44","velocity":0.2440944881889764,"duration":"0.12"},{"name":"C7","midi":96,"time":"404.44","velocity":0.11023622047244094,"duration":"0.03"},{"name":"D#6","midi":87,"time":"404.45","velocity":0.13385826771653545,"duration":"0.08"},{"name":"C#6","midi":85,"time":"404.47","velocity":0.2283464566929134,"duration":"0.08"},{"name":"A#4","midi":70,"time":"404.48","velocity":0.47244094488188976,"duration":"0.02"},{"name":"B3","midi":59,"time":"404.49","velocity":0.3937007874015748,"duration":"0.06"},{"name":"C6","midi":84,"time":"404.49","velocity":0.23622047244094488,"duration":"0.06"},{"name":"B4","midi":71,"time":"404.50","velocity":0.5590551181102362,"duration":"0.06"},{"name":"A4","midi":69,"time":"404.51","velocity":0.3543307086614173,"duration":"0.02"},{"name":"G6","midi":91,"time":"404.52","velocity":0.12598425196850394,"duration":"0.03"},{"name":"D7","midi":98,"time":"404.52","velocity":0.14173228346456693,"duration":"0.09"},{"name":"G4","midi":67,"time":"404.53","velocity":0.33858267716535434,"duration":"0.02"},{"name":"G7","midi":103,"time":"404.53","velocity":0.1732283464566929,"duration":"0.08"},{"name":"A4","midi":69,"time":"404.55","velocity":0.3937007874015748,"duration":"0.02"},{"name":"D#6","midi":87,"time":"404.55","velocity":0.2677165354330709,"duration":"0.09"},{"name":"G2","midi":43,"time":"404.56","velocity":0.6299212598425197,"duration":"0.02"},{"name":"F#4","midi":66,"time":"404.56","velocity":0.28346456692913385,"duration":"0.03"},{"name":"G#5","midi":80,"time":"404.56","velocity":0.3700787401574803,"duration":"0.40"},{"name":"C6","midi":84,"time":"404.56","velocity":0.23622047244094488,"duration":"0.03"},{"name":"C#6","midi":85,"time":"404.56","velocity":0.33070866141732286,"duration":"0.45"},{"name":"G#1","midi":32,"time":"404.57","velocity":0.5433070866141733,"duration":"0.01"},{"name":"D4","midi":62,"time":"404.57","velocity":0.2440944881889764,"duration":"0.03"},{"name":"B4","midi":71,"time":"404.57","velocity":0.5196850393700787,"duration":"0.08"},{"name":"F1","midi":29,"time":"404.58","velocity":0.6062992125984252,"duration":"0.01"},{"name":"F6","midi":89,"time":"404.58","velocity":0.1889763779527559,"duration":"0.05"},{"name":"F#1","midi":30,"time":"404.59","velocity":0.6062992125984252,"duration":"0.01"},{"name":"F#3","midi":54,"time":"404.59","velocity":0.3937007874015748,"duration":"0.03"},{"name":"G6","midi":91,"time":"404.59","velocity":0.1968503937007874,"duration":"0.20"},{"name":"E2","midi":40,"time":"404.60","velocity":0.5984251968503937,"duration":"0.01"},{"name":"B3","midi":59,"time":"404.60","velocity":0.25196850393700787,"duration":"0.02"},{"name":"A#6","midi":94,"time":"404.60","velocity":0.2677165354330709,"duration":"0.52"},{"name":"C7","midi":96,"time":"404.60","velocity":0.25196850393700787,"duration":"0.21"},{"name":"F2","midi":41,"time":"404.62","velocity":0.5354330708661418,"duration":"0.01"},{"name":"A#3","midi":58,"time":"404.63","velocity":0.33858267716535434,"duration":"0.02"},{"name":"A5","midi":81,"time":"404.63","velocity":0.16535433070866143,"duration":"0.07"},{"name":"F#2","midi":42,"time":"404.64","velocity":0.5354330708661418,"duration":"0.03"},{"name":"D5","midi":74,"time":"404.64","velocity":0.16535433070866143,"duration":"0.05"},{"name":"E6","midi":88,"time":"404.64","velocity":0.25984251968503935,"duration":"0.12"},{"name":"E5","midi":76,"time":"404.65","velocity":0.14960629921259844,"duration":"0.05"},{"name":"A4","midi":69,"time":"404.66","velocity":0.28346456692913385,"duration":"0.03"},{"name":"B4","midi":71,"time":"404.66","velocity":0.5748031496062992,"duration":"0.20"},{"name":"D#6","midi":87,"time":"404.66","velocity":0.2677165354330709,"duration":"0.22"},{"name":"F2","midi":41,"time":"404.67","velocity":0.5275590551181102,"duration":"0.01"},{"name":"A6","midi":93,"time":"404.67","velocity":0.31496062992125984,"duration":"1.02"},{"name":"F7","midi":101,"time":"404.67","velocity":0.14173228346456693,"duration":"0.05"},{"name":"F#2","midi":42,"time":"404.69","velocity":0.5275590551181102,"duration":"0.09"},{"name":"C#4","midi":61,"time":"404.69","velocity":0.3228346456692913,"duration":"0.02"},{"name":"C4","midi":60,"time":"404.71","velocity":0.29133858267716534,"duration":"0.02"},{"name":"D4","midi":62,"time":"404.72","velocity":0.36220472440944884,"duration":"0.03"},{"name":"F6","midi":89,"time":"404.72","velocity":0.14173228346456693,"duration":"0.09"},{"name":"A5","midi":81,"time":"404.73","velocity":0.3464566929133858,"duration":"0.12"},{"name":"F7","midi":101,"time":"404.74","velocity":0.14960629921259844,"duration":"0.03"},{"name":"E5","midi":76,"time":"404.76","velocity":0.25984251968503935,"duration":"0.16"},{"name":"D4","midi":62,"time":"404.77","velocity":0.25196850393700787,"duration":"0.02"},{"name":"F2","midi":41,"time":"404.78","velocity":0.5354330708661418,"duration":"0.01"},{"name":"E6","midi":88,"time":"404.78","velocity":0.28346456692913385,"duration":"0.12"},{"name":"F#2","midi":42,"time":"404.79","velocity":0.5433070866141733,"duration":"0.13"},{"name":"G#4","midi":68,"time":"404.80","velocity":0.2204724409448819,"duration":"0.06"},{"name":"D6","midi":86,"time":"404.81","velocity":0.14173228346456693,"duration":"0.05"},{"name":"F7","midi":101,"time":"404.81","velocity":0.2992125984251969,"duration":"3.52"},{"name":"D4","midi":62,"time":"404.83","velocity":0.33070866141732286,"duration":"0.08"},{"name":"C7","midi":96,"time":"404.83","velocity":0.28346456692913385,"duration":"0.21"},{"name":"E7","midi":100,"time":"404.85","velocity":0.29133858267716534,"duration":"0.78"},{"name":"C5","midi":72,"time":"404.86","velocity":0.5196850393700787,"duration":"0.02"},{"name":"D5","midi":74,"time":"404.86","velocity":0.3464566929133858,"duration":"0.06"},{"name":"A5","midi":81,"time":"404.86","velocity":0.14960629921259844,"duration":"0.05"},{"name":"B3","midi":59,"time":"404.88","velocity":0.4251968503937008,"duration":"0.03"},{"name":"G#4","midi":68,"time":"404.88","velocity":0.25196850393700787,"duration":"0.02"},{"name":"B4","midi":71,"time":"404.88","velocity":0.5984251968503937,"duration":"0.05"},{"name":"G6","midi":91,"time":"404.90","velocity":0.28346456692913385,"duration":"0.17"},{"name":"G3","midi":55,"time":"404.91","velocity":0.48031496062992124,"duration":"0.05"},{"name":"E6","midi":88,"time":"404.91","velocity":0.33858267716535434,"duration":"0.58"},{"name":"G2","midi":43,"time":"404.92","velocity":0.5196850393700787,"duration":"0.01"},{"name":"C4","midi":60,"time":"404.92","velocity":0.49606299212598426,"duration":"0.02"},{"name":"G#4","midi":68,"time":"404.92","velocity":0.5196850393700787,"duration":"0.02"},{"name":"D#5","midi":75,"time":"404.92","velocity":0.3700787401574803,"duration":"0.03"},{"name":"A5","midi":81,"time":"404.92","velocity":0.3464566929133858,"duration":"0.17"},{"name":"G#2","midi":44,"time":"404.93","velocity":0.5196850393700787,"duration":"0.01"},{"name":"A#4","midi":70,"time":"404.94","velocity":0.47244094488188976,"duration":"0.02"},{"name":"C5","midi":72,"time":"404.94","velocity":0.33858267716535434,"duration":"0.02"},{"name":"E5","midi":76,"time":"404.94","velocity":0.33070866141732286,"duration":"0.06"},{"name":"F4","midi":65,"time":"404.95","velocity":0.4094488188976378,"duration":"0.02"},{"name":"G2","midi":43,"time":"404.97","velocity":0.5118110236220472,"duration":"0.01"},{"name":"B4","midi":71,"time":"404.97","velocity":0.5039370078740157,"duration":"0.06"},{"name":"D5","midi":74,"time":"404.97","velocity":0.2755905511811024,"duration":"0.02"},{"name":"F#5","midi":78,"time":"404.97","velocity":0.30708661417322836,"duration":"0.08"},{"name":"G#5","midi":80,"time":"404.97","velocity":0.1968503937007874,"duration":"0.03"},{"name":"G#2","midi":44,"time":"404.98","velocity":0.5669291338582677,"duration":"0.31"},{"name":"F#4","midi":66,"time":"404.98","velocity":0.3700787401574803,"duration":"0.03"},{"name":"G#6","midi":92,"time":"404.98","velocity":0.3228346456692913,"duration":"0.59"},{"name":"C#5","midi":73,"time":"404.99","velocity":0.23622047244094488,"duration":"0.02"},{"name":"D6","midi":86,"time":"404.99","velocity":0.1732283464566929,"duration":"0.06"},{"name":"C4","midi":60,"time":"405.01","velocity":0.3858267716535433,"duration":"0.02"},{"name":"C6","midi":84,"time":"405.01","velocity":0.2677165354330709,"duration":"0.06"},{"name":"C#5","midi":73,"time":"405.02","velocity":0.4015748031496063,"duration":"0.07"},{"name":"F5","midi":77,"time":"405.02","velocity":0.33070866141732286,"duration":"0.08"},{"name":"G#5","midi":80,"time":"405.02","velocity":0.1889763779527559,"duration":"0.05"},{"name":"A4","midi":69,"time":"405.03","velocity":0.3543307086614173,"duration":"0.02"},{"name":"B4","midi":71,"time":"405.03","velocity":0.5590551181102362,"duration":"0.06"},{"name":"F#5","midi":78,"time":"405.06","velocity":0.31496062992125984,"duration":"0.21"},{"name":"D#6","midi":87,"time":"405.06","velocity":0.23622047244094488,"duration":"0.09"},{"name":"A4","midi":69,"time":"405.07","velocity":0.3779527559055118,"duration":"0.02"},{"name":"D7","midi":98,"time":"405.07","velocity":0.09448818897637795,"duration":"0.07"},{"name":"G#5","midi":80,"time":"405.08","velocity":0.33070866141732286,"duration":"0.36"},{"name":"G6","midi":91,"time":"405.08","velocity":0.18110236220472442,"duration":"0.03"},{"name":"C#4","midi":61,"time":"405.09","velocity":0.3937007874015748,"duration":"0.05"},{"name":"D5","midi":74,"time":"405.09","velocity":0.2755905511811024,"duration":"0.02"},{"name":"B4","midi":71,"time":"405.10","velocity":0.5118110236220472,"duration":"0.07"},{"name":"E5","midi":76,"time":"405.10","velocity":0.33858267716535434,"duration":"0.38"},{"name":"C6","midi":84,"time":"405.10","velocity":0.33858267716535434,"duration":"0.02"},{"name":"A4","midi":69,"time":"405.12","velocity":0.4409448818897638,"duration":"0.02"},{"name":"C#4","midi":61,"time":"405.15","velocity":0.3228346456692913,"duration":"0.05"},{"name":"A4","midi":69,"time":"405.15","velocity":0.4094488188976378,"duration":"0.03"},{"name":"A#6","midi":94,"time":"405.15","velocity":0.23622047244094488,"duration":"0.21"},{"name":"D#6","midi":87,"time":"405.16","velocity":0.18110236220472442,"duration":"0.06"},{"name":"C5","midi":72,"time":"405.17","velocity":0.3464566929133858,"duration":"0.02"},{"name":"D7","midi":98,"time":"405.17","velocity":0.2992125984251969,"duration":"0.81"},{"name":"B5","midi":83,"time":"405.19","velocity":0.44881889763779526,"duration":"0.58"},{"name":"A4","midi":69,"time":"405.20","velocity":0.30708661417322836,"duration":"0.02"},{"name":"B4","midi":71,"time":"405.20","velocity":0.44881889763779526,"duration":"0.03"},{"name":"C#5","midi":73,"time":"405.20","velocity":0.18110236220472442,"duration":"0.05"},{"name":"G6","midi":91,"time":"405.20","velocity":0.23622047244094488,"duration":"0.14"},{"name":"C#4","midi":61,"time":"405.22","velocity":0.3937007874015748,"duration":"0.06"},{"name":"C7","midi":96,"time":"405.23","velocity":0.2047244094488189,"duration":"0.20"},{"name":"D#6","midi":87,"time":"405.24","velocity":0.1732283464566929,"duration":"0.07"},{"name":"B4","midi":71,"time":"405.26","velocity":0.6062992125984252,"duration":"0.30"},{"name":"A4","midi":69,"time":"405.27","velocity":0.33070866141732286,"duration":"0.03"},{"name":"D6","midi":86,"time":"405.27","velocity":0.12598425196850394,"duration":"0.03"},{"name":"F#4","midi":66,"time":"405.28","velocity":0.31496062992125984,"duration":"0.05"},{"name":"F2","midi":41,"time":"405.29","velocity":0.5590551181102362,"duration":"0.01"},{"name":"B2","midi":47,"time":"405.29","velocity":0.5275590551181102,"duration":"0.01"},{"name":"D#2","midi":39,"time":"405.30","velocity":0.6062992125984252,"duration":"0.01"},{"name":"F#6","midi":90,"time":"405.30","velocity":0.41732283464566927,"duration":"0.31"},{"name":"E2","midi":40,"time":"405.31","velocity":0.6141732283464567,"duration":"0.01"},{"name":"F#2","midi":42,"time":"405.33","velocity":0.5669291338582677,"duration":"0.01"},{"name":"E4","midi":64,"time":"405.33","velocity":0.29133858267716534,"duration":"0.07"},{"name":"D#6","midi":87,"time":"405.33","velocity":0.12598425196850394,"duration":"0.03"},{"name":"D#1","midi":27,"time":"405.34","velocity":0.5354330708661418,"duration":"0.01"},{"name":"G#2","midi":44,"time":"405.34","velocity":0.5905511811023622,"duration":"0.08"},{"name":"C#5","midi":73,"time":"405.34","velocity":0.33070866141732286,"duration":"0.05"},{"name":"F1","midi":29,"time":"405.35","velocity":0.5590551181102362,"duration":"0.01"},{"name":"G#4","midi":68,"time":"405.35","velocity":0.2204724409448819,"duration":"0.03"},{"name":"A#1","midi":34,"time":"405.36","velocity":0.5433070866141733,"duration":"0.01"},{"name":"G5","midi":79,"time":"405.36","velocity":0.2992125984251969,"duration":"0.12"},{"name":"D#6","midi":87,"time":"405.37","velocity":0.23622047244094488,"duration":"0.30"},{"name":"A#6","midi":94,"time":"405.37","velocity":0.2283464566929134,"duration":"0.22"},{"name":"D#3","midi":51,"time":"405.40","velocity":0.4015748031496063,"duration":"0.02"},{"name":"G#4","midi":68,"time":"405.40","velocity":0.2204724409448819,"duration":"0.07"},{"name":"D6","midi":86,"time":"405.40","velocity":0.2755905511811024,"duration":"0.12"},{"name":"E4","midi":64,"time":"405.41","velocity":0.30708661417322836,"duration":"0.05"},{"name":"G2","midi":43,"time":"405.42","velocity":0.5196850393700787,"duration":"0.01"},{"name":"G#2","midi":44,"time":"405.43","velocity":0.5669291338582677,"duration":"0.22"},{"name":"C#4","midi":61,"time":"405.43","velocity":0.25196850393700787,"duration":"0.03"},{"name":"F6","midi":89,"time":"405.44","velocity":0.2047244094488189,"duration":"0.15"},{"name":"F#4","midi":66,"time":"405.45","velocity":0.11811023622047244,"duration":"0.03"},{"name":"G#5","midi":80,"time":"405.45","velocity":0.3779527559055118,"duration":"0.21"},{"name":"D#7","midi":99,"time":"405.45","velocity":0.31496062992125984,"duration":"0.98"},{"name":"E4","midi":64,"time":"405.48","velocity":0.33858267716535434,"duration":"0.19"},{"name":"F#5","midi":78,"time":"405.48","velocity":0.3228346456692913,"duration":"0.06"},{"name":"C7","midi":96,"time":"405.48","velocity":0.2047244094488189,"duration":"0.08"},{"name":"G1","midi":31,"time":"405.50","velocity":0.3228346456692913,"duration":"0.02"},{"name":"E6","midi":88,"time":"405.51","velocity":0.3543307086614173,"duration":"0.30"},{"name":"A5","midi":81,"time":"405.52","velocity":0.33070866141732286,"duration":"0.10"},{"name":"D6","midi":86,"time":"405.53","velocity":0.2283464566929134,"duration":"0.20"},{"name":"E5","midi":76,"time":"405.55","velocity":0.4094488188976378,"duration":"0.27"},{"name":"F#5","midi":78,"time":"405.55","velocity":0.1968503937007874,"duration":"0.03"},{"name":"C#6","midi":85,"time":"405.55","velocity":0.5275590551181102,"duration":"2.01"},{"name":"B4","midi":71,"time":"405.57","velocity":0.5354330708661418,"duration":"0.16"},{"name":"C7","midi":96,"time":"405.57","velocity":0.13385826771653545,"duration":"0.07"},{"name":"C#5","midi":73,"time":"405.58","velocity":0.29133858267716534,"duration":"0.03"},{"name":"A4","midi":69,"time":"405.59","velocity":0.29133858267716534,"duration":"0.02"},{"name":"B3","midi":59,"time":"405.60","velocity":0.3858267716535433,"duration":"0.05"},{"name":"F#5","midi":78,"time":"405.62","velocity":0.16535433070866143,"duration":"0.05"},{"name":"G#4","midi":68,"time":"405.63","velocity":0.3700787401574803,"duration":"0.03"},{"name":"F#6","midi":90,"time":"405.63","velocity":0.2677165354330709,"duration":"0.28"},{"name":"E3","midi":52,"time":"405.64","velocity":0.44881889763779526,"duration":"0.02"},{"name":"A5","midi":81,"time":"405.64","velocity":0.29133858267716534,"duration":"0.07"},{"name":"D2","midi":38,"time":"405.65","velocity":0.5669291338582677,"duration":"0.01"},{"name":"C#5","midi":73,"time":"405.65","velocity":0.3464566929133858,"duration":"0.05"},{"name":"A#6","midi":94,"time":"405.65","velocity":0.18110236220472442,"duration":"0.12"},{"name":"E2","midi":40,"time":"405.66","velocity":0.6299212598425197,"duration":"0.01"},{"name":"F#4","midi":66,"time":"405.66","velocity":0.29133858267716534,"duration":"0.03"},{"name":"D#5","midi":75,"time":"405.66","velocity":0.29133858267716534,"duration":"0.03"},{"name":"G5","midi":79,"time":"405.66","velocity":0.23622047244094488,"duration":"0.03"},{"name":"G#2","midi":44,"time":"405.67","velocity":0.5748031496062992,"duration":"0.01"},{"name":"B2","midi":47,"time":"405.69","velocity":0.5196850393700787,"duration":"0.02"},{"name":"F#5","midi":78,"time":"405.69","velocity":0.30708661417322836,"duration":"0.07"},{"name":"E1","midi":28,"time":"405.70","velocity":0.48031496062992124,"duration":"0.02"},{"name":"C#4","midi":61,"time":"405.70","velocity":0.2677165354330709,"duration":"0.03"},{"name":"F4","midi":65,"time":"405.70","velocity":0.25984251968503935,"duration":"0.03"},{"name":"G#5","midi":80,"time":"405.70","velocity":0.3228346456692913,"duration":"0.23"},{"name":"A2","midi":45,"time":"405.71","velocity":0.6299212598425197,"duration":"0.33"},{"name":"A5","midi":81,"time":"405.72","velocity":0.2204724409448819,"duration":"0.03"},{"name":"F6","midi":89,"time":"405.72","velocity":0.1889763779527559,"duration":"0.15"},{"name":"C7","midi":96,"time":"405.72","velocity":0.18110236220472442,"duration":"0.03"},{"name":"C5","midi":72,"time":"405.73","velocity":0.5196850393700787,"duration":"0.03"},{"name":"D#6","midi":87,"time":"405.73","velocity":0.18110236220472442,"duration":"0.05"},{"name":"A#3","midi":58,"time":"405.76","velocity":0.2440944881889764,"duration":"0.02"},{"name":"E4","midi":64,"time":"405.76","velocity":0.23622047244094488,"duration":"0.02"},{"name":"G4","midi":67,"time":"405.76","velocity":0.2677165354330709,"duration":"0.05"},{"name":"C#5","midi":73,"time":"405.77","velocity":0.5275590551181102,"duration":"0.02"},{"name":"A5","midi":81,"time":"405.77","velocity":0.1968503937007874,"duration":"0.05"},{"name":"B4","midi":71,"time":"405.78","velocity":0.2677165354330709,"duration":"0.03"},{"name":"F5","midi":77,"time":"405.78","velocity":0.14173228346456693,"duration":"0.03"},{"name":"B5","midi":83,"time":"405.78","velocity":0.31496062992125984,"duration":"0.17"},{"name":"E4","midi":64,"time":"405.79","velocity":0.16535433070866143,"duration":"0.03"},{"name":"A4","midi":69,"time":"405.79","velocity":0.47244094488188976,"duration":"0.28"},{"name":"C#4","midi":61,"time":"405.80","velocity":0.2677165354330709,"duration":"0.05"},{"name":"C#5","midi":73,"time":"405.80","velocity":0.5590551181102362,"duration":"0.05"},{"name":"C7","midi":96,"time":"405.80","velocity":0.2125984251968504,"duration":"0.33"},{"name":"F#4","midi":66,"time":"405.81","velocity":0.1889763779527559,"duration":"0.05"},{"name":"D#6","midi":87,"time":"405.81","velocity":0.13385826771653545,"duration":"0.14"},{"name":"E5","midi":76,"time":"405.83","velocity":0.13385826771653545,"duration":"0.05"},{"name":"A#6","midi":94,"time":"405.83","velocity":0.25196850393700787,"duration":"0.27"},{"name":"E4","midi":64,"time":"405.84","velocity":0.2992125984251969,"duration":"0.15"},{"name":"F5","midi":77,"time":"405.84","velocity":0.11023622047244094,"duration":"0.03"},{"name":"C5","midi":72,"time":"405.85","velocity":0.49606299212598426,"duration":"0.05"},{"name":"E6","midi":88,"time":"405.85","velocity":0.2283464566929134,"duration":"0.31"},{"name":"C#4","midi":61,"time":"405.86","velocity":0.3779527559055118,"duration":"0.21"},{"name":"D#5","midi":75,"time":"405.86","velocity":0.28346456692913385,"duration":"0.06"},{"name":"G7","midi":103,"time":"405.87","velocity":0.09448818897637795,"duration":"0.06"},{"name":"E3","midi":52,"time":"405.88","velocity":0.3228346456692913,"duration":"0.03"},{"name":"B4","midi":71,"time":"405.90","velocity":0.2992125984251969,"duration":"0.02"},{"name":"C#5","midi":73,"time":"405.90","velocity":0.4566929133858268,"duration":"0.13"},{"name":"F#4","midi":66,"time":"405.91","velocity":0.2047244094488189,"duration":"0.03"},{"name":"F#5","midi":78,"time":"405.91","velocity":0.29133858267716534,"duration":"0.16"},{"name":"F3","midi":53,"time":"405.94","velocity":0.25984251968503935,"duration":"0.02"},{"name":"G4","midi":67,"time":"405.97","velocity":0.31496062992125984,"duration":"0.02"},{"name":"B4","midi":71,"time":"405.97","velocity":0.3464566929133858,"duration":"0.03"},{"name":"G#5","midi":80,"time":"405.97","velocity":0.3779527559055118,"duration":"0.07"},{"name":"A6","midi":93,"time":"405.99","velocity":0.07086614173228346,"duration":"0.03"},{"name":"B6","midi":95,"time":"406.00","velocity":0.1968503937007874,"duration":"0.16"},{"name":"E4","midi":64,"time":"406.02","velocity":0.31496062992125984,"duration":"0.03"},{"name":"B5","midi":83,"time":"406.02","velocity":0.3228346456692913,"duration":"0.06"},{"name":"D#6","midi":87,"time":"406.02","velocity":0.15748031496062992,"duration":"0.10"},{"name":"D7","midi":98,"time":"406.02","velocity":0.2992125984251969,"duration":"0.79"},{"name":"B2","midi":47,"time":"406.03","velocity":0.5275590551181102,"duration":"0.01"},{"name":"C#5","midi":73,"time":"406.03","velocity":0.5669291338582677,"duration":"0.14"},{"name":"G5","midi":79,"time":"406.05","velocity":0.2755905511811024,"duration":"0.03"},{"name":"G7","midi":103,"time":"406.05","velocity":0.13385826771653545,"duration":"0.08"},{"name":"A3","midi":57,"time":"406.07","velocity":0.41732283464566927,"duration":"0.34"},{"name":"D4","midi":62,"time":"406.07","velocity":0.25196850393700787,"duration":"0.02"},{"name":"G#5","midi":80,"time":"406.07","velocity":0.3858267716535433,"duration":"0.06"},{"name":"D6","midi":86,"time":"406.07","velocity":0.13385826771653545,"duration":"0.03"},{"name":"G#2","midi":44,"time":"406.08","velocity":0.5354330708661418,"duration":"0.02"},{"name":"E4","midi":64,"time":"406.08","velocity":0.2755905511811024,"duration":"0.02"},{"name":"F#5","midi":78,"time":"406.08","velocity":0.33858267716535434,"duration":"0.26"},{"name":"F6","midi":89,"time":"406.08","velocity":0.2047244094488189,"duration":"0.05"},{"name":"C#4","midi":61,"time":"406.09","velocity":0.5590551181102362,"duration":"0.38"},{"name":"B4","midi":71,"time":"406.09","velocity":0.3543307086614173,"duration":"0.02"},{"name":"A2","midi":45,"time":"406.10","velocity":0.5669291338582677,"duration":"0.02"},{"name":"D#5","midi":75,"time":"406.10","velocity":0.28346456692913385,"duration":"0.07"},{"name":"D6","midi":86,"time":"406.12","velocity":0.2440944881889764,"duration":"0.09"},{"name":"A#6","midi":94,"time":"406.12","velocity":0.1968503937007874,"duration":"0.10"},{"name":"G#2","midi":44,"time":"406.13","velocity":0.5826771653543307,"duration":"0.01"},{"name":"E4","midi":64,"time":"406.13","velocity":0.3228346456692913,"duration":"0.03"},{"name":"A2","midi":45,"time":"406.14","velocity":0.6220472440944882,"duration":"0.27"},{"name":"F#4","midi":66,"time":"406.14","velocity":0.29133858267716534,"duration":"0.03"},{"name":"B4","midi":71,"time":"406.14","velocity":0.23622047244094488,"duration":"0.02"},{"name":"G#5","midi":80,"time":"406.14","velocity":0.4251968503937008,"duration":"0.45"},{"name":"C7","midi":96,"time":"406.14","velocity":0.2204724409448819,"duration":"0.38"},{"name":"F6","midi":89,"time":"406.16","velocity":0.11023622047244094,"duration":"0.03"},{"name":"C5","midi":72,"time":"406.17","velocity":0.4566929133858268,"duration":"0.02"},{"name":"D5","midi":74,"time":"406.17","velocity":0.25984251968503935,"duration":"0.02"},{"name":"D#6","midi":87,"time":"406.17","velocity":0.1889763779527559,"duration":"0.06"},{"name":"F#4","midi":66,"time":"406.19","velocity":0.29133858267716534,"duration":"0.02"},{"name":"B4","midi":71,"time":"406.19","velocity":0.3937007874015748,"duration":"0.07"},{"name":"E6","midi":88,"time":"406.19","velocity":0.2992125984251969,"duration":"0.15"},{"name":"A6","midi":93,"time":"406.19","velocity":0.18110236220472442,"duration":"0.09"},{"name":"E4","midi":64,"time":"406.20","velocity":0.28346456692913385,"duration":"0.02"},{"name":"C#5","midi":73,"time":"406.20","velocity":0.6377952755905512,"duration":"1.31"},{"name":"F#4","midi":66,"time":"406.22","velocity":0.2755905511811024,"duration":"0.06"},{"name":"F6","midi":89,"time":"406.22","velocity":0.16535433070866143,"duration":"0.13"},{"name":"A#6","midi":94,"time":"406.24","velocity":0.2047244094488189,"duration":"0.08"},{"name":"B5","midi":83,"time":"406.26","velocity":0.18110236220472442,"duration":"0.07"},{"name":"D#6","midi":87,"time":"406.26","velocity":0.18110236220472442,"duration":"0.07"},{"name":"E5","midi":76,"time":"406.29","velocity":0.47244094488188976,"duration":"0.15"},{"name":"G6","midi":91,"time":"406.30","velocity":0.2440944881889764,"duration":"0.20"},{"name":"A6","midi":93,"time":"406.30","velocity":0.13385826771653545,"duration":"0.03"},{"name":"F#4","midi":66,"time":"406.31","velocity":0.2440944881889764,"duration":"0.09"},{"name":"F#1","midi":30,"time":"406.34","velocity":0.2755905511811024,"duration":"0.02"},{"name":"G5","midi":79,"time":"406.34","velocity":0.2283464566929134,"duration":"0.05"},{"name":"F#6","midi":90,"time":"406.34","velocity":0.09448818897637795,"duration":"0.03"},{"name":"A#6","midi":94,"time":"406.34","velocity":0.1968503937007874,"duration":"0.10"},{"name":"B5","midi":83,"time":"406.36","velocity":0.13385826771653545,"duration":"0.03"},{"name":"F#5","midi":78,"time":"406.37","velocity":0.2677165354330709,"duration":"0.03"},{"name":"F6","midi":89,"time":"406.37","velocity":0.2440944881889764,"duration":"0.15"},{"name":"C6","midi":84,"time":"406.38","velocity":0.29133858267716534,"duration":"0.05"},{"name":"A6","midi":93,"time":"406.38","velocity":0.2755905511811024,"duration":"0.23"},{"name":"F4","midi":65,"time":"406.40","velocity":0.4094488188976378,"duration":"0.02"},{"name":"F1","midi":29,"time":"406.41","velocity":0.3228346456692913,"duration":"0.02"},{"name":"A#2","midi":46,"time":"406.41","velocity":0.5039370078740157,"duration":"0.02"},{"name":"G5","midi":79,"time":"406.41","velocity":0.3228346456692913,"duration":"0.03"},{"name":"G#4","midi":68,"time":"406.42","velocity":0.5118110236220472,"duration":"0.02"},{"name":"A#4","midi":70,"time":"406.42","velocity":0.4645669291338583,"duration":"0.05"},{"name":"E7","midi":100,"time":"406.42","velocity":0.23622047244094488,"duration":"0.34"},{"name":"D#1","midi":27,"time":"406.43","velocity":0.29133858267716534,"duration":"0.02"},{"name":"B2","midi":47,"time":"406.43","velocity":0.5511811023622047,"duration":"0.03"},{"name":"F#5","midi":78,"time":"406.43","velocity":0.28346456692913385,"duration":"0.02"},{"name":"B5","midi":83,"time":"406.43","velocity":0.23622047244094488,"duration":"0.05"},{"name":"D6","midi":86,"time":"406.43","velocity":0.2125984251968504,"duration":"0.05"},{"name":"D#7","midi":99,"time":"406.44","velocity":0.3228346456692913,"duration":"0.76"},{"name":"D5","midi":74,"time":"406.45","velocity":0.31496062992125984,"duration":"0.02"},{"name":"F5","midi":77,"time":"406.45","velocity":0.33858267716535434,"duration":"0.05"},{"name":"A2","midi":45,"time":"406.47","velocity":0.5826771653543307,"duration":"0.33"},{"name":"A4","midi":69,"time":"406.47","velocity":0.3937007874015748,"duration":"0.37"},{"name":"E5","midi":76,"time":"406.47","velocity":0.3858267716535433,"duration":"0.42"},{"name":"F#6","midi":90,"time":"406.47","velocity":0.47244094488188976,"duration":"0.73"},{"name":"A#3","midi":58,"time":"406.48","velocity":0.4645669291338583,"duration":"0.02"},{"name":"C6","midi":84,"time":"406.48","velocity":0.2440944881889764,"duration":"0.02"},{"name":"C#4","midi":61,"time":"406.49","velocity":0.3228346456692913,"duration":"0.09"},{"name":"D6","midi":86,"time":"406.49","velocity":0.18110236220472442,"duration":"0.05"},{"name":"D#6","midi":87,"time":"406.49","velocity":0.1732283464566929,"duration":"0.05"},{"name":"F#5","midi":78,"time":"406.51","velocity":0.2992125984251969,"duration":"0.06"},{"name":"B5","midi":83,"time":"406.51","velocity":0.2992125984251969,"duration":"0.23"},{"name":"G6","midi":91,"time":"406.52","velocity":0.2283464566929134,"duration":"0.14"},{"name":"F6","midi":89,"time":"406.53","velocity":0.1732283464566929,"duration":"0.03"},{"name":"C7","midi":96,"time":"406.53","velocity":0.2283464566929134,"duration":"0.34"},{"name":"D6","midi":86,"time":"406.55","velocity":0.2283464566929134,"duration":"0.05"},{"name":"A#3","midi":58,"time":"406.57","velocity":0.3937007874015748,"duration":"0.02"},{"name":"F#5","midi":78,"time":"406.58","velocity":0.2755905511811024,"duration":"0.07"},{"name":"C6","midi":84,"time":"406.58","velocity":0.2125984251968504,"duration":"0.03"},{"name":"F6","midi":89,"time":"406.58","velocity":0.23622047244094488,"duration":"0.29"},{"name":"E4","midi":64,"time":"406.59","velocity":0.3543307086614173,"duration":"0.23"},{"name":"D#6","midi":87,"time":"406.59","velocity":0.25196850393700787,"duration":"0.13"},{"name":"C#4","midi":61,"time":"406.62","velocity":0.31496062992125984,"duration":"0.05"},{"name":"G#5","midi":80,"time":"406.62","velocity":0.4015748031496063,"duration":"0.29"},{"name":"E3","midi":52,"time":"406.65","velocity":0.3937007874015748,"duration":"0.02"},{"name":"G4","midi":67,"time":"406.65","velocity":0.1889763779527559,"duration":"0.03"},{"name":"F5","midi":77,"time":"406.65","velocity":0.2677165354330709,"duration":"0.02"},{"name":"G5","midi":79,"time":"406.65","velocity":0.2755905511811024,"duration":"0.05"},{"name":"A#6","midi":94,"time":"406.65","velocity":0.16535433070866143,"duration":"0.03"},{"name":"C#4","midi":61,"time":"406.67","velocity":0.3228346456692913,"duration":"0.09"},{"name":"A#5","midi":82,"time":"406.69","velocity":0.2047244094488189,"duration":"0.03"},{"name":"G6","midi":91,"time":"406.70","velocity":0.1889763779527559,"duration":"0.12"},{"name":"A#6","midi":94,"time":"406.70","velocity":0.2204724409448819,"duration":"0.19"},{"name":"B4","midi":71,"time":"406.71","velocity":0.1732283464566929,"duration":"0.05"},{"name":"G5","midi":79,"time":"406.73","velocity":0.1889763779527559,"duration":"0.06"},{"name":"C6","midi":84,"time":"406.73","velocity":0.23622047244094488,"duration":"0.02"},{"name":"A#5","midi":82,"time":"406.77","velocity":0.1968503937007874,"duration":"0.03"},{"name":"B6","midi":95,"time":"406.77","velocity":0.4330708661417323,"duration":"2.05"},{"name":"C#4","midi":61,"time":"406.78","velocity":0.4409448818897638,"duration":"0.21"},{"name":"B2","midi":47,"time":"406.79","velocity":0.48031496062992124,"duration":"0.02"},{"name":"F#5","midi":78,"time":"406.79","velocity":0.2677165354330709,"duration":"0.08"},{"name":"D6","midi":86,"time":"406.79","velocity":0.2992125984251969,"duration":"0.08"},{"name":"B5","midi":83,"time":"406.80","velocity":0.5433070866141733,"duration":"0.91"},{"name":"A#2","midi":46,"time":"406.81","velocity":0.5748031496062992,"duration":"0.03"},{"name":"F4","midi":65,"time":"406.83","velocity":0.2992125984251969,"duration":"0.02"},{"name":"B4","midi":71,"time":"406.83","velocity":0.5118110236220472,"duration":"0.27"},{"name":"G#4","midi":68,"time":"406.84","velocity":0.29133858267716534,"duration":"0.02"},{"name":"D#6","midi":87,"time":"406.84","velocity":0.2047244094488189,"duration":"0.16"},{"name":"G6","midi":91,"time":"406.84","velocity":0.12598425196850394,"duration":"0.06"},{"name":"A2","midi":45,"time":"406.85","velocity":0.5984251968503937,"duration":"0.30"},{"name":"A5","midi":81,"time":"406.86","velocity":0.2992125984251969,"duration":"0.07"},{"name":"C6","midi":84,"time":"406.87","velocity":0.2283464566929134,"duration":"0.03"},{"name":"A4","midi":69,"time":"406.88","velocity":0.2755905511811024,"duration":"0.02"},{"name":"G7","midi":103,"time":"406.88","velocity":0.15748031496062992,"duration":"0.07"},{"name":"E3","midi":52,"time":"406.90","velocity":0.33858267716535434,"duration":"0.03"},{"name":"F#5","midi":78,"time":"406.90","velocity":0.2204724409448819,"duration":"0.03"},{"name":"F6","midi":89,"time":"406.90","velocity":0.23622047244094488,"duration":"0.06"},{"name":"A#6","midi":94,"time":"406.90","velocity":0.23622047244094488,"duration":"0.20"},{"name":"A4","midi":69,"time":"406.92","velocity":0.2204724409448819,"duration":"0.06"},{"name":"G#5","midi":80,"time":"406.92","velocity":0.4645669291338583,"duration":"0.48"},{"name":"F#5","midi":78,"time":"406.94","velocity":0.16535433070866143,"duration":"0.05"},{"name":"F4","midi":65,"time":"406.98","velocity":0.28346456692913385,"duration":"0.02"},{"name":"E5","midi":76,"time":"406.98","velocity":0.3937007874015748,"duration":"0.21"},{"name":"F6","midi":89,"time":"406.98","velocity":0.16535433070866143,"duration":"0.07"},{"name":"A5","midi":81,"time":"406.99","velocity":0.25984251968503935,"duration":"0.02"},{"name":"C#4","midi":61,"time":"407.00","velocity":0.36220472440944884,"duration":"0.16"},{"name":"E3","midi":52,"time":"407.01","velocity":0.3937007874015748,"duration":"0.02"},{"name":"F#4","midi":66,"time":"407.03","velocity":0.2755905511811024,"duration":"0.03"},{"name":"A5","midi":81,"time":"407.03","velocity":0.25196850393700787,"duration":"0.03"},{"name":"E3","midi":52,"time":"407.05","velocity":0.3779527559055118,"duration":"0.02"},{"name":"D6","midi":86,"time":"407.06","velocity":0.2755905511811024,"duration":"0.13"},{"name":"F6","midi":89,"time":"407.06","velocity":0.16535433070866143,"duration":"0.16"},{"name":"F#5","midi":78,"time":"407.07","velocity":0.2047244094488189,"duration":"0.03"},{"name":"E3","midi":52,"time":"407.08","velocity":0.3228346456692913,"duration":"0.02"},{"name":"E4","midi":64,"time":"407.08","velocity":0.33858267716535434,"duration":"0.08"},{"name":"G5","midi":79,"time":"407.09","velocity":0.25196850393700787,"duration":"0.03"},{"name":"B4","midi":71,"time":"407.10","velocity":0.4566929133858268,"duration":"0.09"},{"name":"A#6","midi":94,"time":"407.10","velocity":0.2204724409448819,"duration":"0.12"},{"name":"C7","midi":96,"time":"407.10","velocity":0.11811023622047244,"duration":"0.05"},{"name":"F#4","midi":66,"time":"407.12","velocity":0.2755905511811024,"duration":"0.02"},{"name":"F#5","midi":78,"time":"407.12","velocity":0.33858267716535434,"duration":"0.06"},{"name":"D#6","midi":87,"time":"407.13","velocity":0.12598425196850394,"duration":"0.09"},{"name":"G6","midi":91,"time":"407.15","velocity":0.2283464566929134,"duration":"0.27"},{"name":"A#5","midi":82,"time":"407.16","velocity":0.2283464566929134,"duration":"0.03"},{"name":"C7","midi":96,"time":"407.16","velocity":0.1732283464566929,"duration":"0.08"},{"name":"F#2","midi":42,"time":"407.17","velocity":0.5905511811023622,"duration":"0.01"},{"name":"D3","midi":50,"time":"407.17","velocity":0.5511811023622047,"duration":"0.01"},{"name":"C#4","midi":61,"time":"407.17","velocity":0.3700787401574803,"duration":"0.06"},{"name":"G#4","midi":68,"time":"407.17","velocity":0.23622047244094488,"duration":"0.02"},{"name":"F2","midi":41,"time":"407.19","velocity":0.6141732283464567,"duration":"0.01"},{"name":"C#3","midi":49,"time":"407.19","velocity":0.5433070866141733,"duration":"0.01"},{"name":"E4","midi":64,"time":"407.19","velocity":0.33858267716535434,"duration":"0.27"},{"name":"D#5","midi":75,"time":"407.19","velocity":0.3228346456692913,"duration":"0.02"},{"name":"G#2","midi":44,"time":"407.20","velocity":0.6220472440944882,"duration":"0.02"},{"name":"A4","midi":69,"time":"407.20","velocity":0.2283464566929134,"duration":"0.03"},{"name":"E6","midi":88,"time":"407.20","velocity":0.30708661417322836,"duration":"0.12"},{"name":"A3","midi":57,"time":"407.21","velocity":0.3228346456692913,"duration":"0.07"},{"name":"F#6","midi":90,"time":"407.21","velocity":0.3228346456692913,"duration":"0.08"},{"name":"A6","midi":93,"time":"407.21","velocity":0.18110236220472442,"duration":"0.10"},{"name":"A2","midi":45,"time":"407.22","velocity":0.5984251968503937,"duration":"0.28"},{"name":"D#5","midi":75,"time":"407.22","velocity":0.3464566929133858,"duration":"0.03"},{"name":"F#5","midi":78,"time":"407.22","velocity":0.1968503937007874,"duration":"0.03"},{"name":"A#6","midi":94,"time":"407.23","velocity":0.1732283464566929,"duration":"0.17"},{"name":"D#7","midi":99,"time":"407.23","velocity":0.2755905511811024,"duration":"0.20"},{"name":"F5","midi":77,"time":"407.26","velocity":0.2204724409448819,"duration":"0.05"},{"name":"B4","midi":71,"time":"407.28","velocity":0.3858267716535433,"duration":"0.06"},{"name":"C7","midi":96,"time":"407.28","velocity":0.12598425196850394,"duration":"0.05"},{"name":"C#4","midi":61,"time":"407.29","velocity":0.2047244094488189,"duration":"0.03"},{"name":"D#5","midi":75,"time":"407.29","velocity":0.2047244094488189,"duration":"0.03"},{"name":"A5","midi":81,"time":"407.29","velocity":0.1732283464566929,"duration":"0.03"},{"name":"E3","midi":52,"time":"407.30","velocity":0.36220472440944884,"duration":"0.02"},{"name":"E5","midi":76,"time":"407.33","velocity":0.4251968503937008,"duration":"0.40"},{"name":"E3","midi":52,"time":"407.34","velocity":0.3464566929133858,"duration":"0.02"},{"name":"C#4","midi":61,"time":"407.34","velocity":0.4251968503937008,"duration":"0.21"},{"name":"B4","midi":71,"time":"407.35","velocity":0.2283464566929134,"duration":"0.02"},{"name":"F#6","midi":90,"time":"407.36","velocity":0.2440944881889764,"duration":"0.14"},{"name":"C7","midi":96,"time":"407.36","velocity":0.15748031496062992,"duration":"0.05"},{"name":"F#5","midi":78,"time":"407.37","velocity":0.25196850393700787,"duration":"0.17"},{"name":"E3","midi":52,"time":"407.38","velocity":0.3779527559055118,"duration":"0.02"},{"name":"A6","midi":93,"time":"407.38","velocity":0.18110236220472442,"duration":"0.05"},{"name":"G#5","midi":80,"time":"407.41","velocity":0.4409448818897638,"duration":"0.14"},{"name":"E3","midi":52,"time":"407.42","velocity":0.3779527559055118,"duration":"0.02"},{"name":"C7","midi":96,"time":"407.42","velocity":0.1732283464566929,"duration":"0.24"},{"name":"B4","midi":71,"time":"407.43","velocity":0.4330708661417323,"duration":"0.12"},{"name":"A#6","midi":94,"time":"407.43","velocity":0.2283464566929134,"duration":"0.15"},{"name":"G4","midi":67,"time":"407.44","velocity":0.23622047244094488,"duration":"0.05"},{"name":"D#7","midi":99,"time":"407.44","velocity":0.25196850393700787,"duration":"0.23"},{"name":"E3","midi":52,"time":"407.45","velocity":0.36220472440944884,"duration":"0.02"},{"name":"A6","midi":93,"time":"407.48","velocity":0.11023622047244094,"duration":"0.06"},{"name":"E3","midi":52,"time":"407.49","velocity":0.3228346456692913,"duration":"0.02"},{"name":"A#2","midi":46,"time":"407.50","velocity":0.5354330708661418,"duration":"0.01"},{"name":"G6","midi":91,"time":"407.50","velocity":0.08661417322834646,"duration":"0.03"},{"name":"E7","midi":100,"time":"407.50","velocity":0.28346456692913385,"duration":"1.12"},{"name":"A2","midi":45,"time":"407.51","velocity":0.5748031496062992,"duration":"0.01"},{"name":"G#2","midi":44,"time":"407.52","velocity":0.5669291338582677,"duration":"0.01"},{"name":"G4","midi":67,"time":"407.52","velocity":0.3228346456692913,"duration":"0.03"},{"name":"A#2","midi":46,"time":"407.53","velocity":0.5433070866141733,"duration":"0.01"},{"name":"G5","midi":79,"time":"407.53","velocity":0.4015748031496063,"duration":"0.03"},{"name":"G7","midi":103,"time":"407.53","velocity":0.2283464566929134,"duration":"0.12"},{"name":"E2","midi":40,"time":"407.55","velocity":0.5433070866141733,"duration":"0.01"},{"name":"B2","midi":47,"time":"407.55","velocity":0.5748031496062992,"duration":"0.01"},{"name":"A4","midi":69,"time":"407.55","velocity":0.49606299212598426,"duration":"0.42"},{"name":"C5","midi":72,"time":"407.55","velocity":0.4881889763779528,"duration":"0.02"},{"name":"D6","midi":86,"time":"407.55","velocity":0.2125984251968504,"duration":"0.03"},{"name":"D#6","midi":87,"time":"407.55","velocity":0.18110236220472442,"duration":"0.06"},{"name":"A6","midi":93,"time":"407.55","velocity":0.2283464566929134,"duration":"0.20"},{"name":"F2","midi":41,"time":"407.56","velocity":0.6062992125984252,"duration":"0.01"},{"name":"C#4","midi":61,"time":"407.56","velocity":0.3937007874015748,"duration":"0.29"},{"name":"F#4","midi":66,"time":"407.56","velocity":0.2677165354330709,"duration":"0.03"},{"name":"G#5","midi":80,"time":"407.56","velocity":0.47244094488188976,"duration":"0.14"},{"name":"G2","midi":43,"time":"407.57","velocity":0.5748031496062992,"duration":"0.02"},{"name":"B4","midi":71,"time":"407.57","velocity":0.3700787401574803,"duration":"0.14"},{"name":"C#5","midi":73,"time":"407.57","velocity":0.5984251968503937,"duration":"0.15"},{"name":"F#5","midi":78,"time":"407.57","velocity":0.31496062992125984,"duration":"0.09"},{"name":"G1","midi":31,"time":"407.58","velocity":0.5590551181102362,"duration":"0.01"},{"name":"D#3","midi":51,"time":"407.58","velocity":0.48031496062992124,"duration":"0.02"},{"name":"E4","midi":64,"time":"407.58","velocity":0.33858267716535434,"duration":"0.03"},{"name":"F1","midi":29,"time":"407.59","velocity":0.6062992125984252,"duration":"0.02"},{"name":"G#2","midi":44,"time":"407.59","velocity":0.5118110236220472,"duration":"0.01"},{"name":"F3","midi":53,"time":"407.60","velocity":0.31496062992125984,"duration":"0.02"},{"name":"C6","midi":84,"time":"407.60","velocity":0.1968503937007874,"duration":"0.05"},{"name":"F6","midi":89,"time":"407.60","velocity":0.2047244094488189,"duration":"0.22"},{"name":"A2","midi":45,"time":"407.62","velocity":0.5669291338582677,"duration":"0.02"},{"name":"A#6","midi":94,"time":"407.63","velocity":0.15748031496062992,"duration":"0.06"},{"name":"A2","midi":45,"time":"407.65","velocity":0.5118110236220472,"duration":"0.05"},{"name":"F3","midi":53,"time":"407.65","velocity":0.2755905511811024,"duration":"0.02"},{"name":"D6","midi":86,"time":"407.65","velocity":0.1889763779527559,"duration":"0.05"},{"name":"E4","midi":64,"time":"407.67","velocity":0.2440944881889764,"duration":"0.03"},{"name":"F#5","midi":78,"time":"407.67","velocity":0.33070866141732286,"duration":"0.27"},{"name":"D#6","midi":87,"time":"407.69","velocity":0.2125984251968504,"duration":"0.05"},{"name":"C7","midi":96,"time":"407.69","velocity":0.16535433070866143,"duration":"0.10"},{"name":"D#7","midi":99,"time":"407.69","velocity":0.2755905511811024,"duration":"0.30"},{"name":"A2","midi":45,"time":"407.71","velocity":0.4566929133858268,"duration":"0.02"},{"name":"G#5","midi":80,"time":"407.71","velocity":0.44881889763779526,"duration":"0.48"},{"name":"A#6","midi":94,"time":"407.71","velocity":0.2125984251968504,"duration":"0.20"},{"name":"E4","midi":64,"time":"407.72","velocity":0.25984251968503935,"duration":"0.02"},{"name":"C5","midi":72,"time":"407.72","velocity":0.4015748031496063,"duration":"0.02"},{"name":"B5","midi":83,"time":"407.72","velocity":0.4015748031496063,"duration":"0.22"},{"name":"G#2","midi":44,"time":"407.73","velocity":0.5118110236220472,"duration":"0.01"},{"name":"E6","midi":88,"time":"407.73","velocity":0.2283464566929134,"duration":"0.10"},{"name":"B4","midi":71,"time":"407.74","velocity":0.25984251968503935,"duration":"0.08"},{"name":"C#5","midi":73,"time":"407.74","velocity":0.48031496062992124,"duration":"0.06"},{"name":"E5","midi":76,"time":"407.74","velocity":0.3464566929133858,"duration":"0.10"},{"name":"A3","midi":57,"time":"407.76","velocity":0.2992125984251969,"duration":"0.03"},{"name":"A6","midi":93,"time":"407.76","velocity":0.3228346456692913,"duration":"0.37"},{"name":"A2","midi":45,"time":"407.77","velocity":0.5275590551181102,"duration":"0.12"},{"name":"D#6","midi":87,"time":"407.77","velocity":0.10236220472440945,"duration":"0.08"},{"name":"G#3","midi":56,"time":"407.79","velocity":0.29133858267716534,"duration":"0.02"},{"name":"D7","midi":98,"time":"407.79","velocity":0.2755905511811024,"duration":"0.76"},{"name":"E4","midi":64,"time":"407.81","velocity":0.33858267716535434,"duration":"0.08"},{"name":"C#5","midi":73,"time":"407.81","velocity":0.6141732283464567,"duration":"0.22"},{"name":"C7","midi":96,"time":"407.81","velocity":0.31496062992125984,"duration":"0.16"},{"name":"G6","midi":91,"time":"407.84","velocity":0.10236220472440945,"duration":"0.07"},{"name":"F6","midi":89,"time":"407.85","velocity":0.2440944881889764,"duration":"0.14"},{"name":"E6","midi":88,"time":"407.86","velocity":0.33070866141732286,"duration":"0.58"},{"name":"G#2","midi":44,"time":"407.88","velocity":0.5196850393700787,"duration":"0.01"},{"name":"F#6","midi":90,"time":"407.88","velocity":0.49606299212598426,"duration":"1.92"},{"name":"C#4","midi":61,"time":"407.90","velocity":0.49606299212598426,"duration":"0.02"},{"name":"D#5","midi":75,"time":"407.90","velocity":0.3700787401574803,"duration":"0.03"},{"name":"F4","midi":65,"time":"407.91","velocity":0.5039370078740157,"duration":"0.02"},{"name":"C6","midi":84,"time":"407.91","velocity":0.3228346456692913,"duration":"0.05"},{"name":"D6","midi":86,"time":"407.91","velocity":0.29133858267716534,"duration":"0.12"},{"name":"G7","midi":103,"time":"407.91","velocity":0.1889763779527559,"duration":"0.12"},{"name":"C4","midi":60,"time":"407.92","velocity":0.4881889763779528,"duration":"0.06"},{"name":"E5","midi":76,"time":"407.92","velocity":0.4094488188976378,"duration":"0.05"},{"name":"G6","midi":91,"time":"407.93","velocity":0.14173228346456693,"duration":"0.06"},{"name":"A#6","midi":94,"time":"407.93","velocity":0.2047244094488189,"duration":"0.07"},{"name":"D#4","midi":63,"time":"407.94","velocity":0.3700787401574803,"duration":"0.02"},{"name":"A2","midi":45,"time":"407.95","velocity":0.5196850393700787,"duration":"0.05"},{"name":"B5","midi":83,"time":"407.95","velocity":0.47244094488188976,"duration":"0.78"},{"name":"G#4","midi":68,"time":"407.97","velocity":0.2677165354330709,"duration":"0.03"},{"name":"F#5","midi":78,"time":"407.97","velocity":0.28346456692913385,"duration":"0.06"},{"name":"D#6","midi":87,"time":"407.97","velocity":0.18110236220472442,"duration":"0.07"},{"name":"C#4","midi":61,"time":"407.98","velocity":0.4015748031496063,"duration":"0.12"},{"name":"F#4","midi":66,"time":"407.98","velocity":0.3858267716535433,"duration":"0.05"},{"name":"E5","midi":76,"time":"407.98","velocity":0.2677165354330709,"duration":"0.06"},{"name":"G6","midi":91,"time":"408.00","velocity":0.2204724409448819,"duration":"0.14"},{"name":"D#7","midi":99,"time":"408.00","velocity":0.30708661417322836,"duration":"0.72"},{"name":"A2","midi":45,"time":"408.01","velocity":0.48031496062992124,"duration":"0.02"},{"name":"A4","midi":69,"time":"408.01","velocity":0.4015748031496063,"duration":"0.27"},{"name":"F#4","midi":66,"time":"408.03","velocity":0.3858267716535433,"duration":"0.05"},{"name":"B4","midi":71,"time":"408.03","velocity":0.3858267716535433,"duration":"0.05"},{"name":"F6","midi":89,"time":"408.03","velocity":0.2047244094488189,"duration":"0.16"},{"name":"A2","midi":45,"time":"408.05","velocity":0.49606299212598426,"duration":"0.05"},{"name":"C#5","midi":73,"time":"408.05","velocity":0.5984251968503937,"duration":"0.13"},{"name":"E3","midi":52,"time":"408.06","velocity":0.2440944881889764,"duration":"0.02"},{"name":"F5","midi":77,"time":"408.06","velocity":0.2283464566929134,"duration":"0.02"},{"name":"G5","midi":79,"time":"408.06","velocity":0.2283464566929134,"duration":"0.08"},{"name":"A#6","midi":94,"time":"408.06","velocity":0.1732283464566929,"duration":"0.14"},{"name":"C7","midi":96,"time":"408.07","velocity":0.15748031496062992,"duration":"0.05"},{"name":"E4","midi":64,"time":"408.08","velocity":0.2992125984251969,"duration":"0.08"},{"name":"G#2","midi":44,"time":"408.09","velocity":0.5118110236220472,"duration":"0.01"},{"name":"A#3","midi":58,"time":"408.09","velocity":0.4015748031496063,"duration":"0.02"},{"name":"A2","midi":45,"time":"408.10","velocity":0.5275590551181102,"duration":"0.05"},{"name":"E5","midi":76,"time":"408.10","velocity":0.4015748031496063,"duration":"0.65"},{"name":"C#4","midi":61,"time":"408.12","velocity":0.2677165354330709,"duration":"0.08"},{"name":"F#4","midi":66,"time":"408.12","velocity":0.2992125984251969,"duration":"0.02"},{"name":"D6","midi":86,"time":"408.13","velocity":0.2047244094488189,"duration":"0.03"},{"name":"C7","midi":96,"time":"408.13","velocity":0.2047244094488189,"duration":"0.09"},{"name":"F#5","midi":78,"time":"408.14","velocity":0.28346456692913385,"duration":"0.10"},{"name":"D#6","midi":87,"time":"408.14","velocity":0.14173228346456693,"duration":"0.07"},{"name":"G6","midi":91,"time":"408.15","velocity":0.16535433070866143,"duration":"0.12"},{"name":"A2","midi":45,"time":"408.16","velocity":0.5433070866141733,"duration":"0.05"},{"name":"E4","midi":64,"time":"408.17","velocity":0.30708661417322836,"duration":"0.08"},{"name":"C#5","midi":73,"time":"408.19","velocity":0.5669291338582677,"duration":"0.09"},{"name":"D6","midi":86,"time":"408.20","velocity":0.25196850393700787,"duration":"0.03"},{"name":"G#2","midi":44,"time":"408.21","velocity":0.5118110236220472,"duration":"0.02"},{"name":"A2","midi":45,"time":"408.22","velocity":0.5590551181102362,"duration":"0.05"},{"name":"G#5","midi":80,"time":"408.22","velocity":0.41732283464566927,"duration":"0.21"},{"name":"D#6","midi":87,"time":"408.22","velocity":0.14173228346456693,"duration":"0.07"},{"name":"A#6","midi":94,"time":"408.22","velocity":0.28346456692913385,"duration":"0.47"},{"name":"F#4","midi":66,"time":"408.24","velocity":0.2204724409448819,"duration":"0.03"},{"name":"B4","midi":71,"time":"408.24","velocity":0.30708661417322836,"duration":"0.03"},{"name":"C7","midi":96,"time":"408.24","velocity":0.2283464566929134,"duration":"0.29"},{"name":"A#2","midi":46,"time":"408.27","velocity":0.5748031496062992,"duration":"0.01"},{"name":"E4","midi":64,"time":"408.27","velocity":0.3700787401574803,"duration":"0.05"},{"name":"F#5","midi":78,"time":"408.27","velocity":0.2992125984251969,"duration":"0.13"},{"name":"D6","midi":86,"time":"408.27","velocity":0.2992125984251969,"duration":"0.07"},{"name":"A2","midi":45,"time":"408.28","velocity":0.5511811023622047,"duration":"0.01"},{"name":"G#4","midi":68,"time":"408.29","velocity":0.2047244094488189,"duration":"0.03"},{"name":"C#5","midi":73,"time":"408.29","velocity":0.3937007874015748,"duration":"0.02"},{"name":"F3","midi":53,"time":"408.30","velocity":0.3228346456692913,"duration":"0.03"},{"name":"C#4","midi":61,"time":"408.30","velocity":0.41732283464566927,"duration":"0.09"},{"name":"F6","midi":89,"time":"408.30","velocity":0.16535433070866143,"duration":"0.06"},{"name":"G7","midi":103,"time":"408.30","velocity":0.1889763779527559,"duration":"0.15"},{"name":"F#4","midi":66,"time":"408.31","velocity":0.25196850393700787,"duration":"0.02"},{"name":"G6","midi":91,"time":"408.31","velocity":0.1968503937007874,"duration":"0.08"},{"name":"B4","midi":71,"time":"408.33","velocity":0.5196850393700787,"duration":"0.30"},{"name":"C#5","midi":73,"time":"408.33","velocity":0.5118110236220472,"duration":"0.03"},{"name":"A2","midi":45,"time":"408.34","velocity":0.5118110236220472,"duration":"0.06"},{"name":"A5","midi":81,"time":"408.34","velocity":0.2992125984251969,"duration":"0.07"},{"name":"F7","midi":101,"time":"408.35","velocity":0.3700787401574803,"duration":"2.34"},{"name":"E4","midi":64,"time":"408.37","velocity":0.2440944881889764,"duration":"0.07"},{"name":"C#5","midi":73,"time":"408.37","velocity":0.5039370078740157,"duration":"0.07"},{"name":"D#6","midi":87,"time":"408.38","velocity":0.11023622047244094,"duration":"0.05"},{"name":"G4","midi":67,"time":"408.40","velocity":0.2047244094488189,"duration":"0.03"},{"name":"A2","midi":45,"time":"408.41","velocity":0.49606299212598426,"duration":"0.02"},{"name":"F#5","midi":78,"time":"408.41","velocity":0.2125984251968504,"duration":"0.07"},{"name":"A5","midi":81,"time":"408.42","velocity":0.3228346456692913,"duration":"0.07"},{"name":"D6","midi":86,"time":"408.42","velocity":0.3228346456692913,"duration":"0.16"},{"name":"F6","midi":89,"time":"408.43","velocity":0.18110236220472442,"duration":"0.07"},{"name":"G6","midi":91,"time":"408.43","velocity":0.16535433070866143,"duration":"0.08"},{"name":"A2","midi":45,"time":"408.44","velocity":0.5511811023622047,"duration":"0.05"},{"name":"C#4","midi":61,"time":"408.44","velocity":0.41732283464566927,"duration":"0.20"},{"name":"G5","midi":79,"time":"408.44","velocity":0.1968503937007874,"duration":"0.06"},{"name":"E3","midi":52,"time":"408.45","velocity":0.3464566929133858,"duration":"0.02"},{"name":"F4","midi":65,"time":"408.45","velocity":0.2440944881889764,"duration":"0.02"},{"name":"G#5","midi":80,"time":"408.45","velocity":0.3700787401574803,"duration":"0.16"},{"name":"C#5","midi":73,"time":"408.48","velocity":0.5511811023622047,"duration":"0.10"},{"name":"A#2","midi":46,"time":"408.49","velocity":0.5118110236220472,"duration":"0.01"},{"name":"A2","midi":45,"time":"408.50","velocity":0.5433070866141733,"duration":"0.06"},{"name":"E3","midi":52,"time":"408.50","velocity":0.33070866141732286,"duration":"0.03"},{"name":"G4","midi":67,"time":"408.51","velocity":0.2204724409448819,"duration":"0.03"},{"name":"G6","midi":91,"time":"408.52","velocity":0.2125984251968504,"duration":"0.09"},{"name":"E4","midi":64,"time":"408.53","velocity":0.1889763779527559,"duration":"0.03"},{"name":"G#4","midi":68,"time":"408.55","velocity":0.1889763779527559,"duration":"0.03"},{"name":"C7","midi":96,"time":"408.55","velocity":0.11811023622047244,"duration":"0.05"},{"name":"A2","midi":45,"time":"408.57","velocity":0.5354330708661418,"duration":"0.02"},{"name":"E3","midi":52,"time":"408.58","velocity":0.3543307086614173,"duration":"0.05"},{"name":"C#5","midi":73,"time":"408.59","velocity":0.6614173228346457,"duration":"0.58"},{"name":"A2","midi":45,"time":"408.60","velocity":0.5748031496062992,"duration":"0.07"},{"name":"F6","midi":89,"time":"408.62","velocity":0.2125984251968504,"duration":"0.14"},{"name":"G#5","midi":80,"time":"408.63","velocity":0.3858267716535433,"duration":"0.06"},{"name":"D6","midi":86,"time":"408.63","velocity":0.2992125984251969,"duration":"0.03"},{"name":"A#5","midi":82,"time":"408.64","velocity":0.28346456692913385,"duration":"0.06"},{"name":"C7","midi":96,"time":"408.64","velocity":0.2047244094488189,"duration":"0.07"},{"name":"F#5","midi":78,"time":"408.65","velocity":0.2047244094488189,"duration":"0.03"},{"name":"G6","midi":91,"time":"408.65","velocity":0.23622047244094488,"duration":"0.06"},{"name":"D7","midi":98,"time":"408.66","velocity":0.25984251968503935,"duration":"0.21"},{"name":"C2","midi":36,"time":"408.67","velocity":0.5826771653543307,"duration":"0.01"},{"name":"G#4","midi":68,"time":"408.67","velocity":0.3228346456692913,"duration":"0.02"},{"name":"D6","midi":86,"time":"408.67","velocity":0.2204724409448819,"duration":"0.09"},{"name":"F2","midi":41,"time":"408.69","velocity":0.6456692913385826,"duration":"0.01"},{"name":"D4","midi":62,"time":"408.69","velocity":0.2677165354330709,"duration":"0.02"},{"name":"F#4","midi":66,"time":"408.69","velocity":0.33070866141732286,"duration":"0.06"},{"name":"G2","midi":43,"time":"408.70","velocity":0.6062992125984252,"duration":"0.01"},{"name":"G#3","midi":56,"time":"408.70","velocity":0.4015748031496063,"duration":"0.02"},{"name":"B4","midi":71,"time":"408.70","velocity":0.3464566929133858,"duration":"0.06"},{"name":"G#5","midi":80,"time":"408.70","velocity":0.4566929133858268,"duration":"0.43"},{"name":"A5","midi":81,"time":"408.70","velocity":0.28346456692913385,"duration":"0.10"},{"name":"A#6","midi":94,"time":"408.70","velocity":0.15748031496062992,"duration":"0.14"},{"name":"G1","midi":31,"time":"408.71","velocity":0.5748031496062992,"duration":"0.01"},{"name":"G#2","midi":44,"time":"408.71","velocity":0.5669291338582677,"duration":"0.02"},{"name":"C#4","midi":61,"time":"408.71","velocity":0.25196850393700787,"duration":"0.02"},{"name":"A4","midi":69,"time":"408.71","velocity":0.3464566929133858,"duration":"0.13"},{"name":"F1","midi":29,"time":"408.72","velocity":0.6062992125984252,"duration":"0.01"},{"name":"A3","midi":57,"time":"408.72","velocity":0.4251968503937008,"duration":"0.31"},{"name":"A1","midi":33,"time":"408.73","velocity":0.5275590551181102,"duration":"0.01"},{"name":"A2","midi":45,"time":"408.73","velocity":0.5511811023622047,"duration":"0.01"},{"name":"C6","midi":84,"time":"408.73","velocity":0.23622047244094488,"duration":"0.02"},{"name":"D#7","midi":99,"time":"408.73","velocity":0.30708661417322836,"duration":"1.37"},{"name":"A#2","midi":46,"time":"408.74","velocity":0.5433070866141733,"duration":"0.01"},{"name":"F4","midi":65,"time":"408.74","velocity":0.2440944881889764,"duration":"0.02"},{"name":"A2","midi":45,"time":"408.76","velocity":0.5433070866141733,"duration":"0.01"},{"name":"B5","midi":83,"time":"408.76","velocity":0.5433070866141733,"duration":"1.20"},{"name":"C7","midi":96,"time":"408.76","velocity":0.2125984251968504,"duration":"0.21"},{"name":"E7","midi":100,"time":"408.76","velocity":0.18110236220472442,"duration":"0.23"},{"name":"D#3","midi":51,"time":"408.77","velocity":0.4251968503937008,"duration":"0.02"},{"name":"G4","midi":67,"time":"408.77","velocity":0.2204724409448819,"duration":"0.03"},{"name":"D#6","midi":87,"time":"408.77","velocity":0.12598425196850394,"duration":"0.03"},{"name":"A2","midi":45,"time":"408.78","velocity":0.5669291338582677,"duration":"0.12"},{"name":"E5","midi":76,"time":"408.78","velocity":0.3779527559055118,"duration":"0.16"},{"name":"D6","midi":86,"time":"408.78","velocity":0.11811023622047244,"duration":"0.03"},{"name":"F6","midi":89,"time":"408.79","velocity":0.2047244094488189,"duration":"0.14"},{"name":"F3","midi":53,"time":"408.80","velocity":0.44881889763779526,"duration":"0.02"},{"name":"C#4","midi":61,"time":"408.80","velocity":0.2440944881889764,"duration":"0.03"},{"name":"F#5","midi":78,"time":"408.80","velocity":0.23622047244094488,"duration":"0.05"},{"name":"G4","midi":67,"time":"408.81","velocity":0.2440944881889764,"duration":"0.02"},{"name":"D#6","midi":87,"time":"408.81","velocity":0.1889763779527559,"duration":"0.05"},{"name":"E3","midi":52,"time":"408.83","velocity":0.4566929133858268,"duration":"0.14"},{"name":"G6","midi":91,"time":"408.84","velocity":0.14960629921259844,"duration":"0.05"},{"name":"G4","midi":67,"time":"408.85","velocity":0.25984251968503935,"duration":"0.07"},{"name":"B4","midi":71,"time":"408.85","velocity":0.23622047244094488,"duration":"0.02"},{"name":"A#6","midi":94,"time":"408.85","velocity":0.25984251968503935,"duration":"0.14"},{"name":"F#5","midi":78,"time":"408.86","velocity":0.33070866141732286,"duration":"0.05"},{"name":"C#4","midi":61,"time":"408.87","velocity":0.3937007874015748,"duration":"0.17"},{"name":"A5","midi":81,"time":"408.87","velocity":0.2677165354330709,"duration":"0.12"},{"name":"D7","midi":98,"time":"408.88","velocity":0.2755905511811024,"duration":"0.14"},{"name":"G6","midi":91,"time":"408.90","velocity":0.16535433070866143,"duration":"0.05"},{"name":"A2","midi":45,"time":"408.91","velocity":0.5433070866141733,"duration":"0.01"},{"name":"G#2","midi":44,"time":"408.92","velocity":0.5118110236220472,"duration":"0.01"},{"name":"F#5","midi":78,"time":"408.92","velocity":0.30708661417322836,"duration":"0.23"},{"name":"A2","midi":45,"time":"408.94","velocity":0.5511811023622047,"duration":"0.05"},{"name":"D#5","midi":75,"time":"408.95","velocity":0.25984251968503935,"duration":"0.02"},{"name":"G6","midi":91,"time":"408.95","velocity":0.16535433070866143,"duration":"0.06"},{"name":"B4","midi":71,"time":"408.97","velocity":0.3858267716535433,"duration":"0.09"},{"name":"E3","midi":52,"time":"408.98","velocity":0.33070866141732286,"duration":"0.02"},{"name":"D6","midi":86,"time":"408.98","velocity":0.2677165354330709,"duration":"0.02"},{"name":"G#2","midi":44,"time":"408.99","velocity":0.5354330708661418,"duration":"0.01"},{"name":"A6","midi":93,"time":"408.99","velocity":0.14173228346456693,"duration":"0.03"},{"name":"C7","midi":96,"time":"408.99","velocity":0.15748031496062992,"duration":"0.26"},{"name":"A2","midi":45,"time":"409.00","velocity":0.5354330708661418,"duration":"0.03"},{"name":"A5","midi":81,"time":"409.01","velocity":0.25196850393700787,"duration":"0.02"},{"name":"E5","midi":76,"time":"409.02","velocity":0.4094488188976378,"duration":"0.43"},{"name":"A#6","midi":94,"time":"409.02","velocity":0.15748031496062992,"duration":"0.07"},{"name":"G#3","midi":56,"time":"409.03","velocity":0.28346456692913385,"duration":"0.02"},{"name":"D#6","midi":87,"time":"409.03","velocity":0.2440944881889764,"duration":"0.08"},{"name":"F6","midi":89,"time":"409.03","velocity":0.2440944881889764,"duration":"0.17"},{"name":"C3","midi":48,"time":"409.05","velocity":0.5433070866141733,"duration":"0.02"},{"name":"A6","midi":93,"time":"409.05","velocity":0.2204724409448819,"duration":"0.07"},{"name":"D7","midi":98,"time":"409.05","velocity":0.2047244094488189,"duration":"0.29"},{"name":"C#4","midi":61,"time":"409.06","velocity":0.5433070866141733,"duration":"0.38"},{"name":"F#4","midi":66,"time":"409.06","velocity":0.29133858267716534,"duration":"0.07"},{"name":"A#4","midi":70,"time":"409.06","velocity":0.2992125984251969,"duration":"0.02"},{"name":"A5","midi":81,"time":"409.06","velocity":0.3543307086614173,"duration":"0.20"},{"name":"D6","midi":86,"time":"409.06","velocity":0.18110236220472442,"duration":"0.03"},{"name":"A#2","midi":46,"time":"409.07","velocity":0.5905511811023622,"duration":"0.01"},{"name":"A2","midi":45,"time":"409.08","velocity":0.6141732283464567,"duration":"0.21"},{"name":"A4","midi":69,"time":"409.10","velocity":0.2755905511811024,"duration":"0.07"},{"name":"A#6","midi":94,"time":"409.10","velocity":0.1968503937007874,"duration":"0.15"},{"name":"B4","midi":71,"time":"409.13","velocity":0.2440944881889764,"duration":"0.02"},{"name":"G#5","midi":80,"time":"409.14","velocity":0.4409448818897638,"duration":"0.43"},{"name":"F#4","midi":66,"time":"409.16","velocity":0.23622047244094488,"duration":"0.06"},{"name":"B4","midi":71,"time":"409.16","velocity":0.4330708661417323,"duration":"0.17"},{"name":"D#6","midi":87,"time":"409.16","velocity":0.15748031496062992,"duration":"0.08"},{"name":"C#5","midi":73,"time":"409.19","velocity":0.6220472440944882,"duration":"0.36"},{"name":"G5","midi":79,"time":"409.22","velocity":0.2125984251968504,"duration":"0.03"},{"name":"D6","midi":86,"time":"409.23","velocity":0.2283464566929134,"duration":"0.02"},{"name":"G7","midi":103,"time":"409.23","velocity":0.11811023622047244,"duration":"0.05"},{"name":"F#4","midi":66,"time":"409.24","velocity":0.2047244094488189,"duration":"0.03"},{"name":"F6","midi":89,"time":"409.26","velocity":0.07874015748031496,"duration":"0.09"},{"name":"C7","midi":96,"time":"409.26","velocity":0.11811023622047244,"duration":"0.07"},{"name":"A5","midi":81,"time":"409.27","velocity":0.29133858267716534,"duration":"0.03"},{"name":"G4","midi":67,"time":"409.28","velocity":0.25196850393700787,"duration":"0.06"},{"name":"G#2","midi":44,"time":"409.29","velocity":0.5196850393700787,"duration":"0.01"},{"name":"A2","midi":45,"time":"409.30","velocity":0.5275590551181102,"duration":"0.05"},{"name":"F#5","midi":78,"time":"409.30","velocity":0.14960629921259844,"duration":"0.05"},{"name":"A#6","midi":94,"time":"409.30","velocity":0.14173228346456693,"duration":"0.08"},{"name":"G7","midi":103,"time":"409.34","velocity":0.10236220472440945,"duration":"0.07"},{"name":"A#2","midi":46,"time":"409.35","velocity":0.5118110236220472,"duration":"0.01"},{"name":"G4","midi":67,"time":"409.35","velocity":0.14173228346456693,"duration":"0.03"},{"name":"A2","midi":45,"time":"409.36","velocity":0.5354330708661418,"duration":"0.05"},{"name":"A5","midi":81,"time":"409.36","velocity":0.3228346456692913,"duration":"0.07"},{"name":"C7","midi":96,"time":"409.36","velocity":0.25984251968503935,"duration":"0.26"},{"name":"D7","midi":98,"time":"409.36","velocity":0.2440944881889764,"duration":"0.13"},{"name":"F6","midi":89,"time":"409.37","velocity":0.2047244094488189,"duration":"0.10"},{"name":"F#4","midi":66,"time":"409.38","velocity":0.2992125984251969,"duration":"0.03"},{"name":"D6","midi":86,"time":"409.40","velocity":0.2283464566929134,"duration":"0.03"},{"name":"A#6","midi":94,"time":"409.40","velocity":0.2677165354330709,"duration":"0.45"},{"name":"A4","midi":69,"time":"409.41","velocity":0.5039370078740157,"duration":"0.02"},{"name":"D#5","midi":75,"time":"409.41","velocity":0.36220472440944884,"duration":"0.02"},{"name":"F#5","midi":78,"time":"409.41","velocity":0.41732283464566927,"duration":"0.06"},{"name":"G6","midi":91,"time":"409.42","velocity":0.25196850393700787,"duration":"0.12"},{"name":"D#5","midi":75,"time":"409.44","velocity":0.3937007874015748,"duration":"0.02"},{"name":"D6","midi":86,"time":"409.44","velocity":0.25196850393700787,"duration":"0.21"},{"name":"A2","midi":45,"time":"409.45","velocity":0.5826771653543307,"duration":"0.03"},{"name":"G#3","midi":56,"time":"409.45","velocity":0.4409448818897638,"duration":"0.02"},{"name":"B4","midi":71,"time":"409.45","velocity":0.4094488188976378,"duration":"0.02"},{"name":"A#5","midi":82,"time":"409.45","velocity":0.2440944881889764,"duration":"0.02"},{"name":"E5","midi":76,"time":"409.47","velocity":0.33070866141732286,"duration":"0.13"},{"name":"F#4","midi":66,"time":"409.48","velocity":0.25984251968503935,"duration":"0.02"},{"name":"F5","midi":77,"time":"409.48","velocity":0.23622047244094488,"duration":"0.02"},{"name":"A5","midi":81,"time":"409.48","velocity":0.31496062992125984,"duration":"0.03"},{"name":"E3","midi":52,"time":"409.49","velocity":0.3543307086614173,"duration":"0.02"},{"name":"A2","midi":45,"time":"409.50","velocity":0.5590551181102362,"duration":"0.23"},{"name":"A#4","midi":70,"time":"409.50","velocity":0.30708661417322836,"duration":"0.03"},{"name":"F#5","midi":78,"time":"409.50","velocity":0.2283464566929134,"duration":"0.08"},{"name":"D7","midi":98,"time":"409.50","velocity":0.2992125984251969,"duration":"0.58"},{"name":"E4","midi":64,"time":"409.51","velocity":0.3543307086614173,"duration":"0.05"},{"name":"E3","midi":52,"time":"409.52","velocity":0.4330708661417323,"duration":"0.02"},{"name":"A5","midi":81,"time":"409.52","velocity":0.4015748031496063,"duration":"0.27"},{"name":"G#4","midi":68,"time":"409.53","velocity":0.25984251968503935,"duration":"0.03"},{"name":"D4","midi":62,"time":"409.55","velocity":0.30708661417322836,"duration":"0.02"},{"name":"G7","midi":103,"time":"409.55","velocity":0.09448818897637795,"duration":"0.05"},{"name":"E3","midi":52,"time":"409.56","velocity":0.4566929133858268,"duration":"0.06"},{"name":"C#5","midi":73,"time":"409.56","velocity":0.5590551181102362,"duration":"0.24"},{"name":"A4","midi":69,"time":"409.57","velocity":0.23622047244094488,"duration":"0.03"},{"name":"A#3","midi":58,"time":"409.58","velocity":0.3937007874015748,"duration":"0.03"},{"name":"G#5","midi":80,"time":"409.58","velocity":0.3779527559055118,"duration":"0.10"},{"name":"D#6","midi":87,"time":"409.58","velocity":0.11023622047244094,"duration":"0.05"},{"name":"F6","midi":89,"time":"409.58","velocity":0.14960629921259844,"duration":"0.16"},{"name":"F#5","midi":78,"time":"409.59","velocity":0.3228346456692913,"duration":"0.36"},{"name":"C#4","midi":61,"time":"409.60","velocity":0.3700787401574803,"duration":"0.19"},{"name":"G#4","midi":68,"time":"409.60","velocity":0.23622047244094488,"duration":"0.03"},{"name":"C7","midi":96,"time":"409.63","velocity":0.2283464566929134,"duration":"0.78"},{"name":"A4","midi":69,"time":"409.64","velocity":0.2992125984251969,"duration":"0.16"},{"name":"D#6","midi":87,"time":"409.64","velocity":0.11023622047244094,"duration":"0.05"},{"name":"B4","midi":71,"time":"409.65","velocity":0.25984251968503935,"duration":"0.02"},{"name":"E3","midi":52,"time":"409.67","velocity":0.4094488188976378,"duration":"0.13"},{"name":"A#3","midi":58,"time":"409.69","velocity":0.23622047244094488,"duration":"0.02"},{"name":"G7","midi":103,"time":"409.69","velocity":0.08661417322834646,"duration":"0.03"},{"name":"G6","midi":91,"time":"409.71","velocity":0.1968503937007874,"duration":"0.13"},{"name":"G#2","midi":44,"time":"409.73","velocity":0.5433070866141733,"duration":"0.01"},{"name":"G#5","midi":80,"time":"409.73","velocity":0.2677165354330709,"duration":"0.02"},{"name":"D6","midi":86,"time":"409.73","velocity":0.18110236220472442,"duration":"0.03"},{"name":"A2","midi":45,"time":"409.74","velocity":0.5590551181102362,"duration":"0.05"},{"name":"F6","midi":89,"time":"409.76","velocity":0.09448818897637795,"duration":"0.05"},{"name":"A#3","midi":58,"time":"409.77","velocity":0.3464566929133858,"duration":"0.02"},{"name":"E5","midi":76,"time":"409.77","velocity":0.3779527559055118,"duration":"0.37"},{"name":"G#5","midi":80,"time":"409.77","velocity":0.48031496062992124,"duration":"0.58"},{"name":"D#6","midi":87,"time":"409.77","velocity":0.12598425196850394,"duration":"0.05"},{"name":"G4","midi":67,"time":"409.78","velocity":0.3464566929133858,"duration":"0.03"},{"name":"D5","midi":74,"time":"409.79","velocity":0.4566929133858268,"duration":"0.02"},{"name":"B2","midi":47,"time":"409.80","velocity":0.5590551181102362,"duration":"0.01"},{"name":"A#4","midi":70,"time":"409.80","velocity":0.25196850393700787,"duration":"0.03"},{"name":"A5","midi":81,"time":"409.80","velocity":0.31496062992125984,"duration":"0.03"},{"name":"A2","midi":45,"time":"409.81","velocity":0.6299212598425197,"duration":"0.01"},{"name":"E3","midi":52,"time":"409.81","velocity":0.44881889763779526,"duration":"0.02"},{"name":"C#5","midi":73,"time":"409.81","velocity":0.5984251968503937,"duration":"0.55"},{"name":"G#2","midi":44,"time":"409.83","velocity":0.6220472440944882,"duration":"0.02"},{"name":"C#4","midi":61,"time":"409.84","velocity":0.4330708661417323,"duration":"0.28"},{"name":"D6","midi":86,"time":"409.84","velocity":0.10236220472440945,"duration":"0.03"},{"name":"C#7","midi":97,"time":"409.84","velocity":0.4330708661417323,"duration":"6.95"},{"name":"F#1","midi":30,"time":"409.85","velocity":0.5511811023622047,"duration":"0.01"},{"name":"A2","midi":45,"time":"409.85","velocity":0.44881889763779526,"duration":"0.02"},{"name":"G7","midi":103,"time":"409.85","velocity":0.13385826771653545,"duration":"0.03"},{"name":"A#1","midi":34,"time":"409.86","velocity":0.5748031496062992,"duration":"0.01"},{"name":"A4","midi":69,"time":"409.86","velocity":0.16535433070866143,"duration":"0.07"},{"name":"C2","midi":36,"time":"409.87","velocity":0.5275590551181102,"duration":"0.01"},{"name":"A5","midi":81,"time":"409.87","velocity":0.33858267716535434,"duration":"0.06"},{"name":"C6","midi":84,"time":"409.87","velocity":0.1732283464566929,"duration":"0.03"},{"name":"D#6","midi":87,"time":"409.87","velocity":0.11811023622047244,"duration":"0.03"},{"name":"G#2","midi":44,"time":"409.88","velocity":0.5590551181102362,"duration":"0.01"},{"name":"G6","midi":91,"time":"409.88","velocity":0.16535433070866143,"duration":"0.05"},{"name":"A2","midi":45,"time":"409.90","velocity":0.5039370078740157,"duration":"0.02"},{"name":"D6","midi":86,"time":"409.90","velocity":0.2204724409448819,"duration":"0.08"},{"name":"G4","midi":67,"time":"409.91","velocity":0.25196850393700787,"duration":"0.02"},{"name":"G#2","midi":44,"time":"409.92","velocity":0.5275590551181102,"duration":"0.01"},{"name":"A2","midi":45,"time":"409.93","velocity":0.5275590551181102,"duration":"0.01"},{"name":"A#2","midi":46,"time":"409.94","velocity":0.5196850393700787,"duration":"0.01"},{"name":"A5","midi":81,"time":"409.94","velocity":0.3700787401574803,"duration":"0.03"},{"name":"C6","midi":84,"time":"409.94","velocity":0.2440944881889764,"duration":"0.05"},{"name":"A#6","midi":94,"time":"409.94","velocity":0.18110236220472442,"duration":"0.09"},{"name":"A2","midi":45,"time":"409.95","velocity":0.5984251968503937,"duration":"0.21"},{"name":"E3","midi":52,"time":"409.95","velocity":0.36220472440944884,"duration":"0.06"},{"name":"G6","midi":91,"time":"409.95","velocity":0.25984251968503935,"duration":"0.22"},{"name":"F#5","midi":78,"time":"409.97","velocity":0.2047244094488189,"duration":"0.09"},{"name":"F6","midi":89,"time":"409.97","velocity":0.18110236220472442,"duration":"0.14"},{"name":"E7","midi":100,"time":"409.97","velocity":0.13385826771653545,"duration":"0.10"},{"name":"E4","midi":64,"time":"409.98","velocity":0.4251968503937008,"duration":"0.21"},{"name":"D#6","midi":87,"time":"409.98","velocity":0.15748031496062992,"duration":"0.03"},{"name":"A4","midi":69,"time":"409.99","velocity":0.4094488188976378,"duration":"0.19"},{"name":"B5","midi":83,"time":"409.99","velocity":0.30708661417322836,"duration":"0.08"},{"name":"A1","midi":33,"time":"410.00","velocity":0.33858267716535434,"duration":"0.02"},{"name":"D6","midi":86,"time":"410.01","velocity":0.2992125984251969,"duration":"0.08"},{"name":"F#1","midi":30,"time":"410.02","velocity":0.3858267716535433,"duration":"0.02"},{"name":"A6","midi":93,"time":"410.02","velocity":0.25196850393700787,"duration":"0.30"},{"name":"E3","midi":52,"time":"410.06","velocity":0.3464566929133858,"duration":"0.02"},{"name":"A#5","midi":82,"time":"410.06","velocity":0.15748031496062992,"duration":"0.12"},{"name":"F#5","midi":78,"time":"410.07","velocity":0.2125984251968504,"duration":"0.09"},{"name":"B4","midi":71,"time":"410.08","velocity":0.2755905511811024,"duration":"0.07"},{"name":"A#6","midi":94,"time":"410.08","velocity":0.2204724409448819,"duration":"0.16"},{"name":"E3","midi":52,"time":"410.09","velocity":0.31496062992125984,"duration":"0.02"},{"name":"B5","midi":83,"time":"410.09","velocity":0.28346456692913385,"duration":"0.24"},{"name":"D#6","midi":87,"time":"410.09","velocity":0.10236220472440945,"duration":"0.03"},{"name":"G5","midi":79,"time":"410.12","velocity":0.2204724409448819,"duration":"0.06"},{"name":"D#7","midi":99,"time":"410.13","velocity":0.2440944881889764,"duration":"0.35"},{"name":"D6","midi":86,"time":"410.14","velocity":0.29133858267716534,"duration":"0.02"},{"name":"F6","midi":89,"time":"410.14","velocity":0.07086614173228346,"duration":"0.03"},{"name":"B2","midi":47,"time":"410.16","velocity":0.5669291338582677,"duration":"0.01"},{"name":"G#3","midi":56,"time":"410.16","velocity":0.3228346456692913,"duration":"0.02"},{"name":"D#6","midi":87,"time":"410.16","velocity":0.14173228346456693,"duration":"0.03"},{"name":"B1","midi":35,"time":"410.17","velocity":0.5196850393700787,"duration":"0.01"},{"name":"C3","midi":48,"time":"410.17","velocity":0.5748031496062992,"duration":"0.01"},{"name":"G#4","midi":68,"time":"410.17","velocity":0.3779527559055118,"duration":"0.02"},{"name":"F#6","midi":90,"time":"410.17","velocity":0.49606299212598426,"duration":"1.49"},{"name":"F2","midi":41,"time":"410.19","velocity":0.6299212598425197,"duration":"0.01"},{"name":"F#4","midi":66,"time":"410.19","velocity":0.3779527559055118,"duration":"0.02"},{"name":"G#2","midi":44,"time":"410.20","velocity":0.5826771653543307,"duration":"0.01"},{"name":"A#3","midi":58,"time":"410.20","velocity":0.29133858267716534,"duration":"0.02"},{"name":"A4","midi":69,"time":"410.20","velocity":0.30708661417322836,"duration":"0.10"},{"name":"D#5","midi":75,"time":"410.20","velocity":0.4409448818897638,"duration":"0.05"},{"name":"F6","midi":89,"time":"410.20","velocity":0.12598425196850394,"duration":"0.06"},{"name":"A#2","midi":46,"time":"410.21","velocity":0.5354330708661418,"duration":"0.01"},{"name":"D4","midi":62,"time":"410.21","velocity":0.3228346456692913,"duration":"0.05"},{"name":"F#1","midi":30,"time":"410.22","velocity":0.5590551181102362,"duration":"0.02"},{"name":"F#4","midi":66,"time":"410.22","velocity":0.3858267716535433,"duration":"0.09"},{"name":"G6","midi":91,"time":"410.22","velocity":0.1889763779527559,"duration":"0.03"},{"name":"D#3","midi":51,"time":"410.23","velocity":0.4015748031496063,"duration":"0.02"},{"name":"E5","midi":76,"time":"410.24","velocity":0.49606299212598426,"duration":"0.07"},{"name":"A#5","midi":82,"time":"410.26","velocity":0.16535433070866143,"duration":"0.05"},{"name":"A#2","midi":46,"time":"410.27","velocity":0.5354330708661418,"duration":"0.01"},{"name":"A#6","midi":94,"time":"410.27","velocity":0.18110236220472442,"duration":"0.15"},{"name":"G7","midi":103,"time":"410.27","velocity":0.09448818897637795,"duration":"0.08"},{"name":"A2","midi":45,"time":"410.28","velocity":0.6141732283464567,"duration":"0.13"},{"name":"C#4","midi":61,"time":"410.28","velocity":0.23622047244094488,"duration":"0.05"},{"name":"F6","midi":89,"time":"410.29","velocity":0.1968503937007874,"duration":"0.07"},{"name":"G6","midi":91,"time":"410.29","velocity":0.16535433070866143,"duration":"0.09"},{"name":"F5","midi":77,"time":"410.30","velocity":0.49606299212598426,"duration":"0.07"},{"name":"A4","midi":69,"time":"410.31","velocity":0.4015748031496063,"duration":"0.24"},{"name":"F#4","midi":66,"time":"410.33","velocity":0.3464566929133858,"duration":"0.05"},{"name":"E7","midi":100,"time":"410.33","velocity":0.25196850393700787,"duration":"0.93"},{"name":"C#4","midi":61,"time":"410.34","velocity":0.2755905511811024,"duration":"0.03"},{"name":"E4","midi":64,"time":"410.34","velocity":0.3464566929133858,"duration":"0.20"},{"name":"A#5","midi":82,"time":"410.34","velocity":0.1889763779527559,"duration":"0.03"},{"name":"E3","midi":52,"time":"410.35","velocity":0.41732283464566927,"duration":"0.03"},{"name":"B5","midi":83,"time":"410.36","velocity":0.29133858267716534,"duration":"0.10"},{"name":"G#3","midi":56,"time":"410.37","velocity":0.4330708661417323,"duration":"0.02"},{"name":"C#5","midi":73,"time":"410.37","velocity":0.5118110236220472,"duration":"0.30"},{"name":"E5","midi":76,"time":"410.37","velocity":0.3543307086614173,"duration":"0.10"},{"name":"F#5","midi":78,"time":"410.37","velocity":0.5354330708661418,"duration":"0.10"},{"name":"C6","midi":84,"time":"410.37","velocity":0.2283464566929134,"duration":"0.03"},{"name":"B4","midi":71,"time":"410.38","velocity":0.23622047244094488,"duration":"0.02"},{"name":"D#6","midi":87,"time":"410.38","velocity":0.23622047244094488,"duration":"0.03"},{"name":"C#2","midi":37,"time":"410.40","velocity":0.5275590551181102,"duration":"0.01"},{"name":"A#3","midi":58,"time":"410.40","velocity":0.3937007874015748,"duration":"0.02"},{"name":"D6","midi":86,"time":"410.40","velocity":0.2204724409448819,"duration":"0.03"},{"name":"F6","midi":89,"time":"410.40","velocity":0.07086614173228346,"duration":"0.06"},{"name":"F3","midi":53,"time":"410.41","velocity":0.3858267716535433,"duration":"0.02"},{"name":"F1","midi":29,"time":"410.42","velocity":0.5511811023622047,"duration":"0.02"},{"name":"A2","midi":45,"time":"410.42","velocity":0.5590551181102362,"duration":"0.01"},{"name":"C#6","midi":85,"time":"410.42","velocity":0.5669291338582677,"duration":"0.23"},{"name":"G6","midi":91,"time":"410.42","velocity":0.14173228346456693,"duration":"0.05"},{"name":"B6","midi":95,"time":"410.42","velocity":0.3700787401574803,"duration":"0.40"},{"name":"G#2","midi":44,"time":"410.43","velocity":0.5826771653543307,"duration":"0.02"},{"name":"C#4","midi":61,"time":"410.43","velocity":0.25984251968503935,"duration":"0.06"},{"name":"G#5","midi":80,"time":"410.43","velocity":0.1732283464566929,"duration":"0.05"},{"name":"A#6","midi":94,"time":"410.43","velocity":0.1732283464566929,"duration":"0.05"},{"name":"B4","midi":71,"time":"410.44","velocity":0.25196850393700787,"duration":"0.08"},{"name":"C7","midi":96,"time":"410.44","velocity":0.11023622047244094,"duration":"0.05"},{"name":"A2","midi":45,"time":"410.45","velocity":0.5748031496062992,"duration":"0.08"},{"name":"D#6","midi":87,"time":"410.45","velocity":0.07874015748031496,"duration":"0.03"},{"name":"C6","midi":84,"time":"410.47","velocity":0.1732283464566929,"duration":"0.03"},{"name":"F5","midi":77,"time":"410.48","velocity":0.4881889763779528,"duration":"0.02"},{"name":"E5","midi":76,"time":"410.49","velocity":0.3543307086614173,"duration":"0.10"},{"name":"D#7","midi":99,"time":"410.49","velocity":0.3937007874015748,"duration":"3.84"},{"name":"F#5","midi":78,"time":"410.50","velocity":0.5433070866141733,"duration":"0.45"},{"name":"F#4","midi":66,"time":"410.51","velocity":0.25984251968503935,"duration":"0.05"},{"name":"G#5","midi":80,"time":"410.52","velocity":0.3228346456692913,"duration":"0.02"},{"name":"C7","midi":96,"time":"410.52","velocity":0.25984251968503935,"duration":"0.26"},{"name":"D7","midi":98,"time":"410.52","velocity":0.31496062992125984,"duration":"1.52"},{"name":"A#2","midi":46,"time":"410.53","velocity":0.5433070866141733,"duration":"0.01"},{"name":"A#6","midi":94,"time":"410.53","velocity":0.25196850393700787,"duration":"0.16"},{"name":"F#2","midi":42,"time":"410.56","velocity":0.5275590551181102,"duration":"0.01"},{"name":"G4","midi":67,"time":"410.56","velocity":0.2755905511811024,"duration":"0.02"},{"name":"G7","midi":103,"time":"410.56","velocity":0.11811023622047244,"duration":"0.03"},{"name":"F2","midi":41,"time":"410.57","velocity":0.6299212598425197,"duration":"0.01"},{"name":"A3","midi":57,"time":"410.57","velocity":0.44881889763779526,"duration":"0.02"},{"name":"F4","midi":65,"time":"410.57","velocity":0.3228346456692913,"duration":"0.03"},{"name":"B5","midi":83,"time":"410.57","velocity":0.5511811023622047,"duration":"0.74"},{"name":"G2","midi":43,"time":"410.58","velocity":0.6220472440944882,"duration":"0.01"},{"name":"B4","midi":71,"time":"410.58","velocity":0.4645669291338583,"duration":"0.34"},{"name":"G#5","midi":80,"time":"410.58","velocity":0.2755905511811024,"duration":"0.08"},{"name":"D6","midi":86,"time":"410.58","velocity":0.2283464566929134,"duration":"0.05"},{"name":"G#2","midi":44,"time":"410.59","velocity":0.5905511811023622,"duration":"0.01"},{"name":"F3","midi":53,"time":"410.60","velocity":0.3228346456692913,"duration":"0.02"},{"name":"A4","midi":69,"time":"410.60","velocity":0.18110236220472442,"duration":"0.03"},{"name":"A5","midi":81,"time":"410.60","velocity":0.36220472440944884,"duration":"0.23"},{"name":"G6","midi":91,"time":"410.60","velocity":0.08661417322834646,"duration":"0.06"},{"name":"E5","midi":76,"time":"410.62","velocity":0.3464566929133858,"duration":"0.03"},{"name":"G#2","midi":44,"time":"410.63","velocity":0.5669291338582677,"duration":"0.01"},{"name":"A3","midi":57,"time":"410.63","velocity":0.2677165354330709,"duration":"0.02"},{"name":"F6","midi":89,"time":"410.63","velocity":0.2283464566929134,"duration":"0.02"},{"name":"A2","midi":45,"time":"410.64","velocity":0.5748031496062992,"duration":"0.01"},{"name":"D6","midi":86,"time":"410.64","velocity":0.2992125984251969,"duration":"0.10"},{"name":"A#2","midi":46,"time":"410.65","velocity":0.5354330708661418,"duration":"0.01"},{"name":"C#4","midi":61,"time":"410.65","velocity":0.33858267716535434,"duration":"0.24"},{"name":"E4","midi":64,"time":"410.65","velocity":0.2125984251968504,"duration":"0.03"},{"name":"A2","midi":45,"time":"410.66","velocity":0.5669291338582677,"duration":"0.10"},{"name":"F#4","midi":66,"time":"410.66","velocity":0.3700787401574803,"duration":"0.20"},{"name":"E5","midi":76,"time":"410.66","velocity":0.29133858267716534,"duration":"0.06"},{"name":"G#5","midi":80,"time":"410.67","velocity":0.23622047244094488,"duration":"0.02"},{"name":"F6","midi":89,"time":"410.69","velocity":0.08661417322834646,"duration":"0.03"},{"name":"D#5","midi":75,"time":"410.70","velocity":0.23622047244094488,"duration":"0.02"},{"name":"C#6","midi":85,"time":"410.71","velocity":0.31496062992125984,"duration":"0.06"},{"name":"G6","midi":91,"time":"410.71","velocity":0.1968503937007874,"duration":"0.10"},{"name":"A#6","midi":94,"time":"410.71","velocity":0.2047244094488189,"duration":"0.19"},{"name":"E3","midi":52,"time":"410.72","velocity":0.3228346456692913,"duration":"0.02"},{"name":"G#5","midi":80,"time":"410.72","velocity":0.31496062992125984,"duration":"0.07"},{"name":"E5","midi":76,"time":"410.73","velocity":0.4645669291338583,"duration":"0.21"},{"name":"F7","midi":101,"time":"410.73","velocity":0.11023622047244094,"duration":"0.13"},{"name":"E3","midi":52,"time":"410.76","velocity":0.3858267716535433,"duration":"0.05"},{"name":"A#2","midi":46,"time":"410.77","velocity":0.5275590551181102,"duration":"0.01"},{"name":"A2","midi":45,"time":"410.78","velocity":0.5511811023622047,"duration":"0.02"},{"name":"C#6","midi":85,"time":"410.78","velocity":0.5118110236220472,"duration":"0.58"},{"name":"A#2","midi":46,"time":"410.80","velocity":0.5118110236220472,"duration":"0.01"},{"name":"G#5","midi":80,"time":"410.80","velocity":0.3543307086614173,"duration":"0.19"},{"name":"G#6","midi":92,"time":"410.80","velocity":0.4251968503937008,"duration":"0.59"},{"name":"C7","midi":96,"time":"410.80","velocity":0.25196850393700787,"duration":"0.34"},{"name":"A2","midi":45,"time":"410.81","velocity":0.5433070866141733,"duration":"0.12"},{"name":"E3","midi":52,"time":"410.83","velocity":0.33858267716535434,"duration":"0.02"},{"name":"E3","midi":52,"time":"410.86","velocity":0.2755905511811024,"duration":"0.02"},{"name":"G4","midi":67,"time":"410.86","velocity":0.25196850393700787,"duration":"0.03"},{"name":"F7","midi":101,"time":"410.87","velocity":0.2755905511811024,"duration":"1.43"},{"name":"F#4","midi":66,"time":"410.90","velocity":0.47244094488188976,"duration":"0.03"},{"name":"D6","midi":86,"time":"410.90","velocity":0.2047244094488189,"duration":"0.06"},{"name":"C4","midi":60,"time":"410.91","velocity":0.30708661417322836,"duration":"0.02"},{"name":"F6","midi":89,"time":"410.91","velocity":0.1968503937007874,"duration":"0.03"},{"name":"A#6","midi":94,"time":"410.91","velocity":0.2677165354330709,"duration":"0.84"},{"name":"C1","midi":24,"time":"410.92","velocity":0.23622047244094488,"duration":"0.02"},{"name":"G#4","midi":68,"time":"410.92","velocity":0.48031496062992124,"duration":"0.02"},{"name":"A#5","midi":82,"time":"410.92","velocity":0.2283464566929134,"duration":"0.06"},{"name":"D#6","midi":87,"time":"410.92","velocity":0.2677165354330709,"duration":"0.12"},{"name":"G#2","midi":44,"time":"410.93","velocity":0.4251968503937008,"duration":"0.02"},{"name":"G#3","midi":56,"time":"410.93","velocity":0.47244094488188976,"duration":"0.06"},{"name":"G4","midi":67,"time":"410.93","velocity":0.48031496062992124,"duration":"0.02"},{"name":"B4","midi":71,"time":"410.93","velocity":0.49606299212598426,"duration":"0.02"},{"name":"D#3","midi":51,"time":"410.94","velocity":0.3779527559055118,"duration":"0.02"},{"name":"C4","midi":60,"time":"410.94","velocity":0.5196850393700787,"duration":"0.01"},{"name":"A#4","midi":70,"time":"410.94","velocity":0.4330708661417323,"duration":"0.03"},{"name":"D#5","midi":75,"time":"410.94","velocity":0.3779527559055118,"duration":"0.02"},{"name":"A6","midi":93,"time":"410.94","velocity":0.23622047244094488,"duration":"0.13"},{"name":"G7","midi":103,"time":"410.94","velocity":0.15748031496062992,"duration":"0.12"},{"name":"A2","midi":45,"time":"410.95","velocity":0.5748031496062992,"duration":"0.28"},{"name":"C#4","midi":61,"time":"410.95","velocity":0.4566929133858268,"duration":"0.08"},{"name":"F4","midi":65,"time":"410.95","velocity":0.3700787401574803,"duration":"0.02"},{"name":"C5","midi":72,"time":"410.95","velocity":0.4015748031496063,"duration":"0.02"},{"name":"F6","midi":89,"time":"410.95","velocity":0.09448818897637795,"duration":"0.05"},{"name":"B4","midi":71,"time":"410.97","velocity":0.36220472440944884,"duration":"0.03"},{"name":"F#5","midi":78,"time":"410.97","velocity":0.5905511811023622,"duration":"1.09"},{"name":"D6","midi":86,"time":"410.97","velocity":0.2204724409448819,"duration":"0.10"},{"name":"G6","midi":91,"time":"410.97","velocity":0.25984251968503935,"duration":"0.06"},{"name":"E4","midi":64,"time":"410.98","velocity":0.36220472440944884,"duration":"0.02"},{"name":"A4","midi":69,"time":"410.98","velocity":0.41732283464566927,"duration":"0.08"},{"name":"D#5","midi":75,"time":"410.98","velocity":0.31496062992125984,"duration":"0.03"},{"name":"E3","midi":52,"time":"410.99","velocity":0.3858267716535433,"duration":"0.02"},{"name":"E4","midi":64,"time":"411.01","velocity":0.36220472440944884,"duration":"0.08"},{"name":"B4","midi":71,"time":"411.01","velocity":0.2992125984251969,"duration":"0.03"},{"name":"G#5","midi":80,"time":"411.01","velocity":0.2992125984251969,"duration":"0.12"},{"name":"E3","midi":52,"time":"411.02","velocity":0.44881889763779526,"duration":"0.09"},{"name":"G6","midi":91,"time":"411.03","velocity":0.23622047244094488,"duration":"0.09"},{"name":"A#3","midi":58,"time":"411.05","velocity":0.31496062992125984,"duration":"0.02"},{"name":"F#4","midi":66,"time":"411.05","velocity":0.47244094488188976,"duration":"0.29"},{"name":"A5","midi":81,"time":"411.07","velocity":0.2992125984251969,"duration":"0.10"},{"name":"C#4","midi":61,"time":"411.08","velocity":0.2283464566929134,"duration":"0.02"},{"name":"D#5","midi":75,"time":"411.08","velocity":0.2283464566929134,"duration":"0.08"},{"name":"A4","midi":69,"time":"411.13","velocity":0.2677165354330709,"duration":"0.09"},{"name":"B4","midi":71,"time":"411.13","velocity":0.2440944881889764,"duration":"0.06"},{"name":"D6","midi":86,"time":"411.13","velocity":0.11811023622047244,"duration":"0.03"},{"name":"G#5","midi":80,"time":"411.14","velocity":0.3858267716535433,"duration":"0.08"},{"name":"F6","midi":89,"time":"411.14","velocity":0.11023622047244094,"duration":"0.03"},{"name":"G6","midi":91,"time":"411.14","velocity":0.25984251968503935,"duration":"0.03"},{"name":"A#3","midi":58,"time":"411.15","velocity":0.30708661417322836,"duration":"0.05"},{"name":"E5","midi":76,"time":"411.15","velocity":0.31496062992125984,"duration":"0.22"},{"name":"C7","midi":96,"time":"411.15","velocity":0.14960629921259844,"duration":"0.09"},{"name":"E3","midi":52,"time":"411.16","velocity":0.3700787401574803,"duration":"0.02"},{"name":"B4","midi":71,"time":"411.20","velocity":0.33070866141732286,"duration":"0.10"},{"name":"A5","midi":81,"time":"411.20","velocity":0.2677165354330709,"duration":"0.12"},{"name":"G#2","midi":44,"time":"411.23","velocity":0.5196850393700787,"duration":"0.01"},{"name":"E3","midi":52,"time":"411.23","velocity":0.3464566929133858,"duration":"0.02"},{"name":"A#3","midi":58,"time":"411.23","velocity":0.25984251968503935,"duration":"0.02"},{"name":"A4","midi":69,"time":"411.23","velocity":0.4094488188976378,"duration":"0.09"},{"name":"G6","midi":91,"time":"411.23","velocity":0.1968503937007874,"duration":"0.05"},{"name":"A3","midi":57,"time":"411.26","velocity":0.3464566929133858,"duration":"0.05"},{"name":"D4","midi":62,"time":"411.26","velocity":0.2204724409448819,"duration":"0.05"},{"name":"G#5","midi":80,"time":"411.26","velocity":0.25196850393700787,"duration":"0.05"},{"name":"A2","midi":45,"time":"411.27","velocity":0.49606299212598426,"duration":"0.02"},{"name":"C7","midi":96,"time":"411.28","velocity":0.1968503937007874,"duration":"0.09"},{"name":"D#3","midi":51,"time":"411.29","velocity":0.5275590551181102,"duration":"0.02"},{"name":"G7","midi":103,"time":"411.29","velocity":0.12598425196850394,"duration":"0.03"},{"name":"E2","midi":40,"time":"411.30","velocity":0.5984251968503937,"duration":"0.02"},{"name":"C6","midi":84,"time":"411.30","velocity":0.29133858267716534,"duration":"0.02"},{"name":"G6","midi":91,"time":"411.30","velocity":0.25196850393700787,"duration":"0.09"},{"name":"F3","midi":53,"time":"411.31","velocity":0.49606299212598426,"duration":"0.02"},{"name":"G#5","midi":80,"time":"411.31","velocity":0.2992125984251969,"duration":"0.14"},{"name":"D#6","midi":87,"time":"411.31","velocity":0.2125984251968504,"duration":"0.09"},{"name":"G#4","midi":68,"time":"411.33","velocity":0.23622047244094488,"duration":"0.02"},{"name":"A#4","midi":70,"time":"411.33","velocity":0.23622047244094488,"duration":"0.02"},{"name":"C5","midi":72,"time":"411.33","velocity":0.3700787401574803,"duration":"0.02"},{"name":"B5","midi":83,"time":"411.33","velocity":0.5905511811023622,"duration":"0.58"},{"name":"D6","midi":86,"time":"411.33","velocity":0.25984251968503935,"duration":"0.06"},{"name":"F#1","midi":30,"time":"411.34","velocity":0.6062992125984252,"duration":"0.03"},{"name":"F#4","midi":66,"time":"411.35","velocity":0.3858267716535433,"duration":"0.13"},{"name":"C#5","midi":73,"time":"411.35","velocity":0.3700787401574803,"duration":"0.05"},{"name":"A#2","midi":46,"time":"411.36","velocity":0.5118110236220472,"duration":"0.01"},{"name":"F6","midi":89,"time":"411.36","velocity":0.1732283464566929,"duration":"0.13"},{"name":"A6","midi":93,"time":"411.36","velocity":0.25984251968503935,"duration":"0.09"},{"name":"B2","midi":47,"time":"411.37","velocity":0.5275590551181102,"duration":"0.01"},{"name":"E7","midi":100,"time":"411.37","velocity":0.2755905511811024,"duration":"1.23"},{"name":"G#2","midi":44,"time":"411.38","velocity":0.5354330708661418,"duration":"0.01"},{"name":"A1","midi":33,"time":"411.40","velocity":0.3543307086614173,"duration":"0.02"},{"name":"B2","midi":47,"time":"411.40","velocity":0.5196850393700787,"duration":"0.01"},{"name":"A4","midi":69,"time":"411.40","velocity":0.2283464566929134,"duration":"0.03"},{"name":"A3","midi":57,"time":"411.41","velocity":0.31496062992125984,"duration":"0.02"},{"name":"C#5","midi":73,"time":"411.41","velocity":0.3937007874015748,"duration":"0.24"},{"name":"A5","midi":81,"time":"411.41","velocity":0.25196850393700787,"duration":"0.02"},{"name":"E6","midi":88,"time":"411.41","velocity":0.2677165354330709,"duration":"0.88"},{"name":"G#6","midi":92,"time":"411.41","velocity":0.3858267716535433,"duration":"0.72"},{"name":"E3","midi":52,"time":"411.42","velocity":0.4881889763779528,"duration":"0.16"},{"name":"D#6","midi":87,"time":"411.42","velocity":0.1889763779527559,"duration":"0.07"},{"name":"A2","midi":45,"time":"411.43","velocity":0.48031496062992124,"duration":"0.02"},{"name":"G6","midi":91,"time":"411.43","velocity":0.14960629921259844,"duration":"0.05"},{"name":"C7","midi":96,"time":"411.43","velocity":0.23622047244094488,"duration":"0.06"},{"name":"A5","midi":81,"time":"411.44","velocity":0.2283464566929134,"duration":"0.10"},{"name":"G#2","midi":44,"time":"411.45","velocity":0.5196850393700787,"duration":"0.01"},{"name":"E5","midi":76,"time":"411.45","velocity":0.28346456692913385,"duration":"0.10"},{"name":"G7","midi":103,"time":"411.45","velocity":0.1968503937007874,"duration":"0.42"},{"name":"G#5","midi":80,"time":"411.48","velocity":0.2440944881889764,"duration":"0.15"},{"name":"G#2","midi":44,"time":"411.49","velocity":0.48031496062992124,"duration":"0.02"},{"name":"A4","midi":69,"time":"411.49","velocity":0.25984251968503935,"duration":"0.03"},{"name":"D6","midi":86,"time":"411.49","velocity":0.2283464566929134,"duration":"0.06"},{"name":"A6","midi":93,"time":"411.49","velocity":0.2283464566929134,"duration":"0.08"},{"name":"F#4","midi":66,"time":"411.50","velocity":0.33070866141732286,"duration":"0.10"},{"name":"A2","midi":45,"time":"411.51","velocity":0.5039370078740157,"duration":"0.02"},{"name":"B4","midi":71,"time":"411.51","velocity":0.4881889763779528,"duration":"0.20"},{"name":"D#6","midi":87,"time":"411.51","velocity":0.14960629921259844,"duration":"0.05"},{"name":"C7","midi":96,"time":"411.51","velocity":0.1732283464566929,"duration":"0.12"},{"name":"G#2","midi":44,"time":"411.53","velocity":0.5275590551181102,"duration":"0.01"},{"name":"A3","midi":57,"time":"411.53","velocity":0.41732283464566927,"duration":"0.12"},{"name":"D6","midi":86,"time":"411.56","velocity":0.3228346456692913,"duration":"0.14"},{"name":"G#2","midi":44,"time":"411.57","velocity":0.5118110236220472,"duration":"0.02"},{"name":"E5","midi":76,"time":"411.58","velocity":0.2755905511811024,"duration":"0.09"},{"name":"A5","midi":81,"time":"411.58","velocity":0.16535433070866143,"duration":"0.08"},{"name":"G6","midi":91,"time":"411.58","velocity":0.18110236220472442,"duration":"0.03"},{"name":"A6","midi":93,"time":"411.58","velocity":0.2440944881889764,"duration":"0.27"},{"name":"E4","midi":64,"time":"411.59","velocity":0.29133858267716534,"duration":"0.07"},{"name":"A2","midi":45,"time":"411.60","velocity":0.5590551181102362,"duration":"0.02"},{"name":"D#6","midi":87,"time":"411.60","velocity":0.18110236220472442,"duration":"0.15"},{"name":"A#2","midi":46,"time":"411.63","velocity":0.5196850393700787,"duration":"0.01"},{"name":"A2","midi":45,"time":"411.64","velocity":0.6062992125984252,"duration":"0.03"},{"name":"C#4","midi":61,"time":"411.65","velocity":0.31496062992125984,"duration":"0.02"},{"name":"A#5","midi":82,"time":"411.65","velocity":0.25196850393700787,"duration":"0.02"},{"name":"C7","midi":96,"time":"411.65","velocity":0.11811023622047244,"duration":"0.05"},{"name":"F#4","midi":66,"time":"411.66","velocity":0.4330708661417323,"duration":"0.07"},{"name":"D5","midi":74,"time":"411.66","velocity":0.2283464566929134,"duration":"0.02"},{"name":"G6","midi":91,"time":"411.66","velocity":0.11811023622047244,"duration":"0.03"},{"name":"F2","midi":41,"time":"411.67","velocity":0.6062992125984252,"duration":"0.01"},{"name":"A5","midi":81,"time":"411.67","velocity":0.2440944881889764,"duration":"0.02"},{"name":"F#2","midi":42,"time":"411.69","velocity":0.5354330708661418,"duration":"0.01"},{"name":"A3","midi":57,"time":"411.69","velocity":0.3858267716535433,"duration":"0.06"},{"name":"C#6","midi":85,"time":"411.69","velocity":0.48031496062992124,"duration":"0.20"},{"name":"E1","midi":28,"time":"411.70","velocity":0.5196850393700787,"duration":"0.03"},{"name":"G#2","midi":44,"time":"411.70","velocity":0.5196850393700787,"duration":"0.01"},{"name":"G5","midi":79,"time":"411.70","velocity":0.2677165354330709,"duration":"0.02"},{"name":"A#5","midi":82,"time":"411.70","velocity":0.3937007874015748,"duration":"0.35"},{"name":"B2","midi":47,"time":"411.71","velocity":0.5196850393700787,"duration":"0.01"},{"name":"D5","midi":74,"time":"411.71","velocity":0.23622047244094488,"duration":"0.02"},{"name":"C7","midi":96,"time":"411.71","velocity":0.2047244094488189,"duration":"0.27"},{"name":"D3","midi":50,"time":"411.72","velocity":0.5511811023622047,"duration":"0.07"},{"name":"E4","midi":64,"time":"411.72","velocity":0.31496062992125984,"duration":"0.02"},{"name":"C#5","midi":73,"time":"411.72","velocity":0.44881889763779526,"duration":"0.07"},{"name":"G#5","midi":80,"time":"411.72","velocity":0.1968503937007874,"duration":"0.05"},{"name":"G6","midi":91,"time":"411.72","velocity":0.16535433070866143,"duration":"0.03"},{"name":"F4","midi":65,"time":"411.73","velocity":0.2992125984251969,"duration":"0.02"},{"name":"D#5","midi":75,"time":"411.73","velocity":0.2440944881889764,"duration":"0.02"},{"name":"F6","midi":89,"time":"411.73","velocity":0.16535433070866143,"duration":"0.06"},{"name":"B4","midi":71,"time":"411.74","velocity":0.3228346456692913,"duration":"0.02"},{"name":"C2","midi":36,"time":"411.76","velocity":0.5118110236220472,"duration":"0.01"},{"name":"A3","midi":57,"time":"411.76","velocity":0.4409448818897638,"duration":"0.19"},{"name":"E4","midi":64,"time":"411.76","velocity":0.29133858267716534,"duration":"0.02"},{"name":"D6","midi":86,"time":"411.76","velocity":0.25984251968503935,"duration":"0.05"},{"name":"E5","midi":76,"time":"411.77","velocity":0.4645669291338583,"duration":"0.06"},{"name":"G6","midi":91,"time":"411.77","velocity":0.14173228346456693,"duration":"0.03"},{"name":"F#4","midi":66,"time":"411.79","velocity":0.3228346456692913,"duration":"0.03"},{"name":"D3","midi":50,"time":"411.80","velocity":0.4330708661417323,"duration":"0.02"},{"name":"G#5","midi":80,"time":"411.80","velocity":0.2125984251968504,"duration":"0.03"},{"name":"D#6","midi":87,"time":"411.80","velocity":0.23622047244094488,"duration":"0.14"},{"name":"C#5","midi":73,"time":"411.81","velocity":0.4330708661417323,"duration":"0.02"},{"name":"C5","midi":72,"time":"411.83","velocity":0.3858267716535433,"duration":"0.03"},{"name":"D#5","midi":75,"time":"411.83","velocity":0.2677165354330709,"duration":"0.03"},{"name":"A5","midi":81,"time":"411.83","velocity":0.1968503937007874,"duration":"0.05"},{"name":"G2","midi":43,"time":"411.85","velocity":0.4094488188976378,"duration":"0.02"},{"name":"A#4","midi":70,"time":"411.85","velocity":0.3937007874015748,"duration":"0.02"},{"name":"C#5","midi":73,"time":"411.85","velocity":0.3858267716535433,"duration":"0.09"},{"name":"G#5","midi":80,"time":"411.85","velocity":0.2992125984251969,"duration":"0.23"},{"name":"E5","midi":76,"time":"411.86","velocity":0.1889763779527559,"duration":"0.03"},{"name":"D4","midi":62,"time":"411.87","velocity":0.2283464566929134,"duration":"0.02"},{"name":"F#4","midi":66,"time":"411.87","velocity":0.4645669291338583,"duration":"0.09"},{"name":"D6","midi":86,"time":"411.87","velocity":0.2992125984251969,"duration":"0.07"},{"name":"A6","midi":93,"time":"411.90","velocity":0.13385826771653545,"duration":"0.05"},{"name":"D3","midi":50,"time":"411.91","velocity":0.44881889763779526,"duration":"0.05"},{"name":"G#4","midi":68,"time":"411.91","velocity":0.4251968503937008,"duration":"0.03"},{"name":"E5","midi":76,"time":"411.91","velocity":0.2125984251968504,"duration":"0.03"},{"name":"G6","midi":91,"time":"411.91","velocity":0.1732283464566929,"duration":"0.03"},{"name":"B5","midi":83,"time":"411.92","velocity":0.3937007874015748,"duration":"0.23"},{"name":"A#4","midi":70,"time":"411.93","velocity":0.25196850393700787,"duration":"0.02"},{"name":"F6","midi":89,"time":"411.94","velocity":0.1732283464566929,"duration":"0.07"},{"name":"G7","midi":103,"time":"411.94","velocity":0.07874015748031496,"duration":"0.08"},{"name":"A3","midi":57,"time":"411.95","velocity":0.31496062992125984,"duration":"0.02"},{"name":"C#5","midi":73,"time":"411.95","velocity":0.31496062992125984,"duration":"0.09"},{"name":"E5","midi":76,"time":"411.95","velocity":0.2677165354330709,"duration":"0.06"},{"name":"D3","midi":50,"time":"411.97","velocity":0.5748031496062992,"duration":"0.09"},{"name":"G6","midi":91,"time":"411.97","velocity":0.09448818897637795,"duration":"0.05"},{"name":"G4","midi":67,"time":"411.98","velocity":0.4409448818897638,"duration":"0.03"},{"name":"B4","midi":71,"time":"411.98","velocity":0.33858267716535434,"duration":"0.07"},{"name":"A5","midi":81,"time":"411.99","velocity":0.25196850393700787,"duration":"0.02"},{"name":"F#2","midi":42,"time":"412.01","velocity":0.4251968503937008,"duration":"0.03"},{"name":"A3","midi":57,"time":"412.01","velocity":0.3779527559055118,"duration":"0.03"},{"name":"F#4","midi":66,"time":"412.01","velocity":0.6062992125984252,"duration":"0.34"},{"name":"C6","midi":84,"time":"412.01","velocity":0.2283464566929134,"duration":"0.03"},{"name":"F5","midi":77,"time":"412.02","velocity":0.23622047244094488,"duration":"0.06"},{"name":"A5","midi":81,"time":"412.02","velocity":0.3464566929133858,"duration":"0.03"},{"name":"G6","midi":91,"time":"412.02","velocity":0.18110236220472442,"duration":"0.12"},{"name":"G7","midi":103,"time":"412.05","velocity":0.1889763779527559,"duration":"0.06"},{"name":"B3","midi":59,"time":"412.06","velocity":0.3543307086614173,"duration":"0.02"},{"name":"A#5","midi":82,"time":"412.06","velocity":0.3858267716535433,"duration":"0.31"},{"name":"C7","midi":96,"time":"412.06","velocity":0.18110236220472442,"duration":"0.08"},{"name":"D7","midi":98,"time":"412.06","velocity":0.2755905511811024,"duration":"0.74"},{"name":"D5","midi":74,"time":"412.07","velocity":0.2755905511811024,"duration":"0.02"},{"name":"E5","midi":76,"time":"412.07","velocity":0.30708661417322836,"duration":"0.05"},{"name":"A6","midi":93,"time":"412.07","velocity":0.2204724409448819,"duration":"0.09"},{"name":"C#3","midi":49,"time":"412.08","velocity":0.5275590551181102,"duration":"0.01"},{"name":"A3","midi":57,"time":"412.08","velocity":0.4409448818897638,"duration":"0.22"},{"name":"C#5","midi":73,"time":"412.08","velocity":0.41732283464566927,"duration":"0.21"},{"name":"C6","midi":84,"time":"412.08","velocity":0.2125984251968504,"duration":"0.05"},{"name":"D3","midi":50,"time":"412.09","velocity":0.5748031496062992,"duration":"0.10"},{"name":"D#5","midi":75,"time":"412.12","velocity":0.2283464566929134,"duration":"0.02"},{"name":"D6","midi":86,"time":"412.12","velocity":0.2047244094488189,"duration":"0.08"},{"name":"F6","midi":89,"time":"412.12","velocity":0.12598425196850394,"duration":"0.06"},{"name":"G#5","midi":80,"time":"412.13","velocity":0.2992125984251969,"duration":"0.10"},{"name":"G#6","midi":92,"time":"412.14","velocity":0.4330708661417323,"duration":"1.74"},{"name":"A5","midi":81,"time":"412.15","velocity":0.30708661417322836,"duration":"0.06"},{"name":"C6","midi":84,"time":"412.15","velocity":0.31496062992125984,"duration":"0.13"},{"name":"E5","midi":76,"time":"412.17","velocity":0.33858267716535434,"duration":"0.12"},{"name":"G7","midi":103,"time":"412.17","velocity":0.18110236220472442,"duration":"0.20"},{"name":"B4","midi":71,"time":"412.19","velocity":0.28346456692913385,"duration":"0.07"},{"name":"D3","midi":50,"time":"412.21","velocity":0.3700787401574803,"duration":"0.02"},{"name":"G6","midi":91,"time":"412.21","velocity":0.12598425196850394,"duration":"0.06"},{"name":"A6","midi":93,"time":"412.21","velocity":0.15748031496062992,"duration":"0.16"},{"name":"A5","midi":81,"time":"412.22","velocity":0.28346456692913385,"duration":"0.03"},{"name":"D4","midi":62,"time":"412.24","velocity":0.33858267716535434,"duration":"0.10"},{"name":"G#5","midi":80,"time":"412.26","velocity":0.2992125984251969,"duration":"0.07"},{"name":"A#4","midi":70,"time":"412.27","velocity":0.23622047244094488,"duration":"0.03"},{"name":"D3","midi":50,"time":"412.28","velocity":0.5511811023622047,"duration":"0.13"},{"name":"D6","midi":86,"time":"412.28","velocity":0.23622047244094488,"duration":"0.07"},{"name":"F6","midi":89,"time":"412.28","velocity":0.08661417322834646,"duration":"0.03"},{"name":"C5","midi":72,"time":"412.29","velocity":0.2755905511811024,"duration":"0.05"},{"name":"B5","midi":83,"time":"412.29","velocity":0.13385826771653545,"duration":"0.03"},{"name":"E5","midi":76,"time":"412.30","velocity":0.4094488188976378,"duration":"0.14"},{"name":"F7","midi":101,"time":"412.33","velocity":0.25984251968503935,"duration":"0.35"},{"name":"A3","midi":57,"time":"412.34","velocity":0.4645669291338583,"duration":"0.07"},{"name":"B4","midi":71,"time":"412.34","velocity":0.1968503937007874,"duration":"0.05"},{"name":"G#5","midi":80,"time":"412.34","velocity":0.33070866141732286,"duration":"0.08"},{"name":"F6","midi":89,"time":"412.34","velocity":0.11811023622047244,"duration":"0.03"},{"name":"D5","midi":74,"time":"412.35","velocity":0.2283464566929134,"duration":"0.05"},{"name":"B5","midi":83,"time":"412.35","velocity":0.33070866141732286,"duration":"0.08"},{"name":"G6","midi":91,"time":"412.35","velocity":0.12598425196850394,"duration":"0.03"},{"name":"C7","midi":96,"time":"412.35","velocity":0.23622047244094488,"duration":"0.40"},{"name":"F#4","midi":66,"time":"412.36","velocity":0.5590551181102362,"duration":"0.07"},{"name":"A5","midi":81,"time":"412.36","velocity":0.2992125984251969,"duration":"0.12"},{"name":"B1","midi":35,"time":"412.37","velocity":0.3937007874015748,"duration":"0.02"},{"name":"D#6","midi":87,"time":"412.37","velocity":0.14173228346456693,"duration":"0.07"},{"name":"C#5","midi":73,"time":"412.38","velocity":0.5039370078740157,"duration":"0.29"},{"name":"E2","midi":40,"time":"412.40","velocity":0.3779527559055118,"duration":"0.02"},{"name":"B4","midi":71,"time":"412.40","velocity":0.4645669291338583,"duration":"0.05"},{"name":"C6","midi":84,"time":"412.40","velocity":0.2992125984251969,"duration":"0.06"},{"name":"D#3","midi":51,"time":"412.41","velocity":0.5275590551181102,"duration":"0.02"},{"name":"G6","midi":91,"time":"412.41","velocity":0.2047244094488189,"duration":"0.03"},{"name":"G7","midi":103,"time":"412.42","velocity":0.2677165354330709,"duration":"0.16"},{"name":"G4","midi":67,"time":"412.43","velocity":0.5590551181102362,"duration":"0.01"},{"name":"A#5","midi":82,"time":"412.43","velocity":0.25984251968503935,"duration":"0.05"},{"name":"D6","midi":86,"time":"412.43","velocity":0.33070866141732286,"duration":"0.05"},{"name":"D#3","midi":51,"time":"412.44","velocity":0.5275590551181102,"duration":"0.01"},{"name":"G#3","midi":56,"time":"412.44","velocity":0.3779527559055118,"duration":"0.02"},{"name":"C#4","midi":61,"time":"412.44","velocity":0.4645669291338583,"duration":"0.02"},{"name":"G#4","midi":68,"time":"412.44","velocity":0.3937007874015748,"duration":"0.03"},{"name":"A#4","midi":70,"time":"412.44","velocity":0.4251968503937008,"duration":"0.02"},{"name":"B5","midi":83,"time":"412.44","velocity":0.23622047244094488,"duration":"0.02"},{"name":"D3","midi":50,"time":"412.45","velocity":0.5669291338582677,"duration":"0.08"},{"name":"F4","midi":65,"time":"412.45","velocity":0.3700787401574803,"duration":"0.02"},{"name":"C#6","midi":85,"time":"412.45","velocity":0.5354330708661418,"duration":"0.41"},{"name":"A3","midi":57,"time":"412.47","velocity":0.4645669291338583,"duration":"0.06"},{"name":"D#5","midi":75,"time":"412.47","velocity":0.23622047244094488,"duration":"0.02"},{"name":"F#4","midi":66,"time":"412.48","velocity":0.5354330708661418,"duration":"0.16"},{"name":"B5","midi":83,"time":"412.48","velocity":0.3700787401574803,"duration":"0.33"},{"name":"E5","midi":76,"time":"412.49","velocity":0.31496062992125984,"duration":"0.06"},{"name":"C6","midi":84,"time":"412.49","velocity":0.2677165354330709,"duration":"0.03"},{"name":"D6","midi":86,"time":"412.49","velocity":0.2047244094488189,"duration":"0.03"},{"name":"G6","midi":91,"time":"412.49","velocity":0.18110236220472442,"duration":"0.08"},{"name":"G1","midi":31,"time":"412.50","velocity":0.2992125984251969,"duration":"0.02"},{"name":"F6","midi":89,"time":"412.51","velocity":0.12598425196850394,"duration":"0.03"},{"name":"A3","midi":57,"time":"412.53","velocity":0.4251968503937008,"duration":"0.05"},{"name":"C6","midi":84,"time":"412.53","velocity":0.28346456692913385,"duration":"0.02"},{"name":"D3","midi":50,"time":"412.55","velocity":0.4566929133858268,"duration":"0.05"},{"name":"A#6","midi":94,"time":"412.55","velocity":0.31496062992125984,"duration":"2.34"},{"name":"E5","midi":76,"time":"412.56","velocity":0.36220472440944884,"duration":"0.20"},{"name":"A#5","midi":82,"time":"412.56","velocity":0.30708661417322836,"duration":"0.15"},{"name":"D#6","midi":87,"time":"412.57","velocity":0.15748031496062992,"duration":"0.03"},{"name":"G#5","midi":80,"time":"412.58","velocity":0.16535433070866143,"duration":"0.06"},{"name":"A6","midi":93,"time":"412.58","velocity":0.1732283464566929,"duration":"0.05"},{"name":"A3","midi":57,"time":"412.59","velocity":0.49606299212598426,"duration":"0.19"},{"name":"D3","midi":50,"time":"412.60","velocity":0.47244094488188976,"duration":"0.02"},{"name":"D6","midi":86,"time":"412.60","velocity":0.2204724409448819,"duration":"0.07"},{"name":"E7","midi":100,"time":"412.62","velocity":0.3228346456692913,"duration":"1.59"},{"name":"G7","midi":103,"time":"412.62","velocity":0.1732283464566929,"duration":"0.05"},{"name":"D3","midi":50,"time":"412.64","velocity":0.4881889763779528,"duration":"0.03"},{"name":"F4","midi":65,"time":"412.64","velocity":0.3700787401574803,"duration":"0.02"},{"name":"G#5","midi":80,"time":"412.65","velocity":0.2283464566929134,"duration":"0.07"},{"name":"F#4","midi":66,"time":"412.66","velocity":0.4330708661417323,"duration":"0.13"},{"name":"C6","midi":84,"time":"412.66","velocity":0.25984251968503935,"duration":"0.03"},{"name":"D4","midi":62,"time":"412.67","velocity":0.3700787401574803,"duration":"0.05"},{"name":"A5","midi":81,"time":"412.67","velocity":0.33858267716535434,"duration":"0.09"},{"name":"F6","midi":89,"time":"412.67","velocity":0.13385826771653545,"duration":"0.03"},{"name":"D3","midi":50,"time":"412.69","velocity":0.5196850393700787,"duration":"0.12"},{"name":"C#5","midi":73,"time":"412.69","velocity":0.36220472440944884,"duration":"0.12"},{"name":"D#6","midi":87,"time":"412.69","velocity":0.11023622047244094,"duration":"0.07"},{"name":"F7","midi":101,"time":"412.69","velocity":0.2440944881889764,"duration":"0.41"},{"name":"G7","midi":103,"time":"412.69","velocity":0.15748031496062992,"duration":"0.19"},{"name":"D#5","midi":75,"time":"412.70","velocity":0.23622047244094488,"duration":"0.03"},{"name":"B1","midi":35,"time":"412.71","velocity":0.3228346456692913,"duration":"0.02"},{"name":"B4","midi":71,"time":"412.71","velocity":0.1732283464566929,"duration":"0.03"},{"name":"C6","midi":84,"time":"412.71","velocity":0.2677165354330709,"duration":"0.03"},{"name":"G#5","midi":80,"time":"412.73","velocity":0.1968503937007874,"duration":"0.03"},{"name":"A#5","midi":82,"time":"412.74","velocity":0.33858267716535434,"duration":"0.12"},{"name":"D#5","midi":75,"time":"412.76","velocity":0.2283464566929134,"duration":"0.02"},{"name":"C7","midi":96,"time":"412.76","velocity":0.2283464566929134,"duration":"0.07"},{"name":"C6","midi":84,"time":"412.77","velocity":0.2440944881889764,"duration":"0.02"},{"name":"E5","midi":76,"time":"412.78","velocity":0.3228346456692913,"duration":"0.09"},{"name":"F4","midi":65,"time":"412.79","velocity":0.4330708661417323,"duration":"0.02"},{"name":"F6","midi":89,"time":"412.79","velocity":0.07874015748031496,"duration":"0.03"},{"name":"G6","midi":91,"time":"412.79","velocity":0.2677165354330709,"duration":"0.03"},{"name":"E3","midi":52,"time":"412.80","velocity":0.47244094488188976,"duration":"0.02"},{"name":"A#3","midi":58,"time":"412.80","velocity":0.28346456692913385,"duration":"0.02"},{"name":"C5","midi":72,"time":"412.80","velocity":0.36220472440944884,"duration":"0.02"},{"name":"D6","midi":86,"time":"412.80","velocity":0.31496062992125984,"duration":"0.12"},{"name":"F#4","midi":66,"time":"412.81","velocity":0.4881889763779528,"duration":"0.20"},{"name":"E2","midi":40,"time":"412.83","velocity":0.3543307086614173,"duration":"0.02"},{"name":"D3","midi":50,"time":"412.83","velocity":0.5826771653543307,"duration":"0.13"},{"name":"A3","midi":57,"time":"412.83","velocity":0.3700787401574803,"duration":"0.16"},{"name":"B4","midi":71,"time":"412.83","velocity":0.4645669291338583,"duration":"0.36"},{"name":"C#5","midi":73,"time":"412.83","velocity":0.3779527559055118,"duration":"0.02"},{"name":"G5","midi":79,"time":"412.83","velocity":0.2440944881889764,"duration":"0.02"},{"name":"B5","midi":83,"time":"412.83","velocity":0.5826771653543307,"duration":"0.67"},{"name":"D#6","midi":87,"time":"412.83","velocity":0.10236220472440945,"duration":"0.05"},{"name":"C7","midi":96,"time":"412.84","velocity":0.1889763779527559,"duration":"0.06"},{"name":"D5","midi":74,"time":"412.85","velocity":0.3543307086614173,"duration":"0.02"},{"name":"G#5","midi":80,"time":"412.85","velocity":0.2992125984251969,"duration":"0.16"},{"name":"C6","midi":84,"time":"412.85","velocity":0.2283464566929134,"duration":"0.02"},{"name":"A5","midi":81,"time":"412.86","velocity":0.14173228346456693,"duration":"0.03"},{"name":"C#5","midi":73,"time":"412.87","velocity":0.4015748031496063,"duration":"0.07"},{"name":"A#5","midi":82,"time":"412.87","velocity":0.2755905511811024,"duration":"0.08"},{"name":"C#6","midi":85,"time":"412.87","velocity":0.5275590551181102,"duration":"1.53"},{"name":"G6","midi":91,"time":"412.87","velocity":0.2283464566929134,"duration":"0.03"},{"name":"E5","midi":76,"time":"412.88","velocity":0.2992125984251969,"duration":"0.06"},{"name":"F6","midi":89,"time":"412.91","velocity":0.13385826771653545,"duration":"0.06"},{"name":"C7","midi":96,"time":"412.91","velocity":0.1968503937007874,"duration":"0.15"},{"name":"D6","midi":86,"time":"412.93","velocity":0.2283464566929134,"duration":"0.03"},{"name":"D#5","midi":75,"time":"412.94","velocity":0.2755905511811024,"duration":"0.02"},{"name":"A5","midi":81,"time":"412.95","velocity":0.3228346456692913,"duration":"0.13"},{"name":"D3","midi":50,"time":"412.97","velocity":0.5196850393700787,"duration":"0.05"},{"name":"C#5","midi":73,"time":"412.97","velocity":0.29133858267716534,"duration":"0.05"},{"name":"E5","midi":76,"time":"412.99","velocity":0.29133858267716534,"duration":"0.10"},{"name":"F6","midi":89,"time":"413.00","velocity":0.08661417322834646,"duration":"0.05"},{"name":"D6","midi":86,"time":"413.01","velocity":0.30708661417322836,"duration":"0.03"},{"name":"D3","midi":50,"time":"413.02","velocity":0.5354330708661418,"duration":"0.14"},{"name":"F#4","midi":66,"time":"413.02","velocity":0.49606299212598426,"duration":"0.08"},{"name":"A4","midi":69,"time":"413.03","velocity":0.3543307086614173,"duration":"0.09"},{"name":"C#5","midi":73,"time":"413.06","velocity":0.3543307086614173,"duration":"0.05"},{"name":"G#5","midi":80,"time":"413.07","velocity":0.2204724409448819,"duration":"0.05"},{"name":"A#5","midi":82,"time":"413.07","velocity":0.3464566929133858,"duration":"0.22"},{"name":"A3","midi":57,"time":"413.08","velocity":0.28346456692913385,"duration":"0.06"},{"name":"A6","midi":93,"time":"413.08","velocity":0.15748031496062992,"duration":"0.08"},{"name":"C7","midi":96,"time":"413.08","velocity":0.18110236220472442,"duration":"0.05"},{"name":"D#5","midi":75,"time":"413.09","velocity":0.2125984251968504,"duration":"0.05"},{"name":"F4","midi":65,"time":"413.10","velocity":0.3858267716535433,"duration":"0.02"},{"name":"G5","midi":79,"time":"413.12","velocity":0.1889763779527559,"duration":"0.03"},{"name":"D6","midi":86,"time":"413.12","velocity":0.18110236220472442,"duration":"0.05"},{"name":"E6","midi":88,"time":"413.12","velocity":0.2440944881889764,"duration":"0.22"},{"name":"F7","midi":101,"time":"413.12","velocity":0.12598425196850394,"duration":"0.06"},{"name":"G7","midi":103,"time":"413.12","velocity":0.14173228346456693,"duration":"0.08"},{"name":"F#4","midi":66,"time":"413.13","velocity":0.4330708661417323,"duration":"0.05"},{"name":"A5","midi":81,"time":"413.13","velocity":0.2125984251968504,"duration":"0.03"},{"name":"A#3","midi":58,"time":"413.14","velocity":0.30708661417322836,"duration":"0.02"},{"name":"A4","midi":69,"time":"413.14","velocity":0.2283464566929134,"duration":"0.02"},{"name":"G#5","midi":80,"time":"413.14","velocity":0.25984251968503935,"duration":"0.14"},{"name":"A#1","midi":34,"time":"413.15","velocity":0.5275590551181102,"duration":"0.02"},{"name":"D5","midi":74,"time":"413.15","velocity":0.2283464566929134,"duration":"0.02"},{"name":"C7","midi":96,"time":"413.15","velocity":0.2125984251968504,"duration":"0.34"},{"name":"C#3","midi":49,"time":"413.16","velocity":0.5354330708661418,"duration":"0.01"},{"name":"G4","midi":67,"time":"413.16","velocity":0.3543307086614173,"duration":"0.02"},{"name":"F2","midi":41,"time":"413.17","velocity":0.6456692913385826,"duration":"0.01"},{"name":"A#3","midi":58,"time":"413.17","velocity":0.3543307086614173,"duration":"0.03"},{"name":"A4","midi":69,"time":"413.17","velocity":0.3543307086614173,"duration":"0.13"},{"name":"E5","midi":76,"time":"413.17","velocity":0.2283464566929134,"duration":"0.02"},{"name":"F#5","midi":78,"time":"413.17","velocity":0.4409448818897638,"duration":"0.10"},{"name":"D#6","midi":87,"time":"413.17","velocity":0.1732283464566929,"duration":"0.05"},{"name":"A6","midi":93,"time":"413.17","velocity":0.13385826771653545,"duration":"0.06"},{"name":"G#2","midi":44,"time":"413.19","velocity":0.6062992125984252,"duration":"0.01"},{"name":"F#4","midi":66,"time":"413.19","velocity":0.5118110236220472,"duration":"0.07"},{"name":"C5","midi":72,"time":"413.19","velocity":0.3228346456692913,"duration":"0.02"},{"name":"F7","midi":101,"time":"413.19","velocity":0.2440944881889764,"duration":"0.69"},{"name":"C#3","midi":49,"time":"413.20","velocity":0.5669291338582677,"duration":"0.01"},{"name":"D4","midi":62,"time":"413.20","velocity":0.2440944881889764,"duration":"0.02"},{"name":"D#5","midi":75,"time":"413.20","velocity":0.2755905511811024,"duration":"0.03"},{"name":"D6","midi":86,"time":"413.20","velocity":0.16535433070866143,"duration":"0.08"},{"name":"E1","midi":28,"time":"413.21","velocity":0.5433070866141733,"duration":"0.01"},{"name":"D3","midi":50,"time":"413.21","velocity":0.5433070866141733,"duration":"0.02"},{"name":"A3","midi":57,"time":"413.21","velocity":0.4015748031496063,"duration":"0.03"},{"name":"B4","midi":71,"time":"413.21","velocity":0.33858267716535434,"duration":"0.03"},{"name":"F1","midi":29,"time":"413.22","velocity":0.5354330708661418,"duration":"0.01"},{"name":"D5","midi":74,"time":"413.22","velocity":0.33070866141732286,"duration":"0.03"},{"name":"C#3","midi":49,"time":"413.23","velocity":0.5511811023622047,"duration":"0.02"},{"name":"D#6","midi":87,"time":"413.24","velocity":0.11811023622047244,"duration":"0.03"},{"name":"F6","midi":89,"time":"413.24","velocity":0.10236220472440945,"duration":"0.05"},{"name":"D3","midi":50,"time":"413.26","velocity":0.5669291338582677,"duration":"0.23"},{"name":"C#5","midi":73,"time":"413.26","velocity":0.4330708661417323,"duration":"0.22"},{"name":"F#4","midi":66,"time":"413.27","velocity":0.48031496062992124,"duration":"0.06"},{"name":"B4","midi":71,"time":"413.27","velocity":0.33858267716535434,"duration":"0.12"},{"name":"E5","midi":76,"time":"413.27","velocity":0.28346456692913385,"duration":"0.08"},{"name":"G6","midi":91,"time":"413.27","velocity":0.15748031496062992,"duration":"0.03"},{"name":"G5","midi":79,"time":"413.28","velocity":0.2440944881889764,"duration":"0.06"},{"name":"A6","midi":93,"time":"413.29","velocity":0.2125984251968504,"duration":"0.10"},{"name":"A#5","midi":82,"time":"413.30","velocity":0.30708661417322836,"duration":"0.03"},{"name":"A3","midi":57,"time":"413.33","velocity":0.4094488188976378,"duration":"0.05"},{"name":"F#6","midi":90,"time":"413.33","velocity":0.47244094488188976,"duration":"4.52"},{"name":"F#4","midi":66,"time":"413.34","velocity":0.5354330708661418,"duration":"0.08"},{"name":"G#5","midi":80,"time":"413.34","velocity":0.33858267716535434,"duration":"0.22"},{"name":"A#5","midi":82,"time":"413.35","velocity":0.3464566929133858,"duration":"0.14"},{"name":"E6","midi":88,"time":"413.35","velocity":0.25984251968503935,"duration":"0.29"},{"name":"G1","midi":31,"time":"413.36","velocity":0.3937007874015748,"duration":"0.02"},{"name":"D6","midi":86,"time":"413.36","velocity":0.2755905511811024,"duration":"0.10"},{"name":"G6","midi":91,"time":"413.36","velocity":0.15748031496062992,"duration":"0.06"},{"name":"A3","midi":57,"time":"413.38","velocity":0.3779527559055118,"duration":"0.02"},{"name":"B4","midi":71,"time":"413.40","velocity":0.2755905511811024,"duration":"0.02"},{"name":"E5","midi":76,"time":"413.40","velocity":0.33858267716535434,"duration":"0.16"},{"name":"A6","midi":93,"time":"413.42","velocity":0.14960629921259844,"duration":"0.03"},{"name":"F#4","midi":66,"time":"413.43","velocity":0.49606299212598426,"duration":"0.05"},{"name":"B4","midi":71,"time":"413.43","velocity":0.36220472440944884,"duration":"0.07"},{"name":"A3","midi":57,"time":"413.45","velocity":0.41732283464566927,"duration":"0.08"},{"name":"A5","midi":81,"time":"413.45","velocity":0.31496062992125984,"duration":"0.07"},{"name":"D5","midi":74,"time":"413.48","velocity":0.25984251968503935,"duration":"0.06"},{"name":"A1","midi":33,"time":"413.49","velocity":0.28346456692913385,"duration":"0.02"},{"name":"C#3","midi":49,"time":"413.49","velocity":0.5196850393700787,"duration":"0.01"},{"name":"E4","midi":64,"time":"413.49","velocity":0.4094488188976378,"duration":"0.05"},{"name":"C6","midi":84,"time":"413.49","velocity":0.29133858267716534,"duration":"0.07"},{"name":"G6","midi":91,"time":"413.49","velocity":0.1732283464566929,"duration":"0.09"},{"name":"D3","midi":50,"time":"413.50","velocity":0.5196850393700787,"duration":"0.03"},{"name":"F#4","midi":66,"time":"413.50","velocity":0.48031496062992124,"duration":"0.08"},{"name":"A#5","midi":82,"time":"413.50","velocity":0.29133858267716534,"duration":"0.05"},{"name":"D#6","midi":87,"time":"413.50","velocity":0.11811023622047244,"duration":"0.08"},{"name":"B4","midi":71,"time":"413.51","velocity":0.3228346456692913,"duration":"0.03"},{"name":"C7","midi":96,"time":"413.51","velocity":0.29133858267716534,"duration":"0.69"},{"name":"D7","midi":98,"time":"413.51","velocity":0.29133858267716534,"duration":"0.60"},{"name":"A5","midi":81,"time":"413.53","velocity":0.31496062992125984,"duration":"0.15"},{"name":"A#2","midi":46,"time":"413.55","velocity":0.5118110236220472,"duration":"0.01"},{"name":"F3","midi":53,"time":"413.55","velocity":0.5275590551181102,"duration":"0.01"},{"name":"B5","midi":83,"time":"413.55","velocity":0.2204724409448819,"duration":"0.03"},{"name":"G7","midi":103,"time":"413.55","velocity":0.1889763779527559,"duration":"0.07"},{"name":"A2","midi":45,"time":"413.56","velocity":0.5748031496062992,"duration":"0.01"},{"name":"D#3","midi":51,"time":"413.56","velocity":0.5511811023622047,"duration":"0.03"},{"name":"A4","midi":69,"time":"413.56","velocity":0.3700787401574803,"duration":"0.37"},{"name":"F#2","midi":42,"time":"413.57","velocity":0.5433070866141733,"duration":"0.02"},{"name":"A3","midi":57,"time":"413.57","velocity":0.3779527559055118,"duration":"0.03"},{"name":"C#5","midi":73,"time":"413.57","velocity":0.2440944881889764,"duration":"0.06"},{"name":"D#5","midi":75,"time":"413.57","velocity":0.2283464566929134,"duration":"0.06"},{"name":"G5","midi":79,"time":"413.57","velocity":0.16535433070866143,"duration":"0.03"},{"name":"C6","midi":84,"time":"413.57","velocity":0.28346456692913385,"duration":"0.15"},{"name":"D6","midi":86,"time":"413.58","velocity":0.1889763779527559,"duration":"0.05"},{"name":"C#3","midi":49,"time":"413.59","velocity":0.5826771653543307,"duration":"0.01"},{"name":"F#4","midi":66,"time":"413.59","velocity":0.4251968503937008,"duration":"0.12"},{"name":"G#2","midi":44,"time":"413.60","velocity":0.5118110236220472,"duration":"0.01"},{"name":"D3","midi":50,"time":"413.60","velocity":0.5826771653543307,"duration":"0.19"},{"name":"B4","midi":71,"time":"413.60","velocity":0.25196850393700787,"duration":"0.05"},{"name":"A#5","midi":82,"time":"413.60","velocity":0.15748031496062992,"duration":"0.03"},{"name":"B6","midi":95,"time":"413.60","velocity":0.09448818897637795,"duration":"0.06"},{"name":"C2","midi":36,"time":"413.62","velocity":0.5196850393700787,"duration":"0.02"},{"name":"E5","midi":76,"time":"413.62","velocity":0.2755905511811024,"duration":"0.08"},{"name":"A3","midi":57,"time":"413.63","velocity":0.33858267716535434,"duration":"0.12"},{"name":"D5","midi":74,"time":"413.63","velocity":0.25984251968503935,"duration":"0.02"},{"name":"B5","midi":83,"time":"413.63","velocity":0.3228346456692913,"duration":"0.20"},{"name":"C#5","midi":73,"time":"413.64","velocity":0.25196850393700787,"duration":"0.07"},{"name":"D6","midi":86,"time":"413.64","velocity":0.31496062992125984,"duration":"0.12"},{"name":"A#5","midi":82,"time":"413.65","velocity":0.29133858267716534,"duration":"0.16"},{"name":"E6","midi":88,"time":"413.65","velocity":0.28346456692913385,"duration":"0.71"},{"name":"F1","midi":29,"time":"413.70","velocity":0.3228346456692913,"duration":"0.02"},{"name":"D#5","midi":75,"time":"413.70","velocity":0.2992125984251969,"duration":"0.05"},{"name":"G7","midi":103,"time":"413.70","velocity":0.09448818897637795,"duration":"0.07"},{"name":"F4","midi":65,"time":"413.71","velocity":0.25196850393700787,"duration":"0.02"},{"name":"C5","midi":72,"time":"413.72","velocity":0.23622047244094488,"duration":"0.03"},{"name":"F#4","midi":66,"time":"413.73","velocity":0.4251968503937008,"duration":"0.14"},{"name":"E5","midi":76,"time":"413.73","velocity":0.2283464566929134,"duration":"0.10"},{"name":"C#5","midi":73,"time":"413.74","velocity":0.49606299212598426,"duration":"0.58"},{"name":"G6","midi":91,"time":"413.76","velocity":0.11023622047244094,"duration":"0.03"},{"name":"B4","midi":71,"time":"413.77","velocity":0.28346456692913385,"duration":"0.07"},{"name":"D6","midi":86,"time":"413.77","velocity":0.15748031496062992,"duration":"0.03"},{"name":"C#3","midi":49,"time":"413.79","velocity":0.5275590551181102,"duration":"0.01"},{"name":"A3","midi":57,"time":"413.79","velocity":0.33070866141732286,"duration":"0.02"},{"name":"D3","midi":50,"time":"413.80","velocity":0.5354330708661418,"duration":"0.08"},{"name":"G7","midi":103,"time":"413.80","velocity":0.11023622047244094,"duration":"0.06"},{"name":"G#5","midi":80,"time":"413.81","velocity":0.33070866141732286,"duration":"0.12"},{"name":"C6","midi":84,"time":"413.81","velocity":0.29133858267716534,"duration":"0.06"},{"name":"D6","midi":86,"time":"413.81","velocity":0.1732283464566929,"duration":"0.06"},{"name":"A3","midi":57,"time":"413.84","velocity":0.3464566929133858,"duration":"0.02"},{"name":"D#5","midi":75,"time":"413.84","velocity":0.23622047244094488,"duration":"0.05"},{"name":"B5","midi":83,"time":"413.84","velocity":0.3464566929133858,"duration":"0.14"},{"name":"E4","midi":64,"time":"413.85","velocity":0.25196850393700787,"duration":"0.02"},{"name":"A#5","midi":82,"time":"413.85","velocity":0.1968503937007874,"duration":"0.05"},{"name":"A3","midi":57,"time":"413.87","velocity":0.36220472440944884,"duration":"0.03"},{"name":"F6","midi":89,"time":"413.87","velocity":0.09448818897637795,"duration":"0.03"},{"name":"G6","midi":91,"time":"413.87","velocity":0.11023622047244094,"duration":"0.06"},{"name":"F#4","midi":66,"time":"413.88","velocity":0.44881889763779526,"duration":"0.05"},{"name":"E5","midi":76,"time":"413.88","velocity":0.44881889763779526,"duration":"0.08"},{"name":"C6","midi":84,"time":"413.88","velocity":0.25984251968503935,"duration":"0.02"},{"name":"F7","midi":101,"time":"413.88","velocity":0.2204724409448819,"duration":"0.30"},{"name":"D3","midi":50,"time":"413.90","velocity":0.4566929133858268,"duration":"0.02"},{"name":"G#6","midi":92,"time":"413.90","velocity":0.36220472440944884,"duration":"0.56"},{"name":"B3","midi":59,"time":"413.91","velocity":0.30708661417322836,"duration":"0.02"},{"name":"G4","midi":67,"time":"413.92","velocity":0.47244094488188976,"duration":"0.02"},{"name":"G7","midi":103,"time":"413.92","velocity":0.2204724409448819,"duration":"0.13"},{"name":"D6","midi":86,"time":"413.93","velocity":0.31496062992125984,"duration":"0.07"},{"name":"F6","midi":89,"time":"413.93","velocity":0.14960629921259844,"duration":"0.09"},{"name":"F3","midi":53,"time":"413.94","velocity":0.5590551181102362,"duration":"0.01"},{"name":"C4","midi":60,"time":"413.94","velocity":0.4330708661417323,"duration":"0.03"},{"name":"F#4","midi":66,"time":"413.94","velocity":0.5118110236220472,"duration":"0.09"},{"name":"G5","midi":79,"time":"413.94","velocity":0.30708661417322836,"duration":"0.02"},{"name":"E2","midi":40,"time":"413.95","velocity":0.3543307086614173,"duration":"0.02"},{"name":"D3","midi":50,"time":"413.95","velocity":0.5984251968503937,"duration":"0.28"},{"name":"A4","midi":69,"time":"413.95","velocity":0.44881889763779526,"duration":"0.03"},{"name":"B4","midi":71,"time":"413.97","velocity":0.25196850393700787,"duration":"0.03"},{"name":"D#5","midi":75,"time":"413.97","velocity":0.30708661417322836,"duration":"0.02"},{"name":"G#5","midi":80,"time":"413.97","velocity":0.25984251968503935,"duration":"0.03"},{"name":"C6","midi":84,"time":"413.97","velocity":0.2677165354330709,"duration":"0.02"},{"name":"A#5","midi":82,"time":"413.98","velocity":0.23622047244094488,"duration":"0.05"},{"name":"E5","midi":76,"time":"413.99","velocity":0.3228346456692913,"duration":"0.02"},{"name":"B5","midi":83,"time":"413.99","velocity":0.3700787401574803,"duration":"0.35"},{"name":"G#3","midi":56,"time":"414.00","velocity":0.30708661417322836,"duration":"0.02"},{"name":"D#6","midi":87,"time":"414.00","velocity":0.15748031496062992,"duration":"0.06"},{"name":"A4","midi":69,"time":"414.02","velocity":0.3779527559055118,"duration":"0.02"},{"name":"G#5","midi":80,"time":"414.02","velocity":0.3464566929133858,"duration":"0.10"},{"name":"A3","midi":57,"time":"414.03","velocity":0.36220472440944884,"duration":"0.02"},{"name":"C6","midi":84,"time":"414.03","velocity":0.25984251968503935,"duration":"0.03"},{"name":"F#4","midi":66,"time":"414.05","velocity":0.4094488188976378,"duration":"0.02"},{"name":"E5","midi":76,"time":"414.05","velocity":0.2204724409448819,"duration":"0.03"},{"name":"A5","midi":81,"time":"414.05","velocity":0.1732283464566929,"duration":"0.03"},{"name":"A6","midi":93,"time":"414.05","velocity":0.1889763779527559,"duration":"0.12"},{"name":"A#3","midi":58,"time":"414.06","velocity":0.3700787401574803,"duration":"0.03"},{"name":"A4","midi":69,"time":"414.06","velocity":0.2677165354330709,"duration":"0.05"},{"name":"B4","midi":71,"time":"414.06","velocity":0.2992125984251969,"duration":"0.05"},{"name":"D6","midi":86,"time":"414.06","velocity":0.2283464566929134,"duration":"0.02"},{"name":"F4","midi":65,"time":"414.07","velocity":0.3228346456692913,"duration":"0.02"},{"name":"A#5","midi":82,"time":"414.07","velocity":0.2204724409448819,"duration":"0.05"},{"name":"C4","midi":60,"time":"414.09","velocity":0.29133858267716534,"duration":"0.02"},{"name":"F#4","midi":66,"time":"414.09","velocity":0.5196850393700787,"duration":"0.09"},{"name":"E5","midi":76,"time":"414.10","velocity":0.30708661417322836,"duration":"0.05"},{"name":"A4","midi":69,"time":"414.12","velocity":0.2204724409448819,"duration":"0.05"},{"name":"F6","midi":89,"time":"414.13","velocity":0.14960629921259844,"duration":"0.03"},{"name":"D7","midi":98,"time":"414.13","velocity":0.31496062992125984,"duration":"1.24"},{"name":"G7","midi":103,"time":"414.14","velocity":0.12598425196850394,"duration":"0.09"},{"name":"A3","midi":57,"time":"414.16","velocity":0.4409448818897638,"duration":"0.06"},{"name":"A#5","midi":82,"time":"414.16","velocity":0.2677165354330709,"duration":"0.05"},{"name":"B6","midi":95,"time":"414.16","velocity":0.3858267716535433,"duration":"0.83"},{"name":"G#5","midi":80,"time":"414.17","velocity":0.29133858267716534,"duration":"0.03"},{"name":"A6","midi":93,"time":"414.17","velocity":0.2204724409448819,"duration":"0.19"},{"name":"F#4","midi":66,"time":"414.20","velocity":0.5275590551181102,"duration":"0.13"},{"name":"E5","midi":76,"time":"414.21","velocity":0.29133858267716534,"duration":"0.13"},{"name":"F7","midi":101,"time":"414.21","velocity":0.30708661417322836,"duration":"1.02"},{"name":"G#5","midi":80,"time":"414.22","velocity":0.1968503937007874,"duration":"0.03"},{"name":"D6","midi":86,"time":"414.24","velocity":0.1732283464566929,"duration":"0.03"},{"name":"C4","midi":60,"time":"414.27","velocity":0.28346456692913385,"duration":"0.02"},{"name":"A4","midi":69,"time":"414.27","velocity":0.30708661417322836,"duration":"0.06"},{"name":"G#2","midi":44,"time":"414.28","velocity":0.4094488188976378,"duration":"0.03"},{"name":"F#3","midi":54,"time":"414.28","velocity":0.4015748031496063,"duration":"0.02"},{"name":"A#5","midi":82,"time":"414.29","velocity":0.3543307086614173,"duration":"0.42"},{"name":"G7","midi":103,"time":"414.29","velocity":0.14173228346456693,"duration":"0.06"},{"name":"G#5","midi":80,"time":"414.30","velocity":0.25196850393700787,"duration":"0.05"},{"name":"D6","midi":86,"time":"414.31","velocity":0.29133858267716534,"duration":"0.13"},{"name":"G6","midi":91,"time":"414.31","velocity":0.2677165354330709,"duration":"0.05"},{"name":"C7","midi":96,"time":"414.31","velocity":0.2047244094488189,"duration":"0.05"},{"name":"F4","midi":65,"time":"414.33","velocity":0.3464566929133858,"duration":"0.02"},{"name":"C5","midi":72,"time":"414.33","velocity":0.3779527559055118,"duration":"0.02"},{"name":"C3","midi":48,"time":"414.34","velocity":0.5196850393700787,"duration":"0.01"},{"name":"F#4","midi":66,"time":"414.34","velocity":0.4330708661417323,"duration":"0.06"},{"name":"A4","midi":69,"time":"414.34","velocity":0.3543307086614173,"duration":"0.09"},{"name":"D5","midi":74,"time":"414.34","velocity":0.31496062992125984,"duration":"0.02"},{"name":"D#6","midi":87,"time":"414.34","velocity":0.1968503937007874,"duration":"0.05"},{"name":"D#7","midi":99,"time":"414.34","velocity":0.3543307086614173,"duration":"0.38"},{"name":"B4","midi":71,"time":"414.35","velocity":0.5511811023622047,"duration":"0.35"},{"name":"C#5","midi":73,"time":"414.35","velocity":0.3779527559055118,"duration":"0.05"},{"name":"B5","midi":83,"time":"414.35","velocity":0.5590551181102362,"duration":"1.27"},{"name":"D3","midi":50,"time":"414.36","velocity":0.49606299212598426,"duration":"0.05"},{"name":"E5","midi":76,"time":"414.36","velocity":0.36220472440944884,"duration":"0.15"},{"name":"G7","midi":103,"time":"414.36","velocity":0.09448818897637795,"duration":"0.05"},{"name":"A3","midi":57,"time":"414.37","velocity":0.4330708661417323,"duration":"0.31"},{"name":"G6","midi":91,"time":"414.37","velocity":0.15748031496062992,"duration":"0.06"},{"name":"D5","midi":74,"time":"414.38","velocity":0.33858267716535434,"duration":"0.09"},{"name":"F#5","midi":78,"time":"414.38","velocity":0.4881889763779528,"duration":"0.20"},{"name":"C7","midi":96,"time":"414.40","velocity":0.1968503937007874,"duration":"0.09"},{"name":"F#4","midi":66,"time":"414.41","velocity":0.4566929133858268,"duration":"0.08"},{"name":"D3","midi":50,"time":"414.42","velocity":0.5748031496062992,"duration":"0.27"},{"name":"C#6","midi":85,"time":"414.42","velocity":0.3543307086614173,"duration":"0.29"},{"name":"G7","midi":103,"time":"414.43","velocity":0.11811023622047244,"duration":"0.08"},{"name":"G1","midi":31,"time":"414.44","velocity":0.3228346456692913,"duration":"0.02"},{"name":"G#5","midi":80,"time":"414.47","velocity":0.1732283464566929,"duration":"0.03"},{"name":"G#6","midi":92,"time":"414.47","velocity":0.4330708661417323,"duration":"1.01"},{"name":"C#5","midi":73,"time":"414.49","velocity":0.25196850393700787,"duration":"0.03"},{"name":"G2","midi":43,"time":"414.50","velocity":0.28346456692913385,"duration":"0.02"},{"name":"F#4","midi":66,"time":"414.50","velocity":0.47244094488188976,"duration":"0.05"},{"name":"D#5","midi":75,"time":"414.51","velocity":0.2440944881889764,"duration":"0.03"},{"name":"E6","midi":88,"time":"414.51","velocity":0.29133858267716534,"duration":"0.49"},{"name":"C7","midi":96,"time":"414.52","velocity":0.16535433070866143,"duration":"0.06"},{"name":"G7","midi":103,"time":"414.52","velocity":0.1732283464566929,"duration":"0.10"},{"name":"C#5","midi":73,"time":"414.53","velocity":0.4251968503937008,"duration":"0.14"},{"name":"E4","midi":64,"time":"414.55","velocity":0.4015748031496063,"duration":"0.03"},{"name":"A5","midi":81,"time":"414.56","velocity":0.2047244094488189,"duration":"0.03"},{"name":"G6","midi":91,"time":"414.56","velocity":0.13385826771653545,"duration":"0.06"},{"name":"F#4","midi":66,"time":"414.57","velocity":0.47244094488188976,"duration":"0.05"},{"name":"D6","midi":86,"time":"414.57","velocity":0.1968503937007874,"duration":"0.05"},{"name":"E5","midi":76,"time":"414.58","velocity":0.25196850393700787,"duration":"0.03"},{"name":"G#5","midi":80,"time":"414.58","velocity":0.13385826771653545,"duration":"0.06"},{"name":"F#5","midi":78,"time":"414.60","velocity":0.49606299212598426,"duration":"0.47"},{"name":"F2","midi":41,"time":"414.62","velocity":0.3543307086614173,"duration":"0.02"},{"name":"D#5","midi":75,"time":"414.62","velocity":0.2440944881889764,"duration":"0.03"},{"name":"C7","midi":96,"time":"414.62","velocity":0.16535433070866143,"duration":"0.07"},{"name":"E4","midi":64,"time":"414.63","velocity":0.3464566929133858,"duration":"0.02"},{"name":"A5","midi":81,"time":"414.63","velocity":0.12598425196850394,"duration":"0.03"},{"name":"F#4","midi":66,"time":"414.65","velocity":0.44881889763779526,"duration":"0.06"},{"name":"D6","midi":86,"time":"414.65","velocity":0.2755905511811024,"duration":"0.07"},{"name":"E2","midi":40,"time":"414.66","velocity":0.4645669291338583,"duration":"0.02"},{"name":"G7","midi":103,"time":"414.66","velocity":0.23622047244094488,"duration":"0.12"},{"name":"D#2","midi":39,"time":"414.69","velocity":0.5826771653543307,"duration":"0.01"},{"name":"G#5","midi":80,"time":"414.69","velocity":0.2992125984251969,"duration":"0.17"},{"name":"E2","midi":40,"time":"414.70","velocity":0.6141732283464567,"duration":"0.01"},{"name":"A#4","midi":70,"time":"414.70","velocity":0.31496062992125984,"duration":"0.03"},{"name":"C5","midi":72,"time":"414.70","velocity":0.4015748031496063,"duration":"0.02"},{"name":"E5","midi":76,"time":"414.70","velocity":0.3779527559055118,"duration":"0.20"},{"name":"C7","midi":96,"time":"414.70","velocity":0.16535433070866143,"duration":"0.13"},{"name":"E4","midi":64,"time":"414.71","velocity":0.29133858267716534,"duration":"0.02"},{"name":"G4","midi":67,"time":"414.71","velocity":0.3858267716535433,"duration":"0.02"},{"name":"D#6","midi":87,"time":"414.71","velocity":0.10236220472440945,"duration":"0.05"},{"name":"A3","midi":57,"time":"414.72","velocity":0.44881889763779526,"duration":"0.34"},{"name":"C#5","midi":73,"time":"414.72","velocity":0.5118110236220472,"duration":"0.27"},{"name":"C#6","midi":85,"time":"414.72","velocity":0.5354330708661418,"duration":"0.71"},{"name":"G6","midi":91,"time":"414.72","velocity":0.2204724409448819,"duration":"0.08"},{"name":"F#1","midi":30,"time":"414.73","velocity":0.5354330708661418,"duration":"0.01"},{"name":"F#4","midi":66,"time":"414.73","velocity":0.33858267716535434,"duration":"0.02"},{"name":"B4","midi":71,"time":"414.73","velocity":0.3937007874015748,"duration":"0.06"},{"name":"A5","midi":81,"time":"414.73","velocity":0.2283464566929134,"duration":"0.02"},{"name":"D6","midi":86,"time":"414.73","velocity":0.25984251968503935,"duration":"0.10"},{"name":"D#7","midi":99,"time":"414.73","velocity":0.23622047244094488,"duration":"0.22"},{"name":"A#5","midi":82,"time":"414.74","velocity":0.2677165354330709,"duration":"0.06"},{"name":"G4","midi":67,"time":"414.76","velocity":0.3543307086614173,"duration":"0.03"},{"name":"B1","midi":35,"time":"414.78","velocity":0.4645669291338583,"duration":"0.02"},{"name":"D#6","midi":87,"time":"414.78","velocity":0.14960629921259844,"duration":"0.03"},{"name":"F#4","midi":66,"time":"414.79","velocity":0.5748031496062992,"duration":"0.16"},{"name":"A5","midi":81,"time":"414.79","velocity":0.29133858267716534,"duration":"0.09"},{"name":"A#5","midi":82,"time":"414.81","velocity":0.2677165354330709,"duration":"0.09"},{"name":"F2","midi":41,"time":"414.83","velocity":0.36220472440944884,"duration":"0.02"},{"name":"D#3","midi":51,"time":"414.83","velocity":0.4094488188976378,"duration":"0.02"},{"name":"D#6","midi":87,"time":"414.83","velocity":0.11023622047244094,"duration":"0.03"},{"name":"E1","midi":28,"time":"414.85","velocity":0.3228346456692913,"duration":"0.02"},{"name":"D3","midi":50,"time":"414.85","velocity":0.4645669291338583,"duration":"0.06"},{"name":"F6","midi":89,"time":"414.85","velocity":0.1732283464566929,"duration":"0.07"},{"name":"C7","midi":96,"time":"414.85","velocity":0.16535433070866143,"duration":"0.05"},{"name":"D6","midi":86,"time":"414.86","velocity":0.15748031496062992,"duration":"0.03"},{"name":"G#5","midi":80,"time":"414.87","velocity":0.2992125984251969,"duration":"0.10"},{"name":"E5","midi":76,"time":"414.91","velocity":0.25984251968503935,"duration":"0.16"},{"name":"G7","midi":103,"time":"414.91","velocity":0.14960629921259844,"duration":"0.05"},{"name":"D3","midi":50,"time":"414.92","velocity":0.5354330708661418,"duration":"0.14"},{"name":"C7","midi":96,"time":"414.92","velocity":0.2047244094488189,"duration":"0.03"},{"name":"B4","midi":71,"time":"414.93","velocity":0.4409448818897638,"duration":"0.16"},{"name":"D6","midi":86,"time":"414.93","velocity":0.2283464566929134,"duration":"0.06"},{"name":"G6","midi":91,"time":"414.93","velocity":0.14960629921259844,"duration":"0.03"},{"name":"F4","midi":65,"time":"414.95","velocity":0.3543307086614173,"duration":"0.02"},{"name":"C7","midi":96,"time":"414.97","velocity":0.14173228346456693,"duration":"0.06"},{"name":"D#7","midi":99,"time":"414.97","velocity":0.3464566929133858,"duration":"0.67"},{"name":"F#4","midi":66,"time":"414.98","velocity":0.4015748031496063,"duration":"0.03"},{"name":"G#5","midi":80,"time":"414.99","velocity":0.29133858267716534,"duration":"0.09"},{"name":"F6","midi":89,"time":"414.99","velocity":0.14173228346456693,"duration":"0.07"},{"name":"G6","midi":91,"time":"414.99","velocity":0.1968503937007874,"duration":"0.05"},{"name":"D6","midi":86,"time":"415.00","velocity":0.2440944881889764,"duration":"0.02"},{"name":"C#5","midi":73,"time":"415.01","velocity":0.4330708661417323,"duration":"0.10"},{"name":"F#4","midi":66,"time":"415.02","velocity":0.5826771653543307,"duration":"0.08"},{"name":"C7","midi":96,"time":"415.03","velocity":0.14173228346456693,"duration":"0.05"},{"name":"A5","midi":81,"time":"415.05","velocity":0.1732283464566929,"duration":"0.06"},{"name":"D#3","midi":51,"time":"415.06","velocity":0.44881889763779526,"duration":"0.02"},{"name":"A#4","midi":70,"time":"415.06","velocity":0.25984251968503935,"duration":"0.02"},{"name":"E7","midi":100,"time":"415.06","velocity":0.25196850393700787,"duration":"0.14"},{"name":"G7","midi":103,"time":"415.06","velocity":0.1732283464566929,"duration":"0.14"},{"name":"D#5","midi":75,"time":"415.07","velocity":0.2283464566929134,"duration":"0.02"},{"name":"D6","midi":86,"time":"415.07","velocity":0.1968503937007874,"duration":"0.10"},{"name":"E3","midi":52,"time":"415.08","velocity":0.4881889763779528,"duration":"0.02"},{"name":"E2","midi":40,"time":"415.09","velocity":0.4881889763779528,"duration":"0.02"},{"name":"G#5","midi":80,"time":"415.09","velocity":0.1968503937007874,"duration":"0.08"},{"name":"C7","midi":96,"time":"415.09","velocity":0.13385826771653545,"duration":"0.06"},{"name":"D4","midi":62,"time":"415.10","velocity":0.2755905511811024,"duration":"0.02"},{"name":"F4","midi":65,"time":"415.10","velocity":0.3937007874015748,"duration":"0.02"},{"name":"B4","midi":71,"time":"415.10","velocity":0.2755905511811024,"duration":"0.02"},{"name":"A3","midi":57,"time":"415.12","velocity":0.3937007874015748,"duration":"0.08"},{"name":"A5","midi":81,"time":"415.12","velocity":0.3700787401574803,"duration":"0.26"},{"name":"F6","midi":89,"time":"415.12","velocity":0.09448818897637795,"duration":"0.03"},{"name":"F#4","midi":66,"time":"415.13","velocity":0.4409448818897638,"duration":"0.03"},{"name":"C#5","midi":73,"time":"415.13","velocity":0.4094488188976378,"duration":"0.16"},{"name":"E6","midi":88,"time":"415.13","velocity":0.13385826771653545,"duration":"0.07"},{"name":"G6","midi":91,"time":"415.13","velocity":0.14173228346456693,"duration":"0.03"},{"name":"F2","midi":41,"time":"415.14","velocity":0.3543307086614173,"duration":"0.02"},{"name":"C#3","midi":49,"time":"415.14","velocity":0.48031496062992124,"duration":"0.02"},{"name":"D4","midi":62,"time":"415.14","velocity":0.3779527559055118,"duration":"0.28"},{"name":"D3","midi":50,"time":"415.16","velocity":0.5511811023622047,"duration":"0.28"},{"name":"D#6","midi":87,"time":"415.16","velocity":0.14960629921259844,"duration":"0.09"},{"name":"C7","midi":96,"time":"415.16","velocity":0.18110236220472442,"duration":"0.12"},{"name":"F#4","midi":66,"time":"415.17","velocity":0.5275590551181102,"duration":"0.24"},{"name":"E5","midi":76,"time":"415.17","velocity":0.25984251968503935,"duration":"0.14"},{"name":"E2","midi":40,"time":"415.19","velocity":0.3700787401574803,"duration":"0.02"},{"name":"B4","midi":71,"time":"415.19","velocity":0.31496062992125984,"duration":"0.05"},{"name":"A#6","midi":94,"time":"415.20","velocity":0.2755905511811024,"duration":"0.28"},{"name":"A3","midi":57,"time":"415.21","velocity":0.3779527559055118,"duration":"0.02"},{"name":"E7","midi":100,"time":"415.23","velocity":0.28346456692913385,"duration":"0.66"},{"name":"A3","midi":57,"time":"415.24","velocity":0.4409448818897638,"duration":"0.19"},{"name":"G7","midi":103,"time":"415.24","velocity":0.12598425196850394,"duration":"0.03"},{"name":"D6","midi":86,"time":"415.26","velocity":0.2204724409448819,"duration":"0.05"},{"name":"F7","midi":101,"time":"415.26","velocity":0.15748031496062992,"duration":"0.08"},{"name":"G#5","midi":80,"time":"415.27","velocity":0.3779527559055118,"duration":"0.23"},{"name":"B4","midi":71,"time":"415.28","velocity":0.4094488188976378,"duration":"0.09"},{"name":"E2","midi":40,"time":"415.29","velocity":0.33070866141732286,"duration":"0.02"},{"name":"C7","midi":96,"time":"415.29","velocity":0.23622047244094488,"duration":"0.16"},{"name":"D#6","midi":87,"time":"415.30","velocity":0.11023622047244094,"duration":"0.08"},{"name":"D#5","midi":75,"time":"415.33","velocity":0.2204724409448819,"duration":"0.03"},{"name":"C#5","midi":73,"time":"415.34","velocity":0.4881889763779528,"duration":"0.12"},{"name":"D6","midi":86,"time":"415.34","velocity":0.2283464566929134,"duration":"0.07"},{"name":"A#5","midi":82,"time":"415.36","velocity":0.1889763779527559,"duration":"0.03"},{"name":"G6","midi":91,"time":"415.36","velocity":0.09448818897637795,"duration":"0.05"},{"name":"F7","midi":101,"time":"415.36","velocity":0.23622047244094488,"duration":"0.49"},{"name":"B4","midi":71,"time":"415.38","velocity":0.33858267716535434,"duration":"0.06"},{"name":"E5","midi":76,"time":"415.38","velocity":0.4251968503937008,"duration":"0.07"},{"name":"F6","midi":89,"time":"415.38","velocity":0.11811023622047244,"duration":"0.09"},{"name":"A#5","midi":82,"time":"415.41","velocity":0.2755905511811024,"duration":"0.03"},{"name":"D7","midi":98,"time":"415.41","velocity":0.2755905511811024,"duration":"0.22"},{"name":"G6","midi":91,"time":"415.42","velocity":0.2125984251968504,"duration":"0.08"},{"name":"G7","midi":103,"time":"415.42","velocity":0.25196850393700787,"duration":"0.07"},{"name":"C4","midi":60,"time":"415.43","velocity":0.44881889763779526,"duration":"0.05"},{"name":"F#4","midi":66,"time":"415.43","velocity":0.5905511811023622,"duration":"0.06"},{"name":"D6","midi":86,"time":"415.43","velocity":0.33858267716535434,"duration":"0.20"},{"name":"C6","midi":84,"time":"415.44","velocity":0.2677165354330709,"duration":"0.02"},{"name":"C#6","midi":85,"time":"415.44","velocity":0.5196850393700787,"duration":"0.56"},{"name":"D#3","midi":51,"time":"415.47","velocity":0.5275590551181102,"duration":"0.01"},{"name":"A4","midi":69,"time":"415.47","velocity":0.2755905511811024,"duration":"0.02"},{"name":"F5","midi":77,"time":"415.47","velocity":0.33858267716535434,"duration":"0.03"},{"name":"D3","midi":50,"time":"415.48","velocity":0.5669291338582677,"duration":"0.02"},{"name":"A#3","midi":58,"time":"415.48","velocity":0.2992125984251969,"duration":"0.02"},{"name":"C#5","midi":73,"time":"415.48","velocity":0.4330708661417323,"duration":"0.35"},{"name":"G5","midi":79,"time":"415.48","velocity":0.30708661417322836,"duration":"0.05"},{"name":"C7","midi":96,"time":"415.48","velocity":0.25984251968503935,"duration":"0.22"},{"name":"G#2","midi":44,"time":"415.49","velocity":0.4251968503937008,"duration":"0.02"},{"name":"B4","midi":71,"time":"415.49","velocity":0.28346456692913385,"duration":"0.02"},{"name":"A#5","midi":82,"time":"415.49","velocity":0.14960629921259844,"duration":"0.03"},{"name":"D#6","midi":87,"time":"415.49","velocity":0.1889763779527559,"duration":"0.03"},{"name":"G#6","midi":92,"time":"415.49","velocity":0.47244094488188976,"duration":"1.27"},{"name":"D#3","midi":51,"time":"415.50","velocity":0.5354330708661418,"duration":"0.01"},{"name":"F#4","midi":66,"time":"415.50","velocity":0.5511811023622047,"duration":"0.37"},{"name":"A#6","midi":94,"time":"415.50","velocity":0.2204724409448819,"duration":"0.07"},{"name":"F#2","midi":42,"time":"415.51","velocity":0.3700787401574803,"duration":"0.02"},{"name":"A4","midi":69,"time":"415.51","velocity":0.31496062992125984,"duration":"0.06"},{"name":"E5","midi":76,"time":"415.51","velocity":0.25984251968503935,"duration":"0.08"},{"name":"F1","midi":29,"time":"415.52","velocity":0.2992125984251969,"duration":"0.02"},{"name":"D#5","midi":75,"time":"415.52","velocity":0.2755905511811024,"duration":"0.03"},{"name":"G#5","midi":80,"time":"415.52","velocity":0.3464566929133858,"duration":"0.21"},{"name":"D3","midi":50,"time":"415.53","velocity":0.5511811023622047,"duration":"0.06"},{"name":"A3","midi":57,"time":"415.53","velocity":0.4330708661417323,"duration":"0.09"},{"name":"A#5","midi":82,"time":"415.53","velocity":0.36220472440944884,"duration":"0.35"},{"name":"F2","midi":41,"time":"415.56","velocity":0.3858267716535433,"duration":"0.02"},{"name":"C#3","midi":49,"time":"415.59","velocity":0.5354330708661418,"duration":"0.01"},{"name":"D3","midi":50,"time":"415.60","velocity":0.5905511811023622,"duration":"0.21"},{"name":"C6","midi":84,"time":"415.60","velocity":0.33858267716535434,"duration":"0.09"},{"name":"G2","midi":43,"time":"415.63","velocity":0.3858267716535433,"duration":"0.02"},{"name":"D#5","midi":75,"time":"415.63","velocity":0.2677165354330709,"duration":"0.03"},{"name":"A5","midi":81,"time":"415.63","velocity":0.28346456692913385,"duration":"0.03"},{"name":"B6","midi":95,"time":"415.64","velocity":0.12598425196850394,"duration":"0.03"},{"name":"D7","midi":98,"time":"415.64","velocity":0.28346456692913385,"duration":"0.86"},{"name":"E5","midi":76,"time":"415.65","velocity":0.33858267716535434,"duration":"0.34"},{"name":"D#7","midi":99,"time":"415.65","velocity":0.23622047244094488,"duration":"0.13"},{"name":"D6","midi":86,"time":"415.66","velocity":0.28346456692913385,"duration":"0.05"},{"name":"A3","midi":57,"time":"415.67","velocity":0.4251968503937008,"duration":"0.14"},{"name":"B5","midi":83,"time":"415.67","velocity":0.2440944881889764,"duration":"0.05"},{"name":"G7","midi":103,"time":"415.69","velocity":0.1732283464566929,"duration":"0.06"},{"name":"B4","midi":71,"time":"415.71","velocity":0.2755905511811024,"duration":"0.06"},{"name":"C6","midi":84,"time":"415.71","velocity":0.2283464566929134,"duration":"0.02"},{"name":"D6","midi":86,"time":"415.72","velocity":0.29133858267716534,"duration":"0.03"},{"name":"B5","midi":83,"time":"415.73","velocity":0.3937007874015748,"duration":"0.44"},{"name":"G#5","midi":80,"time":"415.74","velocity":0.2204724409448819,"duration":"0.09"},{"name":"F2","midi":41,"time":"415.76","velocity":0.3858267716535433,"duration":"0.02"},{"name":"D#6","midi":87,"time":"415.76","velocity":0.2047244094488189,"duration":"0.10"},{"name":"A#4","midi":70,"time":"415.77","velocity":0.25196850393700787,"duration":"0.02"},{"name":"B4","midi":71,"time":"415.79","velocity":0.2992125984251969,"duration":"0.05"},{"name":"D#7","midi":99,"time":"415.79","velocity":0.2440944881889764,"duration":"0.52"},{"name":"G7","midi":103,"time":"415.80","velocity":0.16535433070866143,"duration":"0.16"},{"name":"G#2","midi":44,"time":"415.81","velocity":0.5826771653543307,"duration":"0.01"},{"name":"D#3","midi":51,"time":"415.81","velocity":0.5669291338582677,"duration":"0.01"},{"name":"D6","midi":86,"time":"415.81","velocity":0.2283464566929134,"duration":"0.02"},{"name":"F#2","midi":42,"time":"415.83","velocity":0.5984251968503937,"duration":"0.02"},{"name":"D5","midi":74,"time":"415.83","velocity":0.29133858267716534,"duration":"0.06"},{"name":"F6","midi":89,"time":"415.84","velocity":0.12598425196850394,"duration":"0.03"},{"name":"C#3","midi":49,"time":"415.85","velocity":0.5275590551181102,"duration":"0.01"},{"name":"A3","midi":57,"time":"415.85","velocity":0.3779527559055118,"duration":"0.02"},{"name":"C5","midi":72,"time":"415.85","velocity":0.28346456692913385,"duration":"0.02"},{"name":"G#5","midi":80,"time":"415.85","velocity":0.2755905511811024,"duration":"0.13"},{"name":"G6","midi":91,"time":"415.85","velocity":0.16535433070866143,"duration":"0.05"},{"name":"E1","midi":28,"time":"415.86","velocity":0.5433070866141733,"duration":"0.01"},{"name":"C3","midi":48,"time":"415.86","velocity":0.5590551181102362,"duration":"0.01"},{"name":"F1","midi":29,"time":"415.87","velocity":0.5511811023622047,"duration":"0.01"},{"name":"D3","midi":50,"time":"415.87","velocity":0.5433070866141733,"duration":"0.05"},{"name":"F4","midi":65,"time":"415.87","velocity":0.3937007874015748,"duration":"0.02"},{"name":"F7","midi":101,"time":"415.87","velocity":0.2125984251968504,"duration":"0.37"},{"name":"A3","midi":57,"time":"415.88","velocity":0.4251968503937008,"duration":"0.29"},{"name":"F#4","midi":66,"time":"415.90","velocity":0.47244094488188976,"duration":"0.14"},{"name":"A#5","midi":82,"time":"415.90","velocity":0.2283464566929134,"duration":"0.03"},{"name":"C#5","midi":73,"time":"415.91","velocity":0.2047244094488189,"duration":"0.03"},{"name":"G6","midi":91,"time":"415.91","velocity":0.14960629921259844,"duration":"0.06"},{"name":"C7","midi":96,"time":"415.91","velocity":0.14960629921259844,"duration":"0.12"},{"name":"E4","midi":64,"time":"415.92","velocity":0.28346456692913385,"duration":"0.02"},{"name":"D3","midi":50,"time":"415.93","velocity":0.4645669291338583,"duration":"0.02"},{"name":"D5","midi":74,"time":"415.93","velocity":0.2125984251968504,"duration":"0.05"},{"name":"B4","midi":71,"time":"415.94","velocity":0.25984251968503935,"duration":"0.03"},{"name":"A#5","midi":82,"time":"415.94","velocity":0.2755905511811024,"duration":"0.03"},{"name":"D3","midi":50,"time":"415.97","velocity":0.5511811023622047,"duration":"0.21"},{"name":"C#5","midi":73,"time":"415.97","velocity":0.3779527559055118,"duration":"0.15"},{"name":"D6","midi":86,"time":"415.98","velocity":0.2440944881889764,"duration":"0.13"},{"name":"A#5","midi":82,"time":"415.99","velocity":0.1732283464566929,"duration":"0.06"},{"name":"B6","midi":95,"time":"415.99","velocity":0.4409448818897638,"duration":"2.01"},{"name":"A#1","midi":34,"time":"416.00","velocity":0.3779527559055118,"duration":"0.02"},{"name":"B4","midi":71,"time":"416.01","velocity":0.28346456692913385,"duration":"0.08"},{"name":"G#5","midi":80,"time":"416.01","velocity":0.29133858267716534,"duration":"0.16"},{"name":"E5","midi":76,"time":"416.02","velocity":0.33070866141732286,"duration":"0.19"},{"name":"C7","midi":96,"time":"416.03","velocity":0.25196850393700787,"duration":"0.27"},{"name":"F#4","midi":66,"time":"416.05","velocity":0.4251968503937008,"duration":"0.12"},{"name":"C6","midi":84,"time":"416.05","velocity":0.23622047244094488,"duration":"0.03"},{"name":"G6","midi":91,"time":"416.07","velocity":0.1732283464566929,"duration":"0.08"},{"name":"A#5","midi":82,"time":"416.08","velocity":0.3543307086614173,"duration":"0.30"},{"name":"A5","midi":81,"time":"416.12","velocity":0.2047244094488189,"duration":"0.03"},{"name":"D6","midi":86,"time":"416.12","velocity":0.25984251968503935,"duration":"0.10"},{"name":"C#5","midi":73,"time":"416.13","velocity":0.2677165354330709,"duration":"0.05"},{"name":"B4","midi":71,"time":"416.14","velocity":0.29133858267716534,"duration":"0.05"},{"name":"C6","midi":84,"time":"416.15","velocity":0.23622047244094488,"duration":"0.03"},{"name":"G6","midi":91,"time":"416.16","velocity":0.2283464566929134,"duration":"0.06"},{"name":"A6","midi":93,"time":"416.16","velocity":0.2755905511811024,"duration":"0.19"},{"name":"B1","midi":35,"time":"416.17","velocity":0.5433070866141733,"duration":"0.01"},{"name":"G5","midi":79,"time":"416.17","velocity":0.2677165354330709,"duration":"0.02"},{"name":"D#6","midi":87,"time":"416.17","velocity":0.2283464566929134,"duration":"0.05"},{"name":"F6","midi":89,"time":"416.17","velocity":0.09448818897637795,"duration":"0.07"},{"name":"D#2","midi":39,"time":"416.19","velocity":0.6141732283464567,"duration":"0.01"},{"name":"D4","midi":62,"time":"416.19","velocity":0.36220472440944884,"duration":"0.05"},{"name":"F#4","midi":66,"time":"416.19","velocity":0.5039370078740157,"duration":"0.06"},{"name":"A#4","midi":70,"time":"416.19","velocity":0.3464566929133858,"duration":"0.05"},{"name":"C#5","midi":73,"time":"416.19","velocity":0.5275590551181102,"duration":"0.40"},{"name":"E2","midi":40,"time":"416.20","velocity":0.6141732283464567,"duration":"0.01"},{"name":"G#1","midi":32,"time":"416.21","velocity":0.5590551181102362,"duration":"0.01"},{"name":"G2","midi":43,"time":"416.21","velocity":0.5354330708661418,"duration":"0.02"},{"name":"D#5","midi":75,"time":"416.21","velocity":0.30708661417322836,"duration":"0.02"},{"name":"G#5","midi":80,"time":"416.21","velocity":0.2992125984251969,"duration":"0.08"},{"name":"F1","midi":29,"time":"416.22","velocity":0.5748031496062992,"duration":"0.01"},{"name":"D#3","midi":51,"time":"416.22","velocity":0.5275590551181102,"duration":"0.01"},{"name":"F5","midi":77,"time":"416.22","velocity":0.2755905511811024,"duration":"0.02"},{"name":"C6","midi":84,"time":"416.22","velocity":0.33070866141732286,"duration":"0.03"},{"name":"E1","midi":28,"time":"416.23","velocity":0.5511811023622047,"duration":"0.01"},{"name":"D3","midi":50,"time":"416.23","velocity":0.5433070866141733,"duration":"0.01"},{"name":"E5","midi":76,"time":"416.23","velocity":0.2677165354330709,"duration":"0.17"},{"name":"A5","midi":81,"time":"416.23","velocity":0.2204724409448819,"duration":"0.03"},{"name":"D#6","midi":87,"time":"416.23","velocity":0.12598425196850394,"duration":"0.03"},{"name":"C#3","midi":49,"time":"416.24","velocity":0.5196850393700787,"duration":"0.01"},{"name":"B5","midi":83,"time":"416.24","velocity":0.33858267716535434,"duration":"0.03"},{"name":"D6","midi":86,"time":"416.24","velocity":0.15748031496062992,"duration":"0.07"},{"name":"D3","midi":50,"time":"416.26","velocity":0.5511811023622047,"duration":"0.10"},{"name":"A3","midi":57,"time":"416.26","velocity":0.36220472440944884,"duration":"0.08"},{"name":"F#4","midi":66,"time":"416.26","velocity":0.4409448818897638,"duration":"0.34"},{"name":"G#4","midi":68,"time":"416.26","velocity":0.4015748031496063,"duration":"0.02"},{"name":"F7","midi":101,"time":"416.26","velocity":0.2677165354330709,"duration":"0.73"},{"name":"G7","midi":103,"time":"416.26","velocity":0.2047244094488189,"duration":"0.15"},{"name":"B1","midi":35,"time":"416.27","velocity":0.5039370078740157,"duration":"0.02"},{"name":"G6","midi":91,"time":"416.27","velocity":0.1968503937007874,"duration":"0.08"},{"name":"A4","midi":69,"time":"416.28","velocity":0.4645669291338583,"duration":"0.07"},{"name":"C6","midi":84,"time":"416.28","velocity":0.29133858267716534,"duration":"0.09"},{"name":"B4","midi":71,"time":"416.29","velocity":0.4251968503937008,"duration":"0.05"},{"name":"D#7","midi":99,"time":"416.33","velocity":0.3700787401574803,"duration":"1.34"},{"name":"B5","midi":83,"time":"416.34","velocity":0.4251968503937008,"duration":"0.27"},{"name":"A#4","midi":70,"time":"416.35","velocity":0.4645669291338583,"duration":"0.03"},{"name":"F6","midi":89,"time":"416.35","velocity":0.2204724409448819,"duration":"0.06"},{"name":"C2","midi":36,"time":"416.36","velocity":0.5748031496062992,"duration":"0.03"},{"name":"C#3","midi":49,"time":"416.36","velocity":0.44881889763779526,"duration":"0.02"},{"name":"A5","midi":81,"time":"416.37","velocity":0.2755905511811024,"duration":"0.03"},{"name":"D#6","midi":87,"time":"416.37","velocity":0.2047244094488189,"duration":"0.05"},{"name":"C4","midi":60,"time":"416.38","velocity":0.3543307086614173,"duration":"0.02"},{"name":"B4","midi":71,"time":"416.38","velocity":0.4330708661417323,"duration":"0.08"},{"name":"G#5","midi":80,"time":"416.38","velocity":0.2047244094488189,"duration":"0.03"},{"name":"E6","midi":88,"time":"416.38","velocity":0.2677165354330709,"duration":"0.19"},{"name":"G6","midi":91,"time":"416.38","velocity":0.18110236220472442,"duration":"0.09"},{"name":"A2","midi":45,"time":"416.40","velocity":0.5354330708661418,"duration":"0.02"},{"name":"A#5","midi":82,"time":"416.40","velocity":0.3464566929133858,"duration":"0.13"},{"name":"E4","midi":64,"time":"416.41","velocity":0.33858267716535434,"duration":"0.05"},{"name":"F1","midi":29,"time":"416.42","velocity":0.5275590551181102,"duration":"0.01"},{"name":"A#3","midi":58,"time":"416.42","velocity":0.2677165354330709,"duration":"0.03"},{"name":"C7","midi":96,"time":"416.42","velocity":0.2125984251968504,"duration":"0.10"},{"name":"E3","midi":52,"time":"416.43","velocity":0.47244094488188976,"duration":"0.08"},{"name":"D#5","midi":75,"time":"416.43","velocity":0.25196850393700787,"duration":"0.03"},{"name":"D2","midi":38,"time":"416.44","velocity":0.5118110236220472,"duration":"0.01"},{"name":"E2","midi":40,"time":"416.45","velocity":0.5118110236220472,"duration":"0.02"},{"name":"A6","midi":93,"time":"416.45","velocity":0.29133858267716534,"duration":"0.38"},{"name":"A#4","midi":70,"time":"416.47","velocity":0.4409448818897638,"duration":"0.05"},{"name":"E5","midi":76,"time":"416.47","velocity":0.25984251968503935,"duration":"0.06"},{"name":"G#5","midi":80,"time":"416.47","velocity":0.2755905511811024,"duration":"0.06"},{"name":"A5","midi":81,"time":"416.47","velocity":0.2992125984251969,"duration":"0.03"},{"name":"D6","midi":86,"time":"416.47","velocity":0.1889763779527559,"duration":"0.05"},{"name":"F2","midi":41,"time":"416.48","velocity":0.5039370078740157,"duration":"0.02"},{"name":"A#3","midi":58,"time":"416.48","velocity":0.31496062992125984,"duration":"0.02"},{"name":"D#2","midi":39,"time":"416.50","velocity":0.4409448818897638,"duration":"0.02"},{"name":"B4","midi":71,"time":"416.51","velocity":0.4409448818897638,"duration":"0.06"},{"name":"A5","midi":81,"time":"416.51","velocity":0.29133858267716534,"duration":"0.09"},{"name":"D7","midi":98,"time":"416.51","velocity":0.33858267716535434,"duration":"0.36"},{"name":"G7","midi":103,"time":"416.51","velocity":0.09448818897637795,"duration":"0.06"},{"name":"E3","midi":52,"time":"416.52","velocity":0.5275590551181102,"duration":"0.05"},{"name":"A#3","midi":58,"time":"416.52","velocity":0.3858267716535433,"duration":"0.02"},{"name":"D#5","midi":75,"time":"416.52","velocity":0.28346456692913385,"duration":"0.03"},{"name":"G#5","midi":80,"time":"416.53","velocity":0.2283464566929134,"duration":"0.05"},{"name":"E2","midi":40,"time":"416.55","velocity":0.5118110236220472,"duration":"0.02"},{"name":"A#5","midi":82,"time":"416.55","velocity":0.33070866141732286,"duration":"0.12"},{"name":"F#2","midi":42,"time":"416.56","velocity":0.5433070866141733,"duration":"0.01"},{"name":"D4","midi":62,"time":"416.56","velocity":0.41732283464566927,"duration":"0.03"},{"name":"E5","midi":76,"time":"416.56","velocity":0.28346456692913385,"duration":"0.06"},{"name":"G5","midi":79,"time":"416.56","velocity":0.25984251968503935,"duration":"0.03"},{"name":"D6","midi":86,"time":"416.56","velocity":0.2755905511811024,"duration":"0.05"},{"name":"F6","midi":89,"time":"416.56","velocity":0.10236220472440945,"duration":"0.05"},{"name":"C7","midi":96,"time":"416.56","velocity":0.2440944881889764,"duration":"0.08"},{"name":"G2","midi":43,"time":"416.57","velocity":0.5748031496062992,"duration":"0.01"},{"name":"D#3","midi":51,"time":"416.57","velocity":0.5433070866141733,"duration":"0.01"},{"name":"F#2","midi":42,"time":"416.58","velocity":0.5748031496062992,"duration":"0.01"},{"name":"C3","midi":48,"time":"416.59","velocity":0.4566929133858268,"duration":"0.02"},{"name":"F3","midi":53,"time":"416.59","velocity":0.5039370078740157,"duration":"0.03"},{"name":"E4","midi":64,"time":"416.59","velocity":0.28346456692913385,"duration":"0.05"},{"name":"G4","midi":67,"time":"416.59","velocity":0.1968503937007874,"duration":"0.03"},{"name":"C5","midi":72,"time":"416.59","velocity":0.4566929133858268,"duration":"0.02"},{"name":"G#5","midi":80,"time":"416.60","velocity":0.2125984251968504,"duration":"0.07"},{"name":"G#2","midi":44,"time":"416.62","velocity":0.5275590551181102,"duration":"0.01"},{"name":"B4","midi":71,"time":"416.62","velocity":0.5669291338582677,"duration":"0.05"},{"name":"D5","midi":74,"time":"416.62","velocity":0.33858267716535434,"duration":"0.06"},{"name":"B5","midi":83,"time":"416.62","velocity":0.5905511811023622,"duration":"0.37"},{"name":"D#6","midi":87,"time":"416.62","velocity":0.1732283464566929,"duration":"0.07"},{"name":"F2","midi":41,"time":"416.63","velocity":0.5275590551181102,"duration":"0.01"},{"name":"E3","midi":52,"time":"416.63","velocity":0.5354330708661418,"duration":"0.13"},{"name":"B3","midi":59,"time":"416.64","velocity":0.2992125984251969,"duration":"0.06"},{"name":"E5","midi":76,"time":"416.64","velocity":0.2047244094488189,"duration":"0.03"},{"name":"F6","midi":89,"time":"416.65","velocity":0.07086614173228346,"duration":"0.03"},{"name":"C7","midi":96,"time":"416.65","velocity":0.18110236220472442,"duration":"0.17"},{"name":"B4","midi":71,"time":"416.67","velocity":0.5984251968503937,"duration":"0.14"},{"name":"C#5","midi":73,"time":"416.67","velocity":0.3464566929133858,"duration":"0.12"},{"name":"A5","midi":81,"time":"416.67","velocity":0.2440944881889764,"duration":"0.08"},{"name":"C#2","midi":37,"time":"416.69","velocity":0.4330708661417323,"duration":"0.02"},{"name":"G6","midi":91,"time":"416.69","velocity":0.1968503937007874,"duration":"0.03"},{"name":"G#5","midi":80,"time":"416.70","velocity":0.1889763779527559,"duration":"0.06"},{"name":"G2","midi":43,"time":"416.73","velocity":0.3543307086614173,"duration":"0.02"},{"name":"G5","midi":79,"time":"416.73","velocity":0.23622047244094488,"duration":"0.07"},{"name":"F6","midi":89,"time":"416.73","velocity":0.10236220472440945,"duration":"0.03"},{"name":"F#4","midi":66,"time":"416.74","velocity":0.2283464566929134,"duration":"0.03"},{"name":"D#3","midi":51,"time":"416.76","velocity":0.44881889763779526,"duration":"0.02"},{"name":"A4","midi":69,"time":"416.76","velocity":0.23622047244094488,"duration":"0.02"},{"name":"A#5","midi":82,"time":"416.76","velocity":0.31496062992125984,"duration":"0.08"},{"name":"E4","midi":64,"time":"416.77","velocity":0.25984251968503935,"duration":"0.06"},{"name":"E5","midi":76,"time":"416.77","velocity":0.4566929133858268,"duration":"0.17"},{"name":"D#6","midi":87,"time":"416.77","velocity":0.14960629921259844,"duration":"0.03"},{"name":"G#6","midi":92,"time":"416.77","velocity":0.16535433070866143,"duration":"0.05"},{"name":"E3","midi":52,"time":"416.78","velocity":0.5275590551181102,"duration":"0.17"},{"name":"D4","midi":62,"time":"416.79","velocity":0.3700787401574803,"duration":"0.13"},{"name":"A5","midi":81,"time":"416.80","velocity":0.3700787401574803,"duration":"0.12"},{"name":"C#7","midi":97,"time":"416.80","velocity":0.4094488188976378,"duration":"1.71"},{"name":"F#4","midi":66,"time":"416.81","velocity":0.49606299212598426,"duration":"0.13"},{"name":"B4","midi":71,"time":"416.83","velocity":0.5748031496062992,"duration":"0.10"},{"name":"G#5","midi":80,"time":"416.83","velocity":0.2204724409448819,"duration":"0.06"},{"name":"C#6","midi":85,"time":"416.83","velocity":0.47244094488188976,"duration":"1.55"},{"name":"D#6","midi":87,"time":"416.83","velocity":0.2125984251968504,"duration":"0.12"},{"name":"C7","midi":96,"time":"416.85","velocity":0.31496062992125984,"duration":"0.15"},{"name":"B3","midi":59,"time":"416.86","velocity":0.2440944881889764,"duration":"0.02"},{"name":"A4","midi":69,"time":"416.87","velocity":0.3228346456692913,"duration":"0.05"},{"name":"A#6","midi":94,"time":"416.87","velocity":0.13385826771653545,"duration":"0.03"},{"name":"F2","midi":41,"time":"416.88","velocity":0.4330708661417323,"duration":"0.02"},{"name":"D7","midi":98,"time":"416.88","velocity":0.28346456692913385,"duration":"0.97"},{"name":"G#5","midi":80,"time":"416.91","velocity":0.2992125984251969,"duration":"0.03"},{"name":"A#5","midi":82,"time":"416.91","velocity":0.36220472440944884,"duration":"0.06"},{"name":"F6","midi":89,"time":"416.92","velocity":0.16535433070866143,"duration":"0.08"},{"name":"G6","midi":91,"time":"416.92","velocity":0.2204724409448819,"duration":"0.16"},{"name":"C#4","midi":61,"time":"416.93","velocity":0.3464566929133858,"duration":"0.02"},{"name":"C#5","midi":73,"time":"416.93","velocity":0.3858267716535433,"duration":"0.03"},{"name":"G5","midi":79,"time":"416.93","velocity":0.3464566929133858,"duration":"0.02"},{"name":"D6","midi":86,"time":"416.93","velocity":0.2283464566929134,"duration":"0.19"},{"name":"B4","midi":71,"time":"416.94","velocity":0.5669291338582677,"duration":"0.15"},{"name":"D#5","midi":75,"time":"416.94","velocity":0.4094488188976378,"duration":"0.02"},{"name":"A#3","midi":58,"time":"416.95","velocity":0.4409448818897638,"duration":"0.03"},{"name":"G#5","midi":80,"time":"416.95","velocity":0.31496062992125984,"duration":"0.17"},{"name":"G#6","midi":92,"time":"416.95","velocity":0.4094488188976378,"duration":"1.38"},{"name":"A4","midi":69,"time":"416.97","velocity":0.33858267716535434,"duration":"0.03"},{"name":"E5","midi":76,"time":"416.97","velocity":0.30708661417322836,"duration":"0.07"},{"name":"E3","midi":52,"time":"416.98","velocity":0.5590551181102362,"duration":"0.05"},{"name":"C#5","midi":73,"time":"416.98","velocity":0.3700787401574803,"duration":"0.02"},{"name":"B3","midi":59,"time":"416.99","velocity":0.3464566929133858,"duration":"0.05"},{"name":"A#5","midi":82,"time":"416.99","velocity":0.25984251968503935,"duration":"0.05"},{"name":"G#4","midi":68,"time":"417.00","velocity":0.23622047244094488,"duration":"0.05"},{"name":"B5","midi":83,"time":"417.00","velocity":0.6220472440944882,"duration":"0.81"},{"name":"F7","midi":101,"time":"417.00","velocity":0.2440944881889764,"duration":"0.29"},{"name":"C#5","midi":73,"time":"417.01","velocity":0.47244094488188976,"duration":"0.26"},{"name":"D#6","midi":87,"time":"417.01","velocity":0.1968503937007874,"duration":"0.05"},{"name":"D#3","midi":51,"time":"417.02","velocity":0.5118110236220472,"duration":"0.01"},{"name":"D#5","midi":75,"time":"417.02","velocity":0.1889763779527559,"duration":"0.03"},{"name":"F#5","midi":78,"time":"417.02","velocity":0.3937007874015748,"duration":"0.15"},{"name":"A5","midi":81,"time":"417.02","velocity":0.2677165354330709,"duration":"0.09"},{"name":"D2","midi":38,"time":"417.03","velocity":0.31496062992125984,"duration":"0.02"},{"name":"E3","midi":52,"time":"417.03","velocity":0.5118110236220472,"duration":"0.15"},{"name":"C4","midi":60,"time":"417.03","velocity":0.25196850393700787,"duration":"0.02"},{"name":"F6","midi":89,"time":"417.03","velocity":0.12598425196850394,"duration":"0.07"},{"name":"C7","midi":96,"time":"417.03","velocity":0.2204724409448819,"duration":"0.15"},{"name":"B3","midi":59,"time":"417.06","velocity":0.28346456692913385,"duration":"0.05"},{"name":"E5","midi":76,"time":"417.06","velocity":0.4094488188976378,"duration":"0.27"},{"name":"D#6","midi":87,"time":"417.07","velocity":0.11023622047244094,"duration":"0.03"},{"name":"A#3","midi":58,"time":"417.10","velocity":0.33858267716535434,"duration":"0.05"},{"name":"B4","midi":71,"time":"417.10","velocity":0.5511811023622047,"duration":"0.19"},{"name":"A#5","midi":82,"time":"417.10","velocity":0.3700787401574803,"duration":"0.15"},{"name":"A4","midi":69,"time":"417.12","velocity":0.25196850393700787,"duration":"0.02"},{"name":"G6","midi":91,"time":"417.14","velocity":0.23622047244094488,"duration":"0.06"},{"name":"F2","midi":41,"time":"417.15","velocity":0.44881889763779526,"duration":"0.02"},{"name":"G5","midi":79,"time":"417.15","velocity":0.2125984251968504,"duration":"0.05"},{"name":"D6","midi":86,"time":"417.15","velocity":0.13385826771653545,"duration":"0.05"},{"name":"A#3","midi":58,"time":"417.17","velocity":0.3464566929133858,"duration":"0.02"},{"name":"G7","midi":103,"time":"417.17","velocity":0.2755905511811024,"duration":"0.15"},{"name":"G#5","midi":80,"time":"417.19","velocity":0.31496062992125984,"duration":"0.07"},{"name":"E3","midi":52,"time":"417.20","velocity":0.48031496062992124,"duration":"0.09"},{"name":"B3","midi":59,"time":"417.20","velocity":0.33858267716535434,"duration":"0.03"},{"name":"C7","midi":96,"time":"417.20","velocity":0.2125984251968504,"duration":"0.05"},{"name":"G#4","midi":68,"time":"417.22","velocity":0.28346456692913385,"duration":"0.02"},{"name":"F5","midi":77,"time":"417.22","velocity":0.2677165354330709,"duration":"0.02"},{"name":"G6","midi":91,"time":"417.22","velocity":0.18110236220472442,"duration":"0.07"},{"name":"D#6","midi":87,"time":"417.23","velocity":0.16535433070866143,"duration":"0.03"},{"name":"F#2","midi":42,"time":"417.26","velocity":0.4566929133858268,"duration":"0.02"},{"name":"D5","midi":74,"time":"417.26","velocity":0.25196850393700787,"duration":"0.02"},{"name":"A5","midi":81,"time":"417.26","velocity":0.2755905511811024,"duration":"0.06"},{"name":"F6","midi":89,"time":"417.26","velocity":0.25196850393700787,"duration":"0.07"},{"name":"E7","midi":100,"time":"417.26","velocity":0.2283464566929134,"duration":"0.35"},{"name":"G2","midi":43,"time":"417.28","velocity":0.5826771653543307,"duration":"0.02"},{"name":"F#5","midi":78,"time":"417.28","velocity":0.3464566929133858,"duration":"0.08"},{"name":"C7","midi":96,"time":"417.28","velocity":0.14960629921259844,"duration":"0.03"},{"name":"D#3","midi":51,"time":"417.29","velocity":0.5275590551181102,"duration":"0.01"},{"name":"C#5","midi":73,"time":"417.29","velocity":0.4015748031496063,"duration":"0.02"},{"name":"F2","midi":41,"time":"417.30","velocity":0.6220472440944882,"duration":"0.01"},{"name":"G#3","midi":56,"time":"417.30","velocity":0.4566929133858268,"duration":"0.02"},{"name":"F#2","midi":42,"time":"417.31","velocity":0.5748031496062992,"duration":"0.01"},{"name":"B4","midi":71,"time":"417.31","velocity":0.5433070866141733,"duration":"0.09"},{"name":"G#5","midi":80,"time":"417.31","velocity":0.25196850393700787,"duration":"0.09"},{"name":"D#6","midi":87,"time":"417.31","velocity":0.15748031496062992,"duration":"0.07"},{"name":"G#2","midi":44,"time":"417.33","velocity":0.5118110236220472,"duration":"0.01"},{"name":"A3","midi":57,"time":"417.33","velocity":0.4330708661417323,"duration":"0.08"},{"name":"F5","midi":77,"time":"417.33","velocity":0.25196850393700787,"duration":"0.06"},{"name":"F1","midi":29,"time":"417.34","velocity":0.48031496062992124,"duration":"0.02"},{"name":"B2","midi":47,"time":"417.34","velocity":0.4330708661417323,"duration":"0.02"},{"name":"C#5","midi":73,"time":"417.34","velocity":0.33858267716535434,"duration":"0.02"},{"name":"D6","midi":86,"time":"417.34","velocity":0.15748031496062992,"duration":"0.03"},{"name":"E6","midi":88,"time":"417.34","velocity":0.29133858267716534,"duration":"0.15"},{"name":"G7","midi":103,"time":"417.35","velocity":0.14173228346456693,"duration":"0.10"},{"name":"G6","midi":91,"time":"417.36","velocity":0.23622047244094488,"duration":"0.02"},{"name":"C7","midi":96,"time":"417.36","velocity":0.2125984251968504,"duration":"0.31"},{"name":"E4","midi":64,"time":"417.37","velocity":0.3228346456692913,"duration":"0.09"},{"name":"C#5","midi":73,"time":"417.37","velocity":0.2992125984251969,"duration":"0.07"},{"name":"F#5","midi":78,"time":"417.37","velocity":0.2755905511811024,"duration":"0.07"},{"name":"G#2","midi":44,"time":"417.40","velocity":0.5275590551181102,"duration":"0.01"},{"name":"F3","midi":53,"time":"417.40","velocity":0.4645669291338583,"duration":"0.02"},{"name":"A5","midi":81,"time":"417.40","velocity":0.2755905511811024,"duration":"0.06"},{"name":"D#6","midi":87,"time":"417.40","velocity":0.2283464566929134,"duration":"0.13"},{"name":"G6","midi":91,"time":"417.40","velocity":0.15748031496062992,"duration":"0.03"},{"name":"A2","midi":45,"time":"417.41","velocity":0.5196850393700787,"duration":"0.01"},{"name":"A#2","midi":46,"time":"417.42","velocity":0.5118110236220472,"duration":"0.01"},{"name":"A3","midi":57,"time":"417.42","velocity":0.4015748031496063,"duration":"0.02"},{"name":"B4","midi":71,"time":"417.42","velocity":0.5354330708661418,"duration":"0.15"},{"name":"D6","midi":86,"time":"417.42","velocity":0.2755905511811024,"duration":"0.03"},{"name":"F6","midi":89,"time":"417.42","velocity":0.12598425196850394,"duration":"0.05"},{"name":"G#2","midi":44,"time":"417.43","velocity":0.4645669291338583,"duration":"0.02"},{"name":"G5","midi":79,"time":"417.43","velocity":0.1732283464566929,"duration":"0.09"},{"name":"F3","midi":53,"time":"417.44","velocity":0.4645669291338583,"duration":"0.02"},{"name":"D5","midi":74,"time":"417.44","velocity":0.2677165354330709,"duration":"0.02"},{"name":"G#5","midi":80,"time":"417.44","velocity":0.2677165354330709,"duration":"0.07"},{"name":"A4","midi":69,"time":"417.45","velocity":0.30708661417322836,"duration":"0.02"},{"name":"G#2","midi":44,"time":"417.47","velocity":0.5354330708661418,"duration":"0.01"},{"name":"D6","midi":86,"time":"417.47","velocity":0.25196850393700787,"duration":"0.15"},{"name":"A3","midi":57,"time":"417.48","velocity":0.41732283464566927,"duration":"0.07"},{"name":"E4","midi":64,"time":"417.48","velocity":0.25984251968503935,"duration":"0.03"},{"name":"A6","midi":93,"time":"417.48","velocity":0.2047244094488189,"duration":"0.03"},{"name":"A#2","midi":46,"time":"417.49","velocity":0.5354330708661418,"duration":"0.01"},{"name":"C#4","midi":61,"time":"417.49","velocity":0.2992125984251969,"duration":"0.02"},{"name":"C#5","midi":73,"time":"417.49","velocity":0.3700787401574803,"duration":"0.12"},{"name":"A2","midi":45,"time":"417.50","velocity":0.5748031496062992,"duration":"0.05"},{"name":"F#4","midi":66,"time":"417.50","velocity":0.2677165354330709,"duration":"0.02"},{"name":"A5","midi":81,"time":"417.50","velocity":0.2677165354330709,"duration":"0.16"},{"name":"E6","midi":88,"time":"417.50","velocity":0.47244094488188976,"duration":"0.64"},{"name":"F#5","midi":78,"time":"417.51","velocity":0.33858267716535434,"duration":"0.06"},{"name":"A#6","midi":94,"time":"417.51","velocity":0.1968503937007874,"duration":"0.06"},{"name":"G7","midi":103,"time":"417.51","velocity":0.2204724409448819,"duration":"0.06"},{"name":"G#5","midi":80,"time":"417.52","velocity":0.18110236220472442,"duration":"0.03"},{"name":"F6","midi":89,"time":"417.52","velocity":0.15748031496062992,"duration":"0.05"},{"name":"E4","midi":64,"time":"417.53","velocity":0.3543307086614173,"duration":"0.10"},{"name":"B3","midi":59,"time":"417.55","velocity":0.29133858267716534,"duration":"0.02"},{"name":"A4","midi":69,"time":"417.55","velocity":0.3700787401574803,"duration":"0.03"},{"name":"A2","midi":45,"time":"417.56","velocity":0.5354330708661418,"duration":"0.01"},{"name":"D#6","midi":87,"time":"417.56","velocity":0.25984251968503935,"duration":"0.10"},{"name":"G#2","midi":44,"time":"417.57","velocity":0.5433070866141733,"duration":"0.02"},{"name":"G5","midi":79,"time":"417.57","velocity":0.31496062992125984,"duration":"0.02"},{"name":"B4","midi":71,"time":"417.58","velocity":0.5511811023622047,"duration":"0.14"},{"name":"F#5","midi":78,"time":"417.58","velocity":0.3228346456692913,"duration":"0.09"},{"name":"G#5","midi":80,"time":"417.58","velocity":0.30708661417322836,"duration":"0.10"},{"name":"A#6","midi":94,"time":"417.58","velocity":0.2283464566929134,"duration":"0.21"},{"name":"A4","midi":69,"time":"417.59","velocity":0.30708661417322836,"duration":"0.02"},{"name":"G#2","midi":44,"time":"417.60","velocity":0.48031496062992124,"duration":"0.02"},{"name":"A#3","midi":58,"time":"417.60","velocity":0.33858267716535434,"duration":"0.02"},{"name":"G5","midi":79,"time":"417.60","velocity":0.2755905511811024,"duration":"0.05"},{"name":"A6","midi":93,"time":"417.60","velocity":0.4094488188976378,"duration":"1.40"},{"name":"A2","midi":45,"time":"417.63","velocity":0.5275590551181102,"duration":"0.02"},{"name":"B3","midi":59,"time":"417.63","velocity":0.36220472440944884,"duration":"0.03"},{"name":"A4","midi":69,"time":"417.64","velocity":0.4015748031496063,"duration":"0.03"},{"name":"D#5","midi":75,"time":"417.64","velocity":0.33070866141732286,"duration":"0.03"},{"name":"F#4","midi":66,"time":"417.65","velocity":0.2992125984251969,"duration":"0.05"},{"name":"C#2","midi":37,"time":"417.66","velocity":0.5118110236220472,"duration":"0.01"},{"name":"A3","midi":57,"time":"417.66","velocity":0.4015748031496063,"duration":"0.02"},{"name":"C#4","midi":61,"time":"417.66","velocity":0.33858267716535434,"duration":"0.02"},{"name":"E5","midi":76,"time":"417.66","velocity":0.36220472440944884,"duration":"0.03"},{"name":"D6","midi":86,"time":"417.66","velocity":0.25196850393700787,"duration":"0.03"},{"name":"F2","midi":41,"time":"417.67","velocity":0.6220472440944882,"duration":"0.02"},{"name":"C#5","midi":73,"time":"417.67","velocity":0.3700787401574803,"duration":"0.13"},{"name":"F5","midi":77,"time":"417.67","velocity":0.28346456692913385,"duration":"0.03"},{"name":"A5","midi":81,"time":"417.67","velocity":0.3858267716535433,"duration":"0.07"},{"name":"D#7","midi":99,"time":"417.67","velocity":0.2677165354330709,"duration":"0.19"},{"name":"F#5","midi":78,"time":"417.69","velocity":0.4015748031496063,"duration":"0.19"},{"name":"G2","midi":43,"time":"417.70","velocity":0.5433070866141733,"duration":"0.01"},{"name":"F1","midi":29,"time":"417.71","velocity":0.5826771653543307,"duration":"0.02"},{"name":"F#4","midi":66,"time":"417.71","velocity":0.33070866141732286,"duration":"0.03"},{"name":"A4","midi":69,"time":"417.71","velocity":0.47244094488188976,"duration":"0.02"},{"name":"A1","midi":33,"time":"417.73","velocity":0.5275590551181102,"duration":"0.01"},{"name":"G3","midi":55,"time":"417.73","velocity":0.3937007874015748,"duration":"0.03"},{"name":"D4","midi":62,"time":"417.73","velocity":0.2677165354330709,"duration":"0.06"},{"name":"A#4","midi":70,"time":"417.73","velocity":0.5196850393700787,"duration":"0.02"},{"name":"E5","midi":76,"time":"417.73","velocity":0.29133858267716534,"duration":"0.06"},{"name":"F6","midi":89,"time":"417.73","velocity":0.1889763779527559,"duration":"0.07"},{"name":"G6","midi":91,"time":"417.73","velocity":0.2125984251968504,"duration":"0.14"},{"name":"A4","midi":69,"time":"417.74","velocity":0.5748031496062992,"duration":"0.20"},{"name":"G#5","midi":80,"time":"417.74","velocity":0.2677165354330709,"duration":"0.03"},{"name":"F#4","midi":66,"time":"417.76","velocity":0.3700787401574803,"duration":"0.02"},{"name":"A5","midi":81,"time":"417.76","velocity":0.6062992125984252,"duration":"0.70"},{"name":"A#5","midi":82,"time":"417.76","velocity":0.2677165354330709,"duration":"0.02"},{"name":"C7","midi":96,"time":"417.76","velocity":0.18110236220472442,"duration":"0.13"},{"name":"D6","midi":86,"time":"417.77","velocity":0.23622047244094488,"duration":"0.22"},{"name":"D#6","midi":87,"time":"417.78","velocity":0.14960629921259844,"duration":"0.03"},{"name":"F7","midi":101,"time":"417.78","velocity":0.28346456692913385,"duration":"1.13"},{"name":"E4","midi":64,"time":"417.79","velocity":0.31496062992125984,"duration":"0.02"},{"name":"D4","midi":62,"time":"417.80","velocity":0.4094488188976378,"duration":"0.26"},{"name":"E5","midi":76,"time":"417.80","velocity":0.3937007874015748,"duration":"0.10"},{"name":"A#6","midi":94,"time":"417.80","velocity":0.14173228346456693,"duration":"0.03"},{"name":"B4","midi":71,"time":"417.83","velocity":0.3779527559055118,"duration":"0.03"},{"name":"G#5","midi":80,"time":"417.83","velocity":0.2992125984251969,"duration":"0.05"},{"name":"C3","midi":48,"time":"417.85","velocity":0.3937007874015748,"duration":"0.02"},{"name":"A#6","midi":94,"time":"417.85","velocity":0.1889763779527559,"duration":"0.07"},{"name":"F#4","midi":66,"time":"417.86","velocity":0.31496062992125984,"duration":"0.08"},{"name":"D7","midi":98,"time":"417.86","velocity":0.28346456692913385,"duration":"0.69"},{"name":"F#3","midi":54,"time":"417.87","velocity":0.3228346456692913,"duration":"0.06"},{"name":"C#5","midi":73,"time":"417.87","velocity":0.2204724409448819,"duration":"0.05"},{"name":"F#6","midi":90,"time":"417.87","velocity":0.15748031496062992,"duration":"0.12"},{"name":"F#5","midi":78,"time":"417.88","velocity":0.41732283464566927,"duration":"0.73"},{"name":"G6","midi":91,"time":"417.88","velocity":0.11811023622047244,"duration":"0.05"},{"name":"G#5","midi":80,"time":"417.90","velocity":0.28346456692913385,"duration":"0.02"},{"name":"C7","midi":96,"time":"417.90","velocity":0.1968503937007874,"duration":"0.23"},{"name":"D#7","midi":99,"time":"417.90","velocity":0.25984251968503935,"duration":"0.28"},{"name":"G7","midi":103,"time":"417.90","velocity":0.18110236220472442,"duration":"0.03"},{"name":"B2","midi":47,"time":"417.91","velocity":0.4566929133858268,"duration":"0.03"},{"name":"E5","midi":76,"time":"417.92","velocity":0.2047244094488189,"duration":"0.05"},{"name":"C#5","midi":73,"time":"417.93","velocity":0.2125984251968504,"duration":"0.07"},{"name":"D#5","midi":75,"time":"417.93","velocity":0.2440944881889764,"duration":"0.09"},{"name":"B5","midi":83,"time":"417.93","velocity":0.16535433070866143,"duration":"0.03"},{"name":"A#4","midi":70,"time":"417.94","velocity":0.3464566929133858,"duration":"0.02"},{"name":"G#5","midi":80,"time":"417.94","velocity":0.25984251968503935,"duration":"0.02"},{"name":"F#3","midi":54,"time":"417.95","velocity":0.4251968503937008,"duration":"0.10"},{"name":"F6","midi":89,"time":"417.95","velocity":0.11023622047244094,"duration":"0.07"},{"name":"G6","midi":91,"time":"417.95","velocity":0.18110236220472442,"duration":"0.14"},{"name":"B3","midi":59,"time":"417.97","velocity":0.28346456692913385,"duration":"0.03"},{"name":"A4","midi":69,"time":"417.97","velocity":0.5039370078740157,"duration":"0.24"},{"name":"A#6","midi":94,"time":"417.97","velocity":0.2047244094488189,"duration":"0.38"},{"name":"B4","midi":71,"time":"417.99","velocity":0.31496062992125984,"duration":"0.05"},{"name":"B5","midi":83,"time":"417.99","velocity":0.41732283464566927,"duration":"0.38"},{"name":"G7","midi":103,"time":"417.99","velocity":0.18110236220472442,"duration":"0.03"},{"name":"B0","midi":23,"time":"418.01","velocity":0.2440944881889764,"duration":"0.02"},{"name":"D6","midi":86,"time":"418.01","velocity":0.23622047244094488,"duration":"0.19"},{"name":"E5","midi":76,"time":"418.02","velocity":0.36220472440944884,"duration":"0.08"},{"name":"B2","midi":47,"time":"418.03","velocity":0.5433070866141733,"duration":"0.05"},{"name":"G#5","midi":80,"time":"418.03","velocity":0.23622047244094488,"duration":"0.02"},{"name":"F3","midi":53,"time":"418.06","velocity":0.5039370078740157,"duration":"0.02"},{"name":"E4","midi":64,"time":"418.07","velocity":0.33070866141732286,"duration":"0.05"},{"name":"D#6","midi":87,"time":"418.07","velocity":0.18110236220472442,"duration":"0.05"},{"name":"A2","midi":45,"time":"418.08","velocity":0.5748031496062992,"duration":"0.02"},{"name":"B4","midi":71,"time":"418.08","velocity":0.23622047244094488,"duration":"0.02"},{"name":"D#5","midi":75,"time":"418.09","velocity":0.31496062992125984,"duration":"0.12"},{"name":"B2","midi":47,"time":"418.10","velocity":0.4566929133858268,"duration":"0.02"},{"name":"F#3","midi":54,"time":"418.10","velocity":0.3464566929133858,"duration":"0.02"},{"name":"F#4","midi":66,"time":"418.10","velocity":0.3779527559055118,"duration":"0.33"},{"name":"G#5","midi":80,"time":"418.10","velocity":0.2283464566929134,"duration":"0.02"},{"name":"F3","midi":53,"time":"418.13","velocity":0.31496062992125984,"duration":"0.02"},{"name":"F6","midi":89,"time":"418.13","velocity":0.1889763779527559,"duration":"0.06"},{"name":"B2","midi":47,"time":"418.14","velocity":0.49606299212598426,"duration":"0.02"},{"name":"C7","midi":96,"time":"418.14","velocity":0.2283464566929134,"duration":"0.19"},{"name":"G7","midi":103,"time":"418.14","velocity":0.14960629921259844,"duration":"0.08"},{"name":"G#5","midi":80,"time":"418.15","velocity":0.25196850393700787,"duration":"0.02"},{"name":"E6","midi":88,"time":"418.15","velocity":0.4645669291338583,"duration":"1.94"},{"name":"G6","midi":91,"time":"418.16","velocity":0.14173228346456693,"duration":"0.07"},{"name":"B2","midi":47,"time":"418.17","velocity":0.5039370078740157,"duration":"0.02"},{"name":"C#5","midi":73,"time":"418.17","velocity":0.15748031496062992,"duration":"0.03"},{"name":"F5","midi":77,"time":"418.19","velocity":0.28346456692913385,"duration":"0.02"},{"name":"C6","midi":84,"time":"418.19","velocity":0.23622047244094488,"duration":"0.03"},{"name":"B2","midi":47,"time":"418.21","velocity":0.5039370078740157,"duration":"0.05"},{"name":"E5","midi":76,"time":"418.21","velocity":0.36220472440944884,"duration":"0.05"},{"name":"D6","midi":86,"time":"418.21","velocity":0.2440944881889764,"duration":"0.10"},{"name":"D#7","midi":99,"time":"418.22","velocity":0.30708661417322836,"duration":"1.07"},{"name":"A4","midi":69,"time":"418.23","velocity":0.44881889763779526,"duration":"0.09"},{"name":"D#5","midi":75,"time":"418.23","velocity":0.29133858267716534,"duration":"0.05"},{"name":"F#3","midi":54,"time":"418.24","velocity":0.36220472440944884,"duration":"0.05"},{"name":"G7","midi":103,"time":"418.24","velocity":0.16535433070866143,"duration":"0.19"},{"name":"A#2","midi":46,"time":"418.26","velocity":0.5118110236220472,"duration":"0.01"},{"name":"F5","midi":77,"time":"418.26","velocity":0.25196850393700787,"duration":"0.02"},{"name":"B2","midi":47,"time":"418.27","velocity":0.5433070866141733,"duration":"0.02"},{"name":"G#5","midi":80,"time":"418.27","velocity":0.2125984251968504,"duration":"0.05"},{"name":"G6","midi":91,"time":"418.27","velocity":0.2440944881889764,"duration":"0.44"},{"name":"E5","midi":76,"time":"418.28","velocity":0.3779527559055118,"duration":"0.17"},{"name":"A#2","midi":46,"time":"418.29","velocity":0.5196850393700787,"duration":"0.01"},{"name":"F6","midi":89,"time":"418.29","velocity":0.12598425196850394,"duration":"0.03"},{"name":"B2","midi":47,"time":"418.30","velocity":0.5118110236220472,"duration":"0.02"},{"name":"F#3","midi":54,"time":"418.30","velocity":0.4015748031496063,"duration":"0.02"},{"name":"D#6","midi":87,"time":"418.30","velocity":0.15748031496062992,"duration":"0.05"},{"name":"A#2","midi":46,"time":"418.33","velocity":0.5275590551181102,"duration":"0.01"},{"name":"F3","midi":53,"time":"418.33","velocity":0.3858267716535433,"duration":"0.02"},{"name":"G#4","midi":68,"time":"418.33","velocity":0.41732283464566927,"duration":"0.02"},{"name":"B2","midi":47,"time":"418.34","velocity":0.5275590551181102,"duration":"0.02"},{"name":"F#3","midi":54,"time":"418.35","velocity":0.41732283464566927,"duration":"0.05"},{"name":"A4","midi":69,"time":"418.35","velocity":0.4645669291338583,"duration":"0.08"},{"name":"F6","midi":89,"time":"418.35","velocity":0.09448818897637795,"duration":"0.06"},{"name":"A#2","midi":46,"time":"418.36","velocity":0.5354330708661418,"duration":"0.01"},{"name":"D#4","midi":63,"time":"418.36","velocity":0.30708661417322836,"duration":"0.02"},{"name":"C6","midi":84,"time":"418.36","velocity":0.2755905511811024,"duration":"0.05"},{"name":"D6","midi":86,"time":"418.36","velocity":0.2125984251968504,"duration":"0.05"},{"name":"G#6","midi":92,"time":"418.36","velocity":0.29133858267716534,"duration":"0.27"},{"name":"B2","midi":47,"time":"418.37","velocity":0.5433070866141733,"duration":"0.07"},{"name":"D4","midi":62,"time":"418.38","velocity":0.31496062992125984,"duration":"0.02"},{"name":"B5","midi":83,"time":"418.38","velocity":0.2125984251968504,"duration":"0.03"},{"name":"C#6","midi":85,"time":"418.40","velocity":0.3700787401574803,"duration":"0.08"},{"name":"C#1","midi":25,"time":"418.41","velocity":0.33858267716535434,"duration":"0.02"},{"name":"A#6","midi":94,"time":"418.41","velocity":0.25196850393700787,"duration":"0.21"},{"name":"C#5","midi":73,"time":"418.42","velocity":0.3464566929133858,"duration":"0.06"},{"name":"A#5","midi":82,"time":"418.42","velocity":0.2125984251968504,"duration":"0.06"},{"name":"D6","midi":86,"time":"418.42","velocity":0.28346456692913385,"duration":"0.12"},{"name":"F6","midi":89,"time":"418.42","velocity":0.15748031496062992,"duration":"0.05"},{"name":"F4","midi":65,"time":"418.43","velocity":0.47244094488188976,"duration":"0.02"},{"name":"F3","midi":53,"time":"418.44","velocity":0.5433070866141733,"duration":"0.02"},{"name":"G#4","midi":68,"time":"418.44","velocity":0.5039370078740157,"duration":"0.03"},{"name":"E4","midi":64,"time":"418.45","velocity":0.41732283464566927,"duration":"0.02"},{"name":"D#5","midi":75,"time":"418.45","velocity":0.4015748031496063,"duration":"0.02"},{"name":"C6","midi":84,"time":"418.45","velocity":0.25984251968503935,"duration":"0.03"},{"name":"F2","midi":41,"time":"418.48","velocity":0.3779527559055118,"duration":"0.02"},{"name":"F#4","midi":66,"time":"418.48","velocity":0.30708661417322836,"duration":"0.02"},{"name":"A4","midi":69,"time":"418.48","velocity":0.4881889763779528,"duration":"0.07"},{"name":"C5","midi":72,"time":"418.48","velocity":0.2992125984251969,"duration":"0.02"},{"name":"E5","midi":76,"time":"418.48","velocity":0.4251968503937008,"duration":"0.02"},{"name":"A5","midi":81,"time":"418.48","velocity":0.5984251968503937,"duration":"0.44"},{"name":"F#3","midi":54,"time":"418.49","velocity":0.4881889763779528,"duration":"0.09"},{"name":"D#4","midi":63,"time":"418.49","velocity":0.3543307086614173,"duration":"0.06"},{"name":"B5","midi":83,"time":"418.49","velocity":0.2755905511811024,"duration":"0.07"},{"name":"C#6","midi":85,"time":"418.49","velocity":0.29133858267716534,"duration":"0.23"},{"name":"B4","midi":71,"time":"418.50","velocity":0.3858267716535433,"duration":"0.07"},{"name":"E5","midi":76,"time":"418.51","velocity":0.3779527559055118,"duration":"0.03"},{"name":"G#5","midi":80,"time":"418.51","velocity":0.2755905511811024,"duration":"0.02"},{"name":"C#7","midi":97,"time":"418.52","velocity":0.36220472440944884,"duration":"2.76"},{"name":"C7","midi":96,"time":"418.53","velocity":0.2755905511811024,"duration":"0.42"},{"name":"D4","midi":62,"time":"418.55","velocity":0.3543307086614173,"duration":"0.02"},{"name":"D#5","midi":75,"time":"418.55","velocity":0.25984251968503935,"duration":"0.03"},{"name":"G#5","midi":80,"time":"418.55","velocity":0.14960629921259844,"duration":"0.03"},{"name":"C6","midi":84,"time":"418.55","velocity":0.2755905511811024,"duration":"0.09"},{"name":"D6","midi":86,"time":"418.55","velocity":0.1968503937007874,"duration":"0.10"},{"name":"B2","midi":47,"time":"418.56","velocity":0.48031496062992124,"duration":"0.05"},{"name":"D7","midi":98,"time":"418.56","velocity":0.2677165354330709,"duration":"0.21"},{"name":"A4","midi":69,"time":"418.57","velocity":0.5433070866141733,"duration":"0.24"},{"name":"C#5","midi":73,"time":"418.57","velocity":0.23622047244094488,"duration":"0.07"},{"name":"E5","midi":76,"time":"418.57","velocity":0.28346456692913385,"duration":"0.02"},{"name":"D4","midi":62,"time":"418.58","velocity":0.3543307086614173,"duration":"0.08"},{"name":"F5","midi":77,"time":"418.59","velocity":0.29133858267716534,"duration":"0.02"},{"name":"G5","midi":79,"time":"418.60","velocity":0.23622047244094488,"duration":"0.03"},{"name":"B2","midi":47,"time":"418.62","velocity":0.4409448818897638,"duration":"0.02"},{"name":"E5","midi":76,"time":"418.62","velocity":0.3228346456692913,"duration":"0.07"},{"name":"B5","midi":83,"time":"418.62","velocity":0.33858267716535434,"duration":"0.08"},{"name":"F#3","midi":54,"time":"418.63","velocity":0.41732283464566927,"duration":"0.06"},{"name":"A#3","midi":58,"time":"418.63","velocity":0.3937007874015748,"duration":"0.05"},{"name":"D#6","midi":87,"time":"418.63","velocity":0.15748031496062992,"duration":"0.05"},{"name":"B4","midi":71,"time":"418.64","velocity":0.25984251968503935,"duration":"0.05"},{"name":"G#6","midi":92,"time":"418.64","velocity":0.14173228346456693,"duration":"0.10"},{"name":"A#6","midi":94,"time":"418.64","velocity":0.23622047244094488,"duration":"0.28"},{"name":"A#2","midi":46,"time":"418.66","velocity":0.4566929133858268,"duration":"0.02"},{"name":"B6","midi":95,"time":"418.66","velocity":0.36220472440944884,"duration":"0.84"},{"name":"D4","midi":62,"time":"418.67","velocity":0.4094488188976378,"duration":"0.06"},{"name":"F4","midi":65,"time":"418.67","velocity":0.25196850393700787,"duration":"0.02"},{"name":"C#5","midi":73,"time":"418.67","velocity":0.16535433070866143,"duration":"0.05"},{"name":"C6","midi":84,"time":"418.67","velocity":0.33070866141732286,"duration":"0.09"},{"name":"F#3","midi":54,"time":"418.70","velocity":0.4251968503937008,"duration":"0.02"},{"name":"E5","midi":76,"time":"418.70","velocity":0.3779527559055118,"duration":"0.14"},{"name":"D6","midi":86,"time":"418.70","velocity":0.2440944881889764,"duration":"0.07"},{"name":"B2","midi":47,"time":"418.71","velocity":0.4251968503937008,"duration":"0.02"},{"name":"F#5","midi":78,"time":"418.71","velocity":0.2677165354330709,"duration":"0.09"},{"name":"B5","midi":83,"time":"418.71","velocity":0.29133858267716534,"duration":"0.03"},{"name":"F3","midi":53,"time":"418.72","velocity":0.4409448818897638,"duration":"0.02"},{"name":"F#4","midi":66,"time":"418.72","velocity":0.28346456692913385,"duration":"0.03"},{"name":"G6","midi":91,"time":"418.72","velocity":0.12598425196850394,"duration":"0.08"},{"name":"E4","midi":64,"time":"418.73","velocity":0.2755905511811024,"duration":"0.02"},{"name":"B4","midi":71,"time":"418.73","velocity":0.33858267716535434,"duration":"0.07"},{"name":"C#6","midi":85,"time":"418.73","velocity":0.3779527559055118,"duration":"0.14"},{"name":"B2","midi":47,"time":"418.74","velocity":0.4409448818897638,"duration":"0.02"},{"name":"D4","midi":62,"time":"418.74","velocity":0.4094488188976378,"duration":"0.05"},{"name":"G#5","midi":80,"time":"418.74","velocity":0.2283464566929134,"duration":"0.02"},{"name":"B5","midi":83,"time":"418.76","velocity":0.5433070866141733,"duration":"0.84"},{"name":"F6","midi":89,"time":"418.76","velocity":0.10236220472440945,"duration":"0.03"},{"name":"G#6","midi":92,"time":"418.76","velocity":0.25196850393700787,"duration":"0.12"},{"name":"F#3","midi":54,"time":"418.77","velocity":0.4409448818897638,"duration":"0.05"},{"name":"B2","midi":47,"time":"418.78","velocity":0.4251968503937008,"duration":"0.02"},{"name":"C6","midi":84,"time":"418.78","velocity":0.29133858267716534,"duration":"0.03"},{"name":"D7","midi":98,"time":"418.78","velocity":0.25196850393700787,"duration":"0.44"},{"name":"E4","midi":64,"time":"418.79","velocity":0.41732283464566927,"duration":"0.02"},{"name":"G5","midi":79,"time":"418.79","velocity":0.29133858267716534,"duration":"0.02"},{"name":"D#6","midi":87,"time":"418.79","velocity":0.16535433070866143,"duration":"0.05"},{"name":"A2","midi":45,"time":"418.80","velocity":0.5118110236220472,"duration":"0.01"},{"name":"F6","midi":89,"time":"418.80","velocity":0.16535433070866143,"duration":"0.13"},{"name":"D6","midi":86,"time":"418.81","velocity":0.2677165354330709,"duration":"0.09"},{"name":"G6","midi":91,"time":"418.81","velocity":0.2047244094488189,"duration":"0.06"},{"name":"F2","midi":41,"time":"418.83","velocity":0.3228346456692913,"duration":"0.02"},{"name":"C#3","midi":49,"time":"418.83","velocity":0.4330708661417323,"duration":"0.03"},{"name":"A4","midi":69,"time":"418.83","velocity":0.4251968503937008,"duration":"0.06"},{"name":"F#6","midi":90,"time":"418.83","velocity":0.4330708661417323,"duration":"0.60"},{"name":"A3","midi":57,"time":"418.84","velocity":0.2992125984251969,"duration":"0.02"},{"name":"E4","midi":64,"time":"418.84","velocity":0.3779527559055118,"duration":"0.03"},{"name":"B4","midi":71,"time":"418.84","velocity":0.2992125984251969,"duration":"0.02"},{"name":"D5","midi":74,"time":"418.85","velocity":0.29133858267716534,"duration":"0.15"},{"name":"A#5","midi":82,"time":"418.85","velocity":0.2125984251968504,"duration":"0.03"},{"name":"C3","midi":48,"time":"418.86","velocity":0.5118110236220472,"duration":"0.01"},{"name":"F#4","midi":66,"time":"418.86","velocity":0.29133858267716534,"duration":"0.02"},{"name":"A2","midi":45,"time":"418.87","velocity":0.5196850393700787,"duration":"0.01"},{"name":"B4","midi":71,"time":"418.87","velocity":0.5039370078740157,"duration":"0.42"},{"name":"B2","midi":47,"time":"418.88","velocity":0.4881889763779528,"duration":"0.02"},{"name":"E4","midi":64,"time":"418.88","velocity":0.3937007874015748,"duration":"0.07"},{"name":"G#6","midi":92,"time":"418.88","velocity":0.23622047244094488,"duration":"0.27"},{"name":"A4","midi":69,"time":"418.90","velocity":0.3543307086614173,"duration":"0.03"},{"name":"C#6","midi":85,"time":"418.90","velocity":0.2125984251968504,"duration":"0.05"},{"name":"A#2","midi":46,"time":"418.91","velocity":0.44881889763779526,"duration":"0.02"},{"name":"F#3","midi":54,"time":"418.91","velocity":0.4251968503937008,"duration":"0.03"},{"name":"G6","midi":91,"time":"418.91","velocity":0.13385826771653545,"duration":"0.06"},{"name":"F5","midi":77,"time":"418.92","velocity":0.2125984251968504,"duration":"0.03"},{"name":"B2","midi":47,"time":"418.93","velocity":0.47244094488188976,"duration":"0.03"},{"name":"G#4","midi":68,"time":"418.93","velocity":0.3937007874015748,"duration":"0.02"},{"name":"A5","midi":81,"time":"418.93","velocity":0.5433070866141733,"duration":"1.05"},{"name":"D#6","midi":87,"time":"418.93","velocity":0.1732283464566929,"duration":"0.13"},{"name":"G5","midi":79,"time":"418.94","velocity":0.28346456692913385,"duration":"0.02"},{"name":"D6","midi":86,"time":"418.94","velocity":0.30708661417322836,"duration":"0.07"},{"name":"F7","midi":101,"time":"418.94","velocity":0.18110236220472442,"duration":"0.24"},{"name":"F#3","midi":54,"time":"418.95","velocity":0.4330708661417323,"duration":"0.06"},{"name":"A4","midi":69,"time":"418.95","velocity":0.5354330708661418,"duration":"0.24"},{"name":"F#5","midi":78,"time":"418.95","velocity":0.3464566929133858,"duration":"0.12"},{"name":"G#5","midi":80,"time":"418.97","velocity":0.2440944881889764,"duration":"0.02"},{"name":"F6","midi":89,"time":"418.97","velocity":0.07086614173228346,"duration":"0.03"},{"name":"B2","midi":47,"time":"418.98","velocity":0.4645669291338583,"duration":"0.03"},{"name":"C7","midi":96,"time":"418.98","velocity":0.1889763779527559,"duration":"0.09"},{"name":"E4","midi":64,"time":"418.99","velocity":0.29133858267716534,"duration":"0.02"},{"name":"A#6","midi":94,"time":"418.99","velocity":0.16535433070866143,"duration":"0.03"},{"name":"A#3","midi":58,"time":"419.00","velocity":0.4015748031496063,"duration":"0.03"},{"name":"F5","midi":77,"time":"419.01","velocity":0.2440944881889764,"duration":"0.02"},{"name":"E5","midi":76,"time":"419.02","velocity":0.2992125984251969,"duration":"0.08"},{"name":"D6","midi":86,"time":"419.02","velocity":0.2992125984251969,"duration":"0.13"},{"name":"C#5","midi":73,"time":"419.03","velocity":0.16535433070866143,"duration":"0.07"},{"name":"D4","midi":62,"time":"419.05","velocity":0.30708661417322836,"duration":"0.07"},{"name":"C#6","midi":85,"time":"419.05","velocity":0.25196850393700787,"duration":"0.05"},{"name":"A#6","midi":94,"time":"419.05","velocity":0.1732283464566929,"duration":"0.14"},{"name":"F6","midi":89,"time":"419.06","velocity":0.07086614173228346,"duration":"0.05"},{"name":"G6","midi":91,"time":"419.06","velocity":0.25196850393700787,"duration":"0.07"},{"name":"F#4","midi":66,"time":"419.07","velocity":0.2283464566929134,"duration":"0.02"},{"name":"G5","midi":79,"time":"419.07","velocity":0.09448818897637795,"duration":"0.03"},{"name":"B2","midi":47,"time":"419.08","velocity":0.4645669291338583,"duration":"0.02"},{"name":"C7","midi":96,"time":"419.08","velocity":0.2204724409448819,"duration":"0.05"},{"name":"G3","midi":55,"time":"419.09","velocity":0.3858267716535433,"duration":"0.02"},{"name":"F#5","midi":78,"time":"419.09","velocity":0.33858267716535434,"duration":"0.29"},{"name":"F#4","midi":66,"time":"419.10","velocity":0.3700787401574803,"duration":"0.09"},{"name":"C#6","midi":85,"time":"419.10","velocity":0.25984251968503935,"duration":"0.03"},{"name":"B2","midi":47,"time":"419.12","velocity":0.49606299212598426,"duration":"0.02"},{"name":"A#3","midi":58,"time":"419.12","velocity":0.33858267716535434,"duration":"0.02"},{"name":"F#3","midi":54,"time":"419.13","velocity":0.3858267716535433,"duration":"0.03"},{"name":"E5","midi":76,"time":"419.13","velocity":0.2755905511811024,"duration":"0.08"},{"name":"A#2","midi":46,"time":"419.14","velocity":0.5196850393700787,"duration":"0.01"},{"name":"B3","midi":59,"time":"419.14","velocity":0.33858267716535434,"duration":"0.02"},{"name":"D#6","midi":87,"time":"419.14","velocity":0.15748031496062992,"duration":"0.10"},{"name":"G6","midi":91,"time":"419.14","velocity":0.15748031496062992,"duration":"0.05"},{"name":"C7","midi":96,"time":"419.14","velocity":0.2440944881889764,"duration":"0.50"},{"name":"B2","midi":47,"time":"419.15","velocity":0.5118110236220472,"duration":"0.03"},{"name":"C#6","midi":85,"time":"419.15","velocity":0.23622047244094488,"duration":"0.03"},{"name":"G#5","midi":80,"time":"419.16","velocity":0.29133858267716534,"duration":"0.05"},{"name":"C3","midi":48,"time":"419.19","velocity":0.5511811023622047,"duration":"0.01"},{"name":"C#5","midi":73,"time":"419.19","velocity":0.2283464566929134,"duration":"0.02"},{"name":"D6","midi":86,"time":"419.19","velocity":0.16535433070866143,"duration":"0.03"},{"name":"A2","midi":45,"time":"419.20","velocity":0.6377952755905512,"duration":"0.01"},{"name":"C#6","midi":85,"time":"419.20","velocity":0.23622047244094488,"duration":"0.08"},{"name":"G6","midi":91,"time":"419.20","velocity":0.18110236220472442,"duration":"0.03"},{"name":"F7","midi":101,"time":"419.20","velocity":0.14960629921259844,"duration":"0.24"},{"name":"F2","midi":41,"time":"419.21","velocity":0.6299212598425197,"duration":"0.03"},{"name":"C3","midi":48,"time":"419.21","velocity":0.5905511811023622,"duration":"0.01"},{"name":"D5","midi":74,"time":"419.21","velocity":0.2677165354330709,"duration":"0.05"},{"name":"A4","midi":69,"time":"419.22","velocity":0.5511811023622047,"duration":"0.34"},{"name":"E5","midi":76,"time":"419.22","velocity":0.29133858267716534,"duration":"0.08"},{"name":"A#6","midi":94,"time":"419.22","velocity":0.25196850393700787,"duration":"0.22"},{"name":"F#4","midi":66,"time":"419.23","velocity":0.3228346456692913,"duration":"0.05"},{"name":"D7","midi":98,"time":"419.23","velocity":0.29133858267716534,"duration":"1.85"},{"name":"B1","midi":35,"time":"419.24","velocity":0.5354330708661418,"duration":"0.01"},{"name":"F6","midi":89,"time":"419.24","velocity":0.10236220472440945,"duration":"0.05"},{"name":"A1","midi":33,"time":"419.26","velocity":0.5275590551181102,"duration":"0.01"},{"name":"D4","midi":62,"time":"419.26","velocity":0.2992125984251969,"duration":"0.02"},{"name":"G6","midi":91,"time":"419.26","velocity":0.1968503937007874,"duration":"0.14"},{"name":"B3","midi":59,"time":"419.27","velocity":0.3779527559055118,"duration":"0.05"},{"name":"E4","midi":64,"time":"419.28","velocity":0.31496062992125984,"duration":"0.02"},{"name":"G#5","midi":80,"time":"419.28","velocity":0.25196850393700787,"duration":"0.03"},{"name":"C6","midi":84,"time":"419.28","velocity":0.2677165354330709,"duration":"0.05"},{"name":"C3","midi":48,"time":"419.29","velocity":0.5590551181102362,"duration":"0.02"},{"name":"C#6","midi":85,"time":"419.29","velocity":0.29133858267716534,"duration":"0.27"},{"name":"D4","midi":62,"time":"419.30","velocity":0.33858267716535434,"duration":"0.03"},{"name":"F#4","midi":66,"time":"419.30","velocity":0.2440944881889764,"duration":"0.03"},{"name":"D#6","midi":87,"time":"419.30","velocity":0.12598425196850394,"duration":"0.22"},{"name":"D6","midi":86,"time":"419.31","velocity":0.13385826771653545,"duration":"0.03"},{"name":"D#7","midi":99,"time":"419.31","velocity":0.4094488188976378,"duration":"4.78"},{"name":"E5","midi":76,"time":"419.33","velocity":0.4330708661417323,"duration":"0.66"},{"name":"C3","midi":48,"time":"419.34","velocity":0.5118110236220472,"duration":"0.02"},{"name":"B3","midi":59,"time":"419.34","velocity":0.3543307086614173,"duration":"0.02"},{"name":"E4","midi":64,"time":"419.35","velocity":0.3464566929133858,"duration":"0.05"},{"name":"C6","midi":84,"time":"419.35","velocity":0.1889763779527559,"duration":"0.05"},{"name":"B2","midi":47,"time":"419.37","velocity":0.5826771653543307,"duration":"0.21"},{"name":"D4","midi":62,"time":"419.40","velocity":0.33070866141732286,"duration":"0.02"},{"name":"D6","midi":86,"time":"419.40","velocity":0.2283464566929134,"duration":"0.16"},{"name":"F#3","midi":54,"time":"419.41","velocity":0.4251968503937008,"duration":"0.02"},{"name":"F#5","midi":78,"time":"419.41","velocity":0.41732283464566927,"duration":"0.16"},{"name":"C6","midi":84,"time":"419.41","velocity":0.18110236220472442,"duration":"0.03"},{"name":"G6","midi":91,"time":"419.41","velocity":0.2047244094488189,"duration":"0.03"},{"name":"E4","midi":64,"time":"419.42","velocity":0.3543307086614173,"duration":"0.05"},{"name":"B4","midi":71,"time":"419.43","velocity":0.33070866141732286,"duration":"0.08"},{"name":"G#5","midi":80,"time":"419.44","velocity":0.3228346456692913,"duration":"0.14"},{"name":"D4","midi":62,"time":"419.45","velocity":0.3543307086614173,"duration":"0.05"},{"name":"F7","midi":101,"time":"419.45","velocity":0.14173228346456693,"duration":"0.05"},{"name":"F#3","midi":54,"time":"419.47","velocity":0.41732283464566927,"duration":"0.02"},{"name":"G6","midi":91,"time":"419.47","velocity":0.14173228346456693,"duration":"0.07"},{"name":"A#6","midi":94,"time":"419.49","velocity":0.18110236220472442,"duration":"0.08"},{"name":"F#3","midi":54,"time":"419.51","velocity":0.41732283464566927,"duration":"0.05"},{"name":"D#4","midi":63,"time":"419.52","velocity":0.36220472440944884,"duration":"0.02"},{"name":"B4","midi":71,"time":"419.52","velocity":0.36220472440944884,"duration":"0.05"},{"name":"F7","midi":101,"time":"419.52","velocity":0.1889763779527559,"duration":"0.13"},{"name":"G6","midi":91,"time":"419.55","velocity":0.2677165354330709,"duration":"0.09"},{"name":"D5","midi":74,"time":"419.56","velocity":0.29133858267716534,"duration":"0.02"},{"name":"A4","midi":69,"time":"419.57","velocity":0.5118110236220472,"duration":"0.14"},{"name":"F2","midi":41,"time":"419.58","velocity":0.6377952755905512,"duration":"0.03"},{"name":"C4","midi":60,"time":"419.58","velocity":0.2755905511811024,"duration":"0.03"},{"name":"B4","midi":71,"time":"419.58","velocity":0.3543307086614173,"duration":"0.02"},{"name":"G5","midi":79,"time":"419.58","velocity":0.2992125984251969,"duration":"0.02"},{"name":"C6","midi":84,"time":"419.58","velocity":0.2440944881889764,"duration":"0.02"},{"name":"C#6","midi":85,"time":"419.58","velocity":0.3228346456692913,"duration":"0.10"},{"name":"A#6","midi":94,"time":"419.58","velocity":0.2283464566929134,"duration":"0.15"},{"name":"D#6","midi":87,"time":"419.59","velocity":0.23622047244094488,"duration":"0.02"},{"name":"B6","midi":95,"time":"419.59","velocity":0.31496062992125984,"duration":"0.43"},{"name":"F#5","midi":78,"time":"419.60","velocity":0.29133858267716534,"duration":"0.05"},{"name":"B5","midi":83,"time":"419.60","velocity":0.29133858267716534,"duration":"0.07"},{"name":"B3","midi":59,"time":"419.62","velocity":0.3543307086614173,"duration":"0.05"},{"name":"F#4","midi":66,"time":"419.62","velocity":0.31496062992125984,"duration":"0.02"},{"name":"F#3","midi":54,"time":"419.63","velocity":0.4251968503937008,"duration":"0.02"},{"name":"D6","midi":86,"time":"419.63","velocity":0.2992125984251969,"duration":"0.10"},{"name":"D#6","midi":87,"time":"419.64","velocity":0.2047244094488189,"duration":"0.03"},{"name":"A#2","midi":46,"time":"419.65","velocity":0.5118110236220472,"duration":"0.02"},{"name":"F#4","midi":66,"time":"419.65","velocity":0.3228346456692913,"duration":"0.09"},{"name":"C7","midi":96,"time":"419.65","velocity":0.14960629921259844,"duration":"0.16"},{"name":"C6","midi":84,"time":"419.66","velocity":0.2047244094488189,"duration":"0.06"},{"name":"C3","midi":48,"time":"419.67","velocity":0.5275590551181102,"duration":"0.01"},{"name":"B4","midi":71,"time":"419.67","velocity":0.3543307086614173,"duration":"0.06"},{"name":"C#5","midi":73,"time":"419.67","velocity":0.1968503937007874,"duration":"0.05"},{"name":"F7","midi":101,"time":"419.67","velocity":0.14173228346456693,"duration":"0.05"},{"name":"A#2","midi":46,"time":"419.69","velocity":0.5118110236220472,"duration":"0.02"},{"name":"D4","midi":62,"time":"419.70","velocity":0.2283464566929134,"duration":"0.02"},{"name":"F#5","midi":78,"time":"419.70","velocity":0.36220472440944884,"duration":"0.30"},{"name":"C#6","midi":85,"time":"419.70","velocity":0.2440944881889764,"duration":"0.05"},{"name":"D#6","midi":87,"time":"419.70","velocity":0.11811023622047244,"duration":"0.05"},{"name":"F6","midi":89,"time":"419.70","velocity":0.07874015748031496,"duration":"0.05"},{"name":"B2","midi":47,"time":"419.71","velocity":0.5354330708661418,"duration":"0.01"},{"name":"G7","midi":103,"time":"419.71","velocity":0.1889763779527559,"duration":"0.14"},{"name":"A#2","midi":46,"time":"419.72","velocity":0.5275590551181102,"duration":"0.02"},{"name":"A4","midi":69,"time":"419.72","velocity":0.4645669291338583,"duration":"0.08"},{"name":"B5","midi":83,"time":"419.72","velocity":0.3779527559055118,"duration":"0.23"},{"name":"G6","midi":91,"time":"419.72","velocity":0.2047244094488189,"duration":"0.07"},{"name":"F#3","midi":54,"time":"419.73","velocity":0.4251968503937008,"duration":"0.03"},{"name":"E4","midi":64,"time":"419.73","velocity":0.28346456692913385,"duration":"0.03"},{"name":"C6","midi":84,"time":"419.73","velocity":0.2204724409448819,"duration":"0.05"},{"name":"B2","midi":47,"time":"419.74","velocity":0.5039370078740157,"duration":"0.10"},{"name":"C#6","midi":85,"time":"419.76","velocity":0.2125984251968504,"duration":"0.03"},{"name":"A#6","midi":94,"time":"419.76","velocity":0.1732283464566929,"duration":"0.03"},{"name":"F7","midi":101,"time":"419.76","velocity":0.1889763779527559,"duration":"0.09"},{"name":"C4","midi":60,"time":"419.77","velocity":0.2677165354330709,"duration":"0.02"},{"name":"D5","midi":74,"time":"419.77","velocity":0.2440944881889764,"duration":"0.02"},{"name":"F#3","midi":54,"time":"419.78","velocity":0.3543307086614173,"duration":"0.02"},{"name":"E4","midi":64,"time":"419.78","velocity":0.2677165354330709,"duration":"0.03"},{"name":"D6","midi":86,"time":"419.78","velocity":0.28346456692913385,"duration":"0.10"},{"name":"F6","midi":89,"time":"419.78","velocity":0.11811023622047244,"duration":"0.06"},{"name":"G#6","midi":92,"time":"419.79","velocity":0.3464566929133858,"duration":"0.22"},{"name":"C#6","midi":85,"time":"419.80","velocity":0.25984251968503935,"duration":"0.03"},{"name":"D#6","midi":87,"time":"419.80","velocity":0.13385826771653545,"duration":"0.05"},{"name":"G6","midi":91,"time":"419.80","velocity":0.25984251968503935,"duration":"0.17"},{"name":"A4","midi":69,"time":"419.81","velocity":0.4645669291338583,"duration":"0.05"},{"name":"F#3","midi":54,"time":"419.83","velocity":0.36220472440944884,"duration":"0.06"},{"name":"E4","midi":64,"time":"419.83","velocity":0.4645669291338583,"duration":"0.15"},{"name":"C7","midi":96,"time":"419.83","velocity":0.2204724409448819,"duration":"0.12"},{"name":"C#5","midi":73,"time":"419.85","velocity":0.2440944881889764,"duration":"0.07"},{"name":"B2","midi":47,"time":"419.86","velocity":0.5354330708661418,"duration":"0.06"},{"name":"G#4","midi":68,"time":"419.86","velocity":0.3700787401574803,"duration":"0.02"},{"name":"B4","midi":71,"time":"419.86","velocity":0.2992125984251969,"duration":"0.03"},{"name":"C#6","midi":85,"time":"419.86","velocity":0.28346456692913385,"duration":"0.20"},{"name":"F7","midi":101,"time":"419.86","velocity":0.2204724409448819,"duration":"0.59"},{"name":"A4","midi":69,"time":"419.88","velocity":0.4409448818897638,"duration":"0.05"},{"name":"A#6","midi":94,"time":"419.90","velocity":0.2440944881889764,"duration":"0.36"},{"name":"D#6","midi":87,"time":"419.91","velocity":0.09448818897637795,"duration":"0.03"},{"name":"A2","midi":45,"time":"419.92","velocity":0.5354330708661418,"duration":"0.02"},{"name":"C4","midi":60,"time":"419.92","velocity":0.4566929133858268,"duration":"0.02"},{"name":"D6","midi":86,"time":"419.92","velocity":0.2204724409448819,"duration":"0.06"},{"name":"B2","midi":47,"time":"419.94","velocity":0.44881889763779526,"duration":"0.02"},{"name":"A4","midi":69,"time":"419.94","velocity":0.5275590551181102,"duration":"0.03"},{"name":"B4","midi":71,"time":"419.94","velocity":0.44881889763779526,"duration":"0.02"},{"name":"F6","midi":89,"time":"419.94","velocity":0.28346456692913385,"duration":"0.12"},{"name":"C7","midi":96,"time":"419.95","velocity":0.36220472440944884,"duration":"2.14"},{"name":"A2","midi":45,"time":"419.97","velocity":0.4330708661417323,"duration":"0.02"},{"name":"D5","midi":74,"time":"419.97","velocity":0.30708661417322836,"duration":"0.05"},{"name":"E3","midi":52,"time":"419.98","velocity":0.44881889763779526,"duration":"0.02"},{"name":"B4","midi":71,"time":"419.98","velocity":0.31496062992125984,"duration":"0.05"},{"name":"G#5","midi":80,"time":"419.98","velocity":0.3543307086614173,"duration":"0.02"},{"name":"D#6","midi":87,"time":"419.98","velocity":0.4330708661417323,"duration":"0.09"},{"name":"A#2","midi":46,"time":"419.99","velocity":0.5118110236220472,"duration":"0.01"},{"name":"G#4","midi":68,"time":"419.99","velocity":0.5826771653543307,"duration":"0.42"},{"name":"D#5","midi":75,"time":"419.99","velocity":0.30708661417322836,"duration":"0.07"},{"name":"G6","midi":91,"time":"419.99","velocity":0.29133858267716534,"duration":"0.17"},{"name":"A2","midi":45,"time":"420.00","velocity":0.5433070866141733,"duration":"0.01"},{"name":"B5","midi":83,"time":"420.00","velocity":0.3937007874015748,"duration":"0.30"},{"name":"A#3","midi":58,"time":"420.01","velocity":0.48031496062992124,"duration":"0.02"},{"name":"C#5","midi":73,"time":"420.01","velocity":0.28346456692913385,"duration":"0.03"},{"name":"F#5","midi":78,"time":"420.01","velocity":0.2677165354330709,"duration":"0.03"},{"name":"D6","midi":86,"time":"420.02","velocity":0.29133858267716534,"duration":"0.08"},{"name":"A2","midi":45,"time":"420.03","velocity":0.5275590551181102,"duration":"0.01"},{"name":"E5","midi":76,"time":"420.03","velocity":0.3543307086614173,"duration":"0.16"},{"name":"A5","midi":81,"time":"420.03","velocity":0.30708661417322836,"duration":"0.02"},{"name":"G#2","midi":44,"time":"420.05","velocity":0.5118110236220472,"duration":"0.01"},{"name":"C#4","midi":61,"time":"420.05","velocity":0.2992125984251969,"duration":"0.03"},{"name":"B4","midi":71,"time":"420.05","velocity":0.3779527559055118,"duration":"0.21"},{"name":"A3","midi":57,"time":"420.06","velocity":0.3937007874015748,"duration":"0.03"},{"name":"F#4","midi":66,"time":"420.06","velocity":0.25984251968503935,"duration":"0.02"},{"name":"F#5","midi":78,"time":"420.06","velocity":0.3228346456692913,"duration":"0.03"},{"name":"C#6","midi":85,"time":"420.07","velocity":0.2677165354330709,"duration":"0.09"},{"name":"D#6","midi":87,"time":"420.08","velocity":0.4881889763779528,"duration":"1.02"},{"name":"F6","midi":89,"time":"420.08","velocity":0.1889763779527559,"duration":"0.03"},{"name":"E3","midi":52,"time":"420.09","velocity":0.3543307086614173,"duration":"0.03"},{"name":"D5","midi":74,"time":"420.09","velocity":0.2047244094488189,"duration":"0.03"},{"name":"A5","midi":81,"time":"420.09","velocity":0.29133858267716534,"duration":"0.05"},{"name":"G#2","midi":44,"time":"420.12","velocity":0.47244094488188976,"duration":"0.02"},{"name":"A3","midi":57,"time":"420.12","velocity":0.5118110236220472,"duration":"0.03"},{"name":"F#5","midi":78,"time":"420.12","velocity":0.25196850393700787,"duration":"0.08"},{"name":"D6","midi":86,"time":"420.12","velocity":0.2677165354330709,"duration":"0.15"},{"name":"D#5","midi":75,"time":"420.13","velocity":0.2283464566929134,"duration":"0.02"},{"name":"D#3","midi":51,"time":"420.14","velocity":0.3543307086614173,"duration":"0.02"},{"name":"G#2","midi":44,"time":"420.15","velocity":0.4409448818897638,"duration":"0.02"},{"name":"A#3","midi":58,"time":"420.15","velocity":0.4015748031496063,"duration":"0.02"},{"name":"A3","midi":57,"time":"420.17","velocity":0.47244094488188976,"duration":"0.06"},{"name":"G6","midi":91,"time":"420.17","velocity":0.2047244094488189,"duration":"0.21"},{"name":"D#5","midi":75,"time":"420.19","velocity":0.3937007874015748,"duration":"0.16"},{"name":"A5","midi":81,"time":"420.19","velocity":0.3543307086614173,"duration":"0.02"},{"name":"C#6","midi":85,"time":"420.19","velocity":0.2283464566929134,"duration":"0.09"},{"name":"E7","midi":100,"time":"420.19","velocity":0.33070866141732286,"duration":"0.58"},{"name":"B2","midi":47,"time":"420.20","velocity":0.4409448818897638,"duration":"0.02"},{"name":"F#5","midi":78,"time":"420.21","velocity":0.4251968503937008,"duration":"0.17"},{"name":"E3","midi":52,"time":"420.23","velocity":0.4094488188976378,"duration":"0.03"},{"name":"E6","midi":88,"time":"420.23","velocity":0.3543307086614173,"duration":"0.12"},{"name":"D4","midi":62,"time":"420.26","velocity":0.33070866141732286,"duration":"0.03"},{"name":"A3","midi":57,"time":"420.27","velocity":0.33858267716535434,"duration":"0.02"},{"name":"E4","midi":64,"time":"420.28","velocity":0.29133858267716534,"duration":"0.06"},{"name":"D6","midi":86,"time":"420.28","velocity":0.2204724409448819,"duration":"0.03"},{"name":"A#6","midi":94,"time":"420.28","velocity":0.28346456692913385,"duration":"1.38"},{"name":"F1","midi":29,"time":"420.29","velocity":0.23622047244094488,"duration":"0.02"},{"name":"C#6","midi":85,"time":"420.29","velocity":0.2047244094488189,"duration":"0.14"},{"name":"C4","midi":60,"time":"420.30","velocity":0.3464566929133858,"duration":"0.02"},{"name":"B4","midi":71,"time":"420.30","velocity":0.23622047244094488,"duration":"0.02"},{"name":"A5","midi":81,"time":"420.30","velocity":0.3228346456692913,"duration":"0.02"},{"name":"G3","midi":55,"time":"420.31","velocity":0.36220472440944884,"duration":"0.03"},{"name":"E5","midi":76,"time":"420.33","velocity":0.3700787401574803,"duration":"0.05"},{"name":"D6","midi":86,"time":"420.33","velocity":0.1732283464566929,"duration":"0.03"},{"name":"B2","midi":47,"time":"420.34","velocity":0.48031496062992124,"duration":"0.05"},{"name":"B5","midi":83,"time":"420.34","velocity":0.3228346456692913,"duration":"0.36"},{"name":"E4","midi":64,"time":"420.36","velocity":0.1889763779527559,"duration":"0.03"},{"name":"F#3","midi":54,"time":"420.37","velocity":0.4409448818897638,"duration":"0.02"},{"name":"E5","midi":76,"time":"420.38","velocity":0.2677165354330709,"duration":"0.03"},{"name":"G5","midi":79,"time":"420.38","velocity":0.2440944881889764,"duration":"0.02"},{"name":"G7","midi":103,"time":"420.38","velocity":0.2047244094488189,"duration":"0.22"},{"name":"B2","midi":47,"time":"420.40","velocity":0.5196850393700787,"duration":"0.19"},{"name":"C#5","midi":73,"time":"420.40","velocity":0.15748031496062992,"duration":"0.03"},{"name":"A5","midi":81,"time":"420.40","velocity":0.3543307086614173,"duration":"0.02"},{"name":"D6","midi":86,"time":"420.40","velocity":0.25196850393700787,"duration":"0.12"},{"name":"F#3","midi":54,"time":"420.41","velocity":0.47244094488188976,"duration":"0.08"},{"name":"E4","midi":64,"time":"420.41","velocity":0.30708661417322836,"duration":"0.05"},{"name":"F#5","midi":78,"time":"420.41","velocity":0.2755905511811024,"duration":"0.02"},{"name":"G#4","midi":68,"time":"420.42","velocity":0.44881889763779526,"duration":"0.05"},{"name":"G5","midi":79,"time":"420.42","velocity":0.31496062992125984,"duration":"0.08"},{"name":"E6","midi":88,"time":"420.42","velocity":0.4566929133858268,"duration":"0.57"},{"name":"A5","midi":81,"time":"420.43","velocity":0.5905511811023622,"duration":"0.29"},{"name":"E5","midi":76,"time":"420.44","velocity":0.3700787401574803,"duration":"0.20"},{"name":"C#6","midi":85,"time":"420.44","velocity":0.18110236220472442,"duration":"0.03"},{"name":"B1","midi":35,"time":"420.45","velocity":0.33070866141732286,"duration":"0.02"},{"name":"E4","midi":64,"time":"420.47","velocity":0.3464566929133858,"duration":"0.05"},{"name":"G#4","midi":68,"time":"420.48","velocity":0.5039370078740157,"duration":"0.10"},{"name":"F7","midi":101,"time":"420.48","velocity":0.1968503937007874,"duration":"0.30"},{"name":"B4","midi":71,"time":"420.49","velocity":0.1968503937007874,"duration":"0.05"},{"name":"F#5","midi":78,"time":"420.50","velocity":0.2755905511811024,"duration":"0.05"},{"name":"F#3","midi":54,"time":"420.51","velocity":0.4251968503937008,"duration":"0.02"},{"name":"C#5","midi":73,"time":"420.51","velocity":0.23622047244094488,"duration":"0.03"},{"name":"C#4","midi":61,"time":"420.52","velocity":0.25984251968503935,"duration":"0.02"},{"name":"C#6","midi":85,"time":"420.52","velocity":0.30708661417322836,"duration":"0.08"},{"name":"F3","midi":53,"time":"420.53","velocity":0.4251968503937008,"duration":"0.02"},{"name":"E4","midi":64,"time":"420.53","velocity":0.2992125984251969,"duration":"0.03"},{"name":"C5","midi":72,"time":"420.55","velocity":0.2283464566929134,"duration":"0.02"},{"name":"F#3","midi":54,"time":"420.56","velocity":0.36220472440944884,"duration":"0.02"},{"name":"D4","midi":62,"time":"420.57","velocity":0.3228346456692913,"duration":"0.02"},{"name":"B4","midi":71,"time":"420.57","velocity":0.25984251968503935,"duration":"0.06"},{"name":"D6","midi":86,"time":"420.57","velocity":0.36220472440944884,"duration":"0.12"},{"name":"A4","midi":69,"time":"420.58","velocity":0.4094488188976378,"duration":"0.03"},{"name":"D#5","midi":75,"time":"420.58","velocity":0.2677165354330709,"duration":"0.02"},{"name":"G6","midi":91,"time":"420.58","velocity":0.1889763779527559,"duration":"0.15"},{"name":"F#4","midi":66,"time":"420.59","velocity":0.30708661417322836,"duration":"0.02"},{"name":"C#5","midi":73,"time":"420.59","velocity":0.30708661417322836,"duration":"0.07"},{"name":"B3","midi":59,"time":"420.60","velocity":0.3543307086614173,"duration":"0.05"},{"name":"G3","midi":55,"time":"420.62","velocity":0.33070866141732286,"duration":"0.02"},{"name":"G#5","midi":80,"time":"420.62","velocity":0.5748031496062992,"duration":"0.53"},{"name":"G7","midi":103,"time":"420.62","velocity":0.1968503937007874,"duration":"0.15"},{"name":"G4","midi":67,"time":"420.63","velocity":0.4251968503937008,"duration":"0.03"},{"name":"C3","midi":48,"time":"420.64","velocity":0.4881889763779528,"duration":"0.02"},{"name":"D4","midi":62,"time":"420.64","velocity":0.30708661417322836,"duration":"0.03"},{"name":"D#5","midi":75,"time":"420.64","velocity":0.3858267716535433,"duration":"0.08"},{"name":"F#6","midi":90,"time":"420.65","velocity":0.2992125984251969,"duration":"0.08"},{"name":"B2","midi":47,"time":"420.66","velocity":0.4566929133858268,"duration":"0.02"},{"name":"G#4","midi":68,"time":"420.66","velocity":0.48031496062992124,"duration":"0.05"},{"name":"C4","midi":60,"time":"420.67","velocity":0.2677165354330709,"duration":"0.02"},{"name":"B4","midi":71,"time":"420.67","velocity":0.30708661417322836,"duration":"0.03"},{"name":"F#5","midi":78,"time":"420.67","velocity":0.28346456692913385,"duration":"0.13"},{"name":"F6","midi":89,"time":"420.67","velocity":0.15748031496062992,"duration":"0.07"},{"name":"E4","midi":64,"time":"420.69","velocity":0.29133858267716534,"duration":"0.02"},{"name":"C#6","midi":85,"time":"420.69","velocity":0.2283464566929134,"duration":"0.07"},{"name":"E2","midi":40,"time":"420.70","velocity":0.5590551181102362,"duration":"0.01"},{"name":"C#3","midi":49,"time":"420.70","velocity":0.5196850393700787,"duration":"0.01"},{"name":"F2","midi":41,"time":"420.71","velocity":0.6456692913385826,"duration":"0.01"},{"name":"F4","midi":65,"time":"420.71","velocity":0.25984251968503935,"duration":"0.02"},{"name":"B5","midi":83,"time":"420.71","velocity":0.3464566929133858,"duration":"1.30"},{"name":"G#2","midi":44,"time":"420.72","velocity":0.5905511811023622,"duration":"0.01"},{"name":"G#4","midi":68,"time":"420.72","velocity":0.6062992125984252,"duration":"0.30"},{"name":"E5","midi":76,"time":"420.72","velocity":0.33858267716535434,"duration":"0.05"},{"name":"A#5","midi":82,"time":"420.72","velocity":0.2677165354330709,"duration":"0.03"},{"name":"G#3","midi":56,"time":"420.73","velocity":0.3858267716535433,"duration":"0.06"},{"name":"C#4","midi":61,"time":"420.73","velocity":0.33070866141732286,"duration":"0.05"},{"name":"B4","midi":71,"time":"420.73","velocity":0.3779527559055118,"duration":"0.13"},{"name":"C6","midi":84,"time":"420.73","velocity":0.11023622047244094,"duration":"0.03"},{"name":"F#1","midi":30,"time":"420.74","velocity":0.5433070866141733,"duration":"0.02"},{"name":"D#5","midi":75,"time":"420.74","velocity":0.30708661417322836,"duration":"0.05"},{"name":"D6","midi":86,"time":"420.74","velocity":0.28346456692913385,"duration":"0.13"},{"name":"C#3","midi":49,"time":"420.76","velocity":0.5354330708661418,"duration":"0.05"},{"name":"A5","midi":81,"time":"420.76","velocity":0.2755905511811024,"duration":"0.05"},{"name":"E4","midi":64,"time":"420.77","velocity":0.33070866141732286,"duration":"0.05"},{"name":"F6","midi":89,"time":"420.77","velocity":0.14173228346456693,"duration":"0.07"},{"name":"G6","midi":91,"time":"420.78","velocity":0.18110236220472442,"duration":"0.07"},{"name":"C#6","midi":85,"time":"420.79","velocity":0.25196850393700787,"duration":"0.05"},{"name":"F7","midi":101,"time":"420.79","velocity":0.18110236220472442,"duration":"0.20"},{"name":"C3","midi":48,"time":"420.80","velocity":0.5354330708661418,"duration":"0.01"},{"name":"G#3","midi":56,"time":"420.80","velocity":0.3937007874015748,"duration":"0.06"},{"name":"F5","midi":77,"time":"420.80","velocity":0.2992125984251969,"duration":"0.05"},{"name":"C6","midi":84,"time":"420.80","velocity":0.18110236220472442,"duration":"0.07"},{"name":"C#3","midi":49,"time":"420.81","velocity":0.5275590551181102,"duration":"0.03"},{"name":"A5","midi":81,"time":"420.81","velocity":0.4015748031496063,"duration":"0.08"},{"name":"E4","midi":64,"time":"420.83","velocity":0.2992125984251969,"duration":"0.05"},{"name":"C#5","midi":73,"time":"420.83","velocity":0.18110236220472442,"duration":"0.06"},{"name":"F#5","midi":78,"time":"420.83","velocity":0.2677165354330709,"duration":"0.16"},{"name":"C#3","midi":49,"time":"420.86","velocity":0.5118110236220472,"duration":"0.01"},{"name":"C#6","midi":85,"time":"420.86","velocity":0.2204724409448819,"duration":"0.14"},{"name":"G#3","midi":56,"time":"420.87","velocity":0.4094488188976378,"duration":"0.07"},{"name":"C#3","midi":49,"time":"420.88","velocity":0.5196850393700787,"duration":"0.03"},{"name":"D#5","midi":75,"time":"420.88","velocity":0.23622047244094488,"duration":"0.08"},{"name":"G6","midi":91,"time":"420.88","velocity":0.16535433070866143,"duration":"0.21"},{"name":"B4","midi":71,"time":"420.90","velocity":0.2755905511811024,"duration":"0.06"},{"name":"F1","midi":29,"time":"420.92","velocity":0.33858267716535434,"duration":"0.02"},{"name":"C#3","midi":49,"time":"420.93","velocity":0.5118110236220472,"duration":"0.05"},{"name":"G#3","midi":56,"time":"420.95","velocity":0.3937007874015748,"duration":"0.08"},{"name":"D1","midi":26,"time":"420.97","velocity":0.3228346456692913,"duration":"0.02"},{"name":"C3","midi":48,"time":"420.98","velocity":0.5275590551181102,"duration":"0.01"},{"name":"E4","midi":64,"time":"420.98","velocity":0.25196850393700787,"duration":"0.10"},{"name":"D#5","midi":75,"time":"420.98","velocity":0.29133858267716534,"duration":"0.10"},{"name":"C#3","midi":49,"time":"420.99","velocity":0.5433070866141733,"duration":"0.05"},{"name":"B4","midi":71,"time":"421.00","velocity":0.30708661417322836,"duration":"0.03"},{"name":"E6","midi":88,"time":"421.00","velocity":0.1968503937007874,"duration":"0.08"},{"name":"C#6","midi":85,"time":"421.02","velocity":0.2677165354330709,"duration":"0.09"},{"name":"D6","midi":86,"time":"421.02","velocity":0.2047244094488189,"duration":"0.03"},{"name":"F7","midi":101,"time":"421.02","velocity":0.2204724409448819,"duration":"0.37"},{"name":"C3","midi":48,"time":"421.03","velocity":0.5275590551181102,"duration":"0.01"},{"name":"G7","midi":103,"time":"421.03","velocity":0.18110236220472442,"duration":"0.17"},{"name":"C#3","midi":49,"time":"421.05","velocity":0.47244094488188976,"duration":"0.02"},{"name":"G#4","midi":68,"time":"421.05","velocity":0.49606299212598426,"duration":"0.06"},{"name":"A5","midi":81,"time":"421.05","velocity":0.4645669291338583,"duration":"0.08"},{"name":"C6","midi":84,"time":"421.06","velocity":0.15748031496062992,"duration":"0.03"},{"name":"C#5","midi":73,"time":"421.07","velocity":0.2677165354330709,"duration":"0.19"},{"name":"F#5","midi":78,"time":"421.07","velocity":0.33858267716535434,"duration":"0.40"},{"name":"D6","midi":86,"time":"421.08","velocity":0.23622047244094488,"duration":"0.15"},{"name":"G#3","midi":56,"time":"421.09","velocity":0.49606299212598426,"duration":"0.20"},{"name":"D#5","midi":75,"time":"421.09","velocity":0.30708661417322836,"duration":"0.03"},{"name":"B2","midi":47,"time":"421.10","velocity":0.5275590551181102,"duration":"0.01"},{"name":"C6","midi":84,"time":"421.10","velocity":0.1889763779527559,"duration":"0.05"},{"name":"G6","midi":91,"time":"421.10","velocity":0.2125984251968504,"duration":"0.06"},{"name":"C#3","midi":49,"time":"421.12","velocity":0.4330708661417323,"duration":"0.02"},{"name":"A#4","midi":70,"time":"421.12","velocity":0.2755905511811024,"duration":"0.02"},{"name":"D#6","midi":87,"time":"421.12","velocity":0.3779527559055118,"duration":"0.20"},{"name":"E6","midi":88,"time":"421.12","velocity":0.4881889763779528,"duration":"0.36"},{"name":"F6","midi":89,"time":"421.13","velocity":0.11023622047244094,"duration":"0.03"},{"name":"A5","midi":81,"time":"421.14","velocity":0.48031496062992124,"duration":"0.17"},{"name":"E4","midi":64,"time":"421.15","velocity":0.3543307086614173,"duration":"0.03"},{"name":"G4","midi":67,"time":"421.15","velocity":0.3779527559055118,"duration":"0.02"},{"name":"B4","midi":71,"time":"421.16","velocity":0.3779527559055118,"duration":"0.13"},{"name":"C6","midi":84,"time":"421.17","velocity":0.16535433070866143,"duration":"0.07"},{"name":"C#6","midi":85,"time":"421.19","velocity":0.36220472440944884,"duration":"0.38"},{"name":"G6","midi":91,"time":"421.19","velocity":0.11811023622047244,"duration":"0.09"},{"name":"C3","midi":48,"time":"421.20","velocity":0.5118110236220472,"duration":"0.01"},{"name":"C#3","midi":49,"time":"421.21","velocity":0.5275590551181102,"duration":"0.03"},{"name":"E4","midi":64,"time":"421.21","velocity":0.3700787401574803,"duration":"0.03"},{"name":"D#5","midi":75,"time":"421.21","velocity":0.30708661417322836,"duration":"0.07"},{"name":"F6","midi":89,"time":"421.21","velocity":0.10236220472440945,"duration":"0.07"},{"name":"E1","midi":28,"time":"421.23","velocity":0.33858267716535434,"duration":"0.02"},{"name":"D3","midi":50,"time":"421.24","velocity":0.5196850393700787,"duration":"0.01"},{"name":"F5","midi":77,"time":"421.24","velocity":0.1889763779527559,"duration":"0.03"},{"name":"D6","midi":86,"time":"421.24","velocity":0.18110236220472442,"duration":"0.05"},{"name":"C3","midi":48,"time":"421.26","velocity":0.5511811023622047,"duration":"0.01"},{"name":"E4","midi":64,"time":"421.26","velocity":0.4015748031496063,"duration":"0.19"},{"name":"C#3","midi":49,"time":"421.27","velocity":0.5590551181102362,"duration":"0.08"},{"name":"A4","midi":69,"time":"421.28","velocity":0.33070866141732286,"duration":"0.05"},{"name":"G#5","midi":80,"time":"421.28","velocity":0.5196850393700787,"duration":"0.43"},{"name":"G7","midi":103,"time":"421.28","velocity":0.14173228346456693,"duration":"0.05"},{"name":"D#5","midi":75,"time":"421.29","velocity":0.2755905511811024,"duration":"0.15"},{"name":"C6","midi":84,"time":"421.29","velocity":0.1968503937007874,"duration":"0.12"},{"name":"G6","midi":91,"time":"421.29","velocity":0.15748031496062992,"duration":"0.07"},{"name":"G#3","midi":56,"time":"421.30","velocity":0.3937007874015748,"duration":"0.08"},{"name":"G4","midi":67,"time":"421.31","velocity":0.3464566929133858,"duration":"0.02"},{"name":"F5","midi":77,"time":"421.31","velocity":0.2047244094488189,"duration":"0.03"},{"name":"D#6","midi":87,"time":"421.33","velocity":0.4251968503937008,"duration":"0.66"},{"name":"G#4","midi":68,"time":"421.34","velocity":0.5354330708661418,"duration":"0.08"},{"name":"B4","midi":71,"time":"421.34","velocity":0.3228346456692913,"duration":"0.13"},{"name":"C3","midi":48,"time":"421.35","velocity":0.5354330708661418,"duration":"0.01"},{"name":"A5","midi":81,"time":"421.35","velocity":0.5748031496062992,"duration":"0.12"},{"name":"C#3","midi":49,"time":"421.36","velocity":0.5433070866141733,"duration":"0.05"},{"name":"G7","midi":103,"time":"421.36","velocity":0.10236220472440945,"duration":"0.06"},{"name":"D1","midi":26,"time":"421.37","velocity":0.2755905511811024,"duration":"0.02"},{"name":"G#3","midi":56,"time":"421.40","velocity":0.4015748031496063,"duration":"0.05"},{"name":"D7","midi":98,"time":"421.40","velocity":0.28346456692913385,"duration":"0.42"},{"name":"C3","midi":48,"time":"421.41","velocity":0.5275590551181102,"duration":"0.01"},{"name":"F7","midi":101,"time":"421.41","velocity":0.18110236220472442,"duration":"0.15"},{"name":"C3","midi":48,"time":"421.43","velocity":0.5196850393700787,"duration":"0.01"},{"name":"C#4","midi":61,"time":"421.43","velocity":0.44881889763779526,"duration":"0.02"},{"name":"G#4","midi":68,"time":"421.43","velocity":0.5511811023622047,"duration":"0.14"},{"name":"E5","midi":76,"time":"421.43","velocity":0.41732283464566927,"duration":"0.05"},{"name":"F6","midi":89,"time":"421.43","velocity":0.2125984251968504,"duration":"0.09"},{"name":"G6","midi":91,"time":"421.44","velocity":0.2440944881889764,"duration":"0.03"},{"name":"C4","midi":60,"time":"421.45","velocity":0.4330708661417323,"duration":"0.05"},{"name":"F4","midi":65,"time":"421.45","velocity":0.4251968503937008,"duration":"0.02"},{"name":"D6","midi":86,"time":"421.45","velocity":0.28346456692913385,"duration":"0.03"},{"name":"D3","midi":50,"time":"421.47","velocity":0.5118110236220472,"duration":"0.02"},{"name":"E4","midi":64,"time":"421.48","velocity":0.41732283464566927,"duration":"0.35"},{"name":"D#5","midi":75,"time":"421.48","velocity":0.33858267716535434,"duration":"0.03"},{"name":"F#5","midi":78,"time":"421.48","velocity":0.3464566929133858,"duration":"0.03"},{"name":"A#1","midi":34,"time":"421.49","velocity":0.3779527559055118,"duration":"0.02"},{"name":"C3","midi":48,"time":"421.49","velocity":0.4881889763779528,"duration":"0.02"},{"name":"G6","midi":91,"time":"421.49","velocity":0.2440944881889764,"duration":"0.19"},{"name":"B4","midi":71,"time":"421.50","velocity":0.3543307086614173,"duration":"0.13"},{"name":"A5","midi":81,"time":"421.50","velocity":0.2992125984251969,"duration":"0.03"},{"name":"F5","midi":77,"time":"421.51","velocity":0.30708661417322836,"duration":"0.08"},{"name":"D#2","midi":39,"time":"421.52","velocity":0.30708661417322836,"duration":"0.02"},{"name":"C3","midi":48,"time":"421.52","velocity":0.5275590551181102,"duration":"0.01"},{"name":"C#3","midi":49,"time":"421.53","velocity":0.48031496062992124,"duration":"0.02"},{"name":"C6","midi":84,"time":"421.55","velocity":0.2204724409448819,"duration":"0.14"},{"name":"D6","midi":86,"time":"421.55","velocity":0.3228346456692913,"duration":"0.15"},{"name":"F#6","midi":90,"time":"421.55","velocity":0.2440944881889764,"duration":"0.59"},{"name":"A4","midi":69,"time":"421.56","velocity":0.4251968503937008,"duration":"0.02"},{"name":"C#5","midi":73,"time":"421.56","velocity":0.23622047244094488,"duration":"0.03"},{"name":"C#3","midi":49,"time":"421.57","velocity":0.5118110236220472,"duration":"0.05"},{"name":"A3","midi":57,"time":"421.57","velocity":0.2677165354330709,"duration":"0.03"},{"name":"E6","midi":88,"time":"421.57","velocity":0.1968503937007874,"duration":"0.07"},{"name":"G#4","midi":68,"time":"421.58","velocity":0.5433070866141733,"duration":"0.14"},{"name":"F7","midi":101,"time":"421.58","velocity":0.2047244094488189,"duration":"0.37"},{"name":"A#3","midi":58,"time":"421.60","velocity":0.4094488188976378,"duration":"0.03"},{"name":"F#5","midi":78,"time":"421.60","velocity":0.25984251968503935,"duration":"0.09"},{"name":"C3","midi":48,"time":"421.62","velocity":0.5118110236220472,"duration":"0.01"},{"name":"C#6","midi":85,"time":"421.62","velocity":0.3228346456692913,"duration":"0.03"},{"name":"B0","midi":23,"time":"421.63","velocity":0.30708661417322836,"duration":"0.02"},{"name":"C#3","midi":49,"time":"421.63","velocity":0.5433070866141733,"duration":"0.05"},{"name":"A5","midi":81,"time":"421.63","velocity":0.18110236220472442,"duration":"0.03"},{"name":"D#5","midi":75,"time":"421.64","velocity":0.2677165354330709,"duration":"0.05"},{"name":"A6","midi":93,"time":"421.64","velocity":0.2440944881889764,"duration":"0.08"},{"name":"G#3","midi":56,"time":"421.65","velocity":0.33070866141732286,"duration":"0.05"},{"name":"C#5","midi":73,"time":"421.65","velocity":0.2992125984251969,"duration":"0.05"},{"name":"C3","midi":48,"time":"421.67","velocity":0.5590551181102362,"duration":"0.01"},{"name":"C#3","midi":49,"time":"421.69","velocity":0.5748031496062992,"duration":"0.09"},{"name":"C#6","midi":85,"time":"421.69","velocity":0.31496062992125984,"duration":"0.09"},{"name":"A#6","midi":94,"time":"421.69","velocity":0.23622047244094488,"duration":"0.23"},{"name":"B4","midi":71,"time":"421.70","velocity":0.2677165354330709,"duration":"0.10"},{"name":"A5","midi":81,"time":"421.70","velocity":0.3700787401574803,"duration":"0.03"},{"name":"F#7","midi":102,"time":"421.70","velocity":0.33070866141732286,"duration":"1.38"},{"name":"G#3","midi":56,"time":"421.72","velocity":0.3543307086614173,"duration":"0.02"},{"name":"G#5","midi":80,"time":"421.72","velocity":0.5590551181102362,"duration":"0.91"},{"name":"G#4","midi":68,"time":"421.73","velocity":0.5984251968503937,"duration":"0.16"},{"name":"D#5","midi":75,"time":"421.73","velocity":0.2204724409448819,"duration":"0.03"},{"name":"D6","midi":86,"time":"421.73","velocity":0.16535433070866143,"duration":"0.07"},{"name":"A6","midi":93,"time":"421.73","velocity":0.14960629921259844,"duration":"0.07"},{"name":"C6","midi":84,"time":"421.74","velocity":0.2440944881889764,"duration":"0.03"},{"name":"D#1","midi":27,"time":"421.77","velocity":0.2755905511811024,"duration":"0.02"},{"name":"G#3","midi":56,"time":"421.77","velocity":0.41732283464566927,"duration":"0.03"},{"name":"F#5","midi":78,"time":"421.77","velocity":0.2047244094488189,"duration":"0.03"},{"name":"F6","midi":89,"time":"421.77","velocity":0.09448818897637795,"duration":"0.06"},{"name":"D3","midi":50,"time":"421.78","velocity":0.5354330708661418,"duration":"0.01"},{"name":"C#3","midi":49,"time":"421.79","velocity":0.5669291338582677,"duration":"0.02"},{"name":"C#6","midi":85,"time":"421.79","velocity":0.30708661417322836,"duration":"0.24"},{"name":"D#5","midi":75,"time":"421.80","velocity":0.2755905511811024,"duration":"0.03"},{"name":"D3","midi":50,"time":"421.81","velocity":0.5669291338582677,"duration":"0.03"},{"name":"F#5","midi":78,"time":"421.81","velocity":0.23622047244094488,"duration":"0.02"},{"name":"G6","midi":91,"time":"421.81","velocity":0.2047244094488189,"duration":"0.23"},{"name":"F2","midi":41,"time":"421.83","velocity":0.5590551181102362,"duration":"0.02"},{"name":"C#4","midi":61,"time":"421.84","velocity":0.3464566929133858,"duration":"0.20"},{"name":"D7","midi":98,"time":"421.84","velocity":0.30708661417322836,"duration":"0.70"},{"name":"D#3","midi":51,"time":"421.85","velocity":0.5433070866141733,"duration":"0.01"},{"name":"E4","midi":64,"time":"421.85","velocity":0.3858267716535433,"duration":"0.34"},{"name":"F#5","midi":78,"time":"421.85","velocity":0.2125984251968504,"duration":"0.05"},{"name":"C3","midi":48,"time":"421.86","velocity":0.5590551181102362,"duration":"0.01"},{"name":"A6","midi":93,"time":"421.86","velocity":0.14960629921259844,"duration":"0.15"},{"name":"C#3","midi":49,"time":"421.87","velocity":0.5039370078740157,"duration":"0.06"},{"name":"F1","midi":29,"time":"421.88","velocity":0.5354330708661418,"duration":"0.01"},{"name":"G3","midi":55,"time":"421.88","velocity":0.33070866141732286,"duration":"0.02"},{"name":"B4","midi":71,"time":"421.88","velocity":0.3228346456692913,"duration":"0.19"},{"name":"C2","midi":36,"time":"421.90","velocity":0.5275590551181102,"duration":"0.02"},{"name":"G#3","midi":56,"time":"421.91","velocity":0.3700787401574803,"duration":"0.05"},{"name":"G#4","midi":68,"time":"421.91","velocity":0.4330708661417323,"duration":"0.03"},{"name":"F#5","midi":78,"time":"421.91","velocity":0.25984251968503935,"duration":"0.03"},{"name":"F6","midi":89,"time":"421.92","velocity":0.08661417322834646,"duration":"0.03"},{"name":"C3","midi":48,"time":"421.93","velocity":0.5511811023622047,"duration":"0.01"},{"name":"C6","midi":84,"time":"421.93","velocity":0.2125984251968504,"duration":"0.03"},{"name":"D6","midi":86,"time":"421.93","velocity":0.2283464566929134,"duration":"0.05"},{"name":"A#6","midi":94,"time":"421.93","velocity":0.25196850393700787,"duration":"0.12"},{"name":"C#3","midi":49,"time":"421.94","velocity":0.5275590551181102,"duration":"0.05"},{"name":"A4","midi":69,"time":"421.94","velocity":0.4015748031496063,"duration":"0.02"},{"name":"F#5","midi":78,"time":"421.95","velocity":0.2755905511811024,"duration":"0.08"},{"name":"G#3","midi":56,"time":"421.97","velocity":0.3937007874015748,"duration":"0.12"},{"name":"G#4","midi":68,"time":"421.97","velocity":0.5354330708661418,"duration":"0.06"},{"name":"F7","midi":101,"time":"421.97","velocity":0.13385826771653545,"duration":"0.03"},{"name":"C6","midi":84,"time":"421.98","velocity":0.18110236220472442,"duration":"0.06"},{"name":"C3","midi":48,"time":"421.99","velocity":0.5039370078740157,"duration":"0.02"},{"name":"D#6","midi":87,"time":"422.00","velocity":0.5118110236220472,"duration":"0.97"},{"name":"C#3","midi":49,"time":"422.01","velocity":0.49606299212598426,"duration":"0.02"},{"name":"D6","midi":86,"time":"422.01","velocity":0.28346456692913385,"duration":"0.10"},{"name":"G4","midi":67,"time":"422.02","velocity":0.3700787401574803,"duration":"0.02"},{"name":"F5","midi":77,"time":"422.03","velocity":0.2755905511811024,"duration":"0.07"},{"name":"G#4","midi":68,"time":"422.05","velocity":0.5354330708661418,"duration":"0.15"},{"name":"D#5","midi":75,"time":"422.05","velocity":0.29133858267716534,"duration":"0.07"},{"name":"A5","midi":81,"time":"422.06","velocity":0.2755905511811024,"duration":"0.02"},{"name":"F7","midi":101,"time":"422.06","velocity":0.2440944881889764,"duration":"0.44"},{"name":"A#6","midi":94,"time":"422.07","velocity":0.33070866141732286,"duration":"0.17"},{"name":"B4","midi":71,"time":"422.08","velocity":0.2440944881889764,"duration":"0.05"},{"name":"G6","midi":91,"time":"422.08","velocity":0.1889763779527559,"duration":"0.15"},{"name":"A6","midi":93,"time":"422.08","velocity":0.16535433070866143,"duration":"0.06"},{"name":"G#3","midi":56,"time":"422.09","velocity":0.44881889763779526,"duration":"0.08"},{"name":"F#5","midi":78,"time":"422.09","velocity":0.1732283464566929,"duration":"0.03"},{"name":"C#6","midi":85,"time":"422.09","velocity":0.33070866141732286,"duration":"0.16"},{"name":"C3","midi":48,"time":"422.10","velocity":0.44881889763779526,"duration":"0.02"},{"name":"C7","midi":96,"time":"422.10","velocity":0.3779527559055118,"duration":"1.86"},{"name":"C6","midi":84,"time":"422.12","velocity":0.13385826771653545,"duration":"0.03"},{"name":"D1","midi":26,"time":"422.14","velocity":0.25196850393700787,"duration":"0.02"},{"name":"C3","midi":48,"time":"422.14","velocity":0.4645669291338583,"duration":"0.02"},{"name":"F#5","midi":78,"time":"422.14","velocity":0.25196850393700787,"duration":"0.03"},{"name":"C#4","midi":61,"time":"422.15","velocity":0.36220472440944884,"duration":"0.03"},{"name":"D6","midi":86,"time":"422.16","velocity":0.2125984251968504,"duration":"0.06"},{"name":"A#5","midi":82,"time":"422.17","velocity":0.1732283464566929,"duration":"0.03"},{"name":"A1","midi":33,"time":"422.19","velocity":0.5196850393700787,"duration":"0.01"},{"name":"A#2","midi":46,"time":"422.19","velocity":0.5275590551181102,"duration":"0.01"},{"name":"D4","midi":62,"time":"422.19","velocity":0.3858267716535433,"duration":"0.02"},{"name":"D#5","midi":75,"time":"422.19","velocity":0.3700787401574803,"duration":"0.14"},{"name":"D#2","midi":39,"time":"422.20","velocity":0.5984251968503937,"duration":"0.01"},{"name":"G4","midi":67,"time":"422.20","velocity":0.3464566929133858,"duration":"0.02"},{"name":"B4","midi":71,"time":"422.20","velocity":0.2677165354330709,"duration":"0.07"},{"name":"F2","midi":41,"time":"422.21","velocity":0.6062992125984252,"duration":"0.01"},{"name":"C#3","midi":49,"time":"422.21","velocity":0.5433070866141733,"duration":"0.01"},{"name":"F#5","midi":78,"time":"422.21","velocity":0.31496062992125984,"duration":"0.22"},{"name":"D3","midi":50,"time":"422.22","velocity":0.5905511811023622,"duration":"0.01"},{"name":"E4","midi":64,"time":"422.22","velocity":0.4251968503937008,"duration":"0.36"},{"name":"G#4","midi":68,"time":"422.22","velocity":0.3700787401574803,"duration":"0.02"},{"name":"C#3","midi":49,"time":"422.23","velocity":0.5275590551181102,"duration":"0.02"},{"name":"G3","midi":55,"time":"422.23","velocity":0.41732283464566927,"duration":"0.02"},{"name":"D6","midi":86,"time":"422.23","velocity":0.2755905511811024,"duration":"0.09"},{"name":"D#1","midi":27,"time":"422.24","velocity":0.5433070866141733,"duration":"0.01"},{"name":"C6","midi":84,"time":"422.24","velocity":0.2283464566929134,"duration":"0.03"},{"name":"G6","midi":91,"time":"422.24","velocity":0.23622047244094488,"duration":"0.12"},{"name":"G#3","midi":56,"time":"422.26","velocity":0.2440944881889764,"duration":"0.02"},{"name":"A#5","midi":82,"time":"422.26","velocity":0.23622047244094488,"duration":"0.03"},{"name":"D2","midi":38,"time":"422.27","velocity":0.4015748031496063,"duration":"0.02"},{"name":"G#4","midi":68,"time":"422.27","velocity":0.5511811023622047,"duration":"0.21"},{"name":"B5","midi":83,"time":"422.27","velocity":0.31496062992125984,"duration":"0.22"},{"name":"A#6","midi":94,"time":"422.27","velocity":0.2440944881889764,"duration":"0.05"},{"name":"C#3","midi":49,"time":"422.28","velocity":0.47244094488188976,"duration":"0.02"},{"name":"B4","midi":71,"time":"422.28","velocity":0.41732283464566927,"duration":"0.19"},{"name":"A6","midi":93,"time":"422.29","velocity":0.1889763779527559,"duration":"0.05"},{"name":"F6","midi":89,"time":"422.30","velocity":0.11811023622047244,"duration":"0.06"},{"name":"C#3","midi":49,"time":"422.31","velocity":0.5196850393700787,"duration":"0.03"},{"name":"A3","midi":57,"time":"422.33","velocity":0.2992125984251969,"duration":"0.02"},{"name":"A#6","midi":94,"time":"422.33","velocity":0.28346456692913385,"duration":"0.22"},{"name":"D#5","midi":75,"time":"422.34","velocity":0.3543307086614173,"duration":"0.08"},{"name":"C3","midi":48,"time":"422.35","velocity":0.5354330708661418,"duration":"0.01"},{"name":"C#4","midi":61,"time":"422.35","velocity":0.3228346456692913,"duration":"0.13"},{"name":"A6","midi":93,"time":"422.35","velocity":0.13385826771653545,"duration":"0.06"},{"name":"C#3","midi":49,"time":"422.36","velocity":0.5905511811023622,"duration":"0.02"},{"name":"G#3","midi":56,"time":"422.36","velocity":0.3700787401574803,"duration":"0.05"},{"name":"C6","midi":84,"time":"422.36","velocity":0.18110236220472442,"duration":"0.05"},{"name":"G6","midi":91,"time":"422.37","velocity":0.15748031496062992,"duration":"0.03"},{"name":"C3","midi":48,"time":"422.38","velocity":0.6141732283464567,"duration":"0.01"},{"name":"G5","midi":79,"time":"422.38","velocity":0.29133858267716534,"duration":"0.02"},{"name":"D6","midi":86,"time":"422.38","velocity":0.11023622047244094,"duration":"0.03"},{"name":"E2","midi":40,"time":"422.40","velocity":0.5905511811023622,"duration":"0.01"},{"name":"C#3","midi":49,"time":"422.40","velocity":0.5590551181102362,"duration":"0.06"},{"name":"F5","midi":77,"time":"422.40","velocity":0.29133858267716534,"duration":"0.09"},{"name":"C#6","midi":85,"time":"422.40","velocity":0.2283464566929134,"duration":"0.14"},{"name":"D#2","midi":39,"time":"422.41","velocity":0.5275590551181102,"duration":"0.01"},{"name":"G#3","midi":56,"time":"422.42","velocity":0.29133858267716534,"duration":"0.02"},{"name":"E6","midi":88,"time":"422.42","velocity":0.41732283464566927,"duration":"0.58"},{"name":"G6","midi":91,"time":"422.42","velocity":0.14173228346456693,"duration":"0.10"},{"name":"D#5","midi":75,"time":"422.43","velocity":0.2125984251968504,"duration":"0.03"},{"name":"F#5","midi":78,"time":"422.44","velocity":0.2677165354330709,"duration":"0.02"},{"name":"C2","midi":36,"time":"422.45","velocity":0.4409448818897638,"duration":"0.02"},{"name":"C3","midi":48,"time":"422.45","velocity":0.48031496062992124,"duration":"0.03"},{"name":"C#5","midi":73,"time":"422.47","velocity":0.3228346456692913,"duration":"0.19"},{"name":"A#5","midi":82,"time":"422.47","velocity":0.15748031496062992,"duration":"0.03"},{"name":"G#3","midi":56,"time":"422.48","velocity":0.41732283464566927,"duration":"0.07"},{"name":"G4","midi":67,"time":"422.48","velocity":0.4645669291338583,"duration":"0.02"},{"name":"F#5","midi":78,"time":"422.48","velocity":0.28346456692913385,"duration":"0.06"},{"name":"A5","midi":81,"time":"422.48","velocity":0.2440944881889764,"duration":"0.03"},{"name":"C#4","midi":61,"time":"422.49","velocity":0.2283464566929134,"duration":"0.02"},{"name":"G#4","midi":68,"time":"422.50","velocity":0.5669291338582677,"duration":"0.21"},{"name":"D#5","midi":75,"time":"422.50","velocity":0.2677165354330709,"duration":"0.03"},{"name":"B5","midi":83,"time":"422.50","velocity":0.3464566929133858,"duration":"0.20"},{"name":"D6","midi":86,"time":"422.50","velocity":0.1968503937007874,"duration":"0.07"},{"name":"C#3","midi":49,"time":"422.51","velocity":0.4881889763779528,"duration":"0.02"},{"name":"B4","midi":71,"time":"422.51","velocity":0.2440944881889764,"duration":"0.05"},{"name":"F7","midi":101,"time":"422.51","velocity":0.2204724409448819,"duration":"0.48"},{"name":"A5","midi":81,"time":"422.52","velocity":0.25984251968503935,"duration":"0.06"},{"name":"G#2","midi":44,"time":"422.55","velocity":0.4566929133858268,"duration":"0.02"},{"name":"G3","midi":55,"time":"422.55","velocity":0.31496062992125984,"duration":"0.02"},{"name":"D#5","midi":75,"time":"422.55","velocity":0.2992125984251969,"duration":"0.08"},{"name":"D7","midi":98,"time":"422.55","velocity":0.31496062992125984,"duration":"1.93"},{"name":"C4","midi":60,"time":"422.56","velocity":0.3779527559055118,"duration":"0.02"},{"name":"F#5","midi":78,"time":"422.56","velocity":0.30708661417322836,"duration":"0.07"},{"name":"G6","midi":91,"time":"422.56","velocity":0.18110236220472442,"duration":"0.10"},{"name":"A#6","midi":94,"time":"422.56","velocity":0.2283464566929134,"duration":"0.21"},{"name":"F6","midi":89,"time":"422.57","velocity":0.16535433070866143,"duration":"0.03"},{"name":"C3","midi":48,"time":"422.58","velocity":0.5748031496062992,"duration":"0.02"},{"name":"A6","midi":93,"time":"422.58","velocity":0.3464566929133858,"duration":"0.52"},{"name":"C2","midi":36,"time":"422.59","velocity":0.5590551181102362,"duration":"0.01"},{"name":"A5","midi":81,"time":"422.59","velocity":0.4566929133858268,"duration":"0.08"},{"name":"C#3","midi":49,"time":"422.60","velocity":0.5748031496062992,"duration":"0.03"},{"name":"F4","midi":65,"time":"422.60","velocity":0.33070866141732286,"duration":"0.02"},{"name":"D6","midi":86,"time":"422.60","velocity":0.2047244094488189,"duration":"0.07"},{"name":"F#1","midi":30,"time":"422.62","velocity":0.5196850393700787,"duration":"0.01"},{"name":"G#3","midi":56,"time":"422.62","velocity":0.4015748031496063,"duration":"0.05"},{"name":"F1","midi":29,"time":"422.63","velocity":0.5590551181102362,"duration":"0.01"},{"name":"E4","midi":64,"time":"422.63","velocity":0.30708661417322836,"duration":"0.14"},{"name":"B4","midi":71,"time":"422.63","velocity":0.33070866141732286,"duration":"0.29"},{"name":"F5","midi":77,"time":"422.63","velocity":0.3228346456692913,"duration":"0.09"},{"name":"F#1","midi":30,"time":"422.64","velocity":0.5354330708661418,"duration":"0.02"},{"name":"C3","midi":48,"time":"422.64","velocity":0.5669291338582677,"duration":"0.01"},{"name":"C#3","midi":49,"time":"422.65","velocity":0.5118110236220472,"duration":"0.02"},{"name":"F#6","midi":90,"time":"422.65","velocity":0.15748031496062992,"duration":"0.03"},{"name":"D3","midi":50,"time":"422.67","velocity":0.5118110236220472,"duration":"0.01"},{"name":"C2","midi":36,"time":"422.69","velocity":0.41732283464566927,"duration":"0.02"},{"name":"C#3","midi":49,"time":"422.69","velocity":0.5354330708661418,"duration":"0.06"},{"name":"A5","midi":81,"time":"422.69","velocity":0.4094488188976378,"duration":"0.09"},{"name":"G#3","midi":56,"time":"422.71","velocity":0.3543307086614173,"duration":"0.03"},{"name":"A4","midi":69,"time":"422.71","velocity":0.47244094488188976,"duration":"0.02"},{"name":"B5","midi":83,"time":"422.71","velocity":0.3543307086614173,"duration":"0.23"},{"name":"G7","midi":103,"time":"422.71","velocity":0.16535433070866143,"duration":"0.12"},{"name":"G6","midi":91,"time":"422.72","velocity":0.12598425196850394,"duration":"0.07"},{"name":"G#4","midi":68,"time":"422.73","velocity":0.5433070866141733,"duration":"0.07"},{"name":"F5","midi":77,"time":"422.73","velocity":0.3543307086614173,"duration":"0.10"},{"name":"C#1","midi":25,"time":"422.74","velocity":0.2992125984251969,"duration":"0.02"},{"name":"D3","midi":50,"time":"422.74","velocity":0.5196850393700787,"duration":"0.01"},{"name":"C3","midi":48,"time":"422.76","velocity":0.5275590551181102,"duration":"0.02"},{"name":"G#3","midi":56,"time":"422.77","velocity":0.4251968503937008,"duration":"0.14"},{"name":"C#3","midi":49,"time":"422.78","velocity":0.5118110236220472,"duration":"0.02"},{"name":"F#6","midi":90,"time":"422.78","velocity":0.2283464566929134,"duration":"0.71"},{"name":"A#6","midi":94,"time":"422.78","velocity":0.2440944881889764,"duration":"0.15"},{"name":"G5","midi":79,"time":"422.79","velocity":0.2283464566929134,"duration":"0.02"},{"name":"A5","midi":81,"time":"422.79","velocity":0.4881889763779528,"duration":"0.15"},{"name":"G4","midi":67,"time":"422.80","velocity":0.4330708661417323,"duration":"0.02"},{"name":"C3","midi":48,"time":"422.81","velocity":0.5196850393700787,"duration":"0.01"},{"name":"D#5","midi":75,"time":"422.81","velocity":0.3937007874015748,"duration":"0.13"},{"name":"G#5","midi":80,"time":"422.81","velocity":0.25196850393700787,"duration":"0.02"},{"name":"D6","midi":86,"time":"422.81","velocity":0.29133858267716534,"duration":"0.07"},{"name":"C#3","midi":49,"time":"422.83","velocity":0.5118110236220472,"duration":"0.02"},{"name":"G#4","midi":68,"time":"422.83","velocity":0.5196850393700787,"duration":"0.07"},{"name":"G5","midi":79,"time":"422.83","velocity":0.2283464566929134,"duration":"0.02"},{"name":"G6","midi":91,"time":"422.84","velocity":0.30708661417322836,"duration":"0.22"},{"name":"C#6","midi":85,"time":"422.87","velocity":0.31496062992125984,"duration":"0.10"},{"name":"C#3","midi":49,"time":"422.88","velocity":0.5354330708661418,"duration":"0.02"},{"name":"E4","midi":64,"time":"422.88","velocity":0.48031496062992124,"duration":"0.08"},{"name":"F#5","midi":78,"time":"422.88","velocity":0.3228346456692913,"duration":"0.07"},{"name":"A4","midi":69,"time":"422.90","velocity":0.48031496062992124,"duration":"0.02"},{"name":"G#5","midi":80,"time":"422.90","velocity":0.4645669291338583,"duration":"0.09"},{"name":"G#4","midi":68,"time":"422.91","velocity":0.5590551181102362,"duration":"0.21"},{"name":"C#3","midi":49,"time":"422.92","velocity":0.3779527559055118,"duration":"0.02"},{"name":"G#3","midi":56,"time":"422.93","velocity":0.5354330708661418,"duration":"0.03"},{"name":"A4","midi":69,"time":"422.93","velocity":0.41732283464566927,"duration":"0.02"},{"name":"B4","midi":71,"time":"422.93","velocity":0.4015748031496063,"duration":"0.02"},{"name":"C#5","midi":73,"time":"422.93","velocity":0.44881889763779526,"duration":"0.02"},{"name":"C6","midi":84,"time":"422.93","velocity":0.23622047244094488,"duration":"0.02"},{"name":"C#4","midi":61,"time":"422.94","velocity":0.5196850393700787,"duration":"0.07"},{"name":"A#5","midi":82,"time":"422.94","velocity":0.29133858267716534,"duration":"0.02"},{"name":"F6","midi":89,"time":"422.94","velocity":0.1968503937007874,"duration":"0.05"},{"name":"C3","midi":48,"time":"422.95","velocity":0.5354330708661418,"duration":"0.03"},{"name":"C5","midi":72,"time":"422.95","velocity":0.3464566929133858,"duration":"0.05"},{"name":"G5","midi":79,"time":"422.95","velocity":0.31496062992125984,"duration":"0.02"},{"name":"D6","midi":86,"time":"422.95","velocity":0.3228346456692913,"duration":"0.13"},{"name":"D#5","midi":75,"time":"422.97","velocity":0.36220472440944884,"duration":"0.02"},{"name":"A5","midi":81,"time":"422.97","velocity":0.4015748031496063,"duration":"0.22"},{"name":"E5","midi":76,"time":"422.98","velocity":0.3779527559055118,"duration":"0.13"},{"name":"B2","midi":47,"time":"422.99","velocity":0.4645669291338583,"duration":"0.02"},{"name":"G5","midi":79,"time":"422.99","velocity":0.36220472440944884,"duration":"0.02"},{"name":"D#6","midi":87,"time":"422.99","velocity":0.49606299212598426,"duration":"0.37"},{"name":"G3","midi":55,"time":"423.00","velocity":0.33858267716535434,"duration":"0.02"},{"name":"E4","midi":64,"time":"423.00","velocity":0.3779527559055118,"duration":"0.03"},{"name":"B5","midi":83,"time":"423.00","velocity":0.44881889763779526,"duration":"0.85"},{"name":"C6","midi":84,"time":"423.01","velocity":0.2047244094488189,"duration":"0.05"},{"name":"F7","midi":101,"time":"423.01","velocity":0.23622047244094488,"duration":"0.41"},{"name":"B2","midi":47,"time":"423.02","velocity":0.5511811023622047,"duration":"0.12"},{"name":"G#3","midi":56,"time":"423.02","velocity":0.31496062992125984,"duration":"0.05"},{"name":"B4","midi":71,"time":"423.03","velocity":0.23622047244094488,"duration":"0.03"},{"name":"F#5","midi":78,"time":"423.03","velocity":0.25984251968503935,"duration":"0.05"},{"name":"E4","midi":64,"time":"423.05","velocity":0.3937007874015748,"duration":"0.03"},{"name":"C#6","midi":85,"time":"423.06","velocity":0.2677165354330709,"duration":"0.07"},{"name":"C#5","midi":73,"time":"423.07","velocity":0.2204724409448819,"duration":"0.07"},{"name":"C6","midi":84,"time":"423.08","velocity":0.2204724409448819,"duration":"0.05"},{"name":"G6","midi":91,"time":"423.08","velocity":0.14960629921259844,"duration":"0.03"},{"name":"E4","midi":64,"time":"423.09","velocity":0.41732283464566927,"duration":"0.24"},{"name":"F#5","midi":78,"time":"423.09","velocity":0.16535433070866143,"duration":"0.07"},{"name":"F#7","midi":102,"time":"423.09","velocity":0.3543307086614173,"duration":"3.15"},{"name":"D#5","midi":75,"time":"423.10","velocity":0.3543307086614173,"duration":"0.06"},{"name":"D6","midi":86,"time":"423.10","velocity":0.33070866141732286,"duration":"0.10"},{"name":"A4","midi":69,"time":"423.12","velocity":0.5039370078740157,"duration":"0.08"},{"name":"G7","midi":103,"time":"423.12","velocity":0.11023622047244094,"duration":"0.08"},{"name":"G6","midi":91,"time":"423.13","velocity":0.11023622047244094,"duration":"0.05"},{"name":"A#2","midi":46,"time":"423.14","velocity":0.5118110236220472,"duration":"0.01"},{"name":"C6","midi":84,"time":"423.14","velocity":0.25984251968503935,"duration":"0.06"},{"name":"B2","midi":47,"time":"423.15","velocity":0.5196850393700787,"duration":"0.06"},{"name":"C#5","midi":73,"time":"423.15","velocity":0.14173228346456693,"duration":"0.08"},{"name":"F5","midi":77,"time":"423.15","velocity":0.2125984251968504,"duration":"0.03"},{"name":"A#6","midi":94,"time":"423.16","velocity":0.2047244094488189,"duration":"0.33"},{"name":"F#5","midi":78,"time":"423.17","velocity":0.2283464566929134,"duration":"0.06"},{"name":"G#4","midi":68,"time":"423.20","velocity":0.5118110236220472,"duration":"0.09"},{"name":"C#6","midi":85,"time":"423.20","velocity":0.25196850393700787,"duration":"0.10"},{"name":"B2","midi":47,"time":"423.22","velocity":0.49606299212598426,"duration":"0.02"},{"name":"C4","midi":60,"time":"423.22","velocity":0.2204724409448819,"duration":"0.05"},{"name":"D6","midi":86,"time":"423.22","velocity":0.33858267716535434,"duration":"0.10"},{"name":"B4","midi":71,"time":"423.23","velocity":0.25984251968503935,"duration":"0.07"},{"name":"A2","midi":45,"time":"423.24","velocity":0.5354330708661418,"duration":"0.01"},{"name":"F#5","midi":78,"time":"423.24","velocity":0.2440944881889764,"duration":"0.02"},{"name":"B0","midi":23,"time":"423.26","velocity":0.25984251968503935,"duration":"0.02"},{"name":"B2","midi":47,"time":"423.26","velocity":0.5433070866141733,"duration":"0.01"},{"name":"G3","midi":55,"time":"423.26","velocity":0.2755905511811024,"duration":"0.02"},{"name":"C3","midi":48,"time":"423.27","velocity":0.5196850393700787,"duration":"0.02"},{"name":"A5","midi":81,"time":"423.27","velocity":0.2755905511811024,"duration":"0.05"},{"name":"A4","midi":69,"time":"423.28","velocity":0.47244094488188976,"duration":"0.02"},{"name":"F5","midi":77,"time":"423.28","velocity":0.2677165354330709,"duration":"0.06"},{"name":"G7","midi":103,"time":"423.28","velocity":0.25984251968503935,"duration":"0.14"},{"name":"D5","midi":74,"time":"423.29","velocity":0.30708661417322836,"duration":"0.07"},{"name":"G#4","midi":68,"time":"423.30","velocity":0.5039370078740157,"duration":"0.12"},{"name":"E5","midi":76,"time":"423.30","velocity":0.4881889763779528,"duration":"0.41"},{"name":"F2","midi":41,"time":"423.31","velocity":0.6535433070866141,"duration":"0.03"},{"name":"A3","midi":57,"time":"423.31","velocity":0.3858267716535433,"duration":"0.05"},{"name":"C5","midi":72,"time":"423.31","velocity":0.28346456692913385,"duration":"0.02"},{"name":"G6","midi":91,"time":"423.31","velocity":0.15748031496062992,"duration":"0.07"},{"name":"A6","midi":93,"time":"423.31","velocity":0.15748031496062992,"duration":"0.06"},{"name":"C#6","midi":85,"time":"423.33","velocity":0.29133858267716534,"duration":"0.08"},{"name":"C#4","midi":61,"time":"423.34","velocity":0.3700787401574803,"duration":"0.06"},{"name":"F4","midi":65,"time":"423.34","velocity":0.28346456692913385,"duration":"0.02"},{"name":"B4","midi":71,"time":"423.34","velocity":0.1732283464566929,"duration":"0.05"},{"name":"A#5","midi":82,"time":"423.34","velocity":0.1889763779527559,"duration":"0.03"},{"name":"G2","midi":43,"time":"423.36","velocity":0.5118110236220472,"duration":"0.01"},{"name":"E4","midi":64,"time":"423.36","velocity":0.41732283464566927,"duration":"0.37"},{"name":"F#5","midi":78,"time":"423.36","velocity":0.2992125984251969,"duration":"0.02"},{"name":"D6","midi":86,"time":"423.36","velocity":0.25196850393700787,"duration":"0.07"},{"name":"B2","midi":47,"time":"423.37","velocity":0.5748031496062992,"duration":"0.01"},{"name":"A5","midi":81,"time":"423.37","velocity":0.1968503937007874,"duration":"0.03"},{"name":"C6","midi":84,"time":"423.37","velocity":0.2204724409448819,"duration":"0.06"},{"name":"D#6","midi":87,"time":"423.37","velocity":0.3543307086614173,"duration":"0.40"},{"name":"C3","midi":48,"time":"423.38","velocity":0.5590551181102362,"duration":"0.01"},{"name":"G#3","midi":56,"time":"423.38","velocity":0.33858267716535434,"duration":"0.02"},{"name":"G5","midi":79,"time":"423.38","velocity":0.33858267716535434,"duration":"0.09"},{"name":"C#3","midi":49,"time":"423.40","velocity":0.5590551181102362,"duration":"0.02"},{"name":"B4","midi":71,"time":"423.41","velocity":0.2755905511811024,"duration":"0.27"},{"name":"D3","midi":50,"time":"423.42","velocity":0.5275590551181102,"duration":"0.01"},{"name":"A5","midi":81,"time":"423.42","velocity":0.31496062992125984,"duration":"0.03"},{"name":"G#4","midi":68,"time":"423.43","velocity":0.5275590551181102,"duration":"0.14"},{"name":"C#6","midi":85,"time":"423.43","velocity":0.33070866141732286,"duration":"0.09"},{"name":"F7","midi":101,"time":"423.43","velocity":0.11811023622047244,"duration":"0.03"},{"name":"C3","midi":48,"time":"423.44","velocity":0.4881889763779528,"duration":"0.05"},{"name":"G#3","midi":56,"time":"423.44","velocity":0.4645669291338583,"duration":"0.24"},{"name":"C#5","midi":73,"time":"423.45","velocity":0.31496062992125984,"duration":"0.06"},{"name":"F6","midi":89,"time":"423.45","velocity":0.09448818897637795,"duration":"0.07"},{"name":"A6","midi":93,"time":"423.45","velocity":0.1968503937007874,"duration":"0.13"},{"name":"A5","midi":81,"time":"423.47","velocity":0.3543307086614173,"duration":"0.10"},{"name":"D6","midi":86,"time":"423.47","velocity":0.2677165354330709,"duration":"0.08"},{"name":"F7","midi":101,"time":"423.48","velocity":0.14960629921259844,"duration":"0.06"},{"name":"C#3","midi":49,"time":"423.51","velocity":0.5039370078740157,"duration":"0.02"},{"name":"A#6","midi":94,"time":"423.51","velocity":0.3464566929133858,"duration":"0.52"},{"name":"C#7","midi":97,"time":"423.51","velocity":0.3464566929133858,"duration":"0.49"},{"name":"C#5","midi":73,"time":"423.52","velocity":0.25984251968503935,"duration":"0.03"},{"name":"F#6","midi":90,"time":"423.52","velocity":0.11811023622047244,"duration":"0.07"},{"name":"G5","midi":79,"time":"423.53","velocity":0.3228346456692913,"duration":"0.07"},{"name":"C#6","midi":85,"time":"423.53","velocity":0.2992125984251969,"duration":"0.13"},{"name":"C#3","midi":49,"time":"423.55","velocity":0.5748031496062992,"duration":"0.10"},{"name":"F7","midi":101,"time":"423.55","velocity":0.2125984251968504,"duration":"0.41"},{"name":"D6","midi":86,"time":"423.57","velocity":0.2677165354330709,"duration":"0.10"},{"name":"G#4","midi":68,"time":"423.58","velocity":0.5196850393700787,"duration":"0.13"},{"name":"C6","midi":84,"time":"423.58","velocity":0.14960629921259844,"duration":"0.03"},{"name":"A5","midi":81,"time":"423.59","velocity":0.2283464566929134,"duration":"0.03"},{"name":"A6","midi":93,"time":"423.59","velocity":0.2755905511811024,"duration":"0.20"},{"name":"F#6","midi":90,"time":"423.64","velocity":0.07874015748031496,"duration":"0.03"},{"name":"C3","midi":48,"time":"423.65","velocity":0.5669291338582677,"duration":"0.01"},{"name":"F#5","midi":78,"time":"423.65","velocity":0.3228346456692913,"duration":"0.06"},{"name":"C#3","midi":49,"time":"423.66","velocity":0.5196850393700787,"duration":"0.01"},{"name":"A5","midi":81,"time":"423.66","velocity":0.2677165354330709,"duration":"0.02"},{"name":"D#3","midi":51,"time":"423.67","velocity":0.5433070866141733,"duration":"0.02"},{"name":"C#6","midi":85,"time":"423.67","velocity":0.4645669291338583,"duration":"0.51"},{"name":"G6","midi":91,"time":"423.67","velocity":0.2047244094488189,"duration":"0.09"},{"name":"F#2","midi":42,"time":"423.69","velocity":0.5905511811023622,"duration":"0.01"},{"name":"A#4","midi":70,"time":"423.69","velocity":0.3228346456692913,"duration":"0.02"},{"name":"F2","midi":41,"time":"423.70","velocity":0.6377952755905512,"duration":"0.02"},{"name":"D#5","midi":75,"time":"423.70","velocity":0.2047244094488189,"duration":"0.03"},{"name":"F#6","midi":90,"time":"423.70","velocity":0.3937007874015748,"duration":"0.59"},{"name":"C#4","midi":61,"time":"423.71","velocity":0.33070866141732286,"duration":"0.03"},{"name":"G4","midi":67,"time":"423.71","velocity":0.4645669291338583,"duration":"0.06"},{"name":"A5","midi":81,"time":"423.71","velocity":0.1889763779527559,"duration":"0.05"},{"name":"C6","midi":84,"time":"423.71","velocity":0.2677165354330709,"duration":"0.03"},{"name":"F#1","midi":30,"time":"423.73","velocity":0.5354330708661418,"duration":"0.01"},{"name":"D3","midi":50,"time":"423.73","velocity":0.5275590551181102,"duration":"0.07"},{"name":"D5","midi":74,"time":"423.73","velocity":0.28346456692913385,"duration":"0.05"},{"name":"E5","midi":76,"time":"423.73","velocity":0.3543307086614173,"duration":"0.13"},{"name":"F#5","midi":78,"time":"423.73","velocity":0.4409448818897638,"duration":"0.22"},{"name":"A3","midi":57,"time":"423.76","velocity":0.4330708661417323,"duration":"0.08"},{"name":"G#4","midi":68,"time":"423.76","velocity":0.4251968503937008,"duration":"0.02"},{"name":"A5","midi":81,"time":"423.77","velocity":0.3858267716535433,"duration":"0.62"},{"name":"G4","midi":67,"time":"423.78","velocity":0.47244094488188976,"duration":"0.02"},{"name":"C#5","midi":73,"time":"423.78","velocity":0.23622047244094488,"duration":"0.03"},{"name":"G#6","midi":92,"time":"423.78","velocity":0.2440944881889764,"duration":"0.58"},{"name":"G#5","midi":80,"time":"423.79","velocity":0.3543307086614173,"duration":"0.08"},{"name":"D#6","midi":87,"time":"423.79","velocity":0.33070866141732286,"duration":"0.12"},{"name":"D3","midi":50,"time":"423.81","velocity":0.5669291338582677,"duration":"0.21"},{"name":"G4","midi":67,"time":"423.81","velocity":0.5118110236220472,"duration":"0.01"},{"name":"G7","midi":103,"time":"423.81","velocity":0.13385826771653545,"duration":"0.06"},{"name":"F#4","midi":66,"time":"423.83","velocity":0.48031496062992124,"duration":"0.08"},{"name":"A4","midi":69,"time":"423.83","velocity":0.47244094488188976,"duration":"0.26"},{"name":"G1","midi":31,"time":"423.84","velocity":0.28346456692913385,"duration":"0.02"},{"name":"C5","midi":72,"time":"423.84","velocity":0.25984251968503935,"duration":"0.02"},{"name":"F6","midi":89,"time":"423.85","velocity":0.07086614173228346,"duration":"0.03"},{"name":"G6","midi":91,"time":"423.86","velocity":0.1732283464566929,"duration":"0.08"},{"name":"C5","midi":72,"time":"423.87","velocity":0.30708661417322836,"duration":"0.12"},{"name":"D5","midi":74,"time":"423.87","velocity":0.2283464566929134,"duration":"0.06"},{"name":"E5","midi":76,"time":"423.87","velocity":0.3464566929133858,"duration":"0.15"},{"name":"G#5","midi":80,"time":"423.88","velocity":0.2755905511811024,"duration":"0.12"},{"name":"B5","midi":83,"time":"423.88","velocity":0.29133858267716534,"duration":"0.06"},{"name":"E4","midi":64,"time":"423.91","velocity":0.2283464566929134,"duration":"0.02"},{"name":"D#6","midi":87,"time":"423.92","velocity":0.2125984251968504,"duration":"0.14"},{"name":"F#4","midi":66,"time":"423.94","velocity":0.4881889763779528,"duration":"0.14"},{"name":"B5","midi":83,"time":"423.95","velocity":0.2992125984251969,"duration":"0.02"},{"name":"G6","midi":91,"time":"423.95","velocity":0.14960629921259844,"duration":"0.06"},{"name":"A3","midi":57,"time":"423.98","velocity":0.3543307086614173,"duration":"0.06"},{"name":"C7","midi":96,"time":"423.98","velocity":0.25984251968503935,"duration":"0.69"},{"name":"C#5","midi":73,"time":"423.99","velocity":0.25984251968503935,"duration":"0.07"},{"name":"B5","midi":83,"time":"423.99","velocity":0.2204724409448819,"duration":"0.24"},{"name":"B4","midi":71,"time":"424.01","velocity":0.2677165354330709,"duration":"0.05"},{"name":"D4","midi":62,"time":"424.02","velocity":0.2283464566929134,"duration":"0.03"},{"name":"G6","midi":91,"time":"424.02","velocity":0.1732283464566929,"duration":"0.06"},{"name":"E5","midi":76,"time":"424.03","velocity":0.4094488188976378,"duration":"0.12"},{"name":"D6","midi":86,"time":"424.03","velocity":0.2283464566929134,"duration":"0.06"},{"name":"F6","midi":89,"time":"424.03","velocity":0.1732283464566929,"duration":"0.09"},{"name":"A#3","midi":58,"time":"424.06","velocity":0.30708661417322836,"duration":"0.02"},{"name":"A#6","midi":94,"time":"424.06","velocity":0.10236220472440945,"duration":"0.03"},{"name":"C#4","midi":61,"time":"424.07","velocity":0.25984251968503935,"duration":"0.02"},{"name":"F7","midi":101,"time":"424.07","velocity":0.25984251968503935,"duration":"0.19"},{"name":"D#3","midi":51,"time":"424.08","velocity":0.5275590551181102,"duration":"0.01"},{"name":"D5","midi":74,"time":"424.08","velocity":0.3464566929133858,"duration":"0.09"},{"name":"D3","midi":50,"time":"424.09","velocity":0.6220472440944882,"duration":"0.08"},{"name":"A3","midi":57,"time":"424.10","velocity":0.4409448818897638,"duration":"0.20"},{"name":"C5","midi":72,"time":"424.10","velocity":0.25984251968503935,"duration":"0.05"},{"name":"A#6","midi":94,"time":"424.10","velocity":0.1968503937007874,"duration":"0.19"},{"name":"D#7","midi":99,"time":"424.10","velocity":0.25984251968503935,"duration":"0.33"},{"name":"F#4","midi":66,"time":"424.12","velocity":0.5118110236220472,"duration":"0.07"},{"name":"G6","midi":91,"time":"424.12","velocity":0.14173228346456693,"duration":"0.07"},{"name":"D#6","midi":87,"time":"424.14","velocity":0.18110236220472442,"duration":"0.10"},{"name":"C#5","midi":73,"time":"424.15","velocity":0.25984251968503935,"duration":"0.05"},{"name":"G#5","midi":80,"time":"424.15","velocity":0.28346456692913385,"duration":"0.05"},{"name":"C#3","midi":49,"time":"424.17","velocity":0.5275590551181102,"duration":"0.02"},{"name":"D6","midi":86,"time":"424.17","velocity":0.25984251968503935,"duration":"0.13"},{"name":"G4","midi":67,"time":"424.19","velocity":0.31496062992125984,"duration":"0.02"},{"name":"E5","midi":76,"time":"424.19","velocity":0.2283464566929134,"duration":"0.05"},{"name":"D3","midi":50,"time":"424.20","velocity":0.5590551181102362,"duration":"0.06"},{"name":"C#6","midi":85,"time":"424.20","velocity":0.2755905511811024,"duration":"0.06"},{"name":"F#4","midi":66,"time":"424.21","velocity":0.4251968503937008,"duration":"0.05"},{"name":"C#5","midi":73,"time":"424.22","velocity":0.33858267716535434,"duration":"0.09"},{"name":"G#5","midi":80,"time":"424.24","velocity":0.2755905511811024,"duration":"0.02"},{"name":"G6","midi":91,"time":"424.24","velocity":0.1889763779527559,"duration":"0.03"},{"name":"C#3","midi":49,"time":"424.26","velocity":0.5275590551181102,"duration":"0.01"},{"name":"C6","midi":84,"time":"424.26","velocity":0.2440944881889764,"duration":"0.07"},{"name":"F6","midi":89,"time":"424.26","velocity":0.10236220472440945,"duration":"0.07"},{"name":"D3","midi":50,"time":"424.27","velocity":0.5511811023622047,"duration":"0.05"},{"name":"F#4","midi":66,"time":"424.27","velocity":0.44881889763779526,"duration":"0.08"},{"name":"F7","midi":101,"time":"424.27","velocity":0.2283464566929134,"duration":"0.31"},{"name":"C5","midi":72,"time":"424.30","velocity":0.2125984251968504,"duration":"0.03"},{"name":"E5","midi":76,"time":"424.30","velocity":0.23622047244094488,"duration":"0.07"},{"name":"G#5","midi":80,"time":"424.30","velocity":0.30708661417322836,"duration":"0.14"},{"name":"G7","midi":103,"time":"424.30","velocity":0.10236220472440945,"duration":"0.06"},{"name":"C#3","midi":49,"time":"424.31","velocity":0.5590551181102362,"duration":"0.01"},{"name":"A3","midi":57,"time":"424.31","velocity":0.2755905511811024,"duration":"0.02"},{"name":"A#6","midi":94,"time":"424.31","velocity":0.28346456692913385,"duration":"0.21"},{"name":"B6","midi":95,"time":"424.31","velocity":0.25196850393700787,"duration":"0.23"},{"name":"D3","midi":50,"time":"424.33","velocity":0.5433070866141733,"duration":"0.07"},{"name":"G#1","midi":32,"time":"424.35","velocity":0.3464566929133858,"duration":"0.02"},{"name":"C#5","midi":73,"time":"424.36","velocity":0.33858267716535434,"duration":"0.06"},{"name":"F#5","midi":78,"time":"424.36","velocity":0.4645669291338583,"duration":"0.15"},{"name":"D#6","midi":87,"time":"424.36","velocity":0.15748031496062992,"duration":"0.03"},{"name":"G6","midi":91,"time":"424.36","velocity":0.2992125984251969,"duration":"0.14"},{"name":"F#4","midi":66,"time":"424.37","velocity":0.5905511811023622,"duration":"0.10"},{"name":"B5","midi":83,"time":"424.37","velocity":0.29133858267716534,"duration":"0.07"},{"name":"A5","midi":81,"time":"424.40","velocity":0.4251968503937008,"duration":"0.20"},{"name":"D3","midi":50,"time":"424.41","velocity":0.48031496062992124,"duration":"0.02"},{"name":"A3","midi":57,"time":"424.41","velocity":0.3700787401574803,"duration":"0.02"},{"name":"B4","midi":71,"time":"424.41","velocity":0.28346456692913385,"duration":"0.05"},{"name":"E5","midi":76,"time":"424.41","velocity":0.4015748031496063,"duration":"0.08"},{"name":"C6","midi":84,"time":"424.42","velocity":0.1732283464566929,"duration":"0.05"},{"name":"D#6","midi":87,"time":"424.42","velocity":0.2204724409448819,"duration":"0.05"},{"name":"C#3","midi":49,"time":"424.43","velocity":0.5433070866141733,"duration":"0.01"},{"name":"C#5","midi":73,"time":"424.43","velocity":0.36220472440944884,"duration":"0.06"},{"name":"A2","midi":45,"time":"424.44","velocity":0.5433070866141733,"duration":"0.01"},{"name":"F6","midi":89,"time":"424.44","velocity":0.2204724409448819,"duration":"0.13"},{"name":"D#7","midi":99,"time":"424.44","velocity":0.29133858267716534,"duration":"0.20"},{"name":"A4","midi":69,"time":"424.45","velocity":0.5354330708661418,"duration":"0.09"},{"name":"D5","midi":74,"time":"424.45","velocity":0.3464566929133858,"duration":"0.02"},{"name":"B5","midi":83,"time":"424.45","velocity":0.33858267716535434,"duration":"0.08"},{"name":"B3","midi":59,"time":"424.47","velocity":0.3937007874015748,"duration":"0.02"},{"name":"A#5","midi":82,"time":"424.47","velocity":0.30708661417322836,"duration":"0.02"},{"name":"D3","midi":50,"time":"424.48","velocity":0.5748031496062992,"duration":"0.08"},{"name":"E4","midi":64,"time":"424.48","velocity":0.33858267716535434,"duration":"0.02"},{"name":"D#5","midi":75,"time":"424.48","velocity":0.3543307086614173,"duration":"0.05"},{"name":"G#5","midi":80,"time":"424.48","velocity":0.33070866141732286,"duration":"0.07"},{"name":"C#5","midi":73,"time":"424.50","velocity":0.3937007874015748,"duration":"0.08"},{"name":"G5","midi":79,"time":"424.50","velocity":0.3228346456692913,"duration":"0.02"},{"name":"F#4","midi":66,"time":"424.51","velocity":0.5039370078740157,"duration":"0.05"},{"name":"E5","midi":76,"time":"424.51","velocity":0.33070866141732286,"duration":"0.03"},{"name":"F#5","midi":78,"time":"424.52","velocity":0.5511811023622047,"duration":"0.30"},{"name":"C6","midi":84,"time":"424.52","velocity":0.28346456692913385,"duration":"0.05"},{"name":"C#6","midi":85,"time":"424.52","velocity":0.44881889763779526,"duration":"0.12"},{"name":"D#6","midi":87,"time":"424.53","velocity":0.12598425196850394,"duration":"0.05"},{"name":"A#6","midi":94,"time":"424.53","velocity":0.30708661417322836,"duration":"0.27"},{"name":"A3","midi":57,"time":"424.55","velocity":0.3937007874015748,"duration":"0.02"},{"name":"G#6","midi":92,"time":"424.55","velocity":0.2125984251968504,"duration":"0.19"},{"name":"A4","midi":69,"time":"424.56","velocity":0.4566929133858268,"duration":"0.41"},{"name":"E5","midi":76,"time":"424.56","velocity":0.31496062992125984,"duration":"0.09"},{"name":"G#5","midi":80,"time":"424.56","velocity":0.30708661417322836,"duration":"0.10"},{"name":"B6","midi":95,"time":"424.56","velocity":0.16535433070866143,"duration":"0.12"},{"name":"D3","midi":50,"time":"424.57","velocity":0.5354330708661418,"duration":"0.22"},{"name":"F#4","midi":66,"time":"424.57","velocity":0.4251968503937008,"duration":"0.06"},{"name":"D5","midi":74,"time":"424.57","velocity":0.2755905511811024,"duration":"0.03"},{"name":"F6","midi":89,"time":"424.58","velocity":0.2204724409448819,"duration":"0.17"},{"name":"A3","midi":57,"time":"424.59","velocity":0.3858267716535433,"duration":"0.02"},{"name":"A#5","midi":82,"time":"424.59","velocity":0.29133858267716534,"duration":"0.02"},{"name":"D#6","midi":87,"time":"424.59","velocity":0.1732283464566929,"duration":"0.03"},{"name":"C#5","midi":73,"time":"424.62","velocity":0.3464566929133858,"duration":"0.38"},{"name":"C6","midi":84,"time":"424.62","velocity":0.25196850393700787,"duration":"0.07"},{"name":"D6","midi":86,"time":"424.63","velocity":0.2047244094488189,"duration":"0.09"},{"name":"G6","midi":91,"time":"424.63","velocity":0.14173228346456693,"duration":"0.06"},{"name":"F#4","midi":66,"time":"424.64","velocity":0.6062992125984252,"duration":"0.52"},{"name":"D#6","midi":87,"time":"424.64","velocity":0.2047244094488189,"duration":"0.03"},{"name":"A3","midi":57,"time":"424.65","velocity":0.4330708661417323,"duration":"0.17"},{"name":"A6","midi":93,"time":"424.65","velocity":0.14960629921259844,"duration":"0.07"},{"name":"D#7","midi":99,"time":"424.65","velocity":0.2204724409448819,"duration":"0.09"},{"name":"B5","midi":83,"time":"424.66","velocity":0.4330708661417323,"duration":"0.43"},{"name":"C#6","midi":85,"time":"424.66","velocity":0.5354330708661418,"duration":"1.34"},{"name":"G#5","midi":80,"time":"424.69","velocity":0.25984251968503935,"duration":"0.03"},{"name":"D#6","midi":87,"time":"424.71","velocity":0.1889763779527559,"duration":"0.10"},{"name":"E5","midi":76,"time":"424.72","velocity":0.1968503937007874,"duration":"0.06"},{"name":"G6","midi":91,"time":"424.73","velocity":0.1732283464566929,"duration":"0.13"},{"name":"A6","midi":93,"time":"424.73","velocity":0.2755905511811024,"duration":"0.16"},{"name":"B4","midi":71,"time":"424.74","velocity":0.2755905511811024,"duration":"0.02"},{"name":"C6","midi":84,"time":"424.74","velocity":0.2047244094488189,"duration":"0.06"},{"name":"G7","midi":103,"time":"424.76","velocity":0.1968503937007874,"duration":"0.23"},{"name":"G#6","midi":92,"time":"424.77","velocity":0.33070866141732286,"duration":"0.52"},{"name":"D#7","midi":99,"time":"424.77","velocity":0.25984251968503935,"duration":"0.19"},{"name":"G#5","midi":80,"time":"424.78","velocity":0.1968503937007874,"duration":"0.03"},{"name":"C#4","midi":61,"time":"424.80","velocity":0.23622047244094488,"duration":"0.02"},{"name":"D6","midi":86,"time":"424.80","velocity":0.14960629921259844,"duration":"0.03"},{"name":"F7","midi":101,"time":"424.80","velocity":0.2047244094488189,"duration":"0.28"},{"name":"A#6","midi":94,"time":"424.81","velocity":0.29133858267716534,"duration":"0.26"},{"name":"D7","midi":98,"time":"424.81","velocity":0.31496062992125984,"duration":"0.47"},{"name":"A#3","midi":58,"time":"424.83","velocity":0.36220472440944884,"duration":"0.03"},{"name":"D#6","midi":87,"time":"424.83","velocity":0.07874015748031496,"duration":"0.03"},{"name":"F6","midi":89,"time":"424.83","velocity":0.10236220472440945,"duration":"0.03"},{"name":"D#3","midi":51,"time":"424.84","velocity":0.5118110236220472,"duration":"0.01"},{"name":"C#4","midi":61,"time":"424.84","velocity":0.29133858267716534,"duration":"0.02"},{"name":"G#5","midi":80,"time":"424.84","velocity":0.30708661417322836,"duration":"0.02"},{"name":"E6","midi":88,"time":"424.84","velocity":0.4566929133858268,"duration":"2.42"},{"name":"D3","midi":50,"time":"424.85","velocity":0.5826771653543307,"duration":"0.05"},{"name":"E5","midi":76,"time":"424.85","velocity":0.4645669291338583,"duration":"0.52"},{"name":"D6","midi":86,"time":"424.87","velocity":0.1732283464566929,"duration":"0.05"},{"name":"C7","midi":96,"time":"424.87","velocity":0.2204724409448819,"duration":"0.24"},{"name":"D#6","midi":87,"time":"424.88","velocity":0.18110236220472442,"duration":"0.07"},{"name":"G6","midi":91,"time":"424.88","velocity":0.2283464566929134,"duration":"0.12"},{"name":"C#3","midi":49,"time":"424.90","velocity":0.4566929133858268,"duration":"0.02"},{"name":"G#5","midi":80,"time":"424.90","velocity":0.2204724409448819,"duration":"0.09"},{"name":"A#5","midi":82,"time":"424.90","velocity":0.23622047244094488,"duration":"0.02"},{"name":"A3","midi":57,"time":"424.91","velocity":0.41732283464566927,"duration":"0.20"},{"name":"A6","midi":93,"time":"424.91","velocity":0.18110236220472442,"duration":"0.07"},{"name":"D3","midi":50,"time":"424.92","velocity":0.5118110236220472,"duration":"0.03"},{"name":"G5","midi":79,"time":"424.93","velocity":0.2125984251968504,"duration":"0.03"},{"name":"C#3","midi":49,"time":"424.95","velocity":0.5196850393700787,"duration":"0.01"},{"name":"D3","midi":50,"time":"424.97","velocity":0.5984251968503937,"duration":"0.24"},{"name":"B4","midi":71,"time":"424.97","velocity":0.2047244094488189,"duration":"0.03"},{"name":"D#7","midi":99,"time":"424.97","velocity":0.2047244094488189,"duration":"0.14"},{"name":"A5","midi":81,"time":"424.98","velocity":0.44881889763779526,"duration":"0.43"},{"name":"D#6","midi":87,"time":"425.00","velocity":0.07874015748031496,"duration":"0.03"},{"name":"C#5","midi":73,"time":"425.01","velocity":0.28346456692913385,"duration":"0.07"},{"name":"G7","midi":103,"time":"425.01","velocity":0.14173228346456693,"duration":"0.16"},{"name":"C#4","midi":61,"time":"425.06","velocity":0.2992125984251969,"duration":"0.02"},{"name":"D6","midi":86,"time":"425.06","velocity":0.14960629921259844,"duration":"0.03"},{"name":"G#5","midi":80,"time":"425.07","velocity":0.2677165354330709,"duration":"0.02"},{"name":"D#6","midi":87,"time":"425.07","velocity":0.1732283464566929,"duration":"0.10"},{"name":"C6","midi":84,"time":"425.09","velocity":0.23622047244094488,"duration":"0.05"},{"name":"A#6","midi":94,"time":"425.09","velocity":0.2440944881889764,"duration":"0.12"},{"name":"C#5","midi":73,"time":"425.10","velocity":0.14960629921259844,"duration":"0.03"},{"name":"F7","midi":101,"time":"425.10","velocity":0.2047244094488189,"duration":"0.29"},{"name":"C#4","midi":61,"time":"425.12","velocity":0.31496062992125984,"duration":"0.02"},{"name":"B5","midi":83,"time":"425.13","velocity":0.4015748031496063,"duration":"0.10"},{"name":"F6","midi":89,"time":"425.13","velocity":0.13385826771653545,"duration":"0.03"},{"name":"D#7","midi":99,"time":"425.13","velocity":0.2204724409448819,"duration":"0.36"},{"name":"A3","midi":57,"time":"425.14","velocity":0.41732283464566927,"duration":"0.03"},{"name":"E4","midi":64,"time":"425.16","velocity":0.3937007874015748,"duration":"0.03"},{"name":"C#5","midi":73,"time":"425.16","velocity":0.2440944881889764,"duration":"0.03"},{"name":"F#4","midi":66,"time":"425.17","velocity":0.5354330708661418,"duration":"0.09"},{"name":"G#5","midi":80,"time":"425.17","velocity":0.2283464566929134,"duration":"0.05"},{"name":"D6","midi":86,"time":"425.17","velocity":0.2125984251968504,"duration":"0.08"},{"name":"F6","midi":89,"time":"425.17","velocity":0.18110236220472442,"duration":"0.10"},{"name":"A#4","midi":70,"time":"425.19","velocity":0.2677165354330709,"duration":"0.02"},{"name":"G7","midi":103,"time":"425.19","velocity":0.2283464566929134,"duration":"0.21"},{"name":"E2","midi":40,"time":"425.20","velocity":0.6220472440944882,"duration":"0.02"},{"name":"D#6","midi":87,"time":"425.20","velocity":0.2440944881889764,"duration":"0.42"},{"name":"F3","midi":53,"time":"425.21","velocity":0.4881889763779528,"duration":"0.02"},{"name":"F2","midi":41,"time":"425.22","velocity":0.6299212598425197,"duration":"0.02"},{"name":"A#3","midi":58,"time":"425.22","velocity":0.3228346456692913,"duration":"0.02"},{"name":"C#5","midi":73,"time":"425.22","velocity":0.25196850393700787,"duration":"0.03"},{"name":"G5","midi":79,"time":"425.22","velocity":0.25196850393700787,"duration":"0.03"},{"name":"D3","midi":50,"time":"425.23","velocity":0.5826771653543307,"duration":"0.05"},{"name":"A#6","midi":94,"time":"425.23","velocity":0.2204724409448819,"duration":"0.03"},{"name":"A3","midi":57,"time":"425.24","velocity":0.36220472440944884,"duration":"0.05"},{"name":"C#4","midi":61,"time":"425.24","velocity":0.31496062992125984,"duration":"0.03"},{"name":"A4","midi":69,"time":"425.24","velocity":0.4409448818897638,"duration":"0.52"},{"name":"B5","midi":83,"time":"425.24","velocity":0.33858267716535434,"duration":"0.14"},{"name":"G#1","midi":32,"time":"425.26","velocity":0.5196850393700787,"duration":"0.01"},{"name":"G6","midi":91,"time":"425.26","velocity":0.1889763779527559,"duration":"0.13"},{"name":"G1","midi":31,"time":"425.27","velocity":0.4881889763779528,"duration":"0.02"},{"name":"D4","midi":62,"time":"425.28","velocity":0.3228346456692913,"duration":"0.07"},{"name":"F#4","midi":66,"time":"425.28","velocity":0.5826771653543307,"duration":"0.30"},{"name":"A#6","midi":94,"time":"425.28","velocity":0.3937007874015748,"duration":"0.59"},{"name":"E1","midi":28,"time":"425.29","velocity":0.30708661417322836,"duration":"0.02"},{"name":"D3","midi":50,"time":"425.29","velocity":0.5196850393700787,"duration":"0.05"},{"name":"C#5","midi":73,"time":"425.29","velocity":0.2755905511811024,"duration":"0.02"},{"name":"G#5","midi":80,"time":"425.29","velocity":0.29133858267716534,"duration":"0.03"},{"name":"D7","midi":98,"time":"425.30","velocity":0.2755905511811024,"duration":"0.85"},{"name":"A3","midi":57,"time":"425.31","velocity":0.4330708661417323,"duration":"0.27"},{"name":"D6","midi":86,"time":"425.33","velocity":0.1889763779527559,"duration":"0.05"},{"name":"G#5","midi":80,"time":"425.34","velocity":0.25196850393700787,"duration":"0.02"},{"name":"D3","midi":50,"time":"425.35","velocity":0.5590551181102362,"duration":"0.24"},{"name":"C#5","midi":73,"time":"425.35","velocity":0.2677165354330709,"duration":"0.05"},{"name":"G#5","midi":80,"time":"425.38","velocity":0.2992125984251969,"duration":"0.12"},{"name":"C5","midi":72,"time":"425.40","velocity":0.25196850393700787,"duration":"0.03"},{"name":"D5","midi":74,"time":"425.40","velocity":0.25196850393700787,"duration":"0.03"},{"name":"E5","midi":76,"time":"425.40","velocity":0.33858267716535434,"duration":"0.10"},{"name":"B5","midi":83,"time":"425.40","velocity":0.23622047244094488,"duration":"0.06"},{"name":"C7","midi":96,"time":"425.41","velocity":0.2125984251968504,"duration":"0.09"},{"name":"G7","midi":103,"time":"425.42","velocity":0.18110236220472442,"duration":"0.16"},{"name":"C#5","midi":73,"time":"425.43","velocity":0.2677165354330709,"duration":"0.03"},{"name":"C6","midi":84,"time":"425.43","velocity":0.14173228346456693,"duration":"0.05"},{"name":"F6","midi":89,"time":"425.43","velocity":0.15748031496062992,"duration":"0.03"},{"name":"C5","midi":72,"time":"425.45","velocity":0.28346456692913385,"duration":"0.06"},{"name":"B5","midi":83,"time":"425.47","velocity":0.2677165354330709,"duration":"0.20"},{"name":"F#2","midi":42,"time":"425.48","velocity":0.3700787401574803,"duration":"0.02"},{"name":"F6","midi":89,"time":"425.48","velocity":0.12598425196850394,"duration":"0.13"},{"name":"F5","midi":77,"time":"425.50","velocity":0.2992125984251969,"duration":"0.05"},{"name":"D#7","midi":99,"time":"425.50","velocity":0.25984251968503935,"duration":"0.71"},{"name":"A#1","midi":34,"time":"425.52","velocity":0.2992125984251969,"duration":"0.02"},{"name":"D5","midi":74,"time":"425.52","velocity":0.30708661417322836,"duration":"0.07"},{"name":"G6","midi":91,"time":"425.53","velocity":0.11023622047244094,"duration":"0.05"},{"name":"G#6","midi":92,"time":"425.53","velocity":0.2283464566929134,"duration":"0.45"},{"name":"F7","midi":101,"time":"425.55","velocity":0.23622047244094488,"duration":"0.36"},{"name":"C5","midi":72,"time":"425.56","velocity":0.23622047244094488,"duration":"0.08"},{"name":"E5","midi":76,"time":"425.56","velocity":0.3700787401574803,"duration":"0.16"},{"name":"A#1","midi":34,"time":"425.57","velocity":0.5511811023622047,"duration":"0.02"},{"name":"G4","midi":67,"time":"425.58","velocity":0.4015748031496063,"duration":"0.02"},{"name":"C7","midi":96,"time":"425.58","velocity":0.2440944881889764,"duration":"0.55"},{"name":"E2","midi":40,"time":"425.59","velocity":0.6141732283464567,"duration":"0.01"},{"name":"G#5","midi":80,"time":"425.59","velocity":0.2677165354330709,"duration":"0.09"},{"name":"G6","midi":91,"time":"425.59","velocity":0.25984251968503935,"duration":"0.15"},{"name":"F2","midi":41,"time":"425.60","velocity":0.5984251968503937,"duration":"0.02"},{"name":"F#4","midi":66,"time":"425.60","velocity":0.4566929133858268,"duration":"0.10"},{"name":"D3","midi":50,"time":"425.62","velocity":0.5669291338582677,"duration":"0.35"},{"name":"F#5","midi":78,"time":"425.62","velocity":0.4881889763779528,"duration":"0.12"},{"name":"D#1","midi":27,"time":"425.63","velocity":0.4566929133858268,"duration":"0.02"},{"name":"A3","midi":57,"time":"425.64","velocity":0.3464566929133858,"duration":"0.02"},{"name":"C6","midi":84,"time":"425.64","velocity":0.25196850393700787,"duration":"0.05"},{"name":"A3","midi":57,"time":"425.67","velocity":0.4645669291338583,"duration":"0.29"},{"name":"D5","midi":74,"time":"425.67","velocity":0.29133858267716534,"duration":"0.05"},{"name":"A#5","midi":82,"time":"425.69","velocity":0.14173228346456693,"duration":"0.03"},{"name":"C6","midi":84,"time":"425.70","velocity":0.31496062992125984,"duration":"0.07"},{"name":"F4","midi":65,"time":"425.71","velocity":0.3543307086614173,"duration":"0.02"},{"name":"C#5","midi":73,"time":"425.71","velocity":0.28346456692913385,"duration":"0.05"},{"name":"D#5","midi":75,"time":"425.71","velocity":0.29133858267716534,"duration":"0.02"},{"name":"F#4","midi":66,"time":"425.73","velocity":0.48031496062992124,"duration":"0.13"},{"name":"E5","midi":76,"time":"425.73","velocity":0.3464566929133858,"duration":"0.02"},{"name":"C5","midi":72,"time":"425.74","velocity":0.3228346456692913,"duration":"0.12"},{"name":"G1","midi":31,"time":"425.76","velocity":0.3700787401574803,"duration":"0.03"},{"name":"G#5","midi":80,"time":"425.77","velocity":0.3228346456692913,"duration":"0.13"},{"name":"E5","midi":76,"time":"425.78","velocity":0.4015748031496063,"duration":"0.19"},{"name":"G6","midi":91,"time":"425.78","velocity":0.2047244094488189,"duration":"0.16"},{"name":"F6","midi":89,"time":"425.79","velocity":0.10236220472440945,"duration":"0.03"},{"name":"B5","midi":83,"time":"425.81","velocity":0.2047244094488189,"duration":"0.09"},{"name":"G#4","midi":68,"time":"425.85","velocity":0.3464566929133858,"duration":"0.02"},{"name":"B4","midi":71,"time":"425.85","velocity":0.25196850393700787,"duration":"0.02"},{"name":"D#6","midi":87,"time":"425.85","velocity":0.15748031496062992,"duration":"0.06"},{"name":"F6","midi":89,"time":"425.85","velocity":0.14960629921259844,"duration":"0.05"},{"name":"F4","midi":65,"time":"425.86","velocity":0.3543307086614173,"duration":"0.02"},{"name":"C#5","midi":73,"time":"425.86","velocity":0.3464566929133858,"duration":"0.03"},{"name":"A4","midi":69,"time":"425.87","velocity":0.5275590551181102,"duration":"0.10"},{"name":"A6","midi":93,"time":"425.87","velocity":0.13385826771653545,"duration":"0.07"},{"name":"F#4","midi":66,"time":"425.88","velocity":0.4330708661417323,"duration":"0.06"},{"name":"D5","midi":74,"time":"425.88","velocity":0.3543307086614173,"duration":"0.06"},{"name":"C6","midi":84,"time":"425.88","velocity":0.1732283464566929,"duration":"0.03"},{"name":"A#6","midi":94,"time":"425.88","velocity":0.3700787401574803,"duration":"1.15"},{"name":"G#5","midi":80,"time":"425.92","velocity":0.33070866141732286,"duration":"0.06"},{"name":"C6","midi":84,"time":"425.93","velocity":0.2992125984251969,"duration":"0.02"},{"name":"F7","midi":101,"time":"425.93","velocity":0.2125984251968504,"duration":"0.34"},{"name":"C#4","midi":61,"time":"425.94","velocity":0.4094488188976378,"duration":"0.02"},{"name":"F4","midi":65,"time":"425.94","velocity":0.3858267716535433,"duration":"0.02"},{"name":"C#5","midi":73,"time":"425.94","velocity":0.4566929133858268,"duration":"0.08"},{"name":"D#6","midi":87,"time":"425.94","velocity":0.2440944881889764,"duration":"0.03"},{"name":"C2","midi":36,"time":"425.95","velocity":0.4645669291338583,"duration":"0.02"},{"name":"A#5","midi":82,"time":"425.95","velocity":0.31496062992125984,"duration":"0.02"},{"name":"D6","midi":86,"time":"425.95","velocity":0.2204724409448819,"duration":"0.03"},{"name":"F#4","midi":66,"time":"425.97","velocity":0.41732283464566927,"duration":"0.02"},{"name":"D#5","midi":75,"time":"425.97","velocity":0.30708661417322836,"duration":"0.02"},{"name":"F5","midi":77,"time":"425.97","velocity":0.33858267716535434,"duration":"0.05"},{"name":"G6","midi":91,"time":"425.97","velocity":0.2283464566929134,"duration":"0.08"},{"name":"A#4","midi":70,"time":"425.98","velocity":0.4251968503937008,"duration":"0.03"},{"name":"G5","midi":79,"time":"425.98","velocity":0.2755905511811024,"duration":"0.03"},{"name":"B6","midi":95,"time":"425.98","velocity":0.1968503937007874,"duration":"0.23"},{"name":"A3","midi":57,"time":"425.99","velocity":0.49606299212598426,"duration":"0.31"},{"name":"D3","midi":50,"time":"426.00","velocity":0.5590551181102362,"duration":"0.19"},{"name":"F#4","midi":66,"time":"426.00","velocity":0.47244094488188976,"duration":"0.03"},{"name":"B5","midi":83,"time":"426.00","velocity":0.2755905511811024,"duration":"0.07"},{"name":"D6","midi":86,"time":"426.00","velocity":0.2125984251968504,"duration":"0.13"},{"name":"E5","midi":76,"time":"426.01","velocity":0.28346456692913385,"duration":"0.02"},{"name":"C#6","midi":85,"time":"426.01","velocity":0.4566929133858268,"duration":"0.47"},{"name":"G#6","midi":92,"time":"426.01","velocity":0.1968503937007874,"duration":"0.14"},{"name":"G#4","midi":68,"time":"426.02","velocity":0.47244094488188976,"duration":"0.03"},{"name":"C5","midi":72,"time":"426.02","velocity":0.2992125984251969,"duration":"0.02"},{"name":"F6","midi":89,"time":"426.02","velocity":0.15748031496062992,"duration":"0.06"},{"name":"G7","midi":103,"time":"426.02","velocity":0.2283464566929134,"duration":"0.49"},{"name":"E5","midi":76,"time":"426.05","velocity":0.3937007874015748,"duration":"0.08"},{"name":"F#4","midi":66,"time":"426.06","velocity":0.41732283464566927,"duration":"0.10"},{"name":"C6","midi":84,"time":"426.06","velocity":0.2755905511811024,"duration":"0.03"},{"name":"B4","midi":71,"time":"426.07","velocity":0.2125984251968504,"duration":"0.03"},{"name":"C#5","midi":73,"time":"426.07","velocity":0.2677165354330709,"duration":"0.10"},{"name":"G#5","midi":80,"time":"426.08","velocity":0.2992125984251969,"duration":"0.06"},{"name":"A#5","midi":82,"time":"426.08","velocity":0.15748031496062992,"duration":"0.05"},{"name":"F6","midi":89,"time":"426.09","velocity":0.15748031496062992,"duration":"0.06"},{"name":"C#4","midi":61,"time":"426.10","velocity":0.3858267716535433,"duration":"0.03"},{"name":"G#4","midi":68,"time":"426.10","velocity":0.41732283464566927,"duration":"0.03"},{"name":"D#6","midi":87,"time":"426.10","velocity":0.15748031496062992,"duration":"0.05"},{"name":"B5","midi":83,"time":"426.13","velocity":0.15748031496062992,"duration":"0.03"},{"name":"C6","midi":84,"time":"426.13","velocity":0.23622047244094488,"duration":"0.26"},{"name":"A4","midi":69,"time":"426.14","velocity":0.5275590551181102,"duration":"0.06"},{"name":"F5","midi":77,"time":"426.14","velocity":0.2440944881889764,"duration":"0.02"},{"name":"G6","midi":91,"time":"426.14","velocity":0.2283464566929134,"duration":"0.07"},{"name":"C#4","midi":61,"time":"426.16","velocity":0.3779527559055118,"duration":"0.02"},{"name":"E5","midi":76,"time":"426.16","velocity":0.3700787401574803,"duration":"0.36"},{"name":"G#5","midi":80,"time":"426.16","velocity":0.2755905511811024,"duration":"0.02"},{"name":"D7","midi":98,"time":"426.16","velocity":0.2755905511811024,"duration":"0.51"},{"name":"F#4","midi":66,"time":"426.17","velocity":0.4409448818897638,"duration":"0.09"},{"name":"D4","midi":62,"time":"426.19","velocity":0.33070866141732286,"duration":"0.02"},{"name":"D#6","midi":87,"time":"426.19","velocity":0.2440944881889764,"duration":"0.10"},{"name":"D3","midi":50,"time":"426.20","velocity":0.49606299212598426,"duration":"0.02"},{"name":"C#5","midi":73,"time":"426.20","velocity":0.25984251968503935,"duration":"0.07"},{"name":"A4","midi":69,"time":"426.21","velocity":0.5118110236220472,"duration":"0.28"},{"name":"G#5","midi":80,"time":"426.21","velocity":0.33858267716535434,"duration":"0.07"},{"name":"D6","midi":86,"time":"426.22","velocity":0.11023622047244094,"duration":"0.03"},{"name":"F6","midi":89,"time":"426.22","velocity":0.16535433070866143,"duration":"0.05"},{"name":"D3","midi":50,"time":"426.23","velocity":0.5039370078740157,"duration":"0.02"},{"name":"C#3","midi":49,"time":"426.26","velocity":0.5196850393700787,"duration":"0.01"},{"name":"D3","midi":50,"time":"426.27","velocity":0.47244094488188976,"duration":"0.03"},{"name":"C5","midi":72,"time":"426.27","velocity":0.15748031496062992,"duration":"0.03"},{"name":"A5","midi":81,"time":"426.27","velocity":0.5748031496062992,"duration":"1.17"},{"name":"C#4","midi":61,"time":"426.28","velocity":0.3779527559055118,"duration":"0.02"},{"name":"A#5","midi":82,"time":"426.28","velocity":0.1968503937007874,"duration":"0.05"},{"name":"B6","midi":95,"time":"426.28","velocity":0.11023622047244094,"duration":"0.03"},{"name":"D#7","midi":99,"time":"426.29","velocity":0.4015748031496063,"duration":"5.37"},{"name":"D4","midi":62,"time":"426.30","velocity":0.3464566929133858,"duration":"0.02"},{"name":"F#4","midi":66,"time":"426.30","velocity":0.3858267716535433,"duration":"0.10"},{"name":"F7","midi":101,"time":"426.30","velocity":0.25196850393700787,"duration":"0.34"},{"name":"E3","midi":52,"time":"426.31","velocity":0.3858267716535433,"duration":"0.02"},{"name":"B5","midi":83,"time":"426.31","velocity":0.2440944881889764,"duration":"0.05"},{"name":"F6","midi":89,"time":"426.31","velocity":0.07874015748031496,"duration":"0.03"},{"name":"A3","midi":57,"time":"426.33","velocity":0.4251968503937008,"duration":"0.09"},{"name":"G6","midi":91,"time":"426.33","velocity":0.23622047244094488,"duration":"0.42"},{"name":"F2","midi":41,"time":"426.34","velocity":0.4645669291338583,"duration":"0.03"},{"name":"D4","midi":62,"time":"426.34","velocity":0.3779527559055118,"duration":"0.09"},{"name":"C5","midi":72,"time":"426.34","velocity":0.14960629921259844,"duration":"0.03"},{"name":"G#6","midi":92,"time":"426.34","velocity":0.25984251968503935,"duration":"0.05"},{"name":"B6","midi":95,"time":"426.34","velocity":0.2677165354330709,"duration":"0.14"},{"name":"D3","midi":50,"time":"426.35","velocity":0.5984251968503937,"duration":"0.20"},{"name":"D#6","midi":87,"time":"426.35","velocity":0.1889763779527559,"duration":"0.07"},{"name":"G5","midi":79,"time":"426.36","velocity":0.1968503937007874,"duration":"0.03"},{"name":"B5","midi":83,"time":"426.37","velocity":0.3700787401574803,"duration":"0.05"},{"name":"C5","midi":72,"time":"426.38","velocity":0.1968503937007874,"duration":"0.05"},{"name":"F6","midi":89,"time":"426.38","velocity":0.07874015748031496,"duration":"0.05"},{"name":"F#5","midi":78,"time":"426.40","velocity":0.4094488188976378,"duration":"0.12"},{"name":"G4","midi":67,"time":"426.41","velocity":0.3228346456692913,"duration":"0.02"},{"name":"C#5","midi":73,"time":"426.41","velocity":0.23622047244094488,"duration":"0.06"},{"name":"D6","midi":86,"time":"426.41","velocity":0.14173228346456693,"duration":"0.06"},{"name":"G#6","midi":92,"time":"426.41","velocity":0.2204724409448819,"duration":"0.13"},{"name":"G#3","midi":56,"time":"426.42","velocity":0.3464566929133858,"duration":"0.02"},{"name":"E4","midi":64,"time":"426.43","velocity":0.1968503937007874,"duration":"0.03"},{"name":"B5","midi":83,"time":"426.43","velocity":0.4251968503937008,"duration":"0.38"},{"name":"A3","midi":57,"time":"426.44","velocity":0.4094488188976378,"duration":"0.21"},{"name":"G#5","midi":80,"time":"426.45","velocity":0.23622047244094488,"duration":"0.06"},{"name":"C#5","midi":73,"time":"426.48","velocity":0.3464566929133858,"duration":"0.06"},{"name":"D6","midi":86,"time":"426.48","velocity":0.2283464566929134,"duration":"0.03"},{"name":"G#4","midi":68,"time":"426.49","velocity":0.3700787401574803,"duration":"0.02"},{"name":"F#2","midi":42,"time":"426.50","velocity":0.31496062992125984,"duration":"0.03"},{"name":"E4","midi":64,"time":"426.50","velocity":0.3228346456692913,"duration":"0.05"},{"name":"A4","midi":69,"time":"426.51","velocity":0.5669291338582677,"duration":"0.15"},{"name":"F#5","midi":78,"time":"426.52","velocity":0.33070866141732286,"duration":"0.20"},{"name":"D6","midi":86,"time":"426.52","velocity":0.2440944881889764,"duration":"0.06"},{"name":"D5","midi":74,"time":"426.53","velocity":0.33858267716535434,"duration":"0.08"},{"name":"C#6","midi":85,"time":"426.53","velocity":0.25984251968503935,"duration":"0.10"},{"name":"C#3","midi":49,"time":"426.55","velocity":0.5118110236220472,"duration":"0.02"},{"name":"F#4","midi":66,"time":"426.55","velocity":0.3543307086614173,"duration":"0.08"},{"name":"E5","midi":76,"time":"426.56","velocity":0.4094488188976378,"duration":"0.10"},{"name":"D3","midi":50,"time":"426.57","velocity":0.5511811023622047,"duration":"0.12"},{"name":"G#5","midi":80,"time":"426.57","velocity":0.33070866141732286,"duration":"0.02"},{"name":"D#6","midi":87,"time":"426.57","velocity":0.1732283464566929,"duration":"0.06"},{"name":"E4","midi":64,"time":"426.58","velocity":0.31496062992125984,"duration":"0.10"},{"name":"C5","midi":72,"time":"426.58","velocity":0.14173228346456693,"duration":"0.05"},{"name":"F6","midi":89,"time":"426.58","velocity":0.09448818897637795,"duration":"0.03"},{"name":"C#5","midi":73,"time":"426.62","velocity":0.2283464566929134,"duration":"0.02"},{"name":"G#5","midi":80,"time":"426.62","velocity":0.3700787401574803,"duration":"0.05"},{"name":"D6","midi":86,"time":"426.63","velocity":0.14960629921259844,"duration":"0.06"},{"name":"D#6","midi":87,"time":"426.64","velocity":0.15748031496062992,"duration":"0.03"},{"name":"F#7","midi":102,"time":"426.64","velocity":0.2755905511811024,"duration":"0.34"},{"name":"G7","midi":103,"time":"426.64","velocity":0.33070866141732286,"duration":"0.12"},{"name":"C#6","midi":85,"time":"426.65","velocity":0.5118110236220472,"duration":"1.29"},{"name":"A4","midi":69,"time":"426.67","velocity":0.5275590551181102,"duration":"0.10"},{"name":"D5","midi":74,"time":"426.67","velocity":0.2992125984251969,"duration":"0.07"},{"name":"E5","midi":76,"time":"426.67","velocity":0.3937007874015748,"duration":"0.13"},{"name":"E2","midi":40,"time":"426.69","velocity":0.5433070866141733,"duration":"0.01"},{"name":"C#3","midi":49,"time":"426.69","velocity":0.5275590551181102,"duration":"0.01"},{"name":"F#4","midi":66,"time":"426.69","velocity":0.33858267716535434,"duration":"0.07"},{"name":"D#6","midi":87,"time":"426.69","velocity":0.16535433070866143,"duration":"0.07"},{"name":"F6","midi":89,"time":"426.69","velocity":0.25984251968503935,"duration":"0.02"},{"name":"D7","midi":98,"time":"426.69","velocity":0.2204724409448819,"duration":"0.15"},{"name":"F2","midi":41,"time":"426.70","velocity":0.6299212598425197,"duration":"0.01"},{"name":"F#6","midi":90,"time":"426.70","velocity":0.33858267716535434,"duration":"0.28"},{"name":"G2","midi":43,"time":"426.71","velocity":0.6141732283464567,"duration":"0.01"},{"name":"G5","midi":79,"time":"426.71","velocity":0.2992125984251969,"duration":"0.03"},{"name":"B2","midi":47,"time":"426.72","velocity":0.5826771653543307,"duration":"0.01"},{"name":"A3","midi":57,"time":"426.72","velocity":0.4251968503937008,"duration":"0.26"},{"name":"C6","midi":84,"time":"426.72","velocity":0.1889763779527559,"duration":"0.03"},{"name":"F1","midi":29,"time":"426.73","velocity":0.5433070866141733,"duration":"0.02"},{"name":"D3","midi":50,"time":"426.73","velocity":0.5511811023622047,"duration":"0.13"},{"name":"E4","midi":64,"time":"426.73","velocity":0.2440944881889764,"duration":"0.02"},{"name":"D#5","midi":75,"time":"426.73","velocity":0.25196850393700787,"duration":"0.02"},{"name":"C5","midi":72,"time":"426.74","velocity":0.2677165354330709,"duration":"0.02"},{"name":"F#5","midi":78,"time":"426.74","velocity":0.4015748031496063,"duration":"0.13"},{"name":"D5","midi":74,"time":"426.76","velocity":0.25196850393700787,"duration":"0.02"},{"name":"G5","midi":79,"time":"426.76","velocity":0.25196850393700787,"duration":"0.05"},{"name":"C7","midi":96,"time":"426.76","velocity":0.1732283464566929,"duration":"0.14"},{"name":"C#4","midi":61,"time":"426.77","velocity":0.2755905511811024,"duration":"0.02"},{"name":"F#4","midi":66,"time":"426.77","velocity":0.3937007874015748,"duration":"0.09"},{"name":"G6","midi":91,"time":"426.77","velocity":0.25196850393700787,"duration":"0.27"},{"name":"G#4","midi":68,"time":"426.78","velocity":0.4409448818897638,"duration":"0.02"},{"name":"A4","midi":69,"time":"426.80","velocity":0.6062992125984252,"duration":"0.79"},{"name":"E5","midi":76,"time":"426.81","velocity":0.1889763779527559,"duration":"0.06"},{"name":"C#5","midi":73,"time":"426.83","velocity":0.2992125984251969,"duration":"0.08"},{"name":"B5","midi":83,"time":"426.83","velocity":0.30708661417322836,"duration":"0.16"},{"name":"D#6","midi":87,"time":"426.84","velocity":0.15748031496062992,"duration":"0.10"},{"name":"D7","midi":98,"time":"426.85","velocity":0.1889763779527559,"duration":"0.12"},{"name":"C#3","midi":49,"time":"426.86","velocity":0.5039370078740157,"duration":"0.02"},{"name":"D4","midi":62,"time":"426.87","velocity":0.33070866141732286,"duration":"0.02"},{"name":"F#4","midi":66,"time":"426.87","velocity":0.4330708661417323,"duration":"0.36"},{"name":"A#1","midi":34,"time":"426.88","velocity":0.3779527559055118,"duration":"0.02"},{"name":"D3","midi":50,"time":"426.88","velocity":0.47244094488188976,"duration":"0.03"},{"name":"E5","midi":76,"time":"426.88","velocity":0.2440944881889764,"duration":"0.03"},{"name":"G5","midi":79,"time":"426.90","velocity":0.2204724409448819,"duration":"0.03"},{"name":"F6","midi":89,"time":"426.91","velocity":0.2047244094488189,"duration":"0.08"},{"name":"C#3","midi":49,"time":"426.92","velocity":0.5039370078740157,"duration":"0.02"},{"name":"D#5","midi":75,"time":"426.92","velocity":0.28346456692913385,"duration":"0.06"},{"name":"D6","midi":86,"time":"426.92","velocity":0.18110236220472442,"duration":"0.12"},{"name":"C7","midi":96,"time":"426.92","velocity":0.1732283464566929,"duration":"0.14"},{"name":"D3","midi":50,"time":"426.94","velocity":0.5039370078740157,"duration":"0.03"},{"name":"C5","midi":72,"time":"426.94","velocity":0.1968503937007874,"duration":"0.05"},{"name":"C#4","midi":61,"time":"426.95","velocity":0.33070866141732286,"duration":"0.02"},{"name":"E5","midi":76,"time":"426.97","velocity":0.36220472440944884,"duration":"0.17"},{"name":"C3","midi":48,"time":"426.98","velocity":0.5354330708661418,"duration":"0.01"},{"name":"D5","midi":74,"time":"426.98","velocity":0.29133858267716534,"duration":"0.05"},{"name":"D3","midi":50,"time":"426.99","velocity":0.5354330708661418,"duration":"0.02"},{"name":"A3","midi":57,"time":"426.99","velocity":0.4409448818897638,"duration":"0.08"},{"name":"C6","midi":84,"time":"426.99","velocity":0.2677165354330709,"duration":"0.02"},{"name":"F#7","midi":102,"time":"426.99","velocity":0.2440944881889764,"duration":"0.34"},{"name":"C#4","midi":61,"time":"427.00","velocity":0.3543307086614173,"duration":"0.03"},{"name":"C5","midi":72,"time":"427.00","velocity":0.2755905511811024,"duration":"0.05"},{"name":"B5","midi":83,"time":"427.00","velocity":0.2204724409448819,"duration":"0.07"},{"name":"F#6","midi":90,"time":"427.00","velocity":0.4094488188976378,"duration":"0.64"},{"name":"D7","midi":98,"time":"427.00","velocity":0.2204724409448819,"duration":"0.15"},{"name":"F7","midi":101,"time":"427.01","velocity":0.16535433070866143,"duration":"0.40"},{"name":"D3","midi":50,"time":"427.02","velocity":0.5275590551181102,"duration":"0.05"},{"name":"D5","midi":74,"time":"427.05","velocity":0.2440944881889764,"duration":"0.02"},{"name":"A#6","midi":94,"time":"427.05","velocity":0.33070866141732286,"duration":"0.34"},{"name":"C#4","midi":61,"time":"427.06","velocity":0.4094488188976378,"duration":"0.05"},{"name":"C6","midi":84,"time":"427.06","velocity":0.28346456692913385,"duration":"0.19"},{"name":"D6","midi":86,"time":"427.06","velocity":0.25984251968503935,"duration":"0.12"},{"name":"G2","midi":43,"time":"427.08","velocity":0.4330708661417323,"duration":"0.02"},{"name":"F#3","midi":54,"time":"427.08","velocity":0.3858267716535433,"duration":"0.02"},{"name":"D5","midi":74,"time":"427.08","velocity":0.2755905511811024,"duration":"0.06"},{"name":"F6","midi":89,"time":"427.08","velocity":0.11811023622047244,"duration":"0.03"},{"name":"G5","midi":79,"time":"427.09","velocity":0.14960629921259844,"duration":"0.03"},{"name":"B2","midi":47,"time":"427.10","velocity":0.5275590551181102,"duration":"0.01"},{"name":"C3","midi":48,"time":"427.12","velocity":0.5275590551181102,"duration":"0.01"},{"name":"A3","midi":57,"time":"427.12","velocity":0.31496062992125984,"duration":"0.02"},{"name":"F5","midi":77,"time":"427.12","velocity":0.1889763779527559,"duration":"0.05"},{"name":"D3","midi":50,"time":"427.13","velocity":0.5669291338582677,"duration":"0.30"},{"name":"G7","midi":103,"time":"427.13","velocity":0.2204724409448819,"duration":"0.28"},{"name":"G5","midi":79,"time":"427.14","velocity":0.18110236220472442,"duration":"0.03"},{"name":"E5","midi":76,"time":"427.15","velocity":0.33858267716535434,"duration":"0.02"},{"name":"G6","midi":91,"time":"427.15","velocity":0.2125984251968504,"duration":"0.14"},{"name":"D#5","midi":75,"time":"427.16","velocity":0.23622047244094488,"duration":"0.05"},{"name":"F#5","midi":78,"time":"427.16","velocity":0.4409448818897638,"duration":"0.47"},{"name":"A3","midi":57,"time":"427.17","velocity":0.28346456692913385,"duration":"0.02"},{"name":"C#5","midi":73,"time":"427.19","velocity":0.1732283464566929,"duration":"0.03"},{"name":"B6","midi":95,"time":"427.19","velocity":0.1968503937007874,"duration":"0.15"},{"name":"A3","midi":57,"time":"427.21","velocity":0.25984251968503935,"duration":"0.06"},{"name":"E5","midi":76,"time":"427.21","velocity":0.3464566929133858,"duration":"0.06"},{"name":"F6","midi":89,"time":"427.21","velocity":0.14960629921259844,"duration":"0.09"},{"name":"B5","midi":83,"time":"427.23","velocity":0.1732283464566929,"duration":"0.03"},{"name":"F#4","midi":66,"time":"427.24","velocity":0.3464566929133858,"duration":"0.06"},{"name":"G#6","midi":92,"time":"427.24","velocity":0.12598425196850394,"duration":"0.06"},{"name":"D7","midi":98,"time":"427.24","velocity":0.23622047244094488,"duration":"0.09"},{"name":"C5","midi":72,"time":"427.27","velocity":0.25196850393700787,"duration":"0.07"},{"name":"E6","midi":88,"time":"427.27","velocity":0.16535433070866143,"duration":"0.03"},{"name":"C7","midi":96,"time":"427.27","velocity":0.13385826771653545,"duration":"0.15"},{"name":"D#6","midi":87,"time":"427.28","velocity":0.14960629921259844,"duration":"0.03"},{"name":"E5","midi":76,"time":"427.29","velocity":0.3543307086614173,"duration":"0.16"},{"name":"A3","midi":57,"time":"427.30","velocity":0.3543307086614173,"duration":"0.13"},{"name":"A#5","midi":82,"time":"427.30","velocity":0.1968503937007874,"duration":"0.05"},{"name":"G6","midi":91,"time":"427.30","velocity":0.11023622047244094,"duration":"0.03"},{"name":"E6","midi":88,"time":"427.31","velocity":0.3937007874015748,"duration":"0.56"},{"name":"C#5","midi":73,"time":"427.33","velocity":0.2204724409448819,"duration":"0.05"},{"name":"G#6","midi":92,"time":"427.33","velocity":0.14173228346456693,"duration":"0.05"},{"name":"F#1","midi":30,"time":"427.34","velocity":0.33070866141732286,"duration":"0.02"},{"name":"F#4","midi":66,"time":"427.35","velocity":0.25984251968503935,"duration":"0.06"},{"name":"B5","midi":83,"time":"427.35","velocity":0.1732283464566929,"duration":"0.05"},{"name":"D7","midi":98,"time":"427.35","velocity":0.2677165354330709,"duration":"0.31"},{"name":"G1","midi":31,"time":"427.38","velocity":0.3464566929133858,"duration":"0.02"},{"name":"C#5","midi":73,"time":"427.38","velocity":0.15748031496062992,"duration":"0.03"},{"name":"C6","midi":84,"time":"427.40","velocity":0.1889763779527559,"duration":"0.03"},{"name":"G#6","midi":92,"time":"427.40","velocity":0.1968503937007874,"duration":"0.05"},{"name":"B6","midi":95,"time":"427.40","velocity":0.23622047244094488,"duration":"0.10"},{"name":"D6","midi":86,"time":"427.41","velocity":0.11811023622047244,"duration":"0.03"},{"name":"A#6","midi":94,"time":"427.41","velocity":0.3543307086614173,"duration":"0.28"},{"name":"G#5","midi":80,"time":"427.42","velocity":0.30708661417322836,"duration":"0.03"},{"name":"G7","midi":103,"time":"427.42","velocity":0.13385826771653545,"duration":"0.06"},{"name":"D#3","midi":51,"time":"427.43","velocity":0.4330708661417323,"duration":"0.02"},{"name":"B5","midi":83,"time":"427.43","velocity":0.33070866141732286,"duration":"0.05"},{"name":"D#6","midi":87,"time":"427.43","velocity":0.1968503937007874,"duration":"0.03"},{"name":"F7","midi":101,"time":"427.43","velocity":0.25196850393700787,"duration":"1.28"},{"name":"D#5","midi":75,"time":"427.44","velocity":0.30708661417322836,"duration":"0.02"},{"name":"G6","midi":91,"time":"427.44","velocity":0.23622047244094488,"duration":"0.55"},{"name":"C#5","midi":73,"time":"427.45","velocity":0.3464566929133858,"duration":"0.03"},{"name":"F5","midi":77,"time":"427.45","velocity":0.29133858267716534,"duration":"0.02"},{"name":"C6","midi":84,"time":"427.45","velocity":0.3543307086614173,"duration":"0.12"},{"name":"D6","midi":86,"time":"427.45","velocity":0.2992125984251969,"duration":"0.07"},{"name":"C#4","midi":61,"time":"427.47","velocity":0.48031496062992124,"duration":"0.02"},{"name":"F#4","midi":66,"time":"427.47","velocity":0.4251968503937008,"duration":"0.05"},{"name":"G#6","midi":92,"time":"427.47","velocity":0.3858267716535433,"duration":"0.23"},{"name":"D3","midi":50,"time":"427.48","velocity":0.5590551181102362,"duration":"0.02"},{"name":"E5","midi":76,"time":"427.48","velocity":0.3700787401574803,"duration":"0.44"},{"name":"A#5","midi":82,"time":"427.48","velocity":0.3464566929133858,"duration":"0.03"},{"name":"D#6","midi":87,"time":"427.48","velocity":0.4881889763779528,"duration":"1.29"},{"name":"F6","midi":89,"time":"427.48","velocity":0.25984251968503935,"duration":"0.02"},{"name":"C4","midi":60,"time":"427.49","velocity":0.3543307086614173,"duration":"0.03"},{"name":"D5","midi":74,"time":"427.49","velocity":0.30708661417322836,"duration":"0.03"},{"name":"E3","midi":52,"time":"427.51","velocity":0.5669291338582677,"duration":"0.16"},{"name":"B4","midi":71,"time":"427.51","velocity":0.2755905511811024,"duration":"0.03"},{"name":"B6","midi":95,"time":"427.51","velocity":0.1889763779527559,"duration":"0.17"},{"name":"C#5","midi":73,"time":"427.52","velocity":0.25196850393700787,"duration":"0.02"},{"name":"G#5","midi":80,"time":"427.52","velocity":0.4015748031496063,"duration":"0.07"},{"name":"A#5","midi":82,"time":"427.52","velocity":0.2677165354330709,"duration":"0.05"},{"name":"D4","midi":62,"time":"427.53","velocity":0.3858267716535433,"duration":"0.20"},{"name":"F#2","midi":42,"time":"427.55","velocity":0.3779527559055118,"duration":"0.02"},{"name":"C5","midi":72,"time":"427.55","velocity":0.25196850393700787,"duration":"0.02"},{"name":"B5","midi":83,"time":"427.56","velocity":0.25196850393700787,"duration":"0.08"},{"name":"A#3","midi":58,"time":"427.58","velocity":0.31496062992125984,"duration":"0.02"},{"name":"G2","midi":43,"time":"427.59","velocity":0.3464566929133858,"duration":"0.02"},{"name":"A3","midi":57,"time":"427.60","velocity":0.36220472440944884,"duration":"0.05"},{"name":"A4","midi":69,"time":"427.60","velocity":0.6062992125984252,"duration":"0.13"},{"name":"C6","midi":84,"time":"427.62","velocity":0.1732283464566929,"duration":"0.03"},{"name":"C7","midi":96,"time":"427.62","velocity":0.3700787401574803,"duration":"1.02"},{"name":"F#5","midi":78,"time":"427.64","velocity":0.28346456692913385,"duration":"0.13"},{"name":"C#5","midi":73,"time":"427.65","velocity":0.28346456692913385,"duration":"0.05"},{"name":"B5","midi":83,"time":"427.66","velocity":0.2204724409448819,"duration":"0.05"},{"name":"D6","midi":86,"time":"427.66","velocity":0.15748031496062992,"duration":"0.03"},{"name":"A3","midi":57,"time":"427.67","velocity":0.36220472440944884,"duration":"0.05"},{"name":"D7","midi":98,"time":"427.67","velocity":0.2283464566929134,"duration":"0.07"},{"name":"E3","midi":52,"time":"427.69","velocity":0.4566929133858268,"duration":"0.02"},{"name":"G#5","midi":80,"time":"427.69","velocity":0.5354330708661418,"duration":"0.37"},{"name":"C6","midi":84,"time":"427.71","velocity":0.2125984251968504,"duration":"0.06"},{"name":"B6","midi":95,"time":"427.71","velocity":0.16535433070866143,"duration":"0.08"},{"name":"E3","midi":52,"time":"427.72","velocity":0.5669291338582677,"duration":"0.14"},{"name":"A#6","midi":94,"time":"427.72","velocity":0.1889763779527559,"duration":"0.28"},{"name":"G#4","midi":68,"time":"427.73","velocity":0.5433070866141733,"duration":"0.10"},{"name":"D7","midi":98,"time":"427.77","velocity":0.2125984251968504,"duration":"0.31"},{"name":"D4","midi":62,"time":"427.78","velocity":0.28346456692913385,"duration":"0.02"},{"name":"F#5","midi":78,"time":"427.79","velocity":0.33858267716535434,"duration":"0.09"},{"name":"A5","midi":81,"time":"427.79","velocity":0.3228346456692913,"duration":"0.02"},{"name":"F6","midi":89,"time":"427.79","velocity":0.10236220472440945,"duration":"0.03"},{"name":"C#4","midi":61,"time":"427.80","velocity":0.29133858267716534,"duration":"0.02"},{"name":"B5","midi":83,"time":"427.80","velocity":0.13385826771653545,"duration":"0.05"},{"name":"B6","midi":95,"time":"427.80","velocity":0.14960629921259844,"duration":"0.08"},{"name":"C6","midi":84,"time":"427.81","velocity":0.15748031496062992,"duration":"0.07"},{"name":"C4","midi":60,"time":"427.83","velocity":0.3464566929133858,"duration":"0.02"},{"name":"D5","midi":74,"time":"427.83","velocity":0.18110236220472442,"duration":"0.03"},{"name":"A4","midi":69,"time":"427.84","velocity":0.5196850393700787,"duration":"0.05"},{"name":"E2","midi":40,"time":"427.85","velocity":0.5590551181102362,"duration":"0.01"},{"name":"A3","midi":57,"time":"427.85","velocity":0.41732283464566927,"duration":"0.02"},{"name":"F2","midi":41,"time":"427.86","velocity":0.6456692913385826,"duration":"0.01"},{"name":"B5","midi":83,"time":"427.86","velocity":0.18110236220472442,"duration":"0.06"},{"name":"F6","midi":89,"time":"427.86","velocity":0.16535433070866143,"duration":"0.12"},{"name":"G#2","midi":44,"time":"427.87","velocity":0.5590551181102362,"duration":"0.01"},{"name":"E3","midi":52,"time":"427.88","velocity":0.48031496062992124,"duration":"0.05"},{"name":"B3","midi":59,"time":"427.88","velocity":0.3543307086614173,"duration":"0.02"},{"name":"G#4","midi":68,"time":"427.88","velocity":0.4881889763779528,"duration":"0.05"},{"name":"D#5","midi":75,"time":"427.88","velocity":0.2440944881889764,"duration":"0.06"},{"name":"D6","midi":86,"time":"427.88","velocity":0.2047244094488189,"duration":"0.03"},{"name":"E6","midi":88,"time":"427.88","velocity":0.4566929133858268,"duration":"1.36"},{"name":"F#5","midi":78,"time":"427.90","velocity":0.25984251968503935,"duration":"0.06"},{"name":"B6","midi":95,"time":"427.90","velocity":0.1968503937007874,"duration":"0.09"},{"name":"C#2","midi":37,"time":"427.91","velocity":0.5511811023622047,"duration":"0.01"},{"name":"C6","midi":84,"time":"427.91","velocity":0.2204724409448819,"duration":"0.03"},{"name":"D#2","midi":39,"time":"427.92","velocity":0.5354330708661418,"duration":"0.01"},{"name":"C#5","midi":73,"time":"427.92","velocity":0.28346456692913385,"duration":"0.05"},{"name":"A4","midi":69,"time":"427.93","velocity":0.5826771653543307,"duration":"0.07"},{"name":"B5","midi":83,"time":"427.93","velocity":0.2204724409448819,"duration":"0.03"},{"name":"E3","midi":52,"time":"427.94","velocity":0.3543307086614173,"duration":"0.05"},{"name":"E5","midi":76,"time":"427.94","velocity":0.3937007874015748,"duration":"0.13"},{"name":"A#3","midi":58,"time":"427.95","velocity":0.33858267716535434,"duration":"0.02"},{"name":"C#6","midi":85,"time":"427.95","velocity":0.33070866141732286,"duration":"0.09"},{"name":"C6","midi":84,"time":"427.97","velocity":0.2440944881889764,"duration":"0.07"},{"name":"A#5","midi":82,"time":"427.98","velocity":0.14960629921259844,"duration":"0.03"},{"name":"F#6","midi":90,"time":"427.98","velocity":0.1732283464566929,"duration":"0.10"},{"name":"D#3","midi":51,"time":"427.99","velocity":0.4409448818897638,"duration":"0.03"},{"name":"F#5","midi":78,"time":"427.99","velocity":0.2677165354330709,"duration":"0.08"},{"name":"D#2","midi":39,"time":"428.00","velocity":0.4330708661417323,"duration":"0.02"},{"name":"D4","midi":62,"time":"428.00","velocity":0.2440944881889764,"duration":"0.02"},{"name":"G#4","midi":68,"time":"428.00","velocity":0.4881889763779528,"duration":"0.07"},{"name":"A5","midi":81,"time":"428.00","velocity":0.48031496062992124,"duration":"0.33"},{"name":"F6","midi":89,"time":"428.00","velocity":0.13385826771653545,"duration":"0.05"},{"name":"B5","midi":83,"time":"428.01","velocity":0.18110236220472442,"duration":"0.08"},{"name":"G6","midi":91,"time":"428.01","velocity":0.2047244094488189,"duration":"0.26"},{"name":"A#6","midi":94,"time":"428.01","velocity":0.14173228346456693,"duration":"0.03"},{"name":"E3","midi":52,"time":"428.02","velocity":0.4409448818897638,"duration":"0.02"},{"name":"D#3","midi":51,"time":"428.05","velocity":0.47244094488188976,"duration":"0.02"},{"name":"B3","midi":59,"time":"428.05","velocity":0.2677165354330709,"duration":"0.02"},{"name":"A4","midi":69,"time":"428.06","velocity":0.5118110236220472,"duration":"0.16"},{"name":"C#5","midi":73,"time":"428.06","velocity":0.2204724409448819,"duration":"0.03"},{"name":"C6","midi":84,"time":"428.06","velocity":0.13385826771653545,"duration":"0.06"},{"name":"A#6","midi":94,"time":"428.06","velocity":0.2125984251968504,"duration":"0.21"},{"name":"F2","midi":41,"time":"428.07","velocity":0.4015748031496063,"duration":"0.02"},{"name":"E3","midi":52,"time":"428.07","velocity":0.5118110236220472,"duration":"0.09"},{"name":"C#4","midi":61,"time":"428.07","velocity":0.25196850393700787,"duration":"0.05"},{"name":"F5","midi":77,"time":"428.07","velocity":0.23622047244094488,"duration":"0.02"},{"name":"C#6","midi":85,"time":"428.07","velocity":0.3543307086614173,"duration":"0.15"},{"name":"E5","midi":76,"time":"428.08","velocity":0.30708661417322836,"duration":"0.07"},{"name":"C5","midi":72,"time":"428.09","velocity":0.23622047244094488,"duration":"0.02"},{"name":"F#5","midi":78,"time":"428.09","velocity":0.5196850393700787,"duration":"0.28"},{"name":"G#5","midi":80,"time":"428.09","velocity":0.3858267716535433,"duration":"0.02"},{"name":"D7","midi":98,"time":"428.09","velocity":0.1889763779527559,"duration":"0.08"},{"name":"C#5","midi":73,"time":"428.12","velocity":0.30708661417322836,"duration":"0.03"},{"name":"G#5","midi":80,"time":"428.13","velocity":0.3700787401574803,"duration":"0.16"},{"name":"B5","midi":83,"time":"428.13","velocity":0.29133858267716534,"duration":"0.10"},{"name":"D5","midi":74,"time":"428.15","velocity":0.33858267716535434,"duration":"0.02"},{"name":"E5","midi":76,"time":"428.16","velocity":0.2755905511811024,"duration":"0.02"},{"name":"F6","midi":89,"time":"428.16","velocity":0.23622047244094488,"duration":"0.07"},{"name":"E3","midi":52,"time":"428.17","velocity":0.4881889763779528,"duration":"0.03"},{"name":"C4","midi":60,"time":"428.17","velocity":0.3228346456692913,"duration":"0.02"},{"name":"F4","midi":65,"time":"428.19","velocity":0.31496062992125984,"duration":"0.05"},{"name":"D#5","midi":75,"time":"428.19","velocity":0.2755905511811024,"duration":"0.05"},{"name":"B6","midi":95,"time":"428.19","velocity":0.44881889763779526,"duration":"1.70"},{"name":"A#2","midi":46,"time":"428.20","velocity":0.5118110236220472,"duration":"0.01"},{"name":"C#4","midi":61,"time":"428.20","velocity":0.2440944881889764,"duration":"0.02"},{"name":"B4","midi":71,"time":"428.20","velocity":0.23622047244094488,"duration":"0.02"},{"name":"C#5","midi":73,"time":"428.20","velocity":0.41732283464566927,"duration":"0.09"},{"name":"D7","midi":98,"time":"428.20","velocity":0.23622047244094488,"duration":"0.13"},{"name":"E2","midi":40,"time":"428.21","velocity":0.5511811023622047,"duration":"0.01"},{"name":"G#4","midi":68,"time":"428.21","velocity":0.3700787401574803,"duration":"0.03"},{"name":"C6","midi":84,"time":"428.22","velocity":0.29133858267716534,"duration":"0.02"},{"name":"A1","midi":33,"time":"428.23","velocity":0.5275590551181102,"duration":"0.01"},{"name":"G2","midi":43,"time":"428.23","velocity":0.5275590551181102,"duration":"0.01"},{"name":"F3","midi":53,"time":"428.23","velocity":0.5039370078740157,"duration":"0.03"},{"name":"B4","midi":71,"time":"428.23","velocity":0.4094488188976378,"duration":"0.02"},{"name":"D6","midi":86,"time":"428.23","velocity":0.1889763779527559,"duration":"0.03"},{"name":"F#1","midi":30,"time":"428.24","velocity":0.5826771653543307,"duration":"0.02"},{"name":"F2","midi":41,"time":"428.24","velocity":0.5748031496062992,"duration":"0.01"},{"name":"D4","midi":62,"time":"428.24","velocity":0.28346456692913385,"duration":"0.05"},{"name":"A4","midi":69,"time":"428.24","velocity":0.44881889763779526,"duration":"0.10"},{"name":"D#5","midi":75,"time":"428.24","velocity":0.4094488188976378,"duration":"0.06"},{"name":"F5","midi":77,"time":"428.24","velocity":0.36220472440944884,"duration":"0.02"},{"name":"B5","midi":83,"time":"428.24","velocity":0.4330708661417323,"duration":"0.16"},{"name":"E1","midi":28,"time":"428.27","velocity":0.4881889763779528,"duration":"0.02"},{"name":"F2","midi":41,"time":"428.28","velocity":0.5354330708661418,"duration":"0.01"},{"name":"C5","midi":72,"time":"428.28","velocity":0.4015748031496063,"duration":"0.03"},{"name":"G6","midi":91,"time":"428.28","velocity":0.2677165354330709,"duration":"0.06"},{"name":"A#6","midi":94,"time":"428.28","velocity":0.14960629921259844,"duration":"0.08"},{"name":"F#2","midi":42,"time":"428.29","velocity":0.5196850393700787,"duration":"0.01"},{"name":"F3","midi":53,"time":"428.29","velocity":0.3228346456692913,"duration":"0.03"},{"name":"F#4","midi":66,"time":"428.29","velocity":0.2677165354330709,"duration":"0.02"},{"name":"F6","midi":89,"time":"428.29","velocity":0.14960629921259844,"duration":"0.06"},{"name":"E5","midi":76,"time":"428.30","velocity":0.3779527559055118,"duration":"0.02"},{"name":"G5","midi":79,"time":"428.30","velocity":0.48031496062992124,"duration":"0.02"},{"name":"F#2","midi":42,"time":"428.31","velocity":0.4645669291338583,"duration":"0.02"},{"name":"C4","midi":60,"time":"428.31","velocity":0.25984251968503935,"duration":"0.02"},{"name":"B4","midi":71,"time":"428.31","velocity":0.4566929133858268,"duration":"0.05"},{"name":"C#5","midi":73,"time":"428.33","velocity":0.3543307086614173,"duration":"0.03"},{"name":"D#5","midi":75,"time":"428.33","velocity":0.33070866141732286,"duration":"0.03"},{"name":"G#5","midi":80,"time":"428.33","velocity":0.47244094488188976,"duration":"0.03"},{"name":"F2","midi":41,"time":"428.34","velocity":0.5118110236220472,"duration":"0.01"},{"name":"D7","midi":98,"time":"428.34","velocity":0.2440944881889764,"duration":"0.59"},{"name":"F#2","midi":42,"time":"428.35","velocity":0.49606299212598426,"duration":"0.03"},{"name":"C#4","midi":61,"time":"428.35","velocity":0.3700787401574803,"duration":"0.05"},{"name":"A5","midi":81,"time":"428.35","velocity":0.5748031496062992,"duration":"0.66"},{"name":"A#4","midi":70,"time":"428.36","velocity":0.5196850393700787,"duration":"0.08"},{"name":"D5","midi":74,"time":"428.36","velocity":0.2755905511811024,"duration":"0.02"},{"name":"C#6","midi":85,"time":"428.37","velocity":0.3228346456692913,"duration":"0.24"},{"name":"F6","midi":89,"time":"428.37","velocity":0.2047244094488189,"duration":"0.12"},{"name":"G6","midi":91,"time":"428.37","velocity":0.2125984251968504,"duration":"0.12"},{"name":"F#5","midi":78,"time":"428.38","velocity":0.2677165354330709,"duration":"0.02"},{"name":"A#5","midi":82,"time":"428.38","velocity":0.5275590551181102,"duration":"0.14"},{"name":"D2","midi":38,"time":"428.40","velocity":0.5275590551181102,"duration":"0.01"},{"name":"D3","midi":50,"time":"428.40","velocity":0.5275590551181102,"duration":"0.03"},{"name":"F#4","midi":66,"time":"428.40","velocity":0.33070866141732286,"duration":"0.02"},{"name":"D#5","midi":75,"time":"428.40","velocity":0.30708661417322836,"duration":"0.03"},{"name":"G5","midi":79,"time":"428.40","velocity":0.29133858267716534,"duration":"0.05"},{"name":"C#2","midi":37,"time":"428.41","velocity":0.49606299212598426,"duration":"0.02"},{"name":"A#3","midi":58,"time":"428.41","velocity":0.33070866141732286,"duration":"0.03"},{"name":"F4","midi":65,"time":"428.41","velocity":0.2755905511811024,"duration":"0.02"},{"name":"A4","midi":69,"time":"428.41","velocity":0.4330708661417323,"duration":"0.02"},{"name":"C#5","midi":73,"time":"428.42","velocity":0.23622047244094488,"duration":"0.02"},{"name":"E5","midi":76,"time":"428.43","velocity":0.25984251968503935,"duration":"0.02"},{"name":"C#2","midi":37,"time":"428.44","velocity":0.5196850393700787,"duration":"0.01"},{"name":"F#3","midi":54,"time":"428.44","velocity":0.4330708661417323,"duration":"0.05"},{"name":"D4","midi":62,"time":"428.44","velocity":0.2283464566929134,"duration":"0.06"},{"name":"A4","midi":69,"time":"428.44","velocity":0.49606299212598426,"duration":"0.51"},{"name":"B4","midi":71,"time":"428.44","velocity":0.44881889763779526,"duration":"0.02"},{"name":"F#5","midi":78,"time":"428.44","velocity":0.30708661417322836,"duration":"0.14"},{"name":"G#5","midi":80,"time":"428.44","velocity":0.3228346456692913,"duration":"0.02"},{"name":"G#2","midi":44,"time":"428.45","velocity":0.49606299212598426,"duration":"0.02"},{"name":"D#5","midi":75,"time":"428.45","velocity":0.15748031496062992,"duration":"0.03"},{"name":"E5","midi":76,"time":"428.47","velocity":0.2125984251968504,"duration":"0.05"},{"name":"B5","midi":83,"time":"428.47","velocity":0.3228346456692913,"duration":"0.02"},{"name":"G#5","midi":80,"time":"428.50","velocity":0.31496062992125984,"duration":"0.02"},{"name":"B4","midi":71,"time":"428.52","velocity":0.41732283464566927,"duration":"0.08"},{"name":"E5","midi":76,"time":"428.52","velocity":0.28346456692913385,"duration":"0.05"},{"name":"B5","midi":83,"time":"428.52","velocity":0.5275590551181102,"duration":"0.12"},{"name":"F#2","midi":42,"time":"428.53","velocity":0.5118110236220472,"duration":"0.01"},{"name":"G#5","midi":80,"time":"428.53","velocity":0.3228346456692913,"duration":"0.02"},{"name":"D6","midi":86,"time":"428.53","velocity":0.16535433070866143,"duration":"0.05"},{"name":"G7","midi":103,"time":"428.55","velocity":0.13385826771653545,"duration":"0.06"},{"name":"D#5","midi":75,"time":"428.56","velocity":0.25984251968503935,"duration":"0.03"},{"name":"F5","midi":77,"time":"428.57","velocity":0.2283464566929134,"duration":"0.02"},{"name":"A#6","midi":94,"time":"428.57","velocity":0.2047244094488189,"duration":"0.27"},{"name":"A1","midi":33,"time":"428.58","velocity":0.5196850393700787,"duration":"0.01"},{"name":"A2","midi":45,"time":"428.58","velocity":0.5590551181102362,"duration":"0.01"},{"name":"G6","midi":91,"time":"428.58","velocity":0.18110236220472442,"duration":"0.06"},{"name":"F2","midi":41,"time":"428.59","velocity":0.6220472440944882,"duration":"0.02"},{"name":"C#4","midi":61,"time":"428.59","velocity":0.28346456692913385,"duration":"0.02"},{"name":"F4","midi":65,"time":"428.59","velocity":0.4645669291338583,"duration":"0.03"},{"name":"D5","midi":74,"time":"428.59","velocity":0.33858267716535434,"duration":"0.06"},{"name":"F#5","midi":78,"time":"428.59","velocity":0.3937007874015748,"duration":"0.37"},{"name":"F#3","midi":54,"time":"428.62","velocity":0.5433070866141733,"duration":"0.05"},{"name":"C6","midi":84,"time":"428.62","velocity":0.2204724409448819,"duration":"0.05"},{"name":"D#4","midi":63,"time":"428.63","velocity":0.3858267716535433,"duration":"0.02"},{"name":"B4","midi":71,"time":"428.63","velocity":0.3228346456692913,"duration":"0.02"},{"name":"C#6","midi":85,"time":"428.63","velocity":0.23622047244094488,"duration":"0.10"},{"name":"F#2","midi":42,"time":"428.64","velocity":0.5354330708661418,"duration":"0.01"},{"name":"G#6","midi":92,"time":"428.64","velocity":0.2047244094488189,"duration":"0.14"},{"name":"E2","midi":40,"time":"428.65","velocity":0.5511811023622047,"duration":"0.01"},{"name":"B3","midi":59,"time":"428.65","velocity":0.33858267716535434,"duration":"0.06"},{"name":"D4","midi":62,"time":"428.65","velocity":0.4330708661417323,"duration":"0.14"},{"name":"C#5","midi":73,"time":"428.65","velocity":0.25196850393700787,"duration":"0.02"},{"name":"B5","midi":83,"time":"428.65","velocity":0.6299212598425197,"duration":"0.92"},{"name":"F6","midi":89,"time":"428.65","velocity":0.12598425196850394,"duration":"0.07"},{"name":"G6","midi":91,"time":"428.65","velocity":0.18110236220472442,"duration":"0.05"},{"name":"C5","midi":72,"time":"428.67","velocity":0.3228346456692913,"duration":"0.02"},{"name":"F5","midi":77,"time":"428.67","velocity":0.2204724409448819,"duration":"0.03"},{"name":"F#2","midi":42,"time":"428.69","velocity":0.47244094488188976,"duration":"0.03"},{"name":"F3","midi":53,"time":"428.69","velocity":0.3858267716535433,"duration":"0.02"},{"name":"F#4","midi":66,"time":"428.69","velocity":0.2677165354330709,"duration":"0.15"},{"name":"B4","midi":71,"time":"428.70","velocity":0.3779527559055118,"duration":"0.05"},{"name":"E5","midi":76,"time":"428.70","velocity":0.2047244094488189,"duration":"0.03"},{"name":"D6","midi":86,"time":"428.70","velocity":0.15748031496062992,"duration":"0.16"},{"name":"C7","midi":96,"time":"428.70","velocity":0.14173228346456693,"duration":"0.09"},{"name":"F#3","midi":54,"time":"428.71","velocity":0.5118110236220472,"duration":"0.20"},{"name":"G6","midi":91,"time":"428.72","velocity":0.14173228346456693,"duration":"0.07"},{"name":"F#2","midi":42,"time":"428.73","velocity":0.4881889763779528,"duration":"0.02"},{"name":"F7","midi":101,"time":"428.73","velocity":0.23622047244094488,"duration":"0.72"},{"name":"C5","midi":72,"time":"428.74","velocity":0.3464566929133858,"duration":"0.02"},{"name":"C#6","midi":85,"time":"428.74","velocity":0.25984251968503935,"duration":"0.21"},{"name":"B3","midi":59,"time":"428.77","velocity":0.31496062992125984,"duration":"0.02"},{"name":"B4","midi":71,"time":"428.77","velocity":0.4881889763779528,"duration":"0.19"},{"name":"D#6","midi":87,"time":"428.78","velocity":0.25196850393700787,"duration":"0.19"},{"name":"F#2","midi":42,"time":"428.79","velocity":0.49606299212598426,"duration":"0.02"},{"name":"C#4","midi":61,"time":"428.79","velocity":0.4015748031496063,"duration":"0.08"},{"name":"G#6","midi":92,"time":"428.79","velocity":0.2047244094488189,"duration":"0.09"},{"name":"E5","midi":76,"time":"428.80","velocity":0.13385826771653545,"duration":"0.03"},{"name":"F2","midi":41,"time":"428.81","velocity":0.48031496062992124,"duration":"0.02"},{"name":"F6","midi":89,"time":"428.81","velocity":0.11023622047244094,"duration":"0.06"},{"name":"C7","midi":96,"time":"428.81","velocity":0.15748031496062992,"duration":"0.14"},{"name":"F5","midi":77,"time":"428.86","velocity":0.23622047244094488,"duration":"0.03"},{"name":"G2","midi":43,"time":"428.87","velocity":0.5275590551181102,"duration":"0.01"},{"name":"D4","midi":62,"time":"428.87","velocity":0.36220472440944884,"duration":"0.03"},{"name":"A#6","midi":94,"time":"428.87","velocity":0.11023622047244094,"duration":"0.06"},{"name":"F#2","midi":42,"time":"428.88","velocity":0.5196850393700787,"duration":"0.01"},{"name":"G7","midi":103,"time":"428.88","velocity":0.2047244094488189,"duration":"0.14"},{"name":"F#2","midi":42,"time":"428.91","velocity":0.5118110236220472,"duration":"0.01"},{"name":"C#4","midi":61,"time":"428.91","velocity":0.3779527559055118,"duration":"0.03"},{"name":"G2","midi":43,"time":"428.92","velocity":0.5196850393700787,"duration":"0.01"},{"name":"G#6","midi":92,"time":"428.92","velocity":0.25984251968503935,"duration":"0.03"},{"name":"F#2","midi":42,"time":"428.93","velocity":0.5196850393700787,"duration":"0.03"},{"name":"F4","midi":65,"time":"428.93","velocity":0.4094488188976378,"duration":"0.02"},{"name":"G#3","midi":56,"time":"428.94","velocity":0.41732283464566927,"duration":"0.02"},{"name":"C6","midi":84,"time":"428.94","velocity":0.33070866141732286,"duration":"0.03"},{"name":"D6","midi":86,"time":"428.94","velocity":0.2755905511811024,"duration":"0.13"},{"name":"G6","midi":91,"time":"428.94","velocity":0.30708661417322836,"duration":"0.05"},{"name":"A#6","midi":94,"time":"428.94","velocity":0.2677165354330709,"duration":"0.16"},{"name":"G#4","midi":68,"time":"428.95","velocity":0.4566929133858268,"duration":"0.03"},{"name":"F5","midi":77,"time":"428.95","velocity":0.41732283464566927,"duration":"0.03"},{"name":"G3","midi":55,"time":"428.97","velocity":0.5039370078740157,"duration":"0.03"},{"name":"C#4","midi":61,"time":"428.97","velocity":0.5039370078740157,"duration":"0.03"},{"name":"G5","midi":79,"time":"428.97","velocity":0.30708661417322836,"duration":"0.02"},{"name":"G#6","midi":92,"time":"428.97","velocity":0.2283464566929134,"duration":"0.15"},{"name":"A4","midi":69,"time":"428.98","velocity":0.33858267716535434,"duration":"0.02"},{"name":"C5","midi":72,"time":"428.98","velocity":0.4094488188976378,"duration":"0.03"},{"name":"D5","midi":74,"time":"428.98","velocity":0.29133858267716534,"duration":"0.02"},{"name":"C#6","midi":85,"time":"428.98","velocity":0.25984251968503935,"duration":"0.05"},{"name":"F#6","midi":90,"time":"428.98","velocity":0.44881889763779526,"duration":"0.78"},{"name":"A2","midi":45,"time":"428.99","velocity":0.5118110236220472,"duration":"0.01"},{"name":"E5","midi":76,"time":"428.99","velocity":0.31496062992125984,"duration":"0.07"},{"name":"F#5","midi":78,"time":"428.99","velocity":0.3779527559055118,"duration":"0.14"},{"name":"D#6","midi":87,"time":"428.99","velocity":0.2204724409448819,"duration":"0.15"},{"name":"C7","midi":96,"time":"428.99","velocity":0.1889763779527559,"duration":"0.19"},{"name":"G#2","midi":44,"time":"429.00","velocity":0.5511811023622047,"duration":"0.03"},{"name":"A#5","midi":82,"time":"429.00","velocity":0.2283464566929134,"duration":"0.02"},{"name":"G6","midi":91,"time":"429.00","velocity":0.25984251968503935,"duration":"0.08"},{"name":"C#4","midi":61,"time":"429.01","velocity":0.33070866141732286,"duration":"0.02"},{"name":"F#4","midi":66,"time":"429.01","velocity":0.36220472440944884,"duration":"0.02"},{"name":"A#4","midi":70,"time":"429.01","velocity":0.3700787401574803,"duration":"0.02"},{"name":"C5","midi":72,"time":"429.02","velocity":0.4330708661417323,"duration":"0.03"},{"name":"A5","midi":81,"time":"429.02","velocity":0.33070866141732286,"duration":"0.15"},{"name":"D4","midi":62,"time":"429.03","velocity":0.3779527559055118,"duration":"0.02"},{"name":"C#6","midi":85,"time":"429.03","velocity":0.33858267716535434,"duration":"0.33"},{"name":"G#2","midi":44,"time":"429.05","velocity":0.4881889763779528,"duration":"0.07"},{"name":"F#4","midi":66,"time":"429.05","velocity":0.31496062992125984,"duration":"0.07"},{"name":"B4","midi":71,"time":"429.05","velocity":0.5275590551181102,"duration":"0.42"},{"name":"D#5","midi":75,"time":"429.05","velocity":0.25196850393700787,"duration":"0.02"},{"name":"G5","midi":79,"time":"429.05","velocity":0.3700787401574803,"duration":"0.06"},{"name":"C#4","midi":61,"time":"429.06","velocity":0.36220472440944884,"duration":"0.02"},{"name":"A4","midi":69,"time":"429.06","velocity":0.3228346456692913,"duration":"0.02"},{"name":"F5","midi":77,"time":"429.07","velocity":0.2677165354330709,"duration":"0.02"},{"name":"G#5","midi":80,"time":"429.07","velocity":0.2677165354330709,"duration":"0.02"},{"name":"C#5","midi":73,"time":"429.08","velocity":0.48031496062992124,"duration":"0.21"},{"name":"C#4","midi":61,"time":"429.09","velocity":0.4409448818897638,"duration":"0.02"},{"name":"E5","midi":76,"time":"429.09","velocity":0.3228346456692913,"duration":"0.03"},{"name":"D4","midi":62,"time":"429.12","velocity":0.33858267716535434,"duration":"0.02"},{"name":"G#4","midi":68,"time":"429.12","velocity":0.2992125984251969,"duration":"0.03"},{"name":"A#6","midi":94,"time":"429.12","velocity":0.16535433070866143,"duration":"0.03"},{"name":"G#2","midi":44,"time":"429.13","velocity":0.4881889763779528,"duration":"0.02"},{"name":"F5","midi":77,"time":"429.13","velocity":0.28346456692913385,"duration":"0.02"},{"name":"G#5","midi":80,"time":"429.13","velocity":0.31496062992125984,"duration":"0.07"},{"name":"G#6","midi":92,"time":"429.13","velocity":0.3228346456692913,"duration":"0.28"},{"name":"G7","midi":103,"time":"429.13","velocity":0.08661417322834646,"duration":"0.03"},{"name":"D#3","midi":51,"time":"429.14","velocity":0.4015748031496063,"duration":"0.09"},{"name":"F#5","midi":78,"time":"429.14","velocity":0.33070866141732286,"duration":"0.13"},{"name":"D6","midi":86,"time":"429.14","velocity":0.1889763779527559,"duration":"0.05"},{"name":"A4","midi":69,"time":"429.15","velocity":0.33070866141732286,"duration":"0.02"},{"name":"D#5","midi":75,"time":"429.15","velocity":0.23622047244094488,"duration":"0.02"},{"name":"G#2","midi":44,"time":"429.16","velocity":0.48031496062992124,"duration":"0.02"},{"name":"F6","midi":89,"time":"429.16","velocity":0.11811023622047244,"duration":"0.07"},{"name":"G6","midi":91,"time":"429.16","velocity":0.11811023622047244,"duration":"0.06"},{"name":"E5","midi":76,"time":"429.17","velocity":0.2440944881889764,"duration":"0.02"},{"name":"C#4","midi":61,"time":"429.19","velocity":0.4251968503937008,"duration":"0.02"},{"name":"G5","midi":79,"time":"429.19","velocity":0.2283464566929134,"duration":"0.02"},{"name":"G#2","midi":44,"time":"429.20","velocity":0.4409448818897638,"duration":"0.02"},{"name":"A4","midi":69,"time":"429.20","velocity":0.2755905511811024,"duration":"0.02"},{"name":"A5","midi":81,"time":"429.20","velocity":0.3779527559055118,"duration":"0.09"},{"name":"A#6","midi":94,"time":"429.20","velocity":0.1889763779527559,"duration":"0.08"},{"name":"C7","midi":96,"time":"429.20","velocity":0.11023622047244094,"duration":"0.03"},{"name":"G#5","midi":80,"time":"429.21","velocity":0.25196850393700787,"duration":"0.02"},{"name":"C#4","midi":61,"time":"429.22","velocity":0.4645669291338583,"duration":"0.03"},{"name":"G#2","midi":44,"time":"429.23","velocity":0.5196850393700787,"duration":"0.07"},{"name":"C6","midi":84,"time":"429.23","velocity":0.10236220472440945,"duration":"0.03"},{"name":"D#3","midi":51,"time":"429.24","velocity":0.3700787401574803,"duration":"0.02"},{"name":"A4","midi":69,"time":"429.24","velocity":0.36220472440944884,"duration":"0.02"},{"name":"F5","midi":77,"time":"429.24","velocity":0.2755905511811024,"duration":"0.09"},{"name":"C7","midi":96,"time":"429.26","velocity":0.1889763779527559,"duration":"0.07"},{"name":"C#4","midi":61,"time":"429.27","velocity":0.44881889763779526,"duration":"0.03"},{"name":"G#5","midi":80,"time":"429.28","velocity":0.4015748031496063,"duration":"0.12"},{"name":"D#6","midi":87,"time":"429.28","velocity":0.18110236220472442,"duration":"0.03"},{"name":"E6","midi":88,"time":"429.28","velocity":0.2204724409448819,"duration":"0.08"},{"name":"A4","midi":69,"time":"429.29","velocity":0.31496062992125984,"duration":"0.02"},{"name":"G6","midi":91,"time":"429.29","velocity":0.1889763779527559,"duration":"0.09"},{"name":"A#6","midi":94,"time":"429.29","velocity":0.2992125984251969,"duration":"0.85"},{"name":"G2","midi":43,"time":"429.30","velocity":0.5118110236220472,"duration":"0.01"},{"name":"C#5","midi":73,"time":"429.30","velocity":0.30708661417322836,"duration":"0.06"},{"name":"C#4","midi":61,"time":"429.31","velocity":0.3464566929133858,"duration":"0.02"},{"name":"G4","midi":67,"time":"429.31","velocity":0.28346456692913385,"duration":"0.02"},{"name":"F#5","midi":78,"time":"429.31","velocity":0.2755905511811024,"duration":"0.02"},{"name":"A6","midi":93,"time":"429.31","velocity":0.31496062992125984,"duration":"0.22"},{"name":"A2","midi":45,"time":"429.33","velocity":0.5433070866141733,"duration":"0.01"},{"name":"D#6","midi":87,"time":"429.33","velocity":0.23622047244094488,"duration":"0.12"},{"name":"D7","midi":98,"time":"429.33","velocity":0.25196850393700787,"duration":"0.05"},{"name":"F#2","midi":42,"time":"429.34","velocity":0.6299212598425197,"duration":"0.01"},{"name":"G5","midi":79,"time":"429.34","velocity":0.28346456692913385,"duration":"0.05"},{"name":"A5","midi":81,"time":"429.34","velocity":0.31496062992125984,"duration":"0.10"},{"name":"G7","midi":103,"time":"429.34","velocity":0.1889763779527559,"duration":"0.12"},{"name":"F2","midi":41,"time":"429.35","velocity":0.5905511811023622,"duration":"0.01"},{"name":"G#3","midi":56,"time":"429.35","velocity":0.4566929133858268,"duration":"0.02"},{"name":"C#4","midi":61,"time":"429.35","velocity":0.3779527559055118,"duration":"0.03"},{"name":"A4","midi":69,"time":"429.35","velocity":0.2755905511811024,"duration":"0.02"},{"name":"C7","midi":96,"time":"429.35","velocity":0.14960629921259844,"duration":"0.10"},{"name":"D#5","midi":75,"time":"429.36","velocity":0.30708661417322836,"duration":"0.05"},{"name":"F5","midi":77,"time":"429.36","velocity":0.25196850393700787,"duration":"0.02"},{"name":"D6","midi":86,"time":"429.36","velocity":0.16535433070866143,"duration":"0.05"},{"name":"A#2","midi":46,"time":"429.37","velocity":0.5433070866141733,"duration":"0.01"},{"name":"E6","midi":88,"time":"429.37","velocity":0.3543307086614173,"duration":"0.35"},{"name":"F1","midi":29,"time":"429.38","velocity":0.5826771653543307,"duration":"0.01"},{"name":"A2","midi":45,"time":"429.38","velocity":0.5511811023622047,"duration":"0.01"},{"name":"F#5","midi":78,"time":"429.38","velocity":0.2440944881889764,"duration":"0.05"},{"name":"D7","midi":98,"time":"429.38","velocity":0.23622047244094488,"duration":"0.24"},{"name":"F#1","midi":30,"time":"429.40","velocity":0.5590551181102362,"duration":"0.01"},{"name":"G#3","midi":56,"time":"429.40","velocity":0.4330708661417323,"duration":"0.07"},{"name":"C#4","midi":61,"time":"429.40","velocity":0.47244094488188976,"duration":"0.10"},{"name":"F2","midi":41,"time":"429.41","velocity":0.5511811023622047,"duration":"0.01"},{"name":"G4","midi":67,"time":"429.41","velocity":0.23622047244094488,"duration":"0.03"},{"name":"F6","midi":89,"time":"429.41","velocity":0.16535433070866143,"duration":"0.06"},{"name":"G#2","midi":44,"time":"429.42","velocity":0.5748031496062992,"duration":"0.12"},{"name":"F5","midi":77,"time":"429.42","velocity":0.25196850393700787,"duration":"0.07"},{"name":"D6","midi":86,"time":"429.42","velocity":0.1889763779527559,"duration":"0.05"},{"name":"G#6","midi":92,"time":"429.42","velocity":0.23622047244094488,"duration":"0.05"},{"name":"D#5","midi":75,"time":"429.43","velocity":0.23622047244094488,"duration":"0.09"},{"name":"G#5","midi":80,"time":"429.43","velocity":0.36220472440944884,"duration":"0.13"},{"name":"F#4","midi":66,"time":"429.47","velocity":0.12598425196850394,"duration":"0.03"},{"name":"F#5","midi":78,"time":"429.47","velocity":0.33070866141732286,"duration":"0.08"},{"name":"C7","midi":96,"time":"429.47","velocity":0.25196850393700787,"duration":"0.49"},{"name":"B4","midi":71,"time":"429.48","velocity":0.4094488188976378,"duration":"0.05"},{"name":"G6","midi":91,"time":"429.48","velocity":0.28346456692913385,"duration":"0.15"},{"name":"G#6","midi":92,"time":"429.48","velocity":0.4881889763779528,"duration":"5.44"},{"name":"D6","midi":86,"time":"429.49","velocity":0.2125984251968504,"duration":"0.05"},{"name":"F7","midi":101,"time":"429.49","velocity":0.36220472440944884,"duration":"1.40"},{"name":"D4","midi":62,"time":"429.50","velocity":0.48031496062992124,"duration":"0.02"},{"name":"E5","midi":76,"time":"429.50","velocity":0.33070866141732286,"duration":"0.20"},{"name":"E4","midi":64,"time":"429.52","velocity":0.4094488188976378,"duration":"0.03"},{"name":"G#4","midi":68,"time":"429.52","velocity":0.3464566929133858,"duration":"0.02"},{"name":"C5","midi":72,"time":"429.52","velocity":0.3779527559055118,"duration":"0.05"},{"name":"A5","midi":81,"time":"429.52","velocity":0.31496062992125984,"duration":"0.07"},{"name":"D#6","midi":87,"time":"429.52","velocity":0.2440944881889764,"duration":"0.02"},{"name":"G2","midi":43,"time":"429.53","velocity":0.5118110236220472,"duration":"0.02"},{"name":"F6","midi":89,"time":"429.53","velocity":0.1732283464566929,"duration":"0.03"},{"name":"D5","midi":74,"time":"429.55","velocity":0.2755905511811024,"duration":"0.02"},{"name":"G5","midi":79,"time":"429.55","velocity":0.2125984251968504,"duration":"0.03"},{"name":"D6","midi":86,"time":"429.55","velocity":0.29133858267716534,"duration":"0.12"},{"name":"G#2","midi":44,"time":"429.56","velocity":0.5275590551181102,"duration":"0.02"},{"name":"C#4","midi":61,"time":"429.56","velocity":0.4566929133858268,"duration":"0.02"},{"name":"F#5","midi":78,"time":"429.56","velocity":0.30708661417322836,"duration":"0.06"},{"name":"A#5","midi":82,"time":"429.56","velocity":0.5275590551181102,"duration":"0.02"},{"name":"G#4","midi":68,"time":"429.57","velocity":0.4330708661417323,"duration":"0.05"},{"name":"B4","midi":71,"time":"429.57","velocity":0.5118110236220472,"duration":"0.09"},{"name":"C4","midi":60,"time":"429.58","velocity":0.4330708661417323,"duration":"0.05"},{"name":"B5","midi":83,"time":"429.58","velocity":0.6062992125984252,"duration":"0.19"},{"name":"F6","midi":89,"time":"429.58","velocity":0.2755905511811024,"duration":"0.03"},{"name":"G#2","midi":44,"time":"429.59","velocity":0.5433070866141733,"duration":"0.09"},{"name":"C6","midi":84,"time":"429.59","velocity":0.2283464566929134,"duration":"0.02"},{"name":"C#5","midi":73,"time":"429.60","velocity":0.4094488188976378,"duration":"0.06"},{"name":"G4","midi":67,"time":"429.62","velocity":0.4015748031496063,"duration":"0.06"},{"name":"A5","midi":81,"time":"429.62","velocity":0.25196850393700787,"duration":"0.03"},{"name":"D#6","midi":87,"time":"429.63","velocity":0.2677165354330709,"duration":"0.16"},{"name":"C4","midi":60,"time":"429.64","velocity":0.44881889763779526,"duration":"0.02"},{"name":"E4","midi":64,"time":"429.64","velocity":0.3937007874015748,"duration":"0.06"},{"name":"F5","midi":77,"time":"429.64","velocity":0.2440944881889764,"duration":"0.02"},{"name":"G#5","midi":80,"time":"429.65","velocity":0.2755905511811024,"duration":"0.05"},{"name":"C6","midi":84,"time":"429.65","velocity":0.5196850393700787,"duration":"0.06"},{"name":"B3","midi":59,"time":"429.66","velocity":0.33858267716535434,"duration":"0.02"},{"name":"C5","midi":72,"time":"429.66","velocity":0.4015748031496063,"duration":"0.06"},{"name":"D5","midi":74,"time":"429.66","velocity":0.2204724409448819,"duration":"0.03"},{"name":"F#5","midi":78,"time":"429.66","velocity":0.2283464566929134,"duration":"0.03"},{"name":"C4","midi":60,"time":"429.69","velocity":0.30708661417322836,"duration":"0.03"},{"name":"F#4","midi":66,"time":"429.69","velocity":0.4094488188976378,"duration":"0.06"},{"name":"A4","midi":69,"time":"429.69","velocity":0.4094488188976378,"duration":"0.02"},{"name":"G5","midi":79,"time":"429.69","velocity":0.2992125984251969,"duration":"0.02"},{"name":"C#6","midi":85,"time":"429.69","velocity":0.25984251968503935,"duration":"0.02"},{"name":"G#2","midi":44,"time":"429.70","velocity":0.5669291338582677,"duration":"0.02"},{"name":"G#4","midi":68,"time":"429.70","velocity":0.3700787401574803,"duration":"0.02"},{"name":"C#5","midi":73,"time":"429.70","velocity":0.4251968503937008,"duration":"0.06"},{"name":"D#5","midi":75,"time":"429.70","velocity":0.4251968503937008,"duration":"0.10"},{"name":"F6","midi":89,"time":"429.71","velocity":0.14960629921259844,"duration":"0.07"},{"name":"F#2","midi":42,"time":"429.72","velocity":0.6377952755905512,"duration":"0.01"},{"name":"B4","midi":71,"time":"429.72","velocity":0.47244094488188976,"duration":"0.07"},{"name":"G5","midi":79,"time":"429.72","velocity":0.2677165354330709,"duration":"0.03"},{"name":"C6","midi":84,"time":"429.72","velocity":0.5039370078740157,"duration":"0.02"},{"name":"F2","midi":41,"time":"429.73","velocity":0.5354330708661418,"duration":"0.02"},{"name":"A5","midi":81,"time":"429.73","velocity":0.25196850393700787,"duration":"0.03"},{"name":"G4","midi":67,"time":"429.74","velocity":0.30708661417322836,"duration":"0.02"},{"name":"F#5","midi":78,"time":"429.74","velocity":0.2755905511811024,"duration":"0.08"},{"name":"E6","midi":88,"time":"429.74","velocity":0.3228346456692913,"duration":"0.35"},{"name":"B1","midi":35,"time":"429.76","velocity":0.5275590551181102,"duration":"0.01"},{"name":"G#2","midi":44,"time":"429.76","velocity":0.5590551181102362,"duration":"0.02"},{"name":"A3","midi":57,"time":"429.76","velocity":0.41732283464566927,"duration":"0.02"},{"name":"E4","midi":64,"time":"429.76","velocity":0.28346456692913385,"duration":"0.02"},{"name":"G#5","midi":80,"time":"429.76","velocity":0.33858267716535434,"duration":"0.13"},{"name":"G1","midi":31,"time":"429.77","velocity":0.5433070866141733,"duration":"0.01"},{"name":"C#4","midi":61,"time":"429.77","velocity":0.33070866141732286,"duration":"0.16"},{"name":"E5","midi":76,"time":"429.77","velocity":0.47244094488188976,"duration":"0.35"},{"name":"C6","midi":84,"time":"429.77","velocity":0.5196850393700787,"duration":"0.03"},{"name":"F#6","midi":90,"time":"429.77","velocity":0.28346456692913385,"duration":"0.14"},{"name":"A2","midi":45,"time":"429.78","velocity":0.5905511811023622,"duration":"0.29"},{"name":"G6","midi":91,"time":"429.78","velocity":0.2992125984251969,"duration":"0.84"},{"name":"G4","midi":67,"time":"429.79","velocity":0.30708661417322836,"duration":"0.02"},{"name":"C5","midi":72,"time":"429.79","velocity":0.4645669291338583,"duration":"0.02"},{"name":"A5","midi":81,"time":"429.79","velocity":0.3543307086614173,"duration":"0.19"},{"name":"C#6","midi":85,"time":"429.79","velocity":0.5118110236220472,"duration":"0.03"},{"name":"B4","midi":71,"time":"429.81","velocity":0.3700787401574803,"duration":"0.02"},{"name":"C#5","midi":73,"time":"429.81","velocity":0.5354330708661418,"duration":"0.20"},{"name":"B5","midi":83,"time":"429.81","velocity":0.3700787401574803,"duration":"0.17"},{"name":"C6","midi":84,"time":"429.81","velocity":0.5433070866141733,"duration":"0.02"},{"name":"E3","midi":52,"time":"429.83","velocity":0.4645669291338583,"duration":"0.09"},{"name":"F#4","midi":66,"time":"429.83","velocity":0.30708661417322836,"duration":"0.05"},{"name":"F5","midi":77,"time":"429.83","velocity":0.4094488188976378,"duration":"0.02"},{"name":"D6","midi":86,"time":"429.83","velocity":0.33070866141732286,"duration":"0.05"},{"name":"B4","midi":71,"time":"429.85","velocity":0.2677165354330709,"duration":"0.02"},{"name":"F#5","midi":78,"time":"429.85","velocity":0.4015748031496063,"duration":"0.02"},{"name":"C6","midi":84,"time":"429.86","velocity":0.5511811023622047,"duration":"0.02"},{"name":"G5","midi":79,"time":"429.87","velocity":0.4251968503937008,"duration":"0.06"},{"name":"C#6","midi":85,"time":"429.87","velocity":0.7007874015748031,"duration":"0.97"},{"name":"D#6","midi":87,"time":"429.87","velocity":0.09448818897637795,"duration":"0.03"},{"name":"F#4","midi":66,"time":"429.88","velocity":0.25196850393700787,"duration":"0.02"},{"name":"B4","midi":71,"time":"429.88","velocity":0.33858267716535434,"duration":"0.06"},{"name":"D7","midi":98,"time":"429.91","velocity":0.2204724409448819,"duration":"0.06"},{"name":"E3","midi":52,"time":"429.93","velocity":0.4330708661417323,"duration":"0.02"},{"name":"G#5","midi":80,"time":"429.93","velocity":0.3858267716535433,"duration":"0.15"},{"name":"D#6","midi":87,"time":"429.93","velocity":0.09448818897637795,"duration":"0.03"},{"name":"C#4","midi":61,"time":"429.94","velocity":0.33858267716535434,"duration":"0.14"},{"name":"F#5","midi":78,"time":"429.94","velocity":0.28346456692913385,"duration":"0.17"},{"name":"E3","midi":52,"time":"429.97","velocity":0.3464566929133858,"duration":"0.02"},{"name":"C7","midi":96,"time":"429.97","velocity":0.25984251968503935,"duration":"0.43"},{"name":"D#6","midi":87,"time":"429.98","velocity":0.15748031496062992,"duration":"0.05"},{"name":"F6","midi":89,"time":"429.98","velocity":0.14173228346456693,"duration":"0.06"},{"name":"E4","midi":64,"time":"429.99","velocity":0.36220472440944884,"duration":"0.10"},{"name":"A5","midi":81,"time":"429.99","velocity":0.41732283464566927,"duration":"0.07"},{"name":"C6","midi":84,"time":"429.99","velocity":0.3543307086614173,"duration":"0.02"},{"name":"D7","midi":98,"time":"429.99","velocity":0.2440944881889764,"duration":"0.07"},{"name":"B4","midi":71,"time":"430.01","velocity":0.2992125984251969,"duration":"0.07"},{"name":"C#5","midi":73,"time":"430.02","velocity":0.48031496062992124,"duration":"0.14"},{"name":"B5","midi":83,"time":"430.02","velocity":0.33070866141732286,"duration":"0.02"},{"name":"C6","midi":84,"time":"430.02","velocity":0.5354330708661418,"duration":"0.14"},{"name":"E3","midi":52,"time":"430.03","velocity":0.2992125984251969,"duration":"0.02"},{"name":"D#6","midi":87,"time":"430.03","velocity":0.2125984251968504,"duration":"0.17"},{"name":"A#5","midi":82,"time":"430.05","velocity":0.2125984251968504,"duration":"0.03"},{"name":"F3","midi":53,"time":"430.06","velocity":0.3543307086614173,"duration":"0.03"},{"name":"F#4","midi":66,"time":"430.06","velocity":0.2677165354330709,"duration":"0.02"},{"name":"G#2","midi":44,"time":"430.07","velocity":0.5590551181102362,"duration":"0.01"},{"name":"D7","midi":98,"time":"430.07","velocity":0.2283464566929134,"duration":"0.06"},{"name":"A2","midi":45,"time":"430.08","velocity":0.5433070866141733,"duration":"0.02"},{"name":"A5","midi":81,"time":"430.08","velocity":0.4409448818897638,"duration":"0.30"},{"name":"F6","midi":89,"time":"430.08","velocity":0.2125984251968504,"duration":"0.07"},{"name":"B5","midi":83,"time":"430.09","velocity":0.3779527559055118,"duration":"0.03"},{"name":"A#2","midi":46,"time":"430.10","velocity":0.5118110236220472,"duration":"0.02"},{"name":"F5","midi":77,"time":"430.12","velocity":0.29133858267716534,"duration":"0.02"},{"name":"E6","midi":88,"time":"430.12","velocity":0.2440944881889764,"duration":"0.19"},{"name":"G#2","midi":44,"time":"430.13","velocity":0.5669291338582677,"duration":"0.02"},{"name":"C#4","midi":61,"time":"430.13","velocity":0.3858267716535433,"duration":"0.31"},{"name":"E4","midi":64,"time":"430.13","velocity":0.3464566929133858,"duration":"0.03"},{"name":"F#5","midi":78,"time":"430.13","velocity":0.2992125984251969,"duration":"0.13"},{"name":"E5","midi":76,"time":"430.14","velocity":0.3779527559055118,"duration":"0.05"},{"name":"B6","midi":95,"time":"430.14","velocity":0.2677165354330709,"duration":"0.43"},{"name":"A2","midi":45,"time":"430.15","velocity":0.5669291338582677,"duration":"0.06"},{"name":"G4","midi":67,"time":"430.15","velocity":0.3700787401574803,"duration":"0.03"},{"name":"D7","midi":98,"time":"430.16","velocity":0.23622047244094488,"duration":"0.16"},{"name":"C#5","midi":73,"time":"430.17","velocity":0.5905511811023622,"duration":"1.33"},{"name":"A#6","midi":94,"time":"430.17","velocity":0.2440944881889764,"duration":"0.19"},{"name":"D#5","midi":75,"time":"430.19","velocity":0.36220472440944884,"duration":"0.02"},{"name":"F#4","midi":66,"time":"430.20","velocity":0.30708661417322836,"duration":"0.05"},{"name":"E5","midi":76,"time":"430.20","velocity":0.2440944881889764,"duration":"0.02"},{"name":"B5","midi":83,"time":"430.20","velocity":0.33858267716535434,"duration":"0.26"},{"name":"F6","midi":89,"time":"430.20","velocity":0.15748031496062992,"duration":"0.05"},{"name":"G#2","midi":44,"time":"430.21","velocity":0.5275590551181102,"duration":"0.01"},{"name":"A2","midi":45,"time":"430.22","velocity":0.5590551181102362,"duration":"0.08"},{"name":"C6","midi":84,"time":"430.22","velocity":0.3543307086614173,"duration":"0.02"},{"name":"D6","midi":86,"time":"430.22","velocity":0.48031496062992124,"duration":"0.03"},{"name":"B4","midi":71,"time":"430.23","velocity":0.2677165354330709,"duration":"0.02"},{"name":"E5","midi":76,"time":"430.23","velocity":0.4566929133858268,"duration":"0.27"},{"name":"E3","midi":52,"time":"430.24","velocity":0.3937007874015748,"duration":"0.02"},{"name":"D#6","midi":87,"time":"430.27","velocity":0.2755905511811024,"duration":"0.06"},{"name":"F6","midi":89,"time":"430.27","velocity":0.15748031496062992,"duration":"0.10"},{"name":"E3","midi":52,"time":"430.28","velocity":0.3543307086614173,"duration":"0.02"},{"name":"G4","midi":67,"time":"430.28","velocity":0.2677165354330709,"duration":"0.02"},{"name":"F#5","midi":78,"time":"430.30","velocity":0.23622047244094488,"duration":"0.02"},{"name":"G#2","midi":44,"time":"430.31","velocity":0.5118110236220472,"duration":"0.01"},{"name":"A3","midi":57,"time":"430.33","velocity":0.30708661417322836,"duration":"0.02"},{"name":"G#5","midi":80,"time":"430.33","velocity":0.3464566929133858,"duration":"0.02"},{"name":"D6","midi":86,"time":"430.33","velocity":0.4015748031496063,"duration":"0.07"},{"name":"A2","midi":45,"time":"430.35","velocity":0.5196850393700787,"duration":"0.02"},{"name":"B4","midi":71,"time":"430.35","velocity":0.2125984251968504,"duration":"0.06"},{"name":"F#4","midi":66,"time":"430.36","velocity":0.3464566929133858,"duration":"0.05"},{"name":"G#5","midi":80,"time":"430.36","velocity":0.3464566929133858,"duration":"0.05"},{"name":"A#2","midi":46,"time":"430.37","velocity":0.5196850393700787,"duration":"0.01"},{"name":"A2","midi":45,"time":"430.38","velocity":0.5511811023622047,"duration":"0.02"},{"name":"E3","midi":52,"time":"430.38","velocity":0.3464566929133858,"duration":"0.06"},{"name":"A5","midi":81,"time":"430.40","velocity":0.41732283464566927,"duration":"0.08"},{"name":"A#2","midi":46,"time":"430.41","velocity":0.5196850393700787,"duration":"0.01"},{"name":"A#6","midi":94,"time":"430.41","velocity":0.25984251968503935,"duration":"0.17"},{"name":"A2","midi":45,"time":"430.42","velocity":0.5590551181102362,"duration":"0.01"},{"name":"G#5","midi":80,"time":"430.42","velocity":0.25984251968503935,"duration":"0.02"},{"name":"D#6","midi":87,"time":"430.42","velocity":0.25196850393700787,"duration":"0.06"},{"name":"G#2","midi":44,"time":"430.43","velocity":0.5196850393700787,"duration":"0.01"},{"name":"A2","midi":45,"time":"430.44","velocity":0.5354330708661418,"duration":"0.05"},{"name":"F3","midi":53,"time":"430.44","velocity":0.3700787401574803,"duration":"0.02"},{"name":"E4","midi":64,"time":"430.44","velocity":0.2283464566929134,"duration":"0.02"},{"name":"G4","midi":67,"time":"430.44","velocity":0.31496062992125984,"duration":"0.02"},{"name":"G5","midi":79,"time":"430.44","velocity":0.33070866141732286,"duration":"0.03"},{"name":"D6","midi":86,"time":"430.44","velocity":0.44881889763779526,"duration":"0.05"},{"name":"F#7","midi":102,"time":"430.44","velocity":0.4015748031496063,"duration":"17.72"},{"name":"G#5","midi":80,"time":"430.45","velocity":0.41732283464566927,"duration":"0.09"},{"name":"A#5","midi":82,"time":"430.45","velocity":0.2440944881889764,"duration":"0.02"},{"name":"C6","midi":84,"time":"430.45","velocity":0.2204724409448819,"duration":"0.03"},{"name":"G#4","midi":68,"time":"430.47","velocity":0.44881889763779526,"duration":"0.02"},{"name":"F6","midi":89,"time":"430.47","velocity":0.2755905511811024,"duration":"0.05"},{"name":"F#6","midi":90,"time":"430.47","velocity":0.2204724409448819,"duration":"0.14"},{"name":"F#1","midi":30,"time":"430.48","velocity":0.3543307086614173,"duration":"0.02"},{"name":"E4","midi":64,"time":"430.48","velocity":0.49606299212598426,"duration":"0.02"},{"name":"F#5","midi":78,"time":"430.48","velocity":0.3779527559055118,"duration":"0.03"},{"name":"B5","midi":83,"time":"430.48","velocity":0.25984251968503935,"duration":"0.03"},{"name":"F#4","midi":66,"time":"430.49","velocity":0.3858267716535433,"duration":"0.02"},{"name":"A4","midi":69,"time":"430.49","velocity":0.4330708661417323,"duration":"0.02"},{"name":"A#5","midi":82,"time":"430.49","velocity":0.2440944881889764,"duration":"0.02"},{"name":"D#6","midi":87,"time":"430.49","velocity":0.3464566929133858,"duration":"0.02"},{"name":"D#5","midi":75,"time":"430.50","velocity":0.3937007874015748,"duration":"0.03"},{"name":"G#2","midi":44,"time":"430.51","velocity":0.5196850393700787,"duration":"0.01"},{"name":"B4","midi":71,"time":"430.51","velocity":0.36220472440944884,"duration":"0.03"},{"name":"F5","midi":77,"time":"430.51","velocity":0.25196850393700787,"duration":"0.02"},{"name":"G5","midi":79,"time":"430.51","velocity":0.2992125984251969,"duration":"0.05"},{"name":"A5","midi":81,"time":"430.51","velocity":0.2992125984251969,"duration":"0.02"},{"name":"D6","midi":86,"time":"430.51","velocity":0.49606299212598426,"duration":"0.06"},{"name":"A2","midi":45,"time":"430.52","velocity":0.5590551181102362,"duration":"0.22"},{"name":"F4","midi":65,"time":"430.52","velocity":0.4015748031496063,"duration":"0.02"},{"name":"E5","midi":76,"time":"430.53","velocity":0.3937007874015748,"duration":"0.74"},{"name":"F#5","midi":78,"time":"430.53","velocity":0.3228346456692913,"duration":"0.21"},{"name":"C7","midi":96,"time":"430.53","velocity":0.2283464566929134,"duration":"0.02"},{"name":"E4","midi":64,"time":"430.55","velocity":0.3779527559055118,"duration":"0.05"},{"name":"G#4","midi":68,"time":"430.55","velocity":0.4094488188976378,"duration":"0.02"},{"name":"A5","midi":81,"time":"430.55","velocity":0.30708661417322836,"duration":"0.08"},{"name":"D#6","midi":87,"time":"430.55","velocity":0.2755905511811024,"duration":"0.10"},{"name":"F6","midi":89,"time":"430.56","velocity":0.1968503937007874,"duration":"0.03"},{"name":"B4","midi":71,"time":"430.58","velocity":0.31496062992125984,"duration":"0.03"},{"name":"B6","midi":95,"time":"430.58","velocity":0.3700787401574803,"duration":"1.03"},{"name":"F#4","midi":66,"time":"430.59","velocity":0.36220472440944884,"duration":"0.05"},{"name":"A#6","midi":94,"time":"430.59","velocity":0.2677165354330709,"duration":"0.26"},{"name":"D#4","midi":63,"time":"430.60","velocity":0.2440944881889764,"duration":"0.03"},{"name":"F6","midi":89,"time":"430.60","velocity":0.14173228346456693,"duration":"0.12"},{"name":"C7","midi":96,"time":"430.60","velocity":0.16535433070866143,"duration":"0.15"},{"name":"G4","midi":67,"time":"430.63","velocity":0.23622047244094488,"duration":"0.03"},{"name":"G6","midi":91,"time":"430.63","velocity":0.13385826771653545,"duration":"0.05"},{"name":"B5","midi":83,"time":"430.64","velocity":0.1889763779527559,"duration":"0.03"},{"name":"A#5","midi":82,"time":"430.66","velocity":0.1732283464566929,"duration":"0.06"},{"name":"F#4","midi":66,"time":"430.67","velocity":0.25984251968503935,"duration":"0.05"},{"name":"G#5","midi":80,"time":"430.71","velocity":0.3228346456692913,"duration":"0.07"},{"name":"B5","midi":83,"time":"430.71","velocity":0.18110236220472442,"duration":"0.03"},{"name":"E3","midi":52,"time":"430.72","velocity":0.25196850393700787,"duration":"0.02"},{"name":"C#4","midi":61,"time":"430.72","velocity":0.25984251968503935,"duration":"0.09"},{"name":"G6","midi":91,"time":"430.72","velocity":0.14173228346456693,"duration":"0.05"},{"name":"F#4","midi":66,"time":"430.73","velocity":0.2204724409448819,"duration":"0.05"},{"name":"A5","midi":81,"time":"430.74","velocity":0.3700787401574803,"duration":"0.10"},{"name":"C6","midi":84,"time":"430.74","velocity":0.2283464566929134,"duration":"0.03"},{"name":"D#6","midi":87,"time":"430.74","velocity":0.11023622047244094,"duration":"0.03"},{"name":"A2","midi":45,"time":"430.76","velocity":0.4881889763779528,"duration":"0.05"},{"name":"G5","midi":79,"time":"430.77","velocity":0.28346456692913385,"duration":"0.06"},{"name":"F6","midi":89,"time":"430.77","velocity":0.08661417322834646,"duration":"0.03"},{"name":"D6","midi":86,"time":"430.78","velocity":0.11023622047244094,"duration":"0.03"},{"name":"C7","midi":96,"time":"430.78","velocity":0.2125984251968504,"duration":"0.13"},{"name":"F#4","midi":66,"time":"430.79","velocity":0.2992125984251969,"duration":"0.05"},{"name":"B5","midi":83,"time":"430.79","velocity":0.25984251968503935,"duration":"0.05"},{"name":"B4","midi":71,"time":"430.80","velocity":0.2440944881889764,"duration":"0.03"},{"name":"F#6","midi":90,"time":"430.80","velocity":0.41732283464566927,"duration":"0.44"},{"name":"A2","midi":45,"time":"430.81","velocity":0.5196850393700787,"duration":"0.02"},{"name":"D4","midi":62,"time":"430.81","velocity":0.2283464566929134,"duration":"0.03"},{"name":"D7","midi":98,"time":"430.81","velocity":0.25196850393700787,"duration":"0.02"},{"name":"A#3","midi":58,"time":"430.83","velocity":0.30708661417322836,"duration":"0.03"},{"name":"D6","midi":86,"time":"430.83","velocity":0.5196850393700787,"duration":"0.03"},{"name":"G#2","midi":44,"time":"430.84","velocity":0.5196850393700787,"duration":"0.02"},{"name":"E4","midi":64,"time":"430.84","velocity":0.3543307086614173,"duration":"0.05"},{"name":"G#5","midi":80,"time":"430.84","velocity":0.4094488188976378,"duration":"0.33"},{"name":"C6","midi":84,"time":"430.84","velocity":0.29133858267716534,"duration":"0.03"},{"name":"D#6","midi":87,"time":"430.84","velocity":0.2204724409448819,"duration":"0.05"},{"name":"F6","midi":89,"time":"430.84","velocity":0.18110236220472442,"duration":"0.06"},{"name":"C#4","midi":61,"time":"430.85","velocity":0.3858267716535433,"duration":"0.08"},{"name":"C#6","midi":85,"time":"430.85","velocity":0.7244094488188977,"duration":"2.03"},{"name":"A6","midi":93,"time":"430.85","velocity":0.25196850393700787,"duration":"0.08"},{"name":"A3","midi":57,"time":"430.86","velocity":0.4881889763779528,"duration":"0.34"},{"name":"G#4","midi":68,"time":"430.86","velocity":0.2677165354330709,"duration":"0.02"},{"name":"B4","midi":71,"time":"430.86","velocity":0.3464566929133858,"duration":"0.02"},{"name":"A#6","midi":94,"time":"430.86","velocity":0.23622047244094488,"duration":"0.33"},{"name":"A#2","midi":46,"time":"430.87","velocity":0.5118110236220472,"duration":"0.02"},{"name":"F#5","midi":78,"time":"430.87","velocity":0.1732283464566929,"duration":"0.03"},{"name":"B5","midi":83,"time":"430.87","velocity":0.5826771653543307,"duration":"0.40"},{"name":"A2","midi":45,"time":"430.90","velocity":0.5748031496062992,"duration":"0.17"},{"name":"E4","midi":64,"time":"430.90","velocity":0.3543307086614173,"duration":"0.12"},{"name":"B4","midi":71,"time":"430.90","velocity":0.49606299212598426,"duration":"0.10"},{"name":"F7","midi":101,"time":"430.90","velocity":0.25196850393700787,"duration":"0.26"},{"name":"G4","midi":67,"time":"430.91","velocity":0.2755905511811024,"duration":"0.02"},{"name":"F6","midi":89,"time":"430.91","velocity":0.13385826771653545,"duration":"0.06"},{"name":"C7","midi":96,"time":"430.92","velocity":0.2283464566929134,"duration":"0.19"},{"name":"G5","midi":79,"time":"430.94","velocity":0.23622047244094488,"duration":"0.03"},{"name":"D#6","midi":87,"time":"430.94","velocity":0.1732283464566929,"duration":"0.05"},{"name":"D6","midi":86,"time":"430.97","velocity":0.1732283464566929,"duration":"0.05"},{"name":"C#4","midi":61,"time":"430.98","velocity":0.3228346456692913,"duration":"0.06"},{"name":"G4","midi":67,"time":"430.98","velocity":0.2755905511811024,"duration":"0.03"},{"name":"F#5","midi":78,"time":"430.98","velocity":0.2755905511811024,"duration":"0.07"},{"name":"B4","midi":71,"time":"431.01","velocity":0.33070866141732286,"duration":"0.10"},{"name":"D#6","midi":87,"time":"431.01","velocity":0.1889763779527559,"duration":"0.07"},{"name":"D7","midi":98,"time":"431.01","velocity":0.2047244094488189,"duration":"0.10"},{"name":"G7","midi":103,"time":"431.01","velocity":0.14960629921259844,"duration":"0.10"},{"name":"A6","midi":93,"time":"431.02","velocity":0.33858267716535434,"duration":"0.35"},{"name":"D4","midi":62,"time":"431.03","velocity":0.31496062992125984,"duration":"0.02"},{"name":"G6","midi":91,"time":"431.03","velocity":0.18110236220472442,"duration":"0.03"},{"name":"E4","midi":64,"time":"431.06","velocity":0.3779527559055118,"duration":"0.16"},{"name":"F#5","midi":78,"time":"431.06","velocity":0.28346456692913385,"duration":"0.20"},{"name":"A#2","midi":46,"time":"431.07","velocity":0.5433070866141733,"duration":"0.01"},{"name":"D6","midi":86,"time":"431.07","velocity":0.2283464566929134,"duration":"0.05"},{"name":"A2","midi":45,"time":"431.08","velocity":0.5826771653543307,"duration":"0.12"},{"name":"A#5","midi":82,"time":"431.08","velocity":0.1968503937007874,"duration":"0.03"},{"name":"G4","midi":67,"time":"431.09","velocity":0.1968503937007874,"duration":"0.05"},{"name":"E3","midi":52,"time":"431.12","velocity":0.36220472440944884,"duration":"0.02"},{"name":"F6","midi":89,"time":"431.12","velocity":0.2047244094488189,"duration":"0.24"},{"name":"C7","midi":96,"time":"431.13","velocity":0.2283464566929134,"duration":"0.30"},{"name":"D7","midi":98,"time":"431.13","velocity":0.1968503937007874,"duration":"0.12"},{"name":"C#4","midi":61,"time":"431.14","velocity":0.2677165354330709,"duration":"0.06"},{"name":"E3","midi":52,"time":"431.15","velocity":0.2677165354330709,"duration":"0.02"},{"name":"D6","midi":86,"time":"431.15","velocity":0.33858267716535434,"duration":"0.02"},{"name":"B4","midi":71,"time":"431.17","velocity":0.4251968503937008,"duration":"0.13"},{"name":"G#5","midi":80,"time":"431.17","velocity":0.23622047244094488,"duration":"0.02"},{"name":"D#6","midi":87,"time":"431.17","velocity":0.3700787401574803,"duration":"0.10"},{"name":"G6","midi":91,"time":"431.17","velocity":0.1889763779527559,"duration":"0.06"},{"name":"F7","midi":101,"time":"431.17","velocity":0.2283464566929134,"duration":"0.16"},{"name":"A5","midi":81,"time":"431.19","velocity":0.4330708661417323,"duration":"0.37"},{"name":"F#2","midi":42,"time":"431.20","velocity":0.5196850393700787,"duration":"0.01"},{"name":"A#2","midi":46,"time":"431.20","velocity":0.5275590551181102,"duration":"0.01"},{"name":"A#6","midi":94,"time":"431.20","velocity":0.2204724409448819,"duration":"0.48"},{"name":"D#2","midi":39,"time":"431.21","velocity":0.5433070866141733,"duration":"0.01"},{"name":"B2","midi":47,"time":"431.21","velocity":0.5118110236220472,"duration":"0.01"},{"name":"E2","midi":40,"time":"431.22","velocity":0.6220472440944882,"duration":"0.01"},{"name":"D4","midi":62,"time":"431.22","velocity":0.29133858267716534,"duration":"0.03"},{"name":"G2","midi":43,"time":"431.23","velocity":0.5354330708661418,"duration":"0.01"},{"name":"A4","midi":69,"time":"431.23","velocity":0.31496062992125984,"duration":"0.03"},{"name":"G5","midi":79,"time":"431.24","velocity":0.2677165354330709,"duration":"0.07"},{"name":"G6","midi":91,"time":"431.24","velocity":0.36220472440944884,"duration":"0.02"},{"name":"A3","midi":57,"time":"431.26","velocity":0.3700787401574803,"duration":"0.02"},{"name":"E4","midi":64,"time":"431.26","velocity":0.3779527559055118,"duration":"0.27"},{"name":"F#6","midi":90,"time":"431.26","velocity":0.29133858267716534,"duration":"0.33"},{"name":"D7","midi":98,"time":"431.26","velocity":0.29133858267716534,"duration":"0.33"},{"name":"A2","midi":45,"time":"431.27","velocity":0.5590551181102362,"duration":"0.03"},{"name":"C#4","midi":61,"time":"431.27","velocity":0.33858267716535434,"duration":"0.22"},{"name":"G4","midi":67,"time":"431.27","velocity":0.25984251968503935,"duration":"0.02"},{"name":"G#5","midi":80,"time":"431.27","velocity":0.29133858267716534,"duration":"0.02"},{"name":"D#5","midi":75,"time":"431.28","velocity":0.3228346456692913,"duration":"0.06"},{"name":"B5","midi":83,"time":"431.28","velocity":0.4251968503937008,"duration":"0.59"},{"name":"D6","midi":86,"time":"431.28","velocity":0.41732283464566927,"duration":"0.06"},{"name":"E5","midi":76,"time":"431.29","velocity":0.4566929133858268,"duration":"0.20"},{"name":"A#2","midi":46,"time":"431.30","velocity":0.5354330708661418,"duration":"0.01"},{"name":"F#5","midi":78,"time":"431.30","velocity":0.2677165354330709,"duration":"0.02"},{"name":"G#5","midi":80,"time":"431.30","velocity":0.2283464566929134,"duration":"0.03"},{"name":"A2","midi":45,"time":"431.31","velocity":0.5433070866141733,"duration":"0.03"},{"name":"G5","midi":79,"time":"431.33","velocity":0.2047244094488189,"duration":"0.06"},{"name":"F5","midi":77,"time":"431.34","velocity":0.31496062992125984,"duration":"0.02"},{"name":"D#6","midi":87,"time":"431.34","velocity":0.36220472440944884,"duration":"0.09"},{"name":"B4","midi":71,"time":"431.35","velocity":0.25984251968503935,"duration":"0.02"},{"name":"F7","midi":101,"time":"431.35","velocity":0.25196850393700787,"duration":"0.53"},{"name":"A2","midi":45,"time":"431.36","velocity":0.5354330708661418,"duration":"0.05"},{"name":"C6","midi":84,"time":"431.36","velocity":0.29133858267716534,"duration":"0.03"},{"name":"G#4","midi":68,"time":"431.37","velocity":0.23622047244094488,"duration":"0.02"},{"name":"G7","midi":103,"time":"431.37","velocity":0.11811023622047244,"duration":"0.08"},{"name":"G#5","midi":80,"time":"431.38","velocity":0.25196850393700787,"duration":"0.05"},{"name":"G6","midi":91,"time":"431.38","velocity":0.2047244094488189,"duration":"0.23"},{"name":"A4","midi":69,"time":"431.40","velocity":0.44881889763779526,"duration":"0.22"},{"name":"F#5","midi":78,"time":"431.40","velocity":0.14173228346456693,"duration":"0.05"},{"name":"F6","midi":89,"time":"431.40","velocity":0.14173228346456693,"duration":"0.09"},{"name":"G#2","midi":44,"time":"431.41","velocity":0.5433070866141733,"duration":"0.01"},{"name":"A2","midi":45,"time":"431.42","velocity":0.5118110236220472,"duration":"0.02"},{"name":"D6","midi":86,"time":"431.43","velocity":0.3937007874015748,"duration":"0.06"},{"name":"G#2","midi":44,"time":"431.44","velocity":0.5196850393700787,"duration":"0.01"},{"name":"E3","midi":52,"time":"431.44","velocity":0.3937007874015748,"duration":"0.06"},{"name":"B4","midi":71,"time":"431.44","velocity":0.28346456692913385,"duration":"0.12"},{"name":"C7","midi":96,"time":"431.44","velocity":0.1968503937007874,"duration":"0.08"},{"name":"A2","midi":45,"time":"431.45","velocity":0.5118110236220472,"duration":"0.02"},{"name":"G5","midi":79,"time":"431.45","velocity":0.2755905511811024,"duration":"0.09"},{"name":"G#2","midi":44,"time":"431.48","velocity":0.5354330708661418,"duration":"0.01"},{"name":"D#5","midi":75,"time":"431.49","velocity":0.1889763779527559,"duration":"0.03"},{"name":"A#5","midi":82,"time":"431.49","velocity":0.2125984251968504,"duration":"0.05"},{"name":"D#6","midi":87,"time":"431.49","velocity":0.33858267716535434,"duration":"0.12"},{"name":"A#2","midi":46,"time":"431.50","velocity":0.5118110236220472,"duration":"0.01"},{"name":"C#4","midi":61,"time":"431.50","velocity":0.33070866141732286,"duration":"0.08"},{"name":"A2","midi":45,"time":"431.51","velocity":0.5275590551181102,"duration":"0.02"},{"name":"F#4","midi":66,"time":"431.51","velocity":0.29133858267716534,"duration":"0.02"},{"name":"C#5","midi":73,"time":"431.52","velocity":0.3937007874015748,"duration":"0.07"},{"name":"E5","midi":76,"time":"431.52","velocity":0.36220472440944884,"duration":"0.03"},{"name":"G#5","midi":80,"time":"431.52","velocity":0.29133858267716534,"duration":"0.06"},{"name":"G#2","midi":44,"time":"431.55","velocity":0.5196850393700787,"duration":"0.01"},{"name":"E3","midi":52,"time":"431.55","velocity":0.3937007874015748,"duration":"0.03"},{"name":"F5","midi":77,"time":"431.55","velocity":0.2125984251968504,"duration":"0.03"},{"name":"A#2","midi":46,"time":"431.57","velocity":0.5354330708661418,"duration":"0.01"},{"name":"F6","midi":89,"time":"431.57","velocity":0.2125984251968504,"duration":"0.07"},{"name":"A2","midi":45,"time":"431.58","velocity":0.6692913385826772,"duration":"0.01"},{"name":"D4","midi":62,"time":"431.58","velocity":0.2677165354330709,"duration":"0.02"},{"name":"F#4","midi":66,"time":"431.58","velocity":0.28346456692913385,"duration":"0.05"},{"name":"E5","midi":76,"time":"431.58","velocity":0.2755905511811024,"duration":"0.06"},{"name":"F#5","midi":78,"time":"431.58","velocity":0.3543307086614173,"duration":"0.44"},{"name":"F#2","midi":42,"time":"431.59","velocity":0.6456692913385826,"duration":"0.05"},{"name":"C7","midi":96,"time":"431.59","velocity":0.2125984251968504,"duration":"0.05"},{"name":"D7","midi":98,"time":"431.59","velocity":0.25984251968503935,"duration":"0.50"},{"name":"C#3","midi":49,"time":"431.60","velocity":0.5354330708661418,"duration":"0.01"},{"name":"A#4","midi":70,"time":"431.60","velocity":0.33858267716535434,"duration":"0.02"},{"name":"D6","midi":86,"time":"431.60","velocity":0.3228346456692913,"duration":"0.03"},{"name":"B3","midi":59,"time":"431.62","velocity":0.23622047244094488,"duration":"0.02"},{"name":"B4","midi":71,"time":"431.62","velocity":0.23622047244094488,"duration":"0.02"},{"name":"F1","midi":29,"time":"431.63","velocity":0.5511811023622047,"duration":"0.01"},{"name":"G4","midi":67,"time":"431.63","velocity":0.3228346456692913,"duration":"0.02"},{"name":"A4","midi":69,"time":"431.63","velocity":0.44881889763779526,"duration":"0.34"},{"name":"C#5","midi":73,"time":"431.63","velocity":0.5669291338582677,"duration":"1.07"},{"name":"G#5","midi":80,"time":"431.63","velocity":0.2204724409448819,"duration":"0.05"},{"name":"G6","midi":91,"time":"431.63","velocity":0.2440944881889764,"duration":"0.12"},{"name":"F#1","midi":30,"time":"431.64","velocity":0.5433070866141733,"duration":"0.01"},{"name":"G#2","midi":44,"time":"431.64","velocity":0.5590551181102362,"duration":"0.01"},{"name":"E4","midi":64,"time":"431.64","velocity":0.33070866141732286,"duration":"0.02"},{"name":"D#6","midi":87,"time":"431.64","velocity":0.3228346456692913,"duration":"0.10"},{"name":"A3","midi":57,"time":"431.65","velocity":0.4015748031496063,"duration":"0.07"},{"name":"C7","midi":96,"time":"431.65","velocity":0.25984251968503935,"duration":"0.36"},{"name":"A2","midi":45,"time":"431.66","velocity":0.5354330708661418,"duration":"0.01"},{"name":"G#2","midi":44,"time":"431.67","velocity":0.5748031496062992,"duration":"0.01"},{"name":"D#5","midi":75,"time":"431.67","velocity":0.25196850393700787,"duration":"0.02"},{"name":"A#5","midi":82,"time":"431.67","velocity":0.1732283464566929,"duration":"0.03"},{"name":"F6","midi":89,"time":"431.67","velocity":0.18110236220472442,"duration":"0.08"},{"name":"A2","midi":45,"time":"431.69","velocity":0.5669291338582677,"duration":"0.09"},{"name":"D#4","midi":63,"time":"431.69","velocity":0.2992125984251969,"duration":"0.02"},{"name":"E5","midi":76,"time":"431.69","velocity":0.41732283464566927,"duration":"0.13"},{"name":"F#4","midi":66,"time":"431.70","velocity":0.2677165354330709,"duration":"0.03"},{"name":"C#4","midi":61,"time":"431.71","velocity":0.3228346456692913,"duration":"0.05"},{"name":"G#5","midi":80,"time":"431.71","velocity":0.25196850393700787,"duration":"0.02"},{"name":"A#6","midi":94,"time":"431.73","velocity":0.28346456692913385,"duration":"0.30"},{"name":"E4","midi":64,"time":"431.74","velocity":0.28346456692913385,"duration":"0.09"},{"name":"D6","midi":86,"time":"431.74","velocity":0.28346456692913385,"duration":"0.05"},{"name":"G#5","midi":80,"time":"431.76","velocity":0.1968503937007874,"duration":"0.05"},{"name":"D#6","midi":87,"time":"431.77","velocity":0.2677165354330709,"duration":"0.15"},{"name":"G6","midi":91,"time":"431.77","velocity":0.25196850393700787,"duration":"0.15"},{"name":"E3","midi":52,"time":"431.78","velocity":0.3700787401574803,"duration":"0.02"},{"name":"F6","midi":89,"time":"431.78","velocity":0.09448818897637795,"duration":"0.05"},{"name":"C#4","midi":61,"time":"431.79","velocity":0.3228346456692913,"duration":"0.15"},{"name":"A2","midi":45,"time":"431.81","velocity":0.5354330708661418,"duration":"0.02"},{"name":"E3","midi":52,"time":"431.81","velocity":0.3779527559055118,"duration":"0.02"},{"name":"G4","midi":67,"time":"431.83","velocity":0.2677165354330709,"duration":"0.02"},{"name":"E5","midi":76,"time":"431.83","velocity":0.4566929133858268,"duration":"0.48"},{"name":"D#7","midi":99,"time":"431.83","velocity":0.3228346456692913,"duration":"3.88"},{"name":"A#2","midi":46,"time":"431.84","velocity":0.5196850393700787,"duration":"0.01"},{"name":"A2","midi":45,"time":"431.85","velocity":0.5354330708661418,"duration":"0.02"},{"name":"E3","midi":52,"time":"431.86","velocity":0.3779527559055118,"duration":"0.02"},{"name":"A#2","midi":46,"time":"431.87","velocity":0.5275590551181102,"duration":"0.01"},{"name":"A2","midi":45,"time":"431.88","velocity":0.5433070866141733,"duration":"0.02"},{"name":"B5","midi":83,"time":"431.88","velocity":0.3779527559055118,"duration":"0.08"},{"name":"E3","midi":52,"time":"431.90","velocity":0.3228346456692913,"duration":"0.02"},{"name":"G#5","midi":80,"time":"431.90","velocity":0.3858267716535433,"duration":"0.10"},{"name":"D6","midi":86,"time":"431.90","velocity":0.30708661417322836,"duration":"0.05"},{"name":"F7","midi":101,"time":"431.90","velocity":0.3228346456692913,"duration":"1.73"},{"name":"A2","midi":45,"time":"431.92","velocity":0.5511811023622047,"duration":"0.01"},{"name":"G7","midi":103,"time":"431.92","velocity":0.1889763779527559,"duration":"0.10"},{"name":"G#2","midi":44,"time":"431.93","velocity":0.5354330708661418,"duration":"0.01"},{"name":"E4","midi":64,"time":"431.93","velocity":0.36220472440944884,"duration":"0.02"},{"name":"G6","midi":91,"time":"431.93","velocity":0.1889763779527559,"duration":"0.09"},{"name":"G#3","midi":56,"time":"431.94","velocity":0.2440944881889764,"duration":"0.02"},{"name":"C4","midi":60,"time":"431.94","velocity":0.29133858267716534,"duration":"0.02"},{"name":"D#6","midi":87,"time":"431.94","velocity":0.2755905511811024,"duration":"0.02"},{"name":"F6","midi":89,"time":"431.94","velocity":0.1889763779527559,"duration":"0.06"},{"name":"D6","midi":86,"time":"431.95","velocity":0.3228346456692913,"duration":"0.02"},{"name":"A6","midi":93,"time":"431.95","velocity":0.31496062992125984,"duration":"0.67"},{"name":"G3","midi":55,"time":"431.97","velocity":0.4015748031496063,"duration":"0.02"},{"name":"E4","midi":64,"time":"431.97","velocity":0.4251968503937008,"duration":"0.02"},{"name":"G#4","midi":68,"time":"431.97","velocity":0.48031496062992124,"duration":"0.02"},{"name":"A#5","midi":82,"time":"431.97","velocity":0.33858267716535434,"duration":"0.03"},{"name":"C4","midi":60,"time":"431.98","velocity":0.4094488188976378,"duration":"0.03"},{"name":"A5","midi":81,"time":"431.98","velocity":0.33858267716535434,"duration":"0.03"},{"name":"D#6","midi":87,"time":"431.98","velocity":0.2440944881889764,"duration":"0.03"},{"name":"A2","midi":45,"time":"431.99","velocity":0.5196850393700787,"duration":"0.02"},{"name":"B5","midi":83,"time":"431.99","velocity":0.30708661417322836,"duration":"0.14"},{"name":"A4","midi":69,"time":"432.00","velocity":0.4566929133858268,"duration":"0.41"},{"name":"B4","midi":71,"time":"432.00","velocity":0.36220472440944884,"duration":"0.05"},{"name":"D6","midi":86,"time":"432.00","velocity":0.25196850393700787,"duration":"0.02"},{"name":"A#2","midi":46,"time":"432.01","velocity":0.5354330708661418,"duration":"0.01"},{"name":"E3","midi":52,"time":"432.01","velocity":0.4409448818897638,"duration":"0.02"},{"name":"G#5","midi":80,"time":"432.01","velocity":0.3858267716535433,"duration":"0.09"},{"name":"A2","midi":45,"time":"432.02","velocity":0.5433070866141733,"duration":"0.28"},{"name":"D#4","midi":63,"time":"432.02","velocity":0.2755905511811024,"duration":"0.02"},{"name":"A#5","midi":82,"time":"432.02","velocity":0.11023622047244094,"duration":"0.03"},{"name":"F#5","midi":78,"time":"432.03","velocity":0.23622047244094488,"duration":"0.10"},{"name":"C#4","midi":61,"time":"432.05","velocity":0.30708661417322836,"duration":"0.05"},{"name":"E4","midi":64,"time":"432.05","velocity":0.2440944881889764,"duration":"0.02"},{"name":"D6","midi":86,"time":"432.05","velocity":0.25984251968503935,"duration":"0.06"},{"name":"A#6","midi":94,"time":"432.05","velocity":0.16535433070866143,"duration":"0.07"},{"name":"C7","midi":96,"time":"432.05","velocity":0.2047244094488189,"duration":"0.17"},{"name":"G6","midi":91,"time":"432.06","velocity":0.2283464566929134,"duration":"0.15"},{"name":"D#5","midi":75,"time":"432.09","velocity":0.25984251968503935,"duration":"0.02"},{"name":"C#4","midi":61,"time":"432.10","velocity":0.2992125984251969,"duration":"0.16"},{"name":"E4","midi":64,"time":"432.10","velocity":0.33070866141732286,"duration":"0.05"},{"name":"D#6","midi":87,"time":"432.10","velocity":0.3228346456692913,"duration":"0.12"},{"name":"D7","midi":98,"time":"432.10","velocity":0.29133858267716534,"duration":"0.53"},{"name":"G#5","midi":80,"time":"432.12","velocity":0.3464566929133858,"duration":"0.05"},{"name":"C6","midi":84,"time":"432.12","velocity":0.28346456692913385,"duration":"0.03"},{"name":"F6","midi":89,"time":"432.13","velocity":0.08661417322834646,"duration":"0.03"},{"name":"A#6","midi":94,"time":"432.14","velocity":0.23622047244094488,"duration":"0.44"},{"name":"G5","midi":79,"time":"432.15","velocity":0.2440944881889764,"duration":"0.03"},{"name":"B5","midi":83,"time":"432.15","velocity":0.5275590551181102,"duration":"0.93"},{"name":"E4","midi":64,"time":"432.16","velocity":0.2440944881889764,"duration":"0.03"},{"name":"B4","midi":71,"time":"432.16","velocity":0.30708661417322836,"duration":"0.05"},{"name":"G#5","midi":80,"time":"432.17","velocity":0.3228346456692913,"duration":"0.05"},{"name":"F#5","midi":78,"time":"432.19","velocity":0.29133858267716534,"duration":"0.02"},{"name":"C6","midi":84,"time":"432.19","velocity":0.3858267716535433,"duration":"0.02"},{"name":"F6","midi":89,"time":"432.19","velocity":0.12598425196850394,"duration":"0.10"},{"name":"E3","midi":52,"time":"432.20","velocity":0.4015748031496063,"duration":"0.02"},{"name":"G5","midi":79,"time":"432.20","velocity":0.25984251968503935,"duration":"0.05"},{"name":"D6","midi":86,"time":"432.21","velocity":0.2283464566929134,"duration":"0.06"},{"name":"F#5","midi":78,"time":"432.23","velocity":0.25984251968503935,"duration":"0.07"},{"name":"C7","midi":96,"time":"432.23","velocity":0.09448818897637795,"duration":"0.03"},{"name":"G#5","midi":80,"time":"432.26","velocity":0.31496062992125984,"duration":"0.10"},{"name":"E3","midi":52,"time":"432.27","velocity":0.3858267716535433,"duration":"0.05"},{"name":"D#6","midi":87,"time":"432.27","velocity":0.30708661417322836,"duration":"0.09"},{"name":"C#4","midi":61,"time":"432.28","velocity":0.30708661417322836,"duration":"0.06"},{"name":"F#6","midi":90,"time":"432.28","velocity":0.4015748031496063,"duration":"0.64"},{"name":"C7","midi":96,"time":"432.29","velocity":0.2440944881889764,"duration":"0.09"},{"name":"A#2","midi":46,"time":"432.30","velocity":0.5354330708661418,"duration":"0.01"},{"name":"A2","midi":45,"time":"432.31","velocity":0.5590551181102362,"duration":"0.02"},{"name":"F#5","midi":78,"time":"432.31","velocity":0.29133858267716534,"duration":"0.05"},{"name":"F6","midi":89,"time":"432.31","velocity":0.14173228346456693,"duration":"0.09"},{"name":"E1","midi":28,"time":"432.33","velocity":0.28346456692913385,"duration":"0.02"},{"name":"F#4","midi":66,"time":"432.33","velocity":0.3228346456692913,"duration":"0.02"},{"name":"E5","midi":76,"time":"432.34","velocity":0.41732283464566927,"duration":"0.13"},{"name":"F4","midi":65,"time":"432.35","velocity":0.30708661417322836,"duration":"0.03"},{"name":"G#2","midi":44,"time":"432.36","velocity":0.5511811023622047,"duration":"0.01"},{"name":"D4","midi":62,"time":"432.36","velocity":0.25984251968503935,"duration":"0.02"},{"name":"G5","midi":79,"time":"432.36","velocity":0.2440944881889764,"duration":"0.02"},{"name":"D6","midi":86,"time":"432.36","velocity":0.3228346456692913,"duration":"0.06"},{"name":"A2","midi":45,"time":"432.37","velocity":0.5826771653543307,"duration":"0.33"},{"name":"D#6","midi":87,"time":"432.37","velocity":0.11811023622047244,"duration":"0.03"},{"name":"E4","midi":64,"time":"432.38","velocity":0.2992125984251969,"duration":"0.06"},{"name":"C#4","midi":61,"time":"432.40","velocity":0.4094488188976378,"duration":"0.13"},{"name":"B4","midi":71,"time":"432.40","velocity":0.5118110236220472,"duration":"0.72"},{"name":"G5","midi":79,"time":"432.40","velocity":0.2992125984251969,"duration":"0.08"},{"name":"G#5","midi":80,"time":"432.40","velocity":0.23622047244094488,"duration":"0.05"},{"name":"D#5","midi":75,"time":"432.41","velocity":0.31496062992125984,"duration":"0.02"},{"name":"F6","midi":89,"time":"432.42","velocity":0.12598425196850394,"duration":"0.03"},{"name":"G4","midi":67,"time":"432.44","velocity":0.2440944881889764,"duration":"0.02"},{"name":"A5","midi":81,"time":"432.44","velocity":0.33070866141732286,"duration":"0.12"},{"name":"E4","midi":64,"time":"432.45","velocity":0.29133858267716534,"duration":"0.07"},{"name":"G7","midi":103,"time":"432.45","velocity":0.2125984251968504,"duration":"0.26"},{"name":"F5","midi":77,"time":"432.47","velocity":0.3937007874015748,"duration":"0.03"},{"name":"E3","midi":52,"time":"432.48","velocity":0.3779527559055118,"duration":"0.03"},{"name":"F#5","midi":78,"time":"432.48","velocity":0.2047244094488189,"duration":"0.05"},{"name":"E5","midi":76,"time":"432.50","velocity":0.44881889763779526,"duration":"0.06"},{"name":"C7","midi":96,"time":"432.50","velocity":0.2283464566929134,"duration":"0.15"},{"name":"G6","midi":91,"time":"432.51","velocity":0.2204724409448819,"duration":"0.03"},{"name":"E3","midi":52,"time":"432.52","velocity":0.3700787401574803,"duration":"0.02"},{"name":"A4","midi":69,"time":"432.52","velocity":0.25984251968503935,"duration":"0.02"},{"name":"D6","midi":86,"time":"432.52","velocity":0.29133858267716534,"duration":"0.05"},{"name":"C#4","midi":61,"time":"432.53","velocity":0.2677165354330709,"duration":"0.06"},{"name":"F#5","midi":78,"time":"432.53","velocity":0.28346456692913385,"duration":"0.03"},{"name":"F6","midi":89,"time":"432.53","velocity":0.09448818897637795,"duration":"0.05"},{"name":"G#5","midi":80,"time":"432.56","velocity":0.30708661417322836,"duration":"0.16"},{"name":"E5","midi":76,"time":"432.57","velocity":0.4251968503937008,"duration":"0.15"},{"name":"G5","midi":79,"time":"432.57","velocity":0.25196850393700787,"duration":"0.06"},{"name":"D#6","midi":87,"time":"432.57","velocity":0.29133858267716534,"duration":"0.09"},{"name":"A#5","midi":82,"time":"432.58","velocity":0.2125984251968504,"duration":"0.03"},{"name":"E3","midi":52,"time":"432.59","velocity":0.36220472440944884,"duration":"0.02"},{"name":"F#4","midi":66,"time":"432.63","velocity":0.2283464566929134,"duration":"0.03"},{"name":"E3","midi":52,"time":"432.64","velocity":0.36220472440944884,"duration":"0.05"},{"name":"D4","midi":62,"time":"432.64","velocity":0.1968503937007874,"duration":"0.03"},{"name":"F#5","midi":78,"time":"432.64","velocity":0.25196850393700787,"duration":"0.06"},{"name":"F6","midi":89,"time":"432.65","velocity":0.14173228346456693,"duration":"0.08"},{"name":"A#6","midi":94,"time":"432.65","velocity":0.07874015748031496,"duration":"0.03"},{"name":"A4","midi":69,"time":"432.66","velocity":0.4251968503937008,"duration":"0.06"},{"name":"D6","midi":86,"time":"432.66","velocity":0.29133858267716534,"duration":"0.03"},{"name":"G6","midi":91,"time":"432.66","velocity":0.2440944881889764,"duration":"0.03"},{"name":"A6","midi":93,"time":"432.66","velocity":0.2440944881889764,"duration":"0.16"},{"name":"A5","midi":81,"time":"432.67","velocity":0.44881889763779526,"duration":"0.44"},{"name":"F3","midi":53,"time":"432.69","velocity":0.48031496062992124,"duration":"0.06"},{"name":"A#3","midi":58,"time":"432.69","velocity":0.25196850393700787,"duration":"0.02"},{"name":"C7","midi":96,"time":"432.69","velocity":0.16535433070866143,"duration":"0.03"},{"name":"A#2","midi":46,"time":"432.70","velocity":0.5511811023622047,"duration":"0.01"},{"name":"A#6","midi":94,"time":"432.70","velocity":0.25196850393700787,"duration":"0.19"},{"name":"D2","midi":38,"time":"432.71","velocity":0.5905511811023622,"duration":"0.01"},{"name":"B2","midi":47,"time":"432.71","velocity":0.5826771653543307,"duration":"0.01"},{"name":"C#4","midi":61,"time":"432.71","velocity":0.4409448818897638,"duration":"0.05"},{"name":"F#5","midi":78,"time":"432.71","velocity":0.3464566929133858,"duration":"0.26"},{"name":"G6","midi":91,"time":"432.71","velocity":0.25984251968503935,"duration":"0.12"},{"name":"A2","midi":45,"time":"432.72","velocity":0.6299212598425197,"duration":"0.02"},{"name":"G5","midi":79,"time":"432.72","velocity":0.29133858267716534,"duration":"0.02"},{"name":"A4","midi":69,"time":"432.73","velocity":0.41732283464566927,"duration":"0.13"},{"name":"D#6","midi":87,"time":"432.73","velocity":0.30708661417322836,"duration":"0.09"},{"name":"A#2","midi":46,"time":"432.74","velocity":0.5433070866141733,"duration":"0.03"},{"name":"E4","midi":64,"time":"432.74","velocity":0.3543307086614173,"duration":"0.12"},{"name":"E5","midi":76,"time":"432.74","velocity":0.48031496062992124,"duration":"0.19"},{"name":"G#5","midi":80,"time":"432.74","velocity":0.31496062992125984,"duration":"0.02"},{"name":"B1","midi":35,"time":"432.76","velocity":0.4330708661417323,"duration":"0.02"},{"name":"A3","midi":57,"time":"432.76","velocity":0.41732283464566927,"duration":"0.10"},{"name":"C#5","midi":73,"time":"432.76","velocity":0.6141732283464567,"duration":"0.57"},{"name":"C7","midi":96,"time":"432.76","velocity":0.2677165354330709,"duration":"0.10"},{"name":"D6","midi":86,"time":"432.77","velocity":0.2204724409448819,"duration":"0.03"},{"name":"A#1","midi":34,"time":"432.78","velocity":0.4330708661417323,"duration":"0.03"},{"name":"A2","midi":45,"time":"432.78","velocity":0.5511811023622047,"duration":"0.17"},{"name":"C#4","midi":61,"time":"432.79","velocity":0.2755905511811024,"duration":"0.08"},{"name":"G#5","midi":80,"time":"432.80","velocity":0.2992125984251969,"duration":"0.02"},{"name":"D6","midi":86,"time":"432.83","velocity":0.4251968503937008,"duration":"0.07"},{"name":"G6","midi":91,"time":"432.85","velocity":0.2283464566929134,"duration":"0.09"},{"name":"D4","midi":62,"time":"432.87","velocity":0.23622047244094488,"duration":"0.02"},{"name":"A4","midi":69,"time":"432.87","velocity":0.4881889763779528,"duration":"0.24"},{"name":"C7","midi":96,"time":"432.87","velocity":0.2755905511811024,"duration":"0.13"},{"name":"G#5","midi":80,"time":"432.88","velocity":0.28346456692913385,"duration":"0.07"},{"name":"D#6","midi":87,"time":"432.88","velocity":0.2992125984251969,"duration":"0.10"},{"name":"D#4","midi":63,"time":"432.90","velocity":0.25196850393700787,"duration":"0.02"},{"name":"C#6","midi":85,"time":"432.90","velocity":0.6771653543307087,"duration":"0.67"},{"name":"D6","midi":86,"time":"432.91","velocity":0.25196850393700787,"duration":"0.02"},{"name":"A#6","midi":94,"time":"432.92","velocity":0.28346456692913385,"duration":"0.62"},{"name":"F#4","midi":66,"time":"432.93","velocity":0.25196850393700787,"duration":"0.15"},{"name":"E3","midi":52,"time":"432.95","velocity":0.3779527559055118,"duration":"0.03"},{"name":"E5","midi":76,"time":"432.95","velocity":0.3464566929133858,"duration":"0.03"},{"name":"G6","midi":91,"time":"432.95","velocity":0.23622047244094488,"duration":"0.19"},{"name":"D7","midi":98,"time":"432.95","velocity":0.1968503937007874,"duration":"0.21"},{"name":"A2","midi":45,"time":"432.97","velocity":0.5118110236220472,"duration":"0.01"},{"name":"C#4","midi":61,"time":"432.97","velocity":0.3858267716535433,"duration":"0.17"},{"name":"G5","midi":79,"time":"432.97","velocity":0.2755905511811024,"duration":"0.02"},{"name":"D#5","midi":75,"time":"432.98","velocity":0.2677165354330709,"duration":"0.02"},{"name":"F#5","midi":78,"time":"432.98","velocity":0.2755905511811024,"duration":"0.09"},{"name":"D6","midi":86,"time":"432.99","velocity":0.2755905511811024,"duration":"0.02"},{"name":"F6","midi":89,"time":"432.99","velocity":0.16535433070866143,"duration":"0.05"},{"name":"A2","midi":45,"time":"433.00","velocity":0.5275590551181102,"duration":"0.01"},{"name":"E3","midi":52,"time":"433.00","velocity":0.3228346456692913,"duration":"0.02"},{"name":"E5","midi":76,"time":"433.00","velocity":0.3779527559055118,"duration":"0.06"},{"name":"C7","midi":96,"time":"433.01","velocity":0.2440944881889764,"duration":"0.23"},{"name":"A2","midi":45,"time":"433.02","velocity":0.49606299212598426,"duration":"0.05"},{"name":"D6","midi":86,"time":"433.02","velocity":0.25196850393700787,"duration":"0.02"},{"name":"E3","midi":52,"time":"433.03","velocity":0.3543307086614173,"duration":"0.03"},{"name":"D#6","midi":87,"time":"433.05","velocity":0.2204724409448819,"duration":"0.06"},{"name":"F5","midi":77,"time":"433.06","velocity":0.28346456692913385,"duration":"0.02"},{"name":"G#5","midi":80,"time":"433.06","velocity":0.2677165354330709,"duration":"0.02"},{"name":"E4","midi":64,"time":"433.07","velocity":0.33070866141732286,"duration":"0.02"},{"name":"E5","midi":76,"time":"433.08","velocity":0.3858267716535433,"duration":"0.03"},{"name":"G5","midi":79,"time":"433.08","velocity":0.2677165354330709,"duration":"0.05"},{"name":"A#2","midi":46,"time":"433.09","velocity":0.5511811023622047,"duration":"0.05"},{"name":"G#5","midi":80,"time":"433.09","velocity":0.3543307086614173,"duration":"0.09"},{"name":"B5","midi":83,"time":"433.09","velocity":0.5433070866141733,"duration":"0.42"},{"name":"F6","midi":89,"time":"433.09","velocity":0.14960629921259844,"duration":"0.09"},{"name":"F#6","midi":90,"time":"433.09","velocity":0.4251968503937008,"duration":"0.55"},{"name":"E1","midi":28,"time":"433.10","velocity":0.33070866141732286,"duration":"0.02"},{"name":"A3","midi":57,"time":"433.10","velocity":0.4251968503937008,"duration":"0.36"},{"name":"F#4","midi":66,"time":"433.10","velocity":0.3228346456692913,"duration":"0.05"},{"name":"F5","midi":77,"time":"433.10","velocity":0.2755905511811024,"duration":"0.03"},{"name":"G#4","midi":68,"time":"433.12","velocity":0.2755905511811024,"duration":"0.02"},{"name":"D#5","midi":75,"time":"433.12","velocity":0.2204724409448819,"duration":"0.03"},{"name":"D#6","midi":87,"time":"433.12","velocity":0.25196850393700787,"duration":"0.03"},{"name":"B4","midi":71,"time":"433.13","velocity":0.5354330708661418,"duration":"0.36"},{"name":"A2","midi":45,"time":"433.14","velocity":0.5905511811023622,"duration":"0.31"},{"name":"D6","midi":86,"time":"433.14","velocity":0.2677165354330709,"duration":"0.03"},{"name":"D4","midi":62,"time":"433.15","velocity":0.15748031496062992,"duration":"0.03"},{"name":"E5","midi":76,"time":"433.15","velocity":0.33070866141732286,"duration":"0.08"},{"name":"E3","midi":52,"time":"433.16","velocity":0.29133858267716534,"duration":"0.02"},{"name":"A6","midi":93,"time":"433.16","velocity":0.1968503937007874,"duration":"0.20"},{"name":"G4","midi":67,"time":"433.19","velocity":0.28346456692913385,"duration":"0.03"},{"name":"A5","midi":81,"time":"433.19","velocity":0.29133858267716534,"duration":"0.06"},{"name":"D#6","midi":87,"time":"433.19","velocity":0.3228346456692913,"duration":"0.12"},{"name":"G6","midi":91,"time":"433.19","velocity":0.1968503937007874,"duration":"0.03"},{"name":"C#4","midi":61,"time":"433.21","velocity":0.33070866141732286,"duration":"0.07"},{"name":"G#5","midi":80,"time":"433.21","velocity":0.3464566929133858,"duration":"0.05"},{"name":"F#4","midi":66,"time":"433.22","velocity":0.2677165354330709,"duration":"0.07"},{"name":"A4","midi":69,"time":"433.22","velocity":0.44881889763779526,"duration":"0.08"},{"name":"G5","midi":79,"time":"433.22","velocity":0.2283464566929134,"duration":"0.02"},{"name":"E6","midi":88,"time":"433.23","velocity":0.2204724409448819,"duration":"0.03"},{"name":"F6","midi":89,"time":"433.23","velocity":0.14960629921259844,"duration":"0.03"},{"name":"E5","midi":76,"time":"433.24","velocity":0.3937007874015748,"duration":"0.15"},{"name":"F#5","midi":78,"time":"433.24","velocity":0.2992125984251969,"duration":"0.26"},{"name":"D7","midi":98,"time":"433.24","velocity":0.28346456692913385,"duration":"0.33"},{"name":"C7","midi":96,"time":"433.26","velocity":0.18110236220472442,"duration":"0.10"},{"name":"G#5","midi":80,"time":"433.28","velocity":0.3464566929133858,"duration":"0.06"},{"name":"C#4","midi":61,"time":"433.29","velocity":0.28346456692913385,"duration":"0.03"},{"name":"E4","midi":64,"time":"433.29","velocity":0.30708661417322836,"duration":"0.09"},{"name":"D6","midi":86,"time":"433.30","velocity":0.30708661417322836,"duration":"0.05"},{"name":"E3","midi":52,"time":"433.31","velocity":0.3858267716535433,"duration":"0.02"},{"name":"C#5","midi":73,"time":"433.34","velocity":0.49606299212598426,"duration":"0.03"},{"name":"A5","midi":81,"time":"433.34","velocity":0.28346456692913385,"duration":"0.02"},{"name":"E3","midi":52,"time":"433.35","velocity":0.36220472440944884,"duration":"0.02"},{"name":"G#5","midi":80,"time":"433.35","velocity":0.3543307086614173,"duration":"0.07"},{"name":"D#6","midi":87,"time":"433.35","velocity":0.2677165354330709,"duration":"0.09"},{"name":"C7","midi":96,"time":"433.37","velocity":0.23622047244094488,"duration":"0.17"},{"name":"A0","midi":21,"time":"433.40","velocity":0.13385826771653545,"duration":"0.03"},{"name":"E4","midi":64,"time":"433.40","velocity":0.4566929133858268,"duration":"0.09"},{"name":"F#4","midi":66,"time":"433.40","velocity":0.2440944881889764,"duration":"0.03"},{"name":"D5","midi":74,"time":"433.40","velocity":0.3228346456692913,"duration":"0.02"},{"name":"E6","midi":88,"time":"433.40","velocity":0.13385826771653545,"duration":"0.03"},{"name":"C#5","midi":73,"time":"433.41","velocity":0.4409448818897638,"duration":"0.05"},{"name":"A6","midi":93,"time":"433.41","velocity":0.2677165354330709,"duration":"0.48"},{"name":"E5","midi":76,"time":"433.42","velocity":0.4566929133858268,"duration":"0.43"},{"name":"A5","midi":81,"time":"433.42","velocity":0.3700787401574803,"duration":"0.16"},{"name":"D6","midi":86,"time":"433.43","velocity":0.33858267716535434,"duration":"0.03"},{"name":"G7","midi":103,"time":"433.43","velocity":0.12598425196850394,"duration":"0.07"},{"name":"C4","midi":60,"time":"433.47","velocity":0.48031496062992124,"duration":"0.02"},{"name":"D#6","midi":87,"time":"433.47","velocity":0.29133858267716534,"duration":"0.02"},{"name":"E7","midi":100,"time":"433.47","velocity":0.2755905511811024,"duration":"1.01"},{"name":"G#3","midi":56,"time":"433.48","velocity":0.5039370078740157,"duration":"0.02"},{"name":"A4","midi":69,"time":"433.48","velocity":0.49606299212598426,"duration":"0.03"},{"name":"C#5","midi":73,"time":"433.48","velocity":0.47244094488188976,"duration":"0.15"},{"name":"G5","midi":79,"time":"433.48","velocity":0.30708661417322836,"duration":"0.06"},{"name":"D6","midi":86,"time":"433.48","velocity":0.29133858267716534,"duration":"0.05"},{"name":"E1","midi":28,"time":"433.49","velocity":0.29133858267716534,"duration":"0.02"},{"name":"C#4","midi":61,"time":"433.49","velocity":0.4409448818897638,"duration":"0.12"},{"name":"F4","midi":65,"time":"433.49","velocity":0.4094488188976378,"duration":"0.03"},{"name":"A2","midi":45,"time":"433.50","velocity":0.5354330708661418,"duration":"0.02"},{"name":"F3","midi":53,"time":"433.50","velocity":0.2992125984251969,"duration":"0.02"},{"name":"A#4","midi":70,"time":"433.50","velocity":0.36220472440944884,"duration":"0.02"},{"name":"C6","midi":84,"time":"433.51","velocity":0.2755905511811024,"duration":"0.02"},{"name":"D#6","midi":87,"time":"433.51","velocity":0.2677165354330709,"duration":"0.06"},{"name":"A#2","midi":46,"time":"433.52","velocity":0.5196850393700787,"duration":"0.01"},{"name":"F#4","midi":66,"time":"433.52","velocity":0.3779527559055118,"duration":"0.06"},{"name":"A4","midi":69,"time":"433.52","velocity":0.4330708661417323,"duration":"0.03"},{"name":"B4","midi":71,"time":"433.52","velocity":0.4566929133858268,"duration":"0.05"},{"name":"A2","midi":45,"time":"433.53","velocity":0.5275590551181102,"duration":"0.01"},{"name":"G#2","midi":44,"time":"433.55","velocity":0.5196850393700787,"duration":"0.01"},{"name":"A2","midi":45,"time":"433.56","velocity":0.5196850393700787,"duration":"0.02"},{"name":"D6","midi":86,"time":"433.56","velocity":0.4251968503937008,"duration":"0.07"},{"name":"E3","midi":52,"time":"433.57","velocity":0.3858267716535433,"duration":"0.03"},{"name":"G#5","midi":80,"time":"433.57","velocity":0.2992125984251969,"duration":"0.03"},{"name":"G#2","midi":44,"time":"433.58","velocity":0.5275590551181102,"duration":"0.01"},{"name":"B4","midi":71,"time":"433.58","velocity":0.33070866141732286,"duration":"0.09"},{"name":"C#6","midi":85,"time":"433.58","velocity":0.6377952755905512,"duration":"0.62"},{"name":"G6","midi":91,"time":"433.58","velocity":0.2125984251968504,"duration":"0.03"},{"name":"A2","midi":45,"time":"433.59","velocity":0.5118110236220472,"duration":"0.02"},{"name":"F#4","midi":66,"time":"433.59","velocity":0.28346456692913385,"duration":"0.02"},{"name":"F#5","midi":78,"time":"433.59","velocity":0.3464566929133858,"duration":"0.34"},{"name":"A5","midi":81,"time":"433.59","velocity":0.4094488188976378,"duration":"0.26"},{"name":"D#6","midi":87,"time":"433.59","velocity":0.14173228346456693,"duration":"0.10"},{"name":"C7","midi":96,"time":"433.60","velocity":0.2125984251968504,"duration":"0.62"},{"name":"G#2","midi":44,"time":"433.62","velocity":0.5196850393700787,"duration":"0.01"},{"name":"C#4","midi":61,"time":"433.62","velocity":0.3779527559055118,"duration":"0.21"},{"name":"A2","midi":45,"time":"433.63","velocity":0.49606299212598426,"duration":"0.02"},{"name":"D5","midi":74,"time":"433.63","velocity":0.36220472440944884,"duration":"0.03"},{"name":"G6","midi":91,"time":"433.63","velocity":0.2125984251968504,"duration":"0.03"},{"name":"E4","midi":64,"time":"433.64","velocity":0.33070866141732286,"duration":"0.02"},{"name":"F7","midi":101,"time":"433.64","velocity":0.28346456692913385,"duration":"0.24"},{"name":"G#2","midi":44,"time":"433.65","velocity":0.5196850393700787,"duration":"0.01"},{"name":"A4","midi":69,"time":"433.65","velocity":0.31496062992125984,"duration":"0.02"},{"name":"E3","midi":52,"time":"433.66","velocity":0.3779527559055118,"duration":"0.05"},{"name":"G#5","midi":80,"time":"433.66","velocity":0.2755905511811024,"duration":"0.06"},{"name":"C#5","midi":73,"time":"433.67","velocity":0.5826771653543307,"duration":"0.43"},{"name":"G6","midi":91,"time":"433.67","velocity":0.1968503937007874,"duration":"0.13"},{"name":"A2","midi":45,"time":"433.69","velocity":0.5354330708661418,"duration":"0.12"},{"name":"F#4","midi":66,"time":"433.69","velocity":0.2677165354330709,"duration":"0.03"},{"name":"B4","midi":71,"time":"433.69","velocity":0.3779527559055118,"duration":"0.10"},{"name":"A#6","midi":94,"time":"433.69","velocity":0.15748031496062992,"duration":"0.05"},{"name":"A#3","midi":58,"time":"433.71","velocity":0.2283464566929134,"duration":"0.02"},{"name":"G4","midi":67,"time":"433.72","velocity":0.25196850393700787,"duration":"0.03"},{"name":"B5","midi":83,"time":"433.72","velocity":0.3858267716535433,"duration":"0.51"},{"name":"E3","midi":52,"time":"433.73","velocity":0.3858267716535433,"duration":"0.06"},{"name":"G#5","midi":80,"time":"433.73","velocity":0.2755905511811024,"duration":"0.03"},{"name":"D#6","midi":87,"time":"433.73","velocity":0.2204724409448819,"duration":"0.14"},{"name":"A#6","midi":94,"time":"433.74","velocity":0.2283464566929134,"duration":"0.44"},{"name":"F#4","midi":66,"time":"433.76","velocity":0.2440944881889764,"duration":"0.03"},{"name":"E4","midi":64,"time":"433.77","velocity":0.4330708661417323,"duration":"0.16"},{"name":"F6","midi":89,"time":"433.77","velocity":0.14173228346456693,"duration":"0.03"},{"name":"G#2","midi":44,"time":"433.80","velocity":0.5354330708661418,"duration":"0.01"},{"name":"E3","midi":52,"time":"433.80","velocity":0.41732283464566927,"duration":"0.02"},{"name":"A2","midi":45,"time":"433.81","velocity":0.5196850393700787,"duration":"0.02"},{"name":"A4","midi":69,"time":"433.81","velocity":0.3700787401574803,"duration":"0.05"},{"name":"G6","midi":91,"time":"433.81","velocity":0.29133858267716534,"duration":"0.10"},{"name":"B4","midi":71,"time":"433.83","velocity":0.30708661417322836,"duration":"0.06"},{"name":"A#2","midi":46,"time":"433.84","velocity":0.5590551181102362,"duration":"0.01"},{"name":"C#4","midi":61,"time":"433.84","velocity":0.33858267716535434,"duration":"0.02"},{"name":"D#5","midi":75,"time":"433.84","velocity":0.3779527559055118,"duration":"0.05"},{"name":"G#5","midi":80,"time":"433.84","velocity":0.4409448818897638,"duration":"0.08"},{"name":"F6","midi":89,"time":"433.84","velocity":0.18110236220472442,"duration":"0.06"},{"name":"D2","midi":38,"time":"433.85","velocity":0.5511811023622047,"duration":"0.01"},{"name":"C3","midi":48,"time":"433.85","velocity":0.5669291338582677,"duration":"0.01"},{"name":"G3","midi":55,"time":"433.85","velocity":0.4251968503937008,"duration":"0.03"},{"name":"D6","midi":86,"time":"433.85","velocity":0.23622047244094488,"duration":"0.06"},{"name":"E2","midi":40,"time":"433.86","velocity":0.5748031496062992,"duration":"0.02"},{"name":"G#2","midi":44,"time":"433.87","velocity":0.5748031496062992,"duration":"0.02"},{"name":"A3","midi":57,"time":"433.88","velocity":0.4566929133858268,"duration":"0.08"},{"name":"G#4","midi":68,"time":"433.88","velocity":0.33858267716535434,"duration":"0.02"},{"name":"E5","midi":76,"time":"433.88","velocity":0.4645669291338583,"duration":"0.09"},{"name":"A#5","midi":82,"time":"433.88","velocity":0.16535433070866143,"duration":"0.03"},{"name":"A2","midi":45,"time":"433.90","velocity":0.6062992125984252,"duration":"0.31"},{"name":"C#4","midi":61,"time":"433.90","velocity":0.3700787401574803,"duration":"0.08"},{"name":"B4","midi":71,"time":"433.90","velocity":0.3700787401574803,"duration":"0.08"},{"name":"D#6","midi":87,"time":"433.90","velocity":0.1889763779527559,"duration":"0.06"},{"name":"F7","midi":101,"time":"433.90","velocity":0.25984251968503935,"duration":"1.13"},{"name":"G5","midi":79,"time":"433.93","velocity":0.30708661417322836,"duration":"0.05"},{"name":"E4","midi":64,"time":"433.94","velocity":0.3700787401574803,"duration":"0.06"},{"name":"F6","midi":89,"time":"433.94","velocity":0.29133858267716534,"duration":"0.16"},{"name":"F#6","midi":90,"time":"433.95","velocity":0.25196850393700787,"duration":"0.09"},{"name":"F#5","midi":78,"time":"433.97","velocity":0.3464566929133858,"duration":"0.12"},{"name":"G#5","midi":80,"time":"433.97","velocity":0.25984251968503935,"duration":"0.05"},{"name":"G7","midi":103,"time":"433.97","velocity":0.16535433070866143,"duration":"0.05"},{"name":"D#5","midi":75,"time":"433.98","velocity":0.2677165354330709,"duration":"0.03"},{"name":"C#4","midi":61,"time":"433.99","velocity":0.25196850393700787,"duration":"0.03"},{"name":"B4","midi":71,"time":"433.99","velocity":0.30708661417322836,"duration":"0.02"},{"name":"A#5","midi":82,"time":"433.99","velocity":0.28346456692913385,"duration":"0.02"},{"name":"G6","midi":91,"time":"434.00","velocity":0.29133858267716534,"duration":"0.22"},{"name":"E4","midi":64,"time":"434.01","velocity":0.4094488188976378,"duration":"0.15"},{"name":"B4","midi":71,"time":"434.02","velocity":0.29133858267716534,"duration":"0.05"},{"name":"E3","midi":52,"time":"434.03","velocity":0.3937007874015748,"duration":"0.02"},{"name":"C6","midi":84,"time":"434.03","velocity":0.4645669291338583,"duration":"0.02"},{"name":"G#5","midi":80,"time":"434.05","velocity":0.3543307086614173,"duration":"0.15"},{"name":"D#6","midi":87,"time":"434.06","velocity":0.11023622047244094,"duration":"0.03"},{"name":"C#4","midi":61,"time":"434.08","velocity":0.3937007874015748,"duration":"0.13"},{"name":"D#6","midi":87,"time":"434.10","velocity":0.2204724409448819,"duration":"0.03"},{"name":"A#4","midi":70,"time":"434.12","velocity":0.29133858267716534,"duration":"0.02"},{"name":"C#5","midi":73,"time":"434.12","velocity":0.4645669291338583,"duration":"0.10"},{"name":"A5","midi":81,"time":"434.12","velocity":0.4015748031496063,"duration":"0.10"},{"name":"F6","midi":89,"time":"434.12","velocity":0.33070866141732286,"duration":"0.14"},{"name":"A4","midi":69,"time":"434.14","velocity":0.3464566929133858,"duration":"0.08"},{"name":"E5","midi":76,"time":"434.15","velocity":0.49606299212598426,"duration":"0.08"},{"name":"G5","midi":79,"time":"434.15","velocity":0.25196850393700787,"duration":"0.02"},{"name":"E4","midi":64,"time":"434.19","velocity":0.4094488188976378,"duration":"0.03"},{"name":"F#5","midi":78,"time":"434.20","velocity":0.25984251968503935,"duration":"0.09"},{"name":"F#6","midi":90,"time":"434.20","velocity":0.33858267716535434,"duration":"0.17"},{"name":"F#2","midi":42,"time":"434.21","velocity":0.5826771653543307,"duration":"0.01"},{"name":"C4","midi":60,"time":"434.21","velocity":0.4409448818897638,"duration":"0.02"},{"name":"G#5","midi":80,"time":"434.21","velocity":0.33858267716535434,"duration":"0.08"},{"name":"A#5","midi":82,"time":"434.21","velocity":0.3464566929133858,"duration":"0.08"},{"name":"C#6","midi":85,"time":"434.21","velocity":0.5433070866141733,"duration":"0.31"},{"name":"D6","midi":86,"time":"434.21","velocity":0.41732283464566927,"duration":"0.05"},{"name":"D#2","midi":39,"time":"434.22","velocity":0.6062992125984252,"duration":"0.01"},{"name":"A3","midi":57,"time":"434.22","velocity":0.5039370078740157,"duration":"0.22"},{"name":"F#4","midi":66,"time":"434.22","velocity":0.4015748031496063,"duration":"0.02"},{"name":"D#6","midi":87,"time":"434.22","velocity":0.4330708661417323,"duration":"0.03"},{"name":"G#2","midi":44,"time":"434.23","velocity":0.6299212598425197,"duration":"0.03"},{"name":"C#4","midi":61,"time":"434.23","velocity":0.3464566929133858,"duration":"0.02"},{"name":"B4","midi":71,"time":"434.23","velocity":0.3464566929133858,"duration":"0.05"},{"name":"D#5","midi":75,"time":"434.23","velocity":0.5354330708661418,"duration":"0.03"},{"name":"E4","midi":64,"time":"434.24","velocity":0.33070866141732286,"duration":"0.02"},{"name":"C6","midi":84,"time":"434.24","velocity":0.25196850393700787,"duration":"0.03"},{"name":"F#1","midi":30,"time":"434.26","velocity":0.5590551181102362,"duration":"0.01"},{"name":"C#5","midi":73,"time":"434.26","velocity":0.47244094488188976,"duration":"0.21"},{"name":"E6","midi":88,"time":"434.26","velocity":0.6062992125984252,"duration":"0.12"},{"name":"G6","midi":91,"time":"434.26","velocity":0.25196850393700787,"duration":"0.22"},{"name":"F1","midi":29,"time":"434.27","velocity":0.5433070866141733,"duration":"0.01"},{"name":"F#4","midi":66,"time":"434.27","velocity":0.3464566929133858,"duration":"0.05"},{"name":"E5","midi":76,"time":"434.27","velocity":0.3937007874015748,"duration":"0.02"},{"name":"C7","midi":96,"time":"434.27","velocity":0.3228346456692913,"duration":"0.26"},{"name":"E4","midi":64,"time":"434.28","velocity":0.2992125984251969,"duration":"0.09"},{"name":"G#2","midi":44,"time":"434.29","velocity":0.5118110236220472,"duration":"0.01"},{"name":"B4","midi":71,"time":"434.29","velocity":0.25196850393700787,"duration":"0.06"},{"name":"F5","midi":77,"time":"434.29","velocity":0.3779527559055118,"duration":"0.02"},{"name":"B5","midi":83,"time":"434.29","velocity":0.36220472440944884,"duration":"0.10"},{"name":"D6","midi":86,"time":"434.29","velocity":0.29133858267716534,"duration":"0.10"},{"name":"E3","midi":52,"time":"434.30","velocity":0.3858267716535433,"duration":"0.02"},{"name":"F#5","midi":78,"time":"434.31","velocity":0.4094488188976378,"duration":"0.06"},{"name":"E5","midi":76,"time":"434.33","velocity":0.3858267716535433,"duration":"0.03"},{"name":"A2","midi":45,"time":"434.35","velocity":0.5354330708661418,"duration":"0.01"},{"name":"F6","midi":89,"time":"434.35","velocity":0.5826771653543307,"duration":"0.07"},{"name":"F#4","midi":66,"time":"434.36","velocity":0.36220472440944884,"duration":"0.09"},{"name":"B4","midi":71,"time":"434.36","velocity":0.33858267716535434,"duration":"0.03"},{"name":"A#2","midi":46,"time":"434.37","velocity":0.5354330708661418,"duration":"0.02"},{"name":"E5","midi":76,"time":"434.37","velocity":0.3543307086614173,"duration":"0.17"},{"name":"G#5","midi":80,"time":"434.37","velocity":0.3700787401574803,"duration":"0.08"},{"name":"E6","midi":88,"time":"434.38","velocity":0.3937007874015748,"duration":"0.37"},{"name":"G#2","midi":44,"time":"434.40","velocity":0.5433070866141733,"duration":"0.01"},{"name":"A#4","midi":70,"time":"434.40","velocity":0.33858267716535434,"duration":"0.02"},{"name":"F5","midi":77,"time":"434.40","velocity":0.3937007874015748,"duration":"0.02"},{"name":"A#5","midi":82,"time":"434.40","velocity":0.33858267716535434,"duration":"0.13"},{"name":"F#6","midi":90,"time":"434.40","velocity":0.6929133858267716,"duration":"5.41"},{"name":"C#2","midi":37,"time":"434.41","velocity":0.6062992125984252,"duration":"0.02"},{"name":"A2","midi":45,"time":"434.41","velocity":0.5196850393700787,"duration":"0.01"},{"name":"D6","midi":86,"time":"434.41","velocity":0.18110236220472442,"duration":"0.05"},{"name":"F#5","midi":78,"time":"434.42","velocity":0.4881889763779528,"duration":"0.16"},{"name":"G#2","midi":44,"time":"434.43","velocity":0.6299212598425197,"duration":"0.01"},{"name":"B4","midi":71,"time":"434.43","velocity":0.25196850393700787,"duration":"0.05"},{"name":"C6","midi":84,"time":"434.43","velocity":0.2047244094488189,"duration":"0.03"},{"name":"A2","midi":45,"time":"434.44","velocity":0.5905511811023622,"duration":"0.01"},{"name":"E4","midi":64,"time":"434.44","velocity":0.3858267716535433,"duration":"0.15"},{"name":"F1","midi":29,"time":"434.45","velocity":0.5669291338582677,"duration":"0.01"},{"name":"A#2","midi":46,"time":"434.45","velocity":0.5826771653543307,"duration":"0.01"},{"name":"E3","midi":52,"time":"434.45","velocity":0.3937007874015748,"duration":"0.06"},{"name":"A3","midi":57,"time":"434.45","velocity":0.3779527559055118,"duration":"0.13"},{"name":"A5","midi":81,"time":"434.45","velocity":0.33070866141732286,"duration":"0.10"},{"name":"E1","midi":28,"time":"434.47","velocity":0.5433070866141733,"duration":"0.01"},{"name":"A2","midi":45,"time":"434.47","velocity":0.6220472440944882,"duration":"0.14"},{"name":"D5","midi":74,"time":"434.47","velocity":0.2440944881889764,"duration":"0.02"},{"name":"F6","midi":89,"time":"434.48","velocity":0.5039370078740157,"duration":"0.02"},{"name":"D7","midi":98,"time":"434.48","velocity":0.29133858267716534,"duration":"0.22"},{"name":"C#5","midi":73,"time":"434.49","velocity":0.5039370078740157,"duration":"0.14"},{"name":"B5","midi":83,"time":"434.49","velocity":0.5118110236220472,"duration":"0.73"},{"name":"D6","midi":86,"time":"434.49","velocity":0.33070866141732286,"duration":"0.06"},{"name":"C#4","midi":61,"time":"434.50","velocity":0.28346456692913385,"duration":"0.05"},{"name":"D#6","midi":87,"time":"434.50","velocity":0.2047244094488189,"duration":"0.06"},{"name":"G7","midi":103,"time":"434.50","velocity":0.18110236220472442,"duration":"0.29"},{"name":"G#5","midi":80,"time":"434.52","velocity":0.33858267716535434,"duration":"0.12"},{"name":"G4","midi":67,"time":"434.53","velocity":0.28346456692913385,"duration":"0.02"},{"name":"C#6","midi":85,"time":"434.53","velocity":0.5039370078740157,"duration":"0.43"},{"name":"C7","midi":96,"time":"434.53","velocity":0.25984251968503935,"duration":"0.12"},{"name":"D#5","midi":75,"time":"434.55","velocity":0.3700787401574803,"duration":"0.02"},{"name":"D6","midi":86,"time":"434.56","velocity":0.3228346456692913,"duration":"0.06"},{"name":"F#4","midi":66,"time":"434.57","velocity":0.4251968503937008,"duration":"0.03"},{"name":"E5","midi":76,"time":"434.57","velocity":0.4409448818897638,"duration":"0.09"},{"name":"A5","midi":81,"time":"434.57","velocity":0.33858267716535434,"duration":"0.03"},{"name":"A#4","midi":70,"time":"434.58","velocity":0.2677165354330709,"duration":"0.07"},{"name":"G3","midi":55,"time":"434.59","velocity":0.4566929133858268,"duration":"0.03"},{"name":"D#5","midi":75,"time":"434.59","velocity":0.29133858267716534,"duration":"0.02"},{"name":"F#5","midi":78,"time":"434.59","velocity":0.4566929133858268,"duration":"0.06"},{"name":"F2","midi":41,"time":"434.60","velocity":0.5905511811023622,"duration":"0.02"},{"name":"E4","midi":64,"time":"434.60","velocity":0.33070866141732286,"duration":"0.06"},{"name":"A6","midi":93,"time":"434.60","velocity":0.1889763779527559,"duration":"0.07"},{"name":"B2","midi":47,"time":"434.62","velocity":0.5275590551181102,"duration":"0.01"},{"name":"F6","midi":89,"time":"434.62","velocity":0.4645669291338583,"duration":"0.02"},{"name":"E1","midi":28,"time":"434.63","velocity":0.5590551181102362,"duration":"0.03"},{"name":"A#2","midi":46,"time":"434.63","velocity":0.5275590551181102,"duration":"0.01"},{"name":"C#4","midi":61,"time":"434.63","velocity":0.25984251968503935,"duration":"0.07"},{"name":"G6","midi":91,"time":"434.63","velocity":0.13385826771653545,"duration":"0.03"},{"name":"A2","midi":45,"time":"434.64","velocity":0.5748031496062992,"duration":"0.07"},{"name":"C#5","midi":73,"time":"434.64","velocity":0.33070866141732286,"duration":"0.06"},{"name":"A5","midi":81,"time":"434.64","velocity":0.41732283464566927,"duration":"0.06"},{"name":"D6","midi":86,"time":"434.64","velocity":0.25196850393700787,"duration":"0.03"},{"name":"F#4","midi":66,"time":"434.65","velocity":0.4094488188976378,"duration":"0.08"},{"name":"B4","midi":71,"time":"434.66","velocity":0.33070866141732286,"duration":"0.03"},{"name":"F5","midi":77,"time":"434.66","velocity":0.30708661417322836,"duration":"0.02"},{"name":"F#5","midi":78,"time":"434.66","velocity":0.47244094488188976,"duration":"0.13"},{"name":"C7","midi":96,"time":"434.66","velocity":0.2204724409448819,"duration":"0.12"},{"name":"F6","midi":89,"time":"434.67","velocity":0.33070866141732286,"duration":"0.02"},{"name":"G#5","midi":80,"time":"434.69","velocity":0.3779527559055118,"duration":"0.06"},{"name":"F3","midi":53,"time":"434.70","velocity":0.3543307086614173,"duration":"0.02"},{"name":"D#5","midi":75,"time":"434.70","velocity":0.3700787401574803,"duration":"0.02"},{"name":"G#2","midi":44,"time":"434.71","velocity":0.5905511811023622,"duration":"0.01"},{"name":"E4","midi":64,"time":"434.71","velocity":0.30708661417322836,"duration":"0.02"},{"name":"B4","midi":71,"time":"434.71","velocity":0.6062992125984252,"duration":"0.29"},{"name":"C#5","midi":73,"time":"434.71","velocity":0.3937007874015748,"duration":"0.14"},{"name":"A5","midi":81,"time":"434.71","velocity":0.25196850393700787,"duration":"0.02"},{"name":"D6","midi":86,"time":"434.71","velocity":0.15748031496062992,"duration":"0.03"},{"name":"A2","midi":45,"time":"434.72","velocity":0.5905511811023622,"duration":"0.16"},{"name":"C#4","midi":61,"time":"434.72","velocity":0.31496062992125984,"duration":"0.10"},{"name":"E5","midi":76,"time":"434.72","velocity":0.36220472440944884,"duration":"0.22"},{"name":"F5","midi":77,"time":"434.72","velocity":0.2755905511811024,"duration":"0.02"},{"name":"G4","midi":67,"time":"434.73","velocity":0.30708661417322836,"duration":"0.03"},{"name":"D#6","midi":87,"time":"434.73","velocity":0.12598425196850394,"duration":"0.07"},{"name":"D7","midi":98,"time":"434.73","velocity":0.2677165354330709,"duration":"1.27"},{"name":"A5","midi":81,"time":"434.74","velocity":0.31496062992125984,"duration":"0.07"},{"name":"F#4","midi":66,"time":"434.77","velocity":0.2755905511811024,"duration":"0.03"},{"name":"G#5","midi":80,"time":"434.77","velocity":0.31496062992125984,"duration":"0.02"},{"name":"G5","midi":79,"time":"434.78","velocity":0.3543307086614173,"duration":"0.02"},{"name":"E3","midi":52,"time":"434.79","velocity":0.3700787401574803,"duration":"0.02"},{"name":"G4","midi":67,"time":"434.80","velocity":0.23622047244094488,"duration":"0.02"},{"name":"F#5","midi":78,"time":"434.80","velocity":0.3937007874015748,"duration":"0.03"},{"name":"G#5","midi":80,"time":"434.80","velocity":0.29133858267716534,"duration":"0.02"},{"name":"C7","midi":96,"time":"434.81","velocity":0.14173228346456693,"duration":"0.06"},{"name":"E3","midi":52,"time":"434.83","velocity":0.3779527559055118,"duration":"0.02"},{"name":"F#4","midi":66,"time":"434.83","velocity":0.3700787401574803,"duration":"0.08"},{"name":"G5","midi":79,"time":"434.83","velocity":0.28346456692913385,"duration":"0.02"},{"name":"A5","midi":81,"time":"434.83","velocity":0.13385826771653545,"duration":"0.03"},{"name":"F#5","midi":78,"time":"434.85","velocity":0.5196850393700787,"duration":"0.14"},{"name":"E4","midi":64,"time":"434.86","velocity":0.33858267716535434,"duration":"0.07"},{"name":"G#5","midi":80,"time":"434.86","velocity":0.3543307086614173,"duration":"0.12"},{"name":"C#5","midi":73,"time":"434.87","velocity":0.33070866141732286,"duration":"0.08"},{"name":"A#2","midi":46,"time":"434.88","velocity":0.5275590551181102,"duration":"0.01"},{"name":"A2","midi":45,"time":"434.90","velocity":0.5590551181102362,"duration":"0.07"},{"name":"E3","midi":52,"time":"434.91","velocity":0.3858267716535433,"duration":"0.03"},{"name":"G6","midi":91,"time":"434.91","velocity":0.11023622047244094,"duration":"0.06"},{"name":"G7","midi":103,"time":"434.91","velocity":0.1968503937007874,"duration":"0.09"},{"name":"F#4","midi":66,"time":"434.93","velocity":0.4330708661417323,"duration":"0.03"},{"name":"C7","midi":96,"time":"434.93","velocity":0.2440944881889764,"duration":"0.17"},{"name":"D#5","midi":75,"time":"434.94","velocity":0.3543307086614173,"duration":"0.03"},{"name":"G#6","midi":92,"time":"434.94","velocity":0.4645669291338583,"duration":"1.51"},{"name":"A#6","midi":94,"time":"434.94","velocity":0.1968503937007874,"duration":"0.07"},{"name":"G#4","midi":68,"time":"434.95","velocity":0.4409448818897638,"duration":"0.02"},{"name":"F6","midi":89,"time":"434.95","velocity":0.25196850393700787,"duration":"0.08"},{"name":"A6","midi":93,"time":"434.95","velocity":0.30708661417322836,"duration":"0.41"},{"name":"E7","midi":100,"time":"434.95","velocity":0.2677165354330709,"duration":"0.33"},{"name":"F3","midi":53,"time":"434.97","velocity":0.4881889763779528,"duration":"0.02"},{"name":"C#5","midi":73,"time":"434.97","velocity":0.3779527559055118,"duration":"0.03"},{"name":"A#5","midi":82,"time":"434.97","velocity":0.25984251968503935,"duration":"0.02"},{"name":"C4","midi":60,"time":"434.98","velocity":0.3937007874015748,"duration":"0.02"},{"name":"E5","midi":76,"time":"434.98","velocity":0.49606299212598426,"duration":"0.20"},{"name":"G5","midi":79,"time":"434.98","velocity":0.4330708661417323,"duration":"0.02"},{"name":"A5","midi":81,"time":"434.98","velocity":0.3858267716535433,"duration":"0.06"},{"name":"D6","midi":86,"time":"434.98","velocity":0.3464566929133858,"duration":"0.09"},{"name":"G#2","midi":44,"time":"434.99","velocity":0.5511811023622047,"duration":"0.02"},{"name":"E4","midi":64,"time":"434.99","velocity":0.3464566929133858,"duration":"0.02"},{"name":"D#5","midi":75,"time":"434.99","velocity":0.31496062992125984,"duration":"0.03"},{"name":"C#6","midi":85,"time":"434.99","velocity":0.49606299212598426,"duration":"0.47"},{"name":"F#4","midi":66,"time":"435.00","velocity":0.44881889763779526,"duration":"0.12"},{"name":"A2","midi":45,"time":"435.01","velocity":0.5590551181102362,"duration":"0.15"},{"name":"B4","midi":71,"time":"435.01","velocity":0.3779527559055118,"duration":"0.05"},{"name":"C#5","midi":73,"time":"435.01","velocity":0.5039370078740157,"duration":"0.40"},{"name":"F5","midi":77,"time":"435.01","velocity":0.3779527559055118,"duration":"0.03"},{"name":"G#5","midi":80,"time":"435.01","velocity":0.3700787401574803,"duration":"0.09"},{"name":"A#6","midi":94,"time":"435.02","velocity":0.2992125984251969,"duration":"0.57"},{"name":"G7","midi":103,"time":"435.02","velocity":0.1732283464566929,"duration":"0.12"},{"name":"A#5","midi":82,"time":"435.03","velocity":0.16535433070866143,"duration":"0.05"},{"name":"F7","midi":101,"time":"435.03","velocity":0.30708661417322836,"duration":"0.65"},{"name":"A5","midi":81,"time":"435.05","velocity":0.33070866141732286,"duration":"0.10"},{"name":"F#5","midi":78,"time":"435.06","velocity":0.48031496062992124,"duration":"0.28"},{"name":"B4","midi":71,"time":"435.09","velocity":0.2992125984251969,"duration":"0.13"},{"name":"E4","midi":64,"time":"435.10","velocity":0.3228346456692913,"duration":"0.03"},{"name":"G#5","midi":80,"time":"435.12","velocity":0.28346456692913385,"duration":"0.02"},{"name":"D6","midi":86,"time":"435.12","velocity":0.3543307086614173,"duration":"0.03"},{"name":"C7","midi":96,"time":"435.12","velocity":0.14960629921259844,"duration":"0.10"},{"name":"F#4","midi":66,"time":"435.13","velocity":0.33070866141732286,"duration":"0.10"},{"name":"D#6","midi":87,"time":"435.13","velocity":0.2047244094488189,"duration":"0.05"},{"name":"G6","midi":91,"time":"435.13","velocity":0.18110236220472442,"duration":"0.05"},{"name":"C#4","midi":61,"time":"435.14","velocity":0.28346456692913385,"duration":"0.17"},{"name":"G#5","midi":80,"time":"435.15","velocity":0.31496062992125984,"duration":"0.10"},{"name":"A#2","midi":46,"time":"435.16","velocity":0.5196850393700787,"duration":"0.01"},{"name":"D6","midi":86,"time":"435.16","velocity":0.25984251968503935,"duration":"0.06"},{"name":"A2","midi":45,"time":"435.17","velocity":0.5354330708661418,"duration":"0.05"},{"name":"E3","midi":52,"time":"435.17","velocity":0.36220472440944884,"duration":"0.03"},{"name":"A#5","midi":82,"time":"435.17","velocity":0.2283464566929134,"duration":"0.06"},{"name":"G7","midi":103,"time":"435.17","velocity":0.09448818897637795,"duration":"0.06"},{"name":"E5","midi":76,"time":"435.19","velocity":0.30708661417322836,"duration":"0.05"},{"name":"C6","midi":84,"time":"435.21","velocity":0.18110236220472442,"duration":"0.03"},{"name":"F6","midi":89,"time":"435.21","velocity":0.1732283464566929,"duration":"0.03"},{"name":"G#2","midi":44,"time":"435.22","velocity":0.5118110236220472,"duration":"0.01"},{"name":"D#5","midi":75,"time":"435.22","velocity":0.25984251968503935,"duration":"0.02"},{"name":"G6","midi":91,"time":"435.22","velocity":0.14173228346456693,"duration":"0.03"},{"name":"A2","midi":45,"time":"435.23","velocity":0.5354330708661418,"duration":"0.02"},{"name":"C7","midi":96,"time":"435.23","velocity":0.2440944881889764,"duration":"0.17"},{"name":"E3","midi":52,"time":"435.24","velocity":0.33858267716535434,"duration":"0.03"},{"name":"B4","midi":71,"time":"435.24","velocity":0.3700787401574803,"duration":"0.08"},{"name":"E5","midi":76,"time":"435.24","velocity":0.3464566929133858,"duration":"0.12"},{"name":"A#5","midi":82,"time":"435.24","velocity":0.30708661417322836,"duration":"0.06"},{"name":"D#6","midi":87,"time":"435.24","velocity":0.28346456692913385,"duration":"0.12"},{"name":"G#2","midi":44,"time":"435.26","velocity":0.5118110236220472,"duration":"0.01"},{"name":"F#4","midi":66,"time":"435.26","velocity":0.49606299212598426,"duration":"0.30"},{"name":"A2","midi":45,"time":"435.27","velocity":0.49606299212598426,"duration":"0.02"},{"name":"D6","midi":86,"time":"435.27","velocity":0.2283464566929134,"duration":"0.03"},{"name":"F6","midi":89,"time":"435.28","velocity":0.2125984251968504,"duration":"0.03"},{"name":"A3","midi":57,"time":"435.29","velocity":0.25196850393700787,"duration":"0.02"},{"name":"G6","midi":91,"time":"435.29","velocity":0.23622047244094488,"duration":"0.02"},{"name":"E7","midi":100,"time":"435.29","velocity":0.2204724409448819,"duration":"0.20"},{"name":"A4","midi":69,"time":"435.30","velocity":0.2992125984251969,"duration":"0.02"},{"name":"A2","midi":45,"time":"435.31","velocity":0.5118110236220472,"duration":"0.01"},{"name":"G5","midi":79,"time":"435.31","velocity":0.31496062992125984,"duration":"0.06"},{"name":"A#5","midi":82,"time":"435.31","velocity":0.3858267716535433,"duration":"0.03"},{"name":"G2","midi":43,"time":"435.33","velocity":0.5905511811023622,"duration":"0.01"},{"name":"D6","midi":86,"time":"435.33","velocity":0.28346456692913385,"duration":"0.05"},{"name":"F#2","midi":42,"time":"435.34","velocity":0.6535433070866141,"duration":"0.01"},{"name":"A3","midi":57,"time":"435.34","velocity":0.3700787401574803,"duration":"0.02"},{"name":"B4","midi":71,"time":"435.34","velocity":0.5039370078740157,"duration":"0.40"},{"name":"F2","midi":41,"time":"435.35","velocity":0.6220472440944882,"duration":"0.01"},{"name":"B5","midi":83,"time":"435.35","velocity":0.5984251968503937,"duration":"0.57"},{"name":"C#4","midi":61,"time":"435.36","velocity":0.33070866141732286,"duration":"0.02"},{"name":"C3","midi":48,"time":"435.37","velocity":0.5511811023622047,"duration":"0.01"},{"name":"E5","midi":76,"time":"435.37","velocity":0.4251968503937008,"duration":"0.15"},{"name":"D#6","midi":87,"time":"435.37","velocity":0.25984251968503935,"duration":"0.06"},{"name":"A#2","midi":46,"time":"435.38","velocity":0.5669291338582677,"duration":"0.01"},{"name":"A3","midi":57,"time":"435.38","velocity":0.4409448818897638,"duration":"0.24"},{"name":"A5","midi":81,"time":"435.38","velocity":0.2125984251968504,"duration":"0.05"},{"name":"D6","midi":86,"time":"435.38","velocity":0.3779527559055118,"duration":"0.14"},{"name":"A6","midi":93,"time":"435.38","velocity":0.2125984251968504,"duration":"0.03"},{"name":"A2","midi":45,"time":"435.40","velocity":0.5433070866141733,"duration":"0.01"},{"name":"C#4","midi":61,"time":"435.40","velocity":0.4409448818897638,"duration":"0.19"},{"name":"G6","midi":91,"time":"435.40","velocity":0.1968503937007874,"duration":"0.03"},{"name":"G#2","midi":44,"time":"435.41","velocity":0.4881889763779528,"duration":"0.02"},{"name":"G5","midi":79,"time":"435.41","velocity":0.3937007874015748,"duration":"0.02"},{"name":"D#5","midi":75,"time":"435.42","velocity":0.2992125984251969,"duration":"0.02"},{"name":"A2","midi":45,"time":"435.43","velocity":0.5590551181102362,"duration":"0.03"},{"name":"A5","midi":81,"time":"435.44","velocity":0.1968503937007874,"duration":"0.06"},{"name":"D#6","midi":87,"time":"435.44","velocity":0.15748031496062992,"duration":"0.09"},{"name":"A6","midi":93,"time":"435.44","velocity":0.29133858267716534,"duration":"0.14"},{"name":"G#5","midi":80,"time":"435.45","velocity":0.33070866141732286,"duration":"0.19"},{"name":"A#2","midi":46,"time":"435.47","velocity":0.5118110236220472,"duration":"0.01"},{"name":"F6","midi":89,"time":"435.47","velocity":0.09448818897637795,"duration":"0.06"},{"name":"G#2","midi":44,"time":"435.48","velocity":0.5433070866141733,"duration":"0.02"},{"name":"D5","midi":74,"time":"435.48","velocity":0.1968503937007874,"duration":"0.03"},{"name":"G5","midi":79,"time":"435.48","velocity":0.2677165354330709,"duration":"0.03"},{"name":"C7","midi":96,"time":"435.48","velocity":0.14173228346456693,"duration":"0.07"},{"name":"G#4","midi":68,"time":"435.49","velocity":0.3543307086614173,"duration":"0.09"},{"name":"A2","midi":45,"time":"435.50","velocity":0.5748031496062992,"duration":"0.03"},{"name":"E4","midi":64,"time":"435.51","velocity":0.3779527559055118,"duration":"0.02"},{"name":"F#5","midi":78,"time":"435.51","velocity":0.5039370078740157,"duration":"0.08"},{"name":"D#5","midi":75,"time":"435.52","velocity":0.11023622047244094,"duration":"0.07"},{"name":"A#5","midi":82,"time":"435.52","velocity":0.1968503937007874,"duration":"0.06"},{"name":"C6","midi":84,"time":"435.52","velocity":0.31496062992125984,"duration":"0.02"},{"name":"A#2","midi":46,"time":"435.53","velocity":0.5196850393700787,"duration":"0.01"},{"name":"C#6","midi":85,"time":"435.53","velocity":0.3543307086614173,"duration":"0.14"},{"name":"A2","midi":45,"time":"435.55","velocity":0.5433070866141733,"duration":"0.01"},{"name":"D6","midi":86,"time":"435.55","velocity":0.29133858267716534,"duration":"0.08"},{"name":"F#2","midi":42,"time":"435.56","velocity":0.5275590551181102,"duration":"0.01"},{"name":"G5","midi":79,"time":"435.56","velocity":0.3779527559055118,"duration":"0.09"},{"name":"C7","midi":96,"time":"435.56","velocity":0.1732283464566929,"duration":"0.10"},{"name":"F#4","midi":66,"time":"435.58","velocity":0.47244094488188976,"duration":"0.17"},{"name":"E5","midi":76,"time":"435.58","velocity":0.23622047244094488,"duration":"0.05"},{"name":"G#2","midi":44,"time":"435.59","velocity":0.5433070866141733,"duration":"0.01"},{"name":"C#4","midi":61,"time":"435.59","velocity":0.33070866141732286,"duration":"0.06"},{"name":"D5","midi":74,"time":"435.60","velocity":0.2204724409448819,"duration":"0.06"},{"name":"A#5","midi":82,"time":"435.60","velocity":0.16535433070866143,"duration":"0.03"},{"name":"D#6","midi":87,"time":"435.60","velocity":0.1889763779527559,"duration":"0.06"},{"name":"A6","midi":93,"time":"435.60","velocity":0.14173228346456693,"duration":"0.03"},{"name":"A#6","midi":94,"time":"435.60","velocity":0.2440944881889764,"duration":"0.13"},{"name":"A#2","midi":46,"time":"435.62","velocity":0.5196850393700787,"duration":"0.01"},{"name":"A5","midi":81,"time":"435.62","velocity":0.1968503937007874,"duration":"0.06"},{"name":"G#2","midi":44,"time":"435.63","velocity":0.5275590551181102,"duration":"0.01"},{"name":"F#5","midi":78,"time":"435.63","velocity":0.5275590551181102,"duration":"0.12"},{"name":"A3","midi":57,"time":"435.64","velocity":0.3779527559055118,"duration":"0.03"},{"name":"G6","midi":91,"time":"435.65","velocity":0.1889763779527559,"duration":"0.03"},{"name":"F2","midi":41,"time":"435.66","velocity":0.47244094488188976,"duration":"0.02"},{"name":"C#4","midi":61,"time":"435.66","velocity":0.2677165354330709,"duration":"0.03"},{"name":"E5","midi":76,"time":"435.66","velocity":0.36220472440944884,"duration":"0.16"},{"name":"C#5","midi":73,"time":"435.67","velocity":0.3543307086614173,"duration":"0.06"},{"name":"A5","midi":81,"time":"435.69","velocity":0.2677165354330709,"duration":"0.08"},{"name":"C#6","midi":85,"time":"435.69","velocity":0.4094488188976378,"duration":"0.10"},{"name":"G7","midi":103,"time":"435.69","velocity":0.2047244094488189,"duration":"0.16"},{"name":"D4","midi":62,"time":"435.70","velocity":0.2440944881889764,"duration":"0.02"},{"name":"G5","midi":79,"time":"435.70","velocity":0.28346456692913385,"duration":"0.02"},{"name":"D#6","midi":87,"time":"435.70","velocity":0.1968503937007874,"duration":"0.05"},{"name":"F7","midi":101,"time":"435.70","velocity":0.29133858267716534,"duration":"1.19"},{"name":"A2","midi":45,"time":"435.71","velocity":0.6220472440944882,"duration":"0.01"},{"name":"B2","midi":47,"time":"435.72","velocity":0.5984251968503937,"duration":"0.01"},{"name":"D#7","midi":99,"time":"435.72","velocity":0.33858267716535434,"duration":"1.63"},{"name":"D3","midi":50,"time":"435.73","velocity":0.5826771653543307,"duration":"0.05"},{"name":"A3","midi":57,"time":"435.73","velocity":0.29133858267716534,"duration":"0.02"},{"name":"G#5","midi":80,"time":"435.73","velocity":0.29133858267716534,"duration":"0.14"},{"name":"C7","midi":96,"time":"435.73","velocity":0.2125984251968504,"duration":"0.13"},{"name":"C#5","midi":73,"time":"435.74","velocity":0.5275590551181102,"duration":"0.19"},{"name":"A#6","midi":94,"time":"435.74","velocity":0.2283464566929134,"duration":"0.13"},{"name":"G4","midi":67,"time":"435.76","velocity":0.31496062992125984,"duration":"0.02"},{"name":"F#5","midi":78,"time":"435.76","velocity":0.4094488188976378,"duration":"0.12"},{"name":"F6","midi":89,"time":"435.76","velocity":0.2204724409448819,"duration":"0.05"},{"name":"A#5","midi":82,"time":"435.77","velocity":0.2677165354330709,"duration":"0.06"},{"name":"D#3","midi":51,"time":"435.78","velocity":0.5354330708661418,"duration":"0.02"},{"name":"E4","midi":64,"time":"435.78","velocity":0.3464566929133858,"duration":"0.02"},{"name":"A4","midi":69,"time":"435.78","velocity":0.33070866141732286,"duration":"0.12"},{"name":"C6","midi":84,"time":"435.78","velocity":0.3464566929133858,"duration":"0.03"},{"name":"E7","midi":100,"time":"435.78","velocity":0.2992125984251969,"duration":"0.70"},{"name":"D#6","midi":87,"time":"435.79","velocity":0.41732283464566927,"duration":"0.06"},{"name":"F#4","midi":66,"time":"435.80","velocity":0.3937007874015748,"duration":"0.05"},{"name":"B4","midi":71,"time":"435.80","velocity":0.47244094488188976,"duration":"0.14"},{"name":"C#6","midi":85,"time":"435.80","velocity":0.5433070866141733,"duration":"0.37"},{"name":"C#3","midi":49,"time":"435.81","velocity":0.5039370078740157,"duration":"0.02"},{"name":"D#4","midi":63,"time":"435.81","velocity":0.3228346456692913,"duration":"0.02"},{"name":"F6","midi":89,"time":"435.81","velocity":0.4566929133858268,"duration":"0.05"},{"name":"D3","midi":50,"time":"435.84","velocity":0.47244094488188976,"duration":"0.02"},{"name":"E5","midi":76,"time":"435.84","velocity":0.2755905511811024,"duration":"0.07"},{"name":"E4","midi":64,"time":"435.85","velocity":0.30708661417322836,"duration":"0.09"},{"name":"A#5","midi":82,"time":"435.85","velocity":0.3700787401574803,"duration":"0.06"},{"name":"D6","midi":86,"time":"435.85","velocity":0.4330708661417323,"duration":"0.03"},{"name":"A3","midi":57,"time":"435.86","velocity":0.30708661417322836,"duration":"0.03"},{"name":"F#4","midi":66,"time":"435.86","velocity":0.2992125984251969,"duration":"0.02"},{"name":"G5","midi":79,"time":"435.86","velocity":0.3543307086614173,"duration":"0.05"},{"name":"F5","midi":77,"time":"435.87","velocity":0.2440944881889764,"duration":"0.02"},{"name":"C7","midi":96,"time":"435.87","velocity":0.2125984251968504,"duration":"0.26"},{"name":"G7","midi":103,"time":"435.87","velocity":0.14960629921259844,"duration":"0.07"},{"name":"D#6","midi":87,"time":"435.88","velocity":0.2283464566929134,"duration":"0.03"},{"name":"G1","midi":31,"time":"435.90","velocity":0.3228346456692913,"duration":"0.02"},{"name":"D3","midi":50,"time":"435.90","velocity":0.44881889763779526,"duration":"0.05"},{"name":"F#4","midi":66,"time":"435.90","velocity":0.3858267716535433,"duration":"0.08"},{"name":"F#5","midi":78,"time":"435.90","velocity":0.3937007874015748,"duration":"0.12"},{"name":"A3","midi":57,"time":"435.91","velocity":0.3700787401574803,"duration":"0.12"},{"name":"A5","midi":81,"time":"435.91","velocity":0.2755905511811024,"duration":"0.02"},{"name":"D5","midi":74,"time":"435.92","velocity":0.23622047244094488,"duration":"0.02"},{"name":"A#5","midi":82,"time":"435.92","velocity":0.48031496062992124,"duration":"0.05"},{"name":"G6","midi":91,"time":"435.92","velocity":0.1732283464566929,"duration":"0.06"},{"name":"E5","midi":76,"time":"435.93","velocity":0.3543307086614173,"duration":"0.22"},{"name":"G5","midi":79,"time":"435.93","velocity":0.2125984251968504,"duration":"0.03"},{"name":"D#6","midi":87,"time":"435.93","velocity":0.16535433070866143,"duration":"0.03"},{"name":"C#5","midi":73,"time":"435.94","velocity":0.4015748031496063,"duration":"0.08"},{"name":"D3","midi":50,"time":"435.95","velocity":0.5590551181102362,"duration":"0.13"},{"name":"A5","midi":81,"time":"435.97","velocity":0.4645669291338583,"duration":"0.02"},{"name":"D6","midi":86,"time":"435.97","velocity":0.2440944881889764,"duration":"0.02"},{"name":"G4","midi":67,"time":"435.98","velocity":0.3858267716535433,"duration":"0.08"},{"name":"G#5","midi":80,"time":"435.98","velocity":0.48031496062992124,"duration":"0.03"},{"name":"B4","midi":71,"time":"435.99","velocity":0.4251968503937008,"duration":"0.06"},{"name":"D5","midi":74,"time":"435.99","velocity":0.2677165354330709,"duration":"0.02"},{"name":"A#5","midi":82,"time":"435.99","velocity":0.31496062992125984,"duration":"0.02"},{"name":"G5","midi":79,"time":"436.01","velocity":0.5196850393700787,"duration":"0.15"},{"name":"D5","midi":74,"time":"436.02","velocity":0.4094488188976378,"duration":"0.02"},{"name":"A5","midi":81,"time":"436.02","velocity":0.23622047244094488,"duration":"0.03"},{"name":"A#5","midi":82,"time":"436.02","velocity":0.36220472440944884,"duration":"0.08"},{"name":"D7","midi":98,"time":"436.02","velocity":0.30708661417322836,"duration":"0.64"},{"name":"C#5","midi":73,"time":"436.03","velocity":0.3937007874015748,"duration":"0.24"},{"name":"B5","midi":83,"time":"436.05","velocity":0.3464566929133858,"duration":"0.15"},{"name":"F#4","midi":66,"time":"436.06","velocity":0.5511811023622047,"duration":"0.40"},{"name":"B4","midi":71,"time":"436.07","velocity":0.3228346456692913,"duration":"0.06"},{"name":"D6","midi":86,"time":"436.07","velocity":0.2283464566929134,"duration":"0.13"},{"name":"G2","midi":43,"time":"436.08","velocity":0.47244094488188976,"duration":"0.02"},{"name":"A5","midi":81,"time":"436.09","velocity":0.3779527559055118,"duration":"0.02"},{"name":"C4","midi":60,"time":"436.10","velocity":0.2283464566929134,"duration":"0.02"},{"name":"E2","midi":40,"time":"436.12","velocity":0.4330708661417323,"duration":"0.02"},{"name":"D3","midi":50,"time":"436.12","velocity":0.4645669291338583,"duration":"0.02"},{"name":"A#5","midi":82,"time":"436.12","velocity":0.3858267716535433,"duration":"0.16"},{"name":"D#6","midi":87,"time":"436.12","velocity":0.28346456692913385,"duration":"0.14"},{"name":"A4","midi":69,"time":"436.13","velocity":0.1889763779527559,"duration":"0.03"},{"name":"D#5","midi":75,"time":"436.13","velocity":0.2992125984251969,"duration":"0.03"},{"name":"D#3","midi":51,"time":"436.14","velocity":0.5354330708661418,"duration":"0.01"},{"name":"A3","midi":57,"time":"436.14","velocity":0.47244094488188976,"duration":"0.30"},{"name":"D4","midi":62,"time":"436.14","velocity":0.33858267716535434,"duration":"0.05"},{"name":"B4","midi":71,"time":"436.14","velocity":0.33858267716535434,"duration":"0.16"},{"name":"C7","midi":96,"time":"436.14","velocity":0.15748031496062992,"duration":"0.06"},{"name":"D3","midi":50,"time":"436.15","velocity":0.5590551181102362,"duration":"0.17"},{"name":"F#5","midi":78,"time":"436.15","velocity":0.5669291338582677,"duration":"0.10"},{"name":"G#5","midi":80,"time":"436.16","velocity":0.2677165354330709,"duration":"0.05"},{"name":"E6","midi":88,"time":"436.16","velocity":0.2755905511811024,"duration":"0.24"},{"name":"E5","midi":76,"time":"436.17","velocity":0.3228346456692913,"duration":"0.06"},{"name":"F6","midi":89,"time":"436.17","velocity":0.1968503937007874,"duration":"0.03"},{"name":"F#2","midi":42,"time":"436.19","velocity":0.3700787401574803,"duration":"0.03"},{"name":"C6","midi":84,"time":"436.19","velocity":0.29133858267716534,"duration":"0.05"},{"name":"A6","midi":93,"time":"436.19","velocity":0.10236220472440945,"duration":"0.10"},{"name":"A5","midi":81,"time":"436.20","velocity":0.2204724409448819,"duration":"0.03"},{"name":"C#6","midi":85,"time":"436.20","velocity":0.4330708661417323,"duration":"0.14"},{"name":"G6","midi":91,"time":"436.22","velocity":0.15748031496062992,"duration":"0.03"},{"name":"F2","midi":41,"time":"436.23","velocity":0.4015748031496063,"duration":"0.02"},{"name":"B5","midi":83,"time":"436.23","velocity":0.3937007874015748,"duration":"0.21"},{"name":"D5","midi":74,"time":"436.26","velocity":0.2992125984251969,"duration":"0.02"},{"name":"E5","midi":76,"time":"436.26","velocity":0.2992125984251969,"duration":"0.03"},{"name":"F#5","midi":78,"time":"436.27","velocity":0.5590551181102362,"duration":"0.08"},{"name":"A5","midi":81,"time":"436.27","velocity":0.3700787401574803,"duration":"0.10"},{"name":"G6","midi":91,"time":"436.27","velocity":0.14173228346456693,"duration":"0.06"},{"name":"G#5","midi":80,"time":"436.28","velocity":0.15748031496062992,"duration":"0.03"},{"name":"F2","midi":41,"time":"436.29","velocity":0.36220472440944884,"duration":"0.02"},{"name":"G7","midi":103,"time":"436.29","velocity":0.15748031496062992,"duration":"0.07"},{"name":"C#5","midi":73,"time":"436.30","velocity":0.4566929133858268,"duration":"0.15"},{"name":"E5","midi":76,"time":"436.30","velocity":0.3228346456692913,"duration":"0.03"},{"name":"D#6","midi":87,"time":"436.31","velocity":0.07874015748031496,"duration":"0.03"},{"name":"F5","midi":77,"time":"436.34","velocity":0.47244094488188976,"duration":"0.02"},{"name":"E5","midi":76,"time":"436.35","velocity":0.14960629921259844,"duration":"0.03"},{"name":"C#6","midi":85,"time":"436.35","velocity":0.5826771653543307,"duration":"0.56"},{"name":"B4","midi":71,"time":"436.36","velocity":0.29133858267716534,"duration":"0.06"},{"name":"G#5","midi":80,"time":"436.36","velocity":0.3464566929133858,"duration":"0.05"},{"name":"A#5","midi":82,"time":"436.36","velocity":0.33070866141732286,"duration":"0.03"},{"name":"C#3","midi":49,"time":"436.37","velocity":0.3543307086614173,"duration":"0.02"},{"name":"F6","midi":89,"time":"436.37","velocity":0.2125984251968504,"duration":"0.10"},{"name":"D6","midi":86,"time":"436.40","velocity":0.28346456692913385,"duration":"0.06"},{"name":"G6","midi":91,"time":"436.40","velocity":0.2204724409448819,"duration":"0.03"},{"name":"D4","midi":62,"time":"436.41","velocity":0.29133858267716534,"duration":"0.03"},{"name":"E5","midi":76,"time":"436.41","velocity":0.4645669291338583,"duration":"0.09"},{"name":"A#5","midi":82,"time":"436.41","velocity":0.3858267716535433,"duration":"0.13"},{"name":"D3","midi":50,"time":"436.42","velocity":0.5118110236220472,"duration":"0.05"},{"name":"G7","midi":103,"time":"436.43","velocity":0.15748031496062992,"duration":"0.13"},{"name":"D#4","midi":63,"time":"436.44","velocity":0.4409448818897638,"duration":"0.05"},{"name":"A#4","midi":70,"time":"436.44","velocity":0.33070866141732286,"duration":"0.02"},{"name":"D5","midi":74,"time":"436.44","velocity":0.4015748031496063,"duration":"0.02"},{"name":"C6","midi":84,"time":"436.44","velocity":0.30708661417322836,"duration":"0.06"},{"name":"G6","midi":91,"time":"436.44","velocity":0.23622047244094488,"duration":"0.06"},{"name":"A6","midi":93,"time":"436.44","velocity":0.25984251968503935,"duration":"0.09"},{"name":"G5","midi":79,"time":"436.45","velocity":0.36220472440944884,"duration":"0.02"},{"name":"G3","midi":55,"time":"436.47","velocity":0.48031496062992124,"duration":"0.03"},{"name":"A4","midi":69,"time":"436.47","velocity":0.47244094488188976,"duration":"0.03"},{"name":"C#5","midi":73,"time":"436.47","velocity":0.3937007874015748,"duration":"0.02"},{"name":"D6","midi":86,"time":"436.47","velocity":0.2440944881889764,"duration":"0.05"},{"name":"G#6","midi":92,"time":"436.47","velocity":0.4330708661417323,"duration":"1.31"},{"name":"A#3","midi":58,"time":"436.48","velocity":0.4566929133858268,"duration":"0.06"},{"name":"C5","midi":72,"time":"436.48","velocity":0.4409448818897638,"duration":"0.03"},{"name":"F#5","midi":78,"time":"436.48","velocity":0.47244094488188976,"duration":"0.14"},{"name":"G#5","midi":80,"time":"436.48","velocity":0.33858267716535434,"duration":"0.05"},{"name":"F#4","midi":66,"time":"436.49","velocity":0.5039370078740157,"duration":"0.56"},{"name":"B5","midi":83,"time":"436.49","velocity":0.41732283464566927,"duration":"0.21"},{"name":"F6","midi":89,"time":"436.49","velocity":0.2047244094488189,"duration":"0.07"},{"name":"C#5","midi":73,"time":"436.50","velocity":0.5511811023622047,"duration":"0.36"},{"name":"A5","midi":81,"time":"436.50","velocity":0.2992125984251969,"duration":"0.07"},{"name":"D3","midi":50,"time":"436.51","velocity":0.5196850393700787,"duration":"0.05"},{"name":"A4","midi":69,"time":"436.53","velocity":0.3779527559055118,"duration":"0.10"},{"name":"C#4","midi":61,"time":"436.55","velocity":0.2677165354330709,"duration":"0.02"},{"name":"A#5","midi":82,"time":"436.55","velocity":0.25196850393700787,"duration":"0.02"},{"name":"D6","midi":86,"time":"436.55","velocity":0.30708661417322836,"duration":"0.03"},{"name":"E5","midi":76,"time":"436.56","velocity":0.2755905511811024,"duration":"0.02"},{"name":"G5","midi":79,"time":"436.57","velocity":0.33858267716535434,"duration":"0.02"},{"name":"F2","midi":41,"time":"436.58","velocity":0.4094488188976378,"duration":"0.02"},{"name":"D#5","midi":75,"time":"436.58","velocity":0.2677165354330709,"duration":"0.02"},{"name":"G7","midi":103,"time":"436.58","velocity":0.11811023622047244,"duration":"0.08"},{"name":"A3","midi":57,"time":"436.59","velocity":0.4409448818897638,"duration":"0.13"},{"name":"A#5","midi":82,"time":"436.59","velocity":0.2992125984251969,"duration":"0.19"},{"name":"C#3","midi":49,"time":"436.60","velocity":0.4251968503937008,"duration":"0.02"},{"name":"E5","midi":76,"time":"436.62","velocity":0.36220472440944884,"duration":"0.03"},{"name":"D#6","midi":87,"time":"436.62","velocity":0.2440944881889764,"duration":"0.14"},{"name":"D#3","midi":51,"time":"436.63","velocity":0.48031496062992124,"duration":"0.02"},{"name":"F#5","midi":78,"time":"436.63","velocity":0.5669291338582677,"duration":"0.31"},{"name":"D3","midi":50,"time":"436.65","velocity":0.5196850393700787,"duration":"0.07"},{"name":"A5","midi":81,"time":"436.65","velocity":0.2677165354330709,"duration":"0.02"},{"name":"B4","midi":71,"time":"436.66","velocity":0.30708661417322836,"duration":"0.06"},{"name":"E5","midi":76,"time":"436.66","velocity":0.36220472440944884,"duration":"0.09"},{"name":"C7","midi":96,"time":"436.66","velocity":0.1889763779527559,"duration":"0.13"},{"name":"F#2","midi":42,"time":"436.67","velocity":0.3464566929133858,"duration":"0.02"},{"name":"A#6","midi":94,"time":"436.67","velocity":0.3228346456692913,"duration":"0.38"},{"name":"D7","midi":98,"time":"436.67","velocity":0.2283464566929134,"duration":"0.14"},{"name":"C6","midi":84,"time":"436.69","velocity":0.2047244094488189,"duration":"0.03"},{"name":"G6","midi":91,"time":"436.69","velocity":0.2440944881889764,"duration":"0.05"},{"name":"A5","midi":81,"time":"436.70","velocity":0.29133858267716534,"duration":"0.02"},{"name":"C#3","midi":49,"time":"436.72","velocity":0.5118110236220472,"duration":"0.01"},{"name":"D3","midi":50,"time":"436.73","velocity":0.5275590551181102,"duration":"0.05"},{"name":"G#5","midi":80,"time":"436.73","velocity":0.2677165354330709,"duration":"0.07"},{"name":"A5","midi":81,"time":"436.73","velocity":0.36220472440944884,"duration":"0.06"},{"name":"G7","midi":103,"time":"436.73","velocity":0.13385826771653545,"duration":"0.05"},{"name":"D#5","midi":75,"time":"436.74","velocity":0.2992125984251969,"duration":"0.02"},{"name":"A4","midi":69,"time":"436.76","velocity":0.29133858267716534,"duration":"0.02"},{"name":"D6","midi":86,"time":"436.76","velocity":0.1732283464566929,"duration":"0.03"},{"name":"E5","midi":76,"time":"436.77","velocity":0.3937007874015748,"duration":"0.09"},{"name":"C#3","midi":49,"time":"436.78","velocity":0.5196850393700787,"duration":"0.01"},{"name":"A#4","midi":70,"time":"436.78","velocity":0.2992125984251969,"duration":"0.02"},{"name":"D3","midi":50,"time":"436.79","velocity":0.5511811023622047,"duration":"0.05"},{"name":"A#5","midi":82,"time":"436.79","velocity":0.36220472440944884,"duration":"0.12"},{"name":"D#6","midi":87,"time":"436.79","velocity":0.18110236220472442,"duration":"0.03"},{"name":"G6","midi":91,"time":"436.79","velocity":0.28346456692913385,"duration":"0.05"},{"name":"B4","midi":71,"time":"436.80","velocity":0.2677165354330709,"duration":"0.05"},{"name":"B5","midi":83,"time":"436.80","velocity":0.2992125984251969,"duration":"0.05"},{"name":"A4","midi":69,"time":"436.81","velocity":0.3464566929133858,"duration":"0.09"},{"name":"D6","midi":86,"time":"436.81","velocity":0.23622047244094488,"duration":"0.02"},{"name":"C7","midi":96,"time":"436.81","velocity":0.25196850393700787,"duration":"0.41"},{"name":"D7","midi":98,"time":"436.83","velocity":0.2992125984251969,"duration":"0.26"},{"name":"B6","midi":95,"time":"436.84","velocity":0.3464566929133858,"duration":"0.49"},{"name":"F2","midi":41,"time":"436.85","velocity":0.3700787401574803,"duration":"0.03"},{"name":"C5","midi":72,"time":"436.85","velocity":0.36220472440944884,"duration":"0.02"},{"name":"D6","midi":86,"time":"436.85","velocity":0.2677165354330709,"duration":"0.05"},{"name":"A6","midi":93,"time":"436.85","velocity":0.25196850393700787,"duration":"0.37"},{"name":"D3","midi":50,"time":"436.86","velocity":0.4645669291338583,"duration":"0.02"},{"name":"C4","midi":60,"time":"436.86","velocity":0.2992125984251969,"duration":"0.02"},{"name":"B5","midi":83,"time":"436.86","velocity":0.44881889763779526,"duration":"0.07"},{"name":"G6","midi":91,"time":"436.86","velocity":0.2677165354330709,"duration":"0.06"},{"name":"A3","midi":57,"time":"436.87","velocity":0.4094488188976378,"duration":"0.13"},{"name":"B4","midi":71,"time":"436.87","velocity":0.4881889763779528,"duration":"0.14"},{"name":"E5","midi":76,"time":"436.87","velocity":0.41732283464566927,"duration":"0.05"},{"name":"C#3","midi":49,"time":"436.88","velocity":0.5354330708661418,"duration":"0.02"},{"name":"D4","midi":62,"time":"436.88","velocity":0.25984251968503935,"duration":"0.02"},{"name":"C#5","midi":73,"time":"436.88","velocity":0.5590551181102362,"duration":"0.92"},{"name":"D#6","midi":87,"time":"436.88","velocity":0.2047244094488189,"duration":"0.08"},{"name":"D3","midi":50,"time":"436.91","velocity":0.5984251968503937,"duration":"0.16"},{"name":"F7","midi":101,"time":"436.91","velocity":0.31496062992125984,"duration":"1.62"},{"name":"A#5","midi":82,"time":"436.92","velocity":0.31496062992125984,"duration":"0.09"},{"name":"F6","midi":89,"time":"436.92","velocity":0.1732283464566929,"duration":"0.03"},{"name":"C6","midi":84,"time":"436.93","velocity":0.30708661417322836,"duration":"0.05"},{"name":"G#5","midi":80,"time":"436.94","velocity":0.2755905511811024,"duration":"0.07"},{"name":"F#2","midi":42,"time":"436.95","velocity":0.29133858267716534,"duration":"0.03"},{"name":"F#5","midi":78,"time":"436.95","velocity":0.6062992125984252,"duration":"0.45"},{"name":"D6","midi":86,"time":"436.95","velocity":0.2755905511811024,"duration":"0.03"},{"name":"B5","midi":83,"time":"436.97","velocity":0.5275590551181102,"duration":"0.41"},{"name":"E5","midi":76,"time":"436.98","velocity":0.36220472440944884,"duration":"0.03"},{"name":"D#6","midi":87,"time":"436.98","velocity":0.1889763779527559,"duration":"0.05"},{"name":"G6","midi":91,"time":"436.98","velocity":0.2047244094488189,"duration":"0.05"},{"name":"D#5","midi":75,"time":"436.99","velocity":0.33070866141732286,"duration":"0.03"},{"name":"F2","midi":41,"time":"437.01","velocity":0.3543307086614173,"duration":"0.02"},{"name":"E5","midi":76,"time":"437.02","velocity":0.4330708661417323,"duration":"0.12"},{"name":"G#5","midi":80,"time":"437.02","velocity":0.14960629921259844,"duration":"0.06"},{"name":"A#5","midi":82,"time":"437.02","velocity":0.3228346456692913,"duration":"0.06"},{"name":"A3","midi":57,"time":"437.03","velocity":0.3779527559055118,"duration":"0.14"},{"name":"B4","midi":71,"time":"437.03","velocity":0.49606299212598426,"duration":"0.20"},{"name":"G6","midi":91,"time":"437.03","velocity":0.1968503937007874,"duration":"0.06"},{"name":"D6","midi":86,"time":"437.05","velocity":0.29133858267716534,"duration":"0.22"},{"name":"D#6","midi":87,"time":"437.05","velocity":0.11811023622047244,"duration":"0.05"},{"name":"F#4","midi":66,"time":"437.06","velocity":0.4566929133858268,"duration":"0.15"},{"name":"F6","midi":89,"time":"437.07","velocity":0.33070866141732286,"duration":"0.07"},{"name":"D3","midi":50,"time":"437.08","velocity":0.5275590551181102,"duration":"0.02"},{"name":"A5","midi":81,"time":"437.08","velocity":0.2283464566929134,"duration":"0.06"},{"name":"A#6","midi":94,"time":"437.08","velocity":0.25196850393700787,"duration":"0.19"},{"name":"D4","midi":62,"time":"437.10","velocity":0.25196850393700787,"duration":"0.03"},{"name":"G5","midi":79,"time":"437.10","velocity":0.2204724409448819,"duration":"0.03"},{"name":"A#5","midi":82,"time":"437.10","velocity":0.3700787401574803,"duration":"0.14"},{"name":"D#6","midi":87,"time":"437.10","velocity":0.14173228346456693,"duration":"0.03"},{"name":"F2","midi":41,"time":"437.12","velocity":0.2755905511811024,"duration":"0.02"},{"name":"C#3","midi":49,"time":"437.12","velocity":0.41732283464566927,"duration":"0.02"},{"name":"F6","midi":89,"time":"437.15","velocity":0.33858267716535434,"duration":"0.06"},{"name":"D#4","midi":63,"time":"437.16","velocity":0.25984251968503935,"duration":"0.02"},{"name":"E5","midi":76,"time":"437.17","velocity":0.4409448818897638,"duration":"0.02"},{"name":"G#5","midi":80,"time":"437.17","velocity":0.28346456692913385,"duration":"0.05"},{"name":"D3","midi":50,"time":"437.21","velocity":0.5826771653543307,"duration":"0.02"},{"name":"F4","midi":65,"time":"437.21","velocity":0.3700787401574803,"duration":"0.02"},{"name":"E5","midi":76,"time":"437.21","velocity":0.31496062992125984,"duration":"0.02"},{"name":"A4","midi":69,"time":"437.22","velocity":0.3464566929133858,"duration":"0.08"},{"name":"F6","midi":89,"time":"437.22","velocity":0.2440944881889764,"duration":"0.05"},{"name":"G6","midi":91,"time":"437.22","velocity":0.2283464566929134,"duration":"0.08"},{"name":"A2","midi":45,"time":"437.23","velocity":0.6377952755905512,"duration":"0.01"},{"name":"F#4","midi":66,"time":"437.23","velocity":0.4881889763779528,"duration":"0.13"},{"name":"E6","midi":88,"time":"437.23","velocity":0.2755905511811024,"duration":"0.08"},{"name":"A6","midi":93,"time":"437.23","velocity":0.2992125984251969,"duration":"0.30"},{"name":"C7","midi":96,"time":"437.23","velocity":0.2204724409448819,"duration":"0.10"},{"name":"G#2","midi":44,"time":"437.24","velocity":0.5826771653543307,"duration":"0.01"},{"name":"C#3","midi":49,"time":"437.24","velocity":0.5275590551181102,"duration":"0.01"},{"name":"E5","midi":76,"time":"437.24","velocity":0.3228346456692913,"duration":"0.03"},{"name":"D#3","midi":51,"time":"437.26","velocity":0.5748031496062992,"duration":"0.03"},{"name":"E1","midi":28,"time":"437.27","velocity":0.5196850393700787,"duration":"0.01"},{"name":"A3","midi":57,"time":"437.27","velocity":0.31496062992125984,"duration":"0.03"},{"name":"D4","midi":62,"time":"437.27","velocity":0.3228346456692913,"duration":"0.12"},{"name":"F#1","midi":30,"time":"437.28","velocity":0.5590551181102362,"duration":"0.01"},{"name":"D#5","midi":75,"time":"437.28","velocity":0.2992125984251969,"duration":"0.06"},{"name":"G#5","midi":80,"time":"437.28","velocity":0.11811023622047244,"duration":"0.03"},{"name":"A#5","midi":82,"time":"437.28","velocity":0.33858267716535434,"duration":"0.23"},{"name":"D6","midi":86,"time":"437.28","velocity":0.11811023622047244,"duration":"0.03"},{"name":"F6","midi":89,"time":"437.28","velocity":0.1732283464566929,"duration":"0.05"},{"name":"C#3","midi":49,"time":"437.29","velocity":0.5433070866141733,"duration":"0.02"},{"name":"B4","midi":71,"time":"437.29","velocity":0.30708661417322836,"duration":"0.03"},{"name":"G#3","midi":56,"time":"437.30","velocity":0.31496062992125984,"duration":"0.02"},{"name":"D3","midi":50,"time":"437.31","velocity":0.5511811023622047,"duration":"0.01"},{"name":"D#3","midi":51,"time":"437.33","velocity":0.5354330708661418,"duration":"0.01"},{"name":"A3","midi":57,"time":"437.33","velocity":0.3464566929133858,"duration":"0.07"},{"name":"E6","midi":88,"time":"437.33","velocity":0.33070866141732286,"duration":"0.56"},{"name":"D7","midi":98,"time":"437.33","velocity":0.16535433070866143,"duration":"0.07"},{"name":"D3","midi":50,"time":"437.34","velocity":0.5196850393700787,"duration":"0.01"},{"name":"F6","midi":89,"time":"437.34","velocity":0.2677165354330709,"duration":"0.03"},{"name":"C#3","midi":49,"time":"437.35","velocity":0.48031496062992124,"duration":"0.02"},{"name":"D#5","midi":75,"time":"437.35","velocity":0.2283464566929134,"duration":"0.03"},{"name":"C6","midi":84,"time":"437.35","velocity":0.2204724409448819,"duration":"0.03"},{"name":"G#5","midi":80,"time":"437.36","velocity":0.29133858267716534,"duration":"0.07"},{"name":"D#7","midi":99,"time":"437.36","velocity":0.25984251968503935,"duration":"0.51"},{"name":"D3","midi":50,"time":"437.37","velocity":0.5039370078740157,"duration":"0.02"},{"name":"B5","midi":83,"time":"437.38","velocity":0.33858267716535434,"duration":"0.09"},{"name":"D6","midi":86,"time":"437.40","velocity":0.25196850393700787,"duration":"0.02"},{"name":"F6","midi":89,"time":"437.40","velocity":0.3543307086614173,"duration":"0.06"},{"name":"A3","midi":57,"time":"437.41","velocity":0.3464566929133858,"duration":"0.05"},{"name":"F#4","midi":66,"time":"437.41","velocity":0.5275590551181102,"duration":"0.20"},{"name":"D7","midi":98,"time":"437.41","velocity":0.25196850393700787,"duration":"0.16"},{"name":"D3","midi":50,"time":"437.42","velocity":0.4881889763779528,"duration":"0.02"},{"name":"F#5","midi":78,"time":"437.42","velocity":0.6062992125984252,"duration":"0.45"},{"name":"C#3","midi":49,"time":"437.44","velocity":0.36220472440944884,"duration":"0.02"},{"name":"B4","midi":71,"time":"437.44","velocity":0.2755905511811024,"duration":"0.02"},{"name":"E5","midi":76,"time":"437.45","velocity":0.30708661417322836,"duration":"0.09"},{"name":"F1","midi":29,"time":"437.47","velocity":0.31496062992125984,"duration":"0.02"},{"name":"G2","midi":43,"time":"437.47","velocity":0.23622047244094488,"duration":"0.02"},{"name":"G6","midi":91,"time":"437.47","velocity":0.15748031496062992,"duration":"0.07"},{"name":"D3","midi":50,"time":"437.48","velocity":0.4881889763779528,"duration":"0.02"},{"name":"C4","midi":60,"time":"437.48","velocity":0.3464566929133858,"duration":"0.02"},{"name":"A4","midi":69,"time":"437.48","velocity":0.2204724409448819,"duration":"0.07"},{"name":"B4","midi":71,"time":"437.48","velocity":0.2755905511811024,"duration":"0.02"},{"name":"A5","midi":81,"time":"437.48","velocity":0.33070866141732286,"duration":"0.09"},{"name":"D6","midi":86,"time":"437.48","velocity":0.2440944881889764,"duration":"0.09"},{"name":"G#5","midi":80,"time":"437.49","velocity":0.31496062992125984,"duration":"0.06"},{"name":"A3","midi":57,"time":"437.50","velocity":0.36220472440944884,"duration":"0.02"},{"name":"F6","midi":89,"time":"437.50","velocity":0.14173228346456693,"duration":"0.05"},{"name":"D4","midi":62,"time":"437.51","velocity":0.4409448818897638,"duration":"0.33"},{"name":"D#3","midi":51,"time":"437.52","velocity":0.5118110236220472,"duration":"0.01"},{"name":"A#5","midi":82,"time":"437.52","velocity":0.3700787401574803,"duration":"0.15"},{"name":"D3","midi":50,"time":"437.53","velocity":0.5354330708661418,"duration":"0.02"},{"name":"C7","midi":96,"time":"437.53","velocity":0.2440944881889764,"duration":"0.55"},{"name":"B4","midi":71,"time":"437.55","velocity":0.3543307086614173,"duration":"0.06"},{"name":"D#5","midi":75,"time":"437.55","velocity":0.2992125984251969,"duration":"0.02"},{"name":"A3","midi":57,"time":"437.56","velocity":0.4015748031496063,"duration":"0.03"},{"name":"G#5","midi":80,"time":"437.56","velocity":0.23622047244094488,"duration":"0.03"},{"name":"D3","midi":50,"time":"437.57","velocity":0.4409448818897638,"duration":"0.02"},{"name":"E5","midi":76,"time":"437.57","velocity":0.33858267716535434,"duration":"0.05"},{"name":"F6","midi":89,"time":"437.57","velocity":0.12598425196850394,"duration":"0.07"},{"name":"D6","midi":86,"time":"437.58","velocity":0.2125984251968504,"duration":"0.06"},{"name":"D7","midi":98,"time":"437.58","velocity":0.23622047244094488,"duration":"0.21"},{"name":"G2","midi":43,"time":"437.59","velocity":0.5748031496062992,"duration":"0.01"},{"name":"F3","midi":53,"time":"437.59","velocity":0.5354330708661418,"duration":"0.03"},{"name":"A4","midi":69,"time":"437.59","velocity":0.3700787401574803,"duration":"0.08"},{"name":"G5","midi":79,"time":"437.59","velocity":0.25984251968503935,"duration":"0.02"},{"name":"G6","midi":91,"time":"437.59","velocity":0.2677165354330709,"duration":"0.14"},{"name":"F#2","midi":42,"time":"437.60","velocity":0.6692913385826772,"duration":"0.03"},{"name":"F#4","midi":66,"time":"437.62","velocity":0.5826771653543307,"duration":"0.43"},{"name":"D#5","midi":75,"time":"437.62","velocity":0.30708661417322836,"duration":"0.07"},{"name":"A3","midi":57,"time":"437.63","velocity":0.4330708661417323,"duration":"0.10"},{"name":"B4","midi":71,"time":"437.63","velocity":0.33070866141732286,"duration":"0.13"},{"name":"C6","midi":84,"time":"437.63","velocity":0.13385826771653545,"duration":"0.03"},{"name":"C3","midi":48,"time":"437.64","velocity":0.5118110236220472,"duration":"0.01"},{"name":"G#1","midi":32,"time":"437.65","velocity":0.5118110236220472,"duration":"0.02"},{"name":"C#3","midi":49,"time":"437.65","velocity":0.5275590551181102,"duration":"0.02"},{"name":"D6","midi":86,"time":"437.65","velocity":0.2440944881889764,"duration":"0.02"},{"name":"D3","midi":50,"time":"437.67","velocity":0.5748031496062992,"duration":"0.19"},{"name":"G#2","midi":44,"time":"437.69","velocity":0.4330708661417323,"duration":"0.02"},{"name":"A#5","midi":82,"time":"437.69","velocity":0.3228346456692913,"duration":"0.09"},{"name":"D6","midi":86,"time":"437.69","velocity":0.25984251968503935,"duration":"0.12"},{"name":"C6","midi":84,"time":"437.70","velocity":0.18110236220472442,"duration":"0.03"},{"name":"F6","midi":89,"time":"437.70","velocity":0.2047244094488189,"duration":"0.09"},{"name":"D#6","midi":87,"time":"437.71","velocity":0.2440944881889764,"duration":"0.06"},{"name":"E5","midi":76,"time":"437.72","velocity":0.33070866141732286,"duration":"0.07"},{"name":"G5","midi":79,"time":"437.73","velocity":0.28346456692913385,"duration":"0.02"},{"name":"A4","midi":69,"time":"437.77","velocity":0.3543307086614173,"duration":"0.03"},{"name":"G#5","midi":80,"time":"437.78","velocity":0.23622047244094488,"duration":"0.02"},{"name":"C6","midi":84,"time":"437.78","velocity":0.23622047244094488,"duration":"0.07"},{"name":"A3","midi":57,"time":"437.80","velocity":0.4566929133858268,"duration":"0.14"},{"name":"G#4","midi":68,"time":"437.80","velocity":0.2992125984251969,"duration":"0.05"},{"name":"E5","midi":76,"time":"437.80","velocity":0.2992125984251969,"duration":"0.03"},{"name":"A#5","midi":82,"time":"437.80","velocity":0.3228346456692913,"duration":"0.13"},{"name":"D#6","midi":87,"time":"437.80","velocity":0.2283464566929134,"duration":"0.03"},{"name":"D7","midi":98,"time":"437.80","velocity":0.2755905511811024,"duration":"0.29"},{"name":"B5","midi":83,"time":"437.81","velocity":0.2440944881889764,"duration":"0.06"},{"name":"G6","midi":91,"time":"437.81","velocity":0.23622047244094488,"duration":"0.06"},{"name":"B4","midi":71,"time":"437.83","velocity":0.2992125984251969,"duration":"0.06"},{"name":"C#6","midi":85,"time":"437.84","velocity":0.2047244094488189,"duration":"0.03"},{"name":"E5","midi":76,"time":"437.85","velocity":0.44881889763779526,"duration":"0.16"},{"name":"G5","midi":79,"time":"437.85","velocity":0.2755905511811024,"duration":"0.02"},{"name":"D#6","midi":87,"time":"437.85","velocity":0.2047244094488189,"duration":"0.07"},{"name":"E4","midi":64,"time":"437.86","velocity":0.4094488188976378,"duration":"0.02"},{"name":"C6","midi":84,"time":"437.86","velocity":0.30708661417322836,"duration":"0.05"},{"name":"D3","midi":50,"time":"437.87","velocity":0.5433070866141733,"duration":"0.09"},{"name":"G#5","midi":80,"time":"437.87","velocity":0.3858267716535433,"duration":"0.17"},{"name":"F6","midi":89,"time":"437.87","velocity":0.16535433070866143,"duration":"0.03"},{"name":"G#6","midi":92,"time":"437.87","velocity":0.4409448818897638,"duration":"1.44"},{"name":"C5","midi":72,"time":"437.88","velocity":0.29133858267716534,"duration":"0.02"},{"name":"B5","midi":83,"time":"437.90","velocity":0.25196850393700787,"duration":"0.03"},{"name":"C#6","midi":85,"time":"437.90","velocity":0.5511811023622047,"duration":"0.76"},{"name":"C#5","midi":73,"time":"437.91","velocity":0.31496062992125984,"duration":"0.05"},{"name":"A5","midi":81,"time":"437.92","velocity":0.36220472440944884,"duration":"0.05"},{"name":"C6","midi":84,"time":"437.92","velocity":0.18110236220472442,"duration":"0.03"},{"name":"G7","midi":103,"time":"437.92","velocity":0.2755905511811024,"duration":"0.17"},{"name":"B4","midi":71,"time":"437.93","velocity":0.3543307086614173,"duration":"0.05"},{"name":"D#6","midi":87,"time":"437.93","velocity":0.3228346456692913,"duration":"0.12"},{"name":"A#5","midi":82,"time":"437.94","velocity":0.31496062992125984,"duration":"0.05"},{"name":"D6","midi":86,"time":"437.94","velocity":0.2992125984251969,"duration":"0.07"},{"name":"A#4","midi":70,"time":"437.95","velocity":0.28346456692913385,"duration":"0.02"},{"name":"F#2","midi":42,"time":"437.97","velocity":0.47244094488188976,"duration":"0.03"},{"name":"D#3","midi":51,"time":"437.97","velocity":0.5275590551181102,"duration":"0.02"},{"name":"A4","midi":69,"time":"437.98","velocity":0.4645669291338583,"duration":"0.03"},{"name":"C#5","midi":73,"time":"437.98","velocity":0.5275590551181102,"duration":"0.06"},{"name":"G6","midi":91,"time":"437.98","velocity":0.18110236220472442,"duration":"0.12"},{"name":"D3","midi":50,"time":"437.99","velocity":0.5826771653543307,"duration":"0.26"},{"name":"C4","midi":60,"time":"437.99","velocity":0.44881889763779526,"duration":"0.05"},{"name":"B5","midi":83,"time":"437.99","velocity":0.5826771653543307,"duration":"0.63"},{"name":"F6","midi":89,"time":"437.99","velocity":0.1968503937007874,"duration":"0.03"},{"name":"A6","midi":93,"time":"437.99","velocity":0.25984251968503935,"duration":"0.14"},{"name":"A#4","midi":70,"time":"438.01","velocity":0.41732283464566927,"duration":"0.02"},{"name":"A4","midi":69,"time":"438.02","velocity":0.4330708661417323,"duration":"0.12"},{"name":"D#5","midi":75,"time":"438.02","velocity":0.31496062992125984,"duration":"0.03"},{"name":"F5","midi":77,"time":"438.02","velocity":0.5275590551181102,"duration":"0.01"},{"name":"G5","midi":79,"time":"438.02","velocity":0.2755905511811024,"duration":"0.03"},{"name":"A3","midi":57,"time":"438.03","velocity":0.44881889763779526,"duration":"0.02"},{"name":"F#5","midi":78,"time":"438.03","velocity":0.6062992125984252,"duration":"0.33"},{"name":"F6","midi":89,"time":"438.03","velocity":0.2283464566929134,"duration":"0.06"},{"name":"A#3","midi":58,"time":"438.06","velocity":0.4330708661417323,"duration":"0.03"},{"name":"F#4","midi":66,"time":"438.06","velocity":0.5196850393700787,"duration":"0.10"},{"name":"C#5","midi":73,"time":"438.06","velocity":0.48031496062992124,"duration":"0.28"},{"name":"E5","midi":76,"time":"438.06","velocity":0.2992125984251969,"duration":"0.06"},{"name":"A#5","midi":82,"time":"438.06","velocity":0.2755905511811024,"duration":"0.08"},{"name":"D#5","midi":75,"time":"438.10","velocity":0.29133858267716534,"duration":"0.02"},{"name":"C6","midi":84,"time":"438.10","velocity":0.23622047244094488,"duration":"0.02"},{"name":"D7","midi":98,"time":"438.10","velocity":0.29133858267716534,"duration":"0.63"},{"name":"A3","midi":57,"time":"438.12","velocity":0.31496062992125984,"duration":"0.02"},{"name":"A#4","midi":70,"time":"438.12","velocity":0.31496062992125984,"duration":"0.05"},{"name":"G#5","midi":80,"time":"438.12","velocity":0.36220472440944884,"duration":"0.07"},{"name":"G7","midi":103,"time":"438.12","velocity":0.1732283464566929,"duration":"0.10"},{"name":"E5","midi":76,"time":"438.13","velocity":0.25984251968503935,"duration":"0.05"},{"name":"D6","midi":86,"time":"438.13","velocity":0.2677165354330709,"duration":"0.02"},{"name":"A6","midi":93,"time":"438.14","velocity":0.18110236220472442,"duration":"0.05"},{"name":"A3","midi":57,"time":"438.15","velocity":0.4251968503937008,"duration":"0.06"},{"name":"G6","midi":91,"time":"438.15","velocity":0.1968503937007874,"duration":"0.12"},{"name":"B4","midi":71,"time":"438.17","velocity":0.3543307086614173,"duration":"0.14"},{"name":"F#4","midi":66,"time":"438.19","velocity":0.4881889763779528,"duration":"0.21"},{"name":"E5","midi":76,"time":"438.19","velocity":0.31496062992125984,"duration":"0.05"},{"name":"G#5","midi":80,"time":"438.21","velocity":0.2440944881889764,"duration":"0.03"},{"name":"F6","midi":89,"time":"438.21","velocity":0.25984251968503935,"duration":"0.09"},{"name":"A3","midi":57,"time":"438.22","velocity":0.4094488188976378,"duration":"0.10"},{"name":"D6","midi":86,"time":"438.22","velocity":0.16535433070866143,"duration":"0.03"},{"name":"A#6","midi":94,"time":"438.23","velocity":0.2204724409448819,"duration":"0.17"},{"name":"G7","midi":103,"time":"438.23","velocity":0.2677165354330709,"duration":"0.20"},{"name":"D#6","midi":87,"time":"438.24","velocity":0.2047244094488189,"duration":"0.16"},{"name":"D3","midi":50,"time":"438.26","velocity":0.4645669291338583,"duration":"0.03"},{"name":"D#7","midi":99,"time":"438.27","velocity":0.36220472440944884,"duration":"0.87"},{"name":"E4","midi":64,"time":"438.28","velocity":0.23622047244094488,"duration":"0.02"},{"name":"E5","midi":76,"time":"438.28","velocity":0.41732283464566927,"duration":"0.12"},{"name":"C#3","midi":49,"time":"438.29","velocity":0.4645669291338583,"duration":"0.02"},{"name":"G#5","midi":80,"time":"438.29","velocity":0.3464566929133858,"duration":"0.08"},{"name":"G6","midi":91,"time":"438.29","velocity":0.2283464566929134,"duration":"0.06"},{"name":"A#5","midi":82,"time":"438.30","velocity":0.29133858267716534,"duration":"0.06"},{"name":"D6","midi":86,"time":"438.30","velocity":0.2440944881889764,"duration":"0.03"},{"name":"C#4","midi":61,"time":"438.34","velocity":0.33858267716535434,"duration":"0.03"},{"name":"C5","midi":72,"time":"438.34","velocity":0.2992125984251969,"duration":"0.02"},{"name":"F6","midi":89,"time":"438.34","velocity":0.25196850393700787,"duration":"0.13"},{"name":"C#5","midi":73,"time":"438.35","velocity":0.3543307086614173,"duration":"0.03"},{"name":"D#3","midi":51,"time":"438.36","velocity":0.5433070866141733,"duration":"0.02"},{"name":"A#3","midi":58,"time":"438.36","velocity":0.28346456692913385,"duration":"0.02"},{"name":"A5","midi":81,"time":"438.36","velocity":0.4645669291338583,"duration":"0.20"},{"name":"D#5","midi":75,"time":"438.37","velocity":0.3543307086614173,"duration":"0.02"},{"name":"F#5","midi":78,"time":"438.37","velocity":0.5669291338582677,"duration":"0.14"},{"name":"C7","midi":96,"time":"438.37","velocity":0.2440944881889764,"duration":"0.10"},{"name":"D3","midi":50,"time":"438.38","velocity":0.5748031496062992,"duration":"0.10"},{"name":"A3","midi":57,"time":"438.38","velocity":0.4094488188976378,"duration":"0.02"},{"name":"B4","midi":71,"time":"438.38","velocity":0.5118110236220472,"duration":"0.13"},{"name":"E4","midi":64,"time":"438.40","velocity":0.4015748031496063,"duration":"0.02"},{"name":"D5","midi":74,"time":"438.40","velocity":0.30708661417322836,"duration":"0.06"},{"name":"F5","midi":77,"time":"438.40","velocity":0.2755905511811024,"duration":"0.02"},{"name":"D6","midi":86,"time":"438.41","velocity":0.30708661417322836,"duration":"0.05"},{"name":"A3","midi":57,"time":"438.42","velocity":0.33858267716535434,"duration":"0.06"},{"name":"E5","midi":76,"time":"438.42","velocity":0.2992125984251969,"duration":"0.07"},{"name":"E4","midi":64,"time":"438.43","velocity":0.3700787401574803,"duration":"0.08"},{"name":"C#5","midi":73,"time":"438.44","velocity":0.4409448818897638,"duration":"0.14"},{"name":"A#5","midi":82,"time":"438.45","velocity":0.2440944881889764,"duration":"0.03"},{"name":"D#6","midi":87,"time":"438.45","velocity":0.1968503937007874,"duration":"0.08"},{"name":"A#6","midi":94,"time":"438.45","velocity":0.25196850393700787,"duration":"0.09"},{"name":"G#1","midi":32,"time":"438.47","velocity":0.3543307086614173,"duration":"0.03"},{"name":"D6","midi":86,"time":"438.48","velocity":0.28346456692913385,"duration":"0.12"},{"name":"F6","midi":89,"time":"438.48","velocity":0.25984251968503935,"duration":"0.02"},{"name":"C#3","midi":49,"time":"438.49","velocity":0.5669291338582677,"duration":"0.01"},{"name":"G#5","midi":80,"time":"438.49","velocity":0.2677165354330709,"duration":"0.05"},{"name":"C7","midi":96,"time":"438.49","velocity":0.1968503937007874,"duration":"0.17"},{"name":"D3","midi":50,"time":"438.50","velocity":0.5826771653543307,"duration":"0.05"},{"name":"F#4","midi":66,"time":"438.50","velocity":0.4566929133858268,"duration":"0.08"},{"name":"E5","midi":76,"time":"438.51","velocity":0.3543307086614173,"duration":"0.02"},{"name":"F#5","midi":78,"time":"438.52","velocity":0.5905511811023622,"duration":"0.88"},{"name":"G7","midi":103,"time":"438.52","velocity":0.14173228346456693,"duration":"0.08"},{"name":"A#4","midi":70,"time":"438.53","velocity":0.2992125984251969,"duration":"0.02"},{"name":"F7","midi":101,"time":"438.53","velocity":0.18110236220472442,"duration":"0.15"},{"name":"C#3","midi":49,"time":"438.55","velocity":0.5433070866141733,"duration":"0.01"},{"name":"E5","midi":76,"time":"438.55","velocity":0.28346456692913385,"duration":"0.09"},{"name":"F6","midi":89,"time":"438.55","velocity":0.1732283464566929,"duration":"0.10"},{"name":"D3","midi":50,"time":"438.56","velocity":0.5669291338582677,"duration":"0.15"},{"name":"C4","midi":60,"time":"438.56","velocity":0.2283464566929134,"duration":"0.02"},{"name":"A4","midi":69,"time":"438.56","velocity":0.30708661417322836,"duration":"0.03"},{"name":"D#6","midi":87,"time":"438.56","velocity":0.2283464566929134,"duration":"0.20"},{"name":"A#6","midi":94,"time":"438.56","velocity":0.33858267716535434,"duration":"1.28"},{"name":"B4","midi":71,"time":"438.57","velocity":0.5275590551181102,"duration":"0.19"},{"name":"A5","midi":81,"time":"438.57","velocity":0.4015748031496063,"duration":"0.12"},{"name":"A3","midi":57,"time":"438.58","velocity":0.41732283464566927,"duration":"0.14"},{"name":"F4","midi":65,"time":"438.58","velocity":0.25984251968503935,"duration":"0.02"},{"name":"G#5","midi":80,"time":"438.58","velocity":0.2440944881889764,"duration":"0.02"},{"name":"G6","midi":91,"time":"438.58","velocity":0.28346456692913385,"duration":"0.07"},{"name":"C#5","midi":73,"time":"438.59","velocity":0.4330708661417323,"duration":"0.13"},{"name":"F#4","midi":66,"time":"438.60","velocity":0.49606299212598426,"duration":"0.28"},{"name":"D6","midi":86,"time":"438.62","velocity":0.3543307086614173,"duration":"0.06"},{"name":"G#5","midi":80,"time":"438.63","velocity":0.28346456692913385,"duration":"0.08"},{"name":"B5","midi":83,"time":"438.63","velocity":0.5590551181102362,"duration":"0.16"},{"name":"E5","midi":76,"time":"438.65","velocity":0.30708661417322836,"duration":"0.02"},{"name":"A#5","midi":82,"time":"438.67","velocity":0.36220472440944884,"duration":"0.05"},{"name":"A6","midi":93,"time":"438.69","velocity":0.2283464566929134,"duration":"0.06"},{"name":"C7","midi":96,"time":"438.69","velocity":0.2125984251968504,"duration":"0.22"},{"name":"E5","midi":76,"time":"438.70","velocity":0.3543307086614173,"duration":"0.09"},{"name":"D6","midi":86,"time":"438.70","velocity":0.30708661417322836,"duration":"0.06"},{"name":"F7","midi":101,"time":"438.70","velocity":0.33070866141732286,"duration":"0.65"},{"name":"G7","midi":103,"time":"438.70","velocity":0.14173228346456693,"duration":"0.14"},{"name":"C#4","midi":61,"time":"438.71","velocity":0.3228346456692913,"duration":"0.02"},{"name":"F6","midi":89,"time":"438.71","velocity":0.2283464566929134,"duration":"0.05"},{"name":"E3","midi":52,"time":"438.72","velocity":0.5118110236220472,"duration":"0.01"},{"name":"G#5","midi":80,"time":"438.72","velocity":0.2755905511811024,"duration":"0.02"},{"name":"F2","midi":41,"time":"438.73","velocity":0.5826771653543307,"duration":"0.01"},{"name":"D3","midi":50,"time":"438.73","velocity":0.5984251968503937,"duration":"0.17"},{"name":"D5","midi":74,"time":"438.73","velocity":0.25984251968503935,"duration":"0.06"},{"name":"C#6","midi":85,"time":"438.73","velocity":0.5511811023622047,"duration":"2.12"},{"name":"G2","midi":43,"time":"438.74","velocity":0.5433070866141733,"duration":"0.02"},{"name":"G#3","midi":56,"time":"438.74","velocity":0.4330708661417323,"duration":"0.02"},{"name":"A5","midi":81,"time":"438.74","velocity":0.3228346456692913,"duration":"0.06"},{"name":"A4","midi":69,"time":"438.76","velocity":0.33070866141732286,"duration":"0.12"},{"name":"G#5","midi":80,"time":"438.76","velocity":0.2992125984251969,"duration":"0.12"},{"name":"G6","midi":91,"time":"438.76","velocity":0.30708661417322836,"duration":"0.02"},{"name":"C#5","midi":73,"time":"438.77","velocity":0.4015748031496063,"duration":"0.14"},{"name":"D6","midi":86,"time":"438.77","velocity":0.2992125984251969,"duration":"0.05"},{"name":"F6","midi":89,"time":"438.77","velocity":0.2204724409448819,"duration":"0.06"},{"name":"A3","midi":57,"time":"438.79","velocity":0.41732283464566927,"duration":"0.07"},{"name":"A#5","midi":82,"time":"438.79","velocity":0.4094488188976378,"duration":"0.09"},{"name":"C6","midi":84,"time":"438.79","velocity":0.23622047244094488,"duration":"0.02"},{"name":"B4","midi":71,"time":"438.81","velocity":0.28346456692913385,"duration":"0.03"},{"name":"E5","midi":76,"time":"438.81","velocity":0.29133858267716534,"duration":"0.08"},{"name":"G6","midi":91,"time":"438.81","velocity":0.1968503937007874,"duration":"0.07"},{"name":"B5","midi":83,"time":"438.83","velocity":0.5196850393700787,"duration":"1.44"},{"name":"C6","midi":84,"time":"438.85","velocity":0.2677165354330709,"duration":"0.03"},{"name":"B4","midi":71,"time":"438.86","velocity":0.2440944881889764,"duration":"0.02"},{"name":"A6","midi":93,"time":"438.86","velocity":0.13385826771653545,"duration":"0.03"},{"name":"A3","midi":57,"time":"438.88","velocity":0.29133858267716534,"duration":"0.02"},{"name":"A5","midi":81,"time":"438.88","velocity":0.41732283464566927,"duration":"0.07"},{"name":"D#6","midi":87,"time":"438.88","velocity":0.15748031496062992,"duration":"0.03"},{"name":"C#3","midi":49,"time":"438.91","velocity":0.5511811023622047,"duration":"0.01"},{"name":"E5","midi":76,"time":"438.91","velocity":0.2677165354330709,"duration":"0.06"},{"name":"F1","midi":29,"time":"438.92","velocity":0.4409448818897638,"duration":"0.02"},{"name":"D3","midi":50,"time":"438.92","velocity":0.5590551181102362,"duration":"0.05"},{"name":"A3","midi":57,"time":"438.92","velocity":0.4881889763779528,"duration":"0.19"},{"name":"C#4","midi":61,"time":"438.92","velocity":0.1968503937007874,"duration":"0.05"},{"name":"C#5","midi":73,"time":"438.92","velocity":0.5354330708661418,"duration":"0.44"},{"name":"G#5","midi":80,"time":"438.92","velocity":0.2204724409448819,"duration":"0.07"},{"name":"C7","midi":96,"time":"438.92","velocity":0.2992125984251969,"duration":"0.35"},{"name":"F4","midi":65,"time":"438.93","velocity":0.2677165354330709,"duration":"0.02"},{"name":"D#6","midi":87,"time":"438.93","velocity":0.1968503937007874,"duration":"0.03"},{"name":"C1","midi":24,"time":"438.95","velocity":0.2440944881889764,"duration":"0.02"},{"name":"F#4","midi":66,"time":"438.95","velocity":0.5275590551181102,"duration":"0.45"},{"name":"A#5","midi":82,"time":"438.95","velocity":0.4251968503937008,"duration":"0.22"},{"name":"G6","midi":91,"time":"438.95","velocity":0.15748031496062992,"duration":"0.03"},{"name":"D4","midi":62,"time":"438.97","velocity":0.30708661417322836,"duration":"0.10"},{"name":"D3","midi":50,"time":"438.98","velocity":0.4409448818897638,"duration":"0.02"},{"name":"E5","midi":76,"time":"438.99","velocity":0.3700787401574803,"duration":"0.14"},{"name":"G7","midi":103,"time":"438.99","velocity":0.18110236220472442,"duration":"0.05"},{"name":"B4","midi":71,"time":"439.00","velocity":0.2992125984251969,"duration":"0.02"},{"name":"G6","midi":91,"time":"439.00","velocity":0.2204724409448819,"duration":"0.07"},{"name":"G#5","midi":80,"time":"439.01","velocity":0.23622047244094488,"duration":"0.07"},{"name":"D1","midi":26,"time":"439.02","velocity":0.31496062992125984,"duration":"0.02"},{"name":"D3","midi":50,"time":"439.03","velocity":0.4330708661417323,"duration":"0.02"},{"name":"D1","midi":26,"time":"439.07","velocity":0.30708661417322836,"duration":"0.02"},{"name":"D3","midi":50,"time":"439.07","velocity":0.5433070866141733,"duration":"0.05"},{"name":"G5","midi":79,"time":"439.08","velocity":0.25984251968503935,"duration":"0.02"},{"name":"C#1","midi":25,"time":"439.09","velocity":0.31496062992125984,"duration":"0.02"},{"name":"A6","midi":93,"time":"439.09","velocity":0.2677165354330709,"duration":"0.08"},{"name":"G7","midi":103,"time":"439.09","velocity":0.1889763779527559,"duration":"0.05"},{"name":"A#3","midi":58,"time":"439.10","velocity":0.3779527559055118,"duration":"0.02"},{"name":"G#5","midi":80,"time":"439.10","velocity":0.3464566929133858,"duration":"0.36"},{"name":"D#6","midi":87,"time":"439.10","velocity":0.18110236220472442,"duration":"0.09"},{"name":"C#3","midi":49,"time":"439.12","velocity":0.5196850393700787,"duration":"0.01"},{"name":"G6","midi":91,"time":"439.12","velocity":0.2992125984251969,"duration":"0.05"},{"name":"C3","midi":48,"time":"439.13","velocity":0.47244094488188976,"duration":"0.02"},{"name":"A4","midi":69,"time":"439.14","velocity":0.28346456692913385,"duration":"0.05"},{"name":"D6","midi":86,"time":"439.14","velocity":0.2204724409448819,"duration":"0.05"},{"name":"F6","midi":89,"time":"439.14","velocity":0.13385826771653545,"duration":"0.10"},{"name":"D3","midi":50,"time":"439.15","velocity":0.5039370078740157,"duration":"0.03"},{"name":"A3","midi":57,"time":"439.15","velocity":0.44881889763779526,"duration":"0.10"},{"name":"B4","midi":71,"time":"439.15","velocity":0.4881889763779528,"duration":"0.12"},{"name":"E5","midi":76,"time":"439.15","velocity":0.2992125984251969,"duration":"0.03"},{"name":"D#7","midi":99,"time":"439.15","velocity":0.33070866141732286,"duration":"1.10"},{"name":"A5","midi":81,"time":"439.17","velocity":0.3543307086614173,"duration":"0.06"},{"name":"G6","midi":91,"time":"439.17","velocity":0.14173228346456693,"duration":"0.03"},{"name":"D4","midi":62,"time":"439.19","velocity":0.3779527559055118,"duration":"0.10"},{"name":"C#2","midi":37,"time":"439.20","velocity":0.33858267716535434,"duration":"0.02"},{"name":"D3","midi":50,"time":"439.20","velocity":0.4015748031496063,"duration":"0.05"},{"name":"E5","midi":76,"time":"439.20","velocity":0.25984251968503935,"duration":"0.05"},{"name":"D#6","midi":87,"time":"439.22","velocity":0.11811023622047244,"duration":"0.06"},{"name":"E7","midi":100,"time":"439.22","velocity":0.29133858267716534,"duration":"1.24"},{"name":"A#5","midi":82,"time":"439.23","velocity":0.3937007874015748,"duration":"0.10"},{"name":"D7","midi":98,"time":"439.24","velocity":0.33070866141732286,"duration":"0.35"},{"name":"C#2","midi":37,"time":"439.26","velocity":0.4094488188976378,"duration":"0.02"},{"name":"E5","midi":76,"time":"439.27","velocity":0.30708661417322836,"duration":"0.03"},{"name":"A3","midi":57,"time":"439.28","velocity":0.48031496062992124,"duration":"0.16"},{"name":"C7","midi":96,"time":"439.28","velocity":0.2992125984251969,"duration":"0.45"},{"name":"B4","midi":71,"time":"439.29","velocity":0.5118110236220472,"duration":"0.17"},{"name":"D6","midi":86,"time":"439.29","velocity":0.2047244094488189,"duration":"0.08"},{"name":"G7","midi":103,"time":"439.29","velocity":0.2125984251968504,"duration":"0.43"},{"name":"D4","midi":62,"time":"439.30","velocity":0.29133858267716534,"duration":"0.08"},{"name":"D3","midi":50,"time":"439.31","velocity":0.5275590551181102,"duration":"0.13"},{"name":"F6","midi":89,"time":"439.33","velocity":0.14960629921259844,"duration":"0.08"},{"name":"G#6","midi":92,"time":"439.34","velocity":0.41732283464566927,"duration":"1.66"},{"name":"D#2","midi":39,"time":"439.35","velocity":0.4015748031496063,"duration":"0.02"},{"name":"E5","midi":76,"time":"439.35","velocity":0.16535433070866143,"duration":"0.03"},{"name":"A#5","midi":82,"time":"439.37","velocity":0.3543307086614173,"duration":"0.23"},{"name":"D#6","midi":87,"time":"439.37","velocity":0.14173228346456693,"duration":"0.05"},{"name":"F7","midi":101,"time":"439.37","velocity":0.31496062992125984,"duration":"1.51"},{"name":"C#5","midi":73,"time":"439.38","velocity":0.33070866141732286,"duration":"0.03"},{"name":"E5","midi":76,"time":"439.40","velocity":0.4409448818897638,"duration":"0.10"},{"name":"G6","midi":91,"time":"439.40","velocity":0.1889763779527559,"duration":"0.05"},{"name":"F#4","midi":66,"time":"439.42","velocity":0.33070866141732286,"duration":"0.03"},{"name":"D5","midi":74,"time":"439.42","velocity":0.2992125984251969,"duration":"0.06"},{"name":"F#5","midi":78,"time":"439.42","velocity":0.5748031496062992,"duration":"0.31"},{"name":"F6","midi":89,"time":"439.42","velocity":0.11023622047244094,"duration":"0.03"},{"name":"C#3","midi":49,"time":"439.44","velocity":0.5039370078740157,"duration":"0.02"},{"name":"D4","midi":62,"time":"439.44","velocity":0.29133858267716534,"duration":"0.03"},{"name":"F4","midi":65,"time":"439.45","velocity":0.36220472440944884,"duration":"0.02"},{"name":"G#4","midi":68,"time":"439.45","velocity":0.5275590551181102,"duration":"0.03"},{"name":"A5","midi":81,"time":"439.45","velocity":0.2440944881889764,"duration":"0.03"},{"name":"D#6","midi":87,"time":"439.45","velocity":0.2204724409448819,"duration":"0.05"},{"name":"A3","midi":57,"time":"439.47","velocity":0.5196850393700787,"duration":"0.02"},{"name":"C5","midi":72,"time":"439.47","velocity":0.4409448818897638,"duration":"0.02"},{"name":"D6","midi":86,"time":"439.47","velocity":0.3228346456692913,"duration":"0.09"},{"name":"F6","midi":89,"time":"439.48","velocity":0.2283464566929134,"duration":"0.14"},{"name":"G#1","midi":32,"time":"439.49","velocity":0.2755905511811024,"duration":"0.02"},{"name":"G3","midi":55,"time":"439.49","velocity":0.5354330708661418,"duration":"0.03"},{"name":"G6","midi":91,"time":"439.49","velocity":0.15748031496062992,"duration":"0.08"},{"name":"C3","midi":48,"time":"439.50","velocity":0.5433070866141733,"duration":"0.02"},{"name":"F#4","midi":66,"time":"439.50","velocity":0.4330708661417323,"duration":"0.03"},{"name":"C5","midi":72,"time":"439.50","velocity":0.44881889763779526,"duration":"0.02"},{"name":"D#5","midi":75,"time":"439.50","velocity":0.3700787401574803,"duration":"0.02"},{"name":"A4","midi":69,"time":"439.51","velocity":0.4645669291338583,"duration":"0.14"},{"name":"C#3","midi":49,"time":"439.52","velocity":0.5196850393700787,"duration":"0.02"},{"name":"C#5","midi":73,"time":"439.52","velocity":0.4645669291338583,"duration":"0.06"},{"name":"E6","midi":88,"time":"439.52","velocity":0.1889763779527559,"duration":"0.08"},{"name":"D#5","midi":75,"time":"439.53","velocity":0.33858267716535434,"duration":"0.02"},{"name":"G#5","midi":80,"time":"439.53","velocity":0.2677165354330709,"duration":"0.02"},{"name":"C3","midi":48,"time":"439.55","velocity":0.5354330708661418,"duration":"0.01"},{"name":"C#3","midi":49,"time":"439.56","velocity":0.5354330708661418,"duration":"0.09"},{"name":"A3","midi":57,"time":"439.56","velocity":0.4015748031496063,"duration":"0.02"},{"name":"E5","midi":76,"time":"439.56","velocity":0.31496062992125984,"duration":"0.14"},{"name":"D2","midi":38,"time":"439.57","velocity":0.36220472440944884,"duration":"0.02"},{"name":"D4","midi":62,"time":"439.57","velocity":0.31496062992125984,"duration":"0.02"},{"name":"F#4","midi":66,"time":"439.57","velocity":0.41732283464566927,"duration":"0.02"},{"name":"G#5","midi":80,"time":"439.57","velocity":0.25196850393700787,"duration":"0.06"},{"name":"G3","midi":55,"time":"439.59","velocity":0.4251968503937008,"duration":"0.02"},{"name":"D4","midi":62,"time":"439.60","velocity":0.2992125984251969,"duration":"0.02"},{"name":"C#5","midi":73,"time":"439.60","velocity":0.3543307086614173,"duration":"0.03"},{"name":"D7","midi":98,"time":"439.60","velocity":0.2677165354330709,"duration":"0.72"},{"name":"E6","midi":88,"time":"439.62","velocity":0.31496062992125984,"duration":"0.59"},{"name":"D#4","midi":63,"time":"439.63","velocity":0.2992125984251969,"duration":"0.02"},{"name":"F#4","midi":66,"time":"439.63","velocity":0.5433070866141733,"duration":"0.16"},{"name":"G6","midi":91,"time":"439.63","velocity":0.2125984251968504,"duration":"0.03"},{"name":"D4","midi":62,"time":"439.65","velocity":0.28346456692913385,"duration":"0.03"},{"name":"C#5","midi":73,"time":"439.65","velocity":0.47244094488188976,"duration":"0.12"},{"name":"G#5","midi":80,"time":"439.65","velocity":0.25984251968503935,"duration":"0.03"},{"name":"G#3","midi":56,"time":"439.66","velocity":0.4251968503937008,"duration":"0.06"},{"name":"A#5","midi":82,"time":"439.66","velocity":0.3858267716535433,"duration":"0.07"},{"name":"B4","midi":71,"time":"439.67","velocity":0.28346456692913385,"duration":"0.02"},{"name":"A4","midi":69,"time":"439.69","velocity":0.33858267716535434,"duration":"0.16"},{"name":"D#5","midi":75,"time":"439.70","velocity":0.2440944881889764,"duration":"0.02"},{"name":"G6","midi":91,"time":"439.70","velocity":0.23622047244094488,"duration":"0.03"},{"name":"E4","midi":64,"time":"439.71","velocity":0.25984251968503935,"duration":"0.03"},{"name":"G#5","midi":80,"time":"439.71","velocity":0.33070866141732286,"duration":"0.08"},{"name":"C3","midi":48,"time":"439.72","velocity":0.5275590551181102,"duration":"0.01"},{"name":"G#3","midi":56,"time":"439.73","velocity":0.47244094488188976,"duration":"0.12"},{"name":"F5","midi":77,"time":"439.73","velocity":0.4330708661417323,"duration":"0.02"},{"name":"F#5","midi":78,"time":"439.74","velocity":0.5511811023622047,"duration":"0.43"},{"name":"D6","midi":86,"time":"439.74","velocity":0.2047244094488189,"duration":"0.10"},{"name":"C7","midi":96,"time":"439.74","velocity":0.2204724409448819,"duration":"0.23"},{"name":"A#5","midi":82,"time":"439.76","velocity":0.3464566929133858,"duration":"0.03"},{"name":"D#6","midi":87,"time":"439.76","velocity":0.2125984251968504,"duration":"0.08"},{"name":"D5","midi":74,"time":"439.77","velocity":0.28346456692913385,"duration":"0.03"},{"name":"E5","midi":76,"time":"439.78","velocity":0.3543307086614173,"duration":"0.07"},{"name":"G6","midi":91,"time":"439.78","velocity":0.25984251968503935,"duration":"0.19"},{"name":"C#5","midi":73,"time":"439.79","velocity":0.41732283464566927,"duration":"0.21"},{"name":"F#4","midi":66,"time":"439.80","velocity":0.4409448818897638,"duration":"0.06"},{"name":"B4","midi":71,"time":"439.80","velocity":0.2992125984251969,"duration":"0.05"},{"name":"A#5","midi":82,"time":"439.80","velocity":0.41732283464566927,"duration":"0.10"},{"name":"C#3","midi":49,"time":"439.81","velocity":0.5118110236220472,"duration":"0.01"},{"name":"G5","midi":79,"time":"439.81","velocity":0.2992125984251969,"duration":"0.02"},{"name":"G3","midi":55,"time":"439.85","velocity":0.4645669291338583,"duration":"0.03"},{"name":"A#4","midi":70,"time":"439.85","velocity":0.29133858267716534,"duration":"0.02"},{"name":"A5","midi":81,"time":"439.85","velocity":0.2992125984251969,"duration":"0.09"},{"name":"D#6","midi":87,"time":"439.85","velocity":0.1889763779527559,"duration":"0.05"},{"name":"F6","midi":89,"time":"439.85","velocity":0.1889763779527559,"duration":"0.03"},{"name":"E2","midi":40,"time":"439.86","velocity":0.6377952755905512,"duration":"0.01"},{"name":"B3","midi":59,"time":"439.86","velocity":0.33858267716535434,"duration":"0.02"},{"name":"E4","midi":64,"time":"439.86","velocity":0.3858267716535433,"duration":"0.06"},{"name":"G5","midi":79,"time":"439.86","velocity":0.2992125984251969,"duration":"0.02"},{"name":"F2","midi":41,"time":"439.87","velocity":0.6377952755905512,"duration":"0.01"},{"name":"D3","midi":50,"time":"439.87","velocity":0.5196850393700787,"duration":"0.01"},{"name":"A4","midi":69,"time":"439.87","velocity":0.2992125984251969,"duration":"0.02"},{"name":"A1","midi":33,"time":"439.88","velocity":0.5511811023622047,"duration":"0.02"},{"name":"F#2","midi":42,"time":"439.88","velocity":0.5511811023622047,"duration":"0.01"},{"name":"C3","midi":48,"time":"439.88","velocity":0.5905511811023622,"duration":"0.01"},{"name":"C#3","midi":49,"time":"439.90","velocity":0.5669291338582677,"duration":"0.02"},{"name":"G3","midi":55,"time":"439.90","velocity":0.4015748031496063,"duration":"0.02"},{"name":"G#1","midi":32,"time":"439.91","velocity":0.5354330708661418,"duration":"0.01"},{"name":"A#1","midi":34,"time":"439.92","velocity":0.5118110236220472,"duration":"0.01"},{"name":"F#4","midi":66,"time":"439.92","velocity":0.4881889763779528,"duration":"0.06"},{"name":"D#6","midi":87,"time":"439.92","velocity":0.1732283464566929,"duration":"0.09"},{"name":"D#5","midi":75,"time":"439.93","velocity":0.33858267716535434,"duration":"0.03"},{"name":"G#5","midi":80,"time":"439.93","velocity":0.25196850393700787,"duration":"0.06"},{"name":"G#4","midi":68,"time":"439.94","velocity":0.2755905511811024,"duration":"0.05"},{"name":"A#5","midi":82,"time":"439.94","velocity":0.30708661417322836,"duration":"0.03"},{"name":"F6","midi":89,"time":"439.94","velocity":0.1968503937007874,"duration":"0.13"},{"name":"A#6","midi":94,"time":"439.94","velocity":0.33858267716535434,"duration":"0.67"},{"name":"C#3","midi":49,"time":"439.95","velocity":0.5433070866141733,"duration":"0.02"},{"name":"G#3","midi":56,"time":"439.95","velocity":0.3937007874015748,"duration":"0.05"},{"name":"B4","midi":71,"time":"439.97","velocity":0.36220472440944884,"duration":"0.20"},{"name":"E5","midi":76,"time":"439.97","velocity":0.2992125984251969,"duration":"0.02"},{"name":"C3","midi":48,"time":"439.98","velocity":0.5590551181102362,"duration":"0.01"},{"name":"F4","midi":65,"time":"439.98","velocity":0.33858267716535434,"duration":"0.02"},{"name":"C#3","midi":49,"time":"439.99","velocity":0.5748031496062992,"duration":"0.03"},{"name":"A4","midi":69,"time":"439.99","velocity":0.30708661417322836,"duration":"0.02"},{"name":"C7","midi":96,"time":"439.99","velocity":0.2283464566929134,"duration":"0.29"},{"name":"D#5","midi":75,"time":"440.00","velocity":0.3464566929133858,"duration":"0.02"},{"name":"D6","midi":86,"time":"440.00","velocity":0.16535433070866143,"duration":"0.09"},{"name":"G6","midi":91,"time":"440.00","velocity":0.23622047244094488,"duration":"0.12"},{"name":"G#3","midi":56,"time":"440.01","velocity":0.4881889763779528,"duration":"0.15"},{"name":"C#5","midi":73,"time":"440.01","velocity":0.3543307086614173,"duration":"0.03"},{"name":"D3","midi":50,"time":"440.02","velocity":0.5511811023622047,"duration":"0.01"},{"name":"C#4","midi":61,"time":"440.02","velocity":0.3464566929133858,"duration":"0.06"},{"name":"G4","midi":67,"time":"440.02","velocity":0.33858267716535434,"duration":"0.02"},{"name":"E5","midi":76,"time":"440.02","velocity":0.3858267716535433,"duration":"0.02"},{"name":"C3","midi":48,"time":"440.03","velocity":0.5433070866141733,"duration":"0.01"},{"name":"A5","midi":81,"time":"440.03","velocity":0.33858267716535434,"duration":"0.07"},{"name":"C#3","midi":49,"time":"440.05","velocity":0.5118110236220472,"duration":"0.02"},{"name":"F#4","midi":66,"time":"440.05","velocity":0.5039370078740157,"duration":"0.20"},{"name":"D5","midi":74,"time":"440.05","velocity":0.3700787401574803,"duration":"0.02"},{"name":"G#5","midi":80,"time":"440.05","velocity":0.2283464566929134,"duration":"0.07"},{"name":"D#5","midi":75,"time":"440.07","velocity":0.36220472440944884,"duration":"0.03"},{"name":"A#5","midi":82,"time":"440.08","velocity":0.3937007874015748,"duration":"0.09"},{"name":"C#5","midi":73,"time":"440.09","velocity":0.3858267716535433,"duration":"0.14"},{"name":"A4","midi":69,"time":"440.10","velocity":0.3228346456692913,"duration":"0.05"},{"name":"D4","midi":62,"time":"440.12","velocity":0.29133858267716534,"duration":"0.05"},{"name":"D#5","midi":75,"time":"440.13","velocity":0.2992125984251969,"duration":"0.02"},{"name":"G6","midi":91,"time":"440.13","velocity":0.2204724409448819,"duration":"0.07"},{"name":"C#1","midi":25,"time":"440.14","velocity":0.29133858267716534,"duration":"0.02"},{"name":"G#2","midi":44,"time":"440.14","velocity":0.4094488188976378,"duration":"0.02"},{"name":"G#5","midi":80,"time":"440.14","velocity":0.33070866141732286,"duration":"0.08"},{"name":"C6","midi":84,"time":"440.14","velocity":0.25196850393700787,"duration":"0.02"},{"name":"D5","midi":74,"time":"440.15","velocity":0.2992125984251969,"duration":"0.02"},{"name":"G3","midi":55,"time":"440.16","velocity":0.3858267716535433,"duration":"0.03"},{"name":"A5","midi":81,"time":"440.16","velocity":0.30708661417322836,"duration":"0.03"},{"name":"C4","midi":60,"time":"440.17","velocity":0.2992125984251969,"duration":"0.02"},{"name":"D#5","midi":75,"time":"440.17","velocity":0.33070866141732286,"duration":"0.03"},{"name":"B3","midi":59,"time":"440.20","velocity":0.33070866141732286,"duration":"0.02"},{"name":"A4","midi":69,"time":"440.20","velocity":0.48031496062992124,"duration":"0.14"},{"name":"A#5","midi":82,"time":"440.20","velocity":0.29133858267716534,"duration":"0.06"},{"name":"E5","midi":76,"time":"440.21","velocity":0.31496062992125984,"duration":"0.03"},{"name":"A5","midi":81,"time":"440.21","velocity":0.6062992125984252,"duration":"0.14"},{"name":"F6","midi":89,"time":"440.21","velocity":0.18110236220472442,"duration":"0.09"},{"name":"G#2","midi":44,"time":"440.22","velocity":0.5354330708661418,"duration":"0.01"},{"name":"E6","midi":88,"time":"440.22","velocity":0.36220472440944884,"duration":"0.31"},{"name":"G7","midi":103,"time":"440.22","velocity":0.2204724409448819,"duration":"0.05"},{"name":"F2","midi":41,"time":"440.23","velocity":0.6456692913385826,"duration":"0.02"},{"name":"B4","midi":71,"time":"440.23","velocity":0.41732283464566927,"duration":"0.07"},{"name":"D5","midi":74,"time":"440.23","velocity":0.3464566929133858,"duration":"0.06"},{"name":"G6","midi":91,"time":"440.23","velocity":0.2440944881889764,"duration":"0.09"},{"name":"F5","midi":77,"time":"440.24","velocity":0.29133858267716534,"duration":"0.02"},{"name":"F#2","midi":42,"time":"440.26","velocity":0.5118110236220472,"duration":"0.01"},{"name":"D3","midi":50,"time":"440.26","velocity":0.4645669291338583,"duration":"0.02"},{"name":"B3","midi":59,"time":"440.26","velocity":0.2755905511811024,"duration":"0.03"},{"name":"F#4","midi":66,"time":"440.26","velocity":0.3464566929133858,"duration":"0.06"},{"name":"G5","midi":79,"time":"440.26","velocity":0.4881889763779528,"duration":"0.02"},{"name":"F#1","midi":30,"time":"440.27","velocity":0.5984251968503937,"duration":"0.01"},{"name":"F#3","midi":54,"time":"440.27","velocity":0.4566929133858268,"duration":"0.05"},{"name":"E5","midi":76,"time":"440.27","velocity":0.33858267716535434,"duration":"0.02"},{"name":"D#7","midi":99,"time":"440.27","velocity":0.4015748031496063,"duration":"1.84"},{"name":"F1","midi":29,"time":"440.28","velocity":0.6062992125984252,"duration":"0.01"},{"name":"G#5","midi":80,"time":"440.28","velocity":0.47244094488188976,"duration":"0.02"},{"name":"D6","midi":86,"time":"440.28","velocity":0.3464566929133858,"duration":"0.07"},{"name":"F#6","midi":90,"time":"440.28","velocity":0.33858267716535434,"duration":"0.29"},{"name":"D#4","midi":63,"time":"440.29","velocity":0.33070866141732286,"duration":"0.02"},{"name":"C#5","midi":73,"time":"440.29","velocity":0.5196850393700787,"duration":"0.31"},{"name":"F5","midi":77,"time":"440.29","velocity":0.29133858267716534,"duration":"0.03"},{"name":"C7","midi":96,"time":"440.29","velocity":0.2283464566929134,"duration":"0.14"},{"name":"G5","midi":79,"time":"440.30","velocity":0.2440944881889764,"duration":"0.02"},{"name":"E4","midi":64,"time":"440.31","velocity":0.2755905511811024,"duration":"0.02"},{"name":"E5","midi":76,"time":"440.31","velocity":0.31496062992125984,"duration":"0.02"},{"name":"F#5","midi":78,"time":"440.31","velocity":0.3228346456692913,"duration":"0.12"},{"name":"D#6","midi":87,"time":"440.31","velocity":0.2992125984251969,"duration":"0.06"},{"name":"B3","midi":59,"time":"440.33","velocity":0.23622047244094488,"duration":"0.07"},{"name":"F#4","midi":66,"time":"440.33","velocity":0.33070866141732286,"duration":"0.08"},{"name":"C6","midi":84,"time":"440.33","velocity":0.2755905511811024,"duration":"0.06"},{"name":"D#4","midi":63,"time":"440.34","velocity":0.28346456692913385,"duration":"0.03"},{"name":"B4","midi":71,"time":"440.34","velocity":0.3779527559055118,"duration":"0.03"},{"name":"A4","midi":69,"time":"440.35","velocity":0.3700787401574803,"duration":"0.02"},{"name":"G#5","midi":80,"time":"440.35","velocity":0.28346456692913385,"duration":"0.06"},{"name":"A#5","midi":82,"time":"440.35","velocity":0.6141732283464567,"duration":"0.07"},{"name":"C3","midi":48,"time":"440.36","velocity":0.5118110236220472,"duration":"0.01"},{"name":"E5","midi":76,"time":"440.36","velocity":0.18110236220472442,"duration":"0.03"},{"name":"D6","midi":86,"time":"440.36","velocity":0.31496062992125984,"duration":"0.06"},{"name":"A#4","midi":70,"time":"440.37","velocity":0.4251968503937008,"duration":"0.07"},{"name":"F#3","midi":54,"time":"440.38","velocity":0.30708661417322836,"duration":"0.03"},{"name":"A2","midi":45,"time":"440.40","velocity":0.47244094488188976,"duration":"0.02"},{"name":"F4","midi":65,"time":"440.41","velocity":0.3858267716535433,"duration":"0.02"},{"name":"G5","midi":79,"time":"440.41","velocity":0.1968503937007874,"duration":"0.05"},{"name":"A5","midi":81,"time":"440.41","velocity":0.36220472440944884,"duration":"0.03"},{"name":"C6","midi":84,"time":"440.41","velocity":0.2440944881889764,"duration":"0.02"},{"name":"E2","midi":40,"time":"440.42","velocity":0.5984251968503937,"duration":"0.02"},{"name":"B5","midi":83,"time":"440.42","velocity":0.6299212598425197,"duration":"0.05"},{"name":"C3","midi":48,"time":"440.43","velocity":0.5196850393700787,"duration":"0.02"},{"name":"G3","midi":55,"time":"440.43","velocity":0.47244094488188976,"duration":"0.03"},{"name":"F#4","midi":66,"time":"440.43","velocity":0.25196850393700787,"duration":"0.03"},{"name":"E5","midi":76,"time":"440.43","velocity":0.14960629921259844,"duration":"0.03"},{"name":"D6","midi":86,"time":"440.43","velocity":0.2755905511811024,"duration":"0.06"},{"name":"B4","midi":71,"time":"440.44","velocity":0.4566929133858268,"duration":"0.14"},{"name":"D#6","midi":87,"time":"440.44","velocity":0.14960629921259844,"duration":"0.07"},{"name":"A2","midi":45,"time":"440.45","velocity":0.5511811023622047,"duration":"0.01"},{"name":"A4","midi":69,"time":"440.45","velocity":0.3464566929133858,"duration":"0.08"},{"name":"F#5","midi":78,"time":"440.45","velocity":0.3779527559055118,"duration":"0.14"},{"name":"G#5","midi":80,"time":"440.45","velocity":0.33858267716535434,"duration":"0.10"},{"name":"A#5","midi":82,"time":"440.45","velocity":0.5196850393700787,"duration":"0.02"},{"name":"C7","midi":96,"time":"440.45","velocity":0.11811023622047244,"duration":"0.05"},{"name":"A#2","midi":46,"time":"440.47","velocity":0.5511811023622047,"duration":"0.01"},{"name":"F#3","midi":54,"time":"440.47","velocity":0.4566929133858268,"duration":"0.09"},{"name":"C4","midi":60,"time":"440.47","velocity":0.29133858267716534,"duration":"0.02"},{"name":"B2","midi":47,"time":"440.48","velocity":0.5511811023622047,"duration":"0.01"},{"name":"F4","midi":65,"time":"440.48","velocity":0.25196850393700787,"duration":"0.05"},{"name":"B5","midi":83,"time":"440.48","velocity":0.6614173228346457,"duration":"1.27"},{"name":"G6","midi":91,"time":"440.48","velocity":0.1732283464566929,"duration":"0.05"},{"name":"A#2","midi":46,"time":"440.49","velocity":0.5275590551181102,"duration":"0.01"},{"name":"B3","midi":59,"time":"440.49","velocity":0.28346456692913385,"duration":"0.02"},{"name":"A#5","midi":82,"time":"440.49","velocity":0.49606299212598426,"duration":"0.02"},{"name":"C1","midi":24,"time":"440.50","velocity":0.3858267716535433,"duration":"0.02"},{"name":"B2","midi":47,"time":"440.50","velocity":0.4251968503937008,"duration":"0.02"},{"name":"C7","midi":96,"time":"440.51","velocity":0.2204724409448819,"duration":"0.16"},{"name":"D4","midi":62,"time":"440.52","velocity":0.29133858267716534,"duration":"0.03"},{"name":"A5","midi":81,"time":"440.52","velocity":0.49606299212598426,"duration":"0.21"},{"name":"B2","midi":47,"time":"440.53","velocity":0.4015748031496063,"duration":"0.02"},{"name":"F4","midi":65,"time":"440.53","velocity":0.28346456692913385,"duration":"0.02"},{"name":"D#6","midi":87,"time":"440.53","velocity":0.2204724409448819,"duration":"0.09"},{"name":"A4","midi":69,"time":"440.55","velocity":0.3543307086614173,"duration":"0.10"},{"name":"E6","midi":88,"time":"440.55","velocity":0.36220472440944884,"duration":"0.43"},{"name":"F#4","midi":66,"time":"440.56","velocity":0.2992125984251969,"duration":"0.03"},{"name":"F6","midi":89,"time":"440.56","velocity":0.1889763779527559,"duration":"0.03"},{"name":"E7","midi":100,"time":"440.56","velocity":0.3700787401574803,"duration":"4.49"},{"name":"G5","midi":79,"time":"440.57","velocity":0.2125984251968504,"duration":"0.03"},{"name":"B3","midi":59,"time":"440.58","velocity":0.3228346456692913,"duration":"0.02"},{"name":"D4","midi":62,"time":"440.58","velocity":0.29133858267716534,"duration":"0.02"},{"name":"F#6","midi":90,"time":"440.58","velocity":0.48031496062992124,"duration":"1.41"},{"name":"A2","midi":45,"time":"440.59","velocity":0.6062992125984252,"duration":"0.02"},{"name":"B4","midi":71,"time":"440.59","velocity":0.4015748031496063,"duration":"0.03"},{"name":"G7","midi":103,"time":"440.59","velocity":0.2047244094488189,"duration":"0.09"},{"name":"F#5","midi":78,"time":"440.60","velocity":0.3464566929133858,"duration":"0.05"},{"name":"F#2","midi":42,"time":"440.62","velocity":0.6141732283464567,"duration":"0.01"},{"name":"D3","midi":50,"time":"440.62","velocity":0.5433070866141733,"duration":"0.02"},{"name":"A3","midi":57,"time":"440.62","velocity":0.4881889763779528,"duration":"0.02"},{"name":"E4","midi":64,"time":"440.62","velocity":0.28346456692913385,"duration":"0.02"},{"name":"C#5","midi":73,"time":"440.62","velocity":0.3779527559055118,"duration":"0.03"},{"name":"E5","midi":76,"time":"440.62","velocity":0.2992125984251969,"duration":"0.13"},{"name":"D#2","midi":39,"time":"440.63","velocity":0.5433070866141733,"duration":"0.02"},{"name":"F#4","midi":66,"time":"440.63","velocity":0.25984251968503935,"duration":"0.10"},{"name":"D6","midi":86,"time":"440.63","velocity":0.2204724409448819,"duration":"0.09"},{"name":"C3","midi":48,"time":"440.64","velocity":0.5748031496062992,"duration":"0.01"},{"name":"G3","midi":55,"time":"440.64","velocity":0.3464566929133858,"duration":"0.02"},{"name":"B3","midi":59,"time":"440.64","velocity":0.30708661417322836,"duration":"0.05"},{"name":"D4","midi":62,"time":"440.64","velocity":0.29133858267716534,"duration":"0.02"},{"name":"B4","midi":71,"time":"440.64","velocity":0.5354330708661418,"duration":"0.13"},{"name":"A#6","midi":94,"time":"440.64","velocity":0.1889763779527559,"duration":"0.14"},{"name":"A2","midi":45,"time":"440.65","velocity":0.5984251968503937,"duration":"0.01"},{"name":"G5","midi":79,"time":"440.65","velocity":0.31496062992125984,"duration":"0.02"},{"name":"E1","midi":28,"time":"440.66","velocity":0.48031496062992124,"duration":"0.02"},{"name":"A#2","midi":46,"time":"440.66","velocity":0.5511811023622047,"duration":"0.01"},{"name":"F#5","midi":78,"time":"440.66","velocity":0.3779527559055118,"duration":"0.23"},{"name":"B2","midi":47,"time":"440.67","velocity":0.5354330708661418,"duration":"0.01"},{"name":"D4","midi":62,"time":"440.67","velocity":0.2677165354330709,"duration":"0.02"},{"name":"A4","midi":69,"time":"440.67","velocity":0.4015748031496063,"duration":"0.07"},{"name":"G#5","midi":80,"time":"440.67","velocity":0.3228346456692913,"duration":"0.02"},{"name":"F6","midi":89,"time":"440.67","velocity":0.08661417322834646,"duration":"0.05"},{"name":"F#3","midi":54,"time":"440.69","velocity":0.3779527559055118,"duration":"0.02"},{"name":"C7","midi":96,"time":"440.69","velocity":0.2440944881889764,"duration":"0.21"},{"name":"B2","midi":47,"time":"440.70","velocity":0.5669291338582677,"duration":"0.23"},{"name":"D#6","midi":87,"time":"440.71","velocity":0.15748031496062992,"duration":"0.05"},{"name":"G#5","midi":80,"time":"440.72","velocity":0.30708661417322836,"duration":"0.03"},{"name":"E4","midi":64,"time":"440.74","velocity":0.36220472440944884,"duration":"0.08"},{"name":"C#5","midi":73,"time":"440.74","velocity":0.3228346456692913,"duration":"0.08"},{"name":"A5","midi":81,"time":"440.74","velocity":0.36220472440944884,"duration":"0.23"},{"name":"D7","midi":98,"time":"440.74","velocity":0.2283464566929134,"duration":"0.50"},{"name":"D#5","midi":75,"time":"440.76","velocity":0.2677165354330709,"duration":"0.02"},{"name":"G7","midi":103,"time":"440.76","velocity":0.13385826771653545,"duration":"0.03"},{"name":"B4","midi":71,"time":"440.78","velocity":0.5826771653543307,"duration":"0.27"},{"name":"G5","midi":79,"time":"440.78","velocity":0.29133858267716534,"duration":"0.08"},{"name":"D#6","midi":87,"time":"440.78","velocity":0.2440944881889764,"duration":"0.06"},{"name":"F6","midi":89,"time":"440.78","velocity":0.08661417322834646,"duration":"0.05"},{"name":"D#4","midi":63,"time":"440.83","velocity":0.28346456692913385,"duration":"0.03"},{"name":"F#4","midi":66,"time":"440.83","velocity":0.2755905511811024,"duration":"0.03"},{"name":"A4","midi":69,"time":"440.83","velocity":0.33858267716535434,"duration":"0.03"},{"name":"A#6","midi":94,"time":"440.83","velocity":0.11023622047244094,"duration":"0.07"},{"name":"F5","midi":77,"time":"440.84","velocity":0.2283464566929134,"duration":"0.08"},{"name":"D6","midi":86,"time":"440.84","velocity":0.2283464566929134,"duration":"0.03"},{"name":"C#5","midi":73,"time":"440.85","velocity":0.3858267716535433,"duration":"0.05"},{"name":"A#0","midi":22,"time":"440.86","velocity":0.30708661417322836,"duration":"0.02"},{"name":"E4","midi":64,"time":"440.86","velocity":0.2755905511811024,"duration":"0.05"},{"name":"A4","midi":69,"time":"440.87","velocity":0.30708661417322836,"duration":"0.02"},{"name":"G5","midi":79,"time":"440.87","velocity":0.28346456692913385,"duration":"0.06"},{"name":"C#6","midi":85,"time":"440.88","velocity":0.4881889763779528,"duration":"0.81"},{"name":"F#3","midi":54,"time":"440.90","velocity":0.3700787401574803,"duration":"0.03"},{"name":"C#5","midi":73,"time":"440.91","velocity":0.3464566929133858,"duration":"0.02"},{"name":"E5","midi":76,"time":"440.91","velocity":0.36220472440944884,"duration":"0.15"},{"name":"D#6","midi":87,"time":"440.91","velocity":0.3228346456692913,"duration":"0.09"},{"name":"D6","midi":86,"time":"440.92","velocity":0.10236220472440945,"duration":"0.05"},{"name":"A#2","midi":46,"time":"440.93","velocity":0.5354330708661418,"duration":"0.01"},{"name":"F3","midi":53,"time":"440.93","velocity":0.3464566929133858,"duration":"0.02"},{"name":"F#5","midi":78,"time":"440.93","velocity":0.31496062992125984,"duration":"0.02"},{"name":"C6","midi":84,"time":"440.93","velocity":0.2755905511811024,"duration":"0.02"},{"name":"B2","midi":47,"time":"440.94","velocity":0.5433070866141733,"duration":"0.02"},{"name":"C#5","midi":73,"time":"440.94","velocity":0.31496062992125984,"duration":"0.03"},{"name":"G#5","midi":80,"time":"440.94","velocity":0.3543307086614173,"duration":"0.14"},{"name":"F7","midi":101,"time":"440.94","velocity":0.31496062992125984,"duration":"0.72"},{"name":"F#3","midi":54,"time":"440.95","velocity":0.3700787401574803,"duration":"0.02"},{"name":"G5","midi":79,"time":"440.95","velocity":0.31496062992125984,"duration":"0.03"},{"name":"F6","midi":89,"time":"440.95","velocity":0.25196850393700787,"duration":"0.06"},{"name":"A2","midi":45,"time":"440.97","velocity":0.5590551181102362,"duration":"0.01"},{"name":"G#4","midi":68,"time":"440.97","velocity":0.44881889763779526,"duration":"0.03"},{"name":"A#6","midi":94,"time":"440.97","velocity":0.25984251968503935,"duration":"0.07"},{"name":"G#2","midi":44,"time":"440.98","velocity":0.5196850393700787,"duration":"0.01"},{"name":"G3","midi":55,"time":"440.98","velocity":0.49606299212598426,"duration":"0.02"},{"name":"D5","midi":74,"time":"440.98","velocity":0.2992125984251969,"duration":"0.03"},{"name":"F#5","midi":78,"time":"440.98","velocity":0.3779527559055118,"duration":"0.19"},{"name":"A#5","midi":82,"time":"440.98","velocity":0.33858267716535434,"duration":"0.06"},{"name":"G7","midi":103,"time":"440.98","velocity":0.2204724409448819,"duration":"0.12"},{"name":"C#4","midi":61,"time":"440.99","velocity":0.4566929133858268,"duration":"0.02"},{"name":"G6","midi":91,"time":"440.99","velocity":0.23622047244094488,"duration":"0.05"},{"name":"D#4","midi":63,"time":"441.00","velocity":0.3858267716535433,"duration":"0.05"},{"name":"G#1","midi":32,"time":"441.01","velocity":0.29133858267716534,"duration":"0.02"},{"name":"E3","midi":52,"time":"441.01","velocity":0.4566929133858268,"duration":"0.05"},{"name":"D#6","midi":87,"time":"441.01","velocity":0.36220472440944884,"duration":"0.27"},{"name":"G#6","midi":92,"time":"441.01","velocity":0.41732283464566927,"duration":"0.72"},{"name":"A3","midi":57,"time":"441.02","velocity":0.4330708661417323,"duration":"0.03"},{"name":"F#4","midi":66,"time":"441.02","velocity":0.3779527559055118,"duration":"0.16"},{"name":"A2","midi":45,"time":"441.03","velocity":0.4330708661417323,"duration":"0.02"},{"name":"C#5","midi":73,"time":"441.03","velocity":0.41732283464566927,"duration":"0.17"},{"name":"D6","midi":86,"time":"441.03","velocity":0.31496062992125984,"duration":"0.05"},{"name":"F#1","midi":30,"time":"441.05","velocity":0.3700787401574803,"duration":"0.02"},{"name":"F6","midi":89,"time":"441.05","velocity":0.14173228346456693,"duration":"0.06"},{"name":"A#6","midi":94,"time":"441.05","velocity":0.25984251968503935,"duration":"0.30"},{"name":"C7","midi":96,"time":"441.05","velocity":0.1889763779527559,"duration":"0.13"},{"name":"A#3","midi":58,"time":"441.06","velocity":0.3464566929133858,"duration":"0.02"},{"name":"A#5","midi":82,"time":"441.06","velocity":0.3228346456692913,"duration":"0.03"},{"name":"E3","midi":52,"time":"441.07","velocity":0.47244094488188976,"duration":"0.16"},{"name":"C#4","midi":61,"time":"441.07","velocity":0.36220472440944884,"duration":"0.02"},{"name":"G#2","midi":44,"time":"441.08","velocity":0.4566929133858268,"duration":"0.02"},{"name":"B4","midi":71,"time":"441.08","velocity":0.5354330708661418,"duration":"0.22"},{"name":"D#5","midi":75,"time":"441.08","velocity":0.31496062992125984,"duration":"0.05"},{"name":"E6","midi":88,"time":"441.09","velocity":0.2755905511811024,"duration":"0.33"},{"name":"A2","midi":45,"time":"441.10","velocity":0.4566929133858268,"duration":"0.02"},{"name":"G#5","midi":80,"time":"441.10","velocity":0.2440944881889764,"duration":"0.09"},{"name":"G7","midi":103,"time":"441.10","velocity":0.11811023622047244,"duration":"0.03"},{"name":"E5","midi":76,"time":"441.12","velocity":0.2992125984251969,"duration":"0.08"},{"name":"D6","midi":86,"time":"441.12","velocity":0.2440944881889764,"duration":"0.02"},{"name":"A#3","midi":58,"time":"441.13","velocity":0.4566929133858268,"duration":"0.03"},{"name":"C#4","midi":61,"time":"441.13","velocity":0.3779527559055118,"duration":"0.02"},{"name":"A#5","midi":82,"time":"441.13","velocity":0.36220472440944884,"duration":"0.07"},{"name":"F6","midi":89,"time":"441.14","velocity":0.14960629921259844,"duration":"0.03"},{"name":"D4","midi":62,"time":"441.15","velocity":0.31496062992125984,"duration":"0.02"},{"name":"G5","midi":79,"time":"441.15","velocity":0.31496062992125984,"duration":"0.02"},{"name":"A6","midi":93,"time":"441.15","velocity":0.2677165354330709,"duration":"0.40"},{"name":"G7","midi":103,"time":"441.15","velocity":0.2125984251968504,"duration":"0.37"},{"name":"G#2","midi":44,"time":"441.16","velocity":0.5275590551181102,"duration":"0.01"},{"name":"A2","midi":45,"time":"441.17","velocity":0.5669291338582677,"duration":"0.16"},{"name":"F#5","midi":78,"time":"441.17","velocity":0.3779527559055118,"duration":"0.08"},{"name":"A5","midi":81,"time":"441.17","velocity":0.33858267716535434,"duration":"0.17"},{"name":"G#4","midi":68,"time":"441.20","velocity":0.23622047244094488,"duration":"0.02"},{"name":"E5","midi":76,"time":"441.21","velocity":0.2125984251968504,"duration":"0.05"},{"name":"C#5","midi":73,"time":"441.22","velocity":0.4566929133858268,"duration":"0.13"},{"name":"C7","midi":96,"time":"441.22","velocity":0.16535433070866143,"duration":"0.12"},{"name":"E3","midi":52,"time":"441.24","velocity":0.41732283464566927,"duration":"0.02"},{"name":"D6","midi":86,"time":"441.24","velocity":0.30708661417322836,"duration":"0.05"},{"name":"G#5","midi":80,"time":"441.26","velocity":0.2283464566929134,"duration":"0.05"},{"name":"F#5","midi":78,"time":"441.27","velocity":0.3700787401574803,"duration":"0.08"},{"name":"F#4","midi":66,"time":"441.28","velocity":0.2440944881889764,"duration":"0.06"},{"name":"E5","midi":76,"time":"441.28","velocity":0.33858267716535434,"duration":"0.17"},{"name":"E3","midi":52,"time":"441.29","velocity":0.33070866141732286,"duration":"0.03"},{"name":"A#3","midi":58,"time":"441.29","velocity":0.4251968503937008,"duration":"0.02"},{"name":"A4","midi":69,"time":"441.29","velocity":0.25196850393700787,"duration":"0.03"},{"name":"D#6","midi":87,"time":"441.29","velocity":0.30708661417322836,"duration":"0.10"},{"name":"B4","midi":71,"time":"441.31","velocity":0.5275590551181102,"duration":"0.08"},{"name":"D6","midi":86,"time":"441.33","velocity":0.33858267716535434,"duration":"0.05"},{"name":"B2","midi":47,"time":"441.34","velocity":0.5275590551181102,"duration":"0.01"},{"name":"F4","midi":65,"time":"441.34","velocity":0.3700787401574803,"duration":"0.03"},{"name":"G#4","midi":68,"time":"441.34","velocity":0.2992125984251969,"duration":"0.02"},{"name":"E2","midi":40,"time":"441.35","velocity":0.5905511811023622,"duration":"0.01"},{"name":"C7","midi":96,"time":"441.35","velocity":0.13385826771653545,"duration":"0.03"},{"name":"F2","midi":41,"time":"441.36","velocity":0.5905511811023622,"duration":"0.01"},{"name":"C#4","midi":61,"time":"441.36","velocity":0.28346456692913385,"duration":"0.02"},{"name":"C#5","midi":73,"time":"441.36","velocity":0.4094488188976378,"duration":"0.08"},{"name":"F#5","midi":78,"time":"441.36","velocity":0.3464566929133858,"duration":"0.06"},{"name":"A5","midi":81,"time":"441.36","velocity":0.2283464566929134,"duration":"0.03"},{"name":"A#6","midi":94,"time":"441.36","velocity":0.1732283464566929,"duration":"0.05"},{"name":"A1","midi":33,"time":"441.37","velocity":0.5984251968503937,"duration":"0.02"},{"name":"G#2","midi":44,"time":"441.37","velocity":0.5433070866141733,"duration":"0.01"},{"name":"F#4","midi":66,"time":"441.37","velocity":0.2755905511811024,"duration":"0.02"},{"name":"D6","midi":86,"time":"441.38","velocity":0.3543307086614173,"duration":"0.08"},{"name":"G6","midi":91,"time":"441.38","velocity":0.1968503937007874,"duration":"0.08"},{"name":"G1","midi":31,"time":"441.40","velocity":0.5748031496062992,"duration":"0.02"},{"name":"G#5","midi":80,"time":"441.40","velocity":0.2992125984251969,"duration":"0.09"},{"name":"F4","midi":65,"time":"441.41","velocity":0.2677165354330709,"duration":"0.02"},{"name":"A4","midi":69,"time":"441.41","velocity":0.2755905511811024,"duration":"0.02"},{"name":"B4","midi":71,"time":"441.41","velocity":0.4566929133858268,"duration":"0.12"},{"name":"C7","midi":96,"time":"441.41","velocity":0.15748031496062992,"duration":"0.10"},{"name":"B3","midi":59,"time":"441.42","velocity":0.25984251968503935,"duration":"0.02"},{"name":"E4","midi":64,"time":"441.42","velocity":0.2992125984251969,"duration":"0.03"},{"name":"D5","midi":74,"time":"441.42","velocity":0.2125984251968504,"duration":"0.03"},{"name":"G5","midi":79,"time":"441.42","velocity":0.2677165354330709,"duration":"0.02"},{"name":"A#6","midi":94,"time":"441.42","velocity":0.2677165354330709,"duration":"0.29"},{"name":"F#4","midi":66,"time":"441.43","velocity":0.3228346456692913,"duration":"0.02"},{"name":"E3","midi":52,"time":"441.44","velocity":0.49606299212598426,"duration":"0.10"},{"name":"F5","midi":77,"time":"441.44","velocity":0.33858267716535434,"duration":"0.05"},{"name":"C#5","midi":73,"time":"441.45","velocity":0.29133858267716534,"duration":"0.10"},{"name":"D#5","midi":75,"time":"441.45","velocity":0.29133858267716534,"duration":"0.03"},{"name":"G5","midi":79,"time":"441.45","velocity":0.25984251968503935,"duration":"0.02"},{"name":"A#3","midi":58,"time":"441.47","velocity":0.33070866141732286,"duration":"0.02"},{"name":"D#6","midi":87,"time":"441.47","velocity":0.33858267716535434,"duration":"0.06"},{"name":"F#5","midi":78,"time":"441.48","velocity":0.3937007874015748,"duration":"0.13"},{"name":"F#4","midi":66,"time":"441.49","velocity":0.2992125984251969,"duration":"0.10"},{"name":"A4","midi":69,"time":"441.49","velocity":0.2677165354330709,"duration":"0.06"},{"name":"E5","midi":76,"time":"441.49","velocity":0.44881889763779526,"duration":"0.23"},{"name":"A5","midi":81,"time":"441.49","velocity":0.3228346456692913,"duration":"0.08"},{"name":"A#3","midi":58,"time":"441.50","velocity":0.36220472440944884,"duration":"0.02"},{"name":"G6","midi":91,"time":"441.50","velocity":0.13385826771653545,"duration":"0.03"},{"name":"G#2","midi":44,"time":"441.51","velocity":0.5118110236220472,"duration":"0.02"},{"name":"C#4","midi":61,"time":"441.51","velocity":0.33858267716535434,"duration":"0.05"},{"name":"D6","midi":86,"time":"441.52","velocity":0.3700787401574803,"duration":"0.20"},{"name":"B4","midi":71,"time":"441.55","velocity":0.6062992125984252,"duration":"0.21"},{"name":"G6","midi":91,"time":"441.55","velocity":0.25196850393700787,"duration":"0.09"},{"name":"C4","midi":60,"time":"441.56","velocity":0.31496062992125984,"duration":"0.02"},{"name":"G#5","midi":80,"time":"441.56","velocity":0.33070866141732286,"duration":"0.12"},{"name":"C7","midi":96,"time":"441.56","velocity":0.18110236220472442,"duration":"0.09"},{"name":"D#6","midi":87,"time":"441.57","velocity":0.23622047244094488,"duration":"0.08"},{"name":"A6","midi":93,"time":"441.57","velocity":0.2047244094488189,"duration":"0.07"},{"name":"A#3","midi":58,"time":"441.58","velocity":0.33858267716535434,"duration":"0.02"},{"name":"G4","midi":67,"time":"441.59","velocity":0.2283464566929134,"duration":"0.02"},{"name":"C#4","midi":61,"time":"441.60","velocity":0.28346456692913385,"duration":"0.02"},{"name":"E4","midi":64,"time":"441.60","velocity":0.3700787401574803,"duration":"0.12"},{"name":"A5","midi":81,"time":"441.60","velocity":0.5669291338582677,"duration":"0.34"},{"name":"A#3","midi":58,"time":"441.62","velocity":0.3779527559055118,"duration":"0.02"},{"name":"G4","midi":67,"time":"441.63","velocity":0.2283464566929134,"duration":"0.06"},{"name":"A3","midi":57,"time":"441.64","velocity":0.3779527559055118,"duration":"0.06"},{"name":"G6","midi":91,"time":"441.65","velocity":0.18110236220472442,"duration":"0.03"},{"name":"A2","midi":45,"time":"441.66","velocity":0.49606299212598426,"duration":"0.02"},{"name":"C#5","midi":73,"time":"441.66","velocity":0.2755905511811024,"duration":"0.05"},{"name":"F#5","midi":78,"time":"441.66","velocity":0.44881889763779526,"duration":"0.31"},{"name":"D#6","midi":87,"time":"441.66","velocity":0.2440944881889764,"duration":"0.08"},{"name":"C7","midi":96,"time":"441.66","velocity":0.2755905511811024,"duration":"0.30"},{"name":"F7","midi":101,"time":"441.70","velocity":0.2440944881889764,"duration":"0.28"},{"name":"F#4","midi":66,"time":"441.71","velocity":0.33070866141732286,"duration":"0.02"},{"name":"G#4","midi":68,"time":"441.71","velocity":0.36220472440944884,"duration":"0.02"},{"name":"G5","midi":79,"time":"441.71","velocity":0.29133858267716534,"duration":"0.02"},{"name":"F#2","midi":42,"time":"441.72","velocity":0.5984251968503937,"duration":"0.01"},{"name":"G3","midi":55,"time":"441.72","velocity":0.4330708661417323,"duration":"0.02"},{"name":"C#5","midi":73,"time":"441.72","velocity":0.28346456692913385,"duration":"0.06"},{"name":"C#6","midi":85,"time":"441.72","velocity":0.30708661417322836,"duration":"0.02"},{"name":"A#6","midi":94,"time":"441.72","velocity":0.2755905511811024,"duration":"0.36"},{"name":"F2","midi":41,"time":"441.73","velocity":0.6535433070866141,"duration":"0.01"},{"name":"A4","midi":69,"time":"441.73","velocity":0.3937007874015748,"duration":"0.02"},{"name":"E5","midi":76,"time":"441.73","velocity":0.30708661417322836,"duration":"0.06"},{"name":"G#5","midi":80,"time":"441.73","velocity":0.3700787401574803,"duration":"0.05"},{"name":"G2","midi":43,"time":"441.74","velocity":0.5905511811023622,"duration":"0.01"},{"name":"A#5","midi":82,"time":"441.74","velocity":0.5590551181102362,"duration":"0.02"},{"name":"D6","midi":86,"time":"441.74","velocity":0.30708661417322836,"duration":"0.06"},{"name":"C#4","midi":61,"time":"441.76","velocity":0.33858267716535434,"duration":"0.02"},{"name":"E4","midi":64,"time":"441.76","velocity":0.29133858267716534,"duration":"0.05"},{"name":"G#4","midi":68,"time":"441.76","velocity":0.33070866141732286,"duration":"0.02"},{"name":"A#4","midi":70,"time":"441.76","velocity":0.5354330708661418,"duration":"0.02"},{"name":"F6","midi":89,"time":"441.76","velocity":0.2755905511811024,"duration":"0.02"},{"name":"G7","midi":103,"time":"441.76","velocity":0.2440944881889764,"duration":"0.14"},{"name":"F1","midi":29,"time":"441.77","velocity":0.5196850393700787,"duration":"0.02"},{"name":"B5","midi":83,"time":"441.77","velocity":0.4881889763779528,"duration":"0.02"},{"name":"C#6","midi":85,"time":"441.77","velocity":0.2992125984251969,"duration":"0.08"},{"name":"C3","midi":48,"time":"441.78","velocity":0.5039370078740157,"duration":"0.02"},{"name":"B4","midi":71,"time":"441.78","velocity":0.4881889763779528,"duration":"0.02"},{"name":"A#5","midi":82,"time":"441.78","velocity":0.5039370078740157,"duration":"0.05"},{"name":"E6","midi":88,"time":"441.78","velocity":0.48031496062992124,"duration":"1.19"},{"name":"G4","midi":67,"time":"441.79","velocity":0.2677165354330709,"duration":"0.02"},{"name":"A4","midi":69,"time":"441.79","velocity":0.5984251968503937,"duration":"0.41"},{"name":"F5","midi":77,"time":"441.79","velocity":0.29133858267716534,"duration":"0.03"},{"name":"G6","midi":91,"time":"441.79","velocity":0.2204724409448819,"duration":"0.05"},{"name":"D#6","midi":87,"time":"441.80","velocity":0.14960629921259844,"duration":"0.05"},{"name":"F#3","midi":54,"time":"441.81","velocity":0.4015748031496063,"duration":"0.03"},{"name":"B4","midi":71,"time":"441.81","velocity":0.4330708661417323,"duration":"0.10"},{"name":"G#5","midi":80,"time":"441.83","velocity":0.3779527559055118,"duration":"0.07"},{"name":"B5","midi":83,"time":"441.83","velocity":0.4881889763779528,"duration":"0.58"},{"name":"D5","midi":74,"time":"441.84","velocity":0.3228346456692913,"duration":"0.03"},{"name":"C6","midi":84,"time":"441.84","velocity":0.3543307086614173,"duration":"0.05"},{"name":"G6","midi":91,"time":"441.85","velocity":0.2204724409448819,"duration":"0.26"},{"name":"B2","midi":47,"time":"441.86","velocity":0.5511811023622047,"duration":"0.15"},{"name":"E5","midi":76,"time":"441.86","velocity":0.2992125984251969,"duration":"0.02"},{"name":"C#6","midi":85,"time":"441.86","velocity":0.36220472440944884,"duration":"0.34"},{"name":"D#6","midi":87,"time":"441.86","velocity":0.1968503937007874,"duration":"0.10"},{"name":"F6","midi":89,"time":"441.87","velocity":0.11023622047244094,"duration":"0.03"},{"name":"D#5","midi":75,"time":"441.88","velocity":0.25984251968503935,"duration":"0.03"},{"name":"D6","midi":86,"time":"441.88","velocity":0.14960629921259844,"duration":"0.06"},{"name":"G#5","midi":80,"time":"441.91","velocity":0.36220472440944884,"duration":"0.09"},{"name":"F#3","midi":54,"time":"441.92","velocity":0.4645669291338583,"duration":"0.07"},{"name":"D5","midi":74,"time":"441.92","velocity":0.31496062992125984,"duration":"0.09"},{"name":"C6","midi":84,"time":"441.93","velocity":0.31496062992125984,"duration":"0.05"},{"name":"E5","midi":76,"time":"441.94","velocity":0.23622047244094488,"duration":"0.02"},{"name":"F5","midi":77,"time":"441.97","velocity":0.1968503937007874,"duration":"0.03"},{"name":"D4","midi":62,"time":"441.98","velocity":0.25984251968503935,"duration":"0.02"},{"name":"C7","midi":96,"time":"441.98","velocity":0.28346456692913385,"duration":"0.57"},{"name":"F7","midi":101,"time":"441.99","velocity":0.2755905511811024,"duration":"1.21"},{"name":"F1","midi":29,"time":"442.00","velocity":0.3543307086614173,"duration":"0.02"},{"name":"E5","midi":76,"time":"442.00","velocity":0.2677165354330709,"duration":"0.08"},{"name":"D#6","midi":87,"time":"442.00","velocity":0.2125984251968504,"duration":"0.13"},{"name":"F#6","midi":90,"time":"442.00","velocity":0.13385826771653545,"duration":"0.03"},{"name":"B2","midi":47,"time":"442.02","velocity":0.5118110236220472,"duration":"0.05"},{"name":"F#3","midi":54,"time":"442.02","velocity":0.4094488188976378,"duration":"0.02"},{"name":"E4","midi":64,"time":"442.02","velocity":0.25196850393700787,"duration":"0.05"},{"name":"B4","midi":71,"time":"442.02","velocity":0.4645669291338583,"duration":"0.10"},{"name":"F6","midi":89,"time":"442.02","velocity":0.28346456692913385,"duration":"0.12"},{"name":"C#5","midi":73,"time":"442.03","velocity":0.3464566929133858,"duration":"0.05"},{"name":"G#5","midi":80,"time":"442.03","velocity":0.3543307086614173,"duration":"0.07"},{"name":"F#6","midi":90,"time":"442.05","velocity":0.16535433070866143,"duration":"0.03"},{"name":"F#3","midi":54,"time":"442.06","velocity":0.4251968503937008,"duration":"0.05"},{"name":"F#5","midi":78,"time":"442.06","velocity":0.41732283464566927,"duration":"0.48"},{"name":"A5","midi":81,"time":"442.07","velocity":0.6456692913385826,"duration":"0.58"},{"name":"A#5","midi":82,"time":"442.07","velocity":0.4015748031496063,"duration":"0.02"},{"name":"A2","midi":45,"time":"442.08","velocity":0.4645669291338583,"duration":"0.02"},{"name":"D5","midi":74,"time":"442.08","velocity":0.3858267716535433,"duration":"0.05"},{"name":"E4","midi":64,"time":"442.09","velocity":0.23622047244094488,"duration":"0.03"},{"name":"G3","midi":55,"time":"442.10","velocity":0.4566929133858268,"duration":"0.05"},{"name":"C#4","midi":61,"time":"442.10","velocity":0.2755905511811024,"duration":"0.02"},{"name":"E5","midi":76,"time":"442.10","velocity":0.33070866141732286,"duration":"0.14"},{"name":"G5","midi":79,"time":"442.10","velocity":0.33070866141732286,"duration":"0.02"},{"name":"C6","midi":84,"time":"442.10","velocity":0.29133858267716534,"duration":"0.02"},{"name":"F#1","midi":30,"time":"442.12","velocity":0.3858267716535433,"duration":"0.02"},{"name":"A#6","midi":94,"time":"442.12","velocity":0.2992125984251969,"duration":"0.45"},{"name":"D#7","midi":99,"time":"442.12","velocity":0.2440944881889764,"duration":"0.67"},{"name":"D#4","midi":63,"time":"442.13","velocity":0.28346456692913385,"duration":"0.03"},{"name":"G7","midi":103,"time":"442.13","velocity":0.25196850393700787,"duration":"0.45"},{"name":"C#5","midi":73,"time":"442.14","velocity":0.3937007874015748,"duration":"0.10"},{"name":"G6","midi":91,"time":"442.14","velocity":0.2677165354330709,"duration":"0.28"},{"name":"F#3","midi":54,"time":"442.15","velocity":0.4566929133858268,"duration":"0.03"},{"name":"B2","midi":47,"time":"442.16","velocity":0.49606299212598426,"duration":"0.05"},{"name":"E4","midi":64,"time":"442.16","velocity":0.25984251968503935,"duration":"0.05"},{"name":"B4","midi":71,"time":"442.16","velocity":0.30708661417322836,"duration":"0.05"},{"name":"A#5","midi":82,"time":"442.16","velocity":0.3543307086614173,"duration":"0.02"},{"name":"D6","midi":86,"time":"442.17","velocity":0.28346456692913385,"duration":"0.08"},{"name":"F3","midi":53,"time":"442.19","velocity":0.44881889763779526,"duration":"0.03"},{"name":"D#6","midi":87,"time":"442.19","velocity":0.16535433070866143,"duration":"0.03"},{"name":"C6","midi":84,"time":"442.20","velocity":0.2125984251968504,"duration":"0.06"},{"name":"A4","midi":69,"time":"442.21","velocity":0.6535433070866141,"duration":"1.60"},{"name":"D4","midi":62,"time":"442.22","velocity":0.33858267716535434,"duration":"0.03"},{"name":"B4","midi":71,"time":"442.22","velocity":0.3464566929133858,"duration":"0.09"},{"name":"G#5","midi":80,"time":"442.22","velocity":0.25984251968503935,"duration":"0.02"},{"name":"F6","midi":89,"time":"442.22","velocity":0.11023622047244094,"duration":"0.06"},{"name":"F#3","midi":54,"time":"442.24","velocity":0.36220472440944884,"duration":"0.02"},{"name":"G#6","midi":92,"time":"442.24","velocity":0.12598425196850394,"duration":"0.07"},{"name":"E5","midi":76,"time":"442.26","velocity":0.2440944881889764,"duration":"0.03"},{"name":"G#5","midi":80,"time":"442.26","velocity":0.2755905511811024,"duration":"0.02"},{"name":"C#6","midi":85,"time":"442.26","velocity":0.3700787401574803,"duration":"0.42"},{"name":"F#3","midi":54,"time":"442.28","velocity":0.47244094488188976,"duration":"0.06"},{"name":"B3","midi":59,"time":"442.28","velocity":0.23622047244094488,"duration":"0.02"},{"name":"D4","midi":62,"time":"442.29","velocity":0.30708661417322836,"duration":"0.05"},{"name":"C#5","midi":73,"time":"442.30","velocity":0.33858267716535434,"duration":"0.12"},{"name":"E5","midi":76,"time":"442.30","velocity":0.47244094488188976,"duration":"0.22"},{"name":"B2","midi":47,"time":"442.31","velocity":0.48031496062992124,"duration":"0.09"},{"name":"D#6","midi":87,"time":"442.34","velocity":0.18110236220472442,"duration":"0.10"},{"name":"F#3","midi":54,"time":"442.35","velocity":0.47244094488188976,"duration":"0.09"},{"name":"G#6","midi":92,"time":"442.36","velocity":0.2440944881889764,"duration":"0.20"},{"name":"C6","midi":84,"time":"442.40","velocity":0.2755905511811024,"duration":"0.02"},{"name":"B4","midi":71,"time":"442.42","velocity":0.4094488188976378,"duration":"0.06"},{"name":"A#5","midi":82,"time":"442.42","velocity":0.3543307086614173,"duration":"0.02"},{"name":"B5","midi":83,"time":"442.42","velocity":0.4094488188976378,"duration":"0.16"},{"name":"C#5","midi":73,"time":"442.43","velocity":0.33070866141732286,"duration":"0.02"},{"name":"G6","midi":91,"time":"442.43","velocity":0.29133858267716534,"duration":"0.16"},{"name":"C4","midi":60,"time":"442.45","velocity":0.2992125984251969,"duration":"0.02"},{"name":"D5","midi":74,"time":"442.45","velocity":0.3543307086614173,"duration":"0.03"},{"name":"D#6","midi":87,"time":"442.45","velocity":0.16535433070866143,"duration":"0.03"},{"name":"F#1","midi":30,"time":"442.48","velocity":0.3858267716535433,"duration":"0.02"},{"name":"C#4","midi":61,"time":"442.48","velocity":0.5118110236220472,"duration":"0.03"},{"name":"G4","midi":67,"time":"442.48","velocity":0.5118110236220472,"duration":"0.02"},{"name":"D#3","midi":51,"time":"442.49","velocity":0.41732283464566927,"duration":"0.02"},{"name":"A3","midi":57,"time":"442.49","velocity":0.3937007874015748,"duration":"0.02"},{"name":"F#4","midi":66,"time":"442.50","velocity":0.4409448818897638,"duration":"0.15"},{"name":"D#6","midi":87,"time":"442.50","velocity":0.25196850393700787,"duration":"0.13"},{"name":"B2","midi":47,"time":"442.51","velocity":0.4409448818897638,"duration":"0.02"},{"name":"D#5","midi":75,"time":"442.51","velocity":0.3779527559055118,"duration":"0.02"},{"name":"C6","midi":84,"time":"442.51","velocity":0.30708661417322836,"duration":"0.06"},{"name":"B4","midi":71,"time":"442.52","velocity":0.31496062992125984,"duration":"0.02"},{"name":"F6","midi":89,"time":"442.52","velocity":0.2125984251968504,"duration":"0.10"},{"name":"E5","midi":76,"time":"442.53","velocity":0.3464566929133858,"duration":"0.15"},{"name":"F5","midi":77,"time":"442.53","velocity":0.23622047244094488,"duration":"0.02"},{"name":"G#5","midi":80,"time":"442.53","velocity":0.29133858267716534,"duration":"0.02"},{"name":"F#6","midi":90,"time":"442.53","velocity":0.25196850393700787,"duration":"0.03"},{"name":"A2","midi":45,"time":"442.55","velocity":0.4409448818897638,"duration":"0.02"},{"name":"A#3","midi":58,"time":"442.55","velocity":0.4409448818897638,"duration":"0.03"},{"name":"C5","midi":72,"time":"442.55","velocity":0.33858267716535434,"duration":"0.05"},{"name":"D5","midi":74,"time":"442.55","velocity":0.29133858267716534,"duration":"0.02"},{"name":"G3","midi":55,"time":"442.56","velocity":0.4094488188976378,"duration":"0.02"},{"name":"D7","midi":98,"time":"442.56","velocity":0.2440944881889764,"duration":"0.38"},{"name":"B2","midi":47,"time":"442.57","velocity":0.4645669291338583,"duration":"0.03"},{"name":"D#5","midi":75,"time":"442.57","velocity":0.29133858267716534,"duration":"0.02"},{"name":"G5","midi":79,"time":"442.57","velocity":0.29133858267716534,"duration":"0.05"},{"name":"F3","midi":53,"time":"442.58","velocity":0.4094488188976378,"duration":"0.02"},{"name":"C#5","midi":73,"time":"442.58","velocity":0.2677165354330709,"duration":"0.06"},{"name":"F#6","midi":90,"time":"442.58","velocity":0.2440944881889764,"duration":"0.02"},{"name":"B5","midi":83,"time":"442.59","velocity":0.4015748031496063,"duration":"0.10"},{"name":"G#6","midi":92,"time":"442.59","velocity":0.2677165354330709,"duration":"0.19"},{"name":"F#3","midi":54,"time":"442.60","velocity":0.48031496062992124,"duration":"0.13"},{"name":"C7","midi":96,"time":"442.60","velocity":0.1889763779527559,"duration":"0.12"},{"name":"D4","midi":62,"time":"442.62","velocity":0.31496062992125984,"duration":"0.06"},{"name":"F#6","midi":90,"time":"442.62","velocity":0.2755905511811024,"duration":"0.06"},{"name":"B2","midi":47,"time":"442.63","velocity":0.4251968503937008,"duration":"0.02"},{"name":"C6","midi":84,"time":"442.63","velocity":0.16535433070866143,"duration":"0.05"},{"name":"A#6","midi":94,"time":"442.63","velocity":0.2440944881889764,"duration":"0.52"},{"name":"B4","midi":71,"time":"442.64","velocity":0.33070866141732286,"duration":"0.03"},{"name":"G7","midi":103,"time":"442.64","velocity":0.10236220472440945,"duration":"0.07"},{"name":"G#5","midi":80,"time":"442.65","velocity":0.5354330708661418,"duration":"0.01"},{"name":"D6","midi":86,"time":"442.65","velocity":0.28346456692913385,"duration":"0.20"},{"name":"B2","midi":47,"time":"442.66","velocity":0.49606299212598426,"duration":"0.09"},{"name":"F#5","midi":78,"time":"442.66","velocity":0.3700787401574803,"duration":"0.15"},{"name":"G6","midi":91,"time":"442.66","velocity":0.25984251968503935,"duration":"0.03"},{"name":"C#5","midi":73,"time":"442.67","velocity":0.2677165354330709,"duration":"0.14"},{"name":"F5","midi":77,"time":"442.69","velocity":0.2755905511811024,"duration":"0.02"},{"name":"E5","midi":76,"time":"442.71","velocity":0.30708661417322836,"duration":"0.05"},{"name":"B5","midi":83,"time":"442.71","velocity":0.47244094488188976,"duration":"0.73"},{"name":"G6","midi":91,"time":"442.71","velocity":0.2204724409448819,"duration":"0.06"},{"name":"F1","midi":29,"time":"442.72","velocity":0.28346456692913385,"duration":"0.02"},{"name":"E4","midi":64,"time":"442.73","velocity":0.3464566929133858,"duration":"0.05"},{"name":"C7","midi":96,"time":"442.74","velocity":0.15748031496062992,"duration":"0.07"},{"name":"D#5","midi":75,"time":"442.76","velocity":0.2047244094488189,"duration":"0.03"},{"name":"B2","midi":47,"time":"442.77","velocity":0.4251968503937008,"duration":"0.02"},{"name":"F#3","midi":54,"time":"442.78","velocity":0.4015748031496063,"duration":"0.08"},{"name":"E5","midi":76,"time":"442.79","velocity":0.2677165354330709,"duration":"0.07"},{"name":"F6","midi":89,"time":"442.79","velocity":0.12598425196850394,"duration":"0.05"},{"name":"G#6","midi":92,"time":"442.79","velocity":0.1968503937007874,"duration":"0.05"},{"name":"E4","midi":64,"time":"442.80","velocity":0.3858267716535433,"duration":"0.09"},{"name":"D#7","midi":99,"time":"442.80","velocity":0.33858267716535434,"duration":"0.55"},{"name":"C5","midi":72,"time":"442.81","velocity":0.2677165354330709,"duration":"0.02"},{"name":"D#6","midi":87,"time":"442.83","velocity":0.15748031496062992,"duration":"0.03"},{"name":"C#5","midi":73,"time":"442.84","velocity":0.31496062992125984,"duration":"0.02"},{"name":"D#5","midi":75,"time":"442.84","velocity":0.2204724409448819,"duration":"0.06"},{"name":"F#5","midi":78,"time":"442.84","velocity":0.29133858267716534,"duration":"0.06"},{"name":"C7","midi":96,"time":"442.84","velocity":0.11811023622047244,"duration":"0.07"},{"name":"G7","midi":103,"time":"442.84","velocity":0.2204724409448819,"duration":"0.15"},{"name":"C#4","midi":61,"time":"442.85","velocity":0.33858267716535434,"duration":"0.02"},{"name":"G6","midi":91,"time":"442.85","velocity":0.18110236220472442,"duration":"0.06"},{"name":"F6","midi":89,"time":"442.86","velocity":0.2440944881889764,"duration":"0.08"},{"name":"F#6","midi":90,"time":"442.86","velocity":0.4094488188976378,"duration":"0.87"},{"name":"G#6","midi":92,"time":"442.86","velocity":0.28346456692913385,"duration":"0.29"},{"name":"C#5","midi":73,"time":"442.87","velocity":0.28346456692913385,"duration":"0.08"},{"name":"F3","midi":53,"time":"442.88","velocity":0.4330708661417323,"duration":"0.02"},{"name":"G5","midi":79,"time":"442.88","velocity":0.1968503937007874,"duration":"0.03"},{"name":"D6","midi":86,"time":"442.90","velocity":0.2047244094488189,"duration":"0.05"},{"name":"F#3","midi":54,"time":"442.91","velocity":0.41732283464566927,"duration":"0.06"},{"name":"B3","midi":59,"time":"442.91","velocity":0.33858267716535434,"duration":"0.10"},{"name":"F4","midi":65,"time":"442.91","velocity":0.29133858267716534,"duration":"0.02"},{"name":"F5","midi":77,"time":"442.91","velocity":0.30708661417322836,"duration":"0.05"},{"name":"B2","midi":47,"time":"442.92","velocity":0.4015748031496063,"duration":"0.02"},{"name":"F#5","midi":78,"time":"442.92","velocity":0.2677165354330709,"duration":"0.07"},{"name":"C6","midi":84,"time":"442.92","velocity":0.1968503937007874,"duration":"0.03"},{"name":"C7","midi":96,"time":"442.92","velocity":0.1968503937007874,"duration":"0.28"},{"name":"E4","midi":64,"time":"442.93","velocity":0.33858267716535434,"duration":"0.03"},{"name":"D#5","midi":75,"time":"442.93","velocity":0.28346456692913385,"duration":"0.02"},{"name":"A#2","midi":46,"time":"442.95","velocity":0.4015748031496063,"duration":"0.03"},{"name":"C5","midi":72,"time":"442.95","velocity":0.29133858267716534,"duration":"0.05"},{"name":"E5","midi":76,"time":"442.95","velocity":0.36220472440944884,"duration":"0.08"},{"name":"D#4","midi":63,"time":"442.97","velocity":0.2992125984251969,"duration":"0.03"},{"name":"D5","midi":74,"time":"442.97","velocity":0.18110236220472442,"duration":"0.03"},{"name":"A5","midi":81,"time":"442.97","velocity":0.6692913385826772,"duration":"0.24"},{"name":"D6","midi":86,"time":"442.97","velocity":0.1889763779527559,"duration":"0.05"},{"name":"G6","midi":91,"time":"442.97","velocity":0.2440944881889764,"duration":"0.12"},{"name":"F#3","midi":54,"time":"442.98","velocity":0.3858267716535433,"duration":"0.02"},{"name":"E6","midi":88,"time":"442.99","velocity":0.4330708661417323,"duration":"0.63"},{"name":"D7","midi":98,"time":"442.99","velocity":0.2677165354330709,"duration":"0.31"},{"name":"C#5","midi":73,"time":"443.00","velocity":0.31496062992125984,"duration":"0.03"},{"name":"F#5","midi":78,"time":"443.00","velocity":0.29133858267716534,"duration":"0.08"},{"name":"F#3","midi":54,"time":"443.01","velocity":0.4015748031496063,"duration":"0.02"},{"name":"B3","midi":59,"time":"443.02","velocity":0.29133858267716534,"duration":"0.02"},{"name":"B4","midi":71,"time":"443.02","velocity":0.29133858267716534,"duration":"0.02"},{"name":"D6","midi":86,"time":"443.02","velocity":0.31496062992125984,"duration":"0.31"},{"name":"B2","midi":47,"time":"443.03","velocity":0.5433070866141733,"duration":"0.20"},{"name":"D#4","midi":63,"time":"443.03","velocity":0.3464566929133858,"duration":"0.05"},{"name":"F#4","midi":66,"time":"443.03","velocity":0.31496062992125984,"duration":"0.02"},{"name":"C#5","midi":73,"time":"443.05","velocity":0.2992125984251969,"duration":"0.03"},{"name":"E5","midi":76,"time":"443.06","velocity":0.2440944881889764,"duration":"0.05"},{"name":"F#1","midi":30,"time":"443.07","velocity":0.3543307086614173,"duration":"0.02"},{"name":"G5","midi":79,"time":"443.07","velocity":0.25196850393700787,"duration":"0.03"},{"name":"F#3","midi":54,"time":"443.08","velocity":0.3937007874015748,"duration":"0.06"},{"name":"E4","midi":64,"time":"443.08","velocity":0.2440944881889764,"duration":"0.03"},{"name":"B4","midi":71,"time":"443.08","velocity":0.33858267716535434,"duration":"0.02"},{"name":"D#5","midi":75,"time":"443.10","velocity":0.28346456692913385,"duration":"0.06"},{"name":"F#5","midi":78,"time":"443.10","velocity":0.3228346456692913,"duration":"0.22"},{"name":"C6","midi":84,"time":"443.10","velocity":0.2047244094488189,"duration":"0.03"},{"name":"C5","midi":72,"time":"443.12","velocity":0.25984251968503935,"duration":"0.02"},{"name":"D4","midi":62,"time":"443.13","velocity":0.2047244094488189,"duration":"0.03"},{"name":"G6","midi":91,"time":"443.13","velocity":0.18110236220472442,"duration":"0.09"},{"name":"E5","midi":76,"time":"443.14","velocity":0.36220472440944884,"duration":"0.12"},{"name":"C#6","midi":85,"time":"443.14","velocity":0.23622047244094488,"duration":"0.06"},{"name":"F#3","midi":54,"time":"443.15","velocity":0.41732283464566927,"duration":"0.02"},{"name":"G#6","midi":92,"time":"443.16","velocity":0.3228346456692913,"duration":"0.28"},{"name":"B4","midi":71,"time":"443.17","velocity":0.36220472440944884,"duration":"0.02"},{"name":"F#3","midi":54,"time":"443.19","velocity":0.4409448818897638,"duration":"0.05"},{"name":"F4","midi":65,"time":"443.19","velocity":0.25984251968503935,"duration":"0.03"},{"name":"G5","midi":79,"time":"443.20","velocity":0.1968503937007874,"duration":"0.03"},{"name":"A#6","midi":94,"time":"443.20","velocity":0.15748031496062992,"duration":"0.07"},{"name":"B4","midi":71,"time":"443.21","velocity":0.41732283464566927,"duration":"0.02"},{"name":"C#6","midi":85,"time":"443.21","velocity":0.2440944881889764,"duration":"0.07"},{"name":"F7","midi":101,"time":"443.21","velocity":0.2755905511811024,"duration":"0.72"},{"name":"C7","midi":96,"time":"443.22","velocity":0.25196850393700787,"duration":"0.20"},{"name":"C3","midi":48,"time":"443.23","velocity":0.5433070866141733,"duration":"0.01"},{"name":"G3","midi":55,"time":"443.23","velocity":0.4881889763779528,"duration":"0.02"},{"name":"D#4","midi":63,"time":"443.23","velocity":0.2992125984251969,"duration":"0.02"},{"name":"C5","midi":72,"time":"443.23","velocity":0.29133858267716534,"duration":"0.02"},{"name":"A2","midi":45,"time":"443.24","velocity":0.6377952755905512,"duration":"0.01"},{"name":"C4","midi":60,"time":"443.24","velocity":0.4251968503937008,"duration":"0.03"},{"name":"G#2","midi":44,"time":"443.26","velocity":0.6062992125984252,"duration":"0.01"},{"name":"F#3","midi":54,"time":"443.26","velocity":0.47244094488188976,"duration":"0.02"},{"name":"C#5","midi":73,"time":"443.26","velocity":0.2677165354330709,"duration":"0.02"},{"name":"G1","midi":31,"time":"443.27","velocity":0.5826771653543307,"duration":"0.03"},{"name":"A#2","midi":46,"time":"443.27","velocity":0.5196850393700787,"duration":"0.01"},{"name":"B4","midi":71,"time":"443.27","velocity":0.2992125984251969,"duration":"0.02"},{"name":"E5","midi":76,"time":"443.27","velocity":0.33858267716535434,"duration":"0.09"},{"name":"F6","midi":89,"time":"443.28","velocity":0.15748031496062992,"duration":"0.05"},{"name":"C5","midi":72,"time":"443.29","velocity":0.25196850393700787,"duration":"0.02"},{"name":"C#6","midi":85,"time":"443.29","velocity":0.25984251968503935,"duration":"0.12"},{"name":"B2","midi":47,"time":"443.30","velocity":0.5275590551181102,"duration":"0.05"},{"name":"D4","midi":62,"time":"443.30","velocity":0.4094488188976378,"duration":"0.29"},{"name":"G6","midi":91,"time":"443.30","velocity":0.12598425196850394,"duration":"0.05"},{"name":"A#6","midi":94,"time":"443.30","velocity":0.2755905511811024,"duration":"0.42"},{"name":"C#5","midi":73,"time":"443.31","velocity":0.2755905511811024,"duration":"0.03"},{"name":"G7","midi":103,"time":"443.33","velocity":0.2125984251968504,"duration":"0.10"},{"name":"F#5","midi":78,"time":"443.34","velocity":0.4251968503937008,"duration":"0.56"},{"name":"G#5","midi":80,"time":"443.34","velocity":0.2283464566929134,"duration":"0.05"},{"name":"A#5","midi":82,"time":"443.34","velocity":0.25984251968503935,"duration":"0.02"},{"name":"D#6","midi":87,"time":"443.34","velocity":0.11811023622047244,"duration":"0.05"},{"name":"C3","midi":48,"time":"443.35","velocity":0.4881889763779528,"duration":"0.02"},{"name":"C6","midi":84,"time":"443.35","velocity":0.1889763779527559,"duration":"0.03"},{"name":"E4","midi":64,"time":"443.36","velocity":0.2755905511811024,"duration":"0.02"},{"name":"G6","midi":91,"time":"443.36","velocity":0.2283464566929134,"duration":"0.12"},{"name":"D#7","midi":99,"time":"443.36","velocity":0.25984251968503935,"duration":"0.44"},{"name":"B2","midi":47,"time":"443.37","velocity":0.5275590551181102,"duration":"0.13"},{"name":"C#5","midi":73,"time":"443.38","velocity":0.3464566929133858,"duration":"0.06"},{"name":"E5","midi":76,"time":"443.40","velocity":0.3228346456692913,"duration":"0.13"},{"name":"F#4","midi":66,"time":"443.41","velocity":0.25196850393700787,"duration":"0.02"},{"name":"D#6","midi":87,"time":"443.41","velocity":0.2047244094488189,"duration":"0.19"},{"name":"F6","midi":89,"time":"443.42","velocity":0.11811023622047244,"duration":"0.05"},{"name":"F#4","midi":66,"time":"443.44","velocity":0.31496062992125984,"duration":"0.08"},{"name":"C#6","midi":85,"time":"443.44","velocity":0.23622047244094488,"duration":"0.16"},{"name":"B4","midi":71,"time":"443.45","velocity":0.3228346456692913,"duration":"0.06"},{"name":"B5","midi":83,"time":"443.45","velocity":0.3543307086614173,"duration":"0.22"},{"name":"C6","midi":84,"time":"443.45","velocity":0.2440944881889764,"duration":"0.03"},{"name":"G#6","midi":92,"time":"443.45","velocity":0.2047244094488189,"duration":"0.08"},{"name":"C#5","midi":73,"time":"443.47","velocity":0.28346456692913385,"duration":"0.07"},{"name":"D7","midi":98,"time":"443.47","velocity":0.18110236220472442,"duration":"0.15"},{"name":"A#2","midi":46,"time":"443.50","velocity":0.5118110236220472,"duration":"0.01"},{"name":"G6","midi":91,"time":"443.50","velocity":0.30708661417322836,"duration":"0.31"},{"name":"B2","midi":47,"time":"443.51","velocity":0.49606299212598426,"duration":"0.02"},{"name":"F#4","midi":66,"time":"443.53","velocity":0.2755905511811024,"duration":"0.02"},{"name":"E5","midi":76,"time":"443.53","velocity":0.3464566929133858,"duration":"0.07"},{"name":"B2","midi":47,"time":"443.55","velocity":0.4645669291338583,"duration":"0.02"},{"name":"G#5","midi":80,"time":"443.56","velocity":0.41732283464566927,"duration":"0.02"},{"name":"F#4","midi":66,"time":"443.57","velocity":0.23622047244094488,"duration":"0.02"},{"name":"C#5","midi":73,"time":"443.57","velocity":0.33858267716535434,"duration":"0.05"},{"name":"B2","midi":47,"time":"443.58","velocity":0.3937007874015748,"duration":"0.02"},{"name":"F#3","midi":54,"time":"443.58","velocity":0.3543307086614173,"duration":"0.02"},{"name":"D6","midi":86,"time":"443.58","velocity":0.2440944881889764,"duration":"0.08"},{"name":"C7","midi":96,"time":"443.58","velocity":0.2125984251968504,"duration":"0.06"},{"name":"F4","midi":65,"time":"443.59","velocity":0.3464566929133858,"duration":"0.05"},{"name":"G5","midi":79,"time":"443.59","velocity":0.31496062992125984,"duration":"0.02"},{"name":"C6","midi":84,"time":"443.59","velocity":0.2440944881889764,"duration":"0.06"},{"name":"F6","midi":89,"time":"443.59","velocity":0.1968503937007874,"duration":"0.06"},{"name":"A2","midi":45,"time":"443.60","velocity":0.5905511811023622,"duration":"0.02"},{"name":"B3","midi":59,"time":"443.60","velocity":0.3543307086614173,"duration":"0.03"},{"name":"C5","midi":72,"time":"443.62","velocity":0.2440944881889764,"duration":"0.02"},{"name":"F#2","midi":42,"time":"443.63","velocity":0.5905511811023622,"duration":"0.02"},{"name":"D3","midi":50,"time":"443.63","velocity":0.5275590551181102,"duration":"0.01"},{"name":"G5","midi":79,"time":"443.63","velocity":0.30708661417322836,"duration":"0.02"},{"name":"E6","midi":88,"time":"443.63","velocity":0.44881889763779526,"duration":"0.40"},{"name":"D7","midi":98,"time":"443.63","velocity":0.2677165354330709,"duration":"0.36"},{"name":"C#5","midi":73,"time":"443.64","velocity":0.2440944881889764,"duration":"0.03"},{"name":"E5","midi":76,"time":"443.64","velocity":0.3700787401574803,"duration":"0.21"},{"name":"C#6","midi":85,"time":"443.64","velocity":0.28346456692913385,"duration":"0.17"},{"name":"B2","midi":47,"time":"443.65","velocity":0.5275590551181102,"duration":"0.05"},{"name":"F4","midi":65,"time":"443.65","velocity":0.31496062992125984,"duration":"0.02"},{"name":"C6","midi":84,"time":"443.66","velocity":0.2992125984251969,"duration":"0.03"},{"name":"D#6","midi":87,"time":"443.66","velocity":0.11811023622047244,"duration":"0.05"},{"name":"F#3","midi":54,"time":"443.67","velocity":0.3937007874015748,"duration":"0.03"},{"name":"D#4","midi":63,"time":"443.67","velocity":0.2440944881889764,"duration":"0.03"},{"name":"D5","midi":74,"time":"443.67","velocity":0.29133858267716534,"duration":"0.02"},{"name":"B5","midi":83,"time":"443.69","velocity":0.4251968503937008,"duration":"0.12"},{"name":"A2","midi":45,"time":"443.70","velocity":0.5511811023622047,"duration":"0.01"},{"name":"C#5","midi":73,"time":"443.70","velocity":0.36220472440944884,"duration":"0.07"},{"name":"A#2","midi":46,"time":"443.71","velocity":0.5196850393700787,"duration":"0.01"},{"name":"C3","midi":48,"time":"443.72","velocity":0.5118110236220472,"duration":"0.01"},{"name":"F#3","midi":54,"time":"443.72","velocity":0.4015748031496063,"duration":"0.02"},{"name":"D#6","midi":87,"time":"443.72","velocity":0.2204724409448819,"duration":"0.16"},{"name":"C#7","midi":97,"time":"443.72","velocity":0.3543307086614173,"duration":"0.29"},{"name":"B2","midi":47,"time":"443.73","velocity":0.5196850393700787,"duration":"0.03"},{"name":"A#6","midi":94,"time":"443.73","velocity":0.12598425196850394,"duration":"0.03"},{"name":"E4","midi":64,"time":"443.74","velocity":0.28346456692913385,"duration":"0.03"},{"name":"C6","midi":84,"time":"443.74","velocity":0.25196850393700787,"duration":"0.03"},{"name":"F#3","midi":54,"time":"443.76","velocity":0.4015748031496063,"duration":"0.02"},{"name":"A#2","midi":46,"time":"443.77","velocity":0.5196850393700787,"duration":"0.01"},{"name":"B2","midi":47,"time":"443.78","velocity":0.5590551181102362,"duration":"0.20"},{"name":"D6","midi":86,"time":"443.78","velocity":0.2677165354330709,"duration":"0.06"},{"name":"A#6","midi":94,"time":"443.78","velocity":0.12598425196850394,"duration":"0.14"},{"name":"E4","midi":64,"time":"443.79","velocity":0.2677165354330709,"duration":"0.06"},{"name":"D5","midi":74,"time":"443.80","velocity":0.3228346456692913,"duration":"0.10"},{"name":"C6","midi":84,"time":"443.80","velocity":0.31496062992125984,"duration":"0.06"},{"name":"F#4","midi":66,"time":"443.81","velocity":0.33070866141732286,"duration":"0.10"},{"name":"B4","midi":71,"time":"443.81","velocity":0.33070866141732286,"duration":"0.08"},{"name":"D#7","midi":99,"time":"443.81","velocity":0.4015748031496063,"duration":"3.97"},{"name":"A4","midi":69,"time":"443.83","velocity":0.6535433070866141,"duration":"0.22"},{"name":"G6","midi":91,"time":"443.85","velocity":0.25984251968503935,"duration":"0.08"},{"name":"C#4","midi":61,"time":"443.86","velocity":0.23622047244094488,"duration":"0.02"},{"name":"B5","midi":83,"time":"443.86","velocity":0.3779527559055118,"duration":"0.09"},{"name":"C#6","midi":85,"time":"443.87","velocity":0.3228346456692913,"duration":"0.17"},{"name":"D4","midi":62,"time":"443.88","velocity":0.29133858267716534,"duration":"0.03"},{"name":"G5","midi":79,"time":"443.88","velocity":0.2755905511811024,"duration":"0.03"},{"name":"C7","midi":96,"time":"443.88","velocity":0.3858267716535433,"duration":"2.02"},{"name":"E5","midi":76,"time":"443.90","velocity":0.44881889763779526,"duration":"0.21"},{"name":"D#6","midi":87,"time":"443.90","velocity":0.11811023622047244,"duration":"0.03"},{"name":"D5","midi":74,"time":"443.92","velocity":0.28346456692913385,"duration":"0.02"},{"name":"F#5","midi":78,"time":"443.92","velocity":0.3858267716535433,"duration":"0.07"},{"name":"D4","midi":62,"time":"443.93","velocity":0.33858267716535434,"duration":"0.03"},{"name":"D#5","midi":75,"time":"443.93","velocity":0.25984251968503935,"duration":"0.02"},{"name":"A#6","midi":94,"time":"443.93","velocity":0.2677165354330709,"duration":"0.13"},{"name":"C6","midi":84,"time":"443.94","velocity":0.3464566929133858,"duration":"0.10"},{"name":"F7","midi":101,"time":"443.94","velocity":0.25196850393700787,"duration":"0.28"},{"name":"A3","midi":57,"time":"443.95","velocity":0.3543307086614173,"duration":"0.02"},{"name":"G#5","midi":80,"time":"443.95","velocity":0.2755905511811024,"duration":"0.02"},{"name":"G6","midi":91,"time":"443.95","velocity":0.2204724409448819,"duration":"0.07"},{"name":"F#1","midi":30,"time":"443.97","velocity":0.3228346456692913,"duration":"0.02"},{"name":"D#4","midi":63,"time":"443.97","velocity":0.3779527559055118,"duration":"0.02"},{"name":"C5","midi":72,"time":"443.97","velocity":0.33858267716535434,"duration":"0.02"},{"name":"B5","midi":83,"time":"443.97","velocity":0.25196850393700787,"duration":"0.03"},{"name":"E3","midi":52,"time":"443.99","velocity":0.3228346456692913,"duration":"0.02"},{"name":"B4","midi":71,"time":"443.99","velocity":0.44881889763779526,"duration":"0.02"},{"name":"C#5","midi":73,"time":"443.99","velocity":0.36220472440944884,"duration":"0.02"},{"name":"G5","midi":79,"time":"443.99","velocity":0.3779527559055118,"duration":"0.03"},{"name":"C4","midi":60,"time":"444.00","velocity":0.44881889763779526,"duration":"0.02"},{"name":"F#4","midi":66,"time":"444.00","velocity":0.4015748031496063,"duration":"0.03"},{"name":"F6","midi":89,"time":"444.00","velocity":0.2047244094488189,"duration":"0.05"},{"name":"D7","midi":98,"time":"444.00","velocity":0.25984251968503935,"duration":"1.13"},{"name":"D#5","midi":75,"time":"444.01","velocity":0.4330708661417323,"duration":"0.02"},{"name":"B5","midi":83,"time":"444.01","velocity":0.2992125984251969,"duration":"0.02"},{"name":"D#6","midi":87,"time":"444.01","velocity":0.4881889763779528,"duration":"1.21"},{"name":"G#6","midi":92,"time":"444.01","velocity":0.5039370078740157,"duration":"1.14"},{"name":"F#5","midi":78,"time":"444.02","velocity":0.4015748031496063,"duration":"0.27"},{"name":"G#5","midi":80,"time":"444.02","velocity":0.5590551181102362,"duration":"0.43"},{"name":"B4","midi":71,"time":"444.03","velocity":0.31496062992125984,"duration":"0.02"},{"name":"C#5","midi":73,"time":"444.03","velocity":0.33858267716535434,"duration":"0.06"},{"name":"D6","midi":86,"time":"444.03","velocity":0.25196850393700787,"duration":"0.03"},{"name":"G6","midi":91,"time":"444.03","velocity":0.2047244094488189,"duration":"0.07"},{"name":"A3","midi":57,"time":"444.05","velocity":0.4015748031496063,"duration":"0.02"},{"name":"C#4","midi":61,"time":"444.05","velocity":0.3228346456692913,"duration":"0.03"},{"name":"G#4","midi":68,"time":"444.05","velocity":0.6062992125984252,"duration":"0.12"},{"name":"B5","midi":83,"time":"444.05","velocity":0.4251968503937008,"duration":"0.55"},{"name":"C#7","midi":97,"time":"444.05","velocity":0.3228346456692913,"duration":"0.47"},{"name":"A#2","midi":46,"time":"444.07","velocity":0.48031496062992124,"duration":"0.02"},{"name":"B3","midi":59,"time":"444.07","velocity":0.3700787401574803,"duration":"0.02"},{"name":"A#6","midi":94,"time":"444.07","velocity":0.16535433070866143,"duration":"0.05"},{"name":"E3","midi":52,"time":"444.08","velocity":0.4409448818897638,"duration":"0.03"},{"name":"D6","midi":86,"time":"444.08","velocity":0.2755905511811024,"duration":"0.12"},{"name":"E6","midi":88,"time":"444.08","velocity":0.47244094488188976,"duration":"0.70"},{"name":"D#5","midi":75,"time":"444.09","velocity":0.3779527559055118,"duration":"0.09"},{"name":"A3","midi":57,"time":"444.10","velocity":0.5196850393700787,"duration":"0.03"},{"name":"G6","midi":91,"time":"444.12","velocity":0.23622047244094488,"duration":"0.07"},{"name":"A2","midi":45,"time":"444.13","velocity":0.4645669291338583,"duration":"0.02"},{"name":"E4","midi":64,"time":"444.13","velocity":0.30708661417322836,"duration":"0.07"},{"name":"B4","midi":71,"time":"444.13","velocity":0.33070866141732286,"duration":"0.10"},{"name":"F6","midi":89,"time":"444.13","velocity":0.09448818897637795,"duration":"0.03"},{"name":"G1","midi":31,"time":"444.14","velocity":0.3464566929133858,"duration":"0.02"},{"name":"F5","midi":77,"time":"444.14","velocity":0.2677165354330709,"duration":"0.05"},{"name":"A5","midi":81,"time":"444.14","velocity":0.3700787401574803,"duration":"0.05"},{"name":"A#6","midi":94,"time":"444.14","velocity":0.29133858267716534,"duration":"0.51"},{"name":"E3","midi":52,"time":"444.15","velocity":0.5118110236220472,"duration":"0.07"},{"name":"A3","midi":57,"time":"444.15","velocity":0.44881889763779526,"duration":"0.06"},{"name":"C#4","midi":61,"time":"444.15","velocity":0.33070866141732286,"duration":"0.03"},{"name":"A2","midi":45,"time":"444.16","velocity":0.5039370078740157,"duration":"0.02"},{"name":"A4","midi":69,"time":"444.16","velocity":0.5275590551181102,"duration":"0.03"},{"name":"D5","midi":74,"time":"444.19","velocity":0.2992125984251969,"duration":"0.02"},{"name":"A2","midi":45,"time":"444.20","velocity":0.49606299212598426,"duration":"0.02"},{"name":"G#4","midi":68,"time":"444.20","velocity":0.6535433070866141,"duration":"0.45"},{"name":"C#5","midi":73,"time":"444.20","velocity":0.30708661417322836,"duration":"0.07"},{"name":"A5","midi":81,"time":"444.20","velocity":0.25984251968503935,"duration":"0.02"},{"name":"G1","midi":31,"time":"444.21","velocity":0.36220472440944884,"duration":"0.02"},{"name":"A#3","midi":58,"time":"444.21","velocity":0.2125984251968504,"duration":"0.03"},{"name":"D6","midi":86,"time":"444.21","velocity":0.2283464566929134,"duration":"0.02"},{"name":"A6","midi":93,"time":"444.22","velocity":0.3937007874015748,"duration":"0.59"},{"name":"A2","midi":45,"time":"444.23","velocity":0.44881889763779526,"duration":"0.02"},{"name":"D#5","midi":75,"time":"444.23","velocity":0.33070866141732286,"duration":"0.06"},{"name":"F7","midi":101,"time":"444.23","velocity":0.16535433070866143,"duration":"0.31"},{"name":"D6","midi":86,"time":"444.24","velocity":0.2755905511811024,"duration":"0.08"},{"name":"E3","midi":52,"time":"444.26","velocity":0.4330708661417323,"duration":"0.07"},{"name":"D4","midi":62,"time":"444.26","velocity":0.2992125984251969,"duration":"0.07"},{"name":"B4","midi":71,"time":"444.26","velocity":0.25196850393700787,"duration":"0.02"},{"name":"G7","midi":103,"time":"444.26","velocity":0.12598425196850394,"duration":"0.06"},{"name":"A3","midi":57,"time":"444.27","velocity":0.3779527559055118,"duration":"0.03"},{"name":"G6","midi":91,"time":"444.27","velocity":0.2204724409448819,"duration":"0.15"},{"name":"G1","midi":31,"time":"444.29","velocity":0.3858267716535433,"duration":"0.02"},{"name":"B4","midi":71,"time":"444.29","velocity":0.23622047244094488,"duration":"0.05"},{"name":"A#3","midi":58,"time":"444.30","velocity":0.3779527559055118,"duration":"0.02"},{"name":"D#5","midi":75,"time":"444.30","velocity":0.2440944881889764,"duration":"0.02"},{"name":"F#5","midi":78,"time":"444.30","velocity":0.3779527559055118,"duration":"0.13"},{"name":"A5","midi":81,"time":"444.31","velocity":0.25984251968503935,"duration":"0.02"},{"name":"C#6","midi":85,"time":"444.31","velocity":0.29133858267716534,"duration":"0.06"},{"name":"B3","midi":59,"time":"444.33","velocity":0.2677165354330709,"duration":"0.02"},{"name":"D5","midi":74,"time":"444.33","velocity":0.2992125984251969,"duration":"0.03"},{"name":"D#3","midi":51,"time":"444.34","velocity":0.4409448818897638,"duration":"0.02"},{"name":"C#4","midi":61,"time":"444.35","velocity":0.3228346456692913,"duration":"0.03"},{"name":"C#5","midi":73,"time":"444.35","velocity":0.33858267716535434,"duration":"0.05"},{"name":"E5","midi":76,"time":"444.36","velocity":0.3700787401574803,"duration":"0.05"},{"name":"A5","midi":81,"time":"444.36","velocity":0.44881889763779526,"duration":"0.02"},{"name":"F#3","midi":54,"time":"444.37","velocity":0.4330708661417323,"duration":"0.07"},{"name":"C4","midi":60,"time":"444.38","velocity":0.3464566929133858,"duration":"0.02"},{"name":"D#4","midi":63,"time":"444.38","velocity":0.33858267716535434,"duration":"0.02"},{"name":"B4","midi":71,"time":"444.38","velocity":0.3464566929133858,"duration":"0.12"},{"name":"G#2","midi":44,"time":"444.40","velocity":0.5118110236220472,"duration":"0.01"},{"name":"D#5","midi":75,"time":"444.40","velocity":0.3543307086614173,"duration":"0.06"},{"name":"A5","midi":81,"time":"444.40","velocity":0.2677165354330709,"duration":"0.02"},{"name":"B2","midi":47,"time":"444.41","velocity":0.5433070866141733,"duration":"0.15"},{"name":"E4","midi":64,"time":"444.41","velocity":0.4015748031496063,"duration":"0.10"},{"name":"F5","midi":77,"time":"444.41","velocity":0.33858267716535434,"duration":"0.06"},{"name":"D6","midi":86,"time":"444.42","velocity":0.2440944881889764,"duration":"0.08"},{"name":"F#6","midi":90,"time":"444.43","velocity":0.2440944881889764,"duration":"0.09"},{"name":"A5","midi":81,"time":"444.44","velocity":0.5669291338582677,"duration":"0.10"},{"name":"D5","midi":74,"time":"444.45","velocity":0.25984251968503935,"duration":"0.02"},{"name":"G6","midi":91,"time":"444.45","velocity":0.2283464566929134,"duration":"0.06"},{"name":"F6","midi":89,"time":"444.47","velocity":0.16535433070866143,"duration":"0.03"},{"name":"F#3","midi":54,"time":"444.48","velocity":0.36220472440944884,"duration":"0.03"},{"name":"C6","midi":84,"time":"444.49","velocity":0.16535433070866143,"duration":"0.03"},{"name":"D#5","midi":75,"time":"444.50","velocity":0.3464566929133858,"duration":"0.05"},{"name":"F#5","midi":78,"time":"444.51","velocity":0.31496062992125984,"duration":"0.15"},{"name":"C#6","midi":85,"time":"444.51","velocity":0.2440944881889764,"duration":"0.14"},{"name":"F5","midi":77,"time":"444.52","velocity":0.2440944881889764,"duration":"0.06"},{"name":"G6","midi":91,"time":"444.52","velocity":0.28346456692913385,"duration":"0.15"},{"name":"C#7","midi":97,"time":"444.52","velocity":0.3543307086614173,"duration":"0.47"},{"name":"D6","midi":86,"time":"444.53","velocity":0.2677165354330709,"duration":"0.14"},{"name":"D5","midi":74,"time":"444.56","velocity":0.36220472440944884,"duration":"0.07"},{"name":"F7","midi":101,"time":"444.57","velocity":0.25984251968503935,"duration":"0.52"},{"name":"A5","midi":81,"time":"444.58","velocity":0.41732283464566927,"duration":"0.02"},{"name":"C6","midi":84,"time":"444.59","velocity":0.3543307086614173,"duration":"0.02"},{"name":"B2","midi":47,"time":"444.60","velocity":0.36220472440944884,"duration":"0.02"},{"name":"B5","midi":83,"time":"444.60","velocity":0.4330708661417323,"duration":"0.08"},{"name":"G3","midi":55,"time":"444.62","velocity":0.4251968503937008,"duration":"0.02"},{"name":"D#5","midi":75,"time":"444.62","velocity":0.3937007874015748,"duration":"0.19"},{"name":"B3","midi":59,"time":"444.63","velocity":0.4094488188976378,"duration":"0.13"},{"name":"E4","midi":64,"time":"444.63","velocity":0.2755905511811024,"duration":"0.02"},{"name":"A4","midi":69,"time":"444.64","velocity":0.49606299212598426,"duration":"0.08"},{"name":"C#5","midi":73,"time":"444.64","velocity":0.2992125984251969,"duration":"0.06"},{"name":"A#6","midi":94,"time":"444.67","velocity":0.14960629921259844,"duration":"0.08"},{"name":"C6","midi":84,"time":"444.69","velocity":0.2283464566929134,"duration":"0.05"},{"name":"D6","midi":86,"time":"444.69","velocity":0.29133858267716534,"duration":"0.13"},{"name":"F6","midi":89,"time":"444.69","velocity":0.14173228346456693,"duration":"0.03"},{"name":"G6","midi":91,"time":"444.69","velocity":0.18110236220472442,"duration":"0.03"},{"name":"F#3","midi":54,"time":"444.70","velocity":0.33070866141732286,"duration":"0.02"},{"name":"B5","midi":83,"time":"444.70","velocity":0.3858267716535433,"duration":"0.10"},{"name":"C#5","midi":73,"time":"444.71","velocity":0.30708661417322836,"duration":"0.05"},{"name":"C3","midi":48,"time":"444.72","velocity":0.5433070866141733,"duration":"0.02"},{"name":"G#4","midi":68,"time":"444.72","velocity":0.6771653543307087,"duration":"0.90"},{"name":"F5","midi":77,"time":"444.72","velocity":0.23622047244094488,"duration":"0.02"},{"name":"F#6","midi":90,"time":"444.72","velocity":0.25984251968503935,"duration":"0.40"},{"name":"C5","midi":72,"time":"444.73","velocity":0.2992125984251969,"duration":"0.02"},{"name":"B2","midi":47,"time":"444.74","velocity":0.5984251968503937,"duration":"0.01"},{"name":"F#5","midi":78,"time":"444.74","velocity":0.23622047244094488,"duration":"0.03"},{"name":"A5","midi":81,"time":"444.74","velocity":0.4015748031496063,"duration":"0.09"},{"name":"G6","midi":91,"time":"444.74","velocity":0.2047244094488189,"duration":"0.07"},{"name":"A2","midi":45,"time":"444.76","velocity":0.6141732283464567,"duration":"0.01"},{"name":"G3","midi":55,"time":"444.76","velocity":0.5118110236220472,"duration":"0.01"},{"name":"C#3","midi":49,"time":"444.77","velocity":0.5196850393700787,"duration":"0.02"},{"name":"G#3","midi":56,"time":"444.77","velocity":0.4409448818897638,"duration":"0.06"},{"name":"C#5","midi":73,"time":"444.77","velocity":0.3543307086614173,"duration":"0.05"},{"name":"B4","midi":71,"time":"444.78","velocity":0.33070866141732286,"duration":"0.03"},{"name":"A#6","midi":94,"time":"444.78","velocity":0.1889763779527559,"duration":"0.27"},{"name":"G7","midi":103,"time":"444.78","velocity":0.2047244094488189,"duration":"0.13"},{"name":"E1","midi":28,"time":"444.79","velocity":0.5275590551181102,"duration":"0.01"},{"name":"E5","midi":76,"time":"444.79","velocity":0.3700787401574803,"duration":"0.09"},{"name":"A#5","midi":82,"time":"444.79","velocity":0.33070866141732286,"duration":"0.03"},{"name":"F1","midi":29,"time":"444.80","velocity":0.5275590551181102,"duration":"0.01"},{"name":"C#3","midi":49,"time":"444.80","velocity":0.5354330708661418,"duration":"0.01"},{"name":"C6","midi":84,"time":"444.80","velocity":0.25196850393700787,"duration":"0.03"},{"name":"C3","midi":48,"time":"444.81","velocity":0.5669291338582677,"duration":"0.01"},{"name":"C5","midi":72,"time":"444.81","velocity":0.36220472440944884,"duration":"0.02"},{"name":"C#3","midi":49,"time":"444.83","velocity":0.5590551181102362,"duration":"0.05"},{"name":"G3","midi":55,"time":"444.83","velocity":0.3543307086614173,"duration":"0.02"},{"name":"B5","midi":83,"time":"444.83","velocity":0.2440944881889764,"duration":"0.05"},{"name":"F6","midi":89,"time":"444.83","velocity":0.11811023622047244,"duration":"0.03"},{"name":"B4","midi":71,"time":"444.84","velocity":0.3228346456692913,"duration":"0.03"},{"name":"A#5","midi":82,"time":"444.84","velocity":0.2992125984251969,"duration":"0.05"},{"name":"G#3","midi":56,"time":"444.85","velocity":0.3700787401574803,"duration":"0.06"},{"name":"D6","midi":86,"time":"444.85","velocity":0.2755905511811024,"duration":"0.23"},{"name":"A6","midi":93,"time":"444.86","velocity":0.2677165354330709,"duration":"0.10"},{"name":"C#5","midi":73,"time":"444.87","velocity":0.31496062992125984,"duration":"0.02"},{"name":"D#5","midi":75,"time":"444.87","velocity":0.3700787401574803,"duration":"0.17"},{"name":"C#3","midi":49,"time":"444.88","velocity":0.5748031496062992,"duration":"0.07"},{"name":"B4","midi":71,"time":"444.88","velocity":0.2677165354330709,"duration":"0.02"},{"name":"F5","midi":77,"time":"444.88","velocity":0.23622047244094488,"duration":"0.03"},{"name":"F#5","midi":78,"time":"444.88","velocity":0.3464566929133858,"duration":"0.07"},{"name":"B5","midi":83,"time":"444.88","velocity":0.36220472440944884,"duration":"0.15"},{"name":"C5","midi":72,"time":"444.90","velocity":0.2755905511811024,"duration":"0.02"},{"name":"E4","midi":64,"time":"444.91","velocity":0.33858267716535434,"duration":"0.02"},{"name":"A5","midi":81,"time":"444.91","velocity":0.2992125984251969,"duration":"0.03"},{"name":"C#6","midi":85,"time":"444.91","velocity":0.2440944881889764,"duration":"0.10"},{"name":"G#3","midi":56,"time":"444.92","velocity":0.3543307086614173,"duration":"0.03"},{"name":"B4","midi":71,"time":"444.92","velocity":0.2992125984251969,"duration":"0.02"},{"name":"C#5","midi":73,"time":"444.92","velocity":0.28346456692913385,"duration":"0.03"},{"name":"A#5","midi":82,"time":"444.93","velocity":0.36220472440944884,"duration":"0.14"},{"name":"G7","midi":103,"time":"444.93","velocity":0.07874015748031496,"duration":"0.08"},{"name":"E4","midi":64,"time":"444.94","velocity":0.3779527559055118,"duration":"0.15"},{"name":"C3","midi":48,"time":"444.95","velocity":0.5669291338582677,"duration":"0.01"},{"name":"C5","midi":72,"time":"444.95","velocity":0.33858267716535434,"duration":"0.03"},{"name":"C#3","midi":49,"time":"444.97","velocity":0.5826771653543307,"duration":"0.10"},{"name":"F5","midi":77,"time":"444.97","velocity":0.28346456692913385,"duration":"0.07"},{"name":"F#5","midi":78,"time":"444.97","velocity":0.23622047244094488,"duration":"0.02"},{"name":"B4","midi":71,"time":"444.98","velocity":0.3543307086614173,"duration":"0.02"},{"name":"A6","midi":93,"time":"444.99","velocity":0.2204724409448819,"duration":"0.03"},{"name":"G#3","midi":56,"time":"445.00","velocity":0.3464566929133858,"duration":"0.03"},{"name":"C#7","midi":97,"time":"445.00","velocity":0.3228346456692913,"duration":"0.43"},{"name":"F#5","midi":78,"time":"445.01","velocity":0.3937007874015748,"duration":"0.45"},{"name":"C5","midi":72,"time":"445.02","velocity":0.3543307086614173,"duration":"0.03"},{"name":"G6","midi":91,"time":"445.02","velocity":0.14173228346456693,"duration":"0.07"},{"name":"B4","midi":71,"time":"445.05","velocity":0.3228346456692913,"duration":"0.06"},{"name":"C#6","midi":85,"time":"445.05","velocity":0.33070866141732286,"duration":"0.49"},{"name":"F6","midi":89,"time":"445.05","velocity":0.10236220472440945,"duration":"0.05"},{"name":"G#3","midi":56,"time":"445.06","velocity":0.4015748031496063,"duration":"0.07"},{"name":"D#5","midi":75,"time":"445.06","velocity":0.3779527559055118,"duration":"0.08"},{"name":"A6","midi":93,"time":"445.06","velocity":0.3937007874015748,"duration":"0.53"},{"name":"G7","midi":103,"time":"445.06","velocity":0.1889763779527559,"duration":"0.24"},{"name":"C3","midi":48,"time":"445.07","velocity":0.5511811023622047,"duration":"0.01"},{"name":"B5","midi":83,"time":"445.07","velocity":0.3228346456692913,"duration":"0.06"},{"name":"C#3","midi":49,"time":"445.08","velocity":0.5433070866141733,"duration":"0.05"},{"name":"A#5","midi":82,"time":"445.09","velocity":0.3858267716535433,"duration":"0.07"},{"name":"E4","midi":64,"time":"445.12","velocity":0.44881889763779526,"duration":"0.37"},{"name":"C5","midi":72,"time":"445.12","velocity":0.33858267716535434,"duration":"0.07"},{"name":"D6","midi":86,"time":"445.12","velocity":0.25984251968503935,"duration":"0.05"},{"name":"E6","midi":88,"time":"445.12","velocity":0.44881889763779526,"duration":"0.58"},{"name":"G6","midi":91,"time":"445.12","velocity":0.2047244094488189,"duration":"0.05"},{"name":"G1","midi":31,"time":"445.14","velocity":0.3543307086614173,"duration":"0.02"},{"name":"F3","midi":53,"time":"445.14","velocity":0.44881889763779526,"duration":"0.02"},{"name":"C#4","midi":61,"time":"445.15","velocity":0.4094488188976378,"duration":"0.05"},{"name":"D7","midi":98,"time":"445.15","velocity":0.2755905511811024,"duration":"0.60"},{"name":"F7","midi":101,"time":"445.15","velocity":0.2204724409448819,"duration":"0.47"},{"name":"C3","midi":48,"time":"445.16","velocity":0.47244094488188976,"duration":"0.02"},{"name":"D#5","midi":75,"time":"445.16","velocity":0.3228346456692913,"duration":"0.02"},{"name":"G#3","midi":56,"time":"445.17","velocity":0.4330708661417323,"duration":"0.07"},{"name":"A5","midi":81,"time":"445.17","velocity":0.49606299212598426,"duration":"0.05"},{"name":"A#5","midi":82,"time":"445.17","velocity":0.30708661417322836,"duration":"0.02"},{"name":"G6","midi":91,"time":"445.17","velocity":0.2047244094488189,"duration":"0.08"},{"name":"B5","midi":83,"time":"445.19","velocity":0.36220472440944884,"duration":"0.05"},{"name":"D6","midi":86,"time":"445.20","velocity":0.2047244094488189,"duration":"0.03"},{"name":"B4","midi":71,"time":"445.21","velocity":0.30708661417322836,"duration":"0.07"},{"name":"D#5","midi":75,"time":"445.22","velocity":0.2992125984251969,"duration":"0.05"},{"name":"C5","midi":72,"time":"445.23","velocity":0.2440944881889764,"duration":"0.02"},{"name":"A5","midi":81,"time":"445.23","velocity":0.3858267716535433,"duration":"0.02"},{"name":"A#5","midi":82,"time":"445.23","velocity":0.3543307086614173,"duration":"0.07"},{"name":"D#6","midi":87,"time":"445.23","velocity":0.3543307086614173,"duration":"0.28"},{"name":"D6","midi":86,"time":"445.24","velocity":0.16535433070866143,"duration":"0.03"},{"name":"G#3","midi":56,"time":"445.26","velocity":0.3464566929133858,"duration":"0.02"},{"name":"C#5","midi":73,"time":"445.26","velocity":0.4409448818897638,"duration":"0.26"},{"name":"A5","midi":81,"time":"445.27","velocity":0.3779527559055118,"duration":"0.03"},{"name":"C#3","midi":49,"time":"445.28","velocity":0.47244094488188976,"duration":"0.05"},{"name":"C6","midi":84,"time":"445.28","velocity":0.1889763779527559,"duration":"0.06"},{"name":"G6","midi":91,"time":"445.28","velocity":0.15748031496062992,"duration":"0.05"},{"name":"G#3","midi":56,"time":"445.29","velocity":0.3779527559055118,"duration":"0.05"},{"name":"D#5","midi":75,"time":"445.29","velocity":0.33070866141732286,"duration":"0.05"},{"name":"B5","midi":83,"time":"445.29","velocity":0.2204724409448819,"duration":"0.06"},{"name":"D6","midi":86,"time":"445.30","velocity":0.25196850393700787,"duration":"0.07"},{"name":"A#6","midi":94,"time":"445.31","velocity":0.2204724409448819,"duration":"0.15"},{"name":"G7","midi":103,"time":"445.33","velocity":0.1889763779527559,"duration":"0.13"},{"name":"C#3","midi":49,"time":"445.34","velocity":0.5196850393700787,"duration":"0.03"},{"name":"A5","midi":81,"time":"445.34","velocity":0.5433070866141733,"duration":"0.12"},{"name":"A#5","midi":82,"time":"445.34","velocity":0.33070866141732286,"duration":"0.03"},{"name":"G#3","midi":56,"time":"445.35","velocity":0.3779527559055118,"duration":"0.02"},{"name":"D#5","midi":75,"time":"445.37","velocity":0.2125984251968504,"duration":"0.06"},{"name":"B5","midi":83,"time":"445.37","velocity":0.36220472440944884,"duration":"0.05"},{"name":"C3","midi":48,"time":"445.38","velocity":0.5196850393700787,"duration":"0.01"},{"name":"G#3","midi":56,"time":"445.38","velocity":0.3779527559055118,"duration":"0.10"},{"name":"D6","midi":86,"time":"445.38","velocity":0.2677165354330709,"duration":"0.14"},{"name":"C#3","midi":49,"time":"445.40","velocity":0.5118110236220472,"duration":"0.03"},{"name":"F5","midi":77,"time":"445.40","velocity":0.23622047244094488,"duration":"0.09"},{"name":"G5","midi":79,"time":"445.40","velocity":0.4330708661417323,"duration":"0.02"},{"name":"A#5","midi":82,"time":"445.43","velocity":0.3228346456692913,"duration":"0.02"},{"name":"B4","midi":71,"time":"445.44","velocity":0.25984251968503935,"duration":"0.02"},{"name":"C#3","midi":49,"time":"445.45","velocity":0.47244094488188976,"duration":"0.03"},{"name":"C6","midi":84,"time":"445.47","velocity":0.2440944881889764,"duration":"0.09"},{"name":"A#4","midi":70,"time":"445.48","velocity":0.3700787401574803,"duration":"0.02"},{"name":"G5","midi":79,"time":"445.48","velocity":0.2755905511811024,"duration":"0.03"},{"name":"F#6","midi":90,"time":"445.48","velocity":0.3700787401574803,"duration":"0.19"},{"name":"C4","midi":60,"time":"445.49","velocity":0.4566929133858268,"duration":"0.03"},{"name":"F4","midi":65,"time":"445.49","velocity":0.5275590551181102,"duration":"0.01"},{"name":"F#5","midi":78,"time":"445.49","velocity":0.29133858267716534,"duration":"0.06"},{"name":"A2","midi":45,"time":"445.50","velocity":0.4251968503937008,"duration":"0.02"},{"name":"F6","midi":89,"time":"445.50","velocity":0.29133858267716534,"duration":"0.03"},{"name":"D5","midi":74,"time":"445.51","velocity":0.33858267716535434,"duration":"0.02"},{"name":"E5","midi":76,"time":"445.51","velocity":0.2992125984251969,"duration":"0.02"},{"name":"A5","midi":81,"time":"445.51","velocity":0.4094488188976378,"duration":"0.10"},{"name":"C#4","midi":61,"time":"445.52","velocity":0.3937007874015748,"duration":"0.02"},{"name":"B5","midi":83,"time":"445.52","velocity":0.33070866141732286,"duration":"0.06"},{"name":"D#6","midi":87,"time":"445.52","velocity":0.5196850393700787,"duration":"1.28"},{"name":"B1","midi":35,"time":"445.53","velocity":0.4015748031496063,"duration":"0.02"},{"name":"D3","midi":50,"time":"445.53","velocity":0.5196850393700787,"duration":"0.01"},{"name":"A#3","midi":58,"time":"445.53","velocity":0.2755905511811024,"duration":"0.03"},{"name":"F4","midi":65,"time":"445.53","velocity":0.4094488188976378,"duration":"0.03"},{"name":"D#5","midi":75,"time":"445.53","velocity":0.33858267716535434,"duration":"0.08"},{"name":"C#3","midi":49,"time":"445.55","velocity":0.5511811023622047,"duration":"0.14"},{"name":"A#5","midi":82,"time":"445.56","velocity":0.29133858267716534,"duration":"0.06"},{"name":"C#5","midi":73,"time":"445.57","velocity":0.2992125984251969,"duration":"0.06"},{"name":"F5","midi":77,"time":"445.57","velocity":0.28346456692913385,"duration":"0.03"},{"name":"G5","midi":79,"time":"445.57","velocity":0.5354330708661418,"duration":"0.01"},{"name":"D6","midi":86,"time":"445.57","velocity":0.2677165354330709,"duration":"0.02"},{"name":"A3","midi":57,"time":"445.58","velocity":0.4094488188976378,"duration":"0.03"},{"name":"E4","midi":64,"time":"445.58","velocity":0.3228346456692913,"duration":"0.08"},{"name":"C5","midi":72,"time":"445.58","velocity":0.36220472440944884,"duration":"0.03"},{"name":"B5","midi":83,"time":"445.59","velocity":0.2440944881889764,"duration":"0.06"},{"name":"A#4","midi":70,"time":"445.60","velocity":0.3858267716535433,"duration":"0.02"},{"name":"E5","midi":76,"time":"445.60","velocity":0.3464566929133858,"duration":"0.06"},{"name":"G#3","midi":56,"time":"445.62","velocity":0.41732283464566927,"duration":"0.14"},{"name":"F#5","midi":78,"time":"445.62","velocity":0.25984251968503935,"duration":"0.07"},{"name":"C6","midi":84,"time":"445.62","velocity":0.14173228346456693,"duration":"0.05"},{"name":"G#4","midi":68,"time":"445.63","velocity":0.6771653543307087,"duration":"1.12"},{"name":"B4","midi":71,"time":"445.63","velocity":0.3464566929133858,"duration":"0.07"},{"name":"A#5","midi":82,"time":"445.63","velocity":0.33070866141732286,"duration":"0.06"},{"name":"F6","midi":89,"time":"445.63","velocity":0.08661417322834646,"duration":"0.03"},{"name":"F7","midi":101,"time":"445.63","velocity":0.1968503937007874,"duration":"0.30"},{"name":"D1","midi":26,"time":"445.64","velocity":0.31496062992125984,"duration":"0.02"},{"name":"G6","midi":91,"time":"445.65","velocity":0.13385826771653545,"duration":"0.03"},{"name":"C#5","midi":73,"time":"445.66","velocity":0.2992125984251969,"duration":"0.02"},{"name":"A5","midi":81,"time":"445.66","velocity":0.31496062992125984,"duration":"0.02"},{"name":"B6","midi":95,"time":"445.66","velocity":0.3700787401574803,"duration":"2.37"},{"name":"E5","midi":76,"time":"445.67","velocity":0.33858267716535434,"duration":"0.09"},{"name":"C6","midi":84,"time":"445.67","velocity":0.1889763779527559,"duration":"0.09"},{"name":"B5","midi":83,"time":"445.69","velocity":0.3700787401574803,"duration":"0.21"},{"name":"F#6","midi":90,"time":"445.69","velocity":0.2204724409448819,"duration":"0.03"},{"name":"F4","midi":65,"time":"445.70","velocity":0.33858267716535434,"duration":"0.02"},{"name":"C#3","midi":49,"time":"445.71","velocity":0.49606299212598426,"duration":"0.02"},{"name":"C5","midi":72,"time":"445.72","velocity":0.2677165354330709,"duration":"0.09"},{"name":"A#6","midi":94,"time":"445.72","velocity":0.2755905511811024,"duration":"0.72"},{"name":"A5","midi":81,"time":"445.73","velocity":0.3228346456692913,"duration":"0.03"},{"name":"C#6","midi":85,"time":"445.73","velocity":0.1732283464566929,"duration":"0.05"},{"name":"G6","midi":91,"time":"445.73","velocity":0.09448818897637795,"duration":"0.07"},{"name":"D6","midi":86,"time":"445.74","velocity":0.2283464566929134,"duration":"0.12"},{"name":"F#6","midi":90,"time":"445.76","velocity":0.31496062992125984,"duration":"0.24"},{"name":"C#3","midi":49,"time":"445.77","velocity":0.4330708661417323,"duration":"0.02"},{"name":"G#3","midi":56,"time":"445.77","velocity":0.3858267716535433,"duration":"0.02"},{"name":"E4","midi":64,"time":"445.77","velocity":0.3779527559055118,"duration":"0.12"},{"name":"D#5","midi":75,"time":"445.77","velocity":0.3779527559055118,"duration":"0.02"},{"name":"A#5","midi":82,"time":"445.77","velocity":0.3228346456692913,"duration":"0.05"},{"name":"G#2","midi":44,"time":"445.80","velocity":0.4094488188976378,"duration":"0.02"},{"name":"G#3","midi":56,"time":"445.80","velocity":0.4645669291338583,"duration":"0.07"},{"name":"F6","midi":89,"time":"445.80","velocity":0.15748031496062992,"duration":"0.03"},{"name":"D7","midi":98,"time":"445.80","velocity":0.2440944881889764,"duration":"0.47"},{"name":"C#5","midi":73,"time":"445.83","velocity":0.4015748031496063,"duration":"0.06"},{"name":"A6","midi":93,"time":"445.84","velocity":0.12598425196850394,"duration":"0.03"},{"name":"C#4","midi":61,"time":"445.85","velocity":0.2283464566929134,"duration":"0.02"},{"name":"F6","midi":89,"time":"445.85","velocity":0.11811023622047244,"duration":"0.05"},{"name":"A#2","midi":46,"time":"445.86","velocity":0.5196850393700787,"duration":"0.01"},{"name":"A5","midi":81,"time":"445.86","velocity":0.2755905511811024,"duration":"0.05"},{"name":"G6","midi":91,"time":"445.86","velocity":0.2440944881889764,"duration":"0.02"},{"name":"F2","midi":41,"time":"445.87","velocity":0.6141732283464567,"duration":"0.01"},{"name":"A3","midi":57,"time":"445.87","velocity":0.47244094488188976,"duration":"0.05"},{"name":"F#5","midi":78,"time":"445.87","velocity":0.2047244094488189,"duration":"0.06"},{"name":"A#5","midi":82,"time":"445.87","velocity":0.3543307086614173,"duration":"0.12"},{"name":"D6","midi":86,"time":"445.87","velocity":0.2283464566929134,"duration":"0.05"},{"name":"G#2","midi":44,"time":"445.88","velocity":0.5511811023622047,"duration":"0.01"},{"name":"E3","midi":52,"time":"445.88","velocity":0.36220472440944884,"duration":"0.02"},{"name":"D4","midi":62,"time":"445.88","velocity":0.30708661417322836,"duration":"0.02"},{"name":"C5","midi":72,"time":"445.88","velocity":0.3543307086614173,"duration":"0.05"},{"name":"A#1","midi":34,"time":"445.90","velocity":0.5118110236220472,"duration":"0.01"},{"name":"G6","midi":91,"time":"445.90","velocity":0.15748031496062992,"duration":"0.06"},{"name":"F#1","midi":30,"time":"445.91","velocity":0.5748031496062992,"duration":"0.01"},{"name":"F6","midi":89,"time":"445.91","velocity":0.14173228346456693,"duration":"0.06"},{"name":"A6","midi":93,"time":"445.91","velocity":0.25984251968503935,"duration":"0.26"},{"name":"F1","midi":29,"time":"445.92","velocity":0.5748031496062992,"duration":"0.01"},{"name":"C3","midi":48,"time":"445.92","velocity":0.5826771653543307,"duration":"0.02"},{"name":"G#3","midi":56,"time":"445.92","velocity":0.3700787401574803,"duration":"0.06"},{"name":"C#4","midi":61,"time":"445.92","velocity":0.3700787401574803,"duration":"0.13"},{"name":"F5","midi":77,"time":"445.92","velocity":0.3464566929133858,"duration":"0.09"},{"name":"B5","midi":83,"time":"445.92","velocity":0.2440944881889764,"duration":"0.06"},{"name":"C7","midi":96,"time":"445.92","velocity":0.33070866141732286,"duration":"1.03"},{"name":"A1","midi":33,"time":"445.93","velocity":0.5354330708661418,"duration":"0.01"},{"name":"B4","midi":71,"time":"445.93","velocity":0.3543307086614173,"duration":"0.13"},{"name":"D#5","midi":75,"time":"445.93","velocity":0.28346456692913385,"duration":"0.02"},{"name":"D6","midi":86,"time":"445.93","velocity":0.28346456692913385,"duration":"0.12"},{"name":"C#3","midi":49,"time":"445.94","velocity":0.5433070866141733,"duration":"0.03"},{"name":"C6","midi":84,"time":"445.95","velocity":0.1732283464566929,"duration":"0.03"},{"name":"F7","midi":101,"time":"445.97","velocity":0.2125984251968504,"duration":"0.24"},{"name":"D3","midi":50,"time":"445.98","velocity":0.5275590551181102,"duration":"0.01"},{"name":"C#3","midi":49,"time":"445.99","velocity":0.5275590551181102,"duration":"0.01"},{"name":"G6","midi":91,"time":"445.99","velocity":0.2283464566929134,"duration":"0.02"},{"name":"D#5","midi":75,"time":"446.00","velocity":0.2047244094488189,"duration":"0.03"},{"name":"C#3","midi":49,"time":"446.01","velocity":0.5118110236220472,"duration":"0.03"},{"name":"F#5","midi":78,"time":"446.01","velocity":0.25984251968503935,"duration":"0.05"},{"name":"F#6","midi":90,"time":"446.01","velocity":0.29133858267716534,"duration":"0.23"},{"name":"G7","midi":103,"time":"446.01","velocity":0.14960629921259844,"duration":"0.06"},{"name":"G#3","midi":56,"time":"446.02","velocity":0.4409448818897638,"duration":"0.20"},{"name":"C#5","midi":73,"time":"446.02","velocity":0.3937007874015748,"duration":"0.10"},{"name":"E5","midi":76,"time":"446.02","velocity":0.3937007874015748,"duration":"0.17"},{"name":"G5","midi":79,"time":"446.02","velocity":0.44881889763779526,"duration":"0.02"},{"name":"E4","midi":64,"time":"446.03","velocity":0.3937007874015748,"duration":"0.19"},{"name":"B5","midi":83,"time":"446.03","velocity":0.3779527559055118,"duration":"0.10"},{"name":"C6","midi":84,"time":"446.03","velocity":0.2204724409448819,"duration":"0.03"},{"name":"C#7","midi":97,"time":"446.03","velocity":0.3464566929133858,"duration":"0.79"},{"name":"A#5","midi":82,"time":"446.05","velocity":0.33858267716535434,"duration":"0.08"},{"name":"G6","midi":91,"time":"446.05","velocity":0.1889763779527559,"duration":"0.03"},{"name":"F#1","midi":30,"time":"446.06","velocity":0.3779527559055118,"duration":"0.02"},{"name":"D6","midi":86,"time":"446.07","velocity":0.2440944881889764,"duration":"0.16"},{"name":"G6","midi":91,"time":"446.09","velocity":0.11023622047244094,"duration":"0.06"},{"name":"B4","midi":71,"time":"446.10","velocity":0.3464566929133858,"duration":"0.09"},{"name":"G7","midi":103,"time":"446.10","velocity":0.12598425196850394,"duration":"0.09"},{"name":"C6","midi":84,"time":"446.12","velocity":0.1889763779527559,"duration":"0.03"},{"name":"C#5","midi":73,"time":"446.14","velocity":0.31496062992125984,"duration":"0.06"},{"name":"C#3","midi":49,"time":"446.15","velocity":0.4015748031496063,"duration":"0.02"},{"name":"B5","midi":83,"time":"446.15","velocity":0.3464566929133858,"duration":"0.10"},{"name":"F6","midi":89,"time":"446.16","velocity":0.10236220472440945,"duration":"0.05"},{"name":"A6","midi":93,"time":"446.17","velocity":0.1889763779527559,"duration":"0.12"},{"name":"F5","midi":77,"time":"446.19","velocity":0.31496062992125984,"duration":"0.07"},{"name":"G6","midi":91,"time":"446.19","velocity":0.2283464566929134,"duration":"0.08"},{"name":"C#3","midi":49,"time":"446.20","velocity":0.4409448818897638,"duration":"0.02"},{"name":"C5","midi":72,"time":"446.20","velocity":0.3700787401574803,"duration":"0.03"},{"name":"D#5","midi":75,"time":"446.20","velocity":0.3543307086614173,"duration":"0.10"},{"name":"F#5","midi":78,"time":"446.21","velocity":0.2283464566929134,"duration":"0.02"},{"name":"A#5","midi":82,"time":"446.21","velocity":0.3464566929133858,"duration":"0.09"},{"name":"E3","midi":52,"time":"446.22","velocity":0.4566929133858268,"duration":"0.02"},{"name":"F7","midi":101,"time":"446.22","velocity":0.2125984251968504,"duration":"0.55"},{"name":"E2","midi":40,"time":"446.23","velocity":0.5433070866141733,"duration":"0.02"},{"name":"B4","midi":71,"time":"446.23","velocity":0.3700787401574803,"duration":"0.02"},{"name":"D#3","midi":51,"time":"446.24","velocity":0.5118110236220472,"duration":"0.01"},{"name":"C5","midi":72,"time":"446.24","velocity":0.3543307086614173,"duration":"0.05"},{"name":"D3","midi":50,"time":"446.26","velocity":0.5275590551181102,"duration":"0.01"},{"name":"E4","midi":64,"time":"446.26","velocity":0.31496062992125984,"duration":"0.06"},{"name":"F#5","midi":78,"time":"446.26","velocity":0.2992125984251969,"duration":"0.08"},{"name":"F#6","midi":90,"time":"446.26","velocity":0.2992125984251969,"duration":"0.34"},{"name":"F1","midi":29,"time":"446.27","velocity":0.5433070866141733,"duration":"0.01"},{"name":"C#3","midi":49,"time":"446.27","velocity":0.5433070866141733,"duration":"0.03"},{"name":"G#3","midi":56,"time":"446.27","velocity":0.33070866141732286,"duration":"0.08"},{"name":"E7","midi":100,"time":"446.27","velocity":0.2283464566929134,"duration":"0.29"},{"name":"E1","midi":28,"time":"446.28","velocity":0.5590551181102362,"duration":"0.02"},{"name":"E6","midi":88,"time":"446.28","velocity":0.2755905511811024,"duration":"0.33"},{"name":"G6","midi":91,"time":"446.28","velocity":0.2047244094488189,"duration":"0.03"},{"name":"C#5","midi":73,"time":"446.29","velocity":0.30708661417322836,"duration":"0.06"},{"name":"B5","midi":83,"time":"446.29","velocity":0.33070866141732286,"duration":"0.07"},{"name":"D7","midi":98,"time":"446.29","velocity":0.1889763779527559,"duration":"0.16"},{"name":"C3","midi":48,"time":"446.30","velocity":0.5275590551181102,"duration":"0.01"},{"name":"E5","midi":76,"time":"446.30","velocity":0.3543307086614173,"duration":"0.14"},{"name":"D6","midi":86,"time":"446.30","velocity":0.2283464566929134,"duration":"0.12"},{"name":"A1","midi":33,"time":"446.31","velocity":0.3937007874015748,"duration":"0.02"},{"name":"B4","midi":71,"time":"446.31","velocity":0.25196850393700787,"duration":"0.03"},{"name":"C6","midi":84,"time":"446.34","velocity":0.23622047244094488,"duration":"0.09"},{"name":"C#6","midi":85,"time":"446.35","velocity":0.16535433070866143,"duration":"0.05"},{"name":"A6","midi":93,"time":"446.35","velocity":0.08661417322834646,"duration":"0.06"},{"name":"C3","midi":48,"time":"446.36","velocity":0.47244094488188976,"duration":"0.02"},{"name":"G#3","midi":56,"time":"446.36","velocity":0.3543307086614173,"duration":"0.02"},{"name":"E4","midi":64,"time":"446.36","velocity":0.2677165354330709,"duration":"0.05"},{"name":"B4","midi":71,"time":"446.36","velocity":0.3779527559055118,"duration":"0.12"},{"name":"C#5","midi":73,"time":"446.36","velocity":0.3543307086614173,"duration":"0.05"},{"name":"A#5","midi":82,"time":"446.36","velocity":0.31496062992125984,"duration":"0.10"},{"name":"G6","midi":91,"time":"446.36","velocity":0.14960629921259844,"duration":"0.07"},{"name":"G#5","midi":80,"time":"446.37","velocity":0.6771653543307087,"duration":"0.29"},{"name":"C2","midi":36,"time":"446.38","velocity":0.3228346456692913,"duration":"0.02"},{"name":"G#3","midi":56,"time":"446.40","velocity":0.33070866141732286,"duration":"0.02"},{"name":"D#5","midi":75,"time":"446.40","velocity":0.2204724409448819,"duration":"0.06"},{"name":"C#3","midi":49,"time":"446.41","velocity":0.4881889763779528,"duration":"0.06"},{"name":"F#4","midi":66,"time":"446.41","velocity":0.2755905511811024,"duration":"0.02"},{"name":"C#6","midi":85,"time":"446.41","velocity":0.3464566929133858,"duration":"0.22"},{"name":"G3","midi":55,"time":"446.42","velocity":0.4094488188976378,"duration":"0.02"},{"name":"C#5","midi":73,"time":"446.42","velocity":0.3700787401574803,"duration":"0.13"},{"name":"G7","midi":103,"time":"446.42","velocity":0.16535433070866143,"duration":"0.07"},{"name":"D2","midi":38,"time":"446.43","velocity":0.5196850393700787,"duration":"0.02"},{"name":"D#4","midi":63,"time":"446.43","velocity":0.2992125984251969,"duration":"0.03"},{"name":"D6","midi":86,"time":"446.43","velocity":0.2283464566929134,"duration":"0.03"},{"name":"A6","midi":93,"time":"446.43","velocity":0.1732283464566929,"duration":"0.16"},{"name":"E2","midi":40,"time":"446.45","velocity":0.5275590551181102,"duration":"0.01"},{"name":"F#5","midi":78,"time":"446.45","velocity":0.23622047244094488,"duration":"0.03"},{"name":"E4","midi":64,"time":"446.47","velocity":0.36220472440944884,"duration":"0.05"},{"name":"D#5","midi":75,"time":"446.47","velocity":0.2047244094488189,"duration":"0.03"},{"name":"A#6","midi":94,"time":"446.47","velocity":0.2283464566929134,"duration":"0.23"},{"name":"D7","midi":98,"time":"446.47","velocity":0.16535433070866143,"duration":"0.15"},{"name":"C3","midi":48,"time":"446.48","velocity":0.5433070866141733,"duration":"0.02"},{"name":"G3","midi":55,"time":"446.48","velocity":0.28346456692913385,"duration":"0.02"},{"name":"F5","midi":77,"time":"446.48","velocity":0.2677165354330709,"duration":"0.03"},{"name":"C2","midi":36,"time":"446.50","velocity":0.5196850393700787,"duration":"0.01"},{"name":"G6","midi":91,"time":"446.50","velocity":0.11811023622047244,"duration":"0.03"},{"name":"C6","midi":84,"time":"446.51","velocity":0.16535433070866143,"duration":"0.09"},{"name":"C#4","midi":61,"time":"446.52","velocity":0.2755905511811024,"duration":"0.06"},{"name":"F4","midi":65,"time":"446.52","velocity":0.33070866141732286,"duration":"0.05"},{"name":"A#5","midi":82,"time":"446.52","velocity":0.3228346456692913,"duration":"0.09"},{"name":"D3","midi":50,"time":"446.53","velocity":0.5275590551181102,"duration":"0.01"},{"name":"B4","midi":71,"time":"446.55","velocity":0.25984251968503935,"duration":"0.02"},{"name":"G#3","midi":56,"time":"446.56","velocity":0.25984251968503935,"duration":"0.02"},{"name":"C#5","midi":73,"time":"446.56","velocity":0.3543307086614173,"duration":"0.03"},{"name":"D#5","midi":75,"time":"446.56","velocity":0.31496062992125984,"duration":"0.06"},{"name":"C#3","midi":49,"time":"446.57","velocity":0.5196850393700787,"duration":"0.03"},{"name":"E7","midi":100,"time":"446.57","velocity":0.2755905511811024,"duration":"1.55"},{"name":"A#3","midi":58,"time":"446.58","velocity":0.2677165354330709,"duration":"0.02"},{"name":"G6","midi":91,"time":"446.58","velocity":0.14960629921259844,"duration":"0.03"},{"name":"D#4","midi":63,"time":"446.59","velocity":0.30708661417322836,"duration":"0.02"},{"name":"D6","midi":86,"time":"446.59","velocity":0.2677165354330709,"duration":"0.08"},{"name":"G#3","midi":56,"time":"446.60","velocity":0.5118110236220472,"duration":"0.03"},{"name":"C#5","midi":73,"time":"446.60","velocity":0.2755905511811024,"duration":"0.05"},{"name":"E5","midi":76,"time":"446.60","velocity":0.36220472440944884,"duration":"0.10"},{"name":"B5","midi":83,"time":"446.60","velocity":0.36220472440944884,"duration":"0.13"},{"name":"F#6","midi":90,"time":"446.60","velocity":0.2440944881889764,"duration":"0.07"},{"name":"E2","midi":40,"time":"446.62","velocity":0.5669291338582677,"duration":"0.01"},{"name":"A5","midi":81,"time":"446.62","velocity":0.5433070866141733,"duration":"0.23"},{"name":"E6","midi":88,"time":"446.62","velocity":0.47244094488188976,"duration":"0.45"},{"name":"F2","midi":41,"time":"446.63","velocity":0.5433070866141733,"duration":"0.01"},{"name":"C#4","midi":61,"time":"446.63","velocity":0.3228346456692913,"duration":"0.14"},{"name":"D7","midi":98,"time":"446.63","velocity":0.2755905511811024,"duration":"0.36"},{"name":"B4","midi":71,"time":"446.64","velocity":0.30708661417322836,"duration":"0.05"},{"name":"D#5","midi":75,"time":"446.64","velocity":0.18110236220472442,"duration":"0.03"},{"name":"F1","midi":29,"time":"446.65","velocity":0.5511811023622047,"duration":"0.01"},{"name":"E1","midi":28,"time":"446.66","velocity":0.5748031496062992,"duration":"0.01"},{"name":"C#5","midi":73,"time":"446.66","velocity":0.3464566929133858,"duration":"0.02"},{"name":"F6","midi":89,"time":"446.66","velocity":0.10236220472440945,"duration":"0.03"},{"name":"D#1","midi":27,"time":"446.67","velocity":0.5196850393700787,"duration":"0.01"},{"name":"C#3","midi":49,"time":"446.67","velocity":0.5354330708661418,"duration":"0.01"},{"name":"A#5","midi":82,"time":"446.67","velocity":0.33070866141732286,"duration":"0.05"},{"name":"G6","midi":91,"time":"446.67","velocity":0.1732283464566929,"duration":"0.05"},{"name":"C3","midi":48,"time":"446.69","velocity":0.5433070866141733,"duration":"0.01"},{"name":"G#3","midi":56,"time":"446.69","velocity":0.4409448818897638,"duration":"0.07"},{"name":"C5","midi":72,"time":"446.69","velocity":0.30708661417322836,"duration":"0.02"},{"name":"C#3","midi":49,"time":"446.70","velocity":0.49606299212598426,"duration":"0.02"},{"name":"B4","midi":71,"time":"446.70","velocity":0.3858267716535433,"duration":"0.08"},{"name":"D#5","midi":75,"time":"446.70","velocity":0.25984251968503935,"duration":"0.03"},{"name":"F5","midi":77,"time":"446.70","velocity":0.31496062992125984,"duration":"0.06"},{"name":"D6","midi":86,"time":"446.70","velocity":0.23622047244094488,"duration":"0.05"},{"name":"C#6","midi":85,"time":"446.71","velocity":0.2440944881889764,"duration":"0.07"},{"name":"F#6","midi":90,"time":"446.71","velocity":0.2755905511811024,"duration":"0.26"},{"name":"G5","midi":79,"time":"446.72","velocity":0.25984251968503935,"duration":"0.03"},{"name":"C#5","midi":73,"time":"446.73","velocity":0.3937007874015748,"duration":"0.16"},{"name":"E5","midi":76,"time":"446.73","velocity":0.3464566929133858,"duration":"0.10"},{"name":"A4","midi":69,"time":"446.74","velocity":0.48031496062992124,"duration":"0.05"},{"name":"C#3","midi":49,"time":"446.76","velocity":0.4881889763779528,"duration":"0.05"},{"name":"G6","midi":91,"time":"446.76","velocity":0.18110236220472442,"duration":"0.06"},{"name":"G#3","midi":56,"time":"446.78","velocity":0.4409448818897638,"duration":"0.05"},{"name":"C6","midi":84,"time":"446.78","velocity":0.2125984251968504,"duration":"0.12"},{"name":"F7","midi":101,"time":"446.78","velocity":0.2047244094488189,"duration":"0.15"},{"name":"B4","midi":71,"time":"446.79","velocity":0.31496062992125984,"duration":"0.07"},{"name":"C#4","midi":61,"time":"446.80","velocity":0.3700787401574803,"duration":"0.13"},{"name":"A4","midi":69,"time":"446.80","velocity":0.49606299212598426,"duration":"0.09"},{"name":"D6","midi":86,"time":"446.80","velocity":0.15748031496062992,"duration":"0.06"},{"name":"C#3","midi":49,"time":"446.81","velocity":0.5433070866141733,"duration":"0.10"},{"name":"D#6","midi":87,"time":"446.83","velocity":0.5118110236220472,"duration":"0.95"},{"name":"A#5","midi":82,"time":"446.84","velocity":0.33858267716535434,"duration":"0.06"},{"name":"C#7","midi":97,"time":"446.84","velocity":0.4015748031496063,"duration":"0.30"},{"name":"D#5","midi":75,"time":"446.85","velocity":0.33070866141732286,"duration":"0.12"},{"name":"F5","midi":77,"time":"446.85","velocity":0.25196850393700787,"duration":"0.03"},{"name":"G#3","midi":56,"time":"446.87","velocity":0.3700787401574803,"duration":"0.02"},{"name":"F#5","midi":78,"time":"446.87","velocity":0.29133858267716534,"duration":"0.08"},{"name":"E4","midi":64,"time":"446.88","velocity":0.3543307086614173,"duration":"0.05"},{"name":"B4","midi":71,"time":"446.88","velocity":0.2992125984251969,"duration":"0.09"},{"name":"D6","midi":86,"time":"446.88","velocity":0.31496062992125984,"duration":"0.29"},{"name":"G3","midi":55,"time":"446.90","velocity":0.3464566929133858,"duration":"0.02"},{"name":"G#4","midi":68,"time":"446.90","velocity":0.6456692913385826,"duration":"0.30"},{"name":"B5","midi":83,"time":"446.90","velocity":0.3779527559055118,"duration":"0.08"},{"name":"A5","midi":81,"time":"446.91","velocity":0.49606299212598426,"duration":"0.06"},{"name":"C#5","midi":73,"time":"446.92","velocity":0.3937007874015748,"duration":"0.10"},{"name":"G6","midi":91,"time":"446.92","velocity":0.1968503937007874,"duration":"0.15"},{"name":"G3","midi":55,"time":"446.95","velocity":0.49606299212598426,"duration":"0.05"},{"name":"C6","midi":84,"time":"446.95","velocity":0.33070866141732286,"duration":"0.06"},{"name":"F6","midi":89,"time":"446.95","velocity":0.2440944881889764,"duration":"0.03"},{"name":"E5","midi":76,"time":"446.97","velocity":0.2755905511811024,"duration":"0.02"},{"name":"C7","midi":96,"time":"446.97","velocity":0.4409448818897638,"duration":"0.92"},{"name":"D#4","midi":63,"time":"446.98","velocity":0.4566929133858268,"duration":"0.02"},{"name":"A#4","midi":70,"time":"446.98","velocity":0.3700787401574803,"duration":"0.03"},{"name":"A#5","midi":82,"time":"446.98","velocity":0.3700787401574803,"duration":"0.08"},{"name":"F#6","midi":90,"time":"446.98","velocity":0.3228346456692913,"duration":"0.10"},{"name":"A#2","midi":46,"time":"446.99","velocity":0.5118110236220472,"duration":"0.02"},{"name":"F#5","midi":78,"time":"447.00","velocity":0.29133858267716534,"duration":"0.03"},{"name":"E5","midi":76,"time":"447.01","velocity":0.3228346456692913,"duration":"0.02"},{"name":"C5","midi":72,"time":"447.02","velocity":0.3700787401574803,"duration":"0.02"},{"name":"F6","midi":89,"time":"447.02","velocity":0.12598425196850394,"duration":"0.05"},{"name":"G7","midi":103,"time":"447.02","velocity":0.2283464566929134,"duration":"0.05"},{"name":"B2","midi":47,"time":"447.03","velocity":0.5196850393700787,"duration":"0.02"},{"name":"C#4","midi":61,"time":"447.03","velocity":0.30708661417322836,"duration":"0.06"},{"name":"D#5","midi":75,"time":"447.03","velocity":0.23622047244094488,"duration":"0.02"},{"name":"F5","midi":77,"time":"447.03","velocity":0.36220472440944884,"duration":"0.12"},{"name":"B5","midi":83,"time":"447.03","velocity":0.44881889763779526,"duration":"0.34"},{"name":"A6","midi":93,"time":"447.03","velocity":0.1968503937007874,"duration":"0.17"},{"name":"F4","midi":65,"time":"447.05","velocity":0.33858267716535434,"duration":"0.02"},{"name":"B4","midi":71,"time":"447.05","velocity":0.28346456692913385,"duration":"0.05"},{"name":"C#5","midi":73,"time":"447.05","velocity":0.3464566929133858,"duration":"0.05"},{"name":"A5","midi":81,"time":"447.06","velocity":0.4251968503937008,"duration":"0.05"},{"name":"B2","midi":47,"time":"447.07","velocity":0.5118110236220472,"duration":"0.10"},{"name":"E4","midi":64,"time":"447.07","velocity":0.33070866141732286,"duration":"0.05"},{"name":"D#5","midi":75,"time":"447.07","velocity":0.3543307086614173,"duration":"0.13"},{"name":"G6","midi":91,"time":"447.08","velocity":0.28346456692913385,"duration":"0.06"},{"name":"C#6","midi":85,"time":"447.09","velocity":0.2283464566929134,"duration":"0.03"},{"name":"F#6","midi":90,"time":"447.09","velocity":0.33858267716535434,"duration":"0.14"},{"name":"C#5","midi":73,"time":"447.10","velocity":0.3464566929133858,"duration":"0.08"},{"name":"A5","midi":81,"time":"447.12","velocity":0.41732283464566927,"duration":"0.02"},{"name":"E6","midi":88,"time":"447.12","velocity":0.36220472440944884,"duration":"0.62"},{"name":"A#3","midi":58,"time":"447.13","velocity":0.41732283464566927,"duration":"0.03"},{"name":"F3","midi":53,"time":"447.14","velocity":0.4094488188976378,"duration":"0.02"},{"name":"E4","midi":64,"time":"447.14","velocity":0.30708661417322836,"duration":"0.02"},{"name":"B4","midi":71,"time":"447.14","velocity":0.3937007874015748,"duration":"0.21"},{"name":"C#7","midi":97,"time":"447.15","velocity":0.33070866141732286,"duration":"0.53"},{"name":"F7","midi":101,"time":"447.15","velocity":0.2125984251968504,"duration":"0.24"},{"name":"F#5","midi":78,"time":"447.16","velocity":0.2755905511811024,"duration":"0.09"},{"name":"E4","midi":64,"time":"447.17","velocity":0.3779527559055118,"duration":"0.15"},{"name":"C6","midi":84,"time":"447.17","velocity":0.23622047244094488,"duration":"0.07"},{"name":"B2","midi":47,"time":"447.19","velocity":0.5433070866141733,"duration":"0.05"},{"name":"F#3","midi":54,"time":"447.19","velocity":0.4645669291338583,"duration":"0.05"},{"name":"E5","midi":76,"time":"447.19","velocity":0.4645669291338583,"duration":"0.23"},{"name":"D6","midi":86,"time":"447.19","velocity":0.28346456692913385,"duration":"0.12"},{"name":"G#4","midi":68,"time":"447.21","velocity":0.5118110236220472,"duration":"0.14"},{"name":"C#5","midi":73,"time":"447.21","velocity":0.2755905511811024,"duration":"0.08"},{"name":"D#5","midi":75,"time":"447.21","velocity":0.29133858267716534,"duration":"0.02"},{"name":"B1","midi":35,"time":"447.22","velocity":0.33858267716535434,"duration":"0.02"},{"name":"F6","midi":89,"time":"447.23","velocity":0.10236220472440945,"duration":"0.06"},{"name":"G6","midi":91,"time":"447.23","velocity":0.2283464566929134,"duration":"0.06"},{"name":"A6","midi":93,"time":"447.23","velocity":0.15748031496062992,"duration":"0.03"},{"name":"B2","midi":47,"time":"447.24","velocity":0.5669291338582677,"duration":"0.07"},{"name":"A#3","midi":58,"time":"447.24","velocity":0.3228346456692913,"duration":"0.02"},{"name":"A5","midi":81,"time":"447.24","velocity":0.3543307086614173,"duration":"0.06"},{"name":"F#3","midi":54,"time":"447.27","velocity":0.3700787401574803,"duration":"0.02"},{"name":"F#5","midi":78,"time":"447.27","velocity":0.2283464566929134,"duration":"0.02"},{"name":"G#5","midi":80,"time":"447.27","velocity":0.5275590551181102,"duration":"0.12"},{"name":"A#6","midi":94,"time":"447.27","velocity":0.25196850393700787,"duration":"0.08"},{"name":"F#6","midi":90,"time":"447.29","velocity":0.2204724409448819,"duration":"0.07"},{"name":"C#6","midi":85,"time":"447.30","velocity":0.2283464566929134,"duration":"0.02"},{"name":"G6","midi":91,"time":"447.30","velocity":0.2755905511811024,"duration":"0.12"},{"name":"C#2","midi":37,"time":"447.31","velocity":0.3228346456692913,"duration":"0.02"},{"name":"C3","midi":48,"time":"447.31","velocity":0.5354330708661418,"duration":"0.02"},{"name":"A#5","midi":82,"time":"447.31","velocity":0.33070866141732286,"duration":"0.07"},{"name":"A#3","midi":58,"time":"447.33","velocity":0.30708661417322836,"duration":"0.02"},{"name":"D6","midi":86,"time":"447.33","velocity":0.2677165354330709,"duration":"0.03"},{"name":"F4","midi":65,"time":"447.34","velocity":0.30708661417322836,"duration":"0.02"},{"name":"C6","midi":84,"time":"447.34","velocity":0.23622047244094488,"duration":"0.05"},{"name":"A#2","midi":46,"time":"447.35","velocity":0.6062992125984252,"duration":"0.01"},{"name":"C#4","midi":61,"time":"447.35","velocity":0.4015748031496063,"duration":"0.05"},{"name":"G4","midi":67,"time":"447.35","velocity":0.3700787401574803,"duration":"0.02"},{"name":"F6","midi":89,"time":"447.35","velocity":0.11811023622047244,"duration":"0.05"},{"name":"F2","midi":41,"time":"447.36","velocity":0.6456692913385826,"duration":"0.01"},{"name":"F#4","midi":66,"time":"447.36","velocity":0.3543307086614173,"duration":"0.02"},{"name":"A4","midi":69,"time":"447.36","velocity":0.4251968503937008,"duration":"0.02"},{"name":"G2","midi":43,"time":"447.37","velocity":0.5590551181102362,"duration":"0.01"},{"name":"G#3","midi":56,"time":"447.37","velocity":0.4251968503937008,"duration":"0.02"},{"name":"G5","midi":79,"time":"447.37","velocity":0.4566929133858268,"duration":"0.02"},{"name":"D6","midi":86,"time":"447.37","velocity":0.1968503937007874,"duration":"0.06"},{"name":"F#1","midi":30,"time":"447.38","velocity":0.5511811023622047,"duration":"0.01"},{"name":"C3","midi":48,"time":"447.38","velocity":0.5984251968503937,"duration":"0.01"},{"name":"G#4","midi":68,"time":"447.38","velocity":0.4881889763779528,"duration":"0.19"},{"name":"B5","midi":83,"time":"447.38","velocity":0.4566929133858268,"duration":"0.19"},{"name":"E1","midi":28,"time":"447.40","velocity":0.5984251968503937,"duration":"0.01"},{"name":"C#3","midi":49,"time":"447.40","velocity":0.5511811023622047,"duration":"0.03"},{"name":"E4","midi":64,"time":"447.40","velocity":0.4015748031496063,"duration":"0.03"},{"name":"C#5","midi":73,"time":"447.40","velocity":0.36220472440944884,"duration":"0.06"},{"name":"G#5","midi":80,"time":"447.40","velocity":0.5433070866141733,"duration":"0.35"},{"name":"A#6","midi":94,"time":"447.40","velocity":0.14173228346456693,"duration":"0.03"},{"name":"F1","midi":29,"time":"447.41","velocity":0.6141732283464567,"duration":"0.01"},{"name":"G#3","midi":56,"time":"447.41","velocity":0.44881889763779526,"duration":"0.02"},{"name":"B4","midi":71,"time":"447.41","velocity":0.25984251968503935,"duration":"0.02"},{"name":"F5","midi":77,"time":"447.41","velocity":0.36220472440944884,"duration":"0.02"},{"name":"F#6","midi":90,"time":"447.41","velocity":0.25984251968503935,"duration":"0.09"},{"name":"A#1","midi":34,"time":"447.42","velocity":0.5433070866141733,"duration":"0.01"},{"name":"A5","midi":81,"time":"447.42","velocity":0.2440944881889764,"duration":"0.03"},{"name":"F7","midi":101,"time":"447.42","velocity":0.2440944881889764,"duration":"0.43"},{"name":"E5","midi":76,"time":"447.43","velocity":0.4566929133858268,"duration":"0.14"},{"name":"C#3","midi":49,"time":"447.44","velocity":0.4409448818897638,"duration":"0.02"},{"name":"G#3","midi":56,"time":"447.44","velocity":0.4645669291338583,"duration":"0.15"},{"name":"E4","midi":64,"time":"447.44","velocity":0.30708661417322836,"duration":"0.02"},{"name":"G5","midi":79,"time":"447.44","velocity":0.31496062992125984,"duration":"0.06"},{"name":"A#6","midi":94,"time":"447.44","velocity":0.3464566929133858,"duration":"0.93"},{"name":"C5","midi":72,"time":"447.45","velocity":0.33858267716535434,"duration":"0.02"},{"name":"G7","midi":103,"time":"447.45","velocity":0.1889763779527559,"duration":"0.08"},{"name":"C#4","midi":61,"time":"447.47","velocity":0.16535433070866143,"duration":"0.05"},{"name":"F4","midi":65,"time":"447.47","velocity":0.30708661417322836,"duration":"0.02"},{"name":"B4","midi":71,"time":"447.47","velocity":0.4251968503937008,"duration":"0.09"},{"name":"D6","midi":86,"time":"447.47","velocity":0.25196850393700787,"duration":"0.02"},{"name":"C3","midi":48,"time":"447.48","velocity":0.49606299212598426,"duration":"0.02"},{"name":"C#5","midi":73,"time":"447.48","velocity":0.25196850393700787,"duration":"0.07"},{"name":"A#5","midi":82,"time":"447.48","velocity":0.3228346456692913,"duration":"0.07"},{"name":"A6","midi":93,"time":"447.48","velocity":0.2125984251968504,"duration":"0.22"},{"name":"C1","midi":24,"time":"447.51","velocity":0.31496062992125984,"duration":"0.02"},{"name":"D#4","midi":63,"time":"447.51","velocity":0.30708661417322836,"duration":"0.03"},{"name":"A5","midi":81,"time":"447.51","velocity":0.30708661417322836,"duration":"0.03"},{"name":"F#5","midi":78,"time":"447.52","velocity":0.3228346456692913,"duration":"0.02"},{"name":"F1","midi":29,"time":"447.53","velocity":0.4015748031496063,"duration":"0.02"},{"name":"C#4","midi":61,"time":"447.53","velocity":0.33858267716535434,"duration":"0.07"},{"name":"D6","midi":86,"time":"447.53","velocity":0.25984251968503935,"duration":"0.09"},{"name":"E4","midi":64,"time":"447.55","velocity":0.33858267716535434,"duration":"0.03"},{"name":"D#5","midi":75,"time":"447.55","velocity":0.33070866141732286,"duration":"0.03"},{"name":"A4","midi":69,"time":"447.56","velocity":0.4566929133858268,"duration":"0.10"},{"name":"A#5","midi":82,"time":"447.56","velocity":0.33858267716535434,"duration":"0.06"},{"name":"C5","midi":72,"time":"447.57","velocity":0.3937007874015748,"duration":"0.03"},{"name":"E5","midi":76,"time":"447.58","velocity":0.44881889763779526,"duration":"0.15"},{"name":"C#3","midi":49,"time":"447.59","velocity":0.5433070866141733,"duration":"0.03"},{"name":"E4","midi":64,"time":"447.59","velocity":0.4015748031496063,"duration":"0.02"},{"name":"G5","midi":79,"time":"447.59","velocity":0.3858267716535433,"duration":"0.13"},{"name":"F6","midi":89,"time":"447.59","velocity":0.31496062992125984,"duration":"0.10"},{"name":"G#3","midi":56,"time":"447.60","velocity":0.48031496062992124,"duration":"0.12"},{"name":"B4","midi":71,"time":"447.60","velocity":0.3228346456692913,"duration":"0.03"},{"name":"C#5","midi":73,"time":"447.60","velocity":0.29133858267716534,"duration":"0.12"},{"name":"B5","midi":83,"time":"447.60","velocity":0.44881889763779526,"duration":"0.22"},{"name":"F#6","midi":90,"time":"447.60","velocity":0.28346456692913385,"duration":"0.12"},{"name":"D3","midi":50,"time":"447.63","velocity":0.5354330708661418,"duration":"0.01"},{"name":"E4","midi":64,"time":"447.63","velocity":0.41732283464566927,"duration":"0.08"},{"name":"C3","midi":48,"time":"447.64","velocity":0.5590551181102362,"duration":"0.01"},{"name":"D6","midi":86,"time":"447.64","velocity":0.30708661417322836,"duration":"0.05"},{"name":"C#3","midi":49,"time":"447.65","velocity":0.5826771653543307,"duration":"0.02"},{"name":"D#5","midi":75,"time":"447.65","velocity":0.3858267716535433,"duration":"0.07"},{"name":"C3","midi":48,"time":"447.67","velocity":0.5748031496062992,"duration":"0.01"},{"name":"C#6","midi":85,"time":"447.67","velocity":0.49606299212598426,"duration":"0.55"},{"name":"C#3","midi":49,"time":"447.69","velocity":0.5669291338582677,"duration":"0.02"},{"name":"A#5","midi":82,"time":"447.69","velocity":0.33070866141732286,"duration":"0.05"},{"name":"A4","midi":69,"time":"447.70","velocity":0.5118110236220472,"duration":"0.02"},{"name":"B4","midi":71,"time":"447.70","velocity":0.29133858267716534,"duration":"0.02"},{"name":"C3","midi":48,"time":"447.71","velocity":0.48031496062992124,"duration":"0.02"},{"name":"A#3","midi":58,"time":"447.72","velocity":0.3700787401574803,"duration":"0.02"},{"name":"G#4","midi":68,"time":"447.72","velocity":0.4881889763779528,"duration":"0.07"},{"name":"D5","midi":74,"time":"447.72","velocity":0.2755905511811024,"duration":"0.02"},{"name":"F#5","midi":78,"time":"447.72","velocity":0.25984251968503935,"duration":"0.02"},{"name":"F6","midi":89,"time":"447.72","velocity":0.28346456692913385,"duration":"0.13"},{"name":"F2","midi":41,"time":"447.73","velocity":0.6456692913385826,"duration":"0.03"},{"name":"C5","midi":72,"time":"447.73","velocity":0.31496062992125984,"duration":"0.03"},{"name":"F#6","midi":90,"time":"447.73","velocity":0.4566929133858268,"duration":"1.06"},{"name":"E5","midi":76,"time":"447.74","velocity":0.41732283464566927,"duration":"0.08"},{"name":"G5","midi":79,"time":"447.74","velocity":0.5118110236220472,"duration":"0.10"},{"name":"A5","midi":81,"time":"447.74","velocity":0.30708661417322836,"duration":"0.03"},{"name":"F#5","midi":78,"time":"447.76","velocity":0.30708661417322836,"duration":"0.06"},{"name":"G1","midi":31,"time":"447.77","velocity":0.5590551181102362,"duration":"0.01"},{"name":"A3","midi":57,"time":"447.77","velocity":0.3700787401574803,"duration":"0.02"},{"name":"F4","midi":65,"time":"447.77","velocity":0.5984251968503937,"duration":"0.06"},{"name":"D6","midi":86,"time":"447.77","velocity":0.2283464566929134,"duration":"0.05"},{"name":"F#1","midi":30,"time":"447.78","velocity":0.5984251968503937,"duration":"0.02"},{"name":"C#3","midi":49,"time":"447.78","velocity":0.4881889763779528,"duration":"0.03"},{"name":"B4","midi":71,"time":"447.78","velocity":0.29133858267716534,"duration":"0.05"},{"name":"A#5","midi":82,"time":"447.78","velocity":0.2204724409448819,"duration":"0.06"},{"name":"A4","midi":69,"time":"447.79","velocity":0.47244094488188976,"duration":"0.12"},{"name":"D#6","midi":87,"time":"447.79","velocity":0.2125984251968504,"duration":"0.10"},{"name":"D#7","midi":99,"time":"447.79","velocity":0.28346456692913385,"duration":"0.53"},{"name":"C#5","midi":73,"time":"447.80","velocity":0.14960629921259844,"duration":"0.06"},{"name":"D3","midi":50,"time":"447.81","velocity":0.5433070866141733,"duration":"0.12"},{"name":"A3","midi":57,"time":"447.81","velocity":0.5039370078740157,"duration":"0.30"},{"name":"E4","midi":64,"time":"447.83","velocity":0.5590551181102362,"duration":"0.05"},{"name":"D#5","midi":75,"time":"447.83","velocity":0.2677165354330709,"duration":"0.02"},{"name":"F5","midi":77,"time":"447.83","velocity":0.23622047244094488,"duration":"0.02"},{"name":"G#5","midi":80,"time":"447.83","velocity":0.3543307086614173,"duration":"0.07"},{"name":"C6","midi":84,"time":"447.83","velocity":0.2440944881889764,"duration":"0.02"},{"name":"D6","midi":86,"time":"447.84","velocity":0.2204724409448819,"duration":"0.03"},{"name":"F#5","midi":78,"time":"447.85","velocity":0.5669291338582677,"duration":"0.34"},{"name":"B5","midi":83,"time":"447.85","velocity":0.3228346456692913,"duration":"0.08"},{"name":"G6","midi":91,"time":"447.85","velocity":0.15748031496062992,"duration":"0.05"},{"name":"F7","midi":101,"time":"447.86","velocity":0.29133858267716534,"duration":"0.73"},{"name":"F4","midi":65,"time":"447.87","velocity":0.5748031496062992,"duration":"0.07"},{"name":"D7","midi":98,"time":"447.87","velocity":0.25984251968503935,"duration":"0.33"},{"name":"G5","midi":79,"time":"447.90","velocity":0.3464566929133858,"duration":"0.02"},{"name":"C7","midi":96,"time":"447.90","velocity":0.11023622047244094,"duration":"0.06"},{"name":"G#1","midi":32,"time":"447.91","velocity":0.3464566929133858,"duration":"0.02"},{"name":"G#4","midi":68,"time":"447.91","velocity":0.4330708661417323,"duration":"0.02"},{"name":"D#6","midi":87,"time":"447.91","velocity":0.25196850393700787,"duration":"0.08"},{"name":"D6","midi":86,"time":"447.92","velocity":0.25984251968503935,"duration":"0.08"},{"name":"C6","midi":84,"time":"447.93","velocity":0.31496062992125984,"duration":"0.07"},{"name":"D3","midi":50,"time":"447.94","velocity":0.4881889763779528,"duration":"0.05"},{"name":"F#4","midi":66,"time":"447.94","velocity":0.5669291338582677,"duration":"0.12"},{"name":"C5","midi":72,"time":"447.94","velocity":0.2755905511811024,"duration":"0.02"},{"name":"E5","midi":76,"time":"447.94","velocity":0.29133858267716534,"duration":"0.05"},{"name":"F6","midi":89,"time":"447.94","velocity":0.25196850393700787,"duration":"0.13"},{"name":"G6","midi":91,"time":"447.94","velocity":0.23622047244094488,"duration":"0.03"},{"name":"G#5","midi":80,"time":"447.95","velocity":0.3228346456692913,"duration":"0.10"},{"name":"A#5","midi":82,"time":"447.95","velocity":0.2440944881889764,"duration":"0.02"},{"name":"C#5","midi":73,"time":"447.97","velocity":0.30708661417322836,"duration":"0.14"},{"name":"A6","midi":93,"time":"447.98","velocity":0.1889763779527559,"duration":"0.10"},{"name":"B5","midi":83,"time":"447.99","velocity":0.36220472440944884,"duration":"0.02"},{"name":"G6","midi":91,"time":"448.00","velocity":0.2204724409448819,"duration":"0.09"},{"name":"C6","midi":84,"time":"448.01","velocity":0.33070866141732286,"duration":"0.12"},{"name":"D#6","midi":87,"time":"448.01","velocity":0.3228346456692913,"duration":"0.06"},{"name":"E5","midi":76,"time":"448.02","velocity":0.28346456692913385,"duration":"0.02"},{"name":"A2","midi":45,"time":"448.05","velocity":0.47244094488188976,"duration":"0.02"},{"name":"B4","midi":71,"time":"448.05","velocity":0.25196850393700787,"duration":"0.03"},{"name":"D#5","midi":75,"time":"448.05","velocity":0.29133858267716534,"duration":"0.02"},{"name":"B5","midi":83,"time":"448.05","velocity":0.25984251968503935,"duration":"0.16"},{"name":"D3","midi":50,"time":"448.06","velocity":0.5039370078740157,"duration":"0.03"},{"name":"F5","midi":77,"time":"448.06","velocity":0.31496062992125984,"duration":"0.07"},{"name":"F#4","midi":66,"time":"448.07","velocity":0.6141732283464567,"duration":"0.03"},{"name":"G#5","midi":80,"time":"448.07","velocity":0.29133858267716534,"duration":"0.02"},{"name":"G#4","midi":68,"time":"448.08","velocity":0.3858267716535433,"duration":"0.03"},{"name":"D#6","midi":87,"time":"448.08","velocity":0.1968503937007874,"duration":"0.05"},{"name":"D5","midi":74,"time":"448.09","velocity":0.31496062992125984,"duration":"0.02"},{"name":"E5","midi":76,"time":"448.09","velocity":0.30708661417322836,"duration":"0.05"},{"name":"A5","midi":81,"time":"448.09","velocity":0.30708661417322836,"duration":"0.08"},{"name":"D6","midi":86,"time":"448.09","velocity":0.31496062992125984,"duration":"0.12"},{"name":"A6","midi":93,"time":"448.09","velocity":0.33858267716535434,"duration":"0.33"},{"name":"F4","midi":65,"time":"448.10","velocity":0.6377952755905512,"duration":"0.02"},{"name":"A4","midi":69,"time":"448.12","velocity":0.3543307086614173,"duration":"0.02"},{"name":"B4","midi":71,"time":"448.12","velocity":0.28346456692913385,"duration":"0.02"},{"name":"C#5","midi":73,"time":"448.12","velocity":0.28346456692913385,"duration":"0.06"},{"name":"C3","midi":48,"time":"448.13","velocity":0.5118110236220472,"duration":"0.01"},{"name":"F#4","midi":66,"time":"448.13","velocity":0.5984251968503937,"duration":"0.05"},{"name":"G#5","midi":80,"time":"448.13","velocity":0.33070866141732286,"duration":"0.06"},{"name":"G#3","midi":56,"time":"448.14","velocity":0.4015748031496063,"duration":"0.02"},{"name":"F6","midi":89,"time":"448.14","velocity":0.07874015748031496,"duration":"0.03"},{"name":"G6","midi":91,"time":"448.14","velocity":0.30708661417322836,"duration":"0.12"},{"name":"A4","midi":69,"time":"448.15","velocity":0.4015748031496063,"duration":"0.06"},{"name":"A#5","midi":82,"time":"448.15","velocity":0.16535433070866143,"duration":"0.05"},{"name":"A3","midi":57,"time":"448.16","velocity":0.4409448818897638,"duration":"0.19"},{"name":"F4","midi":65,"time":"448.17","velocity":0.6220472440944882,"duration":"0.03"},{"name":"D5","midi":74,"time":"448.17","velocity":0.3228346456692913,"duration":"0.05"},{"name":"D3","midi":50,"time":"448.19","velocity":0.48031496062992124,"duration":"0.05"},{"name":"C#4","midi":61,"time":"448.19","velocity":0.25984251968503935,"duration":"0.02"},{"name":"G5","midi":79,"time":"448.19","velocity":0.3464566929133858,"duration":"0.02"},{"name":"F6","midi":89,"time":"448.19","velocity":0.2283464566929134,"duration":"0.21"},{"name":"G#6","midi":92,"time":"448.19","velocity":0.2755905511811024,"duration":"0.64"},{"name":"F#4","midi":66,"time":"448.20","velocity":0.5354330708661418,"duration":"0.05"},{"name":"E5","midi":76,"time":"448.20","velocity":0.4015748031496063,"duration":"0.02"},{"name":"G#5","midi":80,"time":"448.20","velocity":0.28346456692913385,"duration":"0.03"},{"name":"C6","midi":84,"time":"448.20","velocity":0.2992125984251969,"duration":"0.07"},{"name":"F#5","midi":78,"time":"448.21","velocity":0.5905511811023622,"duration":"0.23"},{"name":"C#5","midi":73,"time":"448.22","velocity":0.3228346456692913,"duration":"0.10"},{"name":"F5","midi":77,"time":"448.22","velocity":0.28346456692913385,"duration":"0.02"},{"name":"D6","midi":86,"time":"448.22","velocity":0.2992125984251969,"duration":"0.06"},{"name":"A5","midi":81,"time":"448.23","velocity":0.3464566929133858,"duration":"0.23"},{"name":"D3","midi":50,"time":"448.24","velocity":0.4881889763779528,"duration":"0.05"},{"name":"D5","midi":74,"time":"448.24","velocity":0.2677165354330709,"duration":"0.02"},{"name":"E5","midi":76,"time":"448.24","velocity":0.2283464566929134,"duration":"0.02"},{"name":"D#6","midi":87,"time":"448.24","velocity":0.1889763779527559,"duration":"0.08"},{"name":"F#4","midi":66,"time":"448.26","velocity":0.6535433070866141,"duration":"0.24"},{"name":"G#5","midi":80,"time":"448.26","velocity":0.33858267716535434,"duration":"0.05"},{"name":"B5","midi":83,"time":"448.26","velocity":0.29133858267716534,"duration":"0.10"},{"name":"C#4","midi":61,"time":"448.28","velocity":0.3464566929133858,"duration":"0.02"},{"name":"E5","midi":76,"time":"448.28","velocity":0.28346456692913385,"duration":"0.02"},{"name":"C6","midi":84,"time":"448.28","velocity":0.29133858267716534,"duration":"0.03"},{"name":"G6","midi":91,"time":"448.28","velocity":0.2755905511811024,"duration":"0.27"},{"name":"C#3","midi":49,"time":"448.29","velocity":0.5275590551181102,"duration":"0.01"},{"name":"D3","midi":50,"time":"448.30","velocity":0.5354330708661418,"duration":"0.03"},{"name":"D6","midi":86,"time":"448.30","velocity":0.30708661417322836,"duration":"0.07"},{"name":"E6","midi":88,"time":"448.31","velocity":0.2047244094488189,"duration":"0.12"},{"name":"C6","midi":84,"time":"448.33","velocity":0.33858267716535434,"duration":"0.21"},{"name":"D4","midi":62,"time":"448.34","velocity":0.33070866141732286,"duration":"0.02"},{"name":"C5","midi":72,"time":"448.34","velocity":0.2125984251968504,"duration":"0.07"},{"name":"D#6","midi":87,"time":"448.34","velocity":0.1732283464566929,"duration":"0.08"},{"name":"D#7","midi":99,"time":"448.34","velocity":0.28346456692913385,"duration":"0.99"},{"name":"C#6","midi":85,"time":"448.35","velocity":0.3779527559055118,"duration":"0.14"},{"name":"A3","midi":57,"time":"448.36","velocity":0.4566929133858268,"duration":"0.10"},{"name":"E5","midi":76,"time":"448.37","velocity":0.2755905511811024,"duration":"0.07"},{"name":"G#5","midi":80,"time":"448.37","velocity":0.3228346456692913,"duration":"0.02"},{"name":"A2","midi":45,"time":"448.38","velocity":0.4409448818897638,"duration":"0.02"},{"name":"B5","midi":83,"time":"448.38","velocity":0.25984251968503935,"duration":"0.06"},{"name":"D6","midi":86,"time":"448.38","velocity":0.25196850393700787,"duration":"0.05"},{"name":"A#6","midi":94,"time":"448.40","velocity":0.3543307086614173,"duration":"0.31"},{"name":"C#5","midi":73,"time":"448.41","velocity":0.4409448818897638,"duration":"0.10"},{"name":"D3","midi":50,"time":"448.42","velocity":0.5433070866141733,"duration":"0.07"},{"name":"C#4","midi":61,"time":"448.42","velocity":0.25196850393700787,"duration":"0.06"},{"name":"D#6","midi":87,"time":"448.43","velocity":0.2755905511811024,"duration":"0.07"},{"name":"B6","midi":95,"time":"448.43","velocity":0.29133858267716534,"duration":"0.34"},{"name":"G#5","midi":80,"time":"448.44","velocity":0.3700787401574803,"duration":"0.15"},{"name":"A#5","midi":82,"time":"448.44","velocity":0.25196850393700787,"duration":"0.05"},{"name":"E6","midi":88,"time":"448.44","velocity":0.2677165354330709,"duration":"0.33"},{"name":"B4","midi":71,"time":"448.45","velocity":0.47244094488188976,"duration":"0.06"},{"name":"C2","midi":36,"time":"448.48","velocity":0.3779527559055118,"duration":"0.02"},{"name":"G#4","midi":68,"time":"448.48","velocity":0.47244094488188976,"duration":"0.03"},{"name":"E5","midi":76,"time":"448.48","velocity":0.41732283464566927,"duration":"0.06"},{"name":"A5","midi":81,"time":"448.48","velocity":0.29133858267716534,"duration":"0.03"},{"name":"D6","midi":86,"time":"448.48","velocity":0.3228346456692913,"duration":"0.10"},{"name":"E7","midi":100,"time":"448.48","velocity":0.2677165354330709,"duration":"0.24"},{"name":"D#3","midi":51,"time":"448.49","velocity":0.44881889763779526,"duration":"0.02"},{"name":"F6","midi":89,"time":"448.49","velocity":0.2204724409448819,"duration":"0.03"},{"name":"C4","midi":60,"time":"448.50","velocity":0.5039370078740157,"duration":"0.03"},{"name":"F4","midi":65,"time":"448.50","velocity":0.49606299212598426,"duration":"0.02"},{"name":"G5","midi":79,"time":"448.50","velocity":0.36220472440944884,"duration":"0.02"},{"name":"D3","midi":50,"time":"448.51","velocity":0.5511811023622047,"duration":"0.33"},{"name":"A4","midi":69,"time":"448.51","velocity":0.4015748031496063,"duration":"0.05"},{"name":"F#5","midi":78,"time":"448.51","velocity":0.5433070866141733,"duration":"0.19"},{"name":"F#4","midi":66,"time":"448.52","velocity":0.6614173228346457,"duration":"0.58"},{"name":"B4","midi":71,"time":"448.52","velocity":0.3464566929133858,"duration":"0.02"},{"name":"C#5","midi":73,"time":"448.52","velocity":0.4566929133858268,"duration":"0.10"},{"name":"C#2","midi":37,"time":"448.53","velocity":0.36220472440944884,"duration":"0.02"},{"name":"C#6","midi":85,"time":"448.53","velocity":0.4881889763779528,"duration":"1.22"},{"name":"C7","midi":96,"time":"448.53","velocity":0.2047244094488189,"duration":"0.08"},{"name":"D#4","midi":63,"time":"448.55","velocity":0.29133858267716534,"duration":"0.02"},{"name":"B3","midi":59,"time":"448.56","velocity":0.25196850393700787,"duration":"0.03"},{"name":"E5","midi":76,"time":"448.57","velocity":0.3779527559055118,"duration":"0.21"},{"name":"F6","midi":89,"time":"448.57","velocity":0.11023622047244094,"duration":"0.05"},{"name":"A3","midi":57,"time":"448.58","velocity":0.41732283464566927,"duration":"0.09"},{"name":"B5","midi":83,"time":"448.58","velocity":0.1732283464566929,"duration":"0.06"},{"name":"E2","midi":40,"time":"448.60","velocity":0.3779527559055118,"duration":"0.02"},{"name":"F7","midi":101,"time":"448.60","velocity":0.2204724409448819,"duration":"0.49"},{"name":"D6","midi":86,"time":"448.62","velocity":0.1968503937007874,"duration":"0.03"},{"name":"D5","midi":74,"time":"448.63","velocity":0.25196850393700787,"duration":"0.02"},{"name":"C7","midi":96,"time":"448.63","velocity":0.1732283464566929,"duration":"0.21"},{"name":"G#5","midi":80,"time":"448.64","velocity":0.2992125984251969,"duration":"0.10"},{"name":"C#4","midi":61,"time":"448.65","velocity":0.28346456692913385,"duration":"0.03"},{"name":"C#5","midi":73,"time":"448.65","velocity":0.4330708661417323,"duration":"0.33"},{"name":"B5","midi":83,"time":"448.65","velocity":0.3700787401574803,"duration":"0.42"},{"name":"D6","midi":86,"time":"448.66","velocity":0.23622047244094488,"duration":"0.06"},{"name":"D#6","midi":87,"time":"448.66","velocity":0.14960629921259844,"duration":"0.06"},{"name":"G6","midi":91,"time":"448.66","velocity":0.2677165354330709,"duration":"0.06"},{"name":"A3","midi":57,"time":"448.69","velocity":0.3543307086614173,"duration":"0.10"},{"name":"C#4","midi":61,"time":"448.70","velocity":0.2677165354330709,"duration":"0.02"},{"name":"D7","midi":98,"time":"448.72","velocity":0.31496062992125984,"duration":"0.97"},{"name":"D#6","midi":87,"time":"448.73","velocity":0.2283464566929134,"duration":"0.16"},{"name":"A#6","midi":94,"time":"448.73","velocity":0.3858267716535433,"duration":"0.17"},{"name":"E7","midi":100,"time":"448.73","velocity":0.3228346456692913,"duration":"0.79"},{"name":"G#4","midi":68,"time":"448.74","velocity":0.3779527559055118,"duration":"0.02"},{"name":"G6","midi":91,"time":"448.74","velocity":0.1968503937007874,"duration":"0.07"},{"name":"A4","midi":69,"time":"448.77","velocity":0.4015748031496063,"duration":"0.06"},{"name":"G#5","midi":80,"time":"448.77","velocity":0.25984251968503935,"duration":"0.02"},{"name":"C6","midi":84,"time":"448.77","velocity":0.14173228346456693,"duration":"0.03"},{"name":"C4","midi":60,"time":"448.79","velocity":0.25196850393700787,"duration":"0.02"},{"name":"E6","midi":88,"time":"448.79","velocity":0.41732283464566927,"duration":"0.67"},{"name":"F6","midi":89,"time":"448.79","velocity":0.23622047244094488,"duration":"0.02"},{"name":"B4","midi":71,"time":"448.81","velocity":0.2755905511811024,"duration":"0.05"},{"name":"G#5","midi":80,"time":"448.81","velocity":0.36220472440944884,"duration":"0.09"},{"name":"G1","midi":31,"time":"448.83","velocity":0.31496062992125984,"duration":"0.02"},{"name":"F2","midi":41,"time":"448.83","velocity":0.33070866141732286,"duration":"0.02"},{"name":"A3","midi":57,"time":"448.83","velocity":0.3543307086614173,"duration":"0.03"},{"name":"E5","midi":76,"time":"448.83","velocity":0.44881889763779526,"duration":"0.36"},{"name":"D3","midi":50,"time":"448.85","velocity":0.5354330708661418,"duration":"0.02"},{"name":"G#6","midi":92,"time":"448.85","velocity":0.3937007874015748,"duration":"0.53"},{"name":"A#4","midi":70,"time":"448.86","velocity":0.2440944881889764,"duration":"0.03"},{"name":"C7","midi":96,"time":"448.86","velocity":0.1732283464566929,"duration":"0.05"},{"name":"A3","midi":57,"time":"448.87","velocity":0.33070866141732286,"duration":"0.02"},{"name":"G7","midi":103,"time":"448.87","velocity":0.1968503937007874,"duration":"0.08"},{"name":"A6","midi":93,"time":"448.88","velocity":0.31496062992125984,"duration":"0.60"},{"name":"D3","midi":50,"time":"448.90","velocity":0.5196850393700787,"duration":"0.01"},{"name":"A5","midi":81,"time":"448.90","velocity":0.4015748031496063,"duration":"0.19"},{"name":"F6","midi":89,"time":"448.90","velocity":0.18110236220472442,"duration":"0.03"},{"name":"C#3","midi":49,"time":"448.91","velocity":0.5354330708661418,"duration":"0.01"},{"name":"A#4","midi":70,"time":"448.91","velocity":0.2677165354330709,"duration":"0.03"},{"name":"D#6","midi":87,"time":"448.91","velocity":0.13385826771653545,"duration":"0.03"},{"name":"G6","midi":91,"time":"448.91","velocity":0.2755905511811024,"duration":"0.12"},{"name":"D3","midi":50,"time":"448.92","velocity":0.5590551181102362,"duration":"0.08"},{"name":"C7","midi":96,"time":"448.92","velocity":0.18110236220472442,"duration":"0.03"},{"name":"A3","midi":57,"time":"448.93","velocity":0.3858267716535433,"duration":"0.09"},{"name":"A#6","midi":94,"time":"448.93","velocity":0.25196850393700787,"duration":"0.15"},{"name":"F5","midi":77,"time":"448.94","velocity":0.5354330708661418,"duration":"0.01"},{"name":"C6","midi":84,"time":"448.95","velocity":0.23622047244094488,"duration":"0.02"},{"name":"G1","midi":31,"time":"448.98","velocity":0.31496062992125984,"duration":"0.02"},{"name":"B4","midi":71,"time":"448.98","velocity":0.23622047244094488,"duration":"0.02"},{"name":"G#5","midi":80,"time":"448.99","velocity":0.2755905511811024,"duration":"0.06"},{"name":"D#6","midi":87,"time":"448.99","velocity":0.1732283464566929,"duration":"0.08"},{"name":"F6","midi":89,"time":"448.99","velocity":0.14960629921259844,"duration":"0.13"},{"name":"C7","midi":96,"time":"448.99","velocity":0.23622047244094488,"duration":"0.45"},{"name":"C#3","midi":49,"time":"449.00","velocity":0.5275590551181102,"duration":"0.01"},{"name":"D3","midi":50,"time":"449.01","velocity":0.49606299212598426,"duration":"0.03"},{"name":"C#5","midi":73,"time":"449.01","velocity":0.29133858267716534,"duration":"0.03"},{"name":"D6","midi":86,"time":"449.01","velocity":0.29133858267716534,"duration":"0.16"},{"name":"A4","midi":69,"time":"449.03","velocity":0.44881889763779526,"duration":"0.21"},{"name":"D5","midi":74,"time":"449.03","velocity":0.2755905511811024,"duration":"0.03"},{"name":"C6","midi":84,"time":"449.03","velocity":0.3464566929133858,"duration":"0.05"},{"name":"G6","midi":91,"time":"449.03","velocity":0.25984251968503935,"duration":"0.27"},{"name":"C#3","midi":49,"time":"449.05","velocity":0.5118110236220472,"duration":"0.05"},{"name":"C5","midi":72,"time":"449.05","velocity":0.3228346456692913,"duration":"0.03"},{"name":"A3","midi":57,"time":"449.07","velocity":0.4094488188976378,"duration":"0.08"},{"name":"D4","midi":62,"time":"449.08","velocity":0.3464566929133858,"duration":"0.05"},{"name":"G#5","midi":80,"time":"449.08","velocity":0.3464566929133858,"duration":"0.14"},{"name":"B5","midi":83,"time":"449.08","velocity":0.4409448818897638,"duration":"0.17"},{"name":"D3","midi":50,"time":"449.09","velocity":0.5669291338582677,"duration":"0.13"},{"name":"C5","midi":72,"time":"449.09","velocity":0.28346456692913385,"duration":"0.05"},{"name":"D#6","midi":87,"time":"449.09","velocity":0.1968503937007874,"duration":"0.05"},{"name":"A#6","midi":94,"time":"449.09","velocity":0.25196850393700787,"duration":"0.19"},{"name":"F7","midi":101,"time":"449.10","velocity":0.30708661417322836,"duration":"1.33"},{"name":"F4","midi":65,"time":"449.12","velocity":0.3464566929133858,"duration":"0.02"},{"name":"F#4","midi":66,"time":"449.14","velocity":0.6141732283464567,"duration":"0.74"},{"name":"A3","midi":57,"time":"449.16","velocity":0.2755905511811024,"duration":"0.02"},{"name":"C#5","midi":73,"time":"449.19","velocity":0.33858267716535434,"duration":"0.13"},{"name":"D#6","midi":87,"time":"449.19","velocity":0.1889763779527559,"duration":"0.03"},{"name":"F6","midi":89,"time":"449.19","velocity":0.14960629921259844,"duration":"0.03"},{"name":"A3","midi":57,"time":"449.20","velocity":0.3779527559055118,"duration":"0.02"},{"name":"D6","midi":86,"time":"449.21","velocity":0.2440944881889764,"duration":"0.05"},{"name":"C3","midi":48,"time":"449.22","velocity":0.5511811023622047,"duration":"0.01"},{"name":"D#5","midi":75,"time":"449.22","velocity":0.3700787401574803,"duration":"0.05"},{"name":"E2","midi":40,"time":"449.23","velocity":0.6299212598425197,"duration":"0.01"},{"name":"D#4","midi":63,"time":"449.23","velocity":0.33070866141732286,"duration":"0.02"},{"name":"C#2","midi":37,"time":"449.24","velocity":0.5590551181102362,"duration":"0.01"},{"name":"G#2","midi":44,"time":"449.24","velocity":0.5748031496062992,"duration":"0.01"},{"name":"A#5","midi":82,"time":"449.24","velocity":0.18110236220472442,"duration":"0.05"},{"name":"D#3","midi":51,"time":"449.26","velocity":0.5039370078740157,"duration":"0.02"},{"name":"F6","midi":89,"time":"449.26","velocity":0.2047244094488189,"duration":"0.07"},{"name":"G1","midi":31,"time":"449.27","velocity":0.5590551181102362,"duration":"0.01"},{"name":"A3","midi":57,"time":"449.27","velocity":0.41732283464566927,"duration":"0.06"},{"name":"F#1","midi":30,"time":"449.28","velocity":0.5905511811023622,"duration":"0.01"},{"name":"D3","midi":50,"time":"449.28","velocity":0.6062992125984252,"duration":"0.10"},{"name":"G#4","midi":68,"time":"449.28","velocity":0.3700787401574803,"duration":"0.03"},{"name":"B5","midi":83,"time":"449.28","velocity":0.1732283464566929,"duration":"0.03"},{"name":"B1","midi":35,"time":"449.29","velocity":0.5669291338582677,"duration":"0.01"},{"name":"E5","midi":76,"time":"449.29","velocity":0.31496062992125984,"duration":"0.02"},{"name":"C6","midi":84,"time":"449.29","velocity":0.28346456692913385,"duration":"0.10"},{"name":"A#6","midi":94,"time":"449.29","velocity":0.3858267716535433,"duration":"1.14"},{"name":"D5","midi":74,"time":"449.30","velocity":0.29133858267716534,"duration":"0.02"},{"name":"G7","midi":103,"time":"449.30","velocity":0.16535433070866143,"duration":"0.15"},{"name":"D#4","midi":63,"time":"449.31","velocity":0.2440944881889764,"duration":"0.02"},{"name":"C#5","midi":73,"time":"449.33","velocity":0.3543307086614173,"duration":"0.09"},{"name":"B6","midi":95,"time":"449.33","velocity":0.25984251968503935,"duration":"0.31"},{"name":"A4","midi":69,"time":"449.34","velocity":0.28346456692913385,"duration":"0.05"},{"name":"E5","midi":76,"time":"449.34","velocity":0.3464566929133858,"duration":"0.05"},{"name":"C#4","midi":61,"time":"449.35","velocity":0.2992125984251969,"duration":"0.02"},{"name":"D#7","midi":99,"time":"449.35","velocity":0.33070866141732286,"duration":"2.07"},{"name":"A3","midi":57,"time":"449.36","velocity":0.4094488188976378,"duration":"0.10"},{"name":"B4","midi":71,"time":"449.36","velocity":0.2677165354330709,"duration":"0.05"},{"name":"D#6","midi":87,"time":"449.36","velocity":0.2125984251968504,"duration":"0.07"},{"name":"G#5","midi":80,"time":"449.37","velocity":0.3228346456692913,"duration":"0.09"},{"name":"C#3","midi":49,"time":"449.38","velocity":0.44881889763779526,"duration":"0.02"},{"name":"D#5","midi":75,"time":"449.38","velocity":0.2755905511811024,"duration":"0.03"},{"name":"G6","midi":91,"time":"449.38","velocity":0.2204724409448819,"duration":"0.07"},{"name":"D3","midi":50,"time":"449.41","velocity":0.5511811023622047,"duration":"0.21"},{"name":"C#4","midi":61,"time":"449.41","velocity":0.2755905511811024,"duration":"0.03"},{"name":"C6","midi":84,"time":"449.41","velocity":0.2440944881889764,"duration":"0.03"},{"name":"D5","midi":74,"time":"449.42","velocity":0.3228346456692913,"duration":"0.06"},{"name":"E5","midi":76,"time":"449.43","velocity":0.30708661417322836,"duration":"0.09"},{"name":"B5","midi":83,"time":"449.43","velocity":0.29133858267716534,"duration":"0.09"},{"name":"C5","midi":72,"time":"449.44","velocity":0.30708661417322836,"duration":"0.07"},{"name":"F6","midi":89,"time":"449.44","velocity":0.12598425196850394,"duration":"0.09"},{"name":"D#6","midi":87,"time":"449.45","velocity":0.2047244094488189,"duration":"0.07"},{"name":"C7","midi":96,"time":"449.45","velocity":0.25984251968503935,"duration":"0.27"},{"name":"G#5","midi":80,"time":"449.48","velocity":0.33858267716535434,"duration":"0.15"},{"name":"G6","midi":91,"time":"449.48","velocity":0.16535433070866143,"duration":"0.03"},{"name":"A3","midi":57,"time":"449.49","velocity":0.3937007874015748,"duration":"0.13"},{"name":"C#5","midi":73,"time":"449.49","velocity":0.25984251968503935,"duration":"0.05"},{"name":"D6","midi":86,"time":"449.49","velocity":0.2283464566929134,"duration":"0.13"},{"name":"D5","midi":74,"time":"449.50","velocity":0.28346456692913385,"duration":"0.05"},{"name":"A6","midi":93,"time":"449.50","velocity":0.4251968503937008,"duration":"1.76"},{"name":"G7","midi":103,"time":"449.51","velocity":0.13385826771653545,"duration":"0.05"},{"name":"C6","midi":84,"time":"449.52","velocity":0.28346456692913385,"duration":"0.06"},{"name":"C#5","midi":73,"time":"449.55","velocity":0.33858267716535434,"duration":"0.05"},{"name":"A#5","midi":82,"time":"449.55","velocity":0.23622047244094488,"duration":"0.02"},{"name":"G6","midi":91,"time":"449.55","velocity":0.2440944881889764,"duration":"0.03"},{"name":"B5","midi":83,"time":"449.56","velocity":0.28346456692913385,"duration":"0.03"},{"name":"D#5","midi":75,"time":"449.58","velocity":0.18110236220472442,"duration":"0.03"},{"name":"E5","midi":76,"time":"449.58","velocity":0.2125984251968504,"duration":"0.03"},{"name":"C5","midi":72,"time":"449.59","velocity":0.25984251968503935,"duration":"0.03"},{"name":"A#5","midi":82,"time":"449.59","velocity":0.31496062992125984,"duration":"0.05"},{"name":"C6","midi":84,"time":"449.59","velocity":0.3464566929133858,"duration":"0.20"},{"name":"G6","midi":91,"time":"449.59","velocity":0.2204724409448819,"duration":"0.06"},{"name":"D#4","midi":63,"time":"449.60","velocity":0.28346456692913385,"duration":"0.02"},{"name":"F6","midi":89,"time":"449.60","velocity":0.14960629921259844,"duration":"0.03"},{"name":"E2","midi":40,"time":"449.62","velocity":0.5905511811023622,"duration":"0.01"},{"name":"D5","midi":74,"time":"449.62","velocity":0.33858267716535434,"duration":"0.03"},{"name":"F2","midi":41,"time":"449.63","velocity":0.5984251968503937,"duration":"0.01"},{"name":"B4","midi":71,"time":"449.63","velocity":0.2755905511811024,"duration":"0.02"},{"name":"G5","midi":79,"time":"449.63","velocity":0.4330708661417323,"duration":"0.02"},{"name":"G2","midi":43,"time":"449.64","velocity":0.5354330708661418,"duration":"0.01"},{"name":"D4","midi":62,"time":"449.64","velocity":0.33858267716535434,"duration":"0.03"},{"name":"G#5","midi":80,"time":"449.64","velocity":0.2677165354330709,"duration":"0.05"},{"name":"G1","midi":31,"time":"449.65","velocity":0.5354330708661418,"duration":"0.02"},{"name":"A4","midi":69,"time":"449.65","velocity":0.23622047244094488,"duration":"0.02"},{"name":"C5","midi":72,"time":"449.65","velocity":0.33070866141732286,"duration":"0.02"},{"name":"D#5","midi":75,"time":"449.65","velocity":0.23622047244094488,"duration":"0.02"},{"name":"D6","midi":86,"time":"449.65","velocity":0.2047244094488189,"duration":"0.06"},{"name":"B6","midi":95,"time":"449.65","velocity":0.2283464566929134,"duration":"0.26"},{"name":"D3","midi":50,"time":"449.66","velocity":0.5196850393700787,"duration":"0.01"},{"name":"B4","midi":71,"time":"449.66","velocity":0.2992125984251969,"duration":"0.03"},{"name":"D#6","midi":87,"time":"449.66","velocity":0.30708661417322836,"duration":"0.42"},{"name":"A1","midi":33,"time":"449.67","velocity":0.5433070866141733,"duration":"0.01"},{"name":"D5","midi":74,"time":"449.67","velocity":0.28346456692913385,"duration":"0.07"},{"name":"A5","midi":81,"time":"449.67","velocity":0.44881889763779526,"duration":"0.31"},{"name":"G6","midi":91,"time":"449.67","velocity":0.2125984251968504,"duration":"0.13"},{"name":"C2","midi":36,"time":"449.69","velocity":0.5118110236220472,"duration":"0.01"},{"name":"A3","midi":57,"time":"449.69","velocity":0.4330708661417323,"duration":"0.07"},{"name":"E6","midi":88,"time":"449.70","velocity":0.28346456692913385,"duration":"0.21"},{"name":"F6","midi":89,"time":"449.70","velocity":0.16535433070866143,"duration":"0.06"},{"name":"D7","midi":98,"time":"449.70","velocity":0.2047244094488189,"duration":"0.09"},{"name":"C#3","midi":49,"time":"449.71","velocity":0.49606299212598426,"duration":"0.03"},{"name":"D4","midi":62,"time":"449.71","velocity":0.29133858267716534,"duration":"0.03"},{"name":"B4","midi":71,"time":"449.71","velocity":0.2755905511811024,"duration":"0.02"},{"name":"C5","midi":72,"time":"449.71","velocity":0.25196850393700787,"duration":"0.02"},{"name":"B5","midi":83,"time":"449.72","velocity":0.30708661417322836,"duration":"0.10"},{"name":"D6","midi":86,"time":"449.72","velocity":0.28346456692913385,"duration":"0.06"},{"name":"C#5","midi":73,"time":"449.73","velocity":0.30708661417322836,"duration":"0.14"},{"name":"E5","midi":76,"time":"449.73","velocity":0.31496062992125984,"duration":"0.08"},{"name":"D3","midi":50,"time":"449.74","velocity":0.5354330708661418,"duration":"0.12"},{"name":"G5","midi":79,"time":"449.74","velocity":0.3779527559055118,"duration":"0.02"},{"name":"G#5","midi":80,"time":"449.74","velocity":0.2992125984251969,"duration":"0.03"},{"name":"A4","midi":69,"time":"449.76","velocity":0.4409448818897638,"duration":"0.21"},{"name":"C#6","midi":85,"time":"449.77","velocity":0.4645669291338583,"duration":"0.22"},{"name":"G#5","midi":80,"time":"449.79","velocity":0.2440944881889764,"duration":"0.02"},{"name":"D6","midi":86,"time":"449.79","velocity":0.2047244094488189,"duration":"0.03"},{"name":"A3","midi":57,"time":"449.80","velocity":0.3700787401574803,"duration":"0.06"},{"name":"D#5","midi":75,"time":"449.80","velocity":0.28346456692913385,"duration":"0.02"},{"name":"G7","midi":103,"time":"449.80","velocity":0.11811023622047244,"duration":"0.03"},{"name":"G6","midi":91,"time":"449.81","velocity":0.18110236220472442,"duration":"0.03"},{"name":"G#6","midi":92,"time":"449.81","velocity":0.14960629921259844,"duration":"0.05"},{"name":"E5","midi":76,"time":"449.83","velocity":0.33070866141732286,"duration":"0.08"},{"name":"A#5","midi":82,"time":"449.83","velocity":0.2440944881889764,"duration":"0.02"},{"name":"C5","midi":72,"time":"449.84","velocity":0.25984251968503935,"duration":"0.02"},{"name":"G#5","midi":80,"time":"449.84","velocity":0.2283464566929134,"duration":"0.02"},{"name":"B5","midi":83,"time":"449.84","velocity":0.30708661417322836,"duration":"0.09"},{"name":"C#3","midi":49,"time":"449.86","velocity":0.5039370078740157,"duration":"0.02"},{"name":"C5","midi":72,"time":"449.87","velocity":0.23622047244094488,"duration":"0.03"},{"name":"C6","midi":84,"time":"449.87","velocity":0.2755905511811024,"duration":"0.08"},{"name":"F6","midi":89,"time":"449.87","velocity":0.15748031496062992,"duration":"0.13"},{"name":"D3","midi":50,"time":"449.88","velocity":0.5196850393700787,"duration":"0.03"},{"name":"G4","midi":67,"time":"449.88","velocity":0.4645669291338583,"duration":"0.02"},{"name":"F#5","midi":78,"time":"449.88","velocity":0.5590551181102362,"duration":"0.35"},{"name":"G#6","midi":92,"time":"449.88","velocity":0.11023622047244094,"duration":"0.03"},{"name":"A3","midi":57,"time":"449.90","velocity":0.4015748031496063,"duration":"0.08"},{"name":"G#5","midi":80,"time":"449.90","velocity":0.36220472440944884,"duration":"0.07"},{"name":"F#4","midi":66,"time":"449.91","velocity":0.6377952755905512,"duration":"1.92"},{"name":"C#5","midi":73,"time":"449.91","velocity":0.28346456692913385,"duration":"0.03"},{"name":"E6","midi":88,"time":"449.92","velocity":0.13385826771653545,"duration":"0.07"},{"name":"D3","midi":50,"time":"449.93","velocity":0.5118110236220472,"duration":"0.05"},{"name":"D6","midi":86,"time":"449.93","velocity":0.2204724409448819,"duration":"0.06"},{"name":"G7","midi":103,"time":"449.93","velocity":0.11811023622047244,"duration":"0.06"},{"name":"E7","midi":100,"time":"449.94","velocity":0.41732283464566927,"duration":"10.07"},{"name":"B4","midi":71,"time":"449.95","velocity":0.36220472440944884,"duration":"0.02"},{"name":"E5","midi":76,"time":"449.95","velocity":0.41732283464566927,"duration":"0.08"},{"name":"C#2","midi":37,"time":"449.97","velocity":0.36220472440944884,"duration":"0.02"},{"name":"G6","midi":91,"time":"449.97","velocity":0.3228346456692913,"duration":"0.12"},{"name":"B6","midi":95,"time":"449.97","velocity":0.29133858267716534,"duration":"0.79"},{"name":"D7","midi":98,"time":"449.97","velocity":0.3228346456692913,"duration":"0.09"},{"name":"E3","midi":52,"time":"449.98","velocity":0.36220472440944884,"duration":"0.02"},{"name":"C4","midi":60,"time":"449.98","velocity":0.5118110236220472,"duration":"0.01"},{"name":"A#4","midi":70,"time":"449.98","velocity":0.5196850393700787,"duration":"0.03"},{"name":"C#5","midi":73,"time":"449.98","velocity":0.3543307086614173,"duration":"0.02"},{"name":"G#5","midi":80,"time":"449.98","velocity":0.3464566929133858,"duration":"0.06"},{"name":"C#4","midi":61,"time":"449.99","velocity":0.5275590551181102,"duration":"0.02"},{"name":"D#5","midi":75,"time":"449.99","velocity":0.3228346456692913,"duration":"0.05"},{"name":"C6","midi":84,"time":"449.99","velocity":0.3779527559055118,"duration":"0.03"},{"name":"B2","midi":47,"time":"450.00","velocity":0.5118110236220472,"duration":"0.01"},{"name":"C#6","midi":85,"time":"450.00","velocity":0.5039370078740157,"duration":"1.17"},{"name":"E6","midi":88,"time":"450.00","velocity":0.4409448818897638,"duration":"1.26"},{"name":"D3","midi":50,"time":"450.01","velocity":0.5433070866141733,"duration":"0.09"},{"name":"A4","midi":69,"time":"450.01","velocity":0.4251968503937008,"duration":"0.02"},{"name":"A5","midi":81,"time":"450.01","velocity":0.6141732283464567,"duration":"0.33"},{"name":"F6","midi":89,"time":"450.01","velocity":0.25196850393700787,"duration":"0.02"},{"name":"C4","midi":60,"time":"450.02","velocity":0.33070866141732286,"duration":"0.02"},{"name":"B4","midi":71,"time":"450.02","velocity":0.36220472440944884,"duration":"0.03"},{"name":"G#4","midi":68,"time":"450.05","velocity":0.4409448818897638,"duration":"0.03"},{"name":"G#6","midi":92,"time":"450.05","velocity":0.28346456692913385,"duration":"0.19"},{"name":"A3","midi":57,"time":"450.06","velocity":0.4251968503937008,"duration":"0.10"},{"name":"C5","midi":72,"time":"450.06","velocity":0.33858267716535434,"duration":"0.02"},{"name":"E5","midi":76,"time":"450.06","velocity":0.4015748031496063,"duration":"0.35"},{"name":"D6","midi":86,"time":"450.06","velocity":0.2440944881889764,"duration":"0.15"},{"name":"D#5","midi":75,"time":"450.07","velocity":0.2755905511811024,"duration":"0.03"},{"name":"B1","midi":35,"time":"450.08","velocity":0.3543307086614173,"duration":"0.02"},{"name":"F6","midi":89,"time":"450.08","velocity":0.18110236220472442,"duration":"0.07"},{"name":"C#4","midi":61,"time":"450.09","velocity":0.2755905511811024,"duration":"0.03"},{"name":"G#5","midi":80,"time":"450.09","velocity":0.5354330708661418,"duration":"0.12"},{"name":"G6","midi":91,"time":"450.09","velocity":0.31496062992125984,"duration":"0.05"},{"name":"C6","midi":84,"time":"450.10","velocity":0.23622047244094488,"duration":"0.07"},{"name":"D3","midi":50,"time":"450.12","velocity":0.5669291338582677,"duration":"0.22"},{"name":"A4","midi":69,"time":"450.12","velocity":0.4251968503937008,"duration":"0.05"},{"name":"C#5","midi":73,"time":"450.12","velocity":0.33858267716535434,"duration":"0.06"},{"name":"C#2","midi":37,"time":"450.14","velocity":0.3228346456692913,"duration":"0.02"},{"name":"D#6","midi":87,"time":"450.16","velocity":0.2283464566929134,"duration":"0.07"},{"name":"A#4","midi":70,"time":"450.17","velocity":0.33070866141732286,"duration":"0.02"},{"name":"A3","midi":57,"time":"450.19","velocity":0.33070866141732286,"duration":"0.02"},{"name":"C#5","midi":73,"time":"450.19","velocity":0.3543307086614173,"duration":"0.22"},{"name":"C6","midi":84,"time":"450.19","velocity":0.2204724409448819,"duration":"0.06"},{"name":"A4","midi":69,"time":"450.20","velocity":0.4566929133858268,"duration":"0.31"},{"name":"F6","midi":89,"time":"450.20","velocity":0.12598425196850394,"duration":"0.05"},{"name":"G6","midi":91,"time":"450.21","velocity":0.2283464566929134,"duration":"0.13"},{"name":"A3","midi":57,"time":"450.22","velocity":0.44881889763779526,"duration":"0.09"},{"name":"C#4","midi":61,"time":"450.22","velocity":0.33070866141732286,"duration":"0.05"},{"name":"G5","midi":79,"time":"450.22","velocity":0.28346456692913385,"duration":"0.06"},{"name":"A#5","midi":82,"time":"450.23","velocity":0.2283464566929134,"duration":"0.05"},{"name":"D6","midi":86,"time":"450.23","velocity":0.1732283464566929,"duration":"0.05"},{"name":"F#6","midi":90,"time":"450.23","velocity":0.2677165354330709,"duration":"0.24"},{"name":"G#6","midi":92,"time":"450.24","velocity":0.3779527559055118,"duration":"0.63"},{"name":"C2","midi":36,"time":"450.26","velocity":0.3937007874015748,"duration":"0.02"},{"name":"D#6","midi":87,"time":"450.26","velocity":0.25984251968503935,"duration":"0.13"},{"name":"C6","midi":84,"time":"450.27","velocity":0.18110236220472442,"duration":"0.06"},{"name":"F6","midi":89,"time":"450.27","velocity":0.09448818897637795,"duration":"0.05"},{"name":"C#4","midi":61,"time":"450.28","velocity":0.1968503937007874,"duration":"0.05"},{"name":"B5","midi":83,"time":"450.29","velocity":0.18110236220472442,"duration":"0.03"},{"name":"C#2","midi":37,"time":"450.31","velocity":0.36220472440944884,"duration":"0.02"},{"name":"G#5","midi":80,"time":"450.34","velocity":0.5118110236220472,"duration":"0.01"},{"name":"B5","midi":83,"time":"450.34","velocity":0.2755905511811024,"duration":"0.06"},{"name":"D7","midi":98,"time":"450.34","velocity":0.23622047244094488,"duration":"0.17"},{"name":"A5","midi":81,"time":"450.35","velocity":0.5984251968503937,"duration":"0.17"},{"name":"A#5","midi":82,"time":"450.35","velocity":0.4330708661417323,"duration":"0.02"},{"name":"G6","midi":91,"time":"450.35","velocity":0.2047244094488189,"duration":"0.05"},{"name":"G1","midi":31,"time":"450.37","velocity":0.30708661417322836,"duration":"0.02"},{"name":"E3","midi":52,"time":"450.37","velocity":0.5354330708661418,"duration":"0.01"},{"name":"D#3","midi":51,"time":"450.38","velocity":0.5826771653543307,"duration":"0.01"},{"name":"D6","midi":86,"time":"450.38","velocity":0.13385826771653545,"duration":"0.03"},{"name":"F2","midi":41,"time":"450.40","velocity":0.4094488188976378,"duration":"0.02"},{"name":"D3","midi":50,"time":"450.40","velocity":0.5669291338582677,"duration":"0.02"},{"name":"D#5","midi":75,"time":"450.40","velocity":0.33858267716535434,"duration":"0.02"},{"name":"B5","midi":83,"time":"450.41","velocity":0.44881889763779526,"duration":"0.52"},{"name":"E5","midi":76,"time":"450.42","velocity":0.41732283464566927,"duration":"0.08"},{"name":"G6","midi":91,"time":"450.42","velocity":0.23622047244094488,"duration":"0.03"},{"name":"D3","midi":50,"time":"450.43","velocity":0.5590551181102362,"duration":"0.20"},{"name":"A3","midi":57,"time":"450.43","velocity":0.2283464566929134,"duration":"0.02"},{"name":"D#6","midi":87,"time":"450.43","velocity":0.11811023622047244,"duration":"0.03"},{"name":"F#1","midi":30,"time":"450.45","velocity":0.28346456692913385,"duration":"0.02"},{"name":"F6","midi":89,"time":"450.45","velocity":0.12598425196850394,"duration":"0.03"},{"name":"A#6","midi":94,"time":"450.45","velocity":0.2755905511811024,"duration":"0.33"},{"name":"G6","midi":91,"time":"450.47","velocity":0.25196850393700787,"duration":"0.40"},{"name":"G7","midi":103,"time":"450.47","velocity":0.31496062992125984,"duration":"0.17"},{"name":"C#4","midi":61,"time":"450.48","velocity":0.2440944881889764,"duration":"0.02"},{"name":"D5","midi":74,"time":"450.48","velocity":0.2992125984251969,"duration":"0.02"},{"name":"A3","midi":57,"time":"450.49","velocity":0.3543307086614173,"duration":"0.21"},{"name":"F6","midi":89,"time":"450.50","velocity":0.11023622047244094,"duration":"0.03"},{"name":"C#5","midi":73,"time":"450.51","velocity":0.33070866141732286,"duration":"0.08"},{"name":"E5","midi":76,"time":"450.51","velocity":0.36220472440944884,"duration":"0.06"},{"name":"A4","midi":69,"time":"450.52","velocity":0.48031496062992124,"duration":"0.28"},{"name":"D#6","midi":87,"time":"450.52","velocity":0.13385826771653545,"duration":"0.05"},{"name":"D5","midi":74,"time":"450.53","velocity":0.28346456692913385,"duration":"0.02"},{"name":"D7","midi":98,"time":"450.53","velocity":0.2755905511811024,"duration":"0.06"},{"name":"F7","midi":101,"time":"450.53","velocity":0.15748031496062992,"duration":"0.07"},{"name":"G#5","midi":80,"time":"450.55","velocity":0.3228346456692913,"duration":"0.03"},{"name":"A#5","midi":82,"time":"450.55","velocity":0.41732283464566927,"duration":"0.02"},{"name":"B4","midi":71,"time":"450.56","velocity":0.28346456692913385,"duration":"0.05"},{"name":"D#5","midi":75,"time":"450.56","velocity":0.2440944881889764,"duration":"0.02"},{"name":"C7","midi":96,"time":"450.56","velocity":0.1889763779527559,"duration":"0.23"},{"name":"A5","midi":81,"time":"450.57","velocity":0.6299212598425197,"duration":"0.52"},{"name":"E5","midi":76,"time":"450.58","velocity":0.4094488188976378,"duration":"0.20"},{"name":"C6","midi":84,"time":"450.62","velocity":0.2440944881889764,"duration":"0.02"},{"name":"D7","midi":98,"time":"450.62","velocity":0.2755905511811024,"duration":"0.37"},{"name":"F7","midi":101,"time":"450.62","velocity":0.28346456692913385,"duration":"0.73"},{"name":"C5","midi":72,"time":"450.63","velocity":0.25196850393700787,"duration":"0.06"},{"name":"G#5","midi":80,"time":"450.64","velocity":0.33858267716535434,"duration":"0.02"},{"name":"C#3","midi":49,"time":"450.65","velocity":0.47244094488188976,"duration":"0.03"},{"name":"D6","midi":86,"time":"450.65","velocity":0.16535433070866143,"duration":"0.07"},{"name":"D#5","midi":75,"time":"450.66","velocity":0.25984251968503935,"duration":"0.02"},{"name":"D3","midi":50,"time":"450.69","velocity":0.5511811023622047,"duration":"0.05"},{"name":"D5","midi":74,"time":"450.69","velocity":0.2440944881889764,"duration":"0.06"},{"name":"C2","midi":36,"time":"450.70","velocity":0.33070866141732286,"duration":"0.02"},{"name":"C4","midi":60,"time":"450.72","velocity":0.3228346456692913,"duration":"0.03"},{"name":"A#2","midi":46,"time":"450.76","velocity":0.5118110236220472,"duration":"0.01"},{"name":"B3","midi":59,"time":"450.76","velocity":0.33858267716535434,"duration":"0.02"},{"name":"A2","midi":45,"time":"450.77","velocity":0.49606299212598426,"duration":"0.02"},{"name":"D4","midi":62,"time":"450.77","velocity":0.36220472440944884,"duration":"0.34"},{"name":"C#5","midi":73,"time":"450.77","velocity":0.30708661417322836,"duration":"0.05"},{"name":"D#6","midi":87,"time":"450.77","velocity":0.1889763779527559,"duration":"0.08"},{"name":"D#5","midi":75,"time":"450.78","velocity":0.33070866141732286,"duration":"0.02"},{"name":"F#1","midi":30,"time":"450.79","velocity":0.5748031496062992,"duration":"0.02"},{"name":"A3","midi":57,"time":"450.79","velocity":0.4409448818897638,"duration":"0.34"},{"name":"E5","midi":76,"time":"450.79","velocity":0.44881889763779526,"duration":"0.31"},{"name":"F6","midi":89,"time":"450.79","velocity":0.2125984251968504,"duration":"0.08"},{"name":"A#6","midi":94,"time":"450.79","velocity":0.3543307086614173,"duration":"0.22"},{"name":"A#4","midi":70,"time":"450.80","velocity":0.3464566929133858,"duration":"0.02"},{"name":"C7","midi":96,"time":"450.80","velocity":0.1732283464566929,"duration":"0.13"},{"name":"A#1","midi":34,"time":"450.81","velocity":0.5590551181102362,"duration":"0.01"},{"name":"C2","midi":36,"time":"450.83","velocity":0.5196850393700787,"duration":"0.02"},{"name":"D3","midi":50,"time":"450.83","velocity":0.5039370078740157,"duration":"0.02"},{"name":"A4","midi":69,"time":"450.83","velocity":0.5039370078740157,"duration":"0.10"},{"name":"D6","midi":86,"time":"450.84","velocity":0.2755905511811024,"duration":"0.10"},{"name":"C#3","midi":49,"time":"450.85","velocity":0.47244094488188976,"duration":"0.02"},{"name":"D3","midi":50,"time":"450.87","velocity":0.5511811023622047,"duration":"0.15"},{"name":"F6","midi":89,"time":"450.88","velocity":0.1732283464566929,"duration":"0.07"},{"name":"A#1","midi":34,"time":"450.90","velocity":0.3543307086614173,"duration":"0.02"},{"name":"D#6","midi":87,"time":"450.90","velocity":0.2204724409448819,"duration":"0.14"},{"name":"G6","midi":91,"time":"450.90","velocity":0.2677165354330709,"duration":"0.27"},{"name":"G#6","midi":92,"time":"450.90","velocity":0.18110236220472442,"duration":"0.03"},{"name":"B4","midi":71,"time":"450.91","velocity":0.2283464566929134,"duration":"0.02"},{"name":"G#1","midi":32,"time":"450.92","velocity":0.3464566929133858,"duration":"0.02"},{"name":"G#6","midi":92,"time":"450.95","velocity":0.2047244094488189,"duration":"0.08"},{"name":"D6","midi":86,"time":"450.97","velocity":0.2047244094488189,"duration":"0.03"},{"name":"C7","midi":96,"time":"450.97","velocity":0.12598425196850394,"duration":"0.07"},{"name":"C#5","midi":73,"time":"450.98","velocity":0.25984251968503935,"duration":"0.05"},{"name":"C6","midi":84,"time":"450.98","velocity":0.2992125984251969,"duration":"0.05"},{"name":"B6","midi":95,"time":"450.99","velocity":0.1968503937007874,"duration":"0.16"},{"name":"A4","midi":69,"time":"451.00","velocity":0.44881889763779526,"duration":"0.10"},{"name":"B5","midi":83,"time":"451.00","velocity":0.2125984251968504,"duration":"0.06"},{"name":"D7","midi":98,"time":"451.00","velocity":0.2047244094488189,"duration":"0.26"},{"name":"F2","midi":41,"time":"451.01","velocity":0.3228346456692913,"duration":"0.02"},{"name":"D6","midi":86,"time":"451.01","velocity":0.2047244094488189,"duration":"0.06"},{"name":"C#3","midi":49,"time":"451.02","velocity":0.49606299212598426,"duration":"0.02"},{"name":"A#6","midi":94,"time":"451.02","velocity":0.3779527559055118,"duration":"0.77"},{"name":"F6","midi":89,"time":"451.03","velocity":0.18110236220472442,"duration":"0.06"},{"name":"D3","midi":50,"time":"451.05","velocity":0.5275590551181102,"duration":"0.03"},{"name":"C6","midi":84,"time":"451.05","velocity":0.29133858267716534,"duration":"0.08"},{"name":"D#6","midi":87,"time":"451.05","velocity":0.13385826771653545,"duration":"0.03"},{"name":"G#6","midi":92,"time":"451.06","velocity":0.25984251968503935,"duration":"0.30"},{"name":"C#5","midi":73,"time":"451.08","velocity":0.2677165354330709,"duration":"0.05"},{"name":"G1","midi":31,"time":"451.09","velocity":0.3228346456692913,"duration":"0.03"},{"name":"D3","midi":50,"time":"451.09","velocity":0.5039370078740157,"duration":"0.03"},{"name":"A5","midi":81,"time":"451.10","velocity":0.5984251968503937,"duration":"0.47"},{"name":"B5","midi":83,"time":"451.10","velocity":0.29133858267716534,"duration":"0.06"},{"name":"D5","midi":74,"time":"451.12","velocity":0.3228346456692913,"duration":"0.05"},{"name":"A1","midi":33,"time":"451.13","velocity":0.36220472440944884,"duration":"0.02"},{"name":"D#3","midi":51,"time":"451.13","velocity":0.5511811023622047,"duration":"0.05"},{"name":"A4","midi":69,"time":"451.13","velocity":0.5669291338582677,"duration":"0.51"},{"name":"D#6","midi":87,"time":"451.13","velocity":0.1889763779527559,"duration":"0.05"},{"name":"E5","midi":76,"time":"451.14","velocity":0.3543307086614173,"duration":"0.10"},{"name":"C6","midi":84,"time":"451.14","velocity":0.29133858267716534,"duration":"0.09"},{"name":"F6","midi":89,"time":"451.14","velocity":0.1968503937007874,"duration":"0.06"},{"name":"F2","midi":41,"time":"451.15","velocity":0.41732283464566927,"duration":"0.02"},{"name":"A3","midi":57,"time":"451.16","velocity":0.31496062992125984,"duration":"0.05"},{"name":"C#5","midi":73,"time":"451.16","velocity":0.30708661417322836,"duration":"0.02"},{"name":"D3","midi":50,"time":"451.17","velocity":0.5669291338582677,"duration":"0.08"},{"name":"C5","midi":72,"time":"451.19","velocity":0.25984251968503935,"duration":"0.02"},{"name":"C#6","midi":85,"time":"451.19","velocity":0.4566929133858268,"duration":"0.33"},{"name":"D#6","midi":87,"time":"451.19","velocity":0.13385826771653545,"duration":"0.03"},{"name":"C#5","midi":73,"time":"451.20","velocity":0.2755905511811024,"duration":"0.02"},{"name":"B6","midi":95,"time":"451.21","velocity":0.23622047244094488,"duration":"0.53"},{"name":"A3","midi":57,"time":"451.22","velocity":0.4015748031496063,"duration":"0.26"},{"name":"D5","midi":74,"time":"451.22","velocity":0.30708661417322836,"duration":"0.07"},{"name":"B5","midi":83,"time":"451.22","velocity":0.2283464566929134,"duration":"0.02"},{"name":"G6","midi":91,"time":"451.23","velocity":0.1889763779527559,"duration":"0.13"},{"name":"C6","midi":84,"time":"451.24","velocity":0.2677165354330709,"duration":"0.05"},{"name":"D4","midi":62,"time":"451.26","velocity":0.2677165354330709,"duration":"0.06"},{"name":"B5","midi":83,"time":"451.26","velocity":0.2204724409448819,"duration":"0.06"},{"name":"D3","midi":50,"time":"451.27","velocity":0.4645669291338583,"duration":"0.02"},{"name":"E6","midi":88,"time":"451.27","velocity":0.3779527559055118,"duration":"0.34"},{"name":"C#5","midi":73,"time":"451.28","velocity":0.33858267716535434,"duration":"0.12"},{"name":"E5","midi":76,"time":"451.28","velocity":0.4409448818897638,"duration":"0.10"},{"name":"D#6","midi":87,"time":"451.28","velocity":0.15748031496062992,"duration":"0.03"},{"name":"D7","midi":98,"time":"451.28","velocity":0.29133858267716534,"duration":"0.66"},{"name":"C#3","midi":49,"time":"451.29","velocity":0.4881889763779528,"duration":"0.02"},{"name":"C6","midi":84,"time":"451.30","velocity":0.2755905511811024,"duration":"0.02"},{"name":"D3","midi":50,"time":"451.31","velocity":0.5354330708661418,"duration":"0.14"},{"name":"B5","midi":83,"time":"451.34","velocity":0.1968503937007874,"duration":"0.03"},{"name":"F2","midi":41,"time":"451.40","velocity":0.3937007874015748,"duration":"0.02"},{"name":"C5","midi":72,"time":"451.40","velocity":0.2992125984251969,"duration":"0.02"},{"name":"D5","midi":74,"time":"451.40","velocity":0.2992125984251969,"duration":"0.03"},{"name":"C7","midi":96,"time":"451.40","velocity":0.12598425196850394,"duration":"0.05"},{"name":"G6","midi":91,"time":"451.41","velocity":0.11811023622047244,"duration":"0.06"},{"name":"G#6","midi":92,"time":"451.41","velocity":0.1732283464566929,"duration":"0.07"},{"name":"F7","midi":101,"time":"451.41","velocity":0.2283464566929134,"duration":"0.41"},{"name":"B5","midi":83,"time":"451.42","velocity":0.2440944881889764,"duration":"0.06"},{"name":"C#5","midi":73,"time":"451.43","velocity":0.2283464566929134,"duration":"0.05"},{"name":"E5","midi":76,"time":"451.43","velocity":0.2677165354330709,"duration":"0.03"},{"name":"D#7","midi":99,"time":"451.43","velocity":0.31496062992125984,"duration":"0.93"},{"name":"A#5","midi":82,"time":"451.44","velocity":0.2283464566929134,"duration":"0.03"},{"name":"D#3","midi":51,"time":"451.45","velocity":0.5196850393700787,"duration":"0.02"},{"name":"D5","midi":74,"time":"451.45","velocity":0.33070866141732286,"duration":"0.03"},{"name":"F6","midi":89,"time":"451.45","velocity":0.2283464566929134,"duration":"0.02"},{"name":"C7","midi":96,"time":"451.45","velocity":0.3858267716535433,"duration":"0.52"},{"name":"F5","midi":77,"time":"451.47","velocity":0.3464566929133858,"duration":"0.02"},{"name":"G#5","midi":80,"time":"451.47","velocity":0.3779527559055118,"duration":"0.05"},{"name":"D#6","midi":87,"time":"451.47","velocity":0.48031496062992124,"duration":"1.31"},{"name":"G7","midi":103,"time":"451.47","velocity":0.28346456692913385,"duration":"0.26"},{"name":"B4","midi":71,"time":"451.48","velocity":0.3858267716535433,"duration":"0.02"},{"name":"C6","midi":84,"time":"451.48","velocity":0.31496062992125984,"duration":"0.07"},{"name":"G6","midi":91,"time":"451.48","velocity":0.25984251968503935,"duration":"0.13"},{"name":"B3","midi":59,"time":"451.49","velocity":0.41732283464566927,"duration":"0.02"},{"name":"E5","midi":76,"time":"451.49","velocity":0.4251968503937008,"duration":"0.02"},{"name":"F6","midi":89,"time":"451.49","velocity":0.23622047244094488,"duration":"0.03"},{"name":"E2","midi":40,"time":"451.50","velocity":0.47244094488188976,"duration":"0.02"},{"name":"G3","midi":55,"time":"451.50","velocity":0.47244094488188976,"duration":"0.02"},{"name":"C5","midi":72,"time":"451.50","velocity":0.4015748031496063,"duration":"0.03"},{"name":"D6","midi":86,"time":"451.50","velocity":0.28346456692913385,"duration":"0.06"},{"name":"C#5","midi":73,"time":"451.51","velocity":0.33858267716535434,"duration":"0.06"},{"name":"G5","midi":79,"time":"451.51","velocity":0.2677165354330709,"duration":"0.02"},{"name":"G#6","midi":92,"time":"451.51","velocity":0.36220472440944884,"duration":"0.69"},{"name":"D3","midi":50,"time":"451.52","velocity":0.47244094488188976,"duration":"0.02"},{"name":"A#3","midi":58,"time":"451.52","velocity":0.4094488188976378,"duration":"0.06"},{"name":"E5","midi":76,"time":"451.52","velocity":0.4015748031496063,"duration":"0.07"},{"name":"A#5","midi":82,"time":"451.55","velocity":0.1889763779527559,"duration":"0.03"},{"name":"B5","midi":83,"time":"451.55","velocity":0.2283464566929134,"duration":"0.03"},{"name":"E3","midi":52,"time":"451.56","velocity":0.44881889763779526,"duration":"0.02"},{"name":"G#5","midi":80,"time":"451.57","velocity":0.5196850393700787,"duration":"0.08"},{"name":"C6","midi":84,"time":"451.57","velocity":0.2992125984251969,"duration":"0.03"},{"name":"F2","midi":41,"time":"451.58","velocity":0.3543307086614173,"duration":"0.02"},{"name":"D#3","midi":51,"time":"451.58","velocity":0.47244094488188976,"duration":"0.02"},{"name":"A3","midi":57,"time":"451.58","velocity":0.3858267716535433,"duration":"0.02"},{"name":"C#5","midi":73,"time":"451.58","velocity":0.33070866141732286,"duration":"0.05"},{"name":"F5","midi":77,"time":"451.59","velocity":0.2992125984251969,"duration":"0.02"},{"name":"A#5","midi":82,"time":"451.59","velocity":0.25984251968503935,"duration":"0.05"},{"name":"E2","midi":40,"time":"451.60","velocity":0.4094488188976378,"duration":"0.02"},{"name":"E3","midi":52,"time":"451.60","velocity":0.5748031496062992,"duration":"0.14"},{"name":"A#3","midi":58,"time":"451.60","velocity":0.41732283464566927,"duration":"0.02"},{"name":"E5","midi":76,"time":"451.60","velocity":0.3779527559055118,"duration":"0.15"},{"name":"B5","midi":83,"time":"451.62","velocity":0.25984251968503935,"duration":"0.05"},{"name":"D6","midi":86,"time":"451.62","velocity":0.2283464566929134,"duration":"0.02"},{"name":"E6","midi":88,"time":"451.62","velocity":0.4251968503937008,"duration":"0.26"},{"name":"A3","midi":57,"time":"451.63","velocity":0.47244094488188976,"duration":"0.06"},{"name":"C6","midi":84,"time":"451.64","velocity":0.3858267716535433,"duration":"0.10"},{"name":"F2","midi":41,"time":"451.65","velocity":0.41732283464566927,"duration":"0.02"},{"name":"D4","midi":62,"time":"451.65","velocity":0.2755905511811024,"duration":"0.02"},{"name":"C#5","midi":73,"time":"451.65","velocity":0.3543307086614173,"duration":"0.10"},{"name":"F5","midi":77,"time":"451.67","velocity":0.3464566929133858,"duration":"0.02"},{"name":"D6","midi":86,"time":"451.67","velocity":0.3937007874015748,"duration":"0.08"},{"name":"G6","midi":91,"time":"451.67","velocity":0.25196850393700787,"duration":"0.19"},{"name":"G#5","midi":80,"time":"451.70","velocity":0.44881889763779526,"duration":"0.02"},{"name":"B5","midi":83,"time":"451.70","velocity":0.2440944881889764,"duration":"0.03"},{"name":"C#6","midi":85,"time":"451.70","velocity":0.4881889763779528,"duration":"0.81"},{"name":"C4","midi":60,"time":"451.71","velocity":0.23622047244094488,"duration":"0.02"},{"name":"A2","midi":45,"time":"451.72","velocity":0.4015748031496063,"duration":"0.02"},{"name":"F6","midi":89,"time":"451.72","velocity":0.15748031496062992,"duration":"0.03"},{"name":"F#2","midi":42,"time":"451.74","velocity":0.41732283464566927,"duration":"0.02"},{"name":"D#3","midi":51,"time":"451.74","velocity":0.5118110236220472,"duration":"0.06"},{"name":"D5","midi":74,"time":"451.76","velocity":0.2677165354330709,"duration":"0.02"},{"name":"G#5","midi":80,"time":"451.76","velocity":0.5826771653543307,"duration":"0.22"},{"name":"G#4","midi":68,"time":"451.77","velocity":0.5118110236220472,"duration":"0.01"},{"name":"E5","midi":76,"time":"451.77","velocity":0.28346456692913385,"duration":"0.02"},{"name":"C6","midi":84,"time":"451.77","velocity":0.33070866141732286,"duration":"0.06"},{"name":"B6","midi":95,"time":"451.77","velocity":0.14173228346456693,"duration":"0.08"},{"name":"C#5","midi":73,"time":"451.78","velocity":0.3228346456692913,"duration":"0.08"},{"name":"A5","midi":81,"time":"451.78","velocity":0.5354330708661418,"duration":"0.07"},{"name":"F2","midi":41,"time":"451.79","velocity":0.4094488188976378,"duration":"0.02"},{"name":"G#4","midi":68,"time":"451.79","velocity":0.5590551181102362,"duration":"0.50"},{"name":"B4","midi":71,"time":"451.79","velocity":0.2677165354330709,"duration":"0.05"},{"name":"F5","midi":77,"time":"451.79","velocity":0.25984251968503935,"duration":"0.03"},{"name":"A#6","midi":94,"time":"451.80","velocity":0.15748031496062992,"duration":"0.07"},{"name":"A3","midi":57,"time":"451.83","velocity":0.36220472440944884,"duration":"0.02"},{"name":"D4","midi":62,"time":"451.83","velocity":0.36220472440944884,"duration":"0.03"},{"name":"E5","midi":76,"time":"451.83","velocity":0.3228346456692913,"duration":"0.08"},{"name":"C6","midi":84,"time":"451.84","velocity":0.1889763779527559,"duration":"0.05"},{"name":"F7","midi":101,"time":"451.84","velocity":0.2283464566929134,"duration":"0.52"},{"name":"E3","midi":52,"time":"451.85","velocity":0.5511811023622047,"duration":"0.05"},{"name":"G#3","midi":56,"time":"451.85","velocity":0.30708661417322836,"duration":"0.02"},{"name":"F#4","midi":66,"time":"451.86","velocity":0.4881889763779528,"duration":"0.05"},{"name":"D5","midi":74,"time":"451.86","velocity":0.33858267716535434,"duration":"0.05"},{"name":"F2","midi":41,"time":"451.88","velocity":0.5196850393700787,"duration":"0.01"},{"name":"E6","midi":88,"time":"451.88","velocity":0.36220472440944884,"duration":"0.24"},{"name":"A#6","midi":94,"time":"451.88","velocity":0.2204724409448819,"duration":"0.12"},{"name":"B3","midi":59,"time":"451.90","velocity":0.3228346456692913,"duration":"0.06"},{"name":"F5","midi":77,"time":"451.90","velocity":0.25984251968503935,"duration":"0.05"},{"name":"C6","midi":84,"time":"451.90","velocity":0.25196850393700787,"duration":"0.05"},{"name":"A5","midi":81,"time":"451.91","velocity":0.5826771653543307,"duration":"0.12"},{"name":"D#1","midi":27,"time":"451.92","velocity":0.5433070866141733,"duration":"0.01"},{"name":"D6","midi":86,"time":"451.92","velocity":0.2677165354330709,"duration":"0.07"},{"name":"A1","midi":33,"time":"451.93","velocity":0.5354330708661418,"duration":"0.01"},{"name":"E5","midi":76,"time":"451.93","velocity":0.2755905511811024,"duration":"0.03"},{"name":"B5","midi":83,"time":"451.93","velocity":0.1968503937007874,"duration":"0.06"},{"name":"G6","midi":91,"time":"451.94","velocity":0.1889763779527559,"duration":"0.15"},{"name":"E3","midi":52,"time":"451.95","velocity":0.44881889763779526,"duration":"0.03"},{"name":"A#3","midi":58,"time":"451.97","velocity":0.2992125984251969,"duration":"0.03"},{"name":"D#4","midi":63,"time":"451.97","velocity":0.2283464566929134,"duration":"0.02"},{"name":"B4","midi":71,"time":"451.97","velocity":0.1968503937007874,"duration":"0.03"},{"name":"F#5","midi":78,"time":"451.97","velocity":0.33070866141732286,"duration":"0.19"},{"name":"C6","midi":84,"time":"451.97","velocity":0.2125984251968504,"duration":"0.03"},{"name":"C#5","midi":73,"time":"451.98","velocity":0.2440944881889764,"duration":"0.02"},{"name":"D#3","midi":51,"time":"451.99","velocity":0.4094488188976378,"duration":"0.03"},{"name":"C#4","midi":61,"time":"451.99","velocity":0.2283464566929134,"duration":"0.05"},{"name":"E5","midi":76,"time":"451.99","velocity":0.3937007874015748,"duration":"0.27"},{"name":"B6","midi":95,"time":"451.99","velocity":0.15748031496062992,"duration":"0.05"},{"name":"C7","midi":96,"time":"451.99","velocity":0.30708661417322836,"duration":"0.50"},{"name":"D5","midi":74,"time":"452.00","velocity":0.33070866141732286,"duration":"0.02"},{"name":"B5","midi":83,"time":"452.00","velocity":0.2677165354330709,"duration":"0.03"},{"name":"G#5","midi":80,"time":"452.01","velocity":0.5984251968503937,"duration":"0.13"},{"name":"C6","midi":84,"time":"452.01","velocity":0.2440944881889764,"duration":"0.05"},{"name":"A6","midi":93,"time":"452.02","velocity":0.4015748031496063,"duration":"1.67"},{"name":"A#6","midi":94,"time":"452.03","velocity":0.25984251968503935,"duration":"0.42"},{"name":"E3","midi":52,"time":"452.05","velocity":0.4566929133858268,"duration":"0.03"},{"name":"G7","midi":103,"time":"452.05","velocity":0.25984251968503935,"duration":"0.31"},{"name":"A#3","midi":58,"time":"452.06","velocity":0.36220472440944884,"duration":"0.02"},{"name":"B5","midi":83,"time":"452.06","velocity":0.1889763779527559,"duration":"0.05"},{"name":"A5","midi":81,"time":"452.07","velocity":0.5275590551181102,"duration":"0.05"},{"name":"C#5","midi":73,"time":"452.08","velocity":0.2677165354330709,"duration":"0.02"},{"name":"E3","midi":52,"time":"452.09","velocity":0.49606299212598426,"duration":"0.07"},{"name":"F2","midi":41,"time":"452.10","velocity":0.44881889763779526,"duration":"0.02"},{"name":"D2","midi":38,"time":"452.13","velocity":0.4251968503937008,"duration":"0.02"},{"name":"A5","midi":81,"time":"452.13","velocity":0.5669291338582677,"duration":"0.07"},{"name":"B5","midi":83,"time":"452.13","velocity":0.14960629921259844,"duration":"0.03"},{"name":"D4","midi":62,"time":"452.14","velocity":0.2283464566929134,"duration":"0.03"},{"name":"C6","midi":84,"time":"452.14","velocity":0.1889763779527559,"duration":"0.03"},{"name":"E6","midi":88,"time":"452.14","velocity":0.4645669291338583,"duration":"0.31"},{"name":"F3","midi":53,"time":"452.16","velocity":0.4094488188976378,"duration":"0.03"},{"name":"C#5","midi":73,"time":"452.16","velocity":0.2440944881889764,"duration":"0.07"},{"name":"F#5","midi":78,"time":"452.16","velocity":0.36220472440944884,"duration":"0.16"},{"name":"F6","midi":89,"time":"452.16","velocity":0.11023622047244094,"duration":"0.03"},{"name":"B5","midi":83,"time":"452.17","velocity":0.23622047244094488,"duration":"0.02"},{"name":"G6","midi":91,"time":"452.17","velocity":0.2440944881889764,"duration":"0.14"},{"name":"C6","midi":84,"time":"452.19","velocity":0.2440944881889764,"duration":"0.02"},{"name":"E2","midi":40,"time":"452.20","velocity":0.5039370078740157,"duration":"0.03"},{"name":"F3","midi":53,"time":"452.21","velocity":0.44881889763779526,"duration":"0.02"},{"name":"A5","midi":81,"time":"452.21","velocity":0.5118110236220472,"duration":"0.05"},{"name":"D5","midi":74,"time":"452.22","velocity":0.25196850393700787,"duration":"0.03"},{"name":"C6","midi":84,"time":"452.22","velocity":0.2992125984251969,"duration":"0.03"},{"name":"F6","midi":89,"time":"452.22","velocity":0.1968503937007874,"duration":"0.07"},{"name":"C2","midi":36,"time":"452.23","velocity":0.5275590551181102,"duration":"0.01"},{"name":"A2","midi":45,"time":"452.23","velocity":0.5275590551181102,"duration":"0.01"},{"name":"B1","midi":35,"time":"452.24","velocity":0.5590551181102362,"duration":"0.01"},{"name":"F3","midi":53,"time":"452.24","velocity":0.5118110236220472,"duration":"0.02"},{"name":"F#4","midi":66,"time":"452.24","velocity":0.3779527559055118,"duration":"0.02"},{"name":"E2","midi":40,"time":"452.26","velocity":0.5669291338582677,"duration":"0.01"},{"name":"A#4","midi":70,"time":"452.26","velocity":0.3937007874015748,"duration":"0.02"},{"name":"D#5","midi":75,"time":"452.26","velocity":0.2440944881889764,"duration":"0.07"},{"name":"A#5","midi":82,"time":"452.26","velocity":0.5118110236220472,"duration":"0.12"},{"name":"E3","midi":52,"time":"452.27","velocity":0.5511811023622047,"duration":"0.01"},{"name":"D6","midi":86,"time":"452.27","velocity":0.2440944881889764,"duration":"0.05"},{"name":"F#6","midi":90,"time":"452.27","velocity":0.36220472440944884,"duration":"0.17"},{"name":"F1","midi":29,"time":"452.28","velocity":0.5669291338582677,"duration":"0.01"},{"name":"F#2","midi":42,"time":"452.28","velocity":0.5118110236220472,"duration":"0.01"},{"name":"B5","midi":83,"time":"452.28","velocity":0.28346456692913385,"duration":"0.03"},{"name":"B6","midi":95,"time":"452.28","velocity":0.41732283464566927,"duration":"3.29"},{"name":"E1","midi":28,"time":"452.29","velocity":0.5511811023622047,"duration":"0.01"},{"name":"F2","midi":41,"time":"452.29","velocity":0.5669291338582677,"duration":"0.03"},{"name":"F#3","midi":54,"time":"452.29","velocity":0.5433070866141733,"duration":"0.05"},{"name":"A4","midi":69,"time":"452.29","velocity":0.47244094488188976,"duration":"0.02"},{"name":"B4","midi":71,"time":"452.30","velocity":0.4409448818897638,"duration":"0.24"},{"name":"G#4","midi":68,"time":"452.31","velocity":0.49606299212598426,"duration":"0.05"},{"name":"F5","midi":77,"time":"452.31","velocity":0.3779527559055118,"duration":"0.05"},{"name":"F#2","midi":42,"time":"452.33","velocity":0.4881889763779528,"duration":"0.02"},{"name":"A5","midi":81,"time":"452.33","velocity":0.23622047244094488,"duration":"0.03"},{"name":"B5","midi":83,"time":"452.33","velocity":0.6299212598425197,"duration":"0.63"},{"name":"G6","midi":91,"time":"452.33","velocity":0.13385826771653545,"duration":"0.06"},{"name":"A#3","midi":58,"time":"452.34","velocity":0.3700787401574803,"duration":"0.03"},{"name":"D#5","midi":75,"time":"452.34","velocity":0.2283464566929134,"duration":"0.03"},{"name":"F#3","midi":54,"time":"452.35","velocity":0.4094488188976378,"duration":"0.02"},{"name":"F#5","midi":78,"time":"452.35","velocity":0.3228346456692913,"duration":"0.09"},{"name":"D6","midi":86,"time":"452.35","velocity":0.25984251968503935,"duration":"0.06"},{"name":"F#2","midi":42,"time":"452.36","velocity":0.49606299212598426,"duration":"0.02"},{"name":"G#6","midi":92,"time":"452.36","velocity":0.2677165354330709,"duration":"0.05"},{"name":"F3","midi":53,"time":"452.37","velocity":0.4015748031496063,"duration":"0.02"},{"name":"F#4","midi":66,"time":"452.37","velocity":0.2440944881889764,"duration":"0.02"},{"name":"G#4","midi":68,"time":"452.37","velocity":0.36220472440944884,"duration":"0.03"},{"name":"F7","midi":101,"time":"452.37","velocity":0.3858267716535433,"duration":"4.35"},{"name":"G7","midi":103,"time":"452.37","velocity":0.1889763779527559,"duration":"0.06"},{"name":"F2","midi":41,"time":"452.38","velocity":0.5196850393700787,"duration":"0.01"},{"name":"C4","midi":60,"time":"452.38","velocity":0.28346456692913385,"duration":"0.02"},{"name":"F#2","midi":42,"time":"452.40","velocity":0.49606299212598426,"duration":"0.02"},{"name":"C#5","midi":73,"time":"452.40","velocity":0.2677165354330709,"duration":"0.02"},{"name":"E5","midi":76,"time":"452.40","velocity":0.30708661417322836,"duration":"0.06"},{"name":"A5","midi":81,"time":"452.40","velocity":0.31496062992125984,"duration":"0.09"},{"name":"C#4","midi":61,"time":"452.41","velocity":0.3543307086614173,"duration":"0.03"},{"name":"A4","midi":69,"time":"452.41","velocity":0.44881889763779526,"duration":"0.10"},{"name":"F#3","midi":54,"time":"452.42","velocity":0.5354330708661418,"duration":"0.06"},{"name":"G6","midi":91,"time":"452.42","velocity":0.2204724409448819,"duration":"0.07"},{"name":"G2","midi":43,"time":"452.43","velocity":0.5433070866141733,"duration":"0.01"},{"name":"E4","midi":64,"time":"452.43","velocity":0.33858267716535434,"duration":"0.03"},{"name":"F6","midi":89,"time":"452.43","velocity":0.1889763779527559,"duration":"0.05"},{"name":"F#2","midi":42,"time":"452.44","velocity":0.5748031496062992,"duration":"0.01"},{"name":"C3","midi":48,"time":"452.44","velocity":0.5354330708661418,"duration":"0.02"},{"name":"G#5","midi":80,"time":"452.44","velocity":0.31496062992125984,"duration":"0.08"},{"name":"D6","midi":86,"time":"452.44","velocity":0.3228346456692913,"duration":"0.02"},{"name":"E2","midi":40,"time":"452.45","velocity":0.6062992125984252,"duration":"0.02"},{"name":"A#3","midi":58,"time":"452.45","velocity":0.31496062992125984,"duration":"0.02"},{"name":"D5","midi":74,"time":"452.45","velocity":0.25984251968503935,"duration":"0.09"},{"name":"F#6","midi":90,"time":"452.45","velocity":0.3464566929133858,"duration":"0.24"},{"name":"E6","midi":88,"time":"452.47","velocity":0.4881889763779528,"duration":"0.63"},{"name":"A#6","midi":94,"time":"452.47","velocity":0.18110236220472442,"duration":"0.13"},{"name":"G1","midi":31,"time":"452.48","velocity":0.5196850393700787,"duration":"0.01"},{"name":"G2","midi":43,"time":"452.48","velocity":0.5275590551181102,"duration":"0.01"},{"name":"F3","midi":53,"time":"452.48","velocity":0.5118110236220472,"duration":"0.01"},{"name":"F5","midi":77,"time":"452.48","velocity":0.23622047244094488,"duration":"0.02"},{"name":"E1","midi":28,"time":"452.49","velocity":0.5118110236220472,"duration":"0.01"},{"name":"F#2","midi":42,"time":"452.49","velocity":0.4566929133858268,"duration":"0.02"},{"name":"F#3","midi":54,"time":"452.49","velocity":0.5275590551181102,"duration":"0.08"},{"name":"C#4","midi":61,"time":"452.49","velocity":0.4094488188976378,"duration":"0.21"},{"name":"C6","midi":84,"time":"452.49","velocity":0.3228346456692913,"duration":"0.05"},{"name":"A5","midi":81,"time":"452.50","velocity":0.5748031496062992,"duration":"0.80"},{"name":"G6","midi":91,"time":"452.50","velocity":0.15748031496062992,"duration":"0.05"},{"name":"F2","midi":41,"time":"452.51","velocity":0.5354330708661418,"duration":"0.02"},{"name":"A4","midi":69,"time":"452.52","velocity":0.5118110236220472,"duration":"0.28"},{"name":"C#6","midi":85,"time":"452.52","velocity":0.3700787401574803,"duration":"0.30"},{"name":"G7","midi":103,"time":"452.52","velocity":0.1732283464566929,"duration":"0.16"},{"name":"C5","midi":72,"time":"452.55","velocity":0.30708661417322836,"duration":"0.02"},{"name":"F5","midi":77,"time":"452.55","velocity":0.2677165354330709,"duration":"0.05"},{"name":"C3","midi":48,"time":"452.56","velocity":0.4330708661417323,"duration":"0.02"},{"name":"G#6","midi":92,"time":"452.56","velocity":0.2204724409448819,"duration":"0.15"},{"name":"D7","midi":98,"time":"452.56","velocity":0.2125984251968504,"duration":"0.20"},{"name":"B4","midi":71,"time":"452.57","velocity":0.3700787401574803,"duration":"0.08"},{"name":"D5","midi":74,"time":"452.58","velocity":0.2440944881889764,"duration":"0.06"},{"name":"E5","midi":76,"time":"452.60","velocity":0.18110236220472442,"duration":"0.05"},{"name":"G6","midi":91,"time":"452.60","velocity":0.2283464566929134,"duration":"0.02"},{"name":"A#6","midi":94,"time":"452.60","velocity":0.25984251968503935,"duration":"0.16"},{"name":"D2","midi":38,"time":"452.62","velocity":0.5433070866141733,"duration":"0.01"},{"name":"F3","midi":53,"time":"452.62","velocity":0.5511811023622047,"duration":"0.01"},{"name":"E2","midi":40,"time":"452.63","velocity":0.5826771653543307,"duration":"0.01"},{"name":"F6","midi":89,"time":"452.63","velocity":0.16535433070866143,"duration":"0.08"},{"name":"G4","midi":67,"time":"452.64","velocity":0.41732283464566927,"duration":"0.02"},{"name":"D#5","midi":75,"time":"452.64","velocity":0.3228346456692913,"duration":"0.05"},{"name":"G1","midi":31,"time":"452.65","velocity":0.5118110236220472,"duration":"0.01"},{"name":"G6","midi":91,"time":"452.65","velocity":0.1889763779527559,"duration":"0.09"},{"name":"F1","midi":29,"time":"452.66","velocity":0.5748031496062992,"duration":"0.01"},{"name":"B4","midi":71,"time":"452.66","velocity":0.41732283464566927,"duration":"0.08"},{"name":"F#1","midi":30,"time":"452.67","velocity":0.5984251968503937,"duration":"0.01"},{"name":"D5","midi":74,"time":"452.67","velocity":0.2283464566929134,"duration":"0.05"},{"name":"E5","midi":76,"time":"452.67","velocity":0.31496062992125984,"duration":"0.06"},{"name":"B1","midi":35,"time":"452.69","velocity":0.5590551181102362,"duration":"0.01"},{"name":"F#4","midi":66,"time":"452.69","velocity":0.33070866141732286,"duration":"0.03"},{"name":"G#5","midi":80,"time":"452.69","velocity":0.28346456692913385,"duration":"0.06"},{"name":"D6","midi":86,"time":"452.70","velocity":0.31496062992125984,"duration":"0.08"},{"name":"F5","midi":77,"time":"452.71","velocity":0.25984251968503935,"duration":"0.02"},{"name":"F#6","midi":90,"time":"452.71","velocity":0.47244094488188976,"duration":"1.15"},{"name":"F#3","midi":54,"time":"452.72","velocity":0.5354330708661418,"duration":"0.16"},{"name":"E4","midi":64,"time":"452.73","velocity":0.3700787401574803,"duration":"0.08"},{"name":"C#5","midi":73,"time":"452.73","velocity":0.25196850393700787,"duration":"0.06"},{"name":"F#5","midi":78,"time":"452.73","velocity":0.3464566929133858,"duration":"0.03"},{"name":"B3","midi":59,"time":"452.74","velocity":0.36220472440944884,"duration":"0.05"},{"name":"G6","midi":91,"time":"452.76","velocity":0.2283464566929134,"duration":"0.08"},{"name":"F#2","midi":42,"time":"452.77","velocity":0.49606299212598426,"duration":"0.05"},{"name":"A#6","midi":94,"time":"452.78","velocity":0.18110236220472442,"duration":"0.03"},{"name":"F#5","midi":78,"time":"452.79","velocity":0.4330708661417323,"duration":"0.33"},{"name":"D#6","midi":87,"time":"452.79","velocity":0.30708661417322836,"duration":"0.06"},{"name":"G5","midi":79,"time":"452.80","velocity":0.23622047244094488,"duration":"0.02"},{"name":"G7","midi":103,"time":"452.80","velocity":0.23622047244094488,"duration":"0.08"},{"name":"F2","midi":41,"time":"452.81","velocity":0.4251968503937008,"duration":"0.02"},{"name":"B4","midi":71,"time":"452.81","velocity":0.41732283464566927,"duration":"0.13"},{"name":"C6","midi":84,"time":"452.81","velocity":0.4645669291338583,"duration":"0.06"},{"name":"G#6","midi":92,"time":"452.81","velocity":0.2047244094488189,"duration":"0.09"},{"name":"B3","midi":59,"time":"452.83","velocity":0.31496062992125984,"duration":"0.03"},{"name":"G#4","midi":68,"time":"452.83","velocity":0.3464566929133858,"duration":"0.12"},{"name":"D7","midi":98,"time":"452.83","velocity":0.23622047244094488,"duration":"0.29"},{"name":"E4","midi":64,"time":"452.84","velocity":0.25984251968503935,"duration":"0.05"},{"name":"D6","midi":86,"time":"452.84","velocity":0.15748031496062992,"duration":"0.05"},{"name":"A#6","midi":94,"time":"452.84","velocity":0.13385826771653545,"duration":"0.09"},{"name":"C#4","midi":61,"time":"452.85","velocity":0.23622047244094488,"duration":"0.02"},{"name":"G6","midi":91,"time":"452.85","velocity":0.2755905511811024,"duration":"0.02"},{"name":"F6","midi":89,"time":"452.86","velocity":0.1889763779527559,"duration":"0.06"},{"name":"C#6","midi":85,"time":"452.87","velocity":0.30708661417322836,"duration":"0.13"},{"name":"D#6","midi":87,"time":"452.87","velocity":0.2440944881889764,"duration":"0.08"},{"name":"F#2","midi":42,"time":"452.88","velocity":0.4251968503937008,"duration":"0.02"},{"name":"A#3","midi":58,"time":"452.88","velocity":0.31496062992125984,"duration":"0.02"},{"name":"C#4","midi":61,"time":"452.88","velocity":0.4015748031496063,"duration":"0.10"},{"name":"F#3","midi":54,"time":"452.90","velocity":0.4251968503937008,"duration":"0.02"},{"name":"G6","midi":91,"time":"452.90","velocity":0.2047244094488189,"duration":"0.07"},{"name":"F3","midi":53,"time":"452.92","velocity":0.47244094488188976,"duration":"0.02"},{"name":"F#2","midi":42,"time":"452.93","velocity":0.44881889763779526,"duration":"0.02"},{"name":"G#6","midi":92,"time":"452.93","velocity":0.16535433070866143,"duration":"0.08"},{"name":"F#3","midi":54,"time":"452.94","velocity":0.48031496062992124,"duration":"0.02"},{"name":"A4","midi":69,"time":"452.95","velocity":0.33858267716535434,"duration":"0.02"},{"name":"A#6","midi":94,"time":"452.95","velocity":0.2440944881889764,"duration":"0.35"},{"name":"A#4","midi":70,"time":"452.97","velocity":0.2755905511811024,"duration":"0.03"},{"name":"B5","midi":83,"time":"452.97","velocity":0.49606299212598426,"duration":"0.03"},{"name":"D6","midi":86,"time":"452.97","velocity":0.2755905511811024,"duration":"0.02"},{"name":"D#6","midi":87,"time":"452.97","velocity":0.29133858267716534,"duration":"0.16"},{"name":"C7","midi":96,"time":"452.97","velocity":0.25196850393700787,"duration":"0.26"},{"name":"F3","midi":53,"time":"452.98","velocity":0.44881889763779526,"duration":"0.02"},{"name":"G#4","midi":68,"time":"452.98","velocity":0.49606299212598426,"duration":"0.05"},{"name":"D5","midi":74,"time":"452.98","velocity":0.3228346456692913,"duration":"0.02"},{"name":"E5","midi":76,"time":"452.98","velocity":0.33070866141732286,"duration":"0.02"},{"name":"F6","midi":89,"time":"452.98","velocity":0.33070866141732286,"duration":"0.06"},{"name":"G6","midi":91,"time":"452.98","velocity":0.29133858267716534,"duration":"0.07"},{"name":"C6","midi":84,"time":"452.99","velocity":0.49606299212598426,"duration":"0.03"},{"name":"C4","midi":60,"time":"453.00","velocity":0.5118110236220472,"duration":"0.01"},{"name":"D#5","midi":75,"time":"453.00","velocity":0.4409448818897638,"duration":"0.06"},{"name":"G#3","midi":56,"time":"453.01","velocity":0.5039370078740157,"duration":"0.05"},{"name":"A#4","midi":70,"time":"453.01","velocity":0.36220472440944884,"duration":"0.03"},{"name":"C#6","midi":85,"time":"453.01","velocity":0.3464566929133858,"duration":"0.03"},{"name":"F4","midi":65,"time":"453.02","velocity":0.44881889763779526,"duration":"0.02"},{"name":"B4","midi":71,"time":"453.02","velocity":0.3464566929133858,"duration":"0.02"},{"name":"B5","midi":83,"time":"453.02","velocity":0.5669291338582677,"duration":"0.08"},{"name":"G#6","midi":92,"time":"453.02","velocity":0.16535433070866143,"duration":"0.05"},{"name":"G2","midi":43,"time":"453.03","velocity":0.5275590551181102,"duration":"0.02"},{"name":"F#4","midi":66,"time":"453.05","velocity":0.36220472440944884,"duration":"0.03"},{"name":"A4","midi":69,"time":"453.05","velocity":0.4015748031496063,"duration":"0.05"},{"name":"G5","midi":79,"time":"453.05","velocity":0.2677165354330709,"duration":"0.02"},{"name":"D6","midi":86,"time":"453.05","velocity":0.2440944881889764,"duration":"0.13"},{"name":"G#2","midi":44,"time":"453.06","velocity":0.5196850393700787,"duration":"0.02"},{"name":"D5","midi":74,"time":"453.06","velocity":0.3228346456692913,"duration":"0.02"},{"name":"E5","midi":76,"time":"453.06","velocity":0.2440944881889764,"duration":"0.02"},{"name":"C6","midi":84,"time":"453.06","velocity":0.36220472440944884,"duration":"0.06"},{"name":"F6","midi":89,"time":"453.06","velocity":0.31496062992125984,"duration":"0.03"},{"name":"G#5","midi":80,"time":"453.07","velocity":0.28346456692913385,"duration":"0.05"},{"name":"C#6","midi":85,"time":"453.07","velocity":0.29133858267716534,"duration":"0.13"},{"name":"G6","midi":91,"time":"453.07","velocity":0.25196850393700787,"duration":"0.36"},{"name":"G2","midi":43,"time":"453.08","velocity":0.5039370078740157,"duration":"0.05"},{"name":"F4","midi":65,"time":"453.08","velocity":0.33858267716535434,"duration":"0.02"},{"name":"D#5","midi":75,"time":"453.08","velocity":0.28346456692913385,"duration":"0.02"},{"name":"C#5","midi":73,"time":"453.09","velocity":0.3779527559055118,"duration":"0.07"},{"name":"G#3","midi":56,"time":"453.10","velocity":0.44881889763779526,"duration":"0.03"},{"name":"C#4","midi":61,"time":"453.10","velocity":0.3937007874015748,"duration":"0.08"},{"name":"F#4","midi":66,"time":"453.10","velocity":0.33858267716535434,"duration":"0.05"},{"name":"A4","midi":69,"time":"453.10","velocity":0.4409448818897638,"duration":"0.10"},{"name":"C5","midi":72,"time":"453.10","velocity":0.33070866141732286,"duration":"0.02"},{"name":"G5","midi":79,"time":"453.10","velocity":0.30708661417322836,"duration":"0.03"},{"name":"E5","midi":76,"time":"453.12","velocity":0.31496062992125984,"duration":"0.13"},{"name":"B5","midi":83,"time":"453.12","velocity":0.6220472440944882,"duration":"0.63"},{"name":"F6","midi":89,"time":"453.12","velocity":0.23622047244094488,"duration":"0.08"},{"name":"G#2","midi":44,"time":"453.13","velocity":0.5354330708661418,"duration":"0.08"},{"name":"D7","midi":98,"time":"453.14","velocity":0.2677165354330709,"duration":"0.15"},{"name":"C5","midi":72,"time":"453.15","velocity":0.4330708661417323,"duration":"0.02"},{"name":"G7","midi":103,"time":"453.15","velocity":0.25984251968503935,"duration":"0.34"},{"name":"F#4","midi":66,"time":"453.16","velocity":0.3543307086614173,"duration":"0.03"},{"name":"B4","midi":71,"time":"453.17","velocity":0.5433070866141733,"duration":"0.09"},{"name":"C#5","midi":73,"time":"453.17","velocity":0.4566929133858268,"duration":"0.03"},{"name":"D#6","midi":87,"time":"453.17","velocity":0.18110236220472442,"duration":"0.07"},{"name":"D4","midi":62,"time":"453.19","velocity":0.2677165354330709,"duration":"0.02"},{"name":"D6","midi":86,"time":"453.19","velocity":0.1968503937007874,"duration":"0.03"},{"name":"G5","midi":79,"time":"453.20","velocity":0.29133858267716534,"duration":"0.07"},{"name":"G#6","midi":92,"time":"453.20","velocity":0.3543307086614173,"duration":"0.27"},{"name":"G2","midi":43,"time":"453.21","velocity":0.5275590551181102,"duration":"0.01"},{"name":"C#6","midi":85,"time":"453.21","velocity":0.36220472440944884,"duration":"0.12"},{"name":"G#2","midi":44,"time":"453.22","velocity":0.5511811023622047,"duration":"0.03"},{"name":"C#5","midi":73,"time":"453.22","velocity":0.4645669291338583,"duration":"0.12"},{"name":"F5","midi":77,"time":"453.23","velocity":0.2755905511811024,"duration":"0.05"},{"name":"C7","midi":96,"time":"453.23","velocity":0.1732283464566929,"duration":"0.10"},{"name":"G3","midi":55,"time":"453.24","velocity":0.4015748031496063,"duration":"0.02"},{"name":"E6","midi":88,"time":"453.24","velocity":0.2677165354330709,"duration":"0.12"},{"name":"G2","midi":43,"time":"453.26","velocity":0.5511811023622047,"duration":"0.01"},{"name":"D#6","midi":87,"time":"453.26","velocity":0.25984251968503935,"duration":"0.05"},{"name":"G#2","midi":44,"time":"453.27","velocity":0.5433070866141733,"duration":"0.02"},{"name":"C4","midi":60,"time":"453.27","velocity":0.3858267716535433,"duration":"0.03"},{"name":"E5","midi":76,"time":"453.27","velocity":0.2992125984251969,"duration":"0.03"},{"name":"D6","midi":86,"time":"453.27","velocity":0.23622047244094488,"duration":"0.03"},{"name":"F#4","midi":66,"time":"453.28","velocity":0.25984251968503935,"duration":"0.05"},{"name":"B4","midi":71,"time":"453.28","velocity":0.4330708661417323,"duration":"0.03"},{"name":"G5","midi":79,"time":"453.28","velocity":0.29133858267716534,"duration":"0.05"},{"name":"G2","midi":43,"time":"453.29","velocity":0.5511811023622047,"duration":"0.01"},{"name":"G#2","midi":44,"time":"453.30","velocity":0.5511811023622047,"duration":"0.02"},{"name":"F5","midi":77,"time":"453.30","velocity":0.25984251968503935,"duration":"0.05"},{"name":"D#4","midi":63,"time":"453.31","velocity":0.30708661417322836,"duration":"0.02"},{"name":"D7","midi":98,"time":"453.31","velocity":0.14960629921259844,"duration":"0.03"},{"name":"G2","midi":43,"time":"453.33","velocity":0.5590551181102362,"duration":"0.01"},{"name":"C5","midi":72,"time":"453.33","velocity":0.4330708661417323,"duration":"0.03"},{"name":"D#6","midi":87,"time":"453.33","velocity":0.28346456692913385,"duration":"0.35"},{"name":"G#2","midi":44,"time":"453.34","velocity":0.6456692913385826,"duration":"0.05"},{"name":"A4","midi":69,"time":"453.34","velocity":0.44881889763779526,"duration":"0.02"},{"name":"E5","midi":76,"time":"453.34","velocity":0.3228346456692913,"duration":"0.07"},{"name":"C#6","midi":85,"time":"453.34","velocity":0.31496062992125984,"duration":"0.15"},{"name":"D6","midi":86,"time":"453.34","velocity":0.2755905511811024,"duration":"0.08"},{"name":"C#4","midi":61,"time":"453.35","velocity":0.2992125984251969,"duration":"0.02"},{"name":"C#5","midi":73,"time":"453.35","velocity":0.3700787401574803,"duration":"0.06"},{"name":"A#6","midi":94,"time":"453.35","velocity":0.2204724409448819,"duration":"0.10"},{"name":"G#4","midi":68,"time":"453.36","velocity":0.4330708661417323,"duration":"0.02"},{"name":"C6","midi":84,"time":"453.36","velocity":0.2440944881889764,"duration":"0.02"},{"name":"G4","midi":67,"time":"453.38","velocity":0.3228346456692913,"duration":"0.02"},{"name":"F#5","midi":78,"time":"453.38","velocity":0.2992125984251969,"duration":"0.03"},{"name":"E6","midi":88,"time":"453.38","velocity":0.3937007874015748,"duration":"1.28"},{"name":"D7","midi":98,"time":"453.38","velocity":0.33070866141732286,"duration":"0.37"},{"name":"F#1","midi":30,"time":"453.40","velocity":0.6220472440944882,"duration":"0.02"},{"name":"A3","midi":57,"time":"453.40","velocity":0.49606299212598426,"duration":"0.02"},{"name":"E4","midi":64,"time":"453.40","velocity":0.41732283464566927,"duration":"0.14"},{"name":"B4","midi":71,"time":"453.40","velocity":0.49606299212598426,"duration":"0.16"},{"name":"G#2","midi":44,"time":"453.41","velocity":0.5275590551181102,"duration":"0.01"},{"name":"F#4","midi":66,"time":"453.41","velocity":0.2992125984251969,"duration":"0.03"},{"name":"D#5","midi":75,"time":"453.41","velocity":0.3228346456692913,"duration":"0.03"},{"name":"F5","midi":77,"time":"453.41","velocity":0.23622047244094488,"duration":"0.03"},{"name":"A1","midi":33,"time":"453.42","velocity":0.5826771653543307,"duration":"0.01"},{"name":"A5","midi":81,"time":"453.42","velocity":0.28346456692913385,"duration":"0.12"},{"name":"C7","midi":96,"time":"453.42","velocity":0.1732283464566929,"duration":"0.03"},{"name":"C2","midi":36,"time":"453.43","velocity":0.5275590551181102,"duration":"0.01"},{"name":"G#4","midi":68,"time":"453.44","velocity":0.3228346456692913,"duration":"0.03"},{"name":"G6","midi":91,"time":"453.44","velocity":0.25984251968503935,"duration":"0.08"},{"name":"G2","midi":43,"time":"453.45","velocity":0.5039370078740157,"duration":"0.05"},{"name":"F#4","midi":66,"time":"453.45","velocity":0.28346456692913385,"duration":"0.02"},{"name":"G5","midi":79,"time":"453.45","velocity":0.2755905511811024,"duration":"0.05"},{"name":"G#3","midi":56,"time":"453.47","velocity":0.5196850393700787,"duration":"0.01"},{"name":"D5","midi":74,"time":"453.47","velocity":0.2755905511811024,"duration":"0.02"},{"name":"D6","midi":86,"time":"453.47","velocity":0.2992125984251969,"duration":"0.21"},{"name":"A#6","midi":94,"time":"453.47","velocity":0.31496062992125984,"duration":"0.59"},{"name":"C7","midi":96,"time":"453.47","velocity":0.2440944881889764,"duration":"0.05"},{"name":"G#3","midi":56,"time":"453.49","velocity":0.4566929133858268,"duration":"0.03"},{"name":"G#6","midi":92,"time":"453.49","velocity":0.3543307086614173,"duration":"0.14"},{"name":"C#4","midi":61,"time":"453.50","velocity":0.3543307086614173,"duration":"0.02"},{"name":"F#5","midi":78,"time":"453.50","velocity":0.33858267716535434,"duration":"0.02"},{"name":"C#6","midi":85,"time":"453.50","velocity":0.29133858267716534,"duration":"0.27"},{"name":"G7","midi":103,"time":"453.51","velocity":0.25984251968503935,"duration":"0.10"},{"name":"G#2","midi":44,"time":"453.52","velocity":0.5039370078740157,"duration":"0.02"},{"name":"G3","midi":55,"time":"453.52","velocity":0.4251968503937008,"duration":"0.02"},{"name":"D#5","midi":75,"time":"453.52","velocity":0.2755905511811024,"duration":"0.05"},{"name":"F5","midi":77,"time":"453.52","velocity":0.36220472440944884,"duration":"0.03"},{"name":"D#4","midi":63,"time":"453.53","velocity":0.3228346456692913,"duration":"0.02"},{"name":"A#4","midi":70,"time":"453.53","velocity":0.4015748031496063,"duration":"0.02"},{"name":"F#5","midi":78,"time":"453.53","velocity":0.30708661417322836,"duration":"0.05"},{"name":"G2","midi":43,"time":"453.55","velocity":0.48031496062992124,"duration":"0.02"},{"name":"A5","midi":81,"time":"453.55","velocity":0.3700787401574803,"duration":"0.37"},{"name":"G6","midi":91,"time":"453.55","velocity":0.1968503937007874,"duration":"0.03"},{"name":"A3","midi":57,"time":"453.56","velocity":0.5354330708661418,"duration":"0.01"},{"name":"E4","midi":64,"time":"453.56","velocity":0.3937007874015748,"duration":"0.02"},{"name":"G#4","midi":68,"time":"453.56","velocity":0.4645669291338583,"duration":"0.03"},{"name":"C#5","midi":73,"time":"453.56","velocity":0.4094488188976378,"duration":"0.06"},{"name":"C#4","midi":61,"time":"453.57","velocity":0.3858267716535433,"duration":"0.03"},{"name":"B4","midi":71,"time":"453.57","velocity":0.5433070866141733,"duration":"0.08"},{"name":"E5","midi":76,"time":"453.57","velocity":0.3937007874015748,"duration":"0.07"},{"name":"G2","midi":43,"time":"453.58","velocity":0.4881889763779528,"duration":"0.02"},{"name":"G5","midi":79,"time":"453.58","velocity":0.2283464566929134,"duration":"0.03"},{"name":"C7","midi":96,"time":"453.58","velocity":0.25196850393700787,"duration":"0.29"},{"name":"F#4","midi":66,"time":"453.59","velocity":0.31496062992125984,"duration":"0.02"},{"name":"F#5","midi":78,"time":"453.59","velocity":0.3464566929133858,"duration":"0.20"},{"name":"G6","midi":91,"time":"453.59","velocity":0.2440944881889764,"duration":"0.12"},{"name":"G#3","midi":56,"time":"453.60","velocity":0.4094488188976378,"duration":"0.02"},{"name":"D#4","midi":63,"time":"453.62","velocity":0.3779527559055118,"duration":"0.02"},{"name":"D5","midi":74,"time":"453.62","velocity":0.2755905511811024,"duration":"0.02"},{"name":"F6","midi":89,"time":"453.62","velocity":0.2440944881889764,"duration":"0.06"},{"name":"G#2","midi":44,"time":"453.63","velocity":0.49606299212598426,"duration":"0.02"},{"name":"G3","midi":55,"time":"453.63","velocity":0.4015748031496063,"duration":"0.02"},{"name":"C#4","midi":61,"time":"453.64","velocity":0.47244094488188976,"duration":"0.02"},{"name":"A4","midi":69,"time":"453.64","velocity":0.44881889763779526,"duration":"0.06"},{"name":"G#6","midi":92,"time":"453.64","velocity":0.2440944881889764,"duration":"0.10"},{"name":"G2","midi":43,"time":"453.65","velocity":0.49606299212598426,"duration":"0.02"},{"name":"G#3","midi":56,"time":"453.65","velocity":0.5118110236220472,"duration":"0.01"},{"name":"F#4","midi":66,"time":"453.65","velocity":0.36220472440944884,"duration":"0.02"},{"name":"D#5","midi":75,"time":"453.65","velocity":0.33858267716535434,"duration":"0.02"},{"name":"F5","midi":77,"time":"453.65","velocity":0.31496062992125984,"duration":"0.02"},{"name":"G3","midi":55,"time":"453.66","velocity":0.5118110236220472,"duration":"0.01"},{"name":"A2","midi":45,"time":"453.67","velocity":0.5275590551181102,"duration":"0.02"},{"name":"E5","midi":76,"time":"453.67","velocity":0.23622047244094488,"duration":"0.02"},{"name":"G#5","midi":80,"time":"453.67","velocity":0.3543307086614173,"duration":"0.09"},{"name":"E4","midi":64,"time":"453.69","velocity":0.4645669291338583,"duration":"0.22"},{"name":"B4","midi":71,"time":"453.69","velocity":0.4645669291338583,"duration":"0.08"},{"name":"D5","midi":74,"time":"453.69","velocity":0.33858267716535434,"duration":"0.03"},{"name":"C#4","midi":61,"time":"453.70","velocity":0.4409448818897638,"duration":"0.02"},{"name":"D#6","midi":87,"time":"453.70","velocity":0.2283464566929134,"duration":"0.10"},{"name":"F#2","midi":42,"time":"453.71","velocity":0.6771653543307087,"duration":"0.05"},{"name":"D3","midi":50,"time":"453.71","velocity":0.5118110236220472,"duration":"0.01"},{"name":"C4","midi":60,"time":"453.72","velocity":0.4330708661417323,"duration":"0.02"},{"name":"A4","midi":69,"time":"453.72","velocity":0.3700787401574803,"duration":"0.02"},{"name":"C#5","midi":73,"time":"453.72","velocity":0.31496062992125984,"duration":"0.02"},{"name":"F5","midi":77,"time":"453.72","velocity":0.2677165354330709,"duration":"0.05"},{"name":"C6","midi":84,"time":"453.73","velocity":0.5039370078740157,"duration":"0.06"},{"name":"D5","midi":74,"time":"453.74","velocity":0.29133858267716534,"duration":"0.02"},{"name":"G2","midi":43,"time":"453.76","velocity":0.5118110236220472,"duration":"0.01"},{"name":"D#3","midi":51,"time":"453.76","velocity":0.5196850393700787,"duration":"0.01"},{"name":"A4","midi":69,"time":"453.76","velocity":0.48031496062992124,"duration":"0.30"},{"name":"G#6","midi":92,"time":"453.76","velocity":0.48031496062992124,"duration":"0.49"},{"name":"F1","midi":29,"time":"453.77","velocity":0.5669291338582677,"duration":"0.01"},{"name":"B2","midi":47,"time":"453.77","velocity":0.4881889763779528,"duration":"0.02"},{"name":"G6","midi":91,"time":"453.77","velocity":0.23622047244094488,"duration":"0.06"},{"name":"D7","midi":98,"time":"453.77","velocity":0.3464566929133858,"duration":"1.91"},{"name":"F#1","midi":30,"time":"453.78","velocity":0.5984251968503937,"duration":"0.02"},{"name":"C#5","midi":73,"time":"453.78","velocity":0.41732283464566927,"duration":"0.02"},{"name":"G#5","midi":80,"time":"453.78","velocity":0.2677165354330709,"duration":"0.05"},{"name":"C4","midi":60,"time":"453.79","velocity":0.2283464566929134,"duration":"0.02"},{"name":"B4","midi":71,"time":"453.79","velocity":0.47244094488188976,"duration":"0.03"},{"name":"D5","midi":74,"time":"453.79","velocity":0.2204724409448819,"duration":"0.03"},{"name":"C#6","midi":85,"time":"453.79","velocity":0.5748031496062992,"duration":"0.08"},{"name":"C#2","midi":37,"time":"453.81","velocity":0.4566929133858268,"duration":"0.02"},{"name":"D#3","midi":51,"time":"453.81","velocity":0.5275590551181102,"duration":"0.02"},{"name":"C#4","midi":61,"time":"453.81","velocity":0.2755905511811024,"duration":"0.03"},{"name":"F#5","midi":78,"time":"453.81","velocity":0.33070866141732286,"duration":"0.29"},{"name":"C#5","midi":73,"time":"453.83","velocity":0.5118110236220472,"duration":"0.24"},{"name":"D#6","midi":87,"time":"453.83","velocity":0.14960629921259844,"duration":"0.06"},{"name":"F6","midi":89,"time":"453.85","velocity":0.1889763779527559,"duration":"0.19"},{"name":"C#4","midi":61,"time":"453.86","velocity":0.3937007874015748,"duration":"0.05"},{"name":"B4","midi":71,"time":"453.86","velocity":0.4015748031496063,"duration":"0.02"},{"name":"C6","midi":84,"time":"453.86","velocity":0.5354330708661418,"duration":"0.05"},{"name":"G6","midi":91,"time":"453.86","velocity":0.2677165354330709,"duration":"0.05"},{"name":"E2","midi":40,"time":"453.87","velocity":0.4094488188976378,"duration":"0.02"},{"name":"B5","midi":83,"time":"453.87","velocity":0.4251968503937008,"duration":"0.15"},{"name":"B4","midi":71,"time":"453.90","velocity":0.3779527559055118,"duration":"0.02"},{"name":"G#5","midi":80,"time":"453.91","velocity":0.33858267716535434,"duration":"0.12"},{"name":"C#6","midi":85,"time":"453.91","velocity":0.6692913385826772,"duration":"1.74"},{"name":"C#4","midi":61,"time":"453.92","velocity":0.36220472440944884,"duration":"0.07"},{"name":"F5","midi":77,"time":"453.92","velocity":0.2283464566929134,"duration":"0.02"},{"name":"F1","midi":29,"time":"453.93","velocity":0.3937007874015748,"duration":"0.02"},{"name":"D#3","midi":51,"time":"453.93","velocity":0.3858267716535433,"duration":"0.02"},{"name":"F#4","midi":66,"time":"453.93","velocity":0.3700787401574803,"duration":"0.02"},{"name":"D#5","midi":75,"time":"453.94","velocity":0.3464566929133858,"duration":"0.07"},{"name":"E5","midi":76,"time":"453.94","velocity":0.2992125984251969,"duration":"0.03"},{"name":"E3","midi":52,"time":"453.95","velocity":0.4330708661417323,"duration":"0.02"},{"name":"A2","midi":45,"time":"453.97","velocity":0.5118110236220472,"duration":"0.01"},{"name":"F4","midi":65,"time":"453.97","velocity":0.29133858267716534,"duration":"0.02"},{"name":"A#2","midi":46,"time":"453.98","velocity":0.4645669291338583,"duration":"0.02"},{"name":"G6","midi":91,"time":"453.98","velocity":0.2283464566929134,"duration":"0.03"},{"name":"E3","midi":52,"time":"453.99","velocity":0.44881889763779526,"duration":"0.06"},{"name":"E5","midi":76,"time":"453.99","velocity":0.2677165354330709,"duration":"0.02"},{"name":"D6","midi":86,"time":"454.00","velocity":0.3228346456692913,"duration":"0.05"},{"name":"D#5","midi":75,"time":"454.02","velocity":0.3700787401574803,"duration":"0.05"},{"name":"G6","midi":91,"time":"454.02","velocity":0.2047244094488189,"duration":"0.10"},{"name":"A2","midi":45,"time":"454.03","velocity":0.5196850393700787,"duration":"0.01"},{"name":"E4","midi":64,"time":"454.03","velocity":0.4881889763779528,"duration":"0.27"},{"name":"G#5","midi":80,"time":"454.05","velocity":0.25984251968503935,"duration":"0.02"},{"name":"B5","midi":83,"time":"454.05","velocity":0.41732283464566927,"duration":"0.09"},{"name":"E3","midi":52,"time":"454.06","velocity":0.48031496062992124,"duration":"0.02"},{"name":"F6","midi":89,"time":"454.06","velocity":0.2047244094488189,"duration":"0.06"},{"name":"A4","midi":69,"time":"454.07","velocity":0.31496062992125984,"duration":"0.02"},{"name":"D6","midi":86,"time":"454.07","velocity":0.29133858267716534,"duration":"0.03"},{"name":"A#6","midi":94,"time":"454.07","velocity":0.2283464566929134,"duration":"0.05"},{"name":"A#4","midi":70,"time":"454.08","velocity":0.3464566929133858,"duration":"0.02"},{"name":"C#5","midi":73,"time":"454.08","velocity":0.5118110236220472,"duration":"0.48"},{"name":"G7","midi":103,"time":"454.08","velocity":0.23622047244094488,"duration":"0.12"},{"name":"F#3","midi":54,"time":"454.10","velocity":0.5275590551181102,"duration":"0.01"},{"name":"A4","midi":69,"time":"454.10","velocity":0.4094488188976378,"duration":"0.06"},{"name":"D#6","midi":87,"time":"454.10","velocity":0.2047244094488189,"duration":"0.03"},{"name":"C3","midi":48,"time":"454.12","velocity":0.5039370078740157,"duration":"0.02"},{"name":"G3","midi":55,"time":"454.12","velocity":0.5826771653543307,"duration":"0.01"},{"name":"D6","midi":86,"time":"454.12","velocity":0.2677165354330709,"duration":"0.02"},{"name":"F#6","midi":90,"time":"454.12","velocity":0.31496062992125984,"duration":"0.15"},{"name":"F#5","midi":78,"time":"454.13","velocity":0.2440944881889764,"duration":"0.05"},{"name":"G#5","midi":80,"time":"454.13","velocity":0.2755905511811024,"duration":"0.03"},{"name":"A#5","midi":82,"time":"454.13","velocity":0.23622047244094488,"duration":"0.03"},{"name":"F6","midi":89,"time":"454.13","velocity":0.14173228346456693,"duration":"0.05"},{"name":"A#6","midi":94,"time":"454.13","velocity":0.2992125984251969,"duration":"0.30"},{"name":"A3","midi":57,"time":"454.14","velocity":0.3228346456692913,"duration":"0.02"},{"name":"B5","midi":83,"time":"454.15","velocity":0.4409448818897638,"duration":"0.10"},{"name":"C#4","midi":61,"time":"454.16","velocity":0.4566929133858268,"duration":"0.24"},{"name":"E3","midi":52,"time":"454.17","velocity":0.5433070866141733,"duration":"0.31"},{"name":"A3","midi":57,"time":"454.17","velocity":0.3700787401574803,"duration":"0.02"},{"name":"G#5","midi":80,"time":"454.17","velocity":0.3228346456692913,"duration":"0.03"},{"name":"D6","midi":86,"time":"454.17","velocity":0.25196850393700787,"duration":"0.07"},{"name":"C7","midi":96,"time":"454.17","velocity":0.2047244094488189,"duration":"0.06"},{"name":"A2","midi":45,"time":"454.19","velocity":0.5354330708661418,"duration":"0.02"},{"name":"G5","midi":79,"time":"454.19","velocity":0.23622047244094488,"duration":"0.02"},{"name":"A5","midi":81,"time":"454.20","velocity":0.4251968503937008,"duration":"0.24"},{"name":"G6","midi":91,"time":"454.20","velocity":0.29133858267716534,"duration":"0.35"},{"name":"A4","midi":69,"time":"454.22","velocity":0.3228346456692913,"duration":"0.02"},{"name":"G#5","midi":80,"time":"454.22","velocity":0.4015748031496063,"duration":"0.08"},{"name":"F#5","midi":78,"time":"454.23","velocity":0.2283464566929134,"duration":"0.02"},{"name":"D#6","midi":87,"time":"454.24","velocity":0.2283464566929134,"duration":"0.07"},{"name":"G4","midi":67,"time":"454.26","velocity":0.29133858267716534,"duration":"0.02"},{"name":"A4","midi":69,"time":"454.26","velocity":0.4094488188976378,"duration":"0.22"},{"name":"C6","midi":84,"time":"454.26","velocity":0.3228346456692913,"duration":"0.02"},{"name":"G#6","midi":92,"time":"454.26","velocity":0.48031496062992124,"duration":"1.03"},{"name":"F5","midi":77,"time":"454.27","velocity":0.29133858267716534,"duration":"0.02"},{"name":"B5","midi":83,"time":"454.27","velocity":0.4409448818897638,"duration":"0.23"},{"name":"F#6","midi":90,"time":"454.28","velocity":0.2440944881889764,"duration":"0.03"},{"name":"C7","midi":96,"time":"454.30","velocity":0.2755905511811024,"duration":"0.29"},{"name":"G#5","midi":80,"time":"454.31","velocity":0.31496062992125984,"duration":"0.07"},{"name":"D6","midi":86,"time":"454.31","velocity":0.2440944881889764,"duration":"0.06"},{"name":"G#2","midi":44,"time":"454.34","velocity":0.5275590551181102,"duration":"0.02"},{"name":"F6","midi":89,"time":"454.34","velocity":0.2047244094488189,"duration":"0.08"},{"name":"F#6","midi":90,"time":"454.35","velocity":0.23622047244094488,"duration":"0.03"},{"name":"G#2","midi":44,"time":"454.37","velocity":0.5275590551181102,"duration":"0.02"},{"name":"B4","midi":71,"time":"454.37","velocity":0.33858267716535434,"duration":"0.03"},{"name":"D#6","midi":87,"time":"454.37","velocity":0.25196850393700787,"duration":"0.10"},{"name":"D#7","midi":99,"time":"454.37","velocity":0.33070866141732286,"duration":"1.01"},{"name":"F#4","midi":66,"time":"454.38","velocity":0.2440944881889764,"duration":"0.02"},{"name":"G#5","midi":80,"time":"454.40","velocity":0.31496062992125984,"duration":"0.10"},{"name":"F#6","midi":90,"time":"454.41","velocity":0.16535433070866143,"duration":"0.05"},{"name":"C#4","midi":61,"time":"454.42","velocity":0.3228346456692913,"duration":"0.06"},{"name":"F#4","midi":66,"time":"454.42","velocity":0.23622047244094488,"duration":"0.03"},{"name":"A2","midi":45,"time":"454.43","velocity":0.4566929133858268,"duration":"0.02"},{"name":"D5","midi":74,"time":"454.44","velocity":0.25196850393700787,"duration":"0.02"},{"name":"F6","midi":89,"time":"454.44","velocity":0.14960629921259844,"duration":"0.03"},{"name":"C#2","midi":37,"time":"454.47","velocity":0.4015748031496063,"duration":"0.02"},{"name":"F#5","midi":78,"time":"454.47","velocity":0.23622047244094488,"duration":"0.02"},{"name":"A#6","midi":94,"time":"454.47","velocity":0.29133858267716534,"duration":"0.69"},{"name":"A#5","midi":82,"time":"454.48","velocity":0.3228346456692913,"duration":"0.03"},{"name":"D6","midi":86,"time":"454.48","velocity":0.28346456692913385,"duration":"0.06"},{"name":"A#3","midi":58,"time":"454.49","velocity":0.4330708661417323,"duration":"0.02"},{"name":"F5","midi":77,"time":"454.49","velocity":0.4330708661417323,"duration":"0.02"},{"name":"A4","midi":69,"time":"454.50","velocity":0.4645669291338583,"duration":"0.10"},{"name":"F#5","midi":78,"time":"454.50","velocity":0.3228346456692913,"duration":"0.02"},{"name":"C#4","midi":61,"time":"454.51","velocity":0.4645669291338583,"duration":"0.21"},{"name":"F#4","midi":66,"time":"454.51","velocity":0.3858267716535433,"duration":"0.02"},{"name":"E5","midi":76,"time":"454.51","velocity":0.47244094488188976,"duration":"0.22"},{"name":"G5","midi":79,"time":"454.51","velocity":0.2755905511811024,"duration":"0.05"},{"name":"B5","midi":83,"time":"454.51","velocity":0.4566929133858268,"duration":"0.49"},{"name":"E4","midi":64,"time":"454.52","velocity":0.47244094488188976,"duration":"0.02"},{"name":"E3","midi":52,"time":"454.53","velocity":0.33070866141732286,"duration":"0.02"},{"name":"F#5","midi":78,"time":"454.53","velocity":0.2283464566929134,"duration":"0.02"},{"name":"A#5","midi":82,"time":"454.53","velocity":0.2677165354330709,"duration":"0.02"},{"name":"E2","midi":40,"time":"454.55","velocity":0.4645669291338583,"duration":"0.02"},{"name":"B2","midi":47,"time":"454.55","velocity":0.5118110236220472,"duration":"0.05"},{"name":"D#6","midi":87,"time":"454.55","velocity":0.2204724409448819,"duration":"0.03"},{"name":"E4","midi":64,"time":"454.56","velocity":0.3858267716535433,"duration":"0.14"},{"name":"D5","midi":74,"time":"454.56","velocity":0.31496062992125984,"duration":"0.02"},{"name":"G#5","midi":80,"time":"454.56","velocity":0.23622047244094488,"duration":"0.02"},{"name":"G6","midi":91,"time":"454.57","velocity":0.13385826771653545,"duration":"0.03"},{"name":"A3","midi":57,"time":"454.58","velocity":0.47244094488188976,"duration":"0.07"},{"name":"C#5","midi":73,"time":"454.58","velocity":0.5748031496062992,"duration":"0.45"},{"name":"D6","midi":86,"time":"454.58","velocity":0.2677165354330709,"duration":"0.03"},{"name":"F#6","midi":90,"time":"454.58","velocity":0.2047244094488189,"duration":"0.03"},{"name":"G#5","midi":80,"time":"454.59","velocity":0.3858267716535433,"duration":"0.19"},{"name":"G#4","midi":68,"time":"454.60","velocity":0.33070866141732286,"duration":"0.05"},{"name":"F#5","midi":78,"time":"454.60","velocity":0.2755905511811024,"duration":"0.08"},{"name":"D#6","midi":87,"time":"454.60","velocity":0.3228346456692913,"duration":"0.08"},{"name":"C7","midi":96,"time":"454.60","velocity":0.2755905511811024,"duration":"0.26"},{"name":"D#2","midi":39,"time":"454.62","velocity":0.44881889763779526,"duration":"0.02"},{"name":"A2","midi":45,"time":"454.64","velocity":0.5118110236220472,"duration":"0.01"},{"name":"D2","midi":38,"time":"454.65","velocity":0.44881889763779526,"duration":"0.02"},{"name":"A4","midi":69,"time":"454.65","velocity":0.4015748031496063,"duration":"0.08"},{"name":"A#5","midi":82,"time":"454.66","velocity":0.25196850393700787,"duration":"0.02"},{"name":"F6","midi":89,"time":"454.66","velocity":0.2283464566929134,"duration":"0.03"},{"name":"G6","midi":91,"time":"454.67","velocity":0.2283464566929134,"duration":"0.21"},{"name":"A3","midi":57,"time":"454.69","velocity":0.5118110236220472,"duration":"0.17"},{"name":"F#4","midi":66,"time":"454.70","velocity":0.2677165354330709,"duration":"0.02"},{"name":"D#6","midi":87,"time":"454.70","velocity":0.29133858267716534,"duration":"0.23"},{"name":"A2","midi":45,"time":"454.71","velocity":0.5118110236220472,"duration":"0.01"},{"name":"F4","midi":65,"time":"454.72","velocity":0.36220472440944884,"duration":"0.05"},{"name":"F5","midi":77,"time":"454.72","velocity":0.3700787401574803,"duration":"0.06"},{"name":"G4","midi":67,"time":"454.73","velocity":0.31496062992125984,"duration":"0.02"},{"name":"F2","midi":41,"time":"454.74","velocity":0.47244094488188976,"duration":"0.02"},{"name":"B4","midi":71,"time":"454.74","velocity":0.2992125984251969,"duration":"0.03"},{"name":"D#5","midi":75,"time":"454.74","velocity":0.2755905511811024,"duration":"0.03"},{"name":"E4","midi":64,"time":"454.77","velocity":0.49606299212598426,"duration":"0.09"},{"name":"F#6","midi":90,"time":"454.78","velocity":0.2125984251968504,"duration":"0.07"},{"name":"F#5","midi":78,"time":"454.79","velocity":0.2677165354330709,"duration":"0.03"},{"name":"C#4","midi":61,"time":"454.80","velocity":0.33858267716535434,"duration":"0.06"},{"name":"F5","midi":77,"time":"454.81","velocity":0.2992125984251969,"duration":"0.05"},{"name":"A6","midi":93,"time":"454.81","velocity":0.23622047244094488,"duration":"0.05"},{"name":"G4","midi":67,"time":"454.83","velocity":0.28346456692913385,"duration":"0.02"},{"name":"G#5","midi":80,"time":"454.83","velocity":0.28346456692913385,"duration":"0.02"},{"name":"D3","midi":50,"time":"454.84","velocity":0.4094488188976378,"duration":"0.02"},{"name":"A5","midi":81,"time":"454.85","velocity":0.2992125984251969,"duration":"0.02"},{"name":"G#2","midi":44,"time":"454.86","velocity":0.5196850393700787,"duration":"0.01"},{"name":"G#4","midi":68,"time":"454.86","velocity":0.2283464566929134,"duration":"0.02"},{"name":"G#5","midi":80,"time":"454.86","velocity":0.25196850393700787,"duration":"0.03"},{"name":"F#6","midi":90,"time":"454.86","velocity":0.4015748031496063,"duration":"0.73"},{"name":"B2","midi":47,"time":"454.87","velocity":0.5511811023622047,"duration":"0.01"},{"name":"E4","midi":64,"time":"454.87","velocity":0.49606299212598426,"duration":"0.33"},{"name":"C3","midi":48,"time":"454.88","velocity":0.5118110236220472,"duration":"0.02"},{"name":"A4","midi":69,"time":"454.88","velocity":0.3779527559055118,"duration":"0.17"},{"name":"F5","midi":77,"time":"454.88","velocity":0.30708661417322836,"duration":"0.03"},{"name":"F3","midi":53,"time":"454.90","velocity":0.4566929133858268,"duration":"0.02"},{"name":"A5","midi":81,"time":"454.90","velocity":0.3779527559055118,"duration":"0.13"},{"name":"C7","midi":96,"time":"454.90","velocity":0.2440944881889764,"duration":"0.02"},{"name":"B4","midi":71,"time":"454.91","velocity":0.2755905511811024,"duration":"0.02"},{"name":"G#5","midi":80,"time":"454.91","velocity":0.2440944881889764,"duration":"0.03"},{"name":"B2","midi":47,"time":"454.92","velocity":0.3937007874015748,"duration":"0.02"},{"name":"A3","midi":57,"time":"454.92","velocity":0.47244094488188976,"duration":"0.27"},{"name":"C#4","midi":61,"time":"454.92","velocity":0.2992125984251969,"duration":"0.02"},{"name":"D6","midi":86,"time":"454.92","velocity":0.2204724409448819,"duration":"0.03"},{"name":"F#5","midi":78,"time":"454.94","velocity":0.2755905511811024,"duration":"0.08"},{"name":"D#6","midi":87,"time":"454.94","velocity":0.25196850393700787,"duration":"0.06"},{"name":"G6","midi":91,"time":"454.94","velocity":0.1968503937007874,"duration":"0.06"},{"name":"E3","midi":52,"time":"454.95","velocity":0.3464566929133858,"duration":"0.02"},{"name":"C#4","midi":61,"time":"454.95","velocity":0.31496062992125984,"duration":"0.05"},{"name":"C7","midi":96,"time":"454.97","velocity":0.2125984251968504,"duration":"0.13"},{"name":"G#5","midi":80,"time":"454.98","velocity":0.3464566929133858,"duration":"0.12"},{"name":"F#2","midi":42,"time":"454.99","velocity":0.4330708661417323,"duration":"0.02"},{"name":"B4","midi":71,"time":"454.99","velocity":0.4881889763779528,"duration":"0.38"},{"name":"A2","midi":45,"time":"455.00","velocity":0.48031496062992124,"duration":"0.02"},{"name":"E3","midi":52,"time":"455.00","velocity":0.3700787401574803,"duration":"0.02"},{"name":"B5","midi":83,"time":"455.01","velocity":0.5590551181102362,"duration":"0.98"},{"name":"D#6","midi":87,"time":"455.01","velocity":0.2125984251968504,"duration":"0.05"},{"name":"G7","midi":103,"time":"455.01","velocity":0.1732283464566929,"duration":"0.26"},{"name":"F5","midi":77,"time":"455.02","velocity":0.2283464566929134,"duration":"0.02"},{"name":"G6","midi":91,"time":"455.03","velocity":0.2047244094488189,"duration":"0.06"},{"name":"C#5","midi":73,"time":"455.05","velocity":0.5275590551181102,"duration":"0.15"},{"name":"G#2","midi":44,"time":"455.06","velocity":0.4645669291338583,"duration":"0.02"},{"name":"D#5","midi":75,"time":"455.06","velocity":0.25196850393700787,"duration":"0.06"},{"name":"F5","midi":77,"time":"455.06","velocity":0.25984251968503935,"duration":"0.07"},{"name":"A5","midi":81,"time":"455.06","velocity":0.33858267716535434,"duration":"0.07"},{"name":"D#6","midi":87,"time":"455.07","velocity":0.2677165354330709,"duration":"0.10"},{"name":"G4","midi":67,"time":"455.08","velocity":0.2283464566929134,"duration":"0.05"},{"name":"G#2","midi":44,"time":"455.09","velocity":0.44881889763779526,"duration":"0.02"},{"name":"C#4","midi":61,"time":"455.09","velocity":0.31496062992125984,"duration":"0.09"},{"name":"G6","midi":91,"time":"455.10","velocity":0.18110236220472442,"duration":"0.03"},{"name":"C7","midi":96,"time":"455.10","velocity":0.2440944881889764,"duration":"0.07"},{"name":"E3","midi":52,"time":"455.12","velocity":0.3700787401574803,"duration":"0.02"},{"name":"F5","midi":77,"time":"455.14","velocity":0.2755905511811024,"duration":"0.02"},{"name":"A5","midi":81,"time":"455.14","velocity":0.3779527559055118,"duration":"0.22"},{"name":"E3","midi":52,"time":"455.15","velocity":0.3937007874015748,"duration":"0.02"},{"name":"A#6","midi":94,"time":"455.16","velocity":0.2440944881889764,"duration":"0.08"},{"name":"F6","midi":89,"time":"455.17","velocity":0.2283464566929134,"duration":"0.19"},{"name":"E3","midi":52,"time":"455.19","velocity":0.4015748031496063,"duration":"0.02"},{"name":"F#5","midi":78,"time":"455.19","velocity":0.31496062992125984,"duration":"0.03"},{"name":"C7","midi":96,"time":"455.19","velocity":0.2283464566929134,"duration":"0.08"},{"name":"G#5","midi":80,"time":"455.20","velocity":0.28346456692913385,"duration":"0.03"},{"name":"E4","midi":64,"time":"455.21","velocity":0.33070866141732286,"duration":"0.05"},{"name":"G4","midi":67,"time":"455.21","velocity":0.2440944881889764,"duration":"0.02"},{"name":"C#5","midi":73,"time":"455.21","velocity":0.5511811023622047,"duration":"0.16"},{"name":"A3","midi":57,"time":"455.22","velocity":0.3700787401574803,"duration":"0.02"},{"name":"D#6","midi":87,"time":"455.22","velocity":0.25984251968503935,"duration":"0.10"},{"name":"D3","midi":50,"time":"455.24","velocity":0.5275590551181102,"duration":"0.01"},{"name":"G#5","midi":80,"time":"455.24","velocity":0.33070866141732286,"duration":"0.05"},{"name":"F#2","midi":42,"time":"455.26","velocity":0.5826771653543307,"duration":"0.01"},{"name":"F#4","midi":66,"time":"455.26","velocity":0.36220472440944884,"duration":"0.02"},{"name":"G6","midi":91,"time":"455.26","velocity":0.2440944881889764,"duration":"0.21"},{"name":"F2","midi":41,"time":"455.27","velocity":0.5826771653543307,"duration":"0.01"},{"name":"G#3","midi":56,"time":"455.27","velocity":0.4015748031496063,"duration":"0.02"},{"name":"A#6","midi":94,"time":"455.27","velocity":0.30708661417322836,"duration":"1.20"},{"name":"A4","midi":69,"time":"455.28","velocity":0.3228346456692913,"duration":"0.02"},{"name":"G5","midi":79,"time":"455.28","velocity":0.29133858267716534,"duration":"0.05"},{"name":"F1","midi":29,"time":"455.29","velocity":0.5669291338582677,"duration":"0.02"},{"name":"C3","midi":48,"time":"455.29","velocity":0.4094488188976378,"duration":"0.02"},{"name":"A3","midi":57,"time":"455.29","velocity":0.4251968503937008,"duration":"0.16"},{"name":"C7","midi":96,"time":"455.29","velocity":0.2047244094488189,"duration":"0.10"},{"name":"D4","midi":62,"time":"455.30","velocity":0.30708661417322836,"duration":"0.02"},{"name":"G4","midi":67,"time":"455.30","velocity":0.25196850393700787,"duration":"0.05"},{"name":"D#5","midi":75,"time":"455.30","velocity":0.29133858267716534,"duration":"0.03"},{"name":"G#6","midi":92,"time":"455.30","velocity":0.5118110236220472,"duration":"3.41"},{"name":"A#1","midi":34,"time":"455.31","velocity":0.5590551181102362,"duration":"0.01"},{"name":"G#2","midi":44,"time":"455.33","velocity":0.5118110236220472,"duration":"0.01"},{"name":"E4","midi":64,"time":"455.33","velocity":0.49606299212598426,"duration":"0.10"},{"name":"F#5","midi":78,"time":"455.33","velocity":0.33858267716535434,"duration":"0.21"},{"name":"G#5","midi":80,"time":"455.33","velocity":0.30708661417322836,"duration":"0.06"},{"name":"B2","midi":47,"time":"455.34","velocity":0.5118110236220472,"duration":"0.02"},{"name":"G#2","midi":44,"time":"455.36","velocity":0.5275590551181102,"duration":"0.02"},{"name":"G4","midi":67,"time":"455.36","velocity":0.29133858267716534,"duration":"0.02"},{"name":"A#5","midi":82,"time":"455.36","velocity":0.23622047244094488,"duration":"0.02"},{"name":"C#5","midi":73,"time":"455.38","velocity":0.6377952755905512,"duration":"0.55"},{"name":"D#6","midi":87,"time":"455.40","velocity":0.2047244094488189,"duration":"0.06"},{"name":"F6","midi":89,"time":"455.40","velocity":0.07874015748031496,"duration":"0.03"},{"name":"D#7","midi":99,"time":"455.41","velocity":0.2755905511811024,"duration":"0.19"},{"name":"E3","midi":52,"time":"455.42","velocity":0.33858267716535434,"duration":"0.10"},{"name":"G#5","midi":80,"time":"455.42","velocity":0.25196850393700787,"duration":"0.03"},{"name":"F4","midi":65,"time":"455.43","velocity":0.3937007874015748,"duration":"0.03"},{"name":"F6","midi":89,"time":"455.44","velocity":0.1889763779527559,"duration":"0.08"},{"name":"C7","midi":96,"time":"455.44","velocity":0.2440944881889764,"duration":"0.23"},{"name":"A3","midi":57,"time":"455.47","velocity":0.3779527559055118,"duration":"0.07"},{"name":"E4","midi":64,"time":"455.47","velocity":0.3937007874015748,"duration":"0.10"},{"name":"G#5","midi":80,"time":"455.47","velocity":0.2440944881889764,"duration":"0.05"},{"name":"G#2","midi":44,"time":"455.48","velocity":0.5118110236220472,"duration":"0.01"},{"name":"D#6","midi":87,"time":"455.48","velocity":0.2125984251968504,"duration":"0.05"},{"name":"A2","midi":45,"time":"455.49","velocity":0.5196850393700787,"duration":"0.02"},{"name":"B4","midi":71,"time":"455.49","velocity":0.14960629921259844,"duration":"0.03"},{"name":"A#5","midi":82,"time":"455.50","velocity":0.25196850393700787,"duration":"0.05"},{"name":"G7","midi":103,"time":"455.50","velocity":0.18110236220472442,"duration":"0.15"},{"name":"G#2","midi":44,"time":"455.51","velocity":0.5354330708661418,"duration":"0.01"},{"name":"A#2","midi":46,"time":"455.53","velocity":0.5118110236220472,"duration":"0.01"},{"name":"E3","midi":52,"time":"455.53","velocity":0.3779527559055118,"duration":"0.02"},{"name":"B4","midi":71,"time":"455.53","velocity":0.23622047244094488,"duration":"0.03"},{"name":"G5","midi":79,"time":"455.53","velocity":0.1889763779527559,"duration":"0.03"},{"name":"A2","midi":45,"time":"455.55","velocity":0.5590551181102362,"duration":"0.02"},{"name":"F#5","midi":78,"time":"455.55","velocity":0.25196850393700787,"duration":"0.08"},{"name":"F6","midi":89,"time":"455.55","velocity":0.2204724409448819,"duration":"0.03"},{"name":"E3","midi":52,"time":"455.57","velocity":0.47244094488188976,"duration":"0.06"},{"name":"A3","midi":57,"time":"455.57","velocity":0.23622047244094488,"duration":"0.03"},{"name":"G#5","midi":80,"time":"455.57","velocity":0.2755905511811024,"duration":"0.03"},{"name":"D#6","midi":87,"time":"455.57","velocity":0.25984251968503935,"duration":"0.03"},{"name":"G#2","midi":44,"time":"455.58","velocity":0.5354330708661418,"duration":"0.01"},{"name":"B4","midi":71,"time":"455.58","velocity":0.3228346456692913,"duration":"0.05"},{"name":"F6","midi":89,"time":"455.60","velocity":0.2047244094488189,"duration":"0.05"},{"name":"D#7","midi":99,"time":"455.60","velocity":0.23622047244094488,"duration":"0.31"},{"name":"G#2","midi":44,"time":"455.62","velocity":0.6377952755905512,"duration":"0.02"},{"name":"G6","midi":91,"time":"455.62","velocity":0.14173228346456693,"duration":"0.05"},{"name":"A#4","midi":70,"time":"455.63","velocity":0.2677165354330709,"duration":"0.02"},{"name":"G#5","midi":80,"time":"455.63","velocity":0.33070866141732286,"duration":"0.06"},{"name":"D6","midi":86,"time":"455.63","velocity":0.41732283464566927,"duration":"0.03"},{"name":"F#6","midi":90,"time":"455.63","velocity":0.2283464566929134,"duration":"0.08"},{"name":"F#2","midi":42,"time":"455.64","velocity":0.6220472440944882,"duration":"0.03"},{"name":"G#3","midi":56,"time":"455.64","velocity":0.5039370078740157,"duration":"0.03"},{"name":"F#4","midi":66,"time":"455.65","velocity":0.29133858267716534,"duration":"0.05"},{"name":"B4","midi":71,"time":"455.65","velocity":0.4094488188976378,"duration":"0.07"},{"name":"E5","midi":76,"time":"455.65","velocity":0.4645669291338583,"duration":"0.37"},{"name":"F#5","midi":78,"time":"455.65","velocity":0.3700787401574803,"duration":"0.14"},{"name":"C#4","midi":61,"time":"455.66","velocity":0.25196850393700787,"duration":"0.02"},{"name":"D#6","midi":87,"time":"455.66","velocity":0.1889763779527559,"duration":"0.06"},{"name":"G7","midi":103,"time":"455.66","velocity":0.23622047244094488,"duration":"0.45"},{"name":"G5","midi":79,"time":"455.67","velocity":0.28346456692913385,"duration":"0.03"},{"name":"F6","midi":89,"time":"455.67","velocity":0.16535433070866143,"duration":"0.07"},{"name":"A#1","midi":34,"time":"455.69","velocity":0.5590551181102362,"duration":"0.01"},{"name":"D#3","midi":51,"time":"455.69","velocity":0.5118110236220472,"duration":"0.01"},{"name":"E4","midi":64,"time":"455.69","velocity":0.3543307086614173,"duration":"0.02"},{"name":"A5","midi":81,"time":"455.69","velocity":0.25196850393700787,"duration":"0.03"},{"name":"C7","midi":96,"time":"455.69","velocity":0.2992125984251969,"duration":"0.27"},{"name":"D7","midi":98,"time":"455.69","velocity":0.3700787401574803,"duration":"1.13"},{"name":"C#2","midi":37,"time":"455.70","velocity":0.5196850393700787,"duration":"0.01"},{"name":"E3","midi":52,"time":"455.70","velocity":0.5511811023622047,"duration":"0.29"},{"name":"G#5","midi":80,"time":"455.70","velocity":0.3464566929133858,"duration":"0.06"},{"name":"A4","midi":69,"time":"455.72","velocity":0.33858267716535434,"duration":"0.16"},{"name":"D#6","midi":87,"time":"455.73","velocity":0.2755905511811024,"duration":"0.02"},{"name":"A6","midi":93,"time":"455.73","velocity":0.2047244094488189,"duration":"0.06"},{"name":"A3","midi":57,"time":"455.76","velocity":0.36220472440944884,"duration":"0.02"},{"name":"A5","midi":81,"time":"455.76","velocity":0.3858267716535433,"duration":"0.10"},{"name":"A2","midi":45,"time":"455.77","velocity":0.44881889763779526,"duration":"0.02"},{"name":"G#5","midi":80,"time":"455.78","velocity":0.3464566929133858,"duration":"0.06"},{"name":"D#6","midi":87,"time":"455.78","velocity":0.16535433070866143,"duration":"0.05"},{"name":"A3","midi":57,"time":"455.79","velocity":0.33858267716535434,"duration":"0.02"},{"name":"C#4","midi":61,"time":"455.79","velocity":0.3937007874015748,"duration":"0.14"},{"name":"G5","midi":79,"time":"455.79","velocity":0.29133858267716534,"duration":"0.02"},{"name":"B4","midi":71,"time":"455.80","velocity":0.29133858267716534,"duration":"0.05"},{"name":"F#5","midi":78,"time":"455.80","velocity":0.36220472440944884,"duration":"0.15"},{"name":"A3","midi":57,"time":"455.83","velocity":0.30708661417322836,"duration":"0.02"},{"name":"F#4","midi":66,"time":"455.85","velocity":0.2992125984251969,"duration":"0.02"},{"name":"G#5","midi":80,"time":"455.86","velocity":0.3858267716535433,"duration":"0.13"},{"name":"A3","midi":57,"time":"455.88","velocity":0.3464566929133858,"duration":"0.02"},{"name":"F#4","midi":66,"time":"455.88","velocity":0.2992125984251969,"duration":"0.02"},{"name":"G4","midi":67,"time":"455.90","velocity":0.28346456692913385,"duration":"0.02"},{"name":"C6","midi":84,"time":"455.90","velocity":0.5669291338582677,"duration":"0.01"},{"name":"D#6","midi":87,"time":"455.90","velocity":0.2992125984251969,"duration":"0.14"},{"name":"A4","midi":69,"time":"455.91","velocity":0.29133858267716534,"duration":"0.06"},{"name":"C#6","midi":85,"time":"455.91","velocity":0.6692913385826772,"duration":"0.06"},{"name":"F6","midi":89,"time":"455.91","velocity":0.14173228346456693,"duration":"0.05"},{"name":"A3","midi":57,"time":"455.92","velocity":0.3858267716535433,"duration":"0.02"},{"name":"G6","midi":91,"time":"455.92","velocity":0.13385826771653545,"duration":"0.03"},{"name":"G5","midi":79,"time":"455.93","velocity":0.3228346456692913,"duration":"0.03"},{"name":"A2","midi":45,"time":"455.94","velocity":0.4094488188976378,"duration":"0.02"},{"name":"C#5","midi":73,"time":"455.94","velocity":0.3937007874015748,"duration":"0.08"},{"name":"A5","midi":81,"time":"455.97","velocity":0.33070866141732286,"duration":"0.05"},{"name":"F6","midi":89,"time":"455.97","velocity":0.18110236220472442,"duration":"0.03"},{"name":"A#4","midi":70,"time":"455.98","velocity":0.3543307086614173,"duration":"0.03"},{"name":"G5","midi":79,"time":"455.98","velocity":0.3543307086614173,"duration":"0.07"},{"name":"C#6","midi":85,"time":"455.98","velocity":0.6850393700787402,"duration":"2.33"},{"name":"C7","midi":96,"time":"455.98","velocity":0.2283464566929134,"duration":"0.03"},{"name":"D#3","midi":51,"time":"455.99","velocity":0.5511811023622047,"duration":"0.01"},{"name":"A#3","midi":58,"time":"455.99","velocity":0.44881889763779526,"duration":"0.03"},{"name":"D#7","midi":99,"time":"455.99","velocity":0.33858267716535434,"duration":"2.33"},{"name":"F2","midi":41,"time":"456.00","velocity":0.4015748031496063,"duration":"0.02"},{"name":"E3","midi":52,"time":"456.00","velocity":0.47244094488188976,"duration":"0.02"},{"name":"G#4","midi":68,"time":"456.00","velocity":0.5275590551181102,"duration":"0.03"},{"name":"D#5","midi":75,"time":"456.00","velocity":0.41732283464566927,"duration":"0.05"},{"name":"C4","midi":60,"time":"456.01","velocity":0.44881889763779526,"duration":"0.03"},{"name":"B5","midi":83,"time":"456.01","velocity":0.5511811023622047,"duration":"1.55"},{"name":"D#3","midi":51,"time":"456.02","velocity":0.5354330708661418,"duration":"0.02"},{"name":"A5","midi":81,"time":"456.02","velocity":0.3700787401574803,"duration":"0.19"},{"name":"E6","midi":88,"time":"456.02","velocity":0.31496062992125984,"duration":"0.10"},{"name":"C7","midi":96,"time":"456.02","velocity":0.31496062992125984,"duration":"0.09"},{"name":"G#3","midi":56,"time":"456.03","velocity":0.48031496062992124,"duration":"0.02"},{"name":"F4","midi":65,"time":"456.03","velocity":0.36220472440944884,"duration":"0.02"},{"name":"C#5","midi":73,"time":"456.03","velocity":0.5433070866141733,"duration":"0.49"},{"name":"F#5","midi":78,"time":"456.03","velocity":0.3543307086614173,"duration":"0.05"},{"name":"A4","midi":69,"time":"456.05","velocity":0.4645669291338583,"duration":"0.40"},{"name":"E5","midi":76,"time":"456.05","velocity":0.4251968503937008,"duration":"0.38"},{"name":"A#5","midi":82,"time":"456.05","velocity":0.2440944881889764,"duration":"0.03"},{"name":"F6","midi":89,"time":"456.05","velocity":0.23622047244094488,"duration":"0.05"},{"name":"A3","midi":57,"time":"456.06","velocity":0.5275590551181102,"duration":"0.08"},{"name":"F#4","midi":66,"time":"456.06","velocity":0.3464566929133858,"duration":"0.03"},{"name":"E3","midi":52,"time":"456.07","velocity":0.5039370078740157,"duration":"0.05"},{"name":"G5","midi":79,"time":"456.08","velocity":0.31496062992125984,"duration":"0.17"},{"name":"F#6","midi":90,"time":"456.08","velocity":0.25196850393700787,"duration":"0.14"},{"name":"F#5","midi":78,"time":"456.10","velocity":0.2992125984251969,"duration":"0.03"},{"name":"F6","midi":89,"time":"456.10","velocity":0.25196850393700787,"duration":"0.09"},{"name":"F#4","midi":66,"time":"456.12","velocity":0.3464566929133858,"duration":"0.03"},{"name":"E3","midi":52,"time":"456.13","velocity":0.48031496062992124,"duration":"0.09"},{"name":"C7","midi":96,"time":"456.13","velocity":0.30708661417322836,"duration":"0.17"},{"name":"D6","midi":86,"time":"456.15","velocity":0.2283464566929134,"duration":"0.06"},{"name":"A2","midi":45,"time":"456.16","velocity":0.5196850393700787,"duration":"0.02"},{"name":"G#5","midi":80,"time":"456.19","velocity":0.3464566929133858,"duration":"0.03"},{"name":"G7","midi":103,"time":"456.19","velocity":0.2755905511811024,"duration":"0.10"},{"name":"G4","midi":67,"time":"456.20","velocity":0.3464566929133858,"duration":"0.03"},{"name":"D#6","midi":87,"time":"456.20","velocity":0.23622047244094488,"duration":"0.24"},{"name":"F#5","midi":78,"time":"456.23","velocity":0.2440944881889764,"duration":"0.03"},{"name":"G#5","midi":80,"time":"456.24","velocity":0.33070866141732286,"duration":"0.02"},{"name":"D6","midi":86,"time":"456.24","velocity":0.1968503937007874,"duration":"0.03"},{"name":"E3","midi":52,"time":"456.26","velocity":0.41732283464566927,"duration":"0.02"},{"name":"B4","midi":71,"time":"456.26","velocity":0.25196850393700787,"duration":"0.02"},{"name":"G5","midi":79,"time":"456.27","velocity":0.3858267716535433,"duration":"0.17"},{"name":"E4","midi":64,"time":"456.28","velocity":0.47244094488188976,"duration":"0.20"},{"name":"A2","midi":45,"time":"456.29","velocity":0.4566929133858268,"duration":"0.02"},{"name":"B4","midi":71,"time":"456.29","velocity":0.25196850393700787,"duration":"0.02"},{"name":"E3","midi":52,"time":"456.30","velocity":0.4566929133858268,"duration":"0.09"},{"name":"G7","midi":103,"time":"456.31","velocity":0.11811023622047244,"duration":"0.05"},{"name":"B4","midi":71,"time":"456.33","velocity":0.25196850393700787,"duration":"0.02"},{"name":"D6","midi":86,"time":"456.34","velocity":0.16535433070866143,"duration":"0.03"},{"name":"F5","midi":77,"time":"456.35","velocity":0.23622047244094488,"duration":"0.06"},{"name":"G#5","midi":80,"time":"456.35","velocity":0.3228346456692913,"duration":"0.03"},{"name":"C7","midi":96,"time":"456.35","velocity":0.2440944881889764,"duration":"0.23"},{"name":"F#6","midi":90,"time":"456.36","velocity":0.4015748031496063,"duration":"0.67"},{"name":"A3","midi":57,"time":"456.37","velocity":0.41732283464566927,"duration":"0.03"},{"name":"D#3","midi":51,"time":"456.40","velocity":0.4645669291338583,"duration":"0.02"},{"name":"F2","midi":41,"time":"456.41","velocity":0.4251968503937008,"duration":"0.02"},{"name":"B4","midi":71,"time":"456.41","velocity":0.5275590551181102,"duration":"0.29"},{"name":"E3","midi":52,"time":"456.42","velocity":0.49606299212598426,"duration":"0.06"},{"name":"A3","midi":57,"time":"456.42","velocity":0.4645669291338583,"duration":"0.22"},{"name":"D#5","midi":75,"time":"456.42","velocity":0.30708661417322836,"duration":"0.02"},{"name":"G4","midi":67,"time":"456.43","velocity":0.2283464566929134,"duration":"0.02"},{"name":"G#5","midi":80,"time":"456.44","velocity":0.44881889763779526,"duration":"0.09"},{"name":"G7","midi":103,"time":"456.44","velocity":0.16535433070866143,"duration":"0.19"},{"name":"A5","midi":81,"time":"456.45","velocity":0.41732283464566927,"duration":"0.16"},{"name":"A#5","midi":82,"time":"456.45","velocity":0.2755905511811024,"duration":"0.05"},{"name":"G4","midi":67,"time":"456.47","velocity":0.2992125984251969,"duration":"0.06"},{"name":"D#5","midi":75,"time":"456.47","velocity":0.2992125984251969,"duration":"0.02"},{"name":"C#4","midi":61,"time":"456.48","velocity":0.36220472440944884,"duration":"0.02"},{"name":"F6","midi":89,"time":"456.48","velocity":0.14960629921259844,"duration":"0.05"},{"name":"E3","midi":52,"time":"456.49","velocity":0.49606299212598426,"duration":"0.26"},{"name":"D#6","midi":87,"time":"456.49","velocity":0.16535433070866143,"duration":"0.07"},{"name":"A2","midi":45,"time":"456.50","velocity":0.47244094488188976,"duration":"0.06"},{"name":"C#4","midi":61,"time":"456.51","velocity":0.33070866141732286,"duration":"0.05"},{"name":"D#5","midi":75,"time":"456.52","velocity":0.3228346456692913,"duration":"0.03"},{"name":"F#5","midi":78,"time":"456.52","velocity":0.2755905511811024,"duration":"0.05"},{"name":"E5","midi":76,"time":"456.53","velocity":0.4645669291338583,"duration":"0.56"},{"name":"G5","midi":79,"time":"456.53","velocity":0.31496062992125984,"duration":"0.03"},{"name":"C#5","midi":73,"time":"456.55","velocity":0.5275590551181102,"duration":"0.20"},{"name":"A#6","midi":94,"time":"456.56","velocity":0.2440944881889764,"duration":"0.21"},{"name":"A2","midi":45,"time":"456.57","velocity":0.48031496062992124,"duration":"0.07"},{"name":"C#4","midi":61,"time":"456.57","velocity":0.33858267716535434,"duration":"0.06"},{"name":"G#5","midi":80,"time":"456.57","velocity":0.36220472440944884,"duration":"0.20"},{"name":"D#6","midi":87,"time":"456.57","velocity":0.11811023622047244,"duration":"0.03"},{"name":"F6","midi":89,"time":"456.57","velocity":0.30708661417322836,"duration":"0.07"},{"name":"G#4","midi":68,"time":"456.60","velocity":0.23622047244094488,"duration":"0.03"},{"name":"D#6","midi":87,"time":"456.63","velocity":0.2047244094488189,"duration":"0.07"},{"name":"C7","midi":96,"time":"456.63","velocity":0.2755905511811024,"duration":"0.03"},{"name":"A5","midi":81,"time":"456.64","velocity":0.3779527559055118,"duration":"0.15"},{"name":"A2","midi":45,"time":"456.65","velocity":0.44881889763779526,"duration":"0.06"},{"name":"G7","midi":103,"time":"456.65","velocity":0.14960629921259844,"duration":"0.06"},{"name":"C#4","midi":61,"time":"456.67","velocity":0.2992125984251969,"duration":"0.08"},{"name":"C7","midi":96,"time":"456.67","velocity":0.18110236220472442,"duration":"0.05"},{"name":"B4","midi":71,"time":"456.71","velocity":0.49606299212598426,"duration":"0.13"},{"name":"G6","midi":91,"time":"456.71","velocity":0.25196850393700787,"duration":"0.07"},{"name":"A2","midi":45,"time":"456.72","velocity":0.4566929133858268,"duration":"0.02"},{"name":"F6","midi":89,"time":"456.72","velocity":0.25196850393700787,"duration":"0.08"},{"name":"F7","midi":101,"time":"456.73","velocity":0.3543307086614173,"duration":"5.33"},{"name":"F#2","midi":42,"time":"456.74","velocity":0.5984251968503937,"duration":"0.01"},{"name":"F#5","midi":78,"time":"456.74","velocity":0.33858267716535434,"duration":"0.26"},{"name":"D#6","midi":87,"time":"456.74","velocity":0.09448818897637795,"duration":"0.03"},{"name":"C7","midi":96,"time":"456.74","velocity":0.25984251968503935,"duration":"0.09"},{"name":"F2","midi":41,"time":"456.76","velocity":0.6377952755905512,"duration":"0.02"},{"name":"A4","midi":69,"time":"456.76","velocity":0.2440944881889764,"duration":"0.02"},{"name":"C#5","midi":73,"time":"456.77","velocity":0.4094488188976378,"duration":"0.06"},{"name":"A#3","midi":58,"time":"456.78","velocity":0.4330708661417323,"duration":"0.02"},{"name":"G#5","midi":80,"time":"456.78","velocity":0.3858267716535433,"duration":"0.03"},{"name":"A#6","midi":94,"time":"456.78","velocity":0.2992125984251969,"duration":"0.76"},{"name":"G6","midi":91,"time":"456.79","velocity":0.29133858267716534,"duration":"0.10"},{"name":"A1","midi":33,"time":"456.80","velocity":0.5118110236220472,"duration":"0.03"},{"name":"D#3","midi":51,"time":"456.80","velocity":0.3858267716535433,"duration":"0.02"},{"name":"A3","midi":57,"time":"456.80","velocity":0.4330708661417323,"duration":"0.33"},{"name":"A5","midi":81,"time":"456.80","velocity":0.4015748031496063,"duration":"0.22"},{"name":"D6","midi":86,"time":"456.80","velocity":0.16535433070866143,"duration":"0.03"},{"name":"C#4","midi":61,"time":"456.81","velocity":0.3228346456692913,"duration":"0.02"},{"name":"D7","midi":98,"time":"456.83","velocity":0.3228346456692913,"duration":"0.49"},{"name":"E3","midi":52,"time":"456.84","velocity":0.47244094488188976,"duration":"0.08"},{"name":"C#5","midi":73,"time":"456.84","velocity":0.5748031496062992,"duration":"0.27"},{"name":"G#5","midi":80,"time":"456.84","velocity":0.2677165354330709,"duration":"0.02"},{"name":"C7","midi":96,"time":"456.85","velocity":0.2125984251968504,"duration":"0.30"},{"name":"A4","midi":69,"time":"456.86","velocity":0.44881889763779526,"duration":"0.30"},{"name":"D#6","midi":87,"time":"456.86","velocity":0.14173228346456693,"duration":"0.03"},{"name":"G#5","midi":80,"time":"456.87","velocity":0.33858267716535434,"duration":"0.03"},{"name":"C#4","midi":61,"time":"456.88","velocity":0.2992125984251969,"duration":"0.02"},{"name":"F6","midi":89,"time":"456.90","velocity":0.25984251968503935,"duration":"0.06"},{"name":"B4","midi":71,"time":"456.92","velocity":0.2677165354330709,"duration":"0.02"},{"name":"E3","midi":52,"time":"456.93","velocity":0.4251968503937008,"duration":"0.08"},{"name":"C#4","midi":61,"time":"456.94","velocity":0.3700787401574803,"duration":"0.08"},{"name":"G#5","midi":80,"time":"456.95","velocity":0.33858267716535434,"duration":"0.02"},{"name":"F4","midi":65,"time":"456.97","velocity":0.25196850393700787,"duration":"0.02"},{"name":"G6","midi":91,"time":"456.97","velocity":0.2283464566929134,"duration":"0.31"},{"name":"B4","midi":71,"time":"456.98","velocity":0.28346456692913385,"duration":"0.08"},{"name":"G5","midi":79,"time":"457.00","velocity":0.25196850393700787,"duration":"0.02"},{"name":"D#6","midi":87,"time":"457.00","velocity":0.1889763779527559,"duration":"0.20"},{"name":"E4","midi":64,"time":"457.01","velocity":0.4881889763779528,"duration":"0.14"},{"name":"F#5","midi":78,"time":"457.01","velocity":0.30708661417322836,"duration":"0.12"},{"name":"E3","midi":52,"time":"457.02","velocity":0.4645669291338583,"duration":"0.09"},{"name":"G#5","midi":80,"time":"457.02","velocity":0.41732283464566927,"duration":"0.10"},{"name":"F6","midi":89,"time":"457.02","velocity":0.25984251968503935,"duration":"0.08"},{"name":"B4","midi":71,"time":"457.07","velocity":0.2992125984251969,"duration":"0.02"},{"name":"C#4","midi":61,"time":"457.10","velocity":0.4015748031496063,"duration":"0.03"},{"name":"D5","midi":74,"time":"457.10","velocity":0.2204724409448819,"duration":"0.03"},{"name":"A6","midi":93,"time":"457.10","velocity":0.11023622047244094,"duration":"0.06"},{"name":"G#2","midi":44,"time":"457.12","velocity":0.4566929133858268,"duration":"0.02"},{"name":"D#3","midi":51,"time":"457.12","velocity":0.5039370078740157,"duration":"0.02"},{"name":"C5","midi":72,"time":"457.12","velocity":0.4409448818897638,"duration":"0.03"},{"name":"G5","midi":79,"time":"457.12","velocity":0.30708661417322836,"duration":"0.02"},{"name":"C3","midi":48,"time":"457.14","velocity":0.5590551181102362,"duration":"0.01"},{"name":"F#5","midi":78,"time":"457.14","velocity":0.25196850393700787,"duration":"0.07"},{"name":"G#5","midi":80,"time":"457.14","velocity":0.41732283464566927,"duration":"0.13"},{"name":"F#6","midi":90,"time":"457.14","velocity":0.4094488188976378,"duration":"0.41"},{"name":"A#2","midi":46,"time":"457.15","velocity":0.5511811023622047,"duration":"0.01"},{"name":"F#4","midi":66,"time":"457.15","velocity":0.2992125984251969,"duration":"0.06"},{"name":"B4","midi":71,"time":"457.15","velocity":0.4881889763779528,"duration":"0.38"},{"name":"C#5","midi":73,"time":"457.15","velocity":0.5905511811023622,"duration":"0.45"},{"name":"D#5","midi":75,"time":"457.15","velocity":0.33070866141732286,"duration":"0.05"},{"name":"A3","midi":57,"time":"457.16","velocity":0.4094488188976378,"duration":"0.07"},{"name":"E5","midi":76,"time":"457.16","velocity":0.4330708661417323,"duration":"0.10"},{"name":"F1","midi":29,"time":"457.17","velocity":0.33858267716535434,"duration":"0.02"},{"name":"F6","midi":89,"time":"457.17","velocity":0.25984251968503935,"duration":"0.12"},{"name":"C7","midi":96,"time":"457.17","velocity":0.2283464566929134,"duration":"0.05"},{"name":"E3","midi":52,"time":"457.19","velocity":0.4645669291338583,"duration":"0.13"},{"name":"D#4","midi":63,"time":"457.19","velocity":0.33070866141732286,"duration":"0.02"},{"name":"A2","midi":45,"time":"457.20","velocity":0.4015748031496063,"duration":"0.03"},{"name":"D#6","midi":87,"time":"457.21","velocity":0.14960629921259844,"duration":"0.12"},{"name":"F5","midi":77,"time":"457.22","velocity":0.2755905511811024,"duration":"0.02"},{"name":"F#5","midi":78,"time":"457.23","velocity":0.4015748031496063,"duration":"0.30"},{"name":"C7","midi":96,"time":"457.24","velocity":0.2992125984251969,"duration":"0.20"},{"name":"F4","midi":65,"time":"457.26","velocity":0.3779527559055118,"duration":"0.02"},{"name":"A2","midi":45,"time":"457.27","velocity":0.33070866141732286,"duration":"0.02"},{"name":"D1","midi":26,"time":"457.28","velocity":0.2440944881889764,"duration":"0.02"},{"name":"E5","midi":76,"time":"457.28","velocity":0.4094488188976378,"duration":"0.22"},{"name":"G5","midi":79,"time":"457.28","velocity":0.31496062992125984,"duration":"0.02"},{"name":"F4","midi":65,"time":"457.29","velocity":0.25984251968503935,"duration":"0.02"},{"name":"G#5","midi":80,"time":"457.30","velocity":0.41732283464566927,"duration":"0.07"},{"name":"E4","midi":64,"time":"457.31","velocity":0.4015748031496063,"duration":"0.10"},{"name":"F6","midi":89,"time":"457.31","velocity":0.2992125984251969,"duration":"0.13"},{"name":"D7","midi":98,"time":"457.33","velocity":0.3228346456692913,"duration":"2.17"},{"name":"E3","midi":52,"time":"457.34","velocity":0.49606299212598426,"duration":"0.15"},{"name":"A3","midi":57,"time":"457.35","velocity":0.4645669291338583,"duration":"0.14"},{"name":"C#4","midi":61,"time":"457.36","velocity":0.25984251968503935,"duration":"0.02"},{"name":"G6","midi":91,"time":"457.36","velocity":0.2047244094488189,"duration":"0.12"},{"name":"A6","midi":93,"time":"457.37","velocity":0.2440944881889764,"duration":"0.13"},{"name":"G#5","midi":80,"time":"457.38","velocity":0.3937007874015748,"duration":"0.03"},{"name":"D#6","midi":87,"time":"457.38","velocity":0.11023622047244094,"duration":"0.06"},{"name":"C#4","midi":61,"time":"457.43","velocity":0.33858267716535434,"duration":"0.07"},{"name":"G#5","midi":80,"time":"457.44","velocity":0.2992125984251969,"duration":"0.06"},{"name":"A#5","midi":82,"time":"457.44","velocity":0.1968503937007874,"duration":"0.03"},{"name":"F6","midi":89,"time":"457.45","velocity":0.3228346456692913,"duration":"0.23"},{"name":"C7","midi":96,"time":"457.45","velocity":0.28346456692913385,"duration":"0.27"},{"name":"F4","midi":65,"time":"457.48","velocity":0.3700787401574803,"duration":"0.02"},{"name":"G6","midi":91,"time":"457.49","velocity":0.3228346456692913,"duration":"0.08"},{"name":"A3","midi":57,"time":"457.50","velocity":0.5590551181102362,"duration":"0.03"},{"name":"A#5","midi":82,"time":"457.50","velocity":0.29133858267716534,"duration":"0.02"},{"name":"F2","midi":41,"time":"457.51","velocity":0.48031496062992124,"duration":"0.02"},{"name":"E5","midi":76,"time":"457.51","velocity":0.4094488188976378,"duration":"0.02"},{"name":"G5","midi":79,"time":"457.51","velocity":0.33858267716535434,"duration":"0.08"},{"name":"A6","midi":93,"time":"457.51","velocity":0.2440944881889764,"duration":"0.13"},{"name":"C#4","midi":61,"time":"457.52","velocity":0.4409448818897638,"duration":"0.03"},{"name":"F#4","midi":66,"time":"457.52","velocity":0.41732283464566927,"duration":"0.06"},{"name":"A5","midi":81,"time":"457.52","velocity":0.4015748031496063,"duration":"0.05"},{"name":"A4","midi":69,"time":"457.53","velocity":0.4094488188976378,"duration":"0.06"},{"name":"D#5","midi":75,"time":"457.53","velocity":0.3700787401574803,"duration":"0.03"},{"name":"F#7","midi":102,"time":"457.53","velocity":0.4094488188976378,"duration":"6.79"},{"name":"F3","midi":53,"time":"457.55","velocity":0.3937007874015748,"duration":"0.02"},{"name":"A#3","midi":58,"time":"457.55","velocity":0.3700787401574803,"duration":"0.02"},{"name":"F#6","midi":90,"time":"457.56","velocity":0.25196850393700787,"duration":"0.08"},{"name":"F2","midi":41,"time":"457.57","velocity":0.48031496062992124,"duration":"0.02"},{"name":"E3","midi":52,"time":"457.57","velocity":0.44881889763779526,"duration":"0.02"},{"name":"E5","midi":76,"time":"457.57","velocity":0.25196850393700787,"duration":"0.02"},{"name":"A3","midi":57,"time":"457.58","velocity":0.4881889763779528,"duration":"0.14"},{"name":"G#4","midi":68,"time":"457.58","velocity":0.33858267716535434,"duration":"0.03"},{"name":"F5","midi":77,"time":"457.58","velocity":0.25984251968503935,"duration":"0.02"},{"name":"A5","midi":81,"time":"457.58","velocity":0.47244094488188976,"duration":"0.17"},{"name":"B5","midi":83,"time":"457.58","velocity":0.4881889763779528,"duration":"0.17"},{"name":"D#6","midi":87,"time":"457.58","velocity":0.2125984251968504,"duration":"0.06"},{"name":"A#6","midi":94,"time":"457.58","velocity":0.2204724409448819,"duration":"0.42"},{"name":"D#3","midi":51,"time":"457.59","velocity":0.5118110236220472,"duration":"0.01"},{"name":"C5","midi":72,"time":"457.59","velocity":0.47244094488188976,"duration":"0.02"},{"name":"F#5","midi":78,"time":"457.59","velocity":0.2755905511811024,"duration":"0.03"},{"name":"E3","midi":52,"time":"457.60","velocity":0.49606299212598426,"duration":"0.07"},{"name":"C#4","midi":61,"time":"457.60","velocity":0.3228346456692913,"duration":"0.05"},{"name":"F#4","midi":66,"time":"457.60","velocity":0.33858267716535434,"duration":"0.02"},{"name":"E5","midi":76,"time":"457.60","velocity":0.36220472440944884,"duration":"0.03"},{"name":"C#5","midi":73,"time":"457.62","velocity":0.6141732283464567,"duration":"0.56"},{"name":"G5","midi":79,"time":"457.62","velocity":0.2992125984251969,"duration":"0.02"},{"name":"E2","midi":40,"time":"457.63","velocity":0.4566929133858268,"duration":"0.02"},{"name":"F4","midi":65,"time":"457.63","velocity":0.2755905511811024,"duration":"0.02"},{"name":"G#4","midi":68,"time":"457.64","velocity":0.2677165354330709,"duration":"0.02"},{"name":"B4","midi":71,"time":"457.64","velocity":0.41732283464566927,"duration":"0.24"},{"name":"E5","midi":76,"time":"457.65","velocity":0.3937007874015748,"duration":"0.23"},{"name":"G5","midi":79,"time":"457.66","velocity":0.23622047244094488,"duration":"0.02"},{"name":"G6","midi":91,"time":"457.66","velocity":0.28346456692913385,"duration":"0.09"},{"name":"F#5","midi":78,"time":"457.67","velocity":0.25984251968503935,"duration":"0.02"},{"name":"D#6","midi":87,"time":"457.67","velocity":0.18110236220472442,"duration":"0.06"},{"name":"E2","midi":40,"time":"457.69","velocity":0.4881889763779528,"duration":"0.02"},{"name":"E3","midi":52,"time":"457.69","velocity":0.49606299212598426,"duration":"0.06"},{"name":"G#5","midi":80,"time":"457.70","velocity":0.4094488188976378,"duration":"0.12"},{"name":"F6","midi":89,"time":"457.70","velocity":0.33858267716535434,"duration":"0.30"},{"name":"G4","midi":67,"time":"457.71","velocity":0.28346456692913385,"duration":"0.02"},{"name":"F#6","midi":90,"time":"457.71","velocity":0.25196850393700787,"duration":"0.12"},{"name":"F2","midi":41,"time":"457.72","velocity":0.5196850393700787,"duration":"0.01"},{"name":"C#4","midi":61,"time":"457.72","velocity":0.3700787401574803,"duration":"0.06"},{"name":"A3","midi":57,"time":"457.73","velocity":0.44881889763779526,"duration":"0.06"},{"name":"F#5","midi":78,"time":"457.73","velocity":0.2755905511811024,"duration":"0.20"},{"name":"C7","midi":96,"time":"457.73","velocity":0.28346456692913385,"duration":"0.29"},{"name":"G#4","midi":68,"time":"457.74","velocity":0.25196850393700787,"duration":"0.02"},{"name":"A#5","midi":82,"time":"457.74","velocity":0.16535433070866143,"duration":"0.03"},{"name":"F2","midi":41,"time":"457.76","velocity":0.5275590551181102,"duration":"0.02"},{"name":"E3","midi":52,"time":"457.76","velocity":0.5118110236220472,"duration":"0.13"},{"name":"G4","midi":67,"time":"457.77","velocity":0.29133858267716534,"duration":"0.03"},{"name":"D#6","midi":87,"time":"457.77","velocity":0.2125984251968504,"duration":"0.03"},{"name":"G7","midi":103,"time":"457.77","velocity":0.2204724409448819,"duration":"0.15"},{"name":"G6","midi":91,"time":"457.78","velocity":0.2125984251968504,"duration":"0.06"},{"name":"F2","midi":41,"time":"457.79","velocity":0.5196850393700787,"duration":"0.02"},{"name":"A5","midi":81,"time":"457.80","velocity":0.3937007874015748,"duration":"0.06"},{"name":"D#6","midi":87,"time":"457.81","velocity":0.16535433070866143,"duration":"0.08"},{"name":"E2","midi":40,"time":"457.83","velocity":0.5118110236220472,"duration":"0.01"},{"name":"A3","midi":57,"time":"457.83","velocity":0.33858267716535434,"duration":"0.02"},{"name":"C#4","midi":61,"time":"457.84","velocity":0.23622047244094488,"duration":"0.02"},{"name":"F#6","midi":90,"time":"457.84","velocity":0.2755905511811024,"duration":"0.02"},{"name":"G#5","midi":80,"time":"457.85","velocity":0.3543307086614173,"duration":"0.09"},{"name":"B5","midi":83,"time":"457.86","velocity":0.48031496062992124,"duration":"1.30"},{"name":"F#4","midi":66,"time":"457.87","velocity":0.33858267716535434,"duration":"0.03"},{"name":"A5","midi":81,"time":"457.87","velocity":0.3858267716535433,"duration":"0.06"},{"name":"F#6","midi":90,"time":"457.87","velocity":0.28346456692913385,"duration":"0.05"},{"name":"G2","midi":43,"time":"457.88","velocity":0.5275590551181102,"duration":"0.01"},{"name":"G6","midi":91,"time":"457.88","velocity":0.2283464566929134,"duration":"0.13"},{"name":"F2","midi":41,"time":"457.90","velocity":0.5984251968503937,"duration":"0.02"},{"name":"A3","midi":57,"time":"457.90","velocity":0.5433070866141733,"duration":"0.36"},{"name":"E5","midi":76,"time":"457.90","velocity":0.3937007874015748,"duration":"0.07"},{"name":"F4","midi":65,"time":"457.91","velocity":0.2992125984251969,"duration":"0.02"},{"name":"A#4","midi":70,"time":"457.91","velocity":0.3464566929133858,"duration":"0.02"},{"name":"E6","midi":88,"time":"457.92","velocity":0.4094488188976378,"duration":"0.35"},{"name":"F#1","midi":30,"time":"457.93","velocity":0.5905511811023622,"duration":"0.03"},{"name":"A#5","midi":82,"time":"457.93","velocity":0.25196850393700787,"duration":"0.05"},{"name":"F#6","midi":90,"time":"457.93","velocity":0.18110236220472442,"duration":"0.03"},{"name":"B2","midi":47,"time":"457.94","velocity":0.4645669291338583,"duration":"0.02"},{"name":"A5","midi":81,"time":"457.94","velocity":0.4015748031496063,"duration":"0.28"},{"name":"D#6","midi":87,"time":"457.94","velocity":0.1968503937007874,"duration":"0.09"},{"name":"C#4","midi":61,"time":"457.95","velocity":0.3228346456692913,"duration":"0.03"},{"name":"F#5","midi":78,"time":"457.95","velocity":0.29133858267716534,"duration":"0.08"},{"name":"D#5","midi":75,"time":"457.97","velocity":0.30708661417322836,"duration":"0.02"},{"name":"E4","midi":64,"time":"457.98","velocity":0.5275590551181102,"duration":"0.36"},{"name":"B4","midi":71,"time":"457.98","velocity":0.2992125984251969,"duration":"0.02"},{"name":"A#6","midi":94,"time":"458.01","velocity":0.28346456692913385,"duration":"0.37"},{"name":"D6","midi":86,"time":"458.02","velocity":0.30708661417322836,"duration":"0.02"},{"name":"F6","midi":89,"time":"458.02","velocity":0.2755905511811024,"duration":"0.10"},{"name":"G7","midi":103,"time":"458.02","velocity":0.18110236220472442,"duration":"0.21"},{"name":"C7","midi":96,"time":"458.03","velocity":0.30708661417322836,"duration":"0.12"},{"name":"F#1","midi":30,"time":"458.05","velocity":0.4094488188976378,"duration":"0.02"},{"name":"F#5","midi":78,"time":"458.05","velocity":0.23622047244094488,"duration":"0.08"},{"name":"F#6","midi":90,"time":"458.05","velocity":0.2677165354330709,"duration":"0.13"},{"name":"G#1","midi":32,"time":"458.07","velocity":0.25984251968503935,"duration":"0.02"},{"name":"D3","midi":50,"time":"458.08","velocity":0.3543307086614173,"duration":"0.02"},{"name":"G6","midi":91,"time":"458.10","velocity":0.2047244094488189,"duration":"0.21"},{"name":"G5","midi":79,"time":"458.12","velocity":0.2283464566929134,"duration":"0.03"},{"name":"C#4","midi":61,"time":"458.13","velocity":0.3464566929133858,"duration":"0.05"},{"name":"D#6","midi":87,"time":"458.13","velocity":0.18110236220472442,"duration":"0.08"},{"name":"A#2","midi":46,"time":"458.14","velocity":0.4251968503937008,"duration":"0.02"},{"name":"F#5","midi":78,"time":"458.14","velocity":0.12598425196850394,"duration":"0.03"},{"name":"D#3","midi":51,"time":"458.15","velocity":0.3858267716535433,"duration":"0.02"},{"name":"F6","midi":89,"time":"458.15","velocity":0.3228346456692913,"duration":"0.13"},{"name":"A#2","midi":46,"time":"458.17","velocity":0.41732283464566927,"duration":"0.02"},{"name":"C5","midi":72,"time":"458.17","velocity":0.2755905511811024,"duration":"0.02"},{"name":"C7","midi":96,"time":"458.17","velocity":0.31496062992125984,"duration":"0.19"},{"name":"G#5","midi":80,"time":"458.19","velocity":0.41732283464566927,"duration":"0.23"},{"name":"F#6","midi":90,"time":"458.19","velocity":0.4094488188976378,"duration":"0.24"},{"name":"C#5","midi":73,"time":"458.20","velocity":0.48031496062992124,"duration":"0.07"},{"name":"F#5","midi":78,"time":"458.21","velocity":0.2440944881889764,"duration":"0.03"},{"name":"C#4","midi":61,"time":"458.22","velocity":0.33070866141732286,"duration":"0.02"},{"name":"A#5","midi":82,"time":"458.23","velocity":0.28346456692913385,"duration":"0.03"},{"name":"E2","midi":40,"time":"458.24","velocity":0.5748031496062992,"duration":"0.01"},{"name":"B2","midi":47,"time":"458.24","velocity":0.5118110236220472,"duration":"0.01"},{"name":"C6","midi":84,"time":"458.24","velocity":0.23622047244094488,"duration":"0.02"},{"name":"F2","midi":41,"time":"458.26","velocity":0.6220472440944882,"duration":"0.01"},{"name":"G2","midi":43,"time":"458.27","velocity":0.5196850393700787,"duration":"0.01"},{"name":"F#5","midi":78,"time":"458.27","velocity":0.3779527559055118,"duration":"0.06"},{"name":"G1","midi":31,"time":"458.28","velocity":0.5196850393700787,"duration":"0.01"},{"name":"D#3","midi":51,"time":"458.28","velocity":0.5275590551181102,"duration":"0.01"},{"name":"A3","midi":57,"time":"458.28","velocity":0.4566929133858268,"duration":"0.16"},{"name":"C#4","midi":61,"time":"458.28","velocity":0.3700787401574803,"duration":"0.16"},{"name":"F1","midi":29,"time":"458.29","velocity":0.5669291338582677,"duration":"0.01"},{"name":"C3","midi":48,"time":"458.29","velocity":0.5118110236220472,"duration":"0.01"},{"name":"C#5","midi":73,"time":"458.29","velocity":0.5196850393700787,"duration":"0.43"},{"name":"F6","midi":89,"time":"458.29","velocity":0.23622047244094488,"duration":"0.02"},{"name":"F#1","midi":30,"time":"458.30","velocity":0.5354330708661418,"duration":"0.01"},{"name":"D6","midi":86,"time":"458.30","velocity":0.4881889763779528,"duration":"0.03"},{"name":"E3","midi":52,"time":"458.31","velocity":0.4251968503937008,"duration":"0.07"},{"name":"A2","midi":45,"time":"458.33","velocity":0.47244094488188976,"duration":"0.03"},{"name":"F#4","midi":66,"time":"458.33","velocity":0.36220472440944884,"duration":"0.05"},{"name":"F5","midi":77,"time":"458.33","velocity":0.5196850393700787,"duration":"0.03"},{"name":"C#6","midi":85,"time":"458.33","velocity":0.5275590551181102,"duration":"0.21"},{"name":"D#6","midi":87,"time":"458.33","velocity":0.49606299212598426,"duration":"0.03"},{"name":"D6","midi":86,"time":"458.35","velocity":0.12598425196850394,"duration":"0.03"},{"name":"A#2","midi":46,"time":"458.36","velocity":0.4251968503937008,"duration":"0.02"},{"name":"E5","midi":76,"time":"458.36","velocity":0.3779527559055118,"duration":"0.02"},{"name":"E6","midi":88,"time":"458.36","velocity":0.5275590551181102,"duration":"0.42"},{"name":"E4","midi":64,"time":"458.38","velocity":0.3858267716535433,"duration":"0.07"},{"name":"G6","midi":91,"time":"458.38","velocity":0.14173228346456693,"duration":"0.07"},{"name":"C7","midi":96,"time":"458.38","velocity":0.29133858267716534,"duration":"0.19"},{"name":"A#2","midi":46,"time":"458.40","velocity":0.3858267716535433,"duration":"0.02"},{"name":"E3","midi":52,"time":"458.40","velocity":0.4330708661417323,"duration":"0.05"},{"name":"F#5","midi":78,"time":"458.40","velocity":0.4251968503937008,"duration":"0.16"},{"name":"F6","midi":89,"time":"458.40","velocity":0.6220472440944882,"duration":"0.13"},{"name":"A#6","midi":94,"time":"458.40","velocity":0.2677165354330709,"duration":"0.41"},{"name":"C#1","midi":25,"time":"458.41","velocity":0.3464566929133858,"duration":"0.02"},{"name":"A#5","midi":82,"time":"458.41","velocity":0.18110236220472442,"duration":"0.06"},{"name":"D#6","midi":87,"time":"458.42","velocity":0.1732283464566929,"duration":"0.05"},{"name":"B4","midi":71,"time":"458.43","velocity":0.28346456692913385,"duration":"0.05"},{"name":"D6","midi":86,"time":"458.43","velocity":0.29133858267716534,"duration":"0.06"},{"name":"A#1","midi":34,"time":"458.44","velocity":0.5196850393700787,"duration":"0.01"},{"name":"D#3","midi":51,"time":"458.44","velocity":0.5118110236220472,"duration":"0.01"},{"name":"G7","midi":103,"time":"458.44","velocity":0.1889763779527559,"duration":"0.12"},{"name":"C#2","midi":37,"time":"458.45","velocity":0.5669291338582677,"duration":"0.01"},{"name":"G4","midi":67,"time":"458.45","velocity":0.3543307086614173,"duration":"0.02"},{"name":"G#5","midi":80,"time":"458.45","velocity":0.33070866141732286,"duration":"0.09"},{"name":"E2","midi":40,"time":"458.47","velocity":0.5354330708661418,"duration":"0.02"},{"name":"E4","midi":64,"time":"458.47","velocity":0.4094488188976378,"duration":"0.10"},{"name":"F#6","midi":90,"time":"458.47","velocity":0.6692913385826772,"duration":"3.71"},{"name":"A3","midi":57,"time":"458.48","velocity":0.4409448818897638,"duration":"0.12"},{"name":"C#4","midi":61,"time":"458.48","velocity":0.3543307086614173,"duration":"0.02"},{"name":"A5","midi":81,"time":"458.48","velocity":0.2677165354330709,"duration":"0.05"},{"name":"D#6","midi":87,"time":"458.48","velocity":0.2204724409448819,"duration":"0.09"},{"name":"G6","midi":91,"time":"458.48","velocity":0.14173228346456693,"duration":"0.14"},{"name":"C#2","midi":37,"time":"458.49","velocity":0.5275590551181102,"duration":"0.01"},{"name":"B4","midi":71,"time":"458.49","velocity":0.10236220472440945,"duration":"0.03"},{"name":"E5","midi":76,"time":"458.49","velocity":0.4881889763779528,"duration":"0.16"},{"name":"D6","midi":86,"time":"458.52","velocity":0.3779527559055118,"duration":"0.33"},{"name":"C#4","midi":61,"time":"458.53","velocity":0.33070866141732286,"duration":"0.02"},{"name":"G5","midi":79,"time":"458.53","velocity":0.2677165354330709,"duration":"0.05"},{"name":"D#3","midi":51,"time":"458.55","velocity":0.3858267716535433,"duration":"0.03"},{"name":"C#6","midi":85,"time":"458.55","velocity":0.5354330708661418,"duration":"0.15"},{"name":"B4","midi":71,"time":"458.56","velocity":0.2992125984251969,"duration":"0.02"},{"name":"F2","midi":41,"time":"458.57","velocity":0.4094488188976378,"duration":"0.02"},{"name":"C#4","midi":61,"time":"458.57","velocity":0.3700787401574803,"duration":"0.06"},{"name":"F#5","midi":78,"time":"458.57","velocity":0.3228346456692913,"duration":"0.05"},{"name":"E4","midi":64,"time":"458.58","velocity":0.25196850393700787,"duration":"0.02"},{"name":"F#4","midi":66,"time":"458.58","velocity":0.33858267716535434,"duration":"0.06"},{"name":"C7","midi":96,"time":"458.58","velocity":0.3228346456692913,"duration":"0.28"},{"name":"G#5","midi":80,"time":"458.59","velocity":0.3700787401574803,"duration":"0.08"},{"name":"G7","midi":103,"time":"458.59","velocity":0.2125984251968504,"duration":"0.40"},{"name":"A#1","midi":34,"time":"458.60","velocity":0.4881889763779528,"duration":"0.02"},{"name":"C2","midi":36,"time":"458.63","velocity":0.5433070866141733,"duration":"0.01"},{"name":"F#5","midi":78,"time":"458.63","velocity":0.4094488188976378,"duration":"0.06"},{"name":"E2","midi":40,"time":"458.64","velocity":0.5354330708661418,"duration":"0.01"},{"name":"D#6","midi":87,"time":"458.64","velocity":0.14960629921259844,"duration":"0.03"},{"name":"G#2","midi":44,"time":"458.65","velocity":0.5196850393700787,"duration":"0.01"},{"name":"D#5","midi":75,"time":"458.65","velocity":0.28346456692913385,"duration":"0.05"},{"name":"F5","midi":77,"time":"458.65","velocity":0.4015748031496063,"duration":"0.07"},{"name":"F1","midi":29,"time":"458.67","velocity":0.5433070866141733,"duration":"0.01"},{"name":"E3","midi":52,"time":"458.67","velocity":0.4881889763779528,"duration":"0.12"},{"name":"A#3","midi":58,"time":"458.67","velocity":0.4251968503937008,"duration":"0.02"},{"name":"C#4","midi":61,"time":"458.67","velocity":0.3543307086614173,"duration":"0.08"},{"name":"G#4","midi":68,"time":"458.67","velocity":0.30708661417322836,"duration":"0.02"},{"name":"B4","midi":71,"time":"458.67","velocity":0.36220472440944884,"duration":"0.02"},{"name":"A5","midi":81,"time":"458.67","velocity":0.31496062992125984,"duration":"0.05"},{"name":"G#5","midi":80,"time":"458.69","velocity":0.3700787401574803,"duration":"0.29"},{"name":"G6","midi":91,"time":"458.69","velocity":0.2125984251968504,"duration":"0.05"},{"name":"C2","midi":36,"time":"458.70","velocity":0.4566929133858268,"duration":"0.02"},{"name":"A2","midi":45,"time":"458.70","velocity":0.4409448818897638,"duration":"0.02"},{"name":"A3","midi":57,"time":"458.70","velocity":0.4645669291338583,"duration":"0.29"},{"name":"D#5","midi":75,"time":"458.71","velocity":0.28346456692913385,"duration":"0.03"},{"name":"F#5","midi":78,"time":"458.72","velocity":0.5039370078740157,"duration":"0.52"},{"name":"B4","midi":71,"time":"458.73","velocity":0.5590551181102362,"duration":"0.34"},{"name":"C#5","midi":73,"time":"458.73","velocity":0.4094488188976378,"duration":"0.07"},{"name":"E5","midi":76,"time":"458.74","velocity":0.4566929133858268,"duration":"0.26"},{"name":"G6","midi":91,"time":"458.74","velocity":0.13385826771653545,"duration":"0.05"},{"name":"G4","midi":67,"time":"458.76","velocity":0.31496062992125984,"duration":"0.02"},{"name":"C#4","midi":61,"time":"458.77","velocity":0.3700787401574803,"duration":"0.03"},{"name":"F6","midi":89,"time":"458.77","velocity":0.3464566929133858,"duration":"0.02"},{"name":"F#4","midi":66,"time":"458.78","velocity":0.41732283464566927,"duration":"0.09"},{"name":"A6","midi":93,"time":"458.79","velocity":0.18110236220472442,"duration":"0.05"},{"name":"E3","midi":52,"time":"458.80","velocity":0.4015748031496063,"duration":"0.02"},{"name":"F6","midi":89,"time":"458.80","velocity":0.5433070866141733,"duration":"0.01"},{"name":"C#4","midi":61,"time":"458.81","velocity":0.33070866141732286,"duration":"0.02"},{"name":"A#5","midi":82,"time":"458.81","velocity":0.1889763779527559,"duration":"0.03"},{"name":"D#6","midi":87,"time":"458.81","velocity":0.14960629921259844,"duration":"0.07"},{"name":"A#6","midi":94,"time":"458.81","velocity":0.30708661417322836,"duration":"0.19"},{"name":"F6","midi":89,"time":"458.83","velocity":0.2755905511811024,"duration":"0.06"},{"name":"C#5","midi":73,"time":"458.85","velocity":0.28346456692913385,"duration":"0.03"},{"name":"A6","midi":93,"time":"458.85","velocity":0.23622047244094488,"duration":"0.06"},{"name":"E3","midi":52,"time":"458.86","velocity":0.4094488188976378,"duration":"0.10"},{"name":"A#5","midi":82,"time":"458.86","velocity":0.14960629921259844,"duration":"0.05"},{"name":"D6","midi":86,"time":"458.86","velocity":0.3228346456692913,"duration":"0.19"},{"name":"G6","midi":91,"time":"458.87","velocity":0.36220472440944884,"duration":"0.02"},{"name":"D5","midi":74,"time":"458.88","velocity":0.2440944881889764,"duration":"0.02"},{"name":"A2","midi":45,"time":"458.90","velocity":0.36220472440944884,"duration":"0.03"},{"name":"C7","midi":96,"time":"458.90","velocity":0.28346456692913385,"duration":"0.24"},{"name":"G4","midi":67,"time":"458.91","velocity":0.33858267716535434,"duration":"0.02"},{"name":"C#5","midi":73,"time":"458.91","velocity":0.30708661417322836,"duration":"0.05"},{"name":"C#4","midi":61,"time":"458.92","velocity":0.33070866141732286,"duration":"0.05"},{"name":"F#4","midi":66,"time":"458.93","velocity":0.33070866141732286,"duration":"0.05"},{"name":"A2","midi":45,"time":"458.97","velocity":0.4015748031496063,"duration":"0.02"},{"name":"C#6","midi":85,"time":"458.97","velocity":0.3700787401574803,"duration":"0.10"},{"name":"G6","midi":91,"time":"458.97","velocity":0.25984251968503935,"duration":"0.05"},{"name":"E3","midi":52,"time":"458.98","velocity":0.48031496062992124,"duration":"0.02"},{"name":"F4","midi":65,"time":"458.98","velocity":0.4094488188976378,"duration":"0.02"},{"name":"C#5","midi":73,"time":"458.98","velocity":0.3464566929133858,"duration":"0.02"},{"name":"E4","midi":64,"time":"458.99","velocity":0.5433070866141733,"duration":"0.03"},{"name":"G#5","midi":80,"time":"458.99","velocity":0.30708661417322836,"duration":"0.19"},{"name":"G#6","midi":92,"time":"458.99","velocity":0.4251968503937008,"duration":"2.64"},{"name":"D#3","midi":51,"time":"459.00","velocity":0.5118110236220472,"duration":"0.01"},{"name":"A3","midi":57,"time":"459.00","velocity":0.5039370078740157,"duration":"0.02"},{"name":"C#4","midi":61,"time":"459.00","velocity":0.5039370078740157,"duration":"0.02"},{"name":"D#5","midi":75,"time":"459.00","velocity":0.3858267716535433,"duration":"0.05"},{"name":"F6","midi":89,"time":"459.00","velocity":0.33858267716535434,"duration":"0.02"},{"name":"G#4","midi":68,"time":"459.01","velocity":0.31496062992125984,"duration":"0.02"},{"name":"A#6","midi":94,"time":"459.01","velocity":0.25196850393700787,"duration":"0.15"},{"name":"G7","midi":103,"time":"459.01","velocity":0.25196850393700787,"duration":"0.28"},{"name":"D4","midi":62,"time":"459.02","velocity":0.3858267716535433,"duration":"0.05"},{"name":"F4","midi":65,"time":"459.02","velocity":0.4015748031496063,"duration":"0.02"},{"name":"A#5","midi":82,"time":"459.02","velocity":0.23622047244094488,"duration":"0.02"},{"name":"F3","midi":53,"time":"459.03","velocity":0.4251968503937008,"duration":"0.02"},{"name":"F6","midi":89,"time":"459.03","velocity":0.18110236220472442,"duration":"0.03"},{"name":"F#4","midi":66,"time":"459.05","velocity":0.3937007874015748,"duration":"0.02"},{"name":"E5","midi":76,"time":"459.05","velocity":0.4094488188976378,"duration":"0.51"},{"name":"D6","midi":86,"time":"459.06","velocity":0.3543307086614173,"duration":"0.26"},{"name":"A4","midi":69,"time":"459.07","velocity":0.3700787401574803,"duration":"0.02"},{"name":"B2","midi":47,"time":"459.08","velocity":0.49606299212598426,"duration":"0.02"},{"name":"A3","midi":57,"time":"459.08","velocity":0.4881889763779528,"duration":"0.08"},{"name":"B4","midi":71,"time":"459.08","velocity":0.4566929133858268,"duration":"0.07"},{"name":"D#5","midi":75,"time":"459.08","velocity":0.23622047244094488,"duration":"0.02"},{"name":"C#6","midi":85,"time":"459.08","velocity":0.5196850393700787,"duration":"1.16"},{"name":"A2","midi":45,"time":"459.10","velocity":0.4645669291338583,"duration":"0.02"},{"name":"C#4","midi":61,"time":"459.10","velocity":0.36220472440944884,"duration":"0.03"},{"name":"C#5","midi":73,"time":"459.10","velocity":0.5196850393700787,"duration":"0.69"},{"name":"A5","midi":81,"time":"459.10","velocity":0.31496062992125984,"duration":"0.13"},{"name":"F4","midi":65,"time":"459.12","velocity":0.28346456692913385,"duration":"0.03"},{"name":"G#2","midi":44,"time":"459.14","velocity":0.44881889763779526,"duration":"0.02"},{"name":"F6","midi":89,"time":"459.14","velocity":0.2677165354330709,"duration":"0.10"},{"name":"D#6","midi":87,"time":"459.15","velocity":0.16535433070866143,"duration":"0.05"},{"name":"C7","midi":96,"time":"459.15","velocity":0.29133858267716534,"duration":"0.19"},{"name":"E3","midi":52,"time":"459.16","velocity":0.31496062992125984,"duration":"0.02"},{"name":"A#3","midi":58,"time":"459.16","velocity":0.3700787401574803,"duration":"0.02"},{"name":"C#4","midi":61,"time":"459.16","velocity":0.41732283464566927,"duration":"0.02"},{"name":"G4","midi":67,"time":"459.16","velocity":0.3228346456692913,"duration":"0.05"},{"name":"C6","midi":84,"time":"459.16","velocity":0.25196850393700787,"duration":"0.02"},{"name":"A2","midi":45,"time":"459.17","velocity":0.5118110236220472,"duration":"0.02"},{"name":"A4","midi":69,"time":"459.17","velocity":0.3464566929133858,"duration":"0.20"},{"name":"A#6","midi":94,"time":"459.17","velocity":0.29133858267716534,"duration":"0.41"},{"name":"C#4","midi":61,"time":"459.20","velocity":0.3464566929133858,"duration":"0.07"},{"name":"B5","midi":83,"time":"459.20","velocity":0.33070866141732286,"duration":"0.24"},{"name":"F#2","midi":42,"time":"459.21","velocity":0.5354330708661418,"duration":"0.01"},{"name":"E4","midi":64,"time":"459.21","velocity":0.31496062992125984,"duration":"0.03"},{"name":"D#5","midi":75,"time":"459.21","velocity":0.2755905511811024,"duration":"0.02"},{"name":"G#2","midi":44,"time":"459.22","velocity":0.5118110236220472,"duration":"0.01"},{"name":"A#5","midi":82,"time":"459.23","velocity":0.14173228346456693,"duration":"0.03"},{"name":"A2","midi":45,"time":"459.24","velocity":0.5433070866141733,"duration":"0.01"},{"name":"G#2","midi":44,"time":"459.26","velocity":0.5196850393700787,"duration":"0.01"},{"name":"G#5","midi":80,"time":"459.26","velocity":0.25196850393700787,"duration":"0.05"},{"name":"A#3","midi":58,"time":"459.27","velocity":0.31496062992125984,"duration":"0.02"},{"name":"G4","midi":67,"time":"459.27","velocity":0.2992125984251969,"duration":"0.02"},{"name":"F#5","midi":78,"time":"459.27","velocity":0.3700787401574803,"duration":"0.05"},{"name":"A2","midi":45,"time":"459.28","velocity":0.5354330708661418,"duration":"0.01"},{"name":"B4","midi":71,"time":"459.28","velocity":0.25984251968503935,"duration":"0.05"},{"name":"G6","midi":91,"time":"459.28","velocity":0.23622047244094488,"duration":"0.02"},{"name":"G#2","midi":44,"time":"459.29","velocity":0.5275590551181102,"duration":"0.01"},{"name":"D#6","midi":87,"time":"459.29","velocity":0.14960629921259844,"duration":"0.06"},{"name":"A2","midi":45,"time":"459.31","velocity":0.5433070866141733,"duration":"0.01"},{"name":"E3","midi":52,"time":"459.31","velocity":0.29133858267716534,"duration":"0.02"},{"name":"F#4","midi":66,"time":"459.31","velocity":0.4881889763779528,"duration":"0.20"},{"name":"G7","midi":103,"time":"459.31","velocity":0.23622047244094488,"duration":"0.52"},{"name":"G#2","midi":44,"time":"459.33","velocity":0.5590551181102362,"duration":"0.01"},{"name":"F#5","midi":78,"time":"459.33","velocity":0.49606299212598426,"duration":"0.38"},{"name":"G6","midi":91,"time":"459.33","velocity":0.2755905511811024,"duration":"0.02"},{"name":"A2","midi":45,"time":"459.34","velocity":0.5511811023622047,"duration":"0.02"},{"name":"G#5","midi":80,"time":"459.34","velocity":0.30708661417322836,"duration":"0.05"},{"name":"D6","midi":86,"time":"459.35","velocity":0.28346456692913385,"duration":"0.07"},{"name":"F6","midi":89,"time":"459.35","velocity":0.13385826771653545,"duration":"0.03"},{"name":"C7","midi":96,"time":"459.35","velocity":0.25984251968503935,"duration":"0.22"},{"name":"F#2","midi":42,"time":"459.36","velocity":0.6299212598425197,"duration":"0.02"},{"name":"D#4","midi":63,"time":"459.36","velocity":0.31496062992125984,"duration":"0.02"},{"name":"B4","midi":71,"time":"459.36","velocity":0.3228346456692913,"duration":"0.02"},{"name":"A#5","midi":82,"time":"459.36","velocity":0.23622047244094488,"duration":"0.02"},{"name":"F3","midi":53,"time":"459.37","velocity":0.4330708661417323,"duration":"0.02"},{"name":"A6","midi":93,"time":"459.37","velocity":0.28346456692913385,"duration":"0.19"},{"name":"F2","midi":41,"time":"459.38","velocity":0.5748031496062992,"duration":"0.01"},{"name":"A3","midi":57,"time":"459.38","velocity":0.3700787401574803,"duration":"0.02"},{"name":"A5","midi":81,"time":"459.38","velocity":0.3464566929133858,"duration":"0.07"},{"name":"A#2","midi":46,"time":"459.40","velocity":0.47244094488188976,"duration":"0.03"},{"name":"B3","midi":59,"time":"459.40","velocity":0.2992125984251969,"duration":"0.02"},{"name":"E4","midi":64,"time":"459.41","velocity":0.4015748031496063,"duration":"0.02"},{"name":"B4","midi":71,"time":"459.41","velocity":0.4566929133858268,"duration":"0.16"},{"name":"C#4","midi":61,"time":"459.42","velocity":0.33070866141732286,"duration":"0.06"},{"name":"D#6","midi":87,"time":"459.42","velocity":0.2204724409448819,"duration":"0.03"},{"name":"F2","midi":41,"time":"459.43","velocity":0.5196850393700787,"duration":"0.01"},{"name":"A#5","midi":82,"time":"459.43","velocity":0.2440944881889764,"duration":"0.02"},{"name":"D6","midi":86,"time":"459.43","velocity":0.4015748031496063,"duration":"0.05"},{"name":"G#5","midi":80,"time":"459.44","velocity":0.3464566929133858,"duration":"0.09"},{"name":"C#3","midi":49,"time":"459.45","velocity":0.5275590551181102,"duration":"0.01"},{"name":"A4","midi":69,"time":"459.45","velocity":0.29133858267716534,"duration":"0.02"},{"name":"B5","midi":83,"time":"459.45","velocity":0.5669291338582677,"duration":"0.34"},{"name":"D#6","midi":87,"time":"459.47","velocity":0.14960629921259844,"duration":"0.08"},{"name":"G2","midi":43,"time":"459.48","velocity":0.4330708661417323,"duration":"0.02"},{"name":"G#4","midi":68,"time":"459.48","velocity":0.2125984251968504,"duration":"0.03"},{"name":"F6","midi":89,"time":"459.48","velocity":0.2047244094488189,"duration":"0.07"},{"name":"D6","midi":86,"time":"459.49","velocity":0.31496062992125984,"duration":"0.23"},{"name":"F3","midi":53,"time":"459.51","velocity":0.23622047244094488,"duration":"0.02"},{"name":"A4","midi":69,"time":"459.51","velocity":0.2677165354330709,"duration":"0.05"},{"name":"D7","midi":98,"time":"459.51","velocity":0.33070866141732286,"duration":"0.36"},{"name":"F#4","midi":66,"time":"459.52","velocity":0.3937007874015748,"duration":"0.02"},{"name":"G6","midi":91,"time":"459.52","velocity":0.25984251968503935,"duration":"0.06"},{"name":"E2","midi":40,"time":"459.53","velocity":0.5118110236220472,"duration":"0.01"},{"name":"D4","midi":62,"time":"459.53","velocity":0.25196850393700787,"duration":"0.02"},{"name":"F4","midi":65,"time":"459.55","velocity":0.3464566929133858,"duration":"0.03"},{"name":"G#5","midi":80,"time":"459.56","velocity":0.25984251968503935,"duration":"0.10"},{"name":"C4","midi":60,"time":"459.57","velocity":0.25984251968503935,"duration":"0.02"},{"name":"G4","midi":67,"time":"459.57","velocity":0.2283464566929134,"duration":"0.02"},{"name":"E5","midi":76,"time":"459.57","velocity":0.28346456692913385,"duration":"0.12"},{"name":"A5","midi":81,"time":"459.57","velocity":0.23622047244094488,"duration":"0.02"},{"name":"D#6","midi":87,"time":"459.57","velocity":0.11023622047244094,"duration":"0.05"},{"name":"A6","midi":93,"time":"459.57","velocity":0.25196850393700787,"duration":"0.16"},{"name":"F#4","midi":66,"time":"459.58","velocity":0.31496062992125984,"duration":"0.03"},{"name":"C7","midi":96,"time":"459.58","velocity":0.2755905511811024,"duration":"0.14"},{"name":"C#4","midi":61,"time":"459.59","velocity":0.2755905511811024,"duration":"0.02"},{"name":"E4","midi":64,"time":"459.59","velocity":0.3464566929133858,"duration":"0.03"},{"name":"B4","midi":71,"time":"459.59","velocity":0.4330708661417323,"duration":"0.22"},{"name":"A#6","midi":94,"time":"459.59","velocity":0.25984251968503935,"duration":"0.44"},{"name":"D#3","midi":51,"time":"459.60","velocity":0.4566929133858268,"duration":"0.02"},{"name":"A4","midi":69,"time":"459.60","velocity":0.30708661417322836,"duration":"0.03"},{"name":"F6","midi":89,"time":"459.60","velocity":0.18110236220472442,"duration":"0.08"},{"name":"C#4","midi":61,"time":"459.63","velocity":0.30708661417322836,"duration":"0.02"},{"name":"F#4","midi":66,"time":"459.64","velocity":0.33070866141732286,"duration":"0.06"},{"name":"A4","midi":69,"time":"459.66","velocity":0.28346456692913385,"duration":"0.03"},{"name":"C#4","midi":61,"time":"459.67","velocity":0.4015748031496063,"duration":"0.05"},{"name":"D#6","midi":87,"time":"459.67","velocity":0.14960629921259844,"duration":"0.06"},{"name":"E6","midi":88,"time":"459.70","velocity":0.4330708661417323,"duration":"0.24"},{"name":"D#3","midi":51,"time":"459.71","velocity":0.5039370078740157,"duration":"0.02"},{"name":"E5","midi":76,"time":"459.71","velocity":0.29133858267716534,"duration":"0.06"},{"name":"D4","midi":62,"time":"459.72","velocity":0.30708661417322836,"duration":"0.02"},{"name":"F#5","midi":78,"time":"459.72","velocity":0.48031496062992124,"duration":"0.22"},{"name":"G#5","midi":80,"time":"459.72","velocity":0.2677165354330709,"duration":"0.03"},{"name":"E2","midi":40,"time":"459.73","velocity":0.5275590551181102,"duration":"0.01"},{"name":"A5","midi":81,"time":"459.73","velocity":0.28346456692913385,"duration":"0.03"},{"name":"D6","midi":86,"time":"459.73","velocity":0.2992125984251969,"duration":"0.06"},{"name":"C7","midi":96,"time":"459.73","velocity":0.2283464566929134,"duration":"0.19"},{"name":"F2","midi":41,"time":"459.74","velocity":0.6299212598425197,"duration":"0.01"},{"name":"C#3","midi":49,"time":"459.74","velocity":0.5118110236220472,"duration":"0.01"},{"name":"A3","midi":57,"time":"459.74","velocity":0.47244094488188976,"duration":"0.02"},{"name":"F#2","midi":42,"time":"459.76","velocity":0.6614173228346457,"duration":"0.01"},{"name":"D#3","midi":51,"time":"459.76","velocity":0.5433070866141733,"duration":"0.01"},{"name":"G4","midi":67,"time":"459.76","velocity":0.28346456692913385,"duration":"0.03"},{"name":"G2","midi":43,"time":"459.77","velocity":0.6141732283464567,"duration":"0.02"},{"name":"D3","midi":50,"time":"459.77","velocity":0.5590551181102362,"duration":"0.01"},{"name":"D#5","midi":75,"time":"459.77","velocity":0.29133858267716534,"duration":"0.06"},{"name":"G#5","midi":80,"time":"459.77","velocity":0.29133858267716534,"duration":"0.08"},{"name":"C3","midi":48,"time":"459.78","velocity":0.5748031496062992,"duration":"0.01"},{"name":"F#4","midi":66,"time":"459.78","velocity":0.33858267716535434,"duration":"0.02"},{"name":"G6","midi":91,"time":"459.78","velocity":0.2440944881889764,"duration":"0.08"},{"name":"A6","midi":93,"time":"459.78","velocity":0.1889763779527559,"duration":"0.09"},{"name":"F1","midi":29,"time":"459.79","velocity":0.5669291338582677,"duration":"0.03"},{"name":"D3","midi":50,"time":"459.79","velocity":0.5905511811023622,"duration":"0.21"},{"name":"G4","midi":67,"time":"459.80","velocity":0.3779527559055118,"duration":"0.02"},{"name":"A#5","midi":82,"time":"459.80","velocity":0.36220472440944884,"duration":"0.09"},{"name":"B5","midi":83,"time":"459.80","velocity":0.4566929133858268,"duration":"0.07"},{"name":"F#4","midi":66,"time":"459.81","velocity":0.2440944881889764,"duration":"0.03"},{"name":"F6","midi":89,"time":"459.81","velocity":0.4251968503937008,"duration":"0.05"},{"name":"C#5","midi":73,"time":"459.83","velocity":0.3228346456692913,"duration":"0.05"},{"name":"A4","midi":69,"time":"459.85","velocity":0.3464566929133858,"duration":"0.09"},{"name":"B4","midi":71,"time":"459.85","velocity":0.3543307086614173,"duration":"0.02"},{"name":"D#6","midi":87,"time":"459.85","velocity":0.4094488188976378,"duration":"0.05"},{"name":"D#5","midi":75,"time":"459.86","velocity":0.30708661417322836,"duration":"0.05"},{"name":"F6","midi":89,"time":"459.87","velocity":0.2125984251968504,"duration":"0.12"},{"name":"G7","midi":103,"time":"459.87","velocity":0.1968503937007874,"duration":"0.19"},{"name":"F4","midi":65,"time":"459.88","velocity":0.31496062992125984,"duration":"0.02"},{"name":"C#5","midi":73,"time":"459.88","velocity":0.4251968503937008,"duration":"0.22"},{"name":"C6","midi":84,"time":"459.88","velocity":0.4251968503937008,"duration":"0.02"},{"name":"D6","midi":86,"time":"459.88","velocity":0.2677165354330709,"duration":"0.02"},{"name":"D7","midi":98,"time":"459.88","velocity":0.3228346456692913,"duration":"2.07"},{"name":"G#5","midi":80,"time":"459.90","velocity":0.23622047244094488,"duration":"0.02"},{"name":"E5","midi":76,"time":"459.91","velocity":0.3700787401574803,"duration":"0.05"},{"name":"B5","midi":83,"time":"459.91","velocity":0.4566929133858268,"duration":"0.02"},{"name":"C#4","midi":61,"time":"459.92","velocity":0.3779527559055118,"duration":"0.05"},{"name":"G5","midi":79,"time":"459.92","velocity":0.33858267716535434,"duration":"0.05"},{"name":"F#1","midi":30,"time":"459.93","velocity":0.30708661417322836,"duration":"0.02"},{"name":"G4","midi":67,"time":"459.93","velocity":0.3543307086614173,"duration":"0.02"},{"name":"C5","midi":72,"time":"459.93","velocity":0.3228346456692913,"duration":"0.02"},{"name":"A#5","midi":82,"time":"459.93","velocity":0.47244094488188976,"duration":"0.05"},{"name":"D6","midi":86,"time":"459.94","velocity":0.2677165354330709,"duration":"0.05"},{"name":"D#5","midi":75,"time":"459.95","velocity":0.36220472440944884,"duration":"0.09"},{"name":"E6","midi":88,"time":"459.95","velocity":0.25984251968503935,"duration":"0.05"},{"name":"A4","midi":69,"time":"459.97","velocity":0.31496062992125984,"duration":"0.06"},{"name":"F#5","midi":78,"time":"459.97","velocity":0.5118110236220472,"duration":"0.09"},{"name":"A5","midi":81,"time":"459.97","velocity":0.4645669291338583,"duration":"0.03"},{"name":"B5","midi":83,"time":"459.97","velocity":0.4330708661417323,"duration":"0.10"},{"name":"G6","midi":91,"time":"459.97","velocity":0.1968503937007874,"duration":"0.03"},{"name":"C7","midi":96,"time":"459.98","velocity":0.29133858267716534,"duration":"0.37"},{"name":"C#4","midi":61,"time":"459.99","velocity":0.23622047244094488,"duration":"0.02"},{"name":"F4","midi":65,"time":"459.99","velocity":0.33070866141732286,"duration":"0.02"},{"name":"G#5","midi":80,"time":"459.99","velocity":0.4645669291338583,"duration":"0.02"},{"name":"E5","midi":76,"time":"460.00","velocity":0.2204724409448819,"duration":"0.05"},{"name":"F6","midi":89,"time":"460.00","velocity":0.25196850393700787,"duration":"0.10"},{"name":"D4","midi":62,"time":"460.01","velocity":0.3543307086614173,"duration":"0.05"},{"name":"G5","midi":79,"time":"460.01","velocity":0.4645669291338583,"duration":"0.02"},{"name":"A5","midi":81,"time":"460.01","velocity":0.3228346456692913,"duration":"0.05"},{"name":"C#3","midi":49,"time":"460.02","velocity":0.44881889763779526,"duration":"0.02"},{"name":"G#4","midi":68,"time":"460.02","velocity":0.29133858267716534,"duration":"0.02"},{"name":"D6","midi":86,"time":"460.02","velocity":0.25196850393700787,"duration":"0.03"},{"name":"E7","midi":100,"time":"460.03","velocity":0.2677165354330709,"duration":"0.50"},{"name":"A4","midi":69,"time":"460.05","velocity":0.33070866141732286,"duration":"0.08"},{"name":"G5","midi":79,"time":"460.05","velocity":0.49606299212598426,"duration":"0.08"},{"name":"C6","midi":84,"time":"460.05","velocity":0.2755905511811024,"duration":"0.06"},{"name":"C#4","midi":61,"time":"460.06","velocity":0.3779527559055118,"duration":"0.03"},{"name":"B4","midi":71,"time":"460.06","velocity":0.3937007874015748,"duration":"0.13"},{"name":"E5","midi":76,"time":"460.06","velocity":0.25196850393700787,"duration":"0.05"},{"name":"A#5","midi":82,"time":"460.06","velocity":0.3937007874015748,"duration":"0.12"},{"name":"D#6","midi":87,"time":"460.06","velocity":0.2125984251968504,"duration":"0.03"},{"name":"C#3","midi":49,"time":"460.07","velocity":0.4251968503937008,"duration":"0.02"},{"name":"D6","midi":86,"time":"460.07","velocity":0.2992125984251969,"duration":"0.05"},{"name":"D3","midi":50,"time":"460.09","velocity":0.5118110236220472,"duration":"0.05"},{"name":"F#5","midi":78,"time":"460.09","velocity":0.3700787401574803,"duration":"0.02"},{"name":"D5","midi":74,"time":"460.10","velocity":0.4015748031496063,"duration":"0.10"},{"name":"D#6","midi":87,"time":"460.10","velocity":0.23622047244094488,"duration":"0.03"},{"name":"F6","midi":89,"time":"460.12","velocity":0.2283464566929134,"duration":"0.06"},{"name":"A3","midi":57,"time":"460.13","velocity":0.44881889763779526,"duration":"0.10"},{"name":"C#4","midi":61,"time":"460.13","velocity":0.31496062992125984,"duration":"0.02"},{"name":"F#4","midi":66,"time":"460.13","velocity":0.4330708661417323,"duration":"0.10"},{"name":"C#5","midi":73,"time":"460.13","velocity":0.3779527559055118,"duration":"0.02"},{"name":"F#5","midi":78,"time":"460.13","velocity":0.5039370078740157,"duration":"0.12"},{"name":"C6","midi":84,"time":"460.13","velocity":0.28346456692913385,"duration":"0.08"},{"name":"E5","midi":76,"time":"460.14","velocity":0.1732283464566929,"duration":"0.03"},{"name":"G#5","midi":80,"time":"460.14","velocity":0.3228346456692913,"duration":"0.10"},{"name":"B5","midi":83,"time":"460.14","velocity":0.4330708661417323,"duration":"0.08"},{"name":"E6","midi":88,"time":"460.14","velocity":0.1732283464566929,"duration":"0.08"},{"name":"B2","midi":47,"time":"460.15","velocity":0.5118110236220472,"duration":"0.01"},{"name":"C3","midi":48,"time":"460.16","velocity":0.5748031496062992,"duration":"0.01"},{"name":"D4","midi":62,"time":"460.16","velocity":0.28346456692913385,"duration":"0.02"},{"name":"G7","midi":103,"time":"460.16","velocity":0.2677165354330709,"duration":"0.30"},{"name":"D3","midi":50,"time":"460.17","velocity":0.5905511811023622,"duration":"0.12"},{"name":"C#5","midi":73,"time":"460.17","velocity":0.30708661417322836,"duration":"0.02"},{"name":"D#6","midi":87,"time":"460.19","velocity":0.2283464566929134,"duration":"0.07"},{"name":"F6","midi":89,"time":"460.19","velocity":0.2677165354330709,"duration":"0.12"},{"name":"B4","midi":71,"time":"460.20","velocity":0.31496062992125984,"duration":"0.16"},{"name":"A6","midi":93,"time":"460.20","velocity":0.16535433070866143,"duration":"0.03"},{"name":"A5","midi":81,"time":"460.21","velocity":0.3543307086614173,"duration":"0.09"},{"name":"E4","midi":64,"time":"460.22","velocity":0.36220472440944884,"duration":"0.03"},{"name":"D5","midi":74,"time":"460.22","velocity":0.3543307086614173,"duration":"0.02"},{"name":"A#5","midi":82,"time":"460.22","velocity":0.3937007874015748,"duration":"0.07"},{"name":"C6","midi":84,"time":"460.22","velocity":0.23622047244094488,"duration":"0.02"},{"name":"F#4","midi":66,"time":"460.24","velocity":0.4566929133858268,"duration":"0.27"},{"name":"A4","midi":69,"time":"460.24","velocity":0.2440944881889764,"duration":"0.02"},{"name":"C#5","midi":73,"time":"460.24","velocity":0.3779527559055118,"duration":"0.16"},{"name":"B5","midi":83,"time":"460.24","velocity":0.3937007874015748,"duration":"0.16"},{"name":"F#5","midi":78,"time":"460.26","velocity":0.5118110236220472,"duration":"0.02"},{"name":"C#6","midi":85,"time":"460.26","velocity":0.4094488188976378,"duration":"0.14"},{"name":"C6","midi":84,"time":"460.27","velocity":0.33070866141732286,"duration":"0.12"},{"name":"A3","midi":57,"time":"460.28","velocity":0.33858267716535434,"duration":"0.02"},{"name":"D3","midi":50,"time":"460.30","velocity":0.4881889763779528,"duration":"0.02"},{"name":"E4","midi":64,"time":"460.30","velocity":0.3543307086614173,"duration":"0.05"},{"name":"D#5","midi":75,"time":"460.30","velocity":0.33858267716535434,"duration":"0.03"},{"name":"G#5","midi":80,"time":"460.30","velocity":0.25196850393700787,"duration":"0.06"},{"name":"G6","midi":91,"time":"460.30","velocity":0.25196850393700787,"duration":"0.02"},{"name":"C#3","midi":49,"time":"460.33","velocity":0.48031496062992124,"duration":"0.02"},{"name":"A3","midi":57,"time":"460.33","velocity":0.2992125984251969,"duration":"0.02"},{"name":"A#5","midi":82,"time":"460.33","velocity":0.30708661417322836,"duration":"0.02"},{"name":"F#5","midi":78,"time":"460.34","velocity":0.5748031496062992,"duration":"0.22"},{"name":"D3","midi":50,"time":"460.35","velocity":0.5748031496062992,"duration":"0.15"},{"name":"A5","midi":81,"time":"460.35","velocity":0.2755905511811024,"duration":"0.03"},{"name":"G6","midi":91,"time":"460.35","velocity":0.2047244094488189,"duration":"0.03"},{"name":"G#5","midi":80,"time":"460.37","velocity":0.33858267716535434,"duration":"0.08"},{"name":"A#5","midi":82,"time":"460.37","velocity":0.4251968503937008,"duration":"0.08"},{"name":"D6","midi":86,"time":"460.37","velocity":0.2440944881889764,"duration":"0.05"},{"name":"A4","midi":69,"time":"460.38","velocity":0.2992125984251969,"duration":"0.13"},{"name":"C6","midi":84,"time":"460.40","velocity":0.33070866141732286,"duration":"0.15"},{"name":"F6","midi":89,"time":"460.40","velocity":0.29133858267716534,"duration":"0.03"},{"name":"A3","midi":57,"time":"460.41","velocity":0.2755905511811024,"duration":"0.02"},{"name":"C#6","midi":85,"time":"460.41","velocity":0.3937007874015748,"duration":"0.10"},{"name":"D5","midi":74,"time":"460.42","velocity":0.3779527559055118,"duration":"0.07"},{"name":"D#6","midi":87,"time":"460.42","velocity":0.1889763779527559,"duration":"0.05"},{"name":"C4","midi":60,"time":"460.43","velocity":0.2755905511811024,"duration":"0.02"},{"name":"G6","midi":91,"time":"460.43","velocity":0.18110236220472442,"duration":"0.03"},{"name":"F6","midi":89,"time":"460.44","velocity":0.30708661417322836,"duration":"0.19"},{"name":"G5","midi":79,"time":"460.45","velocity":0.28346456692913385,"duration":"0.06"},{"name":"B5","midi":83,"time":"460.45","velocity":0.4409448818897638,"duration":"0.07"},{"name":"C#4","midi":61,"time":"460.47","velocity":0.3700787401574803,"duration":"0.03"},{"name":"B4","midi":71,"time":"460.47","velocity":0.25196850393700787,"duration":"0.02"},{"name":"G7","midi":103,"time":"460.48","velocity":0.1732283464566929,"duration":"0.03"},{"name":"C#5","midi":73,"time":"460.49","velocity":0.4881889763779528,"duration":"0.26"},{"name":"D#6","midi":87,"time":"460.49","velocity":0.2677165354330709,"duration":"0.05"},{"name":"D#3","midi":51,"time":"460.50","velocity":0.5196850393700787,"duration":"0.02"},{"name":"C4","midi":60,"time":"460.50","velocity":0.29133858267716534,"duration":"0.02"},{"name":"G#4","midi":68,"time":"460.50","velocity":0.5039370078740157,"duration":"0.02"},{"name":"D6","midi":86,"time":"460.50","velocity":0.29133858267716534,"duration":"0.06"},{"name":"A6","midi":93,"time":"460.50","velocity":0.2992125984251969,"duration":"0.19"},{"name":"B2","midi":47,"time":"460.52","velocity":0.48031496062992124,"duration":"0.02"},{"name":"F#4","midi":66,"time":"460.52","velocity":0.5196850393700787,"duration":"0.09"},{"name":"A4","midi":69,"time":"460.52","velocity":0.5196850393700787,"duration":"0.05"},{"name":"A#5","midi":82,"time":"460.52","velocity":0.4409448818897638,"duration":"0.09"},{"name":"G7","midi":103,"time":"460.52","velocity":0.1968503937007874,"duration":"0.03"},{"name":"G#3","midi":56,"time":"460.53","velocity":0.4645669291338583,"duration":"0.05"},{"name":"C#4","midi":61,"time":"460.53","velocity":0.5196850393700787,"duration":"0.02"},{"name":"D#5","midi":75,"time":"460.53","velocity":0.3858267716535433,"duration":"0.02"},{"name":"C#6","midi":85,"time":"460.53","velocity":0.5748031496062992,"duration":"1.33"},{"name":"C3","midi":48,"time":"460.55","velocity":0.5196850393700787,"duration":"0.01"},{"name":"G5","midi":79,"time":"460.55","velocity":0.3700787401574803,"duration":"0.02"},{"name":"E5","midi":76,"time":"460.56","velocity":0.41732283464566927,"duration":"0.08"},{"name":"G#5","midi":80,"time":"460.56","velocity":0.23622047244094488,"duration":"0.08"},{"name":"E7","midi":100,"time":"460.56","velocity":0.3543307086614173,"duration":"1.72"},{"name":"F#5","midi":78,"time":"460.57","velocity":0.5196850393700787,"duration":"0.08"},{"name":"A5","midi":81,"time":"460.57","velocity":0.2047244094488189,"duration":"0.05"},{"name":"D6","midi":86,"time":"460.57","velocity":0.2283464566929134,"duration":"0.07"},{"name":"G6","midi":91,"time":"460.57","velocity":0.1889763779527559,"duration":"0.07"},{"name":"D4","midi":62,"time":"460.58","velocity":0.3858267716535433,"duration":"0.02"},{"name":"A4","midi":69,"time":"460.58","velocity":0.3779527559055118,"duration":"0.05"},{"name":"D#7","midi":99,"time":"460.58","velocity":0.36220472440944884,"duration":"7.30"},{"name":"G7","midi":103,"time":"460.58","velocity":0.2125984251968504,"duration":"0.24"},{"name":"D3","midi":50,"time":"460.59","velocity":0.49606299212598426,"duration":"0.08"},{"name":"C#4","midi":61,"time":"460.60","velocity":0.36220472440944884,"duration":"0.02"},{"name":"C7","midi":96,"time":"460.60","velocity":0.2677165354330709,"duration":"0.20"},{"name":"A3","midi":57,"time":"460.62","velocity":0.36220472440944884,"duration":"0.02"},{"name":"E4","midi":64,"time":"460.62","velocity":0.3543307086614173,"duration":"0.05"},{"name":"G#4","midi":68,"time":"460.62","velocity":0.30708661417322836,"duration":"0.03"},{"name":"B5","midi":83,"time":"460.62","velocity":0.3543307086614173,"duration":"0.08"},{"name":"B6","midi":95,"time":"460.62","velocity":0.4094488188976378,"duration":"1.03"},{"name":"C4","midi":60,"time":"460.64","velocity":0.36220472440944884,"duration":"0.02"},{"name":"A5","midi":81,"time":"460.64","velocity":0.31496062992125984,"duration":"0.09"},{"name":"F6","midi":89,"time":"460.64","velocity":0.30708661417322836,"duration":"0.16"},{"name":"D6","midi":86,"time":"460.65","velocity":0.25984251968503935,"duration":"0.02"},{"name":"F#4","midi":66,"time":"460.66","velocity":0.3228346456692913,"duration":"0.02"},{"name":"A#4","midi":70,"time":"460.66","velocity":0.29133858267716534,"duration":"0.02"},{"name":"E5","midi":76,"time":"460.66","velocity":0.4094488188976378,"duration":"0.41"},{"name":"F#5","midi":78,"time":"460.66","velocity":0.5984251968503937,"duration":"0.59"},{"name":"D#6","midi":87,"time":"460.66","velocity":0.25984251968503935,"duration":"0.09"},{"name":"G6","midi":91,"time":"460.66","velocity":0.2204724409448819,"duration":"0.09"},{"name":"A3","midi":57,"time":"460.67","velocity":0.3779527559055118,"duration":"0.02"},{"name":"E4","midi":64,"time":"460.67","velocity":0.36220472440944884,"duration":"0.10"},{"name":"A#5","midi":82,"time":"460.69","velocity":0.4409448818897638,"duration":"0.08"},{"name":"B1","midi":35,"time":"460.70","velocity":0.31496062992125984,"duration":"0.03"},{"name":"A4","midi":69,"time":"460.70","velocity":0.2204724409448819,"duration":"0.03"},{"name":"A6","midi":93,"time":"460.70","velocity":0.31496062992125984,"duration":"0.66"},{"name":"D3","midi":50,"time":"460.71","velocity":0.5196850393700787,"duration":"0.02"},{"name":"C#4","midi":61,"time":"460.71","velocity":0.36220472440944884,"duration":"0.02"},{"name":"D6","midi":86,"time":"460.72","velocity":0.23622047244094488,"duration":"0.03"},{"name":"C#3","midi":49,"time":"460.73","velocity":0.49606299212598426,"duration":"0.03"},{"name":"A3","midi":57,"time":"460.73","velocity":0.3700787401574803,"duration":"0.03"},{"name":"D5","midi":74,"time":"460.73","velocity":0.33070866141732286,"duration":"0.06"},{"name":"A#4","midi":70,"time":"460.74","velocity":0.33070866141732286,"duration":"0.03"},{"name":"C5","midi":72,"time":"460.74","velocity":0.33858267716535434,"duration":"0.03"},{"name":"A5","midi":81,"time":"460.76","velocity":0.28346456692913385,"duration":"0.09"},{"name":"B5","midi":83,"time":"460.76","velocity":0.4251968503937008,"duration":"0.09"},{"name":"D3","midi":50,"time":"460.77","velocity":0.5039370078740157,"duration":"0.02"},{"name":"F#4","midi":66,"time":"460.77","velocity":0.5433070866141733,"duration":"0.13"},{"name":"D#6","midi":87,"time":"460.77","velocity":0.16535433070866143,"duration":"0.03"},{"name":"A3","midi":57,"time":"460.78","velocity":0.3858267716535433,"duration":"0.08"},{"name":"C#5","midi":73,"time":"460.78","velocity":0.4645669291338583,"duration":"0.14"},{"name":"G6","midi":91,"time":"460.78","velocity":0.07874015748031496,"duration":"0.05"},{"name":"C#3","midi":49,"time":"460.79","velocity":0.5039370078740157,"duration":"0.02"},{"name":"D4","midi":62,"time":"460.79","velocity":0.3228346456692913,"duration":"0.02"},{"name":"D3","midi":50,"time":"460.81","velocity":0.5590551181102362,"duration":"0.07"},{"name":"B4","midi":71,"time":"460.83","velocity":0.25196850393700787,"duration":"0.02"},{"name":"G7","midi":103,"time":"460.84","velocity":0.2047244094488189,"duration":"0.15"},{"name":"G#5","midi":80,"time":"460.85","velocity":0.2440944881889764,"duration":"0.07"},{"name":"A#5","midi":82,"time":"460.85","velocity":0.44881889763779526,"duration":"0.08"},{"name":"D6","midi":86,"time":"460.85","velocity":0.2440944881889764,"duration":"0.03"},{"name":"G6","midi":91,"time":"460.85","velocity":0.2125984251968504,"duration":"0.03"},{"name":"B5","midi":83,"time":"460.86","velocity":0.5984251968503937,"duration":"0.44"},{"name":"D#6","midi":87,"time":"460.86","velocity":0.23622047244094488,"duration":"0.08"},{"name":"F6","midi":89,"time":"460.87","velocity":0.2440944881889764,"duration":"0.08"},{"name":"F3","midi":53,"time":"460.88","velocity":0.4409448818897638,"duration":"0.02"},{"name":"B4","midi":71,"time":"460.88","velocity":0.3858267716535433,"duration":"0.03"},{"name":"B2","midi":47,"time":"460.91","velocity":0.5590551181102362,"duration":"0.02"},{"name":"A#3","midi":58,"time":"460.91","velocity":0.36220472440944884,"duration":"0.02"},{"name":"E4","midi":64,"time":"460.91","velocity":0.2755905511811024,"duration":"0.02"},{"name":"F#4","midi":66,"time":"460.91","velocity":0.3464566929133858,"duration":"0.03"},{"name":"D6","midi":86,"time":"460.91","velocity":0.2283464566929134,"duration":"0.05"},{"name":"G6","midi":91,"time":"460.91","velocity":0.13385826771653545,"duration":"0.03"},{"name":"D#1","midi":27,"time":"460.92","velocity":0.2677165354330709,"duration":"0.03"},{"name":"G#4","midi":68,"time":"460.92","velocity":0.28346456692913385,"duration":"0.05"},{"name":"A5","midi":81,"time":"460.92","velocity":0.25196850393700787,"duration":"0.02"},{"name":"C3","midi":48,"time":"460.93","velocity":0.5590551181102362,"duration":"0.01"},{"name":"A3","midi":57,"time":"460.93","velocity":0.3228346456692913,"duration":"0.03"},{"name":"D4","midi":62,"time":"460.93","velocity":0.3464566929133858,"duration":"0.02"},{"name":"B4","midi":71,"time":"460.93","velocity":0.5039370078740157,"duration":"0.33"},{"name":"F#1","midi":30,"time":"460.95","velocity":0.36220472440944884,"duration":"0.03"},{"name":"D3","midi":50,"time":"460.95","velocity":0.49606299212598426,"duration":"0.05"},{"name":"F#4","midi":66,"time":"460.95","velocity":0.3858267716535433,"duration":"0.08"},{"name":"A5","midi":81,"time":"460.97","velocity":0.2992125984251969,"duration":"0.06"},{"name":"F6","midi":89,"time":"460.97","velocity":0.2204724409448819,"duration":"0.12"},{"name":"C7","midi":96,"time":"460.97","velocity":0.25984251968503935,"duration":"0.16"},{"name":"C#5","midi":73,"time":"460.98","velocity":0.3464566929133858,"duration":"0.06"},{"name":"G#5","midi":80,"time":"460.98","velocity":0.31496062992125984,"duration":"0.07"},{"name":"G#3","midi":56,"time":"460.99","velocity":0.2992125984251969,"duration":"0.02"},{"name":"C#3","midi":49,"time":"461.00","velocity":0.5196850393700787,"duration":"0.01"},{"name":"A#5","midi":82,"time":"461.00","velocity":0.4251968503937008,"duration":"0.07"},{"name":"G7","midi":103,"time":"461.00","velocity":0.16535433070866143,"duration":"0.08"},{"name":"D3","midi":50,"time":"461.01","velocity":0.5669291338582677,"duration":"0.01"},{"name":"D#3","midi":51,"time":"461.02","velocity":0.5511811023622047,"duration":"0.02"},{"name":"D#6","midi":87,"time":"461.03","velocity":0.12598425196850394,"duration":"0.03"},{"name":"F#4","midi":66,"time":"461.05","velocity":0.41732283464566927,"duration":"0.08"},{"name":"C#3","midi":49,"time":"461.06","velocity":0.5196850393700787,"duration":"0.01"},{"name":"G#5","midi":80,"time":"461.06","velocity":0.2755905511811024,"duration":"0.02"},{"name":"D3","midi":50,"time":"461.07","velocity":0.5590551181102362,"duration":"0.02"},{"name":"A5","midi":81,"time":"461.07","velocity":0.1968503937007874,"duration":"0.06"},{"name":"C#5","midi":73,"time":"461.08","velocity":0.36220472440944884,"duration":"0.05"},{"name":"E5","midi":76,"time":"461.08","velocity":0.30708661417322836,"duration":"0.14"},{"name":"D6","midi":86,"time":"461.08","velocity":0.25196850393700787,"duration":"0.09"},{"name":"G#1","midi":32,"time":"461.09","velocity":0.28346456692913385,"duration":"0.02"},{"name":"G7","midi":103,"time":"461.09","velocity":0.23622047244094488,"duration":"0.16"},{"name":"D3","midi":50,"time":"461.10","velocity":0.5590551181102362,"duration":"0.15"},{"name":"G#5","midi":80,"time":"461.10","velocity":0.33858267716535434,"duration":"0.09"},{"name":"F6","midi":89,"time":"461.10","velocity":0.2440944881889764,"duration":"0.13"},{"name":"C#4","midi":61,"time":"461.12","velocity":0.29133858267716534,"duration":"0.02"},{"name":"A4","midi":69,"time":"461.12","velocity":0.4094488188976378,"duration":"0.03"},{"name":"D5","midi":74,"time":"461.13","velocity":0.31496062992125984,"duration":"0.14"},{"name":"A3","midi":57,"time":"461.14","velocity":0.4015748031496063,"duration":"0.05"},{"name":"F#4","midi":66,"time":"461.14","velocity":0.3543307086614173,"duration":"0.07"},{"name":"C7","midi":96,"time":"461.14","velocity":0.29133858267716534,"duration":"0.13"},{"name":"G6","midi":91,"time":"461.15","velocity":0.2992125984251969,"duration":"0.03"},{"name":"D#6","midi":87,"time":"461.17","velocity":0.1732283464566929,"duration":"0.05"},{"name":"A3","midi":57,"time":"461.20","velocity":0.2677165354330709,"duration":"0.02"},{"name":"A5","midi":81,"time":"461.20","velocity":0.28346456692913385,"duration":"0.07"},{"name":"G#5","midi":80,"time":"461.21","velocity":0.1732283464566929,"duration":"0.03"},{"name":"F#4","midi":66,"time":"461.22","velocity":0.2677165354330709,"duration":"0.02"},{"name":"E5","midi":76,"time":"461.23","velocity":0.3464566929133858,"duration":"0.27"},{"name":"F4","midi":65,"time":"461.24","velocity":0.3779527559055118,"duration":"0.02"},{"name":"F2","midi":41,"time":"461.26","velocity":0.6062992125984252,"duration":"0.03"},{"name":"G3","midi":55,"time":"461.26","velocity":0.49606299212598426,"duration":"0.02"},{"name":"A#4","midi":70,"time":"461.26","velocity":0.4251968503937008,"duration":"0.02"},{"name":"F5","midi":77,"time":"461.26","velocity":0.3937007874015748,"duration":"0.02"},{"name":"G#5","midi":80,"time":"461.26","velocity":0.2677165354330709,"duration":"0.05"},{"name":"G6","midi":91,"time":"461.26","velocity":0.25984251968503935,"duration":"0.02"},{"name":"F#4","midi":66,"time":"461.27","velocity":0.3700787401574803,"duration":"0.12"},{"name":"B4","midi":71,"time":"461.27","velocity":0.3858267716535433,"duration":"0.02"},{"name":"C#5","midi":73,"time":"461.27","velocity":0.2992125984251969,"duration":"0.02"},{"name":"F#5","midi":78,"time":"461.27","velocity":0.5748031496062992,"duration":"0.30"},{"name":"G7","midi":103,"time":"461.27","velocity":0.3228346456692913,"duration":"0.56"},{"name":"A#3","midi":58,"time":"461.28","velocity":0.41732283464566927,"duration":"0.02"},{"name":"A5","midi":81,"time":"461.28","velocity":0.3700787401574803,"duration":"0.07"},{"name":"C7","midi":96,"time":"461.28","velocity":0.2440944881889764,"duration":"0.07"},{"name":"B3","midi":59,"time":"461.29","velocity":0.2677165354330709,"duration":"0.02"},{"name":"A#5","midi":82,"time":"461.29","velocity":0.47244094488188976,"duration":"0.10"},{"name":"F6","midi":89,"time":"461.29","velocity":0.15748031496062992,"duration":"0.06"},{"name":"G6","midi":91,"time":"461.29","velocity":0.16535433070866143,"duration":"0.03"},{"name":"C3","midi":48,"time":"461.30","velocity":0.5118110236220472,"duration":"0.02"},{"name":"B4","midi":71,"time":"461.30","velocity":0.4251968503937008,"duration":"0.34"},{"name":"C#5","midi":73,"time":"461.30","velocity":0.48031496062992124,"duration":"0.36"},{"name":"D#6","midi":87,"time":"461.30","velocity":0.16535433070866143,"duration":"0.05"},{"name":"A1","midi":33,"time":"461.31","velocity":0.5433070866141733,"duration":"0.01"},{"name":"B1","midi":35,"time":"461.33","velocity":0.5511811023622047,"duration":"0.02"},{"name":"A4","midi":69,"time":"461.33","velocity":0.3464566929133858,"duration":"0.03"},{"name":"D6","midi":86,"time":"461.34","velocity":0.2204724409448819,"duration":"0.10"},{"name":"G#5","midi":80,"time":"461.35","velocity":0.2283464566929134,"duration":"0.09"},{"name":"G6","midi":91,"time":"461.35","velocity":0.2283464566929134,"duration":"0.06"},{"name":"D4","midi":62,"time":"461.36","velocity":0.3937007874015748,"duration":"0.17"},{"name":"A5","midi":81,"time":"461.36","velocity":0.2283464566929134,"duration":"0.02"},{"name":"D3","midi":50,"time":"461.37","velocity":0.5118110236220472,"duration":"0.03"},{"name":"A#3","midi":58,"time":"461.37","velocity":0.33858267716535434,"duration":"0.02"},{"name":"A6","midi":93,"time":"461.37","velocity":0.2440944881889764,"duration":"0.09"},{"name":"C7","midi":96,"time":"461.37","velocity":0.25196850393700787,"duration":"0.33"},{"name":"C2","midi":36,"time":"461.38","velocity":0.4645669291338583,"duration":"0.02"},{"name":"B5","midi":83,"time":"461.38","velocity":0.4645669291338583,"duration":"0.09"},{"name":"A5","midi":81,"time":"461.40","velocity":0.25984251968503935,"duration":"0.06"},{"name":"A3","midi":57,"time":"461.41","velocity":0.3858267716535433,"duration":"0.02"},{"name":"G4","midi":67,"time":"461.41","velocity":0.30708661417322836,"duration":"0.03"},{"name":"D3","midi":50,"time":"461.42","velocity":0.5118110236220472,"duration":"0.01"},{"name":"D#6","midi":87,"time":"461.42","velocity":0.2204724409448819,"duration":"0.03"},{"name":"D#3","midi":51,"time":"461.43","velocity":0.5433070866141733,"duration":"0.01"},{"name":"B1","midi":35,"time":"461.44","velocity":0.4330708661417323,"duration":"0.02"},{"name":"F#4","midi":66,"time":"461.44","velocity":0.48031496062992124,"duration":"0.14"},{"name":"F6","midi":89,"time":"461.44","velocity":0.1889763779527559,"duration":"0.05"},{"name":"G6","midi":91,"time":"461.44","velocity":0.2440944881889764,"duration":"0.09"},{"name":"A4","midi":69,"time":"461.45","velocity":0.4409448818897638,"duration":"0.13"},{"name":"G#5","midi":80,"time":"461.45","velocity":0.25196850393700787,"duration":"0.06"},{"name":"A#6","midi":94,"time":"461.45","velocity":0.2755905511811024,"duration":"0.15"},{"name":"D3","midi":50,"time":"461.47","velocity":0.47244094488188976,"duration":"0.03"},{"name":"A#5","midi":82,"time":"461.47","velocity":0.4645669291338583,"duration":"0.08"},{"name":"D6","midi":86,"time":"461.48","velocity":0.2677165354330709,"duration":"0.16"},{"name":"D#6","midi":87,"time":"461.48","velocity":0.2047244094488189,"duration":"0.08"},{"name":"A#3","midi":58,"time":"461.49","velocity":0.36220472440944884,"duration":"0.02"},{"name":"C#3","midi":49,"time":"461.50","velocity":0.44881889763779526,"duration":"0.03"},{"name":"D#5","midi":75,"time":"461.51","velocity":0.25196850393700787,"duration":"0.02"},{"name":"A6","midi":93,"time":"461.51","velocity":0.33858267716535434,"duration":"0.41"},{"name":"E5","midi":76,"time":"461.52","velocity":0.3779527559055118,"duration":"0.08"},{"name":"D3","midi":50,"time":"461.53","velocity":0.4645669291338583,"duration":"0.03"},{"name":"E4","midi":64,"time":"461.53","velocity":0.3464566929133858,"duration":"0.02"},{"name":"G#5","midi":80,"time":"461.55","velocity":0.31496062992125984,"duration":"0.08"},{"name":"F6","midi":89,"time":"461.55","velocity":0.2440944881889764,"duration":"0.08"},{"name":"G6","midi":91,"time":"461.55","velocity":0.1889763779527559,"duration":"0.05"},{"name":"A#5","midi":82,"time":"461.56","velocity":0.3464566929133858,"duration":"0.05"},{"name":"C#3","midi":49,"time":"461.57","velocity":0.5275590551181102,"duration":"0.02"},{"name":"E4","midi":64,"time":"461.57","velocity":0.3937007874015748,"duration":"0.08"},{"name":"C6","midi":84,"time":"461.57","velocity":0.25196850393700787,"duration":"0.05"},{"name":"F#5","midi":78,"time":"461.58","velocity":0.5511811023622047,"duration":"0.37"},{"name":"D3","midi":50,"time":"461.59","velocity":0.5039370078740157,"duration":"0.03"},{"name":"A4","midi":69,"time":"461.59","velocity":0.4251968503937008,"duration":"0.12"},{"name":"D#6","midi":87,"time":"461.60","velocity":0.2047244094488189,"duration":"0.06"},{"name":"G6","midi":91,"time":"461.60","velocity":0.25196850393700787,"duration":"0.15"},{"name":"A#3","midi":58,"time":"461.62","velocity":0.3464566929133858,"duration":"0.02"},{"name":"A#5","midi":82,"time":"461.62","velocity":0.4330708661417323,"duration":"0.08"},{"name":"E2","midi":40,"time":"461.64","velocity":0.5748031496062992,"duration":"0.05"},{"name":"F3","midi":53,"time":"461.64","velocity":0.5118110236220472,"duration":"0.03"},{"name":"G4","midi":67,"time":"461.64","velocity":0.36220472440944884,"duration":"0.02"},{"name":"D#5","midi":75,"time":"461.64","velocity":0.3228346456692913,"duration":"0.03"},{"name":"F6","midi":89,"time":"461.64","velocity":0.2283464566929134,"duration":"0.05"},{"name":"B4","midi":71,"time":"461.65","velocity":0.3779527559055118,"duration":"0.12"},{"name":"G#5","midi":80,"time":"461.65","velocity":0.33858267716535434,"duration":"0.38"},{"name":"D6","midi":86,"time":"461.65","velocity":0.25984251968503935,"duration":"0.08"},{"name":"F#4","midi":66,"time":"461.66","velocity":0.47244094488188976,"duration":"0.08"},{"name":"D5","midi":74,"time":"461.66","velocity":0.30708661417322836,"duration":"0.07"},{"name":"B6","midi":95,"time":"461.67","velocity":0.2204724409448819,"duration":"0.03"},{"name":"B1","midi":35,"time":"461.69","velocity":0.5275590551181102,"duration":"0.02"},{"name":"B5","midi":83,"time":"461.70","velocity":0.4251968503937008,"duration":"0.08"},{"name":"C#3","midi":49,"time":"461.71","velocity":0.5511811023622047,"duration":"0.02"},{"name":"C7","midi":96,"time":"461.71","velocity":0.2440944881889764,"duration":"0.02"},{"name":"A4","midi":69,"time":"461.72","velocity":0.33070866141732286,"duration":"0.03"},{"name":"C#5","midi":73,"time":"461.72","velocity":0.5196850393700787,"duration":"0.45"},{"name":"D3","midi":50,"time":"461.73","velocity":0.5590551181102362,"duration":"0.02"},{"name":"E5","midi":76,"time":"461.73","velocity":0.47244094488188976,"duration":"0.31"},{"name":"D#6","midi":87,"time":"461.73","velocity":0.1968503937007874,"duration":"0.13"},{"name":"A3","midi":57,"time":"461.74","velocity":0.4251968503937008,"duration":"0.05"},{"name":"D6","midi":86,"time":"461.74","velocity":0.2440944881889764,"duration":"0.05"},{"name":"C7","midi":96,"time":"461.74","velocity":0.2283464566929134,"duration":"0.15"},{"name":"F1","midi":29,"time":"461.76","velocity":0.2992125984251969,"duration":"0.02"},{"name":"C#3","midi":49,"time":"461.76","velocity":0.5118110236220472,"duration":"0.02"},{"name":"E4","midi":64,"time":"461.78","velocity":0.2992125984251969,"duration":"0.05"},{"name":"A#5","midi":82,"time":"461.78","velocity":0.41732283464566927,"duration":"0.10"},{"name":"B5","midi":83,"time":"461.79","velocity":0.3779527559055118,"duration":"0.05"},{"name":"A3","midi":57,"time":"461.80","velocity":0.3228346456692913,"duration":"0.02"},{"name":"D6","midi":86,"time":"461.80","velocity":0.3228346456692913,"duration":"0.10"},{"name":"D3","midi":50,"time":"461.81","velocity":0.5511811023622047,"duration":"0.16"},{"name":"G6","midi":91,"time":"461.81","velocity":0.33070866141732286,"duration":"0.28"},{"name":"B1","midi":35,"time":"461.83","velocity":0.36220472440944884,"duration":"0.02"},{"name":"F#4","midi":66,"time":"461.83","velocity":0.4251968503937008,"duration":"0.13"},{"name":"B4","midi":71,"time":"461.83","velocity":0.25984251968503935,"duration":"0.02"},{"name":"B5","midi":83,"time":"461.85","velocity":0.47244094488188976,"duration":"0.08"},{"name":"F6","midi":89,"time":"461.85","velocity":0.2755905511811024,"duration":"0.02"},{"name":"C4","midi":60,"time":"461.86","velocity":0.23622047244094488,"duration":"0.03"},{"name":"C#2","midi":37,"time":"461.87","velocity":0.28346456692913385,"duration":"0.02"},{"name":"C#6","midi":85,"time":"461.87","velocity":0.5826771653543307,"duration":"0.94"},{"name":"D6","midi":86,"time":"461.92","velocity":0.2440944881889764,"duration":"0.05"},{"name":"A#5","midi":82,"time":"461.93","velocity":0.4330708661417323,"duration":"0.10"},{"name":"E4","midi":64,"time":"461.94","velocity":0.2755905511811024,"duration":"0.05"},{"name":"B5","midi":83,"time":"461.94","velocity":0.3543307086614173,"duration":"0.05"},{"name":"C7","midi":96,"time":"461.94","velocity":0.3779527559055118,"duration":"0.31"},{"name":"C4","midi":60,"time":"461.95","velocity":0.2992125984251969,"duration":"0.03"},{"name":"B4","midi":71,"time":"461.97","velocity":0.4645669291338583,"duration":"0.08"},{"name":"F#5","midi":78,"time":"461.97","velocity":0.5354330708661418,"duration":"0.15"},{"name":"D#6","midi":87,"time":"461.97","velocity":0.11023622047244094,"duration":"0.03"},{"name":"A6","midi":93,"time":"461.97","velocity":0.3228346456692913,"duration":"0.06"},{"name":"D7","midi":98,"time":"461.97","velocity":0.25984251968503935,"duration":"0.03"},{"name":"B6","midi":95,"time":"461.98","velocity":0.4330708661417323,"duration":"0.86"},{"name":"C6","midi":84,"time":"461.99","velocity":0.29133858267716534,"duration":"0.05"},{"name":"D6","midi":86,"time":"461.99","velocity":0.25984251968503935,"duration":"0.02"},{"name":"G#6","midi":92,"time":"461.99","velocity":0.47244094488188976,"duration":"0.70"},{"name":"E3","midi":52,"time":"462.00","velocity":0.4251968503937008,"duration":"0.02"},{"name":"D4","midi":62,"time":"462.00","velocity":0.48031496062992124,"duration":"0.02"},{"name":"G#4","midi":68,"time":"462.00","velocity":0.4566929133858268,"duration":"0.05"},{"name":"D#6","midi":87,"time":"462.01","velocity":0.30708661417322836,"duration":"0.07"},{"name":"D7","midi":98,"time":"462.01","velocity":0.3464566929133858,"duration":"0.91"},{"name":"F3","midi":53,"time":"462.02","velocity":0.5275590551181102,"duration":"0.01"},{"name":"C4","midi":60,"time":"462.02","velocity":0.4409448818897638,"duration":"0.02"},{"name":"A5","midi":81,"time":"462.02","velocity":0.3464566929133858,"duration":"0.22"},{"name":"D#3","midi":51,"time":"462.03","velocity":0.5905511811023622,"duration":"0.01"},{"name":"F#4","midi":66,"time":"462.03","velocity":0.5275590551181102,"duration":"0.19"},{"name":"D#5","midi":75,"time":"462.03","velocity":0.30708661417322836,"duration":"0.02"},{"name":"C#3","midi":49,"time":"462.05","velocity":0.5669291338582677,"duration":"0.02"},{"name":"G5","midi":79,"time":"462.05","velocity":0.2204724409448819,"duration":"0.03"},{"name":"F6","midi":89,"time":"462.05","velocity":0.18110236220472442,"duration":"0.05"},{"name":"D4","midi":62,"time":"462.06","velocity":0.3779527559055118,"duration":"0.05"},{"name":"D3","midi":50,"time":"462.07","velocity":0.5354330708661418,"duration":"0.12"},{"name":"G#4","midi":68,"time":"462.07","velocity":0.3937007874015748,"duration":"0.03"},{"name":"A#5","midi":82,"time":"462.08","velocity":0.4330708661417323,"duration":"0.08"},{"name":"D6","midi":86,"time":"462.08","velocity":0.2440944881889764,"duration":"0.05"},{"name":"F7","midi":101,"time":"462.08","velocity":0.29133858267716534,"duration":"0.30"},{"name":"F2","midi":41,"time":"462.10","velocity":0.3700787401574803,"duration":"0.03"},{"name":"C6","midi":84,"time":"462.10","velocity":0.3543307086614173,"duration":"0.05"},{"name":"D5","midi":74,"time":"462.12","velocity":0.28346456692913385,"duration":"0.03"},{"name":"E5","midi":76,"time":"462.12","velocity":0.30708661417322836,"duration":"0.07"},{"name":"D#6","midi":87,"time":"462.12","velocity":0.23622047244094488,"duration":"0.05"},{"name":"G6","midi":91,"time":"462.12","velocity":0.2677165354330709,"duration":"0.07"},{"name":"F#5","midi":78,"time":"462.13","velocity":0.5905511811023622,"duration":"0.21"},{"name":"F6","midi":89,"time":"462.13","velocity":0.1889763779527559,"duration":"0.03"},{"name":"C#4","midi":61,"time":"462.14","velocity":0.23622047244094488,"duration":"0.02"},{"name":"G#4","midi":68,"time":"462.14","velocity":0.33858267716535434,"duration":"0.02"},{"name":"A#4","midi":70,"time":"462.14","velocity":0.3543307086614173,"duration":"0.07"},{"name":"B5","midi":83,"time":"462.15","velocity":0.4330708661417323,"duration":"0.10"},{"name":"F#2","midi":42,"time":"462.16","velocity":0.4015748031496063,"duration":"0.03"},{"name":"A3","midi":57,"time":"462.16","velocity":0.33858267716535434,"duration":"0.02"},{"name":"D5","midi":74,"time":"462.16","velocity":0.2283464566929134,"duration":"0.03"},{"name":"F6","midi":89,"time":"462.17","velocity":0.48031496062992124,"duration":"0.07"},{"name":"C#5","midi":73,"time":"462.19","velocity":0.1732283464566929,"duration":"0.03"},{"name":"G#5","midi":80,"time":"462.19","velocity":0.30708661417322836,"duration":"0.09"},{"name":"D3","midi":50,"time":"462.20","velocity":0.5354330708661418,"duration":"0.01"},{"name":"D#6","midi":87,"time":"462.20","velocity":0.2283464566929134,"duration":"0.08"},{"name":"D#3","midi":51,"time":"462.21","velocity":0.5433070866141733,"duration":"0.01"},{"name":"B4","midi":71,"time":"462.21","velocity":0.2440944881889764,"duration":"0.02"},{"name":"G6","midi":91,"time":"462.21","velocity":0.3228346456692913,"duration":"0.17"},{"name":"D3","midi":50,"time":"462.22","velocity":0.5354330708661418,"duration":"0.01"},{"name":"G#4","midi":68,"time":"462.22","velocity":0.33070866141732286,"duration":"0.03"},{"name":"D6","midi":86,"time":"462.22","velocity":0.30708661417322836,"duration":"0.03"},{"name":"C#3","midi":49,"time":"462.23","velocity":0.5433070866141733,"duration":"0.01"},{"name":"E4","midi":64,"time":"462.23","velocity":0.29133858267716534,"duration":"0.02"},{"name":"C#5","midi":73,"time":"462.23","velocity":0.4015748031496063,"duration":"0.17"},{"name":"E5","midi":76,"time":"462.23","velocity":0.30708661417322836,"duration":"0.03"},{"name":"D3","midi":50,"time":"462.24","velocity":0.5905511811023622,"duration":"0.05"},{"name":"A3","midi":57,"time":"462.24","velocity":0.41732283464566927,"duration":"0.16"},{"name":"F#4","midi":66,"time":"462.24","velocity":0.3228346456692913,"duration":"0.02"},{"name":"A#5","midi":82,"time":"462.24","velocity":0.4094488188976378,"duration":"0.08"},{"name":"E6","midi":88,"time":"462.24","velocity":0.31496062992125984,"duration":"0.03"},{"name":"F#2","midi":42,"time":"462.26","velocity":0.33070866141732286,"duration":"0.02"},{"name":"F4","midi":65,"time":"462.27","velocity":0.33858267716535434,"duration":"0.02"},{"name":"B5","midi":83,"time":"462.27","velocity":0.3464566929133858,"duration":"0.05"},{"name":"D6","midi":86,"time":"462.27","velocity":0.1968503937007874,"duration":"0.03"},{"name":"C#3","midi":49,"time":"462.29","velocity":0.5354330708661418,"duration":"0.01"},{"name":"F#4","midi":66,"time":"462.29","velocity":0.5196850393700787,"duration":"0.37"},{"name":"E5","midi":76,"time":"462.29","velocity":0.2677165354330709,"duration":"0.03"},{"name":"D#6","midi":87,"time":"462.29","velocity":0.23622047244094488,"duration":"0.09"},{"name":"F6","midi":89,"time":"462.29","velocity":0.2047244094488189,"duration":"0.05"},{"name":"E7","midi":100,"time":"462.29","velocity":0.25984251968503935,"duration":"0.23"},{"name":"D3","midi":50,"time":"462.30","velocity":0.5669291338582677,"duration":"0.03"},{"name":"G#5","midi":80,"time":"462.30","velocity":0.2755905511811024,"duration":"0.07"},{"name":"A5","midi":81,"time":"462.30","velocity":0.36220472440944884,"duration":"0.13"},{"name":"C7","midi":96,"time":"462.30","velocity":0.2992125984251969,"duration":"0.37"},{"name":"B4","midi":71,"time":"462.31","velocity":0.3464566929133858,"duration":"0.06"},{"name":"E6","midi":88,"time":"462.31","velocity":0.2992125984251969,"duration":"0.14"},{"name":"B5","midi":83,"time":"462.33","velocity":0.4409448818897638,"duration":"0.07"},{"name":"D3","midi":50,"time":"462.35","velocity":0.5275590551181102,"duration":"0.06"},{"name":"F#5","midi":78,"time":"462.35","velocity":0.5748031496062992,"duration":"0.60"},{"name":"B4","midi":71,"time":"462.38","velocity":0.3700787401574803,"duration":"0.12"},{"name":"D#5","midi":75,"time":"462.38","velocity":0.2755905511811024,"duration":"0.02"},{"name":"G#5","midi":80,"time":"462.38","velocity":0.25196850393700787,"duration":"0.02"},{"name":"C6","midi":84,"time":"462.38","velocity":0.3700787401574803,"duration":"0.02"},{"name":"D6","midi":86,"time":"462.38","velocity":0.2283464566929134,"duration":"0.03"},{"name":"F7","midi":101,"time":"462.40","velocity":0.31496062992125984,"duration":"2.35"},{"name":"C3","midi":48,"time":"462.41","velocity":0.5748031496062992,"duration":"0.02"},{"name":"A#3","midi":58,"time":"462.41","velocity":0.41732283464566927,"duration":"0.03"},{"name":"D#4","midi":63,"time":"462.41","velocity":0.33070866141732286,"duration":"0.02"},{"name":"E5","midi":76,"time":"462.41","velocity":0.3543307086614173,"duration":"0.09"},{"name":"B5","midi":83,"time":"462.41","velocity":0.5275590551181102,"duration":"0.47"},{"name":"D#6","midi":87,"time":"462.41","velocity":0.11023622047244094,"duration":"0.03"},{"name":"A4","midi":69,"time":"462.42","velocity":0.3700787401574803,"duration":"0.07"},{"name":"G#5","midi":80,"time":"462.42","velocity":0.29133858267716534,"duration":"0.10"},{"name":"A#5","midi":82,"time":"462.42","velocity":0.4330708661417323,"duration":"0.05"},{"name":"F6","midi":89,"time":"462.42","velocity":0.25984251968503935,"duration":"0.02"},{"name":"D6","midi":86,"time":"462.43","velocity":0.2677165354330709,"duration":"0.06"},{"name":"G6","midi":91,"time":"462.43","velocity":0.2677165354330709,"duration":"0.03"},{"name":"D#3","midi":51,"time":"462.44","velocity":0.5196850393700787,"duration":"0.01"},{"name":"A3","midi":57,"time":"462.44","velocity":0.4330708661417323,"duration":"0.08"},{"name":"D4","midi":62,"time":"462.44","velocity":0.33070866141732286,"duration":"0.08"},{"name":"C#5","midi":73,"time":"462.44","velocity":0.25196850393700787,"duration":"0.02"},{"name":"D3","midi":50,"time":"462.45","velocity":0.5590551181102362,"duration":"0.09"},{"name":"D#6","midi":87,"time":"462.45","velocity":0.2125984251968504,"duration":"0.07"},{"name":"E6","midi":88,"time":"462.47","velocity":0.4094488188976378,"duration":"0.67"},{"name":"G6","midi":91,"time":"462.48","velocity":0.2047244094488189,"duration":"0.03"},{"name":"F6","midi":89,"time":"462.49","velocity":0.3700787401574803,"duration":"0.06"},{"name":"A#5","midi":82,"time":"462.50","velocity":0.3228346456692913,"duration":"0.03"},{"name":"D6","midi":86,"time":"462.50","velocity":0.2992125984251969,"duration":"0.02"},{"name":"E5","midi":76,"time":"462.51","velocity":0.28346456692913385,"duration":"0.03"},{"name":"A#3","midi":58,"time":"462.52","velocity":0.2992125984251969,"duration":"0.02"},{"name":"G7","midi":103,"time":"462.52","velocity":0.16535433070866143,"duration":"0.07"},{"name":"G6","midi":91,"time":"462.53","velocity":0.25196850393700787,"duration":"0.20"},{"name":"C#4","midi":61,"time":"462.55","velocity":0.31496062992125984,"duration":"0.02"},{"name":"C5","midi":72,"time":"462.56","velocity":0.2677165354330709,"duration":"0.02"},{"name":"A#5","midi":82,"time":"462.56","velocity":0.3858267716535433,"duration":"0.02"},{"name":"G#1","midi":32,"time":"462.57","velocity":0.28346456692913385,"duration":"0.02"},{"name":"D3","midi":50,"time":"462.57","velocity":0.5275590551181102,"duration":"0.03"},{"name":"D#4","midi":63,"time":"462.57","velocity":0.33070866141732286,"duration":"0.02"},{"name":"B4","midi":71,"time":"462.57","velocity":0.31496062992125984,"duration":"0.08"},{"name":"E5","midi":76,"time":"462.57","velocity":0.2755905511811024,"duration":"0.07"},{"name":"G#5","midi":80,"time":"462.57","velocity":0.30708661417322836,"duration":"0.09"},{"name":"B3","midi":59,"time":"462.58","velocity":0.2992125984251969,"duration":"0.02"},{"name":"A4","midi":69,"time":"462.58","velocity":0.36220472440944884,"duration":"0.07"},{"name":"C#5","midi":73,"time":"462.58","velocity":0.3543307086614173,"duration":"0.03"},{"name":"D#6","midi":87,"time":"462.58","velocity":0.2204724409448819,"duration":"0.08"},{"name":"F6","midi":89,"time":"462.58","velocity":0.31496062992125984,"duration":"0.02"},{"name":"A#5","midi":82,"time":"462.59","velocity":0.3858267716535433,"duration":"0.03"},{"name":"C#3","midi":49,"time":"462.60","velocity":0.5275590551181102,"duration":"0.01"},{"name":"D3","midi":50,"time":"462.62","velocity":0.5826771653543307,"duration":"0.13"},{"name":"D6","midi":86,"time":"462.62","velocity":0.2677165354330709,"duration":"0.06"},{"name":"D5","midi":74,"time":"462.63","velocity":0.31496062992125984,"duration":"0.07"},{"name":"G7","midi":103,"time":"462.63","velocity":0.25196850393700787,"duration":"0.21"},{"name":"E4","midi":64,"time":"462.64","velocity":0.3779527559055118,"duration":"0.08"},{"name":"B4","midi":71,"time":"462.66","velocity":0.4251968503937008,"duration":"0.12"},{"name":"G5","midi":79,"time":"462.66","velocity":0.2755905511811024,"duration":"0.02"},{"name":"A#5","midi":82,"time":"462.66","velocity":0.3464566929133858,"duration":"0.03"},{"name":"C#5","midi":73,"time":"462.67","velocity":0.2283464566929134,"duration":"0.02"},{"name":"A5","midi":81,"time":"462.67","velocity":0.1968503937007874,"duration":"0.05"},{"name":"G#1","midi":32,"time":"462.69","velocity":0.4015748031496063,"duration":"0.02"},{"name":"A4","midi":69,"time":"462.69","velocity":0.28346456692913385,"duration":"0.02"},{"name":"F6","midi":89,"time":"462.69","velocity":0.2283464566929134,"duration":"0.05"},{"name":"D#6","midi":87,"time":"462.70","velocity":0.2283464566929134,"duration":"0.08"},{"name":"G#6","midi":92,"time":"462.70","velocity":0.4094488188976378,"duration":"0.73"},{"name":"F#4","midi":66,"time":"462.71","velocity":0.5118110236220472,"duration":"0.13"},{"name":"G#4","midi":68,"time":"462.71","velocity":0.2992125984251969,"duration":"0.02"},{"name":"C#5","midi":73,"time":"462.71","velocity":0.3858267716535433,"duration":"0.05"},{"name":"E5","midi":76,"time":"462.71","velocity":0.3858267716535433,"duration":"0.10"},{"name":"A#3","midi":58,"time":"462.72","velocity":0.2755905511811024,"duration":"0.02"},{"name":"C#4","midi":61,"time":"462.72","velocity":0.23622047244094488,"duration":"0.03"},{"name":"A#5","midi":82,"time":"462.72","velocity":0.3858267716535433,"duration":"0.02"},{"name":"C7","midi":96,"time":"462.72","velocity":0.1732283464566929,"duration":"0.03"},{"name":"G#5","midi":80,"time":"462.73","velocity":0.2755905511811024,"duration":"0.03"},{"name":"C6","midi":84,"time":"462.73","velocity":0.25196850393700787,"duration":"0.02"},{"name":"F#2","midi":42,"time":"462.74","velocity":0.5275590551181102,"duration":"0.01"},{"name":"D#3","midi":51,"time":"462.74","velocity":0.5669291338582677,"duration":"0.01"},{"name":"A4","midi":69,"time":"462.74","velocity":0.3464566929133858,"duration":"0.02"},{"name":"A5","midi":81,"time":"462.74","velocity":0.3700787401574803,"duration":"0.10"},{"name":"G6","midi":91,"time":"462.74","velocity":0.31496062992125984,"duration":"0.21"},{"name":"F2","midi":41,"time":"462.76","velocity":0.6377952755905512,"duration":"0.03"},{"name":"D5","midi":74,"time":"462.76","velocity":0.3228346456692913,"duration":"0.10"},{"name":"G3","midi":55,"time":"462.77","velocity":0.3543307086614173,"duration":"0.02"},{"name":"C7","midi":96,"time":"462.77","velocity":0.2992125984251969,"duration":"0.20"},{"name":"G#5","midi":80,"time":"462.78","velocity":0.31496062992125984,"duration":"0.13"},{"name":"F6","midi":89,"time":"462.78","velocity":0.3543307086614173,"duration":"0.12"},{"name":"G#2","midi":44,"time":"462.79","velocity":0.4409448818897638,"duration":"0.02"},{"name":"D4","midi":62,"time":"462.79","velocity":0.25196850393700787,"duration":"0.03"},{"name":"A4","midi":69,"time":"462.79","velocity":0.4881889763779528,"duration":"0.34"},{"name":"B4","midi":71,"time":"462.79","velocity":0.3858267716535433,"duration":"0.05"},{"name":"C6","midi":84,"time":"462.80","velocity":0.2992125984251969,"duration":"0.03"},{"name":"D#6","midi":87,"time":"462.80","velocity":0.2204724409448819,"duration":"0.05"},{"name":"A#6","midi":94,"time":"462.80","velocity":0.3779527559055118,"duration":"0.77"},{"name":"A3","midi":57,"time":"462.83","velocity":0.33070866141732286,"duration":"0.02"},{"name":"E4","midi":64,"time":"462.83","velocity":0.4330708661417323,"duration":"0.03"},{"name":"A#5","midi":82,"time":"462.83","velocity":0.36220472440944884,"duration":"0.03"},{"name":"C#6","midi":85,"time":"462.83","velocity":0.5354330708661418,"duration":"1.43"},{"name":"D3","midi":50,"time":"462.84","velocity":0.5275590551181102,"duration":"0.01"},{"name":"C5","midi":72,"time":"462.84","velocity":0.2992125984251969,"duration":"0.02"},{"name":"D#3","midi":51,"time":"462.85","velocity":0.5118110236220472,"duration":"0.01"},{"name":"F#4","midi":66,"time":"462.85","velocity":0.36220472440944884,"duration":"0.02"},{"name":"D3","midi":50,"time":"462.86","velocity":0.5511811023622047,"duration":"0.06"},{"name":"C#5","midi":73,"time":"462.86","velocity":0.4566929133858268,"duration":"0.35"},{"name":"B1","midi":35,"time":"462.87","velocity":0.44881889763779526,"duration":"0.05"},{"name":"E4","midi":64,"time":"462.87","velocity":0.36220472440944884,"duration":"0.03"},{"name":"A#5","midi":82,"time":"462.87","velocity":0.4251968503937008,"duration":"0.06"},{"name":"B5","midi":83,"time":"462.88","velocity":0.36220472440944884,"duration":"0.07"},{"name":"D#6","midi":87,"time":"462.88","velocity":0.23622047244094488,"duration":"0.13"},{"name":"F#4","midi":66,"time":"462.90","velocity":0.4409448818897638,"duration":"0.10"},{"name":"D#5","midi":75,"time":"462.90","velocity":0.25984251968503935,"duration":"0.02"},{"name":"D6","midi":86,"time":"462.90","velocity":0.29133858267716534,"duration":"0.08"},{"name":"B4","midi":71,"time":"462.91","velocity":0.33858267716535434,"duration":"0.06"},{"name":"F6","midi":89,"time":"462.91","velocity":0.25984251968503935,"duration":"0.07"},{"name":"C#3","midi":49,"time":"462.92","velocity":0.5196850393700787,"duration":"0.02"},{"name":"D4","midi":62,"time":"462.92","velocity":0.3700787401574803,"duration":"0.09"},{"name":"A3","midi":57,"time":"462.93","velocity":0.3464566929133858,"duration":"0.05"},{"name":"E5","midi":76,"time":"462.93","velocity":0.23622047244094488,"duration":"0.05"},{"name":"G#2","midi":44,"time":"462.94","velocity":0.3858267716535433,"duration":"0.02"},{"name":"D3","midi":50,"time":"462.94","velocity":0.5196850393700787,"duration":"0.01"},{"name":"A#5","midi":82,"time":"462.94","velocity":0.33070866141732286,"duration":"0.02"},{"name":"G7","midi":103,"time":"462.95","velocity":0.2283464566929134,"duration":"0.20"},{"name":"F#5","midi":78,"time":"462.97","velocity":0.5984251968503937,"duration":"0.30"},{"name":"B5","midi":83,"time":"462.97","velocity":0.4251968503937008,"duration":"0.05"},{"name":"C#3","midi":49,"time":"462.98","velocity":0.5275590551181102,"duration":"0.01"},{"name":"D#5","midi":75,"time":"462.98","velocity":0.2992125984251969,"duration":"0.16"},{"name":"A#5","midi":82,"time":"462.98","velocity":0.4015748031496063,"duration":"0.05"},{"name":"C7","midi":96,"time":"462.98","velocity":0.1732283464566929,"duration":"0.07"},{"name":"D3","midi":50,"time":"462.99","velocity":0.5196850393700787,"duration":"0.05"},{"name":"C6","midi":84,"time":"462.99","velocity":0.31496062992125984,"duration":"0.05"},{"name":"F6","midi":89,"time":"462.99","velocity":0.2440944881889764,"duration":"0.05"},{"name":"A3","midi":57,"time":"463.01","velocity":0.2755905511811024,"duration":"0.02"},{"name":"F#4","midi":66,"time":"463.01","velocity":0.31496062992125984,"duration":"0.02"},{"name":"B5","midi":83,"time":"463.02","velocity":0.3779527559055118,"duration":"0.06"},{"name":"D6","midi":86,"time":"463.02","velocity":0.29133858267716534,"duration":"0.03"},{"name":"C#3","midi":49,"time":"463.03","velocity":0.5511811023622047,"duration":"0.01"},{"name":"A#3","midi":58,"time":"463.03","velocity":0.2440944881889764,"duration":"0.02"},{"name":"F4","midi":65,"time":"463.03","velocity":0.3464566929133858,"duration":"0.02"},{"name":"A#5","midi":82,"time":"463.03","velocity":0.3700787401574803,"duration":"0.06"},{"name":"D3","midi":50,"time":"463.05","velocity":0.5669291338582677,"duration":"0.05"},{"name":"F6","midi":89,"time":"463.05","velocity":0.30708661417322836,"duration":"0.08"},{"name":"A3","midi":57,"time":"463.06","velocity":0.31496062992125984,"duration":"0.02"},{"name":"F#4","midi":66,"time":"463.06","velocity":0.4881889763779528,"duration":"0.08"},{"name":"B4","midi":71,"time":"463.06","velocity":0.28346456692913385,"duration":"0.02"},{"name":"G#5","midi":80,"time":"463.06","velocity":0.18110236220472442,"duration":"0.03"},{"name":"C7","midi":96,"time":"463.06","velocity":0.25984251968503935,"duration":"0.17"},{"name":"D6","midi":86,"time":"463.07","velocity":0.2677165354330709,"duration":"0.03"},{"name":"G6","midi":91,"time":"463.08","velocity":0.16535433070866143,"duration":"0.08"},{"name":"C#3","midi":49,"time":"463.09","velocity":0.5511811023622047,"duration":"0.01"},{"name":"B4","midi":71,"time":"463.09","velocity":0.3543307086614173,"duration":"0.07"},{"name":"C6","midi":84,"time":"463.09","velocity":0.28346456692913385,"duration":"0.03"},{"name":"D3","midi":50,"time":"463.10","velocity":0.5590551181102362,"duration":"0.02"},{"name":"B5","midi":83,"time":"463.12","velocity":0.48031496062992124,"duration":"0.21"},{"name":"C#3","midi":49,"time":"463.13","velocity":0.5354330708661418,"duration":"0.01"},{"name":"E5","midi":76,"time":"463.13","velocity":0.25984251968503935,"duration":"0.02"},{"name":"C3","midi":48,"time":"463.14","velocity":0.5433070866141733,"duration":"0.01"},{"name":"F#3","midi":54,"time":"463.14","velocity":0.44881889763779526,"duration":"0.02"},{"name":"A4","midi":69,"time":"463.14","velocity":0.2992125984251969,"duration":"0.07"},{"name":"D5","midi":74,"time":"463.14","velocity":0.31496062992125984,"duration":"0.03"},{"name":"F6","midi":89,"time":"463.14","velocity":0.2677165354330709,"duration":"0.03"},{"name":"D7","midi":98,"time":"463.14","velocity":0.25984251968503935,"duration":"0.21"},{"name":"B2","midi":47,"time":"463.15","velocity":0.44881889763779526,"duration":"0.03"},{"name":"D6","midi":86,"time":"463.15","velocity":0.33070866141732286,"duration":"0.05"},{"name":"E6","midi":88,"time":"463.15","velocity":0.3858267716535433,"duration":"0.23"},{"name":"G#3","midi":56,"time":"463.16","velocity":0.41732283464566927,"duration":"0.03"},{"name":"G#5","midi":80,"time":"463.16","velocity":0.29133858267716534,"duration":"0.03"},{"name":"B4","midi":71,"time":"463.17","velocity":0.31496062992125984,"duration":"0.03"},{"name":"G7","midi":103,"time":"463.17","velocity":0.25984251968503935,"duration":"0.55"},{"name":"F1","midi":29,"time":"463.19","velocity":0.3700787401574803,"duration":"0.02"},{"name":"D3","midi":50,"time":"463.19","velocity":0.5511811023622047,"duration":"0.12"},{"name":"E4","midi":64,"time":"463.19","velocity":0.36220472440944884,"duration":"0.03"},{"name":"D5","midi":74,"time":"463.19","velocity":0.2755905511811024,"duration":"0.02"},{"name":"C5","midi":72,"time":"463.21","velocity":0.3858267716535433,"duration":"0.02"},{"name":"G#5","midi":80,"time":"463.21","velocity":0.2755905511811024,"duration":"0.06"},{"name":"A#5","midi":82,"time":"463.21","velocity":0.33070866141732286,"duration":"0.03"},{"name":"G6","midi":91,"time":"463.21","velocity":0.28346456692913385,"duration":"0.03"},{"name":"A4","midi":69,"time":"463.22","velocity":0.31496062992125984,"duration":"0.07"},{"name":"C#5","midi":73,"time":"463.22","velocity":0.3937007874015748,"duration":"0.08"},{"name":"F#4","midi":66,"time":"463.23","velocity":0.36220472440944884,"duration":"0.06"},{"name":"B4","midi":71,"time":"463.23","velocity":0.47244094488188976,"duration":"0.28"},{"name":"D6","midi":86,"time":"463.23","velocity":0.28346456692913385,"duration":"0.05"},{"name":"D#6","midi":87,"time":"463.23","velocity":0.2440944881889764,"duration":"0.07"},{"name":"G6","midi":91,"time":"463.26","velocity":0.28346456692913385,"duration":"0.09"},{"name":"C7","midi":96,"time":"463.26","velocity":0.36220472440944884,"duration":"1.01"},{"name":"E5","midi":76,"time":"463.27","velocity":0.3700787401574803,"duration":"0.10"},{"name":"F#5","midi":78,"time":"463.28","velocity":0.5354330708661418,"duration":"0.14"},{"name":"G#5","midi":80,"time":"463.28","velocity":0.3543307086614173,"duration":"0.16"},{"name":"C#2","midi":37,"time":"463.29","velocity":0.3700787401574803,"duration":"0.02"},{"name":"D6","midi":86,"time":"463.29","velocity":0.30708661417322836,"duration":"0.15"},{"name":"F6","midi":89,"time":"463.29","velocity":0.28346456692913385,"duration":"0.19"},{"name":"C#3","midi":49,"time":"463.30","velocity":0.5196850393700787,"duration":"0.01"},{"name":"F#4","midi":66,"time":"463.30","velocity":0.4409448818897638,"duration":"0.15"},{"name":"A5","midi":81,"time":"463.30","velocity":0.1889763779527559,"duration":"0.03"},{"name":"D3","midi":50,"time":"463.31","velocity":0.5433070866141733,"duration":"0.02"},{"name":"C#5","midi":73,"time":"463.31","velocity":0.41732283464566927,"duration":"0.14"},{"name":"D#6","midi":87,"time":"463.31","velocity":0.28346456692913385,"duration":"0.16"},{"name":"A3","midi":57,"time":"463.33","velocity":0.3464566929133858,"duration":"0.02"},{"name":"A4","midi":69,"time":"463.33","velocity":0.3700787401574803,"duration":"0.14"},{"name":"A#5","midi":82,"time":"463.33","velocity":0.33858267716535434,"duration":"0.02"},{"name":"C6","midi":84,"time":"463.33","velocity":0.2677165354330709,"duration":"0.02"},{"name":"C#3","midi":49,"time":"463.34","velocity":0.4409448818897638,"duration":"0.02"},{"name":"A5","midi":81,"time":"463.35","velocity":0.3779527559055118,"duration":"0.17"},{"name":"B5","midi":83,"time":"463.35","velocity":0.4881889763779528,"duration":"0.20"},{"name":"D3","midi":50,"time":"463.36","velocity":0.5039370078740157,"duration":"0.03"},{"name":"A3","midi":57,"time":"463.36","velocity":0.28346456692913385,"duration":"0.02"},{"name":"G6","midi":91,"time":"463.37","velocity":0.2204724409448819,"duration":"0.08"},{"name":"D5","midi":74,"time":"463.41","velocity":0.2440944881889764,"duration":"0.02"},{"name":"E6","midi":88,"time":"463.41","velocity":0.4015748031496063,"duration":"1.22"},{"name":"A#5","midi":82,"time":"463.42","velocity":0.29133858267716534,"duration":"0.07"},{"name":"D3","midi":50,"time":"463.43","velocity":0.4330708661417323,"duration":"0.02"},{"name":"F#5","midi":78,"time":"463.43","velocity":0.5826771653543307,"duration":"0.62"},{"name":"G#6","midi":92,"time":"463.44","velocity":0.2755905511811024,"duration":"0.12"},{"name":"E5","midi":76,"time":"463.45","velocity":0.2204724409448819,"duration":"0.05"},{"name":"D2","midi":38,"time":"463.47","velocity":0.44881889763779526,"duration":"0.02"},{"name":"E4","midi":64,"time":"463.47","velocity":0.36220472440944884,"duration":"0.02"},{"name":"G#5","midi":80,"time":"463.47","velocity":0.2992125984251969,"duration":"0.03"},{"name":"F#4","midi":66,"time":"463.48","velocity":0.5354330708661418,"duration":"0.10"},{"name":"G6","midi":91,"time":"463.48","velocity":0.2677165354330709,"duration":"0.08"},{"name":"D6","midi":86,"time":"463.49","velocity":0.3228346456692913,"duration":"0.03"},{"name":"A4","midi":69,"time":"463.50","velocity":0.48031496062992124,"duration":"0.05"},{"name":"C#5","midi":73,"time":"463.50","velocity":0.4409448818897638,"duration":"0.12"},{"name":"D#4","midi":63,"time":"463.51","velocity":0.48031496062992124,"duration":"0.02"},{"name":"A#5","midi":82,"time":"463.51","velocity":0.36220472440944884,"duration":"0.06"},{"name":"F6","midi":89,"time":"463.51","velocity":0.28346456692913385,"duration":"0.07"},{"name":"F3","midi":53,"time":"463.52","velocity":0.5511811023622047,"duration":"0.01"},{"name":"E3","midi":52,"time":"463.53","velocity":0.5511811023622047,"duration":"0.01"},{"name":"D#3","midi":51,"time":"463.55","velocity":0.5275590551181102,"duration":"0.01"},{"name":"A3","midi":57,"time":"463.55","velocity":0.49606299212598426,"duration":"0.03"},{"name":"A#4","midi":70,"time":"463.55","velocity":0.3228346456692913,"duration":"0.03"},{"name":"A5","midi":81,"time":"463.55","velocity":0.31496062992125984,"duration":"0.03"},{"name":"F2","midi":41,"time":"463.56","velocity":0.3779527559055118,"duration":"0.02"},{"name":"D#4","midi":63,"time":"463.57","velocity":0.3858267716535433,"duration":"0.02"},{"name":"G#5","midi":80,"time":"463.57","velocity":0.31496062992125984,"duration":"0.06"},{"name":"B5","midi":83,"time":"463.57","velocity":0.3779527559055118,"duration":"0.07"},{"name":"D6","midi":86,"time":"463.57","velocity":0.2283464566929134,"duration":"0.02"},{"name":"G6","midi":91,"time":"463.57","velocity":0.2125984251968504,"duration":"0.14"},{"name":"G#6","midi":92,"time":"463.57","velocity":0.33070866141732286,"duration":"0.19"},{"name":"D#3","midi":51,"time":"463.58","velocity":0.47244094488188976,"duration":"0.02"},{"name":"G#4","midi":68,"time":"463.58","velocity":0.4566929133858268,"duration":"0.05"},{"name":"A#5","midi":82,"time":"463.58","velocity":0.31496062992125984,"duration":"0.03"},{"name":"E5","midi":76,"time":"463.59","velocity":0.36220472440944884,"duration":"0.12"},{"name":"C6","midi":84,"time":"463.60","velocity":0.2992125984251969,"duration":"0.02"},{"name":"D6","midi":86,"time":"463.60","velocity":0.33070866141732286,"duration":"0.09"},{"name":"D4","midi":62,"time":"463.62","velocity":0.2755905511811024,"duration":"0.08"},{"name":"D#6","midi":87,"time":"463.62","velocity":0.2204724409448819,"duration":"0.03"},{"name":"D3","midi":50,"time":"463.63","velocity":0.5590551181102362,"duration":"0.17"},{"name":"A4","midi":69,"time":"463.63","velocity":0.3779527559055118,"duration":"0.17"},{"name":"C#5","midi":73,"time":"463.63","velocity":0.4566929133858268,"duration":"0.14"},{"name":"A#5","midi":82,"time":"463.63","velocity":0.30708661417322836,"duration":"0.06"},{"name":"F#4","midi":66,"time":"463.64","velocity":0.5196850393700787,"duration":"0.23"},{"name":"G#5","midi":80,"time":"463.64","velocity":0.3464566929133858,"duration":"0.08"},{"name":"B5","midi":83,"time":"463.65","velocity":0.2755905511811024,"duration":"0.02"},{"name":"F6","midi":89,"time":"463.65","velocity":0.2283464566929134,"duration":"0.09"},{"name":"A#3","midi":58,"time":"463.67","velocity":0.4015748031496063,"duration":"0.03"},{"name":"B4","midi":71,"time":"463.67","velocity":0.30708661417322836,"duration":"0.03"},{"name":"C6","midi":84,"time":"463.67","velocity":0.30708661417322836,"duration":"0.08"},{"name":"D#6","midi":87,"time":"463.69","velocity":0.2677165354330709,"duration":"0.06"},{"name":"D6","midi":86,"time":"463.71","velocity":0.2283464566929134,"duration":"0.02"},{"name":"B5","midi":83,"time":"463.72","velocity":0.4566929133858268,"duration":"0.33"},{"name":"A3","midi":57,"time":"463.73","velocity":0.5118110236220472,"duration":"0.09"},{"name":"B4","midi":71,"time":"463.73","velocity":0.2677165354330709,"duration":"0.02"},{"name":"G#5","midi":80,"time":"463.73","velocity":0.2283464566929134,"duration":"0.05"},{"name":"D6","midi":86,"time":"463.74","velocity":0.2677165354330709,"duration":"0.03"},{"name":"G7","midi":103,"time":"463.74","velocity":0.2283464566929134,"duration":"0.34"},{"name":"F6","midi":89,"time":"463.76","velocity":0.2992125984251969,"duration":"0.16"},{"name":"G6","midi":91,"time":"463.76","velocity":0.2755905511811024,"duration":"0.05"},{"name":"D#6","midi":87,"time":"463.77","velocity":0.1889763779527559,"duration":"0.05"},{"name":"G#6","midi":92,"time":"463.77","velocity":0.3779527559055118,"duration":"0.44"},{"name":"C#5","midi":73,"time":"463.78","velocity":0.30708661417322836,"duration":"0.08"},{"name":"E5","midi":76,"time":"463.79","velocity":0.3700787401574803,"duration":"0.21"},{"name":"G#5","midi":80,"time":"463.79","velocity":0.29133858267716534,"duration":"0.05"},{"name":"D6","midi":86,"time":"463.79","velocity":0.33858267716535434,"duration":"0.02"},{"name":"D3","midi":50,"time":"463.81","velocity":0.49606299212598426,"duration":"0.02"},{"name":"G6","midi":91,"time":"463.81","velocity":0.2992125984251969,"duration":"0.22"},{"name":"A6","midi":93,"time":"463.81","velocity":0.2283464566929134,"duration":"0.08"},{"name":"A#5","midi":82,"time":"463.83","velocity":0.3937007874015748,"duration":"0.05"},{"name":"D6","midi":86,"time":"463.83","velocity":0.31496062992125984,"duration":"0.12"},{"name":"G#5","midi":80,"time":"463.85","velocity":0.30708661417322836,"duration":"0.22"},{"name":"D3","midi":50,"time":"463.86","velocity":0.5196850393700787,"duration":"0.02"},{"name":"G#4","midi":68,"time":"463.86","velocity":0.4330708661417323,"duration":"0.03"},{"name":"B4","midi":71,"time":"463.86","velocity":0.41732283464566927,"duration":"0.06"},{"name":"E4","midi":64,"time":"463.87","velocity":0.2992125984251969,"duration":"0.02"},{"name":"D5","midi":74,"time":"463.87","velocity":0.28346456692913385,"duration":"0.02"},{"name":"C#3","midi":49,"time":"463.88","velocity":0.5669291338582677,"duration":"0.01"},{"name":"F#4","midi":66,"time":"463.88","velocity":0.49606299212598426,"duration":"0.21"},{"name":"A5","midi":81,"time":"463.88","velocity":0.2992125984251969,"duration":"0.15"},{"name":"D3","midi":50,"time":"463.90","velocity":0.5669291338582677,"duration":"0.01"},{"name":"C#4","midi":61,"time":"463.90","velocity":0.33070866141732286,"duration":"0.02"},{"name":"A4","midi":69,"time":"463.90","velocity":0.4645669291338583,"duration":"0.27"},{"name":"A#5","midi":82,"time":"463.90","velocity":0.3228346456692913,"duration":"0.03"},{"name":"F#2","midi":42,"time":"463.91","velocity":0.5984251968503937,"duration":"0.01"},{"name":"G#3","midi":56,"time":"463.91","velocity":0.5511811023622047,"duration":"0.01"},{"name":"C6","midi":84,"time":"463.91","velocity":0.2677165354330709,"duration":"0.02"},{"name":"F2","midi":41,"time":"463.92","velocity":0.6141732283464567,"duration":"0.02"},{"name":"A3","midi":57,"time":"463.92","velocity":0.5039370078740157,"duration":"0.02"},{"name":"C3","midi":48,"time":"463.93","velocity":0.5275590551181102,"duration":"0.01"},{"name":"B4","midi":71,"time":"463.93","velocity":0.3858267716535433,"duration":"0.09"},{"name":"A#3","midi":58,"time":"463.94","velocity":0.4015748031496063,"duration":"0.02"},{"name":"F6","midi":89,"time":"463.94","velocity":0.2204724409448819,"duration":"0.05"},{"name":"F#1","midi":30,"time":"463.95","velocity":0.5590551181102362,"duration":"0.01"},{"name":"A1","midi":33,"time":"463.97","velocity":0.5354330708661418,"duration":"0.01"},{"name":"D3","midi":50,"time":"463.97","velocity":0.5433070866141733,"duration":"0.12"},{"name":"A3","midi":57,"time":"463.97","velocity":0.3779527559055118,"duration":"0.02"},{"name":"D5","midi":74,"time":"463.97","velocity":0.25984251968503935,"duration":"0.02"},{"name":"A#5","midi":82,"time":"463.97","velocity":0.30708661417322836,"duration":"0.02"},{"name":"D6","midi":86,"time":"463.97","velocity":0.30708661417322836,"duration":"0.24"},{"name":"C#5","midi":73,"time":"463.99","velocity":0.29133858267716534,"duration":"0.03"},{"name":"F6","midi":89,"time":"464.00","velocity":0.28346456692913385,"duration":"0.03"},{"name":"D#6","midi":87,"time":"464.01","velocity":0.2047244094488189,"duration":"0.06"},{"name":"A3","midi":57,"time":"464.02","velocity":0.47244094488188976,"duration":"0.20"},{"name":"B4","midi":71,"time":"464.03","velocity":0.31496062992125984,"duration":"0.08"},{"name":"F5","midi":77,"time":"464.03","velocity":0.49606299212598426,"duration":"0.02"},{"name":"A#5","midi":82,"time":"464.03","velocity":0.29133858267716534,"duration":"0.02"},{"name":"A6","midi":93,"time":"464.03","velocity":0.16535433070866143,"duration":"0.06"},{"name":"C#5","midi":73,"time":"464.05","velocity":0.30708661417322836,"duration":"0.07"},{"name":"E5","midi":76,"time":"464.06","velocity":0.33070866141732286,"duration":"0.08"},{"name":"F#5","midi":78,"time":"464.06","velocity":0.5748031496062992,"duration":"0.06"},{"name":"B5","midi":83,"time":"464.06","velocity":0.3858267716535433,"duration":"0.06"},{"name":"C6","midi":84,"time":"464.08","velocity":0.25984251968503935,"duration":"0.02"},{"name":"D#6","midi":87,"time":"464.08","velocity":0.25984251968503935,"duration":"0.02"},{"name":"D3","midi":50,"time":"464.09","velocity":0.5354330708661418,"duration":"0.02"},{"name":"F6","midi":89,"time":"464.09","velocity":0.2283464566929134,"duration":"0.21"},{"name":"G6","midi":91,"time":"464.09","velocity":0.29133858267716534,"duration":"0.05"},{"name":"G#5","midi":80,"time":"464.10","velocity":0.31496062992125984,"duration":"0.05"},{"name":"B6","midi":95,"time":"464.10","velocity":0.4566929133858268,"duration":"2.15"},{"name":"D#3","midi":51,"time":"464.12","velocity":0.5511811023622047,"duration":"0.01"},{"name":"D5","midi":74,"time":"464.12","velocity":0.3228346456692913,"duration":"0.02"},{"name":"A#5","midi":82,"time":"464.12","velocity":0.3779527559055118,"duration":"0.05"},{"name":"D3","midi":50,"time":"464.13","velocity":0.5669291338582677,"duration":"0.06"},{"name":"F4","midi":65,"time":"464.13","velocity":0.3858267716535433,"duration":"0.02"},{"name":"F#5","midi":78,"time":"464.13","velocity":0.5196850393700787,"duration":"0.06"},{"name":"B5","midi":83,"time":"464.13","velocity":0.30708661417322836,"duration":"0.02"},{"name":"C#5","midi":73,"time":"464.14","velocity":0.3779527559055118,"duration":"0.15"},{"name":"D#5","midi":75,"time":"464.14","velocity":0.30708661417322836,"duration":"0.02"},{"name":"F#4","midi":66,"time":"464.15","velocity":0.4251968503937008,"duration":"0.05"},{"name":"G6","midi":91,"time":"464.15","velocity":0.33858267716535434,"duration":"0.22"},{"name":"B5","midi":83,"time":"464.16","velocity":0.3937007874015748,"duration":"0.09"},{"name":"F5","midi":77,"time":"464.17","velocity":0.4094488188976378,"duration":"0.02"},{"name":"C#3","midi":49,"time":"464.19","velocity":0.5275590551181102,"duration":"0.01"},{"name":"A#5","midi":82,"time":"464.19","velocity":0.3858267716535433,"duration":"0.09"},{"name":"D#6","midi":87,"time":"464.19","velocity":0.23622047244094488,"duration":"0.07"},{"name":"D3","midi":50,"time":"464.20","velocity":0.5669291338582677,"duration":"0.05"},{"name":"E4","midi":64,"time":"464.20","velocity":0.3543307086614173,"duration":"0.02"},{"name":"F#5","midi":78,"time":"464.20","velocity":0.5039370078740157,"duration":"0.12"},{"name":"F#4","midi":66,"time":"464.21","velocity":0.44881889763779526,"duration":"0.06"},{"name":"G#5","midi":80,"time":"464.21","velocity":0.31496062992125984,"duration":"0.03"},{"name":"E5","midi":76,"time":"464.22","velocity":0.28346456692913385,"duration":"0.05"},{"name":"C6","midi":84,"time":"464.22","velocity":0.2992125984251969,"duration":"0.06"},{"name":"G#6","midi":92,"time":"464.22","velocity":0.4645669291338583,"duration":"0.85"},{"name":"F#2","midi":42,"time":"464.23","velocity":0.48031496062992124,"duration":"0.02"},{"name":"D6","midi":86,"time":"464.23","velocity":0.29133858267716534,"duration":"0.03"},{"name":"D#3","midi":51,"time":"464.24","velocity":0.5511811023622047,"duration":"0.01"},{"name":"D4","midi":62,"time":"464.24","velocity":0.3464566929133858,"duration":"0.02"},{"name":"A6","midi":93,"time":"464.24","velocity":0.2755905511811024,"duration":"0.12"},{"name":"F2","midi":41,"time":"464.26","velocity":0.5905511811023622,"duration":"0.01"},{"name":"C3","midi":48,"time":"464.26","velocity":0.5590551181102362,"duration":"0.01"},{"name":"A3","midi":57,"time":"464.26","velocity":0.4881889763779528,"duration":"0.05"},{"name":"G#5","midi":80,"time":"464.26","velocity":0.48031496062992124,"duration":"0.06"},{"name":"D2","midi":38,"time":"464.27","velocity":0.5984251968503937,"duration":"0.01"},{"name":"F4","midi":65,"time":"464.27","velocity":0.2992125984251969,"duration":"0.03"},{"name":"G#4","midi":68,"time":"464.27","velocity":0.4566929133858268,"duration":"0.07"},{"name":"B5","midi":83,"time":"464.27","velocity":0.3858267716535433,"duration":"0.14"},{"name":"C#6","midi":85,"time":"464.27","velocity":0.5433070866141733,"duration":"0.43"},{"name":"D#6","midi":87,"time":"464.27","velocity":0.4330708661417323,"duration":"0.10"},{"name":"A1","midi":33,"time":"464.28","velocity":0.5511811023622047,"duration":"0.01"},{"name":"C#3","midi":49,"time":"464.28","velocity":0.5354330708661418,"duration":"0.01"},{"name":"B4","midi":71,"time":"464.28","velocity":0.4094488188976378,"duration":"0.08"},{"name":"D6","midi":86,"time":"464.28","velocity":0.23622047244094488,"duration":"0.02"},{"name":"C7","midi":96,"time":"464.28","velocity":0.2283464566929134,"duration":"0.02"},{"name":"F#1","midi":30,"time":"464.29","velocity":0.5748031496062992,"duration":"0.01"},{"name":"G#2","midi":44,"time":"464.29","velocity":0.5433070866141733,"duration":"0.01"},{"name":"D4","midi":62,"time":"464.29","velocity":0.44881889763779526,"duration":"0.19"},{"name":"A#5","midi":82,"time":"464.29","velocity":0.25196850393700787,"duration":"0.03"},{"name":"F1","midi":29,"time":"464.30","velocity":0.5748031496062992,"duration":"0.01"},{"name":"D#3","midi":51,"time":"464.30","velocity":0.5275590551181102,"duration":"0.02"},{"name":"G#3","midi":56,"time":"464.30","velocity":0.3464566929133858,"duration":"0.02"},{"name":"C#5","midi":73,"time":"464.30","velocity":0.29133858267716534,"duration":"0.02"},{"name":"A5","midi":81,"time":"464.30","velocity":0.30708661417322836,"duration":"0.03"},{"name":"G5","midi":79,"time":"464.31","velocity":0.4881889763779528,"duration":"0.02"},{"name":"F6","midi":89,"time":"464.31","velocity":0.2992125984251969,"duration":"0.19"},{"name":"C7","midi":96,"time":"464.31","velocity":0.25196850393700787,"duration":"0.34"},{"name":"C3","midi":48,"time":"464.33","velocity":0.5196850393700787,"duration":"0.02"},{"name":"A3","midi":57,"time":"464.33","velocity":0.3779527559055118,"duration":"0.02"},{"name":"A4","midi":69,"time":"464.33","velocity":0.4251968503937008,"duration":"0.02"},{"name":"F#5","midi":78,"time":"464.33","velocity":0.5118110236220472,"duration":"0.09"},{"name":"G#5","midi":80,"time":"464.33","velocity":0.5433070866141733,"duration":"0.05"},{"name":"A#6","midi":94,"time":"464.33","velocity":0.3779527559055118,"duration":"0.90"},{"name":"C#5","midi":73,"time":"464.34","velocity":0.36220472440944884,"duration":"0.07"},{"name":"E5","midi":76,"time":"464.34","velocity":0.33858267716535434,"duration":"0.09"},{"name":"F#7","midi":102,"time":"464.34","velocity":0.4330708661417323,"duration":"21.40"},{"name":"G#4","midi":68,"time":"464.35","velocity":0.3858267716535433,"duration":"0.02"},{"name":"A5","midi":81,"time":"464.35","velocity":0.5669291338582677,"duration":"0.06"},{"name":"D#3","midi":51,"time":"464.36","velocity":0.4881889763779528,"duration":"0.02"},{"name":"A3","midi":57,"time":"464.36","velocity":0.3779527559055118,"duration":"0.05"},{"name":"F#4","midi":66,"time":"464.36","velocity":0.31496062992125984,"duration":"0.03"},{"name":"C6","midi":84,"time":"464.36","velocity":0.2677165354330709,"duration":"0.02"},{"name":"A4","midi":69,"time":"464.37","velocity":0.4015748031496063,"duration":"0.03"},{"name":"D6","midi":86,"time":"464.38","velocity":0.28346456692913385,"duration":"0.05"},{"name":"G#5","midi":80,"time":"464.40","velocity":0.33858267716535434,"duration":"0.06"},{"name":"D3","midi":50,"time":"464.41","velocity":0.5590551181102362,"duration":"0.07"},{"name":"A#4","midi":70,"time":"464.41","velocity":0.36220472440944884,"duration":"0.06"},{"name":"C5","midi":72,"time":"464.41","velocity":0.2283464566929134,"duration":"0.02"},{"name":"A#5","midi":82,"time":"464.41","velocity":0.5590551181102362,"duration":"0.07"},{"name":"D#6","midi":87,"time":"464.41","velocity":0.23622047244094488,"duration":"0.05"},{"name":"F5","midi":77,"time":"464.42","velocity":0.30708661417322836,"duration":"0.05"},{"name":"G5","midi":79,"time":"464.42","velocity":0.2204724409448819,"duration":"0.06"},{"name":"B5","midi":83,"time":"464.42","velocity":0.41732283464566927,"duration":"0.05"},{"name":"G6","midi":91,"time":"464.42","velocity":0.29133858267716534,"duration":"0.12"},{"name":"D7","midi":98,"time":"464.42","velocity":0.2992125984251969,"duration":"0.50"},{"name":"C#5","midi":73,"time":"464.43","velocity":0.4251968503937008,"duration":"0.27"},{"name":"A5","midi":81,"time":"464.43","velocity":0.25984251968503935,"duration":"0.03"},{"name":"E2","midi":40,"time":"464.44","velocity":0.5433070866141733,"duration":"0.01"},{"name":"A#3","midi":58,"time":"464.44","velocity":0.47244094488188976,"duration":"0.02"},{"name":"D6","midi":86,"time":"464.44","velocity":0.30708661417322836,"duration":"0.02"},{"name":"F#6","midi":90,"time":"464.44","velocity":0.2125984251968504,"duration":"0.03"},{"name":"C#2","midi":37,"time":"464.45","velocity":0.5905511811023622,"duration":"0.02"},{"name":"B4","midi":71,"time":"464.47","velocity":0.4645669291338583,"duration":"0.20"},{"name":"F#5","midi":78,"time":"464.47","velocity":0.30708661417322836,"duration":"0.13"},{"name":"D#6","midi":87,"time":"464.47","velocity":0.2047244094488189,"duration":"0.05"},{"name":"C#3","midi":49,"time":"464.48","velocity":0.5433070866141733,"duration":"0.02"},{"name":"G#5","midi":80,"time":"464.48","velocity":0.29133858267716534,"duration":"0.06"},{"name":"B5","midi":83,"time":"464.48","velocity":0.6850393700787402,"duration":"0.93"},{"name":"D1","midi":26,"time":"464.49","velocity":0.5354330708661418,"duration":"0.01"},{"name":"D4","midi":62,"time":"464.49","velocity":0.41732283464566927,"duration":"0.08"},{"name":"A#5","midi":82,"time":"464.49","velocity":0.41732283464566927,"duration":"0.02"},{"name":"D6","midi":86,"time":"464.49","velocity":0.2283464566929134,"duration":"0.05"},{"name":"F#6","midi":90,"time":"464.49","velocity":0.4645669291338583,"duration":"1.60"},{"name":"E1","midi":28,"time":"464.50","velocity":0.5511811023622047,"duration":"0.01"},{"name":"D3","midi":50,"time":"464.50","velocity":0.47244094488188976,"duration":"0.02"},{"name":"A5","midi":81,"time":"464.50","velocity":0.25196850393700787,"duration":"0.06"},{"name":"D1","midi":26,"time":"464.51","velocity":0.5275590551181102,"duration":"0.01"},{"name":"A3","midi":57,"time":"464.51","velocity":0.3779527559055118,"duration":"0.07"},{"name":"E5","midi":76,"time":"464.51","velocity":0.1968503937007874,"duration":"0.03"},{"name":"F1","midi":29,"time":"464.52","velocity":0.5196850393700787,"duration":"0.01"},{"name":"C#3","midi":49,"time":"464.52","velocity":0.5196850393700787,"duration":"0.02"},{"name":"D#6","midi":87,"time":"464.52","velocity":0.2440944881889764,"duration":"0.05"},{"name":"F6","midi":89,"time":"464.52","velocity":0.2677165354330709,"duration":"0.17"},{"name":"B1","midi":35,"time":"464.53","velocity":0.5118110236220472,"duration":"0.01"},{"name":"G4","midi":67,"time":"464.53","velocity":0.2677165354330709,"duration":"0.02"},{"name":"D3","midi":50,"time":"464.55","velocity":0.5590551181102362,"duration":"0.09"},{"name":"D6","midi":86,"time":"464.55","velocity":0.2125984251968504,"duration":"0.05"},{"name":"E4","midi":64,"time":"464.56","velocity":0.3779527559055118,"duration":"0.05"},{"name":"G#5","midi":80,"time":"464.56","velocity":0.4015748031496063,"duration":"0.13"},{"name":"A5","midi":81,"time":"464.57","velocity":0.31496062992125984,"duration":"0.02"},{"name":"G6","midi":91,"time":"464.57","velocity":0.2125984251968504,"duration":"0.07"},{"name":"G#4","midi":68,"time":"464.58","velocity":0.4015748031496063,"duration":"0.13"},{"name":"D#6","midi":87,"time":"464.58","velocity":0.33070866141732286,"duration":"0.21"},{"name":"F5","midi":77,"time":"464.59","velocity":0.2992125984251969,"duration":"0.05"},{"name":"E5","midi":76,"time":"464.60","velocity":0.29133858267716534,"duration":"0.05"},{"name":"A6","midi":93,"time":"464.60","velocity":0.3464566929133858,"duration":"0.37"},{"name":"A#5","midi":82,"time":"464.62","velocity":0.4881889763779528,"duration":"0.03"},{"name":"B3","midi":59,"time":"464.63","velocity":0.31496062992125984,"duration":"0.02"},{"name":"F#5","midi":78,"time":"464.63","velocity":0.3228346456692913,"duration":"0.06"},{"name":"F#2","midi":42,"time":"464.64","velocity":0.6220472440944882,"duration":"0.01"},{"name":"E6","midi":88,"time":"464.64","velocity":0.33070866141732286,"duration":"0.14"},{"name":"F2","midi":41,"time":"464.65","velocity":0.6062992125984252,"duration":"0.02"},{"name":"C4","midi":60,"time":"464.65","velocity":0.29133858267716534,"duration":"0.02"},{"name":"D#5","midi":75,"time":"464.65","velocity":0.2992125984251969,"duration":"0.02"},{"name":"D4","midi":62,"time":"464.66","velocity":0.36220472440944884,"duration":"0.03"},{"name":"C7","midi":96,"time":"464.66","velocity":0.2125984251968504,"duration":"0.10"},{"name":"C#2","midi":37,"time":"464.67","velocity":0.4566929133858268,"duration":"0.03"},{"name":"B4","midi":71,"time":"464.67","velocity":0.5196850393700787,"duration":"0.06"},{"name":"E5","midi":76,"time":"464.67","velocity":0.28346456692913385,"duration":"0.07"},{"name":"A5","midi":81,"time":"464.67","velocity":0.4881889763779528,"duration":"0.10"},{"name":"G5","midi":79,"time":"464.69","velocity":0.25196850393700787,"duration":"0.02"},{"name":"E3","midi":52,"time":"464.71","velocity":0.5118110236220472,"duration":"0.02"},{"name":"F#4","midi":66,"time":"464.71","velocity":0.2204724409448819,"duration":"0.03"},{"name":"C#5","midi":73,"time":"464.71","velocity":0.2755905511811024,"duration":"0.02"},{"name":"G#5","midi":80,"time":"464.71","velocity":0.3543307086614173,"duration":"0.12"},{"name":"C#6","midi":85,"time":"464.71","velocity":0.44881889763779526,"duration":"0.07"},{"name":"F6","midi":89,"time":"464.71","velocity":0.16535433070866143,"duration":"0.06"},{"name":"G6","midi":91,"time":"464.71","velocity":0.2047244094488189,"duration":"0.07"},{"name":"A#4","midi":70,"time":"464.72","velocity":0.3543307086614173,"duration":"0.03"},{"name":"D5","midi":74,"time":"464.72","velocity":0.25196850393700787,"duration":"0.06"},{"name":"F3","midi":53,"time":"464.73","velocity":0.48031496062992124,"duration":"0.02"},{"name":"D#3","midi":51,"time":"464.76","velocity":0.5275590551181102,"duration":"0.02"},{"name":"B4","midi":71,"time":"464.76","velocity":0.5590551181102362,"duration":"0.28"},{"name":"E5","midi":76,"time":"464.76","velocity":0.2677165354330709,"duration":"0.05"},{"name":"F#5","midi":78,"time":"464.76","velocity":0.4251968503937008,"duration":"0.28"},{"name":"B3","midi":59,"time":"464.77","velocity":0.3464566929133858,"duration":"0.05"},{"name":"F7","midi":101,"time":"464.77","velocity":0.2440944881889764,"duration":"0.17"},{"name":"F6","midi":89,"time":"464.78","velocity":0.23622047244094488,"duration":"0.02"},{"name":"C7","midi":96,"time":"464.78","velocity":0.29133858267716534,"duration":"0.81"},{"name":"D4","midi":62,"time":"464.79","velocity":0.3858267716535433,"duration":"0.09"},{"name":"A4","midi":69,"time":"464.79","velocity":0.31496062992125984,"duration":"0.02"},{"name":"A5","midi":81,"time":"464.79","velocity":0.3464566929133858,"duration":"0.30"},{"name":"C#6","midi":85,"time":"464.79","velocity":0.5590551181102362,"duration":"1.05"},{"name":"D6","midi":86,"time":"464.79","velocity":0.2283464566929134,"duration":"0.02"},{"name":"E6","midi":88,"time":"464.79","velocity":0.2992125984251969,"duration":"0.24"},{"name":"D3","midi":50,"time":"464.80","velocity":0.5196850393700787,"duration":"0.06"},{"name":"G6","midi":91,"time":"464.80","velocity":0.13385826771653545,"duration":"0.07"},{"name":"E7","midi":100,"time":"464.80","velocity":0.41732283464566927,"duration":"5.00"},{"name":"F6","midi":89,"time":"464.81","velocity":0.2283464566929134,"duration":"0.03"},{"name":"A4","midi":69,"time":"464.83","velocity":0.30708661417322836,"duration":"0.02"},{"name":"E5","midi":76,"time":"464.83","velocity":0.2283464566929134,"duration":"0.03"},{"name":"C#5","midi":73,"time":"464.84","velocity":0.33070866141732286,"duration":"0.07"},{"name":"A#5","midi":82,"time":"464.84","velocity":0.3464566929133858,"duration":"0.06"},{"name":"D#6","midi":87,"time":"464.84","velocity":0.2992125984251969,"duration":"0.08"},{"name":"A3","midi":57,"time":"464.86","velocity":0.2677165354330709,"duration":"0.03"},{"name":"F#4","midi":66,"time":"464.86","velocity":0.31496062992125984,"duration":"0.06"},{"name":"D3","midi":50,"time":"464.87","velocity":0.5196850393700787,"duration":"0.05"},{"name":"F6","midi":89,"time":"464.87","velocity":0.18110236220472442,"duration":"0.03"},{"name":"E5","midi":76,"time":"464.88","velocity":0.2992125984251969,"duration":"0.03"},{"name":"G6","midi":91,"time":"464.88","velocity":0.15748031496062992,"duration":"0.03"},{"name":"G5","midi":79,"time":"464.90","velocity":0.2204724409448819,"duration":"0.05"},{"name":"B3","midi":59,"time":"464.91","velocity":0.36220472440944884,"duration":"0.03"},{"name":"A4","midi":69,"time":"464.91","velocity":0.29133858267716534,"duration":"0.02"},{"name":"A#5","midi":82,"time":"464.91","velocity":0.31496062992125984,"duration":"0.02"},{"name":"C#5","midi":73,"time":"464.92","velocity":0.3700787401574803,"duration":"0.08"},{"name":"D6","midi":86,"time":"464.92","velocity":0.2283464566929134,"duration":"0.02"},{"name":"F6","midi":89,"time":"464.92","velocity":0.1889763779527559,"duration":"0.05"},{"name":"D3","midi":50,"time":"464.93","velocity":0.5511811023622047,"duration":"0.01"},{"name":"A3","midi":57,"time":"464.93","velocity":0.33070866141732286,"duration":"0.02"},{"name":"E4","midi":64,"time":"464.93","velocity":0.30708661417322836,"duration":"0.03"},{"name":"D#6","midi":87,"time":"464.93","velocity":0.2755905511811024,"duration":"0.14"},{"name":"D7","midi":98,"time":"464.93","velocity":0.36220472440944884,"duration":"2.02"},{"name":"D#3","midi":51,"time":"464.94","velocity":0.5748031496062992,"duration":"0.01"},{"name":"G#5","midi":80,"time":"464.94","velocity":0.2283464566929134,"duration":"0.03"},{"name":"G7","midi":103,"time":"464.94","velocity":0.14960629921259844,"duration":"0.03"},{"name":"D6","midi":86,"time":"464.95","velocity":0.2440944881889764,"duration":"0.03"},{"name":"F7","midi":101,"time":"464.95","velocity":0.2677165354330709,"duration":"0.44"},{"name":"D4","midi":62,"time":"464.97","velocity":0.3700787401574803,"duration":"0.03"},{"name":"D3","midi":50,"time":"464.98","velocity":0.5118110236220472,"duration":"0.01"},{"name":"D#3","midi":51,"time":"464.99","velocity":0.5511811023622047,"duration":"0.03"},{"name":"D#5","midi":75,"time":"464.99","velocity":0.3543307086614173,"duration":"0.05"},{"name":"C4","midi":60,"time":"465.00","velocity":0.4015748031496063,"duration":"0.02"},{"name":"G6","midi":91,"time":"465.00","velocity":0.25984251968503935,"duration":"0.28"},{"name":"G7","midi":103,"time":"465.00","velocity":0.3464566929133858,"duration":"0.73"},{"name":"F4","midi":65,"time":"465.01","velocity":0.5433070866141733,"duration":"0.01"},{"name":"C#5","midi":73,"time":"465.01","velocity":0.4015748031496063,"duration":"0.03"},{"name":"G5","midi":79,"time":"465.01","velocity":0.3464566929133858,"duration":"0.07"},{"name":"A3","midi":57,"time":"465.02","velocity":0.5118110236220472,"duration":"0.02"},{"name":"F5","midi":77,"time":"465.02","velocity":0.2677165354330709,"duration":"0.05"},{"name":"F6","midi":89,"time":"465.02","velocity":0.30708661417322836,"duration":"0.09"},{"name":"A6","midi":93,"time":"465.02","velocity":0.3464566929133858,"duration":"0.62"},{"name":"D#3","midi":51,"time":"465.03","velocity":0.4881889763779528,"duration":"0.06"},{"name":"A#4","midi":70,"time":"465.03","velocity":0.4645669291338583,"duration":"0.02"},{"name":"C5","midi":72,"time":"465.03","velocity":0.41732283464566927,"duration":"0.02"},{"name":"B4","midi":71,"time":"465.06","velocity":0.4094488188976378,"duration":"0.02"},{"name":"C#5","midi":73,"time":"465.06","velocity":0.3543307086614173,"duration":"0.02"},{"name":"E5","midi":76,"time":"465.06","velocity":0.3779527559055118,"duration":"0.05"},{"name":"A4","midi":69,"time":"465.07","velocity":0.3464566929133858,"duration":"0.02"},{"name":"D6","midi":86,"time":"465.07","velocity":0.28346456692913385,"duration":"0.05"},{"name":"D4","midi":62,"time":"465.08","velocity":0.4015748031496063,"duration":"0.05"},{"name":"C5","midi":72,"time":"465.08","velocity":0.4645669291338583,"duration":"0.02"},{"name":"D#6","midi":87,"time":"465.08","velocity":0.2283464566929134,"duration":"0.05"},{"name":"G#6","midi":92,"time":"465.08","velocity":0.4015748031496063,"duration":"0.44"},{"name":"A3","midi":57,"time":"465.09","velocity":0.41732283464566927,"duration":"0.02"},{"name":"G#4","midi":68,"time":"465.09","velocity":0.3464566929133858,"duration":"0.02"},{"name":"B4","midi":71,"time":"465.09","velocity":0.48031496062992124,"duration":"0.09"},{"name":"F#5","midi":78,"time":"465.09","velocity":0.36220472440944884,"duration":"0.21"},{"name":"C#5","midi":73,"time":"465.10","velocity":0.41732283464566927,"duration":"0.06"},{"name":"F#4","midi":66,"time":"465.12","velocity":0.4094488188976378,"duration":"0.07"},{"name":"E5","midi":76,"time":"465.12","velocity":0.33070866141732286,"duration":"0.06"},{"name":"A#5","midi":82,"time":"465.12","velocity":0.30708661417322836,"duration":"0.05"},{"name":"F6","midi":89,"time":"465.13","velocity":0.1968503937007874,"duration":"0.15"},{"name":"D4","midi":62,"time":"465.14","velocity":0.3937007874015748,"duration":"0.08"},{"name":"F3","midi":53,"time":"465.15","velocity":0.49606299212598426,"duration":"0.02"},{"name":"D#6","midi":87,"time":"465.15","velocity":0.2125984251968504,"duration":"0.07"},{"name":"D2","midi":38,"time":"465.16","velocity":0.3937007874015748,"duration":"0.02"},{"name":"D#5","midi":75,"time":"465.16","velocity":0.2283464566929134,"duration":"0.03"},{"name":"A5","midi":81,"time":"465.16","velocity":0.2283464566929134,"duration":"0.02"},{"name":"D#3","midi":51,"time":"465.17","velocity":0.5354330708661418,"duration":"0.03"},{"name":"G#5","midi":80,"time":"465.17","velocity":0.2677165354330709,"duration":"0.09"},{"name":"A3","midi":57,"time":"465.19","velocity":0.4015748031496063,"duration":"0.06"},{"name":"A#4","midi":70,"time":"465.19","velocity":0.33070866141732286,"duration":"0.02"},{"name":"C#5","midi":73,"time":"465.19","velocity":0.4330708661417323,"duration":"0.07"},{"name":"B4","midi":71,"time":"465.20","velocity":0.5826771653543307,"duration":"0.30"},{"name":"E5","midi":76,"time":"465.20","velocity":0.29133858267716534,"duration":"0.10"},{"name":"A5","midi":81,"time":"465.20","velocity":0.2992125984251969,"duration":"0.09"},{"name":"D#3","midi":51,"time":"465.22","velocity":0.5118110236220472,"duration":"0.02"},{"name":"D6","midi":86,"time":"465.22","velocity":0.25984251968503935,"duration":"0.02"},{"name":"C#2","midi":37,"time":"465.23","velocity":0.4015748031496063,"duration":"0.02"},{"name":"D4","midi":62,"time":"465.23","velocity":0.3858267716535433,"duration":"0.16"},{"name":"A#6","midi":94,"time":"465.23","velocity":0.28346456692913385,"duration":"0.44"},{"name":"E3","midi":52,"time":"465.24","velocity":0.5275590551181102,"duration":"0.09"},{"name":"G4","midi":67,"time":"465.24","velocity":0.30708661417322836,"duration":"0.02"},{"name":"D#6","midi":87,"time":"465.24","velocity":0.2047244094488189,"duration":"0.07"},{"name":"A4","midi":69,"time":"465.26","velocity":0.30708661417322836,"duration":"0.03"},{"name":"D6","midi":86,"time":"465.26","velocity":0.2755905511811024,"duration":"0.16"},{"name":"F2","midi":41,"time":"465.28","velocity":0.3779527559055118,"duration":"0.02"},{"name":"F4","midi":65,"time":"465.28","velocity":0.2440944881889764,"duration":"0.02"},{"name":"G#5","midi":80,"time":"465.28","velocity":0.31496062992125984,"duration":"0.12"},{"name":"A#5","midi":82,"time":"465.28","velocity":0.2677165354330709,"duration":"0.02"},{"name":"A3","midi":57,"time":"465.29","velocity":0.36220472440944884,"duration":"0.02"},{"name":"G#4","midi":68,"time":"465.29","velocity":0.2992125984251969,"duration":"0.03"},{"name":"C#5","midi":73,"time":"465.30","velocity":0.3937007874015748,"duration":"0.03"},{"name":"E5","midi":76,"time":"465.31","velocity":0.2125984251968504,"duration":"0.06"},{"name":"F#5","midi":78,"time":"465.31","velocity":0.31496062992125984,"duration":"0.09"},{"name":"A4","midi":69,"time":"465.33","velocity":0.28346456692913385,"duration":"0.02"},{"name":"D#3","midi":51,"time":"465.34","velocity":0.5511811023622047,"duration":"0.01"},{"name":"F#4","midi":66,"time":"465.34","velocity":0.28346456692913385,"duration":"0.05"},{"name":"F6","midi":89,"time":"465.34","velocity":0.25196850393700787,"duration":"0.08"},{"name":"E3","midi":52,"time":"465.35","velocity":0.5039370078740157,"duration":"0.02"},{"name":"C#5","midi":73,"time":"465.35","velocity":0.4251968503937008,"duration":"0.06"},{"name":"G6","midi":91,"time":"465.35","velocity":0.2283464566929134,"duration":"0.09"},{"name":"G#4","midi":68,"time":"465.36","velocity":0.2992125984251969,"duration":"0.03"},{"name":"C3","midi":48,"time":"465.38","velocity":0.5748031496062992,"duration":"0.01"},{"name":"E5","midi":76,"time":"465.38","velocity":0.29133858267716534,"duration":"0.06"},{"name":"D#6","midi":87,"time":"465.38","velocity":0.25196850393700787,"duration":"0.06"},{"name":"A2","midi":45,"time":"465.40","velocity":0.6377952755905512,"duration":"0.01"},{"name":"E4","midi":64,"time":"465.40","velocity":0.3700787401574803,"duration":"0.03"},{"name":"A5","midi":81,"time":"465.40","velocity":0.28346456692913385,"duration":"0.03"},{"name":"A#5","midi":82,"time":"465.40","velocity":0.4330708661417323,"duration":"0.02"},{"name":"F#2","midi":42,"time":"465.41","velocity":0.5433070866141733,"duration":"0.01"},{"name":"F#5","midi":78,"time":"465.42","velocity":0.23622047244094488,"duration":"0.02"},{"name":"B5","midi":83,"time":"465.42","velocity":0.6535433070866141,"duration":"0.42"},{"name":"F7","midi":101,"time":"465.42","velocity":0.3858267716535433,"duration":"5.21"},{"name":"D#1","midi":27,"time":"465.43","velocity":0.5354330708661418,"duration":"0.01"},{"name":"C#5","midi":73,"time":"465.43","velocity":0.4645669291338583,"duration":"0.19"},{"name":"G#5","midi":80,"time":"465.43","velocity":0.2992125984251969,"duration":"0.07"},{"name":"D6","midi":86,"time":"465.43","velocity":0.25984251968503935,"duration":"0.08"},{"name":"F1","midi":29,"time":"465.44","velocity":0.5748031496062992,"duration":"0.01"},{"name":"B2","midi":47,"time":"465.44","velocity":0.3779527559055118,"duration":"0.02"},{"name":"A3","midi":57,"time":"465.44","velocity":0.3464566929133858,"duration":"0.02"},{"name":"E4","midi":64,"time":"465.44","velocity":0.3937007874015748,"duration":"0.14"},{"name":"F5","midi":77,"time":"465.44","velocity":0.28346456692913385,"duration":"0.05"},{"name":"G6","midi":91,"time":"465.45","velocity":0.2755905511811024,"duration":"0.17"},{"name":"D#2","midi":39,"time":"465.47","velocity":0.44881889763779526,"duration":"0.02"},{"name":"E3","midi":52,"time":"465.48","velocity":0.3779527559055118,"duration":"0.02"},{"name":"A4","midi":69,"time":"465.48","velocity":0.3464566929133858,"duration":"0.03"},{"name":"B2","midi":47,"time":"465.49","velocity":0.49606299212598426,"duration":"0.03"},{"name":"A#3","midi":58,"time":"465.49","velocity":0.4566929133858268,"duration":"0.02"},{"name":"G5","midi":79,"time":"465.49","velocity":0.31496062992125984,"duration":"0.03"},{"name":"D#5","midi":75,"time":"465.50","velocity":0.3464566929133858,"duration":"0.06"},{"name":"B4","midi":71,"time":"465.51","velocity":0.49606299212598426,"duration":"0.20"},{"name":"F5","midi":77,"time":"465.51","velocity":0.28346456692913385,"duration":"0.02"},{"name":"A5","midi":81,"time":"465.51","velocity":0.33858267716535434,"duration":"0.22"},{"name":"F#5","midi":78,"time":"465.52","velocity":0.33858267716535434,"duration":"0.05"},{"name":"A#5","midi":82,"time":"465.52","velocity":0.33858267716535434,"duration":"0.02"},{"name":"A#3","midi":58,"time":"465.53","velocity":0.4094488188976378,"duration":"0.03"},{"name":"G#6","midi":92,"time":"465.53","velocity":0.33858267716535434,"duration":"0.44"},{"name":"F#1","midi":30,"time":"465.55","velocity":0.4330708661417323,"duration":"0.05"},{"name":"G#4","midi":68,"time":"465.55","velocity":0.25196850393700787,"duration":"0.02"},{"name":"B2","midi":47,"time":"465.56","velocity":0.5433070866141733,"duration":"0.02"},{"name":"E6","midi":88,"time":"465.56","velocity":0.2755905511811024,"duration":"0.09"},{"name":"F3","midi":53,"time":"465.57","velocity":0.4409448818897638,"duration":"0.02"},{"name":"F5","midi":77,"time":"465.57","velocity":0.33858267716535434,"duration":"0.05"},{"name":"G#5","midi":80,"time":"465.57","velocity":0.23622047244094488,"duration":"0.07"},{"name":"D6","midi":86,"time":"465.58","velocity":0.23622047244094488,"duration":"0.06"},{"name":"E4","midi":64,"time":"465.59","velocity":0.31496062992125984,"duration":"0.08"},{"name":"F#2","midi":42,"time":"465.60","velocity":0.44881889763779526,"duration":"0.02"},{"name":"C7","midi":96,"time":"465.60","velocity":0.3779527559055118,"duration":"1.01"},{"name":"A3","midi":57,"time":"465.62","velocity":0.4094488188976378,"duration":"0.02"},{"name":"E5","midi":76,"time":"465.62","velocity":0.3464566929133858,"duration":"0.07"},{"name":"B2","midi":47,"time":"465.63","velocity":0.5039370078740157,"duration":"0.03"},{"name":"C#5","midi":73,"time":"465.63","velocity":0.4015748031496063,"duration":"0.12"},{"name":"G5","midi":79,"time":"465.63","velocity":0.2440944881889764,"duration":"0.02"},{"name":"F6","midi":89,"time":"465.63","velocity":0.1968503937007874,"duration":"0.05"},{"name":"D#6","midi":87,"time":"465.64","velocity":0.2204724409448819,"duration":"0.09"},{"name":"A3","midi":57,"time":"465.65","velocity":0.3543307086614173,"duration":"0.02"},{"name":"F#5","midi":78,"time":"465.65","velocity":0.2204724409448819,"duration":"0.03"},{"name":"G#5","midi":80,"time":"465.65","velocity":0.33858267716535434,"duration":"0.05"},{"name":"C4","midi":60,"time":"465.66","velocity":0.2677165354330709,"duration":"0.02"},{"name":"A6","midi":93,"time":"465.66","velocity":0.44881889763779526,"duration":"3.17"},{"name":"E6","midi":88,"time":"465.67","velocity":0.4330708661417323,"duration":"0.45"},{"name":"G6","midi":91,"time":"465.67","velocity":0.1968503937007874,"duration":"0.07"},{"name":"A#3","midi":58,"time":"465.69","velocity":0.3779527559055118,"duration":"0.03"},{"name":"E4","midi":64,"time":"465.69","velocity":0.33858267716535434,"duration":"0.07"},{"name":"F5","midi":77,"time":"465.69","velocity":0.25196850393700787,"duration":"0.02"},{"name":"A#6","midi":94,"time":"465.69","velocity":0.2677165354330709,"duration":"0.38"},{"name":"C3","midi":48,"time":"465.70","velocity":0.4645669291338583,"duration":"0.02"},{"name":"G5","midi":79,"time":"465.70","velocity":0.3228346456692913,"duration":"0.08"},{"name":"E5","midi":76,"time":"465.71","velocity":0.3464566929133858,"duration":"0.05"},{"name":"B4","midi":71,"time":"465.72","velocity":0.4330708661417323,"duration":"0.06"},{"name":"D6","midi":86,"time":"465.72","velocity":0.2440944881889764,"duration":"0.03"},{"name":"B2","midi":47,"time":"465.73","velocity":0.41732283464566927,"duration":"0.02"},{"name":"G7","midi":103,"time":"465.74","velocity":0.2204724409448819,"duration":"0.22"},{"name":"C3","midi":48,"time":"465.76","velocity":0.5118110236220472,"duration":"0.01"},{"name":"D5","midi":74,"time":"465.76","velocity":0.3464566929133858,"duration":"0.08"},{"name":"D#6","midi":87,"time":"465.76","velocity":0.16535433070866143,"duration":"0.06"},{"name":"A2","midi":45,"time":"465.77","velocity":0.6220472440944882,"duration":"0.02"},{"name":"A#3","midi":58,"time":"465.77","velocity":0.44881889763779526,"duration":"0.02"},{"name":"E5","midi":76,"time":"465.77","velocity":0.33858267716535434,"duration":"0.06"},{"name":"F#5","midi":78,"time":"465.77","velocity":0.2992125984251969,"duration":"0.06"},{"name":"A#4","midi":70,"time":"465.78","velocity":0.48031496062992124,"duration":"0.03"},{"name":"A#5","midi":82,"time":"465.78","velocity":0.5511811023622047,"duration":"0.07"},{"name":"D6","midi":86,"time":"465.78","velocity":0.3779527559055118,"duration":"0.08"},{"name":"F6","midi":89,"time":"465.78","velocity":0.25196850393700787,"duration":"0.02"},{"name":"F#2","midi":42,"time":"465.79","velocity":0.5118110236220472,"duration":"0.02"},{"name":"G#5","midi":80,"time":"465.80","velocity":0.30708661417322836,"duration":"0.03"},{"name":"C6","midi":84,"time":"465.80","velocity":0.4094488188976378,"duration":"0.07"},{"name":"G#2","midi":44,"time":"465.81","velocity":0.5275590551181102,"duration":"0.01"},{"name":"F#3","midi":54,"time":"465.81","velocity":0.3779527559055118,"duration":"0.02"},{"name":"A4","midi":69,"time":"465.81","velocity":0.6220472440944882,"duration":"0.50"},{"name":"B4","midi":71,"time":"465.81","velocity":0.36220472440944884,"duration":"0.06"},{"name":"F6","midi":89,"time":"465.81","velocity":0.12598425196850394,"duration":"0.03"},{"name":"A1","midi":33,"time":"465.83","velocity":0.5196850393700787,"duration":"0.01"},{"name":"F5","midi":77,"time":"465.83","velocity":0.23622047244094488,"duration":"0.02"},{"name":"C#5","midi":73,"time":"465.84","velocity":0.23622047244094488,"duration":"0.02"},{"name":"E5","midi":76,"time":"465.84","velocity":0.29133858267716534,"duration":"0.06"},{"name":"G5","midi":79,"time":"465.84","velocity":0.25984251968503935,"duration":"0.03"},{"name":"B5","midi":83,"time":"465.85","velocity":0.4881889763779528,"duration":"0.30"},{"name":"D#6","midi":87,"time":"465.85","velocity":0.25984251968503935,"duration":"0.06"},{"name":"C#6","midi":85,"time":"465.86","velocity":0.4330708661417323,"duration":"0.07"},{"name":"F6","midi":89,"time":"465.86","velocity":0.2047244094488189,"duration":"0.16"},{"name":"D4","midi":62,"time":"465.87","velocity":0.25984251968503935,"duration":"0.02"},{"name":"C#5","midi":73,"time":"465.87","velocity":0.2677165354330709,"duration":"0.07"},{"name":"F#5","midi":78,"time":"465.87","velocity":0.25196850393700787,"duration":"0.02"},{"name":"D6","midi":86,"time":"465.87","velocity":0.28346456692913385,"duration":"0.05"},{"name":"F#4","midi":66,"time":"465.88","velocity":0.30708661417322836,"duration":"0.02"},{"name":"B4","midi":71,"time":"465.88","velocity":0.31496062992125984,"duration":"0.06"},{"name":"G#5","midi":80,"time":"465.88","velocity":0.30708661417322836,"duration":"0.02"},{"name":"F5","midi":77,"time":"465.90","velocity":0.25196850393700787,"duration":"0.05"},{"name":"G6","midi":91,"time":"465.90","velocity":0.2440944881889764,"duration":"0.03"},{"name":"E3","midi":52,"time":"465.91","velocity":0.3937007874015748,"duration":"0.02"},{"name":"G5","midi":79,"time":"465.91","velocity":0.25984251968503935,"duration":"0.03"},{"name":"A#5","midi":82,"time":"465.91","velocity":0.5196850393700787,"duration":"0.01"},{"name":"A5","midi":81,"time":"465.92","velocity":0.6299212598425197,"duration":"0.43"},{"name":"A3","midi":57,"time":"465.93","velocity":0.41732283464566927,"duration":"0.03"},{"name":"F#5","midi":78,"time":"465.93","velocity":0.33070866141732286,"duration":"0.15"},{"name":"A#5","midi":82,"time":"465.93","velocity":0.4409448818897638,"duration":"0.02"},{"name":"D6","midi":86,"time":"465.93","velocity":0.4251968503937008,"duration":"0.10"},{"name":"D#6","midi":87,"time":"465.93","velocity":0.2047244094488189,"duration":"0.03"},{"name":"D5","midi":74,"time":"465.94","velocity":0.31496062992125984,"duration":"0.15"},{"name":"E5","midi":76,"time":"465.94","velocity":0.4094488188976378,"duration":"0.30"},{"name":"G6","midi":91,"time":"465.94","velocity":0.1968503937007874,"duration":"0.07"},{"name":"F#2","midi":42,"time":"465.95","velocity":0.4251968503937008,"duration":"0.02"},{"name":"D4","midi":62,"time":"465.95","velocity":0.33070866141732286,"duration":"0.02"},{"name":"G#5","midi":80,"time":"465.95","velocity":0.33858267716535434,"duration":"0.05"},{"name":"C#7","midi":97,"time":"465.95","velocity":0.3937007874015748,"duration":"3.14"},{"name":"F#4","midi":66,"time":"465.97","velocity":0.2283464566929134,"duration":"0.02"},{"name":"C#6","midi":85,"time":"465.97","velocity":0.44881889763779526,"duration":"0.10"},{"name":"B3","midi":59,"time":"465.98","velocity":0.3858267716535433,"duration":"0.02"},{"name":"B4","midi":71,"time":"465.98","velocity":0.48031496062992124,"duration":"0.10"},{"name":"E4","midi":64,"time":"465.99","velocity":0.23622047244094488,"duration":"0.02"},{"name":"F#3","midi":54,"time":"466.00","velocity":0.3937007874015748,"duration":"0.05"},{"name":"B3","midi":59,"time":"466.01","velocity":0.3779527559055118,"duration":"0.02"},{"name":"G6","midi":91,"time":"466.02","velocity":0.2755905511811024,"duration":"0.14"},{"name":"D#6","midi":87,"time":"466.03","velocity":0.16535433070866143,"duration":"0.05"},{"name":"F6","midi":89,"time":"466.03","velocity":0.1889763779527559,"duration":"0.03"},{"name":"G#2","midi":44,"time":"466.05","velocity":0.5354330708661418,"duration":"0.01"},{"name":"D6","midi":86,"time":"466.07","velocity":0.4251968503937008,"duration":"0.06"},{"name":"F#3","midi":54,"time":"466.08","velocity":0.3937007874015748,"duration":"0.02"},{"name":"B3","midi":59,"time":"466.08","velocity":0.4094488188976378,"duration":"0.06"},{"name":"D4","midi":62,"time":"466.08","velocity":0.3779527559055118,"duration":"0.03"},{"name":"A#5","midi":82,"time":"466.08","velocity":0.41732283464566927,"duration":"0.02"},{"name":"C#6","midi":85,"time":"466.08","velocity":0.3464566929133858,"duration":"0.03"},{"name":"C#5","midi":73,"time":"466.09","velocity":0.3228346456692913,"duration":"0.06"},{"name":"D#6","midi":87,"time":"466.09","velocity":0.29133858267716534,"duration":"0.06"},{"name":"F6","midi":89,"time":"466.09","velocity":0.2440944881889764,"duration":"0.20"},{"name":"C6","midi":84,"time":"466.10","velocity":0.25196850393700787,"duration":"0.09"},{"name":"F#6","midi":90,"time":"466.10","velocity":0.3228346456692913,"duration":"0.56"},{"name":"F#4","midi":66,"time":"466.13","velocity":0.3464566929133858,"duration":"0.02"},{"name":"C#6","midi":85,"time":"466.13","velocity":0.4330708661417323,"duration":"0.12"},{"name":"C3","midi":48,"time":"466.14","velocity":0.5433070866141733,"duration":"0.03"},{"name":"D4","midi":62,"time":"466.15","velocity":0.41732283464566927,"duration":"0.05"},{"name":"B4","midi":71,"time":"466.15","velocity":0.30708661417322836,"duration":"0.02"},{"name":"A#5","midi":82,"time":"466.15","velocity":0.36220472440944884,"duration":"0.03"},{"name":"D6","midi":86,"time":"466.15","velocity":0.2283464566929134,"duration":"0.02"},{"name":"F#5","midi":78,"time":"466.16","velocity":0.3543307086614173,"duration":"0.13"},{"name":"D#6","midi":87,"time":"466.16","velocity":0.11023622047244094,"duration":"0.03"},{"name":"B2","midi":47,"time":"466.17","velocity":0.49606299212598426,"duration":"0.02"},{"name":"B5","midi":83,"time":"466.17","velocity":0.4094488188976378,"duration":"0.19"},{"name":"C4","midi":60,"time":"466.19","velocity":0.3779527559055118,"duration":"0.02"},{"name":"F#4","midi":66,"time":"466.19","velocity":0.29133858267716534,"duration":"0.02"},{"name":"B4","midi":71,"time":"466.19","velocity":0.3858267716535433,"duration":"0.19"},{"name":"G6","midi":91,"time":"466.19","velocity":0.2047244094488189,"duration":"0.03"},{"name":"A2","midi":45,"time":"466.20","velocity":0.5275590551181102,"duration":"0.01"},{"name":"B3","midi":59,"time":"466.21","velocity":0.33070866141732286,"duration":"0.03"},{"name":"F4","midi":65,"time":"466.21","velocity":0.33070866141732286,"duration":"0.03"},{"name":"D#6","midi":87,"time":"466.21","velocity":0.2755905511811024,"duration":"0.09"},{"name":"F#3","midi":54,"time":"466.22","velocity":0.47244094488188976,"duration":"0.19"},{"name":"G#5","midi":80,"time":"466.22","velocity":0.2204724409448819,"duration":"0.03"},{"name":"A2","midi":45,"time":"466.23","velocity":0.5118110236220472,"duration":"0.01"},{"name":"D6","midi":86,"time":"466.23","velocity":0.3937007874015748,"duration":"0.08"},{"name":"E6","midi":88,"time":"466.23","velocity":0.41732283464566927,"duration":"0.34"},{"name":"D4","midi":62,"time":"466.24","velocity":0.3228346456692913,"duration":"0.03"},{"name":"D#5","midi":75,"time":"466.24","velocity":0.3228346456692913,"duration":"0.06"},{"name":"C4","midi":60,"time":"466.26","velocity":0.2992125984251969,"duration":"0.02"},{"name":"D5","midi":74,"time":"466.26","velocity":0.3543307086614173,"duration":"0.03"},{"name":"G7","midi":103,"time":"466.26","velocity":0.2125984251968504,"duration":"0.07"},{"name":"A2","midi":45,"time":"466.27","velocity":0.5118110236220472,"duration":"0.01"},{"name":"G6","midi":91,"time":"466.27","velocity":0.2204724409448819,"duration":"0.12"},{"name":"G5","midi":79,"time":"466.28","velocity":0.2677165354330709,"duration":"0.03"},{"name":"D4","midi":62,"time":"466.29","velocity":0.25984251968503935,"duration":"0.02"},{"name":"E5","midi":76,"time":"466.29","velocity":0.31496062992125984,"duration":"0.03"},{"name":"C#6","midi":85,"time":"466.29","velocity":0.4251968503937008,"duration":"0.08"},{"name":"D5","midi":74,"time":"466.30","velocity":0.33858267716535434,"duration":"0.08"},{"name":"F#5","midi":78,"time":"466.30","velocity":0.3858267716535433,"duration":"0.64"},{"name":"D#4","midi":63,"time":"466.31","velocity":0.3464566929133858,"duration":"0.02"},{"name":"G#4","midi":68,"time":"466.31","velocity":0.4251968503937008,"duration":"0.02"},{"name":"A4","midi":69,"time":"466.34","velocity":0.6141732283464567,"duration":"0.98"},{"name":"A#6","midi":94,"time":"466.34","velocity":0.16535433070866143,"duration":"0.05"},{"name":"F4","midi":65,"time":"466.35","velocity":0.2125984251968504,"duration":"0.03"},{"name":"D#5","midi":75,"time":"466.35","velocity":0.2677165354330709,"duration":"0.02"},{"name":"C6","midi":84,"time":"466.35","velocity":0.25984251968503935,"duration":"0.03"},{"name":"G7","midi":103,"time":"466.35","velocity":0.25984251968503935,"duration":"0.28"},{"name":"A2","midi":45,"time":"466.36","velocity":0.5354330708661418,"duration":"0.02"},{"name":"B3","midi":59,"time":"466.36","velocity":0.2992125984251969,"duration":"0.05"},{"name":"A5","midi":81,"time":"466.36","velocity":0.6535433070866141,"duration":"0.60"},{"name":"D6","midi":86,"time":"466.36","velocity":0.4566929133858268,"duration":"0.08"},{"name":"F6","midi":89,"time":"466.36","velocity":0.2283464566929134,"duration":"0.10"},{"name":"E5","midi":76,"time":"466.37","velocity":0.33858267716535434,"duration":"0.12"},{"name":"B5","midi":83,"time":"466.37","velocity":0.3858267716535433,"duration":"0.16"},{"name":"D4","midi":62,"time":"466.38","velocity":0.2992125984251969,"duration":"0.03"},{"name":"A2","midi":45,"time":"466.40","velocity":0.5196850393700787,"duration":"0.01"},{"name":"A#6","midi":94,"time":"466.40","velocity":0.2992125984251969,"duration":"0.26"},{"name":"C#5","midi":73,"time":"466.41","velocity":0.23622047244094488,"duration":"0.03"},{"name":"G6","midi":91,"time":"466.41","velocity":0.1889763779527559,"duration":"0.08"},{"name":"F#3","midi":54,"time":"466.42","velocity":0.4251968503937008,"duration":"0.02"},{"name":"A2","midi":45,"time":"466.43","velocity":0.5433070866141733,"duration":"0.01"},{"name":"D#6","midi":87,"time":"466.43","velocity":0.1968503937007874,"duration":"0.03"},{"name":"C4","midi":60,"time":"466.44","velocity":0.36220472440944884,"duration":"0.02"},{"name":"C#6","midi":85,"time":"466.44","velocity":0.41732283464566927,"duration":"0.13"},{"name":"F#3","midi":54,"time":"466.45","velocity":0.4015748031496063,"duration":"0.02"},{"name":"E4","midi":64,"time":"466.45","velocity":0.28346456692913385,"duration":"0.03"},{"name":"D6","midi":86,"time":"466.45","velocity":0.31496062992125984,"duration":"0.06"},{"name":"A2","midi":45,"time":"466.47","velocity":0.5354330708661418,"duration":"0.01"},{"name":"B2","midi":47,"time":"466.48","velocity":0.47244094488188976,"duration":"0.02"},{"name":"D#5","midi":75,"time":"466.48","velocity":0.2755905511811024,"duration":"0.02"},{"name":"F#3","midi":54,"time":"466.49","velocity":0.5826771653543307,"duration":"0.07"},{"name":"C6","midi":84,"time":"466.49","velocity":0.3700787401574803,"duration":"0.07"},{"name":"A2","midi":45,"time":"466.50","velocity":0.5354330708661418,"duration":"0.01"},{"name":"D5","midi":74,"time":"466.50","velocity":0.2992125984251969,"duration":"0.05"},{"name":"E5","midi":76,"time":"466.50","velocity":0.28346456692913385,"duration":"0.02"},{"name":"F6","midi":89,"time":"466.50","velocity":0.25984251968503935,"duration":"0.06"},{"name":"G6","midi":91,"time":"466.52","velocity":0.25984251968503935,"duration":"0.02"},{"name":"B4","midi":71,"time":"466.53","velocity":0.4330708661417323,"duration":"0.02"},{"name":"E5","midi":76,"time":"466.53","velocity":0.44881889763779526,"duration":"0.15"},{"name":"A#5","midi":82,"time":"466.53","velocity":0.33070866141732286,"duration":"0.02"},{"name":"D6","midi":86,"time":"466.53","velocity":0.4409448818897638,"duration":"0.24"},{"name":"G#6","midi":92,"time":"466.53","velocity":0.23622047244094488,"duration":"0.03"},{"name":"B2","midi":47,"time":"466.55","velocity":0.4330708661417323,"duration":"0.02"},{"name":"C4","midi":60,"time":"466.55","velocity":0.4330708661417323,"duration":"0.03"},{"name":"E4","midi":64,"time":"466.55","velocity":0.33858267716535434,"duration":"0.02"},{"name":"B5","midi":83,"time":"466.55","velocity":0.5275590551181102,"duration":"0.74"},{"name":"D#6","midi":87,"time":"466.55","velocity":0.2755905511811024,"duration":"0.08"},{"name":"G3","midi":55,"time":"466.56","velocity":0.4881889763779528,"duration":"0.02"},{"name":"G6","midi":91,"time":"466.56","velocity":0.2677165354330709,"duration":"0.05"},{"name":"F4","midi":65,"time":"466.57","velocity":0.4251968503937008,"duration":"0.02"},{"name":"C3","midi":48,"time":"466.58","velocity":0.47244094488188976,"duration":"0.02"},{"name":"C#4","midi":61,"time":"466.58","velocity":0.3779527559055118,"duration":"0.02"},{"name":"E6","midi":88,"time":"466.58","velocity":0.47244094488188976,"duration":"1.17"},{"name":"G#6","midi":92,"time":"466.58","velocity":0.2755905511811024,"duration":"0.09"},{"name":"F#4","midi":66,"time":"466.59","velocity":0.4566929133858268,"duration":"0.08"},{"name":"G#5","midi":80,"time":"466.59","velocity":0.29133858267716534,"duration":"0.02"},{"name":"C2","midi":36,"time":"466.60","velocity":0.4094488188976378,"duration":"0.02"},{"name":"B2","midi":47,"time":"466.60","velocity":0.49606299212598426,"duration":"0.03"},{"name":"C#6","midi":85,"time":"466.60","velocity":0.41732283464566927,"duration":"0.08"},{"name":"G6","midi":91,"time":"466.62","velocity":0.2204724409448819,"duration":"0.15"},{"name":"C#5","midi":73,"time":"466.63","velocity":0.28346456692913385,"duration":"0.02"},{"name":"C7","midi":96,"time":"466.63","velocity":0.1889763779527559,"duration":"0.07"},{"name":"A#3","midi":58,"time":"466.64","velocity":0.36220472440944884,"duration":"0.03"},{"name":"B4","midi":71,"time":"466.64","velocity":0.31496062992125984,"duration":"0.05"},{"name":"D5","midi":74,"time":"466.64","velocity":0.3228346456692913,"duration":"0.03"},{"name":"B2","midi":47,"time":"466.65","velocity":0.4409448818897638,"duration":"0.02"},{"name":"G5","midi":79,"time":"466.65","velocity":0.33858267716535434,"duration":"0.02"},{"name":"F6","midi":89,"time":"466.65","velocity":0.1889763779527559,"duration":"0.03"},{"name":"G7","midi":103,"time":"466.65","velocity":0.2677165354330709,"duration":"0.29"},{"name":"C#4","midi":61,"time":"466.66","velocity":0.2283464566929134,"duration":"0.02"},{"name":"D#6","midi":87,"time":"466.66","velocity":0.2283464566929134,"duration":"0.09"},{"name":"A3","midi":57,"time":"466.67","velocity":0.3464566929133858,"duration":"0.03"},{"name":"E4","midi":64,"time":"466.67","velocity":0.3700787401574803,"duration":"0.05"},{"name":"C#5","midi":73,"time":"466.67","velocity":0.29133858267716534,"duration":"0.10"},{"name":"A#6","midi":94,"time":"466.67","velocity":0.2677165354330709,"duration":"0.21"},{"name":"F#4","midi":66,"time":"466.69","velocity":0.2992125984251969,"duration":"0.02"},{"name":"G#6","midi":92,"time":"466.69","velocity":0.3858267716535433,"duration":"0.94"},{"name":"B2","midi":47,"time":"466.70","velocity":0.4015748031496063,"duration":"0.03"},{"name":"E5","midi":76,"time":"466.70","velocity":0.3858267716535433,"duration":"0.29"},{"name":"C7","midi":96,"time":"466.71","velocity":0.30708661417322836,"duration":"0.65"},{"name":"B3","midi":59,"time":"466.73","velocity":0.30708661417322836,"duration":"0.02"},{"name":"E4","midi":64,"time":"466.73","velocity":0.3858267716535433,"duration":"0.16"},{"name":"F6","midi":89,"time":"466.73","velocity":0.2283464566929134,"duration":"0.09"},{"name":"C2","midi":36,"time":"466.74","velocity":0.33070866141732286,"duration":"0.02"},{"name":"C#6","midi":85,"time":"466.76","velocity":0.4881889763779528,"duration":"0.13"},{"name":"B2","midi":47,"time":"466.77","velocity":0.4645669291338583,"duration":"0.03"},{"name":"F#3","midi":54,"time":"466.79","velocity":0.4330708661417323,"duration":"0.06"},{"name":"B3","midi":59,"time":"466.80","velocity":0.25984251968503935,"duration":"0.02"},{"name":"B2","midi":47,"time":"466.81","velocity":0.49606299212598426,"duration":"0.02"},{"name":"C#5","midi":73,"time":"466.81","velocity":0.2283464566929134,"duration":"0.02"},{"name":"G#5","midi":80,"time":"466.83","velocity":0.2677165354330709,"duration":"0.03"},{"name":"B3","midi":59,"time":"466.84","velocity":0.3228346456692913,"duration":"0.02"},{"name":"B4","midi":71,"time":"466.84","velocity":0.33070866141732286,"duration":"0.05"},{"name":"D5","midi":74,"time":"466.84","velocity":0.31496062992125984,"duration":"0.02"},{"name":"G6","midi":91,"time":"466.84","velocity":0.25196850393700787,"duration":"0.28"},{"name":"B2","midi":47,"time":"466.85","velocity":0.4881889763779528,"duration":"0.02"},{"name":"D6","midi":86,"time":"466.85","velocity":0.44881889763779526,"duration":"0.06"},{"name":"F#3","midi":54,"time":"466.86","velocity":0.4566929133858268,"duration":"0.06"},{"name":"C4","midi":60,"time":"466.86","velocity":0.3700787401574803,"duration":"0.02"},{"name":"D5","midi":74,"time":"466.87","velocity":0.2992125984251969,"duration":"0.03"},{"name":"F#6","midi":90,"time":"466.87","velocity":0.4015748031496063,"duration":"0.84"},{"name":"B2","midi":47,"time":"466.88","velocity":0.49606299212598426,"duration":"0.02"},{"name":"D#6","midi":87,"time":"466.88","velocity":0.23622047244094488,"duration":"0.06"},{"name":"C#5","midi":73,"time":"466.91","velocity":0.28346456692913385,"duration":"0.06"},{"name":"C#6","midi":85,"time":"466.91","velocity":0.4251968503937008,"duration":"0.09"},{"name":"D#5","midi":75,"time":"466.92","velocity":0.28346456692913385,"duration":"0.02"},{"name":"F6","midi":89,"time":"466.92","velocity":0.2677165354330709,"duration":"0.15"},{"name":"G#2","midi":44,"time":"466.93","velocity":0.3779527559055118,"duration":"0.02"},{"name":"C6","midi":84,"time":"466.93","velocity":0.31496062992125984,"duration":"0.02"},{"name":"A#6","midi":94,"time":"466.93","velocity":0.25196850393700787,"duration":"0.27"},{"name":"C#4","midi":61,"time":"466.94","velocity":0.30708661417322836,"duration":"0.02"},{"name":"B4","midi":71,"time":"466.94","velocity":0.4566929133858268,"duration":"0.15"},{"name":"E1","midi":28,"time":"466.95","velocity":0.3543307086614173,"duration":"0.02"},{"name":"F4","midi":65,"time":"466.95","velocity":0.1732283464566929,"duration":"0.03"},{"name":"F#5","midi":78,"time":"466.95","velocity":0.30708661417322836,"duration":"0.16"},{"name":"B3","midi":59,"time":"466.97","velocity":0.30708661417322836,"duration":"0.03"},{"name":"D5","midi":74,"time":"466.97","velocity":0.3228346456692913,"duration":"0.02"},{"name":"D#6","midi":87,"time":"466.97","velocity":0.12598425196850394,"duration":"0.06"},{"name":"D7","midi":98,"time":"466.97","velocity":0.25984251968503935,"duration":"1.03"},{"name":"B2","midi":47,"time":"466.98","velocity":0.47244094488188976,"duration":"0.05"},{"name":"F#3","midi":54,"time":"466.98","velocity":0.41732283464566927,"duration":"0.03"},{"name":"A5","midi":81,"time":"466.98","velocity":0.6377952755905512,"duration":"0.26"},{"name":"C#5","midi":73,"time":"466.99","velocity":0.3464566929133858,"duration":"0.06"},{"name":"C4","midi":60,"time":"467.00","velocity":0.28346456692913385,"duration":"0.02"},{"name":"E5","midi":76,"time":"467.00","velocity":0.36220472440944884,"duration":"0.20"},{"name":"D6","midi":86,"time":"467.00","velocity":0.4330708661417323,"duration":"0.07"},{"name":"F#3","midi":54,"time":"467.02","velocity":0.41732283464566927,"duration":"0.03"},{"name":"B3","midi":59,"time":"467.02","velocity":0.2283464566929134,"duration":"0.02"},{"name":"F#2","midi":42,"time":"467.05","velocity":0.4094488188976378,"duration":"0.02"},{"name":"G3","midi":55,"time":"467.06","velocity":0.4015748031496063,"duration":"0.02"},{"name":"D4","midi":62,"time":"467.07","velocity":0.3779527559055118,"duration":"0.03"},{"name":"C#6","midi":85,"time":"467.07","velocity":0.4015748031496063,"duration":"0.08"},{"name":"F#3","midi":54,"time":"467.08","velocity":0.44881889763779526,"duration":"0.10"},{"name":"C#4","midi":61,"time":"467.10","velocity":0.36220472440944884,"duration":"0.02"},{"name":"E4","midi":64,"time":"467.10","velocity":0.2755905511811024,"duration":"0.05"},{"name":"D#6","midi":87,"time":"467.12","velocity":0.1732283464566929,"duration":"0.03"},{"name":"C1","midi":24,"time":"467.13","velocity":0.2755905511811024,"duration":"0.02"},{"name":"C#5","midi":73,"time":"467.13","velocity":0.2755905511811024,"duration":"0.02"},{"name":"F#5","midi":78,"time":"467.13","velocity":0.33858267716535434,"duration":"0.21"},{"name":"F6","midi":89,"time":"467.13","velocity":0.16535433070866143,"duration":"0.06"},{"name":"D5","midi":74,"time":"467.15","velocity":0.25984251968503935,"duration":"0.03"},{"name":"C6","midi":84,"time":"467.15","velocity":0.2125984251968504,"duration":"0.03"},{"name":"D6","midi":86,"time":"467.15","velocity":0.4015748031496063,"duration":"0.07"},{"name":"B4","midi":71,"time":"467.16","velocity":0.29133858267716534,"duration":"0.02"},{"name":"D#6","midi":87,"time":"467.16","velocity":0.18110236220472442,"duration":"0.07"},{"name":"C#4","midi":61,"time":"467.17","velocity":0.33070866141732286,"duration":"0.05"},{"name":"E4","midi":64,"time":"467.19","velocity":0.28346456692913385,"duration":"0.02"},{"name":"G6","midi":91,"time":"467.19","velocity":0.2440944881889764,"duration":"0.06"},{"name":"F#3","midi":54,"time":"467.20","velocity":0.4566929133858268,"duration":"0.07"},{"name":"B4","midi":71,"time":"467.20","velocity":0.47244094488188976,"duration":"0.14"},{"name":"A2","midi":45,"time":"467.21","velocity":0.5196850393700787,"duration":"0.01"},{"name":"A#6","midi":94,"time":"467.21","velocity":0.23622047244094488,"duration":"0.02"},{"name":"B2","midi":47,"time":"467.22","velocity":0.49606299212598426,"duration":"0.02"},{"name":"G#5","midi":80,"time":"467.22","velocity":0.33858267716535434,"duration":"0.02"},{"name":"C#6","midi":85,"time":"467.22","velocity":0.41732283464566927,"duration":"0.13"},{"name":"E4","midi":64,"time":"467.23","velocity":0.36220472440944884,"duration":"0.03"},{"name":"A#6","midi":94,"time":"467.26","velocity":0.2992125984251969,"duration":"0.35"},{"name":"G7","midi":103,"time":"467.26","velocity":0.23622047244094488,"duration":"0.09"},{"name":"A2","midi":45,"time":"467.27","velocity":0.6614173228346457,"duration":"0.02"},{"name":"F#4","midi":66,"time":"467.27","velocity":0.3779527559055118,"duration":"0.06"},{"name":"C#4","midi":61,"time":"467.28","velocity":0.33070866141732286,"duration":"0.02"},{"name":"D#6","midi":87,"time":"467.28","velocity":0.11811023622047244,"duration":"0.06"},{"name":"G6","midi":91,"time":"467.28","velocity":0.1968503937007874,"duration":"0.07"},{"name":"A#2","midi":46,"time":"467.29","velocity":0.6062992125984252,"duration":"0.01"},{"name":"G#5","midi":80,"time":"467.29","velocity":0.33858267716535434,"duration":"0.02"},{"name":"C6","midi":84,"time":"467.29","velocity":0.31496062992125984,"duration":"0.05"},{"name":"C3","midi":48,"time":"467.30","velocity":0.5984251968503937,"duration":"0.01"},{"name":"D4","midi":62,"time":"467.30","velocity":0.29133858267716534,"duration":"0.02"},{"name":"F#1","midi":30,"time":"467.31","velocity":0.5275590551181102,"duration":"0.01"},{"name":"A#2","midi":46,"time":"467.31","velocity":0.5905511811023622,"duration":"0.01"},{"name":"C#5","midi":73,"time":"467.31","velocity":0.25196850393700787,"duration":"0.03"},{"name":"D6","midi":86,"time":"467.31","velocity":0.4015748031496063,"duration":"0.10"},{"name":"F6","midi":89,"time":"467.31","velocity":0.23622047244094488,"duration":"0.08"},{"name":"C#4","midi":61,"time":"467.33","velocity":0.36220472440944884,"duration":"0.02"},{"name":"A4","midi":69,"time":"467.33","velocity":0.5984251968503937,"duration":"0.19"},{"name":"E2","midi":40,"time":"467.34","velocity":0.5354330708661418,"duration":"0.01"},{"name":"F#4","midi":66,"time":"467.34","velocity":0.2755905511811024,"duration":"0.05"},{"name":"B6","midi":95,"time":"467.34","velocity":0.3858267716535433,"duration":"0.72"},{"name":"A2","midi":45,"time":"467.35","velocity":0.5354330708661418,"duration":"0.01"},{"name":"F#3","midi":54,"time":"467.35","velocity":0.4409448818897638,"duration":"0.02"},{"name":"F#5","midi":78,"time":"467.35","velocity":0.36220472440944884,"duration":"0.66"},{"name":"D#6","midi":87,"time":"467.36","velocity":0.16535433070866143,"duration":"0.03"},{"name":"C#4","midi":61,"time":"467.37","velocity":0.3779527559055118,"duration":"0.03"},{"name":"B4","midi":71,"time":"467.37","velocity":0.3937007874015748,"duration":"0.02"},{"name":"G6","midi":91,"time":"467.37","velocity":0.16535433070866143,"duration":"0.06"},{"name":"F#3","midi":54,"time":"467.38","velocity":0.4015748031496063,"duration":"0.02"},{"name":"C#6","midi":85,"time":"467.38","velocity":0.44881889763779526,"duration":"0.08"},{"name":"C7","midi":96,"time":"467.38","velocity":0.25196850393700787,"duration":"0.16"},{"name":"B2","midi":47,"time":"467.40","velocity":0.4409448818897638,"duration":"0.02"},{"name":"F4","midi":65,"time":"467.41","velocity":0.2047244094488189,"duration":"0.03"},{"name":"B4","midi":71,"time":"467.41","velocity":0.3858267716535433,"duration":"0.02"},{"name":"F#3","midi":54,"time":"467.42","velocity":0.44881889763779526,"duration":"0.07"},{"name":"C#5","midi":73,"time":"467.42","velocity":0.2283464566929134,"duration":"0.02"},{"name":"C#4","midi":61,"time":"467.43","velocity":0.3700787401574803,"duration":"0.09"},{"name":"A5","midi":81,"time":"467.43","velocity":0.6614173228346457,"duration":"0.20"},{"name":"G6","midi":91,"time":"467.45","velocity":0.13385826771653545,"duration":"0.03"},{"name":"E5","midi":76,"time":"467.47","velocity":0.29133858267716534,"duration":"0.02"},{"name":"D6","midi":86,"time":"467.47","velocity":0.44881889763779526,"duration":"0.07"},{"name":"G#5","midi":80,"time":"467.48","velocity":0.28346456692913385,"duration":"0.07"},{"name":"B2","midi":47,"time":"467.49","velocity":0.47244094488188976,"duration":"0.02"},{"name":"D#5","midi":75,"time":"467.49","velocity":0.23622047244094488,"duration":"0.02"},{"name":"F6","midi":89,"time":"467.49","velocity":0.23622047244094488,"duration":"0.06"},{"name":"F#3","midi":54,"time":"467.50","velocity":0.4094488188976378,"duration":"0.06"},{"name":"B4","midi":71,"time":"467.50","velocity":0.2283464566929134,"duration":"0.03"},{"name":"E5","midi":76,"time":"467.51","velocity":0.3543307086614173,"duration":"0.13"},{"name":"G7","midi":103,"time":"467.51","velocity":0.1732283464566929,"duration":"0.12"},{"name":"A4","midi":69,"time":"467.52","velocity":0.5511811023622047,"duration":"0.52"},{"name":"G6","midi":91,"time":"467.52","velocity":0.31496062992125984,"duration":"0.48"},{"name":"C#4","midi":61,"time":"467.53","velocity":0.33070866141732286,"duration":"0.02"},{"name":"C#6","midi":85,"time":"467.53","velocity":0.4409448818897638,"duration":"0.09"},{"name":"B2","midi":47,"time":"467.55","velocity":0.3858267716535433,"duration":"0.02"},{"name":"B3","midi":59,"time":"467.57","velocity":0.3937007874015748,"duration":"0.05"},{"name":"B4","midi":71,"time":"467.57","velocity":0.3937007874015748,"duration":"0.05"},{"name":"D6","midi":86,"time":"467.57","velocity":0.1968503937007874,"duration":"0.03"},{"name":"C7","midi":96,"time":"467.57","velocity":0.30708661417322836,"duration":"0.22"},{"name":"F#3","midi":54,"time":"467.60","velocity":0.5039370078740157,"duration":"0.07"},{"name":"D#6","midi":87,"time":"467.60","velocity":0.16535433070866143,"duration":"0.07"},{"name":"D6","midi":86,"time":"467.62","velocity":0.41732283464566927,"duration":"0.10"},{"name":"A#6","midi":94,"time":"467.62","velocity":0.29133858267716534,"duration":"0.31"},{"name":"B4","midi":71,"time":"467.63","velocity":0.4015748031496063,"duration":"0.06"},{"name":"C6","midi":84,"time":"467.63","velocity":0.33858267716535434,"duration":"0.07"},{"name":"B2","midi":47,"time":"467.64","velocity":0.5196850393700787,"duration":"0.01"},{"name":"D5","midi":74,"time":"467.64","velocity":0.30708661417322836,"duration":"0.05"},{"name":"A5","midi":81,"time":"467.64","velocity":0.6220472440944882,"duration":"0.17"},{"name":"G#6","midi":92,"time":"467.64","velocity":0.23622047244094488,"duration":"0.17"},{"name":"F2","midi":41,"time":"467.65","velocity":0.6220472440944882,"duration":"0.02"},{"name":"G5","midi":79,"time":"467.66","velocity":0.25196850393700787,"duration":"0.02"},{"name":"B5","midi":83,"time":"467.66","velocity":0.4409448818897638,"duration":"0.38"},{"name":"G2","midi":43,"time":"467.67","velocity":0.5984251968503937,"duration":"0.01"},{"name":"F#4","midi":66,"time":"467.67","velocity":0.3700787401574803,"duration":"0.02"},{"name":"E5","midi":76,"time":"467.67","velocity":0.3543307086614173,"duration":"0.03"},{"name":"B2","midi":47,"time":"467.69","velocity":0.5511811023622047,"duration":"0.03"},{"name":"C#5","midi":73,"time":"467.69","velocity":0.15748031496062992,"duration":"0.03"},{"name":"G#3","midi":56,"time":"467.70","velocity":0.33858267716535434,"duration":"0.02"},{"name":"E4","midi":64,"time":"467.70","velocity":0.2440944881889764,"duration":"0.02"},{"name":"A#5","midi":82,"time":"467.70","velocity":0.2204724409448819,"duration":"0.03"},{"name":"C#6","midi":85,"time":"467.70","velocity":0.4330708661417323,"duration":"0.14"},{"name":"D#5","midi":75,"time":"467.71","velocity":0.2283464566929134,"duration":"0.02"},{"name":"F6","midi":89,"time":"467.71","velocity":0.2204724409448819,"duration":"0.06"},{"name":"B3","midi":59,"time":"467.72","velocity":0.2677165354330709,"duration":"0.02"},{"name":"F#4","midi":66,"time":"467.72","velocity":0.28346456692913385,"duration":"0.02"},{"name":"B4","midi":71,"time":"467.72","velocity":0.33070866141732286,"duration":"0.07"},{"name":"G#2","midi":44,"time":"467.73","velocity":0.5354330708661418,"duration":"0.01"},{"name":"D#6","midi":87,"time":"467.73","velocity":0.2204724409448819,"duration":"0.17"},{"name":"A#2","midi":46,"time":"467.74","velocity":0.5196850393700787,"duration":"0.01"},{"name":"C#5","midi":73,"time":"467.74","velocity":0.2283464566929134,"duration":"0.05"},{"name":"F5","midi":77,"time":"467.74","velocity":0.28346456692913385,"duration":"0.03"},{"name":"G#5","midi":80,"time":"467.74","velocity":0.30708661417322836,"duration":"0.02"},{"name":"C3","midi":48,"time":"467.76","velocity":0.5275590551181102,"duration":"0.01"},{"name":"B3","midi":59,"time":"467.76","velocity":0.3779527559055118,"duration":"0.03"},{"name":"D4","midi":62,"time":"467.76","velocity":0.31496062992125984,"duration":"0.02"},{"name":"A#2","midi":46,"time":"467.77","velocity":0.5196850393700787,"duration":"0.01"},{"name":"D6","midi":86,"time":"467.77","velocity":0.4251968503937008,"duration":"0.08"},{"name":"E6","midi":88,"time":"467.77","velocity":0.4094488188976378,"duration":"0.40"},{"name":"B2","midi":47,"time":"467.78","velocity":0.5275590551181102,"duration":"0.01"},{"name":"F#4","midi":66,"time":"467.78","velocity":0.2440944881889764,"duration":"0.02"},{"name":"D#5","midi":75,"time":"467.78","velocity":0.18110236220472442,"duration":"0.03"},{"name":"F6","midi":89,"time":"467.78","velocity":0.13385826771653545,"duration":"0.03"},{"name":"E5","midi":76,"time":"467.80","velocity":0.2992125984251969,"duration":"0.03"},{"name":"G#5","midi":80,"time":"467.80","velocity":0.47244094488188976,"duration":"0.02"},{"name":"C7","midi":96,"time":"467.80","velocity":0.25196850393700787,"duration":"0.08"},{"name":"B2","midi":47,"time":"467.81","velocity":0.5275590551181102,"duration":"0.03"},{"name":"D4","midi":62,"time":"467.83","velocity":0.3464566929133858,"duration":"0.02"},{"name":"A5","midi":81,"time":"467.83","velocity":0.6456692913385826,"duration":"0.26"},{"name":"G#6","midi":92,"time":"467.83","velocity":0.14173228346456693,"duration":"0.05"},{"name":"F#4","midi":66,"time":"467.84","velocity":0.31496062992125984,"duration":"0.09"},{"name":"F6","midi":89,"time":"467.84","velocity":0.23622047244094488,"duration":"0.14"},{"name":"C3","midi":48,"time":"467.85","velocity":0.49606299212598426,"duration":"0.02"},{"name":"C#5","midi":73,"time":"467.85","velocity":0.2677165354330709,"duration":"0.06"},{"name":"E5","midi":76,"time":"467.85","velocity":0.4251968503937008,"duration":"0.17"},{"name":"C#6","midi":85,"time":"467.85","velocity":0.4409448818897638,"duration":"0.13"},{"name":"A#2","midi":46,"time":"467.86","velocity":0.5275590551181102,"duration":"0.01"},{"name":"D6","midi":86,"time":"467.86","velocity":0.2440944881889764,"duration":"0.06"},{"name":"B2","midi":47,"time":"467.87","velocity":0.49606299212598426,"duration":"0.02"},{"name":"D4","midi":62,"time":"467.88","velocity":0.44881889763779526,"duration":"0.08"},{"name":"B4","midi":71,"time":"467.88","velocity":0.2755905511811024,"duration":"0.06"},{"name":"A2","midi":45,"time":"467.90","velocity":0.5275590551181102,"duration":"0.01"},{"name":"G#5","midi":80,"time":"467.90","velocity":0.3464566929133858,"duration":"0.06"},{"name":"C6","midi":84,"time":"467.90","velocity":0.2283464566929134,"duration":"0.02"},{"name":"C7","midi":96,"time":"467.91","velocity":0.36220472440944884,"duration":"0.64"},{"name":"D#7","midi":99,"time":"467.91","velocity":0.4015748031496063,"duration":"2.47"},{"name":"D#6","midi":87,"time":"467.92","velocity":0.5118110236220472,"duration":"0.59"},{"name":"F#3","midi":54,"time":"467.94","velocity":0.4094488188976378,"duration":"0.06"},{"name":"D6","midi":86,"time":"467.94","velocity":0.4409448818897638,"duration":"0.06"},{"name":"C4","midi":60,"time":"467.95","velocity":0.4251968503937008,"duration":"0.02"},{"name":"F2","midi":41,"time":"467.97","velocity":0.47244094488188976,"duration":"0.02"},{"name":"A#6","midi":94,"time":"467.97","velocity":0.3937007874015748,"duration":"0.48"},{"name":"B2","midi":47,"time":"467.98","velocity":0.5118110236220472,"duration":"0.02"},{"name":"G5","midi":79,"time":"467.98","velocity":0.23622047244094488,"duration":"0.05"},{"name":"D4","midi":62,"time":"467.99","velocity":0.4330708661417323,"duration":"0.05"},{"name":"F6","midi":89,"time":"467.99","velocity":0.2755905511811024,"duration":"0.05"},{"name":"A2","midi":45,"time":"468.00","velocity":0.5196850393700787,"duration":"0.01"},{"name":"C#5","midi":73,"time":"468.00","velocity":0.4251968503937008,"duration":"0.06"},{"name":"C#6","midi":85,"time":"468.00","velocity":0.4566929133858268,"duration":"0.19"},{"name":"G6","midi":91,"time":"468.01","velocity":0.3228346456692913,"duration":"0.03"},{"name":"B2","midi":47,"time":"468.02","velocity":0.5275590551181102,"duration":"0.01"},{"name":"G#3","midi":56,"time":"468.02","velocity":0.47244094488188976,"duration":"0.02"},{"name":"F5","midi":77,"time":"468.02","velocity":0.4409448818897638,"duration":"0.09"},{"name":"A2","midi":45,"time":"468.03","velocity":0.5118110236220472,"duration":"0.01"},{"name":"C4","midi":60,"time":"468.03","velocity":0.47244094488188976,"duration":"0.02"},{"name":"G3","midi":55,"time":"468.05","velocity":0.4409448818897638,"duration":"0.02"},{"name":"F4","midi":65,"time":"468.05","velocity":0.41732283464566927,"duration":"0.02"},{"name":"G#4","midi":68,"time":"468.05","velocity":0.49606299212598426,"duration":"0.02"},{"name":"D#5","midi":75,"time":"468.05","velocity":0.3464566929133858,"duration":"0.02"},{"name":"F#5","midi":78,"time":"468.05","velocity":0.3543307086614173,"duration":"0.03"},{"name":"A#5","midi":82,"time":"468.05","velocity":0.25984251968503935,"duration":"0.03"},{"name":"G#6","midi":92,"time":"468.05","velocity":0.4566929133858268,"duration":"2.57"},{"name":"B3","midi":59,"time":"468.06","velocity":0.41732283464566927,"duration":"0.02"},{"name":"B5","midi":83,"time":"468.06","velocity":0.3779527559055118,"duration":"0.16"},{"name":"A4","midi":69,"time":"468.07","velocity":0.5275590551181102,"duration":"0.03"},{"name":"G#5","midi":80,"time":"468.07","velocity":0.5039370078740157,"duration":"0.02"},{"name":"D6","midi":86,"time":"468.07","velocity":0.25196850393700787,"duration":"0.06"},{"name":"G6","midi":91,"time":"468.07","velocity":0.2125984251968504,"duration":"0.03"},{"name":"B6","midi":95,"time":"468.07","velocity":0.4015748031496063,"duration":"0.43"},{"name":"C6","midi":84,"time":"468.08","velocity":0.23622047244094488,"duration":"0.02"},{"name":"F#3","midi":54,"time":"468.09","velocity":0.5275590551181102,"duration":"0.06"},{"name":"E4","midi":64,"time":"468.09","velocity":0.3779527559055118,"duration":"0.03"},{"name":"F#5","midi":78,"time":"468.09","velocity":0.3700787401574803,"duration":"0.27"},{"name":"A5","midi":81,"time":"468.09","velocity":0.5590551181102362,"duration":"0.05"},{"name":"C2","midi":36,"time":"468.10","velocity":0.41732283464566927,"duration":"0.02"},{"name":"G#4","midi":68,"time":"468.10","velocity":0.48031496062992124,"duration":"0.05"},{"name":"B4","midi":71,"time":"468.10","velocity":0.3937007874015748,"duration":"0.23"},{"name":"G6","midi":91,"time":"468.12","velocity":0.2677165354330709,"duration":"0.08"},{"name":"C#5","midi":73,"time":"468.14","velocity":0.28346456692913385,"duration":"0.03"},{"name":"G#5","midi":80,"time":"468.14","velocity":0.5669291338582677,"duration":"0.05"},{"name":"D6","midi":86,"time":"468.14","velocity":0.2125984251968504,"duration":"0.03"},{"name":"F6","midi":89,"time":"468.15","velocity":0.1732283464566929,"duration":"0.06"},{"name":"G#4","midi":68,"time":"468.16","velocity":0.5984251968503937,"duration":"0.31"},{"name":"B3","midi":59,"time":"468.17","velocity":0.33070866141732286,"duration":"0.02"},{"name":"D5","midi":74,"time":"468.17","velocity":0.29133858267716534,"duration":"0.05"},{"name":"A5","midi":81,"time":"468.17","velocity":0.4409448818897638,"duration":"0.02"},{"name":"C6","midi":84,"time":"468.17","velocity":0.41732283464566927,"duration":"0.07"},{"name":"F#3","midi":54,"time":"468.19","velocity":0.49606299212598426,"duration":"0.05"},{"name":"G#5","midi":80,"time":"468.20","velocity":0.5984251968503937,"duration":"0.41"},{"name":"D4","midi":62,"time":"468.21","velocity":0.30708661417322836,"duration":"0.05"},{"name":"G6","midi":91,"time":"468.21","velocity":0.2440944881889764,"duration":"0.06"},{"name":"D#5","midi":75,"time":"468.22","velocity":0.3464566929133858,"duration":"0.03"},{"name":"F3","midi":53,"time":"468.23","velocity":0.5118110236220472,"duration":"0.03"},{"name":"B5","midi":83,"time":"468.24","velocity":0.41732283464566927,"duration":"0.31"},{"name":"C#6","midi":85,"time":"468.24","velocity":0.4330708661417323,"duration":"0.07"},{"name":"F#4","midi":66,"time":"468.26","velocity":0.28346456692913385,"duration":"0.02"},{"name":"E5","midi":76,"time":"468.26","velocity":0.25196850393700787,"duration":"0.06"},{"name":"D4","midi":62,"time":"468.28","velocity":0.3228346456692913,"duration":"0.02"},{"name":"E6","midi":88,"time":"468.28","velocity":0.3464566929133858,"duration":"0.13"},{"name":"G6","midi":91,"time":"468.28","velocity":0.18110236220472442,"duration":"0.08"},{"name":"F6","midi":89,"time":"468.29","velocity":0.1732283464566929,"duration":"0.10"},{"name":"C#5","midi":73,"time":"468.30","velocity":0.2125984251968504,"duration":"0.06"},{"name":"D6","midi":86,"time":"468.30","velocity":0.29133858267716534,"duration":"0.03"},{"name":"C6","midi":84,"time":"468.31","velocity":0.3937007874015748,"duration":"0.09"},{"name":"A2","midi":45,"time":"468.33","velocity":0.5511811023622047,"duration":"0.01"},{"name":"D4","midi":62,"time":"468.34","velocity":0.2755905511811024,"duration":"0.02"},{"name":"A5","midi":81,"time":"468.34","velocity":0.4881889763779528,"duration":"0.05"},{"name":"C#6","midi":85,"time":"468.34","velocity":0.28346456692913385,"duration":"0.02"},{"name":"F#3","midi":54,"time":"468.35","velocity":0.3779527559055118,"duration":"0.03"},{"name":"B3","midi":59,"time":"468.35","velocity":0.3543307086614173,"duration":"0.03"},{"name":"E5","midi":76,"time":"468.36","velocity":0.2755905511811024,"duration":"0.03"},{"name":"F#5","midi":78,"time":"468.38","velocity":0.2677165354330709,"duration":"0.03"},{"name":"C#6","midi":85,"time":"468.38","velocity":0.4409448818897638,"duration":"0.15"},{"name":"D6","midi":86,"time":"468.38","velocity":0.25196850393700787,"duration":"0.08"},{"name":"G6","midi":91,"time":"468.38","velocity":0.2440944881889764,"duration":"0.10"},{"name":"D#5","midi":75,"time":"468.40","velocity":0.33070866141732286,"duration":"0.08"},{"name":"G#3","midi":56,"time":"468.41","velocity":0.33858267716535434,"duration":"0.02"},{"name":"F6","midi":89,"time":"468.41","velocity":0.1968503937007874,"duration":"0.07"},{"name":"G5","midi":79,"time":"468.42","velocity":0.2755905511811024,"duration":"0.02"},{"name":"A5","midi":81,"time":"468.42","velocity":0.48031496062992124,"duration":"0.13"},{"name":"E6","midi":88,"time":"468.42","velocity":0.4566929133858268,"duration":"0.47"},{"name":"F#6","midi":90,"time":"468.42","velocity":0.2755905511811024,"duration":"0.12"},{"name":"E5","midi":76,"time":"468.43","velocity":0.33858267716535434,"duration":"0.06"},{"name":"E1","midi":28,"time":"468.44","velocity":0.4330708661417323,"duration":"0.05"},{"name":"E3","midi":52,"time":"468.44","velocity":0.48031496062992124,"duration":"0.03"},{"name":"F#5","midi":78,"time":"468.44","velocity":0.3700787401574803,"duration":"0.17"},{"name":"A#6","midi":94,"time":"468.45","velocity":0.2677165354330709,"duration":"0.53"},{"name":"A#5","midi":82,"time":"468.47","velocity":0.2440944881889764,"duration":"0.02"},{"name":"A4","midi":69,"time":"468.48","velocity":0.5354330708661418,"duration":"0.01"},{"name":"B4","midi":71,"time":"468.48","velocity":0.33858267716535434,"duration":"0.09"},{"name":"D5","midi":74,"time":"468.48","velocity":0.25196850393700787,"duration":"0.02"},{"name":"C6","midi":84,"time":"468.48","velocity":0.41732283464566927,"duration":"0.10"},{"name":"C3","midi":48,"time":"468.49","velocity":0.47244094488188976,"duration":"0.02"},{"name":"D#4","midi":63,"time":"468.49","velocity":0.3464566929133858,"duration":"0.02"},{"name":"G#4","midi":68,"time":"468.49","velocity":0.6614173228346457,"duration":"1.22"},{"name":"F6","midi":89,"time":"468.49","velocity":0.2440944881889764,"duration":"0.09"},{"name":"G6","midi":91,"time":"468.50","velocity":0.3228346456692913,"duration":"0.06"},{"name":"B2","midi":47,"time":"468.51","velocity":0.5039370078740157,"duration":"0.02"},{"name":"E4","midi":64,"time":"468.51","velocity":0.2992125984251969,"duration":"0.03"},{"name":"D5","midi":74,"time":"468.51","velocity":0.2677165354330709,"duration":"0.03"},{"name":"E5","midi":76,"time":"468.51","velocity":0.33858267716535434,"duration":"0.06"},{"name":"D6","midi":86,"time":"468.51","velocity":0.30708661417322836,"duration":"0.28"},{"name":"D#6","midi":87,"time":"468.52","velocity":0.4015748031496063,"duration":"0.27"},{"name":"D4","midi":62,"time":"468.53","velocity":0.2755905511811024,"duration":"0.03"},{"name":"E2","midi":40,"time":"468.55","velocity":0.5196850393700787,"duration":"0.02"},{"name":"B2","midi":47,"time":"468.55","velocity":0.47244094488188976,"duration":"0.02"},{"name":"C#6","midi":85,"time":"468.56","velocity":0.41732283464566927,"duration":"0.07"},{"name":"F2","midi":41,"time":"468.57","velocity":0.5196850393700787,"duration":"0.02"},{"name":"D#5","midi":75,"time":"468.57","velocity":0.36220472440944884,"duration":"0.03"},{"name":"B5","midi":83,"time":"468.57","velocity":0.29133858267716534,"duration":"0.15"},{"name":"C#3","midi":49,"time":"468.58","velocity":0.4881889763779528,"duration":"0.03"},{"name":"C4","midi":60,"time":"468.58","velocity":0.1968503937007874,"duration":"0.03"},{"name":"C#5","midi":73,"time":"468.59","velocity":0.2440944881889764,"duration":"0.06"},{"name":"G5","midi":79,"time":"468.59","velocity":0.28346456692913385,"duration":"0.02"},{"name":"A5","midi":81,"time":"468.59","velocity":0.5669291338582677,"duration":"0.26"},{"name":"F5","midi":77,"time":"468.62","velocity":0.12598425196850394,"duration":"0.06"},{"name":"C6","midi":84,"time":"468.63","velocity":0.3779527559055118,"duration":"0.08"},{"name":"F#2","midi":42,"time":"468.65","velocity":0.5118110236220472,"duration":"0.01"},{"name":"D#5","midi":75,"time":"468.65","velocity":0.18110236220472442,"duration":"0.03"},{"name":"F6","midi":89,"time":"468.65","velocity":0.1968503937007874,"duration":"0.10"},{"name":"G#2","midi":44,"time":"468.66","velocity":0.5275590551181102,"duration":"0.01"},{"name":"B4","midi":71,"time":"468.66","velocity":0.25984251968503935,"duration":"0.02"},{"name":"G6","midi":91,"time":"468.66","velocity":0.14173228346456693,"duration":"0.05"},{"name":"G#3","midi":56,"time":"468.67","velocity":0.3858267716535433,"duration":"0.03"},{"name":"E5","midi":76,"time":"468.67","velocity":0.28346456692913385,"duration":"0.05"},{"name":"F#5","midi":78,"time":"468.67","velocity":0.2204724409448819,"duration":"0.07"},{"name":"B4","midi":71,"time":"468.70","velocity":0.2283464566929134,"duration":"0.03"},{"name":"C#6","midi":85,"time":"468.71","velocity":0.41732283464566927,"duration":"0.12"},{"name":"F#6","midi":90,"time":"468.71","velocity":0.28346456692913385,"duration":"0.36"},{"name":"D4","midi":62,"time":"468.72","velocity":0.31496062992125984,"duration":"0.02"},{"name":"C6","midi":84,"time":"468.72","velocity":0.2283464566929134,"duration":"0.02"},{"name":"E5","midi":76,"time":"468.73","velocity":0.25196850393700787,"duration":"0.02"},{"name":"F#2","midi":42,"time":"468.74","velocity":0.48031496062992124,"duration":"0.02"},{"name":"A3","midi":57,"time":"468.74","velocity":0.3543307086614173,"duration":"0.05"},{"name":"D#4","midi":63,"time":"468.74","velocity":0.36220472440944884,"duration":"0.07"},{"name":"B5","midi":83,"time":"468.74","velocity":0.31496062992125984,"duration":"0.14"},{"name":"D#3","midi":51,"time":"468.76","velocity":0.5118110236220472,"duration":"0.02"},{"name":"C5","midi":72,"time":"468.77","velocity":0.2992125984251969,"duration":"0.02"},{"name":"F#2","midi":42,"time":"468.78","velocity":0.6141732283464567,"duration":"0.01"},{"name":"F5","midi":77,"time":"468.78","velocity":0.2755905511811024,"duration":"0.02"},{"name":"F2","midi":41,"time":"468.79","velocity":0.6141732283464567,"duration":"0.02"},{"name":"E5","midi":76,"time":"468.79","velocity":0.33858267716535434,"duration":"0.02"},{"name":"C6","midi":84,"time":"468.79","velocity":0.4015748031496063,"duration":"0.10"},{"name":"D#5","midi":75,"time":"468.80","velocity":0.3858267716535433,"duration":"0.09"},{"name":"D6","midi":86,"time":"468.80","velocity":0.25984251968503935,"duration":"0.14"},{"name":"G#1","midi":32,"time":"468.81","velocity":0.5196850393700787,"duration":"0.01"},{"name":"E3","midi":52,"time":"468.81","velocity":0.44881889763779526,"duration":"0.02"},{"name":"C4","midi":60,"time":"468.81","velocity":0.23622047244094488,"duration":"0.02"},{"name":"C#5","midi":73,"time":"468.81","velocity":0.25196850393700787,"duration":"0.05"},{"name":"G5","midi":79,"time":"468.81","velocity":0.33070866141732286,"duration":"0.02"},{"name":"D#6","midi":87,"time":"468.81","velocity":0.5433070866141733,"duration":"2.70"},{"name":"G1","midi":31,"time":"468.83","velocity":0.5354330708661418,"duration":"0.02"},{"name":"E4","midi":64,"time":"468.84","velocity":0.3700787401574803,"duration":"0.03"},{"name":"A2","midi":45,"time":"468.85","velocity":0.5196850393700787,"duration":"0.01"},{"name":"F#5","midi":78,"time":"468.85","velocity":0.33070866141732286,"duration":"0.05"},{"name":"A6","midi":93,"time":"468.85","velocity":0.2204724409448819,"duration":"0.15"},{"name":"G#2","midi":44,"time":"468.87","velocity":0.5433070866141733,"duration":"0.01"},{"name":"A3","midi":57,"time":"468.87","velocity":0.2440944881889764,"duration":"0.03"},{"name":"C#6","midi":85,"time":"468.87","velocity":0.3858267716535433,"duration":"0.12"},{"name":"G2","midi":43,"time":"468.88","velocity":0.5039370078740157,"duration":"0.02"},{"name":"A5","midi":81,"time":"468.88","velocity":0.4251968503937008,"duration":"0.06"},{"name":"D#4","midi":63,"time":"468.90","velocity":0.33070866141732286,"duration":"0.02"},{"name":"E5","midi":76,"time":"468.90","velocity":0.28346456692913385,"duration":"0.02"},{"name":"B5","midi":83,"time":"468.90","velocity":0.3543307086614173,"duration":"0.23"},{"name":"G6","midi":91,"time":"468.90","velocity":0.13385826771653545,"duration":"0.07"},{"name":"D7","midi":98,"time":"468.90","velocity":0.3543307086614173,"duration":"1.47"},{"name":"G#2","midi":44,"time":"468.91","velocity":0.5669291338582677,"duration":"0.23"},{"name":"A#3","midi":58,"time":"468.91","velocity":0.2992125984251969,"duration":"0.02"},{"name":"C#4","midi":61,"time":"468.92","velocity":0.3543307086614173,"duration":"0.06"},{"name":"F6","midi":89,"time":"468.92","velocity":0.2047244094488189,"duration":"0.03"},{"name":"C#5","midi":73,"time":"468.93","velocity":0.3543307086614173,"duration":"0.23"},{"name":"E5","midi":76,"time":"468.93","velocity":0.3228346456692913,"duration":"0.07"},{"name":"F#5","midi":78,"time":"468.93","velocity":0.2440944881889764,"duration":"0.02"},{"name":"E4","midi":64,"time":"468.94","velocity":0.36220472440944884,"duration":"0.02"},{"name":"B4","midi":71,"time":"468.94","velocity":0.31496062992125984,"duration":"0.06"},{"name":"C6","midi":84,"time":"468.94","velocity":0.3937007874015748,"duration":"0.09"},{"name":"F#5","midi":78,"time":"468.97","velocity":0.29133858267716534,"duration":"0.13"},{"name":"A5","midi":81,"time":"468.97","velocity":0.2677165354330709,"duration":"0.02"},{"name":"D4","midi":62,"time":"468.98","velocity":0.2992125984251969,"duration":"0.02"},{"name":"D#5","midi":75,"time":"468.99","velocity":0.36220472440944884,"duration":"0.07"},{"name":"G3","midi":55,"time":"469.00","velocity":0.3228346456692913,"duration":"0.02"},{"name":"E4","midi":64,"time":"469.00","velocity":0.3464566929133858,"duration":"0.02"},{"name":"D6","midi":86,"time":"469.00","velocity":0.13385826771653545,"duration":"0.03"},{"name":"F6","midi":89,"time":"469.00","velocity":0.2204724409448819,"duration":"0.09"},{"name":"A#6","midi":94,"time":"469.00","velocity":0.15748031496062992,"duration":"0.10"},{"name":"C#4","midi":61,"time":"469.01","velocity":0.2677165354330709,"duration":"0.05"},{"name":"C#6","midi":85,"time":"469.01","velocity":0.4251968503937008,"duration":"0.09"},{"name":"G6","midi":91,"time":"469.01","velocity":0.2125984251968504,"duration":"0.07"},{"name":"A6","midi":93,"time":"469.01","velocity":0.4015748031496063,"duration":"0.74"},{"name":"E1","midi":28,"time":"469.03","velocity":0.25984251968503935,"duration":"0.02"},{"name":"E6","midi":88,"time":"469.03","velocity":0.44881889763779526,"duration":"0.64"},{"name":"D6","midi":86,"time":"469.05","velocity":0.1968503937007874,"duration":"0.03"},{"name":"E5","midi":76,"time":"469.06","velocity":0.3779527559055118,"duration":"0.06"},{"name":"G3","midi":55,"time":"469.08","velocity":0.33858267716535434,"duration":"0.03"},{"name":"C#4","midi":61,"time":"469.09","velocity":0.28346456692913385,"duration":"0.03"},{"name":"D#5","midi":75,"time":"469.09","velocity":0.3464566929133858,"duration":"0.12"},{"name":"A5","midi":81,"time":"469.09","velocity":0.23622047244094488,"duration":"0.06"},{"name":"C6","midi":84,"time":"469.09","velocity":0.3937007874015748,"duration":"0.08"},{"name":"D6","midi":86,"time":"469.09","velocity":0.25984251968503935,"duration":"0.03"},{"name":"F4","midi":65,"time":"469.10","velocity":0.31496062992125984,"duration":"0.02"},{"name":"F#5","midi":78,"time":"469.10","velocity":0.28346456692913385,"duration":"0.02"},{"name":"C#7","midi":97,"time":"469.10","velocity":0.4409448818897638,"duration":"2.47"},{"name":"G6","midi":91,"time":"469.12","velocity":0.15748031496062992,"duration":"0.03"},{"name":"A#6","midi":94,"time":"469.12","velocity":0.3464566929133858,"duration":"0.49"},{"name":"E4","midi":64,"time":"469.13","velocity":0.30708661417322836,"duration":"0.09"},{"name":"F5","midi":77,"time":"469.13","velocity":0.2283464566929134,"duration":"0.02"},{"name":"A2","midi":45,"time":"469.14","velocity":0.5433070866141733,"duration":"0.01"},{"name":"B5","midi":83,"time":"469.14","velocity":0.30708661417322836,"duration":"0.37"},{"name":"D6","midi":86,"time":"469.14","velocity":0.2677165354330709,"duration":"0.15"},{"name":"D3","midi":50,"time":"469.15","velocity":0.5354330708661418,"duration":"0.01"},{"name":"C5","midi":72,"time":"469.15","velocity":0.2440944881889764,"duration":"0.02"},{"name":"E3","midi":52,"time":"469.16","velocity":0.5354330708661418,"duration":"0.07"},{"name":"F#5","midi":78,"time":"469.16","velocity":0.3464566929133858,"duration":"0.07"},{"name":"B6","midi":95,"time":"469.16","velocity":0.3464566929133858,"duration":"0.26"},{"name":"C#5","midi":73,"time":"469.17","velocity":0.2992125984251969,"duration":"0.33"},{"name":"C#6","midi":85,"time":"469.17","velocity":0.41732283464566927,"duration":"0.08"},{"name":"A5","midi":81,"time":"469.19","velocity":0.48031496062992124,"duration":"0.02"},{"name":"G7","midi":103,"time":"469.19","velocity":0.2440944881889764,"duration":"0.56"},{"name":"G#2","midi":44,"time":"469.20","velocity":0.4330708661417323,"duration":"0.02"},{"name":"E5","midi":76,"time":"469.21","velocity":0.48031496062992124,"duration":"0.49"},{"name":"F6","midi":89,"time":"469.21","velocity":0.16535433070866143,"duration":"0.03"},{"name":"D#4","midi":63,"time":"469.22","velocity":0.31496062992125984,"duration":"0.02"},{"name":"A5","midi":81,"time":"469.22","velocity":0.5039370078740157,"duration":"0.07"},{"name":"G6","midi":91,"time":"469.22","velocity":0.14173228346456693,"duration":"0.05"},{"name":"F5","midi":77,"time":"469.23","velocity":0.2440944881889764,"duration":"0.02"},{"name":"G#3","midi":56,"time":"469.24","velocity":0.3700787401574803,"duration":"0.05"},{"name":"B4","midi":71,"time":"469.24","velocity":0.2755905511811024,"duration":"0.06"},{"name":"F#6","midi":90,"time":"469.24","velocity":0.25196850393700787,"duration":"0.12"},{"name":"E4","midi":64,"time":"469.26","velocity":0.4566929133858268,"duration":"0.07"},{"name":"F#5","midi":78,"time":"469.26","velocity":0.36220472440944884,"duration":"0.16"},{"name":"C6","midi":84,"time":"469.26","velocity":0.4015748031496063,"duration":"0.09"},{"name":"C#6","midi":85,"time":"469.27","velocity":0.3464566929133858,"duration":"0.05"},{"name":"G6","midi":91,"time":"469.28","velocity":0.11023622047244094,"duration":"0.05"},{"name":"C#1","midi":25,"time":"469.29","velocity":0.2283464566929134,"duration":"0.02"},{"name":"G2","midi":43,"time":"469.29","velocity":0.3543307086614173,"duration":"0.02"},{"name":"C#4","midi":61,"time":"469.31","velocity":0.3464566929133858,"duration":"0.10"},{"name":"B4","midi":71,"time":"469.31","velocity":0.2283464566929134,"duration":"0.02"},{"name":"D6","midi":86,"time":"469.31","velocity":0.3228346456692913,"duration":"0.10"},{"name":"D3","midi":50,"time":"469.34","velocity":0.33858267716535434,"duration":"0.02"},{"name":"G#3","midi":56,"time":"469.34","velocity":0.2440944881889764,"duration":"0.05"},{"name":"F6","midi":89,"time":"469.34","velocity":0.14173228346456693,"duration":"0.03"},{"name":"C#6","midi":85,"time":"469.35","velocity":0.41732283464566927,"duration":"0.06"},{"name":"E4","midi":64,"time":"469.36","velocity":0.4330708661417323,"duration":"0.17"},{"name":"G6","midi":91,"time":"469.36","velocity":0.14960629921259844,"duration":"0.03"},{"name":"G#2","midi":44,"time":"469.38","velocity":0.4094488188976378,"duration":"0.02"},{"name":"F6","midi":89,"time":"469.38","velocity":0.18110236220472442,"duration":"0.09"},{"name":"F#6","midi":90,"time":"469.40","velocity":0.3937007874015748,"duration":"1.41"},{"name":"G#3","midi":56,"time":"469.41","velocity":0.33858267716535434,"duration":"0.02"},{"name":"C6","midi":84,"time":"469.41","velocity":0.3937007874015748,"duration":"0.09"},{"name":"A5","midi":81,"time":"469.42","velocity":0.4094488188976378,"duration":"0.02"},{"name":"C#6","midi":85,"time":"469.42","velocity":0.33070866141732286,"duration":"0.05"},{"name":"G#2","midi":44,"time":"469.43","velocity":0.4251968503937008,"duration":"0.02"},{"name":"C#4","midi":61,"time":"469.43","velocity":0.4094488188976378,"duration":"0.13"},{"name":"G6","midi":91,"time":"469.43","velocity":0.1968503937007874,"duration":"0.17"},{"name":"B6","midi":95,"time":"469.43","velocity":0.33858267716535434,"duration":"0.16"},{"name":"F#5","midi":78,"time":"469.45","velocity":0.36220472440944884,"duration":"0.09"},{"name":"D6","midi":86,"time":"469.45","velocity":0.2677165354330709,"duration":"0.06"},{"name":"C#1","midi":25,"time":"469.47","velocity":0.2283464566929134,"duration":"0.02"},{"name":"A5","midi":81,"time":"469.50","velocity":0.4094488188976378,"duration":"0.03"},{"name":"C#6","midi":85,"time":"469.50","velocity":0.4251968503937008,"duration":"0.06"},{"name":"C7","midi":96,"time":"469.50","velocity":0.3858267716535433,"duration":"0.76"},{"name":"G#3","midi":56,"time":"469.51","velocity":0.5511811023622047,"duration":"0.08"},{"name":"A#5","midi":82,"time":"469.51","velocity":0.28346456692913385,"duration":"0.05"},{"name":"G#2","midi":44,"time":"469.52","velocity":0.4330708661417323,"duration":"0.02"},{"name":"B5","midi":83,"time":"469.52","velocity":0.3700787401574803,"duration":"0.36"},{"name":"D6","midi":86,"time":"469.53","velocity":0.3464566929133858,"duration":"0.05"},{"name":"D#5","midi":75,"time":"469.55","velocity":0.3937007874015748,"duration":"0.05"},{"name":"F6","midi":89,"time":"469.55","velocity":0.2125984251968504,"duration":"0.07"},{"name":"D#3","midi":51,"time":"469.56","velocity":0.5039370078740157,"duration":"0.02"},{"name":"F4","midi":65,"time":"469.56","velocity":0.3464566929133858,"duration":"0.02"},{"name":"B4","midi":71,"time":"469.56","velocity":0.31496062992125984,"duration":"0.05"},{"name":"A5","midi":81,"time":"469.56","velocity":0.3543307086614173,"duration":"0.03"},{"name":"C6","midi":84,"time":"469.56","velocity":0.3858267716535433,"duration":"0.09"},{"name":"C#5","midi":73,"time":"469.57","velocity":0.3464566929133858,"duration":"0.09"},{"name":"F#5","midi":78,"time":"469.57","velocity":0.31496062992125984,"duration":"0.02"},{"name":"C#6","midi":85,"time":"469.57","velocity":0.3779527559055118,"duration":"0.05"},{"name":"D1","midi":26,"time":"469.58","velocity":0.2677165354330709,"duration":"0.02"},{"name":"D3","midi":50,"time":"469.58","velocity":0.3779527559055118,"duration":"0.02"},{"name":"G3","midi":55,"time":"469.59","velocity":0.4566929133858268,"duration":"0.02"},{"name":"C#4","midi":61,"time":"469.59","velocity":0.31496062992125984,"duration":"0.03"},{"name":"F4","midi":65,"time":"469.59","velocity":0.3543307086614173,"duration":"0.02"},{"name":"C3","midi":48,"time":"469.60","velocity":0.4645669291338583,"duration":"0.02"},{"name":"F#5","midi":78,"time":"469.60","velocity":0.3858267716535433,"duration":"0.08"},{"name":"D6","midi":86,"time":"469.60","velocity":0.2283464566929134,"duration":"0.03"},{"name":"C#1","midi":25,"time":"469.62","velocity":0.2283464566929134,"duration":"0.02"},{"name":"G#3","midi":56,"time":"469.62","velocity":0.4645669291338583,"duration":"0.02"},{"name":"G6","midi":91,"time":"469.62","velocity":0.2047244094488189,"duration":"0.09"},{"name":"A#6","midi":94,"time":"469.62","velocity":0.2992125984251969,"duration":"0.12"},{"name":"C#3","midi":49,"time":"469.63","velocity":0.5669291338582677,"duration":"0.16"},{"name":"A#4","midi":70,"time":"469.63","velocity":0.31496062992125984,"duration":"0.02"},{"name":"C1","midi":24,"time":"469.64","velocity":0.2283464566929134,"duration":"0.02"},{"name":"A#3","midi":58,"time":"469.65","velocity":0.41732283464566927,"duration":"0.03"},{"name":"A#5","midi":82,"time":"469.65","velocity":0.30708661417322836,"duration":"0.05"},{"name":"C#6","midi":85,"time":"469.65","velocity":0.4330708661417323,"duration":"0.07"},{"name":"D1","midi":26,"time":"469.66","velocity":0.2755905511811024,"duration":"0.02"},{"name":"D#5","midi":75,"time":"469.66","velocity":0.2283464566929134,"duration":"0.02"},{"name":"F6","midi":89,"time":"469.66","velocity":0.1732283464566929,"duration":"0.07"},{"name":"B4","midi":71,"time":"469.67","velocity":0.36220472440944884,"duration":"0.22"},{"name":"A3","midi":57,"time":"469.69","velocity":0.4015748031496063,"duration":"0.02"},{"name":"C#5","midi":73,"time":"469.69","velocity":0.30708661417322836,"duration":"0.13"},{"name":"F5","midi":77,"time":"469.69","velocity":0.28346456692913385,"duration":"0.02"},{"name":"D6","midi":86,"time":"469.69","velocity":0.33070866141732286,"duration":"0.06"},{"name":"D#5","midi":75,"time":"469.70","velocity":0.3228346456692913,"duration":"0.05"},{"name":"A4","midi":69,"time":"469.71","velocity":0.4645669291338583,"duration":"0.03"},{"name":"C6","midi":84,"time":"469.72","velocity":0.41732283464566927,"duration":"0.08"},{"name":"E6","midi":88,"time":"469.72","velocity":0.2677165354330709,"duration":"0.05"},{"name":"F#5","midi":78,"time":"469.73","velocity":0.33858267716535434,"duration":"0.03"},{"name":"C#6","midi":85,"time":"469.73","velocity":0.31496062992125984,"duration":"0.05"},{"name":"G6","midi":91,"time":"469.73","velocity":0.2283464566929134,"duration":"0.07"},{"name":"A3","midi":57,"time":"469.74","velocity":0.3937007874015748,"duration":"0.05"},{"name":"G#4","midi":68,"time":"469.74","velocity":0.4881889763779528,"duration":"0.03"},{"name":"E5","midi":76,"time":"469.74","velocity":0.2992125984251969,"duration":"0.02"},{"name":"A#6","midi":94,"time":"469.76","velocity":0.3937007874015748,"duration":"1.09"},{"name":"F5","midi":77,"time":"469.77","velocity":0.3543307086614173,"duration":"0.05"},{"name":"G4","midi":67,"time":"469.78","velocity":0.3700787401574803,"duration":"0.02"},{"name":"E5","midi":76,"time":"469.78","velocity":0.29133858267716534,"duration":"0.02"},{"name":"F#5","midi":78,"time":"469.78","velocity":0.3779527559055118,"duration":"0.16"},{"name":"D6","midi":86,"time":"469.78","velocity":0.2677165354330709,"duration":"0.09"},{"name":"C3","midi":48,"time":"469.79","velocity":0.5433070866141733,"duration":"0.01"},{"name":"E4","midi":64,"time":"469.79","velocity":0.3937007874015748,"duration":"0.12"},{"name":"C#3","midi":49,"time":"469.80","velocity":0.5433070866141733,"duration":"0.05"},{"name":"G#4","midi":68,"time":"469.80","velocity":0.6220472440944882,"duration":"0.43"},{"name":"D#5","midi":75,"time":"469.80","velocity":0.33070866141732286,"duration":"0.08"},{"name":"C#6","midi":85,"time":"469.80","velocity":0.41732283464566927,"duration":"0.08"},{"name":"G7","midi":103,"time":"469.80","velocity":0.2755905511811024,"duration":"0.21"},{"name":"E7","midi":100,"time":"469.81","velocity":0.29133858267716534,"duration":"1.76"},{"name":"C#1","midi":25,"time":"469.83","velocity":0.33858267716535434,"duration":"0.02"},{"name":"A3","midi":57,"time":"469.83","velocity":0.33070866141732286,"duration":"0.02"},{"name":"G6","midi":91,"time":"469.83","velocity":0.14960629921259844,"duration":"0.03"},{"name":"C3","midi":48,"time":"469.85","velocity":0.5433070866141733,"duration":"0.01"},{"name":"C#3","midi":49,"time":"469.86","velocity":0.5433070866141733,"duration":"0.02"},{"name":"A3","midi":57,"time":"469.86","velocity":0.25196850393700787,"duration":"0.02"},{"name":"A5","midi":81,"time":"469.86","velocity":0.3858267716535433,"duration":"0.08"},{"name":"A#5","midi":82,"time":"469.87","velocity":0.25196850393700787,"duration":"0.03"},{"name":"D5","midi":74,"time":"469.88","velocity":0.2755905511811024,"duration":"0.02"},{"name":"G5","midi":79,"time":"469.88","velocity":0.3464566929133858,"duration":"0.02"},{"name":"C6","midi":84,"time":"469.88","velocity":0.4094488188976378,"duration":"0.07"},{"name":"B5","midi":83,"time":"469.90","velocity":0.3700787401574803,"duration":"0.13"},{"name":"F6","midi":89,"time":"469.90","velocity":0.2283464566929134,"duration":"0.03"},{"name":"E2","midi":40,"time":"469.91","velocity":0.5669291338582677,"duration":"0.01"},{"name":"B4","midi":71,"time":"469.91","velocity":0.31496062992125984,"duration":"0.03"},{"name":"C#6","midi":85,"time":"469.91","velocity":0.33070866141732286,"duration":"0.02"},{"name":"F2","midi":41,"time":"469.92","velocity":0.5826771653543307,"duration":"0.01"},{"name":"E3","midi":52,"time":"469.93","velocity":0.5669291338582677,"duration":"0.01"},{"name":"D#3","midi":51,"time":"469.94","velocity":0.5039370078740157,"duration":"0.02"},{"name":"D#5","midi":75,"time":"469.94","velocity":0.25196850393700787,"duration":"0.03"},{"name":"F5","midi":77,"time":"469.94","velocity":0.33070866141732286,"duration":"0.02"},{"name":"G#2","midi":44,"time":"469.95","velocity":0.5118110236220472,"duration":"0.01"},{"name":"B4","midi":71,"time":"469.95","velocity":0.3464566929133858,"duration":"0.20"},{"name":"G5","midi":79,"time":"469.95","velocity":0.2992125984251969,"duration":"0.02"},{"name":"A5","midi":81,"time":"469.95","velocity":0.3937007874015748,"duration":"0.06"},{"name":"A#5","midi":82,"time":"469.95","velocity":0.25984251968503935,"duration":"0.02"},{"name":"C#6","midi":85,"time":"469.95","velocity":0.3858267716535433,"duration":"0.08"},{"name":"D6","midi":86,"time":"469.95","velocity":0.14173228346456693,"duration":"0.03"},{"name":"E6","midi":88,"time":"469.95","velocity":0.2440944881889764,"duration":"0.24"},{"name":"B1","midi":35,"time":"469.97","velocity":0.5196850393700787,"duration":"0.01"},{"name":"C#5","midi":73,"time":"469.97","velocity":0.2677165354330709,"duration":"0.05"},{"name":"E5","midi":76,"time":"469.97","velocity":0.2440944881889764,"duration":"0.03"},{"name":"F#5","midi":78,"time":"469.97","velocity":0.30708661417322836,"duration":"0.06"},{"name":"G#2","midi":44,"time":"469.99","velocity":0.49606299212598426,"duration":"0.05"},{"name":"D3","midi":50,"time":"470.00","velocity":0.44881889763779526,"duration":"0.03"},{"name":"E4","midi":64,"time":"470.00","velocity":0.3937007874015748,"duration":"0.07"},{"name":"F1","midi":29,"time":"470.02","velocity":0.3937007874015748,"duration":"0.02"},{"name":"C#4","midi":61,"time":"470.02","velocity":0.2440944881889764,"duration":"0.02"},{"name":"C#5","midi":73,"time":"470.02","velocity":0.25984251968503935,"duration":"0.05"},{"name":"D6","midi":86,"time":"470.02","velocity":0.25984251968503935,"duration":"0.02"},{"name":"D#5","midi":75,"time":"470.03","velocity":0.2677165354330709,"duration":"0.03"},{"name":"C6","midi":84,"time":"470.03","velocity":0.3937007874015748,"duration":"0.08"},{"name":"F6","midi":89,"time":"470.03","velocity":0.2047244094488189,"duration":"0.13"},{"name":"E1","midi":28,"time":"470.05","velocity":0.23622047244094488,"duration":"0.02"},{"name":"G#3","midi":56,"time":"470.05","velocity":0.5354330708661418,"duration":"0.23"},{"name":"A5","midi":81,"time":"470.05","velocity":0.2283464566929134,"duration":"0.02"},{"name":"C#6","midi":85,"time":"470.05","velocity":0.30708661417322836,"duration":"0.03"},{"name":"C#4","midi":61,"time":"470.06","velocity":0.31496062992125984,"duration":"0.03"},{"name":"A2","midi":45,"time":"470.07","velocity":0.5196850393700787,"duration":"0.01"},{"name":"F#5","midi":78,"time":"470.07","velocity":0.29133858267716534,"duration":"0.07"},{"name":"D6","midi":86,"time":"470.07","velocity":0.1968503937007874,"duration":"0.06"},{"name":"D#4","midi":63,"time":"470.08","velocity":0.30708661417322836,"duration":"0.02"},{"name":"B5","midi":83,"time":"470.08","velocity":0.36220472440944884,"duration":"0.09"},{"name":"E5","midi":76,"time":"470.09","velocity":0.23622047244094488,"duration":"0.03"},{"name":"G6","midi":91,"time":"470.09","velocity":0.1889763779527559,"duration":"0.03"},{"name":"A2","midi":45,"time":"470.10","velocity":0.5118110236220472,"duration":"0.01"},{"name":"E4","midi":64,"time":"470.10","velocity":0.3228346456692913,"duration":"0.02"},{"name":"C#5","midi":73,"time":"470.10","velocity":0.31496062992125984,"duration":"0.17"},{"name":"G#2","midi":44,"time":"470.12","velocity":0.5118110236220472,"duration":"0.05"},{"name":"C#6","midi":85,"time":"470.12","velocity":0.41732283464566927,"duration":"0.07"},{"name":"D#5","midi":75,"time":"470.13","velocity":0.25196850393700787,"duration":"0.02"},{"name":"F5","midi":77,"time":"470.13","velocity":0.23622047244094488,"duration":"0.02"},{"name":"G6","midi":91,"time":"470.14","velocity":0.15748031496062992,"duration":"0.03"},{"name":"D#4","midi":63,"time":"470.15","velocity":0.2992125984251969,"duration":"0.08"},{"name":"E5","midi":76,"time":"470.15","velocity":0.28346456692913385,"duration":"0.03"},{"name":"F#5","midi":78,"time":"470.15","velocity":0.2283464566929134,"duration":"0.02"},{"name":"D6","midi":86,"time":"470.16","velocity":0.28346456692913385,"duration":"0.05"},{"name":"C#3","midi":49,"time":"470.17","velocity":0.5039370078740157,"duration":"0.03"},{"name":"B4","midi":71,"time":"470.17","velocity":0.2125984251968504,"duration":"0.03"},{"name":"D#5","midi":75,"time":"470.17","velocity":0.3779527559055118,"duration":"0.13"},{"name":"F#5","midi":78,"time":"470.19","velocity":0.3228346456692913,"duration":"0.07"},{"name":"A#5","midi":82,"time":"470.19","velocity":0.2204724409448819,"duration":"0.03"},{"name":"C6","midi":84,"time":"470.19","velocity":0.36220472440944884,"duration":"0.08"},{"name":"G6","midi":91,"time":"470.19","velocity":0.2440944881889764,"duration":"0.13"},{"name":"A6","midi":93,"time":"470.19","velocity":0.2125984251968504,"duration":"0.20"},{"name":"E5","midi":76,"time":"470.21","velocity":0.23622047244094488,"duration":"0.02"},{"name":"C#6","midi":85,"time":"470.21","velocity":0.4330708661417323,"duration":"0.14"},{"name":"E6","midi":88,"time":"470.21","velocity":0.2755905511811024,"duration":"0.07"},{"name":"G#2","midi":44,"time":"470.23","velocity":0.5354330708661418,"duration":"0.02"},{"name":"D4","midi":62,"time":"470.23","velocity":0.2755905511811024,"duration":"0.02"},{"name":"F4","midi":65,"time":"470.23","velocity":0.29133858267716534,"duration":"0.02"},{"name":"B5","midi":83,"time":"470.24","velocity":0.2755905511811024,"duration":"0.07"},{"name":"F6","midi":89,"time":"470.24","velocity":0.16535433070866143,"duration":"0.10"},{"name":"A2","midi":45,"time":"470.26","velocity":0.5433070866141733,"duration":"0.02"},{"name":"E4","midi":64,"time":"470.26","velocity":0.28346456692913385,"duration":"0.03"},{"name":"D6","midi":86,"time":"470.26","velocity":0.36220472440944884,"duration":"0.12"},{"name":"C5","midi":72,"time":"470.27","velocity":0.3543307086614173,"duration":"0.03"},{"name":"F5","midi":77,"time":"470.27","velocity":0.28346456692913385,"duration":"0.03"},{"name":"F#5","midi":78,"time":"470.27","velocity":0.41732283464566927,"duration":"0.29"},{"name":"G#5","midi":80,"time":"470.27","velocity":0.6535433070866141,"duration":"0.58"},{"name":"C7","midi":96,"time":"470.27","velocity":0.3543307086614173,"duration":"1.49"},{"name":"C#2","midi":37,"time":"470.28","velocity":0.5826771653543307,"duration":"0.01"},{"name":"D#3","midi":51,"time":"470.28","velocity":0.5590551181102362,"duration":"0.01"},{"name":"A3","midi":57,"time":"470.28","velocity":0.5748031496062992,"duration":"0.01"},{"name":"E2","midi":40,"time":"470.29","velocity":0.5905511811023622,"duration":"0.01"},{"name":"D3","midi":50,"time":"470.29","velocity":0.5669291338582677,"duration":"0.03"},{"name":"G#3","midi":56,"time":"470.29","velocity":0.5354330708661418,"duration":"0.07"},{"name":"D#4","midi":63,"time":"470.29","velocity":0.3858267716535433,"duration":"0.02"},{"name":"A4","midi":69,"time":"470.29","velocity":0.3858267716535433,"duration":"0.03"},{"name":"E6","midi":88,"time":"470.29","velocity":0.23622047244094488,"duration":"0.05"},{"name":"C#5","midi":73,"time":"470.30","velocity":0.25984251968503935,"duration":"0.12"},{"name":"G1","midi":31,"time":"470.31","velocity":0.5511811023622047,"duration":"0.01"},{"name":"E4","midi":64,"time":"470.31","velocity":0.41732283464566927,"duration":"0.07"},{"name":"D#5","midi":75,"time":"470.31","velocity":0.36220472440944884,"duration":"0.14"},{"name":"G7","midi":103,"time":"470.31","velocity":0.16535433070866143,"duration":"0.07"},{"name":"E1","midi":28,"time":"470.33","velocity":0.5748031496062992,"duration":"0.02"},{"name":"C#4","midi":61,"time":"470.33","velocity":0.2992125984251969,"duration":"0.05"},{"name":"B4","midi":71,"time":"470.33","velocity":0.3464566929133858,"duration":"0.15"},{"name":"F5","midi":77,"time":"470.33","velocity":0.30708661417322836,"duration":"0.02"},{"name":"G6","midi":91,"time":"470.34","velocity":0.14173228346456693,"duration":"0.06"},{"name":"C3","midi":48,"time":"470.35","velocity":0.5118110236220472,"duration":"0.01"},{"name":"A#5","midi":82,"time":"470.35","velocity":0.23622047244094488,"duration":"0.02"},{"name":"C6","midi":84,"time":"470.35","velocity":0.31496062992125984,"duration":"0.05"},{"name":"G#3","midi":56,"time":"470.37","velocity":0.4330708661417323,"duration":"0.05"},{"name":"D7","midi":98,"time":"470.37","velocity":0.2440944881889764,"duration":"0.13"},{"name":"C3","midi":48,"time":"470.38","velocity":0.5196850393700787,"duration":"0.01"},{"name":"C#4","midi":61,"time":"470.38","velocity":0.3464566929133858,"duration":"0.02"},{"name":"F#4","midi":66,"time":"470.38","velocity":0.4094488188976378,"duration":"0.02"},{"name":"E6","midi":88,"time":"470.38","velocity":0.29133858267716534,"duration":"0.14"},{"name":"G#4","midi":68,"time":"470.40","velocity":0.5511811023622047,"duration":"0.53"},{"name":"D6","midi":86,"time":"470.40","velocity":0.1968503937007874,"duration":"0.03"},{"name":"G7","midi":103,"time":"470.40","velocity":0.1889763779527559,"duration":"0.15"},{"name":"D3","midi":50,"time":"470.41","velocity":0.5118110236220472,"duration":"0.01"},{"name":"D#4","midi":63,"time":"470.41","velocity":0.2992125984251969,"duration":"0.02"},{"name":"C#6","midi":85,"time":"470.41","velocity":0.3464566929133858,"duration":"0.07"},{"name":"G6","midi":91,"time":"470.41","velocity":0.2047244094488189,"duration":"0.07"},{"name":"C#1","midi":25,"time":"470.42","velocity":0.4015748031496063,"duration":"0.02"},{"name":"C3","midi":48,"time":"470.42","velocity":0.5118110236220472,"duration":"0.01"},{"name":"G#3","midi":56,"time":"470.43","velocity":0.4330708661417323,"duration":"0.03"},{"name":"C6","midi":84,"time":"470.43","velocity":0.2283464566929134,"duration":"0.03"},{"name":"A6","midi":93,"time":"470.43","velocity":0.2204724409448819,"duration":"0.14"},{"name":"C3","midi":48,"time":"470.44","velocity":0.5118110236220472,"duration":"0.01"},{"name":"C#4","midi":61,"time":"470.44","velocity":0.3937007874015748,"duration":"0.02"},{"name":"D5","midi":74,"time":"470.45","velocity":0.1968503937007874,"duration":"0.05"},{"name":"D3","midi":50,"time":"470.47","velocity":0.5275590551181102,"duration":"0.01"},{"name":"A#5","midi":82,"time":"470.47","velocity":0.25196850393700787,"duration":"0.02"},{"name":"F2","midi":41,"time":"470.48","velocity":0.6141732283464567,"duration":"0.02"},{"name":"A#3","midi":58,"time":"470.48","velocity":0.3779527559055118,"duration":"0.02"},{"name":"D#4","midi":63,"time":"470.48","velocity":0.3543307086614173,"duration":"0.02"},{"name":"C6","midi":84,"time":"470.49","velocity":0.33070866141732286,"duration":"0.10"},{"name":"F6","midi":89,"time":"470.49","velocity":0.14960629921259844,"duration":"0.08"},{"name":"G#1","midi":32,"time":"470.50","velocity":0.5433070866141733,"duration":"0.01"},{"name":"C3","midi":48,"time":"470.50","velocity":0.5354330708661418,"duration":"0.01"},{"name":"G#3","midi":56,"time":"470.50","velocity":0.4094488188976378,"duration":"0.09"},{"name":"C#4","midi":61,"time":"470.50","velocity":0.36220472440944884,"duration":"0.02"},{"name":"F#4","midi":66,"time":"470.50","velocity":0.4409448818897638,"duration":"0.07"},{"name":"D#5","midi":75,"time":"470.50","velocity":0.2047244094488189,"duration":"0.03"},{"name":"F1","midi":29,"time":"470.51","velocity":0.5748031496062992,"duration":"0.01"},{"name":"D7","midi":98,"time":"470.51","velocity":0.29133858267716534,"duration":"0.33"},{"name":"E1","midi":28,"time":"470.52","velocity":0.5590551181102362,"duration":"0.01"},{"name":"B4","midi":71,"time":"470.52","velocity":0.2283464566929134,"duration":"0.03"},{"name":"G6","midi":91,"time":"470.53","velocity":0.1968503937007874,"duration":"0.09"},{"name":"D4","midi":62,"time":"470.55","velocity":0.3464566929133858,"duration":"0.02"},{"name":"D#5","midi":75,"time":"470.55","velocity":0.2755905511811024,"duration":"0.03"},{"name":"B5","midi":83,"time":"470.55","velocity":0.3464566929133858,"duration":"0.08"},{"name":"E6","midi":88,"time":"470.55","velocity":0.2125984251968504,"duration":"0.06"},{"name":"A#0","midi":22,"time":"470.56","velocity":0.3700787401574803,"duration":"0.02"},{"name":"G2","midi":43,"time":"470.56","velocity":0.5275590551181102,"duration":"0.01"},{"name":"F5","midi":77,"time":"470.56","velocity":0.2283464566929134,"duration":"0.05"},{"name":"G#2","midi":44,"time":"470.57","velocity":0.5118110236220472,"duration":"0.01"},{"name":"B4","midi":71,"time":"470.57","velocity":0.29133858267716534,"duration":"0.06"},{"name":"A#5","midi":82,"time":"470.57","velocity":0.25196850393700787,"duration":"0.09"},{"name":"D5","midi":74,"time":"470.58","velocity":0.16535433070866143,"duration":"0.03"},{"name":"C#6","midi":85,"time":"470.58","velocity":0.29133858267716534,"duration":"0.06"},{"name":"D6","midi":86,"time":"470.58","velocity":0.28346456692913385,"duration":"0.08"},{"name":"G#2","midi":44,"time":"470.59","velocity":0.5039370078740157,"duration":"0.02"},{"name":"C#4","midi":61,"time":"470.59","velocity":0.3464566929133858,"duration":"0.02"},{"name":"F#5","midi":78,"time":"470.59","velocity":0.3464566929133858,"duration":"0.13"},{"name":"D#5","midi":75,"time":"470.60","velocity":0.33858267716535434,"duration":"0.17"},{"name":"E6","midi":88,"time":"470.62","velocity":0.2440944881889764,"duration":"0.02"},{"name":"C#4","midi":61,"time":"470.63","velocity":0.2992125984251969,"duration":"0.02"},{"name":"G#3","midi":56,"time":"470.64","velocity":0.47244094488188976,"duration":"0.02"},{"name":"B4","midi":71,"time":"470.64","velocity":0.25196850393700787,"duration":"0.02"},{"name":"C6","midi":84,"time":"470.64","velocity":0.2992125984251969,"duration":"0.09"},{"name":"F6","midi":89,"time":"470.64","velocity":0.3700787401574803,"duration":"0.62"},{"name":"A#1","midi":34,"time":"470.65","velocity":0.5118110236220472,"duration":"0.01"},{"name":"C#5","midi":73,"time":"470.65","velocity":0.28346456692913385,"duration":"0.03"},{"name":"A6","midi":93,"time":"470.65","velocity":0.33858267716535434,"duration":"0.51"},{"name":"E2","midi":40,"time":"470.66","velocity":0.5826771653543307,"duration":"0.01"},{"name":"A5","midi":81,"time":"470.66","velocity":0.3858267716535433,"duration":"0.02"},{"name":"B5","midi":83,"time":"470.66","velocity":0.3858267716535433,"duration":"0.27"},{"name":"E6","midi":88,"time":"470.66","velocity":0.4409448818897638,"duration":"0.17"},{"name":"G6","midi":91,"time":"470.66","velocity":0.2125984251968504,"duration":"0.03"},{"name":"F#2","midi":42,"time":"470.67","velocity":0.5905511811023622,"duration":"0.01"},{"name":"G2","midi":43,"time":"470.69","velocity":0.5196850393700787,"duration":"0.01"},{"name":"D6","midi":86,"time":"470.69","velocity":0.33858267716535434,"duration":"0.13"},{"name":"G3","midi":55,"time":"470.70","velocity":0.3700787401574803,"duration":"0.02"},{"name":"G#2","midi":44,"time":"470.71","velocity":0.5196850393700787,"duration":"0.01"},{"name":"F4","midi":65,"time":"470.71","velocity":0.33070866141732286,"duration":"0.02"},{"name":"C#5","midi":73,"time":"470.71","velocity":0.31496062992125984,"duration":"0.06"},{"name":"F5","midi":77,"time":"470.71","velocity":0.3464566929133858,"duration":"0.10"},{"name":"G7","midi":103,"time":"470.71","velocity":0.14173228346456693,"duration":"0.12"},{"name":"C2","midi":36,"time":"470.72","velocity":0.47244094488188976,"duration":"0.02"},{"name":"B2","midi":47,"time":"470.72","velocity":0.5354330708661418,"duration":"0.01"},{"name":"G#3","midi":56,"time":"470.72","velocity":0.5039370078740157,"duration":"0.13"},{"name":"E4","midi":64,"time":"470.73","velocity":0.2755905511811024,"duration":"0.02"},{"name":"G6","midi":91,"time":"470.74","velocity":0.2677165354330709,"duration":"0.27"},{"name":"E4","midi":64,"time":"470.77","velocity":0.2992125984251969,"duration":"0.02"},{"name":"B4","midi":71,"time":"470.77","velocity":0.3700787401574803,"duration":"0.12"},{"name":"A5","midi":81,"time":"470.78","velocity":0.4645669291338583,"duration":"0.03"},{"name":"C6","midi":84,"time":"470.79","velocity":0.2283464566929134,"duration":"0.02"},{"name":"C#3","midi":49,"time":"470.80","velocity":0.4251968503937008,"duration":"0.02"},{"name":"E5","midi":76,"time":"470.80","velocity":0.3700787401574803,"duration":"0.06"},{"name":"E4","midi":64,"time":"470.81","velocity":0.29133858267716534,"duration":"0.03"},{"name":"C#5","midi":73,"time":"470.81","velocity":0.3543307086614173,"duration":"0.19"},{"name":"F#6","midi":90,"time":"470.81","velocity":0.4094488188976378,"duration":"0.45"},{"name":"A5","midi":81,"time":"470.83","velocity":0.5511811023622047,"duration":"0.06"},{"name":"F1","midi":29,"time":"470.84","velocity":0.4094488188976378,"duration":"0.05"},{"name":"C#3","midi":49,"time":"470.84","velocity":0.48031496062992124,"duration":"0.13"},{"name":"D6","midi":86,"time":"470.84","velocity":0.1968503937007874,"duration":"0.03"},{"name":"F#5","midi":78,"time":"470.85","velocity":0.3779527559055118,"duration":"0.13"},{"name":"D7","midi":98,"time":"470.85","velocity":0.2440944881889764,"duration":"0.22"},{"name":"G#3","midi":56,"time":"470.86","velocity":0.5196850393700787,"duration":"0.15"},{"name":"E6","midi":88,"time":"470.86","velocity":0.4015748031496063,"duration":"0.30"},{"name":"E4","midi":64,"time":"470.87","velocity":0.36220472440944884,"duration":"0.02"},{"name":"A#6","midi":94,"time":"470.87","velocity":0.4330708661417323,"duration":"0.70"},{"name":"F#4","midi":66,"time":"470.88","velocity":0.3464566929133858,"duration":"0.03"},{"name":"G#5","midi":80,"time":"470.88","velocity":0.5905511811023622,"duration":"0.17"},{"name":"D6","midi":86,"time":"470.88","velocity":0.25984251968503935,"duration":"0.13"},{"name":"A5","midi":81,"time":"470.90","velocity":0.5275590551181102,"duration":"0.09"},{"name":"C1","midi":24,"time":"470.91","velocity":0.2677165354330709,"duration":"0.02"},{"name":"B4","midi":71,"time":"470.92","velocity":0.2755905511811024,"duration":"0.08"},{"name":"D#5","midi":75,"time":"470.92","velocity":0.33070866141732286,"duration":"0.08"},{"name":"E4","midi":64,"time":"470.93","velocity":0.4330708661417323,"duration":"0.07"},{"name":"G#4","midi":68,"time":"470.94","velocity":0.5669291338582677,"duration":"0.38"},{"name":"B5","midi":83,"time":"470.94","velocity":0.33858267716535434,"duration":"0.12"},{"name":"D#1","midi":27,"time":"470.97","velocity":0.2992125984251969,"duration":"0.02"},{"name":"C6","midi":84,"time":"470.97","velocity":0.28346456692913385,"duration":"0.07"},{"name":"C1","midi":24,"time":"470.99","velocity":0.25984251968503935,"duration":"0.03"},{"name":"G#2","midi":44,"time":"470.99","velocity":0.4330708661417323,"duration":"0.02"},{"name":"E5","midi":76,"time":"470.99","velocity":0.4330708661417323,"duration":"0.05"},{"name":"C#4","midi":61,"time":"471.00","velocity":0.4409448818897638,"duration":"0.02"},{"name":"F#4","midi":66,"time":"471.00","velocity":0.4251968503937008,"duration":"0.02"},{"name":"B4","midi":71,"time":"471.01","velocity":0.44881889763779526,"duration":"0.02"},{"name":"G#2","midi":44,"time":"471.02","velocity":0.5196850393700787,"duration":"0.01"},{"name":"G6","midi":91,"time":"471.02","velocity":0.25984251968503935,"duration":"0.05"},{"name":"B2","midi":47,"time":"471.03","velocity":0.5118110236220472,"duration":"0.01"},{"name":"E4","midi":64,"time":"471.03","velocity":0.33070866141732286,"duration":"0.02"},{"name":"C5","midi":72,"time":"471.03","velocity":0.36220472440944884,"duration":"0.02"},{"name":"D#5","midi":75,"time":"471.03","velocity":0.4094488188976378,"duration":"0.03"},{"name":"F5","midi":77,"time":"471.03","velocity":0.30708661417322836,"duration":"0.02"},{"name":"A5","midi":81,"time":"471.03","velocity":0.41732283464566927,"duration":"0.03"},{"name":"C3","midi":48,"time":"471.05","velocity":0.47244094488188976,"duration":"0.05"},{"name":"G#3","midi":56,"time":"471.05","velocity":0.3700787401574803,"duration":"0.02"},{"name":"F#5","midi":78,"time":"471.05","velocity":0.3464566929133858,"duration":"0.03"},{"name":"A#5","midi":82,"time":"471.05","velocity":0.2755905511811024,"duration":"0.03"},{"name":"C#5","midi":73,"time":"471.06","velocity":0.2677165354330709,"duration":"0.02"},{"name":"B5","midi":83,"time":"471.07","velocity":0.30708661417322836,"duration":"0.10"},{"name":"A#3","midi":58,"time":"471.08","velocity":0.3543307086614173,"duration":"0.02"},{"name":"F#4","midi":66,"time":"471.08","velocity":0.3858267716535433,"duration":"0.02"},{"name":"F5","midi":77,"time":"471.08","velocity":0.2283464566929134,"duration":"0.02"},{"name":"D6","midi":86,"time":"471.08","velocity":0.15748031496062992,"duration":"0.03"},{"name":"D7","midi":98,"time":"471.08","velocity":0.33070866141732286,"duration":"1.24"},{"name":"C5","midi":72,"time":"471.09","velocity":0.3464566929133858,"duration":"0.03"},{"name":"D#5","midi":75,"time":"471.09","velocity":0.31496062992125984,"duration":"0.07"},{"name":"E3","midi":52,"time":"471.10","velocity":0.3858267716535433,"duration":"0.02"},{"name":"F#5","midi":78,"time":"471.10","velocity":0.31496062992125984,"duration":"0.10"},{"name":"G6","midi":91,"time":"471.10","velocity":0.33858267716535434,"duration":"0.06"},{"name":"G#2","midi":44,"time":"471.12","velocity":0.5039370078740157,"duration":"0.02"},{"name":"A#3","midi":58,"time":"471.12","velocity":0.33858267716535434,"duration":"0.02"},{"name":"E5","midi":76,"time":"471.12","velocity":0.3228346456692913,"duration":"0.03"},{"name":"A5","midi":81,"time":"471.12","velocity":0.3779527559055118,"duration":"0.02"},{"name":"B4","midi":71,"time":"471.13","velocity":0.3228346456692913,"duration":"0.12"},{"name":"A#5","midi":82,"time":"471.13","velocity":0.2677165354330709,"duration":"0.02"},{"name":"D6","midi":86,"time":"471.13","velocity":0.25984251968503935,"duration":"0.14"},{"name":"B2","midi":47,"time":"471.14","velocity":0.5118110236220472,"duration":"0.01"},{"name":"C#6","midi":85,"time":"471.14","velocity":0.25196850393700787,"duration":"0.12"},{"name":"C#5","midi":73,"time":"471.15","velocity":0.2677165354330709,"duration":"0.05"},{"name":"C3","midi":48,"time":"471.16","velocity":0.4645669291338583,"duration":"0.02"},{"name":"D#4","midi":63,"time":"471.16","velocity":0.3858267716535433,"duration":"0.08"},{"name":"F#4","midi":66,"time":"471.16","velocity":0.36220472440944884,"duration":"0.02"},{"name":"G#5","midi":80,"time":"471.17","velocity":0.6062992125984252,"duration":"0.31"},{"name":"E6","midi":88,"time":"471.17","velocity":0.30708661417322836,"duration":"0.06"},{"name":"G6","midi":91,"time":"471.17","velocity":0.14960629921259844,"duration":"0.03"},{"name":"A6","midi":93,"time":"471.17","velocity":0.25984251968503935,"duration":"0.27"},{"name":"G7","midi":103,"time":"471.17","velocity":0.1968503937007874,"duration":"0.27"},{"name":"B5","midi":83,"time":"471.19","velocity":0.41732283464566927,"duration":"0.56"},{"name":"C#5","midi":73,"time":"471.21","velocity":0.2677165354330709,"duration":"0.05"},{"name":"C3","midi":48,"time":"471.22","velocity":0.5511811023622047,"duration":"0.01"},{"name":"G6","midi":91,"time":"471.22","velocity":0.25196850393700787,"duration":"0.07"},{"name":"B2","midi":47,"time":"471.23","velocity":0.48031496062992124,"duration":"0.02"},{"name":"E5","midi":76,"time":"471.23","velocity":0.30708661417322836,"duration":"0.07"},{"name":"F5","midi":77,"time":"471.23","velocity":0.2283464566929134,"duration":"0.02"},{"name":"A3","midi":57,"time":"471.24","velocity":0.3543307086614173,"duration":"0.03"},{"name":"E4","midi":64,"time":"471.24","velocity":0.4015748031496063,"duration":"0.08"},{"name":"C5","midi":72,"time":"471.24","velocity":0.2283464566929134,"duration":"0.05"},{"name":"E6","midi":88,"time":"471.24","velocity":0.3858267716535433,"duration":"0.49"},{"name":"D3","midi":50,"time":"471.26","velocity":0.41732283464566927,"duration":"0.02"},{"name":"C#4","midi":61,"time":"471.26","velocity":0.33070866141732286,"duration":"0.03"},{"name":"C#6","midi":85,"time":"471.27","velocity":0.16535433070866143,"duration":"0.03"},{"name":"F6","midi":89,"time":"471.27","velocity":0.30708661417322836,"duration":"0.19"},{"name":"G#2","midi":44,"time":"471.28","velocity":0.5590551181102362,"duration":"0.02"},{"name":"F#6","midi":90,"time":"471.28","velocity":0.4566929133858268,"duration":"0.10"},{"name":"B4","midi":71,"time":"471.29","velocity":0.2125984251968504,"duration":"0.03"},{"name":"D#5","midi":75,"time":"471.29","velocity":0.36220472440944884,"duration":"0.10"},{"name":"A5","midi":81,"time":"471.29","velocity":0.2440944881889764,"duration":"0.02"},{"name":"C#4","midi":61,"time":"471.30","velocity":0.23622047244094488,"duration":"0.02"},{"name":"G6","midi":91,"time":"471.30","velocity":0.30708661417322836,"duration":"0.15"},{"name":"C3","midi":48,"time":"471.31","velocity":0.5433070866141733,"duration":"0.01"},{"name":"C#6","midi":85,"time":"471.31","velocity":0.36220472440944884,"duration":"0.07"},{"name":"A4","midi":69,"time":"471.33","velocity":0.33858267716535434,"duration":"0.02"},{"name":"E4","midi":64,"time":"471.34","velocity":0.4251968503937008,"duration":"0.07"},{"name":"G#4","midi":68,"time":"471.35","velocity":0.4566929133858268,"duration":"0.13"},{"name":"C#5","midi":73,"time":"471.35","velocity":0.23622047244094488,"duration":"0.02"},{"name":"C#3","midi":49,"time":"471.36","velocity":0.5354330708661418,"duration":"0.03"},{"name":"A3","midi":57,"time":"471.36","velocity":0.33858267716535434,"duration":"0.02"},{"name":"F#5","midi":78,"time":"471.37","velocity":0.33070866141732286,"duration":"0.06"},{"name":"D6","midi":86,"time":"471.37","velocity":0.2992125984251969,"duration":"0.22"},{"name":"G#3","midi":56,"time":"471.38","velocity":0.48031496062992124,"duration":"0.02"},{"name":"C#5","midi":73,"time":"471.38","velocity":0.2992125984251969,"duration":"0.15"},{"name":"D3","midi":50,"time":"471.40","velocity":0.6062992125984252,"duration":"0.01"},{"name":"F#6","midi":90,"time":"471.40","velocity":0.49606299212598426,"duration":"1.06"},{"name":"F2","midi":41,"time":"471.41","velocity":0.5590551181102362,"duration":"0.01"},{"name":"D#3","midi":51,"time":"471.41","velocity":0.5669291338582677,"duration":"0.02"},{"name":"F4","midi":65,"time":"471.41","velocity":0.4094488188976378,"duration":"0.03"},{"name":"D#5","midi":75,"time":"471.41","velocity":0.36220472440944884,"duration":"0.03"},{"name":"A#5","midi":82,"time":"471.41","velocity":0.2755905511811024,"duration":"0.05"},{"name":"D2","midi":38,"time":"471.42","velocity":0.5275590551181102,"duration":"0.01"},{"name":"B4","midi":71,"time":"471.42","velocity":0.3543307086614173,"duration":"0.21"},{"name":"B2","midi":47,"time":"471.43","velocity":0.5354330708661418,"duration":"0.01"},{"name":"A2","midi":45,"time":"471.44","velocity":0.49606299212598426,"duration":"0.02"},{"name":"G#3","midi":56,"time":"471.44","velocity":0.5275590551181102,"duration":"0.08"},{"name":"E5","midi":76,"time":"471.44","velocity":0.5118110236220472,"duration":"0.35"},{"name":"F#5","midi":78,"time":"471.44","velocity":0.3228346456692913,"duration":"0.05"},{"name":"C6","midi":84,"time":"471.44","velocity":0.2125984251968504,"duration":"0.05"},{"name":"C#4","midi":61,"time":"471.45","velocity":0.36220472440944884,"duration":"0.07"},{"name":"A6","midi":93,"time":"471.45","velocity":0.2677165354330709,"duration":"0.07"},{"name":"E2","midi":40,"time":"471.47","velocity":0.5196850393700787,"duration":"0.02"},{"name":"F#4","midi":66,"time":"471.47","velocity":0.3858267716535433,"duration":"0.05"},{"name":"A#5","midi":82,"time":"471.48","velocity":0.2440944881889764,"duration":"0.03"},{"name":"F6","midi":89,"time":"471.48","velocity":0.2755905511811024,"duration":"0.08"},{"name":"G6","midi":91,"time":"471.48","velocity":0.3464566929133858,"duration":"0.14"},{"name":"G#5","midi":80,"time":"471.50","velocity":0.6141732283464567,"duration":"0.23"},{"name":"E4","midi":64,"time":"471.51","velocity":0.4015748031496063,"duration":"0.03"},{"name":"A4","midi":69,"time":"471.52","velocity":0.3543307086614173,"duration":"0.02"},{"name":"G5","midi":79,"time":"471.52","velocity":0.31496062992125984,"duration":"0.03"},{"name":"D#6","midi":87,"time":"471.52","velocity":0.4015748031496063,"duration":"0.49"},{"name":"D#1","midi":27,"time":"471.53","velocity":0.33858267716535434,"duration":"0.02"},{"name":"G#3","midi":56,"time":"471.53","velocity":0.5433070866141733,"duration":"0.06"},{"name":"C#4","midi":61,"time":"471.53","velocity":0.3700787401574803,"duration":"0.05"},{"name":"F#5","midi":78,"time":"471.53","velocity":0.25196850393700787,"duration":"0.02"},{"name":"A6","midi":93,"time":"471.53","velocity":0.2283464566929134,"duration":"0.09"},{"name":"G#4","midi":68,"time":"471.55","velocity":0.5433070866141733,"duration":"0.22"},{"name":"C#6","midi":85,"time":"471.55","velocity":0.33858267716535434,"duration":"0.26"},{"name":"A2","midi":45,"time":"471.56","velocity":0.4251968503937008,"duration":"0.02"},{"name":"E4","midi":64,"time":"471.56","velocity":0.30708661417322836,"duration":"0.02"},{"name":"A#6","midi":94,"time":"471.58","velocity":0.3228346456692913,"duration":"0.21"},{"name":"C#7","midi":97,"time":"471.58","velocity":0.44881889763779526,"duration":"1.88"},{"name":"D1","midi":26,"time":"471.59","velocity":0.33858267716535434,"duration":"0.02"},{"name":"D#3","midi":51,"time":"471.59","velocity":0.48031496062992124,"duration":"0.02"},{"name":"F6","midi":89,"time":"471.59","velocity":0.2047244094488189,"duration":"0.09"},{"name":"G#3","midi":56,"time":"471.60","velocity":0.4330708661417323,"duration":"0.02"},{"name":"C#4","midi":61,"time":"471.60","velocity":0.36220472440944884,"duration":"0.07"},{"name":"A3","midi":57,"time":"471.63","velocity":0.4251968503937008,"duration":"0.08"},{"name":"G6","midi":91,"time":"471.63","velocity":0.3700787401574803,"duration":"0.23"},{"name":"C3","midi":48,"time":"471.64","velocity":0.48031496062992124,"duration":"0.02"},{"name":"A6","midi":93,"time":"471.64","velocity":0.2440944881889764,"duration":"0.06"},{"name":"E4","midi":64,"time":"471.65","velocity":0.3779527559055118,"duration":"0.06"},{"name":"A2","midi":45,"time":"471.66","velocity":0.4881889763779528,"duration":"0.02"},{"name":"D6","midi":86,"time":"471.69","velocity":0.25984251968503935,"duration":"0.05"},{"name":"F#5","midi":78,"time":"471.70","velocity":0.25984251968503935,"duration":"0.07"},{"name":"D3","midi":50,"time":"471.71","velocity":0.5196850393700787,"duration":"0.01"},{"name":"C#4","midi":61,"time":"471.71","velocity":0.3858267716535433,"duration":"0.02"},{"name":"B4","midi":71,"time":"471.71","velocity":0.2283464566929134,"duration":"0.02"},{"name":"E4","midi":64,"time":"471.72","velocity":0.31496062992125984,"duration":"0.03"},{"name":"G5","midi":79,"time":"471.72","velocity":0.3858267716535433,"duration":"0.02"},{"name":"F6","midi":89,"time":"471.72","velocity":0.16535433070866143,"duration":"0.03"},{"name":"A6","midi":93,"time":"471.72","velocity":0.31496062992125984,"duration":"0.22"},{"name":"E1","midi":28,"time":"471.73","velocity":0.4015748031496063,"duration":"0.03"},{"name":"E3","midi":52,"time":"471.74","velocity":0.4566929133858268,"duration":"0.02"},{"name":"C6","midi":84,"time":"471.74","velocity":0.29133858267716534,"duration":"0.02"},{"name":"C3","midi":48,"time":"471.77","velocity":0.5748031496062992,"duration":"0.01"},{"name":"D4","midi":62,"time":"471.77","velocity":0.4251968503937008,"duration":"0.03"},{"name":"F4","midi":65,"time":"471.77","velocity":0.4251968503937008,"duration":"0.02"},{"name":"A4","midi":69,"time":"471.77","velocity":0.47244094488188976,"duration":"0.05"},{"name":"G5","midi":79,"time":"471.77","velocity":0.4015748031496063,"duration":"0.05"},{"name":"B5","midi":83,"time":"471.77","velocity":0.36220472440944884,"duration":"0.05"},{"name":"A2","midi":45,"time":"471.78","velocity":0.6456692913385826,"duration":"0.01"},{"name":"D#5","midi":75,"time":"471.78","velocity":0.33070866141732286,"duration":"0.03"},{"name":"G#5","midi":80,"time":"471.78","velocity":0.49606299212598426,"duration":"0.06"},{"name":"C6","midi":84,"time":"471.78","velocity":0.2677165354330709,"duration":"0.07"},{"name":"C7","midi":96,"time":"471.78","velocity":0.2992125984251969,"duration":"0.13"},{"name":"F#2","midi":42,"time":"471.79","velocity":0.6062992125984252,"duration":"0.02"},{"name":"C5","midi":72,"time":"471.79","velocity":0.2755905511811024,"duration":"0.05"},{"name":"D6","midi":86,"time":"471.79","velocity":0.2283464566929134,"duration":"0.06"},{"name":"F6","midi":89,"time":"471.79","velocity":0.2440944881889764,"duration":"0.02"},{"name":"F4","midi":65,"time":"471.80","velocity":0.5354330708661418,"duration":"0.08"},{"name":"C#5","midi":73,"time":"471.80","velocity":0.25984251968503935,"duration":"0.03"},{"name":"E5","midi":76,"time":"471.80","velocity":0.4409448818897638,"duration":"0.20"},{"name":"A#6","midi":94,"time":"471.80","velocity":0.3464566929133858,"duration":"0.42"},{"name":"C#3","midi":49,"time":"471.81","velocity":0.5196850393700787,"duration":"0.02"},{"name":"F#5","midi":78,"time":"471.81","velocity":0.3779527559055118,"duration":"0.02"},{"name":"C#6","midi":85,"time":"471.81","velocity":0.4881889763779528,"duration":"1.69"},{"name":"A3","midi":57,"time":"471.83","velocity":0.3228346456692913,"duration":"0.02"},{"name":"A4","midi":69,"time":"471.83","velocity":0.48031496062992124,"duration":"0.07"},{"name":"B5","midi":83,"time":"471.83","velocity":0.2677165354330709,"duration":"0.19"},{"name":"D3","midi":50,"time":"471.84","velocity":0.5433070866141733,"duration":"0.07"},{"name":"D5","midi":74,"time":"471.84","velocity":0.30708661417322836,"duration":"0.02"},{"name":"G5","midi":79,"time":"471.84","velocity":0.49606299212598426,"duration":"0.02"},{"name":"A3","midi":57,"time":"471.86","velocity":0.3779527559055118,"duration":"0.02"},{"name":"C#5","midi":73,"time":"471.86","velocity":0.2125984251968504,"duration":"0.03"},{"name":"F#5","midi":78,"time":"471.86","velocity":0.4881889763779528,"duration":"0.02"},{"name":"D6","midi":86,"time":"471.86","velocity":0.2677165354330709,"duration":"0.07"},{"name":"F#4","midi":66,"time":"471.87","velocity":0.5905511811023622,"duration":"0.23"},{"name":"G5","midi":79,"time":"471.87","velocity":0.44881889763779526,"duration":"0.02"},{"name":"F6","midi":89,"time":"471.87","velocity":0.3228346456692913,"duration":"0.03"},{"name":"G1","midi":31,"time":"471.88","velocity":0.30708661417322836,"duration":"0.03"},{"name":"A3","midi":57,"time":"471.90","velocity":0.3937007874015748,"duration":"0.05"},{"name":"F#5","midi":78,"time":"471.90","velocity":0.6220472440944882,"duration":"1.06"},{"name":"A#4","midi":70,"time":"471.91","velocity":0.2283464566929134,"duration":"0.02"},{"name":"C#5","midi":73,"time":"471.91","velocity":0.2992125984251969,"duration":"0.02"},{"name":"D3","midi":50,"time":"471.92","velocity":0.5118110236220472,"duration":"0.01"},{"name":"G#5","midi":80,"time":"471.92","velocity":0.33070866141732286,"duration":"0.02"},{"name":"F6","midi":89,"time":"471.92","velocity":0.4015748031496063,"duration":"0.65"},{"name":"C7","midi":96,"time":"471.92","velocity":0.2440944881889764,"duration":"0.17"},{"name":"D#3","midi":51,"time":"471.93","velocity":0.5118110236220472,"duration":"0.01"},{"name":"B4","midi":71,"time":"471.93","velocity":0.2204724409448819,"duration":"0.06"},{"name":"C#5","midi":73,"time":"471.94","velocity":0.29133858267716534,"duration":"0.05"},{"name":"A2","midi":45,"time":"471.95","velocity":0.3858267716535433,"duration":"0.02"},{"name":"G#5","midi":80,"time":"471.95","velocity":0.33858267716535434,"duration":"0.06"},{"name":"D#3","midi":51,"time":"471.97","velocity":0.5039370078740157,"duration":"0.02"},{"name":"A4","midi":69,"time":"471.99","velocity":0.4015748031496063,"duration":"0.03"},{"name":"C5","midi":72,"time":"472.00","velocity":0.30708661417322836,"duration":"0.03"},{"name":"G6","midi":91,"time":"472.00","velocity":0.3543307086614173,"duration":"0.05"},{"name":"A#1","midi":34,"time":"472.01","velocity":0.36220472440944884,"duration":"0.02"},{"name":"E5","midi":76,"time":"472.01","velocity":0.30708661417322836,"duration":"0.12"},{"name":"E6","midi":88,"time":"472.01","velocity":0.3464566929133858,"duration":"0.07"},{"name":"D3","midi":50,"time":"472.02","velocity":0.47244094488188976,"duration":"0.02"},{"name":"A3","midi":57,"time":"472.02","velocity":0.3937007874015748,"duration":"0.07"},{"name":"C#5","midi":73,"time":"472.02","velocity":0.31496062992125984,"duration":"0.05"},{"name":"B5","midi":83,"time":"472.02","velocity":0.28346456692913385,"duration":"0.07"},{"name":"G#5","midi":80,"time":"472.03","velocity":0.3700787401574803,"duration":"0.07"},{"name":"D#6","midi":87,"time":"472.03","velocity":0.2755905511811024,"duration":"0.22"},{"name":"C#3","midi":49,"time":"472.05","velocity":0.48031496062992124,"duration":"0.02"},{"name":"B4","midi":71,"time":"472.06","velocity":0.30708661417322836,"duration":"0.02"},{"name":"G6","midi":91,"time":"472.06","velocity":0.18110236220472442,"duration":"0.03"},{"name":"D3","midi":50,"time":"472.07","velocity":0.5354330708661418,"duration":"0.02"},{"name":"C#5","midi":73,"time":"472.08","velocity":0.1968503937007874,"duration":"0.03"},{"name":"A5","midi":81,"time":"472.08","velocity":0.33070866141732286,"duration":"0.09"},{"name":"C6","midi":84,"time":"472.08","velocity":0.2755905511811024,"duration":"0.07"},{"name":"D#3","midi":51,"time":"472.09","velocity":0.5511811023622047,"duration":"0.01"},{"name":"A4","midi":69,"time":"472.09","velocity":0.4015748031496063,"duration":"0.12"},{"name":"D6","midi":86,"time":"472.09","velocity":0.28346456692913385,"duration":"0.06"},{"name":"D3","midi":50,"time":"472.10","velocity":0.5590551181102362,"duration":"0.10"},{"name":"A3","midi":57,"time":"472.10","velocity":0.4409448818897638,"duration":"0.03"},{"name":"D5","midi":74,"time":"472.10","velocity":0.3779527559055118,"duration":"0.14"},{"name":"G6","midi":91,"time":"472.10","velocity":0.31496062992125984,"duration":"0.06"},{"name":"C7","midi":96,"time":"472.10","velocity":0.29133858267716534,"duration":"0.40"},{"name":"F#4","midi":66,"time":"472.12","velocity":0.5275590551181102,"duration":"0.02"},{"name":"G#5","midi":80,"time":"472.12","velocity":0.4094488188976378,"duration":"0.35"},{"name":"C#4","midi":61,"time":"472.13","velocity":0.29133858267716534,"duration":"0.02"},{"name":"G#3","midi":56,"time":"472.14","velocity":0.36220472440944884,"duration":"0.02"},{"name":"E5","midi":76,"time":"472.14","velocity":0.23622047244094488,"duration":"0.03"},{"name":"E6","midi":88,"time":"472.14","velocity":0.3937007874015748,"duration":"0.10"},{"name":"D#7","midi":99,"time":"472.14","velocity":0.3464566929133858,"duration":"0.90"},{"name":"F4","midi":65,"time":"472.15","velocity":0.4881889763779528,"duration":"0.02"},{"name":"B5","midi":83,"time":"472.15","velocity":0.2992125984251969,"duration":"0.03"},{"name":"A3","midi":57,"time":"472.16","velocity":0.31496062992125984,"duration":"0.02"},{"name":"F#4","midi":66,"time":"472.17","velocity":0.6141732283464567,"duration":"0.08"},{"name":"C6","midi":84,"time":"472.17","velocity":0.31496062992125984,"duration":"0.08"},{"name":"G6","midi":91,"time":"472.17","velocity":0.4015748031496063,"duration":"0.16"},{"name":"A#5","midi":82,"time":"472.20","velocity":0.1968503937007874,"duration":"0.06"},{"name":"C#3","midi":49,"time":"472.22","velocity":0.5118110236220472,"duration":"0.01"},{"name":"D4","midi":62,"time":"472.22","velocity":0.31496062992125984,"duration":"0.05"},{"name":"A4","midi":69,"time":"472.22","velocity":0.30708661417322836,"duration":"0.03"},{"name":"D3","midi":50,"time":"472.23","velocity":0.5354330708661418,"duration":"0.08"},{"name":"C#5","midi":73,"time":"472.23","velocity":0.25984251968503935,"duration":"0.03"},{"name":"A#6","midi":94,"time":"472.23","velocity":0.2440944881889764,"duration":"0.05"},{"name":"F#2","midi":42,"time":"472.24","velocity":0.4094488188976378,"duration":"0.02"},{"name":"E5","midi":76,"time":"472.24","velocity":0.30708661417322836,"duration":"0.03"},{"name":"B5","midi":83,"time":"472.24","velocity":0.2047244094488189,"duration":"0.03"},{"name":"E6","midi":88,"time":"472.26","velocity":0.3700787401574803,"duration":"0.06"},{"name":"A5","midi":81,"time":"472.27","velocity":0.2992125984251969,"duration":"0.05"},{"name":"A#5","midi":82,"time":"472.27","velocity":0.25984251968503935,"duration":"0.02"},{"name":"D#6","midi":87,"time":"472.27","velocity":0.2677165354330709,"duration":"0.10"},{"name":"F#2","midi":42,"time":"472.28","velocity":0.3543307086614173,"duration":"0.02"},{"name":"F#4","midi":66,"time":"472.28","velocity":0.6220472440944882,"duration":"1.00"},{"name":"C6","midi":84,"time":"472.28","velocity":0.3779527559055118,"duration":"0.12"},{"name":"C#5","midi":73,"time":"472.29","velocity":0.2992125984251969,"duration":"0.15"},{"name":"A#6","midi":94,"time":"472.29","velocity":0.3937007874015748,"duration":"0.83"},{"name":"A3","midi":57,"time":"472.30","velocity":0.47244094488188976,"duration":"0.13"},{"name":"D#5","midi":75,"time":"472.31","velocity":0.25196850393700787,"duration":"0.02"},{"name":"A#5","midi":82,"time":"472.31","velocity":0.2283464566929134,"duration":"0.07"},{"name":"A6","midi":93,"time":"472.31","velocity":0.4251968503937008,"duration":"1.17"},{"name":"E6","midi":88,"time":"472.33","velocity":0.4094488188976378,"duration":"0.17"},{"name":"F2","midi":41,"time":"472.34","velocity":0.3937007874015748,"duration":"0.02"},{"name":"D6","midi":86,"time":"472.34","velocity":0.23622047244094488,"duration":"0.08"},{"name":"D7","midi":98,"time":"472.34","velocity":0.25984251968503935,"duration":"0.28"},{"name":"D3","midi":50,"time":"472.35","velocity":0.5039370078740157,"duration":"0.02"},{"name":"E5","midi":76,"time":"472.35","velocity":0.2755905511811024,"duration":"0.02"},{"name":"G6","midi":91,"time":"472.35","velocity":0.2677165354330709,"duration":"0.07"},{"name":"C#3","midi":49,"time":"472.37","velocity":0.5275590551181102,"duration":"0.01"},{"name":"D3","midi":50,"time":"472.38","velocity":0.5905511811023622,"duration":"0.21"},{"name":"B5","midi":83,"time":"472.38","velocity":0.25984251968503935,"duration":"0.03"},{"name":"D#6","midi":87,"time":"472.38","velocity":0.14173228346456693,"duration":"0.03"},{"name":"A#5","midi":82,"time":"472.40","velocity":0.1732283464566929,"duration":"0.03"},{"name":"C6","midi":84,"time":"472.41","velocity":0.2677165354330709,"duration":"0.20"},{"name":"A#3","midi":58,"time":"472.43","velocity":0.3228346456692913,"duration":"0.02"},{"name":"D#6","midi":87,"time":"472.43","velocity":0.2677165354330709,"duration":"0.03"},{"name":"G6","midi":91,"time":"472.43","velocity":0.3464566929133858,"duration":"0.20"},{"name":"D#6","midi":87,"time":"472.48","velocity":0.18110236220472442,"duration":"0.06"},{"name":"F2","midi":41,"time":"472.49","velocity":0.33858267716535434,"duration":"0.02"},{"name":"G#6","midi":92,"time":"472.49","velocity":0.2992125984251969,"duration":"0.44"},{"name":"C#5","midi":73,"time":"472.50","velocity":0.3543307086614173,"duration":"0.07"},{"name":"E5","midi":76,"time":"472.51","velocity":0.3700787401574803,"duration":"0.10"},{"name":"A#5","midi":82,"time":"472.51","velocity":0.2440944881889764,"duration":"0.05"},{"name":"C7","midi":96,"time":"472.51","velocity":0.3543307086614173,"duration":"0.29"},{"name":"C#4","midi":61,"time":"472.52","velocity":0.5039370078740157,"duration":"0.02"},{"name":"E6","midi":88,"time":"472.52","velocity":0.4566929133858268,"duration":"0.88"},{"name":"D6","midi":86,"time":"472.53","velocity":0.25196850393700787,"duration":"0.03"},{"name":"D#5","midi":75,"time":"472.55","velocity":0.3543307086614173,"duration":"0.03"},{"name":"G#3","midi":56,"time":"472.56","velocity":0.4566929133858268,"duration":"0.02"},{"name":"A#4","midi":70,"time":"472.56","velocity":0.4409448818897638,"duration":"0.02"},{"name":"C5","midi":72,"time":"472.56","velocity":0.31496062992125984,"duration":"0.03"},{"name":"A5","midi":81,"time":"472.56","velocity":0.4094488188976378,"duration":"0.22"},{"name":"C#4","midi":61,"time":"472.57","velocity":0.4015748031496063,"duration":"0.05"},{"name":"A4","midi":69,"time":"472.58","velocity":0.4094488188976378,"duration":"0.05"},{"name":"B5","midi":83,"time":"472.58","velocity":0.2440944881889764,"duration":"0.05"},{"name":"F6","midi":89,"time":"472.58","velocity":0.2440944881889764,"duration":"0.05"},{"name":"D5","midi":74,"time":"472.59","velocity":0.31496062992125984,"duration":"0.02"},{"name":"G#5","midi":80,"time":"472.59","velocity":0.2125984251968504,"duration":"0.03"},{"name":"C5","midi":72,"time":"472.60","velocity":0.3858267716535433,"duration":"0.03"},{"name":"A#5","midi":82,"time":"472.60","velocity":0.2283464566929134,"duration":"0.02"},{"name":"D3","midi":50,"time":"472.63","velocity":0.4881889763779528,"duration":"0.02"},{"name":"A3","midi":57,"time":"472.63","velocity":0.4566929133858268,"duration":"0.05"},{"name":"C#5","midi":73,"time":"472.64","velocity":0.33070866141732286,"duration":"0.02"},{"name":"D6","midi":86,"time":"472.64","velocity":0.12598425196850394,"duration":"0.08"},{"name":"D7","midi":98,"time":"472.64","velocity":0.23622047244094488,"duration":"0.09"},{"name":"D4","midi":62,"time":"472.65","velocity":0.25984251968503935,"duration":"0.02"},{"name":"D#5","midi":75,"time":"472.65","velocity":0.23622047244094488,"duration":"0.05"},{"name":"G#5","midi":80,"time":"472.65","velocity":0.30708661417322836,"duration":"0.10"},{"name":"F6","midi":89,"time":"472.65","velocity":0.2283464566929134,"duration":"0.05"},{"name":"G6","midi":91,"time":"472.65","velocity":0.31496062992125984,"duration":"0.14"},{"name":"D3","midi":50,"time":"472.66","velocity":0.5039370078740157,"duration":"0.05"},{"name":"A#4","midi":70,"time":"472.66","velocity":0.30708661417322836,"duration":"0.02"},{"name":"F2","midi":41,"time":"472.67","velocity":0.3543307086614173,"duration":"0.02"},{"name":"B5","midi":83,"time":"472.69","velocity":0.29133858267716534,"duration":"0.03"},{"name":"A4","midi":69,"time":"472.70","velocity":0.48031496062992124,"duration":"0.26"},{"name":"C#5","midi":73,"time":"472.71","velocity":0.3543307086614173,"duration":"0.19"},{"name":"D3","midi":50,"time":"472.72","velocity":0.5118110236220472,"duration":"0.03"},{"name":"C6","midi":84,"time":"472.72","velocity":0.2125984251968504,"duration":"0.07"},{"name":"D6","midi":86,"time":"472.73","velocity":0.1968503937007874,"duration":"0.05"},{"name":"F6","midi":89,"time":"472.73","velocity":0.23622047244094488,"duration":"0.03"},{"name":"A3","midi":57,"time":"472.74","velocity":0.4330708661417323,"duration":"0.06"},{"name":"D7","midi":98,"time":"472.74","velocity":0.2047244094488189,"duration":"0.06"},{"name":"B6","midi":95,"time":"472.76","velocity":0.3858267716535433,"duration":"0.92"},{"name":"C#3","midi":49,"time":"472.77","velocity":0.5196850393700787,"duration":"0.01"},{"name":"E5","midi":76,"time":"472.77","velocity":0.2755905511811024,"duration":"0.05"},{"name":"D3","midi":50,"time":"472.78","velocity":0.5590551181102362,"duration":"0.12"},{"name":"G#5","midi":80,"time":"472.78","velocity":0.2992125984251969,"duration":"0.06"},{"name":"B5","midi":83,"time":"472.79","velocity":0.4330708661417323,"duration":"0.58"},{"name":"D#6","midi":87,"time":"472.80","velocity":0.2204724409448819,"duration":"0.06"},{"name":"F6","midi":89,"time":"472.80","velocity":0.25196850393700787,"duration":"0.05"},{"name":"G6","midi":91,"time":"472.81","velocity":0.31496062992125984,"duration":"0.15"},{"name":"C7","midi":96,"time":"472.81","velocity":0.1889763779527559,"duration":"0.05"},{"name":"D#4","midi":63,"time":"472.83","velocity":0.2440944881889764,"duration":"0.02"},{"name":"A3","midi":57,"time":"472.84","velocity":0.3543307086614173,"duration":"0.02"},{"name":"D7","midi":98,"time":"472.84","velocity":0.29133858267716534,"duration":"1.06"},{"name":"E5","midi":76,"time":"472.85","velocity":0.33070866141732286,"duration":"0.07"},{"name":"C#4","midi":61,"time":"472.86","velocity":0.41732283464566927,"duration":"0.05"},{"name":"F6","midi":89,"time":"472.86","velocity":0.30708661417322836,"duration":"0.09"},{"name":"C6","midi":84,"time":"472.87","velocity":0.1968503937007874,"duration":"0.06"},{"name":"D#6","midi":87,"time":"472.87","velocity":0.25196850393700787,"duration":"0.03"},{"name":"C7","midi":96,"time":"472.87","velocity":0.33858267716535434,"duration":"1.22"},{"name":"D6","midi":86,"time":"472.88","velocity":0.15748031496062992,"duration":"0.05"},{"name":"D5","midi":74,"time":"472.90","velocity":0.30708661417322836,"duration":"0.03"},{"name":"G#3","midi":56,"time":"472.91","velocity":0.4330708661417323,"duration":"0.02"},{"name":"G#5","midi":80,"time":"472.91","velocity":0.23622047244094488,"duration":"0.02"},{"name":"A2","midi":45,"time":"472.92","velocity":0.5196850393700787,"duration":"0.01"},{"name":"C#4","midi":61,"time":"472.92","velocity":0.3858267716535433,"duration":"0.03"},{"name":"D#6","midi":87,"time":"472.92","velocity":0.1968503937007874,"duration":"0.05"},{"name":"C3","midi":48,"time":"472.93","velocity":0.5275590551181102,"duration":"0.01"},{"name":"A3","midi":57,"time":"472.93","velocity":0.49606299212598426,"duration":"0.23"},{"name":"A#5","midi":82,"time":"472.93","velocity":0.25196850393700787,"duration":"0.03"},{"name":"G#4","midi":68,"time":"472.94","velocity":0.2755905511811024,"duration":"0.02"},{"name":"E5","midi":76,"time":"472.94","velocity":0.4881889763779528,"duration":"0.12"},{"name":"G#6","midi":92,"time":"472.94","velocity":0.3779527559055118,"duration":"0.93"},{"name":"A#2","midi":46,"time":"472.95","velocity":0.4094488188976378,"duration":"0.02"},{"name":"D5","midi":74,"time":"472.95","velocity":0.28346456692913385,"duration":"0.02"},{"name":"F5","midi":77,"time":"472.95","velocity":0.4645669291338583,"duration":"0.02"},{"name":"G1","midi":31,"time":"472.97","velocity":0.2283464566929134,"duration":"0.02"},{"name":"C3","midi":48,"time":"472.98","velocity":0.4330708661417323,"duration":"0.02"},{"name":"C5","midi":72,"time":"472.98","velocity":0.2440944881889764,"duration":"0.02"},{"name":"D6","midi":86,"time":"472.98","velocity":0.1732283464566929,"duration":"0.06"},{"name":"F6","midi":89,"time":"472.98","velocity":0.2440944881889764,"duration":"0.05"},{"name":"G6","midi":91,"time":"472.99","velocity":0.2992125984251969,"duration":"0.10"},{"name":"D4","midi":62,"time":"473.00","velocity":0.3543307086614173,"duration":"0.10"},{"name":"D#6","midi":87,"time":"473.00","velocity":0.25196850393700787,"duration":"0.07"},{"name":"D3","midi":50,"time":"473.01","velocity":0.5039370078740157,"duration":"0.06"},{"name":"G#5","midi":80,"time":"473.03","velocity":0.2204724409448819,"duration":"0.12"},{"name":"F6","midi":89,"time":"473.03","velocity":0.33070866141732286,"duration":"0.14"},{"name":"D6","midi":86,"time":"473.05","velocity":0.15748031496062992,"duration":"0.05"},{"name":"D#7","midi":99,"time":"473.05","velocity":0.3464566929133858,"duration":"1.94"},{"name":"D3","midi":50,"time":"473.08","velocity":0.5275590551181102,"duration":"0.10"},{"name":"D5","midi":74,"time":"473.12","velocity":0.23622047244094488,"duration":"0.02"},{"name":"E5","midi":76,"time":"473.12","velocity":0.44881889763779526,"duration":"0.14"},{"name":"D#6","midi":87,"time":"473.12","velocity":0.1732283464566929,"duration":"0.03"},{"name":"G6","midi":91,"time":"473.13","velocity":0.33858267716535434,"duration":"0.07"},{"name":"A#6","midi":94,"time":"473.13","velocity":0.3543307086614173,"duration":"0.21"},{"name":"C#5","midi":73,"time":"473.15","velocity":0.3464566929133858,"duration":"0.10"},{"name":"C#4","midi":61,"time":"473.19","velocity":0.30708661417322836,"duration":"0.02"},{"name":"D#6","midi":87,"time":"473.19","velocity":0.2283464566929134,"duration":"0.08"},{"name":"F6","midi":89,"time":"473.19","velocity":0.2755905511811024,"duration":"0.13"},{"name":"D3","midi":50,"time":"473.20","velocity":0.5039370078740157,"duration":"0.05"},{"name":"C5","midi":72,"time":"473.20","velocity":0.23622047244094488,"duration":"0.02"},{"name":"A3","midi":57,"time":"473.21","velocity":0.3700787401574803,"duration":"0.06"},{"name":"G6","midi":91,"time":"473.21","velocity":0.3228346456692913,"duration":"0.17"},{"name":"C#3","midi":49,"time":"473.24","velocity":0.5196850393700787,"duration":"0.02"},{"name":"D6","midi":86,"time":"473.24","velocity":0.14960629921259844,"duration":"0.03"},{"name":"A4","midi":69,"time":"473.26","velocity":0.3700787401574803,"duration":"0.02"},{"name":"C5","midi":72,"time":"473.26","velocity":0.3464566929133858,"duration":"0.08"},{"name":"F5","midi":77,"time":"473.26","velocity":0.5118110236220472,"duration":"0.02"},{"name":"G#5","midi":80,"time":"473.26","velocity":0.28346456692913385,"duration":"0.02"},{"name":"G2","midi":43,"time":"473.27","velocity":0.5196850393700787,"duration":"0.01"},{"name":"G5","midi":79,"time":"473.27","velocity":0.28346456692913385,"duration":"0.03"},{"name":"F2","midi":41,"time":"473.28","velocity":0.6535433070866141,"duration":"0.02"},{"name":"G#4","midi":68,"time":"473.28","velocity":0.2755905511811024,"duration":"0.02"},{"name":"F#5","midi":78,"time":"473.28","velocity":0.49606299212598426,"duration":"0.09"},{"name":"A#3","midi":58,"time":"473.29","velocity":0.36220472440944884,"duration":"0.02"},{"name":"E4","midi":64,"time":"473.29","velocity":0.3700787401574803,"duration":"0.02"},{"name":"D#5","midi":75,"time":"473.29","velocity":0.33070866141732286,"duration":"0.02"},{"name":"G#5","midi":80,"time":"473.29","velocity":0.30708661417322836,"duration":"0.05"},{"name":"A#5","midi":82,"time":"473.29","velocity":0.29133858267716534,"duration":"0.03"},{"name":"D6","midi":86,"time":"473.29","velocity":0.1889763779527559,"duration":"0.07"},{"name":"G#2","midi":44,"time":"473.30","velocity":0.5354330708661418,"duration":"0.01"},{"name":"D3","midi":50,"time":"473.30","velocity":0.5590551181102362,"duration":"0.01"},{"name":"F#4","midi":66,"time":"473.30","velocity":0.5826771653543307,"duration":"0.47"},{"name":"A4","midi":69,"time":"473.30","velocity":0.3858267716535433,"duration":"0.20"},{"name":"E1","midi":28,"time":"473.31","velocity":0.5511811023622047,"duration":"0.03"},{"name":"D#3","midi":51,"time":"473.31","velocity":0.5748031496062992,"duration":"0.02"},{"name":"A3","midi":57,"time":"473.31","velocity":0.4409448818897638,"duration":"0.08"},{"name":"E5","midi":76,"time":"473.31","velocity":0.4094488188976378,"duration":"0.09"},{"name":"F6","midi":89,"time":"473.33","velocity":0.2677165354330709,"duration":"0.09"},{"name":"D3","midi":50,"time":"473.34","velocity":0.5275590551181102,"duration":"0.01"},{"name":"C#5","midi":73,"time":"473.34","velocity":0.3228346456692913,"duration":"0.02"},{"name":"C6","midi":84,"time":"473.34","velocity":0.2125984251968504,"duration":"0.05"},{"name":"C#3","midi":49,"time":"473.35","velocity":0.5590551181102362,"duration":"0.01"},{"name":"A#6","midi":94,"time":"473.35","velocity":0.3464566929133858,"duration":"0.36"},{"name":"D3","midi":50,"time":"473.36","velocity":0.5984251968503937,"duration":"0.10"},{"name":"C5","midi":72,"time":"473.36","velocity":0.29133858267716534,"duration":"0.03"},{"name":"D5","midi":74,"time":"473.36","velocity":0.25984251968503935,"duration":"0.05"},{"name":"G#5","midi":80,"time":"473.38","velocity":0.25196850393700787,"duration":"0.02"},{"name":"B5","midi":83,"time":"473.38","velocity":0.2047244094488189,"duration":"0.03"},{"name":"C#5","midi":73,"time":"473.40","velocity":0.1968503937007874,"duration":"0.05"},{"name":"F5","midi":77,"time":"473.40","velocity":0.36220472440944884,"duration":"0.02"},{"name":"A3","midi":57,"time":"473.41","velocity":0.3700787401574803,"duration":"0.02"},{"name":"D#5","midi":75,"time":"473.41","velocity":0.1889763779527559,"duration":"0.03"},{"name":"D#4","midi":63,"time":"473.42","velocity":0.15748031496062992,"duration":"0.03"},{"name":"E5","midi":76,"time":"473.42","velocity":0.33858267716535434,"duration":"0.12"},{"name":"F#5","midi":78,"time":"473.42","velocity":0.5905511811023622,"duration":"0.06"},{"name":"C6","midi":84,"time":"473.42","velocity":0.29133858267716534,"duration":"0.14"},{"name":"E6","midi":88,"time":"473.42","velocity":0.3937007874015748,"duration":"0.23"},{"name":"G6","midi":91,"time":"473.42","velocity":0.33070866141732286,"duration":"0.14"},{"name":"A3","midi":57,"time":"473.44","velocity":0.49606299212598426,"duration":"0.13"},{"name":"D5","midi":74,"time":"473.44","velocity":0.2047244094488189,"duration":"0.03"},{"name":"A#5","midi":82,"time":"473.44","velocity":0.1889763779527559,"duration":"0.08"},{"name":"A#2","midi":46,"time":"473.48","velocity":0.3228346456692913,"duration":"0.02"},{"name":"C#4","midi":61,"time":"473.48","velocity":0.36220472440944884,"duration":"0.02"},{"name":"C5","midi":72,"time":"473.48","velocity":0.2047244094488189,"duration":"0.06"},{"name":"G5","midi":79,"time":"473.48","velocity":0.4251968503937008,"duration":"0.02"},{"name":"C#7","midi":97,"time":"473.48","velocity":0.5669291338582677,"duration":"16.23"},{"name":"A1","midi":33,"time":"473.49","velocity":0.3937007874015748,"duration":"0.02"},{"name":"D4","midi":62,"time":"473.50","velocity":0.4330708661417323,"duration":"0.14"},{"name":"F#5","midi":78,"time":"473.50","velocity":0.6377952755905512,"duration":"0.14"},{"name":"G#5","midi":80,"time":"473.50","velocity":0.13385826771653545,"duration":"0.03"},{"name":"D#6","midi":87,"time":"473.50","velocity":0.16535433070866143,"duration":"0.06"},{"name":"F6","midi":89,"time":"473.50","velocity":0.25196850393700787,"duration":"0.06"},{"name":"A6","midi":93,"time":"473.50","velocity":0.4645669291338583,"duration":"1.71"},{"name":"B5","midi":83,"time":"473.51","velocity":0.30708661417322836,"duration":"0.09"},{"name":"C#6","midi":85,"time":"473.51","velocity":0.4015748031496063,"duration":"0.15"},{"name":"D3","midi":50,"time":"473.52","velocity":0.4881889763779528,"duration":"0.06"},{"name":"G5","midi":79,"time":"473.52","velocity":0.2440944881889764,"duration":"0.02"},{"name":"D#5","midi":75,"time":"473.53","velocity":0.28346456692913385,"duration":"0.02"},{"name":"E5","midi":76,"time":"473.57","velocity":0.25196850393700787,"duration":"0.02"},{"name":"C6","midi":84,"time":"473.57","velocity":0.2755905511811024,"duration":"0.13"},{"name":"D#6","midi":87,"time":"473.57","velocity":0.2283464566929134,"duration":"0.03"},{"name":"F6","midi":89,"time":"473.57","velocity":0.2992125984251969,"duration":"0.06"},{"name":"G6","midi":91,"time":"473.57","velocity":0.3464566929133858,"duration":"0.10"},{"name":"C#3","midi":49,"time":"473.58","velocity":0.5118110236220472,"duration":"0.01"},{"name":"D3","midi":50,"time":"473.59","velocity":0.5196850393700787,"duration":"0.06"},{"name":"A3","midi":57,"time":"473.60","velocity":0.44881889763779526,"duration":"0.06"},{"name":"C#5","midi":73,"time":"473.60","velocity":0.23622047244094488,"duration":"0.06"},{"name":"A#5","midi":82,"time":"473.62","velocity":0.29133858267716534,"duration":"0.05"},{"name":"G#5","midi":80,"time":"473.64","velocity":0.29133858267716534,"duration":"0.03"},{"name":"D#6","midi":87,"time":"473.64","velocity":0.2204724409448819,"duration":"0.10"},{"name":"F6","midi":89,"time":"473.64","velocity":0.28346456692913385,"duration":"0.08"},{"name":"C3","midi":48,"time":"473.65","velocity":0.5433070866141733,"duration":"0.01"},{"name":"F2","midi":41,"time":"473.66","velocity":0.6377952755905512,"duration":"0.01"},{"name":"G#3","midi":56,"time":"473.66","velocity":0.5354330708661418,"duration":"0.02"},{"name":"C5","midi":72,"time":"473.66","velocity":0.2283464566929134,"duration":"0.02"},{"name":"B5","midi":83,"time":"473.66","velocity":0.28346456692913385,"duration":"0.14"},{"name":"D6","midi":86,"time":"473.66","velocity":0.1889763779527559,"duration":"0.15"},{"name":"G#2","midi":44,"time":"473.67","velocity":0.5984251968503937,"duration":"0.01"},{"name":"D4","midi":62,"time":"473.67","velocity":0.29133858267716534,"duration":"0.02"},{"name":"E5","midi":76,"time":"473.67","velocity":0.3228346456692913,"duration":"0.05"},{"name":"C#6","midi":85,"time":"473.67","velocity":0.41732283464566927,"duration":"0.16"},{"name":"D#3","midi":51,"time":"473.69","velocity":0.4881889763779528,"duration":"0.02"},{"name":"A3","midi":57,"time":"473.69","velocity":0.5275590551181102,"duration":"0.19"},{"name":"B4","midi":71,"time":"473.69","velocity":0.2992125984251969,"duration":"0.02"},{"name":"G#5","midi":80,"time":"473.69","velocity":0.29133858267716534,"duration":"0.05"},{"name":"G6","midi":91,"time":"473.69","velocity":0.2204724409448819,"duration":"0.07"},{"name":"E6","midi":88,"time":"473.70","velocity":0.47244094488188976,"duration":"1.07"},{"name":"B6","midi":95,"time":"473.70","velocity":0.36220472440944884,"duration":"0.30"},{"name":"D4","midi":62,"time":"473.71","velocity":0.4566929133858268,"duration":"0.22"},{"name":"C5","midi":72,"time":"473.71","velocity":0.25984251968503935,"duration":"0.02"},{"name":"B2","midi":47,"time":"473.72","velocity":0.5511811023622047,"duration":"0.01"},{"name":"F5","midi":77,"time":"473.72","velocity":0.4566929133858268,"duration":"0.02"},{"name":"A#5","midi":82,"time":"473.72","velocity":0.2204724409448819,"duration":"0.03"},{"name":"A#6","midi":94,"time":"473.72","velocity":0.2992125984251969,"duration":"0.07"},{"name":"A2","midi":45,"time":"473.73","velocity":0.5433070866141733,"duration":"0.02"},{"name":"C#5","midi":73,"time":"473.73","velocity":0.2755905511811024,"duration":"0.05"},{"name":"E5","midi":76,"time":"473.73","velocity":0.33070866141732286,"duration":"0.06"},{"name":"D3","midi":50,"time":"473.74","velocity":0.5039370078740157,"duration":"0.09"},{"name":"C5","midi":72,"time":"473.77","velocity":0.3464566929133858,"duration":"0.03"},{"name":"G6","midi":91,"time":"473.77","velocity":0.33858267716535434,"duration":"0.08"},{"name":"F#4","midi":66,"time":"473.78","velocity":0.4409448818897638,"duration":"0.09"},{"name":"G#5","midi":80,"time":"473.78","velocity":0.4015748031496063,"duration":"0.10"},{"name":"D#6","midi":87,"time":"473.78","velocity":0.2204724409448819,"duration":"0.03"},{"name":"C2","midi":36,"time":"473.79","velocity":0.4094488188976378,"duration":"0.02"},{"name":"C#5","midi":73,"time":"473.80","velocity":0.3543307086614173,"duration":"0.13"},{"name":"A#5","midi":82,"time":"473.80","velocity":0.2125984251968504,"duration":"0.03"},{"name":"A#6","midi":94,"time":"473.80","velocity":0.3543307086614173,"duration":"0.60"},{"name":"B4","midi":71,"time":"473.83","velocity":0.28346456692913385,"duration":"0.02"},{"name":"D#5","midi":75,"time":"473.83","velocity":0.2992125984251969,"duration":"0.02"},{"name":"B5","midi":83,"time":"473.84","velocity":0.2992125984251969,"duration":"0.09"},{"name":"D6","midi":86,"time":"473.84","velocity":0.16535433070866143,"duration":"0.03"},{"name":"D3","midi":50,"time":"473.85","velocity":0.5433070866141733,"duration":"0.05"},{"name":"D#6","midi":87,"time":"473.85","velocity":0.1968503937007874,"duration":"0.12"},{"name":"G1","midi":31,"time":"473.86","velocity":0.36220472440944884,"duration":"0.02"},{"name":"C6","midi":84,"time":"473.86","velocity":0.2283464566929134,"duration":"0.03"},{"name":"G6","midi":91,"time":"473.86","velocity":0.30708661417322836,"duration":"0.06"},{"name":"F4","midi":65,"time":"473.87","velocity":0.3543307086614173,"duration":"0.02"},{"name":"F6","midi":89,"time":"473.87","velocity":0.2440944881889764,"duration":"0.08"},{"name":"A3","midi":57,"time":"473.88","velocity":0.4409448818897638,"duration":"0.09"},{"name":"G#4","midi":68,"time":"473.88","velocity":0.3858267716535433,"duration":"0.02"},{"name":"G#6","midi":92,"time":"473.88","velocity":0.33858267716535434,"duration":"0.15"},{"name":"F#4","midi":66,"time":"473.90","velocity":0.6141732283464567,"duration":"1.70"},{"name":"D#5","midi":75,"time":"473.90","velocity":0.2677165354330709,"duration":"0.02"},{"name":"C#6","midi":85,"time":"473.90","velocity":0.4015748031496063,"duration":"0.14"},{"name":"D3","midi":50,"time":"473.91","velocity":0.5433070866141733,"duration":"0.06"},{"name":"C6","midi":84,"time":"473.91","velocity":0.15748031496062992,"duration":"0.05"},{"name":"D7","midi":98,"time":"473.91","velocity":0.36220472440944884,"duration":"0.60"},{"name":"G#4","midi":68,"time":"473.92","velocity":0.33858267716535434,"duration":"0.02"},{"name":"C#4","midi":61,"time":"473.93","velocity":0.33070866141732286,"duration":"0.03"},{"name":"A#5","midi":82,"time":"473.93","velocity":0.2992125984251969,"duration":"0.05"},{"name":"G6","midi":91,"time":"473.93","velocity":0.3228346456692913,"duration":"0.08"},{"name":"E5","midi":76,"time":"473.95","velocity":0.28346456692913385,"duration":"0.02"},{"name":"G#5","midi":80,"time":"473.95","velocity":0.28346456692913385,"duration":"0.03"},{"name":"F#1","midi":30,"time":"473.97","velocity":0.2440944881889764,"duration":"0.02"},{"name":"D#3","midi":51,"time":"473.97","velocity":0.5590551181102362,"duration":"0.01"},{"name":"D#5","midi":75,"time":"473.97","velocity":0.2992125984251969,"duration":"0.05"},{"name":"B5","midi":83,"time":"473.97","velocity":0.23622047244094488,"duration":"0.03"},{"name":"F6","midi":89,"time":"473.97","velocity":0.25984251968503935,"duration":"0.07"},{"name":"D3","midi":50,"time":"473.98","velocity":0.5196850393700787,"duration":"0.01"},{"name":"D#4","midi":63,"time":"473.98","velocity":0.3543307086614173,"duration":"0.02"},{"name":"C#5","midi":73,"time":"473.98","velocity":0.3937007874015748,"duration":"0.07"},{"name":"A3","midi":57,"time":"473.99","velocity":0.3779527559055118,"duration":"0.03"},{"name":"D3","midi":50,"time":"474.00","velocity":0.5354330708661418,"duration":"0.02"},{"name":"A#5","midi":82,"time":"474.00","velocity":0.3464566929133858,"duration":"0.07"},{"name":"C6","midi":84,"time":"474.00","velocity":0.2440944881889764,"duration":"0.09"},{"name":"E5","midi":76,"time":"474.01","velocity":0.4330708661417323,"duration":"0.06"},{"name":"B6","midi":95,"time":"474.01","velocity":0.3228346456692913,"duration":"0.16"},{"name":"C#4","midi":61,"time":"474.02","velocity":0.5196850393700787,"duration":"0.01"},{"name":"A4","midi":69,"time":"474.02","velocity":0.48031496062992124,"duration":"0.06"},{"name":"F5","midi":77,"time":"474.02","velocity":0.4094488188976378,"duration":"0.02"},{"name":"D6","midi":86,"time":"474.02","velocity":0.3543307086614173,"duration":"0.10"},{"name":"G#2","midi":44,"time":"474.03","velocity":0.5275590551181102,"duration":"0.01"},{"name":"C4","midi":60,"time":"474.03","velocity":0.4645669291338583,"duration":"0.02"},{"name":"G6","midi":91,"time":"474.03","velocity":0.28346456692913385,"duration":"0.05"},{"name":"B2","midi":47,"time":"474.05","velocity":0.5354330708661418,"duration":"0.01"},{"name":"D#5","midi":75,"time":"474.05","velocity":0.3779527559055118,"duration":"0.02"},{"name":"C#6","midi":85,"time":"474.05","velocity":0.4330708661417323,"duration":"0.38"},{"name":"G#6","midi":92,"time":"474.05","velocity":0.4330708661417323,"duration":"0.94"},{"name":"C3","midi":48,"time":"474.06","velocity":0.5039370078740157,"duration":"0.02"},{"name":"C#4","midi":61,"time":"474.06","velocity":0.41732283464566927,"duration":"0.02"},{"name":"D3","midi":50,"time":"474.07","velocity":0.4645669291338583,"duration":"0.03"},{"name":"B4","midi":71,"time":"474.07","velocity":0.29133858267716534,"duration":"0.02"},{"name":"G#5","midi":80,"time":"474.07","velocity":0.49606299212598426,"duration":"0.14"},{"name":"F6","midi":89,"time":"474.07","velocity":0.25196850393700787,"duration":"0.03"},{"name":"G#4","midi":68,"time":"474.08","velocity":0.3700787401574803,"duration":"0.02"},{"name":"E5","midi":76,"time":"474.08","velocity":0.30708661417322836,"duration":"0.03"},{"name":"C#4","midi":61,"time":"474.09","velocity":0.3543307086614173,"duration":"0.02"},{"name":"A5","midi":81,"time":"474.09","velocity":0.25984251968503935,"duration":"0.02"},{"name":"G6","midi":91,"time":"474.09","velocity":0.3700787401574803,"duration":"0.02"},{"name":"D5","midi":74,"time":"474.10","velocity":0.2992125984251969,"duration":"0.06"},{"name":"A#5","midi":82,"time":"474.10","velocity":0.2047244094488189,"duration":"0.03"},{"name":"D#6","midi":87,"time":"474.10","velocity":0.2125984251968504,"duration":"0.05"},{"name":"C7","midi":96,"time":"474.10","velocity":0.2204724409448819,"duration":"0.03"},{"name":"D3","midi":50,"time":"474.12","velocity":0.5590551181102362,"duration":"0.09"},{"name":"A4","midi":69,"time":"474.12","velocity":0.5275590551181102,"duration":"0.33"},{"name":"C6","midi":84,"time":"474.12","velocity":0.2992125984251969,"duration":"0.06"},{"name":"F6","midi":89,"time":"474.12","velocity":0.14173228346456693,"duration":"0.03"},{"name":"B1","midi":35,"time":"474.13","velocity":0.33070866141732286,"duration":"0.02"},{"name":"A3","midi":57,"time":"474.13","velocity":0.44881889763779526,"duration":"0.03"},{"name":"G6","midi":91,"time":"474.13","velocity":0.4015748031496063,"duration":"0.35"},{"name":"E5","midi":76,"time":"474.14","velocity":0.3937007874015748,"duration":"0.03"},{"name":"B5","midi":83,"time":"474.15","velocity":0.1889763779527559,"duration":"0.06"},{"name":"C5","midi":72,"time":"474.16","velocity":0.1968503937007874,"duration":"0.03"},{"name":"D#5","midi":75,"time":"474.16","velocity":0.2677165354330709,"duration":"0.02"},{"name":"C7","midi":96,"time":"474.16","velocity":0.3700787401574803,"duration":"0.10"},{"name":"A3","midi":57,"time":"474.17","velocity":0.4251968503937008,"duration":"0.12"},{"name":"C2","midi":36,"time":"474.19","velocity":0.3543307086614173,"duration":"0.02"},{"name":"E5","midi":76,"time":"474.19","velocity":0.4094488188976378,"duration":"0.12"},{"name":"C5","midi":72,"time":"474.21","velocity":0.23622047244094488,"duration":"0.03"},{"name":"B6","midi":95,"time":"474.21","velocity":0.1968503937007874,"duration":"0.05"},{"name":"D3","midi":50,"time":"474.22","velocity":0.5275590551181102,"duration":"0.03"},{"name":"B5","midi":83,"time":"474.22","velocity":0.28346456692913385,"duration":"0.05"},{"name":"F7","midi":101,"time":"474.23","velocity":0.3228346456692913,"duration":"2.00"},{"name":"C#3","midi":49,"time":"474.26","velocity":0.47244094488188976,"duration":"0.02"},{"name":"B6","midi":95,"time":"474.27","velocity":0.41732283464566927,"duration":"1.33"},{"name":"D3","midi":50,"time":"474.28","velocity":0.5669291338582677,"duration":"0.17"},{"name":"B5","midi":83,"time":"474.28","velocity":0.2677165354330709,"duration":"0.14"},{"name":"C7","midi":96,"time":"474.28","velocity":0.3543307086614173,"duration":"0.45"},{"name":"G5","midi":79,"time":"474.29","velocity":0.2283464566929134,"duration":"0.02"},{"name":"A3","midi":57,"time":"474.30","velocity":0.4251968503937008,"duration":"0.13"},{"name":"C#4","midi":61,"time":"474.30","velocity":0.33858267716535434,"duration":"0.02"},{"name":"D5","midi":74,"time":"474.30","velocity":0.30708661417322836,"duration":"0.08"},{"name":"C6","midi":84,"time":"474.31","velocity":0.2204724409448819,"duration":"0.06"},{"name":"C5","midi":72,"time":"474.33","velocity":0.2204724409448819,"duration":"0.03"},{"name":"E5","midi":76,"time":"474.33","velocity":0.2677165354330709,"duration":"0.03"},{"name":"G#5","midi":80,"time":"474.33","velocity":0.5196850393700787,"duration":"0.03"},{"name":"F6","midi":89,"time":"474.35","velocity":0.30708661417322836,"duration":"0.09"},{"name":"B4","midi":71,"time":"474.36","velocity":0.28346456692913385,"duration":"0.03"},{"name":"F5","midi":77,"time":"474.36","velocity":0.25196850393700787,"duration":"0.02"},{"name":"A5","midi":81,"time":"474.36","velocity":0.5590551181102362,"duration":"0.28"},{"name":"G#5","midi":80,"time":"474.38","velocity":0.28346456692913385,"duration":"0.03"},{"name":"C6","midi":84,"time":"474.41","velocity":0.2677165354330709,"duration":"0.02"},{"name":"D6","midi":86,"time":"474.42","velocity":0.2283464566929134,"duration":"0.06"},{"name":"A#6","midi":94,"time":"474.42","velocity":0.25984251968503935,"duration":"0.20"},{"name":"D#5","midi":75,"time":"474.43","velocity":0.25984251968503935,"duration":"0.03"},{"name":"F5","midi":77,"time":"474.43","velocity":0.33858267716535434,"duration":"0.02"},{"name":"B5","midi":83,"time":"474.43","velocity":0.4094488188976378,"duration":"0.08"},{"name":"G1","midi":31,"time":"474.44","velocity":0.29133858267716534,"duration":"0.03"},{"name":"A#4","midi":70,"time":"474.44","velocity":0.3700787401574803,"duration":"0.02"},{"name":"C#6","midi":85,"time":"474.44","velocity":0.33858267716535434,"duration":"0.09"},{"name":"D4","midi":62,"time":"474.45","velocity":0.3700787401574803,"duration":"0.03"},{"name":"A4","midi":69,"time":"474.45","velocity":0.4409448818897638,"duration":"0.08"},{"name":"E5","midi":76,"time":"474.45","velocity":0.44881889763779526,"duration":"0.17"},{"name":"D#6","midi":87,"time":"474.45","velocity":0.28346456692913385,"duration":"0.12"},{"name":"A3","midi":57,"time":"474.49","velocity":0.33070866141732286,"duration":"0.02"},{"name":"G#5","midi":80,"time":"474.49","velocity":0.4409448818897638,"duration":"0.02"},{"name":"D6","midi":86,"time":"474.49","velocity":0.1889763779527559,"duration":"0.03"},{"name":"F6","midi":89,"time":"474.49","velocity":0.2204724409448819,"duration":"0.05"},{"name":"G6","midi":91,"time":"474.49","velocity":0.2755905511811024,"duration":"0.02"},{"name":"D#3","midi":51,"time":"474.51","velocity":0.4094488188976378,"duration":"0.06"},{"name":"G5","midi":79,"time":"474.51","velocity":0.25984251968503935,"duration":"0.08"},{"name":"B5","midi":83,"time":"474.52","velocity":0.4409448818897638,"duration":"0.16"},{"name":"G6","midi":91,"time":"474.52","velocity":0.4015748031496063,"duration":"0.45"},{"name":"D7","midi":98,"time":"474.52","velocity":0.29133858267716534,"duration":"0.24"},{"name":"D5","midi":74,"time":"474.53","velocity":0.2992125984251969,"duration":"0.02"},{"name":"F#6","midi":90,"time":"474.53","velocity":0.2283464566929134,"duration":"0.03"},{"name":"A4","midi":69,"time":"474.55","velocity":0.4330708661417323,"duration":"0.13"},{"name":"C#6","midi":85,"time":"474.55","velocity":0.4251968503937008,"duration":"0.80"},{"name":"A3","midi":57,"time":"474.56","velocity":0.3464566929133858,"duration":"0.05"},{"name":"D4","midi":62,"time":"474.56","velocity":0.4015748031496063,"duration":"0.03"},{"name":"F#1","midi":30,"time":"474.57","velocity":0.29133858267716534,"duration":"0.02"},{"name":"F3","midi":53,"time":"474.57","velocity":0.3543307086614173,"duration":"0.02"},{"name":"C#5","midi":73,"time":"474.58","velocity":0.25984251968503935,"duration":"0.03"},{"name":"F6","midi":89,"time":"474.58","velocity":0.2283464566929134,"duration":"0.02"},{"name":"E3","midi":52,"time":"474.60","velocity":0.44881889763779526,"duration":"0.02"},{"name":"D#6","midi":87,"time":"474.60","velocity":0.2125984251968504,"duration":"0.08"},{"name":"A3","midi":57,"time":"474.62","velocity":0.4251968503937008,"duration":"0.02"},{"name":"D#5","midi":75,"time":"474.62","velocity":0.29133858267716534,"duration":"0.03"},{"name":"A#5","midi":82,"time":"474.63","velocity":0.31496062992125984,"duration":"0.03"},{"name":"E3","midi":52,"time":"474.64","velocity":0.44881889763779526,"duration":"0.08"},{"name":"D4","midi":62,"time":"474.64","velocity":0.28346456692913385,"duration":"0.02"},{"name":"G#5","midi":80,"time":"474.64","velocity":0.5039370078740157,"duration":"0.03"},{"name":"D6","midi":86,"time":"474.64","velocity":0.2125984251968504,"duration":"0.03"},{"name":"C5","midi":72,"time":"474.65","velocity":0.25196850393700787,"duration":"0.02"},{"name":"E5","midi":76,"time":"474.65","velocity":0.5275590551181102,"duration":"0.13"},{"name":"C2","midi":36,"time":"474.66","velocity":0.4566929133858268,"duration":"0.02"},{"name":"D#4","midi":63,"time":"474.66","velocity":0.3464566929133858,"duration":"0.02"},{"name":"F6","midi":89,"time":"474.66","velocity":0.2125984251968504,"duration":"0.05"},{"name":"A5","midi":81,"time":"474.67","velocity":0.5354330708661418,"duration":"0.13"},{"name":"D#2","midi":39,"time":"474.69","velocity":0.4094488188976378,"duration":"0.02"},{"name":"D4","midi":62,"time":"474.69","velocity":0.4094488188976378,"duration":"0.05"},{"name":"A4","midi":69,"time":"474.69","velocity":0.3779527559055118,"duration":"0.03"},{"name":"B5","midi":83,"time":"474.70","velocity":0.25984251968503935,"duration":"0.02"},{"name":"C5","midi":72,"time":"474.71","velocity":0.2204724409448819,"duration":"0.05"},{"name":"G#5","midi":80,"time":"474.71","velocity":0.29133858267716534,"duration":"0.02"},{"name":"D#3","midi":51,"time":"474.72","velocity":0.4881889763779528,"duration":"0.02"},{"name":"G#3","midi":56,"time":"474.72","velocity":0.3228346456692913,"duration":"0.02"},{"name":"D#6","midi":87,"time":"474.72","velocity":0.25196850393700787,"duration":"0.12"},{"name":"C#2","midi":37,"time":"474.73","velocity":0.4645669291338583,"duration":"0.03"},{"name":"D5","midi":74,"time":"474.73","velocity":0.25984251968503935,"duration":"0.03"},{"name":"D3","midi":50,"time":"474.74","velocity":0.4330708661417323,"duration":"0.02"},{"name":"A#3","midi":58,"time":"474.74","velocity":0.3858267716535433,"duration":"0.02"},{"name":"D4","midi":62,"time":"474.74","velocity":0.4330708661417323,"duration":"0.20"},{"name":"A4","midi":69,"time":"474.74","velocity":0.5354330708661418,"duration":"0.43"},{"name":"B5","midi":83,"time":"474.74","velocity":0.31496062992125984,"duration":"0.13"},{"name":"C7","midi":96,"time":"474.74","velocity":0.33070866141732286,"duration":"0.47"},{"name":"C#5","midi":73,"time":"474.76","velocity":0.2283464566929134,"duration":"0.02"},{"name":"D2","midi":38,"time":"474.77","velocity":0.5748031496062992,"duration":"0.01"},{"name":"F6","midi":89,"time":"474.77","velocity":0.25984251968503935,"duration":"0.13"},{"name":"A#6","midi":94,"time":"474.77","velocity":0.3937007874015748,"duration":"0.35"},{"name":"E2","midi":40,"time":"474.78","velocity":0.6456692913385826,"duration":"0.01"},{"name":"A#3","midi":58,"time":"474.78","velocity":0.33070866141732286,"duration":"0.02"},{"name":"E6","midi":88,"time":"474.78","velocity":0.25984251968503935,"duration":"0.03"},{"name":"D7","midi":98,"time":"474.78","velocity":0.3228346456692913,"duration":"1.92"},{"name":"F2","midi":41,"time":"474.79","velocity":0.5196850393700787,"duration":"0.01"},{"name":"C3","midi":48,"time":"474.79","velocity":0.5669291338582677,"duration":"0.01"},{"name":"C5","midi":72,"time":"474.79","velocity":0.2283464566929134,"duration":"0.03"},{"name":"E5","midi":76,"time":"474.79","velocity":0.3700787401574803,"duration":"0.03"},{"name":"D3","midi":50,"time":"474.80","velocity":0.6220472440944882,"duration":"0.02"},{"name":"D#5","midi":75,"time":"474.81","velocity":0.2283464566929134,"duration":"0.03"},{"name":"A5","midi":81,"time":"474.81","velocity":0.5354330708661418,"duration":"0.06"},{"name":"A#3","midi":58,"time":"474.83","velocity":0.33070866141732286,"duration":"0.03"},{"name":"E6","midi":88,"time":"474.83","velocity":0.2992125984251969,"duration":"0.07"},{"name":"D3","midi":50,"time":"474.84","velocity":0.5590551181102362,"duration":"0.20"},{"name":"E5","midi":76,"time":"474.85","velocity":0.3937007874015748,"duration":"0.14"},{"name":"G5","midi":79,"time":"474.85","velocity":0.28346456692913385,"duration":"0.03"},{"name":"C#2","midi":37,"time":"474.86","velocity":0.5275590551181102,"duration":"0.01"},{"name":"A3","midi":57,"time":"474.86","velocity":0.4251968503937008,"duration":"0.02"},{"name":"C#5","midi":73,"time":"474.86","velocity":0.25196850393700787,"duration":"0.02"},{"name":"A#1","midi":34,"time":"474.88","velocity":0.4409448818897638,"duration":"0.02"},{"name":"G#3","midi":56,"time":"474.88","velocity":0.3700787401574803,"duration":"0.02"},{"name":"B5","midi":83,"time":"474.88","velocity":0.2677165354330709,"duration":"0.08"},{"name":"C#5","midi":73,"time":"474.90","velocity":0.2755905511811024,"duration":"0.06"},{"name":"D#6","midi":87,"time":"474.90","velocity":0.1968503937007874,"duration":"0.03"},{"name":"C6","midi":84,"time":"474.91","velocity":0.25196850393700787,"duration":"0.20"},{"name":"D6","midi":86,"time":"474.91","velocity":0.1889763779527559,"duration":"0.08"},{"name":"B1","midi":35,"time":"474.92","velocity":0.36220472440944884,"duration":"0.02"},{"name":"F6","midi":89,"time":"474.93","velocity":0.29133858267716534,"duration":"0.09"},{"name":"D#6","midi":87,"time":"474.94","velocity":0.2125984251968504,"duration":"0.21"},{"name":"C5","midi":72,"time":"474.95","velocity":0.2755905511811024,"duration":"0.06"},{"name":"G5","midi":79,"time":"474.95","velocity":0.2125984251968504,"duration":"0.03"},{"name":"A3","midi":57,"time":"474.97","velocity":0.3464566929133858,"duration":"0.02"},{"name":"A1","midi":33,"time":"474.98","velocity":0.3700787401574803,"duration":"0.02"},{"name":"A5","midi":81,"time":"474.98","velocity":0.5590551181102362,"duration":"0.06"},{"name":"A#3","midi":58,"time":"474.99","velocity":0.28346456692913385,"duration":"0.02"},{"name":"G#5","midi":80,"time":"474.99","velocity":0.2204724409448819,"duration":"0.03"},{"name":"G6","midi":91,"time":"474.99","velocity":0.3700787401574803,"duration":"0.77"},{"name":"G#6","midi":92,"time":"475.00","velocity":0.4015748031496063,"duration":"0.72"},{"name":"D#7","midi":99,"time":"475.00","velocity":0.3937007874015748,"duration":"4.49"},{"name":"C#5","midi":73,"time":"475.02","velocity":0.2440944881889764,"duration":"0.02"},{"name":"C#3","midi":49,"time":"475.03","velocity":0.48031496062992124,"duration":"0.02"},{"name":"C5","midi":72,"time":"475.03","velocity":0.29133858267716534,"duration":"0.06"},{"name":"D#5","midi":75,"time":"475.03","velocity":0.23622047244094488,"duration":"0.02"},{"name":"F6","midi":89,"time":"475.05","velocity":0.08661417322834646,"duration":"0.05"},{"name":"D3","midi":50,"time":"475.06","velocity":0.5590551181102362,"duration":"0.10"},{"name":"E5","midi":76,"time":"475.06","velocity":0.33858267716535434,"duration":"0.10"},{"name":"A3","midi":57,"time":"475.08","velocity":0.2992125984251969,"duration":"0.03"},{"name":"C#5","midi":73,"time":"475.09","velocity":0.31496062992125984,"duration":"0.03"},{"name":"G#5","midi":80,"time":"475.09","velocity":0.5196850393700787,"duration":"0.02"},{"name":"B5","midi":83,"time":"475.09","velocity":0.2125984251968504,"duration":"0.07"},{"name":"A3","midi":57,"time":"475.13","velocity":0.36220472440944884,"duration":"0.02"},{"name":"F6","midi":89,"time":"475.13","velocity":0.2047244094488189,"duration":"0.15"},{"name":"A#6","midi":94,"time":"475.14","velocity":0.3543307086614173,"duration":"0.45"},{"name":"G#3","midi":56,"time":"475.15","velocity":0.4251968503937008,"duration":"0.02"},{"name":"B4","midi":71,"time":"475.15","velocity":0.2677165354330709,"duration":"0.02"},{"name":"F#1","midi":30,"time":"475.16","velocity":0.33858267716535434,"duration":"0.03"},{"name":"C#5","midi":73,"time":"475.16","velocity":0.2755905511811024,"duration":"0.05"},{"name":"D#5","midi":75,"time":"475.16","velocity":0.3700787401574803,"duration":"0.02"},{"name":"D6","midi":86,"time":"475.16","velocity":0.1889763779527559,"duration":"0.05"},{"name":"A#3","midi":58,"time":"475.17","velocity":0.41732283464566927,"duration":"0.03"},{"name":"C6","midi":84,"time":"475.17","velocity":0.23622047244094488,"duration":"0.08"},{"name":"E3","midi":52,"time":"475.19","velocity":0.5039370078740157,"duration":"0.02"},{"name":"D5","midi":74,"time":"475.19","velocity":0.3858267716535433,"duration":"0.20"},{"name":"G#1","midi":32,"time":"475.20","velocity":0.36220472440944884,"duration":"0.02"},{"name":"A4","midi":69,"time":"475.20","velocity":0.5039370078740157,"duration":"0.17"},{"name":"D#3","midi":51,"time":"475.21","velocity":0.5118110236220472,"duration":"0.01"},{"name":"A3","midi":57,"time":"475.21","velocity":0.4409448818897638,"duration":"0.17"},{"name":"D3","midi":50,"time":"475.22","velocity":0.3858267716535433,"duration":"0.02"},{"name":"D4","midi":62,"time":"475.22","velocity":0.4566929133858268,"duration":"0.16"},{"name":"B5","midi":83,"time":"475.22","velocity":0.2677165354330709,"duration":"0.05"},{"name":"C7","midi":96,"time":"475.22","velocity":0.2440944881889764,"duration":"0.06"},{"name":"E5","midi":76,"time":"475.24","velocity":0.2440944881889764,"duration":"0.05"},{"name":"F#2","midi":42,"time":"475.26","velocity":0.2992125984251969,"duration":"0.02"},{"name":"D#3","midi":51,"time":"475.26","velocity":0.44881889763779526,"duration":"0.02"},{"name":"G#5","midi":80,"time":"475.26","velocity":0.48031496062992124,"duration":"0.03"},{"name":"C6","midi":84,"time":"475.27","velocity":0.2677165354330709,"duration":"0.14"},{"name":"D3","midi":50,"time":"475.28","velocity":0.5039370078740157,"duration":"0.07"},{"name":"A5","midi":81,"time":"475.28","velocity":0.5748031496062992,"duration":"0.13"},{"name":"D#6","midi":87,"time":"475.28","velocity":0.1732283464566929,"duration":"0.05"},{"name":"G#5","midi":80,"time":"475.30","velocity":0.2283464566929134,"duration":"0.05"},{"name":"F2","midi":41,"time":"475.31","velocity":0.33858267716535434,"duration":"0.02"},{"name":"F6","midi":89,"time":"475.31","velocity":0.2440944881889764,"duration":"0.17"},{"name":"E6","midi":88,"time":"475.35","velocity":0.4094488188976378,"duration":"0.47"},{"name":"C7","midi":96,"time":"475.35","velocity":0.3700787401574803,"duration":"0.33"},{"name":"D3","midi":50,"time":"475.36","velocity":0.5748031496062992,"duration":"0.15"},{"name":"E5","midi":76,"time":"475.36","velocity":0.15748031496062992,"duration":"0.03"},{"name":"C#6","midi":85,"time":"475.36","velocity":0.5039370078740157,"duration":"0.20"},{"name":"B5","midi":83,"time":"475.37","velocity":0.2755905511811024,"duration":"0.17"},{"name":"A#3","midi":58,"time":"475.38","velocity":0.2677165354330709,"duration":"0.03"},{"name":"A4","midi":69,"time":"475.38","velocity":0.44881889763779526,"duration":"0.06"},{"name":"B1","midi":35,"time":"475.40","velocity":0.3543307086614173,"duration":"0.02"},{"name":"C5","midi":72,"time":"475.40","velocity":0.30708661417322836,"duration":"0.07"},{"name":"G#5","midi":80,"time":"475.41","velocity":0.4881889763779528,"duration":"0.03"},{"name":"E2","midi":40,"time":"475.42","velocity":0.33858267716535434,"duration":"0.02"},{"name":"D#6","midi":87,"time":"475.42","velocity":0.29133858267716534,"duration":"0.16"},{"name":"E5","midi":76,"time":"475.44","velocity":0.4881889763779528,"duration":"0.33"},{"name":"A5","midi":81,"time":"475.44","velocity":0.5590551181102362,"duration":"0.07"},{"name":"A3","midi":57,"time":"475.45","velocity":0.33858267716535434,"duration":"0.02"},{"name":"A4","midi":69,"time":"475.45","velocity":0.4566929133858268,"duration":"0.09"},{"name":"G#5","midi":80,"time":"475.49","velocity":0.2755905511811024,"duration":"0.07"},{"name":"C#4","midi":61,"time":"475.50","velocity":0.3464566929133858,"duration":"0.02"},{"name":"A3","midi":57,"time":"475.51","velocity":0.36220472440944884,"duration":"0.02"},{"name":"F6","midi":89,"time":"475.51","velocity":0.25984251968503935,"duration":"0.09"},{"name":"C#5","midi":73,"time":"475.52","velocity":0.48031496062992124,"duration":"0.06"},{"name":"G#3","midi":56,"time":"475.53","velocity":0.4015748031496063,"duration":"0.03"},{"name":"C#4","midi":61,"time":"475.53","velocity":0.5118110236220472,"duration":"0.05"},{"name":"A5","midi":81,"time":"475.53","velocity":0.47244094488188976,"duration":"0.05"},{"name":"B5","midi":83,"time":"475.56","velocity":0.29133858267716534,"duration":"0.06"},{"name":"G#5","midi":80,"time":"475.57","velocity":0.4409448818897638,"duration":"0.08"},{"name":"D6","midi":86,"time":"475.57","velocity":0.2992125984251969,"duration":"0.08"},{"name":"G#3","midi":56,"time":"475.58","velocity":0.47244094488188976,"duration":"0.02"},{"name":"B4","midi":71,"time":"475.58","velocity":0.33070866141732286,"duration":"0.03"},{"name":"C#5","midi":73,"time":"475.59","velocity":0.33858267716535434,"duration":"0.06"},{"name":"A5","midi":81,"time":"475.59","velocity":0.5354330708661418,"duration":"0.15"},{"name":"D#3","midi":51,"time":"475.60","velocity":0.48031496062992124,"duration":"0.03"},{"name":"A3","midi":57,"time":"475.60","velocity":0.5275590551181102,"duration":"0.03"},{"name":"A#6","midi":94,"time":"475.60","velocity":0.25196850393700787,"duration":"0.13"},{"name":"B6","midi":95,"time":"475.60","velocity":0.3858267716535433,"duration":"0.45"},{"name":"D4","midi":62,"time":"475.62","velocity":0.41732283464566927,"duration":"0.21"},{"name":"F#4","midi":66,"time":"475.62","velocity":0.5039370078740157,"duration":"0.19"},{"name":"C6","midi":84,"time":"475.62","velocity":0.23622047244094488,"duration":"0.03"},{"name":"C5","midi":72,"time":"475.63","velocity":0.2992125984251969,"duration":"0.02"},{"name":"B5","midi":83,"time":"475.63","velocity":0.33858267716535434,"duration":"0.09"},{"name":"D#6","midi":87,"time":"475.63","velocity":0.4330708661417323,"duration":"0.52"},{"name":"A3","midi":57,"time":"475.65","velocity":0.4409448818897638,"duration":"0.07"},{"name":"C#6","midi":85,"time":"475.65","velocity":0.4251968503937008,"duration":"0.47"},{"name":"F6","midi":89,"time":"475.65","velocity":0.10236220472440945,"duration":"0.05"},{"name":"D#3","midi":51,"time":"475.66","velocity":0.5196850393700787,"duration":"0.02"},{"name":"C#5","midi":73,"time":"475.67","velocity":0.23622047244094488,"duration":"0.03"},{"name":"E3","midi":52,"time":"475.69","velocity":0.49606299212598426,"duration":"0.02"},{"name":"A#4","midi":70,"time":"475.69","velocity":0.33858267716535434,"duration":"0.02"},{"name":"C7","midi":96,"time":"475.69","velocity":0.3779527559055118,"duration":"0.70"},{"name":"G#4","midi":68,"time":"475.70","velocity":0.5118110236220472,"duration":"0.03"},{"name":"D#5","midi":75,"time":"475.70","velocity":0.30708661417322836,"duration":"0.02"},{"name":"F6","midi":89,"time":"475.71","velocity":0.2047244094488189,"duration":"0.14"},{"name":"C5","midi":72,"time":"475.72","velocity":0.18110236220472442,"duration":"0.03"},{"name":"A4","midi":69,"time":"475.73","velocity":0.5511811023622047,"duration":"0.06"},{"name":"B5","midi":83,"time":"475.73","velocity":0.2125984251968504,"duration":"0.05"},{"name":"G#6","midi":92,"time":"475.73","velocity":0.36220472440944884,"duration":"0.06"},{"name":"E3","midi":52,"time":"475.74","velocity":0.4566929133858268,"duration":"0.02"},{"name":"A3","midi":57,"time":"475.74","velocity":0.49606299212598426,"duration":"0.07"},{"name":"G#5","midi":80,"time":"475.74","velocity":0.5590551181102362,"duration":"0.15"},{"name":"C6","midi":84,"time":"475.74","velocity":0.2283464566929134,"duration":"0.13"},{"name":"A#6","midi":94,"time":"475.74","velocity":0.2283464566929134,"duration":"0.15"},{"name":"G6","midi":91,"time":"475.77","velocity":0.31496062992125984,"duration":"0.14"},{"name":"E5","midi":76,"time":"475.78","velocity":0.3779527559055118,"duration":"0.13"},{"name":"A4","midi":69,"time":"475.80","velocity":0.5354330708661418,"duration":"0.02"},{"name":"F#4","midi":66,"time":"475.81","velocity":0.3779527559055118,"duration":"0.03"},{"name":"E3","midi":52,"time":"475.83","velocity":0.5039370078740157,"duration":"0.03"},{"name":"A3","midi":57,"time":"475.83","velocity":0.4409448818897638,"duration":"0.05"},{"name":"C5","midi":72,"time":"475.83","velocity":0.2440944881889764,"duration":"0.02"},{"name":"G#4","midi":68,"time":"475.84","velocity":0.4645669291338583,"duration":"0.12"},{"name":"B4","midi":71,"time":"475.85","velocity":0.2125984251968504,"duration":"0.05"},{"name":"F#4","midi":66,"time":"475.86","velocity":0.4251968503937008,"duration":"0.03"},{"name":"B5","midi":83,"time":"475.86","velocity":0.2283464566929134,"duration":"0.08"},{"name":"C#5","midi":73,"time":"475.87","velocity":0.2992125984251969,"duration":"0.03"},{"name":"A5","midi":81,"time":"475.87","velocity":0.5826771653543307,"duration":"0.16"},{"name":"F6","midi":89,"time":"475.87","velocity":0.2283464566929134,"duration":"0.03"},{"name":"C6","midi":84,"time":"475.88","velocity":0.2047244094488189,"duration":"0.05"},{"name":"A1","midi":33,"time":"475.90","velocity":0.3700787401574803,"duration":"0.02"},{"name":"E3","midi":52,"time":"475.90","velocity":0.5354330708661418,"duration":"0.01"},{"name":"D4","midi":62,"time":"475.90","velocity":0.30708661417322836,"duration":"0.02"},{"name":"F5","midi":77,"time":"475.90","velocity":0.23622047244094488,"duration":"0.03"},{"name":"C3","midi":48,"time":"475.91","velocity":0.5511811023622047,"duration":"0.01"},{"name":"F#4","midi":66,"time":"475.91","velocity":0.44881889763779526,"duration":"0.06"},{"name":"D#5","midi":75,"time":"475.91","velocity":0.14960629921259844,"duration":"0.03"},{"name":"D6","midi":86,"time":"475.91","velocity":0.25196850393700787,"duration":"0.06"},{"name":"E6","midi":88,"time":"475.91","velocity":0.28346456692913385,"duration":"0.05"},{"name":"A#6","midi":94,"time":"475.91","velocity":0.3779527559055118,"duration":"0.27"},{"name":"C#3","midi":49,"time":"475.92","velocity":0.5590551181102362,"duration":"0.02"},{"name":"C5","midi":72,"time":"475.92","velocity":0.23622047244094488,"duration":"0.05"},{"name":"G6","midi":91,"time":"475.92","velocity":0.3779527559055118,"duration":"0.14"},{"name":"F#2","midi":42,"time":"475.93","velocity":0.5275590551181102,"duration":"0.01"},{"name":"A4","midi":69,"time":"475.93","velocity":0.5039370078740157,"duration":"0.29"},{"name":"E5","midi":76,"time":"475.93","velocity":0.3937007874015748,"duration":"0.15"},{"name":"F6","midi":89,"time":"475.93","velocity":0.14173228346456693,"duration":"0.03"},{"name":"F2","midi":41,"time":"475.94","velocity":0.5905511811023622,"duration":"0.02"},{"name":"D3","midi":50,"time":"475.94","velocity":0.5905511811023622,"duration":"0.01"},{"name":"D#3","midi":51,"time":"475.95","velocity":0.5748031496062992,"duration":"0.01"},{"name":"B5","midi":83,"time":"475.95","velocity":0.15748031496062992,"duration":"0.05"},{"name":"D3","midi":50,"time":"475.97","velocity":0.5511811023622047,"duration":"0.02"},{"name":"B3","midi":59,"time":"475.97","velocity":0.33070866141732286,"duration":"0.03"},{"name":"C#1","midi":25,"time":"475.98","velocity":0.48031496062992124,"duration":"0.02"},{"name":"F#4","midi":66,"time":"475.98","velocity":0.31496062992125984,"duration":"0.03"},{"name":"C5","midi":72,"time":"475.98","velocity":0.2440944881889764,"duration":"0.07"},{"name":"G#5","midi":80,"time":"475.98","velocity":0.4251968503937008,"duration":"0.02"},{"name":"C2","midi":36,"time":"476.00","velocity":0.5354330708661418,"duration":"0.02"},{"name":"D3","midi":50,"time":"476.00","velocity":0.5748031496062992,"duration":"0.09"},{"name":"F6","midi":89,"time":"476.00","velocity":0.1968503937007874,"duration":"0.10"},{"name":"B5","midi":83,"time":"476.01","velocity":0.2283464566929134,"duration":"0.02"},{"name":"B1","midi":35,"time":"476.02","velocity":0.48031496062992124,"duration":"0.02"},{"name":"F#5","midi":78,"time":"476.02","velocity":0.30708661417322836,"duration":"0.02"},{"name":"C6","midi":84,"time":"476.02","velocity":0.33070866141732286,"duration":"0.21"},{"name":"A#3","midi":58,"time":"476.03","velocity":0.33070866141732286,"duration":"0.02"},{"name":"G#5","midi":80,"time":"476.03","velocity":0.47244094488188976,"duration":"0.02"},{"name":"C#5","midi":73,"time":"476.05","velocity":0.2283464566929134,"duration":"0.02"},{"name":"A5","midi":81,"time":"476.05","velocity":0.5984251968503937,"duration":"0.09"},{"name":"F#6","midi":90,"time":"476.05","velocity":0.2992125984251969,"duration":"0.17"},{"name":"A3","midi":57,"time":"476.06","velocity":0.3937007874015748,"duration":"0.02"},{"name":"F#5","midi":78,"time":"476.06","velocity":0.2440944881889764,"duration":"0.03"},{"name":"D#5","midi":75,"time":"476.07","velocity":0.33070866141732286,"duration":"0.03"},{"name":"G#5","midi":80,"time":"476.07","velocity":0.49606299212598426,"duration":"0.10"},{"name":"G6","midi":91,"time":"476.07","velocity":0.3700787401574803,"duration":"0.36"},{"name":"B6","midi":95,"time":"476.07","velocity":0.4881889763779528,"duration":"1.81"},{"name":"G1","midi":31,"time":"476.08","velocity":0.30708661417322836,"duration":"0.02"},{"name":"D#4","midi":63,"time":"476.08","velocity":0.30708661417322836,"duration":"0.02"},{"name":"F5","midi":77,"time":"476.08","velocity":0.36220472440944884,"duration":"0.07"},{"name":"B5","midi":83,"time":"476.09","velocity":0.13385826771653545,"duration":"0.03"},{"name":"D3","midi":50,"time":"476.10","velocity":0.5669291338582677,"duration":"0.03"},{"name":"F#4","midi":66,"time":"476.10","velocity":0.2440944881889764,"duration":"0.05"},{"name":"C#5","midi":73,"time":"476.10","velocity":0.1732283464566929,"duration":"0.05"},{"name":"C5","midi":72,"time":"476.12","velocity":0.16535433070866143,"duration":"0.05"},{"name":"E5","midi":76,"time":"476.13","velocity":0.3779527559055118,"duration":"0.13"},{"name":"C#6","midi":85,"time":"476.13","velocity":0.3228346456692913,"duration":"0.24"},{"name":"A3","midi":57,"time":"476.14","velocity":0.4330708661417323,"duration":"0.05"},{"name":"D6","midi":86,"time":"476.14","velocity":0.1732283464566929,"duration":"0.03"},{"name":"F#5","midi":78,"time":"476.15","velocity":0.3937007874015748,"duration":"0.22"},{"name":"A5","midi":81,"time":"476.15","velocity":0.5196850393700787,"duration":"0.03"},{"name":"E6","midi":88,"time":"476.15","velocity":0.4566929133858268,"duration":"1.03"},{"name":"D3","midi":50,"time":"476.16","velocity":0.5826771653543307,"duration":"0.01"},{"name":"D#6","midi":87,"time":"476.16","velocity":0.4330708661417323,"duration":"0.33"},{"name":"D#3","midi":51,"time":"476.17","velocity":0.5590551181102362,"duration":"0.02"},{"name":"F#4","midi":66,"time":"476.17","velocity":0.3228346456692913,"duration":"0.03"},{"name":"A#5","midi":82,"time":"476.17","velocity":0.2283464566929134,"duration":"0.02"},{"name":"G#6","midi":92,"time":"476.17","velocity":0.4330708661417323,"duration":"0.29"},{"name":"D4","midi":62,"time":"476.19","velocity":0.3543307086614173,"duration":"0.09"},{"name":"G#5","midi":80,"time":"476.19","velocity":0.5275590551181102,"duration":"0.02"},{"name":"C3","midi":48,"time":"476.20","velocity":0.5196850393700787,"duration":"0.01"},{"name":"A3","midi":57,"time":"476.20","velocity":0.33070866141732286,"duration":"0.03"},{"name":"C5","midi":72,"time":"476.20","velocity":0.2283464566929134,"duration":"0.02"},{"name":"A5","midi":81,"time":"476.20","velocity":0.5433070866141733,"duration":"0.09"},{"name":"A#6","midi":94,"time":"476.20","velocity":0.3543307086614173,"duration":"0.21"},{"name":"C#3","midi":49,"time":"476.21","velocity":0.5354330708661418,"duration":"0.03"},{"name":"A#5","midi":82,"time":"476.21","velocity":0.3464566929133858,"duration":"0.02"},{"name":"F6","midi":89,"time":"476.21","velocity":0.23622047244094488,"duration":"0.06"},{"name":"G#4","midi":68,"time":"476.22","velocity":0.5118110236220472,"duration":"0.05"},{"name":"B4","midi":71,"time":"476.22","velocity":0.2440944881889764,"duration":"0.02"},{"name":"C2","midi":36,"time":"476.24","velocity":0.3937007874015748,"duration":"0.02"},{"name":"D#3","midi":51,"time":"476.24","velocity":0.5433070866141733,"duration":"0.02"},{"name":"D#5","midi":75,"time":"476.26","velocity":0.25196850393700787,"duration":"0.02"},{"name":"F7","midi":101,"time":"476.26","velocity":0.31496062992125984,"duration":"1.31"},{"name":"C#3","midi":49,"time":"476.27","velocity":0.5354330708661418,"duration":"0.05"},{"name":"A4","midi":69,"time":"476.27","velocity":0.4566929133858268,"duration":"0.02"},{"name":"C#5","midi":73,"time":"476.27","velocity":0.3228346456692913,"duration":"0.05"},{"name":"E5","midi":76,"time":"476.27","velocity":0.3543307086614173,"duration":"0.03"},{"name":"B5","midi":83,"time":"476.27","velocity":0.29133858267716534,"duration":"0.09"},{"name":"F#2","midi":42,"time":"476.29","velocity":0.5275590551181102,"duration":"0.01"},{"name":"A3","midi":57,"time":"476.29","velocity":0.5118110236220472,"duration":"0.03"},{"name":"A#4","midi":70,"time":"476.29","velocity":0.4566929133858268,"duration":"0.03"},{"name":"A#5","midi":82,"time":"476.29","velocity":0.5039370078740157,"duration":"0.03"},{"name":"F2","midi":41,"time":"476.30","velocity":0.5984251968503937,"duration":"0.02"},{"name":"F#4","midi":66,"time":"476.30","velocity":0.4015748031496063,"duration":"0.02"},{"name":"F6","midi":89,"time":"476.30","velocity":0.2755905511811024,"duration":"0.06"},{"name":"D3","midi":50,"time":"476.31","velocity":0.5748031496062992,"duration":"0.02"},{"name":"F#2","midi":42,"time":"476.33","velocity":0.5196850393700787,"duration":"0.01"},{"name":"B4","midi":71,"time":"476.33","velocity":0.47244094488188976,"duration":"0.35"},{"name":"A5","midi":81,"time":"476.33","velocity":0.49606299212598426,"duration":"0.12"},{"name":"F4","midi":65,"time":"476.34","velocity":0.2992125984251969,"duration":"0.05"},{"name":"A3","midi":57,"time":"476.35","velocity":0.4645669291338583,"duration":"0.09"},{"name":"D#5","midi":75,"time":"476.35","velocity":0.2755905511811024,"duration":"0.05"},{"name":"A#5","midi":82,"time":"476.35","velocity":0.48031496062992124,"duration":"0.03"},{"name":"D3","midi":50,"time":"476.36","velocity":0.5669291338582677,"duration":"0.09"},{"name":"C#4","midi":61,"time":"476.36","velocity":0.3937007874015748,"duration":"0.03"},{"name":"F5","midi":77,"time":"476.37","velocity":0.33858267716535434,"duration":"0.05"},{"name":"D6","midi":86,"time":"476.37","velocity":0.2677165354330709,"duration":"0.02"},{"name":"F#4","midi":66,"time":"476.38","velocity":0.3858267716535433,"duration":"0.12"},{"name":"B5","midi":83,"time":"476.38","velocity":0.5433070866141733,"duration":"0.08"},{"name":"C#6","midi":85,"time":"476.38","velocity":0.2755905511811024,"duration":"0.09"},{"name":"A1","midi":33,"time":"476.40","velocity":0.33858267716535434,"duration":"0.02"},{"name":"C#5","midi":73,"time":"476.40","velocity":0.2677165354330709,"duration":"0.07"},{"name":"G#5","midi":80,"time":"476.41","velocity":0.3937007874015748,"duration":"0.09"},{"name":"D#5","midi":75,"time":"476.42","velocity":0.28346456692913385,"duration":"0.09"},{"name":"F#6","midi":90,"time":"476.42","velocity":0.29133858267716534,"duration":"0.03"},{"name":"A#6","midi":94,"time":"476.42","velocity":0.30708661417322836,"duration":"0.10"},{"name":"C7","midi":96,"time":"476.42","velocity":0.28346456692913385,"duration":"0.09"},{"name":"F6","midi":89,"time":"476.43","velocity":0.2283464566929134,"duration":"0.07"},{"name":"G#3","midi":56,"time":"476.44","velocity":0.4409448818897638,"duration":"0.02"},{"name":"A4","midi":69,"time":"476.44","velocity":0.4015748031496063,"duration":"0.05"},{"name":"G6","midi":91,"time":"476.44","velocity":0.2992125984251969,"duration":"0.07"},{"name":"C#3","midi":49,"time":"476.45","velocity":0.5433070866141733,"duration":"0.02"},{"name":"A5","midi":81,"time":"476.45","velocity":0.5433070866141733,"duration":"0.20"},{"name":"A3","midi":57,"time":"476.47","velocity":0.48031496062992124,"duration":"0.03"},{"name":"A#5","midi":82,"time":"476.47","velocity":0.5196850393700787,"duration":"0.05"},{"name":"F#6","midi":90,"time":"476.47","velocity":0.3779527559055118,"duration":"0.29"},{"name":"F2","midi":41,"time":"476.48","velocity":0.5118110236220472,"duration":"0.01"},{"name":"D2","midi":38,"time":"476.49","velocity":0.5433070866141733,"duration":"0.01"},{"name":"F5","midi":77,"time":"476.49","velocity":0.28346456692913385,"duration":"0.05"},{"name":"C#6","midi":85,"time":"476.49","velocity":0.3228346456692913,"duration":"0.17"},{"name":"E2","midi":40,"time":"476.50","velocity":0.5354330708661418,"duration":"0.01"},{"name":"F4","midi":65,"time":"476.50","velocity":0.3779527559055118,"duration":"0.02"},{"name":"D6","midi":86,"time":"476.50","velocity":0.12598425196850394,"duration":"0.03"},{"name":"G5","midi":79,"time":"476.51","velocity":0.23622047244094488,"duration":"0.02"},{"name":"B5","midi":83,"time":"476.51","velocity":0.5275590551181102,"duration":"0.13"},{"name":"C6","midi":84,"time":"476.51","velocity":0.2440944881889764,"duration":"0.02"},{"name":"C#4","midi":61,"time":"476.52","velocity":0.4094488188976378,"duration":"0.02"},{"name":"E5","midi":76,"time":"476.52","velocity":0.2125984251968504,"duration":"0.05"},{"name":"G6","midi":91,"time":"476.52","velocity":0.2677165354330709,"duration":"0.16"},{"name":"A3","midi":57,"time":"476.53","velocity":0.33858267716535434,"duration":"0.02"},{"name":"F#4","midi":66,"time":"476.53","velocity":0.33070866141732286,"duration":"0.03"},{"name":"A4","midi":69,"time":"476.53","velocity":0.3937007874015748,"duration":"0.06"},{"name":"F#5","midi":78,"time":"476.53","velocity":0.4094488188976378,"duration":"0.16"},{"name":"G#5","midi":80,"time":"476.53","velocity":0.2992125984251969,"duration":"0.02"},{"name":"D#6","midi":87,"time":"476.53","velocity":0.28346456692913385,"duration":"0.07"},{"name":"G#6","midi":92,"time":"476.53","velocity":0.4566929133858268,"duration":"0.20"},{"name":"A#6","midi":94,"time":"476.53","velocity":0.18110236220472442,"duration":"0.06"},{"name":"D#3","midi":51,"time":"476.55","velocity":0.4409448818897638,"duration":"0.02"},{"name":"D4","midi":62,"time":"476.55","velocity":0.4094488188976378,"duration":"0.03"},{"name":"A#3","midi":58,"time":"476.56","velocity":0.3937007874015748,"duration":"0.03"},{"name":"D3","midi":50,"time":"476.57","velocity":0.5039370078740157,"duration":"0.03"},{"name":"D#5","midi":75,"time":"476.57","velocity":0.2440944881889764,"duration":"0.02"},{"name":"D6","midi":86,"time":"476.57","velocity":0.2283464566929134,"duration":"0.10"},{"name":"C2","midi":36,"time":"476.58","velocity":0.3937007874015748,"duration":"0.02"},{"name":"G#5","midi":80,"time":"476.58","velocity":0.30708661417322836,"duration":"0.06"},{"name":"D5","midi":74,"time":"476.59","velocity":0.2755905511811024,"duration":"0.07"},{"name":"C#3","midi":49,"time":"476.60","velocity":0.5511811023622047,"duration":"0.02"},{"name":"A#3","midi":58,"time":"476.60","velocity":0.41732283464566927,"duration":"0.02"},{"name":"E5","midi":76,"time":"476.60","velocity":0.2992125984251969,"duration":"0.06"},{"name":"A#6","midi":94,"time":"476.60","velocity":0.33070866141732286,"duration":"0.28"},{"name":"C7","midi":96,"time":"476.60","velocity":0.25984251968503935,"duration":"0.06"},{"name":"G#4","midi":68,"time":"476.62","velocity":0.36220472440944884,"duration":"0.05"},{"name":"F6","midi":89,"time":"476.62","velocity":0.1968503937007874,"duration":"0.03"},{"name":"D3","midi":50,"time":"476.63","velocity":0.5748031496062992,"duration":"0.02"},{"name":"A3","midi":57,"time":"476.63","velocity":0.4409448818897638,"duration":"0.07"},{"name":"A#5","midi":82,"time":"476.64","velocity":0.49606299212598426,"duration":"0.06"},{"name":"C6","midi":84,"time":"476.64","velocity":0.2677165354330709,"duration":"0.03"},{"name":"D#6","midi":87,"time":"476.64","velocity":0.25984251968503935,"duration":"0.06"},{"name":"C#3","midi":49,"time":"476.65","velocity":0.5118110236220472,"duration":"0.01"},{"name":"B2","midi":47,"time":"476.66","velocity":0.5433070866141733,"duration":"0.01"},{"name":"D#3","midi":51,"time":"476.66","velocity":0.5826771653543307,"duration":"0.03"},{"name":"D#5","midi":75,"time":"476.66","velocity":0.31496062992125984,"duration":"0.02"},{"name":"F#2","midi":42,"time":"476.67","velocity":0.6062992125984252,"duration":"0.01"},{"name":"D4","midi":62,"time":"476.67","velocity":0.29133858267716534,"duration":"0.08"},{"name":"B5","midi":83,"time":"476.67","velocity":0.49606299212598426,"duration":"0.12"},{"name":"C#6","midi":85,"time":"476.67","velocity":0.30708661417322836,"duration":"0.14"},{"name":"C7","midi":96,"time":"476.67","velocity":0.3228346456692913,"duration":"0.57"},{"name":"F2","midi":41,"time":"476.69","velocity":0.6062992125984252,"duration":"0.01"},{"name":"B4","midi":71,"time":"476.69","velocity":0.5196850393700787,"duration":"0.29"},{"name":"D5","midi":74,"time":"476.69","velocity":0.33858267716535434,"duration":"0.06"},{"name":"E5","midi":76,"time":"476.69","velocity":0.33070866141732286,"duration":"0.06"},{"name":"A5","midi":81,"time":"476.69","velocity":0.5275590551181102,"duration":"0.70"},{"name":"D#1","midi":27,"time":"476.70","velocity":0.4881889763779528,"duration":"0.03"},{"name":"F#2","midi":42,"time":"476.70","velocity":0.5511811023622047,"duration":"0.02"},{"name":"G#4","midi":68,"time":"476.70","velocity":0.3779527559055118,"duration":"0.02"},{"name":"G6","midi":91,"time":"476.70","velocity":0.3858267716535433,"duration":"0.28"},{"name":"F#5","midi":78,"time":"476.71","velocity":0.3858267716535433,"duration":"0.07"},{"name":"D#6","midi":87,"time":"476.71","velocity":0.25196850393700787,"duration":"0.10"},{"name":"F6","midi":89,"time":"476.71","velocity":0.15748031496062992,"duration":"0.03"},{"name":"A4","midi":69,"time":"476.72","velocity":0.4645669291338583,"duration":"0.05"},{"name":"D7","midi":98,"time":"476.72","velocity":0.25984251968503935,"duration":"0.15"},{"name":"C#1","midi":25,"time":"476.73","velocity":0.47244094488188976,"duration":"0.02"},{"name":"G2","midi":43,"time":"476.73","velocity":0.3228346456692913,"duration":"0.02"},{"name":"E3","midi":52,"time":"476.73","velocity":0.49606299212598426,"duration":"0.03"},{"name":"F#4","midi":66,"time":"476.73","velocity":0.2677165354330709,"duration":"0.03"},{"name":"A3","midi":57,"time":"476.74","velocity":0.44881889763779526,"duration":"0.07"},{"name":"D#5","midi":75,"time":"476.74","velocity":0.2677165354330709,"duration":"0.03"},{"name":"G#6","midi":92,"time":"476.74","velocity":0.3937007874015748,"duration":"0.19"},{"name":"C#4","midi":61,"time":"476.77","velocity":0.3543307086614173,"duration":"0.02"},{"name":"G#4","midi":68,"time":"476.77","velocity":0.2440944881889764,"duration":"0.02"},{"name":"D5","midi":74,"time":"476.77","velocity":0.2204724409448819,"duration":"0.03"},{"name":"F6","midi":89,"time":"476.77","velocity":0.1968503937007874,"duration":"0.03"},{"name":"F#4","midi":66,"time":"476.78","velocity":0.2992125984251969,"duration":"0.06"},{"name":"F5","midi":77,"time":"476.78","velocity":0.2992125984251969,"duration":"0.02"},{"name":"G5","midi":79,"time":"476.78","velocity":0.2125984251968504,"duration":"0.03"},{"name":"C6","midi":84,"time":"476.78","velocity":0.2283464566929134,"duration":"0.02"},{"name":"E5","midi":76,"time":"476.79","velocity":0.36220472440944884,"duration":"0.17"},{"name":"A#5","midi":82,"time":"476.79","velocity":0.5275590551181102,"duration":"0.02"},{"name":"D3","midi":50,"time":"476.81","velocity":0.49606299212598426,"duration":"0.02"},{"name":"D5","midi":74,"time":"476.81","velocity":0.31496062992125984,"duration":"0.07"},{"name":"F#5","midi":78,"time":"476.81","velocity":0.4251968503937008,"duration":"0.23"},{"name":"B5","midi":83,"time":"476.81","velocity":0.5826771653543307,"duration":"0.07"},{"name":"A3","midi":57,"time":"476.83","velocity":0.4251968503937008,"duration":"0.03"},{"name":"C#4","midi":61,"time":"476.83","velocity":0.3700787401574803,"duration":"0.02"},{"name":"C#6","midi":85,"time":"476.83","velocity":0.30708661417322836,"duration":"0.13"},{"name":"C2","midi":36,"time":"476.84","velocity":0.3779527559055118,"duration":"0.02"},{"name":"C#3","midi":49,"time":"476.84","velocity":0.5118110236220472,"duration":"0.01"},{"name":"D#6","midi":87,"time":"476.84","velocity":0.29133858267716534,"duration":"0.12"},{"name":"D3","midi":50,"time":"476.85","velocity":0.5669291338582677,"duration":"0.02"},{"name":"C#3","midi":49,"time":"476.87","velocity":0.5511811023622047,"duration":"0.02"},{"name":"C6","midi":84,"time":"476.87","velocity":0.5118110236220472,"duration":"0.02"},{"name":"A#3","midi":58,"time":"476.88","velocity":0.3937007874015748,"duration":"0.02"},{"name":"D7","midi":98,"time":"476.88","velocity":0.30708661417322836,"duration":"0.20"},{"name":"D3","midi":50,"time":"476.90","velocity":0.5118110236220472,"duration":"0.03"},{"name":"G#4","midi":68,"time":"476.90","velocity":0.33858267716535434,"duration":"0.06"},{"name":"B5","midi":83,"time":"476.90","velocity":0.5433070866141733,"duration":"0.06"},{"name":"A#6","midi":94,"time":"476.90","velocity":0.4015748031496063,"duration":"0.16"},{"name":"D5","midi":74,"time":"476.91","velocity":0.25984251968503935,"duration":"0.07"},{"name":"F6","midi":89,"time":"476.91","velocity":0.2440944881889764,"duration":"0.06"},{"name":"A2","midi":45,"time":"476.92","velocity":0.4015748031496063,"duration":"0.02"},{"name":"C#4","midi":61,"time":"476.92","velocity":0.31496062992125984,"duration":"0.03"},{"name":"A3","midi":57,"time":"476.93","velocity":0.47244094488188976,"duration":"0.09"},{"name":"E2","midi":40,"time":"476.94","velocity":0.4094488188976378,"duration":"0.02"},{"name":"D#3","midi":51,"time":"476.95","velocity":0.49606299212598426,"duration":"0.02"},{"name":"F#4","midi":66,"time":"476.95","velocity":0.1968503937007874,"duration":"0.03"},{"name":"A4","midi":69,"time":"476.95","velocity":0.5511811023622047,"duration":"0.10"},{"name":"A#5","midi":82,"time":"476.95","velocity":0.4881889763779528,"duration":"0.02"},{"name":"G#6","midi":92,"time":"476.95","velocity":0.3700787401574803,"duration":"0.08"},{"name":"G#5","midi":80,"time":"476.97","velocity":0.25984251968503935,"duration":"0.02"},{"name":"D#6","midi":87,"time":"476.97","velocity":0.15748031496062992,"duration":"0.03"},{"name":"D3","midi":50,"time":"476.98","velocity":0.4881889763779528,"duration":"0.06"},{"name":"B5","midi":83,"time":"476.98","velocity":0.5905511811023622,"duration":"0.05"},{"name":"C#6","midi":85,"time":"476.98","velocity":0.2204724409448819,"duration":"0.05"},{"name":"B4","midi":71,"time":"476.99","velocity":0.3464566929133858,"duration":"0.03"},{"name":"F4","midi":65,"time":"477.01","velocity":0.5039370078740157,"duration":"0.02"},{"name":"D6","midi":86,"time":"477.01","velocity":0.14960629921259844,"duration":"0.03"},{"name":"D#6","midi":87,"time":"477.01","velocity":0.28346456692913385,"duration":"0.03"},{"name":"G6","midi":91,"time":"477.01","velocity":0.36220472440944884,"duration":"0.53"},{"name":"D#5","midi":75,"time":"477.02","velocity":0.3228346456692913,"duration":"0.03"},{"name":"C6","midi":84,"time":"477.02","velocity":0.47244094488188976,"duration":"0.05"},{"name":"C#3","midi":49,"time":"477.03","velocity":0.4881889763779528,"duration":"0.02"},{"name":"E4","midi":64,"time":"477.03","velocity":0.4881889763779528,"duration":"0.02"},{"name":"C#5","midi":73,"time":"477.03","velocity":0.4330708661417323,"duration":"0.09"},{"name":"A3","midi":57,"time":"477.05","velocity":0.5118110236220472,"duration":"0.02"},{"name":"F#4","midi":66,"time":"477.05","velocity":0.3228346456692913,"duration":"0.02"},{"name":"F5","midi":77,"time":"477.05","velocity":0.33858267716535434,"duration":"0.05"},{"name":"B5","midi":83,"time":"477.05","velocity":0.5669291338582677,"duration":"0.05"},{"name":"G#6","midi":92,"time":"477.05","velocity":0.2440944881889764,"duration":"0.06"},{"name":"C3","midi":48,"time":"477.06","velocity":0.41732283464566927,"duration":"0.02"},{"name":"A#4","midi":70,"time":"477.06","velocity":0.5118110236220472,"duration":"0.01"},{"name":"G#5","midi":80,"time":"477.06","velocity":0.2755905511811024,"duration":"0.03"},{"name":"C#4","midi":61,"time":"477.07","velocity":0.4566929133858268,"duration":"0.02"},{"name":"F4","midi":65,"time":"477.07","velocity":0.2992125984251969,"duration":"0.02"},{"name":"A4","midi":69,"time":"477.07","velocity":0.4015748031496063,"duration":"0.02"},{"name":"B4","midi":71,"time":"477.07","velocity":0.5196850393700787,"duration":"0.27"},{"name":"E5","midi":76,"time":"477.07","velocity":0.41732283464566927,"duration":"0.09"},{"name":"D#6","midi":87,"time":"477.07","velocity":0.1889763779527559,"duration":"0.05"},{"name":"D#3","midi":51,"time":"477.09","velocity":0.5354330708661418,"duration":"0.02"},{"name":"F#5","midi":78,"time":"477.09","velocity":0.4094488188976378,"duration":"0.15"},{"name":"A#5","midi":82,"time":"477.09","velocity":0.5433070866141733,"duration":"0.03"},{"name":"D7","midi":98,"time":"477.09","velocity":0.2992125984251969,"duration":"0.10"},{"name":"B3","midi":59,"time":"477.10","velocity":0.3700787401574803,"duration":"0.02"},{"name":"G4","midi":67,"time":"477.10","velocity":0.33070866141732286,"duration":"0.02"},{"name":"D6","midi":86,"time":"477.10","velocity":0.14960629921259844,"duration":"0.03"},{"name":"C6","midi":84,"time":"477.12","velocity":0.3228346456692913,"duration":"0.05"},{"name":"C4","midi":60,"time":"477.13","velocity":0.33070866141732286,"duration":"0.05"},{"name":"D5","midi":74,"time":"477.13","velocity":0.3464566929133858,"duration":"0.02"},{"name":"B5","midi":83,"time":"477.13","velocity":0.5669291338582677,"duration":"0.15"},{"name":"C#6","midi":85,"time":"477.13","velocity":0.3700787401574803,"duration":"0.33"},{"name":"G#6","midi":92,"time":"477.13","velocity":0.2677165354330709,"duration":"0.05"},{"name":"D#6","midi":87,"time":"477.14","velocity":0.2992125984251969,"duration":"0.12"},{"name":"F6","midi":89,"time":"477.14","velocity":0.25196850393700787,"duration":"0.08"},{"name":"F#4","midi":66,"time":"477.15","velocity":0.3464566929133858,"duration":"0.02"},{"name":"C#5","midi":73,"time":"477.15","velocity":0.4094488188976378,"duration":"0.02"},{"name":"A#6","midi":94,"time":"477.15","velocity":0.31496062992125984,"duration":"0.12"},{"name":"C3","midi":48,"time":"477.16","velocity":0.3937007874015748,"duration":"0.02"},{"name":"G#4","midi":68,"time":"477.16","velocity":0.3858267716535433,"duration":"0.03"},{"name":"A3","midi":57,"time":"477.17","velocity":0.28346456692913385,"duration":"0.03"},{"name":"C#4","midi":61,"time":"477.17","velocity":0.3464566929133858,"duration":"0.05"},{"name":"E5","midi":76,"time":"477.17","velocity":0.4015748031496063,"duration":"0.05"},{"name":"C#5","midi":73,"time":"477.19","velocity":0.4645669291338583,"duration":"0.21"},{"name":"D6","midi":86,"time":"477.19","velocity":0.2204724409448819,"duration":"0.08"},{"name":"G#6","midi":92,"time":"477.19","velocity":0.3858267716535433,"duration":"0.17"},{"name":"A4","midi":69,"time":"477.21","velocity":0.4251968503937008,"duration":"0.03"},{"name":"D7","midi":98,"time":"477.21","velocity":0.33858267716535434,"duration":"0.12"},{"name":"A3","midi":57,"time":"477.22","velocity":0.4330708661417323,"duration":"0.05"},{"name":"D4","midi":62,"time":"477.22","velocity":0.4094488188976378,"duration":"0.07"},{"name":"D#5","midi":75,"time":"477.23","velocity":0.29133858267716534,"duration":"0.05"},{"name":"G#5","midi":80,"time":"477.23","velocity":0.2283464566929134,"duration":"0.02"},{"name":"C6","midi":84,"time":"477.24","velocity":0.2125984251968504,"duration":"0.05"},{"name":"F6","midi":89,"time":"477.24","velocity":0.14960629921259844,"duration":"0.06"},{"name":"C#3","midi":49,"time":"477.26","velocity":0.4094488188976378,"duration":"0.02"},{"name":"G5","midi":79,"time":"477.26","velocity":0.25984251968503935,"duration":"0.08"},{"name":"C7","midi":96,"time":"477.26","velocity":0.3543307086614173,"duration":"0.17"},{"name":"G#3","midi":56,"time":"477.27","velocity":0.3858267716535433,"duration":"0.03"},{"name":"F5","midi":77,"time":"477.27","velocity":0.29133858267716534,"duration":"0.06"},{"name":"A#5","midi":82,"time":"477.27","velocity":0.5196850393700787,"duration":"0.02"},{"name":"E7","midi":100,"time":"477.27","velocity":0.47244094488188976,"duration":"5.74"},{"name":"F#4","midi":66,"time":"477.28","velocity":0.2755905511811024,"duration":"0.02"},{"name":"F#5","midi":78,"time":"477.28","velocity":0.3700787401574803,"duration":"0.13"},{"name":"B5","midi":83,"time":"477.29","velocity":0.5433070866141733,"duration":"0.21"},{"name":"D6","midi":86,"time":"477.29","velocity":0.2047244094488189,"duration":"0.05"},{"name":"E2","midi":40,"time":"477.30","velocity":0.4566929133858268,"duration":"0.02"},{"name":"D4","midi":62,"time":"477.30","velocity":0.3937007874015748,"duration":"0.02"},{"name":"A4","midi":69,"time":"477.30","velocity":0.3937007874015748,"duration":"0.03"},{"name":"F4","midi":65,"time":"477.31","velocity":0.2677165354330709,"duration":"0.02"},{"name":"E3","midi":52,"time":"477.33","velocity":0.4566929133858268,"duration":"0.03"},{"name":"E5","midi":76,"time":"477.33","velocity":0.3543307086614173,"duration":"0.19"},{"name":"G#3","midi":56,"time":"477.34","velocity":0.4409448818897638,"duration":"0.02"},{"name":"D4","midi":62,"time":"477.34","velocity":0.3700787401574803,"duration":"0.02"},{"name":"D7","midi":98,"time":"477.34","velocity":0.3779527559055118,"duration":"1.20"},{"name":"D2","midi":38,"time":"477.35","velocity":0.3858267716535433,"duration":"0.02"},{"name":"B4","midi":71,"time":"477.35","velocity":0.5039370078740157,"duration":"0.16"},{"name":"G#5","midi":80,"time":"477.35","velocity":0.3937007874015748,"duration":"0.24"},{"name":"D#3","midi":51,"time":"477.36","velocity":0.4566929133858268,"duration":"0.02"},{"name":"A3","midi":57,"time":"477.36","velocity":0.4645669291338583,"duration":"0.03"},{"name":"D6","midi":86,"time":"477.36","velocity":0.23622047244094488,"duration":"0.07"},{"name":"D4","midi":62,"time":"477.37","velocity":0.4251968503937008,"duration":"0.03"},{"name":"F6","midi":89,"time":"477.37","velocity":0.2440944881889764,"duration":"0.06"},{"name":"D2","midi":38,"time":"477.38","velocity":0.4566929133858268,"duration":"0.02"},{"name":"G#4","midi":68,"time":"477.38","velocity":0.3700787401574803,"duration":"0.07"},{"name":"C6","midi":84,"time":"477.38","velocity":0.2440944881889764,"duration":"0.03"},{"name":"G5","midi":79,"time":"477.40","velocity":0.2677165354330709,"duration":"0.02"},{"name":"D#6","midi":87,"time":"477.40","velocity":0.2992125984251969,"duration":"0.05"},{"name":"D#2","midi":39,"time":"477.41","velocity":0.5511811023622047,"duration":"0.01"},{"name":"D#3","midi":51,"time":"477.41","velocity":0.5748031496062992,"duration":"0.01"},{"name":"B3","midi":59,"time":"477.41","velocity":0.4645669291338583,"duration":"0.02"},{"name":"F#4","midi":66,"time":"477.41","velocity":0.3937007874015748,"duration":"0.02"},{"name":"D5","midi":74,"time":"477.41","velocity":0.28346456692913385,"duration":"0.02"},{"name":"C#2","midi":37,"time":"477.42","velocity":0.5511811023622047,"duration":"0.01"},{"name":"D3","midi":50,"time":"477.42","velocity":0.5590551181102362,"duration":"0.01"},{"name":"A5","midi":81,"time":"477.42","velocity":0.2677165354330709,"duration":"0.05"},{"name":"A#5","midi":82,"time":"477.42","velocity":0.5196850393700787,"duration":"0.01"},{"name":"C#3","midi":49,"time":"477.43","velocity":0.5354330708661418,"duration":"0.01"},{"name":"C#5","midi":73,"time":"477.43","velocity":0.2440944881889764,"duration":"0.02"},{"name":"G1","midi":31,"time":"477.44","velocity":0.5590551181102362,"duration":"0.01"},{"name":"C3","midi":48,"time":"477.44","velocity":0.5748031496062992,"duration":"0.01"},{"name":"F6","midi":89,"time":"477.44","velocity":0.1889763779527559,"duration":"0.07"},{"name":"C7","midi":96,"time":"477.44","velocity":0.3700787401574803,"duration":"0.08"},{"name":"F1","midi":29,"time":"477.45","velocity":0.5748031496062992,"duration":"0.01"},{"name":"D3","midi":50,"time":"477.45","velocity":0.5905511811023622,"duration":"0.01"},{"name":"A3","midi":57,"time":"477.45","velocity":0.4330708661417323,"duration":"0.03"},{"name":"D6","midi":86,"time":"477.45","velocity":0.16535433070866143,"duration":"0.05"},{"name":"G#6","midi":92,"time":"477.45","velocity":0.48031496062992124,"duration":"0.48"},{"name":"E1","midi":28,"time":"477.47","velocity":0.5196850393700787,"duration":"0.01"},{"name":"E4","midi":64,"time":"477.47","velocity":0.48031496062992124,"duration":"0.27"},{"name":"G#4","midi":68,"time":"477.47","velocity":0.31496062992125984,"duration":"0.02"},{"name":"C#6","midi":85,"time":"477.47","velocity":0.1889763779527559,"duration":"0.07"},{"name":"D#6","midi":87,"time":"477.47","velocity":0.18110236220472442,"duration":"0.07"},{"name":"E3","midi":52,"time":"477.48","velocity":0.3937007874015748,"duration":"0.02"},{"name":"D5","midi":74,"time":"477.48","velocity":0.2283464566929134,"duration":"0.02"},{"name":"D2","midi":38,"time":"477.49","velocity":0.5275590551181102,"duration":"0.01"},{"name":"A#3","midi":58,"time":"477.49","velocity":0.3464566929133858,"duration":"0.02"},{"name":"A#5","midi":82,"time":"477.50","velocity":0.15748031496062992,"duration":"0.03"},{"name":"C6","midi":84,"time":"477.50","velocity":0.5118110236220472,"duration":"0.01"},{"name":"F#6","midi":90,"time":"477.50","velocity":0.4251968503937008,"duration":"0.27"},{"name":"A#4","midi":70,"time":"477.51","velocity":0.33858267716535434,"duration":"0.02"},{"name":"B5","midi":83,"time":"477.51","velocity":0.5511811023622047,"duration":"0.34"},{"name":"D6","midi":86,"time":"477.51","velocity":0.2440944881889764,"duration":"0.10"},{"name":"B3","midi":59,"time":"477.52","velocity":0.3858267716535433,"duration":"0.02"},{"name":"F#5","midi":78,"time":"477.52","velocity":0.3779527559055118,"duration":"0.09"},{"name":"G#4","midi":68,"time":"477.53","velocity":0.4015748031496063,"duration":"0.02"},{"name":"C#5","midi":73,"time":"477.53","velocity":0.25196850393700787,"duration":"0.06"},{"name":"A#6","midi":94,"time":"477.53","velocity":0.3858267716535433,"duration":"0.10"},{"name":"C7","midi":96,"time":"477.53","velocity":0.4330708661417323,"duration":"0.38"},{"name":"A#4","midi":70,"time":"477.55","velocity":0.3937007874015748,"duration":"0.02"},{"name":"D#6","midi":87,"time":"477.55","velocity":0.14173228346456693,"duration":"0.06"},{"name":"A#2","midi":46,"time":"477.56","velocity":0.5354330708661418,"duration":"0.01"},{"name":"C#4","midi":61,"time":"477.56","velocity":0.3779527559055118,"duration":"0.02"},{"name":"A5","midi":81,"time":"477.56","velocity":0.2755905511811024,"duration":"0.02"},{"name":"C#6","midi":85,"time":"477.56","velocity":0.29133858267716534,"duration":"0.15"},{"name":"G6","midi":91,"time":"477.56","velocity":0.2677165354330709,"duration":"0.02"},{"name":"B2","midi":47,"time":"477.57","velocity":0.5669291338582677,"duration":"0.01"},{"name":"A4","midi":69,"time":"477.57","velocity":0.4094488188976378,"duration":"0.03"},{"name":"B4","midi":71,"time":"477.57","velocity":0.3700787401574803,"duration":"0.03"},{"name":"F6","midi":89,"time":"477.57","velocity":0.14960629921259844,"duration":"0.03"},{"name":"E3","midi":52,"time":"477.58","velocity":0.4645669291338583,"duration":"0.02"},{"name":"G6","midi":91,"time":"477.59","velocity":0.33858267716535434,"duration":"0.06"},{"name":"F7","midi":101,"time":"477.59","velocity":0.3464566929133858,"duration":"5.31"},{"name":"A#4","midi":70,"time":"477.60","velocity":0.4094488188976378,"duration":"0.02"},{"name":"C#5","midi":73,"time":"477.60","velocity":0.28346456692913385,"duration":"0.03"},{"name":"G5","midi":79,"time":"477.60","velocity":0.28346456692913385,"duration":"0.02"},{"name":"A2","midi":45,"time":"477.62","velocity":0.5275590551181102,"duration":"0.01"},{"name":"G#4","midi":68,"time":"477.62","velocity":0.36220472440944884,"duration":"0.03"},{"name":"D#6","midi":87,"time":"477.62","velocity":0.31496062992125984,"duration":"0.03"},{"name":"F6","midi":89,"time":"477.62","velocity":0.29133858267716534,"duration":"0.09"},{"name":"A#2","midi":46,"time":"477.63","velocity":0.5196850393700787,"duration":"0.01"},{"name":"C4","midi":60,"time":"477.63","velocity":0.3779527559055118,"duration":"0.05"},{"name":"F#5","midi":78,"time":"477.63","velocity":0.29133858267716534,"duration":"0.02"},{"name":"A2","midi":45,"time":"477.64","velocity":0.5118110236220472,"duration":"0.01"},{"name":"A#4","midi":70,"time":"477.64","velocity":0.33070866141732286,"duration":"0.02"},{"name":"D6","midi":86,"time":"477.64","velocity":0.2283464566929134,"duration":"0.02"},{"name":"E3","midi":52,"time":"477.65","velocity":0.47244094488188976,"duration":"0.06"},{"name":"G4","midi":67,"time":"477.65","velocity":0.3464566929133858,"duration":"0.02"},{"name":"A2","midi":45,"time":"477.66","velocity":0.4881889763779528,"duration":"0.03"},{"name":"F#5","midi":78,"time":"477.66","velocity":0.31496062992125984,"duration":"0.02"},{"name":"D#6","midi":87,"time":"477.66","velocity":0.31496062992125984,"duration":"0.12"},{"name":"A#6","midi":94,"time":"477.66","velocity":0.2755905511811024,"duration":"0.06"},{"name":"C#5","midi":73,"time":"477.67","velocity":0.3937007874015748,"duration":"0.08"},{"name":"G5","midi":79,"time":"477.67","velocity":0.49606299212598426,"duration":"0.13"},{"name":"A5","midi":81,"time":"477.67","velocity":0.29133858267716534,"duration":"0.03"},{"name":"G#4","midi":68,"time":"477.69","velocity":0.44881889763779526,"duration":"0.02"},{"name":"F5","midi":77,"time":"477.69","velocity":0.41732283464566927,"duration":"0.07"},{"name":"A#2","midi":46,"time":"477.70","velocity":0.5118110236220472,"duration":"0.02"},{"name":"A#4","midi":70,"time":"477.70","velocity":0.4094488188976378,"duration":"0.02"},{"name":"D6","midi":86,"time":"477.70","velocity":0.30708661417322836,"duration":"0.08"},{"name":"A6","midi":93,"time":"477.71","velocity":0.4645669291338583,"duration":"3.33"},{"name":"A2","midi":45,"time":"477.72","velocity":0.4645669291338583,"duration":"0.02"},{"name":"A#3","midi":58,"time":"477.72","velocity":0.48031496062992124,"duration":"0.02"},{"name":"D#4","midi":63,"time":"477.72","velocity":0.2992125984251969,"duration":"0.02"},{"name":"D5","midi":74,"time":"477.72","velocity":0.30708661417322836,"duration":"0.02"},{"name":"F3","midi":53,"time":"477.73","velocity":0.5118110236220472,"duration":"0.01"},{"name":"A4","midi":69,"time":"477.73","velocity":0.3543307086614173,"duration":"0.03"},{"name":"E6","midi":88,"time":"477.73","velocity":0.2677165354330709,"duration":"0.22"},{"name":"A#6","midi":94,"time":"477.73","velocity":0.33858267716535434,"duration":"0.20"},{"name":"E3","midi":52,"time":"477.74","velocity":0.4881889763779528,"duration":"0.03"},{"name":"B4","midi":71,"time":"477.74","velocity":0.4566929133858268,"duration":"0.05"},{"name":"D#5","midi":75,"time":"477.74","velocity":0.29133858267716534,"duration":"0.02"},{"name":"F#4","midi":66,"time":"477.76","velocity":0.3700787401574803,"duration":"0.07"},{"name":"A#5","midi":82,"time":"477.76","velocity":0.30708661417322836,"duration":"0.03"},{"name":"F6","midi":89,"time":"477.76","velocity":0.25196850393700787,"duration":"0.07"},{"name":"A#2","midi":46,"time":"477.77","velocity":0.5354330708661418,"duration":"0.01"},{"name":"C#5","midi":73,"time":"477.77","velocity":0.4330708661417323,"duration":"0.14"},{"name":"E5","midi":76,"time":"477.77","velocity":0.33070866141732286,"duration":"0.06"},{"name":"F5","midi":77,"time":"477.77","velocity":0.3464566929133858,"duration":"0.03"},{"name":"B2","midi":47,"time":"477.78","velocity":0.5511811023622047,"duration":"0.02"},{"name":"F3","midi":53,"time":"477.78","velocity":0.4566929133858268,"duration":"0.02"},{"name":"G#5","midi":80,"time":"477.78","velocity":0.5118110236220472,"duration":"0.05"},{"name":"F#6","midi":90,"time":"477.78","velocity":0.33858267716535434,"duration":"0.06"},{"name":"E2","midi":40,"time":"477.79","velocity":0.5433070866141733,"duration":"0.01"},{"name":"A4","midi":69,"time":"477.79","velocity":0.3464566929133858,"duration":"0.02"},{"name":"A5","midi":81,"time":"477.79","velocity":0.5275590551181102,"duration":"0.42"},{"name":"C6","midi":84,"time":"477.79","velocity":0.5669291338582677,"duration":"0.13"},{"name":"G#2","midi":44,"time":"477.80","velocity":0.6062992125984252,"duration":"0.01"},{"name":"C5","midi":72,"time":"477.80","velocity":0.4015748031496063,"duration":"0.05"},{"name":"D6","midi":86,"time":"477.80","velocity":0.13385826771653545,"duration":"0.07"},{"name":"C#1","midi":25,"time":"477.81","velocity":0.3779527559055118,"duration":"0.02"},{"name":"F#2","midi":42,"time":"477.81","velocity":0.5511811023622047,"duration":"0.01"},{"name":"D3","midi":50,"time":"477.83","velocity":0.5196850393700787,"duration":"0.01"},{"name":"E4","midi":64,"time":"477.83","velocity":0.3700787401574803,"duration":"0.02"},{"name":"A4","midi":69,"time":"477.83","velocity":0.2677165354330709,"duration":"0.02"},{"name":"F#5","midi":78,"time":"477.83","velocity":0.3464566929133858,"duration":"0.20"},{"name":"C#4","midi":61,"time":"477.84","velocity":0.2755905511811024,"duration":"0.02"},{"name":"E5","midi":76,"time":"477.84","velocity":0.4251968503937008,"duration":"0.33"},{"name":"F6","midi":89,"time":"477.84","velocity":0.13385826771653545,"duration":"0.06"},{"name":"E3","midi":52,"time":"477.85","velocity":0.5275590551181102,"duration":"0.08"},{"name":"B5","midi":83,"time":"477.86","velocity":0.4015748031496063,"duration":"0.02"},{"name":"C#6","midi":85,"time":"477.86","velocity":0.6771653543307087,"duration":"0.91"},{"name":"C#4","midi":61,"time":"477.87","velocity":0.2992125984251969,"duration":"0.06"},{"name":"G#4","midi":68,"time":"477.87","velocity":0.3228346456692913,"duration":"0.02"},{"name":"D#6","midi":87,"time":"477.87","velocity":0.18110236220472442,"duration":"0.07"},{"name":"G5","midi":79,"time":"477.90","velocity":0.23622047244094488,"duration":"0.02"},{"name":"B6","midi":95,"time":"477.90","velocity":0.29133858267716534,"duration":"0.63"},{"name":"C5","midi":72,"time":"477.91","velocity":0.4094488188976378,"duration":"0.03"},{"name":"B5","midi":83,"time":"477.91","velocity":0.4015748031496063,"duration":"0.05"},{"name":"F6","midi":89,"time":"477.91","velocity":0.2047244094488189,"duration":"0.12"},{"name":"A4","midi":69,"time":"477.92","velocity":0.4330708661417323,"duration":"0.06"},{"name":"C4","midi":60,"time":"477.93","velocity":0.2755905511811024,"duration":"0.02"},{"name":"G#5","midi":80,"time":"477.93","velocity":0.4251968503937008,"duration":"0.07"},{"name":"C7","midi":96,"time":"477.93","velocity":0.30708661417322836,"duration":"0.23"},{"name":"E3","midi":52,"time":"477.94","velocity":0.4881889763779528,"duration":"0.21"},{"name":"C#5","midi":73,"time":"477.94","velocity":0.5039370078740157,"duration":"0.28"},{"name":"G#6","midi":92,"time":"477.94","velocity":0.5433070866141733,"duration":"3.66"},{"name":"A#6","midi":94,"time":"477.94","velocity":0.2992125984251969,"duration":"0.29"},{"name":"C#4","midi":61,"time":"477.95","velocity":0.33858267716535434,"duration":"0.02"},{"name":"D#6","midi":87,"time":"477.95","velocity":0.1968503937007874,"duration":"0.09"},{"name":"G#1","midi":32,"time":"477.97","velocity":0.4566929133858268,"duration":"0.02"},{"name":"G4","midi":67,"time":"477.97","velocity":0.33858267716535434,"duration":"0.02"},{"name":"A3","midi":57,"time":"477.99","velocity":0.4645669291338583,"duration":"0.17"},{"name":"G#4","midi":68,"time":"477.99","velocity":0.2992125984251969,"duration":"0.02"},{"name":"A#4","midi":70,"time":"477.99","velocity":0.25984251968503935,"duration":"0.02"},{"name":"B5","midi":83,"time":"477.99","velocity":0.3858267716535433,"duration":"0.07"},{"name":"C#4","midi":61,"time":"478.00","velocity":0.4566929133858268,"duration":"0.14"},{"name":"F#4","midi":66,"time":"478.01","velocity":0.2440944881889764,"duration":"0.03"},{"name":"B4","midi":71,"time":"478.01","velocity":0.28346456692913385,"duration":"0.08"},{"name":"G6","midi":91,"time":"478.01","velocity":0.25196850393700787,"duration":"0.06"},{"name":"G5","midi":79,"time":"478.02","velocity":0.2992125984251969,"duration":"0.02"},{"name":"A#5","midi":82,"time":"478.02","velocity":0.3937007874015748,"duration":"0.07"},{"name":"F6","midi":89,"time":"478.03","velocity":0.15748031496062992,"duration":"0.07"},{"name":"F4","midi":65,"time":"478.05","velocity":0.2677165354330709,"duration":"0.02"},{"name":"C6","midi":84,"time":"478.05","velocity":0.4881889763779528,"duration":"0.02"},{"name":"G5","midi":79,"time":"478.06","velocity":0.25196850393700787,"duration":"0.07"},{"name":"F#4","midi":66,"time":"478.07","velocity":0.3228346456692913,"duration":"0.05"},{"name":"B5","midi":83,"time":"478.07","velocity":0.3464566929133858,"duration":"0.07"},{"name":"F#6","midi":90,"time":"478.07","velocity":0.28346456692913385,"duration":"0.12"},{"name":"D#6","midi":87,"time":"478.08","velocity":0.07086614173228346,"duration":"0.03"},{"name":"C6","midi":84,"time":"478.12","velocity":0.4094488188976378,"duration":"0.07"},{"name":"D6","midi":86,"time":"478.12","velocity":0.33070866141732286,"duration":"0.02"},{"name":"F6","midi":89,"time":"478.12","velocity":0.2204724409448819,"duration":"0.07"},{"name":"G7","midi":103,"time":"478.12","velocity":0.2440944881889764,"duration":"0.07"},{"name":"G5","midi":79,"time":"478.14","velocity":0.30708661417322836,"duration":"0.02"},{"name":"C#4","midi":61,"time":"478.15","velocity":0.4251968503937008,"duration":"0.06"},{"name":"B5","midi":83,"time":"478.15","velocity":0.36220472440944884,"duration":"0.07"},{"name":"G#2","midi":44,"time":"478.16","velocity":0.5196850393700787,"duration":"0.01"},{"name":"B2","midi":47,"time":"478.17","velocity":0.5748031496062992,"duration":"0.01"},{"name":"F3","midi":53,"time":"478.17","velocity":0.5118110236220472,"duration":"0.02"},{"name":"A4","midi":69,"time":"478.17","velocity":0.3779527559055118,"duration":"0.03"},{"name":"E5","midi":76,"time":"478.17","velocity":0.2047244094488189,"duration":"0.03"},{"name":"F#5","midi":78,"time":"478.19","velocity":0.36220472440944884,"duration":"0.14"},{"name":"G6","midi":91,"time":"478.19","velocity":0.30708661417322836,"duration":"0.13"},{"name":"D#3","midi":51,"time":"478.20","velocity":0.5354330708661418,"duration":"0.01"},{"name":"A#5","midi":82,"time":"478.20","velocity":0.4015748031496063,"duration":"0.05"},{"name":"E3","midi":52,"time":"478.21","velocity":0.5196850393700787,"duration":"0.19"},{"name":"D4","midi":62,"time":"478.21","velocity":0.4015748031496063,"duration":"0.02"},{"name":"F6","midi":89,"time":"478.21","velocity":0.12598425196850394,"duration":"0.10"},{"name":"A3","midi":57,"time":"478.22","velocity":0.4409448818897638,"duration":"0.31"},{"name":"B4","midi":71,"time":"478.22","velocity":0.33070866141732286,"duration":"0.02"},{"name":"E5","midi":76,"time":"478.22","velocity":0.4015748031496063,"duration":"0.44"},{"name":"A5","midi":81,"time":"478.22","velocity":0.5511811023622047,"duration":"0.17"},{"name":"C#4","midi":61,"time":"478.23","velocity":0.3700787401574803,"duration":"0.03"},{"name":"C#5","midi":73,"time":"478.23","velocity":0.3937007874015748,"duration":"0.05"},{"name":"D#6","midi":87,"time":"478.23","velocity":0.10236220472440945,"duration":"0.03"},{"name":"B5","midi":83,"time":"478.24","velocity":0.33070866141732286,"duration":"0.14"},{"name":"A#2","midi":46,"time":"478.27","velocity":0.3543307086614173,"duration":"0.02"},{"name":"A#6","midi":94,"time":"478.27","velocity":0.28346456692913385,"duration":"0.14"},{"name":"C6","midi":84,"time":"478.28","velocity":0.28346456692913385,"duration":"0.03"},{"name":"C#5","midi":73,"time":"478.29","velocity":0.5433070866141733,"duration":"0.63"},{"name":"A#5","midi":82,"time":"478.29","velocity":0.28346456692913385,"duration":"0.05"},{"name":"C#4","midi":61,"time":"478.30","velocity":0.4566929133858268,"duration":"0.24"},{"name":"F#4","midi":66,"time":"478.30","velocity":0.2992125984251969,"duration":"0.02"},{"name":"D#6","midi":87,"time":"478.30","velocity":0.2047244094488189,"duration":"0.05"},{"name":"F6","midi":89,"time":"478.33","velocity":0.2677165354330709,"duration":"0.53"},{"name":"G6","midi":91,"time":"478.33","velocity":0.14960629921259844,"duration":"0.05"},{"name":"F#5","midi":78,"time":"478.34","velocity":0.33858267716535434,"duration":"0.14"},{"name":"G#5","midi":80,"time":"478.34","velocity":0.4409448818897638,"duration":"0.03"},{"name":"C7","midi":96,"time":"478.34","velocity":0.2992125984251969,"duration":"0.59"},{"name":"G4","midi":67,"time":"478.35","velocity":0.30708661417322836,"duration":"0.02"},{"name":"D#6","midi":87,"time":"478.36","velocity":0.1889763779527559,"duration":"0.05"},{"name":"C6","midi":84,"time":"478.37","velocity":0.49606299212598426,"duration":"0.02"},{"name":"G#5","midi":80,"time":"478.38","velocity":0.4015748031496063,"duration":"0.02"},{"name":"A#5","midi":82,"time":"478.38","velocity":0.3779527559055118,"duration":"0.02"},{"name":"F2","midi":41,"time":"478.40","velocity":0.33858267716535434,"duration":"0.02"},{"name":"F#4","midi":66,"time":"478.40","velocity":0.31496062992125984,"duration":"0.02"},{"name":"E3","midi":52,"time":"478.41","velocity":0.4330708661417323,"duration":"0.13"},{"name":"A5","midi":81,"time":"478.41","velocity":0.5354330708661418,"duration":"0.35"},{"name":"B5","midi":83,"time":"478.41","velocity":0.2204724409448819,"duration":"0.06"},{"name":"G7","midi":103,"time":"478.41","velocity":0.1968503937007874,"duration":"0.62"},{"name":"D#6","midi":87,"time":"478.42","velocity":0.13385826771653545,"duration":"0.03"},{"name":"G6","midi":91,"time":"478.42","velocity":0.23622047244094488,"duration":"0.07"},{"name":"A#6","midi":94,"time":"478.42","velocity":0.28346456692913385,"duration":"0.17"},{"name":"C6","midi":84,"time":"478.44","velocity":0.28346456692913385,"duration":"0.05"},{"name":"F#4","midi":66,"time":"478.45","velocity":0.25196850393700787,"duration":"0.03"},{"name":"G#1","midi":32,"time":"478.48","velocity":0.33070866141732286,"duration":"0.02"},{"name":"D#6","midi":87,"time":"478.49","velocity":0.25196850393700787,"duration":"0.03"},{"name":"F#6","midi":90,"time":"478.49","velocity":0.23622047244094488,"duration":"0.10"},{"name":"F4","midi":65,"time":"478.50","velocity":0.2283464566929134,"duration":"0.02"},{"name":"F#5","midi":78,"time":"478.50","velocity":0.30708661417322836,"duration":"0.06"},{"name":"G6","midi":91,"time":"478.50","velocity":0.1968503937007874,"duration":"0.03"},{"name":"F#2","midi":42,"time":"478.52","velocity":0.36220472440944884,"duration":"0.02"},{"name":"B4","midi":71,"time":"478.52","velocity":0.2283464566929134,"duration":"0.02"},{"name":"B6","midi":95,"time":"478.53","velocity":0.3464566929133858,"duration":"0.44"},{"name":"E4","midi":64,"time":"478.55","velocity":0.4645669291338583,"duration":"0.02"},{"name":"G6","midi":91,"time":"478.55","velocity":0.28346456692913385,"duration":"0.03"},{"name":"D7","midi":98,"time":"478.55","velocity":0.2992125984251969,"duration":"0.29"},{"name":"A#2","midi":46,"time":"478.56","velocity":0.3700787401574803,"duration":"0.02"},{"name":"E3","midi":52,"time":"478.56","velocity":0.4881889763779528,"duration":"0.02"},{"name":"G#4","midi":68,"time":"478.56","velocity":0.48031496062992124,"duration":"0.02"},{"name":"A#4","midi":70,"time":"478.56","velocity":0.4881889763779528,"duration":"0.05"},{"name":"G5","midi":79,"time":"478.56","velocity":0.2440944881889764,"duration":"0.02"},{"name":"B5","midi":83,"time":"478.56","velocity":0.2992125984251969,"duration":"0.08"},{"name":"C#4","midi":61,"time":"478.57","velocity":0.5275590551181102,"duration":"0.06"},{"name":"F#4","midi":66,"time":"478.57","velocity":0.3779527559055118,"duration":"0.02"},{"name":"D6","midi":86,"time":"478.57","velocity":0.2283464566929134,"duration":"0.02"},{"name":"F3","midi":53,"time":"478.58","velocity":0.5433070866141733,"duration":"0.01"},{"name":"A#1","midi":34,"time":"478.59","velocity":0.2755905511811024,"duration":"0.02"},{"name":"E3","midi":52,"time":"478.59","velocity":0.5118110236220472,"duration":"0.03"},{"name":"F5","midi":77,"time":"478.59","velocity":0.2283464566929134,"duration":"0.02"},{"name":"G6","midi":91,"time":"478.59","velocity":0.2204724409448819,"duration":"0.07"},{"name":"A4","midi":69,"time":"478.60","velocity":0.33858267716535434,"duration":"0.05"},{"name":"G#5","midi":80,"time":"478.60","velocity":0.3937007874015748,"duration":"0.02"},{"name":"A#6","midi":94,"time":"478.60","velocity":0.33858267716535434,"duration":"0.14"},{"name":"A3","midi":57,"time":"478.62","velocity":0.49606299212598426,"duration":"0.06"},{"name":"F#5","midi":78,"time":"478.62","velocity":0.28346456692913385,"duration":"0.05"},{"name":"E3","midi":52,"time":"478.64","velocity":0.5433070866141733,"duration":"0.28"},{"name":"C#4","midi":61,"time":"478.64","velocity":0.41732283464566927,"duration":"0.27"},{"name":"G#4","midi":68,"time":"478.64","velocity":0.25196850393700787,"duration":"0.02"},{"name":"A2","midi":45,"time":"478.65","velocity":0.4409448818897638,"duration":"0.12"},{"name":"B4","midi":71,"time":"478.65","velocity":0.25984251968503935,"duration":"0.06"},{"name":"F4","midi":65,"time":"478.66","velocity":0.23622047244094488,"duration":"0.02"},{"name":"G5","midi":79,"time":"478.66","velocity":0.2047244094488189,"duration":"0.03"},{"name":"B5","midi":83,"time":"478.67","velocity":0.3543307086614173,"duration":"0.16"},{"name":"G6","midi":91,"time":"478.67","velocity":0.2677165354330709,"duration":"0.10"},{"name":"D#5","midi":75,"time":"478.69","velocity":0.29133858267716534,"duration":"0.05"},{"name":"C6","midi":84,"time":"478.69","velocity":0.5039370078740157,"duration":"0.02"},{"name":"G4","midi":67,"time":"478.70","velocity":0.2440944881889764,"duration":"0.02"},{"name":"F#5","midi":78,"time":"478.70","velocity":0.33858267716535434,"duration":"0.13"},{"name":"C2","midi":36,"time":"478.71","velocity":0.2755905511811024,"duration":"0.02"},{"name":"E5","midi":76,"time":"478.72","velocity":0.2125984251968504,"duration":"0.03"},{"name":"G#5","midi":80,"time":"478.73","velocity":0.48031496062992124,"duration":"0.05"},{"name":"D#5","midi":75,"time":"478.74","velocity":0.2440944881889764,"duration":"0.02"},{"name":"A3","midi":57,"time":"478.77","velocity":0.4330708661417323,"duration":"0.07"},{"name":"F#4","midi":66,"time":"478.77","velocity":0.30708661417322836,"duration":"0.06"},{"name":"E5","midi":76,"time":"478.77","velocity":0.28346456692913385,"duration":"0.10"},{"name":"A5","midi":81,"time":"478.77","velocity":0.5826771653543307,"duration":"0.14"},{"name":"D6","midi":86,"time":"478.77","velocity":0.49606299212598426,"duration":"0.02"},{"name":"C#6","midi":85,"time":"478.78","velocity":0.6929133858267716,"duration":"2.44"},{"name":"D#6","midi":87,"time":"478.78","velocity":0.2125984251968504,"duration":"0.24"},{"name":"A#6","midi":94,"time":"478.79","velocity":0.30708661417322836,"duration":"0.07"},{"name":"A2","midi":45,"time":"478.80","velocity":0.4409448818897638,"duration":"0.08"},{"name":"G5","midi":79,"time":"478.81","velocity":0.29133858267716534,"duration":"0.07"},{"name":"F#4","midi":66,"time":"478.84","velocity":0.33070866141732286,"duration":"0.02"},{"name":"B5","midi":83,"time":"478.85","velocity":0.47244094488188976,"duration":"0.50"},{"name":"D7","midi":98,"time":"478.85","velocity":0.33858267716535434,"duration":"0.48"},{"name":"F#5","midi":78,"time":"478.87","velocity":0.30708661417322836,"duration":"0.10"},{"name":"A#6","midi":94,"time":"478.87","velocity":0.3228346456692913,"duration":"0.19"},{"name":"G6","midi":91,"time":"478.88","velocity":0.2677165354330709,"duration":"0.14"},{"name":"B4","midi":71,"time":"478.90","velocity":0.3779527559055118,"duration":"0.13"},{"name":"G#2","midi":44,"time":"478.91","velocity":0.41732283464566927,"duration":"0.02"},{"name":"F5","midi":77,"time":"478.92","velocity":0.2755905511811024,"duration":"0.05"},{"name":"G#5","midi":80,"time":"478.92","velocity":0.3858267716535433,"duration":"0.03"},{"name":"A5","midi":81,"time":"478.92","velocity":0.4566929133858268,"duration":"0.05"},{"name":"F#4","midi":66,"time":"478.93","velocity":0.3228346456692913,"duration":"0.02"},{"name":"C#5","midi":73,"time":"478.93","velocity":0.4645669291338583,"duration":"0.15"},{"name":"F4","midi":65,"time":"478.95","velocity":0.2755905511811024,"duration":"0.02"},{"name":"D5","midi":74,"time":"478.95","velocity":0.2677165354330709,"duration":"0.02"},{"name":"C#4","midi":61,"time":"478.97","velocity":0.2440944881889764,"duration":"0.02"},{"name":"A4","midi":69,"time":"478.97","velocity":0.28346456692913385,"duration":"0.03"},{"name":"G#5","midi":80,"time":"478.97","velocity":0.4251968503937008,"duration":"0.05"},{"name":"F#6","midi":90,"time":"478.97","velocity":0.3779527559055118,"duration":"0.69"},{"name":"C7","midi":96,"time":"478.97","velocity":0.29133858267716534,"duration":"0.28"},{"name":"E5","midi":76,"time":"478.98","velocity":0.3464566929133858,"duration":"0.37"},{"name":"A#5","midi":82,"time":"478.98","velocity":0.3464566929133858,"duration":"0.02"},{"name":"F#1","midi":30,"time":"478.99","velocity":0.30708661417322836,"duration":"0.02"},{"name":"A2","midi":45,"time":"478.99","velocity":0.5196850393700787,"duration":"0.29"},{"name":"F3","midi":53,"time":"478.99","velocity":0.44881889763779526,"duration":"0.02"},{"name":"C4","midi":60,"time":"478.99","velocity":0.3543307086614173,"duration":"0.02"},{"name":"A5","midi":81,"time":"478.99","velocity":0.5275590551181102,"duration":"0.30"},{"name":"D#3","midi":51,"time":"479.01","velocity":0.4330708661417323,"duration":"0.02"},{"name":"C#4","midi":61,"time":"479.01","velocity":0.25984251968503935,"duration":"0.02"},{"name":"A4","midi":69,"time":"479.01","velocity":0.25196850393700787,"duration":"0.03"},{"name":"G5","midi":79,"time":"479.01","velocity":0.1889763779527559,"duration":"0.03"},{"name":"B4","midi":71,"time":"479.03","velocity":0.2204724409448819,"duration":"0.03"},{"name":"D6","midi":86,"time":"479.03","velocity":0.2283464566929134,"duration":"0.02"},{"name":"F6","midi":89,"time":"479.03","velocity":0.2047244094488189,"duration":"0.16"},{"name":"G7","midi":103,"time":"479.03","velocity":0.14960629921259844,"duration":"0.06"},{"name":"A1","midi":33,"time":"479.05","velocity":0.2677165354330709,"duration":"0.02"},{"name":"D#3","midi":51,"time":"479.05","velocity":0.4566929133858268,"duration":"0.02"},{"name":"C4","midi":60,"time":"479.05","velocity":0.23622047244094488,"duration":"0.02"},{"name":"G4","midi":67,"time":"479.05","velocity":0.2440944881889764,"duration":"0.02"},{"name":"F#5","midi":78,"time":"479.06","velocity":0.2677165354330709,"duration":"0.05"},{"name":"D#6","midi":87,"time":"479.06","velocity":0.2755905511811024,"duration":"0.07"},{"name":"C#4","midi":61,"time":"479.07","velocity":0.28346456692913385,"duration":"0.02"},{"name":"F#4","midi":66,"time":"479.07","velocity":0.2440944881889764,"duration":"0.02"},{"name":"A4","midi":69,"time":"479.07","velocity":0.33070866141732286,"duration":"0.10"},{"name":"G6","midi":91,"time":"479.07","velocity":0.18110236220472442,"duration":"0.03"},{"name":"A#6","midi":94,"time":"479.07","velocity":0.29133858267716534,"duration":"0.33"},{"name":"D6","midi":86,"time":"479.08","velocity":0.3543307086614173,"duration":"0.02"},{"name":"E3","midi":52,"time":"479.09","velocity":0.4015748031496063,"duration":"0.02"},{"name":"G5","midi":79,"time":"479.09","velocity":0.2755905511811024,"duration":"0.02"},{"name":"F#4","midi":66,"time":"479.10","velocity":0.2755905511811024,"duration":"0.05"},{"name":"B4","midi":71,"time":"479.10","velocity":0.31496062992125984,"duration":"0.03"},{"name":"C#5","midi":73,"time":"479.10","velocity":0.5433070866141733,"duration":"0.21"},{"name":"G#5","midi":80,"time":"479.10","velocity":0.3543307086614173,"duration":"0.02"},{"name":"G7","midi":103,"time":"479.10","velocity":0.23622047244094488,"duration":"0.15"},{"name":"G6","midi":91,"time":"479.12","velocity":0.1889763779527559,"duration":"0.13"},{"name":"D6","midi":86,"time":"479.13","velocity":0.1732283464566929,"duration":"0.03"},{"name":"F#5","midi":78,"time":"479.14","velocity":0.2992125984251969,"duration":"0.19"},{"name":"B4","midi":71,"time":"479.15","velocity":0.4094488188976378,"duration":"0.13"},{"name":"E3","midi":52,"time":"479.17","velocity":0.41732283464566927,"duration":"0.02"},{"name":"C#4","midi":61,"time":"479.20","velocity":0.2755905511811024,"duration":"0.05"},{"name":"E4","midi":64,"time":"479.20","velocity":0.33858267716535434,"duration":"0.12"},{"name":"E3","midi":52,"time":"479.21","velocity":0.3779527559055118,"duration":"0.06"},{"name":"G#5","midi":80,"time":"479.24","velocity":0.3858267716535433,"duration":"0.02"},{"name":"D6","midi":86,"time":"479.24","velocity":0.33070866141732286,"duration":"0.02"},{"name":"D#6","midi":87,"time":"479.26","velocity":0.12598425196850394,"duration":"0.06"},{"name":"F6","midi":89,"time":"479.26","velocity":0.29133858267716534,"duration":"0.12"},{"name":"C7","midi":96,"time":"479.27","velocity":0.29133858267716534,"duration":"0.19"},{"name":"G7","midi":103,"time":"479.27","velocity":0.2125984251968504,"duration":"0.10"},{"name":"G#5","midi":80,"time":"479.28","velocity":0.4409448818897638,"duration":"0.06"},{"name":"D6","midi":86,"time":"479.28","velocity":0.18110236220472442,"duration":"0.03"},{"name":"A#2","midi":46,"time":"479.29","velocity":0.6141732283464567,"duration":"0.01"},{"name":"C4","midi":60,"time":"479.29","velocity":0.33070866141732286,"duration":"0.02"},{"name":"A#5","midi":82,"time":"479.29","velocity":0.2677165354330709,"duration":"0.02"},{"name":"A2","midi":45,"time":"479.30","velocity":0.6377952755905512,"duration":"0.01"},{"name":"F3","midi":53,"time":"479.31","velocity":0.5039370078740157,"duration":"0.03"},{"name":"D5","midi":74,"time":"479.31","velocity":0.4015748031496063,"duration":"0.02"},{"name":"A5","midi":81,"time":"479.31","velocity":0.5275590551181102,"duration":"0.15"},{"name":"C#4","midi":61,"time":"479.33","velocity":0.2755905511811024,"duration":"0.02"},{"name":"G6","midi":91,"time":"479.33","velocity":0.14960629921259844,"duration":"0.03"},{"name":"G1","midi":31,"time":"479.34","velocity":0.5275590551181102,"duration":"0.01"},{"name":"A3","midi":57,"time":"479.34","velocity":0.33070866141732286,"duration":"0.02"},{"name":"C#5","midi":73,"time":"479.34","velocity":0.5748031496062992,"duration":"0.06"},{"name":"F#5","midi":78,"time":"479.34","velocity":0.2440944881889764,"duration":"0.03"},{"name":"D7","midi":98,"time":"479.34","velocity":0.2755905511811024,"duration":"0.60"},{"name":"F#1","midi":30,"time":"479.35","velocity":0.5196850393700787,"duration":"0.01"},{"name":"A#2","midi":46,"time":"479.35","velocity":0.4251968503937008,"duration":"0.02"},{"name":"E4","midi":64,"time":"479.35","velocity":0.25984251968503935,"duration":"0.03"},{"name":"G#5","midi":80,"time":"479.35","velocity":0.3543307086614173,"duration":"0.03"},{"name":"C6","midi":84,"time":"479.35","velocity":0.2440944881889764,"duration":"0.03"},{"name":"G#3","midi":56,"time":"479.36","velocity":0.29133858267716534,"duration":"0.03"},{"name":"G5","midi":79,"time":"479.36","velocity":0.29133858267716534,"duration":"0.09"},{"name":"C#4","midi":61,"time":"479.37","velocity":0.30708661417322836,"duration":"0.02"},{"name":"F#4","midi":66,"time":"479.37","velocity":0.3700787401574803,"duration":"0.03"},{"name":"F5","midi":77,"time":"479.37","velocity":0.23622047244094488,"duration":"0.08"},{"name":"B5","midi":83,"time":"479.37","velocity":0.3228346456692913,"duration":"0.09"},{"name":"E6","midi":88,"time":"479.38","velocity":0.2283464566929134,"duration":"0.31"},{"name":"G7","midi":103,"time":"479.38","velocity":0.2047244094488189,"duration":"0.07"},{"name":"A2","midi":45,"time":"479.40","velocity":0.4881889763779528,"duration":"0.03"},{"name":"C4","midi":60,"time":"479.40","velocity":0.28346456692913385,"duration":"0.02"},{"name":"E4","midi":64,"time":"479.40","velocity":0.31496062992125984,"duration":"0.02"},{"name":"C#5","midi":73,"time":"479.41","velocity":0.5433070866141733,"duration":"0.10"},{"name":"C#4","midi":61,"time":"479.42","velocity":0.2755905511811024,"duration":"0.05"},{"name":"F#4","midi":66,"time":"479.42","velocity":0.30708661417322836,"duration":"0.03"},{"name":"B4","midi":71,"time":"479.42","velocity":0.3543307086614173,"duration":"0.07"},{"name":"A#6","midi":94,"time":"479.43","velocity":0.1889763779527559,"duration":"0.03"},{"name":"A2","midi":45,"time":"479.44","velocity":0.5275590551181102,"duration":"0.01"},{"name":"E5","midi":76,"time":"479.44","velocity":0.3937007874015748,"duration":"0.27"},{"name":"A3","midi":57,"time":"479.45","velocity":0.4251968503937008,"duration":"0.20"},{"name":"E4","midi":64,"time":"479.45","velocity":0.2755905511811024,"duration":"0.06"},{"name":"F#5","midi":78,"time":"479.45","velocity":0.2755905511811024,"duration":"0.07"},{"name":"F#4","midi":66,"time":"479.47","velocity":0.33070866141732286,"duration":"0.07"},{"name":"G#5","midi":80,"time":"479.47","velocity":0.33858267716535434,"duration":"0.02"},{"name":"C7","midi":96,"time":"479.47","velocity":0.2125984251968504,"duration":"0.19"},{"name":"A2","midi":45,"time":"479.48","velocity":0.5275590551181102,"duration":"0.05"},{"name":"A5","midi":81,"time":"479.48","velocity":0.5275590551181102,"duration":"0.07"},{"name":"B5","midi":83,"time":"479.48","velocity":0.3700787401574803,"duration":"0.08"},{"name":"D#6","midi":87,"time":"479.49","velocity":0.14960629921259844,"duration":"0.03"},{"name":"A#6","midi":94,"time":"479.49","velocity":0.25984251968503935,"duration":"0.14"},{"name":"G6","midi":91,"time":"479.50","velocity":0.25984251968503935,"duration":"0.05"},{"name":"D#7","midi":99,"time":"479.50","velocity":0.33070866141732286,"duration":"2.50"},{"name":"G#2","midi":44,"time":"479.52","velocity":0.5275590551181102,"duration":"0.01"},{"name":"E4","midi":64,"time":"479.52","velocity":0.33858267716535434,"duration":"0.06"},{"name":"C#5","midi":73,"time":"479.52","velocity":0.48031496062992124,"duration":"0.13"},{"name":"G5","midi":79,"time":"479.52","velocity":0.2677165354330709,"duration":"0.03"},{"name":"A2","midi":45,"time":"479.53","velocity":0.5039370078740157,"duration":"0.05"},{"name":"E3","midi":52,"time":"479.53","velocity":0.3779527559055118,"duration":"0.03"},{"name":"C#4","midi":61,"time":"479.53","velocity":0.2283464566929134,"duration":"0.07"},{"name":"D#6","midi":87,"time":"479.53","velocity":0.14960629921259844,"duration":"0.06"},{"name":"B4","midi":71,"time":"479.55","velocity":0.23622047244094488,"duration":"0.03"},{"name":"G#5","midi":80,"time":"479.55","velocity":0.3700787401574803,"duration":"0.02"},{"name":"A#5","midi":82,"time":"479.55","velocity":0.3858267716535433,"duration":"0.02"},{"name":"A5","midi":81,"time":"479.57","velocity":0.47244094488188976,"duration":"0.07"},{"name":"B5","midi":83,"time":"479.57","velocity":0.3700787401574803,"duration":"0.15"},{"name":"E3","midi":52,"time":"479.58","velocity":0.4330708661417323,"duration":"0.02"},{"name":"F#4","midi":66,"time":"479.58","velocity":0.30708661417322836,"duration":"0.07"},{"name":"G7","midi":103,"time":"479.58","velocity":0.12598425196850394,"duration":"0.05"},{"name":"G5","midi":79,"time":"479.59","velocity":0.25984251968503935,"duration":"0.03"},{"name":"A2","midi":45,"time":"479.60","velocity":0.5196850393700787,"duration":"0.05"},{"name":"G6","midi":91,"time":"479.60","velocity":0.3543307086614173,"duration":"0.07"},{"name":"A#5","midi":82,"time":"479.62","velocity":0.3700787401574803,"duration":"0.03"},{"name":"G#5","midi":80,"time":"479.63","velocity":0.4094488188976378,"duration":"0.03"},{"name":"F3","midi":53,"time":"479.64","velocity":0.3779527559055118,"duration":"0.02"},{"name":"D#6","midi":87,"time":"479.64","velocity":0.09448818897637795,"duration":"0.03"},{"name":"A#2","midi":46,"time":"479.65","velocity":0.5196850393700787,"duration":"0.01"},{"name":"D4","midi":62,"time":"479.65","velocity":0.28346456692913385,"duration":"0.02"},{"name":"C5","midi":72,"time":"479.65","velocity":0.36220472440944884,"duration":"0.03"},{"name":"A5","midi":81,"time":"479.65","velocity":0.4566929133858268,"duration":"0.06"},{"name":"B2","midi":47,"time":"479.66","velocity":0.6062992125984252,"duration":"0.01"},{"name":"D#5","midi":75,"time":"479.66","velocity":0.30708661417322836,"duration":"0.02"},{"name":"F#6","midi":90,"time":"479.66","velocity":0.2440944881889764,"duration":"0.02"},{"name":"A#6","midi":94,"time":"479.66","velocity":0.3228346456692913,"duration":"0.33"},{"name":"C7","midi":96,"time":"479.66","velocity":0.30708661417322836,"duration":"0.55"},{"name":"A#2","midi":46,"time":"479.67","velocity":0.6299212598425197,"duration":"0.01"},{"name":"F#4","midi":66,"time":"479.67","velocity":0.33070866141732286,"duration":"0.02"},{"name":"C#5","midi":73,"time":"479.67","velocity":0.44881889763779526,"duration":"0.05"},{"name":"G#5","midi":80,"time":"479.67","velocity":0.47244094488188976,"duration":"0.06"},{"name":"F6","midi":89,"time":"479.67","velocity":0.31496062992125984,"duration":"0.06"},{"name":"F#2","midi":42,"time":"479.69","velocity":0.5826771653543307,"duration":"0.01"},{"name":"F3","midi":53,"time":"479.69","velocity":0.5275590551181102,"duration":"0.02"},{"name":"E4","midi":64,"time":"479.69","velocity":0.36220472440944884,"duration":"0.09"},{"name":"D#6","midi":87,"time":"479.69","velocity":0.1889763779527559,"duration":"0.14"},{"name":"A3","midi":57,"time":"479.70","velocity":0.5118110236220472,"duration":"0.34"},{"name":"A#4","midi":70,"time":"479.70","velocity":0.2992125984251969,"duration":"0.02"},{"name":"D6","midi":86,"time":"479.70","velocity":0.48031496062992124,"duration":"0.02"},{"name":"F#6","midi":90,"time":"479.70","velocity":0.25984251968503935,"duration":"0.21"},{"name":"F#1","midi":30,"time":"479.71","velocity":0.5669291338582677,"duration":"0.03"},{"name":"C#4","midi":61,"time":"479.71","velocity":0.5118110236220472,"duration":"0.35"},{"name":"F5","midi":77,"time":"479.71","velocity":0.2125984251968504,"duration":"0.03"},{"name":"A#5","midi":82,"time":"479.71","velocity":0.3779527559055118,"duration":"0.03"},{"name":"A5","midi":81,"time":"479.72","velocity":0.5669291338582677,"duration":"0.81"},{"name":"C6","midi":84,"time":"479.72","velocity":0.2047244094488189,"duration":"0.03"},{"name":"C#5","midi":73,"time":"479.73","velocity":0.5748031496062992,"duration":"0.53"},{"name":"B5","midi":83,"time":"479.73","velocity":0.14173228346456693,"duration":"0.06"},{"name":"D3","midi":50,"time":"479.74","velocity":0.4251968503937008,"duration":"0.02"},{"name":"F#5","midi":78,"time":"479.74","velocity":0.29133858267716534,"duration":"0.08"},{"name":"F6","midi":89,"time":"479.74","velocity":0.3464566929133858,"duration":"0.15"},{"name":"G6","midi":91,"time":"479.74","velocity":0.25196850393700787,"duration":"0.14"},{"name":"C6","midi":84,"time":"479.78","velocity":0.5118110236220472,"duration":"0.02"},{"name":"C#3","midi":49,"time":"479.79","velocity":0.29133858267716534,"duration":"0.03"},{"name":"D#2","midi":39,"time":"479.80","velocity":0.3700787401574803,"duration":"0.02"},{"name":"G#5","midi":80,"time":"479.80","velocity":0.4330708661417323,"duration":"0.02"},{"name":"E4","midi":64,"time":"479.83","velocity":0.2992125984251969,"duration":"0.02"},{"name":"C6","midi":84,"time":"479.83","velocity":0.2283464566929134,"duration":"0.02"},{"name":"D#2","midi":39,"time":"479.84","velocity":0.36220472440944884,"duration":"0.02"},{"name":"D#6","midi":87,"time":"479.84","velocity":0.41732283464566927,"duration":"0.20"},{"name":"E4","midi":64,"time":"479.86","velocity":0.3464566929133858,"duration":"0.02"},{"name":"D6","midi":86,"time":"479.86","velocity":0.3937007874015748,"duration":"0.02"},{"name":"F#5","midi":78,"time":"479.87","velocity":0.2440944881889764,"duration":"0.07"},{"name":"B5","midi":83,"time":"479.87","velocity":0.2440944881889764,"duration":"0.02"},{"name":"F2","midi":41,"time":"479.90","velocity":0.4094488188976378,"duration":"0.02"},{"name":"B5","midi":83,"time":"479.91","velocity":0.3464566929133858,"duration":"0.15"},{"name":"G6","midi":91,"time":"479.91","velocity":0.15748031496062992,"duration":"0.13"},{"name":"B4","midi":71,"time":"479.92","velocity":0.2440944881889764,"duration":"0.06"},{"name":"G#5","midi":80,"time":"479.92","velocity":0.3858267716535433,"duration":"0.06"},{"name":"F2","midi":41,"time":"479.93","velocity":0.4566929133858268,"duration":"0.02"},{"name":"E4","midi":64,"time":"479.93","velocity":0.30708661417322836,"duration":"0.03"},{"name":"C6","midi":84,"time":"479.93","velocity":0.5196850393700787,"duration":"0.03"},{"name":"F#6","midi":90,"time":"479.93","velocity":0.25196850393700787,"duration":"0.13"},{"name":"G5","midi":79,"time":"479.94","velocity":0.25196850393700787,"duration":"0.02"},{"name":"G7","midi":103,"time":"479.94","velocity":0.2047244094488189,"duration":"0.05"},{"name":"D#2","midi":39,"time":"479.95","velocity":0.47244094488188976,"duration":"0.02"},{"name":"F#5","midi":78,"time":"479.95","velocity":0.2440944881889764,"duration":"0.05"},{"name":"F6","midi":89,"time":"479.95","velocity":0.25984251968503935,"duration":"0.08"},{"name":"D7","midi":98,"time":"479.97","velocity":0.29133858267716534,"duration":"0.30"},{"name":"F#4","midi":66,"time":"479.98","velocity":0.3543307086614173,"duration":"0.05"},{"name":"B4","midi":71,"time":"479.99","velocity":0.2992125984251969,"duration":"0.03"},{"name":"A#6","midi":94,"time":"480.00","velocity":0.2677165354330709,"duration":"0.08"},{"name":"G7","midi":103,"time":"480.01","velocity":0.1968503937007874,"duration":"0.17"},{"name":"A#4","midi":70,"time":"480.02","velocity":0.4566929133858268,"duration":"0.03"},{"name":"D#5","midi":75,"time":"480.02","velocity":0.3858267716535433,"duration":"0.02"},{"name":"E5","midi":76,"time":"480.03","velocity":0.44881889763779526,"duration":"0.08"},{"name":"G5","midi":79,"time":"480.03","velocity":0.4015748031496063,"duration":"0.03"},{"name":"D6","midi":86,"time":"480.03","velocity":0.30708661417322836,"duration":"0.05"},{"name":"F#4","midi":66,"time":"480.05","velocity":0.3779527559055118,"duration":"0.03"},{"name":"E3","midi":52,"time":"480.06","velocity":0.5118110236220472,"duration":"0.36"},{"name":"A4","midi":69,"time":"480.06","velocity":0.4566929133858268,"duration":"0.30"},{"name":"C6","midi":84,"time":"480.06","velocity":0.25984251968503935,"duration":"0.02"},{"name":"C#4","midi":61,"time":"480.07","velocity":0.3858267716535433,"duration":"0.03"},{"name":"D#6","midi":87,"time":"480.07","velocity":0.3700787401574803,"duration":"0.15"},{"name":"F4","midi":65,"time":"480.08","velocity":0.33858267716535434,"duration":"0.02"},{"name":"B4","midi":71,"time":"480.08","velocity":0.30708661417322836,"duration":"0.02"},{"name":"F2","midi":41,"time":"480.09","velocity":0.3779527559055118,"duration":"0.02"},{"name":"A#3","midi":58,"time":"480.09","velocity":0.3700787401574803,"duration":"0.03"},{"name":"A#5","midi":82,"time":"480.09","velocity":0.31496062992125984,"duration":"0.02"},{"name":"F#4","midi":66,"time":"480.10","velocity":0.2677165354330709,"duration":"0.02"},{"name":"D#5","midi":75,"time":"480.10","velocity":0.25196850393700787,"duration":"0.02"},{"name":"C#4","midi":61,"time":"480.12","velocity":0.4566929133858268,"duration":"0.30"},{"name":"B4","midi":71,"time":"480.12","velocity":0.2992125984251969,"duration":"0.02"},{"name":"G#5","midi":80,"time":"480.12","velocity":0.4015748031496063,"duration":"0.03"},{"name":"E5","midi":76,"time":"480.13","velocity":0.28346456692913385,"duration":"0.05"},{"name":"E2","midi":40,"time":"480.15","velocity":0.33858267716535434,"duration":"0.03"},{"name":"F#4","midi":66,"time":"480.15","velocity":0.28346456692913385,"duration":"0.02"},{"name":"C6","midi":84,"time":"480.15","velocity":0.28346456692913385,"duration":"0.02"},{"name":"E6","midi":88,"time":"480.15","velocity":0.36220472440944884,"duration":"0.14"},{"name":"A#6","midi":94,"time":"480.15","velocity":0.2992125984251969,"duration":"0.17"},{"name":"G#5","midi":80,"time":"480.16","velocity":0.29133858267716534,"duration":"0.02"},{"name":"F6","midi":89,"time":"480.17","velocity":0.1889763779527559,"duration":"0.10"},{"name":"E5","midi":76,"time":"480.20","velocity":0.2992125984251969,"duration":"0.20"},{"name":"G#5","midi":80,"time":"480.20","velocity":0.3228346456692913,"duration":"0.09"},{"name":"A#5","midi":82,"time":"480.20","velocity":0.31496062992125984,"duration":"0.02"},{"name":"G5","midi":79,"time":"480.21","velocity":0.23622047244094488,"duration":"0.02"},{"name":"B5","midi":83,"time":"480.23","velocity":0.31496062992125984,"duration":"0.20"},{"name":"C7","midi":96,"time":"480.23","velocity":0.2204724409448819,"duration":"0.03"},{"name":"D#6","midi":87,"time":"480.24","velocity":0.2125984251968504,"duration":"0.03"},{"name":"F#6","midi":90,"time":"480.24","velocity":0.3858267716535433,"duration":"0.73"},{"name":"C5","midi":72,"time":"480.27","velocity":0.23622047244094488,"duration":"0.02"},{"name":"F#5","midi":78,"time":"480.27","velocity":0.2677165354330709,"duration":"0.03"},{"name":"C7","midi":96,"time":"480.28","velocity":0.2755905511811024,"duration":"0.51"},{"name":"D#6","midi":87,"time":"480.29","velocity":0.3858267716535433,"duration":"0.05"},{"name":"G5","midi":79,"time":"480.30","velocity":0.2992125984251969,"duration":"0.06"},{"name":"G#5","midi":80,"time":"480.30","velocity":0.33858267716535434,"duration":"0.02"},{"name":"E6","midi":88,"time":"480.30","velocity":0.3700787401574803,"duration":"0.15"},{"name":"G7","midi":103,"time":"480.30","velocity":0.25196850393700787,"duration":"0.13"},{"name":"D7","midi":98,"time":"480.31","velocity":0.2440944881889764,"duration":"0.20"},{"name":"A3","midi":57,"time":"480.33","velocity":0.3858267716535433,"duration":"0.08"},{"name":"F6","midi":89,"time":"480.33","velocity":0.2204724409448819,"duration":"0.17"},{"name":"A#6","midi":94,"time":"480.34","velocity":0.33858267716535434,"duration":"0.45"},{"name":"F#4","midi":66,"time":"480.35","velocity":0.25196850393700787,"duration":"0.02"},{"name":"F#5","midi":78,"time":"480.36","velocity":0.28346456692913385,"duration":"0.03"},{"name":"G#5","midi":80,"time":"480.37","velocity":0.3937007874015748,"duration":"0.05"},{"name":"D#6","midi":87,"time":"480.37","velocity":0.18110236220472442,"duration":"0.05"},{"name":"G6","midi":91,"time":"480.38","velocity":0.1889763779527559,"duration":"0.12"},{"name":"C#5","midi":73,"time":"480.40","velocity":0.5118110236220472,"duration":"0.07"},{"name":"G#2","midi":44,"time":"480.41","velocity":0.4645669291338583,"duration":"0.02"},{"name":"E5","midi":76,"time":"480.41","velocity":0.4015748031496063,"duration":"0.20"},{"name":"F#5","midi":78,"time":"480.41","velocity":0.28346456692913385,"duration":"0.06"},{"name":"D1","midi":26,"time":"480.42","velocity":0.33858267716535434,"duration":"0.03"},{"name":"F3","midi":53,"time":"480.42","velocity":0.4645669291338583,"duration":"0.03"},{"name":"A2","midi":45,"time":"480.43","velocity":0.47244094488188976,"duration":"0.09"},{"name":"B5","midi":83,"time":"480.44","velocity":0.49606299212598426,"duration":"0.38"},{"name":"G7","midi":103,"time":"480.44","velocity":0.1968503937007874,"duration":"0.38"},{"name":"E3","midi":52,"time":"480.45","velocity":0.5196850393700787,"duration":"0.33"},{"name":"B4","midi":71,"time":"480.45","velocity":0.4015748031496063,"duration":"0.22"},{"name":"D#6","midi":87,"time":"480.45","velocity":0.33858267716535434,"duration":"0.09"},{"name":"C#5","midi":73,"time":"480.48","velocity":0.5433070866141733,"duration":"0.44"},{"name":"C6","midi":84,"time":"480.48","velocity":0.2992125984251969,"duration":"0.02"},{"name":"C#4","midi":61,"time":"480.49","velocity":0.28346456692913385,"duration":"0.07"},{"name":"F#5","midi":78,"time":"480.49","velocity":0.13385826771653545,"duration":"0.03"},{"name":"A1","midi":33,"time":"480.51","velocity":0.3937007874015748,"duration":"0.02"},{"name":"G4","midi":67,"time":"480.51","velocity":0.3464566929133858,"duration":"0.02"},{"name":"G6","midi":91,"time":"480.51","velocity":0.2283464566929134,"duration":"0.05"},{"name":"A#5","midi":82,"time":"480.52","velocity":0.4330708661417323,"duration":"0.02"},{"name":"F6","midi":89,"time":"480.52","velocity":0.1889763779527559,"duration":"0.03"},{"name":"D7","midi":98,"time":"480.52","velocity":0.31496062992125984,"duration":"0.37"},{"name":"A2","midi":45,"time":"480.53","velocity":0.5039370078740157,"duration":"0.02"},{"name":"F#5","midi":78,"time":"480.53","velocity":0.25196850393700787,"duration":"0.03"},{"name":"A#1","midi":34,"time":"480.55","velocity":0.33858267716535434,"duration":"0.02"},{"name":"G#5","midi":80,"time":"480.55","velocity":0.29133858267716534,"duration":"0.03"},{"name":"A5","midi":81,"time":"480.55","velocity":0.5354330708661418,"duration":"0.23"},{"name":"A4","midi":69,"time":"480.56","velocity":0.3543307086614173,"duration":"0.05"},{"name":"A2","midi":45,"time":"480.57","velocity":0.5354330708661418,"duration":"0.16"},{"name":"C#4","midi":61,"time":"480.58","velocity":0.4015748031496063,"duration":"0.19"},{"name":"F4","midi":65,"time":"480.60","velocity":0.2440944881889764,"duration":"0.02"},{"name":"A#5","midi":82,"time":"480.60","velocity":0.3858267716535433,"duration":"0.02"},{"name":"G6","midi":91,"time":"480.60","velocity":0.1732283464566929,"duration":"0.05"},{"name":"D#6","midi":87,"time":"480.62","velocity":0.4015748031496063,"duration":"0.16"},{"name":"F6","midi":89,"time":"480.62","velocity":0.13385826771653545,"duration":"0.03"},{"name":"F#4","midi":66,"time":"480.63","velocity":0.25196850393700787,"duration":"0.02"},{"name":"G#5","midi":80,"time":"480.63","velocity":0.29133858267716534,"duration":"0.02"},{"name":"E6","midi":88,"time":"480.63","velocity":0.3228346456692913,"duration":"0.42"},{"name":"E5","midi":76,"time":"480.64","velocity":0.3543307086614173,"duration":"0.19"},{"name":"F#5","midi":78,"time":"480.66","velocity":0.1732283464566929,"duration":"0.06"},{"name":"A4","midi":69,"time":"480.67","velocity":0.4015748031496063,"duration":"0.03"},{"name":"G6","midi":91,"time":"480.67","velocity":0.2125984251968504,"duration":"0.10"},{"name":"F6","midi":89,"time":"480.70","velocity":0.28346456692913385,"duration":"0.08"},{"name":"B4","midi":71,"time":"480.71","velocity":0.4330708661417323,"duration":"0.12"},{"name":"F4","midi":65,"time":"480.72","velocity":0.25984251968503935,"duration":"0.02"},{"name":"G#2","midi":44,"time":"480.73","velocity":0.5118110236220472,"duration":"0.01"},{"name":"F#5","midi":78,"time":"480.73","velocity":0.23622047244094488,"duration":"0.02"},{"name":"A2","midi":45,"time":"480.74","velocity":0.5196850393700787,"duration":"0.02"},{"name":"A4","midi":69,"time":"480.74","velocity":0.2440944881889764,"duration":"0.02"},{"name":"G#5","midi":80,"time":"480.74","velocity":0.3228346456692913,"duration":"0.02"},{"name":"A#3","midi":58,"time":"480.76","velocity":0.33070866141732286,"duration":"0.02"},{"name":"A3","midi":57,"time":"480.78","velocity":0.4409448818897638,"duration":"0.03"},{"name":"G5","midi":79,"time":"480.78","velocity":0.2283464566929134,"duration":"0.02"},{"name":"G#5","midi":80,"time":"480.78","velocity":0.3543307086614173,"duration":"0.02"},{"name":"C3","midi":48,"time":"480.79","velocity":0.5354330708661418,"duration":"0.01"},{"name":"G4","midi":67,"time":"480.79","velocity":0.33070866141732286,"duration":"0.03"},{"name":"A5","midi":81,"time":"480.79","velocity":0.5748031496062992,"duration":"0.16"},{"name":"D#6","midi":87,"time":"480.79","velocity":0.30708661417322836,"duration":"0.03"},{"name":"G#2","midi":44,"time":"480.80","velocity":0.5984251968503937,"duration":"0.03"},{"name":"D6","midi":86,"time":"480.80","velocity":0.3937007874015748,"duration":"0.03"},{"name":"F6","midi":89,"time":"480.80","velocity":0.1889763779527559,"duration":"0.07"},{"name":"G6","midi":91,"time":"480.80","velocity":0.33070866141732286,"duration":"0.02"},{"name":"A#6","midi":94,"time":"480.80","velocity":0.28346456692913385,"duration":"0.12"},{"name":"A#3","midi":58,"time":"480.81","velocity":0.33858267716535434,"duration":"0.02"},{"name":"F5","midi":77,"time":"480.81","velocity":0.29133858267716534,"duration":"0.03"},{"name":"G#5","midi":80,"time":"480.81","velocity":0.3937007874015748,"duration":"0.05"},{"name":"C7","midi":96,"time":"480.81","velocity":0.25196850393700787,"duration":"0.20"},{"name":"E1","midi":28,"time":"480.83","velocity":0.5196850393700787,"duration":"0.01"},{"name":"A4","midi":69,"time":"480.83","velocity":0.2677165354330709,"duration":"0.05"},{"name":"F1","midi":29,"time":"480.84","velocity":0.5511811023622047,"duration":"0.01"},{"name":"A3","midi":57,"time":"480.84","velocity":0.4094488188976378,"duration":"0.02"},{"name":"E5","midi":76,"time":"480.84","velocity":0.3700787401574803,"duration":"0.36"},{"name":"B5","midi":83,"time":"480.84","velocity":0.36220472440944884,"duration":"0.27"},{"name":"D#6","midi":87,"time":"480.84","velocity":0.14173228346456693,"duration":"0.06"},{"name":"G6","midi":91,"time":"480.84","velocity":0.29133858267716534,"duration":"0.24"},{"name":"D#3","midi":51,"time":"480.85","velocity":0.5118110236220472,"duration":"0.02"},{"name":"G4","midi":67,"time":"480.86","velocity":0.3543307086614173,"duration":"0.02"},{"name":"B4","midi":71,"time":"480.86","velocity":0.3228346456692913,"duration":"0.03"},{"name":"C2","midi":36,"time":"480.87","velocity":0.5433070866141733,"duration":"0.02"},{"name":"E3","midi":52,"time":"480.87","velocity":0.44881889763779526,"duration":"0.02"},{"name":"A3","midi":57,"time":"480.87","velocity":0.3937007874015748,"duration":"0.05"},{"name":"F#4","midi":66,"time":"480.88","velocity":0.2440944881889764,"duration":"0.02"},{"name":"F6","midi":89,"time":"480.88","velocity":0.29133858267716534,"duration":"0.41"},{"name":"D#3","midi":51,"time":"480.90","velocity":0.5118110236220472,"duration":"0.01"},{"name":"C6","midi":84,"time":"480.90","velocity":0.5275590551181102,"duration":"0.01"},{"name":"D6","midi":86,"time":"480.90","velocity":0.10236220472440945,"duration":"0.03"},{"name":"E3","midi":52,"time":"480.91","velocity":0.5354330708661418,"duration":"0.02"},{"name":"B4","midi":71,"time":"480.91","velocity":0.31496062992125984,"duration":"0.05"},{"name":"C5","midi":72,"time":"480.91","velocity":0.25196850393700787,"duration":"0.02"},{"name":"D7","midi":98,"time":"480.92","velocity":0.25984251968503935,"duration":"0.02"},{"name":"D#3","midi":51,"time":"480.93","velocity":0.5196850393700787,"duration":"0.01"},{"name":"A3","midi":57,"time":"480.93","velocity":0.4251968503937008,"duration":"0.06"},{"name":"C#4","midi":61,"time":"480.93","velocity":0.3543307086614173,"duration":"0.05"},{"name":"C#5","midi":73,"time":"480.93","velocity":0.5590551181102362,"duration":"0.53"},{"name":"F#5","midi":78,"time":"480.93","velocity":0.28346456692913385,"duration":"0.03"},{"name":"D#6","midi":87,"time":"480.93","velocity":0.2992125984251969,"duration":"0.07"},{"name":"A#6","midi":94,"time":"480.93","velocity":0.23622047244094488,"duration":"0.12"},{"name":"E3","midi":52,"time":"480.94","velocity":0.5118110236220472,"duration":"0.08"},{"name":"G#5","midi":80,"time":"480.94","velocity":0.44881889763779526,"duration":"0.09"},{"name":"C6","midi":84,"time":"480.95","velocity":0.3464566929133858,"duration":"0.02"},{"name":"D7","midi":98,"time":"480.95","velocity":0.3228346456692913,"duration":"0.76"},{"name":"A5","midi":81,"time":"480.97","velocity":0.5354330708661418,"duration":"0.16"},{"name":"C#4","midi":61,"time":"480.99","velocity":0.3700787401574803,"duration":"0.23"},{"name":"D#6","midi":87,"time":"481.01","velocity":0.1889763779527559,"duration":"0.07"},{"name":"F#6","midi":90,"time":"481.01","velocity":0.18110236220472442,"duration":"0.10"},{"name":"C7","midi":96,"time":"481.02","velocity":0.33070866141732286,"duration":"0.47"},{"name":"E3","midi":52,"time":"481.03","velocity":0.47244094488188976,"duration":"0.12"},{"name":"F4","midi":65,"time":"481.03","velocity":0.23622047244094488,"duration":"0.02"},{"name":"F#5","midi":78,"time":"481.05","velocity":0.2755905511811024,"duration":"0.02"},{"name":"C6","midi":84,"time":"481.05","velocity":0.49606299212598426,"duration":"0.02"},{"name":"D#2","midi":39,"time":"481.06","velocity":0.44881889763779526,"duration":"0.02"},{"name":"F#4","midi":66,"time":"481.06","velocity":0.25984251968503935,"duration":"0.05"},{"name":"A#6","midi":94,"time":"481.06","velocity":0.33070866141732286,"duration":"0.26"},{"name":"A#4","midi":70,"time":"481.07","velocity":0.31496062992125984,"duration":"0.02"},{"name":"D6","midi":86,"time":"481.08","velocity":0.2047244094488189,"duration":"0.03"},{"name":"A4","midi":69,"time":"481.09","velocity":0.2204724409448819,"duration":"0.03"},{"name":"G4","midi":67,"time":"481.10","velocity":0.25196850393700787,"duration":"0.02"},{"name":"G#5","midi":80,"time":"481.10","velocity":0.4251968503937008,"duration":"0.08"},{"name":"A3","midi":57,"time":"481.12","velocity":0.3543307086614173,"duration":"0.02"},{"name":"A#5","midi":82,"time":"481.12","velocity":0.3779527559055118,"duration":"0.03"},{"name":"D#6","midi":87,"time":"481.12","velocity":0.2755905511811024,"duration":"0.10"},{"name":"G6","midi":91,"time":"481.12","velocity":0.2440944881889764,"duration":"0.12"},{"name":"C#2","midi":37,"time":"481.14","velocity":0.4015748031496063,"duration":"0.02"},{"name":"B4","midi":71,"time":"481.14","velocity":0.25984251968503935,"duration":"0.02"},{"name":"A5","midi":81,"time":"481.14","velocity":0.5433070866141733,"duration":"0.23"},{"name":"B5","midi":83,"time":"481.14","velocity":0.4566929133858268,"duration":"0.48"},{"name":"A3","midi":57,"time":"481.15","velocity":0.33858267716535434,"duration":"0.03"},{"name":"G#2","midi":44,"time":"481.16","velocity":0.5196850393700787,"duration":"0.01"},{"name":"E4","midi":64,"time":"481.16","velocity":0.3779527559055118,"duration":"0.09"},{"name":"F#6","midi":90,"time":"481.16","velocity":0.4094488188976378,"duration":"0.43"},{"name":"E1","midi":28,"time":"481.17","velocity":0.33070866141732286,"duration":"0.03"},{"name":"F#5","midi":78,"time":"481.17","velocity":0.3937007874015748,"duration":"0.43"},{"name":"G3","midi":55,"time":"481.19","velocity":0.3700787401574803,"duration":"0.02"},{"name":"A4","midi":69,"time":"481.21","velocity":0.4015748031496063,"duration":"0.12"},{"name":"B4","midi":71,"time":"481.21","velocity":0.3543307086614173,"duration":"0.05"},{"name":"C6","midi":84,"time":"481.21","velocity":0.4881889763779528,"duration":"0.02"},{"name":"E3","midi":52,"time":"481.22","velocity":0.48031496062992124,"duration":"0.12"},{"name":"A3","midi":57,"time":"481.22","velocity":0.49606299212598426,"duration":"0.28"},{"name":"C#6","midi":85,"time":"481.23","velocity":0.5669291338582677,"duration":"0.06"},{"name":"F#4","midi":66,"time":"481.26","velocity":0.30708661417322836,"duration":"0.02"},{"name":"D#6","midi":87,"time":"481.27","velocity":0.25984251968503935,"duration":"0.03"},{"name":"D#5","midi":75,"time":"481.28","velocity":0.23622047244094488,"duration":"0.02"},{"name":"D6","midi":86,"time":"481.28","velocity":0.47244094488188976,"duration":"0.02"},{"name":"G6","midi":91,"time":"481.28","velocity":0.09448818897637795,"duration":"0.03"},{"name":"G7","midi":103,"time":"481.28","velocity":0.2283464566929134,"duration":"0.30"},{"name":"B4","midi":71,"time":"481.29","velocity":0.3543307086614173,"duration":"0.12"},{"name":"C#4","midi":61,"time":"481.30","velocity":0.2755905511811024,"duration":"0.08"},{"name":"G4","midi":67,"time":"481.30","velocity":0.2755905511811024,"duration":"0.05"},{"name":"E5","midi":76,"time":"481.30","velocity":0.25984251968503935,"duration":"0.06"},{"name":"C#6","midi":85,"time":"481.30","velocity":0.6141732283464567,"duration":"0.65"},{"name":"D#6","midi":87,"time":"481.33","velocity":0.2283464566929134,"duration":"0.19"},{"name":"G#5","midi":80,"time":"481.34","velocity":0.4094488188976378,"duration":"0.02"},{"name":"E6","midi":88,"time":"481.34","velocity":0.2992125984251969,"duration":"0.22"},{"name":"F6","midi":89,"time":"481.34","velocity":0.10236220472440945,"duration":"0.06"},{"name":"A#6","midi":94,"time":"481.34","velocity":0.25196850393700787,"duration":"0.22"},{"name":"E2","midi":40,"time":"481.35","velocity":0.4645669291338583,"duration":"0.10"},{"name":"E3","midi":52,"time":"481.35","velocity":0.48031496062992124,"duration":"0.02"},{"name":"G#4","midi":68,"time":"481.35","velocity":0.25984251968503935,"duration":"0.02"},{"name":"A#5","midi":82,"time":"481.36","velocity":0.36220472440944884,"duration":"0.02"},{"name":"C6","midi":84,"time":"481.36","velocity":0.5275590551181102,"duration":"0.02"},{"name":"G6","midi":91,"time":"481.36","velocity":0.18110236220472442,"duration":"0.06"},{"name":"G4","midi":67,"time":"481.37","velocity":0.2755905511811024,"duration":"0.02"},{"name":"G#5","midi":80,"time":"481.37","velocity":0.36220472440944884,"duration":"0.03"},{"name":"E3","midi":52,"time":"481.38","velocity":0.4645669291338583,"duration":"0.02"},{"name":"A5","midi":81,"time":"481.38","velocity":0.5590551181102362,"duration":"0.33"},{"name":"C#4","midi":61,"time":"481.40","velocity":0.3464566929133858,"duration":"0.10"},{"name":"F6","midi":89,"time":"481.41","velocity":0.1968503937007874,"duration":"0.09"},{"name":"E3","midi":52,"time":"481.42","velocity":0.47244094488188976,"duration":"0.03"},{"name":"B4","midi":71,"time":"481.42","velocity":0.5118110236220472,"duration":"0.14"},{"name":"G4","midi":67,"time":"481.44","velocity":0.2992125984251969,"duration":"0.02"},{"name":"G6","midi":91,"time":"481.45","velocity":0.07874015748031496,"duration":"0.06"},{"name":"E2","midi":40,"time":"481.47","velocity":0.4566929133858268,"duration":"0.02"},{"name":"E3","midi":52,"time":"481.47","velocity":0.49606299212598426,"duration":"0.08"},{"name":"D#5","midi":75,"time":"481.47","velocity":0.2440944881889764,"duration":"0.02"},{"name":"C#5","midi":73,"time":"481.48","velocity":0.5984251968503937,"duration":"0.69"},{"name":"G4","midi":67,"time":"481.49","velocity":0.23622047244094488,"duration":"0.02"},{"name":"E5","midi":76,"time":"481.49","velocity":0.4645669291338583,"duration":"0.48"},{"name":"A4","midi":69,"time":"481.50","velocity":0.33070866141732286,"duration":"0.03"},{"name":"C7","midi":96,"time":"481.50","velocity":0.29133858267716534,"duration":"0.05"},{"name":"A3","midi":57,"time":"481.51","velocity":0.4566929133858268,"duration":"0.03"},{"name":"D#2","midi":39,"time":"481.52","velocity":0.4409448818897638,"duration":"0.02"},{"name":"C6","midi":84,"time":"481.52","velocity":0.4881889763779528,"duration":"0.03"},{"name":"F6","midi":89,"time":"481.52","velocity":0.2047244094488189,"duration":"0.08"},{"name":"G6","midi":91,"time":"481.52","velocity":0.2283464566929134,"duration":"0.05"},{"name":"G#5","midi":80,"time":"481.53","velocity":0.36220472440944884,"duration":"0.02"},{"name":"D#6","midi":87,"time":"481.53","velocity":0.2677165354330709,"duration":"0.03"},{"name":"F2","midi":41,"time":"481.55","velocity":0.4645669291338583,"duration":"0.02"},{"name":"F3","midi":53,"time":"481.55","velocity":0.5118110236220472,"duration":"0.01"},{"name":"C4","midi":60,"time":"481.55","velocity":0.4881889763779528,"duration":"0.03"},{"name":"A4","midi":69,"time":"481.55","velocity":0.4881889763779528,"duration":"0.05"},{"name":"D6","midi":86,"time":"481.56","velocity":0.2992125984251969,"duration":"0.03"},{"name":"A#6","midi":94,"time":"481.57","velocity":0.25196850393700787,"duration":"0.16"},{"name":"C#4","midi":61,"time":"481.58","velocity":0.3464566929133858,"duration":"0.03"},{"name":"F4","midi":65,"time":"481.58","velocity":0.3464566929133858,"duration":"0.02"},{"name":"B4","midi":71,"time":"481.58","velocity":0.4330708661417323,"duration":"0.03"},{"name":"C7","midi":96,"time":"481.58","velocity":0.25984251968503935,"duration":"0.15"},{"name":"G6","midi":91,"time":"481.59","velocity":0.25196850393700787,"duration":"0.05"},{"name":"G7","midi":103,"time":"481.59","velocity":0.2755905511811024,"duration":"0.07"},{"name":"F#4","midi":66,"time":"481.60","velocity":0.3858267716535433,"duration":"0.02"},{"name":"A4","midi":69,"time":"481.60","velocity":0.44881889763779526,"duration":"0.21"},{"name":"G5","midi":79,"time":"481.60","velocity":0.3228346456692913,"duration":"0.03"},{"name":"F#6","midi":90,"time":"481.60","velocity":0.2755905511811024,"duration":"0.08"},{"name":"C6","midi":84,"time":"481.62","velocity":0.2204724409448819,"duration":"0.03"},{"name":"F6","midi":89,"time":"481.62","velocity":0.23622047244094488,"duration":"0.03"},{"name":"G#6","midi":92,"time":"481.62","velocity":0.4645669291338583,"duration":"2.92"},{"name":"A#3","midi":58,"time":"481.63","velocity":0.3779527559055118,"duration":"0.02"},{"name":"C#4","midi":61,"time":"481.63","velocity":0.36220472440944884,"duration":"0.10"},{"name":"B5","midi":83,"time":"481.63","velocity":0.28346456692913385,"duration":"0.07"},{"name":"D#6","midi":87,"time":"481.63","velocity":0.2047244094488189,"duration":"0.14"},{"name":"F#4","midi":66,"time":"481.64","velocity":0.3543307086614173,"duration":"0.03"},{"name":"B4","midi":71,"time":"481.64","velocity":0.4251968503937008,"duration":"0.14"},{"name":"E2","midi":40,"time":"481.65","velocity":0.5039370078740157,"duration":"0.05"},{"name":"G6","midi":91,"time":"481.65","velocity":0.1968503937007874,"duration":"0.08"},{"name":"A#3","midi":58,"time":"481.66","velocity":0.3700787401574803,"duration":"0.02"},{"name":"G7","midi":103,"time":"481.67","velocity":0.25196850393700787,"duration":"0.15"},{"name":"A3","midi":57,"time":"481.69","velocity":0.41732283464566927,"duration":"0.05"},{"name":"F#4","midi":66,"time":"481.69","velocity":0.25196850393700787,"duration":"0.02"},{"name":"E3","midi":52,"time":"481.70","velocity":0.4645669291338583,"duration":"0.14"},{"name":"E2","midi":40,"time":"481.71","velocity":0.5275590551181102,"duration":"0.02"},{"name":"G4","midi":67,"time":"481.71","velocity":0.29133858267716534,"duration":"0.02"},{"name":"A5","midi":81,"time":"481.72","velocity":0.5039370078740157,"duration":"0.12"},{"name":"B6","midi":95,"time":"481.72","velocity":0.31496062992125984,"duration":"0.76"},{"name":"D7","midi":98,"time":"481.72","velocity":0.2677165354330709,"duration":"0.13"},{"name":"F6","midi":89,"time":"481.73","velocity":0.1732283464566929,"duration":"0.10"},{"name":"F#5","midi":78,"time":"481.74","velocity":0.31496062992125984,"duration":"0.07"},{"name":"F2","midi":41,"time":"481.76","velocity":0.5275590551181102,"duration":"0.01"},{"name":"G#3","midi":56,"time":"481.76","velocity":0.33070866141732286,"duration":"0.02"},{"name":"A#5","midi":82,"time":"481.76","velocity":0.36220472440944884,"duration":"0.02"},{"name":"E2","midi":40,"time":"481.77","velocity":0.5039370078740157,"duration":"0.02"},{"name":"C#4","midi":61,"time":"481.77","velocity":0.36220472440944884,"duration":"0.10"},{"name":"F#4","midi":66,"time":"481.77","velocity":0.33858267716535434,"duration":"0.06"},{"name":"D6","midi":86,"time":"481.77","velocity":0.5118110236220472,"duration":"0.01"},{"name":"C7","midi":96,"time":"481.77","velocity":0.31496062992125984,"duration":"0.52"},{"name":"B5","midi":83,"time":"481.79","velocity":0.23622047244094488,"duration":"0.03"},{"name":"D#2","midi":39,"time":"481.80","velocity":0.48031496062992124,"duration":"0.02"},{"name":"A#5","midi":82,"time":"481.80","velocity":0.25196850393700787,"duration":"0.05"},{"name":"G#5","midi":80,"time":"481.83","velocity":0.4566929133858268,"duration":"0.09"},{"name":"F4","midi":65,"time":"481.84","velocity":0.25984251968503935,"duration":"0.02"},{"name":"A4","midi":69,"time":"481.84","velocity":0.3937007874015748,"duration":"0.13"},{"name":"E3","midi":52,"time":"481.85","velocity":0.44881889763779526,"duration":"0.05"},{"name":"B4","midi":71,"time":"481.85","velocity":0.28346456692913385,"duration":"0.05"},{"name":"F6","midi":89,"time":"481.85","velocity":0.2283464566929134,"duration":"0.05"},{"name":"G6","midi":91,"time":"481.85","velocity":0.25984251968503935,"duration":"0.22"},{"name":"A3","midi":57,"time":"481.86","velocity":0.30708661417322836,"duration":"0.02"},{"name":"A#5","midi":82,"time":"481.86","velocity":0.3464566929133858,"duration":"0.02"},{"name":"B5","midi":83,"time":"481.86","velocity":0.2992125984251969,"duration":"0.10"},{"name":"D#6","midi":87,"time":"481.86","velocity":0.2125984251968504,"duration":"0.12"},{"name":"D7","midi":98,"time":"481.86","velocity":0.3228346456692913,"duration":"0.23"},{"name":"D4","midi":62,"time":"481.87","velocity":0.2283464566929134,"duration":"0.03"},{"name":"A5","midi":81,"time":"481.87","velocity":0.5354330708661418,"duration":"0.08"},{"name":"F#4","midi":66,"time":"481.88","velocity":0.23622047244094488,"duration":"0.03"},{"name":"F#5","midi":78,"time":"481.88","velocity":0.30708661417322836,"duration":"0.08"},{"name":"A#6","midi":94,"time":"481.88","velocity":0.28346456692913385,"duration":"0.37"},{"name":"F2","midi":41,"time":"481.90","velocity":0.5118110236220472,"duration":"0.01"},{"name":"F6","midi":89,"time":"481.91","velocity":0.2125984251968504,"duration":"0.09"},{"name":"G2","midi":43,"time":"481.92","velocity":0.5433070866141733,"duration":"0.01"},{"name":"F4","midi":65,"time":"481.92","velocity":0.3700787401574803,"duration":"0.03"},{"name":"C6","midi":84,"time":"481.92","velocity":0.2677165354330709,"duration":"0.02"},{"name":"F#2","midi":42,"time":"481.93","velocity":0.6299212598425197,"duration":"0.01"},{"name":"B4","midi":71,"time":"481.93","velocity":0.33070866141732286,"duration":"0.03"},{"name":"F2","midi":41,"time":"481.94","velocity":0.6456692913385826,"duration":"0.01"},{"name":"D#3","midi":51,"time":"481.94","velocity":0.5196850393700787,"duration":"0.01"},{"name":"B3","midi":59,"time":"481.94","velocity":0.2992125984251969,"duration":"0.02"},{"name":"G#5","midi":80,"time":"481.94","velocity":0.41732283464566927,"duration":"0.02"},{"name":"G#2","midi":44,"time":"481.95","velocity":0.5590551181102362,"duration":"0.01"},{"name":"D#4","midi":63,"time":"481.95","velocity":0.3543307086614173,"duration":"0.02"},{"name":"G4","midi":67,"time":"481.95","velocity":0.2283464566929134,"duration":"0.05"},{"name":"D6","midi":86,"time":"481.95","velocity":0.5511811023622047,"duration":"0.01"},{"name":"E3","midi":52,"time":"481.97","velocity":0.4566929133858268,"duration":"0.03"},{"name":"F5","midi":77,"time":"481.97","velocity":0.18110236220472442,"duration":"0.05"},{"name":"A5","midi":81,"time":"481.97","velocity":0.5669291338582677,"duration":"0.26"},{"name":"C#6","midi":85,"time":"481.97","velocity":0.6220472440944882,"duration":"0.07"},{"name":"E6","midi":88,"time":"481.97","velocity":0.25984251968503935,"duration":"0.24"},{"name":"C#4","midi":61,"time":"481.98","velocity":0.2992125984251969,"duration":"0.03"},{"name":"B4","midi":71,"time":"481.98","velocity":0.28346456692913385,"duration":"0.03"},{"name":"G#5","midi":80,"time":"481.98","velocity":0.4251968503937008,"duration":"0.02"},{"name":"D6","midi":86,"time":"481.98","velocity":0.30708661417322836,"duration":"0.08"},{"name":"B5","midi":83,"time":"481.99","velocity":0.3937007874015748,"duration":"0.16"},{"name":"B2","midi":47,"time":"482.00","velocity":0.5433070866141733,"duration":"0.02"},{"name":"A4","midi":69,"time":"482.00","velocity":0.3700787401574803,"duration":"0.09"},{"name":"F#5","midi":78,"time":"482.00","velocity":0.31496062992125984,"duration":"0.09"},{"name":"E4","midi":64,"time":"482.01","velocity":0.3543307086614173,"duration":"0.10"},{"name":"G4","midi":67,"time":"482.01","velocity":0.2677165354330709,"duration":"0.02"},{"name":"D#7","midi":99,"time":"482.01","velocity":0.3228346456692913,"duration":"0.34"},{"name":"A3","midi":57,"time":"482.02","velocity":0.33858267716535434,"duration":"0.05"},{"name":"C#4","midi":61,"time":"482.02","velocity":0.33858267716535434,"duration":"0.07"},{"name":"G5","midi":79,"time":"482.02","velocity":0.30708661417322836,"duration":"0.02"},{"name":"C6","midi":84,"time":"482.02","velocity":0.5354330708661418,"duration":"0.03"},{"name":"F#4","midi":66,"time":"482.03","velocity":0.25984251968503935,"duration":"0.02"},{"name":"A#5","midi":82,"time":"482.03","velocity":0.4409448818897638,"duration":"0.03"},{"name":"A2","midi":45,"time":"482.05","velocity":0.49606299212598426,"duration":"0.05"},{"name":"E3","midi":52,"time":"482.05","velocity":0.5039370078740157,"duration":"0.24"},{"name":"D#5","midi":75,"time":"482.06","velocity":0.2992125984251969,"duration":"0.07"},{"name":"G7","midi":103,"time":"482.06","velocity":0.3228346456692913,"duration":"0.37"},{"name":"F#6","midi":90,"time":"482.07","velocity":0.31496062992125984,"duration":"0.10"},{"name":"B4","midi":71,"time":"482.08","velocity":0.3464566929133858,"duration":"0.08"},{"name":"G#5","midi":80,"time":"482.08","velocity":0.3779527559055118,"duration":"0.03"},{"name":"F6","midi":89,"time":"482.08","velocity":0.25984251968503935,"duration":"0.02"},{"name":"G6","midi":91,"time":"482.08","velocity":0.2047244094488189,"duration":"0.12"},{"name":"A4","midi":69,"time":"482.10","velocity":0.44881889763779526,"duration":"0.23"},{"name":"D7","midi":98,"time":"482.10","velocity":0.33070866141732286,"duration":"0.52"},{"name":"E5","midi":76,"time":"482.12","velocity":0.2677165354330709,"duration":"0.05"},{"name":"F#5","midi":78,"time":"482.12","velocity":0.2283464566929134,"duration":"0.08"},{"name":"D6","midi":86,"time":"482.12","velocity":0.5669291338582677,"duration":"0.01"},{"name":"C#4","midi":61,"time":"482.13","velocity":0.33858267716535434,"duration":"0.09"},{"name":"A3","midi":57,"time":"482.14","velocity":0.4330708661417323,"duration":"0.02"},{"name":"F#4","midi":66,"time":"482.14","velocity":0.31496062992125984,"duration":"0.06"},{"name":"D5","midi":74,"time":"482.15","velocity":0.16535433070866143,"duration":"0.03"},{"name":"A#5","midi":82,"time":"482.15","velocity":0.1968503937007874,"duration":"0.03"},{"name":"A2","midi":45,"time":"482.16","velocity":0.4409448818897638,"duration":"0.09"},{"name":"G#5","midi":80,"time":"482.16","velocity":0.47244094488188976,"duration":"0.07"},{"name":"D6","midi":86,"time":"482.16","velocity":0.2677165354330709,"duration":"0.02"},{"name":"D#6","midi":87,"time":"482.16","velocity":0.13385826771653545,"duration":"0.07"},{"name":"F6","midi":89,"time":"482.16","velocity":0.23622047244094488,"duration":"0.08"},{"name":"C#5","midi":73,"time":"482.17","velocity":0.41732283464566927,"duration":"0.10"},{"name":"E5","midi":76,"time":"482.17","velocity":0.2755905511811024,"duration":"0.12"},{"name":"C6","midi":84,"time":"482.19","velocity":0.4409448818897638,"duration":"0.02"},{"name":"B5","midi":83,"time":"482.20","velocity":0.23622047244094488,"duration":"0.08"},{"name":"D6","midi":86,"time":"482.20","velocity":0.23622047244094488,"duration":"0.02"},{"name":"C#6","midi":85,"time":"482.21","velocity":0.5196850393700787,"duration":"0.06"},{"name":"F#6","midi":90,"time":"482.21","velocity":0.2283464566929134,"duration":"0.08"},{"name":"G6","midi":91,"time":"482.21","velocity":0.25984251968503935,"duration":"0.15"},{"name":"F#5","midi":78,"time":"482.22","velocity":0.25984251968503935,"duration":"0.06"},{"name":"E6","midi":88,"time":"482.22","velocity":0.47244094488188976,"duration":"0.17"},{"name":"A5","midi":81,"time":"482.23","velocity":0.5590551181102362,"duration":"0.15"},{"name":"C#4","midi":61,"time":"482.24","velocity":0.2440944881889764,"duration":"0.02"},{"name":"F#4","midi":66,"time":"482.24","velocity":0.25984251968503935,"duration":"0.02"},{"name":"G#2","midi":44,"time":"482.26","velocity":0.41732283464566927,"duration":"0.02"},{"name":"A3","midi":57,"time":"482.27","velocity":0.5433070866141733,"duration":"0.08"},{"name":"F5","midi":77,"time":"482.27","velocity":0.4645669291338583,"duration":"0.06"},{"name":"D6","midi":86,"time":"482.27","velocity":0.5433070866141733,"duration":"0.07"},{"name":"D#6","midi":87,"time":"482.27","velocity":0.3858267716535433,"duration":"0.03"},{"name":"A#6","midi":94,"time":"482.27","velocity":0.1889763779527559,"duration":"0.19"},{"name":"B1","midi":35,"time":"482.28","velocity":0.4881889763779528,"duration":"0.02"},{"name":"D5","midi":74,"time":"482.28","velocity":0.31496062992125984,"duration":"0.03"},{"name":"G5","midi":79,"time":"482.28","velocity":0.2677165354330709,"duration":"0.03"},{"name":"C6","midi":84,"time":"482.29","velocity":0.2992125984251969,"duration":"0.03"},{"name":"C#6","midi":85,"time":"482.29","velocity":0.41732283464566927,"duration":"0.02"},{"name":"E2","midi":40,"time":"482.30","velocity":0.5748031496062992,"duration":"0.01"},{"name":"A#5","midi":82,"time":"482.30","velocity":0.28346456692913385,"duration":"0.02"},{"name":"B5","midi":83,"time":"482.30","velocity":0.2755905511811024,"duration":"0.06"},{"name":"F#6","midi":90,"time":"482.30","velocity":0.29133858267716534,"duration":"0.09"},{"name":"C7","midi":96,"time":"482.30","velocity":0.3779527559055118,"duration":"1.00"},{"name":"G2","midi":43,"time":"482.31","velocity":0.5196850393700787,"duration":"0.01"},{"name":"F3","midi":53,"time":"482.31","velocity":0.5433070866141733,"duration":"0.01"},{"name":"D#6","midi":87,"time":"482.31","velocity":0.49606299212598426,"duration":"0.05"},{"name":"D#3","midi":51,"time":"482.33","velocity":0.5118110236220472,"duration":"0.01"},{"name":"C4","midi":60,"time":"482.33","velocity":0.3228346456692913,"duration":"0.05"},{"name":"B4","midi":71,"time":"482.33","velocity":0.30708661417322836,"duration":"0.03"},{"name":"E5","midi":76,"time":"482.33","velocity":0.5748031496062992,"duration":"0.02"},{"name":"F#5","midi":78,"time":"482.33","velocity":0.33070866141732286,"duration":"0.02"},{"name":"C#6","midi":85,"time":"482.33","velocity":0.4881889763779528,"duration":"0.80"},{"name":"F1","midi":29,"time":"482.34","velocity":0.5433070866141733,"duration":"0.03"},{"name":"E3","midi":52,"time":"482.34","velocity":0.4094488188976378,"duration":"0.02"},{"name":"F#4","midi":66,"time":"482.34","velocity":0.4015748031496063,"duration":"0.06"},{"name":"A4","midi":69,"time":"482.35","velocity":0.4566929133858268,"duration":"0.13"},{"name":"C#5","midi":73,"time":"482.35","velocity":0.48031496062992124,"duration":"0.30"},{"name":"C6","midi":84,"time":"482.35","velocity":0.2125984251968504,"duration":"0.05"},{"name":"D6","midi":86,"time":"482.35","velocity":0.2440944881889764,"duration":"0.07"},{"name":"F6","midi":89,"time":"482.35","velocity":0.5511811023622047,"duration":"0.08"},{"name":"E5","midi":76,"time":"482.36","velocity":0.2755905511811024,"duration":"0.03"},{"name":"D#7","midi":99,"time":"482.36","velocity":0.47244094488188976,"duration":"2.44"},{"name":"F5","midi":77,"time":"482.37","velocity":0.41732283464566927,"duration":"0.08"},{"name":"G5","midi":79,"time":"482.37","velocity":0.33858267716535434,"duration":"0.05"},{"name":"G#5","midi":80,"time":"482.38","velocity":0.48031496062992124,"duration":"0.03"},{"name":"A#5","midi":82,"time":"482.38","velocity":0.44881889763779526,"duration":"0.02"},{"name":"E3","midi":52,"time":"482.40","velocity":0.5275590551181102,"duration":"0.09"},{"name":"A3","midi":57,"time":"482.40","velocity":0.3543307086614173,"duration":"0.02"},{"name":"B5","midi":83,"time":"482.40","velocity":0.30708661417322836,"duration":"0.06"},{"name":"A5","midi":81,"time":"482.41","velocity":0.49606299212598426,"duration":"0.23"},{"name":"A#3","midi":58,"time":"482.43","velocity":0.29133858267716534,"duration":"0.02"},{"name":"F4","midi":65,"time":"482.43","velocity":0.28346456692913385,"duration":"0.02"},{"name":"E5","midi":76,"time":"482.43","velocity":0.2047244094488189,"duration":"0.03"},{"name":"F#6","midi":90,"time":"482.43","velocity":0.6614173228346457,"duration":"0.86"},{"name":"G7","midi":103,"time":"482.44","velocity":0.2440944881889764,"duration":"0.43"},{"name":"F#5","midi":78,"time":"482.45","velocity":0.33070866141732286,"duration":"0.06"},{"name":"G#5","midi":80,"time":"482.45","velocity":0.41732283464566927,"duration":"0.02"},{"name":"D6","midi":86,"time":"482.45","velocity":0.2755905511811024,"duration":"0.02"},{"name":"E6","midi":88,"time":"482.45","velocity":0.2204724409448819,"duration":"0.14"},{"name":"G4","midi":67,"time":"482.47","velocity":0.2755905511811024,"duration":"0.02"},{"name":"D#6","midi":87,"time":"482.47","velocity":0.25984251968503935,"duration":"0.06"},{"name":"A#6","midi":94,"time":"482.47","velocity":0.28346456692913385,"duration":"0.28"},{"name":"A#2","midi":46,"time":"482.48","velocity":0.5669291338582677,"duration":"0.01"},{"name":"A#4","midi":70,"time":"482.48","velocity":0.2677165354330709,"duration":"0.03"},{"name":"E5","midi":76,"time":"482.48","velocity":0.2677165354330709,"duration":"0.02"},{"name":"B5","midi":83,"time":"482.48","velocity":0.30708661417322836,"duration":"0.06"},{"name":"F6","midi":89,"time":"482.48","velocity":0.5118110236220472,"duration":"0.06"},{"name":"F2","midi":41,"time":"482.49","velocity":0.6220472440944882,"duration":"0.01"},{"name":"D#3","midi":51,"time":"482.49","velocity":0.5590551181102362,"duration":"0.02"},{"name":"D#5","midi":75,"time":"482.49","velocity":0.23622047244094488,"duration":"0.02"},{"name":"B6","midi":95,"time":"482.49","velocity":0.48031496062992124,"duration":"2.83"},{"name":"D#2","midi":39,"time":"482.50","velocity":0.5826771653543307,"duration":"0.02"},{"name":"B3","midi":59,"time":"482.50","velocity":0.2677165354330709,"duration":"0.02"},{"name":"F4","midi":65,"time":"482.50","velocity":0.25984251968503935,"duration":"0.02"},{"name":"E3","midi":52,"time":"482.51","velocity":0.4881889763779528,"duration":"0.02"},{"name":"B4","midi":71,"time":"482.51","velocity":0.4015748031496063,"duration":"0.07"},{"name":"F2","midi":41,"time":"482.52","velocity":0.5433070866141733,"duration":"0.01"},{"name":"F#5","midi":78,"time":"482.52","velocity":0.4094488188976378,"duration":"0.14"},{"name":"F3","midi":53,"time":"482.53","velocity":0.5275590551181102,"duration":"0.01"},{"name":"G4","midi":67,"time":"482.53","velocity":0.30708661417322836,"duration":"0.03"},{"name":"D6","midi":86,"time":"482.53","velocity":0.18110236220472442,"duration":"0.05"},{"name":"G6","midi":91,"time":"482.53","velocity":0.3543307086614173,"duration":"0.06"},{"name":"E3","midi":52,"time":"482.55","velocity":0.5433070866141733,"duration":"0.07"},{"name":"G#5","midi":80,"time":"482.55","velocity":0.2992125984251969,"duration":"0.02"},{"name":"A#5","midi":82,"time":"482.55","velocity":0.3228346456692913,"duration":"0.03"},{"name":"F6","midi":89,"time":"482.55","velocity":0.5590551181102362,"duration":"0.13"},{"name":"A4","midi":69,"time":"482.56","velocity":0.3779527559055118,"duration":"0.05"},{"name":"C2","midi":36,"time":"482.57","velocity":0.4566929133858268,"duration":"0.02"},{"name":"F#4","midi":66,"time":"482.57","velocity":0.3700787401574803,"duration":"0.05"},{"name":"E5","midi":76,"time":"482.57","velocity":0.49606299212598426,"duration":"0.13"},{"name":"D4","midi":62,"time":"482.58","velocity":0.2440944881889764,"duration":"0.02"},{"name":"A#4","midi":70,"time":"482.59","velocity":0.28346456692913385,"duration":"0.03"},{"name":"D6","midi":86,"time":"482.59","velocity":0.1889763779527559,"duration":"0.05"},{"name":"A3","midi":57,"time":"482.60","velocity":0.33858267716535434,"duration":"0.02"},{"name":"A2","midi":45,"time":"482.62","velocity":0.4645669291338583,"duration":"0.02"},{"name":"E3","midi":52,"time":"482.63","velocity":0.49606299212598426,"duration":"0.05"},{"name":"C#4","midi":61,"time":"482.63","velocity":0.2677165354330709,"duration":"0.05"},{"name":"A4","midi":69,"time":"482.63","velocity":0.3228346456692913,"duration":"0.05"},{"name":"A3","midi":57,"time":"482.64","velocity":0.3937007874015748,"duration":"0.06"},{"name":"A#5","midi":82,"time":"482.64","velocity":0.2677165354330709,"duration":"0.03"},{"name":"D#6","midi":87,"time":"482.64","velocity":0.2047244094488189,"duration":"0.13"},{"name":"D7","midi":98,"time":"482.64","velocity":0.2440944881889764,"duration":"0.08"},{"name":"G4","midi":67,"time":"482.65","velocity":0.28346456692913385,"duration":"0.02"},{"name":"A5","midi":81,"time":"482.65","velocity":0.5669291338582677,"duration":"0.21"},{"name":"F#4","midi":66,"time":"482.66","velocity":0.41732283464566927,"duration":"0.09"},{"name":"C#5","midi":73,"time":"482.66","velocity":0.4015748031496063,"duration":"0.20"},{"name":"D#2","midi":39,"time":"482.67","velocity":0.5196850393700787,"duration":"0.01"},{"name":"C3","midi":48,"time":"482.67","velocity":0.5590551181102362,"duration":"0.01"},{"name":"E2","midi":40,"time":"482.69","velocity":0.5826771653543307,"duration":"0.01"},{"name":"C#3","midi":49,"time":"482.69","velocity":0.5433070866141733,"duration":"0.01"},{"name":"A4","midi":69,"time":"482.69","velocity":0.4330708661417323,"duration":"0.12"},{"name":"B4","midi":71,"time":"482.69","velocity":0.2755905511811024,"duration":"0.02"},{"name":"F5","midi":77,"time":"482.69","velocity":0.3543307086614173,"duration":"0.02"},{"name":"B5","midi":83,"time":"482.69","velocity":0.5118110236220472,"duration":"1.19"},{"name":"F6","midi":89,"time":"482.69","velocity":0.41732283464566927,"duration":"0.12"},{"name":"D3","midi":50,"time":"482.70","velocity":0.5275590551181102,"duration":"0.01"},{"name":"E3","midi":52,"time":"482.71","velocity":0.49606299212598426,"duration":"0.02"},{"name":"A3","midi":57,"time":"482.71","velocity":0.4409448818897638,"duration":"0.02"},{"name":"E5","midi":76,"time":"482.71","velocity":0.41732283464566927,"duration":"0.02"},{"name":"B4","midi":71,"time":"482.72","velocity":0.3543307086614173,"duration":"0.09"},{"name":"F5","midi":77,"time":"482.72","velocity":0.41732283464566927,"duration":"0.03"},{"name":"G#5","midi":80,"time":"482.72","velocity":0.33070866141732286,"duration":"0.02"},{"name":"B1","midi":35,"time":"482.73","velocity":0.5354330708661418,"duration":"0.01"},{"name":"F3","midi":53,"time":"482.73","velocity":0.49606299212598426,"duration":"0.02"},{"name":"B3","midi":59,"time":"482.73","velocity":0.2283464566929134,"duration":"0.02"},{"name":"A#5","midi":82,"time":"482.73","velocity":0.29133858267716534,"duration":"0.02"},{"name":"D7","midi":98,"time":"482.73","velocity":0.2125984251968504,"duration":"0.15"},{"name":"A3","midi":57,"time":"482.76","velocity":0.2992125984251969,"duration":"0.02"},{"name":"E5","midi":76,"time":"482.76","velocity":0.4881889763779528,"duration":"0.34"},{"name":"A#5","midi":82,"time":"482.77","velocity":0.25984251968503935,"duration":"0.02"},{"name":"E3","midi":52,"time":"482.78","velocity":0.48031496062992124,"duration":"0.03"},{"name":"C#4","midi":61,"time":"482.78","velocity":0.3228346456692913,"duration":"0.05"},{"name":"G6","midi":91,"time":"482.78","velocity":0.2204724409448819,"duration":"0.07"},{"name":"A#6","midi":94,"time":"482.78","velocity":0.2755905511811024,"duration":"0.65"},{"name":"G#4","midi":68,"time":"482.80","velocity":0.36220472440944884,"duration":"0.02"},{"name":"A#4","midi":70,"time":"482.81","velocity":0.30708661417322836,"duration":"0.02"},{"name":"F6","midi":89,"time":"482.81","velocity":0.5196850393700787,"duration":"0.02"},{"name":"E3","midi":52,"time":"482.83","velocity":0.4881889763779528,"duration":"0.23"},{"name":"D#4","midi":63,"time":"482.84","velocity":0.29133858267716534,"duration":"0.03"},{"name":"G#5","midi":80,"time":"482.84","velocity":0.4645669291338583,"duration":"0.14"},{"name":"A4","midi":69,"time":"482.86","velocity":0.4409448818897638,"duration":"0.17"},{"name":"C5","midi":72,"time":"482.86","velocity":0.2992125984251969,"duration":"0.02"},{"name":"F6","midi":89,"time":"482.86","velocity":0.1889763779527559,"duration":"0.03"},{"name":"E2","midi":40,"time":"482.87","velocity":0.4330708661417323,"duration":"0.08"},{"name":"F#4","midi":66,"time":"482.87","velocity":0.3937007874015748,"duration":"0.15"},{"name":"D#6","midi":87,"time":"482.87","velocity":0.16535433070866143,"duration":"0.06"},{"name":"C#5","midi":73,"time":"482.88","velocity":0.3464566929133858,"duration":"0.19"},{"name":"D6","midi":86,"time":"482.90","velocity":0.29133858267716534,"duration":"0.02"},{"name":"G7","midi":103,"time":"482.91","velocity":0.1889763779527559,"duration":"0.03"},{"name":"F7","midi":101,"time":"482.92","velocity":0.28346456692913385,"duration":"0.69"},{"name":"B4","midi":71,"time":"482.93","velocity":0.4094488188976378,"duration":"0.10"},{"name":"G5","midi":79,"time":"482.93","velocity":0.25984251968503935,"duration":"0.02"},{"name":"D#6","midi":87,"time":"482.94","velocity":0.2677165354330709,"duration":"0.17"},{"name":"A5","midi":81,"time":"482.95","velocity":0.4645669291338583,"duration":"0.05"},{"name":"D6","midi":86,"time":"482.95","velocity":0.2283464566929134,"duration":"0.09"},{"name":"F6","midi":89,"time":"482.97","velocity":0.5511811023622047,"duration":"0.02"},{"name":"G7","midi":103,"time":"482.97","velocity":0.1889763779527559,"duration":"0.24"},{"name":"C#4","midi":61,"time":"482.98","velocity":0.4330708661417323,"duration":"0.07"},{"name":"E2","midi":40,"time":"482.99","velocity":0.4251968503937008,"duration":"0.03"},{"name":"F#5","midi":78,"time":"483.00","velocity":0.4881889763779528,"duration":"0.34"},{"name":"G#5","midi":80,"time":"483.00","velocity":0.5354330708661418,"duration":"0.06"},{"name":"A3","midi":57,"time":"483.01","velocity":0.33858267716535434,"duration":"0.02"},{"name":"D7","midi":98,"time":"483.01","velocity":0.29133858267716534,"duration":"0.30"},{"name":"F2","midi":41,"time":"483.02","velocity":0.4094488188976378,"duration":"0.02"},{"name":"G4","midi":67,"time":"483.02","velocity":0.3543307086614173,"duration":"0.02"},{"name":"A#5","midi":82,"time":"483.02","velocity":0.29133858267716534,"duration":"0.02"},{"name":"F6","midi":89,"time":"483.02","velocity":0.30708661417322836,"duration":"0.06"},{"name":"E7","midi":100,"time":"483.03","velocity":0.29133858267716534,"duration":"0.13"},{"name":"A5","midi":81,"time":"483.05","velocity":0.47244094488188976,"duration":"0.03"},{"name":"D#3","midi":51,"time":"483.06","velocity":0.5354330708661418,"duration":"0.02"},{"name":"C#4","midi":61,"time":"483.06","velocity":0.4330708661417323,"duration":"0.02"},{"name":"F4","midi":65,"time":"483.06","velocity":0.3858267716535433,"duration":"0.03"},{"name":"A#4","midi":70,"time":"483.06","velocity":0.4330708661417323,"duration":"0.02"},{"name":"G#4","midi":68,"time":"483.07","velocity":0.3858267716535433,"duration":"0.03"},{"name":"D#5","midi":75,"time":"483.07","velocity":0.30708661417322836,"duration":"0.05"},{"name":"D6","midi":86,"time":"483.07","velocity":0.28346456692913385,"duration":"0.07"},{"name":"C#5","midi":73,"time":"483.08","velocity":0.3937007874015748,"duration":"0.06"},{"name":"G#5","midi":80,"time":"483.08","velocity":0.5354330708661418,"duration":"0.29"},{"name":"C3","midi":48,"time":"483.09","velocity":0.3858267716535433,"duration":"0.02"},{"name":"A3","midi":57,"time":"483.09","velocity":0.44881889763779526,"duration":"0.05"},{"name":"F#4","midi":66,"time":"483.09","velocity":0.4094488188976378,"duration":"0.05"},{"name":"F6","midi":89,"time":"483.09","velocity":0.49606299212598426,"duration":"0.05"},{"name":"G6","midi":91,"time":"483.09","velocity":0.33858267716535434,"duration":"0.07"},{"name":"E5","midi":76,"time":"483.10","velocity":0.3228346456692913,"duration":"0.05"},{"name":"A5","midi":81,"time":"483.10","velocity":0.4015748031496063,"duration":"0.03"},{"name":"D#6","midi":87,"time":"483.13","velocity":0.2204724409448819,"duration":"0.09"},{"name":"C#6","midi":85,"time":"483.14","velocity":0.4330708661417323,"duration":"0.69"},{"name":"A3","midi":57,"time":"483.15","velocity":0.49606299212598426,"duration":"0.10"},{"name":"F#4","midi":66,"time":"483.15","velocity":0.3464566929133858,"duration":"0.03"},{"name":"B4","midi":71,"time":"483.15","velocity":0.28346456692913385,"duration":"0.02"},{"name":"C#5","midi":73,"time":"483.15","velocity":0.44881889763779526,"duration":"0.30"},{"name":"A5","midi":81,"time":"483.15","velocity":0.2992125984251969,"duration":"0.02"},{"name":"A2","midi":45,"time":"483.16","velocity":0.5196850393700787,"duration":"0.16"},{"name":"E5","midi":76,"time":"483.16","velocity":0.4566929133858268,"duration":"0.40"},{"name":"E7","midi":100,"time":"483.19","velocity":0.5039370078740157,"duration":"2.56"},{"name":"C#4","midi":61,"time":"483.20","velocity":0.3858267716535433,"duration":"0.02"},{"name":"F#4","midi":66,"time":"483.20","velocity":0.3700787401574803,"duration":"0.06"},{"name":"A5","midi":81,"time":"483.21","velocity":0.41732283464566927,"duration":"0.05"},{"name":"D6","midi":86,"time":"483.21","velocity":0.18110236220472442,"duration":"0.05"},{"name":"F6","midi":89,"time":"483.21","velocity":0.1968503937007874,"duration":"0.06"},{"name":"E3","midi":52,"time":"483.22","velocity":0.4015748031496063,"duration":"0.03"},{"name":"G7","midi":103,"time":"483.22","velocity":0.1732283464566929,"duration":"0.19"},{"name":"D#6","midi":87,"time":"483.23","velocity":0.14173228346456693,"duration":"0.03"},{"name":"A4","midi":69,"time":"483.26","velocity":0.3779527559055118,"duration":"0.05"},{"name":"C#4","midi":61,"time":"483.27","velocity":0.3858267716535433,"duration":"0.07"},{"name":"E4","midi":64,"time":"483.27","velocity":0.3543307086614173,"duration":"0.06"},{"name":"B4","midi":71,"time":"483.27","velocity":0.29133858267716534,"duration":"0.08"},{"name":"D#6","midi":87,"time":"483.28","velocity":0.13385826771653545,"duration":"0.03"},{"name":"F6","midi":89,"time":"483.28","velocity":0.5118110236220472,"duration":"0.02"},{"name":"A5","midi":81,"time":"483.29","velocity":0.4094488188976378,"duration":"0.07"},{"name":"F#4","midi":66,"time":"483.30","velocity":0.4881889763779528,"duration":"0.08"},{"name":"A#5","midi":82,"time":"483.30","velocity":0.25984251968503935,"duration":"0.02"},{"name":"D6","midi":86,"time":"483.30","velocity":0.16535433070866143,"duration":"0.03"},{"name":"F#6","midi":90,"time":"483.30","velocity":0.6456692913385826,"duration":"0.49"},{"name":"G#2","midi":44,"time":"483.33","velocity":0.5118110236220472,"duration":"0.01"},{"name":"C7","midi":96,"time":"483.33","velocity":0.36220472440944884,"duration":"0.15"},{"name":"D7","midi":98,"time":"483.33","velocity":0.3464566929133858,"duration":"0.67"},{"name":"A2","midi":45,"time":"483.34","velocity":0.5433070866141733,"duration":"0.07"},{"name":"A4","midi":69,"time":"483.34","velocity":0.3779527559055118,"duration":"0.02"},{"name":"D#6","midi":87,"time":"483.34","velocity":0.1889763779527559,"duration":"0.05"},{"name":"G#4","midi":68,"time":"483.36","velocity":0.4566929133858268,"duration":"0.02"},{"name":"A#5","midi":82,"time":"483.36","velocity":0.28346456692913385,"duration":"0.05"},{"name":"G6","midi":91,"time":"483.36","velocity":0.5511811023622047,"duration":"0.01"},{"name":"F5","midi":77,"time":"483.37","velocity":0.4409448818897638,"duration":"0.02"},{"name":"A5","midi":81,"time":"483.37","velocity":0.3543307086614173,"duration":"0.06"},{"name":"G4","midi":67,"time":"483.38","velocity":0.5433070866141733,"duration":"0.01"},{"name":"A4","midi":69,"time":"483.38","velocity":0.4645669291338583,"duration":"0.03"},{"name":"G6","midi":91,"time":"483.38","velocity":0.33858267716535434,"duration":"0.05"},{"name":"F#4","midi":66,"time":"483.40","velocity":0.5826771653543307,"duration":"0.01"},{"name":"D#6","midi":87,"time":"483.40","velocity":0.25984251968503935,"duration":"0.06"},{"name":"F6","midi":89,"time":"483.40","velocity":0.25196850393700787,"duration":"0.05"},{"name":"G#2","midi":44,"time":"483.41","velocity":0.5275590551181102,"duration":"0.01"},{"name":"F4","midi":65,"time":"483.41","velocity":0.5275590551181102,"duration":"0.01"},{"name":"F2","midi":41,"time":"483.42","velocity":0.5984251968503937,"duration":"0.02"},{"name":"E4","midi":64,"time":"483.42","velocity":0.4094488188976378,"duration":"0.02"},{"name":"G4","midi":67,"time":"483.42","velocity":0.3543307086614173,"duration":"0.02"},{"name":"G#5","midi":80,"time":"483.43","velocity":0.4015748031496063,"duration":"0.06"},{"name":"G7","midi":103,"time":"483.43","velocity":0.16535433070866143,"duration":"0.17"},{"name":"F#4","midi":66,"time":"483.44","velocity":0.4330708661417323,"duration":"0.06"},{"name":"A#6","midi":94,"time":"483.44","velocity":0.3228346456692913,"duration":"0.94"},{"name":"B4","midi":71,"time":"483.45","velocity":0.4566929133858268,"duration":"0.33"},{"name":"D6","midi":86,"time":"483.45","velocity":0.25984251968503935,"duration":"0.05"},{"name":"A5","midi":81,"time":"483.47","velocity":0.2992125984251969,"duration":"0.09"},{"name":"D#6","midi":87,"time":"483.47","velocity":0.25984251968503935,"duration":"0.24"},{"name":"F2","midi":41,"time":"483.48","velocity":0.5118110236220472,"duration":"0.01"},{"name":"G6","midi":91,"time":"483.48","velocity":0.1732283464566929,"duration":"0.03"},{"name":"A2","midi":45,"time":"483.49","velocity":0.5748031496062992,"duration":"0.01"},{"name":"E4","midi":64,"time":"483.49","velocity":0.3700787401574803,"duration":"0.02"},{"name":"C#3","midi":49,"time":"483.50","velocity":0.5354330708661418,"duration":"0.01"},{"name":"C#5","midi":73,"time":"483.50","velocity":0.2992125984251969,"duration":"0.02"},{"name":"C7","midi":96,"time":"483.50","velocity":0.30708661417322836,"duration":"0.21"},{"name":"D#3","midi":51,"time":"483.51","velocity":0.5354330708661418,"duration":"0.02"},{"name":"F#4","midi":66,"time":"483.51","velocity":0.4645669291338583,"duration":"0.02"},{"name":"G#5","midi":80,"time":"483.51","velocity":0.2440944881889764,"duration":"0.02"},{"name":"C6","midi":84,"time":"483.51","velocity":0.2440944881889764,"duration":"0.06"},{"name":"F6","midi":89,"time":"483.51","velocity":0.1889763779527559,"duration":"0.07"},{"name":"G5","midi":79,"time":"483.52","velocity":0.25196850393700787,"duration":"0.02"},{"name":"F#5","midi":78,"time":"483.53","velocity":0.5354330708661418,"duration":"0.19"},{"name":"G6","midi":91,"time":"483.53","velocity":0.3228346456692913,"duration":"0.06"},{"name":"F#4","midi":66,"time":"483.55","velocity":0.4015748031496063,"duration":"0.05"},{"name":"A#5","midi":82,"time":"483.55","velocity":0.2440944881889764,"duration":"0.03"},{"name":"D#3","midi":51,"time":"483.56","velocity":0.5118110236220472,"duration":"0.02"},{"name":"G#5","midi":80,"time":"483.56","velocity":0.3937007874015748,"duration":"0.12"},{"name":"D4","midi":62,"time":"483.57","velocity":0.29133858267716534,"duration":"0.02"},{"name":"E5","midi":76,"time":"483.57","velocity":0.5275590551181102,"duration":"0.42"},{"name":"C#5","midi":73,"time":"483.58","velocity":0.3700787401574803,"duration":"0.14"},{"name":"D6","midi":86,"time":"483.58","velocity":0.2204724409448819,"duration":"0.08"},{"name":"A2","midi":45,"time":"483.59","velocity":0.5196850393700787,"duration":"0.01"},{"name":"A#3","midi":58,"time":"483.59","velocity":0.29133858267716534,"duration":"0.02"},{"name":"A5","midi":81,"time":"483.59","velocity":0.2283464566929134,"duration":"0.02"},{"name":"G4","midi":67,"time":"483.60","velocity":0.36220472440944884,"duration":"0.02"},{"name":"G#1","midi":32,"time":"483.62","velocity":0.4094488188976378,"duration":"0.02"},{"name":"F6","midi":89,"time":"483.62","velocity":0.49606299212598426,"duration":"0.06"},{"name":"G7","midi":103,"time":"483.62","velocity":0.2283464566929134,"duration":"0.23"},{"name":"D#3","midi":51,"time":"483.63","velocity":0.49606299212598426,"duration":"0.02"},{"name":"F#4","midi":66,"time":"483.63","velocity":0.3858267716535433,"duration":"0.09"},{"name":"A4","midi":69,"time":"483.64","velocity":0.28346456692913385,"duration":"0.02"},{"name":"A6","midi":93,"time":"483.64","velocity":0.14960629921259844,"duration":"0.03"},{"name":"C#4","midi":61,"time":"483.65","velocity":0.3543307086614173,"duration":"0.02"},{"name":"E4","midi":64,"time":"483.65","velocity":0.3779527559055118,"duration":"0.07"},{"name":"A5","midi":81,"time":"483.67","velocity":0.2755905511811024,"duration":"0.07"},{"name":"D#3","midi":51,"time":"483.69","velocity":0.4566929133858268,"duration":"0.02"},{"name":"G5","midi":79,"time":"483.70","velocity":0.2755905511811024,"duration":"0.02"},{"name":"F6","midi":89,"time":"483.70","velocity":0.2755905511811024,"duration":"0.05"},{"name":"G#4","midi":68,"time":"483.71","velocity":0.3228346456692913,"duration":"0.02"},{"name":"F4","midi":65,"time":"483.72","velocity":0.33070866141732286,"duration":"0.03"},{"name":"D6","midi":86,"time":"483.72","velocity":0.2125984251968504,"duration":"0.03"},{"name":"C7","midi":96,"time":"483.72","velocity":0.3464566929133858,"duration":"0.36"},{"name":"D3","midi":50,"time":"483.73","velocity":0.4566929133858268,"duration":"0.02"},{"name":"A4","midi":69,"time":"483.73","velocity":0.29133858267716534,"duration":"0.03"},{"name":"C#5","midi":73,"time":"483.74","velocity":0.30708661417322836,"duration":"0.07"},{"name":"D#6","midi":87,"time":"483.74","velocity":0.28346456692913385,"duration":"0.10"},{"name":"E2","midi":40,"time":"483.76","velocity":0.25984251968503935,"duration":"0.02"},{"name":"F#5","midi":78,"time":"483.76","velocity":0.4251968503937008,"duration":"0.03"},{"name":"G6","midi":91,"time":"483.76","velocity":0.2755905511811024,"duration":"0.02"},{"name":"D3","midi":50,"time":"483.77","velocity":0.5354330708661418,"duration":"0.01"},{"name":"A3","midi":57,"time":"483.77","velocity":0.3700787401574803,"duration":"0.02"},{"name":"C#4","midi":61,"time":"483.77","velocity":0.36220472440944884,"duration":"0.02"},{"name":"C#3","midi":49,"time":"483.78","velocity":0.5511811023622047,"duration":"0.01"},{"name":"G4","midi":67,"time":"483.78","velocity":0.25196850393700787,"duration":"0.02"},{"name":"G5","midi":79,"time":"483.78","velocity":0.2755905511811024,"duration":"0.03"},{"name":"C3","midi":48,"time":"483.79","velocity":0.5984251968503937,"duration":"0.01"},{"name":"A#3","midi":58,"time":"483.79","velocity":0.4094488188976378,"duration":"0.02"},{"name":"G#5","midi":80,"time":"483.79","velocity":0.30708661417322836,"duration":"0.05"},{"name":"F6","midi":89,"time":"483.79","velocity":0.5118110236220472,"duration":"0.08"},{"name":"A#2","midi":46,"time":"483.80","velocity":0.6299212598425197,"duration":"0.01"},{"name":"D4","midi":62,"time":"483.80","velocity":0.33858267716535434,"duration":"0.02"},{"name":"B4","midi":71,"time":"483.80","velocity":0.31496062992125984,"duration":"0.02"},{"name":"F#6","midi":90,"time":"483.80","velocity":0.6377952755905512,"duration":"3.00"},{"name":"F2","midi":41,"time":"483.81","velocity":0.6299212598425197,"duration":"0.01"},{"name":"E3","midi":52,"time":"483.81","velocity":0.5275590551181102,"duration":"0.01"},{"name":"F#2","midi":42,"time":"483.83","velocity":0.5275590551181102,"duration":"0.01"},{"name":"C#4","midi":61,"time":"483.83","velocity":0.28346456692913385,"duration":"0.05"},{"name":"F4","midi":65,"time":"483.83","velocity":0.3543307086614173,"duration":"0.03"},{"name":"C#5","midi":73,"time":"483.83","velocity":0.4251968503937008,"duration":"0.29"},{"name":"G5","midi":79,"time":"483.83","velocity":0.28346456692913385,"duration":"0.03"},{"name":"A5","midi":81,"time":"483.83","velocity":0.2440944881889764,"duration":"0.05"},{"name":"A6","midi":93,"time":"483.83","velocity":0.33858267716535434,"duration":"0.16"},{"name":"G#1","midi":32,"time":"483.84","velocity":0.5196850393700787,"duration":"0.01"},{"name":"G1","midi":31,"time":"483.85","velocity":0.5433070866141733,"duration":"0.01"},{"name":"C#3","midi":49,"time":"483.85","velocity":0.5196850393700787,"duration":"0.01"},{"name":"G#4","midi":68,"time":"483.85","velocity":0.30708661417322836,"duration":"0.02"},{"name":"B4","midi":71,"time":"483.85","velocity":0.25984251968503935,"duration":"0.02"},{"name":"G#5","midi":80,"time":"483.85","velocity":0.3700787401574803,"duration":"0.10"},{"name":"C#6","midi":85,"time":"483.85","velocity":0.5669291338582677,"duration":"0.21"},{"name":"D6","midi":86,"time":"483.85","velocity":0.49606299212598426,"duration":"0.05"},{"name":"D3","midi":50,"time":"483.86","velocity":0.5118110236220472,"duration":"0.02"},{"name":"F#5","midi":78,"time":"483.86","velocity":0.4409448818897638,"duration":"0.19"},{"name":"C6","midi":84,"time":"483.86","velocity":0.31496062992125984,"duration":"0.03"},{"name":"D#6","midi":87,"time":"483.86","velocity":0.41732283464566927,"duration":"0.05"},{"name":"G7","midi":103,"time":"483.86","velocity":0.11811023622047244,"duration":"0.07"},{"name":"F#4","midi":66,"time":"483.87","velocity":0.5118110236220472,"duration":"0.41"},{"name":"A4","midi":69,"time":"483.87","velocity":0.36220472440944884,"duration":"0.07"},{"name":"A#5","midi":82,"time":"483.87","velocity":0.44881889763779526,"duration":"0.08"},{"name":"B5","midi":83,"time":"483.88","velocity":0.48031496062992124,"duration":"0.12"},{"name":"A#1","midi":34,"time":"483.90","velocity":0.4566929133858268,"duration":"0.02"},{"name":"D3","midi":50,"time":"483.90","velocity":0.4094488188976378,"duration":"0.02"},{"name":"A3","midi":57,"time":"483.90","velocity":0.3543307086614173,"duration":"0.08"},{"name":"G#1","midi":32,"time":"483.92","velocity":0.4330708661417323,"duration":"0.02"},{"name":"B4","midi":71,"time":"483.93","velocity":0.33070866141732286,"duration":"0.13"},{"name":"C3","midi":48,"time":"483.94","velocity":0.44881889763779526,"duration":"0.02"},{"name":"G7","midi":103,"time":"483.94","velocity":0.1889763779527559,"duration":"0.06"},{"name":"A5","midi":81,"time":"483.95","velocity":0.48031496062992124,"duration":"0.03"},{"name":"D#6","midi":87,"time":"483.95","velocity":0.3464566929133858,"duration":"0.12"},{"name":"A#5","midi":82,"time":"483.97","velocity":0.3228346456692913,"duration":"0.08"},{"name":"D#3","midi":51,"time":"483.98","velocity":0.5196850393700787,"duration":"0.02"},{"name":"F6","midi":89,"time":"483.98","velocity":0.2755905511811024,"duration":"0.05"},{"name":"A3","midi":57,"time":"483.99","velocity":0.3543307086614173,"duration":"0.03"},{"name":"G#5","midi":80,"time":"483.99","velocity":0.5039370078740157,"duration":"0.09"},{"name":"C6","midi":84,"time":"483.99","velocity":0.2047244094488189,"duration":"0.03"},{"name":"G6","midi":91,"time":"484.00","velocity":0.3464566929133858,"duration":"0.05"},{"name":"A6","midi":93,"time":"484.00","velocity":0.25984251968503935,"duration":"0.20"},{"name":"E5","midi":76,"time":"484.01","velocity":0.4881889763779528,"duration":"0.27"},{"name":"B5","midi":83,"time":"484.01","velocity":0.33858267716535434,"duration":"0.19"},{"name":"D7","midi":98,"time":"484.01","velocity":0.4015748031496063,"duration":"0.08"},{"name":"D3","midi":50,"time":"484.02","velocity":0.5511811023622047,"duration":"0.10"},{"name":"D6","midi":86,"time":"484.02","velocity":0.3543307086614173,"duration":"0.23"},{"name":"A3","midi":57,"time":"484.03","velocity":0.2992125984251969,"duration":"0.03"},{"name":"A5","midi":81,"time":"484.03","velocity":0.30708661417322836,"duration":"0.06"},{"name":"F6","midi":89,"time":"484.06","velocity":0.18110236220472442,"duration":"0.06"},{"name":"B4","midi":71,"time":"484.07","velocity":0.3937007874015748,"duration":"0.19"},{"name":"A3","midi":57,"time":"484.08","velocity":0.41732283464566927,"duration":"0.08"},{"name":"G#4","midi":68,"time":"484.08","velocity":0.25196850393700787,"duration":"0.02"},{"name":"G5","midi":79,"time":"484.08","velocity":0.4409448818897638,"duration":"0.05"},{"name":"A#5","midi":82,"time":"484.08","velocity":0.3228346456692913,"duration":"0.17"},{"name":"G7","midi":103,"time":"484.09","velocity":0.2677165354330709,"duration":"0.27"},{"name":"C7","midi":96,"time":"484.10","velocity":0.30708661417322836,"duration":"0.10"},{"name":"C#5","midi":73,"time":"484.13","velocity":0.30708661417322836,"duration":"0.06"},{"name":"F#5","midi":78,"time":"484.13","velocity":0.5433070866141733,"duration":"0.10"},{"name":"D3","midi":50,"time":"484.14","velocity":0.5354330708661418,"duration":"0.03"},{"name":"G#5","midi":80,"time":"484.14","velocity":0.2047244094488189,"duration":"0.03"},{"name":"D#6","midi":87,"time":"484.14","velocity":0.14960629921259844,"duration":"0.05"},{"name":"F6","midi":89,"time":"484.14","velocity":0.2677165354330709,"duration":"0.06"},{"name":"G6","midi":91,"time":"484.14","velocity":0.23622047244094488,"duration":"0.05"},{"name":"C#6","midi":85,"time":"484.15","velocity":0.3464566929133858,"duration":"0.14"},{"name":"A#3","midi":58,"time":"484.16","velocity":0.31496062992125984,"duration":"0.03"},{"name":"D#5","midi":75,"time":"484.17","velocity":0.2283464566929134,"duration":"0.02"},{"name":"G5","midi":79,"time":"484.17","velocity":0.23622047244094488,"duration":"0.02"},{"name":"G2","midi":43,"time":"484.19","velocity":0.41732283464566927,"duration":"0.02"},{"name":"G#5","midi":80,"time":"484.20","velocity":0.1889763779527559,"duration":"0.03"},{"name":"A5","midi":81,"time":"484.20","velocity":0.28346456692913385,"duration":"0.02"},{"name":"A4","midi":69,"time":"484.21","velocity":0.28346456692913385,"duration":"0.03"},{"name":"D#6","midi":87,"time":"484.21","velocity":0.2755905511811024,"duration":"0.07"},{"name":"A3","midi":57,"time":"484.22","velocity":0.4251968503937008,"duration":"0.08"},{"name":"D4","midi":62,"time":"484.22","velocity":0.31496062992125984,"duration":"0.06"},{"name":"C7","midi":96,"time":"484.22","velocity":0.2992125984251969,"duration":"0.16"},{"name":"D7","midi":98,"time":"484.22","velocity":0.4566929133858268,"duration":"0.52"},{"name":"G5","midi":79,"time":"484.23","velocity":0.49606299212598426,"duration":"0.02"},{"name":"F1","midi":29,"time":"484.24","velocity":0.2755905511811024,"duration":"0.02"},{"name":"A5","midi":81,"time":"484.24","velocity":0.29133858267716534,"duration":"0.10"},{"name":"F#5","midi":78,"time":"484.26","velocity":0.5275590551181102,"duration":"0.10"},{"name":"B5","midi":83,"time":"484.26","velocity":0.33070866141732286,"duration":"0.03"},{"name":"E4","midi":64,"time":"484.27","velocity":0.3464566929133858,"duration":"0.02"},{"name":"B4","midi":71,"time":"484.27","velocity":0.33858267716535434,"duration":"0.07"},{"name":"D6","midi":86,"time":"484.27","velocity":0.33070866141732286,"duration":"0.08"},{"name":"F6","midi":89,"time":"484.27","velocity":0.1732283464566929,"duration":"0.03"},{"name":"B1","midi":35,"time":"484.28","velocity":0.3858267716535433,"duration":"0.02"},{"name":"G#4","midi":68,"time":"484.28","velocity":0.29133858267716534,"duration":"0.03"},{"name":"F5","midi":77,"time":"484.28","velocity":0.4330708661417323,"duration":"0.02"},{"name":"A#5","midi":82,"time":"484.28","velocity":0.15748031496062992,"duration":"0.03"},{"name":"C6","midi":84,"time":"484.28","velocity":0.33070866141732286,"duration":"0.03"},{"name":"D4","midi":62,"time":"484.29","velocity":0.4566929133858268,"duration":"0.05"},{"name":"E5","midi":76,"time":"484.29","velocity":0.4409448818897638,"duration":"0.06"},{"name":"C#6","midi":85,"time":"484.30","velocity":0.28346456692913385,"duration":"0.12"},{"name":"A3","midi":57,"time":"484.31","velocity":0.47244094488188976,"duration":"0.17"},{"name":"F6","midi":89,"time":"484.31","velocity":0.11811023622047244,"duration":"0.03"},{"name":"G6","midi":91,"time":"484.31","velocity":0.31496062992125984,"duration":"0.07"},{"name":"D#3","midi":51,"time":"484.33","velocity":0.3700787401574803,"duration":"0.02"},{"name":"C#5","midi":73,"time":"484.33","velocity":0.29133858267716534,"duration":"0.03"},{"name":"A#5","midi":82,"time":"484.33","velocity":0.2992125984251969,"duration":"0.12"},{"name":"D4","midi":62,"time":"484.35","velocity":0.4251968503937008,"duration":"0.09"},{"name":"A#4","midi":70,"time":"484.35","velocity":0.2283464566929134,"duration":"0.02"},{"name":"D#5","midi":75,"time":"484.35","velocity":0.3543307086614173,"duration":"0.02"},{"name":"E2","midi":40,"time":"484.36","velocity":0.41732283464566927,"duration":"0.02"},{"name":"G#4","midi":68,"time":"484.36","velocity":0.3228346456692913,"duration":"0.02"},{"name":"F5","midi":77,"time":"484.36","velocity":0.4251968503937008,"duration":"0.02"},{"name":"F4","midi":65,"time":"484.37","velocity":0.41732283464566927,"duration":"0.02"},{"name":"C#5","midi":73,"time":"484.37","velocity":0.29133858267716534,"duration":"0.03"},{"name":"E5","midi":76,"time":"484.37","velocity":0.49606299212598426,"duration":"0.19"},{"name":"F#5","midi":78,"time":"484.37","velocity":0.5275590551181102,"duration":"0.06"},{"name":"D3","midi":50,"time":"484.38","velocity":0.4251968503937008,"duration":"0.03"},{"name":"G#5","midi":80,"time":"484.38","velocity":0.25984251968503935,"duration":"0.07"},{"name":"C6","midi":84,"time":"484.38","velocity":0.2992125984251969,"duration":"0.07"},{"name":"A6","midi":93,"time":"484.38","velocity":0.2125984251968504,"duration":"0.10"},{"name":"G7","midi":103,"time":"484.38","velocity":0.2047244094488189,"duration":"0.07"},{"name":"C5","midi":72,"time":"484.40","velocity":0.25196850393700787,"duration":"0.03"},{"name":"A#6","midi":94,"time":"484.40","velocity":0.3543307086614173,"duration":"0.74"},{"name":"C7","midi":96,"time":"484.40","velocity":0.3228346456692913,"duration":"0.29"},{"name":"E2","midi":40,"time":"484.41","velocity":0.4251968503937008,"duration":"0.02"},{"name":"F6","midi":89,"time":"484.41","velocity":0.16535433070866143,"duration":"0.03"},{"name":"G5","midi":79,"time":"484.42","velocity":0.5118110236220472,"duration":"0.02"},{"name":"D3","midi":50,"time":"484.43","velocity":0.41732283464566927,"duration":"0.02"},{"name":"B4","midi":71,"time":"484.43","velocity":0.2125984251968504,"duration":"0.03"},{"name":"A5","midi":81,"time":"484.43","velocity":0.23622047244094488,"duration":"0.05"},{"name":"C#6","midi":85,"time":"484.43","velocity":0.5669291338582677,"duration":"0.77"},{"name":"C2","midi":36,"time":"484.44","velocity":0.3937007874015748,"duration":"0.02"},{"name":"E4","midi":64,"time":"484.44","velocity":0.36220472440944884,"duration":"0.05"},{"name":"G4","midi":67,"time":"484.44","velocity":0.3543307086614173,"duration":"0.05"},{"name":"C#5","midi":73,"time":"484.44","velocity":0.41732283464566927,"duration":"0.16"},{"name":"F#5","midi":78,"time":"484.44","velocity":0.5984251968503937,"duration":"0.16"},{"name":"B5","midi":83,"time":"484.44","velocity":0.4094488188976378,"duration":"0.14"},{"name":"D#6","midi":87,"time":"484.44","velocity":0.23622047244094488,"duration":"0.06"},{"name":"F6","midi":89,"time":"484.45","velocity":0.15748031496062992,"duration":"0.05"},{"name":"G6","midi":91,"time":"484.45","velocity":0.18110236220472442,"duration":"0.05"},{"name":"D3","midi":50,"time":"484.47","velocity":0.5118110236220472,"duration":"0.07"},{"name":"A#4","midi":70,"time":"484.47","velocity":0.2677165354330709,"duration":"0.02"},{"name":"D6","midi":86,"time":"484.47","velocity":0.2440944881889764,"duration":"0.05"},{"name":"D2","midi":38,"time":"484.48","velocity":0.28346456692913385,"duration":"0.02"},{"name":"A#5","midi":82,"time":"484.48","velocity":0.3779527559055118,"duration":"0.09"},{"name":"F#4","midi":66,"time":"484.49","velocity":0.4330708661417323,"duration":"0.03"},{"name":"B4","midi":71,"time":"484.49","velocity":0.2440944881889764,"duration":"0.02"},{"name":"G#5","midi":80,"time":"484.50","velocity":0.33070866141732286,"duration":"0.07"},{"name":"A#4","midi":70,"time":"484.51","velocity":0.2283464566929134,"duration":"0.02"},{"name":"G7","midi":103,"time":"484.51","velocity":0.30708661417322836,"duration":"0.15"},{"name":"F4","midi":65,"time":"484.52","velocity":0.4094488188976378,"duration":"0.02"},{"name":"D6","midi":86,"time":"484.52","velocity":0.3464566929133858,"duration":"0.12"},{"name":"D4","midi":62,"time":"484.53","velocity":0.41732283464566927,"duration":"0.02"},{"name":"G6","midi":91,"time":"484.53","velocity":0.29133858267716534,"duration":"0.06"},{"name":"A6","midi":93,"time":"484.53","velocity":0.3228346456692913,"duration":"0.14"},{"name":"G3","midi":55,"time":"484.55","velocity":0.5118110236220472,"duration":"0.02"},{"name":"A#4","midi":70,"time":"484.55","velocity":0.4251968503937008,"duration":"0.02"},{"name":"C#4","midi":61,"time":"484.56","velocity":0.5354330708661418,"duration":"0.03"},{"name":"A4","midi":69,"time":"484.56","velocity":0.47244094488188976,"duration":"0.02"},{"name":"C6","midi":84,"time":"484.56","velocity":0.3543307086614173,"duration":"0.08"},{"name":"G#6","midi":92,"time":"484.56","velocity":0.4251968503937008,"duration":"0.31"},{"name":"F6","midi":89,"time":"484.57","velocity":0.25196850393700787,"duration":"0.06"},{"name":"A#4","midi":70,"time":"484.58","velocity":0.4881889763779528,"duration":"0.02"},{"name":"D5","midi":74,"time":"484.58","velocity":0.36220472440944884,"duration":"0.05"},{"name":"E5","midi":76,"time":"484.58","velocity":0.4645669291338583,"duration":"0.07"},{"name":"D#6","midi":87,"time":"484.58","velocity":0.2125984251968504,"duration":"0.07"},{"name":"B3","midi":59,"time":"484.59","velocity":0.3858267716535433,"duration":"0.02"},{"name":"G#4","midi":68,"time":"484.59","velocity":0.33858267716535434,"duration":"0.03"},{"name":"B5","midi":83,"time":"484.59","velocity":0.41732283464566927,"duration":"0.44"},{"name":"C#4","midi":61,"time":"484.60","velocity":0.4251968503937008,"duration":"0.03"},{"name":"F4","midi":65,"time":"484.60","velocity":0.44881889763779526,"duration":"0.02"},{"name":"G6","midi":91,"time":"484.60","velocity":0.3700787401574803,"duration":"0.02"},{"name":"F#5","midi":78,"time":"484.62","velocity":0.4881889763779528,"duration":"0.07"},{"name":"A3","midi":57,"time":"484.63","velocity":0.4881889763779528,"duration":"0.06"},{"name":"F#4","midi":66,"time":"484.63","velocity":0.4251968503937008,"duration":"0.03"},{"name":"E3","midi":52,"time":"484.64","velocity":0.3700787401574803,"duration":"0.02"},{"name":"C5","midi":72,"time":"484.64","velocity":0.3858267716535433,"duration":"0.02"},{"name":"G#5","midi":80,"time":"484.64","velocity":0.2755905511811024,"duration":"0.07"},{"name":"B2","midi":47,"time":"484.65","velocity":0.3858267716535433,"duration":"0.02"},{"name":"E4","midi":64,"time":"484.65","velocity":0.4566929133858268,"duration":"0.02"},{"name":"A#5","midi":82,"time":"484.65","velocity":0.3464566929133858,"duration":"0.17"},{"name":"G#4","midi":68,"time":"484.66","velocity":0.2992125984251969,"duration":"0.02"},{"name":"C#5","midi":73,"time":"484.66","velocity":0.4015748031496063,"duration":"0.02"},{"name":"D6","midi":86,"time":"484.66","velocity":0.23622047244094488,"duration":"0.02"},{"name":"A#2","midi":46,"time":"484.67","velocity":0.4251968503937008,"duration":"0.02"},{"name":"G6","midi":91,"time":"484.67","velocity":0.2283464566929134,"duration":"0.02"},{"name":"F5","midi":77,"time":"484.69","velocity":0.5039370078740157,"duration":"0.05"},{"name":"F2","midi":41,"time":"484.70","velocity":0.47244094488188976,"duration":"0.02"},{"name":"G#4","midi":68,"time":"484.70","velocity":0.28346456692913385,"duration":"0.02"},{"name":"C#5","midi":73,"time":"484.70","velocity":0.3700787401574803,"duration":"0.09"},{"name":"D6","midi":86,"time":"484.70","velocity":0.29133858267716534,"duration":"0.03"},{"name":"C7","midi":96,"time":"484.70","velocity":0.2755905511811024,"duration":"0.06"},{"name":"D3","midi":50,"time":"484.71","velocity":0.41732283464566927,"duration":"0.05"},{"name":"G5","midi":79,"time":"484.71","velocity":0.25984251968503935,"duration":"0.02"},{"name":"A6","midi":93,"time":"484.71","velocity":0.25984251968503935,"duration":"0.19"},{"name":"A3","midi":57,"time":"484.72","velocity":0.4330708661417323,"duration":"0.14"},{"name":"F#5","midi":78,"time":"484.72","velocity":0.5118110236220472,"duration":"0.14"},{"name":"A5","midi":81,"time":"484.72","velocity":0.29133858267716534,"duration":"0.09"},{"name":"F#4","midi":66,"time":"484.73","velocity":0.4645669291338583,"duration":"0.16"},{"name":"E5","midi":76,"time":"484.73","velocity":0.5118110236220472,"duration":"0.15"},{"name":"G#5","midi":80,"time":"484.73","velocity":0.2755905511811024,"duration":"0.05"},{"name":"G6","midi":91,"time":"484.73","velocity":0.1968503937007874,"duration":"0.03"},{"name":"D#6","midi":87,"time":"484.74","velocity":0.1968503937007874,"duration":"0.03"},{"name":"D4","midi":62,"time":"484.76","velocity":0.3858267716535433,"duration":"0.14"},{"name":"D6","midi":86,"time":"484.76","velocity":0.2204724409448819,"duration":"0.03"},{"name":"D7","midi":98,"time":"484.76","velocity":0.3779527559055118,"duration":"1.34"},{"name":"D#3","midi":51,"time":"484.77","velocity":0.4251968503937008,"duration":"0.03"},{"name":"C7","midi":96,"time":"484.77","velocity":0.36220472440944884,"duration":"0.28"},{"name":"G6","midi":91,"time":"484.78","velocity":0.2992125984251969,"duration":"0.02"},{"name":"E2","midi":40,"time":"484.79","velocity":0.44881889763779526,"duration":"0.02"},{"name":"B4","midi":71,"time":"484.79","velocity":0.31496062992125984,"duration":"0.03"},{"name":"D#6","midi":87,"time":"484.79","velocity":0.14173228346456693,"duration":"0.03"},{"name":"C#5","midi":73,"time":"484.80","velocity":0.4330708661417323,"duration":"0.17"},{"name":"G6","midi":91,"time":"484.81","velocity":0.36220472440944884,"duration":"0.12"},{"name":"D#7","midi":99,"time":"484.83","velocity":0.30708661417322836,"duration":"1.97"},{"name":"G#5","midi":80,"time":"484.84","velocity":0.23622047244094488,"duration":"0.08"},{"name":"A#5","midi":82,"time":"484.84","velocity":0.3700787401574803,"duration":"0.27"},{"name":"D3","midi":50,"time":"484.85","velocity":0.4645669291338583,"duration":"0.05"},{"name":"B4","midi":71,"time":"484.85","velocity":0.23622047244094488,"duration":"0.02"},{"name":"F6","midi":89,"time":"484.85","velocity":0.2755905511811024,"duration":"0.13"},{"name":"F5","midi":77,"time":"484.86","velocity":0.49606299212598426,"duration":"0.05"},{"name":"A4","midi":69,"time":"484.87","velocity":0.36220472440944884,"duration":"0.02"},{"name":"D#6","midi":87,"time":"484.87","velocity":0.1732283464566929,"duration":"0.06"},{"name":"G#4","midi":68,"time":"484.88","velocity":0.3700787401574803,"duration":"0.03"},{"name":"D6","midi":86,"time":"484.88","velocity":0.25984251968503935,"duration":"0.02"},{"name":"G#6","midi":92,"time":"484.88","velocity":0.3779527559055118,"duration":"0.66"},{"name":"D3","midi":50,"time":"484.91","velocity":0.5118110236220472,"duration":"0.02"},{"name":"G#3","midi":56,"time":"484.91","velocity":0.30708661417322836,"duration":"0.02"},{"name":"E4","midi":64,"time":"484.91","velocity":0.3937007874015748,"duration":"0.08"},{"name":"E5","midi":76,"time":"484.91","velocity":0.41732283464566927,"duration":"0.02"},{"name":"A6","midi":93,"time":"484.91","velocity":0.25984251968503935,"duration":"0.14"},{"name":"G4","midi":67,"time":"484.92","velocity":0.3700787401574803,"duration":"0.03"},{"name":"F5","midi":77,"time":"484.92","velocity":0.5039370078740157,"duration":"0.03"},{"name":"A2","midi":45,"time":"484.93","velocity":0.5748031496062992,"duration":"0.01"},{"name":"A#4","midi":70,"time":"484.93","velocity":0.2283464566929134,"duration":"0.02"},{"name":"D6","midi":86,"time":"484.93","velocity":0.2047244094488189,"duration":"0.05"},{"name":"A#2","midi":46,"time":"484.94","velocity":0.5275590551181102,"duration":"0.01"},{"name":"E6","midi":88,"time":"484.94","velocity":0.31496062992125984,"duration":"0.12"},{"name":"D3","midi":50,"time":"484.95","velocity":0.5590551181102362,"duration":"0.08"},{"name":"F#5","midi":78,"time":"484.95","velocity":0.5433070866141733,"duration":"0.17"},{"name":"A5","midi":81,"time":"484.95","velocity":0.30708661417322836,"duration":"0.08"},{"name":"G6","midi":91,"time":"484.95","velocity":0.2755905511811024,"duration":"0.06"},{"name":"F#4","midi":66,"time":"484.97","velocity":0.2992125984251969,"duration":"0.03"},{"name":"B4","midi":71,"time":"484.97","velocity":0.4409448818897638,"duration":"0.08"},{"name":"D#5","midi":75,"time":"484.97","velocity":0.2755905511811024,"duration":"0.02"},{"name":"A3","midi":57,"time":"484.98","velocity":0.28346456692913385,"duration":"0.06"},{"name":"G#5","midi":80,"time":"484.98","velocity":0.1968503937007874,"duration":"0.03"},{"name":"D6","midi":86,"time":"484.99","velocity":0.18110236220472442,"duration":"0.03"},{"name":"A4","midi":69,"time":"485.00","velocity":0.4645669291338583,"duration":"0.08"},{"name":"F5","midi":77,"time":"485.00","velocity":0.33070866141732286,"duration":"0.03"},{"name":"C#4","midi":61,"time":"485.02","velocity":0.2440944881889764,"duration":"0.02"},{"name":"D#6","midi":87,"time":"485.02","velocity":0.1968503937007874,"duration":"0.14"},{"name":"G6","midi":91,"time":"485.02","velocity":0.3700787401574803,"duration":"0.10"},{"name":"D4","midi":62,"time":"485.03","velocity":0.3858267716535433,"duration":"0.03"},{"name":"G#5","midi":80,"time":"485.03","velocity":0.23622047244094488,"duration":"0.07"},{"name":"G4","midi":67,"time":"485.05","velocity":0.4566929133858268,"duration":"0.02"},{"name":"B5","midi":83,"time":"485.05","velocity":0.48031496062992124,"duration":"0.48"},{"name":"F6","midi":89,"time":"485.05","velocity":0.2204724409448819,"duration":"0.03"},{"name":"E5","midi":76,"time":"485.06","velocity":0.2992125984251969,"duration":"0.05"},{"name":"D6","midi":86,"time":"485.06","velocity":0.33858267716535434,"duration":"0.06"},{"name":"C7","midi":96,"time":"485.06","velocity":0.2992125984251969,"duration":"0.23"},{"name":"D3","midi":50,"time":"485.07","velocity":0.5039370078740157,"duration":"0.07"},{"name":"F#4","midi":66,"time":"485.07","velocity":0.3858267716535433,"duration":"0.06"},{"name":"C#5","midi":73,"time":"485.07","velocity":0.28346456692913385,"duration":"0.03"},{"name":"E6","midi":88,"time":"485.07","velocity":0.31496062992125984,"duration":"0.26"},{"name":"A6","midi":93,"time":"485.07","velocity":0.2677165354330709,"duration":"0.29"},{"name":"B4","midi":71,"time":"485.08","velocity":0.44881889763779526,"duration":"0.43"},{"name":"F#2","midi":42,"time":"485.09","velocity":0.2755905511811024,"duration":"0.02"},{"name":"A5","midi":81,"time":"485.10","velocity":0.2677165354330709,"duration":"0.05"},{"name":"E5","midi":76,"time":"485.12","velocity":0.3937007874015748,"duration":"0.02"},{"name":"D#4","midi":63,"time":"485.13","velocity":0.33070866141732286,"duration":"0.02"},{"name":"G4","midi":67,"time":"485.13","velocity":0.4015748031496063,"duration":"0.05"},{"name":"C#5","midi":73,"time":"485.14","velocity":0.25984251968503935,"duration":"0.05"},{"name":"F#5","midi":78,"time":"485.14","velocity":0.6220472440944882,"duration":"0.84"},{"name":"G#5","midi":80,"time":"485.14","velocity":0.2440944881889764,"duration":"0.07"},{"name":"A#5","midi":82,"time":"485.14","velocity":0.2283464566929134,"duration":"0.05"},{"name":"D3","midi":50,"time":"485.15","velocity":0.5590551181102362,"duration":"0.13"},{"name":"E5","midi":76,"time":"485.15","velocity":0.33070866141732286,"duration":"0.06"},{"name":"G6","midi":91,"time":"485.15","velocity":0.2992125984251969,"duration":"0.02"},{"name":"A#6","midi":94,"time":"485.15","velocity":0.3779527559055118,"duration":"0.98"},{"name":"F#4","midi":66,"time":"485.17","velocity":0.3779527559055118,"duration":"0.02"},{"name":"A5","midi":81,"time":"485.17","velocity":0.1968503937007874,"duration":"0.05"},{"name":"D6","midi":86,"time":"485.17","velocity":0.2992125984251969,"duration":"0.08"},{"name":"D#6","midi":87,"time":"485.17","velocity":0.1732283464566929,"duration":"0.03"},{"name":"G4","midi":67,"time":"485.20","velocity":0.4251968503937008,"duration":"0.02"},{"name":"G6","midi":91,"time":"485.21","velocity":0.30708661417322836,"duration":"0.05"},{"name":"F#4","midi":66,"time":"485.22","velocity":0.47244094488188976,"duration":"0.12"},{"name":"G#5","midi":80,"time":"485.22","velocity":0.11811023622047244,"duration":"0.03"},{"name":"A#3","midi":58,"time":"485.23","velocity":0.30708661417322836,"duration":"0.02"},{"name":"C#5","midi":73,"time":"485.23","velocity":0.3228346456692913,"duration":"0.06"},{"name":"A#5","midi":82,"time":"485.23","velocity":0.30708661417322836,"duration":"0.03"},{"name":"F#2","midi":42,"time":"485.26","velocity":0.31496062992125984,"duration":"0.02"},{"name":"A4","midi":69,"time":"485.26","velocity":0.3228346456692913,"duration":"0.03"},{"name":"G6","midi":91,"time":"485.27","velocity":0.3543307086614173,"duration":"0.03"},{"name":"C#3","midi":49,"time":"485.28","velocity":0.5196850393700787,"duration":"0.01"},{"name":"D#4","midi":63,"time":"485.28","velocity":0.28346456692913385,"duration":"0.02"},{"name":"D5","midi":74,"time":"485.29","velocity":0.3228346456692913,"duration":"0.08"},{"name":"F5","midi":77,"time":"485.30","velocity":0.4015748031496063,"duration":"0.02"},{"name":"G#5","midi":80,"time":"485.30","velocity":0.33858267716535434,"duration":"0.23"},{"name":"C7","midi":96,"time":"485.30","velocity":0.3464566929133858,"duration":"0.97"},{"name":"F2","midi":41,"time":"485.31","velocity":0.6062992125984252,"duration":"0.02"},{"name":"C#3","midi":49,"time":"485.33","velocity":0.5118110236220472,"duration":"0.01"},{"name":"E5","midi":76,"time":"485.33","velocity":0.3779527559055118,"duration":"0.03"},{"name":"C#6","midi":85,"time":"485.33","velocity":0.4881889763779528,"duration":"0.34"},{"name":"D#6","midi":87,"time":"485.33","velocity":0.2125984251968504,"duration":"0.06"},{"name":"G7","midi":103,"time":"485.33","velocity":0.1732283464566929,"duration":"0.24"},{"name":"D#3","midi":51,"time":"485.34","velocity":0.5196850393700787,"duration":"0.01"},{"name":"G4","midi":67,"time":"485.34","velocity":0.28346456692913385,"duration":"0.02"},{"name":"C#5","midi":73,"time":"485.34","velocity":0.3700787401574803,"duration":"0.14"},{"name":"G6","midi":91,"time":"485.34","velocity":0.33070866141732286,"duration":"0.12"},{"name":"D3","midi":50,"time":"485.35","velocity":0.5118110236220472,"duration":"0.01"},{"name":"F#4","midi":66,"time":"485.35","velocity":0.3700787401574803,"duration":"0.02"},{"name":"F6","midi":89,"time":"485.35","velocity":0.2283464566929134,"duration":"0.06"},{"name":"F7","midi":101,"time":"485.35","velocity":0.2440944881889764,"duration":"0.43"},{"name":"G#3","midi":56,"time":"485.36","velocity":0.28346456692913385,"duration":"0.02"},{"name":"C#4","midi":61,"time":"485.36","velocity":0.25196850393700787,"duration":"0.02"},{"name":"A#5","midi":82,"time":"485.36","velocity":0.31496062992125984,"duration":"0.27"},{"name":"D3","midi":50,"time":"485.37","velocity":0.5354330708661418,"duration":"0.16"},{"name":"E5","midi":76,"time":"485.37","velocity":0.3228346456692913,"duration":"0.05"},{"name":"A6","midi":93,"time":"485.37","velocity":0.1968503937007874,"duration":"0.08"},{"name":"F#4","midi":66,"time":"485.38","velocity":0.4645669291338583,"duration":"0.08"},{"name":"A4","midi":69,"time":"485.38","velocity":0.3858267716535433,"duration":"0.03"},{"name":"A5","midi":81,"time":"485.42","velocity":0.2755905511811024,"duration":"0.02"},{"name":"F6","midi":89,"time":"485.43","velocity":0.2204724409448819,"duration":"0.03"},{"name":"A#3","midi":58,"time":"485.47","velocity":0.2992125984251969,"duration":"0.02"},{"name":"D6","midi":86,"time":"485.47","velocity":0.2677165354330709,"duration":"0.03"},{"name":"A6","midi":93,"time":"485.47","velocity":0.18110236220472442,"duration":"0.03"},{"name":"D#6","midi":87,"time":"485.48","velocity":0.1968503937007874,"duration":"0.05"},{"name":"A3","midi":57,"time":"485.49","velocity":0.3700787401574803,"duration":"0.05"},{"name":"E5","midi":76,"time":"485.49","velocity":0.33070866141732286,"duration":"0.05"},{"name":"C6","midi":84,"time":"485.49","velocity":0.25984251968503935,"duration":"0.15"},{"name":"G6","midi":91,"time":"485.49","velocity":0.3543307086614173,"duration":"0.24"},{"name":"A6","midi":93,"time":"485.51","velocity":0.2283464566929134,"duration":"0.17"},{"name":"D3","midi":50,"time":"485.55","velocity":0.5433070866141733,"duration":"0.13"},{"name":"C5","midi":72,"time":"485.55","velocity":0.33070866141732286,"duration":"0.05"},{"name":"E6","midi":88,"time":"485.55","velocity":0.1968503937007874,"duration":"0.07"},{"name":"A3","midi":57,"time":"485.56","velocity":0.3464566929133858,"duration":"0.07"},{"name":"F#4","midi":66,"time":"485.56","velocity":0.4409448818897638,"duration":"0.09"},{"name":"G#6","midi":92,"time":"485.56","velocity":0.25984251968503935,"duration":"0.02"},{"name":"D#6","midi":87,"time":"485.57","velocity":0.23622047244094488,"duration":"0.03"},{"name":"C#5","midi":73,"time":"485.58","velocity":0.33070866141732286,"duration":"0.02"},{"name":"E5","midi":76,"time":"485.58","velocity":0.2047244094488189,"duration":"0.03"},{"name":"G#6","midi":92,"time":"485.59","velocity":0.33858267716535434,"duration":"0.47"},{"name":"B4","midi":71,"time":"485.60","velocity":0.3937007874015748,"duration":"0.16"},{"name":"D6","midi":86,"time":"485.60","velocity":0.28346456692913385,"duration":"0.07"},{"name":"G#5","midi":80,"time":"485.62","velocity":0.3464566929133858,"duration":"0.07"},{"name":"D#6","midi":87,"time":"485.62","velocity":0.16535433070866143,"duration":"0.03"},{"name":"A5","midi":81,"time":"485.63","velocity":0.23622047244094488,"duration":"0.02"},{"name":"A3","midi":57,"time":"485.64","velocity":0.3858267716535433,"duration":"0.02"},{"name":"E5","midi":76,"time":"485.64","velocity":0.33070866141732286,"duration":"0.06"},{"name":"C6","midi":84,"time":"485.65","velocity":0.33858267716535434,"duration":"0.17"},{"name":"F#4","midi":66,"time":"485.66","velocity":0.4409448818897638,"duration":"0.02"},{"name":"C#5","midi":73,"time":"485.66","velocity":0.3543307086614173,"duration":"0.20"},{"name":"A5","midi":81,"time":"485.66","velocity":0.2755905511811024,"duration":"0.02"},{"name":"D#6","midi":87,"time":"485.66","velocity":0.3543307086614173,"duration":"0.31"},{"name":"F#2","midi":42,"time":"485.67","velocity":0.5354330708661418,"duration":"0.02"},{"name":"D#3","midi":51,"time":"485.67","velocity":0.5275590551181102,"duration":"0.02"},{"name":"A#3","midi":58,"time":"485.67","velocity":0.4566929133858268,"duration":"0.02"},{"name":"C#6","midi":85,"time":"485.67","velocity":0.3779527559055118,"duration":"0.06"},{"name":"A4","midi":69,"time":"485.69","velocity":0.3464566929133858,"duration":"0.06"},{"name":"B6","midi":95,"time":"485.69","velocity":0.33858267716535434,"duration":"0.45"},{"name":"F2","midi":41,"time":"485.70","velocity":0.5748031496062992,"duration":"0.03"},{"name":"D3","midi":50,"time":"485.70","velocity":0.5984251968503937,"duration":"0.17"},{"name":"E5","midi":76,"time":"485.71","velocity":0.2992125984251969,"duration":"0.05"},{"name":"F6","midi":89,"time":"485.71","velocity":0.2047244094488189,"duration":"0.03"},{"name":"G4","midi":67,"time":"485.72","velocity":0.49606299212598426,"duration":"0.03"},{"name":"G#5","midi":80,"time":"485.73","velocity":0.3228346456692913,"duration":"0.27"},{"name":"F#4","midi":66,"time":"485.74","velocity":0.36220472440944884,"duration":"0.05"},{"name":"G6","midi":91,"time":"485.74","velocity":0.30708661417322836,"duration":"0.16"},{"name":"E7","midi":100,"time":"485.76","velocity":0.4251968503937008,"duration":"2.22"},{"name":"E5","midi":76,"time":"485.77","velocity":0.2283464566929134,"duration":"0.03"},{"name":"C2","midi":36,"time":"485.78","velocity":0.41732283464566927,"duration":"0.02"},{"name":"B4","midi":71,"time":"485.78","velocity":0.31496062992125984,"duration":"0.03"},{"name":"G4","midi":67,"time":"485.79","velocity":0.4409448818897638,"duration":"0.02"},{"name":"F7","midi":101,"time":"485.79","velocity":0.25196850393700787,"duration":"0.41"},{"name":"G7","midi":103,"time":"485.79","velocity":0.3779527559055118,"duration":"0.59"},{"name":"F#4","midi":66,"time":"485.81","velocity":0.47244094488188976,"duration":"0.08"},{"name":"A#4","midi":70,"time":"485.81","velocity":0.29133858267716534,"duration":"0.03"},{"name":"B5","midi":83,"time":"485.83","velocity":0.3937007874015748,"duration":"0.12"},{"name":"D6","midi":86,"time":"485.83","velocity":0.3937007874015748,"duration":"0.10"},{"name":"A6","midi":93,"time":"485.84","velocity":0.30708661417322836,"duration":"0.08"},{"name":"A4","midi":69,"time":"485.85","velocity":0.3700787401574803,"duration":"0.05"},{"name":"D#5","midi":75,"time":"485.85","velocity":0.4330708661417323,"duration":"0.03"},{"name":"C#6","midi":85,"time":"485.85","velocity":0.3543307086614173,"duration":"0.22"},{"name":"A3","midi":57,"time":"485.86","velocity":0.31496062992125984,"duration":"0.05"},{"name":"D3","midi":50,"time":"485.88","velocity":0.4566929133858268,"duration":"0.02"},{"name":"D5","midi":74,"time":"485.88","velocity":0.44881889763779526,"duration":"0.07"},{"name":"E6","midi":88,"time":"485.88","velocity":0.3700787401574803,"duration":"0.31"},{"name":"E5","midi":76,"time":"485.90","velocity":0.25984251968503935,"duration":"0.02"},{"name":"F#4","midi":66,"time":"485.91","velocity":0.4330708661417323,"duration":"0.14"},{"name":"A#5","midi":82,"time":"485.91","velocity":0.2677165354330709,"duration":"0.07"},{"name":"C6","midi":84,"time":"485.91","velocity":0.3937007874015748,"duration":"0.12"},{"name":"D3","midi":50,"time":"485.92","velocity":0.5748031496062992,"duration":"0.14"},{"name":"D#4","midi":63,"time":"485.92","velocity":0.33070866141732286,"duration":"0.02"},{"name":"C5","midi":72,"time":"485.92","velocity":0.4566929133858268,"duration":"0.03"},{"name":"G6","midi":91,"time":"485.92","velocity":0.36220472440944884,"duration":"0.09"},{"name":"B3","midi":59,"time":"485.93","velocity":0.33858267716535434,"duration":"0.02"},{"name":"E5","midi":76,"time":"485.93","velocity":0.33070866141732286,"duration":"0.02"},{"name":"A6","midi":93,"time":"485.93","velocity":0.2440944881889764,"duration":"0.03"},{"name":"C#4","midi":61,"time":"485.94","velocity":0.33070866141732286,"duration":"0.02"},{"name":"F6","midi":89,"time":"485.94","velocity":0.2440944881889764,"duration":"0.05"},{"name":"A3","midi":57,"time":"485.95","velocity":0.33858267716535434,"duration":"0.07"},{"name":"B4","midi":71,"time":"485.95","velocity":0.4645669291338583,"duration":"0.03"},{"name":"D5","midi":74,"time":"485.97","velocity":0.3858267716535433,"duration":"0.07"},{"name":"A6","midi":93,"time":"485.98","velocity":0.44881889763779526,"duration":"0.60"},{"name":"A#4","midi":70,"time":"485.99","velocity":0.49606299212598426,"duration":"0.03"},{"name":"F#5","midi":78,"time":"485.99","velocity":0.48031496062992124,"duration":"0.03"},{"name":"F6","midi":89,"time":"486.00","velocity":0.2755905511811024,"duration":"0.05"},{"name":"B4","midi":71,"time":"486.01","velocity":0.44881889763779526,"duration":"0.03"},{"name":"G#5","midi":80,"time":"486.01","velocity":0.23622047244094488,"duration":"0.03"},{"name":"A5","midi":81,"time":"486.01","velocity":0.49606299212598426,"duration":"0.33"},{"name":"A4","midi":69,"time":"486.02","velocity":0.6141732283464567,"duration":"0.24"},{"name":"D#4","midi":63,"time":"486.03","velocity":0.3937007874015748,"duration":"0.02"},{"name":"C#5","midi":73,"time":"486.03","velocity":0.4330708661417323,"duration":"0.03"},{"name":"E5","midi":76,"time":"486.03","velocity":0.4015748031496063,"duration":"0.07"},{"name":"F#5","midi":78,"time":"486.03","velocity":0.5275590551181102,"duration":"0.12"},{"name":"D#6","midi":87,"time":"486.03","velocity":0.3228346456692913,"duration":"0.06"},{"name":"G6","midi":91,"time":"486.05","velocity":0.31496062992125984,"duration":"0.02"},{"name":"C4","midi":60,"time":"486.06","velocity":0.41732283464566927,"duration":"0.02"},{"name":"F4","midi":65,"time":"486.07","velocity":0.4645669291338583,"duration":"0.06"},{"name":"C6","midi":84,"time":"486.07","velocity":0.25196850393700787,"duration":"0.03"},{"name":"G#6","midi":92,"time":"486.07","velocity":0.4330708661417323,"duration":"0.41"},{"name":"D#3","midi":51,"time":"486.08","velocity":0.5590551181102362,"duration":"0.01"},{"name":"C5","midi":72,"time":"486.08","velocity":0.3858267716535433,"duration":"0.02"},{"name":"D3","midi":50,"time":"486.09","velocity":0.5511811023622047,"duration":"0.34"},{"name":"B5","midi":83,"time":"486.09","velocity":0.3858267716535433,"duration":"0.17"},{"name":"C#6","midi":85,"time":"486.09","velocity":0.5118110236220472,"duration":"1.13"},{"name":"G6","midi":91,"time":"486.09","velocity":0.3228346456692913,"duration":"0.05"},{"name":"A#3","midi":58,"time":"486.10","velocity":0.3464566929133858,"duration":"0.03"},{"name":"C#5","midi":73,"time":"486.10","velocity":0.3700787401574803,"duration":"0.03"},{"name":"F#4","midi":66,"time":"486.12","velocity":0.5039370078740157,"duration":"0.12"},{"name":"G#5","midi":80,"time":"486.12","velocity":0.2440944881889764,"duration":"0.05"},{"name":"A#5","midi":82,"time":"486.13","velocity":0.31496062992125984,"duration":"0.02"},{"name":"A1","midi":33,"time":"486.14","velocity":0.28346456692913385,"duration":"0.02"},{"name":"C#5","midi":73,"time":"486.15","velocity":0.3779527559055118,"duration":"0.03"},{"name":"A#6","midi":94,"time":"486.15","velocity":0.2440944881889764,"duration":"0.10"},{"name":"B6","midi":95,"time":"486.15","velocity":0.3937007874015748,"duration":"1.06"},{"name":"F#5","midi":78,"time":"486.16","velocity":0.5039370078740157,"duration":"0.17"},{"name":"A#3","midi":58,"time":"486.17","velocity":0.33858267716535434,"duration":"0.02"},{"name":"C4","midi":60,"time":"486.19","velocity":0.36220472440944884,"duration":"0.02"},{"name":"F6","midi":89,"time":"486.19","velocity":0.2440944881889764,"duration":"0.03"},{"name":"C#5","midi":73,"time":"486.20","velocity":0.4566929133858268,"duration":"0.26"},{"name":"A#5","midi":82,"time":"486.20","velocity":0.30708661417322836,"duration":"0.02"},{"name":"D#6","midi":87,"time":"486.20","velocity":0.25984251968503935,"duration":"0.02"},{"name":"G6","midi":91,"time":"486.21","velocity":0.28346456692913385,"duration":"0.02"},{"name":"E6","midi":88,"time":"486.22","velocity":0.2755905511811024,"duration":"0.03"},{"name":"A#3","midi":58,"time":"486.23","velocity":0.33858267716535434,"duration":"0.02"},{"name":"E4","midi":64,"time":"486.23","velocity":0.2992125984251969,"duration":"0.05"},{"name":"F6","midi":89,"time":"486.24","velocity":0.2283464566929134,"duration":"0.02"},{"name":"G6","midi":91,"time":"486.24","velocity":0.2204724409448819,"duration":"0.03"},{"name":"A3","midi":57,"time":"486.26","velocity":0.41732283464566927,"duration":"0.06"},{"name":"C6","midi":84,"time":"486.26","velocity":0.31496062992125984,"duration":"0.06"},{"name":"F7","midi":101,"time":"486.26","velocity":0.33070866141732286,"duration":"1.53"},{"name":"G#4","midi":68,"time":"486.27","velocity":0.4409448818897638,"duration":"0.02"},{"name":"E6","midi":88,"time":"486.27","velocity":0.4330708661417323,"duration":"0.27"},{"name":"A#6","midi":94,"time":"486.27","velocity":0.31496062992125984,"duration":"0.35"},{"name":"F#4","midi":66,"time":"486.28","velocity":0.49606299212598426,"duration":"0.19"},{"name":"A4","midi":69,"time":"486.29","velocity":0.5590551181102362,"duration":"0.06"},{"name":"D6","midi":86,"time":"486.29","velocity":0.29133858267716534,"duration":"0.12"},{"name":"C#4","midi":61,"time":"486.30","velocity":0.23622047244094488,"duration":"0.02"},{"name":"B5","midi":83,"time":"486.30","velocity":0.5275590551181102,"duration":"0.72"},{"name":"G6","midi":91,"time":"486.30","velocity":0.2204724409448819,"duration":"0.03"},{"name":"E5","midi":76,"time":"486.31","velocity":0.25196850393700787,"duration":"0.06"},{"name":"A#5","midi":82,"time":"486.33","velocity":0.4015748031496063,"duration":"0.02"},{"name":"G#3","midi":56,"time":"486.34","velocity":0.30708661417322836,"duration":"0.02"},{"name":"D#6","midi":87,"time":"486.34","velocity":0.18110236220472442,"duration":"0.03"},{"name":"F#5","midi":78,"time":"486.35","velocity":0.5039370078740157,"duration":"0.13"},{"name":"A5","midi":81,"time":"486.35","velocity":0.4251968503937008,"duration":"0.07"},{"name":"A4","midi":69,"time":"486.36","velocity":0.5433070866141733,"duration":"0.08"},{"name":"B3","midi":59,"time":"486.37","velocity":0.2755905511811024,"duration":"0.02"},{"name":"C7","midi":96,"time":"486.37","velocity":0.33070866141732286,"duration":"0.30"},{"name":"F5","midi":77,"time":"486.40","velocity":0.29133858267716534,"duration":"0.02"},{"name":"G#5","midi":80,"time":"486.40","velocity":0.2204724409448819,"duration":"0.03"},{"name":"G6","midi":91,"time":"486.40","velocity":0.2755905511811024,"duration":"0.02"},{"name":"G7","midi":103,"time":"486.40","velocity":0.31496062992125984,"duration":"0.38"},{"name":"A3","midi":57,"time":"486.41","velocity":0.3700787401574803,"duration":"0.03"},{"name":"A#5","midi":82,"time":"486.41","velocity":0.3543307086614173,"duration":"0.05"},{"name":"D#6","midi":87,"time":"486.42","velocity":0.2047244094488189,"duration":"0.03"},{"name":"G#4","midi":68,"time":"486.43","velocity":0.3700787401574803,"duration":"0.02"},{"name":"F2","midi":41,"time":"486.44","velocity":0.4881889763779528,"duration":"0.03"},{"name":"D6","midi":86,"time":"486.44","velocity":0.31496062992125984,"duration":"0.05"},{"name":"D4","midi":62,"time":"486.45","velocity":0.3228346456692913,"duration":"0.02"},{"name":"A4","midi":69,"time":"486.45","velocity":0.5905511811023622,"duration":"0.16"},{"name":"B4","midi":71,"time":"486.45","velocity":0.4566929133858268,"duration":"0.24"},{"name":"D3","midi":50,"time":"486.47","velocity":0.5275590551181102,"duration":"0.28"},{"name":"G6","midi":91,"time":"486.47","velocity":0.2283464566929134,"duration":"0.03"},{"name":"A3","midi":57,"time":"486.48","velocity":0.3700787401574803,"duration":"0.05"},{"name":"F5","midi":77,"time":"486.48","velocity":0.4409448818897638,"duration":"0.06"},{"name":"D#6","midi":87,"time":"486.49","velocity":0.2283464566929134,"duration":"0.03"},{"name":"F6","midi":89,"time":"486.49","velocity":0.4409448818897638,"duration":"0.07"},{"name":"G#6","midi":92,"time":"486.49","velocity":0.3779527559055118,"duration":"0.17"},{"name":"E4","midi":64,"time":"486.50","velocity":0.36220472440944884,"duration":"0.05"},{"name":"C#5","midi":73,"time":"486.50","velocity":0.41732283464566927,"duration":"0.03"},{"name":"D6","midi":86,"time":"486.50","velocity":0.3543307086614173,"duration":"0.08"},{"name":"G6","midi":91,"time":"486.51","velocity":0.25196850393700787,"duration":"0.02"},{"name":"E5","midi":76,"time":"486.52","velocity":0.3779527559055118,"duration":"0.09"},{"name":"F#5","midi":78,"time":"486.52","velocity":0.4330708661417323,"duration":"0.03"},{"name":"A3","midi":57,"time":"486.53","velocity":0.3700787401574803,"duration":"0.09"},{"name":"G4","midi":67,"time":"486.53","velocity":0.31496062992125984,"duration":"0.02"},{"name":"G#5","midi":80,"time":"486.53","velocity":0.2755905511811024,"duration":"0.02"},{"name":"D5","midi":74,"time":"486.55","velocity":0.2204724409448819,"duration":"0.03"},{"name":"G6","midi":91,"time":"486.55","velocity":0.29133858267716534,"duration":"0.19"},{"name":"F#4","midi":66,"time":"486.56","velocity":0.3937007874015748,"duration":"0.07"},{"name":"F#5","midi":78,"time":"486.57","velocity":0.5748031496062992,"duration":"0.24"},{"name":"G#5","midi":80,"time":"486.57","velocity":0.28346456692913385,"duration":"0.03"},{"name":"D#6","midi":87,"time":"486.58","velocity":0.16535433070866143,"duration":"0.03"},{"name":"D6","midi":86,"time":"486.59","velocity":0.36220472440944884,"duration":"0.14"},{"name":"F6","midi":89,"time":"486.59","velocity":0.29133858267716534,"duration":"0.12"},{"name":"D#5","midi":75,"time":"486.62","velocity":0.33070866141732286,"duration":"0.02"},{"name":"A4","midi":69,"time":"486.63","velocity":0.5118110236220472,"duration":"0.05"},{"name":"G#5","midi":80,"time":"486.63","velocity":0.25984251968503935,"duration":"0.02"},{"name":"A#6","midi":94,"time":"486.63","velocity":0.2677165354330709,"duration":"0.06"},{"name":"A3","midi":57,"time":"486.64","velocity":0.3700787401574803,"duration":"0.05"},{"name":"E5","midi":76,"time":"486.64","velocity":0.4015748031496063,"duration":"0.05"},{"name":"C#5","midi":73,"time":"486.65","velocity":0.3779527559055118,"duration":"0.08"},{"name":"D#6","midi":87,"time":"486.65","velocity":0.2677165354330709,"duration":"0.02"},{"name":"F#4","midi":66,"time":"486.66","velocity":0.3858267716535433,"duration":"0.02"},{"name":"D#5","midi":75,"time":"486.67","velocity":0.2992125984251969,"duration":"0.03"},{"name":"A4","midi":69,"time":"486.69","velocity":0.5826771653543307,"duration":"0.09"},{"name":"C7","midi":96,"time":"486.69","velocity":0.2677165354330709,"duration":"0.20"},{"name":"F#4","midi":66,"time":"486.70","velocity":0.3937007874015748,"duration":"0.09"},{"name":"G#6","midi":92,"time":"486.70","velocity":0.3464566929133858,"duration":"0.16"},{"name":"A3","midi":57,"time":"486.71","velocity":0.41732283464566927,"duration":"0.03"},{"name":"B4","midi":71,"time":"486.71","velocity":0.36220472440944884,"duration":"0.10"},{"name":"E5","midi":76,"time":"486.71","velocity":0.30708661417322836,"duration":"0.09"},{"name":"A#6","midi":94,"time":"486.71","velocity":0.30708661417322836,"duration":"0.19"},{"name":"D6","midi":86,"time":"486.74","velocity":0.31496062992125984,"duration":"0.05"},{"name":"D#6","midi":87,"time":"486.74","velocity":0.2283464566929134,"duration":"0.08"},{"name":"F6","midi":89,"time":"486.74","velocity":0.3464566929133858,"duration":"0.05"},{"name":"D3","midi":50,"time":"486.76","velocity":0.4881889763779528,"duration":"0.03"},{"name":"A3","midi":57,"time":"486.76","velocity":0.4251968503937008,"duration":"0.03"},{"name":"E3","midi":52,"time":"486.79","velocity":0.5354330708661418,"duration":"0.01"},{"name":"A4","midi":69,"time":"486.79","velocity":0.4094488188976378,"duration":"0.05"},{"name":"G6","midi":91,"time":"486.79","velocity":0.2755905511811024,"duration":"0.02"},{"name":"G7","midi":103,"time":"486.79","velocity":0.33858267716535434,"duration":"0.27"},{"name":"D#2","midi":39,"time":"486.80","velocity":0.5905511811023622,"duration":"0.01"},{"name":"B2","midi":47,"time":"486.80","velocity":0.5905511811023622,"duration":"0.01"},{"name":"F#3","midi":54,"time":"486.80","velocity":0.5511811023622047,"duration":"0.01"},{"name":"C4","midi":60,"time":"486.80","velocity":0.44881889763779526,"duration":"0.02"},{"name":"F4","midi":65,"time":"486.80","velocity":0.4330708661417323,"duration":"0.02"},{"name":"D5","midi":74,"time":"486.80","velocity":0.2992125984251969,"duration":"0.03"},{"name":"F6","midi":89,"time":"486.80","velocity":0.3779527559055118,"duration":"0.22"},{"name":"F2","midi":41,"time":"486.81","velocity":0.6141732283464567,"duration":"0.01"},{"name":"C#3","midi":49,"time":"486.81","velocity":0.5511811023622047,"duration":"0.01"},{"name":"G#5","midi":80,"time":"486.81","velocity":0.2755905511811024,"duration":"0.02"},{"name":"F#6","midi":90,"time":"486.81","velocity":0.4881889763779528,"duration":"1.67"},{"name":"D#7","midi":99,"time":"486.81","velocity":0.28346456692913385,"duration":"0.81"},{"name":"D3","midi":50,"time":"486.83","velocity":0.6141732283464567,"duration":"0.30"},{"name":"G#3","midi":56,"time":"486.83","velocity":0.33070866141732286,"duration":"0.02"},{"name":"F#4","midi":66,"time":"486.83","velocity":0.4881889763779528,"duration":"0.29"},{"name":"C#5","midi":73,"time":"486.83","velocity":0.31496062992125984,"duration":"0.02"},{"name":"E5","midi":76,"time":"486.84","velocity":0.3543307086614173,"duration":"0.14"},{"name":"F#5","midi":78,"time":"486.84","velocity":0.5433070866141733,"duration":"0.22"},{"name":"G6","midi":91,"time":"486.84","velocity":0.25984251968503935,"duration":"0.19"},{"name":"A#3","midi":58,"time":"486.85","velocity":0.3543307086614173,"duration":"0.03"},{"name":"D5","midi":74,"time":"486.85","velocity":0.31496062992125984,"duration":"0.08"},{"name":"A5","midi":81,"time":"486.85","velocity":0.5039370078740157,"duration":"0.27"},{"name":"G#5","midi":80,"time":"486.86","velocity":0.31496062992125984,"duration":"0.06"},{"name":"A4","midi":69,"time":"486.87","velocity":0.5433070866141733,"duration":"0.30"},{"name":"C5","midi":72,"time":"486.87","velocity":0.2755905511811024,"duration":"0.07"},{"name":"G#6","midi":92,"time":"486.87","velocity":0.3779527559055118,"duration":"0.33"},{"name":"B1","midi":35,"time":"486.88","velocity":0.47244094488188976,"duration":"0.02"},{"name":"C7","midi":96,"time":"486.90","velocity":0.28346456692913385,"duration":"0.40"},{"name":"C4","midi":60,"time":"486.91","velocity":0.2440944881889764,"duration":"0.03"},{"name":"A#6","midi":94,"time":"486.91","velocity":0.2677165354330709,"duration":"0.19"},{"name":"G1","midi":31,"time":"486.92","velocity":0.3779527559055118,"duration":"0.02"},{"name":"D#6","midi":87,"time":"486.92","velocity":0.31496062992125984,"duration":"0.08"},{"name":"G#5","midi":80,"time":"486.93","velocity":0.2283464566929134,"duration":"0.02"},{"name":"C#5","midi":73,"time":"486.94","velocity":0.3858267716535433,"duration":"0.09"},{"name":"E6","midi":88,"time":"486.94","velocity":0.3700787401574803,"duration":"0.28"},{"name":"A3","midi":57,"time":"486.95","velocity":0.25196850393700787,"duration":"0.02"},{"name":"G5","midi":79,"time":"486.97","velocity":0.2047244094488189,"duration":"0.03"},{"name":"D6","midi":86,"time":"486.97","velocity":0.29133858267716534,"duration":"0.09"},{"name":"E5","midi":76,"time":"486.99","velocity":0.33070866141732286,"duration":"0.03"},{"name":"E2","midi":40,"time":"487.01","velocity":0.30708661417322836,"duration":"0.02"},{"name":"G#5","midi":80,"time":"487.01","velocity":0.28346456692913385,"duration":"0.02"},{"name":"D#6","midi":87,"time":"487.01","velocity":0.3228346456692913,"duration":"0.14"},{"name":"A3","midi":57,"time":"487.02","velocity":0.29133858267716534,"duration":"0.02"},{"name":"C#4","midi":61,"time":"487.02","velocity":0.25196850393700787,"duration":"0.02"},{"name":"G#2","midi":44,"time":"487.03","velocity":0.3937007874015748,"duration":"0.02"},{"name":"E5","midi":76,"time":"487.03","velocity":0.2755905511811024,"duration":"0.10"},{"name":"B5","midi":83,"time":"487.03","velocity":0.2283464566929134,"duration":"0.09"},{"name":"D5","midi":74,"time":"487.05","velocity":0.3700787401574803,"duration":"0.02"},{"name":"G5","midi":79,"time":"487.05","velocity":0.4330708661417323,"duration":"0.02"},{"name":"C4","midi":60,"time":"487.06","velocity":0.25196850393700787,"duration":"0.03"},{"name":"C#5","midi":73,"time":"487.06","velocity":0.44881889763779526,"duration":"0.13"},{"name":"F6","midi":89,"time":"487.06","velocity":0.2283464566929134,"duration":"0.03"},{"name":"F#5","midi":78,"time":"487.07","velocity":0.5511811023622047,"duration":"0.09"},{"name":"A3","midi":57,"time":"487.08","velocity":0.3858267716535433,"duration":"0.05"},{"name":"G6","midi":91,"time":"487.10","velocity":0.2440944881889764,"duration":"0.02"},{"name":"A#6","midi":94,"time":"487.10","velocity":0.4015748031496063,"duration":"0.87"},{"name":"A#5","midi":82,"time":"487.12","velocity":0.3464566929133858,"duration":"0.03"},{"name":"E2","midi":40,"time":"487.13","velocity":0.36220472440944884,"duration":"0.02"},{"name":"C4","midi":60,"time":"487.13","velocity":0.29133858267716534,"duration":"0.02"},{"name":"F#4","midi":66,"time":"487.13","velocity":0.4094488188976378,"duration":"0.06"},{"name":"B4","midi":71,"time":"487.13","velocity":0.4881889763779528,"duration":"0.22"},{"name":"G#5","midi":80,"time":"487.14","velocity":0.23622047244094488,"duration":"0.02"},{"name":"D6","midi":86,"time":"487.14","velocity":0.2755905511811024,"duration":"0.13"},{"name":"F6","midi":89,"time":"487.14","velocity":0.3543307086614173,"duration":"0.05"},{"name":"C#3","midi":49,"time":"487.15","velocity":0.5275590551181102,"duration":"0.02"},{"name":"A3","midi":57,"time":"487.15","velocity":0.3937007874015748,"duration":"0.02"},{"name":"F5","midi":77,"time":"487.15","velocity":0.4409448818897638,"duration":"0.02"},{"name":"G6","midi":91,"time":"487.15","velocity":0.28346456692913385,"duration":"0.10"},{"name":"D7","midi":98,"time":"487.15","velocity":0.2755905511811024,"duration":"0.27"},{"name":"A2","midi":45,"time":"487.17","velocity":0.5275590551181102,"duration":"0.01"},{"name":"C#4","midi":61,"time":"487.17","velocity":0.3700787401574803,"duration":"0.02"},{"name":"E5","midi":76,"time":"487.17","velocity":0.33858267716535434,"duration":"0.05"},{"name":"F#5","midi":78,"time":"487.17","velocity":0.47244094488188976,"duration":"0.06"},{"name":"G#5","midi":80,"time":"487.17","velocity":0.25196850393700787,"duration":"0.03"},{"name":"F#2","midi":42,"time":"487.19","velocity":0.4566929133858268,"duration":"0.02"},{"name":"D3","midi":50,"time":"487.19","velocity":0.5511811023622047,"duration":"0.12"},{"name":"A4","midi":69,"time":"487.19","velocity":0.4094488188976378,"duration":"0.02"},{"name":"D5","midi":74,"time":"487.19","velocity":0.28346456692913385,"duration":"0.05"},{"name":"F#4","midi":66,"time":"487.20","velocity":0.28346456692913385,"duration":"0.02"},{"name":"F1","midi":29,"time":"487.21","velocity":0.41732283464566927,"duration":"0.02"},{"name":"G#6","midi":92,"time":"487.21","velocity":0.29133858267716534,"duration":"0.23"},{"name":"A4","midi":69,"time":"487.22","velocity":0.5039370078740157,"duration":"0.03"},{"name":"C#5","midi":73,"time":"487.22","velocity":0.31496062992125984,"duration":"0.03"},{"name":"F5","midi":77,"time":"487.22","velocity":0.33070866141732286,"duration":"0.02"},{"name":"C6","midi":84,"time":"487.22","velocity":0.30708661417322836,"duration":"0.05"},{"name":"B6","midi":95,"time":"487.22","velocity":0.5118110236220472,"duration":"0.77"},{"name":"A#1","midi":34,"time":"487.23","velocity":0.3464566929133858,"duration":"0.02"},{"name":"F#4","midi":66,"time":"487.23","velocity":0.4330708661417323,"duration":"0.08"},{"name":"G5","midi":79,"time":"487.23","velocity":0.4881889763779528,"duration":"0.02"},{"name":"D#6","midi":87,"time":"487.23","velocity":0.28346456692913385,"duration":"0.08"},{"name":"E6","midi":88,"time":"487.23","velocity":0.3228346456692913,"duration":"0.17"},{"name":"G7","midi":103,"time":"487.23","velocity":0.33070866141732286,"duration":"0.34"},{"name":"G#5","midi":80,"time":"487.24","velocity":0.30708661417322836,"duration":"0.02"},{"name":"G#4","midi":68,"time":"487.26","velocity":0.3779527559055118,"duration":"0.02"},{"name":"F#5","midi":78,"time":"487.26","velocity":0.5433070866141733,"duration":"0.08"},{"name":"C#6","midi":85,"time":"487.27","velocity":0.3779527559055118,"duration":"0.03"},{"name":"A4","midi":69,"time":"487.28","velocity":0.5669291338582677,"duration":"0.15"},{"name":"D6","midi":86,"time":"487.28","velocity":0.28346456692913385,"duration":"0.10"},{"name":"D5","midi":74,"time":"487.29","velocity":0.29133858267716534,"duration":"0.03"},{"name":"G#5","midi":80,"time":"487.29","velocity":0.2283464566929134,"duration":"0.02"},{"name":"D4","midi":62,"time":"487.30","velocity":0.30708661417322836,"duration":"0.08"},{"name":"G6","midi":91,"time":"487.30","velocity":0.2755905511811024,"duration":"0.02"},{"name":"C7","midi":96,"time":"487.30","velocity":0.28346456692913385,"duration":"0.06"},{"name":"F4","midi":65,"time":"487.31","velocity":0.3228346456692913,"duration":"0.02"},{"name":"C#5","midi":73,"time":"487.31","velocity":0.3937007874015748,"duration":"0.14"},{"name":"C#6","midi":85,"time":"487.31","velocity":0.3937007874015748,"duration":"0.30"},{"name":"F5","midi":77,"time":"487.33","velocity":0.41732283464566927,"duration":"0.02"},{"name":"F#4","midi":66,"time":"487.34","velocity":0.3858267716535433,"duration":"0.05"},{"name":"E5","midi":76,"time":"487.34","velocity":0.3228346456692913,"duration":"0.03"},{"name":"G6","midi":91,"time":"487.34","velocity":0.2204724409448819,"duration":"0.03"},{"name":"D#3","midi":51,"time":"487.35","velocity":0.4330708661417323,"duration":"0.02"},{"name":"A3","midi":57,"time":"487.35","velocity":0.3543307086614173,"duration":"0.06"},{"name":"F#5","midi":78,"time":"487.35","velocity":0.49606299212598426,"duration":"0.07"},{"name":"C5","midi":72,"time":"487.36","velocity":0.36220472440944884,"duration":"0.02"},{"name":"G#5","midi":80,"time":"487.36","velocity":0.3464566929133858,"duration":"0.12"},{"name":"D#5","midi":75,"time":"487.37","velocity":0.28346456692913385,"duration":"0.02"},{"name":"D#6","midi":87,"time":"487.37","velocity":0.33070866141732286,"duration":"0.13"},{"name":"C7","midi":96,"time":"487.37","velocity":0.2677165354330709,"duration":"0.15"},{"name":"B4","midi":71,"time":"487.38","velocity":0.4409448818897638,"duration":"0.14"},{"name":"G6","midi":91,"time":"487.38","velocity":0.2677165354330709,"duration":"0.02"},{"name":"E5","midi":76,"time":"487.40","velocity":0.25984251968503935,"duration":"0.02"},{"name":"D6","midi":86,"time":"487.40","velocity":0.25196850393700787,"duration":"0.03"},{"name":"F6","midi":89,"time":"487.40","velocity":0.25984251968503935,"duration":"0.16"},{"name":"F#4","midi":66,"time":"487.41","velocity":0.4566929133858268,"duration":"0.10"},{"name":"G5","midi":79,"time":"487.41","velocity":0.4645669291338583,"duration":"0.02"},{"name":"A3","midi":57,"time":"487.42","velocity":0.2992125984251969,"duration":"0.03"},{"name":"E6","midi":88,"time":"487.42","velocity":0.3858267716535433,"duration":"0.30"},{"name":"C#3","midi":49,"time":"487.43","velocity":0.47244094488188976,"duration":"0.02"},{"name":"F#5","midi":78,"time":"487.43","velocity":0.5118110236220472,"duration":"0.07"},{"name":"D7","midi":98,"time":"487.43","velocity":0.3858267716535433,"duration":"0.62"},{"name":"A4","midi":69,"time":"487.44","velocity":0.5433070866141733,"duration":"0.06"},{"name":"G#6","midi":92,"time":"487.45","velocity":0.3543307086614173,"duration":"0.08"},{"name":"D4","midi":62,"time":"487.47","velocity":0.36220472440944884,"duration":"0.02"},{"name":"C#5","midi":73,"time":"487.47","velocity":0.3700787401574803,"duration":"0.03"},{"name":"F1","midi":29,"time":"487.49","velocity":0.2755905511811024,"duration":"0.02"},{"name":"A3","midi":57,"time":"487.49","velocity":0.3228346456692913,"duration":"0.02"},{"name":"G#4","midi":68,"time":"487.49","velocity":0.4645669291338583,"duration":"0.02"},{"name":"D6","midi":86,"time":"487.49","velocity":0.2440944881889764,"duration":"0.03"},{"name":"D3","midi":50,"time":"487.50","velocity":0.49606299212598426,"duration":"0.03"},{"name":"D5","midi":74,"time":"487.50","velocity":0.30708661417322836,"duration":"0.02"},{"name":"F5","midi":77,"time":"487.50","velocity":0.4645669291338583,"duration":"0.03"},{"name":"A4","midi":69,"time":"487.51","velocity":0.5905511811023622,"duration":"0.08"},{"name":"C#5","midi":73,"time":"487.51","velocity":0.29133858267716534,"duration":"0.02"},{"name":"F#4","midi":66,"time":"487.52","velocity":0.28346456692913385,"duration":"0.02"},{"name":"D#6","midi":87,"time":"487.52","velocity":0.25196850393700787,"duration":"0.05"},{"name":"C#3","midi":49,"time":"487.53","velocity":0.5354330708661418,"duration":"0.03"},{"name":"A3","midi":57,"time":"487.53","velocity":0.3858267716535433,"duration":"0.02"},{"name":"F#5","midi":78,"time":"487.53","velocity":0.5118110236220472,"duration":"0.14"},{"name":"G6","midi":91,"time":"487.53","velocity":0.2677165354330709,"duration":"0.02"},{"name":"C7","midi":96,"time":"487.53","velocity":0.31496062992125984,"duration":"0.34"},{"name":"G#6","midi":92,"time":"487.55","velocity":0.3228346456692913,"duration":"0.06"},{"name":"C4","midi":60,"time":"487.56","velocity":0.5118110236220472,"duration":"0.03"},{"name":"D#5","midi":75,"time":"487.56","velocity":0.3858267716535433,"duration":"0.05"},{"name":"C6","midi":84,"time":"487.56","velocity":0.33070866141732286,"duration":"0.02"},{"name":"D3","midi":50,"time":"487.57","velocity":0.5511811023622047,"duration":"0.09"},{"name":"A3","midi":57,"time":"487.57","velocity":0.44881889763779526,"duration":"0.02"},{"name":"F#4","midi":66,"time":"487.57","velocity":0.47244094488188976,"duration":"0.23"},{"name":"A#5","midi":82,"time":"487.58","velocity":0.3858267716535433,"duration":"0.10"},{"name":"A#3","midi":58,"time":"487.59","velocity":0.4330708661417323,"duration":"0.02"},{"name":"G6","midi":91,"time":"487.59","velocity":0.23622047244094488,"duration":"0.02"},{"name":"A#4","midi":70,"time":"487.60","velocity":0.5275590551181102,"duration":"0.02"},{"name":"C#5","midi":73,"time":"487.60","velocity":0.48031496062992124,"duration":"0.16"},{"name":"C6","midi":84,"time":"487.60","velocity":0.23622047244094488,"duration":"0.05"},{"name":"D6","midi":86,"time":"487.60","velocity":0.28346456692913385,"duration":"0.06"},{"name":"D#5","midi":75,"time":"487.62","velocity":0.2125984251968504,"duration":"0.03"},{"name":"F6","midi":89,"time":"487.62","velocity":0.30708661417322836,"duration":"0.03"},{"name":"G#6","midi":92,"time":"487.62","velocity":0.3543307086614173,"duration":"0.17"},{"name":"A#3","midi":58,"time":"487.63","velocity":0.4566929133858268,"duration":"0.02"},{"name":"B4","midi":71,"time":"487.63","velocity":0.5354330708661418,"duration":"0.47"},{"name":"G6","midi":91,"time":"487.63","velocity":0.3543307086614173,"duration":"0.24"},{"name":"D#7","midi":99,"time":"487.64","velocity":0.49606299212598426,"duration":"1.07"},{"name":"G#1","midi":32,"time":"487.65","velocity":0.3858267716535433,"duration":"0.02"},{"name":"A3","midi":57,"time":"487.65","velocity":0.4330708661417323,"duration":"0.02"},{"name":"D#6","midi":87,"time":"487.65","velocity":0.30708661417322836,"duration":"0.08"},{"name":"D3","midi":50,"time":"487.67","velocity":0.4566929133858268,"duration":"0.03"},{"name":"F5","midi":77,"time":"487.67","velocity":0.4566929133858268,"duration":"0.03"},{"name":"G#5","midi":80,"time":"487.67","velocity":0.31496062992125984,"duration":"0.10"},{"name":"G#4","midi":68,"time":"487.69","velocity":0.2992125984251969,"duration":"0.02"},{"name":"E5","midi":76,"time":"487.69","velocity":0.2047244094488189,"duration":"0.03"},{"name":"A3","midi":57,"time":"487.70","velocity":0.4409448818897638,"duration":"0.03"},{"name":"A5","midi":81,"time":"487.70","velocity":0.25196850393700787,"duration":"0.02"},{"name":"A#5","midi":82,"time":"487.70","velocity":0.2755905511811024,"duration":"0.03"},{"name":"F#5","midi":78,"time":"487.71","velocity":0.49606299212598426,"duration":"0.06"},{"name":"C6","midi":84,"time":"487.71","velocity":0.31496062992125984,"duration":"0.02"},{"name":"D6","midi":86,"time":"487.71","velocity":0.28346456692913385,"duration":"0.15"},{"name":"D4","midi":62,"time":"487.72","velocity":0.29133858267716534,"duration":"0.02"},{"name":"D#5","midi":75,"time":"487.72","velocity":0.28346456692913385,"duration":"0.05"},{"name":"C#3","midi":49,"time":"487.73","velocity":0.48031496062992124,"duration":"0.02"},{"name":"A5","midi":81,"time":"487.73","velocity":0.29133858267716534,"duration":"0.05"},{"name":"E6","midi":88,"time":"487.73","velocity":0.3464566929133858,"duration":"0.09"},{"name":"F#1","midi":30,"time":"487.74","velocity":0.3543307086614173,"duration":"0.02"},{"name":"A3","midi":57,"time":"487.74","velocity":0.44881889763779526,"duration":"0.10"},{"name":"D#6","midi":87,"time":"487.74","velocity":0.36220472440944884,"duration":"0.17"},{"name":"F6","midi":89,"time":"487.74","velocity":0.2677165354330709,"duration":"0.07"},{"name":"D3","midi":50,"time":"487.76","velocity":0.47244094488188976,"duration":"0.03"},{"name":"E5","midi":76,"time":"487.76","velocity":0.1889763779527559,"duration":"0.05"},{"name":"C#4","midi":61,"time":"487.77","velocity":0.3464566929133858,"duration":"0.03"},{"name":"D5","midi":74,"time":"487.77","velocity":0.25196850393700787,"duration":"0.05"},{"name":"G5","midi":79,"time":"487.77","velocity":0.4409448818897638,"duration":"0.02"},{"name":"A#5","midi":82,"time":"487.77","velocity":0.3779527559055118,"duration":"0.05"},{"name":"C#3","midi":49,"time":"487.79","velocity":0.5118110236220472,"duration":"0.01"},{"name":"F#5","midi":78,"time":"487.79","velocity":0.5275590551181102,"duration":"0.17"},{"name":"C6","midi":84,"time":"487.79","velocity":0.28346456692913385,"duration":"0.02"},{"name":"D3","midi":50,"time":"487.80","velocity":0.5590551181102362,"duration":"0.10"},{"name":"G#6","midi":92,"time":"487.80","velocity":0.4251968503937008,"duration":"0.59"},{"name":"F7","midi":101,"time":"487.80","velocity":0.44881889763779526,"duration":"4.95"},{"name":"E4","midi":64,"time":"487.81","velocity":0.3937007874015748,"duration":"0.03"},{"name":"C#5","midi":73,"time":"487.81","velocity":0.3543307086614173,"duration":"0.03"},{"name":"A5","midi":81,"time":"487.81","velocity":0.3937007874015748,"duration":"0.10"},{"name":"C#4","midi":61,"time":"487.84","velocity":0.36220472440944884,"duration":"0.02"},{"name":"F#4","midi":66,"time":"487.84","velocity":0.3228346456692913,"duration":"0.05"},{"name":"G#3","midi":56,"time":"487.85","velocity":0.36220472440944884,"duration":"0.03"},{"name":"F5","midi":77,"time":"487.85","velocity":0.4409448818897638,"duration":"0.02"},{"name":"A#5","midi":82,"time":"487.85","velocity":0.3543307086614173,"duration":"0.06"},{"name":"E5","midi":76,"time":"487.87","velocity":0.25196850393700787,"duration":"0.02"},{"name":"C6","midi":84,"time":"487.88","velocity":0.2125984251968504,"duration":"0.03"},{"name":"A4","midi":69,"time":"487.90","velocity":0.3543307086614173,"duration":"0.02"},{"name":"D#5","midi":75,"time":"487.90","velocity":0.3464566929133858,"duration":"0.07"},{"name":"A2","midi":45,"time":"487.91","velocity":0.5433070866141733,"duration":"0.03"},{"name":"D#3","midi":51,"time":"487.91","velocity":0.5118110236220472,"duration":"0.02"},{"name":"F#4","midi":66,"time":"487.91","velocity":0.4330708661417323,"duration":"0.02"},{"name":"C#5","midi":73,"time":"487.91","velocity":0.30708661417322836,"duration":"0.02"},{"name":"G#5","midi":80,"time":"487.91","velocity":0.33858267716535434,"duration":"0.03"},{"name":"E6","midi":88,"time":"487.91","velocity":0.29133858267716534,"duration":"0.02"},{"name":"D6","midi":86,"time":"487.92","velocity":0.31496062992125984,"duration":"0.10"},{"name":"C7","midi":96,"time":"487.92","velocity":0.3543307086614173,"duration":"0.30"},{"name":"F4","midi":65,"time":"487.93","velocity":0.4330708661417323,"duration":"0.02"},{"name":"C6","midi":84,"time":"487.93","velocity":0.1968503937007874,"duration":"0.05"},{"name":"G6","midi":91,"time":"487.93","velocity":0.30708661417322836,"duration":"0.06"},{"name":"F#1","midi":30,"time":"487.94","velocity":0.5826771653543307,"duration":"0.01"},{"name":"D3","midi":50,"time":"487.94","velocity":0.5039370078740157,"duration":"0.05"},{"name":"F2","midi":41,"time":"487.95","velocity":0.6141732283464567,"duration":"0.02"},{"name":"G5","midi":79,"time":"487.95","velocity":0.41732283464566927,"duration":"0.02"},{"name":"G#5","midi":80,"time":"487.95","velocity":0.30708661417322836,"duration":"0.21"},{"name":"C#6","midi":85,"time":"487.95","velocity":0.3543307086614173,"duration":"0.12"},{"name":"F#4","midi":66,"time":"487.97","velocity":0.4409448818897638,"duration":"0.03"},{"name":"D5","midi":74,"time":"487.97","velocity":0.2204724409448819,"duration":"0.05"},{"name":"D#5","midi":75,"time":"487.98","velocity":0.23622047244094488,"duration":"0.02"},{"name":"F#5","midi":78,"time":"487.98","velocity":0.5511811023622047,"duration":"0.06"},{"name":"A5","midi":81,"time":"487.98","velocity":0.31496062992125984,"duration":"0.05"},{"name":"C#3","midi":49,"time":"487.99","velocity":0.5354330708661418,"duration":"0.02"},{"name":"D4","midi":62,"time":"487.99","velocity":0.31496062992125984,"duration":"0.07"},{"name":"F4","midi":65,"time":"487.99","velocity":0.2677165354330709,"duration":"0.02"},{"name":"A#6","midi":94,"time":"487.99","velocity":0.30708661417322836,"duration":"0.23"},{"name":"E7","midi":100,"time":"487.99","velocity":0.36220472440944884,"duration":"0.62"},{"name":"D3","midi":50,"time":"488.01","velocity":0.47244094488188976,"duration":"0.05"},{"name":"A#5","midi":82,"time":"488.01","velocity":0.36220472440944884,"duration":"0.12"},{"name":"E6","midi":88,"time":"488.01","velocity":0.3779527559055118,"duration":"0.24"},{"name":"A#3","midi":58,"time":"488.02","velocity":0.31496062992125984,"duration":"0.02"},{"name":"G#1","midi":32,"time":"488.03","velocity":0.41732283464566927,"duration":"0.02"},{"name":"F#4","midi":66,"time":"488.03","velocity":0.5275590551181102,"duration":"0.20"},{"name":"A4","midi":69,"time":"488.03","velocity":0.3858267716535433,"duration":"0.03"},{"name":"C#5","midi":73,"time":"488.03","velocity":0.3228346456692913,"duration":"0.02"},{"name":"F5","midi":77,"time":"488.03","velocity":0.5196850393700787,"duration":"0.03"},{"name":"G6","midi":91,"time":"488.03","velocity":0.25984251968503935,"duration":"0.06"},{"name":"D6","midi":86,"time":"488.05","velocity":0.2440944881889764,"duration":"0.10"},{"name":"C#3","midi":49,"time":"488.06","velocity":0.47244094488188976,"duration":"0.03"},{"name":"D7","midi":98,"time":"488.06","velocity":0.33070866141732286,"duration":"0.17"},{"name":"F#5","midi":78,"time":"488.07","velocity":0.5354330708661418,"duration":"0.08"},{"name":"A4","midi":69,"time":"488.08","velocity":0.3937007874015748,"duration":"0.03"},{"name":"C#6","midi":85,"time":"488.08","velocity":0.3700787401574803,"duration":"0.28"},{"name":"F6","midi":89,"time":"488.08","velocity":0.1968503937007874,"duration":"0.08"},{"name":"G#1","midi":32,"time":"488.09","velocity":0.4015748031496063,"duration":"0.02"},{"name":"D3","midi":50,"time":"488.09","velocity":0.5748031496062992,"duration":"0.21"},{"name":"A6","midi":93,"time":"488.09","velocity":0.3858267716535433,"duration":"0.27"},{"name":"A3","midi":57,"time":"488.10","velocity":0.3228346456692913,"duration":"0.02"},{"name":"E5","midi":76,"time":"488.10","velocity":0.3700787401574803,"duration":"0.20"},{"name":"G6","midi":91,"time":"488.10","velocity":0.2204724409448819,"duration":"0.07"},{"name":"A#4","midi":70,"time":"488.12","velocity":0.3937007874015748,"duration":"0.02"},{"name":"C#5","midi":73,"time":"488.12","velocity":0.3228346456692913,"duration":"0.02"},{"name":"B4","midi":71,"time":"488.14","velocity":0.5039370078740157,"duration":"0.08"},{"name":"A#5","midi":82,"time":"488.14","velocity":0.3700787401574803,"duration":"0.02"},{"name":"C#5","midi":73,"time":"488.15","velocity":0.3700787401574803,"duration":"0.03"},{"name":"G#5","midi":80,"time":"488.17","velocity":0.2992125984251969,"duration":"0.09"},{"name":"F6","midi":89,"time":"488.17","velocity":0.2992125984251969,"duration":"0.13"},{"name":"B3","midi":59,"time":"488.19","velocity":0.3543307086614173,"duration":"0.02"},{"name":"A#5","midi":82,"time":"488.19","velocity":0.30708661417322836,"duration":"0.03"},{"name":"G6","midi":91,"time":"488.19","velocity":0.2283464566929134,"duration":"0.09"},{"name":"D6","midi":86,"time":"488.20","velocity":0.2204724409448819,"duration":"0.03"},{"name":"D5","midi":74,"time":"488.21","velocity":0.36220472440944884,"duration":"0.14"},{"name":"A5","midi":81,"time":"488.21","velocity":0.1968503937007874,"duration":"0.03"},{"name":"B3","midi":59,"time":"488.22","velocity":0.3779527559055118,"duration":"0.02"},{"name":"C5","midi":72,"time":"488.22","velocity":0.4330708661417323,"duration":"0.03"},{"name":"F5","midi":77,"time":"488.22","velocity":0.4330708661417323,"duration":"0.02"},{"name":"A#5","midi":82,"time":"488.23","velocity":0.2440944881889764,"duration":"0.02"},{"name":"A#6","midi":94,"time":"488.23","velocity":0.3543307086614173,"duration":"0.17"},{"name":"C7","midi":96,"time":"488.23","velocity":0.3700787401574803,"duration":"0.50"},{"name":"F#4","midi":66,"time":"488.24","velocity":0.4330708661417323,"duration":"0.07"},{"name":"F#5","midi":78,"time":"488.24","velocity":0.5275590551181102,"duration":"0.06"},{"name":"D#6","midi":87,"time":"488.24","velocity":0.2125984251968504,"duration":"0.05"},{"name":"D7","midi":98,"time":"488.24","velocity":0.29133858267716534,"duration":"0.10"},{"name":"B4","midi":71,"time":"488.26","velocity":0.4330708661417323,"duration":"0.02"},{"name":"A5","midi":81,"time":"488.26","velocity":0.4409448818897638,"duration":"0.10"},{"name":"A3","midi":57,"time":"488.27","velocity":0.3464566929133858,"duration":"0.05"},{"name":"E6","midi":88,"time":"488.27","velocity":0.3779527559055118,"duration":"0.07"},{"name":"C4","midi":60,"time":"488.28","velocity":0.29133858267716534,"duration":"0.02"},{"name":"A#4","midi":70,"time":"488.28","velocity":0.47244094488188976,"duration":"0.02"},{"name":"C5","midi":72,"time":"488.29","velocity":0.3937007874015748,"duration":"0.03"},{"name":"G6","midi":91,"time":"488.29","velocity":0.2283464566929134,"duration":"0.02"},{"name":"D#3","midi":51,"time":"488.30","velocity":0.5354330708661418,"duration":"0.01"},{"name":"G5","midi":79,"time":"488.30","velocity":0.44881889763779526,"duration":"0.05"},{"name":"C#2","midi":37,"time":"488.31","velocity":0.5118110236220472,"duration":"0.01"},{"name":"D3","midi":50,"time":"488.31","velocity":0.6220472440944882,"duration":"0.05"},{"name":"F4","midi":65,"time":"488.31","velocity":0.3700787401574803,"duration":"0.06"},{"name":"G#4","midi":68,"time":"488.31","velocity":0.3858267716535433,"duration":"0.02"},{"name":"B4","midi":71,"time":"488.31","velocity":0.49606299212598426,"duration":"0.03"},{"name":"D#6","midi":87,"time":"488.31","velocity":0.2440944881889764,"duration":"0.03"},{"name":"B3","midi":59,"time":"488.33","velocity":0.3700787401574803,"duration":"0.02"},{"name":"A4","midi":69,"time":"488.34","velocity":0.4881889763779528,"duration":"0.07"},{"name":"F#5","midi":78,"time":"488.34","velocity":0.3858267716535433,"duration":"0.07"},{"name":"F6","midi":89,"time":"488.34","velocity":0.23622047244094488,"duration":"0.03"},{"name":"C5","midi":72,"time":"488.35","velocity":0.5354330708661418,"duration":"0.02"},{"name":"E5","midi":76,"time":"488.35","velocity":0.33858267716535434,"duration":"0.06"},{"name":"G#5","midi":80,"time":"488.35","velocity":0.5118110236220472,"duration":"0.02"},{"name":"E6","midi":88,"time":"488.35","velocity":0.3700787401574803,"duration":"0.10"},{"name":"A#5","midi":82,"time":"488.36","velocity":0.2677165354330709,"duration":"0.03"},{"name":"D7","midi":98,"time":"488.36","velocity":0.33070866141732286,"duration":"0.62"},{"name":"C#2","midi":37,"time":"488.37","velocity":0.47244094488188976,"duration":"0.02"},{"name":"A3","midi":57,"time":"488.37","velocity":0.31496062992125984,"duration":"0.02"},{"name":"B4","midi":71,"time":"488.37","velocity":0.33858267716535434,"duration":"0.03"},{"name":"C#5","midi":73,"time":"488.37","velocity":0.48031496062992124,"duration":"0.05"},{"name":"A5","midi":81,"time":"488.37","velocity":0.5196850393700787,"duration":"0.07"},{"name":"C#6","midi":85,"time":"488.37","velocity":0.5433070866141733,"duration":"0.10"},{"name":"D#6","midi":87,"time":"488.38","velocity":0.30708661417322836,"duration":"0.02"},{"name":"G6","midi":91,"time":"488.38","velocity":0.25984251968503935,"duration":"0.03"},{"name":"D6","midi":86,"time":"488.40","velocity":0.33858267716535434,"duration":"0.03"},{"name":"G3","midi":55,"time":"488.41","velocity":0.3228346456692913,"duration":"0.02"},{"name":"C5","midi":72,"time":"488.41","velocity":0.3779527559055118,"duration":"0.05"},{"name":"G#6","midi":92,"time":"488.41","velocity":0.3858267716535433,"duration":"0.20"},{"name":"B3","midi":59,"time":"488.42","velocity":0.3543307086614173,"duration":"0.03"},{"name":"A4","midi":69,"time":"488.42","velocity":0.33070866141732286,"duration":"0.03"},{"name":"D#5","midi":75,"time":"488.42","velocity":0.28346456692913385,"duration":"0.03"},{"name":"F#5","midi":78,"time":"488.42","velocity":0.3228346456692913,"duration":"0.03"},{"name":"A#6","midi":94,"time":"488.42","velocity":0.3937007874015748,"duration":"0.36"},{"name":"D#6","midi":87,"time":"488.43","velocity":0.3228346456692913,"duration":"0.03"},{"name":"G6","midi":91,"time":"488.43","velocity":0.23622047244094488,"duration":"0.09"},{"name":"D3","midi":50,"time":"488.44","velocity":0.6141732283464567,"duration":"0.23"},{"name":"C#5","midi":73,"time":"488.44","velocity":0.4566929133858268,"duration":"0.05"},{"name":"G#5","midi":80,"time":"488.44","velocity":0.33070866141732286,"duration":"0.03"},{"name":"A#5","midi":82,"time":"488.44","velocity":0.5905511811023622,"duration":"0.07"},{"name":"D6","midi":86,"time":"488.44","velocity":0.29133858267716534,"duration":"0.07"},{"name":"G#4","midi":68,"time":"488.45","velocity":0.31496062992125984,"duration":"0.02"},{"name":"F5","midi":77,"time":"488.45","velocity":0.2440944881889764,"duration":"0.02"},{"name":"F6","midi":89,"time":"488.45","velocity":0.3779527559055118,"duration":"0.05"},{"name":"A6","midi":93,"time":"488.45","velocity":0.28346456692913385,"duration":"0.22"},{"name":"G5","midi":79,"time":"488.47","velocity":0.2283464566929134,"duration":"0.02"},{"name":"E6","midi":88,"time":"488.47","velocity":0.4409448818897638,"duration":"0.24"},{"name":"A3","midi":57,"time":"488.48","velocity":0.36220472440944884,"duration":"0.02"},{"name":"F#5","midi":78,"time":"488.48","velocity":0.4094488188976378,"duration":"0.33"},{"name":"A5","midi":81,"time":"488.48","velocity":0.28346456692913385,"duration":"0.06"},{"name":"D2","midi":38,"time":"488.50","velocity":0.5118110236220472,"duration":"0.01"},{"name":"B4","midi":71,"time":"488.50","velocity":0.5275590551181102,"duration":"0.07"},{"name":"D#5","midi":75,"time":"488.50","velocity":0.3228346456692913,"duration":"0.03"},{"name":"B5","midi":83,"time":"488.50","velocity":0.6850393700787402,"duration":"0.60"},{"name":"F#6","midi":90,"time":"488.50","velocity":0.44881889763779526,"duration":"1.26"},{"name":"F#4","midi":66,"time":"488.51","velocity":0.4015748031496063,"duration":"0.05"},{"name":"C#6","midi":85,"time":"488.51","velocity":0.3858267716535433,"duration":"0.06"},{"name":"F6","midi":89,"time":"488.51","velocity":0.15748031496062992,"duration":"0.05"},{"name":"E1","midi":28,"time":"488.53","velocity":0.5354330708661418,"duration":"0.02"},{"name":"C#5","midi":73,"time":"488.53","velocity":0.5354330708661418,"duration":"0.10"},{"name":"G6","midi":91,"time":"488.53","velocity":0.31496062992125984,"duration":"0.09"},{"name":"A3","midi":57,"time":"488.56","velocity":0.3464566929133858,"duration":"0.03"},{"name":"F4","midi":65,"time":"488.56","velocity":0.31496062992125984,"duration":"0.02"},{"name":"D6","midi":86,"time":"488.56","velocity":0.25196850393700787,"duration":"0.05"},{"name":"D#5","midi":75,"time":"488.57","velocity":0.2677165354330709,"duration":"0.05"},{"name":"A#5","midi":82,"time":"488.57","velocity":0.44881889763779526,"duration":"0.05"},{"name":"G4","midi":67,"time":"488.58","velocity":0.2677165354330709,"duration":"0.02"},{"name":"G#5","midi":80,"time":"488.58","velocity":0.28346456692913385,"duration":"0.05"},{"name":"F6","midi":89,"time":"488.58","velocity":0.2755905511811024,"duration":"0.08"},{"name":"A4","midi":69,"time":"488.59","velocity":0.3779527559055118,"duration":"0.12"},{"name":"F#4","midi":66,"time":"488.60","velocity":0.3464566929133858,"duration":"0.03"},{"name":"D6","midi":86,"time":"488.62","velocity":0.3858267716535433,"duration":"0.09"},{"name":"G#6","midi":92,"time":"488.62","velocity":0.44881889763779526,"duration":"1.15"},{"name":"G7","midi":103,"time":"488.63","velocity":0.2204724409448819,"duration":"0.16"},{"name":"E5","midi":76,"time":"488.64","velocity":0.2204724409448819,"duration":"0.05"},{"name":"B4","midi":71,"time":"488.65","velocity":0.4566929133858268,"duration":"0.27"},{"name":"C#5","midi":73,"time":"488.65","velocity":0.48031496062992124,"duration":"0.16"},{"name":"A#5","midi":82,"time":"488.65","velocity":0.2992125984251969,"duration":"0.03"},{"name":"F#4","midi":66,"time":"488.66","velocity":0.28346456692913385,"duration":"0.02"},{"name":"D#6","midi":87,"time":"488.66","velocity":0.41732283464566927,"duration":"0.26"},{"name":"E3","midi":52,"time":"488.67","velocity":0.5354330708661418,"duration":"0.02"},{"name":"F6","midi":89,"time":"488.67","velocity":0.2992125984251969,"duration":"0.20"},{"name":"A2","midi":45,"time":"488.69","velocity":0.5669291338582677,"duration":"0.01"},{"name":"F2","midi":41,"time":"488.70","velocity":0.5826771653543307,"duration":"0.01"},{"name":"C3","midi":48,"time":"488.70","velocity":0.5590551181102362,"duration":"0.01"},{"name":"F4","midi":65,"time":"488.70","velocity":0.3779527559055118,"duration":"0.03"},{"name":"E5","midi":76,"time":"488.70","velocity":0.30708661417322836,"duration":"0.16"},{"name":"G#5","midi":80,"time":"488.70","velocity":0.3228346456692913,"duration":"0.02"},{"name":"G6","midi":91,"time":"488.70","velocity":0.25984251968503935,"duration":"0.08"},{"name":"D2","midi":38,"time":"488.71","velocity":0.5511811023622047,"duration":"0.01"},{"name":"C#3","midi":49,"time":"488.71","velocity":0.5196850393700787,"duration":"0.01"},{"name":"D3","midi":50,"time":"488.72","velocity":0.5275590551181102,"duration":"0.01"},{"name":"D6","midi":86,"time":"488.72","velocity":0.28346456692913385,"duration":"0.02"},{"name":"E3","midi":52,"time":"488.73","velocity":0.5196850393700787,"duration":"0.01"},{"name":"F#1","midi":30,"time":"488.74","velocity":0.5275590551181102,"duration":"0.01"},{"name":"D#3","midi":51,"time":"488.74","velocity":0.5196850393700787,"duration":"0.01"},{"name":"D4","midi":62,"time":"488.74","velocity":0.4015748031496063,"duration":"0.10"},{"name":"A5","midi":81,"time":"488.74","velocity":0.33070866141732286,"duration":"0.05"},{"name":"C7","midi":96,"time":"488.74","velocity":0.2283464566929134,"duration":"0.12"},{"name":"C#3","midi":49,"time":"488.76","velocity":0.5511811023622047,"duration":"0.01"},{"name":"F#4","midi":66,"time":"488.76","velocity":0.33858267716535434,"duration":"0.07"},{"name":"D3","midi":50,"time":"488.77","velocity":0.5275590551181102,"duration":"0.01"},{"name":"D#3","midi":51,"time":"488.78","velocity":0.5039370078740157,"duration":"0.02"},{"name":"G#5","midi":80,"time":"488.78","velocity":0.29133858267716534,"duration":"0.05"},{"name":"F5","midi":77,"time":"488.79","velocity":0.18110236220472442,"duration":"0.03"},{"name":"A#6","midi":94,"time":"488.79","velocity":0.23622047244094488,"duration":"0.31"},{"name":"F#1","midi":30,"time":"488.80","velocity":0.3937007874015748,"duration":"0.02"},{"name":"G7","midi":103,"time":"488.80","velocity":0.1732283464566929,"duration":"0.12"},{"name":"D3","midi":50,"time":"488.81","velocity":0.5511811023622047,"duration":"0.05"},{"name":"A4","midi":69,"time":"488.81","velocity":0.29133858267716534,"duration":"0.02"},{"name":"A5","midi":81,"time":"488.81","velocity":0.33070866141732286,"duration":"0.08"},{"name":"G#4","midi":68,"time":"488.83","velocity":0.2440944881889764,"duration":"0.05"},{"name":"F#5","midi":78,"time":"488.83","velocity":0.2204724409448819,"duration":"0.06"},{"name":"C#5","midi":73,"time":"488.84","velocity":0.41732283464566927,"duration":"0.03"},{"name":"E6","midi":88,"time":"488.86","velocity":0.2204724409448819,"duration":"0.03"},{"name":"G6","midi":91,"time":"488.86","velocity":0.11023622047244094,"duration":"0.03"},{"name":"E7","midi":100,"time":"488.86","velocity":0.23622047244094488,"duration":"0.34"},{"name":"D3","midi":50,"time":"488.87","velocity":0.5196850393700787,"duration":"0.01"},{"name":"C#4","midi":61,"time":"488.87","velocity":0.33070866141732286,"duration":"0.07"},{"name":"G4","midi":67,"time":"488.87","velocity":0.2677165354330709,"duration":"0.03"},{"name":"F5","midi":77,"time":"488.87","velocity":0.16535433070866143,"duration":"0.03"},{"name":"C7","midi":96,"time":"488.87","velocity":0.3464566929133858,"duration":"0.77"},{"name":"C#5","midi":73,"time":"488.88","velocity":0.5433070866141733,"duration":"0.15"},{"name":"F6","midi":89,"time":"488.88","velocity":0.25984251968503935,"duration":"0.07"},{"name":"F#1","midi":30,"time":"488.90","velocity":0.3543307086614173,"duration":"0.02"},{"name":"E5","midi":76,"time":"488.90","velocity":0.23622047244094488,"duration":"0.06"},{"name":"F#5","midi":78,"time":"488.90","velocity":0.29133858267716534,"duration":"0.09"},{"name":"G#5","midi":80,"time":"488.90","velocity":0.25984251968503935,"duration":"0.07"},{"name":"D6","midi":86,"time":"488.90","velocity":0.3228346456692913,"duration":"0.06"},{"name":"B4","midi":71,"time":"488.93","velocity":0.3779527559055118,"duration":"0.02"},{"name":"A5","midi":81,"time":"488.93","velocity":0.2125984251968504,"duration":"0.06"},{"name":"A6","midi":93,"time":"488.93","velocity":0.3779527559055118,"duration":"0.58"},{"name":"G7","midi":103,"time":"488.94","velocity":0.2283464566929134,"duration":"0.08"},{"name":"A3","midi":57,"time":"488.95","velocity":0.3228346456692913,"duration":"0.02"},{"name":"D#6","midi":87,"time":"488.95","velocity":0.3543307086614173,"duration":"0.07"},{"name":"G6","midi":91,"time":"488.95","velocity":0.23622047244094488,"duration":"0.03"},{"name":"B4","midi":71,"time":"488.97","velocity":0.49606299212598426,"duration":"0.10"},{"name":"E6","midi":88,"time":"488.97","velocity":0.14173228346456693,"duration":"0.06"},{"name":"D#3","midi":51,"time":"488.98","velocity":0.5196850393700787,"duration":"0.02"},{"name":"C#4","midi":61,"time":"488.98","velocity":0.3937007874015748,"duration":"0.02"},{"name":"G5","midi":79,"time":"488.98","velocity":0.2440944881889764,"duration":"0.02"},{"name":"D6","midi":86,"time":"488.98","velocity":0.31496062992125984,"duration":"0.02"},{"name":"F#1","midi":30,"time":"488.99","velocity":0.25196850393700787,"duration":"0.02"},{"name":"G#5","midi":80,"time":"488.99","velocity":0.2204724409448819,"duration":"0.06"},{"name":"C#3","midi":49,"time":"489.00","velocity":0.4881889763779528,"duration":"0.02"},{"name":"A3","midi":57,"time":"489.00","velocity":0.36220472440944884,"duration":"0.03"},{"name":"D4","midi":62,"time":"489.00","velocity":0.4094488188976378,"duration":"0.06"},{"name":"F#5","midi":78,"time":"489.00","velocity":0.4251968503937008,"duration":"0.13"},{"name":"F6","midi":89,"time":"489.00","velocity":0.23622047244094488,"duration":"0.06"},{"name":"D7","midi":98,"time":"489.00","velocity":0.44881889763779526,"duration":"1.34"},{"name":"D6","midi":86,"time":"489.01","velocity":0.33858267716535434,"duration":"0.05"},{"name":"G6","midi":91,"time":"489.01","velocity":0.2755905511811024,"duration":"0.12"},{"name":"D#3","midi":51,"time":"489.02","velocity":0.5354330708661418,"duration":"0.02"},{"name":"F#4","midi":66,"time":"489.02","velocity":0.3464566929133858,"duration":"0.03"},{"name":"D5","midi":74,"time":"489.02","velocity":0.5511811023622047,"duration":"0.09"},{"name":"E5","midi":76,"time":"489.02","velocity":0.4409448818897638,"duration":"0.07"},{"name":"D#6","midi":87,"time":"489.03","velocity":0.2047244094488189,"duration":"0.03"},{"name":"D3","midi":50,"time":"489.05","velocity":0.5275590551181102,"duration":"0.02"},{"name":"C#4","midi":61,"time":"489.06","velocity":0.47244094488188976,"duration":"0.05"},{"name":"F#3","midi":54,"time":"489.07","velocity":0.49606299212598426,"duration":"0.02"},{"name":"G#4","midi":68,"time":"489.07","velocity":0.4094488188976378,"duration":"0.02"},{"name":"A#5","midi":82,"time":"489.08","velocity":0.3228346456692913,"duration":"0.03"},{"name":"C#6","midi":85,"time":"489.08","velocity":0.4881889763779528,"duration":"0.41"},{"name":"B4","midi":71,"time":"489.09","velocity":0.4881889763779528,"duration":"0.06"},{"name":"A5","midi":81,"time":"489.09","velocity":0.1889763779527559,"duration":"0.03"},{"name":"F6","midi":89,"time":"489.09","velocity":0.3228346456692913,"duration":"0.09"},{"name":"D#3","midi":51,"time":"489.10","velocity":0.5590551181102362,"duration":"0.01"},{"name":"C4","midi":60,"time":"489.10","velocity":0.44881889763779526,"duration":"0.02"},{"name":"A4","midi":69,"time":"489.10","velocity":0.25196850393700787,"duration":"0.02"},{"name":"E5","midi":76,"time":"489.10","velocity":0.30708661417322836,"duration":"0.05"},{"name":"C6","midi":84,"time":"489.10","velocity":0.25984251968503935,"duration":"0.02"},{"name":"D3","midi":50,"time":"489.12","velocity":0.5118110236220472,"duration":"0.06"},{"name":"F#4","midi":66,"time":"489.12","velocity":0.4330708661417323,"duration":"0.03"},{"name":"C#5","midi":73,"time":"489.12","velocity":0.4645669291338583,"duration":"0.09"},{"name":"B5","midi":83,"time":"489.12","velocity":0.6299212598425197,"duration":"0.12"},{"name":"D6","midi":86,"time":"489.12","velocity":0.3858267716535433,"duration":"0.13"},{"name":"D#6","midi":87,"time":"489.13","velocity":0.2283464566929134,"duration":"0.10"},{"name":"G1","midi":31,"time":"489.14","velocity":0.29133858267716534,"duration":"0.02"},{"name":"F#5","midi":78,"time":"489.14","velocity":0.4409448818897638,"duration":"0.14"},{"name":"A#6","midi":94,"time":"489.14","velocity":0.28346456692913385,"duration":"0.21"},{"name":"C#4","midi":61,"time":"489.15","velocity":0.4251968503937008,"duration":"0.03"},{"name":"G#4","midi":68,"time":"489.16","velocity":0.2677165354330709,"duration":"0.02"},{"name":"B4","midi":71,"time":"489.16","velocity":0.3543307086614173,"duration":"0.06"},{"name":"E5","midi":76,"time":"489.16","velocity":0.3937007874015748,"duration":"0.06"},{"name":"G#5","midi":80,"time":"489.16","velocity":0.2755905511811024,"duration":"0.08"},{"name":"C2","midi":36,"time":"489.19","velocity":0.30708661417322836,"duration":"0.02"},{"name":"D4","midi":62,"time":"489.19","velocity":0.3700787401574803,"duration":"0.08"},{"name":"A#5","midi":82,"time":"489.19","velocity":0.2677165354330709,"duration":"0.02"},{"name":"A4","midi":69,"time":"489.21","velocity":0.33858267716535434,"duration":"0.03"},{"name":"D5","midi":74,"time":"489.21","velocity":0.5039370078740157,"duration":"0.10"},{"name":"F6","midi":89,"time":"489.21","velocity":0.28346456692913385,"duration":"0.03"},{"name":"G6","midi":91,"time":"489.21","velocity":0.33070866141732286,"duration":"0.02"},{"name":"E7","midi":100,"time":"489.21","velocity":0.5275590551181102,"duration":"5.00"},{"name":"F#4","midi":66,"time":"489.22","velocity":0.2992125984251969,"duration":"0.02"},{"name":"C5","midi":72,"time":"489.22","velocity":0.3700787401574803,"duration":"0.02"},{"name":"A#5","midi":82,"time":"489.22","velocity":0.4881889763779528,"duration":"0.02"},{"name":"D3","midi":50,"time":"489.23","velocity":0.5748031496062992,"duration":"0.13"},{"name":"B4","midi":71,"time":"489.23","velocity":0.44881889763779526,"duration":"0.13"},{"name":"E5","midi":76,"time":"489.24","velocity":0.3228346456692913,"duration":"0.03"},{"name":"A5","midi":81,"time":"489.24","velocity":0.2677165354330709,"duration":"0.02"},{"name":"B5","midi":83,"time":"489.24","velocity":0.6535433070866141,"duration":"0.57"},{"name":"G6","midi":91,"time":"489.24","velocity":0.23622047244094488,"duration":"0.05"},{"name":"A4","midi":69,"time":"489.26","velocity":0.2440944881889764,"duration":"0.03"},{"name":"F6","midi":89,"time":"489.26","velocity":0.28346456692913385,"duration":"0.07"},{"name":"D#4","midi":63,"time":"489.27","velocity":0.2440944881889764,"duration":"0.03"},{"name":"D#6","midi":87,"time":"489.27","velocity":0.1889763779527559,"duration":"0.05"},{"name":"G4","midi":67,"time":"489.29","velocity":0.25196850393700787,"duration":"0.02"},{"name":"E5","midi":76,"time":"489.29","velocity":0.33858267716535434,"duration":"0.03"},{"name":"E4","midi":64,"time":"489.30","velocity":0.30708661417322836,"duration":"0.03"},{"name":"C#5","midi":73,"time":"489.30","velocity":0.49606299212598426,"duration":"0.08"},{"name":"A#5","midi":82,"time":"489.30","velocity":0.3228346456692913,"duration":"0.05"},{"name":"D6","midi":86,"time":"489.31","velocity":0.4251968503937008,"duration":"0.10"},{"name":"G7","midi":103,"time":"489.33","velocity":0.1889763779527559,"duration":"0.08"},{"name":"A5","midi":81,"time":"489.34","velocity":0.2755905511811024,"duration":"0.03"},{"name":"G6","midi":91,"time":"489.34","velocity":0.33858267716535434,"duration":"0.10"},{"name":"F#5","midi":78,"time":"489.35","velocity":0.3464566929133858,"duration":"0.13"},{"name":"F6","midi":89,"time":"489.35","velocity":0.23622047244094488,"duration":"0.02"},{"name":"A#5","midi":82,"time":"489.36","velocity":0.5118110236220472,"duration":"0.01"},{"name":"C#3","midi":49,"time":"489.37","velocity":0.5118110236220472,"duration":"0.02"},{"name":"B4","midi":71,"time":"489.37","velocity":0.5433070866141733,"duration":"0.27"},{"name":"D5","midi":74,"time":"489.37","velocity":0.5118110236220472,"duration":"0.16"},{"name":"D#6","midi":87,"time":"489.37","velocity":0.30708661417322836,"duration":"0.10"},{"name":"E4","midi":64,"time":"489.38","velocity":0.30708661417322836,"duration":"0.05"},{"name":"G#5","midi":80,"time":"489.38","velocity":0.1732283464566929,"duration":"0.03"},{"name":"A#5","midi":82,"time":"489.38","velocity":0.4015748031496063,"duration":"0.02"},{"name":"F6","midi":89,"time":"489.38","velocity":0.2283464566929134,"duration":"0.06"},{"name":"C3","midi":48,"time":"489.40","velocity":0.47244094488188976,"duration":"0.02"},{"name":"A5","midi":81,"time":"489.41","velocity":0.28346456692913385,"duration":"0.07"},{"name":"C2","midi":36,"time":"489.42","velocity":0.4409448818897638,"duration":"0.02"},{"name":"D3","midi":50,"time":"489.42","velocity":0.5354330708661418,"duration":"0.05"},{"name":"A#3","midi":58,"time":"489.42","velocity":0.28346456692913385,"duration":"0.02"},{"name":"D#2","midi":39,"time":"489.44","velocity":0.5748031496062992,"duration":"0.01"},{"name":"E6","midi":88,"time":"489.44","velocity":0.3858267716535433,"duration":"0.63"},{"name":"F2","midi":41,"time":"489.45","velocity":0.5984251968503937,"duration":"0.01"},{"name":"F6","midi":89,"time":"489.45","velocity":0.16535433070866143,"duration":"0.03"},{"name":"G6","midi":91,"time":"489.45","velocity":0.3464566929133858,"duration":"0.07"},{"name":"C#3","midi":49,"time":"489.47","velocity":0.5196850393700787,"duration":"0.01"},{"name":"G4","midi":67,"time":"489.47","velocity":0.2283464566929134,"duration":"0.02"},{"name":"F5","midi":77,"time":"489.47","velocity":0.30708661417322836,"duration":"0.02"},{"name":"A#6","midi":94,"time":"489.47","velocity":0.4251968503937008,"duration":"0.50"},{"name":"G1","midi":31,"time":"489.48","velocity":0.5275590551181102,"duration":"0.01"},{"name":"D3","midi":50,"time":"489.48","velocity":0.5433070866141733,"duration":"0.01"},{"name":"F1","midi":29,"time":"489.49","velocity":0.5590551181102362,"duration":"0.01"},{"name":"D#3","midi":51,"time":"489.49","velocity":0.5118110236220472,"duration":"0.01"},{"name":"E5","midi":76,"time":"489.49","velocity":0.3228346456692913,"duration":"0.09"},{"name":"F#5","midi":78,"time":"489.49","velocity":0.29133858267716534,"duration":"0.06"},{"name":"F#1","midi":30,"time":"489.50","velocity":0.5196850393700787,"duration":"0.01"},{"name":"E3","midi":52,"time":"489.50","velocity":0.5196850393700787,"duration":"0.02"},{"name":"F#4","midi":66,"time":"489.50","velocity":0.28346456692913385,"duration":"0.02"},{"name":"C#6","midi":85,"time":"489.50","velocity":0.3464566929133858,"duration":"0.07"},{"name":"D#6","midi":87,"time":"489.50","velocity":0.2677165354330709,"duration":"0.03"},{"name":"C#5","midi":73,"time":"489.52","velocity":0.4015748031496063,"duration":"0.02"},{"name":"A5","midi":81,"time":"489.52","velocity":0.28346456692913385,"duration":"0.10"},{"name":"A6","midi":93,"time":"489.52","velocity":0.41732283464566927,"duration":"0.43"},{"name":"F#1","midi":30,"time":"489.53","velocity":0.4015748031496063,"duration":"0.02"},{"name":"A#3","midi":58,"time":"489.53","velocity":0.33070866141732286,"duration":"0.02"},{"name":"D4","midi":62,"time":"489.53","velocity":0.3543307086614173,"duration":"0.02"},{"name":"F#4","midi":66,"time":"489.53","velocity":0.29133858267716534,"duration":"0.07"},{"name":"G#5","midi":80,"time":"489.53","velocity":0.2677165354330709,"duration":"0.03"},{"name":"D#3","midi":51,"time":"489.55","velocity":0.5039370078740157,"duration":"0.02"},{"name":"D5","midi":74,"time":"489.55","velocity":0.5196850393700787,"duration":"0.14"},{"name":"G7","midi":103,"time":"489.55","velocity":0.2125984251968504,"duration":"0.13"},{"name":"A4","midi":69,"time":"489.56","velocity":0.33858267716535434,"duration":"0.02"},{"name":"F#5","midi":78,"time":"489.56","velocity":0.31496062992125984,"duration":"0.03"},{"name":"D#6","midi":87,"time":"489.56","velocity":0.2755905511811024,"duration":"0.08"},{"name":"F6","midi":89,"time":"489.56","velocity":0.23622047244094488,"duration":"0.10"},{"name":"D4","midi":62,"time":"489.57","velocity":0.3937007874015748,"duration":"0.05"},{"name":"G6","midi":91,"time":"489.57","velocity":0.3543307086614173,"duration":"0.07"},{"name":"G5","midi":79,"time":"489.58","velocity":0.28346456692913385,"duration":"0.05"},{"name":"C#6","midi":85,"time":"489.58","velocity":0.4094488188976378,"duration":"0.14"},{"name":"D#3","midi":51,"time":"489.59","velocity":0.5039370078740157,"duration":"0.02"},{"name":"A4","midi":69,"time":"489.59","velocity":0.33070866141732286,"duration":"0.02"},{"name":"A#3","midi":58,"time":"489.60","velocity":0.3228346456692913,"duration":"0.02"},{"name":"F#5","midi":78,"time":"489.60","velocity":0.33070866141732286,"duration":"0.09"},{"name":"G#4","midi":68,"time":"489.62","velocity":0.2992125984251969,"duration":"0.02"},{"name":"E5","midi":76,"time":"489.62","velocity":0.31496062992125984,"duration":"0.05"},{"name":"G#1","midi":32,"time":"489.63","velocity":0.28346456692913385,"duration":"0.02"},{"name":"G#5","midi":80,"time":"489.63","velocity":0.31496062992125984,"duration":"0.05"},{"name":"B2","midi":47,"time":"489.64","velocity":0.49606299212598426,"duration":"0.02"},{"name":"A#3","midi":58,"time":"489.64","velocity":0.31496062992125984,"duration":"0.02"},{"name":"D4","midi":62,"time":"489.65","velocity":0.3779527559055118,"duration":"0.05"},{"name":"F#4","midi":66,"time":"489.65","velocity":0.2677165354330709,"duration":"0.05"},{"name":"B4","midi":71,"time":"489.65","velocity":0.5511811023622047,"duration":"0.16"},{"name":"D#6","midi":87,"time":"489.65","velocity":0.25984251968503935,"duration":"0.12"},{"name":"G6","midi":91,"time":"489.65","velocity":0.2125984251968504,"duration":"0.06"},{"name":"E5","midi":76,"time":"489.67","velocity":0.3858267716535433,"duration":"0.09"},{"name":"A5","midi":81,"time":"489.67","velocity":0.33070866141732286,"duration":"0.06"},{"name":"C7","midi":96,"time":"489.67","velocity":0.3228346456692913,"duration":"0.15"},{"name":"D5","midi":74,"time":"489.70","velocity":0.5118110236220472,"duration":"0.09"},{"name":"G7","midi":103,"time":"489.70","velocity":0.2283464566929134,"duration":"0.36"},{"name":"E4","midi":64,"time":"489.71","velocity":0.25984251968503935,"duration":"0.03"},{"name":"F#4","midi":66,"time":"489.71","velocity":0.2677165354330709,"duration":"0.03"},{"name":"F#5","midi":78,"time":"489.71","velocity":0.36220472440944884,"duration":"0.06"},{"name":"G#5","midi":80,"time":"489.71","velocity":0.30708661417322836,"duration":"0.06"},{"name":"F6","midi":89,"time":"489.71","velocity":0.11811023622047244,"duration":"0.03"},{"name":"A4","midi":69,"time":"489.73","velocity":0.23622047244094488,"duration":"0.02"},{"name":"C#7","midi":97,"time":"489.73","velocity":0.5196850393700787,"duration":"1.72"},{"name":"D4","midi":62,"time":"489.74","velocity":0.3464566929133858,"duration":"0.02"},{"name":"F4","midi":65,"time":"489.74","velocity":0.33070866141732286,"duration":"0.02"},{"name":"G5","midi":79,"time":"489.76","velocity":0.33858267716535434,"duration":"0.02"},{"name":"F6","midi":89,"time":"489.76","velocity":0.14960629921259844,"duration":"0.05"},{"name":"G6","midi":91,"time":"489.76","velocity":0.41732283464566927,"duration":"0.02"},{"name":"G#4","midi":68,"time":"489.77","velocity":0.3543307086614173,"duration":"0.05"},{"name":"A5","midi":81,"time":"489.77","velocity":0.25984251968503935,"duration":"0.06"},{"name":"C#6","midi":85,"time":"489.77","velocity":0.41732283464566927,"duration":"0.24"},{"name":"F#6","midi":90,"time":"489.77","velocity":0.4330708661417323,"duration":"0.08"},{"name":"D#3","midi":51,"time":"489.78","velocity":0.3937007874015748,"duration":"0.02"},{"name":"A3","midi":57,"time":"489.78","velocity":0.2440944881889764,"duration":"0.02"},{"name":"E4","midi":64,"time":"489.78","velocity":0.2755905511811024,"duration":"0.05"},{"name":"E5","midi":76,"time":"489.78","velocity":0.3228346456692913,"duration":"0.06"},{"name":"F#5","midi":78,"time":"489.78","velocity":0.3937007874015748,"duration":"0.06"},{"name":"C#4","midi":61,"time":"489.79","velocity":0.33070866141732286,"duration":"0.05"},{"name":"C#5","midi":73,"time":"489.79","velocity":0.4645669291338583,"duration":"0.03"},{"name":"G6","midi":91,"time":"489.79","velocity":0.23622047244094488,"duration":"0.13"},{"name":"F#2","midi":42,"time":"489.80","velocity":0.6141732283464567,"duration":"0.05"},{"name":"A4","midi":69,"time":"489.81","velocity":0.48031496062992124,"duration":"0.03"},{"name":"A#5","midi":82,"time":"489.81","velocity":0.5748031496062992,"duration":"0.06"},{"name":"F5","midi":77,"time":"489.83","velocity":0.2755905511811024,"duration":"0.06"},{"name":"F4","midi":65,"time":"489.84","velocity":0.3228346456692913,"duration":"0.02"},{"name":"A#4","midi":70,"time":"489.84","velocity":0.3937007874015748,"duration":"0.02"},{"name":"C#5","midi":73,"time":"489.84","velocity":0.49606299212598426,"duration":"0.07"},{"name":"G#6","midi":92,"time":"489.84","velocity":0.33858267716535434,"duration":"0.07"},{"name":"C7","midi":96,"time":"489.84","velocity":0.3228346456692913,"duration":"0.13"},{"name":"A1","midi":33,"time":"489.85","velocity":0.5275590551181102,"duration":"0.01"},{"name":"G#2","midi":44,"time":"489.85","velocity":0.5118110236220472,"duration":"0.01"},{"name":"F#1","midi":30,"time":"489.86","velocity":0.5826771653543307,"duration":"0.01"},{"name":"A4","midi":69,"time":"489.86","velocity":0.47244094488188976,"duration":"0.12"},{"name":"B5","midi":83,"time":"489.86","velocity":0.5275590551181102,"duration":"0.07"},{"name":"F#6","midi":90,"time":"489.86","velocity":0.33070866141732286,"duration":"0.33"},{"name":"G#1","midi":32,"time":"489.87","velocity":0.5826771653543307,"duration":"0.01"},{"name":"F#5","midi":78,"time":"489.87","velocity":0.2204724409448819,"duration":"0.05"},{"name":"A5","midi":81,"time":"489.87","velocity":0.6141732283464567,"duration":"0.17"},{"name":"D6","midi":86,"time":"489.87","velocity":0.28346456692913385,"duration":"0.08"},{"name":"F6","midi":89,"time":"489.87","velocity":0.3858267716535433,"duration":"0.15"},{"name":"C2","midi":36,"time":"489.88","velocity":0.5354330708661418,"duration":"0.01"},{"name":"B3","midi":59,"time":"489.88","velocity":0.2992125984251969,"duration":"0.03"},{"name":"E4","midi":64,"time":"489.90","velocity":0.2992125984251969,"duration":"0.03"},{"name":"B4","midi":71,"time":"489.90","velocity":0.3543307086614173,"duration":"0.02"},{"name":"D5","midi":74,"time":"489.90","velocity":0.4566929133858268,"duration":"0.05"},{"name":"G5","midi":79,"time":"489.91","velocity":0.23622047244094488,"duration":"0.06"},{"name":"D#6","midi":87,"time":"489.91","velocity":0.1889763779527559,"duration":"0.07"},{"name":"F#3","midi":54,"time":"489.92","velocity":0.4251968503937008,"duration":"0.02"},{"name":"E5","midi":76,"time":"489.92","velocity":0.3464566929133858,"duration":"0.16"},{"name":"G#6","midi":92,"time":"489.92","velocity":0.41732283464566927,"duration":"0.10"},{"name":"G6","midi":91,"time":"489.93","velocity":0.25196850393700787,"duration":"0.06"},{"name":"F#5","midi":78,"time":"489.94","velocity":0.3464566929133858,"duration":"0.07"},{"name":"B5","midi":83,"time":"489.94","velocity":0.47244094488188976,"duration":"0.24"},{"name":"F#2","midi":42,"time":"489.95","velocity":0.5275590551181102,"duration":"0.02"},{"name":"C#4","midi":61,"time":"489.95","velocity":0.31496062992125984,"duration":"0.08"},{"name":"B4","midi":71,"time":"489.95","velocity":0.3779527559055118,"duration":"0.06"},{"name":"C#5","midi":73,"time":"489.95","velocity":0.4251968503937008,"duration":"0.02"},{"name":"E4","midi":64,"time":"489.97","velocity":0.2755905511811024,"duration":"0.03"},{"name":"C6","midi":84,"time":"489.97","velocity":0.2755905511811024,"duration":"0.02"},{"name":"D6","midi":86,"time":"489.97","velocity":0.3779527559055118,"duration":"0.09"},{"name":"F2","midi":41,"time":"489.98","velocity":0.5275590551181102,"duration":"0.01"},{"name":"D5","midi":74,"time":"489.98","velocity":0.4330708661417323,"duration":"0.05"},{"name":"C7","midi":96,"time":"489.98","velocity":0.28346456692913385,"duration":"0.21"},{"name":"F#2","midi":42,"time":"489.99","velocity":0.5275590551181102,"duration":"0.02"},{"name":"A4","midi":69,"time":"489.99","velocity":0.4409448818897638,"duration":"0.12"},{"name":"F3","midi":53,"time":"490.00","velocity":0.3858267716535433,"duration":"0.02"},{"name":"G5","midi":79,"time":"490.00","velocity":0.29133858267716534,"duration":"0.07"},{"name":"F2","midi":41,"time":"490.01","velocity":0.5196850393700787,"duration":"0.01"},{"name":"F#4","midi":66,"time":"490.01","velocity":0.4330708661417323,"duration":"0.12"},{"name":"C#5","midi":73,"time":"490.01","velocity":0.3858267716535433,"duration":"0.03"},{"name":"G3","midi":55,"time":"490.02","velocity":0.41732283464566927,"duration":"0.02"},{"name":"C#6","midi":85,"time":"490.02","velocity":0.4645669291338583,"duration":"0.28"},{"name":"F#3","midi":54,"time":"490.03","velocity":0.4330708661417323,"duration":"0.13"},{"name":"D4","midi":62,"time":"490.03","velocity":0.2755905511811024,"duration":"0.03"},{"name":"G#5","midi":80,"time":"490.03","velocity":0.23622047244094488,"duration":"0.02"},{"name":"A#5","midi":82,"time":"490.03","velocity":0.5118110236220472,"duration":"0.03"},{"name":"C5","midi":72,"time":"490.05","velocity":0.2992125984251969,"duration":"0.02"},{"name":"D5","midi":74,"time":"490.05","velocity":0.4330708661417323,"duration":"0.05"},{"name":"A5","midi":81,"time":"490.06","velocity":0.6220472440944882,"duration":"0.44"},{"name":"D#6","midi":87,"time":"490.06","velocity":0.2125984251968504,"duration":"0.08"},{"name":"F6","midi":89,"time":"490.06","velocity":0.4094488188976378,"duration":"0.03"},{"name":"G#6","midi":92,"time":"490.06","velocity":0.44881889763779526,"duration":"0.91"},{"name":"G#5","midi":80,"time":"490.07","velocity":0.2992125984251969,"duration":"0.02"},{"name":"C4","midi":60,"time":"490.08","velocity":0.25984251968503935,"duration":"0.05"},{"name":"C#5","midi":73,"time":"490.08","velocity":0.49606299212598426,"duration":"0.09"},{"name":"E6","midi":88,"time":"490.08","velocity":0.4094488188976378,"duration":"0.08"},{"name":"G6","midi":91,"time":"490.08","velocity":0.2283464566929134,"duration":"0.03"},{"name":"G7","midi":103,"time":"490.08","velocity":0.2677165354330709,"duration":"0.13"},{"name":"B4","midi":71,"time":"490.09","velocity":0.4409448818897638,"duration":"0.07"},{"name":"D#5","midi":75,"time":"490.09","velocity":0.1889763779527559,"duration":"0.05"},{"name":"E5","midi":76,"time":"490.09","velocity":0.1889763779527559,"duration":"0.03"},{"name":"F6","midi":89,"time":"490.10","velocity":0.25196850393700787,"duration":"0.10"},{"name":"F#2","midi":42,"time":"490.12","velocity":0.49606299212598426,"duration":"0.03"},{"name":"C#4","midi":61,"time":"490.12","velocity":0.36220472440944884,"duration":"0.05"},{"name":"G6","midi":91,"time":"490.13","velocity":0.2440944881889764,"duration":"0.16"},{"name":"A4","midi":69,"time":"490.14","velocity":0.5433070866141733,"duration":"0.43"},{"name":"E5","midi":76,"time":"490.14","velocity":0.4015748031496063,"duration":"0.19"},{"name":"F3","midi":53,"time":"490.16","velocity":0.4409448818897638,"duration":"0.02"},{"name":"D6","midi":86,"time":"490.16","velocity":0.2992125984251969,"duration":"0.05"},{"name":"G2","midi":43,"time":"490.17","velocity":0.5196850393700787,"duration":"0.01"},{"name":"F#5","midi":78,"time":"490.17","velocity":0.3700787401574803,"duration":"0.19"},{"name":"E6","midi":88,"time":"490.17","velocity":0.4409448818897638,"duration":"0.20"},{"name":"A2","midi":45,"time":"490.19","velocity":0.5196850393700787,"duration":"0.01"},{"name":"E4","midi":64,"time":"490.19","velocity":0.2440944881889764,"duration":"0.02"},{"name":"C#5","midi":73,"time":"490.19","velocity":0.4251968503937008,"duration":"0.06"},{"name":"B5","midi":83,"time":"490.20","velocity":0.2755905511811024,"duration":"0.02"},{"name":"C6","midi":84,"time":"490.20","velocity":0.3464566929133858,"duration":"0.05"},{"name":"A#6","midi":94,"time":"490.20","velocity":0.30708661417322836,"duration":"0.10"},{"name":"F2","midi":41,"time":"490.22","velocity":0.4881889763779528,"duration":"0.03"},{"name":"C3","midi":48,"time":"490.22","velocity":0.4566929133858268,"duration":"0.02"},{"name":"G3","midi":55,"time":"490.22","velocity":0.36220472440944884,"duration":"0.02"},{"name":"D4","midi":62,"time":"490.22","velocity":0.3464566929133858,"duration":"0.05"},{"name":"D#6","midi":87,"time":"490.22","velocity":0.2755905511811024,"duration":"0.12"},{"name":"D5","midi":74,"time":"490.23","velocity":0.4409448818897638,"duration":"0.02"},{"name":"B3","midi":59,"time":"490.24","velocity":0.3779527559055118,"duration":"0.03"},{"name":"F#4","midi":66,"time":"490.24","velocity":0.2992125984251969,"duration":"0.02"},{"name":"B5","midi":83,"time":"490.24","velocity":0.4094488188976378,"duration":"0.10"},{"name":"G#2","midi":44,"time":"490.26","velocity":0.5433070866141733,"duration":"0.01"},{"name":"G3","midi":55,"time":"490.26","velocity":0.31496062992125984,"duration":"0.02"},{"name":"C#5","midi":73,"time":"490.26","velocity":0.5039370078740157,"duration":"0.30"},{"name":"B4","midi":71,"time":"490.27","velocity":0.4409448818897638,"duration":"0.14"},{"name":"F#1","midi":30,"time":"490.29","velocity":0.4094488188976378,"duration":"0.02"},{"name":"F6","midi":89,"time":"490.29","velocity":0.3779527559055118,"duration":"0.09"},{"name":"F#4","midi":66,"time":"490.30","velocity":0.29133858267716534,"duration":"0.03"},{"name":"D6","midi":86,"time":"490.30","velocity":0.3228346456692913,"duration":"0.06"},{"name":"C#4","midi":61,"time":"490.31","velocity":0.44881889763779526,"duration":"0.07"},{"name":"D#5","midi":75,"time":"490.33","velocity":0.2677165354330709,"duration":"0.06"},{"name":"G#5","midi":80,"time":"490.33","velocity":0.2755905511811024,"duration":"0.05"},{"name":"A#6","midi":94,"time":"490.33","velocity":0.3543307086614173,"duration":"0.49"},{"name":"E4","midi":64,"time":"490.34","velocity":0.3464566929133858,"duration":"0.02"},{"name":"C6","midi":84,"time":"490.35","velocity":0.2992125984251969,"duration":"0.06"},{"name":"F#3","midi":54,"time":"490.36","velocity":0.4094488188976378,"duration":"0.02"},{"name":"G5","midi":79,"time":"490.37","velocity":0.23622047244094488,"duration":"0.02"},{"name":"A2","midi":45,"time":"490.38","velocity":0.5275590551181102,"duration":"0.01"},{"name":"E6","midi":88,"time":"490.38","velocity":0.4645669291338583,"duration":"0.73"},{"name":"F#3","midi":54,"time":"490.40","velocity":0.4094488188976378,"duration":"0.02"},{"name":"F6","midi":89,"time":"490.41","velocity":0.2755905511811024,"duration":"0.05"},{"name":"A2","midi":45,"time":"490.42","velocity":0.5590551181102362,"duration":"0.01"},{"name":"F3","midi":53,"time":"490.42","velocity":0.36220472440944884,"duration":"0.02"},{"name":"E4","midi":64,"time":"490.42","velocity":0.3543307086614173,"duration":"0.02"},{"name":"B4","midi":71,"time":"490.42","velocity":0.4409448818897638,"duration":"0.14"},{"name":"F5","midi":77,"time":"490.42","velocity":0.2440944881889764,"duration":"0.02"},{"name":"F#2","midi":42,"time":"490.43","velocity":0.48031496062992124,"duration":"0.02"},{"name":"F#4","midi":66,"time":"490.43","velocity":0.30708661417322836,"duration":"0.03"},{"name":"E5","midi":76,"time":"490.43","velocity":0.3700787401574803,"duration":"0.13"},{"name":"D6","midi":86,"time":"490.43","velocity":0.28346456692913385,"duration":"0.12"},{"name":"G6","midi":91,"time":"490.43","velocity":0.2047244094488189,"duration":"0.03"},{"name":"C#4","midi":61,"time":"490.44","velocity":0.4251968503937008,"duration":"0.09"},{"name":"A2","midi":45,"time":"490.45","velocity":0.5433070866141733,"duration":"0.01"},{"name":"F#3","midi":54,"time":"490.45","velocity":0.41732283464566927,"duration":"0.02"},{"name":"C7","midi":96,"time":"490.47","velocity":0.30708661417322836,"duration":"0.33"},{"name":"F6","midi":89,"time":"490.48","velocity":0.3464566929133858,"duration":"0.09"},{"name":"A2","midi":45,"time":"490.49","velocity":0.5511811023622047,"duration":"0.01"},{"name":"F#3","midi":54,"time":"490.49","velocity":0.3858267716535433,"duration":"0.02"},{"name":"D#6","midi":87,"time":"490.49","velocity":0.18110236220472442,"duration":"0.03"},{"name":"G6","midi":91,"time":"490.49","velocity":0.31496062992125984,"duration":"0.10"},{"name":"B2","midi":47,"time":"490.50","velocity":0.5196850393700787,"duration":"0.01"},{"name":"G#5","midi":80,"time":"490.50","velocity":0.29133858267716534,"duration":"0.03"},{"name":"A5","midi":81,"time":"490.51","velocity":0.6771653543307087,"duration":"0.95"},{"name":"A2","midi":45,"time":"490.52","velocity":0.5275590551181102,"duration":"0.01"},{"name":"C6","midi":84,"time":"490.52","velocity":0.2677165354330709,"duration":"0.02"},{"name":"C3","midi":48,"time":"490.55","velocity":0.5275590551181102,"duration":"0.01"},{"name":"D#4","midi":63,"time":"490.55","velocity":0.3937007874015748,"duration":"0.02"},{"name":"F5","midi":77,"time":"490.55","velocity":0.4251968503937008,"duration":"0.05"},{"name":"D#6","midi":87,"time":"490.55","velocity":0.2992125984251969,"duration":"0.05"},{"name":"G#2","midi":44,"time":"490.56","velocity":0.5196850393700787,"duration":"0.01"},{"name":"C5","midi":72,"time":"490.56","velocity":0.3858267716535433,"duration":"0.02"},{"name":"B6","midi":95,"time":"490.56","velocity":0.44881889763779526,"duration":"1.99"},{"name":"G#4","midi":68,"time":"490.57","velocity":0.4645669291338583,"duration":"0.02"},{"name":"C#5","midi":73,"time":"490.57","velocity":0.5354330708661418,"duration":"0.02"},{"name":"F#5","midi":78,"time":"490.57","velocity":0.2992125984251969,"duration":"0.03"},{"name":"C6","midi":84,"time":"490.57","velocity":0.3858267716535433,"duration":"0.05"},{"name":"D#7","midi":99,"time":"490.57","velocity":0.4094488188976378,"duration":"0.81"},{"name":"F3","midi":53,"time":"490.58","velocity":0.3464566929133858,"duration":"0.02"},{"name":"C4","midi":60,"time":"490.58","velocity":0.48031496062992124,"duration":"0.05"},{"name":"C5","midi":72,"time":"490.59","velocity":0.5196850393700787,"duration":"0.02"},{"name":"D5","midi":74,"time":"490.59","velocity":0.3700787401574803,"duration":"0.02"},{"name":"E5","midi":76,"time":"490.59","velocity":0.4409448818897638,"duration":"0.06"},{"name":"F#4","midi":66,"time":"490.60","velocity":0.4251968503937008,"duration":"0.03"},{"name":"F5","midi":77,"time":"490.60","velocity":0.30708661417322836,"duration":"0.07"},{"name":"D#6","midi":87,"time":"490.60","velocity":0.2440944881889764,"duration":"0.02"},{"name":"G6","midi":91,"time":"490.60","velocity":0.25984251968503935,"duration":"0.05"},{"name":"G#3","midi":56,"time":"490.62","velocity":0.44881889763779526,"duration":"0.02"},{"name":"B4","midi":71,"time":"490.62","velocity":0.5039370078740157,"duration":"0.13"},{"name":"C#5","midi":73,"time":"490.62","velocity":0.4094488188976378,"duration":"0.02"},{"name":"D5","midi":74,"time":"490.63","velocity":0.3228346456692913,"duration":"0.02"},{"name":"A#3","midi":58,"time":"490.64","velocity":0.3779527559055118,"duration":"0.03"},{"name":"F4","midi":65,"time":"490.64","velocity":0.2992125984251969,"duration":"0.06"},{"name":"A4","midi":69,"time":"490.64","velocity":0.5826771653543307,"duration":"0.49"},{"name":"G5","midi":79,"time":"490.64","velocity":0.2204724409448819,"duration":"0.05"},{"name":"F3","midi":53,"time":"490.65","velocity":0.3779527559055118,"duration":"0.02"},{"name":"D#5","midi":75,"time":"490.65","velocity":0.3543307086614173,"duration":"0.03"},{"name":"F#6","midi":90,"time":"490.65","velocity":0.3937007874015748,"duration":"0.83"},{"name":"F#3","midi":54,"time":"490.67","velocity":0.4566929133858268,"duration":"0.03"},{"name":"C#4","midi":61,"time":"490.67","velocity":0.36220472440944884,"duration":"0.05"},{"name":"G#5","midi":80,"time":"490.67","velocity":0.25984251968503935,"duration":"0.03"},{"name":"E5","midi":76,"time":"490.69","velocity":0.3543307086614173,"duration":"0.22"},{"name":"F6","midi":89,"time":"490.69","velocity":0.33858267716535434,"duration":"0.05"},{"name":"C#6","midi":85,"time":"490.70","velocity":0.33858267716535434,"duration":"0.09"},{"name":"A3","midi":57,"time":"490.71","velocity":0.44881889763779526,"duration":"0.10"},{"name":"F#4","midi":66,"time":"490.71","velocity":0.29133858267716534,"duration":"0.03"},{"name":"C#5","midi":73,"time":"490.72","velocity":0.36220472440944884,"duration":"0.09"},{"name":"D6","midi":86,"time":"490.72","velocity":0.1889763779527559,"duration":"0.03"},{"name":"C#4","midi":61,"time":"490.73","velocity":0.28346456692913385,"duration":"0.03"},{"name":"B2","midi":47,"time":"490.76","velocity":0.4330708661417323,"duration":"0.02"},{"name":"F#4","midi":66,"time":"490.76","velocity":0.30708661417322836,"duration":"0.03"},{"name":"B4","midi":71,"time":"490.76","velocity":0.4566929133858268,"duration":"0.07"},{"name":"D7","midi":98,"time":"490.76","velocity":0.2755905511811024,"duration":"0.34"},{"name":"D6","midi":86,"time":"490.77","velocity":0.31496062992125984,"duration":"0.22"},{"name":"D#6","midi":87,"time":"490.78","velocity":0.16535433070866143,"duration":"0.03"},{"name":"B2","midi":47,"time":"490.79","velocity":0.49606299212598426,"duration":"0.02"},{"name":"D#5","midi":75,"time":"490.79","velocity":0.3228346456692913,"duration":"0.02"},{"name":"C7","midi":96,"time":"490.80","velocity":0.3700787401574803,"duration":"0.09"},{"name":"G3","midi":55,"time":"490.81","velocity":0.41732283464566927,"duration":"0.02"},{"name":"C#4","midi":61,"time":"490.81","velocity":0.2755905511811024,"duration":"0.03"},{"name":"D5","midi":74,"time":"490.81","velocity":0.2992125984251969,"duration":"0.02"},{"name":"F6","midi":89,"time":"490.81","velocity":0.29133858267716534,"duration":"0.09"},{"name":"F#4","midi":66,"time":"490.83","velocity":0.3543307086614173,"duration":"0.03"},{"name":"C6","midi":84,"time":"490.83","velocity":0.2992125984251969,"duration":"0.05"},{"name":"F#3","midi":54,"time":"490.84","velocity":0.4330708661417323,"duration":"0.05"},{"name":"C#5","midi":73,"time":"490.84","velocity":0.31496062992125984,"duration":"0.02"},{"name":"D#6","midi":87,"time":"490.84","velocity":0.2047244094488189,"duration":"0.08"},{"name":"B2","midi":47,"time":"490.85","velocity":0.47244094488188976,"duration":"0.05"},{"name":"G#5","midi":80,"time":"490.85","velocity":0.2677165354330709,"duration":"0.02"},{"name":"A#6","midi":94,"time":"490.85","velocity":0.2047244094488189,"duration":"0.03"},{"name":"B5","midi":83,"time":"490.86","velocity":0.3858267716535433,"duration":"0.15"},{"name":"B4","midi":71,"time":"490.87","velocity":0.4566929133858268,"duration":"0.05"},{"name":"G7","midi":103,"time":"490.87","velocity":0.14173228346456693,"duration":"0.09"},{"name":"G6","midi":91,"time":"490.90","velocity":0.2440944881889764,"duration":"0.09"},{"name":"F#1","midi":30,"time":"490.91","velocity":0.3543307086614173,"duration":"0.02"},{"name":"B2","midi":47,"time":"490.91","velocity":0.5196850393700787,"duration":"0.02"},{"name":"D5","midi":74,"time":"490.91","velocity":0.29133858267716534,"duration":"0.02"},{"name":"A#6","midi":94,"time":"490.91","velocity":0.2755905511811024,"duration":"0.19"},{"name":"F#3","midi":54,"time":"490.92","velocity":0.3779527559055118,"duration":"0.03"},{"name":"C5","midi":72,"time":"490.92","velocity":0.3779527559055118,"duration":"0.03"},{"name":"F6","midi":89,"time":"490.92","velocity":0.33070866141732286,"duration":"0.16"},{"name":"C7","midi":96,"time":"490.92","velocity":0.23622047244094488,"duration":"0.08"},{"name":"B3","midi":59,"time":"490.93","velocity":0.3543307086614173,"duration":"0.02"},{"name":"E5","midi":76,"time":"490.93","velocity":0.33070866141732286,"duration":"0.02"},{"name":"F5","midi":77,"time":"490.93","velocity":0.28346456692913385,"duration":"0.07"},{"name":"G#2","midi":44,"time":"490.94","velocity":0.4881889763779528,"duration":"0.02"},{"name":"D5","midi":74,"time":"490.94","velocity":0.33858267716535434,"duration":"0.03"},{"name":"A#5","midi":82,"time":"490.94","velocity":0.3543307086614173,"duration":"0.02"},{"name":"G3","midi":55,"time":"490.95","velocity":0.3464566929133858,"duration":"0.02"},{"name":"B4","midi":71,"time":"490.95","velocity":0.6062992125984252,"duration":"0.40"},{"name":"D#5","midi":75,"time":"490.95","velocity":0.3700787401574803,"duration":"0.03"},{"name":"C#3","midi":49,"time":"490.97","velocity":0.4251968503937008,"duration":"0.02"},{"name":"E4","midi":64,"time":"490.97","velocity":0.3464566929133858,"duration":"0.02"},{"name":"C#6","midi":85,"time":"490.97","velocity":0.33070866141732286,"duration":"0.41"},{"name":"C4","midi":60,"time":"490.98","velocity":0.3228346456692913,"duration":"0.02"},{"name":"G5","midi":79,"time":"490.98","velocity":0.2047244094488189,"duration":"0.03"},{"name":"G#6","midi":92,"time":"490.98","velocity":0.28346456692913385,"duration":"0.05"},{"name":"G7","midi":103,"time":"490.98","velocity":0.2755905511811024,"duration":"0.12"},{"name":"E1","midi":28,"time":"490.99","velocity":0.36220472440944884,"duration":"0.03"},{"name":"F#3","midi":54,"time":"490.99","velocity":0.3464566929133858,"duration":"0.02"},{"name":"F#5","midi":78,"time":"491.00","velocity":0.33070866141732286,"duration":"0.03"},{"name":"D6","midi":86,"time":"491.00","velocity":0.2440944881889764,"duration":"0.10"},{"name":"G6","midi":91,"time":"491.00","velocity":0.2677165354330709,"duration":"0.12"},{"name":"F#2","midi":42,"time":"491.01","velocity":0.4251968503937008,"duration":"0.02"},{"name":"D4","midi":62,"time":"491.01","velocity":0.25196850393700787,"duration":"0.02"},{"name":"C#5","midi":73,"time":"491.01","velocity":0.25196850393700787,"duration":"0.02"},{"name":"C7","midi":96,"time":"491.01","velocity":0.30708661417322836,"duration":"0.08"},{"name":"F#4","midi":66,"time":"491.02","velocity":0.30708661417322836,"duration":"0.03"},{"name":"F5","midi":77,"time":"491.02","velocity":0.29133858267716534,"duration":"0.03"},{"name":"A3","midi":57,"time":"491.03","velocity":0.3228346456692913,"duration":"0.03"},{"name":"E5","midi":76,"time":"491.05","velocity":0.30708661417322836,"duration":"0.03"},{"name":"G#6","midi":92,"time":"491.06","velocity":0.2440944881889764,"duration":"0.06"},{"name":"E4","midi":64,"time":"491.07","velocity":0.2677165354330709,"duration":"0.03"},{"name":"G5","midi":79,"time":"491.07","velocity":0.25196850393700787,"duration":"0.05"},{"name":"B2","midi":47,"time":"491.08","velocity":0.5196850393700787,"duration":"0.01"},{"name":"C#5","midi":73,"time":"491.08","velocity":0.33858267716535434,"duration":"0.02"},{"name":"D#5","midi":75,"time":"491.08","velocity":0.2440944881889764,"duration":"0.02"},{"name":"A#2","midi":46,"time":"491.09","velocity":0.5354330708661418,"duration":"0.01"},{"name":"F#4","midi":66,"time":"491.09","velocity":0.3228346456692913,"duration":"0.08"},{"name":"F6","midi":89,"time":"491.09","velocity":0.36220472440944884,"duration":"0.14"},{"name":"B2","midi":47,"time":"491.10","velocity":0.5118110236220472,"duration":"0.02"},{"name":"F#3","midi":54,"time":"491.10","velocity":0.3858267716535433,"duration":"0.02"},{"name":"A#3","midi":58,"time":"491.10","velocity":0.29133858267716534,"duration":"0.02"},{"name":"A#6","midi":94,"time":"491.10","velocity":0.2677165354330709,"duration":"0.12"},{"name":"C7","midi":96,"time":"491.10","velocity":0.36220472440944884,"duration":"0.08"},{"name":"D7","midi":98,"time":"491.10","velocity":0.47244094488188976,"duration":"2.42"},{"name":"D#5","midi":75,"time":"491.12","velocity":0.2992125984251969,"duration":"0.02"},{"name":"E5","midi":76,"time":"491.12","velocity":0.33858267716535434,"duration":"0.20"},{"name":"F#5","midi":78,"time":"491.12","velocity":0.33070866141732286,"duration":"0.09"},{"name":"A#2","midi":46,"time":"491.13","velocity":0.5118110236220472,"duration":"0.01"},{"name":"G6","midi":91,"time":"491.13","velocity":0.29133858267716534,"duration":"0.08"},{"name":"G#6","midi":92,"time":"491.13","velocity":0.28346456692913385,"duration":"0.08"},{"name":"B2","midi":47,"time":"491.14","velocity":0.49606299212598426,"duration":"0.02"},{"name":"D4","midi":62,"time":"491.15","velocity":0.3779527559055118,"duration":"0.03"},{"name":"A#2","midi":46,"time":"491.16","velocity":0.5196850393700787,"duration":"0.01"},{"name":"B2","midi":47,"time":"491.17","velocity":0.49606299212598426,"duration":"0.02"},{"name":"A4","midi":69,"time":"491.17","velocity":0.44881889763779526,"duration":"0.03"},{"name":"C6","midi":84,"time":"491.17","velocity":0.2677165354330709,"duration":"0.02"},{"name":"D6","midi":86,"time":"491.17","velocity":0.2677165354330709,"duration":"0.02"},{"name":"E6","midi":88,"time":"491.17","velocity":0.3937007874015748,"duration":"0.23"},{"name":"E4","midi":64,"time":"491.19","velocity":0.3464566929133858,"duration":"0.02"},{"name":"C7","midi":96,"time":"491.20","velocity":0.33070866141732286,"duration":"0.28"},{"name":"D4","midi":62,"time":"491.21","velocity":0.2283464566929134,"duration":"0.02"},{"name":"F#4","midi":66,"time":"491.21","velocity":0.30708661417322836,"duration":"0.03"},{"name":"D5","midi":74,"time":"491.22","velocity":0.25984251968503935,"duration":"0.03"},{"name":"G#5","midi":80,"time":"491.22","velocity":0.2047244094488189,"duration":"0.03"},{"name":"G#6","midi":92,"time":"491.22","velocity":0.28346456692913385,"duration":"0.09"},{"name":"B3","midi":59,"time":"491.23","velocity":0.4251968503937008,"duration":"0.03"},{"name":"C6","midi":84,"time":"491.23","velocity":0.25196850393700787,"duration":"0.02"},{"name":"F3","midi":53,"time":"491.24","velocity":0.4094488188976378,"duration":"0.02"},{"name":"A4","midi":69,"time":"491.24","velocity":0.5984251968503937,"duration":"0.22"},{"name":"C#5","midi":73,"time":"491.26","velocity":0.29133858267716534,"duration":"0.02"},{"name":"G6","midi":91,"time":"491.26","velocity":0.28346456692913385,"duration":"0.10"},{"name":"F#2","midi":42,"time":"491.27","velocity":0.4645669291338583,"duration":"0.02"},{"name":"F6","midi":89,"time":"491.27","velocity":0.33858267716535434,"duration":"0.06"},{"name":"B3","midi":59,"time":"491.28","velocity":0.3779527559055118,"duration":"0.05"},{"name":"G#5","midi":80,"time":"491.28","velocity":0.4409448818897638,"duration":"0.02"},{"name":"F4","midi":65,"time":"491.29","velocity":0.25196850393700787,"duration":"0.03"},{"name":"F#5","midi":78,"time":"491.29","velocity":0.29133858267716534,"duration":"0.05"},{"name":"G#2","midi":44,"time":"491.30","velocity":0.6456692913385826,"duration":"0.03"},{"name":"D#5","midi":75,"time":"491.30","velocity":0.3228346456692913,"duration":"0.03"},{"name":"D6","midi":86,"time":"491.30","velocity":0.33858267716535434,"duration":"0.10"},{"name":"A#6","midi":94,"time":"491.30","velocity":0.14173228346456693,"duration":"0.05"},{"name":"G3","midi":55,"time":"491.31","velocity":0.4409448818897638,"duration":"0.02"},{"name":"D4","midi":62,"time":"491.33","velocity":0.3858267716535433,"duration":"0.06"},{"name":"F#4","midi":66,"time":"491.33","velocity":0.3543307086614173,"duration":"0.03"},{"name":"C6","midi":84,"time":"491.33","velocity":0.2992125984251969,"duration":"0.02"},{"name":"F#2","midi":42,"time":"491.34","velocity":0.5984251968503937,"duration":"0.01"},{"name":"C#3","midi":49,"time":"491.34","velocity":0.5354330708661418,"duration":"0.01"},{"name":"B3","midi":59,"time":"491.34","velocity":0.30708661417322836,"duration":"0.03"},{"name":"F5","midi":77,"time":"491.34","velocity":0.3464566929133858,"duration":"0.06"},{"name":"G5","midi":79,"time":"491.34","velocity":0.2440944881889764,"duration":"0.02"},{"name":"G#6","midi":92,"time":"491.34","velocity":0.3543307086614173,"duration":"0.48"},{"name":"G2","midi":43,"time":"491.35","velocity":0.5196850393700787,"duration":"0.01"},{"name":"D3","midi":50,"time":"491.35","velocity":0.5433070866141733,"duration":"0.01"},{"name":"C#5","midi":73,"time":"491.35","velocity":0.3543307086614173,"duration":"0.02"},{"name":"D#5","midi":75,"time":"491.35","velocity":0.31496062992125984,"duration":"0.02"},{"name":"B1","midi":35,"time":"491.36","velocity":0.5590551181102362,"duration":"0.01"},{"name":"A#6","midi":94,"time":"491.36","velocity":0.33858267716535434,"duration":"0.06"},{"name":"F#1","midi":30,"time":"491.37","velocity":0.5511811023622047,"duration":"0.01"},{"name":"C4","midi":60,"time":"491.37","velocity":0.3543307086614173,"duration":"0.02"},{"name":"B4","midi":71,"time":"491.37","velocity":0.4251968503937008,"duration":"0.02"},{"name":"D5","midi":74,"time":"491.37","velocity":0.4094488188976378,"duration":"0.03"},{"name":"F#2","midi":42,"time":"491.38","velocity":0.5118110236220472,"duration":"0.01"},{"name":"C6","midi":84,"time":"491.38","velocity":0.25984251968503935,"duration":"0.02"},{"name":"D#6","midi":87,"time":"491.38","velocity":0.30708661417322836,"duration":"0.03"},{"name":"E2","midi":40,"time":"491.40","velocity":0.5511811023622047,"duration":"0.01"},{"name":"B3","midi":59,"time":"491.40","velocity":0.4094488188976378,"duration":"0.10"},{"name":"E4","midi":64,"time":"491.40","velocity":0.3937007874015748,"duration":"0.02"},{"name":"C5","midi":72,"time":"491.40","velocity":0.3700787401574803,"duration":"0.05"},{"name":"D#5","midi":75,"time":"491.40","velocity":0.33858267716535434,"duration":"0.02"},{"name":"F#5","midi":78,"time":"491.40","velocity":0.33070866141732286,"duration":"0.06"},{"name":"G6","midi":91,"time":"491.40","velocity":0.28346456692913385,"duration":"0.09"},{"name":"C#6","midi":85,"time":"491.41","velocity":0.3779527559055118,"duration":"0.06"},{"name":"F#2","midi":42,"time":"491.42","velocity":0.5118110236220472,"duration":"0.01"},{"name":"F#4","midi":66,"time":"491.42","velocity":0.3779527559055118,"duration":"0.05"},{"name":"E5","midi":76,"time":"491.42","velocity":0.47244094488188976,"duration":"0.10"},{"name":"E6","midi":88,"time":"491.42","velocity":0.5039370078740157,"duration":"0.69"},{"name":"B5","midi":83,"time":"491.43","velocity":0.3858267716535433,"duration":"0.28"},{"name":"D6","midi":86,"time":"491.43","velocity":0.33858267716535434,"duration":"0.06"},{"name":"A#6","midi":94,"time":"491.43","velocity":0.2755905511811024,"duration":"0.05"},{"name":"C#5","midi":73,"time":"491.44","velocity":0.31496062992125984,"duration":"0.03"},{"name":"D#7","midi":99,"time":"491.45","velocity":0.29133858267716534,"duration":"0.48"},{"name":"A2","midi":45,"time":"491.47","velocity":0.5118110236220472,"duration":"0.02"},{"name":"E4","midi":64,"time":"491.47","velocity":0.41732283464566927,"duration":"0.09"},{"name":"A#4","midi":70,"time":"491.47","velocity":0.33070866141732286,"duration":"0.02"},{"name":"F1","midi":29,"time":"491.48","velocity":0.3858267716535433,"duration":"0.02"},{"name":"F#3","midi":54,"time":"491.48","velocity":0.4015748031496063,"duration":"0.02"},{"name":"C5","midi":72,"time":"491.48","velocity":0.30708661417322836,"duration":"0.02"},{"name":"A5","midi":81,"time":"491.48","velocity":0.7007874015748031,"duration":"0.30"},{"name":"C#6","midi":85,"time":"491.48","velocity":0.25196850393700787,"duration":"0.03"},{"name":"D#6","midi":87,"time":"491.48","velocity":0.2047244094488189,"duration":"0.03"},{"name":"C#7","midi":97,"time":"491.48","velocity":0.4251968503937008,"duration":"0.90"},{"name":"A4","midi":69,"time":"491.49","velocity":0.5590551181102362,"duration":"0.20"},{"name":"B4","midi":71,"time":"491.49","velocity":0.4409448818897638,"duration":"0.27"},{"name":"G#5","midi":80,"time":"491.49","velocity":0.23622047244094488,"duration":"0.02"},{"name":"F#6","midi":90,"time":"491.49","velocity":0.2677165354330709,"duration":"0.05"},{"name":"A#6","midi":94,"time":"491.49","velocity":0.33070866141732286,"duration":"0.47"},{"name":"C7","midi":96,"time":"491.49","velocity":0.3228346456692913,"duration":"0.28"},{"name":"F#5","midi":78,"time":"491.50","velocity":0.3700787401574803,"duration":"0.12"},{"name":"C4","midi":60,"time":"491.51","velocity":0.25984251968503935,"duration":"0.02"},{"name":"G6","midi":91,"time":"491.51","velocity":0.1889763779527559,"duration":"0.03"},{"name":"C#6","midi":85,"time":"491.52","velocity":0.28346456692913385,"duration":"0.06"},{"name":"D#6","midi":87,"time":"491.52","velocity":0.2283464566929134,"duration":"0.05"},{"name":"F6","midi":89,"time":"491.52","velocity":0.2440944881889764,"duration":"0.02"},{"name":"G2","midi":43,"time":"491.53","velocity":0.49606299212598426,"duration":"0.02"},{"name":"D5","midi":74,"time":"491.53","velocity":0.2283464566929134,"duration":"0.05"},{"name":"E5","midi":76,"time":"491.53","velocity":0.5354330708661418,"duration":"0.49"},{"name":"C4","midi":60,"time":"491.55","velocity":0.2677165354330709,"duration":"0.02"},{"name":"F3","midi":53,"time":"491.57","velocity":0.29133858267716534,"duration":"0.05"},{"name":"C#4","midi":61,"time":"491.57","velocity":0.33070866141732286,"duration":"0.02"},{"name":"E4","midi":64,"time":"491.57","velocity":0.33858267716535434,"duration":"0.02"},{"name":"C6","midi":84,"time":"491.57","velocity":0.25984251968503935,"duration":"0.03"},{"name":"G#5","midi":80,"time":"491.59","velocity":0.2283464566929134,"duration":"0.02"},{"name":"C#6","midi":85,"time":"491.59","velocity":0.25984251968503935,"duration":"0.09"},{"name":"G6","midi":91,"time":"491.59","velocity":0.2283464566929134,"duration":"0.10"},{"name":"F#2","midi":42,"time":"491.60","velocity":0.5275590551181102,"duration":"0.08"},{"name":"B3","midi":59,"time":"491.60","velocity":0.3543307086614173,"duration":"0.08"},{"name":"E4","midi":64,"time":"491.60","velocity":0.3779527559055118,"duration":"0.06"},{"name":"F6","midi":89,"time":"491.60","velocity":0.36220472440944884,"duration":"0.10"},{"name":"C#5","midi":73,"time":"491.62","velocity":0.2125984251968504,"duration":"0.06"},{"name":"F5","midi":77,"time":"491.62","velocity":0.36220472440944884,"duration":"0.02"},{"name":"G5","midi":79,"time":"491.62","velocity":0.16535433070866143,"duration":"0.03"},{"name":"C6","midi":84,"time":"491.62","velocity":0.14173228346456693,"duration":"0.03"},{"name":"D#6","midi":87,"time":"491.63","velocity":0.15748031496062992,"duration":"0.03"},{"name":"D6","midi":86,"time":"491.64","velocity":0.25196850393700787,"duration":"0.06"},{"name":"E2","midi":40,"time":"491.69","velocity":0.6220472440944882,"duration":"0.02"},{"name":"G#4","midi":68,"time":"491.69","velocity":0.3700787401574803,"duration":"0.03"},{"name":"G5","midi":79,"time":"491.69","velocity":0.2440944881889764,"duration":"0.03"},{"name":"F#4","midi":66,"time":"491.70","velocity":0.28346456692913385,"duration":"0.02"},{"name":"D5","midi":74,"time":"491.70","velocity":0.2992125984251969,"duration":"0.03"},{"name":"C6","midi":84,"time":"491.70","velocity":0.1968503937007874,"duration":"0.03"},{"name":"C#6","midi":85,"time":"491.70","velocity":0.3228346456692913,"duration":"0.10"},{"name":"F#6","midi":90,"time":"491.70","velocity":0.31496062992125984,"duration":"0.24"},{"name":"F2","midi":41,"time":"491.71","velocity":0.6456692913385826,"duration":"0.05"},{"name":"E4","midi":64,"time":"491.71","velocity":0.4566929133858268,"duration":"0.05"},{"name":"E3","midi":52,"time":"491.72","velocity":0.4251968503937008,"duration":"0.02"},{"name":"D#6","midi":87,"time":"491.72","velocity":0.2283464566929134,"duration":"0.12"},{"name":"F6","midi":89,"time":"491.72","velocity":0.23622047244094488,"duration":"0.05"},{"name":"C#4","midi":61,"time":"491.73","velocity":0.25984251968503935,"duration":"0.02"},{"name":"A4","midi":69,"time":"491.73","velocity":0.5984251968503937,"duration":"0.38"},{"name":"C#5","midi":73,"time":"491.73","velocity":0.29133858267716534,"duration":"0.03"},{"name":"F5","midi":77,"time":"491.74","velocity":0.29133858267716534,"duration":"0.02"},{"name":"F#3","midi":54,"time":"491.76","velocity":0.4094488188976378,"duration":"0.02"},{"name":"D#4","midi":63,"time":"491.76","velocity":0.3543307086614173,"duration":"0.02"},{"name":"F4","midi":65,"time":"491.76","velocity":0.3937007874015748,"duration":"0.02"},{"name":"G#5","midi":80,"time":"491.76","velocity":0.4330708661417323,"duration":"0.03"},{"name":"D6","midi":86,"time":"491.76","velocity":0.31496062992125984,"duration":"0.13"},{"name":"E2","midi":40,"time":"491.77","velocity":0.5433070866141733,"duration":"0.01"},{"name":"G1","midi":31,"time":"491.78","velocity":0.5275590551181102,"duration":"0.01"},{"name":"F#2","midi":42,"time":"491.78","velocity":0.5118110236220472,"duration":"0.01"},{"name":"E4","midi":64,"time":"491.78","velocity":0.4645669291338583,"duration":"0.05"},{"name":"B4","midi":71,"time":"491.78","velocity":0.23622047244094488,"duration":"0.02"},{"name":"F6","midi":89,"time":"491.78","velocity":0.29133858267716534,"duration":"0.03"},{"name":"C7","midi":96,"time":"491.78","velocity":0.31496062992125984,"duration":"0.08"},{"name":"F#3","midi":54,"time":"491.79","velocity":0.3700787401574803,"duration":"0.02"},{"name":"A5","midi":81,"time":"491.79","velocity":0.6929133858267716,"duration":"0.38"},{"name":"F#5","midi":78,"time":"491.80","velocity":0.3858267716535433,"duration":"0.13"},{"name":"G6","midi":91,"time":"491.80","velocity":0.2283464566929134,"duration":"0.08"},{"name":"B2","midi":47,"time":"491.81","velocity":0.5118110236220472,"duration":"0.03"},{"name":"D5","midi":74,"time":"491.81","velocity":0.25196850393700787,"duration":"0.02"},{"name":"F#3","midi":54,"time":"491.83","velocity":0.4015748031496063,"duration":"0.05"},{"name":"C#6","midi":85,"time":"491.83","velocity":0.1889763779527559,"duration":"0.05"},{"name":"G#6","midi":92,"time":"491.83","velocity":0.2440944881889764,"duration":"0.03"},{"name":"D4","midi":62,"time":"491.84","velocity":0.30708661417322836,"duration":"0.02"},{"name":"B4","midi":71,"time":"491.84","velocity":0.3228346456692913,"duration":"0.06"},{"name":"C#5","midi":73,"time":"491.84","velocity":0.25984251968503935,"duration":"0.02"},{"name":"A2","midi":45,"time":"491.85","velocity":0.5118110236220472,"duration":"0.01"},{"name":"G7","midi":103,"time":"491.85","velocity":0.2283464566929134,"duration":"0.36"},{"name":"D5","midi":74,"time":"491.86","velocity":0.30708661417322836,"duration":"0.02"},{"name":"C6","midi":84,"time":"491.87","velocity":0.12598425196850394,"duration":"0.03"},{"name":"C7","midi":96,"time":"491.87","velocity":0.31496062992125984,"duration":"0.21"},{"name":"D4","midi":62,"time":"491.88","velocity":0.3779527559055118,"duration":"0.03"},{"name":"C#5","midi":73,"time":"491.88","velocity":0.25984251968503935,"duration":"0.02"},{"name":"G#6","midi":92,"time":"491.88","velocity":0.47244094488188976,"duration":"2.47"},{"name":"B5","midi":83,"time":"491.90","velocity":0.2204724409448819,"duration":"0.05"},{"name":"B4","midi":71,"time":"491.91","velocity":0.2047244094488189,"duration":"0.07"},{"name":"G6","midi":91,"time":"491.91","velocity":0.16535433070866143,"duration":"0.07"},{"name":"D#4","midi":63,"time":"491.92","velocity":0.3858267716535433,"duration":"0.02"},{"name":"F#4","midi":66,"time":"491.92","velocity":0.3858267716535433,"duration":"0.03"},{"name":"F2","midi":41,"time":"491.93","velocity":0.3464566929133858,"duration":"0.02"},{"name":"D6","midi":86,"time":"491.93","velocity":0.25196850393700787,"duration":"0.05"},{"name":"D#6","midi":87,"time":"491.93","velocity":0.2125984251968504,"duration":"0.03"},{"name":"E4","midi":64,"time":"491.94","velocity":0.3858267716535433,"duration":"0.05"},{"name":"C#6","midi":85,"time":"491.94","velocity":0.30708661417322836,"duration":"0.14"},{"name":"D#7","midi":99,"time":"491.94","velocity":0.4881889763779528,"duration":"2.88"},{"name":"F6","midi":89,"time":"491.95","velocity":0.2204724409448819,"duration":"0.07"},{"name":"A#3","midi":58,"time":"491.97","velocity":0.3858267716535433,"duration":"0.02"},{"name":"B5","midi":83,"time":"491.97","velocity":0.4330708661417323,"duration":"0.24"},{"name":"A#6","midi":94,"time":"491.97","velocity":0.2755905511811024,"duration":"0.15"},{"name":"F3","midi":53,"time":"491.98","velocity":0.3543307086614173,"duration":"0.02"},{"name":"F#2","midi":42,"time":"491.99","velocity":0.41732283464566927,"duration":"0.02"},{"name":"F#4","midi":66,"time":"491.99","velocity":0.33858267716535434,"duration":"0.06"},{"name":"D6","midi":86,"time":"491.99","velocity":0.33070866141732286,"duration":"0.07"},{"name":"D4","midi":62,"time":"492.00","velocity":0.3464566929133858,"duration":"0.02"},{"name":"F5","midi":77,"time":"492.00","velocity":0.2992125984251969,"duration":"0.02"},{"name":"D#6","midi":87,"time":"492.00","velocity":0.36220472440944884,"duration":"0.12"},{"name":"G6","midi":91,"time":"492.00","velocity":0.33858267716535434,"duration":"0.28"},{"name":"F#3","midi":54,"time":"492.01","velocity":0.3858267716535433,"duration":"0.02"},{"name":"B3","midi":59,"time":"492.01","velocity":0.31496062992125984,"duration":"0.03"},{"name":"C#5","midi":73,"time":"492.01","velocity":0.2047244094488189,"duration":"0.03"},{"name":"F4","midi":65,"time":"492.03","velocity":0.4330708661417323,"duration":"0.02"},{"name":"E5","midi":76,"time":"492.03","velocity":0.4566929133858268,"duration":"0.12"},{"name":"G#2","midi":44,"time":"492.05","velocity":0.5590551181102362,"duration":"0.01"},{"name":"G3","midi":55,"time":"492.05","velocity":0.41732283464566927,"duration":"0.02"},{"name":"F2","midi":41,"time":"492.06","velocity":0.5118110236220472,"duration":"0.05"},{"name":"G5","midi":79,"time":"492.06","velocity":0.3464566929133858,"duration":"0.05"},{"name":"C6","midi":84,"time":"492.06","velocity":0.31496062992125984,"duration":"0.03"},{"name":"C4","midi":60,"time":"492.07","velocity":0.5039370078740157,"duration":"0.03"},{"name":"F#4","midi":66,"time":"492.07","velocity":0.3858267716535433,"duration":"0.05"},{"name":"D5","midi":74,"time":"492.07","velocity":0.47244094488188976,"duration":"0.12"},{"name":"C#6","midi":85,"time":"492.09","velocity":0.2440944881889764,"duration":"0.02"},{"name":"C7","midi":96,"time":"492.09","velocity":0.4094488188976378,"duration":"1.95"},{"name":"C3","midi":48,"time":"492.10","velocity":0.5196850393700787,"duration":"0.02"},{"name":"G#4","midi":68,"time":"492.10","velocity":0.5196850393700787,"duration":"0.02"},{"name":"C5","midi":72,"time":"492.10","velocity":0.2992125984251969,"duration":"0.05"},{"name":"F6","midi":89,"time":"492.10","velocity":0.2677165354330709,"duration":"0.10"},{"name":"D6","midi":86,"time":"492.12","velocity":0.48031496062992124,"duration":"0.29"},{"name":"A#3","midi":58,"time":"492.13","velocity":0.44881889763779526,"duration":"0.02"},{"name":"A4","midi":69,"time":"492.13","velocity":0.6141732283464567,"duration":"0.03"},{"name":"C#6","midi":85,"time":"492.13","velocity":0.25984251968503935,"duration":"0.03"},{"name":"D#6","midi":87,"time":"492.13","velocity":0.47244094488188976,"duration":"0.35"},{"name":"C#3","midi":49,"time":"492.15","velocity":0.4251968503937008,"duration":"0.02"},{"name":"A3","midi":57,"time":"492.15","velocity":0.4881889763779528,"duration":"0.10"},{"name":"G#4","midi":68,"time":"492.15","velocity":0.5669291338582677,"duration":"0.02"},{"name":"D4","midi":62,"time":"492.16","velocity":0.4251968503937008,"duration":"0.03"},{"name":"G#5","midi":80,"time":"492.16","velocity":0.5748031496062992,"duration":"0.37"},{"name":"A#6","midi":94,"time":"492.16","velocity":0.29133858267716534,"duration":"0.20"},{"name":"A4","midi":69,"time":"492.17","velocity":0.6141732283464567,"duration":"0.01"},{"name":"D#5","midi":75,"time":"492.17","velocity":0.36220472440944884,"duration":"0.03"},{"name":"F5","midi":77,"time":"492.17","velocity":0.2677165354330709,"duration":"0.02"},{"name":"G#2","midi":44,"time":"492.19","velocity":0.48031496062992124,"duration":"0.02"},{"name":"G#4","midi":68,"time":"492.19","velocity":0.6299212598425197,"duration":"0.03"},{"name":"B4","midi":71,"time":"492.20","velocity":0.3700787401574803,"duration":"0.02"},{"name":"E5","midi":76,"time":"492.20","velocity":0.4094488188976378,"duration":"0.15"},{"name":"B2","midi":47,"time":"492.21","velocity":0.4881889763779528,"duration":"0.02"},{"name":"D5","midi":74,"time":"492.21","velocity":0.4409448818897638,"duration":"0.08"},{"name":"F#5","midi":78,"time":"492.21","velocity":0.2283464566929134,"duration":"0.03"},{"name":"A5","midi":81,"time":"492.21","velocity":0.48031496062992124,"duration":"0.08"},{"name":"C6","midi":84,"time":"492.21","velocity":0.31496062992125984,"duration":"0.03"},{"name":"A4","midi":69,"time":"492.22","velocity":0.5905511811023622,"duration":"0.02"},{"name":"B5","midi":83,"time":"492.22","velocity":0.4015748031496063,"duration":"0.16"},{"name":"C#6","midi":85,"time":"492.22","velocity":0.29133858267716534,"duration":"0.08"},{"name":"F6","midi":89,"time":"492.22","velocity":0.25984251968503935,"duration":"0.09"},{"name":"C3","midi":48,"time":"492.23","velocity":0.5118110236220472,"duration":"0.02"},{"name":"G#4","midi":68,"time":"492.23","velocity":0.5118110236220472,"duration":"0.01"},{"name":"B4","midi":71,"time":"492.23","velocity":0.3464566929133858,"duration":"0.07"},{"name":"G4","midi":67,"time":"492.24","velocity":0.5118110236220472,"duration":"0.01"},{"name":"A2","midi":45,"time":"492.26","velocity":0.5039370078740157,"duration":"0.02"},{"name":"A#3","midi":58,"time":"492.26","velocity":0.3779527559055118,"duration":"0.03"},{"name":"G#4","midi":68,"time":"492.26","velocity":0.5826771653543307,"duration":"0.01"},{"name":"E4","midi":64,"time":"492.27","velocity":0.29133858267716534,"duration":"0.06"},{"name":"A4","midi":69,"time":"492.27","velocity":0.5669291338582677,"duration":"0.05"},{"name":"F#5","midi":78,"time":"492.27","velocity":0.30708661417322836,"duration":"0.10"},{"name":"B2","midi":47,"time":"492.28","velocity":0.5354330708661418,"duration":"0.01"},{"name":"F#4","midi":66,"time":"492.28","velocity":0.3543307086614173,"duration":"0.02"},{"name":"A2","midi":45,"time":"492.29","velocity":0.5196850393700787,"duration":"0.01"},{"name":"D#5","midi":75,"time":"492.29","velocity":0.3779527559055118,"duration":"0.02"},{"name":"G6","midi":91,"time":"492.30","velocity":0.29133858267716534,"duration":"0.09"},{"name":"A3","midi":57,"time":"492.31","velocity":0.4409448818897638,"duration":"0.02"},{"name":"G#4","midi":68,"time":"492.31","velocity":0.3464566929133858,"duration":"0.02"},{"name":"D5","midi":74,"time":"492.31","velocity":0.3937007874015748,"duration":"0.02"},{"name":"F4","midi":65,"time":"492.33","velocity":0.30708661417322836,"duration":"0.02"},{"name":"B4","midi":71,"time":"492.33","velocity":0.29133858267716534,"duration":"0.03"},{"name":"A5","midi":81,"time":"492.33","velocity":0.4251968503937008,"duration":"0.02"},{"name":"A4","midi":69,"time":"492.34","velocity":0.4094488188976378,"duration":"0.02"},{"name":"B2","midi":47,"time":"492.35","velocity":0.5433070866141733,"duration":"0.01"},{"name":"A#3","midi":58,"time":"492.35","velocity":0.3858267716535433,"duration":"0.02"},{"name":"D5","midi":74,"time":"492.35","velocity":0.47244094488188976,"duration":"0.15"},{"name":"E6","midi":88,"time":"492.35","velocity":0.3543307086614173,"duration":"0.08"},{"name":"F#6","midi":90,"time":"492.35","velocity":0.33070866141732286,"duration":"0.03"},{"name":"A2","midi":45,"time":"492.36","velocity":0.5590551181102362,"duration":"0.01"},{"name":"G#4","midi":68,"time":"492.36","velocity":0.5826771653543307,"duration":"0.20"},{"name":"C5","midi":72,"time":"492.36","velocity":0.2992125984251969,"duration":"0.02"},{"name":"F5","midi":77,"time":"492.36","velocity":0.2755905511811024,"duration":"0.05"},{"name":"C#6","midi":85,"time":"492.36","velocity":0.28346456692913385,"duration":"0.02"},{"name":"G3","midi":55,"time":"492.37","velocity":0.4566929133858268,"duration":"0.02"},{"name":"E4","midi":64,"time":"492.37","velocity":0.36220472440944884,"duration":"0.09"},{"name":"A#6","midi":94,"time":"492.37","velocity":0.33858267716535434,"duration":"0.24"},{"name":"F#5","midi":78,"time":"492.38","velocity":0.33070866141732286,"duration":"0.19"},{"name":"C6","midi":84,"time":"492.38","velocity":0.28346456692913385,"duration":"0.07"},{"name":"C#7","midi":97,"time":"492.38","velocity":0.49606299212598426,"duration":"1.72"},{"name":"F#6","midi":90,"time":"492.40","velocity":0.3543307086614173,"duration":"0.28"},{"name":"F3","midi":53,"time":"492.41","velocity":0.47244094488188976,"duration":"0.03"},{"name":"A5","midi":81,"time":"492.42","velocity":0.4409448818897638,"duration":"0.03"},{"name":"B5","midi":83,"time":"492.42","velocity":0.29133858267716534,"duration":"0.12"},{"name":"D6","midi":86,"time":"492.42","velocity":0.47244094488188976,"duration":"0.41"},{"name":"G2","midi":43,"time":"492.43","velocity":0.5196850393700787,"duration":"0.01"},{"name":"C4","midi":60,"time":"492.43","velocity":0.4015748031496063,"duration":"0.02"},{"name":"C#6","midi":85,"time":"492.43","velocity":0.25984251968503935,"duration":"0.05"},{"name":"G6","midi":91,"time":"492.43","velocity":0.2283464566929134,"duration":"0.05"},{"name":"F6","midi":89,"time":"492.44","velocity":0.15748031496062992,"duration":"0.05"},{"name":"D3","midi":50,"time":"492.45","velocity":0.5118110236220472,"duration":"0.01"},{"name":"F#2","midi":42,"time":"492.47","velocity":0.4645669291338583,"duration":"0.03"},{"name":"G#3","midi":56,"time":"492.47","velocity":0.4251968503937008,"duration":"0.03"},{"name":"C5","midi":72,"time":"492.47","velocity":0.2047244094488189,"duration":"0.05"},{"name":"A5","midi":81,"time":"492.47","velocity":0.5039370078740157,"duration":"0.09"},{"name":"E6","midi":88,"time":"492.47","velocity":0.4094488188976378,"duration":"0.37"},{"name":"C4","midi":60,"time":"492.49","velocity":0.23622047244094488,"duration":"0.02"},{"name":"A#5","midi":82,"time":"492.49","velocity":0.30708661417322836,"duration":"0.02"},{"name":"D#6","midi":87,"time":"492.49","velocity":0.4566929133858268,"duration":"0.41"},{"name":"D#3","midi":51,"time":"492.50","velocity":0.4094488188976378,"duration":"0.02"},{"name":"F4","midi":65,"time":"492.50","velocity":0.29133858267716534,"duration":"0.02"},{"name":"D#5","midi":75,"time":"492.50","velocity":0.3700787401574803,"duration":"0.03"},{"name":"F#2","midi":42,"time":"492.51","velocity":0.5354330708661418,"duration":"0.02"},{"name":"C6","midi":84,"time":"492.51","velocity":0.2283464566929134,"duration":"0.06"},{"name":"F6","midi":89,"time":"492.51","velocity":0.2283464566929134,"duration":"0.02"},{"name":"G6","midi":91,"time":"492.51","velocity":0.33858267716535434,"duration":"0.22"},{"name":"D4","midi":62,"time":"492.52","velocity":0.4330708661417323,"duration":"0.07"},{"name":"C#6","midi":85,"time":"492.52","velocity":0.2992125984251969,"duration":"0.13"},{"name":"F2","midi":41,"time":"492.53","velocity":0.5118110236220472,"duration":"0.05"},{"name":"B4","midi":71,"time":"492.53","velocity":0.2125984251968504,"duration":"0.03"},{"name":"D5","midi":74,"time":"492.53","velocity":0.47244094488188976,"duration":"0.03"},{"name":"G#5","midi":80,"time":"492.55","velocity":0.6377952755905512,"duration":"0.86"},{"name":"B5","midi":83,"time":"492.55","velocity":0.36220472440944884,"duration":"0.42"},{"name":"E3","midi":52,"time":"492.56","velocity":0.3937007874015748,"duration":"0.02"},{"name":"G4","midi":67,"time":"492.56","velocity":0.3464566929133858,"duration":"0.02"},{"name":"A4","midi":69,"time":"492.56","velocity":0.2440944881889764,"duration":"0.02"},{"name":"E5","midi":76,"time":"492.56","velocity":0.29133858267716534,"duration":"0.02"},{"name":"F6","midi":89,"time":"492.57","velocity":0.28346456692913385,"duration":"0.06"},{"name":"A3","midi":57,"time":"492.58","velocity":0.31496062992125984,"duration":"0.02"},{"name":"F#4","midi":66,"time":"492.58","velocity":0.41732283464566927,"duration":"0.05"},{"name":"B4","midi":71,"time":"492.58","velocity":0.2992125984251969,"duration":"0.03"},{"name":"D5","midi":74,"time":"492.58","velocity":0.5590551181102362,"duration":"0.17"},{"name":"F5","midi":77,"time":"492.59","velocity":0.2440944881889764,"duration":"0.06"},{"name":"A4","midi":69,"time":"492.60","velocity":0.5039370078740157,"duration":"0.06"},{"name":"A2","midi":45,"time":"492.62","velocity":0.5275590551181102,"duration":"0.01"},{"name":"A#3","midi":58,"time":"492.62","velocity":0.25984251968503935,"duration":"0.02"},{"name":"A#6","midi":94,"time":"492.63","velocity":0.28346456692913385,"duration":"0.08"},{"name":"B2","midi":47,"time":"492.64","velocity":0.5118110236220472,"duration":"0.01"},{"name":"A3","midi":57,"time":"492.64","velocity":0.2992125984251969,"duration":"0.02"},{"name":"D#4","midi":63,"time":"492.64","velocity":0.36220472440944884,"duration":"0.02"},{"name":"F#5","midi":78,"time":"492.64","velocity":0.2755905511811024,"duration":"0.02"},{"name":"C3","midi":48,"time":"492.65","velocity":0.4881889763779528,"duration":"0.02"},{"name":"D4","midi":62,"time":"492.65","velocity":0.29133858267716534,"duration":"0.03"},{"name":"G#4","midi":68,"time":"492.65","velocity":0.48031496062992124,"duration":"0.02"},{"name":"F6","midi":89,"time":"492.65","velocity":0.25196850393700787,"duration":"0.06"},{"name":"G#3","midi":56,"time":"492.66","velocity":0.3228346456692913,"duration":"0.02"},{"name":"B4","midi":71,"time":"492.66","velocity":0.3779527559055118,"duration":"0.14"},{"name":"E5","midi":76,"time":"492.66","velocity":0.25196850393700787,"duration":"0.02"},{"name":"A4","midi":69,"time":"492.67","velocity":0.5748031496062992,"duration":"0.03"},{"name":"G3","midi":55,"time":"492.69","velocity":0.3543307086614173,"duration":"0.02"},{"name":"E4","midi":64,"time":"492.69","velocity":0.3700787401574803,"duration":"0.13"},{"name":"C#6","midi":85,"time":"492.69","velocity":0.25196850393700787,"duration":"0.07"},{"name":"F2","midi":41,"time":"492.70","velocity":0.4566929133858268,"duration":"0.03"},{"name":"G#4","midi":68,"time":"492.70","velocity":0.5118110236220472,"duration":"0.05"},{"name":"F#6","midi":90,"time":"492.70","velocity":0.2755905511811024,"duration":"0.08"},{"name":"D4","midi":62,"time":"492.71","velocity":0.36220472440944884,"duration":"0.02"},{"name":"F5","midi":77,"time":"492.72","velocity":0.25196850393700787,"duration":"0.02"},{"name":"F6","midi":89,"time":"492.72","velocity":0.28346456692913385,"duration":"0.06"},{"name":"A#6","midi":94,"time":"492.72","velocity":0.2992125984251969,"duration":"0.12"},{"name":"F#5","midi":78,"time":"492.74","velocity":0.23622047244094488,"duration":"0.05"},{"name":"A5","midi":81,"time":"492.74","velocity":0.5118110236220472,"duration":"0.07"},{"name":"C3","midi":48,"time":"492.76","velocity":0.5511811023622047,"duration":"0.03"},{"name":"A4","midi":69,"time":"492.76","velocity":0.5669291338582677,"duration":"0.03"},{"name":"G6","midi":91,"time":"492.76","velocity":0.3228346456692913,"duration":"0.08"},{"name":"D5","midi":74,"time":"492.77","velocity":0.49606299212598426,"duration":"0.07"},{"name":"C#6","midi":85,"time":"492.77","velocity":0.3700787401574803,"duration":"0.13"},{"name":"F7","midi":101,"time":"492.77","velocity":0.41732283464566927,"duration":"1.20"},{"name":"B2","midi":47,"time":"492.79","velocity":0.5669291338582677,"duration":"0.01"},{"name":"A2","midi":45,"time":"492.80","velocity":0.6220472440944882,"duration":"0.03"},{"name":"G#3","midi":56,"time":"492.80","velocity":0.4566929133858268,"duration":"0.08"},{"name":"A4","midi":69,"time":"492.80","velocity":0.4409448818897638,"duration":"0.08"},{"name":"C5","midi":72,"time":"492.80","velocity":0.31496062992125984,"duration":"0.02"},{"name":"F#4","midi":66,"time":"492.81","velocity":0.33858267716535434,"duration":"0.02"},{"name":"E5","midi":76,"time":"492.81","velocity":0.3779527559055118,"duration":"0.06"},{"name":"F6","midi":89,"time":"492.81","velocity":0.2283464566929134,"duration":"0.08"},{"name":"F#2","midi":42,"time":"492.84","velocity":0.5984251968503937,"duration":"0.02"},{"name":"E4","midi":64,"time":"492.84","velocity":0.3543307086614173,"duration":"0.03"},{"name":"C#5","midi":73,"time":"492.84","velocity":0.4566929133858268,"duration":"0.05"},{"name":"D#5","midi":75,"time":"492.85","velocity":0.33070866141732286,"duration":"0.03"},{"name":"A#5","midi":82,"time":"492.85","velocity":0.28346456692913385,"duration":"0.02"},{"name":"D6","midi":86,"time":"492.85","velocity":0.3700787401574803,"duration":"0.23"},{"name":"G6","midi":91,"time":"492.85","velocity":0.28346456692913385,"duration":"0.09"},{"name":"A6","midi":93,"time":"492.85","velocity":0.3464566929133858,"duration":"0.13"},{"name":"G#4","midi":68,"time":"492.87","velocity":0.5275590551181102,"duration":"0.36"},{"name":"D5","midi":74,"time":"492.87","velocity":0.47244094488188976,"duration":"0.02"},{"name":"F5","midi":77,"time":"492.87","velocity":0.28346456692913385,"duration":"0.06"},{"name":"F#5","midi":78,"time":"492.88","velocity":0.28346456692913385,"duration":"0.02"},{"name":"C6","midi":84,"time":"492.88","velocity":0.2283464566929134,"duration":"0.03"},{"name":"E6","midi":88,"time":"492.88","velocity":0.3779527559055118,"duration":"0.16"},{"name":"C#4","midi":61,"time":"492.90","velocity":0.3937007874015748,"duration":"0.06"},{"name":"C#5","midi":73,"time":"492.90","velocity":0.4881889763779528,"duration":"0.23"},{"name":"D#5","midi":75,"time":"492.90","velocity":0.30708661417322836,"duration":"0.02"},{"name":"B1","midi":35,"time":"492.91","velocity":0.48031496062992124,"duration":"0.03"},{"name":"G#3","midi":56,"time":"492.91","velocity":0.47244094488188976,"duration":"0.27"},{"name":"D#6","midi":87,"time":"492.91","velocity":0.4645669291338583,"duration":"0.29"},{"name":"F4","midi":65,"time":"492.92","velocity":0.33070866141732286,"duration":"0.02"},{"name":"F#5","midi":78,"time":"492.92","velocity":0.18110236220472442,"duration":"0.03"},{"name":"A#6","midi":94,"time":"492.92","velocity":0.2677165354330709,"duration":"0.21"},{"name":"E4","midi":64,"time":"492.94","velocity":0.3464566929133858,"duration":"0.02"},{"name":"D#5","midi":75,"time":"492.94","velocity":0.23622047244094488,"duration":"0.02"},{"name":"F5","midi":77,"time":"492.94","velocity":0.28346456692913385,"duration":"0.02"},{"name":"A#5","midi":82,"time":"492.94","velocity":0.2440944881889764,"duration":"0.03"},{"name":"G6","midi":91,"time":"492.95","velocity":0.31496062992125984,"duration":"0.14"},{"name":"C4","midi":60,"time":"492.97","velocity":0.33070866141732286,"duration":"0.02"},{"name":"B4","midi":71,"time":"492.97","velocity":0.36220472440944884,"duration":"0.05"},{"name":"F#5","midi":78,"time":"492.97","velocity":0.29133858267716534,"duration":"0.07"},{"name":"C3","midi":48,"time":"492.98","velocity":0.4409448818897638,"duration":"0.02"},{"name":"F6","midi":89,"time":"492.98","velocity":0.3228346456692913,"duration":"0.33"},{"name":"C#4","midi":61,"time":"492.99","velocity":0.3464566929133858,"duration":"0.02"},{"name":"A6","midi":93,"time":"492.99","velocity":0.33070866141732286,"duration":"0.56"},{"name":"E5","midi":76,"time":"493.00","velocity":0.29133858267716534,"duration":"0.12"},{"name":"C6","midi":84,"time":"493.01","velocity":0.23622047244094488,"duration":"0.02"},{"name":"F1","midi":29,"time":"493.03","velocity":0.33070866141732286,"duration":"0.02"},{"name":"D3","midi":50,"time":"493.03","velocity":0.4881889763779528,"duration":"0.02"},{"name":"B4","midi":71,"time":"493.06","velocity":0.31496062992125984,"duration":"0.03"},{"name":"F#5","midi":78,"time":"493.06","velocity":0.2047244094488189,"duration":"0.07"},{"name":"C#6","midi":85,"time":"493.06","velocity":0.5118110236220472,"duration":"0.17"},{"name":"F#6","midi":90,"time":"493.06","velocity":0.30708661417322836,"duration":"0.16"},{"name":"C#4","midi":61,"time":"493.07","velocity":0.30708661417322836,"duration":"0.02"},{"name":"F4","midi":65,"time":"493.07","velocity":0.33858267716535434,"duration":"0.02"},{"name":"C#3","midi":49,"time":"493.08","velocity":0.49606299212598426,"duration":"0.03"},{"name":"B5","midi":83,"time":"493.09","velocity":0.2677165354330709,"duration":"0.13"},{"name":"E4","midi":64,"time":"493.10","velocity":0.36220472440944884,"duration":"0.03"},{"name":"D#5","midi":75,"time":"493.10","velocity":0.30708661417322836,"duration":"0.05"},{"name":"G6","midi":91,"time":"493.10","velocity":0.2992125984251969,"duration":"0.09"},{"name":"C1","midi":24,"time":"493.12","velocity":0.25984251968503935,"duration":"0.03"},{"name":"A5","midi":81,"time":"493.12","velocity":0.4094488188976378,"duration":"0.02"},{"name":"C3","midi":48,"time":"493.13","velocity":0.47244094488188976,"duration":"0.02"},{"name":"E6","midi":88,"time":"493.13","velocity":0.4251968503937008,"duration":"0.57"},{"name":"C#5","midi":73,"time":"493.14","velocity":0.4409448818897638,"duration":"0.06"},{"name":"A#6","midi":94,"time":"493.14","velocity":0.2047244094488189,"duration":"0.12"},{"name":"E4","midi":64,"time":"493.15","velocity":0.3543307086614173,"duration":"0.05"},{"name":"D#5","midi":75,"time":"493.16","velocity":0.3228346456692913,"duration":"0.03"},{"name":"F#5","midi":78,"time":"493.16","velocity":0.2440944881889764,"duration":"0.03"},{"name":"C3","midi":48,"time":"493.19","velocity":0.5511811023622047,"duration":"0.03"},{"name":"C#4","midi":61,"time":"493.19","velocity":0.4409448818897638,"duration":"0.23"},{"name":"B4","midi":71,"time":"493.19","velocity":0.29133858267716534,"duration":"0.02"},{"name":"E5","midi":76,"time":"493.20","velocity":0.36220472440944884,"duration":"0.06"},{"name":"F5","midi":77,"time":"493.20","velocity":0.33070866141732286,"duration":"0.02"},{"name":"A5","midi":81,"time":"493.20","velocity":0.3858267716535433,"duration":"0.02"},{"name":"D6","midi":86,"time":"493.20","velocity":0.3543307086614173,"duration":"0.07"},{"name":"C#5","midi":73,"time":"493.21","velocity":0.5039370078740157,"duration":"0.07"},{"name":"A#5","midi":82,"time":"493.21","velocity":0.2204724409448819,"duration":"0.03"},{"name":"G6","midi":91,"time":"493.21","velocity":0.31496062992125984,"duration":"0.10"},{"name":"F#1","midi":30,"time":"493.22","velocity":0.31496062992125984,"duration":"0.02"},{"name":"F#5","midi":78,"time":"493.22","velocity":0.2992125984251969,"duration":"0.05"},{"name":"C6","midi":84,"time":"493.22","velocity":0.25196850393700787,"duration":"0.02"},{"name":"D#6","midi":87,"time":"493.22","velocity":0.3464566929133858,"duration":"0.10"},{"name":"G#2","midi":44,"time":"493.23","velocity":0.5118110236220472,"duration":"0.03"},{"name":"A4","midi":69,"time":"493.23","velocity":0.4881889763779528,"duration":"0.07"},{"name":"B6","midi":95,"time":"493.23","velocity":0.4881889763779528,"duration":"3.12"},{"name":"E4","midi":64,"time":"493.24","velocity":0.4094488188976378,"duration":"0.08"},{"name":"D#5","midi":75,"time":"493.24","velocity":0.3464566929133858,"duration":"0.05"},{"name":"B5","midi":83,"time":"493.24","velocity":0.2283464566929134,"duration":"0.06"},{"name":"D3","midi":50,"time":"493.26","velocity":0.44881889763779526,"duration":"0.03"},{"name":"F5","midi":77,"time":"493.26","velocity":0.25984251968503935,"duration":"0.05"},{"name":"F#5","midi":78,"time":"493.28","velocity":0.2440944881889764,"duration":"0.02"},{"name":"A#6","midi":94,"time":"493.28","velocity":0.15748031496062992,"duration":"0.03"},{"name":"C3","midi":48,"time":"493.29","velocity":0.5354330708661418,"duration":"0.01"},{"name":"A3","midi":57,"time":"493.29","velocity":0.30708661417322836,"duration":"0.02"},{"name":"B4","midi":71,"time":"493.29","velocity":0.33858267716535434,"duration":"0.07"},{"name":"C#5","midi":73,"time":"493.29","velocity":0.5354330708661418,"duration":"0.27"},{"name":"C6","midi":84,"time":"493.29","velocity":0.2283464566929134,"duration":"0.07"},{"name":"D3","midi":50,"time":"493.30","velocity":0.5196850393700787,"duration":"0.01"},{"name":"G#4","midi":68,"time":"493.30","velocity":0.6220472440944882,"duration":"0.76"},{"name":"F#6","midi":90,"time":"493.30","velocity":0.33070866141732286,"duration":"0.29"},{"name":"C#1","midi":25,"time":"493.31","velocity":0.2755905511811024,"duration":"0.03"},{"name":"C#3","midi":49,"time":"493.31","velocity":0.5196850393700787,"duration":"0.03"},{"name":"D6","midi":86,"time":"493.33","velocity":0.23622047244094488,"duration":"0.02"},{"name":"F6","midi":89,"time":"493.33","velocity":0.23622047244094488,"duration":"0.02"},{"name":"G#3","midi":56,"time":"493.34","velocity":0.33858267716535434,"duration":"0.03"},{"name":"G5","midi":79,"time":"493.34","velocity":0.2755905511811024,"duration":"0.02"},{"name":"D#6","midi":87,"time":"493.34","velocity":0.3700787401574803,"duration":"0.15"},{"name":"A#6","midi":94,"time":"493.34","velocity":0.14960629921259844,"duration":"0.03"},{"name":"G#2","midi":44,"time":"493.36","velocity":0.4251968503937008,"duration":"0.03"},{"name":"D6","midi":86,"time":"493.36","velocity":0.31496062992125984,"duration":"0.02"},{"name":"F6","midi":89,"time":"493.36","velocity":0.33070866141732286,"duration":"0.15"},{"name":"G7","midi":103,"time":"493.36","velocity":0.2755905511811024,"duration":"0.30"},{"name":"G5","midi":79,"time":"493.37","velocity":0.3228346456692913,"duration":"0.02"},{"name":"A5","midi":81,"time":"493.37","velocity":0.4645669291338583,"duration":"0.08"},{"name":"C6","midi":84,"time":"493.37","velocity":0.1732283464566929,"duration":"0.06"},{"name":"A#6","midi":94,"time":"493.38","velocity":0.33858267716535434,"duration":"0.26"},{"name":"B5","midi":83,"time":"493.40","velocity":0.31496062992125984,"duration":"0.15"},{"name":"G#2","midi":44,"time":"493.41","velocity":0.4566929133858268,"duration":"0.05"},{"name":"B4","midi":71,"time":"493.42","velocity":0.25984251968503935,"duration":"0.06"},{"name":"F#5","midi":78,"time":"493.42","velocity":0.2755905511811024,"duration":"0.02"},{"name":"D6","midi":86,"time":"493.42","velocity":0.33070866141732286,"duration":"0.09"},{"name":"E4","midi":64,"time":"493.43","velocity":0.4409448818897638,"duration":"0.08"},{"name":"D#5","midi":75,"time":"493.43","velocity":0.30708661417322836,"duration":"0.05"},{"name":"G3","midi":55,"time":"493.44","velocity":0.3228346456692913,"duration":"0.02"},{"name":"F5","midi":77,"time":"493.44","velocity":0.3858267716535433,"duration":"0.05"},{"name":"D#1","midi":27,"time":"493.45","velocity":0.33070866141732286,"duration":"0.03"},{"name":"G#2","midi":44,"time":"493.47","velocity":0.4645669291338583,"duration":"0.03"},{"name":"G5","midi":79,"time":"493.47","velocity":0.4881889763779528,"duration":"0.02"},{"name":"A5","midi":81,"time":"493.47","velocity":0.4251968503937008,"duration":"0.02"},{"name":"C#4","midi":61,"time":"493.48","velocity":0.3464566929133858,"duration":"0.05"},{"name":"G6","midi":91,"time":"493.49","velocity":0.29133858267716534,"duration":"0.05"},{"name":"D1","midi":26,"time":"493.50","velocity":0.33070866141732286,"duration":"0.03"},{"name":"G#3","midi":56,"time":"493.50","velocity":0.29133858267716534,"duration":"0.03"},{"name":"A5","midi":81,"time":"493.50","velocity":0.4409448818897638,"duration":"0.06"},{"name":"D#6","midi":87,"time":"493.50","velocity":0.33070866141732286,"duration":"0.10"},{"name":"G#2","midi":44,"time":"493.52","velocity":0.4251968503937008,"duration":"0.02"},{"name":"C4","midi":60,"time":"493.52","velocity":0.33070866141732286,"duration":"0.02"},{"name":"E4","midi":64,"time":"493.52","velocity":0.3779527559055118,"duration":"0.02"},{"name":"F5","midi":77,"time":"493.52","velocity":0.31496062992125984,"duration":"0.05"},{"name":"D6","midi":86,"time":"493.52","velocity":0.33858267716535434,"duration":"0.06"},{"name":"D4","midi":62,"time":"493.55","velocity":0.33858267716535434,"duration":"0.02"},{"name":"G6","midi":91,"time":"493.55","velocity":0.3228346456692913,"duration":"0.05"},{"name":"C#4","midi":61,"time":"493.56","velocity":0.4881889763779528,"duration":"0.05"},{"name":"E5","midi":76,"time":"493.56","velocity":0.4330708661417323,"duration":"0.07"},{"name":"B5","midi":83,"time":"493.56","velocity":0.41732283464566927,"duration":"0.22"},{"name":"B2","midi":47,"time":"493.57","velocity":0.4566929133858268,"duration":"0.02"},{"name":"B4","midi":71,"time":"493.57","velocity":0.5354330708661418,"duration":"0.03"},{"name":"F#5","midi":78,"time":"493.57","velocity":0.3543307086614173,"duration":"0.02"},{"name":"D5","midi":74,"time":"493.58","velocity":0.4015748031496063,"duration":"0.05"},{"name":"C6","midi":84,"time":"493.58","velocity":0.29133858267716534,"duration":"0.03"},{"name":"G3","midi":55,"time":"493.59","velocity":0.47244094488188976,"duration":"0.02"},{"name":"F5","midi":77,"time":"493.59","velocity":0.3228346456692913,"duration":"0.07"},{"name":"G5","midi":79,"time":"493.59","velocity":0.33070866141732286,"duration":"0.02"},{"name":"G2","midi":43,"time":"493.60","velocity":0.4330708661417323,"duration":"0.02"},{"name":"C5","midi":72,"time":"493.60","velocity":0.47244094488188976,"duration":"0.02"},{"name":"F#6","midi":90,"time":"493.60","velocity":0.31496062992125984,"duration":"0.09"},{"name":"A6","midi":93,"time":"493.60","velocity":0.2755905511811024,"duration":"0.05"},{"name":"E3","midi":52,"time":"493.62","velocity":0.3700787401574803,"duration":"0.02"},{"name":"D#4","midi":63,"time":"493.62","velocity":0.31496062992125984,"duration":"0.03"},{"name":"D#6","midi":87,"time":"493.62","velocity":0.4251968503937008,"duration":"0.58"},{"name":"G6","midi":91,"time":"493.62","velocity":0.29133858267716534,"duration":"0.03"},{"name":"G#2","midi":44,"time":"493.63","velocity":0.49606299212598426,"duration":"0.02"},{"name":"A#3","midi":58,"time":"493.63","velocity":0.44881889763779526,"duration":"0.02"},{"name":"B4","midi":71,"time":"493.63","velocity":0.5118110236220472,"duration":"0.06"},{"name":"F#5","midi":78,"time":"493.63","velocity":0.2440944881889764,"duration":"0.02"},{"name":"A#5","midi":82,"time":"493.63","velocity":0.28346456692913385,"duration":"0.09"},{"name":"D5","midi":74,"time":"493.64","velocity":0.3228346456692913,"duration":"0.02"},{"name":"E5","midi":76,"time":"493.64","velocity":0.29133858267716534,"duration":"0.06"},{"name":"D#1","midi":27,"time":"493.65","velocity":0.33070866141732286,"duration":"0.02"},{"name":"G#2","midi":44,"time":"493.66","velocity":0.5196850393700787,"duration":"0.02"},{"name":"C#4","midi":61,"time":"493.66","velocity":0.2440944881889764,"duration":"0.03"},{"name":"E4","midi":64,"time":"493.66","velocity":0.31496062992125984,"duration":"0.09"},{"name":"C#5","midi":73,"time":"493.66","velocity":0.2440944881889764,"duration":"0.02"},{"name":"A6","midi":93,"time":"493.66","velocity":0.2755905511811024,"duration":"0.13"},{"name":"G6","midi":91,"time":"493.67","velocity":0.33858267716535434,"duration":"0.15"},{"name":"G5","midi":79,"time":"493.69","velocity":0.4409448818897638,"duration":"0.02"},{"name":"F6","midi":89,"time":"493.69","velocity":0.2755905511811024,"duration":"0.14"},{"name":"A#6","midi":94,"time":"493.69","velocity":0.28346456692913385,"duration":"0.16"},{"name":"B4","midi":71,"time":"493.70","velocity":0.5748031496062992,"duration":"0.56"},{"name":"D5","midi":74,"time":"493.70","velocity":0.30708661417322836,"duration":"0.02"},{"name":"F5","midi":77,"time":"493.70","velocity":0.2440944881889764,"duration":"0.03"},{"name":"G#2","midi":44,"time":"493.71","velocity":0.5433070866141733,"duration":"0.02"},{"name":"E6","midi":88,"time":"493.71","velocity":0.23622047244094488,"duration":"0.08"},{"name":"F#6","midi":90,"time":"493.71","velocity":0.1968503937007874,"duration":"0.03"},{"name":"C#5","midi":73,"time":"493.72","velocity":0.3700787401574803,"duration":"0.03"},{"name":"A2","midi":45,"time":"493.73","velocity":0.5118110236220472,"duration":"0.01"},{"name":"G3","midi":55,"time":"493.74","velocity":0.4409448818897638,"duration":"0.02"},{"name":"A5","midi":81,"time":"493.74","velocity":0.30708661417322836,"duration":"0.06"},{"name":"A2","midi":45,"time":"493.76","velocity":0.5511811023622047,"duration":"0.01"},{"name":"D6","midi":86,"time":"493.76","velocity":0.28346456692913385,"duration":"0.05"},{"name":"F#6","midi":90,"time":"493.76","velocity":0.33858267716535434,"duration":"0.56"},{"name":"G#2","midi":44,"time":"493.77","velocity":0.5433070866141733,"duration":"0.02"},{"name":"D4","midi":62,"time":"493.77","velocity":0.36220472440944884,"duration":"0.02"},{"name":"D#5","midi":75,"time":"493.77","velocity":0.25984251968503935,"duration":"0.02"},{"name":"F5","midi":77,"time":"493.77","velocity":0.3228346456692913,"duration":"0.09"},{"name":"A2","midi":45,"time":"493.79","velocity":0.5275590551181102,"duration":"0.01"},{"name":"G#3","midi":56,"time":"493.79","velocity":0.4330708661417323,"duration":"0.08"},{"name":"C#5","midi":73,"time":"493.79","velocity":0.3937007874015748,"duration":"0.07"},{"name":"F#5","midi":78,"time":"493.79","velocity":0.2755905511811024,"duration":"0.03"},{"name":"G2","midi":43,"time":"493.80","velocity":0.5196850393700787,"duration":"0.01"},{"name":"C4","midi":60,"time":"493.80","velocity":0.2440944881889764,"duration":"0.02"},{"name":"C3","midi":48,"time":"493.81","velocity":0.5590551181102362,"duration":"0.01"},{"name":"C6","midi":84,"time":"493.81","velocity":0.28346456692913385,"duration":"0.03"},{"name":"G#2","midi":44,"time":"493.83","velocity":0.5669291338582677,"duration":"0.02"},{"name":"C#3","midi":49,"time":"493.83","velocity":0.5275590551181102,"duration":"0.01"},{"name":"D6","midi":86,"time":"493.83","velocity":0.2047244094488189,"duration":"0.03"},{"name":"G7","midi":103,"time":"493.83","velocity":0.1732283464566929,"duration":"0.09"},{"name":"E4","midi":64,"time":"493.84","velocity":0.33070866141732286,"duration":"0.03"},{"name":"F#5","midi":78,"time":"493.84","velocity":0.2755905511811024,"duration":"0.03"},{"name":"E6","midi":88,"time":"493.84","velocity":0.29133858267716534,"duration":"0.06"},{"name":"G6","midi":91,"time":"493.84","velocity":0.3700787401574803,"duration":"0.09"},{"name":"A2","midi":45,"time":"493.85","velocity":0.5433070866141733,"duration":"0.01"},{"name":"D#5","midi":75,"time":"493.86","velocity":0.29133858267716534,"duration":"0.08"},{"name":"A6","midi":93,"time":"493.86","velocity":0.1968503937007874,"duration":"0.08"},{"name":"A#6","midi":94,"time":"493.86","velocity":0.2283464566929134,"duration":"0.31"},{"name":"C3","midi":48,"time":"493.87","velocity":0.5590551181102362,"duration":"0.01"},{"name":"G3","midi":55,"time":"493.87","velocity":0.36220472440944884,"duration":"0.03"},{"name":"C#4","midi":61,"time":"493.87","velocity":0.4094488188976378,"duration":"0.06"},{"name":"F5","midi":77,"time":"493.87","velocity":0.2047244094488189,"duration":"0.07"},{"name":"D6","midi":86,"time":"493.87","velocity":0.2992125984251969,"duration":"0.06"},{"name":"D7","midi":98,"time":"493.87","velocity":0.2992125984251969,"duration":"0.27"},{"name":"G#2","midi":44,"time":"493.88","velocity":0.5433070866141733,"duration":"0.02"},{"name":"C#1","midi":25,"time":"493.90","velocity":0.23622047244094488,"duration":"0.02"},{"name":"E4","midi":64,"time":"493.90","velocity":0.3779527559055118,"duration":"0.03"},{"name":"F6","midi":89,"time":"493.90","velocity":0.2440944881889764,"duration":"0.09"},{"name":"A2","midi":45,"time":"493.91","velocity":0.5433070866141733,"duration":"0.01"},{"name":"G#3","midi":56,"time":"493.91","velocity":0.47244094488188976,"duration":"0.02"},{"name":"F#5","midi":78,"time":"493.91","velocity":0.2677165354330709,"duration":"0.02"},{"name":"G2","midi":43,"time":"493.92","velocity":0.5118110236220472,"duration":"0.01"},{"name":"G#2","midi":44,"time":"493.93","velocity":0.5748031496062992,"duration":"0.01"},{"name":"A2","midi":45,"time":"493.94","velocity":0.6062992125984252,"duration":"0.02"},{"name":"G3","midi":55,"time":"493.94","velocity":0.5039370078740157,"duration":"0.02"},{"name":"D6","midi":86,"time":"493.94","velocity":0.25196850393700787,"duration":"0.06"},{"name":"G7","midi":103,"time":"493.94","velocity":0.2125984251968504,"duration":"0.14"},{"name":"F5","midi":77,"time":"493.95","velocity":0.33858267716535434,"duration":"0.02"},{"name":"A#5","midi":82,"time":"493.95","velocity":0.30708661417322836,"duration":"0.02"},{"name":"E6","midi":88,"time":"493.95","velocity":0.2992125984251969,"duration":"0.07"},{"name":"A6","midi":93,"time":"493.95","velocity":0.30708661417322836,"duration":"0.20"},{"name":"F#2","midi":42,"time":"493.97","velocity":0.5196850393700787,"duration":"0.01"},{"name":"G#3","midi":56,"time":"493.97","velocity":0.44881889763779526,"duration":"0.02"},{"name":"F#5","midi":78,"time":"493.97","velocity":0.33070866141732286,"duration":"0.06"},{"name":"C#5","midi":73,"time":"493.98","velocity":0.3700787401574803,"duration":"0.03"},{"name":"D#5","midi":75,"time":"493.98","velocity":0.25196850393700787,"duration":"0.02"},{"name":"F7","midi":101,"time":"493.98","velocity":0.33070866141732286,"duration":"3.55"},{"name":"A3","midi":57,"time":"493.99","velocity":0.41732283464566927,"duration":"0.02"},{"name":"G6","midi":91,"time":"493.99","velocity":0.14960629921259844,"duration":"0.05"},{"name":"G1","midi":31,"time":"494.00","velocity":0.5118110236220472,"duration":"0.01"},{"name":"E5","midi":76,"time":"494.00","velocity":0.33070866141732286,"duration":"0.02"},{"name":"A#1","midi":34,"time":"494.01","velocity":0.5118110236220472,"duration":"0.01"},{"name":"G#2","midi":44,"time":"494.01","velocity":0.5433070866141733,"duration":"0.05"},{"name":"F5","midi":77,"time":"494.01","velocity":0.3228346456692913,"duration":"0.07"},{"name":"E4","midi":64,"time":"494.02","velocity":0.3858267716535433,"duration":"0.07"},{"name":"D#5","midi":75,"time":"494.02","velocity":0.3464566929133858,"duration":"0.06"},{"name":"G3","midi":55,"time":"494.03","velocity":0.4409448818897638,"duration":"0.03"},{"name":"E6","midi":88,"time":"494.03","velocity":0.2125984251968504,"duration":"0.06"},{"name":"C#4","midi":61,"time":"494.05","velocity":0.3543307086614173,"duration":"0.03"},{"name":"C6","midi":84,"time":"494.06","velocity":0.30708661417322836,"duration":"0.09"},{"name":"C7","midi":96,"time":"494.06","velocity":0.3779527559055118,"duration":"0.06"},{"name":"A2","midi":45,"time":"494.07","velocity":0.5354330708661418,"duration":"0.02"},{"name":"G#3","midi":56,"time":"494.07","velocity":0.3937007874015748,"duration":"0.08"},{"name":"A5","midi":81,"time":"494.07","velocity":0.33858267716535434,"duration":"0.02"},{"name":"D6","midi":86,"time":"494.07","velocity":0.29133858267716534,"duration":"0.03"},{"name":"G#4","midi":68,"time":"494.09","velocity":0.4566929133858268,"duration":"0.12"},{"name":"C#6","midi":85,"time":"494.09","velocity":0.30708661417322836,"duration":"0.09"},{"name":"A2","midi":45,"time":"494.10","velocity":0.5354330708661418,"duration":"0.01"},{"name":"G7","midi":103,"time":"494.10","velocity":0.14960629921259844,"duration":"0.05"},{"name":"G6","midi":91,"time":"494.12","velocity":0.14960629921259844,"duration":"0.03"},{"name":"C#7","midi":97,"time":"494.12","velocity":0.49606299212598426,"duration":"0.74"},{"name":"E4","midi":64,"time":"494.13","velocity":0.33858267716535434,"duration":"0.02"},{"name":"C#5","midi":73,"time":"494.13","velocity":0.23622047244094488,"duration":"0.03"},{"name":"D#5","midi":75,"time":"494.13","velocity":0.25984251968503935,"duration":"0.03"},{"name":"F5","midi":77,"time":"494.13","velocity":0.3464566929133858,"duration":"0.08"},{"name":"C7","midi":96,"time":"494.13","velocity":0.36220472440944884,"duration":"0.28"},{"name":"A2","midi":45,"time":"494.14","velocity":0.5196850393700787,"duration":"0.01"},{"name":"B3","midi":59,"time":"494.14","velocity":0.25196850393700787,"duration":"0.02"},{"name":"E6","midi":88,"time":"494.14","velocity":0.2440944881889764,"duration":"0.05"},{"name":"D7","midi":98,"time":"494.15","velocity":0.29133858267716534,"duration":"0.24"},{"name":"G#2","midi":44,"time":"494.16","velocity":0.5275590551181102,"duration":"0.01"},{"name":"C4","midi":60,"time":"494.16","velocity":0.2755905511811024,"duration":"0.02"},{"name":"E4","midi":64,"time":"494.16","velocity":0.41732283464566927,"duration":"0.07"},{"name":"A#5","midi":82,"time":"494.16","velocity":0.2440944881889764,"duration":"0.02"},{"name":"A6","midi":93,"time":"494.16","velocity":0.2125984251968504,"duration":"0.03"},{"name":"G7","midi":103,"time":"494.17","velocity":0.2125984251968504,"duration":"0.06"},{"name":"D1","midi":26,"time":"494.19","velocity":0.30708661417322836,"duration":"0.02"},{"name":"D6","midi":86,"time":"494.19","velocity":0.2755905511811024,"duration":"0.14"},{"name":"A#6","midi":94,"time":"494.19","velocity":0.30708661417322836,"duration":"0.73"},{"name":"C3","midi":48,"time":"494.20","velocity":0.5354330708661418,"duration":"0.01"},{"name":"G#2","midi":44,"time":"494.21","velocity":0.5354330708661418,"duration":"0.02"},{"name":"C#6","midi":85,"time":"494.21","velocity":0.2125984251968504,"duration":"0.05"},{"name":"D#6","midi":87,"time":"494.21","velocity":0.5118110236220472,"duration":"1.01"},{"name":"G#4","midi":68,"time":"494.22","velocity":0.5039370078740157,"duration":"0.09"},{"name":"E7","midi":100,"time":"494.22","velocity":0.41732283464566927,"duration":"4.66"},{"name":"C3","midi":48,"time":"494.23","velocity":0.5196850393700787,"duration":"0.01"},{"name":"G#5","midi":80,"time":"494.23","velocity":0.5669291338582677,"duration":"0.09"},{"name":"C#3","midi":49,"time":"494.24","velocity":0.5118110236220472,"duration":"0.01"},{"name":"B3","midi":59,"time":"494.24","velocity":0.3228346456692913,"duration":"0.06"},{"name":"C3","midi":48,"time":"494.26","velocity":0.5748031496062992,"duration":"0.01"},{"name":"E4","midi":64,"time":"494.26","velocity":0.3937007874015748,"duration":"0.06"},{"name":"D#5","midi":75,"time":"494.26","velocity":0.29133858267716534,"duration":"0.05"},{"name":"G7","midi":103,"time":"494.26","velocity":0.1889763779527559,"duration":"0.07"},{"name":"C#3","midi":49,"time":"494.27","velocity":0.5511811023622047,"duration":"0.03"},{"name":"A#5","midi":82,"time":"494.27","velocity":0.4015748031496063,"duration":"0.06"},{"name":"A6","midi":93,"time":"494.27","velocity":0.3464566929133858,"duration":"0.02"},{"name":"C#6","midi":85,"time":"494.28","velocity":0.30708661417322836,"duration":"0.14"},{"name":"G#3","midi":56,"time":"494.29","velocity":0.3858267716535433,"duration":"0.02"},{"name":"A#4","midi":70,"time":"494.29","velocity":0.5275590551181102,"duration":"0.03"},{"name":"F6","midi":89,"time":"494.29","velocity":0.2677165354330709,"duration":"0.13"},{"name":"G6","midi":91,"time":"494.29","velocity":0.4251968503937008,"duration":"0.22"},{"name":"G#2","midi":44,"time":"494.30","velocity":0.5669291338582677,"duration":"0.01"},{"name":"D3","midi":50,"time":"494.30","velocity":0.5669291338582677,"duration":"0.01"},{"name":"C6","midi":84,"time":"494.30","velocity":0.2677165354330709,"duration":"0.05"},{"name":"A6","midi":93,"time":"494.30","velocity":0.4015748031496063,"duration":"0.55"},{"name":"F#2","midi":42,"time":"494.31","velocity":0.6141732283464567,"duration":"0.02"},{"name":"C#5","midi":73,"time":"494.31","velocity":0.3779527559055118,"duration":"0.03"},{"name":"D#5","midi":75,"time":"494.31","velocity":0.36220472440944884,"duration":"0.20"},{"name":"C3","midi":48,"time":"494.33","velocity":0.5354330708661418,"duration":"0.02"},{"name":"E4","midi":64,"time":"494.33","velocity":0.4409448818897638,"duration":"0.12"},{"name":"A4","midi":69,"time":"494.33","velocity":0.5511811023622047,"duration":"0.01"},{"name":"B4","midi":71,"time":"494.33","velocity":0.49606299212598426,"duration":"0.13"},{"name":"F#5","midi":78,"time":"494.33","velocity":0.30708661417322836,"duration":"0.03"},{"name":"F1","midi":29,"time":"494.34","velocity":0.5905511811023622,"duration":"0.03"},{"name":"G#4","midi":68,"time":"494.34","velocity":0.5354330708661418,"duration":"0.02"},{"name":"A#5","midi":82,"time":"494.34","velocity":0.3464566929133858,"duration":"0.03"},{"name":"D6","midi":86,"time":"494.34","velocity":0.30708661417322836,"duration":"0.22"},{"name":"B2","midi":47,"time":"494.35","velocity":0.5433070866141733,"duration":"0.02"},{"name":"D4","midi":62,"time":"494.36","velocity":0.4409448818897638,"duration":"0.02"},{"name":"A4","midi":69,"time":"494.36","velocity":0.5748031496062992,"duration":"0.05"},{"name":"C#5","midi":73,"time":"494.36","velocity":0.33858267716535434,"duration":"0.08"},{"name":"F5","midi":77,"time":"494.36","velocity":0.33858267716535434,"duration":"0.05"},{"name":"G5","midi":79,"time":"494.36","velocity":0.4015748031496063,"duration":"0.02"},{"name":"E6","midi":88,"time":"494.36","velocity":0.4015748031496063,"duration":"0.24"},{"name":"G#6","midi":92,"time":"494.36","velocity":0.4566929133858268,"duration":"0.13"},{"name":"E1","midi":28,"time":"494.37","velocity":0.5118110236220472,"duration":"0.01"},{"name":"C#3","midi":49,"time":"494.37","velocity":0.48031496062992124,"duration":"0.02"},{"name":"G#5","midi":80,"time":"494.38","velocity":0.6299212598425197,"duration":"0.07"},{"name":"A3","midi":57,"time":"494.40","velocity":0.4330708661417323,"duration":"0.03"},{"name":"C4","midi":60,"time":"494.40","velocity":0.2992125984251969,"duration":"0.02"},{"name":"G#4","midi":68,"time":"494.40","velocity":0.6062992125984252,"duration":"0.07"},{"name":"F#5","midi":78,"time":"494.40","velocity":0.29133858267716534,"duration":"0.08"},{"name":"G#2","midi":44,"time":"494.41","velocity":0.44881889763779526,"duration":"0.02"},{"name":"D7","midi":98,"time":"494.41","velocity":0.33070866141732286,"duration":"0.90"},{"name":"C7","midi":96,"time":"494.42","velocity":0.3228346456692913,"duration":"0.65"},{"name":"G3","midi":55,"time":"494.44","velocity":0.3779527559055118,"duration":"0.02"},{"name":"C4","midi":60,"time":"494.44","velocity":0.3937007874015748,"duration":"0.02"},{"name":"E4","midi":64,"time":"494.45","velocity":0.2677165354330709,"duration":"0.02"},{"name":"A5","midi":81,"time":"494.45","velocity":0.3700787401574803,"duration":"0.03"},{"name":"G#3","midi":56,"time":"494.47","velocity":0.4251968503937008,"duration":"0.03"},{"name":"A4","midi":69,"time":"494.47","velocity":0.4881889763779528,"duration":"0.02"},{"name":"B4","midi":71,"time":"494.47","velocity":0.4409448818897638,"duration":"0.03"},{"name":"F6","midi":89,"time":"494.47","velocity":0.16535433070866143,"duration":"0.03"},{"name":"B2","midi":47,"time":"494.48","velocity":0.5433070866141733,"duration":"0.01"},{"name":"C#4","midi":61,"time":"494.48","velocity":0.25984251968503935,"duration":"0.02"},{"name":"G#5","midi":80,"time":"494.48","velocity":0.5275590551181102,"duration":"0.09"},{"name":"F#2","midi":42,"time":"494.49","velocity":0.5511811023622047,"duration":"0.01"},{"name":"C#2","midi":37,"time":"494.50","velocity":0.5984251968503937,"duration":"0.01"},{"name":"E4","midi":64,"time":"494.50","velocity":0.3228346456692913,"duration":"0.02"},{"name":"A4","midi":69,"time":"494.50","velocity":0.6377952755905512,"duration":"0.17"},{"name":"E5","midi":76,"time":"494.50","velocity":0.33858267716535434,"duration":"0.14"},{"name":"F#6","midi":90,"time":"494.50","velocity":0.2992125984251969,"duration":"0.40"},{"name":"D3","midi":50,"time":"494.51","velocity":0.49606299212598426,"duration":"0.05"},{"name":"G#3","midi":56,"time":"494.51","velocity":0.41732283464566927,"duration":"0.06"},{"name":"F#4","midi":66,"time":"494.51","velocity":0.2755905511811024,"duration":"0.02"},{"name":"C#5","midi":73,"time":"494.51","velocity":0.3937007874015748,"duration":"0.07"},{"name":"F#5","midi":78,"time":"494.53","velocity":0.28346456692913385,"duration":"0.14"},{"name":"G6","midi":91,"time":"494.53","velocity":0.3543307086614173,"duration":"0.10"},{"name":"C6","midi":84,"time":"494.55","velocity":0.2125984251968504,"duration":"0.03"},{"name":"E4","midi":64,"time":"494.56","velocity":0.33858267716535434,"duration":"0.03"},{"name":"B4","midi":71,"time":"494.56","velocity":0.3779527559055118,"duration":"0.02"},{"name":"F#4","midi":66,"time":"494.57","velocity":0.33070866141732286,"duration":"0.02"},{"name":"G5","midi":79,"time":"494.57","velocity":0.2755905511811024,"duration":"0.02"},{"name":"G#3","midi":56,"time":"494.58","velocity":0.2992125984251969,"duration":"0.02"},{"name":"B4","midi":71,"time":"494.59","velocity":0.4251968503937008,"duration":"0.05"},{"name":"G#5","midi":80,"time":"494.59","velocity":0.47244094488188976,"duration":"0.02"},{"name":"F6","midi":89,"time":"494.59","velocity":0.2677165354330709,"duration":"0.12"},{"name":"G3","midi":55,"time":"494.60","velocity":0.4094488188976378,"duration":"0.02"},{"name":"E4","midi":64,"time":"494.60","velocity":0.44881889763779526,"duration":"0.08"},{"name":"D6","midi":86,"time":"494.60","velocity":0.33070866141732286,"duration":"0.03"},{"name":"G#2","midi":44,"time":"494.62","velocity":0.33858267716535434,"duration":"0.03"},{"name":"G#5","midi":80,"time":"494.63","velocity":0.5905511811023622,"duration":"0.45"},{"name":"E6","midi":88,"time":"494.63","velocity":0.33858267716535434,"duration":"0.15"},{"name":"G3","midi":55,"time":"494.64","velocity":0.41732283464566927,"duration":"0.02"},{"name":"C#4","midi":61,"time":"494.64","velocity":0.4251968503937008,"duration":"0.03"},{"name":"D#5","midi":75,"time":"494.64","velocity":0.36220472440944884,"duration":"0.08"},{"name":"B4","midi":71,"time":"494.65","velocity":0.3937007874015748,"duration":"0.03"},{"name":"C6","midi":84,"time":"494.65","velocity":0.18110236220472442,"duration":"0.03"},{"name":"D6","midi":86,"time":"494.65","velocity":0.2677165354330709,"duration":"0.03"},{"name":"A3","midi":57,"time":"494.66","velocity":0.3858267716535433,"duration":"0.02"},{"name":"G6","midi":91,"time":"494.66","velocity":0.4094488188976378,"duration":"0.31"},{"name":"C2","midi":36,"time":"494.69","velocity":0.5826771653543307,"duration":"0.01"},{"name":"A#3","midi":58,"time":"494.69","velocity":0.41732283464566927,"duration":"0.03"},{"name":"D#4","midi":63,"time":"494.69","velocity":0.3779527559055118,"duration":"0.05"},{"name":"A#4","midi":70,"time":"494.69","velocity":0.47244094488188976,"duration":"0.02"},{"name":"F2","midi":41,"time":"494.70","velocity":0.5354330708661418,"duration":"0.01"},{"name":"G#4","midi":68,"time":"494.70","velocity":0.49606299212598426,"duration":"0.02"},{"name":"D6","midi":86,"time":"494.70","velocity":0.25196850393700787,"duration":"0.05"},{"name":"A4","midi":69,"time":"494.71","velocity":0.5905511811023622,"duration":"0.12"},{"name":"C5","midi":72,"time":"494.71","velocity":0.2677165354330709,"duration":"0.02"},{"name":"F#1","midi":30,"time":"494.72","velocity":0.5354330708661418,"duration":"0.01"},{"name":"E5","midi":76,"time":"494.72","velocity":0.2755905511811024,"duration":"0.02"},{"name":"G1","midi":31,"time":"494.73","velocity":0.5433070866141733,"duration":"0.01"},{"name":"A2","midi":45,"time":"494.73","velocity":0.5590551181102362,"duration":"0.02"},{"name":"C4","midi":60,"time":"494.73","velocity":0.33070866141732286,"duration":"0.02"},{"name":"C#5","midi":73,"time":"494.73","velocity":0.3700787401574803,"duration":"0.05"},{"name":"D#5","midi":75,"time":"494.73","velocity":0.2677165354330709,"duration":"0.03"},{"name":"F6","midi":89,"time":"494.73","velocity":0.15748031496062992,"duration":"0.08"},{"name":"F5","midi":77,"time":"494.74","velocity":0.3228346456692913,"duration":"0.07"},{"name":"G#2","midi":44,"time":"494.76","velocity":0.5511811023622047,"duration":"0.13"},{"name":"A3","midi":57,"time":"494.76","velocity":0.2992125984251969,"duration":"0.03"},{"name":"F#1","midi":30,"time":"494.77","velocity":0.47244094488188976,"duration":"0.02"},{"name":"C#4","midi":61,"time":"494.78","velocity":0.3937007874015748,"duration":"0.03"},{"name":"D5","midi":74,"time":"494.78","velocity":0.25984251968503935,"duration":"0.02"},{"name":"D#5","midi":75,"time":"494.78","velocity":0.3228346456692913,"duration":"0.06"},{"name":"F#5","midi":78,"time":"494.78","velocity":0.2755905511811024,"duration":"0.03"},{"name":"E6","midi":88,"time":"494.79","velocity":0.3937007874015748,"duration":"0.08"},{"name":"D1","midi":26,"time":"494.80","velocity":0.25196850393700787,"duration":"0.02"},{"name":"F3","midi":53,"time":"494.80","velocity":0.4015748031496063,"duration":"0.02"},{"name":"E4","midi":64,"time":"494.80","velocity":0.2755905511811024,"duration":"0.02"},{"name":"B4","midi":71,"time":"494.80","velocity":0.3700787401574803,"duration":"0.02"},{"name":"C6","midi":84,"time":"494.81","velocity":0.2283464566929134,"duration":"0.05"},{"name":"D6","midi":86,"time":"494.81","velocity":0.28346456692913385,"duration":"0.02"},{"name":"G#4","midi":68,"time":"494.83","velocity":0.5118110236220472,"duration":"0.01"},{"name":"A#4","midi":70,"time":"494.83","velocity":0.5118110236220472,"duration":"0.07"},{"name":"E5","midi":76,"time":"494.83","velocity":0.4015748031496063,"duration":"0.22"},{"name":"D#4","midi":63,"time":"494.84","velocity":0.4094488188976378,"duration":"0.02"},{"name":"A5","midi":81,"time":"494.84","velocity":0.44881889763779526,"duration":"0.03"},{"name":"G#4","midi":68,"time":"494.85","velocity":0.5905511811023622,"duration":"0.22"},{"name":"C#5","midi":73,"time":"494.85","velocity":0.33070866141732286,"duration":"0.03"},{"name":"G3","midi":55,"time":"494.86","velocity":0.3937007874015748,"duration":"0.02"},{"name":"C#4","midi":61,"time":"494.86","velocity":0.4330708661417323,"duration":"0.10"},{"name":"G5","midi":79,"time":"494.86","velocity":0.3779527559055118,"duration":"0.02"},{"name":"B5","midi":83,"time":"494.86","velocity":0.41732283464566927,"duration":"0.21"},{"name":"F6","midi":89,"time":"494.86","velocity":0.2440944881889764,"duration":"0.03"},{"name":"E1","midi":28,"time":"494.87","velocity":0.4015748031496063,"duration":"0.02"},{"name":"C6","midi":84,"time":"494.87","velocity":0.2992125984251969,"duration":"0.05"},{"name":"A6","midi":93,"time":"494.87","velocity":0.3779527559055118,"duration":"0.26"},{"name":"C#7","midi":97,"time":"494.87","velocity":0.5275590551181102,"duration":"7.30"},{"name":"A2","midi":45,"time":"494.88","velocity":0.5354330708661418,"duration":"0.01"},{"name":"A5","midi":81,"time":"494.88","velocity":0.47244094488188976,"duration":"0.09"},{"name":"G#2","midi":44,"time":"494.90","velocity":0.5590551181102362,"duration":"0.06"},{"name":"F4","midi":65,"time":"494.90","velocity":0.2755905511811024,"duration":"0.03"},{"name":"B4","midi":71,"time":"494.90","velocity":0.5118110236220472,"duration":"0.06"},{"name":"F#6","midi":90,"time":"494.91","velocity":0.3937007874015748,"duration":"0.67"},{"name":"F1","midi":29,"time":"494.92","velocity":0.2992125984251969,"duration":"0.02"},{"name":"G3","midi":55,"time":"494.92","velocity":0.4330708661417323,"duration":"0.03"},{"name":"D6","midi":86,"time":"494.93","velocity":0.23622047244094488,"duration":"0.02"},{"name":"G#3","midi":56,"time":"494.95","velocity":0.3779527559055118,"duration":"0.02"},{"name":"E4","midi":64,"time":"494.95","velocity":0.23622047244094488,"duration":"0.03"},{"name":"F6","midi":89,"time":"494.95","velocity":0.1889763779527559,"duration":"0.03"},{"name":"A#6","midi":94,"time":"494.95","velocity":0.3700787401574803,"duration":"0.20"},{"name":"A2","midi":45,"time":"494.97","velocity":0.5590551181102362,"duration":"0.02"},{"name":"B4","midi":71,"time":"494.97","velocity":0.5433070866141733,"duration":"0.10"},{"name":"C#5","midi":73,"time":"494.97","velocity":0.23622047244094488,"duration":"0.03"},{"name":"B3","midi":59,"time":"494.98","velocity":0.33070866141732286,"duration":"0.05"},{"name":"A2","midi":45,"time":"495.00","velocity":0.47244094488188976,"duration":"0.03"},{"name":"E4","midi":64,"time":"495.00","velocity":0.3779527559055118,"duration":"0.05"},{"name":"G6","midi":91,"time":"495.00","velocity":0.2755905511811024,"duration":"0.15"},{"name":"G7","midi":103,"time":"495.00","velocity":0.2755905511811024,"duration":"0.24"},{"name":"G3","midi":55,"time":"495.02","velocity":0.3937007874015748,"duration":"0.02"},{"name":"C#5","midi":73,"time":"495.02","velocity":0.31496062992125984,"duration":"0.02"},{"name":"A#2","midi":46,"time":"495.03","velocity":0.4330708661417323,"duration":"0.02"},{"name":"F6","midi":89,"time":"495.03","velocity":0.3464566929133858,"duration":"0.08"},{"name":"D#4","midi":63,"time":"495.05","velocity":0.48031496062992124,"duration":"0.02"},{"name":"C#5","midi":73,"time":"495.06","velocity":0.4094488188976378,"duration":"0.05"},{"name":"F5","midi":77,"time":"495.06","velocity":0.3543307086614173,"duration":"0.03"},{"name":"C6","midi":84,"time":"495.06","velocity":0.3543307086614173,"duration":"0.02"},{"name":"E6","midi":88,"time":"495.06","velocity":0.31496062992125984,"duration":"0.09"},{"name":"F2","midi":41,"time":"495.07","velocity":0.44881889763779526,"duration":"0.02"},{"name":"A4","midi":69,"time":"495.07","velocity":0.49606299212598426,"duration":"0.03"},{"name":"D6","midi":86,"time":"495.07","velocity":0.29133858267716534,"duration":"0.07"},{"name":"F#4","midi":66,"time":"495.08","velocity":0.41732283464566927,"duration":"0.03"},{"name":"B4","midi":71,"time":"495.08","velocity":0.4881889763779528,"duration":"0.03"},{"name":"G5","midi":79,"time":"495.08","velocity":0.4094488188976378,"duration":"0.03"},{"name":"A#5","midi":82,"time":"495.08","velocity":0.2755905511811024,"duration":"0.02"},{"name":"B5","midi":83,"time":"495.08","velocity":0.5275590551181102,"duration":"0.34"},{"name":"C7","midi":96,"time":"495.08","velocity":0.3779527559055118,"duration":"0.59"},{"name":"C3","midi":48,"time":"495.09","velocity":0.5118110236220472,"duration":"0.01"},{"name":"C#1","midi":25,"time":"495.10","velocity":0.23622047244094488,"duration":"0.02"},{"name":"D5","midi":74,"time":"495.10","velocity":0.33858267716535434,"duration":"0.03"},{"name":"F5","midi":77,"time":"495.10","velocity":0.29133858267716534,"duration":"0.06"},{"name":"G#5","midi":80,"time":"495.10","velocity":0.4645669291338583,"duration":"0.03"},{"name":"F#5","midi":78,"time":"495.12","velocity":0.33070866141732286,"duration":"0.02"},{"name":"D#1","midi":27,"time":"495.13","velocity":0.29133858267716534,"duration":"0.02"},{"name":"B4","midi":71,"time":"495.13","velocity":0.4566929133858268,"duration":"0.05"},{"name":"C6","midi":84,"time":"495.13","velocity":0.2047244094488189,"duration":"0.03"},{"name":"C#6","midi":85,"time":"495.13","velocity":0.2283464566929134,"duration":"0.02"},{"name":"F#4","midi":66,"time":"495.14","velocity":0.3228346456692913,"duration":"0.02"},{"name":"C#5","midi":73,"time":"495.14","velocity":0.28346456692913385,"duration":"0.02"},{"name":"A6","midi":93,"time":"495.14","velocity":0.3779527559055118,"duration":"0.17"},{"name":"E4","midi":64,"time":"495.15","velocity":0.4094488188976378,"duration":"0.10"},{"name":"A4","midi":69,"time":"495.15","velocity":0.5039370078740157,"duration":"0.02"},{"name":"G#5","midi":80,"time":"495.15","velocity":0.5669291338582677,"duration":"0.08"},{"name":"B3","midi":59,"time":"495.16","velocity":0.4015748031496063,"duration":"0.02"},{"name":"C#6","midi":85,"time":"495.16","velocity":0.2440944881889764,"duration":"0.03"},{"name":"G6","midi":91,"time":"495.16","velocity":0.31496062992125984,"duration":"0.02"},{"name":"A#6","midi":94,"time":"495.16","velocity":0.23622047244094488,"duration":"0.07"},{"name":"G#4","midi":68,"time":"495.17","velocity":0.5511811023622047,"duration":"0.29"},{"name":"C5","midi":72,"time":"495.17","velocity":0.44881889763779526,"duration":"0.02"},{"name":"A#3","midi":58,"time":"495.19","velocity":0.3937007874015748,"duration":"0.03"},{"name":"F5","midi":77,"time":"495.19","velocity":0.28346456692913385,"duration":"0.06"},{"name":"G#2","midi":44,"time":"495.20","velocity":0.49606299212598426,"duration":"0.02"},{"name":"B4","midi":71,"time":"495.20","velocity":0.5354330708661418,"duration":"0.23"},{"name":"C6","midi":84,"time":"495.20","velocity":0.2992125984251969,"duration":"0.03"},{"name":"D6","midi":86,"time":"495.20","velocity":0.33858267716535434,"duration":"0.29"},{"name":"E6","midi":88,"time":"495.20","velocity":0.3700787401574803,"duration":"0.06"},{"name":"A3","midi":57,"time":"495.22","velocity":0.4094488188976378,"duration":"0.03"},{"name":"C#3","midi":49,"time":"495.23","velocity":0.5118110236220472,"duration":"0.01"},{"name":"D5","midi":74,"time":"495.23","velocity":0.28346456692913385,"duration":"0.06"},{"name":"G5","midi":79,"time":"495.23","velocity":0.44881889763779526,"duration":"0.03"},{"name":"D#6","midi":87,"time":"495.23","velocity":0.49606299212598426,"duration":"0.20"},{"name":"C3","midi":48,"time":"495.24","velocity":0.5590551181102362,"duration":"0.01"},{"name":"A#6","midi":94,"time":"495.24","velocity":0.2440944881889764,"duration":"0.14"},{"name":"A#2","midi":46,"time":"495.26","velocity":0.5118110236220472,"duration":"0.01"},{"name":"B3","midi":59,"time":"495.26","velocity":0.4251968503937008,"duration":"0.02"},{"name":"F#5","midi":78,"time":"495.26","velocity":0.2283464566929134,"duration":"0.07"},{"name":"G2","midi":43,"time":"495.27","velocity":0.49606299212598426,"duration":"0.03"},{"name":"C#3","midi":49,"time":"495.27","velocity":0.4330708661417323,"duration":"0.02"},{"name":"D4","midi":62,"time":"495.27","velocity":0.30708661417322836,"duration":"0.02"},{"name":"E4","midi":64,"time":"495.27","velocity":0.25984251968503935,"duration":"0.05"},{"name":"F5","midi":77,"time":"495.27","velocity":0.2440944881889764,"duration":"0.02"},{"name":"A5","midi":81,"time":"495.27","velocity":0.3228346456692913,"duration":"0.03"},{"name":"C#6","midi":85,"time":"495.29","velocity":0.23622047244094488,"duration":"0.03"},{"name":"F6","midi":89,"time":"495.29","velocity":0.14960629921259844,"duration":"0.05"},{"name":"C3","midi":48,"time":"495.30","velocity":0.5511811023622047,"duration":"0.05"},{"name":"G6","midi":91,"time":"495.30","velocity":0.2204724409448819,"duration":"0.09"},{"name":"D7","midi":98,"time":"495.31","velocity":0.3937007874015748,"duration":"0.53"},{"name":"D#5","midi":75,"time":"495.34","velocity":0.33858267716535434,"duration":"0.05"},{"name":"F#5","midi":78,"time":"495.34","velocity":0.2204724409448819,"duration":"0.05"},{"name":"C#6","midi":85,"time":"495.34","velocity":0.28346456692913385,"duration":"0.08"},{"name":"A6","midi":93,"time":"495.35","velocity":0.3464566929133858,"duration":"0.02"},{"name":"E5","midi":76,"time":"495.37","velocity":0.33070866141732286,"duration":"0.06"},{"name":"G2","midi":43,"time":"495.38","velocity":0.5118110236220472,"duration":"0.01"},{"name":"C5","midi":72,"time":"495.38","velocity":0.2440944881889764,"duration":"0.02"},{"name":"A5","midi":81,"time":"495.38","velocity":0.2677165354330709,"duration":"0.05"},{"name":"G6","midi":91,"time":"495.41","velocity":0.41732283464566927,"duration":"0.05"},{"name":"E4","midi":64,"time":"495.42","velocity":0.3464566929133858,"duration":"0.02"},{"name":"A#5","midi":82,"time":"495.42","velocity":0.4251968503937008,"duration":"0.02"},{"name":"F6","midi":89,"time":"495.42","velocity":0.2440944881889764,"duration":"0.12"},{"name":"D#3","midi":51,"time":"495.43","velocity":0.47244094488188976,"duration":"0.02"},{"name":"A3","midi":57,"time":"495.43","velocity":0.4409448818897638,"duration":"0.05"},{"name":"A4","midi":69,"time":"495.43","velocity":0.4409448818897638,"duration":"0.02"},{"name":"D5","midi":74,"time":"495.43","velocity":0.2755905511811024,"duration":"0.05"},{"name":"F#5","midi":78,"time":"495.43","velocity":0.33858267716535434,"duration":"0.03"},{"name":"B5","midi":83,"time":"495.43","velocity":0.4330708661417323,"duration":"0.23"},{"name":"C#6","midi":85,"time":"495.43","velocity":0.2125984251968504,"duration":"0.03"},{"name":"D4","midi":62,"time":"495.44","velocity":0.30708661417322836,"duration":"0.03"},{"name":"D#6","midi":87,"time":"495.44","velocity":0.44881889763779526,"duration":"0.44"},{"name":"E5","midi":76,"time":"495.45","velocity":0.3937007874015748,"duration":"0.19"},{"name":"A5","midi":81,"time":"495.45","velocity":0.5039370078740157,"duration":"0.03"},{"name":"A4","midi":69,"time":"495.47","velocity":0.6220472440944882,"duration":"0.01"},{"name":"B4","midi":71,"time":"495.47","velocity":0.3700787401574803,"duration":"0.10"},{"name":"G6","midi":91,"time":"495.47","velocity":0.3228346456692913,"duration":"0.16"},{"name":"E2","midi":40,"time":"495.48","velocity":0.3858267716535433,"duration":"0.02"},{"name":"G#4","midi":68,"time":"495.48","velocity":0.6377952755905512,"duration":"0.01"},{"name":"C#6","midi":85,"time":"495.48","velocity":0.25196850393700787,"duration":"0.06"},{"name":"E4","midi":64,"time":"495.49","velocity":0.4645669291338583,"duration":"0.06"},{"name":"G4","midi":67,"time":"495.49","velocity":0.5826771653543307,"duration":"0.03"},{"name":"A4","midi":69,"time":"495.49","velocity":0.3779527559055118,"duration":"0.02"},{"name":"C#5","midi":73,"time":"495.49","velocity":0.29133858267716534,"duration":"0.02"},{"name":"G#5","midi":80,"time":"495.49","velocity":0.5354330708661418,"duration":"0.03"},{"name":"D3","midi":50,"time":"495.50","velocity":0.4566929133858268,"duration":"0.02"},{"name":"A3","midi":57,"time":"495.50","velocity":0.4094488188976378,"duration":"0.03"},{"name":"C#4","midi":61,"time":"495.50","velocity":0.4094488188976378,"duration":"0.02"},{"name":"A6","midi":93,"time":"495.50","velocity":0.33858267716535434,"duration":"0.16"},{"name":"C6","midi":84,"time":"495.51","velocity":0.2047244094488189,"duration":"0.03"},{"name":"G#4","midi":68,"time":"495.52","velocity":0.5590551181102362,"duration":"0.05"},{"name":"C#5","midi":73,"time":"495.52","velocity":0.2677165354330709,"duration":"0.02"},{"name":"F5","midi":77,"time":"495.52","velocity":0.36220472440944884,"duration":"0.02"},{"name":"A5","midi":81,"time":"495.52","velocity":0.30708661417322836,"duration":"0.03"},{"name":"D6","midi":86,"time":"495.52","velocity":0.2992125984251969,"duration":"0.03"},{"name":"F#5","midi":78,"time":"495.55","velocity":0.33070866141732286,"duration":"0.02"},{"name":"C#6","midi":85,"time":"495.55","velocity":0.48031496062992124,"duration":"0.28"},{"name":"A#3","midi":58,"time":"495.56","velocity":0.3858267716535433,"duration":"0.02"},{"name":"F#4","midi":66,"time":"495.56","velocity":0.5669291338582677,"duration":"0.08"},{"name":"C6","midi":84,"time":"495.56","velocity":0.2204724409448819,"duration":"0.12"},{"name":"F6","midi":89,"time":"495.56","velocity":0.2047244094488189,"duration":"0.05"},{"name":"C5","midi":72,"time":"495.57","velocity":0.28346456692913385,"duration":"0.03"},{"name":"G5","midi":79,"time":"495.57","velocity":0.4566929133858268,"duration":"0.02"},{"name":"E3","midi":52,"time":"495.58","velocity":0.4409448818897638,"duration":"0.02"},{"name":"G#4","midi":68,"time":"495.58","velocity":0.5354330708661418,"duration":"0.08"},{"name":"C4","midi":60,"time":"495.59","velocity":0.30708661417322836,"duration":"0.02"},{"name":"B4","midi":71,"time":"495.59","velocity":0.4645669291338583,"duration":"0.08"},{"name":"A5","midi":81,"time":"495.59","velocity":0.2755905511811024,"duration":"0.03"},{"name":"C#5","midi":73,"time":"495.60","velocity":0.3700787401574803,"duration":"0.02"},{"name":"C#3","midi":49,"time":"495.62","velocity":0.5275590551181102,"duration":"0.01"},{"name":"A#3","midi":58,"time":"495.62","velocity":0.4645669291338583,"duration":"0.02"},{"name":"D3","midi":50,"time":"495.63","velocity":0.5748031496062992,"duration":"0.12"},{"name":"E1","midi":28,"time":"495.64","velocity":0.33858267716535434,"duration":"0.05"},{"name":"F6","midi":89,"time":"495.64","velocity":0.2125984251968504,"duration":"0.07"},{"name":"G6","midi":91,"time":"495.64","velocity":0.3779527559055118,"duration":"0.36"},{"name":"F#4","midi":66,"time":"495.65","velocity":0.3937007874015748,"duration":"0.03"},{"name":"A4","midi":69,"time":"495.65","velocity":0.4645669291338583,"duration":"0.03"},{"name":"C#5","midi":73,"time":"495.65","velocity":0.28346456692913385,"duration":"0.08"},{"name":"E5","midi":76,"time":"495.65","velocity":0.3464566929133858,"duration":"0.07"},{"name":"A#3","midi":58,"time":"495.66","velocity":0.41732283464566927,"duration":"0.02"},{"name":"A#5","midi":82,"time":"495.66","velocity":0.23622047244094488,"duration":"0.05"},{"name":"E6","midi":88,"time":"495.67","velocity":0.3464566929133858,"duration":"0.06"},{"name":"A6","midi":93,"time":"495.67","velocity":0.33070866141732286,"duration":"0.30"},{"name":"G#4","midi":68,"time":"495.69","velocity":0.5354330708661418,"duration":"0.06"},{"name":"B4","midi":71,"time":"495.69","velocity":0.2992125984251969,"duration":"0.02"},{"name":"C7","midi":96,"time":"495.69","velocity":0.30708661417322836,"duration":"0.20"},{"name":"C#4","midi":61,"time":"495.71","velocity":0.44881889763779526,"duration":"0.05"},{"name":"B5","midi":83,"time":"495.71","velocity":0.3464566929133858,"duration":"0.16"},{"name":"B4","midi":71,"time":"495.72","velocity":0.41732283464566927,"duration":"0.07"},{"name":"D#5","midi":75,"time":"495.72","velocity":0.33070866141732286,"duration":"0.03"},{"name":"G5","midi":79,"time":"495.72","velocity":0.41732283464566927,"duration":"0.02"},{"name":"A5","midi":81,"time":"495.72","velocity":0.3228346456692913,"duration":"0.06"},{"name":"F6","midi":89,"time":"495.73","velocity":0.23622047244094488,"duration":"0.07"},{"name":"C#1","midi":25,"time":"495.74","velocity":0.2677165354330709,"duration":"0.02"},{"name":"C#3","midi":49,"time":"495.74","velocity":0.5748031496062992,"duration":"0.05"},{"name":"A3","midi":57,"time":"495.74","velocity":0.4094488188976378,"duration":"0.02"},{"name":"G4","midi":67,"time":"495.74","velocity":0.5275590551181102,"duration":"0.01"},{"name":"G#5","midi":80,"time":"495.74","velocity":0.5590551181102362,"duration":"0.10"},{"name":"E6","midi":88,"time":"495.74","velocity":0.33070866141732286,"duration":"0.09"},{"name":"F#4","midi":66,"time":"495.76","velocity":0.5511811023622047,"duration":"0.07"},{"name":"G#4","midi":68,"time":"495.76","velocity":0.47244094488188976,"duration":"0.02"},{"name":"E5","midi":76,"time":"495.76","velocity":0.3464566929133858,"duration":"0.08"},{"name":"A4","midi":69,"time":"495.78","velocity":0.4330708661417323,"duration":"0.02"},{"name":"D6","midi":86,"time":"495.78","velocity":0.28346456692913385,"duration":"0.02"},{"name":"A#2","midi":46,"time":"495.80","velocity":0.5905511811023622,"duration":"0.01"},{"name":"E3","midi":52,"time":"495.80","velocity":0.5118110236220472,"duration":"0.01"},{"name":"F#2","midi":42,"time":"495.81","velocity":0.6220472440944882,"duration":"0.03"},{"name":"D3","midi":50,"time":"495.81","velocity":0.5590551181102362,"duration":"0.20"},{"name":"A#4","midi":70,"time":"495.81","velocity":0.3779527559055118,"duration":"0.02"},{"name":"C6","midi":84,"time":"495.81","velocity":0.25984251968503935,"duration":"0.02"},{"name":"F6","midi":89,"time":"495.81","velocity":0.1732283464566929,"duration":"0.03"},{"name":"F4","midi":65,"time":"495.83","velocity":0.5275590551181102,"duration":"0.03"},{"name":"G#4","midi":68,"time":"495.83","velocity":0.3464566929133858,"duration":"0.02"},{"name":"D#5","midi":75,"time":"495.83","velocity":0.28346456692913385,"duration":"0.02"},{"name":"D6","midi":86,"time":"495.83","velocity":0.31496062992125984,"duration":"0.03"},{"name":"G#3","midi":56,"time":"495.84","velocity":0.4881889763779528,"duration":"0.02"},{"name":"B4","midi":71,"time":"495.84","velocity":0.36220472440944884,"duration":"0.06"},{"name":"C#6","midi":85,"time":"495.84","velocity":0.44881889763779526,"duration":"0.49"},{"name":"F#1","midi":30,"time":"495.85","velocity":0.5196850393700787,"duration":"0.02"},{"name":"C5","midi":72,"time":"495.85","velocity":0.25984251968503935,"duration":"0.02"},{"name":"D5","midi":74,"time":"495.85","velocity":0.28346456692913385,"duration":"0.02"},{"name":"G5","midi":79,"time":"495.85","velocity":0.49606299212598426,"duration":"0.09"},{"name":"E6","midi":88,"time":"495.85","velocity":0.4094488188976378,"duration":"0.31"},{"name":"E4","midi":64,"time":"495.86","velocity":0.4881889763779528,"duration":"0.05"},{"name":"G#4","midi":68,"time":"495.86","velocity":0.6062992125984252,"duration":"0.02"},{"name":"F6","midi":89,"time":"495.86","velocity":0.25196850393700787,"duration":"0.12"},{"name":"G#6","midi":92,"time":"495.86","velocity":0.31496062992125984,"duration":"0.03"},{"name":"D7","midi":98,"time":"495.86","velocity":0.29133858267716534,"duration":"0.33"},{"name":"A5","midi":81,"time":"495.87","velocity":0.4330708661417323,"duration":"0.09"},{"name":"C6","midi":84,"time":"495.87","velocity":0.2047244094488189,"duration":"0.03"},{"name":"A#6","midi":94,"time":"495.87","velocity":0.33858267716535434,"duration":"0.34"},{"name":"G#3","midi":56,"time":"495.88","velocity":0.33858267716535434,"duration":"0.02"},{"name":"G4","midi":67,"time":"495.88","velocity":0.5354330708661418,"duration":"0.01"},{"name":"D5","midi":74,"time":"495.88","velocity":0.2755905511811024,"duration":"0.09"},{"name":"D6","midi":86,"time":"495.88","velocity":0.33858267716535434,"duration":"0.17"},{"name":"G#4","midi":68,"time":"495.90","velocity":0.4645669291338583,"duration":"0.03"},{"name":"D#6","midi":87,"time":"495.90","velocity":0.2992125984251969,"duration":"0.08"},{"name":"A3","midi":57,"time":"495.91","velocity":0.4645669291338583,"duration":"0.02"},{"name":"B4","midi":71,"time":"495.91","velocity":0.23622047244094488,"duration":"0.02"},{"name":"C7","midi":96,"time":"495.91","velocity":0.4251968503937008,"duration":"0.53"},{"name":"F5","midi":77,"time":"495.92","velocity":0.33858267716535434,"duration":"0.05"},{"name":"A#3","midi":58,"time":"495.93","velocity":0.4094488188976378,"duration":"0.02"},{"name":"F4","midi":65,"time":"495.93","velocity":0.5275590551181102,"duration":"0.05"},{"name":"G#5","midi":80,"time":"495.93","velocity":0.4881889763779528,"duration":"0.05"},{"name":"C6","midi":84,"time":"495.93","velocity":0.2440944881889764,"duration":"0.05"},{"name":"F#6","midi":90,"time":"495.93","velocity":0.3937007874015748,"duration":"0.63"},{"name":"G#4","midi":68,"time":"495.94","velocity":0.49606299212598426,"duration":"0.02"},{"name":"B5","midi":83,"time":"495.94","velocity":0.25196850393700787,"duration":"0.15"},{"name":"A3","midi":57,"time":"495.95","velocity":0.36220472440944884,"duration":"0.02"},{"name":"E5","midi":76,"time":"495.95","velocity":0.30708661417322836,"duration":"0.20"},{"name":"F#5","midi":78,"time":"495.95","velocity":0.3779527559055118,"duration":"0.03"},{"name":"C5","midi":72,"time":"495.97","velocity":0.25984251968503935,"duration":"0.03"},{"name":"G5","midi":79,"time":"495.97","velocity":0.4566929133858268,"duration":"0.03"},{"name":"F#4","midi":66,"time":"495.98","velocity":0.6062992125984252,"duration":"0.59"},{"name":"A4","midi":69,"time":"495.98","velocity":0.5905511811023622,"duration":"0.27"},{"name":"C#5","midi":73,"time":"495.99","velocity":0.2755905511811024,"duration":"0.05"},{"name":"G#5","midi":80,"time":"495.99","velocity":0.2992125984251969,"duration":"0.02"},{"name":"G5","midi":79,"time":"496.01","velocity":0.2677165354330709,"duration":"0.02"},{"name":"D#6","midi":87,"time":"496.01","velocity":0.31496062992125984,"duration":"0.07"},{"name":"G6","midi":91,"time":"496.01","velocity":0.33858267716535434,"duration":"0.06"},{"name":"C#3","midi":49,"time":"496.02","velocity":0.4566929133858268,"duration":"0.02"},{"name":"A3","midi":57,"time":"496.02","velocity":0.3464566929133858,"duration":"0.03"},{"name":"D4","midi":62,"time":"496.02","velocity":0.3779527559055118,"duration":"0.14"},{"name":"F6","midi":89,"time":"496.05","velocity":0.28346456692913385,"duration":"0.19"},{"name":"D#3","midi":51,"time":"496.06","velocity":0.5669291338582677,"duration":"0.01"},{"name":"C#5","midi":73,"time":"496.06","velocity":0.2283464566929134,"duration":"0.03"},{"name":"G#6","midi":92,"time":"496.06","velocity":0.31496062992125984,"duration":"0.31"},{"name":"D3","midi":50,"time":"496.07","velocity":0.5748031496062992,"duration":"0.01"},{"name":"C#3","midi":49,"time":"496.08","velocity":0.5511811023622047,"duration":"0.02"},{"name":"A3","midi":57,"time":"496.09","velocity":0.3700787401574803,"duration":"0.02"},{"name":"G5","midi":79,"time":"496.09","velocity":0.5118110236220472,"duration":"0.03"},{"name":"D#6","midi":87,"time":"496.09","velocity":0.25196850393700787,"duration":"0.15"},{"name":"D3","midi":50,"time":"496.10","velocity":0.5590551181102362,"duration":"0.01"},{"name":"C5","midi":72,"time":"496.10","velocity":0.2755905511811024,"duration":"0.02"},{"name":"D#5","midi":75,"time":"496.10","velocity":0.2755905511811024,"duration":"0.02"},{"name":"B5","midi":83,"time":"496.10","velocity":0.28346456692913385,"duration":"0.03"},{"name":"D#3","midi":51,"time":"496.12","velocity":0.5748031496062992,"duration":"0.01"},{"name":"D3","midi":50,"time":"496.13","velocity":0.5511811023622047,"duration":"0.03"},{"name":"C#5","midi":73,"time":"496.13","velocity":0.29133858267716534,"duration":"0.12"},{"name":"C6","midi":84,"time":"496.13","velocity":0.25196850393700787,"duration":"0.06"},{"name":"D#2","midi":39,"time":"496.14","velocity":0.3464566929133858,"duration":"0.02"},{"name":"D6","midi":86,"time":"496.14","velocity":0.2755905511811024,"duration":"0.27"},{"name":"B4","midi":71,"time":"496.15","velocity":0.29133858267716534,"duration":"0.02"},{"name":"G6","midi":91,"time":"496.15","velocity":0.28346456692913385,"duration":"0.05"},{"name":"C2","midi":36,"time":"496.16","velocity":0.3464566929133858,"duration":"0.02"},{"name":"D#3","midi":51,"time":"496.16","velocity":0.5433070866141733,"duration":"0.01"},{"name":"E5","midi":76,"time":"496.16","velocity":0.3228346456692913,"duration":"0.06"},{"name":"G7","midi":103,"time":"496.16","velocity":0.3228346456692913,"duration":"0.10"},{"name":"C#3","midi":49,"time":"496.17","velocity":0.5590551181102362,"duration":"0.01"},{"name":"B5","midi":83,"time":"496.19","velocity":0.2755905511811024,"duration":"0.06"},{"name":"E6","midi":88,"time":"496.19","velocity":0.3464566929133858,"duration":"0.20"},{"name":"C3","midi":48,"time":"496.21","velocity":0.5196850393700787,"duration":"0.01"},{"name":"A3","midi":57,"time":"496.21","velocity":0.4015748031496063,"duration":"0.02"},{"name":"G6","midi":91,"time":"496.21","velocity":0.2047244094488189,"duration":"0.05"},{"name":"D7","midi":98,"time":"496.21","velocity":0.28346456692913385,"duration":"0.16"},{"name":"C#3","midi":49,"time":"496.22","velocity":0.5826771653543307,"duration":"0.01"},{"name":"G#5","midi":80,"time":"496.22","velocity":0.3228346456692913,"duration":"0.02"},{"name":"A#6","midi":94,"time":"496.22","velocity":0.31496062992125984,"duration":"0.06"},{"name":"D3","midi":50,"time":"496.23","velocity":0.5748031496062992,"duration":"0.01"},{"name":"D#3","midi":51,"time":"496.24","velocity":0.5275590551181102,"duration":"0.01"},{"name":"B4","midi":71,"time":"496.24","velocity":0.33858267716535434,"duration":"0.02"},{"name":"C6","midi":84,"time":"496.24","velocity":0.33070866141732286,"duration":"0.13"},{"name":"D3","midi":50,"time":"496.26","velocity":0.5118110236220472,"duration":"0.09"},{"name":"E5","midi":76,"time":"496.27","velocity":0.30708661417322836,"duration":"0.03"},{"name":"G#5","midi":80,"time":"496.27","velocity":0.33070866141732286,"duration":"0.03"},{"name":"G6","midi":91,"time":"496.27","velocity":0.3464566929133858,"duration":"0.37"},{"name":"A4","midi":69,"time":"496.28","velocity":0.5118110236220472,"duration":"0.09"},{"name":"A#6","midi":94,"time":"496.29","velocity":0.2992125984251969,"duration":"0.08"},{"name":"D#6","midi":87,"time":"496.30","velocity":0.23622047244094488,"duration":"0.05"},{"name":"F6","midi":89,"time":"496.30","velocity":0.29133858267716534,"duration":"0.06"},{"name":"G5","midi":79,"time":"496.31","velocity":0.30708661417322836,"duration":"0.02"},{"name":"B5","midi":83,"time":"496.35","velocity":0.29133858267716534,"duration":"0.08"},{"name":"D3","midi":50,"time":"496.36","velocity":0.5748031496062992,"duration":"0.21"},{"name":"C#5","midi":73,"time":"496.36","velocity":0.3700787401574803,"duration":"0.06"},{"name":"G#4","midi":68,"time":"496.37","velocity":0.5118110236220472,"duration":"0.01"},{"name":"C#6","midi":85,"time":"496.37","velocity":0.4251968503937008,"duration":"0.12"},{"name":"F6","midi":89,"time":"496.37","velocity":0.30708661417322836,"duration":"0.06"},{"name":"A4","midi":69,"time":"496.38","velocity":0.6062992125984252,"duration":"0.20"},{"name":"E5","midi":76,"time":"496.38","velocity":0.3464566929133858,"duration":"0.13"},{"name":"D#6","midi":87,"time":"496.38","velocity":0.1968503937007874,"duration":"0.05"},{"name":"G#6","midi":92,"time":"496.38","velocity":0.33070866141732286,"duration":"0.24"},{"name":"A#6","midi":94,"time":"496.38","velocity":0.31496062992125984,"duration":"0.12"},{"name":"D7","midi":98,"time":"496.38","velocity":0.30708661417322836,"duration":"0.17"},{"name":"G5","midi":79,"time":"496.40","velocity":0.49606299212598426,"duration":"0.02"},{"name":"G#5","midi":80,"time":"496.42","velocity":0.3464566929133858,"duration":"0.02"},{"name":"B6","midi":95,"time":"496.42","velocity":0.33070866141732286,"duration":"0.34"},{"name":"C6","midi":84,"time":"496.43","velocity":0.28346456692913385,"duration":"0.07"},{"name":"C#5","midi":73,"time":"496.44","velocity":0.25196850393700787,"duration":"0.07"},{"name":"D6","midi":86,"time":"496.45","velocity":0.2677165354330709,"duration":"0.08"},{"name":"F6","midi":89,"time":"496.45","velocity":0.28346456692913385,"duration":"0.03"},{"name":"A3","midi":57,"time":"496.47","velocity":0.29133858267716534,"duration":"0.02"},{"name":"G#5","midi":80,"time":"496.48","velocity":0.2755905511811024,"duration":"0.03"},{"name":"B5","midi":83,"time":"496.48","velocity":0.25196850393700787,"duration":"0.07"},{"name":"C#6","midi":85,"time":"496.50","velocity":0.48031496062992124,"duration":"0.67"},{"name":"F6","midi":89,"time":"496.50","velocity":0.3228346456692913,"duration":"0.13"},{"name":"C7","midi":96,"time":"496.50","velocity":0.25984251968503935,"duration":"0.17"},{"name":"C6","midi":84,"time":"496.51","velocity":0.28346456692913385,"duration":"0.05"},{"name":"D#6","midi":87,"time":"496.51","velocity":0.25196850393700787,"duration":"0.07"},{"name":"A#6","midi":94,"time":"496.51","velocity":0.25984251968503935,"duration":"0.08"},{"name":"C2","midi":36,"time":"496.52","velocity":0.36220472440944884,"duration":"0.02"},{"name":"C#5","midi":73,"time":"496.52","velocity":0.33858267716535434,"duration":"0.08"},{"name":"A3","midi":57,"time":"496.53","velocity":0.3464566929133858,"duration":"0.02"},{"name":"E5","midi":76,"time":"496.55","velocity":0.2677165354330709,"duration":"0.03"},{"name":"B5","midi":83,"time":"496.56","velocity":0.28346456692913385,"duration":"0.03"},{"name":"E3","midi":52,"time":"496.57","velocity":0.4645669291338583,"duration":"0.02"},{"name":"A3","midi":57,"time":"496.57","velocity":0.4330708661417323,"duration":"0.02"},{"name":"D#5","midi":75,"time":"496.57","velocity":0.3937007874015748,"duration":"0.02"},{"name":"E6","midi":88,"time":"496.57","velocity":0.36220472440944884,"duration":"0.13"},{"name":"D7","midi":98,"time":"496.57","velocity":0.28346456692913385,"duration":"0.28"},{"name":"E4","midi":64,"time":"496.58","velocity":0.5118110236220472,"duration":"0.02"},{"name":"G#4","midi":68,"time":"496.58","velocity":0.5039370078740157,"duration":"0.02"},{"name":"F#5","midi":78,"time":"496.58","velocity":0.5275590551181102,"duration":"0.06"},{"name":"D3","midi":50,"time":"496.59","velocity":0.48031496062992124,"duration":"0.06"},{"name":"G#3","midi":56,"time":"496.59","velocity":0.41732283464566927,"duration":"0.02"},{"name":"A#5","midi":82,"time":"496.59","velocity":0.25196850393700787,"duration":"0.02"},{"name":"C6","midi":84,"time":"496.59","velocity":0.25984251968503935,"duration":"0.02"},{"name":"D6","midi":86,"time":"496.59","velocity":0.3228346456692913,"duration":"0.02"},{"name":"D#6","midi":87,"time":"496.59","velocity":0.28346456692913385,"duration":"0.08"},{"name":"G#1","midi":32,"time":"496.60","velocity":0.2992125984251969,"duration":"0.02"},{"name":"F#4","midi":66,"time":"496.60","velocity":0.6456692913385826,"duration":"1.36"},{"name":"A#4","midi":70,"time":"496.60","velocity":0.4645669291338583,"duration":"0.02"},{"name":"C5","midi":72,"time":"496.60","velocity":0.3228346456692913,"duration":"0.02"},{"name":"A#6","midi":94,"time":"496.60","velocity":0.4094488188976378,"duration":"1.78"},{"name":"G#5","midi":80,"time":"496.62","velocity":0.1889763779527559,"duration":"0.03"},{"name":"F#1","midi":30,"time":"496.63","velocity":0.23622047244094488,"duration":"0.02"},{"name":"A4","midi":69,"time":"496.63","velocity":0.49606299212598426,"duration":"0.03"},{"name":"C#5","midi":73,"time":"496.63","velocity":0.28346456692913385,"duration":"0.02"},{"name":"C6","midi":84,"time":"496.63","velocity":0.29133858267716534,"duration":"0.06"},{"name":"B3","midi":59,"time":"496.64","velocity":0.4015748031496063,"duration":"0.03"},{"name":"D5","midi":74,"time":"496.64","velocity":0.33858267716535434,"duration":"0.02"},{"name":"G#6","midi":92,"time":"496.64","velocity":0.28346456692913385,"duration":"0.03"},{"name":"G6","midi":91,"time":"496.65","velocity":0.2992125984251969,"duration":"0.10"},{"name":"D#7","midi":99,"time":"496.65","velocity":0.28346456692913385,"duration":"0.13"},{"name":"G#4","midi":68,"time":"496.66","velocity":0.4094488188976378,"duration":"0.02"},{"name":"C#5","midi":73,"time":"496.66","velocity":0.29133858267716534,"duration":"0.02"},{"name":"A#3","midi":58,"time":"496.67","velocity":0.4251968503937008,"duration":"0.02"},{"name":"E5","midi":76,"time":"496.67","velocity":0.2992125984251969,"duration":"0.10"},{"name":"F6","midi":89,"time":"496.67","velocity":0.2440944881889764,"duration":"0.06"},{"name":"D3","midi":50,"time":"496.69","velocity":0.5748031496062992,"duration":"0.19"},{"name":"A4","midi":69,"time":"496.69","velocity":0.5433070866141733,"duration":"0.07"},{"name":"D5","midi":74,"time":"496.69","velocity":0.31496062992125984,"duration":"0.06"},{"name":"D#6","midi":87,"time":"496.69","velocity":0.13385826771653545,"duration":"0.06"},{"name":"B3","midi":59,"time":"496.70","velocity":0.4251968503937008,"duration":"0.02"},{"name":"G#6","midi":92,"time":"496.70","velocity":0.33858267716535434,"duration":"0.56"},{"name":"G7","midi":103,"time":"496.70","velocity":0.3228346456692913,"duration":"1.15"},{"name":"E6","midi":88,"time":"496.71","velocity":0.3228346456692913,"duration":"0.05"},{"name":"C7","midi":96,"time":"496.71","velocity":0.31496062992125984,"duration":"0.34"},{"name":"C5","midi":72,"time":"496.73","velocity":0.2283464566929134,"duration":"0.02"},{"name":"B5","midi":83,"time":"496.73","velocity":0.25196850393700787,"duration":"0.02"},{"name":"A#3","midi":58,"time":"496.74","velocity":0.41732283464566927,"duration":"0.03"},{"name":"F6","midi":89,"time":"496.74","velocity":0.3228346456692913,"duration":"0.19"},{"name":"C#5","midi":73,"time":"496.76","velocity":0.4015748031496063,"duration":"0.22"},{"name":"A#5","midi":82,"time":"496.76","velocity":0.33858267716535434,"duration":"0.02"},{"name":"A4","midi":69,"time":"496.77","velocity":0.5354330708661418,"duration":"0.07"},{"name":"D#6","midi":87,"time":"496.77","velocity":0.1968503937007874,"duration":"0.05"},{"name":"G6","midi":91,"time":"496.77","velocity":0.2755905511811024,"duration":"0.13"},{"name":"A3","midi":57,"time":"496.78","velocity":0.4094488188976378,"duration":"0.03"},{"name":"C6","midi":84,"time":"496.78","velocity":0.2440944881889764,"duration":"0.05"},{"name":"B6","midi":95,"time":"496.79","velocity":0.36220472440944884,"duration":"0.97"},{"name":"D#7","midi":99,"time":"496.79","velocity":0.36220472440944884,"duration":"1.66"},{"name":"A3","midi":57,"time":"496.83","velocity":0.4094488188976378,"duration":"0.09"},{"name":"B5","midi":83,"time":"496.84","velocity":0.23622047244094488,"duration":"0.02"},{"name":"A4","midi":69,"time":"496.85","velocity":0.5984251968503937,"duration":"0.08"},{"name":"E5","midi":76,"time":"496.85","velocity":0.25984251968503935,"duration":"0.05"},{"name":"C6","midi":84,"time":"496.86","velocity":0.2440944881889764,"duration":"0.05"},{"name":"D7","midi":98,"time":"496.86","velocity":0.2755905511811024,"duration":"0.13"},{"name":"D#3","midi":51,"time":"496.87","velocity":0.5354330708661418,"duration":"0.01"},{"name":"E6","midi":88,"time":"496.87","velocity":0.2992125984251969,"duration":"0.12"},{"name":"D3","midi":50,"time":"496.88","velocity":0.5118110236220472,"duration":"0.06"},{"name":"D#6","midi":87,"time":"496.90","velocity":0.1968503937007874,"duration":"0.03"},{"name":"B5","midi":83,"time":"496.91","velocity":0.28346456692913385,"duration":"0.03"},{"name":"D#5","midi":75,"time":"496.92","velocity":0.2440944881889764,"duration":"0.03"},{"name":"A#3","midi":58,"time":"496.93","velocity":0.33070866141732286,"duration":"0.05"},{"name":"G#4","midi":68,"time":"496.93","velocity":0.41732283464566927,"duration":"0.02"},{"name":"A#5","midi":82,"time":"496.93","velocity":0.3543307086614173,"duration":"0.05"},{"name":"G1","midi":31,"time":"496.94","velocity":0.31496062992125984,"duration":"0.02"},{"name":"F5","midi":77,"time":"496.94","velocity":0.4330708661417323,"duration":"0.02"},{"name":"D#6","midi":87,"time":"496.94","velocity":0.25984251968503935,"duration":"0.10"},{"name":"G6","midi":91,"time":"496.94","velocity":0.29133858267716534,"duration":"0.08"},{"name":"D3","midi":50,"time":"496.95","velocity":0.5039370078740157,"duration":"0.02"},{"name":"A4","midi":69,"time":"496.95","velocity":0.5748031496062992,"duration":"0.13"},{"name":"C6","midi":84,"time":"496.95","velocity":0.28346456692913385,"duration":"0.09"},{"name":"E5","midi":76,"time":"496.97","velocity":0.3543307086614173,"duration":"0.02"},{"name":"A3","midi":57,"time":"496.98","velocity":0.30708661417322836,"duration":"0.02"},{"name":"D#5","midi":75,"time":"496.98","velocity":0.31496062992125984,"duration":"0.02"},{"name":"D6","midi":86,"time":"496.98","velocity":0.28346456692913385,"duration":"0.10"},{"name":"A2","midi":45,"time":"496.99","velocity":0.4330708661417323,"duration":"0.02"},{"name":"C#5","midi":73,"time":"496.99","velocity":0.3228346456692913,"duration":"0.09"},{"name":"A#5","midi":82,"time":"496.99","velocity":0.25196850393700787,"duration":"0.02"},{"name":"E5","midi":76,"time":"497.00","velocity":0.30708661417322836,"duration":"0.08"},{"name":"A3","midi":57,"time":"497.01","velocity":0.3779527559055118,"duration":"0.03"},{"name":"G#5","midi":80,"time":"497.01","velocity":0.2677165354330709,"duration":"0.02"},{"name":"E6","midi":88,"time":"497.01","velocity":0.4251968503937008,"duration":"0.21"},{"name":"B5","midi":83,"time":"497.02","velocity":0.3228346456692913,"duration":"0.08"},{"name":"D3","midi":50,"time":"497.03","velocity":0.3937007874015748,"duration":"0.03"},{"name":"C4","midi":60,"time":"497.03","velocity":0.28346456692913385,"duration":"0.05"},{"name":"D5","midi":74,"time":"497.03","velocity":0.2283464566929134,"duration":"0.02"},{"name":"G6","midi":91,"time":"497.03","velocity":0.29133858267716534,"duration":"0.14"},{"name":"D7","midi":98,"time":"497.03","velocity":0.30708661417322836,"duration":"0.42"},{"name":"D#6","midi":87,"time":"497.06","velocity":0.2204724409448819,"duration":"0.07"},{"name":"C7","midi":96,"time":"497.06","velocity":0.25196850393700787,"duration":"0.06"},{"name":"D3","midi":50,"time":"497.08","velocity":0.5196850393700787,"duration":"0.20"},{"name":"A3","midi":57,"time":"497.08","velocity":0.2755905511811024,"duration":"0.02"},{"name":"C#4","midi":61,"time":"497.08","velocity":0.30708661417322836,"duration":"0.02"},{"name":"F5","midi":77,"time":"497.08","velocity":0.49606299212598426,"duration":"0.03"},{"name":"A4","midi":69,"time":"497.09","velocity":0.5669291338582677,"duration":"0.30"},{"name":"C6","midi":84,"time":"497.09","velocity":0.29133858267716534,"duration":"0.02"},{"name":"C4","midi":60,"time":"497.10","velocity":0.29133858267716534,"duration":"0.02"},{"name":"C#5","midi":73,"time":"497.10","velocity":0.30708661417322836,"duration":"0.07"},{"name":"C#2","midi":37,"time":"497.12","velocity":0.4409448818897638,"duration":"0.03"},{"name":"B5","midi":83,"time":"497.12","velocity":0.31496062992125984,"duration":"0.09"},{"name":"D5","midi":74,"time":"497.13","velocity":0.28346456692913385,"duration":"0.03"},{"name":"A#3","midi":58,"time":"497.14","velocity":0.2992125984251969,"duration":"0.02"},{"name":"A#5","midi":82,"time":"497.14","velocity":0.2755905511811024,"duration":"0.02"},{"name":"C7","midi":96,"time":"497.14","velocity":0.2992125984251969,"duration":"0.02"},{"name":"C#4","midi":61,"time":"497.15","velocity":0.30708661417322836,"duration":"0.02"},{"name":"E5","midi":76,"time":"497.16","velocity":0.33070866141732286,"duration":"0.08"},{"name":"C7","midi":96,"time":"497.17","velocity":0.2755905511811024,"duration":"0.28"},{"name":"C#6","midi":85,"time":"497.19","velocity":0.41732283464566927,"duration":"0.66"},{"name":"C#2","midi":37,"time":"497.20","velocity":0.4094488188976378,"duration":"0.03"},{"name":"A#3","midi":58,"time":"497.20","velocity":0.3779527559055118,"duration":"0.03"},{"name":"D5","midi":74,"time":"497.20","velocity":0.2047244094488189,"duration":"0.03"},{"name":"C6","midi":84,"time":"497.20","velocity":0.3228346456692913,"duration":"0.03"},{"name":"D#6","midi":87,"time":"497.20","velocity":0.2047244094488189,"duration":"0.06"},{"name":"F6","midi":89,"time":"497.21","velocity":0.2440944881889764,"duration":"0.06"},{"name":"G6","midi":91,"time":"497.21","velocity":0.31496062992125984,"duration":"0.31"},{"name":"C#4","midi":61,"time":"497.22","velocity":0.3464566929133858,"duration":"0.02"},{"name":"A3","midi":57,"time":"497.23","velocity":0.33858267716535434,"duration":"0.07"},{"name":"F5","midi":77,"time":"497.23","velocity":0.44881889763779526,"duration":"0.03"},{"name":"B5","midi":83,"time":"497.23","velocity":0.3700787401574803,"duration":"0.17"},{"name":"C#5","midi":73,"time":"497.24","velocity":0.2047244094488189,"duration":"0.03"},{"name":"E6","midi":88,"time":"497.24","velocity":0.3464566929133858,"duration":"0.30"},{"name":"E5","midi":76,"time":"497.26","velocity":0.3937007874015748,"duration":"0.10"},{"name":"D#2","midi":39,"time":"497.27","velocity":0.3464566929133858,"duration":"0.02"},{"name":"G#6","midi":92,"time":"497.27","velocity":0.3228346456692913,"duration":"0.15"},{"name":"C5","midi":72,"time":"497.28","velocity":0.1968503937007874,"duration":"0.03"},{"name":"D5","midi":74,"time":"497.28","velocity":0.25984251968503935,"duration":"0.03"},{"name":"D3","midi":50,"time":"497.29","velocity":0.5354330708661418,"duration":"0.03"},{"name":"D#6","midi":87,"time":"497.29","velocity":0.2125984251968504,"duration":"0.05"},{"name":"F6","midi":89,"time":"497.30","velocity":0.2283464566929134,"duration":"0.06"},{"name":"A6","midi":93,"time":"497.30","velocity":0.3464566929133858,"duration":"0.19"},{"name":"A2","midi":45,"time":"497.33","velocity":0.6062992125984252,"duration":"0.01"},{"name":"D5","midi":74,"time":"497.33","velocity":0.25196850393700787,"duration":"0.02"},{"name":"D#1","midi":27,"time":"497.34","velocity":0.44881889763779526,"duration":"0.02"},{"name":"F2","midi":41,"time":"497.34","velocity":0.5905511811023622,"duration":"0.01"},{"name":"D4","midi":62,"time":"497.34","velocity":0.5039370078740157,"duration":"0.15"},{"name":"C#3","midi":49,"time":"497.35","velocity":0.5196850393700787,"duration":"0.01"},{"name":"F#1","midi":30,"time":"497.36","velocity":0.5511811023622047,"duration":"0.01"},{"name":"C5","midi":72,"time":"497.36","velocity":0.23622047244094488,"duration":"0.02"},{"name":"D#5","midi":75,"time":"497.36","velocity":0.25984251968503935,"duration":"0.03"},{"name":"D6","midi":86,"time":"497.36","velocity":0.14960629921259844,"duration":"0.06"},{"name":"F1","midi":29,"time":"497.37","velocity":0.5984251968503937,"duration":"0.01"},{"name":"D#3","midi":51,"time":"497.37","velocity":0.47244094488188976,"duration":"0.02"},{"name":"A3","midi":57,"time":"497.37","velocity":0.4015748031496063,"duration":"0.08"},{"name":"G5","midi":79,"time":"497.37","velocity":0.2440944881889764,"duration":"0.02"},{"name":"F#1","midi":30,"time":"497.38","velocity":0.5511811023622047,"duration":"0.01"},{"name":"C#5","midi":73,"time":"497.38","velocity":0.30708661417322836,"duration":"0.17"},{"name":"F6","midi":89,"time":"497.38","velocity":0.30708661417322836,"duration":"0.08"},{"name":"D3","midi":50,"time":"497.40","velocity":0.5039370078740157,"duration":"0.03"},{"name":"C5","midi":72,"time":"497.40","velocity":0.25984251968503935,"duration":"0.02"},{"name":"A#5","midi":82,"time":"497.40","velocity":0.3228346456692913,"duration":"0.05"},{"name":"A4","midi":69,"time":"497.41","velocity":0.5748031496062992,"duration":"0.24"},{"name":"E5","midi":76,"time":"497.42","velocity":0.3543307086614173,"duration":"0.12"},{"name":"G#6","midi":92,"time":"497.43","velocity":0.25196850393700787,"duration":"0.08"},{"name":"D3","midi":50,"time":"497.44","velocity":0.5196850393700787,"duration":"0.02"},{"name":"G#5","midi":80,"time":"497.44","velocity":0.2283464566929134,"duration":"0.02"},{"name":"A#3","midi":58,"time":"497.45","velocity":0.2677165354330709,"duration":"0.02"},{"name":"B5","midi":83,"time":"497.45","velocity":0.25196850393700787,"duration":"0.09"},{"name":"D6","midi":86,"time":"497.45","velocity":0.2125984251968504,"duration":"0.05"},{"name":"C7","midi":96,"time":"497.47","velocity":0.3228346456692913,"duration":"0.31"},{"name":"D3","midi":50,"time":"497.48","velocity":0.47244094488188976,"duration":"0.02"},{"name":"F6","midi":89,"time":"497.48","velocity":0.33858267716535434,"duration":"0.05"},{"name":"D7","midi":98,"time":"497.48","velocity":0.23622047244094488,"duration":"0.07"},{"name":"D#6","midi":87,"time":"497.49","velocity":0.2125984251968504,"duration":"0.05"},{"name":"B1","midi":35,"time":"497.50","velocity":0.4094488188976378,"duration":"0.02"},{"name":"C3","midi":48,"time":"497.50","velocity":0.4015748031496063,"duration":"0.02"},{"name":"A3","midi":57,"time":"497.50","velocity":0.3858267716535433,"duration":"0.03"},{"name":"D4","midi":62,"time":"497.50","velocity":0.4409448818897638,"duration":"0.06"},{"name":"D#5","midi":75,"time":"497.52","velocity":0.2755905511811024,"duration":"0.08"},{"name":"G#6","midi":92,"time":"497.52","velocity":0.30708661417322836,"duration":"0.31"},{"name":"F5","midi":77,"time":"497.53","velocity":0.44881889763779526,"duration":"0.03"},{"name":"F7","midi":101,"time":"497.53","velocity":0.33070866141732286,"duration":"0.49"},{"name":"D3","midi":50,"time":"497.55","velocity":0.5433070866141733,"duration":"0.14"},{"name":"G6","midi":91,"time":"497.55","velocity":0.2677165354330709,"duration":"0.02"},{"name":"B1","midi":35,"time":"497.56","velocity":0.44881889763779526,"duration":"0.02"},{"name":"G5","midi":79,"time":"497.56","velocity":0.23622047244094488,"duration":"0.02"},{"name":"B5","midi":83,"time":"497.56","velocity":0.25984251968503935,"duration":"0.03"},{"name":"A3","midi":57,"time":"497.57","velocity":0.4251968503937008,"duration":"0.03"},{"name":"D7","midi":98,"time":"497.57","velocity":0.3228346456692913,"duration":"0.19"},{"name":"C5","midi":72,"time":"497.58","velocity":0.2204724409448819,"duration":"0.05"},{"name":"E6","midi":88,"time":"497.58","velocity":0.33858267716535434,"duration":"0.26"},{"name":"C#4","midi":61,"time":"497.60","velocity":0.3700787401574803,"duration":"0.06"},{"name":"A#5","midi":82,"time":"497.60","velocity":0.16535433070866143,"duration":"0.03"},{"name":"G6","midi":91,"time":"497.60","velocity":0.31496062992125984,"duration":"0.16"},{"name":"E5","midi":76,"time":"497.63","velocity":0.31496062992125984,"duration":"0.02"},{"name":"C5","midi":72,"time":"497.64","velocity":0.31496062992125984,"duration":"0.03"},{"name":"D#5","midi":75,"time":"497.64","velocity":0.25196850393700787,"duration":"0.05"},{"name":"B5","midi":83,"time":"497.64","velocity":0.25196850393700787,"duration":"0.06"},{"name":"A4","midi":69,"time":"497.66","velocity":0.47244094488188976,"duration":"0.06"},{"name":"C#5","midi":73,"time":"497.67","velocity":0.31496062992125984,"duration":"0.13"},{"name":"E5","midi":76,"time":"497.67","velocity":0.2283464566929134,"duration":"0.03"},{"name":"A#5","midi":82,"time":"497.67","velocity":0.25196850393700787,"duration":"0.03"},{"name":"D#6","midi":87,"time":"497.67","velocity":0.2677165354330709,"duration":"0.09"},{"name":"C#2","midi":37,"time":"497.69","velocity":0.5433070866141733,"duration":"0.01"},{"name":"F6","midi":89,"time":"497.69","velocity":0.25196850393700787,"duration":"0.02"},{"name":"E2","midi":40,"time":"497.70","velocity":0.6299212598425197,"duration":"0.01"},{"name":"G#3","midi":56,"time":"497.70","velocity":0.4881889763779528,"duration":"0.03"},{"name":"D#5","midi":75,"time":"497.70","velocity":0.2677165354330709,"duration":"0.12"},{"name":"C6","midi":84,"time":"497.70","velocity":0.2283464566929134,"duration":"0.05"},{"name":"F2","midi":41,"time":"497.71","velocity":0.5984251968503937,"duration":"0.01"},{"name":"D6","midi":86,"time":"497.71","velocity":0.23622047244094488,"duration":"0.05"},{"name":"A1","midi":33,"time":"497.72","velocity":0.5118110236220472,"duration":"0.01"},{"name":"F#2","midi":42,"time":"497.72","velocity":0.5669291338582677,"duration":"0.01"},{"name":"G#5","midi":80,"time":"497.72","velocity":0.30708661417322836,"duration":"0.08"},{"name":"F6","midi":89,"time":"497.72","velocity":0.25196850393700787,"duration":"0.03"},{"name":"F#1","midi":30,"time":"497.73","velocity":0.5748031496062992,"duration":"0.02"},{"name":"B3","midi":59,"time":"497.73","velocity":0.2755905511811024,"duration":"0.02"},{"name":"F5","midi":77,"time":"497.73","velocity":0.36220472440944884,"duration":"0.03"},{"name":"D#3","midi":51,"time":"497.74","velocity":0.5196850393700787,"duration":"0.01"},{"name":"A4","midi":69,"time":"497.74","velocity":0.5905511811023622,"duration":"0.07"},{"name":"D3","midi":50,"time":"497.76","velocity":0.5905511811023622,"duration":"0.31"},{"name":"A#3","midi":58,"time":"497.76","velocity":0.4015748031496063,"duration":"0.02"},{"name":"B5","midi":83,"time":"497.77","velocity":0.2755905511811024,"duration":"0.03"},{"name":"D6","midi":86,"time":"497.77","velocity":0.25984251968503935,"duration":"0.10"},{"name":"D2","midi":38,"time":"497.78","velocity":0.33070866141732286,"duration":"0.02"},{"name":"A3","midi":57,"time":"497.78","velocity":0.3779527559055118,"duration":"0.05"},{"name":"G6","midi":91,"time":"497.78","velocity":0.2992125984251969,"duration":"0.09"},{"name":"B6","midi":95,"time":"497.78","velocity":0.33858267716535434,"duration":"0.50"},{"name":"C6","midi":84,"time":"497.80","velocity":0.33858267716535434,"duration":"0.15"},{"name":"C#5","midi":73,"time":"497.81","velocity":0.30708661417322836,"duration":"0.10"},{"name":"E5","midi":76,"time":"497.81","velocity":0.2992125984251969,"duration":"0.06"},{"name":"B5","midi":83,"time":"497.81","velocity":0.23622047244094488,"duration":"0.02"},{"name":"D#6","midi":87,"time":"497.81","velocity":0.2125984251968504,"duration":"0.05"},{"name":"A4","midi":69,"time":"497.83","velocity":0.4881889763779528,"duration":"0.05"},{"name":"F6","midi":89,"time":"497.84","velocity":0.2992125984251969,"duration":"0.07"},{"name":"G#6","midi":92,"time":"497.85","velocity":0.33858267716535434,"duration":"0.03"},{"name":"A#3","midi":58,"time":"497.86","velocity":0.28346456692913385,"duration":"0.02"},{"name":"C#6","midi":85,"time":"497.86","velocity":0.44881889763779526,"duration":"0.69"},{"name":"B4","midi":71,"time":"497.87","velocity":0.25984251968503935,"duration":"0.02"},{"name":"B5","midi":83,"time":"497.87","velocity":0.31496062992125984,"duration":"0.17"},{"name":"D#6","midi":87,"time":"497.87","velocity":0.16535433070866143,"duration":"0.03"},{"name":"A4","midi":69,"time":"497.88","velocity":0.5905511811023622,"duration":"0.16"},{"name":"G6","midi":91,"time":"497.88","velocity":0.3700787401574803,"duration":"0.09"},{"name":"E6","midi":88,"time":"497.90","velocity":0.3543307086614173,"duration":"0.40"},{"name":"A3","midi":57,"time":"497.91","velocity":0.3700787401574803,"duration":"0.02"},{"name":"G#6","midi":92,"time":"497.91","velocity":0.23622047244094488,"duration":"0.02"},{"name":"C#5","midi":73,"time":"497.93","velocity":0.1968503937007874,"duration":"0.07"},{"name":"D#6","midi":87,"time":"497.93","velocity":0.2204724409448819,"duration":"0.12"},{"name":"A3","midi":57,"time":"497.94","velocity":0.36220472440944884,"duration":"0.03"},{"name":"F6","midi":89,"time":"497.94","velocity":0.1732283464566929,"duration":"0.03"},{"name":"G#6","midi":92,"time":"497.94","velocity":0.31496062992125984,"duration":"0.48"},{"name":"E5","midi":76,"time":"497.95","velocity":0.25984251968503935,"duration":"0.03"},{"name":"C7","midi":96,"time":"497.97","velocity":0.2677165354330709,"duration":"0.24"},{"name":"A3","midi":57,"time":"497.99","velocity":0.4015748031496063,"duration":"0.06"},{"name":"F#4","midi":66,"time":"497.99","velocity":0.5984251968503937,"duration":"0.34"},{"name":"F5","midi":77,"time":"497.99","velocity":0.4330708661417323,"duration":"0.02"},{"name":"D#2","midi":39,"time":"498.00","velocity":0.28346456692913385,"duration":"0.02"},{"name":"G6","midi":91,"time":"498.01","velocity":0.2283464566929134,"duration":"0.02"},{"name":"C5","midi":72,"time":"498.02","velocity":0.2755905511811024,"duration":"0.02"},{"name":"A#5","midi":82,"time":"498.03","velocity":0.33070866141732286,"duration":"0.02"},{"name":"F7","midi":101,"time":"498.03","velocity":0.28346456692913385,"duration":"0.42"},{"name":"C#5","midi":73,"time":"498.05","velocity":0.30708661417322836,"duration":"0.02"},{"name":"G5","midi":79,"time":"498.05","velocity":0.2677165354330709,"duration":"0.02"},{"name":"G#5","midi":80,"time":"498.05","velocity":0.2283464566929134,"duration":"0.03"},{"name":"A5","midi":81,"time":"498.05","velocity":0.5354330708661418,"duration":"0.16"},{"name":"D6","midi":86,"time":"498.05","velocity":0.25984251968503935,"duration":"0.03"},{"name":"G6","midi":91,"time":"498.05","velocity":0.3543307086614173,"duration":"0.35"},{"name":"C4","midi":60,"time":"498.06","velocity":0.44881889763779526,"duration":"0.03"},{"name":"A4","midi":69,"time":"498.06","velocity":0.5905511811023622,"duration":"0.08"},{"name":"B5","midi":83,"time":"498.06","velocity":0.23622047244094488,"duration":"0.03"},{"name":"F#2","midi":42,"time":"498.07","velocity":0.4881889763779528,"duration":"0.02"},{"name":"D#3","midi":51,"time":"498.07","velocity":0.5039370078740157,"duration":"0.03"},{"name":"E5","midi":76,"time":"498.07","velocity":0.41732283464566927,"duration":"0.03"},{"name":"D#6","midi":87,"time":"498.07","velocity":0.2440944881889764,"duration":"0.08"},{"name":"C#5","midi":73,"time":"498.08","velocity":0.4015748031496063,"duration":"0.02"},{"name":"A#5","midi":82,"time":"498.08","velocity":0.2755905511811024,"duration":"0.03"},{"name":"F#3","midi":54,"time":"498.09","velocity":0.36220472440944884,"duration":"0.02"},{"name":"C6","midi":84,"time":"498.09","velocity":0.2677165354330709,"duration":"0.07"},{"name":"F6","midi":89,"time":"498.09","velocity":0.2283464566929134,"duration":"0.08"},{"name":"D7","midi":98,"time":"498.09","velocity":0.2992125984251969,"duration":"0.37"},{"name":"D3","midi":50,"time":"498.10","velocity":0.5748031496062992,"duration":"0.21"},{"name":"D6","midi":86,"time":"498.10","velocity":0.16535433070866143,"duration":"0.07"},{"name":"G5","midi":79,"time":"498.12","velocity":0.47244094488188976,"duration":"0.07"},{"name":"B5","midi":83,"time":"498.12","velocity":0.25984251968503935,"duration":"0.09"},{"name":"C#5","midi":73,"time":"498.13","velocity":0.3228346456692913,"duration":"0.03"},{"name":"G#3","midi":56,"time":"498.14","velocity":0.28346456692913385,"duration":"0.02"},{"name":"A4","midi":69,"time":"498.15","velocity":0.5826771653543307,"duration":"0.20"},{"name":"C5","midi":72,"time":"498.15","velocity":0.2992125984251969,"duration":"0.03"},{"name":"A#3","midi":58,"time":"498.16","velocity":0.2992125984251969,"duration":"0.02"},{"name":"E5","midi":76,"time":"498.16","velocity":0.25984251968503935,"duration":"0.03"},{"name":"C#5","midi":73,"time":"498.17","velocity":0.3228346456692913,"duration":"0.05"},{"name":"D#6","midi":87,"time":"498.17","velocity":0.2992125984251969,"duration":"0.26"},{"name":"G#5","midi":80,"time":"498.19","velocity":0.4645669291338583,"duration":"0.03"},{"name":"B4","midi":71,"time":"498.22","velocity":0.2677165354330709,"duration":"0.02"},{"name":"A3","midi":57,"time":"498.23","velocity":0.4251968503937008,"duration":"0.07"},{"name":"E5","midi":76,"time":"498.23","velocity":0.3228346456692913,"duration":"0.07"},{"name":"C#5","midi":73,"time":"498.24","velocity":0.18110236220472442,"duration":"0.05"},{"name":"B5","midi":83,"time":"498.27","velocity":0.2440944881889764,"duration":"0.05"},{"name":"F6","midi":89,"time":"498.28","velocity":0.2283464566929134,"duration":"0.03"},{"name":"G#5","midi":80,"time":"498.29","velocity":0.47244094488188976,"duration":"0.03"},{"name":"B6","midi":95,"time":"498.29","velocity":0.33070866141732286,"duration":"0.21"},{"name":"G#3","midi":56,"time":"498.30","velocity":0.30708661417322836,"duration":"0.02"},{"name":"C4","midi":60,"time":"498.30","velocity":0.2755905511811024,"duration":"0.02"},{"name":"C6","midi":84,"time":"498.30","velocity":0.1889763779527559,"duration":"0.03"},{"name":"C#5","midi":73,"time":"498.31","velocity":0.28346456692913385,"duration":"0.03"},{"name":"D3","midi":50,"time":"498.33","velocity":0.47244094488188976,"duration":"0.12"},{"name":"F4","midi":65,"time":"498.33","velocity":0.30708661417322836,"duration":"0.02"},{"name":"E6","midi":88,"time":"498.33","velocity":0.3228346456692913,"duration":"0.12"},{"name":"B4","midi":71,"time":"498.34","velocity":0.29133858267716534,"duration":"0.02"},{"name":"F#4","midi":66,"time":"498.35","velocity":0.6220472440944882,"duration":"0.17"},{"name":"G#4","midi":68,"time":"498.35","velocity":0.48031496062992124,"duration":"0.02"},{"name":"C6","midi":84,"time":"498.35","velocity":0.2755905511811024,"duration":"0.06"},{"name":"F6","midi":89,"time":"498.35","velocity":0.25984251968503935,"duration":"0.03"},{"name":"C4","midi":60,"time":"498.36","velocity":0.31496062992125984,"duration":"0.02"},{"name":"C#5","midi":73,"time":"498.36","velocity":0.30708661417322836,"duration":"0.03"},{"name":"A4","midi":69,"time":"498.37","velocity":0.5826771653543307,"duration":"0.14"},{"name":"A3","midi":57,"time":"498.38","velocity":0.33070866141732286,"duration":"0.06"},{"name":"C#4","midi":61,"time":"498.38","velocity":0.3858267716535433,"duration":"0.02"},{"name":"D5","midi":74,"time":"498.38","velocity":0.29133858267716534,"duration":"0.02"},{"name":"E5","midi":76,"time":"498.38","velocity":0.2283464566929134,"duration":"0.02"},{"name":"A#6","midi":94,"time":"498.40","velocity":0.3543307086614173,"duration":"0.09"},{"name":"C#5","midi":73,"time":"498.41","velocity":0.31496062992125984,"duration":"0.03"},{"name":"B5","midi":83,"time":"498.41","velocity":0.33070866141732286,"duration":"0.16"},{"name":"G6","midi":91,"time":"498.41","velocity":0.3464566929133858,"duration":"0.44"},{"name":"C5","midi":72,"time":"498.42","velocity":0.2283464566929134,"duration":"0.06"},{"name":"E5","midi":76,"time":"498.42","velocity":0.4566929133858268,"duration":"0.16"},{"name":"G#5","midi":80,"time":"498.42","velocity":0.44881889763779526,"duration":"0.03"},{"name":"G#2","midi":44,"time":"498.43","velocity":0.44881889763779526,"duration":"0.02"},{"name":"C#4","midi":61,"time":"498.43","velocity":0.25196850393700787,"duration":"0.02"},{"name":"F6","midi":89,"time":"498.43","velocity":0.1889763779527559,"duration":"0.03"},{"name":"D#3","midi":51,"time":"498.44","velocity":0.48031496062992124,"duration":"0.02"},{"name":"D#6","midi":87,"time":"498.44","velocity":0.2677165354330709,"duration":"0.02"},{"name":"A3","midi":57,"time":"498.45","velocity":0.4330708661417323,"duration":"0.05"},{"name":"D4","midi":62,"time":"498.45","velocity":0.31496062992125984,"duration":"0.03"},{"name":"D6","midi":86,"time":"498.45","velocity":0.28346456692913385,"duration":"0.12"},{"name":"D3","midi":50,"time":"498.47","velocity":0.5275590551181102,"duration":"0.03"},{"name":"C#5","midi":73,"time":"498.47","velocity":0.3700787401574803,"duration":"0.10"},{"name":"G#5","midi":80,"time":"498.47","velocity":0.41732283464566927,"duration":"0.02"},{"name":"D#7","midi":99,"time":"498.47","velocity":0.31496062992125984,"duration":"2.94"},{"name":"F7","midi":101,"time":"498.47","velocity":0.33858267716535434,"duration":"2.93"},{"name":"D7","midi":98,"time":"498.48","velocity":0.33858267716535434,"duration":"0.66"},{"name":"G7","midi":103,"time":"498.48","velocity":0.3858267716535433,"duration":"0.94"},{"name":"B1","midi":35,"time":"498.50","velocity":0.3779527559055118,"duration":"0.02"},{"name":"A#3","midi":58,"time":"498.50","velocity":0.2677165354330709,"duration":"0.03"},{"name":"D4","midi":62,"time":"498.50","velocity":0.3700787401574803,"duration":"0.05"},{"name":"G#4","midi":68,"time":"498.50","velocity":0.5118110236220472,"duration":"0.02"},{"name":"A#6","midi":94,"time":"498.50","velocity":0.3464566929133858,"duration":"0.50"},{"name":"C7","midi":96,"time":"498.50","velocity":0.31496062992125984,"duration":"0.09"},{"name":"C6","midi":84,"time":"498.51","velocity":0.1968503937007874,"duration":"0.05"},{"name":"B6","midi":95,"time":"498.51","velocity":0.3779527559055118,"duration":"1.91"},{"name":"F4","midi":65,"time":"498.52","velocity":0.4251968503937008,"duration":"0.02"},{"name":"A4","midi":69,"time":"498.52","velocity":0.5984251968503937,"duration":"0.22"},{"name":"F6","midi":89,"time":"498.52","velocity":0.2677165354330709,"duration":"0.05"},{"name":"F#5","midi":78,"time":"498.53","velocity":0.48031496062992124,"duration":"0.44"},{"name":"F#4","midi":66,"time":"498.55","velocity":0.5984251968503937,"duration":"0.19"},{"name":"C5","midi":72,"time":"498.56","velocity":0.33858267716535434,"duration":"0.05"},{"name":"C#6","midi":85,"time":"498.56","velocity":0.4094488188976378,"duration":"0.63"},{"name":"D#6","midi":87,"time":"498.56","velocity":0.29133858267716534,"duration":"0.09"},{"name":"A3","midi":57,"time":"498.57","velocity":0.3937007874015748,"duration":"0.09"},{"name":"G#6","midi":92,"time":"498.57","velocity":0.33070866141732286,"duration":"0.07"},{"name":"D3","midi":50,"time":"498.58","velocity":0.49606299212598426,"duration":"0.02"},{"name":"B5","midi":83,"time":"498.58","velocity":0.3464566929133858,"duration":"0.27"},{"name":"E5","midi":76,"time":"498.59","velocity":0.44881889763779526,"duration":"0.23"},{"name":"F6","midi":89,"time":"498.59","velocity":0.11811023622047244,"duration":"0.06"},{"name":"C3","midi":48,"time":"498.60","velocity":0.5118110236220472,"duration":"0.01"},{"name":"C#5","midi":73,"time":"498.60","velocity":0.30708661417322836,"duration":"0.03"},{"name":"C7","midi":96,"time":"498.60","velocity":0.3464566929133858,"duration":"0.23"},{"name":"D3","midi":50,"time":"498.62","velocity":0.5590551181102362,"duration":"0.20"},{"name":"D5","midi":74,"time":"498.63","velocity":0.23622047244094488,"duration":"0.02"},{"name":"D6","midi":86,"time":"498.64","velocity":0.2677165354330709,"duration":"0.13"},{"name":"G#1","midi":32,"time":"498.65","velocity":0.3228346456692913,"duration":"0.02"},{"name":"G#6","midi":92,"time":"498.65","velocity":0.3543307086614173,"duration":"0.29"},{"name":"F6","midi":89,"time":"498.67","velocity":0.2125984251968504,"duration":"0.09"},{"name":"D#6","midi":87,"time":"498.70","velocity":0.3543307086614173,"duration":"0.03"},{"name":"C#5","midi":73,"time":"498.71","velocity":0.23622047244094488,"duration":"0.02"},{"name":"A3","midi":57,"time":"498.72","velocity":0.4251968503937008,"duration":"0.06"},{"name":"C#4","midi":61,"time":"498.73","velocity":0.33858267716535434,"duration":"0.03"},{"name":"F#4","midi":66,"time":"498.74","velocity":0.3779527559055118,"duration":"0.02"},{"name":"C5","midi":72,"time":"498.74","velocity":0.31496062992125984,"duration":"0.02"},{"name":"D#6","midi":87,"time":"498.74","velocity":0.2047244094488189,"duration":"0.05"},{"name":"A4","midi":69,"time":"498.76","velocity":0.5511811023622047,"duration":"0.05"},{"name":"G#3","midi":56,"time":"498.78","velocity":0.3858267716535433,"duration":"0.02"},{"name":"F#4","midi":66,"time":"498.78","velocity":0.5669291338582677,"duration":"0.14"},{"name":"G#5","midi":80,"time":"498.78","velocity":0.49606299212598426,"duration":"0.02"},{"name":"F6","midi":89,"time":"498.78","velocity":0.2440944881889764,"duration":"0.07"},{"name":"C#4","midi":61,"time":"498.79","velocity":0.33858267716535434,"duration":"0.03"},{"name":"A1","midi":33,"time":"498.80","velocity":0.3464566929133858,"duration":"0.02"},{"name":"A5","midi":81,"time":"498.80","velocity":0.5433070866141733,"duration":"0.21"},{"name":"C#3","midi":49,"time":"498.81","velocity":0.5118110236220472,"duration":"0.01"},{"name":"A4","midi":69,"time":"498.81","velocity":0.5590551181102362,"duration":"0.08"},{"name":"D#6","midi":87,"time":"498.81","velocity":0.33070866141732286,"duration":"0.09"},{"name":"C3","midi":48,"time":"498.83","velocity":0.5748031496062992,"duration":"0.01"},{"name":"F2","midi":41,"time":"498.84","velocity":0.5354330708661418,"duration":"0.01"},{"name":"D#3","midi":51,"time":"498.84","velocity":0.5196850393700787,"duration":"0.02"},{"name":"E5","midi":76,"time":"498.84","velocity":0.3858267716535433,"duration":"0.14"},{"name":"G#5","midi":80,"time":"498.84","velocity":0.23622047244094488,"duration":"0.03"},{"name":"C6","midi":84,"time":"498.84","velocity":0.1732283464566929,"duration":"0.05"},{"name":"A#3","midi":58,"time":"498.85","velocity":0.28346456692913385,"duration":"0.02"},{"name":"D5","midi":74,"time":"498.85","velocity":0.23622047244094488,"duration":"0.05"},{"name":"C7","midi":96,"time":"498.85","velocity":0.23622047244094488,"duration":"0.06"},{"name":"G6","midi":91,"time":"498.86","velocity":0.3464566929133858,"duration":"0.20"},{"name":"F#1","midi":30,"time":"498.87","velocity":0.5511811023622047,"duration":"0.02"},{"name":"A2","midi":45,"time":"498.87","velocity":0.5196850393700787,"duration":"0.01"},{"name":"D4","midi":62,"time":"498.87","velocity":0.41732283464566927,"duration":"0.13"},{"name":"G5","midi":79,"time":"498.87","velocity":0.2677165354330709,"duration":"0.03"},{"name":"E3","midi":52,"time":"498.88","velocity":0.4566929133858268,"duration":"0.02"},{"name":"C#5","midi":73,"time":"498.88","velocity":0.2204724409448819,"duration":"0.07"},{"name":"B5","midi":83,"time":"498.88","velocity":0.2755905511811024,"duration":"0.02"},{"name":"F6","midi":89,"time":"498.88","velocity":0.2283464566929134,"duration":"0.13"},{"name":"A#5","midi":82,"time":"498.90","velocity":0.31496062992125984,"duration":"0.02"},{"name":"D6","midi":86,"time":"498.90","velocity":0.2283464566929134,"duration":"0.02"},{"name":"A4","midi":69,"time":"498.91","velocity":0.5905511811023622,"duration":"0.33"},{"name":"C6","midi":84,"time":"498.91","velocity":0.2047244094488189,"duration":"0.03"},{"name":"E7","midi":100,"time":"498.91","velocity":0.44881889763779526,"duration":"2.37"},{"name":"G#2","midi":44,"time":"498.92","velocity":0.4566929133858268,"duration":"0.02"},{"name":"G#5","midi":80,"time":"498.92","velocity":0.4094488188976378,"duration":"0.02"},{"name":"D#6","midi":87,"time":"498.92","velocity":0.29133858267716534,"duration":"0.08"},{"name":"C7","midi":96,"time":"498.92","velocity":0.2677165354330709,"duration":"0.03"},{"name":"D#3","midi":51,"time":"498.93","velocity":0.48031496062992124,"duration":"0.02"},{"name":"F#4","midi":66,"time":"498.93","velocity":0.5905511811023622,"duration":"0.43"},{"name":"B5","midi":83,"time":"498.93","velocity":0.2125984251968504,"duration":"0.03"},{"name":"D6","midi":86,"time":"498.93","velocity":0.13385826771653545,"duration":"0.05"},{"name":"C#2","midi":37,"time":"498.94","velocity":0.36220472440944884,"duration":"0.02"},{"name":"E6","midi":88,"time":"498.94","velocity":0.3937007874015748,"duration":"0.36"},{"name":"A3","midi":57,"time":"498.95","velocity":0.3779527559055118,"duration":"0.02"},{"name":"G#6","midi":92,"time":"498.95","velocity":0.30708661417322836,"duration":"0.07"},{"name":"D3","midi":50,"time":"498.97","velocity":0.4566929133858268,"duration":"0.05"},{"name":"C6","midi":84,"time":"498.97","velocity":0.25196850393700787,"duration":"0.03"},{"name":"C7","midi":96,"time":"498.97","velocity":0.36220472440944884,"duration":"0.31"},{"name":"C#5","midi":73,"time":"498.98","velocity":0.31496062992125984,"duration":"0.09"},{"name":"A3","midi":57,"time":"498.99","velocity":0.44881889763779526,"duration":"0.05"},{"name":"E5","midi":76,"time":"498.99","velocity":0.3858267716535433,"duration":"0.07"},{"name":"A#5","midi":82,"time":"499.00","velocity":0.4409448818897638,"duration":"0.03"},{"name":"B5","midi":83,"time":"499.00","velocity":0.2283464566929134,"duration":"0.03"},{"name":"D6","midi":86,"time":"499.00","velocity":0.2992125984251969,"duration":"0.10"},{"name":"F6","midi":89,"time":"499.02","velocity":0.33070866141732286,"duration":"0.17"},{"name":"C6","midi":84,"time":"499.03","velocity":0.23622047244094488,"duration":"0.02"},{"name":"D3","midi":50,"time":"499.05","velocity":0.47244094488188976,"duration":"0.03"},{"name":"D#6","midi":87,"time":"499.05","velocity":0.2677165354330709,"duration":"0.12"},{"name":"G#6","midi":92,"time":"499.05","velocity":0.29133858267716534,"duration":"0.10"},{"name":"A#6","midi":94,"time":"499.05","velocity":0.41732283464566927,"duration":"0.72"},{"name":"B5","midi":83,"time":"499.06","velocity":0.28346456692913385,"duration":"0.14"},{"name":"C5","midi":72,"time":"499.07","velocity":0.25196850393700787,"duration":"0.03"},{"name":"E5","midi":76,"time":"499.07","velocity":0.41732283464566927,"duration":"0.09"},{"name":"G6","midi":91,"time":"499.07","velocity":0.30708661417322836,"duration":"0.10"},{"name":"A3","midi":57,"time":"499.08","velocity":0.4251968503937008,"duration":"0.14"},{"name":"C#4","midi":61,"time":"499.08","velocity":0.33858267716535434,"duration":"0.02"},{"name":"D3","midi":50,"time":"499.10","velocity":0.4881889763779528,"duration":"0.03"},{"name":"C#5","midi":73,"time":"499.10","velocity":0.2440944881889764,"duration":"0.03"},{"name":"C5","midi":72,"time":"499.12","velocity":0.2755905511811024,"duration":"0.07"},{"name":"G#5","midi":80,"time":"499.13","velocity":0.23622047244094488,"duration":"0.03"},{"name":"D6","midi":86,"time":"499.13","velocity":0.25196850393700787,"duration":"0.06"},{"name":"D3","midi":50,"time":"499.15","velocity":0.5275590551181102,"duration":"0.07"},{"name":"D#5","midi":75,"time":"499.15","velocity":0.2283464566929134,"duration":"0.05"},{"name":"D7","midi":98,"time":"499.15","velocity":0.3228346456692913,"duration":"1.24"},{"name":"G#6","midi":92,"time":"499.17","velocity":0.33070866141732286,"duration":"0.08"},{"name":"G5","midi":79,"time":"499.19","velocity":0.30708661417322836,"duration":"0.03"},{"name":"D#6","midi":87,"time":"499.19","velocity":0.25984251968503935,"duration":"0.02"},{"name":"D5","midi":74,"time":"499.20","velocity":0.3543307086614173,"duration":"0.09"},{"name":"E5","midi":76,"time":"499.20","velocity":0.3858267716535433,"duration":"0.15"},{"name":"A#5","midi":82,"time":"499.20","velocity":0.2755905511811024,"duration":"0.03"},{"name":"C#6","midi":85,"time":"499.20","velocity":0.4251968503937008,"duration":"0.69"},{"name":"G2","midi":43,"time":"499.21","velocity":0.4251968503937008,"duration":"0.02"},{"name":"G#3","midi":56,"time":"499.22","velocity":0.4645669291338583,"duration":"0.02"},{"name":"D#4","midi":63,"time":"499.22","velocity":0.36220472440944884,"duration":"0.02"},{"name":"D#6","midi":87,"time":"499.22","velocity":0.25196850393700787,"duration":"0.02"},{"name":"F2","midi":41,"time":"499.23","velocity":0.4566929133858268,"duration":"0.02"},{"name":"G#4","midi":68,"time":"499.23","velocity":0.5275590551181102,"duration":"0.01"},{"name":"A3","midi":57,"time":"499.24","velocity":0.4566929133858268,"duration":"0.12"},{"name":"C#4","midi":61,"time":"499.24","velocity":0.4409448818897638,"duration":"0.02"},{"name":"A4","midi":69,"time":"499.24","velocity":0.6456692913385826,"duration":"0.10"},{"name":"C6","midi":84,"time":"499.24","velocity":0.2755905511811024,"duration":"0.09"},{"name":"E3","midi":52,"time":"499.26","velocity":0.3858267716535433,"duration":"0.02"},{"name":"D4","midi":62,"time":"499.27","velocity":0.3858267716535433,"duration":"0.05"},{"name":"F6","midi":89,"time":"499.27","velocity":0.1732283464566929,"duration":"0.08"},{"name":"G#6","midi":92,"time":"499.27","velocity":0.33070866141732286,"duration":"0.27"},{"name":"D#6","midi":87,"time":"499.29","velocity":0.3858267716535433,"duration":"0.03"},{"name":"C7","midi":96,"time":"499.29","velocity":0.3228346456692913,"duration":"0.12"},{"name":"G#2","midi":44,"time":"499.31","velocity":0.3779527559055118,"duration":"0.02"},{"name":"D4","midi":62,"time":"499.33","velocity":0.4566929133858268,"duration":"0.07"},{"name":"B4","midi":71,"time":"499.34","velocity":0.2125984251968504,"duration":"0.03"},{"name":"D#6","midi":87,"time":"499.34","velocity":0.3700787401574803,"duration":"0.02"},{"name":"G6","midi":91,"time":"499.34","velocity":0.30708661417322836,"duration":"0.05"},{"name":"F5","midi":77,"time":"499.35","velocity":0.30708661417322836,"duration":"0.02"},{"name":"B5","midi":83,"time":"499.35","velocity":0.2677165354330709,"duration":"0.08"},{"name":"E6","midi":88,"time":"499.35","velocity":0.4409448818897638,"duration":"0.92"},{"name":"A4","midi":69,"time":"499.36","velocity":0.6220472440944882,"duration":"0.27"},{"name":"C#5","midi":73,"time":"499.36","velocity":0.2440944881889764,"duration":"0.07"},{"name":"D6","midi":86,"time":"499.36","velocity":0.1732283464566929,"duration":"0.06"},{"name":"A3","midi":57,"time":"499.37","velocity":0.47244094488188976,"duration":"0.07"},{"name":"F#4","midi":66,"time":"499.37","velocity":0.4094488188976378,"duration":"0.02"},{"name":"F#5","midi":78,"time":"499.37","velocity":0.5275590551181102,"duration":"0.06"},{"name":"D#6","midi":87,"time":"499.40","velocity":0.16535433070866143,"duration":"0.03"},{"name":"D4","midi":62,"time":"499.41","velocity":0.3464566929133858,"duration":"0.07"},{"name":"C6","midi":84,"time":"499.41","velocity":0.25196850393700787,"duration":"0.13"},{"name":"F#4","midi":66,"time":"499.42","velocity":0.5905511811023622,"duration":"0.14"},{"name":"G6","midi":91,"time":"499.42","velocity":0.14960629921259844,"duration":"0.05"},{"name":"C7","midi":96,"time":"499.42","velocity":0.33858267716535434,"duration":"0.23"},{"name":"A#5","midi":82,"time":"499.43","velocity":0.4251968503937008,"duration":"0.02"},{"name":"F6","midi":89,"time":"499.43","velocity":0.13385826771653545,"duration":"0.03"},{"name":"G7","midi":103,"time":"499.43","velocity":0.3543307086614173,"duration":"2.06"},{"name":"C#3","midi":49,"time":"499.44","velocity":0.44881889763779526,"duration":"0.02"},{"name":"C#5","midi":73,"time":"499.44","velocity":0.2125984251968504,"duration":"0.08"},{"name":"A3","midi":57,"time":"499.45","velocity":0.28346456692913385,"duration":"0.03"},{"name":"E5","midi":76,"time":"499.45","velocity":0.25196850393700787,"duration":"0.14"},{"name":"D#6","midi":87,"time":"499.45","velocity":0.30708661417322836,"duration":"0.17"},{"name":"G#2","midi":44,"time":"499.47","velocity":0.4251968503937008,"duration":"0.02"},{"name":"D3","midi":50,"time":"499.47","velocity":0.48031496062992124,"duration":"0.03"},{"name":"G#5","midi":80,"time":"499.47","velocity":0.25984251968503935,"duration":"0.05"},{"name":"D6","midi":86,"time":"499.47","velocity":0.23622047244094488,"duration":"0.05"},{"name":"A5","midi":81,"time":"499.48","velocity":0.6535433070866141,"duration":"0.84"},{"name":"G6","midi":91,"time":"499.48","velocity":0.33070866141732286,"duration":"0.08"},{"name":"C#4","midi":61,"time":"499.50","velocity":0.2755905511811024,"duration":"0.03"},{"name":"B5","midi":83,"time":"499.50","velocity":0.15748031496062992,"duration":"0.07"},{"name":"D3","midi":50,"time":"499.51","velocity":0.47244094488188976,"duration":"0.05"},{"name":"A3","midi":57,"time":"499.53","velocity":0.3700787401574803,"duration":"0.03"},{"name":"C#5","midi":73,"time":"499.55","velocity":0.29133858267716534,"duration":"0.05"},{"name":"D6","midi":86,"time":"499.55","velocity":0.10236220472440945,"duration":"0.03"},{"name":"F6","midi":89,"time":"499.55","velocity":0.33070866141732286,"duration":"0.08"},{"name":"G#6","midi":92,"time":"499.55","velocity":0.33858267716535434,"duration":"0.12"},{"name":"A#5","midi":82,"time":"499.56","velocity":0.2755905511811024,"duration":"0.06"},{"name":"C6","midi":84,"time":"499.56","velocity":0.30708661417322836,"duration":"0.07"},{"name":"G#3","midi":56,"time":"499.57","velocity":0.33858267716535434,"duration":"0.02"},{"name":"F#4","midi":66,"time":"499.57","velocity":0.5748031496062992,"duration":"0.17"},{"name":"G6","midi":91,"time":"499.57","velocity":0.3464566929133858,"duration":"0.15"},{"name":"D#5","midi":75,"time":"499.58","velocity":0.3543307086614173,"duration":"0.02"},{"name":"D4","midi":62,"time":"499.59","velocity":0.48031496062992124,"duration":"0.02"},{"name":"B4","midi":71,"time":"499.59","velocity":0.4015748031496063,"duration":"0.02"},{"name":"E5","midi":76,"time":"499.60","velocity":0.4330708661417323,"duration":"0.02"},{"name":"D3","midi":50,"time":"499.62","velocity":0.5433070866141733,"duration":"0.20"},{"name":"G3","midi":55,"time":"499.62","velocity":0.4330708661417323,"duration":"0.02"},{"name":"D5","midi":74,"time":"499.62","velocity":0.36220472440944884,"duration":"0.07"},{"name":"B5","midi":83,"time":"499.62","velocity":0.29133858267716534,"duration":"0.06"},{"name":"A3","midi":57,"time":"499.64","velocity":0.47244094488188976,"duration":"0.05"},{"name":"C5","midi":72,"time":"499.64","velocity":0.2755905511811024,"duration":"0.02"},{"name":"D#6","midi":87,"time":"499.64","velocity":0.3464566929133858,"duration":"0.08"},{"name":"A4","midi":69,"time":"499.65","velocity":0.6377952755905512,"duration":"0.14"},{"name":"F6","midi":89,"time":"499.65","velocity":0.2992125984251969,"duration":"0.08"},{"name":"A#5","midi":82,"time":"499.66","velocity":0.2755905511811024,"duration":"0.02"},{"name":"C5","midi":72,"time":"499.67","velocity":0.29133858267716534,"duration":"0.06"},{"name":"G#6","midi":92,"time":"499.67","velocity":0.33070866141732286,"duration":"0.19"},{"name":"A#3","midi":58,"time":"499.69","velocity":0.3858267716535433,"duration":"0.02"},{"name":"C#4","midi":61,"time":"499.70","velocity":0.3543307086614173,"duration":"0.02"},{"name":"D6","midi":86,"time":"499.70","velocity":0.23622047244094488,"duration":"0.05"},{"name":"E5","midi":76,"time":"499.71","velocity":0.3228346456692913,"duration":"0.02"},{"name":"A#5","midi":82,"time":"499.71","velocity":0.2440944881889764,"duration":"0.03"},{"name":"C7","midi":96,"time":"499.71","velocity":0.3228346456692913,"duration":"0.23"},{"name":"D#6","midi":87,"time":"499.73","velocity":0.30708661417322836,"duration":"0.07"},{"name":"B5","midi":83,"time":"499.74","velocity":0.2283464566929134,"duration":"0.02"},{"name":"G6","midi":91,"time":"499.74","velocity":0.33858267716535434,"duration":"0.37"},{"name":"A3","midi":57,"time":"499.76","velocity":0.3543307086614173,"duration":"0.02"},{"name":"C6","midi":84,"time":"499.76","velocity":0.23622047244094488,"duration":"0.02"},{"name":"C5","midi":72,"time":"499.77","velocity":0.28346456692913385,"duration":"0.09"},{"name":"E5","midi":76,"time":"499.77","velocity":0.3464566929133858,"duration":"0.22"},{"name":"G2","midi":43,"time":"499.78","velocity":0.29133858267716534,"duration":"0.02"},{"name":"A#3","midi":58,"time":"499.78","velocity":0.3700787401574803,"duration":"0.06"},{"name":"B5","midi":83,"time":"499.78","velocity":0.2283464566929134,"duration":"0.02"},{"name":"A#6","midi":94,"time":"499.78","velocity":0.31496062992125984,"duration":"0.22"},{"name":"F#7","midi":102,"time":"499.78","velocity":0.3228346456692913,"duration":"4.27"},{"name":"A4","midi":69,"time":"499.80","velocity":0.5905511811023622,"duration":"0.12"},{"name":"F6","midi":89,"time":"499.80","velocity":0.13385826771653545,"duration":"0.05"},{"name":"F#4","midi":66,"time":"499.81","velocity":0.41732283464566927,"duration":"0.03"},{"name":"B5","midi":83,"time":"499.81","velocity":0.1889763779527559,"duration":"0.06"},{"name":"D#6","midi":87,"time":"499.81","velocity":0.4015748031496063,"duration":"0.38"},{"name":"D3","midi":50,"time":"499.83","velocity":0.5511811023622047,"duration":"0.13"},{"name":"D5","midi":74,"time":"499.83","velocity":0.2125984251968504,"duration":"0.05"},{"name":"A3","midi":57,"time":"499.84","velocity":0.49606299212598426,"duration":"0.08"},{"name":"C#5","midi":73,"time":"499.87","velocity":0.2677165354330709,"duration":"0.07"},{"name":"A#5","midi":82,"time":"499.87","velocity":0.30708661417322836,"duration":"0.03"},{"name":"D6","midi":86,"time":"499.87","velocity":0.2047244094488189,"duration":"0.03"},{"name":"G#6","midi":92,"time":"499.87","velocity":0.2992125984251969,"duration":"0.03"},{"name":"F#4","midi":66,"time":"499.88","velocity":0.4015748031496063,"duration":"0.08"},{"name":"G#5","midi":80,"time":"499.90","velocity":0.4015748031496063,"duration":"0.05"},{"name":"C#6","midi":85,"time":"499.90","velocity":0.36220472440944884,"duration":"0.24"},{"name":"F6","midi":89,"time":"499.91","velocity":0.2677165354330709,"duration":"0.08"},{"name":"G#4","midi":68,"time":"499.92","velocity":0.5433070866141733,"duration":"0.01"},{"name":"C6","midi":84,"time":"499.92","velocity":0.18110236220472442,"duration":"0.03"},{"name":"A3","midi":57,"time":"499.93","velocity":0.4330708661417323,"duration":"0.03"},{"name":"A4","midi":69,"time":"499.93","velocity":0.5118110236220472,"duration":"0.05"},{"name":"B4","midi":71,"time":"499.94","velocity":0.2440944881889764,"duration":"0.02"},{"name":"D#3","midi":51,"time":"499.95","velocity":0.5590551181102362,"duration":"0.03"},{"name":"D6","midi":86,"time":"499.95","velocity":0.28346456692913385,"duration":"0.03"},{"name":"C7","midi":96,"time":"499.95","velocity":0.36220472440944884,"duration":"0.10"},{"name":"G#1","midi":32,"time":"499.97","velocity":0.41732283464566927,"duration":"0.02"},{"name":"F4","midi":65,"time":"499.97","velocity":0.2755905511811024,"duration":"0.02"},{"name":"D#5","midi":75,"time":"499.97","velocity":0.25196850393700787,"duration":"0.03"},{"name":"B5","midi":83,"time":"499.97","velocity":0.29133858267716534,"duration":"0.08"},{"name":"G#6","midi":92,"time":"499.97","velocity":0.3700787401574803,"duration":"0.17"},{"name":"F2","midi":41,"time":"499.99","velocity":0.5905511811023622,"duration":"0.03"},{"name":"D3","midi":50,"time":"499.99","velocity":0.5669291338582677,"duration":"0.01"},{"name":"A4","midi":69,"time":"499.99","velocity":0.6220472440944882,"duration":"0.21"},{"name":"F5","midi":77,"time":"499.99","velocity":0.29133858267716534,"duration":"0.03"},{"name":"C#3","midi":49,"time":"500.00","velocity":0.5196850393700787,"duration":"0.01"},{"name":"F#4","midi":66,"time":"500.00","velocity":0.44881889763779526,"duration":"0.09"},{"name":"C5","midi":72,"time":"500.00","velocity":0.2992125984251969,"duration":"0.06"},{"name":"D6","midi":86,"time":"500.00","velocity":0.30708661417322836,"duration":"0.03"},{"name":"D3","midi":50,"time":"500.01","velocity":0.5354330708661418,"duration":"0.02"},{"name":"A#3","midi":58,"time":"500.02","velocity":0.36220472440944884,"duration":"0.02"},{"name":"D#4","midi":63,"time":"500.02","velocity":0.31496062992125984,"duration":"0.02"},{"name":"E5","midi":76,"time":"500.02","velocity":0.29133858267716534,"duration":"0.05"},{"name":"A#5","midi":82,"time":"500.02","velocity":0.31496062992125984,"duration":"0.03"},{"name":"F6","midi":89,"time":"500.02","velocity":0.2283464566929134,"duration":"0.05"},{"name":"F#1","midi":30,"time":"500.03","velocity":0.5196850393700787,"duration":"0.01"},{"name":"D4","midi":62,"time":"500.05","velocity":0.29133858267716534,"duration":"0.05"},{"name":"D6","midi":86,"time":"500.05","velocity":0.2047244094488189,"duration":"0.08"},{"name":"F#6","midi":90,"time":"500.05","velocity":0.30708661417322836,"duration":"0.28"},{"name":"D3","midi":50,"time":"500.06","velocity":0.5196850393700787,"duration":"0.02"},{"name":"F#5","midi":78,"time":"500.06","velocity":0.47244094488188976,"duration":"0.31"},{"name":"A3","midi":57,"time":"500.07","velocity":0.36220472440944884,"duration":"0.03"},{"name":"G#5","midi":80,"time":"500.07","velocity":0.49606299212598426,"duration":"0.08"},{"name":"C#5","midi":73,"time":"500.09","velocity":0.23622047244094488,"duration":"0.02"},{"name":"E5","midi":76,"time":"500.09","velocity":0.3543307086614173,"duration":"0.28"},{"name":"C6","midi":84,"time":"500.09","velocity":0.25196850393700787,"duration":"0.03"},{"name":"F6","midi":89,"time":"500.10","velocity":0.1968503937007874,"duration":"0.03"},{"name":"C7","midi":96,"time":"500.10","velocity":0.28346456692913385,"duration":"0.16"},{"name":"D3","midi":50,"time":"500.12","velocity":0.5196850393700787,"duration":"0.02"},{"name":"B5","midi":83,"time":"500.12","velocity":0.14960629921259844,"duration":"0.06"},{"name":"A#6","midi":94,"time":"500.12","velocity":0.2755905511811024,"duration":"0.07"},{"name":"C3","midi":48,"time":"500.14","velocity":0.5275590551181102,"duration":"0.02"},{"name":"D6","midi":86,"time":"500.14","velocity":0.2440944881889764,"duration":"0.05"},{"name":"F#1","midi":30,"time":"500.15","velocity":0.3779527559055118,"duration":"0.02"},{"name":"F#4","midi":66,"time":"500.15","velocity":0.47244094488188976,"duration":"0.16"},{"name":"C5","midi":72,"time":"500.15","velocity":0.2992125984251969,"duration":"0.03"},{"name":"C#6","midi":85,"time":"500.15","velocity":0.3700787401574803,"duration":"0.45"},{"name":"G6","midi":91,"time":"500.15","velocity":0.33858267716535434,"duration":"0.05"},{"name":"D4","midi":62,"time":"500.16","velocity":0.4566929133858268,"duration":"0.17"},{"name":"D#5","midi":75,"time":"500.17","velocity":0.2283464566929134,"duration":"0.02"},{"name":"A3","midi":57,"time":"500.19","velocity":0.4881889763779528,"duration":"0.19"},{"name":"C#5","midi":73,"time":"500.19","velocity":0.2992125984251969,"duration":"0.09"},{"name":"G#6","midi":92,"time":"500.19","velocity":0.3228346456692913,"duration":"0.19"},{"name":"D3","midi":50,"time":"500.20","velocity":0.48031496062992124,"duration":"0.13"},{"name":"G#4","midi":68,"time":"500.20","velocity":0.5118110236220472,"duration":"0.02"},{"name":"F6","midi":89,"time":"500.20","velocity":0.2125984251968504,"duration":"0.09"},{"name":"A#6","midi":94,"time":"500.20","velocity":0.29133858267716534,"duration":"0.15"},{"name":"D#6","midi":87,"time":"500.21","velocity":0.41732283464566927,"duration":"0.24"},{"name":"G6","midi":91,"time":"500.21","velocity":0.3228346456692913,"duration":"0.38"},{"name":"A4","midi":69,"time":"500.22","velocity":0.6062992125984252,"duration":"0.30"},{"name":"B5","midi":83,"time":"500.23","velocity":0.25196850393700787,"duration":"0.13"},{"name":"C2","midi":36,"time":"500.26","velocity":0.3779527559055118,"duration":"0.02"},{"name":"E6","midi":88,"time":"500.28","velocity":0.44881889763779526,"duration":"0.09"},{"name":"C7","midi":96,"time":"500.28","velocity":0.3228346456692913,"duration":"0.55"},{"name":"G#5","midi":80,"time":"500.30","velocity":0.5669291338582677,"duration":"0.03"},{"name":"F6","midi":89,"time":"500.30","velocity":0.2677165354330709,"duration":"0.06"},{"name":"D#3","midi":51,"time":"500.33","velocity":0.5118110236220472,"duration":"0.02"},{"name":"C5","midi":72,"time":"500.33","velocity":0.2204724409448819,"duration":"0.03"},{"name":"C#4","midi":61,"time":"500.34","velocity":0.4330708661417323,"duration":"0.03"},{"name":"A5","midi":81,"time":"500.34","velocity":0.6299212598425197,"duration":"1.31"},{"name":"F#2","midi":42,"time":"500.36","velocity":0.5275590551181102,"duration":"0.01"},{"name":"B4","midi":71,"time":"500.36","velocity":0.29133858267716534,"duration":"0.03"},{"name":"A#6","midi":94,"time":"500.36","velocity":0.33858267716535434,"duration":"0.83"},{"name":"E2","midi":40,"time":"500.37","velocity":0.5826771653543307,"duration":"0.01"},{"name":"D3","midi":50,"time":"500.37","velocity":0.5748031496062992,"duration":"0.05"},{"name":"F#4","midi":66,"time":"500.37","velocity":0.3543307086614173,"duration":"0.02"},{"name":"F5","midi":77,"time":"500.37","velocity":0.31496062992125984,"duration":"0.03"},{"name":"A#5","midi":82,"time":"500.37","velocity":0.4881889763779528,"duration":"0.15"},{"name":"F6","midi":89,"time":"500.37","velocity":0.3228346456692913,"duration":"0.12"},{"name":"C#2","midi":37,"time":"500.38","velocity":0.5433070866141733,"duration":"0.01"},{"name":"D5","midi":74,"time":"500.38","velocity":0.25196850393700787,"duration":"0.07"},{"name":"E6","midi":88,"time":"500.38","velocity":0.4566929133858268,"duration":"0.71"},{"name":"E5","midi":76,"time":"500.40","velocity":0.41732283464566927,"duration":"0.16"},{"name":"F#5","midi":78,"time":"500.40","velocity":0.3464566929133858,"duration":"0.17"},{"name":"G#6","midi":92,"time":"500.40","velocity":0.30708661417322836,"duration":"0.08"},{"name":"D7","midi":98,"time":"500.41","velocity":0.2992125984251969,"duration":"0.49"},{"name":"C#4","midi":61,"time":"500.42","velocity":0.30708661417322836,"duration":"0.05"},{"name":"B1","midi":35,"time":"500.43","velocity":0.4881889763779528,"duration":"0.05"},{"name":"D3","midi":50,"time":"500.43","velocity":0.4566929133858268,"duration":"0.02"},{"name":"B6","midi":95,"time":"500.43","velocity":0.4409448818897638,"duration":"2.66"},{"name":"D3","midi":50,"time":"500.47","velocity":0.3937007874015748,"duration":"0.02"},{"name":"G#5","midi":80,"time":"500.47","velocity":0.23622047244094488,"duration":"0.02"},{"name":"B5","midi":83,"time":"500.47","velocity":0.33070866141732286,"duration":"0.02"},{"name":"F#4","midi":66,"time":"500.48","velocity":0.3228346456692913,"duration":"0.03"},{"name":"C6","midi":84,"time":"500.48","velocity":0.2047244094488189,"duration":"0.03"},{"name":"D4","midi":62,"time":"500.49","velocity":0.3464566929133858,"duration":"0.02"},{"name":"G#6","midi":92,"time":"500.49","velocity":0.3464566929133858,"duration":"0.45"},{"name":"A2","midi":45,"time":"500.50","velocity":0.3937007874015748,"duration":"0.02"},{"name":"C#3","midi":49,"time":"500.50","velocity":0.3779527559055118,"duration":"0.02"},{"name":"C#5","midi":73,"time":"500.50","velocity":0.1968503937007874,"duration":"0.05"},{"name":"A3","midi":57,"time":"500.51","velocity":0.4645669291338583,"duration":"0.07"},{"name":"B5","midi":83,"time":"500.52","velocity":0.49606299212598426,"duration":"0.10"},{"name":"D#6","midi":87,"time":"500.52","velocity":0.3937007874015748,"duration":"0.08"},{"name":"F6","midi":89,"time":"500.52","velocity":0.3464566929133858,"duration":"0.03"},{"name":"C#3","midi":49,"time":"500.53","velocity":0.31496062992125984,"duration":"0.02"},{"name":"A4","midi":69,"time":"500.53","velocity":0.5669291338582677,"duration":"0.07"},{"name":"F#4","midi":66,"time":"500.55","velocity":0.4015748031496063,"duration":"0.08"},{"name":"C2","midi":36,"time":"500.56","velocity":0.5433070866141733,"duration":"0.01"},{"name":"D6","midi":86,"time":"500.56","velocity":0.2440944881889764,"duration":"0.09"},{"name":"F2","midi":41,"time":"500.57","velocity":0.5433070866141733,"duration":"0.01"},{"name":"D5","midi":74,"time":"500.57","velocity":0.2755905511811024,"duration":"0.07"},{"name":"E5","midi":76,"time":"500.57","velocity":0.25984251968503935,"duration":"0.07"},{"name":"F6","midi":89,"time":"500.57","velocity":0.3228346456692913,"duration":"0.03"},{"name":"G1","midi":31,"time":"500.58","velocity":0.5275590551181102,"duration":"0.01"},{"name":"F#2","midi":42,"time":"500.58","velocity":0.5275590551181102,"duration":"0.01"},{"name":"C#4","midi":61,"time":"500.58","velocity":0.3937007874015748,"duration":"0.05"},{"name":"F#1","midi":30,"time":"500.59","velocity":0.5433070866141733,"duration":"0.01"},{"name":"G5","midi":79,"time":"500.59","velocity":0.29133858267716534,"duration":"0.06"},{"name":"A3","midi":57,"time":"500.60","velocity":0.4409448818897638,"duration":"0.10"},{"name":"G#4","midi":68,"time":"500.60","velocity":0.5669291338582677,"duration":"0.01"},{"name":"C6","midi":84,"time":"500.60","velocity":0.28346456692913385,"duration":"0.07"},{"name":"G6","midi":91,"time":"500.60","velocity":0.3543307086614173,"duration":"0.16"},{"name":"A4","midi":69,"time":"500.62","velocity":0.6220472440944882,"duration":"0.28"},{"name":"F5","midi":77,"time":"500.62","velocity":0.25196850393700787,"duration":"0.02"},{"name":"G#5","midi":80,"time":"500.62","velocity":0.28346456692913385,"duration":"0.02"},{"name":"C#6","midi":85,"time":"500.62","velocity":0.25196850393700787,"duration":"0.19"},{"name":"D#6","midi":87,"time":"500.62","velocity":0.2125984251968504,"duration":"0.05"},{"name":"D4","midi":62,"time":"500.63","velocity":0.4330708661417323,"duration":"0.05"},{"name":"D#5","midi":75,"time":"500.63","velocity":0.25196850393700787,"duration":"0.02"},{"name":"A#5","midi":82,"time":"500.63","velocity":0.4881889763779528,"duration":"0.03"},{"name":"D3","midi":50,"time":"500.64","velocity":0.4881889763779528,"duration":"0.08"},{"name":"C#5","midi":73,"time":"500.65","velocity":0.2755905511811024,"duration":"0.02"},{"name":"E5","midi":76,"time":"500.65","velocity":0.3543307086614173,"duration":"0.10"},{"name":"F#5","midi":78,"time":"500.66","velocity":0.36220472440944884,"duration":"0.14"},{"name":"B5","midi":83,"time":"500.66","velocity":0.5275590551181102,"duration":"0.12"},{"name":"C5","midi":72,"time":"500.67","velocity":0.30708661417322836,"duration":"0.02"},{"name":"D#6","midi":87,"time":"500.67","velocity":0.1968503937007874,"duration":"0.03"},{"name":"C#2","midi":37,"time":"500.69","velocity":0.4409448818897638,"duration":"0.02"},{"name":"D6","midi":86,"time":"500.69","velocity":0.14173228346456693,"duration":"0.06"},{"name":"G#5","midi":80,"time":"500.70","velocity":0.2677165354330709,"duration":"0.02"},{"name":"F6","midi":89,"time":"500.70","velocity":0.3700787401574803,"duration":"0.10"},{"name":"B4","midi":71,"time":"500.72","velocity":0.4566929133858268,"duration":"0.26"},{"name":"G5","midi":79,"time":"500.72","velocity":0.2677165354330709,"duration":"0.06"},{"name":"F#6","midi":90,"time":"500.72","velocity":0.47244094488188976,"duration":"1.27"},{"name":"A2","midi":45,"time":"500.73","velocity":0.5590551181102362,"duration":"0.02"},{"name":"E3","midi":52,"time":"500.73","velocity":0.48031496062992124,"duration":"0.02"},{"name":"F#4","midi":66,"time":"500.73","velocity":0.3779527559055118,"duration":"0.02"},{"name":"D#5","midi":75,"time":"500.73","velocity":0.28346456692913385,"duration":"0.05"},{"name":"F2","midi":41,"time":"500.76","velocity":0.5748031496062992,"duration":"0.01"},{"name":"C6","midi":84,"time":"500.76","velocity":0.2125984251968504,"duration":"0.03"},{"name":"D6","midi":86,"time":"500.76","velocity":0.25984251968503935,"duration":"0.13"},{"name":"E5","midi":76,"time":"500.77","velocity":0.3464566929133858,"duration":"0.06"},{"name":"D5","midi":74,"time":"500.78","velocity":0.25196850393700787,"duration":"0.03"},{"name":"A#5","midi":82,"time":"500.78","velocity":0.48031496062992124,"duration":"0.02"},{"name":"G6","midi":91,"time":"500.78","velocity":0.28346456692913385,"duration":"0.06"},{"name":"F#1","midi":30,"time":"500.79","velocity":0.5433070866141733,"duration":"0.01"},{"name":"A3","midi":57,"time":"500.79","velocity":0.30708661417322836,"duration":"0.02"},{"name":"G5","midi":79,"time":"500.79","velocity":0.2283464566929134,"duration":"0.05"},{"name":"D#6","midi":87,"time":"500.79","velocity":0.2677165354330709,"duration":"0.07"},{"name":"F1","midi":29,"time":"500.80","velocity":0.5354330708661418,"duration":"0.01"},{"name":"C3","midi":48,"time":"500.80","velocity":0.5433070866141733,"duration":"0.02"},{"name":"B5","midi":83,"time":"500.80","velocity":0.5275590551181102,"duration":"0.13"},{"name":"C#5","midi":73,"time":"500.81","velocity":0.29133858267716534,"duration":"0.03"},{"name":"F#5","midi":78,"time":"500.81","velocity":0.3858267716535433,"duration":"0.33"},{"name":"D4","midi":62,"time":"500.83","velocity":0.2755905511811024,"duration":"0.02"},{"name":"G#5","midi":80,"time":"500.83","velocity":0.3464566929133858,"duration":"0.03"},{"name":"C#6","midi":85,"time":"500.83","velocity":0.2992125984251969,"duration":"0.10"},{"name":"C7","midi":96,"time":"500.84","velocity":0.33858267716535434,"duration":"0.08"},{"name":"E4","midi":64,"time":"500.85","velocity":0.29133858267716534,"duration":"0.02"},{"name":"G6","midi":91,"time":"500.85","velocity":0.2992125984251969,"duration":"0.12"},{"name":"A3","midi":57,"time":"500.86","velocity":0.41732283464566927,"duration":"0.07"},{"name":"G5","midi":79,"time":"500.86","velocity":0.29133858267716534,"duration":"0.02"},{"name":"C#4","midi":61,"time":"500.90","velocity":0.4015748031496063,"duration":"0.02"},{"name":"D#6","midi":87,"time":"500.90","velocity":0.28346456692913385,"duration":"0.02"},{"name":"A4","midi":69,"time":"500.91","velocity":0.5905511811023622,"duration":"0.16"},{"name":"E5","midi":76,"time":"500.91","velocity":0.36220472440944884,"duration":"0.08"},{"name":"D6","midi":86,"time":"500.91","velocity":0.1732283464566929,"duration":"0.03"},{"name":"D7","midi":98,"time":"500.91","velocity":0.2992125984251969,"duration":"0.67"},{"name":"D3","midi":50,"time":"500.92","velocity":0.5748031496062992,"duration":"0.19"},{"name":"A#5","midi":82,"time":"500.93","velocity":0.47244094488188976,"duration":"0.03"},{"name":"D#6","midi":87,"time":"500.93","velocity":0.25984251968503935,"duration":"0.06"},{"name":"F6","midi":89,"time":"500.93","velocity":0.30708661417322836,"duration":"0.03"},{"name":"C7","midi":96,"time":"500.93","velocity":0.2755905511811024,"duration":"0.36"},{"name":"C#6","midi":85,"time":"500.94","velocity":0.2755905511811024,"duration":"0.08"},{"name":"G5","midi":79,"time":"500.95","velocity":0.14173228346456693,"duration":"0.05"},{"name":"A3","midi":57,"time":"500.97","velocity":0.4409448818897638,"duration":"0.02"},{"name":"F4","midi":65,"time":"500.97","velocity":0.2283464566929134,"duration":"0.02"},{"name":"B5","midi":83,"time":"500.97","velocity":0.5354330708661418,"duration":"0.14"},{"name":"D6","midi":86,"time":"500.97","velocity":0.2204724409448819,"duration":"0.07"},{"name":"D5","midi":74,"time":"500.98","velocity":0.2440944881889764,"duration":"0.05"},{"name":"F5","midi":77,"time":"500.99","velocity":0.2283464566929134,"duration":"0.02"},{"name":"G#6","midi":92,"time":"500.99","velocity":0.25984251968503935,"duration":"0.07"},{"name":"B4","midi":71,"time":"501.00","velocity":0.3464566929133858,"duration":"0.02"},{"name":"G6","midi":91,"time":"501.00","velocity":0.33858267716535434,"duration":"0.12"},{"name":"C#4","midi":61,"time":"501.01","velocity":0.4094488188976378,"duration":"0.05"},{"name":"C5","midi":72,"time":"501.02","velocity":0.33070866141732286,"duration":"0.03"},{"name":"E5","midi":76,"time":"501.02","velocity":0.2992125984251969,"duration":"0.02"},{"name":"D#6","midi":87,"time":"501.02","velocity":0.15748031496062992,"duration":"0.08"},{"name":"C#6","midi":85,"time":"501.03","velocity":0.2204724409448819,"duration":"0.03"},{"name":"F6","midi":89,"time":"501.03","velocity":0.23622047244094488,"duration":"0.06"},{"name":"D#5","midi":75,"time":"501.05","velocity":0.23622047244094488,"duration":"0.02"},{"name":"A3","midi":57,"time":"501.06","velocity":0.36220472440944884,"duration":"0.05"},{"name":"F#4","midi":66,"time":"501.06","velocity":0.25984251968503935,"duration":"0.03"},{"name":"C6","midi":84,"time":"501.06","velocity":0.3228346456692913,"duration":"0.02"},{"name":"A4","midi":69,"time":"501.08","velocity":0.5433070866141733,"duration":"0.12"},{"name":"F4","midi":65,"time":"501.09","velocity":0.4645669291338583,"duration":"0.03"},{"name":"B4","midi":71,"time":"501.09","velocity":0.5275590551181102,"duration":"0.05"},{"name":"A#5","midi":82,"time":"501.09","velocity":0.4566929133858268,"duration":"0.03"},{"name":"C#6","midi":85,"time":"501.09","velocity":0.31496062992125984,"duration":"0.06"},{"name":"C#3","midi":49,"time":"501.10","velocity":0.5354330708661418,"duration":"0.02"},{"name":"C#5","midi":73,"time":"501.10","velocity":0.4094488188976378,"duration":"0.03"},{"name":"E6","midi":88,"time":"501.10","velocity":0.2283464566929134,"duration":"0.02"},{"name":"G#6","midi":92,"time":"501.10","velocity":0.33070866141732286,"duration":"0.29"},{"name":"A2","midi":45,"time":"501.12","velocity":0.5118110236220472,"duration":"0.01"},{"name":"G5","midi":79,"time":"501.12","velocity":0.28346456692913385,"duration":"0.02"},{"name":"D#6","midi":87,"time":"501.12","velocity":0.2677165354330709,"duration":"0.06"},{"name":"F6","midi":89,"time":"501.12","velocity":0.33858267716535434,"duration":"0.06"},{"name":"G#2","midi":44,"time":"501.13","velocity":0.5275590551181102,"duration":"0.01"},{"name":"D3","midi":50,"time":"501.13","velocity":0.5354330708661418,"duration":"0.12"},{"name":"F#4","midi":66,"time":"501.13","velocity":0.4645669291338583,"duration":"0.03"},{"name":"D6","midi":86,"time":"501.13","velocity":0.29133858267716534,"duration":"0.07"},{"name":"G3","midi":55,"time":"501.14","velocity":0.5275590551181102,"duration":"0.01"},{"name":"E5","midi":76,"time":"501.14","velocity":0.36220472440944884,"duration":"0.03"},{"name":"E6","midi":88,"time":"501.14","velocity":0.4094488188976378,"duration":"0.26"},{"name":"C#5","midi":73,"time":"501.15","velocity":0.2755905511811024,"duration":"0.05"},{"name":"A#1","midi":34,"time":"501.16","velocity":0.25196850393700787,"duration":"0.02"},{"name":"A3","midi":57,"time":"501.16","velocity":0.4409448818897638,"duration":"0.09"},{"name":"C#4","midi":61,"time":"501.16","velocity":0.4645669291338583,"duration":"0.02"},{"name":"F4","midi":65,"time":"501.16","velocity":0.44881889763779526,"duration":"0.02"},{"name":"B4","midi":71,"time":"501.16","velocity":0.5433070866141733,"duration":"0.43"},{"name":"G5","midi":79,"time":"501.16","velocity":0.33070866141732286,"duration":"0.03"},{"name":"D#5","midi":75,"time":"501.17","velocity":0.28346456692913385,"duration":"0.03"},{"name":"F#4","midi":66,"time":"501.19","velocity":0.4015748031496063,"duration":"0.02"},{"name":"C#6","midi":85,"time":"501.19","velocity":0.3228346456692913,"duration":"0.27"},{"name":"F6","midi":89,"time":"501.19","velocity":0.2755905511811024,"duration":"0.07"},{"name":"A#6","midi":94,"time":"501.20","velocity":0.2992125984251969,"duration":"0.69"},{"name":"F4","midi":65,"time":"501.21","velocity":0.33858267716535434,"duration":"0.02"},{"name":"A4","midi":69,"time":"501.21","velocity":0.6771653543307087,"duration":"1.71"},{"name":"E5","midi":76,"time":"501.21","velocity":0.3937007874015748,"duration":"0.28"},{"name":"G5","midi":79,"time":"501.21","velocity":0.2440944881889764,"duration":"0.02"},{"name":"F#4","midi":66,"time":"501.23","velocity":0.2755905511811024,"duration":"0.06"},{"name":"D5","midi":74,"time":"501.23","velocity":0.23622047244094488,"duration":"0.05"},{"name":"G#5","midi":80,"time":"501.23","velocity":0.2283464566929134,"duration":"0.02"},{"name":"D#6","midi":87,"time":"501.23","velocity":0.2440944881889764,"duration":"0.12"},{"name":"A#5","midi":82,"time":"501.24","velocity":0.4566929133858268,"duration":"0.02"},{"name":"D6","midi":86,"time":"501.24","velocity":0.2440944881889764,"duration":"0.02"},{"name":"G6","midi":91,"time":"501.24","velocity":0.30708661417322836,"duration":"0.03"},{"name":"D3","midi":50,"time":"501.26","velocity":0.4330708661417323,"duration":"0.05"},{"name":"A1","midi":33,"time":"501.27","velocity":0.36220472440944884,"duration":"0.02"},{"name":"B5","midi":83,"time":"501.27","velocity":0.5748031496062992,"duration":"0.15"},{"name":"F6","midi":89,"time":"501.27","velocity":0.3543307086614173,"duration":"0.21"},{"name":"C#5","midi":73,"time":"501.28","velocity":0.2125984251968504,"duration":"0.03"},{"name":"B1","midi":35,"time":"501.29","velocity":0.3779527559055118,"duration":"0.02"},{"name":"G6","midi":91,"time":"501.29","velocity":0.25196850393700787,"duration":"0.03"},{"name":"D3","midi":50,"time":"501.31","velocity":0.5433070866141733,"duration":"0.34"},{"name":"B3","midi":59,"time":"501.33","velocity":0.2677165354330709,"duration":"0.02"},{"name":"A2","midi":45,"time":"501.34","velocity":0.3779527559055118,"duration":"0.02"},{"name":"F#5","midi":78,"time":"501.34","velocity":0.28346456692913385,"duration":"0.09"},{"name":"C7","midi":96,"time":"501.34","velocity":0.2125984251968504,"duration":"0.05"},{"name":"D6","midi":86,"time":"501.35","velocity":0.15748031496062992,"duration":"0.05"},{"name":"G6","midi":91,"time":"501.35","velocity":0.2047244094488189,"duration":"0.06"},{"name":"G#5","midi":80,"time":"501.36","velocity":0.25984251968503935,"duration":"0.02"},{"name":"D#6","midi":87,"time":"501.37","velocity":0.2047244094488189,"duration":"0.05"},{"name":"A#3","midi":58,"time":"501.38","velocity":0.30708661417322836,"duration":"0.06"},{"name":"F#4","midi":66,"time":"501.40","velocity":0.18110236220472442,"duration":"0.03"},{"name":"C7","midi":96,"time":"501.40","velocity":0.23622047244094488,"duration":"0.06"},{"name":"G#5","midi":80,"time":"501.41","velocity":0.2755905511811024,"duration":"0.02"},{"name":"A#5","midi":82,"time":"501.41","velocity":0.4566929133858268,"duration":"0.02"},{"name":"D6","midi":86,"time":"501.41","velocity":0.23622047244094488,"duration":"0.24"},{"name":"E6","midi":88,"time":"501.41","velocity":0.4015748031496063,"duration":"0.14"},{"name":"D#7","midi":99,"time":"501.42","velocity":0.3464566929133858,"duration":"0.97"},{"name":"D#5","midi":75,"time":"501.43","velocity":0.2204724409448819,"duration":"0.03"},{"name":"D#6","midi":87,"time":"501.43","velocity":0.25196850393700787,"duration":"0.03"},{"name":"G6","midi":91,"time":"501.43","velocity":0.2440944881889764,"duration":"0.06"},{"name":"F#4","midi":66,"time":"501.45","velocity":0.18110236220472442,"duration":"0.05"},{"name":"F#5","midi":78,"time":"501.45","velocity":0.33070866141732286,"duration":"0.06"},{"name":"A3","midi":57,"time":"501.48","velocity":0.28346456692913385,"duration":"0.02"},{"name":"C7","midi":96,"time":"501.48","velocity":0.2204724409448819,"duration":"0.05"},{"name":"C#5","midi":73,"time":"501.49","velocity":0.3228346456692913,"duration":"0.16"},{"name":"F4","midi":65,"time":"501.50","velocity":0.2755905511811024,"duration":"0.02"},{"name":"E5","midi":76,"time":"501.50","velocity":0.2440944881889764,"duration":"0.13"},{"name":"C#6","midi":85,"time":"501.50","velocity":0.36220472440944884,"duration":"0.84"},{"name":"D#6","midi":87,"time":"501.50","velocity":0.23622047244094488,"duration":"0.17"},{"name":"G6","midi":91,"time":"501.50","velocity":0.2755905511811024,"duration":"0.05"},{"name":"G7","midi":103,"time":"501.51","velocity":0.2755905511811024,"duration":"0.12"},{"name":"F#5","midi":78,"time":"501.52","velocity":0.2755905511811024,"duration":"0.07"},{"name":"G#6","midi":92,"time":"501.52","velocity":0.3228346456692913,"duration":"0.15"},{"name":"C7","midi":96,"time":"501.53","velocity":0.2204724409448819,"duration":"0.07"},{"name":"A3","midi":57,"time":"501.55","velocity":0.4645669291338583,"duration":"0.28"},{"name":"F6","midi":89,"time":"501.55","velocity":0.31496062992125984,"duration":"0.09"},{"name":"A#5","midi":82,"time":"501.56","velocity":0.48031496062992124,"duration":"0.03"},{"name":"E6","midi":88,"time":"501.56","velocity":0.3543307086614173,"duration":"0.15"},{"name":"F2","midi":41,"time":"501.57","velocity":0.29133858267716534,"duration":"0.02"},{"name":"F5","midi":77,"time":"501.59","velocity":0.1732283464566929,"duration":"0.06"},{"name":"G5","midi":79,"time":"501.59","velocity":0.15748031496062992,"duration":"0.03"},{"name":"B5","midi":83,"time":"501.59","velocity":0.5433070866141733,"duration":"0.05"},{"name":"G6","midi":91,"time":"501.59","velocity":0.28346456692913385,"duration":"0.05"},{"name":"D7","midi":98,"time":"501.59","velocity":0.2755905511811024,"duration":"0.07"},{"name":"B4","midi":71,"time":"501.60","velocity":0.36220472440944884,"duration":"0.02"},{"name":"F#4","midi":66,"time":"501.62","velocity":0.1968503937007874,"duration":"0.05"},{"name":"C7","midi":96,"time":"501.62","velocity":0.23622047244094488,"duration":"0.14"},{"name":"F2","midi":41,"time":"501.63","velocity":0.29133858267716534,"duration":"0.02"},{"name":"B4","midi":71,"time":"501.64","velocity":0.4015748031496063,"duration":"0.02"},{"name":"F#2","midi":42,"time":"501.65","velocity":0.2755905511811024,"duration":"0.02"},{"name":"D5","midi":74,"time":"501.65","velocity":0.3228346456692913,"duration":"0.08"},{"name":"E5","midi":76,"time":"501.65","velocity":0.28346456692913385,"duration":"0.09"},{"name":"F#5","midi":78,"time":"501.65","velocity":0.2204724409448819,"duration":"0.07"},{"name":"G5","midi":79,"time":"501.65","velocity":0.11023622047244094,"duration":"0.03"},{"name":"G#5","midi":80,"time":"501.65","velocity":0.25196850393700787,"duration":"0.03"},{"name":"B5","midi":83,"time":"501.65","velocity":0.5196850393700787,"duration":"0.07"},{"name":"G6","midi":91,"time":"501.65","velocity":0.25196850393700787,"duration":"0.06"},{"name":"D3","midi":50,"time":"501.66","velocity":0.5590551181102362,"duration":"0.48"},{"name":"F#4","midi":66,"time":"501.67","velocity":0.25984251968503935,"duration":"0.03"},{"name":"D7","midi":98,"time":"501.67","velocity":0.2283464566929134,"duration":"0.10"},{"name":"F6","midi":89,"time":"501.70","velocity":0.33070866141732286,"duration":"0.10"},{"name":"G#6","midi":92,"time":"501.70","velocity":0.30708661417322836,"duration":"0.44"},{"name":"G#5","midi":80,"time":"501.72","velocity":0.2677165354330709,"duration":"0.05"},{"name":"A#5","midi":82,"time":"501.72","velocity":0.4251968503937008,"duration":"0.02"},{"name":"E6","midi":88,"time":"501.72","velocity":0.33858267716535434,"duration":"0.07"},{"name":"F#5","midi":78,"time":"501.73","velocity":0.31496062992125984,"duration":"0.44"},{"name":"D6","midi":86,"time":"501.73","velocity":0.2204724409448819,"duration":"0.05"},{"name":"G6","midi":91,"time":"501.73","velocity":0.2440944881889764,"duration":"0.06"},{"name":"C#4","midi":61,"time":"501.74","velocity":0.3228346456692913,"duration":"0.06"},{"name":"B4","midi":71,"time":"501.74","velocity":0.48031496062992124,"duration":"0.12"},{"name":"B5","midi":83,"time":"501.74","velocity":0.5039370078740157,"duration":"0.13"},{"name":"D#6","midi":87,"time":"501.77","velocity":0.1968503937007874,"duration":"0.26"},{"name":"G2","midi":43,"time":"501.78","velocity":0.3228346456692913,"duration":"0.02"},{"name":"E5","midi":76,"time":"501.79","velocity":0.2992125984251969,"duration":"0.09"},{"name":"D6","midi":86,"time":"501.79","velocity":0.07086614173228346,"duration":"0.03"},{"name":"D5","midi":74,"time":"501.80","velocity":0.16535433070866143,"duration":"0.03"},{"name":"E6","midi":88,"time":"501.80","velocity":0.4015748031496063,"duration":"0.06"},{"name":"C7","midi":96,"time":"501.80","velocity":0.1889763779527559,"duration":"0.13"},{"name":"D7","midi":98,"time":"501.80","velocity":0.2125984251968504,"duration":"0.22"},{"name":"C#4","midi":61,"time":"501.81","velocity":0.25196850393700787,"duration":"0.08"},{"name":"G6","midi":91,"time":"501.81","velocity":0.29133858267716534,"duration":"0.20"},{"name":"A3","midi":57,"time":"501.84","velocity":0.30708661417322836,"duration":"0.02"},{"name":"D5","midi":74,"time":"501.85","velocity":0.1889763779527559,"duration":"0.05"},{"name":"A#5","midi":82,"time":"501.86","velocity":0.4881889763779528,"duration":"0.02"},{"name":"F6","midi":89,"time":"501.86","velocity":0.29133858267716534,"duration":"0.09"},{"name":"A3","midi":57,"time":"501.87","velocity":0.3858267716535433,"duration":"0.10"},{"name":"B4","midi":71,"time":"501.87","velocity":0.4645669291338583,"duration":"0.12"},{"name":"E6","midi":88,"time":"501.87","velocity":0.3858267716535433,"duration":"0.12"},{"name":"B5","midi":83,"time":"501.88","velocity":0.49606299212598426,"duration":"0.06"},{"name":"C#5","midi":73,"time":"501.90","velocity":0.18110236220472442,"duration":"0.05"},{"name":"F#4","midi":66,"time":"501.91","velocity":0.2440944881889764,"duration":"0.03"},{"name":"A#6","midi":94,"time":"501.92","velocity":0.2440944881889764,"duration":"0.27"},{"name":"E5","midi":76,"time":"501.93","velocity":0.3228346456692913,"duration":"0.31"},{"name":"C#4","midi":61,"time":"501.94","velocity":0.3464566929133858,"duration":"0.13"},{"name":"D5","midi":74,"time":"501.94","velocity":0.16535433070866143,"duration":"0.09"},{"name":"C7","midi":96,"time":"501.94","velocity":0.16535433070866143,"duration":"0.16"},{"name":"F#4","midi":66,"time":"501.95","velocity":0.2283464566929134,"duration":"0.02"},{"name":"B5","midi":83,"time":"501.95","velocity":0.5590551181102362,"duration":"0.22"},{"name":"F7","midi":101,"time":"501.95","velocity":0.10236220472440945,"duration":"0.08"},{"name":"G#5","midi":80,"time":"501.97","velocity":0.2992125984251969,"duration":"0.06"},{"name":"A3","midi":57,"time":"501.99","velocity":0.3937007874015748,"duration":"0.07"},{"name":"B4","midi":71,"time":"502.00","velocity":0.5196850393700787,"duration":"0.08"},{"name":"E6","midi":88,"time":"502.00","velocity":0.3464566929133858,"duration":"0.26"},{"name":"F#6","midi":90,"time":"502.00","velocity":0.47244094488188976,"duration":"0.60"},{"name":"F#4","midi":66,"time":"502.01","velocity":0.30708661417322836,"duration":"0.05"},{"name":"D6","midi":86,"time":"502.02","velocity":0.18110236220472442,"duration":"0.07"},{"name":"F6","midi":89,"time":"502.02","velocity":0.31496062992125984,"duration":"0.09"},{"name":"G6","midi":91,"time":"502.02","velocity":0.2755905511811024,"duration":"0.08"},{"name":"D7","midi":98,"time":"502.03","velocity":0.2047244094488189,"duration":"0.31"},{"name":"D5","midi":74,"time":"502.05","velocity":0.14960629921259844,"duration":"0.03"},{"name":"F#4","midi":66,"time":"502.07","velocity":0.25196850393700787,"duration":"0.03"},{"name":"A#3","midi":58,"time":"502.08","velocity":0.4094488188976378,"duration":"0.02"},{"name":"D#6","midi":87,"time":"502.09","velocity":0.1732283464566929,"duration":"0.06"},{"name":"C#4","midi":61,"time":"502.10","velocity":0.30708661417322836,"duration":"0.02"},{"name":"B4","midi":71,"time":"502.12","velocity":0.3779527559055118,"duration":"0.02"},{"name":"C7","midi":96,"time":"502.12","velocity":0.2204724409448819,"duration":"0.15"},{"name":"C4","midi":60,"time":"502.13","velocity":0.36220472440944884,"duration":"0.02"},{"name":"E4","midi":64,"time":"502.13","velocity":0.16535433070866143,"duration":"0.03"},{"name":"G6","midi":91,"time":"502.13","velocity":0.2755905511811024,"duration":"0.03"},{"name":"C#3","midi":49,"time":"502.14","velocity":0.5511811023622047,"duration":"0.01"},{"name":"C#5","midi":73,"time":"502.14","velocity":0.16535433070866143,"duration":"0.03"},{"name":"F7","midi":101,"time":"502.14","velocity":0.2283464566929134,"duration":"0.22"},{"name":"D3","midi":50,"time":"502.15","velocity":0.5826771653543307,"duration":"0.49"},{"name":"B4","midi":71,"time":"502.15","velocity":0.3858267716535433,"duration":"0.02"},{"name":"D#6","midi":87,"time":"502.16","velocity":0.11811023622047244,"duration":"0.05"},{"name":"G#6","midi":92,"time":"502.16","velocity":0.2992125984251969,"duration":"0.13"},{"name":"C#4","midi":61,"time":"502.17","velocity":0.31496062992125984,"duration":"0.05"},{"name":"A#5","midi":82,"time":"502.17","velocity":0.47244094488188976,"duration":"0.03"},{"name":"F6","midi":89,"time":"502.17","velocity":0.2992125984251969,"duration":"0.09"},{"name":"F#5","midi":78,"time":"502.20","velocity":0.3228346456692913,"duration":"0.16"},{"name":"G6","midi":91,"time":"502.20","velocity":0.2677165354330709,"duration":"0.13"},{"name":"C#7","midi":97,"time":"502.20","velocity":0.5039370078740157,"duration":"10.20"},{"name":"B4","midi":71,"time":"502.21","velocity":0.5039370078740157,"duration":"0.07"},{"name":"D6","midi":86,"time":"502.21","velocity":0.16535433070866143,"duration":"0.03"},{"name":"C4","midi":60,"time":"502.23","velocity":0.3700787401574803,"duration":"0.02"},{"name":"A3","midi":57,"time":"502.24","velocity":0.4094488188976378,"duration":"0.21"},{"name":"F#4","midi":66,"time":"502.24","velocity":0.23622047244094488,"duration":"0.03"},{"name":"C#5","midi":73,"time":"502.24","velocity":0.33858267716535434,"duration":"0.33"},{"name":"D#5","midi":75,"time":"502.24","velocity":0.14960629921259844,"duration":"0.03"},{"name":"D#6","midi":87,"time":"502.24","velocity":0.1968503937007874,"duration":"0.08"},{"name":"C#4","midi":61,"time":"502.26","velocity":0.36220472440944884,"duration":"0.05"},{"name":"E6","midi":88,"time":"502.27","velocity":0.33070866141732286,"duration":"0.06"},{"name":"C7","midi":96,"time":"502.28","velocity":0.1889763779527559,"duration":"0.08"},{"name":"E5","midi":76,"time":"502.29","velocity":0.30708661417322836,"duration":"0.26"},{"name":"G#6","midi":92,"time":"502.30","velocity":0.33858267716535434,"duration":"0.29"},{"name":"F#4","midi":66,"time":"502.31","velocity":0.2755905511811024,"duration":"0.03"},{"name":"A#5","midi":82,"time":"502.33","velocity":0.4566929133858268,"duration":"0.02"},{"name":"D6","midi":86,"time":"502.33","velocity":0.15748031496062992,"duration":"0.08"},{"name":"F6","midi":89,"time":"502.33","velocity":0.33070866141732286,"duration":"0.10"},{"name":"C#4","midi":61,"time":"502.34","velocity":0.33070866141732286,"duration":"0.02"},{"name":"G#5","midi":80,"time":"502.34","velocity":0.14960629921259844,"duration":"0.03"},{"name":"B5","midi":83,"time":"502.34","velocity":0.5511811023622047,"duration":"0.23"},{"name":"G6","midi":91,"time":"502.34","velocity":0.11811023622047244,"duration":"0.03"},{"name":"E6","midi":88,"time":"502.35","velocity":0.31496062992125984,"duration":"0.06"},{"name":"G5","midi":79,"time":"502.36","velocity":0.10236220472440945,"duration":"0.05"},{"name":"D7","midi":98,"time":"502.36","velocity":0.2204724409448819,"duration":"0.12"},{"name":"D#6","midi":87,"time":"502.37","velocity":0.2047244094488189,"duration":"0.09"},{"name":"G6","midi":91,"time":"502.38","velocity":0.29133858267716534,"duration":"0.09"},{"name":"F#5","midi":78,"time":"502.40","velocity":0.30708661417322836,"duration":"0.03"},{"name":"D#7","midi":99,"time":"502.40","velocity":0.29133858267716534,"duration":"0.77"},{"name":"F4","midi":65,"time":"502.41","velocity":0.12598425196850394,"duration":"0.03"},{"name":"B4","midi":71,"time":"502.41","velocity":0.5511811023622047,"duration":"0.05"},{"name":"E6","midi":88,"time":"502.42","velocity":0.3779527559055118,"duration":"0.12"},{"name":"C#4","midi":61,"time":"502.43","velocity":0.2440944881889764,"duration":"0.03"},{"name":"G#5","midi":80,"time":"502.44","velocity":0.2283464566929134,"duration":"0.03"},{"name":"F#5","midi":78,"time":"502.45","velocity":0.2755905511811024,"duration":"0.26"},{"name":"C7","midi":96,"time":"502.45","velocity":0.1968503937007874,"duration":"0.24"},{"name":"F7","midi":101,"time":"502.45","velocity":0.2204724409448819,"duration":"0.43"},{"name":"E4","midi":64,"time":"502.47","velocity":0.2047244094488189,"duration":"0.05"},{"name":"C#6","midi":85,"time":"502.47","velocity":0.36220472440944884,"duration":"0.52"},{"name":"D6","midi":86,"time":"502.47","velocity":0.13385826771653545,"duration":"0.05"},{"name":"D#6","midi":87,"time":"502.48","velocity":0.12598425196850394,"duration":"0.08"},{"name":"F6","midi":89,"time":"502.48","velocity":0.33858267716535434,"duration":"0.10"},{"name":"B4","midi":71,"time":"502.49","velocity":0.44881889763779526,"duration":"0.02"},{"name":"A#5","midi":82,"time":"502.49","velocity":0.4409448818897638,"duration":"0.02"},{"name":"G6","midi":91,"time":"502.49","velocity":0.2125984251968504,"duration":"0.06"},{"name":"D7","midi":98,"time":"502.49","velocity":0.25984251968503935,"duration":"0.34"},{"name":"C#4","midi":61,"time":"502.51","velocity":0.2283464566929134,"duration":"0.02"},{"name":"F#4","midi":66,"time":"502.53","velocity":0.23622047244094488,"duration":"0.03"},{"name":"G#5","midi":80,"time":"502.53","velocity":0.16535433070866143,"duration":"0.06"},{"name":"G6","midi":91,"time":"502.56","velocity":0.28346456692913385,"duration":"0.08"},{"name":"D5","midi":74,"time":"502.57","velocity":0.23622047244094488,"duration":"0.12"},{"name":"E6","midi":88,"time":"502.57","velocity":0.44881889763779526,"duration":"0.07"},{"name":"B5","midi":83,"time":"502.58","velocity":0.5590551181102362,"duration":"0.06"},{"name":"B4","midi":71,"time":"502.59","velocity":0.4566929133858268,"duration":"0.09"},{"name":"G5","midi":79,"time":"502.59","velocity":0.1968503937007874,"duration":"0.07"},{"name":"F#6","midi":90,"time":"502.62","velocity":0.4881889763779528,"duration":"0.70"},{"name":"F5","midi":77,"time":"502.63","velocity":0.2047244094488189,"duration":"0.03"},{"name":"F6","midi":89,"time":"502.63","velocity":0.3464566929133858,"duration":"0.10"},{"name":"G#6","midi":92,"time":"502.63","velocity":0.31496062992125984,"duration":"0.13"},{"name":"D#2","midi":39,"time":"502.64","velocity":0.4330708661417323,"duration":"0.02"},{"name":"A3","midi":57,"time":"502.64","velocity":0.5590551181102362,"duration":"0.52"},{"name":"D4","midi":62,"time":"502.64","velocity":0.33858267716535434,"duration":"0.02"},{"name":"A#5","midi":82,"time":"502.64","velocity":0.5118110236220472,"duration":"0.02"},{"name":"D#6","midi":87,"time":"502.64","velocity":0.2125984251968504,"duration":"0.07"},{"name":"D6","midi":86,"time":"502.65","velocity":0.25196850393700787,"duration":"0.08"},{"name":"E6","midi":88,"time":"502.65","velocity":0.3937007874015748,"duration":"0.23"},{"name":"G7","midi":103,"time":"502.65","velocity":0.25196850393700787,"duration":"0.85"},{"name":"G#5","midi":80,"time":"502.66","velocity":0.2677165354330709,"duration":"0.06"},{"name":"B5","midi":83,"time":"502.66","velocity":0.5511811023622047,"duration":"0.12"},{"name":"E4","midi":64,"time":"502.67","velocity":0.2755905511811024,"duration":"0.03"},{"name":"E5","midi":76,"time":"502.67","velocity":0.30708661417322836,"duration":"0.07"},{"name":"G6","midi":91,"time":"502.69","velocity":0.25196850393700787,"duration":"0.05"},{"name":"D3","midi":50,"time":"502.70","velocity":0.3937007874015748,"duration":"0.02"},{"name":"C#5","midi":73,"time":"502.71","velocity":0.30708661417322836,"duration":"0.10"},{"name":"C7","midi":96,"time":"502.71","velocity":0.1968503937007874,"duration":"0.09"},{"name":"E4","midi":64,"time":"502.73","velocity":0.2677165354330709,"duration":"0.03"},{"name":"F5","midi":77,"time":"502.73","velocity":0.29133858267716534,"duration":"0.03"},{"name":"G#5","midi":80,"time":"502.73","velocity":0.3228346456692913,"duration":"0.02"},{"name":"D3","midi":50,"time":"502.74","velocity":0.4566929133858268,"duration":"0.03"},{"name":"B4","midi":71,"time":"502.74","velocity":0.48031496062992124,"duration":"0.12"},{"name":"D6","midi":86,"time":"502.74","velocity":0.2440944881889764,"duration":"0.03"},{"name":"G6","midi":91,"time":"502.74","velocity":0.3464566929133858,"duration":"0.05"},{"name":"E5","midi":76,"time":"502.76","velocity":0.33858267716535434,"duration":"0.22"},{"name":"C#4","midi":61,"time":"502.77","velocity":0.3228346456692913,"duration":"0.02"},{"name":"F#5","midi":78,"time":"502.77","velocity":0.29133858267716534,"duration":"0.16"},{"name":"G#6","midi":92,"time":"502.77","velocity":0.3779527559055118,"duration":"0.16"},{"name":"C#3","midi":49,"time":"502.78","velocity":0.5118110236220472,"duration":"0.02"},{"name":"A#5","midi":82,"time":"502.78","velocity":0.47244094488188976,"duration":"0.02"},{"name":"E4","midi":64,"time":"502.79","velocity":0.2047244094488189,"duration":"0.07"},{"name":"D#6","midi":87,"time":"502.79","velocity":0.11811023622047244,"duration":"0.05"},{"name":"D3","midi":50,"time":"502.80","velocity":0.6062992125984252,"duration":"0.13"},{"name":"B5","midi":83,"time":"502.80","velocity":0.5669291338582677,"duration":"0.15"},{"name":"F6","midi":89,"time":"502.80","velocity":0.3779527559055118,"duration":"0.10"},{"name":"G6","midi":91,"time":"502.80","velocity":0.2992125984251969,"duration":"0.14"},{"name":"G#5","midi":80,"time":"502.81","velocity":0.23622047244094488,"duration":"0.03"},{"name":"D6","midi":86,"time":"502.81","velocity":0.16535433070866143,"duration":"0.03"},{"name":"C#5","midi":73,"time":"502.83","velocity":0.23622047244094488,"duration":"0.06"},{"name":"C7","midi":96,"time":"502.84","velocity":0.25196850393700787,"duration":"0.34"},{"name":"D7","midi":98,"time":"502.84","velocity":0.33858267716535434,"duration":"2.37"},{"name":"D#6","midi":87,"time":"502.86","velocity":0.18110236220472442,"duration":"0.17"},{"name":"E4","midi":64,"time":"502.87","velocity":0.2677165354330709,"duration":"0.02"},{"name":"B4","midi":71,"time":"502.87","velocity":0.30708661417322836,"duration":"0.02"},{"name":"G5","midi":79,"time":"502.88","velocity":0.11811023622047244,"duration":"0.03"},{"name":"F#4","midi":66,"time":"502.90","velocity":0.23622047244094488,"duration":"0.02"},{"name":"D5","midi":74,"time":"502.90","velocity":0.2125984251968504,"duration":"0.05"},{"name":"E6","midi":88,"time":"502.90","velocity":0.3464566929133858,"duration":"0.07"},{"name":"B4","midi":71,"time":"502.91","velocity":0.4094488188976378,"duration":"0.07"},{"name":"F7","midi":101,"time":"502.91","velocity":0.11023622047244094,"duration":"0.06"},{"name":"G#5","midi":80,"time":"502.92","velocity":0.1732283464566929,"duration":"0.06"},{"name":"C#3","midi":49,"time":"502.93","velocity":0.5905511811023622,"duration":"0.01"},{"name":"D6","midi":86,"time":"502.93","velocity":0.23622047244094488,"duration":"0.09"},{"name":"D3","midi":50,"time":"502.94","velocity":0.6299212598425197,"duration":"0.15"},{"name":"E4","midi":64,"time":"502.94","velocity":0.14173228346456693,"duration":"0.03"},{"name":"G#6","midi":92,"time":"502.94","velocity":0.2992125984251969,"duration":"0.13"},{"name":"A#5","midi":82,"time":"502.95","velocity":0.5118110236220472,"duration":"0.02"},{"name":"F6","midi":89,"time":"502.95","velocity":0.36220472440944884,"duration":"0.10"},{"name":"C#5","midi":73,"time":"502.97","velocity":0.2204724409448819,"duration":"0.06"},{"name":"F5","midi":77,"time":"502.97","velocity":0.28346456692913385,"duration":"0.06"},{"name":"G6","midi":91,"time":"502.97","velocity":0.25196850393700787,"duration":"0.05"},{"name":"B5","midi":83,"time":"502.98","velocity":0.5275590551181102,"duration":"0.13"},{"name":"E6","midi":88,"time":"502.98","velocity":0.1732283464566929,"duration":"0.05"},{"name":"E4","midi":64,"time":"502.99","velocity":0.2755905511811024,"duration":"0.03"},{"name":"F#5","midi":78,"time":"502.99","velocity":0.25984251968503935,"duration":"0.14"},{"name":"C#6","midi":85,"time":"503.01","velocity":0.3228346456692913,"duration":"0.16"},{"name":"G#5","midi":80,"time":"503.02","velocity":0.25196850393700787,"duration":"0.05"},{"name":"A6","midi":93,"time":"503.02","velocity":0.2204724409448819,"duration":"0.21"},{"name":"E6","midi":88,"time":"503.03","velocity":0.36220472440944884,"duration":"0.08"},{"name":"E5","midi":76,"time":"503.05","velocity":0.3464566929133858,"duration":"0.12"},{"name":"G6","midi":91,"time":"503.05","velocity":0.2992125984251969,"duration":"0.10"},{"name":"E4","midi":64,"time":"503.06","velocity":0.25196850393700787,"duration":"0.03"},{"name":"F6","midi":89,"time":"503.07","velocity":0.25984251968503935,"duration":"0.02"},{"name":"C#3","midi":49,"time":"503.09","velocity":0.5748031496062992,"duration":"0.01"},{"name":"C6","midi":84,"time":"503.09","velocity":0.2755905511811024,"duration":"0.02"},{"name":"G#6","midi":92,"time":"503.09","velocity":0.33070866141732286,"duration":"0.13"},{"name":"D3","midi":50,"time":"503.10","velocity":0.5669291338582677,"duration":"0.05"},{"name":"A#5","midi":82,"time":"503.10","velocity":0.5039370078740157,"duration":"0.02"},{"name":"F6","midi":89,"time":"503.10","velocity":0.3464566929133858,"duration":"0.09"},{"name":"E7","midi":100,"time":"503.10","velocity":0.5275590551181102,"duration":"13.64"},{"name":"B6","midi":95,"time":"503.12","velocity":0.3779527559055118,"duration":"0.90"},{"name":"F#4","midi":66,"time":"503.13","velocity":0.29133858267716534,"duration":"0.09"},{"name":"C#5","midi":73,"time":"503.13","velocity":0.29133858267716534,"duration":"0.10"},{"name":"B5","midi":83,"time":"503.13","velocity":0.5590551181102362,"duration":"0.30"},{"name":"D#6","midi":87,"time":"503.14","velocity":0.25196850393700787,"duration":"0.26"},{"name":"C#3","midi":49,"time":"503.15","velocity":0.5748031496062992,"duration":"0.01"},{"name":"A#6","midi":94,"time":"503.15","velocity":0.3700787401574803,"duration":"0.45"},{"name":"D3","midi":50,"time":"503.16","velocity":0.5669291338582677,"duration":"0.07"},{"name":"G#5","midi":80,"time":"503.16","velocity":0.15748031496062992,"duration":"0.03"},{"name":"D6","midi":86,"time":"503.16","velocity":0.1889763779527559,"duration":"0.03"},{"name":"G6","midi":91,"time":"503.16","velocity":0.2440944881889764,"duration":"0.02"},{"name":"A3","midi":57,"time":"503.17","velocity":0.3543307086614173,"duration":"0.02"},{"name":"B4","midi":71,"time":"503.17","velocity":0.3858267716535433,"duration":"0.09"},{"name":"E5","midi":76,"time":"503.17","velocity":0.2677165354330709,"duration":"0.03"},{"name":"D#7","midi":99,"time":"503.17","velocity":0.29133858267716534,"duration":"1.05"},{"name":"E6","midi":88,"time":"503.19","velocity":0.36220472440944884,"duration":"0.08"},{"name":"C7","midi":96,"time":"503.19","velocity":0.2047244094488189,"duration":"0.16"},{"name":"F5","midi":77,"time":"503.20","velocity":0.2677165354330709,"duration":"0.06"},{"name":"A2","midi":45,"time":"503.21","velocity":0.5275590551181102,"duration":"0.02"},{"name":"F7","midi":101,"time":"503.21","velocity":0.25984251968503935,"duration":"0.35"},{"name":"G#5","midi":80,"time":"503.22","velocity":0.2677165354330709,"duration":"0.03"},{"name":"G6","midi":91,"time":"503.22","velocity":0.3937007874015748,"duration":"0.14"},{"name":"C#5","midi":73,"time":"503.24","velocity":0.3464566929133858,"duration":"0.16"},{"name":"E5","midi":76,"time":"503.24","velocity":0.3464566929133858,"duration":"0.36"},{"name":"D#3","midi":51,"time":"503.26","velocity":0.5196850393700787,"duration":"0.01"},{"name":"F6","midi":89,"time":"503.26","velocity":0.3858267716535433,"duration":"0.10"},{"name":"G#6","midi":92,"time":"503.26","velocity":0.3464566929133858,"duration":"0.13"},{"name":"A2","midi":45,"time":"503.27","velocity":0.5118110236220472,"duration":"0.02"},{"name":"D6","midi":86,"time":"503.27","velocity":0.2204724409448819,"duration":"0.13"},{"name":"G#4","midi":68,"time":"503.28","velocity":0.25196850393700787,"duration":"0.02"},{"name":"D3","midi":50,"time":"503.29","velocity":0.4645669291338583,"duration":"0.02"},{"name":"F#4","midi":66,"time":"503.29","velocity":0.3543307086614173,"duration":"0.15"},{"name":"B4","midi":71,"time":"503.29","velocity":0.44881889763779526,"duration":"0.28"},{"name":"A2","midi":45,"time":"503.31","velocity":0.5354330708661418,"duration":"0.03"},{"name":"F#6","midi":90,"time":"503.33","velocity":0.4251968503937008,"duration":"0.41"},{"name":"F#3","midi":54,"time":"503.34","velocity":0.3543307086614173,"duration":"0.03"},{"name":"A4","midi":69,"time":"503.34","velocity":0.33858267716535434,"duration":"0.03"},{"name":"C#6","midi":85,"time":"503.34","velocity":0.3543307086614173,"duration":"0.28"},{"name":"A2","midi":45,"time":"503.36","velocity":0.5590551181102362,"duration":"0.02"},{"name":"E6","midi":88,"time":"503.36","velocity":0.3464566929133858,"duration":"0.14"},{"name":"C7","midi":96,"time":"503.36","velocity":0.15748031496062992,"duration":"0.05"},{"name":"G6","midi":91,"time":"503.37","velocity":0.33858267716535434,"duration":"0.06"},{"name":"D4","midi":62,"time":"503.38","velocity":0.3464566929133858,"duration":"0.05"},{"name":"A4","midi":69,"time":"503.38","velocity":0.4015748031496063,"duration":"0.05"},{"name":"A2","midi":45,"time":"503.40","velocity":0.5669291338582677,"duration":"0.05"},{"name":"G#6","midi":92,"time":"503.40","velocity":0.3779527559055118,"duration":"0.14"},{"name":"G#5","midi":80,"time":"503.42","velocity":0.28346456692913385,"duration":"0.02"},{"name":"F6","midi":89,"time":"503.42","velocity":0.33858267716535434,"duration":"0.12"},{"name":"C7","midi":96,"time":"503.42","velocity":0.2755905511811024,"duration":"0.22"},{"name":"C#4","midi":61,"time":"503.43","velocity":0.36220472440944884,"duration":"0.02"},{"name":"A#5","midi":82,"time":"503.43","velocity":0.47244094488188976,"duration":"0.03"},{"name":"D6","midi":86,"time":"503.43","velocity":0.2283464566929134,"duration":"0.10"},{"name":"G4","midi":67,"time":"503.44","velocity":0.33858267716535434,"duration":"0.02"},{"name":"B5","midi":83,"time":"503.44","velocity":0.5354330708661418,"duration":"0.06"},{"name":"F#4","midi":66,"time":"503.45","velocity":0.30708661417322836,"duration":"0.07"},{"name":"D5","midi":74,"time":"503.45","velocity":0.2283464566929134,"duration":"0.10"},{"name":"G#5","midi":80,"time":"503.45","velocity":0.2440944881889764,"duration":"0.03"},{"name":"A2","midi":45,"time":"503.47","velocity":0.5511811023622047,"duration":"0.07"},{"name":"C4","midi":60,"time":"503.47","velocity":0.33070866141732286,"duration":"0.02"},{"name":"G6","midi":91,"time":"503.47","velocity":0.3700787401574803,"duration":"0.05"},{"name":"G4","midi":67,"time":"503.48","velocity":0.2677165354330709,"duration":"0.02"},{"name":"A6","midi":93,"time":"503.48","velocity":0.5354330708661418,"duration":"0.90"},{"name":"G#4","midi":68,"time":"503.50","velocity":0.33858267716535434,"duration":"0.03"},{"name":"C6","midi":84,"time":"503.50","velocity":0.5511811023622047,"duration":"0.01"},{"name":"B5","midi":83,"time":"503.51","velocity":0.5511811023622047,"duration":"0.06"},{"name":"G7","midi":103,"time":"503.51","velocity":0.2204724409448819,"duration":"0.08"},{"name":"D#3","midi":51,"time":"503.52","velocity":0.5118110236220472,"duration":"0.01"},{"name":"G6","midi":91,"time":"503.52","velocity":0.36220472440944884,"duration":"0.12"},{"name":"B2","midi":47,"time":"503.53","velocity":0.5669291338582677,"duration":"0.01"},{"name":"G#2","midi":44,"time":"503.55","velocity":0.5354330708661418,"duration":"0.01"},{"name":"D3","midi":50,"time":"503.55","velocity":0.5354330708661418,"duration":"0.01"},{"name":"A3","midi":57,"time":"503.55","velocity":0.5354330708661418,"duration":"0.03"},{"name":"E4","midi":64,"time":"503.55","velocity":0.2283464566929134,"duration":"0.03"},{"name":"C#5","midi":73,"time":"503.55","velocity":0.2125984251968504,"duration":"0.03"},{"name":"A5","midi":81,"time":"503.55","velocity":0.6456692913385826,"duration":"0.30"},{"name":"G#6","midi":92,"time":"503.55","velocity":0.3543307086614173,"duration":"0.85"},{"name":"D#6","midi":87,"time":"503.56","velocity":0.14960629921259844,"duration":"0.05"},{"name":"F6","midi":89,"time":"503.56","velocity":0.25984251968503935,"duration":"0.06"},{"name":"A2","midi":45,"time":"503.57","velocity":0.5433070866141733,"duration":"0.02"},{"name":"D3","midi":50,"time":"503.57","velocity":0.5196850393700787,"duration":"0.01"},{"name":"A#5","midi":82,"time":"503.57","velocity":0.5118110236220472,"duration":"0.02"},{"name":"F7","midi":101,"time":"503.57","velocity":0.3700787401574803,"duration":"5.99"},{"name":"D#3","midi":51,"time":"503.58","velocity":0.5433070866141733,"duration":"0.01"},{"name":"B4","midi":71,"time":"503.58","velocity":0.3700787401574803,"duration":"0.07"},{"name":"F#5","midi":78,"time":"503.58","velocity":0.33858267716535434,"duration":"0.06"},{"name":"F#2","midi":42,"time":"503.59","velocity":0.6614173228346457,"duration":"0.01"},{"name":"A3","midi":57,"time":"503.59","velocity":0.4409448818897638,"duration":"0.02"},{"name":"G4","midi":67,"time":"503.59","velocity":0.2283464566929134,"duration":"0.02"},{"name":"B5","midi":83,"time":"503.59","velocity":0.5354330708661418,"duration":"0.14"},{"name":"E6","midi":88,"time":"503.59","velocity":0.5433070866141733,"duration":"3.34"},{"name":"F2","midi":41,"time":"503.60","velocity":0.7086614173228346,"duration":"0.01"},{"name":"A4","midi":69,"time":"503.60","velocity":0.5275590551181102,"duration":"0.22"},{"name":"D6","midi":86,"time":"503.60","velocity":0.33070866141732286,"duration":"0.05"},{"name":"G#2","midi":44,"time":"503.62","velocity":0.6299212598425197,"duration":"0.01"},{"name":"F3","midi":53,"time":"503.62","velocity":0.5196850393700787,"duration":"0.01"},{"name":"E5","midi":76,"time":"503.62","velocity":0.41732283464566927,"duration":"0.34"},{"name":"G#5","midi":80,"time":"503.62","velocity":0.31496062992125984,"duration":"0.05"},{"name":"A#6","midi":94,"time":"503.62","velocity":0.2755905511811024,"duration":"0.16"},{"name":"E3","midi":52,"time":"503.63","velocity":0.5354330708661418,"duration":"0.02"},{"name":"D5","midi":74,"time":"503.63","velocity":0.29133858267716534,"duration":"0.02"},{"name":"F6","midi":89,"time":"503.63","velocity":0.23622047244094488,"duration":"0.05"},{"name":"F2","midi":41,"time":"503.64","velocity":0.5196850393700787,"duration":"0.02"},{"name":"D1","midi":26,"time":"503.65","velocity":0.5590551181102362,"duration":"0.01"},{"name":"C5","midi":72,"time":"503.65","velocity":0.18110236220472442,"duration":"0.03"},{"name":"G5","midi":79,"time":"503.65","velocity":0.2047244094488189,"duration":"0.05"},{"name":"C#6","midi":85,"time":"503.65","velocity":0.3858267716535433,"duration":"0.15"},{"name":"G6","midi":91,"time":"503.65","velocity":0.2677165354330709,"duration":"0.23"},{"name":"B1","midi":35,"time":"503.66","velocity":0.5826771653543307,"duration":"0.01"},{"name":"G3","midi":55,"time":"503.66","velocity":0.4015748031496063,"duration":"0.02"},{"name":"D#6","midi":87,"time":"503.66","velocity":0.1968503937007874,"duration":"0.06"},{"name":"C7","midi":96,"time":"503.66","velocity":0.33070866141732286,"duration":"0.50"},{"name":"D#2","midi":39,"time":"503.67","velocity":0.5275590551181102,"duration":"0.01"},{"name":"A#3","midi":58,"time":"503.67","velocity":0.3464566929133858,"duration":"0.02"},{"name":"E4","midi":64,"time":"503.67","velocity":0.29133858267716534,"duration":"0.02"},{"name":"B4","midi":71,"time":"503.67","velocity":0.33070866141732286,"duration":"0.03"},{"name":"G#2","midi":44,"time":"503.69","velocity":0.5590551181102362,"duration":"0.02"},{"name":"C#4","midi":61,"time":"503.69","velocity":0.33858267716535434,"duration":"0.02"},{"name":"D#3","midi":51,"time":"503.70","velocity":0.5826771653543307,"duration":"0.03"},{"name":"F4","midi":65,"time":"503.70","velocity":0.28346456692913385,"duration":"0.02"},{"name":"B3","midi":59,"time":"503.71","velocity":0.3700787401574803,"duration":"0.02"},{"name":"A2","midi":45,"time":"503.72","velocity":0.5196850393700787,"duration":"0.01"},{"name":"A#5","midi":82,"time":"503.72","velocity":0.4094488188976378,"duration":"0.02"},{"name":"C6","midi":84,"time":"503.72","velocity":0.3228346456692913,"duration":"0.03"},{"name":"F6","midi":89,"time":"503.72","velocity":0.25196850393700787,"duration":"0.06"},{"name":"D6","midi":86,"time":"503.73","velocity":0.1732283464566929,"duration":"0.08"},{"name":"B4","midi":71,"time":"503.74","velocity":0.28346456692913385,"duration":"0.02"},{"name":"G5","midi":79,"time":"503.74","velocity":0.30708661417322836,"duration":"0.14"},{"name":"B5","midi":83,"time":"503.74","velocity":0.48031496062992124,"duration":"0.14"},{"name":"E3","midi":52,"time":"503.76","velocity":0.5118110236220472,"duration":"0.01"},{"name":"C#5","midi":73,"time":"503.76","velocity":0.3464566929133858,"duration":"0.06"},{"name":"F#6","midi":90,"time":"503.76","velocity":0.3543307086614173,"duration":"0.52"},{"name":"F3","midi":53,"time":"503.77","velocity":0.5039370078740157,"duration":"0.03"},{"name":"B3","midi":59,"time":"503.77","velocity":0.3937007874015748,"duration":"0.02"},{"name":"F1","midi":29,"time":"503.78","velocity":0.36220472440944884,"duration":"0.02"},{"name":"G#2","midi":44,"time":"503.78","velocity":0.5039370078740157,"duration":"0.02"},{"name":"E4","midi":64,"time":"503.79","velocity":0.36220472440944884,"duration":"0.14"},{"name":"B4","midi":71,"time":"503.79","velocity":0.2755905511811024,"duration":"0.03"},{"name":"A3","midi":57,"time":"503.80","velocity":0.4094488188976378,"duration":"0.07"},{"name":"F6","midi":89,"time":"503.80","velocity":0.1732283464566929,"duration":"0.03"},{"name":"C#4","midi":61,"time":"503.81","velocity":0.25196850393700787,"duration":"0.03"},{"name":"D5","midi":74,"time":"503.81","velocity":0.1968503937007874,"duration":"0.03"},{"name":"C6","midi":84,"time":"503.81","velocity":0.23622047244094488,"duration":"0.02"},{"name":"A#6","midi":94,"time":"503.81","velocity":0.36220472440944884,"duration":"0.45"},{"name":"C#6","midi":85,"time":"503.83","velocity":0.2677165354330709,"duration":"0.08"},{"name":"E1","midi":28,"time":"503.84","velocity":0.4015748031496063,"duration":"0.02"},{"name":"B2","midi":47,"time":"503.84","velocity":0.48031496062992124,"duration":"0.03"},{"name":"A#5","midi":82,"time":"503.84","velocity":0.4409448818897638,"duration":"0.03"},{"name":"C#5","midi":73,"time":"503.85","velocity":0.25196850393700787,"duration":"0.05"},{"name":"D#6","midi":87,"time":"503.85","velocity":0.2677165354330709,"duration":"0.03"},{"name":"F#5","midi":78,"time":"503.86","velocity":0.3543307086614173,"duration":"0.08"},{"name":"A5","midi":81,"time":"503.86","velocity":0.6220472440944882,"duration":"0.55"},{"name":"F2","midi":41,"time":"503.87","velocity":0.49606299212598426,"duration":"0.02"},{"name":"G#4","midi":68,"time":"503.87","velocity":0.33858267716535434,"duration":"0.06"},{"name":"F6","midi":89,"time":"503.87","velocity":0.2440944881889764,"duration":"0.02"},{"name":"G#3","midi":56,"time":"503.88","velocity":0.3858267716535433,"duration":"0.02"},{"name":"B4","midi":71,"time":"503.88","velocity":0.3858267716535433,"duration":"0.06"},{"name":"D6","midi":86,"time":"503.88","velocity":0.25984251968503935,"duration":"0.24"},{"name":"B5","midi":83,"time":"503.90","velocity":0.3937007874015748,"duration":"0.06"},{"name":"G6","midi":91,"time":"503.90","velocity":0.23622047244094488,"duration":"0.02"},{"name":"D5","midi":74,"time":"503.91","velocity":0.29133858267716534,"duration":"0.03"},{"name":"A#3","midi":58,"time":"503.92","velocity":0.30708661417322836,"duration":"0.02"},{"name":"C#4","midi":61,"time":"503.92","velocity":0.4094488188976378,"duration":"0.13"},{"name":"D#6","midi":87,"time":"503.92","velocity":0.1968503937007874,"duration":"0.08"},{"name":"G6","midi":91,"time":"503.93","velocity":0.25196850393700787,"duration":"0.27"},{"name":"A4","midi":69,"time":"503.94","velocity":0.4409448818897638,"duration":"0.05"},{"name":"G5","midi":79,"time":"503.94","velocity":0.3543307086614173,"duration":"0.06"},{"name":"F6","midi":89,"time":"503.94","velocity":0.1889763779527559,"duration":"0.06"},{"name":"D3","midi":50,"time":"503.95","velocity":0.5275590551181102,"duration":"0.01"},{"name":"A#5","midi":82,"time":"503.95","velocity":0.5354330708661418,"duration":"0.01"},{"name":"C6","midi":84,"time":"503.95","velocity":0.2204724409448819,"duration":"0.03"},{"name":"E3","midi":52,"time":"503.97","velocity":0.4881889763779528,"duration":"0.02"},{"name":"B5","midi":83,"time":"503.97","velocity":0.3779527559055118,"duration":"0.03"},{"name":"G4","midi":67,"time":"503.98","velocity":0.2677165354330709,"duration":"0.02"},{"name":"F5","midi":77,"time":"503.98","velocity":0.29133858267716534,"duration":"0.05"},{"name":"A#1","midi":34,"time":"503.99","velocity":0.29133858267716534,"duration":"0.02"},{"name":"D#3","midi":51,"time":"503.99","velocity":0.5196850393700787,"duration":"0.02"},{"name":"B4","midi":71,"time":"503.99","velocity":0.18110236220472442,"duration":"0.03"},{"name":"F#4","midi":66,"time":"504.00","velocity":0.2755905511811024,"duration":"0.02"},{"name":"D#5","midi":75,"time":"504.01","velocity":0.25984251968503935,"duration":"0.03"},{"name":"B5","midi":83,"time":"504.01","velocity":0.31496062992125984,"duration":"0.27"},{"name":"E4","midi":64,"time":"504.02","velocity":0.3228346456692913,"duration":"0.03"},{"name":"A4","midi":69,"time":"504.02","velocity":0.5511811023622047,"duration":"0.51"},{"name":"F6","midi":89,"time":"504.02","velocity":0.2204724409448819,"duration":"0.05"},{"name":"B6","midi":95,"time":"504.02","velocity":0.3700787401574803,"duration":"0.27"},{"name":"G#2","midi":44,"time":"504.03","velocity":0.5196850393700787,"duration":"0.01"},{"name":"E5","midi":76,"time":"504.03","velocity":0.41732283464566927,"duration":"0.17"},{"name":"C6","midi":84,"time":"504.03","velocity":0.25196850393700787,"duration":"0.02"},{"name":"B2","midi":47,"time":"504.05","velocity":0.4881889763779528,"duration":"0.03"},{"name":"C5","midi":72,"time":"504.05","velocity":0.28346456692913385,"duration":"0.07"},{"name":"G5","midi":79,"time":"504.05","velocity":0.2677165354330709,"duration":"0.10"},{"name":"A#5","midi":82,"time":"504.05","velocity":0.3700787401574803,"duration":"0.02"},{"name":"F4","midi":65,"time":"504.06","velocity":0.30708661417322836,"duration":"0.02"},{"name":"D5","midi":74,"time":"504.06","velocity":0.30708661417322836,"duration":"0.06"},{"name":"E4","midi":64,"time":"504.08","velocity":0.3700787401574803,"duration":"0.05"},{"name":"F#5","midi":78,"time":"504.08","velocity":0.25196850393700787,"duration":"0.02"},{"name":"F6","midi":89,"time":"504.08","velocity":0.1968503937007874,"duration":"0.03"},{"name":"F#2","midi":42,"time":"504.09","velocity":0.48031496062992124,"duration":"0.02"},{"name":"E3","midi":52,"time":"504.09","velocity":0.4409448818897638,"duration":"0.02"},{"name":"A3","midi":57,"time":"504.09","velocity":0.36220472440944884,"duration":"0.02"},{"name":"F3","midi":53,"time":"504.12","velocity":0.4645669291338583,"duration":"0.03"},{"name":"C#4","midi":61,"time":"504.12","velocity":0.28346456692913385,"duration":"0.03"},{"name":"C#5","midi":73,"time":"504.12","velocity":0.2992125984251969,"duration":"0.03"},{"name":"C#6","midi":85,"time":"504.13","velocity":0.31496062992125984,"duration":"0.13"},{"name":"D#6","midi":87,"time":"504.13","velocity":0.2047244094488189,"duration":"0.05"},{"name":"F6","midi":89,"time":"504.13","velocity":0.2204724409448819,"duration":"0.09"},{"name":"E4","midi":64,"time":"504.14","velocity":0.25984251968503935,"duration":"0.02"},{"name":"F#5","midi":78,"time":"504.14","velocity":0.2047244094488189,"duration":"0.03"},{"name":"D5","midi":74,"time":"504.15","velocity":0.25984251968503935,"duration":"0.02"},{"name":"B3","midi":59,"time":"504.16","velocity":0.29133858267716534,"duration":"0.02"},{"name":"G5","midi":79,"time":"504.16","velocity":0.3543307086614173,"duration":"0.12"},{"name":"A2","midi":45,"time":"504.17","velocity":0.5748031496062992,"duration":"0.01"},{"name":"C7","midi":96,"time":"504.17","velocity":0.33858267716535434,"duration":"0.36"},{"name":"G#2","midi":44,"time":"504.19","velocity":0.5354330708661418,"duration":"0.01"},{"name":"E4","midi":64,"time":"504.19","velocity":0.3464566929133858,"duration":"0.02"},{"name":"D#5","midi":75,"time":"504.19","velocity":0.30708661417322836,"duration":"0.05"},{"name":"E3","midi":52,"time":"504.20","velocity":0.5590551181102362,"duration":"0.02"},{"name":"G4","midi":67,"time":"504.21","velocity":0.31496062992125984,"duration":"0.02"},{"name":"F3","midi":53,"time":"504.22","velocity":0.5118110236220472,"duration":"0.01"},{"name":"D6","midi":86,"time":"504.22","velocity":0.23622047244094488,"duration":"0.09"},{"name":"A3","midi":57,"time":"504.23","velocity":0.4015748031496063,"duration":"0.03"},{"name":"E4","midi":64,"time":"504.23","velocity":0.2677165354330709,"duration":"0.03"},{"name":"C#5","midi":73,"time":"504.23","velocity":0.3228346456692913,"duration":"0.14"},{"name":"E5","midi":76,"time":"504.23","velocity":0.41732283464566927,"duration":"0.28"},{"name":"F6","midi":89,"time":"504.23","velocity":0.18110236220472442,"duration":"0.06"},{"name":"D#7","midi":99,"time":"504.23","velocity":0.25984251968503935,"duration":"0.10"},{"name":"B2","midi":47,"time":"504.24","velocity":0.4645669291338583,"duration":"0.02"},{"name":"F#5","midi":78,"time":"504.26","velocity":0.23622047244094488,"duration":"0.05"},{"name":"G#5","midi":80,"time":"504.26","velocity":0.3858267716535433,"duration":"0.03"},{"name":"D#4","midi":63,"time":"504.27","velocity":0.2992125984251969,"duration":"0.02"},{"name":"E3","midi":52,"time":"504.28","velocity":0.5196850393700787,"duration":"0.03"},{"name":"B5","midi":83,"time":"504.29","velocity":0.4566929133858268,"duration":"0.09"},{"name":"F#6","midi":90,"time":"504.29","velocity":0.30708661417322836,"duration":"0.73"},{"name":"A#6","midi":94,"time":"504.29","velocity":0.3464566929133858,"duration":"0.13"},{"name":"G5","midi":79,"time":"504.30","velocity":0.29133858267716534,"duration":"0.03"},{"name":"G#2","midi":44,"time":"504.31","velocity":0.5196850393700787,"duration":"0.01"},{"name":"C#4","midi":61,"time":"504.31","velocity":0.25984251968503935,"duration":"0.02"},{"name":"E4","midi":64,"time":"504.31","velocity":0.2204724409448819,"duration":"0.05"},{"name":"C5","midi":72,"time":"504.31","velocity":0.23622047244094488,"duration":"0.02"},{"name":"C#6","midi":85,"time":"504.31","velocity":0.33070866141732286,"duration":"0.26"},{"name":"D6","midi":86,"time":"504.33","velocity":0.2204724409448819,"duration":"0.06"},{"name":"F6","midi":89,"time":"504.33","velocity":0.25984251968503935,"duration":"0.09"},{"name":"B4","midi":71,"time":"504.34","velocity":0.2677165354330709,"duration":"0.05"},{"name":"D#7","midi":99,"time":"504.35","velocity":0.31496062992125984,"duration":"2.28"},{"name":"C3","midi":48,"time":"504.36","velocity":0.5118110236220472,"duration":"0.01"},{"name":"G#5","midi":80,"time":"504.36","velocity":0.4094488188976378,"duration":"0.02"},{"name":"C6","midi":84,"time":"504.37","velocity":0.2755905511811024,"duration":"0.09"},{"name":"E3","midi":52,"time":"504.38","velocity":0.4645669291338583,"duration":"0.06"},{"name":"D4","midi":62,"time":"504.38","velocity":0.2992125984251969,"duration":"0.02"},{"name":"G5","midi":79,"time":"504.38","velocity":0.3228346456692913,"duration":"0.03"},{"name":"B5","midi":83,"time":"504.40","velocity":0.2677165354330709,"duration":"0.03"},{"name":"B1","midi":35,"time":"504.41","velocity":0.33858267716535434,"duration":"0.02"},{"name":"D5","midi":74,"time":"504.41","velocity":0.31496062992125984,"duration":"0.05"},{"name":"G#6","midi":92,"time":"504.41","velocity":0.2755905511811024,"duration":"0.09"},{"name":"A3","midi":57,"time":"504.42","velocity":0.3464566929133858,"duration":"0.02"},{"name":"F#5","midi":78,"time":"504.42","velocity":0.28346456692913385,"duration":"0.08"},{"name":"A5","midi":81,"time":"504.42","velocity":0.5826771653543307,"duration":"0.22"},{"name":"D#6","midi":87,"time":"504.42","velocity":0.1889763779527559,"duration":"0.06"},{"name":"C#5","midi":73,"time":"504.44","velocity":0.33070866141732286,"duration":"0.09"},{"name":"B4","midi":71,"time":"504.45","velocity":0.2440944881889764,"duration":"0.02"},{"name":"A#5","midi":82,"time":"504.45","velocity":0.3543307086614173,"duration":"0.02"},{"name":"G6","midi":91,"time":"504.45","velocity":0.2283464566929134,"duration":"0.13"},{"name":"E4","midi":64,"time":"504.47","velocity":0.4251968503937008,"duration":"0.16"},{"name":"B5","midi":83,"time":"504.47","velocity":0.36220472440944884,"duration":"0.12"},{"name":"C6","midi":84,"time":"504.48","velocity":0.25196850393700787,"duration":"0.06"},{"name":"D#3","midi":51,"time":"504.49","velocity":0.44881889763779526,"duration":"0.02"},{"name":"D#6","midi":87,"time":"504.49","velocity":0.25196850393700787,"duration":"0.12"},{"name":"A#6","midi":94,"time":"504.49","velocity":0.36220472440944884,"duration":"0.19"},{"name":"A#3","midi":58,"time":"504.50","velocity":0.3937007874015748,"duration":"0.02"},{"name":"G5","midi":79,"time":"504.50","velocity":0.33070866141732286,"duration":"0.09"},{"name":"D6","midi":86,"time":"504.51","velocity":0.33070866141732286,"duration":"0.10"},{"name":"G#6","midi":92,"time":"504.51","velocity":0.36220472440944884,"duration":"0.48"},{"name":"F#5","midi":78,"time":"504.52","velocity":0.33858267716535434,"duration":"0.05"},{"name":"F6","midi":89,"time":"504.52","velocity":0.2677165354330709,"duration":"0.08"},{"name":"G#4","midi":68,"time":"504.53","velocity":0.28346456692913385,"duration":"0.02"},{"name":"D#5","midi":75,"time":"504.53","velocity":0.29133858267716534,"duration":"0.03"},{"name":"E3","midi":52,"time":"504.55","velocity":0.5196850393700787,"duration":"0.02"},{"name":"C7","midi":96,"time":"504.55","velocity":0.31496062992125984,"duration":"0.23"},{"name":"A3","midi":57,"time":"504.56","velocity":0.3858267716535433,"duration":"0.02"},{"name":"A4","midi":69,"time":"504.56","velocity":0.4251968503937008,"duration":"0.16"},{"name":"C#5","midi":73,"time":"504.56","velocity":0.29133858267716534,"duration":"0.03"},{"name":"C6","midi":84,"time":"504.56","velocity":0.1968503937007874,"duration":"0.05"},{"name":"E1","midi":28,"time":"504.57","velocity":0.36220472440944884,"duration":"0.02"},{"name":"C#4","midi":61,"time":"504.57","velocity":0.28346456692913385,"duration":"0.02"},{"name":"B4","midi":71,"time":"504.58","velocity":0.2283464566929134,"duration":"0.02"},{"name":"C#6","midi":85,"time":"504.58","velocity":0.30708661417322836,"duration":"0.19"},{"name":"A2","midi":45,"time":"504.59","velocity":0.4881889763779528,"duration":"0.06"},{"name":"F3","midi":53,"time":"504.59","velocity":0.49606299212598426,"duration":"0.03"},{"name":"D5","midi":74,"time":"504.59","velocity":0.28346456692913385,"duration":"0.02"},{"name":"F#5","midi":78,"time":"504.59","velocity":0.25984251968503935,"duration":"0.06"},{"name":"B5","midi":83,"time":"504.59","velocity":0.36220472440944884,"duration":"0.14"},{"name":"G6","midi":91,"time":"504.59","velocity":0.1968503937007874,"duration":"0.08"},{"name":"G1","midi":31,"time":"504.60","velocity":0.33858267716535434,"duration":"0.02"},{"name":"C#5","midi":73,"time":"504.62","velocity":0.31496062992125984,"duration":"0.07"},{"name":"D#3","midi":51,"time":"504.63","velocity":0.5118110236220472,"duration":"0.01"},{"name":"C#4","midi":61,"time":"504.63","velocity":0.29133858267716534,"duration":"0.03"},{"name":"F4","midi":65,"time":"504.63","velocity":0.28346456692913385,"duration":"0.02"},{"name":"F6","midi":89,"time":"504.63","velocity":0.15748031496062992,"duration":"0.07"},{"name":"E3","midi":52,"time":"504.64","velocity":0.4645669291338583,"duration":"0.02"},{"name":"G5","midi":79,"time":"504.65","velocity":0.33858267716535434,"duration":"0.05"},{"name":"A5","midi":81,"time":"504.65","velocity":0.6220472440944882,"duration":"0.09"},{"name":"D#3","midi":51,"time":"504.66","velocity":0.5118110236220472,"duration":"0.01"},{"name":"C4","midi":60,"time":"504.66","velocity":0.33858267716535434,"duration":"0.03"},{"name":"G4","midi":67,"time":"504.66","velocity":0.2755905511811024,"duration":"0.02"},{"name":"D6","midi":86,"time":"504.66","velocity":0.25196850393700787,"duration":"0.03"},{"name":"E3","midi":52,"time":"504.67","velocity":0.4645669291338583,"duration":"0.02"},{"name":"D#4","midi":63,"time":"504.67","velocity":0.4015748031496063,"duration":"0.03"},{"name":"F5","midi":77,"time":"504.67","velocity":0.29133858267716534,"duration":"0.03"},{"name":"G#5","midi":80,"time":"504.70","velocity":0.2440944881889764,"duration":"0.02"},{"name":"A#6","midi":94,"time":"504.70","velocity":0.3937007874015748,"duration":"0.34"},{"name":"D4","midi":62,"time":"504.71","velocity":0.31496062992125984,"duration":"0.02"},{"name":"F4","midi":65,"time":"504.71","velocity":0.30708661417322836,"duration":"0.02"},{"name":"C#5","midi":73,"time":"504.71","velocity":0.3700787401574803,"duration":"0.05"},{"name":"F#5","midi":78,"time":"504.71","velocity":0.25196850393700787,"duration":"0.03"},{"name":"D6","midi":86,"time":"504.71","velocity":0.2992125984251969,"duration":"0.12"},{"name":"F3","midi":53,"time":"504.72","velocity":0.4566929133858268,"duration":"0.05"},{"name":"G#4","midi":68,"time":"504.72","velocity":0.3700787401574803,"duration":"0.02"},{"name":"C6","midi":84,"time":"504.72","velocity":0.2677165354330709,"duration":"0.03"},{"name":"F1","midi":29,"time":"504.73","velocity":0.33858267716535434,"duration":"0.02"},{"name":"G5","midi":79,"time":"504.73","velocity":0.3543307086614173,"duration":"0.03"},{"name":"F2","midi":41,"time":"504.74","velocity":0.3858267716535433,"duration":"0.02"},{"name":"A4","midi":69,"time":"504.74","velocity":0.3858267716535433,"duration":"0.08"},{"name":"A#5","midi":82,"time":"504.74","velocity":0.5748031496062992,"duration":"0.01"},{"name":"F#1","midi":30,"time":"504.76","velocity":0.3937007874015748,"duration":"0.02"},{"name":"A3","midi":57,"time":"504.76","velocity":0.41732283464566927,"duration":"0.02"},{"name":"C#4","midi":61,"time":"504.76","velocity":0.25984251968503935,"duration":"0.02"},{"name":"C5","midi":72,"time":"504.76","velocity":0.1889763779527559,"duration":"0.03"},{"name":"D5","midi":74,"time":"504.76","velocity":0.2440944881889764,"duration":"0.03"},{"name":"F#5","midi":78,"time":"504.76","velocity":0.28346456692913385,"duration":"0.03"},{"name":"A5","midi":81,"time":"504.76","velocity":0.6850393700787402,"duration":"1.95"},{"name":"B5","midi":83,"time":"504.76","velocity":0.33858267716535434,"duration":"0.06"},{"name":"D#6","midi":87,"time":"504.76","velocity":0.29133858267716534,"duration":"0.05"},{"name":"F#4","midi":66,"time":"504.77","velocity":0.29133858267716534,"duration":"0.03"},{"name":"C3","midi":48,"time":"504.78","velocity":0.5354330708661418,"duration":"0.02"},{"name":"C#5","midi":73,"time":"504.79","velocity":0.30708661417322836,"duration":"0.06"},{"name":"G5","midi":79,"time":"504.79","velocity":0.3543307086614173,"duration":"0.12"},{"name":"C7","midi":96,"time":"504.79","velocity":0.28346456692913385,"duration":"0.21"},{"name":"A#2","midi":46,"time":"504.80","velocity":0.44881889763779526,"duration":"0.02"},{"name":"F4","midi":65,"time":"504.80","velocity":0.2992125984251969,"duration":"0.02"},{"name":"C6","midi":84,"time":"504.80","velocity":0.28346456692913385,"duration":"0.14"},{"name":"F6","midi":89,"time":"504.81","velocity":0.15748031496062992,"duration":"0.03"},{"name":"G#2","midi":44,"time":"504.83","velocity":0.5039370078740157,"duration":"0.03"},{"name":"G4","midi":67,"time":"504.83","velocity":0.25984251968503935,"duration":"0.02"},{"name":"A4","midi":69,"time":"504.84","velocity":0.5275590551181102,"duration":"0.28"},{"name":"E1","midi":28,"time":"504.85","velocity":0.3464566929133858,"duration":"0.02"},{"name":"F4","midi":65,"time":"504.85","velocity":0.2440944881889764,"duration":"0.02"},{"name":"A#5","midi":82,"time":"504.85","velocity":0.3543307086614173,"duration":"0.02"},{"name":"D6","midi":86,"time":"504.85","velocity":0.2283464566929134,"duration":"0.21"},{"name":"A2","midi":45,"time":"504.86","velocity":0.5354330708661418,"duration":"0.01"},{"name":"C4","midi":60,"time":"504.86","velocity":0.3700787401574803,"duration":"0.02"},{"name":"D#6","midi":87,"time":"504.86","velocity":0.14960629921259844,"duration":"0.05"},{"name":"A#2","midi":46,"time":"504.87","velocity":0.5196850393700787,"duration":"0.02"},{"name":"E4","midi":64,"time":"504.87","velocity":0.3543307086614173,"duration":"0.07"},{"name":"B5","midi":83,"time":"504.87","velocity":0.3779527559055118,"duration":"0.13"},{"name":"F6","midi":89,"time":"504.87","velocity":0.2283464566929134,"duration":"0.05"},{"name":"A3","midi":57,"time":"504.88","velocity":0.3464566929133858,"duration":"0.05"},{"name":"G#2","midi":44,"time":"504.90","velocity":0.49606299212598426,"duration":"0.02"},{"name":"C#6","midi":85,"time":"504.90","velocity":0.29133858267716534,"duration":"0.10"},{"name":"C#5","midi":73,"time":"504.92","velocity":0.36220472440944884,"duration":"0.10"},{"name":"F5","midi":77,"time":"504.92","velocity":0.30708661417322836,"duration":"0.05"},{"name":"G5","midi":79,"time":"504.92","velocity":0.36220472440944884,"duration":"0.08"},{"name":"B2","midi":47,"time":"504.93","velocity":0.4645669291338583,"duration":"0.02"},{"name":"C#4","midi":61,"time":"504.97","velocity":0.3779527559055118,"duration":"0.03"},{"name":"C2","midi":36,"time":"504.98","velocity":0.30708661417322836,"duration":"0.02"},{"name":"F6","midi":89,"time":"504.98","velocity":0.1968503937007874,"duration":"0.06"},{"name":"G#3","midi":56,"time":"504.99","velocity":0.3228346456692913,"duration":"0.05"},{"name":"E4","midi":64,"time":"504.99","velocity":0.3700787401574803,"duration":"0.09"},{"name":"D#6","midi":87,"time":"504.99","velocity":0.2755905511811024,"duration":"0.10"},{"name":"B4","midi":71,"time":"505.00","velocity":0.2440944881889764,"duration":"0.02"},{"name":"A#5","midi":82,"time":"505.00","velocity":0.3779527559055118,"duration":"0.02"},{"name":"G6","midi":91,"time":"505.00","velocity":0.1889763779527559,"duration":"0.08"},{"name":"G#6","midi":92,"time":"505.00","velocity":0.28346456692913385,"duration":"0.06"},{"name":"G5","midi":79,"time":"505.01","velocity":0.25984251968503935,"duration":"0.02"},{"name":"B5","midi":83,"time":"505.01","velocity":0.33858267716535434,"duration":"0.31"},{"name":"A2","midi":45,"time":"505.02","velocity":0.5275590551181102,"duration":"0.02"},{"name":"B4","midi":71,"time":"505.03","velocity":0.25984251968503935,"duration":"0.02"},{"name":"D#5","midi":75,"time":"505.03","velocity":0.2992125984251969,"duration":"0.07"},{"name":"F#5","midi":78,"time":"505.03","velocity":0.28346456692913385,"duration":"0.03"},{"name":"C7","midi":96,"time":"505.03","velocity":0.2755905511811024,"duration":"0.10"},{"name":"D#3","midi":51,"time":"505.05","velocity":0.5118110236220472,"duration":"0.01"},{"name":"A#6","midi":94,"time":"505.05","velocity":0.4015748031496063,"duration":"0.33"},{"name":"C#5","midi":73,"time":"505.06","velocity":0.28346456692913385,"duration":"0.03"},{"name":"F#6","midi":90,"time":"505.06","velocity":0.28346456692913385,"duration":"0.29"},{"name":"G5","midi":79,"time":"505.07","velocity":0.33858267716535434,"duration":"0.10"},{"name":"G#6","midi":92,"time":"505.07","velocity":0.2992125984251969,"duration":"0.29"},{"name":"D4","midi":62,"time":"505.08","velocity":0.2677165354330709,"duration":"0.03"},{"name":"F4","midi":65,"time":"505.08","velocity":0.2992125984251969,"duration":"0.05"},{"name":"E5","midi":76,"time":"505.09","velocity":0.3858267716535433,"duration":"0.06"},{"name":"D6","midi":86,"time":"505.09","velocity":0.2755905511811024,"duration":"0.08"},{"name":"C#5","midi":73,"time":"505.10","velocity":0.30708661417322836,"duration":"0.05"},{"name":"F6","midi":89,"time":"505.10","velocity":0.2125984251968504,"duration":"0.10"},{"name":"G#2","midi":44,"time":"505.12","velocity":0.5433070866141733,"duration":"0.02"},{"name":"D#6","midi":87,"time":"505.12","velocity":0.2047244094488189,"duration":"0.09"},{"name":"A3","midi":57,"time":"505.13","velocity":0.4015748031496063,"duration":"0.12"},{"name":"E4","midi":64,"time":"505.13","velocity":0.3228346456692913,"duration":"0.02"},{"name":"G4","midi":67,"time":"505.13","velocity":0.2755905511811024,"duration":"0.03"},{"name":"C5","midi":72,"time":"505.13","velocity":0.28346456692913385,"duration":"0.03"},{"name":"C#6","midi":85,"time":"505.13","velocity":0.31496062992125984,"duration":"0.20"},{"name":"C#4","midi":61,"time":"505.14","velocity":0.3543307086614173,"duration":"0.02"},{"name":"D#5","midi":75,"time":"505.15","velocity":0.2440944881889764,"duration":"0.02"},{"name":"C7","midi":96,"time":"505.15","velocity":0.28346456692913385,"duration":"0.16"},{"name":"E3","midi":52,"time":"505.16","velocity":0.4251968503937008,"duration":"0.02"},{"name":"G#4","midi":68,"time":"505.16","velocity":0.33858267716535434,"duration":"0.02"},{"name":"C#5","midi":73,"time":"505.16","velocity":0.2755905511811024,"duration":"0.05"},{"name":"E5","midi":76,"time":"505.17","velocity":0.36220472440944884,"duration":"0.22"},{"name":"G#5","midi":80,"time":"505.17","velocity":0.3464566929133858,"duration":"0.02"},{"name":"D#3","midi":51,"time":"505.19","velocity":0.48031496062992124,"duration":"0.03"},{"name":"A4","midi":69,"time":"505.19","velocity":0.5039370078740157,"duration":"0.36"},{"name":"D6","midi":86,"time":"505.19","velocity":0.2125984251968504,"duration":"0.03"},{"name":"F#2","midi":42,"time":"505.20","velocity":0.4645669291338583,"duration":"0.03"},{"name":"E4","midi":64,"time":"505.20","velocity":0.3543307086614173,"duration":"0.03"},{"name":"F#5","midi":78,"time":"505.20","velocity":0.30708661417322836,"duration":"0.07"},{"name":"C6","midi":84,"time":"505.21","velocity":0.1889763779527559,"duration":"0.03"},{"name":"C#5","midi":73,"time":"505.22","velocity":0.3228346456692913,"duration":"0.15"},{"name":"F6","midi":89,"time":"505.22","velocity":0.2992125984251969,"duration":"0.13"},{"name":"D7","midi":98,"time":"505.22","velocity":0.29133858267716534,"duration":"0.20"},{"name":"A#5","midi":82,"time":"505.23","velocity":0.28346456692913385,"duration":"0.02"},{"name":"F4","midi":65,"time":"505.24","velocity":0.2440944881889764,"duration":"0.02"},{"name":"D6","midi":86,"time":"505.24","velocity":0.2125984251968504,"duration":"0.03"},{"name":"A3","midi":57,"time":"505.26","velocity":0.4645669291338583,"duration":"0.08"},{"name":"C6","midi":84,"time":"505.26","velocity":0.2677165354330709,"duration":"0.03"},{"name":"E4","midi":64,"time":"505.27","velocity":0.36220472440944884,"duration":"0.05"},{"name":"G#2","midi":44,"time":"505.28","velocity":0.5669291338582677,"duration":"0.03"},{"name":"E3","midi":52,"time":"505.28","velocity":0.5039370078740157,"duration":"0.07"},{"name":"B4","midi":71,"time":"505.29","velocity":0.23622047244094488,"duration":"0.02"},{"name":"F#5","midi":78,"time":"505.29","velocity":0.2440944881889764,"duration":"0.02"},{"name":"D6","midi":86,"time":"505.29","velocity":0.2755905511811024,"duration":"0.02"},{"name":"D#6","midi":87,"time":"505.29","velocity":0.1732283464566929,"duration":"0.03"},{"name":"A2","midi":45,"time":"505.31","velocity":0.5275590551181102,"duration":"0.01"},{"name":"G4","midi":67,"time":"505.31","velocity":0.36220472440944884,"duration":"0.02"},{"name":"F#5","midi":78,"time":"505.33","velocity":0.29133858267716534,"duration":"0.05"},{"name":"A#5","midi":82,"time":"505.33","velocity":0.3937007874015748,"duration":"0.02"},{"name":"C6","midi":84,"time":"505.33","velocity":0.2992125984251969,"duration":"0.05"},{"name":"D6","midi":86,"time":"505.33","velocity":0.18110236220472442,"duration":"0.05"},{"name":"C5","midi":72,"time":"505.34","velocity":0.23622047244094488,"duration":"0.02"},{"name":"B5","midi":83,"time":"505.34","velocity":0.3543307086614173,"duration":"0.16"},{"name":"G7","midi":103,"time":"505.34","velocity":0.25984251968503935,"duration":"0.15"},{"name":"D#6","midi":87,"time":"505.35","velocity":0.2047244094488189,"duration":"0.08"},{"name":"G6","midi":91,"time":"505.35","velocity":0.2125984251968504,"duration":"0.06"},{"name":"B2","midi":47,"time":"505.36","velocity":0.49606299212598426,"duration":"0.05"},{"name":"E3","midi":52,"time":"505.36","velocity":0.47244094488188976,"duration":"0.02"},{"name":"G5","midi":79,"time":"505.36","velocity":0.2755905511811024,"duration":"0.13"},{"name":"C#6","midi":85,"time":"505.36","velocity":0.33858267716535434,"duration":"0.14"},{"name":"A#1","midi":34,"time":"505.37","velocity":0.33858267716535434,"duration":"0.02"},{"name":"G#6","midi":92,"time":"505.37","velocity":0.30708661417322836,"duration":"0.33"},{"name":"C#5","midi":73,"time":"505.38","velocity":0.36220472440944884,"duration":"0.15"},{"name":"C6","midi":84,"time":"505.38","velocity":0.2204724409448819,"duration":"0.03"},{"name":"A#6","midi":94,"time":"505.38","velocity":0.36220472440944884,"duration":"0.10"},{"name":"B1","midi":35,"time":"505.40","velocity":0.4251968503937008,"duration":"0.02"},{"name":"E3","midi":52,"time":"505.40","velocity":0.44881889763779526,"duration":"0.02"},{"name":"D4","midi":62,"time":"505.40","velocity":0.3464566929133858,"duration":"0.02"},{"name":"F5","midi":77,"time":"505.40","velocity":0.30708661417322836,"duration":"0.08"},{"name":"C5","midi":72,"time":"505.41","velocity":0.25984251968503935,"duration":"0.02"},{"name":"D6","midi":86,"time":"505.41","velocity":0.2204724409448819,"duration":"0.10"},{"name":"D#4","midi":63,"time":"505.42","velocity":0.2440944881889764,"duration":"0.03"},{"name":"E5","midi":76,"time":"505.42","velocity":0.2992125984251969,"duration":"0.02"},{"name":"G#2","midi":44,"time":"505.43","velocity":0.5590551181102362,"duration":"0.01"},{"name":"D7","midi":98,"time":"505.43","velocity":0.3228346456692913,"duration":"1.15"},{"name":"A2","midi":45,"time":"505.44","velocity":0.5196850393700787,"duration":"0.01"},{"name":"C#4","midi":61,"time":"505.45","velocity":0.29133858267716534,"duration":"0.02"},{"name":"E4","midi":64,"time":"505.45","velocity":0.25196850393700787,"duration":"0.02"},{"name":"C3","midi":48,"time":"505.47","velocity":0.4881889763779528,"duration":"0.02"},{"name":"F#2","midi":42,"time":"505.48","velocity":0.4409448818897638,"duration":"0.02"},{"name":"F4","midi":65,"time":"505.48","velocity":0.33858267716535434,"duration":"0.02"},{"name":"E5","midi":76,"time":"505.48","velocity":0.2992125984251969,"duration":"0.03"},{"name":"F#5","midi":78,"time":"505.48","velocity":0.2283464566929134,"duration":"0.02"},{"name":"F3","midi":53,"time":"505.49","velocity":0.4566929133858268,"duration":"0.02"},{"name":"E4","midi":64,"time":"505.50","velocity":0.4094488188976378,"duration":"0.03"},{"name":"D#5","midi":75,"time":"505.50","velocity":0.23622047244094488,"duration":"0.06"},{"name":"C6","midi":84,"time":"505.50","velocity":0.2047244094488189,"duration":"0.07"},{"name":"F#6","midi":90,"time":"505.50","velocity":0.13385826771653545,"duration":"0.03"},{"name":"G7","midi":103,"time":"505.50","velocity":0.31496062992125984,"duration":"0.43"},{"name":"D#2","midi":39,"time":"505.51","velocity":0.4251968503937008,"duration":"0.02"},{"name":"E3","midi":52,"time":"505.51","velocity":0.4645669291338583,"duration":"0.02"},{"name":"A3","midi":57,"time":"505.51","velocity":0.3464566929133858,"duration":"0.02"},{"name":"G#5","midi":80,"time":"505.51","velocity":0.2755905511811024,"duration":"0.02"},{"name":"B5","midi":83,"time":"505.51","velocity":0.3858267716535433,"duration":"0.12"},{"name":"A#6","midi":94,"time":"505.51","velocity":0.4251968503937008,"duration":"0.23"},{"name":"F2","midi":41,"time":"505.53","velocity":0.47244094488188976,"duration":"0.02"},{"name":"E5","midi":76,"time":"505.53","velocity":0.4015748031496063,"duration":"0.43"},{"name":"G5","midi":79,"time":"505.53","velocity":0.33858267716535434,"duration":"0.05"},{"name":"F6","midi":89,"time":"505.53","velocity":0.2125984251968504,"duration":"0.08"},{"name":"E3","midi":52,"time":"505.55","velocity":0.5118110236220472,"duration":"0.01"},{"name":"A#3","midi":58,"time":"505.55","velocity":0.41732283464566927,"duration":"0.02"},{"name":"G#4","midi":68,"time":"505.55","velocity":0.3700787401574803,"duration":"0.02"},{"name":"C#5","midi":73,"time":"505.55","velocity":0.2283464566929134,"duration":"0.05"},{"name":"F#6","midi":90,"time":"505.55","velocity":0.1732283464566929,"duration":"0.03"},{"name":"E2","midi":40,"time":"505.56","velocity":0.5118110236220472,"duration":"0.02"},{"name":"D#3","midi":51,"time":"505.56","velocity":0.5275590551181102,"duration":"0.01"},{"name":"A3","midi":57,"time":"505.57","velocity":0.3228346456692913,"duration":"0.02"},{"name":"C#4","midi":61,"time":"505.57","velocity":0.33070866141732286,"duration":"0.02"},{"name":"A4","midi":69,"time":"505.57","velocity":0.5118110236220472,"duration":"0.15"},{"name":"F#5","midi":78,"time":"505.57","velocity":0.2283464566929134,"duration":"0.02"},{"name":"D6","midi":86,"time":"505.57","velocity":0.2047244094488189,"duration":"0.08"},{"name":"F2","midi":41,"time":"505.58","velocity":0.5826771653543307,"duration":"0.02"},{"name":"C5","midi":72,"time":"505.59","velocity":0.2677165354330709,"duration":"0.02"},{"name":"C#6","midi":85,"time":"505.59","velocity":0.33070866141732286,"duration":"0.22"},{"name":"D#6","midi":87,"time":"505.59","velocity":0.1732283464566929,"duration":"0.10"},{"name":"F#6","midi":90,"time":"505.59","velocity":0.3700787401574803,"duration":"0.31"},{"name":"B4","midi":71,"time":"505.62","velocity":0.2283464566929134,"duration":"0.07"},{"name":"C#5","midi":73,"time":"505.62","velocity":0.33858267716535434,"duration":"0.06"},{"name":"A#5","midi":82,"time":"505.62","velocity":0.33858267716535434,"duration":"0.02"},{"name":"C7","midi":96,"time":"505.62","velocity":0.28346456692913385,"duration":"0.34"},{"name":"G5","midi":79,"time":"505.63","velocity":0.33858267716535434,"duration":"0.12"},{"name":"E3","midi":52,"time":"505.64","velocity":0.4566929133858268,"duration":"0.03"},{"name":"B5","midi":83,"time":"505.64","velocity":0.29133858267716534,"duration":"0.16"},{"name":"F#5","midi":78,"time":"505.66","velocity":0.25984251968503935,"duration":"0.02"},{"name":"D6","midi":86,"time":"505.66","velocity":0.25984251968503935,"duration":"0.06"},{"name":"C4","midi":60,"time":"505.67","velocity":0.25984251968503935,"duration":"0.02"},{"name":"F6","midi":89,"time":"505.67","velocity":0.1968503937007874,"duration":"0.03"},{"name":"E3","midi":52,"time":"505.69","velocity":0.5354330708661418,"duration":"0.07"},{"name":"B4","midi":71,"time":"505.70","velocity":0.3228346456692913,"duration":"0.03"},{"name":"G#2","midi":44,"time":"505.71","velocity":0.5118110236220472,"duration":"0.01"},{"name":"C4","midi":60,"time":"505.71","velocity":0.2677165354330709,"duration":"0.02"},{"name":"A2","midi":45,"time":"505.72","velocity":0.4645669291338583,"duration":"0.02"},{"name":"G4","midi":67,"time":"505.72","velocity":0.2283464566929134,"duration":"0.06"},{"name":"G#4","midi":68,"time":"505.72","velocity":0.2992125984251969,"duration":"0.02"},{"name":"D#6","midi":87,"time":"505.72","velocity":0.2440944881889764,"duration":"0.02"},{"name":"F6","midi":89,"time":"505.72","velocity":0.2283464566929134,"duration":"0.10"},{"name":"G#6","midi":92,"time":"505.72","velocity":0.28346456692913385,"duration":"0.06"},{"name":"A#3","midi":58,"time":"505.73","velocity":0.36220472440944884,"duration":"0.03"},{"name":"C#5","midi":73,"time":"505.73","velocity":0.31496062992125984,"duration":"0.10"},{"name":"A4","midi":69,"time":"505.74","velocity":0.4881889763779528,"duration":"0.17"},{"name":"F#5","midi":78,"time":"505.74","velocity":0.23622047244094488,"duration":"0.05"},{"name":"A#5","midi":82,"time":"505.74","velocity":0.23622047244094488,"duration":"0.02"},{"name":"D6","midi":86,"time":"505.74","velocity":0.2755905511811024,"duration":"0.02"},{"name":"G5","midi":79,"time":"505.76","velocity":0.25196850393700787,"duration":"0.02"},{"name":"B2","midi":47,"time":"505.77","velocity":0.5354330708661418,"duration":"0.01"},{"name":"D#6","midi":87,"time":"505.77","velocity":0.30708661417322836,"duration":"0.09"},{"name":"C3","midi":48,"time":"505.78","velocity":0.5826771653543307,"duration":"0.01"},{"name":"G#5","midi":80,"time":"505.78","velocity":0.4330708661417323,"duration":"0.02"},{"name":"D6","midi":86,"time":"505.78","velocity":0.2204724409448819,"duration":"0.07"},{"name":"B2","midi":47,"time":"505.79","velocity":0.5511811023622047,"duration":"0.03"},{"name":"C4","midi":60,"time":"505.79","velocity":0.25196850393700787,"duration":"0.02"},{"name":"G5","midi":79,"time":"505.79","velocity":0.2992125984251969,"duration":"0.05"},{"name":"G4","midi":67,"time":"505.80","velocity":0.2677165354330709,"duration":"0.02"},{"name":"A#5","midi":82,"time":"505.80","velocity":0.2283464566929134,"duration":"0.02"},{"name":"C6","midi":84,"time":"505.80","velocity":0.15748031496062992,"duration":"0.03"},{"name":"F5","midi":77,"time":"505.81","velocity":0.2440944881889764,"duration":"0.02"},{"name":"C4","midi":60,"time":"505.83","velocity":0.3464566929133858,"duration":"0.02"},{"name":"B5","midi":83,"time":"505.83","velocity":0.3858267716535433,"duration":"0.06"},{"name":"F4","midi":65,"time":"505.84","velocity":0.33070866141732286,"duration":"0.02"},{"name":"D5","midi":74,"time":"505.84","velocity":0.28346456692913385,"duration":"0.06"},{"name":"F#5","midi":78,"time":"505.84","velocity":0.25984251968503935,"duration":"0.07"},{"name":"C#6","midi":85,"time":"505.84","velocity":0.31496062992125984,"duration":"0.09"},{"name":"A#6","midi":94,"time":"505.84","velocity":0.30708661417322836,"duration":"0.10"},{"name":"C5","midi":72,"time":"505.85","velocity":0.2125984251968504,"duration":"0.03"},{"name":"F#3","midi":54,"time":"505.86","velocity":0.3700787401574803,"duration":"0.02"},{"name":"B3","midi":59,"time":"505.86","velocity":0.3464566929133858,"duration":"0.02"},{"name":"E4","midi":64,"time":"505.86","velocity":0.3464566929133858,"duration":"0.09"},{"name":"F#2","midi":42,"time":"505.87","velocity":0.5354330708661418,"duration":"0.01"},{"name":"A#5","midi":82,"time":"505.87","velocity":0.25984251968503935,"duration":"0.02"},{"name":"G6","midi":91,"time":"505.88","velocity":0.2677165354330709,"duration":"0.07"},{"name":"C3","midi":48,"time":"505.90","velocity":0.5118110236220472,"duration":"0.02"},{"name":"C#5","midi":73,"time":"505.90","velocity":0.33858267716535434,"duration":"0.03"},{"name":"B5","midi":83,"time":"505.90","velocity":0.2440944881889764,"duration":"0.02"},{"name":"G5","midi":79,"time":"505.91","velocity":0.2440944881889764,"duration":"0.02"},{"name":"D3","midi":50,"time":"505.92","velocity":0.5275590551181102,"duration":"0.01"},{"name":"D6","midi":86,"time":"505.92","velocity":0.25984251968503935,"duration":"0.03"},{"name":"F#6","midi":90,"time":"505.92","velocity":0.2047244094488189,"duration":"0.07"},{"name":"B5","midi":83,"time":"505.93","velocity":0.28346456692913385,"duration":"0.10"},{"name":"G#6","midi":92,"time":"505.93","velocity":0.29133858267716534,"duration":"0.10"},{"name":"G#4","midi":68,"time":"505.94","velocity":0.3700787401574803,"duration":"0.05"},{"name":"C#5","midi":73,"time":"505.94","velocity":0.29133858267716534,"duration":"0.03"},{"name":"G5","midi":79,"time":"505.95","velocity":0.2125984251968504,"duration":"0.05"},{"name":"F6","midi":89,"time":"505.95","velocity":0.1968503937007874,"duration":"0.05"},{"name":"A#6","midi":94,"time":"505.95","velocity":0.28346456692913385,"duration":"0.05"},{"name":"G7","midi":103,"time":"505.95","velocity":0.2125984251968504,"duration":"0.13"},{"name":"F1","midi":29,"time":"505.97","velocity":0.41732283464566927,"duration":"0.02"},{"name":"A3","midi":57,"time":"505.97","velocity":0.4330708661417323,"duration":"0.05"},{"name":"B4","midi":71,"time":"505.97","velocity":0.28346456692913385,"duration":"0.03"},{"name":"F5","midi":77,"time":"505.97","velocity":0.28346456692913385,"duration":"0.05"},{"name":"D#6","midi":87,"time":"505.97","velocity":0.28346456692913385,"duration":"0.10"},{"name":"C7","midi":96,"time":"505.97","velocity":0.3464566929133858,"duration":"0.26"},{"name":"A2","midi":45,"time":"505.98","velocity":0.5118110236220472,"duration":"0.01"},{"name":"F4","midi":65,"time":"505.98","velocity":0.3228346456692913,"duration":"0.03"},{"name":"E5","midi":76,"time":"505.98","velocity":0.29133858267716534,"duration":"0.06"},{"name":"G6","midi":91,"time":"505.98","velocity":0.2283464566929134,"duration":"0.22"},{"name":"D4","midi":62,"time":"505.99","velocity":0.28346456692913385,"duration":"0.02"},{"name":"C#5","midi":73,"time":"505.99","velocity":0.23622047244094488,"duration":"0.02"},{"name":"A#2","midi":46,"time":"506.00","velocity":0.5511811023622047,"duration":"0.02"},{"name":"D6","midi":86,"time":"506.00","velocity":0.2204724409448819,"duration":"0.08"},{"name":"E4","midi":64,"time":"506.01","velocity":0.25984251968503935,"duration":"0.02"},{"name":"A4","midi":69,"time":"506.01","velocity":0.5118110236220472,"duration":"0.17"},{"name":"A#5","midi":82,"time":"506.01","velocity":0.33070866141732286,"duration":"0.02"},{"name":"F#6","midi":90,"time":"506.01","velocity":0.31496062992125984,"duration":"0.43"},{"name":"A#6","midi":94,"time":"506.01","velocity":0.4251968503937008,"duration":"0.10"},{"name":"D#5","midi":75,"time":"506.02","velocity":0.25196850393700787,"duration":"0.07"},{"name":"G5","midi":79,"time":"506.02","velocity":0.33070866141732286,"duration":"0.06"},{"name":"A#2","midi":46,"time":"506.03","velocity":0.49606299212598426,"duration":"0.02"},{"name":"C6","midi":84,"time":"506.03","velocity":0.14960629921259844,"duration":"0.03"},{"name":"B3","midi":59,"time":"506.05","velocity":0.30708661417322836,"duration":"0.02"},{"name":"E4","midi":64,"time":"506.05","velocity":0.30708661417322836,"duration":"0.05"},{"name":"F#5","midi":78,"time":"506.05","velocity":0.30708661417322836,"duration":"0.07"},{"name":"B2","midi":47,"time":"506.06","velocity":0.5275590551181102,"duration":"0.01"},{"name":"B5","midi":83,"time":"506.06","velocity":0.28346456692913385,"duration":"0.02"},{"name":"B4","midi":71,"time":"506.07","velocity":0.23622047244094488,"duration":"0.03"},{"name":"E3","midi":52,"time":"506.08","velocity":0.4645669291338583,"duration":"0.03"},{"name":"C6","midi":84,"time":"506.08","velocity":0.23622047244094488,"duration":"0.06"},{"name":"C#6","midi":85,"time":"506.08","velocity":0.3464566929133858,"duration":"0.22"},{"name":"G#6","midi":92,"time":"506.08","velocity":0.31496062992125984,"duration":"0.17"},{"name":"A3","midi":57,"time":"506.09","velocity":0.4251968503937008,"duration":"0.03"},{"name":"G7","midi":103,"time":"506.09","velocity":0.25984251968503935,"duration":"0.17"},{"name":"F5","midi":77,"time":"506.10","velocity":0.18110236220472442,"duration":"0.03"},{"name":"D6","midi":86,"time":"506.10","velocity":0.10236220472440945,"duration":"0.06"},{"name":"A2","midi":45,"time":"506.12","velocity":0.5354330708661418,"duration":"0.01"},{"name":"B2","midi":47,"time":"506.13","velocity":0.5275590551181102,"duration":"0.02"},{"name":"C5","midi":72,"time":"506.13","velocity":0.25196850393700787,"duration":"0.03"},{"name":"F#5","midi":78,"time":"506.13","velocity":0.30708661417322836,"duration":"0.05"},{"name":"G5","midi":79,"time":"506.13","velocity":0.29133858267716534,"duration":"0.02"},{"name":"B5","midi":83,"time":"506.13","velocity":0.28346456692913385,"duration":"0.03"},{"name":"A#6","midi":94,"time":"506.13","velocity":0.3228346456692913,"duration":"0.06"},{"name":"F3","midi":53,"time":"506.14","velocity":0.5196850393700787,"duration":"0.05"},{"name":"F#4","midi":66,"time":"506.14","velocity":0.33858267716535434,"duration":"0.02"},{"name":"D5","midi":74,"time":"506.14","velocity":0.25984251968503935,"duration":"0.02"},{"name":"E5","midi":76,"time":"506.14","velocity":0.36220472440944884,"duration":"0.19"},{"name":"D#6","midi":87,"time":"506.14","velocity":0.2204724409448819,"duration":"0.06"},{"name":"F2","midi":41,"time":"506.15","velocity":0.49606299212598426,"duration":"0.02"},{"name":"C#5","midi":73,"time":"506.16","velocity":0.3700787401574803,"duration":"0.13"},{"name":"C6","midi":84,"time":"506.16","velocity":0.33070866141732286,"duration":"0.05"},{"name":"E2","midi":40,"time":"506.17","velocity":0.5275590551181102,"duration":"0.01"},{"name":"A3","midi":57,"time":"506.17","velocity":0.31496062992125984,"duration":"0.03"},{"name":"G5","midi":79,"time":"506.17","velocity":0.31496062992125984,"duration":"0.05"},{"name":"G#2","midi":44,"time":"506.19","velocity":0.5748031496062992,"duration":"0.01"},{"name":"F#4","midi":66,"time":"506.19","velocity":0.28346456692913385,"duration":"0.02"},{"name":"D6","midi":86,"time":"506.19","velocity":0.11023622047244094,"duration":"0.06"},{"name":"A2","midi":45,"time":"506.20","velocity":0.5669291338582677,"duration":"0.01"},{"name":"B5","midi":83,"time":"506.20","velocity":0.3937007874015748,"duration":"0.29"},{"name":"F6","midi":89,"time":"506.20","velocity":0.14960629921259844,"duration":"0.06"},{"name":"A#6","midi":94,"time":"506.20","velocity":0.2440944881889764,"duration":"0.08"},{"name":"B2","midi":47,"time":"506.21","velocity":0.5354330708661418,"duration":"0.01"},{"name":"D3","midi":50,"time":"506.22","velocity":0.5511811023622047,"duration":"0.01"},{"name":"E4","midi":64,"time":"506.22","velocity":0.4015748031496063,"duration":"0.08"},{"name":"A#4","midi":70,"time":"506.22","velocity":0.2283464566929134,"duration":"0.02"},{"name":"E3","midi":52,"time":"506.23","velocity":0.5433070866141733,"duration":"0.03"},{"name":"C4","midi":60,"time":"506.23","velocity":0.2204724409448819,"duration":"0.03"},{"name":"C7","midi":96,"time":"506.23","velocity":0.2755905511811024,"duration":"0.42"},{"name":"A4","midi":69,"time":"506.24","velocity":0.5196850393700787,"duration":"0.40"},{"name":"F#5","midi":78,"time":"506.24","velocity":0.2283464566929134,"duration":"0.05"},{"name":"G5","midi":79,"time":"506.24","velocity":0.2283464566929134,"duration":"0.02"},{"name":"G#6","midi":92,"time":"506.27","velocity":0.1968503937007874,"duration":"0.09"},{"name":"A#2","midi":46,"time":"506.28","velocity":0.4094488188976378,"duration":"0.02"},{"name":"F3","midi":53,"time":"506.28","velocity":0.4330708661417323,"duration":"0.02"},{"name":"C6","midi":84,"time":"506.28","velocity":0.23622047244094488,"duration":"0.05"},{"name":"D#6","midi":87,"time":"506.28","velocity":0.1889763779527559,"duration":"0.10"},{"name":"F6","midi":89,"time":"506.28","velocity":0.2047244094488189,"duration":"0.07"},{"name":"F#4","midi":66,"time":"506.29","velocity":0.33070866141732286,"duration":"0.02"},{"name":"G5","midi":79,"time":"506.29","velocity":0.29133858267716534,"duration":"0.08"},{"name":"A#6","midi":94,"time":"506.29","velocity":0.25196850393700787,"duration":"0.05"},{"name":"C#5","midi":73,"time":"506.30","velocity":0.29133858267716534,"duration":"0.02"},{"name":"D6","midi":86,"time":"506.30","velocity":0.30708661417322836,"duration":"0.09"},{"name":"C3","midi":48,"time":"506.31","velocity":0.5196850393700787,"duration":"0.01"},{"name":"F4","midi":65,"time":"506.31","velocity":0.3228346456692913,"duration":"0.02"},{"name":"D#5","midi":75,"time":"506.31","velocity":0.3228346456692913,"duration":"0.12"},{"name":"A#2","midi":46,"time":"506.33","velocity":0.5590551181102362,"duration":"0.01"},{"name":"A3","midi":57,"time":"506.33","velocity":0.33858267716535434,"duration":"0.05"},{"name":"C4","midi":60,"time":"506.33","velocity":0.30708661417322836,"duration":"0.02"},{"name":"B2","midi":47,"time":"506.34","velocity":0.5433070866141733,"duration":"0.01"},{"name":"C#5","midi":73,"time":"506.34","velocity":0.33858267716535434,"duration":"0.12"},{"name":"C3","midi":48,"time":"506.35","velocity":0.5433070866141733,"duration":"0.03"},{"name":"C5","midi":72,"time":"506.35","velocity":0.2440944881889764,"duration":"0.02"},{"name":"E4","midi":64,"time":"506.36","velocity":0.30708661417322836,"duration":"0.07"},{"name":"A#6","midi":94,"time":"506.36","velocity":0.29133858267716534,"duration":"0.10"},{"name":"A#3","midi":58,"time":"506.37","velocity":0.33070866141732286,"duration":"0.02"},{"name":"B3","midi":59,"time":"506.40","velocity":0.33858267716535434,"duration":"0.02"},{"name":"G#6","midi":92,"time":"506.40","velocity":0.2677165354330709,"duration":"0.02"},{"name":"G7","midi":103,"time":"506.40","velocity":0.2755905511811024,"duration":"0.56"},{"name":"D6","midi":86,"time":"506.41","velocity":0.25984251968503935,"duration":"0.12"},{"name":"A2","midi":45,"time":"506.42","velocity":0.5196850393700787,"duration":"0.01"},{"name":"C6","midi":84,"time":"506.42","velocity":0.2204724409448819,"duration":"0.03"},{"name":"F6","midi":89,"time":"506.42","velocity":0.1889763779527559,"duration":"0.06"},{"name":"A#2","midi":46,"time":"506.43","velocity":0.4251968503937008,"duration":"0.02"},{"name":"E3","midi":52,"time":"506.43","velocity":0.4015748031496063,"duration":"0.05"},{"name":"C#4","midi":61,"time":"506.43","velocity":0.33858267716535434,"duration":"0.05"},{"name":"E5","midi":76,"time":"506.43","velocity":0.4409448818897638,"duration":"0.12"},{"name":"G5","midi":79,"time":"506.44","velocity":0.28346456692913385,"duration":"0.08"},{"name":"C5","midi":72,"time":"506.45","velocity":0.1968503937007874,"duration":"0.03"},{"name":"D#6","midi":87,"time":"506.45","velocity":0.1732283464566929,"duration":"0.06"},{"name":"G#6","midi":92,"time":"506.45","velocity":0.33858267716535434,"duration":"0.08"},{"name":"C#6","midi":85,"time":"506.47","velocity":0.2283464566929134,"duration":"0.02"},{"name":"F#6","midi":90,"time":"506.47","velocity":0.15748031496062992,"duration":"0.08"},{"name":"A#2","midi":46,"time":"506.48","velocity":0.4566929133858268,"duration":"0.02"},{"name":"C6","midi":84,"time":"506.49","velocity":0.2755905511811024,"duration":"0.03"},{"name":"A#6","midi":94,"time":"506.49","velocity":0.29133858267716534,"duration":"0.02"},{"name":"A3","midi":57,"time":"506.50","velocity":0.4015748031496063,"duration":"0.03"},{"name":"C#5","midi":73,"time":"506.50","velocity":0.2992125984251969,"duration":"0.02"},{"name":"G#5","midi":80,"time":"506.50","velocity":0.2677165354330709,"duration":"0.02"},{"name":"F4","midi":65,"time":"506.51","velocity":0.36220472440944884,"duration":"0.05"},{"name":"D#5","midi":75,"time":"506.51","velocity":0.31496062992125984,"duration":"0.06"},{"name":"F#5","midi":78,"time":"506.51","velocity":0.25984251968503935,"duration":"0.02"},{"name":"B5","midi":83,"time":"506.51","velocity":0.33858267716535434,"duration":"0.16"},{"name":"B4","midi":71,"time":"506.52","velocity":0.29133858267716534,"duration":"0.02"},{"name":"C#6","midi":85,"time":"506.52","velocity":0.2283464566929134,"duration":"0.03"},{"name":"F6","midi":89,"time":"506.52","velocity":0.2125984251968504,"duration":"0.08"},{"name":"B2","midi":47,"time":"506.53","velocity":0.5118110236220472,"duration":"0.01"},{"name":"D6","midi":86,"time":"506.53","velocity":0.2755905511811024,"duration":"0.09"},{"name":"G6","midi":91,"time":"506.53","velocity":0.2125984251968504,"duration":"0.05"},{"name":"A2","midi":45,"time":"506.55","velocity":0.5196850393700787,"duration":"0.01"},{"name":"C6","midi":84,"time":"506.55","velocity":0.2440944881889764,"duration":"0.03"},{"name":"G#6","midi":92,"time":"506.55","velocity":0.33858267716535434,"duration":"0.08"},{"name":"D4","midi":62,"time":"506.56","velocity":0.25984251968503935,"duration":"0.02"},{"name":"B4","midi":71,"time":"506.56","velocity":0.23622047244094488,"duration":"0.02"},{"name":"E4","midi":64,"time":"506.57","velocity":0.28346456692913385,"duration":"0.03"},{"name":"F5","midi":77,"time":"506.57","velocity":0.25984251968503935,"duration":"0.02"},{"name":"G5","midi":79,"time":"506.57","velocity":0.3543307086614173,"duration":"0.08"},{"name":"C#6","midi":85,"time":"506.57","velocity":0.2204724409448819,"duration":"0.03"},{"name":"A#6","midi":94,"time":"506.57","velocity":0.2125984251968504,"duration":"0.07"},{"name":"G#2","midi":44,"time":"506.58","velocity":0.5511811023622047,"duration":"0.01"},{"name":"A#3","midi":58,"time":"506.58","velocity":0.2440944881889764,"duration":"0.02"},{"name":"C5","midi":72,"time":"506.58","velocity":0.29133858267716534,"duration":"0.02"},{"name":"F#6","midi":90,"time":"506.58","velocity":0.23622047244094488,"duration":"0.20"},{"name":"A2","midi":45,"time":"506.59","velocity":0.5433070866141733,"duration":"0.01"},{"name":"D7","midi":98,"time":"506.59","velocity":0.3228346456692913,"duration":"1.77"},{"name":"A#2","midi":46,"time":"506.60","velocity":0.5354330708661418,"duration":"0.01"},{"name":"D#5","midi":75,"time":"506.60","velocity":0.3700787401574803,"duration":"0.03"},{"name":"A2","midi":45,"time":"506.62","velocity":0.5748031496062992,"duration":"0.02"},{"name":"E4","midi":64,"time":"506.62","velocity":0.31496062992125984,"duration":"0.03"},{"name":"B4","midi":71,"time":"506.62","velocity":0.23622047244094488,"duration":"0.03"},{"name":"E5","midi":76,"time":"506.62","velocity":0.41732283464566927,"duration":"0.22"},{"name":"C#6","midi":85,"time":"506.63","velocity":0.33070866141732286,"duration":"0.05"},{"name":"A#2","midi":46,"time":"506.64","velocity":0.5039370078740157,"duration":"0.02"},{"name":"G#3","midi":56,"time":"506.64","velocity":0.33070866141732286,"duration":"0.02"},{"name":"C#5","midi":73,"time":"506.64","velocity":0.33070866141732286,"duration":"0.05"},{"name":"A#5","midi":82,"time":"506.64","velocity":0.3700787401574803,"duration":"0.03"},{"name":"D#7","midi":99,"time":"506.64","velocity":0.30708661417322836,"duration":"0.97"},{"name":"G#6","midi":92,"time":"506.65","velocity":0.3543307086614173,"duration":"0.36"},{"name":"E4","midi":64,"time":"506.66","velocity":0.41732283464566927,"duration":"0.03"},{"name":"A#4","midi":70,"time":"506.66","velocity":0.3464566929133858,"duration":"0.02"},{"name":"F#5","midi":78,"time":"506.66","velocity":0.3228346456692913,"duration":"0.07"},{"name":"F6","midi":89,"time":"506.66","velocity":0.07874015748031496,"duration":"0.05"},{"name":"C7","midi":96,"time":"506.66","velocity":0.25984251968503935,"duration":"0.19"},{"name":"B2","midi":47,"time":"506.67","velocity":0.44881889763779526,"duration":"0.02"},{"name":"E3","midi":52,"time":"506.69","velocity":0.4409448818897638,"duration":"0.05"},{"name":"A3","midi":57,"time":"506.69","velocity":0.4330708661417323,"duration":"0.03"},{"name":"C#4","midi":61,"time":"506.69","velocity":0.3543307086614173,"duration":"0.05"},{"name":"A4","midi":69,"time":"506.69","velocity":0.5196850393700787,"duration":"0.33"},{"name":"B5","midi":83,"time":"506.69","velocity":0.3464566929133858,"duration":"0.06"},{"name":"D6","midi":86,"time":"506.70","velocity":0.31496062992125984,"duration":"0.05"},{"name":"G#5","midi":80,"time":"506.71","velocity":0.5039370078740157,"duration":"0.02"},{"name":"G#2","midi":44,"time":"506.72","velocity":0.5511811023622047,"duration":"0.01"},{"name":"C6","midi":84,"time":"506.72","velocity":0.30708661417322836,"duration":"0.06"},{"name":"A#6","midi":94,"time":"506.72","velocity":0.28346456692913385,"duration":"0.02"},{"name":"A2","midi":45,"time":"506.73","velocity":0.5196850393700787,"duration":"0.01"},{"name":"D5","midi":74,"time":"506.73","velocity":0.31496062992125984,"duration":"0.06"},{"name":"A5","midi":81,"time":"506.73","velocity":0.6141732283464567,"duration":"0.34"},{"name":"F6","midi":89,"time":"506.73","velocity":0.1732283464566929,"duration":"0.06"},{"name":"E3","midi":52,"time":"506.74","velocity":0.4409448818897638,"duration":"0.02"},{"name":"F#5","midi":78,"time":"506.74","velocity":0.33858267716535434,"duration":"0.08"},{"name":"G5","midi":79,"time":"506.74","velocity":0.30708661417322836,"duration":"0.03"},{"name":"A2","midi":45,"time":"506.76","velocity":0.5196850393700787,"duration":"0.01"},{"name":"C#6","midi":85,"time":"506.76","velocity":0.29133858267716534,"duration":"0.14"},{"name":"D#3","midi":51,"time":"506.77","velocity":0.5118110236220472,"duration":"0.01"},{"name":"C#5","midi":73,"time":"506.77","velocity":0.3700787401574803,"duration":"0.07"},{"name":"B5","midi":83,"time":"506.77","velocity":0.2755905511811024,"duration":"0.05"},{"name":"D#6","midi":87,"time":"506.77","velocity":0.1732283464566929,"duration":"0.07"},{"name":"E3","midi":52,"time":"506.78","velocity":0.5433070866141733,"duration":"0.06"},{"name":"G#5","midi":80,"time":"506.79","velocity":0.2125984251968504,"duration":"0.03"},{"name":"A3","midi":57,"time":"506.80","velocity":0.4645669291338583,"duration":"0.05"},{"name":"F6","midi":89,"time":"506.81","velocity":0.1968503937007874,"duration":"0.03"},{"name":"A#6","midi":94,"time":"506.81","velocity":0.25196850393700787,"duration":"0.03"},{"name":"G5","midi":79,"time":"506.83","velocity":0.2440944881889764,"duration":"0.03"},{"name":"B5","midi":83,"time":"506.83","velocity":0.28346456692913385,"duration":"0.15"},{"name":"B6","midi":95,"time":"506.83","velocity":0.3228346456692913,"duration":"0.14"},{"name":"F3","midi":53,"time":"506.84","velocity":0.5039370078740157,"duration":"0.03"},{"name":"C#4","midi":61,"time":"506.85","velocity":0.30708661417322836,"duration":"0.02"},{"name":"B4","midi":71,"time":"506.85","velocity":0.25984251968503935,"duration":"0.02"},{"name":"C#5","midi":73,"time":"506.85","velocity":0.3858267716535433,"duration":"0.12"},{"name":"D#5","midi":75,"time":"506.86","velocity":0.2992125984251969,"duration":"0.02"},{"name":"F#5","midi":78,"time":"506.86","velocity":0.2677165354330709,"duration":"0.03"},{"name":"G6","midi":91,"time":"506.86","velocity":0.2992125984251969,"duration":"0.12"},{"name":"C7","midi":96,"time":"506.86","velocity":0.29133858267716534,"duration":"0.36"},{"name":"F#4","midi":66,"time":"506.87","velocity":0.23622047244094488,"duration":"0.02"},{"name":"E5","midi":76,"time":"506.87","velocity":0.25984251968503935,"duration":"0.07"},{"name":"D#6","midi":87,"time":"506.87","velocity":0.2992125984251969,"duration":"0.08"},{"name":"C#4","midi":61,"time":"506.88","velocity":0.33858267716535434,"duration":"0.02"},{"name":"G5","midi":79,"time":"506.88","velocity":0.3543307086614173,"duration":"0.09"},{"name":"A#5","midi":82,"time":"506.88","velocity":0.29133858267716534,"duration":"0.03"},{"name":"A2","midi":45,"time":"506.90","velocity":0.5354330708661418,"duration":"0.01"},{"name":"C6","midi":84,"time":"506.90","velocity":0.29133858267716534,"duration":"0.05"},{"name":"A#3","midi":58,"time":"506.91","velocity":0.3858267716535433,"duration":"0.02"},{"name":"A#6","midi":94,"time":"506.91","velocity":0.48031496062992124,"duration":"0.20"},{"name":"C#3","midi":49,"time":"506.92","velocity":0.47244094488188976,"duration":"0.02"},{"name":"E4","midi":64,"time":"506.92","velocity":0.4015748031496063,"duration":"0.06"},{"name":"F6","midi":89,"time":"506.92","velocity":0.1732283464566929,"duration":"0.03"},{"name":"C4","midi":60,"time":"506.93","velocity":0.41732283464566927,"duration":"0.02"},{"name":"E3","midi":52,"time":"506.94","velocity":0.4251968503937008,"duration":"0.02"},{"name":"A3","midi":57,"time":"506.94","velocity":0.4409448818897638,"duration":"0.02"},{"name":"D#5","midi":75,"time":"506.94","velocity":0.3858267716535433,"duration":"0.05"},{"name":"D6","midi":86,"time":"506.94","velocity":0.28346456692913385,"duration":"0.14"},{"name":"A#2","midi":46,"time":"506.95","velocity":0.49606299212598426,"duration":"0.02"},{"name":"E6","midi":88,"time":"506.95","velocity":0.5511811023622047,"duration":"4.87"},{"name":"C#4","midi":61,"time":"506.98","velocity":0.29133858267716534,"duration":"0.02"},{"name":"C#5","midi":73,"time":"506.98","velocity":0.33858267716535434,"duration":"0.05"},{"name":"E5","midi":76,"time":"506.98","velocity":0.41732283464566927,"duration":"0.05"},{"name":"F#5","midi":78,"time":"506.98","velocity":0.23622047244094488,"duration":"0.03"},{"name":"F6","midi":89,"time":"506.98","velocity":0.2047244094488189,"duration":"0.03"},{"name":"B6","midi":95,"time":"506.98","velocity":0.2677165354330709,"duration":"0.34"},{"name":"D3","midi":50,"time":"506.99","velocity":0.5275590551181102,"duration":"0.01"},{"name":"E4","midi":64,"time":"506.99","velocity":0.31496062992125984,"duration":"0.05"},{"name":"B5","midi":83,"time":"506.99","velocity":0.2677165354330709,"duration":"0.03"},{"name":"C5","midi":72,"time":"507.00","velocity":0.2755905511811024,"duration":"0.02"},{"name":"G#2","midi":44,"time":"507.01","velocity":0.49606299212598426,"duration":"0.02"},{"name":"B3","midi":59,"time":"507.01","velocity":0.33858267716535434,"duration":"0.02"},{"name":"G#4","midi":68,"time":"507.01","velocity":0.36220472440944884,"duration":"0.02"},{"name":"G6","midi":91,"time":"507.01","velocity":0.25984251968503935,"duration":"0.16"},{"name":"D#5","midi":75,"time":"507.02","velocity":0.3779527559055118,"duration":"0.06"},{"name":"F#5","midi":78,"time":"507.02","velocity":0.31496062992125984,"duration":"0.03"},{"name":"F6","midi":89,"time":"507.02","velocity":0.23622047244094488,"duration":"0.05"},{"name":"G#6","midi":92,"time":"507.02","velocity":0.33070866141732286,"duration":"0.48"},{"name":"C4","midi":60,"time":"507.03","velocity":0.3937007874015748,"duration":"0.02"},{"name":"A4","midi":69,"time":"507.03","velocity":0.33070866141732286,"duration":"0.02"},{"name":"C#5","midi":73,"time":"507.03","velocity":0.25196850393700787,"duration":"0.06"},{"name":"B5","midi":83,"time":"507.03","velocity":0.28346456692913385,"duration":"0.14"},{"name":"E3","midi":52,"time":"507.05","velocity":0.4566929133858268,"duration":"0.02"},{"name":"G4","midi":67,"time":"507.05","velocity":0.3937007874015748,"duration":"0.02"},{"name":"B4","midi":71,"time":"507.05","velocity":0.23622047244094488,"duration":"0.02"},{"name":"A2","midi":45,"time":"507.06","velocity":0.5118110236220472,"duration":"0.02"},{"name":"G#3","midi":56,"time":"507.06","velocity":0.44881889763779526,"duration":"0.02"},{"name":"A4","midi":69,"time":"507.07","velocity":0.48031496062992124,"duration":"0.14"},{"name":"E5","midi":76,"time":"507.07","velocity":0.3858267716535433,"duration":"0.07"},{"name":"F4","midi":65,"time":"507.08","velocity":0.30708661417322836,"duration":"0.02"},{"name":"A5","midi":81,"time":"507.08","velocity":0.5354330708661418,"duration":"0.02"},{"name":"D5","midi":74,"time":"507.09","velocity":0.2755905511811024,"duration":"0.02"},{"name":"F#5","midi":78,"time":"507.09","velocity":0.30708661417322836,"duration":"0.02"},{"name":"G#5","midi":80,"time":"507.09","velocity":0.29133858267716534,"duration":"0.02"},{"name":"F6","midi":89,"time":"507.09","velocity":0.1968503937007874,"duration":"0.05"},{"name":"E3","midi":52,"time":"507.10","velocity":0.3858267716535433,"duration":"0.02"},{"name":"C#4","midi":61,"time":"507.10","velocity":0.25196850393700787,"duration":"0.02"},{"name":"C#6","midi":85,"time":"507.10","velocity":0.28346456692913385,"duration":"0.15"},{"name":"C#5","midi":73,"time":"507.12","velocity":0.3228346456692913,"duration":"0.03"},{"name":"F5","midi":77,"time":"507.12","velocity":0.25984251968503935,"duration":"0.02"},{"name":"G5","midi":79,"time":"507.12","velocity":0.33858267716535434,"duration":"0.08"},{"name":"A5","midi":81,"time":"507.12","velocity":0.6850393700787402,"duration":"0.93"},{"name":"A#6","midi":94,"time":"507.12","velocity":0.28346456692913385,"duration":"0.13"},{"name":"F3","midi":53,"time":"507.14","velocity":0.33858267716535434,"duration":"0.02"},{"name":"G#2","midi":44,"time":"507.15","velocity":0.4881889763779528,"duration":"0.02"},{"name":"C5","midi":72,"time":"507.15","velocity":0.2992125984251969,"duration":"0.03"},{"name":"E5","midi":76,"time":"507.15","velocity":0.36220472440944884,"duration":"0.08"},{"name":"D#6","midi":87,"time":"507.15","velocity":0.2204724409448819,"duration":"0.06"},{"name":"F#6","midi":90,"time":"507.15","velocity":0.2283464566929134,"duration":"0.27"},{"name":"F6","midi":89,"time":"507.16","velocity":0.1889763779527559,"duration":"0.03"},{"name":"B2","midi":47,"time":"507.17","velocity":0.5511811023622047,"duration":"0.03"},{"name":"C#4","midi":61,"time":"507.19","velocity":0.33858267716535434,"duration":"0.02"},{"name":"B4","midi":71,"time":"507.19","velocity":0.2047244094488189,"duration":"0.03"},{"name":"B5","midi":83,"time":"507.19","velocity":0.28346456692913385,"duration":"0.06"},{"name":"D6","midi":86,"time":"507.19","velocity":0.33858267716535434,"duration":"0.10"},{"name":"G#4","midi":68,"time":"507.20","velocity":0.28346456692913385,"duration":"0.02"},{"name":"E4","midi":64,"time":"507.21","velocity":0.31496062992125984,"duration":"0.02"},{"name":"C3","midi":48,"time":"507.22","velocity":0.5275590551181102,"duration":"0.01"},{"name":"A4","midi":69,"time":"507.22","velocity":0.4881889763779528,"duration":"0.43"},{"name":"F#5","midi":78,"time":"507.22","velocity":0.33858267716535434,"duration":"0.08"},{"name":"G#5","midi":80,"time":"507.22","velocity":0.29133858267716534,"duration":"0.02"},{"name":"D#6","midi":87,"time":"507.22","velocity":0.11811023622047244,"duration":"0.03"},{"name":"A#2","midi":46,"time":"507.23","velocity":0.4881889763779528,"duration":"0.02"},{"name":"B4","midi":71,"time":"507.23","velocity":0.25196850393700787,"duration":"0.02"},{"name":"D#5","midi":75,"time":"507.23","velocity":0.3700787401574803,"duration":"0.09"},{"name":"C6","midi":84,"time":"507.23","velocity":0.33070866141732286,"duration":"0.07"},{"name":"F6","midi":89,"time":"507.23","velocity":0.2283464566929134,"duration":"0.08"},{"name":"F3","midi":53,"time":"507.24","velocity":0.3700787401574803,"duration":"0.02"},{"name":"F4","midi":65,"time":"507.26","velocity":0.3700787401574803,"duration":"0.05"},{"name":"G6","midi":91,"time":"507.26","velocity":0.25196850393700787,"duration":"0.20"},{"name":"A#6","midi":94,"time":"507.26","velocity":0.2992125984251969,"duration":"0.20"},{"name":"A2","midi":45,"time":"507.27","velocity":0.5433070866141733,"duration":"0.01"},{"name":"B4","midi":71,"time":"507.27","velocity":0.28346456692913385,"duration":"0.02"},{"name":"C#5","midi":73,"time":"507.27","velocity":0.2677165354330709,"duration":"0.02"},{"name":"B2","midi":47,"time":"507.28","velocity":0.4409448818897638,"duration":"0.02"},{"name":"E5","midi":76,"time":"507.28","velocity":0.30708661417322836,"duration":"0.02"},{"name":"G5","midi":79,"time":"507.28","velocity":0.31496062992125984,"duration":"0.06"},{"name":"A#5","midi":82,"time":"507.28","velocity":0.29133858267716534,"duration":"0.03"},{"name":"C#6","midi":85,"time":"507.29","velocity":0.28346456692913385,"duration":"0.03"},{"name":"C4","midi":60,"time":"507.30","velocity":0.2677165354330709,"duration":"0.02"},{"name":"C#5","midi":73,"time":"507.30","velocity":0.29133858267716534,"duration":"0.06"},{"name":"F5","midi":77,"time":"507.30","velocity":0.3228346456692913,"duration":"0.02"},{"name":"C7","midi":96,"time":"507.30","velocity":0.2677165354330709,"duration":"0.62"},{"name":"D3","midi":50,"time":"507.31","velocity":0.5196850393700787,"duration":"0.02"},{"name":"F4","midi":65,"time":"507.31","velocity":0.3700787401574803,"duration":"0.02"},{"name":"B5","midi":83,"time":"507.31","velocity":0.2125984251968504,"duration":"0.03"},{"name":"D6","midi":86,"time":"507.31","velocity":0.23622047244094488,"duration":"0.03"},{"name":"E5","midi":76,"time":"507.33","velocity":0.4566929133858268,"duration":"0.08"},{"name":"C6","midi":84,"time":"507.33","velocity":0.2204724409448819,"duration":"0.06"},{"name":"F6","midi":89,"time":"507.33","velocity":0.13385826771653545,"duration":"0.05"},{"name":"B6","midi":95,"time":"507.33","velocity":0.3228346456692913,"duration":"0.10"},{"name":"E4","midi":64,"time":"507.34","velocity":0.4094488188976378,"duration":"0.07"},{"name":"F#5","midi":78,"time":"507.34","velocity":0.25984251968503935,"duration":"0.07"},{"name":"D#6","midi":87,"time":"507.35","velocity":0.23622047244094488,"duration":"0.06"},{"name":"C#3","midi":49,"time":"507.36","velocity":0.5275590551181102,"duration":"0.01"},{"name":"A3","midi":57,"time":"507.37","velocity":0.3937007874015748,"duration":"0.02"},{"name":"C#5","midi":73,"time":"507.38","velocity":0.2992125984251969,"duration":"0.10"},{"name":"B5","midi":83,"time":"507.38","velocity":0.28346456692913385,"duration":"0.02"},{"name":"F6","midi":89,"time":"507.38","velocity":0.11023622047244094,"duration":"0.03"},{"name":"F#4","midi":66,"time":"507.40","velocity":0.3464566929133858,"duration":"0.02"},{"name":"A#2","midi":46,"time":"507.41","velocity":0.49606299212598426,"duration":"0.03"},{"name":"C#4","midi":61,"time":"507.41","velocity":0.30708661417322836,"duration":"0.08"},{"name":"D#5","midi":75,"time":"507.41","velocity":0.3779527559055118,"duration":"0.12"},{"name":"F5","midi":77,"time":"507.41","velocity":0.3464566929133858,"duration":"0.03"},{"name":"C6","midi":84,"time":"507.41","velocity":0.2755905511811024,"duration":"0.07"},{"name":"D6","midi":86,"time":"507.41","velocity":0.25984251968503935,"duration":"0.08"},{"name":"E3","midi":52,"time":"507.42","velocity":0.4645669291338583,"duration":"0.03"},{"name":"G5","midi":79,"time":"507.43","velocity":0.29133858267716534,"duration":"0.06"},{"name":"A2","midi":45,"time":"507.44","velocity":0.5275590551181102,"duration":"0.01"},{"name":"F#2","midi":42,"time":"507.45","velocity":0.5196850393700787,"duration":"0.01"},{"name":"F5","midi":77,"time":"507.45","velocity":0.30708661417322836,"duration":"0.05"},{"name":"F#6","midi":90,"time":"507.45","velocity":0.2283464566929134,"duration":"0.05"},{"name":"B6","midi":95,"time":"507.45","velocity":0.1889763779527559,"duration":"0.06"},{"name":"F3","midi":53,"time":"507.47","velocity":0.4251968503937008,"duration":"0.02"},{"name":"A#5","midi":82,"time":"507.47","velocity":0.2677165354330709,"duration":"0.02"},{"name":"A#6","midi":94,"time":"507.47","velocity":0.30708661417322836,"duration":"0.10"},{"name":"G7","midi":103,"time":"507.47","velocity":0.2992125984251969,"duration":"0.78"},{"name":"B5","midi":83,"time":"507.48","velocity":0.2755905511811024,"duration":"0.03"},{"name":"C#6","midi":85,"time":"507.48","velocity":0.36220472440944884,"duration":"0.21"},{"name":"E3","midi":52,"time":"507.49","velocity":0.5039370078740157,"duration":"0.05"},{"name":"G4","midi":67,"time":"507.49","velocity":0.23622047244094488,"duration":"0.03"},{"name":"F6","midi":89,"time":"507.50","velocity":0.12598425196850394,"duration":"0.05"},{"name":"G#2","midi":44,"time":"507.51","velocity":0.4330708661417323,"duration":"0.02"},{"name":"C#4","midi":61,"time":"507.51","velocity":0.3464566929133858,"duration":"0.03"},{"name":"G5","midi":79,"time":"507.51","velocity":0.3937007874015748,"duration":"0.08"},{"name":"C6","midi":84,"time":"507.51","velocity":0.33858267716535434,"duration":"0.02"},{"name":"F#6","midi":90,"time":"507.51","velocity":0.29133858267716534,"duration":"0.14"},{"name":"E5","midi":76,"time":"507.52","velocity":0.2992125984251969,"duration":"0.03"},{"name":"F#5","midi":78,"time":"507.52","velocity":0.28346456692913385,"duration":"0.02"},{"name":"G#6","midi":92,"time":"507.52","velocity":0.2992125984251969,"duration":"0.26"},{"name":"B6","midi":95,"time":"507.52","velocity":0.36220472440944884,"duration":"1.03"},{"name":"D#5","midi":75,"time":"507.53","velocity":0.33070866141732286,"duration":"0.13"},{"name":"B5","midi":83,"time":"507.53","velocity":0.3700787401574803,"duration":"0.08"},{"name":"E3","midi":52,"time":"507.55","velocity":0.4881889763779528,"duration":"0.03"},{"name":"F#1","midi":30,"time":"507.56","velocity":0.2755905511811024,"duration":"0.02"},{"name":"C5","midi":72,"time":"507.56","velocity":0.29133858267716534,"duration":"0.12"},{"name":"D5","midi":74,"time":"507.56","velocity":0.25984251968503935,"duration":"0.02"},{"name":"F5","midi":77,"time":"507.57","velocity":0.28346456692913385,"duration":"0.02"},{"name":"B3","midi":59,"time":"507.58","velocity":0.3464566929133858,"duration":"0.02"},{"name":"G#5","midi":80,"time":"507.58","velocity":0.25196850393700787,"duration":"0.02"},{"name":"A#6","midi":94,"time":"507.58","velocity":0.25984251968503935,"duration":"0.13"},{"name":"A2","midi":45,"time":"507.59","velocity":0.5433070866141733,"duration":"0.02"},{"name":"E3","midi":52,"time":"507.59","velocity":0.4645669291338583,"duration":"0.05"},{"name":"F#5","midi":78,"time":"507.59","velocity":0.23622047244094488,"duration":"0.02"},{"name":"F5","midi":77,"time":"507.60","velocity":0.25984251968503935,"duration":"0.02"},{"name":"G5","midi":79,"time":"507.60","velocity":0.3228346456692913,"duration":"0.02"},{"name":"D6","midi":86,"time":"507.62","velocity":0.2755905511811024,"duration":"0.09"},{"name":"D#7","midi":99,"time":"507.62","velocity":0.29133858267716534,"duration":"0.66"},{"name":"F#5","midi":78,"time":"507.63","velocity":0.2440944881889764,"duration":"0.02"},{"name":"B5","midi":83,"time":"507.63","velocity":0.30708661417322836,"duration":"0.02"},{"name":"G5","midi":79,"time":"507.64","velocity":0.4251968503937008,"duration":"0.13"},{"name":"F4","midi":65,"time":"507.66","velocity":0.3858267716535433,"duration":"0.03"},{"name":"A4","midi":69,"time":"507.66","velocity":0.49606299212598426,"duration":"0.13"},{"name":"D5","midi":74,"time":"507.66","velocity":0.36220472440944884,"duration":"0.07"},{"name":"E5","midi":76,"time":"507.66","velocity":0.4566929133858268,"duration":"0.36"},{"name":"F#5","midi":78,"time":"507.66","velocity":0.2283464566929134,"duration":"0.02"},{"name":"F#6","midi":90,"time":"507.66","velocity":0.23622047244094488,"duration":"0.06"},{"name":"E3","midi":52,"time":"507.70","velocity":0.47244094488188976,"duration":"0.03"},{"name":"A#3","midi":58,"time":"507.70","velocity":0.25984251968503935,"duration":"0.02"},{"name":"G4","midi":67,"time":"507.70","velocity":0.3779527559055118,"duration":"0.02"},{"name":"B5","midi":83,"time":"507.70","velocity":0.33070866141732286,"duration":"0.33"},{"name":"C#6","midi":85,"time":"507.70","velocity":0.29133858267716534,"duration":"0.06"},{"name":"F#1","midi":30,"time":"507.71","velocity":0.3937007874015748,"duration":"0.02"},{"name":"F6","midi":89,"time":"507.71","velocity":0.14173228346456693,"duration":"0.05"},{"name":"D#6","midi":87,"time":"507.72","velocity":0.2755905511811024,"duration":"0.10"},{"name":"F#6","midi":90,"time":"507.73","velocity":0.2992125984251969,"duration":"0.27"},{"name":"E3","midi":52,"time":"507.74","velocity":0.4409448818897638,"duration":"0.02"},{"name":"D5","midi":74,"time":"507.74","velocity":0.33070866141732286,"duration":"0.02"},{"name":"C5","midi":72,"time":"507.76","velocity":0.2283464566929134,"duration":"0.06"},{"name":"A#6","midi":94,"time":"507.76","velocity":0.2125984251968504,"duration":"0.03"},{"name":"G1","midi":31,"time":"507.77","velocity":0.3543307086614173,"duration":"0.02"},{"name":"F#2","midi":42,"time":"507.77","velocity":0.4881889763779528,"duration":"0.03"},{"name":"F#5","midi":78,"time":"507.77","velocity":0.25984251968503935,"duration":"0.06"},{"name":"A#5","midi":82,"time":"507.77","velocity":0.4094488188976378,"duration":"0.02"},{"name":"C#6","midi":85,"time":"507.77","velocity":0.33858267716535434,"duration":"0.27"},{"name":"E3","midi":52,"time":"507.78","velocity":0.4015748031496063,"duration":"0.02"},{"name":"F6","midi":89,"time":"507.78","velocity":0.1732283464566929,"duration":"0.10"},{"name":"F1","midi":29,"time":"507.79","velocity":0.4015748031496063,"duration":"0.02"},{"name":"C#4","midi":61,"time":"507.79","velocity":0.25196850393700787,"duration":"0.02"},{"name":"D5","midi":74,"time":"507.79","velocity":0.28346456692913385,"duration":"0.03"},{"name":"G#6","midi":92,"time":"507.79","velocity":0.33858267716535434,"duration":"0.03"},{"name":"A4","midi":69,"time":"507.80","velocity":0.5354330708661418,"duration":"0.36"},{"name":"D#3","midi":51,"time":"507.81","velocity":0.5039370078740157,"duration":"0.02"},{"name":"D4","midi":62,"time":"507.81","velocity":0.30708661417322836,"duration":"0.02"},{"name":"A#6","midi":94,"time":"507.81","velocity":0.23622047244094488,"duration":"0.03"},{"name":"A#3","midi":58,"time":"507.83","velocity":0.31496062992125984,"duration":"0.02"},{"name":"F5","midi":77,"time":"507.83","velocity":0.25984251968503935,"duration":"0.02"},{"name":"G5","midi":79,"time":"507.83","velocity":0.29133858267716534,"duration":"0.03"},{"name":"G6","midi":91,"time":"507.83","velocity":0.30708661417322836,"duration":"0.21"},{"name":"A3","midi":57,"time":"507.85","velocity":0.4094488188976378,"duration":"0.02"},{"name":"G4","midi":67,"time":"507.86","velocity":0.2755905511811024,"duration":"0.02"},{"name":"G#3","midi":56,"time":"507.87","velocity":0.3543307086614173,"duration":"0.02"},{"name":"F4","midi":65,"time":"507.87","velocity":0.3937007874015748,"duration":"0.02"},{"name":"G5","midi":79,"time":"507.87","velocity":0.28346456692913385,"duration":"0.06"},{"name":"D#6","midi":87,"time":"507.87","velocity":0.12598425196850394,"duration":"0.05"},{"name":"A#6","midi":94,"time":"507.87","velocity":0.15748031496062992,"duration":"0.05"},{"name":"A#2","midi":46,"time":"507.88","velocity":0.5118110236220472,"duration":"0.01"},{"name":"C#5","midi":73,"time":"507.88","velocity":0.2677165354330709,"duration":"0.07"},{"name":"A2","midi":45,"time":"507.90","velocity":0.4409448818897638,"duration":"0.02"},{"name":"E4","midi":64,"time":"507.90","velocity":0.3779527559055118,"duration":"0.02"},{"name":"F#5","midi":78,"time":"507.90","velocity":0.2992125984251969,"duration":"0.05"},{"name":"A#5","midi":82,"time":"507.90","velocity":0.2440944881889764,"duration":"0.03"},{"name":"G#6","midi":92,"time":"507.90","velocity":0.3700787401574803,"duration":"0.13"},{"name":"D2","midi":38,"time":"507.91","velocity":0.3779527559055118,"duration":"0.02"},{"name":"B3","midi":59,"time":"507.91","velocity":0.29133858267716534,"duration":"0.02"},{"name":"D6","midi":86,"time":"507.92","velocity":0.33070866141732286,"duration":"0.17"},{"name":"A#3","midi":58,"time":"507.93","velocity":0.3464566929133858,"duration":"0.02"},{"name":"E4","midi":64,"time":"507.93","velocity":0.2440944881889764,"duration":"0.02"},{"name":"A#6","midi":94,"time":"507.93","velocity":0.25196850393700787,"duration":"0.06"},{"name":"C7","midi":96,"time":"507.93","velocity":0.29133858267716534,"duration":"0.10"},{"name":"G5","midi":79,"time":"507.94","velocity":0.31496062992125984,"duration":"0.02"},{"name":"F6","midi":89,"time":"507.94","velocity":0.16535433070866143,"duration":"0.03"},{"name":"G3","midi":55,"time":"507.95","velocity":0.3543307086614173,"duration":"0.02"},{"name":"C4","midi":60,"time":"507.95","velocity":0.2677165354330709,"duration":"0.02"},{"name":"F4","midi":65,"time":"507.95","velocity":0.3779527559055118,"duration":"0.02"},{"name":"D5","midi":74,"time":"507.95","velocity":0.30708661417322836,"duration":"0.05"},{"name":"F#5","midi":78,"time":"507.95","velocity":0.28346456692913385,"duration":"0.03"},{"name":"D#6","midi":87,"time":"507.95","velocity":0.2440944881889764,"duration":"0.03"},{"name":"G4","midi":67,"time":"507.98","velocity":0.29133858267716534,"duration":"0.05"},{"name":"F#7","midi":102,"time":"507.98","velocity":0.31496062992125984,"duration":"0.24"},{"name":"D#5","midi":75,"time":"507.99","velocity":0.2755905511811024,"duration":"0.03"},{"name":"A#3","midi":58,"time":"508.00","velocity":0.33070866141732286,"duration":"0.02"},{"name":"C#5","midi":73,"time":"508.00","velocity":0.25984251968503935,"duration":"0.03"},{"name":"F#5","midi":78,"time":"508.01","velocity":0.2677165354330709,"duration":"0.07"},{"name":"A#6","midi":94,"time":"508.01","velocity":0.2047244094488189,"duration":"0.05"},{"name":"F3","midi":53,"time":"508.02","velocity":0.36220472440944884,"duration":"0.02"},{"name":"C4","midi":60,"time":"508.02","velocity":0.3700787401574803,"duration":"0.02"},{"name":"D5","midi":74,"time":"508.02","velocity":0.33858267716535434,"duration":"0.03"},{"name":"A#5","midi":82,"time":"508.02","velocity":0.4881889763779528,"duration":"0.03"},{"name":"F6","midi":89,"time":"508.02","velocity":0.2047244094488189,"duration":"0.15"},{"name":"D#4","midi":63,"time":"508.03","velocity":0.3228346456692913,"duration":"0.02"},{"name":"E5","midi":76,"time":"508.03","velocity":0.4566929133858268,"duration":"0.14"},{"name":"B5","midi":83,"time":"508.03","velocity":0.33858267716535434,"duration":"0.05"},{"name":"C#4","midi":61,"time":"508.05","velocity":0.2992125984251969,"duration":"0.02"},{"name":"C#6","midi":85,"time":"508.05","velocity":0.4094488188976378,"duration":"0.47"},{"name":"G6","midi":91,"time":"508.05","velocity":0.2755905511811024,"duration":"0.50"},{"name":"C7","midi":96,"time":"508.05","velocity":0.31496062992125984,"duration":"0.48"},{"name":"F4","midi":65,"time":"508.06","velocity":0.33858267716535434,"duration":"0.02"},{"name":"C#5","midi":73,"time":"508.06","velocity":0.3543307086614173,"duration":"0.03"},{"name":"G#5","midi":80,"time":"508.06","velocity":0.28346456692913385,"duration":"0.02"},{"name":"A5","midi":81,"time":"508.06","velocity":0.6850393700787402,"duration":"0.28"},{"name":"A#5","midi":82,"time":"508.07","velocity":0.2992125984251969,"duration":"0.03"},{"name":"G#6","midi":92,"time":"508.07","velocity":0.3228346456692913,"duration":"0.15"},{"name":"A2","midi":45,"time":"508.08","velocity":0.5118110236220472,"duration":"0.01"},{"name":"E4","midi":64,"time":"508.08","velocity":0.3464566929133858,"duration":"0.03"},{"name":"G5","midi":79,"time":"508.08","velocity":0.2204724409448819,"duration":"0.03"},{"name":"C5","midi":72,"time":"508.09","velocity":0.15748031496062992,"duration":"0.06"},{"name":"D5","midi":74,"time":"508.09","velocity":0.2283464566929134,"duration":"0.02"},{"name":"B5","midi":83,"time":"508.09","velocity":0.3228346456692913,"duration":"0.08"},{"name":"D#2","midi":39,"time":"508.10","velocity":0.5275590551181102,"duration":"0.01"},{"name":"D#6","midi":87,"time":"508.10","velocity":0.15748031496062992,"duration":"0.09"},{"name":"G#2","midi":44,"time":"508.12","velocity":0.5984251968503937,"duration":"0.01"},{"name":"D#4","midi":63,"time":"508.12","velocity":0.25984251968503935,"duration":"0.02"},{"name":"F#5","midi":78,"time":"508.12","velocity":0.2755905511811024,"duration":"0.05"},{"name":"D6","midi":86,"time":"508.12","velocity":0.2125984251968504,"duration":"0.16"},{"name":"A#2","midi":46,"time":"508.13","velocity":0.5748031496062992,"duration":"0.02"},{"name":"F#6","midi":90,"time":"508.13","velocity":0.30708661417322836,"duration":"0.10"},{"name":"C4","midi":60,"time":"508.14","velocity":0.33070866141732286,"duration":"0.02"},{"name":"F4","midi":65,"time":"508.14","velocity":0.2283464566929134,"duration":"0.02"},{"name":"G#2","midi":44,"time":"508.15","velocity":0.5590551181102362,"duration":"0.01"},{"name":"G5","midi":79,"time":"508.15","velocity":0.23622047244094488,"duration":"0.05"},{"name":"A#5","midi":82,"time":"508.15","velocity":0.2204724409448819,"duration":"0.03"},{"name":"C6","midi":84,"time":"508.15","velocity":0.1968503937007874,"duration":"0.05"},{"name":"G2","midi":43,"time":"508.16","velocity":0.5196850393700787,"duration":"0.01"},{"name":"D#5","midi":75,"time":"508.16","velocity":0.3858267716535433,"duration":"0.03"},{"name":"A4","midi":69,"time":"508.17","velocity":0.5354330708661418,"duration":"0.47"},{"name":"F#5","midi":78,"time":"508.17","velocity":0.33858267716535434,"duration":"0.22"},{"name":"E4","midi":64,"time":"508.19","velocity":0.29133858267716534,"duration":"0.02"},{"name":"E5","midi":76,"time":"508.19","velocity":0.3937007874015748,"duration":"0.14"},{"name":"B5","midi":83,"time":"508.19","velocity":0.33858267716535434,"duration":"0.17"},{"name":"F2","midi":41,"time":"508.20","velocity":0.4015748031496063,"duration":"0.02"},{"name":"F4","midi":65,"time":"508.21","velocity":0.2755905511811024,"duration":"0.02"},{"name":"C5","midi":72,"time":"508.21","velocity":0.25196850393700787,"duration":"0.02"},{"name":"G#3","midi":56,"time":"508.22","velocity":0.3937007874015748,"duration":"0.02"},{"name":"C#4","midi":61,"time":"508.22","velocity":0.3464566929133858,"duration":"0.03"},{"name":"G#6","midi":92,"time":"508.23","velocity":0.28346456692913385,"duration":"0.10"},{"name":"F#7","midi":102,"time":"508.23","velocity":0.36220472440944884,"duration":"7.57"},{"name":"D#6","midi":87,"time":"508.24","velocity":0.25984251968503935,"duration":"0.10"},{"name":"A#6","midi":94,"time":"508.24","velocity":0.2204724409448819,"duration":"0.10"},{"name":"A2","midi":45,"time":"508.26","velocity":0.5669291338582677,"duration":"0.05"},{"name":"E3","midi":52,"time":"508.26","velocity":0.41732283464566927,"duration":"0.03"},{"name":"E4","midi":64,"time":"508.26","velocity":0.41732283464566927,"duration":"0.02"},{"name":"F6","midi":89,"time":"508.26","velocity":0.18110236220472442,"duration":"0.05"},{"name":"C#4","midi":61,"time":"508.27","velocity":0.29133858267716534,"duration":"0.02"},{"name":"B3","midi":59,"time":"508.29","velocity":0.3543307086614173,"duration":"0.03"},{"name":"C6","midi":84,"time":"508.29","velocity":0.2755905511811024,"duration":"0.02"},{"name":"D#7","midi":99,"time":"508.30","velocity":0.33070866141732286,"duration":"0.26"},{"name":"F#4","midi":66,"time":"508.31","velocity":0.3228346456692913,"duration":"0.03"},{"name":"D6","midi":86,"time":"508.31","velocity":0.3228346456692913,"duration":"0.05"},{"name":"B2","midi":47,"time":"508.33","velocity":0.5354330708661418,"duration":"0.05"},{"name":"D#5","midi":75,"time":"508.33","velocity":0.33070866141732286,"duration":"0.03"},{"name":"A#5","midi":82,"time":"508.33","velocity":0.4251968503937008,"duration":"0.06"},{"name":"G#5","midi":80,"time":"508.34","velocity":0.2755905511811024,"duration":"0.05"},{"name":"E5","midi":76,"time":"508.35","velocity":0.4330708661417323,"duration":"0.30"},{"name":"G#6","midi":92,"time":"508.35","velocity":0.30708661417322836,"duration":"0.10"},{"name":"D#6","midi":87,"time":"508.36","velocity":0.2125984251968504,"duration":"0.09"},{"name":"F6","midi":89,"time":"508.36","velocity":0.2283464566929134,"duration":"0.29"},{"name":"E3","midi":52,"time":"508.37","velocity":0.4409448818897638,"duration":"0.02"},{"name":"B5","midi":83,"time":"508.37","velocity":0.2992125984251969,"duration":"0.13"},{"name":"D7","midi":98,"time":"508.37","velocity":0.33858267716535434,"duration":"0.70"},{"name":"F2","midi":41,"time":"508.38","velocity":0.4645669291338583,"duration":"0.02"},{"name":"C4","midi":60,"time":"508.38","velocity":0.29133858267716534,"duration":"0.02"},{"name":"C5","midi":72,"time":"508.38","velocity":0.29133858267716534,"duration":"0.03"},{"name":"G5","midi":79,"time":"508.38","velocity":0.4015748031496063,"duration":"0.08"},{"name":"D1","midi":26,"time":"508.40","velocity":0.33070866141732286,"duration":"0.02"},{"name":"F3","midi":53,"time":"508.40","velocity":0.5039370078740157,"duration":"0.03"},{"name":"D#5","midi":75,"time":"508.40","velocity":0.3228346456692913,"duration":"0.02"},{"name":"F#2","midi":42,"time":"508.41","velocity":0.48031496062992124,"duration":"0.02"},{"name":"G#5","midi":80,"time":"508.41","velocity":0.5433070866141733,"duration":"0.03"},{"name":"F#4","midi":66,"time":"508.42","velocity":0.25984251968503935,"duration":"0.02"},{"name":"C#4","midi":61,"time":"508.43","velocity":0.3700787401574803,"duration":"0.06"},{"name":"C5","midi":72,"time":"508.43","velocity":0.25196850393700787,"duration":"0.03"},{"name":"D6","midi":86,"time":"508.43","velocity":0.2755905511811024,"duration":"0.13"},{"name":"E3","midi":52,"time":"508.44","velocity":0.5275590551181102,"duration":"0.05"},{"name":"D5","midi":74,"time":"508.44","velocity":0.23622047244094488,"duration":"0.02"},{"name":"A5","midi":81,"time":"508.44","velocity":0.6614173228346457,"duration":"0.47"},{"name":"G#6","midi":92,"time":"508.47","velocity":0.2677165354330709,"duration":"0.19"},{"name":"G7","midi":103,"time":"508.48","velocity":0.2992125984251969,"duration":"0.41"},{"name":"A#3","midi":58,"time":"508.49","velocity":0.29133858267716534,"duration":"0.02"},{"name":"F#5","midi":78,"time":"508.49","velocity":0.2677165354330709,"duration":"0.07"},{"name":"G#5","midi":80,"time":"508.49","velocity":0.2755905511811024,"duration":"0.03"},{"name":"A#5","midi":82,"time":"508.49","velocity":0.25196850393700787,"duration":"0.02"},{"name":"F#6","midi":90,"time":"508.49","velocity":0.30708661417322836,"duration":"0.29"},{"name":"A#6","midi":94,"time":"508.49","velocity":0.30708661417322836,"duration":"0.06"},{"name":"G#2","midi":44,"time":"508.50","velocity":0.5118110236220472,"duration":"0.01"},{"name":"C#5","midi":73,"time":"508.50","velocity":0.25196850393700787,"duration":"0.02"},{"name":"A2","midi":45,"time":"508.51","velocity":0.5118110236220472,"duration":"0.01"},{"name":"E4","midi":64,"time":"508.51","velocity":0.3228346456692913,"duration":"0.03"},{"name":"E3","midi":52,"time":"508.52","velocity":0.3700787401574803,"duration":"0.02"},{"name":"F#4","midi":66,"time":"508.52","velocity":0.2992125984251969,"duration":"0.02"},{"name":"D#6","midi":87,"time":"508.52","velocity":0.1732283464566929,"duration":"0.06"},{"name":"G5","midi":79,"time":"508.53","velocity":0.33858267716535434,"duration":"0.06"},{"name":"C#6","midi":85,"time":"508.53","velocity":0.2755905511811024,"duration":"0.02"},{"name":"C7","midi":96,"time":"508.53","velocity":0.3543307086614173,"duration":"0.12"},{"name":"C5","midi":72,"time":"508.55","velocity":0.33858267716535434,"duration":"0.03"},{"name":"B5","midi":83,"time":"508.55","velocity":0.31496062992125984,"duration":"0.08"},{"name":"E4","midi":64,"time":"508.56","velocity":0.3464566929133858,"duration":"0.05"},{"name":"B4","midi":71,"time":"508.57","velocity":0.2755905511811024,"duration":"0.05"},{"name":"D6","midi":86,"time":"508.57","velocity":0.1968503937007874,"duration":"0.06"},{"name":"A#6","midi":94,"time":"508.57","velocity":0.3228346456692913,"duration":"0.22"},{"name":"G#2","midi":44,"time":"508.58","velocity":0.5275590551181102,"duration":"0.01"},{"name":"B2","midi":47,"time":"508.59","velocity":0.5433070866141733,"duration":"0.01"},{"name":"F#5","midi":78,"time":"508.59","velocity":0.30708661417322836,"duration":"0.03"},{"name":"G#5","midi":80,"time":"508.59","velocity":0.4566929133858268,"duration":"0.02"},{"name":"A#2","midi":46,"time":"508.60","velocity":0.5039370078740157,"duration":"0.02"},{"name":"D#6","midi":87,"time":"508.60","velocity":0.29133858267716534,"duration":"0.08"},{"name":"E4","midi":64,"time":"508.62","velocity":0.31496062992125984,"duration":"0.05"},{"name":"G5","midi":79,"time":"508.62","velocity":0.2992125984251969,"duration":"0.07"},{"name":"C6","midi":84,"time":"508.62","velocity":0.25196850393700787,"duration":"0.03"},{"name":"C#6","midi":85,"time":"508.62","velocity":0.1968503937007874,"duration":"0.03"},{"name":"C#5","midi":73,"time":"508.63","velocity":0.3228346456692913,"duration":"0.06"},{"name":"A3","midi":57,"time":"508.64","velocity":0.3464566929133858,"duration":"0.02"},{"name":"B5","midi":83,"time":"508.64","velocity":0.3858267716535433,"duration":"0.17"},{"name":"D6","midi":86,"time":"508.64","velocity":0.25984251968503935,"duration":"0.02"},{"name":"D#7","midi":99,"time":"508.64","velocity":0.3228346456692913,"duration":"0.31"},{"name":"A4","midi":69,"time":"508.65","velocity":0.5118110236220472,"duration":"0.24"},{"name":"D#5","midi":75,"time":"508.65","velocity":0.3464566929133858,"duration":"0.03"},{"name":"B2","midi":47,"time":"508.66","velocity":0.4881889763779528,"duration":"0.02"},{"name":"C#4","midi":61,"time":"508.66","velocity":0.3464566929133858,"duration":"0.05"},{"name":"C#6","midi":85,"time":"508.66","velocity":0.33858267716535434,"duration":"0.12"},{"name":"G#6","midi":92,"time":"508.66","velocity":0.2992125984251969,"duration":"0.15"},{"name":"C7","midi":96,"time":"508.66","velocity":0.29133858267716534,"duration":"0.43"},{"name":"G#3","midi":56,"time":"508.67","velocity":0.3858267716535433,"duration":"0.02"},{"name":"C5","midi":72,"time":"508.67","velocity":0.2677165354330709,"duration":"0.02"},{"name":"E5","midi":76,"time":"508.67","velocity":0.4645669291338583,"duration":"0.26"},{"name":"F#5","midi":78,"time":"508.69","velocity":0.3700787401574803,"duration":"0.12"},{"name":"D6","midi":86,"time":"508.69","velocity":0.2677165354330709,"duration":"0.06"},{"name":"B2","midi":47,"time":"508.70","velocity":0.5669291338582677,"duration":"0.02"},{"name":"E4","midi":64,"time":"508.70","velocity":0.3464566929133858,"duration":"0.08"},{"name":"C5","midi":72,"time":"508.71","velocity":0.2440944881889764,"duration":"0.06"},{"name":"G6","midi":91,"time":"508.71","velocity":0.25984251968503935,"duration":"0.15"},{"name":"A#2","midi":46,"time":"508.72","velocity":0.5433070866141733,"duration":"0.01"},{"name":"F3","midi":53,"time":"508.72","velocity":0.4330708661417323,"duration":"0.03"},{"name":"D6","midi":86,"time":"508.76","velocity":0.2440944881889764,"duration":"0.07"},{"name":"E3","midi":52,"time":"508.77","velocity":0.4645669291338583,"duration":"0.03"},{"name":"C#5","midi":73,"time":"508.77","velocity":0.2677165354330709,"duration":"0.12"},{"name":"D4","midi":62,"time":"508.78","velocity":0.2755905511811024,"duration":"0.02"},{"name":"A#5","midi":82,"time":"508.79","velocity":0.2992125984251969,"duration":"0.02"},{"name":"C6","midi":84,"time":"508.79","velocity":0.1732283464566929,"duration":"0.05"},{"name":"F6","midi":89,"time":"508.79","velocity":0.2047244094488189,"duration":"0.07"},{"name":"G5","midi":79,"time":"508.80","velocity":0.29133858267716534,"duration":"0.05"},{"name":"D#6","midi":87,"time":"508.80","velocity":0.23622047244094488,"duration":"0.05"},{"name":"F#6","midi":90,"time":"508.80","velocity":0.1968503937007874,"duration":"0.03"},{"name":"A3","midi":57,"time":"508.81","velocity":0.4251968503937008,"duration":"0.05"},{"name":"F4","midi":65,"time":"508.83","velocity":0.3700787401574803,"duration":"0.03"},{"name":"G#6","midi":92,"time":"508.83","velocity":0.29133858267716534,"duration":"0.27"},{"name":"B5","midi":83,"time":"508.84","velocity":0.2992125984251969,"duration":"0.03"},{"name":"C#6","midi":85,"time":"508.84","velocity":0.33858267716535434,"duration":"0.09"},{"name":"A#6","midi":94,"time":"508.84","velocity":0.1732283464566929,"duration":"0.06"},{"name":"A2","midi":45,"time":"508.85","velocity":0.5118110236220472,"duration":"0.02"},{"name":"F#5","midi":78,"time":"508.85","velocity":0.28346456692913385,"duration":"0.06"},{"name":"F#6","midi":90,"time":"508.85","velocity":0.3464566929133858,"duration":"0.50"},{"name":"E4","midi":64,"time":"508.86","velocity":0.36220472440944884,"duration":"0.03"},{"name":"G4","midi":67,"time":"508.86","velocity":0.2755905511811024,"duration":"0.02"},{"name":"C6","midi":84,"time":"508.87","velocity":0.2047244094488189,"duration":"0.03"},{"name":"D#6","midi":87,"time":"508.87","velocity":0.2677165354330709,"duration":"0.15"},{"name":"G6","midi":91,"time":"508.87","velocity":0.25984251968503935,"duration":"0.28"},{"name":"B6","midi":95,"time":"508.87","velocity":0.3228346456692913,"duration":"0.81"},{"name":"F#1","midi":30,"time":"508.90","velocity":0.4330708661417323,"duration":"0.02"},{"name":"B2","midi":47,"time":"508.90","velocity":0.5118110236220472,"duration":"0.01"},{"name":"A3","midi":57,"time":"508.90","velocity":0.4094488188976378,"duration":"0.02"},{"name":"G#5","midi":80,"time":"508.90","velocity":0.5433070866141733,"duration":"0.02"},{"name":"G7","midi":103,"time":"508.90","velocity":0.25984251968503935,"duration":"0.38"},{"name":"E4","midi":64,"time":"508.91","velocity":0.2992125984251969,"duration":"0.02"},{"name":"A4","midi":69,"time":"508.91","velocity":0.49606299212598426,"duration":"0.06"},{"name":"F5","midi":77,"time":"508.91","velocity":0.31496062992125984,"duration":"0.05"},{"name":"B5","midi":83,"time":"508.91","velocity":0.36220472440944884,"duration":"0.06"},{"name":"A#6","midi":94,"time":"508.91","velocity":0.31496062992125984,"duration":"0.03"},{"name":"D#3","midi":51,"time":"508.92","velocity":0.5118110236220472,"duration":"0.01"},{"name":"C#5","midi":73,"time":"508.92","velocity":0.29133858267716534,"duration":"0.02"},{"name":"D#5","midi":75,"time":"508.92","velocity":0.2755905511811024,"duration":"0.02"},{"name":"A5","midi":81,"time":"508.92","velocity":0.6456692913385826,"duration":"0.15"},{"name":"D6","midi":86,"time":"508.93","velocity":0.2440944881889764,"duration":"0.02"},{"name":"F4","midi":65,"time":"508.94","velocity":0.2755905511811024,"duration":"0.02"},{"name":"D5","midi":74,"time":"508.94","velocity":0.30708661417322836,"duration":"0.02"},{"name":"G5","midi":79,"time":"508.94","velocity":0.25984251968503935,"duration":"0.03"},{"name":"A#5","midi":82,"time":"508.94","velocity":0.3228346456692913,"duration":"0.02"},{"name":"C#6","midi":85,"time":"508.94","velocity":0.29133858267716534,"duration":"0.07"},{"name":"C3","midi":48,"time":"508.95","velocity":0.5275590551181102,"duration":"0.01"},{"name":"D4","midi":62,"time":"508.95","velocity":0.3543307086614173,"duration":"0.02"},{"name":"E5","midi":76,"time":"508.95","velocity":0.3937007874015748,"duration":"0.13"},{"name":"B2","midi":47,"time":"508.97","velocity":0.5118110236220472,"duration":"0.01"},{"name":"A#4","midi":70,"time":"508.97","velocity":0.33070866141732286,"duration":"0.03"},{"name":"C5","midi":72,"time":"508.97","velocity":0.2755905511811024,"duration":"0.02"},{"name":"D#7","midi":99,"time":"508.97","velocity":0.3228346456692913,"duration":"0.59"},{"name":"E4","midi":64,"time":"508.98","velocity":0.28346456692913385,"duration":"0.02"},{"name":"C#5","midi":73,"time":"508.98","velocity":0.30708661417322836,"duration":"0.06"},{"name":"B2","midi":47,"time":"508.99","velocity":0.47244094488188976,"duration":"0.02"},{"name":"G#4","midi":68,"time":"508.99","velocity":0.28346456692913385,"duration":"0.02"},{"name":"F#5","midi":78,"time":"508.99","velocity":0.2677165354330709,"duration":"0.03"},{"name":"B5","midi":83,"time":"508.99","velocity":0.33858267716535434,"duration":"0.09"},{"name":"F6","midi":89,"time":"508.99","velocity":0.2283464566929134,"duration":"0.08"},{"name":"F4","midi":65,"time":"509.00","velocity":0.3543307086614173,"duration":"0.02"},{"name":"A#6","midi":94,"time":"509.00","velocity":0.28346456692913385,"duration":"0.06"},{"name":"A4","midi":69,"time":"509.01","velocity":0.36220472440944884,"duration":"0.05"},{"name":"G5","midi":79,"time":"509.01","velocity":0.2440944881889764,"duration":"0.03"},{"name":"A#5","midi":82,"time":"509.01","velocity":0.3779527559055118,"duration":"0.03"},{"name":"D6","midi":86,"time":"509.01","velocity":0.25196850393700787,"duration":"0.02"},{"name":"F#2","midi":42,"time":"509.02","velocity":0.5118110236220472,"duration":"0.01"},{"name":"A3","midi":57,"time":"509.02","velocity":0.31496062992125984,"duration":"0.02"},{"name":"C#6","midi":85,"time":"509.02","velocity":0.3228346456692913,"duration":"0.12"},{"name":"G#2","midi":44,"time":"509.03","velocity":0.5433070866141733,"duration":"0.01"},{"name":"D5","midi":74,"time":"509.03","velocity":0.28346456692913385,"duration":"0.03"},{"name":"D#6","midi":87,"time":"509.03","velocity":0.28346456692913385,"duration":"0.10"},{"name":"A2","midi":45,"time":"509.05","velocity":0.49606299212598426,"duration":"0.03"},{"name":"F3","midi":53,"time":"509.06","velocity":0.4645669291338583,"duration":"0.05"},{"name":"G#4","midi":68,"time":"509.06","velocity":0.30708661417322836,"duration":"0.02"},{"name":"D#5","midi":75,"time":"509.06","velocity":0.3543307086614173,"duration":"0.09"},{"name":"G5","midi":79,"time":"509.06","velocity":0.3228346456692913,"duration":"0.06"},{"name":"G#5","midi":80,"time":"509.06","velocity":0.44881889763779526,"duration":"0.02"},{"name":"D4","midi":62,"time":"509.07","velocity":0.36220472440944884,"duration":"0.02"},{"name":"A4","midi":69,"time":"509.07","velocity":0.4251968503937008,"duration":"0.22"},{"name":"C#5","midi":73,"time":"509.07","velocity":0.3858267716535433,"duration":"0.03"},{"name":"A#5","midi":82,"time":"509.07","velocity":0.47244094488188976,"duration":"0.02"},{"name":"G#2","midi":44,"time":"509.08","velocity":0.41732283464566927,"duration":"0.02"},{"name":"D6","midi":86,"time":"509.08","velocity":0.2440944881889764,"duration":"0.05"},{"name":"F5","midi":77,"time":"509.09","velocity":0.25196850393700787,"duration":"0.02"},{"name":"A5","midi":81,"time":"509.09","velocity":0.6692913385826772,"duration":"1.08"},{"name":"A#6","midi":94,"time":"509.09","velocity":0.2283464566929134,"duration":"0.02"},{"name":"E3","midi":52,"time":"509.10","velocity":0.5039370078740157,"duration":"0.07"},{"name":"A#3","midi":58,"time":"509.10","velocity":0.33070866141732286,"duration":"0.02"},{"name":"G#6","midi":92,"time":"509.10","velocity":0.3858267716535433,"duration":"0.37"},{"name":"C7","midi":96,"time":"509.10","velocity":0.25984251968503935,"duration":"0.20"},{"name":"F#5","midi":78,"time":"509.12","velocity":0.29133858267716534,"duration":"0.02"},{"name":"D7","midi":98,"time":"509.12","velocity":0.2992125984251969,"duration":"0.07"},{"name":"A2","midi":45,"time":"509.13","velocity":0.4881889763779528,"duration":"0.02"},{"name":"F5","midi":77,"time":"509.13","velocity":0.31496062992125984,"duration":"0.02"},{"name":"B5","midi":83,"time":"509.13","velocity":0.3464566929133858,"duration":"0.27"},{"name":"A#6","midi":94,"time":"509.13","velocity":0.3700787401574803,"duration":"0.10"},{"name":"E5","midi":76,"time":"509.14","velocity":0.4330708661417323,"duration":"0.21"},{"name":"D6","midi":86,"time":"509.14","velocity":0.2283464566929134,"duration":"0.02"},{"name":"B2","midi":47,"time":"509.15","velocity":0.44881889763779526,"duration":"0.02"},{"name":"C#4","midi":61,"time":"509.15","velocity":0.36220472440944884,"duration":"0.02"},{"name":"D5","midi":74,"time":"509.15","velocity":0.25196850393700787,"duration":"0.02"},{"name":"F#5","midi":78,"time":"509.15","velocity":0.30708661417322836,"duration":"0.06"},{"name":"C#6","midi":85,"time":"509.15","velocity":0.3779527559055118,"duration":"0.08"},{"name":"C5","midi":72,"time":"509.16","velocity":0.33070866141732286,"duration":"0.06"},{"name":"G#5","midi":80,"time":"509.17","velocity":0.41732283464566927,"duration":"0.03"},{"name":"D6","midi":86,"time":"509.17","velocity":0.28346456692913385,"duration":"0.03"},{"name":"A#3","midi":58,"time":"509.19","velocity":0.31496062992125984,"duration":"0.02"},{"name":"G6","midi":91,"time":"509.19","velocity":0.28346456692913385,"duration":"0.35"},{"name":"G#2","midi":44,"time":"509.20","velocity":0.5511811023622047,"duration":"0.01"},{"name":"D7","midi":98,"time":"509.20","velocity":0.3779527559055118,"duration":"3.87"},{"name":"B2","midi":47,"time":"509.21","velocity":0.5748031496062992,"duration":"0.02"},{"name":"A3","midi":57,"time":"509.21","velocity":0.31496062992125984,"duration":"0.02"},{"name":"G5","midi":79,"time":"509.21","velocity":0.30708661417322836,"duration":"0.12"},{"name":"F6","midi":89,"time":"509.21","velocity":0.1889763779527559,"duration":"0.03"},{"name":"G4","midi":67,"time":"509.22","velocity":0.30708661417322836,"duration":"0.02"},{"name":"D6","midi":86,"time":"509.22","velocity":0.28346456692913385,"duration":"0.10"},{"name":"A2","midi":45,"time":"509.23","velocity":0.5354330708661418,"duration":"0.01"},{"name":"D4","midi":62,"time":"509.23","velocity":0.2440944881889764,"duration":"0.02"},{"name":"C#5","midi":73,"time":"509.23","velocity":0.16535433070866143,"duration":"0.03"},{"name":"F#4","midi":66,"time":"509.24","velocity":0.3228346456692913,"duration":"0.02"},{"name":"C#6","midi":85,"time":"509.24","velocity":0.2755905511811024,"duration":"0.13"},{"name":"A#6","midi":94,"time":"509.24","velocity":0.29133858267716534,"duration":"0.12"},{"name":"E3","midi":52,"time":"509.26","velocity":0.47244094488188976,"duration":"0.02"},{"name":"B4","midi":71,"time":"509.26","velocity":0.2440944881889764,"duration":"0.03"},{"name":"F2","midi":41,"time":"509.27","velocity":0.47244094488188976,"duration":"0.02"},{"name":"A3","midi":57,"time":"509.27","velocity":0.4330708661417323,"duration":"0.03"},{"name":"F6","midi":89,"time":"509.27","velocity":0.14960629921259844,"duration":"0.09"},{"name":"E4","midi":64,"time":"509.28","velocity":0.2677165354330709,"duration":"0.02"},{"name":"D#6","midi":87,"time":"509.28","velocity":0.15748031496062992,"duration":"0.05"},{"name":"A#3","midi":58,"time":"509.30","velocity":0.3464566929133858,"duration":"0.02"},{"name":"F4","midi":65,"time":"509.30","velocity":0.25196850393700787,"duration":"0.02"},{"name":"A4","midi":69,"time":"509.30","velocity":0.3700787401574803,"duration":"0.03"},{"name":"D#5","midi":75,"time":"509.30","velocity":0.25196850393700787,"duration":"0.02"},{"name":"G#5","midi":80,"time":"509.31","velocity":0.3228346456692913,"duration":"0.02"},{"name":"C7","midi":96,"time":"509.33","velocity":0.36220472440944884,"duration":"0.84"},{"name":"G#4","midi":68,"time":"509.34","velocity":0.33070866141732286,"duration":"0.02"},{"name":"B4","midi":71,"time":"509.34","velocity":0.2440944881889764,"duration":"0.02"},{"name":"G5","midi":79,"time":"509.34","velocity":0.25984251968503935,"duration":"0.05"},{"name":"D#6","midi":87,"time":"509.34","velocity":0.1968503937007874,"duration":"0.07"},{"name":"C#4","midi":61,"time":"509.35","velocity":0.3464566929133858,"duration":"0.06"},{"name":"F5","midi":77,"time":"509.35","velocity":0.23622047244094488,"duration":"0.02"},{"name":"G#2","midi":44,"time":"509.36","velocity":0.5118110236220472,"duration":"0.01"},{"name":"A3","midi":57,"time":"509.36","velocity":0.3779527559055118,"duration":"0.06"},{"name":"A4","midi":69,"time":"509.36","velocity":0.41732283464566927,"duration":"0.17"},{"name":"D5","midi":74,"time":"509.36","velocity":0.30708661417322836,"duration":"0.02"},{"name":"E5","midi":76,"time":"509.36","velocity":0.4251968503937008,"duration":"0.09"},{"name":"C6","midi":84,"time":"509.36","velocity":0.33070866141732286,"duration":"0.05"},{"name":"F#6","midi":90,"time":"509.36","velocity":0.23622047244094488,"duration":"0.13"},{"name":"A#2","midi":46,"time":"509.37","velocity":0.5511811023622047,"duration":"0.03"},{"name":"A#6","midi":94,"time":"509.37","velocity":0.23622047244094488,"duration":"0.08"},{"name":"C5","midi":72,"time":"509.38","velocity":0.29133858267716534,"duration":"0.05"},{"name":"F#5","midi":78,"time":"509.38","velocity":0.31496062992125984,"duration":"0.14"},{"name":"C#6","midi":85,"time":"509.38","velocity":0.3779527559055118,"duration":"0.14"},{"name":"F4","midi":65,"time":"509.40","velocity":0.2992125984251969,"duration":"0.05"},{"name":"F#1","midi":30,"time":"509.41","velocity":0.33070866141732286,"duration":"0.02"},{"name":"B5","midi":83,"time":"509.41","velocity":0.33070866141732286,"duration":"0.02"},{"name":"C#5","midi":73,"time":"509.42","velocity":0.2677165354330709,"duration":"0.02"},{"name":"G5","midi":79,"time":"509.42","velocity":0.2283464566929134,"duration":"0.02"},{"name":"C6","midi":84,"time":"509.42","velocity":0.30708661417322836,"duration":"0.02"},{"name":"D#6","midi":87,"time":"509.42","velocity":0.2204724409448819,"duration":"0.05"},{"name":"F6","midi":89,"time":"509.42","velocity":0.1732283464566929,"duration":"0.03"},{"name":"D#3","midi":51,"time":"509.43","velocity":0.3937007874015748,"duration":"0.02"},{"name":"D6","midi":86,"time":"509.43","velocity":0.25984251968503935,"duration":"0.06"},{"name":"B4","midi":71,"time":"509.44","velocity":0.25984251968503935,"duration":"0.02"},{"name":"D5","midi":74,"time":"509.44","velocity":0.2047244094488189,"duration":"0.05"},{"name":"B5","midi":83,"time":"509.44","velocity":0.4330708661417323,"duration":"0.16"},{"name":"D#4","midi":63,"time":"509.45","velocity":0.29133858267716534,"duration":"0.05"},{"name":"F5","midi":77,"time":"509.45","velocity":0.2283464566929134,"duration":"0.02"},{"name":"D3","midi":50,"time":"509.47","velocity":0.5039370078740157,"duration":"0.02"},{"name":"G#3","midi":56,"time":"509.47","velocity":0.47244094488188976,"duration":"0.02"},{"name":"F#4","midi":66,"time":"509.47","velocity":0.2440944881889764,"duration":"0.03"},{"name":"C5","midi":72,"time":"509.47","velocity":0.2755905511811024,"duration":"0.08"},{"name":"G5","midi":79,"time":"509.47","velocity":0.2992125984251969,"duration":"0.10"},{"name":"A#6","midi":94,"time":"509.47","velocity":0.2125984251968504,"duration":"0.07"},{"name":"E5","midi":76,"time":"509.48","velocity":0.30708661417322836,"duration":"0.02"},{"name":"D#6","midi":87,"time":"509.48","velocity":0.16535433070866143,"duration":"0.06"},{"name":"G2","midi":43,"time":"509.49","velocity":0.5118110236220472,"duration":"0.01"},{"name":"D#5","midi":75,"time":"509.49","velocity":0.29133858267716534,"duration":"0.02"},{"name":"G#6","midi":92,"time":"509.49","velocity":0.25984251968503935,"duration":"0.05"},{"name":"G#2","midi":44,"time":"509.50","velocity":0.5196850393700787,"duration":"0.01"},{"name":"A2","midi":45,"time":"509.51","velocity":0.48031496062992124,"duration":"0.02"},{"name":"E4","midi":64,"time":"509.51","velocity":0.4015748031496063,"duration":"0.06"},{"name":"D5","midi":74,"time":"509.51","velocity":0.2440944881889764,"duration":"0.02"},{"name":"C#4","midi":61,"time":"509.52","velocity":0.36220472440944884,"duration":"0.03"},{"name":"A#5","midi":82,"time":"509.52","velocity":0.31496062992125984,"duration":"0.02"},{"name":"D6","midi":86,"time":"509.52","velocity":0.2755905511811024,"duration":"0.06"},{"name":"G#2","midi":44,"time":"509.53","velocity":0.5354330708661418,"duration":"0.01"},{"name":"F5","midi":77,"time":"509.53","velocity":0.2283464566929134,"duration":"0.05"},{"name":"C#6","midi":85,"time":"509.53","velocity":0.3700787401574803,"duration":"0.03"},{"name":"A#2","midi":46,"time":"509.55","velocity":0.5511811023622047,"duration":"0.03"},{"name":"D5","midi":74,"time":"509.55","velocity":0.29133858267716534,"duration":"0.05"},{"name":"F6","midi":89,"time":"509.55","velocity":0.2677165354330709,"duration":"0.07"},{"name":"A#6","midi":94,"time":"509.55","velocity":0.25984251968503935,"duration":"0.02"},{"name":"F3","midi":53,"time":"509.56","velocity":0.4645669291338583,"duration":"0.05"},{"name":"D4","midi":62,"time":"509.56","velocity":0.3228346456692913,"duration":"0.05"},{"name":"A4","midi":69,"time":"509.56","velocity":0.49606299212598426,"duration":"0.27"},{"name":"F#5","midi":78,"time":"509.57","velocity":0.28346456692913385,"duration":"0.05"},{"name":"C6","midi":84,"time":"509.57","velocity":0.2204724409448819,"duration":"0.06"},{"name":"D#7","midi":99,"time":"509.57","velocity":0.3464566929133858,"duration":"3.00"},{"name":"F7","midi":101,"time":"509.57","velocity":0.31496062992125984,"duration":"0.41"},{"name":"A2","midi":45,"time":"509.58","velocity":0.5039370078740157,"duration":"0.02"},{"name":"E5","midi":76,"time":"509.58","velocity":0.28346456692913385,"duration":"0.03"},{"name":"G#5","midi":80,"time":"509.59","velocity":0.31496062992125984,"duration":"0.02"},{"name":"D6","midi":86,"time":"509.59","velocity":0.1889763779527559,"duration":"0.05"},{"name":"A#6","midi":94,"time":"509.59","velocity":0.2992125984251969,"duration":"0.06"},{"name":"E3","midi":52,"time":"509.60","velocity":0.44881889763779526,"duration":"0.02"},{"name":"C#5","midi":73,"time":"509.60","velocity":0.2755905511811024,"duration":"0.02"},{"name":"F5","midi":77,"time":"509.60","velocity":0.3228346456692913,"duration":"0.03"},{"name":"C#4","midi":61,"time":"509.62","velocity":0.2440944881889764,"duration":"0.02"},{"name":"G5","midi":79,"time":"509.62","velocity":0.33070866141732286,"duration":"0.02"},{"name":"F3","midi":53,"time":"509.63","velocity":0.3779527559055118,"duration":"0.03"},{"name":"D#5","midi":75,"time":"509.63","velocity":0.3700787401574803,"duration":"0.07"},{"name":"G#6","midi":92,"time":"509.63","velocity":0.2992125984251969,"duration":"0.12"},{"name":"A2","midi":45,"time":"509.64","velocity":0.5039370078740157,"duration":"0.02"},{"name":"C5","midi":72,"time":"509.65","velocity":0.28346456692913385,"duration":"0.07"},{"name":"A#5","midi":82,"time":"509.65","velocity":0.3464566929133858,"duration":"0.02"},{"name":"D6","midi":86,"time":"509.65","velocity":0.2440944881889764,"duration":"0.03"},{"name":"A3","midi":57,"time":"509.67","velocity":0.3937007874015748,"duration":"0.03"},{"name":"A#6","midi":94,"time":"509.67","velocity":0.2755905511811024,"duration":"0.08"},{"name":"A#2","midi":46,"time":"509.69","velocity":0.5433070866141733,"duration":"0.01"},{"name":"E4","midi":64,"time":"509.69","velocity":0.3228346456692913,"duration":"0.03"},{"name":"E5","midi":76,"time":"509.69","velocity":0.47244094488188976,"duration":"0.35"},{"name":"G5","midi":79,"time":"509.69","velocity":0.33858267716535434,"duration":"0.06"},{"name":"D6","midi":86,"time":"509.70","velocity":0.29133858267716534,"duration":"0.06"},{"name":"D#6","midi":87,"time":"509.70","velocity":0.1732283464566929,"duration":"0.03"},{"name":"F6","midi":89,"time":"509.70","velocity":0.1968503937007874,"duration":"0.09"},{"name":"B6","midi":95,"time":"509.70","velocity":0.33858267716535434,"duration":"0.26"},{"name":"D2","midi":38,"time":"509.72","velocity":0.3464566929133858,"duration":"0.02"},{"name":"C#3","midi":49,"time":"509.72","velocity":0.5275590551181102,"duration":"0.02"},{"name":"B4","midi":71,"time":"509.72","velocity":0.25984251968503935,"duration":"0.03"},{"name":"C#5","midi":73,"time":"509.72","velocity":0.25984251968503935,"duration":"0.05"},{"name":"E4","midi":64,"time":"509.73","velocity":0.2440944881889764,"duration":"0.02"},{"name":"F#4","midi":66,"time":"509.73","velocity":0.33858267716535434,"duration":"0.02"},{"name":"F#6","midi":90,"time":"509.73","velocity":0.2755905511811024,"duration":"0.26"},{"name":"B5","midi":83,"time":"509.74","velocity":0.33858267716535434,"duration":"0.12"},{"name":"D#6","midi":87,"time":"509.74","velocity":0.2440944881889764,"duration":"0.16"},{"name":"E3","midi":52,"time":"509.76","velocity":0.4645669291338583,"duration":"0.03"},{"name":"D#4","midi":63,"time":"509.76","velocity":0.29133858267716534,"duration":"0.03"},{"name":"G#6","midi":92,"time":"509.76","velocity":0.3228346456692913,"duration":"0.13"},{"name":"C5","midi":72,"time":"509.77","velocity":0.2755905511811024,"duration":"0.03"},{"name":"G5","midi":79,"time":"509.77","velocity":0.29133858267716534,"duration":"0.05"},{"name":"C#6","midi":85,"time":"509.77","velocity":0.25984251968503935,"duration":"0.12"},{"name":"D6","midi":86,"time":"509.77","velocity":0.11811023622047244,"duration":"0.03"},{"name":"A#6","midi":94,"time":"509.77","velocity":0.2677165354330709,"duration":"0.05"},{"name":"G7","midi":103,"time":"509.78","velocity":0.31496062992125984,"duration":"0.22"},{"name":"C#5","midi":73,"time":"509.80","velocity":0.33858267716535434,"duration":"0.02"},{"name":"F#5","midi":78,"time":"509.80","velocity":0.29133858267716534,"duration":"0.07"},{"name":"C#4","midi":61,"time":"509.81","velocity":0.30708661417322836,"duration":"0.02"},{"name":"E4","midi":64,"time":"509.81","velocity":0.29133858267716534,"duration":"0.03"},{"name":"G4","midi":67,"time":"509.81","velocity":0.2755905511811024,"duration":"0.03"},{"name":"B2","midi":47,"time":"509.83","velocity":0.4015748031496063,"duration":"0.02"},{"name":"A3","midi":57,"time":"509.83","velocity":0.3700787401574803,"duration":"0.05"},{"name":"A#4","midi":70,"time":"509.83","velocity":0.33858267716535434,"duration":"0.02"},{"name":"D5","midi":74,"time":"509.83","velocity":0.23622047244094488,"duration":"0.02"},{"name":"G#5","midi":80,"time":"509.83","velocity":0.49606299212598426,"duration":"0.02"},{"name":"D6","midi":86,"time":"509.83","velocity":0.33858267716535434,"duration":"0.17"},{"name":"F6","midi":89,"time":"509.83","velocity":0.25984251968503935,"duration":"0.06"},{"name":"A#6","midi":94,"time":"509.83","velocity":0.31496062992125984,"duration":"0.10"},{"name":"G6","midi":91,"time":"509.84","velocity":0.23622047244094488,"duration":"0.19"},{"name":"E2","midi":40,"time":"509.85","velocity":0.4881889763779528,"duration":"0.03"},{"name":"A4","midi":69,"time":"509.85","velocity":0.44881889763779526,"duration":"0.08"},{"name":"C5","midi":72,"time":"509.85","velocity":0.2440944881889764,"duration":"0.02"},{"name":"E4","midi":64,"time":"509.86","velocity":0.3228346456692913,"duration":"0.02"},{"name":"G5","midi":79,"time":"509.86","velocity":0.36220472440944884,"duration":"0.10"},{"name":"B5","midi":83,"time":"509.87","velocity":0.2677165354330709,"duration":"0.02"},{"name":"F#4","midi":66,"time":"509.88","velocity":0.33858267716535434,"duration":"0.05"},{"name":"C6","midi":84,"time":"509.88","velocity":0.2440944881889764,"duration":"0.05"},{"name":"F3","midi":53,"time":"509.90","velocity":0.5354330708661418,"duration":"0.01"},{"name":"G#6","midi":92,"time":"509.90","velocity":0.31496062992125984,"duration":"0.06"},{"name":"D#3","midi":51,"time":"509.91","velocity":0.5196850393700787,"duration":"0.01"},{"name":"B5","midi":83,"time":"509.91","velocity":0.3464566929133858,"duration":"0.20"},{"name":"F6","midi":89,"time":"509.91","velocity":0.1732283464566929,"duration":"0.05"},{"name":"E3","midi":52,"time":"509.92","velocity":0.5118110236220472,"duration":"0.05"},{"name":"A3","midi":57,"time":"509.92","velocity":0.4645669291338583,"duration":"0.03"},{"name":"C#6","midi":85,"time":"509.93","velocity":0.2992125984251969,"duration":"0.03"},{"name":"G4","midi":67,"time":"509.94","velocity":0.33858267716535434,"duration":"0.06"},{"name":"A4","midi":69,"time":"509.95","velocity":0.3779527559055118,"duration":"0.02"},{"name":"D#6","midi":87,"time":"509.95","velocity":0.2125984251968504,"duration":"0.10"},{"name":"F#5","midi":78,"time":"509.97","velocity":0.3464566929133858,"duration":"0.02"},{"name":"G#6","midi":92,"time":"509.97","velocity":0.30708661417322836,"duration":"0.27"},{"name":"A#6","midi":94,"time":"509.97","velocity":0.25196850393700787,"duration":"0.07"},{"name":"B2","midi":47,"time":"509.98","velocity":0.5354330708661418,"duration":"0.01"},{"name":"C#5","midi":73,"time":"509.98","velocity":0.31496062992125984,"duration":"0.07"},{"name":"G5","midi":79,"time":"509.98","velocity":0.3700787401574803,"duration":"0.05"},{"name":"A#2","midi":46,"time":"509.99","velocity":0.5275590551181102,"duration":"0.01"},{"name":"E4","midi":64,"time":"509.99","velocity":0.33070866141732286,"duration":"0.02"},{"name":"A4","midi":69,"time":"509.99","velocity":0.4251968503937008,"duration":"0.17"},{"name":"A#5","midi":82,"time":"509.99","velocity":0.28346456692913385,"duration":"0.03"},{"name":"F6","midi":89,"time":"509.99","velocity":0.1889763779527559,"duration":"0.10"},{"name":"F7","midi":101,"time":"509.99","velocity":0.3543307086614173,"duration":"0.41"},{"name":"E3","midi":52,"time":"510.00","velocity":0.4881889763779528,"duration":"0.07"},{"name":"D#5","midi":75,"time":"510.01","velocity":0.3858267716535433,"duration":"0.03"},{"name":"D6","midi":86,"time":"510.01","velocity":0.33858267716535434,"duration":"0.21"},{"name":"F#6","midi":90,"time":"510.01","velocity":0.2440944881889764,"duration":"0.10"},{"name":"G7","midi":103,"time":"510.01","velocity":0.29133858267716534,"duration":"0.12"},{"name":"F#5","midi":78,"time":"510.03","velocity":0.33858267716535434,"duration":"0.07"},{"name":"G#5","midi":80,"time":"510.03","velocity":0.28346456692913385,"duration":"0.02"},{"name":"G6","midi":91,"time":"510.03","velocity":0.29133858267716534,"duration":"0.12"},{"name":"F2","midi":41,"time":"510.05","velocity":0.5039370078740157,"duration":"0.03"},{"name":"D5","midi":74,"time":"510.05","velocity":0.2677165354330709,"duration":"0.07"},{"name":"E5","midi":76,"time":"510.05","velocity":0.4881889763779528,"duration":"0.05"},{"name":"A#6","midi":94,"time":"510.05","velocity":0.29133858267716534,"duration":"0.02"},{"name":"C#6","midi":85,"time":"510.06","velocity":0.28346456692913385,"duration":"0.03"},{"name":"C5","midi":72,"time":"510.07","velocity":0.23622047244094488,"duration":"0.05"},{"name":"D2","midi":38,"time":"510.08","velocity":0.2283464566929134,"duration":"0.02"},{"name":"E3","midi":52,"time":"510.08","velocity":0.5039370078740157,"duration":"0.06"},{"name":"A#6","midi":94,"time":"510.08","velocity":0.2440944881889764,"duration":"0.06"},{"name":"E5","midi":76,"time":"510.10","velocity":0.4094488188976378,"duration":"0.07"},{"name":"G5","midi":79,"time":"510.10","velocity":0.3464566929133858,"duration":"0.05"},{"name":"F6","midi":89,"time":"510.10","velocity":0.1889763779527559,"duration":"0.07"},{"name":"B5","midi":83,"time":"510.12","velocity":0.33858267716535434,"duration":"0.09"},{"name":"D#6","midi":87,"time":"510.12","velocity":0.2440944881889764,"duration":"0.07"},{"name":"B2","midi":47,"time":"510.13","velocity":0.5275590551181102,"duration":"0.05"},{"name":"A#3","midi":58,"time":"510.13","velocity":0.25196850393700787,"duration":"0.02"},{"name":"C#4","midi":61,"time":"510.13","velocity":0.31496062992125984,"duration":"0.05"},{"name":"D5","midi":74,"time":"510.13","velocity":0.33070866141732286,"duration":"0.02"},{"name":"F#5","midi":78,"time":"510.14","velocity":0.2992125984251969,"duration":"0.09"},{"name":"C#6","midi":85,"time":"510.14","velocity":0.33858267716535434,"duration":"0.55"},{"name":"G7","midi":103,"time":"510.14","velocity":0.30708661417322836,"duration":"0.87"},{"name":"C#2","midi":37,"time":"510.15","velocity":0.2283464566929134,"duration":"0.02"},{"name":"F4","midi":65,"time":"510.15","velocity":0.3779527559055118,"duration":"0.02"},{"name":"A#6","midi":94,"time":"510.15","velocity":0.2283464566929134,"duration":"0.05"},{"name":"A#5","midi":82,"time":"510.16","velocity":0.2992125984251969,"duration":"0.02"},{"name":"G6","midi":91,"time":"510.16","velocity":0.2204724409448819,"duration":"0.10"},{"name":"E4","midi":64,"time":"510.17","velocity":0.4251968503937008,"duration":"0.07"},{"name":"A4","midi":69,"time":"510.17","velocity":0.3779527559055118,"duration":"0.05"},{"name":"B4","midi":71,"time":"510.17","velocity":0.2440944881889764,"duration":"0.06"},{"name":"D5","midi":74,"time":"510.17","velocity":0.31496062992125984,"duration":"0.03"},{"name":"G#5","midi":80,"time":"510.17","velocity":0.3543307086614173,"duration":"0.02"},{"name":"C6","midi":84,"time":"510.17","velocity":0.25984251968503935,"duration":"0.06"},{"name":"A3","midi":57,"time":"510.19","velocity":0.4645669291338583,"duration":"0.05"},{"name":"E5","midi":76,"time":"510.19","velocity":0.4566929133858268,"duration":"0.16"},{"name":"A5","midi":81,"time":"510.19","velocity":0.6141732283464567,"duration":"0.12"},{"name":"C7","midi":96,"time":"510.19","velocity":0.29133858267716534,"duration":"0.37"},{"name":"E3","midi":52,"time":"510.20","velocity":0.5039370078740157,"duration":"0.09"},{"name":"D#6","midi":87,"time":"510.20","velocity":0.25196850393700787,"duration":"0.09"},{"name":"A#6","midi":94,"time":"510.21","velocity":0.33070866141732286,"duration":"0.10"},{"name":"G#4","midi":68,"time":"510.22","velocity":0.4566929133858268,"duration":"0.02"},{"name":"C5","midi":72,"time":"510.22","velocity":0.2677165354330709,"duration":"0.02"},{"name":"F#1","midi":30,"time":"510.23","velocity":0.28346456692913385,"duration":"0.03"},{"name":"C4","midi":60,"time":"510.23","velocity":0.3779527559055118,"duration":"0.03"},{"name":"A4","midi":69,"time":"510.24","velocity":0.5511811023622047,"duration":"0.08"},{"name":"C#5","midi":73,"time":"510.24","velocity":0.2283464566929134,"duration":"0.02"},{"name":"B5","midi":83,"time":"510.24","velocity":0.3464566929133858,"duration":"0.12"},{"name":"G#6","midi":92,"time":"510.24","velocity":0.2125984251968504,"duration":"0.06"},{"name":"A3","midi":57,"time":"510.27","velocity":0.4094488188976378,"duration":"0.05"},{"name":"F1","midi":29,"time":"510.28","velocity":0.36220472440944884,"duration":"0.02"},{"name":"C#4","midi":61,"time":"510.28","velocity":0.29133858267716534,"duration":"0.02"},{"name":"G5","midi":79,"time":"510.28","velocity":0.2677165354330709,"duration":"0.03"},{"name":"A#2","midi":46,"time":"510.29","velocity":0.5039370078740157,"duration":"0.02"},{"name":"F#4","midi":66,"time":"510.29","velocity":0.2755905511811024,"duration":"0.02"},{"name":"D5","midi":74,"time":"510.29","velocity":0.2283464566929134,"duration":"0.02"},{"name":"G#5","midi":80,"time":"510.30","velocity":0.5118110236220472,"duration":"0.01"},{"name":"A#5","midi":82,"time":"510.30","velocity":0.2992125984251969,"duration":"0.02"},{"name":"A5","midi":81,"time":"510.31","velocity":0.6299212598425197,"duration":"0.71"},{"name":"F6","midi":89,"time":"510.31","velocity":0.2204724409448819,"duration":"0.07"},{"name":"A#2","midi":46,"time":"510.33","velocity":0.5354330708661418,"duration":"0.02"},{"name":"A3","midi":57,"time":"510.33","velocity":0.25984251968503935,"duration":"0.02"},{"name":"F#4","midi":66,"time":"510.33","velocity":0.33070866141732286,"duration":"0.02"},{"name":"G#4","midi":68,"time":"510.33","velocity":0.33070866141732286,"duration":"0.02"},{"name":"D#5","midi":75,"time":"510.33","velocity":0.28346456692913385,"duration":"0.03"},{"name":"D6","midi":86,"time":"510.33","velocity":0.08661417322834646,"duration":"0.03"},{"name":"G#6","midi":92,"time":"510.33","velocity":0.3543307086614173,"duration":"0.40"},{"name":"G5","midi":79,"time":"510.34","velocity":0.12598425196850394,"duration":"0.03"},{"name":"A2","midi":45,"time":"510.35","velocity":0.5354330708661418,"duration":"0.02"},{"name":"E4","midi":64,"time":"510.35","velocity":0.31496062992125984,"duration":"0.03"},{"name":"F5","midi":77,"time":"510.35","velocity":0.3228346456692913,"duration":"0.07"},{"name":"A#5","midi":82,"time":"510.35","velocity":0.28346456692913385,"duration":"0.02"},{"name":"F#6","midi":90,"time":"510.35","velocity":0.29133858267716534,"duration":"0.23"},{"name":"A4","midi":69,"time":"510.37","velocity":0.5511811023622047,"duration":"0.23"},{"name":"C#5","midi":73,"time":"510.37","velocity":0.33858267716535434,"duration":"0.05"},{"name":"A#6","midi":94,"time":"510.37","velocity":0.1889763779527559,"duration":"0.07"},{"name":"F#4","midi":66,"time":"510.38","velocity":0.30708661417322836,"duration":"0.02"},{"name":"D#5","midi":75,"time":"510.38","velocity":0.30708661417322836,"duration":"0.03"},{"name":"A#5","midi":82,"time":"510.38","velocity":0.33070866141732286,"duration":"0.02"},{"name":"E3","midi":52,"time":"510.41","velocity":0.4015748031496063,"duration":"0.02"},{"name":"F#5","midi":78,"time":"510.41","velocity":0.31496062992125984,"duration":"0.08"},{"name":"C6","midi":84,"time":"510.41","velocity":0.2283464566929134,"duration":"0.03"},{"name":"F7","midi":101,"time":"510.41","velocity":0.3543307086614173,"duration":"0.20"},{"name":"E5","midi":76,"time":"510.42","velocity":0.33070866141732286,"duration":"0.03"},{"name":"G#5","midi":80,"time":"510.42","velocity":0.3464566929133858,"duration":"0.02"},{"name":"C#4","midi":61,"time":"510.43","velocity":0.33858267716535434,"duration":"0.03"},{"name":"C#5","midi":73,"time":"510.43","velocity":0.36220472440944884,"duration":"0.06"},{"name":"D#3","midi":51,"time":"510.44","velocity":0.5275590551181102,"duration":"0.02"},{"name":"G6","midi":91,"time":"510.45","velocity":0.1732283464566929,"duration":"0.03"},{"name":"A#2","midi":46,"time":"510.47","velocity":0.5196850393700787,"duration":"0.01"},{"name":"D#5","midi":75,"time":"510.47","velocity":0.31496062992125984,"duration":"0.03"},{"name":"A#6","midi":94,"time":"510.47","velocity":0.33070866141732286,"duration":"0.05"},{"name":"F#2","midi":42,"time":"510.48","velocity":0.5354330708661418,"duration":"0.01"},{"name":"G5","midi":79,"time":"510.48","velocity":0.30708661417322836,"duration":"0.08"},{"name":"D6","midi":86,"time":"510.48","velocity":0.1889763779527559,"duration":"0.05"},{"name":"G2","midi":43,"time":"510.49","velocity":0.5118110236220472,"duration":"0.01"},{"name":"F#4","midi":66,"time":"510.49","velocity":0.33070866141732286,"duration":"0.03"},{"name":"E5","midi":76,"time":"510.49","velocity":0.4330708661417323,"duration":"0.26"},{"name":"B5","midi":83,"time":"510.49","velocity":0.2992125984251969,"duration":"0.10"},{"name":"F6","midi":89,"time":"510.49","velocity":0.2440944881889764,"duration":"0.03"},{"name":"A2","midi":45,"time":"510.51","velocity":0.5354330708661418,"duration":"0.05"},{"name":"F4","midi":65,"time":"510.52","velocity":0.30708661417322836,"duration":"0.02"},{"name":"D#6","midi":87,"time":"510.52","velocity":0.25984251968503935,"duration":"0.19"},{"name":"F6","midi":89,"time":"510.53","velocity":0.1732283464566929,"duration":"0.06"},{"name":"B3","midi":59,"time":"510.55","velocity":0.2440944881889764,"duration":"0.02"},{"name":"E4","midi":64,"time":"510.55","velocity":0.36220472440944884,"duration":"0.03"},{"name":"C#5","midi":73,"time":"510.55","velocity":0.31496062992125984,"duration":"0.05"},{"name":"G#2","midi":44,"time":"510.56","velocity":0.5511811023622047,"duration":"0.01"},{"name":"A#6","midi":94,"time":"510.56","velocity":0.2992125984251969,"duration":"0.08"},{"name":"A#2","midi":46,"time":"510.57","velocity":0.5118110236220472,"duration":"0.02"},{"name":"C7","midi":96,"time":"510.57","velocity":0.33070866141732286,"duration":"0.19"},{"name":"B4","midi":71,"time":"510.58","velocity":0.28346456692913385,"duration":"0.02"},{"name":"F#5","midi":78,"time":"510.58","velocity":0.2755905511811024,"duration":"0.05"},{"name":"C6","midi":84,"time":"510.58","velocity":0.2440944881889764,"duration":"0.05"},{"name":"D6","midi":86,"time":"510.58","velocity":0.15748031496062992,"duration":"0.06"},{"name":"G6","midi":91,"time":"510.58","velocity":0.2755905511811024,"duration":"0.08"},{"name":"G#2","midi":44,"time":"510.59","velocity":0.5196850393700787,"duration":"0.01"},{"name":"A#3","midi":58,"time":"510.59","velocity":0.3858267716535433,"duration":"0.03"},{"name":"A2","midi":45,"time":"510.60","velocity":0.5275590551181102,"duration":"0.03"},{"name":"F4","midi":65,"time":"510.60","velocity":0.3228346456692913,"duration":"0.05"},{"name":"C5","midi":72,"time":"510.60","velocity":0.2677165354330709,"duration":"0.02"},{"name":"A#5","midi":82,"time":"510.60","velocity":0.3937007874015748,"duration":"0.07"},{"name":"F6","midi":89,"time":"510.60","velocity":0.18110236220472442,"duration":"0.03"},{"name":"F3","midi":53,"time":"510.62","velocity":0.47244094488188976,"duration":"0.03"},{"name":"A4","midi":69,"time":"510.62","velocity":0.44881889763779526,"duration":"0.08"},{"name":"G5","midi":79,"time":"510.62","velocity":0.28346456692913385,"duration":"0.07"},{"name":"F7","midi":101,"time":"510.62","velocity":0.3779527559055118,"duration":"3.44"},{"name":"C#5","midi":73,"time":"510.63","velocity":0.29133858267716534,"duration":"0.09"},{"name":"F#6","midi":90,"time":"510.63","velocity":0.2125984251968504,"duration":"0.15"},{"name":"A#2","midi":46,"time":"510.64","velocity":0.5039370078740157,"duration":"0.03"},{"name":"E3","midi":52,"time":"510.65","velocity":0.4881889763779528,"duration":"0.02"},{"name":"F#4","midi":66,"time":"510.65","velocity":0.3700787401574803,"duration":"0.02"},{"name":"C#4","midi":61,"time":"510.66","velocity":0.3228346456692913,"duration":"0.02"},{"name":"B5","midi":83,"time":"510.66","velocity":0.3937007874015748,"duration":"0.06"},{"name":"F3","midi":53,"time":"510.67","velocity":0.47244094488188976,"duration":"0.03"},{"name":"F2","midi":41,"time":"510.69","velocity":0.4330708661417323,"duration":"0.02"},{"name":"A#4","midi":70,"time":"510.69","velocity":0.3858267716535433,"duration":"0.02"},{"name":"G6","midi":91,"time":"510.69","velocity":0.29133858267716534,"duration":"0.49"},{"name":"A#3","midi":58,"time":"510.70","velocity":0.2125984251968504,"duration":"0.03"},{"name":"C#6","midi":85,"time":"510.70","velocity":0.3228346456692913,"duration":"0.06"},{"name":"A4","midi":69,"time":"510.71","velocity":0.5196850393700787,"duration":"0.53"},{"name":"G5","midi":79,"time":"510.71","velocity":0.3937007874015748,"duration":"0.09"},{"name":"B4","midi":71,"time":"510.72","velocity":0.2204724409448819,"duration":"0.05"},{"name":"D5","midi":74,"time":"510.72","velocity":0.31496062992125984,"duration":"0.02"},{"name":"C6","midi":84,"time":"510.72","velocity":0.28346456692913385,"duration":"0.07"},{"name":"A#6","midi":94,"time":"510.72","velocity":0.25984251968503935,"duration":"0.03"},{"name":"A2","midi":45,"time":"510.73","velocity":0.5196850393700787,"duration":"0.01"},{"name":"C#5","midi":73,"time":"510.73","velocity":0.36220472440944884,"duration":"0.23"},{"name":"D#6","midi":87,"time":"510.73","velocity":0.2283464566929134,"duration":"0.03"},{"name":"G#6","midi":92,"time":"510.73","velocity":0.3228346456692913,"duration":"0.23"},{"name":"E4","midi":64,"time":"510.74","velocity":0.3700787401574803,"duration":"0.02"},{"name":"D#5","midi":75,"time":"510.74","velocity":0.3779527559055118,"duration":"0.02"},{"name":"E5","midi":76,"time":"510.77","velocity":0.4409448818897638,"duration":"0.12"},{"name":"B5","midi":83,"time":"510.77","velocity":0.4251968503937008,"duration":"0.22"},{"name":"D6","midi":86,"time":"510.77","velocity":0.2677165354330709,"duration":"0.13"},{"name":"D#3","midi":51,"time":"510.78","velocity":0.4015748031496063,"duration":"0.02"},{"name":"E4","midi":64,"time":"510.78","velocity":0.33070866141732286,"duration":"0.02"},{"name":"E2","midi":40,"time":"510.79","velocity":0.4645669291338583,"duration":"0.03"},{"name":"B2","midi":47,"time":"510.80","velocity":0.4881889763779528,"duration":"0.03"},{"name":"C#4","midi":61,"time":"510.80","velocity":0.3700787401574803,"duration":"0.02"},{"name":"F#5","midi":78,"time":"510.80","velocity":0.29133858267716534,"duration":"0.05"},{"name":"C7","midi":96,"time":"510.80","velocity":0.33858267716535434,"duration":"0.43"},{"name":"C#6","midi":85,"time":"510.83","velocity":0.3858267716535433,"duration":"0.15"},{"name":"A#6","midi":94,"time":"510.83","velocity":0.23622047244094488,"duration":"0.06"},{"name":"C#4","midi":61,"time":"510.84","velocity":0.33070866141732286,"duration":"0.05"},{"name":"D#6","midi":87,"time":"510.84","velocity":0.25984251968503935,"duration":"0.13"},{"name":"A2","midi":45,"time":"510.85","velocity":0.5039370078740157,"duration":"0.02"},{"name":"E3","midi":52,"time":"510.85","velocity":0.48031496062992124,"duration":"0.07"},{"name":"G#5","midi":80,"time":"510.86","velocity":0.3543307086614173,"duration":"0.02"},{"name":"F4","midi":65,"time":"510.88","velocity":0.2992125984251969,"duration":"0.02"},{"name":"G5","midi":79,"time":"510.88","velocity":0.3464566929133858,"duration":"0.05"},{"name":"F#1","midi":30,"time":"510.91","velocity":0.2992125984251969,"duration":"0.02"},{"name":"A#3","midi":58,"time":"510.91","velocity":0.4251968503937008,"duration":"0.02"},{"name":"E5","midi":76,"time":"510.91","velocity":0.4094488188976378,"duration":"0.29"},{"name":"B2","midi":47,"time":"510.92","velocity":0.5196850393700787,"duration":"0.01"},{"name":"F6","midi":89,"time":"510.92","velocity":0.1889763779527559,"duration":"0.03"},{"name":"A#2","midi":46,"time":"510.93","velocity":0.5433070866141733,"duration":"0.03"},{"name":"F#5","midi":78,"time":"510.93","velocity":0.2204724409448819,"duration":"0.03"},{"name":"D6","midi":86,"time":"510.93","velocity":0.2755905511811024,"duration":"0.08"},{"name":"A#6","midi":94,"time":"510.93","velocity":0.31496062992125984,"duration":"0.08"},{"name":"G1","midi":31,"time":"510.95","velocity":0.3858267716535433,"duration":"0.02"},{"name":"E4","midi":64,"time":"510.97","velocity":0.33858267716535434,"duration":"0.03"},{"name":"A#5","midi":82,"time":"510.97","velocity":0.23622047244094488,"duration":"0.02"},{"name":"A2","midi":45,"time":"510.99","velocity":0.5118110236220472,"duration":"0.01"},{"name":"C#5","midi":73,"time":"510.99","velocity":0.3228346456692913,"duration":"0.10"},{"name":"F#5","midi":78,"time":"510.99","velocity":0.2677165354330709,"duration":"0.03"},{"name":"C6","midi":84,"time":"510.99","velocity":0.2755905511811024,"duration":"0.14"},{"name":"D#6","midi":87,"time":"510.99","velocity":0.2677165354330709,"duration":"0.17"},{"name":"A#2","midi":46,"time":"511.00","velocity":0.47244094488188976,"duration":"0.02"},{"name":"G#6","midi":92,"time":"511.00","velocity":0.36220472440944884,"duration":"0.44"},{"name":"E3","midi":52,"time":"511.01","velocity":0.47244094488188976,"duration":"0.02"},{"name":"G5","midi":79,"time":"511.01","velocity":0.23622047244094488,"duration":"0.03"},{"name":"F1","midi":29,"time":"511.02","velocity":0.3858267716535433,"duration":"0.02"},{"name":"F5","midi":77,"time":"511.02","velocity":0.23622047244094488,"duration":"0.02"},{"name":"A#5","midi":82,"time":"511.02","velocity":0.5196850393700787,"duration":"0.01"},{"name":"F3","midi":53,"time":"511.03","velocity":0.4881889763779528,"duration":"0.02"},{"name":"B3","midi":59,"time":"511.03","velocity":0.4330708661417323,"duration":"0.02"},{"name":"D2","midi":38,"time":"511.05","velocity":0.2755905511811024,"duration":"0.02"},{"name":"F#5","midi":78,"time":"511.05","velocity":0.28346456692913385,"duration":"0.05"},{"name":"F6","midi":89,"time":"511.05","velocity":0.2204724409448819,"duration":"0.10"},{"name":"E3","midi":52,"time":"511.06","velocity":0.4566929133858268,"duration":"0.02"},{"name":"D#4","midi":63,"time":"511.06","velocity":0.28346456692913385,"duration":"0.02"},{"name":"D6","midi":86,"time":"511.06","velocity":0.2440944881889764,"duration":"0.07"},{"name":"A#6","midi":94,"time":"511.06","velocity":0.4094488188976378,"duration":"0.41"},{"name":"A3","midi":57,"time":"511.07","velocity":0.3464566929133858,"duration":"0.03"},{"name":"G4","midi":67,"time":"511.07","velocity":0.2992125984251969,"duration":"0.03"},{"name":"A#5","midi":82,"time":"511.07","velocity":0.2440944881889764,"duration":"0.02"},{"name":"B5","midi":83,"time":"511.07","velocity":0.2125984251968504,"duration":"0.05"},{"name":"C#6","midi":85,"time":"511.07","velocity":0.3543307086614173,"duration":"0.20"},{"name":"B6","midi":95,"time":"511.07","velocity":0.33858267716535434,"duration":"0.09"},{"name":"F3","midi":53,"time":"511.08","velocity":0.3937007874015748,"duration":"0.02"},{"name":"D4","midi":62,"time":"511.08","velocity":0.2440944881889764,"duration":"0.02"},{"name":"C5","midi":72,"time":"511.09","velocity":0.31496062992125984,"duration":"0.02"},{"name":"A5","midi":81,"time":"511.09","velocity":0.6299212598425197,"duration":"0.58"},{"name":"B1","midi":35,"time":"511.10","velocity":0.4330708661417323,"duration":"0.02"},{"name":"E3","midi":52,"time":"511.10","velocity":0.5275590551181102,"duration":"0.05"},{"name":"C#4","midi":61,"time":"511.10","velocity":0.28346456692913385,"duration":"0.03"},{"name":"B4","midi":71,"time":"511.10","velocity":0.29133858267716534,"duration":"0.02"},{"name":"F5","midi":77,"time":"511.10","velocity":0.3228346456692913,"duration":"0.02"},{"name":"C#5","midi":73,"time":"511.12","velocity":0.31496062992125984,"duration":"0.02"},{"name":"F#5","midi":78,"time":"511.13","velocity":0.31496062992125984,"duration":"0.09"},{"name":"B5","midi":83,"time":"511.13","velocity":0.33858267716535434,"duration":"0.03"},{"name":"F#2","midi":42,"time":"511.14","velocity":0.4881889763779528,"duration":"0.02"},{"name":"C#4","midi":61,"time":"511.15","velocity":0.33858267716535434,"duration":"0.03"},{"name":"G#5","midi":80,"time":"511.15","velocity":0.28346456692913385,"duration":"0.02"},{"name":"A#5","midi":82,"time":"511.15","velocity":0.3700787401574803,"duration":"0.02"},{"name":"D6","midi":86,"time":"511.15","velocity":0.2283464566929134,"duration":"0.08"},{"name":"D5","midi":74,"time":"511.16","velocity":0.2992125984251969,"duration":"0.02"},{"name":"E1","midi":28,"time":"511.17","velocity":0.3543307086614173,"duration":"0.02"},{"name":"A3","midi":57,"time":"511.17","velocity":0.4645669291338583,"duration":"0.07"},{"name":"F4","midi":65,"time":"511.17","velocity":0.3937007874015748,"duration":"0.02"},{"name":"G#2","midi":44,"time":"511.19","velocity":0.5275590551181102,"duration":"0.01"},{"name":"C#5","midi":73,"time":"511.20","velocity":0.2283464566929134,"duration":"0.03"},{"name":"B5","midi":83,"time":"511.20","velocity":0.3543307086614173,"duration":"0.15"},{"name":"F6","midi":89,"time":"511.20","velocity":0.2047244094488189,"duration":"0.07"},{"name":"B6","midi":95,"time":"511.20","velocity":0.3779527559055118,"duration":"0.53"},{"name":"G7","midi":103,"time":"511.20","velocity":0.2992125984251969,"duration":"0.10"},{"name":"E5","midi":76,"time":"511.21","velocity":0.4566929133858268,"duration":"0.24"},{"name":"D#3","midi":51,"time":"511.22","velocity":0.4881889763779528,"duration":"0.02"},{"name":"E4","midi":64,"time":"511.22","velocity":0.3779527559055118,"duration":"0.07"},{"name":"D#6","midi":87,"time":"511.22","velocity":0.25196850393700787,"duration":"0.07"},{"name":"G6","midi":91,"time":"511.23","velocity":0.25984251968503935,"duration":"0.06"},{"name":"B2","midi":47,"time":"511.24","velocity":0.5433070866141733,"duration":"0.01"},{"name":"F3","midi":53,"time":"511.24","velocity":0.4566929133858268,"duration":"0.05"},{"name":"G#4","midi":68,"time":"511.24","velocity":0.28346456692913385,"duration":"0.02"},{"name":"C5","midi":72,"time":"511.24","velocity":0.25984251968503935,"duration":"0.02"},{"name":"C7","midi":96,"time":"511.24","velocity":0.29133858267716534,"duration":"0.43"},{"name":"A#2","midi":46,"time":"511.26","velocity":0.5433070866141733,"duration":"0.02"},{"name":"D5","midi":74,"time":"511.26","velocity":0.29133858267716534,"duration":"0.05"},{"name":"F#5","midi":78,"time":"511.26","velocity":0.25984251968503935,"duration":"0.03"},{"name":"G#5","midi":80,"time":"511.26","velocity":0.36220472440944884,"duration":"0.02"},{"name":"C6","midi":84,"time":"511.26","velocity":0.2677165354330709,"duration":"0.02"},{"name":"F#6","midi":90,"time":"511.26","velocity":0.29133858267716534,"duration":"0.10"},{"name":"A4","midi":69,"time":"511.27","velocity":0.3543307086614173,"duration":"0.07"},{"name":"A2","midi":45,"time":"511.28","velocity":0.5275590551181102,"duration":"0.01"},{"name":"C#6","midi":85,"time":"511.28","velocity":0.23622047244094488,"duration":"0.02"},{"name":"G#2","midi":44,"time":"511.29","velocity":0.5354330708661418,"duration":"0.02"},{"name":"F#4","midi":66,"time":"511.29","velocity":0.28346456692913385,"duration":"0.02"},{"name":"C6","midi":84,"time":"511.29","velocity":0.2677165354330709,"duration":"0.02"},{"name":"F6","midi":89,"time":"511.29","velocity":0.23622047244094488,"duration":"0.05"},{"name":"A3","midi":57,"time":"511.30","velocity":0.4645669291338583,"duration":"0.03"},{"name":"C#5","midi":73,"time":"511.30","velocity":0.3700787401574803,"duration":"0.02"},{"name":"C5","midi":72,"time":"511.33","velocity":0.2755905511811024,"duration":"0.02"},{"name":"F#5","midi":78,"time":"511.33","velocity":0.29133858267716534,"duration":"0.05"},{"name":"G7","midi":103,"time":"511.33","velocity":0.2755905511811024,"duration":"0.41"},{"name":"D#3","midi":51,"time":"511.34","velocity":0.5118110236220472,"duration":"0.01"},{"name":"C#5","midi":73,"time":"511.34","velocity":0.3464566929133858,"duration":"0.06"},{"name":"G5","midi":79,"time":"511.34","velocity":0.2283464566929134,"duration":"0.07"},{"name":"E3","midi":52,"time":"511.35","velocity":0.48031496062992124,"duration":"0.02"},{"name":"G4","midi":67,"time":"511.35","velocity":0.3937007874015748,"duration":"0.02"},{"name":"C6","midi":84,"time":"511.35","velocity":0.2440944881889764,"duration":"0.02"},{"name":"G6","midi":91,"time":"511.35","velocity":0.29133858267716534,"duration":"0.05"},{"name":"G#3","midi":56,"time":"511.36","velocity":0.4015748031496063,"duration":"0.02"},{"name":"B5","midi":83,"time":"511.36","velocity":0.3543307086614173,"duration":"0.08"},{"name":"D6","midi":86,"time":"511.36","velocity":0.25984251968503935,"duration":"0.06"},{"name":"F6","midi":89,"time":"511.36","velocity":0.2125984251968504,"duration":"0.06"},{"name":"F#6","midi":90,"time":"511.37","velocity":0.3543307086614173,"duration":"0.28"},{"name":"B2","midi":47,"time":"511.38","velocity":0.4094488188976378,"duration":"0.03"},{"name":"E3","midi":52,"time":"511.38","velocity":0.4566929133858268,"duration":"0.06"},{"name":"A3","midi":57,"time":"511.38","velocity":0.3858267716535433,"duration":"0.02"},{"name":"A4","midi":69,"time":"511.38","velocity":0.44881889763779526,"duration":"0.05"},{"name":"B4","midi":71,"time":"511.38","velocity":0.33858267716535434,"duration":"0.02"},{"name":"D5","midi":74,"time":"511.40","velocity":0.33070866141732286,"duration":"0.03"},{"name":"F5","midi":77,"time":"511.40","velocity":0.25196850393700787,"duration":"0.03"},{"name":"G6","midi":91,"time":"511.41","velocity":0.23622047244094488,"duration":"0.05"},{"name":"F#1","midi":30,"time":"511.42","velocity":0.4094488188976378,"duration":"0.02"},{"name":"A2","midi":45,"time":"511.42","velocity":0.44881889763779526,"duration":"0.03"},{"name":"C#4","midi":61,"time":"511.42","velocity":0.2992125984251969,"duration":"0.03"},{"name":"F4","midi":65,"time":"511.42","velocity":0.33858267716535434,"duration":"0.03"},{"name":"C5","midi":72,"time":"511.42","velocity":0.2992125984251969,"duration":"0.03"},{"name":"G5","midi":79,"time":"511.42","velocity":0.3464566929133858,"duration":"0.02"},{"name":"D#6","midi":87,"time":"511.42","velocity":0.2440944881889764,"duration":"0.10"},{"name":"G#4","midi":68,"time":"511.43","velocity":0.33858267716535434,"duration":"0.02"},{"name":"D6","midi":86,"time":"511.43","velocity":0.18110236220472442,"duration":"0.03"},{"name":"F6","midi":89,"time":"511.44","velocity":0.1968503937007874,"duration":"0.03"},{"name":"G#2","midi":44,"time":"511.45","velocity":0.49606299212598426,"duration":"0.03"},{"name":"E3","midi":52,"time":"511.45","velocity":0.48031496062992124,"duration":"0.03"},{"name":"A3","midi":57,"time":"511.45","velocity":0.3937007874015748,"duration":"0.03"},{"name":"F#4","midi":66,"time":"511.45","velocity":0.29133858267716534,"duration":"0.02"},{"name":"B4","midi":71,"time":"511.45","velocity":0.36220472440944884,"duration":"0.07"},{"name":"D#5","midi":75,"time":"511.45","velocity":0.2992125984251969,"duration":"0.02"},{"name":"G#6","midi":92,"time":"511.45","velocity":0.33858267716535434,"duration":"0.20"},{"name":"C#5","midi":73,"time":"511.47","velocity":0.2440944881889764,"duration":"0.02"},{"name":"E5","midi":76,"time":"511.47","velocity":0.3937007874015748,"duration":"0.05"},{"name":"G#5","midi":80,"time":"511.47","velocity":0.3937007874015748,"duration":"0.03"},{"name":"G6","midi":91,"time":"511.47","velocity":0.23622047244094488,"duration":"0.08"},{"name":"F#5","midi":78,"time":"511.48","velocity":0.23622047244094488,"duration":"0.05"},{"name":"D6","midi":86,"time":"511.48","velocity":0.29133858267716534,"duration":"0.10"},{"name":"A#2","midi":46,"time":"511.49","velocity":0.4881889763779528,"duration":"0.02"},{"name":"F3","midi":53,"time":"511.49","velocity":0.4645669291338583,"duration":"0.03"},{"name":"F6","midi":89,"time":"511.49","velocity":0.2283464566929134,"duration":"0.02"},{"name":"A#6","midi":94,"time":"511.49","velocity":0.2440944881889764,"duration":"0.05"},{"name":"G5","midi":79,"time":"511.50","velocity":0.36220472440944884,"duration":"0.09"},{"name":"C#6","midi":85,"time":"511.50","velocity":0.3464566929133858,"duration":"0.13"},{"name":"B2","midi":47,"time":"511.51","velocity":0.49606299212598426,"duration":"0.02"},{"name":"A4","midi":69,"time":"511.51","velocity":0.3858267716535433,"duration":"0.07"},{"name":"D#5","midi":75,"time":"511.51","velocity":0.2125984251968504,"duration":"0.03"},{"name":"C#5","midi":73,"time":"511.52","velocity":0.4015748031496063,"duration":"0.22"},{"name":"A2","midi":45,"time":"511.53","velocity":0.5590551181102362,"duration":"0.02"},{"name":"F#5","midi":78,"time":"511.53","velocity":0.28346456692913385,"duration":"0.02"},{"name":"E5","midi":76,"time":"511.55","velocity":0.2992125984251969,"duration":"0.06"},{"name":"A#6","midi":94,"time":"511.55","velocity":0.36220472440944884,"duration":"0.14"},{"name":"F4","midi":65,"time":"511.56","velocity":0.33070866141732286,"duration":"0.05"},{"name":"F6","midi":89,"time":"511.56","velocity":0.2755905511811024,"duration":"0.07"},{"name":"G#2","midi":44,"time":"511.57","velocity":0.5433070866141733,"duration":"0.02"},{"name":"C#4","midi":61,"time":"511.58","velocity":0.3779527559055118,"duration":"0.06"},{"name":"C6","midi":84,"time":"511.58","velocity":0.30708661417322836,"duration":"0.05"},{"name":"A2","midi":45,"time":"511.59","velocity":0.5275590551181102,"duration":"0.02"},{"name":"A4","midi":69,"time":"511.59","velocity":0.5118110236220472,"duration":"0.40"},{"name":"D6","midi":86,"time":"511.59","velocity":0.2755905511811024,"duration":"0.06"},{"name":"E4","midi":64,"time":"511.60","velocity":0.33070866141732286,"duration":"0.03"},{"name":"D#5","midi":75,"time":"511.60","velocity":0.2992125984251969,"duration":"0.02"},{"name":"G5","midi":79,"time":"511.60","velocity":0.2755905511811024,"duration":"0.05"},{"name":"G6","midi":91,"time":"511.60","velocity":0.3464566929133858,"duration":"0.14"},{"name":"G#2","midi":44,"time":"511.62","velocity":0.49606299212598426,"duration":"0.02"},{"name":"E3","midi":52,"time":"511.62","velocity":0.4881889763779528,"duration":"0.03"},{"name":"B5","midi":83,"time":"511.62","velocity":0.3700787401574803,"duration":"0.20"},{"name":"E5","midi":76,"time":"511.63","velocity":0.3937007874015748,"duration":"0.07"},{"name":"A2","midi":45,"time":"511.64","velocity":0.5196850393700787,"duration":"0.02"},{"name":"G4","midi":67,"time":"511.64","velocity":0.33858267716535434,"duration":"0.02"},{"name":"G#5","midi":80,"time":"511.65","velocity":0.36220472440944884,"duration":"0.03"},{"name":"D#6","midi":87,"time":"511.65","velocity":0.25196850393700787,"duration":"0.08"},{"name":"G#2","midi":44,"time":"511.66","velocity":0.48031496062992124,"duration":"0.02"},{"name":"F4","midi":65,"time":"511.66","velocity":0.23622047244094488,"duration":"0.02"},{"name":"F#5","midi":78,"time":"511.66","velocity":0.2677165354330709,"duration":"0.09"},{"name":"D6","midi":86,"time":"511.66","velocity":0.2755905511811024,"duration":"0.02"},{"name":"F#6","midi":90,"time":"511.66","velocity":0.3700787401574803,"duration":"0.83"},{"name":"G#6","midi":92,"time":"511.66","velocity":0.3937007874015748,"duration":"0.27"},{"name":"A3","midi":57,"time":"511.67","velocity":0.3464566929133858,"duration":"0.03"},{"name":"C#4","midi":61,"time":"511.67","velocity":0.31496062992125984,"duration":"0.03"},{"name":"A2","midi":45,"time":"511.69","velocity":0.5748031496062992,"duration":"0.06"},{"name":"F#4","midi":66,"time":"511.69","velocity":0.29133858267716534,"duration":"0.02"},{"name":"B4","midi":71,"time":"511.69","velocity":0.3228346456692913,"duration":"0.05"},{"name":"D#5","midi":75,"time":"511.69","velocity":0.2283464566929134,"duration":"0.03"},{"name":"F6","midi":89,"time":"511.69","velocity":0.3464566929133858,"duration":"0.06"},{"name":"C7","midi":96,"time":"511.69","velocity":0.2755905511811024,"duration":"0.33"},{"name":"G5","midi":79,"time":"511.70","velocity":0.2677165354330709,"duration":"0.02"},{"name":"A#5","midi":82,"time":"511.70","velocity":0.4881889763779528,"duration":"0.02"},{"name":"D6","midi":86,"time":"511.70","velocity":0.28346456692913385,"duration":"0.06"},{"name":"F3","midi":53,"time":"511.71","velocity":0.4094488188976378,"duration":"0.02"},{"name":"E5","midi":76,"time":"511.71","velocity":0.2047244094488189,"duration":"0.03"},{"name":"F#4","midi":66,"time":"511.72","velocity":0.3228346456692913,"duration":"0.02"},{"name":"A5","midi":81,"time":"511.72","velocity":0.6456692913385826,"duration":"0.31"},{"name":"G4","midi":67,"time":"511.74","velocity":0.29133858267716534,"duration":"0.02"},{"name":"D5","midi":74,"time":"511.74","velocity":0.3228346456692913,"duration":"0.02"},{"name":"G7","midi":103,"time":"511.74","velocity":0.2677165354330709,"duration":"0.29"},{"name":"C#4","midi":61,"time":"511.76","velocity":0.3543307086614173,"duration":"0.03"},{"name":"E4","midi":64,"time":"511.76","velocity":0.33858267716535434,"duration":"0.03"},{"name":"E5","midi":76,"time":"511.76","velocity":0.4566929133858268,"duration":"0.14"},{"name":"G5","midi":79,"time":"511.76","velocity":0.3228346456692913,"duration":"0.05"},{"name":"D#6","midi":87,"time":"511.76","velocity":0.1968503937007874,"duration":"0.03"},{"name":"A3","midi":57,"time":"511.77","velocity":0.4094488188976378,"duration":"0.07"},{"name":"G6","midi":91,"time":"511.77","velocity":0.3700787401574803,"duration":"0.07"},{"name":"D6","midi":86,"time":"511.78","velocity":0.25196850393700787,"duration":"0.09"},{"name":"A2","midi":45,"time":"511.79","velocity":0.5669291338582677,"duration":"0.01"},{"name":"D4","midi":62,"time":"511.79","velocity":0.3543307086614173,"duration":"0.02"},{"name":"F#4","midi":66,"time":"511.79","velocity":0.29133858267716534,"duration":"0.03"},{"name":"F#5","midi":78,"time":"511.79","velocity":0.2992125984251969,"duration":"0.02"},{"name":"C6","midi":84,"time":"511.79","velocity":0.31496062992125984,"duration":"0.12"},{"name":"A#6","midi":94,"time":"511.79","velocity":0.3464566929133858,"duration":"0.23"},{"name":"B2","midi":47,"time":"511.80","velocity":0.5590551181102362,"duration":"0.01"},{"name":"A#2","midi":46,"time":"511.81","velocity":0.5511811023622047,"duration":"0.01"},{"name":"D#4","midi":63,"time":"511.81","velocity":0.31496062992125984,"duration":"0.02"},{"name":"G5","midi":79,"time":"511.81","velocity":0.28346456692913385,"duration":"0.02"},{"name":"D#6","midi":87,"time":"511.81","velocity":0.2283464566929134,"duration":"0.28"},{"name":"F6","midi":89,"time":"511.81","velocity":0.3228346456692913,"duration":"0.09"},{"name":"A2","midi":45,"time":"511.83","velocity":0.5196850393700787,"duration":"0.01"},{"name":"B4","midi":71,"time":"511.83","velocity":0.31496062992125984,"duration":"0.06"},{"name":"G#2","midi":44,"time":"511.84","velocity":0.4094488188976378,"duration":"0.02"},{"name":"F#5","midi":78,"time":"511.84","velocity":0.30708661417322836,"duration":"0.07"},{"name":"G5","midi":79,"time":"511.85","velocity":0.29133858267716534,"duration":"0.03"},{"name":"B5","midi":83,"time":"511.85","velocity":0.3700787401574803,"duration":"0.30"},{"name":"C#4","midi":61,"time":"511.86","velocity":0.3779527559055118,"duration":"0.05"},{"name":"E4","midi":64,"time":"511.86","velocity":0.3228346456692913,"duration":"0.06"},{"name":"F3","midi":53,"time":"511.87","velocity":0.49606299212598426,"duration":"0.02"},{"name":"D6","midi":86,"time":"511.88","velocity":0.2440944881889764,"duration":"0.03"},{"name":"E3","midi":52,"time":"511.90","velocity":0.5354330708661418,"duration":"0.10"},{"name":"F5","midi":77,"time":"511.90","velocity":0.3228346456692913,"duration":"0.03"},{"name":"G6","midi":91,"time":"511.90","velocity":0.29133858267716534,"duration":"0.02"},{"name":"E5","midi":76,"time":"511.91","velocity":0.4409448818897638,"duration":"0.10"},{"name":"C#6","midi":85,"time":"511.91","velocity":0.3543307086614173,"duration":"0.12"},{"name":"C#5","midi":73,"time":"511.92","velocity":0.31496062992125984,"duration":"0.17"},{"name":"G2","midi":43,"time":"511.93","velocity":0.3858267716535433,"duration":"0.02"},{"name":"C#4","midi":61,"time":"511.93","velocity":0.3464566929133858,"duration":"0.02"},{"name":"G5","midi":79,"time":"511.93","velocity":0.2677165354330709,"duration":"0.03"},{"name":"G#6","midi":92,"time":"511.94","velocity":0.3779527559055118,"duration":"0.17"},{"name":"F#5","midi":78,"time":"511.95","velocity":0.3464566929133858,"duration":"0.08"},{"name":"A#5","midi":82,"time":"511.95","velocity":0.4881889763779528,"duration":"0.02"},{"name":"A3","midi":57,"time":"511.97","velocity":0.36220472440944884,"duration":"0.02"},{"name":"F6","midi":89,"time":"511.97","velocity":0.33858267716535434,"duration":"0.07"},{"name":"G#5","midi":80,"time":"511.98","velocity":0.31496062992125984,"duration":"0.02"},{"name":"F4","midi":65,"time":"511.99","velocity":0.2677165354330709,"duration":"0.02"},{"name":"G#4","midi":68,"time":"511.99","velocity":0.31496062992125984,"duration":"0.02"},{"name":"D#3","midi":51,"time":"512.00","velocity":0.5590551181102362,"duration":"0.01"},{"name":"G6","midi":91,"time":"512.00","velocity":0.25196850393700787,"duration":"0.07"},{"name":"E4","midi":64,"time":"512.01","velocity":0.36220472440944884,"duration":"0.03"},{"name":"D#5","midi":75,"time":"512.01","velocity":0.2677165354330709,"duration":"0.03"},{"name":"D6","midi":86,"time":"512.01","velocity":0.29133858267716534,"duration":"0.03"},{"name":"G5","midi":79,"time":"512.02","velocity":0.3543307086614173,"duration":"0.03"},{"name":"A#5","midi":82,"time":"512.02","velocity":0.36220472440944884,"duration":"0.03"},{"name":"C7","midi":96,"time":"512.02","velocity":0.2755905511811024,"duration":"0.50"},{"name":"A4","midi":69,"time":"512.03","velocity":0.3937007874015748,"duration":"0.08"},{"name":"G#5","midi":80,"time":"512.03","velocity":0.44881889763779526,"duration":"0.03"},{"name":"A2","midi":45,"time":"512.05","velocity":0.49606299212598426,"duration":"0.02"},{"name":"F6","midi":89,"time":"512.05","velocity":0.3858267716535433,"duration":"0.06"},{"name":"F3","midi":53,"time":"512.06","velocity":0.3937007874015748,"duration":"0.02"},{"name":"E4","midi":64,"time":"512.06","velocity":0.36220472440944884,"duration":"0.06"},{"name":"A5","midi":81,"time":"512.06","velocity":0.6299212598425197,"duration":"0.13"},{"name":"G#2","midi":44,"time":"512.07","velocity":0.5275590551181102,"duration":"0.01"},{"name":"G4","midi":67,"time":"512.08","velocity":0.3700787401574803,"duration":"0.06"},{"name":"B4","midi":71,"time":"512.08","velocity":0.29133858267716534,"duration":"0.02"},{"name":"D#5","midi":75,"time":"512.08","velocity":0.25196850393700787,"duration":"0.02"},{"name":"E6","midi":88,"time":"512.08","velocity":0.4881889763779528,"duration":"0.29"},{"name":"F#5","midi":78,"time":"512.09","velocity":0.2677165354330709,"duration":"0.02"},{"name":"D6","midi":86,"time":"512.09","velocity":0.2992125984251969,"duration":"0.09"},{"name":"G6","midi":91,"time":"512.09","velocity":0.29133858267716534,"duration":"0.08"},{"name":"A2","midi":45,"time":"512.10","velocity":0.5118110236220472,"duration":"0.01"},{"name":"F3","midi":53,"time":"512.10","velocity":0.3779527559055118,"duration":"0.02"},{"name":"A#3","midi":58,"time":"512.10","velocity":0.3858267716535433,"duration":"0.02"},{"name":"F5","midi":77,"time":"512.10","velocity":0.23622047244094488,"duration":"0.02"},{"name":"G#5","midi":80,"time":"512.10","velocity":0.31496062992125984,"duration":"0.03"},{"name":"G#2","midi":44,"time":"512.12","velocity":0.5275590551181102,"duration":"0.01"},{"name":"F6","midi":89,"time":"512.12","velocity":0.4094488188976378,"duration":"0.12"},{"name":"E3","midi":52,"time":"512.13","velocity":0.5669291338582677,"duration":"0.07"},{"name":"A4","midi":69,"time":"512.13","velocity":0.3543307086614173,"duration":"0.02"},{"name":"E5","midi":76,"time":"512.13","velocity":0.3937007874015748,"duration":"0.06"},{"name":"G#6","midi":92,"time":"512.13","velocity":0.36220472440944884,"duration":"0.12"},{"name":"F#1","midi":30,"time":"512.14","velocity":0.4409448818897638,"duration":"0.02"},{"name":"C#5","midi":73,"time":"512.14","velocity":0.3779527559055118,"duration":"0.09"},{"name":"G5","midi":79,"time":"512.14","velocity":0.3543307086614173,"duration":"0.03"},{"name":"C6","midi":84,"time":"512.15","velocity":0.2755905511811024,"duration":"0.02"},{"name":"F4","midi":65,"time":"512.16","velocity":0.2677165354330709,"duration":"0.02"},{"name":"A4","midi":69,"time":"512.16","velocity":0.4015748031496063,"duration":"0.07"},{"name":"G7","midi":103,"time":"512.16","velocity":0.2992125984251969,"duration":"0.66"},{"name":"D#5","midi":75,"time":"512.17","velocity":0.3464566929133858,"duration":"0.03"},{"name":"B5","midi":83,"time":"512.17","velocity":0.4409448818897638,"duration":"0.05"},{"name":"D4","midi":62,"time":"512.19","velocity":0.29133858267716534,"duration":"0.02"},{"name":"B4","midi":71,"time":"512.19","velocity":0.25984251968503935,"duration":"0.03"},{"name":"G5","midi":79,"time":"512.19","velocity":0.3228346456692913,"duration":"0.03"},{"name":"F3","midi":53,"time":"512.20","velocity":0.5433070866141733,"duration":"0.01"},{"name":"A5","midi":81,"time":"512.20","velocity":0.6377952755905512,"duration":"0.15"},{"name":"D6","midi":86,"time":"512.20","velocity":0.30708661417322836,"duration":"0.03"},{"name":"F2","midi":41,"time":"512.21","velocity":0.48031496062992124,"duration":"0.03"},{"name":"E3","midi":52,"time":"512.21","velocity":0.5275590551181102,"duration":"0.01"},{"name":"E5","midi":76,"time":"512.21","velocity":0.3937007874015748,"duration":"0.13"},{"name":"C6","midi":84,"time":"512.21","velocity":0.28346456692913385,"duration":"0.02"},{"name":"D#3","midi":51,"time":"512.22","velocity":0.5118110236220472,"duration":"0.01"},{"name":"A3","midi":57,"time":"512.22","velocity":0.3464566929133858,"duration":"0.05"},{"name":"E3","midi":52,"time":"512.23","velocity":0.3937007874015748,"duration":"0.02"},{"name":"B4","midi":71,"time":"512.23","velocity":0.23622047244094488,"duration":"0.02"},{"name":"D5","midi":74,"time":"512.23","velocity":0.30708661417322836,"duration":"0.02"},{"name":"F5","midi":77,"time":"512.23","velocity":0.23622047244094488,"duration":"0.03"},{"name":"G5","midi":79,"time":"512.23","velocity":0.2440944881889764,"duration":"0.03"},{"name":"B5","midi":83,"time":"512.23","velocity":0.3700787401574803,"duration":"0.13"},{"name":"G#2","midi":44,"time":"512.24","velocity":0.5511811023622047,"duration":"0.01"},{"name":"A4","midi":69,"time":"512.24","velocity":0.3464566929133858,"duration":"0.03"},{"name":"A2","midi":45,"time":"512.26","velocity":0.5590551181102362,"duration":"0.03"},{"name":"G4","midi":67,"time":"512.26","velocity":0.3779527559055118,"duration":"0.03"},{"name":"C5","midi":72,"time":"512.26","velocity":0.1732283464566929,"duration":"0.03"},{"name":"D5","midi":74,"time":"512.27","velocity":0.25196850393700787,"duration":"0.03"},{"name":"C#6","midi":85,"time":"512.27","velocity":0.25196850393700787,"duration":"0.03"},{"name":"G#6","midi":92,"time":"512.27","velocity":0.4015748031496063,"duration":"0.16"},{"name":"E3","midi":52,"time":"512.28","velocity":0.3700787401574803,"duration":"0.02"},{"name":"F#5","midi":78,"time":"512.28","velocity":0.29133858267716534,"duration":"0.05"},{"name":"G#2","midi":44,"time":"512.29","velocity":0.5196850393700787,"duration":"0.01"},{"name":"A4","midi":69,"time":"512.29","velocity":0.3543307086614173,"duration":"0.05"},{"name":"D#6","midi":87,"time":"512.29","velocity":0.1732283464566929,"duration":"0.05"},{"name":"B4","midi":71,"time":"512.30","velocity":0.30708661417322836,"duration":"0.02"},{"name":"D6","midi":86,"time":"512.30","velocity":0.25984251968503935,"duration":"0.03"},{"name":"F6","midi":89,"time":"512.30","velocity":0.3464566929133858,"duration":"0.09"},{"name":"E4","midi":64,"time":"512.31","velocity":0.28346456692913385,"duration":"0.03"},{"name":"G#4","midi":68,"time":"512.31","velocity":0.2992125984251969,"duration":"0.02"},{"name":"C#5","midi":73,"time":"512.31","velocity":0.23622047244094488,"duration":"0.05"},{"name":"C6","midi":84,"time":"512.31","velocity":0.2755905511811024,"duration":"0.06"},{"name":"C#6","midi":85,"time":"512.31","velocity":0.3779527559055118,"duration":"0.43"},{"name":"E3","midi":52,"time":"512.33","velocity":0.5039370078740157,"duration":"0.03"},{"name":"C#4","midi":61,"time":"512.33","velocity":0.3858267716535433,"duration":"0.05"},{"name":"F5","midi":77,"time":"512.33","velocity":0.30708661417322836,"duration":"0.02"},{"name":"A3","midi":57,"time":"512.34","velocity":0.49606299212598426,"duration":"0.02"},{"name":"G4","midi":67,"time":"512.34","velocity":0.2440944881889764,"duration":"0.02"},{"name":"F#5","midi":78,"time":"512.34","velocity":0.31496062992125984,"duration":"0.06"},{"name":"E5","midi":76,"time":"512.35","velocity":0.2755905511811024,"duration":"0.02"},{"name":"A#5","midi":82,"time":"512.35","velocity":0.4015748031496063,"duration":"0.02"},{"name":"D#6","midi":87,"time":"512.35","velocity":0.23622047244094488,"duration":"0.05"},{"name":"F3","midi":53,"time":"512.36","velocity":0.5275590551181102,"duration":"0.02"},{"name":"A#4","midi":70,"time":"512.36","velocity":0.33070866141732286,"duration":"0.02"},{"name":"A5","midi":81,"time":"512.36","velocity":0.6377952755905512,"duration":"0.40"},{"name":"D4","midi":62,"time":"512.37","velocity":0.3543307086614173,"duration":"0.02"},{"name":"D#5","midi":75,"time":"512.37","velocity":0.33070866141732286,"duration":"0.03"},{"name":"B5","midi":83,"time":"512.37","velocity":0.41732283464566927,"duration":"0.20"},{"name":"A4","midi":69,"time":"512.38","velocity":0.31496062992125984,"duration":"0.03"},{"name":"C#5","midi":73,"time":"512.38","velocity":0.29133858267716534,"duration":"0.05"},{"name":"E5","midi":76,"time":"512.38","velocity":0.3858267716535433,"duration":"0.07"},{"name":"G5","midi":79,"time":"512.38","velocity":0.3543307086614173,"duration":"0.21"},{"name":"D6","midi":86,"time":"512.38","velocity":0.25984251968503935,"duration":"0.06"},{"name":"D#3","midi":51,"time":"512.40","velocity":0.5196850393700787,"duration":"0.01"},{"name":"F4","midi":65,"time":"512.40","velocity":0.3464566929133858,"duration":"0.02"},{"name":"C5","midi":72,"time":"512.40","velocity":0.3543307086614173,"duration":"0.06"},{"name":"C3","midi":48,"time":"512.41","velocity":0.5118110236220472,"duration":"0.01"},{"name":"C#7","midi":97,"time":"512.41","velocity":0.4094488188976378,"duration":"1.26"},{"name":"B2","midi":47,"time":"512.42","velocity":0.5118110236220472,"duration":"0.01"},{"name":"F3","midi":53,"time":"512.42","velocity":0.4645669291338583,"duration":"0.02"},{"name":"C#4","midi":61,"time":"512.43","velocity":0.25196850393700787,"duration":"0.03"},{"name":"A4","midi":69,"time":"512.43","velocity":0.3464566929133858,"duration":"0.08"},{"name":"F6","midi":89,"time":"512.43","velocity":0.3228346456692913,"duration":"0.12"},{"name":"F#4","midi":66,"time":"512.44","velocity":0.2047244094488189,"duration":"0.03"},{"name":"C#5","midi":73,"time":"512.44","velocity":0.36220472440944884,"duration":"0.05"},{"name":"D#6","midi":87,"time":"512.44","velocity":0.25984251968503935,"duration":"0.10"},{"name":"G#6","midi":92,"time":"512.44","velocity":0.3937007874015748,"duration":"0.64"},{"name":"D#3","midi":51,"time":"512.45","velocity":0.5433070866141733,"duration":"0.01"},{"name":"D#5","midi":75,"time":"512.45","velocity":0.33070866141732286,"duration":"0.06"},{"name":"F5","midi":77,"time":"512.45","velocity":0.2677165354330709,"duration":"0.02"},{"name":"G#5","midi":80,"time":"512.45","velocity":0.25196850393700787,"duration":"0.02"},{"name":"D6","midi":86,"time":"512.45","velocity":0.25984251968503935,"duration":"0.08"},{"name":"A#2","midi":46,"time":"512.48","velocity":0.5275590551181102,"duration":"0.02"},{"name":"E6","midi":88,"time":"512.48","velocity":0.3858267716535433,"duration":"0.23"},{"name":"E5","midi":76,"time":"512.49","velocity":0.4251968503937008,"duration":"0.15"},{"name":"C6","midi":84,"time":"512.49","velocity":0.16535433070866143,"duration":"0.03"},{"name":"B2","midi":47,"time":"512.50","velocity":0.5354330708661418,"duration":"0.01"},{"name":"A3","midi":57,"time":"512.50","velocity":0.4094488188976378,"duration":"0.02"},{"name":"D4","midi":62,"time":"512.50","velocity":0.30708661417322836,"duration":"0.02"},{"name":"F4","midi":65,"time":"512.50","velocity":0.2755905511811024,"duration":"0.02"},{"name":"A2","midi":45,"time":"512.51","velocity":0.5118110236220472,"duration":"0.01"},{"name":"F#6","midi":90,"time":"512.51","velocity":0.33070866141732286,"duration":"0.12"},{"name":"E4","midi":64,"time":"512.52","velocity":0.3779527559055118,"duration":"0.05"},{"name":"A4","midi":69,"time":"512.52","velocity":0.31496062992125984,"duration":"0.02"},{"name":"C3","midi":48,"time":"512.53","velocity":0.5590551181102362,"duration":"0.02"},{"name":"C5","midi":72,"time":"512.53","velocity":0.30708661417322836,"duration":"0.03"},{"name":"C7","midi":96,"time":"512.53","velocity":0.3543307086614173,"duration":"1.45"},{"name":"G4","midi":67,"time":"512.55","velocity":0.3543307086614173,"duration":"0.02"},{"name":"D6","midi":86,"time":"512.55","velocity":0.1889763779527559,"duration":"0.03"},{"name":"A#2","midi":46,"time":"512.56","velocity":0.5118110236220472,"duration":"0.01"},{"name":"A4","midi":69,"time":"512.56","velocity":0.48031496062992124,"duration":"0.07"},{"name":"D#6","midi":87,"time":"512.56","velocity":0.2677165354330709,"duration":"0.05"},{"name":"F#2","midi":42,"time":"512.57","velocity":0.4409448818897638,"duration":"0.02"},{"name":"D4","midi":62,"time":"512.57","velocity":0.25196850393700787,"duration":"0.02"},{"name":"F4","midi":65,"time":"512.57","velocity":0.3543307086614173,"duration":"0.06"},{"name":"F#5","midi":78,"time":"512.57","velocity":0.3228346456692913,"duration":"0.06"},{"name":"C6","midi":84,"time":"512.57","velocity":0.31496062992125984,"duration":"0.05"},{"name":"B5","midi":83,"time":"512.58","velocity":0.3937007874015748,"duration":"0.35"},{"name":"D#7","midi":99,"time":"512.58","velocity":0.2677165354330709,"duration":"0.15"},{"name":"C#4","midi":61,"time":"512.59","velocity":0.3464566929133858,"duration":"0.02"},{"name":"D5","midi":74,"time":"512.59","velocity":0.25196850393700787,"duration":"0.02"},{"name":"D6","midi":86,"time":"512.59","velocity":0.2755905511811024,"duration":"0.05"},{"name":"F6","midi":89,"time":"512.60","velocity":0.2047244094488189,"duration":"0.07"},{"name":"A#2","midi":46,"time":"512.62","velocity":0.5118110236220472,"duration":"0.01"},{"name":"C#5","midi":73,"time":"512.62","velocity":0.2283464566929134,"duration":"0.03"},{"name":"A2","midi":45,"time":"512.63","velocity":0.5511811023622047,"duration":"0.05"},{"name":"E4","midi":64,"time":"512.63","velocity":0.3700787401574803,"duration":"0.03"},{"name":"B4","midi":71,"time":"512.63","velocity":0.36220472440944884,"duration":"0.02"},{"name":"D#5","midi":75,"time":"512.63","velocity":0.31496062992125984,"duration":"0.02"},{"name":"G5","midi":79,"time":"512.63","velocity":0.25984251968503935,"duration":"0.03"},{"name":"A4","midi":69,"time":"512.64","velocity":0.5196850393700787,"duration":"0.56"},{"name":"F#6","midi":90,"time":"512.64","velocity":0.3228346456692913,"duration":"0.30"},{"name":"E3","midi":52,"time":"512.65","velocity":0.5196850393700787,"duration":"0.01"},{"name":"E5","midi":76,"time":"512.65","velocity":0.4251968503937008,"duration":"0.12"},{"name":"D6","midi":86,"time":"512.65","velocity":0.29133858267716534,"duration":"0.07"},{"name":"F3","midi":53,"time":"512.66","velocity":0.5196850393700787,"duration":"0.01"},{"name":"B3","midi":59,"time":"512.66","velocity":0.31496062992125984,"duration":"0.02"},{"name":"C#5","midi":73,"time":"512.66","velocity":0.3700787401574803,"duration":"0.03"},{"name":"C4","midi":60,"time":"512.69","velocity":0.4015748031496063,"duration":"0.02"},{"name":"C#3","midi":49,"time":"512.71","velocity":0.5275590551181102,"duration":"0.01"},{"name":"C#5","midi":73,"time":"512.71","velocity":0.30708661417322836,"duration":"0.08"},{"name":"F#5","midi":78,"time":"512.71","velocity":0.31496062992125984,"duration":"0.02"},{"name":"D#6","midi":87,"time":"512.71","velocity":0.23622047244094488,"duration":"0.23"},{"name":"F6","midi":89,"time":"512.71","velocity":0.18110236220472442,"duration":"0.03"},{"name":"G6","midi":91,"time":"512.71","velocity":0.1732283464566929,"duration":"0.06"},{"name":"A2","midi":45,"time":"512.72","velocity":0.5511811023622047,"duration":"0.01"},{"name":"G2","midi":43,"time":"512.73","velocity":0.48031496062992124,"duration":"0.02"},{"name":"G5","midi":79,"time":"512.73","velocity":0.29133858267716534,"duration":"0.02"},{"name":"C6","midi":84,"time":"512.73","velocity":0.2204724409448819,"duration":"0.03"},{"name":"D6","midi":86,"time":"512.73","velocity":0.1968503937007874,"duration":"0.03"},{"name":"A#6","midi":94,"time":"512.73","velocity":0.3779527559055118,"duration":"0.29"},{"name":"D#5","midi":75,"time":"512.74","velocity":0.2992125984251969,"duration":"0.10"},{"name":"F#5","midi":78,"time":"512.74","velocity":0.25196850393700787,"duration":"0.02"},{"name":"A#5","midi":82,"time":"512.74","velocity":0.44881889763779526,"duration":"0.02"},{"name":"D#7","midi":99,"time":"512.74","velocity":0.29133858267716534,"duration":"0.40"},{"name":"A2","midi":45,"time":"512.76","velocity":0.41732283464566927,"duration":"0.03"},{"name":"C4","midi":60,"time":"512.76","velocity":0.4094488188976378,"duration":"0.03"},{"name":"C#6","midi":85,"time":"512.76","velocity":0.31496062992125984,"duration":"0.02"},{"name":"F5","midi":77,"time":"512.77","velocity":0.29133858267716534,"duration":"0.06"},{"name":"G5","midi":79,"time":"512.77","velocity":0.31496062992125984,"duration":"0.03"},{"name":"A5","midi":81,"time":"512.77","velocity":0.6377952755905512,"duration":"1.23"},{"name":"E4","midi":64,"time":"512.78","velocity":0.30708661417322836,"duration":"0.02"},{"name":"C6","midi":84,"time":"512.78","velocity":0.28346456692913385,"duration":"0.09"},{"name":"D6","midi":86,"time":"512.78","velocity":0.29133858267716534,"duration":"0.06"},{"name":"D3","midi":50,"time":"512.80","velocity":0.5275590551181102,"duration":"0.03"},{"name":"C5","midi":72,"time":"512.80","velocity":0.3228346456692913,"duration":"0.02"},{"name":"F#5","midi":78,"time":"512.80","velocity":0.2755905511811024,"duration":"0.03"},{"name":"G6","midi":91,"time":"512.80","velocity":0.13385826771653545,"duration":"0.03"},{"name":"F2","midi":41,"time":"512.83","velocity":0.47244094488188976,"duration":"0.03"},{"name":"F4","midi":65,"time":"512.83","velocity":0.4015748031496063,"duration":"0.02"},{"name":"E5","midi":76,"time":"512.83","velocity":0.3858267716535433,"duration":"0.12"},{"name":"G#5","midi":80,"time":"512.83","velocity":0.2992125984251969,"duration":"0.03"},{"name":"B4","midi":71,"time":"512.84","velocity":0.2992125984251969,"duration":"0.02"},{"name":"G5","midi":79,"time":"512.84","velocity":0.33070866141732286,"duration":"0.06"},{"name":"G7","midi":103,"time":"512.84","velocity":0.12598425196850394,"duration":"0.05"},{"name":"C4","midi":60,"time":"512.85","velocity":0.4330708661417323,"duration":"0.03"},{"name":"D5","midi":74,"time":"512.85","velocity":0.31496062992125984,"duration":"0.03"},{"name":"A#2","midi":46,"time":"512.86","velocity":0.5039370078740157,"duration":"0.02"},{"name":"C#6","midi":85,"time":"512.86","velocity":0.2992125984251969,"duration":"0.03"},{"name":"G#1","midi":32,"time":"512.87","velocity":0.36220472440944884,"duration":"0.02"},{"name":"E4","midi":64,"time":"512.87","velocity":0.3543307086614173,"duration":"0.02"},{"name":"C#5","midi":73,"time":"512.87","velocity":0.23622047244094488,"duration":"0.06"},{"name":"G#5","midi":80,"time":"512.87","velocity":0.4015748031496063,"duration":"0.02"},{"name":"A2","midi":45,"time":"512.88","velocity":0.5433070866141733,"duration":"0.01"},{"name":"B4","midi":71,"time":"512.88","velocity":0.29133858267716534,"duration":"0.02"},{"name":"C6","midi":84,"time":"512.88","velocity":0.25984251968503935,"duration":"0.02"},{"name":"A#2","midi":46,"time":"512.90","velocity":0.5196850393700787,"duration":"0.01"},{"name":"F5","midi":77,"time":"512.90","velocity":0.2283464566929134,"duration":"0.08"},{"name":"B2","midi":47,"time":"512.91","velocity":0.5196850393700787,"duration":"0.01"},{"name":"C4","midi":60,"time":"512.91","velocity":0.3858267716535433,"duration":"0.03"},{"name":"G5","midi":79,"time":"512.91","velocity":0.30708661417322836,"duration":"0.07"},{"name":"C#6","midi":85,"time":"512.91","velocity":0.3464566929133858,"duration":"0.17"},{"name":"D6","midi":86,"time":"512.91","velocity":0.14960629921259844,"duration":"0.05"},{"name":"F6","midi":89,"time":"512.91","velocity":0.2755905511811024,"duration":"0.15"},{"name":"E4","midi":64,"time":"512.92","velocity":0.36220472440944884,"duration":"0.08"},{"name":"B4","midi":71,"time":"512.92","velocity":0.36220472440944884,"duration":"0.06"},{"name":"C6","midi":84,"time":"512.92","velocity":0.2204724409448819,"duration":"0.06"},{"name":"A2","midi":45,"time":"512.93","velocity":0.5433070866141733,"duration":"0.02"},{"name":"G4","midi":67,"time":"512.93","velocity":0.28346456692913385,"duration":"0.02"},{"name":"B3","midi":59,"time":"512.95","velocity":0.2992125984251969,"duration":"0.02"},{"name":"D#5","midi":75,"time":"512.95","velocity":0.29133858267716534,"duration":"0.02"},{"name":"F#6","midi":90,"time":"512.95","velocity":0.1968503937007874,"duration":"0.05"},{"name":"D#3","midi":51,"time":"512.97","velocity":0.3858267716535433,"duration":"0.02"},{"name":"G2","midi":43,"time":"512.98","velocity":0.5433070866141733,"duration":"0.02"},{"name":"C#5","midi":73,"time":"512.98","velocity":0.28346456692913385,"duration":"0.02"},{"name":"E5","midi":76,"time":"512.98","velocity":0.3937007874015748,"duration":"0.08"},{"name":"B6","midi":95,"time":"512.98","velocity":0.30708661417322836,"duration":"0.26"},{"name":"C#4","midi":61,"time":"512.99","velocity":0.3700787401574803,"duration":"0.02"},{"name":"D#6","midi":87,"time":"512.99","velocity":0.2677165354330709,"duration":"0.06"},{"name":"G#2","midi":44,"time":"513.00","velocity":0.5433070866141733,"duration":"0.01"},{"name":"F#5","midi":78,"time":"513.00","velocity":0.25196850393700787,"duration":"0.05"},{"name":"G#5","midi":80,"time":"513.00","velocity":0.3779527559055118,"duration":"0.02"},{"name":"A2","midi":45,"time":"513.01","velocity":0.49606299212598426,"duration":"0.05"},{"name":"D4","midi":62,"time":"513.01","velocity":0.36220472440944884,"duration":"0.03"},{"name":"B4","midi":71,"time":"513.01","velocity":0.33858267716535434,"duration":"0.03"},{"name":"C6","midi":84,"time":"513.01","velocity":0.23622047244094488,"duration":"0.03"},{"name":"D#3","midi":51,"time":"513.02","velocity":0.3858267716535433,"duration":"0.02"},{"name":"A#5","midi":82,"time":"513.02","velocity":0.30708661417322836,"duration":"0.02"},{"name":"D1","midi":26,"time":"513.03","velocity":0.3464566929133858,"duration":"0.02"},{"name":"E4","midi":64,"time":"513.03","velocity":0.28346456692913385,"duration":"0.02"},{"name":"B5","midi":83,"time":"513.03","velocity":0.36220472440944884,"duration":"0.12"},{"name":"F#4","midi":66,"time":"513.05","velocity":0.3543307086614173,"duration":"0.03"},{"name":"G5","midi":79,"time":"513.05","velocity":0.25196850393700787,"duration":"0.03"},{"name":"F#6","midi":90,"time":"513.05","velocity":0.1889763779527559,"duration":"0.09"},{"name":"G#2","midi":44,"time":"513.06","velocity":0.5354330708661418,"duration":"0.03"},{"name":"B4","midi":71,"time":"513.06","velocity":0.36220472440944884,"duration":"0.12"},{"name":"C#5","midi":73,"time":"513.06","velocity":0.33858267716535434,"duration":"0.15"},{"name":"D#5","midi":75,"time":"513.06","velocity":0.28346456692913385,"duration":"0.02"},{"name":"D#3","midi":51,"time":"513.07","velocity":0.5196850393700787,"duration":"0.01"},{"name":"E4","midi":64,"time":"513.07","velocity":0.29133858267716534,"duration":"0.03"},{"name":"D6","midi":86,"time":"513.07","velocity":0.3228346456692913,"duration":"0.10"},{"name":"F6","midi":89,"time":"513.07","velocity":0.2992125984251969,"duration":"0.09"},{"name":"E3","midi":52,"time":"513.08","velocity":0.5118110236220472,"duration":"0.01"},{"name":"G4","midi":67,"time":"513.08","velocity":0.31496062992125984,"duration":"0.02"},{"name":"F#5","midi":78,"time":"513.08","velocity":0.28346456692913385,"duration":"0.06"},{"name":"C6","midi":84,"time":"513.08","velocity":0.31496062992125984,"duration":"0.05"},{"name":"D7","midi":98,"time":"513.08","velocity":0.3543307086614173,"duration":"1.49"},{"name":"A2","midi":45,"time":"513.09","velocity":0.5905511811023622,"duration":"0.08"},{"name":"G#5","midi":80,"time":"513.09","velocity":0.29133858267716534,"duration":"0.02"},{"name":"D#6","midi":87,"time":"513.09","velocity":0.2047244094488189,"duration":"0.05"},{"name":"G#6","midi":92,"time":"513.09","velocity":0.4015748031496063,"duration":"0.19"},{"name":"C#4","midi":61,"time":"513.10","velocity":0.3543307086614173,"duration":"0.05"},{"name":"D#5","midi":75,"time":"513.12","velocity":0.23622047244094488,"duration":"0.05"},{"name":"F5","midi":77,"time":"513.14","velocity":0.2440944881889764,"duration":"0.03"},{"name":"C6","midi":84,"time":"513.14","velocity":0.30708661417322836,"duration":"0.07"},{"name":"E4","midi":64,"time":"513.15","velocity":0.2283464566929134,"duration":"0.02"},{"name":"E5","midi":76,"time":"513.15","velocity":0.4094488188976378,"duration":"0.12"},{"name":"G5","midi":79,"time":"513.15","velocity":0.2440944881889764,"duration":"0.02"},{"name":"D#7","midi":99,"time":"513.15","velocity":0.2992125984251969,"duration":"0.92"},{"name":"G#3","midi":56,"time":"513.16","velocity":0.4566929133858268,"duration":"0.03"},{"name":"D#6","midi":87,"time":"513.16","velocity":0.2204724409448819,"duration":"0.06"},{"name":"F#6","midi":90,"time":"513.16","velocity":0.25984251968503935,"duration":"0.07"},{"name":"A#2","midi":46,"time":"513.17","velocity":0.4881889763779528,"duration":"0.02"},{"name":"D4","midi":62,"time":"513.17","velocity":0.28346456692913385,"duration":"0.02"},{"name":"F#5","midi":78,"time":"513.17","velocity":0.2992125984251969,"duration":"0.07"},{"name":"D#5","midi":75,"time":"513.19","velocity":0.33858267716535434,"duration":"0.02"},{"name":"B5","midi":83,"time":"513.19","velocity":0.3858267716535433,"duration":"0.03"},{"name":"F6","midi":89,"time":"513.19","velocity":0.25196850393700787,"duration":"0.02"},{"name":"G6","midi":91,"time":"513.19","velocity":0.28346456692913385,"duration":"0.10"},{"name":"F#4","midi":66,"time":"513.20","velocity":0.2677165354330709,"duration":"0.06"},{"name":"B4","midi":71,"time":"513.20","velocity":0.4015748031496063,"duration":"0.05"},{"name":"A4","midi":69,"time":"513.21","velocity":0.5275590551181102,"duration":"0.57"},{"name":"D6","midi":86,"time":"513.21","velocity":0.28346456692913385,"duration":"0.12"},{"name":"B3","midi":59,"time":"513.22","velocity":0.29133858267716534,"duration":"0.02"},{"name":"C#5","midi":73,"time":"513.22","velocity":0.4645669291338583,"duration":"0.37"},{"name":"C6","midi":84,"time":"513.22","velocity":0.2047244094488189,"duration":"0.05"},{"name":"F6","midi":89,"time":"513.22","velocity":0.29133858267716534,"duration":"0.10"},{"name":"A#2","midi":46,"time":"513.23","velocity":0.5275590551181102,"duration":"0.01"},{"name":"D#3","midi":51,"time":"513.23","velocity":0.3779527559055118,"duration":"0.03"},{"name":"C#4","midi":61,"time":"513.23","velocity":0.3464566929133858,"duration":"0.05"},{"name":"A3","midi":57,"time":"513.24","velocity":0.41732283464566927,"duration":"0.02"},{"name":"G5","midi":79,"time":"513.24","velocity":0.3543307086614173,"duration":"0.06"},{"name":"G#5","midi":80,"time":"513.24","velocity":0.2755905511811024,"duration":"0.02"},{"name":"B6","midi":95,"time":"513.24","velocity":0.3228346456692913,"duration":"0.71"},{"name":"F#6","midi":90,"time":"513.26","velocity":0.15748031496062992,"duration":"0.05"},{"name":"F#2","midi":42,"time":"513.27","velocity":0.5039370078740157,"duration":"0.02"},{"name":"A#3","midi":58,"time":"513.27","velocity":0.4330708661417323,"duration":"0.03"},{"name":"D#5","midi":75,"time":"513.27","velocity":0.3228346456692913,"duration":"0.05"},{"name":"F5","midi":77,"time":"513.27","velocity":0.28346456692913385,"duration":"0.02"},{"name":"E6","midi":88,"time":"513.27","velocity":0.29133858267716534,"duration":"0.16"},{"name":"A#6","midi":94,"time":"513.27","velocity":0.25196850393700787,"duration":"0.03"},{"name":"B4","midi":71,"time":"513.28","velocity":0.28346456692913385,"duration":"0.02"},{"name":"C#4","midi":61,"time":"513.29","velocity":0.29133858267716534,"duration":"0.02"},{"name":"F#5","midi":78,"time":"513.29","velocity":0.31496062992125984,"duration":"0.08"},{"name":"G#5","midi":80,"time":"513.29","velocity":0.30708661417322836,"duration":"0.02"},{"name":"G#6","midi":92,"time":"513.29","velocity":0.4015748031496063,"duration":"0.36"},{"name":"A2","midi":45,"time":"513.30","velocity":0.5196850393700787,"duration":"0.01"},{"name":"E3","midi":52,"time":"513.30","velocity":0.4094488188976378,"duration":"0.02"},{"name":"F#4","midi":66,"time":"513.30","velocity":0.36220472440944884,"duration":"0.02"},{"name":"E5","midi":76,"time":"513.30","velocity":0.4015748031496063,"duration":"0.07"},{"name":"G#2","midi":44,"time":"513.31","velocity":0.4881889763779528,"duration":"0.02"},{"name":"C4","midi":60,"time":"513.31","velocity":0.3779527559055118,"duration":"0.02"},{"name":"F#6","midi":90,"time":"513.31","velocity":0.4094488188976378,"duration":"0.29"},{"name":"A#6","midi":94,"time":"513.31","velocity":0.33070866141732286,"duration":"0.22"},{"name":"B4","midi":71,"time":"513.33","velocity":0.2755905511811024,"duration":"0.02"},{"name":"D4","midi":62,"time":"513.34","velocity":0.2992125984251969,"duration":"0.03"},{"name":"F6","midi":89,"time":"513.34","velocity":0.25196850393700787,"duration":"0.02"},{"name":"G6","midi":91,"time":"513.34","velocity":0.33858267716535434,"duration":"0.03"},{"name":"F3","midi":53,"time":"513.36","velocity":0.48031496062992124,"duration":"0.02"},{"name":"C6","midi":84,"time":"513.36","velocity":0.3543307086614173,"duration":"0.07"},{"name":"D#6","midi":87,"time":"513.36","velocity":0.30708661417322836,"duration":"0.10"},{"name":"A#3","midi":58,"time":"513.37","velocity":0.4330708661417323,"duration":"0.02"},{"name":"D#5","midi":75,"time":"513.37","velocity":0.4251968503937008,"duration":"0.02"},{"name":"F5","midi":77,"time":"513.37","velocity":0.29133858267716534,"duration":"0.02"},{"name":"G#5","midi":80,"time":"513.37","velocity":0.2677165354330709,"duration":"0.03"},{"name":"G6","midi":91,"time":"513.38","velocity":0.2440944881889764,"duration":"0.03"},{"name":"F1","midi":29,"time":"513.40","velocity":0.41732283464566927,"duration":"0.03"},{"name":"B2","midi":47,"time":"513.40","velocity":0.5354330708661418,"duration":"0.01"},{"name":"E5","midi":76,"time":"513.40","velocity":0.3779527559055118,"duration":"0.02"},{"name":"D6","midi":86,"time":"513.40","velocity":0.36220472440944884,"duration":"0.03"},{"name":"F6","midi":89,"time":"513.40","velocity":0.28346456692913385,"duration":"0.13"},{"name":"D#5","midi":75,"time":"513.41","velocity":0.3779527559055118,"duration":"0.03"},{"name":"F5","midi":77,"time":"513.41","velocity":0.3228346456692913,"duration":"0.05"},{"name":"B2","midi":47,"time":"513.42","velocity":0.4409448818897638,"duration":"0.03"},{"name":"E4","midi":64,"time":"513.42","velocity":0.25984251968503935,"duration":"0.02"},{"name":"G5","midi":79,"time":"513.42","velocity":0.25984251968503935,"duration":"0.02"},{"name":"A#5","midi":82,"time":"513.42","velocity":0.23622047244094488,"duration":"0.02"},{"name":"F#4","midi":66,"time":"513.43","velocity":0.33070866141732286,"duration":"0.03"},{"name":"G#5","midi":80,"time":"513.43","velocity":0.2440944881889764,"duration":"0.02"},{"name":"B5","midi":83,"time":"513.43","velocity":0.3779527559055118,"duration":"0.12"},{"name":"D1","midi":26,"time":"513.44","velocity":0.33858267716535434,"duration":"0.02"},{"name":"C#4","midi":61,"time":"513.44","velocity":0.3937007874015748,"duration":"0.07"},{"name":"B4","midi":71,"time":"513.44","velocity":0.3543307086614173,"duration":"0.03"},{"name":"E5","midi":76,"time":"513.45","velocity":0.4409448818897638,"duration":"0.21"},{"name":"G6","midi":91,"time":"513.45","velocity":0.30708661417322836,"duration":"0.02"},{"name":"F3","midi":53,"time":"513.47","velocity":0.4094488188976378,"duration":"0.02"},{"name":"G#3","midi":56,"time":"513.48","velocity":0.33858267716535434,"duration":"0.02"},{"name":"F#4","midi":66,"time":"513.48","velocity":0.2755905511811024,"duration":"0.02"},{"name":"D#6","midi":87,"time":"513.48","velocity":0.25984251968503935,"duration":"0.02"},{"name":"G5","midi":79,"time":"513.49","velocity":0.25984251968503935,"duration":"0.05"},{"name":"G6","midi":91,"time":"513.49","velocity":0.33858267716535434,"duration":"0.05"},{"name":"F4","midi":65,"time":"513.50","velocity":0.29133858267716534,"duration":"0.02"},{"name":"F5","midi":77,"time":"513.50","velocity":0.33858267716535434,"duration":"0.02"},{"name":"C6","midi":84,"time":"513.50","velocity":0.2440944881889764,"duration":"0.02"},{"name":"D#6","midi":87,"time":"513.51","velocity":0.2125984251968504,"duration":"0.03"},{"name":"B3","midi":59,"time":"513.52","velocity":0.36220472440944884,"duration":"0.02"},{"name":"F#4","midi":66,"time":"513.52","velocity":0.33070866141732286,"duration":"0.02"},{"name":"A2","midi":45,"time":"513.53","velocity":0.5118110236220472,"duration":"0.01"},{"name":"C6","midi":84,"time":"513.53","velocity":0.30708661417322836,"duration":"0.05"},{"name":"D6","midi":86,"time":"513.53","velocity":0.2440944881889764,"duration":"0.02"},{"name":"F6","midi":89,"time":"513.53","velocity":0.2992125984251969,"duration":"0.09"},{"name":"G#2","midi":44,"time":"513.55","velocity":0.5354330708661418,"duration":"0.01"},{"name":"C#4","midi":61,"time":"513.55","velocity":0.3228346456692913,"duration":"0.02"},{"name":"A#6","midi":94,"time":"513.55","velocity":0.31496062992125984,"duration":"0.47"},{"name":"A#2","midi":46,"time":"513.56","velocity":0.4881889763779528,"duration":"0.02"},{"name":"A3","midi":57,"time":"513.56","velocity":0.3464566929133858,"duration":"0.02"},{"name":"A#5","midi":82,"time":"513.56","velocity":0.3228346456692913,"duration":"0.02"},{"name":"B5","midi":83,"time":"513.56","velocity":0.31496062992125984,"duration":"0.05"},{"name":"D#6","midi":87,"time":"513.56","velocity":0.2677165354330709,"duration":"0.06"},{"name":"G6","midi":91,"time":"513.56","velocity":0.3937007874015748,"duration":"0.12"},{"name":"F#2","midi":42,"time":"513.58","velocity":0.5354330708661418,"duration":"0.01"},{"name":"E3","midi":52,"time":"513.58","velocity":0.44881889763779526,"duration":"0.03"},{"name":"A#3","midi":58,"time":"513.58","velocity":0.3779527559055118,"duration":"0.03"},{"name":"F#4","midi":66,"time":"513.58","velocity":0.3228346456692913,"duration":"0.02"},{"name":"G5","midi":79,"time":"513.58","velocity":0.2755905511811024,"duration":"0.12"},{"name":"D6","midi":86,"time":"513.58","velocity":0.25984251968503935,"duration":"0.08"},{"name":"G2","midi":43,"time":"513.59","velocity":0.5118110236220472,"duration":"0.01"},{"name":"C5","midi":72,"time":"513.59","velocity":0.33070866141732286,"duration":"0.05"},{"name":"D5","midi":74,"time":"513.59","velocity":0.29133858267716534,"duration":"0.02"},{"name":"G#5","midi":80,"time":"513.59","velocity":0.25984251968503935,"duration":"0.02"},{"name":"A2","midi":45,"time":"513.60","velocity":0.5118110236220472,"duration":"0.02"},{"name":"F#5","midi":78,"time":"513.60","velocity":0.25196850393700787,"duration":"0.02"},{"name":"B5","midi":83,"time":"513.62","velocity":0.31496062992125984,"duration":"0.03"},{"name":"F#6","midi":90,"time":"513.62","velocity":0.25984251968503935,"duration":"0.13"},{"name":"D#6","midi":87,"time":"513.63","velocity":0.25984251968503935,"duration":"0.03"},{"name":"A3","midi":57,"time":"513.64","velocity":0.4094488188976378,"duration":"0.06"},{"name":"C#5","midi":73,"time":"513.64","velocity":0.4015748031496063,"duration":"0.08"},{"name":"F#5","midi":78,"time":"513.64","velocity":0.25196850393700787,"duration":"0.05"},{"name":"A2","midi":45,"time":"513.65","velocity":0.5275590551181102,"duration":"0.01"},{"name":"C#4","midi":61,"time":"513.65","velocity":0.4094488188976378,"duration":"0.06"},{"name":"D#5","midi":75,"time":"513.65","velocity":0.33858267716535434,"duration":"0.02"},{"name":"A#5","midi":82,"time":"513.65","velocity":0.28346456692913385,"duration":"0.02"},{"name":"G#2","midi":44,"time":"513.66","velocity":0.5433070866141733,"duration":"0.01"},{"name":"E3","midi":52,"time":"513.66","velocity":0.4094488188976378,"duration":"0.02"},{"name":"B4","midi":71,"time":"513.67","velocity":0.3937007874015748,"duration":"0.03"},{"name":"E5","midi":76,"time":"513.67","velocity":0.44881889763779526,"duration":"0.21"},{"name":"F6","midi":89,"time":"513.67","velocity":0.2440944881889764,"duration":"0.03"},{"name":"G#6","midi":92,"time":"513.67","velocity":0.3937007874015748,"duration":"0.14"},{"name":"C#7","midi":97,"time":"513.67","velocity":0.3937007874015748,"duration":"1.76"},{"name":"A#2","midi":46,"time":"513.69","velocity":0.5511811023622047,"duration":"0.01"},{"name":"G4","midi":67,"time":"513.70","velocity":0.2440944881889764,"duration":"0.02"},{"name":"D5","midi":74,"time":"513.70","velocity":0.3937007874015748,"duration":"0.02"},{"name":"F#5","midi":78,"time":"513.70","velocity":0.2677165354330709,"duration":"0.02"},{"name":"F3","midi":53,"time":"513.71","velocity":0.3937007874015748,"duration":"0.02"},{"name":"C4","midi":60,"time":"513.71","velocity":0.3228346456692913,"duration":"0.02"},{"name":"D#6","midi":87,"time":"513.71","velocity":0.2047244094488189,"duration":"0.03"},{"name":"G6","midi":91,"time":"513.71","velocity":0.2755905511811024,"duration":"0.08"},{"name":"G7","midi":103,"time":"513.71","velocity":0.33070866141732286,"duration":"0.52"},{"name":"F6","midi":89,"time":"513.72","velocity":0.25984251968503935,"duration":"0.09"},{"name":"G#2","midi":44,"time":"513.73","velocity":0.5118110236220472,"duration":"0.01"},{"name":"F#4","midi":66,"time":"513.73","velocity":0.2755905511811024,"duration":"0.03"},{"name":"B5","midi":83,"time":"513.74","velocity":0.2755905511811024,"duration":"0.06"},{"name":"G#3","midi":56,"time":"513.76","velocity":0.3228346456692913,"duration":"0.02"},{"name":"D6","midi":86,"time":"513.76","velocity":0.29133858267716534,"duration":"0.15"},{"name":"D#6","midi":87,"time":"513.76","velocity":0.2440944881889764,"duration":"0.09"},{"name":"F#6","midi":90,"time":"513.76","velocity":0.31496062992125984,"duration":"0.10"},{"name":"D#4","midi":63,"time":"513.77","velocity":0.2283464566929134,"duration":"0.02"},{"name":"A2","midi":45,"time":"513.79","velocity":0.5118110236220472,"duration":"0.02"},{"name":"E4","midi":64,"time":"513.79","velocity":0.28346456692913385,"duration":"0.06"},{"name":"A4","midi":69,"time":"513.79","velocity":0.3858267716535433,"duration":"0.10"},{"name":"C#5","midi":73,"time":"513.79","velocity":0.2992125984251969,"duration":"0.02"},{"name":"A#5","midi":82,"time":"513.79","velocity":0.2755905511811024,"duration":"0.02"},{"name":"C5","midi":72,"time":"513.80","velocity":0.2125984251968504,"duration":"0.03"},{"name":"G6","midi":91,"time":"513.80","velocity":0.3464566929133858,"duration":"0.10"},{"name":"G#2","midi":44,"time":"513.81","velocity":0.5511811023622047,"duration":"0.01"},{"name":"A3","midi":57,"time":"513.81","velocity":0.4094488188976378,"duration":"0.02"},{"name":"D5","midi":74,"time":"513.81","velocity":0.25984251968503935,"duration":"0.02"},{"name":"B5","midi":83,"time":"513.81","velocity":0.3937007874015748,"duration":"0.35"},{"name":"A2","midi":45,"time":"513.83","velocity":0.5118110236220472,"duration":"0.01"},{"name":"C#5","midi":73,"time":"513.83","velocity":0.25196850393700787,"duration":"0.05"},{"name":"G5","midi":79,"time":"513.83","velocity":0.2204724409448819,"duration":"0.05"},{"name":"A#2","midi":46,"time":"513.84","velocity":0.5275590551181102,"duration":"0.01"},{"name":"B4","midi":71,"time":"513.84","velocity":0.33070866141732286,"duration":"0.06"},{"name":"G#6","midi":92,"time":"513.84","velocity":0.3543307086614173,"duration":"0.13"},{"name":"A2","midi":45,"time":"513.85","velocity":0.5826771653543307,"duration":"0.02"},{"name":"F6","midi":89,"time":"513.85","velocity":0.25196850393700787,"duration":"0.12"},{"name":"E3","midi":52,"time":"513.86","velocity":0.4566929133858268,"duration":"0.05"},{"name":"F#4","midi":66,"time":"513.87","velocity":0.3228346456692913,"duration":"0.07"},{"name":"C6","midi":84,"time":"513.87","velocity":0.2440944881889764,"duration":"0.02"},{"name":"G#2","midi":44,"time":"513.88","velocity":0.5354330708661418,"duration":"0.02"},{"name":"D#5","midi":75,"time":"513.88","velocity":0.25984251968503935,"duration":"0.03"},{"name":"F5","midi":77,"time":"513.88","velocity":0.25196850393700787,"duration":"0.02"},{"name":"A#5","midi":82,"time":"513.88","velocity":0.3543307086614173,"duration":"0.02"},{"name":"F#6","midi":90,"time":"513.88","velocity":0.28346456692913385,"duration":"0.14"},{"name":"B3","midi":59,"time":"513.90","velocity":0.4330708661417323,"duration":"0.03"},{"name":"C#6","midi":85,"time":"513.90","velocity":0.3700787401574803,"duration":"0.07"},{"name":"A2","midi":45,"time":"513.91","velocity":0.48031496062992124,"duration":"0.02"},{"name":"F3","midi":53,"time":"513.91","velocity":0.49606299212598426,"duration":"0.02"},{"name":"C#5","midi":73,"time":"513.91","velocity":0.3858267716535433,"duration":"0.28"},{"name":"A4","midi":69,"time":"513.92","velocity":0.4409448818897638,"duration":"0.12"},{"name":"G6","midi":91,"time":"513.92","velocity":0.3779527559055118,"duration":"0.17"},{"name":"F5","midi":77,"time":"513.93","velocity":0.29133858267716534,"duration":"0.02"},{"name":"A2","midi":45,"time":"513.94","velocity":0.5118110236220472,"duration":"0.02"},{"name":"E5","midi":76,"time":"513.94","velocity":0.36220472440944884,"duration":"0.03"},{"name":"D6","midi":86,"time":"513.94","velocity":0.2677165354330709,"duration":"0.05"},{"name":"D#6","midi":87,"time":"513.95","velocity":0.2440944881889764,"duration":"0.19"},{"name":"G#2","midi":44,"time":"513.97","velocity":0.5354330708661418,"duration":"0.02"},{"name":"E3","midi":52,"time":"513.97","velocity":0.41732283464566927,"duration":"0.05"},{"name":"C#4","midi":61,"time":"513.97","velocity":0.28346456692913385,"duration":"0.02"},{"name":"D#5","midi":75,"time":"513.97","velocity":0.28346456692913385,"duration":"0.03"},{"name":"G5","midi":79,"time":"513.97","velocity":0.14173228346456693,"duration":"0.03"},{"name":"C6","midi":84,"time":"513.97","velocity":0.2204724409448819,"duration":"0.03"},{"name":"F6","midi":89,"time":"513.98","velocity":0.28346456692913385,"duration":"0.17"},{"name":"A2","midi":45,"time":"513.99","velocity":0.5826771653543307,"duration":"0.08"},{"name":"A#3","midi":58,"time":"513.99","velocity":0.41732283464566927,"duration":"0.02"},{"name":"E5","midi":76,"time":"513.99","velocity":0.47244094488188976,"duration":"0.28"},{"name":"G#6","midi":92,"time":"513.99","velocity":0.3464566929133858,"duration":"0.12"},{"name":"B4","midi":71,"time":"514.00","velocity":0.33858267716535434,"duration":"0.03"},{"name":"F#5","midi":78,"time":"514.00","velocity":0.2440944881889764,"duration":"0.02"},{"name":"G#5","midi":80,"time":"514.00","velocity":0.23622047244094488,"duration":"0.02"},{"name":"D6","midi":86,"time":"514.00","velocity":0.25984251968503935,"duration":"0.08"},{"name":"C7","midi":96,"time":"514.00","velocity":0.2755905511811024,"duration":"0.22"},{"name":"F#1","midi":30,"time":"514.01","velocity":0.3937007874015748,"duration":"0.02"},{"name":"B3","midi":59,"time":"514.01","velocity":0.4094488188976378,"duration":"0.02"},{"name":"A5","midi":81,"time":"514.01","velocity":0.5590551181102362,"duration":"0.24"},{"name":"E3","midi":52,"time":"514.02","velocity":0.4409448818897638,"duration":"0.02"},{"name":"A#6","midi":94,"time":"514.02","velocity":0.31496062992125984,"duration":"0.31"},{"name":"A#3","midi":58,"time":"514.03","velocity":0.3937007874015748,"duration":"0.02"},{"name":"G5","midi":79,"time":"514.03","velocity":0.28346456692913385,"duration":"0.03"},{"name":"F#6","midi":90,"time":"514.03","velocity":0.3464566929133858,"duration":"0.58"},{"name":"A4","midi":69,"time":"514.05","velocity":0.5826771653543307,"duration":"0.44"},{"name":"G#2","midi":44,"time":"514.07","velocity":0.5275590551181102,"duration":"0.02"},{"name":"E3","midi":52,"time":"514.07","velocity":0.4566929133858268,"duration":"0.02"},{"name":"A#3","midi":58,"time":"514.07","velocity":0.33858267716535434,"duration":"0.02"},{"name":"B4","midi":71,"time":"514.07","velocity":0.3464566929133858,"duration":"0.07"},{"name":"F7","midi":101,"time":"514.07","velocity":0.3543307086614173,"duration":"1.58"},{"name":"E1","midi":28,"time":"514.08","velocity":0.4015748031496063,"duration":"0.02"},{"name":"D#7","midi":99,"time":"514.08","velocity":0.25196850393700787,"duration":"0.24"},{"name":"F3","midi":53,"time":"514.09","velocity":0.4566929133858268,"duration":"0.02"},{"name":"G5","midi":79,"time":"514.09","velocity":0.2677165354330709,"duration":"0.09"},{"name":"A2","midi":45,"time":"514.10","velocity":0.5433070866141733,"duration":"0.01"},{"name":"G6","midi":91,"time":"514.10","velocity":0.30708661417322836,"duration":"0.05"},{"name":"G#2","midi":44,"time":"514.12","velocity":0.5984251968503937,"duration":"0.01"},{"name":"C6","midi":84,"time":"514.12","velocity":0.23622047244094488,"duration":"0.06"},{"name":"G#6","midi":92,"time":"514.12","velocity":0.29133858267716534,"duration":"0.02"},{"name":"A2","midi":45,"time":"514.13","velocity":0.5669291338582677,"duration":"0.06"},{"name":"F#4","midi":66,"time":"514.13","velocity":0.3700787401574803,"duration":"0.08"},{"name":"D6","midi":86,"time":"514.13","velocity":0.2440944881889764,"duration":"0.03"},{"name":"G#6","midi":92,"time":"514.15","velocity":0.3700787401574803,"duration":"0.13"},{"name":"D#6","midi":87,"time":"514.16","velocity":0.25984251968503935,"duration":"0.03"},{"name":"F6","midi":89,"time":"514.16","velocity":0.2283464566929134,"duration":"0.02"},{"name":"B4","midi":71,"time":"514.17","velocity":0.29133858267716534,"duration":"0.02"},{"name":"G#2","midi":44,"time":"514.19","velocity":0.5905511811023622,"duration":"0.01"},{"name":"A#5","midi":82,"time":"514.19","velocity":0.31496062992125984,"duration":"0.02"},{"name":"B5","midi":83,"time":"514.19","velocity":0.30708661417322836,"duration":"0.08"},{"name":"A2","midi":45,"time":"514.20","velocity":0.5590551181102362,"duration":"0.01"},{"name":"B3","midi":59,"time":"514.20","velocity":0.3858267716535433,"duration":"0.02"},{"name":"A#2","midi":46,"time":"514.21","velocity":0.5275590551181102,"duration":"0.01"},{"name":"E3","midi":52,"time":"514.21","velocity":0.3700787401574803,"duration":"0.02"},{"name":"F#5","midi":78,"time":"514.21","velocity":0.28346456692913385,"duration":"0.03"},{"name":"D6","midi":86,"time":"514.21","velocity":0.2755905511811024,"duration":"0.07"},{"name":"F6","midi":89,"time":"514.21","velocity":0.16535433070866143,"duration":"0.03"},{"name":"G#2","midi":44,"time":"514.22","velocity":0.5433070866141733,"duration":"0.01"},{"name":"C#5","midi":73,"time":"514.22","velocity":0.1732283464566929,"duration":"0.05"},{"name":"G6","midi":91,"time":"514.22","velocity":0.2204724409448819,"duration":"0.03"},{"name":"A2","midi":45,"time":"514.23","velocity":0.5354330708661418,"duration":"0.01"},{"name":"C6","midi":84,"time":"514.23","velocity":0.2125984251968504,"duration":"0.12"},{"name":"C7","midi":96,"time":"514.23","velocity":0.2283464566929134,"duration":"0.27"},{"name":"B4","midi":71,"time":"514.24","velocity":0.30708661417322836,"duration":"0.02"},{"name":"G5","midi":79,"time":"514.24","velocity":0.3464566929133858,"duration":"0.16"},{"name":"G#2","midi":44,"time":"514.26","velocity":0.5511811023622047,"duration":"0.03"},{"name":"E3","midi":52,"time":"514.26","velocity":0.4330708661417323,"duration":"0.03"},{"name":"A3","midi":57,"time":"514.26","velocity":0.4094488188976378,"duration":"0.02"},{"name":"A#5","midi":82,"time":"514.26","velocity":0.4015748031496063,"duration":"0.02"},{"name":"C#6","midi":85,"time":"514.26","velocity":0.2204724409448819,"duration":"0.06"},{"name":"D#5","midi":75,"time":"514.27","velocity":0.2992125984251969,"duration":"0.05"},{"name":"F5","midi":77,"time":"514.27","velocity":0.2283464566929134,"duration":"0.05"},{"name":"A5","midi":81,"time":"514.27","velocity":0.6771653543307087,"duration":"1.79"},{"name":"C#5","midi":73,"time":"514.28","velocity":0.2677165354330709,"duration":"0.06"},{"name":"B5","midi":83,"time":"514.28","velocity":0.2677165354330709,"duration":"0.09"},{"name":"A3","midi":57,"time":"514.29","velocity":0.4566929133858268,"duration":"0.05"},{"name":"G#5","midi":80,"time":"514.29","velocity":0.36220472440944884,"duration":"0.02"},{"name":"A2","midi":45,"time":"514.30","velocity":0.5669291338582677,"duration":"0.01"},{"name":"E4","midi":64,"time":"514.30","velocity":0.2755905511811024,"duration":"0.03"},{"name":"F6","midi":89,"time":"514.30","velocity":0.23622047244094488,"duration":"0.14"},{"name":"G#2","midi":44,"time":"514.31","velocity":0.5511811023622047,"duration":"0.01"},{"name":"E5","midi":76,"time":"514.31","velocity":0.28346456692913385,"duration":"0.05"},{"name":"D6","midi":86,"time":"514.31","velocity":0.2677165354330709,"duration":"0.09"},{"name":"A2","midi":45,"time":"514.33","velocity":0.5118110236220472,"duration":"0.05"},{"name":"D5","midi":74,"time":"514.34","velocity":0.2677165354330709,"duration":"0.05"},{"name":"C#6","midi":85,"time":"514.34","velocity":0.29133858267716534,"duration":"0.08"},{"name":"D#7","midi":99,"time":"514.34","velocity":0.2992125984251969,"duration":"0.76"},{"name":"D#6","midi":87,"time":"514.35","velocity":0.2440944881889764,"duration":"0.02"},{"name":"A#6","midi":94,"time":"514.35","velocity":0.2440944881889764,"duration":"0.05"},{"name":"F4","midi":65,"time":"514.36","velocity":0.3228346456692913,"duration":"0.02"},{"name":"B4","midi":71,"time":"514.36","velocity":0.3700787401574803,"duration":"0.06"},{"name":"G#2","midi":44,"time":"514.37","velocity":0.5354330708661418,"duration":"0.01"},{"name":"E5","midi":76,"time":"514.37","velocity":0.3779527559055118,"duration":"0.03"},{"name":"A2","midi":45,"time":"514.38","velocity":0.5748031496062992,"duration":"0.12"},{"name":"D#6","midi":87,"time":"514.38","velocity":0.18110236220472442,"duration":"0.05"},{"name":"G#6","midi":92,"time":"514.38","velocity":0.31496062992125984,"duration":"0.31"},{"name":"F5","midi":77,"time":"514.40","velocity":0.2755905511811024,"duration":"0.02"},{"name":"C6","midi":84,"time":"514.40","velocity":0.25984251968503935,"duration":"0.02"},{"name":"D5","midi":74,"time":"514.41","velocity":0.25984251968503935,"duration":"0.03"},{"name":"A#6","midi":94,"time":"514.41","velocity":0.23622047244094488,"duration":"0.30"},{"name":"C#4","midi":61,"time":"514.42","velocity":0.3543307086614173,"duration":"0.02"},{"name":"E4","midi":64,"time":"514.42","velocity":0.41732283464566927,"duration":"0.24"},{"name":"F#5","midi":78,"time":"514.42","velocity":0.28346456692913385,"duration":"0.06"},{"name":"G6","midi":91,"time":"514.42","velocity":0.3464566929133858,"duration":"0.12"},{"name":"C#6","midi":85,"time":"514.43","velocity":0.30708661417322836,"duration":"0.07"},{"name":"E6","midi":88,"time":"514.43","velocity":0.3779527559055118,"duration":"0.09"},{"name":"D4","midi":62,"time":"514.44","velocity":0.30708661417322836,"duration":"0.02"},{"name":"C#5","midi":73,"time":"514.44","velocity":0.25984251968503935,"duration":"0.03"},{"name":"D#5","midi":75,"time":"514.44","velocity":0.41732283464566927,"duration":"0.08"},{"name":"F5","midi":77,"time":"514.44","velocity":0.2204724409448819,"duration":"0.07"},{"name":"B5","midi":83,"time":"514.47","velocity":0.31496062992125984,"duration":"0.12"},{"name":"F6","midi":89,"time":"514.47","velocity":0.2283464566929134,"duration":"0.03"},{"name":"G5","midi":79,"time":"514.48","velocity":0.2992125984251969,"duration":"0.07"},{"name":"D6","midi":86,"time":"514.48","velocity":0.2755905511811024,"duration":"0.10"},{"name":"G#2","midi":44,"time":"514.50","velocity":0.5118110236220472,"duration":"0.01"},{"name":"A4","midi":69,"time":"514.50","velocity":0.5275590551181102,"duration":"0.19"},{"name":"B4","midi":71,"time":"514.50","velocity":0.2440944881889764,"duration":"0.02"},{"name":"C6","midi":84,"time":"514.50","velocity":0.2283464566929134,"duration":"0.02"},{"name":"A2","midi":45,"time":"514.51","velocity":0.5669291338582677,"duration":"0.01"},{"name":"F3","midi":53,"time":"514.51","velocity":0.33858267716535434,"duration":"0.03"},{"name":"B3","midi":59,"time":"514.51","velocity":0.3937007874015748,"duration":"0.06"},{"name":"C#6","midi":85,"time":"514.51","velocity":0.25196850393700787,"duration":"0.05"},{"name":"F6","midi":89,"time":"514.51","velocity":0.25196850393700787,"duration":"0.06"},{"name":"G#2","midi":44,"time":"514.52","velocity":0.5826771653543307,"duration":"0.01"},{"name":"C#5","midi":73,"time":"514.52","velocity":0.2755905511811024,"duration":"0.10"},{"name":"A2","midi":45,"time":"514.53","velocity":0.5669291338582677,"duration":"0.01"},{"name":"C7","midi":96,"time":"514.53","velocity":0.29133858267716534,"duration":"0.09"},{"name":"A#2","midi":46,"time":"514.55","velocity":0.5748031496062992,"duration":"0.01"},{"name":"E6","midi":88,"time":"514.55","velocity":0.33858267716535434,"duration":"0.38"},{"name":"G6","midi":91,"time":"514.55","velocity":0.2440944881889764,"duration":"0.09"},{"name":"A2","midi":45,"time":"514.56","velocity":0.5984251968503937,"duration":"0.01"},{"name":"G4","midi":67,"time":"514.56","velocity":0.3858267716535433,"duration":"0.02"},{"name":"F5","midi":77,"time":"514.56","velocity":0.2677165354330709,"duration":"0.05"},{"name":"C6","midi":84,"time":"514.56","velocity":0.2047244094488189,"duration":"0.03"},{"name":"G#2","midi":44,"time":"514.57","velocity":0.5826771653543307,"duration":"0.01"},{"name":"A2","midi":45,"time":"514.58","velocity":0.5826771653543307,"duration":"0.07"},{"name":"E3","midi":52,"time":"514.58","velocity":0.3700787401574803,"duration":"0.06"},{"name":"D7","midi":98,"time":"514.58","velocity":0.2755905511811024,"duration":"1.14"},{"name":"E5","midi":76,"time":"514.59","velocity":0.4409448818897638,"duration":"0.30"},{"name":"F#5","midi":78,"time":"514.59","velocity":0.3464566929133858,"duration":"0.15"},{"name":"D6","midi":86,"time":"514.59","velocity":0.25196850393700787,"duration":"0.03"},{"name":"B5","midi":83,"time":"514.60","velocity":0.3937007874015748,"duration":"0.33"},{"name":"E1","midi":28,"time":"514.62","velocity":0.3228346456692913,"duration":"0.02"},{"name":"B3","midi":59,"time":"514.62","velocity":0.2992125984251969,"duration":"0.02"},{"name":"B4","midi":71,"time":"514.63","velocity":0.30708661417322836,"duration":"0.03"},{"name":"C#6","midi":85,"time":"514.63","velocity":0.23622047244094488,"duration":"0.05"},{"name":"A#3","midi":58,"time":"514.64","velocity":0.33070866141732286,"duration":"0.02"},{"name":"D6","midi":86,"time":"514.64","velocity":0.31496062992125984,"duration":"0.09"},{"name":"G#2","midi":44,"time":"514.65","velocity":0.5590551181102362,"duration":"0.02"},{"name":"C7","midi":96,"time":"514.65","velocity":0.2204724409448819,"duration":"0.20"},{"name":"C#4","midi":61,"time":"514.66","velocity":0.3464566929133858,"duration":"0.02"},{"name":"C#5","midi":73,"time":"514.66","velocity":0.3543307086614173,"duration":"0.15"},{"name":"G7","midi":103,"time":"514.66","velocity":0.2755905511811024,"duration":"1.29"},{"name":"A2","midi":45,"time":"514.67","velocity":0.5984251968503937,"duration":"0.08"},{"name":"G#4","midi":68,"time":"514.69","velocity":0.3937007874015748,"duration":"0.05"},{"name":"B4","midi":71,"time":"514.69","velocity":0.31496062992125984,"duration":"0.05"},{"name":"E4","midi":64,"time":"514.70","velocity":0.3228346456692913,"duration":"0.03"},{"name":"G6","midi":91,"time":"514.70","velocity":0.25196850393700787,"duration":"0.26"},{"name":"E3","midi":52,"time":"514.71","velocity":0.4094488188976378,"duration":"0.13"},{"name":"B3","midi":59,"time":"514.71","velocity":0.30708661417322836,"duration":"0.02"},{"name":"G5","midi":79,"time":"514.71","velocity":0.2755905511811024,"duration":"0.02"},{"name":"G#6","midi":92,"time":"514.71","velocity":0.2677165354330709,"duration":"0.14"},{"name":"A4","midi":69,"time":"514.73","velocity":0.5039370078740157,"duration":"0.36"},{"name":"G5","midi":79,"time":"514.74","velocity":0.31496062992125984,"duration":"0.03"},{"name":"F6","midi":89,"time":"514.74","velocity":0.2047244094488189,"duration":"0.05"},{"name":"G#2","midi":44,"time":"514.76","velocity":0.5590551181102362,"duration":"0.02"},{"name":"G4","midi":67,"time":"514.77","velocity":0.2992125984251969,"duration":"0.02"},{"name":"B4","midi":71,"time":"514.77","velocity":0.2992125984251969,"duration":"0.03"},{"name":"A#6","midi":94,"time":"514.77","velocity":0.2204724409448819,"duration":"0.07"},{"name":"A2","midi":45,"time":"514.78","velocity":0.5039370078740157,"duration":"0.02"},{"name":"F#5","midi":78,"time":"514.78","velocity":0.28346456692913385,"duration":"0.03"},{"name":"D5","midi":74,"time":"514.79","velocity":0.3464566929133858,"duration":"0.03"},{"name":"A3","midi":57,"time":"514.80","velocity":0.48031496062992124,"duration":"0.17"},{"name":"A2","midi":45,"time":"514.81","velocity":0.3858267716535433,"duration":"0.02"},{"name":"F6","midi":89,"time":"514.81","velocity":0.12598425196850394,"duration":"0.06"},{"name":"C#5","midi":73,"time":"514.83","velocity":0.33858267716535434,"duration":"0.05"},{"name":"G5","midi":79,"time":"514.83","velocity":0.28346456692913385,"duration":"0.06"},{"name":"B4","midi":71,"time":"514.85","velocity":0.2755905511811024,"duration":"0.02"},{"name":"D#6","midi":87,"time":"514.85","velocity":0.2204724409448819,"duration":"0.13"},{"name":"A2","midi":45,"time":"514.86","velocity":0.5826771653543307,"duration":"0.12"},{"name":"F#5","midi":78,"time":"514.86","velocity":0.25984251968503935,"duration":"0.03"},{"name":"C7","midi":96,"time":"514.86","velocity":0.1968503937007874,"duration":"0.16"},{"name":"A#6","midi":94,"time":"514.87","velocity":0.1968503937007874,"duration":"0.19"},{"name":"F#4","midi":66,"time":"514.88","velocity":0.2677165354330709,"duration":"0.03"},{"name":"F5","midi":77,"time":"514.88","velocity":0.2125984251968504,"duration":"0.03"},{"name":"C6","midi":84,"time":"514.88","velocity":0.2125984251968504,"duration":"0.03"},{"name":"G#6","midi":92,"time":"514.88","velocity":0.15748031496062992,"duration":"0.07"},{"name":"E4","midi":64,"time":"514.90","velocity":0.3543307086614173,"duration":"0.16"},{"name":"D5","midi":74,"time":"514.90","velocity":0.25196850393700787,"duration":"0.03"},{"name":"D#5","midi":75,"time":"514.90","velocity":0.2204724409448819,"duration":"0.05"},{"name":"F6","midi":89,"time":"514.90","velocity":0.23622047244094488,"duration":"0.12"},{"name":"B4","midi":71,"time":"514.91","velocity":0.31496062992125984,"duration":"0.02"},{"name":"G#5","midi":80,"time":"514.91","velocity":0.3858267716535433,"duration":"0.02"},{"name":"B0","midi":23,"time":"514.93","velocity":0.2440944881889764,"duration":"0.02"},{"name":"E3","midi":52,"time":"514.93","velocity":0.4251968503937008,"duration":"0.16"},{"name":"G5","midi":79,"time":"514.93","velocity":0.25196850393700787,"duration":"0.05"},{"name":"E5","midi":76,"time":"514.94","velocity":0.3937007874015748,"duration":"0.05"},{"name":"B5","midi":83,"time":"514.94","velocity":0.2204724409448819,"duration":"0.05"},{"name":"D6","midi":86,"time":"514.94","velocity":0.2283464566929134,"duration":"0.02"},{"name":"F#6","midi":90,"time":"514.94","velocity":0.2440944881889764,"duration":"0.06"},{"name":"B6","midi":95,"time":"514.94","velocity":0.23622047244094488,"duration":"0.41"},{"name":"B4","midi":71,"time":"514.97","velocity":0.33858267716535434,"duration":"0.08"},{"name":"C#6","midi":85,"time":"514.97","velocity":0.31496062992125984,"duration":"0.40"},{"name":"G#2","midi":44,"time":"514.98","velocity":0.5748031496062992,"duration":"0.01"},{"name":"C6","midi":84,"time":"514.98","velocity":0.11811023622047244,"duration":"0.05"},{"name":"G6","midi":91,"time":"514.98","velocity":0.2125984251968504,"duration":"0.05"},{"name":"G#6","midi":92,"time":"514.98","velocity":0.2047244094488189,"duration":"0.14"},{"name":"A2","midi":45,"time":"514.99","velocity":0.5984251968503937,"duration":"0.02"},{"name":"F5","midi":77,"time":"514.99","velocity":0.3464566929133858,"duration":"0.07"},{"name":"G5","midi":79,"time":"514.99","velocity":0.33070866141732286,"duration":"0.06"},{"name":"G4","midi":67,"time":"515.00","velocity":0.23622047244094488,"duration":"0.02"},{"name":"G#2","midi":44,"time":"515.01","velocity":0.5826771653543307,"duration":"0.01"},{"name":"D#5","midi":75,"time":"515.01","velocity":0.2283464566929134,"duration":"0.02"},{"name":"D6","midi":86,"time":"515.01","velocity":0.2125984251968504,"duration":"0.08"},{"name":"E6","midi":88,"time":"515.01","velocity":0.30708661417322836,"duration":"0.16"},{"name":"F#6","midi":90,"time":"515.01","velocity":0.14173228346456693,"duration":"0.03"},{"name":"A2","midi":45,"time":"515.02","velocity":0.5826771653543307,"duration":"0.02"},{"name":"F#4","midi":66,"time":"515.02","velocity":0.2992125984251969,"duration":"0.05"},{"name":"D5","midi":74,"time":"515.02","velocity":0.23622047244094488,"duration":"0.02"},{"name":"C#5","midi":73,"time":"515.03","velocity":0.33070866141732286,"duration":"0.05"},{"name":"E5","midi":76,"time":"515.03","velocity":0.41732283464566927,"duration":"0.10"},{"name":"C7","midi":96,"time":"515.03","velocity":0.11811023622047244,"duration":"0.05"},{"name":"G#2","midi":44,"time":"515.05","velocity":0.5905511811023622,"duration":"0.01"},{"name":"B5","midi":83,"time":"515.05","velocity":0.25196850393700787,"duration":"0.08"},{"name":"A2","midi":45,"time":"515.06","velocity":0.5275590551181102,"duration":"0.01"},{"name":"D#6","midi":87,"time":"515.06","velocity":0.2204724409448819,"duration":"0.06"},{"name":"A#2","midi":46,"time":"515.07","velocity":0.5511811023622047,"duration":"0.01"},{"name":"G#5","midi":80,"time":"515.07","velocity":0.3779527559055118,"duration":"0.05"},{"name":"G#2","midi":44,"time":"515.08","velocity":0.5826771653543307,"duration":"0.02"},{"name":"B4","midi":71,"time":"515.08","velocity":0.36220472440944884,"duration":"0.08"},{"name":"F6","midi":89,"time":"515.08","velocity":0.13385826771653545,"duration":"0.03"},{"name":"E4","midi":64,"time":"515.09","velocity":0.28346456692913385,"duration":"0.06"},{"name":"D#5","midi":75,"time":"515.09","velocity":0.2677165354330709,"duration":"0.02"},{"name":"A#6","midi":94,"time":"515.09","velocity":0.2047244094488189,"duration":"0.08"},{"name":"C7","midi":96,"time":"515.09","velocity":0.23622047244094488,"duration":"0.22"},{"name":"A2","midi":45,"time":"515.10","velocity":0.5748031496062992,"duration":"0.02"},{"name":"E3","midi":52,"time":"515.10","velocity":0.3464566929133858,"duration":"0.02"},{"name":"C6","midi":84,"time":"515.10","velocity":0.14173228346456693,"duration":"0.03"},{"name":"A#3","midi":58,"time":"515.12","velocity":0.4409448818897638,"duration":"0.02"},{"name":"D#7","midi":99,"time":"515.12","velocity":0.23622047244094488,"duration":"1.02"},{"name":"F#2","midi":42,"time":"515.13","velocity":0.5511811023622047,"duration":"0.01"},{"name":"G4","midi":67,"time":"515.13","velocity":0.36220472440944884,"duration":"0.05"},{"name":"A4","midi":69,"time":"515.13","velocity":0.2283464566929134,"duration":"0.02"},{"name":"D#5","midi":75,"time":"515.13","velocity":0.4015748031496063,"duration":"0.06"},{"name":"A#5","midi":82,"time":"515.13","velocity":0.1968503937007874,"duration":"0.03"},{"name":"E3","midi":52,"time":"515.14","velocity":0.2755905511811024,"duration":"0.02"},{"name":"C#5","midi":73,"time":"515.14","velocity":0.31496062992125984,"duration":"0.06"},{"name":"F5","midi":77,"time":"515.14","velocity":0.36220472440944884,"duration":"0.03"},{"name":"A#2","midi":46,"time":"515.15","velocity":0.5196850393700787,"duration":"0.01"},{"name":"F2","midi":41,"time":"515.16","velocity":0.5669291338582677,"duration":"0.02"},{"name":"A4","midi":69,"time":"515.16","velocity":0.5511811023622047,"duration":"0.15"},{"name":"D6","midi":86,"time":"515.16","velocity":0.15748031496062992,"duration":"0.05"},{"name":"G#6","midi":92,"time":"515.16","velocity":0.2440944881889764,"duration":"0.43"},{"name":"F5","midi":77,"time":"515.19","velocity":0.4094488188976378,"duration":"0.08"},{"name":"B5","midi":83,"time":"515.19","velocity":0.36220472440944884,"duration":"0.60"},{"name":"E6","midi":88,"time":"515.19","velocity":0.29133858267716534,"duration":"0.48"},{"name":"F2","midi":41,"time":"515.20","velocity":0.5669291338582677,"duration":"0.01"},{"name":"D5","midi":74,"time":"515.20","velocity":0.36220472440944884,"duration":"0.06"},{"name":"F#5","midi":78,"time":"515.20","velocity":0.28346456692913385,"duration":"0.02"},{"name":"G#5","midi":80,"time":"515.20","velocity":0.2992125984251969,"duration":"0.02"},{"name":"A#6","midi":94,"time":"515.20","velocity":0.14173228346456693,"duration":"0.05"},{"name":"G#2","midi":44,"time":"515.21","velocity":0.5275590551181102,"duration":"0.01"},{"name":"F#4","midi":66,"time":"515.21","velocity":0.2283464566929134,"duration":"0.02"},{"name":"D#6","midi":87,"time":"515.21","velocity":0.2047244094488189,"duration":"0.09"},{"name":"E5","midi":76,"time":"515.22","velocity":0.3700787401574803,"duration":"0.02"},{"name":"G5","midi":79,"time":"515.22","velocity":0.3858267716535433,"duration":"0.17"},{"name":"D#2","midi":39,"time":"515.23","velocity":0.5511811023622047,"duration":"0.01"},{"name":"G#2","midi":44,"time":"515.24","velocity":0.5669291338582677,"duration":"0.01"},{"name":"B3","midi":59,"time":"515.24","velocity":0.41732283464566927,"duration":"0.02"},{"name":"G4","midi":67,"time":"515.24","velocity":0.36220472440944884,"duration":"0.02"},{"name":"C#5","midi":73,"time":"515.26","velocity":0.23622047244094488,"duration":"0.02"},{"name":"D#5","midi":75,"time":"515.26","velocity":0.4094488188976378,"duration":"0.08"},{"name":"G#5","midi":80,"time":"515.26","velocity":0.33070866141732286,"duration":"0.02"},{"name":"A#6","midi":94,"time":"515.27","velocity":0.16535433070866143,"duration":"0.07"},{"name":"G#2","midi":44,"time":"515.28","velocity":0.5826771653543307,"duration":"0.02"},{"name":"E4","midi":64,"time":"515.28","velocity":0.2677165354330709,"duration":"0.02"},{"name":"G4","midi":67,"time":"515.28","velocity":0.4251968503937008,"duration":"0.07"},{"name":"C6","midi":84,"time":"515.28","velocity":0.1968503937007874,"duration":"0.05"},{"name":"E3","midi":52,"time":"515.29","velocity":0.3858267716535433,"duration":"0.03"},{"name":"F5","midi":77,"time":"515.29","velocity":0.25196850393700787,"duration":"0.03"},{"name":"B4","midi":71,"time":"515.30","velocity":0.3779527559055118,"duration":"0.05"},{"name":"C#5","midi":73,"time":"515.30","velocity":0.3543307086614173,"duration":"0.06"},{"name":"F2","midi":41,"time":"515.31","velocity":0.5669291338582677,"duration":"0.01"},{"name":"D6","midi":86,"time":"515.31","velocity":0.2204724409448819,"duration":"0.13"},{"name":"G#2","midi":44,"time":"515.33","velocity":0.5275590551181102,"duration":"0.01"},{"name":"A4","midi":69,"time":"515.33","velocity":0.5826771653543307,"duration":"1.66"},{"name":"F6","midi":89,"time":"515.33","velocity":0.15748031496062992,"duration":"0.10"},{"name":"A2","midi":45,"time":"515.34","velocity":0.5433070866141733,"duration":"0.02"},{"name":"D5","midi":74,"time":"515.34","velocity":0.3543307086614173,"duration":"0.08"},{"name":"C7","midi":96,"time":"515.34","velocity":0.2204724409448819,"duration":"0.38"},{"name":"B3","midi":59,"time":"515.35","velocity":0.4094488188976378,"duration":"0.02"},{"name":"E4","midi":64,"time":"515.35","velocity":0.2440944881889764,"duration":"0.03"},{"name":"F5","midi":77,"time":"515.35","velocity":0.1889763779527559,"duration":"0.03"},{"name":"A#6","midi":94,"time":"515.35","velocity":0.18110236220472442,"duration":"0.08"},{"name":"A2","midi":45,"time":"515.37","velocity":0.5275590551181102,"duration":"0.02"},{"name":"D#3","midi":51,"time":"515.38","velocity":0.33070866141732286,"duration":"0.02"},{"name":"E5","midi":76,"time":"515.38","velocity":0.2440944881889764,"duration":"0.03"},{"name":"G#2","midi":44,"time":"515.40","velocity":0.5275590551181102,"duration":"0.01"},{"name":"C#6","midi":85,"time":"515.40","velocity":0.30708661417322836,"duration":"0.19"},{"name":"B4","midi":71,"time":"515.41","velocity":0.4251968503937008,"duration":"0.09"},{"name":"G4","midi":67,"time":"515.42","velocity":0.3543307086614173,"duration":"0.05"},{"name":"D#5","midi":75,"time":"515.42","velocity":0.3937007874015748,"duration":"0.06"},{"name":"F5","midi":77,"time":"515.42","velocity":0.25984251968503935,"duration":"0.03"},{"name":"C6","midi":84,"time":"515.42","velocity":0.16535433070866143,"duration":"0.05"},{"name":"E3","midi":52,"time":"515.45","velocity":0.4251968503937008,"duration":"0.09"},{"name":"F6","midi":89,"time":"515.45","velocity":0.07874015748031496,"duration":"0.03"},{"name":"A#6","midi":94,"time":"515.45","velocity":0.15748031496062992,"duration":"0.08"},{"name":"E2","midi":40,"time":"515.47","velocity":0.5118110236220472,"duration":"0.01"},{"name":"C#5","midi":73,"time":"515.47","velocity":0.3700787401574803,"duration":"0.07"},{"name":"E5","midi":76,"time":"515.47","velocity":0.4645669291338583,"duration":"0.84"},{"name":"E2","midi":40,"time":"515.50","velocity":0.4645669291338583,"duration":"0.02"},{"name":"B3","midi":59,"time":"515.50","velocity":0.3858267716535433,"duration":"0.02"},{"name":"D6","midi":86,"time":"515.52","velocity":0.14173228346456693,"duration":"0.14"},{"name":"B3","midi":59,"time":"515.53","velocity":0.3937007874015748,"duration":"0.02"},{"name":"D5","midi":74,"time":"515.53","velocity":0.25196850393700787,"duration":"0.05"},{"name":"E3","midi":52,"time":"515.56","velocity":0.3858267716535433,"duration":"0.02"},{"name":"B4","midi":71,"time":"515.56","velocity":0.44881889763779526,"duration":"0.12"},{"name":"C6","midi":84,"time":"515.56","velocity":0.14960629921259844,"duration":"0.07"},{"name":"A3","midi":57,"time":"515.57","velocity":0.41732283464566927,"duration":"0.06"},{"name":"F#6","midi":90,"time":"515.58","velocity":0.2204724409448819,"duration":"0.03"},{"name":"G#2","midi":44,"time":"515.59","velocity":0.5748031496062992,"duration":"0.01"},{"name":"G6","midi":91,"time":"515.59","velocity":0.23622047244094488,"duration":"0.52"},{"name":"A2","midi":45,"time":"515.60","velocity":0.5511811023622047,"duration":"0.01"},{"name":"G#6","midi":92,"time":"515.60","velocity":0.14960629921259844,"duration":"0.10"},{"name":"A#6","midi":94,"time":"515.60","velocity":0.14173228346456693,"duration":"0.35"},{"name":"A#2","midi":46,"time":"515.62","velocity":0.5511811023622047,"duration":"0.01"},{"name":"C#5","midi":73,"time":"515.62","velocity":0.2992125984251969,"duration":"0.13"},{"name":"G#2","midi":44,"time":"515.63","velocity":0.5984251968503937,"duration":"0.01"},{"name":"G5","midi":79,"time":"515.63","velocity":0.2283464566929134,"duration":"0.06"},{"name":"F#6","midi":90,"time":"515.63","velocity":0.1732283464566929,"duration":"0.03"},{"name":"A2","midi":45,"time":"515.64","velocity":0.5748031496062992,"duration":"0.02"},{"name":"G#2","midi":44,"time":"515.66","velocity":0.6141732283464567,"duration":"0.01"},{"name":"E4","midi":64,"time":"515.66","velocity":0.41732283464566927,"duration":"0.15"},{"name":"F7","midi":101,"time":"515.66","velocity":0.14173228346456693,"duration":"0.17"},{"name":"A2","midi":45,"time":"515.67","velocity":0.6299212598425197,"duration":"0.14"},{"name":"B3","midi":59,"time":"515.67","velocity":0.3228346456692913,"duration":"0.02"},{"name":"B4","midi":71,"time":"515.70","velocity":0.3779527559055118,"duration":"0.06"},{"name":"G5","midi":79,"time":"515.70","velocity":0.33070866141732286,"duration":"0.20"},{"name":"F#6","midi":90,"time":"515.71","velocity":0.11811023622047244,"duration":"0.03"},{"name":"G4","midi":67,"time":"515.73","velocity":0.3937007874015748,"duration":"0.07"},{"name":"C7","midi":96,"time":"515.74","velocity":0.2440944881889764,"duration":"0.19"},{"name":"D7","midi":98,"time":"515.74","velocity":0.2440944881889764,"duration":"0.56"},{"name":"G#6","midi":92,"time":"515.76","velocity":0.16535433070866143,"duration":"0.13"},{"name":"A#3","midi":58,"time":"515.77","velocity":0.4094488188976378,"duration":"0.02"},{"name":"D#5","midi":75,"time":"515.77","velocity":0.25984251968503935,"duration":"0.03"},{"name":"F6","midi":89,"time":"515.79","velocity":0.10236220472440945,"duration":"0.03"},{"name":"F#4","midi":66,"time":"515.80","velocity":0.4409448818897638,"duration":"0.06"},{"name":"B5","midi":83,"time":"515.80","velocity":0.30708661417322836,"duration":"0.53"},{"name":"G#2","midi":44,"time":"515.81","velocity":0.6062992125984252,"duration":"0.01"},{"name":"D#6","midi":87,"time":"515.81","velocity":0.1732283464566929,"duration":"0.08"},{"name":"F#7","midi":102,"time":"515.81","velocity":0.2047244094488189,"duration":"0.62"},{"name":"A2","midi":45,"time":"515.83","velocity":0.5826771653543307,"duration":"0.02"},{"name":"C4","midi":60,"time":"515.83","velocity":0.3937007874015748,"duration":"0.02"},{"name":"C#5","midi":73,"time":"515.84","velocity":0.2440944881889764,"duration":"0.07"},{"name":"C#7","midi":97,"time":"515.84","velocity":0.23622047244094488,"duration":"0.36"},{"name":"G#2","midi":44,"time":"515.85","velocity":0.5984251968503937,"duration":"0.01"},{"name":"E4","midi":64,"time":"515.85","velocity":0.4881889763779528,"duration":"0.20"},{"name":"D#5","midi":75,"time":"515.85","velocity":0.25196850393700787,"duration":"0.03"},{"name":"F#6","midi":90,"time":"515.85","velocity":0.12598425196850394,"duration":"0.13"},{"name":"A2","midi":45,"time":"515.86","velocity":0.5433070866141733,"duration":"0.02"},{"name":"B4","midi":71,"time":"515.86","velocity":0.2992125984251969,"duration":"0.05"},{"name":"F7","midi":101,"time":"515.86","velocity":0.1889763779527559,"duration":"0.23"},{"name":"F#4","midi":66,"time":"515.87","velocity":0.3779527559055118,"duration":"0.02"},{"name":"D6","midi":86,"time":"515.87","velocity":0.2125984251968504,"duration":"0.07"},{"name":"G#2","midi":44,"time":"515.88","velocity":0.5748031496062992,"duration":"0.01"},{"name":"C#6","midi":85,"time":"515.88","velocity":0.2440944881889764,"duration":"0.15"},{"name":"A3","midi":57,"time":"515.90","velocity":0.41732283464566927,"duration":"0.02"},{"name":"G4","midi":67,"time":"515.90","velocity":0.3937007874015748,"duration":"0.05"},{"name":"G#6","midi":92,"time":"515.91","velocity":0.16535433070866143,"duration":"0.05"},{"name":"G#2","midi":44,"time":"515.92","velocity":0.5275590551181102,"duration":"0.01"},{"name":"A#3","midi":58,"time":"515.92","velocity":0.44881889763779526,"duration":"0.02"},{"name":"B3","midi":59,"time":"515.94","velocity":0.4094488188976378,"duration":"0.02"},{"name":"G5","midi":79,"time":"515.94","velocity":0.30708661417322836,"duration":"0.28"},{"name":"F6","midi":89,"time":"515.94","velocity":0.2440944881889764,"duration":"0.15"},{"name":"C7","midi":96,"time":"515.94","velocity":0.16535433070866143,"duration":"0.14"},{"name":"G#6","midi":92,"time":"515.97","velocity":0.1732283464566929,"duration":"0.08"},{"name":"E3","midi":52,"time":"515.98","velocity":0.30708661417322836,"duration":"0.02"},{"name":"C#5","midi":73,"time":"515.98","velocity":0.1968503937007874,"duration":"0.03"},{"name":"D#6","midi":87,"time":"515.98","velocity":0.1732283464566929,"duration":"0.10"},{"name":"A#6","midi":94,"time":"515.98","velocity":0.11023622047244094,"duration":"0.06"},{"name":"B4","midi":71,"time":"516.00","velocity":0.30708661417322836,"duration":"0.09"},{"name":"D3","midi":50,"time":"516.03","velocity":0.36220472440944884,"duration":"0.02"},{"name":"G#2","midi":44,"time":"516.05","velocity":0.4251968503937008,"duration":"0.02"},{"name":"F#6","midi":90,"time":"516.05","velocity":0.12598425196850394,"duration":"0.12"},{"name":"D4","midi":62,"time":"516.07","velocity":0.33858267716535434,"duration":"0.02"},{"name":"C#5","midi":73,"time":"516.07","velocity":0.3858267716535433,"duration":"0.67"},{"name":"G#6","midi":92,"time":"516.08","velocity":0.18110236220472442,"duration":"0.15"},{"name":"A#6","midi":94,"time":"516.08","velocity":0.14173228346456693,"duration":"0.10"},{"name":"E4","midi":64,"time":"516.09","velocity":0.2992125984251969,"duration":"0.02"},{"name":"C7","midi":96,"time":"516.09","velocity":0.2125984251968504,"duration":"0.15"},{"name":"A2","midi":45,"time":"516.10","velocity":0.5433070866141733,"duration":"0.02"},{"name":"B3","midi":59,"time":"516.10","velocity":0.41732283464566927,"duration":"0.02"},{"name":"D#6","midi":87,"time":"516.10","velocity":0.18110236220472442,"duration":"0.09"},{"name":"D4","midi":62,"time":"516.12","velocity":0.36220472440944884,"duration":"0.02"},{"name":"G#2","midi":44,"time":"516.13","velocity":0.5196850393700787,"duration":"0.01"},{"name":"F7","midi":101,"time":"516.13","velocity":0.14173228346456693,"duration":"0.13"},{"name":"A2","midi":45,"time":"516.14","velocity":0.6377952755905512,"duration":"0.21"},{"name":"E4","midi":64,"time":"516.14","velocity":0.33858267716535434,"duration":"0.03"},{"name":"C4","midi":60,"time":"516.16","velocity":0.4409448818897638,"duration":"0.03"},{"name":"G4","midi":67,"time":"516.17","velocity":0.3464566929133858,"duration":"0.02"},{"name":"B4","midi":71,"time":"516.19","velocity":0.29133858267716534,"duration":"0.02"},{"name":"E4","midi":64,"time":"516.20","velocity":0.31496062992125984,"duration":"0.06"},{"name":"G#5","midi":80,"time":"516.21","velocity":0.2283464566929134,"duration":"0.02"},{"name":"C#7","midi":97,"time":"516.21","velocity":0.2047244094488189,"duration":"0.21"},{"name":"B3","midi":59,"time":"516.22","velocity":0.49606299212598426,"duration":"0.06"},{"name":"A#6","midi":94,"time":"516.22","velocity":0.16535433070866143,"duration":"0.17"},{"name":"G5","midi":79,"time":"516.23","velocity":0.31496062992125984,"duration":"0.24"},{"name":"D#7","midi":99,"time":"516.24","velocity":0.11811023622047244,"duration":"0.05"},{"name":"G#6","midi":92,"time":"516.26","velocity":0.1968503937007874,"duration":"0.27"},{"name":"G#5","midi":80,"time":"516.27","velocity":0.2992125984251969,"duration":"0.07"},{"name":"C7","midi":96,"time":"516.27","velocity":0.1889763779527559,"duration":"0.30"},{"name":"B3","midi":59,"time":"516.29","velocity":0.4645669291338583,"duration":"0.02"},{"name":"F7","midi":101,"time":"516.29","velocity":0.1732283464566929,"duration":"0.31"},{"name":"A#5","midi":82,"time":"516.30","velocity":0.12598425196850394,"duration":"0.03"},{"name":"F#6","midi":90,"time":"516.30","velocity":0.13385826771653545,"duration":"0.06"},{"name":"A#3","midi":58,"time":"516.31","velocity":0.4645669291338583,"duration":"0.02"},{"name":"E5","midi":76,"time":"516.31","velocity":0.3700787401574803,"duration":"0.23"},{"name":"D7","midi":98,"time":"516.33","velocity":0.11023622047244094,"duration":"0.03"},{"name":"E3","midi":52,"time":"516.34","velocity":0.3858267716535433,"duration":"0.02"},{"name":"B3","midi":59,"time":"516.34","velocity":0.3779527559055118,"duration":"0.02"},{"name":"A5","midi":81,"time":"516.34","velocity":0.5984251968503937,"duration":"0.36"},{"name":"D#7","midi":99,"time":"516.34","velocity":0.11811023622047244,"duration":"0.14"},{"name":"G#2","midi":44,"time":"516.35","velocity":0.6220472440944882,"duration":"0.01"},{"name":"A2","midi":45,"time":"516.36","velocity":0.6220472440944882,"duration":"0.02"},{"name":"E4","midi":64,"time":"516.36","velocity":0.3228346456692913,"duration":"0.09"},{"name":"E3","midi":52,"time":"516.37","velocity":0.4015748031496063,"duration":"0.08"},{"name":"B5","midi":83,"time":"516.37","velocity":0.1889763779527559,"duration":"0.05"},{"name":"G#2","midi":44,"time":"516.38","velocity":0.6220472440944882,"duration":"0.01"},{"name":"A2","midi":45,"time":"516.40","velocity":0.6220472440944882,"duration":"0.02"},{"name":"D7","midi":98,"time":"516.40","velocity":0.10236220472440945,"duration":"0.03"},{"name":"G#2","midi":44,"time":"516.42","velocity":0.6220472440944882,"duration":"0.01"},{"name":"A2","midi":45,"time":"516.43","velocity":0.6141732283464567,"duration":"0.10"},{"name":"A#3","midi":58,"time":"516.43","velocity":0.4881889763779528,"duration":"0.02"},{"name":"B5","midi":83,"time":"516.43","velocity":0.25984251968503935,"duration":"0.12"},{"name":"A#6","midi":94,"time":"516.43","velocity":0.07874015748031496,"duration":"0.08"},{"name":"F#4","midi":66,"time":"516.44","velocity":0.25984251968503935,"duration":"0.02"},{"name":"F#6","midi":90,"time":"516.44","velocity":0.11811023622047244,"duration":"0.07"},{"name":"D7","midi":98,"time":"516.44","velocity":0.13385826771653545,"duration":"0.17"},{"name":"E3","midi":52,"time":"516.47","velocity":0.29133858267716534,"duration":"0.02"},{"name":"F#7","midi":102,"time":"516.47","velocity":0.1732283464566929,"duration":"0.09"},{"name":"G5","midi":79,"time":"516.49","velocity":0.2204724409448819,"duration":"0.09"},{"name":"F#4","midi":66,"time":"516.51","velocity":0.2755905511811024,"duration":"0.02"},{"name":"G#2","midi":44,"time":"516.53","velocity":0.5275590551181102,"duration":"0.01"},{"name":"F#4","midi":66,"time":"516.55","velocity":0.2677165354330709,"duration":"0.03"},{"name":"A2","midi":45,"time":"516.56","velocity":0.5354330708661418,"duration":"0.01"},{"name":"B5","midi":83,"time":"516.56","velocity":0.18110236220472442,"duration":"0.05"},{"name":"A#3","midi":58,"time":"516.57","velocity":0.47244094488188976,"duration":"0.02"},{"name":"E5","midi":76,"time":"516.57","velocity":0.2755905511811024,"duration":"0.08"},{"name":"G#6","midi":92,"time":"516.57","velocity":0.16535433070866143,"duration":"0.08"},{"name":"F#6","midi":90,"time":"516.58","velocity":0.2047244094488189,"duration":"0.13"},{"name":"A3","midi":57,"time":"516.59","velocity":0.4409448818897638,"duration":"0.08"},{"name":"G5","midi":79,"time":"516.59","velocity":0.14960629921259844,"duration":"0.03"},{"name":"D#6","midi":87,"time":"516.60","velocity":0.08661417322834646,"duration":"0.03"},{"name":"D#2","midi":39,"time":"516.62","velocity":0.48031496062992124,"duration":"0.02"},{"name":"C#7","midi":97,"time":"516.62","velocity":0.16535433070866143,"duration":"0.26"},{"name":"G4","midi":67,"time":"516.63","velocity":0.29133858267716534,"duration":"0.02"},{"name":"E6","midi":88,"time":"516.63","velocity":0.2992125984251969,"duration":"0.80"},{"name":"B6","midi":95,"time":"516.63","velocity":0.14173228346456693,"duration":"0.23"},{"name":"G6","midi":91,"time":"516.64","velocity":0.15748031496062992,"duration":"0.08"},{"name":"F#4","midi":66,"time":"516.65","velocity":0.2992125984251969,"duration":"0.05"},{"name":"G5","midi":79,"time":"516.65","velocity":0.2204724409448819,"duration":"0.19"},{"name":"B5","midi":83,"time":"516.65","velocity":0.2204724409448819,"duration":"0.21"},{"name":"E3","midi":52,"time":"516.66","velocity":0.2677165354330709,"duration":"0.02"},{"name":"E2","midi":40,"time":"516.67","velocity":0.4645669291338583,"duration":"0.03"},{"name":"A#3","midi":58,"time":"516.67","velocity":0.4094488188976378,"duration":"0.02"},{"name":"E5","midi":76,"time":"516.67","velocity":0.4015748031496063,"duration":"0.58"},{"name":"C7","midi":96,"time":"516.67","velocity":0.11023622047244094,"duration":"0.12"},{"name":"F7","midi":101,"time":"516.69","velocity":0.11023622047244094,"duration":"0.05"},{"name":"G7","midi":103,"time":"516.69","velocity":0.2047244094488189,"duration":"0.12"},{"name":"D7","midi":98,"time":"516.70","velocity":0.14960629921259844,"duration":"0.03"},{"name":"D#2","midi":39,"time":"516.71","velocity":0.4881889763779528,"duration":"0.02"},{"name":"A#3","midi":58,"time":"516.71","velocity":0.5039370078740157,"duration":"0.03"},{"name":"A5","midi":81,"time":"516.71","velocity":0.6062992125984252,"duration":"0.69"},{"name":"D#7","midi":99,"time":"516.71","velocity":0.14173228346456693,"duration":"0.16"},{"name":"G#6","midi":92,"time":"516.73","velocity":0.11023622047244094,"duration":"0.07"},{"name":"A3","midi":57,"time":"516.74","velocity":0.4409448818897638,"duration":"0.08"},{"name":"F#6","midi":90,"time":"516.74","velocity":0.10236220472440945,"duration":"0.03"},{"name":"F7","midi":101,"time":"516.74","velocity":0.11023622047244094,"duration":"0.03"},{"name":"E2","midi":40,"time":"516.76","velocity":0.5354330708661418,"duration":"0.01"},{"name":"E4","midi":64,"time":"516.76","velocity":0.2992125984251969,"duration":"0.22"},{"name":"C#5","midi":73,"time":"516.76","velocity":0.3543307086614173,"duration":"0.10"},{"name":"F#7","midi":102,"time":"516.76","velocity":0.11811023622047244,"duration":"0.08"},{"name":"F2","midi":41,"time":"516.77","velocity":0.5433070866141733,"duration":"0.01"},{"name":"D#2","midi":39,"time":"516.79","velocity":0.5196850393700787,"duration":"0.01"},{"name":"E3","midi":52,"time":"516.79","velocity":0.33858267716535434,"duration":"0.02"},{"name":"F2","midi":41,"time":"516.80","velocity":0.5354330708661418,"duration":"0.01"},{"name":"G#5","midi":80,"time":"516.80","velocity":0.30708661417322836,"duration":"0.03"},{"name":"F#6","midi":90,"time":"516.80","velocity":0.08661417322834646,"duration":"0.09"},{"name":"F2","midi":41,"time":"516.84","velocity":0.5511811023622047,"duration":"0.01"},{"name":"A3","midi":57,"time":"516.84","velocity":0.47244094488188976,"duration":"0.03"},{"name":"F7","midi":101,"time":"516.85","velocity":0.09448818897637795,"duration":"0.07"},{"name":"A#2","midi":46,"time":"516.86","velocity":0.5118110236220472,"duration":"0.01"},{"name":"D5","midi":74,"time":"516.86","velocity":0.15748031496062992,"duration":"0.03"},{"name":"F2","midi":41,"time":"516.87","velocity":0.5511811023622047,"duration":"0.01"},{"name":"B5","midi":83,"time":"516.87","velocity":0.1968503937007874,"duration":"0.16"},{"name":"F#7","midi":102,"time":"516.87","velocity":0.16535433070866143,"duration":"0.05"},{"name":"B3","midi":59,"time":"516.88","velocity":0.2677165354330709,"duration":"0.02"},{"name":"G7","midi":103,"time":"516.88","velocity":0.10236220472440945,"duration":"0.06"},{"name":"G6","midi":91,"time":"516.90","velocity":0.1889763779527559,"duration":"0.17"},{"name":"F2","midi":41,"time":"516.91","velocity":0.5511811023622047,"duration":"0.01"},{"name":"C#5","midi":73,"time":"516.91","velocity":0.31496062992125984,"duration":"0.36"},{"name":"G5","midi":79,"time":"516.93","velocity":0.14173228346456693,"duration":"0.05"},{"name":"A2","midi":45,"time":"516.94","velocity":0.5590551181102362,"duration":"0.01"},{"name":"G#2","midi":44,"time":"516.95","velocity":0.5433070866141733,"duration":"0.01"},{"name":"A#2","midi":46,"time":"516.97","velocity":0.5196850393700787,"duration":"0.01"},{"name":"F#7","midi":102,"time":"516.97","velocity":0.11811023622047244,"duration":"0.08"},{"name":"A3","midi":57,"time":"516.98","velocity":0.4566929133858268,"duration":"0.02"},{"name":"F#5","midi":78,"time":"516.98","velocity":0.14960629921259844,"duration":"0.03"},{"name":"G#4","midi":68,"time":"516.99","velocity":0.3858267716535433,"duration":"0.03"},{"name":"C7","midi":96,"time":"517.00","velocity":0.10236220472440945,"duration":"0.03"},{"name":"D7","midi":98,"time":"517.00","velocity":0.11023622047244094,"duration":"0.12"},{"name":"A2","midi":45,"time":"517.01","velocity":0.5118110236220472,"duration":"0.01"},{"name":"E4","midi":64,"time":"517.01","velocity":0.2204724409448819,"duration":"0.03"},{"name":"G5","midi":79,"time":"517.01","velocity":0.25196850393700787,"duration":"0.12"},{"name":"A4","midi":69,"time":"517.02","velocity":0.3858267716535433,"duration":"0.05"},{"name":"A#6","midi":94,"time":"517.02","velocity":0.09448818897637795,"duration":"0.03"},{"name":"G7","midi":103,"time":"517.02","velocity":0.2125984251968504,"duration":"0.16"},{"name":"A#3","midi":58,"time":"517.05","velocity":0.41732283464566927,"duration":"0.02"},{"name":"C7","midi":96,"time":"517.05","velocity":0.10236220472440945,"duration":"0.09"},{"name":"F2","midi":41,"time":"517.06","velocity":0.4645669291338583,"duration":"0.02"},{"name":"G#6","midi":92,"time":"517.06","velocity":0.12598425196850394,"duration":"0.33"},{"name":"F7","midi":101,"time":"517.06","velocity":0.07086614173228346,"duration":"0.09"},{"name":"G#4","midi":68,"time":"517.07","velocity":0.33858267716535434,"duration":"0.10"},{"name":"F#6","midi":90,"time":"517.08","velocity":0.11811023622047244,"duration":"0.07"},{"name":"C#7","midi":97,"time":"517.08","velocity":0.1732283464566929,"duration":"0.16"},{"name":"F#7","midi":102,"time":"517.08","velocity":0.13385826771653545,"duration":"0.08"},{"name":"B3","midi":59,"time":"517.09","velocity":0.3228346456692913,"duration":"0.02"},{"name":"G3","midi":55,"time":"517.12","velocity":0.3779527559055118,"duration":"0.02"},{"name":"B5","midi":83,"time":"517.12","velocity":0.14960629921259844,"duration":"0.08"},{"name":"G6","midi":91,"time":"517.13","velocity":0.28346456692913385,"duration":"0.10"},{"name":"F#3","midi":54,"time":"517.14","velocity":0.4251968503937008,"duration":"0.02"},{"name":"D6","midi":86,"time":"517.14","velocity":0.07086614173228346,"duration":"0.03"},{"name":"F6","midi":89,"time":"517.14","velocity":0.08661417322834646,"duration":"0.03"},{"name":"A2","midi":45,"time":"517.16","velocity":0.5275590551181102,"duration":"0.01"},{"name":"F#5","midi":78,"time":"517.16","velocity":0.1732283464566929,"duration":"0.05"},{"name":"B3","midi":59,"time":"517.17","velocity":0.36220472440944884,"duration":"0.03"},{"name":"D#6","midi":87,"time":"517.17","velocity":0.13385826771653545,"duration":"0.03"},{"name":"A4","midi":69,"time":"517.19","velocity":0.4409448818897638,"duration":"0.08"},{"name":"F#7","midi":102,"time":"517.19","velocity":0.14173228346456693,"duration":"0.05"},{"name":"F2","midi":41,"time":"517.21","velocity":0.5039370078740157,"duration":"0.02"},{"name":"C4","midi":60,"time":"517.21","velocity":0.3464566929133858,"duration":"0.02"},{"name":"G5","midi":79,"time":"517.21","velocity":0.2125984251968504,"duration":"0.19"},{"name":"D6","midi":86,"time":"517.21","velocity":0.07086614173228346,"duration":"0.03"},{"name":"B5","midi":83,"time":"517.22","velocity":0.1968503937007874,"duration":"0.14"},{"name":"F#6","midi":90,"time":"517.22","velocity":0.15748031496062992,"duration":"0.05"},{"name":"F2","midi":41,"time":"517.24","velocity":0.5196850393700787,"duration":"0.02"},{"name":"E4","midi":64,"time":"517.24","velocity":0.2204724409448819,"duration":"0.17"},{"name":"C4","midi":60,"time":"517.26","velocity":0.29133858267716534,"duration":"0.02"},{"name":"D#5","midi":75,"time":"517.26","velocity":0.09448818897637795,"duration":"0.03"},{"name":"E3","midi":52,"time":"517.27","velocity":0.4566929133858268,"duration":"0.05"},{"name":"G#4","midi":68,"time":"517.27","velocity":0.2992125984251969,"duration":"0.05"},{"name":"E5","midi":76,"time":"517.27","velocity":0.36220472440944884,"duration":"0.28"},{"name":"C#5","midi":73,"time":"517.28","velocity":0.33858267716535434,"duration":"0.58"},{"name":"E2","midi":40,"time":"517.31","velocity":0.5039370078740157,"duration":"0.02"},{"name":"A4","midi":69,"time":"517.31","velocity":0.44881889763779526,"duration":"0.08"},{"name":"D7","midi":98,"time":"517.31","velocity":0.09448818897637795,"duration":"0.09"},{"name":"B3","midi":59,"time":"517.34","velocity":0.2992125984251969,"duration":"0.06"},{"name":"D#3","midi":51,"time":"517.35","velocity":0.3464566929133858,"duration":"0.06"},{"name":"C7","midi":96,"time":"517.35","velocity":0.11023622047244094,"duration":"0.05"},{"name":"E2","midi":40,"time":"517.37","velocity":0.48031496062992124,"duration":"0.03"},{"name":"B5","midi":83,"time":"517.37","velocity":0.15748031496062992,"duration":"0.03"},{"name":"G#4","midi":68,"time":"517.40","velocity":0.33070866141732286,"duration":"0.02"},{"name":"C#4","midi":61,"time":"517.41","velocity":0.23622047244094488,"duration":"0.02"},{"name":"A5","midi":81,"time":"517.41","velocity":0.5511811023622047,"duration":"2.41"},{"name":"B6","midi":95,"time":"517.41","velocity":0.11811023622047244,"duration":"0.03"},{"name":"A4","midi":69,"time":"517.42","velocity":0.4566929133858268,"duration":"0.56"},{"name":"D7","midi":98,"time":"517.42","velocity":0.12598425196850394,"duration":"0.06"},{"name":"B3","midi":59,"time":"517.44","velocity":0.2440944881889764,"duration":"0.03"},{"name":"G5","midi":79,"time":"517.44","velocity":0.1732283464566929,"duration":"0.05"},{"name":"B5","midi":83,"time":"517.44","velocity":0.1889763779527559,"duration":"0.34"},{"name":"E4","midi":64,"time":"517.45","velocity":0.3543307086614173,"duration":"0.49"},{"name":"F#7","midi":102,"time":"517.45","velocity":0.10236220472440945,"duration":"0.08"},{"name":"A#3","midi":58,"time":"517.49","velocity":0.2283464566929134,"duration":"0.03"},{"name":"F3","midi":53,"time":"517.51","velocity":0.31496062992125984,"duration":"0.02"},{"name":"G5","midi":79,"time":"517.53","velocity":0.2047244094488189,"duration":"0.05"},{"name":"D#3","midi":51,"time":"517.55","velocity":0.44881889763779526,"duration":"0.02"},{"name":"E2","midi":40,"time":"517.58","velocity":0.47244094488188976,"duration":"0.02"},{"name":"A3","midi":57,"time":"517.58","velocity":0.3779527559055118,"duration":"0.07"},{"name":"G#6","midi":92,"time":"517.59","velocity":0.07874015748031496,"duration":"0.06"},{"name":"C#7","midi":97,"time":"517.62","velocity":0.14173228346456693,"duration":"0.08"},{"name":"E2","midi":40,"time":"517.65","velocity":0.4330708661417323,"duration":"0.02"},{"name":"F#1","midi":30,"time":"517.66","velocity":0.3464566929133858,"duration":"0.02"},{"name":"A3","midi":57,"time":"517.66","velocity":0.33070866141732286,"duration":"0.02"},{"name":"G6","midi":91,"time":"517.67","velocity":0.1968503937007874,"duration":"0.23"},{"name":"G#6","midi":92,"time":"517.67","velocity":0.1732283464566929,"duration":"0.03"},{"name":"A#3","midi":58,"time":"517.70","velocity":0.3700787401574803,"duration":"0.02"},{"name":"A3","midi":57,"time":"517.71","velocity":0.3700787401574803,"duration":"0.02"},{"name":"A#3","midi":58,"time":"517.73","velocity":0.3937007874015748,"duration":"0.02"},{"name":"G5","midi":79,"time":"517.73","velocity":0.2440944881889764,"duration":"0.19"},{"name":"A2","midi":45,"time":"517.74","velocity":0.4645669291338583,"duration":"0.03"},{"name":"C7","midi":96,"time":"517.77","velocity":0.09448818897637795,"duration":"0.03"},{"name":"F#7","midi":102,"time":"517.77","velocity":0.14173228346456693,"duration":"0.08"},{"name":"F3","midi":53,"time":"517.78","velocity":0.30708661417322836,"duration":"0.02"},{"name":"A3","midi":57,"time":"517.78","velocity":0.4645669291338583,"duration":"0.86"},{"name":"F5","midi":77,"time":"517.78","velocity":0.15748031496062992,"duration":"0.03"},{"name":"G#6","midi":92,"time":"517.85","velocity":0.07874015748031496,"duration":"0.06"},{"name":"F5","midi":77,"time":"517.86","velocity":0.14960629921259844,"duration":"0.05"},{"name":"C#6","midi":85,"time":"517.86","velocity":0.10236220472440945,"duration":"0.08"},{"name":"B5","midi":83,"time":"517.87","velocity":0.14960629921259844,"duration":"0.03"},{"name":"C#7","midi":97,"time":"517.87","velocity":0.13385826771653545,"duration":"0.05"},{"name":"G#2","midi":44,"time":"517.88","velocity":0.4330708661417323,"duration":"0.02"},{"name":"C#5","midi":73,"time":"517.88","velocity":0.2204724409448819,"duration":"0.14"},{"name":"E6","midi":88,"time":"517.91","velocity":0.2125984251968504,"duration":"0.07"},{"name":"G7","midi":103,"time":"517.91","velocity":0.10236220472440945,"duration":"0.05"},{"name":"E2","midi":40,"time":"517.92","velocity":0.44881889763779526,"duration":"0.06"},{"name":"E4","midi":64,"time":"517.97","velocity":0.2283464566929134,"duration":"0.07"},{"name":"B5","midi":83,"time":"517.99","velocity":0.13385826771653545,"duration":"0.05"},{"name":"D#5","midi":75,"time":"518.00","velocity":0.12598425196850394,"duration":"0.03"},{"name":"C#7","midi":97,"time":"518.03","velocity":0.07086614173228346,"duration":"0.05"},{"name":"G7","midi":103,"time":"518.03","velocity":0.11023622047244094,"duration":"0.03"},{"name":"F2","midi":41,"time":"518.05","velocity":0.4881889763779528,"duration":"0.02"},{"name":"C#5","midi":73,"time":"518.06","velocity":0.30708661417322836,"duration":"0.27"},{"name":"E4","midi":64,"time":"518.10","velocity":0.31496062992125984,"duration":"0.38"},{"name":"G6","midi":91,"time":"518.14","velocity":0.11811023622047244,"duration":"0.03"},{"name":"G5","midi":79,"time":"518.15","velocity":0.23622047244094488,"duration":"0.22"},{"name":"A#2","midi":46,"time":"518.17","velocity":0.4330708661417323,"duration":"0.02"},{"name":"G#6","midi":92,"time":"518.17","velocity":0.13385826771653545,"duration":"0.06"},{"name":"E7","midi":100,"time":"518.17","velocity":0.14173228346456693,"duration":"0.14"},{"name":"B5","midi":83,"time":"518.21","velocity":0.15748031496062992,"duration":"0.09"},{"name":"A2","midi":45,"time":"518.27","velocity":0.47244094488188976,"duration":"0.02"},{"name":"A2","midi":45,"time":"518.30","velocity":0.47244094488188976,"duration":"0.03"},{"name":"G7","midi":103,"time":"518.30","velocity":0.10236220472440945,"duration":"0.03"},{"name":"G#2","midi":44,"time":"518.34","velocity":0.5118110236220472,"duration":"0.01"},{"name":"G#6","midi":92,"time":"518.35","velocity":0.10236220472440945,"duration":"0.07"},{"name":"A2","midi":45,"time":"518.37","velocity":0.5275590551181102,"duration":"0.01"},{"name":"G6","midi":91,"time":"518.37","velocity":0.11811023622047244,"duration":"0.03"},{"name":"G#2","midi":44,"time":"518.38","velocity":0.5275590551181102,"duration":"0.01"},{"name":"E7","midi":100,"time":"518.38","velocity":0.14173228346456693,"duration":"0.05"},{"name":"A2","midi":45,"time":"518.40","velocity":0.5275590551181102,"duration":"0.05"},{"name":"C#5","midi":73,"time":"518.40","velocity":0.28346456692913385,"duration":"0.38"},{"name":"G#4","midi":68,"time":"518.41","velocity":0.2992125984251969,"duration":"0.02"},{"name":"G1","midi":31,"time":"518.43","velocity":0.3543307086614173,"duration":"0.02"},{"name":"G#2","midi":44,"time":"518.44","velocity":0.5196850393700787,"duration":"0.01"},{"name":"G#2","midi":44,"time":"518.48","velocity":0.5118110236220472,"duration":"0.02"},{"name":"F5","midi":77,"time":"518.49","velocity":0.12598425196850394,"duration":"0.06"},{"name":"E7","midi":100,"time":"518.49","velocity":0.09448818897637795,"duration":"0.05"},{"name":"E4","midi":64,"time":"518.50","velocity":0.2992125984251969,"duration":"0.77"},{"name":"G#2","midi":44,"time":"518.52","velocity":0.5039370078740157,"duration":"0.02"},{"name":"G5","midi":79,"time":"518.53","velocity":0.09448818897637795,"duration":"0.03"},{"name":"G6","midi":91,"time":"518.53","velocity":0.14173228346456693,"duration":"0.17"},{"name":"A2","midi":45,"time":"518.58","velocity":0.4251968503937008,"duration":"0.02"},{"name":"F5","midi":77,"time":"518.59","velocity":0.16535433070866143,"duration":"0.12"},{"name":"G#2","midi":44,"time":"518.60","velocity":0.4645669291338583,"duration":"0.02"},{"name":"E7","midi":100,"time":"518.63","velocity":0.09448818897637795,"duration":"0.05"},{"name":"G5","midi":79,"time":"518.64","velocity":0.1968503937007874,"duration":"0.26"},{"name":"A4","midi":69,"time":"518.65","velocity":0.2440944881889764,"duration":"0.10"},{"name":"E6","midi":88,"time":"518.65","velocity":0.12598425196850394,"duration":"0.03"},{"name":"A2","midi":45,"time":"518.66","velocity":0.4330708661417323,"duration":"0.02"},{"name":"G#6","midi":92,"time":"518.66","velocity":0.09448818897637795,"duration":"0.06"},{"name":"G#2","midi":44,"time":"518.69","velocity":0.4251968503937008,"duration":"0.02"},{"name":"A2","midi":45,"time":"518.71","velocity":0.4251968503937008,"duration":"0.07"},{"name":"B5","midi":83,"time":"518.76","velocity":0.10236220472440945,"duration":"0.03"},{"name":"E7","midi":100,"time":"518.79","velocity":0.12598425196850394,"duration":"0.03"},{"name":"B3","midi":59,"time":"518.80","velocity":0.14960629921259844,"duration":"0.03"},{"name":"A4","midi":69,"time":"518.81","velocity":0.3228346456692913,"duration":"0.19"},{"name":"A2","midi":45,"time":"518.83","velocity":0.4094488188976378,"duration":"0.02"},{"name":"C#5","midi":73,"time":"518.83","velocity":0.25196850393700787,"duration":"0.30"},{"name":"A3","midi":57,"time":"518.85","velocity":0.3228346456692913,"duration":"0.22"},{"name":"C#4","midi":61,"time":"518.90","velocity":0.18110236220472442,"duration":"0.05"},{"name":"B5","midi":83,"time":"518.90","velocity":0.10236220472440945,"duration":"0.05"},{"name":"E5","midi":76,"time":"518.91","velocity":0.2992125984251969,"duration":"0.22"},{"name":"G5","midi":79,"time":"518.91","velocity":0.12598425196850394,"duration":"0.06"},{"name":"A#2","midi":46,"time":"518.98","velocity":0.3700787401574803,"duration":"0.02"},{"name":"F2","midi":41,"time":"518.99","velocity":0.4566929133858268,"duration":"0.02"},{"name":"B5","midi":83,"time":"519.05","velocity":0.10236220472440945,"duration":"0.08"},{"name":"C#4","midi":61,"time":"519.10","velocity":0.18110236220472442,"duration":"0.06"},{"name":"C#6","midi":85,"time":"519.13","velocity":0.11023622047244094,"duration":"0.06"},{"name":"E6","midi":88,"time":"519.13","velocity":0.11023622047244094,"duration":"0.07"},{"name":"G#2","midi":44,"time":"519.15","velocity":0.41732283464566927,"duration":"0.02"},{"name":"B5","midi":83,"time":"519.15","velocity":0.09448818897637795,"duration":"0.03"},{"name":"A4","midi":69,"time":"519.16","velocity":0.1889763779527559,"duration":"0.06"},{"name":"A2","midi":45,"time":"519.17","velocity":0.4251968503937008,"duration":"0.02"},{"name":"B3","midi":59,"time":"519.21","velocity":0.11811023622047244,"duration":"0.05"},{"name":"G#4","midi":68,"time":"519.22","velocity":0.1968503937007874,"duration":"0.05"},{"name":"A4","midi":69,"time":"519.24","velocity":0.25196850393700787,"duration":"0.14"},{"name":"G5","midi":79,"time":"519.24","velocity":0.18110236220472442,"duration":"0.16"},{"name":"C#5","midi":73,"time":"519.28","velocity":0.2204724409448819,"duration":"0.44"},{"name":"C#4","midi":61,"time":"519.30","velocity":0.1732283464566929,"duration":"0.06"},{"name":"A3","midi":57,"time":"519.31","velocity":0.3228346456692913,"duration":"0.37"},{"name":"E4","midi":64,"time":"519.31","velocity":0.16535433070866143,"duration":"0.43"},{"name":"G#2","midi":44,"time":"519.38","velocity":0.3779527559055118,"duration":"0.02"},{"name":"F5","midi":77,"time":"519.40","velocity":0.08661417322834646,"duration":"0.05"},{"name":"G#2","midi":44,"time":"519.42","velocity":0.3779527559055118,"duration":"0.02"},{"name":"E5","midi":76,"time":"519.45","velocity":0.18110236220472442,"duration":"0.35"},{"name":"A2","midi":45,"time":"519.48","velocity":0.3700787401574803,"duration":"0.02"},{"name":"A2","midi":45,"time":"519.51","velocity":0.3543307086614173,"duration":"0.02"},{"name":"G#2","midi":44,"time":"519.57","velocity":0.3700787401574803,"duration":"0.02"},{"name":"A2","midi":45,"time":"519.59","velocity":0.3700787401574803,"duration":"0.02"},{"name":"A2","midi":45,"time":"519.63","velocity":0.36220472440944884,"duration":"0.02"},{"name":"A2","midi":45,"time":"519.66","velocity":0.3543307086614173,"duration":"0.02"},{"name":"G#2","midi":44,"time":"519.72","velocity":0.3543307086614173,"duration":"0.02"},{"name":"C#5","midi":73,"time":"519.80","velocity":0.14173228346456693,"duration":"0.15"},{"name":"E4","midi":64,"time":"519.84","velocity":0.11023622047244094,"duration":"0.27"},{"name":"A4","midi":69,"time":"519.84","velocity":0.2677165354330709,"duration":"0.35"},{"name":"A3","midi":57,"time":"519.86","velocity":0.18110236220472442,"duration":"0.30"},{"name":"E5","midi":76,"time":"519.95","velocity":0.15748031496062992,"duration":"0.31"},{"name":"C#5","midi":73,"time":"520.02","velocity":0.13385826771653545,"duration":"0.10"},{"name":"A2","midi":45,"time":"520.03","velocity":0.3228346456692913,"duration":"0.02"},{"name":"G#2","midi":44,"time":"520.13","velocity":0.3228346456692913,"duration":"0.02"},{"name":"A2","midi":45,"time":"520.15","velocity":0.30708661417322836,"duration":"0.02"},{"name":"E4","midi":64,"time":"520.16","velocity":0.07874015748031496,"duration":"0.13"},{"name":"A2","midi":45,"time":"520.19","velocity":0.2992125984251969,"duration":"0.02"},{"name":"C#5","midi":73,"time":"520.19","velocity":0.16535433070866143,"duration":"0.20"},{"name":"A5","midi":81,"time":"520.20","velocity":0.12598425196850394,"duration":"0.03"},{"name":"A4","midi":69,"time":"520.21","velocity":0.14960629921259844,"duration":"0.09"},{"name":"G#2","midi":44,"time":"520.24","velocity":0.31496062992125984,"duration":"0.02"},{"name":"A5","midi":81,"time":"520.26","velocity":0.14960629921259844,"duration":"0.23"},{"name":"G#2","midi":44,"time":"520.28","velocity":0.31496062992125984,"duration":"0.02"},{"name":"A2","midi":45,"time":"520.30","velocity":0.28346456692913385,"duration":"0.02"},{"name":"A4","midi":69,"time":"520.35","velocity":0.2047244094488189,"duration":"0.20"},{"name":"A3","midi":57,"time":"520.38","velocity":0.12598425196850394,"duration":"0.10"},{"name":"G#2","midi":44,"time":"520.43","velocity":0.28346456692913385,"duration":"0.02"},{"name":"G#2","midi":44,"time":"520.47","velocity":0.30708661417322836,"duration":"0.02"},{"name":"E5","midi":76,"time":"520.49","velocity":0.09448818897637795,"duration":"0.07"},{"name":"A2","midi":45,"time":"520.52","velocity":0.28346456692913385,"duration":"0.02"},{"name":"A2","midi":45,"time":"520.56","velocity":0.28346456692913385,"duration":"0.02"},{"name":"C#5","midi":73,"time":"520.57","velocity":0.12598425196850394,"duration":"0.09"},{"name":"E5","midi":76,"time":"520.58","velocity":0.10236220472440945,"duration":"0.08"},{"name":"G#2","midi":44,"time":"520.62","velocity":0.31496062992125984,"duration":"0.02"},{"name":"G#2","midi":44,"time":"520.65","velocity":0.30708661417322836,"duration":"0.02"},{"name":"A4","midi":69,"time":"520.66","velocity":0.15748031496062992,"duration":"0.07"},{"name":"E2","midi":40,"time":"520.67","velocity":0.29133858267716534,"duration":"0.02"},{"name":"A5","midi":81,"time":"520.69","velocity":0.25196850393700787,"duration":"0.42"},{"name":"A3","midi":57,"time":"520.76","velocity":0.18110236220472442,"duration":"0.41"},{"name":"A4","midi":69,"time":"520.76","velocity":0.2125984251968504,"duration":"0.30"},{"name":"F2","midi":41,"time":"520.77","velocity":0.2992125984251969,"duration":"0.02"},{"name":"F2","midi":41,"time":"520.80","velocity":0.29133858267716534,"duration":"0.02"},{"name":"C#5","midi":73,"time":"520.80","velocity":0.09448818897637795,"duration":"0.09"},{"name":"D#2","midi":39,"time":"520.90","velocity":0.23622047244094488,"duration":"0.02"},{"name":"F2","midi":41,"time":"520.95","velocity":0.2283464566929134,"duration":"0.02"},{"name":"E5","midi":76,"time":"521.02","velocity":0.09448818897637795,"duration":"0.03"},{"name":"C#5","midi":73,"time":"521.15","velocity":0.09448818897637795,"duration":"0.07"},{"name":"A5","midi":81,"time":"521.23","velocity":0.1889763779527559,"duration":"0.22"},{"name":"A4","midi":69,"time":"521.26","velocity":0.14960629921259844,"duration":"0.06"},{"name":"A4","midi":69,"time":"521.37","velocity":0.1732283464566929,"duration":"0.09"},{"name":"A5","midi":81,"time":"521.65","velocity":0.07874015748031496,"duration":"0.03"},{"name":"A5","midi":81,"time":"521.74","velocity":0.14173228346456693,"duration":"0.08"}]}]}
