{"bpm":119.00016065021688,"duration":236.34001707499803,"tracks":[{"instrumentFamily":"piano","notes":[{"name":"G#3","midi":56,"time":2.016804000000002,"velocity":0.7244094488188977,"duration":0.2447475687499998},{"name":"G#3","midi":56,"time":2.2689045000000014,"velocity":0.7244094488188977,"duration":0.2447475687499998},{"name":"G#2","midi":44,"time":2.521005000000001,"velocity":0.7244094488188977,"duration":0.2447475687499998},{"name":"G#2","midi":44,"time":2.7731055000000007,"velocity":0.7244094488188977,"duration":0.2447475687499998},{"name":"D#3","midi":51,"time":3.0252060000000003,"velocity":0.7244094488188977,"duration":0.2447475687499998},{"name":"D#3","midi":51,"time":3.2773065,"velocity":0.7244094488188977,"duration":0.2447475687499998},{"name":"G#2","midi":44,"time":3.5294069999999995,"velocity":0.7244094488188977,"duration":0.2447475687499998},{"name":"G#2","midi":44,"time":3.781507499999999,"velocity":0.7244094488188977,"duration":0.24474756875000026},{"name":"G#3","midi":56,"time":4.033607999999999,"velocity":0.7244094488188977,"duration":0.24474756875000026},{"name":"G#3","midi":56,"time":4.285708499999999,"velocity":0.7244094488188977,"duration":0.24474756875000026},{"name":"E3","midi":52,"time":4.537808999999999,"velocity":0.7244094488188977,"duration":0.24474756875000026},{"name":"B2","midi":47,"time":4.789909499999999,"velocity":0.7244094488188977,"duration":0.24474756875000026},{"name":"F#3","midi":54,"time":5.042009999999999,"velocity":0.7244094488188977,"duration":0.24474756875000026},{"name":"F#3","midi":54,"time":5.2941104999999995,"velocity":0.7244094488188977,"duration":0.24474756875000026},{"name":"F#2","midi":42,"time":5.546211,"velocity":0.7244094488188977,"duration":0.24474756875000026},{"name":"F#2","midi":42,"time":5.7983115,"velocity":0.7244094488188977,"duration":0.24474756875000026},{"name":"G#3","midi":56,"time":6.050412,"velocity":0.7244094488188977,"duration":0.1743695125000002},{"name":"G#2","midi":44,"time":6.050412,"velocity":0.8110236220472441,"duration":0.1743695125000002},{"name":"G#3","midi":56,"time":6.050412,"velocity":0.8110236220472441,"duration":0.24474756875000026},{"name":"G#3","midi":56,"time":6.3025125,"velocity":0.7244094488188977,"duration":0.1743695125000002},{"name":"G#2","midi":44,"time":6.3025125,"velocity":0.8110236220472441,"duration":0.1743695125000002},{"name":"G#3","midi":56,"time":6.3025125,"velocity":0.8110236220472441,"duration":0.24474756875000026},{"name":"G#2","midi":44,"time":6.554613,"velocity":0.7244094488188977,"duration":0.1743695125000002},{"name":"G#1","midi":32,"time":6.554613,"velocity":0.8110236220472441,"duration":0.1743695125000002},{"name":"G#2","midi":44,"time":6.554613,"velocity":0.8110236220472441,"duration":0.24474756875000026},{"name":"G#2","midi":44,"time":6.8067135,"velocity":0.7244094488188977,"duration":0.1743695125000002},{"name":"G#1","midi":32,"time":6.8067135,"velocity":0.8110236220472441,"duration":0.1743695125000002},{"name":"G#2","midi":44,"time":6.8067135,"velocity":0.8110236220472441,"duration":0.24474756875000026},{"name":"D#3","midi":51,"time":7.058814,"velocity":0.7244094488188977,"duration":0.1743695125000002},{"name":"D#2","midi":39,"time":7.058814,"velocity":0.8110236220472441,"duration":0.1743695125000002},{"name":"D#3","midi":51,"time":7.058814,"velocity":0.8110236220472441,"duration":0.24474756875000026},{"name":"D#3","midi":51,"time":7.3109145,"velocity":0.7244094488188977,"duration":0.1743695125000002},{"name":"D#2","midi":39,"time":7.3109145,"velocity":0.8110236220472441,"duration":0.1743695125000002},{"name":"D#3","midi":51,"time":7.3109145,"velocity":0.8110236220472441,"duration":0.24474756875000026},{"name":"G#2","midi":44,"time":7.563015,"velocity":0.7244094488188977,"duration":0.1743695125000002},{"name":"G#1","midi":32,"time":7.563015,"velocity":0.8110236220472441,"duration":0.1743695125000002},{"name":"G#2","midi":44,"time":7.563015,"velocity":0.8110236220472441,"duration":0.24474756875000026},{"name":"G#2","midi":44,"time":7.8151155,"velocity":0.7244094488188977,"duration":0.1743695125000002},{"name":"G#1","midi":32,"time":7.8151155,"velocity":0.8110236220472441,"duration":0.1743695125000002},{"name":"G#2","midi":44,"time":7.8151155,"velocity":0.8110236220472441,"duration":0.24474756874999937},{"name":"G#3","midi":56,"time":8.067216,"velocity":0.7244094488188977,"duration":0.1743695125000002},{"name":"G#2","midi":44,"time":8.067216,"velocity":0.8110236220472441,"duration":0.1743695125000002},{"name":"G#3","midi":56,"time":8.067216,"velocity":0.8110236220472441,"duration":0.24474756875000026},{"name":"G#3","midi":56,"time":8.319316500000001,"velocity":0.7244094488188977,"duration":0.1743695125000002},{"name":"G#2","midi":44,"time":8.319316500000001,"velocity":0.8110236220472441,"duration":0.1743695125000002},{"name":"G#3","midi":56,"time":8.319316500000001,"velocity":0.8110236220472441,"duration":0.24474756875000026},{"name":"E3","midi":52,"time":8.571417000000002,"velocity":0.7244094488188977,"duration":0.17121825625000042},{"name":"E2","midi":40,"time":8.571417000000002,"velocity":0.8110236220472441,"duration":0.17121825625000042},{"name":"E3","midi":52,"time":8.571417000000002,"velocity":0.8110236220472441,"duration":0.24474756875000026},{"name":"B2","midi":47,"time":8.823517500000003,"velocity":0.7244094488188977,"duration":0.17121825625000042},{"name":"B1","midi":35,"time":8.823517500000003,"velocity":0.8110236220472441,"duration":0.17121825625000042},{"name":"B2","midi":47,"time":8.823517500000003,"velocity":0.8110236220472441,"duration":0.24474756875000026},{"name":"F#3","midi":54,"time":9.075618000000004,"velocity":0.7244094488188977,"duration":0.1743695125000002},{"name":"F#2","midi":42,"time":9.075618000000004,"velocity":0.8110236220472441,"duration":0.1743695125000002},{"name":"F#3","midi":54,"time":9.075618000000004,"velocity":0.8110236220472441,"duration":0.24474756875000026},{"name":"G#3","midi":56,"time":9.327718500000005,"velocity":0.9133858267716536,"duration":0.07773098750000074},{"name":"F#3","midi":54,"time":9.327718500000005,"velocity":0.7244094488188977,"duration":0.1743695125000002},{"name":"F#2","midi":42,"time":9.327718500000005,"velocity":0.8110236220472441,"duration":0.1743695125000002},{"name":"F#3","midi":54,"time":9.327718500000005,"velocity":0.8110236220472441,"duration":0.24474756875000026},{"name":"G#3","midi":56,"time":9.579819000000006,"velocity":0.9133858267716536,"duration":0.1081931312499993},{"name":"F#2","midi":42,"time":9.579819000000006,"velocity":0.7244094488188977,"duration":0.17436951249999844},{"name":"F#1","midi":30,"time":9.579819000000006,"velocity":0.8110236220472441,"duration":0.17436951249999844},{"name":"F#2","midi":42,"time":9.579819000000006,"velocity":0.8110236220472441,"duration":0.24474756874999848},{"name":"G#3","midi":56,"time":9.831919500000005,"velocity":0.9133858267716536,"duration":0.07563015000000028},{"name":"F#2","midi":42,"time":9.831919500000005,"velocity":0.7244094488188977,"duration":0.1743695125000002},{"name":"F#1","midi":30,"time":9.831919500000005,"velocity":0.8110236220472441,"duration":0.1743695125000002},{"name":"F#2","midi":42,"time":9.831919500000005,"velocity":0.8110236220472441,"duration":0.24474756875000026},{"name":"G#3","midi":56,"time":10.084020000000006,"velocity":0.968503937007874,"duration":0.1743695125000002},{"name":"B3","midi":59,"time":10.084020000000006,"velocity":0.937007874015748,"duration":0.1743695125000002},{"name":"G#3","midi":56,"time":10.084020000000006,"velocity":0.7244094488188977,"duration":0.24474756875000026},{"name":"G#2","midi":44,"time":10.084020000000006,"velocity":0.8110236220472441,"duration":0.1743695125000002},{"name":"G#3","midi":56,"time":10.084020000000006,"velocity":0.8110236220472441,"duration":0.3634448875000018},{"name":"B3","midi":59,"time":10.336120500000007,"velocity":0.937007874015748,"duration":0.1743695125000002},{"name":"G#3","midi":56,"time":10.336120500000007,"velocity":0.7244094488188977,"duration":0.1743695125000002},{"name":"G#2","midi":44,"time":10.336120500000007,"velocity":0.8110236220472441,"duration":0.1743695125000002},{"name":"G#3","midi":56,"time":10.336120500000007,"velocity":0.8110236220472441,"duration":0.24474756875000026},{"name":"B3","midi":59,"time":10.588221000000008,"velocity":0.937007874015748,"duration":0.1743695125000002},{"name":"G#2","midi":44,"time":10.588221000000008,"velocity":0.7244094488188977,"duration":0.1743695125000002},{"name":"G#1","midi":32,"time":10.588221000000008,"velocity":0.8110236220472441,"duration":0.1743695125000002},{"name":"G#2","midi":44,"time":10.588221000000008,"velocity":0.8110236220472441,"duration":0.24474756875000026},{"name":"B3","midi":59,"time":10.840321500000009,"velocity":0.937007874015748,"duration":0.1743695125000002},{"name":"G#2","midi":44,"time":10.840321500000009,"velocity":0.7244094488188977,"duration":0.1743695125000002},{"name":"G#1","midi":32,"time":10.840321500000009,"velocity":0.8110236220472441,"duration":0.1743695125000002},{"name":"G#2","midi":44,"time":10.840321500000009,"velocity":0.8110236220472441,"duration":0.24474756875000026},{"name":"B3","midi":59,"time":11.09242200000001,"velocity":0.937007874015748,"duration":0.1743695125000002},{"name":"D#3","midi":51,"time":11.09242200000001,"velocity":0.7244094488188977,"duration":0.1743695125000002},{"name":"D#2","midi":39,"time":11.09242200000001,"velocity":0.8110236220472441,"duration":0.1743695125000002},{"name":"D#3","midi":51,"time":11.09242200000001,"velocity":0.8110236220472441,"duration":0.24474756875000026},{"name":"B3","midi":59,"time":11.34452250000001,"velocity":0.937007874015748,"duration":0.1743695125000002},{"name":"D#3","midi":51,"time":11.34452250000001,"velocity":0.7244094488188977,"duration":0.1743695125000002},{"name":"D#2","midi":39,"time":11.34452250000001,"velocity":0.8110236220472441,"duration":0.1743695125000002},{"name":"D#3","midi":51,"time":11.34452250000001,"velocity":0.8110236220472441,"duration":0.24474756875000026},{"name":"B3","midi":59,"time":11.596623000000012,"velocity":0.937007874015748,"duration":0.1743695125000002},{"name":"G#2","midi":44,"time":11.596623000000012,"velocity":0.7244094488188977,"duration":0.1743695125000002},{"name":"G#1","midi":32,"time":11.596623000000012,"velocity":0.8110236220472441,"duration":0.1743695125000002},{"name":"G#2","midi":44,"time":11.596623000000012,"velocity":0.8110236220472441,"duration":0.24474756875000026},{"name":"B3","midi":59,"time":11.848723500000013,"velocity":0.937007874015748,"duration":0.1743695125000002},{"name":"G#2","midi":44,"time":11.848723500000013,"velocity":0.7244094488188977,"duration":0.1743695125000002},{"name":"G#1","midi":32,"time":11.848723500000013,"velocity":0.8110236220472441,"duration":0.1743695125000002},{"name":"G#2","midi":44,"time":11.848723500000013,"velocity":0.8110236220472441,"duration":0.24474756875000026},{"name":"B3","midi":59,"time":12.100824000000014,"velocity":0.937007874015748,"duration":0.1743695125000002},{"name":"G#3","midi":56,"time":12.100824000000014,"velocity":0.7244094488188977,"duration":0.1743695125000002},{"name":"G#2","midi":44,"time":12.100824000000014,"velocity":0.8110236220472441,"duration":0.1743695125000002},{"name":"G#3","midi":56,"time":12.100824000000014,"velocity":0.8110236220472441,"duration":0.24474756875000026},{"name":"B3","midi":59,"time":12.352924500000015,"velocity":0.937007874015748,"duration":0.1743695125000002},{"name":"G#3","midi":56,"time":12.352924500000015,"velocity":0.7244094488188977,"duration":0.1743695125000002},{"name":"G#2","midi":44,"time":12.352924500000015,"velocity":0.8110236220472441,"duration":0.1743695125000002},{"name":"G#3","midi":56,"time":12.352924500000015,"velocity":0.8110236220472441,"duration":0.24474756875000026},{"name":"B3","midi":59,"time":12.605025000000015,"velocity":0.937007874015748,"duration":0.1743695125000002},{"name":"E3","midi":52,"time":12.605025000000015,"velocity":0.7244094488188977,"duration":0.17121825625000042},{"name":"E2","midi":40,"time":12.605025000000015,"velocity":0.8110236220472441,"duration":0.17121825625000042},{"name":"E3","midi":52,"time":12.605025000000015,"velocity":0.8110236220472441,"duration":0.24474756875000026},{"name":"B3","midi":59,"time":12.857125500000016,"velocity":0.937007874015748,"duration":0.14285695000000054},{"name":"B2","midi":47,"time":12.857125500000016,"velocity":0.7244094488188977,"duration":0.17121825625000042},{"name":"B1","midi":35,"time":12.857125500000016,"velocity":0.8110236220472441,"duration":0.17121825625000042},{"name":"B2","midi":47,"time":12.857125500000016,"velocity":0.8110236220472441,"duration":0.24474756875000026},{"name":"C#4","midi":61,"time":13.109226000000017,"velocity":0.937007874015748,"duration":0.24789882500000004},{"name":"F#3","midi":54,"time":13.109226000000017,"velocity":0.7244094488188977,"duration":0.1743695125000002},{"name":"F#2","midi":42,"time":13.109226000000017,"velocity":0.8110236220472441,"duration":0.1743695125000002},{"name":"F#3","midi":54,"time":13.109226000000017,"velocity":0.8110236220472441,"duration":0.24474756875000026},{"name":"G#3","midi":56,"time":13.361326500000017,"velocity":0.968503937007874,"duration":0.07352931249999983},{"name":"B3","midi":59,"time":13.361326500000017,"velocity":0.937007874015748,"duration":0.0903360124999999},{"name":"F#3","midi":54,"time":13.361326500000017,"velocity":0.7244094488188977,"duration":0.1743695125000002},{"name":"F#2","midi":42,"time":13.361326500000017,"velocity":0.8110236220472441,"duration":0.1743695125000002},{"name":"F#3","midi":54,"time":13.361326500000017,"velocity":0.8110236220472441,"duration":0.24474756875000026},{"name":"G#3","midi":56,"time":13.613427000000017,"velocity":0.968503937007874,"duration":0.07668056874999962},{"name":"C#4","midi":61,"time":13.613427000000017,"velocity":0.937007874015748,"duration":0.24789882500000004},{"name":"F#2","midi":42,"time":13.613427000000017,"velocity":0.7244094488188977,"duration":0.1743695125000002},{"name":"F#1","midi":30,"time":13.613427000000017,"velocity":0.8110236220472441,"duration":0.1743695125000002},{"name":"F#2","midi":42,"time":13.613427000000017,"velocity":0.8110236220472441,"duration":0.24474756875000026},{"name":"G#3","midi":56,"time":13.865527500000017,"velocity":0.9133858267716536,"duration":0.08088224375000053},{"name":"B3","midi":59,"time":13.865527500000017,"velocity":0.937007874015748,"duration":0.0903360124999999},{"name":"F#2","midi":42,"time":13.865527500000017,"velocity":0.7244094488188977,"duration":0.1743695125000002},{"name":"F#1","midi":30,"time":13.865527500000017,"velocity":0.8110236220472441,"duration":0.1743695125000002},{"name":"F#2","midi":42,"time":13.865527500000017,"velocity":0.8110236220472441,"duration":0.24474756875000026},{"name":"G#3","midi":56,"time":14.117628000000018,"velocity":0.968503937007874,"duration":0.1743695125000002},{"name":"D#4","midi":63,"time":14.117628000000018,"velocity":0.937007874015748,"duration":0.1743695125000002},{"name":"G#3","midi":56,"time":14.117628000000018,"velocity":0.7244094488188977,"duration":0.24474756875000026},{"name":"G#2","midi":44,"time":14.117628000000018,"velocity":0.8110236220472441,"duration":0.1743695125000002},{"name":"G#3","midi":56,"time":14.117628000000018,"velocity":0.8110236220472441,"duration":0.3340331625000008},{"name":"D#4","midi":63,"time":14.369728500000019,"velocity":0.937007874015748,"duration":0.1743695125000002},{"name":"G#3","midi":56,"time":14.369728500000019,"velocity":0.7244094488188977,"duration":0.1743695125000002},{"name":"G#2","midi":44,"time":14.369728500000019,"velocity":0.8110236220472441,"duration":0.1743695125000002},{"name":"G#3","midi":56,"time":14.369728500000019,"velocity":0.8110236220472441,"duration":0.24474756875000026},{"name":"D#4","midi":63,"time":14.62182900000002,"velocity":0.937007874015748,"duration":0.1743695125000002},{"name":"G#2","midi":44,"time":14.62182900000002,"velocity":0.7244094488188977,"duration":0.1743695125000002},{"name":"G#1","midi":32,"time":14.62182900000002,"velocity":0.8110236220472441,"duration":0.1743695125000002},{"name":"G#2","midi":44,"time":14.62182900000002,"velocity":0.8110236220472441,"duration":0.24474756875000026},{"name":"D#4","midi":63,"time":14.87392950000002,"velocity":0.937007874015748,"duration":0.1743695125000002},{"name":"G#2","midi":44,"time":14.87392950000002,"velocity":0.7244094488188977,"duration":0.1743695125000002},{"name":"G#1","midi":32,"time":14.87392950000002,"velocity":0.8110236220472441,"duration":0.1743695125000002},{"name":"G#2","midi":44,"time":14.87392950000002,"velocity":0.8110236220472441,"duration":0.24474756875000026},{"name":"D#4","midi":63,"time":15.126030000000021,"velocity":0.937007874015748,"duration":0.1743695125000002},{"name":"D#3","midi":51,"time":15.126030000000021,"velocity":0.7244094488188977,"duration":0.1743695125000002},{"name":"D#2","midi":39,"time":15.126030000000021,"velocity":0.8110236220472441,"duration":0.1743695125000002},{"name":"D#3","midi":51,"time":15.126030000000021,"velocity":0.8110236220472441,"duration":0.24474756875000026},{"name":"D#4","midi":63,"time":15.378130500000022,"velocity":0.937007874015748,"duration":0.1743695125000002},{"name":"D#3","midi":51,"time":15.378130500000022,"velocity":0.7244094488188977,"duration":0.1743695125000002},{"name":"D#2","midi":39,"time":15.378130500000022,"velocity":0.8110236220472441,"duration":0.1743695125000002},{"name":"D#3","midi":51,"time":15.378130500000022,"velocity":0.8110236220472441,"duration":0.24474756875000026},{"name":"D#4","midi":63,"time":15.630231000000023,"velocity":0.937007874015748,"duration":0.1743695125000002},{"name":"G#2","midi":44,"time":15.630231000000023,"velocity":0.7244094488188977,"duration":0.1743695125000002},{"name":"G#1","midi":32,"time":15.630231000000023,"velocity":0.8110236220472441,"duration":0.1743695125000002},{"name":"G#2","midi":44,"time":15.630231000000023,"velocity":0.8110236220472441,"duration":0.24474756875000026},{"name":"D#4","midi":63,"time":15.882331500000024,"velocity":0.937007874015748,"duration":0.1743695125000002},{"name":"G#2","midi":44,"time":15.882331500000024,"velocity":0.7244094488188977,"duration":0.1743695125000002},{"name":"G#1","midi":32,"time":15.882331500000024,"velocity":0.8110236220472441,"duration":0.1743695125000002},{"name":"G#2","midi":44,"time":15.882331500000024,"velocity":0.8110236220472441,"duration":0.24474756875000026},{"name":"D#4","midi":63,"time":16.134432000000025,"velocity":0.937007874015748,"duration":0.1743695125000002},{"name":"G#3","midi":56,"time":16.134432000000025,"velocity":0.7244094488188977,"duration":0.1743695125000002},{"name":"G#2","midi":44,"time":16.134432000000025,"velocity":0.8110236220472441,"duration":0.1743695125000002},{"name":"G#3","midi":56,"time":16.134432000000025,"velocity":0.8110236220472441,"duration":0.24474756875000026},{"name":"D#4","midi":63,"time":16.386532500000026,"velocity":0.937007874015748,"duration":0.1743695125000002},{"name":"G#3","midi":56,"time":16.386532500000026,"velocity":0.7244094488188977,"duration":0.1743695125000002},{"name":"G#2","midi":44,"time":16.386532500000026,"velocity":0.8110236220472441,"duration":0.1743695125000002},{"name":"G#3","midi":56,"time":16.386532500000026,"velocity":0.8110236220472441,"duration":0.24474756875000026},{"name":"D#4","midi":63,"time":16.638633000000027,"velocity":0.937007874015748,"duration":0.1743695125000002},{"name":"E3","midi":52,"time":16.638633000000027,"velocity":0.7244094488188977,"duration":0.17121825625000042},{"name":"E2","midi":40,"time":16.638633000000027,"velocity":0.8110236220472441,"duration":0.17121825625000042},{"name":"E3","midi":52,"time":16.638633000000027,"velocity":0.8110236220472441,"duration":0.24474756875000026},{"name":"D#4","midi":63,"time":16.890733500000028,"velocity":0.937007874015748,"duration":0.1743695125000002},{"name":"B2","midi":47,"time":16.890733500000028,"velocity":0.7244094488188977,"duration":0.17121825625000042},{"name":"B1","midi":35,"time":16.890733500000028,"velocity":0.8110236220472441,"duration":0.17121825625000042},{"name":"B2","midi":47,"time":16.890733500000028,"velocity":0.8110236220472441,"duration":0.24474756875000026},{"name":"E4","midi":64,"time":17.14283400000003,"velocity":0.937007874015748,"duration":0.24789882500000004},{"name":"F#3","midi":54,"time":17.14283400000003,"velocity":0.7244094488188977,"duration":0.1743695125000002},{"name":"F#2","midi":42,"time":17.14283400000003,"velocity":0.8110236220472441,"duration":0.1743695125000002},{"name":"F#3","midi":54,"time":17.14283400000003,"velocity":0.8110236220472441,"duration":0.24474756875000026},{"name":"G#3","midi":56,"time":17.39493450000003,"velocity":0.9133858267716536,"duration":0.06512596250000158},{"name":"D#4","midi":63,"time":17.39493450000003,"velocity":0.937007874015748,"duration":0.10084020000000038},{"name":"F#3","midi":54,"time":17.39493450000003,"velocity":0.7244094488188977,"duration":0.1743695125000002},{"name":"F#2","midi":42,"time":17.39493450000003,"velocity":0.8110236220472441,"duration":0.1743695125000002},{"name":"F#3","midi":54,"time":17.39493450000003,"velocity":0.8110236220472441,"duration":0.24474756875000026},{"name":"G#3","midi":56,"time":17.64703500000003,"velocity":0.9133858267716536,"duration":0.06617638124999914},{"name":"E4","midi":64,"time":17.64703500000003,"velocity":0.937007874015748,"duration":0.24789882500000004},{"name":"F#2","midi":42,"time":17.64703500000003,"velocity":0.7244094488188977,"duration":0.1743695125000002},{"name":"F#1","midi":30,"time":17.64703500000003,"velocity":0.8110236220472441,"duration":0.1743695125000002},{"name":"F#2","midi":42,"time":17.64703500000003,"velocity":0.8110236220472441,"duration":0.24474756875000026},{"name":"G#3","midi":56,"time":17.899135500000032,"velocity":0.968503937007874,"duration":0.0787814062499983},{"name":"D#4","midi":63,"time":17.899135500000032,"velocity":0.937007874015748,"duration":0.10084019999999683},{"name":"F#2","midi":42,"time":17.899135500000032,"velocity":0.7244094488188977,"duration":0.17436951249999666},{"name":"F#1","midi":30,"time":17.899135500000032,"velocity":0.8110236220472441,"duration":0.17436951249999666},{"name":"F#2","midi":42,"time":17.899135500000032,"velocity":0.8110236220472441,"duration":0.2447475687499967},{"name":"G#2","midi":44,"time":18.15123600000003,"velocity":0.7322834645669292,"duration":0.1743695125000002},{"name":"G#3","midi":56,"time":18.15123600000003,"velocity":0.968503937007874,"duration":0.1743695125000002},{"name":"B1","midi":35,"time":18.15123600000003,"velocity":0.9291338582677166,"duration":0.12184857500000135},{"name":"G3","midi":55,"time":18.15123600000003,"velocity":0.7007874015748031,"duration":0.12184857500000135},{"name":"B3","midi":59,"time":18.15123600000003,"velocity":0.937007874015748,"duration":0.1743695125000002},{"name":"G#2","midi":44,"time":18.15123600000003,"velocity":0.8110236220472441,"duration":0.1743695125000002},{"name":"G#3","midi":56,"time":18.15123600000003,"velocity":0.8110236220472441,"duration":0.26260468750000143},{"name":"G#4","midi":68,"time":18.15123600000003,"velocity":0.968503937007874,"duration":0.440125456250005},{"name":"G#2","midi":44,"time":18.40333650000003,"velocity":0.7322834645669292,"duration":0.17436951250000376},{"name":"B3","midi":59,"time":18.40333650000003,"velocity":0.937007874015748,"duration":0.17436951250000376},{"name":"G#2","midi":44,"time":18.40333650000003,"velocity":0.8110236220472441,"duration":0.17436951250000376},{"name":"G#3","midi":56,"time":18.40333650000003,"velocity":0.8110236220472441,"duration":0.17436951250000376},{"name":"G#1","midi":32,"time":18.655437000000035,"velocity":0.7322834645669292,"duration":0.1743695125000002},{"name":"B1","midi":35,"time":18.655437000000035,"velocity":0.9291338582677166,"duration":0.12184857500000135},{"name":"D2","midi":38,"time":18.655437000000035,"velocity":0.9291338582677166,"duration":0.12184857500000135},{"name":"D#2","midi":39,"time":18.655437000000035,"velocity":0.9291338582677166,"duration":0.12184857500000135},{"name":"G3","midi":55,"time":18.655437000000035,"velocity":0.7007874015748031,"duration":0.12184857500000135},{"name":"B3","midi":59,"time":18.655437000000035,"velocity":0.937007874015748,"duration":0.1743695125000002},{"name":"G#1","midi":32,"time":18.655437000000035,"velocity":0.8110236220472441,"duration":0.1743695125000002},{"name":"G#2","midi":44,"time":18.655437000000035,"velocity":0.8110236220472441,"duration":0.1743695125000002},{"name":"G#4","midi":68,"time":18.655437000000035,"velocity":0.968503937007874,"duration":0.4359237812500041},{"name":"G#1","midi":32,"time":18.907537500000036,"velocity":0.7322834645669292,"duration":0.17436951250000376},{"name":"B3","midi":59,"time":18.907537500000036,"velocity":0.937007874015748,"duration":0.17436951250000376},{"name":"G#1","midi":32,"time":18.907537500000036,"velocity":0.8110236220472441,"duration":0.17436951250000376},{"name":"G#2","midi":44,"time":18.907537500000036,"velocity":0.8110236220472441,"duration":0.17436951250000376},{"name":"D#2","midi":39,"time":19.15963800000004,"velocity":0.7322834645669292,"duration":0.17436951249999666},{"name":"B1","midi":35,"time":19.15963800000004,"velocity":0.9291338582677166,"duration":0.1218485749999978},{"name":"G3","midi":55,"time":19.15963800000004,"velocity":0.7007874015748031,"duration":0.1218485749999978},{"name":"B3","midi":59,"time":19.15963800000004,"velocity":0.937007874015748,"duration":0.17436951249999666},{"name":"D#2","midi":39,"time":19.15963800000004,"velocity":0.8110236220472441,"duration":0.17436951249999666},{"name":"D#3","midi":51,"time":19.15963800000004,"velocity":0.8110236220472441,"duration":0.17436951249999666},{"name":"D#2","midi":39,"time":19.411738500000038,"velocity":0.7322834645669292,"duration":0.1743695125000002},{"name":"B3","midi":59,"time":19.411738500000038,"velocity":0.937007874015748,"duration":0.1743695125000002},{"name":"D#2","midi":39,"time":19.411738500000038,"velocity":0.8110236220472441,"duration":0.1743695125000002},{"name":"D#3","midi":51,"time":19.411738500000038,"velocity":0.8110236220472441,"duration":0.1743695125000002},{"name":"G#1","midi":32,"time":19.66383900000004,"velocity":0.7322834645669292,"duration":0.1743695125000002},{"name":"B1","midi":35,"time":19.66383900000004,"velocity":0.9291338582677166,"duration":0.12184857500000135},{"name":"D2","midi":38,"time":19.66383900000004,"velocity":0.9291338582677166,"duration":0.12184857500000135},{"name":"D#2","midi":39,"time":19.66383900000004,"velocity":0.9291338582677166,"duration":0.12184857500000135},{"name":"G3","midi":55,"time":19.66383900000004,"velocity":0.7007874015748031,"duration":0.12184857500000135},{"name":"B3","midi":59,"time":19.66383900000004,"velocity":0.937007874015748,"duration":0.1743695125000002},{"name":"G#1","midi":32,"time":19.66383900000004,"velocity":0.8110236220472441,"duration":0.1743695125000002},{"name":"G#2","midi":44,"time":19.66383900000004,"velocity":0.8110236220472441,"duration":0.1743695125000002},{"name":"G#1","midi":32,"time":19.91593950000004,"velocity":0.7322834645669292,"duration":0.1743695125000002},{"name":"B3","midi":59,"time":19.91593950000004,"velocity":0.937007874015748,"duration":0.1743695125000002},{"name":"G#1","midi":32,"time":19.91593950000004,"velocity":0.8110236220472441,"duration":0.1743695125000002},{"name":"G#2","midi":44,"time":19.91593950000004,"velocity":0.8110236220472441,"duration":0.1743695125000002},{"name":"G#2","midi":44,"time":20.16804000000004,"velocity":0.7322834645669292,"duration":0.1743695125000002},{"name":"B1","midi":35,"time":20.16804000000004,"velocity":0.9291338582677166,"duration":0.12184857500000135},{"name":"G3","midi":55,"time":20.16804000000004,"velocity":0.7007874015748031,"duration":0.12184857500000135},{"name":"B3","midi":59,"time":20.16804000000004,"velocity":0.937007874015748,"duration":0.1743695125000002},{"name":"G#2","midi":44,"time":20.16804000000004,"velocity":0.8110236220472441,"duration":0.1743695125000002},{"name":"G#3","midi":56,"time":20.16804000000004,"velocity":0.8110236220472441,"duration":0.1743695125000002},{"name":"G#2","midi":44,"time":20.42014050000004,"velocity":0.7322834645669292,"duration":0.1743695125000002},{"name":"B3","midi":59,"time":20.42014050000004,"velocity":0.937007874015748,"duration":0.1743695125000002},{"name":"G#2","midi":44,"time":20.42014050000004,"velocity":0.8110236220472441,"duration":0.1743695125000002},{"name":"G#3","midi":56,"time":20.42014050000004,"velocity":0.8110236220472441,"duration":0.1743695125000002},{"name":"E2","midi":40,"time":20.672241000000042,"velocity":0.7322834645669292,"duration":0.17121825625000042},{"name":"B1","midi":35,"time":20.672241000000042,"velocity":0.9291338582677166,"duration":0.12184857500000135},{"name":"D2","midi":38,"time":20.672241000000042,"velocity":0.9291338582677166,"duration":0.12184857500000135},{"name":"D#2","midi":39,"time":20.672241000000042,"velocity":0.9291338582677166,"duration":0.12184857500000135},{"name":"G3","midi":55,"time":20.672241000000042,"velocity":0.7007874015748031,"duration":0.12184857500000135},{"name":"B3","midi":59,"time":20.672241000000042,"velocity":0.937007874015748,"duration":0.1743695125000002},{"name":"E2","midi":40,"time":20.672241000000042,"velocity":0.8110236220472441,"duration":0.17121825625000042},{"name":"E3","midi":52,"time":20.672241000000042,"velocity":0.8110236220472441,"duration":0.17121825625000042},{"name":"B1","midi":35,"time":20.924341500000043,"velocity":0.7322834645669292,"duration":0.17121825625000042},{"name":"B3","midi":59,"time":20.924341500000043,"velocity":0.937007874015748,"duration":0.14285694999999876},{"name":"B1","midi":35,"time":20.924341500000043,"velocity":0.8110236220472441,"duration":0.17121825625000042},{"name":"B2","midi":47,"time":20.924341500000043,"velocity":0.8110236220472441,"duration":0.17121825625000042},{"name":"F#2","midi":42,"time":21.176442000000044,"velocity":0.7322834645669292,"duration":0.1743695125000002},{"name":"B1","midi":35,"time":21.176442000000044,"velocity":0.9291338582677166,"duration":0.12184857500000135},{"name":"G3","midi":55,"time":21.176442000000044,"velocity":0.7007874015748031,"duration":0.12184857500000135},{"name":"C#4","midi":61,"time":21.176442000000044,"velocity":0.937007874015748,"duration":0.24789882500000004},{"name":"F#2","midi":42,"time":21.176442000000044,"velocity":0.8110236220472441,"duration":0.1743695125000002},{"name":"F#3","midi":54,"time":21.176442000000044,"velocity":0.8110236220472441,"duration":0.1743695125000002},{"name":"F#2","midi":42,"time":21.428542500000045,"velocity":0.7322834645669292,"duration":0.1743695125000002},{"name":"G#3","midi":56,"time":21.428542500000045,"velocity":0.9133858267716536,"duration":0.06512596250000158},{"name":"B3","midi":59,"time":21.428542500000045,"velocity":0.937007874015748,"duration":0.0903360124999999},{"name":"F#2","midi":42,"time":21.428542500000045,"velocity":0.8110236220472441,"duration":0.1743695125000002},{"name":"F#3","midi":54,"time":21.428542500000045,"velocity":0.8110236220472441,"duration":0.1743695125000002},{"name":"F#1","midi":30,"time":21.680643000000046,"velocity":0.7322834645669292,"duration":0.17436951249999666},{"name":"G#3","midi":56,"time":21.680643000000046,"velocity":0.9133858267716536,"duration":0.06617638124999914},{"name":"B1","midi":35,"time":21.680643000000046,"velocity":0.9291338582677166,"duration":0.1218485749999978},{"name":"D2","midi":38,"time":21.680643000000046,"velocity":0.9291338582677166,"duration":0.1218485749999978},{"name":"D#2","midi":39,"time":21.680643000000046,"velocity":0.9291338582677166,"duration":0.1218485749999978},{"name":"G3","midi":55,"time":21.680643000000046,"velocity":0.7007874015748031,"duration":0.1218485749999978},{"name":"C#4","midi":61,"time":21.680643000000046,"velocity":0.937007874015748,"duration":0.2478988249999965},{"name":"F#1","midi":30,"time":21.680643000000046,"velocity":0.8110236220472441,"duration":0.17436951249999666},{"name":"F#2","midi":42,"time":21.680643000000046,"velocity":0.8110236220472441,"duration":0.17436951249999666},{"name":"F#1","midi":30,"time":21.932743500000043,"velocity":0.7322834645669292,"duration":0.1743695125000002},{"name":"G#3","midi":56,"time":21.932743500000043,"velocity":0.968503937007874,"duration":0.0787814062499983},{"name":"B3","midi":59,"time":21.932743500000043,"velocity":0.937007874015748,"duration":0.0903360124999999},{"name":"F#1","midi":30,"time":21.932743500000043,"velocity":0.8110236220472441,"duration":0.1743695125000002},{"name":"F#2","midi":42,"time":21.932743500000043,"velocity":0.8110236220472441,"duration":0.1743695125000002},{"name":"G#2","midi":44,"time":22.184844000000044,"velocity":0.7322834645669292,"duration":0.1743695125000002},{"name":"G#3","midi":56,"time":22.184844000000044,"velocity":0.968503937007874,"duration":0.1743695125000002},{"name":"B1","midi":35,"time":22.184844000000044,"velocity":0.9291338582677166,"duration":0.12184857500000135},{"name":"G3","midi":55,"time":22.184844000000044,"velocity":0.7007874015748031,"duration":0.12184857500000135},{"name":"D#4","midi":63,"time":22.184844000000044,"velocity":0.937007874015748,"duration":0.1743695125000002},{"name":"G#2","midi":44,"time":22.184844000000044,"velocity":0.8110236220472441,"duration":0.1743695125000002},{"name":"G#3","midi":56,"time":22.184844000000044,"velocity":0.8110236220472441,"duration":0.26260468750000143},{"name":"G#2","midi":44,"time":22.436944500000045,"velocity":0.7322834645669292,"duration":0.1743695125000002},{"name":"D#4","midi":63,"time":22.436944500000045,"velocity":0.937007874015748,"duration":0.1743695125000002},{"name":"G#2","midi":44,"time":22.436944500000045,"velocity":0.8110236220472441,"duration":0.1743695125000002},{"name":"G#3","midi":56,"time":22.436944500000045,"velocity":0.8110236220472441,"duration":0.1743695125000002},{"name":"G#1","midi":32,"time":22.689045000000046,"velocity":0.7322834645669292,"duration":0.1743695125000002},{"name":"B1","midi":35,"time":22.689045000000046,"velocity":0.9291338582677166,"duration":0.12184857500000135},{"name":"D2","midi":38,"time":22.689045000000046,"velocity":0.9291338582677166,"duration":0.12184857500000135},{"name":"D#2","midi":39,"time":22.689045000000046,"velocity":0.9291338582677166,"duration":0.12184857500000135},{"name":"G3","midi":55,"time":22.689045000000046,"velocity":0.7007874015748031,"duration":0.12184857500000135},{"name":"D#4","midi":63,"time":22.689045000000046,"velocity":0.937007874015748,"duration":0.1743695125000002},{"name":"G#1","midi":32,"time":22.689045000000046,"velocity":0.8110236220472441,"duration":0.1743695125000002},{"name":"G#2","midi":44,"time":22.689045000000046,"velocity":0.8110236220472441,"duration":0.1743695125000002},{"name":"G#1","midi":32,"time":22.941145500000047,"velocity":0.7322834645669292,"duration":0.1743695125000002},{"name":"D#4","midi":63,"time":22.941145500000047,"velocity":0.937007874015748,"duration":0.1743695125000002},{"name":"G#1","midi":32,"time":22.941145500000047,"velocity":0.8110236220472441,"duration":0.1743695125000002},{"name":"G#2","midi":44,"time":22.941145500000047,"velocity":0.8110236220472441,"duration":0.1743695125000002},{"name":"D#2","midi":39,"time":23.193246000000048,"velocity":0.7322834645669292,"duration":0.1743695125000002},{"name":"B1","midi":35,"time":23.193246000000048,"velocity":0.9291338582677166,"duration":0.12184857500000135},{"name":"G3","midi":55,"time":23.193246000000048,"velocity":0.7007874015748031,"duration":0.12184857500000135},{"name":"D#4","midi":63,"time":23.193246000000048,"velocity":0.937007874015748,"duration":0.1743695125000002},{"name":"D#2","midi":39,"time":23.193246000000048,"velocity":0.8110236220472441,"duration":0.1743695125000002},{"name":"D#3","midi":51,"time":23.193246000000048,"velocity":0.8110236220472441,"duration":0.1743695125000002},{"name":"D#2","midi":39,"time":23.44534650000005,"velocity":0.7322834645669292,"duration":0.1743695125000002},{"name":"D#4","midi":63,"time":23.44534650000005,"velocity":0.937007874015748,"duration":0.1743695125000002},{"name":"D#2","midi":39,"time":23.44534650000005,"velocity":0.8110236220472441,"duration":0.1743695125000002},{"name":"D#3","midi":51,"time":23.44534650000005,"velocity":0.8110236220472441,"duration":0.1743695125000002},{"name":"G#1","midi":32,"time":23.69744700000005,"velocity":0.7322834645669292,"duration":0.1743695125000002},{"name":"B1","midi":35,"time":23.69744700000005,"velocity":0.9291338582677166,"duration":0.12184857500000135},{"name":"D2","midi":38,"time":23.69744700000005,"velocity":0.9291338582677166,"duration":0.12184857500000135},{"name":"D#2","midi":39,"time":23.69744700000005,"velocity":0.9291338582677166,"duration":0.12184857500000135},{"name":"G3","midi":55,"time":23.69744700000005,"velocity":0.7007874015748031,"duration":0.12184857500000135},{"name":"D#4","midi":63,"time":23.69744700000005,"velocity":0.937007874015748,"duration":0.1743695125000002},{"name":"G#1","midi":32,"time":23.69744700000005,"velocity":0.8110236220472441,"duration":0.1743695125000002},{"name":"G#2","midi":44,"time":23.69744700000005,"velocity":0.8110236220472441,"duration":0.1743695125000002},{"name":"G#1","midi":32,"time":23.94954750000005,"velocity":0.7322834645669292,"duration":0.1743695125000002},{"name":"D#4","midi":63,"time":23.94954750000005,"velocity":0.937007874015748,"duration":0.1743695125000002},{"name":"G#1","midi":32,"time":23.94954750000005,"velocity":0.8110236220472441,"duration":0.1743695125000002},{"name":"G#2","midi":44,"time":23.94954750000005,"velocity":0.8110236220472441,"duration":0.1743695125000002},{"name":"G#2","midi":44,"time":24.201648000000052,"velocity":0.7322834645669292,"duration":0.1743695125000002},{"name":"B1","midi":35,"time":24.201648000000052,"velocity":0.9291338582677166,"duration":0.12184857500000135},{"name":"G3","midi":55,"time":24.201648000000052,"velocity":0.7007874015748031,"duration":0.12184857500000135},{"name":"D#4","midi":63,"time":24.201648000000052,"velocity":0.937007874015748,"duration":0.1743695125000002},{"name":"G#2","midi":44,"time":24.201648000000052,"velocity":0.8110236220472441,"duration":0.1743695125000002},{"name":"G#3","midi":56,"time":24.201648000000052,"velocity":0.8110236220472441,"duration":0.1743695125000002},{"name":"G#2","midi":44,"time":24.453748500000053,"velocity":0.7322834645669292,"duration":0.1743695125000002},{"name":"D#4","midi":63,"time":24.453748500000053,"velocity":0.937007874015748,"duration":0.1743695125000002},{"name":"G#2","midi":44,"time":24.453748500000053,"velocity":0.8110236220472441,"duration":0.1743695125000002},{"name":"G#3","midi":56,"time":24.453748500000053,"velocity":0.8110236220472441,"duration":0.1743695125000002},{"name":"E2","midi":40,"time":24.705849000000054,"velocity":0.7322834645669292,"duration":0.17121825625000042},{"name":"B1","midi":35,"time":24.705849000000054,"velocity":0.9291338582677166,"duration":0.12184857500000135},{"name":"D2","midi":38,"time":24.705849000000054,"velocity":0.9291338582677166,"duration":0.12184857500000135},{"name":"D#2","midi":39,"time":24.705849000000054,"velocity":0.9291338582677166,"duration":0.12184857500000135},{"name":"G3","midi":55,"time":24.705849000000054,"velocity":0.7007874015748031,"duration":0.12184857500000135},{"name":"D#4","midi":63,"time":24.705849000000054,"velocity":0.937007874015748,"duration":0.1743695125000002},{"name":"E2","midi":40,"time":24.705849000000054,"velocity":0.8110236220472441,"duration":0.17121825625000042},{"name":"E3","midi":52,"time":24.705849000000054,"velocity":0.8110236220472441,"duration":0.17121825625000042},{"name":"B1","midi":35,"time":24.957949500000055,"velocity":0.7322834645669292,"duration":0.17121825625000042},{"name":"D#4","midi":63,"time":24.957949500000055,"velocity":0.937007874015748,"duration":0.1743695125000002},{"name":"B1","midi":35,"time":24.957949500000055,"velocity":0.8110236220472441,"duration":0.17121825625000042},{"name":"B2","midi":47,"time":24.957949500000055,"velocity":0.8110236220472441,"duration":0.17121825625000042},{"name":"F#2","midi":42,"time":25.210050000000056,"velocity":0.7322834645669292,"duration":0.1743695125000002},{"name":"B1","midi":35,"time":25.210050000000056,"velocity":0.9291338582677166,"duration":0.12184857500000135},{"name":"G3","midi":55,"time":25.210050000000056,"velocity":0.7007874015748031,"duration":0.12184857500000135},{"name":"E4","midi":64,"time":25.210050000000056,"velocity":0.937007874015748,"duration":0.24789882500000004},{"name":"F#2","midi":42,"time":25.210050000000056,"velocity":0.8110236220472441,"duration":0.1743695125000002},{"name":"F#3","midi":54,"time":25.210050000000056,"velocity":0.8110236220472441,"duration":0.1743695125000002},{"name":"F#2","midi":42,"time":25.462150500000057,"velocity":0.7322834645669292,"duration":0.1743695125000002},{"name":"G#3","midi":56,"time":25.462150500000057,"velocity":0.9133858267716536,"duration":0.06512596250000158},{"name":"D#4","midi":63,"time":25.462150500000057,"velocity":0.937007874015748,"duration":0.10084020000000038},{"name":"F#2","midi":42,"time":25.462150500000057,"velocity":0.8110236220472441,"duration":0.1743695125000002},{"name":"F#3","midi":54,"time":25.462150500000057,"velocity":0.8110236220472441,"duration":0.1743695125000002},{"name":"F#1","midi":30,"time":25.714251000000058,"velocity":0.7322834645669292,"duration":0.17436951249999666},{"name":"G#3","midi":56,"time":25.714251000000058,"velocity":0.9133858267716536,"duration":0.06617638124999914},{"name":"B1","midi":35,"time":25.714251000000058,"velocity":0.9291338582677166,"duration":0.1218485749999978},{"name":"D2","midi":38,"time":25.714251000000058,"velocity":0.9291338582677166,"duration":0.1218485749999978},{"name":"D#2","midi":39,"time":25.714251000000058,"velocity":0.9291338582677166,"duration":0.1218485749999978},{"name":"G3","midi":55,"time":25.714251000000058,"velocity":0.7007874015748031,"duration":0.1218485749999978},{"name":"E4","midi":64,"time":25.714251000000058,"velocity":0.937007874015748,"duration":0.2478988249999965},{"name":"F#1","midi":30,"time":25.714251000000058,"velocity":0.8110236220472441,"duration":0.17436951249999666},{"name":"F#2","midi":42,"time":25.714251000000058,"velocity":0.8110236220472441,"duration":0.17436951249999666},{"name":"F#1","midi":30,"time":25.966351500000055,"velocity":0.7322834645669292,"duration":0.17436951249999666},{"name":"G#3","midi":56,"time":25.966351500000055,"velocity":0.968503937007874,"duration":0.0787814062499983},{"name":"D#4","midi":63,"time":25.966351500000055,"velocity":0.937007874015748,"duration":0.10084019999999683},{"name":"F#1","midi":30,"time":25.966351500000055,"velocity":0.8110236220472441,"duration":0.17436951249999666},{"name":"F#2","midi":42,"time":25.966351500000055,"velocity":0.8110236220472441,"duration":0.17436951249999666},{"name":"G#2","midi":44,"time":26.218452000000052,"velocity":0.7322834645669292,"duration":0.1743695125000002},{"name":"G#3","midi":56,"time":26.218452000000052,"velocity":0.968503937007874,"duration":0.1743695125000002},{"name":"B1","midi":35,"time":26.218452000000052,"velocity":0.9291338582677166,"duration":0.12184857500000135},{"name":"C#3","midi":49,"time":26.218452000000052,"velocity":0.6771653543307087,"duration":0.12184857500000135},{"name":"G#2","midi":44,"time":26.218452000000052,"velocity":0.8110236220472441,"duration":0.1743695125000002},{"name":"G#3","midi":56,"time":26.218452000000052,"velocity":0.8110236220472441,"duration":0.26260468750000143},{"name":"G#2","midi":44,"time":26.470552500000053,"velocity":0.7322834645669292,"duration":0.1743695125000002},{"name":"B4","midi":71,"time":26.470552500000053,"velocity":0.9291338582677166,"duration":0.06617638124999914},{"name":"G#2","midi":44,"time":26.470552500000053,"velocity":0.8110236220472441,"duration":0.1743695125000002},{"name":"G#3","midi":56,"time":26.470552500000053,"velocity":0.8110236220472441,"duration":0.1743695125000002},{"name":"G#1","midi":32,"time":26.722653000000054,"velocity":0.7322834645669292,"duration":0.1743695125000002},{"name":"B4","midi":71,"time":26.722653000000054,"velocity":0.968503937007874,"duration":0.19012579374999916},{"name":"B1","midi":35,"time":26.722653000000054,"velocity":0.9291338582677166,"duration":0.12184857500000135},{"name":"D2","midi":38,"time":26.722653000000054,"velocity":0.9291338582677166,"duration":0.12184857500000135},{"name":"D#2","midi":39,"time":26.722653000000054,"velocity":0.9291338582677166,"duration":0.12184857500000135},{"name":"G#1","midi":32,"time":26.722653000000054,"velocity":0.8110236220472441,"duration":0.1743695125000002},{"name":"G#2","midi":44,"time":26.722653000000054,"velocity":0.8110236220472441,"duration":0.1743695125000002},{"name":"G#1","midi":32,"time":26.974753500000052,"velocity":0.7322834645669292,"duration":0.1743695125000002},{"name":"B4","midi":71,"time":26.974753500000052,"velocity":0.889763779527559,"duration":0.09138643125000101},{"name":"G#1","midi":32,"time":26.974753500000052,"velocity":0.8110236220472441,"duration":0.1743695125000002},{"name":"G#2","midi":44,"time":26.974753500000052,"velocity":0.8110236220472441,"duration":0.1743695125000002},{"name":"D#2","midi":39,"time":27.226854000000053,"velocity":0.7322834645669292,"duration":0.1743695125000002},{"name":"B4","midi":71,"time":27.226854000000053,"velocity":0.968503937007874,"duration":0.1018906187500015},{"name":"B1","midi":35,"time":27.226854000000053,"velocity":0.9291338582677166,"duration":0.12184857500000135},{"name":"D#2","midi":39,"time":27.226854000000053,"velocity":0.8110236220472441,"duration":0.1743695125000002},{"name":"D#3","midi":51,"time":27.226854000000053,"velocity":0.8110236220472441,"duration":0.1743695125000002},{"name":"D#2","midi":39,"time":27.478954500000054,"velocity":0.7322834645669292,"duration":0.1743695125000002},{"name":"B4","midi":71,"time":27.478954500000054,"velocity":0.889763779527559,"duration":0.07142847500000116},{"name":"D#2","midi":39,"time":27.478954500000054,"velocity":0.8110236220472441,"duration":0.1743695125000002},{"name":"D#3","midi":51,"time":27.478954500000054,"velocity":0.8110236220472441,"duration":0.1743695125000002},{"name":"G#1","midi":32,"time":27.731055000000055,"velocity":0.7322834645669292,"duration":0.1743695125000002},{"name":"B4","midi":71,"time":27.731055000000055,"velocity":0.968503937007874,"duration":0.1859241187500018},{"name":"B1","midi":35,"time":27.731055000000055,"velocity":0.9291338582677166,"duration":0.12184857500000135},{"name":"D2","midi":38,"time":27.731055000000055,"velocity":0.9291338582677166,"duration":0.12184857500000135},{"name":"D#2","midi":39,"time":27.731055000000055,"velocity":0.9291338582677166,"duration":0.12184857500000135},{"name":"G#1","midi":32,"time":27.731055000000055,"velocity":0.8110236220472441,"duration":0.1743695125000002},{"name":"G#2","midi":44,"time":27.731055000000055,"velocity":0.8110236220472441,"duration":0.1743695125000002},{"name":"G#1","midi":32,"time":27.983155500000056,"velocity":0.7322834645669292,"duration":0.1743695125000002},{"name":"B4","midi":71,"time":27.983155500000056,"velocity":0.8503937007874016,"duration":0.07457973125000095},{"name":"G#1","midi":32,"time":27.983155500000056,"velocity":0.8110236220472441,"duration":0.1743695125000002},{"name":"G#2","midi":44,"time":27.983155500000056,"velocity":0.8110236220472441,"duration":0.1743695125000002},{"name":"G#2","midi":44,"time":28.235256000000057,"velocity":0.7322834645669292,"duration":0.1743695125000002},{"name":"B4","midi":71,"time":28.235256000000057,"velocity":0.9291338582677166,"duration":0.21218458750000124},{"name":"B1","midi":35,"time":28.235256000000057,"velocity":0.9291338582677166,"duration":0.12184857500000135},{"name":"G#2","midi":44,"time":28.235256000000057,"velocity":0.8110236220472441,"duration":0.1743695125000002},{"name":"G#3","midi":56,"time":28.235256000000057,"velocity":0.8110236220472441,"duration":0.1743695125000002},{"name":"G#2","midi":44,"time":28.487356500000057,"velocity":0.7322834645669292,"duration":0.1743695125000002},{"name":"B4","midi":71,"time":28.487356500000057,"velocity":0.6299212598425197,"duration":0.07563014999999851},{"name":"G#2","midi":44,"time":28.487356500000057,"velocity":0.8110236220472441,"duration":0.1743695125000002},{"name":"G#3","midi":56,"time":28.487356500000057,"velocity":0.8110236220472441,"duration":0.1743695125000002},{"name":"E2","midi":40,"time":28.73945700000006,"velocity":0.7322834645669292,"duration":0.17121825625000042},{"name":"B4","midi":71,"time":28.73945700000006,"velocity":0.968503937007874,"duration":0.18382328124999958},{"name":"B1","midi":35,"time":28.73945700000006,"velocity":0.9291338582677166,"duration":0.12184857500000135},{"name":"D2","midi":38,"time":28.73945700000006,"velocity":0.9291338582677166,"duration":0.12184857500000135},{"name":"D#2","midi":39,"time":28.73945700000006,"velocity":0.9291338582677166,"duration":0.12184857500000135},{"name":"E2","midi":40,"time":28.73945700000006,"velocity":0.8110236220472441,"duration":0.17121825625000042},{"name":"E3","midi":52,"time":28.73945700000006,"velocity":0.8110236220472441,"duration":0.17121825625000042},{"name":"B1","midi":35,"time":28.99155750000006,"velocity":0.7322834645669292,"duration":0.17121825625000042},{"name":"B4","midi":71,"time":28.99155750000006,"velocity":0.968503937007874,"duration":0.07247889374999872},{"name":"B1","midi":35,"time":28.99155750000006,"velocity":0.8110236220472441,"duration":0.17121825625000042},{"name":"B2","midi":47,"time":28.99155750000006,"velocity":0.8110236220472441,"duration":0.17121825625000042},{"name":"F#2","midi":42,"time":29.24365800000006,"velocity":0.7322834645669292,"duration":0.1743695125000002},{"name":"B4","midi":71,"time":29.24365800000006,"velocity":0.968503937007874,"duration":0.3371844187500024},{"name":"B1","midi":35,"time":29.24365800000006,"velocity":0.9291338582677166,"duration":0.12184857500000135},{"name":"F#2","midi":42,"time":29.24365800000006,"velocity":0.8110236220472441,"duration":0.1743695125000002},{"name":"F#3","midi":54,"time":29.24365800000006,"velocity":0.8110236220472441,"duration":0.1743695125000002},{"name":"F#2","midi":42,"time":29.49575850000006,"velocity":0.7322834645669292,"duration":0.1743695125000002},{"name":"F#2","midi":42,"time":29.49575850000006,"velocity":0.8110236220472441,"duration":0.1743695125000002},{"name":"F#3","midi":54,"time":29.49575850000006,"velocity":0.8110236220472441,"duration":0.1743695125000002},{"name":"F#1","midi":30,"time":29.747859000000062,"velocity":0.7322834645669292,"duration":0.1743695125000002},{"name":"B1","midi":35,"time":29.747859000000062,"velocity":0.9291338582677166,"duration":0.12184857500000135},{"name":"D2","midi":38,"time":29.747859000000062,"velocity":0.9291338582677166,"duration":0.12184857500000135},{"name":"D#2","midi":39,"time":29.747859000000062,"velocity":0.9291338582677166,"duration":0.12184857500000135},{"name":"F#5","midi":78,"time":29.747859000000062,"velocity":0.9291338582677166,"duration":0.12184857500000135},{"name":"F#1","midi":30,"time":29.747859000000062,"velocity":0.8110236220472441,"duration":0.1743695125000002},{"name":"F#2","midi":42,"time":29.747859000000062,"velocity":0.8110236220472441,"duration":0.1743695125000002},{"name":"F#1","midi":30,"time":29.999959500000063,"velocity":0.7322834645669292,"duration":0.1743695125000002},{"name":"F#1","midi":30,"time":29.999959500000063,"velocity":0.8110236220472441,"duration":0.1743695125000002},{"name":"F#2","midi":42,"time":29.999959500000063,"velocity":0.8110236220472441,"duration":0.1743695125000002},{"name":"G#2","midi":44,"time":30.252060000000064,"velocity":0.7322834645669292,"duration":0.1743695125000002},{"name":"B4","midi":71,"time":30.252060000000064,"velocity":0.889763779527559,"duration":0.1859241187500018},{"name":"B1","midi":35,"time":30.252060000000064,"velocity":0.9291338582677166,"duration":0.12184857500000135},{"name":"G#2","midi":44,"time":30.252060000000064,"velocity":0.8110236220472441,"duration":0.1743695125000002},{"name":"G#3","midi":56,"time":30.252060000000064,"velocity":0.8110236220472441,"duration":0.1743695125000002},{"name":"G#2","midi":44,"time":30.504160500000065,"velocity":0.7322834645669292,"duration":0.1743695125000002},{"name":"B4","midi":71,"time":30.504160500000065,"velocity":0.9291338582677166,"duration":0.08823517500000122},{"name":"G#2","midi":44,"time":30.504160500000065,"velocity":0.8110236220472441,"duration":0.1743695125000002},{"name":"G#3","midi":56,"time":30.504160500000065,"velocity":0.8110236220472441,"duration":0.1743695125000002},{"name":"G#1","midi":32,"time":30.756261000000066,"velocity":0.7322834645669292,"duration":0.1743695125000002},{"name":"B4","midi":71,"time":30.756261000000066,"velocity":0.968503937007874,"duration":0.2279408687500002},{"name":"B1","midi":35,"time":30.756261000000066,"velocity":0.9291338582677166,"duration":0.12184857500000135},{"name":"D2","midi":38,"time":30.756261000000066,"velocity":0.9291338582677166,"duration":0.12184857500000135},{"name":"D#2","midi":39,"time":30.756261000000066,"velocity":0.9291338582677166,"duration":0.12184857500000135},{"name":"G#1","midi":32,"time":30.756261000000066,"velocity":0.8110236220472441,"duration":0.1743695125000002},{"name":"G#2","midi":44,"time":30.756261000000066,"velocity":0.8110236220472441,"duration":0.1743695125000002},{"name":"G#1","midi":32,"time":31.008361500000067,"velocity":0.7322834645669292,"duration":0.1743695125000002},{"name":"B4","midi":71,"time":31.008361500000067,"velocity":0.9291338582677166,"duration":0.08823517500000122},{"name":"G#1","midi":32,"time":31.008361500000067,"velocity":0.8110236220472441,"duration":0.1743695125000002},{"name":"G#2","midi":44,"time":31.008361500000067,"velocity":0.8110236220472441,"duration":0.1743695125000002},{"name":"D#2","midi":39,"time":31.260462000000068,"velocity":0.7322834645669292,"duration":0.1743695125000002},{"name":"B4","midi":71,"time":31.260462000000068,"velocity":0.9291338582677166,"duration":0.20798291250000034},{"name":"B1","midi":35,"time":31.260462000000068,"velocity":0.9291338582677166,"duration":0.12184857500000135},{"name":"D#2","midi":39,"time":31.260462000000068,"velocity":0.8110236220472441,"duration":0.1743695125000002},{"name":"D#3","midi":51,"time":31.260462000000068,"velocity":0.8110236220472441,"duration":0.1743695125000002},{"name":"D#2","midi":39,"time":31.51256250000007,"velocity":0.7322834645669292,"duration":0.1743695125000002},{"name":"B4","midi":71,"time":31.51256250000007,"velocity":0.968503937007874,"duration":0.0987393625000017},{"name":"D#2","midi":39,"time":31.51256250000007,"velocity":0.8110236220472441,"duration":0.1743695125000002},{"name":"D#3","midi":51,"time":31.51256250000007,"velocity":0.8110236220472441,"duration":0.1743695125000002},{"name":"G#1","midi":32,"time":31.76466300000007,"velocity":0.7322834645669292,"duration":0.1743695125000002},{"name":"B4","midi":71,"time":31.76466300000007,"velocity":0.968503937007874,"duration":0.15441155625000036},{"name":"B1","midi":35,"time":31.76466300000007,"velocity":0.9291338582677166,"duration":0.12184857500000135},{"name":"D2","midi":38,"time":31.76466300000007,"velocity":0.9291338582677166,"duration":0.12184857500000135},{"name":"D#2","midi":39,"time":31.76466300000007,"velocity":0.9291338582677166,"duration":0.12184857500000135},{"name":"G#1","midi":32,"time":31.76466300000007,"velocity":0.8110236220472441,"duration":0.1743695125000002},{"name":"G#2","midi":44,"time":31.76466300000007,"velocity":0.8110236220472441,"duration":0.1743695125000002},{"name":"G#1","midi":32,"time":32.01676350000007,"velocity":0.7322834645669292,"duration":0.1743695125000002},{"name":"B4","midi":71,"time":32.01676350000007,"velocity":0.9291338582677166,"duration":0.07563015000000206},{"name":"G#1","midi":32,"time":32.01676350000007,"velocity":0.8110236220472441,"duration":0.1743695125000002},{"name":"G#2","midi":44,"time":32.01676350000007,"velocity":0.8110236220472441,"duration":0.1743695125000002},{"name":"G#2","midi":44,"time":32.268864000000065,"velocity":0.7322834645669292,"duration":0.1743695125000002},{"name":"B4","midi":71,"time":32.268864000000065,"velocity":0.968503937007874,"duration":0.1691174187499982},{"name":"B1","midi":35,"time":32.268864000000065,"velocity":0.9291338582677166,"duration":0.12184857500000135},{"name":"G#2","midi":44,"time":32.268864000000065,"velocity":0.8110236220472441,"duration":0.1743695125000002},{"name":"G#3","midi":56,"time":32.268864000000065,"velocity":0.8110236220472441,"duration":0.1743695125000002},{"name":"G#2","midi":44,"time":32.52096450000006,"velocity":0.7322834645669292,"duration":0.1743695125000002},{"name":"B4","midi":71,"time":32.52096450000006,"velocity":0.9291338582677166,"duration":0.061974706249998235},{"name":"G#2","midi":44,"time":32.52096450000006,"velocity":0.8110236220472441,"duration":0.1743695125000002},{"name":"G#3","midi":56,"time":32.52096450000006,"velocity":0.8110236220472441,"duration":0.1743695125000002},{"name":"E2","midi":40,"time":32.77306500000006,"velocity":0.7322834645669292,"duration":0.17121825625000042},{"name":"B4","midi":71,"time":32.77306500000006,"velocity":0.968503937007874,"duration":0.17541993124999777},{"name":"B1","midi":35,"time":32.77306500000006,"velocity":0.9291338582677166,"duration":0.12184857500000135},{"name":"D2","midi":38,"time":32.77306500000006,"velocity":0.9291338582677166,"duration":0.12184857500000135},{"name":"D#2","midi":39,"time":32.77306500000006,"velocity":0.9291338582677166,"duration":0.12184857500000135},{"name":"E2","midi":40,"time":32.77306500000006,"velocity":0.8110236220472441,"duration":0.17121825625000042},{"name":"E3","midi":52,"time":32.77306500000006,"velocity":0.8110236220472441,"duration":0.17121825625000042},{"name":"B1","midi":35,"time":33.02516550000006,"velocity":0.7322834645669292,"duration":0.17121825625000042},{"name":"B4","midi":71,"time":33.02516550000006,"velocity":0.9291338582677166,"duration":0.061974706249998235},{"name":"B1","midi":35,"time":33.02516550000006,"velocity":0.8110236220472441,"duration":0.17121825625000042},{"name":"B2","midi":47,"time":33.02516550000006,"velocity":0.8110236220472441,"duration":0.17121825625000042},{"name":"F#2","midi":42,"time":33.277266000000054,"velocity":0.7322834645669292,"duration":0.1743695125000002},{"name":"B4","midi":71,"time":33.277266000000054,"velocity":0.9291338582677166,"duration":0.2321425437500011},{"name":"B1","midi":35,"time":33.277266000000054,"velocity":0.9291338582677166,"duration":0.12184857500000135},{"name":"F#2","midi":42,"time":33.277266000000054,"velocity":0.8110236220472441,"duration":0.1743695125000002},{"name":"F#3","midi":54,"time":33.277266000000054,"velocity":0.8110236220472441,"duration":0.1743695125000002},{"name":"F#2","midi":42,"time":33.52936650000006,"velocity":0.7322834645669292,"duration":0.1743695125000002},{"name":"F#4","midi":66,"time":33.52936650000006,"velocity":0.9291338582677166,"duration":0.1060922937500024},{"name":"F#2","midi":42,"time":33.52936650000006,"velocity":0.8110236220472441,"duration":0.1743695125000002},{"name":"F#3","midi":54,"time":33.52936650000006,"velocity":0.8110236220472441,"duration":0.1743695125000002},{"name":"F#1","midi":30,"time":33.781467000000056,"velocity":0.7322834645669292,"duration":0.1743695125000002},{"name":"F#4","midi":66,"time":33.781467000000056,"velocity":0.9291338582677166,"duration":0.1060922937500024},{"name":"B1","midi":35,"time":33.781467000000056,"velocity":0.9291338582677166,"duration":0.12184857500000135},{"name":"D2","midi":38,"time":33.781467000000056,"velocity":0.9291338582677166,"duration":0.12184857500000135},{"name":"D#2","midi":39,"time":33.781467000000056,"velocity":0.9291338582677166,"duration":0.12184857500000135},{"name":"F#1","midi":30,"time":33.781467000000056,"velocity":0.8110236220472441,"duration":0.1743695125000002},{"name":"F#2","midi":42,"time":33.781467000000056,"velocity":0.8110236220472441,"duration":0.1743695125000002},{"name":"F#1","midi":30,"time":34.03356750000005,"velocity":0.7322834645669292,"duration":0.1743695125000002},{"name":"G#4","midi":68,"time":34.03356750000005,"velocity":0.9291338582677166,"duration":0.1060922937500024},{"name":"F#1","midi":30,"time":34.03356750000005,"velocity":0.8110236220472441,"duration":0.1743695125000002},{"name":"F#2","midi":42,"time":34.03356750000005,"velocity":0.8110236220472441,"duration":0.1743695125000002},{"name":"G#2","midi":44,"time":34.28566800000005,"velocity":0.7322834645669292,"duration":0.1743695125000002},{"name":"G#5","midi":80,"time":34.28566800000005,"velocity":0.9133858267716536,"duration":0.26470552499999656},{"name":"B1","midi":35,"time":34.28566800000005,"velocity":0.9291338582677166,"duration":0.12184857500000135},{"name":"B3","midi":59,"time":34.28566800000005,"velocity":0.937007874015748,"duration":0.1743695125000002},{"name":"G#2","midi":44,"time":34.28566800000005,"velocity":0.8110236220472441,"duration":0.1743695125000002},{"name":"G#3","midi":56,"time":34.28566800000005,"velocity":0.8110236220472441,"duration":0.1743695125000002},{"name":"G#2","midi":44,"time":34.53776850000005,"velocity":0.7322834645669292,"duration":0.1743695125000002},{"name":"D#5","midi":75,"time":34.53776850000005,"velocity":0.8188976377952756,"duration":0.13970569375000252},{"name":"B3","midi":59,"time":34.53776850000005,"velocity":0.937007874015748,"duration":0.1743695125000002},{"name":"G#2","midi":44,"time":34.53776850000005,"velocity":0.8110236220472441,"duration":0.1743695125000002},{"name":"G#3","midi":56,"time":34.53776850000005,"velocity":0.8110236220472441,"duration":0.1743695125000002},{"name":"G#1","midi":32,"time":34.789869000000046,"velocity":0.7322834645669292,"duration":0.1743695125000002},{"name":"D5","midi":74,"time":34.789869000000046,"velocity":0.8110236220472441,"duration":0.22163835624999706},{"name":"B1","midi":35,"time":34.789869000000046,"velocity":0.9291338582677166,"duration":0.12184857500000135},{"name":"D2","midi":38,"time":34.789869000000046,"velocity":0.9291338582677166,"duration":0.12184857500000135},{"name":"D#2","midi":39,"time":34.789869000000046,"velocity":0.9291338582677166,"duration":0.12184857500000135},{"name":"B3","midi":59,"time":34.789869000000046,"velocity":0.937007874015748,"duration":0.1743695125000002},{"name":"G#1","midi":32,"time":34.789869000000046,"velocity":0.8110236220472441,"duration":0.1743695125000002},{"name":"G#2","midi":44,"time":34.789869000000046,"velocity":0.8110236220472441,"duration":0.1743695125000002},{"name":"G#1","midi":32,"time":35.04196950000004,"velocity":0.7322834645669292,"duration":0.1743695125000002},{"name":"D#5","midi":75,"time":35.04196950000004,"velocity":0.8188976377952756,"duration":0.14390736874999988},{"name":"B3","midi":59,"time":35.04196950000004,"velocity":0.937007874015748,"duration":0.1743695125000002},{"name":"G#1","midi":32,"time":35.04196950000004,"velocity":0.8110236220472441,"duration":0.1743695125000002},{"name":"G#2","midi":44,"time":35.04196950000004,"velocity":0.8110236220472441,"duration":0.1743695125000002},{"name":"D#2","midi":39,"time":35.29407000000004,"velocity":0.7322834645669292,"duration":0.1743695125000002},{"name":"E5","midi":76,"time":35.29407000000004,"velocity":0.889763779527559,"duration":0.17016783750000286},{"name":"B1","midi":35,"time":35.29407000000004,"velocity":0.9291338582677166,"duration":0.12184857500000135},{"name":"B3","midi":59,"time":35.29407000000004,"velocity":0.937007874015748,"duration":0.1743695125000002},{"name":"D#2","midi":39,"time":35.29407000000004,"velocity":0.8110236220472441,"duration":0.1743695125000002},{"name":"D#3","midi":51,"time":35.29407000000004,"velocity":0.8110236220472441,"duration":0.1743695125000002},{"name":"D#2","midi":39,"time":35.54617050000004,"velocity":0.7322834645669292,"duration":0.1743695125000002},{"name":"D#5","midi":75,"time":35.54617050000004,"velocity":0.8031496062992126,"duration":0.17121825625000042},{"name":"B3","midi":59,"time":35.54617050000004,"velocity":0.937007874015748,"duration":0.1743695125000002},{"name":"D#2","midi":39,"time":35.54617050000004,"velocity":0.8110236220472441,"duration":0.1743695125000002},{"name":"D#3","midi":51,"time":35.54617050000004,"velocity":0.8110236220472441,"duration":0.1743695125000002},{"name":"G#1","midi":32,"time":35.798271000000035,"velocity":0.7322834645669292,"duration":0.1743695125000002},{"name":"D5","midi":74,"time":35.798271000000035,"velocity":0.8818897637795275,"duration":0.20693249375000278},{"name":"B1","midi":35,"time":35.798271000000035,"velocity":0.9291338582677166,"duration":0.12184857500000135},{"name":"D2","midi":38,"time":35.798271000000035,"velocity":0.9291338582677166,"duration":0.12184857500000135},{"name":"D#2","midi":39,"time":35.798271000000035,"velocity":0.9291338582677166,"duration":0.12184857500000135},{"name":"B3","midi":59,"time":35.798271000000035,"velocity":0.937007874015748,"duration":0.1743695125000002},{"name":"G#1","midi":32,"time":35.798271000000035,"velocity":0.8110236220472441,"duration":0.1743695125000002},{"name":"G#2","midi":44,"time":35.798271000000035,"velocity":0.8110236220472441,"duration":0.1743695125000002},{"name":"G#1","midi":32,"time":36.05037150000004,"velocity":0.7322834645669292,"duration":0.1743695125000002},{"name":"D#5","midi":75,"time":36.05037150000004,"velocity":0.7716535433070866,"duration":0.17962160625000223},{"name":"B3","midi":59,"time":36.05037150000004,"velocity":0.937007874015748,"duration":0.1743695125000002},{"name":"G#1","midi":32,"time":36.05037150000004,"velocity":0.8110236220472441,"duration":0.1743695125000002},{"name":"G#2","midi":44,"time":36.05037150000004,"velocity":0.8110236220472441,"duration":0.1743695125000002},{"name":"G#2","midi":44,"time":36.302472000000044,"velocity":0.7322834645669292,"duration":0.1743695125000002},{"name":"E5","midi":76,"time":36.302472000000044,"velocity":0.889763779527559,"duration":0.15966364999999882},{"name":"B1","midi":35,"time":36.302472000000044,"velocity":0.9291338582677166,"duration":0.12184857500000135},{"name":"B3","midi":59,"time":36.302472000000044,"velocity":0.937007874015748,"duration":0.1743695125000002},{"name":"G#2","midi":44,"time":36.302472000000044,"velocity":0.8110236220472441,"duration":0.1743695125000002},{"name":"G#3","midi":56,"time":36.302472000000044,"velocity":0.8110236220472441,"duration":0.1743695125000002},{"name":"G#2","midi":44,"time":36.55457250000004,"velocity":0.7322834645669292,"duration":0.1743695125000002},{"name":"D#5","midi":75,"time":36.55457250000004,"velocity":0.7716535433070866,"duration":0.17541993124999777},{"name":"B3","midi":59,"time":36.55457250000004,"velocity":0.937007874015748,"duration":0.1743695125000002},{"name":"G#2","midi":44,"time":36.55457250000004,"velocity":0.8110236220472441,"duration":0.1743695125000002},{"name":"G#3","midi":56,"time":36.55457250000004,"velocity":0.8110236220472441,"duration":0.1743695125000002},{"name":"E2","midi":40,"time":36.80667300000004,"velocity":0.7322834645669292,"duration":0.17121825625000042},{"name":"C#5","midi":73,"time":36.80667300000004,"velocity":0.8110236220472441,"duration":0.1659661624999984},{"name":"B1","midi":35,"time":36.80667300000004,"velocity":0.9291338582677166,"duration":0.12184857500000135},{"name":"D2","midi":38,"time":36.80667300000004,"velocity":0.9291338582677166,"duration":0.12184857500000135},{"name":"D#2","midi":39,"time":36.80667300000004,"velocity":0.9291338582677166,"duration":0.12184857500000135},{"name":"B3","midi":59,"time":36.80667300000004,"velocity":0.937007874015748,"duration":0.1743695125000002},{"name":"E2","midi":40,"time":36.80667300000004,"velocity":0.8110236220472441,"duration":0.17121825625000042},{"name":"E3","midi":52,"time":36.80667300000004,"velocity":0.8110236220472441,"duration":0.17121825625000042},{"name":"B1","midi":35,"time":37.05877350000004,"velocity":0.7322834645669292,"duration":0.17121825625000042},{"name":"B4","midi":71,"time":37.05877350000004,"velocity":0.9291338582677166,"duration":0.16386532500000328},{"name":"B3","midi":59,"time":37.05877350000004,"velocity":0.937007874015748,"duration":0.1743695125000002},{"name":"B1","midi":35,"time":37.05877350000004,"velocity":0.8110236220472441,"duration":0.17121825625000042},{"name":"B2","midi":47,"time":37.05877350000004,"velocity":0.8110236220472441,"duration":0.17121825625000042},{"name":"F#2","midi":42,"time":37.310874000000034,"velocity":0.7322834645669292,"duration":0.1743695125000002},{"name":"A#4","midi":70,"time":37.310874000000034,"velocity":0.8582677165354331,"duration":0.37920116875000076},{"name":"B1","midi":35,"time":37.310874000000034,"velocity":0.9291338582677166,"duration":0.12184857500000135},{"name":"C#4","midi":61,"time":37.310874000000034,"velocity":0.937007874015748,"duration":0.24789882500000004},{"name":"F#2","midi":42,"time":37.310874000000034,"velocity":0.8110236220472441,"duration":0.1743695125000002},{"name":"F#3","midi":54,"time":37.310874000000034,"velocity":0.8110236220472441,"duration":0.1743695125000002},{"name":"F#2","midi":42,"time":37.56297450000003,"velocity":0.7322834645669292,"duration":0.1743695125000002},{"name":"B3","midi":59,"time":37.56297450000003,"velocity":0.937007874015748,"duration":0.1743695125000002},{"name":"F#2","midi":42,"time":37.56297450000003,"velocity":0.8110236220472441,"duration":0.1743695125000002},{"name":"F#3","midi":54,"time":37.56297450000003,"velocity":0.8110236220472441,"duration":0.1743695125000002},{"name":"F#1","midi":30,"time":37.81507500000003,"velocity":0.7322834645669292,"duration":0.1743695125000002},{"name":"B1","midi":35,"time":37.81507500000003,"velocity":0.9291338582677166,"duration":0.12184857500000135},{"name":"D2","midi":38,"time":37.81507500000003,"velocity":0.9291338582677166,"duration":0.12184857500000135},{"name":"D#2","midi":39,"time":37.81507500000003,"velocity":0.9291338582677166,"duration":0.12184857500000135},{"name":"F#5","midi":78,"time":37.81507500000003,"velocity":0.9291338582677166,"duration":0.12184857500000135},{"name":"C#4","midi":61,"time":37.81507500000003,"velocity":0.937007874015748,"duration":0.24789882500000004},{"name":"F#1","midi":30,"time":37.81507500000003,"velocity":0.8110236220472441,"duration":0.1743695125000002},{"name":"F#2","midi":42,"time":37.81507500000003,"velocity":0.8110236220472441,"duration":0.1743695125000002},{"name":"F#1","midi":30,"time":38.067175500000026,"velocity":0.7322834645669292,"duration":0.1743695125000002},{"name":"B4","midi":71,"time":38.067175500000026,"velocity":0.8818897637795275,"duration":0.058823449999998445},{"name":"B3","midi":59,"time":38.067175500000026,"velocity":0.937007874015748,"duration":0.1743695125000002},{"name":"F#1","midi":30,"time":38.067175500000026,"velocity":0.8110236220472441,"duration":0.1743695125000002},{"name":"F#2","midi":42,"time":38.067175500000026,"velocity":0.8110236220472441,"duration":0.1743695125000002},{"name":"G#2","midi":44,"time":38.31927600000002,"velocity":0.7322834645669292,"duration":0.1743695125000002},{"name":"B4","midi":71,"time":38.31927600000002,"velocity":0.984251968503937,"duration":0.11554606250000177},{"name":"B1","midi":35,"time":38.31927600000002,"velocity":0.9291338582677166,"duration":0.12184857500000135},{"name":"D#4","midi":63,"time":38.31927600000002,"velocity":0.937007874015748,"duration":0.1743695125000002},{"name":"G#2","midi":44,"time":38.31927600000002,"velocity":0.8110236220472441,"duration":0.1743695125000002},{"name":"G#3","midi":56,"time":38.31927600000002,"velocity":0.8110236220472441,"duration":0.1743695125000002},{"name":"G#2","midi":44,"time":38.57137650000002,"velocity":0.7322834645669292,"duration":0.1743695125000002},{"name":"B4","midi":71,"time":38.57137650000002,"velocity":0.9212598425196851,"duration":0.14495778749999744},{"name":"D#4","midi":63,"time":38.57137650000002,"velocity":0.937007874015748,"duration":0.1743695125000002},{"name":"G#2","midi":44,"time":38.57137650000002,"velocity":0.8110236220472441,"duration":0.1743695125000002},{"name":"G#3","midi":56,"time":38.57137650000002,"velocity":0.8110236220472441,"duration":0.1743695125000002},{"name":"G#1","midi":32,"time":38.82347700000002,"velocity":0.7322834645669292,"duration":0.1743695125000002},{"name":"B4","midi":71,"time":38.82347700000002,"velocity":0.8818897637795275,"duration":0.05987386875000311},{"name":"B1","midi":35,"time":38.82347700000002,"velocity":0.9291338582677166,"duration":0.12184857500000135},{"name":"D2","midi":38,"time":38.82347700000002,"velocity":0.9291338582677166,"duration":0.12184857500000135},{"name":"D#2","midi":39,"time":38.82347700000002,"velocity":0.9291338582677166,"duration":0.12184857500000135},{"name":"D#4","midi":63,"time":38.82347700000002,"velocity":0.937007874015748,"duration":0.1743695125000002},{"name":"G#1","midi":32,"time":38.82347700000002,"velocity":0.8110236220472441,"duration":0.1743695125000002},{"name":"G#2","midi":44,"time":38.82347700000002,"velocity":0.8110236220472441,"duration":0.1743695125000002},{"name":"G#1","midi":32,"time":39.075577500000016,"velocity":0.7322834645669292,"duration":0.1743695125000002},{"name":"B4","midi":71,"time":39.075577500000016,"velocity":0.984251968503937,"duration":0.0829830812499992},{"name":"D#4","midi":63,"time":39.075577500000016,"velocity":0.937007874015748,"duration":0.1743695125000002},{"name":"G#1","midi":32,"time":39.075577500000016,"velocity":0.8110236220472441,"duration":0.1743695125000002},{"name":"G#2","midi":44,"time":39.075577500000016,"velocity":0.8110236220472441,"duration":0.1743695125000002},{"name":"D#2","midi":39,"time":39.32767800000001,"velocity":0.7322834645669292,"duration":0.1743695125000002},{"name":"B4","midi":71,"time":39.32767800000001,"velocity":0.984251968503937,"duration":0.19537788750000118},{"name":"B1","midi":35,"time":39.32767800000001,"velocity":0.9291338582677166,"duration":0.12184857500000135},{"name":"D#4","midi":63,"time":39.32767800000001,"velocity":0.937007874015748,"duration":0.1743695125000002},{"name":"D#2","midi":39,"time":39.32767800000001,"velocity":0.8110236220472441,"duration":0.1743695125000002},{"name":"D#3","midi":51,"time":39.32767800000001,"velocity":0.8110236220472441,"duration":0.1743695125000002},{"name":"D#2","midi":39,"time":39.57977850000002,"velocity":0.7322834645669292,"duration":0.1743695125000002},{"name":"B4","midi":71,"time":39.57977850000002,"velocity":0.8818897637795275,"duration":0.10504187499999773},{"name":"D#4","midi":63,"time":39.57977850000002,"velocity":0.937007874015748,"duration":0.1743695125000002},{"name":"D#2","midi":39,"time":39.57977850000002,"velocity":0.8110236220472441,"duration":0.1743695125000002},{"name":"D#3","midi":51,"time":39.57977850000002,"velocity":0.8110236220472441,"duration":0.1743695125000002},{"name":"G#1","midi":32,"time":39.831879000000015,"velocity":0.7322834645669292,"duration":0.1743695125000002},{"name":"B4","midi":71,"time":39.831879000000015,"velocity":1,"duration":0.17541993124999777},{"name":"B1","midi":35,"time":39.831879000000015,"velocity":0.9291338582677166,"duration":0.12184857500000135},{"name":"D2","midi":38,"time":39.831879000000015,"velocity":0.9291338582677166,"duration":0.12184857500000135},{"name":"D#2","midi":39,"time":39.831879000000015,"velocity":0.9291338582677166,"duration":0.12184857500000135},{"name":"D#4","midi":63,"time":39.831879000000015,"velocity":0.937007874015748,"duration":0.1743695125000002},{"name":"G#1","midi":32,"time":39.831879000000015,"velocity":0.8110236220472441,"duration":0.1743695125000002},{"name":"G#2","midi":44,"time":39.831879000000015,"velocity":0.8110236220472441,"duration":0.1743695125000002},{"name":"G#1","midi":32,"time":40.08397950000001,"velocity":0.7322834645669292,"duration":0.1743695125000002},{"name":"B4","midi":71,"time":40.08397950000001,"velocity":0.8818897637795275,"duration":0.10399145625000017},{"name":"D#4","midi":63,"time":40.08397950000001,"velocity":0.937007874015748,"duration":0.1743695125000002},{"name":"G#1","midi":32,"time":40.08397950000001,"velocity":0.8110236220472441,"duration":0.1743695125000002},{"name":"G#2","midi":44,"time":40.08397950000001,"velocity":0.8110236220472441,"duration":0.1743695125000002},{"name":"G#2","midi":44,"time":40.33608000000001,"velocity":0.7322834645669292,"duration":0.1743695125000002},{"name":"B4","midi":71,"time":40.33608000000001,"velocity":1,"duration":0.18277286250000202},{"name":"B1","midi":35,"time":40.33608000000001,"velocity":0.9291338582677166,"duration":0.12184857500000135},{"name":"D#4","midi":63,"time":40.33608000000001,"velocity":0.937007874015748,"duration":0.1743695125000002},{"name":"G#2","midi":44,"time":40.33608000000001,"velocity":0.8110236220472441,"duration":0.1743695125000002},{"name":"G#3","midi":56,"time":40.33608000000001,"velocity":0.8110236220472441,"duration":0.1743695125000002},{"name":"G#2","midi":44,"time":40.588180500000014,"velocity":0.7322834645669292,"duration":0.1743695125000002},{"name":"B4","midi":71,"time":40.588180500000014,"velocity":0.84251968503937,"duration":0.10189061874999794},{"name":"D#4","midi":63,"time":40.588180500000014,"velocity":0.937007874015748,"duration":0.1743695125000002},{"name":"G#2","midi":44,"time":40.588180500000014,"velocity":0.8110236220472441,"duration":0.1743695125000002},{"name":"G#3","midi":56,"time":40.588180500000014,"velocity":0.8110236220472441,"duration":0.1743695125000002},{"name":"E2","midi":40,"time":40.84028100000001,"velocity":0.7322834645669292,"duration":0.17121825625000042},{"name":"B4","midi":71,"time":40.84028100000001,"velocity":0.984251968503937,"duration":0.11029396874999975},{"name":"B1","midi":35,"time":40.84028100000001,"velocity":0.9291338582677166,"duration":0.12184857500000135},{"name":"D2","midi":38,"time":40.84028100000001,"velocity":0.9291338582677166,"duration":0.12184857500000135},{"name":"D#2","midi":39,"time":40.84028100000001,"velocity":0.9291338582677166,"duration":0.12184857500000135},{"name":"D#4","midi":63,"time":40.84028100000001,"velocity":0.937007874015748,"duration":0.1743695125000002},{"name":"E2","midi":40,"time":40.84028100000001,"velocity":0.8110236220472441,"duration":0.17121825625000042},{"name":"E3","midi":52,"time":40.84028100000001,"velocity":0.8110236220472441,"duration":0.17121825625000042},{"name":"B1","midi":35,"time":41.09238150000001,"velocity":0.7322834645669292,"duration":0.17121825625000042},{"name":"B4","midi":71,"time":41.09238150000001,"velocity":0.984251968503937,"duration":0.09558810624999836},{"name":"D#4","midi":63,"time":41.09238150000001,"velocity":0.937007874015748,"duration":0.1743695125000002},{"name":"B1","midi":35,"time":41.09238150000001,"velocity":0.8110236220472441,"duration":0.17121825625000042},{"name":"B2","midi":47,"time":41.09238150000001,"velocity":0.8110236220472441,"duration":0.17121825625000042},{"name":"F#2","midi":42,"time":41.344482000000006,"velocity":0.7322834645669292,"duration":0.1743695125000002},{"name":"B4","midi":71,"time":41.344482000000006,"velocity":1,"duration":0.328781068749997},{"name":"B1","midi":35,"time":41.344482000000006,"velocity":0.9291338582677166,"duration":0.12184857500000135},{"name":"E4","midi":64,"time":41.344482000000006,"velocity":0.937007874015748,"duration":0.24789882500000004},{"name":"F#2","midi":42,"time":41.344482000000006,"velocity":0.8110236220472441,"duration":0.1743695125000002},{"name":"F#3","midi":54,"time":41.344482000000006,"velocity":0.8110236220472441,"duration":0.1743695125000002},{"name":"F#2","midi":42,"time":41.596582500000004,"velocity":0.7322834645669292,"duration":0.1743695125000002},{"name":"D#4","midi":63,"time":41.596582500000004,"velocity":0.937007874015748,"duration":0.1743695125000002},{"name":"F#2","midi":42,"time":41.596582500000004,"velocity":0.8110236220472441,"duration":0.1743695125000002},{"name":"F#3","midi":54,"time":41.596582500000004,"velocity":0.8110236220472441,"duration":0.1743695125000002},{"name":"F#1","midi":30,"time":41.848683,"velocity":0.7322834645669292,"duration":0.1743695125000002},{"name":"B1","midi":35,"time":41.848683,"velocity":0.9291338582677166,"duration":0.12184857500000135},{"name":"D2","midi":38,"time":41.848683,"velocity":0.9291338582677166,"duration":0.12184857500000135},{"name":"D#2","midi":39,"time":41.848683,"velocity":0.9291338582677166,"duration":0.12184857500000135},{"name":"E4","midi":64,"time":41.848683,"velocity":0.937007874015748,"duration":0.24789882500000004},{"name":"F#1","midi":30,"time":41.848683,"velocity":0.8110236220472441,"duration":0.1743695125000002},{"name":"F#2","midi":42,"time":41.848683,"velocity":0.8110236220472441,"duration":0.1743695125000002},{"name":"F#1","midi":30,"time":42.1007835,"velocity":0.7322834645669292,"duration":0.1743695125000002},{"name":"D#4","midi":63,"time":42.1007835,"velocity":0.937007874015748,"duration":0.1743695125000002},{"name":"F#1","midi":30,"time":42.1007835,"velocity":0.8110236220472441,"duration":0.1743695125000002},{"name":"F#2","midi":42,"time":42.1007835,"velocity":0.8110236220472441,"duration":0.1743695125000002},{"name":"G#2","midi":44,"time":42.352883999999996,"velocity":0.7322834645669292,"duration":0.1743695125000002},{"name":"G#4","midi":68,"time":42.352883999999996,"velocity":0.968503937007874,"duration":0.44012545624999433},{"name":"G#3","midi":56,"time":42.352883999999996,"velocity":0.968503937007874,"duration":0.1743695125000002},{"name":"B1","midi":35,"time":42.352883999999996,"velocity":0.9291338582677166,"duration":0.12184857500000135},{"name":"A3","midi":57,"time":42.352883999999996,"velocity":0.7007874015748031,"duration":0.12184857500000135},{"name":"B3","midi":59,"time":42.352883999999996,"velocity":0.937007874015748,"duration":0.1743695125000002},{"name":"G#2","midi":44,"time":42.352883999999996,"velocity":0.8110236220472441,"duration":0.1743695125000002},{"name":"G#3","midi":56,"time":42.352883999999996,"velocity":0.8110236220472441,"duration":0.4264700124999976},{"name":"G#4","midi":68,"time":42.352883999999996,"velocity":0.968503937007874,"duration":0.501049743749995},{"name":"G#2","midi":44,"time":42.60498449999999,"velocity":0.7322834645669292,"duration":0.1743695125000002},{"name":"B3","midi":59,"time":42.60498449999999,"velocity":0.937007874015748,"duration":0.1743695125000002},{"name":"G#2","midi":44,"time":42.60498449999999,"velocity":0.8110236220472441,"duration":0.1743695125000002},{"name":"G#3","midi":56,"time":42.60498449999999,"velocity":0.8110236220472441,"duration":0.2489492437499976},{"name":"G#1","midi":32,"time":42.85708499999999,"velocity":0.7322834645669292,"duration":0.1743695125000002},{"name":"B1","midi":35,"time":42.85708499999999,"velocity":0.9291338582677166,"duration":0.12184857500000135},{"name":"D2","midi":38,"time":42.85708499999999,"velocity":0.9291338582677166,"duration":0.12184857500000135},{"name":"D#2","midi":39,"time":42.85708499999999,"velocity":0.9291338582677166,"duration":0.12184857500000135},{"name":"B3","midi":59,"time":42.85708499999999,"velocity":0.937007874015748,"duration":0.1743695125000002},{"name":"G#1","midi":32,"time":42.85708499999999,"velocity":0.8110236220472441,"duration":0.1743695125000002},{"name":"G#2","midi":44,"time":42.85708499999999,"velocity":0.8110236220472441,"duration":0.1743695125000002},{"name":"G#4","midi":68,"time":42.85708499999999,"velocity":0.968503937007874,"duration":0.4359237812499899},{"name":"G#1","midi":32,"time":43.10918549999999,"velocity":0.7322834645669292,"duration":0.1743695124999931},{"name":"D#5","midi":75,"time":43.10918549999999,"velocity":0.9133858267716536,"duration":0.26785678124998924},{"name":"D#4","midi":63,"time":43.10918549999999,"velocity":0.9133858267716536,"duration":0.26785678124998924},{"name":"B3","midi":59,"time":43.10918549999999,"velocity":0.937007874015748,"duration":0.1743695124999931},{"name":"G#1","midi":32,"time":43.10918549999999,"velocity":0.8110236220472441,"duration":0.1743695124999931},{"name":"G#2","midi":44,"time":43.10918549999999,"velocity":0.8110236220472441,"duration":0.1743695124999931},{"name":"D#2","midi":39,"time":43.36128599999998,"velocity":0.7322834645669292,"duration":0.1743695125000002},{"name":"D5","midi":74,"time":43.36128599999998,"velocity":0.7716535433070866,"duration":0.3844532624999957},{"name":"D4","midi":62,"time":43.36128599999998,"velocity":0.7716535433070866,"duration":0.3844532624999957},{"name":"B1","midi":35,"time":43.36128599999998,"velocity":0.9291338582677166,"duration":0.12184857500000135},{"name":"B3","midi":59,"time":43.36128599999998,"velocity":0.937007874015748,"duration":0.1743695125000002},{"name":"D#2","midi":39,"time":43.36128599999998,"velocity":0.8110236220472441,"duration":0.1743695125000002},{"name":"D#3","midi":51,"time":43.36128599999998,"velocity":0.8110236220472441,"duration":0.1743695125000002},{"name":"D#2","midi":39,"time":43.613386499999976,"velocity":0.7322834645669292,"duration":0.1743695125000002},{"name":"B3","midi":59,"time":43.613386499999976,"velocity":0.937007874015748,"duration":0.1743695125000002},{"name":"D#2","midi":39,"time":43.613386499999976,"velocity":0.8110236220472441,"duration":0.1743695125000002},{"name":"D#3","midi":51,"time":43.613386499999976,"velocity":0.8110236220472441,"duration":0.1743695125000002},{"name":"G#1","midi":32,"time":43.86548699999997,"velocity":0.7322834645669292,"duration":0.1743695125000002},{"name":"B4","midi":71,"time":43.86548699999997,"velocity":0.8503937007874016,"duration":0.2983189249999967},{"name":"B3","midi":59,"time":43.86548699999997,"velocity":0.8503937007874016,"duration":0.1743695125000002},{"name":"B1","midi":35,"time":43.86548699999997,"velocity":0.9291338582677166,"duration":0.12184857500000135},{"name":"D2","midi":38,"time":43.86548699999997,"velocity":0.9291338582677166,"duration":0.12184857500000135},{"name":"D#2","midi":39,"time":43.86548699999997,"velocity":0.9291338582677166,"duration":0.12184857500000135},{"name":"B3","midi":59,"time":43.86548699999997,"velocity":0.937007874015748,"duration":0.2983189249999967},{"name":"G#1","midi":32,"time":43.86548699999997,"velocity":0.8110236220472441,"duration":0.1743695125000002},{"name":"G#2","midi":44,"time":43.86548699999997,"velocity":0.8110236220472441,"duration":0.1743695125000002},{"name":"G#1","midi":32,"time":44.11758749999997,"velocity":0.7322834645669292,"duration":0.1743695125000002},{"name":"B3","midi":59,"time":44.11758749999997,"velocity":0.937007874015748,"duration":0.1743695125000002},{"name":"G#1","midi":32,"time":44.11758749999997,"velocity":0.8110236220472441,"duration":0.1743695125000002},{"name":"G#2","midi":44,"time":44.11758749999997,"velocity":0.8110236220472441,"duration":0.1743695125000002},{"name":"G#2","midi":44,"time":44.36968799999997,"velocity":0.7322834645669292,"duration":0.1743695125000002},{"name":"G#4","midi":68,"time":44.36968799999997,"velocity":0.968503937007874,"duration":0.49369681249999786},{"name":"G#3","midi":56,"time":44.36968799999997,"velocity":0.968503937007874,"duration":0.1743695125000002},{"name":"B1","midi":35,"time":44.36968799999997,"velocity":0.9291338582677166,"duration":0.12184857500000135},{"name":"B3","midi":59,"time":44.36968799999997,"velocity":0.937007874015748,"duration":0.1743695125000002},{"name":"G#2","midi":44,"time":44.36968799999997,"velocity":0.8110236220472441,"duration":0.1743695125000002},{"name":"G#3","midi":56,"time":44.36968799999997,"velocity":0.8110236220472441,"duration":0.4264700124999976},{"name":"G#2","midi":44,"time":44.621788499999965,"velocity":0.7322834645669292,"duration":0.1743695125000002},{"name":"B3","midi":59,"time":44.621788499999965,"velocity":0.937007874015748,"duration":0.1743695125000002},{"name":"G#2","midi":44,"time":44.621788499999965,"velocity":0.8110236220472441,"duration":0.1743695125000002},{"name":"G#3","midi":56,"time":44.621788499999965,"velocity":0.8110236220472441,"duration":0.24159631250000047},{"name":"E2","midi":40,"time":44.87388899999996,"velocity":0.7322834645669292,"duration":0.17121825625000042},{"name":"B1","midi":35,"time":44.87388899999996,"velocity":0.9291338582677166,"duration":0.12184857500000135},{"name":"D2","midi":38,"time":44.87388899999996,"velocity":0.9291338582677166,"duration":0.12184857500000135},{"name":"D#2","midi":39,"time":44.87388899999996,"velocity":0.9291338582677166,"duration":0.12184857500000135},{"name":"B3","midi":59,"time":44.87388899999996,"velocity":0.937007874015748,"duration":0.1743695125000002},{"name":"E2","midi":40,"time":44.87388899999996,"velocity":0.8110236220472441,"duration":0.17121825625000042},{"name":"E3","midi":52,"time":44.87388899999996,"velocity":0.8110236220472441,"duration":0.17121825625000042},{"name":"B1","midi":35,"time":45.12598949999996,"velocity":0.7322834645669292,"duration":0.17121825625000042},{"name":"D#5","midi":75,"time":45.12598949999996,"velocity":0.9133858267716536,"duration":0.2689071999999939},{"name":"D#4","midi":63,"time":45.12598949999996,"velocity":0.9133858267716536,"duration":0.2689071999999939},{"name":"B3","midi":59,"time":45.12598949999996,"velocity":0.937007874015748,"duration":0.1743695125000002},{"name":"B1","midi":35,"time":45.12598949999996,"velocity":0.8110236220472441,"duration":0.17121825625000042},{"name":"B2","midi":47,"time":45.12598949999996,"velocity":0.8110236220472441,"duration":0.17121825625000042},{"name":"F#2","midi":42,"time":45.37808999999996,"velocity":0.7322834645669292,"duration":0.1743695124999931},{"name":"D5","midi":74,"time":45.37808999999996,"velocity":0.7401574803149606,"duration":0.2289912874999942},{"name":"D4","midi":62,"time":45.37808999999996,"velocity":0.7401574803149606,"duration":0.2289912874999942},{"name":"B1","midi":35,"time":45.37808999999996,"velocity":0.9291338582677166,"duration":0.12184857499999424},{"name":"C#4","midi":61,"time":45.37808999999996,"velocity":0.937007874015748,"duration":0.24789882499999294},{"name":"F#2","midi":42,"time":45.37808999999996,"velocity":0.8110236220472441,"duration":0.1743695124999931},{"name":"F#3","midi":54,"time":45.37808999999996,"velocity":0.8110236220472441,"duration":0.1743695124999931},{"name":"F#2","midi":42,"time":45.63019049999995,"velocity":0.7322834645669292,"duration":0.1743695125000002},{"name":"D#5","midi":75,"time":45.63019049999995,"velocity":0.9133858267716536,"duration":0.24789882500000004},{"name":"D#4","midi":63,"time":45.63019049999995,"velocity":0.9133858267716536,"duration":0.24789882500000004},{"name":"B3","midi":59,"time":45.63019049999995,"velocity":0.937007874015748,"duration":0.1743695125000002},{"name":"F#2","midi":42,"time":45.63019049999995,"velocity":0.8110236220472441,"duration":0.1743695125000002},{"name":"F#3","midi":54,"time":45.63019049999995,"velocity":0.8110236220472441,"duration":0.1743695125000002},{"name":"F#1","midi":30,"time":45.882290999999945,"velocity":0.7322834645669292,"duration":0.1743695125000002},{"name":"C#5","midi":73,"time":45.882290999999945,"velocity":0.9133858267716536,"duration":0.2521004999999974},{"name":"C#4","midi":61,"time":45.882290999999945,"velocity":0.9133858267716536,"duration":0.24789882500000004},{"name":"B1","midi":35,"time":45.882290999999945,"velocity":0.9291338582677166,"duration":0.12184857500000135},{"name":"D2","midi":38,"time":45.882290999999945,"velocity":0.9291338582677166,"duration":0.12184857500000135},{"name":"D#2","midi":39,"time":45.882290999999945,"velocity":0.9291338582677166,"duration":0.12184857500000135},{"name":"C#4","midi":61,"time":45.882290999999945,"velocity":0.937007874015748,"duration":0.2521004999999974},{"name":"F#1","midi":30,"time":45.882290999999945,"velocity":0.8110236220472441,"duration":0.1743695125000002},{"name":"F#2","midi":42,"time":45.882290999999945,"velocity":0.8110236220472441,"duration":0.1743695125000002},{"name":"F#1","midi":30,"time":46.13439149999994,"velocity":0.7322834645669292,"duration":0.1743695125000002},{"name":"F#4","midi":66,"time":46.13439149999994,"velocity":0.968503937007874,"duration":0.2405458937500029},{"name":"F#3","midi":54,"time":46.13439149999994,"velocity":0.968503937007874,"duration":0.2405458937500029},{"name":"B3","midi":59,"time":46.13439149999994,"velocity":0.937007874015748,"duration":0.1743695125000002},{"name":"F#1","midi":30,"time":46.13439149999994,"velocity":0.8110236220472441,"duration":0.1743695125000002},{"name":"F#2","midi":42,"time":46.13439149999994,"velocity":0.8110236220472441,"duration":0.1743695125000002},{"name":"G#2","midi":44,"time":46.38649199999995,"velocity":0.7322834645669292,"duration":0.1743695125000002},{"name":"G#4","midi":68,"time":46.38649199999995,"velocity":0.9133858267716536,"duration":0.24789882500000004},{"name":"G#3","midi":56,"time":46.38649199999995,"velocity":0.9133858267716536,"duration":0.1743695125000002},{"name":"B1","midi":35,"time":46.38649199999995,"velocity":0.9291338582677166,"duration":0.12184857500000135},{"name":"D#4","midi":63,"time":46.38649199999995,"velocity":0.937007874015748,"duration":0.1743695125000002},{"name":"G#2","midi":44,"time":46.38649199999995,"velocity":0.8110236220472441,"duration":0.1743695125000002},{"name":"G#3","midi":56,"time":46.38649199999995,"velocity":0.8110236220472441,"duration":0.4264700124999976},{"name":"G#2","midi":44,"time":46.638592499999945,"velocity":0.7322834645669292,"duration":0.1743695125000002},{"name":"B4","midi":71,"time":46.638592499999945,"velocity":0.889763779527559,"duration":0.06617638125000269},{"name":"D#4","midi":63,"time":46.638592499999945,"velocity":0.937007874015748,"duration":0.1743695125000002},{"name":"G#2","midi":44,"time":46.638592499999945,"velocity":0.8110236220472441,"duration":0.1743695125000002},{"name":"G#3","midi":56,"time":46.638592499999945,"velocity":0.8110236220472441,"duration":0.2573525937499994},{"name":"G#1","midi":32,"time":46.89069299999994,"velocity":0.7322834645669292,"duration":0.1743695125000002},{"name":"B4","midi":71,"time":46.89069299999994,"velocity":0.9291338582677166,"duration":0.17541993124999777},{"name":"B1","midi":35,"time":46.89069299999994,"velocity":0.9291338582677166,"duration":0.12184857500000135},{"name":"D2","midi":38,"time":46.89069299999994,"velocity":0.9291338582677166,"duration":0.12184857500000135},{"name":"D#2","midi":39,"time":46.89069299999994,"velocity":0.9291338582677166,"duration":0.12184857500000135},{"name":"D#4","midi":63,"time":46.89069299999994,"velocity":0.937007874015748,"duration":0.1743695125000002},{"name":"G#1","midi":32,"time":46.89069299999994,"velocity":0.8110236220472441,"duration":0.1743695125000002},{"name":"G#2","midi":44,"time":46.89069299999994,"velocity":0.8110236220472441,"duration":0.1743695125000002},{"name":"G#1","midi":32,"time":47.14279349999994,"velocity":0.7322834645669292,"duration":0.1743695125000002},{"name":"B4","midi":71,"time":47.14279349999994,"velocity":0.889763779527559,"duration":0.09348726875000324},{"name":"D#4","midi":63,"time":47.14279349999994,"velocity":0.937007874015748,"duration":0.1743695125000002},{"name":"G#1","midi":32,"time":47.14279349999994,"velocity":0.8110236220472441,"duration":0.1743695125000002},{"name":"G#2","midi":44,"time":47.14279349999994,"velocity":0.8110236220472441,"duration":0.1743695125000002},{"name":"D#2","midi":39,"time":47.39489399999994,"velocity":0.7322834645669292,"duration":0.1743695125000002},{"name":"B4","midi":71,"time":47.39489399999994,"velocity":0.9291338582677166,"duration":0.48529346249999605},{"name":"B1","midi":35,"time":47.39489399999994,"velocity":0.9291338582677166,"duration":0.12184857500000135},{"name":"D#4","midi":63,"time":47.39489399999994,"velocity":0.937007874015748,"duration":0.1743695125000002},{"name":"D#2","midi":39,"time":47.39489399999994,"velocity":0.8110236220472441,"duration":0.1743695125000002},{"name":"D#3","midi":51,"time":47.39489399999994,"velocity":0.8110236220472441,"duration":0.1743695125000002},{"name":"D#2","midi":39,"time":47.646994499999934,"velocity":0.7322834645669292,"duration":0.1743695125000002},{"name":"D#4","midi":63,"time":47.646994499999934,"velocity":0.937007874015748,"duration":0.1743695125000002},{"name":"D#2","midi":39,"time":47.646994499999934,"velocity":0.8110236220472441,"duration":0.1743695125000002},{"name":"D#3","midi":51,"time":47.646994499999934,"velocity":0.8110236220472441,"duration":0.1743695125000002},{"name":"G#1","midi":32,"time":47.89909499999993,"velocity":0.7322834645669292,"duration":0.1743695125000002},{"name":"B1","midi":35,"time":47.89909499999993,"velocity":0.9291338582677166,"duration":0.12184857500000135},{"name":"D2","midi":38,"time":47.89909499999993,"velocity":0.9291338582677166,"duration":0.12184857500000135},{"name":"D#2","midi":39,"time":47.89909499999993,"velocity":0.9291338582677166,"duration":0.12184857500000135},{"name":"D#4","midi":63,"time":47.89909499999993,"velocity":0.937007874015748,"duration":0.1743695125000002},{"name":"G#1","midi":32,"time":47.89909499999993,"velocity":0.8110236220472441,"duration":0.1743695125000002},{"name":"G#2","midi":44,"time":47.89909499999993,"velocity":0.8110236220472441,"duration":0.1743695125000002},{"name":"G#1","midi":32,"time":48.15119549999993,"velocity":0.7322834645669292,"duration":0.1743695125000002},{"name":"B4","midi":71,"time":48.15119549999993,"velocity":0.8503937007874016,"duration":0.04096633124999727},{"name":"D#4","midi":63,"time":48.15119549999993,"velocity":0.937007874015748,"duration":0.1743695125000002},{"name":"G#1","midi":32,"time":48.15119549999993,"velocity":0.8110236220472441,"duration":0.1743695125000002},{"name":"G#2","midi":44,"time":48.15119549999993,"velocity":0.8110236220472441,"duration":0.1743695125000002},{"name":"G#2","midi":44,"time":48.403295999999926,"velocity":0.7322834645669292,"duration":0.1743695125000002},{"name":"B4","midi":71,"time":48.403295999999926,"velocity":0.9291338582677166,"duration":0.13550401874999807},{"name":"B1","midi":35,"time":48.403295999999926,"velocity":0.9291338582677166,"duration":0.12184857500000135},{"name":"D#4","midi":63,"time":48.403295999999926,"velocity":0.937007874015748,"duration":0.1743695125000002},{"name":"G#2","midi":44,"time":48.403295999999926,"velocity":0.8110236220472441,"duration":0.1743695125000002},{"name":"G#3","midi":56,"time":48.403295999999926,"velocity":0.8110236220472441,"duration":0.1743695125000002},{"name":"G#2","midi":44,"time":48.655396499999924,"velocity":0.7322834645669292,"duration":0.1743695125000002},{"name":"B4","midi":71,"time":48.655396499999924,"velocity":0.9291338582677166,"duration":0.06512596249999802},{"name":"D#4","midi":63,"time":48.655396499999924,"velocity":0.937007874015748,"duration":0.1743695125000002},{"name":"G#2","midi":44,"time":48.655396499999924,"velocity":0.8110236220472441,"duration":0.1743695125000002},{"name":"G#3","midi":56,"time":48.655396499999924,"velocity":0.8110236220472441,"duration":0.1743695125000002},{"name":"E2","midi":40,"time":48.90749699999992,"velocity":0.7322834645669292,"duration":0.17121825625000753},{"name":"B4","midi":71,"time":48.90749699999992,"velocity":0.9291338582677166,"duration":0.14495778750000454},{"name":"B1","midi":35,"time":48.90749699999992,"velocity":0.9291338582677166,"duration":0.12184857500000135},{"name":"D2","midi":38,"time":48.90749699999992,"velocity":0.9291338582677166,"duration":0.12184857500000135},{"name":"D#2","midi":39,"time":48.90749699999992,"velocity":0.9291338582677166,"duration":0.12184857500000135},{"name":"D#4","midi":63,"time":48.90749699999992,"velocity":0.937007874015748,"duration":0.17436951250000732},{"name":"E2","midi":40,"time":48.90749699999992,"velocity":0.8110236220472441,"duration":0.17121825625000753},{"name":"E3","midi":52,"time":48.90749699999992,"velocity":0.8110236220472441,"duration":0.17121825625000753},{"name":"B1","midi":35,"time":49.159597499999926,"velocity":0.7322834645669292,"duration":0.17121825625000042},{"name":"B4","midi":71,"time":49.159597499999926,"velocity":0.9291338582677166,"duration":0.608192456249995},{"name":"D#4","midi":63,"time":49.159597499999926,"velocity":0.937007874015748,"duration":0.1743695125000002},{"name":"B1","midi":35,"time":49.159597499999926,"velocity":0.8110236220472441,"duration":0.17121825625000042},{"name":"B2","midi":47,"time":49.159597499999926,"velocity":0.8110236220472441,"duration":0.17121825625000042},{"name":"F#2","midi":42,"time":49.41169799999992,"velocity":0.7322834645669292,"duration":0.1743695125000002},{"name":"B1","midi":35,"time":49.41169799999992,"velocity":0.9291338582677166,"duration":0.12184857500000135},{"name":"E4","midi":64,"time":49.41169799999992,"velocity":0.937007874015748,"duration":0.24789882500000004},{"name":"F#2","midi":42,"time":49.41169799999992,"velocity":0.8110236220472441,"duration":0.1743695125000002},{"name":"F#3","midi":54,"time":49.41169799999992,"velocity":0.8110236220472441,"duration":0.1743695125000002},{"name":"F#2","midi":42,"time":49.66379849999992,"velocity":0.7322834645669292,"duration":0.1743695125000002},{"name":"D#4","midi":63,"time":49.66379849999992,"velocity":0.937007874015748,"duration":0.1743695125000002},{"name":"F#2","midi":42,"time":49.66379849999992,"velocity":0.8110236220472441,"duration":0.1743695125000002},{"name":"F#3","midi":54,"time":49.66379849999992,"velocity":0.8110236220472441,"duration":0.1743695125000002},{"name":"F#1","midi":30,"time":49.91589899999992,"velocity":0.7322834645669292,"duration":0.1743695125000002},{"name":"B1","midi":35,"time":49.91589899999992,"velocity":0.9291338582677166,"duration":0.12184857500000135},{"name":"D2","midi":38,"time":49.91589899999992,"velocity":0.9291338582677166,"duration":0.12184857500000135},{"name":"D#2","midi":39,"time":49.91589899999992,"velocity":0.9291338582677166,"duration":0.12184857500000135},{"name":"E4","midi":64,"time":49.91589899999992,"velocity":0.937007874015748,"duration":0.24789882500000004},{"name":"F#1","midi":30,"time":49.91589899999992,"velocity":0.8110236220472441,"duration":0.1743695125000002},{"name":"F#2","midi":42,"time":49.91589899999992,"velocity":0.8110236220472441,"duration":0.1743695125000002},{"name":"F#1","midi":30,"time":50.167999499999915,"velocity":0.7322834645669292,"duration":0.1743695125000002},{"name":"D#4","midi":63,"time":50.167999499999915,"velocity":0.937007874015748,"duration":0.1743695125000002},{"name":"F#1","midi":30,"time":50.167999499999915,"velocity":0.8110236220472441,"duration":0.1743695125000002},{"name":"F#2","midi":42,"time":50.167999499999915,"velocity":0.8110236220472441,"duration":0.1743695125000002},{"name":"G#2","midi":44,"time":50.42009999999991,"velocity":0.7322834645669292,"duration":0.1743695125000002},{"name":"G#4","midi":68,"time":50.42009999999991,"velocity":0.968503937007874,"duration":0.501049743749995},{"name":"G#3","midi":56,"time":50.42009999999991,"velocity":0.968503937007874,"duration":0.1743695125000002},{"name":"B1","midi":35,"time":50.42009999999991,"velocity":0.9291338582677166,"duration":0.12184857500000135},{"name":"B3","midi":59,"time":50.42009999999991,"velocity":0.937007874015748,"duration":0.1743695125000002},{"name":"G#3","midi":56,"time":50.42009999999991,"velocity":0.7244094488188977,"duration":0.24474756875000026},{"name":"G#2","midi":44,"time":50.42009999999991,"velocity":0.8110236220472441,"duration":0.1743695125000002},{"name":"G#3","midi":56,"time":50.42009999999991,"velocity":0.8110236220472441,"duration":0.4264700124999976},{"name":"G#2","midi":44,"time":50.67220049999991,"velocity":0.7322834645669292,"duration":0.1743695125000002},{"name":"B3","midi":59,"time":50.67220049999991,"velocity":0.937007874015748,"duration":0.1743695125000002},{"name":"G#3","midi":56,"time":50.67220049999991,"velocity":0.7244094488188977,"duration":0.24474756875000026},{"name":"G#2","midi":44,"time":50.67220049999991,"velocity":0.8110236220472441,"duration":0.1743695125000002},{"name":"G#3","midi":56,"time":50.67220049999991,"velocity":0.8110236220472441,"duration":0.2489492437499976},{"name":"G#1","midi":32,"time":50.92430099999991,"velocity":0.7322834645669292,"duration":0.1743695125000002},{"name":"B1","midi":35,"time":50.92430099999991,"velocity":0.9291338582677166,"duration":0.12184857500000135},{"name":"D2","midi":38,"time":50.92430099999991,"velocity":0.9291338582677166,"duration":0.12184857500000135},{"name":"D#2","midi":39,"time":50.92430099999991,"velocity":0.9291338582677166,"duration":0.12184857500000135},{"name":"B3","midi":59,"time":50.92430099999991,"velocity":0.937007874015748,"duration":0.1743695125000002},{"name":"G#2","midi":44,"time":50.92430099999991,"velocity":0.7244094488188977,"duration":0.1743695125000002},{"name":"G#1","midi":32,"time":50.92430099999991,"velocity":0.8110236220472441,"duration":0.1743695125000002},{"name":"G#2","midi":44,"time":50.92430099999991,"velocity":0.8110236220472441,"duration":0.24474756875000026},{"name":"G#1","midi":32,"time":51.176401499999905,"velocity":0.7322834645669292,"duration":0.1743695125000002},{"name":"D#5","midi":75,"time":51.176401499999905,"velocity":0.9133858267716536,"duration":0.26785678124999635},{"name":"D#4","midi":63,"time":51.176401499999905,"velocity":0.9133858267716536,"duration":0.26785678124999635},{"name":"B3","midi":59,"time":51.176401499999905,"velocity":0.937007874015748,"duration":0.1743695125000002},{"name":"G#2","midi":44,"time":51.176401499999905,"velocity":0.7244094488188977,"duration":0.1743695125000002},{"name":"G#1","midi":32,"time":51.176401499999905,"velocity":0.8110236220472441,"duration":0.1743695125000002},{"name":"G#2","midi":44,"time":51.176401499999905,"velocity":0.8110236220472441,"duration":0.24474756875000026},{"name":"D#2","midi":39,"time":51.4285019999999,"velocity":0.7322834645669292,"duration":0.1743695125000002},{"name":"D5","midi":74,"time":51.4285019999999,"velocity":0.7716535433070866,"duration":0.3844532624999957},{"name":"D4","midi":62,"time":51.4285019999999,"velocity":0.7716535433070866,"duration":0.3844532624999957},{"name":"B1","midi":35,"time":51.4285019999999,"velocity":0.9291338582677166,"duration":0.12184857500000135},{"name":"B3","midi":59,"time":51.4285019999999,"velocity":0.937007874015748,"duration":0.1743695125000002},{"name":"D#3","midi":51,"time":51.4285019999999,"velocity":0.7244094488188977,"duration":0.1743695125000002},{"name":"D#2","midi":39,"time":51.4285019999999,"velocity":0.8110236220472441,"duration":0.1743695125000002},{"name":"D#3","midi":51,"time":51.4285019999999,"velocity":0.8110236220472441,"duration":0.24474756875000026},{"name":"D#2","midi":39,"time":51.6806024999999,"velocity":0.7322834645669292,"duration":0.1743695125000002},{"name":"B3","midi":59,"time":51.6806024999999,"velocity":0.937007874015748,"duration":0.1743695125000002},{"name":"D#3","midi":51,"time":51.6806024999999,"velocity":0.7244094488188977,"duration":0.1743695125000002},{"name":"D#2","midi":39,"time":51.6806024999999,"velocity":0.8110236220472441,"duration":0.1743695125000002},{"name":"D#3","midi":51,"time":51.6806024999999,"velocity":0.8110236220472441,"duration":0.24474756875000026},{"name":"G#1","midi":32,"time":51.9327029999999,"velocity":0.7322834645669292,"duration":0.1743695125000002},{"name":"B4","midi":71,"time":51.9327029999999,"velocity":0.8503937007874016,"duration":0.2983189249999967},{"name":"B3","midi":59,"time":51.9327029999999,"velocity":0.8503937007874016,"duration":0.1743695125000002},{"name":"B1","midi":35,"time":51.9327029999999,"velocity":0.9291338582677166,"duration":0.12184857500000135},{"name":"D2","midi":38,"time":51.9327029999999,"velocity":0.9291338582677166,"duration":0.12184857500000135},{"name":"D#2","midi":39,"time":51.9327029999999,"velocity":0.9291338582677166,"duration":0.12184857500000135},{"name":"B3","midi":59,"time":51.9327029999999,"velocity":0.937007874015748,"duration":0.2983189249999967},{"name":"G#2","midi":44,"time":51.9327029999999,"velocity":0.7244094488188977,"duration":0.1743695125000002},{"name":"G#1","midi":32,"time":51.9327029999999,"velocity":0.8110236220472441,"duration":0.1743695125000002},{"name":"G#2","midi":44,"time":51.9327029999999,"velocity":0.8110236220472441,"duration":0.24474756875000026},{"name":"G#1","midi":32,"time":52.184803499999894,"velocity":0.7322834645669292,"duration":0.1743695125000002},{"name":"B3","midi":59,"time":52.184803499999894,"velocity":0.937007874015748,"duration":0.1743695125000002},{"name":"G#2","midi":44,"time":52.184803499999894,"velocity":0.7244094488188977,"duration":0.1743695125000002},{"name":"G#1","midi":32,"time":52.184803499999894,"velocity":0.8110236220472441,"duration":0.1743695125000002},{"name":"G#2","midi":44,"time":52.184803499999894,"velocity":0.8110236220472441,"duration":0.24474756875000026},{"name":"G#2","midi":44,"time":52.43690399999989,"velocity":0.7322834645669292,"duration":0.1743695125000002},{"name":"G#4","midi":68,"time":52.43690399999989,"velocity":0.968503937007874,"duration":0.49369681249999786},{"name":"G#3","midi":56,"time":52.43690399999989,"velocity":0.968503937007874,"duration":0.1743695125000002},{"name":"B1","midi":35,"time":52.43690399999989,"velocity":0.9291338582677166,"duration":0.12184857500000135},{"name":"B3","midi":59,"time":52.43690399999989,"velocity":0.937007874015748,"duration":0.1743695125000002},{"name":"G#3","midi":56,"time":52.43690399999989,"velocity":0.7244094488188977,"duration":0.24474756875000026},{"name":"G#2","midi":44,"time":52.43690399999989,"velocity":0.8110236220472441,"duration":0.1743695125000002},{"name":"G#3","midi":56,"time":52.43690399999989,"velocity":0.8110236220472441,"duration":0.4264700124999976},{"name":"G#2","midi":44,"time":52.68900449999989,"velocity":0.7322834645669292,"duration":0.1743695125000002},{"name":"B3","midi":59,"time":52.68900449999989,"velocity":0.937007874015748,"duration":0.1743695125000002},{"name":"G#3","midi":56,"time":52.68900449999989,"velocity":0.7244094488188977,"duration":0.24159631250000047},{"name":"G#2","midi":44,"time":52.68900449999989,"velocity":0.8110236220472441,"duration":0.1743695125000002},{"name":"G#3","midi":56,"time":52.68900449999989,"velocity":0.8110236220472441,"duration":0.24474756875000026},{"name":"E2","midi":40,"time":52.94110499999989,"velocity":0.7322834645669292,"duration":0.17121825625000042},{"name":"B1","midi":35,"time":52.94110499999989,"velocity":0.9291338582677166,"duration":0.12184857500000135},{"name":"D2","midi":38,"time":52.94110499999989,"velocity":0.9291338582677166,"duration":0.12184857500000135},{"name":"D#2","midi":39,"time":52.94110499999989,"velocity":0.9291338582677166,"duration":0.12184857500000135},{"name":"B3","midi":59,"time":52.94110499999989,"velocity":0.937007874015748,"duration":0.1743695125000002},{"name":"E3","midi":52,"time":52.94110499999989,"velocity":0.7244094488188977,"duration":0.17121825625000042},{"name":"E2","midi":40,"time":52.94110499999989,"velocity":0.8110236220472441,"duration":0.17121825625000042},{"name":"E3","midi":52,"time":52.94110499999989,"velocity":0.8110236220472441,"duration":0.24474756875000026},{"name":"B1","midi":35,"time":53.193205499999884,"velocity":0.7322834645669292,"duration":0.17121825625000042},{"name":"D#5","midi":75,"time":53.193205499999884,"velocity":0.9133858267716536,"duration":0.2689071999999939},{"name":"D#4","midi":63,"time":53.193205499999884,"velocity":0.9133858267716536,"duration":0.2689071999999939},{"name":"B3","midi":59,"time":53.193205499999884,"velocity":0.937007874015748,"duration":0.1743695125000002},{"name":"B2","midi":47,"time":53.193205499999884,"velocity":0.7244094488188977,"duration":0.17121825625000042},{"name":"B1","midi":35,"time":53.193205499999884,"velocity":0.8110236220472441,"duration":0.17121825625000042},{"name":"B2","midi":47,"time":53.193205499999884,"velocity":0.8110236220472441,"duration":0.24474756875000026},{"name":"F#2","midi":42,"time":53.44530599999988,"velocity":0.7322834645669292,"duration":0.1743695124999931},{"name":"D5","midi":74,"time":53.44530599999988,"velocity":0.7401574803149606,"duration":0.2289912874999942},{"name":"D4","midi":62,"time":53.44530599999988,"velocity":0.7401574803149606,"duration":0.2289912874999942},{"name":"B1","midi":35,"time":53.44530599999988,"velocity":0.9291338582677166,"duration":0.12184857499999424},{"name":"C#4","midi":61,"time":53.44530599999988,"velocity":0.937007874015748,"duration":0.24789882499999294},{"name":"F#3","midi":54,"time":53.44530599999988,"velocity":0.7244094488188977,"duration":0.1743695124999931},{"name":"F#2","midi":42,"time":53.44530599999988,"velocity":0.8110236220472441,"duration":0.1743695124999931},{"name":"F#3","midi":54,"time":53.44530599999988,"velocity":0.8110236220472441,"duration":0.24474756874999315},{"name":"F#2","midi":42,"time":53.69740649999987,"velocity":0.7322834645669292,"duration":0.1743695125000002},{"name":"D#5","midi":75,"time":53.69740649999987,"velocity":0.9133858267716536,"duration":0.24789882500000004},{"name":"D#4","midi":63,"time":53.69740649999987,"velocity":0.9133858267716536,"duration":0.24789882500000004},{"name":"B3","midi":59,"time":53.69740649999987,"velocity":0.937007874015748,"duration":0.1743695125000002},{"name":"F#3","midi":54,"time":53.69740649999987,"velocity":0.7244094488188977,"duration":0.1743695125000002},{"name":"F#2","midi":42,"time":53.69740649999987,"velocity":0.8110236220472441,"duration":0.1743695125000002},{"name":"F#3","midi":54,"time":53.69740649999987,"velocity":0.8110236220472441,"duration":0.24474756875000026},{"name":"F#1","midi":30,"time":53.94950699999987,"velocity":0.7322834645669292,"duration":0.1743695125000002},{"name":"C#5","midi":73,"time":53.94950699999987,"velocity":0.9133858267716536,"duration":0.2521004999999974},{"name":"C#4","midi":61,"time":53.94950699999987,"velocity":0.9133858267716536,"duration":0.24789882500000004},{"name":"B1","midi":35,"time":53.94950699999987,"velocity":0.9291338582677166,"duration":0.12184857500000135},{"name":"D2","midi":38,"time":53.94950699999987,"velocity":0.9291338582677166,"duration":0.12184857500000135},{"name":"D#2","midi":39,"time":53.94950699999987,"velocity":0.9291338582677166,"duration":0.12184857500000135},{"name":"C#4","midi":61,"time":53.94950699999987,"velocity":0.937007874015748,"duration":0.2521004999999974},{"name":"F#2","midi":42,"time":53.94950699999987,"velocity":0.7244094488188977,"duration":0.1743695125000002},{"name":"F#1","midi":30,"time":53.94950699999987,"velocity":0.8110236220472441,"duration":0.1743695125000002},{"name":"F#2","midi":42,"time":53.94950699999987,"velocity":0.8110236220472441,"duration":0.24474756875000026},{"name":"F#1","midi":30,"time":54.20160749999987,"velocity":0.7322834645669292,"duration":0.1743695125000002},{"name":"F#4","midi":66,"time":54.20160749999987,"velocity":0.968503937007874,"duration":0.2405458937500029},{"name":"F#3","midi":54,"time":54.20160749999987,"velocity":0.968503937007874,"duration":0.2405458937500029},{"name":"B3","midi":59,"time":54.20160749999987,"velocity":0.937007874015748,"duration":0.1743695125000002},{"name":"F#2","midi":42,"time":54.20160749999987,"velocity":0.7244094488188977,"duration":0.1743695125000002},{"name":"F#1","midi":30,"time":54.20160749999987,"velocity":0.8110236220472441,"duration":0.1743695125000002},{"name":"F#2","midi":42,"time":54.20160749999987,"velocity":0.8110236220472441,"duration":0.24474756875000026},{"name":"G#2","midi":44,"time":54.453707999999864,"velocity":0.7322834645669292,"duration":0.1743695125000002},{"name":"G#4","midi":68,"time":54.453707999999864,"velocity":0.9133858267716536,"duration":0.24789882500000004},{"name":"G#3","midi":56,"time":54.453707999999864,"velocity":0.9133858267716536,"duration":0.1743695125000002},{"name":"B1","midi":35,"time":54.453707999999864,"velocity":0.9291338582677166,"duration":0.12184857500000135},{"name":"D#4","midi":63,"time":54.453707999999864,"velocity":0.937007874015748,"duration":0.1743695125000002},{"name":"G#3","midi":56,"time":54.453707999999864,"velocity":0.7244094488188977,"duration":0.24474756875000026},{"name":"G#2","midi":44,"time":54.453707999999864,"velocity":0.8110236220472441,"duration":0.1743695125000002},{"name":"G#3","midi":56,"time":54.453707999999864,"velocity":0.8110236220472441,"duration":0.4264700124999976},{"name":"G#2","midi":44,"time":54.70580849999986,"velocity":0.7322834645669292,"duration":0.1743695125000002},{"name":"B4","midi":71,"time":54.70580849999986,"velocity":0.889763779527559,"duration":0.06617638125000269},{"name":"D#4","midi":63,"time":54.70580849999986,"velocity":0.937007874015748,"duration":0.1743695125000002},{"name":"G#3","midi":56,"time":54.70580849999986,"velocity":0.7244094488188977,"duration":0.24474756875000026},{"name":"G#2","midi":44,"time":54.70580849999986,"velocity":0.8110236220472441,"duration":0.1743695125000002},{"name":"G#3","midi":56,"time":54.70580849999986,"velocity":0.8110236220472441,"duration":0.2573525937499994},{"name":"G#1","midi":32,"time":54.95790899999986,"velocity":0.7322834645669292,"duration":0.1743695125000002},{"name":"B4","midi":71,"time":54.95790899999986,"velocity":0.9291338582677166,"duration":0.17541993124999777},{"name":"B1","midi":35,"time":54.95790899999986,"velocity":0.9291338582677166,"duration":0.12184857500000135},{"name":"D2","midi":38,"time":54.95790899999986,"velocity":0.9291338582677166,"duration":0.12184857500000135},{"name":"D#2","midi":39,"time":54.95790899999986,"velocity":0.9291338582677166,"duration":0.12184857500000135},{"name":"D#4","midi":63,"time":54.95790899999986,"velocity":0.937007874015748,"duration":0.1743695125000002},{"name":"G#2","midi":44,"time":54.95790899999986,"velocity":0.7244094488188977,"duration":0.1743695125000002},{"name":"G#1","midi":32,"time":54.95790899999986,"velocity":0.8110236220472441,"duration":0.1743695125000002},{"name":"G#2","midi":44,"time":54.95790899999986,"velocity":0.8110236220472441,"duration":0.24474756875000026},{"name":"G#1","midi":32,"time":55.210009499999856,"velocity":0.7322834645669292,"duration":0.1743695125000002},{"name":"B4","midi":71,"time":55.210009499999856,"velocity":0.889763779527559,"duration":0.09348726875000324},{"name":"D#4","midi":63,"time":55.210009499999856,"velocity":0.937007874015748,"duration":0.1743695125000002},{"name":"G#2","midi":44,"time":55.210009499999856,"velocity":0.7244094488188977,"duration":0.1743695125000002},{"name":"G#1","midi":32,"time":55.210009499999856,"velocity":0.8110236220472441,"duration":0.1743695125000002},{"name":"G#2","midi":44,"time":55.210009499999856,"velocity":0.8110236220472441,"duration":0.24474756875000026},{"name":"D#2","midi":39,"time":55.46210999999985,"velocity":0.7322834645669292,"duration":0.1743695125000002},{"name":"B4","midi":71,"time":55.46210999999985,"velocity":0.9291338582677166,"duration":0.48529346249999605},{"name":"B1","midi":35,"time":55.46210999999985,"velocity":0.9291338582677166,"duration":0.12184857500000135},{"name":"D#4","midi":63,"time":55.46210999999985,"velocity":0.937007874015748,"duration":0.1743695125000002},{"name":"D#3","midi":51,"time":55.46210999999985,"velocity":0.7244094488188977,"duration":0.1743695125000002},{"name":"D#2","midi":39,"time":55.46210999999985,"velocity":0.8110236220472441,"duration":0.1743695125000002},{"name":"D#3","midi":51,"time":55.46210999999985,"velocity":0.8110236220472441,"duration":0.24474756875000026},{"name":"D#2","midi":39,"time":55.71421049999985,"velocity":0.7322834645669292,"duration":0.1743695125000002},{"name":"D#4","midi":63,"time":55.71421049999985,"velocity":0.937007874015748,"duration":0.1743695125000002},{"name":"D#3","midi":51,"time":55.71421049999985,"velocity":0.7244094488188977,"duration":0.1743695125000002},{"name":"D#2","midi":39,"time":55.71421049999985,"velocity":0.8110236220472441,"duration":0.1743695125000002},{"name":"D#3","midi":51,"time":55.71421049999985,"velocity":0.8110236220472441,"duration":0.24474756875000026},{"name":"G#1","midi":32,"time":55.96631099999985,"velocity":0.7322834645669292,"duration":0.1743695125000002},{"name":"B1","midi":35,"time":55.96631099999985,"velocity":0.9291338582677166,"duration":0.12184857500000135},{"name":"D2","midi":38,"time":55.96631099999985,"velocity":0.9291338582677166,"duration":0.12184857500000135},{"name":"D#2","midi":39,"time":55.96631099999985,"velocity":0.9291338582677166,"duration":0.12184857500000135},{"name":"D#4","midi":63,"time":55.96631099999985,"velocity":0.937007874015748,"duration":0.1743695125000002},{"name":"G#2","midi":44,"time":55.96631099999985,"velocity":0.7244094488188977,"duration":0.1743695125000002},{"name":"G#1","midi":32,"time":55.96631099999985,"velocity":0.8110236220472441,"duration":0.1743695125000002},{"name":"G#2","midi":44,"time":55.96631099999985,"velocity":0.8110236220472441,"duration":0.24474756875000026},{"name":"G#1","midi":32,"time":56.218411499999846,"velocity":0.7322834645669292,"duration":0.1743695125000002},{"name":"B4","midi":71,"time":56.218411499999846,"velocity":0.8503937007874016,"duration":0.04096633124999727},{"name":"D#4","midi":63,"time":56.218411499999846,"velocity":0.937007874015748,"duration":0.1743695125000002},{"name":"G#2","midi":44,"time":56.218411499999846,"velocity":0.7244094488188977,"duration":0.1743695125000002},{"name":"G#1","midi":32,"time":56.218411499999846,"velocity":0.8110236220472441,"duration":0.1743695125000002},{"name":"G#2","midi":44,"time":56.218411499999846,"velocity":0.8110236220472441,"duration":0.24474756875000026},{"name":"D#2","midi":39,"time":56.47051199999984,"velocity":0.7795275590551181,"duration":0.1743695125000002},{"name":"B4","midi":71,"time":56.47051199999984,"velocity":0.9291338582677166,"duration":0.13550401874999807},{"name":"A#3","midi":58,"time":56.47051199999984,"velocity":0.8740157480314961,"duration":2.012602324999996},{"name":"B1","midi":35,"time":56.47051199999984,"velocity":0.9291338582677166,"duration":0.12184857500000135},{"name":"G#1","midi":32,"time":56.72261249999984,"velocity":0.7795275590551181,"duration":0.1743695125000002},{"name":"B4","midi":71,"time":56.72261249999984,"velocity":0.9291338582677166,"duration":0.06512596249999802},{"name":"B4","midi":71,"time":56.97471299999984,"velocity":0.9291338582677166,"duration":0.14495778749999744},{"name":"B4","midi":71,"time":57.226813499999835,"velocity":0.9291338582677166,"duration":0.6081924562500021},{"name":"A#3","midi":58,"time":57.352863749999834,"velocity":0.8740157480314961,"duration":1.1302505750000051},{"name":"G#1","midi":32,"time":58.487315999999836,"velocity":0.7401574803149606,"duration":0.23004170624999887},{"name":"D#5","midi":75,"time":58.487315999999836,"velocity":0.8110236220472441,"duration":2.0126023249999676},{"name":"G#5","midi":80,"time":58.487315999999836,"velocity":0.8110236220472441,"duration":4.029406324999933},{"name":"B5","midi":83,"time":58.487315999999836,"velocity":0.8110236220472441,"duration":0.49999932499999744},{"name":"B1","midi":35,"time":58.487315999999836,"velocity":0.9291338582677166,"duration":0.12184857500000135},{"name":"A3","midi":57,"time":58.487315999999836,"velocity":0.6299212598425197,"duration":0.12184857500000135},{"name":"G#2","midi":44,"time":58.487315999999836,"velocity":0.9291338582677166,"duration":0.1859241187500018},{"name":"G#4","midi":68,"time":58.487315999999836,"velocity":0.968503937007874,"duration":0.44012545625000143},{"name":"G#1","midi":32,"time":58.739416499999834,"velocity":0.7401574803149606,"duration":0.23004170625000597},{"name":"B5","midi":83,"time":58.739416499999834,"velocity":0.9291338582677166,"duration":1.257351243749973},{"name":"G#3","midi":56,"time":58.739416499999834,"velocity":0.4330708661417323,"duration":0.13865527499999786},{"name":"B3","midi":59,"time":58.739416499999834,"velocity":0.6850393700787402,"duration":0.16281490624999861},{"name":"D#4","midi":63,"time":58.739416499999834,"velocity":0.5354330708661418,"duration":0.16806700000000063},{"name":"B3","midi":59,"time":58.739416499999834,"velocity":0.889763779527559,"duration":0.25945343124999454},{"name":"G#2","midi":44,"time":58.739416499999834,"velocity":0.9291338582677166,"duration":0.1859241187500018},{"name":"G#1","midi":32,"time":58.99151699999983,"velocity":0.7401574803149606,"duration":0.23004170624999176},{"name":"A#5","midi":82,"time":58.99151699999983,"velocity":0.8188976377952756,"duration":0.24789882499999294},{"name":"G#3","midi":56,"time":58.99151699999983,"velocity":0.5590551181102362,"duration":0.0913864312499939},{"name":"B3","midi":59,"time":58.99151699999983,"velocity":0.6535433070866141,"duration":0.10924354999999508},{"name":"D#4","midi":63,"time":58.99151699999983,"velocity":0.5354330708661418,"duration":0.11029396874999264},{"name":"B1","midi":35,"time":58.99151699999983,"velocity":0.9291338582677166,"duration":0.12184857499999424},{"name":"D2","midi":38,"time":58.99151699999983,"velocity":0.9291338582677166,"duration":0.12184857499999424},{"name":"D#2","midi":39,"time":58.99151699999983,"velocity":0.9291338582677166,"duration":0.12184857499999424},{"name":"G3","midi":55,"time":58.99151699999983,"velocity":0.6299212598425197,"duration":0.12184857499999424},{"name":"G#2","midi":44,"time":58.99151699999983,"velocity":0.9291338582677166,"duration":0.1859241187499947},{"name":"G#4","midi":68,"time":58.99151699999983,"velocity":0.968503937007874,"duration":0.43592378124998277},{"name":"G#1","midi":32,"time":59.24361749999982,"velocity":0.7401574803149606,"duration":0.23004170624999176},{"name":"F#5","midi":78,"time":59.24361749999982,"velocity":0.9133858267716536,"duration":0.4810917874999987},{"name":"G#3","midi":56,"time":59.24361749999982,"velocity":0.6141732283464567,"duration":0.39705828750000194},{"name":"B3","midi":59,"time":59.24361749999982,"velocity":0.6850393700787402,"duration":0.2804618062499955},{"name":"D#4","midi":63,"time":59.24361749999982,"velocity":0.5826771653543307,"duration":0.4065120562500013},{"name":"B3","midi":59,"time":59.24361749999982,"velocity":0.8503937007874016,"duration":0.4033608000000015},{"name":"G#2","midi":44,"time":59.24361749999982,"velocity":0.9291338582677166,"duration":0.1859241187499947},{"name":"D#2","midi":39,"time":59.49571799999981,"velocity":0.7401574803149606,"duration":0.23004170625000597},{"name":"B1","midi":35,"time":59.49571799999981,"velocity":0.9291338582677166,"duration":0.12184857500000845},{"name":"G3","midi":55,"time":59.49571799999981,"velocity":0.6299212598425197,"duration":0.12184857500000845},{"name":"D#3","midi":51,"time":59.49571799999981,"velocity":0.9291338582677166,"duration":0.18592411875000892},{"name":"D#2","midi":39,"time":59.747818499999816,"velocity":0.7401574803149606,"duration":0.23004170624999176},{"name":"B5","midi":83,"time":59.747818499999816,"velocity":0.8582677165354331,"duration":2.7689038249999527},{"name":"G#3","midi":56,"time":59.747818499999816,"velocity":0.5590551181102362,"duration":0.10714271249999996},{"name":"B3","midi":59,"time":59.747818499999816,"velocity":0.5905511811023622,"duration":0.10294103750000261},{"name":"D#4","midi":63,"time":59.747818499999816,"velocity":0.5196850393700787,"duration":0.17541993124999777},{"name":"B3","midi":59,"time":59.747818499999816,"velocity":0.889763779527559,"duration":0.28466348124999286},{"name":"D#3","midi":51,"time":59.747818499999816,"velocity":0.9291338582677166,"duration":0.1859241187499947},{"name":"G#1","midi":32,"time":59.99991899999981,"velocity":0.7401574803149606,"duration":0.23004170624999887},{"name":"A#5","midi":82,"time":59.99991899999981,"velocity":0.8582677165354331,"duration":0.23319296249999866},{"name":"G#3","midi":56,"time":59.99991899999981,"velocity":0.4330708661417323,"duration":0.11659648124999933},{"name":"B3","midi":59,"time":59.99991899999981,"velocity":0.28346456692913385,"duration":0.043067168749999496},{"name":"D#4","midi":63,"time":59.99991899999981,"velocity":0.47244094488188976,"duration":0.15336113749999924},{"name":"B1","midi":35,"time":59.99991899999981,"velocity":0.9291338582677166,"duration":0.12184857500000135},{"name":"D2","midi":38,"time":59.99991899999981,"velocity":0.9291338582677166,"duration":0.12184857500000135},{"name":"D#2","midi":39,"time":59.99991899999981,"velocity":0.9291338582677166,"duration":0.12184857500000135},{"name":"G3","midi":55,"time":59.99991899999981,"velocity":0.6299212598425197,"duration":0.12184857500000135},{"name":"G#2","midi":44,"time":59.99991899999981,"velocity":0.9291338582677166,"duration":0.1859241187500018},{"name":"G#1","midi":32,"time":60.252019499999804,"velocity":0.7401574803149606,"duration":0.23004170624999887},{"name":"F#5","midi":78,"time":60.252019499999804,"velocity":0.8582677165354331,"duration":0.49999932499999744},{"name":"E3","midi":52,"time":60.252019499999804,"velocity":0.3779527559055118,"duration":0.4033608000000015},{"name":"G#3","midi":56,"time":60.252019499999804,"velocity":0.4881889763779528,"duration":0.4033608000000015},{"name":"B3","midi":59,"time":60.252019499999804,"velocity":0.4409448818897638,"duration":0.3981087062499995},{"name":"D#4","midi":63,"time":60.252019499999804,"velocity":0.7086614173228346,"duration":0.25105008124999983},{"name":"G#2","midi":44,"time":60.252019499999804,"velocity":0.9291338582677166,"duration":0.1859241187500018},{"name":"G#1","midi":32,"time":60.5041199999998,"velocity":0.7401574803149606,"duration":0.23004170624999887},{"name":"E5","midi":76,"time":60.5041199999998,"velocity":0.8110236220472441,"duration":0.7153351687499878},{"name":"E4","midi":64,"time":60.5041199999998,"velocity":0.8503937007874016,"duration":0.8518896062499834},{"name":"B1","midi":35,"time":60.5041199999998,"velocity":0.9291338582677166,"duration":0.12184857500000135},{"name":"G3","midi":55,"time":60.5041199999998,"velocity":0.6299212598425197,"duration":0.12184857500000135},{"name":"G#2","midi":44,"time":60.5041199999998,"velocity":0.9291338582677166,"duration":0.1859241187500018},{"name":"G#1","midi":32,"time":60.7562204999998,"velocity":0.7401574803149606,"duration":0.23004170624999176},{"name":"F#5","midi":78,"time":60.7562204999998,"velocity":0.8582677165354331,"duration":0.21113416874999302},{"name":"E3","midi":52,"time":60.7562204999998,"velocity":0.3464566929133858,"duration":0.039915912499999706},{"name":"G#3","midi":56,"time":60.7562204999998,"velocity":0.4566929133858268,"duration":0.08403349999999676},{"name":"B3","midi":59,"time":60.7562204999998,"velocity":0.16535433070866143,"duration":0.04726884374999685},{"name":"G#2","midi":44,"time":60.7562204999998,"velocity":0.9291338582677166,"duration":0.1859241187499947},{"name":"E2","midi":40,"time":61.00832099999979,"velocity":0.7401574803149606,"duration":0.23004170624999887},{"name":"E5","midi":76,"time":61.00832099999979,"velocity":0.8582677165354331,"duration":0.4632346687499975},{"name":"E3","midi":52,"time":61.00832099999979,"velocity":0.4645669291338583,"duration":0.09663852500000303},{"name":"G#3","midi":56,"time":61.00832099999979,"velocity":0.6771653543307087,"duration":0.09978978125000282},{"name":"B3","midi":59,"time":61.00832099999979,"velocity":0.5669291338582677,"duration":0.08508391875000143},{"name":"B1","midi":35,"time":61.00832099999979,"velocity":0.9291338582677166,"duration":0.12184857500000135},{"name":"D2","midi":38,"time":61.00832099999979,"velocity":0.9291338582677166,"duration":0.12184857500000135},{"name":"D#2","midi":39,"time":61.00832099999979,"velocity":0.9291338582677166,"duration":0.12184857500000135},{"name":"G3","midi":55,"time":61.00832099999979,"velocity":0.6299212598425197,"duration":0.12184857500000135},{"name":"E3","midi":52,"time":61.00832099999979,"velocity":0.9291338582677166,"duration":0.1859241187500018},{"name":"B1","midi":35,"time":61.26042149999979,"velocity":0.7401574803149606,"duration":0.23004170624999887},{"name":"E5","midi":76,"time":61.26042149999979,"velocity":0.8582677165354331,"duration":0.4632346687499975},{"name":"E3","midi":52,"time":61.26042149999979,"velocity":0.4881889763779528,"duration":0.19537788750000118},{"name":"G#3","midi":56,"time":61.26042149999979,"velocity":0.5826771653543307,"duration":0.20798291250000034},{"name":"B3","midi":59,"time":61.26042149999979,"velocity":0.5905511811023622,"duration":0.20168040000000076},{"name":"B2","midi":47,"time":61.26042149999979,"velocity":0.9291338582677166,"duration":0.1859241187500018},{"name":"F#2","midi":42,"time":61.512521999999784,"velocity":0.7401574803149606,"duration":0.23004170624999887},{"name":"E5","midi":76,"time":61.512521999999784,"velocity":0.8582677165354331,"duration":0.4663859249999973},{"name":"E3","midi":52,"time":61.512521999999784,"velocity":0.5354330708661418,"duration":0.15020988124999946},{"name":"G#3","midi":56,"time":61.512521999999784,"velocity":0.6771653543307087,"duration":0.15546197500000147},{"name":"B3","midi":59,"time":61.512521999999784,"velocity":0.6535433070866141,"duration":0.15020988124999946},{"name":"B1","midi":35,"time":61.512521999999784,"velocity":0.9291338582677166,"duration":0.12184857500000135},{"name":"G3","midi":55,"time":61.512521999999784,"velocity":0.6299212598425197,"duration":0.12184857500000135},{"name":"F#3","midi":54,"time":61.512521999999784,"velocity":0.9291338582677166,"duration":0.1859241187500018},{"name":"F#2","midi":42,"time":61.76462249999978,"velocity":0.7401574803149606,"duration":0.23004170624999176},{"name":"E5","midi":76,"time":61.76462249999978,"velocity":0.8582677165354331,"duration":0.7184864249999876},{"name":"E3","midi":52,"time":61.76462249999978,"velocity":0.5669291338582677,"duration":0.22268877499999462},{"name":"G#3","midi":56,"time":61.76462249999978,"velocity":0.7086614173228346,"duration":0.22373919374999218},{"name":"B3","midi":59,"time":61.76462249999978,"velocity":0.6535433070866141,"duration":0.21848709999999727},{"name":"E4","midi":64,"time":61.76462249999978,"velocity":0.8503937007874016,"duration":0.24789882499999294},{"name":"F#3","midi":54,"time":61.76462249999978,"velocity":0.9291338582677166,"duration":0.1859241187500018},{"name":"F#2","midi":42,"time":62.01672299999977,"velocity":0.7401574803149606,"duration":0.23004170624999887},{"name":"D#5","midi":75,"time":62.01672299999977,"velocity":0.8582677165354331,"duration":0.21428542499999992},{"name":"D#4","midi":63,"time":62.01672299999977,"velocity":0.8503937007874016,"duration":0.24789882500000004},{"name":"B1","midi":35,"time":62.01672299999977,"velocity":0.9291338582677166,"duration":0.12184857500000135},{"name":"D2","midi":38,"time":62.01672299999977,"velocity":0.9291338582677166,"duration":0.12184857500000135},{"name":"D#2","midi":39,"time":62.01672299999977,"velocity":0.9291338582677166,"duration":0.12184857500000135},{"name":"G3","midi":55,"time":62.01672299999977,"velocity":0.6299212598425197,"duration":0.12184857500000135},{"name":"F#3","midi":54,"time":62.01672299999977,"velocity":0.9291338582677166,"duration":0.1859241187500018},{"name":"F#2","midi":42,"time":62.26882349999977,"velocity":0.7401574803149606,"duration":0.23004170624999887},{"name":"E5","midi":76,"time":62.26882349999977,"velocity":0.8582677165354331,"duration":0.24789882500000004},{"name":"E4","midi":64,"time":62.26882349999977,"velocity":0.8503937007874016,"duration":0.24789882500000004},{"name":"F#3","midi":54,"time":62.26882349999977,"velocity":0.9291338582677166,"duration":0.1859241187500018},{"name":"B1","midi":35,"time":62.520923999999766,"velocity":0.7401574803149606,"duration":0.12184857500000135},{"name":"B4","midi":71,"time":62.520923999999766,"velocity":0.8110236220472441,"duration":2.012602324999989},{"name":"D#5","midi":75,"time":62.520923999999766,"velocity":0.8110236220472441,"duration":0.49999932499999744},{"name":"F#5","midi":78,"time":62.520923999999766,"velocity":0.8110236220472441,"duration":0.7184864249999947},{"name":"D#5","midi":75,"time":62.520923999999766,"velocity":0.8582677165354331,"duration":2.012602324999989},{"name":"D#3","midi":51,"time":62.520923999999766,"velocity":0.7952755905511811,"duration":0.37710033124999853},{"name":"B3","midi":59,"time":62.520923999999766,"velocity":0.6850393700787402,"duration":0.3918061937499999},{"name":"D#4","midi":63,"time":62.520923999999766,"velocity":0.8503937007874016,"duration":0.24789882500000004},{"name":"B1","midi":35,"time":62.520923999999766,"velocity":0.9291338582677166,"duration":0.23004170624999887},{"name":"G3","midi":55,"time":62.520923999999766,"velocity":0.6299212598425197,"duration":0.12184857500000135},{"name":"B2","midi":47,"time":62.520923999999766,"velocity":0.9291338582677166,"duration":0.1859241187500018},{"name":"B1","midi":35,"time":62.773024499999764,"velocity":0.7401574803149606,"duration":0.23004170624999887},{"name":"B3","midi":59,"time":62.773024499999764,"velocity":0.8503937007874016,"duration":0.24789882500000004},{"name":"B2","midi":47,"time":62.773024499999764,"velocity":0.9291338582677166,"duration":0.1859241187500018},{"name":"B1","midi":35,"time":63.02512499999976,"velocity":0.7401574803149606,"duration":0.12184857500000135},{"name":"F#5","midi":78,"time":63.02512499999976,"velocity":0.8582677165354331,"duration":0.8445366749999934},{"name":"D#3","midi":51,"time":63.02512499999976,"velocity":0.7086614173228346,"duration":0.10924355000000219},{"name":"F#3","midi":54,"time":63.02512499999976,"velocity":0.7086614173228346,"duration":0.11344522499999954},{"name":"F#3","midi":54,"time":63.02512499999976,"velocity":0.8503937007874016,"duration":0.24789882500000004},{"name":"B1","midi":35,"time":63.02512499999976,"velocity":0.9291338582677166,"duration":0.23004170624999887},{"name":"D2","midi":38,"time":63.02512499999976,"velocity":0.9291338582677166,"duration":0.12184857500000135},{"name":"D#2","midi":39,"time":63.02512499999976,"velocity":0.9291338582677166,"duration":0.12184857500000135},{"name":"G3","midi":55,"time":63.02512499999976,"velocity":0.6299212598425197,"duration":0.12184857500000135},{"name":"B2","midi":47,"time":63.02512499999976,"velocity":0.9291338582677166,"duration":0.1859241187500018},{"name":"B1","midi":35,"time":63.27722549999976,"velocity":0.7401574803149606,"duration":0.23004170624999887},{"name":"F#5","midi":78,"time":63.27722549999976,"velocity":0.8582677165354331,"duration":1.2563008249999967},{"name":"D#3","midi":51,"time":63.27722549999976,"velocity":0.7086614173228346,"duration":0.5651252874999955},{"name":"F#3","midi":54,"time":63.27722549999976,"velocity":0.6771653543307087,"duration":0.49999932499999744},{"name":"E3","midi":52,"time":63.27722549999976,"velocity":0.8503937007874016,"duration":0.24789882500000004},{"name":"B2","midi":47,"time":63.27722549999976,"velocity":0.9291338582677166,"duration":0.1859241187500018},{"name":"F#1","midi":30,"time":63.529325999999756,"velocity":0.7401574803149606,"duration":0.23004170624999887},{"name":"F#3","midi":54,"time":63.529325999999756,"velocity":0.8503937007874016,"duration":0.328781068749997},{"name":"B1","midi":35,"time":63.529325999999756,"velocity":0.9291338582677166,"duration":0.12184857500000135},{"name":"G3","midi":55,"time":63.529325999999756,"velocity":0.6299212598425197,"duration":0.12184857500000135},{"name":"F#2","midi":42,"time":63.529325999999756,"velocity":0.9291338582677166,"duration":0.1859241187500018},{"name":"F#1","midi":30,"time":63.78142649999975,"velocity":0.7401574803149606,"duration":0.23004170625000597},{"name":"D#4","midi":63,"time":63.78142649999975,"velocity":0.8503937007874016,"duration":0.24789882500000715},{"name":"F#2","midi":42,"time":63.78142649999975,"velocity":0.9291338582677166,"duration":0.1859241187500018},{"name":"B1","midi":35,"time":64.03352699999976,"velocity":0.7401574803149606,"duration":0.12184857500000135},{"name":"B1","midi":35,"time":64.03352699999976,"velocity":0.9291338582677166,"duration":0.23004170624999176},{"name":"D2","midi":38,"time":64.03352699999976,"velocity":0.9291338582677166,"duration":0.12184857500000135},{"name":"D#2","midi":39,"time":64.03352699999976,"velocity":0.9291338582677166,"duration":0.12184857500000135},{"name":"G3","midi":55,"time":64.03352699999976,"velocity":0.6299212598425197,"duration":0.12184857500000135},{"name":"B2","midi":47,"time":64.03352699999976,"velocity":0.9291338582677166,"duration":0.1859241187499947},{"name":"B1","midi":35,"time":64.28562749999976,"velocity":0.7401574803149606,"duration":0.23004170624999176},{"name":"B3","midi":59,"time":64.28562749999976,"velocity":0.8503937007874016,"duration":0.24789882499999294},{"name":"B2","midi":47,"time":64.28562749999976,"velocity":0.9291338582677166,"duration":0.1859241187499947},{"name":"A#1","midi":34,"time":64.53772799999976,"velocity":0.7401574803149606,"duration":0.23004170624999176},{"name":"A#4","midi":70,"time":64.53772799999976,"velocity":0.8110236220472441,"duration":0.24789882499999294},{"name":"C#5","midi":73,"time":64.53772799999976,"velocity":0.8110236220472441,"duration":1.2563008249999967},{"name":"A#5","midi":82,"time":64.53772799999976,"velocity":0.8110236220472441,"duration":2.012602324999989},{"name":"A#4","midi":70,"time":64.53772799999976,"velocity":0.8582677165354331,"duration":0.7520998250000019},{"name":"C#4","midi":61,"time":64.53772799999976,"velocity":0.8503937007874016,"duration":1.0042003249999993},{"name":"B1","midi":35,"time":64.53772799999976,"velocity":0.9291338582677166,"duration":0.12184857500000135},{"name":"G3","midi":55,"time":64.53772799999976,"velocity":0.6299212598425197,"duration":0.12184857500000135},{"name":"A#2","midi":46,"time":64.53772799999976,"velocity":0.9291338582677166,"duration":0.1859241187499947},{"name":"A#2","midi":46,"time":64.55663553749976,"velocity":0.7086614173228346,"duration":0.23949547499999824},{"name":"A#1","midi":34,"time":64.78982849999976,"velocity":0.7401574803149606,"duration":0.23004170625000597},{"name":"B4","midi":71,"time":64.78982849999976,"velocity":0.8582677165354331,"duration":0.24789882500000715},{"name":"A#2","midi":46,"time":64.78982849999976,"velocity":0.9291338582677166,"duration":0.18592411875000892},{"name":"B2","midi":47,"time":64.81188729374976,"velocity":0.6535433070866141,"duration":0.21848710000000438},{"name":"A#1","midi":34,"time":65.04192899999977,"velocity":0.7401574803149606,"duration":0.23004170624999176},{"name":"G#5","midi":80,"time":65.04192899999977,"velocity":0.8110236220472441,"duration":1.3823510749999883},{"name":"A#4","midi":70,"time":65.04192899999977,"velocity":0.8582677165354331,"duration":0.7520998249999877},{"name":"B1","midi":35,"time":65.04192899999977,"velocity":0.9291338582677166,"duration":0.12184857500000135},{"name":"D2","midi":38,"time":65.04192899999977,"velocity":0.9291338582677166,"duration":0.12184857500000135},{"name":"D#2","midi":39,"time":65.04192899999977,"velocity":0.9291338582677166,"duration":0.12184857500000135},{"name":"G3","midi":55,"time":65.04192899999977,"velocity":0.6299212598425197,"duration":0.12184857500000135},{"name":"A#2","midi":46,"time":65.04192899999977,"velocity":0.9291338582677166,"duration":0.1859241187499947},{"name":"A#2","midi":46,"time":65.08289533124977,"velocity":0.6771653543307087,"duration":0.2027308187499841},{"name":"A#1","midi":34,"time":65.29402949999977,"velocity":0.7401574803149606,"duration":0.23004170624999176},{"name":"F#4","midi":66,"time":65.29402949999977,"velocity":0.8582677165354331,"duration":0.24789882499999294},{"name":"A#2","midi":46,"time":65.29402949999977,"velocity":0.9291338582677166,"duration":0.1859241187499947},{"name":"F#2","midi":42,"time":65.32764289999976,"velocity":0.8503937007874016,"duration":0.21428542499999992},{"name":"A#1","midi":34,"time":65.54612999999976,"velocity":0.7401574803149606,"duration":0.23004170624999176},{"name":"F#5","midi":78,"time":65.54612999999976,"velocity":0.8110236220472441,"duration":1.0042003249999851},{"name":"A#4","midi":70,"time":65.54612999999976,"velocity":0.8582677165354331,"duration":0.7520998249999877},{"name":"B1","midi":35,"time":65.54612999999976,"velocity":0.9291338582677166,"duration":0.12184857500000135},{"name":"G3","midi":55,"time":65.54612999999976,"velocity":0.6299212598425197,"duration":0.12184857500000135},{"name":"A#2","midi":46,"time":65.54612999999976,"velocity":0.9291338582677166,"duration":0.1859241187499947},{"name":"A#2","midi":46,"time":65.59970135624977,"velocity":0.7559055118110236,"duration":0.21848709999999016},{"name":"A#1","midi":34,"time":65.79823049999976,"velocity":0.7401574803149606,"duration":0.23004170624999176},{"name":"B4","midi":71,"time":65.79823049999976,"velocity":0.8582677165354331,"duration":0.24789882499999294},{"name":"A#2","midi":46,"time":65.79823049999976,"velocity":0.9291338582677166,"duration":0.1859241187499947},{"name":"B2","midi":47,"time":65.84444892499975,"velocity":0.7874015748031497,"duration":0.22163835625001127},{"name":"F#1","midi":30,"time":66.05033099999976,"velocity":0.7401574803149606,"duration":0.23004170624999176},{"name":"C#5","midi":73,"time":66.05033099999976,"velocity":0.8110236220472441,"duration":0.49999932499999034},{"name":"A#4","midi":70,"time":66.05033099999976,"velocity":0.8582677165354331,"duration":0.49999932499999034},{"name":"B1","midi":35,"time":66.05033099999976,"velocity":0.9291338582677166,"duration":0.12184857500000135},{"name":"D2","midi":38,"time":66.05033099999976,"velocity":0.9291338582677166,"duration":0.12184857500000135},{"name":"D#2","midi":39,"time":66.05033099999976,"velocity":0.9291338582677166,"duration":0.12184857500000135},{"name":"G3","midi":55,"time":66.05033099999976,"velocity":0.6299212598425197,"duration":0.12184857500000135},{"name":"F#2","midi":42,"time":66.05033099999976,"velocity":0.9291338582677166,"duration":0.1859241187499947},{"name":"A#2","midi":46,"time":66.09654942499976,"velocity":0.7952755905511811,"duration":0.2205879374999853},{"name":"F#1","midi":30,"time":66.30243149999976,"velocity":0.7401574803149606,"duration":0.23004170624999176},{"name":"F#4","midi":66,"time":66.30243149999976,"velocity":0.8582677165354331,"duration":0.24789882499999294},{"name":"F#2","midi":42,"time":66.30243149999976,"velocity":0.9291338582677166,"duration":0.1859241187499947},{"name":"F#2","midi":42,"time":66.32659113124976,"velocity":0.8503937007874016,"duration":0.16701658124999597},{"name":"G#1","midi":32,"time":66.55453199999975,"velocity":0.7401574803149606,"duration":0.23004170624999176},{"name":"D#5","midi":75,"time":66.55453199999975,"velocity":0.8110236220472441,"duration":2.012602324999989},{"name":"G#5","midi":80,"time":66.55453199999975,"velocity":0.8110236220472441,"duration":4.029406325000096},{"name":"B5","midi":83,"time":66.55453199999975,"velocity":0.8110236220472441,"duration":0.49999932499999034},{"name":"B1","midi":35,"time":66.55453199999975,"velocity":0.9291338582677166,"duration":0.12184857500000135},{"name":"G3","midi":55,"time":66.55453199999975,"velocity":0.6299212598425197,"duration":0.12184857500000135},{"name":"G#2","midi":44,"time":66.55453199999975,"velocity":0.9291338582677166,"duration":0.1859241187499947},{"name":"G#4","midi":68,"time":66.55453199999975,"velocity":0.968503937007874,"duration":0.4401254562499872},{"name":"G#1","midi":32,"time":66.80663249999975,"velocity":0.7401574803149606,"duration":0.23004170624999176},{"name":"B5","midi":83,"time":66.80663249999975,"velocity":0.9291338582677166,"duration":1.2573512437499943},{"name":"G#3","midi":56,"time":66.80663249999975,"velocity":0.4330708661417323,"duration":0.13865527499999075},{"name":"B3","midi":59,"time":66.80663249999975,"velocity":0.6850393700787402,"duration":0.1628149062499915},{"name":"D#4","midi":63,"time":66.80663249999975,"velocity":0.5354330708661418,"duration":0.16806699999999353},{"name":"B3","midi":59,"time":66.80663249999975,"velocity":0.889763779527559,"duration":0.25945343124999454},{"name":"G#2","midi":44,"time":66.80663249999975,"velocity":0.9291338582677166,"duration":0.1859241187499947},{"name":"G#1","midi":32,"time":67.05873299999975,"velocity":0.7401574803149606,"duration":0.23004170624999176},{"name":"A#5","midi":82,"time":67.05873299999975,"velocity":0.8188976377952756,"duration":0.24789882499999294},{"name":"G#3","midi":56,"time":67.05873299999975,"velocity":0.5590551181102362,"duration":0.09138643125000101},{"name":"B3","midi":59,"time":67.05873299999975,"velocity":0.6535433070866141,"duration":0.10924355000000219},{"name":"D#4","midi":63,"time":67.05873299999975,"velocity":0.5354330708661418,"duration":0.11029396874999975},{"name":"B1","midi":35,"time":67.05873299999975,"velocity":0.9291338582677166,"duration":0.12184857500000135},{"name":"D2","midi":38,"time":67.05873299999975,"velocity":0.9291338582677166,"duration":0.12184857500000135},{"name":"D#2","midi":39,"time":67.05873299999975,"velocity":0.9291338582677166,"duration":0.12184857500000135},{"name":"G3","midi":55,"time":67.05873299999975,"velocity":0.6299212598425197,"duration":0.12184857500000135},{"name":"G#2","midi":44,"time":67.05873299999975,"velocity":0.9291338582677166,"duration":0.1859241187499947},{"name":"G#4","midi":68,"time":67.05873299999975,"velocity":0.968503937007874,"duration":0.435923781249997},{"name":"G#1","midi":32,"time":67.31083349999975,"velocity":0.7401574803149606,"duration":0.23004170624999176},{"name":"F#5","midi":78,"time":67.31083349999975,"velocity":0.9133858267716536,"duration":0.4810917874999916},{"name":"G#3","midi":56,"time":67.31083349999975,"velocity":0.6141732283464567,"duration":0.3970582874999877},{"name":"B3","midi":59,"time":67.31083349999975,"velocity":0.6850393700787402,"duration":0.2804618062499884},{"name":"D#4","midi":63,"time":67.31083349999975,"velocity":0.5826771653543307,"duration":0.4065120562499942},{"name":"B3","midi":59,"time":67.31083349999975,"velocity":0.8503937007874016,"duration":0.4033607999999873},{"name":"G#2","midi":44,"time":67.31083349999975,"velocity":0.9291338582677166,"duration":0.1859241187499947},{"name":"D#2","midi":39,"time":67.56293399999974,"velocity":0.7401574803149606,"duration":0.23004170624999176},{"name":"B1","midi":35,"time":67.56293399999974,"velocity":0.9291338582677166,"duration":0.12184857499998714},{"name":"G3","midi":55,"time":67.56293399999974,"velocity":0.6299212598425197,"duration":0.12184857499998714},{"name":"D#3","midi":51,"time":67.56293399999974,"velocity":0.9291338582677166,"duration":0.1859241187499947},{"name":"D#2","midi":39,"time":67.81503449999974,"velocity":0.7401574803149606,"duration":0.23004170625000597},{"name":"B5","midi":83,"time":67.81503449999974,"velocity":0.8582677165354331,"duration":2.768903825000109},{"name":"G#3","midi":56,"time":67.81503449999974,"velocity":0.5590551181102362,"duration":0.10714271250000706},{"name":"B3","midi":59,"time":67.81503449999974,"velocity":0.5905511811023622,"duration":0.10294103750000261},{"name":"D#4","midi":63,"time":67.81503449999974,"velocity":0.5196850393700787,"duration":0.17541993125000488},{"name":"B3","midi":59,"time":67.81503449999974,"velocity":0.889763779527559,"duration":0.28466348125000707},{"name":"D#3","midi":51,"time":67.81503449999974,"velocity":0.9291338582677166,"duration":0.18592411875000892},{"name":"G#1","midi":32,"time":68.06713499999975,"velocity":0.7401574803149606,"duration":0.23004170624999176},{"name":"A#5","midi":82,"time":68.06713499999975,"velocity":0.8582677165354331,"duration":0.23319296249999866},{"name":"G#3","midi":56,"time":68.06713499999975,"velocity":0.4330708661417323,"duration":0.11659648124999933},{"name":"B3","midi":59,"time":68.06713499999975,"velocity":0.28346456692913385,"duration":0.043067168749999496},{"name":"D#4","midi":63,"time":68.06713499999975,"velocity":0.47244094488188976,"duration":0.15336113749999924},{"name":"B1","midi":35,"time":68.06713499999975,"velocity":0.9291338582677166,"duration":0.12184857500000135},{"name":"D2","midi":38,"time":68.06713499999975,"velocity":0.9291338582677166,"duration":0.12184857500000135},{"name":"D#2","midi":39,"time":68.06713499999975,"velocity":0.9291338582677166,"duration":0.12184857500000135},{"name":"G3","midi":55,"time":68.06713499999975,"velocity":0.6299212598425197,"duration":0.12184857500000135},{"name":"G#2","midi":44,"time":68.06713499999975,"velocity":0.9291338582677166,"duration":0.1859241187499947},{"name":"G#1","midi":32,"time":68.31923549999975,"velocity":0.7401574803149606,"duration":0.23004170624999176},{"name":"F#5","midi":78,"time":68.31923549999975,"velocity":0.8582677165354331,"duration":0.49999932500000455},{"name":"E3","midi":52,"time":68.31923549999975,"velocity":0.3779527559055118,"duration":0.4033608000000015},{"name":"G#3","midi":56,"time":68.31923549999975,"velocity":0.4881889763779528,"duration":0.4033608000000015},{"name":"B3","midi":59,"time":68.31923549999975,"velocity":0.4409448818897638,"duration":0.3981087062499995},{"name":"D#4","midi":63,"time":68.31923549999975,"velocity":0.7086614173228346,"duration":0.25105008124999983},{"name":"G#2","midi":44,"time":68.31923549999975,"velocity":0.9291338582677166,"duration":0.1859241187499947},{"name":"G#1","midi":32,"time":68.57133599999975,"velocity":0.7401574803149606,"duration":0.23004170625000597},{"name":"E5","midi":76,"time":68.57133599999975,"velocity":0.8110236220472441,"duration":0.7153351687500304},{"name":"E4","midi":64,"time":68.57133599999975,"velocity":0.8503937007874016,"duration":0.8518896062500403},{"name":"B1","midi":35,"time":68.57133599999975,"velocity":0.9291338582677166,"duration":0.12184857500000135},{"name":"G3","midi":55,"time":68.57133599999975,"velocity":0.6299212598425197,"duration":0.12184857500000135},{"name":"G#2","midi":44,"time":68.57133599999975,"velocity":0.9291338582677166,"duration":0.18592411875000892},{"name":"G#1","midi":32,"time":68.82343649999976,"velocity":0.7401574803149606,"duration":0.23004170625000597},{"name":"F#5","midi":78,"time":68.82343649999976,"velocity":0.8582677165354331,"duration":0.21113416875000723},{"name":"E3","midi":52,"time":68.82343649999976,"velocity":0.3464566929133858,"duration":0.03991591250000681},{"name":"G#3","midi":56,"time":68.82343649999976,"velocity":0.4566929133858268,"duration":0.08403350000000387},{"name":"B3","midi":59,"time":68.82343649999976,"velocity":0.16535433070866143,"duration":0.04726884375000395},{"name":"G#2","midi":44,"time":68.82343649999976,"velocity":0.9291338582677166,"duration":0.18592411875000892},{"name":"E2","midi":40,"time":69.07553699999977,"velocity":0.7401574803149606,"duration":0.23004170625000597},{"name":"E5","midi":76,"time":69.07553699999977,"velocity":0.8582677165354331,"duration":0.46323466875003305},{"name":"E3","midi":52,"time":69.07553699999977,"velocity":0.4645669291338583,"duration":0.09663852500000303},{"name":"G#3","midi":56,"time":69.07553699999977,"velocity":0.6771653543307087,"duration":0.09978978125000992},{"name":"B3","midi":59,"time":69.07553699999977,"velocity":0.5669291338582677,"duration":0.08508391875000143},{"name":"B1","midi":35,"time":69.07553699999977,"velocity":0.9291338582677166,"duration":0.12184857500001556},{"name":"D2","midi":38,"time":69.07553699999977,"velocity":0.9291338582677166,"duration":0.12184857500001556},{"name":"D#2","midi":39,"time":69.07553699999977,"velocity":0.9291338582677166,"duration":0.12184857500001556},{"name":"G3","midi":55,"time":69.07553699999977,"velocity":0.6299212598425197,"duration":0.12184857500001556},{"name":"E3","midi":52,"time":69.07553699999977,"velocity":0.9291338582677166,"duration":0.18592411875000892},{"name":"B1","midi":35,"time":69.32763749999978,"velocity":0.7401574803149606,"duration":0.23004170625002018},{"name":"E5","midi":76,"time":69.32763749999978,"velocity":0.8582677165354331,"duration":0.46323466875003305},{"name":"E3","midi":52,"time":69.32763749999978,"velocity":0.4881889763779528,"duration":0.1953778875000154},{"name":"G#3","midi":56,"time":69.32763749999978,"velocity":0.5826771653543307,"duration":0.20798291250001455},{"name":"B3","midi":59,"time":69.32763749999978,"velocity":0.5905511811023622,"duration":0.20168040000001497},{"name":"B2","midi":47,"time":69.32763749999978,"velocity":0.9291338582677166,"duration":0.18592411875000892},{"name":"F#2","midi":42,"time":69.57973799999981,"velocity":0.7401574803149606,"duration":0.23004170625000597},{"name":"E5","midi":76,"time":69.57973799999981,"velocity":0.8582677165354331,"duration":0.4663859250000115},{"name":"E3","midi":52,"time":69.57973799999981,"velocity":0.5354330708661418,"duration":0.15020988125000656},{"name":"G#3","midi":56,"time":69.57973799999981,"velocity":0.6771653543307087,"duration":0.15546197500000858},{"name":"B3","midi":59,"time":69.57973799999981,"velocity":0.6535433070866141,"duration":0.15020988125000656},{"name":"B1","midi":35,"time":69.57973799999981,"velocity":0.9291338582677166,"duration":0.12184857500000135},{"name":"G3","midi":55,"time":69.57973799999981,"velocity":0.6299212598425197,"duration":0.12184857500000135},{"name":"F#3","midi":54,"time":69.57973799999981,"velocity":0.9291338582677166,"duration":0.18592411875000892},{"name":"F#2","midi":42,"time":69.83183849999982,"velocity":0.7401574803149606,"duration":0.23004170625000597},{"name":"E5","midi":76,"time":69.83183849999982,"velocity":0.8582677165354331,"duration":0.7184864250000231},{"name":"E3","midi":52,"time":69.83183849999982,"velocity":0.5669291338582677,"duration":0.22268877500000883},{"name":"G#3","midi":56,"time":69.83183849999982,"velocity":0.7086614173228346,"duration":0.2237391937500064},{"name":"B3","midi":59,"time":69.83183849999982,"velocity":0.6535433070866141,"duration":0.21848710000000438},{"name":"E4","midi":64,"time":69.83183849999982,"velocity":0.8503937007874016,"duration":0.24789882500000715},{"name":"F#3","midi":54,"time":69.83183849999982,"velocity":0.9291338582677166,"duration":0.1859241187499947},{"name":"F#2","midi":42,"time":70.08393899999983,"velocity":0.7401574803149606,"duration":0.23004170625000597},{"name":"D#5","midi":75,"time":70.08393899999983,"velocity":0.8582677165354331,"duration":0.21428542499999992},{"name":"D#4","midi":63,"time":70.08393899999983,"velocity":0.8503937007874016,"duration":0.24789882500000715},{"name":"B1","midi":35,"time":70.08393899999983,"velocity":0.9291338582677166,"duration":0.12184857500000135},{"name":"D2","midi":38,"time":70.08393899999983,"velocity":0.9291338582677166,"duration":0.12184857500000135},{"name":"D#2","midi":39,"time":70.08393899999983,"velocity":0.9291338582677166,"duration":0.12184857500000135},{"name":"G3","midi":55,"time":70.08393899999983,"velocity":0.6299212598425197,"duration":0.12184857500000135},{"name":"F#3","midi":54,"time":70.08393899999983,"velocity":0.9291338582677166,"duration":0.1859241187499947},{"name":"F#2","midi":42,"time":70.33603949999984,"velocity":0.7401574803149606,"duration":0.23004170625000597},{"name":"E5","midi":76,"time":70.33603949999984,"velocity":0.8582677165354331,"duration":0.24789882500000715},{"name":"E4","midi":64,"time":70.33603949999984,"velocity":0.8503937007874016,"duration":0.24789882500000715},{"name":"F#3","midi":54,"time":70.33603949999984,"velocity":0.9291338582677166,"duration":0.1859241187499947},{"name":"B1","midi":35,"time":70.58813999999985,"velocity":0.7401574803149606,"duration":0.12184857500000135},{"name":"B4","midi":71,"time":70.58813999999985,"velocity":0.8110236220472441,"duration":2.012602325000003},{"name":"D#5","midi":75,"time":70.58813999999985,"velocity":0.8110236220472441,"duration":0.49999932499999034},{"name":"F#5","midi":78,"time":70.58813999999985,"velocity":0.8110236220472441,"duration":0.7184864249999947},{"name":"D#5","midi":75,"time":70.58813999999985,"velocity":0.8582677165354331,"duration":2.012602325000003},{"name":"D#3","midi":51,"time":70.58813999999985,"velocity":0.7952755905511811,"duration":0.3771003312499914},{"name":"B3","midi":59,"time":70.58813999999985,"velocity":0.6850393700787402,"duration":0.3918061937499857},{"name":"D#4","midi":63,"time":70.58813999999985,"velocity":0.8503937007874016,"duration":0.24789882499999294},{"name":"B1","midi":35,"time":70.58813999999985,"velocity":0.9291338582677166,"duration":0.23004170624999176},{"name":"G3","midi":55,"time":70.58813999999985,"velocity":0.6299212598425197,"duration":0.12184857500000135},{"name":"B2","midi":47,"time":70.58813999999985,"velocity":0.9291338582677166,"duration":0.1859241187499947},{"name":"B1","midi":35,"time":70.84024049999985,"velocity":0.7401574803149606,"duration":0.23004170624999176},{"name":"B3","midi":59,"time":70.84024049999985,"velocity":0.8503937007874016,"duration":0.24789882499999294},{"name":"B2","midi":47,"time":70.84024049999985,"velocity":0.9291338582677166,"duration":0.1859241187499947},{"name":"B1","midi":35,"time":71.09234099999985,"velocity":0.7401574803149606,"duration":0.12184857500000135},{"name":"F#5","midi":78,"time":71.09234099999985,"velocity":0.8582677165354331,"duration":0.8445366750000147},{"name":"D#3","midi":51,"time":71.09234099999985,"velocity":0.7086614173228346,"duration":0.10924355000000219},{"name":"F#3","midi":54,"time":71.09234099999985,"velocity":0.7086614173228346,"duration":0.11344522500000664},{"name":"F#3","midi":54,"time":71.09234099999985,"velocity":0.8503937007874016,"duration":0.24789882500000715},{"name":"B1","midi":35,"time":71.09234099999985,"velocity":0.9291338582677166,"duration":0.23004170625000597},{"name":"D2","midi":38,"time":71.09234099999985,"velocity":0.9291338582677166,"duration":0.12184857500000135},{"name":"D#2","midi":39,"time":71.09234099999985,"velocity":0.9291338582677166,"duration":0.12184857500000135},{"name":"G3","midi":55,"time":71.09234099999985,"velocity":0.6299212598425197,"duration":0.12184857500000135},{"name":"B2","midi":47,"time":71.09234099999985,"velocity":0.9291338582677166,"duration":0.1859241187499947},{"name":"B1","midi":35,"time":71.34444149999986,"velocity":0.7401574803149606,"duration":0.23004170624999176},{"name":"F#5","midi":78,"time":71.34444149999986,"velocity":0.8582677165354331,"duration":1.2563008249999967},{"name":"D#3","midi":51,"time":71.34444149999986,"velocity":0.7086614173228346,"duration":0.5651252874999955},{"name":"F#3","midi":54,"time":71.34444149999986,"velocity":0.6771653543307087,"duration":0.49999932499999034},{"name":"E3","midi":52,"time":71.34444149999986,"velocity":0.8503937007874016,"duration":0.24789882499999294},{"name":"B2","midi":47,"time":71.34444149999986,"velocity":0.9291338582677166,"duration":0.1859241187499947},{"name":"F#1","midi":30,"time":71.59654199999986,"velocity":0.7401574803149606,"duration":0.23004170624999176},{"name":"F#3","midi":54,"time":71.59654199999986,"velocity":0.8503937007874016,"duration":0.3287810687500041},{"name":"B1","midi":35,"time":71.59654199999986,"velocity":0.9291338582677166,"duration":0.12184857500000135},{"name":"G3","midi":55,"time":71.59654199999986,"velocity":0.6299212598425197,"duration":0.12184857500000135},{"name":"F#2","midi":42,"time":71.59654199999986,"velocity":0.9291338582677166,"duration":0.1859241187499947},{"name":"F#1","midi":30,"time":71.84864249999985,"velocity":0.7401574803149606,"duration":0.23004170625000597},{"name":"D#4","midi":63,"time":71.84864249999985,"velocity":0.8503937007874016,"duration":0.24789882500000715},{"name":"F#2","midi":42,"time":71.84864249999985,"velocity":0.9291338582677166,"duration":0.18592411875000892},{"name":"B1","midi":35,"time":72.10074299999987,"velocity":0.7401574803149606,"duration":0.12184857500000135},{"name":"B1","midi":35,"time":72.10074299999987,"velocity":0.9291338582677166,"duration":0.23004170624999176},{"name":"D2","midi":38,"time":72.10074299999987,"velocity":0.9291338582677166,"duration":0.12184857500000135},{"name":"D#2","midi":39,"time":72.10074299999987,"velocity":0.9291338582677166,"duration":0.12184857500000135},{"name":"G3","midi":55,"time":72.10074299999987,"velocity":0.6299212598425197,"duration":0.12184857500000135},{"name":"B2","midi":47,"time":72.10074299999987,"velocity":0.9291338582677166,"duration":0.1859241187499947},{"name":"B1","midi":35,"time":72.35284349999986,"velocity":0.7401574803149606,"duration":0.23004170624999176},{"name":"B3","midi":59,"time":72.35284349999986,"velocity":0.8503937007874016,"duration":0.24789882499999294},{"name":"B2","midi":47,"time":72.35284349999986,"velocity":0.9291338582677166,"duration":0.1859241187499947},{"name":"A#1","midi":34,"time":72.60494399999986,"velocity":0.7401574803149606,"duration":0.23004170624999176},{"name":"A#4","midi":70,"time":72.60494399999986,"velocity":0.8110236220472441,"duration":0.24789882499999294},{"name":"C#5","midi":73,"time":72.60494399999986,"velocity":0.8110236220472441,"duration":1.2563008249999967},{"name":"A#5","midi":82,"time":72.60494399999986,"velocity":0.8110236220472441,"duration":2.012602324999989},{"name":"A#4","midi":70,"time":72.60494399999986,"velocity":0.8582677165354331,"duration":0.7520998250000019},{"name":"C#4","midi":61,"time":72.60494399999986,"velocity":0.8503937007874016,"duration":1.0042003249999993},{"name":"B1","midi":35,"time":72.60494399999986,"velocity":0.9291338582677166,"duration":0.12184857500000135},{"name":"G3","midi":55,"time":72.60494399999986,"velocity":0.6299212598425197,"duration":0.12184857500000135},{"name":"A#2","midi":46,"time":72.60494399999986,"velocity":0.9291338582677166,"duration":0.1859241187499947},{"name":"A#2","midi":46,"time":72.62385153749986,"velocity":0.7086614173228346,"duration":0.23949547499999824},{"name":"A#1","midi":34,"time":72.85704449999986,"velocity":0.7401574803149606,"duration":0.23004170625000597},{"name":"B4","midi":71,"time":72.85704449999986,"velocity":0.8582677165354331,"duration":0.24789882500000715},{"name":"A#2","midi":46,"time":72.85704449999986,"velocity":0.9291338582677166,"duration":0.18592411875000892},{"name":"B2","midi":47,"time":72.87910329374986,"velocity":0.6535433070866141,"duration":0.21848710000000438},{"name":"A#1","midi":34,"time":73.10914499999987,"velocity":0.7401574803149606,"duration":0.23004170624999176},{"name":"G#5","midi":80,"time":73.10914499999987,"velocity":0.8110236220472441,"duration":1.3823510749999883},{"name":"A#4","midi":70,"time":73.10914499999987,"velocity":0.8582677165354331,"duration":0.7520998249999877},{"name":"B1","midi":35,"time":73.10914499999987,"velocity":0.9291338582677166,"duration":0.12184857500000135},{"name":"D2","midi":38,"time":73.10914499999987,"velocity":0.9291338582677166,"duration":0.12184857500000135},{"name":"D#2","midi":39,"time":73.10914499999987,"velocity":0.9291338582677166,"duration":0.12184857500000135},{"name":"G3","midi":55,"time":73.10914499999987,"velocity":0.6299212598425197,"duration":0.12184857500000135},{"name":"A#2","midi":46,"time":73.10914499999987,"velocity":0.9291338582677166,"duration":0.1859241187499947},{"name":"A#2","midi":46,"time":73.15011133124987,"velocity":0.6771653543307087,"duration":0.2027308187499841},{"name":"A#1","midi":34,"time":73.36124549999987,"velocity":0.7401574803149606,"duration":0.23004170624999176},{"name":"F#4","midi":66,"time":73.36124549999987,"velocity":0.8582677165354331,"duration":0.24789882499999294},{"name":"A#2","midi":46,"time":73.36124549999987,"velocity":0.9291338582677166,"duration":0.1859241187499947},{"name":"F#2","midi":42,"time":73.39485889999986,"velocity":0.8503937007874016,"duration":0.21428542499999992},{"name":"A#1","midi":34,"time":73.61334599999986,"velocity":0.7401574803149606,"duration":0.23004170624999176},{"name":"F#5","midi":78,"time":73.61334599999986,"velocity":0.8110236220472441,"duration":1.0042003249999851},{"name":"A#4","midi":70,"time":73.61334599999986,"velocity":0.8582677165354331,"duration":0.7520998249999877},{"name":"B1","midi":35,"time":73.61334599999986,"velocity":0.9291338582677166,"duration":0.12184857500000135},{"name":"G3","midi":55,"time":73.61334599999986,"velocity":0.6299212598425197,"duration":0.12184857500000135},{"name":"A#2","midi":46,"time":73.61334599999986,"velocity":0.9291338582677166,"duration":0.1859241187499947},{"name":"A#2","midi":46,"time":73.66691735624987,"velocity":0.7559055118110236,"duration":0.21848709999999016},{"name":"A#1","midi":34,"time":73.86544649999986,"velocity":0.7401574803149606,"duration":0.23004170624999176},{"name":"B4","midi":71,"time":73.86544649999986,"velocity":0.8582677165354331,"duration":0.24789882499999294},{"name":"A#2","midi":46,"time":73.86544649999986,"velocity":0.9291338582677166,"duration":0.1859241187499947},{"name":"B2","midi":47,"time":73.91166492499985,"velocity":0.7874015748031497,"duration":0.22163835625001127},{"name":"F#1","midi":30,"time":74.11754699999986,"velocity":0.7401574803149606,"duration":0.23004170624999176},{"name":"C#5","midi":73,"time":74.11754699999986,"velocity":0.8110236220472441,"duration":0.49999932499999034},{"name":"A#4","midi":70,"time":74.11754699999986,"velocity":0.8582677165354331,"duration":0.49999932499999034},{"name":"B1","midi":35,"time":74.11754699999986,"velocity":0.9291338582677166,"duration":0.12184857500000135},{"name":"D2","midi":38,"time":74.11754699999986,"velocity":0.9291338582677166,"duration":0.12184857500000135},{"name":"D#2","midi":39,"time":74.11754699999986,"velocity":0.9291338582677166,"duration":0.12184857500000135},{"name":"G3","midi":55,"time":74.11754699999986,"velocity":0.6299212598425197,"duration":0.12184857500000135},{"name":"F#2","midi":42,"time":74.11754699999986,"velocity":0.9291338582677166,"duration":0.1859241187499947},{"name":"A#2","midi":46,"time":74.16376542499987,"velocity":0.7952755905511811,"duration":0.2205879374999853},{"name":"F#1","midi":30,"time":74.36964749999986,"velocity":0.7401574803149606,"duration":0.23004170624999176},{"name":"F#4","midi":66,"time":74.36964749999986,"velocity":0.8582677165354331,"duration":0.24789882499999294},{"name":"F#2","midi":42,"time":74.36964749999986,"velocity":0.9291338582677166,"duration":0.1859241187499947},{"name":"F#2","midi":42,"time":74.39380713124986,"velocity":0.8503937007874016,"duration":0.16701658124999597},{"name":"G#2","midi":44,"time":74.62174799999985,"velocity":0.7322834645669292,"duration":0.17436951250000732},{"name":"B1","midi":35,"time":74.62174799999985,"velocity":0.9291338582677166,"duration":0.12184857500000135},{"name":"G#2","midi":44,"time":74.62174799999985,"velocity":0.8110236220472441,"duration":0.17436951250000732},{"name":"G#3","midi":56,"time":74.62174799999985,"velocity":0.8110236220472441,"duration":0.17436951250000732},{"name":"G#2","midi":44,"time":74.87384849999987,"velocity":0.7322834645669292,"duration":0.1743695124999931},{"name":"B4","midi":71,"time":74.87384849999987,"velocity":0.968503937007874,"duration":0.08718475624999655},{"name":"G#2","midi":44,"time":74.87384849999987,"velocity":0.8110236220472441,"duration":0.1743695124999931},{"name":"G#3","midi":56,"time":74.87384849999987,"velocity":0.8110236220472441,"duration":0.1743695124999931},{"name":"G#1","midi":32,"time":75.12594899999986,"velocity":0.7322834645669292,"duration":0.17436951250000732},{"name":"B4","midi":71,"time":75.12594899999986,"velocity":0.968503937007874,"duration":0.09978978124999571},{"name":"B1","midi":35,"time":75.12594899999986,"velocity":0.9291338582677166,"duration":0.12184857500000135},{"name":"D2","midi":38,"time":75.12594899999986,"velocity":0.9291338582677166,"duration":0.12184857500000135},{"name":"D#2","midi":39,"time":75.12594899999986,"velocity":0.9291338582677166,"duration":0.12184857500000135},{"name":"G#1","midi":32,"time":75.12594899999986,"velocity":0.8110236220472441,"duration":0.17436951250000732},{"name":"G#2","midi":44,"time":75.12594899999986,"velocity":0.8110236220472441,"duration":0.17436951250000732},{"name":"G#1","midi":32,"time":75.37804949999988,"velocity":0.7322834645669292,"duration":0.17436951250000732},{"name":"B4","midi":71,"time":75.37804949999988,"velocity":0.968503937007874,"duration":0.07773098750000429},{"name":"G#1","midi":32,"time":75.37804949999988,"velocity":0.8110236220472441,"duration":0.17436951250000732},{"name":"G#2","midi":44,"time":75.37804949999988,"velocity":0.8110236220472441,"duration":0.17436951250000732},{"name":"D#2","midi":39,"time":75.63014999999989,"velocity":0.7322834645669292,"duration":0.17436951250000732},{"name":"B4","midi":71,"time":75.63014999999989,"velocity":0.968503937007874,"duration":0.07352931249999983},{"name":"B1","midi":35,"time":75.63014999999989,"velocity":0.9291338582677166,"duration":0.12184857500000135},{"name":"D#2","midi":39,"time":75.63014999999989,"velocity":0.8110236220472441,"duration":0.17436951250000732},{"name":"D#3","midi":51,"time":75.63014999999989,"velocity":0.8110236220472441,"duration":0.17436951250000732},{"name":"D#2","midi":39,"time":75.8822504999999,"velocity":0.7322834645669292,"duration":0.1743695124999931},{"name":"B4","midi":71,"time":75.8822504999999,"velocity":0.968503937007874,"duration":0.06407554374999336},{"name":"D#2","midi":39,"time":75.8822504999999,"velocity":0.8110236220472441,"duration":0.1743695124999931},{"name":"D#3","midi":51,"time":75.8822504999999,"velocity":0.8110236220472441,"duration":0.1743695124999931},{"name":"G#1","midi":32,"time":76.1343509999999,"velocity":0.7322834645669292,"duration":0.17436951250000732},{"name":"B4","midi":71,"time":76.1343509999999,"velocity":0.968503937007874,"duration":0.19117621250001093},{"name":"B1","midi":35,"time":76.1343509999999,"velocity":0.9291338582677166,"duration":0.12184857500000135},{"name":"D2","midi":38,"time":76.1343509999999,"velocity":0.9291338582677166,"duration":0.12184857500000135},{"name":"D#2","midi":39,"time":76.1343509999999,"velocity":0.9291338582677166,"duration":0.12184857500000135},{"name":"G#1","midi":32,"time":76.1343509999999,"velocity":0.8110236220472441,"duration":0.17436951250000732},{"name":"G#2","midi":44,"time":76.1343509999999,"velocity":0.8110236220472441,"duration":0.17436951250000732},{"name":"G#1","midi":32,"time":76.38645149999991,"velocity":0.7322834645669292,"duration":0.1743695124999931},{"name":"B4","midi":71,"time":76.38645149999991,"velocity":0.968503937007874,"duration":0.09978978124999571},{"name":"G#1","midi":32,"time":76.38645149999991,"velocity":0.8110236220472441,"duration":0.1743695124999931},{"name":"G#2","midi":44,"time":76.38645149999991,"velocity":0.8110236220472441,"duration":0.1743695124999931},{"name":"G#2","midi":44,"time":76.6385519999999,"velocity":0.7322834645669292,"duration":0.17436951250000732},{"name":"B4","midi":71,"time":76.6385519999999,"velocity":0.968503937007874,"duration":0.07773098750000429},{"name":"B1","midi":35,"time":76.6385519999999,"velocity":0.9291338582677166,"duration":0.12184857500000135},{"name":"G#2","midi":44,"time":76.6385519999999,"velocity":0.8110236220472441,"duration":0.17436951250000732},{"name":"G#3","midi":56,"time":76.6385519999999,"velocity":0.8110236220472441,"duration":0.17436951250000732},{"name":"G#2","midi":44,"time":76.89065249999992,"velocity":0.7322834645669292,"duration":0.1743695124999931},{"name":"B4","midi":71,"time":76.89065249999992,"velocity":0.968503937007874,"duration":0.07352931249999983},{"name":"G#2","midi":44,"time":76.89065249999992,"velocity":0.8110236220472441,"duration":0.1743695124999931},{"name":"G#3","midi":56,"time":76.89065249999992,"velocity":0.8110236220472441,"duration":0.1743695124999931},{"name":"E2","midi":40,"time":77.14275299999991,"velocity":0.7322834645669292,"duration":0.1712182562499862},{"name":"B4","midi":71,"time":77.14275299999991,"velocity":0.968503937007874,"duration":0.06407554374999336},{"name":"B1","midi":35,"time":77.14275299999991,"velocity":0.9291338582677166,"duration":0.12184857499998714},{"name":"D2","midi":38,"time":77.14275299999991,"velocity":0.9291338582677166,"duration":0.12184857499998714},{"name":"D#2","midi":39,"time":77.14275299999991,"velocity":0.9291338582677166,"duration":0.12184857499998714},{"name":"E2","midi":40,"time":77.14275299999991,"velocity":0.8110236220472441,"duration":0.1712182562499862},{"name":"E3","midi":52,"time":77.14275299999991,"velocity":0.8110236220472441,"duration":0.1712182562499862},{"name":"B1","midi":35,"time":77.3948534999999,"velocity":0.7322834645669292,"duration":0.17121825625000042},{"name":"B4","midi":71,"time":77.3948534999999,"velocity":0.968503937007874,"duration":0.19117621249999672},{"name":"B1","midi":35,"time":77.3948534999999,"velocity":0.8110236220472441,"duration":0.17121825625000042},{"name":"B2","midi":47,"time":77.3948534999999,"velocity":0.8110236220472441,"duration":0.17121825625000042},{"name":"F#2","midi":42,"time":77.6469539999999,"velocity":0.7322834645669292,"duration":0.17436951250000732},{"name":"B1","midi":35,"time":77.6469539999999,"velocity":0.9291338582677166,"duration":0.12184857500000135},{"name":"F#2","midi":42,"time":77.6469539999999,"velocity":0.8110236220472441,"duration":0.17436951250000732},{"name":"F#3","midi":54,"time":77.6469539999999,"velocity":0.8110236220472441,"duration":0.17436951250000732},{"name":"F#2","midi":42,"time":77.8990544999999,"velocity":0.7322834645669292,"duration":0.17436951250000732},{"name":"G#3","midi":56,"time":77.8990544999999,"velocity":0.8582677165354331,"duration":0.12184857500000135},{"name":"F#2","midi":42,"time":77.8990544999999,"velocity":0.8110236220472441,"duration":0.17436951250000732},{"name":"F#3","midi":54,"time":77.8990544999999,"velocity":0.8110236220472441,"duration":0.17436951250000732},{"name":"F#1","midi":30,"time":78.15115499999992,"velocity":0.7322834645669292,"duration":0.17436951250000732},{"name":"G#3","midi":56,"time":78.15115499999992,"velocity":0.8582677165354331,"duration":0.12184857500000135},{"name":"B1","midi":35,"time":78.15115499999992,"velocity":0.9291338582677166,"duration":0.12184857500000135},{"name":"D2","midi":38,"time":78.15115499999992,"velocity":0.9291338582677166,"duration":0.12184857500000135},{"name":"D#2","midi":39,"time":78.15115499999992,"velocity":0.9291338582677166,"duration":0.12184857500000135},{"name":"F#1","midi":30,"time":78.15115499999992,"velocity":0.8110236220472441,"duration":0.17436951250000732},{"name":"F#2","midi":42,"time":78.15115499999992,"velocity":0.8110236220472441,"duration":0.17436951250000732},{"name":"F#1","midi":30,"time":78.40325549999993,"velocity":0.7322834645669292,"duration":0.17436951250000732},{"name":"G#3","midi":56,"time":78.40325549999993,"velocity":0.8582677165354331,"duration":0.12184857500000135},{"name":"F#1","midi":30,"time":78.40325549999993,"velocity":0.8110236220472441,"duration":0.17436951250000732},{"name":"F#2","midi":42,"time":78.40325549999993,"velocity":0.8110236220472441,"duration":0.17436951250000732},{"name":"G#2","midi":44,"time":78.65535599999994,"velocity":0.7322834645669292,"duration":0.17436951250000732},{"name":"G#3","midi":56,"time":78.65535599999994,"velocity":0.8582677165354331,"duration":0.17436951250000732},{"name":"B1","midi":35,"time":78.65535599999994,"velocity":0.9291338582677166,"duration":0.12184857500000135},{"name":"G#2","midi":44,"time":78.65535599999994,"velocity":0.8110236220472441,"duration":0.17436951250000732},{"name":"G#3","midi":56,"time":78.65535599999994,"velocity":0.8110236220472441,"duration":0.37394907500001295},{"name":"G#2","midi":44,"time":78.90745649999995,"velocity":0.7322834645669292,"duration":0.17436951250000732},{"name":"B4","midi":71,"time":78.90745649999995,"velocity":0.968503937007874,"duration":0.08718475624999655},{"name":"G#2","midi":44,"time":78.90745649999995,"velocity":0.8110236220472441,"duration":0.17436951250000732},{"name":"G#3","midi":56,"time":78.90745649999995,"velocity":0.8110236220472441,"duration":0.17436951250000732},{"name":"G#1","midi":32,"time":79.15955699999996,"velocity":0.7322834645669292,"duration":0.17436951250000732},{"name":"B4","midi":71,"time":79.15955699999996,"velocity":0.968503937007874,"duration":0.09978978124999571},{"name":"B1","midi":35,"time":79.15955699999996,"velocity":0.9291338582677166,"duration":0.12184857500000135},{"name":"D2","midi":38,"time":79.15955699999996,"velocity":0.9291338582677166,"duration":0.12184857500000135},{"name":"D#2","midi":39,"time":79.15955699999996,"velocity":0.9291338582677166,"duration":0.12184857500000135},{"name":"G#1","midi":32,"time":79.15955699999996,"velocity":0.8110236220472441,"duration":0.17436951250000732},{"name":"G#2","midi":44,"time":79.15955699999996,"velocity":0.8110236220472441,"duration":0.17436951250000732},{"name":"G#1","midi":32,"time":79.41165749999998,"velocity":0.7322834645669292,"duration":0.17436951250000732},{"name":"B4","midi":71,"time":79.41165749999998,"velocity":0.968503937007874,"duration":0.07773098750000429},{"name":"G#1","midi":32,"time":79.41165749999998,"velocity":0.8110236220472441,"duration":0.17436951250000732},{"name":"G#2","midi":44,"time":79.41165749999998,"velocity":0.8110236220472441,"duration":0.17436951250000732},{"name":"D#2","midi":39,"time":79.66375799999999,"velocity":0.7322834645669292,"duration":0.17436951250000732},{"name":"B4","midi":71,"time":79.66375799999999,"velocity":0.968503937007874,"duration":0.07352931249999983},{"name":"B1","midi":35,"time":79.66375799999999,"velocity":0.9291338582677166,"duration":0.12184857500000135},{"name":"D#2","midi":39,"time":79.66375799999999,"velocity":0.8110236220472441,"duration":0.17436951250000732},{"name":"D#3","midi":51,"time":79.66375799999999,"velocity":0.8110236220472441,"duration":0.17436951250000732},{"name":"D#2","midi":39,"time":79.9158585,"velocity":0.7322834645669292,"duration":0.1743695124999931},{"name":"B4","midi":71,"time":79.9158585,"velocity":0.968503937007874,"duration":0.06407554374999336},{"name":"D#2","midi":39,"time":79.9158585,"velocity":0.8110236220472441,"duration":0.1743695124999931},{"name":"D#3","midi":51,"time":79.9158585,"velocity":0.8110236220472441,"duration":0.1743695124999931},{"name":"G#1","midi":32,"time":80.167959,"velocity":0.7322834645669292,"duration":0.17436951250000732},{"name":"B4","midi":71,"time":80.167959,"velocity":0.968503937007874,"duration":0.19117621250001093},{"name":"B1","midi":35,"time":80.167959,"velocity":0.9291338582677166,"duration":0.12184857500000135},{"name":"D2","midi":38,"time":80.167959,"velocity":0.9291338582677166,"duration":0.12184857500000135},{"name":"D#2","midi":39,"time":80.167959,"velocity":0.9291338582677166,"duration":0.12184857500000135},{"name":"G#1","midi":32,"time":80.167959,"velocity":0.8110236220472441,"duration":0.17436951250000732},{"name":"G#2","midi":44,"time":80.167959,"velocity":0.8110236220472441,"duration":0.17436951250000732},{"name":"G#1","midi":32,"time":80.42005950000001,"velocity":0.7322834645669292,"duration":0.1743695124999931},{"name":"B4","midi":71,"time":80.42005950000001,"velocity":0.968503937007874,"duration":0.09978978124999571},{"name":"G#1","midi":32,"time":80.42005950000001,"velocity":0.8110236220472441,"duration":0.1743695124999931},{"name":"G#2","midi":44,"time":80.42005950000001,"velocity":0.8110236220472441,"duration":0.1743695124999931},{"name":"G#2","midi":44,"time":80.67216,"velocity":0.7322834645669292,"duration":0.17436951250000732},{"name":"B4","midi":71,"time":80.67216,"velocity":0.968503937007874,"duration":0.07773098750000429},{"name":"B1","midi":35,"time":80.67216,"velocity":0.9291338582677166,"duration":0.12184857500000135},{"name":"G#2","midi":44,"time":80.67216,"velocity":0.8110236220472441,"duration":0.17436951250000732},{"name":"G#3","midi":56,"time":80.67216,"velocity":0.8110236220472441,"duration":0.17436951250000732},{"name":"G#2","midi":44,"time":80.92426050000002,"velocity":0.7322834645669292,"duration":0.1743695124999931},{"name":"B4","midi":71,"time":80.92426050000002,"velocity":0.968503937007874,"duration":0.07352931249999983},{"name":"G#2","midi":44,"time":80.92426050000002,"velocity":0.8110236220472441,"duration":0.1743695124999931},{"name":"G#3","midi":56,"time":80.92426050000002,"velocity":0.8110236220472441,"duration":0.1743695124999931},{"name":"E2","midi":40,"time":81.17636100000001,"velocity":0.7322834645669292,"duration":0.1712182562499862},{"name":"B4","midi":71,"time":81.17636100000001,"velocity":0.968503937007874,"duration":0.06407554374999336},{"name":"B1","midi":35,"time":81.17636100000001,"velocity":0.9291338582677166,"duration":0.12184857499998714},{"name":"D2","midi":38,"time":81.17636100000001,"velocity":0.9291338582677166,"duration":0.12184857499998714},{"name":"D#2","midi":39,"time":81.17636100000001,"velocity":0.9291338582677166,"duration":0.12184857499998714},{"name":"E2","midi":40,"time":81.17636100000001,"velocity":0.8110236220472441,"duration":0.1712182562499862},{"name":"E3","midi":52,"time":81.17636100000001,"velocity":0.8110236220472441,"duration":0.1712182562499862},{"name":"B1","midi":35,"time":81.4284615,"velocity":0.7322834645669292,"duration":0.17121825625000042},{"name":"B4","midi":71,"time":81.4284615,"velocity":0.968503937007874,"duration":0.19117621249999672},{"name":"B1","midi":35,"time":81.4284615,"velocity":0.8110236220472441,"duration":0.17121825625000042},{"name":"B2","midi":47,"time":81.4284615,"velocity":0.8110236220472441,"duration":0.17121825625000042},{"name":"F#2","midi":42,"time":81.680562,"velocity":0.7322834645669292,"duration":0.17436951250000732},{"name":"B1","midi":35,"time":81.680562,"velocity":0.9291338582677166,"duration":0.12184857500000135},{"name":"F#2","midi":42,"time":81.680562,"velocity":0.8110236220472441,"duration":0.17436951250000732},{"name":"F#3","midi":54,"time":81.680562,"velocity":0.8110236220472441,"duration":0.17436951250000732},{"name":"F#2","midi":42,"time":81.9326625,"velocity":0.7322834645669292,"duration":0.17436951250000732},{"name":"G#3","midi":56,"time":81.9326625,"velocity":0.8582677165354331,"duration":0.12184857500000135},{"name":"F#2","midi":42,"time":81.9326625,"velocity":0.8110236220472441,"duration":0.17436951250000732},{"name":"F#3","midi":54,"time":81.9326625,"velocity":0.8110236220472441,"duration":0.17436951250000732},{"name":"F#1","midi":30,"time":82.18476300000002,"velocity":0.7322834645669292,"duration":0.17436951250000732},{"name":"G#3","midi":56,"time":82.18476300000002,"velocity":0.8582677165354331,"duration":0.12184857500000135},{"name":"B1","midi":35,"time":82.18476300000002,"velocity":0.9291338582677166,"duration":0.12184857500000135},{"name":"D2","midi":38,"time":82.18476300000002,"velocity":0.9291338582677166,"duration":0.12184857500000135},{"name":"D#2","midi":39,"time":82.18476300000002,"velocity":0.9291338582677166,"duration":0.12184857500000135},{"name":"F#1","midi":30,"time":82.18476300000002,"velocity":0.8110236220472441,"duration":0.17436951250000732},{"name":"F#2","midi":42,"time":82.18476300000002,"velocity":0.8110236220472441,"duration":0.17436951250000732},{"name":"F#1","midi":30,"time":82.43686350000003,"velocity":0.7322834645669292,"duration":0.17436951250000732},{"name":"G#3","midi":56,"time":82.43686350000003,"velocity":0.8582677165354331,"duration":0.12184857500000135},{"name":"F#1","midi":30,"time":82.43686350000003,"velocity":0.8110236220472441,"duration":0.17436951250000732},{"name":"F#2","midi":42,"time":82.43686350000003,"velocity":0.8110236220472441,"duration":0.17436951250000732},{"name":"G#2","midi":44,"time":82.68896400000004,"velocity":0.7322834645669292,"duration":0.17436951250000732},{"name":"G#3","midi":56,"time":82.68896400000004,"velocity":0.8582677165354331,"duration":0.17436951250000732},{"name":"B1","midi":35,"time":82.68896400000004,"velocity":0.9291338582677166,"duration":0.12184857500000135},{"name":"C#3","midi":49,"time":82.68896400000004,"velocity":0.7007874015748031,"duration":0.12184857500000135},{"name":"G#2","midi":44,"time":82.68896400000004,"velocity":0.8110236220472441,"duration":0.17436951250000732},{"name":"G#3","midi":56,"time":82.68896400000004,"velocity":0.8110236220472441,"duration":0.37394907500001295},{"name":"G#4","midi":68,"time":82.68896400000004,"velocity":0.968503937007874,"duration":0.44012545625001565},{"name":"G#2","midi":44,"time":82.94106450000005,"velocity":0.7322834645669292,"duration":0.17436951250000732},{"name":"B4","midi":71,"time":82.94106450000005,"velocity":0.9291338582677166,"duration":0.06617638125000269},{"name":"G#2","midi":44,"time":82.94106450000005,"velocity":0.8110236220472441,"duration":0.17436951250000732},{"name":"G#3","midi":56,"time":82.94106450000005,"velocity":0.8110236220472441,"duration":0.17436951250000732},{"name":"G#1","midi":32,"time":83.19316500000006,"velocity":0.7322834645669292,"duration":0.17436951250000732},{"name":"B4","midi":71,"time":83.19316500000006,"velocity":0.968503937007874,"duration":0.19012579375001337},{"name":"B1","midi":35,"time":83.19316500000006,"velocity":0.9291338582677166,"duration":0.12184857500000135},{"name":"G#1","midi":32,"time":83.19316500000006,"velocity":0.8110236220472441,"duration":0.17436951250000732},{"name":"G#2","midi":44,"time":83.19316500000006,"velocity":0.8110236220472441,"duration":0.17436951250000732},{"name":"G#4","midi":68,"time":83.19316500000006,"velocity":0.968503937007874,"duration":0.4359237812500396},{"name":"G#1","midi":32,"time":83.44526550000008,"velocity":0.7322834645669292,"duration":0.17436951250002153},{"name":"B4","midi":71,"time":83.44526550000008,"velocity":0.889763779527559,"duration":0.09138643125001522},{"name":"G#1","midi":32,"time":83.44526550000008,"velocity":0.8110236220472441,"duration":0.17436951250002153},{"name":"G#2","midi":44,"time":83.44526550000008,"velocity":0.8110236220472441,"duration":0.17436951250002153},{"name":"D#2","midi":39,"time":83.69736600000012,"velocity":0.7322834645669292,"duration":0.1743695124999931},{"name":"B4","midi":71,"time":83.69736600000012,"velocity":0.968503937007874,"duration":0.10189061874999084},{"name":"B1","midi":35,"time":83.69736600000012,"velocity":0.9291338582677166,"duration":0.12184857499998714},{"name":"D#2","midi":39,"time":83.69736600000012,"velocity":0.8110236220472441,"duration":0.1743695124999931},{"name":"D#3","midi":51,"time":83.69736600000012,"velocity":0.8110236220472441,"duration":0.1743695124999931},{"name":"D#2","midi":39,"time":83.94946650000011,"velocity":0.7322834645669292,"duration":0.17436951250000732},{"name":"B4","midi":71,"time":83.94946650000011,"velocity":0.889763779527559,"duration":0.07142847500000471},{"name":"D#2","midi":39,"time":83.94946650000011,"velocity":0.8110236220472441,"duration":0.17436951250000732},{"name":"D#3","midi":51,"time":83.94946650000011,"velocity":0.8110236220472441,"duration":0.17436951250000732},{"name":"G#1","midi":32,"time":84.20156700000013,"velocity":0.7322834645669292,"duration":0.17436951250000732},{"name":"B4","midi":71,"time":84.20156700000013,"velocity":0.968503937007874,"duration":0.18592411875000892},{"name":"B1","midi":35,"time":84.20156700000013,"velocity":0.9291338582677166,"duration":0.12184857500000135},{"name":"G#1","midi":32,"time":84.20156700000013,"velocity":0.8110236220472441,"duration":0.17436951250000732},{"name":"G#2","midi":44,"time":84.20156700000013,"velocity":0.8110236220472441,"duration":0.17436951250000732},{"name":"G#1","midi":32,"time":84.45366750000014,"velocity":0.7322834645669292,"duration":0.1743695124999931},{"name":"B4","midi":71,"time":84.45366750000014,"velocity":0.8503937007874016,"duration":0.0745797312499974},{"name":"G#1","midi":32,"time":84.45366750000014,"velocity":0.8110236220472441,"duration":0.1743695124999931},{"name":"G#2","midi":44,"time":84.45366750000014,"velocity":0.8110236220472441,"duration":0.1743695124999931},{"name":"G#2","midi":44,"time":84.70576800000013,"velocity":0.7322834645669292,"duration":0.17436951250000732},{"name":"B4","midi":71,"time":84.70576800000013,"velocity":0.9291338582677166,"duration":0.2121845875000048},{"name":"B1","midi":35,"time":84.70576800000013,"velocity":0.9291338582677166,"duration":0.12184857500000135},{"name":"G#2","midi":44,"time":84.70576800000013,"velocity":0.8110236220472441,"duration":0.17436951250000732},{"name":"G#3","midi":56,"time":84.70576800000013,"velocity":0.8110236220472441,"duration":0.17436951250000732},{"name":"G#2","midi":44,"time":84.95786850000015,"velocity":0.7322834645669292,"duration":0.1743695124999931},{"name":"B4","midi":71,"time":84.95786850000015,"velocity":0.6299212598425197,"duration":0.07563014999999496},{"name":"G#2","midi":44,"time":84.95786850000015,"velocity":0.8110236220472441,"duration":0.1743695124999931},{"name":"G#3","midi":56,"time":84.95786850000015,"velocity":0.8110236220472441,"duration":0.1743695124999931},{"name":"E2","midi":40,"time":85.20996900000014,"velocity":0.7322834645669292,"duration":0.17121825625000042},{"name":"B4","midi":71,"time":85.20996900000014,"velocity":0.968503937007874,"duration":0.18382328124999958},{"name":"B1","midi":35,"time":85.20996900000014,"velocity":0.9291338582677166,"duration":0.12184857500000135},{"name":"E2","midi":40,"time":85.20996900000014,"velocity":0.8110236220472441,"duration":0.17121825625000042},{"name":"E3","midi":52,"time":85.20996900000014,"velocity":0.8110236220472441,"duration":0.17121825625000042},{"name":"B1","midi":35,"time":85.46206950000014,"velocity":0.7322834645669292,"duration":0.17121825625000042},{"name":"B4","midi":71,"time":85.46206950000014,"velocity":0.968503937007874,"duration":0.07247889375000227},{"name":"B1","midi":35,"time":85.46206950000014,"velocity":0.8110236220472441,"duration":0.17121825625000042},{"name":"B2","midi":47,"time":85.46206950000014,"velocity":0.8110236220472441,"duration":0.17121825625000042},{"name":"F#2","midi":42,"time":85.71417000000014,"velocity":0.7322834645669292,"duration":0.17436951250000732},{"name":"B4","midi":71,"time":85.71417000000014,"velocity":0.968503937007874,"duration":0.33718441875001304},{"name":"B1","midi":35,"time":85.71417000000014,"velocity":0.9291338582677166,"duration":0.12184857500000135},{"name":"F#2","midi":42,"time":85.71417000000014,"velocity":0.8110236220472441,"duration":0.17436951250000732},{"name":"F#3","midi":54,"time":85.71417000000014,"velocity":0.8110236220472441,"duration":0.17436951250000732},{"name":"F#2","midi":42,"time":85.96627050000015,"velocity":0.7322834645669292,"duration":0.17436951250000732},{"name":"F#2","midi":42,"time":85.96627050000015,"velocity":0.8110236220472441,"duration":0.17436951250000732},{"name":"F#3","midi":54,"time":85.96627050000015,"velocity":0.8110236220472441,"duration":0.17436951250000732},{"name":"F#1","midi":30,"time":86.21837100000016,"velocity":0.7322834645669292,"duration":0.17436951250000732},{"name":"B1","midi":35,"time":86.21837100000016,"velocity":0.9291338582677166,"duration":0.12184857500000135},{"name":"F#5","midi":78,"time":86.21837100000016,"velocity":0.9291338582677166,"duration":0.12184857500000135},{"name":"F#1","midi":30,"time":86.21837100000016,"velocity":0.8110236220472441,"duration":0.17436951250000732},{"name":"F#2","midi":42,"time":86.21837100000016,"velocity":0.8110236220472441,"duration":0.17436951250000732},{"name":"F#1","midi":30,"time":86.47047150000017,"velocity":0.7322834645669292,"duration":0.1743695124999931},{"name":"F#1","midi":30,"time":86.47047150000017,"velocity":0.8110236220472441,"duration":0.1743695124999931},{"name":"F#2","midi":42,"time":86.47047150000017,"velocity":0.8110236220472441,"duration":0.1743695124999931},{"name":"G#2","midi":44,"time":86.72257200000017,"velocity":0.7322834645669292,"duration":0.17436951250000732},{"name":"B1","midi":35,"time":86.72257200000017,"velocity":0.9291338582677166,"duration":0.12184857500000135},{"name":"G#2","midi":44,"time":86.72257200000017,"velocity":0.8110236220472441,"duration":0.17436951250000732},{"name":"G#3","midi":56,"time":86.72257200000017,"velocity":0.8110236220472441,"duration":0.17436951250000732},{"name":"G#2","midi":44,"time":86.97467250000018,"velocity":0.7322834645669292,"duration":0.1743695124999931},{"name":"B4","midi":71,"time":86.97467250000018,"velocity":0.9291338582677166,"duration":0.08823517499999411},{"name":"G#2","midi":44,"time":86.97467250000018,"velocity":0.8110236220472441,"duration":0.1743695124999931},{"name":"G#3","midi":56,"time":86.97467250000018,"velocity":0.8110236220472441,"duration":0.1743695124999931},{"name":"G#1","midi":32,"time":87.22677300000018,"velocity":0.7322834645669292,"duration":0.17436951250000732},{"name":"B4","midi":71,"time":87.22677300000018,"velocity":0.968503937007874,"duration":0.22794086875001085},{"name":"B1","midi":35,"time":87.22677300000018,"velocity":0.9291338582677166,"duration":0.12184857500000135},{"name":"G#1","midi":32,"time":87.22677300000018,"velocity":0.8110236220472441,"duration":0.17436951250000732},{"name":"G#2","midi":44,"time":87.22677300000018,"velocity":0.8110236220472441,"duration":0.17436951250000732},{"name":"G#1","midi":32,"time":87.47887350000019,"velocity":0.7322834645669292,"duration":0.1743695124999931},{"name":"B4","midi":71,"time":87.47887350000019,"velocity":0.9291338582677166,"duration":0.08823517499999411},{"name":"G#1","midi":32,"time":87.47887350000019,"velocity":0.8110236220472441,"duration":0.1743695124999931},{"name":"G#2","midi":44,"time":87.47887350000019,"velocity":0.8110236220472441,"duration":0.1743695124999931},{"name":"D#2","midi":39,"time":87.73097400000019,"velocity":0.7322834645669292,"duration":0.17436951250000732},{"name":"B4","midi":71,"time":87.73097400000019,"velocity":0.9291338582677166,"duration":0.20798291250000034},{"name":"B1","midi":35,"time":87.73097400000019,"velocity":0.9291338582677166,"duration":0.12184857500000135},{"name":"D#2","midi":39,"time":87.73097400000019,"velocity":0.8110236220472441,"duration":0.17436951250000732},{"name":"D#3","midi":51,"time":87.73097400000019,"velocity":0.8110236220472441,"duration":0.17436951250000732},{"name":"D#2","midi":39,"time":87.98307450000019,"velocity":0.7322834645669292,"duration":0.1743695124999931},{"name":"B4","midi":71,"time":87.98307450000019,"velocity":0.968503937007874,"duration":0.09873936249999815},{"name":"D#2","midi":39,"time":87.98307450000019,"velocity":0.8110236220472441,"duration":0.1743695124999931},{"name":"D#3","midi":51,"time":87.98307450000019,"velocity":0.8110236220472441,"duration":0.1743695124999931},{"name":"G#1","midi":32,"time":88.23517500000018,"velocity":0.7322834645669292,"duration":0.1743695124999931},{"name":"B4","midi":71,"time":88.23517500000018,"velocity":0.968503937007874,"duration":0.1544115562499968},{"name":"B1","midi":35,"time":88.23517500000018,"velocity":0.9291338582677166,"duration":0.12184857500000135},{"name":"G#1","midi":32,"time":88.23517500000018,"velocity":0.8110236220472441,"duration":0.1743695124999931},{"name":"G#2","midi":44,"time":88.23517500000018,"velocity":0.8110236220472441,"duration":0.1743695124999931},{"name":"G#1","midi":32,"time":88.48727550000018,"velocity":0.7322834645669292,"duration":0.1743695124999931},{"name":"B4","midi":71,"time":88.48727550000018,"velocity":0.9291338582677166,"duration":0.07563014999999496},{"name":"G#1","midi":32,"time":88.48727550000018,"velocity":0.8110236220472441,"duration":0.1743695124999931},{"name":"G#2","midi":44,"time":88.48727550000018,"velocity":0.8110236220472441,"duration":0.1743695124999931},{"name":"G#2","midi":44,"time":88.73937600000018,"velocity":0.7322834645669292,"duration":0.17436951250000732},{"name":"B4","midi":71,"time":88.73937600000018,"velocity":0.968503937007874,"duration":0.1691174187500053},{"name":"B1","midi":35,"time":88.73937600000018,"velocity":0.9291338582677166,"duration":0.12184857500000135},{"name":"G#2","midi":44,"time":88.73937600000018,"velocity":0.8110236220472441,"duration":0.17436951250000732},{"name":"G#3","midi":56,"time":88.73937600000018,"velocity":0.8110236220472441,"duration":0.17436951250000732},{"name":"G#2","midi":44,"time":88.99147650000019,"velocity":0.7322834645669292,"duration":0.1743695124999931},{"name":"B4","midi":71,"time":88.99147650000019,"velocity":0.9291338582677166,"duration":0.061974706249998235},{"name":"G#2","midi":44,"time":88.99147650000019,"velocity":0.8110236220472441,"duration":0.1743695124999931},{"name":"G#3","midi":56,"time":88.99147650000019,"velocity":0.8110236220472441,"duration":0.1743695124999931},{"name":"E2","midi":40,"time":89.24357700000019,"velocity":0.7322834645669292,"duration":0.17121825625000042},{"name":"B4","midi":71,"time":89.24357700000019,"velocity":0.968503937007874,"duration":0.17541993125000488},{"name":"B1","midi":35,"time":89.24357700000019,"velocity":0.9291338582677166,"duration":0.12184857500000135},{"name":"E2","midi":40,"time":89.24357700000019,"velocity":0.8110236220472441,"duration":0.17121825625000042},{"name":"E3","midi":52,"time":89.24357700000019,"velocity":0.8110236220472441,"duration":0.17121825625000042},{"name":"B1","midi":35,"time":89.4956775000002,"velocity":0.7322834645669292,"duration":0.17121825625000042},{"name":"B4","midi":71,"time":89.4956775000002,"velocity":0.9291338582677166,"duration":0.061974706249998235},{"name":"B1","midi":35,"time":89.4956775000002,"velocity":0.8110236220472441,"duration":0.17121825625000042},{"name":"B2","midi":47,"time":89.4956775000002,"velocity":0.8110236220472441,"duration":0.17121825625000042},{"name":"F#2","midi":42,"time":89.7477780000002,"velocity":0.7322834645669292,"duration":0.17436951250000732},{"name":"B4","midi":71,"time":89.7477780000002,"velocity":0.9291338582677166,"duration":0.2321425437500011},{"name":"B1","midi":35,"time":89.7477780000002,"velocity":0.9291338582677166,"duration":0.12184857500000135},{"name":"F#2","midi":42,"time":89.7477780000002,"velocity":0.8110236220472441,"duration":0.17436951250000732},{"name":"F#3","midi":54,"time":89.7477780000002,"velocity":0.8110236220472441,"duration":0.17436951250000732},{"name":"F#2","midi":42,"time":89.9998785000002,"velocity":0.7322834645669292,"duration":0.1743695124999931},{"name":"F#4","midi":66,"time":89.9998785000002,"velocity":0.9291338582677166,"duration":0.10609229374999529},{"name":"F#2","midi":42,"time":89.9998785000002,"velocity":0.8110236220472441,"duration":0.1743695124999931},{"name":"F#3","midi":54,"time":89.9998785000002,"velocity":0.8110236220472441,"duration":0.1743695124999931},{"name":"F#1","midi":30,"time":90.25197900000019,"velocity":0.7322834645669292,"duration":0.17436951250000732},{"name":"F#4","midi":66,"time":90.25197900000019,"velocity":0.9291338582677166,"duration":0.10609229374999529},{"name":"B1","midi":35,"time":90.25197900000019,"velocity":0.9291338582677166,"duration":0.12184857500000135},{"name":"F#1","midi":30,"time":90.25197900000019,"velocity":0.8110236220472441,"duration":0.17436951250000732},{"name":"F#2","midi":42,"time":90.25197900000019,"velocity":0.8110236220472441,"duration":0.17436951250000732},{"name":"F#1","midi":30,"time":90.5040795000002,"velocity":0.7322834645669292,"duration":0.1743695124999931},{"name":"G#4","midi":68,"time":90.5040795000002,"velocity":0.9291338582677166,"duration":0.10609229374999529},{"name":"F#1","midi":30,"time":90.5040795000002,"velocity":0.8110236220472441,"duration":0.1743695124999931},{"name":"F#2","midi":42,"time":90.5040795000002,"velocity":0.8110236220472441,"duration":0.1743695124999931},{"name":"G#2","midi":44,"time":90.7561800000002,"velocity":0.7322834645669292,"duration":0.17436951250000732},{"name":"B1","midi":35,"time":90.7561800000002,"velocity":0.9291338582677166,"duration":0.12184857500000135},{"name":"B3","midi":59,"time":90.7561800000002,"velocity":0.937007874015748,"duration":0.17436951250000732},{"name":"G#2","midi":44,"time":90.7561800000002,"velocity":0.8110236220472441,"duration":0.17436951250000732},{"name":"G#3","midi":56,"time":90.7561800000002,"velocity":0.8110236220472441,"duration":0.17436951250000732},{"name":"G#2","midi":44,"time":91.00828050000021,"velocity":0.7322834645669292,"duration":0.17436951250000732},{"name":"G#5","midi":80,"time":91.00828050000021,"velocity":0.8188976377952756,"duration":0.13970569375000252},{"name":"B3","midi":59,"time":91.00828050000021,"velocity":0.937007874015748,"duration":0.17436951250000732},{"name":"G#2","midi":44,"time":91.00828050000021,"velocity":0.8110236220472441,"duration":0.17436951250000732},{"name":"G#3","midi":56,"time":91.00828050000021,"velocity":0.8110236220472441,"duration":0.17436951250000732},{"name":"G#1","midi":32,"time":91.26038100000022,"velocity":0.7322834645669292,"duration":0.17436951250000732},{"name":"D5","midi":74,"time":91.26038100000022,"velocity":0.8110236220472441,"duration":0.22163835625001127},{"name":"B1","midi":35,"time":91.26038100000022,"velocity":0.9291338582677166,"duration":0.12184857500000135},{"name":"D2","midi":38,"time":91.26038100000022,"velocity":0.9291338582677166,"duration":0.12184857500000135},{"name":"D#2","midi":39,"time":91.26038100000022,"velocity":0.9291338582677166,"duration":0.12184857500000135},{"name":"B3","midi":59,"time":91.26038100000022,"velocity":0.937007874015748,"duration":0.17436951250000732},{"name":"G#1","midi":32,"time":91.26038100000022,"velocity":0.8110236220472441,"duration":0.17436951250000732},{"name":"G#2","midi":44,"time":91.26038100000022,"velocity":0.8110236220472441,"duration":0.17436951250000732},{"name":"G#1","midi":32,"time":91.51248150000023,"velocity":0.7322834645669292,"duration":0.17436951250000732},{"name":"D#5","midi":75,"time":91.51248150000023,"velocity":0.8188976377952756,"duration":0.14390736875000698},{"name":"B3","midi":59,"time":91.51248150000023,"velocity":0.937007874015748,"duration":0.17436951250000732},{"name":"G#1","midi":32,"time":91.51248150000023,"velocity":0.8110236220472441,"duration":0.17436951250000732},{"name":"G#2","midi":44,"time":91.51248150000023,"velocity":0.8110236220472441,"duration":0.17436951250000732},{"name":"D#2","midi":39,"time":91.76458200000025,"velocity":0.7322834645669292,"duration":0.17436951250000732},{"name":"E5","midi":76,"time":91.76458200000025,"velocity":0.889763779527559,"duration":0.17016783750000286},{"name":"B1","midi":35,"time":91.76458200000025,"velocity":0.9291338582677166,"duration":0.12184857500000135},{"name":"B3","midi":59,"time":91.76458200000025,"velocity":0.937007874015748,"duration":0.17436951250000732},{"name":"D#2","midi":39,"time":91.76458200000025,"velocity":0.8110236220472441,"duration":0.17436951250000732},{"name":"D#3","midi":51,"time":91.76458200000025,"velocity":0.8110236220472441,"duration":0.17436951250000732},{"name":"D#2","midi":39,"time":92.01668250000026,"velocity":0.7322834645669292,"duration":0.17436951250000732},{"name":"D#5","midi":75,"time":92.01668250000026,"velocity":0.8031496062992126,"duration":0.17121825625000042},{"name":"B3","midi":59,"time":92.01668250000026,"velocity":0.937007874015748,"duration":0.17436951250000732},{"name":"D#2","midi":39,"time":92.01668250000026,"velocity":0.8110236220472441,"duration":0.17436951250000732},{"name":"D#3","midi":51,"time":92.01668250000026,"velocity":0.8110236220472441,"duration":0.17436951250000732},{"name":"G#1","midi":32,"time":92.26878300000027,"velocity":0.7322834645669292,"duration":0.17436951250000732},{"name":"D5","midi":74,"time":92.26878300000027,"velocity":0.8818897637795275,"duration":0.20693249375000278},{"name":"B1","midi":35,"time":92.26878300000027,"velocity":0.9291338582677166,"duration":0.12184857500000135},{"name":"D2","midi":38,"time":92.26878300000027,"velocity":0.9291338582677166,"duration":0.12184857500000135},{"name":"D#2","midi":39,"time":92.26878300000027,"velocity":0.9291338582677166,"duration":0.12184857500000135},{"name":"B3","midi":59,"time":92.26878300000027,"velocity":0.937007874015748,"duration":0.17436951250000732},{"name":"G#1","midi":32,"time":92.26878300000027,"velocity":0.8110236220472441,"duration":0.17436951250000732},{"name":"G#2","midi":44,"time":92.26878300000027,"velocity":0.8110236220472441,"duration":0.17436951250000732},{"name":"G#1","midi":32,"time":92.52088350000027,"velocity":0.7322834645669292,"duration":0.1743695124999931},{"name":"D#5","midi":75,"time":92.52088350000027,"velocity":0.7716535433070866,"duration":0.17962160624999512},{"name":"B3","midi":59,"time":92.52088350000027,"velocity":0.937007874015748,"duration":0.1743695124999931},{"name":"G#1","midi":32,"time":92.52088350000027,"velocity":0.8110236220472441,"duration":0.1743695124999931},{"name":"G#2","midi":44,"time":92.52088350000027,"velocity":0.8110236220472441,"duration":0.1743695124999931},{"name":"G#2","midi":44,"time":92.77298400000026,"velocity":0.7322834645669292,"duration":0.1743695124999931},{"name":"E5","midi":76,"time":92.77298400000026,"velocity":0.889763779527559,"duration":0.15966364999999882},{"name":"B1","midi":35,"time":92.77298400000026,"velocity":0.9291338582677166,"duration":0.12184857500000135},{"name":"B3","midi":59,"time":92.77298400000026,"velocity":0.937007874015748,"duration":0.1743695124999931},{"name":"G#2","midi":44,"time":92.77298400000026,"velocity":0.8110236220472441,"duration":0.1743695124999931},{"name":"G#3","midi":56,"time":92.77298400000026,"velocity":0.8110236220472441,"duration":0.1743695124999931},{"name":"G#2","midi":44,"time":93.02508450000026,"velocity":0.7322834645669292,"duration":0.1743695124999931},{"name":"D#5","midi":75,"time":93.02508450000026,"velocity":0.7716535433070866,"duration":0.17541993124999067},{"name":"B3","midi":59,"time":93.02508450000026,"velocity":0.937007874015748,"duration":0.1743695124999931},{"name":"G#2","midi":44,"time":93.02508450000026,"velocity":0.8110236220472441,"duration":0.1743695124999931},{"name":"G#3","midi":56,"time":93.02508450000026,"velocity":0.8110236220472441,"duration":0.1743695124999931},{"name":"E2","midi":40,"time":93.27718500000026,"velocity":0.7322834645669292,"duration":0.17121825625000042},{"name":"C#5","midi":73,"time":93.27718500000026,"velocity":0.8110236220472441,"duration":0.1659661624999984},{"name":"B1","midi":35,"time":93.27718500000026,"velocity":0.9291338582677166,"duration":0.12184857500000135},{"name":"D2","midi":38,"time":93.27718500000026,"velocity":0.9291338582677166,"duration":0.12184857500000135},{"name":"D#2","midi":39,"time":93.27718500000026,"velocity":0.9291338582677166,"duration":0.12184857500000135},{"name":"B3","midi":59,"time":93.27718500000026,"velocity":0.937007874015748,"duration":0.17436951250000732},{"name":"E2","midi":40,"time":93.27718500000026,"velocity":0.8110236220472441,"duration":0.17121825625000042},{"name":"E3","midi":52,"time":93.27718500000026,"velocity":0.8110236220472441,"duration":0.17121825625000042},{"name":"B1","midi":35,"time":93.52928550000027,"velocity":0.7322834645669292,"duration":0.17121825625000042},{"name":"B4","midi":71,"time":93.52928550000027,"velocity":0.9291338582677166,"duration":0.16386532500000328},{"name":"B3","midi":59,"time":93.52928550000027,"velocity":0.937007874015748,"duration":0.17436951250000732},{"name":"B1","midi":35,"time":93.52928550000027,"velocity":0.8110236220472441,"duration":0.17121825625000042},{"name":"B2","midi":47,"time":93.52928550000027,"velocity":0.8110236220472441,"duration":0.17121825625000042},{"name":"F#2","midi":42,"time":93.78138600000028,"velocity":0.7322834645669292,"duration":0.17436951250000732},{"name":"A#4","midi":70,"time":93.78138600000028,"velocity":0.8582677165354331,"duration":0.37920116875001497},{"name":"B1","midi":35,"time":93.78138600000028,"velocity":0.9291338582677166,"duration":0.12184857500000135},{"name":"C#4","midi":61,"time":93.78138600000028,"velocity":0.937007874015748,"duration":0.24789882500000715},{"name":"F#2","midi":42,"time":93.78138600000028,"velocity":0.8110236220472441,"duration":0.17436951250000732},{"name":"F#3","midi":54,"time":93.78138600000028,"velocity":0.8110236220472441,"duration":0.17436951250000732},{"name":"F#2","midi":42,"time":94.0334865000003,"velocity":0.7322834645669292,"duration":0.17436951250000732},{"name":"B3","midi":59,"time":94.0334865000003,"velocity":0.937007874015748,"duration":0.17436951250000732},{"name":"F#2","midi":42,"time":94.0334865000003,"velocity":0.8110236220472441,"duration":0.17436951250000732},{"name":"F#3","midi":54,"time":94.0334865000003,"velocity":0.8110236220472441,"duration":0.17436951250000732},{"name":"F#1","midi":30,"time":94.2855870000003,"velocity":0.7322834645669292,"duration":0.17436951250000732},{"name":"B1","midi":35,"time":94.2855870000003,"velocity":0.9291338582677166,"duration":0.12184857500000135},{"name":"D2","midi":38,"time":94.2855870000003,"velocity":0.9291338582677166,"duration":0.12184857500000135},{"name":"D#2","midi":39,"time":94.2855870000003,"velocity":0.9291338582677166,"duration":0.12184857500000135},{"name":"F#5","midi":78,"time":94.2855870000003,"velocity":0.9291338582677166,"duration":0.12184857500000135},{"name":"C#4","midi":61,"time":94.2855870000003,"velocity":0.937007874015748,"duration":0.24789882500000715},{"name":"F#1","midi":30,"time":94.2855870000003,"velocity":0.8110236220472441,"duration":0.17436951250000732},{"name":"F#2","midi":42,"time":94.2855870000003,"velocity":0.8110236220472441,"duration":0.17436951250000732},{"name":"F#1","midi":30,"time":94.53768750000032,"velocity":0.7322834645669292,"duration":0.17436951250000732},{"name":"B4","midi":71,"time":94.53768750000032,"velocity":0.8818897637795275,"duration":0.05882345000000555},{"name":"B3","midi":59,"time":94.53768750000032,"velocity":0.937007874015748,"duration":0.17436951250000732},{"name":"F#1","midi":30,"time":94.53768750000032,"velocity":0.8110236220472441,"duration":0.17436951250000732},{"name":"F#2","midi":42,"time":94.53768750000032,"velocity":0.8110236220472441,"duration":0.17436951250000732},{"name":"G#2","midi":44,"time":94.78978800000033,"velocity":0.7322834645669292,"duration":0.17436951250000732},{"name":"B4","midi":71,"time":94.78978800000033,"velocity":0.984251968503937,"duration":0.11554606250000177},{"name":"B1","midi":35,"time":94.78978800000033,"velocity":0.9291338582677166,"duration":0.12184857500000135},{"name":"D#4","midi":63,"time":94.78978800000033,"velocity":0.937007874015748,"duration":0.17436951250000732},{"name":"G#2","midi":44,"time":94.78978800000033,"velocity":0.8110236220472441,"duration":0.17436951250000732},{"name":"G#3","midi":56,"time":94.78978800000033,"velocity":0.8110236220472441,"duration":0.17436951250000732},{"name":"G#2","midi":44,"time":95.04188850000034,"velocity":0.7322834645669292,"duration":0.17436951250000732},{"name":"B4","midi":71,"time":95.04188850000034,"velocity":0.9212598425196851,"duration":0.14495778750000454},{"name":"D#4","midi":63,"time":95.04188850000034,"velocity":0.937007874015748,"duration":0.17436951250000732},{"name":"G#2","midi":44,"time":95.04188850000034,"velocity":0.8110236220472441,"duration":0.17436951250000732},{"name":"G#3","midi":56,"time":95.04188850000034,"velocity":0.8110236220472441,"duration":0.17436951250000732},{"name":"G#1","midi":32,"time":95.29398900000035,"velocity":0.7322834645669292,"duration":0.17436951250000732},{"name":"B4","midi":71,"time":95.29398900000035,"velocity":0.8818897637795275,"duration":0.05987386875000311},{"name":"B1","midi":35,"time":95.29398900000035,"velocity":0.9291338582677166,"duration":0.12184857500000135},{"name":"D2","midi":38,"time":95.29398900000035,"velocity":0.9291338582677166,"duration":0.12184857500000135},{"name":"D#2","midi":39,"time":95.29398900000035,"velocity":0.9291338582677166,"duration":0.12184857500000135},{"name":"D#4","midi":63,"time":95.29398900000035,"velocity":0.937007874015748,"duration":0.17436951250000732},{"name":"G#1","midi":32,"time":95.29398900000035,"velocity":0.8110236220472441,"duration":0.17436951250000732},{"name":"G#2","midi":44,"time":95.29398900000035,"velocity":0.8110236220472441,"duration":0.17436951250000732},{"name":"G#1","midi":32,"time":95.54608950000036,"velocity":0.7322834645669292,"duration":0.17436951250000732},{"name":"B4","midi":71,"time":95.54608950000036,"velocity":0.984251968503937,"duration":0.08298308125000631},{"name":"D#4","midi":63,"time":95.54608950000036,"velocity":0.937007874015748,"duration":0.17436951250000732},{"name":"G#1","midi":32,"time":95.54608950000036,"velocity":0.8110236220472441,"duration":0.17436951250000732},{"name":"G#2","midi":44,"time":95.54608950000036,"velocity":0.8110236220472441,"duration":0.17436951250000732},{"name":"D#2","midi":39,"time":95.79819000000037,"velocity":0.7322834645669292,"duration":0.17436951250000732},{"name":"B4","midi":71,"time":95.79819000000037,"velocity":0.984251968503937,"duration":0.19537788750000118},{"name":"B1","midi":35,"time":95.79819000000037,"velocity":0.9291338582677166,"duration":0.12184857500000135},{"name":"D#4","midi":63,"time":95.79819000000037,"velocity":0.937007874015748,"duration":0.17436951250000732},{"name":"D#2","midi":39,"time":95.79819000000037,"velocity":0.8110236220472441,"duration":0.17436951250000732},{"name":"D#3","midi":51,"time":95.79819000000037,"velocity":0.8110236220472441,"duration":0.17436951250000732},{"name":"D#2","midi":39,"time":96.05029050000037,"velocity":0.7322834645669292,"duration":0.1743695124999931},{"name":"B4","midi":71,"time":96.05029050000037,"velocity":0.8818897637795275,"duration":0.10504187499999773},{"name":"D#4","midi":63,"time":96.05029050000037,"velocity":0.937007874015748,"duration":0.1743695124999931},{"name":"D#2","midi":39,"time":96.05029050000037,"velocity":0.8110236220472441,"duration":0.1743695124999931},{"name":"D#3","midi":51,"time":96.05029050000037,"velocity":0.8110236220472441,"duration":0.1743695124999931},{"name":"G#1","midi":32,"time":96.30239100000037,"velocity":0.7322834645669292,"duration":0.17436951250000732},{"name":"B4","midi":71,"time":96.30239100000037,"velocity":1,"duration":0.17541993125000488},{"name":"B1","midi":35,"time":96.30239100000037,"velocity":0.9291338582677166,"duration":0.12184857500000135},{"name":"D2","midi":38,"time":96.30239100000037,"velocity":0.9291338582677166,"duration":0.12184857500000135},{"name":"D#2","midi":39,"time":96.30239100000037,"velocity":0.9291338582677166,"duration":0.12184857500000135},{"name":"D#4","midi":63,"time":96.30239100000037,"velocity":0.937007874015748,"duration":0.17436951250000732},{"name":"G#1","midi":32,"time":96.30239100000037,"velocity":0.8110236220472441,"duration":0.17436951250000732},{"name":"G#2","midi":44,"time":96.30239100000037,"velocity":0.8110236220472441,"duration":0.17436951250000732},{"name":"G#1","midi":32,"time":96.55449150000038,"velocity":0.7322834645669292,"duration":0.1743695124999931},{"name":"B4","midi":71,"time":96.55449150000038,"velocity":0.8818897637795275,"duration":0.10399145625000017},{"name":"D#4","midi":63,"time":96.55449150000038,"velocity":0.937007874015748,"duration":0.1743695124999931},{"name":"G#1","midi":32,"time":96.55449150000038,"velocity":0.8110236220472441,"duration":0.1743695124999931},{"name":"G#2","midi":44,"time":96.55449150000038,"velocity":0.8110236220472441,"duration":0.1743695124999931},{"name":"G#2","midi":44,"time":96.80659200000038,"velocity":0.7322834645669292,"duration":0.17436951250000732},{"name":"B4","midi":71,"time":96.80659200000038,"velocity":1,"duration":0.18277286250000202},{"name":"B1","midi":35,"time":96.80659200000038,"velocity":0.9291338582677166,"duration":0.12184857500000135},{"name":"D#4","midi":63,"time":96.80659200000038,"velocity":0.937007874015748,"duration":0.17436951250000732},{"name":"G#2","midi":44,"time":96.80659200000038,"velocity":0.8110236220472441,"duration":0.17436951250000732},{"name":"G#3","midi":56,"time":96.80659200000038,"velocity":0.8110236220472441,"duration":0.17436951250000732},{"name":"G#2","midi":44,"time":97.05869250000038,"velocity":0.7322834645669292,"duration":0.17436951250000732},{"name":"B4","midi":71,"time":97.05869250000038,"velocity":0.84251968503937,"duration":0.10189061875000505},{"name":"D#4","midi":63,"time":97.05869250000038,"velocity":0.937007874015748,"duration":0.17436951250000732},{"name":"G#2","midi":44,"time":97.05869250000038,"velocity":0.8110236220472441,"duration":0.17436951250000732},{"name":"G#3","midi":56,"time":97.05869250000038,"velocity":0.8110236220472441,"duration":0.17436951250000732},{"name":"E2","midi":40,"time":97.31079300000039,"velocity":0.7322834645669292,"duration":0.17121825625000042},{"name":"B4","midi":71,"time":97.31079300000039,"velocity":0.984251968503937,"duration":0.11029396874999975},{"name":"B1","midi":35,"time":97.31079300000039,"velocity":0.9291338582677166,"duration":0.12184857500000135},{"name":"D2","midi":38,"time":97.31079300000039,"velocity":0.9291338582677166,"duration":0.12184857500000135},{"name":"D#2","midi":39,"time":97.31079300000039,"velocity":0.9291338582677166,"duration":0.12184857500000135},{"name":"D#4","midi":63,"time":97.31079300000039,"velocity":0.937007874015748,"duration":0.17436951250000732},{"name":"E2","midi":40,"time":97.31079300000039,"velocity":0.8110236220472441,"duration":0.17121825625000042},{"name":"E3","midi":52,"time":97.31079300000039,"velocity":0.8110236220472441,"duration":0.17121825625000042},{"name":"B1","midi":35,"time":97.5628935000004,"velocity":0.7322834645669292,"duration":0.17121825625000042},{"name":"B4","midi":71,"time":97.5628935000004,"velocity":0.984251968503937,"duration":0.09558810625000547},{"name":"D#4","midi":63,"time":97.5628935000004,"velocity":0.937007874015748,"duration":0.17436951250000732},{"name":"B1","midi":35,"time":97.5628935000004,"velocity":0.8110236220472441,"duration":0.17121825625000042},{"name":"B2","midi":47,"time":97.5628935000004,"velocity":0.8110236220472441,"duration":0.17121825625000042},{"name":"F#2","midi":42,"time":97.81499400000041,"velocity":0.7322834645669292,"duration":0.17436951250000732},{"name":"B4","midi":71,"time":97.81499400000041,"velocity":1,"duration":0.32878106875001833},{"name":"B1","midi":35,"time":97.81499400000041,"velocity":0.9291338582677166,"duration":0.12184857500000135},{"name":"E4","midi":64,"time":97.81499400000041,"velocity":0.937007874015748,"duration":0.24789882500000715},{"name":"F#2","midi":42,"time":97.81499400000041,"velocity":0.8110236220472441,"duration":0.17436951250000732},{"name":"F#3","midi":54,"time":97.81499400000041,"velocity":0.8110236220472441,"duration":0.17436951250000732},{"name":"F#2","midi":42,"time":98.06709450000042,"velocity":0.7322834645669292,"duration":0.17436951250000732},{"name":"D#4","midi":63,"time":98.06709450000042,"velocity":0.937007874015748,"duration":0.17436951250000732},{"name":"F#2","midi":42,"time":98.06709450000042,"velocity":0.8110236220472441,"duration":0.17436951250000732},{"name":"F#3","midi":54,"time":98.06709450000042,"velocity":0.8110236220472441,"duration":0.17436951250000732},{"name":"F#1","midi":30,"time":98.31919500000043,"velocity":0.7322834645669292,"duration":0.17436951250000732},{"name":"B1","midi":35,"time":98.31919500000043,"velocity":0.9291338582677166,"duration":0.12184857500000135},{"name":"D2","midi":38,"time":98.31919500000043,"velocity":0.9291338582677166,"duration":0.12184857500000135},{"name":"D#2","midi":39,"time":98.31919500000043,"velocity":0.9291338582677166,"duration":0.12184857500000135},{"name":"E4","midi":64,"time":98.31919500000043,"velocity":0.937007874015748,"duration":0.24789882500000715},{"name":"F#1","midi":30,"time":98.31919500000043,"velocity":0.8110236220472441,"duration":0.17436951250000732},{"name":"F#2","midi":42,"time":98.31919500000043,"velocity":0.8110236220472441,"duration":0.17436951250000732},{"name":"F#1","midi":30,"time":98.57129550000045,"velocity":0.7322834645669292,"duration":0.1743695124999931},{"name":"D#4","midi":63,"time":98.57129550000045,"velocity":0.937007874015748,"duration":0.1743695124999931},{"name":"F#1","midi":30,"time":98.57129550000045,"velocity":0.8110236220472441,"duration":0.1743695124999931},{"name":"F#2","midi":42,"time":98.57129550000045,"velocity":0.8110236220472441,"duration":0.1743695124999931},{"name":"G#2","midi":44,"time":98.82339600000044,"velocity":0.7322834645669292,"duration":0.17436951250000732},{"name":"G#4","midi":68,"time":98.82339600000044,"velocity":0.968503937007874,"duration":0.44012545625000143},{"name":"G#3","midi":56,"time":98.82339600000044,"velocity":0.968503937007874,"duration":0.17436951250000732},{"name":"B1","midi":35,"time":98.82339600000044,"velocity":0.9291338582677166,"duration":0.12184857500000135},{"name":"A3","midi":57,"time":98.82339600000044,"velocity":0.7007874015748031,"duration":0.12184857500000135},{"name":"B3","midi":59,"time":98.82339600000044,"velocity":0.937007874015748,"duration":0.17436951250000732},{"name":"G#2","midi":44,"time":98.82339600000044,"velocity":0.8110236220472441,"duration":0.17436951250000732},{"name":"G#3","midi":56,"time":98.82339600000044,"velocity":0.8110236220472441,"duration":0.4264700125000047},{"name":"G#4","midi":68,"time":98.82339600000044,"velocity":0.968503937007874,"duration":0.5010497437500021},{"name":"G#2","midi":44,"time":99.07549650000045,"velocity":0.7322834645669292,"duration":0.1743695124999931},{"name":"B3","midi":59,"time":99.07549650000045,"velocity":0.937007874015748,"duration":0.1743695124999931},{"name":"G#2","midi":44,"time":99.07549650000045,"velocity":0.8110236220472441,"duration":0.1743695124999931},{"name":"G#3","midi":56,"time":99.07549650000045,"velocity":0.8110236220472441,"duration":0.2489492437499905},{"name":"G#1","midi":32,"time":99.32759700000045,"velocity":0.7322834645669292,"duration":0.17436951250000732},{"name":"B1","midi":35,"time":99.32759700000045,"velocity":0.9291338582677166,"duration":0.12184857500000135},{"name":"D2","midi":38,"time":99.32759700000045,"velocity":0.9291338582677166,"duration":0.12184857500000135},{"name":"D#2","midi":39,"time":99.32759700000045,"velocity":0.9291338582677166,"duration":0.12184857500000135},{"name":"B3","midi":59,"time":99.32759700000045,"velocity":0.937007874015748,"duration":0.17436951250000732},{"name":"G#1","midi":32,"time":99.32759700000045,"velocity":0.8110236220472441,"duration":0.17436951250000732},{"name":"G#2","midi":44,"time":99.32759700000045,"velocity":0.8110236220472441,"duration":0.17436951250000732},{"name":"G#4","midi":68,"time":99.32759700000045,"velocity":0.968503937007874,"duration":0.4359237812500254},{"name":"G#1","midi":32,"time":99.57969750000046,"velocity":0.7322834645669292,"duration":0.17436951250000732},{"name":"D#5","midi":75,"time":99.57969750000046,"velocity":0.9133858267716536,"duration":0.26785678125001766},{"name":"D#4","midi":63,"time":99.57969750000046,"velocity":0.9133858267716536,"duration":0.26785678125001766},{"name":"B3","midi":59,"time":99.57969750000046,"velocity":0.937007874015748,"duration":0.17436951250000732},{"name":"G#1","midi":32,"time":99.57969750000046,"velocity":0.8110236220472441,"duration":0.17436951250000732},{"name":"G#2","midi":44,"time":99.57969750000046,"velocity":0.8110236220472441,"duration":0.17436951250000732},{"name":"D#2","midi":39,"time":99.83179800000049,"velocity":0.7322834645669292,"duration":0.1743695124999931},{"name":"D5","midi":74,"time":99.83179800000049,"velocity":0.7716535433070866,"duration":0.3844532625000028},{"name":"D4","midi":62,"time":99.83179800000049,"velocity":0.7716535433070866,"duration":0.3844532625000028},{"name":"B1","midi":35,"time":99.83179800000049,"velocity":0.9291338582677166,"duration":0.12184857499998714},{"name":"B3","midi":59,"time":99.83179800000049,"velocity":0.937007874015748,"duration":0.1743695124999931},{"name":"D#2","midi":39,"time":99.83179800000049,"velocity":0.8110236220472441,"duration":0.1743695124999931},{"name":"D#3","midi":51,"time":99.83179800000049,"velocity":0.8110236220472441,"duration":0.1743695124999931},{"name":"D#2","midi":39,"time":100.08389850000049,"velocity":0.7322834645669292,"duration":0.17436951250000732},{"name":"B3","midi":59,"time":100.08389850000049,"velocity":0.937007874015748,"duration":0.17436951250000732},{"name":"D#2","midi":39,"time":100.08389850000049,"velocity":0.8110236220472441,"duration":0.17436951250000732},{"name":"D#3","midi":51,"time":100.08389850000049,"velocity":0.8110236220472441,"duration":0.17436951250000732},{"name":"G#1","midi":32,"time":100.3359990000005,"velocity":0.7322834645669292,"duration":0.17436951250000732},{"name":"B4","midi":71,"time":100.3359990000005,"velocity":0.8503937007874016,"duration":0.298318925000018},{"name":"B3","midi":59,"time":100.3359990000005,"velocity":0.8503937007874016,"duration":0.17436951250000732},{"name":"B1","midi":35,"time":100.3359990000005,"velocity":0.9291338582677166,"duration":0.12184857500000135},{"name":"D2","midi":38,"time":100.3359990000005,"velocity":0.9291338582677166,"duration":0.12184857500000135},{"name":"D#2","midi":39,"time":100.3359990000005,"velocity":0.9291338582677166,"duration":0.12184857500000135},{"name":"B3","midi":59,"time":100.3359990000005,"velocity":0.937007874015748,"duration":0.298318925000018},{"name":"G#1","midi":32,"time":100.3359990000005,"velocity":0.8110236220472441,"duration":0.17436951250000732},{"name":"G#2","midi":44,"time":100.3359990000005,"velocity":0.8110236220472441,"duration":0.17436951250000732},{"name":"G#1","midi":32,"time":100.58809950000051,"velocity":0.7322834645669292,"duration":0.17436951250000732},{"name":"B3","midi":59,"time":100.58809950000051,"velocity":0.937007874015748,"duration":0.17436951250000732},{"name":"G#1","midi":32,"time":100.58809950000051,"velocity":0.8110236220472441,"duration":0.17436951250000732},{"name":"G#2","midi":44,"time":100.58809950000051,"velocity":0.8110236220472441,"duration":0.17436951250000732},{"name":"G#2","midi":44,"time":100.84020000000052,"velocity":0.7322834645669292,"duration":0.17436951250000732},{"name":"G#4","midi":68,"time":100.84020000000052,"velocity":0.968503937007874,"duration":0.49369681250000497},{"name":"G#3","midi":56,"time":100.84020000000052,"velocity":0.968503937007874,"duration":0.17436951250000732},{"name":"B1","midi":35,"time":100.84020000000052,"velocity":0.9291338582677166,"duration":0.12184857500000135},{"name":"B3","midi":59,"time":100.84020000000052,"velocity":0.937007874015748,"duration":0.17436951250000732},{"name":"G#2","midi":44,"time":100.84020000000052,"velocity":0.8110236220472441,"duration":0.17436951250000732},{"name":"G#3","midi":56,"time":100.84020000000052,"velocity":0.8110236220472441,"duration":0.4264700125000047},{"name":"G#2","midi":44,"time":101.09230050000053,"velocity":0.7322834645669292,"duration":0.1743695124999931},{"name":"B3","midi":59,"time":101.09230050000053,"velocity":0.937007874015748,"duration":0.1743695124999931},{"name":"G#2","midi":44,"time":101.09230050000053,"velocity":0.8110236220472441,"duration":0.1743695124999931},{"name":"G#3","midi":56,"time":101.09230050000053,"velocity":0.8110236220472441,"duration":0.24159631249999336},{"name":"E2","midi":40,"time":101.34440100000053,"velocity":0.7322834645669292,"duration":0.17121825625000042},{"name":"B1","midi":35,"time":101.34440100000053,"velocity":0.9291338582677166,"duration":0.12184857500000135},{"name":"D2","midi":38,"time":101.34440100000053,"velocity":0.9291338582677166,"duration":0.12184857500000135},{"name":"D#2","midi":39,"time":101.34440100000053,"velocity":0.9291338582677166,"duration":0.12184857500000135},{"name":"B3","midi":59,"time":101.34440100000053,"velocity":0.937007874015748,"duration":0.17436951250000732},{"name":"E2","midi":40,"time":101.34440100000053,"velocity":0.8110236220472441,"duration":0.17121825625000042},{"name":"E3","midi":52,"time":101.34440100000053,"velocity":0.8110236220472441,"duration":0.17121825625000042},{"name":"B1","midi":35,"time":101.59650150000054,"velocity":0.7322834645669292,"duration":0.17121825625000042},{"name":"D#5","midi":75,"time":101.59650150000054,"velocity":0.9133858267716536,"duration":0.2689072000000152},{"name":"D#4","midi":63,"time":101.59650150000054,"velocity":0.9133858267716536,"duration":0.2689072000000152},{"name":"B3","midi":59,"time":101.59650150000054,"velocity":0.937007874015748,"duration":0.17436951250000732},{"name":"B1","midi":35,"time":101.59650150000054,"velocity":0.8110236220472441,"duration":0.17121825625000042},{"name":"B2","midi":47,"time":101.59650150000054,"velocity":0.8110236220472441,"duration":0.17121825625000042},{"name":"F#2","midi":42,"time":101.84860200000055,"velocity":0.7322834645669292,"duration":0.17436951250000732},{"name":"D5","midi":74,"time":101.84860200000055,"velocity":0.7401574803149606,"duration":0.2289912875000084},{"name":"D4","midi":62,"time":101.84860200000055,"velocity":0.7401574803149606,"duration":0.2289912875000084},{"name":"B1","midi":35,"time":101.84860200000055,"velocity":0.9291338582677166,"duration":0.12184857500000135},{"name":"C#4","midi":61,"time":101.84860200000055,"velocity":0.937007874015748,"duration":0.24789882500000715},{"name":"F#2","midi":42,"time":101.84860200000055,"velocity":0.8110236220472441,"duration":0.17436951250000732},{"name":"F#3","midi":54,"time":101.84860200000055,"velocity":0.8110236220472441,"duration":0.17436951250000732},{"name":"F#2","midi":42,"time":102.10070250000057,"velocity":0.7322834645669292,"duration":0.1743695124999931},{"name":"D#5","midi":75,"time":102.10070250000057,"velocity":0.9133858267716536,"duration":0.24789882499999294},{"name":"D#4","midi":63,"time":102.10070250000057,"velocity":0.9133858267716536,"duration":0.24789882499999294},{"name":"B3","midi":59,"time":102.10070250000057,"velocity":0.937007874015748,"duration":0.1743695124999931},{"name":"F#2","midi":42,"time":102.10070250000057,"velocity":0.8110236220472441,"duration":0.1743695124999931},{"name":"F#3","midi":54,"time":102.10070250000057,"velocity":0.8110236220472441,"duration":0.1743695124999931},{"name":"F#1","midi":30,"time":102.35280300000056,"velocity":0.7322834645669292,"duration":0.17436951250000732},{"name":"C#5","midi":73,"time":102.35280300000056,"velocity":0.9133858267716536,"duration":0.2521005000000116},{"name":"C#4","midi":61,"time":102.35280300000056,"velocity":0.9133858267716536,"duration":0.24789882500000715},{"name":"B1","midi":35,"time":102.35280300000056,"velocity":0.9291338582677166,"duration":0.12184857500000135},{"name":"D2","midi":38,"time":102.35280300000056,"velocity":0.9291338582677166,"duration":0.12184857500000135},{"name":"D#2","midi":39,"time":102.35280300000056,"velocity":0.9291338582677166,"duration":0.12184857500000135},{"name":"C#4","midi":61,"time":102.35280300000056,"velocity":0.937007874015748,"duration":0.2521005000000116},{"name":"F#1","midi":30,"time":102.35280300000056,"velocity":0.8110236220472441,"duration":0.17436951250000732},{"name":"F#2","midi":42,"time":102.35280300000056,"velocity":0.8110236220472441,"duration":0.17436951250000732},{"name":"F#1","midi":30,"time":102.60490350000057,"velocity":0.7322834645669292,"duration":0.1743695124999931},{"name":"F#4","midi":66,"time":102.60490350000057,"velocity":0.968503937007874,"duration":0.2405458937499958},{"name":"F#3","midi":54,"time":102.60490350000057,"velocity":0.968503937007874,"duration":0.2405458937499958},{"name":"B3","midi":59,"time":102.60490350000057,"velocity":0.937007874015748,"duration":0.1743695124999931},{"name":"F#1","midi":30,"time":102.60490350000057,"velocity":0.8110236220472441,"duration":0.1743695124999931},{"name":"F#2","midi":42,"time":102.60490350000057,"velocity":0.8110236220472441,"duration":0.1743695124999931},{"name":"G#2","midi":44,"time":102.85700400000057,"velocity":0.7322834645669292,"duration":0.17436951250000732},{"name":"G#4","midi":68,"time":102.85700400000057,"velocity":0.9133858267716536,"duration":0.24789882500000715},{"name":"G#3","midi":56,"time":102.85700400000057,"velocity":0.9133858267716536,"duration":0.17436951250000732},{"name":"B1","midi":35,"time":102.85700400000057,"velocity":0.9291338582677166,"duration":0.12184857500000135},{"name":"D#4","midi":63,"time":102.85700400000057,"velocity":0.937007874015748,"duration":0.17436951250000732},{"name":"G#2","midi":44,"time":102.85700400000057,"velocity":0.8110236220472441,"duration":0.17436951250000732},{"name":"G#3","midi":56,"time":102.85700400000057,"velocity":0.8110236220472441,"duration":0.4264700125000189},{"name":"G#2","midi":44,"time":103.10910450000058,"velocity":0.7322834645669292,"duration":0.17436951250000732},{"name":"B4","midi":71,"time":103.10910450000058,"velocity":0.889763779527559,"duration":0.06617638125000269},{"name":"D#4","midi":63,"time":103.10910450000058,"velocity":0.937007874015748,"duration":0.17436951250000732},{"name":"G#2","midi":44,"time":103.10910450000058,"velocity":0.8110236220472441,"duration":0.17436951250000732},{"name":"G#3","midi":56,"time":103.10910450000058,"velocity":0.8110236220472441,"duration":0.2573525937500136},{"name":"G#1","midi":32,"time":103.3612050000006,"velocity":0.7322834645669292,"duration":0.17436951250000732},{"name":"B4","midi":71,"time":103.3612050000006,"velocity":0.9291338582677166,"duration":0.17541993125000488},{"name":"B1","midi":35,"time":103.3612050000006,"velocity":0.9291338582677166,"duration":0.12184857500000135},{"name":"D2","midi":38,"time":103.3612050000006,"velocity":0.9291338582677166,"duration":0.12184857500000135},{"name":"D#2","midi":39,"time":103.3612050000006,"velocity":0.9291338582677166,"duration":0.12184857500000135},{"name":"D#4","midi":63,"time":103.3612050000006,"velocity":0.937007874015748,"duration":0.17436951250000732},{"name":"G#1","midi":32,"time":103.3612050000006,"velocity":0.8110236220472441,"duration":0.17436951250000732},{"name":"G#2","midi":44,"time":103.3612050000006,"velocity":0.8110236220472441,"duration":0.17436951250000732},{"name":"G#1","midi":32,"time":103.6133055000006,"velocity":0.7322834645669292,"duration":0.1743695124999931},{"name":"B4","midi":71,"time":103.6133055000006,"velocity":0.889763779527559,"duration":0.09348726874999613},{"name":"D#4","midi":63,"time":103.6133055000006,"velocity":0.937007874015748,"duration":0.1743695124999931},{"name":"G#1","midi":32,"time":103.6133055000006,"velocity":0.8110236220472441,"duration":0.1743695124999931},{"name":"G#2","midi":44,"time":103.6133055000006,"velocity":0.8110236220472441,"duration":0.1743695124999931},{"name":"D#2","midi":39,"time":103.8654060000006,"velocity":0.7322834645669292,"duration":0.17436951250000732},{"name":"B4","midi":71,"time":103.8654060000006,"velocity":0.9291338582677166,"duration":0.48529346250001026},{"name":"B1","midi":35,"time":103.8654060000006,"velocity":0.9291338582677166,"duration":0.12184857500000135},{"name":"D#4","midi":63,"time":103.8654060000006,"velocity":0.937007874015748,"duration":0.17436951250000732},{"name":"D#2","midi":39,"time":103.8654060000006,"velocity":0.8110236220472441,"duration":0.17436951250000732},{"name":"D#3","midi":51,"time":103.8654060000006,"velocity":0.8110236220472441,"duration":0.17436951250000732},{"name":"D#2","midi":39,"time":104.11750650000062,"velocity":0.7322834645669292,"duration":0.1743695124999931},{"name":"D#4","midi":63,"time":104.11750650000062,"velocity":0.937007874015748,"duration":0.1743695124999931},{"name":"D#2","midi":39,"time":104.11750650000062,"velocity":0.8110236220472441,"duration":0.1743695124999931},{"name":"D#3","midi":51,"time":104.11750650000062,"velocity":0.8110236220472441,"duration":0.1743695124999931},{"name":"G#1","midi":32,"time":104.36960700000061,"velocity":0.7322834645669292,"duration":0.17436951250000732},{"name":"B1","midi":35,"time":104.36960700000061,"velocity":0.9291338582677166,"duration":0.12184857500000135},{"name":"D2","midi":38,"time":104.36960700000061,"velocity":0.9291338582677166,"duration":0.12184857500000135},{"name":"D#2","midi":39,"time":104.36960700000061,"velocity":0.9291338582677166,"duration":0.12184857500000135},{"name":"D#4","midi":63,"time":104.36960700000061,"velocity":0.937007874015748,"duration":0.17436951250000732},{"name":"G#1","midi":32,"time":104.36960700000061,"velocity":0.8110236220472441,"duration":0.17436951250000732},{"name":"G#2","midi":44,"time":104.36960700000061,"velocity":0.8110236220472441,"duration":0.17436951250000732},{"name":"G#1","midi":32,"time":104.62170750000062,"velocity":0.7322834645669292,"duration":0.17436951250000732},{"name":"B4","midi":71,"time":104.62170750000062,"velocity":0.8503937007874016,"duration":0.04096633125000437},{"name":"D#4","midi":63,"time":104.62170750000062,"velocity":0.937007874015748,"duration":0.17436951250000732},{"name":"G#1","midi":32,"time":104.62170750000062,"velocity":0.8110236220472441,"duration":0.17436951250000732},{"name":"G#2","midi":44,"time":104.62170750000062,"velocity":0.8110236220472441,"duration":0.17436951250000732},{"name":"G#2","midi":44,"time":104.87380800000064,"velocity":0.7322834645669292,"duration":0.1743695124999931},{"name":"B4","midi":71,"time":104.87380800000064,"velocity":0.9291338582677166,"duration":0.13550401874999807},{"name":"B1","midi":35,"time":104.87380800000064,"velocity":0.9291338582677166,"duration":0.12184857500000135},{"name":"D#4","midi":63,"time":104.87380800000064,"velocity":0.937007874015748,"duration":0.1743695124999931},{"name":"G#2","midi":44,"time":104.87380800000064,"velocity":0.8110236220472441,"duration":0.1743695124999931},{"name":"G#3","midi":56,"time":104.87380800000064,"velocity":0.8110236220472441,"duration":0.1743695124999931},{"name":"G#2","midi":44,"time":105.12590850000063,"velocity":0.7322834645669292,"duration":0.17436951250000732},{"name":"B4","midi":71,"time":105.12590850000063,"velocity":0.9291338582677166,"duration":0.06512596250000513},{"name":"D#4","midi":63,"time":105.12590850000063,"velocity":0.937007874015748,"duration":0.17436951250000732},{"name":"G#2","midi":44,"time":105.12590850000063,"velocity":0.8110236220472441,"duration":0.17436951250000732},{"name":"G#3","midi":56,"time":105.12590850000063,"velocity":0.8110236220472441,"duration":0.17436951250000732},{"name":"E2","midi":40,"time":105.37800900000065,"velocity":0.7322834645669292,"duration":0.17121825625000042},{"name":"B4","midi":71,"time":105.37800900000065,"velocity":0.9291338582677166,"duration":0.14495778750000454},{"name":"B1","midi":35,"time":105.37800900000065,"velocity":0.9291338582677166,"duration":0.12184857500000135},{"name":"D2","midi":38,"time":105.37800900000065,"velocity":0.9291338582677166,"duration":0.12184857500000135},{"name":"D#2","midi":39,"time":105.37800900000065,"velocity":0.9291338582677166,"duration":0.12184857500000135},{"name":"D#4","midi":63,"time":105.37800900000065,"velocity":0.937007874015748,"duration":0.17436951250000732},{"name":"E2","midi":40,"time":105.37800900000065,"velocity":0.8110236220472441,"duration":0.17121825625000042},{"name":"E3","midi":52,"time":105.37800900000065,"velocity":0.8110236220472441,"duration":0.17121825625000042},{"name":"B1","midi":35,"time":105.63010950000066,"velocity":0.7322834645669292,"duration":0.17121825625000042},{"name":"B4","midi":71,"time":105.63010950000066,"velocity":0.9291338582677166,"duration":0.6081924562500234},{"name":"D#4","midi":63,"time":105.63010950000066,"velocity":0.937007874015748,"duration":0.17436951250000732},{"name":"B1","midi":35,"time":105.63010950000066,"velocity":0.8110236220472441,"duration":0.17121825625000042},{"name":"B2","midi":47,"time":105.63010950000066,"velocity":0.8110236220472441,"duration":0.17121825625000042},{"name":"F#2","midi":42,"time":105.88221000000067,"velocity":0.7322834645669292,"duration":0.17436951250000732},{"name":"B1","midi":35,"time":105.88221000000067,"velocity":0.9291338582677166,"duration":0.12184857500000135},{"name":"E4","midi":64,"time":105.88221000000067,"velocity":0.937007874015748,"duration":0.24789882500000715},{"name":"F#2","midi":42,"time":105.88221000000067,"velocity":0.8110236220472441,"duration":0.17436951250000732},{"name":"F#3","midi":54,"time":105.88221000000067,"velocity":0.8110236220472441,"duration":0.17436951250000732},{"name":"F#2","midi":42,"time":106.13431050000068,"velocity":0.7322834645669292,"duration":0.1743695124999931},{"name":"D#4","midi":63,"time":106.13431050000068,"velocity":0.937007874015748,"duration":0.1743695124999931},{"name":"F#2","midi":42,"time":106.13431050000068,"velocity":0.8110236220472441,"duration":0.1743695124999931},{"name":"F#3","midi":54,"time":106.13431050000068,"velocity":0.8110236220472441,"duration":0.1743695124999931},{"name":"F#1","midi":30,"time":106.38641100000068,"velocity":0.7322834645669292,"duration":0.17436951250000732},{"name":"B1","midi":35,"time":106.38641100000068,"velocity":0.9291338582677166,"duration":0.12184857500000135},{"name":"D2","midi":38,"time":106.38641100000068,"velocity":0.9291338582677166,"duration":0.12184857500000135},{"name":"D#2","midi":39,"time":106.38641100000068,"velocity":0.9291338582677166,"duration":0.12184857500000135},{"name":"E4","midi":64,"time":106.38641100000068,"velocity":0.937007874015748,"duration":0.24789882500000715},{"name":"F#1","midi":30,"time":106.38641100000068,"velocity":0.8110236220472441,"duration":0.17436951250000732},{"name":"F#2","midi":42,"time":106.38641100000068,"velocity":0.8110236220472441,"duration":0.17436951250000732},{"name":"F#1","midi":30,"time":106.63851150000069,"velocity":0.7322834645669292,"duration":0.1743695124999931},{"name":"D#4","midi":63,"time":106.63851150000069,"velocity":0.937007874015748,"duration":0.1743695124999931},{"name":"F#1","midi":30,"time":106.63851150000069,"velocity":0.8110236220472441,"duration":0.1743695124999931},{"name":"F#2","midi":42,"time":106.63851150000069,"velocity":0.8110236220472441,"duration":0.1743695124999931},{"name":"G#2","midi":44,"time":106.89061200000069,"velocity":0.7322834645669292,"duration":0.17436951250000732},{"name":"G#4","midi":68,"time":106.89061200000069,"velocity":0.968503937007874,"duration":0.5010497437499879},{"name":"G#3","midi":56,"time":106.89061200000069,"velocity":0.968503937007874,"duration":0.17436951250000732},{"name":"B1","midi":35,"time":106.89061200000069,"velocity":0.9291338582677166,"duration":0.12184857500000135},{"name":"B3","midi":59,"time":106.89061200000069,"velocity":0.937007874015748,"duration":0.17436951250000732},{"name":"G#3","midi":56,"time":106.89061200000069,"velocity":0.7244094488188977,"duration":0.24474756875000026},{"name":"G#2","midi":44,"time":106.89061200000069,"velocity":0.8110236220472441,"duration":0.17436951250000732},{"name":"G#3","midi":56,"time":106.89061200000069,"velocity":0.8110236220472441,"duration":0.4264700124999905},{"name":"G#2","midi":44,"time":107.14271250000068,"velocity":0.7322834645669292,"duration":0.1743695124999931},{"name":"B3","midi":59,"time":107.14271250000068,"velocity":0.937007874015748,"duration":0.1743695124999931},{"name":"G#3","midi":56,"time":107.14271250000068,"velocity":0.7244094488188977,"duration":0.24474756874998604},{"name":"G#2","midi":44,"time":107.14271250000068,"velocity":0.8110236220472441,"duration":0.1743695124999931},{"name":"G#3","midi":56,"time":107.14271250000068,"velocity":0.8110236220472441,"duration":0.2489492437499905},{"name":"G#1","midi":32,"time":107.39481300000068,"velocity":0.7322834645669292,"duration":0.17436951250000732},{"name":"B1","midi":35,"time":107.39481300000068,"velocity":0.9291338582677166,"duration":0.12184857500000135},{"name":"D2","midi":38,"time":107.39481300000068,"velocity":0.9291338582677166,"duration":0.12184857500000135},{"name":"D#2","midi":39,"time":107.39481300000068,"velocity":0.9291338582677166,"duration":0.12184857500000135},{"name":"B3","midi":59,"time":107.39481300000068,"velocity":0.937007874015748,"duration":0.17436951250000732},{"name":"G#2","midi":44,"time":107.39481300000068,"velocity":0.7244094488188977,"duration":0.17436951250000732},{"name":"G#1","midi":32,"time":107.39481300000068,"velocity":0.8110236220472441,"duration":0.17436951250000732},{"name":"G#2","midi":44,"time":107.39481300000068,"velocity":0.8110236220472441,"duration":0.24474756875000026},{"name":"G#1","midi":32,"time":107.64691350000068,"velocity":0.7322834645669292,"duration":0.1743695124999931},{"name":"D#5","midi":75,"time":107.64691350000068,"velocity":0.9133858267716536,"duration":0.26785678124998924},{"name":"D#4","midi":63,"time":107.64691350000068,"velocity":0.9133858267716536,"duration":0.26785678124998924},{"name":"B3","midi":59,"time":107.64691350000068,"velocity":0.937007874015748,"duration":0.1743695124999931},{"name":"G#2","midi":44,"time":107.64691350000068,"velocity":0.7244094488188977,"duration":0.1743695124999931},{"name":"G#1","midi":32,"time":107.64691350000068,"velocity":0.8110236220472441,"duration":0.1743695124999931},{"name":"G#2","midi":44,"time":107.64691350000068,"velocity":0.8110236220472441,"duration":0.24474756874998604},{"name":"D#2","midi":39,"time":107.89901400000066,"velocity":0.7322834645669292,"duration":0.17436951250000732},{"name":"D5","midi":74,"time":107.89901400000066,"velocity":0.7716535433070866,"duration":0.3844532625000028},{"name":"D4","midi":62,"time":107.89901400000066,"velocity":0.7716535433070866,"duration":0.3844532625000028},{"name":"B1","midi":35,"time":107.89901400000066,"velocity":0.9291338582677166,"duration":0.12184857500000135},{"name":"B3","midi":59,"time":107.89901400000066,"velocity":0.937007874015748,"duration":0.17436951250000732},{"name":"D#3","midi":51,"time":107.89901400000066,"velocity":0.7244094488188977,"duration":0.17436951250000732},{"name":"D#2","midi":39,"time":107.89901400000066,"velocity":0.8110236220472441,"duration":0.17436951250000732},{"name":"D#3","midi":51,"time":107.89901400000066,"velocity":0.8110236220472441,"duration":0.24474756875000026},{"name":"D#2","midi":39,"time":108.15111450000066,"velocity":0.7322834645669292,"duration":0.17436951250000732},{"name":"B3","midi":59,"time":108.15111450000066,"velocity":0.937007874015748,"duration":0.17436951250000732},{"name":"D#3","midi":51,"time":108.15111450000066,"velocity":0.7244094488188977,"duration":0.17436951250000732},{"name":"D#2","midi":39,"time":108.15111450000066,"velocity":0.8110236220472441,"duration":0.17436951250000732},{"name":"D#3","midi":51,"time":108.15111450000066,"velocity":0.8110236220472441,"duration":0.24474756875000026},{"name":"G#1","midi":32,"time":108.40321500000066,"velocity":0.7322834645669292,"duration":0.17436951250000732},{"name":"B4","midi":71,"time":108.40321500000066,"velocity":0.8503937007874016,"duration":0.2983189250000038},{"name":"B3","midi":59,"time":108.40321500000066,"velocity":0.8503937007874016,"duration":0.17436951250000732},{"name":"B1","midi":35,"time":108.40321500000066,"velocity":0.9291338582677166,"duration":0.12184857500000135},{"name":"D2","midi":38,"time":108.40321500000066,"velocity":0.9291338582677166,"duration":0.12184857500000135},{"name":"D#2","midi":39,"time":108.40321500000066,"velocity":0.9291338582677166,"duration":0.12184857500000135},{"name":"B3","midi":59,"time":108.40321500000066,"velocity":0.937007874015748,"duration":0.2983189250000038},{"name":"G#2","midi":44,"time":108.40321500000066,"velocity":0.7244094488188977,"duration":0.17436951250000732},{"name":"G#1","midi":32,"time":108.40321500000066,"velocity":0.8110236220472441,"duration":0.17436951250000732},{"name":"G#2","midi":44,"time":108.40321500000066,"velocity":0.8110236220472441,"duration":0.24474756875000026},{"name":"G#1","midi":32,"time":108.65531550000065,"velocity":0.7322834645669292,"duration":0.17436951250000732},{"name":"B3","midi":59,"time":108.65531550000065,"velocity":0.937007874015748,"duration":0.17436951250000732},{"name":"G#2","midi":44,"time":108.65531550000065,"velocity":0.7244094488188977,"duration":0.17436951250000732},{"name":"G#1","midi":32,"time":108.65531550000065,"velocity":0.8110236220472441,"duration":0.17436951250000732},{"name":"G#2","midi":44,"time":108.65531550000065,"velocity":0.8110236220472441,"duration":0.24474756875000026},{"name":"G#2","midi":44,"time":108.90741600000065,"velocity":0.7322834645669292,"duration":0.17436951250000732},{"name":"G#4","midi":68,"time":108.90741600000065,"velocity":0.968503937007874,"duration":0.49369681249999076},{"name":"G#3","midi":56,"time":108.90741600000065,"velocity":0.968503937007874,"duration":0.17436951250000732},{"name":"B1","midi":35,"time":108.90741600000065,"velocity":0.9291338582677166,"duration":0.12184857500000135},{"name":"B3","midi":59,"time":108.90741600000065,"velocity":0.937007874015748,"duration":0.17436951250000732},{"name":"G#3","midi":56,"time":108.90741600000065,"velocity":0.7244094488188977,"duration":0.24474756875000026},{"name":"G#2","midi":44,"time":108.90741600000065,"velocity":0.8110236220472441,"duration":0.17436951250000732},{"name":"G#3","midi":56,"time":108.90741600000065,"velocity":0.8110236220472441,"duration":0.4264700124999905},{"name":"G#2","midi":44,"time":109.15951650000065,"velocity":0.7322834645669292,"duration":0.1743695124999931},{"name":"B3","midi":59,"time":109.15951650000065,"velocity":0.937007874015748,"duration":0.1743695124999931},{"name":"G#3","midi":56,"time":109.15951650000065,"velocity":0.7244094488188977,"duration":0.24159631249999336},{"name":"G#2","midi":44,"time":109.15951650000065,"velocity":0.8110236220472441,"duration":0.1743695124999931},{"name":"G#3","midi":56,"time":109.15951650000065,"velocity":0.8110236220472441,"duration":0.24474756875000026},{"name":"E2","midi":40,"time":109.41161700000065,"velocity":0.7322834645669292,"duration":0.17121825625000042},{"name":"B1","midi":35,"time":109.41161700000065,"velocity":0.9291338582677166,"duration":0.12184857500000135},{"name":"D2","midi":38,"time":109.41161700000065,"velocity":0.9291338582677166,"duration":0.12184857500000135},{"name":"D#2","midi":39,"time":109.41161700000065,"velocity":0.9291338582677166,"duration":0.12184857500000135},{"name":"B3","midi":59,"time":109.41161700000065,"velocity":0.937007874015748,"duration":0.17436951250000732},{"name":"E3","midi":52,"time":109.41161700000065,"velocity":0.7244094488188977,"duration":0.17121825625000042},{"name":"E2","midi":40,"time":109.41161700000065,"velocity":0.8110236220472441,"duration":0.17121825625000042},{"name":"E3","midi":52,"time":109.41161700000065,"velocity":0.8110236220472441,"duration":0.24474756875000026},{"name":"B1","midi":35,"time":109.66371750000064,"velocity":0.7322834645669292,"duration":0.17121825625000042},{"name":"D#5","midi":75,"time":109.66371750000064,"velocity":0.9133858267716536,"duration":0.268907200000001},{"name":"D#4","midi":63,"time":109.66371750000064,"velocity":0.9133858267716536,"duration":0.268907200000001},{"name":"B3","midi":59,"time":109.66371750000064,"velocity":0.937007874015748,"duration":0.17436951250000732},{"name":"B2","midi":47,"time":109.66371750000064,"velocity":0.7244094488188977,"duration":0.17121825625000042},{"name":"B1","midi":35,"time":109.66371750000064,"velocity":0.8110236220472441,"duration":0.17121825625000042},{"name":"B2","midi":47,"time":109.66371750000064,"velocity":0.8110236220472441,"duration":0.24474756875000026},{"name":"F#2","midi":42,"time":109.91581800000064,"velocity":0.7322834645669292,"duration":0.17436951250000732},{"name":"D5","midi":74,"time":109.91581800000064,"velocity":0.7401574803149606,"duration":0.2289912875000084},{"name":"D4","midi":62,"time":109.91581800000064,"velocity":0.7401574803149606,"duration":0.2289912875000084},{"name":"B1","midi":35,"time":109.91581800000064,"velocity":0.9291338582677166,"duration":0.12184857500000135},{"name":"C#4","midi":61,"time":109.91581800000064,"velocity":0.937007874015748,"duration":0.24789882500002136},{"name":"F#3","midi":54,"time":109.91581800000064,"velocity":0.7244094488188977,"duration":0.17436951250000732},{"name":"F#2","midi":42,"time":109.91581800000064,"velocity":0.8110236220472441,"duration":0.17436951250000732},{"name":"F#3","midi":54,"time":109.91581800000064,"velocity":0.8110236220472441,"duration":0.24474756875001447},{"name":"F#2","midi":42,"time":110.16791850000067,"velocity":0.7322834645669292,"duration":0.1743695124999931},{"name":"D#5","midi":75,"time":110.16791850000067,"velocity":0.9133858267716536,"duration":0.24789882499999294},{"name":"D#4","midi":63,"time":110.16791850000067,"velocity":0.9133858267716536,"duration":0.24789882499999294},{"name":"B3","midi":59,"time":110.16791850000067,"velocity":0.937007874015748,"duration":0.1743695124999931},{"name":"F#3","midi":54,"time":110.16791850000067,"velocity":0.7244094488188977,"duration":0.1743695124999931},{"name":"F#2","midi":42,"time":110.16791850000067,"velocity":0.8110236220472441,"duration":0.1743695124999931},{"name":"F#3","midi":54,"time":110.16791850000067,"velocity":0.8110236220472441,"duration":0.24474756874998604},{"name":"F#1","midi":30,"time":110.42001900000066,"velocity":0.7322834645669292,"duration":0.17436951250000732},{"name":"C#5","midi":73,"time":110.42001900000066,"velocity":0.9133858267716536,"duration":0.2521005000000116},{"name":"C#4","midi":61,"time":110.42001900000066,"velocity":0.9133858267716536,"duration":0.24789882500000715},{"name":"B1","midi":35,"time":110.42001900000066,"velocity":0.9291338582677166,"duration":0.12184857500000135},{"name":"D2","midi":38,"time":110.42001900000066,"velocity":0.9291338582677166,"duration":0.12184857500000135},{"name":"D#2","midi":39,"time":110.42001900000066,"velocity":0.9291338582677166,"duration":0.12184857500000135},{"name":"C#4","midi":61,"time":110.42001900000066,"velocity":0.937007874015748,"duration":0.2521005000000116},{"name":"F#2","midi":42,"time":110.42001900000066,"velocity":0.7244094488188977,"duration":0.17436951250000732},{"name":"F#1","midi":30,"time":110.42001900000066,"velocity":0.8110236220472441,"duration":0.17436951250000732},{"name":"F#2","midi":42,"time":110.42001900000066,"velocity":0.8110236220472441,"duration":0.24474756875000026},{"name":"F#1","midi":30,"time":110.67211950000068,"velocity":0.7322834645669292,"duration":0.1743695124999931},{"name":"F#4","midi":66,"time":110.67211950000068,"velocity":0.968503937007874,"duration":0.2405458937499958},{"name":"F#3","midi":54,"time":110.67211950000068,"velocity":0.968503937007874,"duration":0.2405458937499958},{"name":"B3","midi":59,"time":110.67211950000068,"velocity":0.937007874015748,"duration":0.1743695124999931},{"name":"F#2","midi":42,"time":110.67211950000068,"velocity":0.7244094488188977,"duration":0.1743695124999931},{"name":"F#1","midi":30,"time":110.67211950000068,"velocity":0.8110236220472441,"duration":0.1743695124999931},{"name":"F#2","midi":42,"time":110.67211950000068,"velocity":0.8110236220472441,"duration":0.24474756875000026},{"name":"G#2","midi":44,"time":110.92422000000067,"velocity":0.7322834645669292,"duration":0.17436951250000732},{"name":"G#4","midi":68,"time":110.92422000000067,"velocity":0.9133858267716536,"duration":0.24789882500000715},{"name":"G#3","midi":56,"time":110.92422000000067,"velocity":0.9133858267716536,"duration":0.17436951250000732},{"name":"B1","midi":35,"time":110.92422000000067,"velocity":0.9291338582677166,"duration":0.12184857500000135},{"name":"D#4","midi":63,"time":110.92422000000067,"velocity":0.937007874015748,"duration":0.17436951250000732},{"name":"G#3","midi":56,"time":110.92422000000067,"velocity":0.7244094488188977,"duration":0.24474756875000026},{"name":"G#2","midi":44,"time":110.92422000000067,"velocity":0.8110236220472441,"duration":0.17436951250000732},{"name":"G#3","midi":56,"time":110.92422000000067,"velocity":0.8110236220472441,"duration":0.4264700125000189},{"name":"G#2","midi":44,"time":111.17632050000068,"velocity":0.7322834645669292,"duration":0.17436951250000732},{"name":"B4","midi":71,"time":111.17632050000068,"velocity":0.889763779527559,"duration":0.06617638125000269},{"name":"D#4","midi":63,"time":111.17632050000068,"velocity":0.937007874015748,"duration":0.17436951250000732},{"name":"G#3","midi":56,"time":111.17632050000068,"velocity":0.7244094488188977,"duration":0.24474756875000026},{"name":"G#2","midi":44,"time":111.17632050000068,"velocity":0.8110236220472441,"duration":0.17436951250000732},{"name":"G#3","midi":56,"time":111.17632050000068,"velocity":0.8110236220472441,"duration":0.2573525937499994},{"name":"G#1","midi":32,"time":111.42842100000068,"velocity":0.7322834645669292,"duration":0.17436951250000732},{"name":"B4","midi":71,"time":111.42842100000068,"velocity":0.9291338582677166,"duration":0.17541993125000488},{"name":"B1","midi":35,"time":111.42842100000068,"velocity":0.9291338582677166,"duration":0.12184857500000135},{"name":"D2","midi":38,"time":111.42842100000068,"velocity":0.9291338582677166,"duration":0.12184857500000135},{"name":"D#2","midi":39,"time":111.42842100000068,"velocity":0.9291338582677166,"duration":0.12184857500000135},{"name":"D#4","midi":63,"time":111.42842100000068,"velocity":0.937007874015748,"duration":0.17436951250000732},{"name":"G#2","midi":44,"time":111.42842100000068,"velocity":0.7244094488188977,"duration":0.17436951250000732},{"name":"G#1","midi":32,"time":111.42842100000068,"velocity":0.8110236220472441,"duration":0.17436951250000732},{"name":"G#2","midi":44,"time":111.42842100000068,"velocity":0.8110236220472441,"duration":0.24474756875000026},{"name":"G#1","midi":32,"time":111.68052150000068,"velocity":0.7322834645669292,"duration":0.1743695124999931},{"name":"B4","midi":71,"time":111.68052150000068,"velocity":0.889763779527559,"duration":0.09348726874999613},{"name":"D#4","midi":63,"time":111.68052150000068,"velocity":0.937007874015748,"duration":0.1743695124999931},{"name":"G#2","midi":44,"time":111.68052150000068,"velocity":0.7244094488188977,"duration":0.1743695124999931},{"name":"G#1","midi":32,"time":111.68052150000068,"velocity":0.8110236220472441,"duration":0.1743695124999931},{"name":"G#2","midi":44,"time":111.68052150000068,"velocity":0.8110236220472441,"duration":0.24474756874998604},{"name":"D#2","midi":39,"time":111.93262200000066,"velocity":0.7322834645669292,"duration":0.17436951250000732},{"name":"B4","midi":71,"time":111.93262200000066,"velocity":0.9291338582677166,"duration":0.48529346249999605},{"name":"B1","midi":35,"time":111.93262200000066,"velocity":0.9291338582677166,"duration":0.12184857500000135},{"name":"D#4","midi":63,"time":111.93262200000066,"velocity":0.937007874015748,"duration":0.17436951250000732},{"name":"D#3","midi":51,"time":111.93262200000066,"velocity":0.7244094488188977,"duration":0.17436951250000732},{"name":"D#2","midi":39,"time":111.93262200000066,"velocity":0.8110236220472441,"duration":0.17436951250000732},{"name":"D#3","midi":51,"time":111.93262200000066,"velocity":0.8110236220472441,"duration":0.24474756875000026},{"name":"D#2","midi":39,"time":112.18472250000066,"velocity":0.7322834645669292,"duration":0.1743695124999931},{"name":"D#4","midi":63,"time":112.18472250000066,"velocity":0.937007874015748,"duration":0.1743695124999931},{"name":"D#3","midi":51,"time":112.18472250000066,"velocity":0.7244094488188977,"duration":0.1743695124999931},{"name":"D#2","midi":39,"time":112.18472250000066,"velocity":0.8110236220472441,"duration":0.1743695124999931},{"name":"D#3","midi":51,"time":112.18472250000066,"velocity":0.8110236220472441,"duration":0.24474756875000026},{"name":"G#1","midi":32,"time":112.43682300000066,"velocity":0.7322834645669292,"duration":0.17436951250000732},{"name":"B1","midi":35,"time":112.43682300000066,"velocity":0.9291338582677166,"duration":0.12184857500000135},{"name":"D2","midi":38,"time":112.43682300000066,"velocity":0.9291338582677166,"duration":0.12184857500000135},{"name":"D#2","midi":39,"time":112.43682300000066,"velocity":0.9291338582677166,"duration":0.12184857500000135},{"name":"D#4","midi":63,"time":112.43682300000066,"velocity":0.937007874015748,"duration":0.17436951250000732},{"name":"G#2","midi":44,"time":112.43682300000066,"velocity":0.7244094488188977,"duration":0.17436951250000732},{"name":"G#1","midi":32,"time":112.43682300000066,"velocity":0.8110236220472441,"duration":0.17436951250000732},{"name":"G#2","midi":44,"time":112.43682300000066,"velocity":0.8110236220472441,"duration":0.24474756875000026},{"name":"G#1","midi":32,"time":112.68892350000066,"velocity":0.7322834645669292,"duration":0.17436951250000732},{"name":"B4","midi":71,"time":112.68892350000066,"velocity":0.8503937007874016,"duration":0.04096633125000437},{"name":"D#4","midi":63,"time":112.68892350000066,"velocity":0.937007874015748,"duration":0.17436951250000732},{"name":"G#2","midi":44,"time":112.68892350000066,"velocity":0.7244094488188977,"duration":0.17436951250000732},{"name":"G#1","midi":32,"time":112.68892350000066,"velocity":0.8110236220472441,"duration":0.17436951250000732},{"name":"G#2","midi":44,"time":112.68892350000066,"velocity":0.8110236220472441,"duration":0.24474756875000026},{"name":"D#2","midi":39,"time":112.94102400000065,"velocity":0.7795275590551181,"duration":0.1743695124999931},{"name":"B4","midi":71,"time":112.94102400000065,"velocity":0.9291338582677166,"duration":0.13550401874999807},{"name":"A#3","midi":58,"time":112.94102400000065,"velocity":0.8740157480314961,"duration":2.0126023250000316},{"name":"B1","midi":35,"time":112.94102400000065,"velocity":0.9291338582677166,"duration":0.12184857500000135},{"name":"G#1","midi":32,"time":113.19312450000065,"velocity":0.7795275590551181,"duration":0.17436951250000732},{"name":"B4","midi":71,"time":113.19312450000065,"velocity":0.9291338582677166,"duration":0.06512596250000513},{"name":"B4","midi":71,"time":113.44522500000066,"velocity":0.9291338582677166,"duration":0.14495778750000454},{"name":"B4","midi":71,"time":113.69732550000067,"velocity":0.9291338582677166,"duration":0.6081924562500092},{"name":"A#3","midi":58,"time":113.82337575000068,"velocity":0.8740157480314961,"duration":1.1302505750000051},{"name":"G#1","midi":32,"time":114.95782800000069,"velocity":0.7401574803149606,"duration":0.23004170624999176},{"name":"D#5","midi":75,"time":114.95782800000069,"velocity":0.8110236220472441,"duration":2.012602324999989},{"name":"G#5","midi":80,"time":114.95782800000069,"velocity":0.8110236220472441,"duration":4.029406325000096},{"name":"B5","midi":83,"time":114.95782800000069,"velocity":0.8110236220472441,"duration":0.49999932499999034},{"name":"B1","midi":35,"time":114.95782800000069,"velocity":0.9291338582677166,"duration":0.12184857500000135},{"name":"C#3","midi":49,"time":114.95782800000069,"velocity":0.6299212598425197,"duration":0.12184857500000135},{"name":"G#2","midi":44,"time":114.95782800000069,"velocity":0.9291338582677166,"duration":0.1859241187499947},{"name":"G#4","midi":68,"time":114.95782800000069,"velocity":0.968503937007874,"duration":0.4401254562499872},{"name":"G#1","midi":32,"time":115.20992850000069,"velocity":0.7401574803149606,"duration":0.23004170624999176},{"name":"B5","midi":83,"time":115.20992850000069,"velocity":0.9291338582677166,"duration":1.2573512437499943},{"name":"G#3","midi":56,"time":115.20992850000069,"velocity":0.41732283464566927,"duration":0.13865527499999075},{"name":"B3","midi":59,"time":115.20992850000069,"velocity":0.6692913385826772,"duration":0.1628149062499915},{"name":"D#4","midi":63,"time":115.20992850000069,"velocity":0.5196850393700787,"duration":0.16806699999999353},{"name":"B3","midi":59,"time":115.20992850000069,"velocity":0.889763779527559,"duration":0.25945343124999454},{"name":"G#2","midi":44,"time":115.20992850000069,"velocity":0.9291338582677166,"duration":0.1859241187499947},{"name":"G#1","midi":32,"time":115.46202900000068,"velocity":0.7401574803149606,"duration":0.23004170624999176},{"name":"A#5","midi":82,"time":115.46202900000068,"velocity":0.8188976377952756,"duration":0.24789882499999294},{"name":"G#3","midi":56,"time":115.46202900000068,"velocity":0.5433070866141733,"duration":0.09138643125000101},{"name":"B3","midi":59,"time":115.46202900000068,"velocity":0.6377952755905512,"duration":0.10924355000000219},{"name":"D#4","midi":63,"time":115.46202900000068,"velocity":0.5196850393700787,"duration":0.11029396874999975},{"name":"B1","midi":35,"time":115.46202900000068,"velocity":0.9291338582677166,"duration":0.12184857500000135},{"name":"D2","midi":38,"time":115.46202900000068,"velocity":0.9291338582677166,"duration":0.12184857500000135},{"name":"D#2","midi":39,"time":115.46202900000068,"velocity":0.9291338582677166,"duration":0.12184857500000135},{"name":"G3","midi":55,"time":115.46202900000068,"velocity":0.6299212598425197,"duration":0.12184857500000135},{"name":"G#2","midi":44,"time":115.46202900000068,"velocity":0.9291338582677166,"duration":0.1859241187499947},{"name":"G#4","midi":68,"time":115.46202900000068,"velocity":0.968503937007874,"duration":0.435923781249997},{"name":"G#1","midi":32,"time":115.71412950000068,"velocity":0.7401574803149606,"duration":0.23004170624999176},{"name":"F#5","midi":78,"time":115.71412950000068,"velocity":0.9133858267716536,"duration":0.4810917874999916},{"name":"G#3","midi":56,"time":115.71412950000068,"velocity":0.5984251968503937,"duration":0.3970582874999877},{"name":"B3","midi":59,"time":115.71412950000068,"velocity":0.6692913385826772,"duration":0.2804618062499884},{"name":"D#4","midi":63,"time":115.71412950000068,"velocity":0.5669291338582677,"duration":0.4065120562499942},{"name":"B3","midi":59,"time":115.71412950000068,"velocity":0.8503937007874016,"duration":0.4033607999999873},{"name":"G#2","midi":44,"time":115.71412950000068,"velocity":0.9291338582677166,"duration":0.1859241187499947},{"name":"D#2","midi":39,"time":115.96623000000068,"velocity":0.7401574803149606,"duration":0.23004170624999176},{"name":"B1","midi":35,"time":115.96623000000068,"velocity":0.9291338582677166,"duration":0.12184857499998714},{"name":"G3","midi":55,"time":115.96623000000068,"velocity":0.6299212598425197,"duration":0.12184857499998714},{"name":"D#3","midi":51,"time":115.96623000000068,"velocity":0.9291338582677166,"duration":0.1859241187499947},{"name":"D#2","midi":39,"time":116.21833050000068,"velocity":0.7401574803149606,"duration":0.23004170625000597},{"name":"B5","midi":83,"time":116.21833050000068,"velocity":0.8582677165354331,"duration":2.768903825000109},{"name":"G#3","midi":56,"time":116.21833050000068,"velocity":0.5433070866141733,"duration":0.10714271250000706},{"name":"B3","midi":59,"time":116.21833050000068,"velocity":0.5748031496062992,"duration":0.10294103750000261},{"name":"D#4","midi":63,"time":116.21833050000068,"velocity":0.5039370078740157,"duration":0.17541993125000488},{"name":"B3","midi":59,"time":116.21833050000068,"velocity":0.889763779527559,"duration":0.28466348125000707},{"name":"D#3","midi":51,"time":116.21833050000068,"velocity":0.9291338582677166,"duration":0.18592411875000892},{"name":"G#1","midi":32,"time":116.47043100000069,"velocity":0.7401574803149606,"duration":0.23004170624999176},{"name":"A#5","midi":82,"time":116.47043100000069,"velocity":0.8582677165354331,"duration":0.23319296249999866},{"name":"G#3","midi":56,"time":116.47043100000069,"velocity":0.41732283464566927,"duration":0.11659648124999933},{"name":"B3","midi":59,"time":116.47043100000069,"velocity":0.2677165354330709,"duration":0.043067168749999496},{"name":"D#4","midi":63,"time":116.47043100000069,"velocity":0.4566929133858268,"duration":0.15336113749999924},{"name":"B1","midi":35,"time":116.47043100000069,"velocity":0.9291338582677166,"duration":0.12184857500000135},{"name":"D2","midi":38,"time":116.47043100000069,"velocity":0.9291338582677166,"duration":0.12184857500000135},{"name":"D#2","midi":39,"time":116.47043100000069,"velocity":0.9291338582677166,"duration":0.12184857500000135},{"name":"G3","midi":55,"time":116.47043100000069,"velocity":0.6299212598425197,"duration":0.12184857500000135},{"name":"G#2","midi":44,"time":116.47043100000069,"velocity":0.9291338582677166,"duration":0.1859241187499947},{"name":"G#1","midi":32,"time":116.72253150000068,"velocity":0.7401574803149606,"duration":0.23004170624999176},{"name":"F#5","midi":78,"time":116.72253150000068,"velocity":0.8582677165354331,"duration":0.49999932500000455},{"name":"E3","midi":52,"time":116.72253150000068,"velocity":0.36220472440944884,"duration":0.4033608000000015},{"name":"G#3","midi":56,"time":116.72253150000068,"velocity":0.47244094488188976,"duration":0.4033608000000015},{"name":"B3","midi":59,"time":116.72253150000068,"velocity":0.4251968503937008,"duration":0.3981087062499995},{"name":"D#4","midi":63,"time":116.72253150000068,"velocity":0.7086614173228346,"duration":0.25105008124999983},{"name":"G#2","midi":44,"time":116.72253150000068,"velocity":0.9291338582677166,"duration":0.1859241187499947},{"name":"G#1","midi":32,"time":116.97463200000068,"velocity":0.7401574803149606,"duration":0.23004170625000597},{"name":"E5","midi":76,"time":116.97463200000068,"velocity":0.8110236220472441,"duration":0.7153351687500304},{"name":"E4","midi":64,"time":116.97463200000068,"velocity":0.8503937007874016,"duration":0.8518896062500403},{"name":"B1","midi":35,"time":116.97463200000068,"velocity":0.9291338582677166,"duration":0.12184857500000135},{"name":"G3","midi":55,"time":116.97463200000068,"velocity":0.6299212598425197,"duration":0.12184857500000135},{"name":"G#2","midi":44,"time":116.97463200000068,"velocity":0.9291338582677166,"duration":0.18592411875000892},{"name":"G#1","midi":32,"time":117.2267325000007,"velocity":0.7401574803149606,"duration":0.23004170625000597},{"name":"F#5","midi":78,"time":117.2267325000007,"velocity":0.8582677165354331,"duration":0.21113416875000723},{"name":"E3","midi":52,"time":117.2267325000007,"velocity":0.33070866141732286,"duration":0.03991591250000681},{"name":"G#3","midi":56,"time":117.2267325000007,"velocity":0.4409448818897638,"duration":0.08403350000000387},{"name":"B3","midi":59,"time":117.2267325000007,"velocity":0.14960629921259844,"duration":0.04726884375000395},{"name":"G#2","midi":44,"time":117.2267325000007,"velocity":0.9291338582677166,"duration":0.18592411875000892},{"name":"E2","midi":40,"time":117.4788330000007,"velocity":0.7401574803149606,"duration":0.23004170625000597},{"name":"E5","midi":76,"time":117.4788330000007,"velocity":0.8582677165354331,"duration":0.46323466875003305},{"name":"E3","midi":52,"time":117.4788330000007,"velocity":0.44881889763779526,"duration":0.09663852500000303},{"name":"G#3","midi":56,"time":117.4788330000007,"velocity":0.6614173228346457,"duration":0.09978978125000992},{"name":"B3","midi":59,"time":117.4788330000007,"velocity":0.5511811023622047,"duration":0.08508391875000143},{"name":"B1","midi":35,"time":117.4788330000007,"velocity":0.9291338582677166,"duration":0.12184857500001556},{"name":"D2","midi":38,"time":117.4788330000007,"velocity":0.9291338582677166,"duration":0.12184857500001556},{"name":"D#2","midi":39,"time":117.4788330000007,"velocity":0.9291338582677166,"duration":0.12184857500001556},{"name":"G3","midi":55,"time":117.4788330000007,"velocity":0.6299212598425197,"duration":0.12184857500001556},{"name":"E3","midi":52,"time":117.4788330000007,"velocity":0.9291338582677166,"duration":0.18592411875000892},{"name":"B1","midi":35,"time":117.73093350000072,"velocity":0.7401574803149606,"duration":0.23004170625002018},{"name":"E5","midi":76,"time":117.73093350000072,"velocity":0.8582677165354331,"duration":0.46323466875003305},{"name":"E3","midi":52,"time":117.73093350000072,"velocity":0.47244094488188976,"duration":0.1953778875000154},{"name":"G#3","midi":56,"time":117.73093350000072,"velocity":0.5669291338582677,"duration":0.20798291250001455},{"name":"B3","midi":59,"time":117.73093350000072,"velocity":0.5748031496062992,"duration":0.20168040000001497},{"name":"B2","midi":47,"time":117.73093350000072,"velocity":0.9291338582677166,"duration":0.18592411875000892},{"name":"F#2","midi":42,"time":117.98303400000074,"velocity":0.7401574803149606,"duration":0.23004170625000597},{"name":"E5","midi":76,"time":117.98303400000074,"velocity":0.8582677165354331,"duration":0.4663859250000115},{"name":"E3","midi":52,"time":117.98303400000074,"velocity":0.5196850393700787,"duration":0.15020988125000656},{"name":"G#3","midi":56,"time":117.98303400000074,"velocity":0.6614173228346457,"duration":0.15546197500000858},{"name":"B3","midi":59,"time":117.98303400000074,"velocity":0.6377952755905512,"duration":0.15020988125000656},{"name":"B1","midi":35,"time":117.98303400000074,"velocity":0.9291338582677166,"duration":0.12184857500000135},{"name":"G3","midi":55,"time":117.98303400000074,"velocity":0.6299212598425197,"duration":0.12184857500000135},{"name":"F#3","midi":54,"time":117.98303400000074,"velocity":0.9291338582677166,"duration":0.18592411875000892},{"name":"F#2","midi":42,"time":118.23513450000075,"velocity":0.7401574803149606,"duration":0.23004170625000597},{"name":"E5","midi":76,"time":118.23513450000075,"velocity":0.8582677165354331,"duration":0.7184864250000231},{"name":"E3","midi":52,"time":118.23513450000075,"velocity":0.5511811023622047,"duration":0.22268877500000883},{"name":"G#3","midi":56,"time":118.23513450000075,"velocity":0.6929133858267716,"duration":0.2237391937500064},{"name":"B3","midi":59,"time":118.23513450000075,"velocity":0.6377952755905512,"duration":0.21848710000000438},{"name":"E4","midi":64,"time":118.23513450000075,"velocity":0.8503937007874016,"duration":0.24789882500000715},{"name":"F#3","midi":54,"time":118.23513450000075,"velocity":0.9291338582677166,"duration":0.1859241187499947},{"name":"F#2","midi":42,"time":118.48723500000077,"velocity":0.7401574803149606,"duration":0.23004170625000597},{"name":"D#5","midi":75,"time":118.48723500000077,"velocity":0.8582677165354331,"duration":0.21428542499999992},{"name":"D#4","midi":63,"time":118.48723500000077,"velocity":0.8503937007874016,"duration":0.24789882500000715},{"name":"B1","midi":35,"time":118.48723500000077,"velocity":0.9291338582677166,"duration":0.12184857500000135},{"name":"D2","midi":38,"time":118.48723500000077,"velocity":0.9291338582677166,"duration":0.12184857500000135},{"name":"D#2","midi":39,"time":118.48723500000077,"velocity":0.9291338582677166,"duration":0.12184857500000135},{"name":"G3","midi":55,"time":118.48723500000077,"velocity":0.6299212598425197,"duration":0.12184857500000135},{"name":"F#3","midi":54,"time":118.48723500000077,"velocity":0.9291338582677166,"duration":0.1859241187499947},{"name":"F#2","midi":42,"time":118.73933550000078,"velocity":0.7401574803149606,"duration":0.23004170625000597},{"name":"E5","midi":76,"time":118.73933550000078,"velocity":0.8582677165354331,"duration":0.24789882500000715},{"name":"E4","midi":64,"time":118.73933550000078,"velocity":0.8503937007874016,"duration":0.24789882500000715},{"name":"F#3","midi":54,"time":118.73933550000078,"velocity":0.9291338582677166,"duration":0.1859241187499947},{"name":"B1","midi":35,"time":118.99143600000079,"velocity":0.7401574803149606,"duration":0.12184857500000135},{"name":"B4","midi":71,"time":118.99143600000079,"velocity":0.8110236220472441,"duration":2.012602325000003},{"name":"D#5","midi":75,"time":118.99143600000079,"velocity":0.8110236220472441,"duration":0.49999932499999034},{"name":"F#5","midi":78,"time":118.99143600000079,"velocity":0.8110236220472441,"duration":0.7184864249999947},{"name":"D#5","midi":75,"time":118.99143600000079,"velocity":0.8582677165354331,"duration":2.012602325000003},{"name":"D#3","midi":51,"time":118.99143600000079,"velocity":0.7795275590551181,"duration":0.3771003312499914},{"name":"B3","midi":59,"time":118.99143600000079,"velocity":0.6692913385826772,"duration":0.3918061937499857},{"name":"D#4","midi":63,"time":118.99143600000079,"velocity":0.8503937007874016,"duration":0.24789882499999294},{"name":"B1","midi":35,"time":118.99143600000079,"velocity":0.9291338582677166,"duration":0.23004170624999176},{"name":"G3","midi":55,"time":118.99143600000079,"velocity":0.6299212598425197,"duration":0.12184857500000135},{"name":"B2","midi":47,"time":118.99143600000079,"velocity":0.9291338582677166,"duration":0.1859241187499947},{"name":"B1","midi":35,"time":119.24353650000079,"velocity":0.7401574803149606,"duration":0.23004170624999176},{"name":"B3","midi":59,"time":119.24353650000079,"velocity":0.8503937007874016,"duration":0.24789882499999294},{"name":"B2","midi":47,"time":119.24353650000079,"velocity":0.9291338582677166,"duration":0.1859241187499947},{"name":"B1","midi":35,"time":119.49563700000078,"velocity":0.7401574803149606,"duration":0.12184857500000135},{"name":"F#5","midi":78,"time":119.49563700000078,"velocity":0.8582677165354331,"duration":0.8445366750000147},{"name":"D#3","midi":51,"time":119.49563700000078,"velocity":0.6929133858267716,"duration":0.10924355000000219},{"name":"F#3","midi":54,"time":119.49563700000078,"velocity":0.6929133858267716,"duration":0.11344522500000664},{"name":"F#3","midi":54,"time":119.49563700000078,"velocity":0.8503937007874016,"duration":0.24789882500000715},{"name":"B1","midi":35,"time":119.49563700000078,"velocity":0.9291338582677166,"duration":0.23004170625000597},{"name":"D2","midi":38,"time":119.49563700000078,"velocity":0.9291338582677166,"duration":0.12184857500000135},{"name":"D#2","midi":39,"time":119.49563700000078,"velocity":0.9291338582677166,"duration":0.12184857500000135},{"name":"G3","midi":55,"time":119.49563700000078,"velocity":0.6299212598425197,"duration":0.12184857500000135},{"name":"B2","midi":47,"time":119.49563700000078,"velocity":0.9291338582677166,"duration":0.1859241187499947},{"name":"B1","midi":35,"time":119.7477375000008,"velocity":0.7401574803149606,"duration":0.23004170624999176},{"name":"F#5","midi":78,"time":119.7477375000008,"velocity":0.8582677165354331,"duration":1.2563008249999967},{"name":"D#3","midi":51,"time":119.7477375000008,"velocity":0.6929133858267716,"duration":0.5651252874999955},{"name":"F#3","midi":54,"time":119.7477375000008,"velocity":0.6614173228346457,"duration":0.49999932499999034},{"name":"E3","midi":52,"time":119.7477375000008,"velocity":0.8503937007874016,"duration":0.24789882499999294},{"name":"B2","midi":47,"time":119.7477375000008,"velocity":0.9291338582677166,"duration":0.1859241187499947},{"name":"F#1","midi":30,"time":119.99983800000079,"velocity":0.7401574803149606,"duration":0.23004170624999176},{"name":"F#3","midi":54,"time":119.99983800000079,"velocity":0.8503937007874016,"duration":0.3287810687500041},{"name":"B1","midi":35,"time":119.99983800000079,"velocity":0.9291338582677166,"duration":0.12184857500000135},{"name":"G3","midi":55,"time":119.99983800000079,"velocity":0.6299212598425197,"duration":0.12184857500000135},{"name":"F#2","midi":42,"time":119.99983800000079,"velocity":0.9291338582677166,"duration":0.1859241187499947},{"name":"F#1","midi":30,"time":120.25193850000079,"velocity":0.7401574803149606,"duration":0.23004170625000597},{"name":"D#4","midi":63,"time":120.25193850000079,"velocity":0.8503937007874016,"duration":0.24789882500000715},{"name":"F#2","midi":42,"time":120.25193850000079,"velocity":0.9291338582677166,"duration":0.18592411875000892},{"name":"B1","midi":35,"time":120.5040390000008,"velocity":0.7401574803149606,"duration":0.12184857500000135},{"name":"B1","midi":35,"time":120.5040390000008,"velocity":0.9291338582677166,"duration":0.23004170624999176},{"name":"D2","midi":38,"time":120.5040390000008,"velocity":0.9291338582677166,"duration":0.12184857500000135},{"name":"D#2","midi":39,"time":120.5040390000008,"velocity":0.9291338582677166,"duration":0.12184857500000135},{"name":"G3","midi":55,"time":120.5040390000008,"velocity":0.6299212598425197,"duration":0.12184857500000135},{"name":"B2","midi":47,"time":120.5040390000008,"velocity":0.9291338582677166,"duration":0.1859241187499947},{"name":"B1","midi":35,"time":120.7561395000008,"velocity":0.7401574803149606,"duration":0.23004170624999176},{"name":"B3","midi":59,"time":120.7561395000008,"velocity":0.8503937007874016,"duration":0.24789882499999294},{"name":"B2","midi":47,"time":120.7561395000008,"velocity":0.9291338582677166,"duration":0.1859241187499947},{"name":"A#1","midi":34,"time":121.0082400000008,"velocity":0.7401574803149606,"duration":0.23004170624999176},{"name":"A#4","midi":70,"time":121.0082400000008,"velocity":0.8110236220472441,"duration":0.24789882499999294},{"name":"C#5","midi":73,"time":121.0082400000008,"velocity":0.8110236220472441,"duration":1.2563008249999967},{"name":"A#5","midi":82,"time":121.0082400000008,"velocity":0.8110236220472441,"duration":2.012602324999989},{"name":"A#4","midi":70,"time":121.0082400000008,"velocity":0.8582677165354331,"duration":0.7520998250000019},{"name":"C#4","midi":61,"time":121.0082400000008,"velocity":0.8503937007874016,"duration":1.0042003249999993},{"name":"B1","midi":35,"time":121.0082400000008,"velocity":0.9291338582677166,"duration":0.12184857500000135},{"name":"G3","midi":55,"time":121.0082400000008,"velocity":0.6299212598425197,"duration":0.12184857500000135},{"name":"A#2","midi":46,"time":121.0082400000008,"velocity":0.9291338582677166,"duration":0.1859241187499947},{"name":"A#2","midi":46,"time":121.0271475375008,"velocity":0.6929133858267716,"duration":0.23949547499999824},{"name":"A#1","midi":34,"time":121.2603405000008,"velocity":0.7401574803149606,"duration":0.23004170625000597},{"name":"B4","midi":71,"time":121.2603405000008,"velocity":0.8582677165354331,"duration":0.24789882500000715},{"name":"A#2","midi":46,"time":121.2603405000008,"velocity":0.9291338582677166,"duration":0.18592411875000892},{"name":"B2","midi":47,"time":121.2823992937508,"velocity":0.6377952755905512,"duration":0.21848710000000438},{"name":"A#1","midi":34,"time":121.5124410000008,"velocity":0.7401574803149606,"duration":0.23004170624999176},{"name":"G#5","midi":80,"time":121.5124410000008,"velocity":0.8110236220472441,"duration":1.3823510749999883},{"name":"A#4","midi":70,"time":121.5124410000008,"velocity":0.8582677165354331,"duration":0.7520998249999877},{"name":"B1","midi":35,"time":121.5124410000008,"velocity":0.9291338582677166,"duration":0.12184857500000135},{"name":"D2","midi":38,"time":121.5124410000008,"velocity":0.9291338582677166,"duration":0.12184857500000135},{"name":"D#2","midi":39,"time":121.5124410000008,"velocity":0.9291338582677166,"duration":0.12184857500000135},{"name":"G3","midi":55,"time":121.5124410000008,"velocity":0.6299212598425197,"duration":0.12184857500000135},{"name":"A#2","midi":46,"time":121.5124410000008,"velocity":0.9291338582677166,"duration":0.1859241187499947},{"name":"A#2","midi":46,"time":121.55340733125081,"velocity":0.6614173228346457,"duration":0.2027308187499841},{"name":"A#1","midi":34,"time":121.7645415000008,"velocity":0.7401574803149606,"duration":0.23004170624999176},{"name":"F#4","midi":66,"time":121.7645415000008,"velocity":0.8582677165354331,"duration":0.24789882499999294},{"name":"A#2","midi":46,"time":121.7645415000008,"velocity":0.9291338582677166,"duration":0.1859241187499947},{"name":"F#2","midi":42,"time":121.7981549000008,"velocity":0.8346456692913385,"duration":0.21428542499999992},{"name":"A#1","midi":34,"time":122.0166420000008,"velocity":0.7401574803149606,"duration":0.23004170624999176},{"name":"F#5","midi":78,"time":122.0166420000008,"velocity":0.8110236220472441,"duration":1.0042003249999851},{"name":"A#4","midi":70,"time":122.0166420000008,"velocity":0.8582677165354331,"duration":0.7520998249999877},{"name":"B1","midi":35,"time":122.0166420000008,"velocity":0.9291338582677166,"duration":0.12184857500000135},{"name":"G3","midi":55,"time":122.0166420000008,"velocity":0.6299212598425197,"duration":0.12184857500000135},{"name":"A#2","midi":46,"time":122.0166420000008,"velocity":0.9291338582677166,"duration":0.1859241187499947},{"name":"A#2","midi":46,"time":122.0702133562508,"velocity":0.7401574803149606,"duration":0.21848709999999016},{"name":"A#1","midi":34,"time":122.2687425000008,"velocity":0.7401574803149606,"duration":0.23004170624999176},{"name":"B4","midi":71,"time":122.2687425000008,"velocity":0.8582677165354331,"duration":0.24789882499999294},{"name":"A#2","midi":46,"time":122.2687425000008,"velocity":0.9291338582677166,"duration":0.1859241187499947},{"name":"B2","midi":47,"time":122.31496092500079,"velocity":0.7716535433070866,"duration":0.22163835625001127},{"name":"F#1","midi":30,"time":122.5208430000008,"velocity":0.7401574803149606,"duration":0.23004170624999176},{"name":"C#5","midi":73,"time":122.5208430000008,"velocity":0.8110236220472441,"duration":0.49999932499999034},{"name":"A#4","midi":70,"time":122.5208430000008,"velocity":0.8582677165354331,"duration":0.49999932499999034},{"name":"B1","midi":35,"time":122.5208430000008,"velocity":0.9291338582677166,"duration":0.12184857500000135},{"name":"D2","midi":38,"time":122.5208430000008,"velocity":0.9291338582677166,"duration":0.12184857500000135},{"name":"D#2","midi":39,"time":122.5208430000008,"velocity":0.9291338582677166,"duration":0.12184857500000135},{"name":"G3","midi":55,"time":122.5208430000008,"velocity":0.6299212598425197,"duration":0.12184857500000135},{"name":"F#2","midi":42,"time":122.5208430000008,"velocity":0.9291338582677166,"duration":0.1859241187499947},{"name":"A#2","midi":46,"time":122.5670614250008,"velocity":0.7795275590551181,"duration":0.2205879374999853},{"name":"F#1","midi":30,"time":122.77294350000079,"velocity":0.7401574803149606,"duration":0.23004170624999176},{"name":"F#4","midi":66,"time":122.77294350000079,"velocity":0.8582677165354331,"duration":0.24789882499999294},{"name":"F#2","midi":42,"time":122.77294350000079,"velocity":0.9291338582677166,"duration":0.1859241187499947},{"name":"F#2","midi":42,"time":122.7971031312508,"velocity":0.8346456692913385,"duration":0.16701658124999597},{"name":"G#1","midi":32,"time":123.02504400000079,"velocity":0.7401574803149606,"duration":0.23004170624999176},{"name":"D#5","midi":75,"time":123.02504400000079,"velocity":0.8110236220472441,"duration":2.012602324999989},{"name":"G#5","midi":80,"time":123.02504400000079,"velocity":0.8110236220472441,"duration":4.029406325000096},{"name":"B5","midi":83,"time":123.02504400000079,"velocity":0.8110236220472441,"duration":0.49999932499999034},{"name":"B1","midi":35,"time":123.02504400000079,"velocity":0.9291338582677166,"duration":0.12184857500000135},{"name":"G3","midi":55,"time":123.02504400000079,"velocity":0.6299212598425197,"duration":0.12184857500000135},{"name":"G#2","midi":44,"time":123.02504400000079,"velocity":0.9291338582677166,"duration":0.1859241187499947},{"name":"G#4","midi":68,"time":123.02504400000079,"velocity":0.968503937007874,"duration":0.4401254562499872},{"name":"G#1","midi":32,"time":123.27714450000079,"velocity":0.7401574803149606,"duration":0.23004170624999176},{"name":"B5","midi":83,"time":123.27714450000079,"velocity":0.9291338582677166,"duration":1.2573512437499943},{"name":"G#3","midi":56,"time":123.27714450000079,"velocity":0.41732283464566927,"duration":0.13865527499999075},{"name":"B3","midi":59,"time":123.27714450000079,"velocity":0.6692913385826772,"duration":0.1628149062499915},{"name":"D#4","midi":63,"time":123.27714450000079,"velocity":0.5196850393700787,"duration":0.16806699999999353},{"name":"B3","midi":59,"time":123.27714450000079,"velocity":0.889763779527559,"duration":0.25945343124999454},{"name":"G#2","midi":44,"time":123.27714450000079,"velocity":0.9291338582677166,"duration":0.1859241187499947},{"name":"G#1","midi":32,"time":123.52924500000078,"velocity":0.7401574803149606,"duration":0.23004170624999176},{"name":"A#5","midi":82,"time":123.52924500000078,"velocity":0.8188976377952756,"duration":0.24789882499999294},{"name":"G#3","midi":56,"time":123.52924500000078,"velocity":0.5433070866141733,"duration":0.09138643125000101},{"name":"B3","midi":59,"time":123.52924500000078,"velocity":0.6377952755905512,"duration":0.10924355000000219},{"name":"D#4","midi":63,"time":123.52924500000078,"velocity":0.5196850393700787,"duration":0.11029396874999975},{"name":"B1","midi":35,"time":123.52924500000078,"velocity":0.9291338582677166,"duration":0.12184857500000135},{"name":"D2","midi":38,"time":123.52924500000078,"velocity":0.9291338582677166,"duration":0.12184857500000135},{"name":"D#2","midi":39,"time":123.52924500000078,"velocity":0.9291338582677166,"duration":0.12184857500000135},{"name":"G3","midi":55,"time":123.52924500000078,"velocity":0.6299212598425197,"duration":0.12184857500000135},{"name":"G#2","midi":44,"time":123.52924500000078,"velocity":0.9291338582677166,"duration":0.1859241187499947},{"name":"G#4","midi":68,"time":123.52924500000078,"velocity":0.968503937007874,"duration":0.435923781249997},{"name":"G#1","midi":32,"time":123.78134550000078,"velocity":0.7401574803149606,"duration":0.23004170624999176},{"name":"F#5","midi":78,"time":123.78134550000078,"velocity":0.9133858267716536,"duration":0.4810917874999916},{"name":"G#3","midi":56,"time":123.78134550000078,"velocity":0.5984251968503937,"duration":0.3970582874999877},{"name":"B3","midi":59,"time":123.78134550000078,"velocity":0.6692913385826772,"duration":0.2804618062499884},{"name":"D#4","midi":63,"time":123.78134550000078,"velocity":0.5669291338582677,"duration":0.4065120562499942},{"name":"B3","midi":59,"time":123.78134550000078,"velocity":0.8503937007874016,"duration":0.4033607999999873},{"name":"G#2","midi":44,"time":123.78134550000078,"velocity":0.9291338582677166,"duration":0.1859241187499947},{"name":"D#2","midi":39,"time":124.03344600000078,"velocity":0.7401574803149606,"duration":0.23004170624999176},{"name":"B1","midi":35,"time":124.03344600000078,"velocity":0.9291338582677166,"duration":0.12184857499998714},{"name":"G3","midi":55,"time":124.03344600000078,"velocity":0.6299212598425197,"duration":0.12184857499998714},{"name":"D#3","midi":51,"time":124.03344600000078,"velocity":0.9291338582677166,"duration":0.1859241187499947},{"name":"D#2","midi":39,"time":124.28554650000078,"velocity":0.7401574803149606,"duration":0.23004170625000597},{"name":"B5","midi":83,"time":124.28554650000078,"velocity":0.8582677165354331,"duration":2.768903825000109},{"name":"G#3","midi":56,"time":124.28554650000078,"velocity":0.5433070866141733,"duration":0.10714271250000706},{"name":"B3","midi":59,"time":124.28554650000078,"velocity":0.5748031496062992,"duration":0.10294103750000261},{"name":"D#4","midi":63,"time":124.28554650000078,"velocity":0.5039370078740157,"duration":0.17541993125000488},{"name":"B3","midi":59,"time":124.28554650000078,"velocity":0.889763779527559,"duration":0.28466348125000707},{"name":"D#3","midi":51,"time":124.28554650000078,"velocity":0.9291338582677166,"duration":0.18592411875000892},{"name":"G#1","midi":32,"time":124.53764700000079,"velocity":0.7401574803149606,"duration":0.23004170624999176},{"name":"A#5","midi":82,"time":124.53764700000079,"velocity":0.8582677165354331,"duration":0.23319296249999866},{"name":"G#3","midi":56,"time":124.53764700000079,"velocity":0.41732283464566927,"duration":0.11659648124999933},{"name":"B3","midi":59,"time":124.53764700000079,"velocity":0.2677165354330709,"duration":0.043067168749999496},{"name":"D#4","midi":63,"time":124.53764700000079,"velocity":0.4566929133858268,"duration":0.15336113749999924},{"name":"B1","midi":35,"time":124.53764700000079,"velocity":0.9291338582677166,"duration":0.12184857500000135},{"name":"D2","midi":38,"time":124.53764700000079,"velocity":0.9291338582677166,"duration":0.12184857500000135},{"name":"D#2","midi":39,"time":124.53764700000079,"velocity":0.9291338582677166,"duration":0.12184857500000135},{"name":"G3","midi":55,"time":124.53764700000079,"velocity":0.6299212598425197,"duration":0.12184857500000135},{"name":"G#2","midi":44,"time":124.53764700000079,"velocity":0.9291338582677166,"duration":0.1859241187499947},{"name":"G#1","midi":32,"time":124.78974750000079,"velocity":0.7401574803149606,"duration":0.23004170624999176},{"name":"F#5","midi":78,"time":124.78974750000079,"velocity":0.8582677165354331,"duration":0.49999932500000455},{"name":"E3","midi":52,"time":124.78974750000079,"velocity":0.36220472440944884,"duration":0.4033608000000015},{"name":"G#3","midi":56,"time":124.78974750000079,"velocity":0.47244094488188976,"duration":0.4033608000000015},{"name":"B3","midi":59,"time":124.78974750000079,"velocity":0.4251968503937008,"duration":0.3981087062499995},{"name":"D#4","midi":63,"time":124.78974750000079,"velocity":0.7086614173228346,"duration":0.25105008124999983},{"name":"G#2","midi":44,"time":124.78974750000079,"velocity":0.9291338582677166,"duration":0.1859241187499947},{"name":"G#1","midi":32,"time":125.04184800000078,"velocity":0.7401574803149606,"duration":0.23004170625000597},{"name":"E5","midi":76,"time":125.04184800000078,"velocity":0.8110236220472441,"duration":0.7153351687500304},{"name":"E4","midi":64,"time":125.04184800000078,"velocity":0.8503937007874016,"duration":0.8518896062500403},{"name":"B1","midi":35,"time":125.04184800000078,"velocity":0.9291338582677166,"duration":0.12184857500000135},{"name":"G3","midi":55,"time":125.04184800000078,"velocity":0.6299212598425197,"duration":0.12184857500000135},{"name":"G#2","midi":44,"time":125.04184800000078,"velocity":0.9291338582677166,"duration":0.18592411875000892},{"name":"G#1","midi":32,"time":125.2939485000008,"velocity":0.7401574803149606,"duration":0.23004170625000597},{"name":"F#5","midi":78,"time":125.2939485000008,"velocity":0.8582677165354331,"duration":0.21113416875000723},{"name":"E3","midi":52,"time":125.2939485000008,"velocity":0.33070866141732286,"duration":0.03991591250000681},{"name":"G#3","midi":56,"time":125.2939485000008,"velocity":0.4409448818897638,"duration":0.08403350000000387},{"name":"B3","midi":59,"time":125.2939485000008,"velocity":0.14960629921259844,"duration":0.04726884375000395},{"name":"G#2","midi":44,"time":125.2939485000008,"velocity":0.9291338582677166,"duration":0.18592411875000892},{"name":"E2","midi":40,"time":125.5460490000008,"velocity":0.7401574803149606,"duration":0.23004170625000597},{"name":"E5","midi":76,"time":125.5460490000008,"velocity":0.8582677165354331,"duration":0.46323466875003305},{"name":"E3","midi":52,"time":125.5460490000008,"velocity":0.44881889763779526,"duration":0.09663852500000303},{"name":"G#3","midi":56,"time":125.5460490000008,"velocity":0.6614173228346457,"duration":0.09978978125000992},{"name":"B3","midi":59,"time":125.5460490000008,"velocity":0.5511811023622047,"duration":0.08508391875000143},{"name":"B1","midi":35,"time":125.5460490000008,"velocity":0.9291338582677166,"duration":0.12184857500001556},{"name":"D2","midi":38,"time":125.5460490000008,"velocity":0.9291338582677166,"duration":0.12184857500001556},{"name":"D#2","midi":39,"time":125.5460490000008,"velocity":0.9291338582677166,"duration":0.12184857500001556},{"name":"G3","midi":55,"time":125.5460490000008,"velocity":0.6299212598425197,"duration":0.12184857500001556},{"name":"E3","midi":52,"time":125.5460490000008,"velocity":0.9291338582677166,"duration":0.18592411875000892},{"name":"B1","midi":35,"time":125.79814950000082,"velocity":0.7401574803149606,"duration":0.23004170625002018},{"name":"E5","midi":76,"time":125.79814950000082,"velocity":0.8582677165354331,"duration":0.46323466875003305},{"name":"E3","midi":52,"time":125.79814950000082,"velocity":0.47244094488188976,"duration":0.1953778875000154},{"name":"G#3","midi":56,"time":125.79814950000082,"velocity":0.5669291338582677,"duration":0.20798291250001455},{"name":"B3","midi":59,"time":125.79814950000082,"velocity":0.5748031496062992,"duration":0.20168040000001497},{"name":"B2","midi":47,"time":125.79814950000082,"velocity":0.9291338582677166,"duration":0.18592411875000892},{"name":"F#2","midi":42,"time":126.05025000000084,"velocity":0.7401574803149606,"duration":0.23004170625000597},{"name":"E5","midi":76,"time":126.05025000000084,"velocity":0.8582677165354331,"duration":0.4663859250000115},{"name":"E3","midi":52,"time":126.05025000000084,"velocity":0.5196850393700787,"duration":0.15020988125000656},{"name":"G#3","midi":56,"time":126.05025000000084,"velocity":0.6614173228346457,"duration":0.15546197500000858},{"name":"B3","midi":59,"time":126.05025000000084,"velocity":0.6377952755905512,"duration":0.15020988125000656},{"name":"B1","midi":35,"time":126.05025000000084,"velocity":0.9291338582677166,"duration":0.12184857500000135},{"name":"G3","midi":55,"time":126.05025000000084,"velocity":0.6299212598425197,"duration":0.12184857500000135},{"name":"F#3","midi":54,"time":126.05025000000084,"velocity":0.9291338582677166,"duration":0.18592411875000892},{"name":"F#2","midi":42,"time":126.30235050000086,"velocity":0.7401574803149606,"duration":0.23004170625000597},{"name":"E5","midi":76,"time":126.30235050000086,"velocity":0.8582677165354331,"duration":0.7184864250000231},{"name":"E3","midi":52,"time":126.30235050000086,"velocity":0.5511811023622047,"duration":0.22268877500000883},{"name":"G#3","midi":56,"time":126.30235050000086,"velocity":0.6929133858267716,"duration":0.2237391937500064},{"name":"B3","midi":59,"time":126.30235050000086,"velocity":0.6377952755905512,"duration":0.21848710000000438},{"name":"E4","midi":64,"time":126.30235050000086,"velocity":0.8503937007874016,"duration":0.24789882500000715},{"name":"F#3","midi":54,"time":126.30235050000086,"velocity":0.9291338582677166,"duration":0.1859241187499947},{"name":"F#2","midi":42,"time":126.55445100000087,"velocity":0.7401574803149606,"duration":0.23004170625000597},{"name":"D#5","midi":75,"time":126.55445100000087,"velocity":0.8582677165354331,"duration":0.21428542499999992},{"name":"D#4","midi":63,"time":126.55445100000087,"velocity":0.8503937007874016,"duration":0.24789882500000715},{"name":"B1","midi":35,"time":126.55445100000087,"velocity":0.9291338582677166,"duration":0.12184857500000135},{"name":"D2","midi":38,"time":126.55445100000087,"velocity":0.9291338582677166,"duration":0.12184857500000135},{"name":"D#2","midi":39,"time":126.55445100000087,"velocity":0.9291338582677166,"duration":0.12184857500000135},{"name":"G3","midi":55,"time":126.55445100000087,"velocity":0.6299212598425197,"duration":0.12184857500000135},{"name":"F#3","midi":54,"time":126.55445100000087,"velocity":0.9291338582677166,"duration":0.1859241187499947},{"name":"F#2","midi":42,"time":126.80655150000088,"velocity":0.7401574803149606,"duration":0.23004170625000597},{"name":"E5","midi":76,"time":126.80655150000088,"velocity":0.8582677165354331,"duration":0.24789882500000715},{"name":"E4","midi":64,"time":126.80655150000088,"velocity":0.8503937007874016,"duration":0.24789882500000715},{"name":"F#3","midi":54,"time":126.80655150000088,"velocity":0.9291338582677166,"duration":0.1859241187499947},{"name":"B1","midi":35,"time":127.05865200000089,"velocity":0.7401574803149606,"duration":0.12184857500000135},{"name":"B4","midi":71,"time":127.05865200000089,"velocity":0.8110236220472441,"duration":2.0126023249999747},{"name":"D#5","midi":75,"time":127.05865200000089,"velocity":0.8110236220472441,"duration":0.49999932499999034},{"name":"F#5","midi":78,"time":127.05865200000089,"velocity":0.8110236220472441,"duration":0.7184864249999947},{"name":"D#5","midi":75,"time":127.05865200000089,"velocity":0.8582677165354331,"duration":2.0126023249999747},{"name":"D#3","midi":51,"time":127.05865200000089,"velocity":0.7795275590551181,"duration":0.3771003312499914},{"name":"B3","midi":59,"time":127.05865200000089,"velocity":0.6692913385826772,"duration":0.3918061937499857},{"name":"D#4","midi":63,"time":127.05865200000089,"velocity":0.8503937007874016,"duration":0.24789882499999294},{"name":"B1","midi":35,"time":127.05865200000089,"velocity":0.9291338582677166,"duration":0.23004170624999176},{"name":"G3","midi":55,"time":127.05865200000089,"velocity":0.6299212598425197,"duration":0.12184857500000135},{"name":"B2","midi":47,"time":127.05865200000089,"velocity":0.9291338582677166,"duration":0.1859241187499947},{"name":"B1","midi":35,"time":127.31075250000089,"velocity":0.7401574803149606,"duration":0.23004170624999176},{"name":"B3","midi":59,"time":127.31075250000089,"velocity":0.8503937007874016,"duration":0.24789882499999294},{"name":"B2","midi":47,"time":127.31075250000089,"velocity":0.9291338582677166,"duration":0.1859241187499947},{"name":"B1","midi":35,"time":127.56285300000089,"velocity":0.7401574803149606,"duration":0.12184857500000135},{"name":"F#5","midi":78,"time":127.56285300000089,"velocity":0.8582677165354331,"duration":0.8445366749999863},{"name":"D#3","midi":51,"time":127.56285300000089,"velocity":0.6929133858267716,"duration":0.10924355000000219},{"name":"F#3","midi":54,"time":127.56285300000089,"velocity":0.6929133858267716,"duration":0.11344522500000664},{"name":"F#3","midi":54,"time":127.56285300000089,"velocity":0.8503937007874016,"duration":0.24789882500000715},{"name":"B1","midi":35,"time":127.56285300000089,"velocity":0.9291338582677166,"duration":0.23004170625000597},{"name":"D2","midi":38,"time":127.56285300000089,"velocity":0.9291338582677166,"duration":0.12184857500000135},{"name":"D#2","midi":39,"time":127.56285300000089,"velocity":0.9291338582677166,"duration":0.12184857500000135},{"name":"G3","midi":55,"time":127.56285300000089,"velocity":0.6299212598425197,"duration":0.12184857500000135},{"name":"B2","midi":47,"time":127.56285300000089,"velocity":0.9291338582677166,"duration":0.1859241187499947},{"name":"B1","midi":35,"time":127.8149535000009,"velocity":0.7401574803149606,"duration":0.23004170625002018},{"name":"F#5","midi":78,"time":127.8149535000009,"velocity":0.8582677165354331,"duration":1.2563008249999683},{"name":"D#3","midi":51,"time":127.8149535000009,"velocity":0.6929133858267716,"duration":0.5651252874999813},{"name":"F#3","midi":54,"time":127.8149535000009,"velocity":0.6614173228346457,"duration":0.49999932499999034},{"name":"E3","midi":52,"time":127.8149535000009,"velocity":0.8503937007874016,"duration":0.24789882500000715},{"name":"B2","midi":47,"time":127.8149535000009,"velocity":0.9291338582677166,"duration":0.18592411875000892},{"name":"F#1","midi":30,"time":128.0670540000009,"velocity":0.7401574803149606,"duration":0.23004170625000597},{"name":"F#3","midi":54,"time":128.0670540000009,"velocity":0.8503937007874016,"duration":0.3287810687499757},{"name":"B1","midi":35,"time":128.0670540000009,"velocity":0.9291338582677166,"duration":0.12184857500000135},{"name":"G3","midi":55,"time":128.0670540000009,"velocity":0.6299212598425197,"duration":0.12184857500000135},{"name":"F#2","midi":42,"time":128.0670540000009,"velocity":0.9291338582677166,"duration":0.1859241187499947},{"name":"F#1","midi":30,"time":128.31915450000088,"velocity":0.7401574803149606,"duration":0.23004170625000597},{"name":"D#4","midi":63,"time":128.31915450000088,"velocity":0.8503937007874016,"duration":0.24789882499999294},{"name":"F#2","midi":42,"time":128.31915450000088,"velocity":0.9291338582677166,"duration":0.1859241187499947},{"name":"B1","midi":35,"time":128.57125500000086,"velocity":0.7401574803149606,"duration":0.12184857500000135},{"name":"B1","midi":35,"time":128.57125500000086,"velocity":0.9291338582677166,"duration":0.23004170625000597},{"name":"D2","midi":38,"time":128.57125500000086,"velocity":0.9291338582677166,"duration":0.12184857500000135},{"name":"D#2","midi":39,"time":128.57125500000086,"velocity":0.9291338582677166,"duration":0.12184857500000135},{"name":"G3","midi":55,"time":128.57125500000086,"velocity":0.6299212598425197,"duration":0.12184857500000135},{"name":"B2","midi":47,"time":128.57125500000086,"velocity":0.9291338582677166,"duration":0.1859241187499947},{"name":"B1","midi":35,"time":128.82335550000087,"velocity":0.7401574803149606,"duration":0.23004170625000597},{"name":"B3","midi":59,"time":128.82335550000087,"velocity":0.8503937007874016,"duration":0.24789882499999294},{"name":"B2","midi":47,"time":128.82335550000087,"velocity":0.9291338582677166,"duration":0.1859241187499947},{"name":"A#1","midi":34,"time":129.07545600000086,"velocity":0.7401574803149606,"duration":0.23004170625000597},{"name":"A#4","midi":70,"time":129.07545600000086,"velocity":0.8110236220472441,"duration":0.24789882499999294},{"name":"C#5","midi":73,"time":129.07545600000086,"velocity":0.8110236220472441,"duration":1.256300824999954},{"name":"A#5","midi":82,"time":129.07545600000086,"velocity":0.8110236220472441,"duration":2.012602324999847},{"name":"A#4","midi":70,"time":129.07545600000086,"velocity":0.8582677165354331,"duration":0.7520998249999877},{"name":"C#4","midi":61,"time":129.07545600000086,"velocity":0.8503937007874016,"duration":1.004200324999971},{"name":"B1","midi":35,"time":129.07545600000086,"velocity":0.9291338582677166,"duration":0.12184857500000135},{"name":"G3","midi":55,"time":129.07545600000086,"velocity":0.6299212598425197,"duration":0.12184857500000135},{"name":"A#2","midi":46,"time":129.07545600000086,"velocity":0.9291338582677166,"duration":0.1859241187499947},{"name":"A#2","midi":46,"time":129.09436353750087,"velocity":0.6929133858267716,"duration":0.23949547499998403},{"name":"A#1","midi":34,"time":129.32755650000084,"velocity":0.7401574803149606,"duration":0.23004170625000597},{"name":"B4","midi":71,"time":129.32755650000084,"velocity":0.8582677165354331,"duration":0.24789882500002136},{"name":"A#2","midi":46,"time":129.32755650000084,"velocity":0.9291338582677166,"duration":0.1859241187499947},{"name":"B2","midi":47,"time":129.34961529375084,"velocity":0.6377952755905512,"duration":0.21848710000000438},{"name":"A#1","midi":34,"time":129.57965700000085,"velocity":0.7401574803149606,"duration":0.23004170625000597},{"name":"G#5","midi":80,"time":129.57965700000085,"velocity":0.8110236220472441,"duration":1.3823510749998889},{"name":"A#4","midi":70,"time":129.57965700000085,"velocity":0.8582677165354331,"duration":0.7520998249999593},{"name":"B1","midi":35,"time":129.57965700000085,"velocity":0.9291338582677166,"duration":0.12184857500000135},{"name":"D2","midi":38,"time":129.57965700000085,"velocity":0.9291338582677166,"duration":0.12184857500000135},{"name":"D#2","midi":39,"time":129.57965700000085,"velocity":0.9291338582677166,"duration":0.12184857500000135},{"name":"G3","midi":55,"time":129.57965700000085,"velocity":0.6299212598425197,"duration":0.12184857500000135},{"name":"A#2","midi":46,"time":129.57965700000085,"velocity":0.9291338582677166,"duration":0.1859241187499947},{"name":"A#2","midi":46,"time":129.62062333125084,"velocity":0.6614173228346457,"duration":0.20273081875001253},{"name":"A#1","midi":34,"time":129.83175750000083,"velocity":0.7401574803149606,"duration":0.23004170625000597},{"name":"F#4","midi":66,"time":129.83175750000083,"velocity":0.8582677165354331,"duration":0.24789882499999294},{"name":"A#2","midi":46,"time":129.83175750000083,"velocity":0.9291338582677166,"duration":0.1859241187499947},{"name":"F#2","midi":42,"time":129.86537090000084,"velocity":0.8346456692913385,"duration":0.2142854249999857},{"name":"A#1","midi":34,"time":130.08385800000082,"velocity":0.7401574803149606,"duration":0.23004170625000597},{"name":"F#5","midi":78,"time":130.08385800000082,"velocity":0.8110236220472441,"duration":1.0042003249998857},{"name":"A#4","midi":70,"time":130.08385800000082,"velocity":0.8582677165354331,"duration":0.7520998249999309},{"name":"B1","midi":35,"time":130.08385800000082,"velocity":0.9291338582677166,"duration":0.12184857500000135},{"name":"G3","midi":55,"time":130.08385800000082,"velocity":0.6299212598425197,"duration":0.12184857500000135},{"name":"A#2","midi":46,"time":130.08385800000082,"velocity":0.9291338582677166,"duration":0.1859241187499947},{"name":"A#2","midi":46,"time":130.1374293562508,"velocity":0.7401574803149606,"duration":0.21848710000000438},{"name":"A#1","midi":34,"time":130.3359585000008,"velocity":0.7401574803149606,"duration":0.23004170625000597},{"name":"B4","midi":71,"time":130.3359585000008,"velocity":0.8582677165354331,"duration":0.24789882499999294},{"name":"A#2","midi":46,"time":130.3359585000008,"velocity":0.9291338582677166,"duration":0.1859241187499947},{"name":"B2","midi":47,"time":130.3821769250008,"velocity":0.7716535433070866,"duration":0.22163835624996864},{"name":"F#1","midi":30,"time":130.58805900000078,"velocity":0.7401574803149606,"duration":0.23004170624997755},{"name":"C#5","midi":73,"time":130.58805900000078,"velocity":0.8110236220472441,"duration":0.4999993249999193},{"name":"A#4","midi":70,"time":130.58805900000078,"velocity":0.8582677165354331,"duration":0.4999993249999193},{"name":"B1","midi":35,"time":130.58805900000078,"velocity":0.9291338582677166,"duration":0.12184857499997293},{"name":"D2","midi":38,"time":130.58805900000078,"velocity":0.9291338582677166,"duration":0.12184857499997293},{"name":"D#2","midi":39,"time":130.58805900000078,"velocity":0.9291338582677166,"duration":0.12184857499997293},{"name":"G3","midi":55,"time":130.58805900000078,"velocity":0.6299212598425197,"duration":0.12184857499997293},{"name":"F#2","midi":42,"time":130.58805900000078,"velocity":0.9291338582677166,"duration":0.18592411874996628},{"name":"A#2","midi":46,"time":130.63427742500076,"velocity":0.7795275590551181,"duration":0.22058793749997108},{"name":"F#1","midi":30,"time":130.84015950000074,"velocity":0.7401574803149606,"duration":0.23004170624997755},{"name":"F#4","midi":66,"time":130.84015950000074,"velocity":0.8582677165354331,"duration":0.24789882499996452},{"name":"F#2","midi":42,"time":130.84015950000074,"velocity":0.9291338582677166,"duration":0.1859241187499947},{"name":"F#2","midi":42,"time":130.86431913125074,"velocity":0.8346456692913385,"duration":0.16701658124998175},{"name":"G#2","midi":44,"time":131.0922600000007,"velocity":0.7322834645669292,"duration":0.1743695124999931},{"name":"B1","midi":35,"time":131.0922600000007,"velocity":0.9291338582677166,"duration":0.12184857500000135},{"name":"C#3","midi":49,"time":131.0922600000007,"velocity":0.6299212598425197,"duration":0.12184857500000135},{"name":"G#2","midi":44,"time":131.0922600000007,"velocity":0.8110236220472441,"duration":0.1743695124999931},{"name":"G#3","midi":56,"time":131.0922600000007,"velocity":0.8110236220472441,"duration":0.1743695124999931},{"name":"G#2","midi":44,"time":131.34436050000068,"velocity":0.7322834645669292,"duration":0.1743695124999931},{"name":"B4","midi":71,"time":131.34436050000068,"velocity":0.968503937007874,"duration":0.08718475624999655},{"name":"G#2","midi":44,"time":131.34436050000068,"velocity":0.8110236220472441,"duration":0.1743695124999931},{"name":"G#3","midi":56,"time":131.34436050000068,"velocity":0.8110236220472441,"duration":0.1743695124999931},{"name":"G#1","midi":32,"time":131.59646100000066,"velocity":0.7322834645669292,"duration":0.1743695124999931},{"name":"B4","midi":71,"time":131.59646100000066,"velocity":0.968503937007874,"duration":0.09978978124999571},{"name":"B1","midi":35,"time":131.59646100000066,"velocity":0.9291338582677166,"duration":0.12184857500000135},{"name":"D2","midi":38,"time":131.59646100000066,"velocity":0.9291338582677166,"duration":0.12184857500000135},{"name":"D#2","midi":39,"time":131.59646100000066,"velocity":0.9291338582677166,"duration":0.12184857500000135},{"name":"G#1","midi":32,"time":131.59646100000066,"velocity":0.8110236220472441,"duration":0.1743695124999931},{"name":"G#2","midi":44,"time":131.59646100000066,"velocity":0.8110236220472441,"duration":0.1743695124999931},{"name":"G#1","midi":32,"time":131.84856150000064,"velocity":0.7322834645669292,"duration":0.1743695124999931},{"name":"B4","midi":71,"time":131.84856150000064,"velocity":0.968503937007874,"duration":0.07773098749999008},{"name":"G#1","midi":32,"time":131.84856150000064,"velocity":0.8110236220472441,"duration":0.1743695124999931},{"name":"G#2","midi":44,"time":131.84856150000064,"velocity":0.8110236220472441,"duration":0.1743695124999931},{"name":"D#2","midi":39,"time":132.10066200000063,"velocity":0.7322834645669292,"duration":0.1743695124999931},{"name":"B4","midi":71,"time":132.10066200000063,"velocity":0.968503937007874,"duration":0.07352931249999983},{"name":"B1","midi":35,"time":132.10066200000063,"velocity":0.9291338582677166,"duration":0.12184857500000135},{"name":"D#2","midi":39,"time":132.10066200000063,"velocity":0.8110236220472441,"duration":0.1743695124999931},{"name":"D#3","midi":51,"time":132.10066200000063,"velocity":0.8110236220472441,"duration":0.1743695124999931},{"name":"D#2","midi":39,"time":132.3527625000006,"velocity":0.7322834645669292,"duration":0.1743695124999931},{"name":"B4","midi":71,"time":132.3527625000006,"velocity":0.968503937007874,"duration":0.06407554374999336},{"name":"D#2","midi":39,"time":132.3527625000006,"velocity":0.8110236220472441,"duration":0.1743695124999931},{"name":"D#3","midi":51,"time":132.3527625000006,"velocity":0.8110236220472441,"duration":0.1743695124999931},{"name":"G#1","midi":32,"time":132.6048630000006,"velocity":0.7322834645669292,"duration":0.1743695124999931},{"name":"B4","midi":71,"time":132.6048630000006,"velocity":0.968503937007874,"duration":0.1911762124999825},{"name":"B1","midi":35,"time":132.6048630000006,"velocity":0.9291338582677166,"duration":0.12184857500000135},{"name":"D2","midi":38,"time":132.6048630000006,"velocity":0.9291338582677166,"duration":0.12184857500000135},{"name":"D#2","midi":39,"time":132.6048630000006,"velocity":0.9291338582677166,"duration":0.12184857500000135},{"name":"G#1","midi":32,"time":132.6048630000006,"velocity":0.8110236220472441,"duration":0.1743695124999931},{"name":"G#2","midi":44,"time":132.6048630000006,"velocity":0.8110236220472441,"duration":0.1743695124999931},{"name":"G#1","midi":32,"time":132.85696350000057,"velocity":0.7322834645669292,"duration":0.1743695124999931},{"name":"B4","midi":71,"time":132.85696350000057,"velocity":0.968503937007874,"duration":0.09978978124999571},{"name":"G#1","midi":32,"time":132.85696350000057,"velocity":0.8110236220472441,"duration":0.1743695124999931},{"name":"G#2","midi":44,"time":132.85696350000057,"velocity":0.8110236220472441,"duration":0.1743695124999931},{"name":"G#2","midi":44,"time":133.10906400000056,"velocity":0.7322834645669292,"duration":0.1743695124999931},{"name":"B4","midi":71,"time":133.10906400000056,"velocity":0.968503937007874,"duration":0.07773098749999008},{"name":"B1","midi":35,"time":133.10906400000056,"velocity":0.9291338582677166,"duration":0.12184857500000135},{"name":"G#2","midi":44,"time":133.10906400000056,"velocity":0.8110236220472441,"duration":0.1743695124999931},{"name":"G#3","midi":56,"time":133.10906400000056,"velocity":0.8110236220472441,"duration":0.1743695124999931},{"name":"G#2","midi":44,"time":133.36116450000054,"velocity":0.7322834645669292,"duration":0.1743695124999931},{"name":"B4","midi":71,"time":133.36116450000054,"velocity":0.968503937007874,"duration":0.07352931249999983},{"name":"G#2","midi":44,"time":133.36116450000054,"velocity":0.8110236220472441,"duration":0.1743695124999931},{"name":"G#3","midi":56,"time":133.36116450000054,"velocity":0.8110236220472441,"duration":0.1743695124999931},{"name":"E2","midi":40,"time":133.61326500000052,"velocity":0.7322834645669292,"duration":0.17121825625000042},{"name":"B4","midi":71,"time":133.61326500000052,"velocity":0.968503937007874,"duration":0.06407554374999336},{"name":"B1","midi":35,"time":133.61326500000052,"velocity":0.9291338582677166,"duration":0.12184857500000135},{"name":"D2","midi":38,"time":133.61326500000052,"velocity":0.9291338582677166,"duration":0.12184857500000135},{"name":"D#2","midi":39,"time":133.61326500000052,"velocity":0.9291338582677166,"duration":0.12184857500000135},{"name":"E2","midi":40,"time":133.61326500000052,"velocity":0.8110236220472441,"duration":0.17121825625000042},{"name":"E3","midi":52,"time":133.61326500000052,"velocity":0.8110236220472441,"duration":0.17121825625000042},{"name":"B1","midi":35,"time":133.86536550000054,"velocity":0.7322834645669292,"duration":0.17121825625000042},{"name":"B4","midi":71,"time":133.86536550000054,"velocity":0.968503937007874,"duration":0.19117621250001093},{"name":"B1","midi":35,"time":133.86536550000054,"velocity":0.8110236220472441,"duration":0.17121825625000042},{"name":"B2","midi":47,"time":133.86536550000054,"velocity":0.8110236220472441,"duration":0.17121825625000042},{"name":"F#2","midi":42,"time":134.11746600000055,"velocity":0.7322834645669292,"duration":0.1743695124999931},{"name":"B1","midi":35,"time":134.11746600000055,"velocity":0.9291338582677166,"duration":0.12184857500000135},{"name":"F#2","midi":42,"time":134.11746600000055,"velocity":0.8110236220472441,"duration":0.1743695124999931},{"name":"F#3","midi":54,"time":134.11746600000055,"velocity":0.8110236220472441,"duration":0.1743695124999931},{"name":"F#2","midi":42,"time":134.36956650000053,"velocity":0.7322834645669292,"duration":0.1743695124999931},{"name":"G#3","midi":56,"time":134.36956650000053,"velocity":0.8582677165354331,"duration":0.12184857500000135},{"name":"F#2","midi":42,"time":134.36956650000053,"velocity":0.8110236220472441,"duration":0.1743695124999931},{"name":"F#3","midi":54,"time":134.36956650000053,"velocity":0.8110236220472441,"duration":0.1743695124999931},{"name":"F#1","midi":30,"time":134.6216670000005,"velocity":0.7322834645669292,"duration":0.1743695124999931},{"name":"G#3","midi":56,"time":134.6216670000005,"velocity":0.8582677165354331,"duration":0.12184857500000135},{"name":"B1","midi":35,"time":134.6216670000005,"velocity":0.9291338582677166,"duration":0.12184857500000135},{"name":"D2","midi":38,"time":134.6216670000005,"velocity":0.9291338582677166,"duration":0.12184857500000135},{"name":"D#2","midi":39,"time":134.6216670000005,"velocity":0.9291338582677166,"duration":0.12184857500000135},{"name":"F#1","midi":30,"time":134.6216670000005,"velocity":0.8110236220472441,"duration":0.1743695124999931},{"name":"F#2","midi":42,"time":134.6216670000005,"velocity":0.8110236220472441,"duration":0.1743695124999931},{"name":"F#1","midi":30,"time":134.8737675000005,"velocity":0.7322834645669292,"duration":0.1743695124999931},{"name":"G#3","midi":56,"time":134.8737675000005,"velocity":0.8582677165354331,"duration":0.12184857500000135},{"name":"F#1","midi":30,"time":134.8737675000005,"velocity":0.8110236220472441,"duration":0.1743695124999931},{"name":"F#2","midi":42,"time":134.8737675000005,"velocity":0.8110236220472441,"duration":0.1743695124999931},{"name":"G#2","midi":44,"time":135.12586800000048,"velocity":0.7322834645669292,"duration":0.1743695124999931},{"name":"G#3","midi":56,"time":135.12586800000048,"velocity":0.8582677165354331,"duration":0.1743695124999931},{"name":"B1","midi":35,"time":135.12586800000048,"velocity":0.9291338582677166,"duration":0.12184857500000135},{"name":"G#2","midi":44,"time":135.12586800000048,"velocity":0.8110236220472441,"duration":0.1743695124999931},{"name":"G#3","midi":56,"time":135.12586800000048,"velocity":0.8110236220472441,"duration":0.37394907499998453},{"name":"G#2","midi":44,"time":135.37796850000046,"velocity":0.7322834645669292,"duration":0.1743695124999931},{"name":"B4","midi":71,"time":135.37796850000046,"velocity":0.968503937007874,"duration":0.08718475624999655},{"name":"G#2","midi":44,"time":135.37796850000046,"velocity":0.8110236220472441,"duration":0.1743695124999931},{"name":"G#3","midi":56,"time":135.37796850000046,"velocity":0.8110236220472441,"duration":0.1743695124999931},{"name":"G#1","midi":32,"time":135.63006900000045,"velocity":0.7322834645669292,"duration":0.1743695124999931},{"name":"B4","midi":71,"time":135.63006900000045,"velocity":0.968503937007874,"duration":0.09978978124999571},{"name":"B1","midi":35,"time":135.63006900000045,"velocity":0.9291338582677166,"duration":0.12184857500000135},{"name":"D2","midi":38,"time":135.63006900000045,"velocity":0.9291338582677166,"duration":0.12184857500000135},{"name":"D#2","midi":39,"time":135.63006900000045,"velocity":0.9291338582677166,"duration":0.12184857500000135},{"name":"G#1","midi":32,"time":135.63006900000045,"velocity":0.8110236220472441,"duration":0.1743695124999931},{"name":"G#2","midi":44,"time":135.63006900000045,"velocity":0.8110236220472441,"duration":0.1743695124999931},{"name":"G#1","midi":32,"time":135.88216950000043,"velocity":0.7322834645669292,"duration":0.1743695124999931},{"name":"B4","midi":71,"time":135.88216950000043,"velocity":0.968503937007874,"duration":0.07773098749999008},{"name":"G#1","midi":32,"time":135.88216950000043,"velocity":0.8110236220472441,"duration":0.1743695124999931},{"name":"G#2","midi":44,"time":135.88216950000043,"velocity":0.8110236220472441,"duration":0.1743695124999931},{"name":"D#2","midi":39,"time":136.1342700000004,"velocity":0.7322834645669292,"duration":0.1743695124999931},{"name":"B4","midi":71,"time":136.1342700000004,"velocity":0.968503937007874,"duration":0.07352931249999983},{"name":"B1","midi":35,"time":136.1342700000004,"velocity":0.9291338582677166,"duration":0.12184857500000135},{"name":"D#2","midi":39,"time":136.1342700000004,"velocity":0.8110236220472441,"duration":0.1743695124999931},{"name":"D#3","midi":51,"time":136.1342700000004,"velocity":0.8110236220472441,"duration":0.1743695124999931},{"name":"D#2","midi":39,"time":136.3863705000004,"velocity":0.7322834645669292,"duration":0.1743695124999931},{"name":"B4","midi":71,"time":136.3863705000004,"velocity":0.968503937007874,"duration":0.06407554374999336},{"name":"D#2","midi":39,"time":136.3863705000004,"velocity":0.8110236220472441,"duration":0.1743695124999931},{"name":"D#3","midi":51,"time":136.3863705000004,"velocity":0.8110236220472441,"duration":0.1743695124999931},{"name":"G#1","midi":32,"time":136.63847100000038,"velocity":0.7322834645669292,"duration":0.1743695124999931},{"name":"B4","midi":71,"time":136.63847100000038,"velocity":0.968503937007874,"duration":0.1911762124999825},{"name":"B1","midi":35,"time":136.63847100000038,"velocity":0.9291338582677166,"duration":0.12184857500000135},{"name":"D2","midi":38,"time":136.63847100000038,"velocity":0.9291338582677166,"duration":0.12184857500000135},{"name":"D#2","midi":39,"time":136.63847100000038,"velocity":0.9291338582677166,"duration":0.12184857500000135},{"name":"G#1","midi":32,"time":136.63847100000038,"velocity":0.8110236220472441,"duration":0.1743695124999931},{"name":"G#2","midi":44,"time":136.63847100000038,"velocity":0.8110236220472441,"duration":0.1743695124999931},{"name":"G#1","midi":32,"time":136.89057150000036,"velocity":0.7322834645669292,"duration":0.1743695124999931},{"name":"B4","midi":71,"time":136.89057150000036,"velocity":0.968503937007874,"duration":0.09978978124999571},{"name":"G#1","midi":32,"time":136.89057150000036,"velocity":0.8110236220472441,"duration":0.1743695124999931},{"name":"G#2","midi":44,"time":136.89057150000036,"velocity":0.8110236220472441,"duration":0.1743695124999931},{"name":"G#2","midi":44,"time":137.14267200000035,"velocity":0.7322834645669292,"duration":0.1743695124999931},{"name":"B4","midi":71,"time":137.14267200000035,"velocity":0.968503937007874,"duration":0.07773098749999008},{"name":"B1","midi":35,"time":137.14267200000035,"velocity":0.9291338582677166,"duration":0.12184857500000135},{"name":"G#2","midi":44,"time":137.14267200000035,"velocity":0.8110236220472441,"duration":0.1743695124999931},{"name":"G#3","midi":56,"time":137.14267200000035,"velocity":0.8110236220472441,"duration":0.1743695124999931},{"name":"G#2","midi":44,"time":137.39477250000033,"velocity":0.7322834645669292,"duration":0.1743695124999931},{"name":"B4","midi":71,"time":137.39477250000033,"velocity":0.968503937007874,"duration":0.07352931249999983},{"name":"G#2","midi":44,"time":137.39477250000033,"velocity":0.8110236220472441,"duration":0.1743695124999931},{"name":"G#3","midi":56,"time":137.39477250000033,"velocity":0.8110236220472441,"duration":0.1743695124999931},{"name":"E2","midi":40,"time":137.6468730000003,"velocity":0.7322834645669292,"duration":0.17121825625000042},{"name":"B4","midi":71,"time":137.6468730000003,"velocity":0.968503937007874,"duration":0.06407554374999336},{"name":"B1","midi":35,"time":137.6468730000003,"velocity":0.9291338582677166,"duration":0.12184857500000135},{"name":"D2","midi":38,"time":137.6468730000003,"velocity":0.9291338582677166,"duration":0.12184857500000135},{"name":"D#2","midi":39,"time":137.6468730000003,"velocity":0.9291338582677166,"duration":0.12184857500000135},{"name":"E2","midi":40,"time":137.6468730000003,"velocity":0.8110236220472441,"duration":0.17121825625000042},{"name":"E3","midi":52,"time":137.6468730000003,"velocity":0.8110236220472441,"duration":0.17121825625000042},{"name":"B1","midi":35,"time":137.89897350000032,"velocity":0.7322834645669292,"duration":0.17121825625000042},{"name":"B4","midi":71,"time":137.89897350000032,"velocity":0.968503937007874,"duration":0.19117621250001093},{"name":"B1","midi":35,"time":137.89897350000032,"velocity":0.8110236220472441,"duration":0.17121825625000042},{"name":"B2","midi":47,"time":137.89897350000032,"velocity":0.8110236220472441,"duration":0.17121825625000042},{"name":"F#2","midi":42,"time":138.15107400000034,"velocity":0.7322834645669292,"duration":0.1743695124999931},{"name":"B1","midi":35,"time":138.15107400000034,"velocity":0.9291338582677166,"duration":0.12184857500000135},{"name":"F#2","midi":42,"time":138.15107400000034,"velocity":0.8110236220472441,"duration":0.1743695124999931},{"name":"F#3","midi":54,"time":138.15107400000034,"velocity":0.8110236220472441,"duration":0.1743695124999931},{"name":"F#2","midi":42,"time":138.40317450000032,"velocity":0.7322834645669292,"duration":0.1743695124999931},{"name":"G#3","midi":56,"time":138.40317450000032,"velocity":0.8582677165354331,"duration":0.12184857500000135},{"name":"F#2","midi":42,"time":138.40317450000032,"velocity":0.8110236220472441,"duration":0.1743695124999931},{"name":"F#3","midi":54,"time":138.40317450000032,"velocity":0.8110236220472441,"duration":0.1743695124999931},{"name":"F#1","midi":30,"time":138.6552750000003,"velocity":0.7322834645669292,"duration":0.1743695124999931},{"name":"G#3","midi":56,"time":138.6552750000003,"velocity":0.8582677165354331,"duration":0.12184857500000135},{"name":"B1","midi":35,"time":138.6552750000003,"velocity":0.9291338582677166,"duration":0.12184857500000135},{"name":"D2","midi":38,"time":138.6552750000003,"velocity":0.9291338582677166,"duration":0.12184857500000135},{"name":"D#2","midi":39,"time":138.6552750000003,"velocity":0.9291338582677166,"duration":0.12184857500000135},{"name":"F#1","midi":30,"time":138.6552750000003,"velocity":0.8110236220472441,"duration":0.1743695124999931},{"name":"F#2","midi":42,"time":138.6552750000003,"velocity":0.8110236220472441,"duration":0.1743695124999931},{"name":"F#1","midi":30,"time":138.90737550000028,"velocity":0.7322834645669292,"duration":0.1743695124999931},{"name":"G#3","midi":56,"time":138.90737550000028,"velocity":0.8582677165354331,"duration":0.12184857500000135},{"name":"F#1","midi":30,"time":138.90737550000028,"velocity":0.8110236220472441,"duration":0.1743695124999931},{"name":"F#2","midi":42,"time":138.90737550000028,"velocity":0.8110236220472441,"duration":0.1743695124999931},{"name":"G#2","midi":44,"time":139.15947600000027,"velocity":0.7322834645669292,"duration":0.1743695124999931},{"name":"G#3","midi":56,"time":139.15947600000027,"velocity":0.8582677165354331,"duration":0.1743695124999931},{"name":"G#3","midi":56,"time":139.15947600000027,"velocity":0.8976377952755905,"duration":0.37394907500001295},{"name":"B1","midi":35,"time":139.15947600000027,"velocity":0.9291338582677166,"duration":0.12184857499997293},{"name":"G#2","midi":44,"time":139.15947600000027,"velocity":0.8110236220472441,"duration":0.1743695124999931},{"name":"G#3","midi":56,"time":139.15947600000027,"velocity":0.8110236220472441,"duration":0.4264700125000047},{"name":"G#4","midi":68,"time":139.15947600000027,"velocity":0.968503937007874,"duration":0.44012545625000143},{"name":"G#2","midi":44,"time":139.41157650000028,"velocity":0.7322834645669292,"duration":0.1743695124999931},{"name":"G#2","midi":44,"time":139.41157650000028,"velocity":0.8110236220472441,"duration":0.1743695124999931},{"name":"G#3","midi":56,"time":139.41157650000028,"velocity":0.8110236220472441,"duration":0.45903299374998596},{"name":"G#1","midi":32,"time":139.66367700000026,"velocity":0.7322834645669292,"duration":0.1743695124999931},{"name":"B1","midi":35,"time":139.66367700000026,"velocity":0.9291338582677166,"duration":0.12184857499997293},{"name":"D2","midi":38,"time":139.66367700000026,"velocity":0.9291338582677166,"duration":0.12184857499997293},{"name":"D#2","midi":39,"time":139.66367700000026,"velocity":0.9291338582677166,"duration":0.12184857499997293},{"name":"G#1","midi":32,"time":139.66367700000026,"velocity":0.8110236220472441,"duration":0.1743695124999931},{"name":"G#2","midi":44,"time":139.66367700000026,"velocity":0.8110236220472441,"duration":0.1743695124999931},{"name":"G#4","midi":68,"time":139.66367700000026,"velocity":0.968503937007874,"duration":0.4359237812500396},{"name":"G#1","midi":32,"time":139.91577750000027,"velocity":0.7322834645669292,"duration":0.17436951250002153},{"name":"D#4","midi":63,"time":139.91577750000027,"velocity":0.8976377952755905,"duration":0.26470552500001077},{"name":"G#1","midi":32,"time":139.91577750000027,"velocity":0.8110236220472441,"duration":0.17436951250002153},{"name":"G#2","midi":44,"time":139.91577750000027,"velocity":0.8110236220472441,"duration":0.17436951250002153},{"name":"D#2","midi":39,"time":140.1678780000003,"velocity":0.7322834645669292,"duration":0.1743695124999931},{"name":"D4","midi":62,"time":140.1678780000003,"velocity":0.7952755905511811,"duration":0.47689011250000135},{"name":"B1","midi":35,"time":140.1678780000003,"velocity":0.9291338582677166,"duration":0.12184857499997293},{"name":"D#2","midi":39,"time":140.1678780000003,"velocity":0.8110236220472441,"duration":0.1743695124999931},{"name":"D#3","midi":51,"time":140.1678780000003,"velocity":0.8110236220472441,"duration":0.1743695124999931},{"name":"D#2","midi":39,"time":140.4199785000003,"velocity":0.7322834645669292,"duration":0.1743695124999931},{"name":"D#2","midi":39,"time":140.4199785000003,"velocity":0.8110236220472441,"duration":0.1743695124999931},{"name":"D#3","midi":51,"time":140.4199785000003,"velocity":0.8110236220472441,"duration":0.1743695124999931},{"name":"G#1","midi":32,"time":140.67207900000028,"velocity":0.7322834645669292,"duration":0.1743695124999931},{"name":"B3","midi":59,"time":140.67207900000028,"velocity":0.8346456692913385,"duration":0.49999932500000455},{"name":"B1","midi":35,"time":140.67207900000028,"velocity":0.9291338582677166,"duration":0.12184857499997293},{"name":"D2","midi":38,"time":140.67207900000028,"velocity":0.9291338582677166,"duration":0.12184857499997293},{"name":"D#2","midi":39,"time":140.67207900000028,"velocity":0.9291338582677166,"duration":0.12184857499997293},{"name":"G#1","midi":32,"time":140.67207900000028,"velocity":0.8110236220472441,"duration":0.1743695124999931},{"name":"G#2","midi":44,"time":140.67207900000028,"velocity":0.8110236220472441,"duration":0.1743695124999931},{"name":"G#1","midi":32,"time":140.9241795000003,"velocity":0.7322834645669292,"duration":0.1743695124999931},{"name":"G#1","midi":32,"time":140.9241795000003,"velocity":0.8110236220472441,"duration":0.1743695124999931},{"name":"G#2","midi":44,"time":140.9241795000003,"velocity":0.8110236220472441,"duration":0.1743695124999931},{"name":"G#2","midi":44,"time":141.17628000000028,"velocity":0.7322834645669292,"duration":0.1743695124999931},{"name":"G#3","midi":56,"time":141.17628000000028,"velocity":0.8976377952755905,"duration":0.1743695124999931},{"name":"B1","midi":35,"time":141.17628000000028,"velocity":0.9291338582677166,"duration":0.12184857499997293},{"name":"G#2","midi":44,"time":141.17628000000028,"velocity":0.8110236220472441,"duration":0.1743695124999931},{"name":"G#3","midi":56,"time":141.17628000000028,"velocity":0.8110236220472441,"duration":0.4264700125000047},{"name":"G#2","midi":44,"time":141.4283805000003,"velocity":0.7322834645669292,"duration":0.1743695124999931},{"name":"G#2","midi":44,"time":141.4283805000003,"velocity":0.8110236220472441,"duration":0.1743695124999931},{"name":"G#3","midi":56,"time":141.4283805000003,"velocity":0.8110236220472441,"duration":0.4663859249999689},{"name":"E2","midi":40,"time":141.68048100000027,"velocity":0.7322834645669292,"duration":0.171218256249972},{"name":"B1","midi":35,"time":141.68048100000027,"velocity":0.9291338582677166,"duration":0.12184857499997293},{"name":"D2","midi":38,"time":141.68048100000027,"velocity":0.9291338582677166,"duration":0.12184857499997293},{"name":"D#2","midi":39,"time":141.68048100000027,"velocity":0.9291338582677166,"duration":0.12184857499997293},{"name":"E2","midi":40,"time":141.68048100000027,"velocity":0.8110236220472441,"duration":0.171218256249972},{"name":"E3","midi":52,"time":141.68048100000027,"velocity":0.8110236220472441,"duration":0.171218256249972},{"name":"B1","midi":35,"time":141.93258150000025,"velocity":0.7322834645669292,"duration":0.17121825625000042},{"name":"D#4","midi":63,"time":141.93258150000025,"velocity":0.8976377952755905,"duration":0.22373919374999218},{"name":"B1","midi":35,"time":141.93258150000025,"velocity":0.8110236220472441,"duration":0.17121825625000042},{"name":"B2","midi":47,"time":141.93258150000025,"velocity":0.8110236220472441,"duration":0.17121825625000042},{"name":"F#2","midi":42,"time":142.18468200000024,"velocity":0.7322834645669292,"duration":0.1743695124999931},{"name":"D4","midi":62,"time":142.18468200000024,"velocity":0.7637795275590551,"duration":0.23319296249999866},{"name":"B1","midi":35,"time":142.18468200000024,"velocity":0.9291338582677166,"duration":0.12184857499997293},{"name":"F#2","midi":42,"time":142.18468200000024,"velocity":0.8110236220472441,"duration":0.1743695124999931},{"name":"F#3","midi":54,"time":142.18468200000024,"velocity":0.8110236220472441,"duration":0.1743695124999931},{"name":"F#2","midi":42,"time":142.43678250000025,"velocity":0.7322834645669292,"duration":0.1743695124999931},{"name":"D#4","midi":63,"time":142.43678250000025,"velocity":0.8976377952755905,"duration":0.23424338124999622},{"name":"F#2","midi":42,"time":142.43678250000025,"velocity":0.8110236220472441,"duration":0.1743695124999931},{"name":"F#3","midi":54,"time":142.43678250000025,"velocity":0.8110236220472441,"duration":0.1743695124999931},{"name":"F#1","midi":30,"time":142.68888300000023,"velocity":0.7322834645669292,"duration":0.1743695124999931},{"name":"D4","midi":62,"time":142.68888300000023,"velocity":0.8346456692913385,"duration":0.2657559437500083},{"name":"B1","midi":35,"time":142.68888300000023,"velocity":0.9291338582677166,"duration":0.12184857499997293},{"name":"D2","midi":38,"time":142.68888300000023,"velocity":0.9291338582677166,"duration":0.12184857499997293},{"name":"D#2","midi":39,"time":142.68888300000023,"velocity":0.9291338582677166,"duration":0.12184857499997293},{"name":"F#1","midi":30,"time":142.68888300000023,"velocity":0.8110236220472441,"duration":0.1743695124999931},{"name":"F#2","midi":42,"time":142.68888300000023,"velocity":0.8110236220472441,"duration":0.1743695124999931},{"name":"F#1","midi":30,"time":142.94098350000024,"velocity":0.7322834645669292,"duration":0.1743695124999931},{"name":"F#3","midi":54,"time":142.94098350000024,"velocity":0.8346456692913385,"duration":0.2657559437499799},{"name":"F#1","midi":30,"time":142.94098350000024,"velocity":0.8110236220472441,"duration":0.1743695124999931},{"name":"F#2","midi":42,"time":142.94098350000024,"velocity":0.8110236220472441,"duration":0.1743695124999931},{"name":"G#2","midi":44,"time":143.19308400000023,"velocity":0.7322834645669292,"duration":0.1743695124999931},{"name":"G#3","midi":56,"time":143.19308400000023,"velocity":0.8976377952755905,"duration":0.1743695124999931},{"name":"G#4","midi":68,"time":143.19308400000023,"velocity":0.9133858267716536,"duration":0.7111334937499976},{"name":"B1","midi":35,"time":143.19308400000023,"velocity":0.9291338582677166,"duration":0.12184857499997293},{"name":"G#2","midi":44,"time":143.19308400000023,"velocity":0.8110236220472441,"duration":0.1743695124999931},{"name":"G#3","midi":56,"time":143.19308400000023,"velocity":0.8110236220472441,"duration":0.4264700125000047},{"name":"G#2","midi":44,"time":143.44518450000024,"velocity":0.7322834645669292,"duration":0.1743695124999931},{"name":"G#2","midi":44,"time":143.44518450000024,"velocity":0.8110236220472441,"duration":0.1743695124999931},{"name":"G#3","midi":56,"time":143.44518450000024,"velocity":0.8110236220472441,"duration":0.45903299374998596},{"name":"G#1","midi":32,"time":143.69728500000022,"velocity":0.7322834645669292,"duration":0.1743695124999931},{"name":"B1","midi":35,"time":143.69728500000022,"velocity":0.9291338582677166,"duration":0.12184857499997293},{"name":"D2","midi":38,"time":143.69728500000022,"velocity":0.9291338582677166,"duration":0.12184857499997293},{"name":"D#2","midi":39,"time":143.69728500000022,"velocity":0.9291338582677166,"duration":0.12184857499997293},{"name":"G#1","midi":32,"time":143.69728500000022,"velocity":0.8110236220472441,"duration":0.1743695124999931},{"name":"G#2","midi":44,"time":143.69728500000022,"velocity":0.8110236220472441,"duration":0.1743695124999931},{"name":"G#1","midi":32,"time":143.94938550000023,"velocity":0.7322834645669292,"duration":0.1743695124999931},{"name":"D#4","midi":63,"time":143.94938550000023,"velocity":0.8976377952755905,"duration":0.24789882499999294},{"name":"D#5","midi":75,"time":143.94938550000023,"velocity":0.9133858267716536,"duration":0.26470552499998234},{"name":"G#1","midi":32,"time":143.94938550000023,"velocity":0.8110236220472441,"duration":0.1743695124999931},{"name":"G#2","midi":44,"time":143.94938550000023,"velocity":0.8110236220472441,"duration":0.1743695124999931},{"name":"D#2","midi":39,"time":144.20148600000022,"velocity":0.7322834645669292,"duration":0.1743695124999931},{"name":"D4","midi":62,"time":144.20148600000022,"velocity":0.7952755905511811,"duration":0.47689011250000135},{"name":"D5","midi":74,"time":144.20148600000022,"velocity":0.8110236220472441,"duration":0.47689011250000135},{"name":"B1","midi":35,"time":144.20148600000022,"velocity":0.9291338582677166,"duration":0.12184857499997293},{"name":"D#2","midi":39,"time":144.20148600000022,"velocity":0.8110236220472441,"duration":0.1743695124999931},{"name":"D#3","midi":51,"time":144.20148600000022,"velocity":0.8110236220472441,"duration":0.1743695124999931},{"name":"D#2","midi":39,"time":144.45358650000023,"velocity":0.7322834645669292,"duration":0.1743695124999931},{"name":"D#2","midi":39,"time":144.45358650000023,"velocity":0.8110236220472441,"duration":0.1743695124999931},{"name":"D#3","midi":51,"time":144.45358650000023,"velocity":0.8110236220472441,"duration":0.1743695124999931},{"name":"G#1","midi":32,"time":144.7056870000002,"velocity":0.7322834645669292,"duration":0.1743695124999931},{"name":"B3","midi":59,"time":144.7056870000002,"velocity":0.8346456692913385,"duration":0.49999932500000455},{"name":"B4","midi":71,"time":144.7056870000002,"velocity":0.8503937007874016,"duration":0.49999932500000455},{"name":"B1","midi":35,"time":144.7056870000002,"velocity":0.9291338582677166,"duration":0.12184857499997293},{"name":"D2","midi":38,"time":144.7056870000002,"velocity":0.9291338582677166,"duration":0.12184857499997293},{"name":"D#2","midi":39,"time":144.7056870000002,"velocity":0.9291338582677166,"duration":0.12184857499997293},{"name":"G#1","midi":32,"time":144.7056870000002,"velocity":0.8110236220472441,"duration":0.1743695124999931},{"name":"G#2","midi":44,"time":144.7056870000002,"velocity":0.8110236220472441,"duration":0.1743695124999931},{"name":"G#1","midi":32,"time":144.95778750000022,"velocity":0.7322834645669292,"duration":0.1743695124999931},{"name":"G#1","midi":32,"time":144.95778750000022,"velocity":0.8110236220472441,"duration":0.1743695124999931},{"name":"G#2","midi":44,"time":144.95778750000022,"velocity":0.8110236220472441,"duration":0.1743695124999931},{"name":"G#2","midi":44,"time":145.2098880000002,"velocity":0.7322834645669292,"duration":0.1743695124999931},{"name":"G#3","midi":56,"time":145.2098880000002,"velocity":0.8976377952755905,"duration":0.1743695124999931},{"name":"G#4","midi":68,"time":145.2098880000002,"velocity":0.9133858267716536,"duration":0.7184864249999805},{"name":"B1","midi":35,"time":145.2098880000002,"velocity":0.9291338582677166,"duration":0.12184857499997293},{"name":"G#2","midi":44,"time":145.2098880000002,"velocity":0.8110236220472441,"duration":0.1743695124999931},{"name":"G#3","midi":56,"time":145.2098880000002,"velocity":0.8110236220472441,"duration":0.4264700125000047},{"name":"G#2","midi":44,"time":145.46198850000022,"velocity":0.7322834645669292,"duration":0.1743695124999931},{"name":"G#2","midi":44,"time":145.46198850000022,"velocity":0.8110236220472441,"duration":0.1743695124999931},{"name":"G#3","midi":56,"time":145.46198850000022,"velocity":0.8110236220472441,"duration":0.4663859249999689},{"name":"E2","midi":40,"time":145.7140890000002,"velocity":0.7322834645669292,"duration":0.171218256249972},{"name":"B1","midi":35,"time":145.7140890000002,"velocity":0.9291338582677166,"duration":0.12184857499997293},{"name":"D2","midi":38,"time":145.7140890000002,"velocity":0.9291338582677166,"duration":0.12184857499997293},{"name":"D#2","midi":39,"time":145.7140890000002,"velocity":0.9291338582677166,"duration":0.12184857499997293},{"name":"E2","midi":40,"time":145.7140890000002,"velocity":0.8110236220472441,"duration":0.171218256249972},{"name":"E3","midi":52,"time":145.7140890000002,"velocity":0.8110236220472441,"duration":0.171218256249972},{"name":"B1","midi":35,"time":145.96618950000018,"velocity":0.7322834645669292,"duration":0.17121825625000042},{"name":"D#4","midi":63,"time":145.96618950000018,"velocity":0.8976377952755905,"duration":0.22373919374999218},{"name":"D#5","midi":75,"time":145.96618950000018,"velocity":0.9133858267716536,"duration":0.22373919374999218},{"name":"B1","midi":35,"time":145.96618950000018,"velocity":0.8110236220472441,"duration":0.17121825625000042},{"name":"B2","midi":47,"time":145.96618950000018,"velocity":0.8110236220472441,"duration":0.17121825625000042},{"name":"F#2","midi":42,"time":146.21829000000017,"velocity":0.7322834645669292,"duration":0.1743695124999931},{"name":"D4","midi":62,"time":146.21829000000017,"velocity":0.7637795275590551,"duration":0.23319296249999866},{"name":"D5","midi":74,"time":146.21829000000017,"velocity":0.7795275590551181,"duration":0.23319296249999866},{"name":"B1","midi":35,"time":146.21829000000017,"velocity":0.9291338582677166,"duration":0.12184857499997293},{"name":"F#2","midi":42,"time":146.21829000000017,"velocity":0.8110236220472441,"duration":0.1743695124999931},{"name":"F#3","midi":54,"time":146.21829000000017,"velocity":0.8110236220472441,"duration":0.1743695124999931},{"name":"F#2","midi":42,"time":146.47039050000018,"velocity":0.7322834645669292,"duration":0.1743695124999931},{"name":"D#4","midi":63,"time":146.47039050000018,"velocity":0.8976377952755905,"duration":0.23424338124999622},{"name":"D#5","midi":75,"time":146.47039050000018,"velocity":0.9133858267716536,"duration":0.23424338124999622},{"name":"F#2","midi":42,"time":146.47039050000018,"velocity":0.8110236220472441,"duration":0.1743695124999931},{"name":"F#3","midi":54,"time":146.47039050000018,"velocity":0.8110236220472441,"duration":0.1743695124999931},{"name":"F#1","midi":30,"time":146.72249100000016,"velocity":0.7322834645669292,"duration":0.17436951249996469},{"name":"D#5","midi":75,"time":146.72249100000016,"velocity":0.8503937007874016,"duration":0.15861323124997284},{"name":"D4","midi":62,"time":146.72249100000016,"velocity":0.8346456692913385,"duration":0.24789882499996452},{"name":"D5","midi":74,"time":146.72249100000016,"velocity":0.8503937007874016,"duration":0.2657559437499515},{"name":"B1","midi":35,"time":146.72249100000016,"velocity":0.9291338582677166,"duration":0.12184857499997293},{"name":"D2","midi":38,"time":146.72249100000016,"velocity":0.9291338582677166,"duration":0.12184857499997293},{"name":"D#2","midi":39,"time":146.72249100000016,"velocity":0.9291338582677166,"duration":0.12184857499997293},{"name":"F#1","midi":30,"time":146.72249100000016,"velocity":0.8110236220472441,"duration":0.17436951249996469},{"name":"F#2","midi":42,"time":146.72249100000016,"velocity":0.8110236220472441,"duration":0.17436951249996469},{"name":"F#1","midi":30,"time":146.97459150000012,"velocity":0.7322834645669292,"duration":0.1743695124999931},{"name":"D#5","midi":75,"time":146.97459150000012,"velocity":0.7559055118110236,"duration":0.24369714999997427},{"name":"F#3","midi":54,"time":146.97459150000012,"velocity":0.8346456692913385,"duration":0.24789882499996452},{"name":"F#4","midi":66,"time":146.97459150000012,"velocity":0.8503937007874016,"duration":0.2657559437499515},{"name":"F#1","midi":30,"time":146.97459150000012,"velocity":0.8110236220472441,"duration":0.1743695124999931},{"name":"F#2","midi":42,"time":146.97459150000012,"velocity":0.8110236220472441,"duration":0.1743695124999931},{"name":"G#2","midi":44,"time":147.22669200000007,"velocity":0.7322834645669292,"duration":0.1743695124999931},{"name":"G#5","midi":80,"time":147.22669200000007,"velocity":0.7952755905511811,"duration":0.11134438749996889},{"name":"G#3","midi":56,"time":147.22669200000007,"velocity":0.8976377952755905,"duration":0.1743695124999931},{"name":"B1","midi":35,"time":147.22669200000007,"velocity":0.9291338582677166,"duration":0.12184857499997293},{"name":"G#2","midi":44,"time":147.22669200000007,"velocity":0.8110236220472441,"duration":0.1743695124999931},{"name":"G#3","midi":56,"time":147.22669200000007,"velocity":0.8110236220472441,"duration":0.4264700125000047},{"name":"G#4","midi":68,"time":147.22669200000007,"velocity":0.968503937007874,"duration":0.44012545625000143},{"name":"G#2","midi":44,"time":147.47879250000008,"velocity":0.7322834645669292,"duration":0.1743695124999931},{"name":"G#5","midi":80,"time":147.47879250000008,"velocity":0.7559055118110236,"duration":0.2142854249999857},{"name":"G#2","midi":44,"time":147.47879250000008,"velocity":0.8110236220472441,"duration":0.1743695124999931},{"name":"G#3","midi":56,"time":147.47879250000008,"velocity":0.8110236220472441,"duration":0.45903299374998596},{"name":"G#1","midi":32,"time":147.73089300000007,"velocity":0.7322834645669292,"duration":0.1743695124999931},{"name":"F#5","midi":78,"time":147.73089300000007,"velocity":0.8503937007874016,"duration":0.11344522499996401},{"name":"B1","midi":35,"time":147.73089300000007,"velocity":0.9291338582677166,"duration":0.12184857499997293},{"name":"D2","midi":38,"time":147.73089300000007,"velocity":0.9291338582677166,"duration":0.12184857499997293},{"name":"D#2","midi":39,"time":147.73089300000007,"velocity":0.9291338582677166,"duration":0.12184857499997293},{"name":"G#1","midi":32,"time":147.73089300000007,"velocity":0.8110236220472441,"duration":0.1743695124999931},{"name":"G#2","midi":44,"time":147.73089300000007,"velocity":0.8110236220472441,"duration":0.1743695124999931},{"name":"G#4","midi":68,"time":147.73089300000007,"velocity":0.968503937007874,"duration":0.4359237812500396},{"name":"G#1","midi":32,"time":147.98299350000008,"velocity":0.7322834645669292,"duration":0.17436951250002153},{"name":"F#5","midi":78,"time":147.98299350000008,"velocity":0.8503937007874016,"duration":0.19642830625002716},{"name":"D#4","midi":63,"time":147.98299350000008,"velocity":0.8976377952755905,"duration":0.26470552500001077},{"name":"G#1","midi":32,"time":147.98299350000008,"velocity":0.8110236220472441,"duration":0.17436951250002153},{"name":"G#2","midi":44,"time":147.98299350000008,"velocity":0.8110236220472441,"duration":0.17436951250002153},{"name":"D#2","midi":39,"time":148.2350940000001,"velocity":0.7322834645669292,"duration":0.17436951249996469},{"name":"D#5","midi":75,"time":148.2350940000001,"velocity":0.8503937007874016,"duration":0.171218256249972},{"name":"D4","midi":62,"time":148.2350940000001,"velocity":0.7952755905511811,"duration":0.47689011249997293},{"name":"B1","midi":35,"time":148.2350940000001,"velocity":0.9291338582677166,"duration":0.12184857499997293},{"name":"D#2","midi":39,"time":148.2350940000001,"velocity":0.8110236220472441,"duration":0.17436951249996469},{"name":"D#3","midi":51,"time":148.2350940000001,"velocity":0.8110236220472441,"duration":0.17436951249996469},{"name":"D#2","midi":39,"time":148.48719450000007,"velocity":0.7322834645669292,"duration":0.1743695124999931},{"name":"G#4","midi":68,"time":148.48719450000007,"velocity":0.7952755905511811,"duration":0.24474756874997183},{"name":"D#2","midi":39,"time":148.48719450000007,"velocity":0.8110236220472441,"duration":0.1743695124999931},{"name":"D#3","midi":51,"time":148.48719450000007,"velocity":0.8110236220472441,"duration":0.1743695124999931},{"name":"G#1","midi":32,"time":148.73929500000006,"velocity":0.7322834645669292,"duration":0.17436951249996469},{"name":"D#5","midi":75,"time":148.73929500000006,"velocity":0.8503937007874016,"duration":0.171218256249972},{"name":"B3","midi":59,"time":148.73929500000006,"velocity":0.8346456692913385,"duration":0.4999993249999761},{"name":"B1","midi":35,"time":148.73929500000006,"velocity":0.9291338582677166,"duration":0.12184857499997293},{"name":"D2","midi":38,"time":148.73929500000006,"velocity":0.9291338582677166,"duration":0.12184857499997293},{"name":"D#2","midi":39,"time":148.73929500000006,"velocity":0.9291338582677166,"duration":0.12184857499997293},{"name":"G#1","midi":32,"time":148.73929500000006,"velocity":0.8110236220472441,"duration":0.17436951249996469},{"name":"G#2","midi":44,"time":148.73929500000006,"velocity":0.8110236220472441,"duration":0.17436951249996469},{"name":"G#1","midi":32,"time":148.99139550000004,"velocity":0.7322834645669292,"duration":0.1743695124999931},{"name":"F#5","midi":78,"time":148.99139550000004,"velocity":0.8503937007874016,"duration":0.19642830624999874},{"name":"G#1","midi":32,"time":148.99139550000004,"velocity":0.8110236220472441,"duration":0.1743695124999931},{"name":"G#2","midi":44,"time":148.99139550000004,"velocity":0.8110236220472441,"duration":0.1743695124999931},{"name":"G#2","midi":44,"time":149.24349600000002,"velocity":0.7322834645669292,"duration":0.17436951249996469},{"name":"D#5","midi":75,"time":149.24349600000002,"velocity":0.8503937007874016,"duration":0.171218256249972},{"name":"G#3","midi":56,"time":149.24349600000002,"velocity":0.8976377952755905,"duration":0.17436951249996469},{"name":"B1","midi":35,"time":149.24349600000002,"velocity":0.9291338582677166,"duration":0.12184857499997293},{"name":"G#2","midi":44,"time":149.24349600000002,"velocity":0.8110236220472441,"duration":0.17436951249996469},{"name":"G#3","midi":56,"time":149.24349600000002,"velocity":0.8110236220472441,"duration":0.4264700124999763},{"name":"G#2","midi":44,"time":149.4955965,"velocity":0.7322834645669292,"duration":0.1743695124999931},{"name":"G#4","midi":68,"time":149.4955965,"velocity":0.7952755905511811,"duration":0.24474756874997183},{"name":"G#2","midi":44,"time":149.4955965,"velocity":0.8110236220472441,"duration":0.1743695124999931},{"name":"G#3","midi":56,"time":149.4955965,"velocity":0.8110236220472441,"duration":0.4663859249999689},{"name":"E2","midi":40,"time":149.747697,"velocity":0.7322834645669292,"duration":0.171218256249972},{"name":"D#5","midi":75,"time":149.747697,"velocity":0.8503937007874016,"duration":0.171218256249972},{"name":"B1","midi":35,"time":149.747697,"velocity":0.9291338582677166,"duration":0.12184857499997293},{"name":"D2","midi":38,"time":149.747697,"velocity":0.9291338582677166,"duration":0.12184857499997293},{"name":"D#2","midi":39,"time":149.747697,"velocity":0.9291338582677166,"duration":0.12184857499997293},{"name":"E2","midi":40,"time":149.747697,"velocity":0.8110236220472441,"duration":0.171218256249972},{"name":"E3","midi":52,"time":149.747697,"velocity":0.8110236220472441,"duration":0.171218256249972},{"name":"B1","midi":35,"time":149.99979749999997,"velocity":0.7322834645669292,"duration":0.17121825625000042},{"name":"D#5","midi":75,"time":149.99979749999997,"velocity":0.8503937007874016,"duration":0.17121825625000042},{"name":"D#4","midi":63,"time":149.99979749999997,"velocity":0.8976377952755905,"duration":0.22373919374999218},{"name":"B1","midi":35,"time":149.99979749999997,"velocity":0.8110236220472441,"duration":0.17121825625000042},{"name":"B2","midi":47,"time":149.99979749999997,"velocity":0.8110236220472441,"duration":0.17121825625000042},{"name":"F#2","midi":42,"time":150.25189799999995,"velocity":0.7322834645669292,"duration":0.17436951249996469},{"name":"D#5","midi":75,"time":150.25189799999995,"velocity":0.8503937007874016,"duration":0.171218256249972},{"name":"D4","midi":62,"time":150.25189799999995,"velocity":0.7637795275590551,"duration":0.23319296249997024},{"name":"B1","midi":35,"time":150.25189799999995,"velocity":0.9291338582677166,"duration":0.12184857499997293},{"name":"F#2","midi":42,"time":150.25189799999995,"velocity":0.8110236220472441,"duration":0.17436951249996469},{"name":"F#3","midi":54,"time":150.25189799999995,"velocity":0.8110236220472441,"duration":0.17436951249996469},{"name":"F#2","midi":42,"time":150.50399849999994,"velocity":0.7322834645669292,"duration":0.1743695124999931},{"name":"F#5","midi":78,"time":150.50399849999994,"velocity":0.8503937007874016,"duration":0.17121825625000042},{"name":"D#4","midi":63,"time":150.50399849999994,"velocity":0.8976377952755905,"duration":0.23424338124999622},{"name":"F#2","midi":42,"time":150.50399849999994,"velocity":0.8110236220472441,"duration":0.1743695124999931},{"name":"F#3","midi":54,"time":150.50399849999994,"velocity":0.8110236220472441,"duration":0.1743695124999931},{"name":"F#1","midi":30,"time":150.75609899999992,"velocity":0.7322834645669292,"duration":0.1743695124999931},{"name":"D#5","midi":75,"time":150.75609899999992,"velocity":0.7952755905511811,"duration":0.0913864312499868},{"name":"D4","midi":62,"time":150.75609899999992,"velocity":0.8346456692913385,"duration":0.2657559437500083},{"name":"B1","midi":35,"time":150.75609899999992,"velocity":0.9291338582677166,"duration":0.12184857499997293},{"name":"D2","midi":38,"time":150.75609899999992,"velocity":0.9291338582677166,"duration":0.12184857499997293},{"name":"D#2","midi":39,"time":150.75609899999992,"velocity":0.9291338582677166,"duration":0.12184857499997293},{"name":"F#1","midi":30,"time":150.75609899999992,"velocity":0.8110236220472441,"duration":0.1743695124999931},{"name":"F#2","midi":42,"time":150.75609899999992,"velocity":0.8110236220472441,"duration":0.1743695124999931},{"name":"F#1","midi":30,"time":151.00819949999993,"velocity":0.7322834645669292,"duration":0.1743695124999931},{"name":"D#5","midi":75,"time":151.00819949999993,"velocity":0.7952755905511811,"duration":0.09138643125001522},{"name":"F#3","midi":54,"time":151.00819949999993,"velocity":0.8346456692913385,"duration":0.2657559437499799},{"name":"F#1","midi":30,"time":151.00819949999993,"velocity":0.8110236220472441,"duration":0.1743695124999931},{"name":"F#2","midi":42,"time":151.00819949999993,"velocity":0.8110236220472441,"duration":0.1743695124999931},{"name":"G#2","midi":44,"time":151.26029999999992,"velocity":0.7322834645669292,"duration":0.1743695124999931},{"name":"D#5","midi":75,"time":151.26029999999992,"velocity":0.7952755905511811,"duration":0.19537788750000118},{"name":"G#3","midi":56,"time":151.26029999999992,"velocity":0.8976377952755905,"duration":0.1743695124999931},{"name":"G#4","midi":68,"time":151.26029999999992,"velocity":0.9133858267716536,"duration":0.48214220624998916},{"name":"B1","midi":35,"time":151.26029999999992,"velocity":0.9291338582677166,"duration":0.12184857499997293},{"name":"G#2","midi":44,"time":151.26029999999992,"velocity":0.8110236220472441,"duration":0.1743695124999931},{"name":"G#3","midi":56,"time":151.26029999999992,"velocity":0.8110236220472441,"duration":0.4264700125000047},{"name":"G#2","midi":44,"time":151.51240049999993,"velocity":0.7322834645669292,"duration":0.1743695124999931},{"name":"G#4","midi":68,"time":151.51240049999993,"velocity":0.7952755905511811,"duration":0.45903299374998596},{"name":"G#2","midi":44,"time":151.51240049999993,"velocity":0.8110236220472441,"duration":0.1743695124999931},{"name":"G#3","midi":56,"time":151.51240049999993,"velocity":0.8110236220472441,"duration":0.45903299374998596},{"name":"G#1","midi":32,"time":151.7645009999999,"velocity":0.7322834645669292,"duration":0.1743695124999931},{"name":"D#5","midi":75,"time":151.7645009999999,"velocity":0.7559055118110236,"duration":0.2752097125000148},{"name":"B1","midi":35,"time":151.7645009999999,"velocity":0.9291338582677166,"duration":0.12184857499997293},{"name":"D2","midi":38,"time":151.7645009999999,"velocity":0.9291338582677166,"duration":0.12184857499997293},{"name":"D#2","midi":39,"time":151.7645009999999,"velocity":0.9291338582677166,"duration":0.12184857499997293},{"name":"G#1","midi":32,"time":151.7645009999999,"velocity":0.8110236220472441,"duration":0.1743695124999931},{"name":"G#2","midi":44,"time":151.7645009999999,"velocity":0.8110236220472441,"duration":0.1743695124999931},{"name":"G#1","midi":32,"time":152.01660149999992,"velocity":0.7322834645669292,"duration":0.1743695124999931},{"name":"G#5","midi":80,"time":152.01660149999992,"velocity":0.7086614173228346,"duration":0.0945376875000079},{"name":"D#4","midi":63,"time":152.01660149999992,"velocity":0.8976377952755905,"duration":0.24789882499999294},{"name":"D#5","midi":75,"time":152.01660149999992,"velocity":0.9133858267716536,"duration":0.26470552499998234},{"name":"G#1","midi":32,"time":152.01660149999992,"velocity":0.8110236220472441,"duration":0.1743695124999931},{"name":"G#2","midi":44,"time":152.01660149999992,"velocity":0.8110236220472441,"duration":0.1743695124999931},{"name":"D#2","midi":39,"time":152.2687019999999,"velocity":0.7322834645669292,"duration":0.1743695124999931},{"name":"D#5","midi":75,"time":152.2687019999999,"velocity":0.7559055118110236,"duration":0.2321425437500011},{"name":"D4","midi":62,"time":152.2687019999999,"velocity":0.7952755905511811,"duration":0.47689011250000135},{"name":"D5","midi":74,"time":152.2687019999999,"velocity":0.8110236220472441,"duration":0.47689011250000135},{"name":"B1","midi":35,"time":152.2687019999999,"velocity":0.9291338582677166,"duration":0.12184857499997293},{"name":"D#2","midi":39,"time":152.2687019999999,"velocity":0.8110236220472441,"duration":0.1743695124999931},{"name":"D#3","midi":51,"time":152.2687019999999,"velocity":0.8110236220472441,"duration":0.1743695124999931},{"name":"D#2","midi":39,"time":152.52080249999992,"velocity":0.7322834645669292,"duration":0.1743695124999931},{"name":"G#4","midi":68,"time":152.52080249999992,"velocity":0.8503937007874016,"duration":0.15651239375000614},{"name":"D#2","midi":39,"time":152.52080249999992,"velocity":0.8110236220472441,"duration":0.1743695124999931},{"name":"D#3","midi":51,"time":152.52080249999992,"velocity":0.8110236220472441,"duration":0.1743695124999931},{"name":"G#1","midi":32,"time":152.7729029999999,"velocity":0.7322834645669292,"duration":0.1743695124999931},{"name":"D#5","midi":75,"time":152.7729029999999,"velocity":0.7952755905511811,"duration":0.08193266249998032},{"name":"B3","midi":59,"time":152.7729029999999,"velocity":0.8346456692913385,"duration":0.49999932500000455},{"name":"B4","midi":71,"time":152.7729029999999,"velocity":0.8503937007874016,"duration":0.49999932500000455},{"name":"B1","midi":35,"time":152.7729029999999,"velocity":0.9291338582677166,"duration":0.12184857499997293},{"name":"D2","midi":38,"time":152.7729029999999,"velocity":0.9291338582677166,"duration":0.12184857499997293},{"name":"D#2","midi":39,"time":152.7729029999999,"velocity":0.9291338582677166,"duration":0.12184857499997293},{"name":"G#1","midi":32,"time":152.7729029999999,"velocity":0.8110236220472441,"duration":0.1743695124999931},{"name":"G#2","midi":44,"time":152.7729029999999,"velocity":0.8110236220472441,"duration":0.1743695124999931},{"name":"G#1","midi":32,"time":153.0250034999999,"velocity":0.7322834645669292,"duration":0.1743695124999931},{"name":"D#5","midi":75,"time":153.0250034999999,"velocity":0.7952755905511811,"duration":0.07563014999999496},{"name":"G#1","midi":32,"time":153.0250034999999,"velocity":0.8110236220472441,"duration":0.1743695124999931},{"name":"G#2","midi":44,"time":153.0250034999999,"velocity":0.8110236220472441,"duration":0.1743695124999931},{"name":"G#2","midi":44,"time":153.2771039999999,"velocity":0.7322834645669292,"duration":0.1743695124999931},{"name":"D#5","midi":75,"time":153.2771039999999,"velocity":0.8503937007874016,"duration":0.19852914374999386},{"name":"G#3","midi":56,"time":153.2771039999999,"velocity":0.8976377952755905,"duration":0.1743695124999931},{"name":"G#4","midi":68,"time":153.2771039999999,"velocity":0.9133858267716536,"duration":0.7184864250000089},{"name":"B1","midi":35,"time":153.2771039999999,"velocity":0.9291338582677166,"duration":0.12184857499997293},{"name":"G#2","midi":44,"time":153.2771039999999,"velocity":0.8110236220472441,"duration":0.1743695124999931},{"name":"G#3","midi":56,"time":153.2771039999999,"velocity":0.8110236220472441,"duration":0.42647001250003314},{"name":"G#2","midi":44,"time":153.5292044999999,"velocity":0.7322834645669292,"duration":0.17436951250002153},{"name":"F#5","midi":78,"time":153.5292044999999,"velocity":0.8503937007874016,"duration":0.11659648125001354},{"name":"G#2","midi":44,"time":153.5292044999999,"velocity":0.8110236220472441,"duration":0.17436951250002153},{"name":"G#3","midi":56,"time":153.5292044999999,"velocity":0.8110236220472441,"duration":0.4663859249999973},{"name":"E2","midi":40,"time":153.78130499999992,"velocity":0.7322834645669292,"duration":0.171218256249972},{"name":"D#5","midi":75,"time":153.78130499999992,"velocity":0.7952755905511811,"duration":0.23634421874996292},{"name":"B1","midi":35,"time":153.78130499999992,"velocity":0.9291338582677166,"duration":0.12184857499997293},{"name":"D2","midi":38,"time":153.78130499999992,"velocity":0.9291338582677166,"duration":0.12184857499997293},{"name":"D#2","midi":39,"time":153.78130499999992,"velocity":0.9291338582677166,"duration":0.12184857499997293},{"name":"E2","midi":40,"time":153.78130499999992,"velocity":0.8110236220472441,"duration":0.171218256249972},{"name":"E3","midi":52,"time":153.78130499999992,"velocity":0.8110236220472441,"duration":0.171218256249972},{"name":"B1","midi":35,"time":154.03340549999987,"velocity":0.7322834645669292,"duration":0.17121825625000042},{"name":"F#5","midi":78,"time":154.03340549999987,"velocity":0.7086614173228346,"duration":0.11239480624999487},{"name":"D#4","midi":63,"time":154.03340549999987,"velocity":0.8976377952755905,"duration":0.22373919374999218},{"name":"D#5","midi":75,"time":154.03340549999987,"velocity":0.9133858267716536,"duration":0.22373919374999218},{"name":"B1","midi":35,"time":154.03340549999987,"velocity":0.8110236220472441,"duration":0.17121825625000042},{"name":"B2","midi":47,"time":154.03340549999987,"velocity":0.8110236220472441,"duration":0.17121825625000042},{"name":"F#2","midi":42,"time":154.28550599999986,"velocity":0.7322834645669292,"duration":0.1743695124999931},{"name":"D#5","midi":75,"time":154.28550599999986,"velocity":0.7952755905511811,"duration":0.20483165624997923},{"name":"D4","midi":62,"time":154.28550599999986,"velocity":0.7637795275590551,"duration":0.23319296249997024},{"name":"D5","midi":74,"time":154.28550599999986,"velocity":0.7795275590551181,"duration":0.23319296249997024},{"name":"B1","midi":35,"time":154.28550599999986,"velocity":0.9291338582677166,"duration":0.12184857499997293},{"name":"F#2","midi":42,"time":154.28550599999986,"velocity":0.8110236220472441,"duration":0.1743695124999931},{"name":"F#3","midi":54,"time":154.28550599999986,"velocity":0.8110236220472441,"duration":0.1743695124999931},{"name":"F#2","midi":42,"time":154.53760649999984,"velocity":0.7322834645669292,"duration":0.17436951250002153},{"name":"F#5","midi":78,"time":154.53760649999984,"velocity":0.7086614173228346,"duration":0.11869731875000866},{"name":"D#4","midi":63,"time":154.53760649999984,"velocity":0.8976377952755905,"duration":0.23424338125002464},{"name":"D#5","midi":75,"time":154.53760649999984,"velocity":0.9133858267716536,"duration":0.23424338125002464},{"name":"F#2","midi":42,"time":154.53760649999984,"velocity":0.8110236220472441,"duration":0.17436951250002153},{"name":"F#3","midi":54,"time":154.53760649999984,"velocity":0.8110236220472441,"duration":0.17436951250002153},{"name":"F#1","midi":30,"time":154.78970699999985,"velocity":0.7322834645669292,"duration":0.1743695124999931},{"name":"D#5","midi":75,"time":154.78970699999985,"velocity":0.8503937007874016,"duration":0.2384450562500149},{"name":"D4","midi":62,"time":154.78970699999985,"velocity":0.8346456692913385,"duration":0.24789882500002136},{"name":"D5","midi":74,"time":154.78970699999985,"velocity":0.8503937007874016,"duration":0.2657559437500083},{"name":"B1","midi":35,"time":154.78970699999985,"velocity":0.9291338582677166,"duration":0.12184857499997293},{"name":"D2","midi":38,"time":154.78970699999985,"velocity":0.9291338582677166,"duration":0.12184857499997293},{"name":"D#2","midi":39,"time":154.78970699999985,"velocity":0.9291338582677166,"duration":0.12184857499997293},{"name":"F#1","midi":30,"time":154.78970699999985,"velocity":0.8110236220472441,"duration":0.1743695124999931},{"name":"F#2","midi":42,"time":154.78970699999985,"velocity":0.8110236220472441,"duration":0.1743695124999931},{"name":"F#1","midi":30,"time":155.04180749999986,"velocity":0.7322834645669292,"duration":0.1743695124999931},{"name":"F#5","midi":78,"time":155.04180749999986,"velocity":0.6456692913385826,"duration":0.20378123749998167},{"name":"F#3","midi":54,"time":155.04180749999986,"velocity":0.8346456692913385,"duration":0.24789882499999294},{"name":"F#4","midi":66,"time":155.04180749999986,"velocity":0.8503937007874016,"duration":0.2657559437499799},{"name":"F#1","midi":30,"time":155.04180749999986,"velocity":0.8110236220472441,"duration":0.1743695124999931},{"name":"F#2","midi":42,"time":155.04180749999986,"velocity":0.8110236220472441,"duration":0.1743695124999931},{"name":"G#2","midi":44,"time":155.29390799999985,"velocity":0.7322834645669292,"duration":0.1743695124999931},{"name":"G#3","midi":56,"time":155.29390799999985,"velocity":0.8976377952755905,"duration":0.1743695124999931},{"name":"B1","midi":35,"time":155.29390799999985,"velocity":0.9291338582677166,"duration":0.12184857499997293},{"name":"C#3","midi":49,"time":155.29390799999985,"velocity":0.7401574803149606,"duration":0.12184857499997293},{"name":"G#2","midi":44,"time":155.29390799999985,"velocity":0.8110236220472441,"duration":0.1743695124999931},{"name":"G#3","midi":56,"time":155.29390799999985,"velocity":0.8110236220472441,"duration":0.4264700124999763},{"name":"G#4","midi":68,"time":155.29390799999985,"velocity":0.968503937007874,"duration":0.440125456249973},{"name":"G#2","midi":44,"time":155.54600849999986,"velocity":0.7322834645669292,"duration":0.17436951249996469},{"name":"G#2","midi":44,"time":155.54600849999986,"velocity":0.8110236220472441,"duration":0.17436951249996469},{"name":"G#3","midi":56,"time":155.54600849999986,"velocity":0.8110236220472441,"duration":0.45903299374995754},{"name":"D#5","midi":75,"time":155.58697483124985,"velocity":0.7952755905511811,"duration":0.09033601249998924},{"name":"G#1","midi":32,"time":155.7981089999998,"velocity":0.7322834645669292,"duration":0.1743695124999931},{"name":"D#5","midi":75,"time":155.7981089999998,"velocity":0.7559055118110236,"duration":0.09558810624997705},{"name":"B1","midi":35,"time":155.7981089999998,"velocity":0.9291338582677166,"duration":0.12184857499997293},{"name":"D2","midi":38,"time":155.7981089999998,"velocity":0.9291338582677166,"duration":0.12184857499997293},{"name":"D#2","midi":39,"time":155.7981089999998,"velocity":0.9291338582677166,"duration":0.12184857499997293},{"name":"G#1","midi":32,"time":155.7981089999998,"velocity":0.8110236220472441,"duration":0.1743695124999931},{"name":"G#2","midi":44,"time":155.7981089999998,"velocity":0.8110236220472441,"duration":0.1743695124999931},{"name":"G#4","midi":68,"time":155.7981089999998,"velocity":0.968503937007874,"duration":0.4359237812500396},{"name":"G#1","midi":32,"time":156.05020949999982,"velocity":0.7322834645669292,"duration":0.17436951250002153},{"name":"D#5","midi":75,"time":156.05020949999982,"velocity":0.8503937007874016,"duration":0.21848710000000438},{"name":"D#4","midi":63,"time":156.05020949999982,"velocity":0.8976377952755905,"duration":0.26470552499998234},{"name":"G#1","midi":32,"time":156.05020949999982,"velocity":0.8110236220472441,"duration":0.17436951250002153},{"name":"G#2","midi":44,"time":156.05020949999982,"velocity":0.8110236220472441,"duration":0.17436951250002153},{"name":"D#2","midi":39,"time":156.3023099999998,"velocity":0.7322834645669292,"duration":0.1743695124999931},{"name":"G#5","midi":80,"time":156.3023099999998,"velocity":0.7559055118110236,"duration":0.09558810624997705},{"name":"D4","midi":62,"time":156.3023099999998,"velocity":0.7952755905511811,"duration":0.47689011250000135},{"name":"B1","midi":35,"time":156.3023099999998,"velocity":0.9291338582677166,"duration":0.12184857499997293},{"name":"D#2","midi":39,"time":156.3023099999998,"velocity":0.8110236220472441,"duration":0.1743695124999931},{"name":"D#3","midi":51,"time":156.3023099999998,"velocity":0.8110236220472441,"duration":0.1743695124999931},{"name":"D#2","midi":39,"time":156.55441049999982,"velocity":0.7322834645669292,"duration":0.1743695124999931},{"name":"G#5","midi":80,"time":156.55441049999982,"velocity":0.7559055118110236,"duration":0.1911762124999825},{"name":"D#2","midi":39,"time":156.55441049999982,"velocity":0.8110236220472441,"duration":0.1743695124999931},{"name":"D#3","midi":51,"time":156.55441049999982,"velocity":0.8110236220472441,"duration":0.1743695124999931},{"name":"G#1","midi":32,"time":156.8065109999998,"velocity":0.7322834645669292,"duration":0.1743695124999931},{"name":"F#5","midi":78,"time":156.8065109999998,"velocity":0.8503937007874016,"duration":0.09873936249996973},{"name":"B3","midi":59,"time":156.8065109999998,"velocity":0.8346456692913385,"duration":0.49999932500000455},{"name":"B1","midi":35,"time":156.8065109999998,"velocity":0.9291338582677166,"duration":0.12184857499997293},{"name":"D2","midi":38,"time":156.8065109999998,"velocity":0.9291338582677166,"duration":0.12184857499997293},{"name":"D#2","midi":39,"time":156.8065109999998,"velocity":0.9291338582677166,"duration":0.12184857499997293},{"name":"G#1","midi":32,"time":156.8065109999998,"velocity":0.8110236220472441,"duration":0.1743695124999931},{"name":"G#2","midi":44,"time":156.8065109999998,"velocity":0.8110236220472441,"duration":0.1743695124999931},{"name":"G#1","midi":32,"time":157.0586114999998,"velocity":0.7322834645669292,"duration":0.1743695124999931},{"name":"F#5","midi":78,"time":157.0586114999998,"velocity":0.8503937007874016,"duration":0.12184857500000135},{"name":"G#1","midi":32,"time":157.0586114999998,"velocity":0.8110236220472441,"duration":0.1743695124999931},{"name":"G#2","midi":44,"time":157.0586114999998,"velocity":0.8110236220472441,"duration":0.1743695124999931},{"name":"G#2","midi":44,"time":157.3107119999998,"velocity":0.7322834645669292,"duration":0.1743695124999931},{"name":"D#5","midi":75,"time":157.3107119999998,"velocity":0.7559055118110236,"duration":0.10084019999996485},{"name":"G#3","midi":56,"time":157.3107119999998,"velocity":0.8976377952755905,"duration":0.1743695124999931},{"name":"B1","midi":35,"time":157.3107119999998,"velocity":0.9291338582677166,"duration":0.12184857499997293},{"name":"G#2","midi":44,"time":157.3107119999998,"velocity":0.8110236220472441,"duration":0.1743695124999931},{"name":"G#3","midi":56,"time":157.3107119999998,"velocity":0.8110236220472441,"duration":0.4264700125000047},{"name":"G#2","midi":44,"time":157.5628124999998,"velocity":0.7322834645669292,"duration":0.1743695124999931},{"name":"D#5","midi":75,"time":157.5628124999998,"velocity":0.8503937007874016,"duration":0.08928559374999168},{"name":"G#2","midi":44,"time":157.5628124999998,"velocity":0.8110236220472441,"duration":0.1743695124999931},{"name":"G#3","midi":56,"time":157.5628124999998,"velocity":0.8110236220472441,"duration":0.4663859249999689},{"name":"E2","midi":40,"time":157.8149129999998,"velocity":0.7322834645669292,"duration":0.171218256249972},{"name":"D#5","midi":75,"time":157.8149129999998,"velocity":0.7952755905511811,"duration":0.0966385249999746},{"name":"B1","midi":35,"time":157.8149129999998,"velocity":0.9291338582677166,"duration":0.12184857499997293},{"name":"D2","midi":38,"time":157.8149129999998,"velocity":0.9291338582677166,"duration":0.12184857499997293},{"name":"D#2","midi":39,"time":157.8149129999998,"velocity":0.9291338582677166,"duration":0.12184857499997293},{"name":"E2","midi":40,"time":157.8149129999998,"velocity":0.8110236220472441,"duration":0.171218256249972},{"name":"E3","midi":52,"time":157.8149129999998,"velocity":0.8110236220472441,"duration":0.171218256249972},{"name":"B1","midi":35,"time":158.06701349999977,"velocity":0.7322834645669292,"duration":0.17121825625002884},{"name":"D#5","midi":75,"time":158.06701349999977,"velocity":0.8503937007874016,"duration":0.09033601250001766},{"name":"D#4","midi":63,"time":158.06701349999977,"velocity":0.8976377952755905,"duration":0.2237391937500206},{"name":"B1","midi":35,"time":158.06701349999977,"velocity":0.8110236220472441,"duration":0.17121825625002884},{"name":"B2","midi":47,"time":158.06701349999977,"velocity":0.8110236220472441,"duration":0.17121825625002884},{"name":"F#2","midi":42,"time":158.3191139999998,"velocity":0.7322834645669292,"duration":0.1743695124999931},{"name":"D#5","midi":75,"time":158.3191139999998,"velocity":0.7952755905511811,"duration":0.15546197499998016},{"name":"D4","midi":62,"time":158.3191139999998,"velocity":0.7637795275590551,"duration":0.23319296249999866},{"name":"B1","midi":35,"time":158.3191139999998,"velocity":0.9291338582677166,"duration":0.12184857499997293},{"name":"F#2","midi":42,"time":158.3191139999998,"velocity":0.8110236220472441,"duration":0.1743695124999931},{"name":"F#3","midi":54,"time":158.3191139999998,"velocity":0.8110236220472441,"duration":0.1743695124999931},{"name":"F#2","midi":42,"time":158.5712144999998,"velocity":0.7322834645669292,"duration":0.1743695124999931},{"name":"F#5","midi":78,"time":158.5712144999998,"velocity":0.8503937007874016,"duration":0.10714271250000706},{"name":"D#4","midi":63,"time":158.5712144999998,"velocity":0.8976377952755905,"duration":0.23424338124999622},{"name":"F#2","midi":42,"time":158.5712144999998,"velocity":0.8110236220472441,"duration":0.1743695124999931},{"name":"F#3","midi":54,"time":158.5712144999998,"velocity":0.8110236220472441,"duration":0.1743695124999931},{"name":"F#1","midi":30,"time":158.82331499999978,"velocity":0.7322834645669292,"duration":0.1743695124999931},{"name":"D#5","midi":75,"time":158.82331499999978,"velocity":0.8503937007874016,"duration":0.21218458749999058},{"name":"D4","midi":62,"time":158.82331499999978,"velocity":0.8346456692913385,"duration":0.2657559437500083},{"name":"B1","midi":35,"time":158.82331499999978,"velocity":0.9291338582677166,"duration":0.12184857499997293},{"name":"D2","midi":38,"time":158.82331499999978,"velocity":0.9291338582677166,"duration":0.12184857499997293},{"name":"D#2","midi":39,"time":158.82331499999978,"velocity":0.9291338582677166,"duration":0.12184857499997293},{"name":"F#1","midi":30,"time":158.82331499999978,"velocity":0.8110236220472441,"duration":0.1743695124999931},{"name":"F#2","midi":42,"time":158.82331499999978,"velocity":0.8110236220472441,"duration":0.1743695124999931},{"name":"F#1","midi":30,"time":159.0754154999998,"velocity":0.7322834645669292,"duration":0.1743695124999931},{"name":"F#5","midi":78,"time":159.0754154999998,"velocity":0.905511811023622,"duration":0.12184857500000135},{"name":"F#3","midi":54,"time":159.0754154999998,"velocity":0.8346456692913385,"duration":0.2657559437499799},{"name":"F#1","midi":30,"time":159.0754154999998,"velocity":0.8110236220472441,"duration":0.1743695124999931},{"name":"F#2","midi":42,"time":159.0754154999998,"velocity":0.8110236220472441,"duration":0.1743695124999931},{"name":"G#2","midi":44,"time":159.32751599999978,"velocity":0.7322834645669292,"duration":0.1743695124999931},{"name":"D#5","midi":75,"time":159.32751599999978,"velocity":0.7952755905511811,"duration":0.19957956249999143},{"name":"G#3","midi":56,"time":159.32751599999978,"velocity":0.8976377952755905,"duration":0.1743695124999931},{"name":"G#4","midi":68,"time":159.32751599999978,"velocity":0.9133858267716536,"duration":0.7111334937499691},{"name":"B1","midi":35,"time":159.32751599999978,"velocity":0.9291338582677166,"duration":0.12184857499997293},{"name":"G#3","midi":56,"time":159.32751599999978,"velocity":0.7244094488188977,"duration":0.24474756875000026},{"name":"G#2","midi":44,"time":159.32751599999978,"velocity":0.8110236220472441,"duration":0.1743695124999931},{"name":"G#3","midi":56,"time":159.32751599999978,"velocity":0.8110236220472441,"duration":0.4264700125000047},{"name":"G#2","midi":44,"time":159.5796164999998,"velocity":0.7322834645669292,"duration":0.1743695124999931},{"name":"C#5","midi":73,"time":159.5796164999998,"velocity":0.6456692913385826,"duration":0.22899128749998},{"name":"G#3","midi":56,"time":159.5796164999998,"velocity":0.7244094488188977,"duration":0.24474756874997183},{"name":"G#2","midi":44,"time":159.5796164999998,"velocity":0.8110236220472441,"duration":0.1743695124999931},{"name":"G#3","midi":56,"time":159.5796164999998,"velocity":0.8110236220472441,"duration":0.45903299374995754},{"name":"G#1","midi":32,"time":159.83171699999977,"velocity":0.7322834645669292,"duration":0.17436951249996469},{"name":"D#5","midi":75,"time":159.83171699999977,"velocity":0.8503937007874016,"duration":0.171218256249972},{"name":"B1","midi":35,"time":159.83171699999977,"velocity":0.9291338582677166,"duration":0.12184857499997293},{"name":"D2","midi":38,"time":159.83171699999977,"velocity":0.9291338582677166,"duration":0.12184857499997293},{"name":"D#2","midi":39,"time":159.83171699999977,"velocity":0.9291338582677166,"duration":0.12184857499997293},{"name":"G#2","midi":44,"time":159.83171699999977,"velocity":0.7244094488188977,"duration":0.17436951249996469},{"name":"G#1","midi":32,"time":159.83171699999977,"velocity":0.8110236220472441,"duration":0.17436951249996469},{"name":"G#2","midi":44,"time":159.83171699999977,"velocity":0.8110236220472441,"duration":0.24474756874997183},{"name":"G#1","midi":32,"time":160.08381749999975,"velocity":0.7322834645669292,"duration":0.17436951249996469},{"name":"D#4","midi":63,"time":160.08381749999975,"velocity":0.8976377952755905,"duration":0.2478988249999361},{"name":"D#5","midi":75,"time":160.08381749999975,"velocity":0.9133858267716536,"duration":0.0966385249999746},{"name":"G#2","midi":44,"time":160.08381749999975,"velocity":0.7244094488188977,"duration":0.17436951249996469},{"name":"G#1","midi":32,"time":160.08381749999975,"velocity":0.8110236220472441,"duration":0.17436951249996469},{"name":"G#2","midi":44,"time":160.08381749999975,"velocity":0.8110236220472441,"duration":0.2447475687499434},{"name":"D#5","midi":75,"time":160.10167461874974,"velocity":0.8503937007874016,"duration":0.24684840624993853},{"name":"D#2","midi":39,"time":160.33591799999968,"velocity":0.7322834645669292,"duration":0.1743695124999931},{"name":"D4","midi":62,"time":160.33591799999968,"velocity":0.7952755905511811,"duration":0.47689011249997293},{"name":"D5","midi":74,"time":160.33591799999968,"velocity":0.8110236220472441,"duration":0.47689011249997293},{"name":"B1","midi":35,"time":160.33591799999968,"velocity":0.9291338582677166,"duration":0.12184857499997293},{"name":"D#3","midi":51,"time":160.33591799999968,"velocity":0.7244094488188977,"duration":0.1743695124999931},{"name":"D#2","midi":39,"time":160.33591799999968,"velocity":0.8110236220472441,"duration":0.1743695124999931},{"name":"D#3","midi":51,"time":160.33591799999968,"velocity":0.8110236220472441,"duration":0.24474756875000026},{"name":"F#5","midi":78,"time":160.35377511874967,"velocity":0.8503937007874016,"duration":0.11554606249998756},{"name":"F#5","midi":78,"time":160.58381682499967,"velocity":0.8503937007874016,"duration":0.09978978124999571},{"name":"D#2","midi":39,"time":160.58801849999966,"velocity":0.7322834645669292,"duration":0.1743695124999931},{"name":"D#3","midi":51,"time":160.58801849999966,"velocity":0.7244094488188977,"duration":0.1743695124999931},{"name":"D#2","midi":39,"time":160.58801849999966,"velocity":0.8110236220472441,"duration":0.1743695124999931},{"name":"D#3","midi":51,"time":160.58801849999966,"velocity":0.8110236220472441,"duration":0.24474756874997183},{"name":"F#5","midi":78,"time":160.83906858124965,"velocity":0.905511811023622,"duration":0.09768894374997217},{"name":"G#1","midi":32,"time":160.84011899999965,"velocity":0.7322834645669292,"duration":0.1743695124999931},{"name":"B3","midi":59,"time":160.84011899999965,"velocity":0.8346456692913385,"duration":0.4999993249999761},{"name":"B4","midi":71,"time":160.84011899999965,"velocity":0.8503937007874016,"duration":0.4999993249999761},{"name":"B1","midi":35,"time":160.84011899999965,"velocity":0.9291338582677166,"duration":0.12184857499997293},{"name":"D2","midi":38,"time":160.84011899999965,"velocity":0.9291338582677166,"duration":0.12184857499997293},{"name":"D#2","midi":39,"time":160.84011899999965,"velocity":0.9291338582677166,"duration":0.12184857499997293},{"name":"G#2","midi":44,"time":160.84011899999965,"velocity":0.7244094488188977,"duration":0.1743695124999931},{"name":"G#1","midi":32,"time":160.84011899999965,"velocity":0.8110236220472441,"duration":0.1743695124999931},{"name":"G#2","midi":44,"time":160.84011899999965,"velocity":0.8110236220472441,"duration":0.24474756875000026},{"name":"D#5","midi":75,"time":161.07121112499965,"velocity":0.905511811023622,"duration":0.4999993249999761},{"name":"G#1","midi":32,"time":161.09221949999966,"velocity":0.7322834645669292,"duration":0.1743695124999931},{"name":"G#2","midi":44,"time":161.09221949999966,"velocity":0.7244094488188977,"duration":0.1743695124999931},{"name":"G#1","midi":32,"time":161.09221949999966,"velocity":0.8110236220472441,"duration":0.1743695124999931},{"name":"G#2","midi":44,"time":161.09221949999966,"velocity":0.8110236220472441,"duration":0.24474756874997183},{"name":"G#2","midi":44,"time":161.3443199999996,"velocity":0.7322834645669292,"duration":0.1743695124999931},{"name":"G#3","midi":56,"time":161.3443199999996,"velocity":0.8976377952755905,"duration":0.1743695124999931},{"name":"A#3","midi":58,"time":161.3443199999996,"velocity":0.8740157480314961,"duration":2.0126023249999605},{"name":"G#4","midi":68,"time":161.3443199999996,"velocity":0.9133858267716536,"duration":0.3361340000000155},{"name":"B1","midi":35,"time":161.3443199999996,"velocity":0.9291338582677166,"duration":0.12184857499997293},{"name":"G#3","midi":56,"time":161.3443199999996,"velocity":0.7244094488188977,"duration":0.24474756875000026},{"name":"G#2","midi":44,"time":161.3443199999996,"velocity":0.8110236220472441,"duration":0.1743695124999931},{"name":"G#3","midi":56,"time":161.3443199999996,"velocity":0.8110236220472441,"duration":0.4264700125000047},{"name":"G#4","midi":68,"time":161.57541212499962,"velocity":0.905511811023622,"duration":0.4873943000000054},{"name":"G#2","midi":44,"time":161.59642049999962,"velocity":0.7322834645669292,"duration":0.1743695124999931},{"name":"G#3","midi":56,"time":161.59642049999962,"velocity":0.7244094488188977,"duration":0.24474756874997183},{"name":"G#2","midi":44,"time":161.59642049999962,"velocity":0.8110236220472441,"duration":0.1743695124999931},{"name":"G#3","midi":56,"time":161.59642049999962,"velocity":0.8110236220472441,"duration":0.4663859249999973},{"name":"E2","midi":40,"time":161.8485209999996,"velocity":0.7322834645669292,"duration":0.17121825625000042},{"name":"D#5","midi":75,"time":161.8485209999996,"velocity":0.8503937007874016,"duration":0.11449564374999},{"name":"B1","midi":35,"time":161.8485209999996,"velocity":0.9291338582677166,"duration":0.12184857500000135},{"name":"D2","midi":38,"time":161.8485209999996,"velocity":0.9291338582677166,"duration":0.12184857500000135},{"name":"D#2","midi":39,"time":161.8485209999996,"velocity":0.9291338582677166,"duration":0.12184857500000135},{"name":"E3","midi":52,"time":161.8485209999996,"velocity":0.7244094488188977,"duration":0.17121825625000042},{"name":"E2","midi":40,"time":161.8485209999996,"velocity":0.8110236220472441,"duration":0.17121825625000042},{"name":"E3","midi":52,"time":161.8485209999996,"velocity":0.8110236220472441,"duration":0.24474756875000026},{"name":"B1","midi":35,"time":162.10062149999962,"velocity":0.7322834645669292,"duration":0.17121825625000042},{"name":"D#5","midi":75,"time":162.10062149999962,"velocity":0.8503937007874016,"duration":0.11449564374999},{"name":"D#4","midi":63,"time":162.10062149999962,"velocity":0.8976377952755905,"duration":0.22373919374999218},{"name":"D#5","midi":75,"time":162.10062149999962,"velocity":0.9133858267716536,"duration":0.22373919374999218},{"name":"B2","midi":47,"time":162.10062149999962,"velocity":0.7244094488188977,"duration":0.17121825625000042},{"name":"B1","midi":35,"time":162.10062149999962,"velocity":0.8110236220472441,"duration":0.17121825625000042},{"name":"B2","midi":47,"time":162.10062149999962,"velocity":0.8110236220472441,"duration":0.24474756874997183},{"name":"A#3","midi":58,"time":162.2266717499996,"velocity":0.8740157480314961,"duration":1.1302505749999625},{"name":"F#2","midi":42,"time":162.3527219999996,"velocity":0.7322834645669292,"duration":0.1743695124999931},{"name":"D#5","midi":75,"time":162.3527219999996,"velocity":0.8503937007874016,"duration":0.09873936249996973},{"name":"D4","midi":62,"time":162.3527219999996,"velocity":0.7637795275590551,"duration":0.23319296249999866},{"name":"D5","midi":74,"time":162.3527219999996,"velocity":0.7795275590551181,"duration":0.23319296249999866},{"name":"B1","midi":35,"time":162.3527219999996,"velocity":0.9291338582677166,"duration":0.12184857499997293},{"name":"F#3","midi":54,"time":162.3527219999996,"velocity":0.7244094488188977,"duration":0.1743695124999931},{"name":"F#2","midi":42,"time":162.3527219999996,"velocity":0.8110236220472441,"duration":0.1743695124999931},{"name":"F#3","midi":54,"time":162.3527219999996,"velocity":0.8110236220472441,"duration":0.24474756875000026},{"name":"F#2","midi":42,"time":162.6048224999996,"velocity":0.7322834645669292,"duration":0.1743695124999931},{"name":"D#5","midi":75,"time":162.6048224999996,"velocity":0.905511811023622,"duration":0.09768894375000059},{"name":"D#4","midi":63,"time":162.6048224999996,"velocity":0.8976377952755905,"duration":0.23424338124999622},{"name":"D#5","midi":75,"time":162.6048224999996,"velocity":0.9133858267716536,"duration":0.23424338124999622},{"name":"F#3","midi":54,"time":162.6048224999996,"velocity":0.7244094488188977,"duration":0.1743695124999931},{"name":"F#2","midi":42,"time":162.6048224999996,"velocity":0.8110236220472441,"duration":0.1743695124999931},{"name":"F#3","midi":54,"time":162.6048224999996,"velocity":0.8110236220472441,"duration":0.24474756875000026},{"name":"F#1","midi":30,"time":162.85692299999963,"velocity":0.7322834645669292,"duration":0.1743695124999931},{"name":"D#5","midi":75,"time":162.85692299999963,"velocity":0.905511811023622,"duration":0.09768894374997217},{"name":"D4","midi":62,"time":162.85692299999963,"velocity":0.8346456692913385,"duration":0.24789882499999294},{"name":"D5","midi":74,"time":162.85692299999963,"velocity":0.8503937007874016,"duration":0.2657559437499799},{"name":"B1","midi":35,"time":162.85692299999963,"velocity":0.9291338582677166,"duration":0.12184857499997293},{"name":"D2","midi":38,"time":162.85692299999963,"velocity":0.9291338582677166,"duration":0.12184857499997293},{"name":"D#2","midi":39,"time":162.85692299999963,"velocity":0.9291338582677166,"duration":0.12184857499997293},{"name":"F#2","midi":42,"time":162.85692299999963,"velocity":0.7244094488188977,"duration":0.1743695124999931},{"name":"F#1","midi":30,"time":162.85692299999963,"velocity":0.8110236220472441,"duration":0.1743695124999931},{"name":"F#2","midi":42,"time":162.85692299999963,"velocity":0.8110236220472441,"duration":0.24474756875000026},{"name":"F#1","midi":30,"time":163.1090234999996,"velocity":0.7322834645669292,"duration":0.1743695124999931},{"name":"G#4","midi":68,"time":163.1090234999996,"velocity":0.905511811023622,"duration":0.09768894375000059},{"name":"F#3","midi":54,"time":163.1090234999996,"velocity":0.8346456692913385,"duration":0.24789882499996452},{"name":"F#4","midi":66,"time":163.1090234999996,"velocity":0.8503937007874016,"duration":0.2657559437499515},{"name":"F#2","midi":42,"time":163.1090234999996,"velocity":0.7244094488188977,"duration":0.1743695124999931},{"name":"F#1","midi":30,"time":163.1090234999996,"velocity":0.8110236220472441,"duration":0.1743695124999931},{"name":"F#2","midi":42,"time":163.1090234999996,"velocity":0.8110236220472441,"duration":0.24474756874997183},{"name":"D#5","midi":75,"time":163.36112399999956,"velocity":0.8110236220472441,"duration":2.0126023250001026},{"name":"G#5","midi":80,"time":163.36112399999956,"velocity":0.8110236220472441,"duration":4.02940632499994},{"name":"B5","midi":83,"time":163.36112399999956,"velocity":0.8110236220472441,"duration":0.49999932500003297},{"name":"B1","midi":35,"time":163.36112399999956,"velocity":0.9291338582677166,"duration":0.12184857500000135},{"name":"C#3","midi":49,"time":163.36112399999956,"velocity":0.7401574803149606,"duration":0.12184857500000135},{"name":"G#2","midi":44,"time":163.36112399999956,"velocity":0.9291338582677166,"duration":0.1859241187499947},{"name":"G#4","midi":68,"time":163.36112399999956,"velocity":0.968503937007874,"duration":0.44012545625002986},{"name":"B5","midi":83,"time":163.61322449999957,"velocity":0.9291338582677166,"duration":1.2573512437500654},{"name":"G#3","midi":56,"time":163.61322449999957,"velocity":0.4015748031496063,"duration":0.1386552750000476},{"name":"B3","midi":59,"time":163.61322449999957,"velocity":0.6535433070866141,"duration":0.16281490625004835},{"name":"D#4","midi":63,"time":163.61322449999957,"velocity":0.5039370078740157,"duration":0.16806700000003616},{"name":"B3","midi":59,"time":163.61322449999957,"velocity":0.889763779527559,"duration":0.25945343125002296},{"name":"G#2","midi":44,"time":163.61322449999957,"velocity":0.9291338582677166,"duration":0.18592411875002313},{"name":"A#5","midi":82,"time":163.8653249999996,"velocity":0.8188976377952756,"duration":0.24789882499999294},{"name":"G#3","midi":56,"time":163.8653249999996,"velocity":0.5275590551181102,"duration":0.09138643125001522},{"name":"B3","midi":59,"time":163.8653249999996,"velocity":0.6220472440944882,"duration":0.10924355000000219},{"name":"D#4","midi":63,"time":163.8653249999996,"velocity":0.5039370078740157,"duration":0.11029396874999975},{"name":"G#2","midi":44,"time":163.8653249999996,"velocity":0.9291338582677166,"duration":0.1859241187499947},{"name":"G#4","midi":68,"time":163.8653249999996,"velocity":0.968503937007874,"duration":0.4359237812500396},{"name":"F#5","midi":78,"time":164.11742549999957,"velocity":0.9133858267716536,"duration":0.48109178750007686},{"name":"G#3","midi":56,"time":164.11742549999957,"velocity":0.5826771653543307,"duration":0.39705828750004457},{"name":"B3","midi":59,"time":164.11742549999957,"velocity":0.6535433070866141,"duration":0.28046180625003103},{"name":"D#4","midi":63,"time":164.11742549999957,"velocity":0.5511811023622047,"duration":0.40651205625005105},{"name":"B3","midi":59,"time":164.11742549999957,"velocity":0.8503937007874016,"duration":0.40336080000005836},{"name":"G#2","midi":44,"time":164.11742549999957,"velocity":0.9291338582677166,"duration":0.18592411875005155},{"name":"D#3","midi":51,"time":164.3695259999996,"velocity":0.9291338582677166,"duration":0.18592411875002313},{"name":"B5","midi":83,"time":164.62162649999965,"velocity":0.8582677165354331,"duration":2.768903824999853},{"name":"G#3","midi":56,"time":164.62162649999965,"velocity":0.5275590551181102,"duration":0.10714271249997864},{"name":"B3","midi":59,"time":164.62162649999965,"velocity":0.5590551181102362,"duration":0.1029410374999884},{"name":"D#4","midi":63,"time":164.62162649999965,"velocity":0.4881889763779528,"duration":0.17541993124999067},{"name":"B3","midi":59,"time":164.62162649999965,"velocity":0.889763779527559,"duration":0.28466348124999286},{"name":"D#3","midi":51,"time":164.62162649999965,"velocity":0.9291338582677166,"duration":0.1859241187499947},{"name":"A#5","midi":82,"time":164.87372699999963,"velocity":0.8582677165354331,"duration":0.23319296250002708},{"name":"G#3","midi":56,"time":164.87372699999963,"velocity":0.4015748031496063,"duration":0.11659648125001354},{"name":"B3","midi":59,"time":164.87372699999963,"velocity":0.25196850393700787,"duration":0.04306716875001371},{"name":"D#4","midi":63,"time":164.87372699999963,"velocity":0.4409448818897638,"duration":0.15336113750001346},{"name":"G#2","midi":44,"time":164.87372699999963,"velocity":0.9291338582677166,"duration":0.18592411875002313},{"name":"F#5","midi":78,"time":165.12582749999967,"velocity":0.8582677165354331,"duration":0.4999993249999761},{"name":"E3","midi":52,"time":165.12582749999967,"velocity":0.3464566929133858,"duration":0.4033607999999731},{"name":"G#3","midi":56,"time":165.12582749999967,"velocity":0.4566929133858268,"duration":0.4033607999999731},{"name":"B3","midi":59,"time":165.12582749999967,"velocity":0.4094488188976378,"duration":0.3981087062499853},{"name":"D#4","midi":63,"time":165.12582749999967,"velocity":0.7086614173228346,"duration":0.2510500812499856},{"name":"G#2","midi":44,"time":165.12582749999967,"velocity":0.9291338582677166,"duration":0.1859241187499947},{"name":"E5","midi":76,"time":165.37792799999966,"velocity":0.8110236220472441,"duration":0.7153351687499594},{"name":"E4","midi":64,"time":165.37792799999966,"velocity":0.8503937007874016,"duration":0.851889606249955},{"name":"G#2","midi":44,"time":165.37792799999966,"velocity":0.9291338582677166,"duration":0.1859241187499947},{"name":"F#5","midi":78,"time":165.63002849999964,"velocity":0.8582677165354331,"duration":0.21113416874999302},{"name":"E3","midi":52,"time":165.63002849999964,"velocity":0.31496062992125984,"duration":0.0399159124999926},{"name":"G#3","midi":56,"time":165.63002849999964,"velocity":0.4251968503937008,"duration":0.08403350000000387},{"name":"B3","midi":59,"time":165.63002849999964,"velocity":0.13385826771653545,"duration":0.04726884375000395},{"name":"G#2","midi":44,"time":165.63002849999964,"velocity":0.9291338582677166,"duration":0.1859241187499947},{"name":"E5","midi":76,"time":165.88212899999962,"velocity":0.8582677165354331,"duration":0.46323466875000463},{"name":"E3","midi":52,"time":165.88212899999962,"velocity":0.4330708661417323,"duration":0.09663852500000303},{"name":"G#3","midi":56,"time":165.88212899999962,"velocity":0.6456692913385826,"duration":0.09978978124999571},{"name":"B3","midi":59,"time":165.88212899999962,"velocity":0.5354330708661418,"duration":0.08508391875000143},{"name":"E3","midi":52,"time":165.88212899999962,"velocity":0.9291338582677166,"duration":0.1859241187499947},{"name":"E5","midi":76,"time":166.1342294999996,"velocity":0.8582677165354331,"duration":0.4632346687499762},{"name":"E3","midi":52,"time":166.1342294999996,"velocity":0.4566929133858268,"duration":0.19537788750000118},{"name":"G#3","midi":56,"time":166.1342294999996,"velocity":0.5511811023622047,"duration":0.20798291250002876},{"name":"B3","midi":59,"time":166.1342294999996,"velocity":0.5590551181102362,"duration":0.20168040000001497},{"name":"B2","midi":47,"time":166.1342294999996,"velocity":0.9291338582677166,"duration":0.1859241187499947},{"name":"E5","midi":76,"time":166.38632999999962,"velocity":0.8582677165354331,"duration":0.46638592499994047},{"name":"E3","midi":52,"time":166.38632999999962,"velocity":0.5039370078740157,"duration":0.15020988124999235},{"name":"G#3","midi":56,"time":166.38632999999962,"velocity":0.6456692913385826,"duration":0.15546197499998016},{"name":"B3","midi":59,"time":166.38632999999962,"velocity":0.6220472440944882,"duration":0.15020988124999235},{"name":"F#3","midi":54,"time":166.38632999999962,"velocity":0.9291338582677166,"duration":0.18592411874996628},{"name":"E5","midi":76,"time":166.63843049999957,"velocity":0.8582677165354331,"duration":0.7184864249999237},{"name":"E3","midi":52,"time":166.63843049999957,"velocity":0.5354330708661418,"duration":0.2226887749999662},{"name":"G#3","midi":56,"time":166.63843049999957,"velocity":0.6771653543307087,"duration":0.22373919374996376},{"name":"B3","midi":59,"time":166.63843049999957,"velocity":0.6220472440944882,"duration":0.21848709999997595},{"name":"E4","midi":64,"time":166.63843049999957,"velocity":0.8503937007874016,"duration":0.24789882499996452},{"name":"F#3","midi":54,"time":166.63843049999957,"velocity":0.9291338582677166,"duration":0.1859241187499947},{"name":"D#5","midi":75,"time":166.89053099999953,"velocity":0.8582677165354331,"duration":0.2142854249999857},{"name":"D#4","midi":63,"time":166.89053099999953,"velocity":0.8503937007874016,"duration":0.24789882499999294},{"name":"F#3","midi":54,"time":166.89053099999953,"velocity":0.9291338582677166,"duration":0.1859241187499947},{"name":"E5","midi":76,"time":167.1426314999995,"velocity":0.8582677165354331,"duration":0.24789882499999294},{"name":"E4","midi":64,"time":167.1426314999995,"velocity":0.8503937007874016,"duration":0.24789882499999294},{"name":"F#3","midi":54,"time":167.1426314999995,"velocity":0.9291338582677166,"duration":0.1859241187499947},{"name":"B4","midi":71,"time":167.3947319999995,"velocity":0.8110236220472441,"duration":2.0126023249998752},{"name":"D#5","midi":75,"time":167.3947319999995,"velocity":0.8110236220472441,"duration":0.4999993249999761},{"name":"F#5","midi":78,"time":167.3947319999995,"velocity":0.8110236220472441,"duration":0.7184864249999521},{"name":"D#5","midi":75,"time":167.3947319999995,"velocity":0.8582677165354331,"duration":2.0126023249998752},{"name":"D#3","midi":51,"time":167.3947319999995,"velocity":0.7637795275590551,"duration":0.3771003312499772},{"name":"B3","midi":59,"time":167.3947319999995,"velocity":0.6535433070866141,"duration":0.3918061937499715},{"name":"D#4","midi":63,"time":167.3947319999995,"velocity":0.8503937007874016,"duration":0.24789882499999294},{"name":"B2","midi":47,"time":167.3947319999995,"velocity":0.9291338582677166,"duration":0.1859241187499947},{"name":"B3","midi":59,"time":167.64683249999948,"velocity":0.8503937007874016,"duration":0.24789882499999294},{"name":"B2","midi":47,"time":167.64683249999948,"velocity":0.9291338582677166,"duration":0.1859241187499947},{"name":"F#5","midi":78,"time":167.89893299999946,"velocity":0.8582677165354331,"duration":0.8445366749999437},{"name":"D#3","midi":51,"time":167.89893299999946,"velocity":0.6771653543307087,"duration":0.10924355000000219},{"name":"F#3","midi":54,"time":167.89893299999946,"velocity":0.6771653543307087,"duration":0.11344522499999243},{"name":"F#3","midi":54,"time":167.89893299999946,"velocity":0.8503937007874016,"duration":0.24789882499999294},{"name":"B2","midi":47,"time":167.89893299999946,"velocity":0.9291338582677166,"duration":0.1859241187499947},{"name":"F#5","midi":78,"time":168.15103349999944,"velocity":0.8582677165354331,"duration":1.2563008249999257},{"name":"D#3","midi":51,"time":168.15103349999944,"velocity":0.6771653543307087,"duration":0.565125287499967},{"name":"F#3","midi":54,"time":168.15103349999944,"velocity":0.6456692913385826,"duration":0.4999993249999761},{"name":"E3","midi":52,"time":168.15103349999944,"velocity":0.8503937007874016,"duration":0.24789882499999294},{"name":"B2","midi":47,"time":168.15103349999944,"velocity":0.9291338582677166,"duration":0.1859241187499947},{"name":"F#3","midi":54,"time":168.40313399999943,"velocity":0.8503937007874016,"duration":0.3287810687499757},{"name":"F#2","midi":42,"time":168.40313399999943,"velocity":0.9291338582677166,"duration":0.1859241187499947},{"name":"D#4","midi":63,"time":168.6552344999994,"velocity":0.8503937007874016,"duration":0.24789882499999294},{"name":"F#2","midi":42,"time":168.6552344999994,"velocity":0.9291338582677166,"duration":0.1859241187499947},{"name":"B2","midi":47,"time":168.9073349999994,"velocity":0.9291338582677166,"duration":0.1859241187499947},{"name":"B3","midi":59,"time":169.15943549999938,"velocity":0.8503937007874016,"duration":0.24789882499999294},{"name":"B2","midi":47,"time":169.15943549999938,"velocity":0.9291338582677166,"duration":0.1859241187499947},{"name":"A#4","midi":70,"time":169.41153599999936,"velocity":0.8110236220472441,"duration":0.24789882500002136},{"name":"C#5","midi":73,"time":169.41153599999936,"velocity":0.8110236220472441,"duration":1.2563008249999825},{"name":"A#5","midi":82,"time":169.41153599999936,"velocity":0.8110236220472441,"duration":2.0126023249999037},{"name":"A#4","midi":70,"time":169.41153599999936,"velocity":0.8582677165354331,"duration":0.7520998249999877},{"name":"A#3","midi":58,"time":169.41153599999936,"velocity":0.8740157480314961,"duration":2.0126023249999037},{"name":"C#4","midi":61,"time":169.41153599999936,"velocity":0.8503937007874016,"duration":1.0042003249999993},{"name":"A#2","midi":46,"time":169.41153599999936,"velocity":0.9291338582677166,"duration":0.18592411875002313},{"name":"A#2","midi":46,"time":169.43044353749937,"velocity":0.6771653543307087,"duration":0.23949547500001245},{"name":"B4","midi":71,"time":169.66363649999937,"velocity":0.8582677165354331,"duration":0.24789882499999294},{"name":"A#2","midi":46,"time":169.66363649999937,"velocity":0.9291338582677166,"duration":0.1859241187499947},{"name":"B2","midi":47,"time":169.68569529374938,"velocity":0.6220472440944882,"duration":0.21848709999997595},{"name":"G#5","midi":80,"time":169.91573699999935,"velocity":0.8110236220472441,"duration":1.3823510749999173},{"name":"A#4","midi":70,"time":169.91573699999935,"velocity":0.8582677165354331,"duration":0.7520998249999877},{"name":"A#2","midi":46,"time":169.91573699999935,"velocity":0.9291338582677166,"duration":0.1859241187499947},{"name":"A#2","midi":46,"time":169.95670333124934,"velocity":0.6456692913385826,"duration":0.20273081875001253},{"name":"F#4","midi":66,"time":170.16783749999934,"velocity":0.8582677165354331,"duration":0.24789882500002136},{"name":"A#2","midi":46,"time":170.16783749999934,"velocity":0.9291338582677166,"duration":0.18592411875002313},{"name":"F#2","midi":42,"time":170.20145089999934,"velocity":0.8188976377952756,"duration":0.21428542500001413},{"name":"A#3","midi":58,"time":170.29388774999936,"velocity":0.8740157480314961,"duration":1.1302505749999057},{"name":"F#5","midi":78,"time":170.41993799999935,"velocity":0.8110236220472441,"duration":1.004200324999914},{"name":"A#4","midi":70,"time":170.41993799999935,"velocity":0.8582677165354331,"duration":0.7520998249999309},{"name":"A#2","midi":46,"time":170.41993799999935,"velocity":0.9291338582677166,"duration":0.1859241187499947},{"name":"A#2","midi":46,"time":170.47350935624934,"velocity":0.7244094488188977,"duration":0.21848710000000438},{"name":"B4","midi":71,"time":170.67203849999933,"velocity":0.8582677165354331,"duration":0.24789882499999294},{"name":"A#2","midi":46,"time":170.67203849999933,"velocity":0.9291338582677166,"duration":0.1859241187499947},{"name":"B2","midi":47,"time":170.71825692499934,"velocity":0.7559055118110236,"duration":0.22163835624996864},{"name":"C#5","midi":73,"time":170.92413899999931,"velocity":0.8110236220472441,"duration":0.4999993249999477},{"name":"A#4","midi":70,"time":170.92413899999931,"velocity":0.8582677165354331,"duration":0.4999993249999477},{"name":"F#2","midi":42,"time":170.92413899999931,"velocity":0.9291338582677166,"duration":0.18592411874996628},{"name":"A#2","midi":46,"time":170.9703574249993,"velocity":0.7637795275590551,"duration":0.22058793749997108},{"name":"F#4","midi":66,"time":171.17623949999927,"velocity":0.8582677165354331,"duration":0.24789882499999294},{"name":"F#2","midi":42,"time":171.17623949999927,"velocity":0.9291338582677166,"duration":0.1859241187499947},{"name":"F#2","midi":42,"time":171.20039913124927,"velocity":0.8188976377952756,"duration":0.16701658124998175},{"name":"G#1","midi":32,"time":171.42833999999925,"velocity":0.7401574803149606,"duration":0.23004170625000597},{"name":"D#5","midi":75,"time":171.42833999999925,"velocity":0.8110236220472441,"duration":2.012602325000188},{"name":"G#5","midi":80,"time":171.42833999999925,"velocity":0.8110236220472441,"duration":4.029406325000082},{"name":"B5","midi":83,"time":171.42833999999925,"velocity":0.8110236220472441,"duration":0.49999932500003297},{"name":"B1","midi":35,"time":171.42833999999925,"velocity":0.9291338582677166,"duration":0.12184857500000135},{"name":"C#3","midi":49,"time":171.42833999999925,"velocity":0.6771653543307087,"duration":0.12184857500000135},{"name":"G#2","midi":44,"time":171.42833999999925,"velocity":0.9291338582677166,"duration":0.1859241187499947},{"name":"G#4","midi":68,"time":171.42833999999925,"velocity":0.968503937007874,"duration":0.44012545625002986},{"name":"G#1","midi":32,"time":171.68044049999926,"velocity":0.7401574803149606,"duration":0.23004170625000597},{"name":"B5","midi":83,"time":171.68044049999926,"velocity":0.9291338582677166,"duration":1.2573512437501506},{"name":"G#3","midi":56,"time":171.68044049999926,"velocity":0.4015748031496063,"duration":0.1386552750000476},{"name":"B3","midi":59,"time":171.68044049999926,"velocity":0.6535433070866141,"duration":0.16281490625004835},{"name":"D#4","midi":63,"time":171.68044049999926,"velocity":0.5039370078740157,"duration":0.16806700000003616},{"name":"B3","midi":59,"time":171.68044049999926,"velocity":0.889763779527559,"duration":0.25945343125002296},{"name":"G#2","midi":44,"time":171.68044049999926,"velocity":0.9291338582677166,"duration":0.18592411875002313},{"name":"G#1","midi":32,"time":171.93254099999928,"velocity":0.7401574803149606,"duration":0.23004170625000597},{"name":"A#5","midi":82,"time":171.93254099999928,"velocity":0.8188976377952756,"duration":0.24789882500002136},{"name":"G#3","midi":56,"time":171.93254099999928,"velocity":0.5275590551181102,"duration":0.09138643125001522},{"name":"B3","midi":59,"time":171.93254099999928,"velocity":0.6220472440944882,"duration":0.10924355000000219},{"name":"D#4","midi":63,"time":171.93254099999928,"velocity":0.5039370078740157,"duration":0.11029396874999975},{"name":"B1","midi":35,"time":171.93254099999928,"velocity":0.9291338582677166,"duration":0.12184857500000135},{"name":"D2","midi":38,"time":171.93254099999928,"velocity":0.9291338582677166,"duration":0.12184857500000135},{"name":"D#2","midi":39,"time":171.93254099999928,"velocity":0.9291338582677166,"duration":0.12184857500000135},{"name":"G3","midi":55,"time":171.93254099999928,"velocity":0.6299212598425197,"duration":0.12184857500000135},{"name":"G#2","midi":44,"time":171.93254099999928,"velocity":0.9291338582677166,"duration":0.1859241187499947},{"name":"G#4","midi":68,"time":171.93254099999928,"velocity":0.968503937007874,"duration":0.43592378125006803},{"name":"G#1","midi":32,"time":172.1846414999993,"velocity":0.7401574803149606,"duration":0.23004170625006282},{"name":"F#5","midi":78,"time":172.1846414999993,"velocity":0.9133858267716536,"duration":0.4810917875001053},{"name":"G#3","midi":56,"time":172.1846414999993,"velocity":0.5826771653543307,"duration":0.397058287500073},{"name":"B3","midi":59,"time":172.1846414999993,"velocity":0.6535433070866141,"duration":0.28046180625005945},{"name":"D#4","midi":63,"time":172.1846414999993,"velocity":0.5511811023622047,"duration":0.40651205625007947},{"name":"B3","midi":59,"time":172.1846414999993,"velocity":0.8503937007874016,"duration":0.4033608000000868},{"name":"G#2","midi":44,"time":172.1846414999993,"velocity":0.9291338582677166,"duration":0.18592411875005155},{"name":"D#2","midi":39,"time":172.43674199999936,"velocity":0.7401574803149606,"duration":0.2300417062500344},{"name":"B1","midi":35,"time":172.43674199999936,"velocity":0.9291338582677166,"duration":0.12184857500000135},{"name":"G3","midi":55,"time":172.43674199999936,"velocity":0.6299212598425197,"duration":0.12184857500000135},{"name":"D#3","midi":51,"time":172.43674199999936,"velocity":0.9291338582677166,"duration":0.18592411875002313},{"name":"D#2","midi":39,"time":172.6888424999994,"velocity":0.7401574803149606,"duration":0.23004170625000597},{"name":"B5","midi":83,"time":172.6888424999994,"velocity":0.8582677165354331,"duration":2.7689038249999385},{"name":"G#3","midi":56,"time":172.6888424999994,"velocity":0.5275590551181102,"duration":0.10714271249997864},{"name":"B3","midi":59,"time":172.6888424999994,"velocity":0.5590551181102362,"duration":0.1029410374999884},{"name":"D#4","midi":63,"time":172.6888424999994,"velocity":0.4881889763779528,"duration":0.17541993124999067},{"name":"B3","midi":59,"time":172.6888424999994,"velocity":0.889763779527559,"duration":0.2846634812500213},{"name":"D#3","midi":51,"time":172.6888424999994,"velocity":0.9291338582677166,"duration":0.1859241187499947},{"name":"G#1","midi":32,"time":172.9409429999994,"velocity":0.7401574803149606,"duration":0.2300417062500344},{"name":"A#5","midi":82,"time":172.9409429999994,"velocity":0.8582677165354331,"duration":0.23319296250002708},{"name":"G#3","midi":56,"time":172.9409429999994,"velocity":0.4015748031496063,"duration":0.11659648125001354},{"name":"B3","midi":59,"time":172.9409429999994,"velocity":0.25196850393700787,"duration":0.04306716875001371},{"name":"D#4","midi":63,"time":172.9409429999994,"velocity":0.4409448818897638,"duration":0.15336113750001346},{"name":"B1","midi":35,"time":172.9409429999994,"velocity":0.9291338582677166,"duration":0.12184857500000135},{"name":"D2","midi":38,"time":172.9409429999994,"velocity":0.9291338582677166,"duration":0.12184857500000135},{"name":"D#2","midi":39,"time":172.9409429999994,"velocity":0.9291338582677166,"duration":0.12184857500000135},{"name":"G3","midi":55,"time":172.9409429999994,"velocity":0.6299212598425197,"duration":0.12184857500000135},{"name":"G#2","midi":44,"time":172.9409429999994,"velocity":0.9291338582677166,"duration":0.18592411875002313},{"name":"G#1","midi":32,"time":173.19304349999945,"velocity":0.7401574803149606,"duration":0.23004170625000597},{"name":"F#5","midi":78,"time":173.19304349999945,"velocity":0.8582677165354331,"duration":0.4999993249999761},{"name":"E3","midi":52,"time":173.19304349999945,"velocity":0.3464566929133858,"duration":0.4033607999999731},{"name":"G#3","midi":56,"time":173.19304349999945,"velocity":0.4566929133858268,"duration":0.4033607999999731},{"name":"B3","midi":59,"time":173.19304349999945,"velocity":0.4094488188976378,"duration":0.3981087062499853},{"name":"D#4","midi":63,"time":173.19304349999945,"velocity":0.7086614173228346,"duration":0.2510500812499856},{"name":"G#2","midi":44,"time":173.19304349999945,"velocity":0.9291338582677166,"duration":0.1859241187499947},{"name":"G#1","midi":32,"time":173.44514399999943,"velocity":0.7401574803149606,"duration":0.23004170625000597},{"name":"E5","midi":76,"time":173.44514399999943,"velocity":0.8110236220472441,"duration":0.7153351687499878},{"name":"E4","midi":64,"time":173.44514399999943,"velocity":0.8503937007874016,"duration":0.8518896062500119},{"name":"B1","midi":35,"time":173.44514399999943,"velocity":0.9291338582677166,"duration":0.12184857500000135},{"name":"G3","midi":55,"time":173.44514399999943,"velocity":0.6299212598425197,"duration":0.12184857500000135},{"name":"G#2","midi":44,"time":173.44514399999943,"velocity":0.9291338582677166,"duration":0.1859241187499947},{"name":"G#1","midi":32,"time":173.6972444999994,"velocity":0.7401574803149606,"duration":0.23004170625000597},{"name":"F#5","midi":78,"time":173.6972444999994,"velocity":0.8582677165354331,"duration":0.21113416874999302},{"name":"E3","midi":52,"time":173.6972444999994,"velocity":0.31496062992125984,"duration":0.0399159124999926},{"name":"G#3","midi":56,"time":173.6972444999994,"velocity":0.4251968503937008,"duration":0.08403350000000387},{"name":"B3","midi":59,"time":173.6972444999994,"velocity":0.13385826771653545,"duration":0.04726884375000395},{"name":"G#2","midi":44,"time":173.6972444999994,"velocity":0.9291338582677166,"duration":0.1859241187499947},{"name":"E2","midi":40,"time":173.94934499999943,"velocity":0.7401574803149606,"duration":0.23004170625000597},{"name":"E5","midi":76,"time":173.94934499999943,"velocity":0.8582677165354331,"duration":0.46323466875003305},{"name":"E3","midi":52,"time":173.94934499999943,"velocity":0.4330708661417323,"duration":0.09663852500000303},{"name":"G#3","midi":56,"time":173.94934499999943,"velocity":0.6456692913385826,"duration":0.09978978124999571},{"name":"B3","midi":59,"time":173.94934499999943,"velocity":0.5354330708661418,"duration":0.08508391875000143},{"name":"B1","midi":35,"time":173.94934499999943,"velocity":0.9291338582677166,"duration":0.12184857500000135},{"name":"D2","midi":38,"time":173.94934499999943,"velocity":0.9291338582677166,"duration":0.12184857500000135},{"name":"D#2","midi":39,"time":173.94934499999943,"velocity":0.9291338582677166,"duration":0.12184857500000135},{"name":"G3","midi":55,"time":173.94934499999943,"velocity":0.6299212598425197,"duration":0.12184857500000135},{"name":"E3","midi":52,"time":173.94934499999943,"velocity":0.9291338582677166,"duration":0.1859241187499947},{"name":"B1","midi":35,"time":174.20144549999944,"velocity":0.7401574803149606,"duration":0.2300417062500344},{"name":"E5","midi":76,"time":174.20144549999944,"velocity":0.8582677165354331,"duration":0.46323466875000463},{"name":"E3","midi":52,"time":174.20144549999944,"velocity":0.4566929133858268,"duration":0.19537788750000118},{"name":"G#3","midi":56,"time":174.20144549999944,"velocity":0.5511811023622047,"duration":0.20798291250002876},{"name":"B3","midi":59,"time":174.20144549999944,"velocity":0.5590551181102362,"duration":0.20168040000001497},{"name":"B2","midi":47,"time":174.20144549999944,"velocity":0.9291338582677166,"duration":0.1859241187499947},{"name":"F#2","midi":42,"time":174.45354599999948,"velocity":0.7401574803149606,"duration":0.23004170624997755},{"name":"E5","midi":76,"time":174.45354599999948,"velocity":0.8582677165354331,"duration":0.4663859249999689},{"name":"E3","midi":52,"time":174.45354599999948,"velocity":0.5039370078740157,"duration":0.15020988124999235},{"name":"G#3","midi":56,"time":174.45354599999948,"velocity":0.6456692913385826,"duration":0.15546197499998016},{"name":"B3","midi":59,"time":174.45354599999948,"velocity":0.6220472440944882,"duration":0.15020988124999235},{"name":"B1","midi":35,"time":174.45354599999948,"velocity":0.9291338582677166,"duration":0.12184857500000135},{"name":"G3","midi":55,"time":174.45354599999948,"velocity":0.6299212598425197,"duration":0.12184857500000135},{"name":"F#3","midi":54,"time":174.45354599999948,"velocity":0.9291338582677166,"duration":0.18592411874996628},{"name":"F#2","midi":42,"time":174.70564649999946,"velocity":0.7401574803149606,"duration":0.23004170624997755},{"name":"E5","midi":76,"time":174.70564649999946,"velocity":0.8582677165354331,"duration":0.7184864249998952},{"name":"E3","midi":52,"time":174.70564649999946,"velocity":0.5354330708661418,"duration":0.2226887749999662},{"name":"G#3","midi":56,"time":174.70564649999946,"velocity":0.6771653543307087,"duration":0.22373919374996376},{"name":"B3","midi":59,"time":174.70564649999946,"velocity":0.6220472440944882,"duration":0.21848709999997595},{"name":"E4","midi":64,"time":174.70564649999946,"velocity":0.8503937007874016,"duration":0.24789882499996452},{"name":"F#3","midi":54,"time":174.70564649999946,"velocity":0.9291338582677166,"duration":0.1859241187499947},{"name":"F#2","midi":42,"time":174.95774699999942,"velocity":0.7401574803149606,"duration":0.23004170624997755},{"name":"D#5","midi":75,"time":174.95774699999942,"velocity":0.8582677165354331,"duration":0.2142854249999857},{"name":"D#4","midi":63,"time":174.95774699999942,"velocity":0.8503937007874016,"duration":0.24789882499996452},{"name":"B1","midi":35,"time":174.95774699999942,"velocity":0.9291338582677166,"duration":0.12184857500000135},{"name":"D2","midi":38,"time":174.95774699999942,"velocity":0.9291338582677166,"duration":0.12184857500000135},{"name":"D#2","midi":39,"time":174.95774699999942,"velocity":0.9291338582677166,"duration":0.12184857500000135},{"name":"G3","midi":55,"time":174.95774699999942,"velocity":0.6299212598425197,"duration":0.12184857500000135},{"name":"F#3","midi":54,"time":174.95774699999942,"velocity":0.9291338582677166,"duration":0.1859241187499947},{"name":"F#2","midi":42,"time":175.20984749999937,"velocity":0.7401574803149606,"duration":0.23004170624997755},{"name":"E5","midi":76,"time":175.20984749999937,"velocity":0.8582677165354331,"duration":0.24789882499996452},{"name":"E4","midi":64,"time":175.20984749999937,"velocity":0.8503937007874016,"duration":0.24789882499996452},{"name":"F#3","midi":54,"time":175.20984749999937,"velocity":0.9291338582677166,"duration":0.1859241187499947},{"name":"B1","midi":35,"time":175.46194799999932,"velocity":0.7401574803149606,"duration":0.12184857500000135},{"name":"B4","midi":71,"time":175.46194799999932,"velocity":0.8110236220472441,"duration":2.0126023249998752},{"name":"D#5","midi":75,"time":175.46194799999932,"velocity":0.8110236220472441,"duration":0.4999993249999761},{"name":"F#5","midi":78,"time":175.46194799999932,"velocity":0.8110236220472441,"duration":0.7184864249999521},{"name":"D#5","midi":75,"time":175.46194799999932,"velocity":0.8582677165354331,"duration":2.0126023249998752},{"name":"D#3","midi":51,"time":175.46194799999932,"velocity":0.7637795275590551,"duration":0.3771003312499772},{"name":"B3","midi":59,"time":175.46194799999932,"velocity":0.6535433070866141,"duration":0.3918061937499715},{"name":"D#4","midi":63,"time":175.46194799999932,"velocity":0.8503937007874016,"duration":0.24789882499999294},{"name":"B1","midi":35,"time":175.46194799999932,"velocity":0.9291338582677166,"duration":0.23004170625000597},{"name":"G3","midi":55,"time":175.46194799999932,"velocity":0.6299212598425197,"duration":0.12184857500000135},{"name":"B2","midi":47,"time":175.46194799999932,"velocity":0.9291338582677166,"duration":0.1859241187499947},{"name":"B1","midi":35,"time":175.7140484999993,"velocity":0.7401574803149606,"duration":0.23004170625000597},{"name":"B3","midi":59,"time":175.7140484999993,"velocity":0.8503937007874016,"duration":0.24789882499999294},{"name":"B2","midi":47,"time":175.7140484999993,"velocity":0.9291338582677166,"duration":0.1859241187499947},{"name":"B1","midi":35,"time":175.9661489999993,"velocity":0.7401574803149606,"duration":0.12184857500000135},{"name":"F#5","midi":78,"time":175.9661489999993,"velocity":0.8582677165354331,"duration":0.8445366749999152},{"name":"D#3","midi":51,"time":175.9661489999993,"velocity":0.6771653543307087,"duration":0.10924355000000219},{"name":"F#3","midi":54,"time":175.9661489999993,"velocity":0.6771653543307087,"duration":0.11344522499999243},{"name":"F#3","midi":54,"time":175.9661489999993,"velocity":0.8503937007874016,"duration":0.24789882499996452},{"name":"B1","midi":35,"time":175.9661489999993,"velocity":0.9291338582677166,"duration":0.23004170624997755},{"name":"D2","midi":38,"time":175.9661489999993,"velocity":0.9291338582677166,"duration":0.12184857500000135},{"name":"D#2","midi":39,"time":175.9661489999993,"velocity":0.9291338582677166,"duration":0.12184857500000135},{"name":"G3","midi":55,"time":175.9661489999993,"velocity":0.6299212598425197,"duration":0.12184857500000135},{"name":"B2","midi":47,"time":175.9661489999993,"velocity":0.9291338582677166,"duration":0.1859241187499947},{"name":"B1","midi":35,"time":176.21824949999925,"velocity":0.7401574803149606,"duration":0.23004170625000597},{"name":"F#5","midi":78,"time":176.21824949999925,"velocity":0.8582677165354331,"duration":1.256300824999954},{"name":"D#3","midi":51,"time":176.21824949999925,"velocity":0.6771653543307087,"duration":0.565125287499967},{"name":"F#3","midi":54,"time":176.21824949999925,"velocity":0.6456692913385826,"duration":0.4999993249999761},{"name":"E3","midi":52,"time":176.21824949999925,"velocity":0.8503937007874016,"duration":0.24789882499999294},{"name":"B2","midi":47,"time":176.21824949999925,"velocity":0.9291338582677166,"duration":0.1859241187499947},{"name":"F#1","midi":30,"time":176.47034999999923,"velocity":0.7401574803149606,"duration":0.23004170625000597},{"name":"F#3","midi":54,"time":176.47034999999923,"velocity":0.8503937007874016,"duration":0.3287810687499757},{"name":"B1","midi":35,"time":176.47034999999923,"velocity":0.9291338582677166,"duration":0.12184857500000135},{"name":"G3","midi":55,"time":176.47034999999923,"velocity":0.6299212598425197,"duration":0.12184857500000135},{"name":"F#2","midi":42,"time":176.47034999999923,"velocity":0.9291338582677166,"duration":0.1859241187499947},{"name":"F#1","midi":30,"time":176.7224504999992,"velocity":0.7401574803149606,"duration":0.23004170625000597},{"name":"D#4","midi":63,"time":176.7224504999992,"velocity":0.8503937007874016,"duration":0.24789882499999294},{"name":"F#2","midi":42,"time":176.7224504999992,"velocity":0.9291338582677166,"duration":0.1859241187499947},{"name":"B1","midi":35,"time":176.9745509999992,"velocity":0.7401574803149606,"duration":0.12184857500000135},{"name":"B1","midi":35,"time":176.9745509999992,"velocity":0.9291338582677166,"duration":0.23004170625000597},{"name":"D2","midi":38,"time":176.9745509999992,"velocity":0.9291338582677166,"duration":0.12184857500000135},{"name":"D#2","midi":39,"time":176.9745509999992,"velocity":0.9291338582677166,"duration":0.12184857500000135},{"name":"G3","midi":55,"time":176.9745509999992,"velocity":0.6299212598425197,"duration":0.12184857500000135},{"name":"B2","midi":47,"time":176.9745509999992,"velocity":0.9291338582677166,"duration":0.1859241187499947},{"name":"B1","midi":35,"time":177.2266514999992,"velocity":0.7401574803149606,"duration":0.23004170625000597},{"name":"B3","midi":59,"time":177.2266514999992,"velocity":0.8503937007874016,"duration":0.24789882499999294},{"name":"B2","midi":47,"time":177.2266514999992,"velocity":0.9291338582677166,"duration":0.1859241187499947},{"name":"A#1","midi":34,"time":177.4787519999992,"velocity":0.7401574803149606,"duration":0.23004170625000597},{"name":"A#4","midi":70,"time":177.4787519999992,"velocity":0.8110236220472441,"duration":0.24789882499999294},{"name":"C#5","midi":73,"time":177.4787519999992,"velocity":0.8110236220472441,"duration":1.256300824999954},{"name":"A#5","midi":82,"time":177.4787519999992,"velocity":0.8110236220472441,"duration":2.012602324999847},{"name":"A#4","midi":70,"time":177.4787519999992,"velocity":0.8582677165354331,"duration":0.7520998249999877},{"name":"C#4","midi":61,"time":177.4787519999992,"velocity":0.8503937007874016,"duration":1.004200324999971},{"name":"B1","midi":35,"time":177.4787519999992,"velocity":0.9291338582677166,"duration":0.12184857500000135},{"name":"G3","midi":55,"time":177.4787519999992,"velocity":0.6299212598425197,"duration":0.12184857500000135},{"name":"A#2","midi":46,"time":177.4787519999992,"velocity":0.9291338582677166,"duration":0.1859241187499947},{"name":"A#2","midi":46,"time":177.4976595374992,"velocity":0.6771653543307087,"duration":0.23949547499998403},{"name":"A#1","midi":34,"time":177.73085249999917,"velocity":0.7401574803149606,"duration":0.23004170625000597},{"name":"B4","midi":71,"time":177.73085249999917,"velocity":0.8582677165354331,"duration":0.24789882500002136},{"name":"A#2","midi":46,"time":177.73085249999917,"velocity":0.9291338582677166,"duration":0.1859241187499947},{"name":"B2","midi":47,"time":177.75291129374918,"velocity":0.6220472440944882,"duration":0.21848710000000438},{"name":"A#1","midi":34,"time":177.98295299999918,"velocity":0.7401574803149606,"duration":0.23004170625000597},{"name":"G#5","midi":80,"time":177.98295299999918,"velocity":0.8110236220472441,"duration":1.3823510749998889},{"name":"A#4","midi":70,"time":177.98295299999918,"velocity":0.8582677165354331,"duration":0.7520998249999593},{"name":"B1","midi":35,"time":177.98295299999918,"velocity":0.9291338582677166,"duration":0.12184857500000135},{"name":"D2","midi":38,"time":177.98295299999918,"velocity":0.9291338582677166,"duration":0.12184857500000135},{"name":"D#2","midi":39,"time":177.98295299999918,"velocity":0.9291338582677166,"duration":0.12184857500000135},{"name":"G3","midi":55,"time":177.98295299999918,"velocity":0.6299212598425197,"duration":0.12184857500000135},{"name":"A#2","midi":46,"time":177.98295299999918,"velocity":0.9291338582677166,"duration":0.1859241187499947},{"name":"A#2","midi":46,"time":178.02391933124918,"velocity":0.6456692913385826,"duration":0.20273081875001253},{"name":"A#1","midi":34,"time":178.23505349999917,"velocity":0.7401574803149606,"duration":0.23004170625000597},{"name":"F#4","midi":66,"time":178.23505349999917,"velocity":0.8582677165354331,"duration":0.24789882499999294},{"name":"A#2","midi":46,"time":178.23505349999917,"velocity":0.9291338582677166,"duration":0.1859241187499947},{"name":"F#2","midi":42,"time":178.26866689999918,"velocity":0.8188976377952756,"duration":0.2142854249999857},{"name":"A#1","midi":34,"time":178.48715399999915,"velocity":0.7401574803149606,"duration":0.23004170625000597},{"name":"F#5","midi":78,"time":178.48715399999915,"velocity":0.8110236220472441,"duration":1.0042003249998857},{"name":"A#4","midi":70,"time":178.48715399999915,"velocity":0.8582677165354331,"duration":0.7520998249999309},{"name":"B1","midi":35,"time":178.48715399999915,"velocity":0.9291338582677166,"duration":0.12184857500000135},{"name":"G3","midi":55,"time":178.48715399999915,"velocity":0.6299212598425197,"duration":0.12184857500000135},{"name":"A#2","midi":46,"time":178.48715399999915,"velocity":0.9291338582677166,"duration":0.1859241187499947},{"name":"A#2","midi":46,"time":178.54072535624914,"velocity":0.7244094488188977,"duration":0.21848710000000438},{"name":"A#1","midi":34,"time":178.73925449999913,"velocity":0.7401574803149606,"duration":0.23004170625000597},{"name":"B4","midi":71,"time":178.73925449999913,"velocity":0.8582677165354331,"duration":0.24789882499999294},{"name":"A#2","midi":46,"time":178.73925449999913,"velocity":0.9291338582677166,"duration":0.1859241187499947},{"name":"B2","midi":47,"time":178.78547292499914,"velocity":0.7559055118110236,"duration":0.22163835624996864},{"name":"F#1","midi":30,"time":178.99135499999912,"velocity":0.7401574803149606,"duration":0.23004170624997755},{"name":"C#5","midi":73,"time":178.99135499999912,"velocity":0.8110236220472441,"duration":0.4999993249999193},{"name":"A#4","midi":70,"time":178.99135499999912,"velocity":0.8582677165354331,"duration":0.4999993249999193},{"name":"B1","midi":35,"time":178.99135499999912,"velocity":0.9291338582677166,"duration":0.12184857499997293},{"name":"D2","midi":38,"time":178.99135499999912,"velocity":0.9291338582677166,"duration":0.12184857499997293},{"name":"D#2","midi":39,"time":178.99135499999912,"velocity":0.9291338582677166,"duration":0.12184857499997293},{"name":"G3","midi":55,"time":178.99135499999912,"velocity":0.6299212598425197,"duration":0.12184857499997293},{"name":"F#2","midi":42,"time":178.99135499999912,"velocity":0.9291338582677166,"duration":0.18592411874996628},{"name":"A#2","midi":46,"time":179.0375734249991,"velocity":0.7637795275590551,"duration":0.22058793749997108},{"name":"F#1","midi":30,"time":179.24345549999907,"velocity":0.7401574803149606,"duration":0.23004170624997755},{"name":"F#4","midi":66,"time":179.24345549999907,"velocity":0.8582677165354331,"duration":0.24789882499996452},{"name":"F#2","midi":42,"time":179.24345549999907,"velocity":0.9291338582677166,"duration":0.1859241187499947},{"name":"F#2","midi":42,"time":179.26761513124907,"velocity":0.8188976377952756,"duration":0.16701658124998175},{"name":"G#1","midi":32,"time":179.49555599999903,"velocity":0.7401574803149606,"duration":0.23004170625000597},{"name":"D#5","midi":75,"time":179.49555599999903,"velocity":0.8110236220472441,"duration":2.012602325000188},{"name":"G#5","midi":80,"time":179.49555599999903,"velocity":0.8110236220472441,"duration":4.029406325000082},{"name":"B5","midi":83,"time":179.49555599999903,"velocity":0.8110236220472441,"duration":0.49999932500003297},{"name":"B1","midi":35,"time":179.49555599999903,"velocity":0.9291338582677166,"duration":0.12184857500000135},{"name":"A3","midi":57,"time":179.49555599999903,"velocity":0.6299212598425197,"duration":0.12184857500000135},{"name":"G#2","midi":44,"time":179.49555599999903,"velocity":0.9291338582677166,"duration":0.1859241187499947},{"name":"G#4","midi":68,"time":179.49555599999903,"velocity":0.968503937007874,"duration":0.44012545625002986},{"name":"G#1","midi":32,"time":179.74765649999904,"velocity":0.7401574803149606,"duration":0.23004170625000597},{"name":"B5","midi":83,"time":179.74765649999904,"velocity":0.9291338582677166,"duration":1.2573512437501506},{"name":"G#3","midi":56,"time":179.74765649999904,"velocity":0.4015748031496063,"duration":0.1386552750000476},{"name":"B3","midi":59,"time":179.74765649999904,"velocity":0.6535433070866141,"duration":0.16281490625004835},{"name":"D#4","midi":63,"time":179.74765649999904,"velocity":0.5039370078740157,"duration":0.16806700000003616},{"name":"B3","midi":59,"time":179.74765649999904,"velocity":0.889763779527559,"duration":0.25945343125002296},{"name":"G#2","midi":44,"time":179.74765649999904,"velocity":0.9291338582677166,"duration":0.18592411875002313},{"name":"G#1","midi":32,"time":179.99975699999905,"velocity":0.7401574803149606,"duration":0.23004170625000597},{"name":"A#5","midi":82,"time":179.99975699999905,"velocity":0.8188976377952756,"duration":0.24789882500002136},{"name":"G#3","midi":56,"time":179.99975699999905,"velocity":0.5275590551181102,"duration":0.09138643125001522},{"name":"B3","midi":59,"time":179.99975699999905,"velocity":0.6220472440944882,"duration":0.10924355000000219},{"name":"D#4","midi":63,"time":179.99975699999905,"velocity":0.5039370078740157,"duration":0.11029396874999975},{"name":"B1","midi":35,"time":179.99975699999905,"velocity":0.9291338582677166,"duration":0.12184857500000135},{"name":"D2","midi":38,"time":179.99975699999905,"velocity":0.9291338582677166,"duration":0.12184857500000135},{"name":"D#2","midi":39,"time":179.99975699999905,"velocity":0.9291338582677166,"duration":0.12184857500000135},{"name":"G3","midi":55,"time":179.99975699999905,"velocity":0.6299212598425197,"duration":0.12184857500000135},{"name":"G#2","midi":44,"time":179.99975699999905,"velocity":0.9291338582677166,"duration":0.1859241187499947},{"name":"G#4","midi":68,"time":179.99975699999905,"velocity":0.968503937007874,"duration":0.43592378125006803},{"name":"G#1","midi":32,"time":180.25185749999906,"velocity":0.7401574803149606,"duration":0.23004170625006282},{"name":"F#5","midi":78,"time":180.25185749999906,"velocity":0.9133858267716536,"duration":0.4810917875001053},{"name":"G#3","midi":56,"time":180.25185749999906,"velocity":0.5826771653543307,"duration":0.397058287500073},{"name":"B3","midi":59,"time":180.25185749999906,"velocity":0.6535433070866141,"duration":0.28046180625005945},{"name":"D#4","midi":63,"time":180.25185749999906,"velocity":0.5511811023622047,"duration":0.40651205625007947},{"name":"B3","midi":59,"time":180.25185749999906,"velocity":0.8503937007874016,"duration":0.4033608000000868},{"name":"G#2","midi":44,"time":180.25185749999906,"velocity":0.9291338582677166,"duration":0.18592411875005155},{"name":"D#2","midi":39,"time":180.50395799999913,"velocity":0.7401574803149606,"duration":0.2300417062500344},{"name":"B1","midi":35,"time":180.50395799999913,"velocity":0.9291338582677166,"duration":0.12184857500000135},{"name":"G3","midi":55,"time":180.50395799999913,"velocity":0.6299212598425197,"duration":0.12184857500000135},{"name":"D#3","midi":51,"time":180.50395799999913,"velocity":0.9291338582677166,"duration":0.18592411875002313},{"name":"D#2","midi":39,"time":180.75605849999917,"velocity":0.7401574803149606,"duration":0.23004170625000597},{"name":"B5","midi":83,"time":180.75605849999917,"velocity":0.8582677165354331,"duration":2.7689038249999385},{"name":"G#3","midi":56,"time":180.75605849999917,"velocity":0.5275590551181102,"duration":0.10714271249997864},{"name":"B3","midi":59,"time":180.75605849999917,"velocity":0.5590551181102362,"duration":0.1029410374999884},{"name":"D#4","midi":63,"time":180.75605849999917,"velocity":0.4881889763779528,"duration":0.17541993124999067},{"name":"B3","midi":59,"time":180.75605849999917,"velocity":0.889763779527559,"duration":0.2846634812500213},{"name":"D#3","midi":51,"time":180.75605849999917,"velocity":0.9291338582677166,"duration":0.1859241187499947},{"name":"G#1","midi":32,"time":181.00815899999918,"velocity":0.7401574803149606,"duration":0.2300417062500344},{"name":"A#5","midi":82,"time":181.00815899999918,"velocity":0.8582677165354331,"duration":0.23319296250002708},{"name":"G#3","midi":56,"time":181.00815899999918,"velocity":0.4015748031496063,"duration":0.11659648125001354},{"name":"B3","midi":59,"time":181.00815899999918,"velocity":0.25196850393700787,"duration":0.04306716875001371},{"name":"D#4","midi":63,"time":181.00815899999918,"velocity":0.4409448818897638,"duration":0.15336113750001346},{"name":"B1","midi":35,"time":181.00815899999918,"velocity":0.9291338582677166,"duration":0.12184857500000135},{"name":"D2","midi":38,"time":181.00815899999918,"velocity":0.9291338582677166,"duration":0.12184857500000135},{"name":"D#2","midi":39,"time":181.00815899999918,"velocity":0.9291338582677166,"duration":0.12184857500000135},{"name":"G3","midi":55,"time":181.00815899999918,"velocity":0.6299212598425197,"duration":0.12184857500000135},{"name":"G#2","midi":44,"time":181.00815899999918,"velocity":0.9291338582677166,"duration":0.18592411875002313},{"name":"G#1","midi":32,"time":181.26025949999922,"velocity":0.7401574803149606,"duration":0.23004170625000597},{"name":"F#5","midi":78,"time":181.26025949999922,"velocity":0.8582677165354331,"duration":0.4999993249999761},{"name":"E3","midi":52,"time":181.26025949999922,"velocity":0.3464566929133858,"duration":0.4033607999999731},{"name":"G#3","midi":56,"time":181.26025949999922,"velocity":0.4566929133858268,"duration":0.4033607999999731},{"name":"B3","midi":59,"time":181.26025949999922,"velocity":0.4094488188976378,"duration":0.3981087062499853},{"name":"D#4","midi":63,"time":181.26025949999922,"velocity":0.7086614173228346,"duration":0.2510500812499856},{"name":"G#2","midi":44,"time":181.26025949999922,"velocity":0.9291338582677166,"duration":0.1859241187499947},{"name":"G#1","midi":32,"time":181.5123599999992,"velocity":0.7401574803149606,"duration":0.23004170625000597},{"name":"E5","midi":76,"time":181.5123599999992,"velocity":0.8110236220472441,"duration":0.7153351687499878},{"name":"E4","midi":64,"time":181.5123599999992,"velocity":0.8503937007874016,"duration":0.8518896062500119},{"name":"B1","midi":35,"time":181.5123599999992,"velocity":0.9291338582677166,"duration":0.12184857500000135},{"name":"G3","midi":55,"time":181.5123599999992,"velocity":0.6299212598425197,"duration":0.12184857500000135},{"name":"G#2","midi":44,"time":181.5123599999992,"velocity":0.9291338582677166,"duration":0.1859241187499947},{"name":"G#1","midi":32,"time":181.7644604999992,"velocity":0.7401574803149606,"duration":0.23004170625000597},{"name":"F#5","midi":78,"time":181.7644604999992,"velocity":0.8582677165354331,"duration":0.21113416874999302},{"name":"E3","midi":52,"time":181.7644604999992,"velocity":0.31496062992125984,"duration":0.0399159124999926},{"name":"G#3","midi":56,"time":181.7644604999992,"velocity":0.4251968503937008,"duration":0.08403350000000387},{"name":"B3","midi":59,"time":181.7644604999992,"velocity":0.13385826771653545,"duration":0.04726884375000395},{"name":"G#2","midi":44,"time":181.7644604999992,"velocity":0.9291338582677166,"duration":0.1859241187499947},{"name":"E2","midi":40,"time":182.0165609999992,"velocity":0.7401574803149606,"duration":0.23004170625000597},{"name":"E5","midi":76,"time":182.0165609999992,"velocity":0.8582677165354331,"duration":0.46323466875003305},{"name":"E3","midi":52,"time":182.0165609999992,"velocity":0.4330708661417323,"duration":0.09663852500000303},{"name":"G#3","midi":56,"time":182.0165609999992,"velocity":0.6456692913385826,"duration":0.09978978124999571},{"name":"B3","midi":59,"time":182.0165609999992,"velocity":0.5354330708661418,"duration":0.08508391875000143},{"name":"B1","midi":35,"time":182.0165609999992,"velocity":0.9291338582677166,"duration":0.12184857500000135},{"name":"D2","midi":38,"time":182.0165609999992,"velocity":0.9291338582677166,"duration":0.12184857500000135},{"name":"D#2","midi":39,"time":182.0165609999992,"velocity":0.9291338582677166,"duration":0.12184857500000135},{"name":"G3","midi":55,"time":182.0165609999992,"velocity":0.6299212598425197,"duration":0.12184857500000135},{"name":"E3","midi":52,"time":182.0165609999992,"velocity":0.9291338582677166,"duration":0.1859241187499947},{"name":"B1","midi":35,"time":182.2686614999992,"velocity":0.7401574803149606,"duration":0.2300417062500344},{"name":"E5","midi":76,"time":182.2686614999992,"velocity":0.8582677165354331,"duration":0.46323466875000463},{"name":"E3","midi":52,"time":182.2686614999992,"velocity":0.4566929133858268,"duration":0.19537788750000118},{"name":"G#3","midi":56,"time":182.2686614999992,"velocity":0.5511811023622047,"duration":0.20798291250002876},{"name":"B3","midi":59,"time":182.2686614999992,"velocity":0.5590551181102362,"duration":0.20168040000001497},{"name":"B2","midi":47,"time":182.2686614999992,"velocity":0.9291338582677166,"duration":0.1859241187499947},{"name":"F#2","midi":42,"time":182.52076199999925,"velocity":0.7401574803149606,"duration":0.23004170624997755},{"name":"E5","midi":76,"time":182.52076199999925,"velocity":0.8582677165354331,"duration":0.4663859249999689},{"name":"E3","midi":52,"time":182.52076199999925,"velocity":0.5039370078740157,"duration":0.15020988124999235},{"name":"G#3","midi":56,"time":182.52076199999925,"velocity":0.6456692913385826,"duration":0.15546197499998016},{"name":"B3","midi":59,"time":182.52076199999925,"velocity":0.6220472440944882,"duration":0.15020988124999235},{"name":"B1","midi":35,"time":182.52076199999925,"velocity":0.9291338582677166,"duration":0.12184857500000135},{"name":"G3","midi":55,"time":182.52076199999925,"velocity":0.6299212598425197,"duration":0.12184857500000135},{"name":"F#3","midi":54,"time":182.52076199999925,"velocity":0.9291338582677166,"duration":0.18592411874996628},{"name":"F#2","midi":42,"time":182.77286249999923,"velocity":0.7401574803149606,"duration":0.23004170624997755},{"name":"E5","midi":76,"time":182.77286249999923,"velocity":0.8582677165354331,"duration":0.7184864249998952},{"name":"E3","midi":52,"time":182.77286249999923,"velocity":0.5354330708661418,"duration":0.2226887749999662},{"name":"G#3","midi":56,"time":182.77286249999923,"velocity":0.6771653543307087,"duration":0.22373919374996376},{"name":"B3","midi":59,"time":182.77286249999923,"velocity":0.6220472440944882,"duration":0.21848709999997595},{"name":"E4","midi":64,"time":182.77286249999923,"velocity":0.8503937007874016,"duration":0.24789882499996452},{"name":"F#3","midi":54,"time":182.77286249999923,"velocity":0.9291338582677166,"duration":0.1859241187499947},{"name":"F#2","midi":42,"time":183.0249629999992,"velocity":0.7401574803149606,"duration":0.23004170624997755},{"name":"D#5","midi":75,"time":183.0249629999992,"velocity":0.8582677165354331,"duration":0.2142854249999857},{"name":"D#4","midi":63,"time":183.0249629999992,"velocity":0.8503937007874016,"duration":0.24789882499996452},{"name":"B1","midi":35,"time":183.0249629999992,"velocity":0.9291338582677166,"duration":0.12184857500000135},{"name":"D2","midi":38,"time":183.0249629999992,"velocity":0.9291338582677166,"duration":0.12184857500000135},{"name":"D#2","midi":39,"time":183.0249629999992,"velocity":0.9291338582677166,"duration":0.12184857500000135},{"name":"G3","midi":55,"time":183.0249629999992,"velocity":0.6299212598425197,"duration":0.12184857500000135},{"name":"F#3","midi":54,"time":183.0249629999992,"velocity":0.9291338582677166,"duration":0.1859241187499947},{"name":"F#2","midi":42,"time":183.27706349999914,"velocity":0.7401574803149606,"duration":0.23004170624997755},{"name":"E5","midi":76,"time":183.27706349999914,"velocity":0.8582677165354331,"duration":0.24789882499996452},{"name":"E4","midi":64,"time":183.27706349999914,"velocity":0.8503937007874016,"duration":0.24789882499996452},{"name":"F#3","midi":54,"time":183.27706349999914,"velocity":0.9291338582677166,"duration":0.1859241187499947},{"name":"B1","midi":35,"time":183.5291639999991,"velocity":0.7401574803149606,"duration":0.12184857500000135},{"name":"B4","midi":71,"time":183.5291639999991,"velocity":0.8110236220472441,"duration":2.0126023249998752},{"name":"D#5","midi":75,"time":183.5291639999991,"velocity":0.8110236220472441,"duration":0.4999993249999761},{"name":"F#5","midi":78,"time":183.5291639999991,"velocity":0.8110236220472441,"duration":0.7184864249999521},{"name":"D#5","midi":75,"time":183.5291639999991,"velocity":0.8582677165354331,"duration":2.0126023249998752},{"name":"D#3","midi":51,"time":183.5291639999991,"velocity":0.7637795275590551,"duration":0.3771003312499772},{"name":"B3","midi":59,"time":183.5291639999991,"velocity":0.6535433070866141,"duration":0.3918061937499715},{"name":"D#4","midi":63,"time":183.5291639999991,"velocity":0.8503937007874016,"duration":0.24789882499999294},{"name":"B1","midi":35,"time":183.5291639999991,"velocity":0.9291338582677166,"duration":0.23004170625000597},{"name":"G3","midi":55,"time":183.5291639999991,"velocity":0.6299212598425197,"duration":0.12184857500000135},{"name":"B2","midi":47,"time":183.5291639999991,"velocity":0.9291338582677166,"duration":0.1859241187499947},{"name":"B1","midi":35,"time":183.78126449999908,"velocity":0.7401574803149606,"duration":0.23004170625000597},{"name":"B3","midi":59,"time":183.78126449999908,"velocity":0.8503937007874016,"duration":0.24789882499999294},{"name":"B2","midi":47,"time":183.78126449999908,"velocity":0.9291338582677166,"duration":0.1859241187499947},{"name":"B1","midi":35,"time":184.03336499999907,"velocity":0.7401574803149606,"duration":0.12184857500000135},{"name":"F#5","midi":78,"time":184.03336499999907,"velocity":0.8582677165354331,"duration":0.8445366749999152},{"name":"D#3","midi":51,"time":184.03336499999907,"velocity":0.6771653543307087,"duration":0.10924355000000219},{"name":"F#3","midi":54,"time":184.03336499999907,"velocity":0.6771653543307087,"duration":0.11344522499999243},{"name":"F#3","midi":54,"time":184.03336499999907,"velocity":0.8503937007874016,"duration":0.24789882499996452},{"name":"B1","midi":35,"time":184.03336499999907,"velocity":0.9291338582677166,"duration":0.23004170624997755},{"name":"D2","midi":38,"time":184.03336499999907,"velocity":0.9291338582677166,"duration":0.12184857500000135},{"name":"D#2","midi":39,"time":184.03336499999907,"velocity":0.9291338582677166,"duration":0.12184857500000135},{"name":"G3","midi":55,"time":184.03336499999907,"velocity":0.6299212598425197,"duration":0.12184857500000135},{"name":"B2","midi":47,"time":184.03336499999907,"velocity":0.9291338582677166,"duration":0.1859241187499947},{"name":"B1","midi":35,"time":184.28546549999902,"velocity":0.7401574803149606,"duration":0.23004170625000597},{"name":"F#5","midi":78,"time":184.28546549999902,"velocity":0.8582677165354331,"duration":1.256300824999954},{"name":"D#3","midi":51,"time":184.28546549999902,"velocity":0.6771653543307087,"duration":0.565125287499967},{"name":"F#3","midi":54,"time":184.28546549999902,"velocity":0.6456692913385826,"duration":0.4999993249999761},{"name":"E3","midi":52,"time":184.28546549999902,"velocity":0.8503937007874016,"duration":0.24789882499999294},{"name":"B2","midi":47,"time":184.28546549999902,"velocity":0.9291338582677166,"duration":0.1859241187499947},{"name":"F#1","midi":30,"time":184.537565999999,"velocity":0.7401574803149606,"duration":0.23004170625000597},{"name":"F#3","midi":54,"time":184.537565999999,"velocity":0.8503937007874016,"duration":0.3287810687499757},{"name":"B1","midi":35,"time":184.537565999999,"velocity":0.9291338582677166,"duration":0.12184857500000135},{"name":"G3","midi":55,"time":184.537565999999,"velocity":0.6299212598425197,"duration":0.12184857500000135},{"name":"F#2","midi":42,"time":184.537565999999,"velocity":0.9291338582677166,"duration":0.1859241187499947},{"name":"F#1","midi":30,"time":184.789666499999,"velocity":0.7401574803149606,"duration":0.23004170625000597},{"name":"D#4","midi":63,"time":184.789666499999,"velocity":0.8503937007874016,"duration":0.24789882499999294},{"name":"F#2","midi":42,"time":184.789666499999,"velocity":0.9291338582677166,"duration":0.1859241187499947},{"name":"B1","midi":35,"time":185.04176699999897,"velocity":0.7401574803149606,"duration":0.12184857500000135},{"name":"B1","midi":35,"time":185.04176699999897,"velocity":0.9291338582677166,"duration":0.23004170625000597},{"name":"D2","midi":38,"time":185.04176699999897,"velocity":0.9291338582677166,"duration":0.12184857500000135},{"name":"D#2","midi":39,"time":185.04176699999897,"velocity":0.9291338582677166,"duration":0.12184857500000135},{"name":"G3","midi":55,"time":185.04176699999897,"velocity":0.6299212598425197,"duration":0.12184857500000135},{"name":"B2","midi":47,"time":185.04176699999897,"velocity":0.9291338582677166,"duration":0.1859241187499947},{"name":"B1","midi":35,"time":185.29386749999898,"velocity":0.7401574803149606,"duration":0.23004170625000597},{"name":"B3","midi":59,"time":185.29386749999898,"velocity":0.8503937007874016,"duration":0.24789882499999294},{"name":"B2","midi":47,"time":185.29386749999898,"velocity":0.9291338582677166,"duration":0.1859241187499947},{"name":"A#1","midi":34,"time":185.54596799999896,"velocity":0.7401574803149606,"duration":0.23004170625000597},{"name":"A#4","midi":70,"time":185.54596799999896,"velocity":0.8110236220472441,"duration":0.24789882499999294},{"name":"C#5","midi":73,"time":185.54596799999896,"velocity":0.8110236220472441,"duration":1.2563008249999825},{"name":"A#5","midi":82,"time":185.54596799999896,"velocity":0.8110236220472441,"duration":2.0126023249998752},{"name":"A#4","midi":70,"time":185.54596799999896,"velocity":0.8582677165354331,"duration":0.7520998249999877},{"name":"A#3","midi":58,"time":185.54596799999896,"velocity":0.8740157480314961,"duration":2.0126023249998752},{"name":"C#4","midi":61,"time":185.54596799999896,"velocity":0.8503937007874016,"duration":1.0042003249999993},{"name":"B1","midi":35,"time":185.54596799999896,"velocity":0.9291338582677166,"duration":0.12184857500000135},{"name":"G3","midi":55,"time":185.54596799999896,"velocity":0.6299212598425197,"duration":0.12184857500000135},{"name":"A#2","midi":46,"time":185.54596799999896,"velocity":0.9291338582677166,"duration":0.1859241187499947},{"name":"A#2","midi":46,"time":185.56487553749898,"velocity":0.6771653543307087,"duration":0.23949547499998403},{"name":"A#1","midi":34,"time":185.79806849999895,"velocity":0.7401574803149606,"duration":0.23004170625000597},{"name":"B4","midi":71,"time":185.79806849999895,"velocity":0.8582677165354331,"duration":0.24789882500002136},{"name":"A#2","midi":46,"time":185.79806849999895,"velocity":0.9291338582677166,"duration":0.1859241187499947},{"name":"B2","midi":47,"time":185.82012729374895,"velocity":0.6220472440944882,"duration":0.21848710000000438},{"name":"A#1","midi":34,"time":186.05016899999896,"velocity":0.7401574803149606,"duration":0.23004170625000597},{"name":"G#5","midi":80,"time":186.05016899999896,"velocity":0.8110236220472441,"duration":1.3823510749999173},{"name":"A#4","midi":70,"time":186.05016899999896,"velocity":0.8582677165354331,"duration":0.7520998249999877},{"name":"B1","midi":35,"time":186.05016899999896,"velocity":0.9291338582677166,"duration":0.12184857500000135},{"name":"D2","midi":38,"time":186.05016899999896,"velocity":0.9291338582677166,"duration":0.12184857500000135},{"name":"D#2","midi":39,"time":186.05016899999896,"velocity":0.9291338582677166,"duration":0.12184857500000135},{"name":"G3","midi":55,"time":186.05016899999896,"velocity":0.6299212598425197,"duration":0.12184857500000135},{"name":"A#2","midi":46,"time":186.05016899999896,"velocity":0.9291338582677166,"duration":0.1859241187499947},{"name":"A#2","midi":46,"time":186.09113533124895,"velocity":0.6456692913385826,"duration":0.20273081875001253},{"name":"A#1","midi":34,"time":186.30226949999894,"velocity":0.7401574803149606,"duration":0.2300417062500344},{"name":"F#4","midi":66,"time":186.30226949999894,"velocity":0.8582677165354331,"duration":0.24789882500002136},{"name":"A#2","midi":46,"time":186.30226949999894,"velocity":0.9291338582677166,"duration":0.18592411875002313},{"name":"F#2","midi":42,"time":186.33588289999895,"velocity":0.8188976377952756,"duration":0.21428542500001413},{"name":"A#3","midi":58,"time":186.42831974999896,"velocity":0.8740157480314961,"duration":1.1302505749998772},{"name":"A#1","midi":34,"time":186.55436999999895,"velocity":0.7401574803149606,"duration":0.23004170625000597},{"name":"F#5","midi":78,"time":186.55436999999895,"velocity":0.8110236220472441,"duration":1.0042003249998857},{"name":"A#4","midi":70,"time":186.55436999999895,"velocity":0.8582677165354331,"duration":0.7520998249999309},{"name":"B1","midi":35,"time":186.55436999999895,"velocity":0.9291338582677166,"duration":0.12184857500000135},{"name":"G3","midi":55,"time":186.55436999999895,"velocity":0.6299212598425197,"duration":0.12184857500000135},{"name":"A#2","midi":46,"time":186.55436999999895,"velocity":0.9291338582677166,"duration":0.1859241187499947},{"name":"A#2","midi":46,"time":186.60794135624894,"velocity":0.7244094488188977,"duration":0.21848710000000438},{"name":"A#1","midi":34,"time":186.80647049999894,"velocity":0.7401574803149606,"duration":0.23004170625000597},{"name":"B4","midi":71,"time":186.80647049999894,"velocity":0.8582677165354331,"duration":0.24789882499999294},{"name":"A#2","midi":46,"time":186.80647049999894,"velocity":0.9291338582677166,"duration":0.1859241187499947},{"name":"B2","midi":47,"time":186.85268892499894,"velocity":0.7559055118110236,"duration":0.22163835624996864},{"name":"F#1","midi":30,"time":187.05857099999892,"velocity":0.7401574803149606,"duration":0.23004170624997755},{"name":"C#5","midi":73,"time":187.05857099999892,"velocity":0.8110236220472441,"duration":0.4999993249999193},{"name":"A#4","midi":70,"time":187.05857099999892,"velocity":0.8582677165354331,"duration":0.4999993249999193},{"name":"B1","midi":35,"time":187.05857099999892,"velocity":0.9291338582677166,"duration":0.12184857499997293},{"name":"D2","midi":38,"time":187.05857099999892,"velocity":0.9291338582677166,"duration":0.12184857499997293},{"name":"D#2","midi":39,"time":187.05857099999892,"velocity":0.9291338582677166,"duration":0.12184857499997293},{"name":"G3","midi":55,"time":187.05857099999892,"velocity":0.6299212598425197,"duration":0.12184857499997293},{"name":"F#2","midi":42,"time":187.05857099999892,"velocity":0.9291338582677166,"duration":0.18592411874996628},{"name":"A#2","midi":46,"time":187.1047894249989,"velocity":0.7637795275590551,"duration":0.22058793749997108},{"name":"F#1","midi":30,"time":187.31067149999888,"velocity":0.7401574803149606,"duration":0.23004170624997755},{"name":"F#4","midi":66,"time":187.31067149999888,"velocity":0.8582677165354331,"duration":0.24789882499996452},{"name":"F#2","midi":42,"time":187.31067149999888,"velocity":0.9291338582677166,"duration":0.1859241187499947},{"name":"F#2","midi":42,"time":187.33483113124888,"velocity":0.8188976377952756,"duration":0.16701658124998175},{"name":"G#1","midi":32,"time":187.56277199999883,"velocity":0.7401574803149606,"duration":0.23004170625000597},{"name":"D#5","midi":75,"time":187.56277199999883,"velocity":0.8110236220472441,"duration":2.012602325000188},{"name":"G#5","midi":80,"time":187.56277199999883,"velocity":0.8110236220472441,"duration":4.029406325000082},{"name":"B5","midi":83,"time":187.56277199999883,"velocity":0.8110236220472441,"duration":0.49999932500003297},{"name":"B1","midi":35,"time":187.56277199999883,"velocity":0.9291338582677166,"duration":0.12184857500000135},{"name":"A3","midi":57,"time":187.56277199999883,"velocity":0.6299212598425197,"duration":0.12184857500000135},{"name":"G#2","midi":44,"time":187.56277199999883,"velocity":0.9291338582677166,"duration":0.1859241187499947},{"name":"G#4","midi":68,"time":187.56277199999883,"velocity":0.968503937007874,"duration":0.44012545625002986},{"name":"G#1","midi":32,"time":187.81487249999884,"velocity":0.7401574803149606,"duration":0.23004170625000597},{"name":"B5","midi":83,"time":187.81487249999884,"velocity":0.9291338582677166,"duration":1.2573512437501506},{"name":"G#3","midi":56,"time":187.81487249999884,"velocity":0.4015748031496063,"duration":0.1386552750000476},{"name":"B3","midi":59,"time":187.81487249999884,"velocity":0.6535433070866141,"duration":0.16281490625004835},{"name":"D#4","midi":63,"time":187.81487249999884,"velocity":0.5039370078740157,"duration":0.16806700000003616},{"name":"B3","midi":59,"time":187.81487249999884,"velocity":0.889763779527559,"duration":0.25945343125002296},{"name":"G#2","midi":44,"time":187.81487249999884,"velocity":0.9291338582677166,"duration":0.18592411875002313},{"name":"G#1","midi":32,"time":188.06697299999885,"velocity":0.7401574803149606,"duration":0.23004170625000597},{"name":"A#5","midi":82,"time":188.06697299999885,"velocity":0.8188976377952756,"duration":0.24789882500002136},{"name":"G#3","midi":56,"time":188.06697299999885,"velocity":0.5275590551181102,"duration":0.09138643125001522},{"name":"B3","midi":59,"time":188.06697299999885,"velocity":0.6220472440944882,"duration":0.10924355000000219},{"name":"D#4","midi":63,"time":188.06697299999885,"velocity":0.5039370078740157,"duration":0.11029396874999975},{"name":"B1","midi":35,"time":188.06697299999885,"velocity":0.9291338582677166,"duration":0.12184857500000135},{"name":"D2","midi":38,"time":188.06697299999885,"velocity":0.9291338582677166,"duration":0.12184857500000135},{"name":"D#2","midi":39,"time":188.06697299999885,"velocity":0.9291338582677166,"duration":0.12184857500000135},{"name":"G3","midi":55,"time":188.06697299999885,"velocity":0.6299212598425197,"duration":0.12184857500000135},{"name":"G#2","midi":44,"time":188.06697299999885,"velocity":0.9291338582677166,"duration":0.1859241187499947},{"name":"G#4","midi":68,"time":188.06697299999885,"velocity":0.968503937007874,"duration":0.43592378125006803},{"name":"G#1","midi":32,"time":188.31907349999886,"velocity":0.7401574803149606,"duration":0.23004170625006282},{"name":"F#5","midi":78,"time":188.31907349999886,"velocity":0.9133858267716536,"duration":0.4810917875001053},{"name":"G#3","midi":56,"time":188.31907349999886,"velocity":0.5826771653543307,"duration":0.397058287500073},{"name":"B3","midi":59,"time":188.31907349999886,"velocity":0.6535433070866141,"duration":0.28046180625005945},{"name":"D#4","midi":63,"time":188.31907349999886,"velocity":0.5511811023622047,"duration":0.40651205625007947},{"name":"B3","midi":59,"time":188.31907349999886,"velocity":0.8503937007874016,"duration":0.4033608000000868},{"name":"G#2","midi":44,"time":188.31907349999886,"velocity":0.9291338582677166,"duration":0.18592411875005155},{"name":"D#2","midi":39,"time":188.57117399999893,"velocity":0.7401574803149606,"duration":0.2300417062500344},{"name":"B1","midi":35,"time":188.57117399999893,"velocity":0.9291338582677166,"duration":0.12184857500000135},{"name":"G3","midi":55,"time":188.57117399999893,"velocity":0.6299212598425197,"duration":0.12184857500000135},{"name":"D#3","midi":51,"time":188.57117399999893,"velocity":0.9291338582677166,"duration":0.18592411875002313},{"name":"D#2","midi":39,"time":188.82327449999897,"velocity":0.7401574803149606,"duration":0.23004170625000597},{"name":"B5","midi":83,"time":188.82327449999897,"velocity":0.8582677165354331,"duration":2.7689038249999385},{"name":"G#3","midi":56,"time":188.82327449999897,"velocity":0.5275590551181102,"duration":0.10714271249997864},{"name":"B3","midi":59,"time":188.82327449999897,"velocity":0.5590551181102362,"duration":0.1029410374999884},{"name":"D#4","midi":63,"time":188.82327449999897,"velocity":0.4881889763779528,"duration":0.17541993124999067},{"name":"B3","midi":59,"time":188.82327449999897,"velocity":0.889763779527559,"duration":0.2846634812500213},{"name":"D#3","midi":51,"time":188.82327449999897,"velocity":0.9291338582677166,"duration":0.1859241187499947},{"name":"G#1","midi":32,"time":189.07537499999899,"velocity":0.7401574803149606,"duration":0.2300417062500344},{"name":"A#5","midi":82,"time":189.07537499999899,"velocity":0.8582677165354331,"duration":0.23319296250002708},{"name":"G#3","midi":56,"time":189.07537499999899,"velocity":0.4015748031496063,"duration":0.11659648125001354},{"name":"B3","midi":59,"time":189.07537499999899,"velocity":0.25196850393700787,"duration":0.04306716875001371},{"name":"D#4","midi":63,"time":189.07537499999899,"velocity":0.4409448818897638,"duration":0.15336113750001346},{"name":"B1","midi":35,"time":189.07537499999899,"velocity":0.9291338582677166,"duration":0.12184857500000135},{"name":"D2","midi":38,"time":189.07537499999899,"velocity":0.9291338582677166,"duration":0.12184857500000135},{"name":"D#2","midi":39,"time":189.07537499999899,"velocity":0.9291338582677166,"duration":0.12184857500000135},{"name":"G3","midi":55,"time":189.07537499999899,"velocity":0.6299212598425197,"duration":0.12184857500000135},{"name":"G#2","midi":44,"time":189.07537499999899,"velocity":0.9291338582677166,"duration":0.18592411875002313},{"name":"G#1","midi":32,"time":189.32747549999903,"velocity":0.7401574803149606,"duration":0.23004170625000597},{"name":"F#5","midi":78,"time":189.32747549999903,"velocity":0.8582677165354331,"duration":0.4999993249999761},{"name":"E3","midi":52,"time":189.32747549999903,"velocity":0.3464566929133858,"duration":0.4033607999999731},{"name":"G#3","midi":56,"time":189.32747549999903,"velocity":0.4566929133858268,"duration":0.4033607999999731},{"name":"B3","midi":59,"time":189.32747549999903,"velocity":0.4094488188976378,"duration":0.3981087062499853},{"name":"D#4","midi":63,"time":189.32747549999903,"velocity":0.7086614173228346,"duration":0.2510500812499856},{"name":"G#2","midi":44,"time":189.32747549999903,"velocity":0.9291338582677166,"duration":0.1859241187499947},{"name":"G#1","midi":32,"time":189.579575999999,"velocity":0.7401574803149606,"duration":0.23004170625000597},{"name":"E5","midi":76,"time":189.579575999999,"velocity":0.8110236220472441,"duration":0.7153351687499878},{"name":"E4","midi":64,"time":189.579575999999,"velocity":0.8503937007874016,"duration":0.8518896062500119},{"name":"B1","midi":35,"time":189.579575999999,"velocity":0.9291338582677166,"duration":0.12184857500000135},{"name":"G3","midi":55,"time":189.579575999999,"velocity":0.6299212598425197,"duration":0.12184857500000135},{"name":"G#2","midi":44,"time":189.579575999999,"velocity":0.9291338582677166,"duration":0.1859241187499947},{"name":"G#1","midi":32,"time":189.831676499999,"velocity":0.7401574803149606,"duration":0.23004170625000597},{"name":"F#5","midi":78,"time":189.831676499999,"velocity":0.8582677165354331,"duration":0.21113416874999302},{"name":"E3","midi":52,"time":189.831676499999,"velocity":0.31496062992125984,"duration":0.0399159124999926},{"name":"G#3","midi":56,"time":189.831676499999,"velocity":0.4251968503937008,"duration":0.08403350000000387},{"name":"B3","midi":59,"time":189.831676499999,"velocity":0.13385826771653545,"duration":0.04726884375000395},{"name":"G#2","midi":44,"time":189.831676499999,"velocity":0.9291338582677166,"duration":0.1859241187499947},{"name":"E2","midi":40,"time":190.083776999999,"velocity":0.7401574803149606,"duration":0.23004170625000597},{"name":"E5","midi":76,"time":190.083776999999,"velocity":0.8582677165354331,"duration":0.46323466875003305},{"name":"E3","midi":52,"time":190.083776999999,"velocity":0.4330708661417323,"duration":0.09663852500000303},{"name":"G#3","midi":56,"time":190.083776999999,"velocity":0.6456692913385826,"duration":0.09978978124999571},{"name":"B3","midi":59,"time":190.083776999999,"velocity":0.5354330708661418,"duration":0.08508391875000143},{"name":"B1","midi":35,"time":190.083776999999,"velocity":0.9291338582677166,"duration":0.12184857500000135},{"name":"D2","midi":38,"time":190.083776999999,"velocity":0.9291338582677166,"duration":0.12184857500000135},{"name":"D#2","midi":39,"time":190.083776999999,"velocity":0.9291338582677166,"duration":0.12184857500000135},{"name":"G3","midi":55,"time":190.083776999999,"velocity":0.6299212598425197,"duration":0.12184857500000135},{"name":"E3","midi":52,"time":190.083776999999,"velocity":0.9291338582677166,"duration":0.1859241187499947},{"name":"B1","midi":35,"time":190.33587749999901,"velocity":0.7401574803149606,"duration":0.2300417062500344},{"name":"E5","midi":76,"time":190.33587749999901,"velocity":0.8582677165354331,"duration":0.46323466875000463},{"name":"E3","midi":52,"time":190.33587749999901,"velocity":0.4566929133858268,"duration":0.19537788750000118},{"name":"G#3","midi":56,"time":190.33587749999901,"velocity":0.5511811023622047,"duration":0.20798291250002876},{"name":"B3","midi":59,"time":190.33587749999901,"velocity":0.5590551181102362,"duration":0.20168040000001497},{"name":"B2","midi":47,"time":190.33587749999901,"velocity":0.9291338582677166,"duration":0.1859241187499947},{"name":"F#2","midi":42,"time":190.58797799999905,"velocity":0.7401574803149606,"duration":0.23004170624997755},{"name":"E5","midi":76,"time":190.58797799999905,"velocity":0.8582677165354331,"duration":0.4663859249999689},{"name":"E3","midi":52,"time":190.58797799999905,"velocity":0.5039370078740157,"duration":0.15020988124999235},{"name":"G#3","midi":56,"time":190.58797799999905,"velocity":0.6456692913385826,"duration":0.15546197499998016},{"name":"B3","midi":59,"time":190.58797799999905,"velocity":0.6220472440944882,"duration":0.15020988124999235},{"name":"B1","midi":35,"time":190.58797799999905,"velocity":0.9291338582677166,"duration":0.12184857500000135},{"name":"G3","midi":55,"time":190.58797799999905,"velocity":0.6299212598425197,"duration":0.12184857500000135},{"name":"F#3","midi":54,"time":190.58797799999905,"velocity":0.9291338582677166,"duration":0.18592411874996628},{"name":"F#2","midi":42,"time":190.84007849999904,"velocity":0.7401574803149606,"duration":0.23004170624997755},{"name":"E5","midi":76,"time":190.84007849999904,"velocity":0.8582677165354331,"duration":0.7184864249998952},{"name":"E3","midi":52,"time":190.84007849999904,"velocity":0.5354330708661418,"duration":0.2226887749999662},{"name":"G#3","midi":56,"time":190.84007849999904,"velocity":0.6771653543307087,"duration":0.22373919374996376},{"name":"B3","midi":59,"time":190.84007849999904,"velocity":0.6220472440944882,"duration":0.21848709999997595},{"name":"E4","midi":64,"time":190.84007849999904,"velocity":0.8503937007874016,"duration":0.24789882499996452},{"name":"F#3","midi":54,"time":190.84007849999904,"velocity":0.9291338582677166,"duration":0.1859241187499947},{"name":"F#2","midi":42,"time":191.092178999999,"velocity":0.7401574803149606,"duration":0.23004170624997755},{"name":"D#5","midi":75,"time":191.092178999999,"velocity":0.8582677165354331,"duration":0.2142854249999857},{"name":"D#4","midi":63,"time":191.092178999999,"velocity":0.8503937007874016,"duration":0.24789882499996452},{"name":"B1","midi":35,"time":191.092178999999,"velocity":0.9291338582677166,"duration":0.12184857500000135},{"name":"D2","midi":38,"time":191.092178999999,"velocity":0.9291338582677166,"duration":0.12184857500000135},{"name":"D#2","midi":39,"time":191.092178999999,"velocity":0.9291338582677166,"duration":0.12184857500000135},{"name":"G3","midi":55,"time":191.092178999999,"velocity":0.6299212598425197,"duration":0.12184857500000135},{"name":"F#3","midi":54,"time":191.092178999999,"velocity":0.9291338582677166,"duration":0.1859241187499947},{"name":"F#2","midi":42,"time":191.34427949999895,"velocity":0.7401574803149606,"duration":0.23004170624997755},{"name":"E5","midi":76,"time":191.34427949999895,"velocity":0.8582677165354331,"duration":0.24789882499996452},{"name":"E4","midi":64,"time":191.34427949999895,"velocity":0.8503937007874016,"duration":0.24789882499996452},{"name":"F#3","midi":54,"time":191.34427949999895,"velocity":0.9291338582677166,"duration":0.1859241187499947},{"name":"B1","midi":35,"time":191.5963799999989,"velocity":0.7401574803149606,"duration":0.12184857500000135},{"name":"B4","midi":71,"time":191.5963799999989,"velocity":0.8110236220472441,"duration":2.0126023249998752},{"name":"D#5","midi":75,"time":191.5963799999989,"velocity":0.8110236220472441,"duration":0.4999993249999761},{"name":"F#5","midi":78,"time":191.5963799999989,"velocity":0.8110236220472441,"duration":0.7184864249999521},{"name":"D#5","midi":75,"time":191.5963799999989,"velocity":0.8582677165354331,"duration":2.0126023249998752},{"name":"D#3","midi":51,"time":191.5963799999989,"velocity":0.7637795275590551,"duration":0.3771003312499772},{"name":"B3","midi":59,"time":191.5963799999989,"velocity":0.6535433070866141,"duration":0.3918061937499715},{"name":"D#4","midi":63,"time":191.5963799999989,"velocity":0.8503937007874016,"duration":0.24789882499999294},{"name":"B1","midi":35,"time":191.5963799999989,"velocity":0.9291338582677166,"duration":0.23004170625000597},{"name":"G3","midi":55,"time":191.5963799999989,"velocity":0.6299212598425197,"duration":0.12184857500000135},{"name":"B2","midi":47,"time":191.5963799999989,"velocity":0.9291338582677166,"duration":0.1859241187499947},{"name":"B1","midi":35,"time":191.84848049999889,"velocity":0.7401574803149606,"duration":0.23004170625000597},{"name":"B3","midi":59,"time":191.84848049999889,"velocity":0.8503937007874016,"duration":0.24789882499999294},{"name":"B2","midi":47,"time":191.84848049999889,"velocity":0.9291338582677166,"duration":0.1859241187499947},{"name":"B1","midi":35,"time":192.10058099999887,"velocity":0.7401574803149606,"duration":0.12184857500000135},{"name":"F#5","midi":78,"time":192.10058099999887,"velocity":0.8582677165354331,"duration":0.8445366749999152},{"name":"D#3","midi":51,"time":192.10058099999887,"velocity":0.6771653543307087,"duration":0.10924355000000219},{"name":"F#3","midi":54,"time":192.10058099999887,"velocity":0.6771653543307087,"duration":0.11344522499999243},{"name":"F#3","midi":54,"time":192.10058099999887,"velocity":0.8503937007874016,"duration":0.24789882499996452},{"name":"B1","midi":35,"time":192.10058099999887,"velocity":0.9291338582677166,"duration":0.23004170624997755},{"name":"D2","midi":38,"time":192.10058099999887,"velocity":0.9291338582677166,"duration":0.12184857500000135},{"name":"D#2","midi":39,"time":192.10058099999887,"velocity":0.9291338582677166,"duration":0.12184857500000135},{"name":"G3","midi":55,"time":192.10058099999887,"velocity":0.6299212598425197,"duration":0.12184857500000135},{"name":"B2","midi":47,"time":192.10058099999887,"velocity":0.9291338582677166,"duration":0.1859241187499947},{"name":"B1","midi":35,"time":192.35268149999882,"velocity":0.7401574803149606,"duration":0.23004170625000597},{"name":"F#5","midi":78,"time":192.35268149999882,"velocity":0.8582677165354331,"duration":1.256300824999954},{"name":"D#3","midi":51,"time":192.35268149999882,"velocity":0.6771653543307087,"duration":0.565125287499967},{"name":"F#3","midi":54,"time":192.35268149999882,"velocity":0.6456692913385826,"duration":0.4999993249999761},{"name":"E3","midi":52,"time":192.35268149999882,"velocity":0.8503937007874016,"duration":0.24789882499999294},{"name":"B2","midi":47,"time":192.35268149999882,"velocity":0.9291338582677166,"duration":0.1859241187499947},{"name":"F#1","midi":30,"time":192.6047819999988,"velocity":0.7401574803149606,"duration":0.23004170625000597},{"name":"F#3","midi":54,"time":192.6047819999988,"velocity":0.8503937007874016,"duration":0.3287810687499757},{"name":"B1","midi":35,"time":192.6047819999988,"velocity":0.9291338582677166,"duration":0.12184857500000135},{"name":"G3","midi":55,"time":192.6047819999988,"velocity":0.6299212598425197,"duration":0.12184857500000135},{"name":"F#2","midi":42,"time":192.6047819999988,"velocity":0.9291338582677166,"duration":0.1859241187499947},{"name":"F#1","midi":30,"time":192.8568824999988,"velocity":0.7401574803149606,"duration":0.23004170625000597},{"name":"D#4","midi":63,"time":192.8568824999988,"velocity":0.8503937007874016,"duration":0.24789882499999294},{"name":"F#2","midi":42,"time":192.8568824999988,"velocity":0.9291338582677166,"duration":0.1859241187499947},{"name":"B1","midi":35,"time":193.10898299999877,"velocity":0.7401574803149606,"duration":0.12184857500000135},{"name":"B1","midi":35,"time":193.10898299999877,"velocity":0.9291338582677166,"duration":0.23004170625000597},{"name":"D2","midi":38,"time":193.10898299999877,"velocity":0.9291338582677166,"duration":0.12184857500000135},{"name":"D#2","midi":39,"time":193.10898299999877,"velocity":0.9291338582677166,"duration":0.12184857500000135},{"name":"G3","midi":55,"time":193.10898299999877,"velocity":0.6299212598425197,"duration":0.12184857500000135},{"name":"B2","midi":47,"time":193.10898299999877,"velocity":0.9291338582677166,"duration":0.1859241187499947},{"name":"B1","midi":35,"time":193.36108349999878,"velocity":0.7401574803149606,"duration":0.23004170625000597},{"name":"B3","midi":59,"time":193.36108349999878,"velocity":0.8503937007874016,"duration":0.24789882499999294},{"name":"B2","midi":47,"time":193.36108349999878,"velocity":0.9291338582677166,"duration":0.1859241187499947},{"name":"A#1","midi":34,"time":193.61318399999877,"velocity":0.7401574803149606,"duration":0.23004170625000597},{"name":"A#4","midi":70,"time":193.61318399999877,"velocity":0.8110236220472441,"duration":0.24789882499999294},{"name":"C#5","midi":73,"time":193.61318399999877,"velocity":0.8110236220472441,"duration":1.256300824999954},{"name":"A#5","midi":82,"time":193.61318399999877,"velocity":0.8110236220472441,"duration":2.012602324999847},{"name":"A#4","midi":70,"time":193.61318399999877,"velocity":0.8582677165354331,"duration":0.7520998249999877},{"name":"C#4","midi":61,"time":193.61318399999877,"velocity":0.8503937007874016,"duration":1.004200324999971},{"name":"B1","midi":35,"time":193.61318399999877,"velocity":0.9291338582677166,"duration":0.12184857500000135},{"name":"G3","midi":55,"time":193.61318399999877,"velocity":0.6299212598425197,"duration":0.12184857500000135},{"name":"A#2","midi":46,"time":193.61318399999877,"velocity":0.9291338582677166,"duration":0.1859241187499947},{"name":"A#2","midi":46,"time":193.63209153749878,"velocity":0.6771653543307087,"duration":0.23949547499998403},{"name":"A#1","midi":34,"time":193.86528449999875,"velocity":0.7401574803149606,"duration":0.23004170625000597},{"name":"B4","midi":71,"time":193.86528449999875,"velocity":0.8582677165354331,"duration":0.24789882500002136},{"name":"A#2","midi":46,"time":193.86528449999875,"velocity":0.9291338582677166,"duration":0.1859241187499947},{"name":"B2","midi":47,"time":193.88734329374876,"velocity":0.6220472440944882,"duration":0.21848710000000438},{"name":"A#1","midi":34,"time":194.11738499999876,"velocity":0.7401574803149606,"duration":0.23004170625000597},{"name":"G#5","midi":80,"time":194.11738499999876,"velocity":0.8110236220472441,"duration":1.3823510749998889},{"name":"A#4","midi":70,"time":194.11738499999876,"velocity":0.8582677165354331,"duration":0.7520998249999593},{"name":"B1","midi":35,"time":194.11738499999876,"velocity":0.9291338582677166,"duration":0.12184857500000135},{"name":"D2","midi":38,"time":194.11738499999876,"velocity":0.9291338582677166,"duration":0.12184857500000135},{"name":"D#2","midi":39,"time":194.11738499999876,"velocity":0.9291338582677166,"duration":0.12184857500000135},{"name":"G3","midi":55,"time":194.11738499999876,"velocity":0.6299212598425197,"duration":0.12184857500000135},{"name":"A#2","midi":46,"time":194.11738499999876,"velocity":0.9291338582677166,"duration":0.1859241187499947},{"name":"A#2","midi":46,"time":194.15835133124875,"velocity":0.6456692913385826,"duration":0.20273081875001253},{"name":"A#1","midi":34,"time":194.36948549999875,"velocity":0.7401574803149606,"duration":0.23004170625000597},{"name":"F#4","midi":66,"time":194.36948549999875,"velocity":0.8582677165354331,"duration":0.24789882499999294},{"name":"A#2","midi":46,"time":194.36948549999875,"velocity":0.9291338582677166,"duration":0.1859241187499947},{"name":"F#2","midi":42,"time":194.40309889999875,"velocity":0.8188976377952756,"duration":0.2142854249999857},{"name":"A#1","midi":34,"time":194.62158599999873,"velocity":0.7401574803149606,"duration":0.23004170625000597},{"name":"F#5","midi":78,"time":194.62158599999873,"velocity":0.8110236220472441,"duration":1.0042003249998857},{"name":"A#4","midi":70,"time":194.62158599999873,"velocity":0.8582677165354331,"duration":0.7520998249999309},{"name":"B1","midi":35,"time":194.62158599999873,"velocity":0.9291338582677166,"duration":0.12184857500000135},{"name":"G3","midi":55,"time":194.62158599999873,"velocity":0.6299212598425197,"duration":0.12184857500000135},{"name":"A#2","midi":46,"time":194.62158599999873,"velocity":0.9291338582677166,"duration":0.1859241187499947},{"name":"A#2","midi":46,"time":194.67515735624872,"velocity":0.7244094488188977,"duration":0.21848710000000438},{"name":"A#1","midi":34,"time":194.8736864999987,"velocity":0.7401574803149606,"duration":0.23004170625000597},{"name":"B4","midi":71,"time":194.8736864999987,"velocity":0.8582677165354331,"duration":0.24789882499999294},{"name":"A#2","midi":46,"time":194.8736864999987,"velocity":0.9291338582677166,"duration":0.1859241187499947},{"name":"B2","midi":47,"time":194.91990492499872,"velocity":0.7559055118110236,"duration":0.22163835624996864},{"name":"F#1","midi":30,"time":195.1257869999987,"velocity":0.7401574803149606,"duration":0.23004170624997755},{"name":"C#5","midi":73,"time":195.1257869999987,"velocity":0.8110236220472441,"duration":0.4999993249999193},{"name":"A#4","midi":70,"time":195.1257869999987,"velocity":0.8582677165354331,"duration":0.4999993249999193},{"name":"B1","midi":35,"time":195.1257869999987,"velocity":0.9291338582677166,"duration":0.12184857499997293},{"name":"D2","midi":38,"time":195.1257869999987,"velocity":0.9291338582677166,"duration":0.12184857499997293},{"name":"D#2","midi":39,"time":195.1257869999987,"velocity":0.9291338582677166,"duration":0.12184857499997293},{"name":"G3","midi":55,"time":195.1257869999987,"velocity":0.6299212598425197,"duration":0.12184857499997293},{"name":"F#2","midi":42,"time":195.1257869999987,"velocity":0.9291338582677166,"duration":0.18592411874996628},{"name":"A#2","midi":46,"time":195.17200542499867,"velocity":0.7637795275590551,"duration":0.22058793749997108},{"name":"F#1","midi":30,"time":195.37788749999865,"velocity":0.7401574803149606,"duration":0.23004170624997755},{"name":"F#4","midi":66,"time":195.37788749999865,"velocity":0.8582677165354331,"duration":0.24789882499996452},{"name":"F#2","midi":42,"time":195.37788749999865,"velocity":0.9291338582677166,"duration":0.1859241187499947},{"name":"F#2","midi":42,"time":195.40204713124865,"velocity":0.8188976377952756,"duration":0.16701658124998175},{"name":"G#1","midi":32,"time":195.6299879999986,"velocity":0.7401574803149606,"duration":0.23004170625000597},{"name":"D#5","midi":75,"time":195.6299879999986,"velocity":0.8110236220472441,"duration":2.012602325000188},{"name":"G#5","midi":80,"time":195.6299879999986,"velocity":0.8110236220472441,"duration":4.029406325000082},{"name":"B5","midi":83,"time":195.6299879999986,"velocity":0.8110236220472441,"duration":0.49999932500003297},{"name":"B1","midi":35,"time":195.6299879999986,"velocity":0.9291338582677166,"duration":0.12184857500000135},{"name":"C#3","midi":49,"time":195.6299879999986,"velocity":0.6299212598425197,"duration":0.12184857500000135},{"name":"G#2","midi":44,"time":195.6299879999986,"velocity":0.9291338582677166,"duration":0.1859241187499947},{"name":"G#4","midi":68,"time":195.6299879999986,"velocity":0.968503937007874,"duration":0.44012545625002986},{"name":"G#1","midi":32,"time":195.88208849999862,"velocity":0.7401574803149606,"duration":0.23004170625000597},{"name":"B5","midi":83,"time":195.88208849999862,"velocity":0.9291338582677166,"duration":1.2573512437501506},{"name":"G#3","midi":56,"time":195.88208849999862,"velocity":0.4015748031496063,"duration":0.1386552750000476},{"name":"B3","midi":59,"time":195.88208849999862,"velocity":0.6535433070866141,"duration":0.16281490625004835},{"name":"D#4","midi":63,"time":195.88208849999862,"velocity":0.5039370078740157,"duration":0.16806700000003616},{"name":"B3","midi":59,"time":195.88208849999862,"velocity":0.889763779527559,"duration":0.25945343125002296},{"name":"G#2","midi":44,"time":195.88208849999862,"velocity":0.9291338582677166,"duration":0.18592411875002313},{"name":"G#1","midi":32,"time":196.13418899999863,"velocity":0.7401574803149606,"duration":0.23004170625000597},{"name":"A#5","midi":82,"time":196.13418899999863,"velocity":0.8188976377952756,"duration":0.24789882500002136},{"name":"G#3","midi":56,"time":196.13418899999863,"velocity":0.5275590551181102,"duration":0.09138643125001522},{"name":"B3","midi":59,"time":196.13418899999863,"velocity":0.6220472440944882,"duration":0.10924355000000219},{"name":"D#4","midi":63,"time":196.13418899999863,"velocity":0.5039370078740157,"duration":0.11029396874999975},{"name":"B1","midi":35,"time":196.13418899999863,"velocity":0.9291338582677166,"duration":0.12184857500000135},{"name":"D2","midi":38,"time":196.13418899999863,"velocity":0.9291338582677166,"duration":0.12184857500000135},{"name":"D#2","midi":39,"time":196.13418899999863,"velocity":0.9291338582677166,"duration":0.12184857500000135},{"name":"G3","midi":55,"time":196.13418899999863,"velocity":0.6299212598425197,"duration":0.12184857500000135},{"name":"G#2","midi":44,"time":196.13418899999863,"velocity":0.9291338582677166,"duration":0.1859241187499947},{"name":"G#4","midi":68,"time":196.13418899999863,"velocity":0.968503937007874,"duration":0.43592378125006803},{"name":"G#1","midi":32,"time":196.38628949999864,"velocity":0.7401574803149606,"duration":0.23004170625006282},{"name":"F#5","midi":78,"time":196.38628949999864,"velocity":0.9133858267716536,"duration":0.4810917875001053},{"name":"G#3","midi":56,"time":196.38628949999864,"velocity":0.5826771653543307,"duration":0.397058287500073},{"name":"B3","midi":59,"time":196.38628949999864,"velocity":0.6535433070866141,"duration":0.28046180625005945},{"name":"D#4","midi":63,"time":196.38628949999864,"velocity":0.5511811023622047,"duration":0.40651205625007947},{"name":"B3","midi":59,"time":196.38628949999864,"velocity":0.8503937007874016,"duration":0.4033608000000868},{"name":"G#2","midi":44,"time":196.38628949999864,"velocity":0.9291338582677166,"duration":0.18592411875005155},{"name":"D#2","midi":39,"time":196.6383899999987,"velocity":0.7401574803149606,"duration":0.2300417062500344},{"name":"B1","midi":35,"time":196.6383899999987,"velocity":0.9291338582677166,"duration":0.12184857500000135},{"name":"G3","midi":55,"time":196.6383899999987,"velocity":0.6299212598425197,"duration":0.12184857500000135},{"name":"D#3","midi":51,"time":196.6383899999987,"velocity":0.9291338582677166,"duration":0.18592411875002313},{"name":"D#2","midi":39,"time":196.89049049999875,"velocity":0.7401574803149606,"duration":0.23004170625000597},{"name":"B5","midi":83,"time":196.89049049999875,"velocity":0.8582677165354331,"duration":2.7689038249999385},{"name":"G#3","midi":56,"time":196.89049049999875,"velocity":0.5275590551181102,"duration":0.10714271249997864},{"name":"B3","midi":59,"time":196.89049049999875,"velocity":0.5590551181102362,"duration":0.1029410374999884},{"name":"D#4","midi":63,"time":196.89049049999875,"velocity":0.4881889763779528,"duration":0.17541993124999067},{"name":"B3","midi":59,"time":196.89049049999875,"velocity":0.889763779527559,"duration":0.2846634812500213},{"name":"D#3","midi":51,"time":196.89049049999875,"velocity":0.9291338582677166,"duration":0.1859241187499947},{"name":"G#1","midi":32,"time":197.14259099999876,"velocity":0.7401574803149606,"duration":0.2300417062500344},{"name":"A#5","midi":82,"time":197.14259099999876,"velocity":0.8582677165354331,"duration":0.23319296250002708},{"name":"G#3","midi":56,"time":197.14259099999876,"velocity":0.4015748031496063,"duration":0.11659648125001354},{"name":"B3","midi":59,"time":197.14259099999876,"velocity":0.25196850393700787,"duration":0.04306716875001371},{"name":"D#4","midi":63,"time":197.14259099999876,"velocity":0.4409448818897638,"duration":0.15336113750001346},{"name":"B1","midi":35,"time":197.14259099999876,"velocity":0.9291338582677166,"duration":0.12184857500000135},{"name":"D2","midi":38,"time":197.14259099999876,"velocity":0.9291338582677166,"duration":0.12184857500000135},{"name":"D#2","midi":39,"time":197.14259099999876,"velocity":0.9291338582677166,"duration":0.12184857500000135},{"name":"G3","midi":55,"time":197.14259099999876,"velocity":0.6299212598425197,"duration":0.12184857500000135},{"name":"G#2","midi":44,"time":197.14259099999876,"velocity":0.9291338582677166,"duration":0.18592411875002313},{"name":"G#1","midi":32,"time":197.3946914999988,"velocity":0.7401574803149606,"duration":0.23004170625000597},{"name":"F#5","midi":78,"time":197.3946914999988,"velocity":0.8582677165354331,"duration":0.4999993249999761},{"name":"E3","midi":52,"time":197.3946914999988,"velocity":0.3464566929133858,"duration":0.4033607999999731},{"name":"G#3","midi":56,"time":197.3946914999988,"velocity":0.4566929133858268,"duration":0.4033607999999731},{"name":"B3","midi":59,"time":197.3946914999988,"velocity":0.4094488188976378,"duration":0.3981087062499853},{"name":"D#4","midi":63,"time":197.3946914999988,"velocity":0.7086614173228346,"duration":0.2510500812499856},{"name":"G#2","midi":44,"time":197.3946914999988,"velocity":0.9291338582677166,"duration":0.1859241187499947},{"name":"G#1","midi":32,"time":197.64679199999878,"velocity":0.7401574803149606,"duration":0.23004170625000597},{"name":"E5","midi":76,"time":197.64679199999878,"velocity":0.8110236220472441,"duration":0.7153351687499878},{"name":"E4","midi":64,"time":197.64679199999878,"velocity":0.8503937007874016,"duration":0.8518896062500119},{"name":"B1","midi":35,"time":197.64679199999878,"velocity":0.9291338582677166,"duration":0.12184857500000135},{"name":"G3","midi":55,"time":197.64679199999878,"velocity":0.6299212598425197,"duration":0.12184857500000135},{"name":"G#2","midi":44,"time":197.64679199999878,"velocity":0.9291338582677166,"duration":0.1859241187499947},{"name":"G#1","midi":32,"time":197.89889249999877,"velocity":0.7401574803149606,"duration":0.23004170625000597},{"name":"F#5","midi":78,"time":197.89889249999877,"velocity":0.8582677165354331,"duration":0.21113416874999302},{"name":"E3","midi":52,"time":197.89889249999877,"velocity":0.31496062992125984,"duration":0.0399159124999926},{"name":"G#3","midi":56,"time":197.89889249999877,"velocity":0.4251968503937008,"duration":0.08403350000000387},{"name":"B3","midi":59,"time":197.89889249999877,"velocity":0.13385826771653545,"duration":0.04726884375000395},{"name":"G#2","midi":44,"time":197.89889249999877,"velocity":0.9291338582677166,"duration":0.1859241187499947},{"name":"E2","midi":40,"time":198.15099299999878,"velocity":0.7401574803149606,"duration":0.23004170625000597},{"name":"E5","midi":76,"time":198.15099299999878,"velocity":0.8582677165354331,"duration":0.46323466875003305},{"name":"E3","midi":52,"time":198.15099299999878,"velocity":0.4330708661417323,"duration":0.09663852500000303},{"name":"G#3","midi":56,"time":198.15099299999878,"velocity":0.6456692913385826,"duration":0.09978978124999571},{"name":"B3","midi":59,"time":198.15099299999878,"velocity":0.5354330708661418,"duration":0.08508391875000143},{"name":"B1","midi":35,"time":198.15099299999878,"velocity":0.9291338582677166,"duration":0.12184857500000135},{"name":"D2","midi":38,"time":198.15099299999878,"velocity":0.9291338582677166,"duration":0.12184857500000135},{"name":"D#2","midi":39,"time":198.15099299999878,"velocity":0.9291338582677166,"duration":0.12184857500000135},{"name":"G3","midi":55,"time":198.15099299999878,"velocity":0.6299212598425197,"duration":0.12184857500000135},{"name":"E3","midi":52,"time":198.15099299999878,"velocity":0.9291338582677166,"duration":0.1859241187499947},{"name":"B1","midi":35,"time":198.4030934999988,"velocity":0.7401574803149606,"duration":0.2300417062500344},{"name":"E5","midi":76,"time":198.4030934999988,"velocity":0.8582677165354331,"duration":0.46323466875000463},{"name":"E3","midi":52,"time":198.4030934999988,"velocity":0.4566929133858268,"duration":0.19537788750000118},{"name":"G#3","midi":56,"time":198.4030934999988,"velocity":0.5511811023622047,"duration":0.20798291250002876},{"name":"B3","midi":59,"time":198.4030934999988,"velocity":0.5590551181102362,"duration":0.20168040000001497},{"name":"B2","midi":47,"time":198.4030934999988,"velocity":0.9291338582677166,"duration":0.1859241187499947},{"name":"F#2","midi":42,"time":198.65519399999883,"velocity":0.7401574803149606,"duration":0.23004170624997755},{"name":"E5","midi":76,"time":198.65519399999883,"velocity":0.8582677165354331,"duration":0.4663859249999689},{"name":"E3","midi":52,"time":198.65519399999883,"velocity":0.5039370078740157,"duration":0.15020988124999235},{"name":"G#3","midi":56,"time":198.65519399999883,"velocity":0.6456692913385826,"duration":0.15546197499998016},{"name":"B3","midi":59,"time":198.65519399999883,"velocity":0.6220472440944882,"duration":0.15020988124999235},{"name":"B1","midi":35,"time":198.65519399999883,"velocity":0.9291338582677166,"duration":0.12184857500000135},{"name":"G3","midi":55,"time":198.65519399999883,"velocity":0.6299212598425197,"duration":0.12184857500000135},{"name":"F#3","midi":54,"time":198.65519399999883,"velocity":0.9291338582677166,"duration":0.18592411874996628},{"name":"F#2","midi":42,"time":198.9072944999988,"velocity":0.7401574803149606,"duration":0.23004170624997755},{"name":"E5","midi":76,"time":198.9072944999988,"velocity":0.8582677165354331,"duration":0.7184864249998952},{"name":"E3","midi":52,"time":198.9072944999988,"velocity":0.5354330708661418,"duration":0.2226887749999662},{"name":"G#3","midi":56,"time":198.9072944999988,"velocity":0.6771653543307087,"duration":0.22373919374996376},{"name":"B3","midi":59,"time":198.9072944999988,"velocity":0.6220472440944882,"duration":0.21848709999997595},{"name":"E4","midi":64,"time":198.9072944999988,"velocity":0.8503937007874016,"duration":0.24789882499996452},{"name":"F#3","midi":54,"time":198.9072944999988,"velocity":0.9291338582677166,"duration":0.1859241187499947},{"name":"F#2","midi":42,"time":199.15939499999877,"velocity":0.7401574803149606,"duration":0.23004170624997755},{"name":"D#5","midi":75,"time":199.15939499999877,"velocity":0.8582677165354331,"duration":0.2142854249999857},{"name":"D#4","midi":63,"time":199.15939499999877,"velocity":0.8503937007874016,"duration":0.24789882499996452},{"name":"B1","midi":35,"time":199.15939499999877,"velocity":0.9291338582677166,"duration":0.12184857500000135},{"name":"D2","midi":38,"time":199.15939499999877,"velocity":0.9291338582677166,"duration":0.12184857500000135},{"name":"D#2","midi":39,"time":199.15939499999877,"velocity":0.9291338582677166,"duration":0.12184857500000135},{"name":"G3","midi":55,"time":199.15939499999877,"velocity":0.6299212598425197,"duration":0.12184857500000135},{"name":"F#3","midi":54,"time":199.15939499999877,"velocity":0.9291338582677166,"duration":0.1859241187499947},{"name":"F#2","midi":42,"time":199.41149549999872,"velocity":0.7401574803149606,"duration":0.23004170624997755},{"name":"E5","midi":76,"time":199.41149549999872,"velocity":0.8582677165354331,"duration":0.24789882499996452},{"name":"E4","midi":64,"time":199.41149549999872,"velocity":0.8503937007874016,"duration":0.24789882499996452},{"name":"F#3","midi":54,"time":199.41149549999872,"velocity":0.9291338582677166,"duration":0.1859241187499947},{"name":"B1","midi":35,"time":199.66359599999868,"velocity":0.7401574803149606,"duration":0.12184857500000135},{"name":"B4","midi":71,"time":199.66359599999868,"velocity":0.8110236220472441,"duration":2.0126023249998752},{"name":"D#5","midi":75,"time":199.66359599999868,"velocity":0.8110236220472441,"duration":0.4999993249999761},{"name":"F#5","midi":78,"time":199.66359599999868,"velocity":0.8110236220472441,"duration":0.7184864249999521},{"name":"D#5","midi":75,"time":199.66359599999868,"velocity":0.8582677165354331,"duration":2.0126023249998752},{"name":"D#3","midi":51,"time":199.66359599999868,"velocity":0.7637795275590551,"duration":0.3771003312499772},{"name":"B3","midi":59,"time":199.66359599999868,"velocity":0.6535433070866141,"duration":0.3918061937499715},{"name":"D#4","midi":63,"time":199.66359599999868,"velocity":0.8503937007874016,"duration":0.24789882499999294},{"name":"B1","midi":35,"time":199.66359599999868,"velocity":0.9291338582677166,"duration":0.23004170625000597},{"name":"G3","midi":55,"time":199.66359599999868,"velocity":0.6299212598425197,"duration":0.12184857500000135},{"name":"B2","midi":47,"time":199.66359599999868,"velocity":0.9291338582677166,"duration":0.1859241187499947},{"name":"B1","midi":35,"time":199.91569649999866,"velocity":0.7401574803149606,"duration":0.23004170625000597},{"name":"B3","midi":59,"time":199.91569649999866,"velocity":0.8503937007874016,"duration":0.24789882499999294},{"name":"B2","midi":47,"time":199.91569649999866,"velocity":0.9291338582677166,"duration":0.1859241187499947},{"name":"B1","midi":35,"time":200.16779699999864,"velocity":0.7401574803149606,"duration":0.12184857500000135},{"name":"F#5","midi":78,"time":200.16779699999864,"velocity":0.8582677165354331,"duration":0.8445366749999152},{"name":"D#3","midi":51,"time":200.16779699999864,"velocity":0.6771653543307087,"duration":0.10924355000000219},{"name":"F#3","midi":54,"time":200.16779699999864,"velocity":0.6771653543307087,"duration":0.11344522499999243},{"name":"F#3","midi":54,"time":200.16779699999864,"velocity":0.8503937007874016,"duration":0.24789882499996452},{"name":"B1","midi":35,"time":200.16779699999864,"velocity":0.9291338582677166,"duration":0.23004170624997755},{"name":"D2","midi":38,"time":200.16779699999864,"velocity":0.9291338582677166,"duration":0.12184857500000135},{"name":"D#2","midi":39,"time":200.16779699999864,"velocity":0.9291338582677166,"duration":0.12184857500000135},{"name":"G3","midi":55,"time":200.16779699999864,"velocity":0.6299212598425197,"duration":0.12184857500000135},{"name":"B2","midi":47,"time":200.16779699999864,"velocity":0.9291338582677166,"duration":0.1859241187499947},{"name":"B1","midi":35,"time":200.4198974999986,"velocity":0.7401574803149606,"duration":0.23004170625000597},{"name":"F#5","midi":78,"time":200.4198974999986,"velocity":0.8582677165354331,"duration":1.256300824999954},{"name":"D#3","midi":51,"time":200.4198974999986,"velocity":0.6771653543307087,"duration":0.565125287499967},{"name":"F#3","midi":54,"time":200.4198974999986,"velocity":0.6456692913385826,"duration":0.4999993249999761},{"name":"E3","midi":52,"time":200.4198974999986,"velocity":0.8503937007874016,"duration":0.24789882499999294},{"name":"B2","midi":47,"time":200.4198974999986,"velocity":0.9291338582677166,"duration":0.1859241187499947},{"name":"F#1","midi":30,"time":200.67199799999858,"velocity":0.7401574803149606,"duration":0.23004170625000597},{"name":"F#3","midi":54,"time":200.67199799999858,"velocity":0.8503937007874016,"duration":0.3287810687499757},{"name":"B1","midi":35,"time":200.67199799999858,"velocity":0.9291338582677166,"duration":0.12184857500000135},{"name":"G3","midi":55,"time":200.67199799999858,"velocity":0.6299212598425197,"duration":0.12184857500000135},{"name":"F#2","midi":42,"time":200.67199799999858,"velocity":0.9291338582677166,"duration":0.1859241187499947},{"name":"F#1","midi":30,"time":200.92409849999856,"velocity":0.7401574803149606,"duration":0.23004170625000597},{"name":"D#4","midi":63,"time":200.92409849999856,"velocity":0.8503937007874016,"duration":0.24789882499999294},{"name":"F#2","midi":42,"time":200.92409849999856,"velocity":0.9291338582677166,"duration":0.1859241187499947},{"name":"B1","midi":35,"time":201.17619899999855,"velocity":0.7401574803149606,"duration":0.12184857500000135},{"name":"B1","midi":35,"time":201.17619899999855,"velocity":0.9291338582677166,"duration":0.23004170625000597},{"name":"D2","midi":38,"time":201.17619899999855,"velocity":0.9291338582677166,"duration":0.12184857500000135},{"name":"D#2","midi":39,"time":201.17619899999855,"velocity":0.9291338582677166,"duration":0.12184857500000135},{"name":"G3","midi":55,"time":201.17619899999855,"velocity":0.6299212598425197,"duration":0.12184857500000135},{"name":"B2","midi":47,"time":201.17619899999855,"velocity":0.9291338582677166,"duration":0.1859241187499947},{"name":"B1","midi":35,"time":201.42829949999856,"velocity":0.7401574803149606,"duration":0.23004170625000597},{"name":"B3","midi":59,"time":201.42829949999856,"velocity":0.8503937007874016,"duration":0.24789882499999294},{"name":"B2","midi":47,"time":201.42829949999856,"velocity":0.9291338582677166,"duration":0.1859241187499947},{"name":"A#1","midi":34,"time":201.68039999999854,"velocity":0.7401574803149606,"duration":0.23004170625000597},{"name":"A#4","midi":70,"time":201.68039999999854,"velocity":0.8110236220472441,"duration":0.24789882499999294},{"name":"C#5","midi":73,"time":201.68039999999854,"velocity":0.8110236220472441,"duration":1.2563008249999825},{"name":"A#5","midi":82,"time":201.68039999999854,"velocity":0.8110236220472441,"duration":2.0126023249998752},{"name":"A#4","midi":70,"time":201.68039999999854,"velocity":0.8582677165354331,"duration":0.7520998249999877},{"name":"A#3","midi":58,"time":201.68039999999854,"velocity":0.8740157480314961,"duration":2.0126023249998752},{"name":"C#4","midi":61,"time":201.68039999999854,"velocity":0.8503937007874016,"duration":1.0042003249999993},{"name":"B1","midi":35,"time":201.68039999999854,"velocity":0.9291338582677166,"duration":0.12184857500000135},{"name":"G3","midi":55,"time":201.68039999999854,"velocity":0.6299212598425197,"duration":0.12184857500000135},{"name":"A#2","midi":46,"time":201.68039999999854,"velocity":0.9291338582677166,"duration":0.1859241187499947},{"name":"A#2","midi":46,"time":201.69930753749856,"velocity":0.6771653543307087,"duration":0.23949547499998403},{"name":"A#1","midi":34,"time":201.93250049999853,"velocity":0.7401574803149606,"duration":0.23004170625000597},{"name":"B4","midi":71,"time":201.93250049999853,"velocity":0.8582677165354331,"duration":0.24789882500002136},{"name":"A#2","midi":46,"time":201.93250049999853,"velocity":0.9291338582677166,"duration":0.1859241187499947},{"name":"B2","midi":47,"time":201.95455929374853,"velocity":0.6220472440944882,"duration":0.21848710000000438},{"name":"A#1","midi":34,"time":202.18460099999854,"velocity":0.7401574803149606,"duration":0.23004170625000597},{"name":"G#5","midi":80,"time":202.18460099999854,"velocity":0.8110236220472441,"duration":1.3823510749999173},{"name":"A#4","midi":70,"time":202.18460099999854,"velocity":0.8582677165354331,"duration":0.7520998249999877},{"name":"B1","midi":35,"time":202.18460099999854,"velocity":0.9291338582677166,"duration":0.12184857500000135},{"name":"D2","midi":38,"time":202.18460099999854,"velocity":0.9291338582677166,"duration":0.12184857500000135},{"name":"D#2","midi":39,"time":202.18460099999854,"velocity":0.9291338582677166,"duration":0.12184857500000135},{"name":"G3","midi":55,"time":202.18460099999854,"velocity":0.6299212598425197,"duration":0.12184857500000135},{"name":"A#2","midi":46,"time":202.18460099999854,"velocity":0.9291338582677166,"duration":0.1859241187499947},{"name":"A#2","midi":46,"time":202.22556733124853,"velocity":0.6456692913385826,"duration":0.20273081875001253},{"name":"A#1","midi":34,"time":202.43670149999852,"velocity":0.7401574803149606,"duration":0.2300417062500344},{"name":"F#4","midi":66,"time":202.43670149999852,"velocity":0.8582677165354331,"duration":0.24789882500002136},{"name":"A#2","midi":46,"time":202.43670149999852,"velocity":0.9291338582677166,"duration":0.18592411875002313},{"name":"F#2","midi":42,"time":202.47031489999853,"velocity":0.8188976377952756,"duration":0.21428542500001413},{"name":"A#3","midi":58,"time":202.56275174999854,"velocity":0.8740157480314961,"duration":1.1302505749998772},{"name":"A#1","midi":34,"time":202.68880199999853,"velocity":0.7401574803149606,"duration":0.23004170625000597},{"name":"F#5","midi":78,"time":202.68880199999853,"velocity":0.8110236220472441,"duration":1.0042003249998857},{"name":"A#4","midi":70,"time":202.68880199999853,"velocity":0.8582677165354331,"duration":0.7520998249999309},{"name":"B1","midi":35,"time":202.68880199999853,"velocity":0.9291338582677166,"duration":0.12184857500000135},{"name":"G3","midi":55,"time":202.68880199999853,"velocity":0.6299212598425197,"duration":0.12184857500000135},{"name":"A#2","midi":46,"time":202.68880199999853,"velocity":0.9291338582677166,"duration":0.1859241187499947},{"name":"A#2","midi":46,"time":202.74237335624852,"velocity":0.7244094488188977,"duration":0.21848710000000438},{"name":"A#1","midi":34,"time":202.94090249999851,"velocity":0.7401574803149606,"duration":0.23004170625000597},{"name":"B4","midi":71,"time":202.94090249999851,"velocity":0.8582677165354331,"duration":0.24789882499999294},{"name":"A#2","midi":46,"time":202.94090249999851,"velocity":0.9291338582677166,"duration":0.1859241187499947},{"name":"B2","midi":47,"time":202.98712092499852,"velocity":0.7559055118110236,"duration":0.22163835624996864},{"name":"F#1","midi":30,"time":203.1930029999985,"velocity":0.7401574803149606,"duration":0.23004170624997755},{"name":"C#5","midi":73,"time":203.1930029999985,"velocity":0.8110236220472441,"duration":0.4999993249999193},{"name":"A#4","midi":70,"time":203.1930029999985,"velocity":0.8582677165354331,"duration":0.4999993249999193},{"name":"B1","midi":35,"time":203.1930029999985,"velocity":0.9291338582677166,"duration":0.12184857499997293},{"name":"D2","midi":38,"time":203.1930029999985,"velocity":0.9291338582677166,"duration":0.12184857499997293},{"name":"D#2","midi":39,"time":203.1930029999985,"velocity":0.9291338582677166,"duration":0.12184857499997293},{"name":"G3","midi":55,"time":203.1930029999985,"velocity":0.6299212598425197,"duration":0.12184857499997293},{"name":"F#2","midi":42,"time":203.1930029999985,"velocity":0.9291338582677166,"duration":0.18592411874996628},{"name":"A#2","midi":46,"time":203.23922142499848,"velocity":0.7637795275590551,"duration":0.22058793749997108},{"name":"F#1","midi":30,"time":203.44510349999845,"velocity":0.7401574803149606,"duration":0.23004170624997755},{"name":"F#4","midi":66,"time":203.44510349999845,"velocity":0.8582677165354331,"duration":0.24789882499996452},{"name":"F#2","midi":42,"time":203.44510349999845,"velocity":0.9291338582677166,"duration":0.1859241187499947},{"name":"F#2","midi":42,"time":203.46926313124845,"velocity":0.8188976377952756,"duration":0.16701658124998175},{"name":"G#1","midi":32,"time":203.6972039999984,"velocity":0.7401574803149606,"duration":0.23004170625000597},{"name":"D#5","midi":75,"time":203.6972039999984,"velocity":0.8110236220472441,"duration":2.012602325000188},{"name":"G#5","midi":80,"time":203.6972039999984,"velocity":0.8110236220472441,"duration":4.029406325000082},{"name":"B5","midi":83,"time":203.6972039999984,"velocity":0.8110236220472441,"duration":0.49999932500003297},{"name":"B1","midi":35,"time":203.6972039999984,"velocity":0.9291338582677166,"duration":0.12184857500000135},{"name":"A3","midi":57,"time":203.6972039999984,"velocity":0.6299212598425197,"duration":0.12184857500000135},{"name":"G#2","midi":44,"time":203.6972039999984,"velocity":0.9291338582677166,"duration":0.1859241187499947},{"name":"G#4","midi":68,"time":203.6972039999984,"velocity":0.968503937007874,"duration":0.44012545625002986},{"name":"G#1","midi":32,"time":203.94930449999842,"velocity":0.7401574803149606,"duration":0.23004170625000597},{"name":"B5","midi":83,"time":203.94930449999842,"velocity":0.9291338582677166,"duration":1.2573512437501506},{"name":"G#3","midi":56,"time":203.94930449999842,"velocity":0.4015748031496063,"duration":0.1386552750000476},{"name":"B3","midi":59,"time":203.94930449999842,"velocity":0.6535433070866141,"duration":0.16281490625004835},{"name":"D#4","midi":63,"time":203.94930449999842,"velocity":0.5039370078740157,"duration":0.16806700000003616},{"name":"B3","midi":59,"time":203.94930449999842,"velocity":0.889763779527559,"duration":0.25945343125002296},{"name":"G#2","midi":44,"time":203.94930449999842,"velocity":0.9291338582677166,"duration":0.18592411875002313},{"name":"G#1","midi":32,"time":204.20140499999843,"velocity":0.7401574803149606,"duration":0.23004170625000597},{"name":"A#5","midi":82,"time":204.20140499999843,"velocity":0.8188976377952756,"duration":0.24789882500002136},{"name":"G#3","midi":56,"time":204.20140499999843,"velocity":0.5275590551181102,"duration":0.09138643125001522},{"name":"B3","midi":59,"time":204.20140499999843,"velocity":0.6220472440944882,"duration":0.10924355000000219},{"name":"D#4","midi":63,"time":204.20140499999843,"velocity":0.5039370078740157,"duration":0.11029396874999975},{"name":"B1","midi":35,"time":204.20140499999843,"velocity":0.9291338582677166,"duration":0.12184857500000135},{"name":"D2","midi":38,"time":204.20140499999843,"velocity":0.9291338582677166,"duration":0.12184857500000135},{"name":"D#2","midi":39,"time":204.20140499999843,"velocity":0.9291338582677166,"duration":0.12184857500000135},{"name":"G3","midi":55,"time":204.20140499999843,"velocity":0.6299212598425197,"duration":0.12184857500000135},{"name":"G#2","midi":44,"time":204.20140499999843,"velocity":0.9291338582677166,"duration":0.1859241187499947},{"name":"G#4","midi":68,"time":204.20140499999843,"velocity":0.968503937007874,"duration":0.43592378125006803},{"name":"G#1","midi":32,"time":204.45350549999844,"velocity":0.7401574803149606,"duration":0.23004170625006282},{"name":"F#5","midi":78,"time":204.45350549999844,"velocity":0.9133858267716536,"duration":0.4810917875001053},{"name":"G#3","midi":56,"time":204.45350549999844,"velocity":0.5826771653543307,"duration":0.397058287500073},{"name":"B3","midi":59,"time":204.45350549999844,"velocity":0.6535433070866141,"duration":0.28046180625005945},{"name":"D#4","midi":63,"time":204.45350549999844,"velocity":0.5511811023622047,"duration":0.40651205625007947},{"name":"B3","midi":59,"time":204.45350549999844,"velocity":0.8503937007874016,"duration":0.4033608000000868},{"name":"G#2","midi":44,"time":204.45350549999844,"velocity":0.9291338582677166,"duration":0.18592411875005155},{"name":"D#2","midi":39,"time":204.7056059999985,"velocity":0.7401574803149606,"duration":0.2300417062500344},{"name":"B1","midi":35,"time":204.7056059999985,"velocity":0.9291338582677166,"duration":0.12184857500000135},{"name":"G3","midi":55,"time":204.7056059999985,"velocity":0.6299212598425197,"duration":0.12184857500000135},{"name":"D#3","midi":51,"time":204.7056059999985,"velocity":0.9291338582677166,"duration":0.18592411875002313},{"name":"D#2","midi":39,"time":204.95770649999855,"velocity":0.7401574803149606,"duration":0.23004170625000597},{"name":"B5","midi":83,"time":204.95770649999855,"velocity":0.8582677165354331,"duration":2.7689038249999385},{"name":"G#3","midi":56,"time":204.95770649999855,"velocity":0.5275590551181102,"duration":0.10714271249997864},{"name":"B3","midi":59,"time":204.95770649999855,"velocity":0.5590551181102362,"duration":0.1029410374999884},{"name":"D#4","midi":63,"time":204.95770649999855,"velocity":0.4881889763779528,"duration":0.17541993124999067},{"name":"B3","midi":59,"time":204.95770649999855,"velocity":0.889763779527559,"duration":0.2846634812500213},{"name":"D#3","midi":51,"time":204.95770649999855,"velocity":0.9291338582677166,"duration":0.1859241187499947},{"name":"G#1","midi":32,"time":205.20980699999856,"velocity":0.7401574803149606,"duration":0.2300417062500344},{"name":"A#5","midi":82,"time":205.20980699999856,"velocity":0.8582677165354331,"duration":0.23319296250002708},{"name":"G#3","midi":56,"time":205.20980699999856,"velocity":0.4015748031496063,"duration":0.11659648125001354},{"name":"B3","midi":59,"time":205.20980699999856,"velocity":0.25196850393700787,"duration":0.04306716875001371},{"name":"D#4","midi":63,"time":205.20980699999856,"velocity":0.4409448818897638,"duration":0.15336113750001346},{"name":"B1","midi":35,"time":205.20980699999856,"velocity":0.9291338582677166,"duration":0.12184857500000135},{"name":"D2","midi":38,"time":205.20980699999856,"velocity":0.9291338582677166,"duration":0.12184857500000135},{"name":"D#2","midi":39,"time":205.20980699999856,"velocity":0.9291338582677166,"duration":0.12184857500000135},{"name":"G3","midi":55,"time":205.20980699999856,"velocity":0.6299212598425197,"duration":0.12184857500000135},{"name":"G#2","midi":44,"time":205.20980699999856,"velocity":0.9291338582677166,"duration":0.18592411875002313},{"name":"G#1","midi":32,"time":205.4619074999986,"velocity":0.7401574803149606,"duration":0.23004170625000597},{"name":"F#5","midi":78,"time":205.4619074999986,"velocity":0.8582677165354331,"duration":0.4999993249999761},{"name":"E3","midi":52,"time":205.4619074999986,"velocity":0.3464566929133858,"duration":0.4033607999999731},{"name":"G#3","midi":56,"time":205.4619074999986,"velocity":0.4566929133858268,"duration":0.4033607999999731},{"name":"B3","midi":59,"time":205.4619074999986,"velocity":0.4094488188976378,"duration":0.3981087062499853},{"name":"D#4","midi":63,"time":205.4619074999986,"velocity":0.7086614173228346,"duration":0.2510500812499856},{"name":"G#2","midi":44,"time":205.4619074999986,"velocity":0.9291338582677166,"duration":0.1859241187499947},{"name":"G#1","midi":32,"time":205.71400799999859,"velocity":0.7401574803149606,"duration":0.23004170625000597},{"name":"E5","midi":76,"time":205.71400799999859,"velocity":0.8110236220472441,"duration":0.7153351687499878},{"name":"E4","midi":64,"time":205.71400799999859,"velocity":0.8503937007874016,"duration":0.8518896062500119},{"name":"B1","midi":35,"time":205.71400799999859,"velocity":0.9291338582677166,"duration":0.12184857500000135},{"name":"G3","midi":55,"time":205.71400799999859,"velocity":0.6299212598425197,"duration":0.12184857500000135},{"name":"G#2","midi":44,"time":205.71400799999859,"velocity":0.9291338582677166,"duration":0.1859241187499947},{"name":"G#1","midi":32,"time":205.96610849999857,"velocity":0.7401574803149606,"duration":0.23004170625000597},{"name":"F#5","midi":78,"time":205.96610849999857,"velocity":0.8582677165354331,"duration":0.21113416874999302},{"name":"E3","midi":52,"time":205.96610849999857,"velocity":0.31496062992125984,"duration":0.0399159124999926},{"name":"G#3","midi":56,"time":205.96610849999857,"velocity":0.4251968503937008,"duration":0.08403350000000387},{"name":"B3","midi":59,"time":205.96610849999857,"velocity":0.13385826771653545,"duration":0.04726884375000395},{"name":"G#2","midi":44,"time":205.96610849999857,"velocity":0.9291338582677166,"duration":0.1859241187499947},{"name":"E2","midi":40,"time":206.21820899999858,"velocity":0.7401574803149606,"duration":0.23004170625000597},{"name":"E5","midi":76,"time":206.21820899999858,"velocity":0.8582677165354331,"duration":0.46323466875003305},{"name":"E3","midi":52,"time":206.21820899999858,"velocity":0.4330708661417323,"duration":0.09663852500000303},{"name":"G#3","midi":56,"time":206.21820899999858,"velocity":0.6456692913385826,"duration":0.09978978124999571},{"name":"B3","midi":59,"time":206.21820899999858,"velocity":0.5354330708661418,"duration":0.08508391875000143},{"name":"B1","midi":35,"time":206.21820899999858,"velocity":0.9291338582677166,"duration":0.12184857500000135},{"name":"D2","midi":38,"time":206.21820899999858,"velocity":0.9291338582677166,"duration":0.12184857500000135},{"name":"D#2","midi":39,"time":206.21820899999858,"velocity":0.9291338582677166,"duration":0.12184857500000135},{"name":"G3","midi":55,"time":206.21820899999858,"velocity":0.6299212598425197,"duration":0.12184857500000135},{"name":"E3","midi":52,"time":206.21820899999858,"velocity":0.9291338582677166,"duration":0.1859241187499947},{"name":"B1","midi":35,"time":206.4703094999986,"velocity":0.7401574803149606,"duration":0.2300417062500344},{"name":"E5","midi":76,"time":206.4703094999986,"velocity":0.8582677165354331,"duration":0.46323466875000463},{"name":"E3","midi":52,"time":206.4703094999986,"velocity":0.4566929133858268,"duration":0.19537788750000118},{"name":"G#3","midi":56,"time":206.4703094999986,"velocity":0.5511811023622047,"duration":0.20798291250002876},{"name":"B3","midi":59,"time":206.4703094999986,"velocity":0.5590551181102362,"duration":0.20168040000001497},{"name":"B2","midi":47,"time":206.4703094999986,"velocity":0.9291338582677166,"duration":0.1859241187499947},{"name":"F#2","midi":42,"time":206.72240999999863,"velocity":0.7401574803149606,"duration":0.23004170624997755},{"name":"E5","midi":76,"time":206.72240999999863,"velocity":0.8582677165354331,"duration":0.4663859249999689},{"name":"E3","midi":52,"time":206.72240999999863,"velocity":0.5039370078740157,"duration":0.15020988124999235},{"name":"G#3","midi":56,"time":206.72240999999863,"velocity":0.6456692913385826,"duration":0.15546197499998016},{"name":"B3","midi":59,"time":206.72240999999863,"velocity":0.6220472440944882,"duration":0.15020988124999235},{"name":"B1","midi":35,"time":206.72240999999863,"velocity":0.9291338582677166,"duration":0.12184857500000135},{"name":"G3","midi":55,"time":206.72240999999863,"velocity":0.6299212598425197,"duration":0.12184857500000135},{"name":"F#3","midi":54,"time":206.72240999999863,"velocity":0.9291338582677166,"duration":0.18592411874996628},{"name":"F#2","midi":42,"time":206.97451049999862,"velocity":0.7401574803149606,"duration":0.23004170624997755},{"name":"E5","midi":76,"time":206.97451049999862,"velocity":0.8582677165354331,"duration":0.7184864249998952},{"name":"E3","midi":52,"time":206.97451049999862,"velocity":0.5354330708661418,"duration":0.2226887749999662},{"name":"G#3","midi":56,"time":206.97451049999862,"velocity":0.6771653543307087,"duration":0.22373919374996376},{"name":"B3","midi":59,"time":206.97451049999862,"velocity":0.6220472440944882,"duration":0.21848709999997595},{"name":"E4","midi":64,"time":206.97451049999862,"velocity":0.8503937007874016,"duration":0.24789882499996452},{"name":"F#3","midi":54,"time":206.97451049999862,"velocity":0.9291338582677166,"duration":0.1859241187499947},{"name":"F#2","midi":42,"time":207.22661099999857,"velocity":0.7401574803149606,"duration":0.23004170624997755},{"name":"D#5","midi":75,"time":207.22661099999857,"velocity":0.8582677165354331,"duration":0.2142854249999857},{"name":"D#4","midi":63,"time":207.22661099999857,"velocity":0.8503937007874016,"duration":0.24789882499996452},{"name":"B1","midi":35,"time":207.22661099999857,"velocity":0.9291338582677166,"duration":0.12184857500000135},{"name":"D2","midi":38,"time":207.22661099999857,"velocity":0.9291338582677166,"duration":0.12184857500000135},{"name":"D#2","midi":39,"time":207.22661099999857,"velocity":0.9291338582677166,"duration":0.12184857500000135},{"name":"G3","midi":55,"time":207.22661099999857,"velocity":0.6299212598425197,"duration":0.12184857500000135},{"name":"F#3","midi":54,"time":207.22661099999857,"velocity":0.9291338582677166,"duration":0.1859241187499947},{"name":"F#2","midi":42,"time":207.47871149999852,"velocity":0.7401574803149606,"duration":0.23004170624997755},{"name":"E5","midi":76,"time":207.47871149999852,"velocity":0.8582677165354331,"duration":0.24789882499996452},{"name":"E4","midi":64,"time":207.47871149999852,"velocity":0.8503937007874016,"duration":0.24789882499996452},{"name":"F#3","midi":54,"time":207.47871149999852,"velocity":0.9291338582677166,"duration":0.1859241187499947},{"name":"B1","midi":35,"time":207.73081199999848,"velocity":0.7401574803149606,"duration":0.12184857500000135},{"name":"B4","midi":71,"time":207.73081199999848,"velocity":0.8110236220472441,"duration":2.0126023249998752},{"name":"D#5","midi":75,"time":207.73081199999848,"velocity":0.8110236220472441,"duration":0.4999993249999761},{"name":"F#5","midi":78,"time":207.73081199999848,"velocity":0.8110236220472441,"duration":0.7184864249999521},{"name":"D#5","midi":75,"time":207.73081199999848,"velocity":0.8582677165354331,"duration":2.0126023249998752},{"name":"D#3","midi":51,"time":207.73081199999848,"velocity":0.7637795275590551,"duration":0.3771003312499772},{"name":"B3","midi":59,"time":207.73081199999848,"velocity":0.6535433070866141,"duration":0.3918061937499715},{"name":"D#4","midi":63,"time":207.73081199999848,"velocity":0.8503937007874016,"duration":0.24789882499999294},{"name":"B1","midi":35,"time":207.73081199999848,"velocity":0.9291338582677166,"duration":0.23004170625000597},{"name":"G3","midi":55,"time":207.73081199999848,"velocity":0.6299212598425197,"duration":0.12184857500000135},{"name":"B2","midi":47,"time":207.73081199999848,"velocity":0.9291338582677166,"duration":0.1859241187499947},{"name":"B1","midi":35,"time":207.98291249999846,"velocity":0.7401574803149606,"duration":0.23004170625000597},{"name":"B3","midi":59,"time":207.98291249999846,"velocity":0.8503937007874016,"duration":0.24789882499999294},{"name":"B2","midi":47,"time":207.98291249999846,"velocity":0.9291338582677166,"duration":0.1859241187499947},{"name":"B1","midi":35,"time":208.23501299999845,"velocity":0.7401574803149606,"duration":0.12184857500000135},{"name":"F#5","midi":78,"time":208.23501299999845,"velocity":0.8582677165354331,"duration":0.8445366749999152},{"name":"D#3","midi":51,"time":208.23501299999845,"velocity":0.6771653543307087,"duration":0.10924355000000219},{"name":"F#3","midi":54,"time":208.23501299999845,"velocity":0.6771653543307087,"duration":0.11344522499999243},{"name":"F#3","midi":54,"time":208.23501299999845,"velocity":0.8503937007874016,"duration":0.24789882499996452},{"name":"B1","midi":35,"time":208.23501299999845,"velocity":0.9291338582677166,"duration":0.23004170624997755},{"name":"D2","midi":38,"time":208.23501299999845,"velocity":0.9291338582677166,"duration":0.12184857500000135},{"name":"D#2","midi":39,"time":208.23501299999845,"velocity":0.9291338582677166,"duration":0.12184857500000135},{"name":"G3","midi":55,"time":208.23501299999845,"velocity":0.6299212598425197,"duration":0.12184857500000135},{"name":"B2","midi":47,"time":208.23501299999845,"velocity":0.9291338582677166,"duration":0.1859241187499947},{"name":"B1","midi":35,"time":208.4871134999984,"velocity":0.7401574803149606,"duration":0.23004170625000597},{"name":"F#5","midi":78,"time":208.4871134999984,"velocity":0.8582677165354331,"duration":1.256300824999954},{"name":"D#3","midi":51,"time":208.4871134999984,"velocity":0.6771653543307087,"duration":0.565125287499967},{"name":"F#3","midi":54,"time":208.4871134999984,"velocity":0.6456692913385826,"duration":0.4999993249999761},{"name":"E3","midi":52,"time":208.4871134999984,"velocity":0.8503937007874016,"duration":0.24789882499999294},{"name":"B2","midi":47,"time":208.4871134999984,"velocity":0.9291338582677166,"duration":0.1859241187499947},{"name":"F#1","midi":30,"time":208.73921399999838,"velocity":0.7401574803149606,"duration":0.23004170625000597},{"name":"F#3","midi":54,"time":208.73921399999838,"velocity":0.8503937007874016,"duration":0.3287810687499757},{"name":"B1","midi":35,"time":208.73921399999838,"velocity":0.9291338582677166,"duration":0.12184857500000135},{"name":"G3","midi":55,"time":208.73921399999838,"velocity":0.6299212598425197,"duration":0.12184857500000135},{"name":"F#2","midi":42,"time":208.73921399999838,"velocity":0.9291338582677166,"duration":0.1859241187499947},{"name":"F#1","midi":30,"time":208.99131449999837,"velocity":0.7401574803149606,"duration":0.23004170625000597},{"name":"D#4","midi":63,"time":208.99131449999837,"velocity":0.8503937007874016,"duration":0.24789882499999294},{"name":"F#2","midi":42,"time":208.99131449999837,"velocity":0.9291338582677166,"duration":0.1859241187499947},{"name":"B1","midi":35,"time":209.24341499999835,"velocity":0.7401574803149606,"duration":0.12184857500000135},{"name":"B1","midi":35,"time":209.24341499999835,"velocity":0.9291338582677166,"duration":0.23004170625000597},{"name":"D2","midi":38,"time":209.24341499999835,"velocity":0.9291338582677166,"duration":0.12184857500000135},{"name":"D#2","midi":39,"time":209.24341499999835,"velocity":0.9291338582677166,"duration":0.12184857500000135},{"name":"G3","midi":55,"time":209.24341499999835,"velocity":0.6299212598425197,"duration":0.12184857500000135},{"name":"B2","midi":47,"time":209.24341499999835,"velocity":0.9291338582677166,"duration":0.1859241187499947},{"name":"B1","midi":35,"time":209.49551549999836,"velocity":0.7401574803149606,"duration":0.23004170625000597},{"name":"B3","midi":59,"time":209.49551549999836,"velocity":0.8503937007874016,"duration":0.24789882499999294},{"name":"B2","midi":47,"time":209.49551549999836,"velocity":0.9291338582677166,"duration":0.1859241187499947},{"name":"A#1","midi":34,"time":209.74761599999835,"velocity":0.7401574803149606,"duration":0.23004170625000597},{"name":"A#4","midi":70,"time":209.74761599999835,"velocity":0.8110236220472441,"duration":0.24789882499999294},{"name":"C#5","midi":73,"time":209.74761599999835,"velocity":0.8110236220472441,"duration":1.256300824999954},{"name":"A#5","midi":82,"time":209.74761599999835,"velocity":0.8110236220472441,"duration":2.012602324999847},{"name":"A#4","midi":70,"time":209.74761599999835,"velocity":0.8582677165354331,"duration":0.7520998249999877},{"name":"C#4","midi":61,"time":209.74761599999835,"velocity":0.8503937007874016,"duration":1.004200324999971},{"name":"B1","midi":35,"time":209.74761599999835,"velocity":0.9291338582677166,"duration":0.12184857500000135},{"name":"G3","midi":55,"time":209.74761599999835,"velocity":0.6299212598425197,"duration":0.12184857500000135},{"name":"A#2","midi":46,"time":209.74761599999835,"velocity":0.9291338582677166,"duration":0.1859241187499947},{"name":"A#2","midi":46,"time":209.76652353749836,"velocity":0.6771653543307087,"duration":0.23949547499998403},{"name":"A#1","midi":34,"time":209.99971649999833,"velocity":0.7401574803149606,"duration":0.23004170625000597},{"name":"B4","midi":71,"time":209.99971649999833,"velocity":0.8582677165354331,"duration":0.24789882500002136},{"name":"A#2","midi":46,"time":209.99971649999833,"velocity":0.9291338582677166,"duration":0.1859241187499947},{"name":"B2","midi":47,"time":210.02177529374833,"velocity":0.6220472440944882,"duration":0.21848710000000438},{"name":"A#1","midi":34,"time":210.25181699999834,"velocity":0.7401574803149606,"duration":0.23004170625000597},{"name":"G#5","midi":80,"time":210.25181699999834,"velocity":0.8110236220472441,"duration":1.3823510749998889},{"name":"A#4","midi":70,"time":210.25181699999834,"velocity":0.8582677165354331,"duration":0.7520998249999593},{"name":"B1","midi":35,"time":210.25181699999834,"velocity":0.9291338582677166,"duration":0.12184857500000135},{"name":"D2","midi":38,"time":210.25181699999834,"velocity":0.9291338582677166,"duration":0.12184857500000135},{"name":"D#2","midi":39,"time":210.25181699999834,"velocity":0.9291338582677166,"duration":0.12184857500000135},{"name":"G3","midi":55,"time":210.25181699999834,"velocity":0.6299212598425197,"duration":0.12184857500000135},{"name":"A#2","midi":46,"time":210.25181699999834,"velocity":0.9291338582677166,"duration":0.1859241187499947},{"name":"A#2","midi":46,"time":210.29278333124833,"velocity":0.6456692913385826,"duration":0.20273081875001253},{"name":"A#1","midi":34,"time":210.50391749999832,"velocity":0.7401574803149606,"duration":0.23004170625000597},{"name":"F#4","midi":66,"time":210.50391749999832,"velocity":0.8582677165354331,"duration":0.24789882499999294},{"name":"A#2","midi":46,"time":210.50391749999832,"velocity":0.9291338582677166,"duration":0.1859241187499947},{"name":"F#2","midi":42,"time":210.53753089999833,"velocity":0.8188976377952756,"duration":0.2142854249999857},{"name":"A#1","midi":34,"time":210.7560179999983,"velocity":0.7401574803149606,"duration":0.23004170625000597},{"name":"F#5","midi":78,"time":210.7560179999983,"velocity":0.8110236220472441,"duration":1.0042003249998857},{"name":"A#4","midi":70,"time":210.7560179999983,"velocity":0.8582677165354331,"duration":0.7520998249999309},{"name":"B1","midi":35,"time":210.7560179999983,"velocity":0.9291338582677166,"duration":0.12184857500000135},{"name":"G3","midi":55,"time":210.7560179999983,"velocity":0.6299212598425197,"duration":0.12184857500000135},{"name":"A#2","midi":46,"time":210.7560179999983,"velocity":0.9291338582677166,"duration":0.1859241187499947},{"name":"A#2","midi":46,"time":210.8095893562483,"velocity":0.7244094488188977,"duration":0.21848710000000438},{"name":"A#1","midi":34,"time":211.0081184999983,"velocity":0.7401574803149606,"duration":0.23004170625000597},{"name":"B4","midi":71,"time":211.0081184999983,"velocity":0.8582677165354331,"duration":0.24789882499999294},{"name":"A#2","midi":46,"time":211.0081184999983,"velocity":0.9291338582677166,"duration":0.1859241187499947},{"name":"B2","midi":47,"time":211.0543369249983,"velocity":0.7559055118110236,"duration":0.22163835624996864},{"name":"F#1","midi":30,"time":211.26021899999827,"velocity":0.7401574803149606,"duration":0.23004170624997755},{"name":"C#5","midi":73,"time":211.26021899999827,"velocity":0.8110236220472441,"duration":0.4999993249999193},{"name":"A#4","midi":70,"time":211.26021899999827,"velocity":0.8582677165354331,"duration":0.4999993249999193},{"name":"B1","midi":35,"time":211.26021899999827,"velocity":0.9291338582677166,"duration":0.12184857499997293},{"name":"D2","midi":38,"time":211.26021899999827,"velocity":0.9291338582677166,"duration":0.12184857499997293},{"name":"D#2","midi":39,"time":211.26021899999827,"velocity":0.9291338582677166,"duration":0.12184857499997293},{"name":"G3","midi":55,"time":211.26021899999827,"velocity":0.6299212598425197,"duration":0.12184857499997293},{"name":"F#2","midi":42,"time":211.26021899999827,"velocity":0.9291338582677166,"duration":0.18592411874996628},{"name":"A#2","midi":46,"time":211.30643742499825,"velocity":0.7637795275590551,"duration":0.22058793749997108},{"name":"F#1","midi":30,"time":211.51231949999823,"velocity":0.7401574803149606,"duration":0.23004170624997755},{"name":"F#4","midi":66,"time":211.51231949999823,"velocity":0.8582677165354331,"duration":0.24789882499996452},{"name":"F#2","midi":42,"time":211.51231949999823,"velocity":0.9291338582677166,"duration":0.1859241187499947},{"name":"F#2","midi":42,"time":211.53647913124823,"velocity":0.8188976377952756,"duration":0.16701658124998175},{"name":"G#1","midi":32,"time":211.76441999999818,"velocity":0.7401574803149606,"duration":0.23004170625000597},{"name":"D#5","midi":75,"time":211.76441999999818,"velocity":0.8110236220472441,"duration":2.012602325000131},{"name":"G#5","midi":80,"time":211.76441999999818,"velocity":0.8110236220472441,"duration":4.02940632500011},{"name":"B5","midi":83,"time":211.76441999999818,"velocity":0.8110236220472441,"duration":4.02940632500011},{"name":"B1","midi":35,"time":211.76441999999818,"velocity":0.9291338582677166,"duration":0.12184857500000135},{"name":"C#3","midi":49,"time":211.76441999999818,"velocity":0.6299212598425197,"duration":0.12184857500000135},{"name":"G#2","midi":44,"time":211.76441999999818,"velocity":0.9291338582677166,"duration":0.1859241187499947},{"name":"G#4","midi":68,"time":211.76441999999818,"velocity":0.968503937007874,"duration":0.44012545625002986},{"name":"G#1","midi":32,"time":212.0165204999982,"velocity":0.7401574803149606,"duration":0.23004170625000597},{"name":"B4","midi":71,"time":212.0165204999982,"velocity":0.968503937007874,"duration":0.08718475625002498},{"name":"B3","midi":59,"time":212.0165204999982,"velocity":0.889763779527559,"duration":0.25945343125002296},{"name":"G#2","midi":44,"time":212.0165204999982,"velocity":0.9291338582677166,"duration":0.18592411875002313},{"name":"G#1","midi":32,"time":212.2686209999982,"velocity":0.7401574803149606,"duration":0.2300417062500344},{"name":"B4","midi":71,"time":212.2686209999982,"velocity":0.968503937007874,"duration":0.09978978125002413},{"name":"B1","midi":35,"time":212.2686209999982,"velocity":0.9291338582677166,"duration":0.12184857500002977},{"name":"D2","midi":38,"time":212.2686209999982,"velocity":0.9291338582677166,"duration":0.12184857500002977},{"name":"D#2","midi":39,"time":212.2686209999982,"velocity":0.9291338582677166,"duration":0.12184857500002977},{"name":"G3","midi":55,"time":212.2686209999982,"velocity":0.6299212598425197,"duration":0.12184857500002977},{"name":"G#2","midi":44,"time":212.2686209999982,"velocity":0.9291338582677166,"duration":0.18592411875002313},{"name":"G#4","midi":68,"time":212.2686209999982,"velocity":0.968503937007874,"duration":0.43592378125009645},{"name":"G#1","midi":32,"time":212.52072149999825,"velocity":0.7401574803149606,"duration":0.23004170625006282},{"name":"B4","midi":71,"time":212.52072149999825,"velocity":0.968503937007874,"duration":0.0777309875000185},{"name":"B3","midi":59,"time":212.52072149999825,"velocity":0.8503937007874016,"duration":0.28046180625005945},{"name":"G#2","midi":44,"time":212.52072149999825,"velocity":0.9291338582677166,"duration":0.18592411875005155},{"name":"D#2","midi":39,"time":212.7728219999983,"velocity":0.7401574803149606,"duration":0.23004170625000597},{"name":"B4","midi":71,"time":212.7728219999983,"velocity":0.968503937007874,"duration":0.07352931249999983},{"name":"B1","midi":35,"time":212.7728219999983,"velocity":0.9291338582677166,"duration":0.12184857500000135},{"name":"G3","midi":55,"time":212.7728219999983,"velocity":0.6299212598425197,"duration":0.12184857500000135},{"name":"D#3","midi":51,"time":212.7728219999983,"velocity":0.9291338582677166,"duration":0.1859241187499947},{"name":"D#2","midi":39,"time":213.02492249999833,"velocity":0.7401574803149606,"duration":0.23004170625000597},{"name":"B4","midi":71,"time":213.02492249999833,"velocity":0.968503937007874,"duration":0.06407554374999336},{"name":"B3","midi":59,"time":213.02492249999833,"velocity":0.889763779527559,"duration":0.2846634812500213},{"name":"D#3","midi":51,"time":213.02492249999833,"velocity":0.9291338582677166,"duration":0.1859241187499947},{"name":"G#1","midi":32,"time":213.27702299999834,"velocity":0.7401574803149606,"duration":0.23004170624997755},{"name":"B4","midi":71,"time":213.27702299999834,"velocity":0.968503937007874,"duration":0.1911762124999825},{"name":"B1","midi":35,"time":213.27702299999834,"velocity":0.9291338582677166,"duration":0.12184857500000135},{"name":"D2","midi":38,"time":213.27702299999834,"velocity":0.9291338582677166,"duration":0.12184857500000135},{"name":"D#2","midi":39,"time":213.27702299999834,"velocity":0.9291338582677166,"duration":0.12184857500000135},{"name":"G3","midi":55,"time":213.27702299999834,"velocity":0.6299212598425197,"duration":0.12184857500000135},{"name":"G#2","midi":44,"time":213.27702299999834,"velocity":0.9291338582677166,"duration":0.1859241187499947},{"name":"G#1","midi":32,"time":213.52912349999832,"velocity":0.7401574803149606,"duration":0.23004170625000597},{"name":"B4","midi":71,"time":213.52912349999832,"velocity":0.968503937007874,"duration":0.09978978124999571},{"name":"D#4","midi":63,"time":213.52912349999832,"velocity":0.7086614173228346,"duration":0.2510500812499856},{"name":"G#2","midi":44,"time":213.52912349999832,"velocity":0.9291338582677166,"duration":0.1859241187499947},{"name":"G#1","midi":32,"time":213.7812239999983,"velocity":0.7401574803149606,"duration":0.23004170625000597},{"name":"E5","midi":76,"time":213.7812239999983,"velocity":0.8110236220472441,"duration":2.012602324999989},{"name":"B4","midi":71,"time":213.7812239999983,"velocity":0.968503937007874,"duration":0.07773098749999008},{"name":"E4","midi":64,"time":213.7812239999983,"velocity":0.8503937007874016,"duration":0.8518896062500403},{"name":"B1","midi":35,"time":213.7812239999983,"velocity":0.9291338582677166,"duration":0.12184857500000135},{"name":"G3","midi":55,"time":213.7812239999983,"velocity":0.6299212598425197,"duration":0.12184857500000135},{"name":"G#2","midi":44,"time":213.7812239999983,"velocity":0.9291338582677166,"duration":0.1859241187499947},{"name":"G#1","midi":32,"time":214.03332449999832,"velocity":0.7401574803149606,"duration":0.23004170625000597},{"name":"B4","midi":71,"time":214.03332449999832,"velocity":0.968503937007874,"duration":0.07352931249999983},{"name":"G#2","midi":44,"time":214.03332449999832,"velocity":0.9291338582677166,"duration":0.1859241187499947},{"name":"E2","midi":40,"time":214.28542499999833,"velocity":0.7401574803149606,"duration":0.23004170625000597},{"name":"B4","midi":71,"time":214.28542499999833,"velocity":0.968503937007874,"duration":0.06407554374999336},{"name":"B1","midi":35,"time":214.28542499999833,"velocity":0.9291338582677166,"duration":0.12184857500000135},{"name":"D2","midi":38,"time":214.28542499999833,"velocity":0.9291338582677166,"duration":0.12184857500000135},{"name":"D#2","midi":39,"time":214.28542499999833,"velocity":0.9291338582677166,"duration":0.12184857500000135},{"name":"G3","midi":55,"time":214.28542499999833,"velocity":0.6299212598425197,"duration":0.12184857500000135},{"name":"E3","midi":52,"time":214.28542499999833,"velocity":0.9291338582677166,"duration":0.1859241187499947},{"name":"B1","midi":35,"time":214.53752549999834,"velocity":0.7401574803149606,"duration":0.23004170624997755},{"name":"B4","midi":71,"time":214.53752549999834,"velocity":0.968503937007874,"duration":0.1911762124999825},{"name":"B2","midi":47,"time":214.53752549999834,"velocity":0.9291338582677166,"duration":0.1859241187499947},{"name":"F#2","midi":42,"time":214.78962599999832,"velocity":0.7401574803149606,"duration":0.23004170625000597},{"name":"B1","midi":35,"time":214.78962599999832,"velocity":0.9291338582677166,"duration":0.12184857500000135},{"name":"G3","midi":55,"time":214.78962599999832,"velocity":0.6299212598425197,"duration":0.12184857500000135},{"name":"F#3","midi":54,"time":214.78962599999832,"velocity":0.9291338582677166,"duration":0.1859241187499947},{"name":"F#2","midi":42,"time":215.04172649999833,"velocity":0.7401574803149606,"duration":0.23004170625000597},{"name":"G#3","midi":56,"time":215.04172649999833,"velocity":0.8582677165354331,"duration":0.12184857500000135},{"name":"E4","midi":64,"time":215.04172649999833,"velocity":0.8503937007874016,"duration":0.24789882499999294},{"name":"F#3","midi":54,"time":215.04172649999833,"velocity":0.9291338582677166,"duration":0.1859241187499947},{"name":"F#2","midi":42,"time":215.29382699999832,"velocity":0.7401574803149606,"duration":0.23004170625000597},{"name":"G#3","midi":56,"time":215.29382699999832,"velocity":0.8582677165354331,"duration":0.12184857500000135},{"name":"D#4","midi":63,"time":215.29382699999832,"velocity":0.8503937007874016,"duration":0.24789882499999294},{"name":"B1","midi":35,"time":215.29382699999832,"velocity":0.9291338582677166,"duration":0.12184857500000135},{"name":"D2","midi":38,"time":215.29382699999832,"velocity":0.9291338582677166,"duration":0.12184857500000135},{"name":"D#2","midi":39,"time":215.29382699999832,"velocity":0.9291338582677166,"duration":0.12184857500000135},{"name":"G3","midi":55,"time":215.29382699999832,"velocity":0.6299212598425197,"duration":0.12184857500000135},{"name":"F#3","midi":54,"time":215.29382699999832,"velocity":0.9291338582677166,"duration":0.1859241187499947},{"name":"F#2","midi":42,"time":215.5459274999983,"velocity":0.7401574803149606,"duration":0.23004170625000597},{"name":"G#3","midi":56,"time":215.5459274999983,"velocity":0.8582677165354331,"duration":0.12184857500000135},{"name":"E4","midi":64,"time":215.5459274999983,"velocity":0.8503937007874016,"duration":0.24789882499999294},{"name":"F#3","midi":54,"time":215.5459274999983,"velocity":0.9291338582677166,"duration":0.1859241187499947},{"name":"B1","midi":35,"time":215.79802799999828,"velocity":0.7401574803149606,"duration":0.12184857500000135},{"name":"B4","midi":71,"time":215.79802799999828,"velocity":0.8110236220472441,"duration":0.33928525624997974},{"name":"D#5","midi":75,"time":215.79802799999828,"velocity":0.8110236220472441,"duration":2.0126023249998752},{"name":"F#5","midi":78,"time":215.79802799999828,"velocity":0.8110236220472441,"duration":2.0126023249998752},{"name":"G#3","midi":56,"time":215.79802799999828,"velocity":0.8582677165354331,"duration":0.37394907499998453},{"name":"D#4","midi":63,"time":215.79802799999828,"velocity":0.8503937007874016,"duration":0.24789882499999294},{"name":"B1","midi":35,"time":215.79802799999828,"velocity":0.9291338582677166,"duration":0.23004170625000597},{"name":"G3","midi":55,"time":215.79802799999828,"velocity":0.6299212598425197,"duration":0.12184857500000135},{"name":"B2","midi":47,"time":215.79802799999828,"velocity":0.9291338582677166,"duration":0.1859241187499947},{"name":"B1","midi":35,"time":216.05012849999827,"velocity":0.7401574803149606,"duration":0.23004170625000597},{"name":"B4","midi":71,"time":216.05012849999827,"velocity":0.968503937007874,"duration":0.3518902812499789},{"name":"B3","midi":59,"time":216.05012849999827,"velocity":0.8503937007874016,"duration":0.24789882499999294},{"name":"B2","midi":47,"time":216.05012849999827,"velocity":0.9291338582677166,"duration":0.1859241187499947},{"name":"B1","midi":35,"time":216.30222899999825,"velocity":0.7401574803149606,"duration":0.12184857500000135},{"name":"B4","midi":71,"time":216.30222899999825,"velocity":0.968503937007874,"duration":0.32983148749997326},{"name":"F#3","midi":54,"time":216.30222899999825,"velocity":0.8503937007874016,"duration":0.24789882499999294},{"name":"B1","midi":35,"time":216.30222899999825,"velocity":0.9291338582677166,"duration":0.23004170625000597},{"name":"D2","midi":38,"time":216.30222899999825,"velocity":0.9291338582677166,"duration":0.12184857500000135},{"name":"D#2","midi":39,"time":216.30222899999825,"velocity":0.9291338582677166,"duration":0.12184857500000135},{"name":"G3","midi":55,"time":216.30222899999825,"velocity":0.6299212598425197,"duration":0.12184857500000135},{"name":"B2","midi":47,"time":216.30222899999825,"velocity":0.9291338582677166,"duration":0.1859241187499947},{"name":"B1","midi":35,"time":216.55432949999823,"velocity":0.7401574803149606,"duration":0.23004170625000597},{"name":"B4","midi":71,"time":216.55432949999823,"velocity":0.968503937007874,"duration":0.325629812499983},{"name":"E3","midi":52,"time":216.55432949999823,"velocity":0.8503937007874016,"duration":0.24789882499999294},{"name":"B2","midi":47,"time":216.55432949999823,"velocity":0.9291338582677166,"duration":0.1859241187499947},{"name":"F#1","midi":30,"time":216.80642999999822,"velocity":0.7401574803149606,"duration":0.23004170625000597},{"name":"B4","midi":71,"time":216.80642999999822,"velocity":0.968503937007874,"duration":0.31617604374997654},{"name":"F#3","midi":54,"time":216.80642999999822,"velocity":0.8503937007874016,"duration":0.24789882499999294},{"name":"B1","midi":35,"time":216.80642999999822,"velocity":0.9291338582677166,"duration":0.12184857500000135},{"name":"G3","midi":55,"time":216.80642999999822,"velocity":0.6299212598425197,"duration":0.12184857500000135},{"name":"F#2","midi":42,"time":216.80642999999822,"velocity":0.9291338582677166,"duration":0.1859241187499947},{"name":"F#1","midi":30,"time":217.0585304999982,"velocity":0.7401574803149606,"duration":0.23004170625000597},{"name":"B4","midi":71,"time":217.0585304999982,"velocity":0.968503937007874,"duration":0.4432767124999657},{"name":"D#4","midi":63,"time":217.0585304999982,"velocity":0.8503937007874016,"duration":0.24789882499999294},{"name":"F#2","midi":42,"time":217.0585304999982,"velocity":0.9291338582677166,"duration":0.1859241187499947},{"name":"B1","midi":35,"time":217.31063099999818,"velocity":0.7401574803149606,"duration":0.12184857500000135},{"name":"B4","midi":71,"time":217.31063099999818,"velocity":0.968503937007874,"duration":0.3518902812499789},{"name":"B1","midi":35,"time":217.31063099999818,"velocity":0.9291338582677166,"duration":0.23004170624997755},{"name":"D2","midi":38,"time":217.31063099999818,"velocity":0.9291338582677166,"duration":0.12184857500000135},{"name":"D#2","midi":39,"time":217.31063099999818,"velocity":0.9291338582677166,"duration":0.12184857500000135},{"name":"G3","midi":55,"time":217.31063099999818,"velocity":0.6299212598425197,"duration":0.12184857500000135},{"name":"B2","midi":47,"time":217.31063099999818,"velocity":0.9291338582677166,"duration":0.1859241187499947},{"name":"B1","midi":35,"time":217.56273149999816,"velocity":0.7401574803149606,"duration":0.23004170625000597},{"name":"B4","midi":71,"time":217.56273149999816,"velocity":0.968503937007874,"duration":0.24789882499999294},{"name":"B3","midi":59,"time":217.56273149999816,"velocity":0.8503937007874016,"duration":0.24789882499999294},{"name":"B2","midi":47,"time":217.56273149999816,"velocity":0.9291338582677166,"duration":0.1859241187499947},{"name":"A#1","midi":34,"time":217.81483199999815,"velocity":0.7401574803149606,"duration":0.23004170625000597},{"name":"A#4","midi":70,"time":217.81483199999815,"velocity":0.8110236220472441,"duration":2.012602324999989},{"name":"C#5","midi":73,"time":217.81483199999815,"velocity":0.8110236220472441,"duration":1.2563008249999825},{"name":"A#5","midi":82,"time":217.81483199999815,"velocity":0.8110236220472441,"duration":2.012602324999989},{"name":"B4","midi":71,"time":217.81483199999815,"velocity":0.968503937007874,"duration":0.07773098749999008},{"name":"C#4","midi":61,"time":217.81483199999815,"velocity":0.8503937007874016,"duration":1.0042003249999993},{"name":"B1","midi":35,"time":217.81483199999815,"velocity":0.9291338582677166,"duration":0.12184857500000135},{"name":"G3","midi":55,"time":217.81483199999815,"velocity":0.6299212598425197,"duration":0.12184857500000135},{"name":"A#2","midi":46,"time":217.81483199999815,"velocity":0.9291338582677166,"duration":0.1859241187499947},{"name":"A#1","midi":34,"time":218.06693249999816,"velocity":0.7401574803149606,"duration":0.23004170625000597},{"name":"B4","midi":71,"time":218.06693249999816,"velocity":0.968503937007874,"duration":0.07352931249999983},{"name":"A#2","midi":46,"time":218.06693249999816,"velocity":0.9291338582677166,"duration":0.1859241187499947},{"name":"A#1","midi":34,"time":218.31903299999817,"velocity":0.7401574803149606,"duration":0.23004170625000597},{"name":"G#5","midi":80,"time":218.31903299999817,"velocity":0.8110236220472441,"duration":1.3823510749999741},{"name":"B4","midi":71,"time":218.31903299999817,"velocity":0.968503937007874,"duration":0.06407554374999336},{"name":"B1","midi":35,"time":218.31903299999817,"velocity":0.9291338582677166,"duration":0.12184857500000135},{"name":"D2","midi":38,"time":218.31903299999817,"velocity":0.9291338582677166,"duration":0.12184857500000135},{"name":"D#2","midi":39,"time":218.31903299999817,"velocity":0.9291338582677166,"duration":0.12184857500000135},{"name":"G3","midi":55,"time":218.31903299999817,"velocity":0.6299212598425197,"duration":0.12184857500000135},{"name":"A#2","midi":46,"time":218.31903299999817,"velocity":0.9291338582677166,"duration":0.1859241187499947},{"name":"A#1","midi":34,"time":218.57113349999818,"velocity":0.7401574803149606,"duration":0.23004170624997755},{"name":"B4","midi":71,"time":218.57113349999818,"velocity":0.968503937007874,"duration":0.1911762124999825},{"name":"A#2","midi":46,"time":218.57113349999818,"velocity":0.9291338582677166,"duration":0.1859241187499947},{"name":"A#1","midi":34,"time":218.82323399999814,"velocity":0.7401574803149606,"duration":0.23004170625000597},{"name":"F#5","midi":78,"time":218.82323399999814,"velocity":0.8110236220472441,"duration":1.0042003249999993},{"name":"B1","midi":35,"time":218.82323399999814,"velocity":0.9291338582677166,"duration":0.12184857500000135},{"name":"G3","midi":55,"time":218.82323399999814,"velocity":0.6299212598425197,"duration":0.12184857500000135},{"name":"A#2","midi":46,"time":218.82323399999814,"velocity":0.9291338582677166,"duration":0.1859241187499947},{"name":"A#1","midi":34,"time":219.07533449999812,"velocity":0.7401574803149606,"duration":0.23004170625000597},{"name":"G#3","midi":56,"time":219.07533449999812,"velocity":0.8582677165354331,"duration":0.12184857500000135},{"name":"A#2","midi":46,"time":219.07533449999812,"velocity":0.9291338582677166,"duration":0.1859241187499947},{"name":"F#1","midi":30,"time":219.32743499999813,"velocity":0.7401574803149606,"duration":0.23004170625000597},{"name":"C#5","midi":73,"time":219.32743499999813,"velocity":0.8110236220472441,"duration":0.49999932500000455},{"name":"G#3","midi":56,"time":219.32743499999813,"velocity":0.8582677165354331,"duration":0.12184857500000135},{"name":"B1","midi":35,"time":219.32743499999813,"velocity":0.9291338582677166,"duration":0.12184857500000135},{"name":"D2","midi":38,"time":219.32743499999813,"velocity":0.9291338582677166,"duration":0.12184857500000135},{"name":"D#2","midi":39,"time":219.32743499999813,"velocity":0.9291338582677166,"duration":0.12184857500000135},{"name":"G3","midi":55,"time":219.32743499999813,"velocity":0.6299212598425197,"duration":0.12184857500000135},{"name":"F#2","midi":42,"time":219.32743499999813,"velocity":0.9291338582677166,"duration":0.1859241187499947},{"name":"F#1","midi":30,"time":219.57953549999814,"velocity":0.7401574803149606,"duration":0.23004170625000597},{"name":"G#3","midi":56,"time":219.57953549999814,"velocity":0.8582677165354331,"duration":0.12184857500000135},{"name":"F#2","midi":42,"time":219.57953549999814,"velocity":0.9291338582677166,"duration":0.1859241187499947},{"name":"G#1","midi":32,"time":219.83163599999813,"velocity":0.7401574803149606,"duration":0.23004170625000597},{"name":"D#5","midi":75,"time":219.83163599999813,"velocity":0.8110236220472441,"duration":2.012602325000131},{"name":"G#5","midi":80,"time":219.83163599999813,"velocity":0.8110236220472441,"duration":4.02940632500011},{"name":"B5","midi":83,"time":219.83163599999813,"velocity":0.8110236220472441,"duration":4.02940632500011},{"name":"G#3","midi":56,"time":219.83163599999813,"velocity":0.8582677165354331,"duration":0.3739490750000414},{"name":"B1","midi":35,"time":219.83163599999813,"velocity":0.9291338582677166,"duration":0.12184857500000135},{"name":"G3","midi":55,"time":219.83163599999813,"velocity":0.6299212598425197,"duration":0.12184857500000135},{"name":"G#2","midi":44,"time":219.83163599999813,"velocity":0.9291338582677166,"duration":0.1859241187499947},{"name":"G#4","midi":68,"time":219.83163599999813,"velocity":0.968503937007874,"duration":0.44012545625002986},{"name":"G#1","midi":32,"time":220.08373649999814,"velocity":0.7401574803149606,"duration":0.23004170625000597},{"name":"B4","midi":71,"time":220.08373649999814,"velocity":0.968503937007874,"duration":0.08718475625002498},{"name":"B3","midi":59,"time":220.08373649999814,"velocity":0.889763779527559,"duration":0.25945343125002296},{"name":"G#2","midi":44,"time":220.08373649999814,"velocity":0.9291338582677166,"duration":0.18592411875002313},{"name":"G#1","midi":32,"time":220.33583699999815,"velocity":0.7401574803149606,"duration":0.2300417062500344},{"name":"B4","midi":71,"time":220.33583699999815,"velocity":0.968503937007874,"duration":0.09978978125002413},{"name":"B1","midi":35,"time":220.33583699999815,"velocity":0.9291338582677166,"duration":0.12184857500002977},{"name":"D2","midi":38,"time":220.33583699999815,"velocity":0.9291338582677166,"duration":0.12184857500002977},{"name":"D#2","midi":39,"time":220.33583699999815,"velocity":0.9291338582677166,"duration":0.12184857500002977},{"name":"G3","midi":55,"time":220.33583699999815,"velocity":0.6299212598425197,"duration":0.12184857500002977},{"name":"G#2","midi":44,"time":220.33583699999815,"velocity":0.9291338582677166,"duration":0.18592411875002313},{"name":"G#4","midi":68,"time":220.33583699999815,"velocity":0.968503937007874,"duration":0.43592378125009645},{"name":"G#1","midi":32,"time":220.5879374999982,"velocity":0.7401574803149606,"duration":0.23004170625006282},{"name":"B4","midi":71,"time":220.5879374999982,"velocity":0.968503937007874,"duration":0.0777309875000185},{"name":"B3","midi":59,"time":220.5879374999982,"velocity":0.8503937007874016,"duration":0.28046180625005945},{"name":"G#2","midi":44,"time":220.5879374999982,"velocity":0.9291338582677166,"duration":0.18592411875005155},{"name":"D#2","midi":39,"time":220.84003799999826,"velocity":0.7401574803149606,"duration":0.23004170625000597},{"name":"B4","midi":71,"time":220.84003799999826,"velocity":0.968503937007874,"duration":0.07352931249999983},{"name":"B1","midi":35,"time":220.84003799999826,"velocity":0.9291338582677166,"duration":0.12184857500000135},{"name":"G3","midi":55,"time":220.84003799999826,"velocity":0.6299212598425197,"duration":0.12184857500000135},{"name":"D#3","midi":51,"time":220.84003799999826,"velocity":0.9291338582677166,"duration":0.1859241187499947},{"name":"D#2","midi":39,"time":221.09213849999827,"velocity":0.7401574803149606,"duration":0.23004170625000597},{"name":"B4","midi":71,"time":221.09213849999827,"velocity":0.968503937007874,"duration":0.06407554374999336},{"name":"B3","midi":59,"time":221.09213849999827,"velocity":0.889763779527559,"duration":0.2846634812500213},{"name":"D#3","midi":51,"time":221.09213849999827,"velocity":0.9291338582677166,"duration":0.1859241187499947},{"name":"G#1","midi":32,"time":221.34423899999828,"velocity":0.7401574803149606,"duration":0.23004170624997755},{"name":"B4","midi":71,"time":221.34423899999828,"velocity":0.968503937007874,"duration":0.1911762124999825},{"name":"B1","midi":35,"time":221.34423899999828,"velocity":0.9291338582677166,"duration":0.12184857500000135},{"name":"D2","midi":38,"time":221.34423899999828,"velocity":0.9291338582677166,"duration":0.12184857500000135},{"name":"D#2","midi":39,"time":221.34423899999828,"velocity":0.9291338582677166,"duration":0.12184857500000135},{"name":"G3","midi":55,"time":221.34423899999828,"velocity":0.6299212598425197,"duration":0.12184857500000135},{"name":"G#2","midi":44,"time":221.34423899999828,"velocity":0.9291338582677166,"duration":0.1859241187499947},{"name":"G#1","midi":32,"time":221.59633949999827,"velocity":0.7401574803149606,"duration":0.23004170625000597},{"name":"B4","midi":71,"time":221.59633949999827,"velocity":0.968503937007874,"duration":0.09978978124999571},{"name":"D#4","midi":63,"time":221.59633949999827,"velocity":0.7086614173228346,"duration":0.2510500812499856},{"name":"G#2","midi":44,"time":221.59633949999827,"velocity":0.9291338582677166,"duration":0.1859241187499947},{"name":"G#1","midi":32,"time":221.84843999999825,"velocity":0.7401574803149606,"duration":0.23004170625000597},{"name":"E5","midi":76,"time":221.84843999999825,"velocity":0.8110236220472441,"duration":2.012602324999989},{"name":"B4","midi":71,"time":221.84843999999825,"velocity":0.968503937007874,"duration":0.07773098749999008},{"name":"E4","midi":64,"time":221.84843999999825,"velocity":0.8503937007874016,"duration":0.8518896062500403},{"name":"B1","midi":35,"time":221.84843999999825,"velocity":0.9291338582677166,"duration":0.12184857500000135},{"name":"G3","midi":55,"time":221.84843999999825,"velocity":0.6299212598425197,"duration":0.12184857500000135},{"name":"G#2","midi":44,"time":221.84843999999825,"velocity":0.9291338582677166,"duration":0.1859241187499947},{"name":"G#1","midi":32,"time":222.10054049999826,"velocity":0.7401574803149606,"duration":0.23004170625000597},{"name":"B4","midi":71,"time":222.10054049999826,"velocity":0.968503937007874,"duration":0.07352931249999983},{"name":"G#2","midi":44,"time":222.10054049999826,"velocity":0.9291338582677166,"duration":0.1859241187499947},{"name":"E2","midi":40,"time":222.35264099999827,"velocity":0.7401574803149606,"duration":0.23004170625000597},{"name":"B4","midi":71,"time":222.35264099999827,"velocity":0.968503937007874,"duration":0.06407554374999336},{"name":"B1","midi":35,"time":222.35264099999827,"velocity":0.9291338582677166,"duration":0.12184857500000135},{"name":"D2","midi":38,"time":222.35264099999827,"velocity":0.9291338582677166,"duration":0.12184857500000135},{"name":"D#2","midi":39,"time":222.35264099999827,"velocity":0.9291338582677166,"duration":0.12184857500000135},{"name":"G3","midi":55,"time":222.35264099999827,"velocity":0.6299212598425197,"duration":0.12184857500000135},{"name":"E3","midi":52,"time":222.35264099999827,"velocity":0.9291338582677166,"duration":0.1859241187499947},{"name":"B1","midi":35,"time":222.60474149999828,"velocity":0.7401574803149606,"duration":0.23004170624997755},{"name":"B4","midi":71,"time":222.60474149999828,"velocity":0.968503937007874,"duration":0.1911762124999825},{"name":"B2","midi":47,"time":222.60474149999828,"velocity":0.9291338582677166,"duration":0.1859241187499947},{"name":"F#2","midi":42,"time":222.85684199999827,"velocity":0.7401574803149606,"duration":0.23004170625000597},{"name":"B1","midi":35,"time":222.85684199999827,"velocity":0.9291338582677166,"duration":0.12184857500000135},{"name":"G3","midi":55,"time":222.85684199999827,"velocity":0.6299212598425197,"duration":0.12184857500000135},{"name":"F#3","midi":54,"time":222.85684199999827,"velocity":0.9291338582677166,"duration":0.1859241187499947},{"name":"F#2","midi":42,"time":223.10894249999828,"velocity":0.7401574803149606,"duration":0.23004170625000597},{"name":"G#3","midi":56,"time":223.10894249999828,"velocity":0.8582677165354331,"duration":0.12184857500000135},{"name":"E4","midi":64,"time":223.10894249999828,"velocity":0.8503937007874016,"duration":0.24789882499999294},{"name":"F#3","midi":54,"time":223.10894249999828,"velocity":0.9291338582677166,"duration":0.1859241187499947},{"name":"F#2","midi":42,"time":223.36104299999826,"velocity":0.7401574803149606,"duration":0.23004170625000597},{"name":"G#3","midi":56,"time":223.36104299999826,"velocity":0.8582677165354331,"duration":0.12184857500000135},{"name":"D#4","midi":63,"time":223.36104299999826,"velocity":0.8503937007874016,"duration":0.24789882499999294},{"name":"B1","midi":35,"time":223.36104299999826,"velocity":0.9291338582677166,"duration":0.12184857500000135},{"name":"D2","midi":38,"time":223.36104299999826,"velocity":0.9291338582677166,"duration":0.12184857500000135},{"name":"D#2","midi":39,"time":223.36104299999826,"velocity":0.9291338582677166,"duration":0.12184857500000135},{"name":"G3","midi":55,"time":223.36104299999826,"velocity":0.6299212598425197,"duration":0.12184857500000135},{"name":"F#3","midi":54,"time":223.36104299999826,"velocity":0.9291338582677166,"duration":0.1859241187499947},{"name":"F#2","midi":42,"time":223.61314349999824,"velocity":0.7401574803149606,"duration":0.23004170625000597},{"name":"G#3","midi":56,"time":223.61314349999824,"velocity":0.8582677165354331,"duration":0.12184857500000135},{"name":"E4","midi":64,"time":223.61314349999824,"velocity":0.8503937007874016,"duration":0.24789882499999294},{"name":"F#3","midi":54,"time":223.61314349999824,"velocity":0.9291338582677166,"duration":0.1859241187499947},{"name":"B1","midi":35,"time":223.86524399999823,"velocity":0.7401574803149606,"duration":0.12184857500000135},{"name":"B4","midi":71,"time":223.86524399999823,"velocity":0.8110236220472441,"duration":0.33928525624997974},{"name":"D#5","midi":75,"time":223.86524399999823,"velocity":0.8110236220472441,"duration":2.0126023249998752},{"name":"F#5","midi":78,"time":223.86524399999823,"velocity":0.8110236220472441,"duration":2.0126023249998752},{"name":"G#3","midi":56,"time":223.86524399999823,"velocity":0.8582677165354331,"duration":0.37394907499998453},{"name":"D#4","midi":63,"time":223.86524399999823,"velocity":0.8503937007874016,"duration":0.24789882499999294},{"name":"B1","midi":35,"time":223.86524399999823,"velocity":0.9291338582677166,"duration":0.23004170625000597},{"name":"G3","midi":55,"time":223.86524399999823,"velocity":0.6299212598425197,"duration":0.12184857500000135},{"name":"B2","midi":47,"time":223.86524399999823,"velocity":0.9291338582677166,"duration":0.1859241187499947},{"name":"B1","midi":35,"time":224.1173444999982,"velocity":0.7401574803149606,"duration":0.23004170625000597},{"name":"B4","midi":71,"time":224.1173444999982,"velocity":0.968503937007874,"duration":0.3518902812499789},{"name":"B3","midi":59,"time":224.1173444999982,"velocity":0.8503937007874016,"duration":0.24789882499999294},{"name":"B2","midi":47,"time":224.1173444999982,"velocity":0.9291338582677166,"duration":0.1859241187499947},{"name":"B1","midi":35,"time":224.3694449999982,"velocity":0.7401574803149606,"duration":0.12184857500000135},{"name":"B4","midi":71,"time":224.3694449999982,"velocity":0.968503937007874,"duration":0.32983148749997326},{"name":"F#3","midi":54,"time":224.3694449999982,"velocity":0.8503937007874016,"duration":0.24789882499999294},{"name":"B1","midi":35,"time":224.3694449999982,"velocity":0.9291338582677166,"duration":0.23004170625000597},{"name":"D2","midi":38,"time":224.3694449999982,"velocity":0.9291338582677166,"duration":0.12184857500000135},{"name":"D#2","midi":39,"time":224.3694449999982,"velocity":0.9291338582677166,"duration":0.12184857500000135},{"name":"G3","midi":55,"time":224.3694449999982,"velocity":0.6299212598425197,"duration":0.12184857500000135},{"name":"B2","midi":47,"time":224.3694449999982,"velocity":0.9291338582677166,"duration":0.1859241187499947},{"name":"B1","midi":35,"time":224.62154549999818,"velocity":0.7401574803149606,"duration":0.23004170625000597},{"name":"B4","midi":71,"time":224.62154549999818,"velocity":0.968503937007874,"duration":0.325629812499983},{"name":"E3","midi":52,"time":224.62154549999818,"velocity":0.8503937007874016,"duration":0.24789882499999294},{"name":"B2","midi":47,"time":224.62154549999818,"velocity":0.9291338582677166,"duration":0.1859241187499947},{"name":"F#1","midi":30,"time":224.87364599999816,"velocity":0.7401574803149606,"duration":0.23004170625000597},{"name":"B4","midi":71,"time":224.87364599999816,"velocity":0.968503937007874,"duration":0.31617604374997654},{"name":"F#3","midi":54,"time":224.87364599999816,"velocity":0.8503937007874016,"duration":0.24789882499999294},{"name":"B1","midi":35,"time":224.87364599999816,"velocity":0.9291338582677166,"duration":0.12184857500000135},{"name":"G3","midi":55,"time":224.87364599999816,"velocity":0.6299212598425197,"duration":0.12184857500000135},{"name":"F#2","midi":42,"time":224.87364599999816,"velocity":0.9291338582677166,"duration":0.1859241187499947},{"name":"F#1","midi":30,"time":225.12574649999814,"velocity":0.7401574803149606,"duration":0.23004170625000597},{"name":"B4","midi":71,"time":225.12574649999814,"velocity":0.968503937007874,"duration":0.4432767124999657},{"name":"D#4","midi":63,"time":225.12574649999814,"velocity":0.8503937007874016,"duration":0.24789882499999294},{"name":"F#2","midi":42,"time":225.12574649999814,"velocity":0.9291338582677166,"duration":0.1859241187499947},{"name":"B1","midi":35,"time":225.37784699999813,"velocity":0.7401574803149606,"duration":0.12184857500000135},{"name":"B4","midi":71,"time":225.37784699999813,"velocity":0.968503937007874,"duration":0.3518902812499789},{"name":"B1","midi":35,"time":225.37784699999813,"velocity":0.9291338582677166,"duration":0.23004170624997755},{"name":"D2","midi":38,"time":225.37784699999813,"velocity":0.9291338582677166,"duration":0.12184857500000135},{"name":"D#2","midi":39,"time":225.37784699999813,"velocity":0.9291338582677166,"duration":0.12184857500000135},{"name":"G3","midi":55,"time":225.37784699999813,"velocity":0.6299212598425197,"duration":0.12184857500000135},{"name":"B2","midi":47,"time":225.37784699999813,"velocity":0.9291338582677166,"duration":0.1859241187499947},{"name":"B1","midi":35,"time":225.6299474999981,"velocity":0.7401574803149606,"duration":0.23004170625000597},{"name":"B4","midi":71,"time":225.6299474999981,"velocity":0.968503937007874,"duration":0.24789882499999294},{"name":"B3","midi":59,"time":225.6299474999981,"velocity":0.8503937007874016,"duration":0.24789882499999294},{"name":"B2","midi":47,"time":225.6299474999981,"velocity":0.9291338582677166,"duration":0.1859241187499947},{"name":"A#1","midi":34,"time":225.8820479999981,"velocity":0.7401574803149606,"duration":0.23004170625000597},{"name":"A#4","midi":70,"time":225.8820479999981,"velocity":0.8110236220472441,"duration":2.012602324999989},{"name":"C#5","midi":73,"time":225.8820479999981,"velocity":0.8110236220472441,"duration":1.2563008249999825},{"name":"A#5","midi":82,"time":225.8820479999981,"velocity":0.8110236220472441,"duration":2.012602324999989},{"name":"B4","midi":71,"time":225.8820479999981,"velocity":0.968503937007874,"duration":0.07773098749999008},{"name":"C#4","midi":61,"time":225.8820479999981,"velocity":0.8503937007874016,"duration":1.0042003249999993},{"name":"B1","midi":35,"time":225.8820479999981,"velocity":0.9291338582677166,"duration":0.12184857500000135},{"name":"G3","midi":55,"time":225.8820479999981,"velocity":0.6299212598425197,"duration":0.12184857500000135},{"name":"A#2","midi":46,"time":225.8820479999981,"velocity":0.9291338582677166,"duration":0.1859241187499947},{"name":"A#1","midi":34,"time":226.1341484999981,"velocity":0.7401574803149606,"duration":0.23004170625000597},{"name":"B4","midi":71,"time":226.1341484999981,"velocity":0.968503937007874,"duration":0.07352931249999983},{"name":"A#2","midi":46,"time":226.1341484999981,"velocity":0.9291338582677166,"duration":0.1859241187499947},{"name":"A#1","midi":34,"time":226.38624899999812,"velocity":0.7401574803149606,"duration":0.23004170625000597},{"name":"G#5","midi":80,"time":226.38624899999812,"velocity":0.8110236220472441,"duration":1.3823510749999741},{"name":"B4","midi":71,"time":226.38624899999812,"velocity":0.968503937007874,"duration":0.06407554374999336},{"name":"B1","midi":35,"time":226.38624899999812,"velocity":0.9291338582677166,"duration":0.12184857500000135},{"name":"D2","midi":38,"time":226.38624899999812,"velocity":0.9291338582677166,"duration":0.12184857500000135},{"name":"D#2","midi":39,"time":226.38624899999812,"velocity":0.9291338582677166,"duration":0.12184857500000135},{"name":"G3","midi":55,"time":226.38624899999812,"velocity":0.6299212598425197,"duration":0.12184857500000135},{"name":"A#2","midi":46,"time":226.38624899999812,"velocity":0.9291338582677166,"duration":0.1859241187499947},{"name":"A#1","midi":34,"time":226.63834949999813,"velocity":0.7401574803149606,"duration":0.23004170624997755},{"name":"B4","midi":71,"time":226.63834949999813,"velocity":0.968503937007874,"duration":0.1911762124999825},{"name":"A#2","midi":46,"time":226.63834949999813,"velocity":0.9291338582677166,"duration":0.1859241187499947},{"name":"A#1","midi":34,"time":226.89044999999808,"velocity":0.7401574803149606,"duration":0.23004170625000597},{"name":"F#5","midi":78,"time":226.89044999999808,"velocity":0.8110236220472441,"duration":1.0042003249999993},{"name":"B1","midi":35,"time":226.89044999999808,"velocity":0.9291338582677166,"duration":0.12184857500000135},{"name":"G3","midi":55,"time":226.89044999999808,"velocity":0.6299212598425197,"duration":0.12184857500000135},{"name":"A#2","midi":46,"time":226.89044999999808,"velocity":0.9291338582677166,"duration":0.1859241187499947},{"name":"A#1","midi":34,"time":227.14255049999807,"velocity":0.7401574803149606,"duration":0.23004170625000597},{"name":"G#3","midi":56,"time":227.14255049999807,"velocity":0.8582677165354331,"duration":0.12184857500000135},{"name":"A#2","midi":46,"time":227.14255049999807,"velocity":0.9291338582677166,"duration":0.1859241187499947},{"name":"F#1","midi":30,"time":227.39465099999808,"velocity":0.7401574803149606,"duration":0.23004170625000597},{"name":"C#5","midi":73,"time":227.39465099999808,"velocity":0.8110236220472441,"duration":0.49999932500000455},{"name":"G#3","midi":56,"time":227.39465099999808,"velocity":0.8582677165354331,"duration":0.12184857500000135},{"name":"B1","midi":35,"time":227.39465099999808,"velocity":0.9291338582677166,"duration":0.12184857500000135},{"name":"D2","midi":38,"time":227.39465099999808,"velocity":0.9291338582677166,"duration":0.12184857500000135},{"name":"D#2","midi":39,"time":227.39465099999808,"velocity":0.9291338582677166,"duration":0.12184857500000135},{"name":"G3","midi":55,"time":227.39465099999808,"velocity":0.6299212598425197,"duration":0.12184857500000135},{"name":"F#2","midi":42,"time":227.39465099999808,"velocity":0.9291338582677166,"duration":0.1859241187499947},{"name":"F#1","midi":30,"time":227.6467514999981,"velocity":0.7401574803149606,"duration":0.23004170625000597},{"name":"G#3","midi":56,"time":227.6467514999981,"velocity":0.8582677165354331,"duration":0.12184857500000135},{"name":"F#2","midi":42,"time":227.6467514999981,"velocity":0.9291338582677166,"duration":0.1859241187499947},{"name":"G#1","midi":32,"time":227.89885199999807,"velocity":0.7401574803149606,"duration":0.23004170625000597},{"name":"D#5","midi":75,"time":227.89885199999807,"velocity":0.8110236220472441,"duration":2.012602325000131},{"name":"G#5","midi":80,"time":227.89885199999807,"velocity":0.8110236220472441,"duration":4.02940632500011},{"name":"B5","midi":83,"time":227.89885199999807,"velocity":0.8110236220472441,"duration":4.02940632500011},{"name":"G#3","midi":56,"time":227.89885199999807,"velocity":0.8582677165354331,"duration":0.3739490750000414},{"name":"B1","midi":35,"time":227.89885199999807,"velocity":0.9291338582677166,"duration":0.12184857500000135},{"name":"G3","midi":55,"time":227.89885199999807,"velocity":0.6299212598425197,"duration":0.12184857500000135},{"name":"G#2","midi":44,"time":227.89885199999807,"velocity":0.9291338582677166,"duration":0.1859241187499947},{"name":"G#4","midi":68,"time":227.89885199999807,"velocity":0.968503937007874,"duration":0.44012545625002986},{"name":"G#1","midi":32,"time":228.15095249999808,"velocity":0.7401574803149606,"duration":0.23004170625000597},{"name":"B4","midi":71,"time":228.15095249999808,"velocity":0.968503937007874,"duration":0.08718475625002498},{"name":"B3","midi":59,"time":228.15095249999808,"velocity":0.889763779527559,"duration":0.25945343125002296},{"name":"G#2","midi":44,"time":228.15095249999808,"velocity":0.9291338582677166,"duration":0.18592411875002313},{"name":"G#1","midi":32,"time":228.4030529999981,"velocity":0.7401574803149606,"duration":0.2300417062500344},{"name":"B4","midi":71,"time":228.4030529999981,"velocity":0.968503937007874,"duration":0.09978978125002413},{"name":"B1","midi":35,"time":228.4030529999981,"velocity":0.9291338582677166,"duration":0.12184857500002977},{"name":"D2","midi":38,"time":228.4030529999981,"velocity":0.9291338582677166,"duration":0.12184857500002977},{"name":"D#2","midi":39,"time":228.4030529999981,"velocity":0.9291338582677166,"duration":0.12184857500002977},{"name":"G3","midi":55,"time":228.4030529999981,"velocity":0.6299212598425197,"duration":0.12184857500002977},{"name":"G#2","midi":44,"time":228.4030529999981,"velocity":0.9291338582677166,"duration":0.18592411875002313},{"name":"G#4","midi":68,"time":228.4030529999981,"velocity":0.968503937007874,"duration":0.43592378125009645},{"name":"G#1","midi":32,"time":228.65515349999814,"velocity":0.7401574803149606,"duration":0.23004170625006282},{"name":"B4","midi":71,"time":228.65515349999814,"velocity":0.968503937007874,"duration":0.0777309875000185},{"name":"B3","midi":59,"time":228.65515349999814,"velocity":0.8503937007874016,"duration":0.28046180625005945},{"name":"G#2","midi":44,"time":228.65515349999814,"velocity":0.9291338582677166,"duration":0.18592411875005155},{"name":"D#2","midi":39,"time":228.9072539999982,"velocity":0.7401574803149606,"duration":0.23004170625000597},{"name":"B4","midi":71,"time":228.9072539999982,"velocity":0.968503937007874,"duration":0.07352931249999983},{"name":"B1","midi":35,"time":228.9072539999982,"velocity":0.9291338582677166,"duration":0.12184857500000135},{"name":"G3","midi":55,"time":228.9072539999982,"velocity":0.6299212598425197,"duration":0.12184857500000135},{"name":"D#3","midi":51,"time":228.9072539999982,"velocity":0.9291338582677166,"duration":0.1859241187499947},{"name":"D#2","midi":39,"time":229.15935449999822,"velocity":0.7401574803149606,"duration":0.23004170625000597},{"name":"B4","midi":71,"time":229.15935449999822,"velocity":0.968503937007874,"duration":0.06407554374999336},{"name":"B3","midi":59,"time":229.15935449999822,"velocity":0.889763779527559,"duration":0.2846634812500213},{"name":"D#3","midi":51,"time":229.15935449999822,"velocity":0.9291338582677166,"duration":0.1859241187499947},{"name":"G#1","midi":32,"time":229.41145499999823,"velocity":0.7401574803149606,"duration":0.23004170624997755},{"name":"B4","midi":71,"time":229.41145499999823,"velocity":0.968503937007874,"duration":0.1911762124999825},{"name":"B1","midi":35,"time":229.41145499999823,"velocity":0.9291338582677166,"duration":0.12184857500000135},{"name":"D2","midi":38,"time":229.41145499999823,"velocity":0.9291338582677166,"duration":0.12184857500000135},{"name":"D#2","midi":39,"time":229.41145499999823,"velocity":0.9291338582677166,"duration":0.12184857500000135},{"name":"G3","midi":55,"time":229.41145499999823,"velocity":0.6299212598425197,"duration":0.12184857500000135},{"name":"G#2","midi":44,"time":229.41145499999823,"velocity":0.9291338582677166,"duration":0.1859241187499947},{"name":"G#1","midi":32,"time":229.6635554999982,"velocity":0.7401574803149606,"duration":0.23004170625000597},{"name":"B4","midi":71,"time":229.6635554999982,"velocity":0.968503937007874,"duration":0.09978978124999571},{"name":"D#4","midi":63,"time":229.6635554999982,"velocity":0.7086614173228346,"duration":0.2510500812499856},{"name":"G#2","midi":44,"time":229.6635554999982,"velocity":0.9291338582677166,"duration":0.1859241187499947},{"name":"G#1","midi":32,"time":229.9156559999982,"velocity":0.7401574803149606,"duration":0.23004170625000597},{"name":"E5","midi":76,"time":229.9156559999982,"velocity":0.8110236220472441,"duration":2.012602324999989},{"name":"B4","midi":71,"time":229.9156559999982,"velocity":0.968503937007874,"duration":0.07773098749999008},{"name":"E4","midi":64,"time":229.9156559999982,"velocity":0.8503937007874016,"duration":0.8518896062500403},{"name":"B1","midi":35,"time":229.9156559999982,"velocity":0.9291338582677166,"duration":0.12184857500000135},{"name":"G3","midi":55,"time":229.9156559999982,"velocity":0.6299212598425197,"duration":0.12184857500000135},{"name":"G#2","midi":44,"time":229.9156559999982,"velocity":0.9291338582677166,"duration":0.1859241187499947},{"name":"G#1","midi":32,"time":230.1677564999982,"velocity":0.7401574803149606,"duration":0.23004170625000597},{"name":"B4","midi":71,"time":230.1677564999982,"velocity":0.968503937007874,"duration":0.07352931249999983},{"name":"G#2","midi":44,"time":230.1677564999982,"velocity":0.9291338582677166,"duration":0.1859241187499947},{"name":"E2","midi":40,"time":230.41985699999822,"velocity":0.7401574803149606,"duration":0.23004170625000597},{"name":"B4","midi":71,"time":230.41985699999822,"velocity":0.968503937007874,"duration":0.06407554374999336},{"name":"B1","midi":35,"time":230.41985699999822,"velocity":0.9291338582677166,"duration":0.12184857500000135},{"name":"D2","midi":38,"time":230.41985699999822,"velocity":0.9291338582677166,"duration":0.12184857500000135},{"name":"D#2","midi":39,"time":230.41985699999822,"velocity":0.9291338582677166,"duration":0.12184857500000135},{"name":"G3","midi":55,"time":230.41985699999822,"velocity":0.6299212598425197,"duration":0.12184857500000135},{"name":"E3","midi":52,"time":230.41985699999822,"velocity":0.9291338582677166,"duration":0.1859241187499947},{"name":"B1","midi":35,"time":230.67195749999823,"velocity":0.7401574803149606,"duration":0.23004170624997755},{"name":"B4","midi":71,"time":230.67195749999823,"velocity":0.968503937007874,"duration":0.1911762124999825},{"name":"B2","midi":47,"time":230.67195749999823,"velocity":0.9291338582677166,"duration":0.1859241187499947},{"name":"F#2","midi":42,"time":230.9240579999982,"velocity":0.7401574803149606,"duration":0.23004170625000597},{"name":"B1","midi":35,"time":230.9240579999982,"velocity":0.9291338582677166,"duration":0.12184857500000135},{"name":"G3","midi":55,"time":230.9240579999982,"velocity":0.6299212598425197,"duration":0.12184857500000135},{"name":"F#3","midi":54,"time":230.9240579999982,"velocity":0.9291338582677166,"duration":0.1859241187499947},{"name":"F#2","midi":42,"time":231.17615849999822,"velocity":0.7401574803149606,"duration":0.23004170625000597},{"name":"G#3","midi":56,"time":231.17615849999822,"velocity":0.8582677165354331,"duration":0.12184857500000135},{"name":"E4","midi":64,"time":231.17615849999822,"velocity":0.8503937007874016,"duration":0.24789882499999294},{"name":"F#3","midi":54,"time":231.17615849999822,"velocity":0.9291338582677166,"duration":0.1859241187499947},{"name":"F#2","midi":42,"time":231.4282589999982,"velocity":0.7401574803149606,"duration":0.23004170625000597},{"name":"G#3","midi":56,"time":231.4282589999982,"velocity":0.8582677165354331,"duration":0.12184857500000135},{"name":"D#4","midi":63,"time":231.4282589999982,"velocity":0.8503937007874016,"duration":0.24789882499999294},{"name":"B1","midi":35,"time":231.4282589999982,"velocity":0.9291338582677166,"duration":0.12184857500000135},{"name":"D2","midi":38,"time":231.4282589999982,"velocity":0.9291338582677166,"duration":0.12184857500000135},{"name":"D#2","midi":39,"time":231.4282589999982,"velocity":0.9291338582677166,"duration":0.12184857500000135},{"name":"G3","midi":55,"time":231.4282589999982,"velocity":0.6299212598425197,"duration":0.12184857500000135},{"name":"F#3","midi":54,"time":231.4282589999982,"velocity":0.9291338582677166,"duration":0.1859241187499947},{"name":"F#2","midi":42,"time":231.6803594999982,"velocity":0.7401574803149606,"duration":0.23004170625000597},{"name":"G#3","midi":56,"time":231.6803594999982,"velocity":0.8582677165354331,"duration":0.12184857500000135},{"name":"E4","midi":64,"time":231.6803594999982,"velocity":0.8503937007874016,"duration":0.24789882499999294},{"name":"F#3","midi":54,"time":231.6803594999982,"velocity":0.9291338582677166,"duration":0.1859241187499947},{"name":"B1","midi":35,"time":231.93245999999817,"velocity":0.7401574803149606,"duration":0.12184857500000135},{"name":"B4","midi":71,"time":231.93245999999817,"velocity":0.8110236220472441,"duration":0.33928525624997974},{"name":"D#5","midi":75,"time":231.93245999999817,"velocity":0.8110236220472441,"duration":2.0126023249998752},{"name":"F#5","midi":78,"time":231.93245999999817,"velocity":0.8110236220472441,"duration":2.0126023249998752},{"name":"G#3","midi":56,"time":231.93245999999817,"velocity":0.8582677165354331,"duration":0.37394907499998453},{"name":"D#4","midi":63,"time":231.93245999999817,"velocity":0.8503937007874016,"duration":0.24789882499999294},{"name":"B1","midi":35,"time":231.93245999999817,"velocity":0.9291338582677166,"duration":0.23004170625000597},{"name":"G3","midi":55,"time":231.93245999999817,"velocity":0.6299212598425197,"duration":0.12184857500000135},{"name":"B2","midi":47,"time":231.93245999999817,"velocity":0.9291338582677166,"duration":0.1859241187499947},{"name":"B1","midi":35,"time":232.18456049999816,"velocity":0.7401574803149606,"duration":0.23004170625000597},{"name":"B4","midi":71,"time":232.18456049999816,"velocity":0.968503937007874,"duration":0.3518902812499789},{"name":"B3","midi":59,"time":232.18456049999816,"velocity":0.8503937007874016,"duration":0.24789882499999294},{"name":"B2","midi":47,"time":232.18456049999816,"velocity":0.9291338582677166,"duration":0.1859241187499947},{"name":"B1","midi":35,"time":232.43666099999814,"velocity":0.7401574803149606,"duration":0.12184857500000135},{"name":"B4","midi":71,"time":232.43666099999814,"velocity":0.968503937007874,"duration":0.32983148749997326},{"name":"F#3","midi":54,"time":232.43666099999814,"velocity":0.8503937007874016,"duration":0.24789882499999294},{"name":"B1","midi":35,"time":232.43666099999814,"velocity":0.9291338582677166,"duration":0.23004170625000597},{"name":"D2","midi":38,"time":232.43666099999814,"velocity":0.9291338582677166,"duration":0.12184857500000135},{"name":"D#2","midi":39,"time":232.43666099999814,"velocity":0.9291338582677166,"duration":0.12184857500000135},{"name":"G3","midi":55,"time":232.43666099999814,"velocity":0.6299212598425197,"duration":0.12184857500000135},{"name":"B2","midi":47,"time":232.43666099999814,"velocity":0.9291338582677166,"duration":0.1859241187499947},{"name":"B1","midi":35,"time":232.68876149999812,"velocity":0.7401574803149606,"duration":0.23004170625000597},{"name":"B4","midi":71,"time":232.68876149999812,"velocity":0.968503937007874,"duration":0.325629812499983},{"name":"E3","midi":52,"time":232.68876149999812,"velocity":0.8503937007874016,"duration":0.24789882499999294},{"name":"B2","midi":47,"time":232.68876149999812,"velocity":0.9291338582677166,"duration":0.1859241187499947},{"name":"F#1","midi":30,"time":232.9408619999981,"velocity":0.7401574803149606,"duration":0.23004170625000597},{"name":"B4","midi":71,"time":232.9408619999981,"velocity":0.968503937007874,"duration":0.31617604374997654},{"name":"F#3","midi":54,"time":232.9408619999981,"velocity":0.8503937007874016,"duration":0.24789882499999294},{"name":"B1","midi":35,"time":232.9408619999981,"velocity":0.9291338582677166,"duration":0.12184857500000135},{"name":"G3","midi":55,"time":232.9408619999981,"velocity":0.6299212598425197,"duration":0.12184857500000135},{"name":"F#2","midi":42,"time":232.9408619999981,"velocity":0.9291338582677166,"duration":0.1859241187499947},{"name":"F#1","midi":30,"time":233.1929624999981,"velocity":0.7401574803149606,"duration":0.23004170625000597},{"name":"B4","midi":71,"time":233.1929624999981,"velocity":0.968503937007874,"duration":0.4432767124999657},{"name":"D#4","midi":63,"time":233.1929624999981,"velocity":0.8503937007874016,"duration":0.24789882499999294},{"name":"F#2","midi":42,"time":233.1929624999981,"velocity":0.9291338582677166,"duration":0.1859241187499947},{"name":"B1","midi":35,"time":233.44506299999807,"velocity":0.7401574803149606,"duration":0.12184857500000135},{"name":"B4","midi":71,"time":233.44506299999807,"velocity":0.968503937007874,"duration":0.3518902812499789},{"name":"B1","midi":35,"time":233.44506299999807,"velocity":0.9291338582677166,"duration":0.23004170624997755},{"name":"D2","midi":38,"time":233.44506299999807,"velocity":0.9291338582677166,"duration":0.12184857500000135},{"name":"D#2","midi":39,"time":233.44506299999807,"velocity":0.9291338582677166,"duration":0.12184857500000135},{"name":"G3","midi":55,"time":233.44506299999807,"velocity":0.6299212598425197,"duration":0.12184857500000135},{"name":"B2","midi":47,"time":233.44506299999807,"velocity":0.9291338582677166,"duration":0.1859241187499947},{"name":"B1","midi":35,"time":233.69716349999806,"velocity":0.7401574803149606,"duration":0.23004170625000597},{"name":"B4","midi":71,"time":233.69716349999806,"velocity":0.968503937007874,"duration":0.24789882499999294},{"name":"B3","midi":59,"time":233.69716349999806,"velocity":0.8503937007874016,"duration":0.24789882499999294},{"name":"B2","midi":47,"time":233.69716349999806,"velocity":0.9291338582677166,"duration":0.1859241187499947},{"name":"A#1","midi":34,"time":233.94926399999804,"velocity":0.7401574803149606,"duration":0.23004170625000597},{"name":"A#4","midi":70,"time":233.94926399999804,"velocity":0.8110236220472441,"duration":2.012602324999989},{"name":"C#5","midi":73,"time":233.94926399999804,"velocity":0.8110236220472441,"duration":1.2563008249999825},{"name":"A#5","midi":82,"time":233.94926399999804,"velocity":0.8110236220472441,"duration":2.012602324999989},{"name":"B4","midi":71,"time":233.94926399999804,"velocity":0.968503937007874,"duration":0.07773098749999008},{"name":"C#4","midi":61,"time":233.94926399999804,"velocity":0.8503937007874016,"duration":1.0042003249999993},{"name":"B1","midi":35,"time":233.94926399999804,"velocity":0.9291338582677166,"duration":0.12184857500000135},{"name":"G3","midi":55,"time":233.94926399999804,"velocity":0.6299212598425197,"duration":0.12184857500000135},{"name":"A#2","midi":46,"time":233.94926399999804,"velocity":0.9291338582677166,"duration":0.1859241187499947},{"name":"A#1","midi":34,"time":234.20136449999805,"velocity":0.7401574803149606,"duration":0.23004170625000597},{"name":"B4","midi":71,"time":234.20136449999805,"velocity":0.968503937007874,"duration":0.07352931249999983},{"name":"A#2","midi":46,"time":234.20136449999805,"velocity":0.9291338582677166,"duration":0.1859241187499947},{"name":"A#1","midi":34,"time":234.45346499999806,"velocity":0.7401574803149606,"duration":0.23004170625000597},{"name":"G#5","midi":80,"time":234.45346499999806,"velocity":0.8110236220472441,"duration":1.3823510749999741},{"name":"B4","midi":71,"time":234.45346499999806,"velocity":0.968503937007874,"duration":0.06407554374999336},{"name":"B1","midi":35,"time":234.45346499999806,"velocity":0.9291338582677166,"duration":0.12184857500000135},{"name":"D2","midi":38,"time":234.45346499999806,"velocity":0.9291338582677166,"duration":0.12184857500000135},{"name":"D#2","midi":39,"time":234.45346499999806,"velocity":0.9291338582677166,"duration":0.12184857500000135},{"name":"G3","midi":55,"time":234.45346499999806,"velocity":0.6299212598425197,"duration":0.12184857500000135},{"name":"A#2","midi":46,"time":234.45346499999806,"velocity":0.9291338582677166,"duration":0.1859241187499947},{"name":"A#1","midi":34,"time":234.70556549999807,"velocity":0.7401574803149606,"duration":0.23004170624997755},{"name":"B4","midi":71,"time":234.70556549999807,"velocity":0.968503937007874,"duration":0.1911762124999825},{"name":"A#2","midi":46,"time":234.70556549999807,"velocity":0.9291338582677166,"duration":0.1859241187499947},{"name":"A#1","midi":34,"time":234.95766599999803,"velocity":0.7401574803149606,"duration":0.23004170625000597},{"name":"F#5","midi":78,"time":234.95766599999803,"velocity":0.8110236220472441,"duration":1.0042003249999993},{"name":"B1","midi":35,"time":234.95766599999803,"velocity":0.9291338582677166,"duration":0.12184857500000135},{"name":"G3","midi":55,"time":234.95766599999803,"velocity":0.6299212598425197,"duration":0.12184857500000135},{"name":"A#2","midi":46,"time":234.95766599999803,"velocity":0.9291338582677166,"duration":0.1859241187499947},{"name":"A#1","midi":34,"time":235.209766499998,"velocity":0.7401574803149606,"duration":0.23004170625000597},{"name":"G#3","midi":56,"time":235.209766499998,"velocity":0.8582677165354331,"duration":0.12184857500000135},{"name":"A#2","midi":46,"time":235.209766499998,"velocity":0.9291338582677166,"duration":0.1859241187499947},{"name":"F#1","midi":30,"time":235.46186699999802,"velocity":0.7401574803149606,"duration":0.23004170625000597},{"name":"C#5","midi":73,"time":235.46186699999802,"velocity":0.8110236220472441,"duration":0.49999932500000455},{"name":"G#3","midi":56,"time":235.46186699999802,"velocity":0.8582677165354331,"duration":0.12184857500000135},{"name":"B1","midi":35,"time":235.46186699999802,"velocity":0.9291338582677166,"duration":0.12184857500000135},{"name":"D2","midi":38,"time":235.46186699999802,"velocity":0.9291338582677166,"duration":0.12184857500000135},{"name":"D#2","midi":39,"time":235.46186699999802,"velocity":0.9291338582677166,"duration":0.12184857500000135},{"name":"G3","midi":55,"time":235.46186699999802,"velocity":0.6299212598425197,"duration":0.12184857500000135},{"name":"F#2","midi":42,"time":235.46186699999802,"velocity":0.9291338582677166,"duration":0.1859241187499947},{"name":"F#1","midi":30,"time":235.71396749999803,"velocity":0.7401574803149606,"duration":0.23004170625000597},{"name":"G#3","midi":56,"time":235.71396749999803,"velocity":0.8582677165354331,"duration":0.12184857500000135},{"name":"F#2","midi":42,"time":235.71396749999803,"velocity":0.9291338582677166,"duration":0.1859241187499947},{"name":"G#3","midi":56,"time":235.96606799999802,"velocity":0.8582677165354331,"duration":0.37394907500001295}]}]}
