{"bpm":125,"duration":224.1600000000034,"tracks":[{"instrumentFamily":"piano","notes":[{"name":"D#4","midi":63,"time":23.04,"velocity":1,"duration":0.4800000000000111},{"name":"D#4","midi":63,"time":23.760000000000012,"velocity":1,"duration":0.23999999999999844},{"name":"E4","midi":64,"time":24.00000000000001,"velocity":1,"duration":0.23999999999999844},{"name":"B3","midi":59,"time":24.480000000000008,"velocity":1,"duration":0.120000000000001},{"name":"G#3","midi":56,"time":24.72000000000001,"velocity":1,"duration":0.08999999999999986},{"name":"B3","midi":59,"time":24.81000000000001,"velocity":1,"duration":0.030000000000001137},{"name":"D#4","midi":63,"time":24.84000000000001,"velocity":1,"duration":0.4800000000000111},{"name":"D#4","midi":63,"time":25.68000000000002,"velocity":1,"duration":0.23999999999999844},{"name":"E4","midi":64,"time":25.92000000000002,"velocity":1,"duration":0.23999999999999844},{"name":"B3","midi":59,"time":26.400000000000016,"velocity":1,"duration":0.120000000000001},{"name":"G#3","midi":56,"time":26.64000000000002,"velocity":1,"duration":0.08999999999999986},{"name":"B3","midi":59,"time":26.730000000000018,"velocity":1,"duration":0.030000000000001137},{"name":"D#4","midi":63,"time":26.76000000000002,"velocity":1,"duration":0.4800000000000111},{"name":"D#4","midi":63,"time":27.60000000000003,"velocity":1,"duration":0.23999999999999844},{"name":"E4","midi":64,"time":27.84000000000003,"velocity":1,"duration":0.23999999999999844},{"name":"B3","midi":59,"time":28.320000000000025,"velocity":1,"duration":0.120000000000001},{"name":"G#3","midi":56,"time":28.560000000000027,"velocity":1,"duration":0.08999999999999986},{"name":"B3","midi":59,"time":28.650000000000027,"velocity":1,"duration":0.030000000000001137},{"name":"D#4","midi":63,"time":28.680000000000028,"velocity":1,"duration":0.4800000000000111},{"name":"D#4","midi":63,"time":29.52000000000004,"velocity":1,"duration":0.23999999999999844},{"name":"E4","midi":64,"time":29.760000000000037,"velocity":1,"duration":0.23999999999999844},{"name":"B3","midi":59,"time":30.240000000000034,"velocity":1,"duration":0.120000000000001},{"name":"G#3","midi":56,"time":30.480000000000036,"velocity":1,"duration":0.08999999999999986},{"name":"B3","midi":59,"time":30.570000000000036,"velocity":1,"duration":0.030000000000001137},{"name":"D#4","midi":63,"time":30.600000000000037,"velocity":1,"duration":0.4800000000000111},{"name":"D#4","midi":63,"time":31.440000000000047,"velocity":1,"duration":0.23999999999999844},{"name":"E4","midi":64,"time":31.680000000000046,"velocity":1,"duration":0.23999999999999844},{"name":"B3","midi":59,"time":32.160000000000046,"velocity":1,"duration":0.11999999999999744},{"name":"G#3","midi":56,"time":32.40000000000004,"velocity":1,"duration":0.09000000000000341},{"name":"B3","midi":59,"time":32.490000000000045,"velocity":1,"duration":0.030000000000001137},{"name":"D#4","midi":63,"time":32.520000000000046,"velocity":1,"duration":0.480000000000004},{"name":"D#4","midi":63,"time":33.36000000000005,"velocity":1,"duration":0.240000000000002},{"name":"E4","midi":64,"time":33.60000000000005,"velocity":1,"duration":0.240000000000002},{"name":"B3","midi":59,"time":34.080000000000055,"velocity":1,"duration":0.11999999999999744},{"name":"G#3","midi":56,"time":34.32000000000005,"velocity":1,"duration":0.09000000000000341},{"name":"B3","midi":59,"time":34.41000000000005,"velocity":1,"duration":0.030000000000001137},{"name":"D#4","midi":63,"time":34.440000000000055,"velocity":1,"duration":0.480000000000004},{"name":"D#4","midi":63,"time":35.28000000000006,"velocity":1,"duration":0.240000000000002},{"name":"E4","midi":64,"time":35.52000000000006,"velocity":1,"duration":0.240000000000002},{"name":"B3","midi":59,"time":36.000000000000064,"velocity":1,"duration":0.11999999999999744},{"name":"G#3","midi":56,"time":36.24000000000006,"velocity":1,"duration":0.09000000000000341},{"name":"B3","midi":59,"time":36.33000000000006,"velocity":1,"duration":0.030000000000001137},{"name":"D#4","midi":63,"time":36.36000000000006,"velocity":1,"duration":0.480000000000004},{"name":"D#4","midi":63,"time":37.20000000000007,"velocity":1,"duration":0.240000000000002},{"name":"E4","midi":64,"time":37.44000000000007,"velocity":1,"duration":0.240000000000002},{"name":"D#4","midi":63,"time":37.68000000000007,"velocity":1,"duration":0.240000000000002},{"name":"B3","midi":59,"time":37.92000000000007,"velocity":1,"duration":0.11999999999999744},{"name":"G#3","midi":56,"time":38.16000000000007,"velocity":1,"duration":0.09000000000000341},{"name":"B3","midi":59,"time":38.25000000000007,"velocity":1,"duration":0.030000000000001137},{"name":"D#4","midi":63,"time":38.28000000000007,"velocity":1,"duration":0.480000000000004},{"name":"D#4","midi":63,"time":39.120000000000076,"velocity":1,"duration":0.240000000000002},{"name":"E4","midi":64,"time":39.36000000000008,"velocity":1,"duration":0.240000000000002},{"name":"B3","midi":59,"time":39.84000000000008,"velocity":1,"duration":0.11999999999999744},{"name":"G#3","midi":56,"time":40.08000000000008,"velocity":1,"duration":0.09000000000000341},{"name":"B3","midi":59,"time":40.17000000000008,"velocity":1,"duration":0.030000000000001137},{"name":"D#4","midi":63,"time":40.20000000000008,"velocity":1,"duration":0.480000000000004},{"name":"D#4","midi":63,"time":41.040000000000084,"velocity":1,"duration":0.240000000000002},{"name":"E4","midi":64,"time":41.280000000000086,"velocity":1,"duration":0.240000000000002},{"name":"B3","midi":59,"time":41.76000000000009,"velocity":1,"duration":0.11999999999999744},{"name":"G#3","midi":56,"time":42.000000000000085,"velocity":1,"duration":0.09000000000000341},{"name":"B3","midi":59,"time":42.09000000000009,"velocity":1,"duration":0.030000000000001137},{"name":"D#4","midi":63,"time":42.12000000000009,"velocity":1,"duration":0.480000000000004},{"name":"D#4","midi":63,"time":42.96000000000009,"velocity":1,"duration":0.240000000000002},{"name":"E4","midi":64,"time":43.200000000000095,"velocity":1,"duration":0.240000000000002},{"name":"B3","midi":59,"time":43.6800000000001,"velocity":1,"duration":0.11999999999999744},{"name":"G#3","midi":56,"time":43.920000000000094,"velocity":1,"duration":0.09000000000000341},{"name":"B3","midi":59,"time":44.0100000000001,"velocity":1,"duration":0.030000000000001137},{"name":"D#4","midi":63,"time":44.0400000000001,"velocity":1,"duration":0.480000000000004},{"name":"D#4","midi":63,"time":44.8800000000001,"velocity":1,"duration":0.240000000000002},{"name":"E4","midi":64,"time":45.120000000000104,"velocity":1,"duration":0.240000000000002},{"name":"B3","midi":59,"time":45.60000000000011,"velocity":1,"duration":0.11999999999999744},{"name":"G#3","midi":56,"time":45.8400000000001,"velocity":1,"duration":0.09000000000000341},{"name":"B3","midi":59,"time":45.930000000000106,"velocity":1,"duration":0.030000000000001137},{"name":"D#4","midi":63,"time":45.96000000000011,"velocity":1,"duration":0.480000000000004},{"name":"D#4","midi":63,"time":46.80000000000011,"velocity":1,"duration":0.240000000000002},{"name":"E4","midi":64,"time":47.04000000000011,"velocity":1,"duration":0.240000000000002},{"name":"B3","midi":59,"time":47.52000000000012,"velocity":1,"duration":0.11999999999999744},{"name":"G#3","midi":56,"time":47.76000000000011,"velocity":1,"duration":0.09000000000000341},{"name":"B3","midi":59,"time":47.850000000000115,"velocity":1,"duration":0.030000000000001137},{"name":"D#4","midi":63,"time":47.880000000000116,"velocity":1,"duration":0.480000000000004},{"name":"D#4","midi":63,"time":48.72000000000012,"velocity":1,"duration":0.240000000000002},{"name":"E4","midi":64,"time":48.96000000000012,"velocity":1,"duration":0.240000000000002},{"name":"B3","midi":59,"time":49.440000000000126,"velocity":1,"duration":0.11999999999999744},{"name":"G#3","midi":56,"time":49.68000000000012,"velocity":1,"duration":0.09000000000000341},{"name":"B3","midi":59,"time":49.770000000000124,"velocity":1,"duration":0.030000000000001137},{"name":"D#4","midi":63,"time":49.800000000000125,"velocity":1,"duration":0.480000000000004},{"name":"D#4","midi":63,"time":50.64000000000013,"velocity":1,"duration":0.240000000000002},{"name":"E4","midi":64,"time":50.88000000000013,"velocity":1,"duration":0.240000000000002},{"name":"B3","midi":59,"time":51.360000000000134,"velocity":1,"duration":0.11999999999999744},{"name":"G#3","midi":56,"time":51.60000000000013,"velocity":1,"duration":0.09000000000000341},{"name":"B3","midi":59,"time":51.69000000000013,"velocity":1,"duration":0.030000000000001137},{"name":"D#4","midi":63,"time":51.720000000000134,"velocity":1,"duration":0.480000000000004},{"name":"D#4","midi":63,"time":52.56000000000014,"velocity":1,"duration":0.240000000000002},{"name":"E4","midi":64,"time":52.80000000000014,"velocity":1,"duration":0.240000000000002},{"name":"D#4","midi":63,"time":53.04000000000014,"velocity":1,"duration":0.240000000000002},{"name":"B3","midi":59,"time":53.28000000000014,"velocity":1,"duration":0.11999999999999744},{"name":"G#3","midi":56,"time":53.52000000000014,"velocity":1,"duration":0.11999999999999744},{"name":"F#4","midi":66,"time":53.640000000000136,"velocity":1,"duration":0.6000000000000014},{"name":"F#4","midi":66,"time":54.48000000000014,"velocity":1,"duration":0.240000000000002},{"name":"G#4","midi":68,"time":54.72000000000014,"velocity":1,"duration":0.240000000000002},{"name":"D#4","midi":63,"time":55.200000000000145,"velocity":1,"duration":0.11999999999999744},{"name":"B3","midi":59,"time":55.44000000000014,"velocity":1,"duration":0.09000000000000341},{"name":"D#4","midi":63,"time":55.53000000000014,"velocity":1,"duration":0.030000000000001137},{"name":"F#4","midi":66,"time":55.560000000000144,"velocity":1,"duration":0.6000000000000014},{"name":"F#4","midi":66,"time":56.40000000000015,"velocity":1,"duration":0.240000000000002},{"name":"G#4","midi":68,"time":56.64000000000015,"velocity":1,"duration":0.240000000000002},{"name":"D#4","midi":63,"time":57.120000000000154,"velocity":1,"duration":0.11999999999999744},{"name":"B3","midi":59,"time":57.36000000000015,"velocity":1,"duration":0.09000000000000341},{"name":"D#4","midi":63,"time":57.45000000000015,"velocity":1,"duration":0.030000000000001137},{"name":"F#4","midi":66,"time":57.48000000000015,"velocity":1,"duration":0.6000000000000014},{"name":"F#4","midi":66,"time":58.32000000000016,"velocity":1,"duration":0.240000000000002},{"name":"G#4","midi":68,"time":58.56000000000016,"velocity":1,"duration":0.240000000000002},{"name":"D#4","midi":63,"time":59.04000000000016,"velocity":1,"duration":0.11999999999999744},{"name":"B3","midi":59,"time":59.28000000000016,"velocity":1,"duration":0.09000000000000341},{"name":"D#4","midi":63,"time":59.37000000000016,"velocity":1,"duration":0.030000000000001137},{"name":"F#4","midi":66,"time":59.40000000000016,"velocity":1,"duration":0.6000000000000014},{"name":"F#4","midi":66,"time":60.240000000000165,"velocity":1,"duration":0.240000000000002},{"name":"G#4","midi":68,"time":60.48000000000017,"velocity":1,"duration":0.240000000000002},{"name":"F#4","midi":66,"time":60.72000000000017,"velocity":1,"duration":0.240000000000002},{"name":"D#4","midi":63,"time":60.96000000000017,"velocity":1,"duration":0.11999999999999744},{"name":"B3","midi":59,"time":61.200000000000166,"velocity":1,"duration":0.11999999999999744},{"name":"F#4","midi":66,"time":61.320000000000164,"velocity":1,"duration":0.6000000000000014},{"name":"F#4","midi":66,"time":62.16000000000017,"velocity":1,"duration":0.240000000000002},{"name":"G#4","midi":68,"time":62.40000000000017,"velocity":1,"duration":0.240000000000002},{"name":"D#4","midi":63,"time":62.88000000000017,"velocity":1,"duration":0.11999999999999744},{"name":"B3","midi":59,"time":63.12000000000017,"velocity":1,"duration":0.09000000000000341},{"name":"D#4","midi":63,"time":63.21000000000017,"velocity":1,"duration":0.030000000000001137},{"name":"F#4","midi":66,"time":63.24000000000017,"velocity":1,"duration":0.6000000000000014},{"name":"F#4","midi":66,"time":64.08000000000017,"velocity":1,"duration":0.23999999999999488},{"name":"G#4","midi":68,"time":64.32000000000016,"velocity":1,"duration":0.23999999999999488},{"name":"D#4","midi":63,"time":64.80000000000015,"velocity":1,"duration":0.12000000000000455},{"name":"B3","midi":59,"time":65.04000000000016,"velocity":1,"duration":0.09000000000000341},{"name":"D#4","midi":63,"time":65.13000000000017,"velocity":1,"duration":0.030000000000001137},{"name":"F#4","midi":66,"time":65.16000000000017,"velocity":1,"duration":0.600000000000037},{"name":"F#4","midi":66,"time":66.0000000000002,"velocity":1,"duration":0.23999999999999488},{"name":"G#4","midi":68,"time":66.2400000000002,"velocity":1,"duration":0.23999999999999488},{"name":"D#4","midi":63,"time":66.72000000000018,"velocity":1,"duration":0.12000000000000455},{"name":"B3","midi":59,"time":66.96000000000019,"velocity":1,"duration":0.09000000000000341},{"name":"D#4","midi":63,"time":67.0500000000002,"velocity":1,"duration":0.030000000000001137},{"name":"F#4","midi":66,"time":67.0800000000002,"velocity":1,"duration":0.600000000000037},{"name":"F#4","midi":66,"time":67.92000000000023,"velocity":1,"duration":0.23999999999999488},{"name":"G#4","midi":68,"time":68.16000000000022,"velocity":1,"duration":0.23999999999999488},{"name":"F#4","midi":66,"time":68.40000000000022,"velocity":1,"duration":0.23999999999999488},{"name":"D#4","midi":63,"time":68.64000000000021,"velocity":1,"duration":0.12000000000000455},{"name":"B3","midi":59,"time":68.88000000000022,"velocity":1,"duration":0.12000000000000455},{"name":"F#4","midi":66,"time":69.00000000000023,"velocity":1,"duration":0.600000000000037},{"name":"F#4","midi":66,"time":69.84000000000026,"velocity":1,"duration":0.23999999999999488},{"name":"G#4","midi":68,"time":70.08000000000025,"velocity":1,"duration":0.23999999999999488},{"name":"D#4","midi":63,"time":70.56000000000024,"velocity":1,"duration":0.12000000000000455},{"name":"B3","midi":59,"time":70.80000000000025,"velocity":1,"duration":0.09000000000000341},{"name":"D#4","midi":63,"time":70.89000000000026,"velocity":1,"duration":0.030000000000001137},{"name":"F#4","midi":66,"time":70.92000000000026,"velocity":1,"duration":0.600000000000037},{"name":"F#4","midi":66,"time":71.76000000000029,"velocity":1,"duration":0.23999999999999488},{"name":"G#4","midi":68,"time":72.00000000000028,"velocity":1,"duration":0.23999999999999488},{"name":"D#4","midi":63,"time":72.48000000000027,"velocity":1,"duration":0.12000000000000455},{"name":"B3","midi":59,"time":72.72000000000028,"velocity":1,"duration":0.09000000000000341},{"name":"D#4","midi":63,"time":72.81000000000029,"velocity":1,"duration":0.030000000000001137},{"name":"A#4","midi":70,"time":72.84000000000029,"velocity":1,"duration":0.600000000000037},{"name":"A#4","midi":70,"time":73.68000000000032,"velocity":1,"duration":0.23999999999999488},{"name":"B4","midi":71,"time":73.92000000000031,"velocity":1,"duration":0.23999999999999488},{"name":"F#4","midi":66,"time":74.4000000000003,"velocity":1,"duration":0.12000000000000455},{"name":"D#4","midi":63,"time":74.64000000000031,"velocity":1,"duration":0.09000000000000341},{"name":"F#4","midi":66,"time":74.73000000000032,"velocity":1,"duration":0.030000000000001137},{"name":"A#4","midi":70,"time":74.76000000000032,"velocity":1,"duration":0.600000000000037},{"name":"A#4","midi":70,"time":75.60000000000035,"velocity":1,"duration":0.23999999999999488},{"name":"B4","midi":71,"time":75.84000000000034,"velocity":1,"duration":0.23999999999999488},{"name":"F#4","midi":66,"time":76.32000000000033,"velocity":1,"duration":0.12000000000000455},{"name":"D#4","midi":63,"time":76.56000000000034,"velocity":1,"duration":0.09000000000000341},{"name":"F#4","midi":66,"time":76.65000000000035,"velocity":1,"duration":0.030000000000001137},{"name":"A#4","midi":70,"time":76.68000000000035,"velocity":1,"duration":0.600000000000037},{"name":"A#4","midi":70,"time":77.52000000000038,"velocity":1,"duration":0.23999999999999488},{"name":"B4","midi":71,"time":77.76000000000037,"velocity":1,"duration":0.23999999999999488},{"name":"F#4","midi":66,"time":78.24000000000036,"velocity":1,"duration":0.12000000000000455},{"name":"D#4","midi":63,"time":78.48000000000037,"velocity":1,"duration":0.09000000000000341},{"name":"F#4","midi":66,"time":78.57000000000038,"velocity":1,"duration":0.030000000000001137},{"name":"A#4","midi":70,"time":78.60000000000038,"velocity":1,"duration":0.600000000000037},{"name":"A#4","midi":70,"time":79.44000000000041,"velocity":1,"duration":0.23999999999999488},{"name":"B4","midi":71,"time":79.6800000000004,"velocity":1,"duration":0.23999999999999488},{"name":"F#4","midi":66,"time":80.1600000000004,"velocity":1,"duration":0.12000000000000455},{"name":"D#4","midi":63,"time":80.4000000000004,"velocity":1,"duration":0.09000000000000341},{"name":"F#4","midi":66,"time":80.4900000000004,"velocity":1,"duration":0.030000000000001137},{"name":"A#4","midi":70,"time":80.52000000000041,"velocity":1,"duration":0.600000000000037},{"name":"A#4","midi":70,"time":81.36000000000044,"velocity":1,"duration":0.23999999999999488},{"name":"B4","midi":71,"time":81.60000000000043,"velocity":1,"duration":0.23999999999999488},{"name":"F#4","midi":66,"time":82.08000000000042,"velocity":1,"duration":0.12000000000000455},{"name":"D#4","midi":63,"time":82.32000000000043,"velocity":1,"duration":0.09000000000000341},{"name":"F#4","midi":66,"time":82.41000000000044,"velocity":1,"duration":0.030000000000001137},{"name":"A#4","midi":70,"time":82.44000000000044,"velocity":1,"duration":0.600000000000037},{"name":"A#4","midi":70,"time":83.28000000000047,"velocity":1,"duration":0.23999999999999488},{"name":"B4","midi":71,"time":83.52000000000046,"velocity":1,"duration":0.23999999999999488},{"name":"F#4","midi":66,"time":84.00000000000045,"velocity":1,"duration":0.12000000000000455},{"name":"D#4","midi":63,"time":84.24000000000046,"velocity":1,"duration":0.09000000000000341},{"name":"F#4","midi":66,"time":84.33000000000047,"velocity":1,"duration":0.030000000000001137},{"name":"D#5","midi":75,"time":84.36000000000047,"velocity":1,"duration":0.4800000000000324},{"name":"D#5","midi":75,"time":85.2000000000005,"velocity":1,"duration":0.23999999999999488},{"name":"E5","midi":76,"time":85.4400000000005,"velocity":1,"duration":0.23999999999999488},{"name":"B4","midi":71,"time":85.92000000000048,"velocity":1,"duration":0.12000000000000455},{"name":"G#4","midi":68,"time":86.1600000000005,"velocity":1,"duration":0.09000000000000341},{"name":"B4","midi":71,"time":86.2500000000005,"velocity":1,"duration":0.030000000000001137},{"name":"D#5","midi":75,"time":86.2800000000005,"velocity":1,"duration":0.4800000000000324},{"name":"D#5","midi":75,"time":87.12000000000053,"velocity":1,"duration":0.23999999999999488},{"name":"E5","midi":76,"time":87.36000000000053,"velocity":1,"duration":0.23999999999999488},{"name":"B4","midi":71,"time":87.84000000000052,"velocity":1,"duration":0.12000000000000455},{"name":"G#4","midi":68,"time":88.08000000000052,"velocity":1,"duration":0.09000000000000341},{"name":"B4","midi":71,"time":88.17000000000053,"velocity":1,"duration":0.030000000000001137},{"name":"D#5","midi":75,"time":88.20000000000053,"velocity":1,"duration":0.4800000000000324},{"name":"D#5","midi":75,"time":89.04000000000056,"velocity":1,"duration":0.23999999999999488},{"name":"E5","midi":76,"time":89.28000000000056,"velocity":1,"duration":0.23999999999999488},{"name":"B4","midi":71,"time":89.76000000000055,"velocity":1,"duration":0.12000000000000455},{"name":"G#4","midi":68,"time":90.00000000000055,"velocity":1,"duration":0.09000000000000341},{"name":"B4","midi":71,"time":90.09000000000056,"velocity":1,"duration":0.030000000000001137},{"name":"D#5","midi":75,"time":90.12000000000056,"velocity":1,"duration":0.4800000000000324},{"name":"D#5","midi":75,"time":90.96000000000059,"velocity":1,"duration":0.23999999999999488},{"name":"E5","midi":76,"time":91.20000000000059,"velocity":1,"duration":0.23999999999999488},{"name":"B4","midi":71,"time":91.68000000000058,"velocity":1,"duration":0.12000000000000455},{"name":"G#4","midi":68,"time":91.92000000000058,"velocity":1,"duration":0.09000000000000341},{"name":"B4","midi":71,"time":92.01000000000059,"velocity":1,"duration":0.030000000000001137},{"name":"D#5","midi":75,"time":92.04000000000059,"velocity":1,"duration":0.4800000000000324},{"name":"D#5","midi":75,"time":92.88000000000062,"velocity":1,"duration":0.23999999999999488},{"name":"E5","midi":76,"time":93.12000000000062,"velocity":1,"duration":0.23999999999999488},{"name":"B4","midi":71,"time":93.6000000000006,"velocity":1,"duration":0.12000000000000455},{"name":"G#4","midi":68,"time":93.84000000000061,"velocity":1,"duration":0.09000000000000341},{"name":"B4","midi":71,"time":93.93000000000062,"velocity":1,"duration":0.030000000000001137},{"name":"D#5","midi":75,"time":93.96000000000062,"velocity":1,"duration":0.4800000000000324},{"name":"D#5","midi":75,"time":94.80000000000065,"velocity":1,"duration":0.23999999999999488},{"name":"E5","midi":76,"time":95.04000000000065,"velocity":1,"duration":0.23999999999999488},{"name":"B4","midi":71,"time":95.52000000000064,"velocity":1,"duration":0.12000000000000455},{"name":"G#4","midi":68,"time":95.76000000000064,"velocity":1,"duration":0.09000000000000341},{"name":"B4","midi":71,"time":95.85000000000065,"velocity":1,"duration":0.030000000000001137},{"name":"D#5","midi":75,"time":95.88000000000065,"velocity":1,"duration":0.4800000000000324},{"name":"D#5","midi":75,"time":96.72000000000068,"velocity":1,"duration":0.23999999999999488},{"name":"E5","midi":76,"time":96.96000000000068,"velocity":1,"duration":0.23999999999999488},{"name":"B4","midi":71,"time":97.44000000000067,"velocity":1,"duration":0.12000000000000455},{"name":"G#4","midi":68,"time":97.68000000000067,"velocity":1,"duration":0.09000000000000341},{"name":"B4","midi":71,"time":97.77000000000068,"velocity":1,"duration":0.030000000000001137},{"name":"D#5","midi":75,"time":97.80000000000068,"velocity":1,"duration":0.4800000000000324},{"name":"B4","midi":71,"time":98.64000000000071,"velocity":1,"duration":0.12000000000000455},{"name":"A#4","midi":70,"time":98.88000000000072,"velocity":1,"duration":0.12000000000000455},{"name":"B4","midi":71,"time":99.12000000000073,"velocity":1,"duration":0.12000000000000455},{"name":"B4","midi":71,"time":99.36000000000074,"velocity":1,"duration":0.12000000000000455},{"name":"G#4","midi":68,"time":99.60000000000075,"velocity":1,"duration":0.09000000000000341},{"name":"F#5","midi":78,"time":99.84000000000076,"velocity":1,"duration":0.4800000000000324},{"name":"F#5","midi":78,"time":100.56000000000078,"velocity":1,"duration":0.23999999999999488},{"name":"G#5","midi":80,"time":100.80000000000078,"velocity":1,"duration":0.23999999999999488},{"name":"D#5","midi":75,"time":101.28000000000077,"velocity":1,"duration":0.12000000000000455},{"name":"B4","midi":71,"time":101.52000000000078,"velocity":1,"duration":0.09000000000000341},{"name":"D#5","midi":75,"time":101.61000000000078,"velocity":1,"duration":0.030000000000001137},{"name":"F#5","midi":78,"time":101.64000000000078,"velocity":1,"duration":0.600000000000037},{"name":"F#5","midi":78,"time":102.48000000000081,"velocity":1,"duration":0.23999999999999488},{"name":"G#5","midi":80,"time":102.72000000000081,"velocity":1,"duration":0.23999999999999488},{"name":"D#5","midi":75,"time":103.2000000000008,"velocity":1,"duration":0.12000000000000455},{"name":"B4","midi":71,"time":103.44000000000081,"velocity":1,"duration":0.09000000000000341},{"name":"D#5","midi":75,"time":103.53000000000081,"velocity":1,"duration":0.030000000000001137},{"name":"F#5","midi":78,"time":103.56000000000081,"velocity":1,"duration":0.600000000000037},{"name":"F#5","midi":78,"time":104.40000000000084,"velocity":1,"duration":0.23999999999999488},{"name":"G#5","midi":80,"time":104.64000000000084,"velocity":1,"duration":0.23999999999999488},{"name":"D#5","midi":75,"time":105.12000000000083,"velocity":1,"duration":0.12000000000000455},{"name":"B4","midi":71,"time":105.36000000000084,"velocity":1,"duration":0.09000000000000341},{"name":"D#5","midi":75,"time":105.45000000000084,"velocity":1,"duration":0.030000000000001137},{"name":"F#5","midi":78,"time":105.48000000000084,"velocity":1,"duration":0.600000000000037},{"name":"B4","midi":71,"time":106.32000000000087,"velocity":1,"duration":0.12000000000000455},{"name":"A#4","midi":70,"time":106.56000000000088,"velocity":1,"duration":0.12000000000000455},{"name":"B4","midi":71,"time":106.80000000000089,"velocity":1,"duration":0.12000000000000455},{"name":"A#4","midi":70,"time":107.0400000000009,"velocity":1,"duration":0.12000000000000455},{"name":"B4","midi":71,"time":107.28000000000091,"velocity":1,"duration":0.12000000000000455},{"name":"F#5","midi":78,"time":107.52000000000092,"velocity":1,"duration":0.4800000000000324},{"name":"F#5","midi":78,"time":108.24000000000095,"velocity":1,"duration":0.23999999999999488},{"name":"G#5","midi":80,"time":108.48000000000094,"velocity":1,"duration":0.23999999999999488},{"name":"D#5","midi":75,"time":108.96000000000093,"velocity":1,"duration":0.12000000000000455},{"name":"B4","midi":71,"time":109.20000000000094,"velocity":1,"duration":0.09000000000000341},{"name":"D#5","midi":75,"time":109.29000000000094,"velocity":1,"duration":0.030000000000001137},{"name":"F#5","midi":78,"time":109.32000000000095,"velocity":1,"duration":0.600000000000037},{"name":"F#5","midi":78,"time":110.16000000000098,"velocity":1,"duration":0.23999999999999488},{"name":"G#5","midi":80,"time":110.40000000000097,"velocity":1,"duration":0.23999999999999488},{"name":"D#5","midi":75,"time":110.88000000000096,"velocity":1,"duration":0.12000000000000455},{"name":"B4","midi":71,"time":111.12000000000097,"velocity":1,"duration":0.09000000000000341},{"name":"D#5","midi":75,"time":111.21000000000097,"velocity":1,"duration":0.030000000000001137},{"name":"F#5","midi":78,"time":111.24000000000098,"velocity":1,"duration":0.4800000000000324},{"name":"D#4","midi":63,"time":119.04000000000102,"velocity":1,"duration":0.4800000000000466},{"name":"D#4","midi":63,"time":119.04000000000102,"velocity":1,"duration":0.4800000000000466},{"name":"D#4","midi":63,"time":119.76000000000107,"velocity":1,"duration":0.23999999999999488},{"name":"D#4","midi":63,"time":119.76000000000107,"velocity":1,"duration":0.23999999999999488},{"name":"E4","midi":64,"time":120.00000000000107,"velocity":1,"duration":0.2400000000000091},{"name":"B3","midi":59,"time":120.48000000000108,"velocity":1,"duration":0.12000000000000455},{"name":"G#3","midi":56,"time":120.72000000000108,"velocity":1,"duration":0.09000000000000341},{"name":"B3","midi":59,"time":120.81000000000108,"velocity":1,"duration":0.030000000000001137},{"name":"D#4","midi":63,"time":120.84000000000108,"velocity":1,"duration":0.4800000000000182},{"name":"D#4","midi":63,"time":120.84000000000108,"velocity":1,"duration":0.4800000000000182},{"name":"D#4","midi":63,"time":121.6800000000011,"velocity":1,"duration":0.2400000000000091},{"name":"D#4","midi":63,"time":121.6800000000011,"velocity":1,"duration":0.2400000000000091},{"name":"E4","midi":64,"time":121.92000000000111,"velocity":1,"duration":0.2400000000000091},{"name":"B3","midi":59,"time":122.40000000000111,"velocity":1,"duration":0.12000000000000455},{"name":"G#3","midi":56,"time":122.64000000000112,"velocity":1,"duration":0.09000000000000341},{"name":"G#3","midi":56,"time":122.64000000000112,"velocity":1,"duration":0.09000000000000341},{"name":"B3","midi":59,"time":122.73000000000113,"velocity":1,"duration":0.030000000000001137},{"name":"D#4","midi":63,"time":122.76000000000113,"velocity":1,"duration":0.47999999999998977},{"name":"D#4","midi":63,"time":122.76000000000113,"velocity":1,"duration":0.47999999999998977},{"name":"D#4","midi":63,"time":123.60000000000112,"velocity":1,"duration":0.2400000000000091},{"name":"D#4","midi":63,"time":123.60000000000112,"velocity":1,"duration":0.2400000000000091},{"name":"E4","midi":64,"time":123.84000000000113,"velocity":1,"duration":0.2400000000000091},{"name":"B3","midi":59,"time":124.32000000000114,"velocity":1,"duration":0.12000000000000455},{"name":"G#3","midi":56,"time":124.56000000000115,"velocity":1,"duration":0.09000000000000341},{"name":"G#3","midi":56,"time":124.56000000000115,"velocity":1,"duration":0.09000000000000341},{"name":"B3","midi":59,"time":124.65000000000116,"velocity":1,"duration":0.030000000000001137},{"name":"D#4","midi":63,"time":124.68000000000116,"velocity":1,"duration":0.4800000000000466},{"name":"D#4","midi":63,"time":124.68000000000116,"velocity":1,"duration":0.4800000000000466},{"name":"D#4","midi":63,"time":125.5200000000012,"velocity":1,"duration":0.23999999999999488},{"name":"E4","midi":64,"time":125.7600000000012,"velocity":1,"duration":0.23999999999999488},{"name":"D#4","midi":63,"time":126.0000000000012,"velocity":1,"duration":0.23999999999999488},{"name":"B3","midi":59,"time":126.24000000000119,"velocity":1,"duration":0.12000000000000455},{"name":"G#3","midi":56,"time":126.4800000000012,"velocity":1,"duration":0.12000000000000455},{"name":"F#4","midi":66,"time":126.7200000000012,"velocity":1,"duration":0.4800000000000324},{"name":"F#4","midi":66,"time":127.44000000000123,"velocity":1,"duration":0.23999999999999488},{"name":"G#4","midi":68,"time":127.68000000000123,"velocity":1,"duration":0.23999999999999488},{"name":"D#4","midi":63,"time":128.16000000000122,"velocity":1,"duration":0.12000000000000455},{"name":"B3","midi":59,"time":128.40000000000123,"velocity":1,"duration":0.09000000000000341},{"name":"D#4","midi":63,"time":128.49000000000123,"velocity":1,"duration":0.030000000000001137},{"name":"F#4","midi":66,"time":128.52000000000123,"velocity":1,"duration":0.4799999999999329},{"name":"F#4","midi":66,"time":129.36000000000115,"velocity":1,"duration":0.2400000000000091},{"name":"G#4","midi":68,"time":129.60000000000116,"velocity":1,"duration":0.2400000000000091},{"name":"D#4","midi":63,"time":130.08000000000118,"velocity":1,"duration":0.12000000000000455},{"name":"B3","midi":59,"time":130.3200000000012,"velocity":1,"duration":0.09000000000000341},{"name":"D#4","midi":63,"time":130.4100000000012,"velocity":1,"duration":0.030000000000001137},{"name":"F#4","midi":66,"time":130.4400000000012,"velocity":1,"duration":0.4799999999999329},{"name":"F#4","midi":66,"time":131.2800000000011,"velocity":1,"duration":0.2400000000000091},{"name":"G#4","midi":68,"time":131.52000000000112,"velocity":1,"duration":0.2400000000000091},{"name":"D#4","midi":63,"time":132.00000000000114,"velocity":1,"duration":0.12000000000000455},{"name":"B3","midi":59,"time":132.24000000000115,"velocity":1,"duration":0.09000000000000341},{"name":"D#4","midi":63,"time":132.33000000000115,"velocity":1,"duration":0.030000000000001137},{"name":"F#4","midi":66,"time":132.36000000000115,"velocity":1,"duration":2.039999999998713}]},{"instrumentFamily":"bass","notes":[{"name":"E1","midi":28,"time":23.04,"velocity":1,"duration":0.23999999999999844},{"name":"E1","midi":28,"time":23.519999999999996,"velocity":1,"duration":0.23999999999999844},{"name":"E1","midi":28,"time":23.999999999999993,"velocity":1,"duration":0.23999999999999844},{"name":"E1","midi":28,"time":24.839999999999993,"velocity":1,"duration":0.23999999999999844},{"name":"E2","midi":40,"time":25.199999999999992,"velocity":1,"duration":0.23999999999999844},{"name":"E1","midi":28,"time":25.67999999999999,"velocity":1,"duration":0.23999999999999844},{"name":"E1","midi":28,"time":25.919999999999987,"velocity":1,"duration":0.23999999999999844},{"name":"E2","midi":40,"time":26.159999999999986,"velocity":1,"duration":0.23999999999999844},{"name":"D#1","midi":27,"time":26.399999999999984,"velocity":1,"duration":0.23999999999999844},{"name":"D#2","midi":39,"time":26.639999999999983,"velocity":1,"duration":0.23999999999999844},{"name":"C#1","midi":25,"time":26.87999999999998,"velocity":1,"duration":0.23999999999999844},{"name":"C#1","midi":25,"time":27.359999999999978,"velocity":1,"duration":0.23999999999999844},{"name":"C#1","midi":25,"time":27.839999999999975,"velocity":1,"duration":0.23999999999999844},{"name":"C#1","midi":25,"time":28.679999999999975,"velocity":1,"duration":0.23999999999999844},{"name":"C#2","midi":37,"time":29.039999999999974,"velocity":1,"duration":0.23999999999999844},{"name":"C#1","midi":25,"time":29.51999999999997,"velocity":1,"duration":0.23999999999999844},{"name":"C#1","midi":25,"time":29.75999999999997,"velocity":1,"duration":0.23999999999999844},{"name":"C#2","midi":37,"time":29.999999999999968,"velocity":1,"duration":0.23999999999999844},{"name":"F#1","midi":30,"time":30.239999999999966,"velocity":1,"duration":0.23999999999999844},{"name":"F#2","midi":42,"time":30.479999999999965,"velocity":1,"duration":0.23999999999999844},{"name":"G#1","midi":32,"time":30.719999999999963,"velocity":1,"duration":0.23999999999999844},{"name":"G#1","midi":32,"time":31.19999999999996,"velocity":1,"duration":0.23999999999999844},{"name":"G#1","midi":32,"time":31.679999999999957,"velocity":1,"duration":0.23999999999999844},{"name":"G#1","midi":32,"time":32.51999999999995,"velocity":1,"duration":0.240000000000002},{"name":"G#2","midi":44,"time":32.87999999999995,"velocity":1,"duration":0.240000000000002},{"name":"G#1","midi":32,"time":33.35999999999996,"velocity":1,"duration":0.240000000000002},{"name":"G#1","midi":32,"time":33.59999999999996,"velocity":1,"duration":0.240000000000002},{"name":"G#2","midi":44,"time":33.83999999999996,"velocity":1,"duration":0.240000000000002},{"name":"A#1","midi":34,"time":34.07999999999996,"velocity":1,"duration":0.240000000000002},{"name":"A#2","midi":46,"time":34.319999999999965,"velocity":1,"duration":0.240000000000002},{"name":"B1","midi":35,"time":34.55999999999997,"velocity":1,"duration":0.240000000000002},{"name":"B1","midi":35,"time":35.03999999999997,"velocity":1,"duration":0.240000000000002},{"name":"B1","midi":35,"time":35.519999999999975,"velocity":1,"duration":0.240000000000002},{"name":"B2","midi":47,"time":35.879999999999974,"velocity":1,"duration":0.240000000000002},{"name":"B1","midi":35,"time":36.239999999999974,"velocity":1,"duration":0.240000000000002},{"name":"B1","midi":35,"time":36.479999999999976,"velocity":1,"duration":0.240000000000002},{"name":"B2","midi":47,"time":36.71999999999998,"velocity":1,"duration":0.240000000000002},{"name":"C#2","midi":37,"time":36.95999999999998,"velocity":1,"duration":0.240000000000002},{"name":"C#3","midi":49,"time":37.19999999999998,"velocity":1,"duration":0.240000000000002},{"name":"D#2","midi":39,"time":37.43999999999998,"velocity":1,"duration":0.240000000000002},{"name":"D#3","midi":51,"time":37.679999999999986,"velocity":1,"duration":0.240000000000002},{"name":"B1","midi":35,"time":37.91999999999999,"velocity":1,"duration":0.240000000000002},{"name":"B2","midi":47,"time":38.15999999999999,"velocity":1,"duration":0.240000000000002},{"name":"E1","midi":28,"time":38.39999999999999,"velocity":1,"duration":0.240000000000002},{"name":"E1","midi":28,"time":38.879999999999995,"velocity":1,"duration":0.240000000000002},{"name":"E1","midi":28,"time":39.36,"velocity":1,"duration":0.240000000000002},{"name":"E1","midi":28,"time":40.2,"velocity":1,"duration":0.240000000000002},{"name":"E2","midi":40,"time":40.56,"velocity":1,"duration":0.240000000000002},{"name":"E1","midi":28,"time":41.040000000000006,"velocity":1,"duration":0.240000000000002},{"name":"E1","midi":28,"time":41.28000000000001,"velocity":1,"duration":0.240000000000002},{"name":"E2","midi":40,"time":41.52000000000001,"velocity":1,"duration":0.240000000000002},{"name":"D#1","midi":27,"time":41.76000000000001,"velocity":1,"duration":0.240000000000002},{"name":"D#2","midi":39,"time":42.000000000000014,"velocity":1,"duration":0.240000000000002},{"name":"C#1","midi":25,"time":42.240000000000016,"velocity":1,"duration":0.240000000000002},{"name":"C#1","midi":25,"time":42.72000000000002,"velocity":1,"duration":0.240000000000002},{"name":"C#1","midi":25,"time":43.200000000000024,"velocity":1,"duration":0.240000000000002},{"name":"C#1","midi":25,"time":44.04000000000003,"velocity":1,"duration":0.240000000000002},{"name":"C#2","midi":37,"time":44.40000000000003,"velocity":1,"duration":0.240000000000002},{"name":"C#1","midi":25,"time":44.88000000000003,"velocity":1,"duration":0.240000000000002},{"name":"C#1","midi":25,"time":45.12000000000003,"velocity":1,"duration":0.240000000000002},{"name":"C#2","midi":37,"time":45.360000000000035,"velocity":1,"duration":0.240000000000002},{"name":"F#1","midi":30,"time":45.60000000000004,"velocity":1,"duration":0.240000000000002},{"name":"F#2","midi":42,"time":45.84000000000004,"velocity":1,"duration":0.240000000000002},{"name":"G#1","midi":32,"time":46.08000000000004,"velocity":1,"duration":0.240000000000002},{"name":"G#1","midi":32,"time":46.560000000000045,"velocity":1,"duration":0.240000000000002},{"name":"G#1","midi":32,"time":47.04000000000005,"velocity":1,"duration":0.240000000000002},{"name":"G#1","midi":32,"time":47.88000000000005,"velocity":1,"duration":0.240000000000002},{"name":"G#2","midi":44,"time":48.24000000000005,"velocity":1,"duration":0.240000000000002},{"name":"G#1","midi":32,"time":48.720000000000056,"velocity":1,"duration":0.240000000000002},{"name":"G#1","midi":32,"time":48.96000000000006,"velocity":1,"duration":0.240000000000002},{"name":"G#2","midi":44,"time":49.20000000000006,"velocity":1,"duration":0.240000000000002},{"name":"A#1","midi":34,"time":49.44000000000006,"velocity":1,"duration":0.240000000000002},{"name":"A#2","midi":46,"time":49.680000000000064,"velocity":1,"duration":0.240000000000002},{"name":"B1","midi":35,"time":49.920000000000066,"velocity":1,"duration":0.240000000000002},{"name":"B1","midi":35,"time":50.40000000000007,"velocity":1,"duration":0.240000000000002},{"name":"B1","midi":35,"time":50.880000000000074,"velocity":1,"duration":0.240000000000002},{"name":"B2","midi":47,"time":51.24000000000007,"velocity":1,"duration":0.240000000000002},{"name":"B1","midi":35,"time":51.60000000000007,"velocity":1,"duration":0.240000000000002},{"name":"B1","midi":35,"time":51.840000000000074,"velocity":1,"duration":0.240000000000002},{"name":"B2","midi":47,"time":52.08000000000008,"velocity":1,"duration":0.240000000000002},{"name":"C#2","midi":37,"time":52.32000000000008,"velocity":1,"duration":0.240000000000002},{"name":"C#3","midi":49,"time":52.56000000000008,"velocity":1,"duration":0.240000000000002},{"name":"D#2","midi":39,"time":52.80000000000008,"velocity":1,"duration":0.240000000000002},{"name":"D#3","midi":51,"time":53.040000000000084,"velocity":1,"duration":0.240000000000002},{"name":"B1","midi":35,"time":53.280000000000086,"velocity":1,"duration":0.240000000000002},{"name":"B2","midi":47,"time":53.52000000000009,"velocity":1,"duration":0.240000000000002},{"name":"E1","midi":28,"time":53.76000000000009,"velocity":1,"duration":0.240000000000002},{"name":"E1","midi":28,"time":54.240000000000094,"velocity":1,"duration":0.240000000000002},{"name":"E1","midi":28,"time":54.7200000000001,"velocity":1,"duration":0.240000000000002},{"name":"E1","midi":28,"time":55.5600000000001,"velocity":1,"duration":0.240000000000002},{"name":"E2","midi":40,"time":55.9200000000001,"velocity":1,"duration":0.240000000000002},{"name":"E1","midi":28,"time":56.400000000000105,"velocity":1,"duration":0.240000000000002},{"name":"E1","midi":28,"time":56.64000000000011,"velocity":1,"duration":0.240000000000002},{"name":"E2","midi":40,"time":56.88000000000011,"velocity":1,"duration":0.240000000000002},{"name":"D#1","midi":27,"time":57.12000000000011,"velocity":1,"duration":0.240000000000002},{"name":"D#2","midi":39,"time":57.36000000000011,"velocity":1,"duration":0.240000000000002},{"name":"C#1","midi":25,"time":57.600000000000115,"velocity":1,"duration":0.240000000000002},{"name":"C#1","midi":25,"time":58.08000000000012,"velocity":1,"duration":0.240000000000002},{"name":"C#1","midi":25,"time":58.56000000000012,"velocity":1,"duration":0.240000000000002},{"name":"C#1","midi":25,"time":59.40000000000013,"velocity":1,"duration":0.240000000000002},{"name":"C#2","midi":37,"time":59.760000000000126,"velocity":1,"duration":0.240000000000002},{"name":"C#1","midi":25,"time":60.24000000000013,"velocity":1,"duration":0.240000000000002},{"name":"C#1","midi":25,"time":60.48000000000013,"velocity":1,"duration":0.240000000000002},{"name":"C#2","midi":37,"time":60.720000000000134,"velocity":1,"duration":0.240000000000002},{"name":"F#1","midi":30,"time":60.960000000000136,"velocity":1,"duration":0.240000000000002},{"name":"F#2","midi":42,"time":61.20000000000014,"velocity":1,"duration":0.240000000000002},{"name":"G#1","midi":32,"time":61.44000000000014,"velocity":1,"duration":0.240000000000002},{"name":"G#1","midi":32,"time":61.920000000000144,"velocity":1,"duration":0.240000000000002},{"name":"G#1","midi":32,"time":62.40000000000015,"velocity":1,"duration":0.240000000000002},{"name":"G#1","midi":32,"time":63.24000000000015,"velocity":1,"duration":0.240000000000002},{"name":"G#2","midi":44,"time":63.60000000000015,"velocity":1,"duration":0.240000000000002},{"name":"G#1","midi":32,"time":64.08000000000015,"velocity":1,"duration":0.23999999999999488},{"name":"G#1","midi":32,"time":64.32000000000015,"velocity":1,"duration":0.23999999999999488},{"name":"G#2","midi":44,"time":64.56000000000014,"velocity":1,"duration":0.23999999999999488},{"name":"A#1","midi":34,"time":64.80000000000014,"velocity":1,"duration":0.23999999999999488},{"name":"A#2","midi":46,"time":65.04000000000013,"velocity":1,"duration":0.23999999999999488},{"name":"B1","midi":35,"time":65.28000000000013,"velocity":1,"duration":0.23999999999999488},{"name":"B1","midi":35,"time":65.76000000000012,"velocity":1,"duration":0.23999999999999488},{"name":"B1","midi":35,"time":66.24000000000011,"velocity":1,"duration":0.23999999999999488},{"name":"B2","midi":47,"time":66.60000000000011,"velocity":1,"duration":0.23999999999999488},{"name":"B1","midi":35,"time":66.96000000000011,"velocity":1,"duration":0.23999999999999488},{"name":"B1","midi":35,"time":67.2000000000001,"velocity":1,"duration":0.23999999999999488},{"name":"B2","midi":47,"time":67.4400000000001,"velocity":1,"duration":0.23999999999999488},{"name":"C#2","midi":37,"time":67.68000000000009,"velocity":1,"duration":0.23999999999999488},{"name":"C#3","midi":49,"time":67.92000000000009,"velocity":1,"duration":0.23999999999999488},{"name":"D#2","midi":39,"time":68.16000000000008,"velocity":1,"duration":0.23999999999999488},{"name":"D#3","midi":51,"time":68.40000000000008,"velocity":1,"duration":0.23999999999999488},{"name":"B1","midi":35,"time":68.64000000000007,"velocity":1,"duration":0.23999999999999488},{"name":"B2","midi":47,"time":68.88000000000007,"velocity":1,"duration":0.23999999999999488},{"name":"E1","midi":28,"time":69.12000000000006,"velocity":1,"duration":0.23999999999999488},{"name":"E1","midi":28,"time":69.60000000000005,"velocity":1,"duration":0.23999999999999488},{"name":"E1","midi":28,"time":70.08000000000004,"velocity":1,"duration":0.23999999999999488},{"name":"E1","midi":28,"time":70.92000000000003,"velocity":1,"duration":0.23999999999999488},{"name":"E2","midi":40,"time":71.28000000000003,"velocity":1,"duration":0.23999999999999488},{"name":"E1","midi":28,"time":71.76000000000002,"velocity":1,"duration":0.23999999999999488},{"name":"E1","midi":28,"time":72.00000000000001,"velocity":1,"duration":0.23999999999999488},{"name":"E2","midi":40,"time":72.24000000000001,"velocity":1,"duration":0.23999999999999488},{"name":"D#1","midi":27,"time":72.48,"velocity":1,"duration":0.23999999999999488},{"name":"D#2","midi":39,"time":72.72,"velocity":1,"duration":0.23999999999999488},{"name":"C#1","midi":25,"time":72.96,"velocity":1,"duration":0.23999999999999488},{"name":"C#1","midi":25,"time":73.43999999999998,"velocity":1,"duration":0.23999999999999488},{"name":"C#1","midi":25,"time":73.91999999999997,"velocity":1,"duration":0.23999999999999488},{"name":"C#1","midi":25,"time":74.75999999999996,"velocity":1,"duration":0.23999999999999488},{"name":"C#2","midi":37,"time":75.11999999999996,"velocity":1,"duration":0.23999999999999488},{"name":"C#1","midi":25,"time":75.59999999999995,"velocity":1,"duration":0.23999999999999488},{"name":"C#1","midi":25,"time":75.83999999999995,"velocity":1,"duration":0.23999999999999488},{"name":"C#2","midi":37,"time":76.07999999999994,"velocity":1,"duration":0.23999999999999488},{"name":"F#1","midi":30,"time":76.31999999999994,"velocity":1,"duration":0.23999999999999488},{"name":"F#2","midi":42,"time":76.55999999999993,"velocity":1,"duration":0.23999999999999488},{"name":"G#1","midi":32,"time":76.79999999999993,"velocity":1,"duration":0.23999999999999488},{"name":"G#1","midi":32,"time":77.27999999999992,"velocity":1,"duration":0.23999999999999488},{"name":"G#1","midi":32,"time":77.7599999999999,"velocity":1,"duration":0.23999999999999488},{"name":"G#1","midi":32,"time":78.5999999999999,"velocity":1,"duration":0.23999999999999488},{"name":"G#2","midi":44,"time":78.9599999999999,"velocity":1,"duration":0.23999999999999488},{"name":"G#1","midi":32,"time":79.43999999999988,"velocity":1,"duration":0.23999999999999488},{"name":"G#1","midi":32,"time":79.67999999999988,"velocity":1,"duration":0.23999999999999488},{"name":"G#2","midi":44,"time":79.91999999999987,"velocity":1,"duration":0.23999999999999488},{"name":"A#1","midi":34,"time":80.15999999999987,"velocity":1,"duration":0.23999999999999488},{"name":"A#2","midi":46,"time":80.39999999999986,"velocity":1,"duration":0.23999999999999488},{"name":"B1","midi":35,"time":80.63999999999986,"velocity":1,"duration":0.23999999999999488},{"name":"B1","midi":35,"time":81.11999999999985,"velocity":1,"duration":0.23999999999999488},{"name":"B1","midi":35,"time":81.59999999999984,"velocity":1,"duration":0.23999999999999488},{"name":"B2","midi":47,"time":81.95999999999984,"velocity":1,"duration":0.23999999999999488},{"name":"B1","midi":35,"time":82.31999999999984,"velocity":1,"duration":0.23999999999999488},{"name":"B1","midi":35,"time":82.55999999999983,"velocity":1,"duration":0.23999999999999488},{"name":"B2","midi":47,"time":82.79999999999983,"velocity":1,"duration":0.23999999999999488},{"name":"C#2","midi":37,"time":83.03999999999982,"velocity":1,"duration":0.23999999999999488},{"name":"C#3","midi":49,"time":83.27999999999982,"velocity":1,"duration":0.23999999999999488},{"name":"D#2","midi":39,"time":83.51999999999981,"velocity":1,"duration":0.23999999999999488},{"name":"D#3","midi":51,"time":83.7599999999998,"velocity":1,"duration":0.23999999999999488},{"name":"B1","midi":35,"time":83.9999999999998,"velocity":1,"duration":0.23999999999999488},{"name":"B2","midi":47,"time":84.2399999999998,"velocity":1,"duration":0.23999999999999488},{"name":"E1","midi":28,"time":84.47999999999979,"velocity":1,"duration":0.23999999999999488},{"name":"E1","midi":28,"time":84.95999999999978,"velocity":1,"duration":0.23999999999999488},{"name":"E1","midi":28,"time":85.43999999999977,"velocity":1,"duration":0.23999999999999488},{"name":"E1","midi":28,"time":86.27999999999976,"velocity":1,"duration":0.23999999999999488},{"name":"E2","midi":40,"time":86.63999999999976,"velocity":1,"duration":0.23999999999999488},{"name":"E1","midi":28,"time":87.11999999999975,"velocity":1,"duration":0.23999999999999488},{"name":"E1","midi":28,"time":87.35999999999974,"velocity":1,"duration":0.23999999999999488},{"name":"E2","midi":40,"time":87.59999999999974,"velocity":1,"duration":0.23999999999999488},{"name":"D#1","midi":27,"time":87.83999999999973,"velocity":1,"duration":0.23999999999999488},{"name":"D#2","midi":39,"time":88.07999999999973,"velocity":1,"duration":0.23999999999999488},{"name":"C#1","midi":25,"time":88.31999999999972,"velocity":1,"duration":0.23999999999999488},{"name":"C#1","midi":25,"time":88.79999999999971,"velocity":1,"duration":0.23999999999999488},{"name":"C#1","midi":25,"time":89.2799999999997,"velocity":1,"duration":0.23999999999999488},{"name":"C#1","midi":25,"time":90.11999999999969,"velocity":1,"duration":0.23999999999999488},{"name":"C#2","midi":37,"time":90.47999999999969,"velocity":1,"duration":0.23999999999999488},{"name":"C#1","midi":25,"time":90.95999999999968,"velocity":1,"duration":0.23999999999999488},{"name":"C#1","midi":25,"time":91.19999999999968,"velocity":1,"duration":0.23999999999999488},{"name":"C#2","midi":37,"time":91.43999999999967,"velocity":1,"duration":0.23999999999999488},{"name":"F#1","midi":30,"time":91.67999999999967,"velocity":1,"duration":0.23999999999999488},{"name":"F#2","midi":42,"time":91.91999999999966,"velocity":1,"duration":0.23999999999999488},{"name":"G#1","midi":32,"time":92.15999999999966,"velocity":1,"duration":0.23999999999999488},{"name":"G#1","midi":32,"time":92.63999999999965,"velocity":1,"duration":0.23999999999999488},{"name":"G#1","midi":32,"time":93.11999999999964,"velocity":1,"duration":0.23999999999999488},{"name":"G#1","midi":32,"time":93.95999999999962,"velocity":1,"duration":0.23999999999999488},{"name":"G#2","midi":44,"time":94.31999999999962,"velocity":1,"duration":0.23999999999999488},{"name":"G#1","midi":32,"time":94.79999999999961,"velocity":1,"duration":0.23999999999999488},{"name":"G#1","midi":32,"time":95.03999999999961,"velocity":1,"duration":0.23999999999999488},{"name":"G#2","midi":44,"time":95.2799999999996,"velocity":1,"duration":0.23999999999999488},{"name":"A#1","midi":34,"time":95.5199999999996,"velocity":1,"duration":0.23999999999999488},{"name":"A#2","midi":46,"time":95.7599999999996,"velocity":1,"duration":0.23999999999999488},{"name":"B1","midi":35,"time":95.99999999999959,"velocity":1,"duration":0.23999999999999488},{"name":"B1","midi":35,"time":96.47999999999958,"velocity":1,"duration":0.23999999999999488},{"name":"B1","midi":35,"time":96.95999999999957,"velocity":1,"duration":0.23999999999999488},{"name":"B2","midi":47,"time":97.31999999999957,"velocity":1,"duration":0.23999999999999488},{"name":"B1","midi":35,"time":97.67999999999957,"velocity":1,"duration":0.23999999999999488},{"name":"B1","midi":35,"time":97.91999999999956,"velocity":1,"duration":0.23999999999999488},{"name":"B2","midi":47,"time":98.15999999999956,"velocity":1,"duration":0.23999999999999488},{"name":"C#2","midi":37,"time":98.39999999999955,"velocity":1,"duration":0.23999999999999488},{"name":"C#3","midi":49,"time":98.63999999999955,"velocity":1,"duration":0.23999999999999488},{"name":"D#2","midi":39,"time":98.87999999999954,"velocity":1,"duration":0.23999999999999488},{"name":"D#3","midi":51,"time":99.11999999999954,"velocity":1,"duration":0.23999999999999488},{"name":"B1","midi":35,"time":99.35999999999953,"velocity":1,"duration":0.23999999999999488},{"name":"B2","midi":47,"time":99.59999999999953,"velocity":1,"duration":0.23999999999999488},{"name":"E1","midi":28,"time":99.83999999999952,"velocity":1,"duration":0.23999999999999488},{"name":"E1","midi":28,"time":100.31999999999951,"velocity":1,"duration":0.23999999999999488},{"name":"E1","midi":28,"time":100.7999999999995,"velocity":1,"duration":0.23999999999999488},{"name":"E1","midi":28,"time":101.63999999999949,"velocity":1,"duration":0.23999999999999488},{"name":"E2","midi":40,"time":101.99999999999949,"velocity":1,"duration":0.23999999999999488},{"name":"E1","midi":28,"time":102.47999999999948,"velocity":1,"duration":0.23999999999999488},{"name":"E1","midi":28,"time":102.71999999999947,"velocity":1,"duration":0.23999999999999488},{"name":"E2","midi":40,"time":102.95999999999947,"velocity":1,"duration":0.23999999999999488},{"name":"D#1","midi":27,"time":103.19999999999946,"velocity":1,"duration":0.23999999999999488},{"name":"D#2","midi":39,"time":103.43999999999946,"velocity":1,"duration":0.23999999999999488},{"name":"C#1","midi":25,"time":103.67999999999945,"velocity":1,"duration":0.23999999999999488},{"name":"C#1","midi":25,"time":104.15999999999944,"velocity":1,"duration":0.23999999999999488},{"name":"C#1","midi":25,"time":104.63999999999943,"velocity":1,"duration":0.23999999999999488},{"name":"C#1","midi":25,"time":105.47999999999942,"velocity":1,"duration":0.23999999999999488},{"name":"C#2","midi":37,"time":105.83999999999942,"velocity":1,"duration":0.23999999999999488},{"name":"C#1","midi":25,"time":106.31999999999941,"velocity":1,"duration":0.23999999999999488},{"name":"C#1","midi":25,"time":106.5599999999994,"velocity":1,"duration":0.23999999999999488},{"name":"C#2","midi":37,"time":106.7999999999994,"velocity":1,"duration":0.23999999999999488},{"name":"F#1","midi":30,"time":107.0399999999994,"velocity":1,"duration":0.23999999999999488},{"name":"F#2","midi":42,"time":107.27999999999939,"velocity":1,"duration":0.23999999999999488},{"name":"G#1","midi":32,"time":107.51999999999938,"velocity":1,"duration":0.23999999999999488},{"name":"G#1","midi":32,"time":107.99999999999937,"velocity":1,"duration":0.23999999999999488},{"name":"G#1","midi":32,"time":108.47999999999936,"velocity":1,"duration":0.23999999999999488},{"name":"G#1","midi":32,"time":109.31999999999935,"velocity":1,"duration":0.23999999999999488},{"name":"G#2","midi":44,"time":109.67999999999935,"velocity":1,"duration":0.23999999999999488},{"name":"G#1","midi":32,"time":110.15999999999934,"velocity":1,"duration":0.23999999999999488},{"name":"G#1","midi":32,"time":110.39999999999934,"velocity":1,"duration":0.23999999999999488},{"name":"G#2","midi":44,"time":110.63999999999933,"velocity":1,"duration":0.23999999999999488},{"name":"A#1","midi":34,"time":110.87999999999933,"velocity":1,"duration":0.23999999999999488},{"name":"A#2","midi":46,"time":111.11999999999932,"velocity":1,"duration":0.23999999999999488},{"name":"B1","midi":35,"time":111.35999999999932,"velocity":1,"duration":0.23999999999999488},{"name":"G#1","midi":32,"time":138.23999999999933,"velocity":1,"duration":0.47999999999998977},{"name":"G#1","midi":32,"time":138.71999999999932,"velocity":1,"duration":0.2400000000000091},{"name":"G#2","midi":44,"time":138.95999999999933,"velocity":1,"duration":0.2400000000000091},{"name":"G#1","midi":32,"time":139.19999999999933,"velocity":1,"duration":0.2400000000000091},{"name":"A#1","midi":34,"time":139.43999999999934,"velocity":1,"duration":0.2400000000000091},{"name":"B1","midi":35,"time":139.67999999999935,"velocity":1,"duration":0.2400000000000091},{"name":"D#2","midi":39,"time":139.91999999999936,"velocity":1,"duration":0.47999999999998977},{"name":"D#2","midi":39,"time":140.39999999999935,"velocity":1,"duration":0.47999999999998977},{"name":"D#3","midi":51,"time":140.87999999999934,"velocity":1,"duration":0.2400000000000091},{"name":"D#2","midi":39,"time":141.11999999999935,"velocity":1,"duration":0.2400000000000091},{"name":"A#1","midi":34,"time":141.35999999999936,"velocity":1,"duration":0.2400000000000091},{"name":"G#1","midi":32,"time":141.59999999999937,"velocity":1,"duration":0.2400000000000091},{"name":"C#2","midi":37,"time":141.83999999999938,"velocity":1,"duration":0.47999999999998977},{"name":"C#2","midi":37,"time":142.31999999999937,"velocity":1,"duration":0.47999999999998977},{"name":"C#2","midi":37,"time":142.79999999999936,"velocity":1,"duration":0.47999999999998977},{"name":"C#3","midi":49,"time":143.27999999999935,"velocity":1,"duration":0.2400000000000091},{"name":"C#2","midi":37,"time":143.51999999999936,"velocity":1,"duration":0.2400000000000091},{"name":"C#2","midi":37,"time":143.75999999999937,"velocity":1,"duration":0.47999999999998977},{"name":"C#2","midi":37,"time":144.23999999999936,"velocity":1,"duration":0.47999999999998977},{"name":"C#3","midi":49,"time":144.71999999999935,"velocity":1,"duration":0.2400000000000091},{"name":"B1","midi":35,"time":144.95999999999935,"velocity":1,"duration":0.36000000000001364},{"name":"B1","midi":35,"time":145.31999999999937,"velocity":1,"duration":0.36000000000001364},{"name":"B1","midi":35,"time":145.67999999999938,"velocity":1,"duration":0.2400000000000091},{"name":"G#1","midi":32,"time":145.9199999999994,"velocity":1,"duration":0.47999999999998977},{"name":"G#1","midi":32,"time":146.39999999999938,"velocity":1,"duration":0.2400000000000091},{"name":"G#2","midi":44,"time":146.6399999999994,"velocity":1,"duration":0.2400000000000091},{"name":"G#1","midi":32,"time":146.8799999999994,"velocity":1,"duration":0.2400000000000091},{"name":"A#1","midi":34,"time":147.1199999999994,"velocity":1,"duration":0.2400000000000091},{"name":"B1","midi":35,"time":147.35999999999942,"velocity":1,"duration":0.2400000000000091},{"name":"D#2","midi":39,"time":147.59999999999943,"velocity":1,"duration":0.47999999999998977},{"name":"D#2","midi":39,"time":148.07999999999942,"velocity":1,"duration":0.47999999999998977},{"name":"D#3","midi":51,"time":148.5599999999994,"velocity":1,"duration":0.2400000000000091},{"name":"D#2","midi":39,"time":148.79999999999941,"velocity":1,"duration":0.2400000000000091},{"name":"A#1","midi":34,"time":149.03999999999942,"velocity":1,"duration":0.2400000000000091},{"name":"G#1","midi":32,"time":149.27999999999943,"velocity":1,"duration":0.2400000000000091},{"name":"C#2","midi":37,"time":149.51999999999944,"velocity":1,"duration":0.47999999999998977},{"name":"C#2","midi":37,"time":149.99999999999943,"velocity":1,"duration":0.47999999999998977},{"name":"C#2","midi":37,"time":150.47999999999942,"velocity":1,"duration":0.47999999999998977},{"name":"C#3","midi":49,"time":150.9599999999994,"velocity":1,"duration":0.2400000000000091},{"name":"C#2","midi":37,"time":151.19999999999942,"velocity":1,"duration":0.2400000000000091},{"name":"C#2","midi":37,"time":151.43999999999943,"velocity":1,"duration":0.47999999999998977},{"name":"C#2","midi":37,"time":151.91999999999942,"velocity":1,"duration":0.47999999999998977},{"name":"C#3","midi":49,"time":152.3999999999994,"velocity":1,"duration":0.2400000000000091},{"name":"B1","midi":35,"time":152.63999999999942,"velocity":1,"duration":0.36000000000001364},{"name":"B1","midi":35,"time":152.99999999999943,"velocity":1,"duration":0.36000000000001364},{"name":"B1","midi":35,"time":153.35999999999945,"velocity":1,"duration":0.2400000000000091},{"name":"G#1","midi":32,"time":153.59999999999945,"velocity":1,"duration":0.47999999999998977},{"name":"G#1","midi":32,"time":154.07999999999944,"velocity":1,"duration":0.2400000000000091},{"name":"G#2","midi":44,"time":154.31999999999945,"velocity":1,"duration":0.2400000000000091},{"name":"G#1","midi":32,"time":154.55999999999946,"velocity":1,"duration":0.2400000000000091},{"name":"A#1","midi":34,"time":154.79999999999947,"velocity":1,"duration":0.2400000000000091},{"name":"B1","midi":35,"time":155.03999999999948,"velocity":1,"duration":0.2400000000000091},{"name":"D#2","midi":39,"time":155.2799999999995,"velocity":1,"duration":0.47999999999998977},{"name":"D#2","midi":39,"time":155.75999999999948,"velocity":1,"duration":0.47999999999998977},{"name":"D#3","midi":51,"time":156.23999999999947,"velocity":1,"duration":0.2400000000000091},{"name":"D#2","midi":39,"time":156.47999999999948,"velocity":1,"duration":0.2400000000000091},{"name":"A#1","midi":34,"time":156.7199999999995,"velocity":1,"duration":0.2400000000000091},{"name":"G#1","midi":32,"time":156.9599999999995,"velocity":1,"duration":0.2400000000000091},{"name":"C#2","midi":37,"time":157.1999999999995,"velocity":1,"duration":0.47999999999998977},{"name":"C#2","midi":37,"time":157.6799999999995,"velocity":1,"duration":0.47999999999998977},{"name":"C#2","midi":37,"time":158.15999999999948,"velocity":1,"duration":0.47999999999998977},{"name":"C#3","midi":49,"time":158.63999999999947,"velocity":1,"duration":0.2400000000000091},{"name":"C#2","midi":37,"time":158.87999999999948,"velocity":1,"duration":0.2400000000000091},{"name":"C#2","midi":37,"time":159.1199999999995,"velocity":1,"duration":0.47999999999998977},{"name":"C#2","midi":37,"time":159.59999999999948,"velocity":1,"duration":0.47999999999998977},{"name":"C#3","midi":49,"time":160.07999999999947,"velocity":1,"duration":0.2400000000000091},{"name":"B1","midi":35,"time":160.31999999999948,"velocity":1,"duration":0.36000000000001364},{"name":"B1","midi":35,"time":160.6799999999995,"velocity":1,"duration":0.36000000000001364},{"name":"B1","midi":35,"time":161.0399999999995,"velocity":1,"duration":0.2400000000000091},{"name":"G#1","midi":32,"time":161.27999999999952,"velocity":1,"duration":0.47999999999998977},{"name":"G#1","midi":32,"time":161.7599999999995,"velocity":1,"duration":0.2400000000000091},{"name":"G#2","midi":44,"time":161.99999999999952,"velocity":1,"duration":0.2400000000000091},{"name":"G#1","midi":32,"time":162.23999999999953,"velocity":1,"duration":0.2400000000000091},{"name":"A#1","midi":34,"time":162.47999999999954,"velocity":1,"duration":0.2400000000000091},{"name":"B1","midi":35,"time":162.71999999999954,"velocity":1,"duration":0.2400000000000091},{"name":"D#2","midi":39,"time":162.95999999999955,"velocity":1,"duration":0.47999999999998977},{"name":"D#2","midi":39,"time":163.43999999999954,"velocity":1,"duration":0.47999999999998977},{"name":"D#3","midi":51,"time":163.91999999999953,"velocity":1,"duration":0.2400000000000091},{"name":"D#2","midi":39,"time":164.15999999999954,"velocity":1,"duration":0.2400000000000091},{"name":"A#1","midi":34,"time":164.39999999999955,"velocity":1,"duration":0.2400000000000091},{"name":"G#1","midi":32,"time":164.63999999999956,"velocity":1,"duration":0.2400000000000091},{"name":"C#2","midi":37,"time":164.87999999999957,"velocity":1,"duration":0.47999999999998977},{"name":"C#2","midi":37,"time":165.35999999999956,"velocity":1,"duration":0.47999999999998977},{"name":"C#2","midi":37,"time":165.83999999999955,"velocity":1,"duration":0.47999999999998977},{"name":"C#3","midi":49,"time":166.31999999999954,"velocity":1,"duration":0.2400000000000091},{"name":"C#2","midi":37,"time":166.55999999999955,"velocity":1,"duration":0.2400000000000091},{"name":"C#2","midi":37,"time":166.79999999999956,"velocity":1,"duration":0.47999999999998977},{"name":"C#2","midi":37,"time":167.27999999999955,"velocity":1,"duration":0.47999999999998977},{"name":"C#3","midi":49,"time":167.75999999999954,"velocity":1,"duration":0.2400000000000091},{"name":"B1","midi":35,"time":167.99999999999955,"velocity":1,"duration":0.36000000000001364},{"name":"B1","midi":35,"time":168.35999999999956,"velocity":1,"duration":0.36000000000001364},{"name":"B1","midi":35,"time":168.71999999999957,"velocity":1,"duration":0.2400000000000091},{"name":"G#1","midi":32,"time":168.95999999999958,"velocity":1,"duration":0.47999999999998977},{"name":"G#1","midi":32,"time":169.43999999999957,"velocity":1,"duration":0.2400000000000091},{"name":"G#2","midi":44,"time":169.67999999999958,"velocity":1,"duration":0.2400000000000091},{"name":"G#1","midi":32,"time":169.9199999999996,"velocity":1,"duration":0.2400000000000091},{"name":"A#1","midi":34,"time":170.1599999999996,"velocity":1,"duration":0.2400000000000091},{"name":"B1","midi":35,"time":170.3999999999996,"velocity":1,"duration":0.2400000000000091},{"name":"D#2","midi":39,"time":170.63999999999962,"velocity":1,"duration":0.47999999999998977},{"name":"D#2","midi":39,"time":171.1199999999996,"velocity":1,"duration":0.47999999999998977},{"name":"D#3","midi":51,"time":171.5999999999996,"velocity":1,"duration":0.2400000000000091},{"name":"D#2","midi":39,"time":171.8399999999996,"velocity":1,"duration":0.2400000000000091},{"name":"A#1","midi":34,"time":172.07999999999961,"velocity":1,"duration":0.2400000000000091},{"name":"G#1","midi":32,"time":172.31999999999962,"velocity":1,"duration":0.2400000000000091},{"name":"C#2","midi":37,"time":172.55999999999963,"velocity":1,"duration":0.47999999999998977},{"name":"C#2","midi":37,"time":173.03999999999962,"velocity":1,"duration":0.47999999999998977},{"name":"C#2","midi":37,"time":173.5199999999996,"velocity":1,"duration":0.47999999999998977},{"name":"C#3","midi":49,"time":173.9999999999996,"velocity":1,"duration":0.2400000000000091},{"name":"C#2","midi":37,"time":174.2399999999996,"velocity":1,"duration":0.2400000000000091},{"name":"C#2","midi":37,"time":174.47999999999962,"velocity":1,"duration":0.47999999999998977},{"name":"C#2","midi":37,"time":174.9599999999996,"velocity":1,"duration":0.47999999999998977},{"name":"C#3","midi":49,"time":175.4399999999996,"velocity":1,"duration":0.2400000000000091},{"name":"B1","midi":35,"time":175.6799999999996,"velocity":1,"duration":0.36000000000001364},{"name":"B1","midi":35,"time":176.03999999999962,"velocity":1,"duration":0.36000000000001364},{"name":"B1","midi":35,"time":176.39999999999964,"velocity":1,"duration":0.2400000000000091},{"name":"G#1","midi":32,"time":176.63999999999965,"velocity":1,"duration":0.47999999999998977},{"name":"G#1","midi":32,"time":177.11999999999964,"velocity":1,"duration":0.2400000000000091},{"name":"G#2","midi":44,"time":177.35999999999964,"velocity":1,"duration":0.2400000000000091},{"name":"G#1","midi":32,"time":177.59999999999965,"velocity":1,"duration":0.2400000000000091},{"name":"A#1","midi":34,"time":177.83999999999966,"velocity":1,"duration":0.2400000000000091},{"name":"B1","midi":35,"time":178.07999999999967,"velocity":1,"duration":0.2400000000000091},{"name":"D#2","midi":39,"time":178.31999999999968,"velocity":1,"duration":0.47999999999998977},{"name":"D#2","midi":39,"time":178.79999999999967,"velocity":1,"duration":0.47999999999998977},{"name":"D#3","midi":51,"time":179.27999999999966,"velocity":1,"duration":0.2400000000000091},{"name":"D#2","midi":39,"time":179.51999999999967,"velocity":1,"duration":0.2400000000000091},{"name":"A#1","midi":34,"time":179.75999999999968,"velocity":1,"duration":0.2400000000000091},{"name":"G#1","midi":32,"time":179.9999999999997,"velocity":1,"duration":0.2400000000000091},{"name":"C#2","midi":37,"time":180.2399999999997,"velocity":1,"duration":0.47999999999998977},{"name":"C#2","midi":37,"time":180.7199999999997,"velocity":1,"duration":0.47999999999998977},{"name":"C#2","midi":37,"time":181.19999999999968,"velocity":1,"duration":0.47999999999998977},{"name":"C#3","midi":49,"time":181.67999999999967,"velocity":1,"duration":0.2400000000000091},{"name":"C#2","midi":37,"time":181.91999999999967,"velocity":1,"duration":0.2400000000000091},{"name":"C#2","midi":37,"time":182.15999999999968,"velocity":1,"duration":0.47999999999998977},{"name":"C#2","midi":37,"time":182.63999999999967,"velocity":1,"duration":0.47999999999998977},{"name":"C#3","midi":49,"time":183.11999999999966,"velocity":1,"duration":0.2400000000000091},{"name":"B1","midi":35,"time":183.35999999999967,"velocity":1,"duration":0.36000000000001364},{"name":"B1","midi":35,"time":183.7199999999997,"velocity":1,"duration":0.36000000000001364},{"name":"B1","midi":35,"time":184.0799999999997,"velocity":1,"duration":0.2400000000000091},{"name":"G#1","midi":32,"time":184.3199999999997,"velocity":1,"duration":0.47999999999998977},{"name":"G#1","midi":32,"time":184.7999999999997,"velocity":1,"duration":0.2400000000000091},{"name":"G#2","midi":44,"time":185.0399999999997,"velocity":1,"duration":0.2400000000000091},{"name":"G#1","midi":32,"time":185.27999999999972,"velocity":1,"duration":0.2400000000000091},{"name":"A#1","midi":34,"time":185.51999999999973,"velocity":1,"duration":0.2400000000000091},{"name":"B1","midi":35,"time":185.75999999999974,"velocity":1,"duration":0.2400000000000091},{"name":"D#2","midi":39,"time":185.99999999999974,"velocity":1,"duration":0.47999999999998977},{"name":"D#2","midi":39,"time":186.47999999999973,"velocity":1,"duration":0.47999999999998977},{"name":"D#3","midi":51,"time":186.95999999999972,"velocity":1,"duration":0.2400000000000091},{"name":"D#2","midi":39,"time":187.19999999999973,"velocity":1,"duration":0.2400000000000091},{"name":"A#1","midi":34,"time":187.43999999999974,"velocity":1,"duration":0.2400000000000091},{"name":"G#1","midi":32,"time":187.67999999999975,"velocity":1,"duration":0.2400000000000091},{"name":"C#2","midi":37,"time":187.91999999999976,"velocity":1,"duration":0.47999999999998977},{"name":"C#2","midi":37,"time":188.39999999999975,"velocity":1,"duration":0.47999999999998977},{"name":"C#2","midi":37,"time":188.87999999999974,"velocity":1,"duration":0.47999999999998977},{"name":"C#3","midi":49,"time":189.35999999999973,"velocity":1,"duration":0.2400000000000091},{"name":"C#2","midi":37,"time":189.59999999999974,"velocity":1,"duration":0.2400000000000091},{"name":"C#2","midi":37,"time":189.83999999999975,"velocity":1,"duration":0.47999999999998977},{"name":"C#2","midi":37,"time":190.31999999999974,"velocity":1,"duration":0.47999999999998977},{"name":"C#3","midi":49,"time":190.79999999999973,"velocity":1,"duration":0.2400000000000091},{"name":"B1","midi":35,"time":191.03999999999974,"velocity":1,"duration":0.36000000000001364},{"name":"B1","midi":35,"time":191.39999999999975,"velocity":1,"duration":0.36000000000001364},{"name":"B1","midi":35,"time":191.75999999999976,"velocity":1,"duration":0.2400000000000091},{"name":"G#1","midi":32,"time":191.99999999999977,"velocity":1,"duration":0.47999999999998977},{"name":"G#1","midi":32,"time":192.47999999999976,"velocity":1,"duration":0.2400000000000091},{"name":"G#2","midi":44,"time":192.71999999999977,"velocity":1,"duration":0.2400000000000091},{"name":"G#1","midi":32,"time":192.95999999999978,"velocity":1,"duration":0.2400000000000091},{"name":"A#1","midi":34,"time":193.1999999999998,"velocity":1,"duration":0.2400000000000091},{"name":"B1","midi":35,"time":193.4399999999998,"velocity":1,"duration":0.2400000000000091},{"name":"D#2","midi":39,"time":193.6799999999998,"velocity":1,"duration":0.47999999999998977},{"name":"D#2","midi":39,"time":194.1599999999998,"velocity":1,"duration":0.47999999999998977},{"name":"D#3","midi":51,"time":194.6399999999998,"velocity":1,"duration":0.2400000000000091},{"name":"D#2","midi":39,"time":194.8799999999998,"velocity":1,"duration":0.2400000000000091},{"name":"A#1","midi":34,"time":195.1199999999998,"velocity":1,"duration":0.2400000000000091},{"name":"G#1","midi":32,"time":195.35999999999981,"velocity":1,"duration":0.2400000000000091},{"name":"C#2","midi":37,"time":195.59999999999982,"velocity":1,"duration":0.47999999999998977},{"name":"C#2","midi":37,"time":196.0799999999998,"velocity":1,"duration":0.47999999999998977},{"name":"C#2","midi":37,"time":196.5599999999998,"velocity":1,"duration":0.47999999999998977},{"name":"C#3","midi":49,"time":197.0399999999998,"velocity":1,"duration":0.2400000000000091},{"name":"C#2","midi":37,"time":197.2799999999998,"velocity":1,"duration":0.2400000000000091},{"name":"C#2","midi":37,"time":197.5199999999998,"velocity":1,"duration":0.47999999999998977},{"name":"C#2","midi":37,"time":197.9999999999998,"velocity":1,"duration":0.47999999999998977},{"name":"C#3","midi":49,"time":198.4799999999998,"velocity":1,"duration":0.2400000000000091},{"name":"B1","midi":35,"time":198.7199999999998,"velocity":1,"duration":0.36000000000001364},{"name":"B1","midi":35,"time":199.0799999999998,"velocity":1,"duration":0.36000000000001364},{"name":"B1","midi":35,"time":199.43999999999983,"velocity":1,"duration":0.2400000000000091},{"name":"F#2","midi":42,"time":200.39999999999984,"velocity":0.7559055118110236,"duration":0.12000000000000455},{"name":"G#2","midi":44,"time":200.51999999999984,"velocity":0.7559055118110236,"duration":0.12000000000000455},{"name":"D#2","midi":39,"time":202.31999999999985,"velocity":0.7559055118110236,"duration":0.12000000000000455},{"name":"D#3","midi":51,"time":202.79999999999987,"velocity":0.7559055118110236,"duration":0.12000000000000455},{"name":"F#2","midi":42,"time":204.23999999999987,"velocity":0.7559055118110236,"duration":0.12000000000000455},{"name":"D#2","midi":39,"time":206.15999999999988,"velocity":0.7559055118110236,"duration":0.12000000000000455},{"name":"F#3","midi":54,"time":206.75999999999988,"velocity":0.7559055118110236,"duration":0.12000000000000455},{"name":"F#2","midi":42,"time":207.1199999999999,"velocity":0.7559055118110236,"duration":0.12000000000000455},{"name":"F#2","midi":42,"time":208.0799999999999,"velocity":0.7559055118110236,"duration":0.12000000000000455},{"name":"G#2","midi":44,"time":208.1999999999999,"velocity":0.7559055118110236,"duration":0.12000000000000455},{"name":"D#2","midi":39,"time":209.99999999999991,"velocity":0.7559055118110236,"duration":0.12000000000000455},{"name":"D#3","midi":51,"time":210.47999999999993,"velocity":0.7559055118110236,"duration":0.12000000000000455},{"name":"F#2","midi":42,"time":211.91999999999993,"velocity":0.7559055118110236,"duration":0.12000000000000455},{"name":"D#2","midi":39,"time":213.83999999999995,"velocity":0.7559055118110236,"duration":0.12000000000000455},{"name":"F#2","midi":42,"time":214.31999999999996,"velocity":0.7559055118110236,"duration":0.12000000000000455},{"name":"F#3","midi":54,"time":214.43999999999997,"velocity":0.7559055118110236,"duration":0.12000000000000455},{"name":"F#2","midi":42,"time":214.67999999999998,"velocity":0.7559055118110236,"duration":0.12000000000000455},{"name":"F#3","midi":54,"time":214.79999999999998,"velocity":0.7559055118110236,"duration":0.12000000000000455},{"name":"F#2","midi":42,"time":214.92,"velocity":0.7559055118110236,"duration":0.12000000000000455}]},{"instrumentFamily":"piano","notes":[{"name":"B3","midi":59,"time":7.680000000000003,"velocity":1,"duration":1.9200000000000177},{"name":"E4","midi":64,"time":7.680000000000003,"velocity":1,"duration":1.9200000000000177},{"name":"G#3","midi":56,"time":7.680000000000003,"velocity":1,"duration":1.9200000000000177},{"name":"G#3","midi":56,"time":9.600000000000021,"velocity":1,"duration":1.92},{"name":"C#4","midi":61,"time":9.600000000000021,"velocity":1,"duration":1.92},{"name":"E4","midi":64,"time":9.600000000000021,"velocity":1,"duration":1.92},{"name":"B3","midi":59,"time":11.520000000000021,"velocity":1,"duration":1.92},{"name":"E4","midi":64,"time":11.520000000000021,"velocity":1,"duration":1.92},{"name":"G#3","midi":56,"time":11.520000000000021,"velocity":1,"duration":1.92},{"name":"G#3","midi":56,"time":13.44000000000002,"velocity":1,"duration":1.92},{"name":"C#4","midi":61,"time":13.44000000000002,"velocity":1,"duration":1.92},{"name":"E4","midi":64,"time":13.44000000000002,"velocity":1,"duration":1.92},{"name":"B3","midi":59,"time":15.36000000000002,"velocity":1,"duration":1.9200000000000017},{"name":"E4","midi":64,"time":15.36000000000002,"velocity":1,"duration":1.9200000000000017},{"name":"G#3","midi":56,"time":15.36000000000002,"velocity":1,"duration":1.9200000000000017},{"name":"G#3","midi":56,"time":17.280000000000022,"velocity":1,"duration":1.9200000000000017},{"name":"C#4","midi":61,"time":17.280000000000022,"velocity":1,"duration":1.9200000000000017},{"name":"E4","midi":64,"time":17.280000000000022,"velocity":1,"duration":1.9200000000000017},{"name":"B3","midi":59,"time":19.200000000000024,"velocity":1,"duration":1.9200000000000017},{"name":"E4","midi":64,"time":19.200000000000024,"velocity":1,"duration":1.9200000000000017},{"name":"G#3","midi":56,"time":19.200000000000024,"velocity":1,"duration":1.9200000000000017},{"name":"B4","midi":71,"time":23.040000000000028,"velocity":0.7480314960629921,"duration":1.9200000000000017},{"name":"E4","midi":64,"time":23.040000000000028,"velocity":0.7480314960629921,"duration":1.9200000000000017},{"name":"G#4","midi":68,"time":23.040000000000028,"velocity":0.7480314960629921,"duration":1.9200000000000017},{"name":"B4","midi":71,"time":24.96000000000003,"velocity":0.7480314960629921,"duration":1.9200000000000017},{"name":"E4","midi":64,"time":24.96000000000003,"velocity":0.7480314960629921,"duration":1.9200000000000017},{"name":"G#4","midi":68,"time":24.96000000000003,"velocity":0.7480314960629921,"duration":1.9200000000000017},{"name":"B4","midi":71,"time":26.88000000000003,"velocity":0.7480314960629921,"duration":1.9200000000000017},{"name":"G#4","midi":68,"time":26.88000000000003,"velocity":0.7480314960629921,"duration":1.9200000000000017},{"name":"D#5","midi":75,"time":26.88000000000003,"velocity":0.7480314960629921,"duration":1.9200000000000017},{"name":"G#4","midi":68,"time":28.800000000000033,"velocity":0.7480314960629921,"duration":1.9200000000000017},{"name":"D#5","midi":75,"time":28.800000000000033,"velocity":0.7480314960629921,"duration":1.9200000000000017},{"name":"B4","midi":71,"time":28.800000000000033,"velocity":0.7480314960629921,"duration":1.9200000000000017},{"name":"B4","midi":71,"time":30.720000000000034,"velocity":0.7480314960629921,"duration":1.9200000000000017},{"name":"G#4","midi":68,"time":30.720000000000034,"velocity":0.7480314960629921,"duration":1.9200000000000017},{"name":"D#5","midi":75,"time":30.720000000000034,"velocity":0.7480314960629921,"duration":1.9200000000000017},{"name":"B4","midi":71,"time":32.640000000000036,"velocity":0.7480314960629921,"duration":1.9200000000000017},{"name":"D#5","midi":75,"time":32.640000000000036,"velocity":0.7480314960629921,"duration":1.9200000000000017},{"name":"G#4","midi":68,"time":32.640000000000036,"velocity":0.7480314960629921,"duration":1.9200000000000017},{"name":"B4","midi":71,"time":34.56000000000004,"velocity":0.7480314960629921,"duration":1.9200000000000017},{"name":"F#4","midi":66,"time":34.56000000000004,"velocity":0.7480314960629921,"duration":1.9200000000000017},{"name":"D#5","midi":75,"time":34.56000000000004,"velocity":0.7480314960629921,"duration":1.9200000000000017},{"name":"F#4","midi":66,"time":36.48000000000004,"velocity":0.7480314960629921,"duration":1.9200000000000017},{"name":"A#4","midi":70,"time":36.48000000000004,"velocity":0.7480314960629921,"duration":1.9200000000000017},{"name":"D#5","midi":75,"time":36.48000000000004,"velocity":0.7480314960629921,"duration":1.9200000000000017},{"name":"B4","midi":71,"time":38.40000000000004,"velocity":0.7480314960629921,"duration":1.9200000000000017},{"name":"E4","midi":64,"time":38.40000000000004,"velocity":0.7480314960629921,"duration":1.9200000000000017},{"name":"G#4","midi":68,"time":38.40000000000004,"velocity":0.7480314960629921,"duration":1.9200000000000017},{"name":"B4","midi":71,"time":40.32000000000004,"velocity":0.7480314960629921,"duration":1.9200000000000017},{"name":"E4","midi":64,"time":40.32000000000004,"velocity":0.7480314960629921,"duration":1.9200000000000017},{"name":"G#4","midi":68,"time":40.32000000000004,"velocity":0.7480314960629921,"duration":1.9200000000000017},{"name":"B4","midi":71,"time":42.240000000000045,"velocity":0.7480314960629921,"duration":1.9200000000000017},{"name":"G#4","midi":68,"time":42.240000000000045,"velocity":0.7480314960629921,"duration":1.9200000000000017},{"name":"D#5","midi":75,"time":42.240000000000045,"velocity":0.7480314960629921,"duration":1.9200000000000017},{"name":"G#4","midi":68,"time":44.160000000000046,"velocity":0.7480314960629921,"duration":1.9200000000000017},{"name":"D#5","midi":75,"time":44.160000000000046,"velocity":0.7480314960629921,"duration":1.9200000000000017},{"name":"B4","midi":71,"time":44.160000000000046,"velocity":0.7480314960629921,"duration":1.9200000000000017},{"name":"B4","midi":71,"time":46.08000000000005,"velocity":0.7480314960629921,"duration":1.9200000000000017},{"name":"G#4","midi":68,"time":46.08000000000005,"velocity":0.7480314960629921,"duration":1.9200000000000017},{"name":"D#5","midi":75,"time":46.08000000000005,"velocity":0.7480314960629921,"duration":1.9200000000000017},{"name":"B4","midi":71,"time":48.00000000000005,"velocity":0.7480314960629921,"duration":1.9200000000000017},{"name":"D#5","midi":75,"time":48.00000000000005,"velocity":0.7480314960629921,"duration":1.9200000000000017},{"name":"G#4","midi":68,"time":48.00000000000005,"velocity":0.7480314960629921,"duration":1.9200000000000017},{"name":"B4","midi":71,"time":49.92000000000005,"velocity":0.7480314960629921,"duration":1.9200000000000017},{"name":"F#4","midi":66,"time":49.92000000000005,"velocity":0.7480314960629921,"duration":1.9200000000000017},{"name":"D#5","midi":75,"time":49.92000000000005,"velocity":0.7480314960629921,"duration":1.9200000000000017},{"name":"F#4","midi":66,"time":51.84000000000005,"velocity":0.7480314960629921,"duration":1.9200000000000017},{"name":"A#4","midi":70,"time":51.84000000000005,"velocity":0.7480314960629921,"duration":1.9200000000000017},{"name":"D#5","midi":75,"time":51.84000000000005,"velocity":0.7480314960629921,"duration":1.9200000000000017},{"name":"B4","midi":71,"time":53.760000000000055,"velocity":0.7480314960629921,"duration":1.9200000000000017},{"name":"E4","midi":64,"time":53.760000000000055,"velocity":0.7480314960629921,"duration":1.9200000000000017},{"name":"G#4","midi":68,"time":53.760000000000055,"velocity":0.7480314960629921,"duration":1.9200000000000017},{"name":"B4","midi":71,"time":55.68000000000006,"velocity":0.7480314960629921,"duration":1.9200000000000017},{"name":"E4","midi":64,"time":55.68000000000006,"velocity":0.7480314960629921,"duration":1.9200000000000017},{"name":"G#4","midi":68,"time":55.68000000000006,"velocity":0.7480314960629921,"duration":1.9200000000000017},{"name":"B4","midi":71,"time":57.60000000000006,"velocity":0.7480314960629921,"duration":1.9200000000000017},{"name":"G#4","midi":68,"time":57.60000000000006,"velocity":0.7480314960629921,"duration":1.9200000000000017},{"name":"D#5","midi":75,"time":57.60000000000006,"velocity":0.7480314960629921,"duration":1.9200000000000017},{"name":"G#4","midi":68,"time":59.52000000000006,"velocity":0.7480314960629921,"duration":1.9200000000000017},{"name":"D#5","midi":75,"time":59.52000000000006,"velocity":0.7480314960629921,"duration":1.9200000000000017},{"name":"B4","midi":71,"time":59.52000000000006,"velocity":0.7480314960629921,"duration":1.9200000000000017},{"name":"B4","midi":71,"time":61.44000000000006,"velocity":0.7480314960629921,"duration":1.9200000000000017},{"name":"G#4","midi":68,"time":61.44000000000006,"velocity":0.7480314960629921,"duration":1.9200000000000017},{"name":"D#5","midi":75,"time":61.44000000000006,"velocity":0.7480314960629921,"duration":1.9200000000000017},{"name":"B4","midi":71,"time":63.36000000000006,"velocity":0.7480314960629921,"duration":1.9199999999999946},{"name":"D#5","midi":75,"time":63.36000000000006,"velocity":0.7480314960629921,"duration":1.9199999999999946},{"name":"G#4","midi":68,"time":63.36000000000006,"velocity":0.7480314960629921,"duration":1.9199999999999946},{"name":"B4","midi":71,"time":65.28000000000006,"velocity":0.7480314960629921,"duration":1.9200000000000017},{"name":"F#4","midi":66,"time":65.28000000000006,"velocity":0.7480314960629921,"duration":1.9200000000000017},{"name":"D#5","midi":75,"time":65.28000000000006,"velocity":0.7480314960629921,"duration":1.9200000000000017},{"name":"F#4","midi":66,"time":67.20000000000006,"velocity":0.7480314960629921,"duration":1.9200000000000017},{"name":"A#4","midi":70,"time":67.20000000000006,"velocity":0.7480314960629921,"duration":1.9200000000000017},{"name":"D#5","midi":75,"time":67.20000000000006,"velocity":0.7480314960629921,"duration":1.9200000000000017},{"name":"B4","midi":71,"time":69.12000000000006,"velocity":0.7480314960629921,"duration":1.9200000000000017},{"name":"E4","midi":64,"time":69.12000000000006,"velocity":0.7480314960629921,"duration":1.9200000000000017},{"name":"G#4","midi":68,"time":69.12000000000006,"velocity":0.7480314960629921,"duration":1.9200000000000017},{"name":"B4","midi":71,"time":71.04000000000006,"velocity":0.7480314960629921,"duration":1.9200000000000017},{"name":"E4","midi":64,"time":71.04000000000006,"velocity":0.7480314960629921,"duration":1.9200000000000017},{"name":"G#4","midi":68,"time":71.04000000000006,"velocity":0.7480314960629921,"duration":1.9200000000000017},{"name":"B4","midi":71,"time":72.96000000000006,"velocity":0.7480314960629921,"duration":1.9200000000000017},{"name":"G#4","midi":68,"time":72.96000000000006,"velocity":0.7480314960629921,"duration":1.9200000000000017},{"name":"D#5","midi":75,"time":72.96000000000006,"velocity":0.7480314960629921,"duration":1.9200000000000017},{"name":"G#4","midi":68,"time":74.88000000000007,"velocity":0.7480314960629921,"duration":1.9200000000000017},{"name":"D#5","midi":75,"time":74.88000000000007,"velocity":0.7480314960629921,"duration":1.9200000000000017},{"name":"B4","midi":71,"time":74.88000000000007,"velocity":0.7480314960629921,"duration":1.9200000000000017},{"name":"B4","midi":71,"time":76.80000000000007,"velocity":0.7480314960629921,"duration":1.9200000000000017},{"name":"G#4","midi":68,"time":76.80000000000007,"velocity":0.7480314960629921,"duration":1.9200000000000017},{"name":"D#5","midi":75,"time":76.80000000000007,"velocity":0.7480314960629921,"duration":1.9200000000000017},{"name":"B4","midi":71,"time":78.72000000000007,"velocity":0.7480314960629921,"duration":1.9200000000000017},{"name":"D#5","midi":75,"time":78.72000000000007,"velocity":0.7480314960629921,"duration":1.9200000000000017},{"name":"G#4","midi":68,"time":78.72000000000007,"velocity":0.7480314960629921,"duration":1.9200000000000017},{"name":"B4","midi":71,"time":80.64000000000007,"velocity":0.7480314960629921,"duration":1.9200000000000017},{"name":"F#4","midi":66,"time":80.64000000000007,"velocity":0.7480314960629921,"duration":1.9200000000000017},{"name":"D#5","midi":75,"time":80.64000000000007,"velocity":0.7480314960629921,"duration":1.9200000000000017},{"name":"F#4","midi":66,"time":82.56000000000007,"velocity":0.7480314960629921,"duration":1.9200000000000017},{"name":"A#4","midi":70,"time":82.56000000000007,"velocity":0.7480314960629921,"duration":1.9200000000000017},{"name":"D#5","midi":75,"time":82.56000000000007,"velocity":0.7480314960629921,"duration":1.9200000000000017},{"name":"B4","midi":71,"time":84.48000000000008,"velocity":0.7480314960629921,"duration":1.9200000000000017},{"name":"E4","midi":64,"time":84.48000000000008,"velocity":0.7480314960629921,"duration":1.9200000000000017},{"name":"G#4","midi":68,"time":84.48000000000008,"velocity":0.7480314960629921,"duration":1.9200000000000017},{"name":"B4","midi":71,"time":86.40000000000008,"velocity":0.7480314960629921,"duration":1.9200000000000017},{"name":"E4","midi":64,"time":86.40000000000008,"velocity":0.7480314960629921,"duration":1.9200000000000017},{"name":"G#4","midi":68,"time":86.40000000000008,"velocity":0.7480314960629921,"duration":1.9200000000000017},{"name":"B4","midi":71,"time":88.32000000000008,"velocity":0.7480314960629921,"duration":1.9200000000000017},{"name":"G#4","midi":68,"time":88.32000000000008,"velocity":0.7480314960629921,"duration":1.9200000000000017},{"name":"D#5","midi":75,"time":88.32000000000008,"velocity":0.7480314960629921,"duration":1.9200000000000017},{"name":"G#4","midi":68,"time":90.24000000000008,"velocity":0.7480314960629921,"duration":1.9200000000000017},{"name":"D#5","midi":75,"time":90.24000000000008,"velocity":0.7480314960629921,"duration":1.9200000000000017},{"name":"B4","midi":71,"time":90.24000000000008,"velocity":0.7480314960629921,"duration":1.9200000000000017},{"name":"B4","midi":71,"time":92.16000000000008,"velocity":0.7480314960629921,"duration":1.9200000000000017},{"name":"G#4","midi":68,"time":92.16000000000008,"velocity":0.7480314960629921,"duration":1.9200000000000017},{"name":"D#5","midi":75,"time":92.16000000000008,"velocity":0.7480314960629921,"duration":1.9200000000000017},{"name":"B4","midi":71,"time":94.08000000000008,"velocity":0.7480314960629921,"duration":1.9200000000000017},{"name":"D#5","midi":75,"time":94.08000000000008,"velocity":0.7480314960629921,"duration":1.9200000000000017},{"name":"G#4","midi":68,"time":94.08000000000008,"velocity":0.7480314960629921,"duration":1.9200000000000017},{"name":"B4","midi":71,"time":96.00000000000009,"velocity":0.7480314960629921,"duration":1.9200000000000017},{"name":"F#4","midi":66,"time":96.00000000000009,"velocity":0.7480314960629921,"duration":1.9200000000000017},{"name":"D#5","midi":75,"time":96.00000000000009,"velocity":0.7480314960629921,"duration":1.9200000000000017},{"name":"F#4","midi":66,"time":97.92000000000009,"velocity":0.7480314960629921,"duration":1.9200000000000017},{"name":"A#4","midi":70,"time":97.92000000000009,"velocity":0.7480314960629921,"duration":1.9200000000000017},{"name":"D#5","midi":75,"time":97.92000000000009,"velocity":0.7480314960629921,"duration":1.9200000000000017},{"name":"B4","midi":71,"time":126.72000000000045,"velocity":0.7480314960629921,"duration":1.9200000000000728},{"name":"E4","midi":64,"time":126.72000000000045,"velocity":0.7480314960629921,"duration":1.9200000000000728},{"name":"G#4","midi":68,"time":126.72000000000045,"velocity":0.7480314960629921,"duration":1.9200000000000728},{"name":"B4","midi":71,"time":128.64000000000053,"velocity":0.7480314960629921,"duration":1.9199999999999875},{"name":"E4","midi":64,"time":128.64000000000053,"velocity":0.7480314960629921,"duration":1.9199999999999875},{"name":"G#4","midi":68,"time":128.64000000000053,"velocity":0.7480314960629921,"duration":1.9199999999999875},{"name":"B4","midi":71,"time":130.5600000000005,"velocity":0.7480314960629921,"duration":1.9199999999999875},{"name":"G#4","midi":68,"time":130.5600000000005,"velocity":0.7480314960629921,"duration":1.9199999999999875},{"name":"D#5","midi":75,"time":130.5600000000005,"velocity":0.7480314960629921,"duration":1.9199999999999875},{"name":"G#4","midi":68,"time":132.4800000000005,"velocity":0.7480314960629921,"duration":1.9200000000000443},{"name":"D#5","midi":75,"time":132.4800000000005,"velocity":0.7480314960629921,"duration":1.9200000000000443},{"name":"B4","midi":71,"time":132.4800000000005,"velocity":0.7480314960629921,"duration":1.9200000000000443},{"name":"F#4","midi":66,"time":138.24000000000046,"velocity":0.9448818897637795,"duration":1.9199999999999307},{"name":"D#4","midi":63,"time":138.24000000000046,"velocity":0.9448818897637795,"duration":1.9199999999999307},{"name":"B3","midi":59,"time":138.24000000000046,"velocity":0.9448818897637795,"duration":1.9199999999999307},{"name":"G#3","midi":56,"time":138.24000000000046,"velocity":0.9448818897637795,"duration":1.9199999999999307},{"name":"A#4","midi":70,"time":140.1600000000004,"velocity":0.9448818897637795,"duration":1.9199999999999875},{"name":"F#4","midi":66,"time":140.1600000000004,"velocity":0.9448818897637795,"duration":1.9199999999999875},{"name":"D#4","midi":63,"time":140.1600000000004,"velocity":0.9448818897637795,"duration":1.9199999999999875},{"name":"E4","midi":64,"time":142.08000000000038,"velocity":0.9448818897637795,"duration":1.9199999999999875},{"name":"G#4","midi":68,"time":142.08000000000038,"velocity":0.9448818897637795,"duration":1.9199999999999875},{"name":"B4","midi":71,"time":142.08000000000038,"velocity":0.9448818897637795,"duration":1.9199999999999875},{"name":"B4","midi":71,"time":144.00000000000037,"velocity":0.9448818897637795,"duration":0.960000000000008},{"name":"G#4","midi":68,"time":144.00000000000037,"velocity":0.9448818897637795,"duration":0.960000000000008},{"name":"E4","midi":64,"time":144.00000000000037,"velocity":0.9448818897637795,"duration":0.960000000000008},{"name":"F#4","midi":66,"time":144.96000000000038,"velocity":0.9448818897637795,"duration":0.960000000000008},{"name":"B4","midi":71,"time":144.96000000000038,"velocity":0.9448818897637795,"duration":0.960000000000008},{"name":"G#4","midi":68,"time":144.96000000000038,"velocity":0.9448818897637795,"duration":0.960000000000008},{"name":"F#4","midi":66,"time":145.92000000000039,"velocity":0.9448818897637795,"duration":1.9199999999999875},{"name":"D#4","midi":63,"time":145.92000000000039,"velocity":0.9448818897637795,"duration":1.9199999999999875},{"name":"B3","midi":59,"time":145.92000000000039,"velocity":0.9448818897637795,"duration":1.9199999999999875},{"name":"G#4","midi":68,"time":145.92000000000039,"velocity":0.9448818897637795,"duration":1.9199999999999875},{"name":"A#4","midi":70,"time":147.84000000000037,"velocity":0.9448818897637795,"duration":1.9199999999999875},{"name":"F#4","midi":66,"time":147.84000000000037,"velocity":0.9448818897637795,"duration":1.9199999999999875},{"name":"D#4","midi":63,"time":147.84000000000037,"velocity":0.9448818897637795,"duration":1.9199999999999875},{"name":"B4","midi":71,"time":149.76000000000036,"velocity":0.9448818897637795,"duration":1.9199999999999875},{"name":"G#4","midi":68,"time":149.76000000000036,"velocity":0.9448818897637795,"duration":1.9199999999999875},{"name":"E4","midi":64,"time":149.76000000000036,"velocity":0.9448818897637795,"duration":1.9199999999999875},{"name":"B4","midi":71,"time":151.68000000000035,"velocity":0.9448818897637795,"duration":0.960000000000008},{"name":"G#4","midi":68,"time":151.68000000000035,"velocity":0.9448818897637795,"duration":0.960000000000008},{"name":"E4","midi":64,"time":151.68000000000035,"velocity":0.9448818897637795,"duration":0.960000000000008},{"name":"G#4","midi":68,"time":152.64000000000036,"velocity":0.9448818897637795,"duration":0.960000000000008},{"name":"B4","midi":71,"time":152.64000000000036,"velocity":0.9448818897637795,"duration":0.960000000000008},{"name":"F#4","midi":66,"time":152.64000000000036,"velocity":0.9448818897637795,"duration":0.960000000000008},{"name":"F#4","midi":66,"time":153.60000000000036,"velocity":0.9448818897637795,"duration":1.9199999999999875},{"name":"D#4","midi":63,"time":153.60000000000036,"velocity":0.9448818897637795,"duration":1.9199999999999875},{"name":"B3","midi":59,"time":153.60000000000036,"velocity":0.9448818897637795,"duration":1.9199999999999875},{"name":"G#3","midi":56,"time":153.60000000000036,"velocity":0.9448818897637795,"duration":1.9199999999999875},{"name":"A#4","midi":70,"time":155.52000000000035,"velocity":0.9448818897637795,"duration":1.9199999999999875},{"name":"F#4","midi":66,"time":155.52000000000035,"velocity":0.9448818897637795,"duration":1.9199999999999875},{"name":"D#4","midi":63,"time":155.52000000000035,"velocity":0.9448818897637795,"duration":1.9199999999999875},{"name":"E4","midi":64,"time":157.44000000000034,"velocity":0.9448818897637795,"duration":1.9199999999999875},{"name":"G#4","midi":68,"time":157.44000000000034,"velocity":0.9448818897637795,"duration":1.9199999999999875},{"name":"B4","midi":71,"time":157.44000000000034,"velocity":0.9448818897637795,"duration":1.9199999999999875},{"name":"B4","midi":71,"time":159.36000000000033,"velocity":0.9448818897637795,"duration":0.960000000000008},{"name":"G#4","midi":68,"time":159.36000000000033,"velocity":0.9448818897637795,"duration":0.960000000000008},{"name":"E4","midi":64,"time":159.36000000000033,"velocity":0.9448818897637795,"duration":0.960000000000008},{"name":"F#4","midi":66,"time":160.32000000000033,"velocity":0.9448818897637795,"duration":0.960000000000008},{"name":"B4","midi":71,"time":160.32000000000033,"velocity":0.9448818897637795,"duration":0.960000000000008},{"name":"G#4","midi":68,"time":160.32000000000033,"velocity":0.9448818897637795,"duration":0.960000000000008},{"name":"F#4","midi":66,"time":161.28000000000034,"velocity":0.9448818897637795,"duration":1.9199999999999875},{"name":"D#4","midi":63,"time":161.28000000000034,"velocity":0.9448818897637795,"duration":1.9199999999999875},{"name":"B3","midi":59,"time":161.28000000000034,"velocity":0.9448818897637795,"duration":1.9199999999999875},{"name":"G#4","midi":68,"time":161.28000000000034,"velocity":0.9448818897637795,"duration":1.9199999999999875},{"name":"A#4","midi":70,"time":163.20000000000033,"velocity":0.9448818897637795,"duration":1.9199999999999875},{"name":"F#4","midi":66,"time":163.20000000000033,"velocity":0.9448818897637795,"duration":1.9199999999999875},{"name":"D#4","midi":63,"time":163.20000000000033,"velocity":0.9448818897637795,"duration":1.9199999999999875},{"name":"B4","midi":71,"time":165.12000000000032,"velocity":0.9448818897637795,"duration":1.9199999999999875},{"name":"G#4","midi":68,"time":165.12000000000032,"velocity":0.9448818897637795,"duration":1.9199999999999875},{"name":"E4","midi":64,"time":165.12000000000032,"velocity":0.9448818897637795,"duration":1.9199999999999875},{"name":"B4","midi":71,"time":167.0400000000003,"velocity":0.9448818897637795,"duration":0.960000000000008},{"name":"G#4","midi":68,"time":167.0400000000003,"velocity":0.9448818897637795,"duration":0.960000000000008},{"name":"E4","midi":64,"time":167.0400000000003,"velocity":0.9448818897637795,"duration":0.960000000000008},{"name":"G#4","midi":68,"time":168.0000000000003,"velocity":0.9448818897637795,"duration":0.960000000000008},{"name":"B4","midi":71,"time":168.0000000000003,"velocity":0.9448818897637795,"duration":0.960000000000008},{"name":"F#4","midi":66,"time":168.0000000000003,"velocity":0.9448818897637795,"duration":0.960000000000008},{"name":"F#4","midi":66,"time":168.96000000000032,"velocity":0.9448818897637795,"duration":1.9199999999999875},{"name":"D#4","midi":63,"time":168.96000000000032,"velocity":0.9448818897637795,"duration":1.9199999999999875},{"name":"B3","midi":59,"time":168.96000000000032,"velocity":0.9448818897637795,"duration":1.9199999999999875},{"name":"G#3","midi":56,"time":168.96000000000032,"velocity":0.9448818897637795,"duration":1.9199999999999875},{"name":"A#4","midi":70,"time":170.8800000000003,"velocity":0.9448818897637795,"duration":1.9199999999999875},{"name":"F#4","midi":66,"time":170.8800000000003,"velocity":0.9448818897637795,"duration":1.9199999999999875},{"name":"D#4","midi":63,"time":170.8800000000003,"velocity":0.9448818897637795,"duration":1.9199999999999875},{"name":"E4","midi":64,"time":172.8000000000003,"velocity":0.9448818897637795,"duration":1.9199999999999875},{"name":"G#4","midi":68,"time":172.8000000000003,"velocity":0.9448818897637795,"duration":1.9199999999999875},{"name":"B4","midi":71,"time":172.8000000000003,"velocity":0.9448818897637795,"duration":1.9199999999999875},{"name":"B4","midi":71,"time":174.72000000000028,"velocity":0.9448818897637795,"duration":0.960000000000008},{"name":"G#4","midi":68,"time":174.72000000000028,"velocity":0.9448818897637795,"duration":0.960000000000008},{"name":"E4","midi":64,"time":174.72000000000028,"velocity":0.9448818897637795,"duration":0.960000000000008},{"name":"F#4","midi":66,"time":175.6800000000003,"velocity":0.9448818897637795,"duration":0.960000000000008},{"name":"B4","midi":71,"time":175.6800000000003,"velocity":0.9448818897637795,"duration":0.960000000000008},{"name":"G#4","midi":68,"time":175.6800000000003,"velocity":0.9448818897637795,"duration":0.960000000000008},{"name":"F#4","midi":66,"time":176.6400000000003,"velocity":0.9448818897637795,"duration":1.9199999999999875},{"name":"D#4","midi":63,"time":176.6400000000003,"velocity":0.9448818897637795,"duration":1.9199999999999875},{"name":"B3","midi":59,"time":176.6400000000003,"velocity":0.9448818897637795,"duration":1.9199999999999875},{"name":"G#4","midi":68,"time":176.6400000000003,"velocity":0.9448818897637795,"duration":1.9199999999999875},{"name":"A#4","midi":70,"time":178.5600000000003,"velocity":0.9448818897637795,"duration":1.9199999999999875},{"name":"F#4","midi":66,"time":178.5600000000003,"velocity":0.9448818897637795,"duration":1.9199999999999875},{"name":"D#4","midi":63,"time":178.5600000000003,"velocity":0.9448818897637795,"duration":1.9199999999999875},{"name":"B4","midi":71,"time":180.48000000000027,"velocity":0.9448818897637795,"duration":1.9199999999999875},{"name":"G#4","midi":68,"time":180.48000000000027,"velocity":0.9448818897637795,"duration":1.9199999999999875},{"name":"E4","midi":64,"time":180.48000000000027,"velocity":0.9448818897637795,"duration":1.9199999999999875},{"name":"B4","midi":71,"time":182.40000000000026,"velocity":0.9448818897637795,"duration":0.960000000000008},{"name":"G#4","midi":68,"time":182.40000000000026,"velocity":0.9448818897637795,"duration":0.960000000000008},{"name":"E4","midi":64,"time":182.40000000000026,"velocity":0.9448818897637795,"duration":0.960000000000008},{"name":"G#4","midi":68,"time":183.36000000000027,"velocity":0.9448818897637795,"duration":0.960000000000008},{"name":"B4","midi":71,"time":183.36000000000027,"velocity":0.9448818897637795,"duration":0.960000000000008},{"name":"F#4","midi":66,"time":183.36000000000027,"velocity":0.9448818897637795,"duration":0.960000000000008},{"name":"F#4","midi":66,"time":184.32000000000028,"velocity":0.9448818897637795,"duration":1.9199999999999875},{"name":"D#4","midi":63,"time":184.32000000000028,"velocity":0.9448818897637795,"duration":1.9199999999999875},{"name":"B3","midi":59,"time":184.32000000000028,"velocity":0.9448818897637795,"duration":1.9199999999999875},{"name":"G#3","midi":56,"time":184.32000000000028,"velocity":0.9448818897637795,"duration":1.9199999999999875},{"name":"A#4","midi":70,"time":186.24000000000026,"velocity":0.9448818897637795,"duration":1.9199999999999875},{"name":"F#4","midi":66,"time":186.24000000000026,"velocity":0.9448818897637795,"duration":1.9199999999999875},{"name":"D#4","midi":63,"time":186.24000000000026,"velocity":0.9448818897637795,"duration":1.9199999999999875},{"name":"E4","midi":64,"time":188.16000000000025,"velocity":0.9448818897637795,"duration":1.9199999999999875},{"name":"G#4","midi":68,"time":188.16000000000025,"velocity":0.9448818897637795,"duration":1.9199999999999875},{"name":"B4","midi":71,"time":188.16000000000025,"velocity":0.9448818897637795,"duration":1.9199999999999875},{"name":"B4","midi":71,"time":190.08000000000024,"velocity":0.9448818897637795,"duration":0.960000000000008},{"name":"G#4","midi":68,"time":190.08000000000024,"velocity":0.9448818897637795,"duration":0.960000000000008},{"name":"E4","midi":64,"time":190.08000000000024,"velocity":0.9448818897637795,"duration":0.960000000000008},{"name":"F#4","midi":66,"time":191.04000000000025,"velocity":0.9448818897637795,"duration":0.960000000000008},{"name":"B4","midi":71,"time":191.04000000000025,"velocity":0.9448818897637795,"duration":0.960000000000008},{"name":"G#4","midi":68,"time":191.04000000000025,"velocity":0.9448818897637795,"duration":0.960000000000008},{"name":"F#4","midi":66,"time":192.00000000000026,"velocity":0.9448818897637795,"duration":1.9199999999999875},{"name":"D#4","midi":63,"time":192.00000000000026,"velocity":0.9448818897637795,"duration":1.9199999999999875},{"name":"B3","midi":59,"time":192.00000000000026,"velocity":0.9448818897637795,"duration":1.9199999999999875},{"name":"G#4","midi":68,"time":192.00000000000026,"velocity":0.9448818897637795,"duration":1.9199999999999875},{"name":"A#4","midi":70,"time":193.92000000000024,"velocity":0.9448818897637795,"duration":1.9199999999999875},{"name":"F#4","midi":66,"time":193.92000000000024,"velocity":0.9448818897637795,"duration":1.9199999999999875},{"name":"D#4","midi":63,"time":193.92000000000024,"velocity":0.9448818897637795,"duration":1.9199999999999875},{"name":"B4","midi":71,"time":195.84000000000023,"velocity":0.9448818897637795,"duration":1.9199999999999875},{"name":"G#4","midi":68,"time":195.84000000000023,"velocity":0.9448818897637795,"duration":1.9199999999999875},{"name":"E4","midi":64,"time":195.84000000000023,"velocity":0.9448818897637795,"duration":1.9199999999999875},{"name":"B4","midi":71,"time":197.76000000000022,"velocity":0.9448818897637795,"duration":0.960000000000008},{"name":"G#4","midi":68,"time":197.76000000000022,"velocity":0.9448818897637795,"duration":0.960000000000008},{"name":"E4","midi":64,"time":197.76000000000022,"velocity":0.9448818897637795,"duration":0.960000000000008},{"name":"G#4","midi":68,"time":198.72000000000023,"velocity":0.9448818897637795,"duration":0.960000000000008},{"name":"B4","midi":71,"time":198.72000000000023,"velocity":0.9448818897637795,"duration":0.960000000000008},{"name":"F#4","midi":66,"time":198.72000000000023,"velocity":0.9448818897637795,"duration":0.960000000000008}]},{"instrumentFamily":"drums","notes":[{"name":"B1","midi":35,"time":0,"velocity":0.7874015748031497,"duration":0.24},{"name":"F#3","midi":54,"time":0,"velocity":0.5354330708661418,"duration":0.06},{"name":"F#3","midi":54,"time":0.12,"velocity":0.7874015748031497,"duration":0.06},{"name":"F#3","midi":54,"time":0.24,"velocity":0.5354330708661418,"duration":0.06},{"name":"F#3","midi":54,"time":0.36,"velocity":0.7874015748031497,"duration":0.06},{"name":"F#3","midi":54,"time":0.48,"velocity":0.5354330708661418,"duration":0.06000000000000005},{"name":"D#2","midi":39,"time":0.48,"velocity":0.7874015748031497,"duration":0.2400000000000002},{"name":"F#3","midi":54,"time":0.6000000000000001,"velocity":0.7874015748031497,"duration":0.06000000000000005},{"name":"F#3","midi":54,"time":0.7200000000000002,"velocity":0.5354330708661418,"duration":0.06000000000000005},{"name":"F#3","midi":54,"time":0.8400000000000003,"velocity":0.7874015748031497,"duration":0.06000000000000005},{"name":"F#3","midi":54,"time":0.9600000000000004,"velocity":0.5354330708661418,"duration":0.06000000000000005},{"name":"F#3","midi":54,"time":1.0800000000000005,"velocity":0.7874015748031497,"duration":0.06000000000000005},{"name":"F#3","midi":54,"time":1.2000000000000006,"velocity":0.5354330708661418,"duration":0.06000000000000005},{"name":"F#3","midi":54,"time":1.3200000000000007,"velocity":0.7874015748031497,"duration":0.06000000000000005},{"name":"D#2","midi":39,"time":1.4400000000000008,"velocity":0.7874015748031497,"duration":0.2400000000000002},{"name":"F#3","midi":54,"time":1.4400000000000008,"velocity":0.5354330708661418,"duration":0.030000000000000027},{"name":"F#3","midi":54,"time":1.4700000000000009,"velocity":0.5354330708661418,"duration":0.030000000000000027},{"name":"F#3","midi":54,"time":1.560000000000001,"velocity":0.7874015748031497,"duration":0.06000000000000005},{"name":"F#3","midi":54,"time":1.680000000000001,"velocity":0.5354330708661418,"duration":0.06000000000000005},{"name":"F#3","midi":54,"time":1.8000000000000012,"velocity":0.7874015748031497,"duration":0.06000000000000005},{"name":"F#3","midi":54,"time":1.9200000000000013,"velocity":0.5354330708661418,"duration":0.06000000000000005},{"name":"F#3","midi":54,"time":2.0400000000000014,"velocity":0.7874015748031497,"duration":0.06000000000000005},{"name":"F#3","midi":54,"time":2.1600000000000015,"velocity":0.5354330708661418,"duration":0.06000000000000005},{"name":"F#3","midi":54,"time":2.2800000000000016,"velocity":0.7874015748031497,"duration":0.06000000000000005},{"name":"D#2","midi":39,"time":2.4000000000000017,"velocity":0.7874015748031497,"duration":0.2400000000000002},{"name":"F#3","midi":54,"time":2.4000000000000017,"velocity":0.5354330708661418,"duration":0.06000000000000005},{"name":"F#3","midi":54,"time":2.520000000000002,"velocity":0.7874015748031497,"duration":0.06000000000000005},{"name":"F#3","midi":54,"time":2.640000000000002,"velocity":0.5354330708661418,"duration":0.06000000000000005},{"name":"F#3","midi":54,"time":2.760000000000002,"velocity":0.7874015748031497,"duration":0.06000000000000005},{"name":"F#3","midi":54,"time":2.880000000000002,"velocity":0.5354330708661418,"duration":0.06000000000000005},{"name":"F#3","midi":54,"time":3.000000000000002,"velocity":0.7874015748031497,"duration":0.06000000000000005},{"name":"F#3","midi":54,"time":3.1200000000000023,"velocity":0.5354330708661418,"duration":0.06000000000000005},{"name":"F#3","midi":54,"time":3.2400000000000024,"velocity":0.7874015748031497,"duration":0.06000000000000005},{"name":"F#3","midi":54,"time":3.3600000000000025,"velocity":0.5354330708661418,"duration":0.029999999999999805},{"name":"D#2","midi":39,"time":3.3600000000000025,"velocity":0.7874015748031497,"duration":0.23999999999999977},{"name":"F#3","midi":54,"time":3.3900000000000023,"velocity":0.5354330708661418,"duration":0.029999999999999805},{"name":"F#3","midi":54,"time":3.480000000000002,"velocity":0.7874015748031497,"duration":0.06000000000000005},{"name":"F#3","midi":54,"time":3.6000000000000023,"velocity":0.5354330708661418,"duration":0.06000000000000005},{"name":"F#3","midi":54,"time":3.7200000000000024,"velocity":0.7874015748031497,"duration":0.06000000000000005},{"name":"B1","midi":35,"time":3.8400000000000025,"velocity":0.7874015748031497,"duration":0.23999999999999932},{"name":"F#3","midi":54,"time":3.8400000000000025,"velocity":0.5354330708661418,"duration":0.06000000000000005},{"name":"F#3","midi":54,"time":3.9600000000000026,"velocity":0.7874015748031497,"duration":0.05999999999999961},{"name":"F#3","midi":54,"time":4.080000000000002,"velocity":0.5354330708661418,"duration":0.05999999999999961},{"name":"F#3","midi":54,"time":4.200000000000001,"velocity":0.7874015748031497,"duration":0.05999999999999961},{"name":"D#2","midi":39,"time":4.32,"velocity":0.7874015748031497,"duration":0.23999999999999844},{"name":"F#3","midi":54,"time":4.32,"velocity":0.5354330708661418,"duration":0.05999999999999961},{"name":"F#3","midi":54,"time":4.4399999999999995,"velocity":0.7874015748031497,"duration":0.05999999999999961},{"name":"F#3","midi":54,"time":4.559999999999999,"velocity":0.5354330708661418,"duration":0.05999999999999961},{"name":"F#3","midi":54,"time":4.679999999999998,"velocity":0.7874015748031497,"duration":0.05999999999999961},{"name":"F#3","midi":54,"time":4.799999999999997,"velocity":0.5354330708661418,"duration":0.05999999999999961},{"name":"F#3","midi":54,"time":4.919999999999996,"velocity":0.7874015748031497,"duration":0.05999999999999961},{"name":"F#3","midi":54,"time":5.039999999999996,"velocity":0.5354330708661418,"duration":0.05999999999999961},{"name":"F#3","midi":54,"time":5.159999999999995,"velocity":0.7874015748031497,"duration":0.05999999999999961},{"name":"D#2","midi":39,"time":5.279999999999994,"velocity":0.7874015748031497,"duration":0.23999999999999932},{"name":"F#3","midi":54,"time":5.279999999999994,"velocity":0.5354330708661418,"duration":0.03000000000000025},{"name":"F#3","midi":54,"time":5.309999999999994,"velocity":0.5354330708661418,"duration":0.03000000000000025},{"name":"F#3","midi":54,"time":5.399999999999994,"velocity":0.7874015748031497,"duration":0.05999999999999961},{"name":"F#3","midi":54,"time":5.519999999999993,"velocity":0.5354330708661418,"duration":0.05999999999999961},{"name":"F#3","midi":54,"time":5.639999999999993,"velocity":0.7874015748031497,"duration":0.05999999999999961},{"name":"F#3","midi":54,"time":5.759999999999992,"velocity":0.5354330708661418,"duration":0.05999999999999961},{"name":"F#3","midi":54,"time":5.879999999999991,"velocity":0.7874015748031497,"duration":0.05999999999999961},{"name":"F#3","midi":54,"time":5.99999999999999,"velocity":0.5354330708661418,"duration":0.05999999999999961},{"name":"F#3","midi":54,"time":6.1199999999999894,"velocity":0.7874015748031497,"duration":0.05999999999999961},{"name":"D#2","midi":39,"time":6.239999999999989,"velocity":0.7874015748031497,"duration":0.23999999999999844},{"name":"F#3","midi":54,"time":6.239999999999989,"velocity":0.5354330708661418,"duration":0.05999999999999961},{"name":"F#3","midi":54,"time":6.359999999999988,"velocity":0.7874015748031497,"duration":0.05999999999999961},{"name":"F#3","midi":54,"time":6.479999999999987,"velocity":0.5354330708661418,"duration":0.05999999999999961},{"name":"F#3","midi":54,"time":6.599999999999986,"velocity":0.7874015748031497,"duration":0.05999999999999961},{"name":"F#3","midi":54,"time":6.7199999999999855,"velocity":0.5354330708661418,"duration":0.05999999999999961},{"name":"F#3","midi":54,"time":6.839999999999985,"velocity":0.7874015748031497,"duration":0.05999999999999961},{"name":"F#3","midi":54,"time":6.959999999999984,"velocity":0.5354330708661418,"duration":0.05999999999999961},{"name":"F#3","midi":54,"time":7.079999999999983,"velocity":0.7874015748031497,"duration":0.05999999999999961},{"name":"D#2","midi":39,"time":7.199999999999982,"velocity":0.7874015748031497,"duration":0.23999999999999932},{"name":"F#3","midi":54,"time":7.199999999999982,"velocity":0.5354330708661418,"duration":0.03000000000000025},{"name":"F#3","midi":54,"time":7.229999999999983,"velocity":0.5354330708661418,"duration":0.03000000000000025},{"name":"F#3","midi":54,"time":7.3199999999999825,"velocity":0.7874015748031497,"duration":0.05999999999999961},{"name":"F#3","midi":54,"time":7.439999999999982,"velocity":0.5354330708661418,"duration":0.05999999999999961},{"name":"F#3","midi":54,"time":7.559999999999981,"velocity":0.7874015748031497,"duration":0.05999999999999961},{"name":"F#3","midi":54,"time":7.67999999999998,"velocity":0.5354330708661418,"duration":0.05999999999999961},{"name":"B1","midi":35,"time":7.67999999999998,"velocity":0.7874015748031497,"duration":0.23999999999999844},{"name":"F#3","midi":54,"time":7.799999999999979,"velocity":0.7874015748031497,"duration":0.05999999999999961},{"name":"F#3","midi":54,"time":7.919999999999979,"velocity":0.5354330708661418,"duration":0.05999999999999961},{"name":"F#3","midi":54,"time":8.039999999999978,"velocity":0.7874015748031497,"duration":0.0600000000000005},{"name":"B1","midi":35,"time":8.159999999999979,"velocity":0.7874015748031497,"duration":0.240000000000002},{"name":"D#2","midi":39,"time":8.159999999999979,"velocity":0.7874015748031497,"duration":0.240000000000002},{"name":"F#3","midi":54,"time":8.159999999999979,"velocity":0.5354330708661418,"duration":0.0600000000000005},{"name":"F#3","midi":54,"time":8.27999999999998,"velocity":0.7874015748031497,"duration":0.0600000000000005},{"name":"F#3","midi":54,"time":8.39999999999998,"velocity":0.5354330708661418,"duration":0.0600000000000005},{"name":"F#3","midi":54,"time":8.519999999999982,"velocity":0.7874015748031497,"duration":0.0600000000000005},{"name":"F#3","midi":54,"time":8.639999999999983,"velocity":0.5354330708661418,"duration":0.0600000000000005},{"name":"B1","midi":35,"time":8.639999999999983,"velocity":0.7874015748031497,"duration":0.240000000000002},{"name":"F#3","midi":54,"time":8.759999999999984,"velocity":0.7874015748031497,"duration":0.0600000000000005},{"name":"F#3","midi":54,"time":8.879999999999985,"velocity":0.5354330708661418,"duration":0.0600000000000005},{"name":"F#3","midi":54,"time":8.999999999999986,"velocity":0.7874015748031497,"duration":0.0600000000000005},{"name":"B1","midi":35,"time":9.119999999999987,"velocity":0.7874015748031497,"duration":0.2400000000000002},{"name":"D#2","midi":39,"time":9.119999999999987,"velocity":0.7874015748031497,"duration":0.2400000000000002},{"name":"F#3","midi":54,"time":9.119999999999987,"velocity":0.5354330708661418,"duration":0.02999999999999936},{"name":"F#3","midi":54,"time":9.149999999999986,"velocity":0.5354330708661418,"duration":0.02999999999999936},{"name":"F#3","midi":54,"time":9.239999999999986,"velocity":0.7874015748031497,"duration":0.0600000000000005},{"name":"F#3","midi":54,"time":9.359999999999987,"velocity":0.5354330708661418,"duration":0.0600000000000005},{"name":"F#3","midi":54,"time":9.479999999999988,"velocity":0.7874015748031497,"duration":0.0600000000000005},{"name":"F#3","midi":54,"time":9.599999999999989,"velocity":0.5354330708661418,"duration":0.0600000000000005},{"name":"B1","midi":35,"time":9.599999999999989,"velocity":0.7874015748031497,"duration":0.240000000000002},{"name":"F#3","midi":54,"time":9.71999999999999,"velocity":0.7874015748031497,"duration":0.0600000000000005},{"name":"F#3","midi":54,"time":9.839999999999991,"velocity":0.5354330708661418,"duration":0.0600000000000005},{"name":"F#3","midi":54,"time":9.959999999999992,"velocity":0.7874015748031497,"duration":0.0600000000000005},{"name":"B1","midi":35,"time":10.079999999999993,"velocity":0.7874015748031497,"duration":0.240000000000002},{"name":"D#2","midi":39,"time":10.079999999999993,"velocity":0.7874015748031497,"duration":0.240000000000002},{"name":"F#3","midi":54,"time":10.079999999999993,"velocity":0.5354330708661418,"duration":0.0600000000000005},{"name":"F#3","midi":54,"time":10.199999999999994,"velocity":0.7874015748031497,"duration":0.0600000000000005},{"name":"F#3","midi":54,"time":10.319999999999995,"velocity":0.5354330708661418,"duration":0.0600000000000005},{"name":"F#3","midi":54,"time":10.439999999999996,"velocity":0.7874015748031497,"duration":0.0600000000000005},{"name":"F#3","midi":54,"time":10.559999999999997,"velocity":0.5354330708661418,"duration":0.0600000000000005},{"name":"B1","midi":35,"time":10.559999999999997,"velocity":0.7874015748031497,"duration":0.240000000000002},{"name":"F#3","midi":54,"time":10.679999999999998,"velocity":0.7874015748031497,"duration":0.0600000000000005},{"name":"F#3","midi":54,"time":10.799999999999999,"velocity":0.5354330708661418,"duration":0.0600000000000005},{"name":"F#3","midi":54,"time":10.92,"velocity":0.7874015748031497,"duration":0.0600000000000005},{"name":"B1","midi":35,"time":11.040000000000001,"velocity":0.7874015748031497,"duration":0.2400000000000002},{"name":"D#2","midi":39,"time":11.040000000000001,"velocity":0.7874015748031497,"duration":0.2400000000000002},{"name":"F#3","midi":54,"time":11.040000000000001,"velocity":0.5354330708661418,"duration":0.02999999999999936},{"name":"F#3","midi":54,"time":11.07,"velocity":0.5354330708661418,"duration":0.02999999999999936},{"name":"F#3","midi":54,"time":11.16,"velocity":0.7874015748031497,"duration":0.0600000000000005},{"name":"F#3","midi":54,"time":11.280000000000001,"velocity":0.5354330708661418,"duration":0.0600000000000005},{"name":"F#3","midi":54,"time":11.400000000000002,"velocity":0.7874015748031497,"duration":0.0600000000000005},{"name":"F#3","midi":54,"time":11.520000000000003,"velocity":0.5354330708661418,"duration":0.0600000000000005},{"name":"B1","midi":35,"time":11.520000000000003,"velocity":0.7874015748031497,"duration":0.240000000000002},{"name":"F#3","midi":54,"time":11.640000000000004,"velocity":0.7874015748031497,"duration":0.0600000000000005},{"name":"F#3","midi":54,"time":11.760000000000005,"velocity":0.5354330708661418,"duration":0.0600000000000005},{"name":"F#3","midi":54,"time":11.880000000000006,"velocity":0.7874015748031497,"duration":0.0600000000000005},{"name":"B1","midi":35,"time":12.000000000000007,"velocity":0.7874015748031497,"duration":0.240000000000002},{"name":"D#2","midi":39,"time":12.000000000000007,"velocity":0.7874015748031497,"duration":0.240000000000002},{"name":"F#3","midi":54,"time":12.000000000000007,"velocity":0.5354330708661418,"duration":0.0600000000000005},{"name":"F#3","midi":54,"time":12.120000000000008,"velocity":0.7874015748031497,"duration":0.0600000000000005},{"name":"F#3","midi":54,"time":12.240000000000009,"velocity":0.5354330708661418,"duration":0.0600000000000005},{"name":"F#3","midi":54,"time":12.36000000000001,"velocity":0.7874015748031497,"duration":0.0600000000000005},{"name":"F#3","midi":54,"time":12.480000000000011,"velocity":0.5354330708661418,"duration":0.0600000000000005},{"name":"B1","midi":35,"time":12.480000000000011,"velocity":0.7874015748031497,"duration":0.240000000000002},{"name":"F#3","midi":54,"time":12.600000000000012,"velocity":0.7874015748031497,"duration":0.0600000000000005},{"name":"F#3","midi":54,"time":12.720000000000013,"velocity":0.5354330708661418,"duration":0.0600000000000005},{"name":"F#3","midi":54,"time":12.840000000000014,"velocity":0.7874015748031497,"duration":0.0600000000000005},{"name":"B1","midi":35,"time":12.960000000000015,"velocity":0.7874015748031497,"duration":0.2400000000000002},{"name":"D#2","midi":39,"time":12.960000000000015,"velocity":0.7874015748031497,"duration":0.2400000000000002},{"name":"F#3","midi":54,"time":12.960000000000015,"velocity":0.5354330708661418,"duration":0.02999999999999936},{"name":"F#3","midi":54,"time":12.990000000000014,"velocity":0.5354330708661418,"duration":0.02999999999999936},{"name":"F#3","midi":54,"time":13.080000000000014,"velocity":0.7874015748031497,"duration":0.0600000000000005},{"name":"F#3","midi":54,"time":13.200000000000015,"velocity":0.5354330708661418,"duration":0.0600000000000005},{"name":"F#3","midi":54,"time":13.320000000000016,"velocity":0.7874015748031497,"duration":0.0600000000000005},{"name":"F#3","midi":54,"time":13.440000000000017,"velocity":0.5354330708661418,"duration":0.0600000000000005},{"name":"B1","midi":35,"time":13.440000000000017,"velocity":0.7874015748031497,"duration":0.240000000000002},{"name":"F#3","midi":54,"time":13.560000000000018,"velocity":0.7874015748031497,"duration":0.0600000000000005},{"name":"F#3","midi":54,"time":13.68000000000002,"velocity":0.5354330708661418,"duration":0.0600000000000005},{"name":"F#3","midi":54,"time":13.80000000000002,"velocity":0.7874015748031497,"duration":0.0600000000000005},{"name":"B1","midi":35,"time":13.920000000000021,"velocity":0.7874015748031497,"duration":0.240000000000002},{"name":"D#2","midi":39,"time":13.920000000000021,"velocity":0.7874015748031497,"duration":0.240000000000002},{"name":"F#3","midi":54,"time":13.920000000000021,"velocity":0.5354330708661418,"duration":0.0600000000000005},{"name":"F#3","midi":54,"time":14.040000000000022,"velocity":0.7874015748031497,"duration":0.0600000000000005},{"name":"F#3","midi":54,"time":14.160000000000023,"velocity":0.5354330708661418,"duration":0.0600000000000005},{"name":"F#3","midi":54,"time":14.280000000000024,"velocity":0.7874015748031497,"duration":0.0600000000000005},{"name":"F#3","midi":54,"time":14.400000000000025,"velocity":0.5354330708661418,"duration":0.0600000000000005},{"name":"B1","midi":35,"time":14.400000000000025,"velocity":0.7874015748031497,"duration":0.240000000000002},{"name":"F#3","midi":54,"time":14.520000000000026,"velocity":0.7874015748031497,"duration":0.0600000000000005},{"name":"F#3","midi":54,"time":14.640000000000027,"velocity":0.5354330708661418,"duration":0.0600000000000005},{"name":"F#3","midi":54,"time":14.760000000000028,"velocity":0.7874015748031497,"duration":0.0600000000000005},{"name":"B1","midi":35,"time":14.88000000000003,"velocity":0.7874015748031497,"duration":0.2400000000000002},{"name":"D#2","midi":39,"time":14.88000000000003,"velocity":0.7874015748031497,"duration":0.2400000000000002},{"name":"F#3","midi":54,"time":14.88000000000003,"velocity":0.5354330708661418,"duration":0.02999999999999936},{"name":"F#3","midi":54,"time":14.910000000000029,"velocity":0.5354330708661418,"duration":0.02999999999999936},{"name":"F#3","midi":54,"time":15.000000000000028,"velocity":0.7874015748031497,"duration":0.0600000000000005},{"name":"F#3","midi":54,"time":15.12000000000003,"velocity":0.5354330708661418,"duration":0.0600000000000005},{"name":"F#3","midi":54,"time":15.24000000000003,"velocity":0.7874015748031497,"duration":0.0600000000000005},{"name":"F#3","midi":54,"time":15.360000000000031,"velocity":0.5354330708661418,"duration":0.0600000000000005},{"name":"B1","midi":35,"time":15.360000000000031,"velocity":0.7874015748031497,"duration":0.240000000000002},{"name":"F#3","midi":54,"time":15.480000000000032,"velocity":0.7874015748031497,"duration":0.0600000000000005},{"name":"F#3","midi":54,"time":15.600000000000033,"velocity":0.5354330708661418,"duration":0.0600000000000005},{"name":"F#3","midi":54,"time":15.720000000000034,"velocity":0.7874015748031497,"duration":0.0600000000000005},{"name":"B1","midi":35,"time":15.840000000000035,"velocity":0.7874015748031497,"duration":0.23999999999999844},{"name":"D#2","midi":39,"time":15.840000000000035,"velocity":0.7874015748031497,"duration":0.23999999999999844},{"name":"F#3","midi":54,"time":15.840000000000035,"velocity":0.5354330708661418,"duration":0.0600000000000005},{"name":"F#3","midi":54,"time":15.960000000000036,"velocity":0.7874015748031497,"duration":0.05999999999999872},{"name":"F#3","midi":54,"time":16.080000000000034,"velocity":0.5354330708661418,"duration":0.05999999999999872},{"name":"F#3","midi":54,"time":16.20000000000003,"velocity":0.7874015748031497,"duration":0.05999999999999872},{"name":"F#3","midi":54,"time":16.32000000000003,"velocity":0.5354330708661418,"duration":0.05999999999999872},{"name":"B1","midi":35,"time":16.32000000000003,"velocity":0.7874015748031497,"duration":0.23999999999999488},{"name":"F#3","midi":54,"time":16.440000000000026,"velocity":0.7874015748031497,"duration":0.05999999999999872},{"name":"F#3","midi":54,"time":16.560000000000024,"velocity":0.5354330708661418,"duration":0.05999999999999872},{"name":"F#3","midi":54,"time":16.68000000000002,"velocity":0.7874015748031497,"duration":0.05999999999999872},{"name":"B1","midi":35,"time":16.80000000000002,"velocity":0.7874015748031497,"duration":0.23999999999999844},{"name":"D#2","midi":39,"time":16.80000000000002,"velocity":0.7874015748031497,"duration":0.23999999999999844},{"name":"F#3","midi":54,"time":16.80000000000002,"velocity":0.5354330708661418,"duration":0.030000000000001137},{"name":"F#3","midi":54,"time":16.83000000000002,"velocity":0.5354330708661418,"duration":0.030000000000001137},{"name":"F#3","midi":54,"time":16.92000000000002,"velocity":0.7874015748031497,"duration":0.05999999999999872},{"name":"F#3","midi":54,"time":17.040000000000017,"velocity":0.5354330708661418,"duration":0.05999999999999872},{"name":"F#3","midi":54,"time":17.160000000000014,"velocity":0.7874015748031497,"duration":0.05999999999999872},{"name":"F#3","midi":54,"time":17.280000000000012,"velocity":0.5354330708661418,"duration":0.05999999999999872},{"name":"B1","midi":35,"time":17.280000000000012,"velocity":0.7874015748031497,"duration":0.23999999999999488},{"name":"F#3","midi":54,"time":17.40000000000001,"velocity":0.7874015748031497,"duration":0.05999999999999872},{"name":"F#3","midi":54,"time":17.520000000000007,"velocity":0.5354330708661418,"duration":0.05999999999999872},{"name":"F#3","midi":54,"time":17.640000000000004,"velocity":0.7874015748031497,"duration":0.05999999999999872},{"name":"B1","midi":35,"time":17.76,"velocity":0.7874015748031497,"duration":0.23999999999999488},{"name":"D#2","midi":39,"time":17.76,"velocity":0.7874015748031497,"duration":0.23999999999999488},{"name":"F#3","midi":54,"time":17.76,"velocity":0.5354330708661418,"duration":0.05999999999999872},{"name":"F#3","midi":54,"time":17.88,"velocity":0.7874015748031497,"duration":0.05999999999999872},{"name":"F#3","midi":54,"time":17.999999999999996,"velocity":0.5354330708661418,"duration":0.05999999999999872},{"name":"F#3","midi":54,"time":18.119999999999994,"velocity":0.7874015748031497,"duration":0.05999999999999872},{"name":"F#3","midi":54,"time":18.23999999999999,"velocity":0.5354330708661418,"duration":0.05999999999999872},{"name":"B1","midi":35,"time":18.23999999999999,"velocity":0.7874015748031497,"duration":0.23999999999999488},{"name":"F#3","midi":54,"time":18.35999999999999,"velocity":0.7874015748031497,"duration":0.05999999999999872},{"name":"F#3","midi":54,"time":18.479999999999986,"velocity":0.5354330708661418,"duration":0.05999999999999872},{"name":"F#3","midi":54,"time":18.599999999999984,"velocity":0.7874015748031497,"duration":0.05999999999999872},{"name":"B1","midi":35,"time":18.71999999999998,"velocity":0.7874015748031497,"duration":0.23999999999999844},{"name":"D#2","midi":39,"time":18.71999999999998,"velocity":0.7874015748031497,"duration":0.23999999999999844},{"name":"F#3","midi":54,"time":18.71999999999998,"velocity":0.5354330708661418,"duration":0.030000000000001137},{"name":"F#3","midi":54,"time":18.749999999999982,"velocity":0.5354330708661418,"duration":0.030000000000001137},{"name":"F#3","midi":54,"time":18.839999999999982,"velocity":0.7874015748031497,"duration":0.05999999999999872},{"name":"F#3","midi":54,"time":18.95999999999998,"velocity":0.5354330708661418,"duration":0.05999999999999872},{"name":"F#3","midi":54,"time":19.079999999999977,"velocity":0.7874015748031497,"duration":0.05999999999999872},{"name":"F#3","midi":54,"time":19.199999999999974,"velocity":0.5354330708661418,"duration":0.05999999999999872},{"name":"B1","midi":35,"time":19.199999999999974,"velocity":0.7874015748031497,"duration":0.23999999999999488},{"name":"F#3","midi":54,"time":19.319999999999972,"velocity":0.7874015748031497,"duration":0.05999999999999872},{"name":"F#3","midi":54,"time":19.43999999999997,"velocity":0.5354330708661418,"duration":0.05999999999999872},{"name":"F#3","midi":54,"time":19.559999999999967,"velocity":0.7874015748031497,"duration":0.05999999999999872},{"name":"F#3","midi":54,"time":19.679999999999964,"velocity":0.5354330708661418,"duration":0.05999999999999872},{"name":"D#2","midi":39,"time":19.679999999999964,"velocity":0.7874015748031497,"duration":0.23999999999999488},{"name":"B1","midi":35,"time":19.679999999999964,"velocity":0.7874015748031497,"duration":0.23999999999999488},{"name":"F#3","midi":54,"time":19.79999999999996,"velocity":0.7874015748031497,"duration":0.05999999999999872},{"name":"F#3","midi":54,"time":19.91999999999996,"velocity":0.5354330708661418,"duration":0.05999999999999872},{"name":"F#3","midi":54,"time":20.039999999999957,"velocity":0.7874015748031497,"duration":0.05999999999999872},{"name":"F#3","midi":54,"time":20.159999999999954,"velocity":0.5354330708661418,"duration":0.05999999999999872},{"name":"B1","midi":35,"time":20.159999999999954,"velocity":0.7874015748031497,"duration":0.23999999999999488},{"name":"F#3","midi":54,"time":20.27999999999995,"velocity":0.7874015748031497,"duration":0.05999999999999872},{"name":"F#3","midi":54,"time":20.39999999999995,"velocity":0.5354330708661418,"duration":0.05999999999999872},{"name":"F#3","midi":54,"time":20.519999999999946,"velocity":0.7874015748031497,"duration":0.05999999999999872},{"name":"F#3","midi":54,"time":20.639999999999944,"velocity":0.5354330708661418,"duration":0.030000000000001137},{"name":"D#2","midi":39,"time":20.639999999999944,"velocity":0.7874015748031497,"duration":0.23999999999999844},{"name":"B1","midi":35,"time":20.639999999999944,"velocity":0.7874015748031497,"duration":0.23999999999999844},{"name":"F#3","midi":54,"time":20.669999999999945,"velocity":0.5354330708661418,"duration":0.030000000000001137},{"name":"F#3","midi":54,"time":20.759999999999945,"velocity":0.7874015748031497,"duration":0.05999999999999872},{"name":"F#3","midi":54,"time":20.879999999999942,"velocity":0.5354330708661418,"duration":0.05999999999999872},{"name":"F#3","midi":54,"time":20.99999999999994,"velocity":0.7874015748031497,"duration":0.05999999999999872},{"name":"F#3","midi":54,"time":21.119999999999937,"velocity":0.5354330708661418,"duration":0.05999999999999872},{"name":"B1","midi":35,"time":21.119999999999937,"velocity":0.7874015748031497,"duration":0.23999999999999488},{"name":"F#3","midi":54,"time":21.239999999999934,"velocity":0.7874015748031497,"duration":0.05999999999999872},{"name":"F#3","midi":54,"time":21.359999999999932,"velocity":0.5354330708661418,"duration":0.05999999999999872},{"name":"F#3","midi":54,"time":21.47999999999993,"velocity":0.7874015748031497,"duration":0.05999999999999872},{"name":"F#3","midi":54,"time":21.599999999999927,"velocity":0.5354330708661418,"duration":0.030000000000001137},{"name":"F#3","midi":54,"time":21.629999999999928,"velocity":0.5354330708661418,"duration":0.030000000000001137},{"name":"F#3","midi":54,"time":21.719999999999928,"velocity":0.7874015748031497,"duration":0.05999999999999872},{"name":"F#3","midi":54,"time":21.839999999999925,"velocity":0.5039370078740157,"duration":0.05999999999999872},{"name":"F#3","midi":54,"time":21.959999999999923,"velocity":0.6929133858267716,"duration":0.05999999999999872},{"name":"F#2","midi":42,"time":23.03999999999992,"velocity":0.6929133858267716,"duration":0.120000000000001},{"name":"C2","midi":36,"time":23.03999999999992,"velocity":0.9133858267716536,"duration":0.120000000000001},{"name":"F#2","midi":42,"time":23.279999999999923,"velocity":0.5984251968503937,"duration":0.120000000000001},{"name":"D2","midi":38,"time":23.519999999999925,"velocity":0.5354330708661418,"duration":0.120000000000001},{"name":"F#2","midi":42,"time":23.519999999999925,"velocity":0.6929133858267716,"duration":0.120000000000001},{"name":"D#2","midi":39,"time":23.519999999999925,"velocity":0.6929133858267716,"duration":0.120000000000001},{"name":"C2","midi":36,"time":23.519999999999925,"velocity":0.9133858267716536,"duration":0.120000000000001},{"name":"F#2","midi":42,"time":23.759999999999927,"velocity":0.5984251968503937,"duration":0.120000000000001},{"name":"F#2","midi":42,"time":23.99999999999993,"velocity":0.6929133858267716,"duration":0.120000000000001},{"name":"C2","midi":36,"time":23.99999999999993,"velocity":0.9133858267716536,"duration":0.120000000000001},{"name":"F#2","midi":42,"time":24.23999999999993,"velocity":0.5984251968503937,"duration":0.120000000000001},{"name":"D2","midi":38,"time":24.479999999999933,"velocity":0.5354330708661418,"duration":0.120000000000001},{"name":"F#2","midi":42,"time":24.479999999999933,"velocity":0.6929133858267716,"duration":0.120000000000001},{"name":"D#2","midi":39,"time":24.479999999999933,"velocity":0.6929133858267716,"duration":0.120000000000001},{"name":"C2","midi":36,"time":24.479999999999933,"velocity":0.9133858267716536,"duration":0.120000000000001},{"name":"F#2","midi":42,"time":24.719999999999935,"velocity":0.5984251968503937,"duration":0.120000000000001},{"name":"C2","midi":36,"time":24.959999999999937,"velocity":0.9133858267716536,"duration":0.120000000000001},{"name":"F#2","midi":42,"time":24.959999999999937,"velocity":0.6929133858267716,"duration":0.120000000000001},{"name":"F#2","midi":42,"time":25.19999999999994,"velocity":0.5984251968503937,"duration":0.120000000000001},{"name":"D2","midi":38,"time":25.43999999999994,"velocity":0.5354330708661418,"duration":0.120000000000001},{"name":"F#2","midi":42,"time":25.43999999999994,"velocity":0.6929133858267716,"duration":0.120000000000001},{"name":"D#2","midi":39,"time":25.43999999999994,"velocity":0.6929133858267716,"duration":0.120000000000001},{"name":"C2","midi":36,"time":25.43999999999994,"velocity":0.9133858267716536,"duration":0.120000000000001},{"name":"F#2","midi":42,"time":25.679999999999943,"velocity":0.5984251968503937,"duration":0.120000000000001},{"name":"F#2","midi":42,"time":25.919999999999945,"velocity":0.6929133858267716,"duration":0.120000000000001},{"name":"C2","midi":36,"time":25.919999999999945,"velocity":0.9133858267716536,"duration":0.120000000000001},{"name":"F#2","midi":42,"time":26.159999999999947,"velocity":0.5984251968503937,"duration":0.120000000000001},{"name":"D2","midi":38,"time":26.39999999999995,"velocity":0.5354330708661418,"duration":0.120000000000001},{"name":"F#2","midi":42,"time":26.39999999999995,"velocity":0.6929133858267716,"duration":0.120000000000001},{"name":"D#2","midi":39,"time":26.39999999999995,"velocity":0.6929133858267716,"duration":0.120000000000001},{"name":"C2","midi":36,"time":26.39999999999995,"velocity":0.9133858267716536,"duration":0.120000000000001},{"name":"F#2","midi":42,"time":26.63999999999995,"velocity":0.5984251968503937,"duration":0.120000000000001},{"name":"C2","midi":36,"time":26.879999999999953,"velocity":0.9133858267716536,"duration":0.120000000000001},{"name":"F#2","midi":42,"time":26.879999999999953,"velocity":0.6929133858267716,"duration":0.120000000000001},{"name":"F#2","midi":42,"time":27.119999999999955,"velocity":0.5984251968503937,"duration":0.120000000000001},{"name":"D2","midi":38,"time":27.359999999999957,"velocity":0.5354330708661418,"duration":0.120000000000001},{"name":"F#2","midi":42,"time":27.359999999999957,"velocity":0.6929133858267716,"duration":0.120000000000001},{"name":"D#2","midi":39,"time":27.359999999999957,"velocity":0.6929133858267716,"duration":0.120000000000001},{"name":"C2","midi":36,"time":27.359999999999957,"velocity":0.9133858267716536,"duration":0.120000000000001},{"name":"F#2","midi":42,"time":27.59999999999996,"velocity":0.5984251968503937,"duration":0.120000000000001},{"name":"F#2","midi":42,"time":27.83999999999996,"velocity":0.6929133858267716,"duration":0.120000000000001},{"name":"C2","midi":36,"time":27.83999999999996,"velocity":0.9133858267716536,"duration":0.120000000000001},{"name":"F#2","midi":42,"time":28.079999999999963,"velocity":0.5984251968503937,"duration":0.120000000000001},{"name":"D2","midi":38,"time":28.319999999999965,"velocity":0.5354330708661418,"duration":0.120000000000001},{"name":"F#2","midi":42,"time":28.319999999999965,"velocity":0.6929133858267716,"duration":0.120000000000001},{"name":"D#2","midi":39,"time":28.319999999999965,"velocity":0.6929133858267716,"duration":0.120000000000001},{"name":"C2","midi":36,"time":28.319999999999965,"velocity":0.9133858267716536,"duration":0.120000000000001},{"name":"F#2","midi":42,"time":28.559999999999967,"velocity":0.5984251968503937,"duration":0.120000000000001},{"name":"C2","midi":36,"time":28.79999999999997,"velocity":0.9133858267716536,"duration":0.120000000000001},{"name":"F#2","midi":42,"time":28.79999999999997,"velocity":0.6929133858267716,"duration":0.120000000000001},{"name":"F#2","midi":42,"time":29.03999999999997,"velocity":0.5984251968503937,"duration":0.120000000000001},{"name":"D2","midi":38,"time":29.279999999999973,"velocity":0.5354330708661418,"duration":0.120000000000001},{"name":"F#2","midi":42,"time":29.279999999999973,"velocity":0.6929133858267716,"duration":0.120000000000001},{"name":"D#2","midi":39,"time":29.279999999999973,"velocity":0.6929133858267716,"duration":0.120000000000001},{"name":"C2","midi":36,"time":29.279999999999973,"velocity":0.9133858267716536,"duration":0.120000000000001},{"name":"F#2","midi":42,"time":29.519999999999975,"velocity":0.5984251968503937,"duration":0.120000000000001},{"name":"F#2","midi":42,"time":29.759999999999977,"velocity":0.6929133858267716,"duration":0.120000000000001},{"name":"C2","midi":36,"time":29.759999999999977,"velocity":0.9133858267716536,"duration":0.120000000000001},{"name":"F#2","midi":42,"time":29.99999999999998,"velocity":0.5984251968503937,"duration":0.120000000000001},{"name":"D2","midi":38,"time":30.23999999999998,"velocity":0.5354330708661418,"duration":0.120000000000001},{"name":"F#2","midi":42,"time":30.23999999999998,"velocity":0.6929133858267716,"duration":0.120000000000001},{"name":"D#2","midi":39,"time":30.23999999999998,"velocity":0.6929133858267716,"duration":0.120000000000001},{"name":"C2","midi":36,"time":30.23999999999998,"velocity":0.9133858267716536,"duration":0.120000000000001},{"name":"F#2","midi":42,"time":30.479999999999983,"velocity":0.5984251968503937,"duration":0.120000000000001},{"name":"C2","midi":36,"time":30.719999999999985,"velocity":0.9133858267716536,"duration":0.120000000000001},{"name":"F#2","midi":42,"time":30.719999999999985,"velocity":0.6929133858267716,"duration":0.120000000000001},{"name":"F#2","midi":42,"time":30.959999999999987,"velocity":0.5984251968503937,"duration":0.120000000000001},{"name":"D2","midi":38,"time":31.19999999999999,"velocity":0.5354330708661418,"duration":0.120000000000001},{"name":"F#2","midi":42,"time":31.19999999999999,"velocity":0.6929133858267716,"duration":0.120000000000001},{"name":"D#2","midi":39,"time":31.19999999999999,"velocity":0.6929133858267716,"duration":0.120000000000001},{"name":"C2","midi":36,"time":31.19999999999999,"velocity":0.9133858267716536,"duration":0.120000000000001},{"name":"F#2","midi":42,"time":31.43999999999999,"velocity":0.5984251968503937,"duration":0.120000000000001},{"name":"F#2","midi":42,"time":31.679999999999993,"velocity":0.6929133858267716,"duration":0.120000000000001},{"name":"C2","midi":36,"time":31.679999999999993,"velocity":0.9133858267716536,"duration":0.120000000000001},{"name":"F#2","midi":42,"time":31.919999999999995,"velocity":0.5984251968503937,"duration":0.11999999999999744},{"name":"D2","midi":38,"time":32.15999999999999,"velocity":0.5354330708661418,"duration":0.11999999999999744},{"name":"F#2","midi":42,"time":32.15999999999999,"velocity":0.6929133858267716,"duration":0.11999999999999744},{"name":"D#2","midi":39,"time":32.15999999999999,"velocity":0.6929133858267716,"duration":0.11999999999999744},{"name":"C2","midi":36,"time":32.15999999999999,"velocity":0.9133858267716536,"duration":0.11999999999999744},{"name":"F#2","midi":42,"time":32.399999999999984,"velocity":0.5984251968503937,"duration":0.11999999999999744},{"name":"C2","midi":36,"time":32.63999999999998,"velocity":0.9133858267716536,"duration":0.11999999999999744},{"name":"F#2","midi":42,"time":32.63999999999998,"velocity":0.6929133858267716,"duration":0.11999999999999744},{"name":"F#2","midi":42,"time":32.879999999999974,"velocity":0.5984251968503937,"duration":0.11999999999999744},{"name":"D2","midi":38,"time":33.11999999999997,"velocity":0.5354330708661418,"duration":0.11999999999999744},{"name":"F#2","midi":42,"time":33.11999999999997,"velocity":0.6929133858267716,"duration":0.11999999999999744},{"name":"D#2","midi":39,"time":33.11999999999997,"velocity":0.6929133858267716,"duration":0.11999999999999744},{"name":"C2","midi":36,"time":33.11999999999997,"velocity":0.9133858267716536,"duration":0.11999999999999744},{"name":"F#2","midi":42,"time":33.359999999999964,"velocity":0.5984251968503937,"duration":0.11999999999999744},{"name":"F#2","midi":42,"time":33.59999999999996,"velocity":0.6929133858267716,"duration":0.11999999999999744},{"name":"C2","midi":36,"time":33.59999999999996,"velocity":0.9133858267716536,"duration":0.11999999999999744},{"name":"F#2","midi":42,"time":33.839999999999954,"velocity":0.5984251968503937,"duration":0.11999999999999744},{"name":"D2","midi":38,"time":34.07999999999995,"velocity":0.5354330708661418,"duration":0.11999999999999744},{"name":"F#2","midi":42,"time":34.07999999999995,"velocity":0.6929133858267716,"duration":0.11999999999999744},{"name":"D#2","midi":39,"time":34.07999999999995,"velocity":0.6929133858267716,"duration":0.11999999999999744},{"name":"C2","midi":36,"time":34.07999999999995,"velocity":0.9133858267716536,"duration":0.11999999999999744},{"name":"F#2","midi":42,"time":34.31999999999994,"velocity":0.5984251968503937,"duration":0.11999999999999744},{"name":"C2","midi":36,"time":34.55999999999994,"velocity":0.9133858267716536,"duration":0.11999999999999744},{"name":"F#2","midi":42,"time":34.55999999999994,"velocity":0.6929133858267716,"duration":0.11999999999999744},{"name":"F#2","midi":42,"time":34.79999999999993,"velocity":0.5984251968503937,"duration":0.11999999999999744},{"name":"D2","midi":38,"time":35.03999999999993,"velocity":0.5354330708661418,"duration":0.11999999999999744},{"name":"F#2","midi":42,"time":35.03999999999993,"velocity":0.6929133858267716,"duration":0.11999999999999744},{"name":"D#2","midi":39,"time":35.03999999999993,"velocity":0.6929133858267716,"duration":0.11999999999999744},{"name":"C2","midi":36,"time":35.03999999999993,"velocity":0.9133858267716536,"duration":0.11999999999999744},{"name":"F#2","midi":42,"time":35.27999999999992,"velocity":0.5984251968503937,"duration":0.11999999999999744},{"name":"F#2","midi":42,"time":35.51999999999992,"velocity":0.6929133858267716,"duration":0.11999999999999744},{"name":"C2","midi":36,"time":35.51999999999992,"velocity":0.9133858267716536,"duration":0.11999999999999744},{"name":"F#2","midi":42,"time":35.75999999999991,"velocity":0.5984251968503937,"duration":0.11999999999999744},{"name":"D2","midi":38,"time":35.99999999999991,"velocity":0.5354330708661418,"duration":0.11999999999999744},{"name":"F#2","midi":42,"time":35.99999999999991,"velocity":0.6929133858267716,"duration":0.11999999999999744},{"name":"D#2","midi":39,"time":35.99999999999991,"velocity":0.6929133858267716,"duration":0.11999999999999744},{"name":"C2","midi":36,"time":35.99999999999991,"velocity":0.9133858267716536,"duration":0.11999999999999744},{"name":"F#2","midi":42,"time":36.2399999999999,"velocity":0.5984251968503937,"duration":0.11999999999999744},{"name":"C2","midi":36,"time":36.4799999999999,"velocity":0.9133858267716536,"duration":0.11999999999999744},{"name":"F#2","midi":42,"time":36.4799999999999,"velocity":0.6929133858267716,"duration":0.11999999999999744},{"name":"F#2","midi":42,"time":36.71999999999989,"velocity":0.5984251968503937,"duration":0.11999999999999744},{"name":"D2","midi":38,"time":36.95999999999989,"velocity":0.5354330708661418,"duration":0.11999999999999744},{"name":"C2","midi":36,"time":36.95999999999989,"velocity":0.9133858267716536,"duration":0.11999999999999744},{"name":"D#2","midi":39,"time":36.95999999999989,"velocity":0.6929133858267716,"duration":0.11999999999999744},{"name":"F#2","midi":42,"time":36.95999999999989,"velocity":0.6929133858267716,"duration":0.11999999999999744},{"name":"F#2","midi":42,"time":37.19999999999988,"velocity":0.5984251968503937,"duration":0.11999999999999744},{"name":"C2","midi":36,"time":37.43999999999988,"velocity":0.9133858267716536,"duration":0.11999999999999744},{"name":"F#2","midi":42,"time":37.43999999999988,"velocity":0.6929133858267716,"duration":0.11999999999999744},{"name":"F#2","midi":42,"time":37.67999999999987,"velocity":0.5984251968503937,"duration":0.11999999999999744},{"name":"D2","midi":38,"time":37.91999999999987,"velocity":0.5354330708661418,"duration":0.11999999999999744},{"name":"C2","midi":36,"time":37.91999999999987,"velocity":0.9133858267716536,"duration":0.11999999999999744},{"name":"D#2","midi":39,"time":37.91999999999987,"velocity":0.6929133858267716,"duration":0.11999999999999744},{"name":"F#2","midi":42,"time":37.91999999999987,"velocity":0.6929133858267716,"duration":0.11999999999999744},{"name":"F#2","midi":42,"time":38.15999999999986,"velocity":0.5039370078740157,"duration":0.11999999999999744},{"name":"F#2","midi":42,"time":38.39999999999986,"velocity":0.6929133858267716,"duration":0.11999999999999744},{"name":"C2","midi":36,"time":38.39999999999986,"velocity":0.9133858267716536,"duration":0.11999999999999744},{"name":"F#2","midi":42,"time":38.63999999999985,"velocity":0.5984251968503937,"duration":0.11999999999999744},{"name":"D2","midi":38,"time":38.879999999999846,"velocity":0.5354330708661418,"duration":0.11999999999999744},{"name":"F#2","midi":42,"time":38.879999999999846,"velocity":0.6929133858267716,"duration":0.11999999999999744},{"name":"D#2","midi":39,"time":38.879999999999846,"velocity":0.6929133858267716,"duration":0.11999999999999744},{"name":"C2","midi":36,"time":38.879999999999846,"velocity":0.9133858267716536,"duration":0.11999999999999744},{"name":"F#2","midi":42,"time":39.11999999999984,"velocity":0.5984251968503937,"duration":0.11999999999999744},{"name":"F#2","midi":42,"time":39.359999999999836,"velocity":0.6929133858267716,"duration":0.11999999999999744},{"name":"C2","midi":36,"time":39.359999999999836,"velocity":0.9133858267716536,"duration":0.11999999999999744},{"name":"F#2","midi":42,"time":39.59999999999983,"velocity":0.5984251968503937,"duration":0.11999999999999744},{"name":"D2","midi":38,"time":39.839999999999826,"velocity":0.5354330708661418,"duration":0.11999999999999744},{"name":"F#2","midi":42,"time":39.839999999999826,"velocity":0.6929133858267716,"duration":0.11999999999999744},{"name":"D#2","midi":39,"time":39.839999999999826,"velocity":0.6929133858267716,"duration":0.11999999999999744},{"name":"C2","midi":36,"time":39.839999999999826,"velocity":0.9133858267716536,"duration":0.11999999999999744},{"name":"F#2","midi":42,"time":40.07999999999982,"velocity":0.5984251968503937,"duration":0.11999999999999744},{"name":"C2","midi":36,"time":40.319999999999816,"velocity":0.9133858267716536,"duration":0.11999999999999744},{"name":"F#2","midi":42,"time":40.319999999999816,"velocity":0.6929133858267716,"duration":0.11999999999999744},{"name":"F#2","midi":42,"time":40.55999999999981,"velocity":0.5984251968503937,"duration":0.11999999999999744},{"name":"D2","midi":38,"time":40.799999999999805,"velocity":0.5354330708661418,"duration":0.11999999999999744},{"name":"F#2","midi":42,"time":40.799999999999805,"velocity":0.6929133858267716,"duration":0.11999999999999744},{"name":"D#2","midi":39,"time":40.799999999999805,"velocity":0.6929133858267716,"duration":0.11999999999999744},{"name":"C2","midi":36,"time":40.799999999999805,"velocity":0.9133858267716536,"duration":0.11999999999999744},{"name":"F#2","midi":42,"time":41.0399999999998,"velocity":0.5984251968503937,"duration":0.11999999999999744},{"name":"F#2","midi":42,"time":41.279999999999795,"velocity":0.6929133858267716,"duration":0.11999999999999744},{"name":"C2","midi":36,"time":41.279999999999795,"velocity":0.9133858267716536,"duration":0.11999999999999744},{"name":"F#2","midi":42,"time":41.51999999999979,"velocity":0.5984251968503937,"duration":0.11999999999999744},{"name":"D2","midi":38,"time":41.759999999999785,"velocity":0.5354330708661418,"duration":0.11999999999999744},{"name":"F#2","midi":42,"time":41.759999999999785,"velocity":0.6929133858267716,"duration":0.11999999999999744},{"name":"D#2","midi":39,"time":41.759999999999785,"velocity":0.6929133858267716,"duration":0.11999999999999744},{"name":"C2","midi":36,"time":41.759999999999785,"velocity":0.9133858267716536,"duration":0.11999999999999744},{"name":"F#2","midi":42,"time":41.99999999999978,"velocity":0.5984251968503937,"duration":0.11999999999999744},{"name":"C2","midi":36,"time":42.239999999999775,"velocity":0.9133858267716536,"duration":0.11999999999999744},{"name":"F#2","midi":42,"time":42.239999999999775,"velocity":0.6929133858267716,"duration":0.11999999999999744},{"name":"F#2","midi":42,"time":42.47999999999977,"velocity":0.5984251968503937,"duration":0.11999999999999744},{"name":"D2","midi":38,"time":42.719999999999764,"velocity":0.5354330708661418,"duration":0.11999999999999744},{"name":"F#2","midi":42,"time":42.719999999999764,"velocity":0.6929133858267716,"duration":0.11999999999999744},{"name":"D#2","midi":39,"time":42.719999999999764,"velocity":0.6929133858267716,"duration":0.11999999999999744},{"name":"C2","midi":36,"time":42.719999999999764,"velocity":0.9133858267716536,"duration":0.11999999999999744},{"name":"F#2","midi":42,"time":42.95999999999976,"velocity":0.5984251968503937,"duration":0.11999999999999744},{"name":"F#2","midi":42,"time":43.199999999999754,"velocity":0.6929133858267716,"duration":0.11999999999999744},{"name":"C2","midi":36,"time":43.199999999999754,"velocity":0.9133858267716536,"duration":0.11999999999999744},{"name":"F#2","midi":42,"time":43.43999999999975,"velocity":0.5984251968503937,"duration":0.11999999999999744},{"name":"D2","midi":38,"time":43.679999999999744,"velocity":0.5354330708661418,"duration":0.11999999999999744},{"name":"F#2","midi":42,"time":43.679999999999744,"velocity":0.6929133858267716,"duration":0.11999999999999744},{"name":"D#2","midi":39,"time":43.679999999999744,"velocity":0.6929133858267716,"duration":0.11999999999999744},{"name":"C2","midi":36,"time":43.679999999999744,"velocity":0.9133858267716536,"duration":0.11999999999999744},{"name":"F#2","midi":42,"time":43.91999999999974,"velocity":0.5984251968503937,"duration":0.11999999999999744},{"name":"C2","midi":36,"time":44.159999999999734,"velocity":0.9133858267716536,"duration":0.11999999999999744},{"name":"F#2","midi":42,"time":44.159999999999734,"velocity":0.6929133858267716,"duration":0.11999999999999744},{"name":"F#2","midi":42,"time":44.39999999999973,"velocity":0.5984251968503937,"duration":0.11999999999999744},{"name":"D2","midi":38,"time":44.63999999999972,"velocity":0.5354330708661418,"duration":0.11999999999999744},{"name":"F#2","midi":42,"time":44.63999999999972,"velocity":0.6929133858267716,"duration":0.11999999999999744},{"name":"D#2","midi":39,"time":44.63999999999972,"velocity":0.6929133858267716,"duration":0.11999999999999744},{"name":"C2","midi":36,"time":44.63999999999972,"velocity":0.9133858267716536,"duration":0.11999999999999744},{"name":"F#2","midi":42,"time":44.87999999999972,"velocity":0.5984251968503937,"duration":0.11999999999999744},{"name":"F#2","midi":42,"time":45.11999999999971,"velocity":0.6929133858267716,"duration":0.11999999999999744},{"name":"C2","midi":36,"time":45.11999999999971,"velocity":0.9133858267716536,"duration":0.11999999999999744},{"name":"F#2","midi":42,"time":45.35999999999971,"velocity":0.5984251968503937,"duration":0.11999999999999744},{"name":"D2","midi":38,"time":45.5999999999997,"velocity":0.5354330708661418,"duration":0.11999999999999744},{"name":"F#2","midi":42,"time":45.5999999999997,"velocity":0.6929133858267716,"duration":0.11999999999999744},{"name":"D#2","midi":39,"time":45.5999999999997,"velocity":0.6929133858267716,"duration":0.11999999999999744},{"name":"C2","midi":36,"time":45.5999999999997,"velocity":0.9133858267716536,"duration":0.11999999999999744},{"name":"F#2","midi":42,"time":45.8399999999997,"velocity":0.5984251968503937,"duration":0.11999999999999744},{"name":"C2","midi":36,"time":46.07999999999969,"velocity":0.9133858267716536,"duration":0.11999999999999744},{"name":"F#2","midi":42,"time":46.07999999999969,"velocity":0.6929133858267716,"duration":0.11999999999999744},{"name":"F#2","midi":42,"time":46.31999999999969,"velocity":0.5984251968503937,"duration":0.11999999999999744},{"name":"D2","midi":38,"time":46.55999999999968,"velocity":0.5354330708661418,"duration":0.11999999999999744},{"name":"F#2","midi":42,"time":46.55999999999968,"velocity":0.6929133858267716,"duration":0.11999999999999744},{"name":"D#2","midi":39,"time":46.55999999999968,"velocity":0.6929133858267716,"duration":0.11999999999999744},{"name":"C2","midi":36,"time":46.55999999999968,"velocity":0.9133858267716536,"duration":0.11999999999999744},{"name":"F#2","midi":42,"time":46.79999999999968,"velocity":0.5984251968503937,"duration":0.11999999999999744},{"name":"F#2","midi":42,"time":47.03999999999967,"velocity":0.6929133858267716,"duration":0.11999999999999744},{"name":"C2","midi":36,"time":47.03999999999967,"velocity":0.9133858267716536,"duration":0.11999999999999744},{"name":"F#2","midi":42,"time":47.27999999999967,"velocity":0.5984251968503937,"duration":0.11999999999999744},{"name":"D2","midi":38,"time":47.51999999999966,"velocity":0.5354330708661418,"duration":0.11999999999999744},{"name":"F#2","midi":42,"time":47.51999999999966,"velocity":0.6929133858267716,"duration":0.11999999999999744},{"name":"D#2","midi":39,"time":47.51999999999966,"velocity":0.6929133858267716,"duration":0.11999999999999744},{"name":"C2","midi":36,"time":47.51999999999966,"velocity":0.9133858267716536,"duration":0.11999999999999744},{"name":"F#2","midi":42,"time":47.75999999999966,"velocity":0.5984251968503937,"duration":0.11999999999999744},{"name":"C2","midi":36,"time":47.99999999999965,"velocity":0.9133858267716536,"duration":0.11999999999999744},{"name":"F#2","midi":42,"time":47.99999999999965,"velocity":0.6929133858267716,"duration":0.11999999999999744},{"name":"F#2","midi":42,"time":48.23999999999965,"velocity":0.5984251968503937,"duration":0.11999999999999744},{"name":"D2","midi":38,"time":48.47999999999964,"velocity":0.5354330708661418,"duration":0.11999999999999744},{"name":"F#2","midi":42,"time":48.47999999999964,"velocity":0.6929133858267716,"duration":0.11999999999999744},{"name":"D#2","midi":39,"time":48.47999999999964,"velocity":0.6929133858267716,"duration":0.11999999999999744},{"name":"C2","midi":36,"time":48.47999999999964,"velocity":0.9133858267716536,"duration":0.11999999999999744},{"name":"F#2","midi":42,"time":48.71999999999964,"velocity":0.5984251968503937,"duration":0.11999999999999744},{"name":"F#2","midi":42,"time":48.95999999999963,"velocity":0.6929133858267716,"duration":0.11999999999999744},{"name":"C2","midi":36,"time":48.95999999999963,"velocity":0.9133858267716536,"duration":0.11999999999999744},{"name":"F#2","midi":42,"time":49.199999999999626,"velocity":0.5984251968503937,"duration":0.11999999999999744},{"name":"D2","midi":38,"time":49.43999999999962,"velocity":0.5354330708661418,"duration":0.11999999999999744},{"name":"F#2","midi":42,"time":49.43999999999962,"velocity":0.6929133858267716,"duration":0.11999999999999744},{"name":"D#2","midi":39,"time":49.43999999999962,"velocity":0.6929133858267716,"duration":0.11999999999999744},{"name":"C2","midi":36,"time":49.43999999999962,"velocity":0.9133858267716536,"duration":0.11999999999999744},{"name":"F#2","midi":42,"time":49.679999999999616,"velocity":0.5984251968503937,"duration":0.11999999999999744},{"name":"C2","midi":36,"time":49.91999999999961,"velocity":0.9133858267716536,"duration":0.11999999999999744},{"name":"F#2","midi":42,"time":49.91999999999961,"velocity":0.6929133858267716,"duration":0.11999999999999744},{"name":"F#2","midi":42,"time":50.159999999999606,"velocity":0.5984251968503937,"duration":0.11999999999999744},{"name":"D2","midi":38,"time":50.3999999999996,"velocity":0.5354330708661418,"duration":0.11999999999999744},{"name":"F#2","midi":42,"time":50.3999999999996,"velocity":0.6929133858267716,"duration":0.11999999999999744},{"name":"D#2","midi":39,"time":50.3999999999996,"velocity":0.6929133858267716,"duration":0.11999999999999744},{"name":"C2","midi":36,"time":50.3999999999996,"velocity":0.9133858267716536,"duration":0.11999999999999744},{"name":"F#2","midi":42,"time":50.639999999999596,"velocity":0.5984251968503937,"duration":0.11999999999999744},{"name":"F#2","midi":42,"time":50.87999999999959,"velocity":0.6929133858267716,"duration":0.11999999999999744},{"name":"C2","midi":36,"time":50.87999999999959,"velocity":0.9133858267716536,"duration":0.11999999999999744},{"name":"F#2","midi":42,"time":51.119999999999585,"velocity":0.5984251968503937,"duration":0.11999999999999744},{"name":"D2","midi":38,"time":51.35999999999958,"velocity":0.5354330708661418,"duration":0.11999999999999744},{"name":"F#2","midi":42,"time":51.35999999999958,"velocity":0.6929133858267716,"duration":0.11999999999999744},{"name":"D#2","midi":39,"time":51.35999999999958,"velocity":0.6929133858267716,"duration":0.11999999999999744},{"name":"C2","midi":36,"time":51.35999999999958,"velocity":0.9133858267716536,"duration":0.11999999999999744},{"name":"F#2","midi":42,"time":51.599999999999575,"velocity":0.5984251968503937,"duration":0.11999999999999744},{"name":"C2","midi":36,"time":51.83999999999957,"velocity":0.9133858267716536,"duration":0.11999999999999744},{"name":"F#2","midi":42,"time":51.83999999999957,"velocity":0.6929133858267716,"duration":0.11999999999999744},{"name":"F#2","midi":42,"time":52.079999999999565,"velocity":0.5984251968503937,"duration":0.11999999999999744},{"name":"D2","midi":38,"time":52.31999999999956,"velocity":0.5354330708661418,"duration":0.11999999999999744},{"name":"C2","midi":36,"time":52.31999999999956,"velocity":0.9133858267716536,"duration":0.11999999999999744},{"name":"D#2","midi":39,"time":52.31999999999956,"velocity":0.6929133858267716,"duration":0.11999999999999744},{"name":"F#2","midi":42,"time":52.31999999999956,"velocity":0.6929133858267716,"duration":0.11999999999999744},{"name":"F#2","midi":42,"time":52.559999999999555,"velocity":0.5984251968503937,"duration":0.11999999999999744},{"name":"C2","midi":36,"time":52.79999999999955,"velocity":0.9133858267716536,"duration":0.11999999999999744},{"name":"F#2","midi":42,"time":52.79999999999955,"velocity":0.6929133858267716,"duration":0.11999999999999744},{"name":"F#2","midi":42,"time":53.039999999999544,"velocity":0.5984251968503937,"duration":0.11999999999999744},{"name":"D2","midi":38,"time":53.27999999999954,"velocity":0.5354330708661418,"duration":0.11999999999999744},{"name":"C2","midi":36,"time":53.27999999999954,"velocity":0.9133858267716536,"duration":0.11999999999999744},{"name":"D#2","midi":39,"time":53.27999999999954,"velocity":0.6929133858267716,"duration":0.11999999999999744},{"name":"F#2","midi":42,"time":53.27999999999954,"velocity":0.6929133858267716,"duration":0.11999999999999744},{"name":"F#2","midi":42,"time":53.519999999999534,"velocity":0.5039370078740157,"duration":0.11999999999999744},{"name":"F#2","midi":42,"time":53.75999999999953,"velocity":0.6929133858267716,"duration":0.11999999999999744},{"name":"C2","midi":36,"time":53.75999999999953,"velocity":0.9133858267716536,"duration":0.11999999999999744},{"name":"F#2","midi":42,"time":53.999999999999524,"velocity":0.5984251968503937,"duration":0.11999999999999744},{"name":"D2","midi":38,"time":54.23999999999952,"velocity":0.5354330708661418,"duration":0.11999999999999744},{"name":"F#2","midi":42,"time":54.23999999999952,"velocity":0.6929133858267716,"duration":0.11999999999999744},{"name":"D#2","midi":39,"time":54.23999999999952,"velocity":0.6929133858267716,"duration":0.11999999999999744},{"name":"C2","midi":36,"time":54.23999999999952,"velocity":0.9133858267716536,"duration":0.11999999999999744},{"name":"F#2","midi":42,"time":54.479999999999514,"velocity":0.5984251968503937,"duration":0.11999999999999744},{"name":"F#2","midi":42,"time":54.71999999999951,"velocity":0.6929133858267716,"duration":0.11999999999999744},{"name":"C2","midi":36,"time":54.71999999999951,"velocity":0.9133858267716536,"duration":0.11999999999999744},{"name":"F#2","midi":42,"time":54.9599999999995,"velocity":0.5984251968503937,"duration":0.11999999999999744},{"name":"D2","midi":38,"time":55.1999999999995,"velocity":0.5354330708661418,"duration":0.11999999999999744},{"name":"F#2","midi":42,"time":55.1999999999995,"velocity":0.6929133858267716,"duration":0.11999999999999744},{"name":"D#2","midi":39,"time":55.1999999999995,"velocity":0.6929133858267716,"duration":0.11999999999999744},{"name":"C2","midi":36,"time":55.1999999999995,"velocity":0.9133858267716536,"duration":0.11999999999999744},{"name":"F#2","midi":42,"time":55.43999999999949,"velocity":0.5984251968503937,"duration":0.11999999999999744},{"name":"C2","midi":36,"time":55.67999999999949,"velocity":0.9133858267716536,"duration":0.11999999999999744},{"name":"F#2","midi":42,"time":55.67999999999949,"velocity":0.6929133858267716,"duration":0.11999999999999744},{"name":"F#2","midi":42,"time":55.91999999999948,"velocity":0.5984251968503937,"duration":0.11999999999999744},{"name":"D2","midi":38,"time":56.15999999999948,"velocity":0.5354330708661418,"duration":0.11999999999999744},{"name":"F#2","midi":42,"time":56.15999999999948,"velocity":0.6929133858267716,"duration":0.11999999999999744},{"name":"D#2","midi":39,"time":56.15999999999948,"velocity":0.6929133858267716,"duration":0.11999999999999744},{"name":"C2","midi":36,"time":56.15999999999948,"velocity":0.9133858267716536,"duration":0.11999999999999744},{"name":"F#2","midi":42,"time":56.39999999999947,"velocity":0.5984251968503937,"duration":0.11999999999999744},{"name":"F#2","midi":42,"time":56.63999999999947,"velocity":0.6929133858267716,"duration":0.11999999999999744},{"name":"C2","midi":36,"time":56.63999999999947,"velocity":0.9133858267716536,"duration":0.11999999999999744},{"name":"F#2","midi":42,"time":56.87999999999946,"velocity":0.5984251968503937,"duration":0.11999999999999744},{"name":"D2","midi":38,"time":57.11999999999946,"velocity":0.5354330708661418,"duration":0.11999999999999744},{"name":"F#2","midi":42,"time":57.11999999999946,"velocity":0.6929133858267716,"duration":0.11999999999999744},{"name":"D#2","midi":39,"time":57.11999999999946,"velocity":0.6929133858267716,"duration":0.11999999999999744},{"name":"C2","midi":36,"time":57.11999999999946,"velocity":0.9133858267716536,"duration":0.11999999999999744},{"name":"F#2","midi":42,"time":57.35999999999945,"velocity":0.5984251968503937,"duration":0.11999999999999744},{"name":"C2","midi":36,"time":57.59999999999945,"velocity":0.9133858267716536,"duration":0.11999999999999744},{"name":"F#2","midi":42,"time":57.59999999999945,"velocity":0.6929133858267716,"duration":0.11999999999999744},{"name":"F#2","midi":42,"time":57.83999999999944,"velocity":0.5984251968503937,"duration":0.11999999999999744},{"name":"D2","midi":38,"time":58.07999999999944,"velocity":0.5354330708661418,"duration":0.11999999999999744},{"name":"F#2","midi":42,"time":58.07999999999944,"velocity":0.6929133858267716,"duration":0.11999999999999744},{"name":"D#2","midi":39,"time":58.07999999999944,"velocity":0.6929133858267716,"duration":0.11999999999999744},{"name":"C2","midi":36,"time":58.07999999999944,"velocity":0.9133858267716536,"duration":0.11999999999999744},{"name":"F#2","midi":42,"time":58.31999999999943,"velocity":0.5984251968503937,"duration":0.11999999999999744},{"name":"F#2","midi":42,"time":58.55999999999943,"velocity":0.6929133858267716,"duration":0.11999999999999744},{"name":"C2","midi":36,"time":58.55999999999943,"velocity":0.9133858267716536,"duration":0.11999999999999744},{"name":"F#2","midi":42,"time":58.79999999999942,"velocity":0.5984251968503937,"duration":0.11999999999999744},{"name":"D2","midi":38,"time":59.03999999999942,"velocity":0.5354330708661418,"duration":0.11999999999999744},{"name":"F#2","midi":42,"time":59.03999999999942,"velocity":0.6929133858267716,"duration":0.11999999999999744},{"name":"D#2","midi":39,"time":59.03999999999942,"velocity":0.6929133858267716,"duration":0.11999999999999744},{"name":"C2","midi":36,"time":59.03999999999942,"velocity":0.9133858267716536,"duration":0.11999999999999744},{"name":"F#2","midi":42,"time":59.27999999999941,"velocity":0.5984251968503937,"duration":0.11999999999999744},{"name":"C2","midi":36,"time":59.519999999999406,"velocity":0.9133858267716536,"duration":0.11999999999999744},{"name":"F#2","midi":42,"time":59.519999999999406,"velocity":0.6929133858267716,"duration":0.11999999999999744},{"name":"F#2","midi":42,"time":59.7599999999994,"velocity":0.5984251968503937,"duration":0.11999999999999744},{"name":"D2","midi":38,"time":59.999999999999396,"velocity":0.5354330708661418,"duration":0.11999999999999744},{"name":"F#2","midi":42,"time":59.999999999999396,"velocity":0.6929133858267716,"duration":0.11999999999999744},{"name":"D#2","midi":39,"time":59.999999999999396,"velocity":0.6929133858267716,"duration":0.11999999999999744},{"name":"C2","midi":36,"time":59.999999999999396,"velocity":0.9133858267716536,"duration":0.11999999999999744},{"name":"F#2","midi":42,"time":60.23999999999939,"velocity":0.5984251968503937,"duration":0.11999999999999744},{"name":"F#2","midi":42,"time":60.479999999999386,"velocity":0.6929133858267716,"duration":0.11999999999999744},{"name":"C2","midi":36,"time":60.479999999999386,"velocity":0.9133858267716536,"duration":0.11999999999999744},{"name":"F#2","midi":42,"time":60.71999999999938,"velocity":0.5984251968503937,"duration":0.11999999999999744},{"name":"D2","midi":38,"time":60.959999999999376,"velocity":0.5354330708661418,"duration":0.11999999999999744},{"name":"F#2","midi":42,"time":60.959999999999376,"velocity":0.6929133858267716,"duration":0.11999999999999744},{"name":"D#2","midi":39,"time":60.959999999999376,"velocity":0.6929133858267716,"duration":0.11999999999999744},{"name":"C2","midi":36,"time":60.959999999999376,"velocity":0.9133858267716536,"duration":0.11999999999999744},{"name":"F#2","midi":42,"time":61.19999999999937,"velocity":0.5984251968503937,"duration":0.11999999999999744},{"name":"C2","midi":36,"time":61.439999999999365,"velocity":0.9133858267716536,"duration":0.11999999999999744},{"name":"F#2","midi":42,"time":61.439999999999365,"velocity":0.6929133858267716,"duration":0.11999999999999744},{"name":"F#2","midi":42,"time":61.67999999999936,"velocity":0.5984251968503937,"duration":0.11999999999999744},{"name":"D2","midi":38,"time":61.919999999999355,"velocity":0.5354330708661418,"duration":0.11999999999999744},{"name":"F#2","midi":42,"time":61.919999999999355,"velocity":0.6929133858267716,"duration":0.11999999999999744},{"name":"D#2","midi":39,"time":61.919999999999355,"velocity":0.6929133858267716,"duration":0.11999999999999744},{"name":"C2","midi":36,"time":61.919999999999355,"velocity":0.9133858267716536,"duration":0.11999999999999744},{"name":"F#2","midi":42,"time":62.15999999999935,"velocity":0.5984251968503937,"duration":0.11999999999999744},{"name":"F#2","midi":42,"time":62.399999999999345,"velocity":0.6929133858267716,"duration":0.11999999999999744},{"name":"C2","midi":36,"time":62.399999999999345,"velocity":0.9133858267716536,"duration":0.11999999999999744},{"name":"F#2","midi":42,"time":62.63999999999934,"velocity":0.5984251968503937,"duration":0.11999999999999744},{"name":"D2","midi":38,"time":62.879999999999335,"velocity":0.5354330708661418,"duration":0.11999999999999744},{"name":"F#2","midi":42,"time":62.879999999999335,"velocity":0.6929133858267716,"duration":0.11999999999999744},{"name":"D#2","midi":39,"time":62.879999999999335,"velocity":0.6929133858267716,"duration":0.11999999999999744},{"name":"C2","midi":36,"time":62.879999999999335,"velocity":0.9133858267716536,"duration":0.11999999999999744},{"name":"F#2","midi":42,"time":63.11999999999933,"velocity":0.5984251968503937,"duration":0.11999999999999744},{"name":"C2","midi":36,"time":63.359999999999324,"velocity":0.9133858267716536,"duration":0.11999999999999744},{"name":"F#2","midi":42,"time":63.359999999999324,"velocity":0.6929133858267716,"duration":0.11999999999999744},{"name":"F#2","midi":42,"time":63.59999999999932,"velocity":0.5984251968503937,"duration":0.11999999999999744},{"name":"D2","midi":38,"time":63.839999999999314,"velocity":0.5354330708661418,"duration":0.11999999999999744},{"name":"F#2","midi":42,"time":63.839999999999314,"velocity":0.6929133858267716,"duration":0.11999999999999744},{"name":"D#2","midi":39,"time":63.839999999999314,"velocity":0.6929133858267716,"duration":0.11999999999999744},{"name":"C2","midi":36,"time":63.839999999999314,"velocity":0.9133858267716536,"duration":0.11999999999999744},{"name":"F#2","midi":42,"time":64.07999999999932,"velocity":0.5984251968503937,"duration":0.12000000000000455},{"name":"F#2","midi":42,"time":64.31999999999933,"velocity":0.6929133858267716,"duration":0.12000000000000455},{"name":"C2","midi":36,"time":64.31999999999933,"velocity":0.9133858267716536,"duration":0.12000000000000455},{"name":"F#2","midi":42,"time":64.55999999999933,"velocity":0.5984251968503937,"duration":0.12000000000000455},{"name":"D2","midi":38,"time":64.79999999999934,"velocity":0.5354330708661418,"duration":0.12000000000000455},{"name":"F#2","midi":42,"time":64.79999999999934,"velocity":0.6929133858267716,"duration":0.12000000000000455},{"name":"D#2","midi":39,"time":64.79999999999934,"velocity":0.6929133858267716,"duration":0.12000000000000455},{"name":"C2","midi":36,"time":64.79999999999934,"velocity":0.9133858267716536,"duration":0.12000000000000455},{"name":"F#2","midi":42,"time":65.03999999999935,"velocity":0.5984251968503937,"duration":0.12000000000000455},{"name":"C2","midi":36,"time":65.27999999999936,"velocity":0.9133858267716536,"duration":0.12000000000000455},{"name":"F#2","midi":42,"time":65.27999999999936,"velocity":0.6929133858267716,"duration":0.12000000000000455},{"name":"F#2","midi":42,"time":65.51999999999937,"velocity":0.5984251968503937,"duration":0.12000000000000455},{"name":"D2","midi":38,"time":65.75999999999938,"velocity":0.5354330708661418,"duration":0.12000000000000455},{"name":"F#2","midi":42,"time":65.75999999999938,"velocity":0.6929133858267716,"duration":0.12000000000000455},{"name":"D#2","midi":39,"time":65.75999999999938,"velocity":0.6929133858267716,"duration":0.12000000000000455},{"name":"C2","midi":36,"time":65.75999999999938,"velocity":0.9133858267716536,"duration":0.12000000000000455},{"name":"F#2","midi":42,"time":65.99999999999939,"velocity":0.5984251968503937,"duration":0.12000000000000455},{"name":"F#2","midi":42,"time":66.2399999999994,"velocity":0.6929133858267716,"duration":0.12000000000000455},{"name":"C2","midi":36,"time":66.2399999999994,"velocity":0.9133858267716536,"duration":0.12000000000000455},{"name":"F#2","midi":42,"time":66.47999999999941,"velocity":0.5984251968503937,"duration":0.12000000000000455},{"name":"D2","midi":38,"time":66.71999999999942,"velocity":0.5354330708661418,"duration":0.12000000000000455},{"name":"F#2","midi":42,"time":66.71999999999942,"velocity":0.6929133858267716,"duration":0.12000000000000455},{"name":"D#2","midi":39,"time":66.71999999999942,"velocity":0.6929133858267716,"duration":0.12000000000000455},{"name":"C2","midi":36,"time":66.71999999999942,"velocity":0.9133858267716536,"duration":0.12000000000000455},{"name":"F#2","midi":42,"time":66.95999999999943,"velocity":0.5984251968503937,"duration":0.12000000000000455},{"name":"C2","midi":36,"time":67.19999999999943,"velocity":0.9133858267716536,"duration":0.12000000000000455},{"name":"F#2","midi":42,"time":67.19999999999943,"velocity":0.6929133858267716,"duration":0.12000000000000455},{"name":"F#2","midi":42,"time":67.43999999999944,"velocity":0.5984251968503937,"duration":0.12000000000000455},{"name":"D2","midi":38,"time":67.67999999999945,"velocity":0.5354330708661418,"duration":0.12000000000000455},{"name":"C2","midi":36,"time":67.67999999999945,"velocity":0.9133858267716536,"duration":0.12000000000000455},{"name":"D#2","midi":39,"time":67.67999999999945,"velocity":0.6929133858267716,"duration":0.12000000000000455},{"name":"F#2","midi":42,"time":67.67999999999945,"velocity":0.6929133858267716,"duration":0.12000000000000455},{"name":"F#2","midi":42,"time":67.91999999999946,"velocity":0.5984251968503937,"duration":0.12000000000000455},{"name":"C2","midi":36,"time":68.15999999999947,"velocity":0.9133858267716536,"duration":0.12000000000000455},{"name":"F#2","midi":42,"time":68.15999999999947,"velocity":0.6929133858267716,"duration":0.12000000000000455},{"name":"F#2","midi":42,"time":68.39999999999948,"velocity":0.5984251968503937,"duration":0.12000000000000455},{"name":"D2","midi":38,"time":68.63999999999949,"velocity":0.5354330708661418,"duration":0.12000000000000455},{"name":"C2","midi":36,"time":68.63999999999949,"velocity":0.9133858267716536,"duration":0.12000000000000455},{"name":"D#2","midi":39,"time":68.63999999999949,"velocity":0.6929133858267716,"duration":0.12000000000000455},{"name":"F#2","midi":42,"time":68.63999999999949,"velocity":0.6929133858267716,"duration":0.12000000000000455},{"name":"F#2","midi":42,"time":68.8799999999995,"velocity":0.5039370078740157,"duration":0.12000000000000455},{"name":"F#2","midi":42,"time":69.11999999999951,"velocity":0.6929133858267716,"duration":0.12000000000000455},{"name":"C2","midi":36,"time":69.11999999999951,"velocity":0.9133858267716536,"duration":0.12000000000000455},{"name":"F#2","midi":42,"time":69.35999999999952,"velocity":0.5984251968503937,"duration":0.12000000000000455},{"name":"D2","midi":38,"time":69.59999999999953,"velocity":0.5354330708661418,"duration":0.12000000000000455},{"name":"F#2","midi":42,"time":69.59999999999953,"velocity":0.6929133858267716,"duration":0.12000000000000455},{"name":"D#2","midi":39,"time":69.59999999999953,"velocity":0.6929133858267716,"duration":0.12000000000000455},{"name":"C2","midi":36,"time":69.59999999999953,"velocity":0.9133858267716536,"duration":0.12000000000000455},{"name":"F#2","midi":42,"time":69.83999999999953,"velocity":0.5984251968503937,"duration":0.12000000000000455},{"name":"F#2","midi":42,"time":70.07999999999954,"velocity":0.6929133858267716,"duration":0.12000000000000455},{"name":"C2","midi":36,"time":70.07999999999954,"velocity":0.9133858267716536,"duration":0.12000000000000455},{"name":"F#2","midi":42,"time":70.31999999999955,"velocity":0.5984251968503937,"duration":0.12000000000000455},{"name":"D2","midi":38,"time":70.55999999999956,"velocity":0.5354330708661418,"duration":0.12000000000000455},{"name":"F#2","midi":42,"time":70.55999999999956,"velocity":0.6929133858267716,"duration":0.12000000000000455},{"name":"D#2","midi":39,"time":70.55999999999956,"velocity":0.6929133858267716,"duration":0.12000000000000455},{"name":"C2","midi":36,"time":70.55999999999956,"velocity":0.9133858267716536,"duration":0.12000000000000455},{"name":"F#2","midi":42,"time":70.79999999999957,"velocity":0.5984251968503937,"duration":0.12000000000000455},{"name":"C2","midi":36,"time":71.03999999999958,"velocity":0.9133858267716536,"duration":0.12000000000000455},{"name":"F#2","midi":42,"time":71.03999999999958,"velocity":0.6929133858267716,"duration":0.12000000000000455},{"name":"F#2","midi":42,"time":71.27999999999959,"velocity":0.5984251968503937,"duration":0.12000000000000455},{"name":"D2","midi":38,"time":71.5199999999996,"velocity":0.5354330708661418,"duration":0.12000000000000455},{"name":"F#2","midi":42,"time":71.5199999999996,"velocity":0.6929133858267716,"duration":0.12000000000000455},{"name":"D#2","midi":39,"time":71.5199999999996,"velocity":0.6929133858267716,"duration":0.12000000000000455},{"name":"C2","midi":36,"time":71.5199999999996,"velocity":0.9133858267716536,"duration":0.12000000000000455},{"name":"F#2","midi":42,"time":71.75999999999961,"velocity":0.5984251968503937,"duration":0.12000000000000455},{"name":"F#2","midi":42,"time":71.99999999999962,"velocity":0.6929133858267716,"duration":0.12000000000000455},{"name":"C2","midi":36,"time":71.99999999999962,"velocity":0.9133858267716536,"duration":0.12000000000000455},{"name":"F#2","midi":42,"time":72.23999999999963,"velocity":0.5984251968503937,"duration":0.12000000000000455},{"name":"D2","midi":38,"time":72.47999999999963,"velocity":0.5354330708661418,"duration":0.12000000000000455},{"name":"F#2","midi":42,"time":72.47999999999963,"velocity":0.6929133858267716,"duration":0.12000000000000455},{"name":"D#2","midi":39,"time":72.47999999999963,"velocity":0.6929133858267716,"duration":0.12000000000000455},{"name":"C2","midi":36,"time":72.47999999999963,"velocity":0.9133858267716536,"duration":0.12000000000000455},{"name":"F#2","midi":42,"time":72.71999999999964,"velocity":0.5984251968503937,"duration":0.12000000000000455},{"name":"C2","midi":36,"time":72.95999999999965,"velocity":0.9133858267716536,"duration":0.12000000000000455},{"name":"F#2","midi":42,"time":72.95999999999965,"velocity":0.6929133858267716,"duration":0.12000000000000455},{"name":"F#2","midi":42,"time":73.19999999999966,"velocity":0.5984251968503937,"duration":0.12000000000000455},{"name":"D2","midi":38,"time":73.43999999999967,"velocity":0.5354330708661418,"duration":0.12000000000000455},{"name":"F#2","midi":42,"time":73.43999999999967,"velocity":0.6929133858267716,"duration":0.12000000000000455},{"name":"D#2","midi":39,"time":73.43999999999967,"velocity":0.6929133858267716,"duration":0.12000000000000455},{"name":"C2","midi":36,"time":73.43999999999967,"velocity":0.9133858267716536,"duration":0.12000000000000455},{"name":"F#2","midi":42,"time":73.67999999999968,"velocity":0.5984251968503937,"duration":0.12000000000000455},{"name":"F#2","midi":42,"time":73.91999999999969,"velocity":0.6929133858267716,"duration":0.12000000000000455},{"name":"C2","midi":36,"time":73.91999999999969,"velocity":0.9133858267716536,"duration":0.12000000000000455},{"name":"F#2","midi":42,"time":74.1599999999997,"velocity":0.5984251968503937,"duration":0.12000000000000455},{"name":"D2","midi":38,"time":74.39999999999971,"velocity":0.5354330708661418,"duration":0.12000000000000455},{"name":"F#2","midi":42,"time":74.39999999999971,"velocity":0.6929133858267716,"duration":0.12000000000000455},{"name":"D#2","midi":39,"time":74.39999999999971,"velocity":0.6929133858267716,"duration":0.12000000000000455},{"name":"C2","midi":36,"time":74.39999999999971,"velocity":0.9133858267716536,"duration":0.12000000000000455},{"name":"F#2","midi":42,"time":74.63999999999972,"velocity":0.5984251968503937,"duration":0.12000000000000455},{"name":"C2","midi":36,"time":74.87999999999973,"velocity":0.9133858267716536,"duration":0.12000000000000455},{"name":"F#2","midi":42,"time":74.87999999999973,"velocity":0.6929133858267716,"duration":0.12000000000000455},{"name":"F#2","midi":42,"time":75.11999999999973,"velocity":0.5984251968503937,"duration":0.12000000000000455},{"name":"D2","midi":38,"time":75.35999999999974,"velocity":0.5354330708661418,"duration":0.12000000000000455},{"name":"F#2","midi":42,"time":75.35999999999974,"velocity":0.6929133858267716,"duration":0.12000000000000455},{"name":"D#2","midi":39,"time":75.35999999999974,"velocity":0.6929133858267716,"duration":0.12000000000000455},{"name":"C2","midi":36,"time":75.35999999999974,"velocity":0.9133858267716536,"duration":0.12000000000000455},{"name":"F#2","midi":42,"time":75.59999999999975,"velocity":0.5984251968503937,"duration":0.12000000000000455},{"name":"F#2","midi":42,"time":75.83999999999976,"velocity":0.6929133858267716,"duration":0.12000000000000455},{"name":"C2","midi":36,"time":75.83999999999976,"velocity":0.9133858267716536,"duration":0.12000000000000455},{"name":"F#2","midi":42,"time":76.07999999999977,"velocity":0.5984251968503937,"duration":0.12000000000000455},{"name":"D2","midi":38,"time":76.31999999999978,"velocity":0.5354330708661418,"duration":0.12000000000000455},{"name":"F#2","midi":42,"time":76.31999999999978,"velocity":0.6929133858267716,"duration":0.12000000000000455},{"name":"D#2","midi":39,"time":76.31999999999978,"velocity":0.6929133858267716,"duration":0.12000000000000455},{"name":"C2","midi":36,"time":76.31999999999978,"velocity":0.9133858267716536,"duration":0.12000000000000455},{"name":"F#2","midi":42,"time":76.55999999999979,"velocity":0.5984251968503937,"duration":0.12000000000000455},{"name":"C2","midi":36,"time":76.7999999999998,"velocity":0.9133858267716536,"duration":0.12000000000000455},{"name":"F#2","midi":42,"time":76.7999999999998,"velocity":0.6929133858267716,"duration":0.12000000000000455},{"name":"F#2","midi":42,"time":77.03999999999981,"velocity":0.5984251968503937,"duration":0.12000000000000455},{"name":"D2","midi":38,"time":77.27999999999982,"velocity":0.5354330708661418,"duration":0.12000000000000455},{"name":"F#2","midi":42,"time":77.27999999999982,"velocity":0.6929133858267716,"duration":0.12000000000000455},{"name":"D#2","midi":39,"time":77.27999999999982,"velocity":0.6929133858267716,"duration":0.12000000000000455},{"name":"C2","midi":36,"time":77.27999999999982,"velocity":0.9133858267716536,"duration":0.12000000000000455},{"name":"F#2","midi":42,"time":77.51999999999983,"velocity":0.5984251968503937,"duration":0.12000000000000455},{"name":"F#2","midi":42,"time":77.75999999999983,"velocity":0.6929133858267716,"duration":0.12000000000000455},{"name":"C2","midi":36,"time":77.75999999999983,"velocity":0.9133858267716536,"duration":0.12000000000000455},{"name":"F#2","midi":42,"time":77.99999999999984,"velocity":0.5984251968503937,"duration":0.12000000000000455},{"name":"D2","midi":38,"time":78.23999999999985,"velocity":0.5354330708661418,"duration":0.12000000000000455},{"name":"F#2","midi":42,"time":78.23999999999985,"velocity":0.6929133858267716,"duration":0.12000000000000455},{"name":"D#2","midi":39,"time":78.23999999999985,"velocity":0.6929133858267716,"duration":0.12000000000000455},{"name":"C2","midi":36,"time":78.23999999999985,"velocity":0.9133858267716536,"duration":0.12000000000000455},{"name":"F#2","midi":42,"time":78.47999999999986,"velocity":0.5984251968503937,"duration":0.12000000000000455},{"name":"C2","midi":36,"time":78.71999999999987,"velocity":0.9133858267716536,"duration":0.12000000000000455},{"name":"F#2","midi":42,"time":78.71999999999987,"velocity":0.6929133858267716,"duration":0.12000000000000455},{"name":"F#2","midi":42,"time":78.95999999999988,"velocity":0.5984251968503937,"duration":0.12000000000000455},{"name":"D2","midi":38,"time":79.19999999999989,"velocity":0.5354330708661418,"duration":0.12000000000000455},{"name":"F#2","midi":42,"time":79.19999999999989,"velocity":0.6929133858267716,"duration":0.12000000000000455},{"name":"D#2","midi":39,"time":79.19999999999989,"velocity":0.6929133858267716,"duration":0.12000000000000455},{"name":"C2","midi":36,"time":79.19999999999989,"velocity":0.9133858267716536,"duration":0.12000000000000455},{"name":"F#2","midi":42,"time":79.4399999999999,"velocity":0.5984251968503937,"duration":0.12000000000000455},{"name":"F#2","midi":42,"time":79.67999999999991,"velocity":0.6929133858267716,"duration":0.12000000000000455},{"name":"C2","midi":36,"time":79.67999999999991,"velocity":0.9133858267716536,"duration":0.12000000000000455},{"name":"F#2","midi":42,"time":79.91999999999992,"velocity":0.5984251968503937,"duration":0.12000000000000455},{"name":"D2","midi":38,"time":80.15999999999993,"velocity":0.5354330708661418,"duration":0.12000000000000455},{"name":"F#2","midi":42,"time":80.15999999999993,"velocity":0.6929133858267716,"duration":0.12000000000000455},{"name":"D#2","midi":39,"time":80.15999999999993,"velocity":0.6929133858267716,"duration":0.12000000000000455},{"name":"C2","midi":36,"time":80.15999999999993,"velocity":0.9133858267716536,"duration":0.12000000000000455},{"name":"F#2","midi":42,"time":80.39999999999993,"velocity":0.5984251968503937,"duration":0.12000000000000455},{"name":"C2","midi":36,"time":80.63999999999994,"velocity":0.9133858267716536,"duration":0.12000000000000455},{"name":"F#2","midi":42,"time":80.63999999999994,"velocity":0.6929133858267716,"duration":0.12000000000000455},{"name":"F#2","midi":42,"time":80.87999999999995,"velocity":0.5984251968503937,"duration":0.12000000000000455},{"name":"D2","midi":38,"time":81.11999999999996,"velocity":0.5354330708661418,"duration":0.12000000000000455},{"name":"F#2","midi":42,"time":81.11999999999996,"velocity":0.6929133858267716,"duration":0.12000000000000455},{"name":"D#2","midi":39,"time":81.11999999999996,"velocity":0.6929133858267716,"duration":0.12000000000000455},{"name":"C2","midi":36,"time":81.11999999999996,"velocity":0.9133858267716536,"duration":0.12000000000000455},{"name":"F#2","midi":42,"time":81.35999999999997,"velocity":0.5984251968503937,"duration":0.12000000000000455},{"name":"F#2","midi":42,"time":81.59999999999998,"velocity":0.6929133858267716,"duration":0.12000000000000455},{"name":"C2","midi":36,"time":81.59999999999998,"velocity":0.9133858267716536,"duration":0.12000000000000455},{"name":"F#2","midi":42,"time":81.83999999999999,"velocity":0.5984251968503937,"duration":0.12000000000000455},{"name":"D2","midi":38,"time":82.08,"velocity":0.5354330708661418,"duration":0.12000000000000455},{"name":"F#2","midi":42,"time":82.08,"velocity":0.6929133858267716,"duration":0.12000000000000455},{"name":"D#2","midi":39,"time":82.08,"velocity":0.6929133858267716,"duration":0.12000000000000455},{"name":"C2","midi":36,"time":82.08,"velocity":0.9133858267716536,"duration":0.12000000000000455},{"name":"F#2","midi":42,"time":82.32000000000001,"velocity":0.5984251968503937,"duration":0.12000000000000455},{"name":"C2","midi":36,"time":82.56000000000002,"velocity":0.9133858267716536,"duration":0.12000000000000455},{"name":"F#2","midi":42,"time":82.56000000000002,"velocity":0.6929133858267716,"duration":0.12000000000000455},{"name":"F#2","midi":42,"time":82.80000000000003,"velocity":0.5984251968503937,"duration":0.12000000000000455},{"name":"D2","midi":38,"time":83.04000000000003,"velocity":0.5354330708661418,"duration":0.12000000000000455},{"name":"C2","midi":36,"time":83.04000000000003,"velocity":0.9133858267716536,"duration":0.12000000000000455},{"name":"D#2","midi":39,"time":83.04000000000003,"velocity":0.6929133858267716,"duration":0.12000000000000455},{"name":"F#2","midi":42,"time":83.04000000000003,"velocity":0.6929133858267716,"duration":0.12000000000000455},{"name":"F#2","midi":42,"time":83.28000000000004,"velocity":0.5984251968503937,"duration":0.12000000000000455},{"name":"C2","midi":36,"time":83.52000000000005,"velocity":0.9133858267716536,"duration":0.12000000000000455},{"name":"F#2","midi":42,"time":83.52000000000005,"velocity":0.6929133858267716,"duration":0.12000000000000455},{"name":"F#2","midi":42,"time":83.76000000000006,"velocity":0.5984251968503937,"duration":0.12000000000000455},{"name":"D2","midi":38,"time":84.00000000000007,"velocity":0.5354330708661418,"duration":0.12000000000000455},{"name":"C2","midi":36,"time":84.00000000000007,"velocity":0.9133858267716536,"duration":0.12000000000000455},{"name":"D#2","midi":39,"time":84.00000000000007,"velocity":0.6929133858267716,"duration":0.12000000000000455},{"name":"F#2","midi":42,"time":84.00000000000007,"velocity":0.6929133858267716,"duration":0.12000000000000455},{"name":"F#2","midi":42,"time":84.24000000000008,"velocity":0.5039370078740157,"duration":0.12000000000000455},{"name":"F#3","midi":54,"time":84.48000000000009,"velocity":0.5039370078740157,"duration":0.060000000000002274},{"name":"F#2","midi":42,"time":84.48000000000009,"velocity":0.6929133858267716,"duration":0.12000000000000455},{"name":"C2","midi":36,"time":84.48000000000009,"velocity":0.9133858267716536,"duration":0.12000000000000455},{"name":"F#3","midi":54,"time":84.6000000000001,"velocity":0.7559055118110236,"duration":0.060000000000002274},{"name":"F#3","midi":54,"time":84.7200000000001,"velocity":0.5039370078740157,"duration":0.060000000000002274},{"name":"F#2","midi":42,"time":84.7200000000001,"velocity":0.5984251968503937,"duration":0.12000000000000455},{"name":"F#3","midi":54,"time":84.8400000000001,"velocity":0.7559055118110236,"duration":0.060000000000002274},{"name":"F#2","midi":42,"time":84.96000000000011,"velocity":0.6929133858267716,"duration":0.12000000000000455},{"name":"D#2","midi":39,"time":84.96000000000011,"velocity":0.6929133858267716,"duration":0.12000000000000455},{"name":"F#3","midi":54,"time":84.96000000000011,"velocity":0.5039370078740157,"duration":0.060000000000002274},{"name":"D2","midi":38,"time":84.96000000000011,"velocity":0.47244094488188976,"duration":0.12000000000000455},{"name":"C2","midi":36,"time":84.96000000000011,"velocity":0.9133858267716536,"duration":0.12000000000000455},{"name":"F#3","midi":54,"time":85.08000000000011,"velocity":0.7559055118110236,"duration":0.060000000000002274},{"name":"F#3","midi":54,"time":85.20000000000012,"velocity":0.5039370078740157,"duration":0.060000000000002274},{"name":"F#2","midi":42,"time":85.20000000000012,"velocity":0.5984251968503937,"duration":0.12000000000000455},{"name":"F#3","midi":54,"time":85.32000000000012,"velocity":0.7559055118110236,"duration":0.060000000000002274},{"name":"F#2","midi":42,"time":85.44000000000013,"velocity":0.6929133858267716,"duration":0.12000000000000455},{"name":"F#3","midi":54,"time":85.44000000000013,"velocity":0.5039370078740157,"duration":0.060000000000002274},{"name":"C2","midi":36,"time":85.44000000000013,"velocity":0.9133858267716536,"duration":0.12000000000000455},{"name":"F#3","midi":54,"time":85.56000000000013,"velocity":0.7559055118110236,"duration":0.060000000000002274},{"name":"F#3","midi":54,"time":85.68000000000013,"velocity":0.5039370078740157,"duration":0.060000000000002274},{"name":"F#2","midi":42,"time":85.68000000000013,"velocity":0.5984251968503937,"duration":0.12000000000000455},{"name":"F#3","midi":54,"time":85.80000000000014,"velocity":0.7559055118110236,"duration":0.060000000000002274},{"name":"F#2","midi":42,"time":85.92000000000014,"velocity":0.6929133858267716,"duration":0.12000000000000455},{"name":"D#2","midi":39,"time":85.92000000000014,"velocity":0.6929133858267716,"duration":0.12000000000000455},{"name":"F#3","midi":54,"time":85.92000000000014,"velocity":0.5039370078740157,"duration":0.030000000000001137},{"name":"D2","midi":38,"time":85.92000000000014,"velocity":0.47244094488188976,"duration":0.12000000000000455},{"name":"C2","midi":36,"time":85.92000000000014,"velocity":0.9133858267716536,"duration":0.12000000000000455},{"name":"F#3","midi":54,"time":85.95000000000014,"velocity":0.5039370078740157,"duration":0.030000000000001137},{"name":"F#3","midi":54,"time":86.04000000000015,"velocity":0.7559055118110236,"duration":0.060000000000002274},{"name":"F#3","midi":54,"time":86.16000000000015,"velocity":0.5039370078740157,"duration":0.060000000000002274},{"name":"F#2","midi":42,"time":86.16000000000015,"velocity":0.5984251968503937,"duration":0.12000000000000455},{"name":"F#3","midi":54,"time":86.28000000000016,"velocity":0.7559055118110236,"duration":0.060000000000002274},{"name":"F#2","midi":42,"time":86.40000000000016,"velocity":0.6929133858267716,"duration":0.12000000000000455},{"name":"F#3","midi":54,"time":86.40000000000016,"velocity":0.5039370078740157,"duration":0.060000000000002274},{"name":"C2","midi":36,"time":86.40000000000016,"velocity":0.9133858267716536,"duration":0.12000000000000455},{"name":"F#3","midi":54,"time":86.52000000000017,"velocity":0.7559055118110236,"duration":0.060000000000002274},{"name":"F#3","midi":54,"time":86.64000000000017,"velocity":0.5039370078740157,"duration":0.060000000000002274},{"name":"F#2","midi":42,"time":86.64000000000017,"velocity":0.5984251968503937,"duration":0.12000000000000455},{"name":"F#3","midi":54,"time":86.76000000000018,"velocity":0.7559055118110236,"duration":0.060000000000002274},{"name":"F#2","midi":42,"time":86.88000000000018,"velocity":0.6929133858267716,"duration":0.12000000000000455},{"name":"D#2","midi":39,"time":86.88000000000018,"velocity":0.6929133858267716,"duration":0.12000000000000455},{"name":"F#3","midi":54,"time":86.88000000000018,"velocity":0.5039370078740157,"duration":0.060000000000002274},{"name":"D2","midi":38,"time":86.88000000000018,"velocity":0.47244094488188976,"duration":0.12000000000000455},{"name":"C2","midi":36,"time":86.88000000000018,"velocity":0.9133858267716536,"duration":0.12000000000000455},{"name":"F#3","midi":54,"time":87.00000000000018,"velocity":0.7559055118110236,"duration":0.060000000000002274},{"name":"F#3","midi":54,"time":87.12000000000019,"velocity":0.5039370078740157,"duration":0.060000000000002274},{"name":"F#2","midi":42,"time":87.12000000000019,"velocity":0.5984251968503937,"duration":0.12000000000000455},{"name":"F#3","midi":54,"time":87.2400000000002,"velocity":0.7559055118110236,"duration":0.060000000000002274},{"name":"F#2","midi":42,"time":87.3600000000002,"velocity":0.6929133858267716,"duration":0.12000000000000455},{"name":"F#3","midi":54,"time":87.3600000000002,"velocity":0.5039370078740157,"duration":0.060000000000002274},{"name":"C2","midi":36,"time":87.3600000000002,"velocity":0.9133858267716536,"duration":0.12000000000000455},{"name":"F#3","midi":54,"time":87.4800000000002,"velocity":0.7559055118110236,"duration":0.060000000000002274},{"name":"F#3","midi":54,"time":87.60000000000021,"velocity":0.5039370078740157,"duration":0.060000000000002274},{"name":"F#2","midi":42,"time":87.60000000000021,"velocity":0.5984251968503937,"duration":0.12000000000000455},{"name":"F#3","midi":54,"time":87.72000000000021,"velocity":0.7559055118110236,"duration":0.060000000000002274},{"name":"F#2","midi":42,"time":87.84000000000022,"velocity":0.6929133858267716,"duration":0.12000000000000455},{"name":"D#2","midi":39,"time":87.84000000000022,"velocity":0.6929133858267716,"duration":0.12000000000000455},{"name":"F#3","midi":54,"time":87.84000000000022,"velocity":0.5039370078740157,"duration":0.030000000000001137},{"name":"D2","midi":38,"time":87.84000000000022,"velocity":0.47244094488188976,"duration":0.12000000000000455},{"name":"C2","midi":36,"time":87.84000000000022,"velocity":0.9133858267716536,"duration":0.12000000000000455},{"name":"F#3","midi":54,"time":87.87000000000022,"velocity":0.5039370078740157,"duration":0.030000000000001137},{"name":"F#3","midi":54,"time":87.96000000000022,"velocity":0.7559055118110236,"duration":0.060000000000002274},{"name":"F#3","midi":54,"time":88.08000000000023,"velocity":0.5039370078740157,"duration":0.060000000000002274},{"name":"F#2","midi":42,"time":88.08000000000023,"velocity":0.5984251968503937,"duration":0.12000000000000455},{"name":"F#3","midi":54,"time":88.20000000000023,"velocity":0.7559055118110236,"duration":0.060000000000002274},{"name":"F#2","midi":42,"time":88.32000000000023,"velocity":0.6929133858267716,"duration":0.12000000000000455},{"name":"F#3","midi":54,"time":88.32000000000023,"velocity":0.5039370078740157,"duration":0.060000000000002274},{"name":"C2","midi":36,"time":88.32000000000023,"velocity":0.9133858267716536,"duration":0.12000000000000455},{"name":"F#3","midi":54,"time":88.44000000000024,"velocity":0.7559055118110236,"duration":0.060000000000002274},{"name":"F#3","midi":54,"time":88.56000000000024,"velocity":0.5039370078740157,"duration":0.060000000000002274},{"name":"F#2","midi":42,"time":88.56000000000024,"velocity":0.5984251968503937,"duration":0.12000000000000455},{"name":"F#3","midi":54,"time":88.68000000000025,"velocity":0.7559055118110236,"duration":0.060000000000002274},{"name":"F#2","midi":42,"time":88.80000000000025,"velocity":0.6929133858267716,"duration":0.12000000000000455},{"name":"D#2","midi":39,"time":88.80000000000025,"velocity":0.6929133858267716,"duration":0.12000000000000455},{"name":"F#3","midi":54,"time":88.80000000000025,"velocity":0.5039370078740157,"duration":0.060000000000002274},{"name":"D2","midi":38,"time":88.80000000000025,"velocity":0.47244094488188976,"duration":0.12000000000000455},{"name":"C2","midi":36,"time":88.80000000000025,"velocity":0.9133858267716536,"duration":0.12000000000000455},{"name":"F#3","midi":54,"time":88.92000000000026,"velocity":0.7559055118110236,"duration":0.060000000000002274},{"name":"F#3","midi":54,"time":89.04000000000026,"velocity":0.5039370078740157,"duration":0.060000000000002274},{"name":"F#2","midi":42,"time":89.04000000000026,"velocity":0.5984251968503937,"duration":0.12000000000000455},{"name":"F#3","midi":54,"time":89.16000000000027,"velocity":0.7559055118110236,"duration":0.060000000000002274},{"name":"F#2","midi":42,"time":89.28000000000027,"velocity":0.6929133858267716,"duration":0.12000000000000455},{"name":"F#3","midi":54,"time":89.28000000000027,"velocity":0.5039370078740157,"duration":0.060000000000002274},{"name":"C2","midi":36,"time":89.28000000000027,"velocity":0.9133858267716536,"duration":0.12000000000000455},{"name":"F#3","midi":54,"time":89.40000000000028,"velocity":0.7559055118110236,"duration":0.060000000000002274},{"name":"F#3","midi":54,"time":89.52000000000028,"velocity":0.5039370078740157,"duration":0.060000000000002274},{"name":"F#2","midi":42,"time":89.52000000000028,"velocity":0.5984251968503937,"duration":0.12000000000000455},{"name":"F#3","midi":54,"time":89.64000000000028,"velocity":0.7559055118110236,"duration":0.060000000000002274},{"name":"F#2","midi":42,"time":89.76000000000029,"velocity":0.6929133858267716,"duration":0.12000000000000455},{"name":"D#2","midi":39,"time":89.76000000000029,"velocity":0.6929133858267716,"duration":0.12000000000000455},{"name":"F#3","midi":54,"time":89.76000000000029,"velocity":0.5039370078740157,"duration":0.030000000000001137},{"name":"D2","midi":38,"time":89.76000000000029,"velocity":0.47244094488188976,"duration":0.12000000000000455},{"name":"C2","midi":36,"time":89.76000000000029,"velocity":0.9133858267716536,"duration":0.12000000000000455},{"name":"F#3","midi":54,"time":89.79000000000029,"velocity":0.5039370078740157,"duration":0.030000000000001137},{"name":"F#3","midi":54,"time":89.8800000000003,"velocity":0.7559055118110236,"duration":0.060000000000002274},{"name":"F#3","midi":54,"time":90.0000000000003,"velocity":0.5039370078740157,"duration":0.060000000000002274},{"name":"F#2","midi":42,"time":90.0000000000003,"velocity":0.5984251968503937,"duration":0.12000000000000455},{"name":"F#3","midi":54,"time":90.1200000000003,"velocity":0.7559055118110236,"duration":0.060000000000002274},{"name":"F#2","midi":42,"time":90.24000000000031,"velocity":0.6929133858267716,"duration":0.12000000000000455},{"name":"F#3","midi":54,"time":90.24000000000031,"velocity":0.5039370078740157,"duration":0.060000000000002274},{"name":"C2","midi":36,"time":90.24000000000031,"velocity":0.9133858267716536,"duration":0.12000000000000455},{"name":"F#3","midi":54,"time":90.36000000000031,"velocity":0.7559055118110236,"duration":0.060000000000002274},{"name":"F#3","midi":54,"time":90.48000000000032,"velocity":0.5039370078740157,"duration":0.060000000000002274},{"name":"F#2","midi":42,"time":90.48000000000032,"velocity":0.5984251968503937,"duration":0.12000000000000455},{"name":"F#3","midi":54,"time":90.60000000000032,"velocity":0.7559055118110236,"duration":0.060000000000002274},{"name":"F#2","midi":42,"time":90.72000000000033,"velocity":0.6929133858267716,"duration":0.12000000000000455},{"name":"D#2","midi":39,"time":90.72000000000033,"velocity":0.6929133858267716,"duration":0.12000000000000455},{"name":"F#3","midi":54,"time":90.72000000000033,"velocity":0.5039370078740157,"duration":0.060000000000002274},{"name":"D2","midi":38,"time":90.72000000000033,"velocity":0.47244094488188976,"duration":0.12000000000000455},{"name":"C2","midi":36,"time":90.72000000000033,"velocity":0.9133858267716536,"duration":0.12000000000000455},{"name":"F#3","midi":54,"time":90.84000000000033,"velocity":0.7559055118110236,"duration":0.060000000000002274},{"name":"F#3","midi":54,"time":90.96000000000033,"velocity":0.5039370078740157,"duration":0.060000000000002274},{"name":"F#2","midi":42,"time":90.96000000000033,"velocity":0.5984251968503937,"duration":0.12000000000000455},{"name":"F#3","midi":54,"time":91.08000000000034,"velocity":0.7559055118110236,"duration":0.060000000000002274},{"name":"F#2","midi":42,"time":91.20000000000034,"velocity":0.6929133858267716,"duration":0.12000000000000455},{"name":"F#3","midi":54,"time":91.20000000000034,"velocity":0.5039370078740157,"duration":0.060000000000002274},{"name":"C2","midi":36,"time":91.20000000000034,"velocity":0.9133858267716536,"duration":0.12000000000000455},{"name":"F#3","midi":54,"time":91.32000000000035,"velocity":0.7559055118110236,"duration":0.060000000000002274},{"name":"F#3","midi":54,"time":91.44000000000035,"velocity":0.5039370078740157,"duration":0.060000000000002274},{"name":"F#2","midi":42,"time":91.44000000000035,"velocity":0.5984251968503937,"duration":0.12000000000000455},{"name":"F#3","midi":54,"time":91.56000000000036,"velocity":0.7559055118110236,"duration":0.060000000000002274},{"name":"F#2","midi":42,"time":91.68000000000036,"velocity":0.6929133858267716,"duration":0.12000000000000455},{"name":"D#2","midi":39,"time":91.68000000000036,"velocity":0.6929133858267716,"duration":0.12000000000000455},{"name":"F#3","midi":54,"time":91.68000000000036,"velocity":0.5039370078740157,"duration":0.030000000000001137},{"name":"D2","midi":38,"time":91.68000000000036,"velocity":0.47244094488188976,"duration":0.12000000000000455},{"name":"C2","midi":36,"time":91.68000000000036,"velocity":0.9133858267716536,"duration":0.12000000000000455},{"name":"F#3","midi":54,"time":91.71000000000036,"velocity":0.5039370078740157,"duration":0.030000000000001137},{"name":"F#3","midi":54,"time":91.80000000000037,"velocity":0.7559055118110236,"duration":0.060000000000002274},{"name":"F#3","midi":54,"time":91.92000000000037,"velocity":0.5039370078740157,"duration":0.060000000000002274},{"name":"F#2","midi":42,"time":91.92000000000037,"velocity":0.5984251968503937,"duration":0.12000000000000455},{"name":"F#3","midi":54,"time":92.04000000000038,"velocity":0.7559055118110236,"duration":0.060000000000002274},{"name":"F#2","midi":42,"time":92.16000000000038,"velocity":0.6929133858267716,"duration":0.12000000000000455},{"name":"F#3","midi":54,"time":92.16000000000038,"velocity":0.5039370078740157,"duration":0.060000000000002274},{"name":"C2","midi":36,"time":92.16000000000038,"velocity":0.9133858267716536,"duration":0.12000000000000455},{"name":"F#3","midi":54,"time":92.28000000000038,"velocity":0.7559055118110236,"duration":0.060000000000002274},{"name":"F#2","midi":42,"time":92.40000000000039,"velocity":0.5984251968503937,"duration":0.12000000000000455},{"name":"F#3","midi":54,"time":92.40000000000039,"velocity":0.5039370078740157,"duration":0.060000000000002274},{"name":"F#3","midi":54,"time":92.5200000000004,"velocity":0.7559055118110236,"duration":0.060000000000002274},{"name":"F#3","midi":54,"time":92.6400000000004,"velocity":0.5039370078740157,"duration":0.060000000000002274},{"name":"D#2","midi":39,"time":92.6400000000004,"velocity":0.6929133858267716,"duration":0.12000000000000455},{"name":"F#2","midi":42,"time":92.6400000000004,"velocity":0.6929133858267716,"duration":0.12000000000000455},{"name":"D2","midi":38,"time":92.6400000000004,"velocity":0.47244094488188976,"duration":0.12000000000000455},{"name":"C2","midi":36,"time":92.6400000000004,"velocity":0.9133858267716536,"duration":0.12000000000000455},{"name":"F#3","midi":54,"time":92.7600000000004,"velocity":0.7559055118110236,"duration":0.060000000000002274},{"name":"F#3","midi":54,"time":92.88000000000041,"velocity":0.5039370078740157,"duration":0.060000000000002274},{"name":"F#2","midi":42,"time":92.88000000000041,"velocity":0.5984251968503937,"duration":0.12000000000000455},{"name":"F#3","midi":54,"time":93.00000000000041,"velocity":0.7559055118110236,"duration":0.060000000000002274},{"name":"F#2","midi":42,"time":93.12000000000042,"velocity":0.6929133858267716,"duration":0.12000000000000455},{"name":"F#3","midi":54,"time":93.12000000000042,"velocity":0.5039370078740157,"duration":0.060000000000002274},{"name":"C2","midi":36,"time":93.12000000000042,"velocity":0.9133858267716536,"duration":0.12000000000000455},{"name":"F#3","midi":54,"time":93.24000000000042,"velocity":0.7559055118110236,"duration":0.060000000000002274},{"name":"F#2","midi":42,"time":93.36000000000043,"velocity":0.5984251968503937,"duration":0.12000000000000455},{"name":"F#3","midi":54,"time":93.36000000000043,"velocity":0.5039370078740157,"duration":0.060000000000002274},{"name":"F#3","midi":54,"time":93.48000000000043,"velocity":0.7559055118110236,"duration":0.060000000000002274},{"name":"F#3","midi":54,"time":93.60000000000043,"velocity":0.5039370078740157,"duration":0.030000000000001137},{"name":"D#2","midi":39,"time":93.60000000000043,"velocity":0.6929133858267716,"duration":0.12000000000000455},{"name":"F#2","midi":42,"time":93.60000000000043,"velocity":0.6929133858267716,"duration":0.12000000000000455},{"name":"D2","midi":38,"time":93.60000000000043,"velocity":0.47244094488188976,"duration":0.12000000000000455},{"name":"C2","midi":36,"time":93.60000000000043,"velocity":0.9133858267716536,"duration":0.12000000000000455},{"name":"F#3","midi":54,"time":93.63000000000044,"velocity":0.5039370078740157,"duration":0.030000000000001137},{"name":"F#3","midi":54,"time":93.72000000000044,"velocity":0.7559055118110236,"duration":0.060000000000002274},{"name":"F#3","midi":54,"time":93.84000000000044,"velocity":0.5039370078740157,"duration":0.060000000000002274},{"name":"F#2","midi":42,"time":93.84000000000044,"velocity":0.5984251968503937,"duration":0.12000000000000455},{"name":"F#3","midi":54,"time":93.96000000000045,"velocity":0.7559055118110236,"duration":0.060000000000002274},{"name":"F#2","midi":42,"time":94.08000000000045,"velocity":0.6929133858267716,"duration":0.12000000000000455},{"name":"F#3","midi":54,"time":94.08000000000045,"velocity":0.5039370078740157,"duration":0.060000000000002274},{"name":"C2","midi":36,"time":94.08000000000045,"velocity":0.9133858267716536,"duration":0.12000000000000455},{"name":"F#3","midi":54,"time":94.20000000000046,"velocity":0.7559055118110236,"duration":0.060000000000002274},{"name":"F#2","midi":42,"time":94.32000000000046,"velocity":0.5984251968503937,"duration":0.12000000000000455},{"name":"F#3","midi":54,"time":94.32000000000046,"velocity":0.5039370078740157,"duration":0.060000000000002274},{"name":"F#3","midi":54,"time":94.44000000000047,"velocity":0.7559055118110236,"duration":0.060000000000002274},{"name":"F#3","midi":54,"time":94.56000000000047,"velocity":0.5039370078740157,"duration":0.060000000000002274},{"name":"D#2","midi":39,"time":94.56000000000047,"velocity":0.6929133858267716,"duration":0.12000000000000455},{"name":"F#2","midi":42,"time":94.56000000000047,"velocity":0.6929133858267716,"duration":0.12000000000000455},{"name":"D2","midi":38,"time":94.56000000000047,"velocity":0.47244094488188976,"duration":0.12000000000000455},{"name":"C2","midi":36,"time":94.56000000000047,"velocity":0.9133858267716536,"duration":0.12000000000000455},{"name":"F#3","midi":54,"time":94.68000000000048,"velocity":0.7559055118110236,"duration":0.060000000000002274},{"name":"F#3","midi":54,"time":94.80000000000048,"velocity":0.5039370078740157,"duration":0.060000000000002274},{"name":"F#2","midi":42,"time":94.80000000000048,"velocity":0.5984251968503937,"duration":0.12000000000000455},{"name":"F#3","midi":54,"time":94.92000000000048,"velocity":0.7559055118110236,"duration":0.060000000000002274},{"name":"F#2","midi":42,"time":95.04000000000049,"velocity":0.6929133858267716,"duration":0.12000000000000455},{"name":"F#3","midi":54,"time":95.04000000000049,"velocity":0.5039370078740157,"duration":0.060000000000002274},{"name":"C2","midi":36,"time":95.04000000000049,"velocity":0.9133858267716536,"duration":0.12000000000000455},{"name":"F#3","midi":54,"time":95.1600000000005,"velocity":0.7559055118110236,"duration":0.060000000000002274},{"name":"F#2","midi":42,"time":95.2800000000005,"velocity":0.5984251968503937,"duration":0.12000000000000455},{"name":"F#3","midi":54,"time":95.2800000000005,"velocity":0.5039370078740157,"duration":0.060000000000002274},{"name":"F#3","midi":54,"time":95.4000000000005,"velocity":0.7559055118110236,"duration":0.060000000000002274},{"name":"F#3","midi":54,"time":95.52000000000051,"velocity":0.5039370078740157,"duration":0.030000000000001137},{"name":"D#2","midi":39,"time":95.52000000000051,"velocity":0.6929133858267716,"duration":0.12000000000000455},{"name":"F#2","midi":42,"time":95.52000000000051,"velocity":0.6929133858267716,"duration":0.12000000000000455},{"name":"D2","midi":38,"time":95.52000000000051,"velocity":0.47244094488188976,"duration":0.12000000000000455},{"name":"C2","midi":36,"time":95.52000000000051,"velocity":0.9133858267716536,"duration":0.12000000000000455},{"name":"F#3","midi":54,"time":95.55000000000051,"velocity":0.5039370078740157,"duration":0.030000000000001137},{"name":"F#3","midi":54,"time":95.64000000000051,"velocity":0.7559055118110236,"duration":0.060000000000002274},{"name":"F#3","midi":54,"time":95.76000000000052,"velocity":0.5039370078740157,"duration":0.060000000000002274},{"name":"F#2","midi":42,"time":95.76000000000052,"velocity":0.5984251968503937,"duration":0.12000000000000455},{"name":"F#3","midi":54,"time":95.88000000000052,"velocity":0.7559055118110236,"duration":0.060000000000002274},{"name":"F#2","midi":42,"time":96.00000000000053,"velocity":0.6929133858267716,"duration":0.12000000000000455},{"name":"F#3","midi":54,"time":96.00000000000053,"velocity":0.5039370078740157,"duration":0.060000000000002274},{"name":"C2","midi":36,"time":96.00000000000053,"velocity":0.9133858267716536,"duration":0.12000000000000455},{"name":"F#3","midi":54,"time":96.12000000000053,"velocity":0.7559055118110236,"duration":0.060000000000002274},{"name":"F#2","midi":42,"time":96.24000000000053,"velocity":0.5984251968503937,"duration":0.12000000000000455},{"name":"F#3","midi":54,"time":96.24000000000053,"velocity":0.5039370078740157,"duration":0.060000000000002274},{"name":"F#3","midi":54,"time":96.36000000000054,"velocity":0.7559055118110236,"duration":0.060000000000002274},{"name":"F#3","midi":54,"time":96.48000000000054,"velocity":0.5039370078740157,"duration":0.060000000000002274},{"name":"D#2","midi":39,"time":96.48000000000054,"velocity":0.6929133858267716,"duration":0.12000000000000455},{"name":"F#2","midi":42,"time":96.48000000000054,"velocity":0.6929133858267716,"duration":0.12000000000000455},{"name":"D2","midi":38,"time":96.48000000000054,"velocity":0.47244094488188976,"duration":0.12000000000000455},{"name":"C2","midi":36,"time":96.48000000000054,"velocity":0.9133858267716536,"duration":0.12000000000000455},{"name":"F#3","midi":54,"time":96.60000000000055,"velocity":0.7559055118110236,"duration":0.060000000000002274},{"name":"F#3","midi":54,"time":96.72000000000055,"velocity":0.5039370078740157,"duration":0.060000000000002274},{"name":"F#2","midi":42,"time":96.72000000000055,"velocity":0.5984251968503937,"duration":0.12000000000000455},{"name":"F#3","midi":54,"time":96.84000000000056,"velocity":0.7559055118110236,"duration":0.060000000000002274},{"name":"F#2","midi":42,"time":96.96000000000056,"velocity":0.6929133858267716,"duration":0.12000000000000455},{"name":"F#3","midi":54,"time":96.96000000000056,"velocity":0.5039370078740157,"duration":0.060000000000002274},{"name":"C2","midi":36,"time":96.96000000000056,"velocity":0.9133858267716536,"duration":0.12000000000000455},{"name":"F#3","midi":54,"time":97.08000000000057,"velocity":0.7559055118110236,"duration":0.060000000000002274},{"name":"F#2","midi":42,"time":97.20000000000057,"velocity":0.5984251968503937,"duration":0.12000000000000455},{"name":"F#3","midi":54,"time":97.20000000000057,"velocity":0.5039370078740157,"duration":0.060000000000002274},{"name":"F#3","midi":54,"time":97.32000000000058,"velocity":0.7559055118110236,"duration":0.060000000000002274},{"name":"F#3","midi":54,"time":97.44000000000058,"velocity":0.5039370078740157,"duration":0.030000000000001137},{"name":"D#2","midi":39,"time":97.44000000000058,"velocity":0.6929133858267716,"duration":0.12000000000000455},{"name":"F#2","midi":42,"time":97.44000000000058,"velocity":0.6929133858267716,"duration":0.12000000000000455},{"name":"D2","midi":38,"time":97.44000000000058,"velocity":0.47244094488188976,"duration":0.12000000000000455},{"name":"C2","midi":36,"time":97.44000000000058,"velocity":0.9133858267716536,"duration":0.12000000000000455},{"name":"F#3","midi":54,"time":97.47000000000058,"velocity":0.5039370078740157,"duration":0.030000000000001137},{"name":"F#3","midi":54,"time":97.56000000000058,"velocity":0.7559055118110236,"duration":0.060000000000002274},{"name":"F#3","midi":54,"time":97.68000000000059,"velocity":0.5039370078740157,"duration":0.060000000000002274},{"name":"F#2","midi":42,"time":97.68000000000059,"velocity":0.5984251968503937,"duration":0.12000000000000455},{"name":"F#3","midi":54,"time":97.8000000000006,"velocity":0.7559055118110236,"duration":0.060000000000002274},{"name":"F#2","midi":42,"time":97.9200000000006,"velocity":0.6929133858267716,"duration":0.12000000000000455},{"name":"F#3","midi":54,"time":97.9200000000006,"velocity":0.5039370078740157,"duration":0.060000000000002274},{"name":"C2","midi":36,"time":97.9200000000006,"velocity":0.9133858267716536,"duration":0.12000000000000455},{"name":"F#3","midi":54,"time":98.0400000000006,"velocity":0.7559055118110236,"duration":0.060000000000002274},{"name":"F#2","midi":42,"time":98.16000000000061,"velocity":0.5984251968503937,"duration":0.12000000000000455},{"name":"F#3","midi":54,"time":98.16000000000061,"velocity":0.5039370078740157,"duration":0.060000000000002274},{"name":"F#3","midi":54,"time":98.28000000000061,"velocity":0.7559055118110236,"duration":0.060000000000002274},{"name":"F#2","midi":42,"time":98.40000000000062,"velocity":0.6929133858267716,"duration":0.12000000000000455},{"name":"F#3","midi":54,"time":98.40000000000062,"velocity":0.5039370078740157,"duration":0.060000000000002274},{"name":"D#2","midi":39,"time":98.40000000000062,"velocity":0.6929133858267716,"duration":0.12000000000000455},{"name":"D2","midi":38,"time":98.40000000000062,"velocity":0.47244094488188976,"duration":0.12000000000000455},{"name":"C2","midi":36,"time":98.40000000000062,"velocity":0.9133858267716536,"duration":0.12000000000000455},{"name":"F#3","midi":54,"time":98.52000000000062,"velocity":0.7559055118110236,"duration":0.060000000000002274},{"name":"F#3","midi":54,"time":98.64000000000063,"velocity":0.5039370078740157,"duration":0.060000000000002274},{"name":"F#2","midi":42,"time":98.64000000000063,"velocity":0.5984251968503937,"duration":0.12000000000000455},{"name":"F#3","midi":54,"time":98.76000000000063,"velocity":0.7559055118110236,"duration":0.060000000000002274},{"name":"F#2","midi":42,"time":98.88000000000063,"velocity":0.6929133858267716,"duration":0.12000000000000455},{"name":"F#3","midi":54,"time":98.88000000000063,"velocity":0.5039370078740157,"duration":0.060000000000002274},{"name":"C2","midi":36,"time":98.88000000000063,"velocity":0.9133858267716536,"duration":0.12000000000000455},{"name":"F#3","midi":54,"time":99.00000000000064,"velocity":0.7559055118110236,"duration":0.060000000000002274},{"name":"F#2","midi":42,"time":99.12000000000064,"velocity":0.5984251968503937,"duration":0.12000000000000455},{"name":"F#3","midi":54,"time":99.12000000000064,"velocity":0.5039370078740157,"duration":0.060000000000002274},{"name":"F#3","midi":54,"time":99.24000000000065,"velocity":0.7559055118110236,"duration":0.060000000000002274},{"name":"F#2","midi":42,"time":99.36000000000065,"velocity":0.6929133858267716,"duration":0.12000000000000455},{"name":"F#3","midi":54,"time":99.36000000000065,"velocity":0.5039370078740157,"duration":0.030000000000001137},{"name":"D#2","midi":39,"time":99.36000000000065,"velocity":0.6929133858267716,"duration":0.12000000000000455},{"name":"D2","midi":38,"time":99.36000000000065,"velocity":0.47244094488188976,"duration":0.12000000000000455},{"name":"C2","midi":36,"time":99.36000000000065,"velocity":0.9133858267716536,"duration":0.12000000000000455},{"name":"F#3","midi":54,"time":99.39000000000065,"velocity":0.5039370078740157,"duration":0.030000000000001137},{"name":"F#3","midi":54,"time":99.48000000000066,"velocity":0.7559055118110236,"duration":0.060000000000002274},{"name":"F#2","midi":42,"time":99.60000000000066,"velocity":0.5039370078740157,"duration":0.12000000000000455},{"name":"F#3","midi":54,"time":99.60000000000066,"velocity":0.5039370078740157,"duration":0.060000000000002274},{"name":"F#3","midi":54,"time":99.72000000000067,"velocity":0.7559055118110236,"duration":0.060000000000002274},{"name":"F#3","midi":54,"time":99.84000000000067,"velocity":0.5039370078740157,"duration":0.060000000000002274},{"name":"C2","midi":36,"time":99.84000000000067,"velocity":0.9133858267716536,"duration":0.12000000000000455},{"name":"F#3","midi":54,"time":99.96000000000068,"velocity":0.7559055118110236,"duration":0.060000000000002274},{"name":"F#3","midi":54,"time":100.08000000000068,"velocity":0.5039370078740157,"duration":0.060000000000002274},{"name":"F#3","midi":54,"time":100.20000000000068,"velocity":0.7559055118110236,"duration":0.060000000000002274},{"name":"D#2","midi":39,"time":100.32000000000069,"velocity":0.4409448818897638,"duration":0.12000000000000455},{"name":"F#3","midi":54,"time":100.32000000000069,"velocity":0.8818897637795275,"duration":0.12000000000000455},{"name":"C2","midi":36,"time":100.32000000000069,"velocity":0.9133858267716536,"duration":0.12000000000000455},{"name":"F#3","midi":54,"time":100.4400000000007,"velocity":0.7559055118110236,"duration":0.060000000000002274},{"name":"F#3","midi":54,"time":100.5600000000007,"velocity":0.5039370078740157,"duration":0.060000000000002274},{"name":"F#3","midi":54,"time":100.6800000000007,"velocity":0.7559055118110236,"duration":0.060000000000002274},{"name":"F#3","midi":54,"time":100.80000000000071,"velocity":0.5039370078740157,"duration":0.060000000000002274},{"name":"C2","midi":36,"time":100.80000000000071,"velocity":0.9133858267716536,"duration":0.12000000000000455},{"name":"F#3","midi":54,"time":100.92000000000071,"velocity":0.7559055118110236,"duration":0.060000000000002274},{"name":"F#3","midi":54,"time":101.04000000000072,"velocity":0.5039370078740157,"duration":0.060000000000002274},{"name":"F#3","midi":54,"time":101.16000000000072,"velocity":0.7559055118110236,"duration":0.060000000000002274},{"name":"D#2","midi":39,"time":101.28000000000073,"velocity":0.3779527559055118,"duration":0.12000000000000455},{"name":"F#3","midi":54,"time":101.28000000000073,"velocity":0.8188976377952756,"duration":0.12000000000000455},{"name":"C2","midi":36,"time":101.28000000000073,"velocity":0.9133858267716536,"duration":0.12000000000000455},{"name":"F#3","midi":54,"time":101.40000000000073,"velocity":0.7559055118110236,"duration":0.060000000000002274},{"name":"F#3","midi":54,"time":101.52000000000073,"velocity":0.5039370078740157,"duration":0.060000000000002274},{"name":"F#3","midi":54,"time":101.64000000000074,"velocity":0.7559055118110236,"duration":0.060000000000002274},{"name":"F#3","midi":54,"time":101.76000000000074,"velocity":0.5039370078740157,"duration":0.060000000000002274},{"name":"C2","midi":36,"time":101.76000000000074,"velocity":0.9133858267716536,"duration":0.12000000000000455},{"name":"F#3","midi":54,"time":101.88000000000075,"velocity":0.7559055118110236,"duration":0.060000000000002274},{"name":"F#3","midi":54,"time":102.00000000000075,"velocity":0.5039370078740157,"duration":0.060000000000002274},{"name":"F#3","midi":54,"time":102.12000000000076,"velocity":0.7559055118110236,"duration":0.060000000000002274},{"name":"D#2","midi":39,"time":102.24000000000076,"velocity":0.31496062992125984,"duration":0.12000000000000455},{"name":"F#3","midi":54,"time":102.24000000000076,"velocity":0.7559055118110236,"duration":0.12000000000000455},{"name":"C2","midi":36,"time":102.24000000000076,"velocity":0.9133858267716536,"duration":0.12000000000000455},{"name":"F#3","midi":54,"time":102.36000000000077,"velocity":0.7559055118110236,"duration":0.060000000000002274},{"name":"F#3","midi":54,"time":102.48000000000077,"velocity":0.5039370078740157,"duration":0.060000000000002274},{"name":"F#3","midi":54,"time":102.60000000000078,"velocity":0.7559055118110236,"duration":0.060000000000002274},{"name":"F#3","midi":54,"time":102.72000000000078,"velocity":0.5039370078740157,"duration":0.060000000000002274},{"name":"C2","midi":36,"time":102.72000000000078,"velocity":0.9133858267716536,"duration":0.12000000000000455},{"name":"F#3","midi":54,"time":102.84000000000079,"velocity":0.7559055118110236,"duration":0.060000000000002274},{"name":"F#3","midi":54,"time":102.96000000000079,"velocity":0.5039370078740157,"duration":0.060000000000002274},{"name":"F#3","midi":54,"time":103.0800000000008,"velocity":0.7559055118110236,"duration":0.060000000000002274},{"name":"D#2","midi":39,"time":103.2000000000008,"velocity":0.25196850393700787,"duration":0.12000000000000455},{"name":"F#3","midi":54,"time":103.2000000000008,"velocity":0.6929133858267716,"duration":0.12000000000000455},{"name":"C2","midi":36,"time":103.2000000000008,"velocity":0.9133858267716536,"duration":0.12000000000000455},{"name":"F#3","midi":54,"time":103.3200000000008,"velocity":0.7559055118110236,"duration":0.060000000000002274},{"name":"F#3","midi":54,"time":103.44000000000081,"velocity":0.5039370078740157,"duration":0.060000000000002274},{"name":"F#3","midi":54,"time":103.56000000000081,"velocity":0.7559055118110236,"duration":0.060000000000002274},{"name":"F#3","midi":54,"time":103.68000000000082,"velocity":0.5039370078740157,"duration":0.060000000000002274},{"name":"C2","midi":36,"time":103.68000000000082,"velocity":0.9133858267716536,"duration":0.12000000000000455},{"name":"F#3","midi":54,"time":103.80000000000082,"velocity":0.7559055118110236,"duration":0.060000000000002274},{"name":"F#3","midi":54,"time":103.92000000000083,"velocity":0.5039370078740157,"duration":0.060000000000002274},{"name":"F#3","midi":54,"time":104.04000000000083,"velocity":0.7559055118110236,"duration":0.060000000000002274},{"name":"D#2","midi":39,"time":104.16000000000084,"velocity":0.1889763779527559,"duration":0.12000000000000455},{"name":"F#3","midi":54,"time":104.16000000000084,"velocity":0.6299212598425197,"duration":0.060000000000002274},{"name":"F#3","midi":54,"time":104.16000000000084,"velocity":0.5039370078740157,"duration":0.12000000000000455},{"name":"C2","midi":36,"time":104.16000000000084,"velocity":0.9133858267716536,"duration":0.12000000000000455},{"name":"F#3","midi":54,"time":104.28000000000084,"velocity":0.7559055118110236,"duration":0.060000000000002274},{"name":"F#3","midi":54,"time":104.40000000000084,"velocity":0.5039370078740157,"duration":0.060000000000002274},{"name":"F#3","midi":54,"time":104.52000000000085,"velocity":0.7559055118110236,"duration":0.060000000000002274},{"name":"F#3","midi":54,"time":104.64000000000085,"velocity":0.5039370078740157,"duration":0.060000000000002274},{"name":"C2","midi":36,"time":104.64000000000085,"velocity":0.9133858267716536,"duration":0.12000000000000455},{"name":"F#3","midi":54,"time":104.76000000000086,"velocity":0.7559055118110236,"duration":0.060000000000002274},{"name":"F#3","midi":54,"time":104.88000000000086,"velocity":0.5039370078740157,"duration":0.060000000000002274},{"name":"F#3","midi":54,"time":105.00000000000087,"velocity":0.7559055118110236,"duration":0.060000000000002274},{"name":"D#2","midi":39,"time":105.12000000000087,"velocity":0.12598425196850394,"duration":0.12000000000000455},{"name":"F#3","midi":54,"time":105.12000000000087,"velocity":0.5669291338582677,"duration":0.12000000000000455},{"name":"C2","midi":36,"time":105.12000000000087,"velocity":0.9133858267716536,"duration":0.12000000000000455},{"name":"F#3","midi":54,"time":105.24000000000088,"velocity":0.7559055118110236,"duration":0.060000000000002274},{"name":"F#3","midi":54,"time":105.36000000000088,"velocity":0.5039370078740157,"duration":0.060000000000002274},{"name":"F#3","midi":54,"time":105.48000000000089,"velocity":0.7559055118110236,"duration":0.060000000000002274},{"name":"F#3","midi":54,"time":105.60000000000089,"velocity":0.5039370078740157,"duration":0.060000000000002274},{"name":"C2","midi":36,"time":105.60000000000089,"velocity":0.9133858267716536,"duration":0.12000000000000455},{"name":"F#3","midi":54,"time":105.7200000000009,"velocity":0.7559055118110236,"duration":0.060000000000002274},{"name":"F#3","midi":54,"time":105.8400000000009,"velocity":0.5039370078740157,"duration":0.060000000000002274},{"name":"F#3","midi":54,"time":105.9600000000009,"velocity":0.7559055118110236,"duration":0.060000000000002274},{"name":"D#2","midi":39,"time":106.08000000000091,"velocity":0.05511811023622047,"duration":0.12000000000000455},{"name":"F#3","midi":54,"time":106.08000000000091,"velocity":0.49606299212598426,"duration":0.12000000000000455},{"name":"C2","midi":36,"time":106.08000000000091,"velocity":0.9133858267716536,"duration":0.12000000000000455},{"name":"F#3","midi":54,"time":106.20000000000091,"velocity":0.7559055118110236,"duration":0.060000000000002274},{"name":"F#3","midi":54,"time":106.32000000000092,"velocity":0.5039370078740157,"duration":0.060000000000002274},{"name":"F#3","midi":54,"time":106.44000000000092,"velocity":0.7559055118110236,"duration":0.060000000000002274},{"name":"F#3","midi":54,"time":106.56000000000093,"velocity":0.5039370078740157,"duration":0.060000000000002274},{"name":"C2","midi":36,"time":106.56000000000093,"velocity":0.9133858267716536,"duration":0.12000000000000455},{"name":"F#3","midi":54,"time":106.68000000000093,"velocity":0.7559055118110236,"duration":0.060000000000002274},{"name":"F#3","midi":54,"time":106.80000000000094,"velocity":0.5039370078740157,"duration":0.060000000000002274},{"name":"F#3","midi":54,"time":106.92000000000094,"velocity":0.7559055118110236,"duration":0.060000000000002274},{"name":"F#3","midi":54,"time":107.04000000000094,"velocity":0.5039370078740157,"duration":0.030000000000001137},{"name":"D#2","midi":39,"time":107.04000000000094,"velocity":0.007874015748031496,"duration":0.12000000000000455},{"name":"C2","midi":36,"time":107.04000000000094,"velocity":0.9133858267716536,"duration":0.12000000000000455},{"name":"F#3","midi":54,"time":107.07000000000095,"velocity":0.5039370078740157,"duration":0.030000000000001137},{"name":"F#3","midi":54,"time":107.16000000000095,"velocity":0.7559055118110236,"duration":0.060000000000002274},{"name":"F#3","midi":54,"time":107.28000000000095,"velocity":0.5039370078740157,"duration":0.060000000000002274},{"name":"F#3","midi":54,"time":107.40000000000096,"velocity":0.7559055118110236,"duration":0.060000000000002274},{"name":"F#3","midi":54,"time":107.52000000000096,"velocity":0.5039370078740157,"duration":0.060000000000002274},{"name":"C2","midi":36,"time":107.52000000000096,"velocity":0.9133858267716536,"duration":0.12000000000000455},{"name":"F#3","midi":54,"time":107.64000000000097,"velocity":0.7559055118110236,"duration":0.060000000000002274},{"name":"F#3","midi":54,"time":107.76000000000097,"velocity":0.5039370078740157,"duration":0.060000000000002274},{"name":"F#3","midi":54,"time":107.88000000000098,"velocity":0.7559055118110236,"duration":0.060000000000002274},{"name":"D#2","midi":39,"time":108.00000000000098,"velocity":0.007874015748031496,"duration":0.12000000000000455},{"name":"F#3","midi":54,"time":108.00000000000098,"velocity":0.5039370078740157,"duration":0.060000000000002274},{"name":"C2","midi":36,"time":108.00000000000098,"velocity":0.9133858267716536,"duration":0.12000000000000455},{"name":"F#3","midi":54,"time":108.12000000000099,"velocity":0.7559055118110236,"duration":0.060000000000002274},{"name":"F#3","midi":54,"time":108.24000000000099,"velocity":0.5039370078740157,"duration":0.060000000000002274},{"name":"F#3","midi":54,"time":108.360000000001,"velocity":0.7559055118110236,"duration":0.060000000000002274},{"name":"F#3","midi":54,"time":108.480000000001,"velocity":0.5039370078740157,"duration":0.060000000000002274},{"name":"C2","midi":36,"time":108.480000000001,"velocity":0.9133858267716536,"duration":0.12000000000000455},{"name":"F#3","midi":54,"time":108.600000000001,"velocity":0.7559055118110236,"duration":0.060000000000002274},{"name":"F#3","midi":54,"time":108.72000000000101,"velocity":0.5039370078740157,"duration":0.060000000000002274},{"name":"F#3","midi":54,"time":108.84000000000101,"velocity":0.7559055118110236,"duration":0.060000000000002274},{"name":"D#2","midi":39,"time":108.96000000000102,"velocity":0.007874015748031496,"duration":0.12000000000000455},{"name":"F#3","midi":54,"time":108.96000000000102,"velocity":0.5039370078740157,"duration":0.030000000000001137},{"name":"C2","midi":36,"time":108.96000000000102,"velocity":0.9133858267716536,"duration":0.12000000000000455},{"name":"F#3","midi":54,"time":108.99000000000102,"velocity":0.5039370078740157,"duration":0.030000000000001137},{"name":"F#3","midi":54,"time":109.08000000000102,"velocity":0.7559055118110236,"duration":0.060000000000002274},{"name":"F#3","midi":54,"time":109.20000000000103,"velocity":0.5039370078740157,"duration":0.060000000000002274},{"name":"F#3","midi":54,"time":109.32000000000103,"velocity":0.7559055118110236,"duration":0.060000000000002274},{"name":"F#3","midi":54,"time":109.44000000000104,"velocity":0.5039370078740157,"duration":0.060000000000002274},{"name":"C2","midi":36,"time":109.44000000000104,"velocity":0.9133858267716536,"duration":0.12000000000000455},{"name":"F#3","midi":54,"time":109.56000000000104,"velocity":0.7559055118110236,"duration":0.060000000000002274},{"name":"F#3","midi":54,"time":109.68000000000104,"velocity":0.5039370078740157,"duration":0.060000000000002274},{"name":"F#3","midi":54,"time":109.80000000000105,"velocity":0.7559055118110236,"duration":0.060000000000002274},{"name":"D#2","midi":39,"time":109.92000000000105,"velocity":0.007874015748031496,"duration":0.12000000000000455},{"name":"F#3","midi":54,"time":109.92000000000105,"velocity":0.5039370078740157,"duration":0.060000000000002274},{"name":"C2","midi":36,"time":109.92000000000105,"velocity":0.9133858267716536,"duration":0.12000000000000455},{"name":"F#3","midi":54,"time":110.04000000000106,"velocity":0.7559055118110236,"duration":0.060000000000002274},{"name":"F#3","midi":54,"time":110.16000000000106,"velocity":0.5039370078740157,"duration":0.060000000000002274},{"name":"F#3","midi":54,"time":110.28000000000107,"velocity":0.7559055118110236,"duration":0.060000000000002274},{"name":"F#3","midi":54,"time":110.40000000000107,"velocity":0.5039370078740157,"duration":0.060000000000002274},{"name":"C2","midi":36,"time":110.40000000000107,"velocity":0.9133858267716536,"duration":0.12000000000000455},{"name":"F#3","midi":54,"time":110.52000000000108,"velocity":0.7559055118110236,"duration":0.060000000000002274},{"name":"F#3","midi":54,"time":110.64000000000108,"velocity":0.5039370078740157,"duration":0.060000000000002274},{"name":"F#3","midi":54,"time":110.76000000000109,"velocity":0.7559055118110236,"duration":0.060000000000002274},{"name":"D#2","midi":39,"time":110.88000000000109,"velocity":0.007874015748031496,"duration":0.12000000000000455},{"name":"F#3","midi":54,"time":110.88000000000109,"velocity":0.5039370078740157,"duration":0.030000000000001137},{"name":"C2","midi":36,"time":110.88000000000109,"velocity":0.9133858267716536,"duration":0.12000000000000455},{"name":"F#3","midi":54,"time":110.91000000000109,"velocity":0.5039370078740157,"duration":0.030000000000001137},{"name":"F#3","midi":54,"time":111.0000000000011,"velocity":0.7559055118110236,"duration":0.060000000000002274},{"name":"F#3","midi":54,"time":111.1200000000011,"velocity":0.5039370078740157,"duration":0.060000000000002274},{"name":"F#3","midi":54,"time":111.2400000000011,"velocity":0.7559055118110236,"duration":0.060000000000002274},{"name":"F#3","midi":54,"time":111.36000000000111,"velocity":0.5039370078740157,"duration":0.060000000000002274},{"name":"C2","midi":36,"time":111.36000000000111,"velocity":0.9133858267716536,"duration":0.12000000000000455},{"name":"F#3","midi":54,"time":111.48000000000111,"velocity":0.7559055118110236,"duration":0.060000000000002274},{"name":"F#3","midi":54,"time":111.60000000000112,"velocity":0.5039370078740157,"duration":0.060000000000002274},{"name":"F#3","midi":54,"time":111.72000000000112,"velocity":0.7559055118110236,"duration":0.060000000000002274},{"name":"D#2","midi":39,"time":111.84000000000113,"velocity":0.007874015748031496,"duration":0.12000000000000455},{"name":"F#3","midi":54,"time":111.84000000000113,"velocity":0.5039370078740157,"duration":0.060000000000002274},{"name":"C2","midi":36,"time":111.84000000000113,"velocity":0.9133858267716536,"duration":0.12000000000000455},{"name":"F#3","midi":54,"time":111.96000000000113,"velocity":0.7559055118110236,"duration":0.060000000000002274},{"name":"F#3","midi":54,"time":112.08000000000114,"velocity":0.5039370078740157,"duration":0.060000000000002274},{"name":"F#3","midi":54,"time":112.20000000000114,"velocity":0.7559055118110236,"duration":0.060000000000002274},{"name":"F#3","midi":54,"time":112.32000000000114,"velocity":0.5039370078740157,"duration":0.060000000000002274},{"name":"C2","midi":36,"time":112.32000000000114,"velocity":0.8110236220472441,"duration":0.12000000000000455},{"name":"F#3","midi":54,"time":112.44000000000115,"velocity":0.7559055118110236,"duration":0.060000000000002274},{"name":"F#3","midi":54,"time":112.56000000000115,"velocity":0.5039370078740157,"duration":0.060000000000002274},{"name":"F#3","midi":54,"time":112.68000000000116,"velocity":0.7559055118110236,"duration":0.060000000000002274},{"name":"F#3","midi":54,"time":112.80000000000116,"velocity":0.5039370078740157,"duration":0.030000000000001137},{"name":"D#2","midi":39,"time":112.80000000000116,"velocity":0.007874015748031496,"duration":0.12000000000000455},{"name":"C2","midi":36,"time":112.80000000000116,"velocity":0.6929133858267716,"duration":0.12000000000000455},{"name":"F#3","midi":54,"time":112.83000000000116,"velocity":0.5039370078740157,"duration":0.030000000000001137},{"name":"F#3","midi":54,"time":112.92000000000117,"velocity":0.7559055118110236,"duration":0.060000000000002274},{"name":"F#3","midi":54,"time":113.04000000000117,"velocity":0.5039370078740157,"duration":0.060000000000002274},{"name":"F#3","midi":54,"time":113.16000000000118,"velocity":0.7559055118110236,"duration":0.060000000000002274},{"name":"C2","midi":36,"time":113.28000000000118,"velocity":0.5984251968503937,"duration":0.12000000000000455},{"name":"F#3","midi":54,"time":113.28000000000118,"velocity":0.5039370078740157,"duration":0.060000000000002274},{"name":"F#3","midi":54,"time":113.40000000000119,"velocity":0.7559055118110236,"duration":0.060000000000002274},{"name":"F#3","midi":54,"time":113.52000000000119,"velocity":0.5039370078740157,"duration":0.060000000000002274},{"name":"F#3","midi":54,"time":113.6400000000012,"velocity":0.7559055118110236,"duration":0.060000000000002274},{"name":"D#2","midi":39,"time":113.7600000000012,"velocity":0.007874015748031496,"duration":0.12000000000000455},{"name":"F#3","midi":54,"time":113.7600000000012,"velocity":0.5039370078740157,"duration":0.060000000000002274},{"name":"C2","midi":36,"time":113.7600000000012,"velocity":0.5118110236220472,"duration":0.12000000000000455},{"name":"F#3","midi":54,"time":113.8800000000012,"velocity":0.7559055118110236,"duration":0.060000000000002274},{"name":"F#3","midi":54,"time":114.00000000000121,"velocity":0.5039370078740157,"duration":0.060000000000002274},{"name":"F#3","midi":54,"time":114.12000000000121,"velocity":0.7559055118110236,"duration":0.060000000000002274},{"name":"C2","midi":36,"time":114.24000000000122,"velocity":0.4330708661417323,"duration":0.12000000000000455},{"name":"F#3","midi":54,"time":114.24000000000122,"velocity":0.5039370078740157,"duration":0.060000000000002274},{"name":"F#3","midi":54,"time":114.36000000000122,"velocity":0.7559055118110236,"duration":0.060000000000002274},{"name":"F#3","midi":54,"time":114.48000000000123,"velocity":0.5039370078740157,"duration":0.060000000000002274},{"name":"F#3","midi":54,"time":114.60000000000123,"velocity":0.7559055118110236,"duration":0.060000000000002274},{"name":"D#2","midi":39,"time":114.72000000000124,"velocity":0.007874015748031496,"duration":0.12000000000000455},{"name":"F#3","midi":54,"time":114.72000000000124,"velocity":0.5039370078740157,"duration":0.030000000000001137},{"name":"C2","midi":36,"time":114.72000000000124,"velocity":0.3543307086614173,"duration":0.12000000000000455},{"name":"F#3","midi":54,"time":114.75000000000124,"velocity":0.5039370078740157,"duration":0.030000000000001137},{"name":"F#3","midi":54,"time":114.84000000000124,"velocity":0.7559055118110236,"duration":0.060000000000002274},{"name":"F#3","midi":54,"time":114.96000000000124,"velocity":0.5039370078740157,"duration":0.060000000000002274},{"name":"F#3","midi":54,"time":115.08000000000125,"velocity":0.7559055118110236,"duration":0.060000000000002274},{"name":"C2","midi":36,"time":115.20000000000125,"velocity":0.33858267716535434,"duration":0.12000000000000455},{"name":"C2","midi":36,"time":115.68000000000126,"velocity":0.33858267716535434,"duration":0.12000000000000455},{"name":"C2","midi":36,"time":116.16000000000126,"velocity":0.33070866141732286,"duration":0.12000000000000455},{"name":"C2","midi":36,"time":116.64000000000127,"velocity":0.3228346456692913,"duration":0.12000000000000455},{"name":"C2","midi":36,"time":117.12000000000127,"velocity":0.3228346456692913,"duration":0.12000000000000455},{"name":"C2","midi":36,"time":117.60000000000127,"velocity":0.31496062992125984,"duration":0.12000000000000455},{"name":"C2","midi":36,"time":118.08000000000128,"velocity":0.30708661417322836,"duration":0.12000000000000455},{"name":"C2","midi":36,"time":118.56000000000128,"velocity":0.2992125984251969,"duration":0.12000000000000455},{"name":"C2","midi":36,"time":119.04000000000129,"velocity":0.2992125984251969,"duration":0.12000000000000455},{"name":"C2","midi":36,"time":119.52000000000129,"velocity":0.29133858267716534,"duration":0.12000000000000455},{"name":"C2","midi":36,"time":120.0000000000013,"velocity":0.28346456692913385,"duration":0.12000000000000455},{"name":"C2","midi":36,"time":120.4800000000013,"velocity":0.2755905511811024,"duration":0.12000000000000455},{"name":"C2","midi":36,"time":120.9600000000013,"velocity":0.2755905511811024,"duration":0.12000000000000455},{"name":"C2","midi":36,"time":121.4400000000013,"velocity":0.2677165354330709,"duration":0.12000000000000455},{"name":"C2","midi":36,"time":121.92000000000131,"velocity":0.25984251968503935,"duration":0.12000000000000455},{"name":"C2","midi":36,"time":122.40000000000131,"velocity":0.25196850393700787,"duration":0.12000000000000455},{"name":"C2","midi":36,"time":122.88000000000132,"velocity":0.25196850393700787,"duration":0.12000000000000455},{"name":"C2","midi":36,"time":123.36000000000132,"velocity":0.2440944881889764,"duration":0.12000000000000455},{"name":"C2","midi":36,"time":123.84000000000133,"velocity":0.23622047244094488,"duration":0.12000000000000455},{"name":"C2","midi":36,"time":124.32000000000133,"velocity":0.25984251968503935,"duration":0.12000000000000455},{"name":"C2","midi":36,"time":124.80000000000133,"velocity":0.28346456692913385,"duration":0.12000000000000455},{"name":"C2","midi":36,"time":125.28000000000134,"velocity":0.30708661417322836,"duration":0.12000000000000455},{"name":"C2","midi":36,"time":125.76000000000134,"velocity":0.33070866141732286,"duration":0.12000000000000455},{"name":"C2","midi":36,"time":126.24000000000134,"velocity":0.3543307086614173,"duration":0.12000000000000455},{"name":"C2","midi":36,"time":126.72000000000135,"velocity":0.3779527559055118,"duration":0.12000000000000455},{"name":"C2","midi":36,"time":127.20000000000135,"velocity":0.4015748031496063,"duration":0.12000000000000455},{"name":"C2","midi":36,"time":127.68000000000136,"velocity":0.41732283464566927,"duration":0.12000000000000455},{"name":"C2","midi":36,"time":128.16000000000136,"velocity":0.4409448818897638,"duration":0.12000000000000455},{"name":"C2","midi":36,"time":128.64000000000138,"velocity":0.4645669291338583,"duration":0.12000000000000455},{"name":"C2","midi":36,"time":129.1200000000014,"velocity":0.4881889763779528,"duration":0.12000000000000455},{"name":"C2","midi":36,"time":129.60000000000142,"velocity":0.5118110236220472,"duration":0.12000000000000455},{"name":"C2","midi":36,"time":130.08000000000143,"velocity":0.5354330708661418,"duration":0.12000000000000455},{"name":"C2","midi":36,"time":130.56000000000145,"velocity":0.5590551181102362,"duration":0.12000000000000455},{"name":"C2","midi":36,"time":131.04000000000147,"velocity":0.5826771653543307,"duration":0.12000000000000455},{"name":"C2","midi":36,"time":131.5200000000015,"velocity":0.6062992125984252,"duration":0.12000000000000455},{"name":"C2","midi":36,"time":132.0000000000015,"velocity":0.6299212598425197,"duration":0.12000000000000455},{"name":"C2","midi":36,"time":132.48000000000152,"velocity":0.6535433070866141,"duration":0.12000000000000455},{"name":"C2","midi":36,"time":132.96000000000154,"velocity":0.6771653543307087,"duration":0.12000000000000455},{"name":"C2","midi":36,"time":133.44000000000156,"velocity":0.7007874015748031,"duration":0.12000000000000455},{"name":"C2","midi":36,"time":133.92000000000158,"velocity":0.7165354330708661,"duration":0.12000000000000455},{"name":"F#3","midi":54,"time":134.4000000000016,"velocity":0.5039370078740157,"duration":0.060000000000002274},{"name":"F#3","midi":54,"time":134.5200000000016,"velocity":0.7559055118110236,"duration":0.060000000000002274},{"name":"F#3","midi":54,"time":134.6400000000016,"velocity":0.5039370078740157,"duration":0.060000000000002274},{"name":"F#3","midi":54,"time":134.7600000000016,"velocity":0.7559055118110236,"duration":0.060000000000002274},{"name":"D#2","midi":39,"time":134.88000000000162,"velocity":0.49606299212598426,"duration":0.12000000000000455},{"name":"F#3","midi":54,"time":134.88000000000162,"velocity":0.5039370078740157,"duration":0.060000000000002274},{"name":"F#3","midi":54,"time":135.00000000000162,"velocity":0.7559055118110236,"duration":0.060000000000002274},{"name":"F#3","midi":54,"time":135.12000000000162,"velocity":0.5039370078740157,"duration":0.060000000000002274},{"name":"F#3","midi":54,"time":135.24000000000163,"velocity":0.7559055118110236,"duration":0.060000000000002274},{"name":"F#3","midi":54,"time":135.36000000000163,"velocity":0.5039370078740157,"duration":0.060000000000002274},{"name":"F#3","midi":54,"time":135.48000000000164,"velocity":0.7559055118110236,"duration":0.060000000000002274},{"name":"F#3","midi":54,"time":135.60000000000164,"velocity":0.5039370078740157,"duration":0.060000000000002274},{"name":"F#3","midi":54,"time":135.72000000000165,"velocity":0.7559055118110236,"duration":0.060000000000002274},{"name":"F#3","midi":54,"time":135.84000000000165,"velocity":0.5039370078740157,"duration":0.030000000000001137},{"name":"D#2","midi":39,"time":135.84000000000165,"velocity":0.49606299212598426,"duration":0.12000000000000455},{"name":"F#3","midi":54,"time":135.87000000000165,"velocity":0.5039370078740157,"duration":0.030000000000001137},{"name":"F#3","midi":54,"time":135.96000000000166,"velocity":0.7559055118110236,"duration":0.060000000000002274},{"name":"F#3","midi":54,"time":136.08000000000166,"velocity":0.5039370078740157,"duration":0.060000000000002274},{"name":"F#3","midi":54,"time":136.20000000000167,"velocity":0.7559055118110236,"duration":0.060000000000002274},{"name":"F#3","midi":54,"time":136.32000000000167,"velocity":0.5039370078740157,"duration":0.060000000000002274},{"name":"F#3","midi":54,"time":136.44000000000167,"velocity":0.7559055118110236,"duration":0.060000000000002274},{"name":"F#3","midi":54,"time":136.56000000000168,"velocity":0.5039370078740157,"duration":0.060000000000002274},{"name":"F#3","midi":54,"time":136.68000000000168,"velocity":0.7559055118110236,"duration":0.060000000000002274},{"name":"D#2","midi":39,"time":136.8000000000017,"velocity":0.49606299212598426,"duration":0.12000000000000455},{"name":"F#3","midi":54,"time":136.8000000000017,"velocity":0.5039370078740157,"duration":0.060000000000002274},{"name":"F#3","midi":54,"time":136.9200000000017,"velocity":0.7559055118110236,"duration":0.060000000000002274},{"name":"F#3","midi":54,"time":137.0400000000017,"velocity":0.5039370078740157,"duration":0.060000000000002274},{"name":"F#3","midi":54,"time":137.1600000000017,"velocity":0.7559055118110236,"duration":0.060000000000002274},{"name":"F#3","midi":54,"time":137.2800000000017,"velocity":0.5039370078740157,"duration":0.060000000000002274},{"name":"F#3","midi":54,"time":137.4000000000017,"velocity":0.7559055118110236,"duration":0.060000000000002274},{"name":"F#3","midi":54,"time":137.52000000000172,"velocity":0.5039370078740157,"duration":0.060000000000002274},{"name":"F#3","midi":54,"time":137.64000000000172,"velocity":0.7559055118110236,"duration":0.060000000000002274},{"name":"F#3","midi":54,"time":137.76000000000172,"velocity":0.5039370078740157,"duration":0.030000000000001137},{"name":"D#2","midi":39,"time":137.76000000000172,"velocity":0.49606299212598426,"duration":0.12000000000000455},{"name":"F#3","midi":54,"time":137.79000000000173,"velocity":0.5039370078740157,"duration":0.030000000000001137},{"name":"F#3","midi":54,"time":137.88000000000173,"velocity":0.7559055118110236,"duration":0.060000000000002274},{"name":"F#3","midi":54,"time":138.00000000000173,"velocity":0.5039370078740157,"duration":0.060000000000002274},{"name":"F#3","midi":54,"time":138.12000000000174,"velocity":0.7559055118110236,"duration":0.060000000000002274},{"name":"F#3","midi":54,"time":138.24000000000174,"velocity":0.3779527559055118,"duration":0.060000000000002274},{"name":"C2","midi":36,"time":138.24000000000174,"velocity":0.9133858267716536,"duration":0.12000000000000455},{"name":"F#2","midi":42,"time":138.24000000000174,"velocity":0.6929133858267716,"duration":0.12000000000000455},{"name":"C#3","midi":49,"time":138.24000000000174,"velocity":1,"duration":0.2400000000000091},{"name":"C2","midi":36,"time":138.24000000000174,"velocity":1,"duration":0.2400000000000091},{"name":"F#3","midi":54,"time":138.36000000000175,"velocity":0.6299212598425197,"duration":0.060000000000002274},{"name":"F#3","midi":54,"time":138.48000000000175,"velocity":0.3779527559055118,"duration":0.060000000000002274},{"name":"F#2","midi":42,"time":138.48000000000175,"velocity":0.5984251968503937,"duration":0.12000000000000455},{"name":"F#3","midi":54,"time":138.60000000000176,"velocity":0.6299212598425197,"duration":0.060000000000002274},{"name":"C2","midi":36,"time":138.72000000000176,"velocity":0.9133858267716536,"duration":0.12000000000000455},{"name":"D#2","midi":39,"time":138.72000000000176,"velocity":0.6929133858267716,"duration":0.12000000000000455},{"name":"F#2","midi":42,"time":138.72000000000176,"velocity":0.6929133858267716,"duration":0.12000000000000455},{"name":"D2","midi":38,"time":138.72000000000176,"velocity":0.5354330708661418,"duration":0.12000000000000455},{"name":"F#3","midi":54,"time":138.72000000000176,"velocity":0.3779527559055118,"duration":0.060000000000002274},{"name":"F#3","midi":54,"time":138.84000000000177,"velocity":0.6299212598425197,"duration":0.060000000000002274},{"name":"F#3","midi":54,"time":138.96000000000177,"velocity":0.3779527559055118,"duration":0.060000000000002274},{"name":"F#2","midi":42,"time":138.96000000000177,"velocity":0.5984251968503937,"duration":0.12000000000000455},{"name":"F#3","midi":54,"time":139.08000000000177,"velocity":0.6299212598425197,"duration":0.060000000000002274},{"name":"F#3","midi":54,"time":139.20000000000178,"velocity":0.3779527559055118,"duration":0.060000000000002274},{"name":"F#2","midi":42,"time":139.20000000000178,"velocity":0.6929133858267716,"duration":0.12000000000000455},{"name":"C2","midi":36,"time":139.20000000000178,"velocity":0.9133858267716536,"duration":0.12000000000000455},{"name":"F#3","midi":54,"time":139.32000000000178,"velocity":0.6299212598425197,"duration":0.060000000000002274},{"name":"F#2","midi":42,"time":139.4400000000018,"velocity":0.5984251968503937,"duration":0.12000000000000455},{"name":"F#3","midi":54,"time":139.4400000000018,"velocity":0.3779527559055118,"duration":0.060000000000002274},{"name":"F#3","midi":54,"time":139.5600000000018,"velocity":0.6299212598425197,"duration":0.060000000000002274},{"name":"F#3","midi":54,"time":139.6800000000018,"velocity":0.3779527559055118,"duration":0.030000000000001137},{"name":"D2","midi":38,"time":139.6800000000018,"velocity":0.5354330708661418,"duration":0.12000000000000455},{"name":"F#2","midi":42,"time":139.6800000000018,"velocity":0.6929133858267716,"duration":0.12000000000000455},{"name":"D#2","midi":39,"time":139.6800000000018,"velocity":0.6929133858267716,"duration":0.12000000000000455},{"name":"C2","midi":36,"time":139.6800000000018,"velocity":0.9133858267716536,"duration":0.12000000000000455},{"name":"F#3","midi":54,"time":139.7100000000018,"velocity":0.3779527559055118,"duration":0.030000000000001137},{"name":"F#3","midi":54,"time":139.8000000000018,"velocity":0.6299212598425197,"duration":0.060000000000002274},{"name":"F#2","midi":42,"time":139.9200000000018,"velocity":0.5984251968503937,"duration":0.12000000000000455},{"name":"F#3","midi":54,"time":139.9200000000018,"velocity":0.3779527559055118,"duration":0.060000000000002274},{"name":"F#3","midi":54,"time":140.0400000000018,"velocity":0.6299212598425197,"duration":0.060000000000002274},{"name":"F#2","midi":42,"time":140.16000000000182,"velocity":0.6929133858267716,"duration":0.12000000000000455},{"name":"C2","midi":36,"time":140.16000000000182,"velocity":0.9133858267716536,"duration":0.12000000000000455},{"name":"F#3","midi":54,"time":140.16000000000182,"velocity":0.3779527559055118,"duration":0.060000000000002274},{"name":"F#3","midi":54,"time":140.28000000000182,"velocity":0.6299212598425197,"duration":0.060000000000002274},{"name":"F#2","midi":42,"time":140.40000000000182,"velocity":0.5984251968503937,"duration":0.12000000000000455},{"name":"F#3","midi":54,"time":140.40000000000182,"velocity":0.3779527559055118,"duration":0.060000000000002274},{"name":"F#3","midi":54,"time":140.52000000000183,"velocity":0.6299212598425197,"duration":0.060000000000002274},{"name":"C2","midi":36,"time":140.64000000000183,"velocity":0.9133858267716536,"duration":0.12000000000000455},{"name":"D#2","midi":39,"time":140.64000000000183,"velocity":0.6929133858267716,"duration":0.12000000000000455},{"name":"F#2","midi":42,"time":140.64000000000183,"velocity":0.6929133858267716,"duration":0.12000000000000455},{"name":"D2","midi":38,"time":140.64000000000183,"velocity":0.5354330708661418,"duration":0.12000000000000455},{"name":"F#3","midi":54,"time":140.64000000000183,"velocity":0.3779527559055118,"duration":0.060000000000002274},{"name":"F#3","midi":54,"time":140.76000000000184,"velocity":0.6299212598425197,"duration":0.060000000000002274},{"name":"F#3","midi":54,"time":140.88000000000184,"velocity":0.3779527559055118,"duration":0.060000000000002274},{"name":"F#2","midi":42,"time":140.88000000000184,"velocity":0.5984251968503937,"duration":0.12000000000000455},{"name":"F#3","midi":54,"time":141.00000000000185,"velocity":0.6299212598425197,"duration":0.060000000000002274},{"name":"F#3","midi":54,"time":141.12000000000185,"velocity":0.3779527559055118,"duration":0.060000000000002274},{"name":"F#2","midi":42,"time":141.12000000000185,"velocity":0.6929133858267716,"duration":0.12000000000000455},{"name":"C2","midi":36,"time":141.12000000000185,"velocity":0.9133858267716536,"duration":0.12000000000000455},{"name":"F#3","midi":54,"time":141.24000000000186,"velocity":0.6299212598425197,"duration":0.060000000000002274},{"name":"F#3","midi":54,"time":141.36000000000186,"velocity":0.3779527559055118,"duration":0.060000000000002274},{"name":"F#2","midi":42,"time":141.36000000000186,"velocity":0.5984251968503937,"duration":0.12000000000000455},{"name":"F#3","midi":54,"time":141.48000000000187,"velocity":0.6299212598425197,"duration":0.060000000000002274},{"name":"F#3","midi":54,"time":141.60000000000187,"velocity":0.3779527559055118,"duration":0.030000000000001137},{"name":"D2","midi":38,"time":141.60000000000187,"velocity":0.5354330708661418,"duration":0.12000000000000455},{"name":"F#2","midi":42,"time":141.60000000000187,"velocity":0.6929133858267716,"duration":0.12000000000000455},{"name":"D#2","midi":39,"time":141.60000000000187,"velocity":0.6929133858267716,"duration":0.12000000000000455},{"name":"C2","midi":36,"time":141.60000000000187,"velocity":0.9133858267716536,"duration":0.12000000000000455},{"name":"F#3","midi":54,"time":141.63000000000187,"velocity":0.3779527559055118,"duration":0.030000000000001137},{"name":"F#3","midi":54,"time":141.72000000000187,"velocity":0.6299212598425197,"duration":0.060000000000002274},{"name":"F#3","midi":54,"time":141.84000000000188,"velocity":0.3779527559055118,"duration":0.060000000000002274},{"name":"F#2","midi":42,"time":141.84000000000188,"velocity":0.5984251968503937,"duration":0.12000000000000455},{"name":"F#3","midi":54,"time":141.96000000000188,"velocity":0.6299212598425197,"duration":0.060000000000002274},{"name":"F#2","midi":42,"time":142.0800000000019,"velocity":0.6929133858267716,"duration":0.12000000000000455},{"name":"C2","midi":36,"time":142.0800000000019,"velocity":0.9133858267716536,"duration":0.12000000000000455},{"name":"F#3","midi":54,"time":142.0800000000019,"velocity":0.3779527559055118,"duration":0.060000000000002274},{"name":"F#3","midi":54,"time":142.2000000000019,"velocity":0.6299212598425197,"duration":0.060000000000002274},{"name":"F#2","midi":42,"time":142.3200000000019,"velocity":0.5984251968503937,"duration":0.12000000000000455},{"name":"F#3","midi":54,"time":142.3200000000019,"velocity":0.3779527559055118,"duration":0.060000000000002274},{"name":"F#3","midi":54,"time":142.4400000000019,"velocity":0.6299212598425197,"duration":0.060000000000002274},{"name":"C2","midi":36,"time":142.5600000000019,"velocity":0.9133858267716536,"duration":0.12000000000000455},{"name":"D#2","midi":39,"time":142.5600000000019,"velocity":0.6929133858267716,"duration":0.12000000000000455},{"name":"F#2","midi":42,"time":142.5600000000019,"velocity":0.6929133858267716,"duration":0.12000000000000455},{"name":"D2","midi":38,"time":142.5600000000019,"velocity":0.5354330708661418,"duration":0.12000000000000455},{"name":"F#3","midi":54,"time":142.5600000000019,"velocity":0.3779527559055118,"duration":0.060000000000002274},{"name":"F#3","midi":54,"time":142.6800000000019,"velocity":0.6299212598425197,"duration":0.060000000000002274},{"name":"F#3","midi":54,"time":142.80000000000192,"velocity":0.3779527559055118,"duration":0.060000000000002274},{"name":"F#2","midi":42,"time":142.80000000000192,"velocity":0.5984251968503937,"duration":0.12000000000000455},{"name":"F#3","midi":54,"time":142.92000000000192,"velocity":0.6299212598425197,"duration":0.060000000000002274},{"name":"C2","midi":36,"time":143.04000000000192,"velocity":0.9133858267716536,"duration":0.12000000000000455},{"name":"F#2","midi":42,"time":143.04000000000192,"velocity":0.6929133858267716,"duration":0.12000000000000455},{"name":"F#3","midi":54,"time":143.04000000000192,"velocity":0.3779527559055118,"duration":0.060000000000002274},{"name":"F#3","midi":54,"time":143.16000000000193,"velocity":0.6299212598425197,"duration":0.060000000000002274},{"name":"F#2","midi":42,"time":143.28000000000193,"velocity":0.5984251968503937,"duration":0.12000000000000455},{"name":"F#3","midi":54,"time":143.28000000000193,"velocity":0.3779527559055118,"duration":0.060000000000002274},{"name":"F#3","midi":54,"time":143.40000000000194,"velocity":0.6299212598425197,"duration":0.060000000000002274},{"name":"F#3","midi":54,"time":143.52000000000194,"velocity":0.3779527559055118,"duration":0.030000000000001137},{"name":"D2","midi":38,"time":143.52000000000194,"velocity":0.5354330708661418,"duration":0.12000000000000455},{"name":"F#2","midi":42,"time":143.52000000000194,"velocity":0.6929133858267716,"duration":0.12000000000000455},{"name":"D#2","midi":39,"time":143.52000000000194,"velocity":0.6929133858267716,"duration":0.12000000000000455},{"name":"C2","midi":36,"time":143.52000000000194,"velocity":0.9133858267716536,"duration":0.12000000000000455},{"name":"F#3","midi":54,"time":143.55000000000194,"velocity":0.3779527559055118,"duration":0.030000000000001137},{"name":"F#3","midi":54,"time":143.64000000000195,"velocity":0.6299212598425197,"duration":0.060000000000002274},{"name":"F#3","midi":54,"time":143.76000000000195,"velocity":0.3779527559055118,"duration":0.060000000000002274},{"name":"F#2","midi":42,"time":143.76000000000195,"velocity":0.5984251968503937,"duration":0.12000000000000455},{"name":"F#3","midi":54,"time":143.88000000000196,"velocity":0.6299212598425197,"duration":0.060000000000002274},{"name":"F#2","midi":42,"time":144.00000000000196,"velocity":0.6929133858267716,"duration":0.12000000000000455},{"name":"C2","midi":36,"time":144.00000000000196,"velocity":0.9133858267716536,"duration":0.12000000000000455},{"name":"F#3","midi":54,"time":144.00000000000196,"velocity":0.3779527559055118,"duration":0.060000000000002274},{"name":"F#3","midi":54,"time":144.12000000000197,"velocity":0.6299212598425197,"duration":0.060000000000002274},{"name":"F#2","midi":42,"time":144.24000000000197,"velocity":0.5984251968503937,"duration":0.12000000000000455},{"name":"F#3","midi":54,"time":144.24000000000197,"velocity":0.3779527559055118,"duration":0.060000000000002274},{"name":"F#3","midi":54,"time":144.36000000000197,"velocity":0.6299212598425197,"duration":0.060000000000002274},{"name":"F#3","midi":54,"time":144.48000000000198,"velocity":0.3779527559055118,"duration":0.060000000000002274},{"name":"D2","midi":38,"time":144.48000000000198,"velocity":0.5354330708661418,"duration":0.12000000000000455},{"name":"F#2","midi":42,"time":144.48000000000198,"velocity":0.6929133858267716,"duration":0.12000000000000455},{"name":"D#2","midi":39,"time":144.48000000000198,"velocity":0.6929133858267716,"duration":0.12000000000000455},{"name":"C2","midi":36,"time":144.48000000000198,"velocity":0.9133858267716536,"duration":0.12000000000000455},{"name":"F#3","midi":54,"time":144.60000000000198,"velocity":0.6299212598425197,"duration":0.060000000000002274},{"name":"F#2","midi":42,"time":144.720000000002,"velocity":0.5984251968503937,"duration":0.12000000000000455},{"name":"F#3","midi":54,"time":144.720000000002,"velocity":0.3779527559055118,"duration":0.060000000000002274},{"name":"F#3","midi":54,"time":144.840000000002,"velocity":0.6299212598425197,"duration":0.060000000000002274},{"name":"F#3","midi":54,"time":144.960000000002,"velocity":0.3779527559055118,"duration":0.060000000000002274},{"name":"F#2","midi":42,"time":144.960000000002,"velocity":0.6929133858267716,"duration":0.12000000000000455},{"name":"C2","midi":36,"time":144.960000000002,"velocity":0.9133858267716536,"duration":0.12000000000000455},{"name":"F#3","midi":54,"time":145.080000000002,"velocity":0.6299212598425197,"duration":0.060000000000002274},{"name":"F#3","midi":54,"time":145.200000000002,"velocity":0.3779527559055118,"duration":0.060000000000002274},{"name":"F#2","midi":42,"time":145.200000000002,"velocity":0.5984251968503937,"duration":0.12000000000000455},{"name":"F#3","midi":54,"time":145.320000000002,"velocity":0.6299212598425197,"duration":0.060000000000002274},{"name":"F#3","midi":54,"time":145.44000000000202,"velocity":0.3779527559055118,"duration":0.030000000000001137},{"name":"D2","midi":38,"time":145.44000000000202,"velocity":0.5354330708661418,"duration":0.12000000000000455},{"name":"F#2","midi":42,"time":145.44000000000202,"velocity":0.6929133858267716,"duration":0.12000000000000455},{"name":"D#2","midi":39,"time":145.44000000000202,"velocity":0.6929133858267716,"duration":0.12000000000000455},{"name":"C2","midi":36,"time":145.44000000000202,"velocity":0.9133858267716536,"duration":0.12000000000000455},{"name":"F#3","midi":54,"time":145.47000000000202,"velocity":0.3779527559055118,"duration":0.030000000000001137},{"name":"F#3","midi":54,"time":145.56000000000202,"velocity":0.6299212598425197,"duration":0.060000000000002274},{"name":"F#3","midi":54,"time":145.68000000000202,"velocity":0.3779527559055118,"duration":0.060000000000002274},{"name":"F#2","midi":42,"time":145.68000000000202,"velocity":0.5984251968503937,"duration":0.12000000000000455},{"name":"F#3","midi":54,"time":145.80000000000203,"velocity":0.6299212598425197,"duration":0.060000000000002274},{"name":"F#3","midi":54,"time":145.92000000000203,"velocity":0.3779527559055118,"duration":0.060000000000002274},{"name":"C2","midi":36,"time":145.92000000000203,"velocity":0.9133858267716536,"duration":0.12000000000000455},{"name":"F#2","midi":42,"time":145.92000000000203,"velocity":0.6929133858267716,"duration":0.12000000000000455},{"name":"F#3","midi":54,"time":146.04000000000204,"velocity":0.6299212598425197,"duration":0.060000000000002274},{"name":"F#3","midi":54,"time":146.16000000000204,"velocity":0.3779527559055118,"duration":0.060000000000002274},{"name":"F#2","midi":42,"time":146.16000000000204,"velocity":0.5984251968503937,"duration":0.12000000000000455},{"name":"F#3","midi":54,"time":146.28000000000205,"velocity":0.6299212598425197,"duration":0.060000000000002274},{"name":"F#3","midi":54,"time":146.40000000000205,"velocity":0.3779527559055118,"duration":0.060000000000002274},{"name":"C2","midi":36,"time":146.40000000000205,"velocity":0.9133858267716536,"duration":0.12000000000000455},{"name":"D#2","midi":39,"time":146.40000000000205,"velocity":0.6929133858267716,"duration":0.12000000000000455},{"name":"F#2","midi":42,"time":146.40000000000205,"velocity":0.6929133858267716,"duration":0.12000000000000455},{"name":"D2","midi":38,"time":146.40000000000205,"velocity":0.5354330708661418,"duration":0.12000000000000455},{"name":"F#3","midi":54,"time":146.52000000000206,"velocity":0.6299212598425197,"duration":0.060000000000002274},{"name":"F#3","midi":54,"time":146.64000000000206,"velocity":0.3779527559055118,"duration":0.060000000000002274},{"name":"F#2","midi":42,"time":146.64000000000206,"velocity":0.5984251968503937,"duration":0.12000000000000455},{"name":"F#3","midi":54,"time":146.76000000000207,"velocity":0.6299212598425197,"duration":0.060000000000002274},{"name":"F#3","midi":54,"time":146.88000000000207,"velocity":0.3779527559055118,"duration":0.060000000000002274},{"name":"C2","midi":36,"time":146.88000000000207,"velocity":0.9133858267716536,"duration":0.12000000000000455},{"name":"F#2","midi":42,"time":146.88000000000207,"velocity":0.6929133858267716,"duration":0.12000000000000455},{"name":"F#3","midi":54,"time":147.00000000000207,"velocity":0.6299212598425197,"duration":0.060000000000002274},{"name":"F#3","midi":54,"time":147.12000000000208,"velocity":0.3779527559055118,"duration":0.060000000000002274},{"name":"F#2","midi":42,"time":147.12000000000208,"velocity":0.5984251968503937,"duration":0.12000000000000455},{"name":"F#3","midi":54,"time":147.24000000000208,"velocity":0.6299212598425197,"duration":0.060000000000002274},{"name":"F#3","midi":54,"time":147.3600000000021,"velocity":0.3779527559055118,"duration":0.030000000000001137},{"name":"C2","midi":36,"time":147.3600000000021,"velocity":0.9133858267716536,"duration":0.12000000000000455},{"name":"D#2","midi":39,"time":147.3600000000021,"velocity":0.6929133858267716,"duration":0.12000000000000455},{"name":"F#2","midi":42,"time":147.3600000000021,"velocity":0.6929133858267716,"duration":0.12000000000000455},{"name":"D2","midi":38,"time":147.3600000000021,"velocity":0.5354330708661418,"duration":0.12000000000000455},{"name":"F#3","midi":54,"time":147.3900000000021,"velocity":0.3779527559055118,"duration":0.030000000000001137},{"name":"F#3","midi":54,"time":147.4800000000021,"velocity":0.6299212598425197,"duration":0.060000000000002274},{"name":"F#3","midi":54,"time":147.6000000000021,"velocity":0.3779527559055118,"duration":0.060000000000002274},{"name":"F#2","midi":42,"time":147.6000000000021,"velocity":0.5984251968503937,"duration":0.12000000000000455},{"name":"F#3","midi":54,"time":147.7200000000021,"velocity":0.6299212598425197,"duration":0.060000000000002274},{"name":"F#3","midi":54,"time":147.8400000000021,"velocity":0.3779527559055118,"duration":0.060000000000002274},{"name":"F#2","midi":42,"time":147.8400000000021,"velocity":0.6929133858267716,"duration":0.12000000000000455},{"name":"C2","midi":36,"time":147.8400000000021,"velocity":0.9133858267716536,"duration":0.12000000000000455},{"name":"F#3","midi":54,"time":147.9600000000021,"velocity":0.6299212598425197,"duration":0.060000000000002274},{"name":"F#3","midi":54,"time":148.08000000000212,"velocity":0.3779527559055118,"duration":0.060000000000002274},{"name":"F#2","midi":42,"time":148.08000000000212,"velocity":0.5984251968503937,"duration":0.12000000000000455},{"name":"F#3","midi":54,"time":148.20000000000212,"velocity":0.6299212598425197,"duration":0.060000000000002274},{"name":"F#3","midi":54,"time":148.32000000000212,"velocity":0.3779527559055118,"duration":0.060000000000002274},{"name":"C2","midi":36,"time":148.32000000000212,"velocity":0.9133858267716536,"duration":0.12000000000000455},{"name":"D#2","midi":39,"time":148.32000000000212,"velocity":0.6929133858267716,"duration":0.12000000000000455},{"name":"F#2","midi":42,"time":148.32000000000212,"velocity":0.6929133858267716,"duration":0.12000000000000455},{"name":"D2","midi":38,"time":148.32000000000212,"velocity":0.5354330708661418,"duration":0.12000000000000455},{"name":"F#3","midi":54,"time":148.44000000000213,"velocity":0.6299212598425197,"duration":0.060000000000002274},{"name":"F#3","midi":54,"time":148.56000000000213,"velocity":0.3779527559055118,"duration":0.060000000000002274},{"name":"F#2","midi":42,"time":148.56000000000213,"velocity":0.5984251968503937,"duration":0.12000000000000455},{"name":"F#3","midi":54,"time":148.68000000000214,"velocity":0.6299212598425197,"duration":0.060000000000002274},{"name":"F#3","midi":54,"time":148.80000000000214,"velocity":0.3779527559055118,"duration":0.060000000000002274},{"name":"C2","midi":36,"time":148.80000000000214,"velocity":0.9133858267716536,"duration":0.12000000000000455},{"name":"F#2","midi":42,"time":148.80000000000214,"velocity":0.6929133858267716,"duration":0.12000000000000455},{"name":"F#3","midi":54,"time":148.92000000000215,"velocity":0.6299212598425197,"duration":0.060000000000002274},{"name":"F#3","midi":54,"time":149.04000000000215,"velocity":0.3779527559055118,"duration":0.060000000000002274},{"name":"F#2","midi":42,"time":149.04000000000215,"velocity":0.5984251968503937,"duration":0.12000000000000455},{"name":"F#3","midi":54,"time":149.16000000000216,"velocity":0.6299212598425197,"duration":0.060000000000002274},{"name":"F#3","midi":54,"time":149.28000000000216,"velocity":0.3779527559055118,"duration":0.030000000000001137},{"name":"C2","midi":36,"time":149.28000000000216,"velocity":0.9133858267716536,"duration":0.12000000000000455},{"name":"D#2","midi":39,"time":149.28000000000216,"velocity":0.6929133858267716,"duration":0.12000000000000455},{"name":"F#2","midi":42,"time":149.28000000000216,"velocity":0.6929133858267716,"duration":0.12000000000000455},{"name":"D2","midi":38,"time":149.28000000000216,"velocity":0.5354330708661418,"duration":0.12000000000000455},{"name":"F#3","midi":54,"time":149.31000000000216,"velocity":0.3779527559055118,"duration":0.030000000000001137},{"name":"F#3","midi":54,"time":149.40000000000217,"velocity":0.6299212598425197,"duration":0.060000000000002274},{"name":"F#3","midi":54,"time":149.52000000000217,"velocity":0.3779527559055118,"duration":0.060000000000002274},{"name":"F#2","midi":42,"time":149.52000000000217,"velocity":0.5984251968503937,"duration":0.12000000000000455},{"name":"F#3","midi":54,"time":149.64000000000217,"velocity":0.6299212598425197,"duration":0.060000000000002274},{"name":"F#3","midi":54,"time":149.76000000000218,"velocity":0.3779527559055118,"duration":0.060000000000002274},{"name":"F#2","midi":42,"time":149.76000000000218,"velocity":0.6929133858267716,"duration":0.12000000000000455},{"name":"C2","midi":36,"time":149.76000000000218,"velocity":0.9133858267716536,"duration":0.12000000000000455},{"name":"F#3","midi":54,"time":149.88000000000218,"velocity":0.6299212598425197,"duration":0.060000000000002274},{"name":"F#3","midi":54,"time":150.0000000000022,"velocity":0.3779527559055118,"duration":0.060000000000002274},{"name":"F#2","midi":42,"time":150.0000000000022,"velocity":0.5984251968503937,"duration":0.12000000000000455},{"name":"F#3","midi":54,"time":150.1200000000022,"velocity":0.6299212598425197,"duration":0.060000000000002274},{"name":"F#3","midi":54,"time":150.2400000000022,"velocity":0.3779527559055118,"duration":0.060000000000002274},{"name":"C2","midi":36,"time":150.2400000000022,"velocity":0.9133858267716536,"duration":0.12000000000000455},{"name":"D#2","midi":39,"time":150.2400000000022,"velocity":0.6929133858267716,"duration":0.12000000000000455},{"name":"F#2","midi":42,"time":150.2400000000022,"velocity":0.6929133858267716,"duration":0.12000000000000455},{"name":"D2","midi":38,"time":150.2400000000022,"velocity":0.5354330708661418,"duration":0.12000000000000455},{"name":"F#3","midi":54,"time":150.3600000000022,"velocity":0.6299212598425197,"duration":0.060000000000002274},{"name":"F#3","midi":54,"time":150.4800000000022,"velocity":0.3779527559055118,"duration":0.060000000000002274},{"name":"F#2","midi":42,"time":150.4800000000022,"velocity":0.5984251968503937,"duration":0.12000000000000455},{"name":"F#3","midi":54,"time":150.6000000000022,"velocity":0.6299212598425197,"duration":0.060000000000002274},{"name":"F#3","midi":54,"time":150.72000000000222,"velocity":0.3779527559055118,"duration":0.060000000000002274},{"name":"C2","midi":36,"time":150.72000000000222,"velocity":0.9133858267716536,"duration":0.12000000000000455},{"name":"F#2","midi":42,"time":150.72000000000222,"velocity":0.6929133858267716,"duration":0.12000000000000455},{"name":"F#3","midi":54,"time":150.84000000000222,"velocity":0.6299212598425197,"duration":0.060000000000002274},{"name":"F#3","midi":54,"time":150.96000000000222,"velocity":0.3779527559055118,"duration":0.060000000000002274},{"name":"F#2","midi":42,"time":150.96000000000222,"velocity":0.5984251968503937,"duration":0.12000000000000455},{"name":"F#3","midi":54,"time":151.08000000000223,"velocity":0.6299212598425197,"duration":0.060000000000002274},{"name":"F#3","midi":54,"time":151.20000000000223,"velocity":0.3779527559055118,"duration":0.030000000000001137},{"name":"C2","midi":36,"time":151.20000000000223,"velocity":0.9133858267716536,"duration":0.12000000000000455},{"name":"D#2","midi":39,"time":151.20000000000223,"velocity":0.6929133858267716,"duration":0.12000000000000455},{"name":"F#2","midi":42,"time":151.20000000000223,"velocity":0.6929133858267716,"duration":0.12000000000000455},{"name":"D2","midi":38,"time":151.20000000000223,"velocity":0.5354330708661418,"duration":0.12000000000000455},{"name":"F#3","midi":54,"time":151.23000000000224,"velocity":0.3779527559055118,"duration":0.030000000000001137},{"name":"F#3","midi":54,"time":151.32000000000224,"velocity":0.6299212598425197,"duration":0.060000000000002274},{"name":"F#3","midi":54,"time":151.44000000000224,"velocity":0.3779527559055118,"duration":0.060000000000002274},{"name":"F#2","midi":42,"time":151.44000000000224,"velocity":0.5984251968503937,"duration":0.12000000000000455},{"name":"F#3","midi":54,"time":151.56000000000225,"velocity":0.6299212598425197,"duration":0.060000000000002274},{"name":"F#3","midi":54,"time":151.68000000000225,"velocity":0.3779527559055118,"duration":0.060000000000002274},{"name":"F#2","midi":42,"time":151.68000000000225,"velocity":0.6929133858267716,"duration":0.12000000000000455},{"name":"C2","midi":36,"time":151.68000000000225,"velocity":0.9133858267716536,"duration":0.12000000000000455},{"name":"F#3","midi":54,"time":151.80000000000226,"velocity":0.6299212598425197,"duration":0.060000000000002274},{"name":"F#3","midi":54,"time":151.92000000000226,"velocity":0.3779527559055118,"duration":0.060000000000002274},{"name":"F#2","midi":42,"time":151.92000000000226,"velocity":0.5984251968503937,"duration":0.12000000000000455},{"name":"F#3","midi":54,"time":152.04000000000227,"velocity":0.6299212598425197,"duration":0.060000000000002274},{"name":"F#3","midi":54,"time":152.16000000000227,"velocity":0.3779527559055118,"duration":0.060000000000002274},{"name":"D2","midi":38,"time":152.16000000000227,"velocity":0.5354330708661418,"duration":0.12000000000000455},{"name":"C2","midi":36,"time":152.16000000000227,"velocity":0.9133858267716536,"duration":0.12000000000000455},{"name":"D#2","midi":39,"time":152.16000000000227,"velocity":0.6929133858267716,"duration":0.12000000000000455},{"name":"F#2","midi":42,"time":152.16000000000227,"velocity":0.6929133858267716,"duration":0.12000000000000455},{"name":"F#3","midi":54,"time":152.28000000000227,"velocity":0.6299212598425197,"duration":0.060000000000002274},{"name":"F#3","midi":54,"time":152.40000000000228,"velocity":0.3779527559055118,"duration":0.060000000000002274},{"name":"F#2","midi":42,"time":152.40000000000228,"velocity":0.5984251968503937,"duration":0.12000000000000455},{"name":"F#3","midi":54,"time":152.52000000000228,"velocity":0.6299212598425197,"duration":0.060000000000002274},{"name":"F#3","midi":54,"time":152.6400000000023,"velocity":0.3779527559055118,"duration":0.060000000000002274},{"name":"F#2","midi":42,"time":152.6400000000023,"velocity":0.6929133858267716,"duration":0.12000000000000455},{"name":"C2","midi":36,"time":152.6400000000023,"velocity":0.9133858267716536,"duration":0.12000000000000455},{"name":"F#3","midi":54,"time":152.7600000000023,"velocity":0.6299212598425197,"duration":0.060000000000002274},{"name":"F#3","midi":54,"time":152.8800000000023,"velocity":0.3779527559055118,"duration":0.060000000000002274},{"name":"F#2","midi":42,"time":152.8800000000023,"velocity":0.5984251968503937,"duration":0.12000000000000455},{"name":"F#3","midi":54,"time":153.0000000000023,"velocity":0.6299212598425197,"duration":0.060000000000002274},{"name":"F#3","midi":54,"time":153.1200000000023,"velocity":0.3779527559055118,"duration":0.030000000000001137},{"name":"F#2","midi":42,"time":153.1200000000023,"velocity":0.6929133858267716,"duration":0.12000000000000455},{"name":"D#2","midi":39,"time":153.1200000000023,"velocity":0.6929133858267716,"duration":0.12000000000000455},{"name":"C2","midi":36,"time":153.1200000000023,"velocity":0.9133858267716536,"duration":0.12000000000000455},{"name":"D2","midi":38,"time":153.1200000000023,"velocity":0.5354330708661418,"duration":0.12000000000000455},{"name":"F#3","midi":54,"time":153.1500000000023,"velocity":0.3779527559055118,"duration":0.030000000000001137},{"name":"F#3","midi":54,"time":153.2400000000023,"velocity":0.6299212598425197,"duration":0.060000000000002274},{"name":"F#3","midi":54,"time":153.36000000000232,"velocity":0.3779527559055118,"duration":0.060000000000002274},{"name":"F#2","midi":42,"time":153.36000000000232,"velocity":0.5039370078740157,"duration":0.12000000000000455},{"name":"F#3","midi":54,"time":153.48000000000232,"velocity":0.6299212598425197,"duration":0.060000000000002274},{"name":"F#3","midi":54,"time":153.60000000000232,"velocity":0.3779527559055118,"duration":0.060000000000002274},{"name":"C2","midi":36,"time":153.60000000000232,"velocity":0.9133858267716536,"duration":0.12000000000000455},{"name":"F#2","midi":42,"time":153.60000000000232,"velocity":0.6929133858267716,"duration":0.12000000000000455},{"name":"F#3","midi":54,"time":153.72000000000233,"velocity":0.6299212598425197,"duration":0.060000000000002274},{"name":"F#3","midi":54,"time":153.84000000000233,"velocity":0.3779527559055118,"duration":0.060000000000002274},{"name":"F#2","midi":42,"time":153.84000000000233,"velocity":0.5984251968503937,"duration":0.12000000000000455},{"name":"F#3","midi":54,"time":153.96000000000234,"velocity":0.6299212598425197,"duration":0.060000000000002274},{"name":"C2","midi":36,"time":154.08000000000234,"velocity":0.9133858267716536,"duration":0.12000000000000455},{"name":"D#2","midi":39,"time":154.08000000000234,"velocity":0.6929133858267716,"duration":0.12000000000000455},{"name":"F#2","midi":42,"time":154.08000000000234,"velocity":0.6929133858267716,"duration":0.12000000000000455},{"name":"D2","midi":38,"time":154.08000000000234,"velocity":0.5354330708661418,"duration":0.12000000000000455},{"name":"F#3","midi":54,"time":154.08000000000234,"velocity":0.3779527559055118,"duration":0.060000000000002274},{"name":"F#3","midi":54,"time":154.20000000000235,"velocity":0.6299212598425197,"duration":0.060000000000002274},{"name":"F#3","midi":54,"time":154.32000000000235,"velocity":0.3779527559055118,"duration":0.060000000000002274},{"name":"F#2","midi":42,"time":154.32000000000235,"velocity":0.5984251968503937,"duration":0.12000000000000455},{"name":"F#3","midi":54,"time":154.44000000000236,"velocity":0.6299212598425197,"duration":0.060000000000002274},{"name":"F#3","midi":54,"time":154.56000000000236,"velocity":0.3779527559055118,"duration":0.060000000000002274},{"name":"F#2","midi":42,"time":154.56000000000236,"velocity":0.6929133858267716,"duration":0.12000000000000455},{"name":"C2","midi":36,"time":154.56000000000236,"velocity":0.9133858267716536,"duration":0.12000000000000455},{"name":"F#3","midi":54,"time":154.68000000000237,"velocity":0.6299212598425197,"duration":0.060000000000002274},{"name":"F#2","midi":42,"time":154.80000000000237,"velocity":0.5984251968503937,"duration":0.12000000000000455},{"name":"F#3","midi":54,"time":154.80000000000237,"velocity":0.3779527559055118,"duration":0.060000000000002274},{"name":"F#3","midi":54,"time":154.92000000000237,"velocity":0.6299212598425197,"duration":0.060000000000002274},{"name":"F#3","midi":54,"time":155.04000000000238,"velocity":0.3779527559055118,"duration":0.030000000000001137},{"name":"D2","midi":38,"time":155.04000000000238,"velocity":0.5354330708661418,"duration":0.12000000000000455},{"name":"F#2","midi":42,"time":155.04000000000238,"velocity":0.6929133858267716,"duration":0.12000000000000455},{"name":"D#2","midi":39,"time":155.04000000000238,"velocity":0.6929133858267716,"duration":0.12000000000000455},{"name":"C2","midi":36,"time":155.04000000000238,"velocity":0.9133858267716536,"duration":0.12000000000000455},{"name":"F#3","midi":54,"time":155.07000000000238,"velocity":0.3779527559055118,"duration":0.030000000000001137},{"name":"F#3","midi":54,"time":155.16000000000238,"velocity":0.6299212598425197,"duration":0.060000000000002274},{"name":"F#2","midi":42,"time":155.2800000000024,"velocity":0.5984251968503937,"duration":0.12000000000000455},{"name":"F#3","midi":54,"time":155.2800000000024,"velocity":0.3779527559055118,"duration":0.060000000000002274},{"name":"F#3","midi":54,"time":155.4000000000024,"velocity":0.6299212598425197,"duration":0.060000000000002274},{"name":"F#2","midi":42,"time":155.5200000000024,"velocity":0.6929133858267716,"duration":0.12000000000000455},{"name":"C2","midi":36,"time":155.5200000000024,"velocity":0.9133858267716536,"duration":0.12000000000000455},{"name":"F#3","midi":54,"time":155.5200000000024,"velocity":0.3779527559055118,"duration":0.060000000000002274},{"name":"F#3","midi":54,"time":155.6400000000024,"velocity":0.6299212598425197,"duration":0.060000000000002274},{"name":"F#2","midi":42,"time":155.7600000000024,"velocity":0.5984251968503937,"duration":0.12000000000000455},{"name":"F#3","midi":54,"time":155.7600000000024,"velocity":0.3779527559055118,"duration":0.060000000000002274},{"name":"F#3","midi":54,"time":155.8800000000024,"velocity":0.6299212598425197,"duration":0.060000000000002274},{"name":"C2","midi":36,"time":156.00000000000242,"velocity":0.9133858267716536,"duration":0.12000000000000455},{"name":"D#2","midi":39,"time":156.00000000000242,"velocity":0.6929133858267716,"duration":0.12000000000000455},{"name":"F#2","midi":42,"time":156.00000000000242,"velocity":0.6929133858267716,"duration":0.12000000000000455},{"name":"D2","midi":38,"time":156.00000000000242,"velocity":0.5354330708661418,"duration":0.12000000000000455},{"name":"F#3","midi":54,"time":156.00000000000242,"velocity":0.3779527559055118,"duration":0.060000000000002274},{"name":"F#3","midi":54,"time":156.12000000000242,"velocity":0.6299212598425197,"duration":0.060000000000002274},{"name":"F#3","midi":54,"time":156.24000000000242,"velocity":0.3779527559055118,"duration":0.060000000000002274},{"name":"F#2","midi":42,"time":156.24000000000242,"velocity":0.5984251968503937,"duration":0.12000000000000455},{"name":"F#3","midi":54,"time":156.36000000000243,"velocity":0.6299212598425197,"duration":0.060000000000002274},{"name":"F#3","midi":54,"time":156.48000000000243,"velocity":0.3779527559055118,"duration":0.060000000000002274},{"name":"F#2","midi":42,"time":156.48000000000243,"velocity":0.6929133858267716,"duration":0.12000000000000455},{"name":"C2","midi":36,"time":156.48000000000243,"velocity":0.9133858267716536,"duration":0.12000000000000455},{"name":"F#3","midi":54,"time":156.60000000000244,"velocity":0.6299212598425197,"duration":0.060000000000002274},{"name":"F#3","midi":54,"time":156.72000000000244,"velocity":0.3779527559055118,"duration":0.060000000000002274},{"name":"F#2","midi":42,"time":156.72000000000244,"velocity":0.5984251968503937,"duration":0.12000000000000455},{"name":"F#3","midi":54,"time":156.84000000000245,"velocity":0.6299212598425197,"duration":0.060000000000002274},{"name":"F#3","midi":54,"time":156.96000000000245,"velocity":0.3779527559055118,"duration":0.030000000000001137},{"name":"D2","midi":38,"time":156.96000000000245,"velocity":0.5354330708661418,"duration":0.12000000000000455},{"name":"F#2","midi":42,"time":156.96000000000245,"velocity":0.6929133858267716,"duration":0.12000000000000455},{"name":"D#2","midi":39,"time":156.96000000000245,"velocity":0.6929133858267716,"duration":0.12000000000000455},{"name":"C2","midi":36,"time":156.96000000000245,"velocity":0.9133858267716536,"duration":0.12000000000000455},{"name":"F#3","midi":54,"time":156.99000000000245,"velocity":0.3779527559055118,"duration":0.030000000000001137},{"name":"F#3","midi":54,"time":157.08000000000246,"velocity":0.6299212598425197,"duration":0.060000000000002274},{"name":"F#3","midi":54,"time":157.20000000000246,"velocity":0.3779527559055118,"duration":0.060000000000002274},{"name":"F#2","midi":42,"time":157.20000000000246,"velocity":0.5984251968503937,"duration":0.12000000000000455},{"name":"F#3","midi":54,"time":157.32000000000247,"velocity":0.6299212598425197,"duration":0.060000000000002274},{"name":"F#2","midi":42,"time":157.44000000000247,"velocity":0.6929133858267716,"duration":0.12000000000000455},{"name":"C2","midi":36,"time":157.44000000000247,"velocity":0.9133858267716536,"duration":0.12000000000000455},{"name":"F#3","midi":54,"time":157.44000000000247,"velocity":0.3779527559055118,"duration":0.060000000000002274},{"name":"F#3","midi":54,"time":157.56000000000247,"velocity":0.6299212598425197,"duration":0.060000000000002274},{"name":"F#2","midi":42,"time":157.68000000000248,"velocity":0.5984251968503937,"duration":0.12000000000000455},{"name":"F#3","midi":54,"time":157.68000000000248,"velocity":0.3779527559055118,"duration":0.060000000000002274},{"name":"F#3","midi":54,"time":157.80000000000248,"velocity":0.6299212598425197,"duration":0.060000000000002274},{"name":"C2","midi":36,"time":157.9200000000025,"velocity":0.9133858267716536,"duration":0.12000000000000455},{"name":"D#2","midi":39,"time":157.9200000000025,"velocity":0.6929133858267716,"duration":0.12000000000000455},{"name":"F#2","midi":42,"time":157.9200000000025,"velocity":0.6929133858267716,"duration":0.12000000000000455},{"name":"D2","midi":38,"time":157.9200000000025,"velocity":0.5354330708661418,"duration":0.12000000000000455},{"name":"F#3","midi":54,"time":157.9200000000025,"velocity":0.3779527559055118,"duration":0.060000000000002274},{"name":"F#3","midi":54,"time":158.0400000000025,"velocity":0.6299212598425197,"duration":0.060000000000002274},{"name":"F#3","midi":54,"time":158.1600000000025,"velocity":0.3779527559055118,"duration":0.060000000000002274},{"name":"F#2","midi":42,"time":158.1600000000025,"velocity":0.5984251968503937,"duration":0.12000000000000455},{"name":"F#3","midi":54,"time":158.2800000000025,"velocity":0.6299212598425197,"duration":0.060000000000002274},{"name":"C2","midi":36,"time":158.4000000000025,"velocity":0.9133858267716536,"duration":0.12000000000000455},{"name":"F#2","midi":42,"time":158.4000000000025,"velocity":0.6929133858267716,"duration":0.12000000000000455},{"name":"F#3","midi":54,"time":158.4000000000025,"velocity":0.3779527559055118,"duration":0.060000000000002274},{"name":"F#3","midi":54,"time":158.5200000000025,"velocity":0.6299212598425197,"duration":0.060000000000002274},{"name":"F#2","midi":42,"time":158.64000000000252,"velocity":0.5984251968503937,"duration":0.12000000000000455},{"name":"F#3","midi":54,"time":158.64000000000252,"velocity":0.3779527559055118,"duration":0.060000000000002274},{"name":"F#3","midi":54,"time":158.76000000000252,"velocity":0.6299212598425197,"duration":0.060000000000002274},{"name":"F#3","midi":54,"time":158.88000000000252,"velocity":0.3779527559055118,"duration":0.030000000000001137},{"name":"D2","midi":38,"time":158.88000000000252,"velocity":0.5354330708661418,"duration":0.12000000000000455},{"name":"F#2","midi":42,"time":158.88000000000252,"velocity":0.6929133858267716,"duration":0.12000000000000455},{"name":"D#2","midi":39,"time":158.88000000000252,"velocity":0.6929133858267716,"duration":0.12000000000000455},{"name":"C2","midi":36,"time":158.88000000000252,"velocity":0.9133858267716536,"duration":0.12000000000000455},{"name":"F#3","midi":54,"time":158.91000000000253,"velocity":0.3779527559055118,"duration":0.030000000000001137},{"name":"F#3","midi":54,"time":159.00000000000253,"velocity":0.6299212598425197,"duration":0.060000000000002274},{"name":"F#3","midi":54,"time":159.12000000000253,"velocity":0.3779527559055118,"duration":0.060000000000002274},{"name":"F#2","midi":42,"time":159.12000000000253,"velocity":0.5984251968503937,"duration":0.12000000000000455},{"name":"F#3","midi":54,"time":159.24000000000254,"velocity":0.6299212598425197,"duration":0.060000000000002274},{"name":"F#2","midi":42,"time":159.36000000000254,"velocity":0.6929133858267716,"duration":0.12000000000000455},{"name":"C2","midi":36,"time":159.36000000000254,"velocity":0.9133858267716536,"duration":0.12000000000000455},{"name":"F#3","midi":54,"time":159.36000000000254,"velocity":0.3779527559055118,"duration":0.060000000000002274},{"name":"F#3","midi":54,"time":159.48000000000255,"velocity":0.6299212598425197,"duration":0.060000000000002274},{"name":"F#2","midi":42,"time":159.60000000000255,"velocity":0.5984251968503937,"duration":0.12000000000000455},{"name":"F#3","midi":54,"time":159.60000000000255,"velocity":0.3779527559055118,"duration":0.060000000000002274},{"name":"F#3","midi":54,"time":159.72000000000256,"velocity":0.6299212598425197,"duration":0.060000000000002274},{"name":"F#3","midi":54,"time":159.84000000000256,"velocity":0.3779527559055118,"duration":0.060000000000002274},{"name":"D2","midi":38,"time":159.84000000000256,"velocity":0.5354330708661418,"duration":0.12000000000000455},{"name":"F#2","midi":42,"time":159.84000000000256,"velocity":0.6929133858267716,"duration":0.12000000000000455},{"name":"D#2","midi":39,"time":159.84000000000256,"velocity":0.6929133858267716,"duration":0.12000000000000455},{"name":"C2","midi":36,"time":159.84000000000256,"velocity":0.9133858267716536,"duration":0.12000000000000455},{"name":"F#3","midi":54,"time":159.96000000000257,"velocity":0.6299212598425197,"duration":0.060000000000002274},{"name":"F#2","midi":42,"time":160.08000000000257,"velocity":0.5984251968503937,"duration":0.12000000000000455},{"name":"F#3","midi":54,"time":160.08000000000257,"velocity":0.3779527559055118,"duration":0.060000000000002274},{"name":"F#3","midi":54,"time":160.20000000000258,"velocity":0.6299212598425197,"duration":0.060000000000002274},{"name":"F#3","midi":54,"time":160.32000000000258,"velocity":0.3779527559055118,"duration":0.060000000000002274},{"name":"F#2","midi":42,"time":160.32000000000258,"velocity":0.6929133858267716,"duration":0.12000000000000455},{"name":"C2","midi":36,"time":160.32000000000258,"velocity":0.9133858267716536,"duration":0.12000000000000455},{"name":"F#3","midi":54,"time":160.44000000000258,"velocity":0.6299212598425197,"duration":0.060000000000002274},{"name":"F#3","midi":54,"time":160.5600000000026,"velocity":0.3779527559055118,"duration":0.060000000000002274},{"name":"F#2","midi":42,"time":160.5600000000026,"velocity":0.5984251968503937,"duration":0.12000000000000455},{"name":"F#3","midi":54,"time":160.6800000000026,"velocity":0.6299212598425197,"duration":0.060000000000002274},{"name":"F#3","midi":54,"time":160.8000000000026,"velocity":0.3779527559055118,"duration":0.030000000000001137},{"name":"D2","midi":38,"time":160.8000000000026,"velocity":0.5354330708661418,"duration":0.12000000000000455},{"name":"F#2","midi":42,"time":160.8000000000026,"velocity":0.6929133858267716,"duration":0.12000000000000455},{"name":"D#2","midi":39,"time":160.8000000000026,"velocity":0.6929133858267716,"duration":0.12000000000000455},{"name":"C2","midi":36,"time":160.8000000000026,"velocity":0.9133858267716536,"duration":0.12000000000000455},{"name":"F#3","midi":54,"time":160.8300000000026,"velocity":0.3779527559055118,"duration":0.030000000000001137},{"name":"F#3","midi":54,"time":160.9200000000026,"velocity":0.6299212598425197,"duration":0.060000000000002274},{"name":"F#3","midi":54,"time":161.0400000000026,"velocity":0.3779527559055118,"duration":0.060000000000002274},{"name":"F#2","midi":42,"time":161.0400000000026,"velocity":0.5984251968503937,"duration":0.12000000000000455},{"name":"F#3","midi":54,"time":161.1600000000026,"velocity":0.6299212598425197,"duration":0.060000000000002274},{"name":"F#3","midi":54,"time":161.28000000000262,"velocity":0.3779527559055118,"duration":0.060000000000002274},{"name":"C2","midi":36,"time":161.28000000000262,"velocity":0.9133858267716536,"duration":0.12000000000000455},{"name":"F#2","midi":42,"time":161.28000000000262,"velocity":0.6929133858267716,"duration":0.12000000000000455},{"name":"F#3","midi":54,"time":161.40000000000262,"velocity":0.6299212598425197,"duration":0.060000000000002274},{"name":"F#3","midi":54,"time":161.52000000000263,"velocity":0.3779527559055118,"duration":0.060000000000002274},{"name":"F#2","midi":42,"time":161.52000000000263,"velocity":0.5984251968503937,"duration":0.12000000000000455},{"name":"F#3","midi":54,"time":161.64000000000263,"velocity":0.6299212598425197,"duration":0.060000000000002274},{"name":"F#3","midi":54,"time":161.76000000000263,"velocity":0.3779527559055118,"duration":0.060000000000002274},{"name":"C2","midi":36,"time":161.76000000000263,"velocity":0.9133858267716536,"duration":0.12000000000000455},{"name":"D#2","midi":39,"time":161.76000000000263,"velocity":0.6929133858267716,"duration":0.12000000000000455},{"name":"F#2","midi":42,"time":161.76000000000263,"velocity":0.6929133858267716,"duration":0.12000000000000455},{"name":"D2","midi":38,"time":161.76000000000263,"velocity":0.5354330708661418,"duration":0.12000000000000455},{"name":"F#3","midi":54,"time":161.88000000000264,"velocity":0.6299212598425197,"duration":0.060000000000002274},{"name":"F#3","midi":54,"time":162.00000000000264,"velocity":0.3779527559055118,"duration":0.060000000000002274},{"name":"F#2","midi":42,"time":162.00000000000264,"velocity":0.5984251968503937,"duration":0.12000000000000455},{"name":"F#3","midi":54,"time":162.12000000000265,"velocity":0.6299212598425197,"duration":0.060000000000002274},{"name":"F#3","midi":54,"time":162.24000000000265,"velocity":0.3779527559055118,"duration":0.060000000000002274},{"name":"C2","midi":36,"time":162.24000000000265,"velocity":0.9133858267716536,"duration":0.12000000000000455},{"name":"F#2","midi":42,"time":162.24000000000265,"velocity":0.6929133858267716,"duration":0.12000000000000455},{"name":"F#3","midi":54,"time":162.36000000000266,"velocity":0.6299212598425197,"duration":0.060000000000002274},{"name":"F#3","midi":54,"time":162.48000000000266,"velocity":0.3779527559055118,"duration":0.060000000000002274},{"name":"F#2","midi":42,"time":162.48000000000266,"velocity":0.5984251968503937,"duration":0.12000000000000455},{"name":"F#3","midi":54,"time":162.60000000000267,"velocity":0.6299212598425197,"duration":0.060000000000002274},{"name":"F#3","midi":54,"time":162.72000000000267,"velocity":0.3779527559055118,"duration":0.030000000000001137},{"name":"C2","midi":36,"time":162.72000000000267,"velocity":0.9133858267716536,"duration":0.12000000000000455},{"name":"D#2","midi":39,"time":162.72000000000267,"velocity":0.6929133858267716,"duration":0.12000000000000455},{"name":"F#2","midi":42,"time":162.72000000000267,"velocity":0.6929133858267716,"duration":0.12000000000000455},{"name":"D2","midi":38,"time":162.72000000000267,"velocity":0.5354330708661418,"duration":0.12000000000000455},{"name":"F#3","midi":54,"time":162.75000000000267,"velocity":0.3779527559055118,"duration":0.030000000000001137},{"name":"F#3","midi":54,"time":162.84000000000268,"velocity":0.6299212598425197,"duration":0.060000000000002274},{"name":"F#3","midi":54,"time":162.96000000000268,"velocity":0.3779527559055118,"duration":0.060000000000002274},{"name":"F#2","midi":42,"time":162.96000000000268,"velocity":0.5984251968503937,"duration":0.12000000000000455},{"name":"F#3","midi":54,"time":163.08000000000268,"velocity":0.6299212598425197,"duration":0.060000000000002274},{"name":"F#3","midi":54,"time":163.2000000000027,"velocity":0.3779527559055118,"duration":0.060000000000002274},{"name":"F#2","midi":42,"time":163.2000000000027,"velocity":0.6929133858267716,"duration":0.12000000000000455},{"name":"C2","midi":36,"time":163.2000000000027,"velocity":0.9133858267716536,"duration":0.12000000000000455},{"name":"F#3","midi":54,"time":163.3200000000027,"velocity":0.6299212598425197,"duration":0.060000000000002274},{"name":"F#3","midi":54,"time":163.4400000000027,"velocity":0.3779527559055118,"duration":0.060000000000002274},{"name":"F#2","midi":42,"time":163.4400000000027,"velocity":0.5984251968503937,"duration":0.12000000000000455},{"name":"F#3","midi":54,"time":163.5600000000027,"velocity":0.6299212598425197,"duration":0.060000000000002274},{"name":"F#3","midi":54,"time":163.6800000000027,"velocity":0.3779527559055118,"duration":0.060000000000002274},{"name":"C2","midi":36,"time":163.6800000000027,"velocity":0.9133858267716536,"duration":0.12000000000000455},{"name":"D#2","midi":39,"time":163.6800000000027,"velocity":0.6929133858267716,"duration":0.12000000000000455},{"name":"F#2","midi":42,"time":163.6800000000027,"velocity":0.6929133858267716,"duration":0.12000000000000455},{"name":"D2","midi":38,"time":163.6800000000027,"velocity":0.5354330708661418,"duration":0.12000000000000455},{"name":"F#3","midi":54,"time":163.8000000000027,"velocity":0.6299212598425197,"duration":0.060000000000002274},{"name":"F#3","midi":54,"time":163.92000000000272,"velocity":0.3779527559055118,"duration":0.060000000000002274},{"name":"F#2","midi":42,"time":163.92000000000272,"velocity":0.5984251968503937,"duration":0.12000000000000455},{"name":"F#3","midi":54,"time":164.04000000000272,"velocity":0.6299212598425197,"duration":0.060000000000002274},{"name":"F#3","midi":54,"time":164.16000000000273,"velocity":0.3779527559055118,"duration":0.060000000000002274},{"name":"C2","midi":36,"time":164.16000000000273,"velocity":0.9133858267716536,"duration":0.12000000000000455},{"name":"F#2","midi":42,"time":164.16000000000273,"velocity":0.6929133858267716,"duration":0.12000000000000455},{"name":"F#3","midi":54,"time":164.28000000000273,"velocity":0.6299212598425197,"duration":0.060000000000002274},{"name":"F#3","midi":54,"time":164.40000000000273,"velocity":0.3779527559055118,"duration":0.060000000000002274},{"name":"F#2","midi":42,"time":164.40000000000273,"velocity":0.5984251968503937,"duration":0.12000000000000455},{"name":"F#3","midi":54,"time":164.52000000000274,"velocity":0.6299212598425197,"duration":0.060000000000002274},{"name":"F#3","midi":54,"time":164.64000000000274,"velocity":0.3779527559055118,"duration":0.030000000000001137},{"name":"C2","midi":36,"time":164.64000000000274,"velocity":0.9133858267716536,"duration":0.12000000000000455},{"name":"D#2","midi":39,"time":164.64000000000274,"velocity":0.6929133858267716,"duration":0.12000000000000455},{"name":"F#2","midi":42,"time":164.64000000000274,"velocity":0.6929133858267716,"duration":0.12000000000000455},{"name":"D2","midi":38,"time":164.64000000000274,"velocity":0.5354330708661418,"duration":0.12000000000000455},{"name":"F#3","midi":54,"time":164.67000000000274,"velocity":0.3779527559055118,"duration":0.030000000000001137},{"name":"F#3","midi":54,"time":164.76000000000275,"velocity":0.6299212598425197,"duration":0.060000000000002274},{"name":"F#3","midi":54,"time":164.88000000000275,"velocity":0.3779527559055118,"duration":0.060000000000002274},{"name":"F#2","midi":42,"time":164.88000000000275,"velocity":0.5984251968503937,"duration":0.12000000000000455},{"name":"F#3","midi":54,"time":165.00000000000276,"velocity":0.6299212598425197,"duration":0.060000000000002274},{"name":"F#3","midi":54,"time":165.12000000000276,"velocity":0.3779527559055118,"duration":0.060000000000002274},{"name":"F#2","midi":42,"time":165.12000000000276,"velocity":0.6929133858267716,"duration":0.12000000000000455},{"name":"C2","midi":36,"time":165.12000000000276,"velocity":0.9133858267716536,"duration":0.12000000000000455},{"name":"F#3","midi":54,"time":165.24000000000277,"velocity":0.6299212598425197,"duration":0.060000000000002274},{"name":"F#3","midi":54,"time":165.36000000000277,"velocity":0.3779527559055118,"duration":0.060000000000002274},{"name":"F#2","midi":42,"time":165.36000000000277,"velocity":0.5984251968503937,"duration":0.12000000000000455},{"name":"F#3","midi":54,"time":165.48000000000278,"velocity":0.6299212598425197,"duration":0.060000000000002274},{"name":"F#3","midi":54,"time":165.60000000000278,"velocity":0.3779527559055118,"duration":0.060000000000002274},{"name":"C2","midi":36,"time":165.60000000000278,"velocity":0.9133858267716536,"duration":0.12000000000000455},{"name":"D#2","midi":39,"time":165.60000000000278,"velocity":0.6929133858267716,"duration":0.12000000000000455},{"name":"F#2","midi":42,"time":165.60000000000278,"velocity":0.6929133858267716,"duration":0.12000000000000455},{"name":"D2","midi":38,"time":165.60000000000278,"velocity":0.5354330708661418,"duration":0.12000000000000455},{"name":"F#3","midi":54,"time":165.72000000000278,"velocity":0.6299212598425197,"duration":0.060000000000002274},{"name":"F#3","midi":54,"time":165.8400000000028,"velocity":0.3779527559055118,"duration":0.060000000000002274},{"name":"F#2","midi":42,"time":165.8400000000028,"velocity":0.5984251968503937,"duration":0.12000000000000455},{"name":"F#3","midi":54,"time":165.9600000000028,"velocity":0.6299212598425197,"duration":0.060000000000002274},{"name":"F#3","midi":54,"time":166.0800000000028,"velocity":0.3779527559055118,"duration":0.060000000000002274},{"name":"C2","midi":36,"time":166.0800000000028,"velocity":0.9133858267716536,"duration":0.12000000000000455},{"name":"F#2","midi":42,"time":166.0800000000028,"velocity":0.6929133858267716,"duration":0.12000000000000455},{"name":"F#3","midi":54,"time":166.2000000000028,"velocity":0.6299212598425197,"duration":0.060000000000002274},{"name":"F#3","midi":54,"time":166.3200000000028,"velocity":0.3779527559055118,"duration":0.060000000000002274},{"name":"F#2","midi":42,"time":166.3200000000028,"velocity":0.5984251968503937,"duration":0.12000000000000455},{"name":"F#3","midi":54,"time":166.4400000000028,"velocity":0.6299212598425197,"duration":0.060000000000002274},{"name":"F#3","midi":54,"time":166.56000000000282,"velocity":0.3779527559055118,"duration":0.030000000000001137},{"name":"C2","midi":36,"time":166.56000000000282,"velocity":0.9133858267716536,"duration":0.12000000000000455},{"name":"D#2","midi":39,"time":166.56000000000282,"velocity":0.6929133858267716,"duration":0.12000000000000455},{"name":"F#2","midi":42,"time":166.56000000000282,"velocity":0.6929133858267716,"duration":0.12000000000000455},{"name":"D2","midi":38,"time":166.56000000000282,"velocity":0.5354330708661418,"duration":0.12000000000000455},{"name":"F#3","midi":54,"time":166.59000000000282,"velocity":0.3779527559055118,"duration":0.030000000000001137},{"name":"F#3","midi":54,"time":166.68000000000282,"velocity":0.6299212598425197,"duration":0.060000000000002274},{"name":"F#3","midi":54,"time":166.80000000000283,"velocity":0.3779527559055118,"duration":0.060000000000002274},{"name":"F#2","midi":42,"time":166.80000000000283,"velocity":0.5984251968503937,"duration":0.12000000000000455},{"name":"F#3","midi":54,"time":166.92000000000283,"velocity":0.6299212598425197,"duration":0.060000000000002274},{"name":"F#3","midi":54,"time":167.04000000000283,"velocity":0.3779527559055118,"duration":0.060000000000002274},{"name":"F#2","midi":42,"time":167.04000000000283,"velocity":0.6929133858267716,"duration":0.12000000000000455},{"name":"C2","midi":36,"time":167.04000000000283,"velocity":0.9133858267716536,"duration":0.12000000000000455},{"name":"F#3","midi":54,"time":167.16000000000284,"velocity":0.6299212598425197,"duration":0.060000000000002274},{"name":"F#3","midi":54,"time":167.28000000000284,"velocity":0.3779527559055118,"duration":0.060000000000002274},{"name":"F#2","midi":42,"time":167.28000000000284,"velocity":0.5984251968503937,"duration":0.12000000000000455},{"name":"F#3","midi":54,"time":167.40000000000285,"velocity":0.6299212598425197,"duration":0.060000000000002274},{"name":"F#3","midi":54,"time":167.52000000000285,"velocity":0.3779527559055118,"duration":0.060000000000002274},{"name":"D2","midi":38,"time":167.52000000000285,"velocity":0.5354330708661418,"duration":0.12000000000000455},{"name":"C2","midi":36,"time":167.52000000000285,"velocity":0.9133858267716536,"duration":0.12000000000000455},{"name":"D#2","midi":39,"time":167.52000000000285,"velocity":0.6929133858267716,"duration":0.12000000000000455},{"name":"F#2","midi":42,"time":167.52000000000285,"velocity":0.6929133858267716,"duration":0.12000000000000455},{"name":"F#3","midi":54,"time":167.64000000000286,"velocity":0.6299212598425197,"duration":0.060000000000002274},{"name":"F#3","midi":54,"time":167.76000000000286,"velocity":0.3779527559055118,"duration":0.060000000000002274},{"name":"F#2","midi":42,"time":167.76000000000286,"velocity":0.5984251968503937,"duration":0.12000000000000455},{"name":"F#3","midi":54,"time":167.88000000000287,"velocity":0.6299212598425197,"duration":0.060000000000002274},{"name":"F#3","midi":54,"time":168.00000000000287,"velocity":0.3779527559055118,"duration":0.060000000000002274},{"name":"F#2","midi":42,"time":168.00000000000287,"velocity":0.6929133858267716,"duration":0.12000000000000455},{"name":"C2","midi":36,"time":168.00000000000287,"velocity":0.9133858267716536,"duration":0.12000000000000455},{"name":"F#3","midi":54,"time":168.12000000000288,"velocity":0.6299212598425197,"duration":0.060000000000002274},{"name":"F#3","midi":54,"time":168.24000000000288,"velocity":0.3779527559055118,"duration":0.060000000000002274},{"name":"F#2","midi":42,"time":168.24000000000288,"velocity":0.5984251968503937,"duration":0.12000000000000455},{"name":"F#3","midi":54,"time":168.36000000000288,"velocity":0.6299212598425197,"duration":0.060000000000002274},{"name":"F#3","midi":54,"time":168.4800000000029,"velocity":0.3779527559055118,"duration":0.030000000000001137},{"name":"F#2","midi":42,"time":168.4800000000029,"velocity":0.6929133858267716,"duration":0.12000000000000455},{"name":"D#2","midi":39,"time":168.4800000000029,"velocity":0.6929133858267716,"duration":0.12000000000000455},{"name":"C2","midi":36,"time":168.4800000000029,"velocity":0.9133858267716536,"duration":0.12000000000000455},{"name":"D2","midi":38,"time":168.4800000000029,"velocity":0.5354330708661418,"duration":0.12000000000000455},{"name":"F#3","midi":54,"time":168.5100000000029,"velocity":0.3779527559055118,"duration":0.030000000000001137},{"name":"F#3","midi":54,"time":168.6000000000029,"velocity":0.6299212598425197,"duration":0.060000000000002274},{"name":"F#3","midi":54,"time":168.7200000000029,"velocity":0.3779527559055118,"duration":0.060000000000002274},{"name":"F#2","midi":42,"time":168.7200000000029,"velocity":0.5039370078740157,"duration":0.12000000000000455},{"name":"F#3","midi":54,"time":168.8400000000029,"velocity":0.6299212598425197,"duration":0.060000000000002274},{"name":"F#3","midi":54,"time":168.9600000000029,"velocity":0.3779527559055118,"duration":0.060000000000002274},{"name":"C2","midi":36,"time":168.9600000000029,"velocity":0.9133858267716536,"duration":0.12000000000000455},{"name":"F#2","midi":42,"time":168.9600000000029,"velocity":0.6929133858267716,"duration":0.12000000000000455},{"name":"F#3","midi":54,"time":169.0800000000029,"velocity":0.6299212598425197,"duration":0.060000000000002274},{"name":"F#3","midi":54,"time":169.20000000000292,"velocity":0.3779527559055118,"duration":0.060000000000002274},{"name":"F#2","midi":42,"time":169.20000000000292,"velocity":0.5984251968503937,"duration":0.12000000000000455},{"name":"F#3","midi":54,"time":169.32000000000292,"velocity":0.6299212598425197,"duration":0.060000000000002274},{"name":"C2","midi":36,"time":169.44000000000293,"velocity":0.9133858267716536,"duration":0.12000000000000455},{"name":"D#2","midi":39,"time":169.44000000000293,"velocity":0.6929133858267716,"duration":0.12000000000000455},{"name":"F#2","midi":42,"time":169.44000000000293,"velocity":0.6929133858267716,"duration":0.12000000000000455},{"name":"D2","midi":38,"time":169.44000000000293,"velocity":0.5354330708661418,"duration":0.12000000000000455},{"name":"F#3","midi":54,"time":169.44000000000293,"velocity":0.3779527559055118,"duration":0.060000000000002274},{"name":"F#3","midi":54,"time":169.56000000000293,"velocity":0.6299212598425197,"duration":0.060000000000002274},{"name":"F#3","midi":54,"time":169.68000000000293,"velocity":0.3779527559055118,"duration":0.060000000000002274},{"name":"F#2","midi":42,"time":169.68000000000293,"velocity":0.5984251968503937,"duration":0.12000000000000455},{"name":"F#3","midi":54,"time":169.80000000000294,"velocity":0.6299212598425197,"duration":0.060000000000002274},{"name":"F#3","midi":54,"time":169.92000000000294,"velocity":0.3779527559055118,"duration":0.060000000000002274},{"name":"F#2","midi":42,"time":169.92000000000294,"velocity":0.6929133858267716,"duration":0.12000000000000455},{"name":"C2","midi":36,"time":169.92000000000294,"velocity":0.9133858267716536,"duration":0.12000000000000455},{"name":"F#3","midi":54,"time":170.04000000000295,"velocity":0.6299212598425197,"duration":0.060000000000002274},{"name":"F#2","midi":42,"time":170.16000000000295,"velocity":0.5984251968503937,"duration":0.12000000000000455},{"name":"F#3","midi":54,"time":170.16000000000295,"velocity":0.3779527559055118,"duration":0.060000000000002274},{"name":"F#3","midi":54,"time":170.28000000000296,"velocity":0.6299212598425197,"duration":0.060000000000002274},{"name":"F#3","midi":54,"time":170.40000000000296,"velocity":0.3779527559055118,"duration":0.030000000000001137},{"name":"D2","midi":38,"time":170.40000000000296,"velocity":0.5354330708661418,"duration":0.12000000000000455},{"name":"F#2","midi":42,"time":170.40000000000296,"velocity":0.6929133858267716,"duration":0.12000000000000455},{"name":"D#2","midi":39,"time":170.40000000000296,"velocity":0.6929133858267716,"duration":0.12000000000000455},{"name":"C2","midi":36,"time":170.40000000000296,"velocity":0.9133858267716536,"duration":0.12000000000000455},{"name":"F#3","midi":54,"time":170.43000000000296,"velocity":0.3779527559055118,"duration":0.030000000000001137},{"name":"F#3","midi":54,"time":170.52000000000297,"velocity":0.6299212598425197,"duration":0.060000000000002274},{"name":"F#2","midi":42,"time":170.64000000000297,"velocity":0.5984251968503937,"duration":0.12000000000000455},{"name":"F#3","midi":54,"time":170.64000000000297,"velocity":0.3779527559055118,"duration":0.060000000000002274},{"name":"F#3","midi":54,"time":170.76000000000298,"velocity":0.6299212598425197,"duration":0.060000000000002274},{"name":"F#2","midi":42,"time":170.88000000000298,"velocity":0.6929133858267716,"duration":0.12000000000000455},{"name":"C2","midi":36,"time":170.88000000000298,"velocity":0.9133858267716536,"duration":0.12000000000000455},{"name":"F#3","midi":54,"time":170.88000000000298,"velocity":0.3779527559055118,"duration":0.060000000000002274},{"name":"F#3","midi":54,"time":171.00000000000298,"velocity":0.6299212598425197,"duration":0.060000000000002274},{"name":"F#2","midi":42,"time":171.120000000003,"velocity":0.5984251968503937,"duration":0.12000000000000455},{"name":"F#3","midi":54,"time":171.120000000003,"velocity":0.3779527559055118,"duration":0.060000000000002274},{"name":"F#3","midi":54,"time":171.240000000003,"velocity":0.6299212598425197,"duration":0.060000000000002274},{"name":"C2","midi":36,"time":171.360000000003,"velocity":0.9133858267716536,"duration":0.12000000000000455},{"name":"D#2","midi":39,"time":171.360000000003,"velocity":0.6929133858267716,"duration":0.12000000000000455},{"name":"F#2","midi":42,"time":171.360000000003,"velocity":0.6929133858267716,"duration":0.12000000000000455},{"name":"D2","midi":38,"time":171.360000000003,"velocity":0.5354330708661418,"duration":0.12000000000000455},{"name":"F#3","midi":54,"time":171.360000000003,"velocity":0.3779527559055118,"duration":0.060000000000002274},{"name":"F#3","midi":54,"time":171.480000000003,"velocity":0.6299212598425197,"duration":0.060000000000002274},{"name":"F#3","midi":54,"time":171.600000000003,"velocity":0.3779527559055118,"duration":0.060000000000002274},{"name":"F#2","midi":42,"time":171.600000000003,"velocity":0.5984251968503937,"duration":0.12000000000000455},{"name":"F#3","midi":54,"time":171.720000000003,"velocity":0.6299212598425197,"duration":0.060000000000002274},{"name":"F#3","midi":54,"time":171.84000000000302,"velocity":0.3779527559055118,"duration":0.060000000000002274},{"name":"F#2","midi":42,"time":171.84000000000302,"velocity":0.6929133858267716,"duration":0.12000000000000455},{"name":"C2","midi":36,"time":171.84000000000302,"velocity":0.9133858267716536,"duration":0.12000000000000455},{"name":"F#3","midi":54,"time":171.96000000000302,"velocity":0.6299212598425197,"duration":0.060000000000002274},{"name":"F#3","midi":54,"time":172.08000000000303,"velocity":0.3779527559055118,"duration":0.060000000000002274},{"name":"F#2","midi":42,"time":172.08000000000303,"velocity":0.5984251968503937,"duration":0.12000000000000455},{"name":"F#3","midi":54,"time":172.20000000000303,"velocity":0.6299212598425197,"duration":0.060000000000002274},{"name":"F#3","midi":54,"time":172.32000000000303,"velocity":0.3779527559055118,"duration":0.030000000000001137},{"name":"D2","midi":38,"time":172.32000000000303,"velocity":0.5354330708661418,"duration":0.12000000000000455},{"name":"F#2","midi":42,"time":172.32000000000303,"velocity":0.6929133858267716,"duration":0.12000000000000455},{"name":"D#2","midi":39,"time":172.32000000000303,"velocity":0.6929133858267716,"duration":0.12000000000000455},{"name":"C2","midi":36,"time":172.32000000000303,"velocity":0.9133858267716536,"duration":0.12000000000000455},{"name":"F#3","midi":54,"time":172.35000000000304,"velocity":0.3779527559055118,"duration":0.030000000000001137},{"name":"F#3","midi":54,"time":172.44000000000304,"velocity":0.6299212598425197,"duration":0.060000000000002274},{"name":"F#3","midi":54,"time":172.56000000000304,"velocity":0.3779527559055118,"duration":0.060000000000002274},{"name":"F#2","midi":42,"time":172.56000000000304,"velocity":0.5984251968503937,"duration":0.12000000000000455},{"name":"F#3","midi":54,"time":172.68000000000305,"velocity":0.6299212598425197,"duration":0.060000000000002274},{"name":"F#2","midi":42,"time":172.80000000000305,"velocity":0.6929133858267716,"duration":0.12000000000000455},{"name":"C2","midi":36,"time":172.80000000000305,"velocity":0.9133858267716536,"duration":0.12000000000000455},{"name":"F#3","midi":54,"time":172.80000000000305,"velocity":0.3779527559055118,"duration":0.060000000000002274},{"name":"F#3","midi":54,"time":172.92000000000306,"velocity":0.6299212598425197,"duration":0.060000000000002274},{"name":"F#2","midi":42,"time":173.04000000000306,"velocity":0.5984251968503937,"duration":0.12000000000000455},{"name":"F#3","midi":54,"time":173.04000000000306,"velocity":0.3779527559055118,"duration":0.060000000000002274},{"name":"F#3","midi":54,"time":173.16000000000307,"velocity":0.6299212598425197,"duration":0.060000000000002274},{"name":"C2","midi":36,"time":173.28000000000307,"velocity":0.9133858267716536,"duration":0.12000000000000455},{"name":"D#2","midi":39,"time":173.28000000000307,"velocity":0.6929133858267716,"duration":0.12000000000000455},{"name":"F#2","midi":42,"time":173.28000000000307,"velocity":0.6929133858267716,"duration":0.12000000000000455},{"name":"D2","midi":38,"time":173.28000000000307,"velocity":0.5354330708661418,"duration":0.12000000000000455},{"name":"F#3","midi":54,"time":173.28000000000307,"velocity":0.3779527559055118,"duration":0.060000000000002274},{"name":"F#3","midi":54,"time":173.40000000000308,"velocity":0.6299212598425197,"duration":0.060000000000002274},{"name":"F#3","midi":54,"time":173.52000000000308,"velocity":0.3779527559055118,"duration":0.060000000000002274},{"name":"F#2","midi":42,"time":173.52000000000308,"velocity":0.5984251968503937,"duration":0.12000000000000455},{"name":"F#3","midi":54,"time":173.64000000000308,"velocity":0.6299212598425197,"duration":0.060000000000002274},{"name":"C2","midi":36,"time":173.7600000000031,"velocity":0.9133858267716536,"duration":0.12000000000000455},{"name":"F#2","midi":42,"time":173.7600000000031,"velocity":0.6929133858267716,"duration":0.12000000000000455},{"name":"F#3","midi":54,"time":173.7600000000031,"velocity":0.3779527559055118,"duration":0.060000000000002274},{"name":"F#3","midi":54,"time":173.8800000000031,"velocity":0.6299212598425197,"duration":0.060000000000002274},{"name":"F#2","midi":42,"time":174.0000000000031,"velocity":0.5984251968503937,"duration":0.12000000000000455},{"name":"F#3","midi":54,"time":174.0000000000031,"velocity":0.3779527559055118,"duration":0.060000000000002274},{"name":"F#3","midi":54,"time":174.1200000000031,"velocity":0.6299212598425197,"duration":0.060000000000002274},{"name":"F#3","midi":54,"time":174.2400000000031,"velocity":0.3779527559055118,"duration":0.030000000000001137},{"name":"D2","midi":38,"time":174.2400000000031,"velocity":0.5354330708661418,"duration":0.12000000000000455},{"name":"F#2","midi":42,"time":174.2400000000031,"velocity":0.6929133858267716,"duration":0.12000000000000455},{"name":"D#2","midi":39,"time":174.2400000000031,"velocity":0.6929133858267716,"duration":0.12000000000000455},{"name":"C2","midi":36,"time":174.2400000000031,"velocity":0.9133858267716536,"duration":0.12000000000000455},{"name":"F#3","midi":54,"time":174.2700000000031,"velocity":0.3779527559055118,"duration":0.030000000000001137},{"name":"F#3","midi":54,"time":174.3600000000031,"velocity":0.6299212598425197,"duration":0.060000000000002274},{"name":"F#3","midi":54,"time":174.48000000000312,"velocity":0.3779527559055118,"duration":0.060000000000002274},{"name":"F#2","midi":42,"time":174.48000000000312,"velocity":0.5984251968503937,"duration":0.12000000000000455},{"name":"F#3","midi":54,"time":174.60000000000312,"velocity":0.6299212598425197,"duration":0.060000000000002274},{"name":"F#2","midi":42,"time":174.72000000000313,"velocity":0.6929133858267716,"duration":0.12000000000000455},{"name":"C2","midi":36,"time":174.72000000000313,"velocity":0.9133858267716536,"duration":0.12000000000000455},{"name":"F#3","midi":54,"time":174.72000000000313,"velocity":0.3779527559055118,"duration":0.060000000000002274},{"name":"F#3","midi":54,"time":174.84000000000313,"velocity":0.6299212598425197,"duration":0.060000000000002274},{"name":"F#2","midi":42,"time":174.96000000000313,"velocity":0.5984251968503937,"duration":0.12000000000000455},{"name":"F#3","midi":54,"time":174.96000000000313,"velocity":0.3779527559055118,"duration":0.060000000000002274},{"name":"F#3","midi":54,"time":175.08000000000314,"velocity":0.6299212598425197,"duration":0.060000000000002274},{"name":"F#3","midi":54,"time":175.20000000000314,"velocity":0.3779527559055118,"duration":0.060000000000002274},{"name":"D2","midi":38,"time":175.20000000000314,"velocity":0.5354330708661418,"duration":0.12000000000000455},{"name":"F#2","midi":42,"time":175.20000000000314,"velocity":0.6929133858267716,"duration":0.12000000000000455},{"name":"D#2","midi":39,"time":175.20000000000314,"velocity":0.6929133858267716,"duration":0.12000000000000455},{"name":"C2","midi":36,"time":175.20000000000314,"velocity":0.9133858267716536,"duration":0.12000000000000455},{"name":"F#3","midi":54,"time":175.32000000000315,"velocity":0.6299212598425197,"duration":0.060000000000002274},{"name":"F#2","midi":42,"time":175.44000000000315,"velocity":0.5984251968503937,"duration":0.12000000000000455},{"name":"F#3","midi":54,"time":175.44000000000315,"velocity":0.3779527559055118,"duration":0.060000000000002274},{"name":"F#3","midi":54,"time":175.56000000000316,"velocity":0.6299212598425197,"duration":0.060000000000002274},{"name":"F#3","midi":54,"time":175.68000000000316,"velocity":0.3779527559055118,"duration":0.060000000000002274},{"name":"F#2","midi":42,"time":175.68000000000316,"velocity":0.6929133858267716,"duration":0.12000000000000455},{"name":"C2","midi":36,"time":175.68000000000316,"velocity":0.9133858267716536,"duration":0.12000000000000455},{"name":"F#3","midi":54,"time":175.80000000000317,"velocity":0.6299212598425197,"duration":0.060000000000002274},{"name":"F#3","midi":54,"time":175.92000000000317,"velocity":0.3779527559055118,"duration":0.060000000000002274},{"name":"F#2","midi":42,"time":175.92000000000317,"velocity":0.5984251968503937,"duration":0.12000000000000455},{"name":"F#3","midi":54,"time":176.04000000000318,"velocity":0.6299212598425197,"duration":0.060000000000002274},{"name":"F#3","midi":54,"time":176.16000000000318,"velocity":0.3779527559055118,"duration":0.030000000000001137},{"name":"D2","midi":38,"time":176.16000000000318,"velocity":0.5354330708661418,"duration":0.12000000000000455},{"name":"F#2","midi":42,"time":176.16000000000318,"velocity":0.6929133858267716,"duration":0.12000000000000455},{"name":"D#2","midi":39,"time":176.16000000000318,"velocity":0.6929133858267716,"duration":0.12000000000000455},{"name":"C2","midi":36,"time":176.16000000000318,"velocity":0.9133858267716536,"duration":0.12000000000000455},{"name":"F#3","midi":54,"time":176.19000000000318,"velocity":0.3779527559055118,"duration":0.030000000000001137},{"name":"F#3","midi":54,"time":176.28000000000318,"velocity":0.6299212598425197,"duration":0.060000000000002274},{"name":"F#3","midi":54,"time":176.4000000000032,"velocity":0.3779527559055118,"duration":0.060000000000002274},{"name":"F#2","midi":42,"time":176.4000000000032,"velocity":0.5984251968503937,"duration":0.12000000000000455},{"name":"F#3","midi":54,"time":176.5200000000032,"velocity":0.6299212598425197,"duration":0.060000000000002274},{"name":"F#3","midi":54,"time":176.6400000000032,"velocity":0.3779527559055118,"duration":0.060000000000002274},{"name":"C2","midi":36,"time":176.6400000000032,"velocity":0.9133858267716536,"duration":0.12000000000000455},{"name":"F#2","midi":42,"time":176.6400000000032,"velocity":0.6929133858267716,"duration":0.12000000000000455},{"name":"F#3","midi":54,"time":176.7600000000032,"velocity":0.6299212598425197,"duration":0.060000000000002274},{"name":"F#3","midi":54,"time":176.8800000000032,"velocity":0.3779527559055118,"duration":0.060000000000002274},{"name":"F#2","midi":42,"time":176.8800000000032,"velocity":0.5984251968503937,"duration":0.12000000000000455},{"name":"F#3","midi":54,"time":177.0000000000032,"velocity":0.6299212598425197,"duration":0.060000000000002274},{"name":"F#3","midi":54,"time":177.12000000000322,"velocity":0.3779527559055118,"duration":0.060000000000002274},{"name":"C2","midi":36,"time":177.12000000000322,"velocity":0.9133858267716536,"duration":0.12000000000000455},{"name":"D#2","midi":39,"time":177.12000000000322,"velocity":0.6929133858267716,"duration":0.12000000000000455},{"name":"F#2","midi":42,"time":177.12000000000322,"velocity":0.6929133858267716,"duration":0.12000000000000455},{"name":"D2","midi":38,"time":177.12000000000322,"velocity":0.5354330708661418,"duration":0.12000000000000455},{"name":"F#3","midi":54,"time":177.24000000000322,"velocity":0.6299212598425197,"duration":0.060000000000002274},{"name":"F#3","midi":54,"time":177.36000000000323,"velocity":0.3779527559055118,"duration":0.060000000000002274},{"name":"F#2","midi":42,"time":177.36000000000323,"velocity":0.5984251968503937,"duration":0.12000000000000455},{"name":"F#3","midi":54,"time":177.48000000000323,"velocity":0.6299212598425197,"duration":0.060000000000002274},{"name":"F#3","midi":54,"time":177.60000000000323,"velocity":0.3779527559055118,"duration":0.060000000000002274},{"name":"C2","midi":36,"time":177.60000000000323,"velocity":0.9133858267716536,"duration":0.12000000000000455},{"name":"F#2","midi":42,"time":177.60000000000323,"velocity":0.6929133858267716,"duration":0.12000000000000455},{"name":"F#3","midi":54,"time":177.72000000000324,"velocity":0.6299212598425197,"duration":0.060000000000002274},{"name":"F#3","midi":54,"time":177.84000000000324,"velocity":0.3779527559055118,"duration":0.060000000000002274},{"name":"F#2","midi":42,"time":177.84000000000324,"velocity":0.5984251968503937,"duration":0.12000000000000455},{"name":"F#3","midi":54,"time":177.96000000000325,"velocity":0.6299212598425197,"duration":0.060000000000002274},{"name":"F#3","midi":54,"time":178.08000000000325,"velocity":0.3779527559055118,"duration":0.030000000000001137},{"name":"C2","midi":36,"time":178.08000000000325,"velocity":0.9133858267716536,"duration":0.12000000000000455},{"name":"D#2","midi":39,"time":178.08000000000325,"velocity":0.6929133858267716,"duration":0.12000000000000455},{"name":"F#2","midi":42,"time":178.08000000000325,"velocity":0.6929133858267716,"duration":0.12000000000000455},{"name":"D2","midi":38,"time":178.08000000000325,"velocity":0.5354330708661418,"duration":0.12000000000000455},{"name":"F#3","midi":54,"time":178.11000000000325,"velocity":0.3779527559055118,"duration":0.030000000000001137},{"name":"F#3","midi":54,"time":178.20000000000326,"velocity":0.6299212598425197,"duration":0.060000000000002274},{"name":"F#3","midi":54,"time":178.32000000000326,"velocity":0.3779527559055118,"duration":0.060000000000002274},{"name":"F#2","midi":42,"time":178.32000000000326,"velocity":0.5984251968503937,"duration":0.12000000000000455},{"name":"F#3","midi":54,"time":178.44000000000327,"velocity":0.6299212598425197,"duration":0.060000000000002274},{"name":"F#3","midi":54,"time":178.56000000000327,"velocity":0.3779527559055118,"duration":0.060000000000002274},{"name":"F#2","midi":42,"time":178.56000000000327,"velocity":0.6929133858267716,"duration":0.12000000000000455},{"name":"C2","midi":36,"time":178.56000000000327,"velocity":0.9133858267716536,"duration":0.12000000000000455},{"name":"F#3","midi":54,"time":178.68000000000328,"velocity":0.6299212598425197,"duration":0.060000000000002274},{"name":"F#3","midi":54,"time":178.80000000000328,"velocity":0.3779527559055118,"duration":0.060000000000002274},{"name":"F#2","midi":42,"time":178.80000000000328,"velocity":0.5984251968503937,"duration":0.12000000000000455},{"name":"F#3","midi":54,"time":178.92000000000328,"velocity":0.6299212598425197,"duration":0.060000000000002274},{"name":"F#3","midi":54,"time":179.0400000000033,"velocity":0.3779527559055118,"duration":0.060000000000002274},{"name":"C2","midi":36,"time":179.0400000000033,"velocity":0.9133858267716536,"duration":0.12000000000000455},{"name":"D#2","midi":39,"time":179.0400000000033,"velocity":0.6929133858267716,"duration":0.12000000000000455},{"name":"F#2","midi":42,"time":179.0400000000033,"velocity":0.6929133858267716,"duration":0.12000000000000455},{"name":"D2","midi":38,"time":179.0400000000033,"velocity":0.5354330708661418,"duration":0.12000000000000455},{"name":"F#3","midi":54,"time":179.1600000000033,"velocity":0.6299212598425197,"duration":0.060000000000002274},{"name":"F#3","midi":54,"time":179.2800000000033,"velocity":0.3779527559055118,"duration":0.060000000000002274},{"name":"F#2","midi":42,"time":179.2800000000033,"velocity":0.5984251968503937,"duration":0.12000000000000455},{"name":"F#3","midi":54,"time":179.4000000000033,"velocity":0.6299212598425197,"duration":0.060000000000002274},{"name":"F#3","midi":54,"time":179.5200000000033,"velocity":0.3779527559055118,"duration":0.060000000000002274},{"name":"C2","midi":36,"time":179.5200000000033,"velocity":0.9133858267716536,"duration":0.12000000000000455},{"name":"F#2","midi":42,"time":179.5200000000033,"velocity":0.6929133858267716,"duration":0.12000000000000455},{"name":"F#3","midi":54,"time":179.6400000000033,"velocity":0.6299212598425197,"duration":0.060000000000002274},{"name":"F#3","midi":54,"time":179.76000000000332,"velocity":0.3779527559055118,"duration":0.060000000000002274},{"name":"F#2","midi":42,"time":179.76000000000332,"velocity":0.5984251968503937,"duration":0.12000000000000455},{"name":"F#3","midi":54,"time":179.88000000000332,"velocity":0.6299212598425197,"duration":0.060000000000002274},{"name":"F#3","midi":54,"time":180.00000000000333,"velocity":0.3779527559055118,"duration":0.030000000000001137},{"name":"C2","midi":36,"time":180.00000000000333,"velocity":0.9133858267716536,"duration":0.12000000000000455},{"name":"D#2","midi":39,"time":180.00000000000333,"velocity":0.6929133858267716,"duration":0.12000000000000455},{"name":"F#2","midi":42,"time":180.00000000000333,"velocity":0.6929133858267716,"duration":0.12000000000000455},{"name":"D2","midi":38,"time":180.00000000000333,"velocity":0.5354330708661418,"duration":0.12000000000000455},{"name":"F#3","midi":54,"time":180.03000000000333,"velocity":0.3779527559055118,"duration":0.030000000000001137},{"name":"F#3","midi":54,"time":180.12000000000333,"velocity":0.6299212598425197,"duration":0.060000000000002274},{"name":"F#3","midi":54,"time":180.24000000000333,"velocity":0.3779527559055118,"duration":0.060000000000002274},{"name":"F#2","midi":42,"time":180.24000000000333,"velocity":0.5984251968503937,"duration":0.12000000000000455},{"name":"F#3","midi":54,"time":180.36000000000334,"velocity":0.6299212598425197,"duration":0.060000000000002274},{"name":"F#3","midi":54,"time":180.48000000000334,"velocity":0.3779527559055118,"duration":0.060000000000002274},{"name":"F#2","midi":42,"time":180.48000000000334,"velocity":0.6929133858267716,"duration":0.12000000000000455},{"name":"C2","midi":36,"time":180.48000000000334,"velocity":0.9133858267716536,"duration":0.12000000000000455},{"name":"F#3","midi":54,"time":180.60000000000335,"velocity":0.6299212598425197,"duration":0.060000000000002274},{"name":"F#3","midi":54,"time":180.72000000000335,"velocity":0.3779527559055118,"duration":0.060000000000002274},{"name":"F#2","midi":42,"time":180.72000000000335,"velocity":0.5984251968503937,"duration":0.12000000000000455},{"name":"F#3","midi":54,"time":180.84000000000336,"velocity":0.6299212598425197,"duration":0.060000000000002274},{"name":"F#3","midi":54,"time":180.96000000000336,"velocity":0.3779527559055118,"duration":0.060000000000002274},{"name":"C2","midi":36,"time":180.96000000000336,"velocity":0.9133858267716536,"duration":0.12000000000000455},{"name":"D#2","midi":39,"time":180.96000000000336,"velocity":0.6929133858267716,"duration":0.12000000000000455},{"name":"F#2","midi":42,"time":180.96000000000336,"velocity":0.6929133858267716,"duration":0.12000000000000455},{"name":"D2","midi":38,"time":180.96000000000336,"velocity":0.5354330708661418,"duration":0.12000000000000455},{"name":"F#3","midi":54,"time":181.08000000000337,"velocity":0.6299212598425197,"duration":0.060000000000002274},{"name":"F#3","midi":54,"time":181.20000000000337,"velocity":0.3779527559055118,"duration":0.060000000000002274},{"name":"F#2","midi":42,"time":181.20000000000337,"velocity":0.5984251968503937,"duration":0.12000000000000455},{"name":"F#3","midi":54,"time":181.32000000000338,"velocity":0.6299212598425197,"duration":0.060000000000002274},{"name":"F#3","midi":54,"time":181.44000000000338,"velocity":0.3779527559055118,"duration":0.060000000000002274},{"name":"C2","midi":36,"time":181.44000000000338,"velocity":0.9133858267716536,"duration":0.12000000000000455},{"name":"F#2","midi":42,"time":181.44000000000338,"velocity":0.6929133858267716,"duration":0.12000000000000455},{"name":"F#3","midi":54,"time":181.56000000000338,"velocity":0.6299212598425197,"duration":0.060000000000002274},{"name":"F#3","midi":54,"time":181.6800000000034,"velocity":0.3779527559055118,"duration":0.060000000000002274},{"name":"F#2","midi":42,"time":181.6800000000034,"velocity":0.5984251968503937,"duration":0.12000000000000455},{"name":"F#3","midi":54,"time":181.8000000000034,"velocity":0.6299212598425197,"duration":0.060000000000002274},{"name":"F#3","midi":54,"time":181.9200000000034,"velocity":0.3779527559055118,"duration":0.030000000000001137},{"name":"C2","midi":36,"time":181.9200000000034,"velocity":0.9133858267716536,"duration":0.12000000000000455},{"name":"D#2","midi":39,"time":181.9200000000034,"velocity":0.6929133858267716,"duration":0.12000000000000455},{"name":"F#2","midi":42,"time":181.9200000000034,"velocity":0.6929133858267716,"duration":0.12000000000000455},{"name":"D2","midi":38,"time":181.9200000000034,"velocity":0.5354330708661418,"duration":0.12000000000000455},{"name":"F#3","midi":54,"time":181.9500000000034,"velocity":0.3779527559055118,"duration":0.030000000000001137},{"name":"F#3","midi":54,"time":182.0400000000034,"velocity":0.6299212598425197,"duration":0.060000000000002274},{"name":"F#3","midi":54,"time":182.1600000000034,"velocity":0.3779527559055118,"duration":0.060000000000002274},{"name":"F#2","midi":42,"time":182.1600000000034,"velocity":0.5984251968503937,"duration":0.12000000000000455},{"name":"F#3","midi":54,"time":182.2800000000034,"velocity":0.6299212598425197,"duration":0.060000000000002274},{"name":"F#3","midi":54,"time":182.40000000000342,"velocity":0.3779527559055118,"duration":0.060000000000002274},{"name":"F#2","midi":42,"time":182.40000000000342,"velocity":0.6929133858267716,"duration":0.12000000000000455},{"name":"C2","midi":36,"time":182.40000000000342,"velocity":0.9133858267716536,"duration":0.12000000000000455},{"name":"F#3","midi":54,"time":182.52000000000342,"velocity":0.6299212598425197,"duration":0.060000000000002274},{"name":"F#3","midi":54,"time":182.64000000000343,"velocity":0.3779527559055118,"duration":0.060000000000002274},{"name":"F#2","midi":42,"time":182.64000000000343,"velocity":0.5984251968503937,"duration":0.12000000000000455},{"name":"F#3","midi":54,"time":182.76000000000343,"velocity":0.6299212598425197,"duration":0.060000000000002274},{"name":"F#3","midi":54,"time":182.88000000000343,"velocity":0.3779527559055118,"duration":0.060000000000002274},{"name":"D2","midi":38,"time":182.88000000000343,"velocity":0.5354330708661418,"duration":0.12000000000000455},{"name":"C2","midi":36,"time":182.88000000000343,"velocity":0.9133858267716536,"duration":0.12000000000000455},{"name":"D#2","midi":39,"time":182.88000000000343,"velocity":0.6929133858267716,"duration":0.12000000000000455},{"name":"F#2","midi":42,"time":182.88000000000343,"velocity":0.6929133858267716,"duration":0.12000000000000455},{"name":"F#3","midi":54,"time":183.00000000000344,"velocity":0.6299212598425197,"duration":0.060000000000002274},{"name":"F#3","midi":54,"time":183.12000000000344,"velocity":0.3779527559055118,"duration":0.060000000000002274},{"name":"F#2","midi":42,"time":183.12000000000344,"velocity":0.5984251968503937,"duration":0.12000000000000455},{"name":"F#3","midi":54,"time":183.24000000000345,"velocity":0.6299212598425197,"duration":0.060000000000002274},{"name":"F#3","midi":54,"time":183.36000000000345,"velocity":0.3779527559055118,"duration":0.060000000000002274},{"name":"F#2","midi":42,"time":183.36000000000345,"velocity":0.6929133858267716,"duration":0.12000000000000455},{"name":"C2","midi":36,"time":183.36000000000345,"velocity":0.9133858267716536,"duration":0.12000000000000455},{"name":"F#3","midi":54,"time":183.48000000000346,"velocity":0.6299212598425197,"duration":0.060000000000002274},{"name":"F#3","midi":54,"time":183.60000000000346,"velocity":0.3779527559055118,"duration":0.060000000000002274},{"name":"F#2","midi":42,"time":183.60000000000346,"velocity":0.5984251968503937,"duration":0.12000000000000455},{"name":"F#3","midi":54,"time":183.72000000000347,"velocity":0.6299212598425197,"duration":0.060000000000002274},{"name":"F#3","midi":54,"time":183.84000000000347,"velocity":0.3779527559055118,"duration":0.030000000000001137},{"name":"F#2","midi":42,"time":183.84000000000347,"velocity":0.6929133858267716,"duration":0.12000000000000455},{"name":"D#2","midi":39,"time":183.84000000000347,"velocity":0.6929133858267716,"duration":0.12000000000000455},{"name":"C2","midi":36,"time":183.84000000000347,"velocity":0.9133858267716536,"duration":0.12000000000000455},{"name":"D2","midi":38,"time":183.84000000000347,"velocity":0.5354330708661418,"duration":0.12000000000000455},{"name":"F#3","midi":54,"time":183.87000000000347,"velocity":0.3779527559055118,"duration":0.030000000000001137},{"name":"F#3","midi":54,"time":183.96000000000348,"velocity":0.6299212598425197,"duration":0.060000000000002274},{"name":"F#3","midi":54,"time":184.08000000000348,"velocity":0.3779527559055118,"duration":0.060000000000002274},{"name":"F#2","midi":42,"time":184.08000000000348,"velocity":0.5039370078740157,"duration":0.12000000000000455},{"name":"F#3","midi":54,"time":184.20000000000348,"velocity":0.6299212598425197,"duration":0.060000000000002274},{"name":"F#3","midi":54,"time":184.3200000000035,"velocity":0.3779527559055118,"duration":0.060000000000002274},{"name":"C2","midi":36,"time":184.3200000000035,"velocity":0.9133858267716536,"duration":0.12000000000000455},{"name":"F#2","midi":42,"time":184.3200000000035,"velocity":0.6929133858267716,"duration":0.12000000000000455},{"name":"F#3","midi":54,"time":184.4400000000035,"velocity":0.6299212598425197,"duration":0.060000000000002274},{"name":"F#3","midi":54,"time":184.5600000000035,"velocity":0.3779527559055118,"duration":0.060000000000002274},{"name":"F#2","midi":42,"time":184.5600000000035,"velocity":0.5984251968503937,"duration":0.12000000000000455},{"name":"F#3","midi":54,"time":184.6800000000035,"velocity":0.6299212598425197,"duration":0.060000000000002274},{"name":"C2","midi":36,"time":184.8000000000035,"velocity":0.9133858267716536,"duration":0.12000000000000455},{"name":"D#2","midi":39,"time":184.8000000000035,"velocity":0.6929133858267716,"duration":0.12000000000000455},{"name":"F#2","midi":42,"time":184.8000000000035,"velocity":0.6929133858267716,"duration":0.12000000000000455},{"name":"D2","midi":38,"time":184.8000000000035,"velocity":0.5354330708661418,"duration":0.12000000000000455},{"name":"F#3","midi":54,"time":184.8000000000035,"velocity":0.3779527559055118,"duration":0.060000000000002274},{"name":"F#3","midi":54,"time":184.9200000000035,"velocity":0.6299212598425197,"duration":0.060000000000002274},{"name":"F#3","midi":54,"time":185.04000000000352,"velocity":0.3779527559055118,"duration":0.060000000000002274},{"name":"F#2","midi":42,"time":185.04000000000352,"velocity":0.5984251968503937,"duration":0.12000000000000455},{"name":"F#3","midi":54,"time":185.16000000000352,"velocity":0.6299212598425197,"duration":0.060000000000002274},{"name":"F#3","midi":54,"time":185.28000000000353,"velocity":0.3779527559055118,"duration":0.060000000000002274},{"name":"F#2","midi":42,"time":185.28000000000353,"velocity":0.6929133858267716,"duration":0.12000000000000455},{"name":"C2","midi":36,"time":185.28000000000353,"velocity":0.9133858267716536,"duration":0.12000000000000455},{"name":"F#3","midi":54,"time":185.40000000000353,"velocity":0.6299212598425197,"duration":0.060000000000002274},{"name":"F#2","midi":42,"time":185.52000000000353,"velocity":0.5984251968503937,"duration":0.12000000000000455},{"name":"F#3","midi":54,"time":185.52000000000353,"velocity":0.3779527559055118,"duration":0.060000000000002274},{"name":"F#3","midi":54,"time":185.64000000000354,"velocity":0.6299212598425197,"duration":0.060000000000002274},{"name":"F#3","midi":54,"time":185.76000000000354,"velocity":0.3779527559055118,"duration":0.030000000000001137},{"name":"D2","midi":38,"time":185.76000000000354,"velocity":0.5354330708661418,"duration":0.12000000000000455},{"name":"F#2","midi":42,"time":185.76000000000354,"velocity":0.6929133858267716,"duration":0.12000000000000455},{"name":"D#2","midi":39,"time":185.76000000000354,"velocity":0.6929133858267716,"duration":0.12000000000000455},{"name":"C2","midi":36,"time":185.76000000000354,"velocity":0.9133858267716536,"duration":0.12000000000000455},{"name":"F#3","midi":54,"time":185.79000000000354,"velocity":0.3779527559055118,"duration":0.030000000000001137},{"name":"F#3","midi":54,"time":185.88000000000355,"velocity":0.6299212598425197,"duration":0.060000000000002274},{"name":"F#2","midi":42,"time":186.00000000000355,"velocity":0.5984251968503937,"duration":0.12000000000000455},{"name":"F#3","midi":54,"time":186.00000000000355,"velocity":0.3779527559055118,"duration":0.060000000000002274},{"name":"F#3","midi":54,"time":186.12000000000356,"velocity":0.6299212598425197,"duration":0.060000000000002274},{"name":"F#2","midi":42,"time":186.24000000000356,"velocity":0.6929133858267716,"duration":0.12000000000000455},{"name":"C2","midi":36,"time":186.24000000000356,"velocity":0.9133858267716536,"duration":0.12000000000000455},{"name":"F#3","midi":54,"time":186.24000000000356,"velocity":0.3779527559055118,"duration":0.060000000000002274},{"name":"F#3","midi":54,"time":186.36000000000357,"velocity":0.6299212598425197,"duration":0.060000000000002274},{"name":"F#2","midi":42,"time":186.48000000000357,"velocity":0.5984251968503937,"duration":0.12000000000000455},{"name":"F#3","midi":54,"time":186.48000000000357,"velocity":0.3779527559055118,"duration":0.060000000000002274},{"name":"F#3","midi":54,"time":186.60000000000358,"velocity":0.6299212598425197,"duration":0.060000000000002274},{"name":"C2","midi":36,"time":186.72000000000358,"velocity":0.9133858267716536,"duration":0.12000000000000455},{"name":"D#2","midi":39,"time":186.72000000000358,"velocity":0.6929133858267716,"duration":0.12000000000000455},{"name":"F#2","midi":42,"time":186.72000000000358,"velocity":0.6929133858267716,"duration":0.12000000000000455},{"name":"D2","midi":38,"time":186.72000000000358,"velocity":0.5354330708661418,"duration":0.12000000000000455},{"name":"F#3","midi":54,"time":186.72000000000358,"velocity":0.3779527559055118,"duration":0.060000000000002274},{"name":"F#3","midi":54,"time":186.84000000000358,"velocity":0.6299212598425197,"duration":0.060000000000002274},{"name":"F#3","midi":54,"time":186.9600000000036,"velocity":0.3779527559055118,"duration":0.060000000000002274},{"name":"F#2","midi":42,"time":186.9600000000036,"velocity":0.5984251968503937,"duration":0.12000000000000455},{"name":"F#3","midi":54,"time":187.0800000000036,"velocity":0.6299212598425197,"duration":0.060000000000002274},{"name":"F#3","midi":54,"time":187.2000000000036,"velocity":0.3779527559055118,"duration":0.060000000000002274},{"name":"F#2","midi":42,"time":187.2000000000036,"velocity":0.6929133858267716,"duration":0.12000000000000455},{"name":"C2","midi":36,"time":187.2000000000036,"velocity":0.9133858267716536,"duration":0.12000000000000455},{"name":"F#3","midi":54,"time":187.3200000000036,"velocity":0.6299212598425197,"duration":0.060000000000002274},{"name":"F#3","midi":54,"time":187.4400000000036,"velocity":0.3779527559055118,"duration":0.060000000000002274},{"name":"F#2","midi":42,"time":187.4400000000036,"velocity":0.5984251968503937,"duration":0.12000000000000455},{"name":"F#3","midi":54,"time":187.5600000000036,"velocity":0.6299212598425197,"duration":0.060000000000002274},{"name":"F#3","midi":54,"time":187.68000000000362,"velocity":0.3779527559055118,"duration":0.030000000000001137},{"name":"D2","midi":38,"time":187.68000000000362,"velocity":0.5354330708661418,"duration":0.12000000000000455},{"name":"F#2","midi":42,"time":187.68000000000362,"velocity":0.6929133858267716,"duration":0.12000000000000455},{"name":"D#2","midi":39,"time":187.68000000000362,"velocity":0.6929133858267716,"duration":0.12000000000000455},{"name":"C2","midi":36,"time":187.68000000000362,"velocity":0.9133858267716536,"duration":0.12000000000000455},{"name":"F#3","midi":54,"time":187.71000000000362,"velocity":0.3779527559055118,"duration":0.030000000000001137},{"name":"F#3","midi":54,"time":187.80000000000362,"velocity":0.6299212598425197,"duration":0.060000000000002274},{"name":"F#3","midi":54,"time":187.92000000000363,"velocity":0.3779527559055118,"duration":0.060000000000002274},{"name":"F#2","midi":42,"time":187.92000000000363,"velocity":0.5984251968503937,"duration":0.12000000000000455},{"name":"F#3","midi":54,"time":188.04000000000363,"velocity":0.6299212598425197,"duration":0.060000000000002274},{"name":"F#2","midi":42,"time":188.16000000000363,"velocity":0.6929133858267716,"duration":0.12000000000000455},{"name":"C2","midi":36,"time":188.16000000000363,"velocity":0.9133858267716536,"duration":0.12000000000000455},{"name":"F#3","midi":54,"time":188.16000000000363,"velocity":0.3779527559055118,"duration":0.060000000000002274},{"name":"F#3","midi":54,"time":188.28000000000364,"velocity":0.6299212598425197,"duration":0.060000000000002274},{"name":"F#2","midi":42,"time":188.40000000000364,"velocity":0.5984251968503937,"duration":0.12000000000000455},{"name":"F#3","midi":54,"time":188.40000000000364,"velocity":0.3779527559055118,"duration":0.060000000000002274},{"name":"F#3","midi":54,"time":188.52000000000365,"velocity":0.6299212598425197,"duration":0.060000000000002274},{"name":"C2","midi":36,"time":188.64000000000365,"velocity":0.9133858267716536,"duration":0.12000000000000455},{"name":"D#2","midi":39,"time":188.64000000000365,"velocity":0.6929133858267716,"duration":0.12000000000000455},{"name":"F#2","midi":42,"time":188.64000000000365,"velocity":0.6929133858267716,"duration":0.12000000000000455},{"name":"D2","midi":38,"time":188.64000000000365,"velocity":0.5354330708661418,"duration":0.12000000000000455},{"name":"F#3","midi":54,"time":188.64000000000365,"velocity":0.3779527559055118,"duration":0.060000000000002274},{"name":"F#3","midi":54,"time":188.76000000000366,"velocity":0.6299212598425197,"duration":0.060000000000002274},{"name":"F#3","midi":54,"time":188.88000000000366,"velocity":0.3779527559055118,"duration":0.060000000000002274},{"name":"F#2","midi":42,"time":188.88000000000366,"velocity":0.5984251968503937,"duration":0.12000000000000455},{"name":"F#3","midi":54,"time":189.00000000000367,"velocity":0.6299212598425197,"duration":0.060000000000002274},{"name":"C2","midi":36,"time":189.12000000000367,"velocity":0.9133858267716536,"duration":0.12000000000000455},{"name":"F#2","midi":42,"time":189.12000000000367,"velocity":0.6929133858267716,"duration":0.12000000000000455},{"name":"F#3","midi":54,"time":189.12000000000367,"velocity":0.3779527559055118,"duration":0.060000000000002274},{"name":"F#3","midi":54,"time":189.24000000000368,"velocity":0.6299212598425197,"duration":0.060000000000002274},{"name":"F#2","midi":42,"time":189.36000000000368,"velocity":0.5984251968503937,"duration":0.12000000000000455},{"name":"F#3","midi":54,"time":189.36000000000368,"velocity":0.3779527559055118,"duration":0.060000000000002274},{"name":"F#3","midi":54,"time":189.48000000000368,"velocity":0.6299212598425197,"duration":0.060000000000002274},{"name":"F#3","midi":54,"time":189.6000000000037,"velocity":0.3779527559055118,"duration":0.030000000000001137},{"name":"D2","midi":38,"time":189.6000000000037,"velocity":0.5354330708661418,"duration":0.12000000000000455},{"name":"F#2","midi":42,"time":189.6000000000037,"velocity":0.6929133858267716,"duration":0.12000000000000455},{"name":"D#2","midi":39,"time":189.6000000000037,"velocity":0.6929133858267716,"duration":0.12000000000000455},{"name":"C2","midi":36,"time":189.6000000000037,"velocity":0.9133858267716536,"duration":0.12000000000000455},{"name":"F#3","midi":54,"time":189.6300000000037,"velocity":0.3779527559055118,"duration":0.030000000000001137},{"name":"F#3","midi":54,"time":189.7200000000037,"velocity":0.6299212598425197,"duration":0.060000000000002274},{"name":"F#3","midi":54,"time":189.8400000000037,"velocity":0.3779527559055118,"duration":0.060000000000002274},{"name":"F#2","midi":42,"time":189.8400000000037,"velocity":0.5984251968503937,"duration":0.12000000000000455},{"name":"F#3","midi":54,"time":189.9600000000037,"velocity":0.6299212598425197,"duration":0.060000000000002274},{"name":"F#2","midi":42,"time":190.0800000000037,"velocity":0.6929133858267716,"duration":0.12000000000000455},{"name":"C2","midi":36,"time":190.0800000000037,"velocity":0.9133858267716536,"duration":0.12000000000000455},{"name":"F#3","midi":54,"time":190.0800000000037,"velocity":0.3779527559055118,"duration":0.060000000000002274},{"name":"F#3","midi":54,"time":190.2000000000037,"velocity":0.6299212598425197,"duration":0.060000000000002274},{"name":"F#2","midi":42,"time":190.32000000000372,"velocity":0.5984251968503937,"duration":0.12000000000000455},{"name":"F#3","midi":54,"time":190.32000000000372,"velocity":0.3779527559055118,"duration":0.060000000000002274},{"name":"F#3","midi":54,"time":190.44000000000372,"velocity":0.6299212598425197,"duration":0.060000000000002274},{"name":"F#3","midi":54,"time":190.56000000000373,"velocity":0.3779527559055118,"duration":0.060000000000002274},{"name":"D2","midi":38,"time":190.56000000000373,"velocity":0.5354330708661418,"duration":0.12000000000000455},{"name":"F#2","midi":42,"time":190.56000000000373,"velocity":0.6929133858267716,"duration":0.12000000000000455},{"name":"D#2","midi":39,"time":190.56000000000373,"velocity":0.6929133858267716,"duration":0.12000000000000455},{"name":"C2","midi":36,"time":190.56000000000373,"velocity":0.9133858267716536,"duration":0.12000000000000455},{"name":"F#3","midi":54,"time":190.68000000000373,"velocity":0.6299212598425197,"duration":0.060000000000002274},{"name":"F#2","midi":42,"time":190.80000000000373,"velocity":0.5984251968503937,"duration":0.12000000000000455},{"name":"F#3","midi":54,"time":190.80000000000373,"velocity":0.3779527559055118,"duration":0.060000000000002274},{"name":"F#3","midi":54,"time":190.92000000000374,"velocity":0.6299212598425197,"duration":0.060000000000002274},{"name":"F#3","midi":54,"time":191.04000000000374,"velocity":0.3779527559055118,"duration":0.060000000000002274},{"name":"F#2","midi":42,"time":191.04000000000374,"velocity":0.6929133858267716,"duration":0.12000000000000455},{"name":"C2","midi":36,"time":191.04000000000374,"velocity":0.9133858267716536,"duration":0.12000000000000455},{"name":"F#3","midi":54,"time":191.16000000000375,"velocity":0.6299212598425197,"duration":0.060000000000002274},{"name":"F#3","midi":54,"time":191.28000000000375,"velocity":0.3779527559055118,"duration":0.060000000000002274},{"name":"F#2","midi":42,"time":191.28000000000375,"velocity":0.5984251968503937,"duration":0.12000000000000455},{"name":"F#3","midi":54,"time":191.40000000000376,"velocity":0.6299212598425197,"duration":0.060000000000002274},{"name":"F#3","midi":54,"time":191.52000000000376,"velocity":0.3779527559055118,"duration":0.030000000000001137},{"name":"D2","midi":38,"time":191.52000000000376,"velocity":0.5354330708661418,"duration":0.12000000000000455},{"name":"F#2","midi":42,"time":191.52000000000376,"velocity":0.6929133858267716,"duration":0.12000000000000455},{"name":"D#2","midi":39,"time":191.52000000000376,"velocity":0.6929133858267716,"duration":0.12000000000000455},{"name":"C2","midi":36,"time":191.52000000000376,"velocity":0.9133858267716536,"duration":0.12000000000000455},{"name":"F#3","midi":54,"time":191.55000000000376,"velocity":0.3779527559055118,"duration":0.030000000000001137},{"name":"F#3","midi":54,"time":191.64000000000377,"velocity":0.6299212598425197,"duration":0.060000000000002274},{"name":"F#3","midi":54,"time":191.76000000000377,"velocity":0.3779527559055118,"duration":0.060000000000002274},{"name":"F#2","midi":42,"time":191.76000000000377,"velocity":0.5984251968503937,"duration":0.12000000000000455},{"name":"F#3","midi":54,"time":191.88000000000378,"velocity":0.6299212598425197,"duration":0.060000000000002274},{"name":"F#3","midi":54,"time":192.00000000000378,"velocity":0.3779527559055118,"duration":0.060000000000002274},{"name":"C2","midi":36,"time":192.00000000000378,"velocity":0.9133858267716536,"duration":0.12000000000000455},{"name":"F#2","midi":42,"time":192.00000000000378,"velocity":0.6929133858267716,"duration":0.12000000000000455},{"name":"F#3","midi":54,"time":192.12000000000378,"velocity":0.6299212598425197,"duration":0.060000000000002274},{"name":"F#3","midi":54,"time":192.2400000000038,"velocity":0.3779527559055118,"duration":0.060000000000002274},{"name":"F#2","midi":42,"time":192.2400000000038,"velocity":0.5984251968503937,"duration":0.12000000000000455},{"name":"F#3","midi":54,"time":192.3600000000038,"velocity":0.6299212598425197,"duration":0.060000000000002274},{"name":"F#3","midi":54,"time":192.4800000000038,"velocity":0.3779527559055118,"duration":0.060000000000002274},{"name":"C2","midi":36,"time":192.4800000000038,"velocity":0.9133858267716536,"duration":0.12000000000000455},{"name":"D#2","midi":39,"time":192.4800000000038,"velocity":0.6929133858267716,"duration":0.12000000000000455},{"name":"F#2","midi":42,"time":192.4800000000038,"velocity":0.6929133858267716,"duration":0.12000000000000455},{"name":"D2","midi":38,"time":192.4800000000038,"velocity":0.5354330708661418,"duration":0.12000000000000455},{"name":"F#3","midi":54,"time":192.6000000000038,"velocity":0.6299212598425197,"duration":0.060000000000002274},{"name":"F#3","midi":54,"time":192.7200000000038,"velocity":0.3779527559055118,"duration":0.060000000000002274},{"name":"F#2","midi":42,"time":192.7200000000038,"velocity":0.5984251968503937,"duration":0.12000000000000455},{"name":"F#3","midi":54,"time":192.8400000000038,"velocity":0.6299212598425197,"duration":0.060000000000002274},{"name":"F#3","midi":54,"time":192.96000000000382,"velocity":0.3779527559055118,"duration":0.060000000000002274},{"name":"C2","midi":36,"time":192.96000000000382,"velocity":0.9133858267716536,"duration":0.12000000000000455},{"name":"F#2","midi":42,"time":192.96000000000382,"velocity":0.6929133858267716,"duration":0.12000000000000455},{"name":"F#3","midi":54,"time":193.08000000000382,"velocity":0.6299212598425197,"duration":0.060000000000002274},{"name":"F#3","midi":54,"time":193.20000000000383,"velocity":0.3779527559055118,"duration":0.060000000000002274},{"name":"F#2","midi":42,"time":193.20000000000383,"velocity":0.5984251968503937,"duration":0.12000000000000455},{"name":"F#3","midi":54,"time":193.32000000000383,"velocity":0.6299212598425197,"duration":0.060000000000002274},{"name":"F#3","midi":54,"time":193.44000000000383,"velocity":0.3779527559055118,"duration":0.030000000000001137},{"name":"C2","midi":36,"time":193.44000000000383,"velocity":0.9133858267716536,"duration":0.12000000000000455},{"name":"D#2","midi":39,"time":193.44000000000383,"velocity":0.6929133858267716,"duration":0.12000000000000455},{"name":"F#2","midi":42,"time":193.44000000000383,"velocity":0.6929133858267716,"duration":0.12000000000000455},{"name":"D2","midi":38,"time":193.44000000000383,"velocity":0.5354330708661418,"duration":0.12000000000000455},{"name":"F#3","midi":54,"time":193.47000000000384,"velocity":0.3779527559055118,"duration":0.030000000000001137},{"name":"F#3","midi":54,"time":193.56000000000384,"velocity":0.6299212598425197,"duration":0.060000000000002274},{"name":"F#3","midi":54,"time":193.68000000000384,"velocity":0.3779527559055118,"duration":0.060000000000002274},{"name":"F#2","midi":42,"time":193.68000000000384,"velocity":0.5984251968503937,"duration":0.12000000000000455},{"name":"F#3","midi":54,"time":193.80000000000385,"velocity":0.6299212598425197,"duration":0.060000000000002274},{"name":"F#3","midi":54,"time":193.92000000000385,"velocity":0.3779527559055118,"duration":0.060000000000002274},{"name":"F#2","midi":42,"time":193.92000000000385,"velocity":0.6929133858267716,"duration":0.12000000000000455},{"name":"C2","midi":36,"time":193.92000000000385,"velocity":0.9133858267716536,"duration":0.12000000000000455},{"name":"F#3","midi":54,"time":194.04000000000386,"velocity":0.6299212598425197,"duration":0.060000000000002274},{"name":"F#3","midi":54,"time":194.16000000000386,"velocity":0.3779527559055118,"duration":0.060000000000002274},{"name":"F#2","midi":42,"time":194.16000000000386,"velocity":0.5984251968503937,"duration":0.12000000000000455},{"name":"F#3","midi":54,"time":194.28000000000387,"velocity":0.6299212598425197,"duration":0.060000000000002274},{"name":"F#3","midi":54,"time":194.40000000000387,"velocity":0.3779527559055118,"duration":0.060000000000002274},{"name":"C2","midi":36,"time":194.40000000000387,"velocity":0.9133858267716536,"duration":0.12000000000000455},{"name":"D#2","midi":39,"time":194.40000000000387,"velocity":0.6929133858267716,"duration":0.12000000000000455},{"name":"F#2","midi":42,"time":194.40000000000387,"velocity":0.6929133858267716,"duration":0.12000000000000455},{"name":"D2","midi":38,"time":194.40000000000387,"velocity":0.5354330708661418,"duration":0.12000000000000455},{"name":"F#3","midi":54,"time":194.52000000000388,"velocity":0.6299212598425197,"duration":0.060000000000002274},{"name":"F#3","midi":54,"time":194.64000000000388,"velocity":0.3779527559055118,"duration":0.060000000000002274},{"name":"F#2","midi":42,"time":194.64000000000388,"velocity":0.5984251968503937,"duration":0.12000000000000455},{"name":"F#3","midi":54,"time":194.76000000000388,"velocity":0.6299212598425197,"duration":0.060000000000002274},{"name":"F#3","midi":54,"time":194.8800000000039,"velocity":0.3779527559055118,"duration":0.060000000000002274},{"name":"C2","midi":36,"time":194.8800000000039,"velocity":0.9133858267716536,"duration":0.12000000000000455},{"name":"F#2","midi":42,"time":194.8800000000039,"velocity":0.6929133858267716,"duration":0.12000000000000455},{"name":"F#3","midi":54,"time":195.0000000000039,"velocity":0.6299212598425197,"duration":0.060000000000002274},{"name":"F#3","midi":54,"time":195.1200000000039,"velocity":0.3779527559055118,"duration":0.060000000000002274},{"name":"F#2","midi":42,"time":195.1200000000039,"velocity":0.5984251968503937,"duration":0.12000000000000455},{"name":"F#3","midi":54,"time":195.2400000000039,"velocity":0.6299212598425197,"duration":0.060000000000002274},{"name":"F#3","midi":54,"time":195.3600000000039,"velocity":0.3779527559055118,"duration":0.030000000000001137},{"name":"C2","midi":36,"time":195.3600000000039,"velocity":0.9133858267716536,"duration":0.12000000000000455},{"name":"D#2","midi":39,"time":195.3600000000039,"velocity":0.6929133858267716,"duration":0.12000000000000455},{"name":"F#2","midi":42,"time":195.3600000000039,"velocity":0.6929133858267716,"duration":0.12000000000000455},{"name":"D2","midi":38,"time":195.3600000000039,"velocity":0.5354330708661418,"duration":0.12000000000000455},{"name":"F#3","midi":54,"time":195.3900000000039,"velocity":0.3779527559055118,"duration":0.030000000000001137},{"name":"F#3","midi":54,"time":195.4800000000039,"velocity":0.6299212598425197,"duration":0.060000000000002274},{"name":"F#3","midi":54,"time":195.60000000000392,"velocity":0.3779527559055118,"duration":0.060000000000002274},{"name":"F#2","midi":42,"time":195.60000000000392,"velocity":0.5984251968503937,"duration":0.12000000000000455},{"name":"F#3","midi":54,"time":195.72000000000392,"velocity":0.6299212598425197,"duration":0.060000000000002274},{"name":"F#3","midi":54,"time":195.84000000000393,"velocity":0.3779527559055118,"duration":0.060000000000002274},{"name":"F#2","midi":42,"time":195.84000000000393,"velocity":0.6929133858267716,"duration":0.12000000000000455},{"name":"C2","midi":36,"time":195.84000000000393,"velocity":0.9133858267716536,"duration":0.12000000000000455},{"name":"F#3","midi":54,"time":195.96000000000393,"velocity":0.6299212598425197,"duration":0.060000000000002274},{"name":"F#3","midi":54,"time":196.08000000000393,"velocity":0.3779527559055118,"duration":0.060000000000002274},{"name":"F#2","midi":42,"time":196.08000000000393,"velocity":0.5984251968503937,"duration":0.12000000000000455},{"name":"F#3","midi":54,"time":196.20000000000394,"velocity":0.6299212598425197,"duration":0.060000000000002274},{"name":"F#3","midi":54,"time":196.32000000000394,"velocity":0.3779527559055118,"duration":0.060000000000002274},{"name":"C2","midi":36,"time":196.32000000000394,"velocity":0.9133858267716536,"duration":0.12000000000000455},{"name":"D#2","midi":39,"time":196.32000000000394,"velocity":0.6929133858267716,"duration":0.12000000000000455},{"name":"F#2","midi":42,"time":196.32000000000394,"velocity":0.6929133858267716,"duration":0.12000000000000455},{"name":"D2","midi":38,"time":196.32000000000394,"velocity":0.5354330708661418,"duration":0.12000000000000455},{"name":"F#3","midi":54,"time":196.44000000000395,"velocity":0.6299212598425197,"duration":0.060000000000002274},{"name":"F#3","midi":54,"time":196.56000000000395,"velocity":0.3779527559055118,"duration":0.060000000000002274},{"name":"F#2","midi":42,"time":196.56000000000395,"velocity":0.5984251968503937,"duration":0.12000000000000455},{"name":"F#3","midi":54,"time":196.68000000000396,"velocity":0.6299212598425197,"duration":0.060000000000002274},{"name":"F#3","midi":54,"time":196.80000000000396,"velocity":0.3779527559055118,"duration":0.060000000000002274},{"name":"C2","midi":36,"time":196.80000000000396,"velocity":0.9133858267716536,"duration":0.12000000000000455},{"name":"F#2","midi":42,"time":196.80000000000396,"velocity":0.6929133858267716,"duration":0.12000000000000455},{"name":"F#3","midi":54,"time":196.92000000000397,"velocity":0.6299212598425197,"duration":0.060000000000002274},{"name":"F#3","midi":54,"time":197.04000000000397,"velocity":0.3779527559055118,"duration":0.060000000000002274},{"name":"F#2","midi":42,"time":197.04000000000397,"velocity":0.5984251968503937,"duration":0.12000000000000455},{"name":"F#3","midi":54,"time":197.16000000000398,"velocity":0.6299212598425197,"duration":0.060000000000002274},{"name":"F#3","midi":54,"time":197.28000000000398,"velocity":0.3779527559055118,"duration":0.030000000000001137},{"name":"C2","midi":36,"time":197.28000000000398,"velocity":0.9133858267716536,"duration":0.12000000000000455},{"name":"D#2","midi":39,"time":197.28000000000398,"velocity":0.6929133858267716,"duration":0.12000000000000455},{"name":"F#2","midi":42,"time":197.28000000000398,"velocity":0.6929133858267716,"duration":0.12000000000000455},{"name":"D2","midi":38,"time":197.28000000000398,"velocity":0.5354330708661418,"duration":0.12000000000000455},{"name":"F#3","midi":54,"time":197.31000000000398,"velocity":0.3779527559055118,"duration":0.030000000000001137},{"name":"F#3","midi":54,"time":197.40000000000398,"velocity":0.6299212598425197,"duration":0.060000000000002274},{"name":"F#3","midi":54,"time":197.520000000004,"velocity":0.3779527559055118,"duration":0.060000000000002274},{"name":"F#2","midi":42,"time":197.520000000004,"velocity":0.5984251968503937,"duration":0.12000000000000455},{"name":"F#3","midi":54,"time":197.640000000004,"velocity":0.6299212598425197,"duration":0.060000000000002274},{"name":"F#3","midi":54,"time":197.760000000004,"velocity":0.3779527559055118,"duration":0.060000000000002274},{"name":"F#2","midi":42,"time":197.760000000004,"velocity":0.6929133858267716,"duration":0.12000000000000455},{"name":"C2","midi":36,"time":197.760000000004,"velocity":0.9133858267716536,"duration":0.12000000000000455},{"name":"F#3","midi":54,"time":197.880000000004,"velocity":0.6299212598425197,"duration":0.060000000000002274},{"name":"F#3","midi":54,"time":198.000000000004,"velocity":0.3779527559055118,"duration":0.060000000000002274},{"name":"F#2","midi":42,"time":198.000000000004,"velocity":0.5984251968503937,"duration":0.12000000000000455},{"name":"F#3","midi":54,"time":198.120000000004,"velocity":0.6299212598425197,"duration":0.060000000000002274},{"name":"F#3","midi":54,"time":198.24000000000402,"velocity":0.3779527559055118,"duration":0.060000000000002274},{"name":"D2","midi":38,"time":198.24000000000402,"velocity":0.5354330708661418,"duration":0.12000000000000455},{"name":"C2","midi":36,"time":198.24000000000402,"velocity":0.9133858267716536,"duration":0.12000000000000455},{"name":"D#2","midi":39,"time":198.24000000000402,"velocity":0.6929133858267716,"duration":0.12000000000000455},{"name":"F#2","midi":42,"time":198.24000000000402,"velocity":0.6929133858267716,"duration":0.12000000000000455},{"name":"F#3","midi":54,"time":198.36000000000402,"velocity":0.6299212598425197,"duration":0.060000000000002274},{"name":"F#3","midi":54,"time":198.48000000000403,"velocity":0.3779527559055118,"duration":0.060000000000002274},{"name":"F#2","midi":42,"time":198.48000000000403,"velocity":0.5984251968503937,"duration":0.12000000000000455},{"name":"F#3","midi":54,"time":198.60000000000403,"velocity":0.6299212598425197,"duration":0.060000000000002274},{"name":"F#3","midi":54,"time":198.72000000000403,"velocity":0.3779527559055118,"duration":0.060000000000002274},{"name":"F#2","midi":42,"time":198.72000000000403,"velocity":0.6929133858267716,"duration":0.12000000000000455},{"name":"C2","midi":36,"time":198.72000000000403,"velocity":0.9133858267716536,"duration":0.12000000000000455},{"name":"F#3","midi":54,"time":198.84000000000404,"velocity":0.6299212598425197,"duration":0.060000000000002274},{"name":"F#3","midi":54,"time":198.96000000000404,"velocity":0.3779527559055118,"duration":0.060000000000002274},{"name":"F#2","midi":42,"time":198.96000000000404,"velocity":0.5984251968503937,"duration":0.12000000000000455},{"name":"F#3","midi":54,"time":199.08000000000405,"velocity":0.6299212598425197,"duration":0.060000000000002274},{"name":"F#3","midi":54,"time":199.20000000000405,"velocity":0.3779527559055118,"duration":0.030000000000001137},{"name":"F#2","midi":42,"time":199.20000000000405,"velocity":0.6929133858267716,"duration":0.12000000000000455},{"name":"D#2","midi":39,"time":199.20000000000405,"velocity":0.6929133858267716,"duration":0.12000000000000455},{"name":"C2","midi":36,"time":199.20000000000405,"velocity":0.9133858267716536,"duration":0.12000000000000455},{"name":"D2","midi":38,"time":199.20000000000405,"velocity":0.5354330708661418,"duration":0.12000000000000455},{"name":"F#3","midi":54,"time":199.23000000000405,"velocity":0.3779527559055118,"duration":0.030000000000001137},{"name":"F#3","midi":54,"time":199.32000000000406,"velocity":0.6299212598425197,"duration":0.060000000000002274},{"name":"F#3","midi":54,"time":199.44000000000406,"velocity":0.3779527559055118,"duration":0.060000000000002274},{"name":"F#2","midi":42,"time":199.44000000000406,"velocity":0.5039370078740157,"duration":0.12000000000000455},{"name":"F#3","midi":54,"time":199.56000000000407,"velocity":0.6299212598425197,"duration":0.060000000000002274},{"name":"F#3","midi":54,"time":199.68000000000407,"velocity":0.3779527559055118,"duration":0.060000000000002274},{"name":"C2","midi":36,"time":199.68000000000407,"velocity":0.9133858267716536,"duration":0.12000000000000455},{"name":"F#2","midi":42,"time":199.68000000000407,"velocity":0.6929133858267716,"duration":0.12000000000000455},{"name":"F#3","midi":54,"time":199.80000000000408,"velocity":0.6299212598425197,"duration":0.060000000000002274},{"name":"F#3","midi":54,"time":199.92000000000408,"velocity":0.3779527559055118,"duration":0.060000000000002274},{"name":"F#2","midi":42,"time":199.92000000000408,"velocity":0.5984251968503937,"duration":0.12000000000000455},{"name":"F#3","midi":54,"time":200.04000000000408,"velocity":0.6299212598425197,"duration":0.060000000000002274},{"name":"C2","midi":36,"time":200.1600000000041,"velocity":0.9133858267716536,"duration":0.12000000000000455},{"name":"D#2","midi":39,"time":200.1600000000041,"velocity":0.6929133858267716,"duration":0.12000000000000455},{"name":"F#2","midi":42,"time":200.1600000000041,"velocity":0.6929133858267716,"duration":0.12000000000000455},{"name":"D2","midi":38,"time":200.1600000000041,"velocity":0.5354330708661418,"duration":0.12000000000000455},{"name":"F#3","midi":54,"time":200.1600000000041,"velocity":0.3779527559055118,"duration":0.060000000000002274},{"name":"F#3","midi":54,"time":200.2800000000041,"velocity":0.6299212598425197,"duration":0.060000000000002274},{"name":"F#3","midi":54,"time":200.4000000000041,"velocity":0.3779527559055118,"duration":0.060000000000002274},{"name":"F#2","midi":42,"time":200.4000000000041,"velocity":0.5984251968503937,"duration":0.12000000000000455},{"name":"F#3","midi":54,"time":200.5200000000041,"velocity":0.6299212598425197,"duration":0.060000000000002274},{"name":"F#3","midi":54,"time":200.6400000000041,"velocity":0.3779527559055118,"duration":0.060000000000002274},{"name":"F#2","midi":42,"time":200.6400000000041,"velocity":0.6929133858267716,"duration":0.12000000000000455},{"name":"C2","midi":36,"time":200.6400000000041,"velocity":0.9133858267716536,"duration":0.12000000000000455},{"name":"F#3","midi":54,"time":200.7600000000041,"velocity":0.6299212598425197,"duration":0.060000000000002274},{"name":"F#2","midi":42,"time":200.88000000000412,"velocity":0.5984251968503937,"duration":0.12000000000000455},{"name":"F#3","midi":54,"time":200.88000000000412,"velocity":0.3779527559055118,"duration":0.060000000000002274},{"name":"F#3","midi":54,"time":201.00000000000412,"velocity":0.6299212598425197,"duration":0.060000000000002274},{"name":"F#3","midi":54,"time":201.12000000000413,"velocity":0.3779527559055118,"duration":0.030000000000001137},{"name":"D2","midi":38,"time":201.12000000000413,"velocity":0.5354330708661418,"duration":0.12000000000000455},{"name":"F#2","midi":42,"time":201.12000000000413,"velocity":0.6929133858267716,"duration":0.12000000000000455},{"name":"D#2","midi":39,"time":201.12000000000413,"velocity":0.6929133858267716,"duration":0.12000000000000455},{"name":"C2","midi":36,"time":201.12000000000413,"velocity":0.9133858267716536,"duration":0.12000000000000455},{"name":"F#3","midi":54,"time":201.15000000000413,"velocity":0.3779527559055118,"duration":0.030000000000001137},{"name":"F#3","midi":54,"time":201.24000000000413,"velocity":0.6299212598425197,"duration":0.060000000000002274},{"name":"F#2","midi":42,"time":201.36000000000413,"velocity":0.5984251968503937,"duration":0.12000000000000455},{"name":"F#3","midi":54,"time":201.36000000000413,"velocity":0.3779527559055118,"duration":0.060000000000002274},{"name":"F#3","midi":54,"time":201.48000000000414,"velocity":0.6299212598425197,"duration":0.060000000000002274},{"name":"F#2","midi":42,"time":201.60000000000414,"velocity":0.6929133858267716,"duration":0.12000000000000455},{"name":"C2","midi":36,"time":201.60000000000414,"velocity":0.9133858267716536,"duration":0.12000000000000455},{"name":"F#3","midi":54,"time":201.60000000000414,"velocity":0.3779527559055118,"duration":0.060000000000002274},{"name":"F#3","midi":54,"time":201.72000000000415,"velocity":0.6299212598425197,"duration":0.060000000000002274},{"name":"F#2","midi":42,"time":201.84000000000415,"velocity":0.5984251968503937,"duration":0.12000000000000455},{"name":"F#3","midi":54,"time":201.84000000000415,"velocity":0.3779527559055118,"duration":0.060000000000002274},{"name":"F#3","midi":54,"time":201.96000000000416,"velocity":0.6299212598425197,"duration":0.060000000000002274},{"name":"C2","midi":36,"time":202.08000000000416,"velocity":0.9133858267716536,"duration":0.12000000000000455},{"name":"D#2","midi":39,"time":202.08000000000416,"velocity":0.6929133858267716,"duration":0.12000000000000455},{"name":"F#2","midi":42,"time":202.08000000000416,"velocity":0.6929133858267716,"duration":0.12000000000000455},{"name":"D2","midi":38,"time":202.08000000000416,"velocity":0.5354330708661418,"duration":0.12000000000000455},{"name":"F#3","midi":54,"time":202.08000000000416,"velocity":0.3779527559055118,"duration":0.060000000000002274},{"name":"F#3","midi":54,"time":202.20000000000417,"velocity":0.6299212598425197,"duration":0.060000000000002274},{"name":"F#3","midi":54,"time":202.32000000000417,"velocity":0.3779527559055118,"duration":0.060000000000002274},{"name":"F#2","midi":42,"time":202.32000000000417,"velocity":0.5984251968503937,"duration":0.12000000000000455},{"name":"F#3","midi":54,"time":202.44000000000418,"velocity":0.6299212598425197,"duration":0.060000000000002274},{"name":"F#3","midi":54,"time":202.56000000000418,"velocity":0.3779527559055118,"duration":0.060000000000002274},{"name":"F#2","midi":42,"time":202.56000000000418,"velocity":0.6929133858267716,"duration":0.12000000000000455},{"name":"C2","midi":36,"time":202.56000000000418,"velocity":0.9133858267716536,"duration":0.12000000000000455},{"name":"F#3","midi":54,"time":202.68000000000418,"velocity":0.6299212598425197,"duration":0.060000000000002274},{"name":"F#3","midi":54,"time":202.8000000000042,"velocity":0.3779527559055118,"duration":0.060000000000002274},{"name":"F#2","midi":42,"time":202.8000000000042,"velocity":0.5984251968503937,"duration":0.12000000000000455},{"name":"F#3","midi":54,"time":202.9200000000042,"velocity":0.6299212598425197,"duration":0.060000000000002274},{"name":"F#3","midi":54,"time":203.0400000000042,"velocity":0.3779527559055118,"duration":0.030000000000001137},{"name":"D2","midi":38,"time":203.0400000000042,"velocity":0.5354330708661418,"duration":0.12000000000000455},{"name":"F#2","midi":42,"time":203.0400000000042,"velocity":0.6929133858267716,"duration":0.12000000000000455},{"name":"D#2","midi":39,"time":203.0400000000042,"velocity":0.6929133858267716,"duration":0.12000000000000455},{"name":"C2","midi":36,"time":203.0400000000042,"velocity":0.9133858267716536,"duration":0.12000000000000455},{"name":"F#3","midi":54,"time":203.0700000000042,"velocity":0.3779527559055118,"duration":0.030000000000001137},{"name":"F#3","midi":54,"time":203.1600000000042,"velocity":0.6299212598425197,"duration":0.060000000000002274},{"name":"F#3","midi":54,"time":203.2800000000042,"velocity":0.3779527559055118,"duration":0.060000000000002274},{"name":"F#2","midi":42,"time":203.2800000000042,"velocity":0.5984251968503937,"duration":0.12000000000000455},{"name":"F#3","midi":54,"time":203.4000000000042,"velocity":0.6299212598425197,"duration":0.060000000000002274},{"name":"F#2","midi":42,"time":203.52000000000422,"velocity":0.6929133858267716,"duration":0.12000000000000455},{"name":"C2","midi":36,"time":203.52000000000422,"velocity":0.9133858267716536,"duration":0.12000000000000455},{"name":"F#3","midi":54,"time":203.52000000000422,"velocity":0.3779527559055118,"duration":0.060000000000002274},{"name":"F#3","midi":54,"time":203.64000000000422,"velocity":0.6299212598425197,"duration":0.060000000000002274},{"name":"F#2","midi":42,"time":203.76000000000423,"velocity":0.5984251968503937,"duration":0.12000000000000455},{"name":"F#3","midi":54,"time":203.76000000000423,"velocity":0.3779527559055118,"duration":0.060000000000002274},{"name":"F#3","midi":54,"time":203.88000000000423,"velocity":0.6299212598425197,"duration":0.060000000000002274},{"name":"C2","midi":36,"time":204.00000000000423,"velocity":0.9133858267716536,"duration":0.12000000000000455},{"name":"D#2","midi":39,"time":204.00000000000423,"velocity":0.6929133858267716,"duration":0.12000000000000455},{"name":"F#2","midi":42,"time":204.00000000000423,"velocity":0.6929133858267716,"duration":0.12000000000000455},{"name":"D2","midi":38,"time":204.00000000000423,"velocity":0.5354330708661418,"duration":0.12000000000000455},{"name":"F#3","midi":54,"time":204.00000000000423,"velocity":0.3779527559055118,"duration":0.060000000000002274},{"name":"F#3","midi":54,"time":204.12000000000424,"velocity":0.6299212598425197,"duration":0.060000000000002274},{"name":"F#3","midi":54,"time":204.24000000000424,"velocity":0.3779527559055118,"duration":0.060000000000002274},{"name":"F#2","midi":42,"time":204.24000000000424,"velocity":0.5984251968503937,"duration":0.12000000000000455},{"name":"F#3","midi":54,"time":204.36000000000425,"velocity":0.6299212598425197,"duration":0.060000000000002274},{"name":"C2","midi":36,"time":204.48000000000425,"velocity":0.9133858267716536,"duration":0.12000000000000455},{"name":"F#2","midi":42,"time":204.48000000000425,"velocity":0.6929133858267716,"duration":0.12000000000000455},{"name":"F#3","midi":54,"time":204.48000000000425,"velocity":0.3779527559055118,"duration":0.060000000000002274},{"name":"F#3","midi":54,"time":204.60000000000426,"velocity":0.6299212598425197,"duration":0.060000000000002274},{"name":"F#2","midi":42,"time":204.72000000000426,"velocity":0.5984251968503937,"duration":0.12000000000000455},{"name":"F#3","midi":54,"time":204.72000000000426,"velocity":0.3779527559055118,"duration":0.060000000000002274},{"name":"F#3","midi":54,"time":204.84000000000427,"velocity":0.6299212598425197,"duration":0.060000000000002274},{"name":"F#3","midi":54,"time":204.96000000000427,"velocity":0.3779527559055118,"duration":0.030000000000001137},{"name":"D2","midi":38,"time":204.96000000000427,"velocity":0.5354330708661418,"duration":0.12000000000000455},{"name":"F#2","midi":42,"time":204.96000000000427,"velocity":0.6929133858267716,"duration":0.12000000000000455},{"name":"D#2","midi":39,"time":204.96000000000427,"velocity":0.6929133858267716,"duration":0.12000000000000455},{"name":"C2","midi":36,"time":204.96000000000427,"velocity":0.9133858267716536,"duration":0.12000000000000455},{"name":"F#3","midi":54,"time":204.99000000000427,"velocity":0.3779527559055118,"duration":0.030000000000001137},{"name":"F#3","midi":54,"time":205.08000000000428,"velocity":0.6299212598425197,"duration":0.060000000000002274},{"name":"F#3","midi":54,"time":205.20000000000428,"velocity":0.3779527559055118,"duration":0.060000000000002274},{"name":"F#2","midi":42,"time":205.20000000000428,"velocity":0.5984251968503937,"duration":0.12000000000000455},{"name":"F#3","midi":54,"time":205.32000000000428,"velocity":0.6299212598425197,"duration":0.060000000000002274},{"name":"F#2","midi":42,"time":205.4400000000043,"velocity":0.6929133858267716,"duration":0.12000000000000455},{"name":"C2","midi":36,"time":205.4400000000043,"velocity":0.9133858267716536,"duration":0.12000000000000455},{"name":"F#3","midi":54,"time":205.4400000000043,"velocity":0.3779527559055118,"duration":0.060000000000002274},{"name":"F#3","midi":54,"time":205.5600000000043,"velocity":0.6299212598425197,"duration":0.060000000000002274},{"name":"F#2","midi":42,"time":205.6800000000043,"velocity":0.5984251968503937,"duration":0.12000000000000455},{"name":"F#3","midi":54,"time":205.6800000000043,"velocity":0.3779527559055118,"duration":0.060000000000002274},{"name":"F#3","midi":54,"time":205.8000000000043,"velocity":0.6299212598425197,"duration":0.060000000000002274},{"name":"F#3","midi":54,"time":205.9200000000043,"velocity":0.3779527559055118,"duration":0.060000000000002274},{"name":"D2","midi":38,"time":205.9200000000043,"velocity":0.5354330708661418,"duration":0.12000000000000455},{"name":"F#2","midi":42,"time":205.9200000000043,"velocity":0.6929133858267716,"duration":0.12000000000000455},{"name":"D#2","midi":39,"time":205.9200000000043,"velocity":0.6929133858267716,"duration":0.12000000000000455},{"name":"C2","midi":36,"time":205.9200000000043,"velocity":0.9133858267716536,"duration":0.12000000000000455},{"name":"F#3","midi":54,"time":206.0400000000043,"velocity":0.6299212598425197,"duration":0.060000000000002274},{"name":"F#2","midi":42,"time":206.16000000000432,"velocity":0.5984251968503937,"duration":0.12000000000000455},{"name":"F#3","midi":54,"time":206.16000000000432,"velocity":0.3779527559055118,"duration":0.060000000000002274},{"name":"F#3","midi":54,"time":206.28000000000432,"velocity":0.6299212598425197,"duration":0.060000000000002274},{"name":"F#3","midi":54,"time":206.40000000000433,"velocity":0.3779527559055118,"duration":0.060000000000002274},{"name":"F#2","midi":42,"time":206.40000000000433,"velocity":0.6929133858267716,"duration":0.12000000000000455},{"name":"C2","midi":36,"time":206.40000000000433,"velocity":0.9133858267716536,"duration":0.12000000000000455},{"name":"F#3","midi":54,"time":206.52000000000433,"velocity":0.6299212598425197,"duration":0.060000000000002274},{"name":"F#3","midi":54,"time":206.64000000000433,"velocity":0.3779527559055118,"duration":0.060000000000002274},{"name":"F#2","midi":42,"time":206.64000000000433,"velocity":0.5984251968503937,"duration":0.12000000000000455},{"name":"F#3","midi":54,"time":206.76000000000434,"velocity":0.6299212598425197,"duration":0.060000000000002274},{"name":"F#3","midi":54,"time":206.88000000000434,"velocity":0.3779527559055118,"duration":0.030000000000001137},{"name":"D2","midi":38,"time":206.88000000000434,"velocity":0.5354330708661418,"duration":0.12000000000000455},{"name":"F#2","midi":42,"time":206.88000000000434,"velocity":0.6929133858267716,"duration":0.12000000000000455},{"name":"D#2","midi":39,"time":206.88000000000434,"velocity":0.6929133858267716,"duration":0.12000000000000455},{"name":"C2","midi":36,"time":206.88000000000434,"velocity":0.9133858267716536,"duration":0.12000000000000455},{"name":"F#3","midi":54,"time":206.91000000000435,"velocity":0.3779527559055118,"duration":0.030000000000001137},{"name":"F#3","midi":54,"time":207.00000000000435,"velocity":0.6299212598425197,"duration":0.060000000000002274},{"name":"F#3","midi":54,"time":207.12000000000435,"velocity":0.3779527559055118,"duration":0.060000000000002274},{"name":"F#2","midi":42,"time":207.12000000000435,"velocity":0.5984251968503937,"duration":0.12000000000000455},{"name":"F#3","midi":54,"time":207.24000000000436,"velocity":0.6299212598425197,"duration":0.060000000000002274},{"name":"F#3","midi":54,"time":207.36000000000436,"velocity":0.3779527559055118,"duration":0.060000000000002274},{"name":"C2","midi":36,"time":207.36000000000436,"velocity":0.9133858267716536,"duration":0.12000000000000455},{"name":"F#2","midi":42,"time":207.36000000000436,"velocity":0.6929133858267716,"duration":0.12000000000000455},{"name":"F#3","midi":54,"time":207.48000000000437,"velocity":0.6299212598425197,"duration":0.060000000000002274},{"name":"F#3","midi":54,"time":207.60000000000437,"velocity":0.3779527559055118,"duration":0.060000000000002274},{"name":"F#2","midi":42,"time":207.60000000000437,"velocity":0.5984251968503937,"duration":0.12000000000000455},{"name":"F#3","midi":54,"time":207.72000000000438,"velocity":0.6299212598425197,"duration":0.060000000000002274},{"name":"F#3","midi":54,"time":207.84000000000438,"velocity":0.3779527559055118,"duration":0.060000000000002274},{"name":"C2","midi":36,"time":207.84000000000438,"velocity":0.9133858267716536,"duration":0.12000000000000455},{"name":"D#2","midi":39,"time":207.84000000000438,"velocity":0.6929133858267716,"duration":0.12000000000000455},{"name":"F#2","midi":42,"time":207.84000000000438,"velocity":0.6929133858267716,"duration":0.12000000000000455},{"name":"D2","midi":38,"time":207.84000000000438,"velocity":0.5354330708661418,"duration":0.12000000000000455},{"name":"F#3","midi":54,"time":207.96000000000438,"velocity":0.6299212598425197,"duration":0.060000000000002274},{"name":"F#3","midi":54,"time":208.0800000000044,"velocity":0.3779527559055118,"duration":0.060000000000002274},{"name":"F#2","midi":42,"time":208.0800000000044,"velocity":0.5984251968503937,"duration":0.12000000000000455},{"name":"F#3","midi":54,"time":208.2000000000044,"velocity":0.6299212598425197,"duration":0.060000000000002274},{"name":"F#3","midi":54,"time":208.3200000000044,"velocity":0.3779527559055118,"duration":0.060000000000002274},{"name":"C2","midi":36,"time":208.3200000000044,"velocity":0.9133858267716536,"duration":0.12000000000000455},{"name":"F#2","midi":42,"time":208.3200000000044,"velocity":0.6929133858267716,"duration":0.12000000000000455},{"name":"F#3","midi":54,"time":208.4400000000044,"velocity":0.6299212598425197,"duration":0.060000000000002274},{"name":"F#3","midi":54,"time":208.5600000000044,"velocity":0.3779527559055118,"duration":0.060000000000002274},{"name":"F#2","midi":42,"time":208.5600000000044,"velocity":0.5984251968503937,"duration":0.12000000000000455},{"name":"F#3","midi":54,"time":208.6800000000044,"velocity":0.6299212598425197,"duration":0.060000000000002274},{"name":"F#3","midi":54,"time":208.80000000000442,"velocity":0.3779527559055118,"duration":0.030000000000001137},{"name":"C2","midi":36,"time":208.80000000000442,"velocity":0.9133858267716536,"duration":0.12000000000000455},{"name":"D#2","midi":39,"time":208.80000000000442,"velocity":0.6929133858267716,"duration":0.12000000000000455},{"name":"F#2","midi":42,"time":208.80000000000442,"velocity":0.6929133858267716,"duration":0.12000000000000455},{"name":"D2","midi":38,"time":208.80000000000442,"velocity":0.5354330708661418,"duration":0.12000000000000455},{"name":"F#3","midi":54,"time":208.83000000000442,"velocity":0.3779527559055118,"duration":0.030000000000001137},{"name":"F#3","midi":54,"time":208.92000000000442,"velocity":0.6299212598425197,"duration":0.060000000000002274},{"name":"F#3","midi":54,"time":209.04000000000443,"velocity":0.3779527559055118,"duration":0.060000000000002274},{"name":"F#2","midi":42,"time":209.04000000000443,"velocity":0.5984251968503937,"duration":0.12000000000000455},{"name":"F#3","midi":54,"time":209.16000000000443,"velocity":0.6299212598425197,"duration":0.060000000000002274},{"name":"F#3","midi":54,"time":209.28000000000443,"velocity":0.3779527559055118,"duration":0.060000000000002274},{"name":"F#2","midi":42,"time":209.28000000000443,"velocity":0.6929133858267716,"duration":0.12000000000000455},{"name":"C2","midi":36,"time":209.28000000000443,"velocity":0.9133858267716536,"duration":0.12000000000000455},{"name":"F#3","midi":54,"time":209.40000000000444,"velocity":0.6299212598425197,"duration":0.060000000000002274},{"name":"F#3","midi":54,"time":209.52000000000444,"velocity":0.3779527559055118,"duration":0.060000000000002274},{"name":"F#2","midi":42,"time":209.52000000000444,"velocity":0.5984251968503937,"duration":0.12000000000000455},{"name":"F#3","midi":54,"time":209.64000000000445,"velocity":0.6299212598425197,"duration":0.060000000000002274},{"name":"F#3","midi":54,"time":209.76000000000445,"velocity":0.3779527559055118,"duration":0.060000000000002274},{"name":"C2","midi":36,"time":209.76000000000445,"velocity":0.9133858267716536,"duration":0.12000000000000455},{"name":"D#2","midi":39,"time":209.76000000000445,"velocity":0.6929133858267716,"duration":0.12000000000000455},{"name":"F#2","midi":42,"time":209.76000000000445,"velocity":0.6929133858267716,"duration":0.12000000000000455},{"name":"D2","midi":38,"time":209.76000000000445,"velocity":0.5354330708661418,"duration":0.12000000000000455},{"name":"F#3","midi":54,"time":209.88000000000446,"velocity":0.6299212598425197,"duration":0.060000000000002274},{"name":"F#3","midi":54,"time":210.00000000000446,"velocity":0.3779527559055118,"duration":0.060000000000002274},{"name":"F#2","midi":42,"time":210.00000000000446,"velocity":0.5984251968503937,"duration":0.12000000000000455},{"name":"F#3","midi":54,"time":210.12000000000447,"velocity":0.6299212598425197,"duration":0.060000000000002274},{"name":"F#3","midi":54,"time":210.24000000000447,"velocity":0.3779527559055118,"duration":0.060000000000002274},{"name":"C2","midi":36,"time":210.24000000000447,"velocity":0.9133858267716536,"duration":0.12000000000000455},{"name":"F#2","midi":42,"time":210.24000000000447,"velocity":0.6929133858267716,"duration":0.12000000000000455},{"name":"F#3","midi":54,"time":210.36000000000448,"velocity":0.6299212598425197,"duration":0.060000000000002274},{"name":"F#3","midi":54,"time":210.48000000000448,"velocity":0.3779527559055118,"duration":0.060000000000002274},{"name":"F#2","midi":42,"time":210.48000000000448,"velocity":0.5984251968503937,"duration":0.12000000000000455},{"name":"F#3","midi":54,"time":210.60000000000448,"velocity":0.6299212598425197,"duration":0.060000000000002274},{"name":"F#3","midi":54,"time":210.7200000000045,"velocity":0.3779527559055118,"duration":0.030000000000001137},{"name":"C2","midi":36,"time":210.7200000000045,"velocity":0.9133858267716536,"duration":0.12000000000000455},{"name":"D#2","midi":39,"time":210.7200000000045,"velocity":0.6929133858267716,"duration":0.12000000000000455},{"name":"F#2","midi":42,"time":210.7200000000045,"velocity":0.6929133858267716,"duration":0.12000000000000455},{"name":"D2","midi":38,"time":210.7200000000045,"velocity":0.5354330708661418,"duration":0.12000000000000455},{"name":"F#3","midi":54,"time":210.7500000000045,"velocity":0.3779527559055118,"duration":0.030000000000001137},{"name":"F#3","midi":54,"time":210.8400000000045,"velocity":0.6299212598425197,"duration":0.060000000000002274},{"name":"F#3","midi":54,"time":210.9600000000045,"velocity":0.3779527559055118,"duration":0.060000000000002274},{"name":"F#2","midi":42,"time":210.9600000000045,"velocity":0.5984251968503937,"duration":0.12000000000000455},{"name":"F#3","midi":54,"time":211.0800000000045,"velocity":0.6299212598425197,"duration":0.060000000000002274},{"name":"F#3","midi":54,"time":211.2000000000045,"velocity":0.3779527559055118,"duration":0.060000000000002274},{"name":"F#2","midi":42,"time":211.2000000000045,"velocity":0.6929133858267716,"duration":0.12000000000000455},{"name":"C2","midi":36,"time":211.2000000000045,"velocity":0.9133858267716536,"duration":0.12000000000000455},{"name":"F#3","midi":54,"time":211.3200000000045,"velocity":0.6299212598425197,"duration":0.060000000000002274},{"name":"F#3","midi":54,"time":211.44000000000452,"velocity":0.3779527559055118,"duration":0.060000000000002274},{"name":"F#2","midi":42,"time":211.44000000000452,"velocity":0.5984251968503937,"duration":0.12000000000000455},{"name":"F#3","midi":54,"time":211.56000000000452,"velocity":0.6299212598425197,"duration":0.060000000000002274},{"name":"F#3","midi":54,"time":211.68000000000453,"velocity":0.3779527559055118,"duration":0.060000000000002274},{"name":"C2","midi":36,"time":211.68000000000453,"velocity":0.9133858267716536,"duration":0.12000000000000455},{"name":"D#2","midi":39,"time":211.68000000000453,"velocity":0.6929133858267716,"duration":0.12000000000000455},{"name":"F#2","midi":42,"time":211.68000000000453,"velocity":0.6929133858267716,"duration":0.12000000000000455},{"name":"D2","midi":38,"time":211.68000000000453,"velocity":0.5354330708661418,"duration":0.12000000000000455},{"name":"F#3","midi":54,"time":211.80000000000453,"velocity":0.6299212598425197,"duration":0.060000000000002274},{"name":"F#3","midi":54,"time":211.92000000000453,"velocity":0.3779527559055118,"duration":0.060000000000002274},{"name":"F#2","midi":42,"time":211.92000000000453,"velocity":0.5984251968503937,"duration":0.12000000000000455},{"name":"F#3","midi":54,"time":212.04000000000454,"velocity":0.6299212598425197,"duration":0.060000000000002274},{"name":"F#3","midi":54,"time":212.16000000000454,"velocity":0.3779527559055118,"duration":0.060000000000002274},{"name":"C2","midi":36,"time":212.16000000000454,"velocity":0.9133858267716536,"duration":0.12000000000000455},{"name":"F#2","midi":42,"time":212.16000000000454,"velocity":0.6929133858267716,"duration":0.12000000000000455},{"name":"F#3","midi":54,"time":212.28000000000455,"velocity":0.6299212598425197,"duration":0.060000000000002274},{"name":"F#3","midi":54,"time":212.40000000000455,"velocity":0.3779527559055118,"duration":0.060000000000002274},{"name":"F#2","midi":42,"time":212.40000000000455,"velocity":0.5984251968503937,"duration":0.12000000000000455},{"name":"F#3","midi":54,"time":212.52000000000456,"velocity":0.6299212598425197,"duration":0.060000000000002274},{"name":"F#3","midi":54,"time":212.64000000000456,"velocity":0.3779527559055118,"duration":0.030000000000001137},{"name":"C2","midi":36,"time":212.64000000000456,"velocity":0.9133858267716536,"duration":0.12000000000000455},{"name":"D#2","midi":39,"time":212.64000000000456,"velocity":0.6929133858267716,"duration":0.12000000000000455},{"name":"F#2","midi":42,"time":212.64000000000456,"velocity":0.6929133858267716,"duration":0.12000000000000455},{"name":"D2","midi":38,"time":212.64000000000456,"velocity":0.5354330708661418,"duration":0.12000000000000455},{"name":"F#3","midi":54,"time":212.67000000000456,"velocity":0.3779527559055118,"duration":0.030000000000001137},{"name":"F#3","midi":54,"time":212.76000000000457,"velocity":0.6299212598425197,"duration":0.060000000000002274},{"name":"F#3","midi":54,"time":212.88000000000457,"velocity":0.3779527559055118,"duration":0.060000000000002274},{"name":"F#2","midi":42,"time":212.88000000000457,"velocity":0.5984251968503937,"duration":0.12000000000000455},{"name":"F#3","midi":54,"time":213.00000000000458,"velocity":0.6299212598425197,"duration":0.060000000000002274},{"name":"F#3","midi":54,"time":213.12000000000458,"velocity":0.3779527559055118,"duration":0.060000000000002274},{"name":"F#2","midi":42,"time":213.12000000000458,"velocity":0.6929133858267716,"duration":0.12000000000000455},{"name":"C2","midi":36,"time":213.12000000000458,"velocity":0.9133858267716536,"duration":0.12000000000000455},{"name":"F#3","midi":54,"time":213.24000000000458,"velocity":0.6299212598425197,"duration":0.060000000000002274},{"name":"F#3","midi":54,"time":213.3600000000046,"velocity":0.3779527559055118,"duration":0.060000000000002274},{"name":"F#2","midi":42,"time":213.3600000000046,"velocity":0.5984251968503937,"duration":0.12000000000000455},{"name":"F#3","midi":54,"time":213.4800000000046,"velocity":0.6299212598425197,"duration":0.060000000000002274},{"name":"F#3","midi":54,"time":213.6000000000046,"velocity":0.3779527559055118,"duration":0.060000000000002274},{"name":"D2","midi":38,"time":213.6000000000046,"velocity":0.5354330708661418,"duration":0.12000000000000455},{"name":"C2","midi":36,"time":213.6000000000046,"velocity":0.9133858267716536,"duration":0.12000000000000455},{"name":"D#2","midi":39,"time":213.6000000000046,"velocity":0.6929133858267716,"duration":0.12000000000000455},{"name":"F#2","midi":42,"time":213.6000000000046,"velocity":0.6929133858267716,"duration":0.12000000000000455},{"name":"F#3","midi":54,"time":213.7200000000046,"velocity":0.6299212598425197,"duration":0.060000000000002274},{"name":"F#3","midi":54,"time":213.8400000000046,"velocity":0.3779527559055118,"duration":0.060000000000002274},{"name":"F#2","midi":42,"time":213.8400000000046,"velocity":0.5984251968503937,"duration":0.12000000000000455},{"name":"F#3","midi":54,"time":213.9600000000046,"velocity":0.6299212598425197,"duration":0.060000000000002274},{"name":"F#3","midi":54,"time":214.08000000000462,"velocity":0.3779527559055118,"duration":0.060000000000002274},{"name":"F#2","midi":42,"time":214.08000000000462,"velocity":0.6929133858267716,"duration":0.12000000000000455},{"name":"C2","midi":36,"time":214.08000000000462,"velocity":0.9133858267716536,"duration":0.12000000000000455},{"name":"F#3","midi":54,"time":214.20000000000462,"velocity":0.6299212598425197,"duration":0.060000000000002274},{"name":"F#3","midi":54,"time":214.32000000000463,"velocity":0.3779527559055118,"duration":0.060000000000002274},{"name":"F#2","midi":42,"time":214.32000000000463,"velocity":0.5984251968503937,"duration":0.12000000000000455},{"name":"F#3","midi":54,"time":214.44000000000463,"velocity":0.6299212598425197,"duration":0.060000000000002274},{"name":"F#3","midi":54,"time":214.56000000000464,"velocity":0.3779527559055118,"duration":0.030000000000001137},{"name":"F#2","midi":42,"time":214.56000000000464,"velocity":0.6929133858267716,"duration":0.12000000000000455},{"name":"D#2","midi":39,"time":214.56000000000464,"velocity":0.6929133858267716,"duration":0.12000000000000455},{"name":"C2","midi":36,"time":214.56000000000464,"velocity":0.9133858267716536,"duration":0.12000000000000455},{"name":"D2","midi":38,"time":214.56000000000464,"velocity":0.5354330708661418,"duration":0.12000000000000455},{"name":"F#3","midi":54,"time":214.59000000000464,"velocity":0.3779527559055118,"duration":0.030000000000001137},{"name":"F#3","midi":54,"time":214.68000000000464,"velocity":0.6299212598425197,"duration":0.060000000000002274},{"name":"F#3","midi":54,"time":214.80000000000464,"velocity":0.3779527559055118,"duration":0.060000000000002274},{"name":"F#2","midi":42,"time":214.80000000000464,"velocity":0.5039370078740157,"duration":0.12000000000000455},{"name":"F#3","midi":54,"time":214.92000000000465,"velocity":0.6299212598425197,"duration":0.060000000000002274},{"name":"F#3","midi":54,"time":215.04000000000465,"velocity":0.5354330708661418,"duration":0.060000000000002274},{"name":"F#3","midi":54,"time":215.16000000000466,"velocity":0.7874015748031497,"duration":0.060000000000002274},{"name":"F#3","midi":54,"time":215.28000000000466,"velocity":0.5354330708661418,"duration":0.060000000000002274},{"name":"F#3","midi":54,"time":215.40000000000467,"velocity":0.7874015748031497,"duration":0.060000000000002274},{"name":"F#3","midi":54,"time":215.52000000000467,"velocity":0.5354330708661418,"duration":0.060000000000002274},{"name":"D#2","midi":39,"time":215.52000000000467,"velocity":0.7874015748031497,"duration":0.2400000000000091},{"name":"F#3","midi":54,"time":215.64000000000468,"velocity":0.7874015748031497,"duration":0.060000000000002274},{"name":"F#3","midi":54,"time":215.76000000000468,"velocity":0.5354330708661418,"duration":0.060000000000002274},{"name":"F#3","midi":54,"time":215.88000000000469,"velocity":0.7874015748031497,"duration":0.060000000000002274},{"name":"F#3","midi":54,"time":216.0000000000047,"velocity":0.5354330708661418,"duration":0.060000000000002274},{"name":"F#3","midi":54,"time":216.1200000000047,"velocity":0.7874015748031497,"duration":0.060000000000002274},{"name":"F#3","midi":54,"time":216.2400000000047,"velocity":0.5354330708661418,"duration":0.060000000000002274},{"name":"F#3","midi":54,"time":216.3600000000047,"velocity":0.7874015748031497,"duration":0.060000000000002274},{"name":"D#2","midi":39,"time":216.4800000000047,"velocity":0.7874015748031497,"duration":0.2400000000000091},{"name":"F#3","midi":54,"time":216.4800000000047,"velocity":0.5354330708661418,"duration":0.030000000000001137},{"name":"F#3","midi":54,"time":216.5100000000047,"velocity":0.5354330708661418,"duration":0.030000000000001137},{"name":"F#3","midi":54,"time":216.6000000000047,"velocity":0.7874015748031497,"duration":0.060000000000002274},{"name":"F#3","midi":54,"time":216.72000000000472,"velocity":0.5354330708661418,"duration":0.060000000000002274},{"name":"F#3","midi":54,"time":216.84000000000472,"velocity":0.7874015748031497,"duration":0.060000000000002274},{"name":"F#3","midi":54,"time":216.96000000000473,"velocity":0.5354330708661418,"duration":0.060000000000002274},{"name":"F#3","midi":54,"time":217.08000000000473,"velocity":0.7874015748031497,"duration":0.060000000000002274},{"name":"F#3","midi":54,"time":217.20000000000474,"velocity":0.5354330708661418,"duration":0.060000000000002274},{"name":"F#3","midi":54,"time":217.32000000000474,"velocity":0.7874015748031497,"duration":0.060000000000002274},{"name":"D#2","midi":39,"time":217.44000000000474,"velocity":0.7874015748031497,"duration":0.2400000000000091},{"name":"F#3","midi":54,"time":217.44000000000474,"velocity":0.5354330708661418,"duration":0.060000000000002274},{"name":"F#3","midi":54,"time":217.56000000000475,"velocity":0.7874015748031497,"duration":0.060000000000002274},{"name":"F#3","midi":54,"time":217.68000000000475,"velocity":0.5354330708661418,"duration":0.060000000000002274},{"name":"F#3","midi":54,"time":217.80000000000476,"velocity":0.7874015748031497,"duration":0.060000000000002274},{"name":"F#3","midi":54,"time":217.92000000000476,"velocity":0.5354330708661418,"duration":0.060000000000002274},{"name":"F#3","midi":54,"time":218.04000000000477,"velocity":0.7874015748031497,"duration":0.060000000000002274},{"name":"F#3","midi":54,"time":218.16000000000477,"velocity":0.5354330708661418,"duration":0.060000000000002274},{"name":"F#3","midi":54,"time":218.28000000000478,"velocity":0.7874015748031497,"duration":0.060000000000002274},{"name":"F#3","midi":54,"time":218.40000000000478,"velocity":0.5354330708661418,"duration":0.030000000000001137},{"name":"D#2","midi":39,"time":218.40000000000478,"velocity":0.7874015748031497,"duration":0.2400000000000091},{"name":"F#3","midi":54,"time":218.43000000000478,"velocity":0.5354330708661418,"duration":0.030000000000001137},{"name":"F#3","midi":54,"time":218.52000000000479,"velocity":0.7874015748031497,"duration":0.060000000000002274},{"name":"F#3","midi":54,"time":218.6400000000048,"velocity":0.5354330708661418,"duration":0.060000000000002274},{"name":"F#3","midi":54,"time":218.7600000000048,"velocity":0.7874015748031497,"duration":0.060000000000002274},{"name":"F#3","midi":54,"time":218.8800000000048,"velocity":0.5354330708661418,"duration":0.060000000000002274},{"name":"F#3","midi":54,"time":219.0000000000048,"velocity":0.7874015748031497,"duration":0.060000000000002274},{"name":"F#3","midi":54,"time":219.1200000000048,"velocity":0.5354330708661418,"duration":0.060000000000002274},{"name":"F#3","midi":54,"time":219.2400000000048,"velocity":0.7874015748031497,"duration":0.060000000000002274},{"name":"D#2","midi":39,"time":219.36000000000482,"velocity":0.7874015748031497,"duration":0.2400000000000091},{"name":"F#3","midi":54,"time":219.36000000000482,"velocity":0.5354330708661418,"duration":0.060000000000002274},{"name":"F#3","midi":54,"time":219.48000000000482,"velocity":0.7874015748031497,"duration":0.060000000000002274},{"name":"F#3","midi":54,"time":219.60000000000483,"velocity":0.5354330708661418,"duration":0.060000000000002274},{"name":"F#3","midi":54,"time":219.72000000000483,"velocity":0.7874015748031497,"duration":0.060000000000002274},{"name":"F#3","midi":54,"time":219.84000000000484,"velocity":0.5354330708661418,"duration":0.060000000000002274},{"name":"F#3","midi":54,"time":219.96000000000484,"velocity":0.7874015748031497,"duration":0.060000000000002274},{"name":"F#3","midi":54,"time":220.08000000000484,"velocity":0.5354330708661418,"duration":0.060000000000002274},{"name":"F#3","midi":54,"time":220.20000000000485,"velocity":0.7874015748031497,"duration":0.060000000000002274},{"name":"D#2","midi":39,"time":220.32000000000485,"velocity":0.7874015748031497,"duration":0.2400000000000091},{"name":"F#3","midi":54,"time":220.32000000000485,"velocity":0.5354330708661418,"duration":0.030000000000001137},{"name":"F#3","midi":54,"time":220.35000000000485,"velocity":0.5354330708661418,"duration":0.030000000000001137},{"name":"F#3","midi":54,"time":220.44000000000486,"velocity":0.7874015748031497,"duration":0.060000000000002274},{"name":"F#3","midi":54,"time":220.56000000000486,"velocity":0.5354330708661418,"duration":0.060000000000002274},{"name":"F#3","midi":54,"time":220.68000000000487,"velocity":0.7874015748031497,"duration":0.060000000000002274},{"name":"F#3","midi":54,"time":220.80000000000487,"velocity":0.5354330708661418,"duration":0.060000000000002274},{"name":"F#3","midi":54,"time":220.92000000000488,"velocity":0.7874015748031497,"duration":0.060000000000002274},{"name":"F#3","midi":54,"time":221.04000000000488,"velocity":0.5354330708661418,"duration":0.060000000000002274},{"name":"F#3","midi":54,"time":221.16000000000489,"velocity":0.7874015748031497,"duration":0.060000000000002274},{"name":"D#2","midi":39,"time":221.2800000000049,"velocity":0.7874015748031497,"duration":0.2400000000000091},{"name":"F#3","midi":54,"time":221.2800000000049,"velocity":0.5354330708661418,"duration":0.060000000000002274},{"name":"F#3","midi":54,"time":221.4000000000049,"velocity":0.7874015748031497,"duration":0.060000000000002274},{"name":"F#3","midi":54,"time":221.5200000000049,"velocity":0.5354330708661418,"duration":0.060000000000002274},{"name":"F#3","midi":54,"time":221.6400000000049,"velocity":0.7874015748031497,"duration":0.060000000000002274},{"name":"F#3","midi":54,"time":221.7600000000049,"velocity":0.5354330708661418,"duration":0.060000000000002274},{"name":"F#3","midi":54,"time":221.8800000000049,"velocity":0.7874015748031497,"duration":0.060000000000002274},{"name":"F#3","midi":54,"time":222.00000000000492,"velocity":0.5354330708661418,"duration":0.060000000000002274},{"name":"F#3","midi":54,"time":222.12000000000492,"velocity":0.7874015748031497,"duration":0.060000000000002274},{"name":"D#2","midi":39,"time":222.24000000000493,"velocity":0.7874015748031497,"duration":0.2400000000000091},{"name":"F#3","midi":54,"time":222.24000000000493,"velocity":0.5354330708661418,"duration":0.030000000000001137},{"name":"F#3","midi":54,"time":222.27000000000493,"velocity":0.5354330708661418,"duration":0.030000000000001137},{"name":"F#3","midi":54,"time":222.36000000000493,"velocity":0.7874015748031497,"duration":0.060000000000002274},{"name":"F#3","midi":54,"time":222.48000000000494,"velocity":0.5354330708661418,"duration":0.060000000000002274},{"name":"F#3","midi":54,"time":222.60000000000494,"velocity":0.7874015748031497,"duration":0.060000000000002274}]},{"instrumentFamily":"piano","notes":[{"name":"B4","midi":71,"time":3.84,"velocity":0.49606299212598426,"duration":1.92},{"name":"G#4","midi":68,"time":5.76,"velocity":0.49606299212598426,"duration":1.6799999999999997},{"name":"B4","midi":71,"time":7.4399999999999995,"velocity":0.5905511811023622,"duration":0.2400000000000002},{"name":"B4","midi":71,"time":7.68,"velocity":1,"duration":1.92},{"name":"G#4","midi":68,"time":9.6,"velocity":1,"duration":1.6799999999999997},{"name":"B4","midi":71,"time":11.28,"velocity":1,"duration":0.2400000000000002},{"name":"B4","midi":71,"time":11.52,"velocity":1,"duration":1.92},{"name":"G#4","midi":68,"time":13.44,"velocity":1,"duration":1.6799999999999997},{"name":"B4","midi":71,"time":15.12,"velocity":1,"duration":0.2400000000000002},{"name":"B4","midi":71,"time":15.36,"velocity":1,"duration":1.9200000000000017},{"name":"G#4","midi":68,"time":17.28,"velocity":1,"duration":1.6799999999999997},{"name":"B4","midi":71,"time":18.96,"velocity":1,"duration":0.23999999999999844},{"name":"B4","midi":71,"time":19.2,"velocity":1,"duration":1.9199999999999982},{"name":"B4","midi":71,"time":99.84,"velocity":0.49606299212598426,"duration":1.9200000000000017},{"name":"G#4","midi":68,"time":101.76,"velocity":0.49606299212598426,"duration":1.6800000000000068},{"name":"B4","midi":71,"time":103.44000000000001,"velocity":0.5905511811023622,"duration":0.23999999999999488},{"name":"B4","midi":71,"time":103.68,"velocity":0.49606299212598426,"duration":1.9200000000000017},{"name":"G#4","midi":68,"time":105.60000000000001,"velocity":0.49606299212598426,"duration":1.6800000000000068},{"name":"B4","midi":71,"time":107.28000000000002,"velocity":0.5905511811023622,"duration":0.23999999999999488},{"name":"B4","midi":71,"time":107.52000000000001,"velocity":0.49606299212598426,"duration":1.9200000000000017},{"name":"G#4","midi":68,"time":109.44000000000001,"velocity":0.49606299212598426,"duration":1.6800000000000068},{"name":"B4","midi":71,"time":111.12000000000002,"velocity":0.5905511811023622,"duration":0.23999999999999488},{"name":"B4","midi":71,"time":168.96,"velocity":0.7559055118110236,"duration":1.6800000000000068},{"name":"G#4","midi":68,"time":170.64000000000001,"velocity":0.7559055118110236,"duration":2.1599999999999966},{"name":"B4","midi":71,"time":172.8,"velocity":0.7559055118110236,"duration":1.6800000000000068},{"name":"G#4","midi":68,"time":174.48000000000002,"velocity":0.7559055118110236,"duration":2.1599999999999966},{"name":"B4","midi":71,"time":176.64000000000001,"velocity":0.7559055118110236,"duration":1.6800000000000068},{"name":"G#4","midi":68,"time":178.32000000000002,"velocity":0.7559055118110236,"duration":2.1599999999999966},{"name":"B4","midi":71,"time":180.48000000000002,"velocity":0.7559055118110236,"duration":1.6800000000000068},{"name":"G#4","midi":68,"time":182.16000000000003,"velocity":0.7559055118110236,"duration":2.1599999999999966},{"name":"B4","midi":71,"time":184.32000000000002,"velocity":0.7559055118110236,"duration":1.6800000000000068},{"name":"G#4","midi":68,"time":186.00000000000003,"velocity":0.7559055118110236,"duration":2.1599999999999966},{"name":"B4","midi":71,"time":188.16000000000003,"velocity":0.7559055118110236,"duration":1.6800000000000068},{"name":"G#4","midi":68,"time":189.84000000000003,"velocity":0.7559055118110236,"duration":2.1599999999999966},{"name":"B4","midi":71,"time":192.00000000000003,"velocity":0.7559055118110236,"duration":1.6800000000000068},{"name":"G#4","midi":68,"time":193.68000000000004,"velocity":0.7559055118110236,"duration":2.1599999999999966},{"name":"B4","midi":71,"time":195.84000000000003,"velocity":0.7559055118110236,"duration":1.6800000000000068},{"name":"G#4","midi":68,"time":197.52000000000004,"velocity":0.7559055118110236,"duration":2.1599999999999966},{"name":"B4","midi":71,"time":199.68000000000004,"velocity":0.7559055118110236,"duration":1.6800000000000068},{"name":"G#4","midi":68,"time":201.36000000000004,"velocity":0.7559055118110236,"duration":2.1599999999999966},{"name":"B4","midi":71,"time":203.52000000000004,"velocity":0.7559055118110236,"duration":1.6800000000000068},{"name":"G#4","midi":68,"time":205.20000000000005,"velocity":0.7559055118110236,"duration":0.5999999999999943},{"name":"D#5","midi":75,"time":206.04000000000005,"velocity":0.7559055118110236,"duration":0.12000000000000455},{"name":"F#5","midi":78,"time":206.16000000000005,"velocity":0.7559055118110236,"duration":0.36000000000001364},{"name":"B4","midi":71,"time":207.36000000000007,"velocity":0.25196850393700787,"duration":1.6800000000000068},{"name":"A4","midi":69,"time":209.04000000000008,"velocity":0.12598425196850394,"duration":1.6800000000000068}]},{"instrumentFamily":"piano","notes":[{"name":"F#6","midi":90,"time":111.47999999999999,"velocity":1,"duration":19.080000000000467}]},{"instrumentFamily":"guitar","notes":[{"name":"F#3","midi":54,"time":134.4,"velocity":0.7874015748031497,"duration":0.2400000000000091},{"name":"F#3","midi":54,"time":134.88000000000002,"velocity":0.7874015748031497,"duration":0.2400000000000091},{"name":"F#3","midi":54,"time":135.36000000000004,"velocity":0.7874015748031497,"duration":0.2400000000000091},{"name":"F#3","midi":54,"time":135.72000000000006,"velocity":0.7874015748031497,"duration":0.2400000000000091},{"name":"F#3","midi":54,"time":136.08000000000007,"velocity":0.7874015748031497,"duration":0.2400000000000091},{"name":"F#4","midi":66,"time":136.32000000000008,"velocity":0.7874015748031497,"duration":0.2400000000000091},{"name":"F#3","midi":54,"time":136.32000000000008,"velocity":0.7874015748031497,"duration":0.2400000000000091},{"name":"F#4","midi":66,"time":136.8000000000001,"velocity":0.7874015748031497,"duration":0.2400000000000091},{"name":"F#3","midi":54,"time":136.8000000000001,"velocity":0.7874015748031497,"duration":0.2400000000000091},{"name":"F#4","midi":66,"time":137.28000000000011,"velocity":0.7874015748031497,"duration":0.2400000000000091},{"name":"F#3","midi":54,"time":137.28000000000011,"velocity":0.7874015748031497,"duration":0.2400000000000091},{"name":"F#4","midi":66,"time":137.64000000000013,"velocity":0.7874015748031497,"duration":0.2400000000000091},{"name":"F#3","midi":54,"time":137.64000000000013,"velocity":0.7874015748031497,"duration":0.2400000000000091},{"name":"F#4","midi":66,"time":138.00000000000014,"velocity":0.7874015748031497,"duration":0.2400000000000091},{"name":"F#3","midi":54,"time":138.00000000000014,"velocity":0.7874015748031497,"duration":0.2400000000000091},{"name":"F#3","midi":54,"time":138.24000000000015,"velocity":0.6299212598425197,"duration":0.2400000000000091},{"name":"F#4","midi":66,"time":138.24000000000015,"velocity":0.6299212598425197,"duration":0.2400000000000091},{"name":"F#4","midi":66,"time":138.72000000000017,"velocity":0.6299212598425197,"duration":0.2400000000000091},{"name":"F#3","midi":54,"time":138.72000000000017,"velocity":0.6299212598425197,"duration":0.2400000000000091},{"name":"F#3","midi":54,"time":139.2000000000002,"velocity":0.6299212598425197,"duration":0.2400000000000091},{"name":"F#4","midi":66,"time":139.2000000000002,"velocity":0.6299212598425197,"duration":0.2400000000000091},{"name":"F#3","midi":54,"time":139.5600000000002,"velocity":0.6299212598425197,"duration":0.2400000000000091},{"name":"F#4","midi":66,"time":139.5600000000002,"velocity":0.6299212598425197,"duration":0.2400000000000091},{"name":"F#3","midi":54,"time":139.92000000000021,"velocity":0.6299212598425197,"duration":0.2400000000000091},{"name":"F#4","midi":66,"time":139.92000000000021,"velocity":0.6299212598425197,"duration":0.2400000000000091},{"name":"F#3","midi":54,"time":140.16000000000022,"velocity":0.6299212598425197,"duration":0.2400000000000091},{"name":"F#4","midi":66,"time":140.16000000000022,"velocity":0.6299212598425197,"duration":0.2400000000000091},{"name":"F#4","midi":66,"time":140.64000000000024,"velocity":0.6299212598425197,"duration":0.2400000000000091},{"name":"F#3","midi":54,"time":140.64000000000024,"velocity":0.6299212598425197,"duration":0.2400000000000091},{"name":"F#3","midi":54,"time":141.12000000000026,"velocity":0.6299212598425197,"duration":0.2400000000000091},{"name":"F#4","midi":66,"time":141.12000000000026,"velocity":0.6299212598425197,"duration":0.2400000000000091},{"name":"F#3","midi":54,"time":141.48000000000027,"velocity":0.6299212598425197,"duration":0.2400000000000091},{"name":"F#4","midi":66,"time":141.48000000000027,"velocity":0.6299212598425197,"duration":0.2400000000000091},{"name":"F#3","midi":54,"time":141.8400000000003,"velocity":0.6299212598425197,"duration":0.2400000000000091},{"name":"F#4","midi":66,"time":141.8400000000003,"velocity":0.6299212598425197,"duration":0.2400000000000091},{"name":"F#3","midi":54,"time":142.0800000000003,"velocity":0.6299212598425197,"duration":0.2400000000000091},{"name":"F#4","midi":66,"time":142.0800000000003,"velocity":0.6299212598425197,"duration":0.2400000000000091},{"name":"F#4","midi":66,"time":142.56000000000031,"velocity":0.6299212598425197,"duration":0.2400000000000091},{"name":"F#3","midi":54,"time":142.56000000000031,"velocity":0.6299212598425197,"duration":0.2400000000000091},{"name":"F#3","midi":54,"time":143.04000000000033,"velocity":0.6299212598425197,"duration":0.2400000000000091},{"name":"F#4","midi":66,"time":143.04000000000033,"velocity":0.6299212598425197,"duration":0.2400000000000091},{"name":"F#3","midi":54,"time":143.40000000000035,"velocity":0.6299212598425197,"duration":0.2400000000000091},{"name":"F#4","midi":66,"time":143.40000000000035,"velocity":0.6299212598425197,"duration":0.2400000000000091},{"name":"F#3","midi":54,"time":143.76000000000036,"velocity":0.6299212598425197,"duration":0.2400000000000091},{"name":"F#4","midi":66,"time":143.76000000000036,"velocity":0.6299212598425197,"duration":0.2400000000000091},{"name":"F#3","midi":54,"time":144.00000000000037,"velocity":0.6299212598425197,"duration":0.2400000000000091},{"name":"F#4","midi":66,"time":144.00000000000037,"velocity":0.6299212598425197,"duration":0.2400000000000091},{"name":"F#4","midi":66,"time":144.4800000000004,"velocity":0.6299212598425197,"duration":0.2400000000000091},{"name":"F#3","midi":54,"time":144.4800000000004,"velocity":0.6299212598425197,"duration":0.2400000000000091},{"name":"F#3","midi":54,"time":144.9600000000004,"velocity":0.6299212598425197,"duration":0.2400000000000091},{"name":"F#4","midi":66,"time":144.9600000000004,"velocity":0.6299212598425197,"duration":0.2400000000000091},{"name":"F#3","midi":54,"time":145.32000000000042,"velocity":0.6299212598425197,"duration":0.2400000000000091},{"name":"F#4","midi":66,"time":145.32000000000042,"velocity":0.6299212598425197,"duration":0.2400000000000091},{"name":"F#3","midi":54,"time":145.68000000000043,"velocity":0.6299212598425197,"duration":0.2400000000000091},{"name":"F#4","midi":66,"time":145.68000000000043,"velocity":0.6299212598425197,"duration":0.2400000000000091},{"name":"F#3","midi":54,"time":145.92000000000044,"velocity":0.6299212598425197,"duration":0.2400000000000091},{"name":"F#4","midi":66,"time":145.92000000000044,"velocity":0.6299212598425197,"duration":0.2400000000000091},{"name":"F#4","midi":66,"time":146.40000000000046,"velocity":0.6299212598425197,"duration":0.2400000000000091},{"name":"F#3","midi":54,"time":146.40000000000046,"velocity":0.6299212598425197,"duration":0.2400000000000091},{"name":"F#3","midi":54,"time":146.88000000000048,"velocity":0.6299212598425197,"duration":0.2400000000000091},{"name":"F#4","midi":66,"time":146.88000000000048,"velocity":0.6299212598425197,"duration":0.2400000000000091},{"name":"F#3","midi":54,"time":147.2400000000005,"velocity":0.6299212598425197,"duration":0.2400000000000091},{"name":"F#4","midi":66,"time":147.2400000000005,"velocity":0.6299212598425197,"duration":0.2400000000000091},{"name":"F#3","midi":54,"time":147.6000000000005,"velocity":0.6299212598425197,"duration":0.2400000000000091},{"name":"F#4","midi":66,"time":147.6000000000005,"velocity":0.6299212598425197,"duration":0.2400000000000091},{"name":"F#3","midi":54,"time":147.84000000000052,"velocity":0.6299212598425197,"duration":0.2400000000000091},{"name":"F#4","midi":66,"time":147.84000000000052,"velocity":0.6299212598425197,"duration":0.2400000000000091},{"name":"F#4","midi":66,"time":148.32000000000053,"velocity":0.6299212598425197,"duration":0.2400000000000091},{"name":"F#3","midi":54,"time":148.32000000000053,"velocity":0.6299212598425197,"duration":0.2400000000000091},{"name":"F#3","midi":54,"time":148.80000000000055,"velocity":0.6299212598425197,"duration":0.2400000000000091},{"name":"F#4","midi":66,"time":148.80000000000055,"velocity":0.6299212598425197,"duration":0.2400000000000091},{"name":"F#3","midi":54,"time":149.16000000000057,"velocity":0.6299212598425197,"duration":0.2400000000000091},{"name":"F#4","midi":66,"time":149.16000000000057,"velocity":0.6299212598425197,"duration":0.2400000000000091},{"name":"F#3","midi":54,"time":149.52000000000058,"velocity":0.6299212598425197,"duration":0.2400000000000091},{"name":"F#4","midi":66,"time":149.52000000000058,"velocity":0.6299212598425197,"duration":0.2400000000000091},{"name":"F#3","midi":54,"time":149.7600000000006,"velocity":0.6299212598425197,"duration":0.2400000000000091},{"name":"F#4","midi":66,"time":149.7600000000006,"velocity":0.6299212598425197,"duration":0.2400000000000091},{"name":"F#4","midi":66,"time":150.2400000000006,"velocity":0.6299212598425197,"duration":0.2400000000000091},{"name":"F#3","midi":54,"time":150.2400000000006,"velocity":0.6299212598425197,"duration":0.2400000000000091},{"name":"F#3","midi":54,"time":150.72000000000062,"velocity":0.6299212598425197,"duration":0.2400000000000091},{"name":"F#4","midi":66,"time":150.72000000000062,"velocity":0.6299212598425197,"duration":0.2400000000000091},{"name":"F#3","midi":54,"time":151.08000000000064,"velocity":0.6299212598425197,"duration":0.2400000000000091},{"name":"F#4","midi":66,"time":151.08000000000064,"velocity":0.6299212598425197,"duration":0.2400000000000091},{"name":"F#3","midi":54,"time":151.44000000000065,"velocity":0.6299212598425197,"duration":0.2400000000000091},{"name":"F#4","midi":66,"time":151.44000000000065,"velocity":0.6299212598425197,"duration":0.2400000000000091},{"name":"F#3","midi":54,"time":151.68000000000066,"velocity":0.6299212598425197,"duration":0.2400000000000091},{"name":"F#4","midi":66,"time":151.68000000000066,"velocity":0.6299212598425197,"duration":0.2400000000000091},{"name":"F#4","midi":66,"time":152.16000000000068,"velocity":0.6299212598425197,"duration":0.2400000000000091},{"name":"F#3","midi":54,"time":152.16000000000068,"velocity":0.6299212598425197,"duration":0.2400000000000091},{"name":"F#3","midi":54,"time":152.6400000000007,"velocity":0.6299212598425197,"duration":0.2400000000000091},{"name":"F#4","midi":66,"time":152.6400000000007,"velocity":0.6299212598425197,"duration":0.2400000000000091},{"name":"F#3","midi":54,"time":153.0000000000007,"velocity":0.6299212598425197,"duration":0.2400000000000091},{"name":"F#4","midi":66,"time":153.0000000000007,"velocity":0.6299212598425197,"duration":0.2400000000000091},{"name":"F#3","midi":54,"time":153.36000000000072,"velocity":0.6299212598425197,"duration":0.2400000000000091},{"name":"F#4","midi":66,"time":153.36000000000072,"velocity":0.6299212598425197,"duration":0.2400000000000091},{"name":"F#3","midi":54,"time":153.60000000000073,"velocity":0.6299212598425197,"duration":0.2400000000000091},{"name":"F#4","midi":66,"time":153.60000000000073,"velocity":0.6299212598425197,"duration":0.2400000000000091},{"name":"F#4","midi":66,"time":154.08000000000075,"velocity":0.6299212598425197,"duration":0.2400000000000091},{"name":"F#3","midi":54,"time":154.08000000000075,"velocity":0.6299212598425197,"duration":0.2400000000000091},{"name":"F#3","midi":54,"time":154.56000000000077,"velocity":0.6299212598425197,"duration":0.2400000000000091},{"name":"F#4","midi":66,"time":154.56000000000077,"velocity":0.6299212598425197,"duration":0.2400000000000091},{"name":"F#3","midi":54,"time":154.92000000000078,"velocity":0.6299212598425197,"duration":0.2400000000000091},{"name":"F#4","midi":66,"time":154.92000000000078,"velocity":0.6299212598425197,"duration":0.2400000000000091},{"name":"F#3","midi":54,"time":155.2800000000008,"velocity":0.6299212598425197,"duration":0.2400000000000091},{"name":"F#4","midi":66,"time":155.2800000000008,"velocity":0.6299212598425197,"duration":0.2400000000000091},{"name":"F#3","midi":54,"time":155.5200000000008,"velocity":0.6299212598425197,"duration":0.2400000000000091},{"name":"F#4","midi":66,"time":155.5200000000008,"velocity":0.6299212598425197,"duration":0.2400000000000091},{"name":"F#4","midi":66,"time":156.00000000000082,"velocity":0.6299212598425197,"duration":0.2400000000000091},{"name":"F#3","midi":54,"time":156.00000000000082,"velocity":0.6299212598425197,"duration":0.2400000000000091},{"name":"F#3","midi":54,"time":156.48000000000084,"velocity":0.6299212598425197,"duration":0.2400000000000091},{"name":"F#4","midi":66,"time":156.48000000000084,"velocity":0.6299212598425197,"duration":0.2400000000000091},{"name":"F#3","midi":54,"time":156.84000000000086,"velocity":0.6299212598425197,"duration":0.2400000000000091},{"name":"F#4","midi":66,"time":156.84000000000086,"velocity":0.6299212598425197,"duration":0.2400000000000091},{"name":"F#3","midi":54,"time":157.20000000000087,"velocity":0.6299212598425197,"duration":0.2400000000000091},{"name":"F#4","midi":66,"time":157.20000000000087,"velocity":0.6299212598425197,"duration":0.2400000000000091},{"name":"F#3","midi":54,"time":157.44000000000088,"velocity":0.6299212598425197,"duration":0.2400000000000091},{"name":"F#4","midi":66,"time":157.44000000000088,"velocity":0.6299212598425197,"duration":0.2400000000000091},{"name":"F#4","midi":66,"time":157.9200000000009,"velocity":0.6299212598425197,"duration":0.2400000000000091},{"name":"F#3","midi":54,"time":157.9200000000009,"velocity":0.6299212598425197,"duration":0.2400000000000091},{"name":"F#3","midi":54,"time":158.40000000000092,"velocity":0.6299212598425197,"duration":0.2400000000000091},{"name":"F#4","midi":66,"time":158.40000000000092,"velocity":0.6299212598425197,"duration":0.2400000000000091},{"name":"F#3","midi":54,"time":158.76000000000093,"velocity":0.6299212598425197,"duration":0.2400000000000091},{"name":"F#4","midi":66,"time":158.76000000000093,"velocity":0.6299212598425197,"duration":0.2400000000000091},{"name":"F#3","midi":54,"time":159.12000000000094,"velocity":0.6299212598425197,"duration":0.2400000000000091},{"name":"F#4","midi":66,"time":159.12000000000094,"velocity":0.6299212598425197,"duration":0.2400000000000091},{"name":"F#3","midi":54,"time":159.36000000000095,"velocity":0.6299212598425197,"duration":0.2400000000000091},{"name":"F#4","midi":66,"time":159.36000000000095,"velocity":0.6299212598425197,"duration":0.2400000000000091},{"name":"F#4","midi":66,"time":159.84000000000097,"velocity":0.6299212598425197,"duration":0.2400000000000091},{"name":"F#3","midi":54,"time":159.84000000000097,"velocity":0.6299212598425197,"duration":0.2400000000000091},{"name":"F#3","midi":54,"time":160.320000000001,"velocity":0.6299212598425197,"duration":0.2400000000000091},{"name":"F#4","midi":66,"time":160.320000000001,"velocity":0.6299212598425197,"duration":0.2400000000000091},{"name":"F#3","midi":54,"time":160.680000000001,"velocity":0.6299212598425197,"duration":0.2400000000000091},{"name":"F#4","midi":66,"time":160.680000000001,"velocity":0.6299212598425197,"duration":0.2400000000000091},{"name":"F#3","midi":54,"time":161.04000000000102,"velocity":0.6299212598425197,"duration":0.2400000000000091},{"name":"F#4","midi":66,"time":161.04000000000102,"velocity":0.6299212598425197,"duration":0.2400000000000091},{"name":"F#3","midi":54,"time":161.28000000000102,"velocity":0.6299212598425197,"duration":0.2400000000000091},{"name":"F#4","midi":66,"time":161.28000000000102,"velocity":0.6299212598425197,"duration":0.2400000000000091},{"name":"F#4","midi":66,"time":161.76000000000104,"velocity":0.6299212598425197,"duration":0.2400000000000091},{"name":"F#3","midi":54,"time":161.76000000000104,"velocity":0.6299212598425197,"duration":0.2400000000000091},{"name":"F#3","midi":54,"time":162.24000000000106,"velocity":0.6299212598425197,"duration":0.2400000000000091},{"name":"F#4","midi":66,"time":162.24000000000106,"velocity":0.6299212598425197,"duration":0.2400000000000091},{"name":"F#3","midi":54,"time":162.60000000000107,"velocity":0.6299212598425197,"duration":0.2400000000000091},{"name":"F#4","midi":66,"time":162.60000000000107,"velocity":0.6299212598425197,"duration":0.2400000000000091},{"name":"F#3","midi":54,"time":162.9600000000011,"velocity":0.6299212598425197,"duration":0.2400000000000091},{"name":"F#4","midi":66,"time":162.9600000000011,"velocity":0.6299212598425197,"duration":0.2400000000000091},{"name":"F#3","midi":54,"time":163.2000000000011,"velocity":0.6299212598425197,"duration":0.2400000000000091},{"name":"F#4","midi":66,"time":163.2000000000011,"velocity":0.6299212598425197,"duration":0.2400000000000091},{"name":"F#4","midi":66,"time":163.68000000000112,"velocity":0.6299212598425197,"duration":0.2400000000000091},{"name":"F#3","midi":54,"time":163.68000000000112,"velocity":0.6299212598425197,"duration":0.2400000000000091},{"name":"F#3","midi":54,"time":164.16000000000113,"velocity":0.6299212598425197,"duration":0.2400000000000091},{"name":"F#4","midi":66,"time":164.16000000000113,"velocity":0.6299212598425197,"duration":0.2400000000000091},{"name":"F#3","midi":54,"time":164.52000000000115,"velocity":0.6299212598425197,"duration":0.2400000000000091},{"name":"F#4","midi":66,"time":164.52000000000115,"velocity":0.6299212598425197,"duration":0.2400000000000091},{"name":"F#3","midi":54,"time":164.88000000000116,"velocity":0.6299212598425197,"duration":0.2400000000000091},{"name":"F#4","midi":66,"time":164.88000000000116,"velocity":0.6299212598425197,"duration":0.2400000000000091},{"name":"F#3","midi":54,"time":165.12000000000117,"velocity":0.6299212598425197,"duration":0.2400000000000091},{"name":"F#4","midi":66,"time":165.12000000000117,"velocity":0.6299212598425197,"duration":0.2400000000000091},{"name":"F#4","midi":66,"time":165.6000000000012,"velocity":0.6299212598425197,"duration":0.2400000000000091},{"name":"F#3","midi":54,"time":165.6000000000012,"velocity":0.6299212598425197,"duration":0.2400000000000091},{"name":"F#3","midi":54,"time":166.0800000000012,"velocity":0.6299212598425197,"duration":0.2400000000000091},{"name":"F#4","midi":66,"time":166.0800000000012,"velocity":0.6299212598425197,"duration":0.2400000000000091},{"name":"F#3","midi":54,"time":166.44000000000122,"velocity":0.6299212598425197,"duration":0.2400000000000091},{"name":"F#4","midi":66,"time":166.44000000000122,"velocity":0.6299212598425197,"duration":0.2400000000000091},{"name":"F#3","midi":54,"time":166.80000000000123,"velocity":0.6299212598425197,"duration":0.2400000000000091},{"name":"F#4","midi":66,"time":166.80000000000123,"velocity":0.6299212598425197,"duration":0.2400000000000091},{"name":"F#3","midi":54,"time":167.04000000000124,"velocity":0.6299212598425197,"duration":0.2400000000000091},{"name":"F#4","midi":66,"time":167.04000000000124,"velocity":0.6299212598425197,"duration":0.2400000000000091},{"name":"F#4","midi":66,"time":167.52000000000126,"velocity":0.6299212598425197,"duration":0.2400000000000091},{"name":"F#3","midi":54,"time":167.52000000000126,"velocity":0.6299212598425197,"duration":0.2400000000000091},{"name":"F#3","midi":54,"time":168.00000000000128,"velocity":0.6299212598425197,"duration":0.2400000000000091},{"name":"F#4","midi":66,"time":168.00000000000128,"velocity":0.6299212598425197,"duration":0.2400000000000091},{"name":"F#3","midi":54,"time":168.3600000000013,"velocity":0.6299212598425197,"duration":0.2400000000000091},{"name":"F#4","midi":66,"time":168.3600000000013,"velocity":0.6299212598425197,"duration":0.2400000000000091},{"name":"F#3","midi":54,"time":168.7200000000013,"velocity":0.6299212598425197,"duration":0.2400000000000091},{"name":"F#4","midi":66,"time":168.7200000000013,"velocity":0.6299212598425197,"duration":0.2400000000000091},{"name":"F#3","midi":54,"time":168.96000000000132,"velocity":0.6299212598425197,"duration":0.2400000000000091},{"name":"F#4","midi":66,"time":168.96000000000132,"velocity":0.6299212598425197,"duration":0.2400000000000091},{"name":"F#4","midi":66,"time":169.44000000000133,"velocity":0.6299212598425197,"duration":0.2400000000000091},{"name":"F#3","midi":54,"time":169.44000000000133,"velocity":0.6299212598425197,"duration":0.2400000000000091},{"name":"F#3","midi":54,"time":169.92000000000135,"velocity":0.6299212598425197,"duration":0.2400000000000091},{"name":"F#4","midi":66,"time":169.92000000000135,"velocity":0.6299212598425197,"duration":0.2400000000000091},{"name":"F#3","midi":54,"time":170.28000000000137,"velocity":0.6299212598425197,"duration":0.2400000000000091},{"name":"F#4","midi":66,"time":170.28000000000137,"velocity":0.6299212598425197,"duration":0.2400000000000091},{"name":"F#3","midi":54,"time":170.64000000000138,"velocity":0.6299212598425197,"duration":0.2400000000000091},{"name":"F#4","midi":66,"time":170.64000000000138,"velocity":0.6299212598425197,"duration":0.2400000000000091},{"name":"F#3","midi":54,"time":170.8800000000014,"velocity":0.6299212598425197,"duration":0.2400000000000091},{"name":"F#4","midi":66,"time":170.8800000000014,"velocity":0.6299212598425197,"duration":0.2400000000000091},{"name":"F#4","midi":66,"time":171.3600000000014,"velocity":0.6299212598425197,"duration":0.2400000000000091},{"name":"F#3","midi":54,"time":171.3600000000014,"velocity":0.6299212598425197,"duration":0.2400000000000091},{"name":"F#3","midi":54,"time":171.84000000000142,"velocity":0.6299212598425197,"duration":0.2400000000000091},{"name":"F#4","midi":66,"time":171.84000000000142,"velocity":0.6299212598425197,"duration":0.2400000000000091},{"name":"F#3","midi":54,"time":172.20000000000144,"velocity":0.6299212598425197,"duration":0.2400000000000091},{"name":"F#4","midi":66,"time":172.20000000000144,"velocity":0.6299212598425197,"duration":0.2400000000000091},{"name":"F#3","midi":54,"time":172.56000000000145,"velocity":0.6299212598425197,"duration":0.2400000000000091},{"name":"F#4","midi":66,"time":172.56000000000145,"velocity":0.6299212598425197,"duration":0.2400000000000091},{"name":"F#3","midi":54,"time":172.80000000000146,"velocity":0.6299212598425197,"duration":0.2400000000000091},{"name":"F#4","midi":66,"time":172.80000000000146,"velocity":0.6299212598425197,"duration":0.2400000000000091},{"name":"F#4","midi":66,"time":173.28000000000148,"velocity":0.6299212598425197,"duration":0.2400000000000091},{"name":"F#3","midi":54,"time":173.28000000000148,"velocity":0.6299212598425197,"duration":0.2400000000000091},{"name":"F#3","midi":54,"time":173.7600000000015,"velocity":0.6299212598425197,"duration":0.2400000000000091},{"name":"F#4","midi":66,"time":173.7600000000015,"velocity":0.6299212598425197,"duration":0.2400000000000091},{"name":"F#3","midi":54,"time":174.1200000000015,"velocity":0.6299212598425197,"duration":0.2400000000000091},{"name":"F#4","midi":66,"time":174.1200000000015,"velocity":0.6299212598425197,"duration":0.2400000000000091},{"name":"F#3","midi":54,"time":174.48000000000152,"velocity":0.6299212598425197,"duration":0.2400000000000091},{"name":"F#4","midi":66,"time":174.48000000000152,"velocity":0.6299212598425197,"duration":0.2400000000000091},{"name":"F#3","midi":54,"time":174.72000000000153,"velocity":0.6299212598425197,"duration":0.2400000000000091},{"name":"F#4","midi":66,"time":174.72000000000153,"velocity":0.6299212598425197,"duration":0.2400000000000091},{"name":"F#4","midi":66,"time":175.20000000000155,"velocity":0.6299212598425197,"duration":0.2400000000000091},{"name":"F#3","midi":54,"time":175.20000000000155,"velocity":0.6299212598425197,"duration":0.2400000000000091},{"name":"F#3","midi":54,"time":175.68000000000157,"velocity":0.6299212598425197,"duration":0.2400000000000091},{"name":"F#4","midi":66,"time":175.68000000000157,"velocity":0.6299212598425197,"duration":0.2400000000000091},{"name":"F#3","midi":54,"time":176.04000000000158,"velocity":0.6299212598425197,"duration":0.2400000000000091},{"name":"F#4","midi":66,"time":176.04000000000158,"velocity":0.6299212598425197,"duration":0.2400000000000091},{"name":"F#3","midi":54,"time":176.4000000000016,"velocity":0.6299212598425197,"duration":0.2400000000000091},{"name":"F#4","midi":66,"time":176.4000000000016,"velocity":0.6299212598425197,"duration":0.2400000000000091},{"name":"F#3","midi":54,"time":176.6400000000016,"velocity":0.6299212598425197,"duration":0.2400000000000091},{"name":"F#4","midi":66,"time":176.6400000000016,"velocity":0.6299212598425197,"duration":0.2400000000000091},{"name":"F#4","midi":66,"time":177.12000000000162,"velocity":0.6299212598425197,"duration":0.2400000000000091},{"name":"F#3","midi":54,"time":177.12000000000162,"velocity":0.6299212598425197,"duration":0.2400000000000091},{"name":"F#3","midi":54,"time":177.60000000000164,"velocity":0.6299212598425197,"duration":0.2400000000000091},{"name":"F#4","midi":66,"time":177.60000000000164,"velocity":0.6299212598425197,"duration":0.2400000000000091},{"name":"F#3","midi":54,"time":177.96000000000166,"velocity":0.6299212598425197,"duration":0.2400000000000091},{"name":"F#4","midi":66,"time":177.96000000000166,"velocity":0.6299212598425197,"duration":0.2400000000000091},{"name":"F#3","midi":54,"time":178.32000000000167,"velocity":0.6299212598425197,"duration":0.2400000000000091},{"name":"F#4","midi":66,"time":178.32000000000167,"velocity":0.6299212598425197,"duration":0.2400000000000091},{"name":"F#3","midi":54,"time":178.56000000000168,"velocity":0.6299212598425197,"duration":0.2400000000000091},{"name":"F#4","midi":66,"time":178.56000000000168,"velocity":0.6299212598425197,"duration":0.2400000000000091},{"name":"F#4","midi":66,"time":179.0400000000017,"velocity":0.6299212598425197,"duration":0.2400000000000091},{"name":"F#3","midi":54,"time":179.0400000000017,"velocity":0.6299212598425197,"duration":0.2400000000000091},{"name":"F#3","midi":54,"time":179.52000000000172,"velocity":0.6299212598425197,"duration":0.2400000000000091},{"name":"F#4","midi":66,"time":179.52000000000172,"velocity":0.6299212598425197,"duration":0.2400000000000091},{"name":"F#3","midi":54,"time":179.88000000000173,"velocity":0.6299212598425197,"duration":0.2400000000000091},{"name":"F#4","midi":66,"time":179.88000000000173,"velocity":0.6299212598425197,"duration":0.2400000000000091},{"name":"F#3","midi":54,"time":180.24000000000174,"velocity":0.6299212598425197,"duration":0.2400000000000091},{"name":"F#4","midi":66,"time":180.24000000000174,"velocity":0.6299212598425197,"duration":0.2400000000000091},{"name":"F#3","midi":54,"time":180.48000000000175,"velocity":0.6299212598425197,"duration":0.2400000000000091},{"name":"F#4","midi":66,"time":180.48000000000175,"velocity":0.6299212598425197,"duration":0.2400000000000091},{"name":"F#4","midi":66,"time":180.96000000000177,"velocity":0.6299212598425197,"duration":0.2400000000000091},{"name":"F#3","midi":54,"time":180.96000000000177,"velocity":0.6299212598425197,"duration":0.2400000000000091},{"name":"F#3","midi":54,"time":181.4400000000018,"velocity":0.6299212598425197,"duration":0.2400000000000091},{"name":"F#4","midi":66,"time":181.4400000000018,"velocity":0.6299212598425197,"duration":0.2400000000000091},{"name":"F#3","midi":54,"time":181.8000000000018,"velocity":0.6299212598425197,"duration":0.2400000000000091},{"name":"F#4","midi":66,"time":181.8000000000018,"velocity":0.6299212598425197,"duration":0.2400000000000091},{"name":"F#3","midi":54,"time":182.16000000000182,"velocity":0.6299212598425197,"duration":0.2400000000000091},{"name":"F#4","midi":66,"time":182.16000000000182,"velocity":0.6299212598425197,"duration":0.2400000000000091},{"name":"F#3","midi":54,"time":182.40000000000182,"velocity":0.6299212598425197,"duration":0.2400000000000091},{"name":"F#4","midi":66,"time":182.40000000000182,"velocity":0.6299212598425197,"duration":0.2400000000000091},{"name":"F#4","midi":66,"time":182.88000000000184,"velocity":0.6299212598425197,"duration":0.2400000000000091},{"name":"F#3","midi":54,"time":182.88000000000184,"velocity":0.6299212598425197,"duration":0.2400000000000091},{"name":"F#3","midi":54,"time":183.36000000000186,"velocity":0.6299212598425197,"duration":0.2400000000000091},{"name":"F#4","midi":66,"time":183.36000000000186,"velocity":0.6299212598425197,"duration":0.2400000000000091},{"name":"F#3","midi":54,"time":183.72000000000187,"velocity":0.6299212598425197,"duration":0.2400000000000091},{"name":"F#4","midi":66,"time":183.72000000000187,"velocity":0.6299212598425197,"duration":0.2400000000000091},{"name":"F#3","midi":54,"time":184.0800000000019,"velocity":0.6299212598425197,"duration":0.2400000000000091},{"name":"F#4","midi":66,"time":184.0800000000019,"velocity":0.6299212598425197,"duration":0.2400000000000091},{"name":"F#3","midi":54,"time":184.3200000000019,"velocity":0.6299212598425197,"duration":0.2400000000000091},{"name":"F#4","midi":66,"time":184.3200000000019,"velocity":0.6299212598425197,"duration":0.2400000000000091},{"name":"F#4","midi":66,"time":184.80000000000192,"velocity":0.6299212598425197,"duration":0.2400000000000091},{"name":"F#3","midi":54,"time":184.80000000000192,"velocity":0.6299212598425197,"duration":0.2400000000000091},{"name":"F#3","midi":54,"time":185.28000000000193,"velocity":0.6299212598425197,"duration":0.2400000000000091},{"name":"F#4","midi":66,"time":185.28000000000193,"velocity":0.6299212598425197,"duration":0.2400000000000091},{"name":"F#3","midi":54,"time":185.64000000000195,"velocity":0.6299212598425197,"duration":0.2400000000000091},{"name":"F#4","midi":66,"time":185.64000000000195,"velocity":0.6299212598425197,"duration":0.2400000000000091},{"name":"F#3","midi":54,"time":186.00000000000196,"velocity":0.6299212598425197,"duration":0.2400000000000091},{"name":"F#4","midi":66,"time":186.00000000000196,"velocity":0.6299212598425197,"duration":0.2400000000000091},{"name":"F#3","midi":54,"time":186.24000000000197,"velocity":0.6299212598425197,"duration":0.2400000000000091},{"name":"F#4","midi":66,"time":186.24000000000197,"velocity":0.6299212598425197,"duration":0.2400000000000091},{"name":"F#4","midi":66,"time":186.720000000002,"velocity":0.6299212598425197,"duration":0.2400000000000091},{"name":"F#3","midi":54,"time":186.720000000002,"velocity":0.6299212598425197,"duration":0.2400000000000091},{"name":"F#3","midi":54,"time":187.200000000002,"velocity":0.6299212598425197,"duration":0.2400000000000091},{"name":"F#4","midi":66,"time":187.200000000002,"velocity":0.6299212598425197,"duration":0.2400000000000091},{"name":"F#3","midi":54,"time":187.56000000000202,"velocity":0.6299212598425197,"duration":0.2400000000000091},{"name":"F#4","midi":66,"time":187.56000000000202,"velocity":0.6299212598425197,"duration":0.2400000000000091},{"name":"F#3","midi":54,"time":187.92000000000203,"velocity":0.6299212598425197,"duration":0.2400000000000091},{"name":"F#4","midi":66,"time":187.92000000000203,"velocity":0.6299212598425197,"duration":0.2400000000000091},{"name":"F#3","midi":54,"time":188.16000000000204,"velocity":0.6299212598425197,"duration":0.2400000000000091},{"name":"F#4","midi":66,"time":188.16000000000204,"velocity":0.6299212598425197,"duration":0.2400000000000091},{"name":"F#4","midi":66,"time":188.64000000000206,"velocity":0.6299212598425197,"duration":0.2400000000000091},{"name":"F#3","midi":54,"time":188.64000000000206,"velocity":0.6299212598425197,"duration":0.2400000000000091},{"name":"F#3","midi":54,"time":189.12000000000208,"velocity":0.6299212598425197,"duration":0.2400000000000091},{"name":"F#4","midi":66,"time":189.12000000000208,"velocity":0.6299212598425197,"duration":0.2400000000000091},{"name":"F#3","midi":54,"time":189.4800000000021,"velocity":0.6299212598425197,"duration":0.2400000000000091},{"name":"F#4","midi":66,"time":189.4800000000021,"velocity":0.6299212598425197,"duration":0.2400000000000091},{"name":"F#3","midi":54,"time":189.8400000000021,"velocity":0.6299212598425197,"duration":0.2400000000000091},{"name":"F#4","midi":66,"time":189.8400000000021,"velocity":0.6299212598425197,"duration":0.2400000000000091},{"name":"F#3","midi":54,"time":190.08000000000212,"velocity":0.6299212598425197,"duration":0.2400000000000091},{"name":"F#4","midi":66,"time":190.08000000000212,"velocity":0.6299212598425197,"duration":0.2400000000000091},{"name":"F#4","midi":66,"time":190.56000000000213,"velocity":0.6299212598425197,"duration":0.2400000000000091},{"name":"F#3","midi":54,"time":190.56000000000213,"velocity":0.6299212598425197,"duration":0.2400000000000091},{"name":"F#3","midi":54,"time":191.04000000000215,"velocity":0.6299212598425197,"duration":0.2400000000000091},{"name":"F#4","midi":66,"time":191.04000000000215,"velocity":0.6299212598425197,"duration":0.2400000000000091},{"name":"F#3","midi":54,"time":191.40000000000217,"velocity":0.6299212598425197,"duration":0.2400000000000091},{"name":"F#4","midi":66,"time":191.40000000000217,"velocity":0.6299212598425197,"duration":0.2400000000000091},{"name":"F#3","midi":54,"time":191.76000000000218,"velocity":0.6299212598425197,"duration":0.2400000000000091},{"name":"F#4","midi":66,"time":191.76000000000218,"velocity":0.6299212598425197,"duration":0.2400000000000091},{"name":"F#3","midi":54,"time":192.0000000000022,"velocity":0.6299212598425197,"duration":0.2400000000000091},{"name":"F#4","midi":66,"time":192.0000000000022,"velocity":0.6299212598425197,"duration":0.2400000000000091},{"name":"F#4","midi":66,"time":192.4800000000022,"velocity":0.6299212598425197,"duration":0.2400000000000091},{"name":"F#3","midi":54,"time":192.4800000000022,"velocity":0.6299212598425197,"duration":0.2400000000000091},{"name":"F#3","midi":54,"time":192.96000000000222,"velocity":0.6299212598425197,"duration":0.2400000000000091},{"name":"F#4","midi":66,"time":192.96000000000222,"velocity":0.6299212598425197,"duration":0.2400000000000091},{"name":"F#3","midi":54,"time":193.32000000000224,"velocity":0.6299212598425197,"duration":0.2400000000000091},{"name":"F#4","midi":66,"time":193.32000000000224,"velocity":0.6299212598425197,"duration":0.2400000000000091},{"name":"F#3","midi":54,"time":193.68000000000225,"velocity":0.6299212598425197,"duration":0.2400000000000091},{"name":"F#4","midi":66,"time":193.68000000000225,"velocity":0.6299212598425197,"duration":0.2400000000000091},{"name":"F#3","midi":54,"time":193.92000000000226,"velocity":0.6299212598425197,"duration":0.2400000000000091},{"name":"F#4","midi":66,"time":193.92000000000226,"velocity":0.6299212598425197,"duration":0.2400000000000091},{"name":"F#4","midi":66,"time":194.40000000000228,"velocity":0.6299212598425197,"duration":0.2400000000000091},{"name":"F#3","midi":54,"time":194.40000000000228,"velocity":0.6299212598425197,"duration":0.2400000000000091},{"name":"F#3","midi":54,"time":194.8800000000023,"velocity":0.6299212598425197,"duration":0.2400000000000091},{"name":"F#4","midi":66,"time":194.8800000000023,"velocity":0.6299212598425197,"duration":0.2400000000000091},{"name":"F#3","midi":54,"time":195.2400000000023,"velocity":0.6299212598425197,"duration":0.2400000000000091},{"name":"F#4","midi":66,"time":195.2400000000023,"velocity":0.6299212598425197,"duration":0.2400000000000091},{"name":"F#3","midi":54,"time":195.60000000000232,"velocity":0.6299212598425197,"duration":0.2400000000000091},{"name":"F#4","midi":66,"time":195.60000000000232,"velocity":0.6299212598425197,"duration":0.2400000000000091},{"name":"F#3","midi":54,"time":195.84000000000233,"velocity":0.6299212598425197,"duration":0.2400000000000091},{"name":"F#4","midi":66,"time":195.84000000000233,"velocity":0.6299212598425197,"duration":0.2400000000000091},{"name":"F#4","midi":66,"time":196.32000000000235,"velocity":0.6299212598425197,"duration":0.2400000000000091},{"name":"F#3","midi":54,"time":196.32000000000235,"velocity":0.6299212598425197,"duration":0.2400000000000091},{"name":"F#3","midi":54,"time":196.80000000000237,"velocity":0.6299212598425197,"duration":0.2400000000000091},{"name":"F#4","midi":66,"time":196.80000000000237,"velocity":0.6299212598425197,"duration":0.2400000000000091},{"name":"F#3","midi":54,"time":197.16000000000238,"velocity":0.6299212598425197,"duration":0.2400000000000091},{"name":"F#4","midi":66,"time":197.16000000000238,"velocity":0.6299212598425197,"duration":0.2400000000000091},{"name":"F#3","midi":54,"time":197.5200000000024,"velocity":0.6299212598425197,"duration":0.2400000000000091},{"name":"F#4","midi":66,"time":197.5200000000024,"velocity":0.6299212598425197,"duration":0.2400000000000091},{"name":"F#3","midi":54,"time":197.7600000000024,"velocity":0.6299212598425197,"duration":0.2400000000000091},{"name":"F#4","midi":66,"time":197.7600000000024,"velocity":0.6299212598425197,"duration":0.2400000000000091},{"name":"F#4","midi":66,"time":198.24000000000242,"velocity":0.6299212598425197,"duration":0.2400000000000091},{"name":"F#3","midi":54,"time":198.24000000000242,"velocity":0.6299212598425197,"duration":0.2400000000000091},{"name":"F#3","midi":54,"time":198.72000000000244,"velocity":0.6299212598425197,"duration":0.2400000000000091},{"name":"F#4","midi":66,"time":198.72000000000244,"velocity":0.6299212598425197,"duration":0.2400000000000091},{"name":"F#3","midi":54,"time":199.08000000000246,"velocity":0.6299212598425197,"duration":0.2400000000000091},{"name":"F#4","midi":66,"time":199.08000000000246,"velocity":0.6299212598425197,"duration":0.2400000000000091},{"name":"F#3","midi":54,"time":199.44000000000247,"velocity":0.6299212598425197,"duration":0.2400000000000091},{"name":"F#4","midi":66,"time":199.44000000000247,"velocity":0.6299212598425197,"duration":0.2400000000000091},{"name":"F#3","midi":54,"time":199.68000000000248,"velocity":0.6299212598425197,"duration":0.2400000000000091},{"name":"F#4","midi":66,"time":199.68000000000248,"velocity":0.6299212598425197,"duration":0.2400000000000091},{"name":"F#4","midi":66,"time":200.1600000000025,"velocity":0.6299212598425197,"duration":0.2400000000000091},{"name":"F#3","midi":54,"time":200.1600000000025,"velocity":0.6299212598425197,"duration":0.2400000000000091},{"name":"F#3","midi":54,"time":200.64000000000252,"velocity":0.6299212598425197,"duration":0.2400000000000091},{"name":"F#4","midi":66,"time":200.64000000000252,"velocity":0.6299212598425197,"duration":0.2400000000000091},{"name":"F#3","midi":54,"time":201.00000000000253,"velocity":0.6299212598425197,"duration":0.2400000000000091},{"name":"F#4","midi":66,"time":201.00000000000253,"velocity":0.6299212598425197,"duration":0.2400000000000091},{"name":"F#3","midi":54,"time":201.36000000000254,"velocity":0.6299212598425197,"duration":0.2400000000000091},{"name":"F#4","midi":66,"time":201.36000000000254,"velocity":0.6299212598425197,"duration":0.2400000000000091},{"name":"F#3","midi":54,"time":201.60000000000255,"velocity":0.6299212598425197,"duration":0.2400000000000091},{"name":"F#4","midi":66,"time":201.60000000000255,"velocity":0.6299212598425197,"duration":0.2400000000000091},{"name":"F#4","midi":66,"time":202.08000000000257,"velocity":0.6299212598425197,"duration":0.2400000000000091},{"name":"F#3","midi":54,"time":202.08000000000257,"velocity":0.6299212598425197,"duration":0.2400000000000091},{"name":"F#3","midi":54,"time":202.5600000000026,"velocity":0.6299212598425197,"duration":0.2400000000000091},{"name":"F#4","midi":66,"time":202.5600000000026,"velocity":0.6299212598425197,"duration":0.2400000000000091},{"name":"F#3","midi":54,"time":202.9200000000026,"velocity":0.6299212598425197,"duration":0.2400000000000091},{"name":"F#4","midi":66,"time":202.9200000000026,"velocity":0.6299212598425197,"duration":0.2400000000000091},{"name":"F#3","midi":54,"time":203.28000000000262,"velocity":0.6299212598425197,"duration":0.2400000000000091},{"name":"F#4","midi":66,"time":203.28000000000262,"velocity":0.6299212598425197,"duration":0.2400000000000091},{"name":"F#3","midi":54,"time":203.52000000000263,"velocity":0.6299212598425197,"duration":0.2400000000000091},{"name":"F#4","midi":66,"time":203.52000000000263,"velocity":0.6299212598425197,"duration":0.2400000000000091},{"name":"F#4","midi":66,"time":204.00000000000264,"velocity":0.6299212598425197,"duration":0.2400000000000091},{"name":"F#3","midi":54,"time":204.00000000000264,"velocity":0.6299212598425197,"duration":0.2400000000000091},{"name":"F#3","midi":54,"time":204.48000000000266,"velocity":0.6299212598425197,"duration":0.2400000000000091},{"name":"F#4","midi":66,"time":204.48000000000266,"velocity":0.6299212598425197,"duration":0.2400000000000091},{"name":"F#3","midi":54,"time":204.84000000000268,"velocity":0.6299212598425197,"duration":0.2400000000000091},{"name":"F#4","midi":66,"time":204.84000000000268,"velocity":0.6299212598425197,"duration":0.2400000000000091},{"name":"F#3","midi":54,"time":205.2000000000027,"velocity":0.6299212598425197,"duration":0.2400000000000091},{"name":"F#4","midi":66,"time":205.2000000000027,"velocity":0.6299212598425197,"duration":0.2400000000000091},{"name":"F#3","midi":54,"time":205.4400000000027,"velocity":0.6299212598425197,"duration":0.2400000000000091},{"name":"F#4","midi":66,"time":205.4400000000027,"velocity":0.6299212598425197,"duration":0.2400000000000091},{"name":"F#4","midi":66,"time":205.92000000000272,"velocity":0.6299212598425197,"duration":0.2400000000000091},{"name":"F#3","midi":54,"time":205.92000000000272,"velocity":0.6299212598425197,"duration":0.2400000000000091},{"name":"F#3","midi":54,"time":206.40000000000273,"velocity":0.6299212598425197,"duration":0.2400000000000091},{"name":"F#4","midi":66,"time":206.40000000000273,"velocity":0.6299212598425197,"duration":0.2400000000000091},{"name":"F#3","midi":54,"time":206.76000000000275,"velocity":0.6299212598425197,"duration":0.2400000000000091},{"name":"F#4","midi":66,"time":206.76000000000275,"velocity":0.6299212598425197,"duration":0.2400000000000091},{"name":"F#3","midi":54,"time":207.12000000000276,"velocity":0.6299212598425197,"duration":0.2400000000000091},{"name":"F#4","midi":66,"time":207.12000000000276,"velocity":0.6299212598425197,"duration":0.2400000000000091},{"name":"F#3","midi":54,"time":207.36000000000277,"velocity":0.6299212598425197,"duration":0.2400000000000091},{"name":"F#4","midi":66,"time":207.36000000000277,"velocity":0.6299212598425197,"duration":0.2400000000000091},{"name":"F#4","midi":66,"time":207.8400000000028,"velocity":0.6299212598425197,"duration":0.2400000000000091},{"name":"F#3","midi":54,"time":207.8400000000028,"velocity":0.6299212598425197,"duration":0.2400000000000091},{"name":"F#3","midi":54,"time":208.3200000000028,"velocity":0.6299212598425197,"duration":0.2400000000000091},{"name":"F#4","midi":66,"time":208.3200000000028,"velocity":0.6299212598425197,"duration":0.2400000000000091},{"name":"F#3","midi":54,"time":208.68000000000282,"velocity":0.6299212598425197,"duration":0.2400000000000091},{"name":"F#4","midi":66,"time":208.68000000000282,"velocity":0.6299212598425197,"duration":0.2400000000000091},{"name":"F#3","midi":54,"time":209.04000000000283,"velocity":0.6299212598425197,"duration":0.2400000000000091},{"name":"F#4","midi":66,"time":209.04000000000283,"velocity":0.6299212598425197,"duration":0.2400000000000091},{"name":"F#3","midi":54,"time":209.28000000000284,"velocity":0.6299212598425197,"duration":0.2400000000000091},{"name":"F#4","midi":66,"time":209.28000000000284,"velocity":0.6299212598425197,"duration":0.2400000000000091},{"name":"F#4","midi":66,"time":209.76000000000286,"velocity":0.6299212598425197,"duration":0.2400000000000091},{"name":"F#3","midi":54,"time":209.76000000000286,"velocity":0.6299212598425197,"duration":0.2400000000000091},{"name":"F#3","midi":54,"time":210.24000000000288,"velocity":0.6299212598425197,"duration":0.2400000000000091},{"name":"F#4","midi":66,"time":210.24000000000288,"velocity":0.6299212598425197,"duration":0.2400000000000091},{"name":"F#3","midi":54,"time":210.6000000000029,"velocity":0.6299212598425197,"duration":0.2400000000000091},{"name":"F#4","midi":66,"time":210.6000000000029,"velocity":0.6299212598425197,"duration":0.2400000000000091},{"name":"F#3","midi":54,"time":210.9600000000029,"velocity":0.6299212598425197,"duration":0.2400000000000091},{"name":"F#4","midi":66,"time":210.9600000000029,"velocity":0.6299212598425197,"duration":0.2400000000000091},{"name":"F#3","midi":54,"time":211.20000000000292,"velocity":0.6299212598425197,"duration":0.2400000000000091},{"name":"F#4","midi":66,"time":211.20000000000292,"velocity":0.6299212598425197,"duration":0.2400000000000091},{"name":"F#4","midi":66,"time":211.68000000000293,"velocity":0.6299212598425197,"duration":0.2400000000000091},{"name":"F#3","midi":54,"time":211.68000000000293,"velocity":0.6299212598425197,"duration":0.2400000000000091},{"name":"F#3","midi":54,"time":212.16000000000295,"velocity":0.6299212598425197,"duration":0.2400000000000091},{"name":"F#4","midi":66,"time":212.16000000000295,"velocity":0.6299212598425197,"duration":0.2400000000000091},{"name":"F#3","midi":54,"time":212.52000000000297,"velocity":0.6299212598425197,"duration":0.2400000000000091},{"name":"F#4","midi":66,"time":212.52000000000297,"velocity":0.6299212598425197,"duration":0.2400000000000091},{"name":"F#3","midi":54,"time":212.88000000000298,"velocity":0.6299212598425197,"duration":0.2400000000000091},{"name":"F#4","midi":66,"time":212.88000000000298,"velocity":0.6299212598425197,"duration":0.2400000000000091},{"name":"F#3","midi":54,"time":213.120000000003,"velocity":0.6299212598425197,"duration":0.2400000000000091},{"name":"F#4","midi":66,"time":213.120000000003,"velocity":0.6299212598425197,"duration":0.2400000000000091},{"name":"F#4","midi":66,"time":213.600000000003,"velocity":0.6299212598425197,"duration":0.2400000000000091},{"name":"F#3","midi":54,"time":213.600000000003,"velocity":0.6299212598425197,"duration":0.2400000000000091},{"name":"F#3","midi":54,"time":214.08000000000303,"velocity":0.6299212598425197,"duration":0.2400000000000091},{"name":"F#4","midi":66,"time":214.08000000000303,"velocity":0.6299212598425197,"duration":0.2400000000000091},{"name":"F#3","midi":54,"time":214.44000000000304,"velocity":0.6299212598425197,"duration":0.2400000000000091},{"name":"F#4","midi":66,"time":214.44000000000304,"velocity":0.6299212598425197,"duration":0.2400000000000091},{"name":"F#3","midi":54,"time":214.80000000000305,"velocity":0.6299212598425197,"duration":0.2400000000000091},{"name":"F#4","midi":66,"time":214.80000000000305,"velocity":0.6299212598425197,"duration":0.2400000000000091},{"name":"F#3","midi":54,"time":215.04000000000306,"velocity":0.6299212598425197,"duration":0.2400000000000091},{"name":"F#4","midi":66,"time":215.04000000000306,"velocity":0.6299212598425197,"duration":0.2400000000000091},{"name":"F#4","midi":66,"time":215.52000000000308,"velocity":0.6299212598425197,"duration":0.2400000000000091},{"name":"F#3","midi":54,"time":215.52000000000308,"velocity":0.6299212598425197,"duration":0.2400000000000091},{"name":"F#3","midi":54,"time":216.0000000000031,"velocity":0.6299212598425197,"duration":0.2400000000000091},{"name":"F#4","midi":66,"time":216.0000000000031,"velocity":0.6299212598425197,"duration":0.2400000000000091},{"name":"F#3","midi":54,"time":216.3600000000031,"velocity":0.6299212598425197,"duration":0.2400000000000091},{"name":"F#4","midi":66,"time":216.3600000000031,"velocity":0.6299212598425197,"duration":0.2400000000000091},{"name":"F#3","midi":54,"time":216.72000000000313,"velocity":0.6299212598425197,"duration":0.2400000000000091},{"name":"F#4","midi":66,"time":216.72000000000313,"velocity":0.6299212598425197,"duration":0.2400000000000091},{"name":"F#3","midi":54,"time":216.96000000000313,"velocity":0.6299212598425197,"duration":0.2400000000000091},{"name":"F#4","midi":66,"time":216.96000000000313,"velocity":0.6299212598425197,"duration":0.2400000000000091},{"name":"F#4","midi":66,"time":217.44000000000315,"velocity":0.6299212598425197,"duration":0.2400000000000091},{"name":"F#3","midi":54,"time":217.44000000000315,"velocity":0.6299212598425197,"duration":0.2400000000000091},{"name":"F#3","midi":54,"time":217.92000000000317,"velocity":0.6299212598425197,"duration":0.2400000000000091},{"name":"F#4","midi":66,"time":217.92000000000317,"velocity":0.6299212598425197,"duration":0.2400000000000091},{"name":"F#3","midi":54,"time":218.28000000000318,"velocity":0.6299212598425197,"duration":0.2400000000000091},{"name":"F#4","midi":66,"time":218.28000000000318,"velocity":0.6299212598425197,"duration":0.2400000000000091},{"name":"F#3","midi":54,"time":218.6400000000032,"velocity":0.6299212598425197,"duration":0.2400000000000091},{"name":"F#4","midi":66,"time":218.6400000000032,"velocity":0.6299212598425197,"duration":0.2400000000000091},{"name":"F#3","midi":54,"time":218.8800000000032,"velocity":0.6299212598425197,"duration":0.2400000000000091},{"name":"F#4","midi":66,"time":218.8800000000032,"velocity":0.6299212598425197,"duration":0.2400000000000091},{"name":"F#4","midi":66,"time":219.36000000000323,"velocity":0.6299212598425197,"duration":0.2400000000000091},{"name":"F#3","midi":54,"time":219.36000000000323,"velocity":0.6299212598425197,"duration":0.2400000000000091},{"name":"F#3","midi":54,"time":219.84000000000324,"velocity":0.6299212598425197,"duration":0.2400000000000091},{"name":"F#4","midi":66,"time":219.84000000000324,"velocity":0.6299212598425197,"duration":0.2400000000000091},{"name":"F#3","midi":54,"time":220.20000000000326,"velocity":0.6299212598425197,"duration":0.2400000000000091},{"name":"F#4","midi":66,"time":220.20000000000326,"velocity":0.6299212598425197,"duration":0.2400000000000091},{"name":"F#3","midi":54,"time":220.56000000000327,"velocity":0.6299212598425197,"duration":0.2400000000000091},{"name":"F#4","midi":66,"time":220.56000000000327,"velocity":0.6299212598425197,"duration":0.2400000000000091},{"name":"F#3","midi":54,"time":220.80000000000328,"velocity":0.6299212598425197,"duration":0.2400000000000091},{"name":"F#4","midi":66,"time":220.80000000000328,"velocity":0.6299212598425197,"duration":0.2400000000000091},{"name":"F#4","midi":66,"time":221.2800000000033,"velocity":0.6299212598425197,"duration":0.2400000000000091},{"name":"F#3","midi":54,"time":221.2800000000033,"velocity":0.6299212598425197,"duration":0.2400000000000091},{"name":"F#3","midi":54,"time":221.76000000000332,"velocity":0.6299212598425197,"duration":0.2400000000000091},{"name":"F#4","midi":66,"time":221.76000000000332,"velocity":0.6299212598425197,"duration":0.2400000000000091},{"name":"F#3","midi":54,"time":222.12000000000333,"velocity":0.6299212598425197,"duration":0.2400000000000091},{"name":"F#4","midi":66,"time":222.12000000000333,"velocity":0.6299212598425197,"duration":0.2400000000000091},{"name":"F#3","midi":54,"time":222.48000000000334,"velocity":0.6299212598425197,"duration":0.12000000000000455},{"name":"F#4","midi":66,"time":222.48000000000334,"velocity":0.6299212598425197,"duration":0.12000000000000455},{"name":"F#3","midi":54,"time":222.60000000000335,"velocity":0.5039370078740157,"duration":0.12000000000000455},{"name":"F#4","midi":66,"time":222.60000000000335,"velocity":0.5039370078740157,"duration":0.12000000000000455},{"name":"F#3","midi":54,"time":222.96000000000336,"velocity":0.2440944881889764,"duration":0.12000000000000455},{"name":"F#4","midi":66,"time":222.96000000000336,"velocity":0.2440944881889764,"duration":0.12000000000000455},{"name":"F#3","midi":54,"time":223.08000000000337,"velocity":0.2204724409448819,"duration":0.12000000000000455},{"name":"F#4","midi":66,"time":223.08000000000337,"velocity":0.2204724409448819,"duration":0.12000000000000455},{"name":"F#3","midi":54,"time":223.44000000000338,"velocity":0.14960629921259844,"duration":0.12000000000000455},{"name":"F#4","midi":66,"time":223.44000000000338,"velocity":0.14960629921259844,"duration":0.12000000000000455},{"name":"F#3","midi":54,"time":223.56000000000338,"velocity":0.12598425196850394,"duration":0.12000000000000455},{"name":"F#4","midi":66,"time":223.56000000000338,"velocity":0.12598425196850394,"duration":0.12000000000000455},{"name":"F#3","midi":54,"time":223.9200000000034,"velocity":0.05511811023622047,"duration":0.12000000000000455},{"name":"F#4","midi":66,"time":223.9200000000034,"velocity":0.05511811023622047,"duration":0.12000000000000455},{"name":"F#3","midi":54,"time":224.0400000000034,"velocity":0.031496062992125984,"duration":0.12000000000000455},{"name":"F#4","midi":66,"time":224.0400000000034,"velocity":0.031496062992125984,"duration":0.12000000000000455}]},{"instrumentFamily":"sound effects","notes":[{"name":"F#4","midi":66,"time":40.32,"velocity":1,"duration":0.240000000000002},{"name":"F#4","midi":66,"time":40.56,"velocity":1,"duration":0.4799999999999969},{"name":"F#4","midi":66,"time":41.04,"velocity":1,"duration":0.4799999999999969},{"name":"F#4","midi":66,"time":41.519999999999996,"velocity":1,"duration":0.4799999999999969},{"name":"D#4","midi":63,"time":41.99999999999999,"velocity":1,"duration":0.4799999999999969},{"name":"F#4","midi":66,"time":44.15999999999999,"velocity":1,"duration":0.240000000000002},{"name":"F#4","midi":66,"time":44.39999999999999,"velocity":1,"duration":0.4799999999999969},{"name":"F#4","midi":66,"time":44.87999999999999,"velocity":1,"duration":0.4799999999999969},{"name":"G#4","midi":68,"time":45.359999999999985,"velocity":1,"duration":0.4799999999999969},{"name":"D#4","midi":63,"time":45.83999999999998,"velocity":1,"duration":0.4799999999999969},{"name":"D#4","midi":63,"time":47.99999999999998,"velocity":1,"duration":0.4799999999999969},{"name":"C#4","midi":61,"time":48.479999999999976,"velocity":1,"duration":0.240000000000002},{"name":"B3","midi":59,"time":48.71999999999998,"velocity":1,"duration":0.4799999999999969},{"name":"C#4","midi":61,"time":49.199999999999974,"velocity":1,"duration":0.4799999999999969},{"name":"C#4","midi":61,"time":49.67999999999997,"velocity":1,"duration":0.4799999999999969},{"name":"D#4","midi":63,"time":50.15999999999997,"velocity":1,"duration":0.4799999999999969},{"name":"D#4","midi":63,"time":50.639999999999965,"velocity":1,"duration":0.4799999999999969},{"name":"D#4","midi":63,"time":51.83999999999996,"velocity":1,"duration":0.4799999999999969},{"name":"C#4","midi":61,"time":52.31999999999996,"velocity":1,"duration":0.4799999999999969},{"name":"B3","midi":59,"time":52.799999999999955,"velocity":1,"duration":0.4799999999999969},{"name":"A#3","midi":58,"time":53.27999999999995,"velocity":1,"duration":0.240000000000002},{"name":"G#3","midi":56,"time":53.51999999999995,"velocity":1,"duration":0.4799999999999969},{"name":"F#4","midi":66,"time":55.67999999999995,"velocity":1,"duration":0.240000000000002},{"name":"F#4","midi":66,"time":55.91999999999995,"velocity":1,"duration":0.4799999999999969},{"name":"F#4","midi":66,"time":56.39999999999995,"velocity":1,"duration":0.4799999999999969},{"name":"F#4","midi":66,"time":56.879999999999946,"velocity":1,"duration":0.4799999999999969},{"name":"D#4","midi":63,"time":57.35999999999994,"velocity":1,"duration":0.4799999999999969},{"name":"B3","midi":59,"time":59.03999999999994,"velocity":1,"duration":0.240000000000002},{"name":"B3","midi":59,"time":59.279999999999944,"velocity":1,"duration":0.240000000000002},{"name":"F#4","midi":66,"time":59.519999999999946,"velocity":1,"duration":0.240000000000002},{"name":"F#4","midi":66,"time":59.75999999999995,"velocity":1,"duration":0.4799999999999969},{"name":"F#4","midi":66,"time":60.239999999999945,"velocity":1,"duration":0.4799999999999969},{"name":"G#4","midi":68,"time":60.71999999999994,"velocity":1,"duration":0.4799999999999969},{"name":"D#4","midi":63,"time":61.19999999999994,"velocity":1,"duration":0.4799999999999969},{"name":"D#4","midi":63,"time":63.359999999999935,"velocity":1,"duration":0.4799999999999969},{"name":"C#4","midi":61,"time":63.83999999999993,"velocity":1,"duration":0.23999999999999488},{"name":"B3","midi":59,"time":64.07999999999993,"velocity":1,"duration":0.480000000000004},{"name":"C#4","midi":61,"time":64.55999999999993,"velocity":1,"duration":0.480000000000004},{"name":"C#4","midi":61,"time":65.03999999999994,"velocity":1,"duration":0.480000000000004},{"name":"D#4","midi":63,"time":65.51999999999994,"velocity":1,"duration":0.480000000000004},{"name":"D#4","midi":63,"time":67.19999999999995,"velocity":1,"duration":0.480000000000004},{"name":"C#4","midi":61,"time":67.67999999999995,"velocity":1,"duration":0.23999999999999488},{"name":"B3","midi":59,"time":67.91999999999994,"velocity":1,"duration":0.480000000000004},{"name":"A#3","midi":58,"time":68.39999999999995,"velocity":1,"duration":0.480000000000004},{"name":"G#3","midi":56,"time":68.87999999999995,"velocity":1,"duration":0.480000000000004},{"name":"F#4","midi":66,"time":71.03999999999996,"velocity":1,"duration":0.23999999999999488},{"name":"F#4","midi":66,"time":71.27999999999996,"velocity":1,"duration":0.480000000000004},{"name":"F#4","midi":66,"time":71.75999999999996,"velocity":1,"duration":0.480000000000004},{"name":"F#4","midi":66,"time":72.23999999999997,"velocity":1,"duration":0.480000000000004},{"name":"D#4","midi":63,"time":72.71999999999997,"velocity":1,"duration":0.480000000000004},{"name":"D#4","midi":63,"time":74.39999999999998,"velocity":1,"duration":0.23999999999999488},{"name":"D#4","midi":63,"time":74.63999999999997,"velocity":1,"duration":0.23999999999999488},{"name":"F#4","midi":66,"time":74.87999999999997,"velocity":1,"duration":0.23999999999999488},{"name":"F#4","midi":66,"time":75.11999999999996,"velocity":1,"duration":0.480000000000004},{"name":"F#4","midi":66,"time":75.59999999999997,"velocity":1,"duration":0.480000000000004},{"name":"G#4","midi":68,"time":76.07999999999997,"velocity":1,"duration":0.480000000000004},{"name":"D#4","midi":63,"time":76.55999999999997,"velocity":1,"duration":0.480000000000004},{"name":"D#4","midi":63,"time":78.71999999999998,"velocity":1,"duration":0.480000000000004},{"name":"C#4","midi":61,"time":79.19999999999999,"velocity":1,"duration":0.23999999999999488},{"name":"B3","midi":59,"time":79.43999999999998,"velocity":1,"duration":0.480000000000004},{"name":"C#4","midi":61,"time":79.91999999999999,"velocity":1,"duration":0.480000000000004},{"name":"C#4","midi":61,"time":80.39999999999999,"velocity":1,"duration":0.480000000000004},{"name":"D#4","midi":63,"time":80.88,"velocity":1,"duration":0.480000000000004},{"name":"D#4","midi":63,"time":82.56,"velocity":1,"duration":0.480000000000004},{"name":"C#4","midi":61,"time":83.04,"velocity":1,"duration":0.23999999999999488},{"name":"B3","midi":59,"time":83.28,"velocity":1,"duration":0.23999999999999488},{"name":"B3","midi":59,"time":83.52,"velocity":1,"duration":0.23999999999999488},{"name":"A#3","midi":58,"time":83.75999999999999,"velocity":1,"duration":0.480000000000004},{"name":"G#3","midi":56,"time":84.24,"velocity":1,"duration":0.480000000000004},{"name":"B3","midi":59,"time":86.16,"velocity":0.9763779527559056,"duration":0.23999999999999488},{"name":"F#4","midi":66,"time":86.39999999999999,"velocity":1,"duration":0.23999999999999488},{"name":"F#4","midi":66,"time":86.63999999999999,"velocity":1,"duration":0.480000000000004},{"name":"F#4","midi":66,"time":87.11999999999999,"velocity":1,"duration":0.480000000000004},{"name":"G#4","midi":68,"time":87.6,"velocity":1,"duration":0.480000000000004},{"name":"D#4","midi":63,"time":88.08,"velocity":1,"duration":0.480000000000004},{"name":"F#4","midi":66,"time":90.24000000000001,"velocity":1,"duration":0.23999999999999488},{"name":"F#4","midi":66,"time":90.48,"velocity":1,"duration":0.480000000000004},{"name":"F#4","midi":66,"time":90.96000000000001,"velocity":1,"duration":0.480000000000004},{"name":"G#4","midi":68,"time":91.44000000000001,"velocity":1,"duration":0.480000000000004},{"name":"D#4","midi":63,"time":91.92000000000002,"velocity":1,"duration":0.480000000000004},{"name":"B3","midi":59,"time":93.60000000000002,"velocity":1,"duration":0.23999999999999488},{"name":"B3","midi":59,"time":93.84000000000002,"velocity":1,"duration":0.23999999999999488},{"name":"D#4","midi":63,"time":94.08000000000001,"velocity":1,"duration":0.480000000000004},{"name":"C#4","midi":61,"time":94.56000000000002,"velocity":1,"duration":0.23999999999999488},{"name":"B3","midi":59,"time":94.80000000000001,"velocity":1,"duration":0.480000000000004},{"name":"C#4","midi":61,"time":95.28000000000002,"velocity":1,"duration":0.480000000000004},{"name":"C#4","midi":61,"time":95.76000000000002,"velocity":1,"duration":0.480000000000004},{"name":"D#4","midi":63,"time":96.24000000000002,"velocity":1,"duration":0.480000000000004},{"name":"D#4","midi":63,"time":96.72000000000003,"velocity":1,"duration":0.480000000000004},{"name":"B3","midi":59,"time":97.92000000000003,"velocity":1,"duration":0.480000000000004},{"name":"A#3","midi":58,"time":98.40000000000003,"velocity":1,"duration":0.480000000000004},{"name":"G#3","midi":56,"time":98.88000000000004,"velocity":1,"duration":0.23999999999999488},{"name":"F#3","midi":54,"time":99.12000000000003,"velocity":1,"duration":0.23999999999999488},{"name":"F#3","midi":54,"time":99.60000000000002,"velocity":1,"duration":0.480000000000004},{"name":"F#4","midi":66,"time":100.80000000000003,"velocity":0.44881889763779526,"duration":0.480000000000004},{"name":"D#4","midi":63,"time":101.28000000000003,"velocity":0.44881889763779526,"duration":0.12000000000000455},{"name":"D#4","midi":63,"time":101.52000000000004,"velocity":0.44881889763779526,"duration":0.23999999999999488},{"name":"F#4","midi":66,"time":102.72000000000003,"velocity":0.44881889763779526,"duration":0.480000000000004},{"name":"D#4","midi":63,"time":103.20000000000003,"velocity":0.44881889763779526,"duration":0.12000000000000455},{"name":"D#4","midi":63,"time":103.44000000000004,"velocity":0.44881889763779526,"duration":0.23999999999999488},{"name":"F#4","midi":66,"time":104.64000000000003,"velocity":0.44881889763779526,"duration":0.480000000000004},{"name":"D#4","midi":63,"time":105.12000000000003,"velocity":0.44881889763779526,"duration":0.12000000000000455},{"name":"D#4","midi":63,"time":105.36000000000004,"velocity":0.44881889763779526,"duration":0.23999999999999488},{"name":"F#4","midi":66,"time":106.56000000000003,"velocity":0.44881889763779526,"duration":0.480000000000004},{"name":"D#4","midi":63,"time":107.04000000000003,"velocity":0.44881889763779526,"duration":0.12000000000000455},{"name":"D#4","midi":63,"time":107.28000000000004,"velocity":0.44881889763779526,"duration":0.23999999999999488},{"name":"G#4","midi":68,"time":138.72000000000003,"velocity":0.8188976377952756,"duration":0.2400000000000091},{"name":"G#4","midi":68,"time":138.96000000000004,"velocity":0.8188976377952756,"duration":0.2400000000000091},{"name":"G#4","midi":68,"time":139.20000000000005,"velocity":0.8188976377952756,"duration":0.2400000000000091},{"name":"B4","midi":71,"time":139.44000000000005,"velocity":0.8188976377952756,"duration":0.47999999999998977},{"name":"D#5","midi":75,"time":139.92000000000004,"velocity":0.8188976377952756,"duration":0.47999999999998977},{"name":"C#5","midi":73,"time":140.40000000000003,"velocity":0.8188976377952756,"duration":0.47999999999998977},{"name":"C#5","midi":73,"time":140.88000000000002,"velocity":0.8188976377952756,"duration":0.47999999999998977},{"name":"G#4","midi":68,"time":141.36,"velocity":0.8188976377952756,"duration":0.2400000000000091},{"name":"G#4","midi":68,"time":141.60000000000002,"velocity":0.8188976377952756,"duration":0.2400000000000091},{"name":"D#5","midi":75,"time":141.84000000000003,"velocity":0.8188976377952756,"duration":0.47999999999998977},{"name":"C#5","midi":73,"time":142.32000000000002,"velocity":0.8188976377952756,"duration":0.47999999999998977},{"name":"C#5","midi":73,"time":142.8,"velocity":0.8188976377952756,"duration":0.47999999999998977},{"name":"B4","midi":71,"time":143.28,"velocity":0.8188976377952756,"duration":0.2400000000000091},{"name":"B4","midi":71,"time":143.52,"velocity":0.8188976377952756,"duration":0.2400000000000091},{"name":"D#5","midi":75,"time":143.76000000000002,"velocity":0.8188976377952756,"duration":0.47999999999998977},{"name":"C#5","midi":73,"time":144.24,"velocity":0.8188976377952756,"duration":0.47999999999998977},{"name":"C#5","midi":73,"time":144.72,"velocity":0.8188976377952756,"duration":0.47999999999998977},{"name":"F#4","midi":66,"time":145.2,"velocity":0.8188976377952756,"duration":0.2400000000000091},{"name":"B4","midi":71,"time":145.44,"velocity":0.8188976377952756,"duration":0.2400000000000091},{"name":"B4","midi":71,"time":145.68,"velocity":0.8188976377952756,"duration":0.7199999999999989},{"name":"G#4","midi":68,"time":146.4,"velocity":0.8188976377952756,"duration":0.2400000000000091},{"name":"G#4","midi":68,"time":146.64000000000001,"velocity":0.8188976377952756,"duration":0.2400000000000091},{"name":"G#4","midi":68,"time":146.88000000000002,"velocity":0.8188976377952756,"duration":0.2400000000000091},{"name":"B4","midi":71,"time":147.12000000000003,"velocity":0.8188976377952756,"duration":0.47999999999998977},{"name":"D#5","midi":75,"time":147.60000000000002,"velocity":0.8188976377952756,"duration":0.47999999999998977},{"name":"C#5","midi":73,"time":148.08,"velocity":0.8188976377952756,"duration":0.47999999999998977},{"name":"C#5","midi":73,"time":148.56,"velocity":0.8188976377952756,"duration":0.47999999999998977},{"name":"G#4","midi":68,"time":149.04,"velocity":0.8188976377952756,"duration":0.2400000000000091},{"name":"G#4","midi":68,"time":149.28,"velocity":0.8188976377952756,"duration":0.2400000000000091},{"name":"D#5","midi":75,"time":149.52,"velocity":0.8188976377952756,"duration":0.47999999999998977},{"name":"C#5","midi":73,"time":150,"velocity":0.8188976377952756,"duration":0.47999999999998977},{"name":"C#5","midi":73,"time":150.48,"velocity":0.8188976377952756,"duration":0.47999999999998977},{"name":"B4","midi":71,"time":150.95999999999998,"velocity":0.8188976377952756,"duration":0.2400000000000091},{"name":"B4","midi":71,"time":151.2,"velocity":0.8188976377952756,"duration":0.2400000000000091},{"name":"D#5","midi":75,"time":151.44,"velocity":0.8188976377952756,"duration":0.47999999999998977},{"name":"C#5","midi":73,"time":151.92,"velocity":0.8188976377952756,"duration":0.47999999999998977},{"name":"C#5","midi":73,"time":152.39999999999998,"velocity":0.8188976377952756,"duration":0.47999999999998977},{"name":"B4","midi":71,"time":152.87999999999997,"velocity":0.8188976377952756,"duration":0.2400000000000091},{"name":"B4","midi":71,"time":153.11999999999998,"velocity":0.8188976377952756,"duration":0.2400000000000091},{"name":"B4","midi":71,"time":153.35999999999999,"velocity":0.8188976377952756,"duration":0.7199999999999989},{"name":"G#4","midi":68,"time":154.07999999999998,"velocity":0.8188976377952756,"duration":0.2400000000000091},{"name":"G#4","midi":68,"time":154.32,"velocity":0.8188976377952756,"duration":0.2400000000000091},{"name":"G#4","midi":68,"time":154.56,"velocity":0.8188976377952756,"duration":0.2400000000000091},{"name":"B4","midi":71,"time":154.8,"velocity":0.8188976377952756,"duration":0.47999999999998977},{"name":"D#5","midi":75,"time":155.28,"velocity":0.8188976377952756,"duration":0.47999999999998977},{"name":"C#5","midi":73,"time":155.76,"velocity":0.8188976377952756,"duration":0.47999999999998977},{"name":"C#5","midi":73,"time":156.23999999999998,"velocity":0.8188976377952756,"duration":0.47999999999998977},{"name":"G#4","midi":68,"time":156.71999999999997,"velocity":0.8188976377952756,"duration":0.2400000000000091},{"name":"G#4","midi":68,"time":156.95999999999998,"velocity":0.8188976377952756,"duration":0.2400000000000091},{"name":"D#5","midi":75,"time":157.2,"velocity":0.8188976377952756,"duration":0.47999999999998977},{"name":"C#5","midi":73,"time":157.67999999999998,"velocity":0.8188976377952756,"duration":0.47999999999998977},{"name":"C#5","midi":73,"time":158.15999999999997,"velocity":0.8188976377952756,"duration":0.47999999999998977},{"name":"B4","midi":71,"time":158.63999999999996,"velocity":0.8188976377952756,"duration":0.2400000000000091},{"name":"B4","midi":71,"time":158.87999999999997,"velocity":0.8188976377952756,"duration":0.2400000000000091},{"name":"D#5","midi":75,"time":159.11999999999998,"velocity":0.8188976377952756,"duration":0.47999999999998977},{"name":"C#5","midi":73,"time":159.59999999999997,"velocity":0.8188976377952756,"duration":0.47999999999998977},{"name":"C#5","midi":73,"time":160.07999999999996,"velocity":0.8188976377952756,"duration":0.47999999999998977},{"name":"F#4","midi":66,"time":160.55999999999995,"velocity":0.8188976377952756,"duration":0.2400000000000091},{"name":"B4","midi":71,"time":160.79999999999995,"velocity":0.8188976377952756,"duration":0.2400000000000091},{"name":"B4","midi":71,"time":161.03999999999996,"velocity":0.8188976377952756,"duration":0.7199999999999989},{"name":"G#4","midi":68,"time":161.75999999999996,"velocity":0.8188976377952756,"duration":0.2400000000000091},{"name":"G#4","midi":68,"time":161.99999999999997,"velocity":0.8188976377952756,"duration":0.2400000000000091},{"name":"G#4","midi":68,"time":162.23999999999998,"velocity":0.8188976377952756,"duration":0.2400000000000091},{"name":"B4","midi":71,"time":162.48,"velocity":0.8188976377952756,"duration":0.47999999999998977},{"name":"D#5","midi":75,"time":162.95999999999998,"velocity":0.8188976377952756,"duration":0.47999999999998977},{"name":"C#5","midi":73,"time":163.43999999999997,"velocity":0.8188976377952756,"duration":0.47999999999998977},{"name":"C#5","midi":73,"time":163.91999999999996,"velocity":0.8188976377952756,"duration":0.47999999999998977},{"name":"G#4","midi":68,"time":164.39999999999995,"velocity":0.8188976377952756,"duration":0.2400000000000091},{"name":"G#4","midi":68,"time":164.63999999999996,"velocity":0.8188976377952756,"duration":0.2400000000000091},{"name":"D#5","midi":75,"time":164.87999999999997,"velocity":0.8188976377952756,"duration":0.47999999999998977},{"name":"C#5","midi":73,"time":165.35999999999996,"velocity":0.8188976377952756,"duration":0.47999999999998977},{"name":"C#5","midi":73,"time":165.83999999999995,"velocity":0.8188976377952756,"duration":0.47999999999998977},{"name":"B4","midi":71,"time":166.31999999999994,"velocity":0.8188976377952756,"duration":0.2400000000000091},{"name":"B4","midi":71,"time":166.55999999999995,"velocity":0.8188976377952756,"duration":0.2400000000000091},{"name":"D#5","midi":75,"time":166.79999999999995,"velocity":0.8188976377952756,"duration":0.47999999999998977},{"name":"C#5","midi":73,"time":167.27999999999994,"velocity":0.8188976377952756,"duration":0.47999999999998977},{"name":"C#5","midi":73,"time":167.75999999999993,"velocity":0.8188976377952756,"duration":0.47999999999998977},{"name":"B4","midi":71,"time":168.23999999999992,"velocity":0.8188976377952756,"duration":0.2400000000000091},{"name":"B4","midi":71,"time":168.47999999999993,"velocity":0.8188976377952756,"duration":0.2400000000000091},{"name":"B4","midi":71,"time":168.71999999999994,"velocity":0.8188976377952756,"duration":0.7199999999999989},{"name":"G#4","midi":68,"time":169.43999999999994,"velocity":0.7559055118110236,"duration":0.2400000000000091},{"name":"G#4","midi":68,"time":169.67999999999995,"velocity":0.7559055118110236,"duration":0.2400000000000091},{"name":"G#4","midi":68,"time":169.91999999999996,"velocity":0.7559055118110236,"duration":0.2400000000000091},{"name":"B4","midi":71,"time":170.15999999999997,"velocity":0.7559055118110236,"duration":0.47999999999998977},{"name":"D#5","midi":75,"time":170.63999999999996,"velocity":0.7559055118110236,"duration":0.47999999999998977},{"name":"C#5","midi":73,"time":171.11999999999995,"velocity":0.7559055118110236,"duration":0.47999999999998977},{"name":"C#5","midi":73,"time":171.59999999999994,"velocity":0.7559055118110236,"duration":0.47999999999998977},{"name":"G#4","midi":68,"time":172.07999999999993,"velocity":0.7559055118110236,"duration":0.2400000000000091},{"name":"G#4","midi":68,"time":172.31999999999994,"velocity":0.7559055118110236,"duration":0.2400000000000091},{"name":"D#5","midi":75,"time":172.55999999999995,"velocity":0.7559055118110236,"duration":0.47999999999998977},{"name":"C#5","midi":73,"time":173.03999999999994,"velocity":0.7559055118110236,"duration":0.47999999999998977},{"name":"C#5","midi":73,"time":173.51999999999992,"velocity":0.7559055118110236,"duration":0.47999999999998977},{"name":"B4","midi":71,"time":173.99999999999991,"velocity":0.7559055118110236,"duration":0.2400000000000091},{"name":"B4","midi":71,"time":174.23999999999992,"velocity":0.7559055118110236,"duration":0.2400000000000091},{"name":"D#5","midi":75,"time":174.47999999999993,"velocity":0.7559055118110236,"duration":0.47999999999998977},{"name":"C#5","midi":73,"time":174.95999999999992,"velocity":0.7559055118110236,"duration":0.47999999999998977},{"name":"C#5","midi":73,"time":175.4399999999999,"velocity":0.7559055118110236,"duration":0.47999999999998977},{"name":"F#4","midi":66,"time":175.9199999999999,"velocity":0.7559055118110236,"duration":0.2400000000000091},{"name":"B4","midi":71,"time":176.1599999999999,"velocity":0.7559055118110236,"duration":0.2400000000000091},{"name":"B4","midi":71,"time":176.39999999999992,"velocity":0.7559055118110236,"duration":0.7199999999999989},{"name":"G#4","midi":68,"time":177.11999999999992,"velocity":0.7559055118110236,"duration":0.2400000000000091},{"name":"G#4","midi":68,"time":177.35999999999993,"velocity":0.7559055118110236,"duration":0.2400000000000091},{"name":"G#4","midi":68,"time":177.59999999999994,"velocity":0.7559055118110236,"duration":0.2400000000000091},{"name":"B4","midi":71,"time":177.83999999999995,"velocity":0.7559055118110236,"duration":0.47999999999998977},{"name":"D#5","midi":75,"time":178.31999999999994,"velocity":0.7559055118110236,"duration":0.47999999999998977},{"name":"C#5","midi":73,"time":178.79999999999993,"velocity":0.7559055118110236,"duration":0.47999999999998977},{"name":"C#5","midi":73,"time":179.27999999999992,"velocity":0.7559055118110236,"duration":0.47999999999998977},{"name":"G#4","midi":68,"time":179.7599999999999,"velocity":0.7559055118110236,"duration":0.2400000000000091},{"name":"G#4","midi":68,"time":179.99999999999991,"velocity":0.7559055118110236,"duration":0.2400000000000091},{"name":"D#5","midi":75,"time":180.23999999999992,"velocity":0.7559055118110236,"duration":0.47999999999998977},{"name":"C#5","midi":73,"time":180.7199999999999,"velocity":0.7559055118110236,"duration":0.47999999999998977},{"name":"C#5","midi":73,"time":181.1999999999999,"velocity":0.7559055118110236,"duration":0.47999999999998977},{"name":"B4","midi":71,"time":181.6799999999999,"velocity":0.7559055118110236,"duration":0.2400000000000091},{"name":"B4","midi":71,"time":181.9199999999999,"velocity":0.7559055118110236,"duration":0.2400000000000091},{"name":"D#5","midi":75,"time":182.1599999999999,"velocity":0.7559055118110236,"duration":0.47999999999998977},{"name":"C#5","midi":73,"time":182.6399999999999,"velocity":0.7559055118110236,"duration":0.47999999999998977},{"name":"C#5","midi":73,"time":183.1199999999999,"velocity":0.7559055118110236,"duration":0.47999999999998977},{"name":"B4","midi":71,"time":183.59999999999988,"velocity":0.7559055118110236,"duration":0.2400000000000091},{"name":"B4","midi":71,"time":183.8399999999999,"velocity":0.7559055118110236,"duration":0.2400000000000091},{"name":"B4","midi":71,"time":184.0799999999999,"velocity":0.7559055118110236,"duration":0.7199999999999989},{"name":"G#4","midi":68,"time":184.7999999999999,"velocity":0.7559055118110236,"duration":0.2400000000000091},{"name":"G#4","midi":68,"time":185.0399999999999,"velocity":0.7559055118110236,"duration":0.2400000000000091},{"name":"G#4","midi":68,"time":185.27999999999992,"velocity":0.7559055118110236,"duration":0.2400000000000091},{"name":"B4","midi":71,"time":185.51999999999992,"velocity":0.7559055118110236,"duration":0.47999999999998977},{"name":"D#5","midi":75,"time":185.99999999999991,"velocity":0.7559055118110236,"duration":0.47999999999998977},{"name":"C#5","midi":73,"time":186.4799999999999,"velocity":0.7559055118110236,"duration":0.47999999999998977},{"name":"C#5","midi":73,"time":186.9599999999999,"velocity":0.7559055118110236,"duration":0.47999999999998977},{"name":"G#4","midi":68,"time":187.43999999999988,"velocity":0.7559055118110236,"duration":0.2400000000000091},{"name":"G#4","midi":68,"time":187.6799999999999,"velocity":0.7559055118110236,"duration":0.2400000000000091},{"name":"D#5","midi":75,"time":187.9199999999999,"velocity":0.7559055118110236,"duration":0.47999999999998977},{"name":"C#5","midi":73,"time":188.3999999999999,"velocity":0.7559055118110236,"duration":0.47999999999998977},{"name":"C#5","midi":73,"time":188.87999999999988,"velocity":0.7559055118110236,"duration":0.47999999999998977},{"name":"B4","midi":71,"time":189.35999999999987,"velocity":0.7559055118110236,"duration":0.2400000000000091},{"name":"B4","midi":71,"time":189.59999999999988,"velocity":0.7559055118110236,"duration":0.2400000000000091},{"name":"D#5","midi":75,"time":189.8399999999999,"velocity":0.7559055118110236,"duration":0.47999999999998977},{"name":"C#5","midi":73,"time":190.31999999999988,"velocity":0.7559055118110236,"duration":0.47999999999998977},{"name":"C#5","midi":73,"time":190.79999999999987,"velocity":0.7559055118110236,"duration":0.47999999999998977},{"name":"F#4","midi":66,"time":191.27999999999986,"velocity":0.7559055118110236,"duration":0.2400000000000091},{"name":"B4","midi":71,"time":191.51999999999987,"velocity":0.7559055118110236,"duration":0.2400000000000091},{"name":"B4","midi":71,"time":191.75999999999988,"velocity":0.7559055118110236,"duration":0.7199999999999989},{"name":"G#4","midi":68,"time":192.47999999999988,"velocity":0.7559055118110236,"duration":0.2400000000000091},{"name":"G#4","midi":68,"time":192.71999999999989,"velocity":0.7559055118110236,"duration":0.2400000000000091},{"name":"G#4","midi":68,"time":192.9599999999999,"velocity":0.7559055118110236,"duration":0.2400000000000091},{"name":"B4","midi":71,"time":193.1999999999999,"velocity":0.7559055118110236,"duration":0.47999999999998977},{"name":"D#5","midi":75,"time":193.6799999999999,"velocity":0.7559055118110236,"duration":0.47999999999998977},{"name":"C#5","midi":73,"time":194.15999999999988,"velocity":0.7559055118110236,"duration":0.47999999999998977},{"name":"C#5","midi":73,"time":194.63999999999987,"velocity":0.7559055118110236,"duration":0.47999999999998977},{"name":"G#4","midi":68,"time":195.11999999999986,"velocity":0.7559055118110236,"duration":0.2400000000000091},{"name":"G#4","midi":68,"time":195.35999999999987,"velocity":0.7559055118110236,"duration":0.2400000000000091},{"name":"D#5","midi":75,"time":195.59999999999988,"velocity":0.7559055118110236,"duration":0.47999999999998977},{"name":"C#5","midi":73,"time":196.07999999999987,"velocity":0.7559055118110236,"duration":0.47999999999998977},{"name":"C#5","midi":73,"time":196.55999999999986,"velocity":0.7559055118110236,"duration":0.47999999999998977},{"name":"B4","midi":71,"time":197.03999999999985,"velocity":0.7559055118110236,"duration":0.2400000000000091},{"name":"B4","midi":71,"time":197.27999999999986,"velocity":0.7559055118110236,"duration":0.2400000000000091},{"name":"D#5","midi":75,"time":197.51999999999987,"velocity":0.7559055118110236,"duration":0.47999999999998977},{"name":"C#5","midi":73,"time":197.99999999999986,"velocity":0.7559055118110236,"duration":0.47999999999998977},{"name":"C#5","midi":73,"time":198.47999999999985,"velocity":0.7559055118110236,"duration":0.47999999999998977},{"name":"B4","midi":71,"time":198.95999999999984,"velocity":0.7559055118110236,"duration":0.2400000000000091},{"name":"B4","midi":71,"time":199.19999999999985,"velocity":0.7559055118110236,"duration":0.2400000000000091},{"name":"B4","midi":71,"time":199.43999999999986,"velocity":0.7559055118110236,"duration":0.7199999999999989}]},{"instrumentFamily":"piano","notes":[{"name":"D5","midi":74,"time":136.32,"velocity":0.7874015748031497,"duration":5.759999999999366}]},{"instrumentFamily":"brass","notes":[{"name":"F#5","midi":78,"time":138.24,"velocity":0.7401574803149606,"duration":0.960000000000008},{"name":"F#5","midi":78,"time":139.44000000000003,"velocity":0.7401574803149606,"duration":0.2400000000000091},{"name":"F#5","midi":78,"time":139.92000000000004,"velocity":0.7401574803149606,"duration":1.1999999999999886},{"name":"F#5","midi":78,"time":141.36000000000004,"velocity":0.7401574803149606,"duration":0.2400000000000091},{"name":"F#5","midi":78,"time":141.84000000000006,"velocity":0.7401574803149606,"duration":1.1999999999999886},{"name":"F#5","midi":78,"time":143.28000000000006,"velocity":0.7401574803149606,"duration":0.2400000000000091},{"name":"F#5","midi":78,"time":143.76000000000008,"velocity":0.7401574803149606,"duration":1.0800000000000125},{"name":"F#5","midi":78,"time":144.9600000000001,"velocity":0.7401574803149606,"duration":0.2400000000000091},{"name":"F#5","midi":78,"time":145.4400000000001,"velocity":0.7401574803149606,"duration":0.2400000000000091},{"name":"F#5","midi":78,"time":145.92000000000013,"velocity":0.7401574803149606,"duration":0.960000000000008},{"name":"F#5","midi":78,"time":147.12000000000015,"velocity":0.7401574803149606,"duration":0.2400000000000091},{"name":"F#5","midi":78,"time":147.60000000000016,"velocity":0.7401574803149606,"duration":1.1999999999999886},{"name":"F#5","midi":78,"time":149.04000000000016,"velocity":0.7401574803149606,"duration":0.2400000000000091},{"name":"F#5","midi":78,"time":149.52000000000018,"velocity":0.7401574803149606,"duration":1.1999999999999886},{"name":"F#5","midi":78,"time":150.96000000000018,"velocity":0.7401574803149606,"duration":0.2400000000000091},{"name":"F#5","midi":78,"time":151.4400000000002,"velocity":0.7401574803149606,"duration":1.0800000000000125},{"name":"F#5","midi":78,"time":152.6400000000002,"velocity":0.7401574803149606,"duration":0.2400000000000091},{"name":"F#5","midi":78,"time":153.12000000000023,"velocity":0.7401574803149606,"duration":0.2400000000000091},{"name":"F#5","midi":78,"time":153.60000000000025,"velocity":0.7401574803149606,"duration":0.960000000000008},{"name":"F#5","midi":78,"time":154.80000000000027,"velocity":0.7401574803149606,"duration":0.2400000000000091},{"name":"F#5","midi":78,"time":155.28000000000029,"velocity":0.7401574803149606,"duration":1.1999999999999886},{"name":"F#5","midi":78,"time":156.72000000000028,"velocity":0.7401574803149606,"duration":0.2400000000000091},{"name":"F#5","midi":78,"time":157.2000000000003,"velocity":0.7401574803149606,"duration":1.1999999999999886},{"name":"F#5","midi":78,"time":158.6400000000003,"velocity":0.7401574803149606,"duration":0.2400000000000091},{"name":"F#5","midi":78,"time":159.12000000000032,"velocity":0.7401574803149606,"duration":1.0800000000000125},{"name":"F#5","midi":78,"time":160.32000000000033,"velocity":0.7401574803149606,"duration":0.2400000000000091},{"name":"F#5","midi":78,"time":160.80000000000035,"velocity":0.7401574803149606,"duration":0.2400000000000091},{"name":"F#5","midi":78,"time":161.28000000000037,"velocity":0.7401574803149606,"duration":0.960000000000008},{"name":"F#5","midi":78,"time":162.4800000000004,"velocity":0.7401574803149606,"duration":0.2400000000000091},{"name":"F#5","midi":78,"time":162.9600000000004,"velocity":0.7401574803149606,"duration":1.1999999999999886},{"name":"F#5","midi":78,"time":164.4000000000004,"velocity":0.7401574803149606,"duration":0.2400000000000091},{"name":"F#5","midi":78,"time":164.88000000000042,"velocity":0.7401574803149606,"duration":1.1999999999999886},{"name":"F#5","midi":78,"time":166.32000000000042,"velocity":0.7401574803149606,"duration":0.2400000000000091},{"name":"F#5","midi":78,"time":166.80000000000044,"velocity":0.7401574803149606,"duration":1.0800000000000125},{"name":"F#5","midi":78,"time":168.00000000000045,"velocity":0.7401574803149606,"duration":0.2400000000000091},{"name":"F#5","midi":78,"time":168.48000000000047,"velocity":0.7401574803149606,"duration":0.2400000000000091},{"name":"F#5","midi":78,"time":168.9600000000005,"velocity":0.7401574803149606,"duration":0.960000000000008},{"name":"F#5","midi":78,"time":170.1600000000005,"velocity":0.7401574803149606,"duration":0.2400000000000091},{"name":"F#5","midi":78,"time":170.64000000000053,"velocity":0.7401574803149606,"duration":1.1999999999999886},{"name":"F#5","midi":78,"time":172.08000000000052,"velocity":0.7401574803149606,"duration":0.2400000000000091},{"name":"F#5","midi":78,"time":172.56000000000054,"velocity":0.7401574803149606,"duration":1.1999999999999886},{"name":"F#5","midi":78,"time":174.00000000000054,"velocity":0.7401574803149606,"duration":0.2400000000000091},{"name":"F#5","midi":78,"time":174.48000000000056,"velocity":0.7401574803149606,"duration":1.0800000000000125},{"name":"F#5","midi":78,"time":175.68000000000058,"velocity":0.7401574803149606,"duration":0.2400000000000091},{"name":"F#5","midi":78,"time":176.1600000000006,"velocity":0.7401574803149606,"duration":0.2400000000000091},{"name":"F#5","midi":78,"time":176.6400000000006,"velocity":0.7401574803149606,"duration":0.960000000000008},{"name":"F#5","midi":78,"time":177.84000000000063,"velocity":0.7401574803149606,"duration":0.2400000000000091},{"name":"F#5","midi":78,"time":178.32000000000065,"velocity":0.7401574803149606,"duration":1.1999999999999886},{"name":"F#5","midi":78,"time":179.76000000000064,"velocity":0.7401574803149606,"duration":0.2400000000000091},{"name":"F#5","midi":78,"time":180.24000000000066,"velocity":0.7401574803149606,"duration":1.1999999999999886},{"name":"F#5","midi":78,"time":181.68000000000066,"velocity":0.7401574803149606,"duration":0.2400000000000091},{"name":"F#5","midi":78,"time":182.16000000000068,"velocity":0.7401574803149606,"duration":1.0800000000000125},{"name":"F#5","midi":78,"time":183.3600000000007,"velocity":0.7401574803149606,"duration":0.2400000000000091},{"name":"F#5","midi":78,"time":183.8400000000007,"velocity":0.7401574803149606,"duration":0.2400000000000091},{"name":"F#5","midi":78,"time":184.32000000000073,"velocity":0.7401574803149606,"duration":0.960000000000008},{"name":"F#5","midi":78,"time":185.52000000000075,"velocity":0.7401574803149606,"duration":0.2400000000000091},{"name":"F#5","midi":78,"time":186.00000000000077,"velocity":0.7401574803149606,"duration":1.1999999999999886},{"name":"F#5","midi":78,"time":187.44000000000077,"velocity":0.7401574803149606,"duration":0.2400000000000091},{"name":"F#5","midi":78,"time":187.92000000000078,"velocity":0.7401574803149606,"duration":1.1999999999999886},{"name":"F#5","midi":78,"time":189.36000000000078,"velocity":0.7401574803149606,"duration":0.2400000000000091},{"name":"F#5","midi":78,"time":189.8400000000008,"velocity":0.7401574803149606,"duration":1.0800000000000125},{"name":"F#5","midi":78,"time":191.04000000000082,"velocity":0.7401574803149606,"duration":0.2400000000000091},{"name":"F#5","midi":78,"time":191.52000000000083,"velocity":0.7401574803149606,"duration":0.2400000000000091},{"name":"F#5","midi":78,"time":192.00000000000085,"velocity":0.7401574803149606,"duration":0.960000000000008},{"name":"F#5","midi":78,"time":193.20000000000087,"velocity":0.7401574803149606,"duration":0.2400000000000091},{"name":"F#5","midi":78,"time":193.6800000000009,"velocity":0.7401574803149606,"duration":1.1999999999999886},{"name":"F#5","midi":78,"time":195.12000000000089,"velocity":0.7401574803149606,"duration":0.2400000000000091},{"name":"F#5","midi":78,"time":195.6000000000009,"velocity":0.7401574803149606,"duration":1.1999999999999886},{"name":"F#5","midi":78,"time":197.0400000000009,"velocity":0.7401574803149606,"duration":0.2400000000000091},{"name":"F#5","midi":78,"time":197.52000000000092,"velocity":0.7401574803149606,"duration":1.0800000000000125},{"name":"F#5","midi":78,"time":198.72000000000094,"velocity":0.7401574803149606,"duration":0.2400000000000091},{"name":"F#5","midi":78,"time":199.20000000000095,"velocity":0.7401574803149606,"duration":0.2400000000000091},{"name":"F#5","midi":78,"time":199.68000000000097,"velocity":0.7401574803149606,"duration":0.960000000000008},{"name":"F#5","midi":78,"time":200.880000000001,"velocity":0.7401574803149606,"duration":0.2400000000000091},{"name":"F#5","midi":78,"time":201.360000000001,"velocity":0.7401574803149606,"duration":1.1999999999999886},{"name":"F#5","midi":78,"time":202.800000000001,"velocity":0.7401574803149606,"duration":0.2400000000000091},{"name":"F#5","midi":78,"time":203.28000000000102,"velocity":0.7401574803149606,"duration":1.1999999999999886},{"name":"F#5","midi":78,"time":204.72000000000102,"velocity":0.7401574803149606,"duration":0.2400000000000091},{"name":"F#5","midi":78,"time":205.20000000000104,"velocity":0.7401574803149606,"duration":1.0800000000000125},{"name":"F#5","midi":78,"time":206.40000000000106,"velocity":0.7401574803149606,"duration":0.2400000000000091},{"name":"F#5","midi":78,"time":206.88000000000108,"velocity":0.7401574803149606,"duration":0.2400000000000091},{"name":"F#5","midi":78,"time":207.3600000000011,"velocity":0.7401574803149606,"duration":0.960000000000008},{"name":"F#5","midi":78,"time":208.5600000000011,"velocity":0.7401574803149606,"duration":0.2400000000000091},{"name":"F#5","midi":78,"time":209.04000000000113,"velocity":0.7401574803149606,"duration":1.1999999999999886},{"name":"F#5","midi":78,"time":210.48000000000113,"velocity":0.7401574803149606,"duration":0.2400000000000091},{"name":"F#5","midi":78,"time":210.96000000000114,"velocity":0.7401574803149606,"duration":1.1999999999999886},{"name":"F#5","midi":78,"time":212.40000000000114,"velocity":0.7401574803149606,"duration":0.2400000000000091},{"name":"F#5","midi":78,"time":212.88000000000116,"velocity":0.7401574803149606,"duration":1.0800000000000125},{"name":"F#5","midi":78,"time":214.08000000000118,"velocity":0.7401574803149606,"duration":0.2400000000000091},{"name":"F#5","midi":78,"time":214.5600000000012,"velocity":0.7401574803149606,"duration":0.2400000000000091},{"name":"F#5","midi":78,"time":215.0400000000012,"velocity":0.7559055118110236,"duration":1.0800000000000125},{"name":"F#5","midi":78,"time":216.24000000000123,"velocity":0.6771653543307087,"duration":0.2400000000000091},{"name":"F#5","midi":78,"time":216.96000000000123,"velocity":0.6141732283464567,"duration":1.0800000000000125},{"name":"F#5","midi":78,"time":218.16000000000125,"velocity":0.5118110236220472,"duration":0.2400000000000091},{"name":"F#5","midi":78,"time":218.88000000000125,"velocity":0.4645669291338583,"duration":1.0800000000000125},{"name":"F#5","midi":78,"time":220.08000000000126,"velocity":0.36220472440944884,"duration":0.2400000000000091},{"name":"F#5","midi":78,"time":220.80000000000126,"velocity":0.31496062992125984,"duration":1.0800000000000125},{"name":"F#5","midi":78,"time":222.00000000000128,"velocity":0.2204724409448819,"duration":0.2400000000000091}]}]}
