{"bpm":100,"duration":225.6000000000017,"tracks":[{"instrumentFamily":"piano","notes":[{"name":"D4","midi":62,"time":"4.79","velocity":0.6771653543307087,"duration":"0.58"},{"name":"A4","midi":69,"time":"4.80","velocity":0.6771653543307087,"duration":"0.58"},{"name":"A3","midi":57,"time":"4.80","velocity":0.6771653543307087,"duration":"0.29"},{"name":"D3","midi":50,"time":"4.81","velocity":0.6771653543307087,"duration":"0.58"},{"name":"C4","midi":60,"time":"4.81","velocity":0.6771653543307087,"duration":"0.58"},{"name":"A3","midi":57,"time":"5.11","velocity":0.5748031496062992,"duration":"0.29"},{"name":"A3","midi":57,"time":"5.39","velocity":0.5984251968503937,"duration":"0.29"},{"name":"D3","midi":50,"time":"5.39","velocity":0.5984251968503937,"duration":"0.58"},{"name":"A4","midi":69,"time":"5.40","velocity":0.6771653543307087,"duration":"0.58"},{"name":"C4","midi":60,"time":"5.40","velocity":0.5984251968503937,"duration":"0.58"},{"name":"D4","midi":62,"time":"5.40","velocity":0.5984251968503937,"duration":"0.58"},{"name":"A3","midi":57,"time":"5.70","velocity":0.6299212598425197,"duration":"0.29"},{"name":"A4","midi":69,"time":"6.00","velocity":0.6771653543307087,"duration":"0.58"},{"name":"A3","midi":57,"time":"6.00","velocity":0.6771653543307087,"duration":"0.29"},{"name":"D3","midi":50,"time":"6.00","velocity":0.6771653543307087,"duration":"0.58"},{"name":"D4","midi":62,"time":"6.01","velocity":0.6771653543307087,"duration":"0.58"},{"name":"C4","midi":60,"time":"6.01","velocity":0.6771653543307087,"duration":"0.58"},{"name":"A3","midi":57,"time":"6.29","velocity":0.5748031496062992,"duration":"0.29"},{"name":"D3","midi":50,"time":"6.59","velocity":0.5984251968503937,"duration":"0.58"},{"name":"A4","midi":69,"time":"6.60","velocity":0.6771653543307087,"duration":"0.58"},{"name":"A3","midi":57,"time":"6.60","velocity":0.5984251968503937,"duration":"0.29"},{"name":"D4","midi":62,"time":"6.61","velocity":0.5984251968503937,"duration":"0.58"},{"name":"C4","midi":60,"time":"6.61","velocity":0.5984251968503937,"duration":"0.58"},{"name":"A3","midi":57,"time":"6.90","velocity":0.6299212598425197,"duration":"0.29"},{"name":"D4","midi":62,"time":"7.19","velocity":0.6771653543307087,"duration":"0.58"},{"name":"A#4","midi":70,"time":"7.20","velocity":0.6771653543307087,"duration":"0.58"},{"name":"A#2","midi":46,"time":"7.20","velocity":0.6771653543307087,"duration":"0.58"},{"name":"A#3","midi":58,"time":"7.20","velocity":0.6771653543307087,"duration":"0.29"},{"name":"F3","midi":53,"time":"7.21","velocity":0.6771653543307087,"duration":"0.28"},{"name":"F3","midi":53,"time":"7.50","velocity":0.5196850393700787,"duration":"0.28"},{"name":"A#3","midi":58,"time":"7.51","velocity":0.5748031496062992,"duration":"0.29"},{"name":"A#2","midi":46,"time":"7.78","velocity":0.5984251968503937,"duration":"0.58"},{"name":"A#3","midi":58,"time":"7.79","velocity":0.5984251968503937,"duration":"0.29"},{"name":"F3","midi":53,"time":"7.80","velocity":0.5984251968503937,"duration":"0.58"},{"name":"A#4","midi":70,"time":"7.80","velocity":0.6771653543307087,"duration":"0.58"},{"name":"D4","midi":62,"time":"7.81","velocity":0.5984251968503937,"duration":"0.58"},{"name":"A#3","midi":58,"time":"8.10","velocity":0.6299212598425197,"duration":"0.29"},{"name":"A#2","midi":46,"time":"8.40","velocity":0.6771653543307087,"duration":"0.58"},{"name":"A#4","midi":70,"time":"8.41","velocity":0.6771653543307087,"duration":"0.58"},{"name":"A#3","midi":58,"time":"8.41","velocity":0.6771653543307087,"duration":"0.29"},{"name":"F3","midi":53,"time":"8.41","velocity":0.6771653543307087,"duration":"0.28"},{"name":"D4","midi":62,"time":"8.42","velocity":0.6771653543307087,"duration":"0.58"},{"name":"A#3","midi":58,"time":"8.70","velocity":0.5748031496062992,"duration":"0.29"},{"name":"F3","midi":53,"time":"8.70","velocity":0.5196850393700787,"duration":"0.28"},{"name":"A#2","midi":46,"time":"8.99","velocity":0.5984251968503937,"duration":"0.58"},{"name":"A#4","midi":70,"time":"9.01","velocity":0.6771653543307087,"duration":"0.58"},{"name":"F3","midi":53,"time":"9.01","velocity":0.5984251968503937,"duration":"0.58"},{"name":"A#3","midi":58,"time":"9.01","velocity":0.5984251968503937,"duration":"0.29"},{"name":"D4","midi":62,"time":"9.02","velocity":0.5984251968503937,"duration":"0.58"},{"name":"C4","midi":60,"time":"9.31","velocity":0.8267716535433071,"duration":"0.29"},{"name":"A4","midi":69,"time":"9.60","velocity":0.6771653543307087,"duration":"0.58"},{"name":"A3","midi":57,"time":"9.60","velocity":0.6771653543307087,"duration":"0.29"},{"name":"F3","midi":53,"time":"9.61","velocity":0.6771653543307087,"duration":"0.31"},{"name":"F2","midi":41,"time":"9.61","velocity":0.6771653543307087,"duration":"0.58"},{"name":"F4","midi":65,"time":"9.61","velocity":0.48031496062992124,"duration":"0.58"},{"name":"C4","midi":60,"time":"9.61","velocity":0.6771653543307087,"duration":"0.58"},{"name":"F3","midi":53,"time":"9.90","velocity":0.6771653543307087,"duration":"0.31"},{"name":"A3","midi":57,"time":"9.91","velocity":0.5748031496062992,"duration":"0.29"},{"name":"F2","midi":41,"time":"10.19","velocity":0.5984251968503937,"duration":"0.58"},{"name":"A3","midi":57,"time":"10.19","velocity":0.5984251968503937,"duration":"0.29"},{"name":"F4","midi":65,"time":"10.20","velocity":0.4251968503937008,"duration":"0.58"},{"name":"C4","midi":60,"time":"10.20","velocity":0.5984251968503937,"duration":"0.58"},{"name":"A4","midi":69,"time":"10.20","velocity":0.6771653543307087,"duration":"0.58"},{"name":"F3","midi":53,"time":"10.20","velocity":0.5984251968503937,"duration":"0.30"},{"name":"F3","midi":53,"time":"10.50","velocity":0.5984251968503937,"duration":"0.30"},{"name":"A3","midi":57,"time":"10.50","velocity":0.6299212598425197,"duration":"0.29"},{"name":"F2","midi":41,"time":"10.80","velocity":0.6771653543307087,"duration":"0.58"},{"name":"A4","midi":69,"time":"10.80","velocity":0.6771653543307087,"duration":"0.58"},{"name":"F3","midi":53,"time":"10.80","velocity":0.6771653543307087,"duration":"0.30"},{"name":"F4","midi":65,"time":"10.81","velocity":0.48031496062992124,"duration":"0.58"},{"name":"A3","midi":57,"time":"10.81","velocity":0.6771653543307087,"duration":"0.29"},{"name":"C4","midi":60,"time":"10.81","velocity":0.6771653543307087,"duration":"0.58"},{"name":"A3","midi":57,"time":"11.10","velocity":0.5748031496062992,"duration":"0.29"},{"name":"F3","midi":53,"time":"11.10","velocity":0.5984251968503937,"duration":"0.30"},{"name":"F2","midi":41,"time":"11.39","velocity":0.5984251968503937,"duration":"0.58"},{"name":"A4","midi":69,"time":"11.40","velocity":0.6771653543307087,"duration":"0.58"},{"name":"F3","midi":53,"time":"11.40","velocity":0.5984251968503937,"duration":"0.30"},{"name":"A3","midi":57,"time":"11.41","velocity":0.5984251968503937,"duration":"0.29"},{"name":"F4","midi":65,"time":"11.41","velocity":0.4251968503937008,"duration":"0.58"},{"name":"C4","midi":60,"time":"11.41","velocity":0.5984251968503937,"duration":"0.58"},{"name":"F3","midi":53,"time":"11.70","velocity":0.5984251968503937,"duration":"0.30"},{"name":"A3","midi":57,"time":"11.70","velocity":0.6299212598425197,"duration":"0.29"},{"name":"F4","midi":65,"time":"12.00","velocity":0.5354330708661418,"duration":"0.58"},{"name":"G3","midi":55,"time":"12.00","velocity":0.6771653543307087,"duration":"0.31"},{"name":"G4","midi":67,"time":"12.01","velocity":0.6771653543307087,"duration":"0.58"},{"name":"C3","midi":48,"time":"12.01","velocity":0.6771653543307087,"duration":"0.58"},{"name":"F3","midi":53,"time":"12.01","velocity":0.6771653543307087,"duration":"0.58"},{"name":"F2","midi":41,"time":"12.02","velocity":0.6771653543307087,"duration":"0.58"},{"name":"C4","midi":60,"time":"12.02","velocity":0.6771653543307087,"duration":"0.28"},{"name":"G3","midi":55,"time":"12.31","velocity":0.6771653543307087,"duration":"0.31"},{"name":"C4","midi":60,"time":"12.31","velocity":0.6771653543307087,"duration":"0.28"},{"name":"F2","midi":41,"time":"12.60","velocity":0.5984251968503937,"duration":"0.58"},{"name":"C3","midi":48,"time":"12.60","velocity":0.5984251968503937,"duration":"0.58"},{"name":"F4","midi":65,"time":"12.60","velocity":0.5354330708661418,"duration":"0.58"},{"name":"G4","midi":67,"time":"12.61","velocity":0.6771653543307087,"duration":"0.58"},{"name":"F3","midi":53,"time":"12.61","velocity":0.6771653543307087,"duration":"0.58"},{"name":"C4","midi":60,"time":"12.61","velocity":0.5984251968503937,"duration":"0.29"},{"name":"G3","midi":55,"time":"12.62","velocity":0.6771653543307087,"duration":"0.31"},{"name":"C4","midi":60,"time":"12.90","velocity":0.5984251968503937,"duration":"0.29"},{"name":"G3","midi":55,"time":"12.91","velocity":0.5984251968503937,"duration":"0.28"},{"name":"F4","midi":65,"time":"13.21","velocity":0.5354330708661418,"duration":"0.58"},{"name":"C3","midi":48,"time":"13.21","velocity":0.6771653543307087,"duration":"0.58"},{"name":"G4","midi":67,"time":"13.21","velocity":0.6771653543307087,"duration":"0.58"},{"name":"F2","midi":41,"time":"13.21","velocity":0.6771653543307087,"duration":"0.58"},{"name":"G3","midi":55,"time":"13.22","velocity":0.5984251968503937,"duration":"0.28"},{"name":"F3","midi":53,"time":"13.22","velocity":0.6771653543307087,"duration":"0.58"},{"name":"C4","midi":60,"time":"13.22","velocity":0.6771653543307087,"duration":"0.28"},{"name":"C4","midi":60,"time":"13.50","velocity":0.6771653543307087,"duration":"0.28"},{"name":"G3","midi":55,"time":"13.51","velocity":0.5984251968503937,"duration":"0.29"},{"name":"F2","midi":41,"time":"13.80","velocity":0.5984251968503937,"duration":"0.58"},{"name":"F4","midi":65,"time":"13.81","velocity":0.5354330708661418,"duration":"0.58"},{"name":"G3","midi":55,"time":"13.81","velocity":0.5984251968503937,"duration":"0.29"},{"name":"C3","midi":48,"time":"13.81","velocity":0.5984251968503937,"duration":"0.58"},{"name":"G4","midi":67,"time":"13.81","velocity":0.6771653543307087,"duration":"0.58"},{"name":"F3","midi":53,"time":"13.81","velocity":0.6771653543307087,"duration":"0.58"},{"name":"C4","midi":60,"time":"13.82","velocity":0.5984251968503937,"duration":"0.28"},{"name":"C4","midi":60,"time":"14.10","velocity":0.5984251968503937,"duration":"0.28"},{"name":"G3","midi":55,"time":"14.11","velocity":0.5984251968503937,"duration":"0.30"},{"name":"D4","midi":62,"time":"14.40","velocity":0.6771653543307087,"duration":"0.58"},{"name":"A4","midi":69,"time":"14.41","velocity":0.6771653543307087,"duration":"0.58"},{"name":"A3","midi":57,"time":"14.41","velocity":0.6771653543307087,"duration":"0.29"},{"name":"D3","midi":50,"time":"14.42","velocity":0.6771653543307087,"duration":"0.58"},{"name":"C4","midi":60,"time":"14.42","velocity":0.6771653543307087,"duration":"0.58"},{"name":"A3","midi":57,"time":"14.72","velocity":0.5748031496062992,"duration":"0.29"},{"name":"A3","midi":57,"time":"15.00","velocity":0.5984251968503937,"duration":"0.29"},{"name":"D3","midi":50,"time":"15.00","velocity":0.5984251968503937,"duration":"0.58"},{"name":"A4","midi":69,"time":"15.01","velocity":0.6771653543307087,"duration":"0.58"},{"name":"C4","midi":60,"time":"15.01","velocity":0.5984251968503937,"duration":"0.58"},{"name":"D4","midi":62,"time":"15.01","velocity":0.5984251968503937,"duration":"0.58"},{"name":"A3","midi":57,"time":"15.31","velocity":0.6299212598425197,"duration":"0.29"},{"name":"A4","midi":69,"time":"15.61","velocity":0.6771653543307087,"duration":"0.58"},{"name":"A3","midi":57,"time":"15.61","velocity":0.6771653543307087,"duration":"0.29"},{"name":"D3","midi":50,"time":"15.61","velocity":0.6771653543307087,"duration":"0.58"},{"name":"D4","midi":62,"time":"15.62","velocity":0.6771653543307087,"duration":"0.58"},{"name":"C4","midi":60,"time":"15.62","velocity":0.6771653543307087,"duration":"0.58"},{"name":"A3","midi":57,"time":"15.90","velocity":0.5748031496062992,"duration":"0.29"},{"name":"D3","midi":50,"time":"16.20","velocity":0.5984251968503937,"duration":"0.58"},{"name":"A4","midi":69,"time":"16.21","velocity":0.6771653543307087,"duration":"0.58"},{"name":"A3","midi":57,"time":"16.21","velocity":0.5984251968503937,"duration":"0.29"},{"name":"D4","midi":62,"time":"16.22","velocity":0.5984251968503937,"duration":"0.58"},{"name":"C4","midi":60,"time":"16.22","velocity":0.5984251968503937,"duration":"0.58"},{"name":"A3","midi":57,"time":"16.51","velocity":0.6299212598425197,"duration":"0.29"},{"name":"D4","midi":62,"time":"16.80","velocity":0.6771653543307087,"duration":"0.58"},{"name":"A#4","midi":70,"time":"16.81","velocity":0.6771653543307087,"duration":"0.58"},{"name":"A#2","midi":46,"time":"16.81","velocity":0.6771653543307087,"duration":"0.58"},{"name":"A#3","midi":58,"time":"16.81","velocity":0.6771653543307087,"duration":"0.29"},{"name":"F3","midi":53,"time":"16.82","velocity":0.6771653543307087,"duration":"0.28"},{"name":"F3","midi":53,"time":"17.11","velocity":0.5196850393700787,"duration":"0.28"},{"name":"A#3","midi":58,"time":"17.12","velocity":0.5748031496062992,"duration":"0.29"},{"name":"A#2","midi":46,"time":"17.39","velocity":0.5984251968503937,"duration":"0.58"},{"name":"A#3","midi":58,"time":"17.40","velocity":0.5984251968503937,"duration":"0.29"},{"name":"F3","midi":53,"time":"17.41","velocity":0.5984251968503937,"duration":"0.58"},{"name":"A#4","midi":70,"time":"17.41","velocity":0.6771653543307087,"duration":"0.58"},{"name":"D4","midi":62,"time":"17.42","velocity":0.5984251968503937,"duration":"0.58"},{"name":"A#3","midi":58,"time":"17.71","velocity":0.6299212598425197,"duration":"0.29"},{"name":"A#2","midi":46,"time":"18.01","velocity":0.6771653543307087,"duration":"0.58"},{"name":"A#4","midi":70,"time":"18.01","velocity":0.6771653543307087,"duration":"0.58"},{"name":"A#3","midi":58,"time":"18.02","velocity":0.6771653543307087,"duration":"0.29"},{"name":"F3","midi":53,"time":"18.02","velocity":0.6771653543307087,"duration":"0.28"},{"name":"D4","midi":62,"time":"18.02","velocity":0.6771653543307087,"duration":"0.58"},{"name":"A#3","midi":58,"time":"18.31","velocity":0.5748031496062992,"duration":"0.29"},{"name":"F3","midi":53,"time":"18.31","velocity":0.5196850393700787,"duration":"0.28"},{"name":"A#2","midi":46,"time":"18.59","velocity":0.5984251968503937,"duration":"0.58"},{"name":"A#4","midi":70,"time":"18.61","velocity":0.6771653543307087,"duration":"0.58"},{"name":"F3","midi":53,"time":"18.62","velocity":0.5984251968503937,"duration":"0.58"},{"name":"A#3","midi":58,"time":"18.62","velocity":0.5984251968503937,"duration":"0.29"},{"name":"D4","midi":62,"time":"18.62","velocity":0.5984251968503937,"duration":"0.58"},{"name":"C4","midi":60,"time":"18.91","velocity":0.8267716535433071,"duration":"0.29"},{"name":"A4","midi":69,"time":"19.21","velocity":0.6771653543307087,"duration":"0.58"},{"name":"A3","midi":57,"time":"19.21","velocity":0.6771653543307087,"duration":"0.29"},{"name":"F3","midi":53,"time":"19.21","velocity":0.6771653543307087,"duration":"0.31"},{"name":"F2","midi":41,"time":"19.21","velocity":0.6771653543307087,"duration":"0.58"},{"name":"F4","midi":65,"time":"19.21","velocity":0.48031496062992124,"duration":"0.58"},{"name":"C4","midi":60,"time":"19.22","velocity":0.6771653543307087,"duration":"0.58"},{"name":"F3","midi":53,"time":"19.51","velocity":0.6771653543307087,"duration":"0.30"},{"name":"A3","midi":57,"time":"19.52","velocity":0.5748031496062992,"duration":"0.29"},{"name":"F2","midi":41,"time":"19.79","velocity":0.5984251968503937,"duration":"0.58"},{"name":"A3","midi":57,"time":"19.80","velocity":0.5984251968503937,"duration":"0.29"},{"name":"F4","midi":65,"time":"19.80","velocity":0.4251968503937008,"duration":"0.58"},{"name":"C4","midi":60,"time":"19.81","velocity":0.5984251968503937,"duration":"0.58"},{"name":"A4","midi":69,"time":"19.81","velocity":0.6771653543307087,"duration":"0.58"},{"name":"F3","midi":53,"time":"19.81","velocity":0.5984251968503937,"duration":"0.30"},{"name":"F3","midi":53,"time":"20.11","velocity":0.5984251968503937,"duration":"0.30"},{"name":"A3","midi":57,"time":"20.11","velocity":0.6299212598425197,"duration":"0.29"},{"name":"F2","midi":41,"time":"20.41","velocity":0.6771653543307087,"duration":"0.58"},{"name":"A4","midi":69,"time":"20.41","velocity":0.6771653543307087,"duration":"0.58"},{"name":"F3","midi":53,"time":"20.41","velocity":0.6771653543307087,"duration":"0.30"},{"name":"F4","midi":65,"time":"20.41","velocity":0.48031496062992124,"duration":"0.58"},{"name":"A3","midi":57,"time":"20.41","velocity":0.6771653543307087,"duration":"0.29"},{"name":"C4","midi":60,"time":"20.42","velocity":0.6771653543307087,"duration":"0.58"},{"name":"A3","midi":57,"time":"20.70","velocity":0.5748031496062992,"duration":"0.29"},{"name":"F3","midi":53,"time":"20.71","velocity":0.5984251968503937,"duration":"0.30"},{"name":"F2","midi":41,"time":"20.99","velocity":0.5984251968503937,"duration":"0.58"},{"name":"A4","midi":69,"time":"21.01","velocity":0.6771653543307087,"duration":"0.58"},{"name":"F3","midi":53,"time":"21.01","velocity":0.5984251968503937,"duration":"0.30"},{"name":"A3","midi":57,"time":"21.01","velocity":0.5984251968503937,"duration":"0.29"},{"name":"F4","midi":65,"time":"21.01","velocity":0.4251968503937008,"duration":"0.58"},{"name":"C4","midi":60,"time":"21.02","velocity":0.5984251968503937,"duration":"0.58"},{"name":"F3","midi":53,"time":"21.31","velocity":0.5984251968503937,"duration":"0.30"},{"name":"A3","midi":57,"time":"21.31","velocity":0.6299212598425197,"duration":"0.29"},{"name":"F4","midi":65,"time":"21.60","velocity":0.5354330708661418,"duration":"0.58"},{"name":"G3","midi":55,"time":"21.61","velocity":0.6771653543307087,"duration":"0.30"},{"name":"G4","midi":67,"time":"21.61","velocity":0.6771653543307087,"duration":"0.58"},{"name":"C3","midi":48,"time":"21.61","velocity":0.6771653543307087,"duration":"0.58"},{"name":"F3","midi":53,"time":"21.62","velocity":0.6771653543307087,"duration":"0.58"},{"name":"F2","midi":41,"time":"21.62","velocity":0.6771653543307087,"duration":"0.58"},{"name":"C4","midi":60,"time":"21.63","velocity":0.6771653543307087,"duration":"0.28"},{"name":"G3","midi":55,"time":"21.92","velocity":0.6771653543307087,"duration":"0.30"},{"name":"C4","midi":60,"time":"21.92","velocity":0.6771653543307087,"duration":"0.28"},{"name":"F2","midi":41,"time":"22.20","velocity":0.5984251968503937,"duration":"0.58"},{"name":"C3","midi":48,"time":"22.20","velocity":0.5984251968503937,"duration":"0.58"},{"name":"F4","midi":65,"time":"22.21","velocity":0.5354330708661418,"duration":"0.58"},{"name":"G4","midi":67,"time":"22.21","velocity":0.6771653543307087,"duration":"0.58"},{"name":"F3","midi":53,"time":"22.22","velocity":0.6771653543307087,"duration":"0.58"},{"name":"C4","midi":60,"time":"22.22","velocity":0.5984251968503937,"duration":"0.29"},{"name":"G3","midi":55,"time":"22.23","velocity":0.6771653543307087,"duration":"0.31"},{"name":"C4","midi":60,"time":"22.51","velocity":0.5984251968503937,"duration":"0.29"},{"name":"G3","midi":55,"time":"22.52","velocity":0.5984251968503937,"duration":"0.28"},{"name":"F4","midi":65,"time":"22.81","velocity":0.5354330708661418,"duration":"0.58"},{"name":"C3","midi":48,"time":"22.81","velocity":0.6771653543307087,"duration":"0.58"},{"name":"G4","midi":67,"time":"22.81","velocity":0.6771653543307087,"duration":"0.58"},{"name":"F2","midi":41,"time":"22.82","velocity":0.6771653543307087,"duration":"0.58"},{"name":"G3","midi":55,"time":"22.82","velocity":0.5984251968503937,"duration":"0.28"},{"name":"F3","midi":53,"time":"22.82","velocity":0.6771653543307087,"duration":"0.58"},{"name":"C4","midi":60,"time":"22.83","velocity":0.6771653543307087,"duration":"0.28"},{"name":"C4","midi":60,"time":"23.11","velocity":0.6771653543307087,"duration":"0.28"},{"name":"G3","midi":55,"time":"23.12","velocity":0.5984251968503937,"duration":"0.28"},{"name":"F2","midi":41,"time":"23.40","velocity":0.5984251968503937,"duration":"0.58"},{"name":"F4","midi":65,"time":"23.41","velocity":0.5354330708661418,"duration":"0.58"},{"name":"G3","midi":55,"time":"23.41","velocity":0.5984251968503937,"duration":"0.29"},{"name":"C3","midi":48,"time":"23.41","velocity":0.5984251968503937,"duration":"0.58"},{"name":"G4","midi":67,"time":"23.41","velocity":0.6771653543307087,"duration":"0.58"},{"name":"F3","midi":53,"time":"23.42","velocity":0.6771653543307087,"duration":"0.58"},{"name":"C4","midi":60,"time":"23.43","velocity":0.5984251968503937,"duration":"0.28"},{"name":"C4","midi":60,"time":"23.71","velocity":0.5984251968503937,"duration":"0.28"},{"name":"G3","midi":55,"time":"23.72","velocity":0.5984251968503937,"duration":"0.27"},{"name":"D4","midi":62,"time":"24.00","velocity":0.6771653543307087,"duration":"0.58"},{"name":"A4","midi":69,"time":"24.01","velocity":0.6771653543307087,"duration":"0.58"},{"name":"A3","midi":57,"time":"24.01","velocity":0.6771653543307087,"duration":"0.29"},{"name":"D3","midi":50,"time":"24.02","velocity":0.6771653543307087,"duration":"0.58"},{"name":"C4","midi":60,"time":"24.02","velocity":0.6771653543307087,"duration":"0.58"},{"name":"A3","midi":57,"time":"24.32","velocity":0.5748031496062992,"duration":"0.29"},{"name":"A3","midi":57,"time":"24.60","velocity":0.5984251968503937,"duration":"0.29"},{"name":"D3","midi":50,"time":"24.60","velocity":0.5984251968503937,"duration":"0.58"},{"name":"A4","midi":69,"time":"24.61","velocity":0.6771653543307087,"duration":"0.58"},{"name":"C4","midi":60,"time":"24.61","velocity":0.5984251968503937,"duration":"0.58"},{"name":"D4","midi":62,"time":"24.61","velocity":0.5984251968503937,"duration":"0.58"},{"name":"A3","midi":57,"time":"24.91","velocity":0.6299212598425197,"duration":"0.29"},{"name":"A4","midi":69,"time":"25.21","velocity":0.6771653543307087,"duration":"0.58"},{"name":"A3","midi":57,"time":"25.21","velocity":0.6771653543307087,"duration":"0.29"},{"name":"D3","midi":50,"time":"25.21","velocity":0.6771653543307087,"duration":"0.58"},{"name":"D4","midi":62,"time":"25.22","velocity":0.6771653543307087,"duration":"0.58"},{"name":"C4","midi":60,"time":"25.22","velocity":0.6771653543307087,"duration":"0.58"},{"name":"A3","midi":57,"time":"25.50","velocity":0.5748031496062992,"duration":"0.29"},{"name":"D3","midi":50,"time":"25.80","velocity":0.5984251968503937,"duration":"0.58"},{"name":"A4","midi":69,"time":"25.81","velocity":0.6771653543307087,"duration":"0.58"},{"name":"A3","midi":57,"time":"25.81","velocity":0.5984251968503937,"duration":"0.29"},{"name":"D4","midi":62,"time":"25.82","velocity":0.5984251968503937,"duration":"0.58"},{"name":"C4","midi":60,"time":"25.82","velocity":0.5984251968503937,"duration":"0.58"},{"name":"A3","midi":57,"time":"26.11","velocity":0.6299212598425197,"duration":"0.29"},{"name":"D4","midi":62,"time":"26.40","velocity":0.6771653543307087,"duration":"0.58"},{"name":"A#4","midi":70,"time":"26.41","velocity":0.6771653543307087,"duration":"0.58"},{"name":"A#2","midi":46,"time":"26.41","velocity":0.6771653543307087,"duration":"0.58"},{"name":"A#3","midi":58,"time":"26.41","velocity":0.6771653543307087,"duration":"0.29"},{"name":"F3","midi":53,"time":"26.42","velocity":0.6771653543307087,"duration":"0.28"},{"name":"F3","midi":53,"time":"26.71","velocity":0.5196850393700787,"duration":"0.28"},{"name":"A#3","midi":58,"time":"26.72","velocity":0.5748031496062992,"duration":"0.29"},{"name":"A#2","midi":46,"time":"26.99","velocity":0.5984251968503937,"duration":"0.58"},{"name":"A#3","midi":58,"time":"27.00","velocity":0.5984251968503937,"duration":"0.29"},{"name":"F3","midi":53,"time":"27.01","velocity":0.5984251968503937,"duration":"0.58"},{"name":"A#4","midi":70,"time":"27.01","velocity":0.6771653543307087,"duration":"0.58"},{"name":"D4","midi":62,"time":"27.02","velocity":0.5984251968503937,"duration":"0.58"},{"name":"A#3","midi":58,"time":"27.31","velocity":0.6299212598425197,"duration":"0.29"},{"name":"A#2","midi":46,"time":"27.61","velocity":0.6771653543307087,"duration":"0.58"},{"name":"A#4","midi":70,"time":"27.61","velocity":0.6771653543307087,"duration":"0.58"},{"name":"A#3","midi":58,"time":"27.62","velocity":0.6771653543307087,"duration":"0.29"},{"name":"F3","midi":53,"time":"27.62","velocity":0.6771653543307087,"duration":"0.27"},{"name":"D4","midi":62,"time":"27.62","velocity":0.6771653543307087,"duration":"0.58"},{"name":"A#3","midi":58,"time":"27.91","velocity":0.5748031496062992,"duration":"0.29"},{"name":"F3","midi":53,"time":"27.91","velocity":0.5196850393700787,"duration":"0.27"},{"name":"A#2","midi":46,"time":"28.19","velocity":0.5984251968503937,"duration":"0.58"},{"name":"A#4","midi":70,"time":"28.21","velocity":0.6771653543307087,"duration":"0.58"},{"name":"F3","midi":53,"time":"28.22","velocity":0.5984251968503937,"duration":"0.58"},{"name":"A#3","midi":58,"time":"28.22","velocity":0.5984251968503937,"duration":"0.29"},{"name":"D4","midi":62,"time":"28.22","velocity":0.5984251968503937,"duration":"0.58"},{"name":"C4","midi":60,"time":"28.51","velocity":0.8267716535433071,"duration":"0.29"},{"name":"A4","midi":69,"time":"28.81","velocity":0.6771653543307087,"duration":"0.58"},{"name":"A3","midi":57,"time":"28.81","velocity":0.6771653543307087,"duration":"0.29"},{"name":"F3","midi":53,"time":"28.81","velocity":0.6771653543307087,"duration":"0.31"},{"name":"F2","midi":41,"time":"28.81","velocity":0.6771653543307087,"duration":"0.58"},{"name":"F4","midi":65,"time":"28.81","velocity":0.48031496062992124,"duration":"0.58"},{"name":"C4","midi":60,"time":"28.82","velocity":0.6771653543307087,"duration":"0.58"},{"name":"F3","midi":53,"time":"29.11","velocity":0.6771653543307087,"duration":"0.30"},{"name":"A3","midi":57,"time":"29.12","velocity":0.5748031496062992,"duration":"0.29"},{"name":"F2","midi":41,"time":"29.39","velocity":0.5984251968503937,"duration":"0.58"},{"name":"A3","midi":57,"time":"29.40","velocity":0.5984251968503937,"duration":"0.29"},{"name":"F4","midi":65,"time":"29.40","velocity":0.4251968503937008,"duration":"0.58"},{"name":"C4","midi":60,"time":"29.41","velocity":0.5984251968503937,"duration":"0.58"},{"name":"A4","midi":69,"time":"29.41","velocity":0.6771653543307087,"duration":"0.58"},{"name":"F3","midi":53,"time":"29.41","velocity":0.5984251968503937,"duration":"0.30"},{"name":"F3","midi":53,"time":"29.71","velocity":0.5984251968503937,"duration":"0.30"},{"name":"A3","midi":57,"time":"29.71","velocity":0.6299212598425197,"duration":"0.29"},{"name":"F2","midi":41,"time":"30.01","velocity":0.6771653543307087,"duration":"0.58"},{"name":"A4","midi":69,"time":"30.01","velocity":0.6771653543307087,"duration":"0.58"},{"name":"F3","midi":53,"time":"30.01","velocity":0.6771653543307087,"duration":"0.30"},{"name":"F4","midi":65,"time":"30.01","velocity":0.48031496062992124,"duration":"0.58"},{"name":"A3","midi":57,"time":"30.01","velocity":0.6771653543307087,"duration":"0.29"},{"name":"C4","midi":60,"time":"30.02","velocity":0.6771653543307087,"duration":"0.58"},{"name":"A3","midi":57,"time":"30.30","velocity":0.5748031496062992,"duration":"0.29"},{"name":"F3","midi":53,"time":"30.31","velocity":0.5984251968503937,"duration":"0.30"},{"name":"F2","midi":41,"time":"30.59","velocity":0.5984251968503937,"duration":"0.58"},{"name":"A4","midi":69,"time":"30.61","velocity":0.6771653543307087,"duration":"0.58"},{"name":"F3","midi":53,"time":"30.61","velocity":0.5984251968503937,"duration":"0.30"},{"name":"A3","midi":57,"time":"30.61","velocity":0.5984251968503937,"duration":"0.29"},{"name":"F4","midi":65,"time":"30.61","velocity":0.4251968503937008,"duration":"0.58"},{"name":"C4","midi":60,"time":"30.62","velocity":0.5984251968503937,"duration":"0.58"},{"name":"F3","midi":53,"time":"30.91","velocity":0.5984251968503937,"duration":"0.30"},{"name":"A3","midi":57,"time":"30.91","velocity":0.6299212598425197,"duration":"0.29"},{"name":"F4","midi":65,"time":"31.20","velocity":0.5354330708661418,"duration":"0.58"},{"name":"G3","midi":55,"time":"31.21","velocity":0.6771653543307087,"duration":"0.30"},{"name":"G4","midi":67,"time":"31.21","velocity":0.6771653543307087,"duration":"0.58"},{"name":"C3","midi":48,"time":"31.21","velocity":0.6771653543307087,"duration":"0.58"},{"name":"F3","midi":53,"time":"31.22","velocity":0.6771653543307087,"duration":"0.58"},{"name":"F2","midi":41,"time":"31.22","velocity":0.6771653543307087,"duration":"0.58"},{"name":"C4","midi":60,"time":"31.23","velocity":0.6771653543307087,"duration":"0.28"},{"name":"G3","midi":55,"time":"31.52","velocity":0.6771653543307087,"duration":"0.30"},{"name":"C4","midi":60,"time":"31.52","velocity":0.6771653543307087,"duration":"0.28"},{"name":"F2","midi":41,"time":"31.80","velocity":0.5984251968503937,"duration":"0.58"},{"name":"C3","midi":48,"time":"31.80","velocity":0.5984251968503937,"duration":"0.58"},{"name":"F4","midi":65,"time":"31.81","velocity":0.5354330708661418,"duration":"0.58"},{"name":"G4","midi":67,"time":"31.81","velocity":0.6771653543307087,"duration":"0.58"},{"name":"F3","midi":53,"time":"31.82","velocity":0.6771653543307087,"duration":"0.58"},{"name":"C4","midi":60,"time":"31.82","velocity":0.5984251968503937,"duration":"0.29"},{"name":"G3","midi":55,"time":"31.82","velocity":0.6771653543307087,"duration":"0.30"},{"name":"C4","midi":60,"time":"32.10","velocity":0.5984251968503937,"duration":"0.29"},{"name":"G3","midi":55,"time":"32.11","velocity":0.5984251968503937,"duration":"0.28"},{"name":"F4","midi":65,"time":"32.41","velocity":0.5354330708661418,"duration":"0.58"},{"name":"C3","midi":48,"time":"32.41","velocity":0.6771653543307087,"duration":"0.58"},{"name":"G4","midi":67,"time":"32.41","velocity":0.6771653543307087,"duration":"0.58"},{"name":"F2","midi":41,"time":"32.42","velocity":0.6771653543307087,"duration":"0.58"},{"name":"G3","midi":55,"time":"32.42","velocity":0.5984251968503937,"duration":"0.28"},{"name":"F3","midi":53,"time":"32.42","velocity":0.6771653543307087,"duration":"0.58"},{"name":"C4","midi":60,"time":"32.43","velocity":0.6771653543307087,"duration":"0.28"},{"name":"C4","midi":60,"time":"32.71","velocity":0.6771653543307087,"duration":"0.28"},{"name":"G3","midi":55,"time":"32.72","velocity":0.5984251968503937,"duration":"0.29"},{"name":"F2","midi":41,"time":"33.00","velocity":0.5984251968503937,"duration":"0.58"},{"name":"F4","midi":65,"time":"33.01","velocity":0.5354330708661418,"duration":"0.58"},{"name":"G3","midi":55,"time":"33.01","velocity":0.5984251968503937,"duration":"0.29"},{"name":"C3","midi":48,"time":"33.01","velocity":0.5984251968503937,"duration":"0.58"},{"name":"G4","midi":67,"time":"33.01","velocity":0.6771653543307087,"duration":"0.58"},{"name":"F3","midi":53,"time":"33.02","velocity":0.6771653543307087,"duration":"0.58"},{"name":"C4","midi":60,"time":"33.03","velocity":0.5984251968503937,"duration":"0.28"},{"name":"C4","midi":60,"time":"33.31","velocity":0.5984251968503937,"duration":"0.28"},{"name":"G3","midi":55,"time":"33.32","velocity":0.5984251968503937,"duration":"0.30"},{"name":"D4","midi":62,"time":"33.60","velocity":0.6771653543307087,"duration":"0.58"},{"name":"A4","midi":69,"time":"33.61","velocity":0.6771653543307087,"duration":"0.58"},{"name":"A3","midi":57,"time":"33.61","velocity":0.6771653543307087,"duration":"0.29"},{"name":"D3","midi":50,"time":"33.62","velocity":0.6771653543307087,"duration":"0.58"},{"name":"C4","midi":60,"time":"33.62","velocity":0.6771653543307087,"duration":"0.58"},{"name":"A3","midi":57,"time":"33.92","velocity":0.5748031496062992,"duration":"0.29"},{"name":"A3","midi":57,"time":"34.20","velocity":0.5984251968503937,"duration":"0.29"},{"name":"D3","midi":50,"time":"34.20","velocity":0.5984251968503937,"duration":"0.58"},{"name":"A4","midi":69,"time":"34.21","velocity":0.6771653543307087,"duration":"0.58"},{"name":"C4","midi":60,"time":"34.21","velocity":0.5984251968503937,"duration":"0.58"},{"name":"D4","midi":62,"time":"34.21","velocity":0.5984251968503937,"duration":"0.58"},{"name":"A3","midi":57,"time":"34.51","velocity":0.6299212598425197,"duration":"0.29"},{"name":"A4","midi":69,"time":"34.81","velocity":0.6771653543307087,"duration":"0.58"},{"name":"A3","midi":57,"time":"34.81","velocity":0.6771653543307087,"duration":"0.29"},{"name":"D3","midi":50,"time":"34.81","velocity":0.6771653543307087,"duration":"0.58"},{"name":"D4","midi":62,"time":"34.82","velocity":0.6771653543307087,"duration":"0.58"},{"name":"C4","midi":60,"time":"34.82","velocity":0.6771653543307087,"duration":"0.58"},{"name":"A3","midi":57,"time":"35.10","velocity":0.5748031496062992,"duration":"0.29"},{"name":"D3","midi":50,"time":"35.40","velocity":0.5984251968503937,"duration":"0.58"},{"name":"A4","midi":69,"time":"35.41","velocity":0.6771653543307087,"duration":"0.58"},{"name":"A3","midi":57,"time":"35.41","velocity":0.5984251968503937,"duration":"0.29"},{"name":"D4","midi":62,"time":"35.42","velocity":0.5984251968503937,"duration":"0.58"},{"name":"C4","midi":60,"time":"35.42","velocity":0.5984251968503937,"duration":"0.58"},{"name":"A3","midi":57,"time":"35.71","velocity":0.6299212598425197,"duration":"0.29"},{"name":"D4","midi":62,"time":"36.00","velocity":0.6771653543307087,"duration":"0.58"},{"name":"A#4","midi":70,"time":"36.01","velocity":0.6771653543307087,"duration":"0.58"},{"name":"A#2","midi":46,"time":"36.01","velocity":0.6771653543307087,"duration":"0.58"},{"name":"A#3","midi":58,"time":"36.01","velocity":0.6771653543307087,"duration":"0.29"},{"name":"F3","midi":53,"time":"36.02","velocity":0.6771653543307087,"duration":"0.28"},{"name":"F3","midi":53,"time":"36.31","velocity":0.5196850393700787,"duration":"0.28"},{"name":"A#3","midi":58,"time":"36.32","velocity":0.5748031496062992,"duration":"0.29"},{"name":"A#2","midi":46,"time":"36.59","velocity":0.5984251968503937,"duration":"0.58"},{"name":"A#3","midi":58,"time":"36.60","velocity":0.5984251968503937,"duration":"0.29"},{"name":"F3","midi":53,"time":"36.61","velocity":0.5984251968503937,"duration":"0.58"},{"name":"A#4","midi":70,"time":"36.61","velocity":0.6771653543307087,"duration":"0.58"},{"name":"D4","midi":62,"time":"36.62","velocity":0.5984251968503937,"duration":"0.58"},{"name":"A#3","midi":58,"time":"36.91","velocity":0.6299212598425197,"duration":"0.29"},{"name":"A#2","midi":46,"time":"37.21","velocity":0.6771653543307087,"duration":"0.58"},{"name":"A#4","midi":70,"time":"37.21","velocity":0.6771653543307087,"duration":"0.58"},{"name":"A#3","midi":58,"time":"37.22","velocity":0.6771653543307087,"duration":"0.29"},{"name":"F3","midi":53,"time":"37.22","velocity":0.6771653543307087,"duration":"0.28"},{"name":"D4","midi":62,"time":"37.22","velocity":0.6771653543307087,"duration":"0.58"},{"name":"A#3","midi":58,"time":"37.51","velocity":0.5748031496062992,"duration":"0.29"},{"name":"F3","midi":53,"time":"37.51","velocity":0.5196850393700787,"duration":"0.27"},{"name":"A#2","midi":46,"time":"37.79","velocity":0.5984251968503937,"duration":"0.58"},{"name":"A#4","midi":70,"time":"37.81","velocity":0.6771653543307087,"duration":"0.58"},{"name":"F3","midi":53,"time":"37.82","velocity":0.5984251968503937,"duration":"0.58"},{"name":"A#3","midi":58,"time":"37.82","velocity":0.5984251968503937,"duration":"0.29"},{"name":"D4","midi":62,"time":"37.82","velocity":0.5984251968503937,"duration":"0.58"},{"name":"C4","midi":60,"time":"38.11","velocity":0.8267716535433071,"duration":"0.29"},{"name":"A4","midi":69,"time":"38.41","velocity":0.6771653543307087,"duration":"0.58"},{"name":"A3","midi":57,"time":"38.41","velocity":0.6771653543307087,"duration":"0.29"},{"name":"F3","midi":53,"time":"38.41","velocity":0.6771653543307087,"duration":"0.30"},{"name":"F2","midi":41,"time":"38.41","velocity":0.6771653543307087,"duration":"0.58"},{"name":"F4","midi":65,"time":"38.41","velocity":0.48031496062992124,"duration":"0.58"},{"name":"C4","midi":60,"time":"38.42","velocity":0.6771653543307087,"duration":"0.58"},{"name":"F3","midi":53,"time":"38.71","velocity":0.6771653543307087,"duration":"0.31"},{"name":"A3","midi":57,"time":"38.72","velocity":0.5748031496062992,"duration":"0.29"},{"name":"F2","midi":41,"time":"38.99","velocity":0.5984251968503937,"duration":"0.58"},{"name":"A3","midi":57,"time":"39.00","velocity":0.5984251968503937,"duration":"0.29"},{"name":"F4","midi":65,"time":"39.00","velocity":0.4251968503937008,"duration":"0.58"},{"name":"C4","midi":60,"time":"39.01","velocity":0.5984251968503937,"duration":"0.58"},{"name":"A4","midi":69,"time":"39.01","velocity":0.6771653543307087,"duration":"0.58"},{"name":"F3","midi":53,"time":"39.01","velocity":0.5984251968503937,"duration":"0.30"},{"name":"F3","midi":53,"time":"39.31","velocity":0.5984251968503937,"duration":"0.30"},{"name":"A3","midi":57,"time":"39.31","velocity":0.6299212598425197,"duration":"0.29"},{"name":"F2","midi":41,"time":"39.61","velocity":0.6771653543307087,"duration":"0.58"},{"name":"A4","midi":69,"time":"39.61","velocity":0.6771653543307087,"duration":"0.58"},{"name":"F3","midi":53,"time":"39.61","velocity":0.6771653543307087,"duration":"0.30"},{"name":"F4","midi":65,"time":"39.61","velocity":0.48031496062992124,"duration":"0.58"},{"name":"A3","midi":57,"time":"39.61","velocity":0.6771653543307087,"duration":"0.29"},{"name":"C4","midi":60,"time":"39.62","velocity":0.6771653543307087,"duration":"0.58"},{"name":"A3","midi":57,"time":"39.90","velocity":0.5748031496062992,"duration":"0.29"},{"name":"F3","midi":53,"time":"39.91","velocity":0.5984251968503937,"duration":"0.30"},{"name":"F2","midi":41,"time":"40.19","velocity":0.5984251968503937,"duration":"0.58"},{"name":"A4","midi":69,"time":"40.21","velocity":0.6771653543307087,"duration":"0.58"},{"name":"F3","midi":53,"time":"40.21","velocity":0.5984251968503937,"duration":"0.30"},{"name":"A3","midi":57,"time":"40.21","velocity":0.5984251968503937,"duration":"0.29"},{"name":"F4","midi":65,"time":"40.21","velocity":0.4251968503937008,"duration":"0.58"},{"name":"C4","midi":60,"time":"40.22","velocity":0.5984251968503937,"duration":"0.58"},{"name":"F3","midi":53,"time":"40.51","velocity":0.5984251968503937,"duration":"0.30"},{"name":"A3","midi":57,"time":"40.51","velocity":0.6299212598425197,"duration":"0.29"},{"name":"F4","midi":65,"time":"40.80","velocity":0.5354330708661418,"duration":"0.58"},{"name":"G3","midi":55,"time":"40.81","velocity":0.6771653543307087,"duration":"0.31"},{"name":"G4","midi":67,"time":"40.81","velocity":0.6771653543307087,"duration":"0.58"},{"name":"C3","midi":48,"time":"40.81","velocity":0.6771653543307087,"duration":"0.58"},{"name":"F3","midi":53,"time":"40.82","velocity":0.6771653543307087,"duration":"0.58"},{"name":"F2","midi":41,"time":"40.82","velocity":0.6771653543307087,"duration":"0.58"},{"name":"C4","midi":60,"time":"40.83","velocity":0.6771653543307087,"duration":"0.28"},{"name":"G3","midi":55,"time":"41.12","velocity":0.6771653543307087,"duration":"0.31"},{"name":"C4","midi":60,"time":"41.12","velocity":0.6771653543307087,"duration":"0.28"},{"name":"F2","midi":41,"time":"41.40","velocity":0.5984251968503937,"duration":"0.58"},{"name":"C3","midi":48,"time":"41.40","velocity":0.5984251968503937,"duration":"0.58"},{"name":"F4","midi":65,"time":"41.41","velocity":0.5354330708661418,"duration":"0.58"},{"name":"G4","midi":67,"time":"41.41","velocity":0.6771653543307087,"duration":"0.58"},{"name":"F3","midi":53,"time":"41.42","velocity":0.6771653543307087,"duration":"0.58"},{"name":"C4","midi":60,"time":"41.42","velocity":0.5984251968503937,"duration":"0.29"},{"name":"G3","midi":55,"time":"41.43","velocity":0.6771653543307087,"duration":"0.30"},{"name":"C4","midi":60,"time":"41.71","velocity":0.5984251968503937,"duration":"0.29"},{"name":"G3","midi":55,"time":"41.72","velocity":0.5984251968503937,"duration":"0.28"},{"name":"F4","midi":65,"time":"42.01","velocity":0.5354330708661418,"duration":"0.58"},{"name":"C3","midi":48,"time":"42.01","velocity":0.6771653543307087,"duration":"0.58"},{"name":"G4","midi":67,"time":"42.01","velocity":0.6771653543307087,"duration":"0.58"},{"name":"F2","midi":41,"time":"42.02","velocity":0.6771653543307087,"duration":"0.58"},{"name":"G3","midi":55,"time":"42.02","velocity":0.5984251968503937,"duration":"0.28"},{"name":"F3","midi":53,"time":"42.02","velocity":0.6771653543307087,"duration":"0.58"},{"name":"C4","midi":60,"time":"42.03","velocity":0.6771653543307087,"duration":"0.28"},{"name":"C4","midi":60,"time":"42.31","velocity":0.6771653543307087,"duration":"0.28"},{"name":"G3","midi":55,"time":"42.32","velocity":0.5984251968503937,"duration":"0.29"},{"name":"F2","midi":41,"time":"42.60","velocity":0.5984251968503937,"duration":"0.58"},{"name":"F4","midi":65,"time":"42.61","velocity":0.5354330708661418,"duration":"0.58"},{"name":"G3","midi":55,"time":"42.61","velocity":0.5984251968503937,"duration":"0.29"},{"name":"C3","midi":48,"time":"42.61","velocity":0.5984251968503937,"duration":"0.58"},{"name":"G4","midi":67,"time":"42.61","velocity":0.6771653543307087,"duration":"0.58"},{"name":"F3","midi":53,"time":"42.62","velocity":0.6771653543307087,"duration":"0.58"},{"name":"C4","midi":60,"time":"42.63","velocity":0.5984251968503937,"duration":"0.28"},{"name":"C4","midi":60,"time":"42.91","velocity":0.5984251968503937,"duration":"0.28"},{"name":"G3","midi":55,"time":"42.92","velocity":0.5984251968503937,"duration":"0.30"},{"name":"D4","midi":62,"time":"43.19","velocity":0.6771653543307087,"duration":"0.58"},{"name":"A4","midi":69,"time":"43.20","velocity":0.6771653543307087,"duration":"0.58"},{"name":"A3","midi":57,"time":"43.20","velocity":0.6771653543307087,"duration":"0.29"},{"name":"D3","midi":50,"time":"43.21","velocity":0.6771653543307087,"duration":"0.58"},{"name":"C4","midi":60,"time":"43.21","velocity":0.6771653543307087,"duration":"0.58"},{"name":"A3","midi":57,"time":"43.51","velocity":0.5748031496062992,"duration":"0.29"},{"name":"A3","midi":57,"time":"43.79","velocity":0.5984251968503937,"duration":"0.29"},{"name":"D3","midi":50,"time":"43.79","velocity":0.5984251968503937,"duration":"0.58"},{"name":"A4","midi":69,"time":"43.80","velocity":0.6771653543307087,"duration":"0.58"},{"name":"C4","midi":60,"time":"43.80","velocity":0.5984251968503937,"duration":"0.58"},{"name":"D4","midi":62,"time":"43.81","velocity":0.5984251968503937,"duration":"0.58"},{"name":"A3","midi":57,"time":"44.10","velocity":0.6299212598425197,"duration":"0.29"},{"name":"A4","midi":69,"time":"44.40","velocity":0.6771653543307087,"duration":"0.58"},{"name":"A3","midi":57,"time":"44.41","velocity":0.6771653543307087,"duration":"0.29"},{"name":"D3","midi":50,"time":"44.41","velocity":0.6771653543307087,"duration":"0.58"},{"name":"D4","midi":62,"time":"44.41","velocity":0.6771653543307087,"duration":"0.58"},{"name":"C4","midi":60,"time":"44.41","velocity":0.6771653543307087,"duration":"0.58"},{"name":"A3","midi":57,"time":"44.70","velocity":0.5748031496062992,"duration":"0.29"},{"name":"D3","midi":50,"time":"44.99","velocity":0.5984251968503937,"duration":"0.58"},{"name":"A4","midi":69,"time":"45.00","velocity":0.6771653543307087,"duration":"0.58"},{"name":"A3","midi":57,"time":"45.01","velocity":0.5984251968503937,"duration":"0.29"},{"name":"D4","midi":62,"time":"45.01","velocity":0.5984251968503937,"duration":"0.58"},{"name":"C4","midi":60,"time":"45.01","velocity":0.5984251968503937,"duration":"0.58"},{"name":"A3","midi":57,"time":"45.30","velocity":0.6299212598425197,"duration":"0.29"},{"name":"D4","midi":62,"time":"45.60","velocity":0.6771653543307087,"duration":"0.58"},{"name":"A#4","midi":70,"time":"45.61","velocity":0.6771653543307087,"duration":"0.58"},{"name":"A#2","midi":46,"time":"45.61","velocity":0.6771653543307087,"duration":"0.58"},{"name":"A#3","midi":58,"time":"45.61","velocity":0.6771653543307087,"duration":"0.29"},{"name":"F3","midi":53,"time":"45.61","velocity":0.6771653543307087,"duration":"0.28"},{"name":"F3","midi":53,"time":"45.90","velocity":0.5196850393700787,"duration":"0.28"},{"name":"A#3","midi":58,"time":"45.92","velocity":0.5748031496062992,"duration":"0.29"},{"name":"A#2","midi":46,"time":"46.19","velocity":0.5984251968503937,"duration":"0.58"},{"name":"A#3","midi":58,"time":"46.20","velocity":0.5984251968503937,"duration":"0.29"},{"name":"F3","midi":53,"time":"46.20","velocity":0.5984251968503937,"duration":"0.58"},{"name":"A#4","midi":70,"time":"46.21","velocity":0.6771653543307087,"duration":"0.58"},{"name":"D4","midi":62,"time":"46.21","velocity":0.5984251968503937,"duration":"0.58"},{"name":"A#3","midi":58,"time":"46.51","velocity":0.6299212598425197,"duration":"0.29"},{"name":"A#2","midi":46,"time":"46.80","velocity":0.6771653543307087,"duration":"0.58"},{"name":"A#4","midi":70,"time":"46.81","velocity":0.6771653543307087,"duration":"0.58"},{"name":"A#3","midi":58,"time":"46.81","velocity":0.6771653543307087,"duration":"0.29"},{"name":"F3","midi":53,"time":"46.81","velocity":0.6771653543307087,"duration":"0.28"},{"name":"D4","midi":62,"time":"46.82","velocity":0.6771653543307087,"duration":"0.58"},{"name":"A#3","midi":58,"time":"47.10","velocity":0.5748031496062992,"duration":"0.29"},{"name":"F3","midi":53,"time":"47.10","velocity":0.5196850393700787,"duration":"0.27"},{"name":"A#2","midi":46,"time":"47.39","velocity":0.5984251968503937,"duration":"0.58"},{"name":"A#4","midi":70,"time":"47.41","velocity":0.6771653543307087,"duration":"0.58"},{"name":"F3","midi":53,"time":"47.41","velocity":0.5984251968503937,"duration":"0.58"},{"name":"A#3","midi":58,"time":"47.41","velocity":0.5984251968503937,"duration":"0.29"},{"name":"D4","midi":62,"time":"47.42","velocity":0.5984251968503937,"duration":"0.58"},{"name":"C4","midi":60,"time":"47.71","velocity":0.8267716535433071,"duration":"0.29"},{"name":"A4","midi":69,"time":"48.00","velocity":0.6771653543307087,"duration":"0.58"},{"name":"A3","midi":57,"time":"48.00","velocity":0.6771653543307087,"duration":"0.29"},{"name":"F3","midi":53,"time":"48.01","velocity":0.6771653543307087,"duration":"0.30"},{"name":"F2","midi":41,"time":"48.01","velocity":0.6771653543307087,"duration":"0.58"},{"name":"F4","midi":65,"time":"48.01","velocity":0.48031496062992124,"duration":"0.58"},{"name":"C4","midi":60,"time":"48.01","velocity":0.6771653543307087,"duration":"0.58"},{"name":"F3","midi":53,"time":"48.30","velocity":0.6771653543307087,"duration":"0.31"},{"name":"A3","midi":57,"time":"48.31","velocity":0.5748031496062992,"duration":"0.29"},{"name":"F2","midi":41,"time":"48.59","velocity":0.5984251968503937,"duration":"0.58"},{"name":"A3","midi":57,"time":"48.59","velocity":0.5984251968503937,"duration":"0.29"},{"name":"F4","midi":65,"time":"48.60","velocity":0.4251968503937008,"duration":"0.58"},{"name":"C4","midi":60,"time":"48.60","velocity":0.5984251968503937,"duration":"0.58"},{"name":"A4","midi":69,"time":"48.60","velocity":0.6771653543307087,"duration":"0.58"},{"name":"F3","midi":53,"time":"48.60","velocity":0.5984251968503937,"duration":"0.30"},{"name":"F3","midi":53,"time":"48.90","velocity":0.5984251968503937,"duration":"0.30"},{"name":"A3","midi":57,"time":"48.90","velocity":0.6299212598425197,"duration":"0.29"},{"name":"F2","midi":41,"time":"49.20","velocity":0.6771653543307087,"duration":"0.58"},{"name":"A4","midi":69,"time":"49.20","velocity":0.6771653543307087,"duration":"0.58"},{"name":"F3","midi":53,"time":"49.20","velocity":0.6771653543307087,"duration":"0.30"},{"name":"F4","midi":65,"time":"49.21","velocity":0.48031496062992124,"duration":"0.58"},{"name":"A3","midi":57,"time":"49.21","velocity":0.6771653543307087,"duration":"0.29"},{"name":"C4","midi":60,"time":"49.21","velocity":0.6771653543307087,"duration":"0.58"},{"name":"A3","midi":57,"time":"49.50","velocity":0.5748031496062992,"duration":"0.29"},{"name":"F3","midi":53,"time":"49.50","velocity":0.5984251968503937,"duration":"0.30"},{"name":"F2","midi":41,"time":"49.79","velocity":0.5984251968503937,"duration":"0.58"},{"name":"A4","midi":69,"time":"49.80","velocity":0.6771653543307087,"duration":"0.58"},{"name":"F3","midi":53,"time":"49.80","velocity":0.5984251968503937,"duration":"0.30"},{"name":"A3","midi":57,"time":"49.81","velocity":0.5984251968503937,"duration":"0.29"},{"name":"F4","midi":65,"time":"49.81","velocity":0.4251968503937008,"duration":"0.58"},{"name":"C4","midi":60,"time":"49.81","velocity":0.5984251968503937,"duration":"0.58"},{"name":"F3","midi":53,"time":"50.10","velocity":0.5984251968503937,"duration":"0.30"},{"name":"A3","midi":57,"time":"50.10","velocity":0.6299212598425197,"duration":"0.29"},{"name":"F4","midi":65,"time":"50.40","velocity":0.5354330708661418,"duration":"0.58"},{"name":"G3","midi":55,"time":"50.40","velocity":0.6771653543307087,"duration":"0.31"},{"name":"G4","midi":67,"time":"50.41","velocity":0.6771653543307087,"duration":"0.58"},{"name":"C3","midi":48,"time":"50.41","velocity":0.6771653543307087,"duration":"0.58"},{"name":"F3","midi":53,"time":"50.41","velocity":0.6771653543307087,"duration":"0.58"},{"name":"F2","midi":41,"time":"50.42","velocity":0.6771653543307087,"duration":"0.58"},{"name":"C4","midi":60,"time":"50.42","velocity":0.6771653543307087,"duration":"0.28"},{"name":"G3","midi":55,"time":"50.71","velocity":0.6771653543307087,"duration":"0.31"},{"name":"C4","midi":60,"time":"50.71","velocity":0.6771653543307087,"duration":"0.28"},{"name":"F2","midi":41,"time":"51.00","velocity":0.5984251968503937,"duration":"0.58"},{"name":"C3","midi":48,"time":"51.00","velocity":0.5984251968503937,"duration":"0.58"},{"name":"F4","midi":65,"time":"51.00","velocity":0.5354330708661418,"duration":"0.58"},{"name":"G4","midi":67,"time":"51.01","velocity":0.6771653543307087,"duration":"0.58"},{"name":"F3","midi":53,"time":"51.01","velocity":0.6771653543307087,"duration":"0.58"},{"name":"C4","midi":60,"time":"51.01","velocity":0.5984251968503937,"duration":"0.29"},{"name":"G3","midi":55,"time":"51.02","velocity":0.6771653543307087,"duration":"0.30"},{"name":"C4","midi":60,"time":"51.30","velocity":0.5984251968503937,"duration":"0.29"},{"name":"G3","midi":55,"time":"51.31","velocity":0.5984251968503937,"duration":"0.28"},{"name":"F4","midi":65,"time":"51.61","velocity":0.5354330708661418,"duration":"0.58"},{"name":"C3","midi":48,"time":"51.61","velocity":0.6771653543307087,"duration":"0.58"},{"name":"G4","midi":67,"time":"51.61","velocity":0.6771653543307087,"duration":"0.58"},{"name":"F2","midi":41,"time":"51.61","velocity":0.6771653543307087,"duration":"0.58"},{"name":"G3","midi":55,"time":"51.62","velocity":0.5984251968503937,"duration":"0.28"},{"name":"F3","midi":53,"time":"51.62","velocity":0.6771653543307087,"duration":"0.58"},{"name":"C4","midi":60,"time":"51.62","velocity":0.6771653543307087,"duration":"0.28"},{"name":"C4","midi":60,"time":"51.90","velocity":0.6771653543307087,"duration":"0.28"},{"name":"G3","midi":55,"time":"51.91","velocity":0.5984251968503937,"duration":"0.29"},{"name":"F2","midi":41,"time":"52.20","velocity":0.5984251968503937,"duration":"0.58"},{"name":"F4","midi":65,"time":"52.21","velocity":0.5354330708661418,"duration":"0.58"},{"name":"G3","midi":55,"time":"52.21","velocity":0.5984251968503937,"duration":"0.29"},{"name":"C3","midi":48,"time":"52.21","velocity":0.5984251968503937,"duration":"0.58"},{"name":"G4","midi":67,"time":"52.21","velocity":0.6771653543307087,"duration":"0.58"},{"name":"F3","midi":53,"time":"52.21","velocity":0.6771653543307087,"duration":"0.58"},{"name":"C4","midi":60,"time":"52.22","velocity":0.5984251968503937,"duration":"0.28"},{"name":"C4","midi":60,"time":"52.50","velocity":0.5984251968503937,"duration":"0.28"},{"name":"G3","midi":55,"time":"52.51","velocity":0.5984251968503937,"duration":"0.30"},{"name":"D4","midi":62,"time":"52.79","velocity":0.6771653543307087,"duration":"0.58"},{"name":"A4","midi":69,"time":"52.80","velocity":0.6771653543307087,"duration":"0.58"},{"name":"A3","midi":57,"time":"52.80","velocity":0.6771653543307087,"duration":"0.29"},{"name":"D3","midi":50,"time":"52.81","velocity":0.6771653543307087,"duration":"0.58"},{"name":"C4","midi":60,"time":"52.81","velocity":0.6771653543307087,"duration":"0.58"},{"name":"A3","midi":57,"time":"53.11","velocity":0.5748031496062992,"duration":"0.29"},{"name":"A3","midi":57,"time":"53.39","velocity":0.5984251968503937,"duration":"0.29"},{"name":"D3","midi":50,"time":"53.39","velocity":0.5984251968503937,"duration":"0.58"},{"name":"A4","midi":69,"time":"53.40","velocity":0.6771653543307087,"duration":"0.58"},{"name":"C4","midi":60,"time":"53.40","velocity":0.5984251968503937,"duration":"0.58"},{"name":"D4","midi":62,"time":"53.40","velocity":0.5984251968503937,"duration":"0.58"},{"name":"A3","midi":57,"time":"53.70","velocity":0.6299212598425197,"duration":"0.29"},{"name":"A4","midi":69,"time":"54.00","velocity":0.6771653543307087,"duration":"0.58"},{"name":"A3","midi":57,"time":"54.00","velocity":0.6771653543307087,"duration":"0.29"},{"name":"D3","midi":50,"time":"54.00","velocity":0.6771653543307087,"duration":"0.58"},{"name":"D4","midi":62,"time":"54.01","velocity":0.6771653543307087,"duration":"0.58"},{"name":"C4","midi":60,"time":"54.01","velocity":0.6771653543307087,"duration":"0.58"},{"name":"A3","midi":57,"time":"54.29","velocity":0.5748031496062992,"duration":"0.29"},{"name":"D3","midi":50,"time":"54.59","velocity":0.5984251968503937,"duration":"0.58"},{"name":"A4","midi":69,"time":"54.60","velocity":0.6771653543307087,"duration":"0.58"},{"name":"A3","midi":57,"time":"54.60","velocity":0.5984251968503937,"duration":"0.29"},{"name":"D4","midi":62,"time":"54.61","velocity":0.5984251968503937,"duration":"0.58"},{"name":"C4","midi":60,"time":"54.61","velocity":0.5984251968503937,"duration":"0.58"},{"name":"A3","midi":57,"time":"54.90","velocity":0.6299212598425197,"duration":"0.29"},{"name":"D4","midi":62,"time":"55.19","velocity":0.6771653543307087,"duration":"0.58"},{"name":"A#4","midi":70,"time":"55.20","velocity":0.6771653543307087,"duration":"0.58"},{"name":"A#2","midi":46,"time":"55.20","velocity":0.6771653543307087,"duration":"0.58"},{"name":"A#3","midi":58,"time":"55.20","velocity":0.6771653543307087,"duration":"0.29"},{"name":"F3","midi":53,"time":"55.21","velocity":0.6771653543307087,"duration":"0.28"},{"name":"F3","midi":53,"time":"55.50","velocity":0.5196850393700787,"duration":"0.28"},{"name":"A#3","midi":58,"time":"55.51","velocity":0.5748031496062992,"duration":"0.29"},{"name":"A#2","midi":46,"time":"55.78","velocity":0.5984251968503937,"duration":"0.58"},{"name":"A#3","midi":58,"time":"55.79","velocity":0.5984251968503937,"duration":"0.29"},{"name":"F3","midi":53,"time":"55.80","velocity":0.5984251968503937,"duration":"0.58"},{"name":"A#4","midi":70,"time":"55.80","velocity":0.6771653543307087,"duration":"0.58"},{"name":"D4","midi":62,"time":"55.81","velocity":0.5984251968503937,"duration":"0.58"},{"name":"A#3","midi":58,"time":"56.10","velocity":0.6299212598425197,"duration":"0.29"},{"name":"A#2","midi":46,"time":"56.40","velocity":0.6771653543307087,"duration":"0.58"},{"name":"A#4","midi":70,"time":"56.40","velocity":0.6771653543307087,"duration":"0.58"},{"name":"A#3","midi":58,"time":"56.41","velocity":0.6771653543307087,"duration":"0.29"},{"name":"F3","midi":53,"time":"56.41","velocity":0.6771653543307087,"duration":"0.28"},{"name":"D4","midi":62,"time":"56.41","velocity":0.6771653543307087,"duration":"0.58"},{"name":"A#3","midi":58,"time":"56.70","velocity":0.5748031496062992,"duration":"0.29"},{"name":"F3","midi":53,"time":"56.70","velocity":0.5196850393700787,"duration":"0.27"},{"name":"A#2","midi":46,"time":"56.98","velocity":0.5984251968503937,"duration":"0.58"},{"name":"A#4","midi":70,"time":"57.00","velocity":0.6771653543307087,"duration":"0.58"},{"name":"F3","midi":53,"time":"57.01","velocity":0.5984251968503937,"duration":"0.58"},{"name":"A#3","midi":58,"time":"57.01","velocity":0.5984251968503937,"duration":"0.29"},{"name":"D4","midi":62,"time":"57.01","velocity":0.5984251968503937,"duration":"0.58"},{"name":"C4","midi":60,"time":"57.30","velocity":0.8267716535433071,"duration":"0.29"},{"name":"A4","midi":69,"time":"57.60","velocity":0.6771653543307087,"duration":"0.58"},{"name":"A3","midi":57,"time":"57.60","velocity":0.6771653543307087,"duration":"0.29"},{"name":"F3","midi":53,"time":"57.60","velocity":0.6771653543307087,"duration":"0.30"},{"name":"F2","midi":41,"time":"57.60","velocity":0.6771653543307087,"duration":"0.58"},{"name":"F4","midi":65,"time":"57.60","velocity":0.48031496062992124,"duration":"0.58"},{"name":"C4","midi":60,"time":"57.61","velocity":0.6771653543307087,"duration":"0.58"},{"name":"C3","midi":48,"time":"57.89","velocity":0.6771653543307087,"duration":"0.31"},{"name":"F3","midi":53,"time":"57.90","velocity":0.6771653543307087,"duration":"0.31"},{"name":"A3","midi":57,"time":"57.91","velocity":0.5748031496062992,"duration":"0.29"},{"name":"F2","midi":41,"time":"58.18","velocity":0.5984251968503937,"duration":"0.58"},{"name":"A3","midi":57,"time":"58.19","velocity":0.5984251968503937,"duration":"0.29"},{"name":"F4","midi":65,"time":"58.19","velocity":0.4251968503937008,"duration":"0.58"},{"name":"C4","midi":60,"time":"58.20","velocity":0.5984251968503937,"duration":"0.58"},{"name":"A4","midi":69,"time":"58.20","velocity":0.6771653543307087,"duration":"0.58"},{"name":"F3","midi":53,"time":"58.20","velocity":0.5984251968503937,"duration":"0.30"},{"name":"C3","midi":48,"time":"58.48","velocity":0.6771653543307087,"duration":"0.30"},{"name":"F3","midi":53,"time":"58.50","velocity":0.5984251968503937,"duration":"0.30"},{"name":"A3","midi":57,"time":"58.50","velocity":0.6299212598425197,"duration":"0.29"},{"name":"F2","midi":41,"time":"58.80","velocity":0.6771653543307087,"duration":"0.58"},{"name":"A4","midi":69,"time":"58.80","velocity":0.7874015748031497,"duration":"0.58"},{"name":"F3","midi":53,"time":"58.80","velocity":0.6771653543307087,"duration":"0.30"},{"name":"F4","midi":65,"time":"58.80","velocity":0.48031496062992124,"duration":"0.58"},{"name":"A3","midi":57,"time":"58.80","velocity":0.6771653543307087,"duration":"0.29"},{"name":"C4","midi":60,"time":"58.81","velocity":0.6771653543307087,"duration":"0.58"},{"name":"C3","midi":48,"time":"59.09","velocity":0.6771653543307087,"duration":"0.31"},{"name":"A3","midi":57,"time":"59.09","velocity":0.5748031496062992,"duration":"0.29"},{"name":"F3","midi":53,"time":"59.10","velocity":0.5984251968503937,"duration":"0.30"},{"name":"F2","midi":41,"time":"59.38","velocity":0.5984251968503937,"duration":"0.58"},{"name":"A4","midi":69,"time":"59.40","velocity":0.6771653543307087,"duration":"0.58"},{"name":"F3","midi":53,"time":"59.40","velocity":0.5984251968503937,"duration":"0.30"},{"name":"A3","midi":57,"time":"59.40","velocity":0.5984251968503937,"duration":"0.29"},{"name":"F4","midi":65,"time":"59.40","velocity":0.4251968503937008,"duration":"0.58"},{"name":"C4","midi":60,"time":"59.41","velocity":0.5984251968503937,"duration":"0.58"},{"name":"F3","midi":53,"time":"59.70","velocity":0.5984251968503937,"duration":"0.30"},{"name":"A3","midi":57,"time":"59.70","velocity":0.6299212598425197,"duration":"0.29"},{"name":"F4","midi":65,"time":"59.99","velocity":0.5354330708661418,"duration":"0.58"},{"name":"A3","midi":57,"time":"60.00","velocity":0.6771653543307087,"duration":"0.31"},{"name":"A4","midi":69,"time":"60.00","velocity":0.6771653543307087,"duration":"0.32"},{"name":"C3","midi":48,"time":"60.00","velocity":0.6771653543307087,"duration":"0.58"},{"name":"F3","midi":53,"time":"60.01","velocity":0.6771653543307087,"duration":"0.58"},{"name":"F2","midi":41,"time":"60.01","velocity":0.6771653543307087,"duration":"0.58"},{"name":"C4","midi":60,"time":"60.02","velocity":0.6771653543307087,"duration":"0.28"},{"name":"G3","midi":55,"time":"60.31","velocity":0.6771653543307087,"duration":"0.31"},{"name":"C4","midi":60,"time":"60.31","velocity":0.6771653543307087,"duration":"0.28"},{"name":"F2","midi":41,"time":"60.59","velocity":0.5984251968503937,"duration":"0.58"},{"name":"C3","midi":48,"time":"60.59","velocity":0.5984251968503937,"duration":"0.58"},{"name":"G4","midi":67,"time":"60.60","velocity":0.5354330708661418,"duration":"0.31"},{"name":"A4","midi":69,"time":"60.60","velocity":0.6771653543307087,"duration":"0.58"},{"name":"F3","midi":53,"time":"60.61","velocity":0.6771653543307087,"duration":"0.58"},{"name":"C4","midi":60,"time":"60.61","velocity":0.5984251968503937,"duration":"0.29"},{"name":"G3","midi":55,"time":"60.62","velocity":0.6771653543307087,"duration":"0.30"},{"name":"C4","midi":60,"time":"60.90","velocity":0.5984251968503937,"duration":"0.29"},{"name":"F4","midi":65,"time":"60.90","velocity":0.5354330708661418,"duration":"0.31"},{"name":"G3","midi":55,"time":"60.91","velocity":0.5984251968503937,"duration":"0.28"},{"name":"F4","midi":65,"time":"61.20","velocity":0.5354330708661418,"duration":"0.30"},{"name":"C3","midi":48,"time":"61.20","velocity":0.6771653543307087,"duration":"0.58"},{"name":"A4","midi":69,"time":"61.20","velocity":0.6771653543307087,"duration":"0.58"},{"name":"F2","midi":41,"time":"61.21","velocity":0.6771653543307087,"duration":"0.58"},{"name":"G3","midi":55,"time":"61.21","velocity":0.5984251968503937,"duration":"0.28"},{"name":"F3","midi":53,"time":"61.21","velocity":0.6771653543307087,"duration":"0.58"},{"name":"C4","midi":60,"time":"61.22","velocity":0.6771653543307087,"duration":"0.28"},{"name":"E4","midi":64,"time":"61.49","velocity":0.5354330708661418,"duration":"0.30"},{"name":"C4","midi":60,"time":"61.50","velocity":0.6771653543307087,"duration":"0.28"},{"name":"G3","midi":55,"time":"61.51","velocity":0.5984251968503937,"duration":"0.29"},{"name":"F2","midi":41,"time":"61.79","velocity":0.5984251968503937,"duration":"0.58"},{"name":"E4","midi":64,"time":"61.80","velocity":0.5354330708661418,"duration":"0.58"},{"name":"G3","midi":55,"time":"61.80","velocity":0.5984251968503937,"duration":"0.29"},{"name":"C3","midi":48,"time":"61.80","velocity":0.5984251968503937,"duration":"0.58"},{"name":"G4","midi":67,"time":"61.80","velocity":0.6771653543307087,"duration":"0.58"},{"name":"F3","midi":53,"time":"61.81","velocity":0.6771653543307087,"duration":"0.58"},{"name":"C4","midi":60,"time":"61.82","velocity":0.5984251968503937,"duration":"0.28"},{"name":"C4","midi":60,"time":"62.10","velocity":0.5984251968503937,"duration":"0.28"},{"name":"G3","midi":55,"time":"62.11","velocity":0.5984251968503937,"duration":"0.30"},{"name":"D4","midi":62,"time":"62.40","velocity":0.6771653543307087,"duration":"0.58"},{"name":"A#4","midi":70,"time":"62.41","velocity":0.6771653543307087,"duration":"0.58"},{"name":"A#2","midi":46,"time":"62.41","velocity":0.6771653543307087,"duration":"0.58"},{"name":"A#3","midi":58,"time":"62.41","velocity":0.6771653543307087,"duration":"0.29"},{"name":"F3","midi":53,"time":"62.42","velocity":0.6771653543307087,"duration":"0.28"},{"name":"F3","midi":53,"time":"62.71","velocity":0.5196850393700787,"duration":"0.28"},{"name":"A#2","midi":46,"time":"62.99","velocity":0.5984251968503937,"duration":"0.58"},{"name":"A#3","midi":58,"time":"63.00","velocity":0.5984251968503937,"duration":"0.29"},{"name":"F3","midi":53,"time":"63.01","velocity":0.5984251968503937,"duration":"0.30"},{"name":"A#4","midi":70,"time":"63.01","velocity":0.6771653543307087,"duration":"0.58"},{"name":"D4","midi":62,"time":"63.02","velocity":0.5984251968503937,"duration":"0.58"},{"name":"F3","midi":53,"time":"63.31","velocity":0.5984251968503937,"duration":"0.30"},{"name":"A#2","midi":46,"time":"63.61","velocity":0.6771653543307087,"duration":"0.58"},{"name":"A#4","midi":70,"time":"63.61","velocity":0.6771653543307087,"duration":"0.58"},{"name":"A#3","midi":58,"time":"63.62","velocity":0.6771653543307087,"duration":"0.29"},{"name":"F3","midi":53,"time":"63.62","velocity":0.6771653543307087,"duration":"0.28"},{"name":"D4","midi":62,"time":"63.62","velocity":0.6771653543307087,"duration":"0.58"},{"name":"F3","midi":53,"time":"63.91","velocity":0.5196850393700787,"duration":"0.27"},{"name":"A#2","midi":46,"time":"64.19","velocity":0.5984251968503937,"duration":"0.58"},{"name":"A#4","midi":70,"time":"64.21","velocity":0.6771653543307087,"duration":"0.58"},{"name":"F3","midi":53,"time":"64.22","velocity":0.5984251968503937,"duration":"0.27"},{"name":"A#3","midi":58,"time":"64.22","velocity":0.5984251968503937,"duration":"0.29"},{"name":"D4","midi":62,"time":"64.22","velocity":0.5984251968503937,"duration":"0.58"},{"name":"F3","midi":53,"time":"64.52","velocity":0.5984251968503937,"duration":"0.27"},{"name":"D4","midi":62,"time":"64.81","velocity":0.6771653543307087,"duration":"0.58"},{"name":"A#4","midi":70,"time":"64.82","velocity":0.6771653543307087,"duration":"0.58"},{"name":"A#2","midi":46,"time":"64.82","velocity":0.6771653543307087,"duration":"0.58"},{"name":"A#3","midi":58,"time":"64.82","velocity":0.6771653543307087,"duration":"0.29"},{"name":"F3","midi":53,"time":"64.83","velocity":0.6771653543307087,"duration":"0.28"},{"name":"F3","midi":53,"time":"65.12","velocity":0.5196850393700787,"duration":"0.28"},{"name":"A#3","midi":58,"time":"65.13","velocity":0.4566929133858268,"duration":"0.29"},{"name":"A#2","midi":46,"time":"65.40","velocity":0.5984251968503937,"duration":"0.58"},{"name":"A#3","midi":58,"time":"65.41","velocity":0.5984251968503937,"duration":"0.29"},{"name":"F3","midi":53,"time":"65.42","velocity":0.5984251968503937,"duration":"0.58"},{"name":"A#4","midi":70,"time":"65.42","velocity":0.6771653543307087,"duration":"0.58"},{"name":"D4","midi":62,"time":"65.43","velocity":0.5984251968503937,"duration":"0.58"},{"name":"A#3","midi":58,"time":"65.72","velocity":0.5039370078740157,"duration":"0.29"},{"name":"A#2","midi":46,"time":"66.02","velocity":0.6771653543307087,"duration":"0.58"},{"name":"A#4","midi":70,"time":"66.02","velocity":0.6771653543307087,"duration":"0.58"},{"name":"A#3","midi":58,"time":"66.03","velocity":0.6771653543307087,"duration":"0.29"},{"name":"F3","midi":53,"time":"66.03","velocity":0.6771653543307087,"duration":"0.27"},{"name":"D4","midi":62,"time":"66.03","velocity":0.6771653543307087,"duration":"0.58"},{"name":"A#3","midi":58,"time":"66.32","velocity":0.4566929133858268,"duration":"0.29"},{"name":"F3","midi":53,"time":"66.32","velocity":0.5196850393700787,"duration":"0.28"},{"name":"A#2","midi":46,"time":"66.60","velocity":0.5984251968503937,"duration":"0.89"},{"name":"A#4","midi":70,"time":"66.62","velocity":0.6771653543307087,"duration":"0.87"},{"name":"F3","midi":53,"time":"66.63","velocity":0.5984251968503937,"duration":"0.58"},{"name":"A#3","midi":58,"time":"66.63","velocity":0.5984251968503937,"duration":"0.29"},{"name":"D4","midi":62,"time":"66.63","velocity":0.5984251968503937,"duration":"0.84"},{"name":"A#3","midi":58,"time":"66.92","velocity":0.8267716535433071,"duration":"0.29"},{"name":"A4","midi":69,"time":"67.22","velocity":0.6771653543307087,"duration":"0.58"},{"name":"A3","midi":57,"time":"67.22","velocity":0.6771653543307087,"duration":"0.29"},{"name":"F3","midi":53,"time":"67.22","velocity":0.6771653543307087,"duration":"0.31"},{"name":"F2","midi":41,"time":"67.22","velocity":0.6771653543307087,"duration":"0.58"},{"name":"F4","midi":65,"time":"67.22","velocity":0.48031496062992124,"duration":"0.58"},{"name":"C4","midi":60,"time":"67.23","velocity":0.6771653543307087,"duration":"0.58"},{"name":"C3","midi":48,"time":"67.51","velocity":0.6771653543307087,"duration":"0.30"},{"name":"F3","midi":53,"time":"67.52","velocity":0.6771653543307087,"duration":"0.30"},{"name":"A3","midi":57,"time":"67.53","velocity":0.5748031496062992,"duration":"0.29"},{"name":"F2","midi":41,"time":"67.80","velocity":0.5984251968503937,"duration":"0.58"},{"name":"A3","midi":57,"time":"67.81","velocity":0.5984251968503937,"duration":"0.29"},{"name":"F4","midi":65,"time":"67.81","velocity":0.4251968503937008,"duration":"0.58"},{"name":"C4","midi":60,"time":"67.82","velocity":0.5984251968503937,"duration":"0.58"},{"name":"A4","midi":69,"time":"67.82","velocity":0.6771653543307087,"duration":"0.58"},{"name":"F3","midi":53,"time":"67.82","velocity":0.5984251968503937,"duration":"0.30"},{"name":"C3","midi":48,"time":"68.10","velocity":0.6771653543307087,"duration":"0.31"},{"name":"F3","midi":53,"time":"68.12","velocity":0.5984251968503937,"duration":"0.30"},{"name":"A3","midi":57,"time":"68.12","velocity":0.6299212598425197,"duration":"0.29"},{"name":"F2","midi":41,"time":"68.42","velocity":0.6771653543307087,"duration":"0.58"},{"name":"A4","midi":69,"time":"68.42","velocity":0.7874015748031497,"duration":"0.58"},{"name":"F3","midi":53,"time":"68.42","velocity":0.6771653543307087,"duration":"0.30"},{"name":"F4","midi":65,"time":"68.42","velocity":0.48031496062992124,"duration":"0.58"},{"name":"A3","midi":57,"time":"68.42","velocity":0.6771653543307087,"duration":"0.29"},{"name":"C4","midi":60,"time":"68.43","velocity":0.6771653543307087,"duration":"0.58"},{"name":"C3","midi":48,"time":"68.71","velocity":0.6771653543307087,"duration":"0.30"},{"name":"A3","midi":57,"time":"68.71","velocity":0.5748031496062992,"duration":"0.29"},{"name":"F3","midi":53,"time":"68.72","velocity":0.5984251968503937,"duration":"0.30"},{"name":"F2","midi":41,"time":"69.00","velocity":0.5984251968503937,"duration":"0.58"},{"name":"A4","midi":69,"time":"69.02","velocity":0.6771653543307087,"duration":"0.58"},{"name":"F3","midi":53,"time":"69.02","velocity":0.5984251968503937,"duration":"0.30"},{"name":"A3","midi":57,"time":"69.02","velocity":0.5984251968503937,"duration":"0.29"},{"name":"F4","midi":65,"time":"69.02","velocity":0.4251968503937008,"duration":"0.58"},{"name":"C4","midi":60,"time":"69.03","velocity":0.5984251968503937,"duration":"0.58"},{"name":"F3","midi":53,"time":"69.32","velocity":0.5984251968503937,"duration":"0.30"},{"name":"A3","midi":57,"time":"69.32","velocity":0.6299212598425197,"duration":"0.29"},{"name":"F4","midi":65,"time":"69.61","velocity":0.5354330708661418,"duration":"0.58"},{"name":"G3","midi":55,"time":"69.62","velocity":0.6771653543307087,"duration":"0.30"},{"name":"G4","midi":67,"time":"69.62","velocity":0.6771653543307087,"duration":"0.58"},{"name":"C3","midi":48,"time":"69.62","velocity":0.6771653543307087,"duration":"0.58"},{"name":"F3","midi":53,"time":"69.63","velocity":0.6771653543307087,"duration":"0.58"},{"name":"F2","midi":41,"time":"69.63","velocity":0.6771653543307087,"duration":"0.58"},{"name":"C4","midi":60,"time":"69.64","velocity":0.6771653543307087,"duration":"0.28"},{"name":"G3","midi":55,"time":"69.93","velocity":0.6771653543307087,"duration":"0.30"},{"name":"C4","midi":60,"time":"69.93","velocity":0.6771653543307087,"duration":"0.28"},{"name":"F2","midi":41,"time":"70.21","velocity":0.5984251968503937,"duration":"0.58"},{"name":"C3","midi":48,"time":"70.21","velocity":0.5984251968503937,"duration":"0.58"},{"name":"F4","midi":65,"time":"70.22","velocity":0.5354330708661418,"duration":"0.58"},{"name":"G4","midi":67,"time":"70.22","velocity":0.6771653543307087,"duration":"0.58"},{"name":"F3","midi":53,"time":"70.23","velocity":0.6771653543307087,"duration":"0.58"},{"name":"C4","midi":60,"time":"70.23","velocity":0.5984251968503937,"duration":"0.29"},{"name":"G3","midi":55,"time":"70.24","velocity":0.6771653543307087,"duration":"0.31"},{"name":"C4","midi":60,"time":"70.52","velocity":0.5984251968503937,"duration":"0.29"},{"name":"G3","midi":55,"time":"70.53","velocity":0.5984251968503937,"duration":"0.28"},{"name":"F4","midi":65,"time":"70.82","velocity":0.5354330708661418,"duration":"0.58"},{"name":"C3","midi":48,"time":"70.82","velocity":0.6771653543307087,"duration":"0.58"},{"name":"G4","midi":67,"time":"70.82","velocity":0.6771653543307087,"duration":"0.58"},{"name":"F2","midi":41,"time":"70.83","velocity":0.6771653543307087,"duration":"0.58"},{"name":"G3","midi":55,"time":"70.83","velocity":0.5984251968503937,"duration":"0.28"},{"name":"F3","midi":53,"time":"70.83","velocity":0.6771653543307087,"duration":"0.58"},{"name":"C4","midi":60,"time":"70.84","velocity":0.6771653543307087,"duration":"0.28"},{"name":"C4","midi":60,"time":"71.12","velocity":0.6771653543307087,"duration":"0.28"},{"name":"G3","midi":55,"time":"71.13","velocity":0.5984251968503937,"duration":"0.28"},{"name":"F2","midi":41,"time":"71.41","velocity":0.5984251968503937,"duration":"0.58"},{"name":"F4","midi":65,"time":"71.42","velocity":0.5354330708661418,"duration":"0.58"},{"name":"G3","midi":55,"time":"71.42","velocity":0.5984251968503937,"duration":"0.28"},{"name":"C3","midi":48,"time":"71.42","velocity":0.5984251968503937,"duration":"0.58"},{"name":"G4","midi":67,"time":"71.42","velocity":0.6771653543307087,"duration":"0.58"},{"name":"F3","midi":53,"time":"71.43","velocity":0.6771653543307087,"duration":"0.58"},{"name":"C4","midi":60,"time":"71.44","velocity":0.5984251968503937,"duration":"0.28"},{"name":"C4","midi":60,"time":"71.72","velocity":0.5984251968503937,"duration":"0.28"},{"name":"G3","midi":55,"time":"71.73","velocity":0.5984251968503937,"duration":"0.30"},{"name":"D4","midi":62,"time":"72.00","velocity":0.6771653543307087,"duration":"0.58"},{"name":"A#4","midi":70,"time":"72.01","velocity":0.6771653543307087,"duration":"0.58"},{"name":"A#2","midi":46,"time":"72.01","velocity":0.6771653543307087,"duration":"0.58"},{"name":"A#3","midi":58,"time":"72.01","velocity":0.6771653543307087,"duration":"0.29"},{"name":"F3","midi":53,"time":"72.01","velocity":0.6771653543307087,"duration":"0.28"},{"name":"F3","midi":53,"time":"72.30","velocity":0.5196850393700787,"duration":"0.28"},{"name":"A#2","midi":46,"time":"72.59","velocity":0.5984251968503937,"duration":"0.58"},{"name":"A#3","midi":58,"time":"72.60","velocity":0.5984251968503937,"duration":"0.29"},{"name":"F3","midi":53,"time":"72.60","velocity":0.5984251968503937,"duration":"0.30"},{"name":"A#4","midi":70,"time":"72.61","velocity":0.6771653543307087,"duration":"0.58"},{"name":"D4","midi":62,"time":"72.61","velocity":0.5984251968503937,"duration":"0.58"},{"name":"F3","midi":53,"time":"72.90","velocity":0.5984251968503937,"duration":"0.30"},{"name":"A#2","midi":46,"time":"73.20","velocity":0.6771653543307087,"duration":"0.58"},{"name":"A#4","midi":70,"time":"73.21","velocity":0.6771653543307087,"duration":"0.58"},{"name":"A#3","midi":58,"time":"73.21","velocity":0.6771653543307087,"duration":"0.29"},{"name":"F3","midi":53,"time":"73.21","velocity":0.6771653543307087,"duration":"0.27"},{"name":"D4","midi":62,"time":"73.22","velocity":0.6771653543307087,"duration":"0.58"},{"name":"F3","midi":53,"time":"73.50","velocity":0.5196850393700787,"duration":"0.28"},{"name":"A#2","midi":46,"time":"73.79","velocity":0.5984251968503937,"duration":"0.58"},{"name":"A#4","midi":70,"time":"73.81","velocity":0.6771653543307087,"duration":"0.58"},{"name":"F3","midi":53,"time":"73.81","velocity":0.5984251968503937,"duration":"0.27"},{"name":"A#3","midi":58,"time":"73.81","velocity":0.5984251968503937,"duration":"0.29"},{"name":"D4","midi":62,"time":"73.82","velocity":0.5984251968503937,"duration":"0.58"},{"name":"F3","midi":53,"time":"74.11","velocity":0.5984251968503937,"duration":"0.27"},{"name":"D4","midi":62,"time":"74.41","velocity":0.6771653543307087,"duration":"0.58"},{"name":"A#4","midi":70,"time":"74.42","velocity":0.6771653543307087,"duration":"0.58"},{"name":"A#2","midi":46,"time":"74.42","velocity":0.6771653543307087,"duration":"0.58"},{"name":"A#3","midi":58,"time":"74.42","velocity":0.6771653543307087,"duration":"0.29"},{"name":"F3","midi":53,"time":"74.42","velocity":0.6771653543307087,"duration":"0.28"},{"name":"F3","midi":53,"time":"74.71","velocity":0.5196850393700787,"duration":"0.28"},{"name":"A#3","midi":58,"time":"74.73","velocity":0.4566929133858268,"duration":"0.29"},{"name":"A#2","midi":46,"time":"75.00","velocity":0.5984251968503937,"duration":"0.58"},{"name":"A#3","midi":58,"time":"75.01","velocity":0.5984251968503937,"duration":"0.29"},{"name":"F3","midi":53,"time":"75.01","velocity":0.5984251968503937,"duration":"0.58"},{"name":"A#4","midi":70,"time":"75.02","velocity":0.6771653543307087,"duration":"0.58"},{"name":"D4","midi":62,"time":"75.02","velocity":0.5984251968503937,"duration":"0.58"},{"name":"A#3","midi":58,"time":"75.32","velocity":0.5039370078740157,"duration":"0.29"},{"name":"A#2","midi":46,"time":"75.61","velocity":0.6771653543307087,"duration":"0.58"},{"name":"A#4","midi":70,"time":"75.62","velocity":0.6771653543307087,"duration":"0.58"},{"name":"A#3","midi":58,"time":"75.62","velocity":0.6771653543307087,"duration":"0.29"},{"name":"F3","midi":53,"time":"75.62","velocity":0.6771653543307087,"duration":"0.27"},{"name":"D4","midi":62,"time":"75.63","velocity":0.6771653543307087,"duration":"0.58"},{"name":"A#3","midi":58,"time":"75.91","velocity":0.4566929133858268,"duration":"0.29"},{"name":"F3","midi":53,"time":"75.91","velocity":0.5196850393700787,"duration":"0.28"},{"name":"A#2","midi":46,"time":"76.20","velocity":0.5984251968503937,"duration":"0.89"},{"name":"A#4","midi":70,"time":"76.22","velocity":0.6771653543307087,"duration":"0.87"},{"name":"F3","midi":53,"time":"76.22","velocity":0.5984251968503937,"duration":"0.58"},{"name":"A#3","midi":58,"time":"76.22","velocity":0.5984251968503937,"duration":"0.29"},{"name":"D4","midi":62,"time":"76.23","velocity":0.5984251968503937,"duration":"0.84"},{"name":"A#3","midi":58,"time":"76.52","velocity":0.8267716535433071,"duration":"0.29"},{"name":"A4","midi":69,"time":"76.81","velocity":0.6771653543307087,"duration":"0.58"},{"name":"A3","midi":57,"time":"76.81","velocity":0.6771653543307087,"duration":"0.29"},{"name":"F3","midi":53,"time":"76.82","velocity":0.6771653543307087,"duration":"0.31"},{"name":"F2","midi":41,"time":"76.82","velocity":0.6771653543307087,"duration":"0.58"},{"name":"F4","midi":65,"time":"76.82","velocity":0.48031496062992124,"duration":"0.58"},{"name":"C4","midi":60,"time":"76.82","velocity":0.6771653543307087,"duration":"0.58"},{"name":"C3","midi":48,"time":"77.10","velocity":0.6771653543307087,"duration":"0.30"},{"name":"F3","midi":53,"time":"77.11","velocity":0.6771653543307087,"duration":"0.30"},{"name":"A3","midi":57,"time":"77.12","velocity":0.5748031496062992,"duration":"0.29"},{"name":"F2","midi":41,"time":"77.40","velocity":0.5984251968503937,"duration":"0.58"},{"name":"A3","midi":57,"time":"77.40","velocity":0.5984251968503937,"duration":"0.29"},{"name":"F4","midi":65,"time":"77.41","velocity":0.4251968503937008,"duration":"0.58"},{"name":"C4","midi":60,"time":"77.41","velocity":0.5984251968503937,"duration":"0.58"},{"name":"A4","midi":69,"time":"77.41","velocity":0.6771653543307087,"duration":"0.58"},{"name":"F3","midi":53,"time":"77.41","velocity":0.5984251968503937,"duration":"0.30"},{"name":"C3","midi":48,"time":"77.70","velocity":0.6771653543307087,"duration":"0.31"},{"name":"F3","midi":53,"time":"77.71","velocity":0.5984251968503937,"duration":"0.30"},{"name":"A3","midi":57,"time":"77.71","velocity":0.6299212598425197,"duration":"0.29"},{"name":"F2","midi":41,"time":"78.01","velocity":0.6771653543307087,"duration":"0.58"},{"name":"A4","midi":69,"time":"78.01","velocity":0.7874015748031497,"duration":"0.58"},{"name":"F3","midi":53,"time":"78.01","velocity":0.6771653543307087,"duration":"0.30"},{"name":"F4","midi":65,"time":"78.02","velocity":0.48031496062992124,"duration":"0.58"},{"name":"A3","midi":57,"time":"78.02","velocity":0.6771653543307087,"duration":"0.29"},{"name":"C4","midi":60,"time":"78.02","velocity":0.6771653543307087,"duration":"0.58"},{"name":"C3","midi":48,"time":"78.31","velocity":0.6771653543307087,"duration":"0.30"},{"name":"A3","midi":57,"time":"78.31","velocity":0.5748031496062992,"duration":"0.29"},{"name":"F3","midi":53,"time":"78.31","velocity":0.5984251968503937,"duration":"0.30"},{"name":"F2","midi":41,"time":"78.60","velocity":0.5984251968503937,"duration":"0.58"},{"name":"A4","midi":69,"time":"78.61","velocity":0.6771653543307087,"duration":"0.58"},{"name":"F3","midi":53,"time":"78.61","velocity":0.5984251968503937,"duration":"0.30"},{"name":"A3","midi":57,"time":"78.62","velocity":0.5984251968503937,"duration":"0.29"},{"name":"F4","midi":65,"time":"78.62","velocity":0.4251968503937008,"duration":"0.58"},{"name":"C4","midi":60,"time":"78.62","velocity":0.5984251968503937,"duration":"0.58"},{"name":"F3","midi":53,"time":"78.91","velocity":0.5984251968503937,"duration":"0.30"},{"name":"A3","midi":57,"time":"78.91","velocity":0.6299212598425197,"duration":"0.29"},{"name":"E4","midi":64,"time":"79.21","velocity":0.5354330708661418,"duration":"0.58"},{"name":"G3","midi":55,"time":"79.21","velocity":0.6771653543307087,"duration":"0.30"},{"name":"G4","midi":67,"time":"79.22","velocity":0.6771653543307087,"duration":"0.58"},{"name":"C3","midi":48,"time":"79.22","velocity":0.6771653543307087,"duration":"0.58"},{"name":"F3","midi":53,"time":"79.22","velocity":0.6771653543307087,"duration":"0.58"},{"name":"F2","midi":41,"time":"79.23","velocity":0.6771653543307087,"duration":"0.58"},{"name":"C4","midi":60,"time":"79.23","velocity":0.6771653543307087,"duration":"0.28"},{"name":"G3","midi":55,"time":"79.52","velocity":0.6771653543307087,"duration":"0.30"},{"name":"C4","midi":60,"time":"79.52","velocity":0.6771653543307087,"duration":"0.28"},{"name":"F2","midi":41,"time":"79.81","velocity":0.5984251968503937,"duration":"0.58"},{"name":"C3","midi":48,"time":"79.81","velocity":0.5984251968503937,"duration":"0.58"},{"name":"E4","midi":64,"time":"79.81","velocity":0.5354330708661418,"duration":"0.58"},{"name":"G4","midi":67,"time":"79.82","velocity":0.6771653543307087,"duration":"0.58"},{"name":"F3","midi":53,"time":"79.82","velocity":0.6771653543307087,"duration":"0.58"},{"name":"C4","midi":60,"time":"79.82","velocity":0.5984251968503937,"duration":"0.29"},{"name":"G3","midi":55,"time":"79.83","velocity":0.6771653543307087,"duration":"0.31"},{"name":"C4","midi":60,"time":"80.11","velocity":0.5984251968503937,"duration":"0.29"},{"name":"G3","midi":55,"time":"80.12","velocity":0.5984251968503937,"duration":"0.28"},{"name":"D4","midi":62,"time":"80.42","velocity":0.5354330708661418,"duration":"0.58"},{"name":"C3","midi":48,"time":"80.42","velocity":0.6771653543307087,"duration":"0.58"},{"name":"G4","midi":67,"time":"80.42","velocity":0.6771653543307087,"duration":"0.58"},{"name":"F2","midi":41,"time":"80.42","velocity":0.6771653543307087,"duration":"0.58"},{"name":"A3","midi":57,"time":"80.43","velocity":0.5984251968503937,"duration":"0.28"},{"name":"F3","midi":53,"time":"80.43","velocity":0.6771653543307087,"duration":"0.58"},{"name":"C4","midi":60,"time":"80.43","velocity":0.6771653543307087,"duration":"0.28"},{"name":"C4","midi":60,"time":"80.71","velocity":0.6771653543307087,"duration":"0.28"},{"name":"A3","midi":57,"time":"80.72","velocity":0.5984251968503937,"duration":"0.28"},{"name":"F2","midi":41,"time":"81.01","velocity":0.5984251968503937,"duration":"0.58"},{"name":"D4","midi":62,"time":"81.02","velocity":0.5354330708661418,"duration":"0.58"},{"name":"A3","midi":57,"time":"81.02","velocity":0.5984251968503937,"duration":"0.28"},{"name":"C3","midi":48,"time":"81.02","velocity":0.5984251968503937,"duration":"0.58"},{"name":"G4","midi":67,"time":"81.02","velocity":0.6771653543307087,"duration":"0.58"},{"name":"F3","midi":53,"time":"81.02","velocity":0.6771653543307087,"duration":"0.58"},{"name":"C4","midi":60,"time":"81.03","velocity":0.5984251968503937,"duration":"0.28"},{"name":"C4","midi":60,"time":"81.31","velocity":0.5984251968503937,"duration":"0.28"},{"name":"A3","midi":57,"time":"81.32","velocity":0.5984251968503937,"duration":"0.28"},{"name":"G2","midi":43,"time":"81.60","velocity":0.5196850393700787,"duration":"0.28"},{"name":"E4","midi":64,"time":"81.60","velocity":0.6771653543307087,"duration":"0.58"},{"name":"E3","midi":52,"time":"81.60","velocity":0.6771653543307087,"duration":"0.28"},{"name":"C3","midi":48,"time":"81.60","velocity":0.6771653543307087,"duration":"0.30"},{"name":"G3","midi":55,"time":"81.60","velocity":0.6771653543307087,"duration":"0.28"},{"name":"G4","midi":67,"time":"81.61","velocity":0.6771653543307087,"duration":"0.58"},{"name":"C4","midi":60,"time":"81.62","velocity":0.6771653543307087,"duration":"0.28"},{"name":"C3","midi":48,"time":"81.90","velocity":0.4881889763779528,"duration":"0.30"},{"name":"G3","midi":55,"time":"81.91","velocity":0.4881889763779528,"duration":"0.28"},{"name":"E3","midi":52,"time":"81.91","velocity":0.4881889763779528,"duration":"0.28"},{"name":"C3","midi":48,"time":"82.19","velocity":0.5984251968503937,"duration":"0.58"},{"name":"C4","midi":60,"time":"82.20","velocity":0.6771653543307087,"duration":"0.28"},{"name":"G4","midi":67,"time":"82.21","velocity":0.6771653543307087,"duration":"0.58"},{"name":"E3","midi":52,"time":"82.21","velocity":0.5984251968503937,"duration":"0.30"},{"name":"G3","midi":55,"time":"82.21","velocity":0.5984251968503937,"duration":"0.30"},{"name":"E4","midi":64,"time":"82.22","velocity":0.5984251968503937,"duration":"0.58"},{"name":"E3","midi":52,"time":"82.51","velocity":0.5984251968503937,"duration":"0.30"},{"name":"G3","midi":55,"time":"82.51","velocity":0.5984251968503937,"duration":"0.30"},{"name":"C4","midi":60,"time":"82.80","velocity":0.6771653543307087,"duration":"0.28"},{"name":"G4","midi":67,"time":"82.81","velocity":0.6771653543307087,"duration":"0.58"},{"name":"C3","midi":48,"time":"82.81","velocity":0.6771653543307087,"duration":"0.58"},{"name":"E3","midi":52,"time":"82.82","velocity":0.6771653543307087,"duration":"0.27"},{"name":"G3","midi":55,"time":"82.82","velocity":0.6771653543307087,"duration":"0.27"},{"name":"E4","midi":64,"time":"82.82","velocity":0.6771653543307087,"duration":"0.58"},{"name":"G3","midi":55,"time":"83.11","velocity":0.5196850393700787,"duration":"0.28"},{"name":"E3","midi":52,"time":"83.11","velocity":0.5196850393700787,"duration":"0.28"},{"name":"C3","midi":48,"time":"83.39","velocity":0.5984251968503937,"duration":"0.58"},{"name":"C4","midi":60,"time":"83.40","velocity":0.6771653543307087,"duration":"0.28"},{"name":"G4","midi":67,"time":"83.41","velocity":0.6771653543307087,"duration":"0.58"},{"name":"E3","midi":52,"time":"83.42","velocity":0.5984251968503937,"duration":"0.28"},{"name":"G3","midi":55,"time":"83.42","velocity":0.5984251968503937,"duration":"0.28"},{"name":"E4","midi":64,"time":"83.42","velocity":0.5984251968503937,"duration":"0.58"},{"name":"D4","midi":62,"time":"83.72","velocity":0.5984251968503937,"duration":"0.27"},{"name":"E3","midi":52,"time":"83.72","velocity":0.5984251968503937,"duration":"0.27"},{"name":"C4","midi":60,"time":"84.01","velocity":0.6771653543307087,"duration":"0.28"},{"name":"E4","midi":64,"time":"84.01","velocity":0.6771653543307087,"duration":"0.58"},{"name":"G4","midi":67,"time":"84.02","velocity":0.6771653543307087,"duration":"0.58"},{"name":"C3","midi":48,"time":"84.02","velocity":0.6771653543307087,"duration":"0.58"},{"name":"G3","midi":55,"time":"84.03","velocity":0.6771653543307087,"duration":"0.28"},{"name":"E3","midi":52,"time":"84.03","velocity":0.6771653543307087,"duration":"0.28"},{"name":"E3","midi":52,"time":"84.32","velocity":0.5196850393700787,"duration":"0.28"},{"name":"G3","midi":55,"time":"84.32","velocity":0.5196850393700787,"duration":"0.28"},{"name":"C4","midi":60,"time":"84.60","velocity":0.6771653543307087,"duration":"0.28"},{"name":"C3","midi":48,"time":"84.60","velocity":0.5984251968503937,"duration":"0.58"},{"name":"E3","midi":52,"time":"84.62","velocity":0.5984251968503937,"duration":"0.58"},{"name":"G4","midi":67,"time":"84.62","velocity":0.6771653543307087,"duration":"0.58"},{"name":"G3","midi":55,"time":"84.62","velocity":0.5984251968503937,"duration":"0.29"},{"name":"E4","midi":64,"time":"84.63","velocity":0.5984251968503937,"duration":"0.58"},{"name":"G3","midi":55,"time":"84.91","velocity":0.5984251968503937,"duration":"0.30"},{"name":"C4","midi":60,"time":"85.21","velocity":0.6771653543307087,"duration":"0.28"},{"name":"G4","midi":67,"time":"85.22","velocity":0.6771653543307087,"duration":"0.58"},{"name":"C3","midi":48,"time":"85.22","velocity":0.6771653543307087,"duration":"0.58"},{"name":"E3","midi":52,"time":"85.23","velocity":0.6771653543307087,"duration":"0.28"},{"name":"G3","midi":55,"time":"85.23","velocity":0.6771653543307087,"duration":"0.28"},{"name":"E4","midi":64,"time":"85.23","velocity":0.6771653543307087,"duration":"0.58"},{"name":"E3","midi":52,"time":"85.52","velocity":0.5196850393700787,"duration":"0.28"},{"name":"G3","midi":55,"time":"85.52","velocity":0.5196850393700787,"duration":"0.28"},{"name":"A#4","midi":70,"time":"85.80","velocity":0.6771653543307087,"duration":"0.58"},{"name":"E5","midi":76,"time":"85.80","velocity":0.6771653543307087,"duration":"0.58"},{"name":"C3","midi":48,"time":"85.80","velocity":0.5984251968503937,"duration":"0.60"},{"name":"C4","midi":60,"time":"85.81","velocity":0.6771653543307087,"duration":"0.28"},{"name":"G4","midi":67,"time":"85.82","velocity":0.6771653543307087,"duration":"0.58"},{"name":"E3","midi":52,"time":"85.83","velocity":0.5984251968503937,"duration":"0.58"},{"name":"G3","midi":55,"time":"85.83","velocity":0.5984251968503937,"duration":"0.58"},{"name":"E4","midi":64,"time":"85.83","velocity":0.5984251968503937,"duration":"0.57"},{"name":"F2","midi":41,"time":"86.40","velocity":0.5196850393700787,"duration":"0.28"},{"name":"C3","midi":48,"time":"86.40","velocity":0.6771653543307087,"duration":"0.30"},{"name":"F4","midi":65,"time":"86.40","velocity":0.6771653543307087,"duration":"0.58"},{"name":"A3","midi":57,"time":"86.40","velocity":0.6771653543307087,"duration":"0.28"},{"name":"F3","midi":53,"time":"86.40","velocity":0.6771653543307087,"duration":"0.28"},{"name":"A4","midi":69,"time":"86.42","velocity":0.6771653543307087,"duration":"0.58"},{"name":"C4","midi":60,"time":"86.42","velocity":0.6771653543307087,"duration":"0.28"},{"name":"C3","midi":48,"time":"86.70","velocity":0.4881889763779528,"duration":"0.30"},{"name":"F3","midi":53,"time":"86.71","velocity":0.4881889763779528,"duration":"0.28"},{"name":"A3","midi":57,"time":"86.71","velocity":0.4881889763779528,"duration":"0.28"},{"name":"C3","midi":48,"time":"86.99","velocity":0.5984251968503937,"duration":"0.58"},{"name":"C4","midi":60,"time":"87.00","velocity":0.6771653543307087,"duration":"0.28"},{"name":"F2","midi":41,"time":"87.00","velocity":0.5196850393700787,"duration":"0.28"},{"name":"A3","midi":57,"time":"87.01","velocity":0.5984251968503937,"duration":"0.30"},{"name":"F3","midi":53,"time":"87.01","velocity":0.5984251968503937,"duration":"0.30"},{"name":"A4","midi":69,"time":"87.02","velocity":0.6771653543307087,"duration":"0.58"},{"name":"F4","midi":65,"time":"87.02","velocity":0.5984251968503937,"duration":"0.58"},{"name":"F3","midi":53,"time":"87.31","velocity":0.5984251968503937,"duration":"0.30"},{"name":"A3","midi":57,"time":"87.31","velocity":0.5984251968503937,"duration":"0.30"},{"name":"C4","midi":60,"time":"87.60","velocity":0.6771653543307087,"duration":"0.28"},{"name":"F2","midi":41,"time":"87.60","velocity":0.5196850393700787,"duration":"0.28"},{"name":"C3","midi":48,"time":"87.61","velocity":0.6771653543307087,"duration":"0.58"},{"name":"A4","midi":69,"time":"87.62","velocity":0.6771653543307087,"duration":"0.58"},{"name":"F3","midi":53,"time":"87.62","velocity":0.6771653543307087,"duration":"0.27"},{"name":"A3","midi":57,"time":"87.62","velocity":0.6771653543307087,"duration":"0.27"},{"name":"F4","midi":65,"time":"87.62","velocity":0.6771653543307087,"duration":"0.58"},{"name":"F3","midi":53,"time":"87.91","velocity":0.5196850393700787,"duration":"0.28"},{"name":"A3","midi":57,"time":"87.91","velocity":0.5196850393700787,"duration":"0.28"},{"name":"C3","midi":48,"time":"88.19","velocity":0.5984251968503937,"duration":"0.58"},{"name":"A4","midi":69,"time":"88.20","velocity":0.6771653543307087,"duration":"0.58"},{"name":"F2","midi":41,"time":"88.20","velocity":0.5196850393700787,"duration":"0.28"},{"name":"C4","midi":60,"time":"88.20","velocity":0.6771653543307087,"duration":"0.28"},{"name":"A3","midi":57,"time":"88.22","velocity":0.5984251968503937,"duration":"0.28"},{"name":"F3","midi":53,"time":"88.22","velocity":0.5984251968503937,"duration":"0.28"},{"name":"F4","midi":65,"time":"88.22","velocity":0.5984251968503937,"duration":"0.58"},{"name":"F3","midi":53,"time":"88.52","velocity":0.5984251968503937,"duration":"0.28"},{"name":"F4","midi":65,"time":"88.80","velocity":0.6771653543307087,"duration":"0.58"},{"name":"F3","midi":53,"time":"88.80","velocity":0.6771653543307087,"duration":"0.28"},{"name":"D4","midi":62,"time":"88.80","velocity":0.6771653543307087,"duration":"0.28"},{"name":"A#3","midi":58,"time":"88.80","velocity":0.6771653543307087,"duration":"0.28"},{"name":"A#2","midi":46,"time":"88.80","velocity":0.6771653543307087,"duration":"0.30"},{"name":"A#4","midi":70,"time":"88.82","velocity":0.6771653543307087,"duration":"0.58"},{"name":"A#2","midi":46,"time":"89.10","velocity":0.4881889763779528,"duration":"0.30"},{"name":"F3","midi":53,"time":"89.11","velocity":0.4881889763779528,"duration":"0.28"},{"name":"A#3","midi":58,"time":"89.11","velocity":0.4881889763779528,"duration":"0.28"},{"name":"D4","midi":62,"time":"89.38","velocity":0.6771653543307087,"duration":"0.28"},{"name":"A#2","midi":46,"time":"89.39","velocity":0.5984251968503937,"duration":"0.58"},{"name":"A#3","midi":58,"time":"89.41","velocity":0.5984251968503937,"duration":"0.30"},{"name":"F3","midi":53,"time":"89.41","velocity":0.5984251968503937,"duration":"0.30"},{"name":"F4","midi":65,"time":"89.42","velocity":0.5984251968503937,"duration":"0.58"},{"name":"A#4","midi":70,"time":"89.43","velocity":0.6771653543307087,"duration":"0.58"},{"name":"F3","midi":53,"time":"89.71","velocity":0.5984251968503937,"duration":"0.30"},{"name":"A#3","midi":58,"time":"89.71","velocity":0.5984251968503937,"duration":"0.30"},{"name":"D4","midi":62,"time":"89.98","velocity":0.6771653543307087,"duration":"0.28"},{"name":"A#2","midi":46,"time":"90.01","velocity":0.6771653543307087,"duration":"0.58"},{"name":"F3","midi":53,"time":"90.02","velocity":0.6771653543307087,"duration":"0.27"},{"name":"A#3","midi":58,"time":"90.02","velocity":0.6771653543307087,"duration":"0.27"},{"name":"F4","midi":65,"time":"90.02","velocity":0.6771653543307087,"duration":"0.58"},{"name":"A#4","midi":70,"time":"90.04","velocity":0.6771653543307087,"duration":"0.58"},{"name":"A#3","midi":58,"time":"90.31","velocity":0.5196850393700787,"duration":"0.28"},{"name":"F3","midi":53,"time":"90.31","velocity":0.5196850393700787,"duration":"0.28"},{"name":"D4","midi":62,"time":"90.59","velocity":0.6771653543307087,"duration":"0.28"},{"name":"A#2","midi":46,"time":"90.59","velocity":0.5984251968503937,"duration":"0.58"},{"name":"A4","midi":69,"time":"90.60","velocity":0.6771653543307087,"duration":"0.58"},{"name":"A#3","midi":58,"time":"90.62","velocity":0.5984251968503937,"duration":"0.28"},{"name":"F3","midi":53,"time":"90.62","velocity":0.5984251968503937,"duration":"0.28"},{"name":"F4","midi":65,"time":"90.62","velocity":0.5984251968503937,"duration":"0.58"},{"name":"F3","midi":53,"time":"90.92","velocity":0.5984251968503937,"duration":"0.28"},{"name":"F2","midi":41,"time":"91.20","velocity":0.5196850393700787,"duration":"0.28"},{"name":"C3","midi":48,"time":"91.20","velocity":0.6771653543307087,"duration":"0.30"},{"name":"F4","midi":65,"time":"91.20","velocity":0.6771653543307087,"duration":"0.58"},{"name":"A3","midi":57,"time":"91.20","velocity":0.6771653543307087,"duration":"0.28"},{"name":"F3","midi":53,"time":"91.20","velocity":0.6771653543307087,"duration":"0.28"},{"name":"A4","midi":69,"time":"91.22","velocity":0.6771653543307087,"duration":"0.58"},{"name":"C4","midi":60,"time":"91.22","velocity":0.6771653543307087,"duration":"0.28"},{"name":"C3","midi":48,"time":"91.50","velocity":0.4881889763779528,"duration":"0.30"},{"name":"F3","midi":53,"time":"91.51","velocity":0.4881889763779528,"duration":"0.28"},{"name":"A3","midi":57,"time":"91.51","velocity":0.4881889763779528,"duration":"0.28"},{"name":"C3","midi":48,"time":"91.79","velocity":0.5984251968503937,"duration":"0.58"},{"name":"C4","midi":60,"time":"91.80","velocity":0.6771653543307087,"duration":"0.28"},{"name":"F2","midi":41,"time":"91.80","velocity":0.5196850393700787,"duration":"0.28"},{"name":"A3","midi":57,"time":"91.81","velocity":0.5984251968503937,"duration":"0.30"},{"name":"F3","midi":53,"time":"91.81","velocity":0.5984251968503937,"duration":"0.30"},{"name":"A4","midi":69,"time":"91.82","velocity":0.6771653543307087,"duration":"0.58"},{"name":"F4","midi":65,"time":"91.82","velocity":0.5984251968503937,"duration":"0.58"},{"name":"F3","midi":53,"time":"92.11","velocity":0.5984251968503937,"duration":"0.30"},{"name":"A3","midi":57,"time":"92.11","velocity":0.5984251968503937,"duration":"0.30"},{"name":"C4","midi":60,"time":"92.40","velocity":0.6771653543307087,"duration":"0.28"},{"name":"F2","midi":41,"time":"92.40","velocity":0.5196850393700787,"duration":"0.28"},{"name":"C3","midi":48,"time":"92.41","velocity":0.6771653543307087,"duration":"0.58"},{"name":"A4","midi":69,"time":"92.42","velocity":0.6771653543307087,"duration":"0.58"},{"name":"F3","midi":53,"time":"92.42","velocity":0.6771653543307087,"duration":"0.27"},{"name":"A3","midi":57,"time":"92.42","velocity":0.6771653543307087,"duration":"0.27"},{"name":"F4","midi":65,"time":"92.42","velocity":0.6771653543307087,"duration":"0.58"},{"name":"F3","midi":53,"time":"92.71","velocity":0.5196850393700787,"duration":"0.28"},{"name":"A3","midi":57,"time":"92.71","velocity":0.5196850393700787,"duration":"0.28"},{"name":"C3","midi":48,"time":"92.99","velocity":0.5984251968503937,"duration":"0.58"},{"name":"A4","midi":69,"time":"93.00","velocity":0.6771653543307087,"duration":"0.58"},{"name":"F2","midi":41,"time":"93.00","velocity":0.5196850393700787,"duration":"0.28"},{"name":"C4","midi":60,"time":"93.00","velocity":0.6771653543307087,"duration":"0.28"},{"name":"A3","midi":57,"time":"93.02","velocity":0.5984251968503937,"duration":"0.28"},{"name":"F3","midi":53,"time":"93.02","velocity":0.5984251968503937,"duration":"0.28"},{"name":"F4","midi":65,"time":"93.02","velocity":0.5984251968503937,"duration":"0.58"},{"name":"F3","midi":53,"time":"93.32","velocity":0.5984251968503937,"duration":"0.28"},{"name":"F2","midi":41,"time":"93.60","velocity":0.5196850393700787,"duration":"0.28"},{"name":"C3","midi":48,"time":"93.60","velocity":0.6771653543307087,"duration":"0.30"},{"name":"F4","midi":65,"time":"93.60","velocity":0.6771653543307087,"duration":"0.58"},{"name":"A3","midi":57,"time":"93.60","velocity":0.6771653543307087,"duration":"0.28"},{"name":"F3","midi":53,"time":"93.60","velocity":0.6771653543307087,"duration":"0.28"},{"name":"A4","midi":69,"time":"93.62","velocity":0.6771653543307087,"duration":"0.58"},{"name":"C4","midi":60,"time":"93.62","velocity":0.6771653543307087,"duration":"0.28"},{"name":"C3","midi":48,"time":"93.90","velocity":0.4881889763779528,"duration":"0.30"},{"name":"F3","midi":53,"time":"93.91","velocity":0.4881889763779528,"duration":"0.28"},{"name":"A3","midi":57,"time":"93.91","velocity":0.4881889763779528,"duration":"0.28"},{"name":"C3","midi":48,"time":"94.19","velocity":0.5984251968503937,"duration":"0.58"},{"name":"C4","midi":60,"time":"94.20","velocity":0.6771653543307087,"duration":"0.28"},{"name":"F2","midi":41,"time":"94.20","velocity":0.5196850393700787,"duration":"0.28"},{"name":"A3","midi":57,"time":"94.21","velocity":0.5984251968503937,"duration":"0.30"},{"name":"F3","midi":53,"time":"94.21","velocity":0.5984251968503937,"duration":"0.30"},{"name":"A4","midi":69,"time":"94.22","velocity":0.6771653543307087,"duration":"0.58"},{"name":"F4","midi":65,"time":"94.22","velocity":0.5984251968503937,"duration":"0.58"},{"name":"F3","midi":53,"time":"94.51","velocity":0.5984251968503937,"duration":"0.30"},{"name":"A3","midi":57,"time":"94.51","velocity":0.5984251968503937,"duration":"0.30"},{"name":"C4","midi":60,"time":"94.80","velocity":0.6771653543307087,"duration":"0.28"},{"name":"F2","midi":41,"time":"94.80","velocity":0.5196850393700787,"duration":"0.28"},{"name":"C3","midi":48,"time":"94.81","velocity":0.6771653543307087,"duration":"0.58"},{"name":"A4","midi":69,"time":"94.82","velocity":0.6771653543307087,"duration":"0.58"},{"name":"F3","midi":53,"time":"94.82","velocity":0.6771653543307087,"duration":"0.27"},{"name":"A3","midi":57,"time":"94.82","velocity":0.6771653543307087,"duration":"0.27"},{"name":"F4","midi":65,"time":"94.82","velocity":0.6771653543307087,"duration":"0.58"},{"name":"F3","midi":53,"time":"95.11","velocity":0.5196850393700787,"duration":"0.28"},{"name":"A3","midi":57,"time":"95.11","velocity":0.5196850393700787,"duration":"0.28"},{"name":"C3","midi":48,"time":"95.39","velocity":0.5984251968503937,"duration":"0.58"},{"name":"A4","midi":69,"time":"95.40","velocity":0.6771653543307087,"duration":"0.58"},{"name":"F2","midi":41,"time":"95.40","velocity":0.5196850393700787,"duration":"0.28"},{"name":"C4","midi":60,"time":"95.40","velocity":0.6771653543307087,"duration":"0.28"},{"name":"A3","midi":57,"time":"95.42","velocity":0.5984251968503937,"duration":"0.28"},{"name":"F3","midi":53,"time":"95.42","velocity":0.5984251968503937,"duration":"0.28"},{"name":"F4","midi":65,"time":"95.42","velocity":0.5984251968503937,"duration":"0.58"},{"name":"F3","midi":53,"time":"95.72","velocity":0.5984251968503937,"duration":"0.28"},{"name":"F4","midi":65,"time":"96.00","velocity":0.6771653543307087,"duration":"0.58"},{"name":"C4","midi":60,"time":"96.00","velocity":0.6771653543307087,"duration":"0.28"},{"name":"A3","midi":57,"time":"96.00","velocity":0.6771653543307087,"duration":"0.28"},{"name":"D3","midi":50,"time":"96.00","velocity":0.6771653543307087,"duration":"0.30"},{"name":"F2","midi":41,"time":"96.00","velocity":0.5196850393700787,"duration":"0.28"},{"name":"D4","midi":62,"time":"96.01","velocity":0.6771653543307087,"duration":"0.28"},{"name":"A4","midi":69,"time":"96.02","velocity":0.6771653543307087,"duration":"0.58"},{"name":"D3","midi":50,"time":"96.30","velocity":0.4881889763779528,"duration":"0.30"},{"name":"D4","midi":62,"time":"96.31","velocity":0.4881889763779528,"duration":"0.28"},{"name":"A3","midi":57,"time":"96.31","velocity":0.4881889763779528,"duration":"0.28"},{"name":"D4","midi":62,"time":"96.59","velocity":0.6771653543307087,"duration":"0.28"},{"name":"D3","midi":50,"time":"96.59","velocity":0.5984251968503937,"duration":"0.58"},{"name":"F2","midi":41,"time":"96.60","velocity":0.5196850393700787,"duration":"0.28"},{"name":"C4","midi":60,"time":"96.61","velocity":0.5984251968503937,"duration":"0.30"},{"name":"A3","midi":57,"time":"96.61","velocity":0.5984251968503937,"duration":"0.30"},{"name":"A4","midi":69,"time":"96.62","velocity":0.6771653543307087,"duration":"0.58"},{"name":"F4","midi":65,"time":"96.62","velocity":0.5984251968503937,"duration":"0.58"},{"name":"A3","midi":57,"time":"96.91","velocity":0.4409448818897638,"duration":"0.30"},{"name":"D4","midi":62,"time":"96.91","velocity":0.4409448818897638,"duration":"0.30"},{"name":"D4","midi":62,"time":"97.19","velocity":0.6771653543307087,"duration":"0.28"},{"name":"F2","midi":41,"time":"97.20","velocity":0.5196850393700787,"duration":"0.28"},{"name":"D3","midi":50,"time":"97.21","velocity":0.6771653543307087,"duration":"0.58"},{"name":"A3","midi":57,"time":"97.22","velocity":0.6771653543307087,"duration":"0.28"},{"name":"C4","midi":60,"time":"97.22","velocity":0.6771653543307087,"duration":"0.28"},{"name":"A4","midi":69,"time":"97.22","velocity":0.6771653543307087,"duration":"0.58"},{"name":"F4","midi":65,"time":"97.22","velocity":0.6771653543307087,"duration":"0.58"},{"name":"A3","midi":57,"time":"97.51","velocity":0.3937007874015748,"duration":"0.28"},{"name":"D4","midi":62,"time":"97.51","velocity":0.3937007874015748,"duration":"0.28"},{"name":"D3","midi":50,"time":"97.79","velocity":0.5984251968503937,"duration":"0.58"},{"name":"D4","midi":62,"time":"97.79","velocity":0.6771653543307087,"duration":"0.28"},{"name":"F2","midi":41,"time":"97.80","velocity":0.5196850393700787,"duration":"0.28"},{"name":"A4","midi":69,"time":"97.80","velocity":0.6771653543307087,"duration":"0.58"},{"name":"C4","midi":60,"time":"97.82","velocity":0.5984251968503937,"duration":"0.28"},{"name":"A3","midi":57,"time":"97.82","velocity":0.5984251968503937,"duration":"0.28"},{"name":"F4","midi":65,"time":"97.82","velocity":0.5984251968503937,"duration":"0.58"},{"name":"A3","midi":57,"time":"98.12","velocity":0.5984251968503937,"duration":"0.28"},{"name":"F4","midi":65,"time":"98.40","velocity":0.6771653543307087,"duration":"0.58"},{"name":"F3","midi":53,"time":"98.40","velocity":0.6771653543307087,"duration":"0.30"},{"name":"A#2","midi":46,"time":"98.40","velocity":0.5196850393700787,"duration":"0.28"},{"name":"D4","midi":62,"time":"98.40","velocity":0.6771653543307087,"duration":"0.28"},{"name":"A#3","midi":58,"time":"98.40","velocity":0.6771653543307087,"duration":"0.28"},{"name":"A#4","midi":70,"time":"98.41","velocity":0.6771653543307087,"duration":"0.58"},{"name":"F3","midi":53,"time":"98.70","velocity":0.4881889763779528,"duration":"0.30"},{"name":"A#3","midi":58,"time":"98.71","velocity":0.4881889763779528,"duration":"0.28"},{"name":"D4","midi":62,"time":"98.99","velocity":0.6771653543307087,"duration":"0.28"},{"name":"F3","midi":53,"time":"98.99","velocity":0.5984251968503937,"duration":"0.58"},{"name":"A#2","midi":46,"time":"99.00","velocity":0.5196850393700787,"duration":"0.28"},{"name":"A#4","midi":70,"time":"99.01","velocity":0.6771653543307087,"duration":"0.58"},{"name":"A#3","midi":58,"time":"99.01","velocity":0.5984251968503937,"duration":"0.30"},{"name":"F4","midi":65,"time":"99.02","velocity":0.5984251968503937,"duration":"0.58"},{"name":"A#3","midi":58,"time":"99.31","velocity":0.5984251968503937,"duration":"0.30"},{"name":"D4","midi":62,"time":"99.59","velocity":0.6771653543307087,"duration":"0.28"},{"name":"A#2","midi":46,"time":"99.60","velocity":0.5196850393700787,"duration":"0.28"},{"name":"F3","midi":53,"time":"99.61","velocity":0.6771653543307087,"duration":"0.58"},{"name":"A#4","midi":70,"time":"99.61","velocity":0.6771653543307087,"duration":"0.58"},{"name":"A#3","midi":58,"time":"99.62","velocity":0.6771653543307087,"duration":"0.28"},{"name":"F4","midi":65,"time":"99.62","velocity":0.6771653543307087,"duration":"0.58"},{"name":"A#3","midi":58,"time":"99.91","velocity":0.5196850393700787,"duration":"0.28"},{"name":"D4","midi":62,"time":"100.19","velocity":0.6771653543307087,"duration":"0.28"},{"name":"A#4","midi":70,"time":"100.19","velocity":0.6771653543307087,"duration":"0.58"},{"name":"F3","midi":53,"time":"100.19","velocity":0.5984251968503937,"duration":"0.58"},{"name":"A#2","midi":46,"time":"100.20","velocity":0.5196850393700787,"duration":"0.28"},{"name":"A#3","midi":58,"time":"100.22","velocity":0.5984251968503937,"duration":"0.28"},{"name":"F4","midi":65,"time":"100.22","velocity":0.5984251968503937,"duration":"0.58"},{"name":"C4","midi":60,"time":"100.52","velocity":0.5984251968503937,"duration":"0.27"},{"name":"F2","midi":41,"time":"100.80","velocity":0.5196850393700787,"duration":"0.28"},{"name":"C3","midi":48,"time":"100.80","velocity":0.6771653543307087,"duration":"0.30"},{"name":"F4","midi":65,"time":"100.80","velocity":0.6771653543307087,"duration":"0.58"},{"name":"A3","midi":57,"time":"100.80","velocity":0.6771653543307087,"duration":"0.28"},{"name":"F3","midi":53,"time":"100.80","velocity":0.6771653543307087,"duration":"0.28"},{"name":"A4","midi":69,"time":"100.82","velocity":0.6771653543307087,"duration":"0.58"},{"name":"C4","midi":60,"time":"100.82","velocity":0.6771653543307087,"duration":"0.53"},{"name":"C3","midi":48,"time":"101.10","velocity":0.4881889763779528,"duration":"0.30"},{"name":"F3","midi":53,"time":"101.11","velocity":0.4881889763779528,"duration":"0.28"},{"name":"A3","midi":57,"time":"101.11","velocity":0.4881889763779528,"duration":"0.28"},{"name":"C3","midi":48,"time":"101.39","velocity":0.5984251968503937,"duration":"0.58"},{"name":"C4","midi":60,"time":"101.40","velocity":0.6771653543307087,"duration":"0.56"},{"name":"F2","midi":41,"time":"101.40","velocity":0.5196850393700787,"duration":"0.28"},{"name":"A3","midi":57,"time":"101.41","velocity":0.5984251968503937,"duration":"0.30"},{"name":"F3","midi":53,"time":"101.41","velocity":0.5984251968503937,"duration":"0.30"},{"name":"A4","midi":69,"time":"101.42","velocity":0.6771653543307087,"duration":"0.58"},{"name":"F4","midi":65,"time":"101.42","velocity":0.5984251968503937,"duration":"0.58"},{"name":"F3","midi":53,"time":"101.71","velocity":0.5984251968503937,"duration":"0.30"},{"name":"A3","midi":57,"time":"101.71","velocity":0.5984251968503937,"duration":"0.30"},{"name":"C4","midi":60,"time":"102.00","velocity":0.6771653543307087,"duration":"0.58"},{"name":"F2","midi":41,"time":"102.00","velocity":0.5196850393700787,"duration":"0.28"},{"name":"C3","midi":48,"time":"102.01","velocity":0.6771653543307087,"duration":"0.58"},{"name":"A4","midi":69,"time":"102.02","velocity":0.6771653543307087,"duration":"0.58"},{"name":"F3","midi":53,"time":"102.02","velocity":0.6771653543307087,"duration":"0.28"},{"name":"A3","midi":57,"time":"102.02","velocity":0.6771653543307087,"duration":"0.28"},{"name":"F4","midi":65,"time":"102.02","velocity":0.6771653543307087,"duration":"0.58"},{"name":"F3","midi":53,"time":"102.31","velocity":0.5196850393700787,"duration":"0.28"},{"name":"A3","midi":57,"time":"102.31","velocity":0.5196850393700787,"duration":"0.28"},{"name":"C3","midi":48,"time":"102.59","velocity":0.5984251968503937,"duration":"0.58"},{"name":"A4","midi":69,"time":"102.60","velocity":0.6771653543307087,"duration":"0.58"},{"name":"F2","midi":41,"time":"102.60","velocity":0.5196850393700787,"duration":"0.28"},{"name":"C4","midi":60,"time":"102.60","velocity":0.6771653543307087,"duration":"0.57"},{"name":"A3","midi":57,"time":"102.62","velocity":0.5984251968503937,"duration":"0.28"},{"name":"F3","midi":53,"time":"102.62","velocity":0.5984251968503937,"duration":"0.28"},{"name":"F4","midi":65,"time":"102.62","velocity":0.5984251968503937,"duration":"0.55"},{"name":"F3","midi":53,"time":"102.92","velocity":0.5984251968503937,"duration":"0.28"},{"name":"F4","midi":65,"time":"103.20","velocity":0.5984251968503937,"duration":"0.54"},{"name":"G3","midi":55,"time":"103.20","velocity":0.6771653543307087,"duration":"0.30"},{"name":"G4","midi":67,"time":"103.21","velocity":0.6771653543307087,"duration":"0.58"},{"name":"C3","midi":48,"time":"103.21","velocity":0.6771653543307087,"duration":"0.58"},{"name":"F3","midi":53,"time":"103.21","velocity":0.6771653543307087,"duration":"0.58"},{"name":"F2","midi":41,"time":"103.22","velocity":0.6771653543307087,"duration":"0.58"},{"name":"C4","midi":60,"time":"103.22","velocity":0.6771653543307087,"duration":"0.28"},{"name":"G3","midi":55,"time":"103.51","velocity":0.6771653543307087,"duration":"0.30"},{"name":"C4","midi":60,"time":"103.51","velocity":0.6771653543307087,"duration":"0.28"},{"name":"F2","midi":41,"time":"103.80","velocity":0.5984251968503937,"duration":"0.58"},{"name":"C3","midi":48,"time":"103.80","velocity":0.5984251968503937,"duration":"0.58"},{"name":"F4","midi":65,"time":"103.80","velocity":0.5354330708661418,"duration":"0.58"},{"name":"G4","midi":67,"time":"103.81","velocity":0.6771653543307087,"duration":"0.58"},{"name":"F3","midi":53,"time":"103.81","velocity":0.6771653543307087,"duration":"0.58"},{"name":"C4","midi":60,"time":"103.81","velocity":0.5984251968503937,"duration":"0.29"},{"name":"G3","midi":55,"time":"103.82","velocity":0.6771653543307087,"duration":"0.31"},{"name":"C4","midi":60,"time":"104.10","velocity":0.5984251968503937,"duration":"0.29"},{"name":"G3","midi":55,"time":"104.11","velocity":0.5984251968503937,"duration":"0.28"},{"name":"F4","midi":65,"time":"104.41","velocity":0.5354330708661418,"duration":"0.58"},{"name":"C3","midi":48,"time":"104.41","velocity":0.6771653543307087,"duration":"0.58"},{"name":"G4","midi":67,"time":"104.41","velocity":0.6771653543307087,"duration":"0.58"},{"name":"F2","midi":41,"time":"104.41","velocity":0.6771653543307087,"duration":"0.58"},{"name":"G3","midi":55,"time":"104.42","velocity":0.5984251968503937,"duration":"0.28"},{"name":"F3","midi":53,"time":"104.42","velocity":0.6771653543307087,"duration":"0.58"},{"name":"C4","midi":60,"time":"104.42","velocity":0.6771653543307087,"duration":"0.28"},{"name":"C4","midi":60,"time":"104.70","velocity":0.6771653543307087,"duration":"0.28"},{"name":"G3","midi":55,"time":"104.71","velocity":0.5984251968503937,"duration":"0.28"},{"name":"F2","midi":41,"time":"105.00","velocity":0.5984251968503937,"duration":"0.58"},{"name":"F4","midi":65,"time":"105.01","velocity":0.5354330708661418,"duration":"0.58"},{"name":"G3","midi":55,"time":"105.01","velocity":0.5984251968503937,"duration":"0.28"},{"name":"C3","midi":48,"time":"105.01","velocity":0.5984251968503937,"duration":"0.58"},{"name":"G4","midi":67,"time":"105.01","velocity":0.6771653543307087,"duration":"0.58"},{"name":"F3","midi":53,"time":"105.01","velocity":0.6771653543307087,"duration":"0.58"},{"name":"C4","midi":60,"time":"105.02","velocity":0.5984251968503937,"duration":"0.28"},{"name":"C4","midi":60,"time":"105.30","velocity":0.5984251968503937,"duration":"0.28"},{"name":"G3","midi":55,"time":"105.31","velocity":0.5984251968503937,"duration":"0.30"},{"name":"D4","midi":62,"time":"105.60","velocity":0.5984251968503937,"duration":"0.58"},{"name":"A4","midi":69,"time":"105.61","velocity":0.6771653543307087,"duration":"0.58"},{"name":"A3","midi":57,"time":"105.61","velocity":0.6771653543307087,"duration":"0.29"},{"name":"D3","midi":50,"time":"105.62","velocity":0.6771653543307087,"duration":"0.58"},{"name":"C4","midi":60,"time":"105.62","velocity":0.6771653543307087,"duration":"0.58"},{"name":"A3","midi":57,"time":"105.92","velocity":0.5748031496062992,"duration":"0.29"},{"name":"A3","midi":57,"time":"106.20","velocity":0.5984251968503937,"duration":"0.29"},{"name":"D3","midi":50,"time":"106.20","velocity":0.5984251968503937,"duration":"0.58"},{"name":"A4","midi":69,"time":"106.21","velocity":0.6771653543307087,"duration":"0.58"},{"name":"C4","midi":60,"time":"106.21","velocity":0.5984251968503937,"duration":"0.58"},{"name":"D4","midi":62,"time":"106.21","velocity":0.5984251968503937,"duration":"0.58"},{"name":"A3","midi":57,"time":"106.51","velocity":0.6299212598425197,"duration":"0.29"},{"name":"A4","midi":69,"time":"106.81","velocity":0.6771653543307087,"duration":"0.58"},{"name":"A3","midi":57,"time":"106.81","velocity":0.6771653543307087,"duration":"0.29"},{"name":"D3","midi":50,"time":"106.81","velocity":0.6771653543307087,"duration":"0.58"},{"name":"D4","midi":62,"time":"106.82","velocity":0.6771653543307087,"duration":"0.58"},{"name":"C4","midi":60,"time":"106.82","velocity":0.6771653543307087,"duration":"0.58"},{"name":"A3","midi":57,"time":"107.10","velocity":0.5748031496062992,"duration":"0.29"},{"name":"D3","midi":50,"time":"107.39","velocity":0.5984251968503937,"duration":"0.58"},{"name":"A4","midi":69,"time":"107.41","velocity":0.6771653543307087,"duration":"0.58"},{"name":"A3","midi":57,"time":"107.41","velocity":0.5984251968503937,"duration":"0.29"},{"name":"D4","midi":62,"time":"107.41","velocity":0.5984251968503937,"duration":"0.58"},{"name":"C4","midi":60,"time":"107.41","velocity":0.5984251968503937,"duration":"0.58"},{"name":"A3","midi":57,"time":"107.70","velocity":0.6299212598425197,"duration":"0.29"},{"name":"D4","midi":62,"time":"108.00","velocity":0.6771653543307087,"duration":"0.58"},{"name":"A#4","midi":70,"time":"108.01","velocity":0.6771653543307087,"duration":"0.58"},{"name":"A#2","midi":46,"time":"108.01","velocity":0.6771653543307087,"duration":"0.58"},{"name":"A#3","midi":58,"time":"108.01","velocity":0.6771653543307087,"duration":"0.29"},{"name":"F3","midi":53,"time":"108.01","velocity":0.6771653543307087,"duration":"0.28"},{"name":"F3","midi":53,"time":"108.30","velocity":0.5196850393700787,"duration":"0.28"},{"name":"A#3","midi":58,"time":"108.32","velocity":0.5748031496062992,"duration":"0.29"},{"name":"A#2","midi":46,"time":"108.59","velocity":0.5984251968503937,"duration":"0.58"},{"name":"A#3","midi":58,"time":"108.60","velocity":0.5984251968503937,"duration":"0.29"},{"name":"F3","midi":53,"time":"108.60","velocity":0.5984251968503937,"duration":"0.58"},{"name":"A#4","midi":70,"time":"108.61","velocity":0.6771653543307087,"duration":"0.58"},{"name":"D4","midi":62,"time":"108.61","velocity":0.5984251968503937,"duration":"0.58"},{"name":"A#3","midi":58,"time":"108.90","velocity":0.6299212598425197,"duration":"0.29"},{"name":"A#2","midi":46,"time":"109.20","velocity":0.6771653543307087,"duration":"0.58"},{"name":"A#4","midi":70,"time":"109.21","velocity":0.6771653543307087,"duration":"0.58"},{"name":"A#3","midi":58,"time":"109.21","velocity":0.6771653543307087,"duration":"0.29"},{"name":"F3","midi":53,"time":"109.21","velocity":0.6771653543307087,"duration":"0.27"},{"name":"D4","midi":62,"time":"109.22","velocity":0.6771653543307087,"duration":"0.58"},{"name":"A#3","midi":58,"time":"109.50","velocity":0.5748031496062992,"duration":"0.29"},{"name":"F3","midi":53,"time":"109.50","velocity":0.5196850393700787,"duration":"0.28"},{"name":"A#2","midi":46,"time":"109.79","velocity":0.5984251968503937,"duration":"0.58"},{"name":"A#4","midi":70,"time":"109.81","velocity":0.6771653543307087,"duration":"0.58"},{"name":"F3","midi":53,"time":"109.81","velocity":0.5984251968503937,"duration":"0.58"},{"name":"A#3","midi":58,"time":"109.81","velocity":0.5984251968503937,"duration":"0.29"},{"name":"D4","midi":62,"time":"109.82","velocity":0.5984251968503937,"duration":"0.58"},{"name":"C4","midi":60,"time":"110.11","velocity":0.6535433070866141,"duration":"0.29"},{"name":"A4","midi":69,"time":"110.40","velocity":0.6771653543307087,"duration":"0.58"},{"name":"A3","midi":57,"time":"110.40","velocity":0.6771653543307087,"duration":"0.29"},{"name":"C3","midi":48,"time":"110.40","velocity":0.6771653543307087,"duration":"0.58"},{"name":"F3","midi":53,"time":"110.41","velocity":0.6771653543307087,"duration":"0.31"},{"name":"F4","midi":65,"time":"110.41","velocity":0.48031496062992124,"duration":"0.58"},{"name":"F2","midi":41,"time":"110.41","velocity":0.6771653543307087,"duration":"0.58"},{"name":"C4","midi":60,"time":"110.41","velocity":0.6771653543307087,"duration":"0.58"},{"name":"F3","midi":53,"time":"110.70","velocity":0.6771653543307087,"duration":"0.30"},{"name":"A3","midi":57,"time":"110.71","velocity":0.5748031496062992,"duration":"0.29"},{"name":"F2","midi":41,"time":"110.99","velocity":0.5984251968503937,"duration":"0.58"},{"name":"C3","midi":48,"time":"110.99","velocity":0.5984251968503937,"duration":"0.58"},{"name":"A3","midi":57,"time":"110.99","velocity":0.5984251968503937,"duration":"0.29"},{"name":"F4","midi":65,"time":"111.00","velocity":0.4251968503937008,"duration":"0.58"},{"name":"C4","midi":60,"time":"111.00","velocity":0.5984251968503937,"duration":"0.58"},{"name":"A4","midi":69,"time":"111.00","velocity":0.6771653543307087,"duration":"0.58"},{"name":"F3","midi":53,"time":"111.00","velocity":0.5984251968503937,"duration":"0.30"},{"name":"A3","midi":57,"time":"111.30","velocity":0.6299212598425197,"duration":"0.29"},{"name":"F3","midi":53,"time":"111.30","velocity":0.5984251968503937,"duration":"0.30"},{"name":"A4","midi":69,"time":"111.60","velocity":0.6771653543307087,"duration":"0.58"},{"name":"F2","midi":41,"time":"111.60","velocity":0.6771653543307087,"duration":"0.58"},{"name":"F3","midi":53,"time":"111.60","velocity":0.6771653543307087,"duration":"0.30"},{"name":"C3","midi":48,"time":"111.60","velocity":0.6771653543307087,"duration":"0.58"},{"name":"F4","midi":65,"time":"111.61","velocity":0.48031496062992124,"duration":"0.58"},{"name":"A3","midi":57,"time":"111.61","velocity":0.6771653543307087,"duration":"0.29"},{"name":"C4","midi":60,"time":"111.61","velocity":0.6771653543307087,"duration":"0.58"},{"name":"A3","midi":57,"time":"111.90","velocity":0.5748031496062992,"duration":"0.29"},{"name":"F3","midi":53,"time":"111.90","velocity":0.5984251968503937,"duration":"0.30"},{"name":"F2","midi":41,"time":"112.19","velocity":0.5984251968503937,"duration":"0.58"},{"name":"C3","midi":48,"time":"112.20","velocity":0.5984251968503937,"duration":"0.58"},{"name":"A4","midi":69,"time":"112.20","velocity":0.6771653543307087,"duration":"0.58"},{"name":"F3","midi":53,"time":"112.20","velocity":0.5984251968503937,"duration":"0.30"},{"name":"F4","midi":65,"time":"112.21","velocity":0.4251968503937008,"duration":"0.58"},{"name":"A3","midi":57,"time":"112.21","velocity":0.5984251968503937,"duration":"0.29"},{"name":"C4","midi":60,"time":"112.21","velocity":0.5984251968503937,"duration":"0.58"},{"name":"F3","midi":53,"time":"112.50","velocity":0.5984251968503937,"duration":"0.30"},{"name":"A3","midi":57,"time":"112.50","velocity":0.6299212598425197,"duration":"0.29"},{"name":"F4","midi":65,"time":"112.80","velocity":0.5354330708661418,"duration":"0.58"},{"name":"A3","midi":57,"time":"112.80","velocity":0.6771653543307087,"duration":"0.30"},{"name":"A4","midi":69,"time":"112.80","velocity":0.6771653543307087,"duration":"0.58"},{"name":"C3","midi":48,"time":"112.81","velocity":0.6771653543307087,"duration":"0.58"},{"name":"F3","midi":53,"time":"112.81","velocity":0.6771653543307087,"duration":"0.58"},{"name":"F2","midi":41,"time":"112.82","velocity":0.6771653543307087,"duration":"0.58"},{"name":"C4","midi":60,"time":"112.82","velocity":0.6771653543307087,"duration":"0.28"},{"name":"A3","midi":57,"time":"113.11","velocity":0.6771653543307087,"duration":"0.30"},{"name":"C4","midi":60,"time":"113.11","velocity":0.6771653543307087,"duration":"0.28"},{"name":"C3","midi":48,"time":"113.40","velocity":0.5984251968503937,"duration":"0.58"},{"name":"F2","midi":41,"time":"113.40","velocity":0.5984251968503937,"duration":"0.58"},{"name":"F4","midi":65,"time":"113.40","velocity":0.5354330708661418,"duration":"0.58"},{"name":"A4","midi":69,"time":"113.40","velocity":0.6771653543307087,"duration":"0.58"},{"name":"F3","midi":53,"time":"113.41","velocity":0.6771653543307087,"duration":"0.58"},{"name":"C4","midi":60,"time":"113.41","velocity":0.5984251968503937,"duration":"0.29"},{"name":"A3","midi":57,"time":"113.42","velocity":0.6771653543307087,"duration":"0.31"},{"name":"C4","midi":60,"time":"113.70","velocity":0.5984251968503937,"duration":"0.29"},{"name":"A3","midi":57,"time":"113.71","velocity":0.5984251968503937,"duration":"0.28"},{"name":"A4","midi":69,"time":"114.00","velocity":0.6771653543307087,"duration":"0.58"},{"name":"C3","midi":48,"time":"114.01","velocity":0.6771653543307087,"duration":"0.58"},{"name":"F4","midi":65,"time":"114.01","velocity":0.5354330708661418,"duration":"0.58"},{"name":"F2","midi":41,"time":"114.01","velocity":0.6771653543307087,"duration":"0.58"},{"name":"F3","midi":53,"time":"114.02","velocity":0.6771653543307087,"duration":"0.58"},{"name":"A3","midi":57,"time":"114.02","velocity":0.5984251968503937,"duration":"0.28"},{"name":"C4","midi":60,"time":"114.02","velocity":0.6771653543307087,"duration":"0.28"},{"name":"C4","midi":60,"time":"114.30","velocity":0.6771653543307087,"duration":"0.28"},{"name":"A3","midi":57,"time":"114.31","velocity":0.5984251968503937,"duration":"0.28"},{"name":"F2","midi":41,"time":"114.60","velocity":0.5984251968503937,"duration":"0.58"},{"name":"A4","midi":69,"time":"114.60","velocity":0.6771653543307087,"duration":"0.58"},{"name":"F4","midi":65,"time":"114.61","velocity":0.5354330708661418,"duration":"0.58"},{"name":"C3","midi":48,"time":"114.61","velocity":0.5984251968503937,"duration":"0.58"},{"name":"A3","midi":57,"time":"114.61","velocity":0.5984251968503937,"duration":"0.28"},{"name":"F3","midi":53,"time":"114.61","velocity":0.6771653543307087,"duration":"0.58"},{"name":"C4","midi":60,"time":"114.62","velocity":0.5984251968503937,"duration":"0.28"},{"name":"C4","midi":60,"time":"114.90","velocity":0.5984251968503937,"duration":"0.28"},{"name":"A3","midi":57,"time":"114.91","velocity":0.5984251968503937,"duration":"0.30"},{"name":"D4","midi":62,"time":"115.19","velocity":0.6771653543307087,"duration":"0.58"},{"name":"A4","midi":69,"time":"115.20","velocity":0.6771653543307087,"duration":"0.58"},{"name":"A3","midi":57,"time":"115.20","velocity":0.6771653543307087,"duration":"0.29"},{"name":"D3","midi":50,"time":"115.21","velocity":0.6771653543307087,"duration":"0.58"},{"name":"C4","midi":60,"time":"115.21","velocity":0.6771653543307087,"duration":"0.58"},{"name":"A3","midi":57,"time":"115.51","velocity":0.5748031496062992,"duration":"0.29"},{"name":"A3","midi":57,"time":"115.79","velocity":0.5984251968503937,"duration":"0.29"},{"name":"D3","midi":50,"time":"115.79","velocity":0.5984251968503937,"duration":"0.58"},{"name":"A4","midi":69,"time":"115.80","velocity":0.6771653543307087,"duration":"0.58"},{"name":"C4","midi":60,"time":"115.80","velocity":0.5984251968503937,"duration":"0.58"},{"name":"D4","midi":62,"time":"115.81","velocity":0.5984251968503937,"duration":"0.58"},{"name":"A3","midi":57,"time":"116.10","velocity":0.6299212598425197,"duration":"0.29"},{"name":"A4","midi":69,"time":"116.40","velocity":0.6771653543307087,"duration":"0.58"},{"name":"A3","midi":57,"time":"116.41","velocity":0.6771653543307087,"duration":"0.29"},{"name":"D3","midi":50,"time":"116.41","velocity":0.6771653543307087,"duration":"0.58"},{"name":"D4","midi":62,"time":"116.41","velocity":0.6771653543307087,"duration":"0.58"},{"name":"C4","midi":60,"time":"116.41","velocity":0.6771653543307087,"duration":"0.58"},{"name":"A3","midi":57,"time":"116.70","velocity":0.5748031496062992,"duration":"0.29"},{"name":"D3","midi":50,"time":"116.99","velocity":0.5984251968503937,"duration":"0.58"},{"name":"A4","midi":69,"time":"117.00","velocity":0.6771653543307087,"duration":"0.58"},{"name":"A3","midi":57,"time":"117.01","velocity":0.5984251968503937,"duration":"0.29"},{"name":"D4","midi":62,"time":"117.01","velocity":0.5984251968503937,"duration":"0.58"},{"name":"C4","midi":60,"time":"117.01","velocity":0.5984251968503937,"duration":"0.58"},{"name":"A3","midi":57,"time":"117.30","velocity":0.6299212598425197,"duration":"0.29"},{"name":"D4","midi":62,"time":"117.60","velocity":0.6771653543307087,"duration":"0.58"},{"name":"A#4","midi":70,"time":"117.61","velocity":0.6771653543307087,"duration":"0.58"},{"name":"A#2","midi":46,"time":"117.61","velocity":0.6771653543307087,"duration":"0.58"},{"name":"A#3","midi":58,"time":"117.61","velocity":0.6771653543307087,"duration":"0.29"},{"name":"F3","midi":53,"time":"117.61","velocity":0.6771653543307087,"duration":"0.28"},{"name":"F3","midi":53,"time":"117.90","velocity":0.5196850393700787,"duration":"0.28"},{"name":"A#3","midi":58,"time":"117.92","velocity":0.5748031496062992,"duration":"0.29"},{"name":"A#2","midi":46,"time":"118.19","velocity":0.5984251968503937,"duration":"0.58"},{"name":"A#3","midi":58,"time":"118.20","velocity":0.5984251968503937,"duration":"0.29"},{"name":"F3","midi":53,"time":"118.20","velocity":0.5984251968503937,"duration":"0.58"},{"name":"A#4","midi":70,"time":"118.21","velocity":0.6771653543307087,"duration":"0.58"},{"name":"D4","midi":62,"time":"118.21","velocity":0.5984251968503937,"duration":"0.58"},{"name":"A#3","midi":58,"time":"118.50","velocity":0.6299212598425197,"duration":"0.29"},{"name":"A#2","midi":46,"time":"118.80","velocity":0.6771653543307087,"duration":"0.58"},{"name":"A#4","midi":70,"time":"118.81","velocity":0.6771653543307087,"duration":"0.58"},{"name":"A#3","midi":58,"time":"118.81","velocity":0.6771653543307087,"duration":"0.29"},{"name":"F3","midi":53,"time":"118.81","velocity":0.6771653543307087,"duration":"0.27"},{"name":"D4","midi":62,"time":"118.82","velocity":0.6771653543307087,"duration":"0.58"},{"name":"A#3","midi":58,"time":"119.10","velocity":0.5748031496062992,"duration":"0.29"},{"name":"F3","midi":53,"time":"119.10","velocity":0.5196850393700787,"duration":"0.28"},{"name":"A#2","midi":46,"time":"119.39","velocity":0.5984251968503937,"duration":"0.58"},{"name":"A#4","midi":70,"time":"119.41","velocity":0.6771653543307087,"duration":"0.58"},{"name":"F3","midi":53,"time":"119.41","velocity":0.5984251968503937,"duration":"0.58"},{"name":"A#3","midi":58,"time":"119.41","velocity":0.5984251968503937,"duration":"0.29"},{"name":"D4","midi":62,"time":"119.42","velocity":0.5984251968503937,"duration":"0.58"},{"name":"C4","midi":60,"time":"119.71","velocity":0.6535433070866141,"duration":"0.29"},{"name":"A4","midi":69,"time":"120.00","velocity":0.6771653543307087,"duration":"0.58"},{"name":"A3","midi":57,"time":"120.00","velocity":0.6771653543307087,"duration":"0.29"},{"name":"C3","midi":48,"time":"120.00","velocity":0.6771653543307087,"duration":"0.58"},{"name":"F3","midi":53,"time":"120.01","velocity":0.6771653543307087,"duration":"0.31"},{"name":"F4","midi":65,"time":"120.01","velocity":0.48031496062992124,"duration":"0.58"},{"name":"F2","midi":41,"time":"120.01","velocity":0.6771653543307087,"duration":"0.58"},{"name":"C4","midi":60,"time":"120.01","velocity":0.6771653543307087,"duration":"0.58"},{"name":"F3","midi":53,"time":"120.30","velocity":0.6771653543307087,"duration":"0.30"},{"name":"A3","midi":57,"time":"120.31","velocity":0.5748031496062992,"duration":"0.29"},{"name":"F2","midi":41,"time":"120.59","velocity":0.5984251968503937,"duration":"0.58"},{"name":"C3","midi":48,"time":"120.59","velocity":0.5984251968503937,"duration":"0.58"},{"name":"A3","midi":57,"time":"120.59","velocity":0.5984251968503937,"duration":"0.29"},{"name":"F4","midi":65,"time":"120.60","velocity":0.4251968503937008,"duration":"0.58"},{"name":"C4","midi":60,"time":"120.60","velocity":0.5984251968503937,"duration":"0.58"},{"name":"A4","midi":69,"time":"120.60","velocity":0.6771653543307087,"duration":"0.58"},{"name":"F3","midi":53,"time":"120.60","velocity":0.5984251968503937,"duration":"0.30"},{"name":"A3","midi":57,"time":"120.90","velocity":0.6299212598425197,"duration":"0.29"},{"name":"F3","midi":53,"time":"120.90","velocity":0.5984251968503937,"duration":"0.30"},{"name":"A4","midi":69,"time":"121.20","velocity":0.6771653543307087,"duration":"0.58"},{"name":"F2","midi":41,"time":"121.20","velocity":0.6771653543307087,"duration":"0.58"},{"name":"F3","midi":53,"time":"121.20","velocity":0.6771653543307087,"duration":"0.30"},{"name":"C3","midi":48,"time":"121.20","velocity":0.6771653543307087,"duration":"0.58"},{"name":"F4","midi":65,"time":"121.21","velocity":0.48031496062992124,"duration":"0.58"},{"name":"A3","midi":57,"time":"121.21","velocity":0.6771653543307087,"duration":"0.29"},{"name":"C4","midi":60,"time":"121.21","velocity":0.6771653543307087,"duration":"0.58"},{"name":"A3","midi":57,"time":"121.50","velocity":0.5748031496062992,"duration":"0.29"},{"name":"F3","midi":53,"time":"121.50","velocity":0.5984251968503937,"duration":"0.30"},{"name":"F2","midi":41,"time":"121.79","velocity":0.5984251968503937,"duration":"0.58"},{"name":"C3","midi":48,"time":"121.80","velocity":0.5984251968503937,"duration":"0.58"},{"name":"A4","midi":69,"time":"121.80","velocity":0.6771653543307087,"duration":"0.58"},{"name":"F3","midi":53,"time":"121.80","velocity":0.5984251968503937,"duration":"0.30"},{"name":"F4","midi":65,"time":"121.81","velocity":0.4251968503937008,"duration":"0.58"},{"name":"A3","midi":57,"time":"121.81","velocity":0.5984251968503937,"duration":"0.29"},{"name":"C4","midi":60,"time":"121.81","velocity":0.5984251968503937,"duration":"0.58"},{"name":"F3","midi":53,"time":"122.10","velocity":0.5984251968503937,"duration":"0.30"},{"name":"A3","midi":57,"time":"122.10","velocity":0.6299212598425197,"duration":"0.29"},{"name":"F4","midi":65,"time":"122.40","velocity":0.5354330708661418,"duration":"0.58"},{"name":"A3","midi":57,"time":"122.40","velocity":0.6771653543307087,"duration":"0.30"},{"name":"A4","midi":69,"time":"122.40","velocity":0.6771653543307087,"duration":"0.58"},{"name":"C3","midi":48,"time":"122.41","velocity":0.6771653543307087,"duration":"0.58"},{"name":"F3","midi":53,"time":"122.41","velocity":0.6771653543307087,"duration":"0.58"},{"name":"F2","midi":41,"time":"122.42","velocity":0.6771653543307087,"duration":"0.58"},{"name":"C4","midi":60,"time":"122.42","velocity":0.6771653543307087,"duration":"0.28"},{"name":"A3","midi":57,"time":"122.71","velocity":0.6771653543307087,"duration":"0.30"},{"name":"C4","midi":60,"time":"122.71","velocity":0.6771653543307087,"duration":"0.28"},{"name":"C3","midi":48,"time":"123.00","velocity":0.5984251968503937,"duration":"0.58"},{"name":"F2","midi":41,"time":"123.00","velocity":0.5984251968503937,"duration":"0.58"},{"name":"F4","midi":65,"time":"123.00","velocity":0.5354330708661418,"duration":"0.58"},{"name":"A4","midi":69,"time":"123.00","velocity":0.6771653543307087,"duration":"0.58"},{"name":"F3","midi":53,"time":"123.01","velocity":0.6771653543307087,"duration":"0.58"},{"name":"C4","midi":60,"time":"123.01","velocity":0.5984251968503937,"duration":"0.29"},{"name":"A3","midi":57,"time":"123.02","velocity":0.6771653543307087,"duration":"0.31"},{"name":"C4","midi":60,"time":"123.30","velocity":0.5984251968503937,"duration":"0.29"},{"name":"A3","midi":57,"time":"123.31","velocity":0.5984251968503937,"duration":"0.28"},{"name":"A4","midi":69,"time":"123.60","velocity":0.6771653543307087,"duration":"0.58"},{"name":"C3","midi":48,"time":"123.61","velocity":0.6771653543307087,"duration":"0.58"},{"name":"F4","midi":65,"time":"123.61","velocity":0.5354330708661418,"duration":"0.58"},{"name":"F2","midi":41,"time":"123.61","velocity":0.6771653543307087,"duration":"0.58"},{"name":"F3","midi":53,"time":"123.62","velocity":0.6771653543307087,"duration":"0.58"},{"name":"A3","midi":57,"time":"123.62","velocity":0.5984251968503937,"duration":"0.28"},{"name":"C4","midi":60,"time":"123.62","velocity":0.6771653543307087,"duration":"0.28"},{"name":"C4","midi":60,"time":"123.90","velocity":0.6771653543307087,"duration":"0.28"},{"name":"A3","midi":57,"time":"123.91","velocity":0.5984251968503937,"duration":"0.28"},{"name":"F2","midi":41,"time":"124.20","velocity":0.5984251968503937,"duration":"0.58"},{"name":"A4","midi":69,"time":"124.20","velocity":0.6771653543307087,"duration":"0.58"},{"name":"F4","midi":65,"time":"124.21","velocity":0.5354330708661418,"duration":"0.58"},{"name":"C3","midi":48,"time":"124.21","velocity":0.5984251968503937,"duration":"0.58"},{"name":"A3","midi":57,"time":"124.21","velocity":0.5984251968503937,"duration":"0.28"},{"name":"F3","midi":53,"time":"124.21","velocity":0.6771653543307087,"duration":"0.58"},{"name":"C4","midi":60,"time":"124.22","velocity":0.5984251968503937,"duration":"0.28"},{"name":"C4","midi":60,"time":"124.50","velocity":0.5984251968503937,"duration":"0.28"},{"name":"A3","midi":57,"time":"124.51","velocity":0.5984251968503937,"duration":"0.30"},{"name":"A4","midi":69,"time":"124.80","velocity":0.6771653543307087,"duration":"0.58"},{"name":"A3","midi":57,"time":"124.80","velocity":0.6771653543307087,"duration":"0.29"},{"name":"D3","midi":50,"time":"124.81","velocity":0.6771653543307087,"duration":"0.58"},{"name":"C4","midi":60,"time":"124.81","velocity":0.6771653543307087,"duration":"0.58"},{"name":"A3","midi":57,"time":"125.11","velocity":0.5748031496062992,"duration":"0.29"},{"name":"A3","midi":57,"time":"125.39","velocity":0.5984251968503937,"duration":"0.29"},{"name":"D3","midi":50,"time":"125.39","velocity":0.5984251968503937,"duration":"0.58"},{"name":"A4","midi":69,"time":"125.40","velocity":0.6771653543307087,"duration":"0.58"},{"name":"C4","midi":60,"time":"125.40","velocity":0.5984251968503937,"duration":"0.58"},{"name":"D4","midi":62,"time":"125.41","velocity":0.5984251968503937,"duration":"0.58"},{"name":"A3","midi":57,"time":"125.70","velocity":0.6299212598425197,"duration":"0.29"},{"name":"A4","midi":69,"time":"126.00","velocity":0.6771653543307087,"duration":"0.58"},{"name":"A3","midi":57,"time":"126.01","velocity":0.6771653543307087,"duration":"0.29"},{"name":"D3","midi":50,"time":"126.01","velocity":0.6771653543307087,"duration":"0.58"},{"name":"D4","midi":62,"time":"126.01","velocity":0.6771653543307087,"duration":"0.58"},{"name":"C4","midi":60,"time":"126.01","velocity":0.6771653543307087,"duration":"0.58"},{"name":"A3","midi":57,"time":"126.30","velocity":0.5748031496062992,"duration":"0.29"},{"name":"D3","midi":50,"time":"126.59","velocity":0.5984251968503937,"duration":"0.58"},{"name":"A4","midi":69,"time":"126.60","velocity":0.6771653543307087,"duration":"0.58"},{"name":"A3","midi":57,"time":"126.61","velocity":0.5984251968503937,"duration":"0.29"},{"name":"D4","midi":62,"time":"126.61","velocity":0.5984251968503937,"duration":"0.58"},{"name":"C4","midi":60,"time":"126.61","velocity":0.5984251968503937,"duration":"0.58"},{"name":"A3","midi":57,"time":"126.90","velocity":0.6299212598425197,"duration":"0.29"},{"name":"D4","midi":62,"time":"127.20","velocity":0.6771653543307087,"duration":"0.58"},{"name":"A#4","midi":70,"time":"127.21","velocity":0.6771653543307087,"duration":"0.58"},{"name":"A#2","midi":46,"time":"127.21","velocity":0.6771653543307087,"duration":"0.58"},{"name":"A#3","midi":58,"time":"127.21","velocity":0.6771653543307087,"duration":"0.29"},{"name":"F3","midi":53,"time":"127.21","velocity":0.6771653543307087,"duration":"0.28"},{"name":"F3","midi":53,"time":"127.50","velocity":0.5196850393700787,"duration":"0.28"},{"name":"A#3","midi":58,"time":"127.52","velocity":0.5748031496062992,"duration":"0.29"},{"name":"A#2","midi":46,"time":"127.79","velocity":0.5984251968503937,"duration":"0.58"},{"name":"A#3","midi":58,"time":"127.80","velocity":0.5984251968503937,"duration":"0.29"},{"name":"F3","midi":53,"time":"127.80","velocity":0.5984251968503937,"duration":"0.58"},{"name":"A#4","midi":70,"time":"127.81","velocity":0.6771653543307087,"duration":"0.58"},{"name":"D4","midi":62,"time":"127.81","velocity":0.5984251968503937,"duration":"0.58"},{"name":"A#3","midi":58,"time":"128.10","velocity":0.6299212598425197,"duration":"0.29"},{"name":"A#2","midi":46,"time":"128.40","velocity":0.6771653543307087,"duration":"0.58"},{"name":"A#4","midi":70,"time":"128.41","velocity":0.6771653543307087,"duration":"0.58"},{"name":"A#3","midi":58,"time":"128.41","velocity":0.6771653543307087,"duration":"0.29"},{"name":"F3","midi":53,"time":"128.41","velocity":0.6771653543307087,"duration":"0.28"},{"name":"D4","midi":62,"time":"128.42","velocity":0.6771653543307087,"duration":"0.58"},{"name":"A#3","midi":58,"time":"128.70","velocity":0.5748031496062992,"duration":"0.29"},{"name":"F3","midi":53,"time":"128.70","velocity":0.5196850393700787,"duration":"0.28"},{"name":"A#2","midi":46,"time":"128.99","velocity":0.5984251968503937,"duration":"0.58"},{"name":"A#4","midi":70,"time":"129.01","velocity":0.6771653543307087,"duration":"0.58"},{"name":"F3","midi":53,"time":"129.01","velocity":0.5984251968503937,"duration":"0.58"},{"name":"A#3","midi":58,"time":"129.01","velocity":0.5984251968503937,"duration":"0.29"},{"name":"D4","midi":62,"time":"129.02","velocity":0.5984251968503937,"duration":"0.58"},{"name":"C4","midi":60,"time":"129.31","velocity":0.6535433070866141,"duration":"0.29"},{"name":"A4","midi":69,"time":"129.60","velocity":0.6771653543307087,"duration":"0.58"},{"name":"A3","midi":57,"time":"129.60","velocity":0.6771653543307087,"duration":"0.29"},{"name":"C3","midi":48,"time":"129.60","velocity":0.6771653543307087,"duration":"0.58"},{"name":"F3","midi":53,"time":"129.61","velocity":0.6771653543307087,"duration":"0.30"},{"name":"F4","midi":65,"time":"129.61","velocity":0.48031496062992124,"duration":"0.58"},{"name":"F2","midi":41,"time":"129.61","velocity":0.6771653543307087,"duration":"0.58"},{"name":"C4","midi":60,"time":"129.61","velocity":0.6771653543307087,"duration":"0.58"},{"name":"F3","midi":53,"time":"129.90","velocity":0.6771653543307087,"duration":"0.30"},{"name":"A3","midi":57,"time":"129.91","velocity":0.5748031496062992,"duration":"0.29"},{"name":"F2","midi":41,"time":"130.19","velocity":0.5984251968503937,"duration":"0.58"},{"name":"C3","midi":48,"time":"130.19","velocity":0.5984251968503937,"duration":"0.58"},{"name":"A3","midi":57,"time":"130.19","velocity":0.5984251968503937,"duration":"0.29"},{"name":"F4","midi":65,"time":"130.20","velocity":0.4251968503937008,"duration":"0.58"},{"name":"C4","midi":60,"time":"130.20","velocity":0.5984251968503937,"duration":"0.58"},{"name":"A4","midi":69,"time":"130.20","velocity":0.6771653543307087,"duration":"0.58"},{"name":"F3","midi":53,"time":"130.20","velocity":0.5984251968503937,"duration":"0.30"},{"name":"A3","midi":57,"time":"130.50","velocity":0.6299212598425197,"duration":"0.29"},{"name":"F3","midi":53,"time":"130.50","velocity":0.5984251968503937,"duration":"0.30"},{"name":"A4","midi":69,"time":"130.80","velocity":0.6771653543307087,"duration":"0.58"},{"name":"F2","midi":41,"time":"130.80","velocity":0.6771653543307087,"duration":"0.58"},{"name":"F3","midi":53,"time":"130.80","velocity":0.6771653543307087,"duration":"0.30"},{"name":"C3","midi":48,"time":"130.80","velocity":0.6771653543307087,"duration":"0.58"},{"name":"F4","midi":65,"time":"130.81","velocity":0.48031496062992124,"duration":"0.58"},{"name":"A3","midi":57,"time":"130.81","velocity":0.6771653543307087,"duration":"0.29"},{"name":"C4","midi":60,"time":"130.81","velocity":0.6771653543307087,"duration":"0.58"},{"name":"A3","midi":57,"time":"131.10","velocity":0.5748031496062992,"duration":"0.29"},{"name":"F3","midi":53,"time":"131.10","velocity":0.5984251968503937,"duration":"0.30"},{"name":"F2","midi":41,"time":"131.39","velocity":0.5984251968503937,"duration":"0.58"},{"name":"C3","midi":48,"time":"131.40","velocity":0.5984251968503937,"duration":"0.58"},{"name":"A4","midi":69,"time":"131.40","velocity":0.6771653543307087,"duration":"0.58"},{"name":"F3","midi":53,"time":"131.40","velocity":0.5984251968503937,"duration":"0.30"},{"name":"F4","midi":65,"time":"131.41","velocity":0.4251968503937008,"duration":"0.58"},{"name":"A3","midi":57,"time":"131.41","velocity":0.5984251968503937,"duration":"0.29"},{"name":"C4","midi":60,"time":"131.41","velocity":0.5984251968503937,"duration":"0.58"},{"name":"F3","midi":53,"time":"131.70","velocity":0.5984251968503937,"duration":"0.30"},{"name":"A3","midi":57,"time":"131.70","velocity":0.6299212598425197,"duration":"0.29"},{"name":"F4","midi":65,"time":"132.00","velocity":0.5354330708661418,"duration":"0.58"},{"name":"A3","midi":57,"time":"132.00","velocity":0.6771653543307087,"duration":"0.30"},{"name":"A4","midi":69,"time":"132.00","velocity":0.6771653543307087,"duration":"0.58"},{"name":"C3","midi":48,"time":"132.01","velocity":0.6771653543307087,"duration":"0.58"},{"name":"F3","midi":53,"time":"132.01","velocity":0.6771653543307087,"duration":"0.58"},{"name":"F2","midi":41,"time":"132.02","velocity":0.6771653543307087,"duration":"0.58"},{"name":"C4","midi":60,"time":"132.02","velocity":0.6771653543307087,"duration":"0.28"},{"name":"A3","midi":57,"time":"132.31","velocity":0.6771653543307087,"duration":"0.30"},{"name":"C4","midi":60,"time":"132.31","velocity":0.6771653543307087,"duration":"0.28"},{"name":"C3","midi":48,"time":"132.60","velocity":0.5984251968503937,"duration":"0.58"},{"name":"F2","midi":41,"time":"132.60","velocity":0.5984251968503937,"duration":"0.58"},{"name":"F4","midi":65,"time":"132.60","velocity":0.5354330708661418,"duration":"0.58"},{"name":"A4","midi":69,"time":"132.60","velocity":0.6771653543307087,"duration":"0.58"},{"name":"F3","midi":53,"time":"132.61","velocity":0.6771653543307087,"duration":"0.58"},{"name":"C4","midi":60,"time":"132.61","velocity":0.5984251968503937,"duration":"0.29"},{"name":"A3","midi":57,"time":"132.62","velocity":0.6771653543307087,"duration":"0.30"},{"name":"C4","midi":60,"time":"132.90","velocity":0.5984251968503937,"duration":"0.29"},{"name":"A3","midi":57,"time":"132.91","velocity":0.5984251968503937,"duration":"0.28"},{"name":"A4","midi":69,"time":"133.20","velocity":0.6771653543307087,"duration":"0.58"},{"name":"C3","midi":48,"time":"133.21","velocity":0.6771653543307087,"duration":"0.58"},{"name":"F4","midi":65,"time":"133.21","velocity":0.5354330708661418,"duration":"0.58"},{"name":"F2","midi":41,"time":"133.21","velocity":0.6771653543307087,"duration":"0.58"},{"name":"F3","midi":53,"time":"133.22","velocity":0.6771653543307087,"duration":"0.58"},{"name":"A3","midi":57,"time":"133.22","velocity":0.5984251968503937,"duration":"0.28"},{"name":"C4","midi":60,"time":"133.22","velocity":0.6771653543307087,"duration":"0.28"},{"name":"C4","midi":60,"time":"133.50","velocity":0.6771653543307087,"duration":"0.28"},{"name":"A3","midi":57,"time":"133.51","velocity":0.5984251968503937,"duration":"0.28"},{"name":"F2","midi":41,"time":"133.80","velocity":0.5984251968503937,"duration":"0.58"},{"name":"A4","midi":69,"time":"133.80","velocity":0.6771653543307087,"duration":"0.58"},{"name":"F4","midi":65,"time":"133.81","velocity":0.5354330708661418,"duration":"0.58"},{"name":"C3","midi":48,"time":"133.81","velocity":0.5984251968503937,"duration":"0.58"},{"name":"A3","midi":57,"time":"133.81","velocity":0.5984251968503937,"duration":"0.28"},{"name":"F3","midi":53,"time":"133.81","velocity":0.6771653543307087,"duration":"0.58"},{"name":"C4","midi":60,"time":"133.82","velocity":0.5984251968503937,"duration":"0.28"},{"name":"C4","midi":60,"time":"134.10","velocity":0.5984251968503937,"duration":"0.28"},{"name":"A3","midi":57,"time":"134.11","velocity":0.5984251968503937,"duration":"0.30"},{"name":"A4","midi":69,"time":"134.40","velocity":0.6771653543307087,"duration":"0.58"},{"name":"A3","midi":57,"time":"134.40","velocity":0.6771653543307087,"duration":"0.29"},{"name":"D3","midi":50,"time":"134.41","velocity":0.6771653543307087,"duration":"0.58"},{"name":"C4","midi":60,"time":"134.41","velocity":0.6771653543307087,"duration":"0.58"},{"name":"A3","midi":57,"time":"134.71","velocity":0.5748031496062992,"duration":"0.29"},{"name":"A3","midi":57,"time":"134.99","velocity":0.5984251968503937,"duration":"0.29"},{"name":"D3","midi":50,"time":"134.99","velocity":0.5984251968503937,"duration":"0.58"},{"name":"A4","midi":69,"time":"135.00","velocity":0.6771653543307087,"duration":"0.58"},{"name":"C4","midi":60,"time":"135.00","velocity":0.5984251968503937,"duration":"0.58"},{"name":"D4","midi":62,"time":"135.01","velocity":0.5984251968503937,"duration":"0.58"},{"name":"A3","midi":57,"time":"135.30","velocity":0.6299212598425197,"duration":"0.29"},{"name":"A4","midi":69,"time":"135.60","velocity":0.6771653543307087,"duration":"0.58"},{"name":"A3","midi":57,"time":"135.61","velocity":0.6771653543307087,"duration":"0.29"},{"name":"D3","midi":50,"time":"135.61","velocity":0.6771653543307087,"duration":"0.58"},{"name":"D4","midi":62,"time":"135.61","velocity":0.6771653543307087,"duration":"0.58"},{"name":"C4","midi":60,"time":"135.61","velocity":0.6771653543307087,"duration":"0.58"},{"name":"A3","midi":57,"time":"135.90","velocity":0.5748031496062992,"duration":"0.29"},{"name":"D3","midi":50,"time":"136.19","velocity":0.5984251968503937,"duration":"0.58"},{"name":"A4","midi":69,"time":"136.20","velocity":0.6771653543307087,"duration":"0.58"},{"name":"A3","midi":57,"time":"136.21","velocity":0.5984251968503937,"duration":"0.29"},{"name":"D4","midi":62,"time":"136.21","velocity":0.5984251968503937,"duration":"0.58"},{"name":"C4","midi":60,"time":"136.21","velocity":0.5984251968503937,"duration":"0.58"},{"name":"A3","midi":57,"time":"136.50","velocity":0.6299212598425197,"duration":"0.29"},{"name":"D4","midi":62,"time":"136.80","velocity":0.6771653543307087,"duration":"0.58"},{"name":"A#4","midi":70,"time":"136.81","velocity":0.6771653543307087,"duration":"0.58"},{"name":"A#2","midi":46,"time":"136.81","velocity":0.6771653543307087,"duration":"0.58"},{"name":"A#3","midi":58,"time":"136.81","velocity":0.6771653543307087,"duration":"0.29"},{"name":"F3","midi":53,"time":"136.81","velocity":0.6771653543307087,"duration":"0.28"},{"name":"F3","midi":53,"time":"137.10","velocity":0.5196850393700787,"duration":"0.28"},{"name":"A#3","midi":58,"time":"137.12","velocity":0.5748031496062992,"duration":"0.29"},{"name":"A#2","midi":46,"time":"137.39","velocity":0.5984251968503937,"duration":"0.58"},{"name":"A#3","midi":58,"time":"137.40","velocity":0.5984251968503937,"duration":"0.29"},{"name":"F3","midi":53,"time":"137.40","velocity":0.5984251968503937,"duration":"0.58"},{"name":"A#4","midi":70,"time":"137.41","velocity":0.6771653543307087,"duration":"0.58"},{"name":"D4","midi":62,"time":"137.41","velocity":0.5984251968503937,"duration":"0.58"},{"name":"A#3","midi":58,"time":"137.70","velocity":0.6299212598425197,"duration":"0.29"},{"name":"A#2","midi":46,"time":"138.00","velocity":0.6771653543307087,"duration":"0.58"},{"name":"A#4","midi":70,"time":"138.01","velocity":0.6771653543307087,"duration":"0.58"},{"name":"A#3","midi":58,"time":"138.01","velocity":0.6771653543307087,"duration":"0.29"},{"name":"F3","midi":53,"time":"138.01","velocity":0.6771653543307087,"duration":"0.28"},{"name":"D4","midi":62,"time":"138.02","velocity":0.6771653543307087,"duration":"0.58"},{"name":"A#3","midi":58,"time":"138.30","velocity":0.5748031496062992,"duration":"0.29"},{"name":"F3","midi":53,"time":"138.30","velocity":0.5196850393700787,"duration":"0.28"},{"name":"A#2","midi":46,"time":"138.59","velocity":0.5984251968503937,"duration":"0.58"},{"name":"A#4","midi":70,"time":"138.61","velocity":0.6771653543307087,"duration":"0.58"},{"name":"F3","midi":53,"time":"138.61","velocity":0.5984251968503937,"duration":"0.58"},{"name":"A#3","midi":58,"time":"138.61","velocity":0.5984251968503937,"duration":"0.29"},{"name":"D4","midi":62,"time":"138.62","velocity":0.5984251968503937,"duration":"0.58"},{"name":"C4","midi":60,"time":"138.91","velocity":0.6535433070866141,"duration":"0.29"},{"name":"A4","midi":69,"time":"139.20","velocity":0.6771653543307087,"duration":"0.58"},{"name":"A3","midi":57,"time":"139.20","velocity":0.6771653543307087,"duration":"0.29"},{"name":"C3","midi":48,"time":"139.20","velocity":0.6771653543307087,"duration":"0.58"},{"name":"F3","midi":53,"time":"139.21","velocity":0.6771653543307087,"duration":"0.30"},{"name":"F4","midi":65,"time":"139.21","velocity":0.48031496062992124,"duration":"0.58"},{"name":"F2","midi":41,"time":"139.21","velocity":0.6771653543307087,"duration":"0.58"},{"name":"C4","midi":60,"time":"139.21","velocity":0.6771653543307087,"duration":"0.58"},{"name":"F3","midi":53,"time":"139.50","velocity":0.6771653543307087,"duration":"0.30"},{"name":"A3","midi":57,"time":"139.51","velocity":0.5748031496062992,"duration":"0.29"},{"name":"F2","midi":41,"time":"139.79","velocity":0.5984251968503937,"duration":"0.58"},{"name":"C3","midi":48,"time":"139.79","velocity":0.5984251968503937,"duration":"0.58"},{"name":"A3","midi":57,"time":"139.79","velocity":0.5984251968503937,"duration":"0.29"},{"name":"F4","midi":65,"time":"139.80","velocity":0.4251968503937008,"duration":"0.58"},{"name":"C4","midi":60,"time":"139.80","velocity":0.5984251968503937,"duration":"0.58"},{"name":"A4","midi":69,"time":"139.80","velocity":0.6771653543307087,"duration":"0.58"},{"name":"F3","midi":53,"time":"139.80","velocity":0.5984251968503937,"duration":"0.30"},{"name":"A3","midi":57,"time":"140.10","velocity":0.6299212598425197,"duration":"0.29"},{"name":"F3","midi":53,"time":"140.10","velocity":0.5984251968503937,"duration":"0.30"},{"name":"A4","midi":69,"time":"140.40","velocity":0.6771653543307087,"duration":"0.58"},{"name":"F2","midi":41,"time":"140.40","velocity":0.6771653543307087,"duration":"0.58"},{"name":"F3","midi":53,"time":"140.40","velocity":0.6771653543307087,"duration":"0.30"},{"name":"C3","midi":48,"time":"140.40","velocity":0.6771653543307087,"duration":"0.58"},{"name":"F4","midi":65,"time":"140.41","velocity":0.48031496062992124,"duration":"0.58"},{"name":"A3","midi":57,"time":"140.41","velocity":0.6771653543307087,"duration":"0.29"},{"name":"C4","midi":60,"time":"140.41","velocity":0.6771653543307087,"duration":"0.58"},{"name":"A3","midi":57,"time":"140.70","velocity":0.5748031496062992,"duration":"0.29"},{"name":"F3","midi":53,"time":"140.70","velocity":0.5984251968503937,"duration":"0.30"},{"name":"F2","midi":41,"time":"140.99","velocity":0.5984251968503937,"duration":"0.58"},{"name":"C3","midi":48,"time":"141.00","velocity":0.5984251968503937,"duration":"0.58"},{"name":"A4","midi":69,"time":"141.00","velocity":0.6771653543307087,"duration":"0.58"},{"name":"F3","midi":53,"time":"141.00","velocity":0.5984251968503937,"duration":"0.30"},{"name":"F4","midi":65,"time":"141.01","velocity":0.4251968503937008,"duration":"0.58"},{"name":"A3","midi":57,"time":"141.01","velocity":0.5984251968503937,"duration":"0.29"},{"name":"C4","midi":60,"time":"141.01","velocity":0.5984251968503937,"duration":"0.58"},{"name":"F3","midi":53,"time":"141.30","velocity":0.5984251968503937,"duration":"0.30"},{"name":"A3","midi":57,"time":"141.30","velocity":0.6299212598425197,"duration":"0.29"},{"name":"F4","midi":65,"time":"141.60","velocity":0.5354330708661418,"duration":"0.58"},{"name":"A3","midi":57,"time":"141.60","velocity":0.6771653543307087,"duration":"0.30"},{"name":"A4","midi":69,"time":"141.60","velocity":0.6771653543307087,"duration":"0.58"},{"name":"C3","midi":48,"time":"141.61","velocity":0.6771653543307087,"duration":"0.58"},{"name":"F3","midi":53,"time":"141.61","velocity":0.6771653543307087,"duration":"0.58"},{"name":"F2","midi":41,"time":"141.62","velocity":0.6771653543307087,"duration":"0.58"},{"name":"C4","midi":60,"time":"141.62","velocity":0.6771653543307087,"duration":"0.28"},{"name":"A3","midi":57,"time":"141.91","velocity":0.6771653543307087,"duration":"0.30"},{"name":"C4","midi":60,"time":"141.91","velocity":0.6771653543307087,"duration":"0.28"},{"name":"C3","midi":48,"time":"142.20","velocity":0.5984251968503937,"duration":"0.58"},{"name":"F2","midi":41,"time":"142.20","velocity":0.5984251968503937,"duration":"0.58"},{"name":"F4","midi":65,"time":"142.20","velocity":0.5354330708661418,"duration":"0.58"},{"name":"A4","midi":69,"time":"142.20","velocity":0.6771653543307087,"duration":"0.58"},{"name":"F3","midi":53,"time":"142.21","velocity":0.6771653543307087,"duration":"0.58"},{"name":"C4","midi":60,"time":"142.21","velocity":0.5984251968503937,"duration":"0.29"},{"name":"A3","midi":57,"time":"142.22","velocity":0.6771653543307087,"duration":"0.30"},{"name":"C4","midi":60,"time":"142.50","velocity":0.5984251968503937,"duration":"0.29"},{"name":"A3","midi":57,"time":"142.51","velocity":0.5984251968503937,"duration":"0.28"},{"name":"A4","midi":69,"time":"142.80","velocity":0.6771653543307087,"duration":"0.58"},{"name":"C3","midi":48,"time":"142.81","velocity":0.6771653543307087,"duration":"0.58"},{"name":"E4","midi":64,"time":"142.81","velocity":0.5354330708661418,"duration":"0.58"},{"name":"E2","midi":40,"time":"142.81","velocity":0.6771653543307087,"duration":"0.58"},{"name":"E3","midi":52,"time":"142.82","velocity":0.6771653543307087,"duration":"0.58"},{"name":"A3","midi":57,"time":"142.82","velocity":0.5984251968503937,"duration":"0.28"},{"name":"C4","midi":60,"time":"142.82","velocity":0.6771653543307087,"duration":"0.28"},{"name":"C4","midi":60,"time":"143.10","velocity":0.6771653543307087,"duration":"0.28"},{"name":"A3","midi":57,"time":"143.11","velocity":0.5984251968503937,"duration":"0.28"},{"name":"E2","midi":40,"time":"143.40","velocity":0.5984251968503937,"duration":"0.58"},{"name":"A4","midi":69,"time":"143.40","velocity":0.6771653543307087,"duration":"0.58"},{"name":"E4","midi":64,"time":"143.41","velocity":0.5354330708661418,"duration":"0.58"},{"name":"C3","midi":48,"time":"143.41","velocity":0.5984251968503937,"duration":"0.58"},{"name":"A3","midi":57,"time":"143.41","velocity":0.5984251968503937,"duration":"0.28"},{"name":"E3","midi":52,"time":"143.41","velocity":0.6771653543307087,"duration":"0.58"},{"name":"C4","midi":60,"time":"143.42","velocity":0.5984251968503937,"duration":"0.28"},{"name":"C4","midi":60,"time":"143.70","velocity":0.5984251968503937,"duration":"0.28"},{"name":"A3","midi":57,"time":"143.71","velocity":0.5984251968503937,"duration":"0.30"},{"name":"A#4","midi":70,"time":"144.00","velocity":0.6771653543307087,"duration":"0.58"},{"name":"D4","midi":62,"time":"144.00","velocity":0.6771653543307087,"duration":"0.58"},{"name":"A#3","midi":58,"time":"144.00","velocity":0.6771653543307087,"duration":"0.29"},{"name":"A#2","midi":46,"time":"144.00","velocity":0.6771653543307087,"duration":"0.58"},{"name":"F3","midi":53,"time":"144.01","velocity":0.6771653543307087,"duration":"0.30"},{"name":"F4","midi":65,"time":"144.01","velocity":0.48031496062992124,"duration":"0.58"},{"name":"F3","midi":53,"time":"144.30","velocity":0.6771653543307087,"duration":"0.30"},{"name":"A#3","midi":58,"time":"144.31","velocity":0.5748031496062992,"duration":"0.29"},{"name":"D4","midi":62,"time":"144.59","velocity":0.5984251968503937,"duration":"0.58"},{"name":"A#3","midi":58,"time":"144.59","velocity":0.5984251968503937,"duration":"0.29"},{"name":"A#2","midi":46,"time":"144.59","velocity":0.5984251968503937,"duration":"0.58"},{"name":"F4","midi":65,"time":"144.60","velocity":0.4251968503937008,"duration":"0.58"},{"name":"F3","midi":53,"time":"144.60","velocity":0.5984251968503937,"duration":"0.30"},{"name":"A#4","midi":70,"time":"144.60","velocity":0.6771653543307087,"duration":"0.58"},{"name":"F3","midi":53,"time":"144.90","velocity":0.5984251968503937,"duration":"0.30"},{"name":"A#3","midi":58,"time":"144.90","velocity":0.6299212598425197,"duration":"0.29"},{"name":"A#4","midi":70,"time":"145.20","velocity":0.6771653543307087,"duration":"0.58"},{"name":"A#2","midi":46,"time":"145.20","velocity":0.6771653543307087,"duration":"0.58"},{"name":"F3","midi":53,"time":"145.20","velocity":0.6771653543307087,"duration":"0.30"},{"name":"D4","midi":62,"time":"145.20","velocity":0.6771653543307087,"duration":"0.58"},{"name":"F4","midi":65,"time":"145.21","velocity":0.48031496062992124,"duration":"0.58"},{"name":"A#3","midi":58,"time":"145.21","velocity":0.6771653543307087,"duration":"0.29"},{"name":"A#3","midi":58,"time":"145.50","velocity":0.5748031496062992,"duration":"0.29"},{"name":"F3","midi":53,"time":"145.50","velocity":0.5984251968503937,"duration":"0.30"},{"name":"A#4","midi":70,"time":"145.80","velocity":0.6771653543307087,"duration":"0.58"},{"name":"D4","midi":62,"time":"145.80","velocity":0.5984251968503937,"duration":"0.58"},{"name":"F3","midi":53,"time":"145.80","velocity":0.5984251968503937,"duration":"0.30"},{"name":"A#2","midi":46,"time":"145.80","velocity":0.5984251968503937,"duration":"0.58"},{"name":"F4","midi":65,"time":"145.81","velocity":0.4251968503937008,"duration":"0.58"},{"name":"A#3","midi":58,"time":"145.81","velocity":0.5984251968503937,"duration":"0.29"},{"name":"A#3","midi":58,"time":"146.10","velocity":0.6299212598425197,"duration":"0.29"},{"name":"F3","midi":53,"time":"146.10","velocity":0.5984251968503937,"duration":"0.30"},{"name":"F4","midi":65,"time":"146.40","velocity":0.5354330708661418,"duration":"0.58"},{"name":"A#4","midi":70,"time":"146.40","velocity":0.6771653543307087,"duration":"0.58"},{"name":"A#3","midi":58,"time":"146.40","velocity":0.6771653543307087,"duration":"0.30"},{"name":"A#2","midi":46,"time":"146.41","velocity":0.6771653543307087,"duration":"0.58"},{"name":"F3","midi":53,"time":"146.41","velocity":0.6771653543307087,"duration":"0.58"},{"name":"D4","midi":62,"time":"146.41","velocity":0.6771653543307087,"duration":"0.28"},{"name":"D4","midi":62,"time":"146.70","velocity":0.6771653543307087,"duration":"0.28"},{"name":"A#3","midi":58,"time":"146.71","velocity":0.6771653543307087,"duration":"0.30"},{"name":"A#2","midi":46,"time":"147.00","velocity":0.5984251968503937,"duration":"0.58"},{"name":"D4","midi":62,"time":"147.00","velocity":0.5984251968503937,"duration":"0.29"},{"name":"F4","midi":65,"time":"147.00","velocity":0.5354330708661418,"duration":"0.58"},{"name":"A#4","midi":70,"time":"147.00","velocity":0.6771653543307087,"duration":"0.58"},{"name":"F3","midi":53,"time":"147.01","velocity":0.6771653543307087,"duration":"0.58"},{"name":"A#3","midi":58,"time":"147.02","velocity":0.6771653543307087,"duration":"0.31"},{"name":"D4","midi":62,"time":"147.29","velocity":0.5984251968503937,"duration":"0.29"},{"name":"A#3","midi":58,"time":"147.31","velocity":0.5984251968503937,"duration":"0.28"},{"name":"A#4","midi":70,"time":"147.60","velocity":0.6771653543307087,"duration":"0.58"},{"name":"A#2","midi":46,"time":"147.61","velocity":0.6771653543307087,"duration":"0.58"},{"name":"F4","midi":65,"time":"147.61","velocity":0.5354330708661418,"duration":"0.58"},{"name":"D4","midi":62,"time":"147.61","velocity":0.6771653543307087,"duration":"0.28"},{"name":"A#3","midi":58,"time":"147.62","velocity":0.5984251968503937,"duration":"0.28"},{"name":"F3","midi":53,"time":"147.62","velocity":0.6771653543307087,"duration":"0.58"},{"name":"D4","midi":62,"time":"147.89","velocity":0.6771653543307087,"duration":"0.28"},{"name":"A#3","midi":58,"time":"147.91","velocity":0.5984251968503937,"duration":"0.28"},{"name":"A#4","midi":70,"time":"148.20","velocity":0.6771653543307087,"duration":"0.58"},{"name":"A#3","midi":58,"time":"148.21","velocity":0.5984251968503937,"duration":"0.28"},{"name":"A#2","midi":46,"time":"148.21","velocity":0.5984251968503937,"duration":"0.58"},{"name":"F4","midi":65,"time":"148.21","velocity":0.5354330708661418,"duration":"0.58"},{"name":"D4","midi":62,"time":"148.21","velocity":0.5984251968503937,"duration":"0.28"},{"name":"F3","midi":53,"time":"148.21","velocity":0.6771653543307087,"duration":"0.58"},{"name":"D4","midi":62,"time":"148.49","velocity":0.5984251968503937,"duration":"0.28"},{"name":"A#3","midi":58,"time":"148.51","velocity":0.5984251968503937,"duration":"0.30"},{"name":"C4","midi":60,"time":"148.80","velocity":0.6771653543307087,"duration":"0.58"},{"name":"A4","midi":69,"time":"148.80","velocity":0.6771653543307087,"duration":"0.58"},{"name":"A3","midi":57,"time":"148.80","velocity":0.6771653543307087,"duration":"0.29"},{"name":"F3","midi":53,"time":"148.80","velocity":0.6771653543307087,"duration":"0.30"},{"name":"F2","midi":41,"time":"148.80","velocity":0.6771653543307087,"duration":"0.58"},{"name":"F4","midi":65,"time":"148.81","velocity":0.48031496062992124,"duration":"0.58"},{"name":"F3","midi":53,"time":"149.10","velocity":0.6771653543307087,"duration":"0.30"},{"name":"A3","midi":57,"time":"149.11","velocity":0.5748031496062992,"duration":"0.29"},{"name":"C4","midi":60,"time":"149.39","velocity":0.5984251968503937,"duration":"0.58"},{"name":"A3","midi":57,"time":"149.39","velocity":0.5984251968503937,"duration":"0.29"},{"name":"F2","midi":41,"time":"149.39","velocity":0.5984251968503937,"duration":"0.58"},{"name":"F3","midi":53,"time":"149.40","velocity":0.5984251968503937,"duration":"0.30"},{"name":"F4","midi":65,"time":"149.40","velocity":0.4251968503937008,"duration":"0.58"},{"name":"A4","midi":69,"time":"149.40","velocity":0.6771653543307087,"duration":"0.58"},{"name":"F3","midi":53,"time":"149.70","velocity":0.5984251968503937,"duration":"0.30"},{"name":"A3","midi":57,"time":"149.70","velocity":0.6299212598425197,"duration":"0.29"},{"name":"F3","midi":53,"time":"150.00","velocity":0.6771653543307087,"duration":"0.30"},{"name":"A4","midi":69,"time":"150.00","velocity":0.6771653543307087,"duration":"0.58"},{"name":"C4","midi":60,"time":"150.00","velocity":0.6771653543307087,"duration":"0.58"},{"name":"F2","midi":41,"time":"150.00","velocity":0.6771653543307087,"duration":"0.58"},{"name":"A3","midi":57,"time":"150.01","velocity":0.6771653543307087,"duration":"0.29"},{"name":"F4","midi":65,"time":"150.01","velocity":0.48031496062992124,"duration":"0.58"},{"name":"F3","midi":53,"time":"150.30","velocity":0.5984251968503937,"duration":"0.30"},{"name":"A3","midi":57,"time":"150.30","velocity":0.5748031496062992,"duration":"0.29"},{"name":"F3","midi":53,"time":"150.60","velocity":0.5984251968503937,"duration":"0.30"},{"name":"C4","midi":60,"time":"150.60","velocity":0.5984251968503937,"duration":"0.58"},{"name":"A4","midi":69,"time":"150.60","velocity":0.6771653543307087,"duration":"0.58"},{"name":"F2","midi":41,"time":"150.60","velocity":0.5984251968503937,"duration":"0.58"},{"name":"F4","midi":65,"time":"150.61","velocity":0.4251968503937008,"duration":"0.58"},{"name":"A3","midi":57,"time":"150.61","velocity":0.5984251968503937,"duration":"0.29"},{"name":"F3","midi":53,"time":"150.90","velocity":0.5984251968503937,"duration":"0.30"},{"name":"A3","midi":57,"time":"150.90","velocity":0.6299212598425197,"duration":"0.29"},{"name":"E4","midi":64,"time":"151.20","velocity":0.5354330708661418,"duration":"0.58"},{"name":"G3","midi":55,"time":"151.20","velocity":0.6771653543307087,"duration":"0.30"},{"name":"A4","midi":69,"time":"151.20","velocity":0.6771653543307087,"duration":"0.58"},{"name":"F2","midi":41,"time":"151.21","velocity":0.6771653543307087,"duration":"0.58"},{"name":"F3","midi":53,"time":"151.21","velocity":0.6771653543307087,"duration":"0.58"},{"name":"C4","midi":60,"time":"151.21","velocity":0.6771653543307087,"duration":"0.28"},{"name":"C4","midi":60,"time":"151.50","velocity":0.6771653543307087,"duration":"0.28"},{"name":"F2","midi":41,"time":"151.80","velocity":0.5984251968503937,"duration":"0.58"},{"name":"E4","midi":64,"time":"151.80","velocity":0.5354330708661418,"duration":"0.58"},{"name":"C4","midi":60,"time":"151.80","velocity":0.5984251968503937,"duration":"0.29"},{"name":"A4","midi":69,"time":"151.80","velocity":0.6771653543307087,"duration":"0.58"},{"name":"F3","midi":53,"time":"151.81","velocity":0.6771653543307087,"duration":"0.58"},{"name":"G3","midi":55,"time":"151.82","velocity":0.6771653543307087,"duration":"0.31"},{"name":"C4","midi":60,"time":"152.09","velocity":0.5984251968503937,"duration":"0.29"},{"name":"A4","midi":69,"time":"152.40","velocity":0.6771653543307087,"duration":"0.58"},{"name":"F2","midi":41,"time":"152.41","velocity":0.6771653543307087,"duration":"0.58"},{"name":"D4","midi":62,"time":"152.41","velocity":0.5354330708661418,"duration":"0.58"},{"name":"F3","midi":53,"time":"152.41","velocity":0.6771653543307087,"duration":"0.58"},{"name":"A3","midi":57,"time":"152.42","velocity":0.5984251968503937,"duration":"0.28"},{"name":"A3","midi":57,"time":"152.71","velocity":0.5984251968503937,"duration":"0.28"},{"name":"A4","midi":69,"time":"153.00","velocity":0.6771653543307087,"duration":"0.58"},{"name":"D4","midi":62,"time":"153.01","velocity":0.5354330708661418,"duration":"0.58"},{"name":"F3","midi":53,"time":"153.01","velocity":0.6771653543307087,"duration":"0.58"},{"name":"A3","midi":57,"time":"153.01","velocity":0.5984251968503937,"duration":"0.28"},{"name":"F2","midi":41,"time":"153.01","velocity":0.5984251968503937,"duration":"0.58"},{"name":"A3","midi":57,"time":"153.31","velocity":0.5984251968503937,"duration":"0.30"},{"name":"F4","midi":65,"time":"153.58","velocity":0.48031496062992124,"duration":"0.58"},{"name":"A#3","midi":58,"time":"153.58","velocity":0.6771653543307087,"duration":"0.29"},{"name":"D4","midi":62,"time":"153.60","velocity":0.6771653543307087,"duration":"0.58"},{"name":"A#2","midi":46,"time":"153.60","velocity":0.6771653543307087,"duration":"0.58"},{"name":"F3","midi":53,"time":"153.61","velocity":0.6771653543307087,"duration":"0.30"},{"name":"A#4","midi":70,"time":"153.62","velocity":0.6771653543307087,"duration":"0.58"},{"name":"F3","midi":53,"time":"153.90","velocity":0.6771653543307087,"duration":"0.30"},{"name":"A#3","midi":58,"time":"153.91","velocity":0.5748031496062992,"duration":"0.29"},{"name":"D4","midi":62,"time":"154.19","velocity":0.5984251968503937,"duration":"0.58"},{"name":"A3","midi":57,"time":"154.19","velocity":0.5984251968503937,"duration":"0.29"},{"name":"A#2","midi":46,"time":"154.19","velocity":0.5984251968503937,"duration":"0.58"},{"name":"F4","midi":65,"time":"154.20","velocity":0.4251968503937008,"duration":"0.58"},{"name":"F3","midi":53,"time":"154.20","velocity":0.5984251968503937,"duration":"0.30"},{"name":"A#4","midi":70,"time":"154.20","velocity":0.6771653543307087,"duration":"0.58"},{"name":"F3","midi":53,"time":"154.50","velocity":0.5984251968503937,"duration":"0.30"},{"name":"A3","midi":57,"time":"154.50","velocity":0.6299212598425197,"duration":"0.29"},{"name":"A#4","midi":70,"time":"154.80","velocity":0.6771653543307087,"duration":"0.58"},{"name":"A#2","midi":46,"time":"154.80","velocity":0.6771653543307087,"duration":"0.58"},{"name":"F3","midi":53,"time":"154.80","velocity":0.6771653543307087,"duration":"0.30"},{"name":"D4","midi":62,"time":"154.80","velocity":0.6771653543307087,"duration":"0.58"},{"name":"F4","midi":65,"time":"154.81","velocity":0.48031496062992124,"duration":"0.58"},{"name":"A#3","midi":58,"time":"154.81","velocity":0.6771653543307087,"duration":"0.29"},{"name":"A#3","midi":58,"time":"155.10","velocity":0.5748031496062992,"duration":"0.29"},{"name":"F3","midi":53,"time":"155.10","velocity":0.5984251968503937,"duration":"0.30"},{"name":"A#4","midi":70,"time":"155.40","velocity":0.6771653543307087,"duration":"0.58"},{"name":"D4","midi":62,"time":"155.40","velocity":0.5984251968503937,"duration":"0.58"},{"name":"F3","midi":53,"time":"155.40","velocity":0.5984251968503937,"duration":"0.30"},{"name":"A#2","midi":46,"time":"155.40","velocity":0.5984251968503937,"duration":"0.58"},{"name":"F4","midi":65,"time":"155.41","velocity":0.4251968503937008,"duration":"0.58"},{"name":"A3","midi":57,"time":"155.41","velocity":0.5984251968503937,"duration":"0.29"},{"name":"A3","midi":57,"time":"155.70","velocity":0.6299212598425197,"duration":"0.29"},{"name":"F3","midi":53,"time":"155.70","velocity":0.5984251968503937,"duration":"0.30"},{"name":"F4","midi":65,"time":"156.00","velocity":0.5354330708661418,"duration":"0.58"},{"name":"A#4","midi":70,"time":"156.00","velocity":0.6771653543307087,"duration":"0.58"},{"name":"A#3","midi":58,"time":"156.00","velocity":0.6771653543307087,"duration":"0.30"},{"name":"A#2","midi":46,"time":"156.01","velocity":0.6771653543307087,"duration":"0.58"},{"name":"F3","midi":53,"time":"156.01","velocity":0.6771653543307087,"duration":"0.58"},{"name":"D4","midi":62,"time":"156.01","velocity":0.6771653543307087,"duration":"0.28"},{"name":"D4","midi":62,"time":"156.30","velocity":0.6771653543307087,"duration":"0.28"},{"name":"A#3","midi":58,"time":"156.31","velocity":0.6771653543307087,"duration":"0.30"},{"name":"A#2","midi":46,"time":"156.60","velocity":0.5984251968503937,"duration":"0.58"},{"name":"D4","midi":62,"time":"156.60","velocity":0.5984251968503937,"duration":"0.29"},{"name":"F4","midi":65,"time":"156.60","velocity":0.5354330708661418,"duration":"0.58"},{"name":"A#4","midi":70,"time":"156.60","velocity":0.6771653543307087,"duration":"0.58"},{"name":"F3","midi":53,"time":"156.61","velocity":0.6771653543307087,"duration":"0.58"},{"name":"A#3","midi":58,"time":"156.62","velocity":0.6771653543307087,"duration":"0.31"},{"name":"D4","midi":62,"time":"156.89","velocity":0.5984251968503937,"duration":"0.29"},{"name":"A#3","midi":58,"time":"156.91","velocity":0.5984251968503937,"duration":"0.28"},{"name":"A#4","midi":70,"time":"157.20","velocity":0.6771653543307087,"duration":"0.58"},{"name":"A#2","midi":46,"time":"157.21","velocity":0.6771653543307087,"duration":"0.58"},{"name":"F4","midi":65,"time":"157.21","velocity":0.5354330708661418,"duration":"0.58"},{"name":"D4","midi":62,"time":"157.21","velocity":0.6771653543307087,"duration":"0.28"},{"name":"A#3","midi":58,"time":"157.22","velocity":0.5984251968503937,"duration":"0.28"},{"name":"F3","midi":53,"time":"157.22","velocity":0.6771653543307087,"duration":"0.58"},{"name":"D4","midi":62,"time":"157.49","velocity":0.6771653543307087,"duration":"0.28"},{"name":"A#3","midi":58,"time":"157.51","velocity":0.5984251968503937,"duration":"0.28"},{"name":"A#4","midi":70,"time":"157.80","velocity":0.6771653543307087,"duration":"0.58"},{"name":"A#3","midi":58,"time":"157.81","velocity":0.5984251968503937,"duration":"0.28"},{"name":"A#2","midi":46,"time":"157.81","velocity":0.5984251968503937,"duration":"0.58"},{"name":"F4","midi":65,"time":"157.81","velocity":0.5354330708661418,"duration":"0.58"},{"name":"D4","midi":62,"time":"157.81","velocity":0.5984251968503937,"duration":"0.28"},{"name":"F3","midi":53,"time":"157.81","velocity":0.6771653543307087,"duration":"0.58"},{"name":"D4","midi":62,"time":"158.09","velocity":0.5984251968503937,"duration":"0.28"},{"name":"A#3","midi":58,"time":"158.11","velocity":0.5984251968503937,"duration":"0.30"},{"name":"C4","midi":60,"time":"158.40","velocity":0.6771653543307087,"duration":"0.58"},{"name":"A4","midi":69,"time":"158.40","velocity":0.6771653543307087,"duration":"0.58"},{"name":"A3","midi":57,"time":"158.40","velocity":0.6771653543307087,"duration":"0.29"},{"name":"F3","midi":53,"time":"158.40","velocity":0.6771653543307087,"duration":"0.30"},{"name":"F2","midi":41,"time":"158.40","velocity":0.6771653543307087,"duration":"0.58"},{"name":"F4","midi":65,"time":"158.41","velocity":0.48031496062992124,"duration":"0.58"},{"name":"F3","midi":53,"time":"158.70","velocity":0.6771653543307087,"duration":"0.30"},{"name":"A3","midi":57,"time":"158.71","velocity":0.5748031496062992,"duration":"0.29"},{"name":"C4","midi":60,"time":"158.99","velocity":0.5984251968503937,"duration":"0.58"},{"name":"A3","midi":57,"time":"158.99","velocity":0.5984251968503937,"duration":"0.29"},{"name":"F2","midi":41,"time":"158.99","velocity":0.5984251968503937,"duration":"0.58"},{"name":"F3","midi":53,"time":"159.00","velocity":0.5984251968503937,"duration":"0.30"},{"name":"F4","midi":65,"time":"159.00","velocity":0.4251968503937008,"duration":"0.58"},{"name":"A4","midi":69,"time":"159.00","velocity":0.6771653543307087,"duration":"0.58"},{"name":"F3","midi":53,"time":"159.30","velocity":0.5984251968503937,"duration":"0.30"},{"name":"A3","midi":57,"time":"159.30","velocity":0.6299212598425197,"duration":"0.29"},{"name":"F3","midi":53,"time":"159.60","velocity":0.6771653543307087,"duration":"0.30"},{"name":"A4","midi":69,"time":"159.60","velocity":0.6771653543307087,"duration":"0.58"},{"name":"C4","midi":60,"time":"159.60","velocity":0.6771653543307087,"duration":"0.58"},{"name":"F2","midi":41,"time":"159.60","velocity":0.6771653543307087,"duration":"0.58"},{"name":"A3","midi":57,"time":"159.61","velocity":0.6771653543307087,"duration":"0.29"},{"name":"F4","midi":65,"time":"159.61","velocity":0.48031496062992124,"duration":"0.58"},{"name":"F3","midi":53,"time":"159.90","velocity":0.5984251968503937,"duration":"0.30"},{"name":"A3","midi":57,"time":"159.90","velocity":0.5748031496062992,"duration":"0.29"},{"name":"F3","midi":53,"time":"160.20","velocity":0.5984251968503937,"duration":"0.30"},{"name":"C4","midi":60,"time":"160.20","velocity":0.5984251968503937,"duration":"0.58"},{"name":"A4","midi":69,"time":"160.20","velocity":0.6771653543307087,"duration":"0.58"},{"name":"F2","midi":41,"time":"160.20","velocity":0.5984251968503937,"duration":"0.58"},{"name":"F4","midi":65,"time":"160.21","velocity":0.4251968503937008,"duration":"0.58"},{"name":"A3","midi":57,"time":"160.21","velocity":0.5984251968503937,"duration":"0.29"},{"name":"F3","midi":53,"time":"160.50","velocity":0.5984251968503937,"duration":"0.30"},{"name":"A3","midi":57,"time":"160.50","velocity":0.6299212598425197,"duration":"0.29"},{"name":"E4","midi":64,"time":"160.80","velocity":0.5354330708661418,"duration":"0.58"},{"name":"G3","midi":55,"time":"160.80","velocity":0.6771653543307087,"duration":"0.30"},{"name":"A4","midi":69,"time":"160.80","velocity":0.6771653543307087,"duration":"0.58"},{"name":"F2","midi":41,"time":"160.81","velocity":0.6771653543307087,"duration":"0.58"},{"name":"F3","midi":53,"time":"160.81","velocity":0.6771653543307087,"duration":"0.58"},{"name":"C4","midi":60,"time":"160.81","velocity":0.6771653543307087,"duration":"0.28"},{"name":"C4","midi":60,"time":"161.10","velocity":0.6771653543307087,"duration":"0.28"},{"name":"F2","midi":41,"time":"161.40","velocity":0.5984251968503937,"duration":"0.58"},{"name":"E4","midi":64,"time":"161.40","velocity":0.5354330708661418,"duration":"0.58"},{"name":"C4","midi":60,"time":"161.40","velocity":0.5984251968503937,"duration":"0.29"},{"name":"A4","midi":69,"time":"161.40","velocity":0.6771653543307087,"duration":"0.58"},{"name":"F3","midi":53,"time":"161.41","velocity":0.6771653543307087,"duration":"0.58"},{"name":"G3","midi":55,"time":"161.42","velocity":0.6771653543307087,"duration":"0.31"},{"name":"C4","midi":60,"time":"161.69","velocity":0.5984251968503937,"duration":"0.29"},{"name":"A4","midi":69,"time":"162.00","velocity":0.6771653543307087,"duration":"0.58"},{"name":"F2","midi":41,"time":"162.01","velocity":0.6771653543307087,"duration":"0.58"},{"name":"D4","midi":62,"time":"162.01","velocity":0.5354330708661418,"duration":"0.58"},{"name":"F3","midi":53,"time":"162.01","velocity":0.6771653543307087,"duration":"0.58"},{"name":"A3","midi":57,"time":"162.02","velocity":0.5984251968503937,"duration":"0.28"},{"name":"A3","midi":57,"time":"162.31","velocity":0.5984251968503937,"duration":"0.28"},{"name":"A4","midi":69,"time":"162.60","velocity":0.6771653543307087,"duration":"0.58"},{"name":"D4","midi":62,"time":"162.61","velocity":0.5354330708661418,"duration":"0.58"},{"name":"F3","midi":53,"time":"162.61","velocity":0.6771653543307087,"duration":"0.58"},{"name":"A3","midi":57,"time":"162.61","velocity":0.5984251968503937,"duration":"0.28"},{"name":"F2","midi":41,"time":"162.61","velocity":0.5984251968503937,"duration":"0.58"},{"name":"A3","midi":57,"time":"162.91","velocity":0.5984251968503937,"duration":"0.30"},{"name":"G4","midi":67,"time":"163.20","velocity":0.6771653543307087,"duration":"0.58"},{"name":"E4","midi":64,"time":"163.20","velocity":0.6771653543307087,"duration":"0.28"},{"name":"C4","midi":60,"time":"163.20","velocity":0.6771653543307087,"duration":"0.30"},{"name":"G3","midi":55,"time":"163.20","velocity":0.6771653543307087,"duration":"0.58"},{"name":"C3","midi":48,"time":"163.20","velocity":0.6771653543307087,"duration":"0.58"},{"name":"E4","midi":64,"time":"163.49","velocity":0.6771653543307087,"duration":"0.28"},{"name":"C4","midi":60,"time":"163.51","velocity":0.6771653543307087,"duration":"0.30"},{"name":"C3","midi":48,"time":"163.79","velocity":0.5984251968503937,"duration":"0.58"},{"name":"E4","midi":64,"time":"163.79","velocity":0.5984251968503937,"duration":"0.29"},{"name":"G3","midi":55,"time":"163.80","velocity":0.6771653543307087,"duration":"0.58"},{"name":"G4","midi":67,"time":"163.80","velocity":0.6771653543307087,"duration":"0.58"},{"name":"C4","midi":60,"time":"163.82","velocity":0.6771653543307087,"duration":"0.30"},{"name":"E4","midi":64,"time":"164.08","velocity":0.5984251968503937,"duration":"0.29"},{"name":"C4","midi":60,"time":"164.11","velocity":0.5984251968503937,"duration":"0.28"},{"name":"C3","midi":48,"time":"164.40","velocity":0.6771653543307087,"duration":"0.58"},{"name":"E4","midi":64,"time":"164.40","velocity":0.6771653543307087,"duration":"0.28"},{"name":"G4","midi":67,"time":"164.40","velocity":0.6771653543307087,"duration":"0.58"},{"name":"G3","midi":55,"time":"164.41","velocity":0.6771653543307087,"duration":"0.58"},{"name":"C4","midi":60,"time":"164.42","velocity":0.5984251968503937,"duration":"0.28"},{"name":"E4","midi":64,"time":"164.68","velocity":0.6771653543307087,"duration":"0.28"},{"name":"C4","midi":60,"time":"164.71","velocity":0.5984251968503937,"duration":"0.28"},{"name":"G4","midi":67,"time":"165.00","velocity":0.6771653543307087,"duration":"0.58"},{"name":"E4","midi":64,"time":"165.00","velocity":0.5984251968503937,"duration":"0.28"},{"name":"C3","midi":48,"time":"165.00","velocity":0.5984251968503937,"duration":"0.29"},{"name":"G3","midi":55,"time":"165.00","velocity":0.6771653543307087,"duration":"0.58"},{"name":"C4","midi":60,"time":"165.01","velocity":0.5984251968503937,"duration":"0.28"},{"name":"D4","midi":62,"time":"165.28","velocity":0.5984251968503937,"duration":"0.28"},{"name":"A#2","midi":46,"time":"165.30","velocity":0.5984251968503937,"duration":"0.28"},{"name":"C4","midi":60,"time":"165.31","velocity":0.5984251968503937,"duration":"0.27"},{"name":"C2","midi":36,"time":"165.59","velocity":0.5984251968503937,"duration":"0.57"},{"name":"C3","midi":48,"time":"165.59","velocity":0.5984251968503937,"duration":"0.57"},{"name":"G3","midi":55,"time":"165.60","velocity":0.5984251968503937,"duration":"0.57"},{"name":"C4","midi":60,"time":"165.61","velocity":0.5984251968503937,"duration":"0.57"},{"name":"E4","midi":64,"time":"165.63","velocity":0.6771653543307087,"duration":"0.58"},{"name":"C4","midi":60,"time":"167.40","velocity":0.6771653543307087,"duration":"0.58"},{"name":"E4","midi":64,"time":"167.40","velocity":0.6771653543307087,"duration":"0.58"},{"name":"G4","midi":67,"time":"167.41","velocity":0.6771653543307087,"duration":"0.58"},{"name":"A#4","midi":70,"time":"167.41","velocity":0.6771653543307087,"duration":"0.58"},{"name":"F2","midi":41,"time":"168.00","velocity":0.5196850393700787,"duration":"0.28"},{"name":"C3","midi":48,"time":"168.00","velocity":0.6771653543307087,"duration":"0.30"},{"name":"F4","midi":65,"time":"168.00","velocity":0.6771653543307087,"duration":"0.58"},{"name":"A3","midi":57,"time":"168.00","velocity":0.6771653543307087,"duration":"0.28"},{"name":"F3","midi":53,"time":"168.00","velocity":0.6771653543307087,"duration":"0.28"},{"name":"A4","midi":69,"time":"168.01","velocity":0.6771653543307087,"duration":"0.58"},{"name":"C4","midi":60,"time":"168.02","velocity":0.6771653543307087,"duration":"0.28"},{"name":"C3","midi":48,"time":"168.30","velocity":0.4881889763779528,"duration":"0.30"},{"name":"F3","midi":53,"time":"168.30","velocity":0.4881889763779528,"duration":"0.28"},{"name":"A3","midi":57,"time":"168.30","velocity":0.4881889763779528,"duration":"0.28"},{"name":"C3","midi":48,"time":"168.59","velocity":0.5984251968503937,"duration":"0.58"},{"name":"C4","midi":60,"time":"168.59","velocity":0.6771653543307087,"duration":"0.28"},{"name":"F2","midi":41,"time":"168.60","velocity":0.5196850393700787,"duration":"0.28"},{"name":"A3","midi":57,"time":"168.60","velocity":0.5984251968503937,"duration":"0.30"},{"name":"F3","midi":53,"time":"168.60","velocity":0.5984251968503937,"duration":"0.30"},{"name":"A4","midi":69,"time":"168.61","velocity":0.6771653543307087,"duration":"0.58"},{"name":"F4","midi":65,"time":"168.61","velocity":0.5984251968503937,"duration":"0.58"},{"name":"F3","midi":53,"time":"168.90","velocity":0.5984251968503937,"duration":"0.30"},{"name":"A3","midi":57,"time":"168.90","velocity":0.5984251968503937,"duration":"0.30"},{"name":"C4","midi":60,"time":"169.19","velocity":0.6771653543307087,"duration":"0.28"},{"name":"F2","midi":41,"time":"169.20","velocity":0.5196850393700787,"duration":"0.28"},{"name":"C3","midi":48,"time":"169.20","velocity":0.6771653543307087,"duration":"0.58"},{"name":"A4","midi":69,"time":"169.21","velocity":0.6771653543307087,"duration":"0.58"},{"name":"F3","midi":53,"time":"169.21","velocity":0.6771653543307087,"duration":"0.27"},{"name":"A3","midi":57,"time":"169.21","velocity":0.6771653543307087,"duration":"0.27"},{"name":"F4","midi":65,"time":"169.22","velocity":0.6771653543307087,"duration":"0.58"},{"name":"F3","midi":53,"time":"169.50","velocity":0.5196850393700787,"duration":"0.28"},{"name":"A3","midi":57,"time":"169.50","velocity":0.5196850393700787,"duration":"0.28"},{"name":"C3","midi":48,"time":"169.79","velocity":0.5984251968503937,"duration":"0.58"},{"name":"A4","midi":69,"time":"169.80","velocity":0.6771653543307087,"duration":"0.58"},{"name":"F2","midi":41,"time":"169.80","velocity":0.5196850393700787,"duration":"0.28"},{"name":"C4","midi":60,"time":"169.80","velocity":0.6771653543307087,"duration":"0.28"},{"name":"A3","midi":57,"time":"169.81","velocity":0.5984251968503937,"duration":"0.27"},{"name":"F3","midi":53,"time":"169.81","velocity":0.5984251968503937,"duration":"0.27"},{"name":"F4","midi":65,"time":"169.82","velocity":0.5984251968503937,"duration":"0.58"},{"name":"F3","midi":53,"time":"170.11","velocity":0.5984251968503937,"duration":"0.27"},{"name":"F4","midi":65,"time":"170.40","velocity":0.6771653543307087,"duration":"0.58"},{"name":"F3","midi":53,"time":"170.40","velocity":0.6771653543307087,"duration":"0.28"},{"name":"D4","midi":62,"time":"170.40","velocity":0.6771653543307087,"duration":"0.28"},{"name":"A#3","midi":58,"time":"170.40","velocity":0.6771653543307087,"duration":"0.28"},{"name":"A#2","midi":46,"time":"170.40","velocity":0.6771653543307087,"duration":"0.30"},{"name":"A#4","midi":70,"time":"170.42","velocity":0.6771653543307087,"duration":"0.58"},{"name":"A#2","midi":46,"time":"170.70","velocity":0.4881889763779528,"duration":"0.30"},{"name":"F3","midi":53,"time":"170.70","velocity":0.4881889763779528,"duration":"0.28"},{"name":"A#3","midi":58,"time":"170.70","velocity":0.4881889763779528,"duration":"0.28"},{"name":"D4","midi":62,"time":"170.98","velocity":0.6771653543307087,"duration":"0.28"},{"name":"A#2","midi":46,"time":"170.99","velocity":0.5984251968503937,"duration":"0.58"},{"name":"A#3","midi":58,"time":"171.00","velocity":0.5984251968503937,"duration":"0.30"},{"name":"F3","midi":53,"time":"171.00","velocity":0.5984251968503937,"duration":"0.30"},{"name":"F4","midi":65,"time":"171.01","velocity":0.5984251968503937,"duration":"0.58"},{"name":"A#4","midi":70,"time":"171.03","velocity":0.6771653543307087,"duration":"0.58"},{"name":"F3","midi":53,"time":"171.30","velocity":0.5984251968503937,"duration":"0.30"},{"name":"A#3","midi":58,"time":"171.30","velocity":0.5984251968503937,"duration":"0.30"},{"name":"D4","midi":62,"time":"171.58","velocity":0.6771653543307087,"duration":"0.28"},{"name":"A#2","midi":46,"time":"171.60","velocity":0.6771653543307087,"duration":"0.58"},{"name":"F3","midi":53,"time":"171.61","velocity":0.6771653543307087,"duration":"0.27"},{"name":"A#3","midi":58,"time":"171.61","velocity":0.6771653543307087,"duration":"0.27"},{"name":"F4","midi":65,"time":"171.62","velocity":0.6771653543307087,"duration":"0.58"},{"name":"A#4","midi":70,"time":"171.63","velocity":0.6771653543307087,"duration":"0.58"},{"name":"A#3","midi":58,"time":"171.90","velocity":0.5196850393700787,"duration":"0.28"},{"name":"F3","midi":53,"time":"171.90","velocity":0.5196850393700787,"duration":"0.28"},{"name":"D4","midi":62,"time":"172.18","velocity":0.6771653543307087,"duration":"0.28"},{"name":"A#2","midi":46,"time":"172.19","velocity":0.5984251968503937,"duration":"0.58"},{"name":"A4","midi":69,"time":"172.20","velocity":0.6771653543307087,"duration":"0.58"},{"name":"A#3","midi":58,"time":"172.21","velocity":0.5984251968503937,"duration":"0.28"},{"name":"F3","midi":53,"time":"172.21","velocity":0.5984251968503937,"duration":"0.28"},{"name":"F4","midi":65,"time":"172.22","velocity":0.5984251968503937,"duration":"0.58"},{"name":"F3","midi":53,"time":"172.51","velocity":0.5984251968503937,"duration":"0.27"},{"name":"F2","midi":41,"time":"172.80","velocity":0.5196850393700787,"duration":"0.28"},{"name":"C3","midi":48,"time":"172.80","velocity":0.6771653543307087,"duration":"0.30"},{"name":"F4","midi":65,"time":"172.80","velocity":0.6771653543307087,"duration":"0.58"},{"name":"A3","midi":57,"time":"172.80","velocity":0.6771653543307087,"duration":"0.28"},{"name":"F3","midi":53,"time":"172.80","velocity":0.6771653543307087,"duration":"0.28"},{"name":"A4","midi":69,"time":"172.81","velocity":0.6771653543307087,"duration":"0.58"},{"name":"C4","midi":60,"time":"172.82","velocity":0.6771653543307087,"duration":"0.28"},{"name":"C3","midi":48,"time":"173.10","velocity":0.4881889763779528,"duration":"0.30"},{"name":"F3","midi":53,"time":"173.10","velocity":0.4881889763779528,"duration":"0.28"},{"name":"A3","midi":57,"time":"173.10","velocity":0.4881889763779528,"duration":"0.28"},{"name":"C3","midi":48,"time":"173.39","velocity":0.5984251968503937,"duration":"0.58"},{"name":"C4","midi":60,"time":"173.39","velocity":0.6771653543307087,"duration":"0.28"},{"name":"F2","midi":41,"time":"173.40","velocity":0.5196850393700787,"duration":"0.28"},{"name":"A3","midi":57,"time":"173.40","velocity":0.5984251968503937,"duration":"0.30"},{"name":"F3","midi":53,"time":"173.40","velocity":0.5984251968503937,"duration":"0.30"},{"name":"A4","midi":69,"time":"173.41","velocity":0.6771653543307087,"duration":"0.58"},{"name":"F4","midi":65,"time":"173.41","velocity":0.5984251968503937,"duration":"0.58"},{"name":"F3","midi":53,"time":"173.70","velocity":0.5984251968503937,"duration":"0.30"},{"name":"A3","midi":57,"time":"173.70","velocity":0.5984251968503937,"duration":"0.30"},{"name":"C4","midi":60,"time":"173.99","velocity":0.6771653543307087,"duration":"0.28"},{"name":"F2","midi":41,"time":"174.00","velocity":0.5196850393700787,"duration":"0.28"},{"name":"C3","midi":48,"time":"174.00","velocity":0.6771653543307087,"duration":"0.58"},{"name":"A4","midi":69,"time":"174.01","velocity":0.6771653543307087,"duration":"0.58"},{"name":"F3","midi":53,"time":"174.01","velocity":0.6771653543307087,"duration":"0.27"},{"name":"A3","midi":57,"time":"174.01","velocity":0.6771653543307087,"duration":"0.27"},{"name":"F4","midi":65,"time":"174.02","velocity":0.6771653543307087,"duration":"0.58"},{"name":"F3","midi":53,"time":"174.30","velocity":0.5196850393700787,"duration":"0.28"},{"name":"A3","midi":57,"time":"174.30","velocity":0.5196850393700787,"duration":"0.28"},{"name":"C3","midi":48,"time":"174.59","velocity":0.5984251968503937,"duration":"0.58"},{"name":"A4","midi":69,"time":"174.60","velocity":0.6771653543307087,"duration":"0.58"},{"name":"F2","midi":41,"time":"174.60","velocity":0.5196850393700787,"duration":"0.28"},{"name":"C4","midi":60,"time":"174.60","velocity":0.6771653543307087,"duration":"0.28"},{"name":"A3","midi":57,"time":"174.61","velocity":0.5984251968503937,"duration":"0.27"},{"name":"F3","midi":53,"time":"174.61","velocity":0.5984251968503937,"duration":"0.27"},{"name":"F4","midi":65,"time":"174.62","velocity":0.5984251968503937,"duration":"0.58"},{"name":"F3","midi":53,"time":"174.91","velocity":0.5984251968503937,"duration":"0.27"},{"name":"F2","midi":41,"time":"175.20","velocity":0.5196850393700787,"duration":"0.28"},{"name":"C3","midi":48,"time":"175.20","velocity":0.6771653543307087,"duration":"0.30"},{"name":"F4","midi":65,"time":"175.20","velocity":0.6771653543307087,"duration":"0.58"},{"name":"A3","midi":57,"time":"175.20","velocity":0.6771653543307087,"duration":"0.28"},{"name":"F3","midi":53,"time":"175.20","velocity":0.6771653543307087,"duration":"0.28"},{"name":"A4","midi":69,"time":"175.21","velocity":0.6771653543307087,"duration":"0.58"},{"name":"C4","midi":60,"time":"175.22","velocity":0.6771653543307087,"duration":"0.28"},{"name":"C3","midi":48,"time":"175.50","velocity":0.4881889763779528,"duration":"0.30"},{"name":"F3","midi":53,"time":"175.50","velocity":0.4881889763779528,"duration":"0.28"},{"name":"A3","midi":57,"time":"175.50","velocity":0.4881889763779528,"duration":"0.28"},{"name":"C3","midi":48,"time":"175.79","velocity":0.5984251968503937,"duration":"0.58"},{"name":"C4","midi":60,"time":"175.79","velocity":0.6771653543307087,"duration":"0.28"},{"name":"F2","midi":41,"time":"175.80","velocity":0.5196850393700787,"duration":"0.28"},{"name":"A3","midi":57,"time":"175.80","velocity":0.5984251968503937,"duration":"0.30"},{"name":"F3","midi":53,"time":"175.80","velocity":0.5984251968503937,"duration":"0.30"},{"name":"A4","midi":69,"time":"175.81","velocity":0.6771653543307087,"duration":"0.58"},{"name":"F4","midi":65,"time":"175.81","velocity":0.5984251968503937,"duration":"0.58"},{"name":"F3","midi":53,"time":"176.10","velocity":0.5984251968503937,"duration":"0.30"},{"name":"A3","midi":57,"time":"176.10","velocity":0.5984251968503937,"duration":"0.30"},{"name":"C4","midi":60,"time":"176.39","velocity":0.6771653543307087,"duration":"0.28"},{"name":"F2","midi":41,"time":"176.40","velocity":0.5196850393700787,"duration":"0.28"},{"name":"C3","midi":48,"time":"176.40","velocity":0.6771653543307087,"duration":"0.58"},{"name":"A4","midi":69,"time":"176.41","velocity":0.6771653543307087,"duration":"0.58"},{"name":"F3","midi":53,"time":"176.41","velocity":0.6771653543307087,"duration":"0.27"},{"name":"A3","midi":57,"time":"176.41","velocity":0.6771653543307087,"duration":"0.27"},{"name":"F4","midi":65,"time":"176.42","velocity":0.6771653543307087,"duration":"0.58"},{"name":"F3","midi":53,"time":"176.70","velocity":0.5196850393700787,"duration":"0.28"},{"name":"A3","midi":57,"time":"176.70","velocity":0.5196850393700787,"duration":"0.28"},{"name":"C3","midi":48,"time":"176.99","velocity":0.5984251968503937,"duration":"0.58"},{"name":"A4","midi":69,"time":"177.00","velocity":0.6771653543307087,"duration":"0.58"},{"name":"F2","midi":41,"time":"177.00","velocity":0.5196850393700787,"duration":"0.28"},{"name":"C4","midi":60,"time":"177.00","velocity":0.6771653543307087,"duration":"0.28"},{"name":"A3","midi":57,"time":"177.01","velocity":0.5984251968503937,"duration":"0.27"},{"name":"F3","midi":53,"time":"177.01","velocity":0.5984251968503937,"duration":"0.27"},{"name":"F4","midi":65,"time":"177.02","velocity":0.5984251968503937,"duration":"0.58"},{"name":"F3","midi":53,"time":"177.31","velocity":0.5984251968503937,"duration":"0.27"},{"name":"F4","midi":65,"time":"177.60","velocity":0.6771653543307087,"duration":"0.58"},{"name":"C4","midi":60,"time":"177.60","velocity":0.6771653543307087,"duration":"0.28"},{"name":"A3","midi":57,"time":"177.60","velocity":0.6771653543307087,"duration":"0.28"},{"name":"D3","midi":50,"time":"177.60","velocity":0.6771653543307087,"duration":"0.30"},{"name":"F2","midi":41,"time":"177.60","velocity":0.5196850393700787,"duration":"0.28"},{"name":"D4","midi":62,"time":"177.61","velocity":0.6771653543307087,"duration":"0.28"},{"name":"A4","midi":69,"time":"177.61","velocity":0.6771653543307087,"duration":"0.58"},{"name":"D3","midi":50,"time":"177.90","velocity":0.4881889763779528,"duration":"0.30"},{"name":"D4","midi":62,"time":"177.90","velocity":0.4881889763779528,"duration":"0.28"},{"name":"A3","midi":57,"time":"177.90","velocity":0.4881889763779528,"duration":"0.28"},{"name":"D4","midi":62,"time":"178.18","velocity":0.6771653543307087,"duration":"0.28"},{"name":"D3","midi":50,"time":"178.19","velocity":0.5984251968503937,"duration":"0.58"},{"name":"F2","midi":41,"time":"178.20","velocity":0.5196850393700787,"duration":"0.28"},{"name":"C4","midi":60,"time":"178.20","velocity":0.5984251968503937,"duration":"0.30"},{"name":"A3","midi":57,"time":"178.20","velocity":0.5984251968503937,"duration":"0.30"},{"name":"A4","midi":69,"time":"178.21","velocity":0.6771653543307087,"duration":"0.58"},{"name":"F4","midi":65,"time":"178.21","velocity":0.5984251968503937,"duration":"0.58"},{"name":"A3","midi":57,"time":"178.50","velocity":0.4409448818897638,"duration":"0.30"},{"name":"D4","midi":62,"time":"178.50","velocity":0.4409448818897638,"duration":"0.30"},{"name":"D4","midi":62,"time":"178.78","velocity":0.6771653543307087,"duration":"0.28"},{"name":"F2","midi":41,"time":"178.80","velocity":0.5196850393700787,"duration":"0.28"},{"name":"D3","midi":50,"time":"178.80","velocity":0.6771653543307087,"duration":"0.58"},{"name":"A3","midi":57,"time":"178.81","velocity":0.6771653543307087,"duration":"0.27"},{"name":"C4","midi":60,"time":"178.81","velocity":0.6771653543307087,"duration":"0.27"},{"name":"A4","midi":69,"time":"178.81","velocity":0.6771653543307087,"duration":"0.58"},{"name":"F4","midi":65,"time":"178.82","velocity":0.6771653543307087,"duration":"0.58"},{"name":"A3","midi":57,"time":"179.10","velocity":0.3937007874015748,"duration":"0.28"},{"name":"D4","midi":62,"time":"179.10","velocity":0.3937007874015748,"duration":"0.28"},{"name":"D3","midi":50,"time":"179.39","velocity":0.5984251968503937,"duration":"0.58"},{"name":"D4","midi":62,"time":"179.39","velocity":0.6771653543307087,"duration":"0.28"},{"name":"F2","midi":41,"time":"179.40","velocity":0.5196850393700787,"duration":"0.28"},{"name":"A4","midi":69,"time":"179.40","velocity":0.6771653543307087,"duration":"0.58"},{"name":"C4","midi":60,"time":"179.41","velocity":0.5984251968503937,"duration":"0.27"},{"name":"A3","midi":57,"time":"179.41","velocity":0.5984251968503937,"duration":"0.27"},{"name":"F4","midi":65,"time":"179.42","velocity":0.5984251968503937,"duration":"0.58"},{"name":"A3","midi":57,"time":"179.71","velocity":0.5984251968503937,"duration":"0.27"},{"name":"F4","midi":65,"time":"180.00","velocity":0.6771653543307087,"duration":"0.58"},{"name":"F3","midi":53,"time":"180.00","velocity":0.6771653543307087,"duration":"0.30"},{"name":"A#2","midi":46,"time":"180.00","velocity":0.5196850393700787,"duration":"0.28"},{"name":"D4","midi":62,"time":"180.00","velocity":0.6771653543307087,"duration":"0.28"},{"name":"A#3","midi":58,"time":"180.00","velocity":0.6771653543307087,"duration":"0.28"},{"name":"A#4","midi":70,"time":"180.00","velocity":0.6771653543307087,"duration":"0.58"},{"name":"F3","midi":53,"time":"180.30","velocity":0.4881889763779528,"duration":"0.30"},{"name":"A#3","midi":58,"time":"180.30","velocity":0.4881889763779528,"duration":"0.28"},{"name":"D4","midi":62,"time":"180.58","velocity":0.6771653543307087,"duration":"0.28"},{"name":"F3","midi":53,"time":"180.59","velocity":0.5984251968503937,"duration":"0.58"},{"name":"A#2","midi":46,"time":"180.60","velocity":0.5196850393700787,"duration":"0.28"},{"name":"A#4","midi":70,"time":"180.60","velocity":0.6771653543307087,"duration":"0.58"},{"name":"A#3","midi":58,"time":"180.60","velocity":0.5984251968503937,"duration":"0.30"},{"name":"F4","midi":65,"time":"180.61","velocity":0.5984251968503937,"duration":"0.58"},{"name":"A#3","midi":58,"time":"180.90","velocity":0.5984251968503937,"duration":"0.30"},{"name":"D4","midi":62,"time":"181.18","velocity":0.6771653543307087,"duration":"0.28"},{"name":"A#2","midi":46,"time":"181.20","velocity":0.5196850393700787,"duration":"0.28"},{"name":"F3","midi":53,"time":"181.20","velocity":0.6771653543307087,"duration":"0.58"},{"name":"A#4","midi":70,"time":"181.20","velocity":0.6771653543307087,"duration":"0.58"},{"name":"A#3","midi":58,"time":"181.21","velocity":0.6771653543307087,"duration":"0.27"},{"name":"F4","midi":65,"time":"181.22","velocity":0.6771653543307087,"duration":"0.58"},{"name":"A#3","midi":58,"time":"181.50","velocity":0.5196850393700787,"duration":"0.28"},{"name":"D4","midi":62,"time":"181.79","velocity":0.6771653543307087,"duration":"0.28"},{"name":"A#4","midi":70,"time":"181.79","velocity":0.6771653543307087,"duration":"0.58"},{"name":"F3","midi":53,"time":"181.79","velocity":0.5984251968503937,"duration":"0.58"},{"name":"A#2","midi":46,"time":"181.80","velocity":0.5196850393700787,"duration":"0.28"},{"name":"A#3","midi":58,"time":"181.81","velocity":0.5984251968503937,"duration":"0.27"},{"name":"F4","midi":65,"time":"181.82","velocity":0.5984251968503937,"duration":"0.58"},{"name":"C4","midi":60,"time":"182.11","velocity":0.5984251968503937,"duration":"0.28"},{"name":"F2","midi":41,"time":"182.40","velocity":0.5196850393700787,"duration":"0.28"},{"name":"C3","midi":48,"time":"182.40","velocity":0.6771653543307087,"duration":"0.30"},{"name":"F4","midi":65,"time":"182.40","velocity":0.6771653543307087,"duration":"0.58"},{"name":"A3","midi":57,"time":"182.40","velocity":0.6771653543307087,"duration":"0.28"},{"name":"F3","midi":53,"time":"182.40","velocity":0.6771653543307087,"duration":"0.28"},{"name":"A4","midi":69,"time":"182.41","velocity":0.6771653543307087,"duration":"0.58"},{"name":"C4","midi":60,"time":"182.42","velocity":0.6771653543307087,"duration":"0.28"},{"name":"C3","midi":48,"time":"182.70","velocity":0.4881889763779528,"duration":"0.30"},{"name":"F3","midi":53,"time":"182.70","velocity":0.4881889763779528,"duration":"0.28"},{"name":"A3","midi":57,"time":"182.70","velocity":0.4881889763779528,"duration":"0.28"},{"name":"C3","midi":48,"time":"182.99","velocity":0.5984251968503937,"duration":"0.58"},{"name":"C4","midi":60,"time":"182.99","velocity":0.6771653543307087,"duration":"0.28"},{"name":"F2","midi":41,"time":"183.00","velocity":0.5196850393700787,"duration":"0.28"},{"name":"A3","midi":57,"time":"183.00","velocity":0.5984251968503937,"duration":"0.30"},{"name":"F3","midi":53,"time":"183.00","velocity":0.5984251968503937,"duration":"0.30"},{"name":"A4","midi":69,"time":"183.01","velocity":0.6771653543307087,"duration":"0.58"},{"name":"F4","midi":65,"time":"183.01","velocity":0.5984251968503937,"duration":"0.58"},{"name":"F3","midi":53,"time":"183.30","velocity":0.5984251968503937,"duration":"0.30"},{"name":"A3","midi":57,"time":"183.30","velocity":0.5984251968503937,"duration":"0.30"},{"name":"C4","midi":60,"time":"183.59","velocity":0.6771653543307087,"duration":"0.28"},{"name":"F2","midi":41,"time":"183.60","velocity":0.5196850393700787,"duration":"0.28"},{"name":"C3","midi":48,"time":"183.60","velocity":0.6771653543307087,"duration":"0.58"},{"name":"A4","midi":69,"time":"183.61","velocity":0.6771653543307087,"duration":"0.58"},{"name":"F3","midi":53,"time":"183.61","velocity":0.6771653543307087,"duration":"0.27"},{"name":"A3","midi":57,"time":"183.61","velocity":0.6771653543307087,"duration":"0.27"},{"name":"F4","midi":65,"time":"183.62","velocity":0.6771653543307087,"duration":"0.58"},{"name":"F3","midi":53,"time":"183.90","velocity":0.5196850393700787,"duration":"0.28"},{"name":"A3","midi":57,"time":"183.90","velocity":0.5196850393700787,"duration":"0.28"},{"name":"C3","midi":48,"time":"184.19","velocity":0.5984251968503937,"duration":"0.58"},{"name":"A4","midi":69,"time":"184.20","velocity":0.6771653543307087,"duration":"0.58"},{"name":"F2","midi":41,"time":"184.20","velocity":0.5196850393700787,"duration":"0.28"},{"name":"C4","midi":60,"time":"184.20","velocity":0.6771653543307087,"duration":"0.28"},{"name":"A3","midi":57,"time":"184.21","velocity":0.5984251968503937,"duration":"0.27"},{"name":"F3","midi":53,"time":"184.21","velocity":0.5984251968503937,"duration":"0.27"},{"name":"F4","midi":65,"time":"184.22","velocity":0.5984251968503937,"duration":"0.58"},{"name":"F3","midi":53,"time":"184.51","velocity":0.5984251968503937,"duration":"0.27"},{"name":"F2","midi":41,"time":"184.80","velocity":0.5196850393700787,"duration":"0.28"},{"name":"C3","midi":48,"time":"184.80","velocity":0.6771653543307087,"duration":"0.30"},{"name":"F4","midi":65,"time":"184.80","velocity":0.6771653543307087,"duration":"0.58"},{"name":"A3","midi":57,"time":"184.80","velocity":0.6771653543307087,"duration":"0.28"},{"name":"F3","midi":53,"time":"184.80","velocity":0.6771653543307087,"duration":"0.28"},{"name":"A4","midi":69,"time":"184.81","velocity":0.6771653543307087,"duration":"0.58"},{"name":"C4","midi":60,"time":"184.82","velocity":0.6771653543307087,"duration":"0.28"},{"name":"C3","midi":48,"time":"185.10","velocity":0.4881889763779528,"duration":"0.30"},{"name":"F3","midi":53,"time":"185.10","velocity":0.4881889763779528,"duration":"0.28"},{"name":"A3","midi":57,"time":"185.10","velocity":0.4881889763779528,"duration":"0.28"},{"name":"C3","midi":48,"time":"185.39","velocity":0.5984251968503937,"duration":"0.58"},{"name":"C4","midi":60,"time":"185.39","velocity":0.6771653543307087,"duration":"0.28"},{"name":"F2","midi":41,"time":"185.40","velocity":0.5196850393700787,"duration":"0.28"},{"name":"A3","midi":57,"time":"185.40","velocity":0.5984251968503937,"duration":"0.30"},{"name":"F3","midi":53,"time":"185.40","velocity":0.5984251968503937,"duration":"0.30"},{"name":"A4","midi":69,"time":"185.41","velocity":0.6771653543307087,"duration":"0.58"},{"name":"F4","midi":65,"time":"185.41","velocity":0.5984251968503937,"duration":"0.58"},{"name":"F3","midi":53,"time":"185.70","velocity":0.5984251968503937,"duration":"0.30"},{"name":"A3","midi":57,"time":"185.70","velocity":0.5984251968503937,"duration":"0.30"},{"name":"C4","midi":60,"time":"185.99","velocity":0.6771653543307087,"duration":"0.28"},{"name":"F2","midi":41,"time":"186.00","velocity":0.5196850393700787,"duration":"0.28"},{"name":"C3","midi":48,"time":"186.00","velocity":0.6771653543307087,"duration":"0.58"},{"name":"A4","midi":69,"time":"186.01","velocity":0.6771653543307087,"duration":"0.58"},{"name":"F3","midi":53,"time":"186.01","velocity":0.6771653543307087,"duration":"0.27"},{"name":"A3","midi":57,"time":"186.01","velocity":0.6771653543307087,"duration":"0.27"},{"name":"F4","midi":65,"time":"186.02","velocity":0.6771653543307087,"duration":"0.58"},{"name":"F3","midi":53,"time":"186.30","velocity":0.5196850393700787,"duration":"0.28"},{"name":"A3","midi":57,"time":"186.30","velocity":0.5196850393700787,"duration":"0.28"},{"name":"C3","midi":48,"time":"186.59","velocity":0.5984251968503937,"duration":"0.58"},{"name":"A4","midi":69,"time":"186.60","velocity":0.6771653543307087,"duration":"0.58"},{"name":"F2","midi":41,"time":"186.60","velocity":0.5196850393700787,"duration":"0.28"},{"name":"C4","midi":60,"time":"186.60","velocity":0.6771653543307087,"duration":"0.28"},{"name":"A3","midi":57,"time":"186.61","velocity":0.5984251968503937,"duration":"0.27"},{"name":"F3","midi":53,"time":"186.61","velocity":0.5984251968503937,"duration":"0.27"},{"name":"F4","midi":65,"time":"186.62","velocity":0.5984251968503937,"duration":"0.58"},{"name":"F3","midi":53,"time":"186.91","velocity":0.5984251968503937,"duration":"0.27"},{"name":"F4","midi":65,"time":"187.20","velocity":0.6771653543307087,"duration":"0.58"},{"name":"C4","midi":60,"time":"187.20","velocity":0.6771653543307087,"duration":"0.28"},{"name":"A3","midi":57,"time":"187.20","velocity":0.6771653543307087,"duration":"0.28"},{"name":"D3","midi":50,"time":"187.20","velocity":0.6771653543307087,"duration":"0.30"},{"name":"F2","midi":41,"time":"187.20","velocity":0.5196850393700787,"duration":"0.28"},{"name":"D4","midi":62,"time":"187.21","velocity":0.6771653543307087,"duration":"0.28"},{"name":"A4","midi":69,"time":"187.21","velocity":0.6771653543307087,"duration":"0.58"},{"name":"D3","midi":50,"time":"187.50","velocity":0.4881889763779528,"duration":"0.30"},{"name":"D4","midi":62,"time":"187.50","velocity":0.4881889763779528,"duration":"0.28"},{"name":"A3","midi":57,"time":"187.50","velocity":0.4881889763779528,"duration":"0.28"},{"name":"D4","midi":62,"time":"187.78","velocity":0.6771653543307087,"duration":"0.28"},{"name":"D3","midi":50,"time":"187.79","velocity":0.5984251968503937,"duration":"0.58"},{"name":"F2","midi":41,"time":"187.80","velocity":0.5196850393700787,"duration":"0.28"},{"name":"C4","midi":60,"time":"187.80","velocity":0.5984251968503937,"duration":"0.30"},{"name":"A3","midi":57,"time":"187.80","velocity":0.5984251968503937,"duration":"0.30"},{"name":"A4","midi":69,"time":"187.81","velocity":0.6771653543307087,"duration":"0.58"},{"name":"F4","midi":65,"time":"187.81","velocity":0.5984251968503937,"duration":"0.58"},{"name":"A3","midi":57,"time":"188.10","velocity":0.4409448818897638,"duration":"0.30"},{"name":"D4","midi":62,"time":"188.10","velocity":0.4409448818897638,"duration":"0.30"},{"name":"D4","midi":62,"time":"188.38","velocity":0.6771653543307087,"duration":"0.28"},{"name":"F2","midi":41,"time":"188.40","velocity":0.5196850393700787,"duration":"0.28"},{"name":"D3","midi":50,"time":"188.40","velocity":0.6771653543307087,"duration":"0.58"},{"name":"A3","midi":57,"time":"188.41","velocity":0.6771653543307087,"duration":"0.27"},{"name":"C4","midi":60,"time":"188.41","velocity":0.6771653543307087,"duration":"0.27"},{"name":"A4","midi":69,"time":"188.41","velocity":0.6771653543307087,"duration":"0.58"},{"name":"F4","midi":65,"time":"188.42","velocity":0.6771653543307087,"duration":"0.58"},{"name":"A3","midi":57,"time":"188.70","velocity":0.3937007874015748,"duration":"0.28"},{"name":"D4","midi":62,"time":"188.70","velocity":0.3937007874015748,"duration":"0.28"},{"name":"D3","midi":50,"time":"188.99","velocity":0.5984251968503937,"duration":"0.58"},{"name":"D4","midi":62,"time":"188.99","velocity":0.6771653543307087,"duration":"0.28"},{"name":"F2","midi":41,"time":"189.00","velocity":0.5196850393700787,"duration":"0.28"},{"name":"A4","midi":69,"time":"189.00","velocity":0.6771653543307087,"duration":"0.58"},{"name":"C4","midi":60,"time":"189.01","velocity":0.5984251968503937,"duration":"0.27"},{"name":"A3","midi":57,"time":"189.01","velocity":0.5984251968503937,"duration":"0.27"},{"name":"F4","midi":65,"time":"189.02","velocity":0.5984251968503937,"duration":"0.58"},{"name":"A3","midi":57,"time":"189.31","velocity":0.5984251968503937,"duration":"0.27"},{"name":"F4","midi":65,"time":"189.60","velocity":0.6771653543307087,"duration":"0.58"},{"name":"F3","midi":53,"time":"189.60","velocity":0.6771653543307087,"duration":"0.30"},{"name":"A#2","midi":46,"time":"189.60","velocity":0.5196850393700787,"duration":"0.28"},{"name":"D4","midi":62,"time":"189.60","velocity":0.6771653543307087,"duration":"0.28"},{"name":"A#3","midi":58,"time":"189.60","velocity":0.6771653543307087,"duration":"0.28"},{"name":"A#4","midi":70,"time":"189.60","velocity":0.6771653543307087,"duration":"0.58"},{"name":"F3","midi":53,"time":"189.90","velocity":0.4881889763779528,"duration":"0.30"},{"name":"A#3","midi":58,"time":"189.90","velocity":0.4881889763779528,"duration":"0.28"},{"name":"D4","midi":62,"time":"190.18","velocity":0.6771653543307087,"duration":"0.28"},{"name":"F3","midi":53,"time":"190.19","velocity":0.5984251968503937,"duration":"0.58"},{"name":"A#2","midi":46,"time":"190.20","velocity":0.5196850393700787,"duration":"0.28"},{"name":"A#4","midi":70,"time":"190.20","velocity":0.6771653543307087,"duration":"0.58"},{"name":"A#3","midi":58,"time":"190.20","velocity":0.5984251968503937,"duration":"0.30"},{"name":"F4","midi":65,"time":"190.21","velocity":0.5984251968503937,"duration":"0.58"},{"name":"A#3","midi":58,"time":"190.50","velocity":0.5984251968503937,"duration":"0.30"},{"name":"D4","midi":62,"time":"190.78","velocity":0.6771653543307087,"duration":"0.28"},{"name":"A#2","midi":46,"time":"190.80","velocity":0.5196850393700787,"duration":"0.28"},{"name":"F3","midi":53,"time":"190.80","velocity":0.6771653543307087,"duration":"0.58"},{"name":"A#4","midi":70,"time":"190.80","velocity":0.6771653543307087,"duration":"0.58"},{"name":"A#3","midi":58,"time":"190.81","velocity":0.6771653543307087,"duration":"0.27"},{"name":"F4","midi":65,"time":"190.82","velocity":0.6771653543307087,"duration":"0.58"},{"name":"A#3","midi":58,"time":"191.10","velocity":0.5196850393700787,"duration":"0.28"},{"name":"D4","midi":62,"time":"191.39","velocity":0.6771653543307087,"duration":"0.28"},{"name":"A#4","midi":70,"time":"191.39","velocity":0.6771653543307087,"duration":"0.58"},{"name":"F3","midi":53,"time":"191.39","velocity":0.5984251968503937,"duration":"0.58"},{"name":"A#2","midi":46,"time":"191.40","velocity":0.5196850393700787,"duration":"0.28"},{"name":"A#3","midi":58,"time":"191.41","velocity":0.5984251968503937,"duration":"0.27"},{"name":"F4","midi":65,"time":"191.42","velocity":0.5984251968503937,"duration":"0.58"},{"name":"C4","midi":60,"time":"191.71","velocity":0.5984251968503937,"duration":"0.28"},{"name":"F2","midi":41,"time":"192.00","velocity":0.5196850393700787,"duration":"0.28"},{"name":"C3","midi":48,"time":"192.00","velocity":0.6771653543307087,"duration":"0.30"},{"name":"F4","midi":65,"time":"192.00","velocity":0.6771653543307087,"duration":"0.58"},{"name":"A3","midi":57,"time":"192.00","velocity":0.6771653543307087,"duration":"0.28"},{"name":"F3","midi":53,"time":"192.00","velocity":0.6771653543307087,"duration":"0.28"},{"name":"A4","midi":69,"time":"192.01","velocity":0.6771653543307087,"duration":"0.58"},{"name":"C4","midi":60,"time":"192.02","velocity":0.6771653543307087,"duration":"0.28"},{"name":"C3","midi":48,"time":"192.30","velocity":0.4881889763779528,"duration":"0.30"},{"name":"F3","midi":53,"time":"192.30","velocity":0.4881889763779528,"duration":"0.28"},{"name":"A3","midi":57,"time":"192.30","velocity":0.4881889763779528,"duration":"0.28"},{"name":"C3","midi":48,"time":"192.59","velocity":0.5984251968503937,"duration":"0.58"},{"name":"C4","midi":60,"time":"192.59","velocity":0.6771653543307087,"duration":"0.28"},{"name":"F2","midi":41,"time":"192.60","velocity":0.5196850393700787,"duration":"0.28"},{"name":"A3","midi":57,"time":"192.60","velocity":0.5984251968503937,"duration":"0.30"},{"name":"F3","midi":53,"time":"192.60","velocity":0.5984251968503937,"duration":"0.30"},{"name":"A4","midi":69,"time":"192.61","velocity":0.6771653543307087,"duration":"0.58"},{"name":"F4","midi":65,"time":"192.61","velocity":0.5984251968503937,"duration":"0.58"},{"name":"F3","midi":53,"time":"192.90","velocity":0.5984251968503937,"duration":"0.30"},{"name":"A3","midi":57,"time":"192.90","velocity":0.5984251968503937,"duration":"0.30"},{"name":"C4","midi":60,"time":"193.19","velocity":0.6771653543307087,"duration":"0.28"},{"name":"F2","midi":41,"time":"193.20","velocity":0.5196850393700787,"duration":"0.28"},{"name":"C3","midi":48,"time":"193.20","velocity":0.6771653543307087,"duration":"0.58"},{"name":"A4","midi":69,"time":"193.21","velocity":0.6771653543307087,"duration":"0.58"},{"name":"F3","midi":53,"time":"193.21","velocity":0.6771653543307087,"duration":"0.27"},{"name":"A3","midi":57,"time":"193.21","velocity":0.6771653543307087,"duration":"0.27"},{"name":"F4","midi":65,"time":"193.22","velocity":0.6771653543307087,"duration":"0.58"},{"name":"F3","midi":53,"time":"193.50","velocity":0.5196850393700787,"duration":"0.28"},{"name":"A3","midi":57,"time":"193.50","velocity":0.5196850393700787,"duration":"0.28"},{"name":"C3","midi":48,"time":"193.79","velocity":0.5984251968503937,"duration":"0.58"},{"name":"A4","midi":69,"time":"193.80","velocity":0.6771653543307087,"duration":"0.58"},{"name":"F2","midi":41,"time":"193.80","velocity":0.5196850393700787,"duration":"0.28"},{"name":"C4","midi":60,"time":"193.80","velocity":0.6771653543307087,"duration":"0.28"},{"name":"A3","midi":57,"time":"193.81","velocity":0.5984251968503937,"duration":"0.27"},{"name":"F3","midi":53,"time":"193.81","velocity":0.5984251968503937,"duration":"0.27"},{"name":"F4","midi":65,"time":"193.82","velocity":0.5984251968503937,"duration":"0.58"},{"name":"F3","midi":53,"time":"194.11","velocity":0.5984251968503937,"duration":"0.27"},{"name":"F2","midi":41,"time":"194.40","velocity":0.5196850393700787,"duration":"0.28"},{"name":"C3","midi":48,"time":"194.40","velocity":0.6771653543307087,"duration":"0.30"},{"name":"F4","midi":65,"time":"194.40","velocity":0.6771653543307087,"duration":"0.58"},{"name":"A3","midi":57,"time":"194.40","velocity":0.6771653543307087,"duration":"0.28"},{"name":"F3","midi":53,"time":"194.40","velocity":0.6771653543307087,"duration":"0.28"},{"name":"A4","midi":69,"time":"194.41","velocity":0.6771653543307087,"duration":"0.58"},{"name":"C4","midi":60,"time":"194.42","velocity":0.6771653543307087,"duration":"0.28"},{"name":"C3","midi":48,"time":"194.70","velocity":0.4881889763779528,"duration":"0.30"},{"name":"F3","midi":53,"time":"194.70","velocity":0.4881889763779528,"duration":"0.28"},{"name":"A3","midi":57,"time":"194.70","velocity":0.4881889763779528,"duration":"0.28"},{"name":"C3","midi":48,"time":"194.99","velocity":0.5984251968503937,"duration":"0.58"},{"name":"C4","midi":60,"time":"194.99","velocity":0.6771653543307087,"duration":"0.28"},{"name":"F2","midi":41,"time":"195.00","velocity":0.5196850393700787,"duration":"0.28"},{"name":"A3","midi":57,"time":"195.00","velocity":0.5984251968503937,"duration":"0.30"},{"name":"F3","midi":53,"time":"195.00","velocity":0.5984251968503937,"duration":"0.30"},{"name":"A4","midi":69,"time":"195.01","velocity":0.6771653543307087,"duration":"0.58"},{"name":"F4","midi":65,"time":"195.01","velocity":0.5984251968503937,"duration":"0.58"},{"name":"F3","midi":53,"time":"195.30","velocity":0.5984251968503937,"duration":"0.30"},{"name":"A3","midi":57,"time":"195.30","velocity":0.5984251968503937,"duration":"0.30"},{"name":"C4","midi":60,"time":"195.59","velocity":0.6771653543307087,"duration":"0.28"},{"name":"F2","midi":41,"time":"195.60","velocity":0.5196850393700787,"duration":"0.28"},{"name":"C3","midi":48,"time":"195.60","velocity":0.6771653543307087,"duration":"0.58"},{"name":"A4","midi":69,"time":"195.61","velocity":0.6771653543307087,"duration":"0.58"},{"name":"F3","midi":53,"time":"195.61","velocity":0.6771653543307087,"duration":"0.27"},{"name":"A3","midi":57,"time":"195.61","velocity":0.6771653543307087,"duration":"0.27"},{"name":"F4","midi":65,"time":"195.62","velocity":0.6771653543307087,"duration":"0.58"},{"name":"F3","midi":53,"time":"195.90","velocity":0.5196850393700787,"duration":"0.28"},{"name":"A3","midi":57,"time":"195.90","velocity":0.5196850393700787,"duration":"0.28"},{"name":"C3","midi":48,"time":"196.19","velocity":0.5984251968503937,"duration":"0.58"},{"name":"A4","midi":69,"time":"196.20","velocity":0.6771653543307087,"duration":"0.58"},{"name":"F2","midi":41,"time":"196.20","velocity":0.5196850393700787,"duration":"0.28"},{"name":"C4","midi":60,"time":"196.20","velocity":0.6771653543307087,"duration":"0.28"},{"name":"A3","midi":57,"time":"196.21","velocity":0.5984251968503937,"duration":"0.27"},{"name":"F3","midi":53,"time":"196.21","velocity":0.5984251968503937,"duration":"0.27"},{"name":"F4","midi":65,"time":"196.22","velocity":0.5984251968503937,"duration":"0.58"},{"name":"F3","midi":53,"time":"196.51","velocity":0.5984251968503937,"duration":"0.27"},{"name":"F4","midi":65,"time":"196.80","velocity":0.6771653543307087,"duration":"0.58"},{"name":"C4","midi":60,"time":"196.80","velocity":0.6771653543307087,"duration":"0.28"},{"name":"A3","midi":57,"time":"196.80","velocity":0.6771653543307087,"duration":"0.28"},{"name":"D3","midi":50,"time":"196.80","velocity":0.6771653543307087,"duration":"0.30"},{"name":"F2","midi":41,"time":"196.80","velocity":0.5196850393700787,"duration":"0.28"},{"name":"D4","midi":62,"time":"196.81","velocity":0.6771653543307087,"duration":"0.28"},{"name":"A4","midi":69,"time":"196.81","velocity":0.6771653543307087,"duration":"0.58"},{"name":"D3","midi":50,"time":"197.10","velocity":0.4881889763779528,"duration":"0.30"},{"name":"D4","midi":62,"time":"197.10","velocity":0.4881889763779528,"duration":"0.28"},{"name":"A3","midi":57,"time":"197.10","velocity":0.4881889763779528,"duration":"0.28"},{"name":"D4","midi":62,"time":"197.38","velocity":0.6771653543307087,"duration":"0.28"},{"name":"D3","midi":50,"time":"197.39","velocity":0.5984251968503937,"duration":"0.58"},{"name":"F2","midi":41,"time":"197.40","velocity":0.5196850393700787,"duration":"0.28"},{"name":"C4","midi":60,"time":"197.40","velocity":0.5984251968503937,"duration":"0.30"},{"name":"A3","midi":57,"time":"197.40","velocity":0.5984251968503937,"duration":"0.30"},{"name":"A4","midi":69,"time":"197.41","velocity":0.6771653543307087,"duration":"0.58"},{"name":"F4","midi":65,"time":"197.41","velocity":0.5984251968503937,"duration":"0.58"},{"name":"A3","midi":57,"time":"197.70","velocity":0.4409448818897638,"duration":"0.30"},{"name":"D4","midi":62,"time":"197.70","velocity":0.4409448818897638,"duration":"0.30"},{"name":"D4","midi":62,"time":"197.98","velocity":0.6771653543307087,"duration":"0.28"},{"name":"F2","midi":41,"time":"198.00","velocity":0.5196850393700787,"duration":"0.28"},{"name":"D3","midi":50,"time":"198.00","velocity":0.6771653543307087,"duration":"0.58"},{"name":"A3","midi":57,"time":"198.01","velocity":0.6771653543307087,"duration":"0.27"},{"name":"C4","midi":60,"time":"198.01","velocity":0.6771653543307087,"duration":"0.27"},{"name":"A4","midi":69,"time":"198.01","velocity":0.6771653543307087,"duration":"0.58"},{"name":"F4","midi":65,"time":"198.02","velocity":0.6771653543307087,"duration":"0.58"},{"name":"A3","midi":57,"time":"198.30","velocity":0.3937007874015748,"duration":"0.28"},{"name":"D4","midi":62,"time":"198.30","velocity":0.3937007874015748,"duration":"0.28"},{"name":"D3","midi":50,"time":"198.59","velocity":0.5984251968503937,"duration":"0.58"},{"name":"D4","midi":62,"time":"198.59","velocity":0.6771653543307087,"duration":"0.28"},{"name":"F2","midi":41,"time":"198.60","velocity":0.5196850393700787,"duration":"0.28"},{"name":"A4","midi":69,"time":"198.60","velocity":0.6771653543307087,"duration":"0.58"},{"name":"C4","midi":60,"time":"198.61","velocity":0.5984251968503937,"duration":"0.27"},{"name":"A3","midi":57,"time":"198.61","velocity":0.5984251968503937,"duration":"0.27"},{"name":"F4","midi":65,"time":"198.62","velocity":0.5984251968503937,"duration":"0.58"},{"name":"A3","midi":57,"time":"198.91","velocity":0.5984251968503937,"duration":"0.27"},{"name":"F4","midi":65,"time":"199.20","velocity":0.6771653543307087,"duration":"0.58"},{"name":"F3","midi":53,"time":"199.20","velocity":0.6771653543307087,"duration":"0.30"},{"name":"A#2","midi":46,"time":"199.20","velocity":0.5196850393700787,"duration":"0.28"},{"name":"D4","midi":62,"time":"199.20","velocity":0.6771653543307087,"duration":"0.28"},{"name":"A#3","midi":58,"time":"199.20","velocity":0.6771653543307087,"duration":"0.28"},{"name":"A#4","midi":70,"time":"199.20","velocity":0.6771653543307087,"duration":"0.58"},{"name":"F3","midi":53,"time":"199.50","velocity":0.4881889763779528,"duration":"0.30"},{"name":"A#3","midi":58,"time":"199.50","velocity":0.4881889763779528,"duration":"0.28"},{"name":"D4","midi":62,"time":"199.78","velocity":0.6771653543307087,"duration":"0.28"},{"name":"F3","midi":53,"time":"199.79","velocity":0.5984251968503937,"duration":"0.58"},{"name":"A#2","midi":46,"time":"199.80","velocity":0.5196850393700787,"duration":"0.28"},{"name":"A#4","midi":70,"time":"199.80","velocity":0.6771653543307087,"duration":"0.58"},{"name":"A#3","midi":58,"time":"199.80","velocity":0.5984251968503937,"duration":"0.30"},{"name":"F4","midi":65,"time":"199.81","velocity":0.5984251968503937,"duration":"0.58"},{"name":"A#3","midi":58,"time":"200.10","velocity":0.5984251968503937,"duration":"0.30"},{"name":"D4","midi":62,"time":"200.38","velocity":0.6771653543307087,"duration":"0.28"},{"name":"A#2","midi":46,"time":"200.40","velocity":0.5196850393700787,"duration":"0.28"},{"name":"F3","midi":53,"time":"200.40","velocity":0.6771653543307087,"duration":"0.58"},{"name":"A#4","midi":70,"time":"200.40","velocity":0.6771653543307087,"duration":"0.58"},{"name":"A#3","midi":58,"time":"200.41","velocity":0.6771653543307087,"duration":"0.27"},{"name":"F4","midi":65,"time":"200.42","velocity":0.6771653543307087,"duration":"0.58"},{"name":"A#3","midi":58,"time":"200.70","velocity":0.5196850393700787,"duration":"0.28"},{"name":"D4","midi":62,"time":"200.99","velocity":0.6771653543307087,"duration":"0.28"},{"name":"A#4","midi":70,"time":"200.99","velocity":0.6771653543307087,"duration":"0.58"},{"name":"F3","midi":53,"time":"200.99","velocity":0.5984251968503937,"duration":"0.58"},{"name":"A#2","midi":46,"time":"201.00","velocity":0.5196850393700787,"duration":"0.28"},{"name":"A#3","midi":58,"time":"201.01","velocity":0.5984251968503937,"duration":"0.27"},{"name":"F4","midi":65,"time":"201.02","velocity":0.5984251968503937,"duration":"0.58"},{"name":"C4","midi":60,"time":"201.31","velocity":0.5984251968503937,"duration":"0.28"},{"name":"F2","midi":41,"time":"201.60","velocity":0.5196850393700787,"duration":"0.28"},{"name":"C3","midi":48,"time":"201.60","velocity":0.6771653543307087,"duration":"0.30"},{"name":"F4","midi":65,"time":"201.60","velocity":0.6771653543307087,"duration":"0.58"},{"name":"A3","midi":57,"time":"201.60","velocity":0.6771653543307087,"duration":"0.28"},{"name":"F3","midi":53,"time":"201.60","velocity":0.6771653543307087,"duration":"0.28"},{"name":"A4","midi":69,"time":"201.61","velocity":0.6771653543307087,"duration":"0.58"},{"name":"C4","midi":60,"time":"201.62","velocity":0.6771653543307087,"duration":"0.28"},{"name":"C3","midi":48,"time":"201.90","velocity":0.4881889763779528,"duration":"0.30"},{"name":"F3","midi":53,"time":"201.90","velocity":0.4881889763779528,"duration":"0.28"},{"name":"A3","midi":57,"time":"201.90","velocity":0.4881889763779528,"duration":"0.28"},{"name":"C3","midi":48,"time":"202.19","velocity":0.5984251968503937,"duration":"0.58"},{"name":"C4","midi":60,"time":"202.19","velocity":0.6771653543307087,"duration":"0.28"},{"name":"F2","midi":41,"time":"202.20","velocity":0.5196850393700787,"duration":"0.28"},{"name":"A3","midi":57,"time":"202.20","velocity":0.5984251968503937,"duration":"0.30"},{"name":"F3","midi":53,"time":"202.20","velocity":0.5984251968503937,"duration":"0.30"},{"name":"A4","midi":69,"time":"202.21","velocity":0.6771653543307087,"duration":"0.58"},{"name":"F4","midi":65,"time":"202.21","velocity":0.5984251968503937,"duration":"0.58"},{"name":"F3","midi":53,"time":"202.50","velocity":0.5984251968503937,"duration":"0.30"},{"name":"A3","midi":57,"time":"202.50","velocity":0.5984251968503937,"duration":"0.30"},{"name":"C4","midi":60,"time":"202.79","velocity":0.6771653543307087,"duration":"0.28"},{"name":"F2","midi":41,"time":"202.80","velocity":0.5196850393700787,"duration":"0.28"},{"name":"C3","midi":48,"time":"202.80","velocity":0.6771653543307087,"duration":"0.58"},{"name":"A4","midi":69,"time":"202.81","velocity":0.6771653543307087,"duration":"0.58"},{"name":"F3","midi":53,"time":"202.81","velocity":0.6771653543307087,"duration":"0.27"},{"name":"A3","midi":57,"time":"202.81","velocity":0.6771653543307087,"duration":"0.27"},{"name":"F4","midi":65,"time":"202.82","velocity":0.6771653543307087,"duration":"0.58"},{"name":"F3","midi":53,"time":"203.10","velocity":0.5196850393700787,"duration":"0.28"},{"name":"A3","midi":57,"time":"203.10","velocity":0.5196850393700787,"duration":"0.28"},{"name":"C3","midi":48,"time":"203.39","velocity":0.5984251968503937,"duration":"0.58"},{"name":"A4","midi":69,"time":"203.40","velocity":0.6771653543307087,"duration":"0.58"},{"name":"F2","midi":41,"time":"203.40","velocity":0.5196850393700787,"duration":"0.28"},{"name":"C4","midi":60,"time":"203.40","velocity":0.6771653543307087,"duration":"0.28"},{"name":"A3","midi":57,"time":"203.41","velocity":0.5984251968503937,"duration":"0.27"},{"name":"F3","midi":53,"time":"203.41","velocity":0.5984251968503937,"duration":"0.27"},{"name":"F4","midi":65,"time":"203.42","velocity":0.5984251968503937,"duration":"0.58"},{"name":"F3","midi":53,"time":"203.71","velocity":0.5984251968503937,"duration":"0.27"},{"name":"F2","midi":41,"time":"204.00","velocity":0.5196850393700787,"duration":"0.28"},{"name":"C3","midi":48,"time":"204.00","velocity":0.6771653543307087,"duration":"0.30"},{"name":"F4","midi":65,"time":"204.00","velocity":0.6771653543307087,"duration":"0.58"},{"name":"A3","midi":57,"time":"204.00","velocity":0.6771653543307087,"duration":"0.28"},{"name":"F3","midi":53,"time":"204.00","velocity":0.6771653543307087,"duration":"0.28"},{"name":"A4","midi":69,"time":"204.01","velocity":0.6771653543307087,"duration":"0.58"},{"name":"C4","midi":60,"time":"204.02","velocity":0.6771653543307087,"duration":"0.28"},{"name":"C3","midi":48,"time":"204.30","velocity":0.4881889763779528,"duration":"0.30"},{"name":"F3","midi":53,"time":"204.30","velocity":0.4881889763779528,"duration":"0.28"},{"name":"A3","midi":57,"time":"204.30","velocity":0.4881889763779528,"duration":"0.28"},{"name":"C3","midi":48,"time":"204.59","velocity":0.5984251968503937,"duration":"0.58"},{"name":"C4","midi":60,"time":"204.59","velocity":0.6771653543307087,"duration":"0.28"},{"name":"F2","midi":41,"time":"204.60","velocity":0.5196850393700787,"duration":"0.28"},{"name":"A3","midi":57,"time":"204.60","velocity":0.5984251968503937,"duration":"0.30"},{"name":"F3","midi":53,"time":"204.60","velocity":0.5984251968503937,"duration":"0.30"},{"name":"A4","midi":69,"time":"204.61","velocity":0.6771653543307087,"duration":"0.58"},{"name":"F4","midi":65,"time":"204.61","velocity":0.5984251968503937,"duration":"0.58"},{"name":"F3","midi":53,"time":"204.90","velocity":0.5984251968503937,"duration":"0.30"},{"name":"A3","midi":57,"time":"204.90","velocity":0.5984251968503937,"duration":"0.30"},{"name":"C4","midi":60,"time":"205.19","velocity":0.6771653543307087,"duration":"0.28"},{"name":"F2","midi":41,"time":"205.20","velocity":0.5196850393700787,"duration":"0.28"},{"name":"C3","midi":48,"time":"205.20","velocity":0.6771653543307087,"duration":"0.58"},{"name":"A4","midi":69,"time":"205.21","velocity":0.6771653543307087,"duration":"0.58"},{"name":"F3","midi":53,"time":"205.21","velocity":0.6771653543307087,"duration":"0.27"},{"name":"A3","midi":57,"time":"205.21","velocity":0.6771653543307087,"duration":"0.27"},{"name":"F4","midi":65,"time":"205.22","velocity":0.6771653543307087,"duration":"0.58"},{"name":"F3","midi":53,"time":"205.50","velocity":0.5196850393700787,"duration":"0.28"},{"name":"A3","midi":57,"time":"205.50","velocity":0.5196850393700787,"duration":"0.28"},{"name":"C3","midi":48,"time":"205.79","velocity":0.5984251968503937,"duration":"0.58"},{"name":"A4","midi":69,"time":"205.80","velocity":0.6771653543307087,"duration":"0.58"},{"name":"F2","midi":41,"time":"205.80","velocity":0.5196850393700787,"duration":"0.28"},{"name":"C4","midi":60,"time":"205.80","velocity":0.6771653543307087,"duration":"0.28"},{"name":"A3","midi":57,"time":"205.81","velocity":0.5984251968503937,"duration":"0.27"},{"name":"F3","midi":53,"time":"205.81","velocity":0.5984251968503937,"duration":"0.27"},{"name":"F4","midi":65,"time":"205.82","velocity":0.5984251968503937,"duration":"0.58"},{"name":"F3","midi":53,"time":"206.11","velocity":0.5984251968503937,"duration":"0.27"},{"name":"F4","midi":65,"time":"206.40","velocity":0.6771653543307087,"duration":"0.58"},{"name":"C4","midi":60,"time":"206.40","velocity":0.6771653543307087,"duration":"0.28"},{"name":"A3","midi":57,"time":"206.40","velocity":0.6771653543307087,"duration":"0.28"},{"name":"D3","midi":50,"time":"206.40","velocity":0.6771653543307087,"duration":"0.30"},{"name":"F2","midi":41,"time":"206.40","velocity":0.5196850393700787,"duration":"0.28"},{"name":"D4","midi":62,"time":"206.41","velocity":0.6771653543307087,"duration":"0.28"},{"name":"A4","midi":69,"time":"206.41","velocity":0.6771653543307087,"duration":"0.58"},{"name":"D3","midi":50,"time":"206.70","velocity":0.4881889763779528,"duration":"0.30"},{"name":"D4","midi":62,"time":"206.70","velocity":0.4881889763779528,"duration":"0.28"},{"name":"A3","midi":57,"time":"206.70","velocity":0.4881889763779528,"duration":"0.28"},{"name":"D4","midi":62,"time":"206.98","velocity":0.6771653543307087,"duration":"0.28"},{"name":"D3","midi":50,"time":"206.99","velocity":0.5984251968503937,"duration":"0.58"},{"name":"F2","midi":41,"time":"207.00","velocity":0.5196850393700787,"duration":"0.28"},{"name":"C4","midi":60,"time":"207.00","velocity":0.5984251968503937,"duration":"0.30"},{"name":"A3","midi":57,"time":"207.00","velocity":0.5984251968503937,"duration":"0.30"},{"name":"A4","midi":69,"time":"207.01","velocity":0.6771653543307087,"duration":"0.58"},{"name":"F4","midi":65,"time":"207.01","velocity":0.5984251968503937,"duration":"0.58"},{"name":"A3","midi":57,"time":"207.30","velocity":0.4409448818897638,"duration":"0.30"},{"name":"D4","midi":62,"time":"207.30","velocity":0.4409448818897638,"duration":"0.30"},{"name":"D4","midi":62,"time":"207.58","velocity":0.6771653543307087,"duration":"0.28"},{"name":"F2","midi":41,"time":"207.60","velocity":0.5196850393700787,"duration":"0.28"},{"name":"D3","midi":50,"time":"207.60","velocity":0.6771653543307087,"duration":"0.58"},{"name":"A3","midi":57,"time":"207.61","velocity":0.6771653543307087,"duration":"0.27"},{"name":"C4","midi":60,"time":"207.61","velocity":0.6771653543307087,"duration":"0.27"},{"name":"A4","midi":69,"time":"207.61","velocity":0.6771653543307087,"duration":"0.58"},{"name":"F4","midi":65,"time":"207.62","velocity":0.6771653543307087,"duration":"0.58"},{"name":"A3","midi":57,"time":"207.90","velocity":0.3937007874015748,"duration":"0.28"},{"name":"D4","midi":62,"time":"207.90","velocity":0.3937007874015748,"duration":"0.28"},{"name":"D3","midi":50,"time":"208.19","velocity":0.5984251968503937,"duration":"0.58"},{"name":"D4","midi":62,"time":"208.19","velocity":0.6771653543307087,"duration":"0.28"},{"name":"F2","midi":41,"time":"208.20","velocity":0.5196850393700787,"duration":"0.28"},{"name":"A4","midi":69,"time":"208.20","velocity":0.6771653543307087,"duration":"0.58"},{"name":"C4","midi":60,"time":"208.21","velocity":0.5984251968503937,"duration":"0.27"},{"name":"A3","midi":57,"time":"208.21","velocity":0.5984251968503937,"duration":"0.27"},{"name":"F4","midi":65,"time":"208.22","velocity":0.5984251968503937,"duration":"0.58"},{"name":"A3","midi":57,"time":"208.51","velocity":0.5984251968503937,"duration":"0.27"},{"name":"F4","midi":65,"time":"208.80","velocity":0.6771653543307087,"duration":"0.58"},{"name":"F3","midi":53,"time":"208.80","velocity":0.6771653543307087,"duration":"0.30"},{"name":"A#2","midi":46,"time":"208.80","velocity":0.5196850393700787,"duration":"0.28"},{"name":"D4","midi":62,"time":"208.80","velocity":0.6771653543307087,"duration":"0.28"},{"name":"A#3","midi":58,"time":"208.80","velocity":0.6771653543307087,"duration":"0.28"},{"name":"A#4","midi":70,"time":"208.80","velocity":0.6771653543307087,"duration":"0.58"},{"name":"F3","midi":53,"time":"209.10","velocity":0.4881889763779528,"duration":"0.30"},{"name":"A#3","midi":58,"time":"209.10","velocity":0.4881889763779528,"duration":"0.28"},{"name":"D4","midi":62,"time":"209.38","velocity":0.6771653543307087,"duration":"0.28"},{"name":"F3","midi":53,"time":"209.39","velocity":0.5984251968503937,"duration":"0.58"},{"name":"A#2","midi":46,"time":"209.40","velocity":0.5196850393700787,"duration":"0.28"},{"name":"A#4","midi":70,"time":"209.40","velocity":0.6771653543307087,"duration":"0.58"},{"name":"A#3","midi":58,"time":"209.40","velocity":0.5984251968503937,"duration":"0.30"},{"name":"F4","midi":65,"time":"209.41","velocity":0.5984251968503937,"duration":"0.58"},{"name":"A#3","midi":58,"time":"209.70","velocity":0.5984251968503937,"duration":"0.30"},{"name":"D4","midi":62,"time":"209.98","velocity":0.6771653543307087,"duration":"0.28"},{"name":"A#2","midi":46,"time":"210.00","velocity":0.5196850393700787,"duration":"0.28"},{"name":"F3","midi":53,"time":"210.00","velocity":0.6771653543307087,"duration":"0.58"},{"name":"A#4","midi":70,"time":"210.00","velocity":0.6771653543307087,"duration":"0.58"},{"name":"A#3","midi":58,"time":"210.01","velocity":0.6771653543307087,"duration":"0.27"},{"name":"F4","midi":65,"time":"210.02","velocity":0.6771653543307087,"duration":"0.58"},{"name":"A#3","midi":58,"time":"210.30","velocity":0.5196850393700787,"duration":"0.28"},{"name":"D4","midi":62,"time":"210.59","velocity":0.6771653543307087,"duration":"0.28"},{"name":"A#4","midi":70,"time":"210.59","velocity":0.6771653543307087,"duration":"0.58"},{"name":"F3","midi":53,"time":"210.59","velocity":0.5984251968503937,"duration":"0.58"},{"name":"A#2","midi":46,"time":"210.60","velocity":0.5196850393700787,"duration":"0.28"},{"name":"A#3","midi":58,"time":"210.61","velocity":0.5984251968503937,"duration":"0.27"},{"name":"F4","midi":65,"time":"210.62","velocity":0.5984251968503937,"duration":"0.58"},{"name":"C4","midi":60,"time":"210.91","velocity":0.5984251968503937,"duration":"0.28"},{"name":"F2","midi":41,"time":"211.20","velocity":0.5196850393700787,"duration":"0.28"},{"name":"C3","midi":48,"time":"211.20","velocity":0.6771653543307087,"duration":"0.30"},{"name":"F4","midi":65,"time":"211.20","velocity":0.6771653543307087,"duration":"0.58"},{"name":"A3","midi":57,"time":"211.20","velocity":0.6771653543307087,"duration":"0.28"},{"name":"F3","midi":53,"time":"211.20","velocity":0.6771653543307087,"duration":"0.28"},{"name":"A4","midi":69,"time":"211.21","velocity":0.6771653543307087,"duration":"0.58"},{"name":"C4","midi":60,"time":"211.22","velocity":0.6771653543307087,"duration":"0.28"},{"name":"C3","midi":48,"time":"211.50","velocity":0.4881889763779528,"duration":"0.30"},{"name":"F3","midi":53,"time":"211.50","velocity":0.4881889763779528,"duration":"0.28"},{"name":"A3","midi":57,"time":"211.50","velocity":0.4881889763779528,"duration":"0.28"},{"name":"C3","midi":48,"time":"211.79","velocity":0.5984251968503937,"duration":"0.58"},{"name":"C4","midi":60,"time":"211.79","velocity":0.6771653543307087,"duration":"0.28"},{"name":"F2","midi":41,"time":"211.80","velocity":0.5196850393700787,"duration":"0.28"},{"name":"A3","midi":57,"time":"211.80","velocity":0.5984251968503937,"duration":"0.30"},{"name":"F3","midi":53,"time":"211.80","velocity":0.5984251968503937,"duration":"0.30"},{"name":"A4","midi":69,"time":"211.81","velocity":0.6771653543307087,"duration":"0.58"},{"name":"F4","midi":65,"time":"211.81","velocity":0.5984251968503937,"duration":"0.58"},{"name":"F3","midi":53,"time":"212.10","velocity":0.5984251968503937,"duration":"0.30"},{"name":"A3","midi":57,"time":"212.10","velocity":0.5984251968503937,"duration":"0.30"},{"name":"C4","midi":60,"time":"212.39","velocity":0.6771653543307087,"duration":"0.28"},{"name":"F2","midi":41,"time":"212.40","velocity":0.5196850393700787,"duration":"0.28"},{"name":"C3","midi":48,"time":"212.40","velocity":0.6771653543307087,"duration":"0.58"},{"name":"A4","midi":69,"time":"212.41","velocity":0.6771653543307087,"duration":"0.58"},{"name":"F3","midi":53,"time":"212.41","velocity":0.6771653543307087,"duration":"0.27"},{"name":"A3","midi":57,"time":"212.41","velocity":0.6771653543307087,"duration":"0.27"},{"name":"F4","midi":65,"time":"212.42","velocity":0.6771653543307087,"duration":"0.58"},{"name":"F3","midi":53,"time":"212.70","velocity":0.5196850393700787,"duration":"0.28"},{"name":"A3","midi":57,"time":"212.70","velocity":0.5196850393700787,"duration":"0.28"},{"name":"C3","midi":48,"time":"212.99","velocity":0.5984251968503937,"duration":"0.58"},{"name":"A4","midi":69,"time":"213.00","velocity":0.6771653543307087,"duration":"0.58"},{"name":"F2","midi":41,"time":"213.00","velocity":0.5196850393700787,"duration":"0.28"},{"name":"C4","midi":60,"time":"213.00","velocity":0.6771653543307087,"duration":"0.28"},{"name":"A3","midi":57,"time":"213.01","velocity":0.5984251968503937,"duration":"0.27"},{"name":"F3","midi":53,"time":"213.01","velocity":0.5984251968503937,"duration":"0.27"},{"name":"F4","midi":65,"time":"213.02","velocity":0.5984251968503937,"duration":"0.58"},{"name":"F3","midi":53,"time":"213.31","velocity":0.5984251968503937,"duration":"0.27"},{"name":"F2","midi":41,"time":"213.60","velocity":0.5196850393700787,"duration":"0.28"},{"name":"C3","midi":48,"time":"213.60","velocity":0.6771653543307087,"duration":"0.30"},{"name":"F4","midi":65,"time":"213.60","velocity":0.6771653543307087,"duration":"0.58"},{"name":"A3","midi":57,"time":"213.60","velocity":0.6771653543307087,"duration":"0.28"},{"name":"F3","midi":53,"time":"213.60","velocity":0.6771653543307087,"duration":"0.28"},{"name":"A4","midi":69,"time":"213.61","velocity":0.6771653543307087,"duration":"0.58"},{"name":"C4","midi":60,"time":"213.62","velocity":0.6771653543307087,"duration":"0.28"},{"name":"C3","midi":48,"time":"213.90","velocity":0.4881889763779528,"duration":"0.30"},{"name":"F3","midi":53,"time":"213.90","velocity":0.4881889763779528,"duration":"0.28"},{"name":"A3","midi":57,"time":"213.90","velocity":0.4881889763779528,"duration":"0.28"},{"name":"C3","midi":48,"time":"214.19","velocity":0.5984251968503937,"duration":"0.58"},{"name":"C4","midi":60,"time":"214.19","velocity":0.6771653543307087,"duration":"0.28"},{"name":"F2","midi":41,"time":"214.20","velocity":0.5196850393700787,"duration":"0.28"},{"name":"A3","midi":57,"time":"214.20","velocity":0.5984251968503937,"duration":"0.30"},{"name":"F3","midi":53,"time":"214.20","velocity":0.5984251968503937,"duration":"0.30"},{"name":"A4","midi":69,"time":"214.21","velocity":0.6771653543307087,"duration":"0.58"},{"name":"F4","midi":65,"time":"214.21","velocity":0.5984251968503937,"duration":"0.58"},{"name":"F3","midi":53,"time":"214.50","velocity":0.5984251968503937,"duration":"0.30"},{"name":"A3","midi":57,"time":"214.50","velocity":0.5984251968503937,"duration":"0.30"},{"name":"C4","midi":60,"time":"214.79","velocity":0.6771653543307087,"duration":"0.28"},{"name":"F2","midi":41,"time":"214.80","velocity":0.5196850393700787,"duration":"0.28"},{"name":"C3","midi":48,"time":"214.80","velocity":0.6771653543307087,"duration":"0.58"},{"name":"A4","midi":69,"time":"214.81","velocity":0.6771653543307087,"duration":"0.58"},{"name":"F3","midi":53,"time":"214.81","velocity":0.6771653543307087,"duration":"0.27"},{"name":"A3","midi":57,"time":"214.81","velocity":0.6771653543307087,"duration":"0.27"},{"name":"F4","midi":65,"time":"214.82","velocity":0.6771653543307087,"duration":"0.58"},{"name":"F3","midi":53,"time":"215.10","velocity":0.5196850393700787,"duration":"0.28"},{"name":"A3","midi":57,"time":"215.10","velocity":0.5196850393700787,"duration":"0.28"},{"name":"C3","midi":48,"time":"215.39","velocity":0.5984251968503937,"duration":"0.58"},{"name":"A4","midi":69,"time":"215.40","velocity":0.6771653543307087,"duration":"0.58"},{"name":"F2","midi":41,"time":"215.40","velocity":0.5196850393700787,"duration":"0.28"},{"name":"C4","midi":60,"time":"215.40","velocity":0.6771653543307087,"duration":"0.28"},{"name":"A3","midi":57,"time":"215.41","velocity":0.5984251968503937,"duration":"0.27"},{"name":"F3","midi":53,"time":"215.41","velocity":0.5984251968503937,"duration":"0.27"},{"name":"F4","midi":65,"time":"215.42","velocity":0.5984251968503937,"duration":"0.58"},{"name":"F3","midi":53,"time":"215.71","velocity":0.5984251968503937,"duration":"0.27"}]},{"instrumentFamily":"ensemble","notes":[{"name":"F4","midi":65,"time":"62.07","velocity":0.36220472440944884,"duration":"5.01"},{"name":"A#4","midi":70,"time":"62.07","velocity":0.36220472440944884,"duration":"5.02"},{"name":"D4","midi":62,"time":"62.08","velocity":0.36220472440944884,"duration":"5.00"},{"name":"C4","midi":60,"time":"67.17","velocity":0.36220472440944884,"duration":"4.79"},{"name":"A4","midi":69,"time":"67.17","velocity":0.36220472440944884,"duration":"4.78"},{"name":"F4","midi":65,"time":"67.18","velocity":0.36220472440944884,"duration":"4.77"},{"name":"F4","midi":65,"time":"72.00","velocity":0.36220472440944884,"duration":"4.77"},{"name":"D4","midi":62,"time":"72.01","velocity":0.36220472440944884,"duration":"4.78"},{"name":"A#4","midi":70,"time":"72.01","velocity":0.36220472440944884,"duration":"4.76"},{"name":"C4","midi":60,"time":"76.79","velocity":0.36220472440944884,"duration":"2.38"},{"name":"A4","midi":69,"time":"76.80","velocity":0.36220472440944884,"duration":"2.37"},{"name":"F4","midi":65,"time":"76.81","velocity":0.49606299212598426,"duration":"2.36"},{"name":"G4","midi":67,"time":"79.19","velocity":0.36220472440944884,"duration":"1.20"},{"name":"C4","midi":60,"time":"79.19","velocity":0.36220472440944884,"duration":"1.20"},{"name":"E4","midi":64,"time":"79.19","velocity":0.36220472440944884,"duration":"1.20"},{"name":"A3","midi":57,"time":"80.38","velocity":0.36220472440944884,"duration":"1.20"},{"name":"D4","midi":62,"time":"80.38","velocity":0.36220472440944884,"duration":"1.20"},{"name":"F4","midi":65,"time":"80.38","velocity":0.36220472440944884,"duration":"1.20"},{"name":"G4","midi":67,"time":"81.58","velocity":0.36220472440944884,"duration":"4.65"},{"name":"G3","midi":55,"time":"81.60","velocity":0.36220472440944884,"duration":"4.65"},{"name":"E4","midi":64,"time":"81.60","velocity":0.36220472440944884,"duration":"4.65"},{"name":"C4","midi":60,"time":"81.61","velocity":0.36220472440944884,"duration":"4.65"},{"name":"F4","midi":65,"time":"86.38","velocity":0.36220472440944884,"duration":"2.38"},{"name":"A3","midi":57,"time":"86.38","velocity":0.36220472440944884,"duration":"2.38"},{"name":"C4","midi":60,"time":"86.38","velocity":0.36220472440944884,"duration":"2.38"},{"name":"F4","midi":65,"time":"88.77","velocity":0.36220472440944884,"duration":"2.38"},{"name":"A#3","midi":58,"time":"88.78","velocity":0.36220472440944884,"duration":"2.38"},{"name":"D4","midi":62,"time":"88.78","velocity":0.36220472440944884,"duration":"2.38"},{"name":"F4","midi":65,"time":"91.17","velocity":0.36220472440944884,"duration":"4.78"},{"name":"C4","midi":60,"time":"91.19","velocity":0.36220472440944884,"duration":"4.78"},{"name":"A3","midi":57,"time":"91.20","velocity":0.36220472440944884,"duration":"4.78"},{"name":"D4","midi":62,"time":"95.99","velocity":0.4094488188976378,"duration":"2.31"},{"name":"F4","midi":65,"time":"96.00","velocity":0.4094488188976378,"duration":"2.31"},{"name":"A3","midi":57,"time":"96.00","velocity":0.4094488188976378,"duration":"2.31"},{"name":"A#3","midi":58,"time":"98.37","velocity":0.4094488188976378,"duration":"2.31"},{"name":"D4","midi":62,"time":"98.37","velocity":0.4094488188976378,"duration":"2.31"},{"name":"F4","midi":65,"time":"98.38","velocity":0.4094488188976378,"duration":"2.31"},{"name":"C4","midi":60,"time":"100.76","velocity":0.4094488188976378,"duration":"4.75"},{"name":"F4","midi":65,"time":"100.77","velocity":0.4094488188976378,"duration":"4.75"},{"name":"C4","midi":60,"time":"105.56","velocity":0.3779527559055118,"duration":"2.31"},{"name":"F4","midi":65,"time":"105.57","velocity":0.3779527559055118,"duration":"2.31"},{"name":"A3","midi":57,"time":"105.59","velocity":0.3779527559055118,"duration":"2.31"},{"name":"A#3","midi":58,"time":"107.98","velocity":0.3700787401574803,"duration":"2.31"},{"name":"F4","midi":65,"time":"107.98","velocity":0.3700787401574803,"duration":"2.31"},{"name":"D4","midi":62,"time":"107.99","velocity":0.3700787401574803,"duration":"2.31"},{"name":"A3","midi":57,"time":"110.36","velocity":0.4330708661417323,"duration":"4.77"},{"name":"C4","midi":60,"time":"110.41","velocity":0.4330708661417323,"duration":"4.77"},{"name":"F4","midi":65,"time":"110.42","velocity":0.4330708661417323,"duration":"4.77"},{"name":"C4","midi":60,"time":"115.19","velocity":0.3779527559055118,"duration":"2.31"},{"name":"F4","midi":65,"time":"115.20","velocity":0.3779527559055118,"duration":"2.31"},{"name":"A3","midi":57,"time":"115.22","velocity":0.3779527559055118,"duration":"2.31"},{"name":"A#3","midi":58,"time":"117.58","velocity":0.3700787401574803,"duration":"2.31"},{"name":"F4","midi":65,"time":"117.58","velocity":0.3700787401574803,"duration":"2.31"},{"name":"D4","midi":62,"time":"117.59","velocity":0.3700787401574803,"duration":"2.31"},{"name":"A3","midi":57,"time":"119.96","velocity":0.4330708661417323,"duration":"4.77"},{"name":"C4","midi":60,"time":"120.01","velocity":0.4330708661417323,"duration":"4.77"},{"name":"F4","midi":65,"time":"120.02","velocity":0.4330708661417323,"duration":"4.77"},{"name":"A4","midi":69,"time":"124.80","velocity":0.3779527559055118,"duration":"2.38"},{"name":"C4","midi":60,"time":"124.80","velocity":0.3779527559055118,"duration":"2.31"},{"name":"F4","midi":65,"time":"124.80","velocity":0.3779527559055118,"duration":"2.31"},{"name":"A3","midi":57,"time":"124.82","velocity":0.3779527559055118,"duration":"2.31"},{"name":"A#3","midi":58,"time":"127.18","velocity":0.3700787401574803,"duration":"2.31"},{"name":"F4","midi":65,"time":"127.19","velocity":0.3700787401574803,"duration":"2.31"},{"name":"C5","midi":72,"time":"127.20","velocity":0.3779527559055118,"duration":"2.31"},{"name":"D4","midi":62,"time":"127.20","velocity":0.3700787401574803,"duration":"2.31"},{"name":"A4","midi":69,"time":"127.21","velocity":0.3779527559055118,"duration":"2.31"},{"name":"A3","midi":57,"time":"129.56","velocity":0.4330708661417323,"duration":"4.76"},{"name":"A4","midi":69,"time":"129.59","velocity":0.4330708661417323,"duration":"4.76"},{"name":"C4","midi":60,"time":"129.61","velocity":0.4330708661417323,"duration":"4.76"},{"name":"F4","midi":65,"time":"129.62","velocity":0.4330708661417323,"duration":"4.76"},{"name":"C4","midi":60,"time":"134.40","velocity":0.3779527559055118,"duration":"2.31"},{"name":"F4","midi":65,"time":"134.40","velocity":0.3779527559055118,"duration":"2.31"},{"name":"A3","midi":57,"time":"134.42","velocity":0.3779527559055118,"duration":"2.31"},{"name":"A#3","midi":58,"time":"136.78","velocity":0.3700787401574803,"duration":"2.31"},{"name":"F4","midi":65,"time":"136.78","velocity":0.3700787401574803,"duration":"2.31"},{"name":"C5","midi":72,"time":"136.79","velocity":0.3779527559055118,"duration":"2.31"},{"name":"D4","midi":62,"time":"136.79","velocity":0.3700787401574803,"duration":"2.31"},{"name":"A4","midi":69,"time":"136.80","velocity":0.3779527559055118,"duration":"2.31"},{"name":"A3","midi":57,"time":"139.16","velocity":0.4330708661417323,"duration":"4.76"},{"name":"A4","midi":69,"time":"139.19","velocity":0.4330708661417323,"duration":"4.76"},{"name":"C4","midi":60,"time":"139.21","velocity":0.4330708661417323,"duration":"4.76"},{"name":"F4","midi":65,"time":"139.22","velocity":0.4330708661417323,"duration":"4.76"},{"name":"D4","midi":62,"time":"143.97","velocity":0.4330708661417323,"duration":"4.76"},{"name":"A#4","midi":70,"time":"143.97","velocity":0.4330708661417323,"duration":"4.76"},{"name":"A#3","midi":58,"time":"144.00","velocity":0.4330708661417323,"duration":"4.76"},{"name":"F4","midi":65,"time":"144.01","velocity":0.4330708661417323,"duration":"4.76"},{"name":"C4","midi":60,"time":"148.80","velocity":0.4330708661417323,"duration":"4.76"},{"name":"F4","midi":65,"time":"148.80","velocity":0.4330708661417323,"duration":"4.76"},{"name":"A4","midi":69,"time":"148.80","velocity":0.4330708661417323,"duration":"4.76"},{"name":"A#3","midi":58,"time":"153.55","velocity":0.4330708661417323,"duration":"4.76"},{"name":"D4","midi":62,"time":"153.57","velocity":0.4330708661417323,"duration":"4.76"},{"name":"F4","midi":65,"time":"153.62","velocity":0.4330708661417323,"duration":"4.76"},{"name":"C4","midi":60,"time":"158.40","velocity":0.4330708661417323,"duration":"4.76"},{"name":"A4","midi":69,"time":"158.40","velocity":0.4330708661417323,"duration":"4.76"},{"name":"F4","midi":65,"time":"158.40","velocity":0.4330708661417323,"duration":"4.76"},{"name":"C4","midi":60,"time":"163.17","velocity":0.4330708661417323,"duration":"2.38"},{"name":"E4","midi":64,"time":"163.17","velocity":0.4330708661417323,"duration":"2.40"},{"name":"C5","midi":72,"time":"163.18","velocity":0.4330708661417323,"duration":"2.43"},{"name":"G3","midi":55,"time":"163.18","velocity":0.4330708661417323,"duration":"2.38"},{"name":"C4","midi":60,"time":"165.58","velocity":0.30708661417322836,"duration":"2.38"},{"name":"G4","midi":67,"time":"165.58","velocity":0.30708661417322836,"duration":"2.38"},{"name":"G3","midi":55,"time":"165.60","velocity":0.30708661417322836,"duration":"2.38"},{"name":"E4","midi":64,"time":"165.62","velocity":0.30708661417322836,"duration":"2.31"},{"name":"F4","midi":65,"time":"167.98","velocity":0.36220472440944884,"duration":"2.38"},{"name":"A3","midi":57,"time":"167.98","velocity":0.36220472440944884,"duration":"2.38"},{"name":"C4","midi":60,"time":"167.98","velocity":0.36220472440944884,"duration":"2.38"},{"name":"F4","midi":65,"time":"170.37","velocity":0.36220472440944884,"duration":"2.38"},{"name":"A#3","midi":58,"time":"170.38","velocity":0.36220472440944884,"duration":"2.38"},{"name":"D4","midi":62,"time":"170.38","velocity":0.36220472440944884,"duration":"2.38"},{"name":"F4","midi":65,"time":"172.77","velocity":0.36220472440944884,"duration":"4.78"},{"name":"C4","midi":60,"time":"172.79","velocity":0.36220472440944884,"duration":"4.78"},{"name":"A3","midi":57,"time":"172.80","velocity":0.36220472440944884,"duration":"4.78"},{"name":"F4","midi":65,"time":"177.58","velocity":0.4094488188976378,"duration":"2.31"},{"name":"A3","midi":57,"time":"177.60","velocity":0.4094488188976378,"duration":"2.31"},{"name":"D4","midi":62,"time":"177.63","velocity":0.4094488188976378,"duration":"2.31"},{"name":"A#3","midi":58,"time":"179.97","velocity":0.4094488188976378,"duration":"2.31"},{"name":"D4","midi":62,"time":"179.97","velocity":0.4094488188976378,"duration":"2.31"},{"name":"F4","midi":65,"time":"179.98","velocity":0.4094488188976378,"duration":"2.31"},{"name":"F4","midi":65,"time":"182.38","velocity":0.36220472440944884,"duration":"4.78"},{"name":"A3","midi":57,"time":"182.38","velocity":0.36220472440944884,"duration":"4.78"},{"name":"C4","midi":60,"time":"182.39","velocity":0.36220472440944884,"duration":"4.78"},{"name":"F4","midi":65,"time":"187.20","velocity":0.4094488188976378,"duration":"2.31"},{"name":"A3","midi":57,"time":"187.20","velocity":0.4094488188976378,"duration":"2.31"},{"name":"D4","midi":62,"time":"187.23","velocity":0.4094488188976378,"duration":"2.31"},{"name":"A#3","midi":58,"time":"189.57","velocity":0.4094488188976378,"duration":"2.31"},{"name":"D4","midi":62,"time":"189.57","velocity":0.4094488188976378,"duration":"2.31"},{"name":"F4","midi":65,"time":"189.58","velocity":0.4094488188976378,"duration":"2.31"},{"name":"F5","midi":77,"time":"191.90","velocity":0.44881889763779526,"duration":"1.78"},{"name":"F4","midi":65,"time":"191.98","velocity":0.36220472440944884,"duration":"4.78"},{"name":"A3","midi":57,"time":"191.98","velocity":0.36220472440944884,"duration":"4.78"},{"name":"C4","midi":60,"time":"191.99","velocity":0.36220472440944884,"duration":"4.78"},{"name":"A5","midi":81,"time":"196.80","velocity":0.48031496062992124,"duration":"4.46"},{"name":"F4","midi":65,"time":"196.80","velocity":0.4094488188976378,"duration":"2.31"},{"name":"A3","midi":57,"time":"196.80","velocity":0.4094488188976378,"duration":"2.31"},{"name":"D4","midi":62,"time":"196.83","velocity":0.4094488188976378,"duration":"2.31"},{"name":"A#3","midi":58,"time":"199.17","velocity":0.4094488188976378,"duration":"2.31"},{"name":"D4","midi":62,"time":"199.17","velocity":0.4094488188976378,"duration":"2.31"},{"name":"F4","midi":65,"time":"199.18","velocity":0.4094488188976378,"duration":"2.31"},{"name":"F5","midi":77,"time":"201.50","velocity":0.44881889763779526,"duration":"1.78"},{"name":"F4","midi":65,"time":"201.58","velocity":0.36220472440944884,"duration":"4.78"},{"name":"A3","midi":57,"time":"201.58","velocity":0.36220472440944884,"duration":"4.78"},{"name":"C4","midi":60,"time":"201.59","velocity":0.36220472440944884,"duration":"4.78"},{"name":"A5","midi":81,"time":"203.99","velocity":0.44881889763779526,"duration":"2.23"},{"name":"A#5","midi":82,"time":"206.21","velocity":0.44881889763779526,"duration":"0.19"},{"name":"C6","midi":84,"time":"206.40","velocity":0.48031496062992124,"duration":"4.46"},{"name":"F4","midi":65,"time":"206.40","velocity":0.4094488188976378,"duration":"2.31"},{"name":"A3","midi":57,"time":"206.40","velocity":0.4094488188976378,"duration":"2.31"},{"name":"D4","midi":62,"time":"206.43","velocity":0.4094488188976378,"duration":"2.31"},{"name":"A#3","midi":58,"time":"208.77","velocity":0.4094488188976378,"duration":"2.31"},{"name":"D4","midi":62,"time":"208.77","velocity":0.4094488188976378,"duration":"2.31"},{"name":"F4","midi":65,"time":"208.78","velocity":0.4094488188976378,"duration":"2.31"},{"name":"F5","midi":77,"time":"211.10","velocity":0.44881889763779526,"duration":"1.78"},{"name":"F4","midi":65,"time":"211.18","velocity":0.36220472440944884,"duration":"4.78"},{"name":"A3","midi":57,"time":"211.18","velocity":0.36220472440944884,"duration":"4.78"},{"name":"C4","midi":60,"time":"211.19","velocity":0.36220472440944884,"duration":"4.78"},{"name":"C5","midi":72,"time":"216.00","velocity":0.48031496062992124,"duration":"2.32"},{"name":"F4","midi":65,"time":"216.00","velocity":0.4094488188976378,"duration":"2.31"},{"name":"A3","midi":57,"time":"216.00","velocity":0.4094488188976378,"duration":"2.31"},{"name":"D4","midi":62,"time":"216.03","velocity":0.4094488188976378,"duration":"2.31"},{"name":"A#3","midi":58,"time":"218.37","velocity":0.4094488188976378,"duration":"2.31"},{"name":"D4","midi":62,"time":"218.37","velocity":0.4094488188976378,"duration":"2.31"},{"name":"A#4","midi":70,"time":"218.38","velocity":0.4094488188976378,"duration":"2.31"},{"name":"F4","midi":65,"time":"218.38","velocity":0.4094488188976378,"duration":"2.31"},{"name":"F4","midi":65,"time":"220.78","velocity":0.4251968503937008,"duration":"4.79"},{"name":"A3","midi":57,"time":"220.78","velocity":0.36220472440944884,"duration":"4.79"},{"name":"C4","midi":60,"time":"220.79","velocity":0.36220472440944884,"duration":"4.79"},{"name":"A4","midi":69,"time":"220.80","velocity":0.4251968503937008,"duration":"4.79"}]},{"instrumentFamily":"guitar","notes":[{"name":"C3","midi":48,"time":"83.86","velocity":0.5590551181102362,"duration":"0.60"},{"name":"E3","midi":52,"time":"83.92","velocity":0.5826771653543307,"duration":"0.60"},{"name":"G3","midi":55,"time":"83.95","velocity":0.5984251968503937,"duration":"0.60"},{"name":"C4","midi":60,"time":"84.00","velocity":0.6220472440944882,"duration":"0.60"},{"name":"E4","midi":64,"time":"84.05","velocity":0.6456692913385826,"duration":"0.60"},{"name":"F3","midi":53,"time":"86.38","velocity":0.48031496062992124,"duration":"0.09"},{"name":"A3","midi":57,"time":"86.40","velocity":0.48031496062992124,"duration":"0.09"},{"name":"C4","midi":60,"time":"86.41","velocity":0.48031496062992124,"duration":"0.09"},{"name":"F4","midi":65,"time":"86.43","velocity":0.48031496062992124,"duration":"0.09"},{"name":"F3","midi":53,"time":"86.69","velocity":0.3543307086614173,"duration":"0.09"},{"name":"A3","midi":57,"time":"86.70","velocity":0.3543307086614173,"duration":"0.09"},{"name":"C4","midi":60,"time":"86.72","velocity":0.3543307086614173,"duration":"0.09"},{"name":"F3","midi":53,"time":"86.97","velocity":0.48031496062992124,"duration":"0.09"},{"name":"A3","midi":57,"time":"86.98","velocity":0.48031496062992124,"duration":"0.09"},{"name":"C4","midi":60,"time":"87.00","velocity":0.48031496062992124,"duration":"0.09"},{"name":"F4","midi":65,"time":"87.02","velocity":0.48031496062992124,"duration":"0.09"},{"name":"F3","midi":53,"time":"87.27","velocity":0.36220472440944884,"duration":"0.09"},{"name":"A3","midi":57,"time":"87.29","velocity":0.36220472440944884,"duration":"0.09"},{"name":"C4","midi":60,"time":"87.30","velocity":0.36220472440944884,"duration":"0.09"},{"name":"F3","midi":53,"time":"87.59","velocity":0.48031496062992124,"duration":"0.09"},{"name":"A3","midi":57,"time":"87.61","velocity":0.48031496062992124,"duration":"0.09"},{"name":"C4","midi":60,"time":"87.62","velocity":0.48031496062992124,"duration":"0.09"},{"name":"F4","midi":65,"time":"87.64","velocity":0.48031496062992124,"duration":"0.09"},{"name":"F3","midi":53,"time":"87.90","velocity":0.36220472440944884,"duration":"0.09"},{"name":"A3","midi":57,"time":"87.91","velocity":0.36220472440944884,"duration":"0.09"},{"name":"C4","midi":60,"time":"87.93","velocity":0.3700787401574803,"duration":"0.09"},{"name":"F3","midi":53,"time":"88.18","velocity":0.48031496062992124,"duration":"0.09"},{"name":"A3","midi":57,"time":"88.19","velocity":0.48031496062992124,"duration":"0.09"},{"name":"C4","midi":60,"time":"88.21","velocity":0.48031496062992124,"duration":"0.09"},{"name":"F4","midi":65,"time":"88.23","velocity":0.48031496062992124,"duration":"0.09"},{"name":"F3","midi":53,"time":"88.48","velocity":0.3464566929133858,"duration":"0.09"},{"name":"A3","midi":57,"time":"88.50","velocity":0.3464566929133858,"duration":"0.09"},{"name":"C4","midi":60,"time":"88.51","velocity":0.3464566929133858,"duration":"0.09"},{"name":"F3","midi":53,"time":"88.64","velocity":0.3464566929133858,"duration":"0.09"},{"name":"A3","midi":57,"time":"88.66","velocity":0.3464566929133858,"duration":"0.09"},{"name":"C4","midi":60,"time":"88.67","velocity":0.3464566929133858,"duration":"0.09"},{"name":"F3","midi":53,"time":"88.78","velocity":0.48031496062992124,"duration":"0.09"},{"name":"A#3","midi":58,"time":"88.79","velocity":0.48031496062992124,"duration":"0.09"},{"name":"D4","midi":62,"time":"88.82","velocity":0.48031496062992124,"duration":"0.09"},{"name":"F4","midi":65,"time":"88.83","velocity":0.48031496062992124,"duration":"0.09"},{"name":"F3","midi":53,"time":"89.08","velocity":0.3543307086614173,"duration":"0.09"},{"name":"A#3","midi":58,"time":"89.10","velocity":0.3543307086614173,"duration":"0.09"},{"name":"D4","midi":62,"time":"89.13","velocity":0.3543307086614173,"duration":"0.09"},{"name":"F3","midi":53,"time":"89.36","velocity":0.48031496062992124,"duration":"0.09"},{"name":"A#3","midi":58,"time":"89.38","velocity":0.48031496062992124,"duration":"0.09"},{"name":"D4","midi":62,"time":"89.41","velocity":0.48031496062992124,"duration":"0.09"},{"name":"F4","midi":65,"time":"89.41","velocity":0.48031496062992124,"duration":"0.09"},{"name":"F3","midi":53,"time":"89.67","velocity":0.36220472440944884,"duration":"0.09"},{"name":"A#3","midi":58,"time":"89.68","velocity":0.36220472440944884,"duration":"0.09"},{"name":"D4","midi":62,"time":"89.71","velocity":0.36220472440944884,"duration":"0.09"},{"name":"F3","midi":53,"time":"89.99","velocity":0.48031496062992124,"duration":"0.09"},{"name":"A#3","midi":58,"time":"90.00","velocity":0.48031496062992124,"duration":"0.09"},{"name":"D4","midi":62,"time":"90.03","velocity":0.48031496062992124,"duration":"0.09"},{"name":"F4","midi":65,"time":"90.04","velocity":0.48031496062992124,"duration":"0.09"},{"name":"F3","midi":53,"time":"90.29","velocity":0.36220472440944884,"duration":"0.09"},{"name":"A#3","midi":58,"time":"90.31","velocity":0.36220472440944884,"duration":"0.09"},{"name":"D4","midi":62,"time":"90.34","velocity":0.3700787401574803,"duration":"0.09"},{"name":"F3","midi":53,"time":"90.57","velocity":0.48031496062992124,"duration":"0.09"},{"name":"A#3","midi":58,"time":"90.59","velocity":0.48031496062992124,"duration":"0.09"},{"name":"D4","midi":62,"time":"90.62","velocity":0.48031496062992124,"duration":"0.09"},{"name":"F4","midi":65,"time":"90.62","velocity":0.48031496062992124,"duration":"0.09"},{"name":"F3","midi":53,"time":"90.88","velocity":0.3464566929133858,"duration":"0.09"},{"name":"A#3","midi":58,"time":"90.89","velocity":0.3464566929133858,"duration":"0.09"},{"name":"D4","midi":62,"time":"90.92","velocity":0.3464566929133858,"duration":"0.09"},{"name":"F3","midi":53,"time":"91.03","velocity":0.3464566929133858,"duration":"0.09"},{"name":"A#3","midi":58,"time":"91.04","velocity":0.3464566929133858,"duration":"0.09"},{"name":"D4","midi":62,"time":"91.07","velocity":0.3464566929133858,"duration":"0.09"},{"name":"F3","midi":53,"time":"91.19","velocity":0.48031496062992124,"duration":"0.09"},{"name":"A3","midi":57,"time":"91.21","velocity":0.48031496062992124,"duration":"0.09"},{"name":"C4","midi":60,"time":"91.22","velocity":0.48031496062992124,"duration":"0.09"},{"name":"F4","midi":65,"time":"91.24","velocity":0.48031496062992124,"duration":"0.09"},{"name":"F3","midi":53,"time":"91.50","velocity":0.3543307086614173,"duration":"0.09"},{"name":"A3","midi":57,"time":"91.51","velocity":0.3543307086614173,"duration":"0.09"},{"name":"C4","midi":60,"time":"91.53","velocity":0.3543307086614173,"duration":"0.09"},{"name":"F3","midi":53,"time":"91.78","velocity":0.48031496062992124,"duration":"0.09"},{"name":"A3","midi":57,"time":"91.79","velocity":0.48031496062992124,"duration":"0.09"},{"name":"C4","midi":60,"time":"91.81","velocity":0.48031496062992124,"duration":"0.09"},{"name":"F4","midi":65,"time":"91.83","velocity":0.48031496062992124,"duration":"0.09"},{"name":"F3","midi":53,"time":"92.08","velocity":0.36220472440944884,"duration":"0.09"},{"name":"A3","midi":57,"time":"92.10","velocity":0.36220472440944884,"duration":"0.09"},{"name":"C4","midi":60,"time":"92.11","velocity":0.36220472440944884,"duration":"0.09"},{"name":"F3","midi":53,"time":"92.40","velocity":0.48031496062992124,"duration":"0.09"},{"name":"A3","midi":57,"time":"92.42","velocity":0.48031496062992124,"duration":"0.09"},{"name":"C4","midi":60,"time":"92.43","velocity":0.48031496062992124,"duration":"0.09"},{"name":"F4","midi":65,"time":"92.45","velocity":0.48031496062992124,"duration":"0.09"},{"name":"F3","midi":53,"time":"92.71","velocity":0.36220472440944884,"duration":"0.09"},{"name":"A3","midi":57,"time":"92.72","velocity":0.36220472440944884,"duration":"0.09"},{"name":"C4","midi":60,"time":"92.74","velocity":0.3700787401574803,"duration":"0.09"},{"name":"F3","midi":53,"time":"92.99","velocity":0.48031496062992124,"duration":"0.09"},{"name":"A3","midi":57,"time":"93.00","velocity":0.48031496062992124,"duration":"0.09"},{"name":"C4","midi":60,"time":"93.02","velocity":0.48031496062992124,"duration":"0.09"},{"name":"F4","midi":65,"time":"93.04","velocity":0.48031496062992124,"duration":"0.09"},{"name":"F3","midi":53,"time":"93.29","velocity":0.3464566929133858,"duration":"0.09"},{"name":"A3","midi":57,"time":"93.31","velocity":0.3464566929133858,"duration":"0.09"},{"name":"C4","midi":60,"time":"93.32","velocity":0.3464566929133858,"duration":"0.09"},{"name":"F3","midi":53,"time":"93.45","velocity":0.3464566929133858,"duration":"0.09"},{"name":"A3","midi":57,"time":"93.47","velocity":0.3464566929133858,"duration":"0.09"},{"name":"C4","midi":60,"time":"93.48","velocity":0.3464566929133858,"duration":"0.09"},{"name":"F3","midi":53,"time":"93.59","velocity":0.48031496062992124,"duration":"0.09"},{"name":"A3","midi":57,"time":"93.60","velocity":0.48031496062992124,"duration":"0.09"},{"name":"C4","midi":60,"time":"93.62","velocity":0.48031496062992124,"duration":"0.09"},{"name":"F4","midi":65,"time":"93.64","velocity":0.48031496062992124,"duration":"0.09"},{"name":"F3","midi":53,"time":"93.89","velocity":0.3543307086614173,"duration":"0.09"},{"name":"A3","midi":57,"time":"93.91","velocity":0.3543307086614173,"duration":"0.09"},{"name":"C4","midi":60,"time":"93.92","velocity":0.3543307086614173,"duration":"0.09"},{"name":"F3","midi":53,"time":"94.17","velocity":0.48031496062992124,"duration":"0.09"},{"name":"A3","midi":57,"time":"94.19","velocity":0.48031496062992124,"duration":"0.09"},{"name":"C4","midi":60,"time":"94.20","velocity":0.48031496062992124,"duration":"0.09"},{"name":"F4","midi":65,"time":"94.22","velocity":0.48031496062992124,"duration":"0.09"},{"name":"F3","midi":53,"time":"94.48","velocity":0.36220472440944884,"duration":"0.09"},{"name":"A3","midi":57,"time":"94.49","velocity":0.36220472440944884,"duration":"0.09"},{"name":"C4","midi":60,"time":"94.51","velocity":0.36220472440944884,"duration":"0.09"},{"name":"F3","midi":53,"time":"94.80","velocity":0.48031496062992124,"duration":"0.09"},{"name":"A3","midi":57,"time":"94.81","velocity":0.48031496062992124,"duration":"0.09"},{"name":"C4","midi":60,"time":"94.83","velocity":0.48031496062992124,"duration":"0.09"},{"name":"E4","midi":64,"time":"94.85","velocity":0.48031496062992124,"duration":"0.09"},{"name":"F3","midi":53,"time":"95.10","velocity":0.36220472440944884,"duration":"0.09"},{"name":"A3","midi":57,"time":"95.12","velocity":0.36220472440944884,"duration":"0.09"},{"name":"C4","midi":60,"time":"95.13","velocity":0.3700787401574803,"duration":"0.09"},{"name":"F3","midi":53,"time":"95.38","velocity":0.48031496062992124,"duration":"0.09"},{"name":"A3","midi":57,"time":"95.40","velocity":0.48031496062992124,"duration":"0.09"},{"name":"C4","midi":60,"time":"95.41","velocity":0.48031496062992124,"duration":"0.09"},{"name":"E4","midi":64,"time":"95.43","velocity":0.48031496062992124,"duration":"0.09"},{"name":"F3","midi":53,"time":"95.69","velocity":0.3464566929133858,"duration":"0.09"},{"name":"A3","midi":57,"time":"95.70","velocity":0.3464566929133858,"duration":"0.09"},{"name":"C4","midi":60,"time":"95.72","velocity":0.3464566929133858,"duration":"0.09"},{"name":"F3","midi":53,"time":"95.85","velocity":0.3464566929133858,"duration":"0.09"},{"name":"A3","midi":57,"time":"95.86","velocity":0.3464566929133858,"duration":"0.09"},{"name":"C4","midi":60,"time":"95.88","velocity":0.3464566929133858,"duration":"0.09"},{"name":"D3","midi":50,"time":"96.00","velocity":0.48031496062992124,"duration":"0.09"},{"name":"A3","midi":57,"time":"96.00","velocity":0.48031496062992124,"duration":"0.09"},{"name":"D4","midi":62,"time":"96.02","velocity":0.48031496062992124,"duration":"0.09"},{"name":"F4","midi":65,"time":"96.03","velocity":0.48031496062992124,"duration":"0.09"},{"name":"A4","midi":69,"time":"96.04","velocity":0.48031496062992124,"duration":"0.09"},{"name":"D3","midi":50,"time":"96.30","velocity":0.3543307086614173,"duration":"0.09"},{"name":"A3","midi":57,"time":"96.31","velocity":0.3543307086614173,"duration":"0.09"},{"name":"D4","midi":62,"time":"96.33","velocity":0.3543307086614173,"duration":"0.09"},{"name":"D3","midi":50,"time":"96.58","velocity":0.48031496062992124,"duration":"0.09"},{"name":"A3","midi":57,"time":"96.59","velocity":0.48031496062992124,"duration":"0.09"},{"name":"F4","midi":65,"time":"96.60","velocity":0.48031496062992124,"duration":"0.09"},{"name":"D4","midi":62,"time":"96.61","velocity":0.48031496062992124,"duration":"0.09"},{"name":"A4","midi":69,"time":"96.62","velocity":0.48031496062992124,"duration":"0.09"},{"name":"D3","midi":50,"time":"96.89","velocity":0.36220472440944884,"duration":"0.09"},{"name":"A3","midi":57,"time":"96.89","velocity":0.36220472440944884,"duration":"0.09"},{"name":"D4","midi":62,"time":"96.91","velocity":0.36220472440944884,"duration":"0.09"},{"name":"D3","midi":50,"time":"97.21","velocity":0.48031496062992124,"duration":"0.09"},{"name":"A3","midi":57,"time":"97.21","velocity":0.48031496062992124,"duration":"0.09"},{"name":"F4","midi":65,"time":"97.23","velocity":0.48031496062992124,"duration":"0.09"},{"name":"D4","midi":62,"time":"97.23","velocity":0.48031496062992124,"duration":"0.09"},{"name":"A4","midi":69,"time":"97.25","velocity":0.48031496062992124,"duration":"0.09"},{"name":"D3","midi":50,"time":"97.51","velocity":0.36220472440944884,"duration":"0.09"},{"name":"A3","midi":57,"time":"97.52","velocity":0.36220472440944884,"duration":"0.09"},{"name":"D4","midi":62,"time":"97.54","velocity":0.3700787401574803,"duration":"0.09"},{"name":"D3","midi":50,"time":"97.79","velocity":0.48031496062992124,"duration":"0.09"},{"name":"A3","midi":57,"time":"97.80","velocity":0.48031496062992124,"duration":"0.09"},{"name":"D4","midi":62,"time":"97.82","velocity":0.48031496062992124,"duration":"0.09"},{"name":"A4","midi":69,"time":"97.83","velocity":0.48031496062992124,"duration":"0.09"},{"name":"F4","midi":65,"time":"97.84","velocity":0.48031496062992124,"duration":"0.09"},{"name":"D3","midi":50,"time":"98.10","velocity":0.3464566929133858,"duration":"0.09"},{"name":"A3","midi":57,"time":"98.10","velocity":0.3464566929133858,"duration":"0.09"},{"name":"D4","midi":62,"time":"98.12","velocity":0.3464566929133858,"duration":"0.09"},{"name":"D3","midi":50,"time":"98.26","velocity":0.3464566929133858,"duration":"0.09"},{"name":"A3","midi":57,"time":"98.26","velocity":0.3464566929133858,"duration":"0.09"},{"name":"D4","midi":62,"time":"98.28","velocity":0.3464566929133858,"duration":"0.09"},{"name":"A#3","midi":58,"time":"98.40","velocity":0.48031496062992124,"duration":"0.09"},{"name":"A#2","midi":46,"time":"98.40","velocity":0.48031496062992124,"duration":"0.09"},{"name":"D4","midi":62,"time":"98.42","velocity":0.48031496062992124,"duration":"0.09"},{"name":"F4","midi":65,"time":"98.42","velocity":0.48031496062992124,"duration":"0.09"},{"name":"A#4","midi":70,"time":"98.43","velocity":0.48031496062992124,"duration":"0.09"},{"name":"A#3","midi":58,"time":"98.70","velocity":0.3543307086614173,"duration":"0.09"},{"name":"A#2","midi":46,"time":"98.70","velocity":0.3543307086614173,"duration":"0.09"},{"name":"D4","midi":62,"time":"98.72","velocity":0.3543307086614173,"duration":"0.09"},{"name":"A#2","midi":46,"time":"98.98","velocity":0.48031496062992124,"duration":"0.09"},{"name":"A#3","midi":58,"time":"98.98","velocity":0.48031496062992124,"duration":"0.09"},{"name":"F4","midi":65,"time":"98.99","velocity":0.48031496062992124,"duration":"0.09"},{"name":"D4","midi":62,"time":"99.00","velocity":0.48031496062992124,"duration":"0.09"},{"name":"A#4","midi":70,"time":"99.02","velocity":0.48031496062992124,"duration":"0.09"},{"name":"A#3","midi":58,"time":"99.29","velocity":0.36220472440944884,"duration":"0.09"},{"name":"A#2","midi":46,"time":"99.29","velocity":0.36220472440944884,"duration":"0.09"},{"name":"D4","midi":62,"time":"99.31","velocity":0.36220472440944884,"duration":"0.09"},{"name":"A#3","midi":58,"time":"99.61","velocity":0.48031496062992124,"duration":"0.09"},{"name":"A#2","midi":46,"time":"99.61","velocity":0.48031496062992124,"duration":"0.09"},{"name":"F4","midi":65,"time":"99.62","velocity":0.48031496062992124,"duration":"0.09"},{"name":"D4","midi":62,"time":"99.63","velocity":0.48031496062992124,"duration":"0.09"},{"name":"A#4","midi":70,"time":"99.64","velocity":0.48031496062992124,"duration":"0.09"},{"name":"A#2","midi":46,"time":"99.91","velocity":0.36220472440944884,"duration":"0.09"},{"name":"A#3","midi":58,"time":"99.91","velocity":0.36220472440944884,"duration":"0.09"},{"name":"D4","midi":62,"time":"99.93","velocity":0.3700787401574803,"duration":"0.09"},{"name":"A#3","midi":58,"time":"100.19","velocity":0.48031496062992124,"duration":"0.09"},{"name":"A#2","midi":46,"time":"100.19","velocity":0.48031496062992124,"duration":"0.09"},{"name":"D4","midi":62,"time":"100.21","velocity":0.48031496062992124,"duration":"0.09"},{"name":"A#4","midi":70,"time":"100.23","velocity":0.48031496062992124,"duration":"0.09"},{"name":"F4","midi":65,"time":"100.23","velocity":0.48031496062992124,"duration":"0.09"},{"name":"A#3","midi":58,"time":"100.50","velocity":0.3464566929133858,"duration":"0.09"},{"name":"A#2","midi":46,"time":"100.50","velocity":0.3464566929133858,"duration":"0.09"},{"name":"D4","midi":62,"time":"100.52","velocity":0.3464566929133858,"duration":"0.09"},{"name":"C3","midi":48,"time":"100.66","velocity":0.3464566929133858,"duration":"0.09"},{"name":"C4","midi":60,"time":"100.66","velocity":0.3464566929133858,"duration":"0.09"},{"name":"D4","midi":62,"time":"100.68","velocity":0.3464566929133858,"duration":"0.09"},{"name":"F3","midi":53,"time":"100.78","velocity":0.48031496062992124,"duration":"0.09"},{"name":"A3","midi":57,"time":"100.81","velocity":0.48031496062992124,"duration":"0.09"},{"name":"C4","midi":60,"time":"100.82","velocity":0.48031496062992124,"duration":"0.09"},{"name":"F4","midi":65,"time":"100.84","velocity":0.48031496062992124,"duration":"0.09"},{"name":"F3","midi":53,"time":"101.10","velocity":0.3543307086614173,"duration":"0.09"},{"name":"A3","midi":57,"time":"101.11","velocity":0.3543307086614173,"duration":"0.09"},{"name":"C4","midi":60,"time":"101.13","velocity":0.3543307086614173,"duration":"0.09"},{"name":"F3","midi":53,"time":"101.38","velocity":0.48031496062992124,"duration":"0.09"},{"name":"A3","midi":57,"time":"101.39","velocity":0.48031496062992124,"duration":"0.09"},{"name":"C4","midi":60,"time":"101.41","velocity":0.48031496062992124,"duration":"0.09"},{"name":"F4","midi":65,"time":"101.43","velocity":0.48031496062992124,"duration":"0.09"},{"name":"F3","midi":53,"time":"101.68","velocity":0.36220472440944884,"duration":"0.09"},{"name":"A3","midi":57,"time":"101.70","velocity":0.36220472440944884,"duration":"0.09"},{"name":"C4","midi":60,"time":"101.71","velocity":0.36220472440944884,"duration":"0.09"},{"name":"F3","midi":53,"time":"102.00","velocity":0.48031496062992124,"duration":"0.09"},{"name":"A3","midi":57,"time":"102.02","velocity":0.48031496062992124,"duration":"0.09"},{"name":"C4","midi":60,"time":"102.03","velocity":0.48031496062992124,"duration":"0.09"},{"name":"F4","midi":65,"time":"102.05","velocity":0.48031496062992124,"duration":"0.09"},{"name":"F3","midi":53,"time":"102.31","velocity":0.36220472440944884,"duration":"0.09"},{"name":"A3","midi":57,"time":"102.32","velocity":0.36220472440944884,"duration":"0.09"},{"name":"C4","midi":60,"time":"102.34","velocity":0.3700787401574803,"duration":"0.09"},{"name":"F3","midi":53,"time":"102.59","velocity":0.48031496062992124,"duration":"0.09"},{"name":"A3","midi":57,"time":"102.60","velocity":0.48031496062992124,"duration":"0.09"},{"name":"C4","midi":60,"time":"102.62","velocity":0.48031496062992124,"duration":"0.09"},{"name":"F4","midi":65,"time":"102.64","velocity":0.48031496062992124,"duration":"0.09"},{"name":"F3","midi":53,"time":"102.89","velocity":0.3464566929133858,"duration":"0.09"},{"name":"A3","midi":57,"time":"102.91","velocity":0.3464566929133858,"duration":"0.09"},{"name":"C4","midi":60,"time":"102.92","velocity":0.3464566929133858,"duration":"0.09"},{"name":"F3","midi":53,"time":"103.05","velocity":0.4251968503937008,"duration":"0.09"},{"name":"A3","midi":57,"time":"103.07","velocity":0.4330708661417323,"duration":"0.09"},{"name":"C4","midi":60,"time":"103.08","velocity":0.4409448818897638,"duration":"0.09"},{"name":"F3","midi":53,"time":"103.19","velocity":0.48031496062992124,"duration":"0.09"},{"name":"G3","midi":55,"time":"103.22","velocity":0.48031496062992124,"duration":"0.09"},{"name":"C4","midi":60,"time":"103.24","velocity":0.48031496062992124,"duration":"0.09"},{"name":"F4","midi":65,"time":"103.26","velocity":0.48031496062992124,"duration":"0.09"},{"name":"F3","midi":53,"time":"103.51","velocity":0.3543307086614173,"duration":"0.09"},{"name":"G3","midi":55,"time":"103.53","velocity":0.3543307086614173,"duration":"0.09"},{"name":"C4","midi":60,"time":"103.54","velocity":0.3543307086614173,"duration":"0.09"},{"name":"F3","midi":53,"time":"103.79","velocity":0.48031496062992124,"duration":"0.09"},{"name":"G3","midi":55,"time":"103.81","velocity":0.48031496062992124,"duration":"0.09"},{"name":"C4","midi":60,"time":"103.82","velocity":0.48031496062992124,"duration":"0.09"},{"name":"F4","midi":65,"time":"103.84","velocity":0.48031496062992124,"duration":"0.09"},{"name":"F3","midi":53,"time":"104.10","velocity":0.36220472440944884,"duration":"0.09"},{"name":"G3","midi":55,"time":"104.11","velocity":0.36220472440944884,"duration":"0.09"},{"name":"C4","midi":60,"time":"104.13","velocity":0.36220472440944884,"duration":"0.09"},{"name":"F3","midi":53,"time":"104.42","velocity":0.48031496062992124,"duration":"0.09"},{"name":"G3","midi":55,"time":"104.43","velocity":0.48031496062992124,"duration":"0.09"},{"name":"C4","midi":60,"time":"104.45","velocity":0.48031496062992124,"duration":"0.09"},{"name":"F4","midi":65,"time":"104.47","velocity":0.48031496062992124,"duration":"0.09"},{"name":"F3","midi":53,"time":"104.72","velocity":0.36220472440944884,"duration":"0.09"},{"name":"G3","midi":55,"time":"104.74","velocity":0.36220472440944884,"duration":"0.09"},{"name":"C4","midi":60,"time":"104.75","velocity":0.3700787401574803,"duration":"0.09"},{"name":"F3","midi":53,"time":"105.00","velocity":0.48031496062992124,"duration":"0.09"},{"name":"G3","midi":55,"time":"105.02","velocity":0.48031496062992124,"duration":"0.09"},{"name":"C4","midi":60,"time":"105.03","velocity":0.48031496062992124,"duration":"0.09"},{"name":"F4","midi":65,"time":"105.05","velocity":0.48031496062992124,"duration":"0.09"},{"name":"F3","midi":53,"time":"105.31","velocity":0.3464566929133858,"duration":"0.09"},{"name":"G3","midi":55,"time":"105.32","velocity":0.3464566929133858,"duration":"0.09"},{"name":"C4","midi":60,"time":"105.34","velocity":0.3464566929133858,"duration":"0.09"},{"name":"F3","midi":53,"time":"105.47","velocity":0.3464566929133858,"duration":"0.09"},{"name":"G3","midi":55,"time":"105.48","velocity":0.3464566929133858,"duration":"0.09"},{"name":"C4","midi":60,"time":"105.50","velocity":0.3464566929133858,"duration":"0.09"},{"name":"A3","midi":57,"time":"105.62","velocity":0.48031496062992124,"duration":"0.09"},{"name":"C4","midi":60,"time":"105.63","velocity":0.48031496062992124,"duration":"0.09"},{"name":"F3","midi":53,"time":"105.88","velocity":0.48031496062992124,"duration":"0.09"},{"name":"A3","midi":57,"time":"105.91","velocity":0.48031496062992124,"duration":"0.09"},{"name":"A3","midi":57,"time":"106.21","velocity":0.48031496062992124,"duration":"0.09"},{"name":"C4","midi":60,"time":"106.23","velocity":0.48031496062992124,"duration":"0.09"},{"name":"F3","midi":53,"time":"106.48","velocity":0.48031496062992124,"duration":"0.09"},{"name":"A3","midi":57,"time":"106.50","velocity":0.48031496062992124,"duration":"0.09"},{"name":"A3","midi":57,"time":"106.80","velocity":0.48031496062992124,"duration":"0.09"},{"name":"C4","midi":60,"time":"106.81","velocity":0.48031496062992124,"duration":"0.09"},{"name":"F3","midi":53,"time":"107.10","velocity":0.48031496062992124,"duration":"0.09"},{"name":"A3","midi":57,"time":"107.12","velocity":0.48031496062992124,"duration":"0.09"},{"name":"A3","midi":57,"time":"107.39","velocity":0.48031496062992124,"duration":"0.09"},{"name":"C4","midi":60,"time":"107.41","velocity":0.48031496062992124,"duration":"0.09"},{"name":"F3","midi":53,"time":"107.68","velocity":0.48031496062992124,"duration":"0.09"},{"name":"A3","midi":57,"time":"107.71","velocity":0.48031496062992124,"duration":"0.09"},{"name":"A#3","midi":58,"time":"107.99","velocity":0.48031496062992124,"duration":"0.09"},{"name":"D4","midi":62,"time":"108.01","velocity":0.48031496062992124,"duration":"0.09"},{"name":"F3","midi":53,"time":"108.29","velocity":0.48031496062992124,"duration":"0.09"},{"name":"A#3","midi":58,"time":"108.32","velocity":0.48031496062992124,"duration":"0.09"},{"name":"A#3","midi":58,"time":"108.59","velocity":0.48031496062992124,"duration":"0.09"},{"name":"D4","midi":62,"time":"108.60","velocity":0.48031496062992124,"duration":"0.09"},{"name":"F3","midi":53,"time":"108.88","velocity":0.48031496062992124,"duration":"0.09"},{"name":"A#3","midi":58,"time":"108.91","velocity":0.48031496062992124,"duration":"0.09"},{"name":"A#3","midi":58,"time":"109.17","velocity":0.48031496062992124,"duration":"0.09"},{"name":"D4","midi":62,"time":"109.19","velocity":0.48031496062992124,"duration":"0.09"},{"name":"F3","midi":53,"time":"109.47","velocity":0.48031496062992124,"duration":"0.09"},{"name":"A#3","midi":58,"time":"109.50","velocity":0.48031496062992124,"duration":"0.09"},{"name":"A#3","midi":58,"time":"109.77","velocity":0.48031496062992124,"duration":"0.09"},{"name":"D4","midi":62,"time":"109.78","velocity":0.48031496062992124,"duration":"0.09"},{"name":"F3","midi":53,"time":"110.06","velocity":0.48031496062992124,"duration":"0.09"},{"name":"A#3","midi":58,"time":"110.08","velocity":0.48031496062992124,"duration":"0.09"},{"name":"F3","midi":53,"time":"110.38","velocity":0.48031496062992124,"duration":"0.09"},{"name":"A3","midi":57,"time":"110.40","velocity":0.48031496062992124,"duration":"0.09"},{"name":"C4","midi":60,"time":"110.41","velocity":0.48031496062992124,"duration":"0.09"},{"name":"F3","midi":53,"time":"110.67","velocity":0.48031496062992124,"duration":"0.09"},{"name":"A3","midi":57,"time":"110.69","velocity":0.48031496062992124,"duration":"0.09"},{"name":"C4","midi":60,"time":"110.71","velocity":0.48031496062992124,"duration":"0.09"},{"name":"F3","midi":53,"time":"110.98","velocity":0.48031496062992124,"duration":"0.09"},{"name":"A3","midi":57,"time":"111.00","velocity":0.48031496062992124,"duration":"0.09"},{"name":"C4","midi":60,"time":"111.02","velocity":0.48031496062992124,"duration":"0.09"},{"name":"F3","midi":53,"time":"111.30","velocity":0.48031496062992124,"duration":"0.09"},{"name":"A3","midi":57,"time":"111.32","velocity":0.48031496062992124,"duration":"0.09"},{"name":"C4","midi":60,"time":"111.33","velocity":0.48031496062992124,"duration":"0.09"},{"name":"F3","midi":53,"time":"111.59","velocity":0.48031496062992124,"duration":"0.09"},{"name":"A3","midi":57,"time":"111.61","velocity":0.48031496062992124,"duration":"0.09"},{"name":"C4","midi":60,"time":"111.63","velocity":0.48031496062992124,"duration":"0.09"},{"name":"F3","midi":53,"time":"111.90","velocity":0.48031496062992124,"duration":"0.09"},{"name":"A3","midi":57,"time":"111.92","velocity":0.48031496062992124,"duration":"0.09"},{"name":"C4","midi":60,"time":"111.94","velocity":0.48031496062992124,"duration":"0.09"},{"name":"F3","midi":53,"time":"112.19","velocity":0.48031496062992124,"duration":"0.09"},{"name":"A3","midi":57,"time":"112.21","velocity":0.48031496062992124,"duration":"0.09"},{"name":"C4","midi":60,"time":"112.23","velocity":0.48031496062992124,"duration":"0.09"},{"name":"F3","midi":53,"time":"112.49","velocity":0.48031496062992124,"duration":"0.09"},{"name":"A3","midi":57,"time":"112.51","velocity":0.48031496062992124,"duration":"0.09"},{"name":"C4","midi":60,"time":"112.52","velocity":0.48031496062992124,"duration":"0.09"},{"name":"F3","midi":53,"time":"112.80","velocity":0.48031496062992124,"duration":"0.09"},{"name":"A3","midi":57,"time":"112.82","velocity":0.48031496062992124,"duration":"0.09"},{"name":"C4","midi":60,"time":"112.83","velocity":0.48031496062992124,"duration":"0.09"},{"name":"F3","midi":53,"time":"113.12","velocity":0.48031496062992124,"duration":"0.09"},{"name":"A3","midi":57,"time":"113.14","velocity":0.48031496062992124,"duration":"0.09"},{"name":"C4","midi":60,"time":"113.16","velocity":0.48031496062992124,"duration":"0.09"},{"name":"F3","midi":53,"time":"113.42","velocity":0.48031496062992124,"duration":"0.09"},{"name":"A3","midi":57,"time":"113.44","velocity":0.48031496062992124,"duration":"0.09"},{"name":"C4","midi":60,"time":"113.45","velocity":0.48031496062992124,"duration":"0.09"},{"name":"F3","midi":53,"time":"113.73","velocity":0.48031496062992124,"duration":"0.09"},{"name":"A3","midi":57,"time":"113.75","velocity":0.48031496062992124,"duration":"0.09"},{"name":"C4","midi":60,"time":"113.76","velocity":0.48031496062992124,"duration":"0.09"},{"name":"F3","midi":53,"time":"113.99","velocity":0.48031496062992124,"duration":"0.09"},{"name":"A3","midi":57,"time":"114.01","velocity":0.48031496062992124,"duration":"0.09"},{"name":"C4","midi":60,"time":"114.03","velocity":0.48031496062992124,"duration":"0.09"},{"name":"F3","midi":53,"time":"114.29","velocity":0.48031496062992124,"duration":"0.09"},{"name":"A3","midi":57,"time":"114.31","velocity":0.48031496062992124,"duration":"0.09"},{"name":"C4","midi":60,"time":"114.32","velocity":0.48031496062992124,"duration":"0.09"},{"name":"F3","midi":53,"time":"114.60","velocity":0.48031496062992124,"duration":"0.09"},{"name":"A3","midi":57,"time":"114.62","velocity":0.48031496062992124,"duration":"0.09"},{"name":"C4","midi":60,"time":"114.63","velocity":0.48031496062992124,"duration":"0.09"},{"name":"F3","midi":53,"time":"114.91","velocity":0.48031496062992124,"duration":"0.09"},{"name":"A3","midi":57,"time":"114.93","velocity":0.48031496062992124,"duration":"0.09"},{"name":"C4","midi":60,"time":"114.95","velocity":0.48031496062992124,"duration":"0.09"},{"name":"A3","midi":57,"time":"115.22","velocity":0.48031496062992124,"duration":"0.09"},{"name":"F4","midi":65,"time":"115.23","velocity":0.48031496062992124,"duration":"0.09"},{"name":"C4","midi":60,"time":"115.23","velocity":0.48031496062992124,"duration":"0.09"},{"name":"F3","midi":53,"time":"115.48","velocity":0.48031496062992124,"duration":"0.09"},{"name":"F4","midi":65,"time":"115.50","velocity":0.48031496062992124,"duration":"0.09"},{"name":"A3","midi":57,"time":"115.51","velocity":0.48031496062992124,"duration":"0.09"},{"name":"A3","midi":57,"time":"115.81","velocity":0.48031496062992124,"duration":"0.09"},{"name":"F4","midi":65,"time":"115.82","velocity":0.48031496062992124,"duration":"0.09"},{"name":"C4","midi":60,"time":"115.83","velocity":0.48031496062992124,"duration":"0.09"},{"name":"F3","midi":53,"time":"116.08","velocity":0.48031496062992124,"duration":"0.09"},{"name":"F4","midi":65,"time":"116.09","velocity":0.48031496062992124,"duration":"0.09"},{"name":"A3","midi":57,"time":"116.10","velocity":0.48031496062992124,"duration":"0.09"},{"name":"A3","midi":57,"time":"116.40","velocity":0.48031496062992124,"duration":"0.09"},{"name":"C4","midi":60,"time":"116.41","velocity":0.48031496062992124,"duration":"0.09"},{"name":"F4","midi":65,"time":"116.42","velocity":0.48031496062992124,"duration":"0.09"},{"name":"F3","midi":53,"time":"116.70","velocity":0.48031496062992124,"duration":"0.09"},{"name":"F4","midi":65,"time":"116.70","velocity":0.48031496062992124,"duration":"0.09"},{"name":"A3","midi":57,"time":"116.72","velocity":0.48031496062992124,"duration":"0.09"},{"name":"A3","midi":57,"time":"116.99","velocity":0.48031496062992124,"duration":"0.09"},{"name":"C4","midi":60,"time":"117.01","velocity":0.48031496062992124,"duration":"0.09"},{"name":"F4","midi":65,"time":"117.01","velocity":0.48031496062992124,"duration":"0.09"},{"name":"F4","midi":65,"time":"117.28","velocity":0.48031496062992124,"duration":"0.09"},{"name":"F3","midi":53,"time":"117.28","velocity":0.48031496062992124,"duration":"0.09"},{"name":"A3","midi":57,"time":"117.31","velocity":0.48031496062992124,"duration":"0.09"},{"name":"A#3","midi":58,"time":"117.59","velocity":0.48031496062992124,"duration":"0.09"},{"name":"D4","midi":62,"time":"117.61","velocity":0.48031496062992124,"duration":"0.09"},{"name":"F3","midi":53,"time":"117.89","velocity":0.48031496062992124,"duration":"0.09"},{"name":"A#3","midi":58,"time":"117.92","velocity":0.48031496062992124,"duration":"0.09"},{"name":"A#3","midi":58,"time":"118.19","velocity":0.48031496062992124,"duration":"0.09"},{"name":"D4","midi":62,"time":"118.20","velocity":0.48031496062992124,"duration":"0.09"},{"name":"F3","midi":53,"time":"118.48","velocity":0.48031496062992124,"duration":"0.09"},{"name":"A#3","midi":58,"time":"118.51","velocity":0.48031496062992124,"duration":"0.09"},{"name":"A#3","midi":58,"time":"118.77","velocity":0.48031496062992124,"duration":"0.09"},{"name":"D4","midi":62,"time":"118.79","velocity":0.48031496062992124,"duration":"0.09"},{"name":"F3","midi":53,"time":"119.07","velocity":0.48031496062992124,"duration":"0.09"},{"name":"A#3","midi":58,"time":"119.10","velocity":0.48031496062992124,"duration":"0.09"},{"name":"A#3","midi":58,"time":"119.37","velocity":0.48031496062992124,"duration":"0.09"},{"name":"D4","midi":62,"time":"119.38","velocity":0.48031496062992124,"duration":"0.09"},{"name":"F3","midi":53,"time":"119.66","velocity":0.48031496062992124,"duration":"0.09"},{"name":"A#3","midi":58,"time":"119.68","velocity":0.48031496062992124,"duration":"0.09"},{"name":"F3","midi":53,"time":"119.98","velocity":0.48031496062992124,"duration":"0.09"},{"name":"A3","midi":57,"time":"120.00","velocity":0.48031496062992124,"duration":"0.09"},{"name":"C4","midi":60,"time":"120.01","velocity":0.48031496062992124,"duration":"0.09"},{"name":"F3","midi":53,"time":"120.27","velocity":0.48031496062992124,"duration":"0.09"},{"name":"A3","midi":57,"time":"120.29","velocity":0.48031496062992124,"duration":"0.09"},{"name":"C4","midi":60,"time":"120.31","velocity":0.48031496062992124,"duration":"0.09"},{"name":"F3","midi":53,"time":"120.58","velocity":0.48031496062992124,"duration":"0.09"},{"name":"A3","midi":57,"time":"120.60","velocity":0.48031496062992124,"duration":"0.09"},{"name":"C4","midi":60,"time":"120.62","velocity":0.48031496062992124,"duration":"0.09"},{"name":"F3","midi":53,"time":"120.90","velocity":0.48031496062992124,"duration":"0.09"},{"name":"A3","midi":57,"time":"120.92","velocity":0.48031496062992124,"duration":"0.09"},{"name":"C4","midi":60,"time":"120.93","velocity":0.48031496062992124,"duration":"0.09"},{"name":"F3","midi":53,"time":"121.19","velocity":0.48031496062992124,"duration":"0.09"},{"name":"A3","midi":57,"time":"121.21","velocity":0.48031496062992124,"duration":"0.09"},{"name":"C4","midi":60,"time":"121.23","velocity":0.48031496062992124,"duration":"0.09"},{"name":"F3","midi":53,"time":"121.50","velocity":0.48031496062992124,"duration":"0.09"},{"name":"A3","midi":57,"time":"121.52","velocity":0.48031496062992124,"duration":"0.09"},{"name":"C4","midi":60,"time":"121.54","velocity":0.48031496062992124,"duration":"0.09"},{"name":"F3","midi":53,"time":"121.79","velocity":0.48031496062992124,"duration":"0.09"},{"name":"A3","midi":57,"time":"121.81","velocity":0.48031496062992124,"duration":"0.09"},{"name":"C4","midi":60,"time":"121.83","velocity":0.48031496062992124,"duration":"0.09"},{"name":"F3","midi":53,"time":"122.09","velocity":0.48031496062992124,"duration":"0.09"},{"name":"A3","midi":57,"time":"122.11","velocity":0.48031496062992124,"duration":"0.09"},{"name":"C4","midi":60,"time":"122.12","velocity":0.48031496062992124,"duration":"0.09"},{"name":"F3","midi":53,"time":"122.40","velocity":0.48031496062992124,"duration":"0.09"},{"name":"A3","midi":57,"time":"122.42","velocity":0.48031496062992124,"duration":"0.09"},{"name":"C4","midi":60,"time":"122.43","velocity":0.48031496062992124,"duration":"0.09"},{"name":"F3","midi":53,"time":"122.72","velocity":0.48031496062992124,"duration":"0.09"},{"name":"A3","midi":57,"time":"122.74","velocity":0.48031496062992124,"duration":"0.09"},{"name":"C4","midi":60,"time":"122.76","velocity":0.48031496062992124,"duration":"0.09"},{"name":"F3","midi":53,"time":"123.02","velocity":0.48031496062992124,"duration":"0.09"},{"name":"A3","midi":57,"time":"123.04","velocity":0.48031496062992124,"duration":"0.09"},{"name":"C4","midi":60,"time":"123.05","velocity":0.48031496062992124,"duration":"0.09"},{"name":"F3","midi":53,"time":"123.33","velocity":0.48031496062992124,"duration":"0.09"},{"name":"A3","midi":57,"time":"123.35","velocity":0.48031496062992124,"duration":"0.09"},{"name":"C4","midi":60,"time":"123.36","velocity":0.48031496062992124,"duration":"0.09"},{"name":"F3","midi":53,"time":"123.59","velocity":0.48031496062992124,"duration":"0.09"},{"name":"A3","midi":57,"time":"123.61","velocity":0.48031496062992124,"duration":"0.09"},{"name":"C4","midi":60,"time":"123.63","velocity":0.48031496062992124,"duration":"0.09"},{"name":"F3","midi":53,"time":"123.89","velocity":0.48031496062992124,"duration":"0.09"},{"name":"A3","midi":57,"time":"123.91","velocity":0.48031496062992124,"duration":"0.09"},{"name":"C4","midi":60,"time":"123.92","velocity":0.48031496062992124,"duration":"0.09"},{"name":"F3","midi":53,"time":"124.20","velocity":0.48031496062992124,"duration":"0.09"},{"name":"A3","midi":57,"time":"124.22","velocity":0.48031496062992124,"duration":"0.09"},{"name":"C4","midi":60,"time":"124.23","velocity":0.48031496062992124,"duration":"0.09"},{"name":"F3","midi":53,"time":"124.51","velocity":0.48031496062992124,"duration":"0.09"},{"name":"A3","midi":57,"time":"124.53","velocity":0.48031496062992124,"duration":"0.09"},{"name":"C4","midi":60,"time":"124.55","velocity":0.48031496062992124,"duration":"0.09"},{"name":"F3","midi":53,"time":"124.78","velocity":0.48031496062992124,"duration":"0.09"},{"name":"A3","midi":57,"time":"124.82","velocity":0.48031496062992124,"duration":"0.09"},{"name":"F4","midi":65,"time":"124.83","velocity":0.48031496062992124,"duration":"0.09"},{"name":"C4","midi":60,"time":"124.83","velocity":0.48031496062992124,"duration":"0.09"},{"name":"F3","midi":53,"time":"125.08","velocity":0.48031496062992124,"duration":"0.09"},{"name":"F4","midi":65,"time":"125.10","velocity":0.48031496062992124,"duration":"0.09"},{"name":"A3","midi":57,"time":"125.11","velocity":0.48031496062992124,"duration":"0.09"},{"name":"A3","midi":57,"time":"125.41","velocity":0.48031496062992124,"duration":"0.09"},{"name":"F4","midi":65,"time":"125.42","velocity":0.48031496062992124,"duration":"0.09"},{"name":"C4","midi":60,"time":"125.43","velocity":0.48031496062992124,"duration":"0.09"},{"name":"F3","midi":53,"time":"125.68","velocity":0.48031496062992124,"duration":"0.09"},{"name":"F4","midi":65,"time":"125.69","velocity":0.48031496062992124,"duration":"0.09"},{"name":"A3","midi":57,"time":"125.70","velocity":0.48031496062992124,"duration":"0.09"},{"name":"A3","midi":57,"time":"126.00","velocity":0.48031496062992124,"duration":"0.09"},{"name":"C4","midi":60,"time":"126.01","velocity":0.48031496062992124,"duration":"0.09"},{"name":"F4","midi":65,"time":"126.02","velocity":0.48031496062992124,"duration":"0.09"},{"name":"F3","midi":53,"time":"126.30","velocity":0.48031496062992124,"duration":"0.09"},{"name":"F4","midi":65,"time":"126.30","velocity":0.48031496062992124,"duration":"0.09"},{"name":"A3","midi":57,"time":"126.32","velocity":0.48031496062992124,"duration":"0.09"},{"name":"A3","midi":57,"time":"126.59","velocity":0.48031496062992124,"duration":"0.09"},{"name":"C4","midi":60,"time":"126.61","velocity":0.48031496062992124,"duration":"0.09"},{"name":"F4","midi":65,"time":"126.61","velocity":0.48031496062992124,"duration":"0.09"},{"name":"F4","midi":65,"time":"126.88","velocity":0.48031496062992124,"duration":"0.09"},{"name":"F3","midi":53,"time":"126.88","velocity":0.48031496062992124,"duration":"0.09"},{"name":"A3","midi":57,"time":"126.91","velocity":0.48031496062992124,"duration":"0.09"},{"name":"A#3","midi":58,"time":"127.19","velocity":0.48031496062992124,"duration":"0.09"},{"name":"D4","midi":62,"time":"127.21","velocity":0.48031496062992124,"duration":"0.09"},{"name":"F3","midi":53,"time":"127.49","velocity":0.48031496062992124,"duration":"0.09"},{"name":"A#3","midi":58,"time":"127.52","velocity":0.48031496062992124,"duration":"0.09"},{"name":"A#3","midi":58,"time":"127.79","velocity":0.48031496062992124,"duration":"0.09"},{"name":"D4","midi":62,"time":"127.80","velocity":0.48031496062992124,"duration":"0.09"},{"name":"F3","midi":53,"time":"128.08","velocity":0.48031496062992124,"duration":"0.09"},{"name":"A#3","midi":58,"time":"128.11","velocity":0.48031496062992124,"duration":"0.09"},{"name":"A#3","midi":58,"time":"128.37","velocity":0.48031496062992124,"duration":"0.09"},{"name":"D4","midi":62,"time":"128.39","velocity":0.48031496062992124,"duration":"0.09"},{"name":"F3","midi":53,"time":"128.67","velocity":0.48031496062992124,"duration":"0.09"},{"name":"A#3","midi":58,"time":"128.70","velocity":0.48031496062992124,"duration":"0.09"},{"name":"A#3","midi":58,"time":"128.97","velocity":0.48031496062992124,"duration":"0.09"},{"name":"D4","midi":62,"time":"128.98","velocity":0.48031496062992124,"duration":"0.09"},{"name":"F3","midi":53,"time":"129.26","velocity":0.48031496062992124,"duration":"0.09"},{"name":"A#3","midi":58,"time":"129.28","velocity":0.48031496062992124,"duration":"0.09"},{"name":"F3","midi":53,"time":"129.58","velocity":0.48031496062992124,"duration":"0.09"},{"name":"A3","midi":57,"time":"129.60","velocity":0.48031496062992124,"duration":"0.09"},{"name":"C4","midi":60,"time":"129.61","velocity":0.48031496062992124,"duration":"0.09"},{"name":"F3","midi":53,"time":"129.87","velocity":0.48031496062992124,"duration":"0.09"},{"name":"A3","midi":57,"time":"129.89","velocity":0.48031496062992124,"duration":"0.09"},{"name":"C4","midi":60,"time":"129.91","velocity":0.48031496062992124,"duration":"0.09"},{"name":"F3","midi":53,"time":"130.18","velocity":0.48031496062992124,"duration":"0.09"},{"name":"A3","midi":57,"time":"130.20","velocity":0.48031496062992124,"duration":"0.09"},{"name":"C4","midi":60,"time":"130.22","velocity":0.48031496062992124,"duration":"0.09"},{"name":"F3","midi":53,"time":"130.50","velocity":0.48031496062992124,"duration":"0.09"},{"name":"A3","midi":57,"time":"130.52","velocity":0.48031496062992124,"duration":"0.09"},{"name":"C4","midi":60,"time":"130.53","velocity":0.48031496062992124,"duration":"0.09"},{"name":"F3","midi":53,"time":"130.79","velocity":0.48031496062992124,"duration":"0.09"},{"name":"A3","midi":57,"time":"130.81","velocity":0.48031496062992124,"duration":"0.09"},{"name":"C4","midi":60,"time":"130.83","velocity":0.48031496062992124,"duration":"0.09"},{"name":"F3","midi":53,"time":"131.10","velocity":0.48031496062992124,"duration":"0.09"},{"name":"A3","midi":57,"time":"131.12","velocity":0.48031496062992124,"duration":"0.09"},{"name":"C4","midi":60,"time":"131.14","velocity":0.48031496062992124,"duration":"0.09"},{"name":"F3","midi":53,"time":"131.39","velocity":0.48031496062992124,"duration":"0.09"},{"name":"A3","midi":57,"time":"131.41","velocity":0.48031496062992124,"duration":"0.09"},{"name":"C4","midi":60,"time":"131.43","velocity":0.48031496062992124,"duration":"0.09"},{"name":"F3","midi":53,"time":"131.69","velocity":0.48031496062992124,"duration":"0.09"},{"name":"A3","midi":57,"time":"131.71","velocity":0.48031496062992124,"duration":"0.09"},{"name":"C4","midi":60,"time":"131.72","velocity":0.48031496062992124,"duration":"0.09"},{"name":"F3","midi":53,"time":"132.00","velocity":0.48031496062992124,"duration":"0.09"},{"name":"A3","midi":57,"time":"132.02","velocity":0.48031496062992124,"duration":"0.09"},{"name":"C4","midi":60,"time":"132.03","velocity":0.48031496062992124,"duration":"0.09"},{"name":"F3","midi":53,"time":"132.32","velocity":0.48031496062992124,"duration":"0.09"},{"name":"A3","midi":57,"time":"132.34","velocity":0.48031496062992124,"duration":"0.09"},{"name":"C4","midi":60,"time":"132.36","velocity":0.48031496062992124,"duration":"0.09"},{"name":"F3","midi":53,"time":"132.62","velocity":0.48031496062992124,"duration":"0.09"},{"name":"A3","midi":57,"time":"132.64","velocity":0.48031496062992124,"duration":"0.09"},{"name":"C4","midi":60,"time":"132.65","velocity":0.48031496062992124,"duration":"0.09"},{"name":"F3","midi":53,"time":"132.93","velocity":0.48031496062992124,"duration":"0.09"},{"name":"A3","midi":57,"time":"132.95","velocity":0.48031496062992124,"duration":"0.09"},{"name":"C4","midi":60,"time":"132.96","velocity":0.48031496062992124,"duration":"0.09"},{"name":"F3","midi":53,"time":"133.19","velocity":0.48031496062992124,"duration":"0.09"},{"name":"A3","midi":57,"time":"133.21","velocity":0.48031496062992124,"duration":"0.09"},{"name":"C4","midi":60,"time":"133.23","velocity":0.48031496062992124,"duration":"0.09"},{"name":"F3","midi":53,"time":"133.49","velocity":0.48031496062992124,"duration":"0.09"},{"name":"A3","midi":57,"time":"133.51","velocity":0.48031496062992124,"duration":"0.09"},{"name":"C4","midi":60,"time":"133.52","velocity":0.48031496062992124,"duration":"0.09"},{"name":"F3","midi":53,"time":"133.80","velocity":0.48031496062992124,"duration":"0.09"},{"name":"A3","midi":57,"time":"133.82","velocity":0.48031496062992124,"duration":"0.09"},{"name":"C4","midi":60,"time":"133.83","velocity":0.48031496062992124,"duration":"0.09"},{"name":"F3","midi":53,"time":"134.11","velocity":0.48031496062992124,"duration":"0.09"},{"name":"A3","midi":57,"time":"134.13","velocity":0.48031496062992124,"duration":"0.09"},{"name":"C4","midi":60,"time":"134.15","velocity":0.48031496062992124,"duration":"0.09"},{"name":"A3","midi":57,"time":"134.42","velocity":0.48031496062992124,"duration":"0.09"},{"name":"F4","midi":65,"time":"134.43","velocity":0.48031496062992124,"duration":"0.09"},{"name":"C4","midi":60,"time":"134.43","velocity":0.48031496062992124,"duration":"0.09"},{"name":"F3","midi":53,"time":"134.68","velocity":0.48031496062992124,"duration":"0.09"},{"name":"F4","midi":65,"time":"134.70","velocity":0.48031496062992124,"duration":"0.09"},{"name":"A3","midi":57,"time":"134.71","velocity":0.48031496062992124,"duration":"0.09"},{"name":"A3","midi":57,"time":"135.01","velocity":0.48031496062992124,"duration":"0.09"},{"name":"F4","midi":65,"time":"135.02","velocity":0.48031496062992124,"duration":"0.09"},{"name":"C4","midi":60,"time":"135.03","velocity":0.48031496062992124,"duration":"0.09"},{"name":"F3","midi":53,"time":"135.28","velocity":0.48031496062992124,"duration":"0.09"},{"name":"F4","midi":65,"time":"135.29","velocity":0.48031496062992124,"duration":"0.09"},{"name":"A3","midi":57,"time":"135.30","velocity":0.48031496062992124,"duration":"0.09"},{"name":"A3","midi":57,"time":"135.60","velocity":0.48031496062992124,"duration":"0.09"},{"name":"C4","midi":60,"time":"135.61","velocity":0.48031496062992124,"duration":"0.09"},{"name":"F4","midi":65,"time":"135.62","velocity":0.48031496062992124,"duration":"0.09"},{"name":"F3","midi":53,"time":"135.90","velocity":0.48031496062992124,"duration":"0.09"},{"name":"F4","midi":65,"time":"135.90","velocity":0.48031496062992124,"duration":"0.09"},{"name":"A3","midi":57,"time":"135.92","velocity":0.48031496062992124,"duration":"0.09"},{"name":"A3","midi":57,"time":"136.19","velocity":0.48031496062992124,"duration":"0.09"},{"name":"C4","midi":60,"time":"136.21","velocity":0.48031496062992124,"duration":"0.09"},{"name":"F4","midi":65,"time":"136.21","velocity":0.48031496062992124,"duration":"0.09"},{"name":"F4","midi":65,"time":"136.48","velocity":0.48031496062992124,"duration":"0.09"},{"name":"F3","midi":53,"time":"136.48","velocity":0.48031496062992124,"duration":"0.09"},{"name":"A3","midi":57,"time":"136.51","velocity":0.48031496062992124,"duration":"0.09"},{"name":"A#3","midi":58,"time":"136.79","velocity":0.48031496062992124,"duration":"0.09"},{"name":"D4","midi":62,"time":"136.81","velocity":0.48031496062992124,"duration":"0.09"},{"name":"F3","midi":53,"time":"137.09","velocity":0.48031496062992124,"duration":"0.09"},{"name":"A#3","midi":58,"time":"137.12","velocity":0.48031496062992124,"duration":"0.09"},{"name":"A#3","midi":58,"time":"137.39","velocity":0.48031496062992124,"duration":"0.09"},{"name":"D4","midi":62,"time":"137.40","velocity":0.48031496062992124,"duration":"0.09"},{"name":"F3","midi":53,"time":"137.68","velocity":0.48031496062992124,"duration":"0.09"},{"name":"A#3","midi":58,"time":"137.71","velocity":0.48031496062992124,"duration":"0.09"},{"name":"A#3","midi":58,"time":"137.97","velocity":0.48031496062992124,"duration":"0.09"},{"name":"D4","midi":62,"time":"137.99","velocity":0.48031496062992124,"duration":"0.09"},{"name":"F3","midi":53,"time":"138.27","velocity":0.48031496062992124,"duration":"0.09"},{"name":"A#3","midi":58,"time":"138.30","velocity":0.48031496062992124,"duration":"0.09"},{"name":"A#3","midi":58,"time":"138.57","velocity":0.48031496062992124,"duration":"0.09"},{"name":"D4","midi":62,"time":"138.58","velocity":0.48031496062992124,"duration":"0.09"},{"name":"F3","midi":53,"time":"138.86","velocity":0.48031496062992124,"duration":"0.09"},{"name":"A#3","midi":58,"time":"138.88","velocity":0.48031496062992124,"duration":"0.09"},{"name":"F3","midi":53,"time":"139.18","velocity":0.48031496062992124,"duration":"0.09"},{"name":"A3","midi":57,"time":"139.20","velocity":0.48031496062992124,"duration":"0.09"},{"name":"C4","midi":60,"time":"139.21","velocity":0.48031496062992124,"duration":"0.09"},{"name":"F3","midi":53,"time":"139.47","velocity":0.48031496062992124,"duration":"0.09"},{"name":"A3","midi":57,"time":"139.49","velocity":0.48031496062992124,"duration":"0.09"},{"name":"C4","midi":60,"time":"139.51","velocity":0.48031496062992124,"duration":"0.09"},{"name":"F3","midi":53,"time":"139.78","velocity":0.48031496062992124,"duration":"0.09"},{"name":"A3","midi":57,"time":"139.80","velocity":0.48031496062992124,"duration":"0.09"},{"name":"C4","midi":60,"time":"139.82","velocity":0.48031496062992124,"duration":"0.09"},{"name":"F3","midi":53,"time":"140.10","velocity":0.48031496062992124,"duration":"0.09"},{"name":"A3","midi":57,"time":"140.12","velocity":0.48031496062992124,"duration":"0.09"},{"name":"C4","midi":60,"time":"140.13","velocity":0.48031496062992124,"duration":"0.09"},{"name":"F3","midi":53,"time":"140.39","velocity":0.48031496062992124,"duration":"0.09"},{"name":"A3","midi":57,"time":"140.41","velocity":0.48031496062992124,"duration":"0.09"},{"name":"C4","midi":60,"time":"140.43","velocity":0.48031496062992124,"duration":"0.09"},{"name":"F3","midi":53,"time":"140.70","velocity":0.48031496062992124,"duration":"0.09"},{"name":"A3","midi":57,"time":"140.72","velocity":0.48031496062992124,"duration":"0.09"},{"name":"C4","midi":60,"time":"140.74","velocity":0.48031496062992124,"duration":"0.09"},{"name":"F3","midi":53,"time":"140.99","velocity":0.48031496062992124,"duration":"0.09"},{"name":"A3","midi":57,"time":"141.01","velocity":0.48031496062992124,"duration":"0.09"},{"name":"C4","midi":60,"time":"141.03","velocity":0.48031496062992124,"duration":"0.09"},{"name":"F3","midi":53,"time":"141.29","velocity":0.48031496062992124,"duration":"0.09"},{"name":"A3","midi":57,"time":"141.31","velocity":0.48031496062992124,"duration":"0.09"},{"name":"C4","midi":60,"time":"141.32","velocity":0.48031496062992124,"duration":"0.09"},{"name":"F3","midi":53,"time":"141.60","velocity":0.48031496062992124,"duration":"0.09"},{"name":"A3","midi":57,"time":"141.62","velocity":0.48031496062992124,"duration":"0.09"},{"name":"C4","midi":60,"time":"141.63","velocity":0.48031496062992124,"duration":"0.09"},{"name":"F3","midi":53,"time":"141.92","velocity":0.48031496062992124,"duration":"0.09"},{"name":"A3","midi":57,"time":"141.94","velocity":0.48031496062992124,"duration":"0.09"},{"name":"C4","midi":60,"time":"141.96","velocity":0.48031496062992124,"duration":"0.09"},{"name":"F3","midi":53,"time":"142.22","velocity":0.48031496062992124,"duration":"0.09"},{"name":"A3","midi":57,"time":"142.24","velocity":0.48031496062992124,"duration":"0.09"},{"name":"C4","midi":60,"time":"142.25","velocity":0.48031496062992124,"duration":"0.09"},{"name":"F3","midi":53,"time":"142.53","velocity":0.48031496062992124,"duration":"0.09"},{"name":"A3","midi":57,"time":"142.55","velocity":0.48031496062992124,"duration":"0.09"},{"name":"C4","midi":60,"time":"142.56","velocity":0.48031496062992124,"duration":"0.09"},{"name":"F3","midi":53,"time":"142.79","velocity":0.48031496062992124,"duration":"0.09"},{"name":"A3","midi":57,"time":"142.81","velocity":0.48031496062992124,"duration":"0.09"},{"name":"C4","midi":60,"time":"142.82","velocity":0.48031496062992124,"duration":"0.09"},{"name":"E4","midi":64,"time":"142.83","velocity":0.48031496062992124,"duration":"0.09"},{"name":"F3","midi":53,"time":"143.08","velocity":0.48031496062992124,"duration":"0.09"},{"name":"A3","midi":57,"time":"143.10","velocity":0.48031496062992124,"duration":"0.09"},{"name":"E4","midi":64,"time":"143.12","velocity":0.48031496062992124,"duration":"0.09"},{"name":"C4","midi":60,"time":"143.12","velocity":0.48031496062992124,"duration":"0.09"},{"name":"F3","midi":53,"time":"143.39","velocity":0.48031496062992124,"duration":"0.09"},{"name":"A3","midi":57,"time":"143.41","velocity":0.48031496062992124,"duration":"0.09"},{"name":"E4","midi":64,"time":"143.42","velocity":0.48031496062992124,"duration":"0.09"},{"name":"C4","midi":60,"time":"143.43","velocity":0.48031496062992124,"duration":"0.09"},{"name":"F3","midi":53,"time":"143.69","velocity":0.48031496062992124,"duration":"0.09"},{"name":"A3","midi":57,"time":"143.71","velocity":0.48031496062992124,"duration":"0.09"},{"name":"C4","midi":60,"time":"143.72","velocity":0.48031496062992124,"duration":"0.09"},{"name":"E4","midi":64,"time":"143.73","velocity":0.48031496062992124,"duration":"0.09"},{"name":"F3","midi":53,"time":"143.84","velocity":0.48031496062992124,"duration":"0.09"},{"name":"A3","midi":57,"time":"143.86","velocity":0.48031496062992124,"duration":"0.09"},{"name":"C4","midi":60,"time":"143.87","velocity":0.48031496062992124,"duration":"0.09"},{"name":"E4","midi":64,"time":"143.88","velocity":0.48031496062992124,"duration":"0.09"},{"name":"F3","midi":53,"time":"143.97","velocity":0.48031496062992124,"duration":"0.09"},{"name":"A#3","midi":58,"time":"143.99","velocity":0.48031496062992124,"duration":"0.09"},{"name":"D4","midi":62,"time":"144.00","velocity":0.48031496062992124,"duration":"0.09"},{"name":"F3","midi":53,"time":"144.27","velocity":0.48031496062992124,"duration":"0.09"},{"name":"A#3","midi":58,"time":"144.29","velocity":0.48031496062992124,"duration":"0.09"},{"name":"D4","midi":62,"time":"144.30","velocity":0.48031496062992124,"duration":"0.09"},{"name":"F3","midi":53,"time":"144.58","velocity":0.48031496062992124,"duration":"0.09"},{"name":"A#3","midi":58,"time":"144.60","velocity":0.48031496062992124,"duration":"0.09"},{"name":"D4","midi":62,"time":"144.61","velocity":0.48031496062992124,"duration":"0.09"},{"name":"F3","midi":53,"time":"144.89","velocity":0.48031496062992124,"duration":"0.09"},{"name":"A#3","midi":58,"time":"144.91","velocity":0.48031496062992124,"duration":"0.09"},{"name":"D4","midi":62,"time":"144.92","velocity":0.48031496062992124,"duration":"0.09"},{"name":"F3","midi":53,"time":"145.19","velocity":0.48031496062992124,"duration":"0.09"},{"name":"A#3","midi":58,"time":"145.21","velocity":0.48031496062992124,"duration":"0.09"},{"name":"D4","midi":62,"time":"145.22","velocity":0.48031496062992124,"duration":"0.09"},{"name":"F3","midi":53,"time":"145.50","velocity":0.48031496062992124,"duration":"0.09"},{"name":"A#3","midi":58,"time":"145.52","velocity":0.48031496062992124,"duration":"0.09"},{"name":"D4","midi":62,"time":"145.53","velocity":0.48031496062992124,"duration":"0.09"},{"name":"F3","midi":53,"time":"145.79","velocity":0.48031496062992124,"duration":"0.09"},{"name":"A#3","midi":58,"time":"145.81","velocity":0.48031496062992124,"duration":"0.09"},{"name":"D4","midi":62,"time":"145.82","velocity":0.48031496062992124,"duration":"0.09"},{"name":"F3","midi":53,"time":"146.08","velocity":0.48031496062992124,"duration":"0.09"},{"name":"A#3","midi":58,"time":"146.10","velocity":0.48031496062992124,"duration":"0.09"},{"name":"D4","midi":62,"time":"146.11","velocity":0.48031496062992124,"duration":"0.09"},{"name":"F3","midi":53,"time":"146.24","velocity":0.48031496062992124,"duration":"0.09"},{"name":"A#3","midi":58,"time":"146.26","velocity":0.48031496062992124,"duration":"0.09"},{"name":"D4","midi":62,"time":"146.27","velocity":0.48031496062992124,"duration":"0.09"},{"name":"F3","midi":53,"time":"146.39","velocity":0.48031496062992124,"duration":"0.09"},{"name":"A#3","midi":58,"time":"146.41","velocity":0.48031496062992124,"duration":"0.09"},{"name":"D4","midi":62,"time":"146.42","velocity":0.48031496062992124,"duration":"0.09"},{"name":"F3","midi":53,"time":"146.72","velocity":0.48031496062992124,"duration":"0.09"},{"name":"A#3","midi":58,"time":"146.74","velocity":0.48031496062992124,"duration":"0.09"},{"name":"D4","midi":62,"time":"146.75","velocity":0.48031496062992124,"duration":"0.09"},{"name":"F3","midi":53,"time":"147.01","velocity":0.48031496062992124,"duration":"0.09"},{"name":"A#3","midi":58,"time":"147.03","velocity":0.48031496062992124,"duration":"0.09"},{"name":"D4","midi":62,"time":"147.04","velocity":0.48031496062992124,"duration":"0.09"},{"name":"F3","midi":53,"time":"147.32","velocity":0.48031496062992124,"duration":"0.09"},{"name":"A#3","midi":58,"time":"147.34","velocity":0.48031496062992124,"duration":"0.09"},{"name":"D4","midi":62,"time":"147.35","velocity":0.48031496062992124,"duration":"0.09"},{"name":"F3","midi":53,"time":"147.59","velocity":0.48031496062992124,"duration":"0.09"},{"name":"A#3","midi":58,"time":"147.61","velocity":0.48031496062992124,"duration":"0.09"},{"name":"F4","midi":65,"time":"147.63","velocity":0.48031496062992124,"duration":"0.09"},{"name":"D4","midi":62,"time":"147.63","velocity":0.48031496062992124,"duration":"0.09"},{"name":"F3","midi":53,"time":"147.89","velocity":0.48031496062992124,"duration":"0.09"},{"name":"A3","midi":57,"time":"147.91","velocity":0.48031496062992124,"duration":"0.09"},{"name":"F4","midi":65,"time":"147.92","velocity":0.48031496062992124,"duration":"0.09"},{"name":"D4","midi":62,"time":"147.93","velocity":0.48031496062992124,"duration":"0.09"},{"name":"F3","midi":53,"time":"148.20","velocity":0.48031496062992124,"duration":"0.09"},{"name":"A3","midi":57,"time":"148.22","velocity":0.48031496062992124,"duration":"0.09"},{"name":"F4","midi":65,"time":"148.23","velocity":0.48031496062992124,"duration":"0.09"},{"name":"D4","midi":62,"time":"148.24","velocity":0.48031496062992124,"duration":"0.09"},{"name":"F3","midi":53,"time":"148.49","velocity":0.48031496062992124,"duration":"0.09"},{"name":"A3","midi":57,"time":"148.51","velocity":0.48031496062992124,"duration":"0.09"},{"name":"D4","midi":62,"time":"148.53","velocity":0.48031496062992124,"duration":"0.09"},{"name":"F4","midi":65,"time":"148.54","velocity":0.48031496062992124,"duration":"0.09"},{"name":"F3","midi":53,"time":"148.64","velocity":0.48031496062992124,"duration":"0.09"},{"name":"A3","midi":57,"time":"148.66","velocity":0.48031496062992124,"duration":"0.09"},{"name":"D4","midi":62,"time":"148.68","velocity":0.48031496062992124,"duration":"0.09"},{"name":"F4","midi":65,"time":"148.69","velocity":0.48031496062992124,"duration":"0.09"},{"name":"C4","midi":60,"time":"148.81","velocity":0.48031496062992124,"duration":"0.09"},{"name":"F4","midi":65,"time":"148.82","velocity":0.48031496062992124,"duration":"0.09"},{"name":"A3","midi":57,"time":"148.82","velocity":0.48031496062992124,"duration":"0.09"},{"name":"C4","midi":60,"time":"149.07","velocity":0.48031496062992124,"duration":"0.09"},{"name":"A3","midi":57,"time":"149.09","velocity":0.48031496062992124,"duration":"0.09"},{"name":"F4","midi":65,"time":"149.09","velocity":0.48031496062992124,"duration":"0.09"},{"name":"C4","midi":60,"time":"149.38","velocity":0.48031496062992124,"duration":"0.09"},{"name":"A3","midi":57,"time":"149.40","velocity":0.48031496062992124,"duration":"0.09"},{"name":"F4","midi":65,"time":"149.40","velocity":0.48031496062992124,"duration":"0.09"},{"name":"C4","midi":60,"time":"149.70","velocity":0.48031496062992124,"duration":"0.09"},{"name":"F4","midi":65,"time":"149.71","velocity":0.48031496062992124,"duration":"0.09"},{"name":"A3","midi":57,"time":"149.71","velocity":0.48031496062992124,"duration":"0.09"},{"name":"C4","midi":60,"time":"149.99","velocity":0.48031496062992124,"duration":"0.09"},{"name":"A3","midi":57,"time":"150.01","velocity":0.48031496062992124,"duration":"0.09"},{"name":"F4","midi":65,"time":"150.01","velocity":0.48031496062992124,"duration":"0.09"},{"name":"C4","midi":60,"time":"150.30","velocity":0.48031496062992124,"duration":"0.09"},{"name":"A3","midi":57,"time":"150.32","velocity":0.48031496062992124,"duration":"0.09"},{"name":"F4","midi":65,"time":"150.32","velocity":0.48031496062992124,"duration":"0.09"},{"name":"C4","midi":60,"time":"150.59","velocity":0.48031496062992124,"duration":"0.09"},{"name":"F4","midi":65,"time":"150.61","velocity":0.48031496062992124,"duration":"0.09"},{"name":"A3","midi":57,"time":"150.61","velocity":0.48031496062992124,"duration":"0.09"},{"name":"C4","midi":60,"time":"150.89","velocity":0.48031496062992124,"duration":"0.09"},{"name":"F4","midi":65,"time":"150.90","velocity":0.48031496062992124,"duration":"0.09"},{"name":"A3","midi":57,"time":"150.90","velocity":0.48031496062992124,"duration":"0.09"},{"name":"C4","midi":60,"time":"151.05","velocity":0.48031496062992124,"duration":"0.09"},{"name":"F4","midi":65,"time":"151.06","velocity":0.48031496062992124,"duration":"0.09"},{"name":"A3","midi":57,"time":"151.06","velocity":0.48031496062992124,"duration":"0.09"},{"name":"C4","midi":60,"time":"151.20","velocity":0.48031496062992124,"duration":"0.09"},{"name":"F4","midi":65,"time":"151.22","velocity":0.48031496062992124,"duration":"0.09"},{"name":"A3","midi":57,"time":"151.22","velocity":0.48031496062992124,"duration":"0.09"},{"name":"C4","midi":60,"time":"151.51","velocity":0.48031496062992124,"duration":"0.09"},{"name":"A3","midi":57,"time":"151.52","velocity":0.48031496062992124,"duration":"0.09"},{"name":"F4","midi":65,"time":"151.52","velocity":0.48031496062992124,"duration":"0.09"},{"name":"C4","midi":60,"time":"151.80","velocity":0.48031496062992124,"duration":"0.09"},{"name":"A3","midi":57,"time":"151.82","velocity":0.48031496062992124,"duration":"0.09"},{"name":"F4","midi":65,"time":"151.82","velocity":0.48031496062992124,"duration":"0.09"},{"name":"C4","midi":60,"time":"152.11","velocity":0.48031496062992124,"duration":"0.09"},{"name":"A3","midi":57,"time":"152.13","velocity":0.48031496062992124,"duration":"0.09"},{"name":"F4","midi":65,"time":"152.13","velocity":0.48031496062992124,"duration":"0.09"},{"name":"C4","midi":60,"time":"152.38","velocity":0.48031496062992124,"duration":"0.09"},{"name":"A3","midi":57,"time":"152.39","velocity":0.48031496062992124,"duration":"0.09"},{"name":"F4","midi":65,"time":"152.40","velocity":0.48031496062992124,"duration":"0.09"},{"name":"C4","midi":60,"time":"152.67","velocity":0.48031496062992124,"duration":"0.09"},{"name":"A3","midi":57,"time":"152.69","velocity":0.48031496062992124,"duration":"0.09"},{"name":"F4","midi":65,"time":"152.70","velocity":0.48031496062992124,"duration":"0.09"},{"name":"C4","midi":60,"time":"152.98","velocity":0.48031496062992124,"duration":"0.09"},{"name":"A3","midi":57,"time":"153.00","velocity":0.48031496062992124,"duration":"0.09"},{"name":"F4","midi":65,"time":"153.01","velocity":0.48031496062992124,"duration":"0.09"},{"name":"C4","midi":60,"time":"153.28","velocity":0.48031496062992124,"duration":"0.09"},{"name":"A3","midi":57,"time":"153.29","velocity":0.48031496062992124,"duration":"0.09"},{"name":"F4","midi":65,"time":"153.30","velocity":0.48031496062992124,"duration":"0.09"},{"name":"C4","midi":60,"time":"153.43","velocity":0.48031496062992124,"duration":"0.09"},{"name":"A3","midi":57,"time":"153.44","velocity":0.48031496062992124,"duration":"0.09"},{"name":"F4","midi":65,"time":"153.45","velocity":0.48031496062992124,"duration":"0.09"},{"name":"F3","midi":53,"time":"153.60","velocity":0.48031496062992124,"duration":"0.09"},{"name":"A#3","midi":58,"time":"153.60","velocity":0.48031496062992124,"duration":"0.09"},{"name":"D4","midi":62,"time":"153.60","velocity":0.48031496062992124,"duration":"0.09"},{"name":"F4","midi":65,"time":"153.60","velocity":0.48031496062992124,"duration":"0.09"},{"name":"F3","midi":53,"time":"153.87","velocity":0.48031496062992124,"duration":"0.09"},{"name":"A#3","midi":58,"time":"153.89","velocity":0.48031496062992124,"duration":"0.09"},{"name":"D4","midi":62,"time":"153.90","velocity":0.48031496062992124,"duration":"0.09"},{"name":"F4","midi":65,"time":"153.90","velocity":0.48031496062992124,"duration":"0.09"},{"name":"F3","midi":53,"time":"154.18","velocity":0.48031496062992124,"duration":"0.09"},{"name":"A#3","midi":58,"time":"154.20","velocity":0.48031496062992124,"duration":"0.09"},{"name":"D4","midi":62,"time":"154.21","velocity":0.48031496062992124,"duration":"0.09"},{"name":"F4","midi":65,"time":"154.21","velocity":0.48031496062992124,"duration":"0.09"},{"name":"F3","midi":53,"time":"154.49","velocity":0.48031496062992124,"duration":"0.09"},{"name":"A#3","midi":58,"time":"154.51","velocity":0.48031496062992124,"duration":"0.09"},{"name":"D4","midi":62,"time":"154.52","velocity":0.48031496062992124,"duration":"0.09"},{"name":"F4","midi":65,"time":"154.52","velocity":0.48031496062992124,"duration":"0.09"},{"name":"F3","midi":53,"time":"154.79","velocity":0.48031496062992124,"duration":"0.09"},{"name":"A#3","midi":58,"time":"154.81","velocity":0.48031496062992124,"duration":"0.09"},{"name":"D4","midi":62,"time":"154.82","velocity":0.48031496062992124,"duration":"0.09"},{"name":"F4","midi":65,"time":"154.82","velocity":0.48031496062992124,"duration":"0.09"},{"name":"F3","midi":53,"time":"155.10","velocity":0.48031496062992124,"duration":"0.09"},{"name":"A#3","midi":58,"time":"155.12","velocity":0.48031496062992124,"duration":"0.09"},{"name":"F4","midi":65,"time":"155.13","velocity":0.48031496062992124,"duration":"0.09"},{"name":"D4","midi":62,"time":"155.13","velocity":0.48031496062992124,"duration":"0.09"},{"name":"F3","midi":53,"time":"155.39","velocity":0.48031496062992124,"duration":"0.09"},{"name":"A#3","midi":58,"time":"155.41","velocity":0.48031496062992124,"duration":"0.09"},{"name":"D4","midi":62,"time":"155.42","velocity":0.48031496062992124,"duration":"0.09"},{"name":"F4","midi":65,"time":"155.42","velocity":0.48031496062992124,"duration":"0.09"},{"name":"F3","midi":53,"time":"155.68","velocity":0.48031496062992124,"duration":"0.09"},{"name":"A#3","midi":58,"time":"155.70","velocity":0.48031496062992124,"duration":"0.09"},{"name":"D4","midi":62,"time":"155.71","velocity":0.48031496062992124,"duration":"0.09"},{"name":"F4","midi":65,"time":"155.71","velocity":0.48031496062992124,"duration":"0.09"},{"name":"F3","midi":53,"time":"155.84","velocity":0.48031496062992124,"duration":"0.09"},{"name":"A#3","midi":58,"time":"155.86","velocity":0.48031496062992124,"duration":"0.09"},{"name":"D4","midi":62,"time":"155.87","velocity":0.48031496062992124,"duration":"0.09"},{"name":"F4","midi":65,"time":"155.87","velocity":0.48031496062992124,"duration":"0.09"},{"name":"F3","midi":53,"time":"155.99","velocity":0.48031496062992124,"duration":"0.09"},{"name":"A#3","midi":58,"time":"156.01","velocity":0.48031496062992124,"duration":"0.09"},{"name":"F4","midi":65,"time":"156.02","velocity":0.48031496062992124,"duration":"0.09"},{"name":"D4","midi":62,"time":"156.02","velocity":0.48031496062992124,"duration":"0.09"},{"name":"F3","midi":53,"time":"156.32","velocity":0.48031496062992124,"duration":"0.09"},{"name":"A#3","midi":58,"time":"156.34","velocity":0.48031496062992124,"duration":"0.09"},{"name":"D4","midi":62,"time":"156.35","velocity":0.48031496062992124,"duration":"0.09"},{"name":"F4","midi":65,"time":"156.35","velocity":0.48031496062992124,"duration":"0.09"},{"name":"F3","midi":53,"time":"156.61","velocity":0.48031496062992124,"duration":"0.09"},{"name":"A#3","midi":58,"time":"156.63","velocity":0.48031496062992124,"duration":"0.09"},{"name":"F4","midi":65,"time":"156.64","velocity":0.48031496062992124,"duration":"0.09"},{"name":"D4","midi":62,"time":"156.64","velocity":0.48031496062992124,"duration":"0.09"},{"name":"F3","midi":53,"time":"156.92","velocity":0.48031496062992124,"duration":"0.09"},{"name":"A#3","midi":58,"time":"156.94","velocity":0.48031496062992124,"duration":"0.09"},{"name":"F4","midi":65,"time":"156.95","velocity":0.48031496062992124,"duration":"0.09"},{"name":"D4","midi":62,"time":"156.95","velocity":0.48031496062992124,"duration":"0.09"},{"name":"F3","midi":53,"time":"157.19","velocity":0.48031496062992124,"duration":"0.09"},{"name":"A#3","midi":58,"time":"157.21","velocity":0.48031496062992124,"duration":"0.09"},{"name":"F4","midi":65,"time":"157.23","velocity":0.48031496062992124,"duration":"0.09"},{"name":"D4","midi":62,"time":"157.23","velocity":0.48031496062992124,"duration":"0.09"},{"name":"F3","midi":53,"time":"157.48","velocity":0.48031496062992124,"duration":"0.09"},{"name":"A3","midi":57,"time":"157.50","velocity":0.48031496062992124,"duration":"0.09"},{"name":"F4","midi":65,"time":"157.52","velocity":0.48031496062992124,"duration":"0.09"},{"name":"D4","midi":62,"time":"157.52","velocity":0.48031496062992124,"duration":"0.09"},{"name":"F3","midi":53,"time":"157.79","velocity":0.48031496062992124,"duration":"0.09"},{"name":"A3","midi":57,"time":"157.81","velocity":0.48031496062992124,"duration":"0.09"},{"name":"F4","midi":65,"time":"157.82","velocity":0.48031496062992124,"duration":"0.09"},{"name":"D4","midi":62,"time":"157.83","velocity":0.48031496062992124,"duration":"0.09"},{"name":"F3","midi":53,"time":"158.09","velocity":0.48031496062992124,"duration":"0.09"},{"name":"A3","midi":57,"time":"158.11","velocity":0.48031496062992124,"duration":"0.09"},{"name":"D4","midi":62,"time":"158.13","velocity":0.48031496062992124,"duration":"0.09"},{"name":"F4","midi":65,"time":"158.13","velocity":0.48031496062992124,"duration":"0.09"},{"name":"F3","midi":53,"time":"158.24","velocity":0.48031496062992124,"duration":"0.09"},{"name":"A3","midi":57,"time":"158.26","velocity":0.48031496062992124,"duration":"0.09"},{"name":"D4","midi":62,"time":"158.28","velocity":0.48031496062992124,"duration":"0.09"},{"name":"F4","midi":65,"time":"158.28","velocity":0.48031496062992124,"duration":"0.09"},{"name":"C4","midi":60,"time":"158.40","velocity":0.48031496062992124,"duration":"0.09"},{"name":"F4","midi":65,"time":"158.42","velocity":0.48031496062992124,"duration":"0.09"},{"name":"A3","midi":57,"time":"158.42","velocity":0.48031496062992124,"duration":"0.09"},{"name":"C4","midi":60,"time":"158.67","velocity":0.48031496062992124,"duration":"0.09"},{"name":"A3","midi":57,"time":"158.69","velocity":0.48031496062992124,"duration":"0.09"},{"name":"F4","midi":65,"time":"158.69","velocity":0.48031496062992124,"duration":"0.09"},{"name":"C4","midi":60,"time":"158.98","velocity":0.48031496062992124,"duration":"0.09"},{"name":"A3","midi":57,"time":"159.00","velocity":0.48031496062992124,"duration":"0.09"},{"name":"F4","midi":65,"time":"159.00","velocity":0.48031496062992124,"duration":"0.09"},{"name":"C4","midi":60,"time":"159.30","velocity":0.48031496062992124,"duration":"0.09"},{"name":"F4","midi":65,"time":"159.31","velocity":0.48031496062992124,"duration":"0.09"},{"name":"A3","midi":57,"time":"159.31","velocity":0.48031496062992124,"duration":"0.09"},{"name":"C4","midi":60,"time":"159.59","velocity":0.48031496062992124,"duration":"0.09"},{"name":"F4","midi":65,"time":"159.61","velocity":0.48031496062992124,"duration":"0.09"},{"name":"A3","midi":57,"time":"159.61","velocity":0.48031496062992124,"duration":"0.09"},{"name":"C4","midi":60,"time":"159.90","velocity":0.48031496062992124,"duration":"0.09"},{"name":"A3","midi":57,"time":"159.92","velocity":0.48031496062992124,"duration":"0.09"},{"name":"F4","midi":65,"time":"159.92","velocity":0.48031496062992124,"duration":"0.09"},{"name":"C4","midi":60,"time":"160.19","velocity":0.48031496062992124,"duration":"0.09"},{"name":"F4","midi":65,"time":"160.21","velocity":0.48031496062992124,"duration":"0.09"},{"name":"A3","midi":57,"time":"160.21","velocity":0.48031496062992124,"duration":"0.09"},{"name":"C4","midi":60,"time":"160.49","velocity":0.48031496062992124,"duration":"0.09"},{"name":"F4","midi":65,"time":"160.50","velocity":0.48031496062992124,"duration":"0.09"},{"name":"A3","midi":57,"time":"160.50","velocity":0.48031496062992124,"duration":"0.09"},{"name":"C4","midi":60,"time":"160.65","velocity":0.48031496062992124,"duration":"0.09"},{"name":"F4","midi":65,"time":"160.66","velocity":0.48031496062992124,"duration":"0.09"},{"name":"A3","midi":57,"time":"160.66","velocity":0.48031496062992124,"duration":"0.09"},{"name":"C4","midi":60,"time":"160.80","velocity":0.48031496062992124,"duration":"0.09"},{"name":"A3","midi":57,"time":"160.82","velocity":0.48031496062992124,"duration":"0.09"},{"name":"E4","midi":64,"time":"160.82","velocity":0.48031496062992124,"duration":"0.09"},{"name":"G4","midi":67,"time":"160.83","velocity":0.48031496062992124,"duration":"0.09"},{"name":"C4","midi":60,"time":"161.11","velocity":0.48031496062992124,"duration":"0.09"},{"name":"A3","midi":57,"time":"161.12","velocity":0.48031496062992124,"duration":"0.09"},{"name":"E4","midi":64,"time":"161.12","velocity":0.48031496062992124,"duration":"0.09"},{"name":"G4","midi":67,"time":"161.14","velocity":0.48031496062992124,"duration":"0.09"},{"name":"C4","midi":60,"time":"161.40","velocity":0.48031496062992124,"duration":"0.09"},{"name":"E4","midi":64,"time":"161.41","velocity":0.48031496062992124,"duration":"0.09"},{"name":"A3","midi":57,"time":"161.42","velocity":0.48031496062992124,"duration":"0.09"},{"name":"G4","midi":67,"time":"161.43","velocity":0.48031496062992124,"duration":"0.09"},{"name":"E4","midi":64,"time":"161.71","velocity":0.48031496062992124,"duration":"0.09"},{"name":"C4","midi":60,"time":"161.71","velocity":0.48031496062992124,"duration":"0.09"},{"name":"A3","midi":57,"time":"161.73","velocity":0.48031496062992124,"duration":"0.09"},{"name":"G4","midi":67,"time":"161.74","velocity":0.48031496062992124,"duration":"0.09"},{"name":"C#4","midi":61,"time":"161.98","velocity":0.48031496062992124,"duration":"0.09"},{"name":"A3","midi":57,"time":"161.99","velocity":0.48031496062992124,"duration":"0.09"},{"name":"F4","midi":65,"time":"162.00","velocity":0.48031496062992124,"duration":"0.09"},{"name":"C#4","midi":61,"time":"162.27","velocity":0.48031496062992124,"duration":"0.09"},{"name":"A3","midi":57,"time":"162.29","velocity":0.48031496062992124,"duration":"0.09"},{"name":"F4","midi":65,"time":"162.30","velocity":0.48031496062992124,"duration":"0.09"},{"name":"C#4","midi":61,"time":"162.58","velocity":0.48031496062992124,"duration":"0.09"},{"name":"A3","midi":57,"time":"162.60","velocity":0.48031496062992124,"duration":"0.09"},{"name":"F4","midi":65,"time":"162.61","velocity":0.48031496062992124,"duration":"0.09"},{"name":"C#4","midi":61,"time":"162.88","velocity":0.48031496062992124,"duration":"0.09"},{"name":"A3","midi":57,"time":"162.89","velocity":0.48031496062992124,"duration":"0.09"},{"name":"F4","midi":65,"time":"162.90","velocity":0.48031496062992124,"duration":"0.09"},{"name":"C#4","midi":61,"time":"163.03","velocity":0.48031496062992124,"duration":"0.09"},{"name":"A3","midi":57,"time":"163.04","velocity":0.48031496062992124,"duration":"0.09"},{"name":"F4","midi":65,"time":"163.05","velocity":0.48031496062992124,"duration":"0.09"},{"name":"C3","midi":48,"time":"163.19","velocity":0.48031496062992124,"duration":"0.09"},{"name":"G4","midi":67,"time":"163.20","velocity":0.5748031496062992,"duration":"0.58"},{"name":"C4","midi":60,"time":"163.21","velocity":0.48031496062992124,"duration":"0.09"},{"name":"G3","midi":55,"time":"163.21","velocity":0.48031496062992124,"duration":"0.09"},{"name":"E4","midi":64,"time":"163.21","velocity":0.48031496062992124,"duration":"0.09"},{"name":"C3","midi":48,"time":"163.49","velocity":0.48031496062992124,"duration":"0.09"},{"name":"C4","midi":60,"time":"163.51","velocity":0.48031496062992124,"duration":"0.09"},{"name":"G3","midi":55,"time":"163.51","velocity":0.48031496062992124,"duration":"0.09"},{"name":"E4","midi":64,"time":"163.51","velocity":0.48031496062992124,"duration":"0.09"},{"name":"C3","midi":48,"time":"163.63","velocity":0.3543307086614173,"duration":"0.09"},{"name":"C4","midi":60,"time":"163.65","velocity":0.3543307086614173,"duration":"0.09"},{"name":"G3","midi":55,"time":"163.65","velocity":0.3543307086614173,"duration":"0.09"},{"name":"E4","midi":64,"time":"163.65","velocity":0.3543307086614173,"duration":"0.09"},{"name":"C3","midi":48,"time":"163.81","velocity":0.48031496062992124,"duration":"0.09"},{"name":"G4","midi":67,"time":"163.82","velocity":0.5748031496062992,"duration":"0.27"},{"name":"C4","midi":60,"time":"163.83","velocity":0.48031496062992124,"duration":"0.09"},{"name":"G3","midi":55,"time":"163.83","velocity":0.48031496062992124,"duration":"0.09"},{"name":"E4","midi":64,"time":"163.83","velocity":0.48031496062992124,"duration":"0.09"},{"name":"C3","midi":48,"time":"164.09","velocity":0.48031496062992124,"duration":"0.09"},{"name":"C4","midi":60,"time":"164.11","velocity":0.48031496062992124,"duration":"0.09"},{"name":"G3","midi":55,"time":"164.11","velocity":0.48031496062992124,"duration":"0.09"},{"name":"G4","midi":67,"time":"164.12","velocity":0.5748031496062992,"duration":"0.28"},{"name":"E4","midi":64,"time":"164.12","velocity":0.48031496062992124,"duration":"0.09"},{"name":"C3","midi":48,"time":"164.23","velocity":0.3464566929133858,"duration":"0.09"},{"name":"C4","midi":60,"time":"164.25","velocity":0.3464566929133858,"duration":"0.09"},{"name":"G3","midi":55,"time":"164.25","velocity":0.3464566929133858,"duration":"0.09"},{"name":"E4","midi":64,"time":"164.26","velocity":0.3464566929133858,"duration":"0.09"},{"name":"C3","midi":48,"time":"164.38","velocity":0.48031496062992124,"duration":"0.09"},{"name":"G3","midi":55,"time":"164.40","velocity":0.48031496062992124,"duration":"0.09"},{"name":"G4","midi":67,"time":"164.41","velocity":0.5748031496062992,"duration":"0.28"},{"name":"C4","midi":60,"time":"164.41","velocity":0.48031496062992124,"duration":"0.09"},{"name":"E4","midi":64,"time":"164.42","velocity":0.48031496062992124,"duration":"0.09"},{"name":"C3","midi":48,"time":"164.65","velocity":0.48031496062992124,"duration":"0.09"},{"name":"G3","midi":55,"time":"164.68","velocity":0.48031496062992124,"duration":"0.09"},{"name":"E4","midi":64,"time":"164.68","velocity":0.48031496062992124,"duration":"0.09"},{"name":"C4","midi":60,"time":"164.68","velocity":0.48031496062992124,"duration":"0.09"},{"name":"G4","midi":67,"time":"164.70","velocity":0.5748031496062992,"duration":"0.28"},{"name":"C3","midi":48,"time":"164.81","velocity":0.33858267716535434,"duration":"0.09"},{"name":"G3","midi":55,"time":"164.83","velocity":0.33858267716535434,"duration":"0.09"},{"name":"C4","midi":60,"time":"164.84","velocity":0.33858267716535434,"duration":"0.09"},{"name":"E4","midi":64,"time":"164.84","velocity":0.33858267716535434,"duration":"0.09"},{"name":"C3","midi":48,"time":"164.99","velocity":0.48031496062992124,"duration":"0.09"},{"name":"G4","midi":67,"time":"165.01","velocity":0.5748031496062992,"duration":"0.28"},{"name":"G3","midi":55,"time":"165.01","velocity":0.48031496062992124,"duration":"0.09"},{"name":"E4","midi":64,"time":"165.01","velocity":0.48031496062992124,"duration":"0.09"},{"name":"C4","midi":60,"time":"165.02","velocity":0.48031496062992124,"duration":"0.09"},{"name":"C3","midi":48,"time":"165.26","velocity":0.48031496062992124,"duration":"0.09"},{"name":"G3","midi":55,"time":"165.28","velocity":0.48031496062992124,"duration":"0.09"},{"name":"F4","midi":65,"time":"165.29","velocity":0.5748031496062992,"duration":"0.27"},{"name":"G4","midi":67,"time":"165.30","velocity":0.5748031496062992,"duration":"0.27"},{"name":"D4","midi":62,"time":"165.30","velocity":0.48031496062992124,"duration":"0.09"},{"name":"C3","midi":48,"time":"165.40","velocity":0.2992125984251969,"duration":"0.09"},{"name":"G3","midi":55,"time":"165.41","velocity":0.2992125984251969,"duration":"0.09"},{"name":"D4","midi":62,"time":"165.44","velocity":0.2992125984251969,"duration":"0.09"},{"name":"C3","midi":48,"time":"165.59","velocity":0.5748031496062992,"duration":"1.91"},{"name":"G3","midi":55,"time":"165.59","velocity":0.5748031496062992,"duration":"1.91"},{"name":"C4","midi":60,"time":"165.59","velocity":0.5748031496062992,"duration":"1.91"},{"name":"E4","midi":64,"time":"165.60","velocity":0.5748031496062992,"duration":"1.91"},{"name":"G4","midi":67,"time":"165.60","velocity":0.5748031496062992,"duration":"1.91"},{"name":"E3","midi":52,"time":"167.69","velocity":0.48031496062992124,"duration":"0.09"},{"name":"C3","midi":48,"time":"167.69","velocity":0.48031496062992124,"duration":"0.09"},{"name":"G3","midi":55,"time":"167.70","velocity":0.48031496062992124,"duration":"0.09"},{"name":"C3","midi":48,"time":"167.84","velocity":0.48031496062992124,"duration":"0.09"},{"name":"E3","midi":52,"time":"167.84","velocity":0.48031496062992124,"duration":"0.09"},{"name":"G3","midi":55,"time":"167.85","velocity":0.48031496062992124,"duration":"0.09"},{"name":"F3","midi":53,"time":"167.99","velocity":0.48031496062992124,"duration":"0.09"},{"name":"A3","midi":57,"time":"167.99","velocity":0.48031496062992124,"duration":"0.09"},{"name":"C4","midi":60,"time":"168.01","velocity":0.48031496062992124,"duration":"0.09"},{"name":"F4","midi":65,"time":"168.03","velocity":0.48031496062992124,"duration":"0.09"},{"name":"F3","midi":53,"time":"168.28","velocity":0.3543307086614173,"duration":"0.09"},{"name":"A3","midi":57,"time":"168.30","velocity":0.3543307086614173,"duration":"0.09"},{"name":"C4","midi":60,"time":"168.31","velocity":0.3543307086614173,"duration":"0.09"},{"name":"F3","midi":53,"time":"168.56","velocity":0.48031496062992124,"duration":"0.09"},{"name":"A#3","midi":58,"time":"168.58","velocity":0.48031496062992124,"duration":"0.09"},{"name":"C4","midi":60,"time":"168.59","velocity":0.48031496062992124,"duration":"0.09"},{"name":"F4","midi":65,"time":"168.61","velocity":0.48031496062992124,"duration":"0.09"},{"name":"F3","midi":53,"time":"168.87","velocity":0.36220472440944884,"duration":"0.09"},{"name":"A3","midi":57,"time":"168.88","velocity":0.36220472440944884,"duration":"0.09"},{"name":"C4","midi":60,"time":"168.90","velocity":0.36220472440944884,"duration":"0.09"},{"name":"F3","midi":53,"time":"169.19","velocity":0.48031496062992124,"duration":"0.09"},{"name":"A3","midi":57,"time":"169.20","velocity":0.48031496062992124,"duration":"0.09"},{"name":"C4","midi":60,"time":"169.22","velocity":0.48031496062992124,"duration":"0.09"},{"name":"F4","midi":65,"time":"169.24","velocity":0.48031496062992124,"duration":"0.09"},{"name":"F3","midi":53,"time":"169.49","velocity":0.36220472440944884,"duration":"0.09"},{"name":"A3","midi":57,"time":"169.51","velocity":0.36220472440944884,"duration":"0.09"},{"name":"C4","midi":60,"time":"169.52","velocity":0.3700787401574803,"duration":"0.09"},{"name":"F3","midi":53,"time":"169.77","velocity":0.48031496062992124,"duration":"0.09"},{"name":"A#3","midi":58,"time":"169.79","velocity":0.48031496062992124,"duration":"0.09"},{"name":"C4","midi":60,"time":"169.80","velocity":0.48031496062992124,"duration":"0.09"},{"name":"F4","midi":65,"time":"169.82","velocity":0.48031496062992124,"duration":"0.09"},{"name":"F3","midi":53,"time":"170.08","velocity":0.3464566929133858,"duration":"0.09"},{"name":"A3","midi":57,"time":"170.09","velocity":0.3464566929133858,"duration":"0.09"},{"name":"C4","midi":60,"time":"170.11","velocity":0.3464566929133858,"duration":"0.09"},{"name":"F3","midi":53,"time":"170.24","velocity":0.3464566929133858,"duration":"0.09"},{"name":"A3","midi":57,"time":"170.25","velocity":0.3464566929133858,"duration":"0.09"},{"name":"C4","midi":60,"time":"170.27","velocity":0.3464566929133858,"duration":"0.09"},{"name":"F3","midi":53,"time":"170.37","velocity":0.48031496062992124,"duration":"0.09"},{"name":"A#3","midi":58,"time":"170.39","velocity":0.48031496062992124,"duration":"0.09"},{"name":"D4","midi":62,"time":"170.42","velocity":0.48031496062992124,"duration":"0.09"},{"name":"F4","midi":65,"time":"170.42","velocity":0.48031496062992124,"duration":"0.09"},{"name":"F3","midi":53,"time":"170.68","velocity":0.3543307086614173,"duration":"0.09"},{"name":"A#3","midi":58,"time":"170.69","velocity":0.3543307086614173,"duration":"0.09"},{"name":"D4","midi":62,"time":"170.72","velocity":0.3543307086614173,"duration":"0.09"},{"name":"F3","midi":53,"time":"170.96","velocity":0.48031496062992124,"duration":"0.09"},{"name":"A#3","midi":58,"time":"170.97","velocity":0.48031496062992124,"duration":"0.09"},{"name":"D4","midi":62,"time":"171.00","velocity":0.48031496062992124,"duration":"0.09"},{"name":"F4","midi":65,"time":"171.01","velocity":0.48031496062992124,"duration":"0.09"},{"name":"F3","midi":53,"time":"171.26","velocity":0.4409448818897638,"duration":"0.09"},{"name":"C4","midi":60,"time":"171.28","velocity":0.4409448818897638,"duration":"0.02"},{"name":"D4","midi":62,"time":"171.31","velocity":0.4409448818897638,"duration":"0.09"},{"name":"F3","midi":53,"time":"171.58","velocity":0.48031496062992124,"duration":"0.09"},{"name":"C4","midi":60,"time":"171.60","velocity":0.48031496062992124,"duration":"0.09"},{"name":"D4","midi":62,"time":"171.63","velocity":0.48031496062992124,"duration":"0.09"},{"name":"F4","midi":65,"time":"171.63","velocity":0.48031496062992124,"duration":"0.09"},{"name":"F3","midi":53,"time":"171.89","velocity":0.36220472440944884,"duration":"0.09"},{"name":"A#3","midi":58,"time":"171.90","velocity":0.36220472440944884,"duration":"0.09"},{"name":"D4","midi":62,"time":"171.93","velocity":0.3700787401574803,"duration":"0.09"},{"name":"F3","midi":53,"time":"172.17","velocity":0.48031496062992124,"duration":"0.09"},{"name":"A#3","midi":58,"time":"172.18","velocity":0.48031496062992124,"duration":"0.09"},{"name":"D4","midi":62,"time":"172.21","velocity":0.48031496062992124,"duration":"0.09"},{"name":"F4","midi":65,"time":"172.22","velocity":0.48031496062992124,"duration":"0.09"},{"name":"F3","midi":53,"time":"172.47","velocity":0.3464566929133858,"duration":"0.09"},{"name":"C4","midi":60,"time":"172.49","velocity":0.3464566929133858,"duration":"0.09"},{"name":"D4","midi":62,"time":"172.52","velocity":0.3464566929133858,"duration":"0.09"},{"name":"F3","midi":53,"time":"172.62","velocity":0.3464566929133858,"duration":"0.09"},{"name":"C4","midi":60,"time":"172.64","velocity":0.3464566929133858,"duration":"0.09"},{"name":"D4","midi":62,"time":"172.67","velocity":0.3464566929133858,"duration":"0.09"},{"name":"F3","midi":53,"time":"172.79","velocity":0.48031496062992124,"duration":"0.09"},{"name":"A3","midi":57,"time":"172.80","velocity":0.48031496062992124,"duration":"0.09"},{"name":"C4","midi":60,"time":"172.82","velocity":0.48031496062992124,"duration":"0.09"},{"name":"F4","midi":65,"time":"172.84","velocity":0.48031496062992124,"duration":"0.09"},{"name":"F3","midi":53,"time":"173.09","velocity":0.3543307086614173,"duration":"0.09"},{"name":"A3","midi":57,"time":"173.11","velocity":0.3543307086614173,"duration":"0.09"},{"name":"C4","midi":60,"time":"173.12","velocity":0.3543307086614173,"duration":"0.09"},{"name":"F3","midi":53,"time":"173.37","velocity":0.48031496062992124,"duration":"0.09"},{"name":"A#3","midi":58,"time":"173.40","velocity":0.48031496062992124,"duration":"0.09"},{"name":"C4","midi":60,"time":"173.40","velocity":0.48031496062992124,"duration":"0.09"},{"name":"C5","midi":72,"time":"173.42","velocity":0.48031496062992124,"duration":"0.09"},{"name":"F4","midi":65,"time":"173.42","velocity":0.48031496062992124,"duration":"0.09"},{"name":"F3","midi":53,"time":"173.68","velocity":0.36220472440944884,"duration":"0.09"},{"name":"A#3","midi":58,"time":"173.69","velocity":0.36220472440944884,"duration":"0.09"},{"name":"C4","midi":60,"time":"173.71","velocity":0.36220472440944884,"duration":"0.09"},{"name":"C5","midi":72,"time":"173.72","velocity":0.48031496062992124,"duration":"0.09"},{"name":"F3","midi":53,"time":"174.00","velocity":0.48031496062992124,"duration":"0.09"},{"name":"A3","midi":57,"time":"174.01","velocity":0.48031496062992124,"duration":"0.09"},{"name":"C4","midi":60,"time":"174.03","velocity":0.48031496062992124,"duration":"0.09"},{"name":"F4","midi":65,"time":"174.05","velocity":0.48031496062992124,"duration":"0.09"},{"name":"F3","midi":53,"time":"174.30","velocity":0.36220472440944884,"duration":"0.09"},{"name":"A3","midi":57,"time":"174.32","velocity":0.36220472440944884,"duration":"0.09"},{"name":"C4","midi":60,"time":"174.33","velocity":0.3700787401574803,"duration":"0.09"},{"name":"F3","midi":53,"time":"174.58","velocity":0.48031496062992124,"duration":"0.09"},{"name":"A#3","midi":58,"time":"174.60","velocity":0.48031496062992124,"duration":"0.09"},{"name":"C4","midi":60,"time":"174.61","velocity":0.48031496062992124,"duration":"0.09"},{"name":"F4","midi":65,"time":"174.63","velocity":0.48031496062992124,"duration":"0.09"},{"name":"F3","midi":53,"time":"174.89","velocity":0.3464566929133858,"duration":"0.09"},{"name":"A3","midi":57,"time":"174.90","velocity":0.3464566929133858,"duration":"0.09"},{"name":"C4","midi":60,"time":"174.92","velocity":0.3464566929133858,"duration":"0.09"},{"name":"F3","midi":53,"time":"175.05","velocity":0.3464566929133858,"duration":"0.09"},{"name":"A3","midi":57,"time":"175.06","velocity":0.3464566929133858,"duration":"0.09"},{"name":"C4","midi":60,"time":"175.08","velocity":0.3464566929133858,"duration":"0.09"},{"name":"F3","midi":53,"time":"175.18","velocity":0.48031496062992124,"duration":"0.09"},{"name":"A3","midi":57,"time":"175.20","velocity":0.48031496062992124,"duration":"0.09"},{"name":"C4","midi":60,"time":"175.21","velocity":0.48031496062992124,"duration":"0.09"},{"name":"F4","midi":65,"time":"175.23","velocity":0.48031496062992124,"duration":"0.09"},{"name":"F3","midi":53,"time":"175.49","velocity":0.3543307086614173,"duration":"0.09"},{"name":"A3","midi":57,"time":"175.50","velocity":0.3543307086614173,"duration":"0.09"},{"name":"C4","midi":60,"time":"175.52","velocity":0.3543307086614173,"duration":"0.09"},{"name":"F3","midi":53,"time":"175.77","velocity":0.48031496062992124,"duration":"0.09"},{"name":"A#3","midi":58,"time":"175.78","velocity":0.48031496062992124,"duration":"0.09"},{"name":"C4","midi":60,"time":"175.80","velocity":0.48031496062992124,"duration":"0.09"},{"name":"F4","midi":65,"time":"175.82","velocity":0.48031496062992124,"duration":"0.09"},{"name":"F3","midi":53,"time":"176.07","velocity":0.36220472440944884,"duration":"0.09"},{"name":"A3","midi":57,"time":"176.09","velocity":0.36220472440944884,"duration":"0.09"},{"name":"C4","midi":60,"time":"176.10","velocity":0.36220472440944884,"duration":"0.09"},{"name":"F3","midi":53,"time":"176.39","velocity":0.48031496062992124,"duration":"0.09"},{"name":"A3","midi":57,"time":"176.41","velocity":0.48031496062992124,"duration":"0.09"},{"name":"C4","midi":60,"time":"176.42","velocity":0.48031496062992124,"duration":"0.09"},{"name":"F4","midi":65,"time":"176.44","velocity":0.48031496062992124,"duration":"0.09"},{"name":"F3","midi":53,"time":"176.70","velocity":0.36220472440944884,"duration":"0.09"},{"name":"A3","midi":57,"time":"176.71","velocity":0.36220472440944884,"duration":"0.09"},{"name":"C4","midi":60,"time":"176.73","velocity":0.3700787401574803,"duration":"0.09"},{"name":"F3","midi":53,"time":"176.84","velocity":0.3464566929133858,"duration":"0.09"},{"name":"A3","midi":57,"time":"176.86","velocity":0.3464566929133858,"duration":"0.09"},{"name":"C4","midi":60,"time":"176.87","velocity":0.3464566929133858,"duration":"0.09"},{"name":"F3","midi":53,"time":"176.98","velocity":0.48031496062992124,"duration":"0.09"},{"name":"A#3","midi":58,"time":"176.99","velocity":0.48031496062992124,"duration":"0.09"},{"name":"C4","midi":60,"time":"177.01","velocity":0.48031496062992124,"duration":"0.09"},{"name":"F4","midi":65,"time":"177.03","velocity":0.48031496062992124,"duration":"0.09"},{"name":"F3","midi":53,"time":"177.28","velocity":0.3464566929133858,"duration":"0.09"},{"name":"A3","midi":57,"time":"177.30","velocity":0.3464566929133858,"duration":"0.09"},{"name":"C4","midi":60,"time":"177.31","velocity":0.3464566929133858,"duration":"0.09"},{"name":"F3","midi":53,"time":"177.45","velocity":0.3464566929133858,"duration":"0.09"},{"name":"A3","midi":57,"time":"177.46","velocity":0.3464566929133858,"duration":"0.09"},{"name":"C4","midi":60,"time":"177.48","velocity":0.3464566929133858,"duration":"0.09"},{"name":"A3","midi":57,"time":"177.60","velocity":0.48031496062992124,"duration":"0.09"},{"name":"D4","midi":62,"time":"177.62","velocity":0.48031496062992124,"duration":"0.09"},{"name":"F4","midi":65,"time":"177.62","velocity":0.48031496062992124,"duration":"0.09"},{"name":"A4","midi":69,"time":"177.63","velocity":0.48031496062992124,"duration":"0.09"},{"name":"D3","midi":50,"time":"177.90","velocity":0.3543307086614173,"duration":"0.09"},{"name":"A3","midi":57,"time":"177.90","velocity":0.3543307086614173,"duration":"0.09"},{"name":"D4","midi":62,"time":"177.92","velocity":0.3543307086614173,"duration":"0.09"},{"name":"D3","midi":50,"time":"178.18","velocity":0.48031496062992124,"duration":"0.09"},{"name":"A3","midi":57,"time":"178.18","velocity":0.48031496062992124,"duration":"0.09"},{"name":"F4","midi":65,"time":"178.19","velocity":0.48031496062992124,"duration":"0.09"},{"name":"D4","midi":62,"time":"178.20","velocity":0.48031496062992124,"duration":"0.09"},{"name":"A4","midi":69,"time":"178.22","velocity":0.48031496062992124,"duration":"0.09"},{"name":"D3","midi":50,"time":"178.48","velocity":0.36220472440944884,"duration":"0.09"},{"name":"A3","midi":57,"time":"178.49","velocity":0.36220472440944884,"duration":"0.09"},{"name":"D4","midi":62,"time":"178.51","velocity":0.36220472440944884,"duration":"0.09"},{"name":"D3","midi":50,"time":"178.80","velocity":0.48031496062992124,"duration":"0.09"},{"name":"A3","midi":57,"time":"178.81","velocity":0.48031496062992124,"duration":"0.09"},{"name":"F4","midi":65,"time":"178.82","velocity":0.48031496062992124,"duration":"0.09"},{"name":"D4","midi":62,"time":"178.83","velocity":0.48031496062992124,"duration":"0.09"},{"name":"A4","midi":69,"time":"178.84","velocity":0.48031496062992124,"duration":"0.09"},{"name":"D3","midi":50,"time":"179.11","velocity":0.36220472440944884,"duration":"0.09"},{"name":"A3","midi":57,"time":"179.11","velocity":0.36220472440944884,"duration":"0.09"},{"name":"D4","midi":62,"time":"179.13","velocity":0.3700787401574803,"duration":"0.09"},{"name":"D3","midi":50,"time":"179.39","velocity":0.48031496062992124,"duration":"0.09"},{"name":"A3","midi":57,"time":"179.39","velocity":0.48031496062992124,"duration":"0.09"},{"name":"D4","midi":62,"time":"179.41","velocity":0.48031496062992124,"duration":"0.09"},{"name":"A4","midi":69,"time":"179.43","velocity":0.48031496062992124,"duration":"0.09"},{"name":"F4","midi":65,"time":"179.43","velocity":0.48031496062992124,"duration":"0.09"},{"name":"D3","midi":50,"time":"179.69","velocity":0.3464566929133858,"duration":"0.09"},{"name":"A3","midi":57,"time":"179.70","velocity":0.3464566929133858,"duration":"0.09"},{"name":"D4","midi":62,"time":"179.72","velocity":0.3464566929133858,"duration":"0.09"},{"name":"D3","midi":50,"time":"179.85","velocity":0.6220472440944882,"duration":"0.09"},{"name":"A3","midi":57,"time":"179.86","velocity":0.6220472440944882,"duration":"0.09"},{"name":"D4","midi":62,"time":"179.88","velocity":0.6220472440944882,"duration":"0.09"},{"name":"A#3","midi":58,"time":"179.99","velocity":0.48031496062992124,"duration":"0.09"},{"name":"A#2","midi":46,"time":"179.99","velocity":0.48031496062992124,"duration":"0.09"},{"name":"D4","midi":62,"time":"180.01","velocity":0.48031496062992124,"duration":"0.09"},{"name":"F4","midi":65,"time":"180.02","velocity":0.48031496062992124,"duration":"0.09"},{"name":"A#4","midi":70,"time":"180.03","velocity":0.48031496062992124,"duration":"0.09"},{"name":"A#3","midi":58,"time":"180.30","velocity":0.3543307086614173,"duration":"0.09"},{"name":"A#2","midi":46,"time":"180.30","velocity":0.3543307086614173,"duration":"0.09"},{"name":"D4","midi":62,"time":"180.32","velocity":0.3543307086614173,"duration":"0.09"},{"name":"A#2","midi":46,"time":"180.58","velocity":0.48031496062992124,"duration":"0.09"},{"name":"A#3","midi":58,"time":"180.58","velocity":0.48031496062992124,"duration":"0.09"},{"name":"F4","midi":65,"time":"180.59","velocity":0.48031496062992124,"duration":"0.09"},{"name":"D4","midi":62,"time":"180.60","velocity":0.48031496062992124,"duration":"0.09"},{"name":"A#4","midi":70,"time":"180.61","velocity":0.48031496062992124,"duration":"0.09"},{"name":"A#3","midi":58,"time":"180.88","velocity":0.36220472440944884,"duration":"0.09"},{"name":"A#2","midi":46,"time":"180.88","velocity":0.36220472440944884,"duration":"0.09"},{"name":"D4","midi":62,"time":"180.90","velocity":0.36220472440944884,"duration":"0.09"},{"name":"A#3","midi":58,"time":"181.20","velocity":0.48031496062992124,"duration":"0.09"},{"name":"A#2","midi":46,"time":"181.20","velocity":0.48031496062992124,"duration":"0.09"},{"name":"F4","midi":65,"time":"181.22","velocity":0.48031496062992124,"duration":"0.09"},{"name":"D4","midi":62,"time":"181.22","velocity":0.48031496062992124,"duration":"0.09"},{"name":"A#4","midi":70,"time":"181.24","velocity":0.48031496062992124,"duration":"0.09"},{"name":"A#2","midi":46,"time":"181.51","velocity":0.36220472440944884,"duration":"0.09"},{"name":"A#3","midi":58,"time":"181.51","velocity":0.36220472440944884,"duration":"0.09"},{"name":"D4","midi":62,"time":"181.53","velocity":0.3700787401574803,"duration":"0.09"},{"name":"A#3","midi":58,"time":"181.79","velocity":0.48031496062992124,"duration":"0.09"},{"name":"A#2","midi":46,"time":"181.79","velocity":0.48031496062992124,"duration":"0.09"},{"name":"D4","midi":62,"time":"181.81","velocity":0.48031496062992124,"duration":"0.09"},{"name":"A#4","midi":70,"time":"181.82","velocity":0.48031496062992124,"duration":"0.09"},{"name":"F4","midi":65,"time":"181.83","velocity":0.48031496062992124,"duration":"0.09"},{"name":"A#3","midi":58,"time":"182.09","velocity":0.3464566929133858,"duration":"0.09"},{"name":"A#2","midi":46,"time":"182.09","velocity":0.3464566929133858,"duration":"0.09"},{"name":"D4","midi":62,"time":"182.11","velocity":0.3464566929133858,"duration":"0.09"},{"name":"C3","midi":48,"time":"182.25","velocity":0.3464566929133858,"duration":"0.09"},{"name":"C4","midi":60,"time":"182.25","velocity":0.3464566929133858,"duration":"0.09"},{"name":"D4","midi":62,"time":"182.27","velocity":0.3464566929133858,"duration":"0.09"},{"name":"F3","midi":53,"time":"182.37","velocity":0.48031496062992124,"duration":"0.09"},{"name":"A3","midi":57,"time":"182.40","velocity":0.48031496062992124,"duration":"0.09"},{"name":"C4","midi":60,"time":"182.42","velocity":0.48031496062992124,"duration":"0.09"},{"name":"F4","midi":65,"time":"182.44","velocity":0.48031496062992124,"duration":"0.09"},{"name":"F3","midi":53,"time":"182.69","velocity":0.3543307086614173,"duration":"0.09"},{"name":"A3","midi":57,"time":"182.71","velocity":0.3543307086614173,"duration":"0.09"},{"name":"C4","midi":60,"time":"182.72","velocity":0.3543307086614173,"duration":"0.09"},{"name":"F3","midi":53,"time":"182.97","velocity":0.48031496062992124,"duration":"0.09"},{"name":"A#3","midi":58,"time":"183.00","velocity":0.48031496062992124,"duration":"0.09"},{"name":"C4","midi":60,"time":"183.00","velocity":0.48031496062992124,"duration":"0.09"},{"name":"C5","midi":72,"time":"183.02","velocity":0.48031496062992124,"duration":"0.09"},{"name":"F4","midi":65,"time":"183.02","velocity":0.48031496062992124,"duration":"0.09"},{"name":"F3","midi":53,"time":"183.28","velocity":0.36220472440944884,"duration":"0.09"},{"name":"A#3","midi":58,"time":"183.29","velocity":0.36220472440944884,"duration":"0.09"},{"name":"C4","midi":60,"time":"183.31","velocity":0.36220472440944884,"duration":"0.09"},{"name":"C5","midi":72,"time":"183.32","velocity":0.48031496062992124,"duration":"0.09"},{"name":"F3","midi":53,"time":"183.60","velocity":0.48031496062992124,"duration":"0.09"},{"name":"A3","midi":57,"time":"183.61","velocity":0.48031496062992124,"duration":"0.09"},{"name":"C4","midi":60,"time":"183.63","velocity":0.48031496062992124,"duration":"0.09"},{"name":"F4","midi":65,"time":"183.65","velocity":0.48031496062992124,"duration":"0.09"},{"name":"F3","midi":53,"time":"183.90","velocity":0.36220472440944884,"duration":"0.09"},{"name":"A3","midi":57,"time":"183.92","velocity":0.36220472440944884,"duration":"0.09"},{"name":"C4","midi":60,"time":"183.93","velocity":0.3700787401574803,"duration":"0.09"},{"name":"F3","midi":53,"time":"184.18","velocity":0.48031496062992124,"duration":"0.09"},{"name":"A#3","midi":58,"time":"184.20","velocity":0.48031496062992124,"duration":"0.09"},{"name":"C4","midi":60,"time":"184.21","velocity":0.48031496062992124,"duration":"0.09"},{"name":"F4","midi":65,"time":"184.23","velocity":0.48031496062992124,"duration":"0.09"},{"name":"F3","midi":53,"time":"184.49","velocity":0.3464566929133858,"duration":"0.09"},{"name":"A3","midi":57,"time":"184.50","velocity":0.3464566929133858,"duration":"0.09"},{"name":"C4","midi":60,"time":"184.52","velocity":0.3464566929133858,"duration":"0.09"},{"name":"F3","midi":53,"time":"184.65","velocity":0.3464566929133858,"duration":"0.09"},{"name":"A3","midi":57,"time":"184.66","velocity":0.3464566929133858,"duration":"0.09"},{"name":"C4","midi":60,"time":"184.68","velocity":0.3464566929133858,"duration":"0.09"},{"name":"F3","midi":53,"time":"184.78","velocity":0.48031496062992124,"duration":"0.09"},{"name":"A3","midi":57,"time":"184.80","velocity":0.48031496062992124,"duration":"0.09"},{"name":"C4","midi":60,"time":"184.81","velocity":0.48031496062992124,"duration":"0.09"},{"name":"F4","midi":65,"time":"184.83","velocity":0.48031496062992124,"duration":"0.09"},{"name":"F3","midi":53,"time":"185.09","velocity":0.3543307086614173,"duration":"0.09"},{"name":"A3","midi":57,"time":"185.10","velocity":0.3543307086614173,"duration":"0.09"},{"name":"C4","midi":60,"time":"185.12","velocity":0.3543307086614173,"duration":"0.09"},{"name":"F3","midi":53,"time":"185.37","velocity":0.48031496062992124,"duration":"0.09"},{"name":"A#3","midi":58,"time":"185.38","velocity":0.48031496062992124,"duration":"0.09"},{"name":"C4","midi":60,"time":"185.40","velocity":0.48031496062992124,"duration":"0.09"},{"name":"F4","midi":65,"time":"185.42","velocity":0.48031496062992124,"duration":"0.09"},{"name":"F3","midi":53,"time":"185.67","velocity":0.36220472440944884,"duration":"0.09"},{"name":"A3","midi":57,"time":"185.69","velocity":0.36220472440944884,"duration":"0.09"},{"name":"C4","midi":60,"time":"185.70","velocity":0.36220472440944884,"duration":"0.09"},{"name":"F3","midi":53,"time":"185.99","velocity":0.48031496062992124,"duration":"0.09"},{"name":"A3","midi":57,"time":"186.01","velocity":0.48031496062992124,"duration":"0.09"},{"name":"C4","midi":60,"time":"186.02","velocity":0.48031496062992124,"duration":"0.09"},{"name":"F4","midi":65,"time":"186.04","velocity":0.48031496062992124,"duration":"0.09"},{"name":"F3","midi":53,"time":"186.30","velocity":0.36220472440944884,"duration":"0.09"},{"name":"A3","midi":57,"time":"186.31","velocity":0.36220472440944884,"duration":"0.09"},{"name":"C4","midi":60,"time":"186.33","velocity":0.3700787401574803,"duration":"0.09"},{"name":"F3","midi":53,"time":"186.44","velocity":0.3464566929133858,"duration":"0.09"},{"name":"A3","midi":57,"time":"186.46","velocity":0.3464566929133858,"duration":"0.09"},{"name":"C4","midi":60,"time":"186.47","velocity":0.3464566929133858,"duration":"0.09"},{"name":"F3","midi":53,"time":"186.58","velocity":0.48031496062992124,"duration":"0.09"},{"name":"A#3","midi":58,"time":"186.59","velocity":0.48031496062992124,"duration":"0.09"},{"name":"C4","midi":60,"time":"186.61","velocity":0.48031496062992124,"duration":"0.09"},{"name":"F4","midi":65,"time":"186.63","velocity":0.48031496062992124,"duration":"0.09"},{"name":"F3","midi":53,"time":"186.88","velocity":0.3464566929133858,"duration":"0.09"},{"name":"A3","midi":57,"time":"186.90","velocity":0.3464566929133858,"duration":"0.09"},{"name":"C4","midi":60,"time":"186.91","velocity":0.3464566929133858,"duration":"0.09"},{"name":"F3","midi":53,"time":"187.05","velocity":0.3464566929133858,"duration":"0.09"},{"name":"A3","midi":57,"time":"187.06","velocity":0.3464566929133858,"duration":"0.09"},{"name":"C4","midi":60,"time":"187.08","velocity":0.3464566929133858,"duration":"0.09"},{"name":"A3","midi":57,"time":"187.20","velocity":0.48031496062992124,"duration":"0.09"},{"name":"D4","midi":62,"time":"187.22","velocity":0.48031496062992124,"duration":"0.09"},{"name":"F4","midi":65,"time":"187.22","velocity":0.48031496062992124,"duration":"0.09"},{"name":"A4","midi":69,"time":"187.23","velocity":0.48031496062992124,"duration":"0.09"},{"name":"D3","midi":50,"time":"187.50","velocity":0.3543307086614173,"duration":"0.09"},{"name":"A3","midi":57,"time":"187.50","velocity":0.3543307086614173,"duration":"0.09"},{"name":"D4","midi":62,"time":"187.52","velocity":0.3543307086614173,"duration":"0.09"},{"name":"D3","midi":50,"time":"187.78","velocity":0.48031496062992124,"duration":"0.09"},{"name":"A3","midi":57,"time":"187.78","velocity":0.48031496062992124,"duration":"0.09"},{"name":"F4","midi":65,"time":"187.79","velocity":0.48031496062992124,"duration":"0.09"},{"name":"D4","midi":62,"time":"187.80","velocity":0.48031496062992124,"duration":"0.09"},{"name":"A4","midi":69,"time":"187.82","velocity":0.48031496062992124,"duration":"0.09"},{"name":"D3","midi":50,"time":"188.08","velocity":0.36220472440944884,"duration":"0.09"},{"name":"A3","midi":57,"time":"188.09","velocity":0.36220472440944884,"duration":"0.09"},{"name":"D4","midi":62,"time":"188.11","velocity":0.36220472440944884,"duration":"0.09"},{"name":"D3","midi":50,"time":"188.40","velocity":0.48031496062992124,"duration":"0.09"},{"name":"A3","midi":57,"time":"188.41","velocity":0.48031496062992124,"duration":"0.09"},{"name":"F4","midi":65,"time":"188.42","velocity":0.48031496062992124,"duration":"0.09"},{"name":"D4","midi":62,"time":"188.43","velocity":0.48031496062992124,"duration":"0.09"},{"name":"A4","midi":69,"time":"188.44","velocity":0.48031496062992124,"duration":"0.09"},{"name":"D3","midi":50,"time":"188.71","velocity":0.36220472440944884,"duration":"0.09"},{"name":"A3","midi":57,"time":"188.71","velocity":0.36220472440944884,"duration":"0.09"},{"name":"D4","midi":62,"time":"188.73","velocity":0.3700787401574803,"duration":"0.09"},{"name":"D3","midi":50,"time":"188.99","velocity":0.48031496062992124,"duration":"0.09"},{"name":"A3","midi":57,"time":"188.99","velocity":0.48031496062992124,"duration":"0.09"},{"name":"D4","midi":62,"time":"189.01","velocity":0.48031496062992124,"duration":"0.09"},{"name":"A4","midi":69,"time":"189.03","velocity":0.48031496062992124,"duration":"0.09"},{"name":"F4","midi":65,"time":"189.03","velocity":0.48031496062992124,"duration":"0.09"},{"name":"D3","midi":50,"time":"189.29","velocity":0.3464566929133858,"duration":"0.09"},{"name":"A3","midi":57,"time":"189.30","velocity":0.3464566929133858,"duration":"0.09"},{"name":"D4","midi":62,"time":"189.32","velocity":0.3464566929133858,"duration":"0.09"},{"name":"D3","midi":50,"time":"189.45","velocity":0.6220472440944882,"duration":"0.09"},{"name":"A3","midi":57,"time":"189.46","velocity":0.6220472440944882,"duration":"0.09"},{"name":"D4","midi":62,"time":"189.48","velocity":0.6220472440944882,"duration":"0.09"},{"name":"A#3","midi":58,"time":"189.59","velocity":0.48031496062992124,"duration":"0.09"},{"name":"A#2","midi":46,"time":"189.59","velocity":0.48031496062992124,"duration":"0.09"},{"name":"D4","midi":62,"time":"189.61","velocity":0.48031496062992124,"duration":"0.09"},{"name":"F4","midi":65,"time":"189.62","velocity":0.48031496062992124,"duration":"0.09"},{"name":"A#4","midi":70,"time":"189.63","velocity":0.48031496062992124,"duration":"0.09"},{"name":"A#3","midi":58,"time":"189.90","velocity":0.3543307086614173,"duration":"0.09"},{"name":"A#2","midi":46,"time":"189.90","velocity":0.3543307086614173,"duration":"0.09"},{"name":"D4","midi":62,"time":"189.92","velocity":0.3543307086614173,"duration":"0.09"},{"name":"A#2","midi":46,"time":"190.18","velocity":0.48031496062992124,"duration":"0.09"},{"name":"A#3","midi":58,"time":"190.18","velocity":0.48031496062992124,"duration":"0.09"},{"name":"F4","midi":65,"time":"190.19","velocity":0.48031496062992124,"duration":"0.09"},{"name":"D4","midi":62,"time":"190.20","velocity":0.48031496062992124,"duration":"0.09"},{"name":"A#4","midi":70,"time":"190.21","velocity":0.48031496062992124,"duration":"0.09"},{"name":"A#3","midi":58,"time":"190.48","velocity":0.36220472440944884,"duration":"0.09"},{"name":"A#2","midi":46,"time":"190.48","velocity":0.36220472440944884,"duration":"0.09"},{"name":"D4","midi":62,"time":"190.50","velocity":0.36220472440944884,"duration":"0.09"},{"name":"A#3","midi":58,"time":"190.80","velocity":0.48031496062992124,"duration":"0.09"},{"name":"A#2","midi":46,"time":"190.80","velocity":0.48031496062992124,"duration":"0.09"},{"name":"F4","midi":65,"time":"190.82","velocity":0.48031496062992124,"duration":"0.09"},{"name":"D4","midi":62,"time":"190.82","velocity":0.48031496062992124,"duration":"0.09"},{"name":"A#4","midi":70,"time":"190.84","velocity":0.48031496062992124,"duration":"0.09"},{"name":"A#2","midi":46,"time":"191.11","velocity":0.36220472440944884,"duration":"0.09"},{"name":"A#3","midi":58,"time":"191.11","velocity":0.36220472440944884,"duration":"0.09"},{"name":"D4","midi":62,"time":"191.13","velocity":0.3700787401574803,"duration":"0.09"},{"name":"A#3","midi":58,"time":"191.39","velocity":0.48031496062992124,"duration":"0.09"},{"name":"A#2","midi":46,"time":"191.39","velocity":0.48031496062992124,"duration":"0.09"},{"name":"D4","midi":62,"time":"191.41","velocity":0.48031496062992124,"duration":"0.09"},{"name":"A#4","midi":70,"time":"191.42","velocity":0.48031496062992124,"duration":"0.09"},{"name":"F4","midi":65,"time":"191.43","velocity":0.48031496062992124,"duration":"0.09"},{"name":"A#3","midi":58,"time":"191.69","velocity":0.3464566929133858,"duration":"0.09"},{"name":"A#2","midi":46,"time":"191.69","velocity":0.3464566929133858,"duration":"0.09"},{"name":"D4","midi":62,"time":"191.71","velocity":0.3464566929133858,"duration":"0.09"},{"name":"C3","midi":48,"time":"191.85","velocity":0.6141732283464567,"duration":"0.09"},{"name":"C4","midi":60,"time":"191.85","velocity":0.6141732283464567,"duration":"0.09"},{"name":"D4","midi":62,"time":"191.87","velocity":0.6141732283464567,"duration":"0.09"},{"name":"F3","midi":53,"time":"191.97","velocity":0.48031496062992124,"duration":"0.09"},{"name":"A3","midi":57,"time":"192.00","velocity":0.48031496062992124,"duration":"0.09"},{"name":"C4","midi":60,"time":"192.02","velocity":0.48031496062992124,"duration":"0.09"},{"name":"F4","midi":65,"time":"192.04","velocity":0.48031496062992124,"duration":"0.09"},{"name":"F3","midi":53,"time":"192.29","velocity":0.3543307086614173,"duration":"0.09"},{"name":"A3","midi":57,"time":"192.31","velocity":0.3543307086614173,"duration":"0.09"},{"name":"C4","midi":60,"time":"192.32","velocity":0.3543307086614173,"duration":"0.09"},{"name":"F3","midi":53,"time":"192.57","velocity":0.48031496062992124,"duration":"0.09"},{"name":"A#3","midi":58,"time":"192.60","velocity":0.48031496062992124,"duration":"0.09"},{"name":"C4","midi":60,"time":"192.60","velocity":0.48031496062992124,"duration":"0.09"},{"name":"C5","midi":72,"time":"192.62","velocity":0.48031496062992124,"duration":"0.09"},{"name":"F4","midi":65,"time":"192.62","velocity":0.48031496062992124,"duration":"0.09"},{"name":"F3","midi":53,"time":"192.88","velocity":0.36220472440944884,"duration":"0.09"},{"name":"A#3","midi":58,"time":"192.89","velocity":0.36220472440944884,"duration":"0.09"},{"name":"C4","midi":60,"time":"192.91","velocity":0.36220472440944884,"duration":"0.09"},{"name":"C5","midi":72,"time":"192.92","velocity":0.48031496062992124,"duration":"0.09"},{"name":"F3","midi":53,"time":"193.20","velocity":0.48031496062992124,"duration":"0.09"},{"name":"A3","midi":57,"time":"193.21","velocity":0.48031496062992124,"duration":"0.09"},{"name":"C4","midi":60,"time":"193.23","velocity":0.48031496062992124,"duration":"0.09"},{"name":"F4","midi":65,"time":"193.25","velocity":0.48031496062992124,"duration":"0.09"},{"name":"F3","midi":53,"time":"193.50","velocity":0.36220472440944884,"duration":"0.09"},{"name":"A3","midi":57,"time":"193.52","velocity":0.36220472440944884,"duration":"0.09"},{"name":"C4","midi":60,"time":"193.53","velocity":0.3700787401574803,"duration":"0.09"},{"name":"F3","midi":53,"time":"193.78","velocity":0.48031496062992124,"duration":"0.09"},{"name":"A#3","midi":58,"time":"193.80","velocity":0.48031496062992124,"duration":"0.09"},{"name":"C4","midi":60,"time":"193.81","velocity":0.48031496062992124,"duration":"0.09"},{"name":"F4","midi":65,"time":"193.83","velocity":0.48031496062992124,"duration":"0.09"},{"name":"F3","midi":53,"time":"194.09","velocity":0.4645669291338583,"duration":"0.09"},{"name":"A3","midi":57,"time":"194.10","velocity":0.4645669291338583,"duration":"0.09"},{"name":"C4","midi":60,"time":"194.12","velocity":0.4645669291338583,"duration":"0.09"},{"name":"F3","midi":53,"time":"194.25","velocity":0.4645669291338583,"duration":"0.09"},{"name":"A3","midi":57,"time":"194.26","velocity":0.4645669291338583,"duration":"0.09"},{"name":"C4","midi":60,"time":"194.28","velocity":0.4645669291338583,"duration":"0.09"},{"name":"F3","midi":53,"time":"194.38","velocity":0.48031496062992124,"duration":"0.09"},{"name":"A3","midi":57,"time":"194.40","velocity":0.48031496062992124,"duration":"0.09"},{"name":"C4","midi":60,"time":"194.41","velocity":0.48031496062992124,"duration":"0.09"},{"name":"F4","midi":65,"time":"194.43","velocity":0.48031496062992124,"duration":"0.09"},{"name":"F3","midi":53,"time":"194.69","velocity":0.3543307086614173,"duration":"0.09"},{"name":"A3","midi":57,"time":"194.70","velocity":0.3543307086614173,"duration":"0.09"},{"name":"C4","midi":60,"time":"194.72","velocity":0.3543307086614173,"duration":"0.09"},{"name":"F3","midi":53,"time":"194.97","velocity":0.48031496062992124,"duration":"0.09"},{"name":"A#3","midi":58,"time":"194.98","velocity":0.48031496062992124,"duration":"0.09"},{"name":"C4","midi":60,"time":"195.00","velocity":0.48031496062992124,"duration":"0.09"},{"name":"F4","midi":65,"time":"195.02","velocity":0.48031496062992124,"duration":"0.09"},{"name":"F3","midi":53,"time":"195.27","velocity":0.36220472440944884,"duration":"0.09"},{"name":"A3","midi":57,"time":"195.29","velocity":0.36220472440944884,"duration":"0.09"},{"name":"C4","midi":60,"time":"195.30","velocity":0.36220472440944884,"duration":"0.09"},{"name":"F3","midi":53,"time":"195.59","velocity":0.48031496062992124,"duration":"0.09"},{"name":"A3","midi":57,"time":"195.61","velocity":0.48031496062992124,"duration":"0.09"},{"name":"C4","midi":60,"time":"195.62","velocity":0.48031496062992124,"duration":"0.09"},{"name":"F4","midi":65,"time":"195.64","velocity":0.48031496062992124,"duration":"0.09"},{"name":"F3","midi":53,"time":"195.90","velocity":0.36220472440944884,"duration":"0.09"},{"name":"A3","midi":57,"time":"195.91","velocity":0.36220472440944884,"duration":"0.09"},{"name":"C4","midi":60,"time":"195.93","velocity":0.3700787401574803,"duration":"0.09"},{"name":"F3","midi":53,"time":"196.04","velocity":0.3464566929133858,"duration":"0.09"},{"name":"A3","midi":57,"time":"196.06","velocity":0.3464566929133858,"duration":"0.09"},{"name":"C4","midi":60,"time":"196.07","velocity":0.3464566929133858,"duration":"0.09"},{"name":"F3","midi":53,"time":"196.18","velocity":0.48031496062992124,"duration":"0.09"},{"name":"A#3","midi":58,"time":"196.19","velocity":0.48031496062992124,"duration":"0.09"},{"name":"C4","midi":60,"time":"196.21","velocity":0.48031496062992124,"duration":"0.09"},{"name":"F4","midi":65,"time":"196.23","velocity":0.48031496062992124,"duration":"0.09"},{"name":"F3","midi":53,"time":"196.48","velocity":0.3464566929133858,"duration":"0.09"},{"name":"A3","midi":57,"time":"196.50","velocity":0.3464566929133858,"duration":"0.09"},{"name":"C4","midi":60,"time":"196.51","velocity":0.3464566929133858,"duration":"0.09"},{"name":"F3","midi":53,"time":"196.65","velocity":0.3464566929133858,"duration":"0.09"},{"name":"A3","midi":57,"time":"196.66","velocity":0.3464566929133858,"duration":"0.09"},{"name":"C4","midi":60,"time":"196.68","velocity":0.3464566929133858,"duration":"0.09"},{"name":"A3","midi":57,"time":"196.80","velocity":0.48031496062992124,"duration":"0.09"},{"name":"D4","midi":62,"time":"196.82","velocity":0.48031496062992124,"duration":"0.09"},{"name":"F4","midi":65,"time":"196.82","velocity":0.48031496062992124,"duration":"0.09"},{"name":"A4","midi":69,"time":"196.83","velocity":0.48031496062992124,"duration":"0.09"},{"name":"D3","midi":50,"time":"197.10","velocity":0.3543307086614173,"duration":"0.09"},{"name":"A3","midi":57,"time":"197.10","velocity":0.3543307086614173,"duration":"0.09"},{"name":"D4","midi":62,"time":"197.12","velocity":0.3543307086614173,"duration":"0.09"},{"name":"D3","midi":50,"time":"197.38","velocity":0.48031496062992124,"duration":"0.09"},{"name":"A3","midi":57,"time":"197.38","velocity":0.48031496062992124,"duration":"0.09"},{"name":"F4","midi":65,"time":"197.39","velocity":0.48031496062992124,"duration":"0.09"},{"name":"D4","midi":62,"time":"197.40","velocity":0.48031496062992124,"duration":"0.09"},{"name":"A4","midi":69,"time":"197.42","velocity":0.48031496062992124,"duration":"0.09"},{"name":"D3","midi":50,"time":"197.68","velocity":0.36220472440944884,"duration":"0.09"},{"name":"A3","midi":57,"time":"197.69","velocity":0.36220472440944884,"duration":"0.09"},{"name":"D4","midi":62,"time":"197.71","velocity":0.36220472440944884,"duration":"0.09"},{"name":"D3","midi":50,"time":"198.00","velocity":0.48031496062992124,"duration":"0.09"},{"name":"A3","midi":57,"time":"198.01","velocity":0.48031496062992124,"duration":"0.09"},{"name":"F4","midi":65,"time":"198.02","velocity":0.48031496062992124,"duration":"0.09"},{"name":"D4","midi":62,"time":"198.03","velocity":0.48031496062992124,"duration":"0.09"},{"name":"A4","midi":69,"time":"198.04","velocity":0.48031496062992124,"duration":"0.09"},{"name":"D3","midi":50,"time":"198.31","velocity":0.36220472440944884,"duration":"0.09"},{"name":"A3","midi":57,"time":"198.31","velocity":0.36220472440944884,"duration":"0.09"},{"name":"D4","midi":62,"time":"198.33","velocity":0.3700787401574803,"duration":"0.09"},{"name":"D3","midi":50,"time":"198.59","velocity":0.48031496062992124,"duration":"0.09"},{"name":"A3","midi":57,"time":"198.59","velocity":0.48031496062992124,"duration":"0.09"},{"name":"D4","midi":62,"time":"198.61","velocity":0.48031496062992124,"duration":"0.09"},{"name":"A4","midi":69,"time":"198.63","velocity":0.48031496062992124,"duration":"0.09"},{"name":"F4","midi":65,"time":"198.63","velocity":0.48031496062992124,"duration":"0.09"},{"name":"D3","midi":50,"time":"198.89","velocity":0.3464566929133858,"duration":"0.09"},{"name":"A3","midi":57,"time":"198.90","velocity":0.3464566929133858,"duration":"0.09"},{"name":"D4","midi":62,"time":"198.92","velocity":0.3464566929133858,"duration":"0.09"},{"name":"D3","midi":50,"time":"199.05","velocity":0.6220472440944882,"duration":"0.09"},{"name":"A3","midi":57,"time":"199.06","velocity":0.6220472440944882,"duration":"0.09"},{"name":"D4","midi":62,"time":"199.08","velocity":0.6220472440944882,"duration":"0.09"},{"name":"A#3","midi":58,"time":"199.19","velocity":0.48031496062992124,"duration":"0.09"},{"name":"A#2","midi":46,"time":"199.19","velocity":0.48031496062992124,"duration":"0.09"},{"name":"D4","midi":62,"time":"199.21","velocity":0.48031496062992124,"duration":"0.09"},{"name":"F4","midi":65,"time":"199.22","velocity":0.48031496062992124,"duration":"0.09"},{"name":"A#4","midi":70,"time":"199.23","velocity":0.48031496062992124,"duration":"0.09"},{"name":"A#3","midi":58,"time":"199.50","velocity":0.3543307086614173,"duration":"0.09"},{"name":"A#2","midi":46,"time":"199.50","velocity":0.3543307086614173,"duration":"0.09"},{"name":"D4","midi":62,"time":"199.52","velocity":0.3543307086614173,"duration":"0.09"},{"name":"A#2","midi":46,"time":"199.78","velocity":0.48031496062992124,"duration":"0.09"},{"name":"A#3","midi":58,"time":"199.78","velocity":0.48031496062992124,"duration":"0.09"},{"name":"F4","midi":65,"time":"199.79","velocity":0.48031496062992124,"duration":"0.09"},{"name":"D4","midi":62,"time":"199.80","velocity":0.48031496062992124,"duration":"0.09"},{"name":"A#4","midi":70,"time":"199.81","velocity":0.48031496062992124,"duration":"0.09"},{"name":"A#3","midi":58,"time":"200.08","velocity":0.36220472440944884,"duration":"0.09"},{"name":"A#2","midi":46,"time":"200.08","velocity":0.36220472440944884,"duration":"0.09"},{"name":"D4","midi":62,"time":"200.10","velocity":0.36220472440944884,"duration":"0.09"},{"name":"A#3","midi":58,"time":"200.40","velocity":0.48031496062992124,"duration":"0.09"},{"name":"A#2","midi":46,"time":"200.40","velocity":0.48031496062992124,"duration":"0.09"},{"name":"F4","midi":65,"time":"200.42","velocity":0.48031496062992124,"duration":"0.09"},{"name":"D4","midi":62,"time":"200.42","velocity":0.48031496062992124,"duration":"0.09"},{"name":"A#4","midi":70,"time":"200.44","velocity":0.48031496062992124,"duration":"0.09"},{"name":"A#2","midi":46,"time":"200.71","velocity":0.36220472440944884,"duration":"0.09"},{"name":"A#3","midi":58,"time":"200.71","velocity":0.36220472440944884,"duration":"0.09"},{"name":"D4","midi":62,"time":"200.73","velocity":0.3700787401574803,"duration":"0.09"},{"name":"A#3","midi":58,"time":"200.99","velocity":0.48031496062992124,"duration":"0.09"},{"name":"A#2","midi":46,"time":"200.99","velocity":0.48031496062992124,"duration":"0.09"},{"name":"D4","midi":62,"time":"201.01","velocity":0.48031496062992124,"duration":"0.09"},{"name":"A#4","midi":70,"time":"201.02","velocity":0.48031496062992124,"duration":"0.09"},{"name":"F4","midi":65,"time":"201.03","velocity":0.48031496062992124,"duration":"0.09"},{"name":"A#3","midi":58,"time":"201.29","velocity":0.3464566929133858,"duration":"0.09"},{"name":"A#2","midi":46,"time":"201.29","velocity":0.3464566929133858,"duration":"0.09"},{"name":"D4","midi":62,"time":"201.31","velocity":0.3464566929133858,"duration":"0.09"},{"name":"C3","midi":48,"time":"201.45","velocity":0.6141732283464567,"duration":"0.09"},{"name":"C4","midi":60,"time":"201.45","velocity":0.6141732283464567,"duration":"0.09"},{"name":"D4","midi":62,"time":"201.47","velocity":0.6141732283464567,"duration":"0.09"},{"name":"F3","midi":53,"time":"201.57","velocity":0.48031496062992124,"duration":"0.09"},{"name":"A3","midi":57,"time":"201.60","velocity":0.48031496062992124,"duration":"0.09"},{"name":"C4","midi":60,"time":"201.62","velocity":0.48031496062992124,"duration":"0.09"},{"name":"F4","midi":65,"time":"201.64","velocity":0.48031496062992124,"duration":"0.09"},{"name":"F3","midi":53,"time":"201.89","velocity":0.3543307086614173,"duration":"0.09"},{"name":"A3","midi":57,"time":"201.91","velocity":0.3543307086614173,"duration":"0.09"},{"name":"C4","midi":60,"time":"201.92","velocity":0.3543307086614173,"duration":"0.09"},{"name":"F3","midi":53,"time":"202.17","velocity":0.48031496062992124,"duration":"0.09"},{"name":"A#3","midi":58,"time":"202.20","velocity":0.48031496062992124,"duration":"0.09"},{"name":"C4","midi":60,"time":"202.20","velocity":0.48031496062992124,"duration":"0.09"},{"name":"C5","midi":72,"time":"202.22","velocity":0.48031496062992124,"duration":"0.09"},{"name":"F4","midi":65,"time":"202.22","velocity":0.48031496062992124,"duration":"0.09"},{"name":"F3","midi":53,"time":"202.48","velocity":0.36220472440944884,"duration":"0.09"},{"name":"A#3","midi":58,"time":"202.49","velocity":0.36220472440944884,"duration":"0.09"},{"name":"C4","midi":60,"time":"202.51","velocity":0.36220472440944884,"duration":"0.09"},{"name":"C5","midi":72,"time":"202.52","velocity":0.48031496062992124,"duration":"0.09"},{"name":"F3","midi":53,"time":"202.80","velocity":0.48031496062992124,"duration":"0.09"},{"name":"A3","midi":57,"time":"202.81","velocity":0.48031496062992124,"duration":"0.09"},{"name":"C4","midi":60,"time":"202.83","velocity":0.48031496062992124,"duration":"0.09"},{"name":"F4","midi":65,"time":"202.85","velocity":0.48031496062992124,"duration":"0.09"},{"name":"F3","midi":53,"time":"203.10","velocity":0.36220472440944884,"duration":"0.09"},{"name":"A3","midi":57,"time":"203.12","velocity":0.36220472440944884,"duration":"0.09"},{"name":"C4","midi":60,"time":"203.13","velocity":0.3700787401574803,"duration":"0.09"},{"name":"F3","midi":53,"time":"203.38","velocity":0.48031496062992124,"duration":"0.09"},{"name":"A#3","midi":58,"time":"203.40","velocity":0.48031496062992124,"duration":"0.09"},{"name":"C4","midi":60,"time":"203.41","velocity":0.48031496062992124,"duration":"0.09"},{"name":"F4","midi":65,"time":"203.43","velocity":0.48031496062992124,"duration":"0.09"},{"name":"F3","midi":53,"time":"203.69","velocity":0.4645669291338583,"duration":"0.09"},{"name":"A3","midi":57,"time":"203.70","velocity":0.4645669291338583,"duration":"0.09"},{"name":"C4","midi":60,"time":"203.72","velocity":0.4645669291338583,"duration":"0.09"},{"name":"F3","midi":53,"time":"203.85","velocity":0.4645669291338583,"duration":"0.09"},{"name":"A3","midi":57,"time":"203.86","velocity":0.4645669291338583,"duration":"0.09"},{"name":"C4","midi":60,"time":"203.88","velocity":0.4645669291338583,"duration":"0.09"},{"name":"F3","midi":53,"time":"203.98","velocity":0.48031496062992124,"duration":"0.09"},{"name":"A3","midi":57,"time":"204.00","velocity":0.48031496062992124,"duration":"0.09"},{"name":"C4","midi":60,"time":"204.01","velocity":0.48031496062992124,"duration":"0.09"},{"name":"F4","midi":65,"time":"204.03","velocity":0.48031496062992124,"duration":"0.09"},{"name":"F3","midi":53,"time":"204.29","velocity":0.3543307086614173,"duration":"0.09"},{"name":"A3","midi":57,"time":"204.30","velocity":0.3543307086614173,"duration":"0.09"},{"name":"C4","midi":60,"time":"204.32","velocity":0.3543307086614173,"duration":"0.09"},{"name":"F3","midi":53,"time":"204.57","velocity":0.48031496062992124,"duration":"0.09"},{"name":"A#3","midi":58,"time":"204.58","velocity":0.48031496062992124,"duration":"0.09"},{"name":"C4","midi":60,"time":"204.60","velocity":0.48031496062992124,"duration":"0.09"},{"name":"F4","midi":65,"time":"204.62","velocity":0.48031496062992124,"duration":"0.09"},{"name":"F3","midi":53,"time":"204.87","velocity":0.36220472440944884,"duration":"0.09"},{"name":"A3","midi":57,"time":"204.89","velocity":0.36220472440944884,"duration":"0.09"},{"name":"C4","midi":60,"time":"204.90","velocity":0.36220472440944884,"duration":"0.09"},{"name":"F3","midi":53,"time":"205.19","velocity":0.48031496062992124,"duration":"0.09"},{"name":"A3","midi":57,"time":"205.21","velocity":0.48031496062992124,"duration":"0.09"},{"name":"C4","midi":60,"time":"205.22","velocity":0.48031496062992124,"duration":"0.09"},{"name":"F4","midi":65,"time":"205.24","velocity":0.48031496062992124,"duration":"0.09"},{"name":"F3","midi":53,"time":"205.50","velocity":0.36220472440944884,"duration":"0.09"},{"name":"A3","midi":57,"time":"205.51","velocity":0.36220472440944884,"duration":"0.09"},{"name":"C4","midi":60,"time":"205.53","velocity":0.3700787401574803,"duration":"0.09"},{"name":"F3","midi":53,"time":"205.64","velocity":0.3464566929133858,"duration":"0.09"},{"name":"A3","midi":57,"time":"205.66","velocity":0.3464566929133858,"duration":"0.09"},{"name":"C4","midi":60,"time":"205.67","velocity":0.3464566929133858,"duration":"0.09"},{"name":"F3","midi":53,"time":"205.78","velocity":0.48031496062992124,"duration":"0.09"},{"name":"A#3","midi":58,"time":"205.79","velocity":0.48031496062992124,"duration":"0.09"},{"name":"C4","midi":60,"time":"205.81","velocity":0.48031496062992124,"duration":"0.09"},{"name":"F4","midi":65,"time":"205.83","velocity":0.48031496062992124,"duration":"0.09"},{"name":"F3","midi":53,"time":"206.08","velocity":0.3464566929133858,"duration":"0.09"},{"name":"A3","midi":57,"time":"206.10","velocity":0.3464566929133858,"duration":"0.09"},{"name":"C4","midi":60,"time":"206.11","velocity":0.3464566929133858,"duration":"0.09"},{"name":"F3","midi":53,"time":"206.25","velocity":0.3464566929133858,"duration":"0.09"},{"name":"A3","midi":57,"time":"206.26","velocity":0.3464566929133858,"duration":"0.09"},{"name":"C4","midi":60,"time":"206.28","velocity":0.3464566929133858,"duration":"0.09"},{"name":"A3","midi":57,"time":"206.40","velocity":0.48031496062992124,"duration":"0.09"},{"name":"D4","midi":62,"time":"206.42","velocity":0.48031496062992124,"duration":"0.09"},{"name":"F4","midi":65,"time":"206.42","velocity":0.48031496062992124,"duration":"0.09"},{"name":"A4","midi":69,"time":"206.43","velocity":0.48031496062992124,"duration":"0.09"},{"name":"D3","midi":50,"time":"206.70","velocity":0.3543307086614173,"duration":"0.09"},{"name":"A3","midi":57,"time":"206.70","velocity":0.3543307086614173,"duration":"0.09"},{"name":"D4","midi":62,"time":"206.72","velocity":0.3543307086614173,"duration":"0.09"},{"name":"D3","midi":50,"time":"206.98","velocity":0.48031496062992124,"duration":"0.09"},{"name":"A3","midi":57,"time":"206.98","velocity":0.48031496062992124,"duration":"0.09"},{"name":"F4","midi":65,"time":"206.99","velocity":0.48031496062992124,"duration":"0.09"},{"name":"D4","midi":62,"time":"207.00","velocity":0.48031496062992124,"duration":"0.09"},{"name":"A4","midi":69,"time":"207.02","velocity":0.48031496062992124,"duration":"0.09"},{"name":"D3","midi":50,"time":"207.28","velocity":0.36220472440944884,"duration":"0.09"},{"name":"A3","midi":57,"time":"207.29","velocity":0.36220472440944884,"duration":"0.09"},{"name":"D4","midi":62,"time":"207.31","velocity":0.36220472440944884,"duration":"0.09"},{"name":"D3","midi":50,"time":"207.60","velocity":0.48031496062992124,"duration":"0.09"},{"name":"A3","midi":57,"time":"207.61","velocity":0.48031496062992124,"duration":"0.09"},{"name":"F4","midi":65,"time":"207.62","velocity":0.48031496062992124,"duration":"0.09"},{"name":"D4","midi":62,"time":"207.63","velocity":0.48031496062992124,"duration":"0.09"},{"name":"A4","midi":69,"time":"207.64","velocity":0.48031496062992124,"duration":"0.09"},{"name":"D3","midi":50,"time":"207.91","velocity":0.36220472440944884,"duration":"0.09"},{"name":"A3","midi":57,"time":"207.91","velocity":0.36220472440944884,"duration":"0.09"},{"name":"D4","midi":62,"time":"207.93","velocity":0.3700787401574803,"duration":"0.09"},{"name":"D3","midi":50,"time":"208.19","velocity":0.48031496062992124,"duration":"0.09"},{"name":"A3","midi":57,"time":"208.19","velocity":0.48031496062992124,"duration":"0.09"},{"name":"D4","midi":62,"time":"208.21","velocity":0.48031496062992124,"duration":"0.09"},{"name":"A4","midi":69,"time":"208.23","velocity":0.48031496062992124,"duration":"0.09"},{"name":"F4","midi":65,"time":"208.23","velocity":0.48031496062992124,"duration":"0.09"},{"name":"D3","midi":50,"time":"208.49","velocity":0.3464566929133858,"duration":"0.09"},{"name":"A3","midi":57,"time":"208.50","velocity":0.3464566929133858,"duration":"0.09"},{"name":"D4","midi":62,"time":"208.52","velocity":0.3464566929133858,"duration":"0.09"},{"name":"D3","midi":50,"time":"208.65","velocity":0.6220472440944882,"duration":"0.09"},{"name":"A3","midi":57,"time":"208.66","velocity":0.6220472440944882,"duration":"0.09"},{"name":"D4","midi":62,"time":"208.68","velocity":0.6220472440944882,"duration":"0.09"},{"name":"A#3","midi":58,"time":"208.79","velocity":0.48031496062992124,"duration":"0.09"},{"name":"A#2","midi":46,"time":"208.79","velocity":0.48031496062992124,"duration":"0.09"},{"name":"D4","midi":62,"time":"208.81","velocity":0.48031496062992124,"duration":"0.09"},{"name":"F4","midi":65,"time":"208.82","velocity":0.48031496062992124,"duration":"0.09"},{"name":"A#4","midi":70,"time":"208.83","velocity":0.48031496062992124,"duration":"0.09"},{"name":"A#3","midi":58,"time":"209.10","velocity":0.3543307086614173,"duration":"0.09"},{"name":"A#2","midi":46,"time":"209.10","velocity":0.3543307086614173,"duration":"0.09"},{"name":"D4","midi":62,"time":"209.12","velocity":0.3543307086614173,"duration":"0.09"},{"name":"A#2","midi":46,"time":"209.38","velocity":0.48031496062992124,"duration":"0.09"},{"name":"A#3","midi":58,"time":"209.38","velocity":0.48031496062992124,"duration":"0.09"},{"name":"F4","midi":65,"time":"209.39","velocity":0.48031496062992124,"duration":"0.09"},{"name":"D4","midi":62,"time":"209.40","velocity":0.48031496062992124,"duration":"0.09"},{"name":"A#4","midi":70,"time":"209.41","velocity":0.48031496062992124,"duration":"0.09"},{"name":"A#3","midi":58,"time":"209.68","velocity":0.36220472440944884,"duration":"0.09"},{"name":"A#2","midi":46,"time":"209.68","velocity":0.36220472440944884,"duration":"0.09"},{"name":"D4","midi":62,"time":"209.70","velocity":0.36220472440944884,"duration":"0.09"},{"name":"A#3","midi":58,"time":"210.00","velocity":0.48031496062992124,"duration":"0.09"},{"name":"A#2","midi":46,"time":"210.00","velocity":0.48031496062992124,"duration":"0.09"},{"name":"F4","midi":65,"time":"210.02","velocity":0.48031496062992124,"duration":"0.09"},{"name":"D4","midi":62,"time":"210.02","velocity":0.48031496062992124,"duration":"0.09"},{"name":"A#4","midi":70,"time":"210.04","velocity":0.48031496062992124,"duration":"0.09"},{"name":"A#2","midi":46,"time":"210.31","velocity":0.36220472440944884,"duration":"0.09"},{"name":"A#3","midi":58,"time":"210.31","velocity":0.36220472440944884,"duration":"0.09"},{"name":"D4","midi":62,"time":"210.33","velocity":0.3700787401574803,"duration":"0.09"},{"name":"A#3","midi":58,"time":"210.59","velocity":0.48031496062992124,"duration":"0.09"},{"name":"A#2","midi":46,"time":"210.59","velocity":0.48031496062992124,"duration":"0.09"},{"name":"D4","midi":62,"time":"210.61","velocity":0.48031496062992124,"duration":"0.09"},{"name":"A#4","midi":70,"time":"210.62","velocity":0.48031496062992124,"duration":"0.09"},{"name":"F4","midi":65,"time":"210.63","velocity":0.48031496062992124,"duration":"0.09"},{"name":"A#3","midi":58,"time":"210.89","velocity":0.3464566929133858,"duration":"0.09"},{"name":"A#2","midi":46,"time":"210.89","velocity":0.3464566929133858,"duration":"0.09"},{"name":"D4","midi":62,"time":"210.91","velocity":0.3464566929133858,"duration":"0.09"},{"name":"C3","midi":48,"time":"211.05","velocity":0.6141732283464567,"duration":"0.09"},{"name":"C4","midi":60,"time":"211.05","velocity":0.6141732283464567,"duration":"0.09"},{"name":"D4","midi":62,"time":"211.07","velocity":0.6141732283464567,"duration":"0.09"},{"name":"F3","midi":53,"time":"211.17","velocity":0.48031496062992124,"duration":"0.09"},{"name":"A3","midi":57,"time":"211.20","velocity":0.48031496062992124,"duration":"0.09"},{"name":"C4","midi":60,"time":"211.22","velocity":0.48031496062992124,"duration":"0.09"},{"name":"F4","midi":65,"time":"211.24","velocity":0.48031496062992124,"duration":"0.09"},{"name":"F3","midi":53,"time":"211.49","velocity":0.3543307086614173,"duration":"0.09"},{"name":"A3","midi":57,"time":"211.51","velocity":0.3543307086614173,"duration":"0.09"},{"name":"C4","midi":60,"time":"211.52","velocity":0.3543307086614173,"duration":"0.09"},{"name":"F3","midi":53,"time":"211.77","velocity":0.48031496062992124,"duration":"0.09"},{"name":"A#3","midi":58,"time":"211.80","velocity":0.48031496062992124,"duration":"0.09"},{"name":"C4","midi":60,"time":"211.80","velocity":0.48031496062992124,"duration":"0.09"},{"name":"C5","midi":72,"time":"211.82","velocity":0.48031496062992124,"duration":"0.09"},{"name":"F4","midi":65,"time":"211.82","velocity":0.48031496062992124,"duration":"0.09"},{"name":"F3","midi":53,"time":"212.08","velocity":0.36220472440944884,"duration":"0.09"},{"name":"A#3","midi":58,"time":"212.09","velocity":0.36220472440944884,"duration":"0.09"},{"name":"C4","midi":60,"time":"212.11","velocity":0.36220472440944884,"duration":"0.09"},{"name":"C5","midi":72,"time":"212.12","velocity":0.48031496062992124,"duration":"0.09"},{"name":"F3","midi":53,"time":"212.40","velocity":0.48031496062992124,"duration":"0.09"},{"name":"A3","midi":57,"time":"212.41","velocity":0.48031496062992124,"duration":"0.09"},{"name":"C4","midi":60,"time":"212.43","velocity":0.48031496062992124,"duration":"0.09"},{"name":"F4","midi":65,"time":"212.45","velocity":0.48031496062992124,"duration":"0.09"},{"name":"F3","midi":53,"time":"212.70","velocity":0.36220472440944884,"duration":"0.09"},{"name":"A3","midi":57,"time":"212.72","velocity":0.36220472440944884,"duration":"0.09"},{"name":"C4","midi":60,"time":"212.73","velocity":0.3700787401574803,"duration":"0.09"},{"name":"F3","midi":53,"time":"212.98","velocity":0.48031496062992124,"duration":"0.09"},{"name":"A#3","midi":58,"time":"213.00","velocity":0.48031496062992124,"duration":"0.09"},{"name":"C4","midi":60,"time":"213.01","velocity":0.48031496062992124,"duration":"0.09"},{"name":"F4","midi":65,"time":"213.03","velocity":0.48031496062992124,"duration":"0.09"},{"name":"F3","midi":53,"time":"213.29","velocity":0.4645669291338583,"duration":"0.09"},{"name":"A3","midi":57,"time":"213.30","velocity":0.4645669291338583,"duration":"0.09"},{"name":"C4","midi":60,"time":"213.32","velocity":0.4645669291338583,"duration":"0.09"},{"name":"F3","midi":53,"time":"213.45","velocity":0.4645669291338583,"duration":"0.09"},{"name":"A3","midi":57,"time":"213.46","velocity":0.4645669291338583,"duration":"0.09"},{"name":"C4","midi":60,"time":"213.48","velocity":0.4645669291338583,"duration":"0.09"},{"name":"F3","midi":53,"time":"213.58","velocity":0.48031496062992124,"duration":"0.09"},{"name":"A3","midi":57,"time":"213.60","velocity":0.48031496062992124,"duration":"0.09"},{"name":"C4","midi":60,"time":"213.61","velocity":0.48031496062992124,"duration":"0.09"},{"name":"F4","midi":65,"time":"213.63","velocity":0.48031496062992124,"duration":"0.09"},{"name":"F3","midi":53,"time":"213.89","velocity":0.3543307086614173,"duration":"0.09"},{"name":"A3","midi":57,"time":"213.90","velocity":0.3543307086614173,"duration":"0.09"},{"name":"C4","midi":60,"time":"213.92","velocity":0.3543307086614173,"duration":"0.09"},{"name":"F3","midi":53,"time":"214.17","velocity":0.48031496062992124,"duration":"0.09"},{"name":"A#3","midi":58,"time":"214.18","velocity":0.48031496062992124,"duration":"0.09"},{"name":"C4","midi":60,"time":"214.20","velocity":0.48031496062992124,"duration":"0.09"},{"name":"F4","midi":65,"time":"214.22","velocity":0.48031496062992124,"duration":"0.09"},{"name":"F3","midi":53,"time":"214.47","velocity":0.36220472440944884,"duration":"0.09"},{"name":"A3","midi":57,"time":"214.49","velocity":0.36220472440944884,"duration":"0.09"},{"name":"C4","midi":60,"time":"214.50","velocity":0.36220472440944884,"duration":"0.09"},{"name":"F3","midi":53,"time":"214.79","velocity":0.48031496062992124,"duration":"0.09"},{"name":"A3","midi":57,"time":"214.81","velocity":0.48031496062992124,"duration":"0.09"},{"name":"C4","midi":60,"time":"214.82","velocity":0.48031496062992124,"duration":"0.09"},{"name":"F4","midi":65,"time":"214.84","velocity":0.48031496062992124,"duration":"0.09"},{"name":"F3","midi":53,"time":"215.10","velocity":0.36220472440944884,"duration":"0.09"},{"name":"A3","midi":57,"time":"215.11","velocity":0.36220472440944884,"duration":"0.09"},{"name":"C4","midi":60,"time":"215.13","velocity":0.3700787401574803,"duration":"0.09"},{"name":"F3","midi":53,"time":"215.24","velocity":0.3464566929133858,"duration":"0.09"},{"name":"A3","midi":57,"time":"215.26","velocity":0.3464566929133858,"duration":"0.09"},{"name":"C4","midi":60,"time":"215.27","velocity":0.3464566929133858,"duration":"0.09"},{"name":"F3","midi":53,"time":"215.38","velocity":0.48031496062992124,"duration":"0.09"},{"name":"A#3","midi":58,"time":"215.39","velocity":0.48031496062992124,"duration":"0.09"},{"name":"C4","midi":60,"time":"215.41","velocity":0.48031496062992124,"duration":"0.09"},{"name":"F4","midi":65,"time":"215.43","velocity":0.48031496062992124,"duration":"0.09"},{"name":"F3","midi":53,"time":"215.68","velocity":0.3464566929133858,"duration":"0.09"},{"name":"A3","midi":57,"time":"215.70","velocity":0.3464566929133858,"duration":"0.09"},{"name":"C4","midi":60,"time":"215.71","velocity":0.3464566929133858,"duration":"0.09"},{"name":"F3","midi":53,"time":"215.85","velocity":0.5275590551181102,"duration":"0.09"},{"name":"A3","midi":57,"time":"215.86","velocity":0.5275590551181102,"duration":"0.09"},{"name":"C4","midi":60,"time":"215.88","velocity":0.5275590551181102,"duration":"0.09"},{"name":"D3","midi":50,"time":"215.97","velocity":0.3464566929133858,"duration":"0.09"},{"name":"A3","midi":57,"time":"216.00","velocity":0.3464566929133858,"duration":"0.09"},{"name":"D4","midi":62,"time":"216.02","velocity":0.3464566929133858,"duration":"0.09"},{"name":"F4","midi":65,"time":"216.02","velocity":0.3464566929133858,"duration":"0.09"},{"name":"A4","midi":69,"time":"216.03","velocity":0.3464566929133858,"duration":"0.09"},{"name":"D3","midi":50,"time":"216.58","velocity":0.36220472440944884,"duration":"0.09"},{"name":"A3","midi":57,"time":"216.58","velocity":0.36220472440944884,"duration":"0.09"},{"name":"F4","midi":65,"time":"216.59","velocity":0.36220472440944884,"duration":"0.09"},{"name":"D4","midi":62,"time":"216.60","velocity":0.36220472440944884,"duration":"0.09"},{"name":"A4","midi":69,"time":"216.62","velocity":0.36220472440944884,"duration":"0.09"},{"name":"D3","midi":50,"time":"216.88","velocity":0.41732283464566927,"duration":"0.09"},{"name":"A3","midi":57,"time":"216.88","velocity":0.41732283464566927,"duration":"0.09"},{"name":"F4","midi":65,"time":"216.89","velocity":0.41732283464566927,"duration":"0.09"},{"name":"D4","midi":62,"time":"216.90","velocity":0.41732283464566927,"duration":"0.09"},{"name":"A4","midi":69,"time":"216.92","velocity":0.41732283464566927,"duration":"0.09"},{"name":"D3","midi":50,"time":"217.17","velocity":0.3700787401574803,"duration":"0.09"},{"name":"A3","midi":57,"time":"217.18","velocity":0.3700787401574803,"duration":"0.09"},{"name":"F4","midi":65,"time":"217.19","velocity":0.3700787401574803,"duration":"0.09"},{"name":"D4","midi":62,"time":"217.20","velocity":0.3700787401574803,"duration":"0.09"},{"name":"A4","midi":69,"time":"217.21","velocity":0.3700787401574803,"duration":"0.09"},{"name":"D3","midi":50,"time":"217.51","velocity":0.36220472440944884,"duration":"0.09"},{"name":"A3","midi":57,"time":"217.51","velocity":0.36220472440944884,"duration":"0.09"},{"name":"D4","midi":62,"time":"217.53","velocity":0.3700787401574803,"duration":"0.09"},{"name":"D3","midi":50,"time":"217.79","velocity":0.3543307086614173,"duration":"0.09"},{"name":"A3","midi":57,"time":"217.79","velocity":0.3543307086614173,"duration":"0.09"},{"name":"D4","midi":62,"time":"217.81","velocity":0.3543307086614173,"duration":"0.09"},{"name":"A4","midi":69,"time":"217.83","velocity":0.3543307086614173,"duration":"0.09"},{"name":"F4","midi":65,"time":"217.83","velocity":0.3543307086614173,"duration":"0.09"},{"name":"D3","midi":50,"time":"218.09","velocity":0.3464566929133858,"duration":"0.09"},{"name":"A3","midi":57,"time":"218.10","velocity":0.3464566929133858,"duration":"0.09"},{"name":"D4","midi":62,"time":"218.12","velocity":0.3464566929133858,"duration":"0.09"},{"name":"D3","midi":50,"time":"218.25","velocity":0.4251968503937008,"duration":"0.09"},{"name":"A3","midi":57,"time":"218.25","velocity":0.4251968503937008,"duration":"0.09"},{"name":"D4","midi":62,"time":"218.27","velocity":0.4330708661417323,"duration":"0.09"},{"name":"A#3","midi":58,"time":"218.39","velocity":0.3700787401574803,"duration":"0.09"},{"name":"A#2","midi":46,"time":"218.39","velocity":0.3700787401574803,"duration":"0.09"},{"name":"D4","midi":62,"time":"218.41","velocity":0.3700787401574803,"duration":"0.09"},{"name":"F4","midi":65,"time":"218.42","velocity":0.3700787401574803,"duration":"0.09"},{"name":"A#4","midi":70,"time":"218.43","velocity":0.3700787401574803,"duration":"0.09"},{"name":"A#3","midi":58,"time":"218.70","velocity":0.3543307086614173,"duration":"0.09"},{"name":"A#2","midi":46,"time":"218.70","velocity":0.3543307086614173,"duration":"0.09"},{"name":"D4","midi":62,"time":"218.72","velocity":0.3543307086614173,"duration":"0.09"},{"name":"A#2","midi":46,"time":"218.98","velocity":0.3779527559055118,"duration":"0.09"},{"name":"A#3","midi":58,"time":"218.98","velocity":0.3779527559055118,"duration":"0.09"},{"name":"F4","midi":65,"time":"218.99","velocity":0.3779527559055118,"duration":"0.09"},{"name":"D4","midi":62,"time":"219.00","velocity":0.3779527559055118,"duration":"0.09"},{"name":"A#4","midi":70,"time":"219.01","velocity":0.3779527559055118,"duration":"0.09"},{"name":"A#3","midi":58,"time":"219.28","velocity":0.36220472440944884,"duration":"0.09"},{"name":"A#2","midi":46,"time":"219.28","velocity":0.36220472440944884,"duration":"0.09"},{"name":"D4","midi":62,"time":"219.30","velocity":0.36220472440944884,"duration":"0.09"},{"name":"A#3","midi":58,"time":"219.60","velocity":0.3228346456692913,"duration":"0.09"},{"name":"A#2","midi":46,"time":"219.60","velocity":0.3228346456692913,"duration":"0.09"},{"name":"F4","midi":65,"time":"219.62","velocity":0.3228346456692913,"duration":"0.09"},{"name":"D4","midi":62,"time":"219.62","velocity":0.3228346456692913,"duration":"0.09"},{"name":"A#4","midi":70,"time":"219.64","velocity":0.3228346456692913,"duration":"0.09"},{"name":"A#3","midi":58,"time":"219.91","velocity":0.36220472440944884,"duration":"0.09"},{"name":"A#2","midi":46,"time":"219.91","velocity":0.36220472440944884,"duration":"0.09"},{"name":"D4","midi":62,"time":"219.93","velocity":0.3700787401574803,"duration":"0.09"},{"name":"A#2","midi":46,"time":"220.19","velocity":0.36220472440944884,"duration":"0.09"},{"name":"A#3","midi":58,"time":"220.19","velocity":0.36220472440944884,"duration":"0.09"},{"name":"D4","midi":62,"time":"220.21","velocity":0.36220472440944884,"duration":"0.09"},{"name":"A#4","midi":70,"time":"220.22","velocity":0.36220472440944884,"duration":"0.09"},{"name":"F4","midi":65,"time":"220.23","velocity":0.36220472440944884,"duration":"0.09"},{"name":"A#3","midi":58,"time":"220.49","velocity":0.3464566929133858,"duration":"0.09"},{"name":"A#2","midi":46,"time":"220.49","velocity":0.3464566929133858,"duration":"0.09"},{"name":"D4","midi":62,"time":"220.51","velocity":0.3464566929133858,"duration":"0.09"},{"name":"C3","midi":48,"time":"220.65","velocity":0.4015748031496063,"duration":"0.09"},{"name":"C4","midi":60,"time":"220.65","velocity":0.4015748031496063,"duration":"0.09"},{"name":"D4","midi":62,"time":"220.67","velocity":0.4015748031496063,"duration":"0.09"},{"name":"F2","midi":41,"time":"220.75","velocity":0.48031496062992124,"duration":"3.00"},{"name":"F3","midi":53,"time":"220.77","velocity":0.48031496062992124,"duration":"3.00"},{"name":"A3","midi":57,"time":"220.80","velocity":0.48031496062992124,"duration":"2.91"},{"name":"C4","midi":60,"time":"220.82","velocity":0.48031496062992124,"duration":"2.47"},{"name":"F4","midi":65,"time":"220.84","velocity":0.48031496062992124,"duration":"2.44"}]},{"instrumentFamily":"guitar","notes":[{"name":"G3","midi":55,"time":"132.00","velocity":0.4881889763779528,"duration":"0.60"},{"name":"G3","midi":55,"time":"132.60","velocity":0.5118110236220472,"duration":"0.60"},{"name":"C4","midi":60,"time":"133.20","velocity":0.5196850393700787,"duration":"0.60"},{"name":"A#3","midi":58,"time":"133.80","velocity":0.5196850393700787,"duration":"0.60"},{"name":"A3","midi":57,"time":"134.40","velocity":0.4881889763779528,"duration":"0.60"},{"name":"G4","midi":67,"time":"141.60","velocity":0.5433070866141733,"duration":"0.60"},{"name":"G4","midi":67,"time":"142.20","velocity":0.5118110236220472,"duration":"0.60"},{"name":"E4","midi":64,"time":"142.80","velocity":0.5196850393700787,"duration":"0.60"},{"name":"E4","midi":64,"time":"143.40","velocity":0.5196850393700787,"duration":"0.60"},{"name":"G4","midi":67,"time":"151.20","velocity":0.5275590551181102,"duration":"0.60"},{"name":"G4","midi":67,"time":"151.80","velocity":0.5275590551181102,"duration":"0.60"},{"name":"D4","midi":62,"time":"152.40","velocity":0.5275590551181102,"duration":"0.60"},{"name":"D4","midi":62,"time":"153.00","velocity":0.5275590551181102,"duration":"0.60"},{"name":"A#2","midi":46,"time":"153.60","velocity":0.5275590551181102,"duration":"0.60"},{"name":"F3","midi":53,"time":"153.60","velocity":0.5275590551181102,"duration":"0.60"},{"name":"A#3","midi":58,"time":"153.60","velocity":0.5275590551181102,"duration":"0.60"},{"name":"G4","midi":67,"time":"160.80","velocity":0.5275590551181102,"duration":"0.60"},{"name":"G4","midi":67,"time":"161.40","velocity":0.5275590551181102,"duration":"0.60"},{"name":"D4","midi":62,"time":"162.00","velocity":0.5275590551181102,"duration":"0.60"},{"name":"D4","midi":62,"time":"162.60","velocity":0.5275590551181102,"duration":"0.60"},{"name":"C4","midi":60,"time":"165.60","velocity":0.49606299212598426,"duration":"2.39"},{"name":"C3","midi":48,"time":"165.61","velocity":0.49606299212598426,"duration":"2.39"},{"name":"E4","midi":64,"time":"165.61","velocity":0.49606299212598426,"duration":"2.29"},{"name":"G4","midi":67,"time":"165.62","velocity":0.49606299212598426,"duration":"2.29"},{"name":"C4","midi":60,"time":"168.00","velocity":0.5118110236220472,"duration":"0.60"},{"name":"F2","midi":41,"time":"168.00","velocity":0.5118110236220472,"duration":"0.60"},{"name":"F3","midi":53,"time":"169.20","velocity":0.5118110236220472,"duration":"0.60"},{"name":"A3","midi":57,"time":"169.20","velocity":0.5118110236220472,"duration":"0.60"},{"name":"F3","midi":53,"time":"170.40","velocity":0.3700787401574803,"duration":"0.60"},{"name":"A#3","midi":58,"time":"170.40","velocity":0.3700787401574803,"duration":"0.60"},{"name":"D4","midi":62,"time":"170.40","velocity":0.3700787401574803,"duration":"0.60"},{"name":"C4","midi":60,"time":"171.30","velocity":0.3700787401574803,"duration":"0.60"},{"name":"F3","midi":53,"time":"171.30","velocity":0.3700787401574803,"duration":"0.60"},{"name":"D#4","midi":63,"time":"172.20","velocity":0.3700787401574803,"duration":"0.30"},{"name":"D4","midi":62,"time":"172.50","velocity":0.3700787401574803,"duration":"0.30"},{"name":"C4","midi":60,"time":"172.80","velocity":0.48031496062992124,"duration":"0.60"},{"name":"F2","midi":41,"time":"172.80","velocity":0.48031496062992124,"duration":"0.60"},{"name":"F3","midi":53,"time":"174.00","velocity":0.4251968503937008,"duration":"0.60"},{"name":"A3","midi":57,"time":"174.00","velocity":0.4251968503937008,"duration":"0.60"},{"name":"C4","midi":60,"time":"175.20","velocity":0.44881889763779526,"duration":"0.60"},{"name":"F2","midi":41,"time":"175.20","velocity":0.44881889763779526,"duration":"0.60"},{"name":"F3","midi":53,"time":"176.40","velocity":0.4094488188976378,"duration":"0.60"},{"name":"A3","midi":57,"time":"176.40","velocity":0.4094488188976378,"duration":"0.60"},{"name":"A3","midi":57,"time":"177.60","velocity":0.4094488188976378,"duration":"0.30"},{"name":"A3","midi":57,"time":"177.90","velocity":0.4094488188976378,"duration":"0.30"},{"name":"A#3","midi":58,"time":"178.20","velocity":0.4094488188976378,"duration":"0.30"},{"name":"A#3","midi":58,"time":"178.50","velocity":0.4094488188976378,"duration":"0.30"},{"name":"A#3","midi":58,"time":"178.80","velocity":0.4094488188976378,"duration":"0.30"},{"name":"A#3","midi":58,"time":"179.10","velocity":0.4094488188976378,"duration":"0.30"},{"name":"A#3","midi":58,"time":"179.40","velocity":0.4094488188976378,"duration":"0.30"},{"name":"A3","midi":57,"time":"179.70","velocity":0.4094488188976378,"duration":"0.30"},{"name":"F3","midi":53,"time":"180.00","velocity":0.4566929133858268,"duration":"0.60"},{"name":"A#2","midi":46,"time":"180.00","velocity":0.4566929133858268,"duration":"0.60"},{"name":"D4","midi":62,"time":"180.00","velocity":0.4566929133858268,"duration":"0.60"},{"name":"A#2","midi":46,"time":"180.60","velocity":0.44881889763779526,"duration":"0.60"},{"name":"D4","midi":62,"time":"180.60","velocity":0.44881889763779526,"duration":"0.30"},{"name":"C4","midi":60,"time":"180.90","velocity":0.44881889763779526,"duration":"0.30"},{"name":"D4","midi":62,"time":"181.20","velocity":0.44881889763779526,"duration":"0.30"},{"name":"C4","midi":60,"time":"181.50","velocity":0.44881889763779526,"duration":"0.30"},{"name":"D4","midi":62,"time":"181.80","velocity":0.44881889763779526,"duration":"0.30"},{"name":"C4","midi":60,"time":"182.10","velocity":0.4566929133858268,"duration":"0.30"},{"name":"F2","midi":41,"time":"182.40","velocity":0.48031496062992124,"duration":"0.60"},{"name":"C4","midi":60,"time":"182.40","velocity":0.48031496062992124,"duration":"0.60"},{"name":"F3","midi":53,"time":"183.60","velocity":0.4251968503937008,"duration":"0.60"},{"name":"A3","midi":57,"time":"183.60","velocity":0.4251968503937008,"duration":"0.60"},{"name":"C4","midi":60,"time":"184.80","velocity":0.44881889763779526,"duration":"0.60"},{"name":"F2","midi":41,"time":"184.80","velocity":0.44881889763779526,"duration":"0.60"},{"name":"F3","midi":53,"time":"186.00","velocity":0.4094488188976378,"duration":"0.60"},{"name":"A3","midi":57,"time":"186.00","velocity":0.4094488188976378,"duration":"0.60"},{"name":"A4","midi":69,"time":"187.20","velocity":0.4094488188976378,"duration":"0.15"},{"name":"A3","midi":57,"time":"187.20","velocity":0.4094488188976378,"duration":"0.30"},{"name":"A#4","midi":70,"time":"187.35","velocity":0.4094488188976378,"duration":"0.15"},{"name":"A4","midi":69,"time":"187.50","velocity":0.4094488188976378,"duration":"0.30"},{"name":"A3","midi":57,"time":"187.50","velocity":0.4094488188976378,"duration":"0.30"},{"name":"A#4","midi":70,"time":"187.80","velocity":0.4094488188976378,"duration":"0.30"},{"name":"A#3","midi":58,"time":"187.80","velocity":0.4094488188976378,"duration":"0.30"},{"name":"A4","midi":69,"time":"188.10","velocity":0.4094488188976378,"duration":"0.30"},{"name":"A#3","midi":58,"time":"188.10","velocity":0.4094488188976378,"duration":"0.30"},{"name":"A#3","midi":58,"time":"188.40","velocity":0.4094488188976378,"duration":"0.30"},{"name":"A4","midi":69,"time":"188.40","velocity":0.4094488188976378,"duration":"0.15"},{"name":"A#4","midi":70,"time":"188.55","velocity":0.4094488188976378,"duration":"0.15"},{"name":"A4","midi":69,"time":"188.70","velocity":0.4094488188976378,"duration":"0.30"},{"name":"A#3","midi":58,"time":"188.70","velocity":0.4094488188976378,"duration":"0.30"},{"name":"A#4","midi":70,"time":"189.00","velocity":0.4094488188976378,"duration":"0.30"},{"name":"A#3","midi":58,"time":"189.00","velocity":0.4094488188976378,"duration":"0.30"},{"name":"A3","midi":57,"time":"189.30","velocity":0.4094488188976378,"duration":"0.30"},{"name":"A4","midi":69,"time":"189.30","velocity":0.4094488188976378,"duration":"0.30"},{"name":"F3","midi":53,"time":"189.60","velocity":0.4566929133858268,"duration":"0.60"},{"name":"A#2","midi":46,"time":"189.60","velocity":0.4566929133858268,"duration":"0.60"},{"name":"D4","midi":62,"time":"189.60","velocity":0.4566929133858268,"duration":"0.60"},{"name":"A#2","midi":46,"time":"190.20","velocity":0.44881889763779526,"duration":"0.60"},{"name":"D4","midi":62,"time":"190.20","velocity":0.44881889763779526,"duration":"0.30"},{"name":"C4","midi":60,"time":"190.50","velocity":0.44881889763779526,"duration":"0.30"},{"name":"D4","midi":62,"time":"190.80","velocity":0.44881889763779526,"duration":"0.30"},{"name":"C4","midi":60,"time":"191.10","velocity":0.44881889763779526,"duration":"0.30"},{"name":"D4","midi":62,"time":"191.40","velocity":0.44881889763779526,"duration":"0.30"},{"name":"C4","midi":60,"time":"191.70","velocity":0.4566929133858268,"duration":"0.30"},{"name":"F2","midi":41,"time":"192.00","velocity":0.48031496062992124,"duration":"0.60"},{"name":"C4","midi":60,"time":"192.00","velocity":0.48031496062992124,"duration":"0.60"},{"name":"F3","midi":53,"time":"193.20","velocity":0.4251968503937008,"duration":"0.60"},{"name":"A3","midi":57,"time":"193.20","velocity":0.4251968503937008,"duration":"0.60"},{"name":"A3","midi":57,"time":"194.40","velocity":0.44881889763779526,"duration":"0.30"},{"name":"C4","midi":60,"time":"194.40","velocity":0.44881889763779526,"duration":"0.60"},{"name":"F2","midi":41,"time":"194.40","velocity":0.44881889763779526,"duration":"0.60"},{"name":"A3","midi":57,"time":"194.70","velocity":0.44881889763779526,"duration":"0.30"},{"name":"A#3","midi":58,"time":"195.00","velocity":0.44881889763779526,"duration":"0.30"},{"name":"A3","midi":57,"time":"195.30","velocity":0.44881889763779526,"duration":"0.30"},{"name":"G3","midi":55,"time":"195.60","velocity":0.5748031496062992,"duration":"0.30"},{"name":"F3","midi":53,"time":"195.90","velocity":0.49606299212598426,"duration":"0.30"},{"name":"G3","midi":55,"time":"196.20","velocity":0.5826771653543307,"duration":"0.30"},{"name":"F3","midi":53,"time":"196.50","velocity":0.49606299212598426,"duration":"0.30"},{"name":"A4","midi":69,"time":"196.80","velocity":0.4094488188976378,"duration":"0.15"},{"name":"A3","midi":57,"time":"196.80","velocity":0.4094488188976378,"duration":"0.30"},{"name":"A#4","midi":70,"time":"196.95","velocity":0.4094488188976378,"duration":"0.15"},{"name":"A4","midi":69,"time":"197.10","velocity":0.4094488188976378,"duration":"0.30"},{"name":"A3","midi":57,"time":"197.10","velocity":0.4094488188976378,"duration":"0.30"},{"name":"A#4","midi":70,"time":"197.40","velocity":0.4094488188976378,"duration":"0.30"},{"name":"A#3","midi":58,"time":"197.40","velocity":0.4094488188976378,"duration":"0.30"},{"name":"A4","midi":69,"time":"197.70","velocity":0.4094488188976378,"duration":"0.30"},{"name":"A#3","midi":58,"time":"197.70","velocity":0.4094488188976378,"duration":"0.30"},{"name":"A#3","midi":58,"time":"198.00","velocity":0.4094488188976378,"duration":"0.30"},{"name":"A4","midi":69,"time":"198.00","velocity":0.4094488188976378,"duration":"0.15"},{"name":"A#4","midi":70,"time":"198.15","velocity":0.4094488188976378,"duration":"0.15"},{"name":"A4","midi":69,"time":"198.30","velocity":0.4094488188976378,"duration":"0.30"},{"name":"A#3","midi":58,"time":"198.30","velocity":0.4094488188976378,"duration":"0.30"},{"name":"A#4","midi":70,"time":"198.60","velocity":0.4094488188976378,"duration":"0.30"},{"name":"A#3","midi":58,"time":"198.60","velocity":0.4094488188976378,"duration":"0.30"},{"name":"A3","midi":57,"time":"198.90","velocity":0.4094488188976378,"duration":"0.30"},{"name":"A4","midi":69,"time":"198.90","velocity":0.4094488188976378,"duration":"0.30"},{"name":"F3","midi":53,"time":"199.20","velocity":0.4566929133858268,"duration":"0.60"},{"name":"A#2","midi":46,"time":"199.20","velocity":0.4566929133858268,"duration":"0.60"},{"name":"D4","midi":62,"time":"199.20","velocity":0.4566929133858268,"duration":"0.60"},{"name":"A#2","midi":46,"time":"199.80","velocity":0.44881889763779526,"duration":"0.60"},{"name":"D4","midi":62,"time":"199.80","velocity":0.44881889763779526,"duration":"0.30"},{"name":"C4","midi":60,"time":"200.10","velocity":0.44881889763779526,"duration":"0.30"},{"name":"D4","midi":62,"time":"200.40","velocity":0.44881889763779526,"duration":"0.30"},{"name":"C4","midi":60,"time":"200.70","velocity":0.44881889763779526,"duration":"0.30"},{"name":"D4","midi":62,"time":"201.00","velocity":0.44881889763779526,"duration":"0.30"},{"name":"C4","midi":60,"time":"201.30","velocity":0.4566929133858268,"duration":"0.30"},{"name":"F2","midi":41,"time":"201.60","velocity":0.48031496062992124,"duration":"0.60"},{"name":"C4","midi":60,"time":"201.60","velocity":0.48031496062992124,"duration":"0.60"},{"name":"F3","midi":53,"time":"202.80","velocity":0.4251968503937008,"duration":"0.60"},{"name":"A3","midi":57,"time":"202.80","velocity":0.4251968503937008,"duration":"0.60"},{"name":"A3","midi":57,"time":"204.00","velocity":0.44881889763779526,"duration":"0.30"},{"name":"C4","midi":60,"time":"204.00","velocity":0.44881889763779526,"duration":"0.60"},{"name":"F2","midi":41,"time":"204.00","velocity":0.44881889763779526,"duration":"0.60"},{"name":"A3","midi":57,"time":"204.30","velocity":0.44881889763779526,"duration":"0.30"},{"name":"A#3","midi":58,"time":"204.60","velocity":0.44881889763779526,"duration":"0.30"},{"name":"A3","midi":57,"time":"204.90","velocity":0.44881889763779526,"duration":"0.30"},{"name":"G3","midi":55,"time":"205.20","velocity":0.5748031496062992,"duration":"0.30"},{"name":"F3","midi":53,"time":"205.50","velocity":0.49606299212598426,"duration":"0.30"},{"name":"G3","midi":55,"time":"205.80","velocity":0.5826771653543307,"duration":"0.30"},{"name":"F3","midi":53,"time":"206.10","velocity":0.49606299212598426,"duration":"0.30"},{"name":"A4","midi":69,"time":"206.40","velocity":0.4094488188976378,"duration":"0.15"},{"name":"A3","midi":57,"time":"206.40","velocity":0.4094488188976378,"duration":"0.30"},{"name":"A#4","midi":70,"time":"206.55","velocity":0.4094488188976378,"duration":"0.15"},{"name":"A4","midi":69,"time":"206.70","velocity":0.4094488188976378,"duration":"0.30"},{"name":"A3","midi":57,"time":"206.70","velocity":0.4094488188976378,"duration":"0.30"},{"name":"A#4","midi":70,"time":"207.00","velocity":0.4094488188976378,"duration":"0.30"},{"name":"A#3","midi":58,"time":"207.00","velocity":0.4094488188976378,"duration":"0.30"},{"name":"A4","midi":69,"time":"207.30","velocity":0.4094488188976378,"duration":"0.30"},{"name":"A#3","midi":58,"time":"207.30","velocity":0.4094488188976378,"duration":"0.30"},{"name":"A#3","midi":58,"time":"207.60","velocity":0.4094488188976378,"duration":"0.30"},{"name":"A4","midi":69,"time":"207.60","velocity":0.4094488188976378,"duration":"0.15"},{"name":"A#4","midi":70,"time":"207.75","velocity":0.4094488188976378,"duration":"0.15"},{"name":"A4","midi":69,"time":"207.90","velocity":0.4094488188976378,"duration":"0.30"},{"name":"A#3","midi":58,"time":"207.90","velocity":0.4094488188976378,"duration":"0.30"},{"name":"A#4","midi":70,"time":"208.20","velocity":0.4094488188976378,"duration":"0.30"},{"name":"A#3","midi":58,"time":"208.20","velocity":0.4094488188976378,"duration":"0.30"},{"name":"A3","midi":57,"time":"208.50","velocity":0.4094488188976378,"duration":"0.30"},{"name":"A4","midi":69,"time":"208.50","velocity":0.4094488188976378,"duration":"0.30"},{"name":"F3","midi":53,"time":"208.80","velocity":0.4566929133858268,"duration":"0.60"},{"name":"A#2","midi":46,"time":"208.80","velocity":0.4566929133858268,"duration":"0.60"},{"name":"D4","midi":62,"time":"208.80","velocity":0.4566929133858268,"duration":"0.60"},{"name":"A#2","midi":46,"time":"209.40","velocity":0.44881889763779526,"duration":"0.60"},{"name":"D4","midi":62,"time":"209.40","velocity":0.44881889763779526,"duration":"0.30"},{"name":"C4","midi":60,"time":"209.70","velocity":0.44881889763779526,"duration":"0.30"},{"name":"D4","midi":62,"time":"210.00","velocity":0.44881889763779526,"duration":"0.30"},{"name":"C4","midi":60,"time":"210.30","velocity":0.44881889763779526,"duration":"0.30"},{"name":"D4","midi":62,"time":"210.60","velocity":0.44881889763779526,"duration":"0.30"},{"name":"C4","midi":60,"time":"210.90","velocity":0.4566929133858268,"duration":"0.30"},{"name":"F2","midi":41,"time":"211.20","velocity":0.48031496062992124,"duration":"0.60"},{"name":"C4","midi":60,"time":"211.20","velocity":0.48031496062992124,"duration":"0.60"},{"name":"F3","midi":53,"time":"212.40","velocity":0.4251968503937008,"duration":"0.60"},{"name":"A3","midi":57,"time":"212.40","velocity":0.4251968503937008,"duration":"0.60"},{"name":"A3","midi":57,"time":"213.60","velocity":0.44881889763779526,"duration":"0.30"},{"name":"C4","midi":60,"time":"213.60","velocity":0.44881889763779526,"duration":"0.60"},{"name":"F2","midi":41,"time":"213.60","velocity":0.44881889763779526,"duration":"0.60"},{"name":"A3","midi":57,"time":"213.90","velocity":0.44881889763779526,"duration":"0.30"},{"name":"A#3","midi":58,"time":"214.20","velocity":0.44881889763779526,"duration":"0.30"},{"name":"A3","midi":57,"time":"214.50","velocity":0.44881889763779526,"duration":"0.30"},{"name":"G3","midi":55,"time":"214.80","velocity":0.5748031496062992,"duration":"0.30"},{"name":"F3","midi":53,"time":"215.10","velocity":0.49606299212598426,"duration":"0.30"},{"name":"G3","midi":55,"time":"215.40","velocity":0.5826771653543307,"duration":"0.30"},{"name":"F3","midi":53,"time":"215.70","velocity":0.49606299212598426,"duration":"0.30"},{"name":"D2","midi":38,"time":"215.97","velocity":0.4881889763779528,"duration":"1.83"},{"name":"D3","midi":50,"time":"216.02","velocity":0.4881889763779528,"duration":"1.92"},{"name":"F3","midi":53,"time":"216.03","velocity":0.4881889763779528,"duration":"1.97"},{"name":"A3","midi":57,"time":"216.06","velocity":0.4881889763779528,"duration":"1.97"},{"name":"A#2","midi":46,"time":"218.31","velocity":0.3779527559055118,"duration":"1.83"},{"name":"F3","midi":53,"time":"218.36","velocity":0.3779527559055118,"duration":"1.83"},{"name":"A#3","midi":58,"time":"218.38","velocity":0.3858267716535433,"duration":"1.83"},{"name":"D4","midi":62,"time":"218.41","velocity":0.3858267716535433,"duration":"1.83"},{"name":"F4","midi":65,"time":"218.45","velocity":0.3858267716535433,"duration":"1.83"},{"name":"A#4","midi":70,"time":"218.46","velocity":0.3858267716535433,"duration":"1.83"},{"name":"F3","midi":53,"time":"220.73","velocity":0.3779527559055118,"duration":"1.83"},{"name":"A3","midi":57,"time":"220.76","velocity":0.3858267716535433,"duration":"1.83"},{"name":"C4","midi":60,"time":"220.79","velocity":0.3858267716535433,"duration":"1.83"},{"name":"F4","midi":65,"time":"220.82","velocity":0.3858267716535433,"duration":"1.83"},{"name":"A4","midi":69,"time":"220.84","velocity":0.3858267716535433,"duration":"1.83"}]},{"instrumentFamily":"synth pad","notes":[{"name":"A#4","midi":70,"time":"143.96","velocity":0.7874015748031497,"duration":"4.76"},{"name":"A#4","midi":70,"time":"153.53","velocity":0.7874015748031497,"duration":"4.76"},{"name":"A4","midi":69,"time":"158.36","velocity":0.7874015748031497,"duration":"4.76"},{"name":"C4","midi":60,"time":"220.80","velocity":0.6850393700787402,"duration":"4.80"}]},{"instrumentFamily":"guitar","notes":[{"name":"A3","midi":57,"time":"168.00","velocity":0.6771653543307087,"duration":"0.30"},{"name":"F2","midi":41,"time":"168.00","velocity":0.6771653543307087,"duration":"0.30"},{"name":"A3","midi":57,"time":"168.30","velocity":0.6771653543307087,"duration":"0.30"},{"name":"F2","midi":41,"time":"168.30","velocity":0.6771653543307087,"duration":"0.30"},{"name":"A#3","midi":58,"time":"168.60","velocity":0.6771653543307087,"duration":"0.30"},{"name":"F2","midi":41,"time":"168.60","velocity":0.6771653543307087,"duration":"0.30"},{"name":"A3","midi":57,"time":"168.90","velocity":0.6771653543307087,"duration":"0.30"},{"name":"F2","midi":41,"time":"168.90","velocity":0.6771653543307087,"duration":"0.30"},{"name":"A3","midi":57,"time":"169.20","velocity":0.6771653543307087,"duration":"0.30"},{"name":"F2","midi":41,"time":"169.20","velocity":0.6771653543307087,"duration":"0.30"},{"name":"A3","midi":57,"time":"169.50","velocity":0.6771653543307087,"duration":"0.30"},{"name":"F2","midi":41,"time":"169.50","velocity":0.6771653543307087,"duration":"0.30"},{"name":"A#3","midi":58,"time":"169.80","velocity":0.6771653543307087,"duration":"0.30"},{"name":"F2","midi":41,"time":"169.80","velocity":0.6771653543307087,"duration":"0.30"},{"name":"A3","midi":57,"time":"170.10","velocity":0.6771653543307087,"duration":"0.30"},{"name":"F2","midi":41,"time":"170.10","velocity":0.6771653543307087,"duration":"0.30"},{"name":"D4","midi":62,"time":"170.40","velocity":0.6062992125984252,"duration":"0.30"},{"name":"A#3","midi":58,"time":"170.40","velocity":0.6062992125984252,"duration":"0.30"},{"name":"D3","midi":50,"time":"170.40","velocity":0.6062992125984252,"duration":"0.30"},{"name":"A#2","midi":46,"time":"170.40","velocity":0.6062992125984252,"duration":"0.30"},{"name":"D4","midi":62,"time":"170.70","velocity":0.5748031496062992,"duration":"0.30"},{"name":"A#3","midi":58,"time":"170.70","velocity":0.5748031496062992,"duration":"0.30"},{"name":"D3","midi":50,"time":"170.70","velocity":0.5748031496062992,"duration":"0.30"},{"name":"A#2","midi":46,"time":"170.70","velocity":0.5748031496062992,"duration":"0.30"},{"name":"D4","midi":62,"time":"171.00","velocity":0.5354330708661418,"duration":"0.30"},{"name":"A#3","midi":58,"time":"171.00","velocity":0.5354330708661418,"duration":"0.30"},{"name":"D3","midi":50,"time":"171.00","velocity":0.5354330708661418,"duration":"0.30"},{"name":"A#2","midi":46,"time":"171.00","velocity":0.5354330708661418,"duration":"0.30"},{"name":"F3","midi":53,"time":"171.30","velocity":0.48031496062992124,"duration":"0.60"},{"name":"C3","midi":48,"time":"171.30","velocity":0.48031496062992124,"duration":"0.60"},{"name":"C4","midi":60,"time":"171.30","velocity":0.48031496062992124,"duration":"0.60"},{"name":"C3","midi":48,"time":"171.90","velocity":0.5196850393700787,"duration":"0.30"},{"name":"F3","midi":53,"time":"171.90","velocity":0.5196850393700787,"duration":"0.30"},{"name":"C4","midi":60,"time":"171.90","velocity":0.5196850393700787,"duration":"0.30"},{"name":"D#4","midi":63,"time":"172.20","velocity":0.5196850393700787,"duration":"0.30"},{"name":"C4","midi":60,"time":"172.20","velocity":0.5196850393700787,"duration":"0.30"},{"name":"D#3","midi":51,"time":"172.20","velocity":0.5196850393700787,"duration":"0.30"},{"name":"C3","midi":48,"time":"172.20","velocity":0.5196850393700787,"duration":"0.30"},{"name":"D4","midi":62,"time":"172.50","velocity":0.5196850393700787,"duration":"0.30"},{"name":"A#3","midi":58,"time":"172.50","velocity":0.5196850393700787,"duration":"0.30"},{"name":"D3","midi":50,"time":"172.50","velocity":0.5196850393700787,"duration":"0.30"},{"name":"A#2","midi":46,"time":"172.50","velocity":0.5196850393700787,"duration":"0.30"},{"name":"A3","midi":57,"time":"172.80","velocity":0.6771653543307087,"duration":"0.30"},{"name":"F2","midi":41,"time":"172.80","velocity":0.6771653543307087,"duration":"0.30"},{"name":"C3","midi":48,"time":"172.80","velocity":0.6771653543307087,"duration":"0.30"},{"name":"A3","midi":57,"time":"173.10","velocity":0.6771653543307087,"duration":"0.30"},{"name":"F2","midi":41,"time":"173.10","velocity":0.6771653543307087,"duration":"0.30"},{"name":"C3","midi":48,"time":"173.10","velocity":0.6771653543307087,"duration":"0.30"},{"name":"C3","midi":48,"time":"173.40","velocity":0.6771653543307087,"duration":"0.30"},{"name":"A#3","midi":58,"time":"173.40","velocity":0.6771653543307087,"duration":"0.30"},{"name":"F2","midi":41,"time":"173.40","velocity":0.6771653543307087,"duration":"0.30"},{"name":"A3","midi":57,"time":"173.70","velocity":0.6771653543307087,"duration":"0.30"},{"name":"C3","midi":48,"time":"173.70","velocity":0.6771653543307087,"duration":"0.30"},{"name":"F2","midi":41,"time":"173.70","velocity":0.6771653543307087,"duration":"0.30"},{"name":"A3","midi":57,"time":"174.00","velocity":0.6771653543307087,"duration":"0.30"},{"name":"F2","midi":41,"time":"174.00","velocity":0.6771653543307087,"duration":"0.30"},{"name":"C3","midi":48,"time":"174.00","velocity":0.6771653543307087,"duration":"0.30"},{"name":"A3","midi":57,"time":"174.30","velocity":0.6771653543307087,"duration":"0.30"},{"name":"C3","midi":48,"time":"174.30","velocity":0.6771653543307087,"duration":"0.30"},{"name":"F2","midi":41,"time":"174.30","velocity":0.6771653543307087,"duration":"0.30"},{"name":"F2","midi":41,"time":"174.60","velocity":0.6771653543307087,"duration":"0.30"},{"name":"C3","midi":48,"time":"174.60","velocity":0.6771653543307087,"duration":"0.30"},{"name":"A#3","midi":58,"time":"174.60","velocity":0.6771653543307087,"duration":"0.30"},{"name":"F2","midi":41,"time":"174.90","velocity":0.6771653543307087,"duration":"0.30"},{"name":"A3","midi":57,"time":"174.90","velocity":0.6771653543307087,"duration":"0.30"},{"name":"C3","midi":48,"time":"174.90","velocity":0.6771653543307087,"duration":"0.30"},{"name":"A3","midi":57,"time":"175.20","velocity":0.6771653543307087,"duration":"0.30"},{"name":"C3","midi":48,"time":"175.20","velocity":0.6771653543307087,"duration":"0.30"},{"name":"F2","midi":41,"time":"175.20","velocity":0.6771653543307087,"duration":"0.30"},{"name":"F2","midi":41,"time":"175.50","velocity":0.6771653543307087,"duration":"0.30"},{"name":"A3","midi":57,"time":"175.50","velocity":0.6771653543307087,"duration":"0.30"},{"name":"C3","midi":48,"time":"175.50","velocity":0.6771653543307087,"duration":"0.30"},{"name":"F2","midi":41,"time":"175.80","velocity":0.6771653543307087,"duration":"0.30"},{"name":"C3","midi":48,"time":"175.80","velocity":0.6771653543307087,"duration":"0.30"},{"name":"A#3","midi":58,"time":"175.80","velocity":0.6771653543307087,"duration":"0.30"},{"name":"A3","midi":57,"time":"176.10","velocity":0.6771653543307087,"duration":"0.30"},{"name":"F2","midi":41,"time":"176.10","velocity":0.6771653543307087,"duration":"0.30"},{"name":"C3","midi":48,"time":"176.10","velocity":0.6771653543307087,"duration":"0.30"},{"name":"A3","midi":57,"time":"176.40","velocity":0.6771653543307087,"duration":"0.30"},{"name":"C3","midi":48,"time":"176.40","velocity":0.6771653543307087,"duration":"0.30"},{"name":"F2","midi":41,"time":"176.40","velocity":0.6771653543307087,"duration":"0.30"},{"name":"A3","midi":57,"time":"176.70","velocity":0.6771653543307087,"duration":"0.30"},{"name":"F2","midi":41,"time":"176.70","velocity":0.6771653543307087,"duration":"0.30"},{"name":"C3","midi":48,"time":"176.70","velocity":0.6771653543307087,"duration":"0.30"},{"name":"A#3","midi":58,"time":"177.00","velocity":0.6771653543307087,"duration":"0.30"},{"name":"C3","midi":48,"time":"177.00","velocity":0.6771653543307087,"duration":"0.30"},{"name":"F2","midi":41,"time":"177.00","velocity":0.6771653543307087,"duration":"0.30"},{"name":"F2","midi":41,"time":"177.30","velocity":0.6771653543307087,"duration":"0.30"},{"name":"A3","midi":57,"time":"177.30","velocity":0.6771653543307087,"duration":"0.30"},{"name":"C3","midi":48,"time":"177.30","velocity":0.6771653543307087,"duration":"0.30"},{"name":"A2","midi":45,"time":"177.60","velocity":0.6771653543307087,"duration":"0.30"},{"name":"D3","midi":50,"time":"177.60","velocity":0.6771653543307087,"duration":"0.30"},{"name":"A2","midi":45,"time":"177.90","velocity":0.6771653543307087,"duration":"0.30"},{"name":"D3","midi":50,"time":"177.90","velocity":0.6771653543307087,"duration":"0.30"},{"name":"A2","midi":45,"time":"178.20","velocity":0.6771653543307087,"duration":"0.30"},{"name":"D3","midi":50,"time":"178.20","velocity":0.6771653543307087,"duration":"0.30"},{"name":"D3","midi":50,"time":"178.50","velocity":0.6771653543307087,"duration":"0.30"},{"name":"A2","midi":45,"time":"178.50","velocity":0.6771653543307087,"duration":"0.30"},{"name":"A2","midi":45,"time":"178.80","velocity":0.6771653543307087,"duration":"0.30"},{"name":"D3","midi":50,"time":"178.80","velocity":0.6771653543307087,"duration":"0.30"},{"name":"A2","midi":45,"time":"179.10","velocity":0.6771653543307087,"duration":"0.30"},{"name":"D3","midi":50,"time":"179.10","velocity":0.6771653543307087,"duration":"0.30"},{"name":"A2","midi":45,"time":"179.40","velocity":0.6771653543307087,"duration":"0.30"},{"name":"D3","midi":50,"time":"179.40","velocity":0.6771653543307087,"duration":"0.30"},{"name":"D3","midi":50,"time":"179.70","velocity":0.6771653543307087,"duration":"0.30"},{"name":"A2","midi":45,"time":"179.70","velocity":0.6771653543307087,"duration":"0.30"},{"name":"F3","midi":53,"time":"180.00","velocity":0.6771653543307087,"duration":"0.30"},{"name":"A#2","midi":46,"time":"180.00","velocity":0.6771653543307087,"duration":"0.30"},{"name":"A#2","midi":46,"time":"180.30","velocity":0.6771653543307087,"duration":"0.30"},{"name":"F3","midi":53,"time":"180.30","velocity":0.6771653543307087,"duration":"0.30"},{"name":"F3","midi":53,"time":"180.60","velocity":0.6771653543307087,"duration":"0.30"},{"name":"A#2","midi":46,"time":"180.60","velocity":0.6771653543307087,"duration":"0.30"},{"name":"A#2","midi":46,"time":"180.90","velocity":0.6771653543307087,"duration":"0.30"},{"name":"F3","midi":53,"time":"180.90","velocity":0.6771653543307087,"duration":"0.30"},{"name":"F3","midi":53,"time":"181.20","velocity":0.6771653543307087,"duration":"0.30"},{"name":"A#2","midi":46,"time":"181.20","velocity":0.6771653543307087,"duration":"0.30"},{"name":"A#2","midi":46,"time":"181.50","velocity":0.6771653543307087,"duration":"0.30"},{"name":"F3","midi":53,"time":"181.50","velocity":0.6771653543307087,"duration":"0.30"},{"name":"A#2","midi":46,"time":"181.80","velocity":0.6771653543307087,"duration":"0.30"},{"name":"F3","midi":53,"time":"181.80","velocity":0.6771653543307087,"duration":"0.30"},{"name":"F3","midi":53,"time":"182.10","velocity":0.6771653543307087,"duration":"0.30"},{"name":"A#2","midi":46,"time":"182.10","velocity":0.6771653543307087,"duration":"0.30"},{"name":"A3","midi":57,"time":"182.40","velocity":0.6771653543307087,"duration":"0.30"},{"name":"F2","midi":41,"time":"182.40","velocity":0.6771653543307087,"duration":"0.30"},{"name":"C3","midi":48,"time":"182.40","velocity":0.6771653543307087,"duration":"0.30"},{"name":"C3","midi":48,"time":"182.70","velocity":0.6771653543307087,"duration":"0.30"},{"name":"F2","midi":41,"time":"182.70","velocity":0.6771653543307087,"duration":"0.30"},{"name":"A3","midi":57,"time":"182.70","velocity":0.6771653543307087,"duration":"0.30"},{"name":"C3","midi":48,"time":"183.00","velocity":0.6771653543307087,"duration":"0.30"},{"name":"A#3","midi":58,"time":"183.00","velocity":0.6771653543307087,"duration":"0.30"},{"name":"F2","midi":41,"time":"183.00","velocity":0.6771653543307087,"duration":"0.30"},{"name":"F2","midi":41,"time":"183.30","velocity":0.6771653543307087,"duration":"0.30"},{"name":"C3","midi":48,"time":"183.30","velocity":0.6771653543307087,"duration":"0.30"},{"name":"A3","midi":57,"time":"183.30","velocity":0.6771653543307087,"duration":"0.30"},{"name":"A3","midi":57,"time":"183.60","velocity":0.6771653543307087,"duration":"0.30"},{"name":"F2","midi":41,"time":"183.60","velocity":0.6771653543307087,"duration":"0.30"},{"name":"C3","midi":48,"time":"183.60","velocity":0.6771653543307087,"duration":"0.30"},{"name":"F2","midi":41,"time":"183.90","velocity":0.6771653543307087,"duration":"0.30"},{"name":"C3","midi":48,"time":"183.90","velocity":0.6771653543307087,"duration":"0.30"},{"name":"A3","midi":57,"time":"183.90","velocity":0.6771653543307087,"duration":"0.30"},{"name":"A#3","midi":58,"time":"184.20","velocity":0.6771653543307087,"duration":"0.30"},{"name":"C3","midi":48,"time":"184.20","velocity":0.6771653543307087,"duration":"0.30"},{"name":"F2","midi":41,"time":"184.20","velocity":0.6771653543307087,"duration":"0.30"},{"name":"F2","midi":41,"time":"184.50","velocity":0.6771653543307087,"duration":"0.30"},{"name":"A3","midi":57,"time":"184.50","velocity":0.6771653543307087,"duration":"0.30"},{"name":"C3","midi":48,"time":"184.50","velocity":0.6771653543307087,"duration":"0.30"},{"name":"A3","midi":57,"time":"184.80","velocity":0.6771653543307087,"duration":"0.30"},{"name":"F2","midi":41,"time":"184.80","velocity":0.6771653543307087,"duration":"0.30"},{"name":"C3","midi":48,"time":"184.80","velocity":0.6771653543307087,"duration":"0.30"},{"name":"A3","midi":57,"time":"185.10","velocity":0.6771653543307087,"duration":"0.30"},{"name":"C3","midi":48,"time":"185.10","velocity":0.6771653543307087,"duration":"0.30"},{"name":"F2","midi":41,"time":"185.10","velocity":0.6771653543307087,"duration":"0.30"},{"name":"F2","midi":41,"time":"185.40","velocity":0.6771653543307087,"duration":"0.30"},{"name":"A#3","midi":58,"time":"185.40","velocity":0.6771653543307087,"duration":"0.30"},{"name":"C3","midi":48,"time":"185.40","velocity":0.6771653543307087,"duration":"0.30"},{"name":"C3","midi":48,"time":"185.70","velocity":0.6771653543307087,"duration":"0.30"},{"name":"A3","midi":57,"time":"185.70","velocity":0.6771653543307087,"duration":"0.30"},{"name":"F2","midi":41,"time":"185.70","velocity":0.6771653543307087,"duration":"0.30"},{"name":"A3","midi":57,"time":"186.00","velocity":0.6771653543307087,"duration":"0.30"},{"name":"F2","midi":41,"time":"186.00","velocity":0.6771653543307087,"duration":"0.30"},{"name":"C3","midi":48,"time":"186.00","velocity":0.6771653543307087,"duration":"0.30"},{"name":"C3","midi":48,"time":"186.30","velocity":0.6771653543307087,"duration":"0.30"},{"name":"F2","midi":41,"time":"186.30","velocity":0.6771653543307087,"duration":"0.30"},{"name":"A3","midi":57,"time":"186.30","velocity":0.6771653543307087,"duration":"0.30"},{"name":"A#3","midi":58,"time":"186.60","velocity":0.6771653543307087,"duration":"0.30"},{"name":"C3","midi":48,"time":"186.60","velocity":0.6771653543307087,"duration":"0.30"},{"name":"F2","midi":41,"time":"186.60","velocity":0.6771653543307087,"duration":"0.30"},{"name":"A3","midi":57,"time":"186.90","velocity":0.6771653543307087,"duration":"0.30"},{"name":"C3","midi":48,"time":"186.90","velocity":0.6771653543307087,"duration":"0.30"},{"name":"F2","midi":41,"time":"186.90","velocity":0.6771653543307087,"duration":"0.30"},{"name":"A2","midi":45,"time":"187.20","velocity":0.6771653543307087,"duration":"0.30"},{"name":"D3","midi":50,"time":"187.20","velocity":0.6771653543307087,"duration":"0.30"},{"name":"A2","midi":45,"time":"187.50","velocity":0.6771653543307087,"duration":"0.30"},{"name":"D3","midi":50,"time":"187.50","velocity":0.6771653543307087,"duration":"0.30"},{"name":"A2","midi":45,"time":"187.80","velocity":0.6771653543307087,"duration":"0.30"},{"name":"D3","midi":50,"time":"187.80","velocity":0.6771653543307087,"duration":"0.30"},{"name":"D3","midi":50,"time":"188.10","velocity":0.6771653543307087,"duration":"0.30"},{"name":"A2","midi":45,"time":"188.10","velocity":0.6771653543307087,"duration":"0.30"},{"name":"A2","midi":45,"time":"188.40","velocity":0.6771653543307087,"duration":"0.30"},{"name":"D3","midi":50,"time":"188.40","velocity":0.6771653543307087,"duration":"0.30"},{"name":"A2","midi":45,"time":"188.70","velocity":0.6771653543307087,"duration":"0.30"},{"name":"D3","midi":50,"time":"188.70","velocity":0.6771653543307087,"duration":"0.30"},{"name":"A2","midi":45,"time":"189.00","velocity":0.6771653543307087,"duration":"0.30"},{"name":"D3","midi":50,"time":"189.00","velocity":0.6771653543307087,"duration":"0.30"},{"name":"D3","midi":50,"time":"189.30","velocity":0.6771653543307087,"duration":"0.30"},{"name":"A2","midi":45,"time":"189.30","velocity":0.6771653543307087,"duration":"0.30"},{"name":"F3","midi":53,"time":"189.60","velocity":0.6771653543307087,"duration":"0.30"},{"name":"A#2","midi":46,"time":"189.60","velocity":0.6771653543307087,"duration":"0.30"},{"name":"A#2","midi":46,"time":"189.90","velocity":0.6771653543307087,"duration":"0.30"},{"name":"F3","midi":53,"time":"189.90","velocity":0.6771653543307087,"duration":"0.30"},{"name":"F3","midi":53,"time":"190.20","velocity":0.6771653543307087,"duration":"0.30"},{"name":"A#2","midi":46,"time":"190.20","velocity":0.6771653543307087,"duration":"0.30"},{"name":"A#2","midi":46,"time":"190.50","velocity":0.6771653543307087,"duration":"0.30"},{"name":"F3","midi":53,"time":"190.50","velocity":0.6771653543307087,"duration":"0.30"},{"name":"F3","midi":53,"time":"190.80","velocity":0.6771653543307087,"duration":"0.30"},{"name":"A#2","midi":46,"time":"190.80","velocity":0.6771653543307087,"duration":"0.30"},{"name":"A#2","midi":46,"time":"191.10","velocity":0.6771653543307087,"duration":"0.30"},{"name":"F3","midi":53,"time":"191.10","velocity":0.6771653543307087,"duration":"0.30"},{"name":"A#2","midi":46,"time":"191.40","velocity":0.6771653543307087,"duration":"0.30"},{"name":"F3","midi":53,"time":"191.40","velocity":0.6771653543307087,"duration":"0.30"},{"name":"F3","midi":53,"time":"191.70","velocity":0.6771653543307087,"duration":"0.30"},{"name":"A#2","midi":46,"time":"191.70","velocity":0.6771653543307087,"duration":"0.30"},{"name":"A3","midi":57,"time":"192.00","velocity":0.6771653543307087,"duration":"0.30"},{"name":"F2","midi":41,"time":"192.00","velocity":0.6771653543307087,"duration":"0.30"},{"name":"C3","midi":48,"time":"192.00","velocity":0.6771653543307087,"duration":"0.30"},{"name":"C3","midi":48,"time":"192.30","velocity":0.6771653543307087,"duration":"0.30"},{"name":"F2","midi":41,"time":"192.30","velocity":0.6771653543307087,"duration":"0.30"},{"name":"A3","midi":57,"time":"192.30","velocity":0.6771653543307087,"duration":"0.30"},{"name":"C3","midi":48,"time":"192.60","velocity":0.6771653543307087,"duration":"0.30"},{"name":"A#3","midi":58,"time":"192.60","velocity":0.6771653543307087,"duration":"0.30"},{"name":"F2","midi":41,"time":"192.60","velocity":0.6771653543307087,"duration":"0.30"},{"name":"F2","midi":41,"time":"192.90","velocity":0.6771653543307087,"duration":"0.30"},{"name":"C3","midi":48,"time":"192.90","velocity":0.6771653543307087,"duration":"0.30"},{"name":"A3","midi":57,"time":"192.90","velocity":0.6771653543307087,"duration":"0.30"},{"name":"A3","midi":57,"time":"193.20","velocity":0.6771653543307087,"duration":"0.30"},{"name":"F2","midi":41,"time":"193.20","velocity":0.6771653543307087,"duration":"0.30"},{"name":"C3","midi":48,"time":"193.20","velocity":0.6771653543307087,"duration":"0.30"},{"name":"F2","midi":41,"time":"193.50","velocity":0.6771653543307087,"duration":"0.30"},{"name":"C3","midi":48,"time":"193.50","velocity":0.6771653543307087,"duration":"0.30"},{"name":"A3","midi":57,"time":"193.50","velocity":0.6771653543307087,"duration":"0.30"},{"name":"A#3","midi":58,"time":"193.80","velocity":0.6771653543307087,"duration":"0.30"},{"name":"C3","midi":48,"time":"193.80","velocity":0.6771653543307087,"duration":"0.30"},{"name":"F2","midi":41,"time":"193.80","velocity":0.6771653543307087,"duration":"0.30"},{"name":"F2","midi":41,"time":"194.10","velocity":0.6771653543307087,"duration":"0.30"},{"name":"A3","midi":57,"time":"194.10","velocity":0.6771653543307087,"duration":"0.30"},{"name":"C3","midi":48,"time":"194.10","velocity":0.6771653543307087,"duration":"0.30"},{"name":"A3","midi":57,"time":"194.40","velocity":0.6771653543307087,"duration":"0.30"},{"name":"F2","midi":41,"time":"194.40","velocity":0.6771653543307087,"duration":"0.30"},{"name":"C3","midi":48,"time":"194.40","velocity":0.6771653543307087,"duration":"0.30"},{"name":"A3","midi":57,"time":"194.70","velocity":0.6771653543307087,"duration":"0.30"},{"name":"C3","midi":48,"time":"194.70","velocity":0.6771653543307087,"duration":"0.30"},{"name":"F2","midi":41,"time":"194.70","velocity":0.6771653543307087,"duration":"0.30"},{"name":"F2","midi":41,"time":"195.00","velocity":0.6771653543307087,"duration":"0.30"},{"name":"A#3","midi":58,"time":"195.00","velocity":0.6771653543307087,"duration":"0.30"},{"name":"C3","midi":48,"time":"195.00","velocity":0.6771653543307087,"duration":"0.30"},{"name":"C3","midi":48,"time":"195.30","velocity":0.6771653543307087,"duration":"0.30"},{"name":"A3","midi":57,"time":"195.30","velocity":0.6771653543307087,"duration":"0.30"},{"name":"F2","midi":41,"time":"195.30","velocity":0.6771653543307087,"duration":"0.30"},{"name":"A3","midi":57,"time":"195.60","velocity":0.6771653543307087,"duration":"0.30"},{"name":"F2","midi":41,"time":"195.60","velocity":0.6771653543307087,"duration":"0.30"},{"name":"C3","midi":48,"time":"195.60","velocity":0.6771653543307087,"duration":"0.30"},{"name":"C3","midi":48,"time":"195.90","velocity":0.6771653543307087,"duration":"0.30"},{"name":"F2","midi":41,"time":"195.90","velocity":0.6771653543307087,"duration":"0.30"},{"name":"A3","midi":57,"time":"195.90","velocity":0.6771653543307087,"duration":"0.30"},{"name":"A#3","midi":58,"time":"196.20","velocity":0.6771653543307087,"duration":"0.30"},{"name":"C3","midi":48,"time":"196.20","velocity":0.6771653543307087,"duration":"0.30"},{"name":"F2","midi":41,"time":"196.20","velocity":0.6771653543307087,"duration":"0.30"},{"name":"A3","midi":57,"time":"196.50","velocity":0.6771653543307087,"duration":"0.30"},{"name":"C3","midi":48,"time":"196.50","velocity":0.6771653543307087,"duration":"0.30"},{"name":"F2","midi":41,"time":"196.50","velocity":0.6771653543307087,"duration":"0.30"},{"name":"A2","midi":45,"time":"196.80","velocity":0.6771653543307087,"duration":"0.30"},{"name":"D3","midi":50,"time":"196.80","velocity":0.6771653543307087,"duration":"0.30"},{"name":"A2","midi":45,"time":"197.10","velocity":0.6771653543307087,"duration":"0.30"},{"name":"D3","midi":50,"time":"197.10","velocity":0.6771653543307087,"duration":"0.30"},{"name":"A2","midi":45,"time":"197.40","velocity":0.6771653543307087,"duration":"0.30"},{"name":"D3","midi":50,"time":"197.40","velocity":0.6771653543307087,"duration":"0.30"},{"name":"D3","midi":50,"time":"197.70","velocity":0.6771653543307087,"duration":"0.30"},{"name":"A2","midi":45,"time":"197.70","velocity":0.6771653543307087,"duration":"0.30"},{"name":"A2","midi":45,"time":"198.00","velocity":0.6771653543307087,"duration":"0.30"},{"name":"D3","midi":50,"time":"198.00","velocity":0.6771653543307087,"duration":"0.30"},{"name":"A2","midi":45,"time":"198.30","velocity":0.6771653543307087,"duration":"0.30"},{"name":"D3","midi":50,"time":"198.30","velocity":0.6771653543307087,"duration":"0.30"},{"name":"A2","midi":45,"time":"198.60","velocity":0.6771653543307087,"duration":"0.30"},{"name":"D3","midi":50,"time":"198.60","velocity":0.6771653543307087,"duration":"0.30"},{"name":"D3","midi":50,"time":"198.90","velocity":0.6771653543307087,"duration":"0.30"},{"name":"A2","midi":45,"time":"198.90","velocity":0.6771653543307087,"duration":"0.30"},{"name":"F3","midi":53,"time":"199.20","velocity":0.6771653543307087,"duration":"0.30"},{"name":"A#2","midi":46,"time":"199.20","velocity":0.6771653543307087,"duration":"0.30"},{"name":"A#2","midi":46,"time":"199.50","velocity":0.6771653543307087,"duration":"0.30"},{"name":"F3","midi":53,"time":"199.50","velocity":0.6771653543307087,"duration":"0.30"},{"name":"F3","midi":53,"time":"199.80","velocity":0.6771653543307087,"duration":"0.30"},{"name":"A#2","midi":46,"time":"199.80","velocity":0.6771653543307087,"duration":"0.30"},{"name":"A#2","midi":46,"time":"200.10","velocity":0.6771653543307087,"duration":"0.30"},{"name":"F3","midi":53,"time":"200.10","velocity":0.6771653543307087,"duration":"0.30"},{"name":"F3","midi":53,"time":"200.40","velocity":0.6771653543307087,"duration":"0.30"},{"name":"A#2","midi":46,"time":"200.40","velocity":0.6771653543307087,"duration":"0.30"},{"name":"A#2","midi":46,"time":"200.70","velocity":0.6771653543307087,"duration":"0.30"},{"name":"F3","midi":53,"time":"200.70","velocity":0.6771653543307087,"duration":"0.30"},{"name":"A#2","midi":46,"time":"201.00","velocity":0.6771653543307087,"duration":"0.30"},{"name":"F3","midi":53,"time":"201.00","velocity":0.6771653543307087,"duration":"0.30"},{"name":"F3","midi":53,"time":"201.30","velocity":0.6771653543307087,"duration":"0.30"},{"name":"A#2","midi":46,"time":"201.30","velocity":0.6771653543307087,"duration":"0.30"},{"name":"A3","midi":57,"time":"201.60","velocity":0.6771653543307087,"duration":"0.30"},{"name":"F2","midi":41,"time":"201.60","velocity":0.6771653543307087,"duration":"0.30"},{"name":"C3","midi":48,"time":"201.60","velocity":0.6771653543307087,"duration":"0.30"},{"name":"C3","midi":48,"time":"201.90","velocity":0.6771653543307087,"duration":"0.30"},{"name":"F2","midi":41,"time":"201.90","velocity":0.6771653543307087,"duration":"0.30"},{"name":"A3","midi":57,"time":"201.90","velocity":0.6771653543307087,"duration":"0.30"},{"name":"C3","midi":48,"time":"202.20","velocity":0.6771653543307087,"duration":"0.30"},{"name":"A#3","midi":58,"time":"202.20","velocity":0.6771653543307087,"duration":"0.30"},{"name":"F2","midi":41,"time":"202.20","velocity":0.6771653543307087,"duration":"0.30"},{"name":"F2","midi":41,"time":"202.50","velocity":0.6771653543307087,"duration":"0.30"},{"name":"C3","midi":48,"time":"202.50","velocity":0.6771653543307087,"duration":"0.30"},{"name":"A3","midi":57,"time":"202.50","velocity":0.6771653543307087,"duration":"0.30"},{"name":"A3","midi":57,"time":"202.80","velocity":0.6771653543307087,"duration":"0.30"},{"name":"F2","midi":41,"time":"202.80","velocity":0.6771653543307087,"duration":"0.30"},{"name":"C3","midi":48,"time":"202.80","velocity":0.6771653543307087,"duration":"0.30"},{"name":"F2","midi":41,"time":"203.10","velocity":0.6771653543307087,"duration":"0.30"},{"name":"C3","midi":48,"time":"203.10","velocity":0.6771653543307087,"duration":"0.30"},{"name":"A3","midi":57,"time":"203.10","velocity":0.6771653543307087,"duration":"0.30"},{"name":"A#3","midi":58,"time":"203.40","velocity":0.6771653543307087,"duration":"0.30"},{"name":"C3","midi":48,"time":"203.40","velocity":0.6771653543307087,"duration":"0.30"},{"name":"F2","midi":41,"time":"203.40","velocity":0.6771653543307087,"duration":"0.30"},{"name":"F2","midi":41,"time":"203.70","velocity":0.6771653543307087,"duration":"0.30"},{"name":"A3","midi":57,"time":"203.70","velocity":0.6771653543307087,"duration":"0.30"},{"name":"C3","midi":48,"time":"203.70","velocity":0.6771653543307087,"duration":"0.30"},{"name":"A3","midi":57,"time":"204.00","velocity":0.6771653543307087,"duration":"0.30"},{"name":"F2","midi":41,"time":"204.00","velocity":0.6771653543307087,"duration":"0.30"},{"name":"C3","midi":48,"time":"204.00","velocity":0.6771653543307087,"duration":"0.30"},{"name":"A3","midi":57,"time":"204.30","velocity":0.6771653543307087,"duration":"0.30"},{"name":"C3","midi":48,"time":"204.30","velocity":0.6771653543307087,"duration":"0.30"},{"name":"F2","midi":41,"time":"204.30","velocity":0.6771653543307087,"duration":"0.30"},{"name":"F2","midi":41,"time":"204.60","velocity":0.6771653543307087,"duration":"0.30"},{"name":"A#3","midi":58,"time":"204.60","velocity":0.6771653543307087,"duration":"0.30"},{"name":"C3","midi":48,"time":"204.60","velocity":0.6771653543307087,"duration":"0.30"},{"name":"C3","midi":48,"time":"204.90","velocity":0.6771653543307087,"duration":"0.30"},{"name":"A3","midi":57,"time":"204.90","velocity":0.6771653543307087,"duration":"0.30"},{"name":"F2","midi":41,"time":"204.90","velocity":0.6771653543307087,"duration":"0.30"},{"name":"A3","midi":57,"time":"205.20","velocity":0.6771653543307087,"duration":"0.30"},{"name":"F2","midi":41,"time":"205.20","velocity":0.6771653543307087,"duration":"0.30"},{"name":"C3","midi":48,"time":"205.20","velocity":0.6771653543307087,"duration":"0.30"},{"name":"C3","midi":48,"time":"205.50","velocity":0.6771653543307087,"duration":"0.30"},{"name":"F2","midi":41,"time":"205.50","velocity":0.6771653543307087,"duration":"0.30"},{"name":"A3","midi":57,"time":"205.50","velocity":0.6771653543307087,"duration":"0.30"},{"name":"A#3","midi":58,"time":"205.80","velocity":0.6771653543307087,"duration":"0.30"},{"name":"C3","midi":48,"time":"205.80","velocity":0.6771653543307087,"duration":"0.30"},{"name":"F2","midi":41,"time":"205.80","velocity":0.6771653543307087,"duration":"0.30"},{"name":"A3","midi":57,"time":"206.10","velocity":0.6771653543307087,"duration":"0.30"},{"name":"C3","midi":48,"time":"206.10","velocity":0.6771653543307087,"duration":"0.30"},{"name":"F2","midi":41,"time":"206.10","velocity":0.6771653543307087,"duration":"0.30"},{"name":"A2","midi":45,"time":"206.40","velocity":0.6771653543307087,"duration":"0.30"},{"name":"D3","midi":50,"time":"206.40","velocity":0.6771653543307087,"duration":"0.30"},{"name":"A2","midi":45,"time":"206.70","velocity":0.6771653543307087,"duration":"0.30"},{"name":"D3","midi":50,"time":"206.70","velocity":0.6771653543307087,"duration":"0.30"},{"name":"A2","midi":45,"time":"207.00","velocity":0.6771653543307087,"duration":"0.30"},{"name":"D3","midi":50,"time":"207.00","velocity":0.6771653543307087,"duration":"0.30"},{"name":"D3","midi":50,"time":"207.30","velocity":0.6771653543307087,"duration":"0.30"},{"name":"A2","midi":45,"time":"207.30","velocity":0.6771653543307087,"duration":"0.30"},{"name":"A2","midi":45,"time":"207.60","velocity":0.6771653543307087,"duration":"0.30"},{"name":"D3","midi":50,"time":"207.60","velocity":0.6771653543307087,"duration":"0.30"},{"name":"A2","midi":45,"time":"207.90","velocity":0.6771653543307087,"duration":"0.30"},{"name":"D3","midi":50,"time":"207.90","velocity":0.6771653543307087,"duration":"0.30"},{"name":"A2","midi":45,"time":"208.20","velocity":0.6771653543307087,"duration":"0.30"},{"name":"D3","midi":50,"time":"208.20","velocity":0.6771653543307087,"duration":"0.30"},{"name":"D3","midi":50,"time":"208.50","velocity":0.6771653543307087,"duration":"0.30"},{"name":"A2","midi":45,"time":"208.50","velocity":0.6771653543307087,"duration":"0.30"},{"name":"F3","midi":53,"time":"208.80","velocity":0.6771653543307087,"duration":"0.30"},{"name":"A#2","midi":46,"time":"208.80","velocity":0.6771653543307087,"duration":"0.30"},{"name":"A#2","midi":46,"time":"209.10","velocity":0.6771653543307087,"duration":"0.30"},{"name":"F3","midi":53,"time":"209.10","velocity":0.6771653543307087,"duration":"0.30"},{"name":"F3","midi":53,"time":"209.40","velocity":0.6771653543307087,"duration":"0.30"},{"name":"A#2","midi":46,"time":"209.40","velocity":0.6771653543307087,"duration":"0.30"},{"name":"A#2","midi":46,"time":"209.70","velocity":0.6771653543307087,"duration":"0.30"},{"name":"F3","midi":53,"time":"209.70","velocity":0.6771653543307087,"duration":"0.30"},{"name":"F3","midi":53,"time":"210.00","velocity":0.6771653543307087,"duration":"0.30"},{"name":"A#2","midi":46,"time":"210.00","velocity":0.6771653543307087,"duration":"0.30"},{"name":"A#2","midi":46,"time":"210.30","velocity":0.6771653543307087,"duration":"0.30"},{"name":"F3","midi":53,"time":"210.30","velocity":0.6771653543307087,"duration":"0.30"},{"name":"A#2","midi":46,"time":"210.60","velocity":0.6771653543307087,"duration":"0.30"},{"name":"F3","midi":53,"time":"210.60","velocity":0.6771653543307087,"duration":"0.30"},{"name":"F3","midi":53,"time":"210.90","velocity":0.6771653543307087,"duration":"0.30"},{"name":"A#2","midi":46,"time":"210.90","velocity":0.6771653543307087,"duration":"0.30"},{"name":"A3","midi":57,"time":"211.20","velocity":0.6771653543307087,"duration":"0.30"},{"name":"F2","midi":41,"time":"211.20","velocity":0.6771653543307087,"duration":"0.30"},{"name":"C3","midi":48,"time":"211.20","velocity":0.6771653543307087,"duration":"0.30"},{"name":"C3","midi":48,"time":"211.50","velocity":0.6771653543307087,"duration":"0.30"},{"name":"F2","midi":41,"time":"211.50","velocity":0.6771653543307087,"duration":"0.30"},{"name":"A3","midi":57,"time":"211.50","velocity":0.6771653543307087,"duration":"0.30"},{"name":"C3","midi":48,"time":"211.80","velocity":0.6771653543307087,"duration":"0.30"},{"name":"A#3","midi":58,"time":"211.80","velocity":0.6771653543307087,"duration":"0.30"},{"name":"F2","midi":41,"time":"211.80","velocity":0.6771653543307087,"duration":"0.30"},{"name":"F2","midi":41,"time":"212.10","velocity":0.6771653543307087,"duration":"0.30"},{"name":"C3","midi":48,"time":"212.10","velocity":0.6771653543307087,"duration":"0.30"},{"name":"A3","midi":57,"time":"212.10","velocity":0.6771653543307087,"duration":"0.30"},{"name":"A3","midi":57,"time":"212.40","velocity":0.6771653543307087,"duration":"0.30"},{"name":"F2","midi":41,"time":"212.40","velocity":0.6771653543307087,"duration":"0.30"},{"name":"C3","midi":48,"time":"212.40","velocity":0.6771653543307087,"duration":"0.30"},{"name":"F2","midi":41,"time":"212.70","velocity":0.6771653543307087,"duration":"0.30"},{"name":"C3","midi":48,"time":"212.70","velocity":0.6771653543307087,"duration":"0.30"},{"name":"A3","midi":57,"time":"212.70","velocity":0.6771653543307087,"duration":"0.30"},{"name":"A#3","midi":58,"time":"213.00","velocity":0.6771653543307087,"duration":"0.30"},{"name":"C3","midi":48,"time":"213.00","velocity":0.6771653543307087,"duration":"0.30"},{"name":"F2","midi":41,"time":"213.00","velocity":0.6771653543307087,"duration":"0.30"},{"name":"F2","midi":41,"time":"213.30","velocity":0.6771653543307087,"duration":"0.30"},{"name":"A3","midi":57,"time":"213.30","velocity":0.6771653543307087,"duration":"0.30"},{"name":"C3","midi":48,"time":"213.30","velocity":0.6771653543307087,"duration":"0.30"},{"name":"A3","midi":57,"time":"213.60","velocity":0.6771653543307087,"duration":"0.30"},{"name":"F2","midi":41,"time":"213.60","velocity":0.6771653543307087,"duration":"0.30"},{"name":"C3","midi":48,"time":"213.60","velocity":0.6771653543307087,"duration":"0.30"},{"name":"A3","midi":57,"time":"213.90","velocity":0.6771653543307087,"duration":"0.30"},{"name":"C3","midi":48,"time":"213.90","velocity":0.6771653543307087,"duration":"0.30"},{"name":"F2","midi":41,"time":"213.90","velocity":0.6771653543307087,"duration":"0.30"},{"name":"F2","midi":41,"time":"214.20","velocity":0.6771653543307087,"duration":"0.30"},{"name":"A#3","midi":58,"time":"214.20","velocity":0.6771653543307087,"duration":"0.30"},{"name":"C3","midi":48,"time":"214.20","velocity":0.6771653543307087,"duration":"0.30"},{"name":"C3","midi":48,"time":"214.50","velocity":0.6771653543307087,"duration":"0.30"},{"name":"A3","midi":57,"time":"214.50","velocity":0.6771653543307087,"duration":"0.30"},{"name":"F2","midi":41,"time":"214.50","velocity":0.6771653543307087,"duration":"0.30"},{"name":"A3","midi":57,"time":"214.80","velocity":0.6771653543307087,"duration":"0.30"},{"name":"F2","midi":41,"time":"214.80","velocity":0.6771653543307087,"duration":"0.30"},{"name":"C3","midi":48,"time":"214.80","velocity":0.6771653543307087,"duration":"0.30"},{"name":"C3","midi":48,"time":"215.10","velocity":0.6771653543307087,"duration":"0.30"},{"name":"F2","midi":41,"time":"215.10","velocity":0.6771653543307087,"duration":"0.30"},{"name":"A3","midi":57,"time":"215.10","velocity":0.6771653543307087,"duration":"0.30"},{"name":"A#3","midi":58,"time":"215.40","velocity":0.6771653543307087,"duration":"0.30"},{"name":"C3","midi":48,"time":"215.40","velocity":0.6771653543307087,"duration":"0.30"},{"name":"F2","midi":41,"time":"215.40","velocity":0.6771653543307087,"duration":"0.30"},{"name":"A3","midi":57,"time":"215.70","velocity":0.6771653543307087,"duration":"0.30"},{"name":"C3","midi":48,"time":"215.70","velocity":0.6771653543307087,"duration":"0.30"},{"name":"F2","midi":41,"time":"215.70","velocity":0.6771653543307087,"duration":"0.30"},{"name":"D2","midi":38,"time":"216.00","velocity":0.6771653543307087,"duration":"2.40"},{"name":"A2","midi":45,"time":"216.00","velocity":0.6771653543307087,"duration":"2.40"},{"name":"D3","midi":50,"time":"216.00","velocity":0.6771653543307087,"duration":"2.39"}]},{"instrumentFamily":"organ","notes":[{"name":"F5","midi":77,"time":"192.00","velocity":0.48031496062992124,"duration":"4.20"},{"name":"D5","midi":74,"time":"196.20","velocity":0.49606299212598426,"duration":"0.30"},{"name":"G5","midi":79,"time":"196.20","velocity":0.49606299212598426,"duration":"0.30"},{"name":"G5","midi":79,"time":"196.50","velocity":0.4645669291338583,"duration":"0.30"},{"name":"C5","midi":72,"time":"196.50","velocity":0.4645669291338583,"duration":"0.30"},{"name":"E5","midi":76,"time":"196.50","velocity":0.4645669291338583,"duration":"0.30"},{"name":"A5","midi":81,"time":"196.80","velocity":0.48031496062992124,"duration":"4.35"},{"name":"A5","midi":81,"time":"201.60","velocity":0.48031496062992124,"duration":"4.20"},{"name":"F5","midi":77,"time":"201.60","velocity":0.48031496062992124,"duration":"4.20"},{"name":"A#5","midi":82,"time":"205.80","velocity":0.5748031496062992,"duration":"0.30"},{"name":"A#5","midi":82,"time":"206.10","velocity":0.5826771653543307,"duration":"0.30"},{"name":"C6","midi":84,"time":"206.40","velocity":0.48031496062992124,"duration":"4.35"},{"name":"B5","midi":83,"time":"210.76","velocity":0.48031496062992124,"duration":"0.42"},{"name":"A5","midi":81,"time":"211.20","velocity":0.3937007874015748,"duration":"4.79"},{"name":"F5","midi":77,"time":"211.20","velocity":0.3937007874015748,"duration":"4.77"},{"name":"F4","midi":65,"time":"216.30","velocity":0.3937007874015748,"duration":"0.15"}]},{"instrumentFamily":"bass","notes":[{"name":"D2","midi":38,"time":"105.60","velocity":0.8267716535433071,"duration":"0.30"},{"name":"D2","midi":38,"time":"105.90","velocity":0.8267716535433071,"duration":"0.60"},{"name":"D2","midi":38,"time":"106.50","velocity":0.8267716535433071,"duration":"0.30"},{"name":"D2","midi":38,"time":"106.80","velocity":0.8267716535433071,"duration":"0.30"},{"name":"D2","midi":38,"time":"107.10","velocity":0.8267716535433071,"duration":"0.90"},{"name":"A#1","midi":34,"time":"108.00","velocity":0.8267716535433071,"duration":"0.30"},{"name":"A#1","midi":34,"time":"108.30","velocity":0.8267716535433071,"duration":"0.60"},{"name":"A#1","midi":34,"time":"108.90","velocity":0.8267716535433071,"duration":"0.30"},{"name":"A#1","midi":34,"time":"109.20","velocity":0.8267716535433071,"duration":"0.30"},{"name":"A#1","midi":34,"time":"109.50","velocity":0.8267716535433071,"duration":"0.90"},{"name":"F2","midi":41,"time":"110.40","velocity":0.8267716535433071,"duration":"0.30"},{"name":"F2","midi":41,"time":"110.70","velocity":0.8267716535433071,"duration":"0.60"},{"name":"F2","midi":41,"time":"111.30","velocity":0.8267716535433071,"duration":"0.30"},{"name":"F2","midi":41,"time":"111.60","velocity":0.8267716535433071,"duration":"0.30"},{"name":"F2","midi":41,"time":"111.90","velocity":0.8267716535433071,"duration":"0.90"},{"name":"F2","midi":41,"time":"112.80","velocity":0.8267716535433071,"duration":"0.30"},{"name":"F2","midi":41,"time":"113.10","velocity":0.8267716535433071,"duration":"0.60"},{"name":"F2","midi":41,"time":"113.70","velocity":0.8267716535433071,"duration":"0.30"},{"name":"F2","midi":41,"time":"114.00","velocity":0.8267716535433071,"duration":"0.30"},{"name":"F2","midi":41,"time":"114.30","velocity":0.8267716535433071,"duration":"0.90"},{"name":"D2","midi":38,"time":"115.20","velocity":0.8267716535433071,"duration":"0.30"},{"name":"D2","midi":38,"time":"115.50","velocity":0.8267716535433071,"duration":"0.60"},{"name":"D2","midi":38,"time":"116.10","velocity":0.8267716535433071,"duration":"0.30"},{"name":"D2","midi":38,"time":"116.40","velocity":0.8267716535433071,"duration":"0.30"},{"name":"D2","midi":38,"time":"116.70","velocity":0.8267716535433071,"duration":"0.90"},{"name":"A#1","midi":34,"time":"117.60","velocity":0.8267716535433071,"duration":"0.30"},{"name":"A#1","midi":34,"time":"117.90","velocity":0.8267716535433071,"duration":"0.60"},{"name":"A#1","midi":34,"time":"118.50","velocity":0.8267716535433071,"duration":"0.30"},{"name":"A#1","midi":34,"time":"118.80","velocity":0.8267716535433071,"duration":"0.30"},{"name":"A#1","midi":34,"time":"119.10","velocity":0.8267716535433071,"duration":"0.90"},{"name":"F2","midi":41,"time":"120.00","velocity":0.8267716535433071,"duration":"0.30"},{"name":"F2","midi":41,"time":"120.30","velocity":0.8267716535433071,"duration":"0.60"},{"name":"F2","midi":41,"time":"120.90","velocity":0.8267716535433071,"duration":"0.30"},{"name":"F2","midi":41,"time":"121.20","velocity":0.8267716535433071,"duration":"0.30"},{"name":"F2","midi":41,"time":"121.50","velocity":0.8267716535433071,"duration":"0.90"},{"name":"F2","midi":41,"time":"122.40","velocity":0.8267716535433071,"duration":"0.30"},{"name":"F2","midi":41,"time":"122.70","velocity":0.8267716535433071,"duration":"0.60"},{"name":"F2","midi":41,"time":"123.30","velocity":0.8267716535433071,"duration":"0.30"},{"name":"F2","midi":41,"time":"123.60","velocity":0.8267716535433071,"duration":"0.30"},{"name":"F2","midi":41,"time":"123.90","velocity":0.8267716535433071,"duration":"0.90"},{"name":"D2","midi":38,"time":"124.80","velocity":0.8267716535433071,"duration":"0.30"},{"name":"D2","midi":38,"time":"125.10","velocity":0.8267716535433071,"duration":"0.60"},{"name":"D2","midi":38,"time":"125.70","velocity":0.8267716535433071,"duration":"0.30"},{"name":"D2","midi":38,"time":"126.00","velocity":0.8267716535433071,"duration":"0.30"},{"name":"D2","midi":38,"time":"126.30","velocity":0.8267716535433071,"duration":"0.90"},{"name":"A#1","midi":34,"time":"127.20","velocity":0.8267716535433071,"duration":"0.30"},{"name":"A#1","midi":34,"time":"127.50","velocity":0.8267716535433071,"duration":"0.60"},{"name":"A#1","midi":34,"time":"128.10","velocity":0.8267716535433071,"duration":"0.30"},{"name":"A#1","midi":34,"time":"128.40","velocity":0.8267716535433071,"duration":"0.30"},{"name":"A#1","midi":34,"time":"128.70","velocity":0.8267716535433071,"duration":"0.90"},{"name":"F2","midi":41,"time":"129.60","velocity":0.8267716535433071,"duration":"0.30"},{"name":"F2","midi":41,"time":"129.90","velocity":0.8267716535433071,"duration":"0.60"},{"name":"F2","midi":41,"time":"130.50","velocity":0.8267716535433071,"duration":"0.30"},{"name":"F2","midi":41,"time":"130.80","velocity":0.8267716535433071,"duration":"0.30"},{"name":"F2","midi":41,"time":"131.10","velocity":0.8267716535433071,"duration":"0.90"},{"name":"F2","midi":41,"time":"132.00","velocity":0.8267716535433071,"duration":"0.30"},{"name":"F2","midi":41,"time":"132.30","velocity":0.8267716535433071,"duration":"0.60"},{"name":"F2","midi":41,"time":"132.90","velocity":0.8267716535433071,"duration":"0.30"},{"name":"F2","midi":41,"time":"133.20","velocity":0.8267716535433071,"duration":"0.30"},{"name":"F2","midi":41,"time":"133.50","velocity":0.8267716535433071,"duration":"0.90"},{"name":"D2","midi":38,"time":"134.40","velocity":0.8267716535433071,"duration":"0.30"},{"name":"D2","midi":38,"time":"134.70","velocity":0.8267716535433071,"duration":"0.60"},{"name":"D2","midi":38,"time":"135.30","velocity":0.8267716535433071,"duration":"0.30"},{"name":"D2","midi":38,"time":"135.60","velocity":0.8267716535433071,"duration":"0.30"},{"name":"D2","midi":38,"time":"135.90","velocity":0.8267716535433071,"duration":"0.90"},{"name":"A#1","midi":34,"time":"136.80","velocity":0.8267716535433071,"duration":"0.30"},{"name":"A#1","midi":34,"time":"137.10","velocity":0.8267716535433071,"duration":"0.60"},{"name":"A#1","midi":34,"time":"137.70","velocity":0.8267716535433071,"duration":"0.30"},{"name":"A#1","midi":34,"time":"138.00","velocity":0.8267716535433071,"duration":"0.30"},{"name":"A#1","midi":34,"time":"138.30","velocity":0.8267716535433071,"duration":"0.90"},{"name":"F2","midi":41,"time":"139.20","velocity":0.8267716535433071,"duration":"0.30"},{"name":"F2","midi":41,"time":"139.50","velocity":0.8267716535433071,"duration":"0.60"},{"name":"F2","midi":41,"time":"140.10","velocity":0.8267716535433071,"duration":"0.30"},{"name":"F2","midi":41,"time":"140.40","velocity":0.8267716535433071,"duration":"0.30"},{"name":"F2","midi":41,"time":"140.70","velocity":0.8267716535433071,"duration":"0.90"},{"name":"F2","midi":41,"time":"141.60","velocity":0.8267716535433071,"duration":"0.30"},{"name":"F2","midi":41,"time":"141.90","velocity":0.8267716535433071,"duration":"0.60"},{"name":"F2","midi":41,"time":"142.50","velocity":0.8267716535433071,"duration":"0.30"},{"name":"E2","midi":40,"time":"142.80","velocity":0.8267716535433071,"duration":"0.30"},{"name":"E2","midi":40,"time":"143.10","velocity":0.8267716535433071,"duration":"0.90"},{"name":"A#1","midi":34,"time":"144.00","velocity":0.8267716535433071,"duration":"0.30"},{"name":"A#1","midi":34,"time":"144.30","velocity":0.8267716535433071,"duration":"0.60"},{"name":"A#1","midi":34,"time":"144.90","velocity":0.8267716535433071,"duration":"0.30"},{"name":"A#1","midi":34,"time":"145.20","velocity":0.8267716535433071,"duration":"0.30"},{"name":"A#1","midi":34,"time":"145.50","velocity":0.8267716535433071,"duration":"0.90"},{"name":"A#1","midi":34,"time":"146.40","velocity":0.8267716535433071,"duration":"0.30"},{"name":"A#1","midi":34,"time":"146.70","velocity":0.8267716535433071,"duration":"0.60"},{"name":"A#1","midi":34,"time":"147.30","velocity":0.8267716535433071,"duration":"0.30"},{"name":"A#1","midi":34,"time":"147.60","velocity":0.8267716535433071,"duration":"0.30"},{"name":"A#1","midi":34,"time":"147.90","velocity":0.8267716535433071,"duration":"0.90"},{"name":"F2","midi":41,"time":"148.80","velocity":0.8267716535433071,"duration":"0.30"},{"name":"F2","midi":41,"time":"149.10","velocity":0.8267716535433071,"duration":"0.60"},{"name":"F2","midi":41,"time":"149.70","velocity":0.8267716535433071,"duration":"0.30"},{"name":"F2","midi":41,"time":"150.00","velocity":0.8267716535433071,"duration":"0.30"},{"name":"F2","midi":41,"time":"150.30","velocity":0.8267716535433071,"duration":"0.90"},{"name":"F2","midi":41,"time":"151.20","velocity":0.8267716535433071,"duration":"0.30"},{"name":"F2","midi":41,"time":"151.50","velocity":0.8267716535433071,"duration":"0.60"},{"name":"F2","midi":41,"time":"152.10","velocity":0.8267716535433071,"duration":"0.30"},{"name":"F2","midi":41,"time":"152.40","velocity":0.8267716535433071,"duration":"0.30"},{"name":"F2","midi":41,"time":"152.70","velocity":0.8267716535433071,"duration":"0.90"},{"name":"A#1","midi":34,"time":"153.60","velocity":0.8267716535433071,"duration":"0.30"},{"name":"A#1","midi":34,"time":"153.90","velocity":0.8267716535433071,"duration":"0.60"},{"name":"A#1","midi":34,"time":"154.50","velocity":0.8267716535433071,"duration":"0.30"},{"name":"A#1","midi":34,"time":"154.80","velocity":0.8267716535433071,"duration":"0.30"},{"name":"A#1","midi":34,"time":"155.10","velocity":0.8267716535433071,"duration":"0.90"},{"name":"A#1","midi":34,"time":"156.00","velocity":0.8267716535433071,"duration":"0.30"},{"name":"A#1","midi":34,"time":"156.30","velocity":0.8267716535433071,"duration":"0.60"},{"name":"A#1","midi":34,"time":"156.90","velocity":0.8267716535433071,"duration":"0.30"},{"name":"A#1","midi":34,"time":"157.20","velocity":0.8267716535433071,"duration":"0.30"},{"name":"A#1","midi":34,"time":"157.50","velocity":0.8267716535433071,"duration":"0.90"},{"name":"F2","midi":41,"time":"158.40","velocity":0.8267716535433071,"duration":"0.30"},{"name":"F2","midi":41,"time":"158.70","velocity":0.8267716535433071,"duration":"0.60"},{"name":"F2","midi":41,"time":"159.30","velocity":0.8267716535433071,"duration":"0.30"},{"name":"F2","midi":41,"time":"159.60","velocity":0.8267716535433071,"duration":"0.30"},{"name":"F2","midi":41,"time":"159.90","velocity":0.8267716535433071,"duration":"0.90"},{"name":"F2","midi":41,"time":"160.80","velocity":0.8267716535433071,"duration":"0.30"},{"name":"F2","midi":41,"time":"161.10","velocity":0.8267716535433071,"duration":"0.60"},{"name":"F2","midi":41,"time":"161.70","velocity":0.8267716535433071,"duration":"0.30"},{"name":"F2","midi":41,"time":"162.00","velocity":0.8267716535433071,"duration":"0.30"},{"name":"F2","midi":41,"time":"162.30","velocity":0.8267716535433071,"duration":"0.90"},{"name":"C2","midi":36,"time":"163.20","velocity":0.8267716535433071,"duration":"0.30"},{"name":"C2","midi":36,"time":"163.50","velocity":0.8267716535433071,"duration":"0.60"},{"name":"C2","midi":36,"time":"164.10","velocity":0.8267716535433071,"duration":"0.30"},{"name":"C2","midi":36,"time":"164.40","velocity":0.8267716535433071,"duration":"0.30"},{"name":"C2","midi":36,"time":"164.70","velocity":0.8267716535433071,"duration":"0.30"},{"name":"C2","midi":36,"time":"165.00","velocity":0.8267716535433071,"duration":"0.30"},{"name":"A#1","midi":34,"time":"165.30","velocity":0.8267716535433071,"duration":"0.30"},{"name":"C2","midi":36,"time":"165.60","velocity":0.7874015748031497,"duration":"2.38"},{"name":"F2","midi":41,"time":"168.00","velocity":0.8267716535433071,"duration":"0.30"},{"name":"F2","midi":41,"time":"168.30","velocity":0.8267716535433071,"duration":"0.60"},{"name":"F2","midi":41,"time":"168.90","velocity":0.8267716535433071,"duration":"0.30"},{"name":"F2","midi":41,"time":"169.20","velocity":0.8267716535433071,"duration":"0.30"},{"name":"F2","midi":41,"time":"169.50","velocity":0.8267716535433071,"duration":"0.90"},{"name":"A#2","midi":46,"time":"170.40","velocity":0.8267716535433071,"duration":"0.30"},{"name":"A#2","midi":46,"time":"170.70","velocity":0.8267716535433071,"duration":"0.60"},{"name":"A#2","midi":46,"time":"171.30","velocity":0.8267716535433071,"duration":"0.30"},{"name":"A#2","midi":46,"time":"171.60","velocity":0.8267716535433071,"duration":"0.30"},{"name":"A#2","midi":46,"time":"171.90","velocity":0.8267716535433071,"duration":"0.90"},{"name":"F2","midi":41,"time":"172.80","velocity":0.8267716535433071,"duration":"0.30"},{"name":"F2","midi":41,"time":"173.10","velocity":0.8267716535433071,"duration":"0.60"},{"name":"F2","midi":41,"time":"173.70","velocity":0.8267716535433071,"duration":"0.30"},{"name":"F2","midi":41,"time":"174.00","velocity":0.8267716535433071,"duration":"0.30"},{"name":"F2","midi":41,"time":"174.30","velocity":0.8267716535433071,"duration":"0.90"},{"name":"F2","midi":41,"time":"175.20","velocity":0.8267716535433071,"duration":"0.30"},{"name":"F2","midi":41,"time":"175.50","velocity":0.8267716535433071,"duration":"0.60"},{"name":"F2","midi":41,"time":"176.10","velocity":0.8267716535433071,"duration":"0.30"},{"name":"F2","midi":41,"time":"176.40","velocity":0.8267716535433071,"duration":"0.30"},{"name":"F2","midi":41,"time":"176.70","velocity":0.8267716535433071,"duration":"0.90"},{"name":"D2","midi":38,"time":"177.61","velocity":0.8267716535433071,"duration":"0.30"},{"name":"D2","midi":38,"time":"177.91","velocity":0.8267716535433071,"duration":"0.60"},{"name":"D2","midi":38,"time":"178.51","velocity":0.8267716535433071,"duration":"0.30"},{"name":"D2","midi":38,"time":"178.81","velocity":0.8267716535433071,"duration":"0.30"},{"name":"D2","midi":38,"time":"179.11","velocity":0.8267716535433071,"duration":"0.90"},{"name":"A#1","midi":34,"time":"180.00","velocity":0.8267716535433071,"duration":"0.30"},{"name":"A#1","midi":34,"time":"180.30","velocity":0.8267716535433071,"duration":"0.60"},{"name":"A#1","midi":34,"time":"180.90","velocity":0.8267716535433071,"duration":"0.30"},{"name":"A#1","midi":34,"time":"181.20","velocity":0.8267716535433071,"duration":"0.30"},{"name":"A#1","midi":34,"time":"181.50","velocity":0.8267716535433071,"duration":"0.90"},{"name":"F2","midi":41,"time":"182.40","velocity":0.8267716535433071,"duration":"0.30"},{"name":"F2","midi":41,"time":"182.70","velocity":0.8267716535433071,"duration":"0.60"},{"name":"F2","midi":41,"time":"183.30","velocity":0.8267716535433071,"duration":"0.30"},{"name":"F2","midi":41,"time":"183.60","velocity":0.8267716535433071,"duration":"0.30"},{"name":"F2","midi":41,"time":"183.90","velocity":0.8267716535433071,"duration":"0.90"},{"name":"F2","midi":41,"time":"184.80","velocity":0.8267716535433071,"duration":"0.30"},{"name":"F2","midi":41,"time":"185.10","velocity":0.8267716535433071,"duration":"0.60"},{"name":"F2","midi":41,"time":"185.70","velocity":0.8267716535433071,"duration":"0.30"},{"name":"F2","midi":41,"time":"186.00","velocity":0.8267716535433071,"duration":"0.30"},{"name":"F2","midi":41,"time":"186.30","velocity":0.8267716535433071,"duration":"0.90"},{"name":"D2","midi":38,"time":"187.21","velocity":0.8267716535433071,"duration":"0.30"},{"name":"D2","midi":38,"time":"187.51","velocity":0.8267716535433071,"duration":"0.60"},{"name":"D2","midi":38,"time":"188.11","velocity":0.8267716535433071,"duration":"0.30"},{"name":"D2","midi":38,"time":"188.41","velocity":0.8267716535433071,"duration":"0.30"},{"name":"D2","midi":38,"time":"188.71","velocity":0.8267716535433071,"duration":"0.90"},{"name":"A#1","midi":34,"time":"189.60","velocity":0.8267716535433071,"duration":"0.30"},{"name":"A#1","midi":34,"time":"189.90","velocity":0.8267716535433071,"duration":"0.60"},{"name":"A#1","midi":34,"time":"190.50","velocity":0.8267716535433071,"duration":"0.30"},{"name":"A#1","midi":34,"time":"190.80","velocity":0.8267716535433071,"duration":"0.30"},{"name":"A#1","midi":34,"time":"191.10","velocity":0.8267716535433071,"duration":"0.90"},{"name":"F2","midi":41,"time":"192.00","velocity":0.8267716535433071,"duration":"0.30"},{"name":"F2","midi":41,"time":"192.30","velocity":0.8267716535433071,"duration":"0.60"},{"name":"F2","midi":41,"time":"192.90","velocity":0.8267716535433071,"duration":"0.30"},{"name":"F2","midi":41,"time":"193.20","velocity":0.8267716535433071,"duration":"0.30"},{"name":"F2","midi":41,"time":"193.50","velocity":0.8267716535433071,"duration":"0.90"},{"name":"F2","midi":41,"time":"194.40","velocity":0.8267716535433071,"duration":"0.30"},{"name":"F2","midi":41,"time":"194.70","velocity":0.8267716535433071,"duration":"0.60"},{"name":"F2","midi":41,"time":"195.30","velocity":0.8267716535433071,"duration":"0.30"},{"name":"F2","midi":41,"time":"195.60","velocity":0.8267716535433071,"duration":"0.30"},{"name":"F2","midi":41,"time":"195.90","velocity":0.8267716535433071,"duration":"0.90"},{"name":"D2","midi":38,"time":"196.81","velocity":0.8267716535433071,"duration":"0.30"},{"name":"D2","midi":38,"time":"197.11","velocity":0.8267716535433071,"duration":"0.60"},{"name":"D2","midi":38,"time":"197.71","velocity":0.8267716535433071,"duration":"0.30"},{"name":"D2","midi":38,"time":"198.01","velocity":0.8267716535433071,"duration":"0.30"},{"name":"D2","midi":38,"time":"198.31","velocity":0.8267716535433071,"duration":"0.90"},{"name":"A#1","midi":34,"time":"199.20","velocity":0.8267716535433071,"duration":"0.30"},{"name":"A#1","midi":34,"time":"199.50","velocity":0.8267716535433071,"duration":"0.60"},{"name":"A#1","midi":34,"time":"200.10","velocity":0.8267716535433071,"duration":"0.30"},{"name":"A#1","midi":34,"time":"200.40","velocity":0.8267716535433071,"duration":"0.30"},{"name":"A#1","midi":34,"time":"200.70","velocity":0.8267716535433071,"duration":"0.90"},{"name":"F2","midi":41,"time":"201.60","velocity":0.8267716535433071,"duration":"0.30"},{"name":"F2","midi":41,"time":"201.90","velocity":0.8267716535433071,"duration":"0.60"},{"name":"F2","midi":41,"time":"202.50","velocity":0.8267716535433071,"duration":"0.30"},{"name":"F2","midi":41,"time":"202.80","velocity":0.8267716535433071,"duration":"0.30"},{"name":"F2","midi":41,"time":"203.10","velocity":0.8267716535433071,"duration":"0.90"},{"name":"F2","midi":41,"time":"204.00","velocity":0.8267716535433071,"duration":"0.30"},{"name":"F2","midi":41,"time":"204.30","velocity":0.8267716535433071,"duration":"0.60"},{"name":"F2","midi":41,"time":"204.90","velocity":0.8267716535433071,"duration":"0.30"},{"name":"F2","midi":41,"time":"205.20","velocity":0.8267716535433071,"duration":"0.30"},{"name":"F2","midi":41,"time":"205.50","velocity":0.8267716535433071,"duration":"0.90"},{"name":"D2","midi":38,"time":"206.41","velocity":0.8267716535433071,"duration":"0.30"},{"name":"D2","midi":38,"time":"206.71","velocity":0.8267716535433071,"duration":"0.60"},{"name":"D2","midi":38,"time":"207.31","velocity":0.8267716535433071,"duration":"0.30"},{"name":"D2","midi":38,"time":"207.61","velocity":0.8267716535433071,"duration":"0.30"},{"name":"D2","midi":38,"time":"207.91","velocity":0.8267716535433071,"duration":"0.90"},{"name":"A#1","midi":34,"time":"208.80","velocity":0.8267716535433071,"duration":"0.30"},{"name":"A#1","midi":34,"time":"209.10","velocity":0.8267716535433071,"duration":"0.60"},{"name":"A#1","midi":34,"time":"209.70","velocity":0.8267716535433071,"duration":"0.30"},{"name":"A#1","midi":34,"time":"210.00","velocity":0.8267716535433071,"duration":"0.30"},{"name":"A#1","midi":34,"time":"210.30","velocity":0.8267716535433071,"duration":"0.90"},{"name":"F2","midi":41,"time":"211.20","velocity":0.8267716535433071,"duration":"0.30"},{"name":"F2","midi":41,"time":"211.50","velocity":0.8267716535433071,"duration":"0.60"},{"name":"F2","midi":41,"time":"212.10","velocity":0.8267716535433071,"duration":"0.30"},{"name":"F2","midi":41,"time":"212.40","velocity":0.8267716535433071,"duration":"0.30"},{"name":"F2","midi":41,"time":"212.70","velocity":0.8267716535433071,"duration":"0.90"},{"name":"F2","midi":41,"time":"213.60","velocity":0.8267716535433071,"duration":"0.30"},{"name":"F2","midi":41,"time":"213.90","velocity":0.8267716535433071,"duration":"0.60"},{"name":"F2","midi":41,"time":"214.50","velocity":0.8267716535433071,"duration":"0.30"},{"name":"F2","midi":41,"time":"214.80","velocity":0.8267716535433071,"duration":"0.30"},{"name":"F2","midi":41,"time":"215.10","velocity":0.8267716535433071,"duration":"0.90"},{"name":"D2","midi":38,"time":"216.01","velocity":0.8267716535433071,"duration":"2.39"},{"name":"A#1","midi":34,"time":"218.40","velocity":0.8267716535433071,"duration":"2.40"},{"name":"F2","midi":41,"time":"220.80","velocity":0.8267716535433071,"duration":"4.80"}]},{"instrumentFamily":"drums","notes":[{"name":"G#2","midi":44,"time":"105.60","velocity":0.7244094488188977,"duration":"0.08"},{"name":"A1","midi":33,"time":"105.60","velocity":0.9921259842519685,"duration":"0.08"},{"name":"G#2","midi":44,"time":"105.75","velocity":0.2677165354330709,"duration":"0.08"},{"name":"G#2","midi":44,"time":"105.90","velocity":0.4409448818897638,"duration":"0.08"},{"name":"G#2","midi":44,"time":"106.05","velocity":0.2440944881889764,"duration":"0.08"},{"name":"G1","midi":31,"time":"106.20","velocity":0.7874015748031497,"duration":"0.08"},{"name":"G#2","midi":44,"time":"106.20","velocity":0.7244094488188977,"duration":"0.08"},{"name":"A1","midi":33,"time":"106.20","velocity":1,"duration":"0.08"},{"name":"G#2","midi":44,"time":"106.50","velocity":0.4409448818897638,"duration":"0.08"},{"name":"G#2","midi":44,"time":"106.65","velocity":0.2440944881889764,"duration":"0.08"},{"name":"G#2","midi":44,"time":"106.80","velocity":0.7244094488188977,"duration":"0.08"},{"name":"A1","midi":33,"time":"106.80","velocity":0.9921259842519685,"duration":"0.08"},{"name":"G#2","midi":44,"time":"107.10","velocity":0.7244094488188977,"duration":"0.08"},{"name":"A1","midi":33,"time":"107.40","velocity":1,"duration":"0.08"},{"name":"G1","midi":31,"time":"107.40","velocity":0.7874015748031497,"duration":"0.08"},{"name":"G#2","midi":44,"time":"107.70","velocity":0.4409448818897638,"duration":"0.08"},{"name":"G#2","midi":44,"time":"107.85","velocity":0.2440944881889764,"duration":"0.08"},{"name":"G#2","midi":44,"time":"108.00","velocity":0.7244094488188977,"duration":"0.08"},{"name":"A1","midi":33,"time":"108.00","velocity":0.9921259842519685,"duration":"0.08"},{"name":"G#2","midi":44,"time":"108.30","velocity":0.4409448818897638,"duration":"0.08"},{"name":"G1","midi":31,"time":"108.60","velocity":0.7874015748031497,"duration":"0.08"},{"name":"G#2","midi":44,"time":"108.60","velocity":0.7244094488188977,"duration":"0.08"},{"name":"A1","midi":33,"time":"108.60","velocity":1,"duration":"0.08"},{"name":"G#2","midi":44,"time":"108.90","velocity":0.4409448818897638,"duration":"0.08"},{"name":"G#2","midi":44,"time":"109.05","velocity":0.2440944881889764,"duration":"0.08"},{"name":"G#2","midi":44,"time":"109.20","velocity":0.7244094488188977,"duration":"0.08"},{"name":"A1","midi":33,"time":"109.20","velocity":0.9921259842519685,"duration":"0.08"},{"name":"G#2","midi":44,"time":"109.50","velocity":0.7244094488188977,"duration":"0.08"},{"name":"A1","midi":33,"time":"109.80","velocity":1,"duration":"0.08"},{"name":"G1","midi":31,"time":"109.80","velocity":0.7874015748031497,"duration":"0.08"},{"name":"G#2","midi":44,"time":"110.10","velocity":0.4409448818897638,"duration":"0.08"},{"name":"G#2","midi":44,"time":"110.25","velocity":0.2440944881889764,"duration":"0.08"},{"name":"A1","midi":33,"time":"110.40","velocity":0.9921259842519685,"duration":"0.08"},{"name":"G#2","midi":44,"time":"110.40","velocity":0.7244094488188977,"duration":"0.08"},{"name":"G#2","midi":44,"time":"110.70","velocity":0.4409448818897638,"duration":"0.08"},{"name":"A1","midi":33,"time":"111.00","velocity":1,"duration":"0.08"},{"name":"G#2","midi":44,"time":"111.00","velocity":0.7244094488188977,"duration":"0.08"},{"name":"G1","midi":31,"time":"111.00","velocity":0.7874015748031497,"duration":"0.08"},{"name":"G#2","midi":44,"time":"111.30","velocity":0.4409448818897638,"duration":"0.08"},{"name":"G#2","midi":44,"time":"111.45","velocity":0.2440944881889764,"duration":"0.08"},{"name":"G#2","midi":44,"time":"111.60","velocity":0.7244094488188977,"duration":"0.08"},{"name":"A1","midi":33,"time":"111.60","velocity":0.9921259842519685,"duration":"0.08"},{"name":"G#2","midi":44,"time":"111.90","velocity":0.7244094488188977,"duration":"0.08"},{"name":"A1","midi":33,"time":"112.20","velocity":1,"duration":"0.08"},{"name":"G1","midi":31,"time":"112.20","velocity":0.7874015748031497,"duration":"0.08"},{"name":"G#2","midi":44,"time":"112.50","velocity":0.4409448818897638,"duration":"0.08"},{"name":"G#2","midi":44,"time":"112.65","velocity":0.2440944881889764,"duration":"0.08"},{"name":"A1","midi":33,"time":"112.80","velocity":0.9921259842519685,"duration":"0.08"},{"name":"G#2","midi":44,"time":"112.80","velocity":0.7244094488188977,"duration":"0.08"},{"name":"G#2","midi":44,"time":"113.10","velocity":0.4409448818897638,"duration":"0.08"},{"name":"A1","midi":33,"time":"113.40","velocity":1,"duration":"0.08"},{"name":"G#2","midi":44,"time":"113.40","velocity":0.7244094488188977,"duration":"0.08"},{"name":"G1","midi":31,"time":"113.40","velocity":0.7874015748031497,"duration":"0.08"},{"name":"G#2","midi":44,"time":"113.70","velocity":0.4409448818897638,"duration":"0.08"},{"name":"G#2","midi":44,"time":"113.85","velocity":0.2440944881889764,"duration":"0.08"},{"name":"A1","midi":33,"time":"114.00","velocity":0.9921259842519685,"duration":"0.08"},{"name":"G#2","midi":44,"time":"114.00","velocity":0.7244094488188977,"duration":"0.08"},{"name":"G#2","midi":44,"time":"114.30","velocity":0.7244094488188977,"duration":"0.08"},{"name":"G1","midi":31,"time":"114.60","velocity":0.7874015748031497,"duration":"0.08"},{"name":"A1","midi":33,"time":"114.60","velocity":1,"duration":"0.08"},{"name":"G#2","midi":44,"time":"114.90","velocity":0.4409448818897638,"duration":"0.08"},{"name":"G#2","midi":44,"time":"115.05","velocity":0.2440944881889764,"duration":"0.08"},{"name":"A1","midi":33,"time":"115.20","velocity":0.9921259842519685,"duration":"0.08"},{"name":"G#2","midi":44,"time":"115.20","velocity":0.7244094488188977,"duration":"0.08"},{"name":"G#2","midi":44,"time":"115.35","velocity":0.2677165354330709,"duration":"0.08"},{"name":"G#2","midi":44,"time":"115.50","velocity":0.4409448818897638,"duration":"0.08"},{"name":"G#2","midi":44,"time":"115.65","velocity":0.2440944881889764,"duration":"0.08"},{"name":"G1","midi":31,"time":"115.80","velocity":0.7874015748031497,"duration":"0.08"},{"name":"G#2","midi":44,"time":"115.80","velocity":0.7244094488188977,"duration":"0.08"},{"name":"A1","midi":33,"time":"115.80","velocity":1,"duration":"0.08"},{"name":"G#2","midi":44,"time":"116.10","velocity":0.4409448818897638,"duration":"0.08"},{"name":"G#2","midi":44,"time":"116.25","velocity":0.2440944881889764,"duration":"0.08"},{"name":"G#2","midi":44,"time":"116.40","velocity":0.7244094488188977,"duration":"0.08"},{"name":"A1","midi":33,"time":"116.40","velocity":0.9921259842519685,"duration":"0.08"},{"name":"G#2","midi":44,"time":"116.70","velocity":0.7244094488188977,"duration":"0.08"},{"name":"A1","midi":33,"time":"117.00","velocity":1,"duration":"0.08"},{"name":"G1","midi":31,"time":"117.00","velocity":0.7874015748031497,"duration":"0.08"},{"name":"G#2","midi":44,"time":"117.30","velocity":0.4409448818897638,"duration":"0.08"},{"name":"G#2","midi":44,"time":"117.45","velocity":0.2440944881889764,"duration":"0.08"},{"name":"A1","midi":33,"time":"117.60","velocity":0.9921259842519685,"duration":"0.08"},{"name":"G#2","midi":44,"time":"117.60","velocity":0.7244094488188977,"duration":"0.08"},{"name":"G#2","midi":44,"time":"117.90","velocity":0.4409448818897638,"duration":"0.08"},{"name":"A1","midi":33,"time":"118.20","velocity":1,"duration":"0.08"},{"name":"G#2","midi":44,"time":"118.20","velocity":0.7244094488188977,"duration":"0.08"},{"name":"G1","midi":31,"time":"118.20","velocity":0.7874015748031497,"duration":"0.08"},{"name":"G#2","midi":44,"time":"118.50","velocity":0.4409448818897638,"duration":"0.08"},{"name":"G#2","midi":44,"time":"118.65","velocity":0.2440944881889764,"duration":"0.08"},{"name":"G#2","midi":44,"time":"118.80","velocity":0.7244094488188977,"duration":"0.08"},{"name":"A1","midi":33,"time":"118.80","velocity":0.9921259842519685,"duration":"0.08"},{"name":"G#2","midi":44,"time":"119.10","velocity":0.7244094488188977,"duration":"0.08"},{"name":"A1","midi":33,"time":"119.40","velocity":1,"duration":"0.08"},{"name":"G1","midi":31,"time":"119.40","velocity":0.7874015748031497,"duration":"0.08"},{"name":"G#2","midi":44,"time":"119.70","velocity":0.4409448818897638,"duration":"0.08"},{"name":"G#2","midi":44,"time":"119.85","velocity":0.2440944881889764,"duration":"0.08"},{"name":"A1","midi":33,"time":"120.00","velocity":0.9921259842519685,"duration":"0.08"},{"name":"G#2","midi":44,"time":"120.00","velocity":0.7244094488188977,"duration":"0.08"},{"name":"G#2","midi":44,"time":"120.30","velocity":0.4409448818897638,"duration":"0.08"},{"name":"A1","midi":33,"time":"120.60","velocity":1,"duration":"0.08"},{"name":"G#2","midi":44,"time":"120.60","velocity":0.7244094488188977,"duration":"0.08"},{"name":"G1","midi":31,"time":"120.60","velocity":0.7874015748031497,"duration":"0.08"},{"name":"G#2","midi":44,"time":"120.90","velocity":0.4409448818897638,"duration":"0.08"},{"name":"G#2","midi":44,"time":"121.05","velocity":0.2440944881889764,"duration":"0.08"},{"name":"A1","midi":33,"time":"121.20","velocity":0.9921259842519685,"duration":"0.08"},{"name":"G#2","midi":44,"time":"121.20","velocity":0.7244094488188977,"duration":"0.08"},{"name":"G#2","midi":44,"time":"121.50","velocity":0.7244094488188977,"duration":"0.08"},{"name":"A1","midi":33,"time":"121.80","velocity":1,"duration":"0.08"},{"name":"G1","midi":31,"time":"121.80","velocity":0.7874015748031497,"duration":"0.08"},{"name":"G#2","midi":44,"time":"122.10","velocity":0.4409448818897638,"duration":"0.08"},{"name":"G#2","midi":44,"time":"122.25","velocity":0.2440944881889764,"duration":"0.08"},{"name":"G#2","midi":44,"time":"122.40","velocity":0.7244094488188977,"duration":"0.08"},{"name":"A1","midi":33,"time":"122.40","velocity":0.9921259842519685,"duration":"0.08"},{"name":"G#2","midi":44,"time":"122.70","velocity":0.4409448818897638,"duration":"0.08"},{"name":"G1","midi":31,"time":"123.00","velocity":0.7874015748031497,"duration":"0.08"},{"name":"G#2","midi":44,"time":"123.00","velocity":0.7244094488188977,"duration":"0.08"},{"name":"A1","midi":33,"time":"123.00","velocity":1,"duration":"0.08"},{"name":"G#2","midi":44,"time":"123.30","velocity":0.4409448818897638,"duration":"0.08"},{"name":"G#2","midi":44,"time":"123.45","velocity":0.2440944881889764,"duration":"0.08"},{"name":"G#2","midi":44,"time":"123.60","velocity":0.7244094488188977,"duration":"0.08"},{"name":"A1","midi":33,"time":"123.60","velocity":0.9921259842519685,"duration":"0.08"},{"name":"G#2","midi":44,"time":"123.90","velocity":0.7244094488188977,"duration":"0.08"},{"name":"A1","midi":33,"time":"124.20","velocity":1,"duration":"0.08"},{"name":"G1","midi":31,"time":"124.20","velocity":0.7874015748031497,"duration":"0.08"},{"name":"G#2","midi":44,"time":"124.50","velocity":0.4409448818897638,"duration":"0.08"},{"name":"G#2","midi":44,"time":"124.65","velocity":0.2440944881889764,"duration":"0.08"},{"name":"G#2","midi":44,"time":"124.80","velocity":0.7244094488188977,"duration":"0.08"},{"name":"A1","midi":33,"time":"124.80","velocity":0.9921259842519685,"duration":"0.08"},{"name":"G#2","midi":44,"time":"124.95","velocity":0.2677165354330709,"duration":"0.08"},{"name":"G#2","midi":44,"time":"125.10","velocity":0.4409448818897638,"duration":"0.08"},{"name":"G#2","midi":44,"time":"125.25","velocity":0.2440944881889764,"duration":"0.08"},{"name":"A1","midi":33,"time":"125.40","velocity":1,"duration":"0.08"},{"name":"G1","midi":31,"time":"125.40","velocity":0.7874015748031497,"duration":"0.08"},{"name":"G#2","midi":44,"time":"125.40","velocity":0.7244094488188977,"duration":"0.08"},{"name":"G#2","midi":44,"time":"125.70","velocity":0.4409448818897638,"duration":"0.08"},{"name":"G#2","midi":44,"time":"125.85","velocity":0.2440944881889764,"duration":"0.08"},{"name":"A1","midi":33,"time":"126.00","velocity":0.9921259842519685,"duration":"0.08"},{"name":"G#2","midi":44,"time":"126.00","velocity":0.7244094488188977,"duration":"0.08"},{"name":"G#2","midi":44,"time":"126.30","velocity":0.7244094488188977,"duration":"0.08"},{"name":"G1","midi":31,"time":"126.60","velocity":0.7874015748031497,"duration":"0.08"},{"name":"A1","midi":33,"time":"126.60","velocity":1,"duration":"0.08"},{"name":"G#2","midi":44,"time":"126.90","velocity":0.4409448818897638,"duration":"0.08"},{"name":"G#2","midi":44,"time":"127.05","velocity":0.2440944881889764,"duration":"0.08"},{"name":"A1","midi":33,"time":"127.20","velocity":0.9921259842519685,"duration":"0.08"},{"name":"G#2","midi":44,"time":"127.20","velocity":0.7244094488188977,"duration":"0.08"},{"name":"G#2","midi":44,"time":"127.50","velocity":0.4409448818897638,"duration":"0.08"},{"name":"A1","midi":33,"time":"127.80","velocity":1,"duration":"0.08"},{"name":"G1","midi":31,"time":"127.80","velocity":0.7874015748031497,"duration":"0.08"},{"name":"G#2","midi":44,"time":"127.80","velocity":0.7244094488188977,"duration":"0.08"},{"name":"G#2","midi":44,"time":"128.10","velocity":0.4409448818897638,"duration":"0.07"},{"name":"G#2","midi":44,"time":"128.25","velocity":0.2440944881889764,"duration":"0.07"},{"name":"A1","midi":33,"time":"128.40","velocity":0.9921259842519685,"duration":"0.07"},{"name":"G#2","midi":44,"time":"128.40","velocity":0.7244094488188977,"duration":"0.07"},{"name":"G#2","midi":44,"time":"128.70","velocity":0.7244094488188977,"duration":"0.07"},{"name":"G1","midi":31,"time":"129.00","velocity":0.7874015748031497,"duration":"0.07"},{"name":"A1","midi":33,"time":"129.00","velocity":1,"duration":"0.07"},{"name":"G#2","midi":44,"time":"129.30","velocity":0.4409448818897638,"duration":"0.07"},{"name":"G#2","midi":44,"time":"129.45","velocity":0.2440944881889764,"duration":"0.07"},{"name":"G#2","midi":44,"time":"129.60","velocity":0.7244094488188977,"duration":"0.07"},{"name":"A1","midi":33,"time":"129.60","velocity":0.9921259842519685,"duration":"0.07"},{"name":"G#2","midi":44,"time":"129.90","velocity":0.4409448818897638,"duration":"0.07"},{"name":"G1","midi":31,"time":"130.20","velocity":0.7874015748031497,"duration":"0.07"},{"name":"G#2","midi":44,"time":"130.20","velocity":0.7244094488188977,"duration":"0.07"},{"name":"A1","midi":33,"time":"130.20","velocity":1,"duration":"0.07"},{"name":"G#2","midi":44,"time":"130.50","velocity":0.4409448818897638,"duration":"0.07"},{"name":"G#2","midi":44,"time":"130.65","velocity":0.2440944881889764,"duration":"0.07"},{"name":"G#2","midi":44,"time":"130.80","velocity":0.7244094488188977,"duration":"0.07"},{"name":"A1","midi":33,"time":"130.80","velocity":0.9921259842519685,"duration":"0.07"},{"name":"G#2","midi":44,"time":"131.10","velocity":0.7244094488188977,"duration":"0.07"},{"name":"A1","midi":33,"time":"131.40","velocity":1,"duration":"0.07"},{"name":"G1","midi":31,"time":"131.40","velocity":0.7874015748031497,"duration":"0.07"},{"name":"G#2","midi":44,"time":"131.70","velocity":0.4409448818897638,"duration":"0.07"},{"name":"G#2","midi":44,"time":"131.85","velocity":0.2440944881889764,"duration":"0.07"},{"name":"G#2","midi":44,"time":"132.00","velocity":0.7244094488188977,"duration":"0.07"},{"name":"A1","midi":33,"time":"132.00","velocity":0.9921259842519685,"duration":"0.07"},{"name":"G#2","midi":44,"time":"132.30","velocity":0.4409448818897638,"duration":"0.07"},{"name":"G1","midi":31,"time":"132.60","velocity":0.7874015748031497,"duration":"0.07"},{"name":"G#2","midi":44,"time":"132.60","velocity":0.7244094488188977,"duration":"0.07"},{"name":"A1","midi":33,"time":"132.60","velocity":1,"duration":"0.07"},{"name":"G#2","midi":44,"time":"132.90","velocity":0.4409448818897638,"duration":"0.07"},{"name":"G#2","midi":44,"time":"133.05","velocity":0.2440944881889764,"duration":"0.07"},{"name":"G#2","midi":44,"time":"133.20","velocity":0.7244094488188977,"duration":"0.07"},{"name":"A1","midi":33,"time":"133.20","velocity":0.9921259842519685,"duration":"0.07"},{"name":"G#2","midi":44,"time":"133.50","velocity":0.7244094488188977,"duration":"0.07"},{"name":"A1","midi":33,"time":"133.80","velocity":1,"duration":"0.07"},{"name":"G1","midi":31,"time":"133.80","velocity":0.7874015748031497,"duration":"0.07"},{"name":"G#2","midi":44,"time":"134.10","velocity":0.4409448818897638,"duration":"0.07"},{"name":"G#2","midi":44,"time":"134.25","velocity":0.2440944881889764,"duration":"0.07"},{"name":"A1","midi":33,"time":"134.40","velocity":0.9921259842519685,"duration":"0.07"},{"name":"G#2","midi":44,"time":"134.40","velocity":0.7244094488188977,"duration":"0.07"},{"name":"G#2","midi":44,"time":"134.55","velocity":0.2677165354330709,"duration":"0.07"},{"name":"G#2","midi":44,"time":"134.70","velocity":0.4409448818897638,"duration":"0.07"},{"name":"G#2","midi":44,"time":"134.85","velocity":0.2440944881889764,"duration":"0.07"},{"name":"A1","midi":33,"time":"135.00","velocity":1,"duration":"0.07"},{"name":"G1","midi":31,"time":"135.00","velocity":0.7874015748031497,"duration":"0.07"},{"name":"G#2","midi":44,"time":"135.00","velocity":0.7244094488188977,"duration":"0.07"},{"name":"G#2","midi":44,"time":"135.30","velocity":0.4409448818897638,"duration":"0.07"},{"name":"G#2","midi":44,"time":"135.45","velocity":0.2440944881889764,"duration":"0.07"},{"name":"A1","midi":33,"time":"135.60","velocity":0.9921259842519685,"duration":"0.07"},{"name":"G#2","midi":44,"time":"135.60","velocity":0.7244094488188977,"duration":"0.07"},{"name":"G#2","midi":44,"time":"135.90","velocity":0.7244094488188977,"duration":"0.07"},{"name":"G1","midi":31,"time":"136.20","velocity":0.7874015748031497,"duration":"0.07"},{"name":"A1","midi":33,"time":"136.20","velocity":1,"duration":"0.07"},{"name":"G#2","midi":44,"time":"136.50","velocity":0.4409448818897638,"duration":"0.07"},{"name":"G#2","midi":44,"time":"136.65","velocity":0.2440944881889764,"duration":"0.07"},{"name":"G#2","midi":44,"time":"136.80","velocity":0.7244094488188977,"duration":"0.07"},{"name":"A1","midi":33,"time":"136.80","velocity":0.9921259842519685,"duration":"0.07"},{"name":"G#2","midi":44,"time":"137.10","velocity":0.4409448818897638,"duration":"0.07"},{"name":"A1","midi":33,"time":"137.40","velocity":1,"duration":"0.07"},{"name":"G#2","midi":44,"time":"137.40","velocity":0.7244094488188977,"duration":"0.07"},{"name":"G1","midi":31,"time":"137.40","velocity":0.7874015748031497,"duration":"0.07"},{"name":"G#2","midi":44,"time":"137.70","velocity":0.4409448818897638,"duration":"0.07"},{"name":"G#2","midi":44,"time":"137.85","velocity":0.2440944881889764,"duration":"0.07"},{"name":"G#2","midi":44,"time":"138.00","velocity":0.7244094488188977,"duration":"0.07"},{"name":"A1","midi":33,"time":"138.00","velocity":0.9921259842519685,"duration":"0.07"},{"name":"G#2","midi":44,"time":"138.30","velocity":0.7244094488188977,"duration":"0.07"},{"name":"A1","midi":33,"time":"138.60","velocity":1,"duration":"0.07"},{"name":"G1","midi":31,"time":"138.60","velocity":0.7874015748031497,"duration":"0.07"},{"name":"G#2","midi":44,"time":"138.90","velocity":0.4409448818897638,"duration":"0.07"},{"name":"G#2","midi":44,"time":"139.05","velocity":0.2440944881889764,"duration":"0.07"},{"name":"A1","midi":33,"time":"139.20","velocity":0.9921259842519685,"duration":"0.07"},{"name":"G#2","midi":44,"time":"139.20","velocity":0.7244094488188977,"duration":"0.07"},{"name":"G#2","midi":44,"time":"139.50","velocity":0.4409448818897638,"duration":"0.07"},{"name":"A1","midi":33,"time":"139.80","velocity":1,"duration":"0.07"},{"name":"G#2","midi":44,"time":"139.80","velocity":0.7244094488188977,"duration":"0.07"},{"name":"G1","midi":31,"time":"139.80","velocity":0.7874015748031497,"duration":"0.07"},{"name":"G#2","midi":44,"time":"140.10","velocity":0.4409448818897638,"duration":"0.07"},{"name":"G#2","midi":44,"time":"140.25","velocity":0.2440944881889764,"duration":"0.07"},{"name":"G#2","midi":44,"time":"140.40","velocity":0.7244094488188977,"duration":"0.07"},{"name":"A1","midi":33,"time":"140.40","velocity":0.9921259842519685,"duration":"0.07"},{"name":"G#2","midi":44,"time":"140.70","velocity":0.7244094488188977,"duration":"0.07"},{"name":"G1","midi":31,"time":"141.00","velocity":0.7874015748031497,"duration":"0.07"},{"name":"A1","midi":33,"time":"141.00","velocity":1,"duration":"0.07"},{"name":"G#2","midi":44,"time":"141.30","velocity":0.4409448818897638,"duration":"0.07"},{"name":"G#2","midi":44,"time":"141.45","velocity":0.2440944881889764,"duration":"0.07"},{"name":"A1","midi":33,"time":"141.60","velocity":0.9921259842519685,"duration":"0.07"},{"name":"G#2","midi":44,"time":"141.60","velocity":0.7244094488188977,"duration":"0.07"},{"name":"G#2","midi":44,"time":"141.90","velocity":0.4409448818897638,"duration":"0.07"},{"name":"A1","midi":33,"time":"142.20","velocity":1,"duration":"0.07"},{"name":"G1","midi":31,"time":"142.20","velocity":0.7874015748031497,"duration":"0.07"},{"name":"G#2","midi":44,"time":"142.20","velocity":0.7244094488188977,"duration":"0.07"},{"name":"G#2","midi":44,"time":"142.50","velocity":0.4409448818897638,"duration":"0.07"},{"name":"G#2","midi":44,"time":"142.65","velocity":0.2440944881889764,"duration":"0.07"},{"name":"A1","midi":33,"time":"142.80","velocity":0.9921259842519685,"duration":"0.07"},{"name":"G#2","midi":44,"time":"142.80","velocity":0.7244094488188977,"duration":"0.07"},{"name":"G#2","midi":44,"time":"143.10","velocity":0.7244094488188977,"duration":"0.07"},{"name":"G1","midi":31,"time":"143.40","velocity":0.7874015748031497,"duration":"0.07"},{"name":"A1","midi":33,"time":"143.40","velocity":1,"duration":"0.07"},{"name":"G#2","midi":44,"time":"143.70","velocity":0.4409448818897638,"duration":"0.07"},{"name":"G#2","midi":44,"time":"143.85","velocity":0.2440944881889764,"duration":"0.07"},{"name":"A3","midi":57,"time":"144.00","velocity":0.33858267716535434,"duration":"0.07"},{"name":"A1","midi":33,"time":"144.00","velocity":0.9921259842519685,"duration":"0.07"},{"name":"G#2","midi":44,"time":"144.00","velocity":0.7244094488188977,"duration":"0.07"},{"name":"F#3","midi":54,"time":"144.00","velocity":0.2992125984251969,"duration":"0.07"},{"name":"F#3","midi":54,"time":"144.14","velocity":0.18110236220472442,"duration":"0.07"},{"name":"F#3","midi":54,"time":"144.29","velocity":0.14960629921259844,"duration":"0.07"},{"name":"G#2","midi":44,"time":"144.30","velocity":0.4409448818897638,"duration":"0.07"},{"name":"F#3","midi":54,"time":"144.44","velocity":0.1968503937007874,"duration":"0.07"},{"name":"F#3","midi":54,"time":"144.58","velocity":0.2992125984251969,"duration":"0.07"},{"name":"A1","midi":33,"time":"144.60","velocity":1,"duration":"0.07"},{"name":"G#2","midi":44,"time":"144.60","velocity":0.7244094488188977,"duration":"0.07"},{"name":"G1","midi":31,"time":"144.60","velocity":0.7874015748031497,"duration":"0.07"},{"name":"F#3","midi":54,"time":"144.74","velocity":0.1732283464566929,"duration":"0.07"},{"name":"F#3","midi":54,"time":"144.89","velocity":0.14173228346456693,"duration":"0.07"},{"name":"G#2","midi":44,"time":"144.90","velocity":0.4409448818897638,"duration":"0.07"},{"name":"F#3","midi":54,"time":"145.04","velocity":0.1889763779527559,"duration":"0.07"},{"name":"G#2","midi":44,"time":"145.05","velocity":0.2440944881889764,"duration":"0.07"},{"name":"F#3","midi":54,"time":"145.19","velocity":0.2992125984251969,"duration":"0.07"},{"name":"A1","midi":33,"time":"145.20","velocity":0.9921259842519685,"duration":"0.07"},{"name":"G#2","midi":44,"time":"145.20","velocity":0.7244094488188977,"duration":"0.07"},{"name":"F#3","midi":54,"time":"145.34","velocity":0.1889763779527559,"duration":"0.07"},{"name":"F#3","midi":54,"time":"145.49","velocity":0.1732283464566929,"duration":"0.07"},{"name":"G#2","midi":44,"time":"145.50","velocity":0.7244094488188977,"duration":"0.07"},{"name":"F#3","midi":54,"time":"145.64","velocity":0.2047244094488189,"duration":"0.07"},{"name":"F#3","midi":54,"time":"145.79","velocity":0.2992125984251969,"duration":"0.07"},{"name":"G1","midi":31,"time":"145.80","velocity":0.7874015748031497,"duration":"0.07"},{"name":"A1","midi":33,"time":"145.80","velocity":1,"duration":"0.07"},{"name":"F#3","midi":54,"time":"145.94","velocity":0.2047244094488189,"duration":"0.07"},{"name":"F#3","midi":54,"time":"146.09","velocity":0.1889763779527559,"duration":"0.07"},{"name":"G#2","midi":44,"time":"146.10","velocity":0.4409448818897638,"duration":"0.07"},{"name":"F#3","midi":54,"time":"146.24","velocity":0.25196850393700787,"duration":"0.07"},{"name":"G#2","midi":44,"time":"146.25","velocity":0.2440944881889764,"duration":"0.07"},{"name":"A1","midi":33,"time":"146.40","velocity":0.9921259842519685,"duration":"0.07"},{"name":"G#2","midi":44,"time":"146.40","velocity":0.7244094488188977,"duration":"0.07"},{"name":"F#3","midi":54,"time":"146.40","velocity":0.2992125984251969,"duration":"0.07"},{"name":"F#3","midi":54,"time":"146.54","velocity":0.18110236220472442,"duration":"0.07"},{"name":"F#3","midi":54,"time":"146.69","velocity":0.14960629921259844,"duration":"0.07"},{"name":"G#2","midi":44,"time":"146.70","velocity":0.4409448818897638,"duration":"0.07"},{"name":"F#3","midi":54,"time":"146.84","velocity":0.1968503937007874,"duration":"0.07"},{"name":"F#3","midi":54,"time":"146.98","velocity":0.2992125984251969,"duration":"0.07"},{"name":"G#2","midi":44,"time":"147.00","velocity":0.7244094488188977,"duration":"0.07"},{"name":"A1","midi":33,"time":"147.00","velocity":1,"duration":"0.07"},{"name":"G1","midi":31,"time":"147.00","velocity":0.7874015748031497,"duration":"0.07"},{"name":"F#3","midi":54,"time":"147.14","velocity":0.1732283464566929,"duration":"0.07"},{"name":"F#3","midi":54,"time":"147.29","velocity":0.14173228346456693,"duration":"0.07"},{"name":"G#2","midi":44,"time":"147.30","velocity":0.4409448818897638,"duration":"0.07"},{"name":"F#3","midi":54,"time":"147.44","velocity":0.1889763779527559,"duration":"0.07"},{"name":"G#2","midi":44,"time":"147.45","velocity":0.2440944881889764,"duration":"0.07"},{"name":"F#3","midi":54,"time":"147.59","velocity":0.2992125984251969,"duration":"0.07"},{"name":"A1","midi":33,"time":"147.60","velocity":0.9921259842519685,"duration":"0.07"},{"name":"G#2","midi":44,"time":"147.60","velocity":0.7244094488188977,"duration":"0.07"},{"name":"F#3","midi":54,"time":"147.74","velocity":0.1889763779527559,"duration":"0.07"},{"name":"F#3","midi":54,"time":"147.89","velocity":0.1732283464566929,"duration":"0.07"},{"name":"G#2","midi":44,"time":"147.90","velocity":0.7244094488188977,"duration":"0.07"},{"name":"F#3","midi":54,"time":"148.04","velocity":0.2047244094488189,"duration":"0.07"},{"name":"F#3","midi":54,"time":"148.19","velocity":0.2992125984251969,"duration":"0.07"},{"name":"G1","midi":31,"time":"148.20","velocity":0.7874015748031497,"duration":"0.07"},{"name":"A1","midi":33,"time":"148.20","velocity":1,"duration":"0.07"},{"name":"F#3","midi":54,"time":"148.34","velocity":0.2047244094488189,"duration":"0.07"},{"name":"F#3","midi":54,"time":"148.49","velocity":0.1889763779527559,"duration":"0.07"},{"name":"G#2","midi":44,"time":"148.50","velocity":0.4409448818897638,"duration":"0.07"},{"name":"F#3","midi":54,"time":"148.64","velocity":0.25196850393700787,"duration":"0.07"},{"name":"G#2","midi":44,"time":"148.65","velocity":0.2440944881889764,"duration":"0.07"},{"name":"G#2","midi":44,"time":"148.80","velocity":0.7244094488188977,"duration":"0.07"},{"name":"A1","midi":33,"time":"148.80","velocity":0.9921259842519685,"duration":"0.07"},{"name":"F#3","midi":54,"time":"148.80","velocity":0.2992125984251969,"duration":"0.07"},{"name":"F#3","midi":54,"time":"148.94","velocity":0.18110236220472442,"duration":"0.07"},{"name":"G#2","midi":44,"time":"148.95","velocity":0.2677165354330709,"duration":"0.07"},{"name":"F#3","midi":54,"time":"149.09","velocity":0.14960629921259844,"duration":"0.07"},{"name":"G#2","midi":44,"time":"149.10","velocity":0.4409448818897638,"duration":"0.07"},{"name":"F#3","midi":54,"time":"149.24","velocity":0.1968503937007874,"duration":"0.07"},{"name":"G#2","midi":44,"time":"149.25","velocity":0.2440944881889764,"duration":"0.07"},{"name":"F#3","midi":54,"time":"149.38","velocity":0.2992125984251969,"duration":"0.07"},{"name":"G1","midi":31,"time":"149.40","velocity":0.7874015748031497,"duration":"0.07"},{"name":"A1","midi":33,"time":"149.40","velocity":1,"duration":"0.07"},{"name":"G#2","midi":44,"time":"149.40","velocity":0.7244094488188977,"duration":"0.07"},{"name":"F#3","midi":54,"time":"149.54","velocity":0.1732283464566929,"duration":"0.07"},{"name":"F#3","midi":54,"time":"149.69","velocity":0.14173228346456693,"duration":"0.07"},{"name":"G#2","midi":44,"time":"149.70","velocity":0.4409448818897638,"duration":"0.07"},{"name":"F#3","midi":54,"time":"149.84","velocity":0.1889763779527559,"duration":"0.07"},{"name":"G#2","midi":44,"time":"149.85","velocity":0.2440944881889764,"duration":"0.07"},{"name":"F#3","midi":54,"time":"149.99","velocity":0.2992125984251969,"duration":"0.07"},{"name":"G#2","midi":44,"time":"150.00","velocity":0.7244094488188977,"duration":"0.07"},{"name":"A1","midi":33,"time":"150.00","velocity":0.9921259842519685,"duration":"0.07"},{"name":"F#3","midi":54,"time":"150.14","velocity":0.1889763779527559,"duration":"0.07"},{"name":"F#3","midi":54,"time":"150.29","velocity":0.1732283464566929,"duration":"0.07"},{"name":"G#2","midi":44,"time":"150.30","velocity":0.7244094488188977,"duration":"0.07"},{"name":"F#3","midi":54,"time":"150.44","velocity":0.2047244094488189,"duration":"0.07"},{"name":"F#3","midi":54,"time":"150.59","velocity":0.2992125984251969,"duration":"0.07"},{"name":"A1","midi":33,"time":"150.60","velocity":1,"duration":"0.07"},{"name":"G1","midi":31,"time":"150.60","velocity":0.7874015748031497,"duration":"0.07"},{"name":"F#3","midi":54,"time":"150.74","velocity":0.2047244094488189,"duration":"0.07"},{"name":"F#3","midi":54,"time":"150.89","velocity":0.1889763779527559,"duration":"0.07"},{"name":"G#2","midi":44,"time":"150.90","velocity":0.4409448818897638,"duration":"0.07"},{"name":"F#3","midi":54,"time":"151.04","velocity":0.25196850393700787,"duration":"0.07"},{"name":"G#2","midi":44,"time":"151.05","velocity":0.2440944881889764,"duration":"0.07"},{"name":"G#2","midi":44,"time":"151.20","velocity":0.7244094488188977,"duration":"0.07"},{"name":"F#3","midi":54,"time":"151.20","velocity":0.2992125984251969,"duration":"0.07"},{"name":"A1","midi":33,"time":"151.20","velocity":0.9921259842519685,"duration":"0.07"},{"name":"F#3","midi":54,"time":"151.34","velocity":0.18110236220472442,"duration":"0.07"},{"name":"F#3","midi":54,"time":"151.49","velocity":0.14960629921259844,"duration":"0.07"},{"name":"G#2","midi":44,"time":"151.50","velocity":0.4409448818897638,"duration":"0.07"},{"name":"F#3","midi":54,"time":"151.64","velocity":0.1968503937007874,"duration":"0.07"},{"name":"F#3","midi":54,"time":"151.78","velocity":0.2992125984251969,"duration":"0.07"},{"name":"A1","midi":33,"time":"151.80","velocity":1,"duration":"0.07"},{"name":"G1","midi":31,"time":"151.80","velocity":0.7874015748031497,"duration":"0.07"},{"name":"G#2","midi":44,"time":"151.80","velocity":0.7244094488188977,"duration":"0.07"},{"name":"F#3","midi":54,"time":"151.94","velocity":0.1732283464566929,"duration":"0.07"},{"name":"F#3","midi":54,"time":"152.09","velocity":0.14173228346456693,"duration":"0.07"},{"name":"G#2","midi":44,"time":"152.10","velocity":0.4409448818897638,"duration":"0.07"},{"name":"F#3","midi":54,"time":"152.24","velocity":0.1889763779527559,"duration":"0.07"},{"name":"G#2","midi":44,"time":"152.25","velocity":0.2440944881889764,"duration":"0.07"},{"name":"F#3","midi":54,"time":"152.39","velocity":0.2992125984251969,"duration":"0.07"},{"name":"G#2","midi":44,"time":"152.40","velocity":0.7244094488188977,"duration":"0.07"},{"name":"A1","midi":33,"time":"152.40","velocity":0.9921259842519685,"duration":"0.07"},{"name":"F#3","midi":54,"time":"152.54","velocity":0.1889763779527559,"duration":"0.07"},{"name":"F#3","midi":54,"time":"152.69","velocity":0.1732283464566929,"duration":"0.07"},{"name":"G#2","midi":44,"time":"152.70","velocity":0.7244094488188977,"duration":"0.07"},{"name":"F#3","midi":54,"time":"152.84","velocity":0.2047244094488189,"duration":"0.07"},{"name":"F#3","midi":54,"time":"152.99","velocity":0.2992125984251969,"duration":"0.07"},{"name":"G1","midi":31,"time":"153.00","velocity":0.7874015748031497,"duration":"0.07"},{"name":"A1","midi":33,"time":"153.00","velocity":1,"duration":"0.07"},{"name":"F#3","midi":54,"time":"153.14","velocity":0.2047244094488189,"duration":"0.07"},{"name":"F#3","midi":54,"time":"153.29","velocity":0.1889763779527559,"duration":"0.07"},{"name":"G#2","midi":44,"time":"153.30","velocity":0.4409448818897638,"duration":"0.07"},{"name":"F#3","midi":54,"time":"153.44","velocity":0.25196850393700787,"duration":"0.07"},{"name":"G#2","midi":44,"time":"153.45","velocity":0.2440944881889764,"duration":"0.07"},{"name":"A1","midi":33,"time":"153.60","velocity":0.9921259842519685,"duration":"0.07"},{"name":"G#2","midi":44,"time":"153.60","velocity":0.7244094488188977,"duration":"0.07"},{"name":"F#3","midi":54,"time":"153.60","velocity":0.2992125984251969,"duration":"0.07"},{"name":"F#3","midi":54,"time":"153.74","velocity":0.18110236220472442,"duration":"0.07"},{"name":"F#3","midi":54,"time":"153.89","velocity":0.14960629921259844,"duration":"0.07"},{"name":"G#2","midi":44,"time":"153.90","velocity":0.4409448818897638,"duration":"0.07"},{"name":"F#3","midi":54,"time":"154.04","velocity":0.1968503937007874,"duration":"0.07"},{"name":"F#3","midi":54,"time":"154.18","velocity":0.2992125984251969,"duration":"0.07"},{"name":"A1","midi":33,"time":"154.20","velocity":1,"duration":"0.07"},{"name":"G#2","midi":44,"time":"154.20","velocity":0.7244094488188977,"duration":"0.07"},{"name":"G1","midi":31,"time":"154.20","velocity":0.7874015748031497,"duration":"0.07"},{"name":"F#3","midi":54,"time":"154.34","velocity":0.1732283464566929,"duration":"0.07"},{"name":"F#3","midi":54,"time":"154.49","velocity":0.14173228346456693,"duration":"0.07"},{"name":"G#2","midi":44,"time":"154.50","velocity":0.4409448818897638,"duration":"0.07"},{"name":"F#3","midi":54,"time":"154.64","velocity":0.1889763779527559,"duration":"0.07"},{"name":"G#2","midi":44,"time":"154.65","velocity":0.2440944881889764,"duration":"0.07"},{"name":"F#3","midi":54,"time":"154.79","velocity":0.2992125984251969,"duration":"0.07"},{"name":"G#2","midi":44,"time":"154.80","velocity":0.7244094488188977,"duration":"0.07"},{"name":"A1","midi":33,"time":"154.80","velocity":0.9921259842519685,"duration":"0.07"},{"name":"F#3","midi":54,"time":"154.94","velocity":0.1889763779527559,"duration":"0.07"},{"name":"F#3","midi":54,"time":"155.09","velocity":0.1732283464566929,"duration":"0.07"},{"name":"G#2","midi":44,"time":"155.10","velocity":0.7244094488188977,"duration":"0.07"},{"name":"F#3","midi":54,"time":"155.24","velocity":0.2047244094488189,"duration":"0.07"},{"name":"F#3","midi":54,"time":"155.39","velocity":0.2992125984251969,"duration":"0.07"},{"name":"A1","midi":33,"time":"155.40","velocity":1,"duration":"0.07"},{"name":"G1","midi":31,"time":"155.40","velocity":0.7874015748031497,"duration":"0.07"},{"name":"F#3","midi":54,"time":"155.54","velocity":0.2047244094488189,"duration":"0.07"},{"name":"F#3","midi":54,"time":"155.69","velocity":0.1889763779527559,"duration":"0.07"},{"name":"G#2","midi":44,"time":"155.70","velocity":0.4409448818897638,"duration":"0.07"},{"name":"F#3","midi":54,"time":"155.84","velocity":0.25196850393700787,"duration":"0.07"},{"name":"G#2","midi":44,"time":"155.85","velocity":0.2440944881889764,"duration":"0.07"},{"name":"G#2","midi":44,"time":"156.00","velocity":0.7244094488188977,"duration":"0.07"},{"name":"A1","midi":33,"time":"156.00","velocity":0.9921259842519685,"duration":"0.07"},{"name":"F#3","midi":54,"time":"156.00","velocity":0.2992125984251969,"duration":"0.07"},{"name":"F#3","midi":54,"time":"156.14","velocity":0.18110236220472442,"duration":"0.07"},{"name":"F#3","midi":54,"time":"156.29","velocity":0.14960629921259844,"duration":"0.07"},{"name":"G#2","midi":44,"time":"156.30","velocity":0.4409448818897638,"duration":"0.07"},{"name":"F#3","midi":54,"time":"156.44","velocity":0.1968503937007874,"duration":"0.07"},{"name":"F#3","midi":54,"time":"156.58","velocity":0.2992125984251969,"duration":"0.07"},{"name":"A1","midi":33,"time":"156.60","velocity":1,"duration":"0.07"},{"name":"G#2","midi":44,"time":"156.60","velocity":0.7244094488188977,"duration":"0.07"},{"name":"G1","midi":31,"time":"156.60","velocity":0.7874015748031497,"duration":"0.07"},{"name":"F#3","midi":54,"time":"156.74","velocity":0.1732283464566929,"duration":"0.07"},{"name":"F#3","midi":54,"time":"156.89","velocity":0.14173228346456693,"duration":"0.07"},{"name":"G#2","midi":44,"time":"156.90","velocity":0.4409448818897638,"duration":"0.07"},{"name":"F#3","midi":54,"time":"157.04","velocity":0.1889763779527559,"duration":"0.07"},{"name":"G#2","midi":44,"time":"157.05","velocity":0.2440944881889764,"duration":"0.07"},{"name":"F#3","midi":54,"time":"157.19","velocity":0.2992125984251969,"duration":"0.07"},{"name":"A1","midi":33,"time":"157.20","velocity":0.9921259842519685,"duration":"0.07"},{"name":"G#2","midi":44,"time":"157.20","velocity":0.7244094488188977,"duration":"0.07"},{"name":"F#3","midi":54,"time":"157.34","velocity":0.1889763779527559,"duration":"0.07"},{"name":"F#3","midi":54,"time":"157.49","velocity":0.1732283464566929,"duration":"0.07"},{"name":"G#2","midi":44,"time":"157.50","velocity":0.7244094488188977,"duration":"0.07"},{"name":"F#3","midi":54,"time":"157.64","velocity":0.2047244094488189,"duration":"0.07"},{"name":"F#3","midi":54,"time":"157.79","velocity":0.2992125984251969,"duration":"0.07"},{"name":"G1","midi":31,"time":"157.80","velocity":0.7874015748031497,"duration":"0.07"},{"name":"A1","midi":33,"time":"157.80","velocity":1,"duration":"0.07"},{"name":"F#3","midi":54,"time":"157.94","velocity":0.2047244094488189,"duration":"0.07"},{"name":"F#3","midi":54,"time":"158.09","velocity":0.1889763779527559,"duration":"0.07"},{"name":"G#2","midi":44,"time":"158.10","velocity":0.4409448818897638,"duration":"0.07"},{"name":"F#3","midi":54,"time":"158.24","velocity":0.25196850393700787,"duration":"0.07"},{"name":"G#2","midi":44,"time":"158.25","velocity":0.2440944881889764,"duration":"0.07"},{"name":"A1","midi":33,"time":"158.40","velocity":0.9921259842519685,"duration":"0.07"},{"name":"G#2","midi":44,"time":"158.40","velocity":0.7244094488188977,"duration":"0.07"},{"name":"F#3","midi":54,"time":"158.40","velocity":0.2992125984251969,"duration":"0.07"},{"name":"F#3","midi":54,"time":"158.54","velocity":0.18110236220472442,"duration":"0.07"},{"name":"G#2","midi":44,"time":"158.55","velocity":0.2677165354330709,"duration":"0.07"},{"name":"F#3","midi":54,"time":"158.69","velocity":0.14960629921259844,"duration":"0.07"},{"name":"G#2","midi":44,"time":"158.70","velocity":0.4409448818897638,"duration":"0.07"},{"name":"F#3","midi":54,"time":"158.84","velocity":0.1968503937007874,"duration":"0.07"},{"name":"G#2","midi":44,"time":"158.85","velocity":0.2440944881889764,"duration":"0.07"},{"name":"F#3","midi":54,"time":"158.98","velocity":0.2992125984251969,"duration":"0.07"},{"name":"G1","midi":31,"time":"159.00","velocity":0.7874015748031497,"duration":"0.07"},{"name":"A1","midi":33,"time":"159.00","velocity":1,"duration":"0.07"},{"name":"G#2","midi":44,"time":"159.00","velocity":0.7244094488188977,"duration":"0.07"},{"name":"F#3","midi":54,"time":"159.14","velocity":0.1732283464566929,"duration":"0.07"},{"name":"F#3","midi":54,"time":"159.29","velocity":0.14173228346456693,"duration":"0.07"},{"name":"G#2","midi":44,"time":"159.30","velocity":0.4409448818897638,"duration":"0.07"},{"name":"F#3","midi":54,"time":"159.44","velocity":0.1889763779527559,"duration":"0.07"},{"name":"G#2","midi":44,"time":"159.45","velocity":0.2440944881889764,"duration":"0.07"},{"name":"F#3","midi":54,"time":"159.59","velocity":0.2992125984251969,"duration":"0.07"},{"name":"G#2","midi":44,"time":"159.60","velocity":0.7244094488188977,"duration":"0.07"},{"name":"A1","midi":33,"time":"159.60","velocity":0.9921259842519685,"duration":"0.07"},{"name":"F#3","midi":54,"time":"159.74","velocity":0.1889763779527559,"duration":"0.07"},{"name":"F#3","midi":54,"time":"159.89","velocity":0.1732283464566929,"duration":"0.07"},{"name":"G#2","midi":44,"time":"159.90","velocity":0.7244094488188977,"duration":"0.07"},{"name":"F#3","midi":54,"time":"160.04","velocity":0.2047244094488189,"duration":"0.07"},{"name":"F#3","midi":54,"time":"160.19","velocity":0.2992125984251969,"duration":"0.07"},{"name":"G1","midi":31,"time":"160.20","velocity":0.7874015748031497,"duration":"0.07"},{"name":"A1","midi":33,"time":"160.20","velocity":1,"duration":"0.07"},{"name":"F#3","midi":54,"time":"160.34","velocity":0.2047244094488189,"duration":"0.07"},{"name":"F#3","midi":54,"time":"160.49","velocity":0.1889763779527559,"duration":"0.07"},{"name":"G#2","midi":44,"time":"160.50","velocity":0.4409448818897638,"duration":"0.07"},{"name":"F#3","midi":54,"time":"160.64","velocity":0.25196850393700787,"duration":"0.07"},{"name":"G#2","midi":44,"time":"160.65","velocity":0.2440944881889764,"duration":"0.07"},{"name":"G#2","midi":44,"time":"160.80","velocity":0.7244094488188977,"duration":"0.07"},{"name":"A1","midi":33,"time":"160.80","velocity":0.9921259842519685,"duration":"0.07"},{"name":"F#3","midi":54,"time":"160.80","velocity":0.2992125984251969,"duration":"0.07"},{"name":"F#3","midi":54,"time":"160.94","velocity":0.18110236220472442,"duration":"0.07"},{"name":"F#3","midi":54,"time":"161.09","velocity":0.14960629921259844,"duration":"0.07"},{"name":"G#2","midi":44,"time":"161.10","velocity":0.4409448818897638,"duration":"0.07"},{"name":"F#3","midi":54,"time":"161.24","velocity":0.1968503937007874,"duration":"0.07"},{"name":"F#3","midi":54,"time":"161.38","velocity":0.2992125984251969,"duration":"0.07"},{"name":"G1","midi":31,"time":"161.40","velocity":0.7874015748031497,"duration":"0.07"},{"name":"A1","midi":33,"time":"161.40","velocity":1,"duration":"0.07"},{"name":"G#2","midi":44,"time":"161.40","velocity":0.7244094488188977,"duration":"0.07"},{"name":"F#3","midi":54,"time":"161.54","velocity":0.1732283464566929,"duration":"0.07"},{"name":"F#3","midi":54,"time":"161.69","velocity":0.14173228346456693,"duration":"0.07"},{"name":"G#2","midi":44,"time":"161.70","velocity":0.4409448818897638,"duration":"0.07"},{"name":"F#3","midi":54,"time":"161.84","velocity":0.1889763779527559,"duration":"0.07"},{"name":"G#2","midi":44,"time":"161.85","velocity":0.2440944881889764,"duration":"0.07"},{"name":"F#3","midi":54,"time":"161.99","velocity":0.2992125984251969,"duration":"0.07"},{"name":"A1","midi":33,"time":"162.00","velocity":0.9921259842519685,"duration":"0.07"},{"name":"G#2","midi":44,"time":"162.00","velocity":0.7244094488188977,"duration":"0.07"},{"name":"F#3","midi":54,"time":"162.14","velocity":0.1889763779527559,"duration":"0.07"},{"name":"F#3","midi":54,"time":"162.29","velocity":0.1732283464566929,"duration":"0.07"},{"name":"G#2","midi":44,"time":"162.30","velocity":0.7244094488188977,"duration":"0.07"},{"name":"F#3","midi":54,"time":"162.44","velocity":0.2047244094488189,"duration":"0.07"},{"name":"F#3","midi":54,"time":"162.59","velocity":0.2992125984251969,"duration":"0.07"},{"name":"A1","midi":33,"time":"162.60","velocity":1,"duration":"0.07"},{"name":"G1","midi":31,"time":"162.60","velocity":0.7874015748031497,"duration":"0.07"},{"name":"F#3","midi":54,"time":"162.74","velocity":0.2047244094488189,"duration":"0.07"},{"name":"F#3","midi":54,"time":"162.89","velocity":0.1889763779527559,"duration":"0.07"},{"name":"G#2","midi":44,"time":"162.90","velocity":0.4409448818897638,"duration":"0.07"},{"name":"F#3","midi":54,"time":"163.04","velocity":0.25196850393700787,"duration":"0.07"},{"name":"G#2","midi":44,"time":"163.05","velocity":0.2440944881889764,"duration":"0.07"},{"name":"G#2","midi":44,"time":"163.20","velocity":0.7244094488188977,"duration":"0.07"},{"name":"A1","midi":33,"time":"163.20","velocity":0.9921259842519685,"duration":"0.07"},{"name":"F#3","midi":54,"time":"163.20","velocity":0.2992125984251969,"duration":"0.07"},{"name":"F#3","midi":54,"time":"163.34","velocity":0.18110236220472442,"duration":"0.07"},{"name":"F#3","midi":54,"time":"163.49","velocity":0.14960629921259844,"duration":"0.07"},{"name":"G#2","midi":44,"time":"163.50","velocity":0.4409448818897638,"duration":"0.07"},{"name":"F#3","midi":54,"time":"163.64","velocity":0.1968503937007874,"duration":"0.07"},{"name":"F#3","midi":54,"time":"163.78","velocity":0.2992125984251969,"duration":"0.07"},{"name":"G#2","midi":44,"time":"163.80","velocity":0.7244094488188977,"duration":"0.07"},{"name":"G1","midi":31,"time":"163.80","velocity":0.7874015748031497,"duration":"0.07"},{"name":"A1","midi":33,"time":"163.80","velocity":1,"duration":"0.07"},{"name":"F#3","midi":54,"time":"163.94","velocity":0.1732283464566929,"duration":"0.07"},{"name":"F#3","midi":54,"time":"164.09","velocity":0.14173228346456693,"duration":"0.07"},{"name":"G#2","midi":44,"time":"164.10","velocity":0.4409448818897638,"duration":"0.07"},{"name":"F#3","midi":54,"time":"164.24","velocity":0.1889763779527559,"duration":"0.07"},{"name":"G#2","midi":44,"time":"164.25","velocity":0.2440944881889764,"duration":"0.07"},{"name":"F#3","midi":54,"time":"164.39","velocity":0.2992125984251969,"duration":"0.07"},{"name":"G#2","midi":44,"time":"164.40","velocity":0.7244094488188977,"duration":"0.07"},{"name":"A1","midi":33,"time":"164.40","velocity":0.9921259842519685,"duration":"0.07"},{"name":"F#3","midi":54,"time":"164.54","velocity":0.1889763779527559,"duration":"0.07"},{"name":"F#3","midi":54,"time":"164.69","velocity":0.1732283464566929,"duration":"0.07"},{"name":"G#2","midi":44,"time":"164.70","velocity":0.7244094488188977,"duration":"0.07"},{"name":"F#3","midi":54,"time":"164.84","velocity":0.2047244094488189,"duration":"0.07"},{"name":"F#3","midi":54,"time":"164.99","velocity":0.2992125984251969,"duration":"0.07"},{"name":"A1","midi":33,"time":"165.00","velocity":1,"duration":"0.07"},{"name":"G1","midi":31,"time":"165.00","velocity":0.7874015748031497,"duration":"0.07"},{"name":"F#3","midi":54,"time":"165.14","velocity":0.2047244094488189,"duration":"0.07"},{"name":"F#3","midi":54,"time":"165.29","velocity":0.1889763779527559,"duration":"0.07"},{"name":"G#2","midi":44,"time":"165.30","velocity":0.4409448818897638,"duration":"0.07"},{"name":"F#3","midi":54,"time":"165.44","velocity":0.25196850393700787,"duration":"0.07"},{"name":"G#2","midi":44,"time":"165.45","velocity":0.2440944881889764,"duration":"0.07"},{"name":"A1","midi":33,"time":"165.60","velocity":1,"duration":"0.07"},{"name":"A1","midi":33,"time":"168.00","velocity":0.9921259842519685,"duration":"0.07"},{"name":"G#2","midi":44,"time":"168.00","velocity":0.7244094488188977,"duration":"0.07"},{"name":"F#3","midi":54,"time":"168.00","velocity":0.2992125984251969,"duration":"0.07"},{"name":"F#3","midi":54,"time":"168.14","velocity":0.18110236220472442,"duration":"0.07"},{"name":"F#3","midi":54,"time":"168.29","velocity":0.14960629921259844,"duration":"0.07"},{"name":"G#2","midi":44,"time":"168.30","velocity":0.4409448818897638,"duration":"0.07"},{"name":"F#3","midi":54,"time":"168.44","velocity":0.1968503937007874,"duration":"0.07"},{"name":"F#3","midi":54,"time":"168.58","velocity":0.2992125984251969,"duration":"0.07"},{"name":"A1","midi":33,"time":"168.60","velocity":1,"duration":"0.07"},{"name":"G#2","midi":44,"time":"168.60","velocity":0.7244094488188977,"duration":"0.07"},{"name":"G1","midi":31,"time":"168.60","velocity":0.7874015748031497,"duration":"0.07"},{"name":"F#3","midi":54,"time":"168.74","velocity":0.1732283464566929,"duration":"0.07"},{"name":"F#3","midi":54,"time":"168.89","velocity":0.14173228346456693,"duration":"0.07"},{"name":"G#2","midi":44,"time":"168.90","velocity":0.4409448818897638,"duration":"0.07"},{"name":"F#3","midi":54,"time":"169.04","velocity":0.1889763779527559,"duration":"0.07"},{"name":"G#2","midi":44,"time":"169.05","velocity":0.2440944881889764,"duration":"0.07"},{"name":"F#3","midi":54,"time":"169.19","velocity":0.2992125984251969,"duration":"0.07"},{"name":"G#2","midi":44,"time":"169.20","velocity":0.7244094488188977,"duration":"0.07"},{"name":"A1","midi":33,"time":"169.20","velocity":0.9921259842519685,"duration":"0.07"},{"name":"F#3","midi":54,"time":"169.34","velocity":0.1889763779527559,"duration":"0.07"},{"name":"F#3","midi":54,"time":"169.49","velocity":0.1732283464566929,"duration":"0.07"},{"name":"G#2","midi":44,"time":"169.50","velocity":0.7244094488188977,"duration":"0.07"},{"name":"F#3","midi":54,"time":"169.64","velocity":0.2047244094488189,"duration":"0.07"},{"name":"F#3","midi":54,"time":"169.79","velocity":0.2992125984251969,"duration":"0.07"},{"name":"A1","midi":33,"time":"169.80","velocity":1,"duration":"0.07"},{"name":"G1","midi":31,"time":"169.80","velocity":0.7874015748031497,"duration":"0.07"},{"name":"F#3","midi":54,"time":"169.94","velocity":0.2047244094488189,"duration":"0.07"},{"name":"F#3","midi":54,"time":"170.09","velocity":0.1889763779527559,"duration":"0.07"},{"name":"G#2","midi":44,"time":"170.10","velocity":0.4409448818897638,"duration":"0.07"},{"name":"F#3","midi":54,"time":"170.24","velocity":0.25196850393700787,"duration":"0.07"},{"name":"G#2","midi":44,"time":"170.25","velocity":0.2440944881889764,"duration":"0.07"},{"name":"G#2","midi":44,"time":"170.40","velocity":0.7244094488188977,"duration":"0.07"},{"name":"A1","midi":33,"time":"170.40","velocity":0.9921259842519685,"duration":"0.07"},{"name":"F#3","midi":54,"time":"170.40","velocity":0.2992125984251969,"duration":"0.07"},{"name":"F#3","midi":54,"time":"170.54","velocity":0.18110236220472442,"duration":"0.07"},{"name":"F#3","midi":54,"time":"170.69","velocity":0.14960629921259844,"duration":"0.07"},{"name":"G#2","midi":44,"time":"170.70","velocity":0.4409448818897638,"duration":"0.07"},{"name":"F#3","midi":54,"time":"170.84","velocity":0.1968503937007874,"duration":"0.07"},{"name":"F#3","midi":54,"time":"170.98","velocity":0.2992125984251969,"duration":"0.07"},{"name":"A1","midi":33,"time":"171.00","velocity":1,"duration":"0.07"},{"name":"G#2","midi":44,"time":"171.00","velocity":0.7244094488188977,"duration":"0.07"},{"name":"G1","midi":31,"time":"171.00","velocity":0.7874015748031497,"duration":"0.07"},{"name":"F#3","midi":54,"time":"171.14","velocity":0.1732283464566929,"duration":"0.07"},{"name":"F#3","midi":54,"time":"171.29","velocity":0.14173228346456693,"duration":"0.07"},{"name":"G#2","midi":44,"time":"171.30","velocity":0.4409448818897638,"duration":"0.07"},{"name":"F#3","midi":54,"time":"171.44","velocity":0.1889763779527559,"duration":"0.07"},{"name":"G#2","midi":44,"time":"171.45","velocity":0.2440944881889764,"duration":"0.07"},{"name":"F#3","midi":54,"time":"171.59","velocity":0.2992125984251969,"duration":"0.07"},{"name":"A1","midi":33,"time":"171.60","velocity":0.9921259842519685,"duration":"0.07"},{"name":"G#2","midi":44,"time":"171.60","velocity":0.7244094488188977,"duration":"0.07"},{"name":"F#3","midi":54,"time":"171.74","velocity":0.1889763779527559,"duration":"0.07"},{"name":"F#3","midi":54,"time":"171.89","velocity":0.1732283464566929,"duration":"0.07"},{"name":"G#2","midi":44,"time":"171.90","velocity":0.7244094488188977,"duration":"0.07"},{"name":"F#3","midi":54,"time":"172.04","velocity":0.2047244094488189,"duration":"0.07"},{"name":"F#3","midi":54,"time":"172.19","velocity":0.2992125984251969,"duration":"0.07"},{"name":"G1","midi":31,"time":"172.20","velocity":0.7874015748031497,"duration":"0.07"},{"name":"A1","midi":33,"time":"172.20","velocity":1,"duration":"0.07"},{"name":"F#3","midi":54,"time":"172.34","velocity":0.2047244094488189,"duration":"0.07"},{"name":"F#3","midi":54,"time":"172.49","velocity":0.1889763779527559,"duration":"0.07"},{"name":"G#2","midi":44,"time":"172.50","velocity":0.4409448818897638,"duration":"0.07"},{"name":"F#3","midi":54,"time":"172.64","velocity":0.25196850393700787,"duration":"0.07"},{"name":"G#2","midi":44,"time":"172.65","velocity":0.2440944881889764,"duration":"0.07"},{"name":"A1","midi":33,"time":"172.80","velocity":0.9921259842519685,"duration":"0.07"},{"name":"G#2","midi":44,"time":"172.80","velocity":0.7244094488188977,"duration":"0.07"},{"name":"F#3","midi":54,"time":"172.80","velocity":0.2992125984251969,"duration":"0.07"},{"name":"F#3","midi":54,"time":"172.94","velocity":0.18110236220472442,"duration":"0.07"},{"name":"G#2","midi":44,"time":"172.95","velocity":0.2677165354330709,"duration":"0.07"},{"name":"F#3","midi":54,"time":"173.09","velocity":0.14960629921259844,"duration":"0.07"},{"name":"G#2","midi":44,"time":"173.10","velocity":0.4409448818897638,"duration":"0.07"},{"name":"F#3","midi":54,"time":"173.24","velocity":0.1968503937007874,"duration":"0.07"},{"name":"G#2","midi":44,"time":"173.25","velocity":0.2440944881889764,"duration":"0.07"},{"name":"F#3","midi":54,"time":"173.38","velocity":0.2992125984251969,"duration":"0.07"},{"name":"G1","midi":31,"time":"173.40","velocity":0.7874015748031497,"duration":"0.07"},{"name":"A1","midi":33,"time":"173.40","velocity":1,"duration":"0.07"},{"name":"G#2","midi":44,"time":"173.40","velocity":0.7244094488188977,"duration":"0.07"},{"name":"F#3","midi":54,"time":"173.54","velocity":0.1732283464566929,"duration":"0.07"},{"name":"F#3","midi":54,"time":"173.69","velocity":0.14173228346456693,"duration":"0.07"},{"name":"G#2","midi":44,"time":"173.70","velocity":0.4409448818897638,"duration":"0.07"},{"name":"F#3","midi":54,"time":"173.84","velocity":0.1889763779527559,"duration":"0.07"},{"name":"G#2","midi":44,"time":"173.85","velocity":0.2440944881889764,"duration":"0.07"},{"name":"F#3","midi":54,"time":"173.99","velocity":0.2992125984251969,"duration":"0.07"},{"name":"G#2","midi":44,"time":"174.00","velocity":0.7244094488188977,"duration":"0.07"},{"name":"A1","midi":33,"time":"174.00","velocity":0.9921259842519685,"duration":"0.07"},{"name":"F#3","midi":54,"time":"174.14","velocity":0.1889763779527559,"duration":"0.07"},{"name":"F#3","midi":54,"time":"174.29","velocity":0.1732283464566929,"duration":"0.07"},{"name":"G#2","midi":44,"time":"174.30","velocity":0.7244094488188977,"duration":"0.07"},{"name":"F#3","midi":54,"time":"174.44","velocity":0.2047244094488189,"duration":"0.07"},{"name":"F#3","midi":54,"time":"174.59","velocity":0.2992125984251969,"duration":"0.07"},{"name":"G1","midi":31,"time":"174.60","velocity":0.7874015748031497,"duration":"0.07"},{"name":"A1","midi":33,"time":"174.60","velocity":1,"duration":"0.07"},{"name":"F#3","midi":54,"time":"174.74","velocity":0.2047244094488189,"duration":"0.07"},{"name":"F#3","midi":54,"time":"174.89","velocity":0.1889763779527559,"duration":"0.07"},{"name":"G#2","midi":44,"time":"174.90","velocity":0.4409448818897638,"duration":"0.07"},{"name":"F#3","midi":54,"time":"175.04","velocity":0.25196850393700787,"duration":"0.07"},{"name":"G#2","midi":44,"time":"175.05","velocity":0.2440944881889764,"duration":"0.07"},{"name":"G#2","midi":44,"time":"175.20","velocity":0.7244094488188977,"duration":"0.07"},{"name":"A1","midi":33,"time":"175.20","velocity":0.9921259842519685,"duration":"0.07"},{"name":"F#3","midi":54,"time":"175.20","velocity":0.2992125984251969,"duration":"0.07"},{"name":"F#3","midi":54,"time":"175.34","velocity":0.18110236220472442,"duration":"0.07"},{"name":"F#3","midi":54,"time":"175.49","velocity":0.14960629921259844,"duration":"0.07"},{"name":"G#2","midi":44,"time":"175.50","velocity":0.4409448818897638,"duration":"0.07"},{"name":"F#3","midi":54,"time":"175.64","velocity":0.1968503937007874,"duration":"0.07"},{"name":"F#3","midi":54,"time":"175.78","velocity":0.2992125984251969,"duration":"0.07"},{"name":"G1","midi":31,"time":"175.80","velocity":0.7874015748031497,"duration":"0.07"},{"name":"A1","midi":33,"time":"175.80","velocity":1,"duration":"0.07"},{"name":"G#2","midi":44,"time":"175.80","velocity":0.7244094488188977,"duration":"0.07"},{"name":"F#3","midi":54,"time":"175.94","velocity":0.1732283464566929,"duration":"0.07"},{"name":"F#3","midi":54,"time":"176.09","velocity":0.14173228346456693,"duration":"0.07"},{"name":"G#2","midi":44,"time":"176.10","velocity":0.4409448818897638,"duration":"0.07"},{"name":"F#3","midi":54,"time":"176.24","velocity":0.1889763779527559,"duration":"0.07"},{"name":"G#2","midi":44,"time":"176.25","velocity":0.2440944881889764,"duration":"0.07"},{"name":"F#3","midi":54,"time":"176.39","velocity":0.2992125984251969,"duration":"0.07"},{"name":"A1","midi":33,"time":"176.40","velocity":0.9921259842519685,"duration":"0.07"},{"name":"G#2","midi":44,"time":"176.40","velocity":0.7244094488188977,"duration":"0.07"},{"name":"F#3","midi":54,"time":"176.54","velocity":0.1889763779527559,"duration":"0.07"},{"name":"F#3","midi":54,"time":"176.69","velocity":0.1732283464566929,"duration":"0.07"},{"name":"G#2","midi":44,"time":"176.70","velocity":0.7244094488188977,"duration":"0.07"},{"name":"F#3","midi":54,"time":"176.84","velocity":0.2047244094488189,"duration":"0.07"},{"name":"F#3","midi":54,"time":"176.99","velocity":0.2992125984251969,"duration":"0.07"},{"name":"A1","midi":33,"time":"177.00","velocity":1,"duration":"0.07"},{"name":"G1","midi":31,"time":"177.00","velocity":0.7874015748031497,"duration":"0.07"},{"name":"F#3","midi":54,"time":"177.14","velocity":0.2047244094488189,"duration":"0.07"},{"name":"F#3","midi":54,"time":"177.29","velocity":0.1889763779527559,"duration":"0.07"},{"name":"G#2","midi":44,"time":"177.30","velocity":0.4409448818897638,"duration":"0.07"},{"name":"F#3","midi":54,"time":"177.44","velocity":0.25196850393700787,"duration":"0.07"},{"name":"G#2","midi":44,"time":"177.45","velocity":0.2440944881889764,"duration":"0.07"},{"name":"A1","midi":33,"time":"177.60","velocity":0.9921259842519685,"duration":"0.07"},{"name":"G#2","midi":44,"time":"177.60","velocity":0.7244094488188977,"duration":"0.07"},{"name":"F#3","midi":54,"time":"177.60","velocity":0.2992125984251969,"duration":"0.07"},{"name":"F#3","midi":54,"time":"177.74","velocity":0.18110236220472442,"duration":"0.07"},{"name":"G#2","midi":44,"time":"177.75","velocity":0.2677165354330709,"duration":"0.07"},{"name":"F#3","midi":54,"time":"177.89","velocity":0.14960629921259844,"duration":"0.07"},{"name":"G#2","midi":44,"time":"177.90","velocity":0.4409448818897638,"duration":"0.07"},{"name":"F#3","midi":54,"time":"178.04","velocity":0.1968503937007874,"duration":"0.07"},{"name":"G#2","midi":44,"time":"178.05","velocity":0.2440944881889764,"duration":"0.07"},{"name":"F#3","midi":54,"time":"178.18","velocity":0.2992125984251969,"duration":"0.07"},{"name":"G1","midi":31,"time":"178.20","velocity":0.7874015748031497,"duration":"0.07"},{"name":"A1","midi":33,"time":"178.20","velocity":1,"duration":"0.07"},{"name":"G#2","midi":44,"time":"178.20","velocity":0.7244094488188977,"duration":"0.07"},{"name":"F#3","midi":54,"time":"178.34","velocity":0.1732283464566929,"duration":"0.07"},{"name":"F#3","midi":54,"time":"178.49","velocity":0.14173228346456693,"duration":"0.07"},{"name":"G#2","midi":44,"time":"178.50","velocity":0.4409448818897638,"duration":"0.07"},{"name":"F#3","midi":54,"time":"178.64","velocity":0.1889763779527559,"duration":"0.07"},{"name":"G#2","midi":44,"time":"178.65","velocity":0.2440944881889764,"duration":"0.07"},{"name":"F#3","midi":54,"time":"178.79","velocity":0.2992125984251969,"duration":"0.07"},{"name":"G#2","midi":44,"time":"178.80","velocity":0.7244094488188977,"duration":"0.07"},{"name":"A1","midi":33,"time":"178.80","velocity":0.9921259842519685,"duration":"0.07"},{"name":"F#3","midi":54,"time":"178.94","velocity":0.1889763779527559,"duration":"0.07"},{"name":"F#3","midi":54,"time":"179.09","velocity":0.1732283464566929,"duration":"0.07"},{"name":"G#2","midi":44,"time":"179.10","velocity":0.7244094488188977,"duration":"0.07"},{"name":"F#3","midi":54,"time":"179.24","velocity":0.2047244094488189,"duration":"0.07"},{"name":"F#3","midi":54,"time":"179.39","velocity":0.2992125984251969,"duration":"0.07"},{"name":"G1","midi":31,"time":"179.40","velocity":0.7874015748031497,"duration":"0.07"},{"name":"A1","midi":33,"time":"179.40","velocity":1,"duration":"0.07"},{"name":"F#3","midi":54,"time":"179.54","velocity":0.2047244094488189,"duration":"0.07"},{"name":"F#3","midi":54,"time":"179.69","velocity":0.1889763779527559,"duration":"0.07"},{"name":"G#2","midi":44,"time":"179.70","velocity":0.4409448818897638,"duration":"0.07"},{"name":"F#3","midi":54,"time":"179.84","velocity":0.25196850393700787,"duration":"0.07"},{"name":"G#2","midi":44,"time":"179.85","velocity":0.2440944881889764,"duration":"0.07"},{"name":"A1","midi":33,"time":"180.00","velocity":0.9921259842519685,"duration":"0.07"},{"name":"F#3","midi":54,"time":"180.00","velocity":0.2992125984251969,"duration":"0.07"},{"name":"G#2","midi":44,"time":"180.00","velocity":0.7244094488188977,"duration":"0.07"},{"name":"F#3","midi":54,"time":"180.14","velocity":0.18110236220472442,"duration":"0.07"},{"name":"F#3","midi":54,"time":"180.29","velocity":0.14960629921259844,"duration":"0.07"},{"name":"G#2","midi":44,"time":"180.30","velocity":0.4409448818897638,"duration":"0.07"},{"name":"F#3","midi":54,"time":"180.44","velocity":0.1968503937007874,"duration":"0.07"},{"name":"F#3","midi":54,"time":"180.58","velocity":0.2992125984251969,"duration":"0.07"},{"name":"G1","midi":31,"time":"180.60","velocity":0.7874015748031497,"duration":"0.07"},{"name":"A1","midi":33,"time":"180.60","velocity":1,"duration":"0.07"},{"name":"G#2","midi":44,"time":"180.60","velocity":0.7244094488188977,"duration":"0.07"},{"name":"F#3","midi":54,"time":"180.74","velocity":0.1732283464566929,"duration":"0.07"},{"name":"F#3","midi":54,"time":"180.89","velocity":0.14173228346456693,"duration":"0.07"},{"name":"G#2","midi":44,"time":"180.90","velocity":0.4409448818897638,"duration":"0.07"},{"name":"F#3","midi":54,"time":"181.04","velocity":0.1889763779527559,"duration":"0.07"},{"name":"G#2","midi":44,"time":"181.05","velocity":0.2440944881889764,"duration":"0.07"},{"name":"F#3","midi":54,"time":"181.19","velocity":0.2992125984251969,"duration":"0.07"},{"name":"A1","midi":33,"time":"181.20","velocity":0.9921259842519685,"duration":"0.07"},{"name":"G#2","midi":44,"time":"181.20","velocity":0.7244094488188977,"duration":"0.07"},{"name":"F#3","midi":54,"time":"181.34","velocity":0.1889763779527559,"duration":"0.07"},{"name":"F#3","midi":54,"time":"181.49","velocity":0.1732283464566929,"duration":"0.07"},{"name":"G#2","midi":44,"time":"181.50","velocity":0.7244094488188977,"duration":"0.07"},{"name":"F#3","midi":54,"time":"181.64","velocity":0.2047244094488189,"duration":"0.07"},{"name":"F#3","midi":54,"time":"181.79","velocity":0.2992125984251969,"duration":"0.07"},{"name":"A1","midi":33,"time":"181.80","velocity":1,"duration":"0.07"},{"name":"G1","midi":31,"time":"181.80","velocity":0.7874015748031497,"duration":"0.07"},{"name":"F#3","midi":54,"time":"181.94","velocity":0.2047244094488189,"duration":"0.07"},{"name":"F#3","midi":54,"time":"182.09","velocity":0.1889763779527559,"duration":"0.07"},{"name":"G#2","midi":44,"time":"182.10","velocity":0.4409448818897638,"duration":"0.07"},{"name":"F#3","midi":54,"time":"182.24","velocity":0.25196850393700787,"duration":"0.07"},{"name":"G#2","midi":44,"time":"182.25","velocity":0.2440944881889764,"duration":"0.07"},{"name":"A1","midi":33,"time":"182.40","velocity":0.9921259842519685,"duration":"0.07"},{"name":"G#2","midi":44,"time":"182.40","velocity":0.7244094488188977,"duration":"0.07"},{"name":"F#3","midi":54,"time":"182.40","velocity":0.2992125984251969,"duration":"0.07"},{"name":"F#3","midi":54,"time":"182.54","velocity":0.18110236220472442,"duration":"0.07"},{"name":"G#2","midi":44,"time":"182.55","velocity":0.2677165354330709,"duration":"0.07"},{"name":"F#3","midi":54,"time":"182.69","velocity":0.14960629921259844,"duration":"0.07"},{"name":"G#2","midi":44,"time":"182.70","velocity":0.4409448818897638,"duration":"0.07"},{"name":"F#3","midi":54,"time":"182.84","velocity":0.1968503937007874,"duration":"0.07"},{"name":"G#2","midi":44,"time":"182.85","velocity":0.2440944881889764,"duration":"0.07"},{"name":"F#3","midi":54,"time":"182.98","velocity":0.2992125984251969,"duration":"0.07"},{"name":"G1","midi":31,"time":"183.00","velocity":0.7874015748031497,"duration":"0.07"},{"name":"A1","midi":33,"time":"183.00","velocity":1,"duration":"0.07"},{"name":"G#2","midi":44,"time":"183.00","velocity":0.7244094488188977,"duration":"0.07"},{"name":"F#3","midi":54,"time":"183.14","velocity":0.1732283464566929,"duration":"0.07"},{"name":"F#3","midi":54,"time":"183.29","velocity":0.14173228346456693,"duration":"0.07"},{"name":"G#2","midi":44,"time":"183.30","velocity":0.4409448818897638,"duration":"0.07"},{"name":"F#3","midi":54,"time":"183.44","velocity":0.1889763779527559,"duration":"0.07"},{"name":"G#2","midi":44,"time":"183.45","velocity":0.2440944881889764,"duration":"0.07"},{"name":"F#3","midi":54,"time":"183.59","velocity":0.2992125984251969,"duration":"0.07"},{"name":"A1","midi":33,"time":"183.60","velocity":0.9921259842519685,"duration":"0.07"},{"name":"G#2","midi":44,"time":"183.60","velocity":0.7244094488188977,"duration":"0.07"},{"name":"F#3","midi":54,"time":"183.74","velocity":0.1889763779527559,"duration":"0.07"},{"name":"F#3","midi":54,"time":"183.89","velocity":0.1732283464566929,"duration":"0.07"},{"name":"G#2","midi":44,"time":"183.90","velocity":0.7244094488188977,"duration":"0.07"},{"name":"F#3","midi":54,"time":"184.04","velocity":0.2047244094488189,"duration":"0.07"},{"name":"F#3","midi":54,"time":"184.19","velocity":0.2992125984251969,"duration":"0.07"},{"name":"G1","midi":31,"time":"184.20","velocity":0.7874015748031497,"duration":"0.07"},{"name":"A1","midi":33,"time":"184.20","velocity":1,"duration":"0.07"},{"name":"F#3","midi":54,"time":"184.34","velocity":0.2047244094488189,"duration":"0.07"},{"name":"F#3","midi":54,"time":"184.49","velocity":0.1889763779527559,"duration":"0.07"},{"name":"G#2","midi":44,"time":"184.50","velocity":0.4409448818897638,"duration":"0.07"},{"name":"F#3","midi":54,"time":"184.64","velocity":0.25196850393700787,"duration":"0.07"},{"name":"G#2","midi":44,"time":"184.65","velocity":0.2440944881889764,"duration":"0.07"},{"name":"G#2","midi":44,"time":"184.80","velocity":0.7244094488188977,"duration":"0.07"},{"name":"A1","midi":33,"time":"184.80","velocity":0.9921259842519685,"duration":"0.07"},{"name":"F#3","midi":54,"time":"184.80","velocity":0.2992125984251969,"duration":"0.07"},{"name":"F#3","midi":54,"time":"184.94","velocity":0.18110236220472442,"duration":"0.07"},{"name":"F#3","midi":54,"time":"185.09","velocity":0.14960629921259844,"duration":"0.07"},{"name":"G#2","midi":44,"time":"185.10","velocity":0.4409448818897638,"duration":"0.07"},{"name":"F#3","midi":54,"time":"185.24","velocity":0.1968503937007874,"duration":"0.07"},{"name":"F#3","midi":54,"time":"185.38","velocity":0.2992125984251969,"duration":"0.07"},{"name":"G1","midi":31,"time":"185.40","velocity":0.7874015748031497,"duration":"0.07"},{"name":"A1","midi":33,"time":"185.40","velocity":1,"duration":"0.07"},{"name":"G#2","midi":44,"time":"185.40","velocity":0.7244094488188977,"duration":"0.07"},{"name":"F#3","midi":54,"time":"185.54","velocity":0.1732283464566929,"duration":"0.07"},{"name":"F#3","midi":54,"time":"185.69","velocity":0.14173228346456693,"duration":"0.07"},{"name":"G#2","midi":44,"time":"185.70","velocity":0.4409448818897638,"duration":"0.07"},{"name":"F#3","midi":54,"time":"185.84","velocity":0.1889763779527559,"duration":"0.07"},{"name":"G#2","midi":44,"time":"185.85","velocity":0.2440944881889764,"duration":"0.07"},{"name":"F#3","midi":54,"time":"185.99","velocity":0.2992125984251969,"duration":"0.07"},{"name":"A1","midi":33,"time":"186.00","velocity":0.9921259842519685,"duration":"0.07"},{"name":"G#2","midi":44,"time":"186.00","velocity":0.7244094488188977,"duration":"0.07"},{"name":"F#3","midi":54,"time":"186.14","velocity":0.1889763779527559,"duration":"0.07"},{"name":"F#3","midi":54,"time":"186.29","velocity":0.1732283464566929,"duration":"0.07"},{"name":"G#2","midi":44,"time":"186.30","velocity":0.7244094488188977,"duration":"0.07"},{"name":"F#3","midi":54,"time":"186.44","velocity":0.2047244094488189,"duration":"0.07"},{"name":"F#3","midi":54,"time":"186.59","velocity":0.2992125984251969,"duration":"0.07"},{"name":"A1","midi":33,"time":"186.60","velocity":1,"duration":"0.07"},{"name":"G1","midi":31,"time":"186.60","velocity":0.7874015748031497,"duration":"0.07"},{"name":"F#3","midi":54,"time":"186.74","velocity":0.2047244094488189,"duration":"0.07"},{"name":"F#3","midi":54,"time":"186.89","velocity":0.1889763779527559,"duration":"0.07"},{"name":"G#2","midi":44,"time":"186.90","velocity":0.4409448818897638,"duration":"0.07"},{"name":"F#3","midi":54,"time":"187.04","velocity":0.25196850393700787,"duration":"0.07"},{"name":"G#2","midi":44,"time":"187.05","velocity":0.2440944881889764,"duration":"0.07"},{"name":"A1","midi":33,"time":"187.20","velocity":0.9921259842519685,"duration":"0.07"},{"name":"G#2","midi":44,"time":"187.20","velocity":0.7244094488188977,"duration":"0.07"},{"name":"F#3","midi":54,"time":"187.20","velocity":0.2992125984251969,"duration":"0.07"},{"name":"F#3","midi":54,"time":"187.34","velocity":0.18110236220472442,"duration":"0.07"},{"name":"G#2","midi":44,"time":"187.35","velocity":0.2677165354330709,"duration":"0.07"},{"name":"F#3","midi":54,"time":"187.49","velocity":0.14960629921259844,"duration":"0.07"},{"name":"G#2","midi":44,"time":"187.50","velocity":0.4409448818897638,"duration":"0.07"},{"name":"F#3","midi":54,"time":"187.64","velocity":0.1968503937007874,"duration":"0.07"},{"name":"G#2","midi":44,"time":"187.65","velocity":0.2440944881889764,"duration":"0.07"},{"name":"F#3","midi":54,"time":"187.78","velocity":0.2992125984251969,"duration":"0.07"},{"name":"G1","midi":31,"time":"187.80","velocity":0.7874015748031497,"duration":"0.07"},{"name":"A1","midi":33,"time":"187.80","velocity":1,"duration":"0.07"},{"name":"G#2","midi":44,"time":"187.80","velocity":0.7244094488188977,"duration":"0.07"},{"name":"F#3","midi":54,"time":"187.94","velocity":0.1732283464566929,"duration":"0.07"},{"name":"F#3","midi":54,"time":"188.09","velocity":0.14173228346456693,"duration":"0.07"},{"name":"G#2","midi":44,"time":"188.10","velocity":0.4409448818897638,"duration":"0.07"},{"name":"F#3","midi":54,"time":"188.24","velocity":0.1889763779527559,"duration":"0.07"},{"name":"G#2","midi":44,"time":"188.25","velocity":0.2440944881889764,"duration":"0.07"},{"name":"F#3","midi":54,"time":"188.39","velocity":0.2992125984251969,"duration":"0.07"},{"name":"G#2","midi":44,"time":"188.40","velocity":0.7244094488188977,"duration":"0.07"},{"name":"A1","midi":33,"time":"188.40","velocity":0.9921259842519685,"duration":"0.07"},{"name":"F#3","midi":54,"time":"188.54","velocity":0.1889763779527559,"duration":"0.07"},{"name":"F#3","midi":54,"time":"188.69","velocity":0.1732283464566929,"duration":"0.07"},{"name":"G#2","midi":44,"time":"188.70","velocity":0.7244094488188977,"duration":"0.07"},{"name":"F#3","midi":54,"time":"188.84","velocity":0.2047244094488189,"duration":"0.07"},{"name":"F#3","midi":54,"time":"188.99","velocity":0.2992125984251969,"duration":"0.07"},{"name":"G1","midi":31,"time":"189.00","velocity":0.7874015748031497,"duration":"0.07"},{"name":"A1","midi":33,"time":"189.00","velocity":1,"duration":"0.07"},{"name":"F#3","midi":54,"time":"189.14","velocity":0.2047244094488189,"duration":"0.07"},{"name":"F#3","midi":54,"time":"189.29","velocity":0.1889763779527559,"duration":"0.07"},{"name":"G#2","midi":44,"time":"189.30","velocity":0.4409448818897638,"duration":"0.07"},{"name":"F#3","midi":54,"time":"189.44","velocity":0.25196850393700787,"duration":"0.07"},{"name":"G#2","midi":44,"time":"189.45","velocity":0.2440944881889764,"duration":"0.07"},{"name":"A1","midi":33,"time":"189.60","velocity":0.9921259842519685,"duration":"0.07"},{"name":"F#3","midi":54,"time":"189.60","velocity":0.2992125984251969,"duration":"0.07"},{"name":"G#2","midi":44,"time":"189.60","velocity":0.7244094488188977,"duration":"0.07"},{"name":"F#3","midi":54,"time":"189.74","velocity":0.18110236220472442,"duration":"0.07"},{"name":"F#3","midi":54,"time":"189.89","velocity":0.14960629921259844,"duration":"0.07"},{"name":"G#2","midi":44,"time":"189.90","velocity":0.4409448818897638,"duration":"0.07"},{"name":"F#3","midi":54,"time":"190.04","velocity":0.1968503937007874,"duration":"0.07"},{"name":"F#3","midi":54,"time":"190.18","velocity":0.2992125984251969,"duration":"0.07"},{"name":"G1","midi":31,"time":"190.20","velocity":0.7874015748031497,"duration":"0.07"},{"name":"A1","midi":33,"time":"190.20","velocity":1,"duration":"0.07"},{"name":"G#2","midi":44,"time":"190.20","velocity":0.7244094488188977,"duration":"0.07"},{"name":"F#3","midi":54,"time":"190.34","velocity":0.1732283464566929,"duration":"0.07"},{"name":"F#3","midi":54,"time":"190.49","velocity":0.14173228346456693,"duration":"0.07"},{"name":"G#2","midi":44,"time":"190.50","velocity":0.4409448818897638,"duration":"0.07"},{"name":"F#3","midi":54,"time":"190.64","velocity":0.1889763779527559,"duration":"0.07"},{"name":"G#2","midi":44,"time":"190.65","velocity":0.2440944881889764,"duration":"0.07"},{"name":"F#3","midi":54,"time":"190.79","velocity":0.2992125984251969,"duration":"0.07"},{"name":"A1","midi":33,"time":"190.80","velocity":0.9921259842519685,"duration":"0.07"},{"name":"G#2","midi":44,"time":"190.80","velocity":0.7244094488188977,"duration":"0.07"},{"name":"F#3","midi":54,"time":"190.94","velocity":0.1889763779527559,"duration":"0.07"},{"name":"F#3","midi":54,"time":"191.09","velocity":0.1732283464566929,"duration":"0.07"},{"name":"G#2","midi":44,"time":"191.10","velocity":0.7244094488188977,"duration":"0.07"},{"name":"F#3","midi":54,"time":"191.24","velocity":0.2047244094488189,"duration":"0.07"},{"name":"F#3","midi":54,"time":"191.39","velocity":0.2992125984251969,"duration":"0.07"},{"name":"A1","midi":33,"time":"191.40","velocity":1,"duration":"0.07"},{"name":"G1","midi":31,"time":"191.40","velocity":0.7874015748031497,"duration":"0.07"},{"name":"F#3","midi":54,"time":"191.54","velocity":0.2047244094488189,"duration":"0.07"},{"name":"F#3","midi":54,"time":"191.69","velocity":0.1889763779527559,"duration":"0.07"},{"name":"G#2","midi":44,"time":"191.70","velocity":0.4409448818897638,"duration":"0.07"},{"name":"F#3","midi":54,"time":"191.84","velocity":0.25196850393700787,"duration":"0.07"},{"name":"G#2","midi":44,"time":"191.85","velocity":0.2440944881889764,"duration":"0.07"},{"name":"A1","midi":33,"time":"192.00","velocity":0.9921259842519685,"duration":"0.07"},{"name":"G#2","midi":44,"time":"192.00","velocity":0.7244094488188977,"duration":"0.07"},{"name":"F#3","midi":54,"time":"192.00","velocity":0.2992125984251969,"duration":"0.07"},{"name":"F#3","midi":54,"time":"192.14","velocity":0.18110236220472442,"duration":"0.07"},{"name":"G#2","midi":44,"time":"192.15","velocity":0.2677165354330709,"duration":"0.07"},{"name":"F#3","midi":54,"time":"192.29","velocity":0.14960629921259844,"duration":"0.07"},{"name":"G#2","midi":44,"time":"192.30","velocity":0.4409448818897638,"duration":"0.07"},{"name":"F#3","midi":54,"time":"192.44","velocity":0.1968503937007874,"duration":"0.07"},{"name":"G#2","midi":44,"time":"192.45","velocity":0.2440944881889764,"duration":"0.07"},{"name":"F#3","midi":54,"time":"192.58","velocity":0.2992125984251969,"duration":"0.07"},{"name":"G1","midi":31,"time":"192.60","velocity":0.7874015748031497,"duration":"0.07"},{"name":"A1","midi":33,"time":"192.60","velocity":1,"duration":"0.07"},{"name":"G#2","midi":44,"time":"192.60","velocity":0.7244094488188977,"duration":"0.07"},{"name":"F#3","midi":54,"time":"192.74","velocity":0.1732283464566929,"duration":"0.07"},{"name":"F#3","midi":54,"time":"192.89","velocity":0.14173228346456693,"duration":"0.07"},{"name":"G#2","midi":44,"time":"192.90","velocity":0.4409448818897638,"duration":"0.07"},{"name":"F#3","midi":54,"time":"193.04","velocity":0.1889763779527559,"duration":"0.07"},{"name":"G#2","midi":44,"time":"193.05","velocity":0.2440944881889764,"duration":"0.07"},{"name":"F#3","midi":54,"time":"193.19","velocity":0.2992125984251969,"duration":"0.07"},{"name":"A1","midi":33,"time":"193.20","velocity":0.9921259842519685,"duration":"0.07"},{"name":"G#2","midi":44,"time":"193.20","velocity":0.7244094488188977,"duration":"0.07"},{"name":"F#3","midi":54,"time":"193.34","velocity":0.1889763779527559,"duration":"0.07"},{"name":"F#3","midi":54,"time":"193.49","velocity":0.1732283464566929,"duration":"0.07"},{"name":"G#2","midi":44,"time":"193.50","velocity":0.7244094488188977,"duration":"0.07"},{"name":"F#3","midi":54,"time":"193.64","velocity":0.2047244094488189,"duration":"0.07"},{"name":"F#3","midi":54,"time":"193.79","velocity":0.2992125984251969,"duration":"0.07"},{"name":"G1","midi":31,"time":"193.80","velocity":0.7874015748031497,"duration":"0.07"},{"name":"A1","midi":33,"time":"193.80","velocity":1,"duration":"0.07"},{"name":"F#3","midi":54,"time":"193.94","velocity":0.2047244094488189,"duration":"0.07"},{"name":"F#3","midi":54,"time":"194.09","velocity":0.1889763779527559,"duration":"0.07"},{"name":"G#2","midi":44,"time":"194.10","velocity":0.4409448818897638,"duration":"0.07"},{"name":"F#3","midi":54,"time":"194.24","velocity":0.25196850393700787,"duration":"0.07"},{"name":"G#2","midi":44,"time":"194.25","velocity":0.2440944881889764,"duration":"0.07"},{"name":"G#2","midi":44,"time":"194.40","velocity":0.7244094488188977,"duration":"0.07"},{"name":"A1","midi":33,"time":"194.40","velocity":0.9921259842519685,"duration":"0.07"},{"name":"F#3","midi":54,"time":"194.40","velocity":0.2992125984251969,"duration":"0.07"},{"name":"F#3","midi":54,"time":"194.54","velocity":0.18110236220472442,"duration":"0.07"},{"name":"F#3","midi":54,"time":"194.69","velocity":0.14960629921259844,"duration":"0.07"},{"name":"G#2","midi":44,"time":"194.70","velocity":0.4409448818897638,"duration":"0.07"},{"name":"F#3","midi":54,"time":"194.84","velocity":0.1968503937007874,"duration":"0.07"},{"name":"F#3","midi":54,"time":"194.98","velocity":0.2992125984251969,"duration":"0.07"},{"name":"G1","midi":31,"time":"195.00","velocity":0.7874015748031497,"duration":"0.07"},{"name":"A1","midi":33,"time":"195.00","velocity":1,"duration":"0.07"},{"name":"G#2","midi":44,"time":"195.00","velocity":0.7244094488188977,"duration":"0.07"},{"name":"F#3","midi":54,"time":"195.14","velocity":0.1732283464566929,"duration":"0.07"},{"name":"F#3","midi":54,"time":"195.29","velocity":0.14173228346456693,"duration":"0.07"},{"name":"G#2","midi":44,"time":"195.30","velocity":0.4409448818897638,"duration":"0.07"},{"name":"F#3","midi":54,"time":"195.44","velocity":0.1889763779527559,"duration":"0.07"},{"name":"G#2","midi":44,"time":"195.45","velocity":0.2440944881889764,"duration":"0.07"},{"name":"F#3","midi":54,"time":"195.59","velocity":0.2992125984251969,"duration":"0.07"},{"name":"A1","midi":33,"time":"195.60","velocity":0.9921259842519685,"duration":"0.07"},{"name":"G#2","midi":44,"time":"195.60","velocity":0.7244094488188977,"duration":"0.07"},{"name":"F#3","midi":54,"time":"195.74","velocity":0.1889763779527559,"duration":"0.07"},{"name":"F#3","midi":54,"time":"195.89","velocity":0.1732283464566929,"duration":"0.07"},{"name":"G#2","midi":44,"time":"195.90","velocity":0.7244094488188977,"duration":"0.07"},{"name":"F#3","midi":54,"time":"196.04","velocity":0.2047244094488189,"duration":"0.07"},{"name":"F#3","midi":54,"time":"196.19","velocity":0.2992125984251969,"duration":"0.07"},{"name":"A1","midi":33,"time":"196.20","velocity":1,"duration":"0.07"},{"name":"G1","midi":31,"time":"196.20","velocity":0.7874015748031497,"duration":"0.07"},{"name":"F#3","midi":54,"time":"196.34","velocity":0.2047244094488189,"duration":"0.07"},{"name":"F#3","midi":54,"time":"196.49","velocity":0.1889763779527559,"duration":"0.07"},{"name":"G#2","midi":44,"time":"196.50","velocity":0.4409448818897638,"duration":"0.07"},{"name":"F#3","midi":54,"time":"196.64","velocity":0.25196850393700787,"duration":"0.07"},{"name":"G#2","midi":44,"time":"196.65","velocity":0.2440944881889764,"duration":"0.07"},{"name":"A1","midi":33,"time":"196.80","velocity":0.9921259842519685,"duration":"0.07"},{"name":"G#2","midi":44,"time":"196.80","velocity":0.7244094488188977,"duration":"0.07"},{"name":"F#3","midi":54,"time":"196.80","velocity":0.2992125984251969,"duration":"0.07"},{"name":"F#3","midi":54,"time":"196.94","velocity":0.18110236220472442,"duration":"0.07"},{"name":"G#2","midi":44,"time":"196.95","velocity":0.2677165354330709,"duration":"0.07"},{"name":"F#3","midi":54,"time":"197.09","velocity":0.14960629921259844,"duration":"0.07"},{"name":"G#2","midi":44,"time":"197.10","velocity":0.4409448818897638,"duration":"0.07"},{"name":"F#3","midi":54,"time":"197.24","velocity":0.1968503937007874,"duration":"0.07"},{"name":"G#2","midi":44,"time":"197.25","velocity":0.2440944881889764,"duration":"0.07"},{"name":"F#3","midi":54,"time":"197.38","velocity":0.2992125984251969,"duration":"0.07"},{"name":"G1","midi":31,"time":"197.40","velocity":0.7874015748031497,"duration":"0.07"},{"name":"A1","midi":33,"time":"197.40","velocity":1,"duration":"0.07"},{"name":"G#2","midi":44,"time":"197.40","velocity":0.7244094488188977,"duration":"0.07"},{"name":"F#3","midi":54,"time":"197.54","velocity":0.1732283464566929,"duration":"0.07"},{"name":"F#3","midi":54,"time":"197.69","velocity":0.14173228346456693,"duration":"0.07"},{"name":"G#2","midi":44,"time":"197.70","velocity":0.4409448818897638,"duration":"0.07"},{"name":"F#3","midi":54,"time":"197.84","velocity":0.1889763779527559,"duration":"0.07"},{"name":"G#2","midi":44,"time":"197.85","velocity":0.2440944881889764,"duration":"0.07"},{"name":"F#3","midi":54,"time":"197.99","velocity":0.2992125984251969,"duration":"0.07"},{"name":"G#2","midi":44,"time":"198.00","velocity":0.7244094488188977,"duration":"0.07"},{"name":"A1","midi":33,"time":"198.00","velocity":0.9921259842519685,"duration":"0.07"},{"name":"F#3","midi":54,"time":"198.14","velocity":0.1889763779527559,"duration":"0.07"},{"name":"F#3","midi":54,"time":"198.29","velocity":0.1732283464566929,"duration":"0.07"},{"name":"G#2","midi":44,"time":"198.30","velocity":0.7244094488188977,"duration":"0.07"},{"name":"F#3","midi":54,"time":"198.44","velocity":0.2047244094488189,"duration":"0.07"},{"name":"F#3","midi":54,"time":"198.59","velocity":0.2992125984251969,"duration":"0.07"},{"name":"G1","midi":31,"time":"198.60","velocity":0.7874015748031497,"duration":"0.07"},{"name":"A1","midi":33,"time":"198.60","velocity":1,"duration":"0.07"},{"name":"F#3","midi":54,"time":"198.74","velocity":0.2047244094488189,"duration":"0.07"},{"name":"F#3","midi":54,"time":"198.89","velocity":0.1889763779527559,"duration":"0.07"},{"name":"G#2","midi":44,"time":"198.90","velocity":0.4409448818897638,"duration":"0.07"},{"name":"F#3","midi":54,"time":"199.04","velocity":0.25196850393700787,"duration":"0.07"},{"name":"G#2","midi":44,"time":"199.05","velocity":0.2440944881889764,"duration":"0.07"},{"name":"A1","midi":33,"time":"199.20","velocity":0.9921259842519685,"duration":"0.07"},{"name":"F#3","midi":54,"time":"199.20","velocity":0.2992125984251969,"duration":"0.07"},{"name":"G#2","midi":44,"time":"199.20","velocity":0.7244094488188977,"duration":"0.07"},{"name":"F#3","midi":54,"time":"199.34","velocity":0.18110236220472442,"duration":"0.07"},{"name":"F#3","midi":54,"time":"199.49","velocity":0.14960629921259844,"duration":"0.07"},{"name":"G#2","midi":44,"time":"199.50","velocity":0.4409448818897638,"duration":"0.07"},{"name":"F#3","midi":54,"time":"199.64","velocity":0.1968503937007874,"duration":"0.07"},{"name":"F#3","midi":54,"time":"199.78","velocity":0.2992125984251969,"duration":"0.07"},{"name":"G1","midi":31,"time":"199.80","velocity":0.7874015748031497,"duration":"0.07"},{"name":"A1","midi":33,"time":"199.80","velocity":1,"duration":"0.07"},{"name":"G#2","midi":44,"time":"199.80","velocity":0.7244094488188977,"duration":"0.07"},{"name":"F#3","midi":54,"time":"199.94","velocity":0.1732283464566929,"duration":"0.07"},{"name":"F#3","midi":54,"time":"200.09","velocity":0.14173228346456693,"duration":"0.07"},{"name":"G#2","midi":44,"time":"200.10","velocity":0.4409448818897638,"duration":"0.07"},{"name":"F#3","midi":54,"time":"200.24","velocity":0.1889763779527559,"duration":"0.07"},{"name":"G#2","midi":44,"time":"200.25","velocity":0.2440944881889764,"duration":"0.07"},{"name":"F#3","midi":54,"time":"200.39","velocity":0.2992125984251969,"duration":"0.07"},{"name":"A1","midi":33,"time":"200.40","velocity":0.9921259842519685,"duration":"0.07"},{"name":"G#2","midi":44,"time":"200.40","velocity":0.7244094488188977,"duration":"0.07"},{"name":"F#3","midi":54,"time":"200.54","velocity":0.1889763779527559,"duration":"0.07"},{"name":"F#3","midi":54,"time":"200.69","velocity":0.1732283464566929,"duration":"0.07"},{"name":"G#2","midi":44,"time":"200.70","velocity":0.7244094488188977,"duration":"0.07"},{"name":"F#3","midi":54,"time":"200.84","velocity":0.2047244094488189,"duration":"0.07"},{"name":"F#3","midi":54,"time":"200.99","velocity":0.2992125984251969,"duration":"0.07"},{"name":"A1","midi":33,"time":"201.00","velocity":1,"duration":"0.07"},{"name":"G1","midi":31,"time":"201.00","velocity":0.7874015748031497,"duration":"0.07"},{"name":"F#3","midi":54,"time":"201.14","velocity":0.2047244094488189,"duration":"0.07"},{"name":"F#3","midi":54,"time":"201.29","velocity":0.1889763779527559,"duration":"0.07"},{"name":"G#2","midi":44,"time":"201.30","velocity":0.4409448818897638,"duration":"0.07"},{"name":"F#3","midi":54,"time":"201.44","velocity":0.25196850393700787,"duration":"0.07"},{"name":"G#2","midi":44,"time":"201.45","velocity":0.2440944881889764,"duration":"0.07"},{"name":"A1","midi":33,"time":"201.60","velocity":0.9921259842519685,"duration":"0.07"},{"name":"G#2","midi":44,"time":"201.60","velocity":0.7244094488188977,"duration":"0.07"},{"name":"F#3","midi":54,"time":"201.60","velocity":0.2992125984251969,"duration":"0.07"},{"name":"F#3","midi":54,"time":"201.74","velocity":0.18110236220472442,"duration":"0.07"},{"name":"G#2","midi":44,"time":"201.75","velocity":0.2677165354330709,"duration":"0.07"},{"name":"F#3","midi":54,"time":"201.89","velocity":0.14960629921259844,"duration":"0.07"},{"name":"G#2","midi":44,"time":"201.90","velocity":0.4409448818897638,"duration":"0.07"},{"name":"F#3","midi":54,"time":"202.04","velocity":0.1968503937007874,"duration":"0.07"},{"name":"G#2","midi":44,"time":"202.05","velocity":0.2440944881889764,"duration":"0.07"},{"name":"F#3","midi":54,"time":"202.18","velocity":0.2992125984251969,"duration":"0.07"},{"name":"G1","midi":31,"time":"202.20","velocity":0.7874015748031497,"duration":"0.07"},{"name":"A1","midi":33,"time":"202.20","velocity":1,"duration":"0.07"},{"name":"G#2","midi":44,"time":"202.20","velocity":0.7244094488188977,"duration":"0.07"},{"name":"F#3","midi":54,"time":"202.34","velocity":0.1732283464566929,"duration":"0.07"},{"name":"F#3","midi":54,"time":"202.49","velocity":0.14173228346456693,"duration":"0.07"},{"name":"G#2","midi":44,"time":"202.50","velocity":0.4409448818897638,"duration":"0.07"},{"name":"F#3","midi":54,"time":"202.64","velocity":0.1889763779527559,"duration":"0.07"},{"name":"G#2","midi":44,"time":"202.65","velocity":0.2440944881889764,"duration":"0.07"},{"name":"F#3","midi":54,"time":"202.79","velocity":0.2992125984251969,"duration":"0.07"},{"name":"A1","midi":33,"time":"202.80","velocity":0.9921259842519685,"duration":"0.07"},{"name":"G#2","midi":44,"time":"202.80","velocity":0.7244094488188977,"duration":"0.07"},{"name":"F#3","midi":54,"time":"202.94","velocity":0.1889763779527559,"duration":"0.07"},{"name":"F#3","midi":54,"time":"203.09","velocity":0.1732283464566929,"duration":"0.07"},{"name":"G#2","midi":44,"time":"203.10","velocity":0.7244094488188977,"duration":"0.07"},{"name":"F#3","midi":54,"time":"203.24","velocity":0.2047244094488189,"duration":"0.07"},{"name":"F#3","midi":54,"time":"203.39","velocity":0.2992125984251969,"duration":"0.07"},{"name":"G1","midi":31,"time":"203.40","velocity":0.7874015748031497,"duration":"0.07"},{"name":"A1","midi":33,"time":"203.40","velocity":1,"duration":"0.07"},{"name":"F#3","midi":54,"time":"203.54","velocity":0.2047244094488189,"duration":"0.07"},{"name":"F#3","midi":54,"time":"203.69","velocity":0.1889763779527559,"duration":"0.07"},{"name":"G#2","midi":44,"time":"203.70","velocity":0.4409448818897638,"duration":"0.07"},{"name":"F#3","midi":54,"time":"203.84","velocity":0.25196850393700787,"duration":"0.07"},{"name":"G#2","midi":44,"time":"203.85","velocity":0.2440944881889764,"duration":"0.07"},{"name":"G#2","midi":44,"time":"204.00","velocity":0.7244094488188977,"duration":"0.07"},{"name":"A1","midi":33,"time":"204.00","velocity":0.9921259842519685,"duration":"0.07"},{"name":"F#3","midi":54,"time":"204.00","velocity":0.2992125984251969,"duration":"0.07"},{"name":"F#3","midi":54,"time":"204.14","velocity":0.18110236220472442,"duration":"0.07"},{"name":"F#3","midi":54,"time":"204.29","velocity":0.14960629921259844,"duration":"0.07"},{"name":"G#2","midi":44,"time":"204.30","velocity":0.4409448818897638,"duration":"0.07"},{"name":"F#3","midi":54,"time":"204.44","velocity":0.1968503937007874,"duration":"0.07"},{"name":"F#3","midi":54,"time":"204.58","velocity":0.2992125984251969,"duration":"0.07"},{"name":"G1","midi":31,"time":"204.60","velocity":0.7874015748031497,"duration":"0.07"},{"name":"A1","midi":33,"time":"204.60","velocity":1,"duration":"0.07"},{"name":"G#2","midi":44,"time":"204.60","velocity":0.7244094488188977,"duration":"0.07"},{"name":"F#3","midi":54,"time":"204.74","velocity":0.1732283464566929,"duration":"0.07"},{"name":"F#3","midi":54,"time":"204.89","velocity":0.14173228346456693,"duration":"0.07"},{"name":"G#2","midi":44,"time":"204.90","velocity":0.4409448818897638,"duration":"0.07"},{"name":"F#3","midi":54,"time":"205.04","velocity":0.1889763779527559,"duration":"0.07"},{"name":"G#2","midi":44,"time":"205.05","velocity":0.2440944881889764,"duration":"0.07"},{"name":"F#3","midi":54,"time":"205.19","velocity":0.2992125984251969,"duration":"0.07"},{"name":"A1","midi":33,"time":"205.20","velocity":0.9921259842519685,"duration":"0.07"},{"name":"G#2","midi":44,"time":"205.20","velocity":0.7244094488188977,"duration":"0.07"},{"name":"F#3","midi":54,"time":"205.34","velocity":0.1889763779527559,"duration":"0.07"},{"name":"F#3","midi":54,"time":"205.49","velocity":0.1732283464566929,"duration":"0.07"},{"name":"G#2","midi":44,"time":"205.50","velocity":0.7244094488188977,"duration":"0.07"},{"name":"F#3","midi":54,"time":"205.64","velocity":0.2047244094488189,"duration":"0.07"},{"name":"F#3","midi":54,"time":"205.79","velocity":0.2992125984251969,"duration":"0.07"},{"name":"A1","midi":33,"time":"205.80","velocity":1,"duration":"0.07"},{"name":"G1","midi":31,"time":"205.80","velocity":0.7874015748031497,"duration":"0.07"},{"name":"F#3","midi":54,"time":"205.94","velocity":0.2047244094488189,"duration":"0.07"},{"name":"F#3","midi":54,"time":"206.09","velocity":0.1889763779527559,"duration":"0.07"},{"name":"G#2","midi":44,"time":"206.10","velocity":0.4409448818897638,"duration":"0.07"},{"name":"F#3","midi":54,"time":"206.24","velocity":0.25196850393700787,"duration":"0.07"},{"name":"G#2","midi":44,"time":"206.25","velocity":0.2440944881889764,"duration":"0.07"},{"name":"A1","midi":33,"time":"206.40","velocity":0.9921259842519685,"duration":"0.07"},{"name":"G#2","midi":44,"time":"206.40","velocity":0.7244094488188977,"duration":"0.07"},{"name":"F#3","midi":54,"time":"206.40","velocity":0.2992125984251969,"duration":"0.07"},{"name":"F#3","midi":54,"time":"206.54","velocity":0.18110236220472442,"duration":"0.07"},{"name":"G#2","midi":44,"time":"206.55","velocity":0.2677165354330709,"duration":"0.07"},{"name":"F#3","midi":54,"time":"206.69","velocity":0.14960629921259844,"duration":"0.07"},{"name":"G#2","midi":44,"time":"206.70","velocity":0.4409448818897638,"duration":"0.07"},{"name":"F#3","midi":54,"time":"206.84","velocity":0.1968503937007874,"duration":"0.07"},{"name":"G#2","midi":44,"time":"206.85","velocity":0.2440944881889764,"duration":"0.07"},{"name":"F#3","midi":54,"time":"206.98","velocity":0.2992125984251969,"duration":"0.07"},{"name":"G1","midi":31,"time":"207.00","velocity":0.7874015748031497,"duration":"0.07"},{"name":"A1","midi":33,"time":"207.00","velocity":1,"duration":"0.07"},{"name":"G#2","midi":44,"time":"207.00","velocity":0.7244094488188977,"duration":"0.07"},{"name":"F#3","midi":54,"time":"207.14","velocity":0.1732283464566929,"duration":"0.07"},{"name":"F#3","midi":54,"time":"207.29","velocity":0.14173228346456693,"duration":"0.07"},{"name":"G#2","midi":44,"time":"207.30","velocity":0.4409448818897638,"duration":"0.07"},{"name":"F#3","midi":54,"time":"207.44","velocity":0.1889763779527559,"duration":"0.07"},{"name":"G#2","midi":44,"time":"207.45","velocity":0.2440944881889764,"duration":"0.07"},{"name":"F#3","midi":54,"time":"207.59","velocity":0.2992125984251969,"duration":"0.07"},{"name":"G#2","midi":44,"time":"207.60","velocity":0.7244094488188977,"duration":"0.07"},{"name":"A1","midi":33,"time":"207.60","velocity":0.9921259842519685,"duration":"0.07"},{"name":"F#3","midi":54,"time":"207.74","velocity":0.1889763779527559,"duration":"0.07"},{"name":"F#3","midi":54,"time":"207.89","velocity":0.1732283464566929,"duration":"0.07"},{"name":"G#2","midi":44,"time":"207.90","velocity":0.7244094488188977,"duration":"0.07"},{"name":"F#3","midi":54,"time":"208.04","velocity":0.2047244094488189,"duration":"0.07"},{"name":"F#3","midi":54,"time":"208.19","velocity":0.2992125984251969,"duration":"0.07"},{"name":"G1","midi":31,"time":"208.20","velocity":0.7874015748031497,"duration":"0.07"},{"name":"A1","midi":33,"time":"208.20","velocity":1,"duration":"0.07"},{"name":"F#3","midi":54,"time":"208.34","velocity":0.2047244094488189,"duration":"0.07"},{"name":"F#3","midi":54,"time":"208.49","velocity":0.1889763779527559,"duration":"0.07"},{"name":"G#2","midi":44,"time":"208.50","velocity":0.4409448818897638,"duration":"0.07"},{"name":"F#3","midi":54,"time":"208.64","velocity":0.25196850393700787,"duration":"0.07"},{"name":"G#2","midi":44,"time":"208.65","velocity":0.2440944881889764,"duration":"0.07"},{"name":"A1","midi":33,"time":"208.80","velocity":0.9921259842519685,"duration":"0.07"},{"name":"F#3","midi":54,"time":"208.80","velocity":0.2992125984251969,"duration":"0.07"},{"name":"G#2","midi":44,"time":"208.80","velocity":0.7244094488188977,"duration":"0.07"},{"name":"F#3","midi":54,"time":"208.94","velocity":0.18110236220472442,"duration":"0.07"},{"name":"F#3","midi":54,"time":"209.09","velocity":0.14960629921259844,"duration":"0.07"},{"name":"G#2","midi":44,"time":"209.10","velocity":0.4409448818897638,"duration":"0.07"},{"name":"F#3","midi":54,"time":"209.24","velocity":0.1968503937007874,"duration":"0.07"},{"name":"F#3","midi":54,"time":"209.38","velocity":0.2992125984251969,"duration":"0.07"},{"name":"G1","midi":31,"time":"209.40","velocity":0.7874015748031497,"duration":"0.07"},{"name":"A1","midi":33,"time":"209.40","velocity":1,"duration":"0.07"},{"name":"G#2","midi":44,"time":"209.40","velocity":0.7244094488188977,"duration":"0.07"},{"name":"F#3","midi":54,"time":"209.54","velocity":0.1732283464566929,"duration":"0.07"},{"name":"F#3","midi":54,"time":"209.69","velocity":0.14173228346456693,"duration":"0.07"},{"name":"G#2","midi":44,"time":"209.70","velocity":0.4409448818897638,"duration":"0.07"},{"name":"F#3","midi":54,"time":"209.84","velocity":0.1889763779527559,"duration":"0.07"},{"name":"G#2","midi":44,"time":"209.85","velocity":0.2440944881889764,"duration":"0.07"},{"name":"F#3","midi":54,"time":"209.99","velocity":0.2992125984251969,"duration":"0.07"},{"name":"A1","midi":33,"time":"210.00","velocity":0.9921259842519685,"duration":"0.07"},{"name":"G#2","midi":44,"time":"210.00","velocity":0.7244094488188977,"duration":"0.07"},{"name":"F#3","midi":54,"time":"210.14","velocity":0.1889763779527559,"duration":"0.07"},{"name":"F#3","midi":54,"time":"210.29","velocity":0.1732283464566929,"duration":"0.07"},{"name":"G#2","midi":44,"time":"210.30","velocity":0.7244094488188977,"duration":"0.07"},{"name":"F#3","midi":54,"time":"210.44","velocity":0.2047244094488189,"duration":"0.07"},{"name":"F#3","midi":54,"time":"210.59","velocity":0.2992125984251969,"duration":"0.07"},{"name":"A1","midi":33,"time":"210.60","velocity":1,"duration":"0.07"},{"name":"G1","midi":31,"time":"210.60","velocity":0.7874015748031497,"duration":"0.07"},{"name":"F#3","midi":54,"time":"210.74","velocity":0.2047244094488189,"duration":"0.07"},{"name":"F#3","midi":54,"time":"210.89","velocity":0.1889763779527559,"duration":"0.07"},{"name":"G#2","midi":44,"time":"210.90","velocity":0.4409448818897638,"duration":"0.07"},{"name":"F#3","midi":54,"time":"211.04","velocity":0.25196850393700787,"duration":"0.07"},{"name":"G#2","midi":44,"time":"211.05","velocity":0.2440944881889764,"duration":"0.07"},{"name":"A1","midi":33,"time":"211.20","velocity":0.9921259842519685,"duration":"0.07"},{"name":"G#2","midi":44,"time":"211.20","velocity":0.7244094488188977,"duration":"0.07"},{"name":"F#3","midi":54,"time":"211.20","velocity":0.2992125984251969,"duration":"0.07"},{"name":"F#3","midi":54,"time":"211.34","velocity":0.18110236220472442,"duration":"0.07"},{"name":"G#2","midi":44,"time":"211.35","velocity":0.2677165354330709,"duration":"0.07"},{"name":"F#3","midi":54,"time":"211.49","velocity":0.14960629921259844,"duration":"0.07"},{"name":"G#2","midi":44,"time":"211.50","velocity":0.4409448818897638,"duration":"0.07"},{"name":"F#3","midi":54,"time":"211.64","velocity":0.1968503937007874,"duration":"0.07"},{"name":"G#2","midi":44,"time":"211.65","velocity":0.2440944881889764,"duration":"0.07"},{"name":"F#3","midi":54,"time":"211.78","velocity":0.2992125984251969,"duration":"0.07"},{"name":"G1","midi":31,"time":"211.80","velocity":0.7874015748031497,"duration":"0.07"},{"name":"A1","midi":33,"time":"211.80","velocity":1,"duration":"0.07"},{"name":"G#2","midi":44,"time":"211.80","velocity":0.7244094488188977,"duration":"0.07"},{"name":"F#3","midi":54,"time":"211.94","velocity":0.1732283464566929,"duration":"0.07"},{"name":"F#3","midi":54,"time":"212.09","velocity":0.14173228346456693,"duration":"0.07"},{"name":"G#2","midi":44,"time":"212.10","velocity":0.4409448818897638,"duration":"0.07"},{"name":"F#3","midi":54,"time":"212.24","velocity":0.1889763779527559,"duration":"0.07"},{"name":"G#2","midi":44,"time":"212.25","velocity":0.2440944881889764,"duration":"0.07"},{"name":"F#3","midi":54,"time":"212.39","velocity":0.2992125984251969,"duration":"0.07"},{"name":"A1","midi":33,"time":"212.40","velocity":0.9921259842519685,"duration":"0.07"},{"name":"G#2","midi":44,"time":"212.40","velocity":0.7244094488188977,"duration":"0.07"},{"name":"F#3","midi":54,"time":"212.54","velocity":0.1889763779527559,"duration":"0.07"},{"name":"F#3","midi":54,"time":"212.69","velocity":0.1732283464566929,"duration":"0.07"},{"name":"G#2","midi":44,"time":"212.70","velocity":0.7244094488188977,"duration":"0.07"},{"name":"F#3","midi":54,"time":"212.84","velocity":0.2047244094488189,"duration":"0.07"},{"name":"F#3","midi":54,"time":"212.99","velocity":0.2992125984251969,"duration":"0.07"},{"name":"G1","midi":31,"time":"213.00","velocity":0.7874015748031497,"duration":"0.07"},{"name":"A1","midi":33,"time":"213.00","velocity":1,"duration":"0.07"},{"name":"F#3","midi":54,"time":"213.14","velocity":0.2047244094488189,"duration":"0.07"},{"name":"F#3","midi":54,"time":"213.29","velocity":0.1889763779527559,"duration":"0.07"},{"name":"G#2","midi":44,"time":"213.30","velocity":0.4409448818897638,"duration":"0.07"},{"name":"F#3","midi":54,"time":"213.44","velocity":0.25196850393700787,"duration":"0.07"},{"name":"G#2","midi":44,"time":"213.45","velocity":0.2440944881889764,"duration":"0.07"},{"name":"G#2","midi":44,"time":"213.60","velocity":0.7244094488188977,"duration":"0.07"},{"name":"A1","midi":33,"time":"213.60","velocity":0.9921259842519685,"duration":"0.07"},{"name":"F#3","midi":54,"time":"213.60","velocity":0.2992125984251969,"duration":"0.07"},{"name":"F#3","midi":54,"time":"213.74","velocity":0.18110236220472442,"duration":"0.07"},{"name":"F#3","midi":54,"time":"213.89","velocity":0.14960629921259844,"duration":"0.07"},{"name":"G#2","midi":44,"time":"213.90","velocity":0.4409448818897638,"duration":"0.07"},{"name":"F#3","midi":54,"time":"214.04","velocity":0.1968503937007874,"duration":"0.07"},{"name":"F#3","midi":54,"time":"214.18","velocity":0.2992125984251969,"duration":"0.07"},{"name":"G1","midi":31,"time":"214.20","velocity":0.7874015748031497,"duration":"0.07"},{"name":"A1","midi":33,"time":"214.20","velocity":1,"duration":"0.07"},{"name":"G#2","midi":44,"time":"214.20","velocity":0.7244094488188977,"duration":"0.07"},{"name":"F#3","midi":54,"time":"214.34","velocity":0.1732283464566929,"duration":"0.07"},{"name":"F#3","midi":54,"time":"214.49","velocity":0.14173228346456693,"duration":"0.07"},{"name":"G#2","midi":44,"time":"214.50","velocity":0.4409448818897638,"duration":"0.07"},{"name":"F#3","midi":54,"time":"214.64","velocity":0.1889763779527559,"duration":"0.07"},{"name":"G#2","midi":44,"time":"214.65","velocity":0.2440944881889764,"duration":"0.07"},{"name":"F#3","midi":54,"time":"214.79","velocity":0.2992125984251969,"duration":"0.07"},{"name":"A1","midi":33,"time":"214.80","velocity":0.9921259842519685,"duration":"0.07"},{"name":"G#2","midi":44,"time":"214.80","velocity":0.7244094488188977,"duration":"0.07"},{"name":"F#3","midi":54,"time":"214.94","velocity":0.1889763779527559,"duration":"0.07"},{"name":"F#3","midi":54,"time":"215.09","velocity":0.1732283464566929,"duration":"0.07"},{"name":"G#2","midi":44,"time":"215.10","velocity":0.7244094488188977,"duration":"0.07"},{"name":"F#3","midi":54,"time":"215.24","velocity":0.2047244094488189,"duration":"0.07"},{"name":"F#3","midi":54,"time":"215.39","velocity":0.2992125984251969,"duration":"0.07"},{"name":"A1","midi":33,"time":"215.40","velocity":1,"duration":"0.07"},{"name":"G1","midi":31,"time":"215.40","velocity":0.7874015748031497,"duration":"0.07"},{"name":"F#3","midi":54,"time":"215.54","velocity":0.2047244094488189,"duration":"0.07"},{"name":"F#3","midi":54,"time":"215.69","velocity":0.1889763779527559,"duration":"0.07"},{"name":"G#2","midi":44,"time":"215.70","velocity":0.4409448818897638,"duration":"0.07"},{"name":"F#3","midi":54,"time":"215.84","velocity":0.25196850393700787,"duration":"0.07"},{"name":"G#2","midi":44,"time":"215.85","velocity":0.2440944881889764,"duration":"0.07"},{"name":"F#3","midi":54,"time":"216.59","velocity":0.25196850393700787,"duration":"0.07"},{"name":"F#3","midi":54,"time":"217.20","velocity":0.14960629921259844,"duration":"0.07"},{"name":"F#3","midi":54,"time":"217.50","velocity":0.15748031496062992,"duration":"0.07"},{"name":"F#3","midi":54,"time":"217.80","velocity":0.25196850393700787,"duration":"0.07"},{"name":"F#3","midi":54,"time":"219.00","velocity":0.25196850393700787,"duration":"0.07"},{"name":"F#3","midi":54,"time":"220.20","velocity":0.2204724409448819,"duration":"0.07"},{"name":"D#3","midi":51,"time":"220.80","velocity":0.3937007874015748,"duration":"0.07"}]},{"instrumentFamily":"ensemble","notes":[{"name":"F4","midi":65,"time":"124.80","velocity":0.6377952755905512,"duration":"2.40"},{"name":"A4","midi":69,"time":"124.80","velocity":0.6377952755905512,"duration":"2.40"},{"name":"D4","midi":62,"time":"124.80","velocity":0.6377952755905512,"duration":"2.40"},{"name":"G4","midi":67,"time":"127.20","velocity":0.5826771653543307,"duration":"2.40"},{"name":"D#4","midi":63,"time":"127.20","velocity":0.5826771653543307,"duration":"2.40"},{"name":"A#4","midi":70,"time":"127.20","velocity":0.5826771653543307,"duration":"2.40"},{"name":"D#4","midi":63,"time":"129.60","velocity":0.6377952755905512,"duration":"3.00"},{"name":"G4","midi":67,"time":"129.60","velocity":0.6377952755905512,"duration":"3.00"},{"name":"A#3","midi":58,"time":"129.60","velocity":0.6377952755905512,"duration":"3.00"},{"name":"F4","midi":65,"time":"134.40","velocity":0.6377952755905512,"duration":"2.40"},{"name":"A4","midi":69,"time":"134.40","velocity":0.6377952755905512,"duration":"2.40"},{"name":"D4","midi":62,"time":"134.40","velocity":0.6377952755905512,"duration":"2.40"},{"name":"G4","midi":67,"time":"136.80","velocity":0.5826771653543307,"duration":"2.40"},{"name":"D#4","midi":63,"time":"136.80","velocity":0.5826771653543307,"duration":"2.40"},{"name":"A#4","midi":70,"time":"136.80","velocity":0.5826771653543307,"duration":"2.40"},{"name":"F4","midi":65,"time":"139.20","velocity":0.6377952755905512,"duration":"3.00"},{"name":"A4","midi":69,"time":"139.20","velocity":0.6377952755905512,"duration":"3.00"},{"name":"C4","midi":60,"time":"139.20","velocity":0.6377952755905512,"duration":"3.00"}]},{"instrumentFamily":"reed","notes":[{"name":"F3","midi":53,"time":"25.20","velocity":0.7244094488188977,"duration":"0.30"},{"name":"G3","midi":55,"time":"25.50","velocity":0.7244094488188977,"duration":"0.20"},{"name":"F3","midi":53,"time":"25.80","velocity":0.7244094488188977,"duration":"0.30"},{"name":"C4","midi":60,"time":"26.10","velocity":0.7244094488188977,"duration":"0.60"},{"name":"A3","midi":57,"time":"26.70","velocity":0.7244094488188977,"duration":"0.60"},{"name":"F3","midi":53,"time":"27.60","velocity":0.7244094488188977,"duration":"0.30"},{"name":"G3","midi":55,"time":"27.90","velocity":0.7244094488188977,"duration":"0.30"},{"name":"F3","midi":53,"time":"28.20","velocity":0.7244094488188977,"duration":"0.30"},{"name":"C4","midi":60,"time":"28.50","velocity":0.7322834645669292,"duration":"0.60"},{"name":"A3","midi":57,"time":"29.10","velocity":0.7322834645669292,"duration":"0.60"},{"name":"C3","midi":48,"time":"29.85","velocity":0.7322834645669292,"duration":"0.15"},{"name":"F3","midi":53,"time":"30.00","velocity":0.7322834645669292,"duration":"0.30"},{"name":"G3","midi":55,"time":"30.30","velocity":0.7322834645669292,"duration":"0.30"},{"name":"F3","midi":53,"time":"30.60","velocity":0.7322834645669292,"duration":"0.30"},{"name":"G3","midi":55,"time":"30.90","velocity":0.7322834645669292,"duration":"0.60"},{"name":"A3","midi":57,"time":"31.50","velocity":0.7322834645669292,"duration":"0.60"},{"name":"A3","midi":57,"time":"32.10","velocity":0.7322834645669292,"duration":"0.30"},{"name":"G3","midi":55,"time":"32.40","velocity":0.7322834645669292,"duration":"0.60"},{"name":"G3","midi":55,"time":"33.00","velocity":0.7322834645669292,"duration":"0.60"},{"name":"F3","midi":53,"time":"34.80","velocity":0.7244094488188977,"duration":"0.30"},{"name":"G3","midi":55,"time":"35.10","velocity":0.7244094488188977,"duration":"0.19"},{"name":"F3","midi":53,"time":"35.40","velocity":0.7244094488188977,"duration":"0.30"},{"name":"C4","midi":60,"time":"35.70","velocity":0.7244094488188977,"duration":"0.60"},{"name":"A3","midi":57,"time":"36.30","velocity":0.7244094488188977,"duration":"0.60"},{"name":"F3","midi":53,"time":"37.20","velocity":0.7244094488188977,"duration":"0.30"},{"name":"G3","midi":55,"time":"37.50","velocity":0.7244094488188977,"duration":"0.30"},{"name":"F3","midi":53,"time":"37.80","velocity":0.7244094488188977,"duration":"0.30"},{"name":"C4","midi":60,"time":"38.10","velocity":0.7322834645669292,"duration":"0.60"},{"name":"A3","midi":57,"time":"38.70","velocity":0.7322834645669292,"duration":"0.60"},{"name":"C3","midi":48,"time":"39.45","velocity":0.7322834645669292,"duration":"0.15"},{"name":"F3","midi":53,"time":"39.60","velocity":0.7322834645669292,"duration":"0.30"},{"name":"G3","midi":55,"time":"39.90","velocity":0.7322834645669292,"duration":"0.30"},{"name":"F3","midi":53,"time":"40.20","velocity":0.7322834645669292,"duration":"0.30"},{"name":"G3","midi":55,"time":"40.50","velocity":0.7322834645669292,"duration":"0.60"},{"name":"A3","midi":57,"time":"41.10","velocity":0.7322834645669292,"duration":"0.60"},{"name":"A3","midi":57,"time":"41.70","velocity":0.7322834645669292,"duration":"0.30"},{"name":"G3","midi":55,"time":"42.00","velocity":0.7322834645669292,"duration":"0.60"},{"name":"G3","midi":55,"time":"42.60","velocity":0.7322834645669292,"duration":"1.20"},{"name":"F3","midi":53,"time":"44.40","velocity":0.7322834645669292,"duration":"0.30"},{"name":"G3","midi":55,"time":"44.70","velocity":0.7322834645669292,"duration":"0.60"},{"name":"C4","midi":60,"time":"45.30","velocity":0.7322834645669292,"duration":"0.60"},{"name":"A3","midi":57,"time":"45.90","velocity":0.7322834645669292,"duration":"0.60"},{"name":"C3","midi":48,"time":"46.65","velocity":0.7322834645669292,"duration":"0.15"},{"name":"F3","midi":53,"time":"46.80","velocity":0.7322834645669292,"duration":"0.30"},{"name":"G3","midi":55,"time":"47.10","velocity":0.7322834645669292,"duration":"0.31"},{"name":"F3","midi":53,"time":"47.40","velocity":0.7322834645669292,"duration":"0.31"},{"name":"C4","midi":60,"time":"47.70","velocity":0.7322834645669292,"duration":"0.60"},{"name":"A3","midi":57,"time":"48.30","velocity":0.7322834645669292,"duration":"0.60"},{"name":"F3","midi":53,"time":"49.20","velocity":0.7322834645669292,"duration":"0.30"},{"name":"G3","midi":55,"time":"49.50","velocity":0.7322834645669292,"duration":"0.30"},{"name":"F3","midi":53,"time":"49.80","velocity":0.7322834645669292,"duration":"0.30"},{"name":"A3","midi":57,"time":"50.10","velocity":0.7322834645669292,"duration":"0.30"},{"name":"A3","midi":57,"time":"50.70","velocity":0.7322834645669292,"duration":"0.60"},{"name":"A3","midi":57,"time":"51.30","velocity":0.7322834645669292,"duration":"0.30"},{"name":"G3","midi":55,"time":"51.60","velocity":0.7322834645669292,"duration":"2.25"},{"name":"F3","midi":53,"time":"54.00","velocity":0.6771653543307087,"duration":"0.30"},{"name":"G3","midi":55,"time":"54.30","velocity":0.6771653543307087,"duration":"0.60"},{"name":"C4","midi":60,"time":"54.90","velocity":0.6771653543307087,"duration":"0.60"},{"name":"G3","midi":55,"time":"55.50","velocity":0.6771653543307087,"duration":"0.60"},{"name":"F3","midi":53,"time":"56.40","velocity":0.6771653543307087,"duration":"0.30"},{"name":"G3","midi":55,"time":"56.70","velocity":0.6771653543307087,"duration":"0.60"},{"name":"C4","midi":60,"time":"57.30","velocity":0.6771653543307087,"duration":"0.60"},{"name":"G3","midi":55,"time":"57.90","velocity":0.6771653543307087,"duration":"0.60"},{"name":"F3","midi":53,"time":"58.80","velocity":0.7244094488188977,"duration":"0.30"},{"name":"G3","midi":55,"time":"59.10","velocity":0.7165354330708661,"duration":"0.30"},{"name":"F3","midi":53,"time":"59.40","velocity":0.7165354330708661,"duration":"0.30"},{"name":"A3","midi":57,"time":"59.70","velocity":0.6771653543307087,"duration":"1.05"},{"name":"A3","midi":57,"time":"60.90","velocity":0.6771653543307087,"duration":"0.30"},{"name":"G3","midi":55,"time":"61.20","velocity":0.7322834645669292,"duration":"1.99"},{"name":"F4","midi":65,"time":"63.30","velocity":0.7322834645669292,"duration":"0.60"},{"name":"D4","midi":62,"time":"63.91","velocity":0.7007874015748031,"duration":"0.29"},{"name":"C4","midi":60,"time":"64.20","velocity":0.7007874015748031,"duration":"0.30"},{"name":"F4","midi":65,"time":"64.50","velocity":0.7322834645669292,"duration":"0.60"},{"name":"D4","midi":62,"time":"65.10","velocity":0.7007874015748031,"duration":"0.30"},{"name":"C4","midi":60,"time":"65.40","velocity":0.7007874015748031,"duration":"0.30"},{"name":"F4","midi":65,"time":"65.70","velocity":0.7322834645669292,"duration":"0.60"},{"name":"C4","midi":60,"time":"66.30","velocity":0.7322834645669292,"duration":"1.35"},{"name":"A3","midi":57,"time":"68.10","velocity":0.7322834645669292,"duration":"0.60"},{"name":"C4","midi":60,"time":"68.70","velocity":0.7322834645669292,"duration":"0.30"},{"name":"A3","midi":57,"time":"69.00","velocity":0.7322834645669292,"duration":"0.30"},{"name":"D4","midi":62,"time":"69.30","velocity":0.7322834645669292,"duration":"0.60"},{"name":"A3","midi":57,"time":"69.90","velocity":0.7322834645669292,"duration":"0.30"},{"name":"A3","midi":57,"time":"70.20","velocity":0.7322834645669292,"duration":"0.30"},{"name":"A3","midi":57,"time":"70.50","velocity":0.7322834645669292,"duration":"0.30"},{"name":"G3","midi":55,"time":"70.80","velocity":0.7322834645669292,"duration":"1.80"},{"name":"F4","midi":65,"time":"72.90","velocity":0.7322834645669292,"duration":"0.60"},{"name":"D4","midi":62,"time":"73.51","velocity":0.7007874015748031,"duration":"0.30"},{"name":"C4","midi":60,"time":"73.80","velocity":0.7007874015748031,"duration":"0.30"},{"name":"F4","midi":65,"time":"74.10","velocity":0.7322834645669292,"duration":"0.60"},{"name":"D4","midi":62,"time":"74.70","velocity":0.7007874015748031,"duration":"0.30"},{"name":"C4","midi":60,"time":"75.00","velocity":0.7007874015748031,"duration":"0.30"},{"name":"F4","midi":65,"time":"75.30","velocity":0.7322834645669292,"duration":"0.60"},{"name":"C4","midi":60,"time":"75.90","velocity":0.7322834645669292,"duration":"1.35"},{"name":"A3","midi":57,"time":"77.70","velocity":0.7322834645669292,"duration":"0.60"},{"name":"C4","midi":60,"time":"78.30","velocity":0.7322834645669292,"duration":"0.30"},{"name":"C4","midi":60,"time":"78.60","velocity":0.7322834645669292,"duration":"0.30"},{"name":"A3","midi":57,"time":"78.90","velocity":0.7322834645669292,"duration":"0.30"},{"name":"A#3","midi":58,"time":"79.20","velocity":0.7322834645669292,"duration":"0.60"},{"name":"A3","midi":57,"time":"79.80","velocity":0.7322834645669292,"duration":"0.30"},{"name":"A3","midi":57,"time":"80.10","velocity":0.7322834645669292,"duration":"0.30"},{"name":"A3","midi":57,"time":"80.40","velocity":0.7322834645669292,"duration":"0.30"},{"name":"G3","midi":55,"time":"80.70","velocity":0.7322834645669292,"duration":"0.60"},{"name":"E3","midi":52,"time":"81.30","velocity":0.7322834645669292,"duration":"1.05"},{"name":"A#3","midi":58,"time":"84.30","velocity":0.8031496062992126,"duration":"0.30"},{"name":"A#3","midi":58,"time":"84.60","velocity":0.8031496062992126,"duration":"0.30"},{"name":"E3","midi":52,"time":"84.90","velocity":0.8031496062992126,"duration":"0.30"},{"name":"A#3","midi":58,"time":"85.20","velocity":0.8031496062992126,"duration":"0.30"},{"name":"A#3","midi":58,"time":"85.50","velocity":0.8031496062992126,"duration":"0.30"},{"name":"A#3","midi":58,"time":"85.80","velocity":0.8031496062992126,"duration":"0.30"},{"name":"A#3","midi":58,"time":"86.10","velocity":0.8031496062992126,"duration":"0.30"},{"name":"A#3","midi":58,"time":"86.41","velocity":0.8031496062992126,"duration":"0.30"},{"name":"F#3","midi":54,"time":"86.70","velocity":0.6535433070866141,"duration":"0.63"},{"name":"F3","midi":53,"time":"106.80","velocity":0.8110236220472441,"duration":"0.30"},{"name":"G3","midi":55,"time":"107.10","velocity":0.8110236220472441,"duration":"0.19"},{"name":"F3","midi":53,"time":"107.40","velocity":0.8110236220472441,"duration":"0.30"},{"name":"C4","midi":60,"time":"107.70","velocity":0.8188976377952756,"duration":"0.60"},{"name":"A3","midi":57,"time":"108.30","velocity":0.8188976377952756,"duration":"0.60"},{"name":"C3","midi":48,"time":"109.05","velocity":0.8503937007874016,"duration":"0.15"},{"name":"F3","midi":53,"time":"109.20","velocity":0.8110236220472441,"duration":"0.30"},{"name":"G3","midi":55,"time":"109.50","velocity":0.8110236220472441,"duration":"0.30"},{"name":"F3","midi":53,"time":"109.80","velocity":0.8110236220472441,"duration":"0.30"},{"name":"C4","midi":60,"time":"110.10","velocity":0.8110236220472441,"duration":"0.60"},{"name":"A3","midi":57,"time":"110.70","velocity":0.8110236220472441,"duration":"0.60"},{"name":"F3","midi":53,"time":"111.60","velocity":0.8267716535433071,"duration":"0.30"},{"name":"G3","midi":55,"time":"111.90","velocity":0.8267716535433071,"duration":"0.30"},{"name":"F3","midi":53,"time":"112.20","velocity":0.8267716535433071,"duration":"0.30"},{"name":"G3","midi":55,"time":"112.50","velocity":0.8267716535433071,"duration":"0.60"},{"name":"A3","midi":57,"time":"113.10","velocity":0.8267716535433071,"duration":"0.60"},{"name":"A3","midi":57,"time":"113.70","velocity":0.8267716535433071,"duration":"0.30"},{"name":"G3","midi":55,"time":"114.00","velocity":0.8267716535433071,"duration":"0.60"},{"name":"G3","midi":55,"time":"114.60","velocity":0.8267716535433071,"duration":"1.36"},{"name":"F3","midi":53,"time":"116.40","velocity":0.8188976377952756,"duration":"0.30"},{"name":"G3","midi":55,"time":"116.70","velocity":0.8267716535433071,"duration":"0.31"},{"name":"F3","midi":53,"time":"117.00","velocity":0.8267716535433071,"duration":"0.30"},{"name":"B3","midi":59,"time":"117.30","velocity":0.8267716535433071,"duration":"1.12"},{"name":"F3","midi":53,"time":"118.80","velocity":0.7244094488188977,"duration":"0.30"},{"name":"G3","midi":55,"time":"119.10","velocity":0.8661417322834646,"duration":"0.30"},{"name":"F3","midi":53,"time":"119.40","velocity":0.8661417322834646,"duration":"0.30"},{"name":"C4","midi":60,"time":"119.70","velocity":0.8661417322834646,"duration":"0.60"},{"name":"A3","midi":57,"time":"120.30","velocity":0.8661417322834646,"duration":"0.60"},{"name":"C3","midi":48,"time":"121.05","velocity":0.8267716535433071,"duration":"0.12"},{"name":"F3","midi":53,"time":"121.20","velocity":0.8267716535433071,"duration":"0.30"},{"name":"G3","midi":55,"time":"121.50","velocity":0.8582677165354331,"duration":"0.30"},{"name":"F3","midi":53,"time":"121.80","velocity":0.8582677165354331,"duration":"0.30"},{"name":"G3","midi":55,"time":"122.10","velocity":0.8582677165354331,"duration":"0.60"},{"name":"A3","midi":57,"time":"122.70","velocity":0.8582677165354331,"duration":"0.60"},{"name":"A3","midi":57,"time":"123.30","velocity":0.8582677165354331,"duration":"0.30"},{"name":"G3","midi":55,"time":"123.60","velocity":0.8582677165354331,"duration":"0.60"},{"name":"G3","midi":55,"time":"124.20","velocity":0.8582677165354331,"duration":"1.50"},{"name":"F3","midi":53,"time":"125.70","velocity":0.5511811023622047,"duration":"0.30"},{"name":"F3","midi":53,"time":"126.00","velocity":0.905511811023622,"duration":"0.30"},{"name":"G3","midi":55,"time":"126.30","velocity":0.905511811023622,"duration":"0.30"},{"name":"F3","midi":53,"time":"126.60","velocity":0.905511811023622,"duration":"0.30"},{"name":"C4","midi":60,"time":"126.90","velocity":0.905511811023622,"duration":"0.60"},{"name":"A3","midi":57,"time":"127.50","velocity":0.905511811023622,"duration":"0.60"},{"name":"F3","midi":53,"time":"128.40","velocity":0.8346456692913385,"duration":"0.30"},{"name":"G3","midi":55,"time":"128.70","velocity":0.8346456692913385,"duration":"0.30"},{"name":"F3","midi":53,"time":"129.00","velocity":0.8346456692913385,"duration":"0.30"},{"name":"C4","midi":60,"time":"129.30","velocity":0.84251968503937,"duration":"0.60"},{"name":"A3","midi":57,"time":"129.90","velocity":0.8582677165354331,"duration":"0.60"},{"name":"F3","midi":53,"time":"130.80","velocity":0.8110236220472441,"duration":"0.30"},{"name":"G3","midi":55,"time":"131.10","velocity":0.8110236220472441,"duration":"0.30"},{"name":"F3","midi":53,"time":"131.40","velocity":0.8110236220472441,"duration":"0.30"},{"name":"G3","midi":55,"time":"131.70","velocity":0.8110236220472441,"duration":"0.60"},{"name":"A3","midi":57,"time":"132.30","velocity":0.8031496062992126,"duration":"0.60"},{"name":"A3","midi":57,"time":"132.90","velocity":0.8031496062992126,"duration":"0.30"},{"name":"G3","midi":55,"time":"133.20","velocity":0.7952755905511811,"duration":"0.60"},{"name":"G3","midi":55,"time":"133.80","velocity":0.7952755905511811,"duration":"1.36"},{"name":"F3","midi":53,"time":"135.60","velocity":0.905511811023622,"duration":"0.30"},{"name":"G3","midi":55,"time":"135.90","velocity":0.905511811023622,"duration":"0.30"},{"name":"F3","midi":53,"time":"136.20","velocity":0.905511811023622,"duration":"0.30"},{"name":"C4","midi":60,"time":"136.50","velocity":0.905511811023622,"duration":"0.60"},{"name":"A3","midi":57,"time":"137.10","velocity":0.905511811023622,"duration":"0.60"},{"name":"F3","midi":53,"time":"138.00","velocity":0.8346456692913385,"duration":"0.30"},{"name":"G3","midi":55,"time":"138.30","velocity":0.8346456692913385,"duration":"0.30"},{"name":"F3","midi":53,"time":"138.60","velocity":0.8346456692913385,"duration":"0.30"},{"name":"C4","midi":60,"time":"138.90","velocity":0.84251968503937,"duration":"0.60"},{"name":"A3","midi":57,"time":"139.50","velocity":0.8582677165354331,"duration":"0.60"},{"name":"F3","midi":53,"time":"140.40","velocity":0.8110236220472441,"duration":"0.30"},{"name":"G3","midi":55,"time":"140.70","velocity":0.8110236220472441,"duration":"0.30"},{"name":"F3","midi":53,"time":"141.00","velocity":0.8110236220472441,"duration":"0.30"},{"name":"G3","midi":55,"time":"141.30","velocity":0.8110236220472441,"duration":"0.60"},{"name":"A3","midi":57,"time":"141.90","velocity":0.8031496062992126,"duration":"0.60"},{"name":"A3","midi":57,"time":"142.50","velocity":0.8031496062992126,"duration":"0.30"},{"name":"G3","midi":55,"time":"142.80","velocity":0.7952755905511811,"duration":"0.60"},{"name":"G3","midi":55,"time":"143.40","velocity":0.7952755905511811,"duration":"1.36"},{"name":"A#3","midi":58,"time":"144.90","velocity":0.5354330708661418,"duration":"0.60"},{"name":"F4","midi":65,"time":"144.90","velocity":0.7322834645669292,"duration":"0.60"},{"name":"A3","midi":57,"time":"145.50","velocity":0.5354330708661418,"duration":"0.30"},{"name":"D4","midi":62,"time":"145.50","velocity":0.7007874015748031,"duration":"0.29"},{"name":"A3","midi":57,"time":"145.80","velocity":0.5354330708661418,"duration":"0.30"},{"name":"C4","midi":60,"time":"145.80","velocity":0.7007874015748031,"duration":"0.29"},{"name":"A#3","midi":58,"time":"146.10","velocity":0.5354330708661418,"duration":"0.60"},{"name":"F4","midi":65,"time":"146.10","velocity":0.7322834645669292,"duration":"0.60"},{"name":"A3","midi":57,"time":"146.70","velocity":0.5354330708661418,"duration":"0.30"},{"name":"D4","midi":62,"time":"146.70","velocity":0.7007874015748031,"duration":"0.29"},{"name":"A3","midi":57,"time":"147.00","velocity":0.5354330708661418,"duration":"0.30"},{"name":"C4","midi":60,"time":"147.00","velocity":0.7007874015748031,"duration":"0.29"},{"name":"A#3","midi":58,"time":"147.30","velocity":0.5354330708661418,"duration":"0.60"},{"name":"F4","midi":65,"time":"147.30","velocity":0.7322834645669292,"duration":"0.60"},{"name":"A3","midi":57,"time":"147.90","velocity":0.5354330708661418,"duration":"1.35"},{"name":"C4","midi":60,"time":"147.90","velocity":0.7322834645669292,"duration":"1.35"},{"name":"A3","midi":57,"time":"149.70","velocity":0.84251968503937,"duration":"0.30"},{"name":"A3","midi":57,"time":"150.00","velocity":0.84251968503937,"duration":"0.30"},{"name":"C4","midi":60,"time":"150.30","velocity":0.8346456692913385,"duration":"0.30"},{"name":"C4","midi":60,"time":"150.60","velocity":0.8346456692913385,"duration":"0.30"},{"name":"D4","midi":62,"time":"150.90","velocity":0.8503937007874016,"duration":"0.60"},{"name":"A3","midi":57,"time":"151.50","velocity":0.8503937007874016,"duration":"0.30"},{"name":"A3","midi":57,"time":"151.80","velocity":0.84251968503937,"duration":"0.30"},{"name":"A3","midi":57,"time":"152.10","velocity":0.8346456692913385,"duration":"0.30"},{"name":"G3","midi":55,"time":"152.40","velocity":0.8267716535433071,"duration":"1.95"},{"name":"A#3","midi":58,"time":"154.50","velocity":0.5354330708661418,"duration":"0.60"},{"name":"F4","midi":65,"time":"154.50","velocity":0.8267716535433071,"duration":"0.60"},{"name":"A3","midi":57,"time":"155.10","velocity":0.5354330708661418,"duration":"0.30"},{"name":"D4","midi":62,"time":"155.10","velocity":0.8110236220472441,"duration":"0.29"},{"name":"A3","midi":57,"time":"155.40","velocity":0.5354330708661418,"duration":"0.30"},{"name":"C4","midi":60,"time":"155.40","velocity":0.8110236220472441,"duration":"0.29"},{"name":"A#3","midi":58,"time":"155.70","velocity":0.5354330708661418,"duration":"0.60"},{"name":"F4","midi":65,"time":"155.70","velocity":0.8110236220472441,"duration":"0.60"},{"name":"A3","midi":57,"time":"156.30","velocity":0.5354330708661418,"duration":"0.30"},{"name":"D4","midi":62,"time":"156.30","velocity":0.8110236220472441,"duration":"0.29"},{"name":"A3","midi":57,"time":"156.60","velocity":0.5354330708661418,"duration":"0.30"},{"name":"C4","midi":60,"time":"156.60","velocity":0.8110236220472441,"duration":"0.29"},{"name":"A#3","midi":58,"time":"156.90","velocity":0.5354330708661418,"duration":"0.60"},{"name":"F4","midi":65,"time":"156.90","velocity":0.8110236220472441,"duration":"0.60"},{"name":"A3","midi":57,"time":"157.50","velocity":0.5354330708661418,"duration":"1.35"},{"name":"C4","midi":60,"time":"157.50","velocity":0.8110236220472441,"duration":"1.35"},{"name":"A3","midi":57,"time":"159.30","velocity":0.8740157480314961,"duration":"0.60"},{"name":"C4","midi":60,"time":"159.90","velocity":0.8740157480314961,"duration":"0.30"},{"name":"C4","midi":60,"time":"160.20","velocity":0.8740157480314961,"duration":"0.30"},{"name":"A3","midi":57,"time":"160.50","velocity":0.8661417322834646,"duration":"0.30"},{"name":"D4","midi":62,"time":"160.80","velocity":0.8661417322834646,"duration":"0.30"},{"name":"A3","midi":57,"time":"161.10","velocity":0.8661417322834646,"duration":"0.30"},{"name":"A3","midi":57,"time":"161.40","velocity":0.8661417322834646,"duration":"0.30"},{"name":"A3","midi":57,"time":"161.70","velocity":0.8661417322834646,"duration":"0.30"},{"name":"G3","midi":55,"time":"162.00","velocity":0.8661417322834646,"duration":"1.22"},{"name":"F#3","midi":54,"time":"163.20","velocity":0.7322834645669292,"duration":"1.20"},{"name":"A#3","midi":58,"time":"165.90","velocity":0.8031496062992126,"duration":"0.30"},{"name":"A#3","midi":58,"time":"166.20","velocity":0.8031496062992126,"duration":"0.30"},{"name":"A#3","midi":58,"time":"166.50","velocity":0.8031496062992126,"duration":"0.30"},{"name":"A#3","midi":58,"time":"166.80","velocity":0.8031496062992126,"duration":"0.30"},{"name":"A#3","midi":58,"time":"167.10","velocity":0.8031496062992126,"duration":"0.30"},{"name":"A#3","midi":58,"time":"167.40","velocity":0.8031496062992126,"duration":"0.30"},{"name":"A#3","midi":58,"time":"167.70","velocity":0.8031496062992126,"duration":"0.30"},{"name":"A#3","midi":58,"time":"168.01","velocity":0.8031496062992126,"duration":"0.30"},{"name":"F#3","midi":54,"time":"168.30","velocity":0.6535433070866141,"duration":"0.63"},{"name":"C4","midi":60,"time":"189.00","velocity":0.7874015748031497,"duration":"0.30"},{"name":"A4","midi":69,"time":"189.30","velocity":0.7874015748031497,"duration":"1.80"},{"name":"G4","midi":67,"time":"191.10","velocity":0.7874015748031497,"duration":"0.30"},{"name":"F4","midi":65,"time":"191.40","velocity":0.7874015748031497,"duration":"0.30"},{"name":"D4","midi":62,"time":"191.70","velocity":0.7874015748031497,"duration":"0.30"},{"name":"C4","midi":60,"time":"192.00","velocity":0.8267716535433071,"duration":"1.20"},{"name":"C4","midi":60,"time":"198.60","velocity":0.7874015748031497,"duration":"0.30"},{"name":"A4","midi":69,"time":"198.90","velocity":0.7874015748031497,"duration":"1.80"},{"name":"G4","midi":67,"time":"200.70","velocity":0.7874015748031497,"duration":"0.30"},{"name":"F4","midi":65,"time":"201.00","velocity":0.7874015748031497,"duration":"0.30"},{"name":"D4","midi":62,"time":"201.30","velocity":0.7874015748031497,"duration":"0.30"},{"name":"C4","midi":60,"time":"201.60","velocity":0.8267716535433071,"duration":"2.07"},{"name":"C4","midi":60,"time":"208.20","velocity":0.7874015748031497,"duration":"0.30"},{"name":"A4","midi":69,"time":"208.50","velocity":0.7874015748031497,"duration":"1.80"},{"name":"G4","midi":67,"time":"210.30","velocity":0.7874015748031497,"duration":"0.30"},{"name":"F4","midi":65,"time":"210.60","velocity":0.7874015748031497,"duration":"0.30"},{"name":"D4","midi":62,"time":"210.90","velocity":0.7874015748031497,"duration":"0.30"},{"name":"C4","midi":60,"time":"211.20","velocity":0.8267716535433071,"duration":"2.07"},{"name":"C4","midi":60,"time":"217.50","velocity":0.6850393700787402,"duration":"0.60"},{"name":"A4","midi":69,"time":"218.10","velocity":0.6771653543307087,"duration":"1.80"},{"name":"G4","midi":67,"time":"219.90","velocity":0.6850393700787402,"duration":"0.30"},{"name":"F4","midi":65,"time":"220.20","velocity":0.6850393700787402,"duration":"0.30"},{"name":"D4","midi":62,"time":"220.50","velocity":0.6692913385826772,"duration":"0.30"},{"name":"C4","midi":60,"time":"220.80","velocity":0.6692913385826772,"duration":"2.07"}]},{"instrumentFamily":"sound effects","notes":[{"name":"A3","midi":57,"time":"88.50","velocity":0.4566929133858268,"duration":"0.35"},{"name":"A3","midi":57,"time":"95.71","velocity":0.4566929133858268,"duration":"0.35"},{"name":"A3","midi":57,"time":"153.31","velocity":0.4566929133858268,"duration":"0.35"},{"name":"A3","midi":57,"time":"162.91","velocity":0.4566929133858268,"duration":"0.35"},{"name":"A3","midi":57,"time":"215.71","velocity":0.4566929133858268,"duration":"0.35"},{"name":"A3","midi":57,"time":"220.51","velocity":0.4566929133858268,"duration":"0.35"}]}]}
